37120 On ch=1 n=80 v=79
37376 Off ch=1 n=80 v=0
37632 On ch=1 n=81 v=84
37888 Off ch=1 n=81 v=0
37888 On ch=1 n=76 v=127
37888 On ch=1 n=88 v=127
38144 Off ch=1 n=76 v=0
38144 Off ch=1 n=88 v=0
38144 On ch=1 n=76 v=114
38144 On ch=1 n=88 v=114
38220 Off ch=1 n=76 v=0
38220 Off ch=1 n=88 v=0
38272 On ch=1 n=76 v=111
38272 On ch=1 n=88 v=111
38348 Off ch=1 n=76 v=0
38348 Off ch=1 n=88 v=0
38400 On ch=1 n=76 v=114
38400 On ch=1 n=88 v=114
38553 Off ch=1 n=76 v=0
38553 Off ch=1 n=88 v=0
38656 On ch=1 n=76 v=116
38656 On ch=1 n=88 v=116
38801 Off ch=1 n=76 v=0
38801 Off ch=1 n=88 v=0
38912 On ch=1 n=76 v=108
38912 On ch=1 n=88 v=108
39168 Off ch=1 n=76 v=0
39168 Off ch=1 n=88 v=0
39168 On ch=1 n=76 v=112
39168 On ch=1 n=88 v=112
39244 Off ch=1 n=76 v=0
39244 Off ch=1 n=88 v=0
39296 On ch=1 n=76 v=113
39296 On ch=1 n=88 v=113
39372 Off ch=1 n=76 v=0
39372 Off ch=1 n=88 v=0
39424 On ch=1 n=76 v=112
39424 On ch=1 n=88 v=112
39577 Off ch=1 n=76 v=0
39577 Off ch=1 n=88 v=0
39680 On ch=1 n=76 v=116
39680 On ch=1 n=88 v=116
39825 Off ch=1 n=76 v=0
39825 Off ch=1 n=88 v=0
39936 On ch=1 n=76 v=107
39936 On ch=1 n=88 v=107
40192 Off ch=1 n=76 v=0
40192 Off ch=1 n=88 v=0
40192 On ch=1 n=76 v=111
40192 On ch=1 n=88 v=111
40268 Off ch=1 n=76 v=0
40268 Off ch=1 n=88 v=0
40320 On ch=1 n=78 v=123
40320 On ch=1 n=90 v=123
40396 Off ch=1 n=78 v=0
40396 Off ch=1 n=90 v=0
40448 On ch=1 n=79 v=120
40448 On ch=1 n=91 v=120
40601 Off ch=1 n=79 v=0
40601 Off ch=1 n=91 v=0
40704 On ch=1 n=79 v=110
40704 On ch=1 n=91 v=110
40849 Off ch=1 n=79 v=0
40849 Off ch=1 n=91 v=0
40960 On ch=1 n=79 v=114
40960 On ch=1 n=91 v=114
41216 Off ch=1 n=79 v=0
41216 Off ch=1 n=91 v=0
41216 On ch=1 n=79 v=112
41216 On ch=1 n=91 v=112
41292 Off ch=1 n=79 v=0
41292 Off ch=1 n=91 v=0
41344 On ch=1 n=79 v=112
41344 On ch=1 n=91 v=112
41420 Off ch=1 n=79 v=0
41420 Off ch=1 n=91 v=0
41472 On ch=1 n=79 v=110
41472 On ch=1 n=91 v=110
41728 Off ch=1 n=79 v=0
41728 Off ch=1 n=91 v=0
41984 On ch=1 n=79 v=100
42240 Off ch=1 n=79 v=0
42240 On ch=1 n=79 v=111
42368 Off ch=1 n=79 v=0
42368 On ch=1 n=81 v=115
42496 Off ch=1 n=81 v=0
42496 On ch=1 n=83 v=119
42649 Off ch=1 n=83 v=0
42752 On ch=1 n=83 v=112
42889 Off ch=1 n=83 v=0
43008 On ch=1 n=78 v=127
43008 On ch=1 n=90 v=127
43264 Off ch=1 n=78 v=0
43264 Off ch=1 n=90 v=0
43264 On ch=1 n=78 v=114
43264 On ch=1 n=90 v=114
43340 Off ch=1 n=78 v=0
43340 Off ch=1 n=90 v=0
43392 On ch=1 n=80 v=117
43392 On ch=1 n=92 v=117
43468 Off ch=1 n=80 v=0
43468 Off ch=1 n=92 v=0
43520 On ch=1 n=81 v=117
43520 On ch=1 n=93 v=117
43673 Off ch=1 n=81 v=0
43673 Off ch=1 n=93 v=0
43776 On ch=1 n=81 v=112
43776 On ch=1 n=93 v=112
43921 Off ch=1 n=81 v=0
43921 Off ch=1 n=93 v=0
44032 On ch=1 n=76 v=100
44032 On ch=1 n=88 v=100
44288 Off ch=1 n=76 v=0
44288 Off ch=1 n=88 v=0
44288 On ch=1 n=76 v=107
44288 On ch=1 n=88 v=107
44364 Off ch=1 n=76 v=0
44364 Off ch=1 n=88 v=0
44416 On ch=1 n=76 v=110
44416 On ch=1 n=88 v=110
44492 Off ch=1 n=76 v=0
44492 Off ch=1 n=88 v=0
44544 On ch=1 n=76 v=113
44544 On ch=1 n=88 v=113
44697 Off ch=1 n=76 v=0
44697 Off ch=1 n=88 v=0
44800 On ch=1 n=76 v=118
44800 On ch=1 n=88 v=118
44945 Off ch=1 n=76 v=0
44945 Off ch=1 n=88 v=0
45056 On ch=1 n=76 v=116
45056 On ch=1 n=88 v=116
45312 Off ch=1 n=76 v=0
45312 Off ch=1 n=88 v=0
45312 On ch=1 n=78 v=121
45312 On ch=1 n=90 v=121
45388 Off ch=1 n=78 v=0
45388 Off ch=1 n=90 v=0
45440 On ch=1 n=80 v=121
45440 On ch=1 n=92 v=121
45516 Off ch=1 n=80 v=0
45516 Off ch=1 n=92 v=0
45568 On ch=1 n=81 v=121
45568 On ch=1 n=93 v=121
45824 Off ch=1 n=81 v=0
45824 Off ch=1 n=93 v=0
47104 On ch=1 n=78 v=93
47104 On ch=1 n=90 v=93
47360 Off ch=1 n=78 v=0
47360 Off ch=1 n=90 v=0
47360 On ch=1 n=78 v=97
47360 On ch=1 n=90 v=97
47436 Off ch=1 n=78 v=0
47436 Off ch=1 n=90 v=0
47488 On ch=1 n=80 v=97
47488 On ch=1 n=92 v=97
47564 Off ch=1 n=80 v=0
47564 Off ch=1 n=92 v=0
47616 On ch=1 n=81 v=92
47616 On ch=1 n=93 v=92
47769 Off ch=1 n=81 v=0
47769 Off ch=1 n=93 v=0
47872 On ch=1 n=81 v=77
47872 On ch=1 n=93 v=77
48017 Off ch=1 n=81 v=0
48017 Off ch=1 n=93 v=0
48128 On ch=1 n=76 v=51
48128 On ch=1 n=88 v=51
48384 Off ch=1 n=76 v=0
48384 Off ch=1 n=88 v=0
48384 On ch=1 n=76 v=59
48384 On ch=1 n=88 v=59
48460 Off ch=1 n=76 v=0
48460 Off ch=1 n=88 v=0
48512 On ch=1 n=76 v=56
48512 On ch=1 n=88 v=56
48588 Off ch=1 n=76 v=0
48588 Off ch=1 n=88 v=0
48640 On ch=1 n=76 v=54
48640 On ch=1 n=88 v=54
48793 Off ch=1 n=76 v=0
48793 Off ch=1 n=88 v=0
48896 On ch=1 n=76 v=54
48896 On ch=1 n=88 v=54
49041 Off ch=1 n=76 v=0
49041 Off ch=1 n=88 v=0
49152 On ch=1 n=76 v=56
49152 On ch=1 n=88 v=56
49408 Off ch=1 n=76 v=0
49408 Off ch=1 n=88 v=0
49408 On ch=1 n=78 v=54
49408 On ch=1 n=90 v=54
49484 Off ch=1 n=78 v=0
49484 Off ch=1 n=90 v=0
49536 On ch=1 n=80 v=50
49536 On ch=1 n=92 v=50
49612 Off ch=1 n=80 v=0
49612 Off ch=1 n=92 v=0
49664 On ch=1 n=81 v=48
49664 On ch=1 n=93 v=48
49920 Off ch=1 n=81 v=0
49920 Off ch=1 n=93 v=0
56064 On ch=1 n=88 v=43
56064 On ch=1 n=91 v=43
57088 Off ch=1 n=88 v=0
57088 Off ch=1 n=91 v=0
57088 On ch=1 n=86 v=74
57088 On ch=1 n=90 v=74
57600 On ch=1 n=85 v=57
57600 On ch=1 n=88 v=57
57610 Off ch=1 n=86 v=0
57610 Off ch=1 n=90 v=0
57843 Off ch=1 n=85 v=0
57843 Off ch=1 n=88 v=0
57856 On ch=1 n=83 v=53
57856 On ch=1 n=86 v=53
58112 On ch=1 n=81 v=54
58112 On ch=1 n=85 v=54
58117 Off ch=1 n=83 v=0
58117 Off ch=1 n=86 v=0
58368 On ch=1 n=80 v=49
58368 On ch=1 n=83 v=49
58373 Off ch=1 n=81 v=0
58373 Off ch=1 n=85 v=0
58624 On ch=1 n=78 v=54
58624 On ch=1 n=87 v=54
58629 Off ch=1 n=80 v=0
58629 Off ch=1 n=83 v=0
58880 On ch=1 n=76 v=54
58880 On ch=1 n=88 v=54
58885 Off ch=1 n=78 v=0
58885 Off ch=1 n=87 v=0
59123 Off ch=1 n=76 v=0
59123 Off ch=1 n=88 v=0
68608 On ch=1 n=88 v=100
69205 Off ch=1 n=88 v=0
69205 On ch=1 n=89 v=96
69290 On ch=1 n=88 v=91
69291 Off ch=1 n=89 v=0
69376 On ch=1 n=91 v=96
69377 Off ch=1 n=88 v=0
69461 On ch=1 n=89 v=77
69462 Off ch=1 n=91 v=0
69546 On ch=1 n=81 v=69
69547 Off ch=1 n=89 v=0
69627 Off ch=1 n=81 v=0
69632 On ch=1 n=84 v=50
69888 On ch=1 n=88 v=91
69893 Off ch=1 n=84 v=0
70016 On ch=1 n=86 v=83
70018 Off ch=1 n=88 v=0
70137 Off ch=1 n=86 v=0
70144 On ch=1 n=84 v=74
70400 Off ch=1 n=84 v=0
70656 On ch=1 n=89 v=73
71040 Off ch=1 n=89 v=0
71040 On ch=1 n=89 v=80
71168 Off ch=1 n=89 v=0
71168 On ch=1 n=89 v=80
71253 On ch=1 n=88 v=74
71254 Off ch=1 n=89 v=0
71333 Off ch=1 n=88 v=0
71338 On ch=1 n=86 v=76
71389 Off ch=1 n=86 v=0
71424 On ch=1 n=84 v=74
71475 Off ch=1 n=84 v=0
71509 On ch=1 n=83 v=75
71560 Off ch=1 n=83 v=0
71594 On ch=1 n=81 v=74
71645 Off ch=1 n=81 v=0
71680 On ch=1 n=79 v=75
71936 On ch=1 n=81 v=78
71941 Off ch=1 n=79 v=0
72057 Off ch=1 n=81 v=0
72064 On ch=1 n=83 v=80
72140 Off ch=1 n=83 v=0
72192 On ch=1 n=84 v=80
72533 Off ch=1 n=84 v=0
72533 On ch=1 n=86 v=84
72618 On ch=1 n=88 v=93
72619 Off ch=1 n=86 v=0
72699 Off ch=1 n=88 v=0
72704 On ch=1 n=89 v=90
73088 Off ch=1 n=89 v=0
73088 On ch=1 n=89 v=86
73216 Off ch=1 n=89 v=0
73216 On ch=1 n=89 v=94
73267 Off ch=1 n=89 v=0
73301 On ch=1 n=88 v=88
73352 Off ch=1 n=88 v=0
73386 On ch=1 n=86 v=87
73437 Off ch=1 n=86 v=0
73472 On ch=1 n=84 v=102
73523 Off ch=1 n=84 v=0
73557 On ch=1 n=83 v=90
73608 Off ch=1 n=83 v=0
73642 On ch=1 n=81 v=87
73693 Off ch=1 n=81 v=0
73728 On ch=1 n=79 v=92
73856 Off ch=1 n=79 v=0
76032 On ch=1 n=76 v=104
76032 On ch=1 n=88 v=104
76108 Off ch=1 n=76 v=0
76108 Off ch=1 n=88 v=0
76160 On ch=1 n=76 v=110
76160 On ch=1 n=88 v=110
76236 Off ch=1 n=76 v=0
76236 Off ch=1 n=88 v=0
76288 On ch=1 n=84 v=45
76800 On ch=1 n=83 v=48
76810 Off ch=1 n=84 v=0
77277 Off ch=1 n=83 v=0
77312 On ch=1 n=83 v=54
77367 Off ch=1 n=83 v=0
77367 On ch=1 n=84 v=54
77422 On ch=1 n=86 v=54
77422 Off ch=1 n=84 v=0
77653 On ch=1 n=84 v=45
77738 Off ch=1 n=84 v=0
77738 On ch=1 n=83 v=45
77745 Off ch=1 n=86 v=0
77824 Off ch=1 n=83 v=0
77824 On ch=1 n=83 v=51
77952 On ch=1 n=84 v=55
77954 Off ch=1 n=83 v=0
78073 Off ch=1 n=84 v=0
78080 On ch=1 n=84 v=50
78336 Off ch=1 n=84 v=0
78336 On ch=1 n=84 v=51
78720 On ch=1 n=86 v=55
78727 Off ch=1 n=84 v=0
78841 Off ch=1 n=86 v=0
78848 On ch=1 n=87 v=52
78976 On ch=1 n=88 v=54
78978 Off ch=1 n=87 v=0
79097 Off ch=1 n=88 v=0
79104 On ch=1 n=88 v=49
79180 Off ch=1 n=88 v=0
79232 On ch=1 n=88 v=44
79308 Off ch=1 n=88 v=0
79360 On ch=1 n=86 v=52
79415 Off ch=1 n=86 v=0
79415 On ch=1 n=88 v=52
79470 On ch=1 n=89 v=52
79470 Off ch=1 n=88 v=0
79701 On ch=1 n=88 v=48
79786 Off ch=1 n=88 v=0
79786 On ch=1 n=86 v=45
79793 Off ch=1 n=89 v=0
79872 Off ch=1 n=86 v=0
79872 On ch=1 n=86 v=49
80000 On ch=1 n=88 v=45
80002 Off ch=1 n=86 v=0
80121 Off ch=1 n=88 v=0
80128 On ch=1 n=88 v=49
80384 Off ch=1 n=88 v=0
80384 On ch=1 n=88 v=48
80768 On ch=1 n=90 v=50
80775 Off ch=1 n=88 v=0
80896 On ch=1 n=88 v=55
80898 Off ch=1 n=90 v=0
81152 On ch=1 n=87 v=51
81157 Off ch=1 n=88 v=0
81273 Off ch=1 n=87 v=0
81408 On ch=1 n=86 v=40
81792 On ch=1 n=88 v=44
81799 Off ch=1 n=86 v=0
81920 On ch=1 n=86 v=48
81922 Off ch=1 n=88 v=0
82048 On ch=1 n=85 v=45
82050 Off ch=1 n=86 v=0
82176 On ch=1 n=84 v=42
82178 Off ch=1 n=85 v=0
82297 Off ch=1 n=84 v=0
82432 On ch=1 n=84 v=42
82944 On ch=1 n=83 v=42
82954 Off ch=1 n=84 v=0
83200 On ch=1 n=84 v=54
83205 Off ch=1 n=83 v=0
83421 Off ch=1 n=84 v=0
83456 On ch=1 n=83 v=45
83511 Off ch=1 n=83 v=0
83511 On ch=1 n=84 v=45
83566 On ch=1 n=86 v=45
83566 Off ch=1 n=84 v=0
83797 On ch=1 n=84 v=45
83882 Off ch=1 n=84 v=0
83882 On ch=1 n=83 v=41
83889 Off ch=1 n=86 v=0
83968 Off ch=1 n=83 v=0
83968 On ch=1 n=81 v=48
84019 Off ch=1 n=81 v=0
84053 On ch=1 n=81 v=47
84138 On ch=1 n=83 v=47
84139 Off ch=1 n=81 v=0
84219 Off ch=1 n=83 v=0
84224 On ch=1 n=84 v=54
84275 Off ch=1 n=84 v=0
84309 On ch=1 n=84 v=48
84394 On ch=1 n=86 v=48
84395 Off ch=1 n=84 v=0
84480 On ch=1 n=88 v=52
84481 Off ch=1 n=86 v=0
84851 Off ch=1 n=88 v=0
84864 On ch=1 n=90 v=48
84992 On ch=1 n=88 v=45
84994 Off ch=1 n=90 v=0
85248 On ch=1 n=87 v=41
85253 Off ch=1 n=88 v=0
85369 Off ch=1 n=87 v=0
85504 On ch=1 n=86 v=42
85589 On ch=1 n=83 v=38
85590 Off ch=1 n=86 v=0
85674 On ch=1 n=85 v=53
85675 Off ch=1 n=83 v=0
85760 On ch=1 n=86 v=57
85761 Off ch=1 n=85 v=0
85845 On ch=1 n=88 v=48
85846 Off ch=1 n=86 v=0
85930 On ch=1 n=86 v=44
85931 Off ch=1 n=88 v=0
86011 Off ch=1 n=86 v=0
86016 On ch=1 n=86 v=48
86144 On ch=1 n=85 v=41
86146 Off ch=1 n=86 v=0
86272 On ch=1 n=84 v=45
86274 Off ch=1 n=85 v=0
86393 Off ch=1 n=84 v=0
86528 On ch=1 n=84 v=43
87040 On ch=1 n=83 v=40
87050 Off ch=1 n=84 v=0
87296 On ch=1 n=84 v=48
87301 Off ch=1 n=83 v=0
87517 Off ch=1 n=84 v=0
87552 On ch=1 n=83 v=53
87607 Off ch=1 n=83 v=0
87607 On ch=1 n=84 v=53
87662 On ch=1 n=86 v=53
87662 Off ch=1 n=84 v=0
87893 On ch=1 n=84 v=49
87978 Off ch=1 n=84 v=0
87978 On ch=1 n=83 v=46
87985 Off ch=1 n=86 v=0
88064 Off ch=1 n=83 v=0
88064 On ch=1 n=81 v=47
88320 Off ch=1 n=81 v=0
88576 On ch=1 n=81 v=43
88917 Off ch=1 n=81 v=0
88917 On ch=1 n=83 v=46
89002 On ch=1 n=85 v=46
89003 Off ch=1 n=83 v=0
89083 Off ch=1 n=85 v=0
89088 On ch=1 n=85 v=45
89216 On ch=1 n=86 v=42
89218 Off ch=1 n=85 v=0
89337 Off ch=1 n=86 v=0
89344 On ch=1 n=86 v=50
89600 Off ch=1 n=86 v=0
89600 On ch=1 n=86 v=49
89941 Off ch=1 n=86 v=0
89941 On ch=1 n=88 v=47
90026 On ch=1 n=89 v=52
90027 Off ch=1 n=88 v=0
90107 Off ch=1 n=89 v=0
90112 On ch=1 n=89 v=50
90240 On ch=1 n=88 v=44
90242 Off ch=1 n=89 v=0
90361 Off ch=1 n=88 v=0
90368 On ch=1 n=88 v=46
90624 Off ch=1 n=88 v=0
90624 On ch=1 n=81 v=49
90709 Off ch=1 n=81 v=0
90709 On ch=1 n=81 v=48
90794 Off ch=1 n=81 v=0
90794 On ch=1 n=81 v=56
90880 Off ch=1 n=81 v=0
90880 On ch=1 n=81 v=50
90965 On ch=1 n=83 v=59
90966 Off ch=1 n=81 v=0
91050 On ch=1 n=85 v=61
91051 Off ch=1 n=83 v=0
91131 Off ch=1 n=85 v=0
91136 On ch=1 n=85 v=62
91221 On ch=1 n=86 v=65
91222 Off ch=1 n=85 v=0
91301 Off ch=1 n=86 v=0
91306 On ch=1 n=86 v=63
91357 Off ch=1 n=86 v=0
91392 On ch=1 n=86 v=69
91648 Off ch=1 n=86 v=0
91648 On ch=1 n=86 v=71
91733 Off ch=1 n=86 v=0
91733 On ch=1 n=86 v=70
91818 Off ch=1 n=86 v=0
91818 On ch=1 n=86 v=76
91904 Off ch=1 n=86 v=0
91904 On ch=1 n=86 v=77
91989 On ch=1 n=88 v=81
91990 Off ch=1 n=86 v=0
92074 On ch=1 n=89 v=83
92075 Off ch=1 n=88 v=0
92155 Off ch=1 n=89 v=0
92160 On ch=1 n=89 v=73
92245 On ch=1 n=88 v=71
92246 Off ch=1 n=89 v=0
92325 Off ch=1 n=88 v=0
92330 On ch=1 n=88 v=71
92381 Off ch=1 n=88 v=0
92672 On ch=1 n=88 v=66
92757 On ch=1 n=89 v=72
92758 Off ch=1 n=88 v=0
92837 Off ch=1 n=89 v=0
92842 On ch=1 n=89 v=63
92893 Off ch=1 n=89 v=0
93184 On ch=1 n=89 v=47
93269 On ch=1 n=88 v=42
93270 Off ch=1 n=89 v=0
93349 Off ch=1 n=88 v=0
93354 On ch=1 n=88 v=48
93440 Off ch=1 n=88 v=0
107008 On ch=1 n=80 v=42
107264 Off ch=1 n=80 v=0
107264 On ch=1 n=80 v=53
107340 Off ch=1 n=80 v=0
107392 On ch=1 n=81 v=61
107468 Off ch=1 n=81 v=0
107520 On ch=1 n=83 v=64
107776 Off ch=1 n=83 v=0
107776 On ch=1 n=83 v=71
107852 Off ch=1 n=83 v=0
107904 On ch=1 n=84 v=79
107980 Off ch=1 n=84 v=0
108032 On ch=1 n=86 v=83
108288 Off ch=1 n=86 v=0
108288 On ch=1 n=86 v=93
108364 Off ch=1 n=86 v=0
108416 On ch=1 n=88 v=103
108492 Off ch=1 n=88 v=0
108544 On ch=1 n=89 v=102
108672 On ch=1 n=88 v=98
108674 Off ch=1 n=89 v=0
108736 On ch=1 n=87 v=99
108737 Off ch=1 n=88 v=0
108800 On ch=1 n=88 v=111
108801 Off ch=1 n=87 v=0
108860 Off ch=1 n=88 v=0
108864 On ch=1 n=76 v=77
108902 Off ch=1 n=76 v=0
108928 On ch=1 n=78 v=111
108966 Off ch=1 n=78 v=0
108992 On ch=1 n=80 v=115
109030 Off ch=1 n=80 v=0
109056 On ch=1 n=81 v=119
109094 Off ch=1 n=81 v=0
109120 On ch=1 n=83 v=115
109158 Off ch=1 n=83 v=0
109184 On ch=1 n=84 v=119
109222 Off ch=1 n=84 v=0
109248 On ch=1 n=83 v=110
109286 Off ch=1 n=83 v=0
109312 On ch=1 n=81 v=102
109350 Off ch=1 n=81 v=0
109376 On ch=1 n=84 v=121
109414 Off ch=1 n=84 v=0
109440 On ch=1 n=83 v=102
109478 Off ch=1 n=83 v=0
109504 On ch=1 n=81 v=100
109542 Off ch=1 n=81 v=0
109568 On ch=1 n=76 v=91
109606 Off ch=1 n=76 v=0
109632 On ch=1 n=78 v=114
109670 Off ch=1 n=78 v=0
109696 On ch=1 n=80 v=116
109734 Off ch=1 n=80 v=0
109760 On ch=1 n=81 v=124
109798 Off ch=1 n=81 v=0
109824 On ch=1 n=83 v=118
109862 Off ch=1 n=83 v=0
109888 On ch=1 n=84 v=117
109926 Off ch=1 n=84 v=0
109952 On ch=1 n=86 v=121
109990 Off ch=1 n=86 v=0
110016 On ch=1 n=88 v=120
110054 Off ch=1 n=88 v=0
110080 On ch=1 n=86 v=127
110118 Off ch=1 n=86 v=0
110144 On ch=1 n=83 v=108
110182 Off ch=1 n=83 v=0
110208 On ch=1 n=84 v=116
110246 Off ch=1 n=84 v=0
110272 On ch=1 n=86 v=122
110310 Off ch=1 n=86 v=0
110336 On ch=1 n=88 v=121
110374 Off ch=1 n=88 v=0
110400 On ch=1 n=86 v=106
110438 Off ch=1 n=86 v=0
110464 On ch=1 n=84 v=100
110502 Off ch=1 n=84 v=0
110528 On ch=1 n=83 v=105
110566 Off ch=1 n=83 v=0
110592 On ch=1 n=84 v=99
110630 Off ch=1 n=84 v=0
110656 On ch=1 n=83 v=107
110694 Off ch=1 n=83 v=0
110720 On ch=1 n=84 v=119
110758 Off ch=1 n=84 v=0
110784 On ch=1 n=86 v=119
110822 Off ch=1 n=86 v=0
110848 On ch=1 n=88 v=122
110886 Off ch=1 n=88 v=0
110912 On ch=1 n=76 v=85
110950 Off ch=1 n=76 v=0
110976 On ch=1 n=78 v=113
111014 Off ch=1 n=78 v=0
111040 On ch=1 n=80 v=118
111078 Off ch=1 n=80 v=0
111104 On ch=1 n=81 v=102
111142 Off ch=1 n=81 v=0
111168 On ch=1 n=83 v=118
111206 Off ch=1 n=83 v=0
111232 On ch=1 n=84 v=118
111270 Off ch=1 n=84 v=0
111296 On ch=1 n=83 v=109
111334 Off ch=1 n=83 v=0
111360 On ch=1 n=81 v=101
111398 Off ch=1 n=81 v=0
111424 On ch=1 n=84 v=117
111462 Off ch=1 n=84 v=0
111488 On ch=1 n=83 v=106
111526 Off ch=1 n=83 v=0
111552 On ch=1 n=81 v=102
111590 Off ch=1 n=81 v=0
111616 On ch=1 n=76 v=96
111654 Off ch=1 n=76 v=0
111680 On ch=1 n=78 v=115
111718 Off ch=1 n=78 v=0
111744 On ch=1 n=80 v=116
111782 Off ch=1 n=80 v=0
111808 On ch=1 n=81 v=123
111846 Off ch=1 n=81 v=0
111872 On ch=1 n=83 v=119
111910 Off ch=1 n=83 v=0
111936 On ch=1 n=84 v=118
111974 Off ch=1 n=84 v=0
112000 On ch=1 n=86 v=116
112038 Off ch=1 n=86 v=0
112064 On ch=1 n=88 v=120
112102 Off ch=1 n=88 v=0
112128 On ch=1 n=86 v=105
112166 Off ch=1 n=86 v=0
112192 On ch=1 n=83 v=103
112230 Off ch=1 n=83 v=0
112256 On ch=1 n=84 v=118
112294 Off ch=1 n=84 v=0
112320 On ch=1 n=86 v=118
112358 Off ch=1 n=86 v=0
112384 On ch=1 n=88 v=125
112422 Off ch=1 n=88 v=0
112448 On ch=1 n=86 v=106
112486 Off ch=1 n=86 v=0
112512 On ch=1 n=84 v=106
112550 Off ch=1 n=84 v=0
112576 On ch=1 n=83 v=108
112614 Off ch=1 n=83 v=0
112640 On ch=1 n=81 v=100
112896 Off ch=1 n=81 v=0
119040 On ch=1 n=88 v=45
119040 On ch=1 n=91 v=45
120064 On ch=1 n=86 v=62
120064 On ch=1 n=90 v=62
120084 Off ch=1 n=88 v=0
120084 Off ch=1 n=91 v=0
120576 On ch=1 n=85 v=71
120576 On ch=1 n=88 v=71
120586 Off ch=1 n=86 v=0
120586 Off ch=1 n=90 v=0
120832 On ch=1 n=78 v=60
120832 On ch=1 n=86 v=60
120837 Off ch=1 n=85 v=0
120837 Off ch=1 n=88 v=0
121088 On ch=1 n=76 v=59
121088 On ch=1 n=85 v=59
121093 Off ch=1 n=78 v=0
121093 Off ch=1 n=86 v=0
121344 On ch=1 n=78 v=62
121344 On ch=1 n=86 v=62
121349 Off ch=1 n=76 v=0
121349 Off ch=1 n=85 v=0
121600 On ch=1 n=80 v=64
121600 On ch=1 n=88 v=64
121605 Off ch=1 n=78 v=0
121605 Off ch=1 n=86 v=0
121856 On ch=1 n=81 v=63
121856 On ch=1 n=85 v=63
121861 Off ch=1 n=80 v=0
121861 Off ch=1 n=88 v=0
122342 Off ch=1 n=81 v=0
122342 Off ch=1 n=85 v=0
122368 On ch=1 n=78 v=62
122368 On ch=1 n=86 v=62
122624 On ch=1 n=80 v=69
122624 On ch=1 n=88 v=69
122629 Off ch=1 n=78 v=0
122629 Off ch=1 n=86 v=0
122880 On ch=1 n=81 v=53
122880 On ch=1 n=85 v=53
122885 Off ch=1 n=80 v=0
122885 Off ch=1 n=88 v=0
123366 Off ch=1 n=81 v=0
123366 Off ch=1 n=85 v=0
123392 On ch=1 n=78 v=58
123392 On ch=1 n=86 v=58
123648 On ch=1 n=80 v=62
123648 On ch=1 n=88 v=62
123653 Off ch=1 n=78 v=0
123653 Off ch=1 n=86 v=0
123891 Off ch=1 n=80 v=0
123891 Off ch=1 n=88 v=0
123904 On ch=1 n=81 v=26
124160 Off ch=1 n=81 v=0
124160 On ch=1 n=81 v=35
124236 Off ch=1 n=81 v=0
124288 On ch=1 n=81 v=30
124360 Off ch=1 n=81 v=0
124416 On ch=1 n=81 v=36
124569 Off ch=1 n=81 v=0
124672 On ch=1 n=81 v=40
124817 Off ch=1 n=81 v=0
124928 On ch=1 n=81 v=34
125184 Off ch=1 n=81 v=0
125184 On ch=1 n=81 v=37
125260 Off ch=1 n=81 v=0
125312 On ch=1 n=81 v=35
125384 Off ch=1 n=81 v=0
125440 On ch=1 n=81 v=37
125593 Off ch=1 n=81 v=0
125696 On ch=1 n=81 v=32
125841 Off ch=1 n=81 v=0
125952 On ch=1 n=74 v=114
125952 On ch=1 n=83 v=114
126208 Off ch=1 n=74 v=0
126208 Off ch=1 n=83 v=0
126208 On ch=1 n=72 v=107
126208 On ch=1 n=81 v=107
126284 Off ch=1 n=72 v=0
126284 Off ch=1 n=81 v=0
126336 On ch=1 n=74 v=114
126336 On ch=1 n=83 v=114
126412 Off ch=1 n=74 v=0
126412 Off ch=1 n=83 v=0
126464 On ch=1 n=76 v=118
126464 On ch=1 n=84 v=118
126592 Off ch=1 n=76 v=0
126592 Off ch=1 n=84 v=0
128000 On ch=1 n=74 v=102
128000 On ch=1 n=83 v=102
128256 Off ch=1 n=74 v=0
128256 Off ch=1 n=83 v=0
128256 On ch=1 n=72 v=106
128256 On ch=1 n=81 v=106
128332 Off ch=1 n=72 v=0
128332 Off ch=1 n=81 v=0
128384 On ch=1 n=74 v=115
128384 On ch=1 n=83 v=115
128460 Off ch=1 n=74 v=0
128460 Off ch=1 n=83 v=0
128512 On ch=1 n=76 v=116
128512 On ch=1 n=84 v=116
128640 Off ch=1 n=76 v=0
128640 Off ch=1 n=84 v=0
129536 On ch=1 n=83 v=48
129792 Off ch=1 n=83 v=0
129792 On ch=1 n=81 v=43
129868 Off ch=1 n=81 v=0
129920 On ch=1 n=88 v=44
129920 On ch=1 n=83 v=50
129996 Off ch=1 n=83 v=0
130048 Off ch=1 n=88 v=0
130048 On ch=1 n=84 v=31
130048 On ch=1 n=88 v=31
130304 Off ch=1 n=84 v=0
130304 Off ch=1 n=88 v=0
130304 On ch=1 n=84 v=36
130304 On ch=1 n=88 v=36
130380 Off ch=1 n=84 v=0
130380 Off ch=1 n=88 v=0
130432 On ch=1 n=84 v=34
130432 On ch=1 n=88 v=34
130504 Off ch=1 n=84 v=0
130504 Off ch=1 n=88 v=0
130560 On ch=1 n=83 v=34
130560 On ch=1 n=88 v=34
130713 Off ch=1 n=83 v=0
130713 Off ch=1 n=88 v=0
130816 On ch=1 n=83 v=36
130816 On ch=1 n=88 v=36
130961 Off ch=1 n=83 v=0
130961 Off ch=1 n=88 v=0
134144 On ch=1 n=88 v=37
134400 Off ch=1 n=88 v=0
134400 On ch=1 n=88 v=32
134476 Off ch=1 n=88 v=0
134528 On ch=1 n=88 v=40
134600 Off ch=1 n=88 v=0
134656 On ch=1 n=87 v=35
134812 Off ch=1 n=87 v=0
134912 On ch=1 n=86 v=33
135057 Off ch=1 n=86 v=0
0 Par ch=2 c=7 v=95
0 On ch=2 n=72 v=86
0 On ch=2 n=76 v=86
215 Par ch=2 c=7 v=85
345 Par ch=2 c=7 v=75
512 Par ch=2 c=7 v=65
727 Par ch=2 c=7 v=55
1023 Par ch=2 c=7 v=45
1136 Par ch=2 c=7 v=35
1280 Off ch=2 n=72 v=0
1280 Off ch=2 n=76 v=0
1536 Par ch=2 c=7 v=60
34048 On ch=2 n=76 v=32
34048 On ch=2 n=79 v=32
34304 Off ch=2 n=76 v=0
34304 Off ch=2 n=79 v=0
34560 On ch=2 n=75 v=38
34560 On ch=2 n=83 v=38
34816 Off ch=2 n=75 v=0
34816 Off ch=2 n=83 v=0
35072 On ch=2 n=74 v=50
35072 On ch=2 n=78 v=50
35328 Off ch=2 n=74 v=0
35328 Off ch=2 n=78 v=0
35584 On ch=2 n=72 v=58
35584 On ch=2 n=81 v=58
35840 Off ch=2 n=72 v=0
35840 Off ch=2 n=81 v=0
36096 On ch=2 n=72 v=71
36096 On ch=2 n=76 v=71
36352 Off ch=2 n=72 v=0
36352 Off ch=2 n=76 v=0
36608 On ch=2 n=72 v=78
36608 On ch=2 n=76 v=78
36864 Off ch=2 n=72 v=0
36864 Off ch=2 n=76 v=0
37120 On ch=2 n=71 v=86
37120 On ch=2 n=76 v=86
37376 Off ch=2 n=71 v=0
37376 Off ch=2 n=76 v=0
37632 On ch=2 n=72 v=95
37632 On ch=2 n=76 v=95
37888 Off ch=2 n=72 v=0
37888 Off ch=2 n=76 v=0
37888 On ch=2 n=76 v=110
38144 Off ch=2 n=76 v=0
38144 On ch=2 n=76 v=115
38220 Off ch=2 n=76 v=0
38272 On ch=2 n=76 v=113
38348 Off ch=2 n=76 v=0
38400 On ch=2 n=76 v=115
38553 Off ch=2 n=76 v=0
38656 On ch=2 n=76 v=110
38801 Off ch=2 n=76 v=0
38912 On ch=2 n=76 v=111
39168 Off ch=2 n=76 v=0
39168 On ch=2 n=76 v=110
39244 Off ch=2 n=76 v=0
39296 On ch=2 n=76 v=117
39372 Off ch=2 n=76 v=0
39424 On ch=2 n=76 v=111
39577 Off ch=2 n=76 v=0
39680 On ch=2 n=76 v=114
39825 Off ch=2 n=76 v=0
39936 On ch=2 n=76 v=113
40192 Off ch=2 n=76 v=0
40192 On ch=2 n=76 v=114
40268 Off ch=2 n=76 v=0
40320 On ch=2 n=78 v=118
40396 Off ch=2 n=78 v=0
40448 On ch=2 n=79 v=118
40601 Off ch=2 n=79 v=0
40704 On ch=2 n=79 v=114
40849 Off ch=2 n=79 v=0
40960 On ch=2 n=79 v=111
41216 Off ch=2 n=79 v=0
41216 On ch=2 n=79 v=110
41292 Off ch=2 n=79 v=0
41344 On ch=2 n=79 v=114
41420 Off ch=2 n=79 v=0
41472 On ch=2 n=79 v=114
41728 Off ch=2 n=79 v=0
41984 On ch=2 n=67 v=98
41984 On ch=2 n=79 v=98
42240 Off ch=2 n=67 v=0
42240 Off ch=2 n=79 v=0
42240 On ch=2 n=67 v=114
42240 On ch=2 n=79 v=114
42316 Off ch=2 n=67 v=0
42316 Off ch=2 n=79 v=0
42368 On ch=2 n=69 v=123
42368 On ch=2 n=81 v=123
42444 Off ch=2 n=69 v=0
42444 Off ch=2 n=81 v=0
42496 On ch=2 n=71 v=121
42496 On ch=2 n=83 v=121
42649 Off ch=2 n=71 v=0
42649 Off ch=2 n=83 v=0
42752 On ch=2 n=71 v=117
42752 On ch=2 n=83 v=117
42897 Off ch=2 n=71 v=0
42897 Off ch=2 n=83 v=0
43008 On ch=2 n=66 v=97
43008 On ch=2 n=78 v=97
43264 Off ch=2 n=66 v=0
43264 Off ch=2 n=78 v=0
43264 On ch=2 n=66 v=110
43264 On ch=2 n=78 v=110
43340 Off ch=2 n=66 v=0
43340 Off ch=2 n=78 v=0
43392 On ch=2 n=68 v=118
43392 On ch=2 n=80 v=118
43468 Off ch=2 n=68 v=0
43468 Off ch=2 n=80 v=0
43520 On ch=2 n=69 v=121
43520 On ch=2 n=81 v=121
43673 Off ch=2 n=69 v=0
43673 Off ch=2 n=81 v=0
43776 On ch=2 n=69 v=113
43776 On ch=2 n=81 v=113
43921 Off ch=2 n=69 v=0
43921 Off ch=2 n=81 v=0
44032 On ch=2 n=76 v=93
44288 Off ch=2 n=76 v=0
44288 On ch=2 n=76 v=110
44364 Off ch=2 n=76 v=0
44416 On ch=2 n=76 v=109
44492 Off ch=2 n=76 v=0
44544 On ch=2 n=76 v=112
44697 Off ch=2 n=76 v=0
44800 On ch=2 n=76 v=110
44945 Off ch=2 n=76 v=0
45056 On ch=2 n=76 v=114
45312 Off ch=2 n=76 v=0
45312 On ch=2 n=78 v=122
45388 Off ch=2 n=78 v=0
45440 On ch=2 n=80 v=120
45516 Off ch=2 n=80 v=0
45568 On ch=2 n=81 v=119
45824 Off ch=2 n=81 v=0
46080 On ch=2 n=79 v=90
46336 Off ch=2 n=79 v=0
46336 On ch=2 n=79 v=101
46412 Off ch=2 n=79 v=0
46464 On ch=2 n=81 v=112
46540 Off ch=2 n=81 v=0
46592 On ch=2 n=83 v=110
46745 Off ch=2 n=83 v=0
46848 On ch=2 n=83 v=98
46993 Off ch=2 n=83 v=0
47104 On ch=2 n=78 v=81
47360 Off ch=2 n=78 v=0
47360 On ch=2 n=78 v=89
47436 Off ch=2 n=78 v=0
47488 On ch=2 n=80 v=91
47564 Off ch=2 n=80 v=0
47616 On ch=2 n=81 v=88
47769 Off ch=2 n=81 v=0
47872 On ch=2 n=81 v=82
48017 Off ch=2 n=81 v=0
48128 On ch=2 n=76 v=62
48384 Off ch=2 n=76 v=0
48384 On ch=2 n=76 v=74
48460 Off ch=2 n=76 v=0
48512 On ch=2 n=76 v=74
48588 Off ch=2 n=76 v=0
48640 On ch=2 n=76 v=74
48793 Off ch=2 n=76 v=0
48896 On ch=2 n=76 v=66
49041 Off ch=2 n=76 v=0
49152 On ch=2 n=76 v=61
49408 Off ch=2 n=76 v=0
49408 On ch=2 n=78 v=60
49484 Off ch=2 n=78 v=0
49536 On ch=2 n=80 v=50
49612 Off ch=2 n=80 v=0
49664 On ch=2 n=81 v=52
50176 Off ch=2 n=81 v=0
50176 On ch=2 n=76 v=41
50432 Off ch=2 n=76 v=0
50432 On ch=2 n=78 v=53
50432 On ch=2 n=76 v=49
50508 Off ch=2 n=78 v=0
50560 Off ch=2 n=76 v=0
50560 On ch=2 n=80 v=50
50560 On ch=2 n=76 v=49
50636 Off ch=2 n=80 v=0
50688 Off ch=2 n=76 v=0
50688 On ch=2 n=81 v=49
50688 On ch=2 n=76 v=45
50944 Off ch=2 n=81 v=0
50944 Off ch=2 n=76 v=0
56064 On ch=2 n=76 v=46
56064 On ch=2 n=79 v=46
57088 Off ch=2 n=76 v=0
57088 Off ch=2 n=79 v=0
57088 On ch=2 n=74 v=51
57088 On ch=2 n=78 v=51
57202 Off ch=2 n=74 v=0
57202 Off ch=2 n=78 v=0
58112 On ch=2 n=81 v=56
58112 On ch=2 n=85 v=56
58368 On ch=2 n=80 v=55
58368 On ch=2 n=83 v=55
58373 Off ch=2 n=81 v=0
58373 Off ch=2 n=85 v=0
58624 On ch=2 n=78 v=54
58624 On ch=2 n=81 v=54
58629 Off ch=2 n=80 v=0
58629 Off ch=2 n=83 v=0
58880 On ch=2 n=76 v=42
58880 On ch=2 n=80 v=42
58885 Off ch=2 n=78 v=0
58885 Off ch=2 n=81 v=0
59123 Off ch=2 n=76 v=0
59123 Off ch=2 n=80 v=0
62464 On ch=2 n=76 v=81
62464 On ch=2 n=70 v=59
62976 On ch=2 n=71 v=73
62986 Off ch=2 n=70 v=0
63193 Off ch=2 n=76 v=0
63232 On ch=2 n=78 v=98
63360 On ch=2 n=76 v=92
63362 Off ch=2 n=78 v=0
63437 Off ch=2 n=71 v=0
63481 Off ch=2 n=76 v=0
63488 On ch=2 n=76 v=90
63488 On ch=2 n=70 v=74
64000 On ch=2 n=71 v=92
64010 Off ch=2 n=70 v=0
64217 Off ch=2 n=76 v=0
64256 On ch=2 n=80 v=103
64341 On ch=2 n=78 v=93
64342 Off ch=2 n=80 v=0
64426 On ch=2 n=76 v=83
64427 Off ch=2 n=78 v=0
64461 Off ch=2 n=71 v=0
64507 Off ch=2 n=76 v=0
66560 On ch=2 n=76 v=51
66560 On ch=2 n=70 v=51
67072 On ch=2 n=71 v=68
67082 Off ch=2 n=70 v=0
67289 Off ch=2 n=76 v=0
67328 On ch=2 n=78 v=79
67456 Off ch=2 n=78 v=0
67456 On ch=2 n=76 v=77
67558 Off ch=2 n=71 v=0
67584 Off ch=2 n=76 v=0
67584 On ch=2 n=76 v=86
67584 On ch=2 n=70 v=87
68096 On ch=2 n=71 v=114
68106 Off ch=2 n=70 v=0
68313 Off ch=2 n=76 v=0
68352 On ch=2 n=80 v=120
68437 On ch=2 n=78 v=113
68438 Off ch=2 n=80 v=0
68522 On ch=2 n=76 v=100
68523 Off ch=2 n=78 v=0
68557 Off ch=2 n=71 v=0
68603 Off ch=2 n=76 v=0
68608 On ch=2 n=76 v=110
69205 Off ch=2 n=76 v=0
69205 On ch=2 n=77 v=89
69290 On ch=2 n=76 v=82
69291 Off ch=2 n=77 v=0
69376 On ch=2 n=79 v=81
69377 Off ch=2 n=76 v=0
69461 On ch=2 n=77 v=65
69462 Off ch=2 n=79 v=0
69546 On ch=2 n=69 v=64
69547 Off ch=2 n=77 v=0
69627 Off ch=2 n=69 v=0
69632 On ch=2 n=72 v=51
69888 On ch=2 n=76 v=84
69893 Off ch=2 n=72 v=0
70016 On ch=2 n=74 v=73
70018 Off ch=2 n=76 v=0
70137 Off ch=2 n=74 v=0
70144 On ch=2 n=72 v=71
70400 Off ch=2 n=72 v=0
70656 On ch=2 n=77 v=67
71040 Off ch=2 n=77 v=0
71040 On ch=2 n=77 v=80
71168 Off ch=2 n=77 v=0
71168 On ch=2 n=77 v=82
71253 On ch=2 n=76 v=73
71254 Off ch=2 n=77 v=0
71333 Off ch=2 n=76 v=0
71338 On ch=2 n=74 v=74
71389 Off ch=2 n=74 v=0
71424 On ch=2 n=72 v=77
71475 Off ch=2 n=72 v=0
71509 On ch=2 n=71 v=78
71560 Off ch=2 n=71 v=0
71594 On ch=2 n=69 v=72
71645 Off ch=2 n=69 v=0
71680 On ch=2 n=67 v=77
71936 On ch=2 n=69 v=83
71941 Off ch=2 n=67 v=0
72057 Off ch=2 n=69 v=0
72064 On ch=2 n=71 v=86
72140 Off ch=2 n=71 v=0
72192 On ch=2 n=72 v=87
72533 Off ch=2 n=72 v=0
72533 On ch=2 n=74 v=88
72618 On ch=2 n=76 v=92
72619 Off ch=2 n=74 v=0
72699 Off ch=2 n=76 v=0
72704 On ch=2 n=77 v=95
73088 Off ch=2 n=77 v=0
73088 On ch=2 n=77 v=87
73216 Off ch=2 n=77 v=0
73216 On ch=2 n=77 v=96
73267 Off ch=2 n=77 v=0
73301 On ch=2 n=76 v=93
73352 Off ch=2 n=76 v=0
73386 On ch=2 n=74 v=90
73437 Off ch=2 n=74 v=0
73472 On ch=2 n=72 v=104
73523 Off ch=2 n=72 v=0
73557 On ch=2 n=71 v=93
73608 Off ch=2 n=71 v=0
73642 On ch=2 n=69 v=90
73693 Off ch=2 n=69 v=0
73728 On ch=2 n=67 v=94
73856 Off ch=2 n=67 v=0
76032 On ch=2 n=76 v=103
76108 Off ch=2 n=76 v=0
76160 On ch=2 n=76 v=112
76236 Off ch=2 n=76 v=0
76288 On ch=2 n=72 v=40
76800 On ch=2 n=71 v=38
76810 Off ch=2 n=72 v=0
77277 Off ch=2 n=71 v=0
77312 On ch=2 n=71 v=57
77367 Off ch=2 n=71 v=0
77367 On ch=2 n=72 v=57
77422 On ch=2 n=74 v=57
77422 Off ch=2 n=72 v=0
77653 On ch=2 n=72 v=43
77738 Off ch=2 n=72 v=0
77738 On ch=2 n=71 v=42
77745 Off ch=2 n=74 v=0
77824 Off ch=2 n=71 v=0
77824 On ch=2 n=71 v=49
77952 On ch=2 n=72 v=50
77954 Off ch=2 n=71 v=0
78073 Off ch=2 n=72 v=0
78080 On ch=2 n=72 v=45
78336 Off ch=2 n=72 v=0
78336 On ch=2 n=72 v=49
78720 On ch=2 n=74 v=49
78727 Off ch=2 n=72 v=0
78841 Off ch=2 n=74 v=0
78848 On ch=2 n=75 v=45
78976 On ch=2 n=76 v=47
78978 Off ch=2 n=75 v=0
79097 Off ch=2 n=76 v=0
79104 On ch=2 n=76 v=52
79180 Off ch=2 n=76 v=0
79232 On ch=2 n=76 v=47
79308 Off ch=2 n=76 v=0
79360 On ch=2 n=74 v=48
79415 Off ch=2 n=74 v=0
79415 On ch=2 n=76 v=48
79470 On ch=2 n=77 v=48
79470 Off ch=2 n=76 v=0
79701 On ch=2 n=76 v=49
79786 Off ch=2 n=76 v=0
79786 On ch=2 n=74 v=46
79793 Off ch=2 n=77 v=0
79872 Off ch=2 n=74 v=0
79872 On ch=2 n=74 v=49
80000 On ch=2 n=76 v=47
80002 Off ch=2 n=74 v=0
80121 Off ch=2 n=76 v=0
80128 On ch=2 n=76 v=48
80384 Off ch=2 n=76 v=0
80384 On ch=2 n=76 v=50
80768 On ch=2 n=78 v=54
80775 Off ch=2 n=76 v=0
80896 On ch=2 n=76 v=52
80898 Off ch=2 n=78 v=0
81152 On ch=2 n=75 v=48
81157 Off ch=2 n=76 v=0
81273 Off ch=2 n=75 v=0
81408 On ch=2 n=74 v=38
81792 On ch=2 n=76 v=38
81799 Off ch=2 n=74 v=0
81920 On ch=2 n=74 v=45
81922 Off ch=2 n=76 v=0
82048 On ch=2 n=73 v=43
82050 Off ch=2 n=74 v=0
82176 On ch=2 n=72 v=48
82178 Off ch=2 n=73 v=0
82297 Off ch=2 n=72 v=0
82432 On ch=2 n=72 v=43
82944 On ch=2 n=71 v=39
82954 Off ch=2 n=72 v=0
83200 On ch=2 n=72 v=51
83205 Off ch=2 n=71 v=0
83429 Off ch=2 n=72 v=0
83456 On ch=2 n=71 v=48
83511 Off ch=2 n=71 v=0
83511 On ch=2 n=72 v=48
83566 On ch=2 n=74 v=48
83566 Off ch=2 n=72 v=0
83797 On ch=2 n=72 v=41
83882 Off ch=2 n=72 v=0
83882 On ch=2 n=71 v=48
83889 Off ch=2 n=74 v=0
83968 Off ch=2 n=71 v=0
83968 On ch=2 n=69 v=47
84019 Off ch=2 n=69 v=0
84053 On ch=2 n=69 v=52
84138 On ch=2 n=71 v=53
84139 Off ch=2 n=69 v=0
84219 Off ch=2 n=71 v=0
84224 On ch=2 n=72 v=50
84275 Off ch=2 n=72 v=0
84309 On ch=2 n=72 v=49
84394 On ch=2 n=74 v=55
84395 Off ch=2 n=72 v=0
84480 On ch=2 n=76 v=49
84481 Off ch=2 n=74 v=0
84851 Off ch=2 n=76 v=0
84864 On ch=2 n=78 v=52
84992 On ch=2 n=76 v=51
84994 Off ch=2 n=78 v=0
85248 On ch=2 n=75 v=45
85253 Off ch=2 n=76 v=0
85369 Off ch=2 n=75 v=0
85504 On ch=2 n=74 v=47
85589 On ch=2 n=71 v=44
85590 Off ch=2 n=74 v=0
85674 On ch=2 n=73 v=52
85675 Off ch=2 n=71 v=0
85760 On ch=2 n=74 v=59
85761 Off ch=2 n=73 v=0
85845 On ch=2 n=76 v=51
85846 Off ch=2 n=74 v=0
85930 On ch=2 n=74 v=48
85931 Off ch=2 n=76 v=0
86011 Off ch=2 n=74 v=0
86016 On ch=2 n=74 v=52
86144 On ch=2 n=73 v=49
86146 Off ch=2 n=74 v=0
86272 On ch=2 n=72 v=45
86274 Off ch=2 n=73 v=0
86393 Off ch=2 n=72 v=0
86528 On ch=2 n=72 v=46
87040 On ch=2 n=71 v=41
87050 Off ch=2 n=72 v=0
87296 On ch=2 n=72 v=57
87301 Off ch=2 n=71 v=0
87525 Off ch=2 n=72 v=0
87552 On ch=2 n=71 v=52
87607 Off ch=2 n=71 v=0
87607 On ch=2 n=72 v=52
87662 On ch=2 n=74 v=52
87662 Off ch=2 n=72 v=0
87893 On ch=2 n=72 v=45
87978 Off ch=2 n=72 v=0
87978 On ch=2 n=71 v=47
87985 Off ch=2 n=74 v=0
88064 Off ch=2 n=71 v=0
88064 On ch=2 n=69 v=43
88320 Off ch=2 n=69 v=0
88576 On ch=2 n=69 v=42
88917 Off ch=2 n=69 v=0
88917 On ch=2 n=71 v=50
89002 On ch=2 n=73 v=53
89003 Off ch=2 n=71 v=0
89083 Off ch=2 n=73 v=0
89088 On ch=2 n=73 v=46
89216 On ch=2 n=74 v=44
89218 Off ch=2 n=73 v=0
89337 Off ch=2 n=74 v=0
89344 On ch=2 n=74 v=49
89600 Off ch=2 n=74 v=0
89600 On ch=2 n=74 v=47
89941 Off ch=2 n=74 v=0
89941 On ch=2 n=76 v=50
90026 On ch=2 n=77 v=57
90027 Off ch=2 n=76 v=0
90107 Off ch=2 n=77 v=0
90112 On ch=2 n=77 v=51
90240 On ch=2 n=76 v=48
90242 Off ch=2 n=77 v=0
90361 Off ch=2 n=76 v=0
90368 On ch=2 n=76 v=49
90624 Off ch=2 n=76 v=0
90624 On ch=2 n=69 v=46
90709 Off ch=2 n=69 v=0
90709 On ch=2 n=69 v=55
90794 Off ch=2 n=69 v=0
90794 On ch=2 n=69 v=53
90880 Off ch=2 n=69 v=0
90880 On ch=2 n=69 v=57
90965 On ch=2 n=71 v=64
90966 Off ch=2 n=69 v=0
91050 On ch=2 n=73 v=65
91051 Off ch=2 n=71 v=0
91131 Off ch=2 n=73 v=0
91136 On ch=2 n=73 v=62
91221 On ch=2 n=74 v=65
91222 Off ch=2 n=73 v=0
91301 Off ch=2 n=74 v=0
91306 On ch=2 n=74 v=61
91357 Off ch=2 n=74 v=0
91392 On ch=2 n=74 v=66
91648 Off ch=2 n=74 v=0
91648 On ch=2 n=74 v=71
91733 Off ch=2 n=74 v=0
91733 On ch=2 n=74 v=74
91818 Off ch=2 n=74 v=0
91818 On ch=2 n=74 v=76
91904 Off ch=2 n=74 v=0
91904 On ch=2 n=74 v=74
91989 On ch=2 n=76 v=81
91990 Off ch=2 n=74 v=0
92074 On ch=2 n=77 v=89
92075 Off ch=2 n=76 v=0
92155 Off ch=2 n=77 v=0
92160 On ch=2 n=77 v=73
92245 On ch=2 n=76 v=72
92246 Off ch=2 n=77 v=0
92325 Off ch=2 n=76 v=0
92330 On ch=2 n=76 v=71
92381 Off ch=2 n=76 v=0
92672 On ch=2 n=76 v=61
92757 On ch=2 n=77 v=71
92758 Off ch=2 n=76 v=0
92837 Off ch=2 n=77 v=0
92842 On ch=2 n=77 v=65
92893 Off ch=2 n=77 v=0
93184 On ch=2 n=77 v=42
93269 On ch=2 n=76 v=37
93270 Off ch=2 n=77 v=0
93349 Off ch=2 n=76 v=0
93354 On ch=2 n=76 v=40
93440 Off ch=2 n=76 v=0
106496 On ch=2 n=74 v=28
106752 Off ch=2 n=74 v=0
106752 On ch=2 n=74 v=33
106828 Off ch=2 n=74 v=0
106880 On ch=2 n=76 v=41
106956 Off ch=2 n=76 v=0
107008 On ch=2 n=77 v=40
108672 Off ch=2 n=77 v=0
108672 On ch=2 n=76 v=98
108736 On ch=2 n=75 v=104
108737 Off ch=2 n=76 v=0
108800 On ch=2 n=76 v=112
108801 Off ch=2 n=75 v=0
108860 Off ch=2 n=76 v=0
108864 On ch=2 n=76 v=111
108864 On ch=2 n=64 v=80
108902 Off ch=2 n=76 v=0
108902 Off ch=2 n=64 v=0
108928 On ch=2 n=78 v=115
108928 On ch=2 n=66 v=116
108966 Off ch=2 n=78 v=0
108966 Off ch=2 n=66 v=0
108992 On ch=2 n=80 v=125
108992 On ch=2 n=68 v=123
109030 Off ch=2 n=80 v=0
109030 Off ch=2 n=68 v=0
109056 On ch=2 n=81 v=121
109056 On ch=2 n=69 v=118
109094 Off ch=2 n=81 v=0
109094 Off ch=2 n=69 v=0
109120 On ch=2 n=83 v=119
109120 On ch=2 n=71 v=123
109158 Off ch=2 n=83 v=0
109158 Off ch=2 n=71 v=0
109184 On ch=2 n=84 v=117
109184 On ch=2 n=72 v=118
109222 Off ch=2 n=84 v=0
109222 Off ch=2 n=72 v=0
109248 On ch=2 n=83 v=105
109248 On ch=2 n=71 v=108
109286 Off ch=2 n=83 v=0
109286 Off ch=2 n=71 v=0
109312 On ch=2 n=81 v=106
109312 On ch=2 n=69 v=105
109350 Off ch=2 n=81 v=0
109350 Off ch=2 n=69 v=0
109376 On ch=2 n=84 v=118
109376 On ch=2 n=72 v=125
109414 Off ch=2 n=84 v=0
109414 Off ch=2 n=72 v=0
109440 On ch=2 n=83 v=108
109440 On ch=2 n=71 v=106
109478 Off ch=2 n=83 v=0
109478 Off ch=2 n=71 v=0
109504 On ch=2 n=81 v=105
109504 On ch=2 n=69 v=103
109542 Off ch=2 n=81 v=0
109542 Off ch=2 n=69 v=0
109568 On ch=2 n=76 v=100
109568 On ch=2 n=64 v=96
109606 Off ch=2 n=76 v=0
109606 Off ch=2 n=64 v=0
109632 On ch=2 n=78 v=119
109632 On ch=2 n=66 v=117
109670 Off ch=2 n=78 v=0
109670 Off ch=2 n=66 v=0
109696 On ch=2 n=80 v=114
109696 On ch=2 n=68 v=122
109734 Off ch=2 n=80 v=0
109734 Off ch=2 n=68 v=0
109760 On ch=2 n=81 v=114
109760 On ch=2 n=69 v=119
109798 Off ch=2 n=81 v=0
109798 Off ch=2 n=69 v=0
109824 On ch=2 n=83 v=123
109824 On ch=2 n=71 v=122
109862 Off ch=2 n=83 v=0
109862 Off ch=2 n=71 v=0
109888 On ch=2 n=72 v=84
109926 Off ch=2 n=72 v=0
109952 On ch=2 n=74 v=112
109990 Off ch=2 n=74 v=0
110016 On ch=2 n=76 v=117
110054 Off ch=2 n=76 v=0
110080 On ch=2 n=74 v=110
110118 Off ch=2 n=74 v=0
110144 On ch=2 n=71 v=101
110182 Off ch=2 n=71 v=0
110208 On ch=2 n=72 v=117
110246 Off ch=2 n=72 v=0
110272 On ch=2 n=74 v=121
110310 Off ch=2 n=74 v=0
110336 On ch=2 n=76 v=120
110374 Off ch=2 n=76 v=0
110400 On ch=2 n=74 v=111
110438 Off ch=2 n=74 v=0
110464 On ch=2 n=72 v=105
110502 Off ch=2 n=72 v=0
110528 On ch=2 n=71 v=104
110566 Off ch=2 n=71 v=0
110592 On ch=2 n=72 v=120
110630 Off ch=2 n=72 v=0
110656 On ch=2 n=71 v=102
110694 Off ch=2 n=71 v=0
110720 On ch=2 n=72 v=113
110758 Off ch=2 n=72 v=0
110784 On ch=2 n=74 v=116
110822 Off ch=2 n=74 v=0
110848 On ch=2 n=76 v=116
110886 Off ch=2 n=76 v=0
110912 On ch=2 n=76 v=109
110912 On ch=2 n=64 v=82
110950 Off ch=2 n=76 v=0
110950 Off ch=2 n=64 v=0
110976 On ch=2 n=78 v=120
110976 On ch=2 n=66 v=113
111014 Off ch=2 n=78 v=0
111014 Off ch=2 n=66 v=0
111040 On ch=2 n=80 v=116
111040 On ch=2 n=68 v=119
111078 Off ch=2 n=80 v=0
111078 Off ch=2 n=68 v=0
111104 On ch=2 n=81 v=119
111104 On ch=2 n=69 v=115
111142 Off ch=2 n=81 v=0
111142 Off ch=2 n=69 v=0
111168 On ch=2 n=83 v=119
111168 On ch=2 n=71 v=120
111206 Off ch=2 n=83 v=0
111206 Off ch=2 n=71 v=0
111232 On ch=2 n=84 v=124
111232 On ch=2 n=72 v=118
111270 Off ch=2 n=84 v=0
111270 Off ch=2 n=72 v=0
111296 On ch=2 n=83 v=112
111296 On ch=2 n=71 v=108
111334 Off ch=2 n=83 v=0
111334 Off ch=2 n=71 v=0
111360 On ch=2 n=81 v=104
111360 On ch=2 n=69 v=105
111398 Off ch=2 n=81 v=0
111398 Off ch=2 n=69 v=0
111424 On ch=2 n=84 v=121
111424 On ch=2 n=72 v=125
111462 Off ch=2 n=84 v=0
111462 Off ch=2 n=72 v=0
111488 On ch=2 n=83 v=107
111488 On ch=2 n=71 v=109
111526 Off ch=2 n=83 v=0
111526 Off ch=2 n=71 v=0
111552 On ch=2 n=81 v=109
111552 On ch=2 n=69 v=108
111590 Off ch=2 n=81 v=0
111590 Off ch=2 n=69 v=0
111616 On ch=2 n=76 v=97
111654 Off ch=2 n=76 v=0
111680 On ch=2 n=78 v=116
111718 Off ch=2 n=78 v=0
111744 On ch=2 n=80 v=115
111782 Off ch=2 n=80 v=0
111808 On ch=2 n=81 v=119
111846 Off ch=2 n=81 v=0
111872 On ch=2 n=83 v=116
111910 Off ch=2 n=83 v=0
111936 On ch=2 n=72 v=80
111974 Off ch=2 n=72 v=0
112000 On ch=2 n=74 v=116
112038 Off ch=2 n=74 v=0
112064 On ch=2 n=76 v=113
112102 Off ch=2 n=76 v=0
112128 On ch=2 n=74 v=105
112166 Off ch=2 n=74 v=0
112192 On ch=2 n=71 v=96
112230 Off ch=2 n=71 v=0
112256 On ch=2 n=72 v=111
112294 Off ch=2 n=72 v=0
112320 On ch=2 n=74 v=120
112358 Off ch=2 n=74 v=0
112384 On ch=2 n=76 v=121
112422 Off ch=2 n=76 v=0
112448 On ch=2 n=74 v=104
112486 Off ch=2 n=74 v=0
112512 On ch=2 n=72 v=109
112550 Off ch=2 n=72 v=0
112576 On ch=2 n=71 v=101
112614 Off ch=2 n=71 v=0
112640 On ch=2 n=69 v=106
112896 Off ch=2 n=69 v=0
113152 On ch=2 n=76 v=42
113408 Off ch=2 n=76 v=0
113408 On ch=2 n=78 v=51
113408 On ch=2 n=76 v=51
113484 Off ch=2 n=78 v=0
113484 Off ch=2 n=76 v=0
113536 On ch=2 n=80 v=51
113536 On ch=2 n=76 v=48
113612 Off ch=2 n=80 v=0
113612 Off ch=2 n=76 v=0
113664 On ch=2 n=76 v=46
113664 On ch=2 n=81 v=46
113792 Off ch=2 n=76 v=0
113792 Off ch=2 n=81 v=0
119040 On ch=2 n=76 v=47
119040 On ch=2 n=79 v=47
120064 Off ch=2 n=76 v=0
120064 Off ch=2 n=79 v=0
120064 On ch=2 n=74 v=57
120064 On ch=2 n=78 v=57
120178 Off ch=2 n=74 v=0
120178 Off ch=2 n=78 v=0
125952 On ch=2 n=74 v=97
125952 On ch=2 n=83 v=97
126208 Off ch=2 n=74 v=0
126208 Off ch=2 n=83 v=0
126208 On ch=2 n=72 v=102
126208 On ch=2 n=81 v=102
126284 Off ch=2 n=72 v=0
126284 Off ch=2 n=81 v=0
126336 On ch=2 n=74 v=115
126336 On ch=2 n=83 v=115
126412 Off ch=2 n=74 v=0
126412 Off ch=2 n=83 v=0
126464 On ch=2 n=76 v=118
126464 On ch=2 n=84 v=118
126592 Off ch=2 n=76 v=0
126592 Off ch=2 n=84 v=0
128000 On ch=2 n=74 v=102
128000 On ch=2 n=83 v=102
128256 Off ch=2 n=74 v=0
128256 Off ch=2 n=83 v=0
128256 On ch=2 n=72 v=102
128256 On ch=2 n=81 v=102
128332 Off ch=2 n=72 v=0
128332 Off ch=2 n=81 v=0
128384 On ch=2 n=74 v=117
128384 On ch=2 n=83 v=117
128460 Off ch=2 n=74 v=0
128460 Off ch=2 n=83 v=0
128512 On ch=2 n=76 v=120
128512 On ch=2 n=84 v=120
128640 Off ch=2 n=76 v=0
128640 Off ch=2 n=84 v=0
129536 On ch=2 n=80 v=39
129792 Off ch=2 n=80 v=0
129792 On ch=2 n=78 v=47
129868 Off ch=2 n=78 v=0
129920 On ch=2 n=80 v=47
129996 Off ch=2 n=80 v=0
130048 On ch=2 n=81 v=36
130304 Off ch=2 n=81 v=0
130304 On ch=2 n=81 v=41
130380 Off ch=2 n=81 v=0
130432 On ch=2 n=81 v=35
130504 Off ch=2 n=81 v=0
130560 On ch=2 n=80 v=34
130713 Off ch=2 n=80 v=0
130816 On ch=2 n=80 v=38
130961 Off ch=2 n=80 v=0
131072 On ch=2 n=71 v=23
131328 Off ch=2 n=71 v=0
131328 On ch=2 n=71 v=30
131404 Off ch=2 n=71 v=0
131456 On ch=2 n=71 v=37
131528 Off ch=2 n=71 v=0
131584 On ch=2 n=72 v=37
131737 Off ch=2 n=72 v=0
131840 On ch=2 n=72 v=36
131985 Off ch=2 n=72 v=0
134144 On ch=2 n=79 v=40
134400 Off ch=2 n=79 v=0
134400 On ch=2 n=79 v=37
134477 Off ch=2 n=79 v=0
134528 On ch=2 n=81 v=43
134600 Off ch=2 n=81 v=0
134656 On ch=2 n=83 v=39
134809 Off ch=2 n=83 v=0
134912 On ch=2 n=83 v=37
135057 Off ch=2 n=83 v=0
135168 On ch=2 n=74 v=28
135424 Off ch=2 n=74 v=0
135424 On ch=2 n=74 v=36
135500 Off ch=2 n=74 v=0
135552 On ch=2 n=74 v=38
135624 Off ch=2 n=74 v=0
135680 On ch=2 n=73 v=36
135836 Off ch=2 n=73 v=0
135936 On ch=2 n=72 v=35
136081 Off ch=2 n=72 v=0
138240 On ch=2 n=76 v=40
138496 Off ch=2 n=76 v=0
138496 On ch=2 n=78 v=34
138496 On ch=2 n=76 v=36
138572 Off ch=2 n=78 v=0
138572 Off ch=2 n=76 v=0
138624 On ch=2 n=80 v=36
138624 On ch=2 n=76 v=36
138700 Off ch=2 n=80 v=0
138700 Off ch=2 n=76 v=0
138752 On ch=2 n=81 v=37
138752 On ch=2 n=76 v=35
139008 Off ch=2 n=81 v=0
139008 Off ch=2 n=76 v=0
140800 Par ch=2 c=7 v=95
140800 On ch=2 n=72 v=86
140800 On ch=2 n=76 v=86
140928 Par ch=2 c=7 v=85
141056 Par ch=2 c=7 v=75
141311 Par ch=2 c=7 v=65
141431 Par ch=2 c=7 v=45
141563 Par ch=2 c=7 v=35
141824 Par ch=2 c=7 v=25
141952 Off ch=2 n=72 v=0
141952 Off ch=2 n=76 v=0
141952 Par ch=2 c=7 v=65
0 Par ch=3 c=7 v=95
0 On ch=3 n=64 v=70
0 On ch=3 n=69 v=70
225 Par ch=3 c=7 v=85
345 Par ch=3 c=7 v=75
512 Par ch=3 c=7 v=65
837 Par ch=3 c=7 v=55
1023 Par ch=3 c=7 v=45
1144 Par ch=3 c=7 v=35
1280 Off ch=3 n=64 v=0
1280 Off ch=3 n=69 v=0
1536 Par ch=3 c=7 v=60
37888 On ch=3 n=64 v=98
37888 On ch=3 n=76 v=98
38144 Off ch=3 n=64 v=0
38144 Off ch=3 n=76 v=0
38144 On ch=3 n=64 v=95
38144 On ch=3 n=76 v=95
38220 Off ch=3 n=64 v=0
38220 Off ch=3 n=76 v=0
38272 On ch=3 n=64 v=99
38272 On ch=3 n=76 v=99
38348 Off ch=3 n=64 v=0
38348 Off ch=3 n=76 v=0
38400 On ch=3 n=64 v=96
38400 On ch=3 n=76 v=96
38553 Off ch=3 n=64 v=0
38553 Off ch=3 n=76 v=0
38656 On ch=3 n=64 v=98
38656 On ch=3 n=76 v=98
38801 Off ch=3 n=64 v=0
38801 Off ch=3 n=76 v=0
38912 On ch=3 n=64 v=100
38912 On ch=3 n=76 v=100
39168 Off ch=3 n=64 v=0
39168 Off ch=3 n=76 v=0
39168 On ch=3 n=64 v=96
39168 On ch=3 n=76 v=96
39244 Off ch=3 n=64 v=0
39244 Off ch=3 n=76 v=0
39296 On ch=3 n=64 v=101
39296 On ch=3 n=76 v=101
39372 Off ch=3 n=64 v=0
39372 Off ch=3 n=76 v=0
39424 On ch=3 n=64 v=94
39424 On ch=3 n=76 v=94
39577 Off ch=3 n=64 v=0
39577 Off ch=3 n=76 v=0
39680 On ch=3 n=64 v=99
39680 On ch=3 n=76 v=99
39825 Off ch=3 n=64 v=0
39825 Off ch=3 n=76 v=0
39936 On ch=3 n=64 v=98
39936 On ch=3 n=76 v=98
40192 Off ch=3 n=64 v=0
40192 Off ch=3 n=76 v=0
40192 On ch=3 n=64 v=96
40192 On ch=3 n=76 v=96
40268 Off ch=3 n=64 v=0
40268 Off ch=3 n=76 v=0
40320 On ch=3 n=66 v=100
40320 On ch=3 n=78 v=100
40396 Off ch=3 n=66 v=0
40396 Off ch=3 n=78 v=0
40448 On ch=3 n=67 v=104
40448 On ch=3 n=79 v=104
40601 Off ch=3 n=67 v=0
40601 Off ch=3 n=79 v=0
40704 On ch=3 n=67 v=95
40704 On ch=3 n=79 v=95
40849 Off ch=3 n=67 v=0
40849 Off ch=3 n=79 v=0
40960 On ch=3 n=67 v=97
40960 On ch=3 n=79 v=97
41216 Off ch=3 n=67 v=0
41216 Off ch=3 n=79 v=0
41216 On ch=3 n=67 v=96
41216 On ch=3 n=79 v=96
41292 Off ch=3 n=67 v=0
41292 Off ch=3 n=79 v=0
41344 On ch=3 n=67 v=95
41344 On ch=3 n=79 v=95
41420 Off ch=3 n=67 v=0
41420 Off ch=3 n=79 v=0
41472 On ch=3 n=67 v=99
41472 On ch=3 n=79 v=99
41728 Off ch=3 n=67 v=0
41728 Off ch=3 n=79 v=0
41984 On ch=3 n=67 v=91
41984 On ch=3 n=79 v=91
42240 Off ch=3 n=67 v=0
42240 Off ch=3 n=79 v=0
42240 On ch=3 n=67 v=95
42240 On ch=3 n=79 v=95
42316 Off ch=3 n=67 v=0
42316 Off ch=3 n=79 v=0
42368 On ch=3 n=69 v=103
42368 On ch=3 n=81 v=103
42444 Off ch=3 n=69 v=0
42444 Off ch=3 n=81 v=0
42496 On ch=3 n=71 v=98
42496 On ch=3 n=83 v=98
42649 Off ch=3 n=71 v=0
42649 Off ch=3 n=83 v=0
42752 On ch=3 n=71 v=98
42752 On ch=3 n=83 v=98
42897 Off ch=3 n=71 v=0
42897 Off ch=3 n=83 v=0
43008 On ch=3 n=66 v=82
43008 On ch=3 n=78 v=82
43264 Off ch=3 n=66 v=0
43264 Off ch=3 n=78 v=0
43264 On ch=3 n=66 v=91
43264 On ch=3 n=78 v=91
43340 Off ch=3 n=66 v=0
43340 Off ch=3 n=78 v=0
43392 On ch=3 n=68 v=107
43392 On ch=3 n=80 v=107
43468 Off ch=3 n=68 v=0
43468 Off ch=3 n=80 v=0
43520 On ch=3 n=69 v=102
43520 On ch=3 n=81 v=102
43673 Off ch=3 n=69 v=0
43673 Off ch=3 n=81 v=0
43776 On ch=3 n=69 v=97
43776 On ch=3 n=81 v=97
43921 Off ch=3 n=69 v=0
43921 Off ch=3 n=81 v=0
44032 On ch=3 n=64 v=83
44032 On ch=3 n=76 v=83
44288 Off ch=3 n=64 v=0
44288 Off ch=3 n=76 v=0
44288 On ch=3 n=64 v=97
44288 On ch=3 n=76 v=97
44364 Off ch=3 n=64 v=0
44364 Off ch=3 n=76 v=0
44416 On ch=3 n=64 v=97
44416 On ch=3 n=76 v=97
44492 Off ch=3 n=64 v=0
44492 Off ch=3 n=76 v=0
44544 On ch=3 n=64 v=95
44544 On ch=3 n=76 v=95
44697 Off ch=3 n=64 v=0
44697 Off ch=3 n=76 v=0
44800 On ch=3 n=64 v=98
44800 On ch=3 n=76 v=98
44945 Off ch=3 n=64 v=0
44945 Off ch=3 n=76 v=0
45056 On ch=3 n=64 v=94
45056 On ch=3 n=76 v=94
45312 Off ch=3 n=64 v=0
45312 Off ch=3 n=76 v=0
45312 On ch=3 n=66 v=103
45312 On ch=3 n=78 v=103
45388 Off ch=3 n=66 v=0
45388 Off ch=3 n=78 v=0
45440 On ch=3 n=68 v=102
45440 On ch=3 n=80 v=102
45516 Off ch=3 n=68 v=0
45516 Off ch=3 n=80 v=0
45568 On ch=3 n=69 v=104
45568 On ch=3 n=81 v=104
45824 Off ch=3 n=69 v=0
45824 Off ch=3 n=81 v=0
46080 On ch=3 n=67 v=75
46080 On ch=3 n=79 v=75
46336 Off ch=3 n=67 v=0
46336 Off ch=3 n=79 v=0
46336 On ch=3 n=67 v=85
46336 On ch=3 n=79 v=85
46412 Off ch=3 n=67 v=0
46412 Off ch=3 n=79 v=0
46464 On ch=3 n=69 v=91
46464 On ch=3 n=81 v=91
46540 Off ch=3 n=69 v=0
46540 Off ch=3 n=81 v=0
46592 On ch=3 n=71 v=90
46592 On ch=3 n=83 v=90
46745 Off ch=3 n=71 v=0
46745 Off ch=3 n=83 v=0
46848 On ch=3 n=71 v=87
46848 On ch=3 n=83 v=87
46993 Off ch=3 n=71 v=0
46993 Off ch=3 n=83 v=0
47104 On ch=3 n=66 v=72
47104 On ch=3 n=78 v=72
47360 Off ch=3 n=66 v=0
47360 Off ch=3 n=78 v=0
47360 On ch=3 n=66 v=85
47360 On ch=3 n=78 v=85
47436 Off ch=3 n=66 v=0
47436 Off ch=3 n=78 v=0
47488 On ch=3 n=68 v=88
47488 On ch=3 n=80 v=88
47564 Off ch=3 n=68 v=0
47564 Off ch=3 n=80 v=0
47616 On ch=3 n=69 v=90
47616 On ch=3 n=81 v=90
47769 Off ch=3 n=69 v=0
47769 Off ch=3 n=81 v=0
47872 On ch=3 n=69 v=82
47872 On ch=3 n=81 v=82
48017 Off ch=3 n=69 v=0
48017 Off ch=3 n=81 v=0
48128 On ch=3 n=64 v=60
48128 On ch=3 n=76 v=60
48384 Off ch=3 n=64 v=0
48384 Off ch=3 n=76 v=0
48384 On ch=3 n=64 v=70
48384 On ch=3 n=76 v=70
48460 Off ch=3 n=64 v=0
48460 Off ch=3 n=76 v=0
48512 On ch=3 n=64 v=72
48512 On ch=3 n=76 v=72
48588 Off ch=3 n=64 v=0
48588 Off ch=3 n=76 v=0
48640 On ch=3 n=64 v=69
48640 On ch=3 n=76 v=69
48793 Off ch=3 n=64 v=0
48793 Off ch=3 n=76 v=0
48896 On ch=3 n=64 v=65
48896 On ch=3 n=76 v=65
49041 Off ch=3 n=64 v=0
49041 Off ch=3 n=76 v=0
49152 On ch=3 n=64 v=63
49152 On ch=3 n=76 v=63
49408 Off ch=3 n=64 v=0
49408 Off ch=3 n=76 v=0
49408 On ch=3 n=66 v=55
49408 On ch=3 n=78 v=55
49484 Off ch=3 n=66 v=0
49484 Off ch=3 n=78 v=0
49536 On ch=3 n=68 v=56
49536 On ch=3 n=80 v=56
49612 Off ch=3 n=68 v=0
49612 Off ch=3 n=80 v=0
49664 On ch=3 n=69 v=56
49664 On ch=3 n=81 v=56
49920 Off ch=3 n=69 v=0
49920 Off ch=3 n=81 v=0
50176 On ch=3 n=71 v=44
50176 On ch=3 n=74 v=44
50432 Off ch=3 n=71 v=0
50432 Off ch=3 n=74 v=0
50432 On ch=3 n=71 v=47
50432 On ch=3 n=74 v=47
50508 Off ch=3 n=71 v=0
50508 Off ch=3 n=74 v=0
50560 On ch=3 n=71 v=47
50560 On ch=3 n=74 v=47
50636 Off ch=3 n=71 v=0
50636 Off ch=3 n=74 v=0
50688 On ch=3 n=69 v=46
50688 On ch=3 n=72 v=46
50944 Off ch=3 n=69 v=0
50944 Off ch=3 n=72 v=0
51456 On ch=3 n=76 v=75
51968 Off ch=3 n=76 v=0
51968 On ch=3 n=73 v=64
52224 On ch=3 n=69 v=52
52229 Off ch=3 n=73 v=0
52480 On ch=3 n=73 v=77
52485 Off ch=3 n=69 v=0
52723 Off ch=3 n=73 v=0
52736 On ch=3 n=73 v=68
52992 On ch=3 n=62 v=66
52992 On ch=3 n=71 v=66
52997 Off ch=3 n=73 v=0
53504 On ch=3 n=61 v=67
53504 On ch=3 n=69 v=67
53514 Off ch=3 n=62 v=0
53514 Off ch=3 n=71 v=0
53760 On ch=3 n=59 v=71
53760 On ch=3 n=68 v=71
53765 Off ch=3 n=61 v=0
53765 Off ch=3 n=69 v=0
54016 On ch=3 n=61 v=78
54016 On ch=3 n=69 v=78
54021 Off ch=3 n=59 v=0
54021 Off ch=3 n=68 v=0
54272 On ch=3 n=62 v=82
54272 On ch=3 n=71 v=82
54277 Off ch=3 n=61 v=0
54277 Off ch=3 n=69 v=0
54528 On ch=3 n=64 v=87
54528 On ch=3 n=73 v=87
54533 Off ch=3 n=62 v=0
54533 Off ch=3 n=71 v=0
54784 On ch=3 n=66 v=85
54784 On ch=3 n=74 v=85
54789 Off ch=3 n=64 v=0
54789 Off ch=3 n=73 v=0
55040 On ch=3 n=68 v=78
55040 On ch=3 n=76 v=78
55045 Off ch=3 n=66 v=0
55045 Off ch=3 n=74 v=0
55296 On ch=3 n=71 v=62
55296 On ch=3 n=74 v=62
55301 Off ch=3 n=68 v=0
55301 Off ch=3 n=76 v=0
55552 On ch=3 n=69 v=48
55552 On ch=3 n=73 v=48
55557 Off ch=3 n=71 v=0
55557 Off ch=3 n=74 v=0
55680 Off ch=3 n=73 v=0
55680 On ch=3 n=73 v=63
55680 On ch=3 n=81 v=63
55682 Off ch=3 n=69 v=0
55801 Off ch=3 n=73 v=0
55801 Off ch=3 n=81 v=0
55808 On ch=3 n=73 v=63
55808 On ch=3 n=81 v=63
56064 Off ch=3 n=73 v=0
56064 On ch=3 n=73 v=52
56064 On ch=3 n=76 v=52
56069 Off ch=3 n=81 v=0
56320 Off ch=3 n=73 v=0
56320 On ch=3 n=69 v=64
56320 On ch=3 n=73 v=64
56325 Off ch=3 n=76 v=0
56576 Off ch=3 n=73 v=0
56576 On ch=3 n=73 v=79
56576 On ch=3 n=76 v=79
56581 Off ch=3 n=69 v=0
56819 Off ch=3 n=73 v=0
56819 Off ch=3 n=76 v=0
56832 On ch=3 n=73 v=76
56832 On ch=3 n=76 v=76
57088 On ch=3 n=74 v=82
57088 On ch=3 n=78 v=82
57093 Off ch=3 n=73 v=0
57093 Off ch=3 n=76 v=0
57600 On ch=3 n=73 v=70
57600 On ch=3 n=76 v=70
57610 Off ch=3 n=74 v=0
57610 Off ch=3 n=78 v=0
57843 Off ch=3 n=73 v=0
57843 Off ch=3 n=76 v=0
57856 On ch=3 n=71 v=65
57856 On ch=3 n=74 v=65
58112 On ch=3 n=69 v=61
58112 On ch=3 n=73 v=61
58117 Off ch=3 n=71 v=0
58117 Off ch=3 n=74 v=0
58368 On ch=3 n=68 v=61
58368 On ch=3 n=71 v=61
58373 Off ch=3 n=69 v=0
58373 Off ch=3 n=73 v=0
58624 On ch=3 n=66 v=61
58624 On ch=3 n=75 v=61
58629 Off ch=3 n=68 v=0
58629 Off ch=3 n=71 v=0
58880 On ch=3 n=68 v=55
58880 On ch=3 n=76 v=55
58885 Off ch=3 n=66 v=0
58885 Off ch=3 n=75 v=0
59366 Off ch=3 n=68 v=0
59366 Off ch=3 n=76 v=0
59392 On ch=3 n=81 v=112
59776 Off ch=3 n=81 v=0
59776 On ch=3 n=81 v=100
59904 Off ch=3 n=81 v=0
59904 On ch=3 n=81 v=95
59989 On ch=3 n=80 v=91
59990 Off ch=3 n=81 v=0
60069 Off ch=3 n=80 v=0
60074 On ch=3 n=78 v=91
60125 Off ch=3 n=78 v=0
60160 On ch=3 n=76 v=92
60211 Off ch=3 n=76 v=0
60245 On ch=3 n=75 v=91
60296 Off ch=3 n=75 v=0
60330 On ch=3 n=73 v=93
60381 Off ch=3 n=73 v=0
60416 On ch=3 n=71 v=93
60672 On ch=3 n=73 v=99
60677 Off ch=3 n=71 v=0
60793 Off ch=3 n=73 v=0
60800 On ch=3 n=75 v=106
60876 Off ch=3 n=75 v=0
60928 On ch=3 n=76 v=104
61269 Off ch=3 n=76 v=0
61269 On ch=3 n=78 v=99
61354 On ch=3 n=80 v=106
61355 Off ch=3 n=78 v=0
61435 Off ch=3 n=80 v=0
61440 On ch=3 n=81 v=102
61824 Off ch=3 n=81 v=0
61824 On ch=3 n=81 v=99
61952 Off ch=3 n=81 v=0
61952 On ch=3 n=81 v=95
62037 On ch=3 n=80 v=91
62038 Off ch=3 n=81 v=0
62122 On ch=3 n=78 v=91
62123 Off ch=3 n=80 v=0
62208 On ch=3 n=76 v=87
62209 Off ch=3 n=78 v=0
62293 On ch=3 n=75 v=92
62294 Off ch=3 n=76 v=0
62378 On ch=3 n=76 v=92
62379 Off ch=3 n=75 v=0
62459 Off ch=3 n=76 v=0
62464 On ch=3 n=76 v=108
62464 On ch=3 n=70 v=62
62976 On ch=3 n=71 v=77
62986 Off ch=3 n=70 v=0
63193 Off ch=3 n=76 v=0
63232 On ch=3 n=78 v=113
63360 On ch=3 n=76 v=97
63362 Off ch=3 n=78 v=0
63437 Off ch=3 n=71 v=0
63481 Off ch=3 n=76 v=0
63488 On ch=3 n=76 v=98
63488 On ch=3 n=70 v=76
64000 On ch=3 n=71 v=92
64010 Off ch=3 n=70 v=0
64217 Off ch=3 n=76 v=0
64256 On ch=3 n=80 v=111
64341 On ch=3 n=78 v=110
64342 Off ch=3 n=80 v=0
64426 On ch=3 n=76 v=92
64427 Off ch=3 n=78 v=0
64461 Off ch=3 n=71 v=0
64507 Off ch=3 n=76 v=0
64512 On ch=3 n=76 v=85
64512 On ch=3 n=70 v=80
64896 On ch=3 n=67 v=72
64903 Off ch=3 n=70 v=0
65017 Off ch=3 n=67 v=0
65024 On ch=3 n=66 v=68
65079 Off ch=3 n=76 v=0
65109 On ch=3 n=74 v=75
65194 Off ch=3 n=74 v=0
65194 On ch=3 n=73 v=76
65280 Off ch=3 n=66 v=0
65280 Off ch=3 n=73 v=0
65280 On ch=3 n=76 v=79
65365 Off ch=3 n=76 v=0
65365 On ch=3 n=74 v=65
65365 On ch=3 n=66 v=54
65450 Off ch=3 n=74 v=0
65450 Off ch=3 n=66 v=0
65450 On ch=3 n=66 v=47
65450 On ch=3 n=62 v=49
65536 Off ch=3 n=66 v=0
65536 Off ch=3 n=62 v=0
65536 On ch=3 n=69 v=66
65536 On ch=3 n=61 v=56
65792 On ch=3 n=71 v=68
65792 On ch=3 n=68 v=66
65797 Off ch=3 n=69 v=0
65797 Off ch=3 n=61 v=0
66048 On ch=3 n=73 v=75
66048 On ch=3 n=69 v=73
66053 Off ch=3 n=71 v=0
66053 Off ch=3 n=68 v=0
66304 On ch=3 n=74 v=74
66304 On ch=3 n=71 v=73
66309 Off ch=3 n=73 v=0
66309 Off ch=3 n=69 v=0
66389 On ch=3 n=75 v=73
66389 On ch=3 n=72 v=77
66390 Off ch=3 n=74 v=0
66390 Off ch=3 n=71 v=0
66474 On ch=3 n=76 v=74
66474 On ch=3 n=73 v=70
66475 Off ch=3 n=75 v=0
66475 Off ch=3 n=72 v=0
66555 Off ch=3 n=76 v=0
66555 Off ch=3 n=73 v=0
66560 On ch=3 n=76 v=70
66560 On ch=3 n=70 v=63
67072 On ch=3 n=71 v=79
67082 Off ch=3 n=70 v=0
67289 Off ch=3 n=76 v=0
67328 On ch=3 n=78 v=81
67456 Off ch=3 n=78 v=0
67456 On ch=3 n=76 v=75
67558 Off ch=3 n=71 v=0
67584 Off ch=3 n=76 v=0
67584 On ch=3 n=76 v=76
67584 On ch=3 n=70 v=73
68096 On ch=3 n=71 v=77
68106 Off ch=3 n=70 v=0
68313 Off ch=3 n=76 v=0
68352 On ch=3 n=80 v=81
68437 On ch=3 n=78 v=77
68438 Off ch=3 n=80 v=0
68522 On ch=3 n=76 v=64
68523 Off ch=3 n=78 v=0
68557 Off ch=3 n=71 v=0
68603 Off ch=3 n=76 v=0
76032 On ch=3 n=64 v=88
76032 On ch=3 n=76 v=88
76108 Off ch=3 n=64 v=0
76108 Off ch=3 n=76 v=0
76160 On ch=3 n=64 v=98
76160 On ch=3 n=76 v=98
76236 Off ch=3 n=64 v=0
76236 Off ch=3 n=76 v=0
107008 On ch=3 n=68 v=43
107264 Off ch=3 n=68 v=0
107264 On ch=3 n=68 v=54
107340 Off ch=3 n=68 v=0
107392 On ch=3 n=69 v=62
107468 Off ch=3 n=69 v=0
107520 On ch=3 n=71 v=67
107776 Off ch=3 n=71 v=0
107776 On ch=3 n=71 v=70
107852 Off ch=3 n=71 v=0
107904 On ch=3 n=72 v=82
107980 Off ch=3 n=72 v=0
108032 On ch=3 n=74 v=84
108288 Off ch=3 n=74 v=0
108288 On ch=3 n=74 v=88
108364 Off ch=3 n=74 v=0
108416 On ch=3 n=76 v=97
108492 Off ch=3 n=76 v=0
108544 On ch=3 n=77 v=104
108672 On ch=3 n=76 v=98
108674 Off ch=3 n=77 v=0
108736 On ch=3 n=74 v=98
108737 Off ch=3 n=76 v=0
108800 On ch=3 n=76 v=108
108801 Off ch=3 n=74 v=0
108860 Off ch=3 n=76 v=0
108864 On ch=3 n=64 v=84
108902 Off ch=3 n=64 v=0
108928 On ch=3 n=66 v=111
108966 Off ch=3 n=66 v=0
108992 On ch=3 n=68 v=118
109030 Off ch=3 n=68 v=0
109056 On ch=3 n=69 v=123
109094 Off ch=3 n=69 v=0
109120 On ch=3 n=71 v=108
109158 Off ch=3 n=71 v=0
109184 On ch=3 n=72 v=101
109222 Off ch=3 n=72 v=0
109248 On ch=3 n=71 v=92
109286 Off ch=3 n=71 v=0
109312 On ch=3 n=69 v=88
109350 Off ch=3 n=69 v=0
109376 On ch=3 n=72 v=101
109414 Off ch=3 n=72 v=0
109440 On ch=3 n=71 v=90
109478 Off ch=3 n=71 v=0
109504 On ch=3 n=69 v=91
109542 Off ch=3 n=69 v=0
109568 On ch=3 n=64 v=87
109606 Off ch=3 n=64 v=0
109632 On ch=3 n=66 v=117
109670 Off ch=3 n=66 v=0
109696 On ch=3 n=68 v=119
109734 Off ch=3 n=68 v=0
109760 On ch=3 n=69 v=119
109798 Off ch=3 n=69 v=0
109824 On ch=3 n=71 v=118
109862 Off ch=3 n=71 v=0
109888 On ch=3 n=72 v=117
109926 Off ch=3 n=72 v=0
109952 On ch=3 n=74 v=123
109990 Off ch=3 n=74 v=0
110016 On ch=3 n=76 v=119
110054 Off ch=3 n=76 v=0
110080 On ch=3 n=74 v=109
110118 Off ch=3 n=74 v=0
110144 On ch=3 n=71 v=92
110182 Off ch=3 n=71 v=0
110208 On ch=3 n=72 v=102
110246 Off ch=3 n=72 v=0
110272 On ch=3 n=74 v=103
110310 Off ch=3 n=74 v=0
110336 On ch=3 n=76 v=105
110374 Off ch=3 n=76 v=0
110400 On ch=3 n=74 v=94
110438 Off ch=3 n=74 v=0
110464 On ch=3 n=72 v=90
110502 Off ch=3 n=72 v=0
110528 On ch=3 n=71 v=90
110566 Off ch=3 n=71 v=0
110592 On ch=3 n=72 v=102
110630 Off ch=3 n=72 v=0
110656 On ch=3 n=71 v=103
110694 Off ch=3 n=71 v=0
110720 On ch=3 n=72 v=113
110758 Off ch=3 n=72 v=0
110784 On ch=3 n=74 v=119
110822 Off ch=3 n=74 v=0
110848 On ch=3 n=76 v=117
110886 Off ch=3 n=76 v=0
110912 On ch=3 n=64 v=84
110950 Off ch=3 n=64 v=0
110976 On ch=3 n=66 v=114
111014 Off ch=3 n=66 v=0
111040 On ch=3 n=68 v=120
111078 Off ch=3 n=68 v=0
111104 On ch=3 n=69 v=93
111142 Off ch=3 n=69 v=0
111168 On ch=3 n=71 v=96
111206 Off ch=3 n=71 v=0
111232 On ch=3 n=72 v=101
111270 Off ch=3 n=72 v=0
111296 On ch=3 n=71 v=94
111334 Off ch=3 n=71 v=0
111360 On ch=3 n=69 v=93
111398 Off ch=3 n=69 v=0
111424 On ch=3 n=72 v=102
111462 Off ch=3 n=72 v=0
111488 On ch=3 n=71 v=94
111526 Off ch=3 n=71 v=0
111552 On ch=3 n=69 v=86
111590 Off ch=3 n=69 v=0
111616 On ch=3 n=64 v=85
111654 Off ch=3 n=64 v=0
111680 On ch=3 n=66 v=105
111718 Off ch=3 n=66 v=0
111744 On ch=3 n=68 v=106
111782 Off ch=3 n=68 v=0
111808 On ch=3 n=69 v=99
111846 Off ch=3 n=69 v=0
111872 On ch=3 n=71 v=107
111910 Off ch=3 n=71 v=0
111936 On ch=3 n=72 v=105
111974 Off ch=3 n=72 v=0
112000 On ch=3 n=74 v=102
112038 Off ch=3 n=74 v=0
112064 On ch=3 n=76 v=103
112102 Off ch=3 n=76 v=0
112128 On ch=3 n=74 v=90
112166 Off ch=3 n=74 v=0
112192 On ch=3 n=71 v=86
112230 Off ch=3 n=71 v=0
112256 On ch=3 n=72 v=97
112294 Off ch=3 n=72 v=0
112320 On ch=3 n=74 v=102
112358 Off ch=3 n=74 v=0
112384 On ch=3 n=76 v=109
112422 Off ch=3 n=76 v=0
112448 On ch=3 n=74 v=91
112486 Off ch=3 n=74 v=0
112512 On ch=3 n=72 v=88
112550 Off ch=3 n=72 v=0
112576 On ch=3 n=71 v=94
112614 Off ch=3 n=71 v=0
112640 On ch=3 n=69 v=86
112896 Off ch=3 n=69 v=0
113152 On ch=3 n=71 v=44
113152 On ch=3 n=74 v=44
113408 Off ch=3 n=71 v=0
113408 Off ch=3 n=74 v=0
113408 On ch=3 n=71 v=48
113408 On ch=3 n=74 v=48
113484 Off ch=3 n=71 v=0
113484 Off ch=3 n=74 v=0
113536 On ch=3 n=71 v=48
113536 On ch=3 n=74 v=48
113612 Off ch=3 n=71 v=0
113612 Off ch=3 n=74 v=0
113664 On ch=3 n=69 v=51
113664 On ch=3 n=72 v=51
113792 Off ch=3 n=69 v=0
113792 Off ch=3 n=72 v=0
114432 On ch=3 n=76 v=56
114944 Off ch=3 n=76 v=0
114944 On ch=3 n=73 v=58
115200 On ch=3 n=69 v=52
115205 Off ch=3 n=73 v=0
115456 On ch=3 n=73 v=61
115461 Off ch=3 n=69 v=0
115699 Off ch=3 n=73 v=0
115712 On ch=3 n=73 v=60
115968 On ch=3 n=62 v=58
115968 On ch=3 n=71 v=58
115973 Off ch=3 n=73 v=0
116480 On ch=3 n=61 v=73
116480 On ch=3 n=69 v=73
116490 Off ch=3 n=62 v=0
116490 Off ch=3 n=71 v=0
116736 On ch=3 n=59 v=74
116736 On ch=3 n=68 v=74
116741 Off ch=3 n=61 v=0
116741 Off ch=3 n=69 v=0
116992 On ch=3 n=61 v=90
116992 On ch=3 n=69 v=90
116997 Off ch=3 n=59 v=0
116997 Off ch=3 n=68 v=0
117248 On ch=3 n=62 v=92
117248 On ch=3 n=71 v=92
117253 Off ch=3 n=61 v=0
117253 Off ch=3 n=69 v=0
117504 On ch=3 n=64 v=98
117504 On ch=3 n=73 v=98
117509 Off ch=3 n=62 v=0
117509 Off ch=3 n=71 v=0
117760 On ch=3 n=66 v=84
117760 On ch=3 n=74 v=84
117765 Off ch=3 n=64 v=0
117765 Off ch=3 n=73 v=0
118016 On ch=3 n=68 v=75
118016 On ch=3 n=76 v=75
118021 Off ch=3 n=66 v=0
118021 Off ch=3 n=74 v=0
118272 On ch=3 n=71 v=59
118272 On ch=3 n=74 v=59
118277 Off ch=3 n=68 v=0
118277 Off ch=3 n=76 v=0
118528 On ch=3 n=69 v=52
118528 On ch=3 n=73 v=52
118533 Off ch=3 n=71 v=0
118533 Off ch=3 n=74 v=0
118656 Off ch=3 n=73 v=0
118656 On ch=3 n=73 v=61
118656 On ch=3 n=81 v=61
118658 Off ch=3 n=69 v=0
118777 Off ch=3 n=73 v=0
118777 Off ch=3 n=81 v=0
118784 On ch=3 n=73 v=66
118784 On ch=3 n=81 v=66
119040 Off ch=3 n=73 v=0
119040 On ch=3 n=73 v=57
119040 On ch=3 n=76 v=57
119045 Off ch=3 n=81 v=0
119296 Off ch=3 n=73 v=0
119296 On ch=3 n=69 v=63
119296 On ch=3 n=73 v=63
119301 Off ch=3 n=76 v=0
119552 Off ch=3 n=73 v=0
119552 On ch=3 n=73 v=75
119552 On ch=3 n=76 v=75
119557 Off ch=3 n=69 v=0
119795 Off ch=3 n=73 v=0
119795 Off ch=3 n=76 v=0
119808 On ch=3 n=73 v=72
119808 On ch=3 n=76 v=72
120064 On ch=3 n=74 v=77
120064 On ch=3 n=78 v=77
120069 Off ch=3 n=73 v=0
120069 Off ch=3 n=76 v=0
120576 On ch=3 n=73 v=71
120576 On ch=3 n=76 v=71
120586 Off ch=3 n=74 v=0
120586 Off ch=3 n=78 v=0
120832 On ch=3 n=66 v=73
120832 On ch=3 n=74 v=73
120837 Off ch=3 n=73 v=0
120837 Off ch=3 n=76 v=0
121088 On ch=3 n=64 v=80
121088 On ch=3 n=73 v=80
121093 Off ch=3 n=66 v=0
121093 Off ch=3 n=74 v=0
121344 On ch=3 n=66 v=78
121344 On ch=3 n=74 v=78
121349 Off ch=3 n=64 v=0
121349 Off ch=3 n=73 v=0
121600 On ch=3 n=68 v=74
121600 On ch=3 n=76 v=74
121605 Off ch=3 n=66 v=0
121605 Off ch=3 n=74 v=0
121856 On ch=3 n=69 v=61
121856 On ch=3 n=73 v=61
121861 Off ch=3 n=68 v=0
121861 Off ch=3 n=76 v=0
122342 Off ch=3 n=69 v=0
122342 Off ch=3 n=73 v=0
122368 On ch=3 n=66 v=57
122368 On ch=3 n=74 v=57
122624 On ch=3 n=68 v=59
122624 On ch=3 n=76 v=59
122629 Off ch=3 n=66 v=0
122629 Off ch=3 n=74 v=0
122880 On ch=3 n=69 v=55
122880 On ch=3 n=73 v=55
122885 Off ch=3 n=68 v=0
122885 Off ch=3 n=76 v=0
123366 Off ch=3 n=69 v=0
123366 Off ch=3 n=73 v=0
123392 On ch=3 n=66 v=61
123392 On ch=3 n=74 v=61
123648 On ch=3 n=68 v=67
123648 On ch=3 n=76 v=67
123653 Off ch=3 n=66 v=0
123653 Off ch=3 n=74 v=0
123891 Off ch=3 n=68 v=0
123891 Off ch=3 n=76 v=0
123904 On ch=3 n=69 v=27
124160 Off ch=3 n=69 v=0
124160 On ch=3 n=69 v=35
124236 Off ch=3 n=69 v=0
124288 On ch=3 n=69 v=34
124360 Off ch=3 n=69 v=0
124416 On ch=3 n=69 v=33
124569 Off ch=3 n=69 v=0
124672 On ch=3 n=69 v=34
124817 Off ch=3 n=69 v=0
124928 On ch=3 n=69 v=34
125184 Off ch=3 n=69 v=0
125184 On ch=3 n=69 v=37
125260 Off ch=3 n=69 v=0
125312 On ch=3 n=69 v=36
125384 Off ch=3 n=69 v=0
125440 On ch=3 n=69 v=34
125593 Off ch=3 n=69 v=0
125696 On ch=3 n=69 v=31
125841 Off ch=3 n=69 v=0
125952 On ch=3 n=71 v=126
125952 On ch=3 n=74 v=126
126208 Off ch=3 n=71 v=0
126208 Off ch=3 n=74 v=0
126208 On ch=3 n=69 v=109
126208 On ch=3 n=72 v=109
126284 Off ch=3 n=69 v=0
126284 Off ch=3 n=72 v=0
126336 On ch=3 n=71 v=120
126336 On ch=3 n=74 v=120
126412 Off ch=3 n=71 v=0
126412 Off ch=3 n=74 v=0
126464 On ch=3 n=72 v=120
126464 On ch=3 n=76 v=120
126592 Off ch=3 n=72 v=0
126592 Off ch=3 n=76 v=0
128000 On ch=3 n=71 v=102
128000 On ch=3 n=74 v=102
128256 Off ch=3 n=71 v=0
128256 Off ch=3 n=74 v=0
128256 On ch=3 n=69 v=103
128256 On ch=3 n=72 v=103
128332 Off ch=3 n=69 v=0
128332 Off ch=3 n=72 v=0
128384 On ch=3 n=71 v=119
128384 On ch=3 n=74 v=119
128460 Off ch=3 n=71 v=0
128460 Off ch=3 n=74 v=0
128512 On ch=3 n=72 v=121
128512 On ch=3 n=76 v=121
128640 Off ch=3 n=72 v=0
128640 Off ch=3 n=76 v=0
131072 On ch=3 n=68 v=28
131072 On ch=3 n=76 v=28
131328 Off ch=3 n=68 v=0
131328 Off ch=3 n=76 v=0
131328 On ch=3 n=68 v=38
131328 On ch=3 n=76 v=38
131404 Off ch=3 n=68 v=0
131404 Off ch=3 n=76 v=0
131456 On ch=3 n=68 v=35
131456 On ch=3 n=76 v=35
131528 Off ch=3 n=68 v=0
131528 Off ch=3 n=76 v=0
131584 On ch=3 n=69 v=36
131584 On ch=3 n=76 v=36
131737 Off ch=3 n=69 v=0
131737 Off ch=3 n=76 v=0
131840 On ch=3 n=69 v=33
131840 On ch=3 n=76 v=33
131985 Off ch=3 n=69 v=0
131985 Off ch=3 n=76 v=0
135168 On ch=3 n=71 v=37
135168 On ch=3 n=78 v=37
135424 Off ch=3 n=71 v=0
135424 Off ch=3 n=78 v=0
135424 On ch=3 n=71 v=35
135424 On ch=3 n=78 v=35
135500 Off ch=3 n=71 v=0
135501 Off ch=3 n=78 v=0
135552 On ch=3 n=71 v=38
135552 On ch=3 n=80 v=38
135624 Off ch=3 n=71 v=0
135624 Off ch=3 n=80 v=0
135680 On ch=3 n=69 v=41
135680 On ch=3 n=81 v=41
135833 Off ch=3 n=69 v=0
135833 Off ch=3 n=81 v=0
135936 On ch=3 n=69 v=37
135936 On ch=3 n=81 v=37
136081 Off ch=3 n=69 v=0
136081 Off ch=3 n=81 v=0
138240 On ch=3 n=71 v=30
138240 On ch=3 n=74 v=30
138496 Off ch=3 n=71 v=0
138496 Off ch=3 n=74 v=0
138496 On ch=3 n=71 v=34
138496 On ch=3 n=74 v=34
138572 Off ch=3 n=71 v=0
138572 Off ch=3 n=74 v=0
138624 On ch=3 n=71 v=33
138624 On ch=3 n=74 v=33
138700 Off ch=3 n=71 v=0
138700 Off ch=3 n=74 v=0
138752 On ch=3 n=69 v=33
138752 On ch=3 n=72 v=33
139008 Off ch=3 n=69 v=0
139008 Off ch=3 n=72 v=0
140800 Par ch=3 c=7 v=95
140800 On ch=3 n=64 v=80
140800 On ch=3 n=69 v=80
140928 Par ch=3 c=7 v=85
141056 Par ch=3 c=7 v=75
141312 Par ch=3 c=7 v=60
141477 Par ch=3 c=7 v=45
141824 Par ch=3 c=7 v=30
141952 Off ch=3 n=64 v=0
141952 Off ch=3 n=69 v=0
141952 Par ch=3 c=7 v=65
0 Par ch=4 c=7 v=95
0 On ch=4 n=57 v=88
0 On ch=4 n=60 v=88
235 Par ch=4 c=7 v=85
342 Par ch=4 c=7 v=75
512 Par ch=4 c=7 v=65
815 Par ch=4 c=7 v=55
1024 Par ch=4 c=7 v=45
1136 Par ch=4 c=7 v=35
1280 Off ch=4 n=57 v=0
1280 Off ch=4 n=60 v=0
1536 Par ch=4 c=7 v=60
34048 On ch=4 n=60 v=33
34048 On ch=4 n=64 v=33
34304 Off ch=4 n=60 v=0
34304 Off ch=4 n=64 v=0
34560 On ch=4 n=59 v=48
34560 On ch=4 n=66 v=48
34816 Off ch=4 n=59 v=0
34816 Off ch=4 n=66 v=0
35072 On ch=4 n=59 v=52
35072 On ch=4 n=62 v=52
35328 Off ch=4 n=59 v=0
35328 Off ch=4 n=62 v=0
35584 On ch=4 n=57 v=55
35584 On ch=4 n=64 v=55
35840 Off ch=4 n=57 v=0
35840 Off ch=4 n=64 v=0
36096 On ch=4 n=57 v=70
36096 On ch=4 n=64 v=70
36352 Off ch=4 n=57 v=0
36352 Off ch=4 n=64 v=0
36608 On ch=4 n=57 v=72
36608 On ch=4 n=64 v=72
36864 Off ch=4 n=57 v=0
36864 Off ch=4 n=64 v=0
37120 On ch=4 n=59 v=84
37120 On ch=4 n=62 v=84
37376 Off ch=4 n=59 v=0
37376 Off ch=4 n=62 v=0
37632 On ch=4 n=57 v=94
37632 On ch=4 n=60 v=94
37888 Off ch=4 n=57 v=0
37888 Off ch=4 n=60 v=0
37888 On ch=4 n=52 v=121
37888 On ch=4 n=64 v=121
38144 Off ch=4 n=52 v=0
38144 Off ch=4 n=64 v=0
38144 On ch=4 n=52 v=96
38144 On ch=4 n=64 v=96
38220 Off ch=4 n=52 v=0
38220 Off ch=4 n=64 v=0
38272 On ch=4 n=52 v=100
38272 On ch=4 n=64 v=100
38348 Off ch=4 n=52 v=0
38348 Off ch=4 n=64 v=0
38400 On ch=4 n=52 v=99
38400 On ch=4 n=64 v=99
38553 Off ch=4 n=52 v=0
38553 Off ch=4 n=64 v=0
38656 On ch=4 n=52 v=97
38656 On ch=4 n=64 v=97
38801 Off ch=4 n=52 v=0
38801 Off ch=4 n=64 v=0
38912 On ch=4 n=52 v=95
38912 On ch=4 n=64 v=95
39168 Off ch=4 n=52 v=0
39168 Off ch=4 n=64 v=0
39168 On ch=4 n=52 v=96
39168 On ch=4 n=64 v=96
39244 Off ch=4 n=52 v=0
39244 Off ch=4 n=64 v=0
39296 On ch=4 n=52 v=92
39296 On ch=4 n=64 v=92
39372 Off ch=4 n=52 v=0
39372 Off ch=4 n=64 v=0
39424 On ch=4 n=52 v=99
39424 On ch=4 n=64 v=99
39577 Off ch=4 n=52 v=0
39577 Off ch=4 n=64 v=0
39680 On ch=4 n=52 v=98
39680 On ch=4 n=64 v=98
39825 Off ch=4 n=52 v=0
39825 Off ch=4 n=64 v=0
39936 On ch=4 n=52 v=94
39936 On ch=4 n=64 v=94
40192 Off ch=4 n=52 v=0
40192 Off ch=4 n=64 v=0
40192 On ch=4 n=52 v=100
40192 On ch=4 n=64 v=100
40268 Off ch=4 n=52 v=0
40268 Off ch=4 n=64 v=0
40320 On ch=4 n=54 v=102
40320 On ch=4 n=66 v=102
40396 Off ch=4 n=54 v=0
40396 Off ch=4 n=66 v=0
40448 On ch=4 n=55 v=99
40448 On ch=4 n=67 v=99
40601 Off ch=4 n=55 v=0
40601 Off ch=4 n=67 v=0
40704 On ch=4 n=55 v=97
40704 On ch=4 n=67 v=97
40849 Off ch=4 n=55 v=0
40849 Off ch=4 n=67 v=0
40960 On ch=4 n=55 v=100
40960 On ch=4 n=67 v=100
41216 Off ch=4 n=55 v=0
41216 Off ch=4 n=67 v=0
41216 On ch=4 n=55 v=98
41216 On ch=4 n=67 v=98
41292 Off ch=4 n=55 v=0
41292 Off ch=4 n=67 v=0
41344 On ch=4 n=55 v=92
41344 On ch=4 n=67 v=92
41420 Off ch=4 n=55 v=0
41420 Off ch=4 n=67 v=0
41472 On ch=4 n=55 v=92
41472 On ch=4 n=67 v=92
41728 Off ch=4 n=55 v=0
41728 Off ch=4 n=67 v=0
41984 On ch=4 n=55 v=86
42240 Off ch=4 n=55 v=0
42240 On ch=4 n=55 v=95
42368 Off ch=4 n=55 v=0
42368 On ch=4 n=57 v=101
42496 Off ch=4 n=57 v=0
42496 On ch=4 n=59 v=99
42649 Off ch=4 n=59 v=0
42752 On ch=4 n=59 v=98
42897 Off ch=4 n=59 v=0
43008 On ch=4 n=54 v=91
43264 Off ch=4 n=54 v=0
43264 On ch=4 n=54 v=91
43392 Off ch=4 n=54 v=0
43392 On ch=4 n=56 v=98
43520 Off ch=4 n=56 v=0
43520 On ch=4 n=57 v=99
43673 Off ch=4 n=57 v=0
43776 On ch=4 n=57 v=97
43921 Off ch=4 n=57 v=0
44032 On ch=4 n=52 v=115
44032 On ch=4 n=64 v=115
44288 Off ch=4 n=52 v=0
44288 Off ch=4 n=64 v=0
44288 On ch=4 n=52 v=97
44288 On ch=4 n=64 v=97
44364 Off ch=4 n=52 v=0
44364 Off ch=4 n=64 v=0
44416 On ch=4 n=52 v=99
44416 On ch=4 n=64 v=99
44492 Off ch=4 n=52 v=0
44492 Off ch=4 n=64 v=0
44544 On ch=4 n=52 v=95
44544 On ch=4 n=64 v=95
44697 Off ch=4 n=52 v=0
44697 Off ch=4 n=64 v=0
44800 On ch=4 n=52 v=97
44800 On ch=4 n=64 v=97
44945 Off ch=4 n=52 v=0
44945 Off ch=4 n=64 v=0
45056 On ch=4 n=52 v=92
45056 On ch=4 n=64 v=92
45312 Off ch=4 n=52 v=0
45312 Off ch=4 n=64 v=0
45312 On ch=4 n=54 v=84
45440 Off ch=4 n=54 v=0
45440 On ch=4 n=56 v=100
45568 Off ch=4 n=56 v=0
45568 On ch=4 n=57 v=97
45824 Off ch=4 n=57 v=0
46080 On ch=4 n=55 v=78
46336 Off ch=4 n=55 v=0
46336 On ch=4 n=55 v=83
46412 Off ch=4 n=55 v=0
46464 On ch=4 n=57 v=90
46540 Off ch=4 n=57 v=0
46592 On ch=4 n=59 v=87
46745 Off ch=4 n=59 v=0
46848 On ch=4 n=59 v=81
46993 Off ch=4 n=59 v=0
47104 On ch=4 n=54 v=72
47360 Off ch=4 n=54 v=0
47360 On ch=4 n=54 v=71
47436 Off ch=4 n=54 v=0
47488 On ch=4 n=56 v=73
47564 Off ch=4 n=56 v=0
47616 On ch=4 n=57 v=73
47769 Off ch=4 n=57 v=0
47872 On ch=4 n=57 v=65
48017 Off ch=4 n=57 v=0
48128 On ch=4 n=52 v=68
48128 On ch=4 n=64 v=68
48384 Off ch=4 n=52 v=0
48384 Off ch=4 n=64 v=0
48384 On ch=4 n=52 v=61
48384 On ch=4 n=64 v=61
48460 Off ch=4 n=52 v=0
48460 Off ch=4 n=64 v=0
48512 On ch=4 n=52 v=56
48512 On ch=4 n=64 v=56
48588 Off ch=4 n=52 v=0
48588 Off ch=4 n=64 v=0
48640 On ch=4 n=52 v=53
48640 On ch=4 n=64 v=53
48793 Off ch=4 n=52 v=0
48793 Off ch=4 n=64 v=0
48896 On ch=4 n=52 v=55
48896 On ch=4 n=64 v=55
49041 Off ch=4 n=52 v=0
49041 Off ch=4 n=64 v=0
49152 On ch=4 n=52 v=47
49408 Off ch=4 n=52 v=0
49408 On ch=4 n=54 v=50
49484 Off ch=4 n=54 v=0
49536 On ch=4 n=56 v=52
49612 Off ch=4 n=56 v=0
49664 On ch=4 n=57 v=44
49920 Off ch=4 n=57 v=0
50176 On ch=4 n=59 v=40
50176 On ch=4 n=62 v=40
50432 Off ch=4 n=59 v=0
50432 Off ch=4 n=62 v=0
50432 On ch=4 n=59 v=49
50432 On ch=4 n=62 v=49
50508 Off ch=4 n=59 v=0
50508 Off ch=4 n=62 v=0
50560 On ch=4 n=59 v=50
50560 On ch=4 n=62 v=50
50636 Off ch=4 n=59 v=0
50636 Off ch=4 n=62 v=0
50688 On ch=4 n=57 v=43
50688 On ch=4 n=60 v=43
50944 Off ch=4 n=57 v=0
50944 Off ch=4 n=60 v=0
51456 On ch=4 n=64 v=58
51968 Off ch=4 n=64 v=0
51968 On ch=4 n=61 v=63
52224 On ch=4 n=57 v=57
52229 Off ch=4 n=61 v=0
52480 On ch=4 n=61 v=71
52485 Off ch=4 n=57 v=0
52723 Off ch=4 n=61 v=0
52736 On ch=4 n=61 v=65
52992 On ch=4 n=50 v=60
52992 On ch=4 n=59 v=60
52997 Off ch=4 n=61 v=0
53504 On ch=4 n=49 v=67
53504 On ch=4 n=57 v=67
53514 Off ch=4 n=50 v=0
53514 Off ch=4 n=59 v=0
53760 On ch=4 n=47 v=68
53760 On ch=4 n=56 v=68
53765 Off ch=4 n=49 v=0
53765 Off ch=4 n=57 v=0
54016 On ch=4 n=49 v=72
54016 On ch=4 n=57 v=72
54021 Off ch=4 n=47 v=0
54021 Off ch=4 n=56 v=0
54272 On ch=4 n=50 v=78
54272 On ch=4 n=59 v=78
54277 Off ch=4 n=49 v=0
54277 Off ch=4 n=57 v=0
54528 On ch=4 n=52 v=84
54528 On ch=4 n=61 v=84
54533 Off ch=4 n=50 v=0
54533 Off ch=4 n=59 v=0
54784 On ch=4 n=54 v=88
54784 On ch=4 n=62 v=88
54789 Off ch=4 n=52 v=0
54789 Off ch=4 n=61 v=0
55040 On ch=4 n=56 v=81
55040 On ch=4 n=64 v=81
55045 Off ch=4 n=54 v=0
55045 Off ch=4 n=62 v=0
55296 On ch=4 n=59 v=60
55296 On ch=4 n=62 v=60
55301 Off ch=4 n=56 v=0
55301 Off ch=4 n=64 v=0
55552 On ch=4 n=57 v=53
55552 On ch=4 n=61 v=53
55557 Off ch=4 n=59 v=0
55557 Off ch=4 n=62 v=0
55680 Off ch=4 n=61 v=0
55680 On ch=4 n=61 v=56
55680 On ch=4 n=64 v=56
55682 Off ch=4 n=57 v=0
55801 Off ch=4 n=61 v=0
55801 Off ch=4 n=64 v=0
55808 On ch=4 n=61 v=51
55808 On ch=4 n=64 v=51
56320 Off ch=4 n=61 v=0
56320 On ch=4 n=57 v=59
56320 On ch=4 n=61 v=59
56330 Off ch=4 n=64 v=0
56576 Off ch=4 n=61 v=0
56576 On ch=4 n=61 v=71
56576 On ch=4 n=64 v=71
56581 Off ch=4 n=57 v=0
56819 Off ch=4 n=61 v=0
56819 Off ch=4 n=64 v=0
56832 On ch=4 n=61 v=70
56832 On ch=4 n=64 v=70
57088 On ch=4 n=62 v=78
57088 On ch=4 n=66 v=78
57093 Off ch=4 n=61 v=0
57093 Off ch=4 n=64 v=0
57600 On ch=4 n=61 v=55
57600 On ch=4 n=64 v=55
57610 Off ch=4 n=62 v=0
57610 Off ch=4 n=66 v=0
57843 Off ch=4 n=61 v=0
57843 Off ch=4 n=64 v=0
57856 On ch=4 n=59 v=58
57856 On ch=4 n=62 v=58
58112 On ch=4 n=57 v=56
58112 On ch=4 n=61 v=56
58117 Off ch=4 n=59 v=0
58117 Off ch=4 n=62 v=0
58368 On ch=4 n=56 v=56
58368 On ch=4 n=59 v=56
58373 Off ch=4 n=57 v=0
58373 Off ch=4 n=61 v=0
58624 On ch=4 n=54 v=59
58624 On ch=4 n=63 v=59
58629 Off ch=4 n=56 v=0
58629 Off ch=4 n=59 v=0
58880 On ch=4 n=56 v=53
58880 On ch=4 n=64 v=53
58885 Off ch=4 n=54 v=0
58885 Off ch=4 n=63 v=0
59136 Off ch=4 n=56 v=0
59136 On ch=4 n=52 v=45
59136 On ch=4 n=56 v=45
59141 Off ch=4 n=64 v=0
59379 Off ch=4 n=52 v=0
59379 Off ch=4 n=56 v=0
59392 On ch=4 n=54 v=46
59392 On ch=4 n=57 v=46
59904 On ch=4 n=52 v=46
59904 On ch=4 n=56 v=46
59914 Off ch=4 n=54 v=0
59914 Off ch=4 n=57 v=0
60416 On ch=4 n=54 v=52
60416 On ch=4 n=57 v=52
60426 Off ch=4 n=52 v=0
60426 Off ch=4 n=56 v=0
60928 On ch=4 n=52 v=48
60928 On ch=4 n=56 v=48
60938 Off ch=4 n=54 v=0
60938 Off ch=4 n=57 v=0
61440 On ch=4 n=54 v=48
61440 On ch=4 n=57 v=48
61450 Off ch=4 n=52 v=0
61450 Off ch=4 n=56 v=0
61926 Off ch=4 n=54 v=0
61926 Off ch=4 n=57 v=0
61952 On ch=4 n=56 v=50
61952 On ch=4 n=52 v=41
62208 On ch=4 n=59 v=49
62218 Off ch=4 n=56 v=0
62218 Off ch=4 n=52 v=0
62438 Off ch=4 n=59 v=0
62464 On ch=4 n=58 v=52
62976 On ch=4 n=59 v=59
62986 Off ch=4 n=58 v=0
63462 Off ch=4 n=59 v=0
63488 On ch=4 n=58 v=77
64000 On ch=4 n=59 v=90
64010 Off ch=4 n=58 v=0
64486 Off ch=4 n=59 v=0
64512 On ch=4 n=58 v=70
64768 Off ch=4 n=58 v=0
64768 On ch=4 n=64 v=114
64768 On ch=4 n=49 v=73
65024 On ch=4 n=50 v=75
65029 Off ch=4 n=49 v=0
65091 Off ch=4 n=64 v=0
65109 On ch=4 n=62 v=92
65194 Off ch=4 n=62 v=0
65194 On ch=4 n=61 v=93
65280 Off ch=4 n=61 v=0
65280 On ch=4 n=64 v=104
65365 Off ch=4 n=64 v=0
65365 On ch=4 n=62 v=90
65450 Off ch=4 n=62 v=0
65450 On ch=4 n=54 v=79
65510 Off ch=4 n=50 v=0
65536 Off ch=4 n=54 v=0
65536 On ch=4 n=57 v=69
65536 On ch=4 n=49 v=57
65792 On ch=4 n=59 v=72
65792 On ch=4 n=50 v=57
65797 Off ch=4 n=57 v=0
65797 Off ch=4 n=49 v=0
66048 On ch=4 n=61 v=70
66048 On ch=4 n=57 v=78
66053 Off ch=4 n=59 v=0
66053 Off ch=4 n=50 v=0
66304 On ch=4 n=62 v=70
66304 On ch=4 n=59 v=71
66309 Off ch=4 n=61 v=0
66309 Off ch=4 n=57 v=0
66389 On ch=4 n=63 v=72
66389 On ch=4 n=60 v=73
66390 Off ch=4 n=62 v=0
66390 Off ch=4 n=59 v=0
66474 On ch=4 n=64 v=68
66474 On ch=4 n=61 v=72
66475 Off ch=4 n=63 v=0
66475 Off ch=4 n=60 v=0
66555 Off ch=4 n=64 v=0
66555 Off ch=4 n=61 v=0
66560 On ch=4 n=58 v=66
67072 On ch=4 n=59 v=73
67082 Off ch=4 n=58 v=0
67558 Off ch=4 n=59 v=0
67584 On ch=4 n=58 v=69
68096 On ch=4 n=59 v=76
68106 Off ch=4 n=58 v=0
68582 Off ch=4 n=59 v=0
68608 On ch=4 n=58 v=73
68608 On ch=4 n=59 v=69
68864 Off ch=4 n=58 v=0
68864 On ch=4 n=58 v=79
68864 On ch=4 n=64 v=79
68869 Off ch=4 n=59 v=0
69120 On ch=4 n=57 v=67
69120 On ch=4 n=65 v=67
69125 Off ch=4 n=58 v=0
69125 Off ch=4 n=64 v=0
69376 Off ch=4 n=57 v=0
69376 On ch=4 n=53 v=49
69376 On ch=4 n=57 v=49
69381 Off ch=4 n=65 v=0
69632 On ch=4 n=52 v=50
69632 On ch=4 n=55 v=50
69637 Off ch=4 n=53 v=0
69637 Off ch=4 n=57 v=0
69888 On ch=4 n=53 v=65
69888 On ch=4 n=59 v=65
69893 Off ch=4 n=52 v=0
69893 Off ch=4 n=55 v=0
70144 On ch=4 n=52 v=63
70144 On ch=4 n=60 v=63
70149 Off ch=4 n=53 v=0
70149 Off ch=4 n=59 v=0
70387 Off ch=4 n=52 v=0
70387 Off ch=4 n=60 v=0
71680 On ch=4 n=65 v=74
72064 Off ch=4 n=65 v=0
72064 On ch=4 n=65 v=76
72192 Off ch=4 n=65 v=0
72192 On ch=4 n=65 v=83
72277 On ch=4 n=64 v=81
72278 Off ch=4 n=65 v=0
72357 Off ch=4 n=64 v=0
72362 On ch=4 n=62 v=77
72413 Off ch=4 n=62 v=0
72448 On ch=4 n=60 v=73
72499 Off ch=4 n=60 v=0
72533 On ch=4 n=59 v=77
72584 Off ch=4 n=59 v=0
72618 On ch=4 n=57 v=79
72669 Off ch=4 n=57 v=0
72704 On ch=4 n=55 v=88
72960 On ch=4 n=59 v=90
72965 Off ch=4 n=55 v=0
73081 Off ch=4 n=59 v=0
73088 On ch=4 n=62 v=95
73216 Off ch=4 n=62 v=0
73216 On ch=4 n=65 v=107
73267 Off ch=4 n=65 v=0
73301 On ch=4 n=64 v=93
73352 Off ch=4 n=64 v=0
73386 On ch=4 n=62 v=91
73437 Off ch=4 n=62 v=0
73472 On ch=4 n=60 v=101
73523 Off ch=4 n=60 v=0
73557 On ch=4 n=59 v=92
73608 Off ch=4 n=59 v=0
73642 On ch=4 n=57 v=96
73693 Off ch=4 n=57 v=0
73728 On ch=4 n=55 v=92
73856 Off ch=4 n=55 v=0
76032 On ch=4 n=64 v=100
76108 Off ch=4 n=64 v=0
76160 On ch=4 n=64 v=113
76236 Off ch=4 n=64 v=0
76288 On ch=4 n=60 v=43
76800 On ch=4 n=59 v=39
76810 Off ch=4 n=60 v=0
77277 Off ch=4 n=59 v=0
77312 On ch=4 n=59 v=48
77367 Off ch=4 n=59 v=0
77367 On ch=4 n=60 v=48
77422 On ch=4 n=62 v=48
77422 Off ch=4 n=60 v=0
77653 On ch=4 n=60 v=46
77738 Off ch=4 n=60 v=0
77738 On ch=4 n=59 v=43
77745 Off ch=4 n=62 v=0
77824 Off ch=4 n=59 v=0
77824 On ch=4 n=59 v=49
77952 On ch=4 n=60 v=50
77954 Off ch=4 n=59 v=0
78073 Off ch=4 n=60 v=0
78080 On ch=4 n=60 v=51
78336 Off ch=4 n=60 v=0
78336 On ch=4 n=60 v=46
78720 On ch=4 n=62 v=43
78727 Off ch=4 n=60 v=0
78841 Off ch=4 n=62 v=0
78848 On ch=4 n=63 v=51
78976 On ch=4 n=64 v=50
78978 Off ch=4 n=63 v=0
79097 Off ch=4 n=64 v=0
79104 On ch=4 n=64 v=47
79180 Off ch=4 n=64 v=0
79232 On ch=4 n=64 v=49
79308 Off ch=4 n=64 v=0
79360 On ch=4 n=62 v=50
79415 Off ch=4 n=62 v=0
79415 On ch=4 n=64 v=50
79470 On ch=4 n=65 v=50
79470 Off ch=4 n=64 v=0
79701 On ch=4 n=64 v=44
79786 Off ch=4 n=64 v=0
79786 On ch=4 n=62 v=43
79793 Off ch=4 n=65 v=0
79872 Off ch=4 n=62 v=0
79872 On ch=4 n=62 v=50
80000 On ch=4 n=64 v=52
80002 Off ch=4 n=62 v=0
80121 Off ch=4 n=64 v=0
80128 On ch=4 n=64 v=46
80384 Off ch=4 n=64 v=0
80384 On ch=4 n=64 v=53
80768 On ch=4 n=66 v=57
80775 Off ch=4 n=64 v=0
80896 On ch=4 n=64 v=44
80898 Off ch=4 n=66 v=0
81152 On ch=4 n=63 v=41
81157 Off ch=4 n=64 v=0
81273 Off ch=4 n=63 v=0
81408 On ch=4 n=62 v=45
81792 On ch=4 n=64 v=49
81799 Off ch=4 n=62 v=0
81920 On ch=4 n=62 v=44
81922 Off ch=4 n=64 v=0
82048 On ch=4 n=61 v=41
82050 Off ch=4 n=62 v=0
82176 On ch=4 n=60 v=42
82178 Off ch=4 n=61 v=0
82297 Off ch=4 n=60 v=0
82432 On ch=4 n=60 v=45
82944 On ch=4 n=59 v=43
82954 Off ch=4 n=60 v=0
83200 On ch=4 n=60 v=54
83205 Off ch=4 n=59 v=0
83421 Off ch=4 n=60 v=0
83456 On ch=4 n=59 v=49
83511 Off ch=4 n=59 v=0
83511 On ch=4 n=60 v=49
83566 On ch=4 n=62 v=49
83566 Off ch=4 n=60 v=0
83797 On ch=4 n=60 v=43
83882 Off ch=4 n=60 v=0
83882 On ch=4 n=59 v=48
83889 Off ch=4 n=62 v=0
83968 Off ch=4 n=59 v=0
83968 On ch=4 n=57 v=45
84019 Off ch=4 n=57 v=0
84053 On ch=4 n=57 v=48
84138 On ch=4 n=59 v=52
84139 Off ch=4 n=57 v=0
84219 Off ch=4 n=59 v=0
84224 On ch=4 n=60 v=48
84275 Off ch=4 n=60 v=0
84309 On ch=4 n=60 v=47
84394 On ch=4 n=62 v=46
84395 Off ch=4 n=60 v=0
84480 On ch=4 n=64 v=51
84481 Off ch=4 n=62 v=0
84851 Off ch=4 n=64 v=0
84864 On ch=4 n=66 v=52
84992 On ch=4 n=64 v=47
84994 Off ch=4 n=66 v=0
85248 On ch=4 n=63 v=47
85253 Off ch=4 n=64 v=0
85369 Off ch=4 n=63 v=0
85504 On ch=4 n=62 v=42
85589 On ch=4 n=59 v=41
85590 Off ch=4 n=62 v=0
85674 On ch=4 n=61 v=46
85675 Off ch=4 n=59 v=0
85760 On ch=4 n=62 v=49
85761 Off ch=4 n=61 v=0
85845 On ch=4 n=64 v=52
85846 Off ch=4 n=62 v=0
85930 On ch=4 n=62 v=49
85931 Off ch=4 n=64 v=0
86011 Off ch=4 n=62 v=0
86016 On ch=4 n=62 v=49
86144 On ch=4 n=61 v=47
86146 Off ch=4 n=62 v=0
86272 On ch=4 n=60 v=45
86274 Off ch=4 n=61 v=0
86393 Off ch=4 n=60 v=0
86528 On ch=4 n=60 v=41
87040 On ch=4 n=59 v=37
87050 Off ch=4 n=60 v=0
87296 On ch=4 n=60 v=48
87301 Off ch=4 n=59 v=0
87517 Off ch=4 n=60 v=0
87552 On ch=4 n=59 v=54
87607 Off ch=4 n=59 v=0
87607 On ch=4 n=60 v=54
87662 On ch=4 n=62 v=54
87662 Off ch=4 n=60 v=0
87893 On ch=4 n=60 v=46
87978 Off ch=4 n=60 v=0
87978 On ch=4 n=59 v=48
87985 Off ch=4 n=62 v=0
88064 Off ch=4 n=59 v=0
88064 On ch=4 n=57 v=53
88320 Off ch=4 n=57 v=0
88576 On ch=4 n=57 v=42
88917 Off ch=4 n=57 v=0
88917 On ch=4 n=59 v=49
89002 On ch=4 n=61 v=55
89003 Off ch=4 n=59 v=0
89083 Off ch=4 n=61 v=0
89088 On ch=4 n=61 v=52
89216 On ch=4 n=62 v=56
89218 Off ch=4 n=61 v=0
89337 Off ch=4 n=62 v=0
89344 On ch=4 n=62 v=46
89600 Off ch=4 n=62 v=0
89600 On ch=4 n=62 v=52
89941 Off ch=4 n=62 v=0
89941 On ch=4 n=64 v=51
90026 On ch=4 n=65 v=51
90027 Off ch=4 n=64 v=0
90107 Off ch=4 n=65 v=0
90112 On ch=4 n=65 v=51
90240 On ch=4 n=64 v=51
90242 Off ch=4 n=65 v=0
90361 Off ch=4 n=64 v=0
90368 On ch=4 n=64 v=48
90624 Off ch=4 n=64 v=0
90624 On ch=4 n=57 v=53
90709 Off ch=4 n=57 v=0
90709 On ch=4 n=57 v=48
90794 Off ch=4 n=57 v=0
90794 On ch=4 n=57 v=56
90880 Off ch=4 n=57 v=0
90880 On ch=4 n=57 v=57
90965 On ch=4 n=59 v=59
90966 Off ch=4 n=57 v=0
91050 On ch=4 n=61 v=64
91051 Off ch=4 n=59 v=0
91131 Off ch=4 n=61 v=0
91136 On ch=4 n=61 v=63
91221 On ch=4 n=62 v=65
91222 Off ch=4 n=61 v=0
91301 Off ch=4 n=62 v=0
91306 On ch=4 n=62 v=58
91357 Off ch=4 n=62 v=0
91392 On ch=4 n=62 v=71
91648 Off ch=4 n=62 v=0
91648 On ch=4 n=62 v=67
91733 Off ch=4 n=62 v=0
91733 On ch=4 n=62 v=72
91818 Off ch=4 n=62 v=0
91818 On ch=4 n=62 v=73
91904 Off ch=4 n=62 v=0
91904 On ch=4 n=62 v=85
91989 On ch=4 n=64 v=81
91990 Off ch=4 n=62 v=0
92074 On ch=4 n=65 v=86
92075 Off ch=4 n=64 v=0
92155 Off ch=4 n=65 v=0
92160 On ch=4 n=65 v=70
92245 On ch=4 n=64 v=66
92246 Off ch=4 n=65 v=0
92325 Off ch=4 n=64 v=0
92330 On ch=4 n=64 v=74
92381 Off ch=4 n=64 v=0
92672 On ch=4 n=64 v=63
92757 On ch=4 n=65 v=68
92758 Off ch=4 n=64 v=0
92837 Off ch=4 n=65 v=0
92842 On ch=4 n=65 v=65
92893 Off ch=4 n=65 v=0
93184 On ch=4 n=65 v=48
93269 On ch=4 n=64 v=46
93270 Off ch=4 n=65 v=0
93349 Off ch=4 n=64 v=0
93354 On ch=4 n=64 v=47
93440 Off ch=4 n=64 v=0
106496 On ch=4 n=62 v=38
106752 Off ch=4 n=62 v=0
106752 On ch=4 n=62 v=34
106828 Off ch=4 n=62 v=0
106880 On ch=4 n=64 v=39
106956 Off ch=4 n=64 v=0
107008 On ch=4 n=65 v=38
108672 Off ch=4 n=65 v=0
108672 On ch=4 n=64 v=96
108736 On ch=4 n=63 v=97
108737 Off ch=4 n=64 v=0
108800 On ch=4 n=64 v=111
108801 Off ch=4 n=63 v=0
108860 Off ch=4 n=64 v=0
108864 On ch=4 n=52 v=91
108902 Off ch=4 n=52 v=0
108928 On ch=4 n=54 v=110
108966 Off ch=4 n=54 v=0
108992 On ch=4 n=56 v=115
109030 Off ch=4 n=56 v=0
109056 On ch=4 n=57 v=114
109094 Off ch=4 n=57 v=0
109120 On ch=4 n=59 v=99
109158 Off ch=4 n=59 v=0
109184 On ch=4 n=60 v=104
109222 Off ch=4 n=60 v=0
109248 On ch=4 n=59 v=91
109286 Off ch=4 n=59 v=0
109312 On ch=4 n=57 v=94
109350 Off ch=4 n=57 v=0
109376 On ch=4 n=60 v=108
109414 Off ch=4 n=60 v=0
109440 On ch=4 n=59 v=95
109478 Off ch=4 n=59 v=0
109504 On ch=4 n=57 v=92
109542 Off ch=4 n=57 v=0
109568 On ch=4 n=52 v=91
109606 Off ch=4 n=52 v=0
109632 On ch=4 n=54 v=99
109670 Off ch=4 n=54 v=0
109696 On ch=4 n=56 v=98
109734 Off ch=4 n=56 v=0
109760 On ch=4 n=57 v=97
109798 Off ch=4 n=57 v=0
109824 On ch=4 n=59 v=100
109862 Off ch=4 n=59 v=0
109888 On ch=4 n=60 v=100
109926 Off ch=4 n=60 v=0
109952 On ch=4 n=62 v=107
109990 Off ch=4 n=62 v=0
110016 On ch=4 n=64 v=101
110054 Off ch=4 n=64 v=0
110080 On ch=4 n=62 v=91
110118 Off ch=4 n=62 v=0
110144 On ch=4 n=59 v=91
110182 Off ch=4 n=59 v=0
110208 On ch=4 n=60 v=102
110246 Off ch=4 n=60 v=0
110272 On ch=4 n=62 v=106
110310 Off ch=4 n=62 v=0
110336 On ch=4 n=64 v=99
110374 Off ch=4 n=64 v=0
110400 On ch=4 n=62 v=90
110438 Off ch=4 n=62 v=0
110464 On ch=4 n=60 v=92
110502 Off ch=4 n=60 v=0
110528 On ch=4 n=59 v=90
110566 Off ch=4 n=59 v=0
110592 On ch=4 n=60 v=105
110630 Off ch=4 n=60 v=0
110656 On ch=4 n=59 v=96
110694 Off ch=4 n=59 v=0
110720 On ch=4 n=60 v=103
110758 Off ch=4 n=60 v=0
110784 On ch=4 n=62 v=102
110822 Off ch=4 n=62 v=0
110848 On ch=4 n=64 v=102
110886 Off ch=4 n=64 v=0
110912 On ch=4 n=52 v=85
110950 Off ch=4 n=52 v=0
110976 On ch=4 n=54 v=99
111014 Off ch=4 n=54 v=0
111040 On ch=4 n=56 v=103
111078 Off ch=4 n=56 v=0
111104 On ch=4 n=57 v=97
111142 Off ch=4 n=57 v=0
111168 On ch=4 n=59 v=99
111206 Off ch=4 n=59 v=0
111232 On ch=4 n=60 v=102
111270 Off ch=4 n=60 v=0
111296 On ch=4 n=59 v=98
111334 Off ch=4 n=59 v=0
111360 On ch=4 n=57 v=93
111398 Off ch=4 n=57 v=0
111424 On ch=4 n=60 v=104
111462 Off ch=4 n=60 v=0
111488 On ch=4 n=59 v=96
111526 Off ch=4 n=59 v=0
111552 On ch=4 n=57 v=93
111590 Off ch=4 n=57 v=0
111616 On ch=4 n=52 v=92
111654 Off ch=4 n=52 v=0
111680 On ch=4 n=54 v=96
111718 Off ch=4 n=54 v=0
111744 On ch=4 n=56 v=103
111782 Off ch=4 n=56 v=0
111808 On ch=4 n=57 v=101
111846 Off ch=4 n=57 v=0
111872 On ch=4 n=59 v=102
111910 Off ch=4 n=59 v=0
111936 On ch=4 n=60 v=102
111974 Off ch=4 n=60 v=0
112000 On ch=4 n=62 v=104
112038 Off ch=4 n=62 v=0
112064 On ch=4 n=64 v=106
112102 Off ch=4 n=64 v=0
112128 On ch=4 n=62 v=97
112166 Off ch=4 n=62 v=0
112192 On ch=4 n=59 v=94
112230 Off ch=4 n=59 v=0
112256 On ch=4 n=60 v=101
112294 Off ch=4 n=60 v=0
112320 On ch=4 n=62 v=101
112358 Off ch=4 n=62 v=0
112384 On ch=4 n=64 v=104
112422 Off ch=4 n=64 v=0
112448 On ch=4 n=62 v=92
112486 Off ch=4 n=62 v=0
112512 On ch=4 n=60 v=87
112550 Off ch=4 n=60 v=0
112576 On ch=4 n=59 v=90
112614 Off ch=4 n=59 v=0
112640 On ch=4 n=57 v=94
112896 Off ch=4 n=57 v=0
113152 On ch=4 n=59 v=41
113152 On ch=4 n=62 v=41
113408 Off ch=4 n=59 v=0
113408 Off ch=4 n=62 v=0
113408 On ch=4 n=59 v=49
113408 On ch=4 n=62 v=49
113484 Off ch=4 n=59 v=0
113484 Off ch=4 n=62 v=0
113536 On ch=4 n=59 v=51
113536 On ch=4 n=62 v=51
113612 Off ch=4 n=59 v=0
113612 Off ch=4 n=62 v=0
113664 On ch=4 n=57 v=48
113664 On ch=4 n=60 v=48
113792 Off ch=4 n=57 v=0
113792 Off ch=4 n=60 v=0
114432 On ch=4 n=64 v=43
114944 Off ch=4 n=64 v=0
114944 On ch=4 n=61 v=49
115200 On ch=4 n=57 v=43
115205 Off ch=4 n=61 v=0
115456 On ch=4 n=61 v=59
115461 Off ch=4 n=57 v=0
115699 Off ch=4 n=61 v=0
115712 On ch=4 n=61 v=49
115968 On ch=4 n=50 v=55
115968 On ch=4 n=59 v=55
115973 Off ch=4 n=61 v=0
116480 On ch=4 n=49 v=57
116480 On ch=4 n=57 v=57
116490 Off ch=4 n=50 v=0
116490 Off ch=4 n=59 v=0
116736 On ch=4 n=47 v=63
116736 On ch=4 n=56 v=63
116741 Off ch=4 n=49 v=0
116741 Off ch=4 n=57 v=0
116992 On ch=4 n=49 v=69
116992 On ch=4 n=57 v=69
116997 Off ch=4 n=47 v=0
116997 Off ch=4 n=56 v=0
117248 On ch=4 n=50 v=71
117248 On ch=4 n=59 v=71
117253 Off ch=4 n=49 v=0
117253 Off ch=4 n=57 v=0
117504 On ch=4 n=52 v=82
117504 On ch=4 n=61 v=82
117509 Off ch=4 n=50 v=0
117509 Off ch=4 n=59 v=0
117760 On ch=4 n=54 v=67
117760 On ch=4 n=62 v=67
117765 Off ch=4 n=52 v=0
117765 Off ch=4 n=61 v=0
118016 On ch=4 n=56 v=71
118016 On ch=4 n=64 v=71
118021 Off ch=4 n=54 v=0
118021 Off ch=4 n=62 v=0
118272 On ch=4 n=59 v=61
118272 On ch=4 n=62 v=61
118277 Off ch=4 n=56 v=0
118277 Off ch=4 n=64 v=0
118528 On ch=4 n=57 v=57
118528 On ch=4 n=61 v=57
118533 Off ch=4 n=59 v=0
118533 Off ch=4 n=62 v=0
118656 Off ch=4 n=61 v=0
118656 On ch=4 n=61 v=69
118656 On ch=4 n=64 v=69
118658 Off ch=4 n=57 v=0
118777 Off ch=4 n=61 v=0
118777 Off ch=4 n=64 v=0
118784 On ch=4 n=61 v=46
118784 On ch=4 n=64 v=46
119296 Off ch=4 n=61 v=0
119296 On ch=4 n=57 v=60
119296 On ch=4 n=61 v=60
119306 Off ch=4 n=64 v=0
119552 Off ch=4 n=61 v=0
119552 On ch=4 n=61 v=73
119552 On ch=4 n=64 v=73
119557 Off ch=4 n=57 v=0
119795 Off ch=4 n=61 v=0
119795 Off ch=4 n=64 v=0
119808 On ch=4 n=61 v=77
119808 On ch=4 n=64 v=77
120064 On ch=4 n=62 v=87
120064 On ch=4 n=66 v=87
120069 Off ch=4 n=61 v=0
120069 Off ch=4 n=64 v=0
120576 On ch=4 n=61 v=89
120576 On ch=4 n=64 v=89
120586 Off ch=4 n=62 v=0
120586 Off ch=4 n=66 v=0
120832 On ch=4 n=54 v=101
120832 On ch=4 n=62 v=101
120837 Off ch=4 n=61 v=0
120837 Off ch=4 n=64 v=0
121088 On ch=4 n=52 v=96
121088 On ch=4 n=61 v=96
121093 Off ch=4 n=54 v=0
121093 Off ch=4 n=62 v=0
121344 On ch=4 n=54 v=92
121344 On ch=4 n=62 v=92
121349 Off ch=4 n=52 v=0
121349 Off ch=4 n=61 v=0
121600 On ch=4 n=56 v=83
121600 On ch=4 n=64 v=83
121605 Off ch=4 n=54 v=0
121605 Off ch=4 n=62 v=0
121856 On ch=4 n=57 v=67
121856 On ch=4 n=61 v=67
121861 Off ch=4 n=56 v=0
121861 Off ch=4 n=64 v=0
122342 Off ch=4 n=57 v=0
122342 Off ch=4 n=61 v=0
122368 On ch=4 n=54 v=54
122368 On ch=4 n=62 v=54
122624 On ch=4 n=56 v=57
122624 On ch=4 n=64 v=57
122629 Off ch=4 n=54 v=0
122629 Off ch=4 n=62 v=0
122880 On ch=4 n=57 v=53
122880 On ch=4 n=61 v=53
122885 Off ch=4 n=56 v=0
122885 Off ch=4 n=64 v=0
123366 Off ch=4 n=57 v=0
123366 Off ch=4 n=61 v=0
123392 On ch=4 n=54 v=54
123392 On ch=4 n=62 v=54
123648 On ch=4 n=56 v=59
123648 On ch=4 n=64 v=59
123653 Off ch=4 n=54 v=0
123653 Off ch=4 n=62 v=0
123891 Off ch=4 n=56 v=0
123891 Off ch=4 n=64 v=0
123904 On ch=4 n=45 v=34
123904 On ch=4 n=57 v=34
124160 Off ch=4 n=45 v=0
124160 Off ch=4 n=57 v=0
124160 On ch=4 n=45 v=34
124160 On ch=4 n=57 v=34
124236 Off ch=4 n=45 v=0
124236 Off ch=4 n=57 v=0
124288 On ch=4 n=45 v=39
124288 On ch=4 n=57 v=39
124360 Off ch=4 n=45 v=0
124360 Off ch=4 n=57 v=0
124416 On ch=4 n=45 v=34
124416 On ch=4 n=57 v=34
124569 Off ch=4 n=45 v=0
124569 Off ch=4 n=57 v=0
124672 On ch=4 n=45 v=38
124672 On ch=4 n=57 v=38
124817 Off ch=4 n=45 v=0
124817 Off ch=4 n=57 v=0
124928 On ch=4 n=45 v=35
124928 On ch=4 n=57 v=35
125184 Off ch=4 n=45 v=0
125184 Off ch=4 n=57 v=0
125184 On ch=4 n=45 v=36
125184 On ch=4 n=57 v=36
125260 Off ch=4 n=45 v=0
125260 Off ch=4 n=57 v=0
125312 On ch=4 n=45 v=33
125312 On ch=4 n=57 v=33
125384 Off ch=4 n=45 v=0
125384 Off ch=4 n=57 v=0
125440 On ch=4 n=45 v=38
125440 On ch=4 n=57 v=38
125593 Off ch=4 n=45 v=0
125593 Off ch=4 n=57 v=0
125696 On ch=4 n=45 v=34
125696 On ch=4 n=57 v=34
125841 Off ch=4 n=45 v=0
125841 Off ch=4 n=57 v=0
125952 On ch=4 n=59 v=127
125952 On ch=4 n=62 v=127
126208 Off ch=4 n=59 v=0
126208 Off ch=4 n=62 v=0
126208 On ch=4 n=57 v=107
126208 On ch=4 n=60 v=107
126284 Off ch=4 n=57 v=0
126284 Off ch=4 n=60 v=0
126336 On ch=4 n=59 v=122
126336 On ch=4 n=62 v=122
126412 Off ch=4 n=59 v=0
126412 Off ch=4 n=62 v=0
126464 On ch=4 n=60 v=121
126464 On ch=4 n=64 v=121
126592 Off ch=4 n=60 v=0
126592 Off ch=4 n=64 v=0
128000 On ch=4 n=59 v=97
128000 On ch=4 n=62 v=97
128256 Off ch=4 n=59 v=0
128256 Off ch=4 n=62 v=0
128256 On ch=4 n=57 v=102
128256 On ch=4 n=60 v=102
128332 Off ch=4 n=57 v=0
128332 Off ch=4 n=60 v=0
128384 On ch=4 n=59 v=118
128384 On ch=4 n=62 v=118
128460 Off ch=4 n=59 v=0
128460 Off ch=4 n=62 v=0
128512 On ch=4 n=60 v=115
128512 On ch=4 n=64 v=115
128640 Off ch=4 n=60 v=0
128640 Off ch=4 n=64 v=0
132096 On ch=4 n=57 v=26
132096 On ch=4 n=60 v=26
132352 Off ch=4 n=57 v=0
132352 Off ch=4 n=60 v=0
132352 On ch=4 n=57 v=30
132352 On ch=4 n=60 v=30
132428 Off ch=4 n=57 v=0
132428 Off ch=4 n=60 v=0
132480 On ch=4 n=57 v=33
132480 On ch=4 n=60 v=33
132552 Off ch=4 n=57 v=0
132552 Off ch=4 n=60 v=0
132608 On ch=4 n=55 v=34
132608 On ch=4 n=60 v=34
132761 Off ch=4 n=55 v=0
132761 Off ch=4 n=60 v=0
132864 On ch=4 n=55 v=36
132864 On ch=4 n=60 v=36
133009 Off ch=4 n=55 v=0
133009 Off ch=4 n=60 v=0
136192 On ch=4 n=57 v=35
136192 On ch=4 n=60 v=35
136448 Off ch=4 n=57 v=0
136448 Off ch=4 n=60 v=0
136448 On ch=4 n=57 v=34
136448 On ch=4 n=60 v=34
136524 Off ch=4 n=57 v=0
136524 Off ch=4 n=60 v=0
136576 On ch=4 n=57 v=34
136576 On ch=4 n=60 v=34
136648 Off ch=4 n=57 v=0
136648 Off ch=4 n=60 v=0
136704 On ch=4 n=56 v=39
136704 On ch=4 n=62 v=39
136860 Off ch=4 n=56 v=0
136860 Off ch=4 n=62 v=0
136960 On ch=4 n=57 v=30
136960 On ch=4 n=60 v=30
137105 Off ch=4 n=57 v=0
137105 Off ch=4 n=60 v=0
138240 On ch=4 n=59 v=37
138240 On ch=4 n=62 v=37
138496 Off ch=4 n=59 v=0
138496 Off ch=4 n=62 v=0
138496 On ch=4 n=59 v=37
138496 On ch=4 n=62 v=37
138572 Off ch=4 n=59 v=0
138572 Off ch=4 n=62 v=0
138624 On ch=4 n=59 v=39
138624 On ch=4 n=62 v=39
138700 Off ch=4 n=59 v=0
138700 Off ch=4 n=62 v=0
138752 On ch=4 n=57 v=34
138752 On ch=4 n=60 v=34
139008 Off ch=4 n=57 v=0
139008 Off ch=4 n=60 v=0
140800 Par ch=4 c=7 v=95
140800 On ch=4 n=57 v=89
140800 On ch=4 n=60 v=89
140928 Par ch=4 c=7 v=85
141130 Par ch=4 c=7 v=75
141311 Par ch=4 c=7 v=60
141616 Par ch=4 c=7 v=45
141824 Par ch=4 c=7 v=25
141952 Off ch=4 n=57 v=0
141952 Off ch=4 n=60 v=0
141952 Par ch=4 c=7 v=65
0 Par ch=5 c=7 v=95
0 On ch=5 n=52 v=85
0 On ch=5 n=64 v=85
235 Par ch=5 c=7 v=85
342 Par ch=5 c=7 v=75
649 Par ch=5 c=7 v=65
796 Par ch=5 c=7 v=55
1023 Par ch=5 c=7 v=45
1024 Par ch=5 c=7 v=35
1280 Off ch=5 n=52 v=0
1280 Off ch=5 n=64 v=0
1536 Par ch=5 c=7 v=65
37120 On ch=5 n=52 v=79
37120 On ch=5 n=64 v=79
37376 Off ch=5 n=52 v=0
37376 Off ch=5 n=64 v=0
37632 On ch=5 n=69 v=82
37888 Off ch=5 n=69 v=0
37888 On ch=5 n=52 v=93
37888 On ch=5 n=64 v=93
38144 Off ch=5 n=52 v=0
38144 Off ch=5 n=64 v=0
38144 On ch=5 n=52 v=109
38144 On ch=5 n=64 v=109
38220 Off ch=5 n=52 v=0
38220 Off ch=5 n=64 v=0
38272 On ch=5 n=52 v=115
38272 On ch=5 n=64 v=115
38348 Off ch=5 n=52 v=0
38348 Off ch=5 n=64 v=0
38400 On ch=5 n=52 v=113
38400 On ch=5 n=64 v=113
38553 Off ch=5 n=52 v=0
38553 Off ch=5 n=64 v=0
38656 On ch=5 n=52 v=111
38656 On ch=5 n=64 v=111
38801 Off ch=5 n=52 v=0
38801 Off ch=5 n=64 v=0
38912 On ch=5 n=52 v=112
38912 On ch=5 n=64 v=112
39168 Off ch=5 n=52 v=0
39168 Off ch=5 n=64 v=0
39168 On ch=5 n=52 v=112
39168 On ch=5 n=64 v=112
39244 Off ch=5 n=52 v=0
39244 Off ch=5 n=64 v=0
39296 On ch=5 n=52 v=109
39296 On ch=5 n=64 v=109
39372 Off ch=5 n=52 v=0
39372 Off ch=5 n=64 v=0
39424 On ch=5 n=52 v=113
39424 On ch=5 n=64 v=113
39577 Off ch=5 n=52 v=0
39577 Off ch=5 n=64 v=0
39680 On ch=5 n=52 v=112
39680 On ch=5 n=64 v=112
39825 Off ch=5 n=52 v=0
39825 Off ch=5 n=64 v=0
39936 On ch=5 n=52 v=111
39936 On ch=5 n=64 v=111
40192 Off ch=5 n=52 v=0
40192 Off ch=5 n=64 v=0
40192 On ch=5 n=64 v=114
40268 Off ch=5 n=64 v=0
40320 On ch=5 n=66 v=119
40396 Off ch=5 n=66 v=0
40448 On ch=5 n=67 v=120
40601 Off ch=5 n=67 v=0
40704 On ch=5 n=67 v=115
40849 Off ch=5 n=67 v=0
40960 On ch=5 n=67 v=113
41216 Off ch=5 n=67 v=0
41216 On ch=5 n=67 v=108
41292 Off ch=5 n=67 v=0
41344 On ch=5 n=67 v=114
41420 Off ch=5 n=67 v=0
41472 On ch=5 n=67 v=111
41728 Off ch=5 n=67 v=0
41984 On ch=5 n=67 v=100
42240 Off ch=5 n=67 v=0
42240 On ch=5 n=67 v=115
42316 Off ch=5 n=67 v=0
42368 On ch=5 n=69 v=120
42444 Off ch=5 n=69 v=0
42496 On ch=5 n=71 v=120
42649 Off ch=5 n=71 v=0
42752 On ch=5 n=71 v=111
42897 Off ch=5 n=71 v=0
43008 On ch=5 n=66 v=98
43264 Off ch=5 n=66 v=0
43264 On ch=5 n=66 v=107
43340 Off ch=5 n=66 v=0
43392 On ch=5 n=68 v=121
43468 Off ch=5 n=68 v=0
43520 On ch=5 n=69 v=121
43673 Off ch=5 n=69 v=0
43776 On ch=5 n=69 v=117
43921 Off ch=5 n=69 v=0
44032 On ch=5 n=52 v=101
44032 On ch=5 n=64 v=101
44288 Off ch=5 n=52 v=0
44288 Off ch=5 n=64 v=0
44288 On ch=5 n=52 v=113
44288 On ch=5 n=64 v=113
44364 Off ch=5 n=52 v=0
44364 Off ch=5 n=64 v=0
44416 On ch=5 n=52 v=116
44416 On ch=5 n=64 v=116
44492 Off ch=5 n=52 v=0
44492 Off ch=5 n=64 v=0
44544 On ch=5 n=52 v=111
44544 On ch=5 n=64 v=111
44697 Off ch=5 n=52 v=0
44697 Off ch=5 n=64 v=0
44800 On ch=5 n=52 v=113
44800 On ch=5 n=64 v=113
44945 Off ch=5 n=52 v=0
44945 Off ch=5 n=64 v=0
45056 On ch=5 n=52 v=111
45056 On ch=5 n=64 v=111
45312 Off ch=5 n=52 v=0
45312 Off ch=5 n=64 v=0
45312 On ch=5 n=66 v=116
45440 Off ch=5 n=66 v=0
45440 On ch=5 n=68 v=119
45568 Off ch=5 n=68 v=0
45568 On ch=5 n=69 v=118
45824 Off ch=5 n=69 v=0
46080 On ch=5 n=67 v=60
46336 Off ch=5 n=67 v=0
46336 On ch=5 n=67 v=74
46412 Off ch=5 n=67 v=0
46464 On ch=5 n=69 v=78
46540 Off ch=5 n=69 v=0
46592 On ch=5 n=71 v=76
46745 Off ch=5 n=71 v=0
46848 On ch=5 n=71 v=76
46993 Off ch=5 n=71 v=0
47104 On ch=5 n=66 v=65
47360 Off ch=5 n=66 v=0
47360 On ch=5 n=66 v=75
47436 Off ch=5 n=66 v=0
47488 On ch=5 n=68 v=85
47564 Off ch=5 n=68 v=0
47616 On ch=5 n=69 v=85
47769 Off ch=5 n=69 v=0
47872 On ch=5 n=69 v=81
48017 Off ch=5 n=69 v=0
48128 On ch=5 n=52 v=63
48128 On ch=5 n=64 v=63
48384 Off ch=5 n=52 v=0
48384 Off ch=5 n=64 v=0
48384 On ch=5 n=52 v=71
48384 On ch=5 n=64 v=71
48460 Off ch=5 n=52 v=0
48460 Off ch=5 n=64 v=0
48512 On ch=5 n=52 v=70
48512 On ch=5 n=64 v=70
48588 Off ch=5 n=52 v=0
48588 Off ch=5 n=64 v=0
48640 On ch=5 n=52 v=75
48640 On ch=5 n=64 v=75
48793 Off ch=5 n=52 v=0
48793 Off ch=5 n=64 v=0
48896 On ch=5 n=52 v=72
48896 On ch=5 n=64 v=72
49041 Off ch=5 n=52 v=0
49041 Off ch=5 n=64 v=0
49152 On ch=5 n=52 v=71
49152 On ch=5 n=64 v=71
49408 Off ch=5 n=52 v=0
49408 Off ch=5 n=64 v=0
49408 On ch=5 n=66 v=73
49484 Off ch=5 n=66 v=0
49536 On ch=5 n=68 v=75
49612 Off ch=5 n=68 v=0
49664 On ch=5 n=69 v=50
49920 Off ch=5 n=69 v=0
50176 On ch=5 n=52 v=44
50176 On ch=5 n=64 v=44
50432 Off ch=5 n=52 v=0
50432 Off ch=5 n=64 v=0
50432 On ch=5 n=52 v=48
50432 On ch=5 n=64 v=48
50508 Off ch=5 n=52 v=0
50508 Off ch=5 n=64 v=0
50560 On ch=5 n=52 v=46
50560 On ch=5 n=64 v=46
50636 Off ch=5 n=52 v=0
50636 Off ch=5 n=64 v=0
50688 On ch=5 n=64 v=47
50944 Off ch=5 n=64 v=0
58368 On ch=5 n=59 v=44
58368 On ch=5 n=71 v=44
58880 Off ch=5 n=59 v=0
58880 Off ch=5 n=71 v=0
58880 On ch=5 n=52 v=39
58880 On ch=5 n=64 v=39
60416 Off ch=5 n=52 v=0
60416 Off ch=5 n=64 v=0
60416 On ch=5 n=69 v=111
60800 Off ch=5 n=69 v=0
60800 On ch=5 n=69 v=95
60928 Off ch=5 n=69 v=0
60928 On ch=5 n=69 v=96
61013 On ch=5 n=68 v=91
61014 Off ch=5 n=69 v=0
61093 Off ch=5 n=68 v=0
61098 On ch=5 n=66 v=85
61149 Off ch=5 n=66 v=0
61184 On ch=5 n=64 v=92
61235 Off ch=5 n=64 v=0
61269 On ch=5 n=63 v=92
61320 Off ch=5 n=63 v=0
61354 On ch=5 n=61 v=87
61405 Off ch=5 n=61 v=0
61440 On ch=5 n=59 v=93
61696 On ch=5 n=61 v=96
61701 Off ch=5 n=59 v=0
61817 Off ch=5 n=61 v=0
61824 On ch=5 n=63 v=107
61900 Off ch=5 n=63 v=0
61952 On ch=5 n=64 v=101
62208 Off ch=5 n=64 v=0
62208 On ch=5 n=64 v=100
62288 Off ch=5 n=64 v=0
62293 On ch=5 n=63 v=94
62378 On ch=5 n=64 v=96
62379 Off ch=5 n=63 v=0
62459 Off ch=5 n=64 v=0
62464 On ch=5 n=64 v=107
63232 Off ch=5 n=64 v=0
63232 On ch=5 n=66 v=109
63360 On ch=5 n=64 v=103
63362 Off ch=5 n=66 v=0
63481 Off ch=5 n=64 v=0
63488 On ch=5 n=64 v=99
64256 Off ch=5 n=64 v=0
64256 On ch=5 n=68 v=110
64341 On ch=5 n=66 v=102
64342 Off ch=5 n=68 v=0
64426 On ch=5 n=64 v=89
64427 Off ch=5 n=66 v=0
64507 Off ch=5 n=64 v=0
64512 On ch=5 n=64 v=68
65024 Off ch=5 n=64 v=0
65024 On ch=5 n=66 v=80
65536 Off ch=5 n=66 v=0
65536 On ch=5 n=64 v=62
65792 Off ch=5 n=64 v=0
65792 On ch=5 n=64 v=51
65792 On ch=5 n=52 v=43
66048 Off ch=5 n=64 v=0
66048 Off ch=5 n=52 v=0
66048 On ch=5 n=64 v=54
66048 On ch=5 n=52 v=68
66560 Off ch=5 n=64 v=0
66560 Off ch=5 n=52 v=0
66560 On ch=5 n=64 v=53
67328 Off ch=5 n=64 v=0
67328 On ch=5 n=66 v=73
67456 On ch=5 n=64 v=64
67458 Off ch=5 n=66 v=0
67577 Off ch=5 n=64 v=0
67584 On ch=5 n=64 v=67
68096 On ch=5 n=64 v=102
68352 Off ch=5 n=64 v=0
68352 Off ch=5 n=64 v=0
68352 On ch=5 n=68 v=91
68437 Off ch=5 n=68 v=0
68437 On ch=5 n=66 v=77
68522 Off ch=5 n=66 v=0
68522 On ch=5 n=64 v=76
68608 Off ch=5 n=64 v=0
68608 On ch=5 n=64 v=71
68864 On ch=5 n=52 v=63
69120 Off ch=5 n=64 v=0
69120 Off ch=5 n=52 v=0
69120 On ch=5 n=69 v=74
69632 Off ch=5 n=69 v=0
69632 On ch=5 n=67 v=44
69888 Off ch=5 n=67 v=0
69888 On ch=5 n=67 v=49
70144 Off ch=5 n=67 v=0
70144 On ch=5 n=67 v=45
71168 On ch=5 n=64 v=57
71424 Off ch=5 n=64 v=0
72192 On ch=5 n=64 v=30
72448 Off ch=5 n=64 v=0
72704 Off ch=5 n=67 v=0
72704 On ch=5 n=67 v=41
73088 Off ch=5 n=67 v=0
73088 On ch=5 n=67 v=40
73216 Off ch=5 n=67 v=0
75776 On ch=5 n=52 v=104
75776 On ch=5 n=64 v=104
75852 Off ch=5 n=52 v=0
75852 Off ch=5 n=64 v=0
75904 On ch=5 n=52 v=111
75904 On ch=5 n=64 v=111
75980 Off ch=5 n=52 v=0
75980 Off ch=5 n=64 v=0
108672 On ch=5 n=52 v=107
108672 On ch=5 n=64 v=107
109056 Off ch=5 n=52 v=0
109056 Off ch=5 n=64 v=0
109056 On ch=5 n=64 v=114
109312 Off ch=5 n=64 v=0
109312 On ch=5 n=64 v=112
109388 Off ch=5 n=64 v=0
109440 On ch=5 n=64 v=112
109516 Off ch=5 n=64 v=0
109568 On ch=5 n=64 v=114
109721 Off ch=5 n=64 v=0
109824 On ch=5 n=64 v=112
109969 Off ch=5 n=64 v=0
110080 On ch=5 n=64 v=113
110336 Off ch=5 n=64 v=0
110336 On ch=5 n=64 v=111
110412 Off ch=5 n=64 v=0
110464 On ch=5 n=64 v=108
110540 Off ch=5 n=64 v=0
110592 On ch=5 n=64 v=109
110745 Off ch=5 n=64 v=0
110848 On ch=5 n=64 v=111
110993 Off ch=5 n=64 v=0
111104 On ch=5 n=64 v=112
111360 Off ch=5 n=64 v=0
111360 On ch=5 n=64 v=113
111436 Off ch=5 n=64 v=0
111488 On ch=5 n=64 v=110
111564 Off ch=5 n=64 v=0
111616 On ch=5 n=64 v=108
111769 Off ch=5 n=64 v=0
111872 On ch=5 n=64 v=112
112017 Off ch=5 n=64 v=0
112128 On ch=5 n=64 v=116
112384 Off ch=5 n=64 v=0
112384 On ch=5 n=66 v=119
112460 Off ch=5 n=66 v=0
112512 On ch=5 n=68 v=124
112588 Off ch=5 n=68 v=0
112640 On ch=5 n=69 v=118
112896 Off ch=5 n=69 v=0
113152 On ch=5 n=52 v=46
113152 On ch=5 n=64 v=46
113408 Off ch=5 n=52 v=0
113408 Off ch=5 n=64 v=0
113408 On ch=5 n=52 v=46
113408 On ch=5 n=64 v=46
113484 Off ch=5 n=52 v=0
113484 Off ch=5 n=64 v=0
113536 On ch=5 n=52 v=48
113536 On ch=5 n=64 v=48
113612 Off ch=5 n=52 v=0
113612 Off ch=5 n=64 v=0
113664 On ch=5 n=64 v=49
113792 Off ch=5 n=64 v=0
125952 On ch=5 n=67 v=104
126208 Off ch=5 n=67 v=0
126208 On ch=5 n=67 v=113
126284 Off ch=5 n=67 v=0
126336 On ch=5 n=67 v=106
126412 Off ch=5 n=67 v=0
126464 On ch=5 n=67 v=109
126592 Off ch=5 n=67 v=0
128000 On ch=5 n=67 v=100
128256 Off ch=5 n=67 v=0
128256 On ch=5 n=67 v=113
128332 Off ch=5 n=67 v=0
128384 On ch=5 n=67 v=117
128460 Off ch=5 n=67 v=0
128512 On ch=5 n=67 v=113
128640 Off ch=5 n=67 v=0
132096 On ch=5 n=64 v=35
132352 Off ch=5 n=64 v=0
132352 On ch=5 n=64 v=35
132429 Off ch=5 n=64 v=0
132480 On ch=5 n=66 v=36
132552 Off ch=5 n=66 v=0
132608 On ch=5 n=64 v=46
132608 On ch=5 n=67 v=46
132761 Off ch=5 n=64 v=0
132761 Off ch=5 n=67 v=0
132864 On ch=5 n=64 v=36
132864 On ch=5 n=67 v=36
133009 Off ch=5 n=64 v=0
133009 Off ch=5 n=67 v=0
136192 On ch=5 n=64 v=30
136448 Off ch=5 n=64 v=0
136448 On ch=5 n=64 v=35
136524 Off ch=5 n=64 v=0
136576 On ch=5 n=64 v=36
136648 Off ch=5 n=64 v=0
136704 On ch=5 n=64 v=35
136704 On ch=5 n=59 v=33
136857 Off ch=5 n=64 v=0
136860 Off ch=5 n=59 v=0
136960 On ch=5 n=64 v=35
137105 Off ch=5 n=64 v=0
138240 On ch=5 n=52 v=37
138240 On ch=5 n=64 v=37
138496 Off ch=5 n=52 v=0
138496 Off ch=5 n=64 v=0
138496 On ch=5 n=52 v=35
138496 On ch=5 n=64 v=35
138572 Off ch=5 n=52 v=0
138572 Off ch=5 n=64 v=0
138624 On ch=5 n=52 v=32
138624 On ch=5 n=64 v=32
138700 Off ch=5 n=52 v=0
138700 Off ch=5 n=64 v=0
138752 On ch=5 n=64 v=33
139008 Off ch=5 n=64 v=0
140800 Par ch=5 c=7 v=95
140800 On ch=5 n=52 v=83
140800 On ch=5 n=64 v=83
140928 Par ch=5 c=7 v=85
141056 Par ch=5 c=7 v=75
141311 Par ch=5 c=7 v=65
141477 Par ch=5 c=7 v=45
141823 Par ch=5 c=7 v=25
141952 Off ch=5 n=52 v=0
141952 Off ch=5 n=64 v=0
141952 Par ch=5 c=7 v=65
37888 On ch=6 n=57 v=101
37888 On ch=6 n=69 v=101
38144 Off ch=6 n=57 v=0
38144 Off ch=6 n=69 v=0
38400 On ch=6 n=76 v=98
38656 Off ch=6 n=76 v=0
38912 On ch=6 n=76 v=102
39168 Off ch=6 n=76 v=0
39424 On ch=6 n=57 v=97
39424 On ch=6 n=69 v=97
39680 Off ch=6 n=57 v=0
39680 Off ch=6 n=69 v=0
39936 On ch=6 n=57 v=100
39936 On ch=6 n=69 v=100
40192 Off ch=6 n=57 v=0
40192 Off ch=6 n=69 v=0
40704 On ch=6 n=76 v=103
40960 Off ch=6 n=76 v=0
41472 On ch=6 n=76 v=110
41728 Off ch=6 n=76 v=0
41984 On ch=6 n=76 v=100
42240 Off ch=6 n=76 v=0
43008 On ch=6 n=76 v=99
43264 Off ch=6 n=76 v=0
43520 On ch=6 n=57 v=96
43520 On ch=6 n=69 v=96
43776 Off ch=6 n=57 v=0
43776 Off ch=6 n=69 v=0
44032 On ch=6 n=57 v=101
44032 On ch=6 n=69 v=101
44288 Off ch=6 n=57 v=0
44288 Off ch=6 n=69 v=0
44544 On ch=6 n=76 v=100
44800 Off ch=6 n=76 v=0
44800 On ch=6 n=57 v=90
44800 On ch=6 n=69 v=90
45056 Off ch=6 n=57 v=0
45056 Off ch=6 n=69 v=0
45056 On ch=6 n=76 v=127
45312 Off ch=6 n=76 v=0
45312 On ch=6 n=76 v=110
45440 Off ch=6 n=76 v=0
45440 On ch=6 n=76 v=114
45568 Off ch=6 n=76 v=0
45568 On ch=6 n=57 v=94
45568 On ch=6 n=69 v=94
45824 Off ch=6 n=57 v=0
45824 Off ch=6 n=69 v=0
46080 On ch=6 n=76 v=91
46336 Off ch=6 n=76 v=0
47104 On ch=6 n=76 v=92
47360 Off ch=6 n=76 v=0
47616 On ch=6 n=57 v=72
47616 On ch=6 n=69 v=72
47872 Off ch=6 n=57 v=0
47872 Off ch=6 n=69 v=0
48128 On ch=6 n=57 v=55
48128 On ch=6 n=69 v=55
48384 Off ch=6 n=57 v=0
48384 Off ch=6 n=69 v=0
48640 On ch=6 n=76 v=42
48896 Off ch=6 n=76 v=0
48896 On ch=6 n=57 v=37
48896 On ch=6 n=69 v=37
49152 Off ch=6 n=57 v=0
49152 Off ch=6 n=69 v=0
49152 On ch=6 n=76 v=54
49408 Off ch=6 n=76 v=0
49408 On ch=6 n=76 v=46
49536 Off ch=6 n=76 v=0
49536 On ch=6 n=76 v=46
49664 Off ch=6 n=76 v=0
49664 On ch=6 n=57 v=43
49664 On ch=6 n=69 v=43
49920 Off ch=6 n=57 v=0
49920 Off ch=6 n=69 v=0
56064 On ch=6 n=57 v=46
56064 On ch=6 n=69 v=46
58368 Off ch=6 n=57 v=0
58368 Off ch=6 n=69 v=0
71168 On ch=6 n=79 v=42
71424 Off ch=6 n=79 v=0
72192 On ch=6 n=79 v=31
72448 Off ch=6 n=79 v=0
75776 On ch=6 n=76 v=95
75852 Off ch=6 n=76 v=0
75904 On ch=6 n=76 v=112
75980 Off ch=6 n=76 v=0
88576 On ch=6 n=57 v=40
88576 On ch=6 n=69 v=40
88832 Off ch=6 n=57 v=0
88832 Off ch=6 n=69 v=0
89344 On ch=6 n=57 v=41
89344 On ch=6 n=69 v=41
89472 Off ch=6 n=57 v=0
89472 Off ch=6 n=69 v=0
89472 On ch=6 n=57 v=47
89472 On ch=6 n=69 v=47
89600 Off ch=6 n=57 v=0
89600 Off ch=6 n=69 v=0
89600 On ch=6 n=57 v=48
89600 On ch=6 n=69 v=48
89856 Off ch=6 n=57 v=0
89856 Off ch=6 n=69 v=0
90368 On ch=6 n=57 v=41
90368 On ch=6 n=69 v=41
90496 Off ch=6 n=57 v=0
90496 Off ch=6 n=69 v=0
90496 On ch=6 n=57 v=48
90496 On ch=6 n=69 v=48
90624 Off ch=6 n=57 v=0
90624 Off ch=6 n=69 v=0
90624 On ch=6 n=57 v=54
90624 On ch=6 n=69 v=54
90752 Off ch=6 n=57 v=0
90752 Off ch=6 n=69 v=0
90880 On ch=6 n=57 v=45
90880 On ch=6 n=69 v=45
91008 Off ch=6 n=57 v=0
91008 Off ch=6 n=69 v=0
91008 On ch=6 n=57 v=57
91008 On ch=6 n=69 v=57
91136 Off ch=6 n=57 v=0
91136 Off ch=6 n=69 v=0
91136 On ch=6 n=57 v=61
91136 On ch=6 n=69 v=61
91264 Off ch=6 n=57 v=0
91264 Off ch=6 n=69 v=0
91392 On ch=6 n=57 v=58
91392 On ch=6 n=69 v=58
91520 Off ch=6 n=57 v=0
91520 Off ch=6 n=69 v=0
91520 On ch=6 n=57 v=67
91520 On ch=6 n=69 v=67
91648 Off ch=6 n=57 v=0
91648 Off ch=6 n=69 v=0
91648 On ch=6 n=57 v=70
91648 On ch=6 n=69 v=70
91776 Off ch=6 n=57 v=0
91776 Off ch=6 n=69 v=0
91904 On ch=6 n=57 v=66
91904 On ch=6 n=69 v=66
92032 Off ch=6 n=57 v=0
92032 Off ch=6 n=69 v=0
92032 On ch=6 n=57 v=81
92032 On ch=6 n=69 v=81
92160 Off ch=6 n=57 v=0
92160 Off ch=6 n=69 v=0
92160 On ch=6 n=57 v=74
92160 On ch=6 n=69 v=74
92288 Off ch=6 n=57 v=0
92288 Off ch=6 n=69 v=0
92288 On ch=6 n=57 v=72
92288 On ch=6 n=69 v=72
92416 Off ch=6 n=57 v=0
92416 Off ch=6 n=69 v=0
92672 On ch=6 n=57 v=53
92672 On ch=6 n=69 v=53
92800 Off ch=6 n=57 v=0
92800 Off ch=6 n=69 v=0
92800 On ch=6 n=57 v=49
92800 On ch=6 n=69 v=49
92928 Off ch=6 n=57 v=0
92928 Off ch=6 n=69 v=0
93184 On ch=6 n=57 v=27
93184 On ch=6 n=69 v=27
93312 Off ch=6 n=57 v=0
93312 Off ch=6 n=69 v=0
93312 On ch=6 n=57 v=33
93312 On ch=6 n=69 v=33
93440 Off ch=6 n=57 v=0
93440 Off ch=6 n=69 v=0
108672 On ch=6 n=76 v=34
109056 Off ch=6 n=76 v=0
109056 On ch=6 n=76 v=106
109312 Off ch=6 n=76 v=0
109312 On ch=6 n=76 v=113
109388 Off ch=6 n=76 v=0
109440 On ch=6 n=76 v=114
109516 Off ch=6 n=76 v=0
109568 On ch=6 n=76 v=112
109721 Off ch=6 n=76 v=0
109824 On ch=6 n=76 v=109
109969 Off ch=6 n=76 v=0
110080 On ch=6 n=76 v=115
110336 Off ch=6 n=76 v=0
110336 On ch=6 n=76 v=114
110412 Off ch=6 n=76 v=0
110464 On ch=6 n=76 v=108
110540 Off ch=6 n=76 v=0
110592 On ch=6 n=76 v=114
110745 Off ch=6 n=76 v=0
110848 On ch=6 n=76 v=115
110993 Off ch=6 n=76 v=0
111104 On ch=6 n=76 v=114
111360 Off ch=6 n=76 v=0
111360 On ch=6 n=76 v=110
111436 Off ch=6 n=76 v=0
111488 On ch=6 n=76 v=110
111564 Off ch=6 n=76 v=0
111616 On ch=6 n=76 v=114
111769 Off ch=6 n=76 v=0
111872 On ch=6 n=76 v=112
112017 Off ch=6 n=76 v=0
112128 On ch=6 n=76 v=115
112384 Off ch=6 n=76 v=0
112384 On ch=6 n=76 v=105
112460 Off ch=6 n=76 v=0
112512 On ch=6 n=76 v=113
112588 Off ch=6 n=76 v=0
112640 On ch=6 n=57 v=91
112640 On ch=6 n=69 v=91
112896 Off ch=6 n=57 v=0
112896 Off ch=6 n=69 v=0
119040 On ch=6 n=57 v=46
119040 On ch=6 n=69 v=46
121344 Off ch=6 n=57 v=0
121344 Off ch=6 n=69 v=0
124416 On ch=6 n=57 v=36
124416 On ch=6 n=69 v=36
124672 Off ch=6 n=57 v=0
124672 Off ch=6 n=69 v=0
124672 On ch=6 n=57 v=34
124672 On ch=6 n=69 v=34
124748 Off ch=6 n=57 v=0
124748 Off ch=6 n=69 v=0
124800 On ch=6 n=57 v=37
124800 On ch=6 n=69 v=37
124872 Off ch=6 n=57 v=0
124872 Off ch=6 n=69 v=0
124928 On ch=6 n=57 v=34
124928 On ch=6 n=69 v=34
125184 Off ch=6 n=57 v=0
125184 Off ch=6 n=69 v=0
125440 On ch=6 n=57 v=32
125440 On ch=6 n=69 v=32
125696 Off ch=6 n=57 v=0
125696 Off ch=6 n=69 v=0
125696 On ch=6 n=57 v=37
125696 On ch=6 n=69 v=37
125772 Off ch=6 n=57 v=0
125772 Off ch=6 n=69 v=0
125824 On ch=6 n=57 v=36
125824 On ch=6 n=69 v=36
125896 Off ch=6 n=57 v=0
125896 Off ch=6 n=69 v=0
126464 On ch=6 n=76 v=116
126592 Off ch=6 n=76 v=0
128512 On ch=6 n=76 v=87
128640 Off ch=6 n=76 v=0
37888 On ch=7 n=45 v=95
38144 Off ch=7 n=45 v=0
38400 On ch=7 n=52 v=99
38656 Off ch=7 n=52 v=0
38912 On ch=7 n=52 v=102
39168 Off ch=7 n=52 v=0
39424 On ch=7 n=45 v=99
39680 Off ch=7 n=45 v=0
39936 On ch=7 n=45 v=102
40192 Off ch=7 n=45 v=0
40704 On ch=7 n=52 v=102
40960 Off ch=7 n=52 v=0
41472 On ch=7 n=52 v=110
41728 Off ch=7 n=52 v=0
41984 On ch=7 n=52 v=100
42240 Off ch=7 n=52 v=0
43008 On ch=7 n=52 v=98
43264 Off ch=7 n=52 v=0
43520 On ch=7 n=45 v=99
43776 Off ch=7 n=45 v=0
44032 On ch=7 n=45 v=97
44288 Off ch=7 n=45 v=0
44544 On ch=7 n=52 v=98
44800 Off ch=7 n=52 v=0
44800 On ch=7 n=45 v=103
45056 Off ch=7 n=45 v=0
45056 On ch=7 n=52 v=119
45312 Off ch=7 n=52 v=0
45312 On ch=7 n=52 v=115
45440 Off ch=7 n=52 v=0
45440 On ch=7 n=52 v=109
45568 Off ch=7 n=52 v=0
45568 On ch=7 n=45 v=102
45824 Off ch=7 n=45 v=0
46080 On ch=7 n=52 v=86
46336 Off ch=7 n=52 v=0
47104 On ch=7 n=52 v=88
47360 Off ch=7 n=52 v=0
47616 On ch=7 n=45 v=72
47872 Off ch=7 n=45 v=0
48128 On ch=7 n=45 v=51
48384 Off ch=7 n=45 v=0
48640 On ch=7 n=52 v=39
48896 Off ch=7 n=52 v=0
48896 On ch=7 n=45 v=42
49152 Off ch=7 n=45 v=0
49152 On ch=7 n=52 v=53
49408 Off ch=7 n=52 v=0
49408 On ch=7 n=52 v=54
49536 Off ch=7 n=52 v=0
49536 On ch=7 n=52 v=48
49664 Off ch=7 n=52 v=0
49664 On ch=7 n=45 v=42
49920 Off ch=7 n=45 v=0
71168 On ch=7 n=52 v=34
71424 Off ch=7 n=52 v=0
72192 On ch=7 n=52 v=32
72448 Off ch=7 n=52 v=0
75776 On ch=7 n=52 v=102
75852 Off ch=7 n=52 v=0
75904 On ch=7 n=52 v=110
75980 Off ch=7 n=52 v=0
88576 On ch=7 n=45 v=39
88832 Off ch=7 n=45 v=0
89344 On ch=7 n=45 v=43
89472 Off ch=7 n=45 v=0
89472 On ch=7 n=45 v=45
89600 Off ch=7 n=45 v=0
89600 On ch=7 n=45 v=45
89856 Off ch=7 n=45 v=0
90368 On ch=7 n=45 v=44
90496 Off ch=7 n=45 v=0
90496 On ch=7 n=45 v=48
90624 Off ch=7 n=45 v=0
90624 On ch=7 n=45 v=53
90752 Off ch=7 n=45 v=0
90880 On ch=7 n=45 v=47
91008 Off ch=7 n=45 v=0
91008 On ch=7 n=45 v=60
91136 Off ch=7 n=45 v=0
91136 On ch=7 n=45 v=64
91264 Off ch=7 n=45 v=0
91392 On ch=7 n=45 v=61
91520 Off ch=7 n=45 v=0
91520 On ch=7 n=45 v=63
91648 Off ch=7 n=45 v=0
91648 On ch=7 n=45 v=70
91776 Off ch=7 n=45 v=0
91904 On ch=7 n=45 v=67
92032 Off ch=7 n=45 v=0
92032 On ch=7 n=45 v=78
92160 Off ch=7 n=45 v=0
92160 On ch=7 n=45 v=70
92288 Off ch=7 n=45 v=0
92288 On ch=7 n=45 v=74
92416 Off ch=7 n=45 v=0
92672 On ch=7 n=45 v=54
92800 Off ch=7 n=45 v=0
92800 On ch=7 n=45 v=61
92928 Off ch=7 n=45 v=0
93184 On ch=7 n=45 v=29
93312 Off ch=7 n=45 v=0
93312 On ch=7 n=45 v=36
93440 Off ch=7 n=45 v=0
108672 On ch=7 n=52 v=35
108736 Off ch=7 n=52 v=0
108736 On ch=7 n=52 v=39
108800 Off ch=7 n=52 v=0
108800 On ch=7 n=52 v=36
108864 Off ch=7 n=52 v=0
108864 On ch=7 n=52 v=40
108928 Off ch=7 n=52 v=0
108928 On ch=7 n=52 v=42
108992 Off ch=7 n=52 v=0
108992 On ch=7 n=52 v=39
109056 Off ch=7 n=52 v=0
109056 On ch=7 n=52 v=111
109312 Off ch=7 n=52 v=0
109312 On ch=7 n=52 v=109
109388 Off ch=7 n=52 v=0
109440 On ch=7 n=52 v=110
109516 Off ch=7 n=52 v=0
109568 On ch=7 n=52 v=110
109824 Off ch=7 n=52 v=0
109824 On ch=7 n=52 v=113
110080 Off ch=7 n=52 v=0
110080 On ch=7 n=52 v=116
110336 Off ch=7 n=52 v=0
110336 On ch=7 n=52 v=110
110412 Off ch=7 n=52 v=0
110464 On ch=7 n=52 v=109
110540 Off ch=7 n=52 v=0
110592 On ch=7 n=52 v=108
110745 Off ch=7 n=52 v=0
110848 On ch=7 n=52 v=113
111001 Off ch=7 n=52 v=0
111104 On ch=7 n=52 v=110
111360 Off ch=7 n=52 v=0
111360 On ch=7 n=52 v=116
111436 Off ch=7 n=52 v=0
111488 On ch=7 n=52 v=115
111564 Off ch=7 n=52 v=0
111616 On ch=7 n=52 v=112
111769 Off ch=7 n=52 v=0
111872 On ch=7 n=52 v=114
112025 Off ch=7 n=52 v=0
112128 On ch=7 n=52 v=108
112384 Off ch=7 n=52 v=0
112384 On ch=7 n=52 v=111
112460 Off ch=7 n=52 v=0
112512 On ch=7 n=52 v=114
112588 Off ch=7 n=52 v=0
112640 On ch=7 n=45 v=102
112896 Off ch=7 n=45 v=0
124416 On ch=7 n=45 v=29
124672 Off ch=7 n=45 v=0
124672 On ch=7 n=45 v=34
124800 Off ch=7 n=45 v=0
124800 On ch=7 n=45 v=38
124928 Off ch=7 n=45 v=0
124928 On ch=7 n=45 v=38
125184 Off ch=7 n=45 v=0
125440 On ch=7 n=45 v=33
125696 Off ch=7 n=45 v=0
125696 On ch=7 n=45 v=37
125824 Off ch=7 n=45 v=0
125824 On ch=7 n=45 v=35
125952 Off ch=7 n=45 v=0
126464 On ch=7 n=52 v=104
126592 Off ch=7 n=52 v=0
128512 On ch=7 n=52 v=80
128640 Off ch=7 n=52 v=0
25600 On ch=8 n=76 v=43
25856 Off ch=8 n=76 v=0
25856 On ch=8 n=76 v=56
25932 Off ch=8 n=76 v=0
25984 On ch=8 n=76 v=55
26060 Off ch=8 n=76 v=0
26112 On ch=8 n=76 v=52
26265 Off ch=8 n=76 v=0
26368 On ch=8 n=76 v=50
26513 Off ch=8 n=76 v=0
26624 On ch=8 n=76 v=54
26880 Off ch=8 n=76 v=0
26880 On ch=8 n=76 v=55
26956 Off ch=8 n=76 v=0
27008 On ch=8 n=76 v=54
27084 Off ch=8 n=76 v=0
27136 On ch=8 n=76 v=52
27289 Off ch=8 n=76 v=0
27392 On ch=8 n=76 v=53
27537 Off ch=8 n=76 v=0
27648 On ch=8 n=76 v=63
27904 Off ch=8 n=76 v=0
27904 On ch=8 n=76 v=59
27980 Off ch=8 n=76 v=0
28032 On ch=8 n=78 v=63
28108 Off ch=8 n=78 v=0
28160 On ch=8 n=79 v=70
28313 Off ch=8 n=79 v=0
28416 On ch=8 n=79 v=67
28561 Off ch=8 n=79 v=0
28672 On ch=8 n=79 v=66
28928 Off ch=8 n=79 v=0
28928 On ch=8 n=79 v=61
29004 Off ch=8 n=79 v=0
29056 On ch=8 n=79 v=70
29132 Off ch=8 n=79 v=0
29184 On ch=8 n=79 v=68
29440 Off ch=8 n=79 v=0
29696 On ch=8 n=79 v=65
29952 Off ch=8 n=79 v=0
29952 On ch=8 n=79 v=72
30028 Off ch=8 n=79 v=0
30080 On ch=8 n=81 v=76
30156 Off ch=8 n=81 v=0
30208 On ch=8 n=83 v=81
30361 Off ch=8 n=83 v=0
30464 On ch=8 n=83 v=75
30609 Off ch=8 n=83 v=0
30720 On ch=8 n=78 v=69
30976 Off ch=8 n=78 v=0
30976 On ch=8 n=78 v=80
31052 Off ch=8 n=78 v=0
31104 On ch=8 n=80 v=84
31180 Off ch=8 n=80 v=0
31232 On ch=8 n=81 v=84
31385 Off ch=8 n=81 v=0
31488 On ch=8 n=81 v=82
31633 Off ch=8 n=81 v=0
31744 On ch=8 n=76 v=77
32000 Off ch=8 n=76 v=0
32000 On ch=8 n=76 v=80
32076 Off ch=8 n=76 v=0
32128 On ch=8 n=76 v=88
32204 Off ch=8 n=76 v=0
32256 On ch=8 n=76 v=88
32409 Off ch=8 n=76 v=0
32512 On ch=8 n=76 v=87
32657 Off ch=8 n=76 v=0
32768 On ch=8 n=76 v=88
33024 Off ch=8 n=76 v=0
33024 On ch=8 n=78 v=95
33100 Off ch=8 n=78 v=0
33152 On ch=8 n=80 v=99
33228 Off ch=8 n=80 v=0
33280 On ch=8 n=81 v=99
33536 Off ch=8 n=81 v=0
33792 On ch=8 n=79 v=86
34048 Off ch=8 n=79 v=0
34048 On ch=8 n=79 v=96
34124 Off ch=8 n=79 v=0
34176 On ch=8 n=81 v=101
34252 Off ch=8 n=81 v=0
34304 On ch=8 n=83 v=106
34457 Off ch=8 n=83 v=0
34560 On ch=8 n=83 v=99
34705 Off ch=8 n=83 v=0
34816 On ch=8 n=78 v=94
35072 Off ch=8 n=78 v=0
35072 On ch=8 n=78 v=108
35148 Off ch=8 n=78 v=0
35200 On ch=8 n=80 v=113
35276 Off ch=8 n=80 v=0
35328 On ch=8 n=81 v=115
35481 Off ch=8 n=81 v=0
35584 On ch=8 n=81 v=107
35729 Off ch=8 n=81 v=0
35840 On ch=8 n=76 v=90
36096 Off ch=8 n=76 v=0
36096 On ch=8 n=76 v=103
36172 Off ch=8 n=76 v=0
36224 On ch=8 n=76 v=104
36300 Off ch=8 n=76 v=0
36352 On ch=8 n=76 v=104
36505 Off ch=8 n=76 v=0
36608 On ch=8 n=76 v=106
36753 Off ch=8 n=76 v=0
36864 On ch=8 n=76 v=107
37120 Off ch=8 n=76 v=0
37120 On ch=8 n=78 v=109
37196 Off ch=8 n=78 v=0
37248 On ch=8 n=80 v=112
37324 Off ch=8 n=80 v=0
37376 On ch=8 n=81 v=112
37632 Off ch=8 n=81 v=0
37888 On ch=8 n=84 v=93
38400 On ch=8 n=83 v=114
38410 Off ch=8 n=84 v=0
38879 Off ch=8 n=83 v=0
38912 On ch=8 n=83 v=127
38972 Off ch=8 n=83 v=0
38972 On ch=8 n=84 v=127
39032 On ch=8 n=86 v=127
39032 Off ch=8 n=84 v=0
39296 Off ch=8 n=86 v=0
39296 On ch=8 n=84 v=122
39360 On ch=8 n=83 v=120
39361 Off ch=8 n=84 v=0
39420 Off ch=8 n=83 v=0
39424 On ch=8 n=83 v=123
39552 On ch=8 n=84 v=127
39554 Off ch=8 n=83 v=0
39673 Off ch=8 n=84 v=0
39680 On ch=8 n=84 v=127
39936 Off ch=8 n=84 v=0
39936 On ch=8 n=84 v=127
40320 Off ch=8 n=84 v=0
40320 On ch=8 n=72 v=92
40384 On ch=8 n=74 v=96
40385 Off ch=8 n=72 v=0
40444 Off ch=8 n=74 v=0
40448 On ch=8 n=75 v=127
40576 On ch=8 n=76 v=127
40578 Off ch=8 n=75 v=0
40697 Off ch=8 n=76 v=0
40704 On ch=8 n=76 v=125
40780 Off ch=8 n=76 v=0
40832 On ch=8 n=76 v=127
40908 Off ch=8 n=76 v=0
40960 On ch=8 n=74 v=127
41020 Off ch=8 n=74 v=0
41020 On ch=8 n=76 v=127
41080 On ch=8 n=77 v=127
41080 Off ch=8 n=76 v=0
41344 Off ch=8 n=77 v=0
41344 On ch=8 n=76 v=121
41408 On ch=8 n=74 v=120
41409 Off ch=8 n=76 v=0
41468 Off ch=8 n=74 v=0
41472 On ch=8 n=74 v=127
41600 On ch=8 n=76 v=127
41602 Off ch=8 n=74 v=0
41721 Off ch=8 n=76 v=0
41728 On ch=8 n=76 v=123
41984 Off ch=8 n=76 v=0
41984 On ch=8 n=76 v=127
42240 On ch=8 n=88 v=127
42245 Off ch=8 n=76 v=0
42496 On ch=8 n=87 v=127
42501 Off ch=8 n=88 v=0
42982 Off ch=8 n=87 v=0
43008 On ch=8 n=86 v=120
43136 On ch=8 n=83 v=111
43138 Off ch=8 n=86 v=0
43200 On ch=8 n=85 v=127
43201 Off ch=8 n=83 v=0
43264 On ch=8 n=86 v=127
43265 Off ch=8 n=85 v=0
43392 On ch=8 n=88 v=127
43394 Off ch=8 n=86 v=0
43456 On ch=8 n=86 v=121
43457 Off ch=8 n=88 v=0
43516 Off ch=8 n=86 v=0
43520 On ch=8 n=86 v=122
43648 On ch=8 n=85 v=119
43650 Off ch=8 n=86 v=0
43769 Off ch=8 n=85 v=0
43776 On ch=8 n=84 v=122
44032 Off ch=8 n=84 v=0
44032 On ch=8 n=84 v=124
44544 On ch=8 n=83 v=114
44554 Off ch=8 n=84 v=0
44800 On ch=8 n=84 v=127
44805 Off ch=8 n=83 v=0
45023 Off ch=8 n=84 v=0
45056 On ch=8 n=83 v=127
45116 Off ch=8 n=83 v=0
45116 On ch=8 n=84 v=127
45176 On ch=8 n=86 v=127
45176 Off ch=8 n=84 v=0
45440 Off ch=8 n=86 v=0
45440 On ch=8 n=84 v=121
45504 On ch=8 n=83 v=118
45505 Off ch=8 n=84 v=0
45564 Off ch=8 n=83 v=0
45568 On ch=8 n=81 v=117
45644 Off ch=8 n=81 v=0
45696 On ch=8 n=69 v=86
45760 On ch=8 n=71 v=84
45761 Off ch=8 n=69 v=0
45820 Off ch=8 n=71 v=0
45824 On ch=8 n=72 v=127
45900 Off ch=8 n=72 v=0
45952 On ch=8 n=72 v=127
46016 On ch=8 n=74 v=127
46017 Off ch=8 n=72 v=0
46076 Off ch=8 n=74 v=0
46080 On ch=8 n=76 v=122
46336 On ch=8 n=88 v=127
46341 Off ch=8 n=76 v=0
46592 On ch=8 n=87 v=110
46597 Off ch=8 n=88 v=0
47078 Off ch=8 n=87 v=0
47104 On ch=8 n=86 v=95
47232 On ch=8 n=83 v=86
47234 Off ch=8 n=86 v=0
47296 On ch=8 n=85 v=99
47297 Off ch=8 n=83 v=0
47360 On ch=8 n=86 v=97
47361 Off ch=8 n=85 v=0
47488 On ch=8 n=88 v=97
47490 Off ch=8 n=86 v=0
47552 On ch=8 n=86 v=85
47553 Off ch=8 n=88 v=0
47612 Off ch=8 n=86 v=0
47616 On ch=8 n=86 v=88
47744 On ch=8 n=85 v=78
47746 Off ch=8 n=86 v=0
47865 Off ch=8 n=85 v=0
47872 On ch=8 n=84 v=72
48128 Off ch=8 n=84 v=0
48128 On ch=8 n=84 v=76
48640 On ch=8 n=83 v=70
48650 Off ch=8 n=84 v=0
48896 On ch=8 n=84 v=71
48901 Off ch=8 n=83 v=0
49117 Off ch=8 n=84 v=0
49152 On ch=8 n=83 v=60
49212 Off ch=8 n=83 v=0
49212 On ch=8 n=84 v=60
49272 On ch=8 n=86 v=60
49272 Off ch=8 n=84 v=0
49536 Off ch=8 n=86 v=0
49536 On ch=8 n=84 v=50
49600 On ch=8 n=83 v=46
49601 Off ch=8 n=84 v=0
49660 Off ch=8 n=83 v=0
49664 On ch=8 n=81 v=45
49920 Off ch=8 n=81 v=0
50176 On ch=8 n=71 v=48
50236 Off ch=8 n=71 v=0
50236 On ch=8 n=72 v=48
50296 On ch=8 n=74 v=48
50296 Off ch=8 n=72 v=0
50560 Off ch=8 n=74 v=0
50560 On ch=8 n=72 v=44
50624 On ch=8 n=71 v=47
50625 Off ch=8 n=72 v=0
50684 Off ch=8 n=71 v=0
50688 On ch=8 n=69 v=48
50944 Off ch=8 n=69 v=0
51456 On ch=8 n=76 v=44
51541 On ch=8 n=74 v=39
51542 Off ch=8 n=76 v=0
51626 On ch=8 n=71 v=40
51627 Off ch=8 n=74 v=0
51707 Off ch=8 n=71 v=0
51712 On ch=8 n=76 v=54
51797 On ch=8 n=73 v=53
51798 Off ch=8 n=76 v=0
51882 On ch=8 n=69 v=43
51883 Off ch=8 n=73 v=0
51968 On ch=8 n=73 v=43
51969 Off ch=8 n=69 v=0
52053 On ch=8 n=69 v=48
52054 Off ch=8 n=73 v=0
52138 On ch=8 n=64 v=46
52139 Off ch=8 n=69 v=0
52219 Off ch=8 n=64 v=0
52224 On ch=8 n=69 v=51
52309 On ch=8 n=64 v=45
52310 Off ch=8 n=69 v=0
52394 On ch=8 n=61 v=46
52395 Off ch=8 n=64 v=0
52480 On ch=8 n=73 v=57
52481 Off ch=8 n=61 v=0
52565 On ch=8 n=69 v=45
52566 Off ch=8 n=73 v=0
52650 On ch=8 n=64 v=37
52651 Off ch=8 n=69 v=0
52731 Off ch=8 n=64 v=0
52736 On ch=8 n=73 v=59
52821 On ch=8 n=66 v=49
52822 Off ch=8 n=73 v=0
52906 On ch=8 n=62 v=44
52907 Off ch=8 n=66 v=0
52992 On ch=8 n=71 v=60
52993 Off ch=8 n=62 v=0
53077 On ch=8 n=66 v=49
53078 Off ch=8 n=71 v=0
53162 On ch=8 n=62 v=40
53163 Off ch=8 n=66 v=0
53243 Off ch=8 n=62 v=0
53248 On ch=8 n=71 v=61
53333 On ch=8 n=66 v=50
53334 Off ch=8 n=71 v=0
53418 On ch=8 n=62 v=52
53419 Off ch=8 n=66 v=0
53504 On ch=8 n=69 v=63
53505 Off ch=8 n=62 v=0
53589 On ch=8 n=61 v=46
53590 Off ch=8 n=69 v=0
53674 On ch=8 n=69 v=71
53675 Off ch=8 n=61 v=0
53755 Off ch=8 n=69 v=0
53760 On ch=8 n=59 v=60
53845 On ch=8 n=62 v=73
53846 Off ch=8 n=59 v=0
53930 On ch=8 n=68 v=79
53931 Off ch=8 n=62 v=0
54016 On ch=8 n=69 v=72
54017 Off ch=8 n=68 v=0
54101 On ch=8 n=61 v=52
54102 Off ch=8 n=69 v=0
54186 On ch=8 n=69 v=82
54187 Off ch=8 n=61 v=0
54272 On ch=8 n=62 v=62
54273 Off ch=8 n=69 v=0
54357 On ch=8 n=66 v=78
54358 Off ch=8 n=62 v=0
54442 On ch=8 n=71 v=87
54443 Off ch=8 n=66 v=0
54528 On ch=8 n=73 v=86
54529 Off ch=8 n=71 v=0
54613 On ch=8 n=64 v=66
54614 Off ch=8 n=73 v=0
54698 On ch=8 n=73 v=72
54699 Off ch=8 n=64 v=0
54784 On ch=8 n=66 v=67
54785 Off ch=8 n=73 v=0
54869 On ch=8 n=69 v=66
54870 Off ch=8 n=66 v=0
54954 On ch=8 n=74 v=73
54955 Off ch=8 n=69 v=0
55040 On ch=8 n=76 v=66
55041 Off ch=8 n=74 v=0
55125 On ch=8 n=68 v=56
55126 Off ch=8 n=76 v=0
55210 On ch=8 n=76 v=73
55211 Off ch=8 n=68 v=0
55291 Off ch=8 n=76 v=0
55296 On ch=8 n=74 v=62
55381 On ch=8 n=68 v=55
55382 Off ch=8 n=74 v=0
55466 On ch=8 n=71 v=71
55467 Off ch=8 n=68 v=0
55552 On ch=8 n=69 v=69
55553 Off ch=8 n=71 v=0
55637 On ch=8 n=73 v=68
55638 Off ch=8 n=69 v=0
55722 On ch=8 n=81 v=78
55723 Off ch=8 n=73 v=0
55803 Off ch=8 n=81 v=0
55808 On ch=8 n=81 v=52
55893 On ch=8 n=73 v=37
55894 Off ch=8 n=81 v=0
55978 On ch=8 n=69 v=39
55979 Off ch=8 n=73 v=0
56064 On ch=8 n=76 v=62
56065 Off ch=8 n=69 v=0
56149 On ch=8 n=73 v=46
56150 Off ch=8 n=76 v=0
56234 On ch=8 n=67 v=43
56235 Off ch=8 n=73 v=0
56315 Off ch=8 n=67 v=0
56320 On ch=8 n=73 v=60
56405 On ch=8 n=67 v=51
56406 Off ch=8 n=73 v=0
56490 On ch=8 n=64 v=50
56491 Off ch=8 n=67 v=0
56576 On ch=8 n=76 v=79
56577 Off ch=8 n=64 v=0
56661 On ch=8 n=73 v=51
56662 Off ch=8 n=76 v=0
56746 On ch=8 n=67 v=53
56747 Off ch=8 n=73 v=0
56827 Off ch=8 n=67 v=0
56832 On ch=8 n=76 v=78
56917 On ch=8 n=73 v=58
56918 Off ch=8 n=76 v=0
57002 On ch=8 n=67 v=59
57003 Off ch=8 n=73 v=0
57088 On ch=8 n=66 v=61
57089 Off ch=8 n=67 v=0
57173 On ch=8 n=74 v=87
57174 Off ch=8 n=66 v=0
57258 On ch=8 n=76 v=73
57259 Off ch=8 n=74 v=0
57339 Off ch=8 n=76 v=0
57344 On ch=8 n=78 v=75
57429 On ch=8 n=74 v=67
57430 Off ch=8 n=78 v=0
57514 On ch=8 n=66 v=57
57515 Off ch=8 n=74 v=0
57600 On ch=8 n=64 v=69
57601 Off ch=8 n=66 v=0
57685 On ch=8 n=73 v=91
57686 Off ch=8 n=64 v=0
57770 On ch=8 n=76 v=88
57771 Off ch=8 n=73 v=0
57851 Off ch=8 n=76 v=0
57856 On ch=8 n=74 v=65
57941 On ch=8 n=71 v=62
57942 Off ch=8 n=74 v=0
58026 On ch=8 n=64 v=50
58027 Off ch=8 n=71 v=0
58107 Off ch=8 n=64 v=0
58112 On ch=8 n=64 v=59
58197 On ch=8 n=69 v=71
58198 Off ch=8 n=64 v=0
58282 On ch=8 n=73 v=72
58283 Off ch=8 n=69 v=0
58363 Off ch=8 n=73 v=0
58368 On ch=8 n=71 v=63
58453 On ch=8 n=68 v=55
58454 Off ch=8 n=71 v=0
58538 On ch=8 n=64 v=55
58539 Off ch=8 n=68 v=0
58624 On ch=8 n=66 v=56
58625 Off ch=8 n=64 v=0
58709 On ch=8 n=69 v=66
58710 Off ch=8 n=66 v=0
58794 On ch=8 n=75 v=72
58795 Off ch=8 n=69 v=0
58875 Off ch=8 n=75 v=0
58880 On ch=8 n=76 v=69
58965 On ch=8 n=71 v=62
58966 Off ch=8 n=76 v=0
59050 On ch=8 n=68 v=61
59051 Off ch=8 n=71 v=0
59136 On ch=8 n=76 v=72
59137 Off ch=8 n=68 v=0
59221 On ch=8 n=71 v=52
59222 Off ch=8 n=76 v=0
59306 On ch=8 n=68 v=46
59307 Off ch=8 n=71 v=0
59392 On ch=8 n=78 v=80
59393 Off ch=8 n=68 v=0
59477 On ch=8 n=71 v=63
59478 Off ch=8 n=78 v=0
59562 On ch=8 n=69 v=56
59563 Off ch=8 n=71 v=0
59648 On ch=8 n=78 v=72
59649 Off ch=8 n=69 v=0
59733 On ch=8 n=71 v=51
59734 Off ch=8 n=78 v=0
59818 On ch=8 n=69 v=47
59819 Off ch=8 n=71 v=0
59899 Off ch=8 n=69 v=0
59904 On ch=8 n=76 v=70
59989 On ch=8 n=71 v=61
59990 Off ch=8 n=76 v=0
60074 On ch=8 n=68 v=56
60075 Off ch=8 n=71 v=0
60160 On ch=8 n=76 v=71
60161 Off ch=8 n=68 v=0
60245 On ch=8 n=71 v=57
60246 Off ch=8 n=76 v=0
60330 On ch=8 n=68 v=49
60331 Off ch=8 n=71 v=0
60416 On ch=8 n=75 v=74
60417 Off ch=8 n=68 v=0
60501 On ch=8 n=69 v=61
60502 Off ch=8 n=75 v=0
60586 On ch=8 n=66 v=62
60587 Off ch=8 n=69 v=0
60672 On ch=8 n=71 v=64
60673 Off ch=8 n=66 v=0
60757 On ch=8 n=69 v=62
60758 Off ch=8 n=71 v=0
60842 On ch=8 n=66 v=53
60843 Off ch=8 n=69 v=0
60923 Off ch=8 n=66 v=0
60928 On ch=8 n=64 v=60
61013 On ch=8 n=68 v=67
61014 Off ch=8 n=64 v=0
61098 On ch=8 n=71 v=68
61099 Off ch=8 n=68 v=0
61184 On ch=8 n=68 v=62
61185 Off ch=8 n=71 v=0
61269 On ch=8 n=71 v=69
61270 Off ch=8 n=68 v=0
61354 On ch=8 n=76 v=77
61355 Off ch=8 n=71 v=0
61440 On ch=8 n=78 v=67
61441 Off ch=8 n=76 v=0
61525 On ch=8 n=71 v=56
61526 Off ch=8 n=78 v=0
61610 On ch=8 n=69 v=62
61611 Off ch=8 n=71 v=0
61696 On ch=8 n=78 v=73
61697 Off ch=8 n=69 v=0
61781 On ch=8 n=71 v=52
61782 Off ch=8 n=78 v=0
61866 On ch=8 n=69 v=48
61867 Off ch=8 n=71 v=0
61952 On ch=8 n=76 v=73
61953 Off ch=8 n=69 v=0
62037 On ch=8 n=71 v=67
62038 Off ch=8 n=76 v=0
62122 On ch=8 n=68 v=54
62123 Off ch=8 n=71 v=0
62208 On ch=8 n=76 v=62
62209 Off ch=8 n=68 v=0
62293 On ch=8 n=71 v=60
62294 Off ch=8 n=76 v=0
62378 On ch=8 n=68 v=47
62379 Off ch=8 n=71 v=0
62459 Off ch=8 n=68 v=0
62464 On ch=8 n=76 v=83
62549 On ch=8 n=70 v=74
62550 Off ch=8 n=76 v=0
62634 On ch=8 n=67 v=63
62635 Off ch=8 n=70 v=0
62720 On ch=8 n=64 v=59
62721 Off ch=8 n=67 v=0
62805 On ch=8 n=67 v=63
62806 Off ch=8 n=64 v=0
62890 On ch=8 n=70 v=75
62891 Off ch=8 n=67 v=0
62976 On ch=8 n=64 v=64
62977 Off ch=8 n=70 v=0
63061 On ch=8 n=68 v=79
63062 Off ch=8 n=64 v=0
63146 On ch=8 n=71 v=90
63147 Off ch=8 n=68 v=0
63232 On ch=8 n=76 v=89
63233 Off ch=8 n=71 v=0
63317 On ch=8 n=71 v=77
63318 Off ch=8 n=76 v=0
63402 On ch=8 n=68 v=67
63403 Off ch=8 n=71 v=0
63488 On ch=8 n=76 v=81
63489 Off ch=8 n=68 v=0
63573 On ch=8 n=70 v=71
63574 Off ch=8 n=76 v=0
63658 On ch=8 n=67 v=60
63659 Off ch=8 n=70 v=0
63744 On ch=8 n=64 v=66
63745 Off ch=8 n=67 v=0
63829 On ch=8 n=67 v=69
63830 Off ch=8 n=64 v=0
63914 On ch=8 n=70 v=81
63915 Off ch=8 n=67 v=0
64000 On ch=8 n=64 v=71
64001 Off ch=8 n=70 v=0
64085 On ch=8 n=68 v=83
64086 Off ch=8 n=64 v=0
64170 On ch=8 n=71 v=92
64171 Off ch=8 n=68 v=0
64256 On ch=8 n=76 v=90
64257 Off ch=8 n=71 v=0
64341 On ch=8 n=71 v=81
64342 Off ch=8 n=76 v=0
64426 On ch=8 n=68 v=70
64427 Off ch=8 n=71 v=0
64507 Off ch=8 n=68 v=0
64512 On ch=8 n=76 v=85
64597 On ch=8 n=70 v=75
64598 Off ch=8 n=76 v=0
64682 On ch=8 n=67 v=64
64683 Off ch=8 n=70 v=0
64768 On ch=8 n=64 v=64
64769 Off ch=8 n=67 v=0
64853 On ch=8 n=67 v=75
64854 Off ch=8 n=64 v=0
64938 On ch=8 n=69 v=73
64939 Off ch=8 n=67 v=0
65019 Off ch=8 n=69 v=0
65024 On ch=8 n=66 v=70
65109 On ch=8 n=71 v=78
65110 Off ch=8 n=66 v=0
65194 On ch=8 n=66 v=62
65195 Off ch=8 n=71 v=0
65275 Off ch=8 n=66 v=0
65280 On ch=8 n=66 v=68
65365 On ch=8 n=71 v=76
65366 Off ch=8 n=66 v=0
65450 On ch=8 n=74 v=82
65451 Off ch=8 n=71 v=0
65536 On ch=8 n=73 v=47
65537 Off ch=8 n=74 v=0
65621 On ch=8 n=69 v=38
65622 Off ch=8 n=73 v=0
65706 On ch=8 n=64 v=43
65707 Off ch=8 n=69 v=0
65792 On ch=8 n=62 v=40
65793 Off ch=8 n=64 v=0
65877 On ch=8 n=68 v=50
65878 Off ch=8 n=62 v=0
65962 On ch=8 n=71 v=54
65963 Off ch=8 n=68 v=0
66043 Off ch=8 n=71 v=0
66048 On ch=8 n=64 v=45
66133 On ch=8 n=69 v=47
66134 Off ch=8 n=64 v=0
66218 On ch=8 n=73 v=59
66219 Off ch=8 n=69 v=0
66304 On ch=8 n=74 v=53
66305 Off ch=8 n=73 v=0
66389 On ch=8 n=75 v=58
66390 Off ch=8 n=74 v=0
66474 On ch=8 n=76 v=54
66475 Off ch=8 n=75 v=0
66555 Off ch=8 n=76 v=0
66560 On ch=8 n=76 v=57
66645 On ch=8 n=70 v=50
66646 Off ch=8 n=76 v=0
66730 On ch=8 n=67 v=53
66731 Off ch=8 n=70 v=0
66816 On ch=8 n=64 v=55
66817 Off ch=8 n=67 v=0
66901 On ch=8 n=67 v=65
66902 Off ch=8 n=64 v=0
66986 On ch=8 n=70 v=66
66987 Off ch=8 n=67 v=0
67072 On ch=8 n=64 v=53
67073 Off ch=8 n=70 v=0
67157 On ch=8 n=68 v=73
67158 Off ch=8 n=64 v=0
67242 On ch=8 n=71 v=76
67243 Off ch=8 n=68 v=0
67328 On ch=8 n=76 v=79
67329 Off ch=8 n=71 v=0
67413 On ch=8 n=71 v=61
67414 Off ch=8 n=76 v=0
67498 On ch=8 n=68 v=59
67499 Off ch=8 n=71 v=0
67579 Off ch=8 n=68 v=0
67584 On ch=8 n=76 v=87
67669 On ch=8 n=70 v=62
67670 Off ch=8 n=76 v=0
67754 On ch=8 n=67 v=63
67755 Off ch=8 n=70 v=0
67840 On ch=8 n=64 v=69
67841 Off ch=8 n=67 v=0
67925 On ch=8 n=67 v=78
67926 Off ch=8 n=64 v=0
68010 On ch=8 n=70 v=87
68011 Off ch=8 n=67 v=0
68096 On ch=8 n=64 v=61
68097 Off ch=8 n=70 v=0
68181 On ch=8 n=68 v=89
68182 Off ch=8 n=64 v=0
68266 On ch=8 n=71 v=87
68267 Off ch=8 n=68 v=0
68352 On ch=8 n=76 v=103
68353 Off ch=8 n=71 v=0
68437 On ch=8 n=71 v=72
68438 Off ch=8 n=76 v=0
68522 On ch=8 n=68 v=61
68523 Off ch=8 n=71 v=0
68603 Off ch=8 n=68 v=0
68608 On ch=8 n=76 v=86
68693 On ch=8 n=70 v=74
68694 Off ch=8 n=76 v=0
68778 On ch=8 n=67 v=66
68779 Off ch=8 n=70 v=0
68864 On ch=8 n=64 v=61
68865 Off ch=8 n=67 v=0
68949 On ch=8 n=67 v=73
68950 Off ch=8 n=64 v=0
69034 On ch=8 n=69 v=71
69035 Off ch=8 n=67 v=0
69120 Off ch=8 n=69 v=0
69120 On ch=8 n=69 v=71
69205 On ch=8 n=77 v=83
69206 Off ch=8 n=69 v=0
69290 On ch=8 n=69 v=53
69291 Off ch=8 n=77 v=0
69371 Off ch=8 n=69 v=0
69376 On ch=8 n=69 v=61
69461 On ch=8 n=74 v=72
69462 Off ch=8 n=69 v=0
69546 On ch=8 n=76 v=78
69547 Off ch=8 n=74 v=0
69632 Off ch=8 n=76 v=0
69632 On ch=8 n=76 v=45
69717 On ch=8 n=72 v=41
69718 Off ch=8 n=76 v=0
69802 On ch=8 n=67 v=45
69803 Off ch=8 n=72 v=0
69888 On ch=8 n=65 v=43
69889 Off ch=8 n=67 v=0
69973 On ch=8 n=71 v=57
69974 Off ch=8 n=65 v=0
70058 On ch=8 n=74 v=59
70059 Off ch=8 n=71 v=0
70139 Off ch=8 n=74 v=0
70144 On ch=8 n=64 v=40
70229 On ch=8 n=72 v=48
70230 Off ch=8 n=64 v=0
70314 On ch=8 n=76 v=56
70315 Off ch=8 n=72 v=0
70400 On ch=8 n=72 v=46
70401 Off ch=8 n=76 v=0
70485 On ch=8 n=76 v=49
70486 Off ch=8 n=72 v=0
70570 On ch=8 n=79 v=55
70571 Off ch=8 n=76 v=0
70651 Off ch=8 n=79 v=0
70656 On ch=8 n=71 v=40
70741 On ch=8 n=74 v=43
70742 Off ch=8 n=71 v=0
70826 On ch=8 n=79 v=59
70827 Off ch=8 n=74 v=0
70912 On ch=8 n=71 v=46
70913 Off ch=8 n=79 v=0
70997 On ch=8 n=74 v=53
70998 Off ch=8 n=71 v=0
71082 On ch=8 n=79 v=62
71083 Off ch=8 n=74 v=0
71163 Off ch=8 n=79 v=0
71168 On ch=8 n=72 v=45
71253 On ch=8 n=76 v=49
71254 Off ch=8 n=72 v=0
71338 On ch=8 n=79 v=52
71339 Off ch=8 n=76 v=0
71424 On ch=8 n=72 v=42
71425 Off ch=8 n=79 v=0
71509 On ch=8 n=76 v=47
71510 Off ch=8 n=72 v=0
71594 On ch=8 n=79 v=54
71595 Off ch=8 n=76 v=0
71675 Off ch=8 n=79 v=0
71680 On ch=8 n=71 v=45
71765 On ch=8 n=74 v=52
71766 Off ch=8 n=71 v=0
71850 On ch=8 n=79 v=54
71851 Off ch=8 n=74 v=0
71936 On ch=8 n=71 v=47
71937 Off ch=8 n=79 v=0
72021 On ch=8 n=74 v=51
72022 Off ch=8 n=71 v=0
72106 On ch=8 n=79 v=58
72107 Off ch=8 n=74 v=0
72187 Off ch=8 n=79 v=0
72192 On ch=8 n=72 v=42
72277 On ch=8 n=76 v=45
72278 Off ch=8 n=72 v=0
72362 On ch=8 n=79 v=56
72363 Off ch=8 n=76 v=0
72448 On ch=8 n=72 v=46
72449 Off ch=8 n=79 v=0
72533 On ch=8 n=76 v=52
72534 Off ch=8 n=72 v=0
72618 On ch=8 n=79 v=52
72619 Off ch=8 n=76 v=0
72699 Off ch=8 n=79 v=0
72704 On ch=8 n=71 v=44
72789 On ch=8 n=74 v=49
72790 Off ch=8 n=71 v=0
72874 On ch=8 n=79 v=59
72875 Off ch=8 n=74 v=0
72960 On ch=8 n=71 v=49
72961 Off ch=8 n=79 v=0
73045 On ch=8 n=74 v=53
73046 Off ch=8 n=71 v=0
73130 On ch=8 n=79 v=63
73131 Off ch=8 n=74 v=0
73211 Off ch=8 n=79 v=0
73642 On ch=8 n=81 v=91
73728 Off ch=8 n=81 v=0
73728 On ch=8 n=79 v=86
73779 Off ch=8 n=79 v=0
73813 On ch=8 n=77 v=88
73864 Off ch=8 n=77 v=0
73898 On ch=8 n=76 v=93
73949 Off ch=8 n=76 v=0
73984 On ch=8 n=74 v=104
74035 Off ch=8 n=74 v=0
74069 On ch=8 n=72 v=96
74120 Off ch=8 n=72 v=0
74154 On ch=8 n=71 v=92
74205 Off ch=8 n=71 v=0
74240 On ch=8 n=69 v=91
74291 Off ch=8 n=69 v=0
74325 On ch=8 n=67 v=88
74376 Off ch=8 n=67 v=0
74410 On ch=8 n=65 v=89
74461 Off ch=8 n=65 v=0
74496 On ch=8 n=64 v=92
74547 Off ch=8 n=64 v=0
74581 On ch=8 n=62 v=87
74632 Off ch=8 n=62 v=0
74666 On ch=8 n=60 v=94
74717 Off ch=8 n=60 v=0
74752 On ch=8 n=59 v=101
74837 Off ch=8 n=59 v=0
75520 On ch=8 n=64 v=99
75596 Off ch=8 n=64 v=0
75648 On ch=8 n=64 v=106
75724 Off ch=8 n=64 v=0
76352 On ch=8 n=72 v=42
76390 Off ch=8 n=72 v=0
76416 On ch=8 n=69 v=40
76454 Off ch=8 n=69 v=0
76480 On ch=8 n=72 v=52
76518 Off ch=8 n=72 v=0
76544 On ch=8 n=76 v=55
76582 Off ch=8 n=76 v=0
76608 On ch=8 n=72 v=43
76646 Off ch=8 n=72 v=0
76672 On ch=8 n=69 v=47
76710 Off ch=8 n=69 v=0
76736 On ch=8 n=72 v=50
76774 Off ch=8 n=72 v=0
76800 On ch=8 n=64 v=36
76928 Off ch=8 n=64 v=0
77376 On ch=8 n=71 v=42
77437 Off ch=8 n=71 v=0
77440 On ch=8 n=68 v=43
77501 Off ch=8 n=68 v=0
77504 On ch=8 n=71 v=56
77565 Off ch=8 n=71 v=0
77568 On ch=8 n=76 v=50
77629 Off ch=8 n=76 v=0
77632 On ch=8 n=71 v=44
77693 Off ch=8 n=71 v=0
77696 On ch=8 n=68 v=44
77757 Off ch=8 n=68 v=0
77760 On ch=8 n=71 v=54
77821 Off ch=8 n=71 v=0
77824 On ch=8 n=64 v=39
77946 Off ch=8 n=64 v=0
78400 On ch=8 n=72 v=43
78461 Off ch=8 n=72 v=0
78464 On ch=8 n=67 v=43
78525 Off ch=8 n=67 v=0
78528 On ch=8 n=72 v=50
78589 Off ch=8 n=72 v=0
78592 On ch=8 n=76 v=52
78653 Off ch=8 n=76 v=0
78656 On ch=8 n=72 v=42
78717 Off ch=8 n=72 v=0
78720 On ch=8 n=69 v=45
78781 Off ch=8 n=69 v=0
78784 On ch=8 n=72 v=52
78845 Off ch=8 n=72 v=0
78848 On ch=8 n=55 v=39
78970 Off ch=8 n=55 v=0
79424 On ch=8 n=74 v=42
79485 Off ch=8 n=74 v=0
79488 On ch=8 n=71 v=44
79549 Off ch=8 n=71 v=0
79552 On ch=8 n=74 v=51
79613 Off ch=8 n=74 v=0
79616 On ch=8 n=79 v=57
79677 Off ch=8 n=79 v=0
79680 On ch=8 n=74 v=43
79741 Off ch=8 n=74 v=0
79744 On ch=8 n=71 v=47
79805 Off ch=8 n=71 v=0
79808 On ch=8 n=74 v=51
79869 Off ch=8 n=74 v=0
79872 On ch=8 n=67 v=43
79994 Off ch=8 n=67 v=0
80448 On ch=8 n=67 v=45
80509 Off ch=8 n=67 v=0
80512 On ch=8 n=64 v=45
80573 Off ch=8 n=64 v=0
80576 On ch=8 n=67 v=49
80637 Off ch=8 n=67 v=0
80640 On ch=8 n=72 v=57
80701 Off ch=8 n=72 v=0
80704 On ch=8 n=64 v=39
80765 Off ch=8 n=64 v=0
80768 On ch=8 n=60 v=42
80829 Off ch=8 n=60 v=0
80832 On ch=8 n=66 v=52
80893 Off ch=8 n=66 v=0
80896 On ch=8 n=66 v=48
81018 Off ch=8 n=66 v=0
81472 On ch=8 n=69 v=45
81533 Off ch=8 n=69 v=0
81536 On ch=8 n=66 v=43
81597 Off ch=8 n=66 v=0
81600 On ch=8 n=69 v=47
81661 Off ch=8 n=69 v=0
81664 On ch=8 n=74 v=55
81725 Off ch=8 n=74 v=0
81728 On ch=8 n=69 v=44
81789 Off ch=8 n=69 v=0
81792 On ch=8 n=64 v=42
81853 Off ch=8 n=64 v=0
81856 On ch=8 n=71 v=54
81917 Off ch=8 n=71 v=0
81920 On ch=8 n=64 v=39
82042 Off ch=8 n=64 v=0
82496 On ch=8 n=72 v=46
82557 Off ch=8 n=72 v=0
82560 On ch=8 n=69 v=41
82621 Off ch=8 n=69 v=0
82624 On ch=8 n=72 v=51
82685 Off ch=8 n=72 v=0
82688 On ch=8 n=76 v=54
82749 Off ch=8 n=76 v=0
82752 On ch=8 n=72 v=46
82813 Off ch=8 n=72 v=0
82816 On ch=8 n=69 v=43
82877 Off ch=8 n=69 v=0
82880 On ch=8 n=72 v=55
82941 Off ch=8 n=72 v=0
82944 On ch=8 n=64 v=38
83188 Off ch=8 n=64 v=0
83520 On ch=8 n=71 v=40
83581 Off ch=8 n=71 v=0
83584 On ch=8 n=64 v=39
83645 Off ch=8 n=64 v=0
83648 On ch=8 n=71 v=58
83709 Off ch=8 n=71 v=0
83712 On ch=8 n=76 v=55
83773 Off ch=8 n=76 v=0
83776 On ch=8 n=71 v=46
83837 Off ch=8 n=71 v=0
83840 On ch=8 n=64 v=37
83901 Off ch=8 n=64 v=0
83904 On ch=8 n=74 v=61
83965 Off ch=8 n=74 v=0
83968 On ch=8 n=64 v=47
83968 On ch=8 n=72 v=47
84212 Off ch=8 n=64 v=0
84212 Off ch=8 n=72 v=0
84544 On ch=8 n=64 v=47
84605 Off ch=8 n=64 v=0
84608 On ch=8 n=59 v=44
84669 Off ch=8 n=59 v=0
84672 On ch=8 n=64 v=59
84733 Off ch=8 n=64 v=0
84736 On ch=8 n=71 v=59
84797 Off ch=8 n=71 v=0
84800 On ch=8 n=64 v=39
84861 Off ch=8 n=64 v=0
84864 On ch=8 n=60 v=40
84925 Off ch=8 n=60 v=0
84928 On ch=8 n=66 v=57
84989 Off ch=8 n=66 v=0
84992 On ch=8 n=66 v=44
85114 Off ch=8 n=66 v=0
85568 On ch=8 n=66 v=43
85629 Off ch=8 n=66 v=0
85632 On ch=8 n=62 v=42
85693 Off ch=8 n=62 v=0
85696 On ch=8 n=66 v=56
85757 Off ch=8 n=66 v=0
85760 On ch=8 n=69 v=48
85821 Off ch=8 n=69 v=0
85824 On ch=8 n=62 v=43
85885 Off ch=8 n=62 v=0
85888 On ch=8 n=59 v=41
85949 Off ch=8 n=59 v=0
85952 On ch=8 n=64 v=53
86013 Off ch=8 n=64 v=0
86016 On ch=8 n=64 v=53
86138 Off ch=8 n=64 v=0
86592 On ch=8 n=72 v=44
86653 Off ch=8 n=72 v=0
86656 On ch=8 n=69 v=38
86717 Off ch=8 n=69 v=0
86720 On ch=8 n=72 v=51
86781 Off ch=8 n=72 v=0
86784 On ch=8 n=76 v=51
86845 Off ch=8 n=76 v=0
86848 On ch=8 n=72 v=44
86909 Off ch=8 n=72 v=0
86912 On ch=8 n=69 v=40
86973 Off ch=8 n=69 v=0
86976 On ch=8 n=72 v=50
87037 Off ch=8 n=72 v=0
87040 On ch=8 n=64 v=43
87162 Off ch=8 n=64 v=0
87616 On ch=8 n=71 v=48
87677 Off ch=8 n=71 v=0
87680 On ch=8 n=64 v=37
87741 Off ch=8 n=64 v=0
87744 On ch=8 n=71 v=55
87805 Off ch=8 n=71 v=0
87808 On ch=8 n=76 v=55
87869 Off ch=8 n=76 v=0
87872 On ch=8 n=71 v=46
87933 Off ch=8 n=71 v=0
87936 On ch=8 n=64 v=37
87997 Off ch=8 n=64 v=0
88000 On ch=8 n=74 v=60
88061 Off ch=8 n=74 v=0
88064 On ch=8 n=64 v=43
88064 On ch=8 n=73 v=43
88186 Off ch=8 n=64 v=0
88186 Off ch=8 n=73 v=0
88640 On ch=8 n=73 v=49
88701 Off ch=8 n=73 v=0
88704 On ch=8 n=67 v=40
88765 Off ch=8 n=67 v=0
88768 On ch=8 n=73 v=52
88829 Off ch=8 n=73 v=0
88832 On ch=8 n=76 v=52
88893 Off ch=8 n=76 v=0
88896 On ch=8 n=73 v=45
88957 Off ch=8 n=73 v=0
88960 On ch=8 n=67 v=43
89021 Off ch=8 n=67 v=0
89024 On ch=8 n=76 v=61
89085 Off ch=8 n=76 v=0
89088 On ch=8 n=77 v=55
89210 Off ch=8 n=77 v=0
89664 On ch=8 n=65 v=43
89725 Off ch=8 n=65 v=0
89728 On ch=8 n=62 v=42
89789 Off ch=8 n=62 v=0
89792 On ch=8 n=65 v=48
89853 Off ch=8 n=65 v=0
89856 On ch=8 n=71 v=57
89917 Off ch=8 n=71 v=0
89920 On ch=8 n=65 v=39
89981 Off ch=8 n=65 v=0
89984 On ch=8 n=62 v=42
90045 Off ch=8 n=62 v=0
90048 On ch=8 n=74 v=63
90109 Off ch=8 n=74 v=0
90112 On ch=8 n=64 v=47
90112 On ch=8 n=73 v=47
90234 Off ch=8 n=64 v=0
90234 Off ch=8 n=73 v=0
90688 On ch=8 n=73 v=49
90749 Off ch=8 n=73 v=0
90752 On ch=8 n=67 v=43
90813 Off ch=8 n=67 v=0
90816 On ch=8 n=73 v=58
90877 Off ch=8 n=73 v=0
90880 On ch=8 n=76 v=62
90941 Off ch=8 n=76 v=0
90944 On ch=8 n=73 v=56
91005 Off ch=8 n=73 v=0
91008 On ch=8 n=67 v=48
91069 Off ch=8 n=67 v=0
91072 On ch=8 n=76 v=75
91133 Off ch=8 n=76 v=0
91136 On ch=8 n=77 v=58
91258 Off ch=8 n=77 v=0
91712 On ch=8 n=65 v=64
91773 Off ch=8 n=65 v=0
91776 On ch=8 n=62 v=64
91837 Off ch=8 n=62 v=0
91840 On ch=8 n=65 v=77
91901 Off ch=8 n=65 v=0
91904 On ch=8 n=71 v=85
91965 Off ch=8 n=71 v=0
91968 On ch=8 n=65 v=64
92029 Off ch=8 n=65 v=0
92032 On ch=8 n=62 v=71
92093 Off ch=8 n=62 v=0
92096 On ch=8 n=74 v=96
92157 Off ch=8 n=74 v=0
92160 On ch=8 n=73 v=73
92282 Off ch=8 n=73 v=0
92736 On ch=8 n=65 v=60
92797 Off ch=8 n=65 v=0
92800 On ch=8 n=62 v=58
92861 Off ch=8 n=62 v=0
92864 On ch=8 n=65 v=66
92925 Off ch=8 n=65 v=0
92928 On ch=8 n=71 v=59
92989 Off ch=8 n=71 v=0
92992 On ch=8 n=65 v=50
93053 Off ch=8 n=65 v=0
93056 On ch=8 n=62 v=43
93117 Off ch=8 n=62 v=0
93120 On ch=8 n=68 v=56
93181 Off ch=8 n=68 v=0
93184 On ch=8 n=69 v=42
93428 Off ch=8 n=69 v=0
93440 On ch=8 n=69 v=34
93513 Off ch=8 n=69 v=0
93568 On ch=8 n=71 v=41
93641 Off ch=8 n=71 v=0
93696 On ch=8 n=72 v=40
93842 Off ch=8 n=72 v=0
93952 On ch=8 n=72 v=35
94090 Off ch=8 n=72 v=0
94208 On ch=8 n=71 v=33
94452 Off ch=8 n=71 v=0
94464 On ch=8 n=71 v=37
94537 Off ch=8 n=71 v=0
94592 On ch=8 n=73 v=40
94665 Off ch=8 n=73 v=0
94720 On ch=8 n=74 v=39
94793 Off ch=8 n=74 v=0
94848 On ch=8 n=72 v=28
94921 Off ch=8 n=72 v=0
94976 On ch=8 n=71 v=32
95049 Off ch=8 n=71 v=0
95104 On ch=8 n=69 v=36
95177 Off ch=8 n=69 v=0
95232 On ch=8 n=67 v=33
95268 Off ch=8 n=67 v=0
95296 On ch=8 n=69 v=57
95332 Off ch=8 n=69 v=0
95360 On ch=8 n=71 v=53
95396 Off ch=8 n=71 v=0
95424 On ch=8 n=69 v=45
95460 Off ch=8 n=69 v=0
95488 On ch=8 n=67 v=45
95524 Off ch=8 n=67 v=0
95552 On ch=8 n=69 v=52
95588 Off ch=8 n=69 v=0
95616 On ch=8 n=67 v=49
95652 Off ch=8 n=67 v=0
95680 On ch=8 n=66 v=46
95716 Off ch=8 n=66 v=0
95744 On ch=8 n=64 v=44
95780 Off ch=8 n=64 v=0
95808 On ch=8 n=66 v=52
95844 Off ch=8 n=66 v=0
95872 On ch=8 n=67 v=53
95908 Off ch=8 n=67 v=0
95936 On ch=8 n=69 v=49
95972 Off ch=8 n=69 v=0
96000 On ch=8 n=71 v=53
96036 Off ch=8 n=71 v=0
96064 On ch=8 n=73 v=54
96100 Off ch=8 n=73 v=0
96128 On ch=8 n=75 v=52
96164 Off ch=8 n=75 v=0
96192 On ch=8 n=76 v=54
96228 Off ch=8 n=76 v=0
96256 On ch=8 n=76 v=53
96292 Off ch=8 n=76 v=0
96320 On ch=8 n=69 v=38
96356 Off ch=8 n=69 v=0
96384 On ch=8 n=71 v=54
96420 Off ch=8 n=71 v=0
96448 On ch=8 n=73 v=53
96484 Off ch=8 n=73 v=0
96512 On ch=8 n=74 v=53
96548 Off ch=8 n=74 v=0
96576 On ch=8 n=71 v=44
96612 Off ch=8 n=71 v=0
96640 On ch=8 n=76 v=52
96676 Off ch=8 n=76 v=0
96704 On ch=8 n=74 v=43
96740 Off ch=8 n=74 v=0
96768 On ch=8 n=72 v=55
96804 Off ch=8 n=72 v=0
96832 On ch=8 n=71 v=44
96868 Off ch=8 n=71 v=0
96896 On ch=8 n=72 v=55
96932 Off ch=8 n=72 v=0
96960 On ch=8 n=74 v=50
96996 Off ch=8 n=74 v=0
97024 On ch=8 n=76 v=53
97060 Off ch=8 n=76 v=0
97088 On ch=8 n=64 v=40
97124 Off ch=8 n=64 v=0
97152 On ch=8 n=66 v=53
97188 Off ch=8 n=66 v=0
97216 On ch=8 n=68 v=51
97252 Off ch=8 n=68 v=0
97280 On ch=8 n=69 v=50
97524 Off ch=8 n=69 v=0
99200 On ch=8 n=78 v=44
99450 Off ch=8 n=78 v=0
99456 On ch=8 n=76 v=36
99700 Off ch=8 n=76 v=0
99712 On ch=8 n=83 v=44
99962 Off ch=8 n=83 v=0
99968 On ch=8 n=76 v=31
100212 Off ch=8 n=76 v=0
100224 On ch=8 n=83 v=40
100474 Off ch=8 n=83 v=0
100480 On ch=8 n=81 v=37
100724 Off ch=8 n=81 v=0
100736 On ch=8 n=83 v=40
100858 Off ch=8 n=83 v=0
100864 On ch=8 n=84 v=41
100937 Off ch=8 n=84 v=0
100992 On ch=8 n=81 v=32
101065 Off ch=8 n=81 v=0
101120 On ch=8 n=80 v=32
101156 Off ch=8 n=80 v=0
101184 On ch=8 n=80 v=34
101220 Off ch=8 n=80 v=0
101248 On ch=8 n=81 v=34
101284 Off ch=8 n=81 v=0
101312 On ch=8 n=83 v=39
101348 Off ch=8 n=83 v=0
101376 On ch=8 n=81 v=31
101620 Off ch=8 n=81 v=0
102208 On ch=8 n=78 v=45
102244 Off ch=8 n=78 v=0
102272 On ch=8 n=79 v=51
102308 Off ch=8 n=79 v=0
102336 On ch=8 n=81 v=48
102372 Off ch=8 n=81 v=0
102400 On ch=8 n=79 v=43
102522 Off ch=8 n=79 v=0
102528 On ch=8 n=67 v=36
102650 Off ch=8 n=67 v=0
102656 On ch=8 n=72 v=48
103156 Off ch=8 n=72 v=0
103168 On ch=8 n=72 v=52
103241 Off ch=8 n=72 v=0
103296 On ch=8 n=74 v=49
103369 Off ch=8 n=74 v=0
103424 On ch=8 n=76 v=55
103570 Off ch=8 n=76 v=0
103680 On ch=8 n=76 v=48
103818 Off ch=8 n=76 v=0
103936 On ch=8 n=71 v=42
103972 Off ch=8 n=71 v=0
104000 On ch=8 n=72 v=50
104036 Off ch=8 n=72 v=0
104064 On ch=8 n=74 v=52
104100 Off ch=8 n=74 v=0
104128 On ch=8 n=72 v=48
104164 Off ch=8 n=72 v=0
104192 On ch=8 n=71 v=45
104228 Off ch=8 n=71 v=0
104256 On ch=8 n=74 v=50
104292 Off ch=8 n=74 v=0
104320 On ch=8 n=72 v=45
104356 Off ch=8 n=72 v=0
104384 On ch=8 n=71 v=47
104420 Off ch=8 n=71 v=0
104448 On ch=8 n=69 v=47
104484 Off ch=8 n=69 v=0
104512 On ch=8 n=71 v=52
104548 Off ch=8 n=71 v=0
104576 On ch=8 n=72 v=54
104612 Off ch=8 n=72 v=0
104640 On ch=8 n=74 v=54
104676 Off ch=8 n=74 v=0
104704 On ch=8 n=76 v=48
104740 Off ch=8 n=76 v=0
104768 On ch=8 n=78 v=52
104804 Off ch=8 n=78 v=0
104832 On ch=8 n=80 v=48
104868 Off ch=8 n=80 v=0
104896 On ch=8 n=81 v=52
104932 Off ch=8 n=81 v=0
104960 On ch=8 n=67 v=35
104996 Off ch=8 n=67 v=0
105024 On ch=8 n=69 v=45
105060 Off ch=8 n=69 v=0
105088 On ch=8 n=70 v=49
105124 Off ch=8 n=70 v=0
105152 On ch=8 n=69 v=47
105188 Off ch=8 n=69 v=0
105216 On ch=8 n=67 v=42
105252 Off ch=8 n=67 v=0
105280 On ch=8 n=70 v=54
105316 Off ch=8 n=70 v=0
105344 On ch=8 n=69 v=46
105380 Off ch=8 n=69 v=0
105408 On ch=8 n=67 v=48
105444 Off ch=8 n=67 v=0
105472 On ch=8 n=65 v=46
105508 Off ch=8 n=65 v=0
105536 On ch=8 n=67 v=53
105572 Off ch=8 n=67 v=0
105600 On ch=8 n=69 v=53
105636 Off ch=8 n=69 v=0
105664 On ch=8 n=70 v=50
105700 Off ch=8 n=70 v=0
105728 On ch=8 n=72 v=52
105850 Off ch=8 n=72 v=0
105856 On ch=8 n=81 v=58
106106 Off ch=8 n=81 v=0
106112 On ch=8 n=79 v=48
106356 Off ch=8 n=79 v=0
106368 On ch=8 n=79 v=45
106618 Off ch=8 n=79 v=0
106624 On ch=8 n=77 v=50
106868 Off ch=8 n=77 v=0
106880 On ch=8 n=77 v=44
107002 Off ch=8 n=77 v=0
107008 On ch=8 n=77 v=53
107044 Off ch=8 n=77 v=0
107072 On ch=8 n=74 v=49
107108 Off ch=8 n=74 v=0
107136 On ch=8 n=76 v=56
107172 Off ch=8 n=76 v=0
107200 On ch=8 n=77 v=59
107236 Off ch=8 n=77 v=0
107264 On ch=8 n=74 v=53
107300 Off ch=8 n=74 v=0
107328 On ch=8 n=71 v=52
107364 Off ch=8 n=71 v=0
107392 On ch=8 n=72 v=62
107428 Off ch=8 n=72 v=0
107456 On ch=8 n=74 v=64
107492 Off ch=8 n=74 v=0
107520 On ch=8 n=71 v=56
107556 Off ch=8 n=71 v=0
107584 On ch=8 n=68 v=58
107620 Off ch=8 n=68 v=0
107648 On ch=8 n=69 v=71
107684 Off ch=8 n=69 v=0
107712 On ch=8 n=71 v=72
107748 Off ch=8 n=71 v=0
107776 On ch=8 n=68 v=67
107812 Off ch=8 n=68 v=0
107840 On ch=8 n=69 v=81
107876 Off ch=8 n=69 v=0
107904 On ch=8 n=71 v=83
107940 Off ch=8 n=71 v=0
107968 On ch=8 n=72 v=80
108004 Off ch=8 n=72 v=0
108032 On ch=8 n=74 v=85
108068 Off ch=8 n=74 v=0
108096 On ch=8 n=76 v=86
108132 Off ch=8 n=76 v=0
108160 On ch=8 n=77 v=90
108196 Off ch=8 n=77 v=0
108224 On ch=8 n=80 v=92
108260 Off ch=8 n=80 v=0
108288 On ch=8 n=81 v=92
108324 Off ch=8 n=81 v=0
108352 On ch=8 n=83 v=93
108388 Off ch=8 n=83 v=0
108416 On ch=8 n=84 v=98
108452 Off ch=8 n=84 v=0
108480 On ch=8 n=85 v=102
108516 Off ch=8 n=85 v=0
108544 On ch=8 n=86 v=101
108580 Off ch=8 n=86 v=0
108608 On ch=8 n=88 v=104
108644 Off ch=8 n=88 v=0
108672 On ch=8 n=88 v=98
108708 Off ch=8 n=88 v=0
108736 On ch=8 n=88 v=98
108772 Off ch=8 n=88 v=0
108800 On ch=8 n=88 v=103
108836 Off ch=8 n=88 v=0
108864 On ch=8 n=88 v=105
108900 Off ch=8 n=88 v=0
108928 On ch=8 n=88 v=107
108964 Off ch=8 n=88 v=0
108992 On ch=8 n=88 v=109
109028 Off ch=8 n=88 v=0
109056 On ch=8 n=76 v=112
109056 On ch=8 n=88 v=112
109300 Off ch=8 n=76 v=0
109300 Off ch=8 n=88 v=0
109312 On ch=8 n=76 v=110
109312 On ch=8 n=88 v=110
109385 Off ch=8 n=76 v=0
109385 Off ch=8 n=88 v=0
109440 On ch=8 n=76 v=111
109440 On ch=8 n=88 v=111
109513 Off ch=8 n=76 v=0
109513 Off ch=8 n=88 v=0
109568 On ch=8 n=76 v=112
109568 On ch=8 n=88 v=112
109714 Off ch=8 n=76 v=0
109714 Off ch=8 n=88 v=0
109824 On ch=8 n=76 v=109
109824 On ch=8 n=88 v=109
109962 Off ch=8 n=76 v=0
109962 Off ch=8 n=88 v=0
110080 On ch=8 n=76 v=112
110080 On ch=8 n=88 v=112
110324 Off ch=8 n=76 v=0
110324 Off ch=8 n=88 v=0
110336 On ch=8 n=76 v=111
110336 On ch=8 n=88 v=111
110409 Off ch=8 n=76 v=0
110409 Off ch=8 n=88 v=0
110464 On ch=8 n=76 v=109
110464 On ch=8 n=88 v=109
110537 Off ch=8 n=76 v=0
110537 Off ch=8 n=88 v=0
110592 On ch=8 n=76 v=111
110592 On ch=8 n=88 v=111
110738 Off ch=8 n=76 v=0
110738 Off ch=8 n=88 v=0
110848 On ch=8 n=76 v=109
110848 On ch=8 n=88 v=109
110986 Off ch=8 n=76 v=0
110986 Off ch=8 n=88 v=0
111104 On ch=8 n=76 v=115
111104 On ch=8 n=88 v=115
111348 Off ch=8 n=76 v=0
111348 Off ch=8 n=88 v=0
111360 On ch=8 n=76 v=114
111360 On ch=8 n=88 v=114
111482 Off ch=8 n=76 v=0
111482 Off ch=8 n=88 v=0
111488 On ch=8 n=76 v=113
111488 On ch=8 n=88 v=113
111610 Off ch=8 n=76 v=0
111610 Off ch=8 n=88 v=0
111616 On ch=8 n=76 v=116
111616 On ch=8 n=88 v=116
111762 Off ch=8 n=76 v=0
111762 Off ch=8 n=88 v=0
111872 On ch=8 n=76 v=109
111872 On ch=8 n=88 v=109
112010 Off ch=8 n=76 v=0
112010 Off ch=8 n=88 v=0
112128 On ch=8 n=76 v=113
112128 On ch=8 n=88 v=113
112372 Off ch=8 n=76 v=0
112372 Off ch=8 n=88 v=0
112384 On ch=8 n=78 v=82
112457 Off ch=8 n=78 v=0
112512 On ch=8 n=80 v=117
112585 Off ch=8 n=80 v=0
112640 On ch=8 n=81 v=115
112884 Off ch=8 n=81 v=0
113152 On ch=8 n=74 v=48
113188 Off ch=8 n=74 v=0
113216 On ch=8 n=71 v=39
113252 Off ch=8 n=71 v=0
113280 On ch=8 n=72 v=50
113316 Off ch=8 n=72 v=0
113344 On ch=8 n=74 v=50
113380 Off ch=8 n=74 v=0
113408 On ch=8 n=76 v=48
113444 Off ch=8 n=76 v=0
113472 On ch=8 n=74 v=45
113508 Off ch=8 n=74 v=0
113536 On ch=8 n=72 v=45
113572 Off ch=8 n=72 v=0
113600 On ch=8 n=71 v=48
113636 Off ch=8 n=71 v=0
113664 On ch=8 n=69 v=47
113908 Off ch=8 n=69 v=0
114432 On ch=8 n=76 v=44
114514 Off ch=8 n=76 v=0
114517 On ch=8 n=74 v=45
114599 Off ch=8 n=74 v=0
114602 On ch=8 n=71 v=46
114679 Off ch=8 n=71 v=0
114688 On ch=8 n=76 v=56
114770 Off ch=8 n=76 v=0
114773 On ch=8 n=73 v=47
114855 Off ch=8 n=73 v=0
114858 On ch=8 n=69 v=43
114941 Off ch=8 n=69 v=0
114944 On ch=8 n=73 v=55
115026 Off ch=8 n=73 v=0
115029 On ch=8 n=69 v=47
115111 Off ch=8 n=69 v=0
115114 On ch=8 n=64 v=42
115197 Off ch=8 n=64 v=0
115200 On ch=8 n=69 v=53
115282 Off ch=8 n=69 v=0
115285 On ch=8 n=64 v=38
115367 Off ch=8 n=64 v=0
115370 On ch=8 n=61 v=44
115453 Off ch=8 n=61 v=0
115456 On ch=8 n=73 v=61
115538 Off ch=8 n=73 v=0
115541 On ch=8 n=69 v=43
115623 Off ch=8 n=69 v=0
115626 On ch=8 n=64 v=41
115703 Off ch=8 n=64 v=0
115712 On ch=8 n=73 v=59
115794 Off ch=8 n=73 v=0
115797 On ch=8 n=66 v=43
115879 Off ch=8 n=66 v=0
115882 On ch=8 n=62 v=44
115965 Off ch=8 n=62 v=0
115968 On ch=8 n=71 v=53
116050 Off ch=8 n=71 v=0
116053 On ch=8 n=66 v=47
116135 Off ch=8 n=66 v=0
116138 On ch=8 n=62 v=44
116215 Off ch=8 n=62 v=0
116224 On ch=8 n=71 v=64
116306 Off ch=8 n=71 v=0
116309 On ch=8 n=66 v=48
116391 Off ch=8 n=66 v=0
116394 On ch=8 n=62 v=48
116477 Off ch=8 n=62 v=0
116480 On ch=8 n=69 v=62
116562 Off ch=8 n=69 v=0
116565 On ch=8 n=61 v=48
116647 Off ch=8 n=61 v=0
116650 On ch=8 n=69 v=61
116727 Off ch=8 n=69 v=0
116736 On ch=8 n=59 v=53
116818 Off ch=8 n=59 v=0
116821 On ch=8 n=62 v=63
116903 Off ch=8 n=62 v=0
116906 On ch=8 n=68 v=66
116989 Off ch=8 n=68 v=0
116992 On ch=8 n=69 v=66
117074 Off ch=8 n=69 v=0
117077 On ch=8 n=61 v=49
117159 Off ch=8 n=61 v=0
117162 On ch=8 n=69 v=66
117239 Off ch=8 n=69 v=0
117248 On ch=8 n=62 v=48
117330 Off ch=8 n=62 v=0
117333 On ch=8 n=66 v=65
117415 Off ch=8 n=66 v=0
117418 On ch=8 n=71 v=74
117501 Off ch=8 n=71 v=0
117504 On ch=8 n=73 v=66
117586 Off ch=8 n=73 v=0
117589 On ch=8 n=64 v=50
117671 Off ch=8 n=64 v=0
117674 On ch=8 n=73 v=71
117757 Off ch=8 n=73 v=0
117760 On ch=8 n=66 v=53
117842 Off ch=8 n=66 v=0
117845 On ch=8 n=69 v=65
117927 Off ch=8 n=69 v=0
117930 On ch=8 n=74 v=69
118013 Off ch=8 n=74 v=0
118016 On ch=8 n=76 v=60
118098 Off ch=8 n=76 v=0
118101 On ch=8 n=68 v=47
118183 Off ch=8 n=68 v=0
118186 On ch=8 n=76 v=63
118263 Off ch=8 n=76 v=0
118272 On ch=8 n=74 v=50
118354 Off ch=8 n=74 v=0
118357 On ch=8 n=68 v=46
118439 Off ch=8 n=68 v=0
118442 On ch=8 n=71 v=55
118525 Off ch=8 n=71 v=0
118528 On ch=8 n=69 v=50
118610 Off ch=8 n=69 v=0
118613 On ch=8 n=73 v=56
118695 Off ch=8 n=73 v=0
118698 On ch=8 n=81 v=57
118775 Off ch=8 n=81 v=0
118784 On ch=8 n=81 v=47
118866 Off ch=8 n=81 v=0
118869 On ch=8 n=73 v=41
118951 Off ch=8 n=73 v=0
118954 On ch=8 n=69 v=46
119037 Off ch=8 n=69 v=0
119040 On ch=8 n=76 v=58
119122 Off ch=8 n=76 v=0
119125 On ch=8 n=73 v=48
119207 Off ch=8 n=73 v=0
119210 On ch=8 n=67 v=47
119293 Off ch=8 n=67 v=0
119296 On ch=8 n=73 v=60
119378 Off ch=8 n=73 v=0
119381 On ch=8 n=67 v=48
119463 Off ch=8 n=67 v=0
119466 On ch=8 n=64 v=52
119549 Off ch=8 n=64 v=0
119552 On ch=8 n=76 v=72
119634 Off ch=8 n=76 v=0
119637 On ch=8 n=73 v=61
119719 Off ch=8 n=73 v=0
119722 On ch=8 n=67 v=54
119799 Off ch=8 n=67 v=0
119808 On ch=8 n=76 v=74
119890 Off ch=8 n=76 v=0
119893 On ch=8 n=73 v=61
119975 Off ch=8 n=73 v=0
119978 On ch=8 n=67 v=53
120061 Off ch=8 n=67 v=0
120064 On ch=8 n=66 v=63
120146 Off ch=8 n=66 v=0
120149 On ch=8 n=74 v=86
120231 Off ch=8 n=74 v=0
120234 On ch=8 n=76 v=78
120317 Off ch=8 n=76 v=0
120320 On ch=8 n=78 v=80
120402 Off ch=8 n=78 v=0
120405 On ch=8 n=74 v=65
120487 Off ch=8 n=74 v=0
120490 On ch=8 n=66 v=56
120573 Off ch=8 n=66 v=0
120576 On ch=8 n=64 v=67
120658 Off ch=8 n=64 v=0
120661 On ch=8 n=73 v=96
120743 Off ch=8 n=73 v=0
120746 On ch=8 n=76 v=90
120823 Off ch=8 n=76 v=0
120832 On ch=8 n=74 v=63
120914 Off ch=8 n=74 v=0
120917 On ch=8 n=69 v=53
120999 Off ch=8 n=69 v=0
121002 On ch=8 n=66 v=59
121085 Off ch=8 n=66 v=0
121088 On ch=8 n=64 v=59
121170 Off ch=8 n=64 v=0
121173 On ch=8 n=67 v=64
121255 Off ch=8 n=67 v=0
121258 On ch=8 n=73 v=74
121341 Off ch=8 n=73 v=0
121344 On ch=8 n=74 v=65
121426 Off ch=8 n=74 v=0
121429 On ch=8 n=69 v=58
121511 Off ch=8 n=69 v=0
121514 On ch=8 n=66 v=56
121597 Off ch=8 n=66 v=0
121600 On ch=8 n=64 v=57
121682 Off ch=8 n=64 v=0
121685 On ch=8 n=71 v=77
121767 Off ch=8 n=71 v=0
121770 On ch=8 n=76 v=77
121853 Off ch=8 n=76 v=0
121856 On ch=8 n=73 v=61
121938 Off ch=8 n=73 v=0
121941 On ch=8 n=69 v=55
122023 Off ch=8 n=69 v=0
122026 On ch=8 n=64 v=57
122109 Off ch=8 n=64 v=0
122112 On ch=8 n=73 v=78
122194 Off ch=8 n=73 v=0
122197 On ch=8 n=69 v=56
122279 Off ch=8 n=69 v=0
122282 On ch=8 n=64 v=55
122365 Off ch=8 n=64 v=0
122368 On ch=8 n=74 v=69
122450 Off ch=8 n=74 v=0
122453 On ch=8 n=69 v=47
122535 Off ch=8 n=69 v=0
122538 On ch=8 n=66 v=50
122621 Off ch=8 n=66 v=0
122624 On ch=8 n=76 v=72
122706 Off ch=8 n=76 v=0
122709 On ch=8 n=71 v=55
122791 Off ch=8 n=71 v=0
122794 On ch=8 n=64 v=48
122877 Off ch=8 n=64 v=0
122880 On ch=8 n=73 v=64
122962 Off ch=8 n=73 v=0
122965 On ch=8 n=69 v=58
123047 Off ch=8 n=69 v=0
123050 On ch=8 n=64 v=50
123133 Off ch=8 n=64 v=0
123136 On ch=8 n=73 v=68
123218 Off ch=8 n=73 v=0
123221 On ch=8 n=69 v=51
123303 Off ch=8 n=69 v=0
123306 On ch=8 n=64 v=48
123383 Off ch=8 n=64 v=0
123392 On ch=8 n=74 v=65
123474 Off ch=8 n=74 v=0
123477 On ch=8 n=69 v=49
123559 Off ch=8 n=69 v=0
123562 On ch=8 n=66 v=54
123645 Off ch=8 n=66 v=0
123648 On ch=8 n=76 v=69
123730 Off ch=8 n=76 v=0
123733 On ch=8 n=71 v=52
123815 Off ch=8 n=71 v=0
123818 On ch=8 n=76 v=61
123895 Off ch=8 n=76 v=0
123904 On ch=8 n=69 v=29
125927 Off ch=8 n=69 v=0
125952 On ch=8 n=62 v=122
125952 On ch=8 n=71 v=122
126074 Off ch=8 n=62 v=0
126074 Off ch=8 n=71 v=0
126208 On ch=8 n=74 v=100
126208 On ch=8 n=83 v=100
126330 Off ch=8 n=74 v=0
126330 Off ch=8 n=83 v=0
126464 On ch=8 n=76 v=102
126464 On ch=8 n=84 v=102
126708 Off ch=8 n=76 v=0
126708 Off ch=8 n=84 v=0
126976 On ch=8 n=68 v=46
127220 Off ch=8 n=68 v=0
127232 On ch=8 n=66 v=48
127305 Off ch=8 n=66 v=0
127360 On ch=8 n=68 v=54
127433 Off ch=8 n=68 v=0
127488 On ch=8 n=69 v=53
127610 Off ch=8 n=69 v=0
128000 On ch=8 n=62 v=101
128000 On ch=8 n=71 v=101
128122 Off ch=8 n=62 v=0
128122 Off ch=8 n=71 v=0
128256 On ch=8 n=74 v=103
128256 On ch=8 n=83 v=103
128378 Off ch=8 n=74 v=0
128378 Off ch=8 n=83 v=0
128512 On ch=8 n=76 v=99
128512 On ch=8 n=84 v=99
128756 Off ch=8 n=76 v=0
128756 Off ch=8 n=84 v=0
129024 On ch=8 n=68 v=44
129268 Off ch=8 n=68 v=0
129280 On ch=8 n=66 v=35
129353 Off ch=8 n=66 v=0
129408 On ch=8 n=68 v=53
129481 Off ch=8 n=68 v=0
130304 PrCh ch=8 p=45
130304 Par ch=8 c=7 v=97
130304 Par ch=8 c=10 v=20
130304 Par ch=8 c=91 v=59
130304 On ch=8 n=69 v=43
130548 Off ch=8 n=69 v=0
130816 On ch=8 n=64 v=43
131060 Off ch=8 n=64 v=0
131328 On ch=8 n=64 v=43
131572 Off ch=8 n=64 v=0
131840 On ch=8 n=69 v=40
132084 Off ch=8 n=69 v=0
132352 On ch=8 n=64 v=42
132596 Off ch=8 n=64 v=0
132864 On ch=8 n=64 v=42
133108 Off ch=8 n=64 v=0
133120 On ch=8 n=62 v=45
133364 Off ch=8 n=62 v=0
133376 On ch=8 n=60 v=46
133498 Off ch=8 n=60 v=0
133504 On ch=8 n=62 v=54
133626 Off ch=8 n=62 v=0
133632 On ch=8 n=64 v=49
133876 Off ch=8 n=64 v=0
134400 On ch=8 n=60 v=42
134644 Off ch=8 n=60 v=0
134912 On ch=8 n=71 v=44
135156 Off ch=8 n=71 v=0
135424 On ch=8 n=64 v=45
135668 Off ch=8 n=64 v=0
135936 On ch=8 n=69 v=47
136180 Off ch=8 n=69 v=0
136448 On ch=8 n=60 v=38
136692 Off ch=8 n=60 v=0
136704 On ch=8 n=62 v=46
136948 Off ch=8 n=62 v=0
136960 On ch=8 n=60 v=50
137204 Off ch=8 n=60 v=0
137216 On ch=8 n=62 v=52
137460 Off ch=8 n=62 v=0
137472 On ch=8 n=62 v=50
137594 Off ch=8 n=62 v=0
137600 On ch=8 n=62 v=45
137722 Off ch=8 n=62 v=0
137728 On ch=8 n=60 v=44
137972 Off ch=8 n=60 v=0
139264 On ch=8 n=62 v=41
139508 Off ch=8 n=62 v=0
139520 On ch=8 n=62 v=45
139642 Off ch=8 n=62 v=0
139648 On ch=8 n=62 v=51
139770 Off ch=8 n=62 v=0
139776 On ch=8 n=60 v=46
140020 Off ch=8 n=60 v=0
140288 On ch=8 n=60 v=47
140532 Off ch=8 n=60 v=0
140544 PrCh ch=8 p=48
140544 Par ch=8 c=7 v=97
140544 Par ch=8 c=10 v=20
140544 Par ch=8 c=91 v=59
140544 On ch=8 n=76 v=56
140788 Off ch=8 n=76 v=0
140800 On ch=8 n=78 v=105
140873 Off ch=8 n=78 v=0
140928 On ch=8 n=80 v=85
141001 Off ch=8 n=80 v=0
141056 On ch=8 n=81 v=72
141300 Off ch=8 n=81 v=0
13312 On ch=13 n=64 v=41
13568 Off ch=13 n=64 v=0
13568 On ch=13 n=64 v=28
13644 Off ch=13 n=64 v=0
13696 On ch=13 n=64 v=37
13772 Off ch=13 n=64 v=0
13824 On ch=13 n=64 v=35
13977 Off ch=13 n=64 v=0
14080 On ch=13 n=64 v=38
14225 Off ch=13 n=64 v=0
14336 On ch=13 n=64 v=37
14592 Off ch=13 n=64 v=0
14592 On ch=13 n=64 v=36
14668 Off ch=13 n=64 v=0
14720 On ch=13 n=64 v=37
14796 Off ch=13 n=64 v=0
14848 On ch=13 n=64 v=35
15001 Off ch=13 n=64 v=0
15104 On ch=13 n=64 v=36
15249 Off ch=13 n=64 v=0
15360 On ch=13 n=64 v=41
15616 Off ch=13 n=64 v=0
15616 On ch=13 n=64 v=35
15692 Off ch=13 n=64 v=0
15744 On ch=13 n=66 v=40
15820 Off ch=13 n=66 v=0
15872 On ch=13 n=67 v=31
16025 Off ch=13 n=67 v=0
16128 On ch=13 n=67 v=34
16273 Off ch=13 n=67 v=0
16384 On ch=13 n=67 v=33
16640 Off ch=13 n=67 v=0
16640 On ch=13 n=67 v=31
16716 Off ch=13 n=67 v=0
16768 On ch=13 n=67 v=36
16844 Off ch=13 n=67 v=0
16896 On ch=13 n=67 v=38
17152 Off ch=13 n=67 v=0
17408 On ch=13 n=67 v=32
17664 Off ch=13 n=67 v=0
17664 On ch=13 n=67 v=38
17740 Off ch=13 n=67 v=0
17792 On ch=13 n=69 v=37
17868 Off ch=13 n=69 v=0
17920 On ch=13 n=71 v=39
18073 Off ch=13 n=71 v=0
18176 On ch=13 n=71 v=37
18321 Off ch=13 n=71 v=0
18432 On ch=13 n=66 v=29
18688 Off ch=13 n=66 v=0
18688 On ch=13 n=66 v=36
18764 Off ch=13 n=66 v=0
18816 On ch=13 n=68 v=38
18892 Off ch=13 n=68 v=0
18944 On ch=13 n=69 v=37
19097 Off ch=13 n=69 v=0
19200 On ch=13 n=69 v=37
19345 Off ch=13 n=69 v=0
19456 On ch=13 n=64 v=28
19712 Off ch=13 n=64 v=0
19712 On ch=13 n=64 v=37
19788 Off ch=13 n=64 v=0
19840 On ch=13 n=64 v=36
19916 Off ch=13 n=64 v=0
19968 On ch=13 n=64 v=36
20121 Off ch=13 n=64 v=0
20224 On ch=13 n=64 v=35
20369 Off ch=13 n=64 v=0
20480 On ch=13 n=64 v=36
20736 Off ch=13 n=64 v=0
20736 On ch=13 n=66 v=35
20812 Off ch=13 n=66 v=0
20864 On ch=13 n=68 v=40
20940 Off ch=13 n=68 v=0
20992 On ch=13 n=69 v=40
21248 Off ch=13 n=69 v=0
21504 On ch=13 n=67 v=33
21760 Off ch=13 n=67 v=0
21760 On ch=13 n=67 v=35
21836 Off ch=13 n=67 v=0
21888 On ch=13 n=69 v=36
21964 Off ch=13 n=69 v=0
22016 On ch=13 n=71 v=40
22169 Off ch=13 n=71 v=0
22272 On ch=13 n=71 v=37
22417 Off ch=13 n=71 v=0
22528 On ch=13 n=66 v=30
22784 Off ch=13 n=66 v=0
22784 On ch=13 n=66 v=30
22860 Off ch=13 n=66 v=0
22912 On ch=13 n=68 v=38
22988 Off ch=13 n=68 v=0
23040 On ch=13 n=69 v=37
23193 Off ch=13 n=69 v=0
23296 On ch=13 n=69 v=29
23441 Off ch=13 n=69 v=0
23552 On ch=13 n=64 v=31
23808 Off ch=13 n=64 v=0
23808 On ch=13 n=64 v=35
23884 Off ch=13 n=64 v=0
23936 On ch=13 n=64 v=36
24012 Off ch=13 n=64 v=0
24064 On ch=13 n=64 v=37
24217 Off ch=13 n=64 v=0
24320 On ch=13 n=64 v=35
24465 Off ch=13 n=64 v=0
24576 On ch=13 n=64 v=36
24832 Off ch=13 n=64 v=0
24832 On ch=13 n=66 v=34
24908 Off ch=13 n=66 v=0
24960 On ch=13 n=68 v=36
25036 Off ch=13 n=68 v=0
25088 On ch=13 n=69 v=37
25344 Off ch=13 n=69 v=0
25600 On ch=13 n=72 v=49
26112 On ch=13 n=71 v=49
26122 Off ch=13 n=72 v=0
26593 Off ch=13 n=71 v=0
26624 On ch=13 n=71 v=59
26688 Off ch=13 n=71 v=0
26688 On ch=13 n=72 v=59
26752 On ch=13 n=74 v=59
26752 Off ch=13 n=72 v=0
27008 Off ch=13 n=74 v=0
27008 On ch=13 n=72 v=56
27072 On ch=13 n=71 v=44
27073 Off ch=13 n=72 v=0
27132 Off ch=13 n=71 v=0
27136 On ch=13 n=71 v=50
27264 On ch=13 n=72 v=48
27266 Off ch=13 n=71 v=0
27385 Off ch=13 n=72 v=0
27392 On ch=13 n=72 v=56
27648 Off ch=13 n=72 v=0
27648 On ch=13 n=72 v=49
28032 Off ch=13 n=72 v=0
28032 On ch=13 n=72 v=59
28096 On ch=13 n=74 v=63
28097 Off ch=13 n=72 v=0
28156 Off ch=13 n=74 v=0
28160 On ch=13 n=75 v=60
28288 On ch=13 n=76 v=66
28290 Off ch=13 n=75 v=0
28409 Off ch=13 n=76 v=0
28416 On ch=13 n=76 v=53
28492 Off ch=13 n=76 v=0
28544 On ch=13 n=76 v=58
28620 Off ch=13 n=76 v=0
28672 On ch=13 n=74 v=53
28732 Off ch=13 n=74 v=0
28732 On ch=13 n=76 v=53
28792 On ch=13 n=77 v=53
28792 Off ch=13 n=76 v=0
29056 Off ch=13 n=77 v=0
29056 On ch=13 n=76 v=50
29120 On ch=13 n=74 v=49
29121 Off ch=13 n=76 v=0
29180 Off ch=13 n=74 v=0
29184 On ch=13 n=74 v=51
29312 On ch=13 n=76 v=51
29314 Off ch=13 n=74 v=0
29433 Off ch=13 n=76 v=0
29440 On ch=13 n=76 v=52
29696 Off ch=13 n=76 v=0
29696 On ch=13 n=76 v=53
30208 On ch=13 n=75 v=53
30218 Off ch=13 n=76 v=0
30694 Off ch=13 n=75 v=0
30720 On ch=13 n=74 v=51
30848 On ch=13 n=71 v=45
30850 Off ch=13 n=74 v=0
30912 On ch=13 n=73 v=54
30913 Off ch=13 n=71 v=0
30976 On ch=13 n=74 v=53
30977 Off ch=13 n=73 v=0
31104 On ch=13 n=76 v=58
31106 Off ch=13 n=74 v=0
31168 On ch=13 n=74 v=55
31169 Off ch=13 n=76 v=0
31228 Off ch=13 n=74 v=0
31232 On ch=13 n=74 v=49
31360 On ch=13 n=73 v=46
31362 Off ch=13 n=74 v=0
31481 Off ch=13 n=73 v=0
31488 On ch=13 n=72 v=49
31744 Off ch=13 n=72 v=0
31744 On ch=13 n=72 v=50
32256 On ch=13 n=71 v=49
32266 Off ch=13 n=72 v=0
32512 On ch=13 n=72 v=52
32517 Off ch=13 n=71 v=0
32741 Off ch=13 n=72 v=0
32768 On ch=13 n=71 v=55
32828 Off ch=13 n=71 v=0
32828 On ch=13 n=72 v=55
32888 On ch=13 n=74 v=55
32888 Off ch=13 n=72 v=0
33152 Off ch=13 n=74 v=0
33152 On ch=13 n=72 v=53
33216 On ch=13 n=71 v=51
33217 Off ch=13 n=72 v=0
33276 Off ch=13 n=71 v=0
33280 On ch=13 n=69 v=48
33408 Off ch=13 n=69 v=0
33408 On ch=13 n=69 v=53
33472 On ch=13 n=71 v=54
33473 Off ch=13 n=69 v=0
33532 Off ch=13 n=71 v=0
33536 On ch=13 n=72 v=57
33612 Off ch=13 n=72 v=0
33664 On ch=13 n=72 v=60
33728 On ch=13 n=74 v=62
33729 Off ch=13 n=72 v=0
33788 Off ch=13 n=74 v=0
33792 On ch=13 n=76 v=104
34304 On ch=13 n=75 v=102
34314 Off ch=13 n=76 v=0
34790 Off ch=13 n=75 v=0
34816 On ch=13 n=74 v=95
34944 On ch=13 n=71 v=88
34946 Off ch=13 n=74 v=0
35008 On ch=13 n=73 v=113
35009 Off ch=13 n=71 v=0
35072 On ch=13 n=74 v=115
35073 Off ch=13 n=73 v=0
35200 On ch=13 n=76 v=114
35202 Off ch=13 n=74 v=0
35264 On ch=13 n=74 v=108
35265 Off ch=13 n=76 v=0
35324 Off ch=13 n=74 v=0
35328 On ch=13 n=74 v=108
35456 On ch=13 n=73 v=102
35458 Off ch=13 n=74 v=0
35577 Off ch=13 n=73 v=0
35584 On ch=13 n=72 v=97
35840 Off ch=13 n=72 v=0
35840 On ch=13 n=72 v=106
36352 On ch=13 n=71 v=102
36362 Off ch=13 n=72 v=0
36608 On ch=13 n=72 v=109
36613 Off ch=13 n=71 v=0
36837 Off ch=13 n=72 v=0
36864 On ch=13 n=71 v=107
36924 Off ch=13 n=71 v=0
36924 On ch=13 n=72 v=107
36984 On ch=13 n=74 v=107
36984 Off ch=13 n=72 v=0
37248 Off ch=13 n=74 v=0
37248 On ch=13 n=72 v=106
37312 On ch=13 n=71 v=101
37313 Off ch=13 n=72 v=0
37372 Off ch=13 n=71 v=0
37376 On ch=13 n=69 v=100
37632 Off ch=13 n=69 v=0
38016 On ch=13 n=69 v=103
38144 On ch=13 n=72 v=104
38146 Off ch=13 n=69 v=0
38272 On ch=13 n=64 v=83
38274 Off ch=13 n=72 v=0
38393 Off ch=13 n=64 v=0
38528 On ch=13 n=71 v=86
38656 On ch=13 n=74 v=97
38658 Off ch=13 n=71 v=0
38784 On ch=13 n=64 v=73
38786 Off ch=13 n=74 v=0
38905 Off ch=13 n=64 v=0
39040 On ch=13 n=71 v=86
39168 On ch=13 n=74 v=91
39170 Off ch=13 n=71 v=0
39296 On ch=13 n=68 v=79
39298 Off ch=13 n=74 v=0
39417 Off ch=13 n=68 v=0
39552 On ch=13 n=72 v=85
39680 On ch=13 n=76 v=89
39682 Off ch=13 n=72 v=0
39808 On ch=13 n=69 v=77
39810 Off ch=13 n=76 v=0
39929 Off ch=13 n=69 v=0
40064 On ch=13 n=69 v=88
40192 On ch=13 n=72 v=93
40194 Off ch=13 n=69 v=0
40320 On ch=13 n=60 v=69
40322 Off ch=13 n=72 v=0
40441 Off ch=13 n=60 v=0
40576 On ch=13 n=72 v=83
40704 On ch=13 n=76 v=92
40706 Off ch=13 n=72 v=0
40832 On ch=13 n=64 v=76
40834 Off ch=13 n=76 v=0
40953 Off ch=13 n=64 v=0
41088 On ch=13 n=71 v=91
41216 On ch=13 n=74 v=96
41218 Off ch=13 n=71 v=0
41344 On ch=13 n=67 v=77
41346 Off ch=13 n=74 v=0
41465 Off ch=13 n=67 v=0
41600 On ch=13 n=72 v=84
41728 On ch=13 n=76 v=93
41730 Off ch=13 n=72 v=0
41856 On ch=13 n=67 v=77
41858 Off ch=13 n=76 v=0
41977 Off ch=13 n=67 v=0
42112 On ch=13 n=72 v=86
42240 On ch=13 n=76 v=98
42242 Off ch=13 n=72 v=0
42368 On ch=13 n=64 v=70
42370 Off ch=13 n=76 v=0
42489 Off ch=13 n=64 v=0
42624 On ch=13 n=75 v=88
42752 On ch=13 n=83 v=104
42754 Off ch=13 n=75 v=0
42880 On ch=13 n=71 v=76
42882 Off ch=13 n=83 v=0
43001 Off ch=13 n=71 v=0
43136 On ch=13 n=71 v=88
43264 On ch=13 n=74 v=96
43266 Off ch=13 n=71 v=0
43392 On ch=13 n=62 v=70
43394 Off ch=13 n=74 v=0
43513 Off ch=13 n=62 v=0
43648 On ch=13 n=73 v=90
43776 On ch=13 n=81 v=103
43778 Off ch=13 n=73 v=0
43904 On ch=13 n=69 v=74
43906 Off ch=13 n=81 v=0
44025 Off ch=13 n=69 v=0
44160 On ch=13 n=72 v=85
44288 On ch=13 n=76 v=98
44290 Off ch=13 n=72 v=0
44416 On ch=13 n=64 v=71
44418 Off ch=13 n=76 v=0
44537 Off ch=13 n=64 v=0
44672 On ch=13 n=71 v=85
44800 On ch=13 n=76 v=100
44802 Off ch=13 n=71 v=0
44928 On ch=13 n=64 v=76
44930 Off ch=13 n=76 v=0
45049 Off ch=13 n=64 v=0
45184 On ch=13 n=71 v=89
45312 On ch=13 n=76 v=99
45314 Off ch=13 n=71 v=0
45440 On ch=13 n=64 v=68
45442 Off ch=13 n=76 v=0
45561 Off ch=13 n=64 v=0
45696 On ch=13 n=72 v=88
45824 On ch=13 n=76 v=100
45826 Off ch=13 n=72 v=0
45952 On ch=13 n=64 v=65
45954 Off ch=13 n=76 v=0
46073 Off ch=13 n=64 v=0
46208 On ch=13 n=72 v=78
46336 On ch=13 n=76 v=100
46338 Off ch=13 n=72 v=0
46464 On ch=13 n=64 v=58
46466 Off ch=13 n=76 v=0
46585 Off ch=13 n=64 v=0
46720 On ch=13 n=75 v=74
46848 On ch=13 n=83 v=95
46850 Off ch=13 n=75 v=0
46976 On ch=13 n=71 v=63
46978 Off ch=13 n=83 v=0
47097 Off ch=13 n=71 v=0
47232 On ch=13 n=71 v=63
47360 On ch=13 n=74 v=79
47362 Off ch=13 n=71 v=0
47488 On ch=13 n=62 v=52
47490 Off ch=13 n=74 v=0
47609 Off ch=13 n=62 v=0
47744 On ch=13 n=73 v=60
47872 On ch=13 n=81 v=84
47874 Off ch=13 n=73 v=0
48000 On ch=13 n=69 v=46
48002 Off ch=13 n=81 v=0
48121 Off ch=13 n=69 v=0
48256 On ch=13 n=72 v=51
48384 On ch=13 n=76 v=55
48386 Off ch=13 n=72 v=0
48512 On ch=13 n=64 v=41
48514 Off ch=13 n=76 v=0
48633 Off ch=13 n=64 v=0
48768 On ch=13 n=71 v=53
48896 On ch=13 n=76 v=62
48898 Off ch=13 n=71 v=0
49024 On ch=13 n=64 v=44
49026 Off ch=13 n=76 v=0
49145 Off ch=13 n=64 v=0
49280 On ch=13 n=71 v=51
49408 On ch=13 n=76 v=56
49410 Off ch=13 n=71 v=0
49536 On ch=13 n=64 v=48
49536 On ch=13 n=74 v=48
49538 Off ch=13 n=76 v=0
49657 Off ch=13 n=64 v=0
49657 Off ch=13 n=74 v=0
49664 On ch=13 n=64 v=47
49664 On ch=13 n=72 v=47
49920 Off ch=13 n=64 v=0
49920 Off ch=13 n=72 v=0
51200 On ch=13 n=59 v=54
51260 Off ch=13 n=59 v=0
51260 On ch=13 n=60 v=54
51320 On ch=13 n=62 v=54
51320 Off ch=13 n=60 v=0
51584 Off ch=13 n=62 v=0
51584 On ch=13 n=60 v=53
51648 On ch=13 n=59 v=49
51649 Off ch=13 n=60 v=0
51708 Off ch=13 n=59 v=0
51712 On ch=13 n=57 v=50
52736 Off ch=13 n=57 v=0
52736 On ch=13 n=59 v=49
53504 Off ch=13 n=59 v=0
53504 On ch=13 n=57 v=56
53760 On ch=13 n=56 v=62
53765 Off ch=13 n=57 v=0
54016 On ch=13 n=57 v=68
54021 Off ch=13 n=56 v=0
54259 Off ch=13 n=57 v=0
54272 On ch=13 n=57 v=69
54528 On ch=13 n=55 v=76
54533 Off ch=13 n=57 v=0
54784 On ch=13 n=57 v=81
54789 Off ch=13 n=55 v=0
55040 On ch=13 n=59 v=72
55045 Off ch=13 n=57 v=0
55283 Off ch=13 n=59 v=0
55296 On ch=13 n=59 v=64
55552 On ch=13 n=57 v=55
55557 Off ch=13 n=59 v=0
55680 On ch=13 n=55 v=63
55680 On ch=13 n=67 v=63
55682 Off ch=13 n=57 v=0
55801 Off ch=13 n=55 v=0
55801 Off ch=13 n=67 v=0
55808 On ch=13 n=55 v=48
55808 On ch=13 n=67 v=48
56064 Off ch=13 n=55 v=0
56064 Off ch=13 n=67 v=0
56064 On ch=13 n=55 v=46
56064 On ch=13 n=67 v=46
56960 Off ch=13 n=55 v=0
56960 Off ch=13 n=67 v=0
56960 On ch=13 n=57 v=66
56960 On ch=13 n=67 v=66
57088 Off ch=13 n=57 v=0
57088 Off ch=13 n=67 v=0
57088 On ch=13 n=57 v=65
57088 On ch=13 n=66 v=65
57600 Off ch=13 n=57 v=0
57600 Off ch=13 n=66 v=0
57600 On ch=13 n=57 v=71
57856 Off ch=13 n=57 v=0
57856 On ch=13 n=57 v=67
57984 On ch=13 n=59 v=67
57986 Off ch=13 n=57 v=0
58112 On ch=13 n=61 v=56
58114 Off ch=13 n=59 v=0
58233 Off ch=13 n=61 v=0
58240 On ch=13 n=61 v=59
58368 On ch=13 n=56 v=56
58370 Off ch=13 n=61 v=0
58496 On ch=13 n=59 v=57
58498 Off ch=13 n=56 v=0
58617 Off ch=13 n=59 v=0
58624 On ch=13 n=59 v=47
58752 On ch=13 n=57 v=46
58754 Off ch=13 n=59 v=0
58880 On ch=13 n=56 v=47
58882 Off ch=13 n=57 v=0
59123 Off ch=13 n=56 v=0
59136 On ch=13 n=59 v=44
59136 On ch=13 n=68 v=44
59392 On ch=13 n=69 v=48
59397 Off ch=13 n=68 v=0
59878 Off ch=13 n=69 v=0
59904 On ch=13 n=59 v=43
59904 On ch=13 n=68 v=43
59919 Off ch=13 n=59 v=0
60416 On ch=13 n=69 v=38
60426 Off ch=13 n=68 v=0
60902 Off ch=13 n=69 v=0
60928 On ch=13 n=59 v=29
60928 On ch=13 n=68 v=29
60948 Off ch=13 n=59 v=0
61440 On ch=13 n=69 v=32
61450 Off ch=13 n=68 v=0
61926 Off ch=13 n=69 v=0
61952 On ch=13 n=59 v=28
61952 On ch=13 n=68 v=28
61972 Off ch=13 n=59 v=0
62208 On ch=13 n=56 v=28
62213 Off ch=13 n=59 v=0
62213 Off ch=13 n=68 v=0
62451 Off ch=13 n=56 v=0
62464 On ch=13 n=55 v=38
62976 On ch=13 n=56 v=48
62986 Off ch=13 n=55 v=0
63462 Off ch=13 n=56 v=0
63488 On ch=13 n=55 v=57
64000 On ch=13 n=56 v=74
64010 Off ch=13 n=55 v=0
64486 Off ch=13 n=56 v=0
64512 On ch=13 n=55 v=73
64768 On ch=13 n=67 v=89
64773 Off ch=13 n=55 v=0
65024 On ch=13 n=66 v=75
65029 Off ch=13 n=67 v=0
65145 Off ch=13 n=66 v=0
65152 On ch=13 n=66 v=67
65280 On ch=13 n=62 v=56
65282 Off ch=13 n=66 v=0
65408 On ch=13 n=66 v=71
65410 Off ch=13 n=62 v=0
65529 Off ch=13 n=66 v=0
65536 On ch=13 n=61 v=44
65664 On ch=13 n=64 v=48
65666 Off ch=13 n=61 v=0
65785 Off ch=13 n=64 v=0
65792 On ch=13 n=64 v=51
65920 On ch=13 n=62 v=47
65922 Off ch=13 n=64 v=0
66048 On ch=13 n=61 v=48
66050 Off ch=13 n=62 v=0
66169 Off ch=13 n=61 v=0
66176 On ch=13 n=61 v=53
66304 On ch=13 n=62 v=62
66306 Off ch=13 n=61 v=0
66389 On ch=13 n=63 v=61
66390 Off ch=13 n=62 v=0
66474 On ch=13 n=64 v=60
66475 Off ch=13 n=63 v=0
66555 Off ch=13 n=64 v=0
66560 On ch=13 n=55 v=52
67072 On ch=13 n=56 v=65
67082 Off ch=13 n=55 v=0
67558 Off ch=13 n=56 v=0
67584 On ch=13 n=55 v=68
68096 On ch=13 n=56 v=80
68106 Off ch=13 n=55 v=0
68582 Off ch=13 n=56 v=0
68608 On ch=13 n=55 v=45
68864 On ch=13 n=67 v=58
68869 Off ch=13 n=55 v=0
69120 On ch=13 n=69 v=56
69125 Off ch=13 n=67 v=0
69241 Off ch=13 n=69 v=0
69248 On ch=13 n=57 v=53
69376 On ch=13 n=65 v=70
69378 Off ch=13 n=57 v=0
69504 On ch=13 n=69 v=73
69506 Off ch=13 n=65 v=0
69625 Off ch=13 n=69 v=0
69632 On ch=13 n=64 v=46
69760 On ch=13 n=67 v=45
69762 Off ch=13 n=64 v=0
69881 Off ch=13 n=67 v=0
69888 On ch=13 n=67 v=50
70016 On ch=13 n=59 v=42
70018 Off ch=13 n=67 v=0
70137 Off ch=13 n=59 v=0
70144 On ch=13 n=60 v=53
70400 Off ch=13 n=60 v=0
70400 On ch=13 n=55 v=55
70400 On ch=13 n=64 v=55
70656 On ch=13 n=65 v=59
70661 Off ch=13 n=64 v=0
71142 Off ch=13 n=65 v=0
71168 On ch=13 n=64 v=55
71654 Off ch=13 n=64 v=0
71680 On ch=13 n=55 v=61
71680 On ch=13 n=65 v=61
71705 Off ch=13 n=55 v=0
72192 On ch=13 n=64 v=44
72202 Off ch=13 n=65 v=0
72704 On ch=13 n=65 v=45
72714 Off ch=13 n=64 v=0
73190 Off ch=13 n=65 v=0
73246 Off ch=13 n=55 v=0
73642 On ch=13 n=69 v=84
73728 Off ch=13 n=69 v=0
73728 On ch=13 n=67 v=92
73779 Off ch=13 n=67 v=0
73813 On ch=13 n=65 v=88
73864 Off ch=13 n=65 v=0
73898 On ch=13 n=64 v=96
73949 Off ch=13 n=64 v=0
73984 On ch=13 n=62 v=104
74035 Off ch=13 n=62 v=0
74069 On ch=13 n=60 v=88
74120 Off ch=13 n=60 v=0
74154 On ch=13 n=59 v=93
74205 Off ch=13 n=59 v=0
74240 On ch=13 n=57 v=92
74291 Off ch=13 n=57 v=0
74325 On ch=13 n=67 v=120
74376 Off ch=13 n=67 v=0
74410 On ch=13 n=65 v=91
74461 Off ch=13 n=65 v=0
74496 On ch=13 n=64 v=93
74547 Off ch=13 n=64 v=0
74581 On ch=13 n=62 v=89
74632 Off ch=13 n=62 v=0
74666 On ch=13 n=60 v=89
74717 Off ch=13 n=60 v=0
74752 On ch=13 n=59 v=92
74837 Off ch=13 n=59 v=0
75520 On ch=13 n=59 v=104
75596 Off ch=13 n=59 v=0
75648 On ch=13 n=59 v=110
75724 Off ch=13 n=59 v=0
76288 PrCh ch=13 p=45
76288 Par ch=13 c=7 v=91
76288 Par ch=13 c=10 v=111
76288 Par ch=13 c=91 v=59
76288 On ch=13 n=57 v=47
76544 Off ch=13 n=57 v=0
76544 On ch=13 n=57 v=33
76672 Off ch=13 n=57 v=0
76672 On ch=13 n=57 v=30
76800 Off ch=13 n=57 v=0
76800 On ch=13 n=56 v=42
77056 Off ch=13 n=56 v=0
77056 On ch=13 n=56 v=38
77312 Off ch=13 n=56 v=0
77312 On ch=13 n=59 v=30
77312 On ch=13 n=68 v=30
77568 Off ch=13 n=59 v=0
77568 Off ch=13 n=68 v=0
77568 On ch=13 n=59 v=23
77568 On ch=13 n=68 v=23
77696 Off ch=13 n=59 v=0
77696 Off ch=13 n=68 v=0
77696 On ch=13 n=59 v=24
77696 On ch=13 n=68 v=24
77824 Off ch=13 n=59 v=0
77824 Off ch=13 n=68 v=0
77824 On ch=13 n=60 v=30
77824 On ch=13 n=69 v=30
78080 Off ch=13 n=60 v=0
78080 Off ch=13 n=69 v=0
78080 On ch=13 n=60 v=20
78080 On ch=13 n=69 v=20
78336 Off ch=13 n=60 v=0
78336 Off ch=13 n=69 v=0
78336 On ch=13 n=55 v=21
78592 Off ch=13 n=55 v=0
78592 On ch=13 n=55 v=23
78720 Off ch=13 n=55 v=0
78720 On ch=13 n=57 v=34
78720 On ch=13 n=69 v=34
78848 Off ch=13 n=57 v=0
78848 Off ch=13 n=69 v=0
78848 On ch=13 n=60 v=25
78848 On ch=13 n=64 v=25
79104 Off ch=13 n=60 v=0
79104 Off ch=13 n=64 v=0
79104 On ch=13 n=60 v=26
79104 On ch=13 n=64 v=26
79360 Off ch=13 n=60 v=0
79360 Off ch=13 n=64 v=0
79360 On ch=13 n=59 v=23
79360 On ch=13 n=62 v=23
79616 Off ch=13 n=59 v=0
79616 Off ch=13 n=62 v=0
79616 On ch=13 n=59 v=22
79616 On ch=13 n=62 v=22
79744 Off ch=13 n=59 v=0
79744 Off ch=13 n=62 v=0
79744 On ch=13 n=59 v=23
79744 On ch=13 n=62 v=23
79872 Off ch=13 n=59 v=0
79872 Off ch=13 n=62 v=0
79872 On ch=13 n=60 v=28
79872 On ch=13 n=64 v=28
80128 Off ch=13 n=60 v=0
80128 Off ch=13 n=64 v=0
80384 On ch=13 n=60 v=26
80384 On ch=13 n=64 v=26
80640 Off ch=13 n=60 v=0
80640 Off ch=13 n=64 v=0
80640 On ch=13 n=60 v=22
80640 On ch=13 n=64 v=22
80768 Off ch=13 n=60 v=0
80768 Off ch=13 n=64 v=0
80768 On ch=13 n=60 v=28
80768 On ch=13 n=66 v=28
80896 Off ch=13 n=60 v=0
80896 Off ch=13 n=66 v=0
80896 On ch=13 n=59 v=27
80896 On ch=13 n=66 v=27
81152 Off ch=13 n=59 v=0
81152 Off ch=13 n=66 v=0
81152 On ch=13 n=59 v=24
81152 On ch=13 n=66 v=24
81152 On ch=13 n=71 v=24
81408 Off ch=13 n=59 v=0
81408 Off ch=13 n=66 v=0
81408 Off ch=13 n=71 v=0
81408 On ch=13 n=57 v=20
81408 On ch=13 n=62 v=20
81664 Off ch=13 n=57 v=0
81664 Off ch=13 n=62 v=0
81664 On ch=13 n=57 v=22
81664 On ch=13 n=62 v=22
81792 Off ch=13 n=57 v=0
81792 Off ch=13 n=62 v=0
81792 On ch=13 n=59 v=21
81792 On ch=13 n=64 v=21
81920 Off ch=13 n=59 v=0
81920 Off ch=13 n=64 v=0
81920 On ch=13 n=57 v=25
81920 On ch=13 n=64 v=25
82176 Off ch=13 n=57 v=0
82176 Off ch=13 n=64 v=0
82176 On ch=13 n=57 v=29
82176 On ch=13 n=64 v=29
82176 On ch=13 n=69 v=29
82432 Off ch=13 n=57 v=0
82432 Off ch=13 n=64 v=0
82432 Off ch=13 n=69 v=0
82432 On ch=13 n=60 v=22
82432 On ch=13 n=69 v=22
82688 Off ch=13 n=60 v=0
82688 Off ch=13 n=69 v=0
82688 On ch=13 n=60 v=25
82688 On ch=13 n=69 v=25
82816 Off ch=13 n=60 v=0
82816 Off ch=13 n=69 v=0
82816 On ch=13 n=57 v=19
82944 Off ch=13 n=57 v=0
82944 On ch=13 n=56 v=21
83072 Off ch=13 n=56 v=0
83200 On ch=13 n=60 v=22
83200 On ch=13 n=69 v=22
83328 Off ch=13 n=60 v=0
83328 Off ch=13 n=69 v=0
83328 On ch=13 n=57 v=21
83456 Off ch=13 n=57 v=0
83456 On ch=13 n=59 v=31
83456 On ch=13 n=68 v=31
83712 Off ch=13 n=59 v=0
83712 Off ch=13 n=68 v=0
83712 On ch=13 n=69 v=24
83840 Off ch=13 n=69 v=0
83840 On ch=13 n=71 v=25
83968 Off ch=13 n=71 v=0
83968 On ch=13 n=60 v=16
83968 On ch=13 n=64 v=16
84096 Off ch=13 n=60 v=0
84096 Off ch=13 n=64 v=0
84480 On ch=13 n=59 v=22
84480 On ch=13 n=64 v=22
84736 Off ch=13 n=59 v=0
84736 Off ch=13 n=64 v=0
84736 On ch=13 n=59 v=25
84736 On ch=13 n=64 v=25
84864 Off ch=13 n=59 v=0
84864 Off ch=13 n=64 v=0
84864 On ch=13 n=60 v=26
84864 On ch=13 n=66 v=26
84992 Off ch=13 n=60 v=0
84992 Off ch=13 n=66 v=0
84992 On ch=13 n=59 v=28
84992 On ch=13 n=66 v=28
85248 Off ch=13 n=59 v=0
85248 Off ch=13 n=66 v=0
85248 On ch=13 n=59 v=29
85248 On ch=13 n=66 v=29
85248 On ch=13 n=71 v=29
85504 Off ch=13 n=59 v=0
85504 Off ch=13 n=66 v=0
85504 Off ch=13 n=71 v=0
85504 On ch=13 n=57 v=19
85504 On ch=13 n=62 v=19
85760 Off ch=13 n=57 v=0
85760 Off ch=13 n=62 v=0
85760 On ch=13 n=57 v=24
85760 On ch=13 n=62 v=24
85888 Off ch=13 n=57 v=0
85888 Off ch=13 n=62 v=0
85888 On ch=13 n=59 v=27
85888 On ch=13 n=64 v=27
86016 Off ch=13 n=59 v=0
86016 Off ch=13 n=64 v=0
86016 On ch=13 n=57 v=24
86016 On ch=13 n=64 v=24
86272 Off ch=13 n=57 v=0
86272 Off ch=13 n=64 v=0
86272 On ch=13 n=57 v=27
86272 On ch=13 n=64 v=27
86272 On ch=13 n=69 v=27
86528 Off ch=13 n=57 v=0
86528 Off ch=13 n=64 v=0
86528 Off ch=13 n=69 v=0
86528 On ch=13 n=60 v=18
86528 On ch=13 n=69 v=18
86784 Off ch=13 n=60 v=0
86784 Off ch=13 n=69 v=0
86784 On ch=13 n=60 v=25
86784 On ch=13 n=69 v=25
86912 Off ch=13 n=60 v=0
86912 Off ch=13 n=69 v=0
86912 On ch=13 n=57 v=20
87040 Off ch=13 n=57 v=0
87040 On ch=13 n=56 v=25
87168 Off ch=13 n=56 v=0
87296 On ch=13 n=60 v=22
87296 On ch=13 n=69 v=22
87424 Off ch=13 n=60 v=0
87424 Off ch=13 n=69 v=0
87424 On ch=13 n=57 v=19
87552 Off ch=13 n=57 v=0
87552 On ch=13 n=59 v=34
87552 On ch=13 n=68 v=34
87808 Off ch=13 n=59 v=0
87808 Off ch=13 n=68 v=0
87808 On ch=13 n=69 v=31
87936 Off ch=13 n=69 v=0
87936 On ch=13 n=71 v=27
88064 Off ch=13 n=71 v=0
88064 On ch=13 n=61 v=19
88064 On ch=13 n=64 v=19
88320 Off ch=13 n=61 v=0
88320 Off ch=13 n=64 v=0
88576 On ch=13 n=61 v=21
88576 On ch=13 n=64 v=21
88832 Off ch=13 n=61 v=0
88832 Off ch=13 n=64 v=0
88832 On ch=13 n=61 v=23
88832 On ch=13 n=64 v=23
88960 Off ch=13 n=61 v=0
88960 Off ch=13 n=64 v=0
88960 On ch=13 n=61 v=25
88960 On ch=13 n=64 v=25
89088 Off ch=13 n=61 v=0
89088 Off ch=13 n=64 v=0
89088 On ch=13 n=62 v=26
89088 On ch=13 n=65 v=26
89344 Off ch=13 n=62 v=0
89344 Off ch=13 n=65 v=0
89600 On ch=13 n=62 v=23
89600 On ch=13 n=65 v=23
89856 Off ch=13 n=62 v=0
89856 Off ch=13 n=65 v=0
89856 On ch=13 n=62 v=23
89856 On ch=13 n=65 v=23
89984 Off ch=13 n=62 v=0
89984 Off ch=13 n=65 v=0
89984 On ch=13 n=62 v=24
89984 On ch=13 n=65 v=24
90112 Off ch=13 n=62 v=0
90112 Off ch=13 n=65 v=0
90112 On ch=13 n=61 v=24
90112 On ch=13 n=64 v=24
90368 Off ch=13 n=61 v=0
90368 Off ch=13 n=64 v=0
90624 On ch=13 n=61 v=25
90624 On ch=13 n=64 v=25
90752 Off ch=13 n=61 v=0
90752 Off ch=13 n=64 v=0
90752 On ch=13 n=61 v=29
90752 On ch=13 n=64 v=29
90880 Off ch=13 n=61 v=0
90880 Off ch=13 n=64 v=0
90880 On ch=13 n=61 v=27
90880 On ch=13 n=64 v=27
91008 Off ch=13 n=61 v=0
91008 Off ch=13 n=64 v=0
91136 On ch=13 n=62 v=38
91136 On ch=13 n=65 v=38
91264 Off ch=13 n=62 v=0
91264 Off ch=13 n=65 v=0
91264 On ch=13 n=62 v=51
91264 On ch=13 n=65 v=51
91392 Off ch=13 n=62 v=0
91392 Off ch=13 n=65 v=0
91392 On ch=13 n=62 v=57
91392 On ch=13 n=65 v=57
91520 Off ch=13 n=62 v=0
91520 Off ch=13 n=65 v=0
91648 On ch=13 n=62 v=54
91648 On ch=13 n=65 v=54
91776 Off ch=13 n=62 v=0
91776 Off ch=13 n=65 v=0
91776 On ch=13 n=62 v=69
91776 On ch=13 n=65 v=69
91904 Off ch=13 n=62 v=0
91904 Off ch=13 n=65 v=0
91904 On ch=13 n=62 v=79
91904 On ch=13 n=65 v=79
92032 Off ch=13 n=62 v=0
92032 Off ch=13 n=65 v=0
92416 On ch=13 n=61 v=66
92416 On ch=13 n=64 v=66
92544 Off ch=13 n=61 v=0
92544 Off ch=13 n=64 v=0
92544 On ch=13 n=61 v=68
92544 On ch=13 n=64 v=68
92672 Off ch=13 n=61 v=0
92672 Off ch=13 n=64 v=0
92760 PrCh ch=13 p=48
92760 Par ch=13 c=7 v=91
92760 Par ch=13 c=10 v=111
92760 Par ch=13 c=91 v=59
92928 On ch=13 n=62 v=66
92928 On ch=13 n=65 v=66
93004 Off ch=13 n=62 v=0
93004 Off ch=13 n=65 v=0
93056 On ch=13 n=74 v=63
93132 Off ch=13 n=74 v=0
93184 On ch=13 n=72 v=35
93222 Off ch=13 n=72 v=0
93248 On ch=13 n=74 v=39
93286 Off ch=13 n=74 v=0
93312 On ch=13 n=76 v=40
93350 Off ch=13 n=76 v=0
93376 On ch=13 n=74 v=33
93414 Off ch=13 n=74 v=0
93440 On ch=13 n=72 v=34
93478 Off ch=13 n=72 v=0
93504 On ch=13 n=74 v=37
93542 Off ch=13 n=74 v=0
93568 On ch=13 n=72 v=34
93606 Off ch=13 n=72 v=0
93632 On ch=13 n=71 v=29
93670 Off ch=13 n=71 v=0
93696 On ch=13 n=69 v=36
93734 Off ch=13 n=69 v=0
93760 On ch=13 n=71 v=38
93798 Off ch=13 n=71 v=0
93824 On ch=13 n=72 v=38
93862 Off ch=13 n=72 v=0
93888 On ch=13 n=74 v=35
93926 Off ch=13 n=74 v=0
93952 On ch=13 n=76 v=40
93990 Off ch=13 n=76 v=0
94016 On ch=13 n=78 v=39
94054 Off ch=13 n=78 v=0
94080 On ch=13 n=80 v=44
94118 Off ch=13 n=80 v=0
94144 On ch=13 n=81 v=37
94182 Off ch=13 n=81 v=0
94208 On ch=13 n=80 v=34
94246 Off ch=13 n=80 v=0
94272 On ch=13 n=76 v=33
94310 Off ch=13 n=76 v=0
94336 On ch=13 n=78 v=39
94374 Off ch=13 n=78 v=0
94400 On ch=13 n=80 v=37
94438 Off ch=13 n=80 v=0
94464 On ch=13 n=81 v=36
94502 Off ch=13 n=81 v=0
94528 On ch=13 n=83 v=42
94566 Off ch=13 n=83 v=0
94592 On ch=13 n=81 v=36
94630 Off ch=13 n=81 v=0
94656 On ch=13 n=79 v=34
94694 Off ch=13 n=79 v=0
94720 On ch=13 n=78 v=37
94758 Off ch=13 n=78 v=0
94784 On ch=13 n=78 v=35
94822 Off ch=13 n=78 v=0
94848 On ch=13 n=79 v=34
94886 Off ch=13 n=79 v=0
94912 On ch=13 n=81 v=38
94950 Off ch=13 n=81 v=0
94976 On ch=13 n=83 v=37
95014 Off ch=13 n=83 v=0
95040 On ch=13 n=71 v=24
95078 Off ch=13 n=71 v=0
95104 On ch=13 n=73 v=34
95142 Off ch=13 n=73 v=0
95168 On ch=13 n=75 v=40
95206 Off ch=13 n=75 v=0
95232 On ch=13 n=76 v=37
95488 Off ch=13 n=76 v=0
95488 On ch=13 n=76 v=34
95564 Off ch=13 n=76 v=0
95616 On ch=13 n=78 v=39
95692 Off ch=13 n=78 v=0
95744 On ch=13 n=79 v=32
95897 Off ch=13 n=79 v=0
96000 On ch=13 n=79 v=37
96145 Off ch=13 n=79 v=0
96256 On ch=13 n=78 v=33
96512 Off ch=13 n=78 v=0
96512 On ch=13 n=78 v=38
96588 Off ch=13 n=78 v=0
96640 On ch=13 n=80 v=41
96716 Off ch=13 n=80 v=0
96768 On ch=13 n=81 v=43
96844 Off ch=13 n=81 v=0
96896 On ch=13 n=77 v=31
96972 Off ch=13 n=77 v=0
97024 On ch=13 n=76 v=32
97100 Off ch=13 n=76 v=0
97152 On ch=13 n=74 v=34
97408 Off ch=13 n=74 v=0
97408 On ch=13 n=72 v=29
97664 Off ch=13 n=72 v=0
97664 On ch=13 n=76 v=37
97920 Off ch=13 n=76 v=0
97920 On ch=13 n=69 v=28
98176 Off ch=13 n=69 v=0
98176 On ch=13 n=76 v=42
98432 Off ch=13 n=76 v=0
98432 On ch=13 n=74 v=31
98688 Off ch=13 n=74 v=0
98688 On ch=13 n=76 v=46
98816 Off ch=13 n=76 v=0
98816 On ch=13 n=78 v=35
98892 Off ch=13 n=78 v=0
98944 On ch=13 n=76 v=37
99020 Off ch=13 n=76 v=0
99072 On ch=13 n=75 v=33
99110 Off ch=13 n=75 v=0
99136 On ch=13 n=75 v=35
99174 Off ch=13 n=75 v=0
99200 On ch=13 n=76 v=36
99238 Off ch=13 n=76 v=0
99264 On ch=13 n=78 v=37
99302 Off ch=13 n=78 v=0
99328 On ch=13 n=79 v=38
99584 Off ch=13 n=79 v=0
101696 On ch=13 n=73 v=34
101734 Off ch=13 n=73 v=0
101760 On ch=13 n=74 v=31
101798 Off ch=13 n=74 v=0
101824 On ch=13 n=76 v=41
101862 Off ch=13 n=76 v=0
101888 On ch=13 n=74 v=33
102144 Off ch=13 n=74 v=0
102720 On ch=13 n=71 v=37
102758 Off ch=13 n=71 v=0
102784 On ch=13 n=72 v=39
102822 Off ch=13 n=72 v=0
102848 On ch=13 n=74 v=36
102886 Off ch=13 n=74 v=0
102912 On ch=13 n=76 v=41
102950 Off ch=13 n=76 v=0
102976 On ch=13 n=77 v=38
103014 Off ch=13 n=77 v=0
103040 On ch=13 n=79 v=38
103078 Off ch=13 n=79 v=0
103104 On ch=13 n=77 v=36
103142 Off ch=13 n=77 v=0
103168 On ch=13 n=76 v=33
103206 Off ch=13 n=76 v=0
103232 On ch=13 n=77 v=37
103270 Off ch=13 n=77 v=0
103296 On ch=13 n=76 v=35
103334 Off ch=13 n=76 v=0
103360 On ch=13 n=74 v=32
103398 Off ch=13 n=74 v=0
103424 On ch=13 n=72 v=30
103462 Off ch=13 n=72 v=0
103488 On ch=13 n=74 v=35
103526 Off ch=13 n=74 v=0
103552 On ch=13 n=76 v=39
103590 Off ch=13 n=76 v=0
103616 On ch=13 n=77 v=34
103654 Off ch=13 n=77 v=0
103680 On ch=13 n=79 v=39
103718 Off ch=13 n=79 v=0
103744 On ch=13 n=81 v=39
103782 Off ch=13 n=81 v=0
103808 On ch=13 n=83 v=41
103846 Off ch=13 n=83 v=0
103872 On ch=13 n=84 v=37
103910 Off ch=13 n=84 v=0
103936 On ch=13 n=78 v=34
104192 Off ch=13 n=78 v=0
104192 On ch=13 n=78 v=38
104268 Off ch=13 n=78 v=0
104320 On ch=13 n=80 v=35
104396 Off ch=13 n=80 v=0
104448 On ch=13 n=81 v=43
104704 Off ch=13 n=81 v=0
104704 On ch=13 n=81 v=39
105088 Off ch=13 n=81 v=0
105088 On ch=13 n=79 v=32
105344 Off ch=13 n=79 v=0
105344 On ch=13 n=79 v=37
105600 Off ch=13 n=79 v=0
105600 On ch=13 n=77 v=36
105856 Off ch=13 n=77 v=0
105856 On ch=13 n=77 v=38
105984 Off ch=13 n=77 v=0
105984 On ch=13 n=79 v=38
106022 Off ch=13 n=79 v=0
106048 On ch=13 n=67 v=24
106086 Off ch=13 n=67 v=0
106112 On ch=13 n=64 v=26
106150 Off ch=13 n=64 v=0
106176 On ch=13 n=62 v=32
106214 Off ch=13 n=62 v=0
106240 On ch=13 n=61 v=32
106278 Off ch=13 n=61 v=0
106304 On ch=13 n=64 v=41
106342 Off ch=13 n=64 v=0
106368 On ch=13 n=69 v=36
106406 Off ch=13 n=69 v=0
106432 On ch=13 n=67 v=30
106470 Off ch=13 n=67 v=0
106496 On ch=13 n=65 v=34
106534 Off ch=13 n=65 v=0
106560 On ch=13 n=67 v=39
106598 Off ch=13 n=67 v=0
106624 On ch=13 n=69 v=39
106662 Off ch=13 n=69 v=0
106688 On ch=13 n=71 v=37
106726 Off ch=13 n=71 v=0
106752 On ch=13 n=73 v=39
106790 Off ch=13 n=73 v=0
106816 On ch=13 n=74 v=42
106854 Off ch=13 n=74 v=0
106880 On ch=13 n=76 v=40
106918 Off ch=13 n=76 v=0
106944 On ch=13 n=77 v=40
106982 Off ch=13 n=77 v=0
107008 On ch=13 n=77 v=38
107046 Off ch=13 n=77 v=0
107072 On ch=13 n=56 v=30
107072 On ch=13 n=65 v=30
107110 Off ch=13 n=56 v=0
107110 Off ch=13 n=65 v=0
107136 On ch=13 n=56 v=40
107136 On ch=13 n=65 v=40
107174 Off ch=13 n=56 v=0
107174 Off ch=13 n=65 v=0
107200 On ch=13 n=56 v=38
107200 On ch=13 n=65 v=38
107238 Off ch=13 n=56 v=0
107238 Off ch=13 n=65 v=0
107264 On ch=13 n=56 v=40
107264 On ch=13 n=65 v=40
107302 Off ch=13 n=56 v=0
107302 Off ch=13 n=65 v=0
107328 On ch=13 n=56 v=47
107328 On ch=13 n=65 v=47
107366 Off ch=13 n=56 v=0
107366 Off ch=13 n=65 v=0
107392 On ch=13 n=56 v=47
107392 On ch=13 n=65 v=47
107430 Off ch=13 n=56 v=0
107430 Off ch=13 n=65 v=0
107456 On ch=13 n=56 v=51
107456 On ch=13 n=65 v=51
107494 Off ch=13 n=56 v=0
107494 Off ch=13 n=65 v=0
107520 On ch=13 n=56 v=51
107520 On ch=13 n=65 v=51
107558 Off ch=13 n=56 v=0
107558 Off ch=13 n=65 v=0
107584 On ch=13 n=56 v=53
107584 On ch=13 n=65 v=53
107622 Off ch=13 n=56 v=0
107622 Off ch=13 n=65 v=0
107648 On ch=13 n=56 v=62
107648 On ch=13 n=65 v=62
107686 Off ch=13 n=56 v=0
107686 Off ch=13 n=65 v=0
107712 On ch=13 n=56 v=56
107712 On ch=13 n=65 v=56
107750 Off ch=13 n=56 v=0
107750 Off ch=13 n=65 v=0
107776 On ch=13 n=56 v=65
107776 On ch=13 n=65 v=65
107814 Off ch=13 n=56 v=0
107814 Off ch=13 n=65 v=0
107840 On ch=13 n=56 v=71
107840 On ch=13 n=65 v=71
107878 Off ch=13 n=56 v=0
107878 Off ch=13 n=65 v=0
107904 On ch=13 n=56 v=70
107904 On ch=13 n=65 v=70
107942 Off ch=13 n=56 v=0
107942 Off ch=13 n=65 v=0
107968 On ch=13 n=56 v=74
107968 On ch=13 n=65 v=74
108006 Off ch=13 n=56 v=0
108006 Off ch=13 n=65 v=0
108032 On ch=13 n=56 v=71
108032 On ch=13 n=65 v=71
108070 Off ch=13 n=56 v=0
108070 Off ch=13 n=65 v=0
108096 On ch=13 n=56 v=75
108096 On ch=13 n=65 v=75
108134 Off ch=13 n=56 v=0
108134 Off ch=13 n=65 v=0
108160 On ch=13 n=56 v=80
108160 On ch=13 n=65 v=80
108198 Off ch=13 n=56 v=0
108198 Off ch=13 n=65 v=0
108224 On ch=13 n=56 v=82
108224 On ch=13 n=65 v=82
108262 Off ch=13 n=56 v=0
108262 Off ch=13 n=65 v=0
108288 On ch=13 n=56 v=85
108288 On ch=13 n=65 v=85
108326 Off ch=13 n=56 v=0
108326 Off ch=13 n=65 v=0
108352 On ch=13 n=56 v=91
108352 On ch=13 n=65 v=91
108390 Off ch=13 n=56 v=0
108390 Off ch=13 n=65 v=0
108416 On ch=13 n=56 v=89
108416 On ch=13 n=65 v=89
108454 Off ch=13 n=56 v=0
108454 Off ch=13 n=65 v=0
108480 On ch=13 n=56 v=90
108480 On ch=13 n=65 v=90
108518 Off ch=13 n=56 v=0
108518 Off ch=13 n=65 v=0
108544 On ch=13 n=56 v=101
108544 On ch=13 n=65 v=101
108582 Off ch=13 n=56 v=0
108582 Off ch=13 n=65 v=0
108608 On ch=13 n=71 v=110
108646 Off ch=13 n=71 v=0
108672 On ch=13 n=71 v=102
108710 Off ch=13 n=71 v=0
108736 On ch=13 n=71 v=102
108774 Off ch=13 n=71 v=0
108800 On ch=13 n=71 v=104
108838 Off ch=13 n=71 v=0
108864 On ch=13 n=71 v=107
108902 Off ch=13 n=71 v=0
108928 On ch=13 n=76 v=125
108966 Off ch=13 n=76 v=0
108992 On ch=13 n=74 v=110
109030 Off ch=13 n=74 v=0
109056 On ch=13 n=64 v=108
109056 On ch=13 n=72 v=108
109312 Off ch=13 n=64 v=0
109312 Off ch=13 n=72 v=0
109312 On ch=13 n=64 v=110
109312 On ch=13 n=72 v=110
109388 Off ch=13 n=64 v=0
109388 Off ch=13 n=72 v=0
109440 On ch=13 n=64 v=112
109440 On ch=13 n=72 v=112
109516 Off ch=13 n=64 v=0
109516 Off ch=13 n=72 v=0
109568 On ch=13 n=64 v=104
109568 On ch=13 n=71 v=104
109721 Off ch=13 n=64 v=0
109721 Off ch=13 n=71 v=0
109824 On ch=13 n=64 v=109
109824 On ch=13 n=71 v=109
109969 Off ch=13 n=64 v=0
109969 Off ch=13 n=71 v=0
110080 On ch=13 n=71 v=127
110080 On ch=13 n=80 v=127
110336 Off ch=13 n=71 v=0
110336 Off ch=13 n=80 v=0
110336 On ch=13 n=71 v=114
110336 On ch=13 n=80 v=114
110412 Off ch=13 n=71 v=0
110412 Off ch=13 n=80 v=0
110464 On ch=13 n=71 v=113
110464 On ch=13 n=80 v=113
110540 Off ch=13 n=71 v=0
110540 Off ch=13 n=80 v=0
110592 On ch=13 n=72 v=122
110592 On ch=13 n=81 v=122
110745 Off ch=13 n=72 v=0
110745 Off ch=13 n=81 v=0
110848 On ch=13 n=72 v=116
110848 On ch=13 n=81 v=116
110993 Off ch=13 n=72 v=0
110993 Off ch=13 n=81 v=0
111104 On ch=13 n=72 v=113
111104 On ch=13 n=81 v=113
111360 Off ch=13 n=72 v=0
111360 Off ch=13 n=81 v=0
111360 On ch=13 n=72 v=110
111360 On ch=13 n=81 v=110
111436 Off ch=13 n=72 v=0
111436 Off ch=13 n=81 v=0
111488 On ch=13 n=72 v=106
111488 On ch=13 n=81 v=106
111564 Off ch=13 n=72 v=0
111564 Off ch=13 n=81 v=0
111616 On ch=13 n=74 v=124
111616 On ch=13 n=83 v=124
111772 Off ch=13 n=74 v=0
111772 Off ch=13 n=83 v=0
111872 On ch=13 n=72 v=101
111872 On ch=13 n=81 v=101
112017 Off ch=13 n=72 v=0
112017 Off ch=13 n=81 v=0
112128 On ch=13 n=71 v=105
112128 On ch=13 n=80 v=105
112384 Off ch=13 n=71 v=0
112384 Off ch=13 n=80 v=0
112384 On ch=13 n=69 v=104
112384 On ch=13 n=78 v=104
112460 Off ch=13 n=69 v=0
112460 Off ch=13 n=78 v=0
112512 On ch=13 n=71 v=114
112512 On ch=13 n=80 v=114
112588 Off ch=13 n=71 v=0
112588 Off ch=13 n=80 v=0
112640 On ch=13 n=72 v=114
112640 On ch=13 n=81 v=114
112896 Off ch=13 n=72 v=0
112896 Off ch=13 n=81 v=0
114176 On ch=13 n=62 v=39
114214 Off ch=13 n=62 v=0
114240 On ch=13 n=59 v=43
114278 Off ch=13 n=59 v=0
114304 On ch=13 n=61 v=53
114342 Off ch=13 n=61 v=0
114368 On ch=13 n=62 v=51
114406 Off ch=13 n=62 v=0
114432 On ch=13 n=64 v=47
114470 Off ch=13 n=64 v=0
114496 On ch=13 n=62 v=47
114534 Off ch=13 n=62 v=0
114560 On ch=13 n=61 v=39
114598 Off ch=13 n=61 v=0
114624 On ch=13 n=59 v=47
114662 Off ch=13 n=59 v=0
114688 On ch=13 n=57 v=49
115712 Off ch=13 n=57 v=0
115712 On ch=13 n=59 v=52
116480 Off ch=13 n=59 v=0
116480 On ch=13 n=57 v=61
116736 On ch=13 n=56 v=61
116741 Off ch=13 n=57 v=0
116992 On ch=13 n=57 v=70
116997 Off ch=13 n=56 v=0
117235 Off ch=13 n=57 v=0
117248 On ch=13 n=57 v=73
117504 On ch=13 n=55 v=61
117509 Off ch=13 n=57 v=0
117760 On ch=13 n=57 v=65
117765 Off ch=13 n=55 v=0
118016 On ch=13 n=59 v=68
118021 Off ch=13 n=57 v=0
118259 Off ch=13 n=59 v=0
118272 On ch=13 n=59 v=65
118528 On ch=13 n=57 v=65
118533 Off ch=13 n=59 v=0
118656 On ch=13 n=55 v=83
118656 On ch=13 n=67 v=83
118658 Off ch=13 n=57 v=0
118777 Off ch=13 n=55 v=0
118777 Off ch=13 n=67 v=0
118784 On ch=13 n=55 v=54
118784 On ch=13 n=67 v=54
119040 Off ch=13 n=55 v=0
119040 Off ch=13 n=67 v=0
119040 On ch=13 n=55 v=58
119040 On ch=13 n=67 v=58
119936 Off ch=13 n=55 v=0
119936 Off ch=13 n=67 v=0
119936 On ch=13 n=57 v=77
119936 On ch=13 n=67 v=77
120064 Off ch=13 n=57 v=0
120064 Off ch=13 n=67 v=0
120064 On ch=13 n=57 v=75
120064 On ch=13 n=66 v=75
120576 Off ch=13 n=57 v=0
120576 Off ch=13 n=66 v=0
120576 On ch=13 n=57 v=82
120832 Off ch=13 n=57 v=0
120832 On ch=13 n=57 v=58
121088 On ch=13 n=55 v=59
121093 Off ch=13 n=57 v=0
121344 On ch=13 n=57 v=62
121349 Off ch=13 n=55 v=0
121600 On ch=13 n=59 v=62
121605 Off ch=13 n=57 v=0
121843 Off ch=13 n=59 v=0
121856 On ch=13 n=57 v=61
122240 On ch=13 n=55 v=57
122247 Off ch=13 n=57 v=0
122368 On ch=13 n=57 v=58
122370 Off ch=13 n=55 v=0
122624 On ch=13 n=59 v=60
122629 Off ch=13 n=57 v=0
122867 Off ch=13 n=59 v=0
122880 On ch=13 n=57 v=58
123264 On ch=13 n=55 v=53
123271 Off ch=13 n=57 v=0
123392 On ch=13 n=57 v=59
123394 Off ch=13 n=55 v=0
123648 On ch=13 n=59 v=62
123653 Off ch=13 n=57 v=0
123891 Off ch=13 n=59 v=0
123904 On ch=13 n=61 v=35
124416 On ch=13 n=62 v=36
124426 Off ch=13 n=61 v=0
124928 On ch=13 n=61 v=36
124938 Off ch=13 n=62 v=0
125440 On ch=13 n=62 v=36
125450 Off ch=13 n=61 v=0
125926 Off ch=13 n=62 v=0
125952 On ch=13 n=62 v=115
126080 Off ch=13 n=62 v=0
126208 On ch=13 n=62 v=104
126232 On ch=13 n=71 v=104
126256 On ch=13 n=79 v=104
126336 Off ch=13 n=62 v=0
126336 Off ch=13 n=71 v=0
126336 Off ch=13 n=79 v=0
126464 On ch=13 n=64 v=101
126464 On ch=13 n=72 v=101
126464 On ch=13 n=76 v=101
126720 Off ch=13 n=64 v=0
126720 Off ch=13 n=72 v=0
126720 Off ch=13 n=76 v=0
126976 On ch=13 n=62 v=43
127232 Off ch=13 n=62 v=0
127232 On ch=13 n=62 v=47
127308 Off ch=13 n=62 v=0
127360 On ch=13 n=62 v=49
127436 Off ch=13 n=62 v=0
127488 On ch=13 n=60 v=46
127616 Off ch=13 n=60 v=0
128000 On ch=13 n=62 v=100
128000 On ch=13 n=71 v=100
128128 Off ch=13 n=62 v=0
128128 Off ch=13 n=71 v=0
128256 On ch=13 n=62 v=100
128280 On ch=13 n=71 v=100
128304 On ch=13 n=79 v=100
128384 Off ch=13 n=62 v=0
128384 Off ch=13 n=71 v=0
128384 Off ch=13 n=79 v=0
128512 On ch=13 n=64 v=104
128512 On ch=13 n=72 v=104
128512 On ch=13 n=76 v=104
128768 Off ch=13 n=64 v=0
128768 Off ch=13 n=72 v=0
128768 Off ch=13 n=76 v=0
129024 On ch=13 n=62 v=46
129280 Off ch=13 n=62 v=0
129280 On ch=13 n=62 v=53
129356 Off ch=13 n=62 v=0
129408 On ch=13 n=62 v=49
129484 Off ch=13 n=62 v=0
130304 PrCh ch=13 p=45
130304 Par ch=13 c=7 v=91
130304 Par ch=13 c=10 v=111
130304 Par ch=13 c=91 v=59
130304 On ch=13 n=57 v=45
130560 Off ch=13 n=57 v=0
130816 On ch=13 n=64 v=46
131072 Off ch=13 n=64 v=0
131328 On ch=13 n=64 v=40
131584 Off ch=13 n=64 v=0
131840 On ch=13 n=57 v=46
132096 Off ch=13 n=57 v=0
132352 On ch=13 n=60 v=41
132608 Off ch=13 n=60 v=0
132864 On ch=13 n=60 v=46
133120 Off ch=13 n=60 v=0
133120 On ch=13 n=59 v=46
133376 Off ch=13 n=59 v=0
133376 On ch=13 n=57 v=47
133504 Off ch=13 n=57 v=0
133504 On ch=13 n=59 v=50
133632 Off ch=13 n=59 v=0
133632 On ch=13 n=60 v=46
133888 Off ch=13 n=60 v=0
134400 On ch=13 n=60 v=43
134656 Off ch=13 n=60 v=0
134912 On ch=13 n=59 v=47
135168 Off ch=13 n=59 v=0
135424 On ch=13 n=64 v=38
135680 Off ch=13 n=64 v=0
135936 On ch=13 n=57 v=45
136192 Off ch=13 n=57 v=0
136448 On ch=13 n=57 v=41
136704 Off ch=13 n=57 v=0
136704 On ch=13 n=59 v=50
136960 Off ch=13 n=59 v=0
136960 On ch=13 n=57 v=45
137216 Off ch=13 n=57 v=0
137216 On ch=13 n=59 v=50
137472 Off ch=13 n=59 v=0
137472 On ch=13 n=59 v=55
137600 Off ch=13 n=59 v=0
137600 On ch=13 n=59 v=52
137728 Off ch=13 n=59 v=0
137728 On ch=13 n=57 v=45
137984 Off ch=13 n=57 v=0
139264 On ch=13 n=59 v=44
139520 Off ch=13 n=59 v=0
139520 On ch=13 n=59 v=50
139648 Off ch=13 n=59 v=0
139648 On ch=13 n=59 v=48
139776 Off ch=13 n=59 v=0
139776 On ch=13 n=57 v=46
140032 Off ch=13 n=57 v=0
140288 PrCh ch=13 p=48
140288 Par ch=13 c=7 v=91
140288 Par ch=13 c=10 v=111
140288 Par ch=13 c=91 v=59
140288 On ch=13 n=64 v=54
140544 Off ch=13 n=64 v=0
140544 On ch=13 n=66 v=67
140620 Off ch=13 n=66 v=0
140672 On ch=13 n=68 v=69
140748 Off ch=13 n=68 v=0
140800 On ch=13 n=57 v=104
140800 On ch=13 n=69 v=104
141056 Off ch=13 n=57 v=0
141056 Off ch=13 n=69 v=0
1024 On ch=9 n=52 v=44
1280 Off ch=9 n=52 v=0
1280 On ch=9 n=52 v=46
1356 Off ch=9 n=52 v=0
1408 On ch=9 n=52 v=51
1484 Off ch=9 n=52 v=0
1536 On ch=9 n=52 v=53
1689 Off ch=9 n=52 v=0
1792 On ch=9 n=52 v=45
1937 Off ch=9 n=52 v=0
2048 On ch=9 n=52 v=46
2304 Off ch=9 n=52 v=0
2304 On ch=9 n=52 v=49
2380 Off ch=9 n=52 v=0
2432 On ch=9 n=52 v=43
2508 Off ch=9 n=52 v=0
2560 On ch=9 n=52 v=47
2713 Off ch=9 n=52 v=0
2816 On ch=9 n=52 v=46
2961 Off ch=9 n=52 v=0
3072 On ch=9 n=52 v=49
3328 Off ch=9 n=52 v=0
3328 On ch=9 n=52 v=47
3404 Off ch=9 n=52 v=0
3456 On ch=9 n=50 v=52
3456 On ch=9 n=54 v=52
3532 Off ch=9 n=50 v=0
3532 Off ch=9 n=54 v=0
3584 On ch=9 n=52 v=50
3584 On ch=9 n=55 v=50
3737 Off ch=9 n=52 v=0
3737 Off ch=9 n=55 v=0
3840 On ch=9 n=52 v=49
3840 On ch=9 n=55 v=49
3985 Off ch=9 n=52 v=0
3985 Off ch=9 n=55 v=0
4096 On ch=9 n=50 v=43
4096 On ch=9 n=55 v=43
4352 Off ch=9 n=50 v=0
4352 Off ch=9 n=55 v=0
4352 On ch=9 n=48 v=48
4352 On ch=9 n=55 v=48
4428 Off ch=9 n=48 v=0
4428 Off ch=9 n=55 v=0
4480 On ch=9 n=50 v=49
4480 On ch=9 n=55 v=49
4556 Off ch=9 n=50 v=0
4556 Off ch=9 n=55 v=0
4608 On ch=9 n=52 v=50
4608 On ch=9 n=55 v=50
4864 Off ch=9 n=52 v=0
4864 Off ch=9 n=55 v=0
5120 On ch=9 n=55 v=44
5376 Off ch=9 n=55 v=0
5376 On ch=9 n=55 v=47
5452 Off ch=9 n=55 v=0
5504 On ch=9 n=57 v=55
5580 Off ch=9 n=57 v=0
5632 On ch=9 n=59 v=48
5785 Off ch=9 n=59 v=0
5888 On ch=9 n=59 v=49
6033 Off ch=9 n=59 v=0
6144 On ch=9 n=54 v=44
6400 Off ch=9 n=54 v=0
6400 On ch=9 n=54 v=48
6476 Off ch=9 n=54 v=0
6528 On ch=9 n=56 v=47
6604 Off ch=9 n=56 v=0
6656 On ch=9 n=57 v=48
6809 Off ch=9 n=57 v=0
6912 On ch=9 n=57 v=48
7057 Off ch=9 n=57 v=0
7168 On ch=9 n=52 v=41
7424 Off ch=9 n=52 v=0
7424 On ch=9 n=52 v=45
7500 Off ch=9 n=52 v=0
7552 On ch=9 n=52 v=48
7628 Off ch=9 n=52 v=0
7680 On ch=9 n=52 v=47
7833 Off ch=9 n=52 v=0
7936 On ch=9 n=52 v=46
8081 Off ch=9 n=52 v=0
8192 On ch=9 n=52 v=47
8448 Off ch=9 n=52 v=0
8448 On ch=9 n=52 v=51
8448 On ch=9 n=54 v=51
8524 Off ch=9 n=52 v=0
8524 Off ch=9 n=54 v=0
8576 On ch=9 n=52 v=49
8576 On ch=9 n=56 v=49
8652 Off ch=9 n=52 v=0
8652 Off ch=9 n=56 v=0
8704 On ch=9 n=52 v=51
8704 On ch=9 n=57 v=51
8960 Off ch=9 n=52 v=0
8960 Off ch=9 n=57 v=0
9216 On ch=9 n=55 v=41
9472 Off ch=9 n=55 v=0
9472 On ch=9 n=55 v=49
9548 Off ch=9 n=55 v=0
9600 On ch=9 n=57 v=50
9676 Off ch=9 n=57 v=0
9728 On ch=9 n=59 v=54
9881 Off ch=9 n=59 v=0
9984 On ch=9 n=59 v=49
10129 Off ch=9 n=59 v=0
10240 On ch=9 n=54 v=49
10496 Off ch=9 n=54 v=0
10496 On ch=9 n=54 v=52
10572 Off ch=9 n=54 v=0
10624 On ch=9 n=56 v=51
10700 Off ch=9 n=56 v=0
10752 On ch=9 n=57 v=47
10905 Off ch=9 n=57 v=0
11008 On ch=9 n=57 v=44
11153 Off ch=9 n=57 v=0
11264 On ch=9 n=52 v=48
11520 Off ch=9 n=52 v=0
11520 On ch=9 n=52 v=49
11596 Off ch=9 n=52 v=0
11648 On ch=9 n=52 v=48
11724 Off ch=9 n=52 v=0
11776 On ch=9 n=52 v=47
11929 Off ch=9 n=52 v=0
12032 On ch=9 n=52 v=49
12177 Off ch=9 n=52 v=0
12288 On ch=9 n=52 v=54
12544 Off ch=9 n=52 v=0
12544 On ch=9 n=52 v=49
12544 On ch=9 n=54 v=49
12620 Off ch=9 n=52 v=0
12620 Off ch=9 n=54 v=0
12672 On ch=9 n=52 v=52
12672 On ch=9 n=56 v=52
12748 Off ch=9 n=52 v=0
12748 Off ch=9 n=56 v=0
12800 On ch=9 n=52 v=46
12800 On ch=9 n=57 v=46
13056 Off ch=9 n=52 v=0
13056 Off ch=9 n=57 v=0
13312 On ch=9 n=60 v=44
13824 Off ch=9 n=60 v=0
13824 On ch=9 n=59 v=45
14309 Off ch=9 n=59 v=0
14336 On ch=9 n=59 v=49
14400 Off ch=9 n=59 v=0
14400 On ch=9 n=60 v=49
14464 On ch=9 n=62 v=49
14464 Off ch=9 n=60 v=0
14720 Off ch=9 n=62 v=0
14720 On ch=9 n=60 v=46
14784 On ch=9 n=59 v=47
14785 Off ch=9 n=60 v=0
14844 Off ch=9 n=59 v=0
14848 On ch=9 n=59 v=49
14976 On ch=9 n=60 v=53
14978 Off ch=9 n=59 v=0
15097 Off ch=9 n=60 v=0
15104 On ch=9 n=60 v=49
15360 Off ch=9 n=60 v=0
15360 On ch=9 n=60 v=49
15744 Off ch=9 n=60 v=0
15744 On ch=9 n=60 v=46
15808 On ch=9 n=62 v=52
15809 Off ch=9 n=60 v=0
15868 Off ch=9 n=62 v=0
15872 On ch=9 n=63 v=50
16000 On ch=9 n=64 v=55
16002 Off ch=9 n=63 v=0
16121 Off ch=9 n=64 v=0
16128 On ch=9 n=64 v=46
16204 Off ch=9 n=64 v=0
16256 On ch=9 n=64 v=51
16332 Off ch=9 n=64 v=0
16384 On ch=9 n=62 v=45
16448 On ch=9 n=64 v=50
16449 Off ch=9 n=62 v=0
16512 On ch=9 n=65 v=52
16513 Off ch=9 n=64 v=0
16768 On ch=9 n=64 v=53
16773 Off ch=9 n=65 v=0
16832 On ch=9 n=62 v=44
16833 Off ch=9 n=64 v=0
16892 Off ch=9 n=62 v=0
16896 On ch=9 n=62 v=50
17024 On ch=9 n=64 v=58
17026 Off ch=9 n=62 v=0
17145 Off ch=9 n=64 v=0
17152 On ch=9 n=64 v=48
17408 Off ch=9 n=64 v=0
17408 On ch=9 n=64 v=48
17920 On ch=9 n=63 v=45
17930 Off ch=9 n=64 v=0
18406 Off ch=9 n=63 v=0
18432 On ch=9 n=62 v=41
18560 On ch=9 n=59 v=41
18562 Off ch=9 n=62 v=0
18624 On ch=9 n=61 v=49
18625 Off ch=9 n=59 v=0
18688 On ch=9 n=62 v=49
18689 Off ch=9 n=61 v=0
18816 On ch=9 n=64 v=53
18818 Off ch=9 n=62 v=0
18880 On ch=9 n=62 v=53
18881 Off ch=9 n=64 v=0
18940 Off ch=9 n=62 v=0
18944 On ch=9 n=62 v=45
19072 On ch=9 n=61 v=45
19074 Off ch=9 n=62 v=0
19193 Off ch=9 n=61 v=0
19200 On ch=9 n=60 v=48
19456 Off ch=9 n=60 v=0
19456 On ch=9 n=60 v=49
19968 On ch=9 n=59 v=53
19978 Off ch=9 n=60 v=0
20224 On ch=9 n=60 v=52
20229 Off ch=9 n=59 v=0
20453 Off ch=9 n=60 v=0
20480 On ch=9 n=59 v=48
20544 Off ch=9 n=59 v=0
20544 On ch=9 n=60 v=48
20608 On ch=9 n=62 v=48
20608 Off ch=9 n=60 v=0
20864 Off ch=9 n=62 v=0
20864 On ch=9 n=60 v=48
20928 On ch=9 n=59 v=41
20929 Off ch=9 n=60 v=0
20988 Off ch=9 n=59 v=0
20992 On ch=9 n=57 v=47
21068 Off ch=9 n=57 v=0
21120 On ch=9 n=57 v=47
21184 On ch=9 n=59 v=49
21185 Off ch=9 n=57 v=0
21244 Off ch=9 n=59 v=0
21248 On ch=9 n=60 v=48
21324 Off ch=9 n=60 v=0
21376 On ch=9 n=60 v=47
21440 On ch=9 n=62 v=52
21441 Off ch=9 n=60 v=0
21500 Off ch=9 n=62 v=0
21504 On ch=9 n=64 v=44
22016 On ch=9 n=63 v=39
22026 Off ch=9 n=64 v=0
22502 Off ch=9 n=63 v=0
22528 On ch=9 n=62 v=34
22656 On ch=9 n=59 v=30
22658 Off ch=9 n=62 v=0
22720 On ch=9 n=61 v=37
22721 Off ch=9 n=59 v=0
22784 On ch=9 n=62 v=43
22785 Off ch=9 n=61 v=0
22912 On ch=9 n=64 v=38
22914 Off ch=9 n=62 v=0
22976 On ch=9 n=62 v=34
22977 Off ch=9 n=64 v=0
23036 Off ch=9 n=62 v=0
23040 On ch=9 n=62 v=30
23168 Off ch=9 n=62 v=0
23168 On ch=9 n=61 v=34
23296 Off ch=9 n=61 v=0
23296 On ch=9 n=60 v=34
23552 Off ch=9 n=60 v=0
23552 On ch=9 n=60 v=41
24064 On ch=9 n=59 v=41
24074 Off ch=9 n=60 v=0
24320 On ch=9 n=60 v=36
24325 Off ch=9 n=59 v=0
24549 Off ch=9 n=60 v=0
24576 On ch=9 n=59 v=38
24640 Off ch=9 n=59 v=0
24640 On ch=9 n=60 v=38
24704 On ch=9 n=62 v=38
24704 Off ch=9 n=60 v=0
24960 Off ch=9 n=62 v=0
24960 On ch=9 n=60 v=35
25024 On ch=9 n=59 v=31
25025 Off ch=9 n=60 v=0
25084 Off ch=9 n=59 v=0
25088 On ch=9 n=57 v=32
25344 Off ch=9 n=57 v=0
25728 On ch=9 n=57 v=43
25856 On ch=9 n=60 v=42
25858 Off ch=9 n=57 v=0
25984 On ch=9 n=52 v=43
25986 Off ch=9 n=60 v=0
26105 Off ch=9 n=52 v=0
26240 On ch=9 n=56 v=50
26368 On ch=9 n=59 v=52
26370 Off ch=9 n=56 v=0
26496 On ch=9 n=52 v=46
26498 Off ch=9 n=59 v=0
26617 Off ch=9 n=52 v=0
26752 On ch=9 n=56 v=47
26880 On ch=9 n=59 v=51
26882 Off ch=9 n=56 v=0
27008 On ch=9 n=52 v=44
27010 Off ch=9 n=59 v=0
27129 Off ch=9 n=52 v=0
27264 On ch=9 n=57 v=48
27392 On ch=9 n=60 v=54
27394 Off ch=9 n=57 v=0
27520 On ch=9 n=52 v=51
27522 Off ch=9 n=60 v=0
27641 Off ch=9 n=52 v=0
27776 On ch=9 n=57 v=51
27904 On ch=9 n=60 v=58
27906 Off ch=9 n=57 v=0
28032 On ch=9 n=48 v=48
28034 Off ch=9 n=60 v=0
28153 Off ch=9 n=48 v=0
28288 On ch=9 n=55 v=53
28416 On ch=9 n=60 v=62
28418 Off ch=9 n=55 v=0
28544 On ch=9 n=48 v=55
28546 Off ch=9 n=60 v=0
28665 Off ch=9 n=48 v=0
28800 On ch=9 n=59 v=53
28928 On ch=9 n=62 v=69
28930 Off ch=9 n=59 v=0
29056 On ch=9 n=55 v=63
29058 Off ch=9 n=62 v=0
29177 Off ch=9 n=55 v=0
29312 On ch=9 n=55 v=61
29440 On ch=9 n=60 v=73
29442 Off ch=9 n=55 v=0
29568 On ch=9 n=48 v=59
29570 Off ch=9 n=60 v=0
29689 Off ch=9 n=48 v=0
29824 On ch=9 n=60 v=60
29952 On ch=9 n=64 v=77
29954 Off ch=9 n=60 v=0
30080 On ch=9 n=52 v=65
30082 Off ch=9 n=64 v=0
30201 Off ch=9 n=52 v=0
30336 On ch=9 n=66 v=68
30464 On ch=9 n=71 v=84
30466 Off ch=9 n=66 v=0
30592 On ch=9 n=59 v=66
30594 Off ch=9 n=71 v=0
30713 Off ch=9 n=59 v=0
30848 On ch=9 n=59 v=70
30976 On ch=9 n=62 v=81
30978 Off ch=9 n=59 v=0
31104 On ch=9 n=50 v=71
31106 Off ch=9 n=62 v=0
31225 Off ch=9 n=50 v=0
31360 On ch=9 n=64 v=72
31488 On ch=9 n=69 v=79
31490 Off ch=9 n=64 v=0
31616 On ch=9 n=57 v=73
31618 Off ch=9 n=69 v=0
31737 Off ch=9 n=57 v=0
31872 On ch=9 n=57 v=75
32000 On ch=9 n=64 v=101
32002 Off ch=9 n=57 v=0
32128 On ch=9 n=52 v=80
32130 Off ch=9 n=64 v=0
32249 Off ch=9 n=52 v=0
32384 On ch=9 n=59 v=76
32512 On ch=9 n=64 v=81
32514 Off ch=9 n=59 v=0
32640 On ch=9 n=52 v=76
32642 Off ch=9 n=64 v=0
32761 Off ch=9 n=52 v=0
32896 On ch=9 n=59 v=78
33024 On ch=9 n=64 v=103
33026 Off ch=9 n=59 v=0
33152 On ch=9 n=52 v=87
33154 Off ch=9 n=64 v=0
33273 Off ch=9 n=52 v=0
33408 On ch=9 n=60 v=82
33536 On ch=9 n=64 v=92
33538 Off ch=9 n=60 v=0
33664 On ch=9 n=57 v=90
33666 Off ch=9 n=64 v=0
33785 Off ch=9 n=57 v=0
33920 On ch=9 n=60 v=86
34048 On ch=9 n=64 v=92
34050 Off ch=9 n=60 v=0
34176 On ch=9 n=52 v=89
34178 Off ch=9 n=64 v=0
34297 Off ch=9 n=52 v=0
34432 On ch=9 n=66 v=89
34560 On ch=9 n=71 v=98
34562 Off ch=9 n=66 v=0
34688 On ch=9 n=59 v=83
34690 Off ch=9 n=71 v=0
34809 Off ch=9 n=59 v=0
34944 On ch=9 n=59 v=93
35072 On ch=9 n=62 v=103
35074 Off ch=9 n=59 v=0
35200 On ch=9 n=50 v=90
35202 Off ch=9 n=62 v=0
35321 Off ch=9 n=50 v=0
35456 On ch=9 n=64 v=93
35584 On ch=9 n=69 v=104
35586 Off ch=9 n=64 v=0
35712 On ch=9 n=57 v=97
35714 Off ch=9 n=69 v=0
35833 Off ch=9 n=57 v=0
35968 On ch=9 n=57 v=95
36096 On ch=9 n=64 v=113
36098 Off ch=9 n=57 v=0
36224 On ch=9 n=52 v=94
36226 Off ch=9 n=64 v=0
36345 Off ch=9 n=52 v=0
36480 On ch=9 n=59 v=93
36608 On ch=9 n=64 v=101
36610 Off ch=9 n=59 v=0
36736 On ch=9 n=52 v=88
36738 Off ch=9 n=64 v=0
36857 Off ch=9 n=52 v=0
36992 On ch=9 n=59 v=98
37120 On ch=9 n=64 v=106
37122 Off ch=9 n=59 v=0
37248 On ch=9 n=52 v=96
37250 Off ch=9 n=64 v=0
37369 Off ch=9 n=52 v=0
37504 On ch=9 n=60 v=93
37632 On ch=9 n=64 v=102
37634 Off ch=9 n=60 v=0
37760 On ch=9 n=57 v=97
37762 Off ch=9 n=64 v=0
37881 Off ch=9 n=57 v=0
37973 On ch=9 n=57 v=102
38024 Off ch=9 n=57 v=0
38058 On ch=9 n=60 v=121
38109 Off ch=9 n=60 v=0
38144 On ch=9 n=52 v=101
38400 Off ch=9 n=52 v=0
38485 On ch=9 n=56 v=104
38536 Off ch=9 n=56 v=0
38570 On ch=9 n=59 v=112
38621 Off ch=9 n=59 v=0
38656 On ch=9 n=52 v=103
38912 Off ch=9 n=52 v=0
38997 On ch=9 n=56 v=101
39048 Off ch=9 n=56 v=0
39082 On ch=9 n=59 v=116
39133 Off ch=9 n=59 v=0
39168 On ch=9 n=52 v=103
39424 Off ch=9 n=52 v=0
39509 On ch=9 n=57 v=100
39560 Off ch=9 n=57 v=0
39594 On ch=9 n=60 v=118
39645 Off ch=9 n=60 v=0
39680 On ch=9 n=52 v=101
39936 Off ch=9 n=52 v=0
40021 On ch=9 n=57 v=100
40072 Off ch=9 n=57 v=0
40106 On ch=9 n=60 v=119
40157 Off ch=9 n=60 v=0
40192 On ch=9 n=48 v=97
40448 Off ch=9 n=48 v=0
40533 On ch=9 n=55 v=101
40584 Off ch=9 n=55 v=0
40618 On ch=9 n=60 v=121
40669 Off ch=9 n=60 v=0
40704 On ch=9 n=48 v=104
40704 On ch=9 n=55 v=104
40960 Off ch=9 n=48 v=0
40960 Off ch=9 n=55 v=0
41045 On ch=9 n=59 v=103
41096 Off ch=9 n=59 v=0
41130 On ch=9 n=62 v=118
41181 Off ch=9 n=62 v=0
41216 On ch=9 n=55 v=105
41472 Off ch=9 n=55 v=0
41557 On ch=9 n=55 v=99
41608 Off ch=9 n=55 v=0
41642 On ch=9 n=60 v=122
41693 Off ch=9 n=60 v=0
41728 On ch=9 n=48 v=101
41984 Off ch=9 n=48 v=0
42069 On ch=9 n=55 v=102
42120 Off ch=9 n=55 v=0
42154 On ch=9 n=60 v=126
42205 Off ch=9 n=60 v=0
42240 On ch=9 n=48 v=99
42496 Off ch=9 n=48 v=0
42581 On ch=9 n=59 v=101
42632 Off ch=9 n=59 v=0
42666 On ch=9 n=71 v=127
42717 Off ch=9 n=71 v=0
42752 On ch=9 n=59 v=96
43008 Off ch=9 n=59 v=0
43093 On ch=9 n=59 v=98
43144 Off ch=9 n=59 v=0
43178 On ch=9 n=62 v=118
43229 Off ch=9 n=62 v=0
43264 On ch=9 n=50 v=98
43520 Off ch=9 n=50 v=0
43605 On ch=9 n=57 v=104
43656 Off ch=9 n=57 v=0
43690 On ch=9 n=69 v=127
43741 Off ch=9 n=69 v=0
43776 On ch=9 n=57 v=97
44032 Off ch=9 n=57 v=0
44117 On ch=9 n=57 v=102
44168 Off ch=9 n=57 v=0
44202 On ch=9 n=60 v=122
44253 Off ch=9 n=60 v=0
44288 On ch=9 n=52 v=102
44544 Off ch=9 n=52 v=0
44629 On ch=9 n=56 v=102
44680 Off ch=9 n=56 v=0
44714 On ch=9 n=59 v=114
44765 Off ch=9 n=59 v=0
44800 On ch=9 n=52 v=105
44800 On ch=9 n=57 v=105
45056 Off ch=9 n=52 v=0
45056 Off ch=9 n=57 v=0
45141 On ch=9 n=56 v=96
45192 Off ch=9 n=56 v=0
45226 On ch=9 n=59 v=119
45277 Off ch=9 n=59 v=0
45312 On ch=9 n=52 v=99
45568 Off ch=9 n=52 v=0
45653 On ch=9 n=57 v=98
45704 Off ch=9 n=57 v=0
45738 On ch=9 n=69 v=127
45789 Off ch=9 n=69 v=0
45824 On ch=9 n=57 v=101
45875 Off ch=9 n=57 v=0
45909 On ch=9 n=57 v=109
45960 Off ch=9 n=57 v=0
45994 On ch=9 n=59 v=117
46045 Off ch=9 n=59 v=0
46080 On ch=9 n=60 v=105
46131 Off ch=9 n=60 v=0
46165 On ch=9 n=55 v=96
46216 Off ch=9 n=55 v=0
46250 On ch=9 n=60 v=110
46301 Off ch=9 n=60 v=0
46336 On ch=9 n=48 v=85
46592 Off ch=9 n=48 v=0
46677 On ch=9 n=59 v=84
46728 Off ch=9 n=59 v=0
46762 On ch=9 n=71 v=119
46813 Off ch=9 n=71 v=0
46848 On ch=9 n=59 v=81
47104 Off ch=9 n=59 v=0
47189 On ch=9 n=59 v=72
47240 Off ch=9 n=59 v=0
47274 On ch=9 n=62 v=88
47325 Off ch=9 n=62 v=0
47360 On ch=9 n=50 v=70
47616 Off ch=9 n=50 v=0
47701 On ch=9 n=57 v=65
47752 Off ch=9 n=57 v=0
47786 On ch=9 n=69 v=84
47837 Off ch=9 n=69 v=0
47872 On ch=9 n=57 v=62
48128 Off ch=9 n=57 v=0
48213 On ch=9 n=57 v=55
48264 Off ch=9 n=57 v=0
48298 On ch=9 n=60 v=57
48349 Off ch=9 n=60 v=0
48384 On ch=9 n=52 v=53
48640 Off ch=9 n=52 v=0
48725 On ch=9 n=56 v=50
48776 Off ch=9 n=56 v=0
48810 On ch=9 n=59 v=56
48861 Off ch=9 n=59 v=0
48896 On ch=9 n=52 v=52
48896 On ch=9 n=57 v=52
49152 Off ch=9 n=52 v=0
49152 Off ch=9 n=57 v=0
49237 On ch=9 n=56 v=45
49288 Off ch=9 n=56 v=0
49322 On ch=9 n=64 v=67
49373 Off ch=9 n=64 v=0
49408 On ch=9 n=52 v=48
49459 Off ch=9 n=52 v=0
49493 On ch=9 n=52 v=48
49544 Off ch=9 n=52 v=0
49578 On ch=9 n=64 v=66
49629 Off ch=9 n=64 v=0
49664 On ch=9 n=57 v=42
49920 Off ch=9 n=57 v=0
51712 On ch=9 n=49 v=42
51712 On ch=9 n=52 v=42
52736 Off ch=9 n=49 v=0
52736 Off ch=9 n=52 v=0
52736 On ch=9 n=50 v=49
52736 On ch=9 n=54 v=49
53504 Off ch=9 n=50 v=0
53504 Off ch=9 n=54 v=0
53504 On ch=9 n=49 v=56
53504 On ch=9 n=52 v=56
53632 On ch=9 n=61 v=73
53634 Off ch=9 n=49 v=0
53634 Off ch=9 n=52 v=0
53760 On ch=9 n=59 v=66
53760 On ch=9 n=62 v=66
53762 Off ch=9 n=61 v=0
54016 On ch=9 n=57 v=64
54016 On ch=9 n=61 v=64
54021 Off ch=9 n=59 v=0
54021 Off ch=9 n=62 v=0
54144 On ch=9 n=49 v=59
54144 On ch=9 n=52 v=59
54146 Off ch=9 n=57 v=0
54146 Off ch=9 n=61 v=0
54272 On ch=9 n=50 v=72
54272 On ch=9 n=54 v=72
54274 Off ch=9 n=49 v=0
54274 Off ch=9 n=52 v=0
54528 On ch=9 n=52 v=74
54533 Off ch=9 n=50 v=0
54533 Off ch=9 n=54 v=0
54784 On ch=9 n=54 v=86
54789 Off ch=9 n=52 v=0
55040 On ch=9 n=56 v=80
55045 Off ch=9 n=54 v=0
55283 Off ch=9 n=56 v=0
55296 On ch=9 n=56 v=66
55552 On ch=9 n=52 v=55
55557 Off ch=9 n=56 v=0
55673 Off ch=9 n=52 v=0
55680 On ch=9 n=52 v=49
55808 Off ch=9 n=52 v=0
55808 On ch=9 n=52 v=48
56064 Off ch=9 n=52 v=0
56064 On ch=9 n=49 v=45
57088 Off ch=9 n=49 v=0
57088 On ch=9 n=50 v=57
57600 Off ch=9 n=50 v=0
57600 On ch=9 n=52 v=60
57856 Off ch=9 n=52 v=0
57856 On ch=9 n=54 v=68
57984 On ch=9 n=56 v=72
57986 Off ch=9 n=54 v=0
58112 On ch=9 n=57 v=66
58114 Off ch=9 n=56 v=0
58240 On ch=9 n=52 v=62
58242 Off ch=9 n=57 v=0
58361 Off ch=9 n=52 v=0
58368 On ch=9 n=52 v=59
58496 On ch=9 n=56 v=63
58498 Off ch=9 n=52 v=0
58624 On ch=9 n=57 v=67
58626 Off ch=9 n=56 v=0
58752 On ch=9 n=54 v=65
58754 Off ch=9 n=57 v=0
58880 On ch=9 n=52 v=60
58882 Off ch=9 n=54 v=0
59123 Off ch=9 n=52 v=0
59136 On ch=9 n=64 v=45
59392 On ch=9 n=66 v=55
59397 Off ch=9 n=64 v=0
59878 Off ch=9 n=66 v=0
59904 On ch=9 n=64 v=31
60416 On ch=9 n=66 v=34
60426 Off ch=9 n=64 v=0
60902 Off ch=9 n=66 v=0
60928 On ch=9 n=64 v=35
61440 On ch=9 n=66 v=41
61450 Off ch=9 n=64 v=0
61935 Off ch=9 n=66 v=0
61952 On ch=9 n=64 v=34
62195 Off ch=9 n=64 v=0
62208 On ch=9 n=52 v=31
64512 Off ch=9 n=52 v=0
64512 On ch=9 n=52 v=72
64768 On ch=9 n=55 v=77
64773 Off ch=9 n=52 v=0
65024 On ch=9 n=54 v=66
65029 Off ch=9 n=55 v=0
65145 Off ch=9 n=54 v=0
65152 On ch=9 n=54 v=68
65280 On ch=9 n=50 v=63
65282 Off ch=9 n=54 v=0
65408 On ch=9 n=54 v=65
65410 Off ch=9 n=50 v=0
65529 Off ch=9 n=54 v=0
65536 On ch=9 n=49 v=40
65664 On ch=9 n=52 v=38
65666 Off ch=9 n=49 v=0
65785 Off ch=9 n=52 v=0
65792 On ch=9 n=52 v=51
65920 On ch=9 n=50 v=44
65922 Off ch=9 n=52 v=0
66048 On ch=9 n=49 v=50
66050 Off ch=9 n=50 v=0
66169 Off ch=9 n=49 v=0
66176 On ch=9 n=57 v=55
66304 On ch=9 n=59 v=55
66306 Off ch=9 n=57 v=0
66389 On ch=9 n=60 v=51
66390 Off ch=9 n=59 v=0
66474 On ch=9 n=61 v=58
66475 Off ch=9 n=60 v=0
66555 Off ch=9 n=61 v=0
66560 On ch=9 n=52 v=48
68608 Off ch=9 n=52 v=0
68608 On ch=9 n=52 v=70
68864 On ch=9 n=55 v=76
68869 Off ch=9 n=52 v=0
69120 On ch=9 n=57 v=72
69125 Off ch=9 n=55 v=0
69241 Off ch=9 n=57 v=0
69248 On ch=9 n=57 v=64
69376 On ch=9 n=53 v=58
69378 Off ch=9 n=57 v=0
69504 On ch=9 n=57 v=60
69506 Off ch=9 n=53 v=0
69625 Off ch=9 n=57 v=0
69632 On ch=9 n=52 v=44
69760 On ch=9 n=55 v=42
69762 Off ch=9 n=52 v=0
69881 Off ch=9 n=55 v=0
69888 On ch=9 n=55 v=47
70016 On ch=9 n=53 v=45
70018 Off ch=9 n=55 v=0
70137 Off ch=9 n=53 v=0
70656 On ch=9 n=62 v=57
71168 Off ch=9 n=62 v=0
71168 On ch=9 n=60 v=47
71680 Off ch=9 n=60 v=0
71680 On ch=9 n=62 v=51
72192 On ch=9 n=60 v=51
72202 Off ch=9 n=62 v=0
72704 On ch=9 n=62 v=55
72714 Off ch=9 n=60 v=0
73190 Off ch=9 n=62 v=0
74154 On ch=9 n=59 v=84
74240 Off ch=9 n=59 v=0
74240 On ch=9 n=57 v=89
74291 Off ch=9 n=57 v=0
74325 On ch=9 n=55 v=91
74376 Off ch=9 n=55 v=0
74410 On ch=9 n=53 v=96
74461 Off ch=9 n=53 v=0
74496 On ch=9 n=52 v=93
74547 Off ch=9 n=52 v=0
74581 On ch=9 n=50 v=88
74632 Off ch=9 n=50 v=0
74666 On ch=9 n=60 v=119
74717 Off ch=9 n=60 v=0
74752 On ch=9 n=59 v=99
74803 Off ch=9 n=59 v=0
74837 On ch=9 n=57 v=92
74888 Off ch=9 n=57 v=0
74922 On ch=9 n=55 v=99
74973 Off ch=9 n=55 v=0
75008 On ch=9 n=53 v=94
75059 Off ch=9 n=53 v=0
75093 On ch=9 n=52 v=95
75144 Off ch=9 n=52 v=0
75178 On ch=9 n=50 v=92
75229 Off ch=9 n=50 v=0
75264 On ch=9 n=48 v=93
75392 Off ch=9 n=48 v=0
75520 On ch=9 n=52 v=99
75596 Off ch=9 n=52 v=0
75648 On ch=9 n=52 v=110
75724 Off ch=9 n=52 v=0
76864 On ch=9 n=59 v=40
76902 Off ch=9 n=59 v=0
76928 On ch=9 n=56 v=45
76966 Off ch=9 n=56 v=0
76992 On ch=9 n=59 v=51
77030 Off ch=9 n=59 v=0
77056 On ch=9 n=64 v=52
77094 Off ch=9 n=64 v=0
77120 On ch=9 n=59 v=47
77158 Off ch=9 n=59 v=0
77184 On ch=9 n=56 v=44
77222 Off ch=9 n=56 v=0
77248 On ch=9 n=59 v=50
77286 Off ch=9 n=59 v=0
77312 On ch=9 n=52 v=44
77440 Off ch=9 n=52 v=0
77888 On ch=9 n=60 v=43
77949 Off ch=9 n=60 v=0
77952 On ch=9 n=57 v=45
78013 Off ch=9 n=57 v=0
78016 On ch=9 n=60 v=48
78077 Off ch=9 n=60 v=0
78080 On ch=9 n=64 v=50
78141 Off ch=9 n=64 v=0
78144 On ch=9 n=60 v=44
78205 Off ch=9 n=60 v=0
78208 On ch=9 n=57 v=49
78269 Off ch=9 n=57 v=0
78272 On ch=9 n=60 v=55
78333 Off ch=9 n=60 v=0
78336 On ch=9 n=52 v=42
78458 Off ch=9 n=52 v=0
78912 On ch=9 n=64 v=43
78973 Off ch=9 n=64 v=0
78976 On ch=9 n=60 v=42
79037 Off ch=9 n=60 v=0
79040 On ch=9 n=64 v=53
79101 Off ch=9 n=64 v=0
79104 On ch=9 n=67 v=51
79165 Off ch=9 n=67 v=0
79168 On ch=9 n=64 v=47
79229 Off ch=9 n=64 v=0
79232 On ch=9 n=60 v=45
79293 Off ch=9 n=60 v=0
79296 On ch=9 n=64 v=52
79357 Off ch=9 n=64 v=0
79360 On ch=9 n=55 v=40
79482 Off ch=9 n=55 v=0
79936 On ch=9 n=64 v=43
79997 Off ch=9 n=64 v=0
80000 On ch=9 n=60 v=38
80061 Off ch=9 n=60 v=0
80064 On ch=9 n=64 v=49
80125 Off ch=9 n=64 v=0
80128 On ch=9 n=67 v=52
80189 Off ch=9 n=67 v=0
80192 On ch=9 n=64 v=46
80253 Off ch=9 n=64 v=0
80256 On ch=9 n=60 v=43
80317 Off ch=9 n=60 v=0
80320 On ch=9 n=64 v=52
80381 Off ch=9 n=64 v=0
80384 On ch=9 n=55 v=43
80506 Off ch=9 n=55 v=0
80960 On ch=9 n=66 v=44
81021 Off ch=9 n=66 v=0
81024 On ch=9 n=63 v=42
81085 Off ch=9 n=63 v=0
81088 On ch=9 n=66 v=52
81149 Off ch=9 n=66 v=0
81152 On ch=9 n=71 v=54
81213 Off ch=9 n=71 v=0
81216 On ch=9 n=66 v=44
81277 Off ch=9 n=66 v=0
81280 On ch=9 n=63 v=45
81341 Off ch=9 n=63 v=0
81344 On ch=9 n=66 v=54
81405 Off ch=9 n=66 v=0
81408 On ch=9 n=57 v=41
81530 Off ch=9 n=57 v=0
81984 On ch=9 n=61 v=48
82045 Off ch=9 n=61 v=0
82048 On ch=9 n=57 v=42
82109 Off ch=9 n=57 v=0
82112 On ch=9 n=61 v=56
82173 Off ch=9 n=61 v=0
82176 On ch=9 n=64 v=53
82237 Off ch=9 n=64 v=0
82240 On ch=9 n=60 v=43
82301 Off ch=9 n=60 v=0
82304 On ch=9 n=57 v=49
82365 Off ch=9 n=57 v=0
82368 On ch=9 n=60 v=50
82429 Off ch=9 n=60 v=0
82432 On ch=9 n=52 v=43
82554 Off ch=9 n=52 v=0
83008 On ch=9 n=59 v=41
83069 Off ch=9 n=59 v=0
83072 On ch=9 n=56 v=42
83133 Off ch=9 n=56 v=0
83136 On ch=9 n=59 v=47
83197 Off ch=9 n=59 v=0
83200 On ch=9 n=64 v=56
83261 Off ch=9 n=64 v=0
83264 On ch=9 n=60 v=43
83325 Off ch=9 n=60 v=0
83328 On ch=9 n=57 v=46
83389 Off ch=9 n=57 v=0
83392 On ch=9 n=60 v=50
83453 Off ch=9 n=60 v=0
83456 On ch=9 n=52 v=41
83578 Off ch=9 n=52 v=0
84032 On ch=9 n=60 v=45
84093 Off ch=9 n=60 v=0
84096 On ch=9 n=57 v=47
84157 Off ch=9 n=57 v=0
84160 On ch=9 n=60 v=56
84221 Off ch=9 n=60 v=0
84224 On ch=9 n=64 v=55
84285 Off ch=9 n=64 v=0
84288 On ch=9 n=60 v=40
84349 Off ch=9 n=60 v=0
84352 On ch=9 n=57 v=42
84413 Off ch=9 n=57 v=0
84416 On ch=9 n=60 v=50
84477 Off ch=9 n=60 v=0
84480 On ch=9 n=52 v=46
84724 Off ch=9 n=52 v=0
85056 On ch=9 n=66 v=43
85117 Off ch=9 n=66 v=0
85120 On ch=9 n=63 v=43
85181 Off ch=9 n=63 v=0
85184 On ch=9 n=66 v=54
85245 Off ch=9 n=66 v=0
85248 On ch=9 n=71 v=57
85309 Off ch=9 n=71 v=0
85312 On ch=9 n=66 v=47
85373 Off ch=9 n=66 v=0
85376 On ch=9 n=63 v=44
85437 Off ch=9 n=63 v=0
85440 On ch=9 n=66 v=57
85501 Off ch=9 n=66 v=0
85504 On ch=9 n=57 v=43
85626 Off ch=9 n=57 v=0
86080 On ch=9 n=61 v=41
86141 Off ch=9 n=61 v=0
86144 On ch=9 n=57 v=44
86205 Off ch=9 n=57 v=0
86208 On ch=9 n=61 v=51
86269 Off ch=9 n=61 v=0
86272 On ch=9 n=64 v=50
86333 Off ch=9 n=64 v=0
86336 On ch=9 n=60 v=41
86397 Off ch=9 n=60 v=0
86400 On ch=9 n=57 v=44
86461 Off ch=9 n=57 v=0
86464 On ch=9 n=60 v=53
86525 Off ch=9 n=60 v=0
86528 On ch=9 n=52 v=50
86650 Off ch=9 n=52 v=0
87104 On ch=9 n=59 v=45
87165 Off ch=9 n=59 v=0
87168 On ch=9 n=56 v=46
87229 Off ch=9 n=56 v=0
87232 On ch=9 n=59 v=54
87293 Off ch=9 n=59 v=0
87296 On ch=9 n=64 v=52
87357 Off ch=9 n=64 v=0
87360 On ch=9 n=60 v=41
87421 Off ch=9 n=60 v=0
87424 On ch=9 n=57 v=48
87485 Off ch=9 n=57 v=0
87488 On ch=9 n=60 v=51
87549 Off ch=9 n=60 v=0
87552 On ch=9 n=52 v=47
87674 Off ch=9 n=52 v=0
88128 On ch=9 n=64 v=44
88189 Off ch=9 n=64 v=0
88192 On ch=9 n=61 v=43
88253 Off ch=9 n=61 v=0
88256 On ch=9 n=64 v=51
88317 Off ch=9 n=64 v=0
88320 On ch=9 n=67 v=50
88381 Off ch=9 n=67 v=0
88384 On ch=9 n=64 v=44
88445 Off ch=9 n=64 v=0
88448 On ch=9 n=61 v=41
88509 Off ch=9 n=61 v=0
88512 On ch=9 n=64 v=50
88573 Off ch=9 n=64 v=0
88576 On ch=9 n=55 v=46
88698 Off ch=9 n=55 v=0
89152 On ch=9 n=53 v=41
89213 Off ch=9 n=53 v=0
89216 On ch=9 n=50 v=48
89277 Off ch=9 n=50 v=0
89280 On ch=9 n=53 v=52
89341 Off ch=9 n=53 v=0
89344 On ch=9 n=57 v=51
89405 Off ch=9 n=57 v=0
89408 On ch=9 n=53 v=44
89469 Off ch=9 n=53 v=0
89472 On ch=9 n=50 v=45
89533 Off ch=9 n=50 v=0
89536 On ch=9 n=62 v=59
89597 Off ch=9 n=62 v=0
89600 On ch=9 n=56 v=43
89722 Off ch=9 n=56 v=0
90176 On ch=9 n=64 v=40
90237 Off ch=9 n=64 v=0
90240 On ch=9 n=61 v=42
90301 Off ch=9 n=61 v=0
90304 On ch=9 n=64 v=53
90365 Off ch=9 n=64 v=0
90368 On ch=9 n=67 v=52
90429 Off ch=9 n=67 v=0
90432 On ch=9 n=64 v=44
90493 Off ch=9 n=64 v=0
90496 On ch=9 n=61 v=45
90557 Off ch=9 n=61 v=0
90560 On ch=9 n=64 v=50
90621 Off ch=9 n=64 v=0
90624 On ch=9 n=55 v=50
90746 Off ch=9 n=55 v=0
91200 On ch=9 n=53 v=55
91261 Off ch=9 n=53 v=0
91264 On ch=9 n=50 v=58
91325 Off ch=9 n=50 v=0
91328 On ch=9 n=53 v=64
91389 Off ch=9 n=53 v=0
91392 On ch=9 n=57 v=66
91453 Off ch=9 n=57 v=0
91456 On ch=9 n=53 v=64
91517 Off ch=9 n=53 v=0
91520 On ch=9 n=50 v=67
91581 Off ch=9 n=50 v=0
91584 On ch=9 n=62 v=89
91645 Off ch=9 n=62 v=0
91648 On ch=9 n=56 v=67
91770 Off ch=9 n=56 v=0
92224 On ch=9 n=64 v=65
92285 Off ch=9 n=64 v=0
92288 On ch=9 n=61 v=61
92349 Off ch=9 n=61 v=0
92352 On ch=9 n=64 v=77
92413 Off ch=9 n=64 v=0
92416 On ch=9 n=67 v=78
92477 Off ch=9 n=67 v=0
92480 On ch=9 n=64 v=64
92541 Off ch=9 n=64 v=0
92544 On ch=9 n=61 v=62
92605 Off ch=9 n=61 v=0
92608 On ch=9 n=55 v=65
92669 Off ch=9 n=55 v=0
92672 On ch=9 n=56 v=73
92794 Off ch=9 n=56 v=0
97280 On ch=9 n=60 v=32
97316 Off ch=9 n=60 v=0
97344 On ch=9 n=62 v=36
97380 Off ch=9 n=62 v=0
97408 On ch=9 n=64 v=36
97444 Off ch=9 n=64 v=0
97472 On ch=9 n=62 v=38
97508 Off ch=9 n=62 v=0
97536 On ch=9 n=60 v=37
97572 Off ch=9 n=60 v=0
97600 On ch=9 n=62 v=38
97636 Off ch=9 n=62 v=0
97664 On ch=9 n=60 v=31
97700 Off ch=9 n=60 v=0
97728 On ch=9 n=59 v=30
97764 Off ch=9 n=59 v=0
97792 On ch=9 n=57 v=37
97828 Off ch=9 n=57 v=0
97856 On ch=9 n=59 v=38
97892 Off ch=9 n=59 v=0
97920 On ch=9 n=60 v=37
97956 Off ch=9 n=60 v=0
97984 On ch=9 n=62 v=41
98020 Off ch=9 n=62 v=0
98048 On ch=9 n=64 v=36
98084 Off ch=9 n=64 v=0
98112 On ch=9 n=66 v=41
98148 Off ch=9 n=66 v=0
98176 On ch=9 n=68 v=41
98212 Off ch=9 n=68 v=0
98240 On ch=9 n=69 v=40
98276 Off ch=9 n=69 v=0
98304 On ch=9 n=68 v=36
98340 Off ch=9 n=68 v=0
98368 On ch=9 n=64 v=35
98404 Off ch=9 n=64 v=0
98432 On ch=9 n=66 v=37
98468 Off ch=9 n=66 v=0
98496 On ch=9 n=68 v=39
98532 Off ch=9 n=68 v=0
98560 On ch=9 n=69 v=35
98596 Off ch=9 n=69 v=0
98624 On ch=9 n=71 v=36
98660 Off ch=9 n=71 v=0
98688 On ch=9 n=69 v=31
98724 Off ch=9 n=69 v=0
98752 On ch=9 n=67 v=33
98788 Off ch=9 n=67 v=0
98816 On ch=9 n=66 v=39
98852 Off ch=9 n=66 v=0
98880 On ch=9 n=66 v=33
98916 Off ch=9 n=66 v=0
98944 On ch=9 n=67 v=39
98980 Off ch=9 n=67 v=0
99008 On ch=9 n=69 v=32
99044 Off ch=9 n=69 v=0
99072 On ch=9 n=71 v=41
99108 Off ch=9 n=71 v=0
99136 On ch=9 n=59 v=32
99172 Off ch=9 n=59 v=0
99200 On ch=9 n=61 v=34
99236 Off ch=9 n=61 v=0
99264 On ch=9 n=63 v=36
99300 Off ch=9 n=63 v=0
99328 On ch=9 n=64 v=36
99572 Off ch=9 n=64 v=0
99584 On ch=9 n=64 v=36
99657 Off ch=9 n=64 v=0
99712 On ch=9 n=66 v=42
99785 Off ch=9 n=66 v=0
99840 On ch=9 n=67 v=41
99986 Off ch=9 n=67 v=0
100096 On ch=9 n=67 v=39
100234 Off ch=9 n=67 v=0
100352 On ch=9 n=66 v=36
100596 Off ch=9 n=66 v=0
100608 On ch=9 n=66 v=37
100681 Off ch=9 n=66 v=0
100736 On ch=9 n=68 v=39
100809 Off ch=9 n=68 v=0
100864 On ch=9 n=69 v=36
100937 Off ch=9 n=69 v=0
100992 On ch=9 n=65 v=33
101065 Off ch=9 n=65 v=0
101120 On ch=9 n=64 v=31
101193 Off ch=9 n=64 v=0
101248 On ch=9 n=62 v=34
101321 Off ch=9 n=62 v=0
101376 On ch=9 n=61 v=31
101412 Off ch=9 n=61 v=0
101440 On ch=9 n=61 v=37
101476 Off ch=9 n=61 v=0
101504 On ch=9 n=62 v=43
101540 Off ch=9 n=62 v=0
101568 On ch=9 n=64 v=39
101604 Off ch=9 n=64 v=0
101632 On ch=9 n=57 v=35
101668 Off ch=9 n=57 v=0
101696 On ch=9 n=57 v=33
101732 Off ch=9 n=57 v=0
101760 On ch=9 n=59 v=38
101796 Off ch=9 n=59 v=0
101824 On ch=9 n=61 v=37
101860 Off ch=9 n=61 v=0
101888 On ch=9 n=62 v=38
101961 Off ch=9 n=62 v=0
102016 On ch=9 n=60 v=30
102089 Off ch=9 n=60 v=0
102144 On ch=9 n=58 v=32
102217 Off ch=9 n=58 v=0
102272 On ch=9 n=57 v=37
102345 Off ch=9 n=57 v=0
102400 On ch=9 n=59 v=37
102436 Off ch=9 n=59 v=0
102464 On ch=9 n=59 v=32
102500 Off ch=9 n=59 v=0
102528 On ch=9 n=60 v=33
102564 Off ch=9 n=60 v=0
102592 On ch=9 n=62 v=40
102628 Off ch=9 n=62 v=0
102656 On ch=9 n=55 v=36
102692 Off ch=9 n=55 v=0
102720 On ch=9 n=55 v=36
102756 Off ch=9 n=55 v=0
102784 On ch=9 n=57 v=35
102820 Off ch=9 n=57 v=0
102848 On ch=9 n=59 v=35
102884 Off ch=9 n=59 v=0
102912 On ch=9 n=60 v=34
103156 Off ch=9 n=60 v=0
103808 On ch=9 n=64 v=32
104058 Off ch=9 n=64 v=0
104064 On ch=9 n=62 v=35
104308 Off ch=9 n=62 v=0
104320 On ch=9 n=62 v=38
104570 Off ch=9 n=62 v=0
104576 On ch=9 n=60 v=29
104820 Off ch=9 n=60 v=0
104832 On ch=9 n=72 v=44
104954 Off ch=9 n=72 v=0
104960 On ch=9 n=58 v=31
104996 Off ch=9 n=58 v=0
105024 On ch=9 n=60 v=36
105060 Off ch=9 n=60 v=0
105088 On ch=9 n=62 v=37
105124 Off ch=9 n=62 v=0
105152 On ch=9 n=60 v=31
105188 Off ch=9 n=60 v=0
105216 On ch=9 n=58 v=32
105252 Off ch=9 n=58 v=0
105280 On ch=9 n=62 v=40
105316 Off ch=9 n=62 v=0
105344 On ch=9 n=60 v=33
105380 Off ch=9 n=60 v=0
105408 On ch=9 n=58 v=36
105444 Off ch=9 n=58 v=0
105472 On ch=9 n=57 v=34
105508 Off ch=9 n=57 v=0
105536 On ch=9 n=58 v=38
105572 Off ch=9 n=58 v=0
105600 On ch=9 n=60 v=39
105636 Off ch=9 n=60 v=0
105664 On ch=9 n=62 v=39
105700 Off ch=9 n=62 v=0
105728 On ch=9 n=64 v=40
105764 Off ch=9 n=64 v=0
105792 On ch=9 n=65 v=38
105828 Off ch=9 n=65 v=0
105856 On ch=9 n=67 v=38
105892 Off ch=9 n=67 v=0
105920 On ch=9 n=69 v=38
105956 Off ch=9 n=69 v=0
105984 On ch=9 n=59 v=33
106228 Off ch=9 n=59 v=0
106240 On ch=9 n=59 v=36
106313 Off ch=9 n=59 v=0
106368 On ch=9 n=61 v=35
106441 Off ch=9 n=61 v=0
106496 On ch=9 n=62 v=37
106642 Off ch=9 n=62 v=0
106752 On ch=9 n=62 v=37
106890 Off ch=9 n=62 v=0
107008 On ch=9 n=59 v=39
107008 On ch=9 n=62 v=39
107044 Off ch=9 n=59 v=0
107044 Off ch=9 n=62 v=0
107072 On ch=9 n=59 v=40
107072 On ch=9 n=62 v=40
107108 Off ch=9 n=59 v=0
107108 Off ch=9 n=62 v=0
107136 On ch=9 n=59 v=39
107136 On ch=9 n=62 v=39
107172 Off ch=9 n=59 v=0
107172 Off ch=9 n=62 v=0
107200 On ch=9 n=59 v=41
107200 On ch=9 n=62 v=41
107236 Off ch=9 n=59 v=0
107236 Off ch=9 n=62 v=0
107264 On ch=9 n=59 v=40
107264 On ch=9 n=62 v=40
107300 Off ch=9 n=59 v=0
107300 Off ch=9 n=62 v=0
107328 On ch=9 n=59 v=48
107328 On ch=9 n=62 v=48
107364 Off ch=9 n=59 v=0
107364 Off ch=9 n=62 v=0
107392 On ch=9 n=59 v=50
107392 On ch=9 n=62 v=50
107428 Off ch=9 n=59 v=0
107428 Off ch=9 n=62 v=0
107456 On ch=9 n=59 v=54
107456 On ch=9 n=62 v=54
107492 Off ch=9 n=59 v=0
107492 Off ch=9 n=62 v=0
107520 On ch=9 n=59 v=53
107520 On ch=9 n=62 v=53
107556 Off ch=9 n=59 v=0
107556 Off ch=9 n=62 v=0
107584 On ch=9 n=59 v=58
107584 On ch=9 n=62 v=58
107620 Off ch=9 n=59 v=0
107620 Off ch=9 n=62 v=0
107648 On ch=9 n=59 v=58
107648 On ch=9 n=62 v=58
107684 Off ch=9 n=59 v=0
107684 Off ch=9 n=62 v=0
107712 On ch=9 n=59 v=58
107712 On ch=9 n=62 v=58
107748 Off ch=9 n=59 v=0
107748 Off ch=9 n=62 v=0
107776 On ch=9 n=59 v=58
107776 On ch=9 n=62 v=58
107812 Off ch=9 n=59 v=0
107812 Off ch=9 n=62 v=0
107840 On ch=9 n=59 v=65
107840 On ch=9 n=62 v=65
107876 Off ch=9 n=59 v=0
107876 Off ch=9 n=62 v=0
107904 On ch=9 n=59 v=63
107904 On ch=9 n=62 v=63
107940 Off ch=9 n=59 v=0
107940 Off ch=9 n=62 v=0
107968 On ch=9 n=59 v=67
107968 On ch=9 n=62 v=67
108004 Off ch=9 n=59 v=0
108004 Off ch=9 n=62 v=0
108032 On ch=9 n=59 v=70
108032 On ch=9 n=62 v=70
108068 Off ch=9 n=59 v=0
108068 Off ch=9 n=62 v=0
108096 On ch=9 n=59 v=76
108096 On ch=9 n=62 v=76
108132 Off ch=9 n=59 v=0
108132 Off ch=9 n=62 v=0
108160 On ch=9 n=59 v=77
108160 On ch=9 n=62 v=77
108196 Off ch=9 n=59 v=0
108196 Off ch=9 n=62 v=0
108224 On ch=9 n=59 v=83
108224 On ch=9 n=62 v=83
108260 Off ch=9 n=59 v=0
108260 Off ch=9 n=62 v=0
108288 On ch=9 n=59 v=86
108288 On ch=9 n=62 v=86
108324 Off ch=9 n=59 v=0
108324 Off ch=9 n=62 v=0
108352 On ch=9 n=59 v=83
108352 On ch=9 n=62 v=83
108388 Off ch=9 n=59 v=0
108388 Off ch=9 n=62 v=0
108416 On ch=9 n=59 v=87
108416 On ch=9 n=62 v=87
108452 Off ch=9 n=59 v=0
108452 Off ch=9 n=62 v=0
108480 On ch=9 n=59 v=90
108480 On ch=9 n=62 v=90
108516 Off ch=9 n=59 v=0
108516 Off ch=9 n=62 v=0
108544 On ch=9 n=59 v=92
108544 On ch=9 n=62 v=92
108580 Off ch=9 n=59 v=0
108580 Off ch=9 n=62 v=0
108608 On ch=9 n=59 v=92
108644 Off ch=9 n=59 v=0
108672 On ch=9 n=59 v=102
108708 Off ch=9 n=59 v=0
108736 On ch=9 n=59 v=102
108772 Off ch=9 n=59 v=0
108800 On ch=9 n=59 v=101
108836 Off ch=9 n=59 v=0
108864 On ch=9 n=59 v=108
108900 Off ch=9 n=59 v=0
108928 On ch=9 n=64 v=127
108964 Off ch=9 n=64 v=0
108992 On ch=9 n=62 v=106
109028 Off ch=9 n=62 v=0
109056 On ch=9 n=52 v=101
109056 On ch=9 n=60 v=101
109300 Off ch=9 n=52 v=0
109300 Off ch=9 n=60 v=0
109312 On ch=9 n=52 v=112
109312 On ch=9 n=60 v=112
109385 Off ch=9 n=52 v=0
109385 Off ch=9 n=60 v=0
109440 On ch=9 n=52 v=113
109440 On ch=9 n=60 v=113
109513 Off ch=9 n=52 v=0
109513 Off ch=9 n=60 v=0
109568 On ch=9 n=52 v=106
109568 On ch=9 n=59 v=106
109714 Off ch=9 n=52 v=0
109714 Off ch=9 n=59 v=0
109824 On ch=9 n=52 v=111
109824 On ch=9 n=59 v=111
109962 Off ch=9 n=52 v=0
109962 Off ch=9 n=59 v=0
110080 On ch=9 n=52 v=112
110080 On ch=9 n=59 v=112
110324 Off ch=9 n=52 v=0
110324 Off ch=9 n=59 v=0
110336 On ch=9 n=52 v=106
110336 On ch=9 n=59 v=106
110409 Off ch=9 n=52 v=0
110409 Off ch=9 n=59 v=0
110464 On ch=9 n=52 v=114
110464 On ch=9 n=59 v=114
110537 Off ch=9 n=52 v=0
110537 Off ch=9 n=59 v=0
110592 On ch=9 n=52 v=113
110592 On ch=9 n=60 v=113
110738 Off ch=9 n=52 v=0
110738 Off ch=9 n=60 v=0
110848 On ch=9 n=52 v=113
110848 On ch=9 n=60 v=113
110986 Off ch=9 n=52 v=0
110986 Off ch=9 n=60 v=0
111104 On ch=9 n=52 v=112
111104 On ch=9 n=60 v=112
111348 Off ch=9 n=52 v=0
111348 Off ch=9 n=60 v=0
111360 On ch=9 n=52 v=115
111360 On ch=9 n=60 v=115
111433 Off ch=9 n=52 v=0
111433 Off ch=9 n=60 v=0
111488 On ch=9 n=52 v=113
111488 On ch=9 n=60 v=113
111561 Off ch=9 n=52 v=0
111561 Off ch=9 n=60 v=0
111616 On ch=9 n=52 v=121
111616 On ch=9 n=62 v=121
111762 Off ch=9 n=52 v=0
111764 Off ch=9 n=62 v=0
111872 On ch=9 n=52 v=103
111872 On ch=9 n=60 v=103
112010 Off ch=9 n=52 v=0
112010 Off ch=9 n=60 v=0
112128 On ch=9 n=52 v=110
112128 On ch=9 n=59 v=110
112372 Off ch=9 n=52 v=0
112372 Off ch=9 n=59 v=0
112384 On ch=9 n=52 v=107
112384 On ch=9 n=57 v=107
112457 Off ch=9 n=52 v=0
112457 Off ch=9 n=57 v=0
112512 On ch=9 n=52 v=121
112512 On ch=9 n=59 v=121
112585 Off ch=9 n=52 v=0
112585 Off ch=9 n=59 v=0
112640 On ch=9 n=52 v=122
112640 On ch=9 n=60 v=122
112884 Off ch=9 n=52 v=0
112884 Off ch=9 n=60 v=0
114688 On ch=9 n=49 v=44
114688 On ch=9 n=52 v=44
115687 Off ch=9 n=49 v=0
115687 Off ch=9 n=52 v=0
115712 On ch=9 n=50 v=50
115712 On ch=9 n=54 v=50
116468 Off ch=9 n=50 v=0
116468 Off ch=9 n=54 v=0
116480 On ch=9 n=49 v=61
116480 On ch=9 n=52 v=61
116604 Off ch=9 n=49 v=0
116604 Off ch=9 n=52 v=0
116608 On ch=9 n=61 v=69
116723 Off ch=9 n=61 v=0
116736 On ch=9 n=59 v=72
116736 On ch=9 n=62 v=72
116984 Off ch=9 n=59 v=0
116984 Off ch=9 n=62 v=0
116992 On ch=9 n=57 v=67
116992 On ch=9 n=61 v=67
117116 Off ch=9 n=57 v=0
117116 Off ch=9 n=61 v=0
117120 On ch=9 n=49 v=66
117120 On ch=9 n=52 v=66
117235 Off ch=9 n=49 v=0
117235 Off ch=9 n=52 v=0
117248 On ch=9 n=50 v=75
117248 On ch=9 n=54 v=75
117496 Off ch=9 n=50 v=0
117496 Off ch=9 n=54 v=0
117504 On ch=9 n=52 v=61
117752 Off ch=9 n=52 v=0
117760 On ch=9 n=54 v=63
118008 Off ch=9 n=54 v=0
118016 On ch=9 n=56 v=60
118247 Off ch=9 n=56 v=0
118272 On ch=9 n=56 v=54
118520 Off ch=9 n=56 v=0
118528 On ch=9 n=52 v=49
118643 Off ch=9 n=52 v=0
118656 On ch=9 n=52 v=50
118778 Off ch=9 n=52 v=0
118784 On ch=9 n=52 v=44
119032 Off ch=9 n=52 v=0
119040 On ch=9 n=49 v=49
120001 Off ch=9 n=49 v=0
120064 On ch=9 n=50 v=73
120574 Off ch=9 n=50 v=0
120576 On ch=9 n=52 v=78
120807 Off ch=9 n=52 v=0
120832 On ch=9 n=54 v=74
121080 Off ch=9 n=54 v=0
121088 On ch=9 n=52 v=63
121336 Off ch=9 n=52 v=0
121344 On ch=9 n=54 v=64
121592 Off ch=9 n=54 v=0
121600 On ch=9 n=56 v=68
121831 Off ch=9 n=56 v=0
121856 On ch=9 n=52 v=60
122343 Off ch=9 n=52 v=0
122368 On ch=9 n=54 v=55
122612 Off ch=9 n=54 v=0
122624 On ch=9 n=56 v=58
122868 Off ch=9 n=56 v=0
122880 On ch=9 n=52 v=52
123376 Off ch=9 n=52 v=0
123392 On ch=9 n=54 v=65
123640 Off ch=9 n=54 v=0
123648 On ch=9 n=56 v=61
123879 Off ch=9 n=56 v=0
123904 On ch=9 n=52 v=34
124400 Off ch=9 n=52 v=0
124416 On ch=9 n=57 v=37
124912 Off ch=9 n=57 v=0
124928 On ch=9 n=55 v=38
125424 Off ch=9 n=55 v=0
125440 On ch=9 n=53 v=35
125902 Off ch=9 n=53 v=0
125952 On ch=9 n=55 v=114
126074 Off ch=9 n=55 v=0
126208 On ch=9 n=55 v=103
126208 On ch=9 n=67 v=103
126330 Off ch=9 n=55 v=0
126330 Off ch=9 n=67 v=0
126464 On ch=9 n=48 v=101
126464 On ch=9 n=60 v=101
126708 Off ch=9 n=48 v=0
126708 Off ch=9 n=60 v=0
126976 On ch=9 n=59 v=42
127220 Off ch=9 n=59 v=0
127232 On ch=9 n=59 v=48
127305 Off ch=9 n=59 v=0
127360 On ch=9 n=59 v=46
127433 Off ch=9 n=59 v=0
127488 On ch=9 n=57 v=47
127610 Off ch=9 n=57 v=0
128000 On ch=9 n=55 v=99
128122 Off ch=9 n=55 v=0
128256 On ch=9 n=55 v=100
128256 On ch=9 n=67 v=100
128378 Off ch=9 n=55 v=0
128378 Off ch=9 n=67 v=0
128512 On ch=9 n=48 v=104
128512 On ch=9 n=60 v=104
128756 Off ch=9 n=48 v=0
128756 Off ch=9 n=60 v=0
129024 On ch=9 n=59 v=37
129268 Off ch=9 n=59 v=0
129280 On ch=9 n=59 v=49
129353 Off ch=9 n=59 v=0
129408 On ch=9 n=59 v=54
129481 Off ch=9 n=59 v=0
130048 PrCh ch=9 p=45
130048 Par ch=9 c=7 v=95
130048 Par ch=9 c=10 v=75
130048 Par ch=9 c=91 v=59
130304 On ch=9 n=57 v=44
130548 Off ch=9 n=57 v=0
130816 On ch=9 n=52 v=46
131060 Off ch=9 n=52 v=0
131328 On ch=9 n=52 v=42
131572 Off ch=9 n=52 v=0
131840 On ch=9 n=57 v=41
132084 Off ch=9 n=57 v=0
132352 On ch=9 n=57 v=46
132596 Off ch=9 n=57 v=0
132864 On ch=9 n=55 v=31
133108 Off ch=9 n=55 v=0
133120 On ch=9 n=55 v=37
133364 Off ch=9 n=55 v=0
133376 On ch=9 n=55 v=35
133498 Off ch=9 n=55 v=0
133504 On ch=9 n=55 v=31
133626 Off ch=9 n=55 v=0
133632 On ch=9 n=55 v=36
133876 Off ch=9 n=55 v=0
134400 On ch=9 n=60 v=33
134644 Off ch=9 n=60 v=0
134912 On ch=9 n=59 v=37
135156 Off ch=9 n=59 v=0
135424 On ch=9 n=64 v=31
135668 Off ch=9 n=64 v=0
135936 On ch=9 n=57 v=31
136180 Off ch=9 n=57 v=0
136448 On ch=9 n=52 v=32
136692 Off ch=9 n=52 v=0
136704 On ch=9 n=52 v=32
136948 Off ch=9 n=52 v=0
136960 On ch=9 n=52 v=34
137204 Off ch=9 n=52 v=0
137216 On ch=9 n=52 v=34
137460 Off ch=9 n=52 v=0
137472 On ch=9 n=52 v=31
137594 Off ch=9 n=52 v=0
137600 On ch=9 n=52 v=33
137722 Off ch=9 n=52 v=0
137728 On ch=9 n=52 v=36
137972 Off ch=9 n=52 v=0
139264 On ch=9 n=52 v=43
139508 Off ch=9 n=52 v=0
139520 On ch=9 n=52 v=51
139642 Off ch=9 n=52 v=0
139648 On ch=9 n=52 v=45
139770 Off ch=9 n=52 v=0
139776 On ch=9 n=52 v=64
140020 Off ch=9 n=52 v=0
140032 On ch=9 n=54 v=65
140154 Off ch=9 n=54 v=0
140160 On ch=9 n=56 v=64
140282 Off ch=9 n=56 v=0
140288 On ch=9 n=57 v=63
140532 Off ch=9 n=57 v=0
140800 PrCh ch=9 p=48
140800 Par ch=9 c=7 v=95
140800 Par ch=9 c=10 v=75
140800 Par ch=9 c=91 v=59
140800 On ch=9 n=57 v=91
141044 Off ch=9 n=57 v=0
1024 On ch=11 n=48 v=49
1280 Off ch=11 n=48 v=0
1280 On ch=11 n=48 v=48
1356 Off ch=11 n=48 v=0
1408 On ch=11 n=48 v=46
1484 Off ch=11 n=48 v=0
1536 On ch=11 n=47 v=44
1689 Off ch=11 n=47 v=0
1792 On ch=11 n=47 v=46
1937 Off ch=11 n=47 v=0
2048 On ch=11 n=47 v=48
2304 Off ch=11 n=47 v=0
2304 On ch=11 n=47 v=48
2380 Off ch=11 n=47 v=0
2432 On ch=11 n=47 v=48
2508 Off ch=11 n=47 v=0
2560 On ch=11 n=48 v=50
2713 Off ch=11 n=48 v=0
2816 On ch=11 n=48 v=46
2961 Off ch=11 n=48 v=0
3072 On ch=11 n=48 v=46
3328 Off ch=11 n=48 v=0
3328 On ch=11 n=48 v=51
3404 Off ch=11 n=48 v=0
3456 On ch=11 n=48 v=47
3532 Off ch=11 n=48 v=0
3584 On ch=11 n=48 v=47
3737 Off ch=11 n=48 v=0
3840 On ch=11 n=48 v=44
3985 Off ch=11 n=48 v=0
4096 On ch=11 n=47 v=43
4352 Off ch=11 n=47 v=0
4352 On ch=11 n=45 v=47
4428 Off ch=11 n=45 v=0
4480 On ch=11 n=47 v=46
4556 Off ch=11 n=47 v=0
4608 On ch=11 n=48 v=48
4864 Off ch=11 n=48 v=0
5120 On ch=11 n=52 v=43
5376 Off ch=11 n=52 v=0
5376 On ch=11 n=52 v=46
5452 Off ch=11 n=52 v=0
5504 On ch=11 n=52 v=47
5580 Off ch=11 n=52 v=0
5632 On ch=11 n=51 v=49
5785 Off ch=11 n=51 v=0
5888 On ch=11 n=51 v=46
6033 Off ch=11 n=51 v=0
6144 On ch=11 n=50 v=46
6400 Off ch=11 n=50 v=0
6400 On ch=11 n=50 v=48
6476 Off ch=11 n=50 v=0
6528 On ch=11 n=50 v=52
6604 Off ch=11 n=50 v=0
6656 On ch=11 n=49 v=46
6812 Off ch=11 n=49 v=0
6912 On ch=11 n=48 v=48
7057 Off ch=11 n=48 v=0
7168 On ch=11 n=48 v=46
7424 Off ch=11 n=48 v=0
7424 On ch=11 n=48 v=47
7500 Off ch=11 n=48 v=0
7552 On ch=11 n=48 v=50
7628 Off ch=11 n=48 v=0
7680 On ch=11 n=47 v=45
7836 Off ch=11 n=47 v=0
7936 On ch=11 n=48 v=50
8081 Off ch=11 n=48 v=0
8192 On ch=11 n=47 v=45
8448 Off ch=11 n=47 v=0
8448 On ch=11 n=47 v=48
8524 Off ch=11 n=47 v=0
8576 On ch=11 n=47 v=48
8652 Off ch=11 n=47 v=0
8704 On ch=11 n=48 v=50
8960 Off ch=11 n=48 v=0
9216 On ch=11 n=52 v=30
9472 Off ch=11 n=52 v=0
9472 On ch=11 n=52 v=34
9548 Off ch=11 n=52 v=0
9600 On ch=11 n=52 v=41
9676 Off ch=11 n=52 v=0
9728 On ch=11 n=51 v=39
9881 Off ch=11 n=51 v=0
9984 On ch=11 n=51 v=30
10129 Off ch=11 n=51 v=0
10240 On ch=11 n=50 v=38
10496 Off ch=11 n=50 v=0
10496 On ch=11 n=50 v=36
10572 Off ch=11 n=50 v=0
10624 On ch=11 n=50 v=35
10700 Off ch=11 n=50 v=0
10752 On ch=11 n=49 v=37
10908 Off ch=11 n=49 v=0
11008 On ch=11 n=48 v=33
11153 Off ch=11 n=48 v=0
11264 On ch=11 n=48 v=36
11520 Off ch=11 n=48 v=0
11520 On ch=11 n=48 v=37
11596 Off ch=11 n=48 v=0
11648 On ch=11 n=48 v=33
11724 Off ch=11 n=48 v=0
11776 On ch=11 n=47 v=36
11932 Off ch=11 n=47 v=0
12032 On ch=11 n=48 v=39
12177 Off ch=11 n=48 v=0
12288 On ch=11 n=47 v=36
12544 Off ch=11 n=47 v=0
12544 On ch=11 n=47 v=31
12620 Off ch=11 n=47 v=0
12672 On ch=11 n=47 v=38
12748 Off ch=11 n=47 v=0
12800 On ch=11 n=48 v=34
13056 Off ch=11 n=48 v=0
13312 On ch=11 n=60 v=44
13824 On ch=11 n=59 v=45
13834 Off ch=11 n=60 v=0
14301 Off ch=11 n=59 v=0
14336 On ch=11 n=59 v=46
14400 Off ch=11 n=59 v=0
14400 On ch=11 n=60 v=46
14464 On ch=11 n=62 v=46
14464 Off ch=11 n=60 v=0
14720 Off ch=11 n=62 v=0
14720 On ch=11 n=60 v=46
14784 On ch=11 n=59 v=49
14785 Off ch=11 n=60 v=0
14844 Off ch=11 n=59 v=0
14848 On ch=11 n=59 v=46
14976 On ch=11 n=60 v=47
14978 Off ch=11 n=59 v=0
15097 Off ch=11 n=60 v=0
15104 On ch=11 n=60 v=50
15360 Off ch=11 n=60 v=0
15360 On ch=11 n=60 v=46
15744 Off ch=11 n=60 v=0
15744 On ch=11 n=60 v=50
15808 On ch=11 n=62 v=49
15809 Off ch=11 n=60 v=0
15868 Off ch=11 n=62 v=0
15872 On ch=11 n=63 v=46
16000 On ch=11 n=64 v=49
16002 Off ch=11 n=63 v=0
16121 Off ch=11 n=64 v=0
16128 On ch=11 n=64 v=51
16204 Off ch=11 n=64 v=0
16256 On ch=11 n=64 v=48
16332 Off ch=11 n=64 v=0
16384 On ch=11 n=62 v=45
16448 On ch=11 n=64 v=53
16449 Off ch=11 n=62 v=0
16512 On ch=11 n=65 v=50
16513 Off ch=11 n=64 v=0
16768 On ch=11 n=64 v=47
16773 Off ch=11 n=65 v=0
16832 On ch=11 n=62 v=42
16833 Off ch=11 n=64 v=0
16892 Off ch=11 n=62 v=0
16896 On ch=11 n=62 v=46
17024 On ch=11 n=64 v=53
17026 Off ch=11 n=62 v=0
17145 Off ch=11 n=64 v=0
17152 On ch=11 n=64 v=47
17408 Off ch=11 n=64 v=0
17408 On ch=11 n=64 v=51
17920 On ch=11 n=63 v=48
17930 Off ch=11 n=64 v=0
18406 Off ch=11 n=63 v=0
18432 On ch=11 n=62 v=48
18560 On ch=11 n=59 v=45
18562 Off ch=11 n=62 v=0
18624 On ch=11 n=61 v=47
18625 Off ch=11 n=59 v=0
18688 On ch=11 n=62 v=50
18689 Off ch=11 n=61 v=0
18816 On ch=11 n=64 v=52
18818 Off ch=11 n=62 v=0
18880 On ch=11 n=62 v=45
18881 Off ch=11 n=64 v=0
18940 Off ch=11 n=62 v=0
18944 On ch=11 n=62 v=53
19072 On ch=11 n=61 v=51
19074 Off ch=11 n=62 v=0
19193 Off ch=11 n=61 v=0
19200 On ch=11 n=60 v=45
19456 Off ch=11 n=60 v=0
19456 On ch=11 n=60 v=49
19968 On ch=11 n=59 v=44
19978 Off ch=11 n=60 v=0
20224 On ch=11 n=60 v=45
20229 Off ch=11 n=59 v=0
20445 Off ch=11 n=60 v=0
20480 On ch=11 n=59 v=50
20544 Off ch=11 n=59 v=0
20544 On ch=11 n=60 v=50
20608 On ch=11 n=62 v=50
20608 Off ch=11 n=60 v=0
20864 Off ch=11 n=62 v=0
20864 On ch=11 n=60 v=50
20928 On ch=11 n=59 v=45
20929 Off ch=11 n=60 v=0
20988 Off ch=11 n=59 v=0
20992 On ch=11 n=57 v=45
21068 Off ch=11 n=57 v=0
21120 On ch=11 n=57 v=43
21184 On ch=11 n=59 v=42
21185 Off ch=11 n=57 v=0
21244 Off ch=11 n=59 v=0
21248 On ch=11 n=60 v=53
21324 Off ch=11 n=60 v=0
21376 On ch=11 n=60 v=50
21440 On ch=11 n=62 v=55
21441 Off ch=11 n=60 v=0
21500 Off ch=11 n=62 v=0
21504 On ch=11 n=64 v=37
22016 On ch=11 n=63 v=31
22026 Off ch=11 n=64 v=0
22502 Off ch=11 n=63 v=0
22528 On ch=11 n=62 v=34
22656 On ch=11 n=59 v=31
22658 Off ch=11 n=62 v=0
22720 On ch=11 n=61 v=36
22721 Off ch=11 n=59 v=0
22784 On ch=11 n=62 v=37
22785 Off ch=11 n=61 v=0
22912 On ch=11 n=64 v=39
22914 Off ch=11 n=62 v=0
22976 On ch=11 n=62 v=33
22977 Off ch=11 n=64 v=0
23036 Off ch=11 n=62 v=0
23040 On ch=11 n=62 v=34
23168 Off ch=11 n=62 v=0
23168 On ch=11 n=61 v=33
23296 Off ch=11 n=61 v=0
23296 On ch=11 n=60 v=38
23552 Off ch=11 n=60 v=0
23552 On ch=11 n=60 v=38
24064 On ch=11 n=59 v=38
24074 Off ch=11 n=60 v=0
24320 On ch=11 n=60 v=40
24325 Off ch=11 n=59 v=0
24541 Off ch=11 n=60 v=0
24576 On ch=11 n=59 v=44
24640 Off ch=11 n=59 v=0
24640 On ch=11 n=60 v=44
24704 On ch=11 n=62 v=44
24704 Off ch=11 n=60 v=0
24960 Off ch=11 n=62 v=0
24960 On ch=11 n=60 v=42
25024 On ch=11 n=59 v=33
25025 Off ch=11 n=60 v=0
25084 Off ch=11 n=59 v=0
25088 On ch=11 n=57 v=35
25344 Off ch=11 n=57 v=0
25728 On ch=11 n=57 v=43
25856 On ch=11 n=60 v=46
25858 Off ch=11 n=57 v=0
25984 On ch=11 n=52 v=50
25986 Off ch=11 n=60 v=0
26105 Off ch=11 n=52 v=0
26240 On ch=11 n=56 v=49
26368 On ch=11 n=59 v=53
26370 Off ch=11 n=56 v=0
26496 On ch=11 n=52 v=50
26498 Off ch=11 n=59 v=0
26617 Off ch=11 n=52 v=0
26752 On ch=11 n=56 v=47
26880 On ch=11 n=59 v=49
26882 Off ch=11 n=56 v=0
27008 On ch=11 n=52 v=52
27010 Off ch=11 n=59 v=0
27129 Off ch=11 n=52 v=0
27264 On ch=11 n=57 v=51
27392 On ch=11 n=60 v=57
27394 Off ch=11 n=57 v=0
27520 On ch=11 n=52 v=53
27522 Off ch=11 n=60 v=0
27641 Off ch=11 n=52 v=0
27776 On ch=11 n=57 v=58
27904 On ch=11 n=60 v=67
27906 Off ch=11 n=57 v=0
28032 On ch=11 n=48 v=58
28034 Off ch=11 n=60 v=0
28153 Off ch=11 n=48 v=0
28288 On ch=11 n=55 v=57
28416 On ch=11 n=60 v=69
28418 Off ch=11 n=55 v=0
28544 On ch=11 n=48 v=57
28546 Off ch=11 n=60 v=0
28665 Off ch=11 n=48 v=0
28800 On ch=11 n=59 v=59
28928 On ch=11 n=62 v=74
28930 Off ch=11 n=59 v=0
29056 On ch=11 n=55 v=63
29058 Off ch=11 n=62 v=0
29177 Off ch=11 n=55 v=0
29312 On ch=11 n=55 v=63
29440 On ch=11 n=60 v=75
29442 Off ch=11 n=55 v=0
29568 On ch=11 n=48 v=64
29570 Off ch=11 n=60 v=0
29689 Off ch=11 n=48 v=0
29824 On ch=11 n=60 v=62
29952 On ch=11 n=64 v=79
29954 Off ch=11 n=60 v=0
30080 On ch=11 n=52 v=62
30082 Off ch=11 n=64 v=0
30201 Off ch=11 n=52 v=0
30336 On ch=11 n=54 v=65
30464 On ch=11 n=59 v=72
30466 Off ch=11 n=54 v=0
30592 On ch=11 n=47 v=68
30594 Off ch=11 n=59 v=0
30713 Off ch=11 n=47 v=0
30848 On ch=11 n=59 v=67
30976 On ch=11 n=62 v=83
30978 Off ch=11 n=59 v=0
31104 On ch=11 n=50 v=71
31106 Off ch=11 n=62 v=0
31225 Off ch=11 n=50 v=0
31360 On ch=11 n=52 v=71
31488 On ch=11 n=57 v=85
31490 Off ch=11 n=52 v=0
31616 On ch=11 n=45 v=71
31618 Off ch=11 n=57 v=0
31737 Off ch=11 n=45 v=0
31872 On ch=11 n=57 v=72
32000 On ch=11 n=64 v=99
32002 Off ch=11 n=57 v=0
32128 On ch=11 n=52 v=77
32130 Off ch=11 n=64 v=0
32249 Off ch=11 n=52 v=0
32384 On ch=11 n=59 v=78
32512 On ch=11 n=64 v=94
32514 Off ch=11 n=59 v=0
32640 On ch=11 n=52 v=81
32642 Off ch=11 n=64 v=0
32761 Off ch=11 n=52 v=0
32896 On ch=11 n=59 v=81
33024 On ch=11 n=64 v=98
33026 Off ch=11 n=59 v=0
33152 On ch=11 n=52 v=80
33154 Off ch=11 n=64 v=0
33273 Off ch=11 n=52 v=0
33408 On ch=11 n=60 v=85
33536 On ch=11 n=64 v=90
33538 Off ch=11 n=60 v=0
33664 On ch=11 n=57 v=86
33666 Off ch=11 n=64 v=0
33785 Off ch=11 n=57 v=0
33920 On ch=11 n=60 v=88
34048 On ch=11 n=64 v=98
34050 Off ch=11 n=60 v=0
34176 On ch=11 n=52 v=84
34178 Off ch=11 n=64 v=0
34297 Off ch=11 n=52 v=0
34432 On ch=11 n=54 v=85
34560 On ch=11 n=59 v=90
34562 Off ch=11 n=54 v=0
34688 On ch=11 n=47 v=86
34690 Off ch=11 n=59 v=0
34809 Off ch=11 n=47 v=0
34944 On ch=11 n=59 v=94
35072 On ch=11 n=62 v=100
35074 Off ch=11 n=59 v=0
35200 On ch=11 n=50 v=90
35202 Off ch=11 n=62 v=0
35321 Off ch=11 n=50 v=0
35456 On ch=11 n=52 v=94
35584 On ch=11 n=57 v=98
35586 Off ch=11 n=52 v=0
35712 On ch=11 n=45 v=94
35714 Off ch=11 n=57 v=0
35833 Off ch=11 n=45 v=0
35968 On ch=11 n=57 v=96
36096 On ch=11 n=64 v=112
36098 Off ch=11 n=57 v=0
36224 On ch=11 n=52 v=95
36226 Off ch=11 n=64 v=0
36345 Off ch=11 n=52 v=0
36480 On ch=11 n=59 v=91
36608 On ch=11 n=64 v=100
36610 Off ch=11 n=59 v=0
36736 On ch=11 n=52 v=96
36738 Off ch=11 n=64 v=0
36857 Off ch=11 n=52 v=0
36992 On ch=11 n=59 v=94
37120 On ch=11 n=64 v=104
37122 Off ch=11 n=59 v=0
37248 On ch=11 n=52 v=92
37250 Off ch=11 n=64 v=0
37369 Off ch=11 n=52 v=0
37504 On ch=11 n=60 v=93
37632 On ch=11 n=64 v=104
37634 Off ch=11 n=60 v=0
37760 On ch=11 n=57 v=94
37762 Off ch=11 n=64 v=0
37881 Off ch=11 n=57 v=0
37888 On ch=11 n=45 v=99
37939 Off ch=11 n=45 v=0
37973 On ch=11 n=57 v=122
38024 Off ch=11 n=57 v=0
38058 On ch=11 n=60 v=122
38109 Off ch=11 n=60 v=0
38144 On ch=11 n=45 v=100
38400 Off ch=11 n=45 v=0
38400 On ch=11 n=44 v=107
38451 Off ch=11 n=44 v=0
38485 On ch=11 n=56 v=122
38536 Off ch=11 n=56 v=0
38570 On ch=11 n=59 v=121
38621 Off ch=11 n=59 v=0
38656 On ch=11 n=44 v=98
38912 Off ch=11 n=44 v=0
38912 On ch=11 n=40 v=107
38963 Off ch=11 n=40 v=0
38997 On ch=11 n=56 v=125
39048 Off ch=11 n=56 v=0
39082 On ch=11 n=59 v=119
39133 Off ch=11 n=59 v=0
39168 On ch=11 n=40 v=100
39424 Off ch=11 n=40 v=0
39424 On ch=11 n=45 v=117
39475 Off ch=11 n=45 v=0
39509 On ch=11 n=57 v=125
39560 Off ch=11 n=57 v=0
39594 On ch=11 n=60 v=122
39645 Off ch=11 n=60 v=0
39680 On ch=11 n=45 v=100
39936 Off ch=11 n=45 v=0
39936 On ch=11 n=45 v=105
39987 Off ch=11 n=45 v=0
40021 On ch=11 n=57 v=123
40072 Off ch=11 n=57 v=0
40106 On ch=11 n=60 v=126
40157 Off ch=11 n=60 v=0
40192 On ch=11 n=45 v=96
40448 Off ch=11 n=45 v=0
40448 On ch=11 n=43 v=106
40499 Off ch=11 n=43 v=0
40533 On ch=11 n=57 v=122
40584 Off ch=11 n=57 v=0
40618 On ch=11 n=60 v=127
40669 Off ch=11 n=60 v=0
40704 On ch=11 n=43 v=104
40960 Off ch=11 n=43 v=0
40960 On ch=11 n=43 v=108
41011 Off ch=11 n=43 v=0
41045 On ch=11 n=59 v=123
41096 Off ch=11 n=59 v=0
41130 On ch=11 n=62 v=125
41181 Off ch=11 n=62 v=0
41216 On ch=11 n=43 v=101
41472 Off ch=11 n=43 v=0
41472 On ch=11 n=36 v=97
41523 Off ch=11 n=36 v=0
41557 On ch=11 n=55 v=127
41608 Off ch=11 n=55 v=0
41642 On ch=11 n=60 v=127
41693 Off ch=11 n=60 v=0
41728 On ch=11 n=36 v=98
41984 Off ch=11 n=36 v=0
41984 On ch=11 n=36 v=106
42035 Off ch=11 n=36 v=0
42069 On ch=11 n=55 v=127
42120 Off ch=11 n=55 v=0
42154 On ch=11 n=60 v=125
42205 Off ch=11 n=60 v=0
42240 On ch=11 n=36 v=105
42496 Off ch=11 n=36 v=0
42496 On ch=11 n=47 v=127
42547 Off ch=11 n=47 v=0
42581 On ch=11 n=47 v=119
42632 Off ch=11 n=47 v=0
42666 On ch=11 n=59 v=123
42717 Off ch=11 n=59 v=0
42752 On ch=11 n=47 v=101
43008 Off ch=11 n=47 v=0
43008 On ch=11 n=47 v=108
43059 Off ch=11 n=47 v=0
43093 On ch=11 n=59 v=126
43144 Off ch=11 n=59 v=0
43178 On ch=11 n=62 v=121
43229 Off ch=11 n=62 v=0
43264 On ch=11 n=47 v=100
43520 Off ch=11 n=47 v=0
43520 On ch=11 n=45 v=107
43571 Off ch=11 n=45 v=0
43605 On ch=11 n=45 v=110
43656 Off ch=11 n=45 v=0
43690 On ch=11 n=57 v=125
43741 Off ch=11 n=57 v=0
43776 On ch=11 n=45 v=98
44032 Off ch=11 n=45 v=0
44032 On ch=11 n=45 v=109
44083 Off ch=11 n=45 v=0
44117 On ch=11 n=57 v=127
44168 Off ch=11 n=57 v=0
44202 On ch=11 n=60 v=123
44253 Off ch=11 n=60 v=0
44288 On ch=11 n=45 v=98
44544 Off ch=11 n=45 v=0
44544 On ch=11 n=44 v=106
44595 Off ch=11 n=44 v=0
44629 On ch=11 n=56 v=127
44680 Off ch=11 n=56 v=0
44714 On ch=11 n=59 v=114
44765 Off ch=11 n=59 v=0
44800 On ch=11 n=45 v=98
45056 Off ch=11 n=45 v=0
45056 On ch=11 n=40 v=101
45107 Off ch=11 n=40 v=0
45141 On ch=11 n=56 v=124
45192 Off ch=11 n=56 v=0
45226 On ch=11 n=59 v=112
45277 Off ch=11 n=59 v=0
45312 On ch=11 n=40 v=99
45568 Off ch=11 n=40 v=0
45568 On ch=11 n=45 v=116
45619 Off ch=11 n=45 v=0
45653 On ch=11 n=45 v=111
45704 Off ch=11 n=45 v=0
45738 On ch=11 n=57 v=127
45789 Off ch=11 n=57 v=0
45824 On ch=11 n=45 v=97
45875 Off ch=11 n=45 v=0
45909 On ch=11 n=45 v=110
45960 Off ch=11 n=45 v=0
45994 On ch=11 n=47 v=117
46045 Off ch=11 n=47 v=0
46080 On ch=11 n=48 v=98
46131 Off ch=11 n=48 v=0
46165 On ch=11 n=55 v=107
46216 Off ch=11 n=55 v=0
46250 On ch=11 n=60 v=117
46301 Off ch=11 n=60 v=0
46336 On ch=11 n=36 v=84
46592 Off ch=11 n=36 v=0
46592 On ch=11 n=47 v=107
46643 Off ch=11 n=47 v=0
46677 On ch=11 n=47 v=93
46728 Off ch=11 n=47 v=0
46762 On ch=11 n=59 v=106
46813 Off ch=11 n=59 v=0
46848 On ch=11 n=47 v=78
47104 Off ch=11 n=47 v=0
47104 On ch=11 n=47 v=80
47155 Off ch=11 n=47 v=0
47189 On ch=11 n=59 v=91
47240 Off ch=11 n=59 v=0
47274 On ch=11 n=62 v=90
47325 Off ch=11 n=62 v=0
47360 On ch=11 n=47 v=71
47616 Off ch=11 n=47 v=0
47616 On ch=11 n=45 v=71
47667 Off ch=11 n=45 v=0
47701 On ch=11 n=45 v=69
47752 Off ch=11 n=45 v=0
47786 On ch=11 n=57 v=77
47837 Off ch=11 n=57 v=0
47872 On ch=11 n=45 v=59
48128 Off ch=11 n=45 v=0
48128 On ch=11 n=45 v=52
48179 Off ch=11 n=45 v=0
48213 On ch=11 n=57 v=69
48264 Off ch=11 n=57 v=0
48298 On ch=11 n=60 v=69
48349 Off ch=11 n=60 v=0
48384 On ch=11 n=45 v=52
48640 Off ch=11 n=45 v=0
48640 On ch=11 n=44 v=58
48691 Off ch=11 n=44 v=0
48725 On ch=11 n=56 v=70
48776 Off ch=11 n=56 v=0
48810 On ch=11 n=59 v=64
48861 Off ch=11 n=59 v=0
48896 On ch=11 n=45 v=47
49152 Off ch=11 n=45 v=0
49152 On ch=11 n=40 v=46
49203 Off ch=11 n=40 v=0
49237 On ch=11 n=56 v=59
49288 Off ch=11 n=56 v=0
49322 On ch=11 n=64 v=65
49373 Off ch=11 n=64 v=0
49408 On ch=11 n=52 v=50
49459 Off ch=11 n=52 v=0
49493 On ch=11 n=52 v=48
49544 Off ch=11 n=52 v=0
49578 On ch=11 n=52 v=48
49629 Off ch=11 n=52 v=0
49664 On ch=11 n=45 v=45
49920 Off ch=11 n=45 v=0
51200 On ch=11 n=40 v=40
51293 PrCh ch=11 p=45
51293 Par ch=11 c=7 v=88
51293 Par ch=11 c=10 v=95
51293 Par ch=11 c=91 v=59
51456 Off ch=11 n=40 v=0
51456 On ch=11 n=42 v=48
51584 Off ch=11 n=42 v=0
51584 On ch=11 n=44 v=54
51712 Off ch=11 n=44 v=0
51712 On ch=11 n=45 v=50
51968 Off ch=11 n=45 v=0
51968 On ch=11 n=57 v=55
52096 Off ch=11 n=57 v=0
52096 On ch=11 n=57 v=55
52224 Off ch=11 n=57 v=0
52224 On ch=11 n=45 v=40
52480 Off ch=11 n=45 v=0
52480 On ch=11 n=57 v=53
52608 Off ch=11 n=57 v=0
52608 On ch=11 n=57 v=48
52736 Off ch=11 n=57 v=0
52736 On ch=11 n=45 v=38
52992 Off ch=11 n=45 v=0
52992 On ch=11 n=57 v=56
53120 Off ch=11 n=57 v=0
53120 On ch=11 n=57 v=52
53248 Off ch=11 n=57 v=0
53248 On ch=11 n=45 v=52
53504 Off ch=11 n=45 v=0
53504 On ch=11 n=57 v=59
53632 Off ch=11 n=57 v=0
53632 On ch=11 n=57 v=64
53760 Off ch=11 n=57 v=0
53760 On ch=11 n=45 v=51
54016 Off ch=11 n=45 v=0
54016 On ch=11 n=57 v=75
54144 Off ch=11 n=57 v=0
54144 On ch=11 n=57 v=70
54272 Off ch=11 n=57 v=0
54272 On ch=11 n=45 v=61
54528 Off ch=11 n=45 v=0
54528 On ch=11 n=57 v=83
54656 Off ch=11 n=57 v=0
54656 On ch=11 n=57 v=85
54784 Off ch=11 n=57 v=0
54784 On ch=11 n=45 v=54
55040 Off ch=11 n=45 v=0
55040 On ch=11 n=57 v=66
55168 Off ch=11 n=57 v=0
55168 On ch=11 n=57 v=54
55296 Off ch=11 n=57 v=0
55296 On ch=11 n=45 v=46
55552 Off ch=11 n=45 v=0
55552 On ch=11 n=57 v=62
55680 Off ch=11 n=57 v=0
55680 On ch=11 n=57 v=51
55808 Off ch=11 n=57 v=0
55808 On ch=11 n=45 v=39
56064 Off ch=11 n=45 v=0
56064 On ch=11 n=57 v=55
56192 Off ch=11 n=57 v=0
56192 On ch=11 n=57 v=50
56320 Off ch=11 n=57 v=0
56320 On ch=11 n=45 v=42
56576 Off ch=11 n=45 v=0
56576 On ch=11 n=57 v=59
56704 Off ch=11 n=57 v=0
56704 On ch=11 n=57 v=57
56832 Off ch=11 n=57 v=0
56832 On ch=11 n=45 v=46
57088 Off ch=11 n=45 v=0
57088 On ch=11 n=57 v=61
57216 Off ch=11 n=57 v=0
57216 On ch=11 n=57 v=60
57344 Off ch=11 n=57 v=0
57344 On ch=11 n=45 v=51
57600 Off ch=11 n=45 v=0
57600 On ch=11 n=57 v=73
57728 Off ch=11 n=57 v=0
57728 On ch=11 n=57 v=60
57856 Off ch=11 n=57 v=0
57856 On ch=11 n=42 v=56
57984 Off ch=11 n=42 v=0
57984 On ch=11 n=44 v=62
58112 Off ch=11 n=44 v=0
58112 On ch=11 n=45 v=64
58240 Off ch=11 n=45 v=0
58240 On ch=11 n=45 v=59
58368 Off ch=11 n=45 v=0
58368 On ch=11 n=47 v=60
58624 Off ch=11 n=47 v=0
58624 On ch=11 n=59 v=56
58752 Off ch=11 n=59 v=0
58752 On ch=11 n=59 v=49
58880 Off ch=11 n=59 v=0
58880 On ch=11 n=52 v=46
59136 Off ch=11 n=52 v=0
59136 On ch=11 n=64 v=42
59264 Off ch=11 n=64 v=0
59264 On ch=11 n=64 v=36
59392 Off ch=11 n=64 v=0
59392 On ch=11 n=52 v=29
59648 Off ch=11 n=52 v=0
59648 On ch=11 n=64 v=43
59776 Off ch=11 n=64 v=0
59776 On ch=11 n=64 v=42
59904 Off ch=11 n=64 v=0
59904 On ch=11 n=52 v=33
60160 Off ch=11 n=52 v=0
60160 On ch=11 n=64 v=46
60288 Off ch=11 n=64 v=0
60288 On ch=11 n=64 v=35
60416 Off ch=11 n=64 v=0
60416 On ch=11 n=52 v=31
60672 Off ch=11 n=52 v=0
60672 On ch=11 n=64 v=51
60800 Off ch=11 n=64 v=0
60800 On ch=11 n=64 v=39
60928 Off ch=11 n=64 v=0
60928 On ch=11 n=52 v=31
61184 Off ch=11 n=52 v=0
61184 On ch=11 n=64 v=47
61312 Off ch=11 n=64 v=0
61312 On ch=11 n=64 v=38
61440 Off ch=11 n=64 v=0
61440 On ch=11 n=52 v=32
61696 Off ch=11 n=52 v=0
61696 On ch=11 n=64 v=50
61824 Off ch=11 n=64 v=0
61824 On ch=11 n=64 v=35
61952 Off ch=11 n=64 v=0
61952 On ch=11 n=52 v=35
62208 Off ch=11 n=52 v=0
62208 On ch=11 n=64 v=46
62336 Off ch=11 n=64 v=0
62336 On ch=11 n=64 v=39
62464 Off ch=11 n=64 v=0
62464 On ch=11 n=49 v=36
62720 Off ch=11 n=49 v=0
62720 On ch=11 n=61 v=48
62848 Off ch=11 n=61 v=0
62848 On ch=11 n=61 v=43
62976 Off ch=11 n=61 v=0
62976 On ch=11 n=50 v=37
63232 Off ch=11 n=50 v=0
63232 On ch=11 n=62 v=69
63360 Off ch=11 n=62 v=0
63360 On ch=11 n=62 v=57
63488 Off ch=11 n=62 v=0
63488 On ch=11 n=49 v=53
63744 Off ch=11 n=49 v=0
63744 On ch=11 n=61 v=78
63872 Off ch=11 n=61 v=0
63872 On ch=11 n=61 v=72
64000 Off ch=11 n=61 v=0
64000 On ch=11 n=50 v=62
64256 Off ch=11 n=50 v=0
64256 On ch=11 n=62 v=94
64384 Off ch=11 n=62 v=0
64384 On ch=11 n=62 v=83
64512 Off ch=11 n=62 v=0
64512 On ch=11 n=49 v=64
64768 Off ch=11 n=49 v=0
64768 On ch=11 n=61 v=93
64896 Off ch=11 n=61 v=0
64896 On ch=11 n=61 v=78
65024 Off ch=11 n=61 v=0
65024 On ch=11 n=50 v=63
65280 Off ch=11 n=50 v=0
65280 On ch=11 n=62 v=80
65408 Off ch=11 n=62 v=0
65408 On ch=11 n=62 v=71
65536 Off ch=11 n=62 v=0
65536 On ch=11 n=52 v=44
65792 Off ch=11 n=52 v=0
65792 On ch=11 n=64 v=66
65920 Off ch=11 n=64 v=0
65920 On ch=11 n=64 v=54
66048 Off ch=11 n=64 v=0
66048 On ch=11 n=45 v=51
66304 Off ch=11 n=45 v=0
66304 On ch=11 n=57 v=63
66432 Off ch=11 n=57 v=0
66432 On ch=11 n=57 v=57
66560 Off ch=11 n=57 v=0
66560 On ch=11 n=49 v=49
66816 Off ch=11 n=49 v=0
66816 On ch=11 n=61 v=78
66944 Off ch=11 n=61 v=0
66944 On ch=11 n=61 v=67
67072 Off ch=11 n=61 v=0
67072 On ch=11 n=50 v=56
67328 Off ch=11 n=50 v=0
67328 On ch=11 n=62 v=84
67456 Off ch=11 n=62 v=0
67456 On ch=11 n=62 v=70
67584 Off ch=11 n=62 v=0
67584 On ch=11 n=49 v=63
67840 Off ch=11 n=49 v=0
67840 On ch=11 n=61 v=100
67968 Off ch=11 n=61 v=0
67968 On ch=11 n=61 v=80
68096 Off ch=11 n=61 v=0
68096 On ch=11 n=50 v=67
68352 Off ch=11 n=50 v=0
68352 On ch=11 n=62 v=100
68480 Off ch=11 n=62 v=0
68480 On ch=11 n=62 v=81
68608 Off ch=11 n=62 v=0
68608 On ch=11 n=49 v=59
68864 Off ch=11 n=49 v=0
68864 On ch=11 n=48 v=67
68992 Off ch=11 n=48 v=0
68992 On ch=11 n=48 v=69
69120 Off ch=11 n=48 v=0
69120 On ch=11 n=41 v=62
69376 Off ch=11 n=41 v=0
69376 On ch=11 n=53 v=70
69504 Off ch=11 n=53 v=0
69504 On ch=11 n=53 v=66
69632 Off ch=11 n=53 v=0
69632 On ch=11 n=43 v=44
69888 Off ch=11 n=43 v=0
69888 On ch=11 n=55 v=58
70016 Off ch=11 n=55 v=0
70016 On ch=11 n=55 v=50
70144 Off ch=11 n=55 v=0
70144 On ch=11 n=48 v=44
70400 Off ch=11 n=48 v=0
70400 On ch=11 n=60 v=59
70528 Off ch=11 n=60 v=0
70528 On ch=11 n=60 v=48
70656 Off ch=11 n=60 v=0
70656 On ch=11 n=48 v=49
70912 Off ch=11 n=48 v=0
70912 On ch=11 n=60 v=60
71040 Off ch=11 n=60 v=0
71040 On ch=11 n=60 v=45
71168 Off ch=11 n=60 v=0
71168 On ch=11 n=48 v=42
71424 Off ch=11 n=48 v=0
71424 On ch=11 n=60 v=61
71552 Off ch=11 n=60 v=0
71552 On ch=11 n=60 v=54
71680 Off ch=11 n=60 v=0
71680 On ch=11 n=48 v=47
71936 Off ch=11 n=48 v=0
71936 On ch=11 n=60 v=58
72064 Off ch=11 n=60 v=0
72064 On ch=11 n=60 v=49
72192 Off ch=11 n=60 v=0
72192 On ch=11 n=48 v=41
72448 Off ch=11 n=48 v=0
72448 On ch=11 n=60 v=57
72576 Off ch=11 n=60 v=0
72576 On ch=11 n=60 v=54
72704 Off ch=11 n=60 v=0
72704 On ch=11 n=48 v=45
72960 Off ch=11 n=48 v=0
72960 On ch=11 n=60 v=67
73088 Off ch=11 n=60 v=0
73088 On ch=11 n=60 v=54
73216 Off ch=11 n=60 v=0
74408 PrCh ch=11 p=48
74408 Par ch=11 c=7 v=88
74408 Par ch=11 c=10 v=95
74408 Par ch=11 c=91 v=59
74666 On ch=11 n=60 v=88
74717 Off ch=11 n=60 v=0
74752 On ch=11 n=59 v=95
74803 Off ch=11 n=59 v=0
74837 On ch=11 n=57 v=93
74888 Off ch=11 n=57 v=0
74922 On ch=11 n=55 v=97
74973 Off ch=11 n=55 v=0
75008 On ch=11 n=53 v=95
75059 Off ch=11 n=53 v=0
75093 On ch=11 n=52 v=94
75144 Off ch=11 n=52 v=0
75178 On ch=11 n=50 v=89
75229 Off ch=11 n=50 v=0
75264 On ch=11 n=48 v=94
75315 Off ch=11 n=48 v=0
75349 On ch=11 n=47 v=93
75400 Off ch=11 n=47 v=0
75434 On ch=11 n=45 v=109
75485 Off ch=11 n=45 v=0
75520 On ch=11 n=44 v=117
75596 Off ch=11 n=44 v=0
75648 On ch=11 n=44 v=111
75724 Off ch=11 n=44 v=0
76288 PrCh ch=11 p=45
76288 Par ch=11 c=7 v=88
76288 Par ch=11 c=10 v=95
76288 Par ch=11 c=91 v=59
76288 On ch=11 n=40 v=45
76544 Off ch=11 n=40 v=0
76544 On ch=11 n=40 v=40
76672 Off ch=11 n=40 v=0
76672 On ch=11 n=40 v=35
76800 Off ch=11 n=40 v=0
76800 On ch=11 n=40 v=37
77056 Off ch=11 n=40 v=0
77056 On ch=11 n=40 v=33
77312 Off ch=11 n=40 v=0
77312 On ch=11 n=40 v=34
77568 Off ch=11 n=40 v=0
77568 On ch=11 n=40 v=36
77696 Off ch=11 n=40 v=0
77696 On ch=11 n=40 v=34
77824 Off ch=11 n=40 v=0
77824 On ch=11 n=40 v=29
78080 Off ch=11 n=40 v=0
78080 On ch=11 n=40 v=36
78336 Off ch=11 n=40 v=0
78336 On ch=11 n=40 v=38
78592 Off ch=11 n=40 v=0
78592 On ch=11 n=40 v=37
78720 Off ch=11 n=40 v=0
78720 On ch=11 n=42 v=34
78848 Off ch=11 n=42 v=0
78848 On ch=11 n=43 v=37
79104 Off ch=11 n=43 v=0
79104 On ch=11 n=43 v=34
79360 Off ch=11 n=43 v=0
79360 On ch=11 n=43 v=39
79616 Off ch=11 n=43 v=0
79616 On ch=11 n=43 v=34
79744 Off ch=11 n=43 v=0
79744 On ch=11 n=43 v=33
79872 Off ch=11 n=43 v=0
79872 On ch=11 n=43 v=33
80128 Off ch=11 n=43 v=0
80384 On ch=11 n=43 v=36
80640 Off ch=11 n=43 v=0
80640 On ch=11 n=43 v=36
80768 Off ch=11 n=43 v=0
80768 On ch=11 n=45 v=40
80896 Off ch=11 n=45 v=0
80896 On ch=11 n=47 v=39
81152 Off ch=11 n=47 v=0
81152 On ch=11 n=47 v=39
81408 Off ch=11 n=47 v=0
81408 On ch=11 n=42 v=37
81664 Off ch=11 n=42 v=0
81664 On ch=11 n=42 v=40
81792 Off ch=11 n=42 v=0
81792 On ch=11 n=44 v=40
81920 Off ch=11 n=44 v=0
81920 On ch=11 n=45 v=35
82176 Off ch=11 n=45 v=0
82176 On ch=11 n=45 v=41
82432 Off ch=11 n=45 v=0
82432 On ch=11 n=40 v=29
82688 Off ch=11 n=40 v=0
82688 On ch=11 n=40 v=37
82816 Off ch=11 n=40 v=0
82816 On ch=11 n=40 v=31
82944 Off ch=11 n=40 v=0
82944 On ch=11 n=40 v=35
83200 Off ch=11 n=40 v=0
83200 On ch=11 n=40 v=37
83456 Off ch=11 n=40 v=0
83456 On ch=11 n=40 v=35
83712 Off ch=11 n=40 v=0
83712 On ch=11 n=42 v=34
83840 Off ch=11 n=42 v=0
83840 On ch=11 n=44 v=35
83968 Off ch=11 n=44 v=0
83968 On ch=11 n=45 v=32
84224 Off ch=11 n=45 v=0
84480 On ch=11 n=43 v=34
84736 Off ch=11 n=43 v=0
84736 On ch=11 n=43 v=38
84864 Off ch=11 n=43 v=0
84864 On ch=11 n=45 v=36
84992 Off ch=11 n=45 v=0
84992 On ch=11 n=47 v=38
85248 Off ch=11 n=47 v=0
85248 On ch=11 n=47 v=39
85504 Off ch=11 n=47 v=0
85504 On ch=11 n=42 v=33
85760 Off ch=11 n=42 v=0
85760 On ch=11 n=42 v=36
85888 Off ch=11 n=42 v=0
85888 On ch=11 n=44 v=34
86016 Off ch=11 n=44 v=0
86016 On ch=11 n=45 v=33
86272 Off ch=11 n=45 v=0
86272 On ch=11 n=45 v=32
86528 Off ch=11 n=45 v=0
86528 On ch=11 n=40 v=25
86784 Off ch=11 n=40 v=0
86784 On ch=11 n=40 v=37
86912 Off ch=11 n=40 v=0
86912 On ch=11 n=40 v=35
87040 Off ch=11 n=40 v=0
87040 On ch=11 n=40 v=35
87296 Off ch=11 n=40 v=0
87296 On ch=11 n=40 v=35
87552 Off ch=11 n=40 v=0
87552 On ch=11 n=40 v=37
87808 Off ch=11 n=40 v=0
87808 On ch=11 n=42 v=41
87936 Off ch=11 n=42 v=0
87936 On ch=11 n=44 v=37
88064 Off ch=11 n=44 v=0
88064 On ch=11 n=45 v=36
88320 Off ch=11 n=45 v=0
88576 On ch=11 n=45 v=27
88832 Off ch=11 n=45 v=0
88832 On ch=11 n=45 v=40
88960 Off ch=11 n=45 v=0
88960 On ch=11 n=45 v=35
89088 Off ch=11 n=45 v=0
89088 On ch=11 n=45 v=33
89344 Off ch=11 n=45 v=0
89600 On ch=11 n=45 v=32
89856 Off ch=11 n=45 v=0
89856 On ch=11 n=45 v=41
89984 Off ch=11 n=45 v=0
89984 On ch=11 n=45 v=35
90112 Off ch=11 n=45 v=0
90112 On ch=11 n=45 v=35
90368 Off ch=11 n=45 v=0
90624 On ch=11 n=45 v=35
90752 Off ch=11 n=45 v=0
90752 On ch=11 n=45 v=42
90880 Off ch=11 n=45 v=0
90880 On ch=11 n=45 v=45
91008 Off ch=11 n=45 v=0
91136 On ch=11 n=45 v=47
91264 Off ch=11 n=45 v=0
91264 On ch=11 n=45 v=58
91392 Off ch=11 n=45 v=0
91392 On ch=11 n=45 v=58
91520 Off ch=11 n=45 v=0
91648 On ch=11 n=45 v=61
91776 Off ch=11 n=45 v=0
91776 On ch=11 n=45 v=71
91904 Off ch=11 n=45 v=0
91904 On ch=11 n=45 v=74
92032 Off ch=11 n=45 v=0
92416 On ch=11 n=45 v=65
92544 Off ch=11 n=45 v=0
92544 On ch=11 n=45 v=70
92672 Off ch=11 n=45 v=0
92928 On ch=11 n=45 v=45
93056 Off ch=11 n=45 v=0
93056 On ch=11 n=45 v=48
93184 Off ch=11 n=45 v=0
93440 On ch=11 n=45 v=30
93568 Off ch=11 n=45 v=0
93568 On ch=11 n=45 v=33
93696 Off ch=11 n=45 v=0
97280 PrCh ch=11 p=48
97280 Par ch=11 c=7 v=88
97280 Par ch=11 c=10 v=95
97280 Par ch=11 c=91 v=59
97280 On ch=11 n=57 v=38
97536 Off ch=11 n=57 v=0
97536 On ch=11 n=57 v=34
97612 Off ch=11 n=57 v=0
97664 On ch=11 n=59 v=29
97740 Off ch=11 n=59 v=0
97792 On ch=11 n=60 v=41
97945 Off ch=11 n=60 v=0
98048 On ch=11 n=60 v=39
98193 Off ch=11 n=60 v=0
98304 On ch=11 n=59 v=32
98560 Off ch=11 n=59 v=0
98560 On ch=11 n=59 v=35
98636 Off ch=11 n=59 v=0
98688 On ch=11 n=61 v=38
98764 Off ch=11 n=61 v=0
98816 On ch=11 n=62 v=39
98892 Off ch=11 n=62 v=0
98944 On ch=11 n=60 v=33
99020 Off ch=11 n=60 v=0
99072 On ch=11 n=59 v=37
99148 Off ch=11 n=59 v=0
99200 On ch=11 n=57 v=30
99276 Off ch=11 n=57 v=0
99328 On ch=11 n=55 v=36
99366 Off ch=11 n=55 v=0
99392 On ch=11 n=57 v=38
99430 Off ch=11 n=57 v=0
99456 On ch=11 n=59 v=35
99494 Off ch=11 n=59 v=0
99520 On ch=11 n=57 v=34
99558 Off ch=11 n=57 v=0
99584 On ch=11 n=55 v=39
99622 Off ch=11 n=55 v=0
99648 On ch=11 n=57 v=36
99686 Off ch=11 n=57 v=0
99712 On ch=11 n=55 v=36
99750 Off ch=11 n=55 v=0
99776 On ch=11 n=54 v=37
99814 Off ch=11 n=54 v=0
99840 On ch=11 n=52 v=33
99878 Off ch=11 n=52 v=0
99904 On ch=11 n=54 v=38
99942 Off ch=11 n=54 v=0
99968 On ch=11 n=55 v=37
100006 Off ch=11 n=55 v=0
100032 On ch=11 n=57 v=36
100070 Off ch=11 n=57 v=0
100096 On ch=11 n=59 v=46
100134 Off ch=11 n=59 v=0
100160 On ch=11 n=61 v=38
100198 Off ch=11 n=61 v=0
100224 On ch=11 n=63 v=35
100262 Off ch=11 n=63 v=0
100288 On ch=11 n=64 v=37
100326 Off ch=11 n=64 v=0
100352 On ch=11 n=64 v=34
100390 Off ch=11 n=64 v=0
100416 On ch=11 n=57 v=28
100454 Off ch=11 n=57 v=0
100480 On ch=11 n=59 v=37
100518 Off ch=11 n=59 v=0
100544 On ch=11 n=61 v=37
100582 Off ch=11 n=61 v=0
100608 On ch=11 n=62 v=37
100646 Off ch=11 n=62 v=0
100672 On ch=11 n=59 v=38
100710 Off ch=11 n=59 v=0
100736 On ch=11 n=64 v=42
100774 Off ch=11 n=64 v=0
100800 On ch=11 n=62 v=33
100838 Off ch=11 n=62 v=0
100864 On ch=11 n=60 v=31
100902 Off ch=11 n=60 v=0
100928 On ch=11 n=59 v=35
100966 Off ch=11 n=59 v=0
100992 On ch=11 n=60 v=38
101030 Off ch=11 n=60 v=0
101056 On ch=11 n=62 v=33
101094 Off ch=11 n=62 v=0
101120 On ch=11 n=64 v=38
101158 Off ch=11 n=64 v=0
101184 On ch=11 n=52 v=34
101222 Off ch=11 n=52 v=0
101248 On ch=11 n=54 v=33
101286 Off ch=11 n=54 v=0
101312 On ch=11 n=56 v=39
101350 Off ch=11 n=56 v=0
101376 On ch=11 n=57 v=36
101452 Off ch=11 n=57 v=0
101504 On ch=11 n=55 v=36
101580 Off ch=11 n=55 v=0
101632 On ch=11 n=54 v=33
101708 Off ch=11 n=54 v=0
101760 On ch=11 n=52 v=31
101836 Off ch=11 n=52 v=0
101888 On ch=11 n=54 v=38
101926 Off ch=11 n=54 v=0
101952 On ch=11 n=54 v=33
101990 Off ch=11 n=54 v=0
102016 On ch=11 n=55 v=33
102054 Off ch=11 n=55 v=0
102080 On ch=11 n=57 v=35
102118 Off ch=11 n=57 v=0
102144 On ch=11 n=50 v=33
102182 Off ch=11 n=50 v=0
102208 On ch=11 n=50 v=34
102246 Off ch=11 n=50 v=0
102272 On ch=11 n=52 v=32
102310 Off ch=11 n=52 v=0
102336 On ch=11 n=54 v=42
102374 Off ch=11 n=54 v=0
102400 On ch=11 n=55 v=36
102476 Off ch=11 n=55 v=0
102528 On ch=11 n=53 v=37
102604 Off ch=11 n=53 v=0
102656 On ch=11 n=52 v=35
102732 Off ch=11 n=52 v=0
102784 On ch=11 n=50 v=27
103040 Off ch=11 n=50 v=0
103040 On ch=11 n=48 v=36
103296 Off ch=11 n=48 v=0
103296 On ch=11 n=55 v=36
103552 Off ch=11 n=55 v=0
103552 On ch=11 n=48 v=29
103808 Off ch=11 n=48 v=0
103808 On ch=11 n=60 v=45
103936 Off ch=11 n=60 v=0
104960 On ch=11 n=62 v=41
105216 Off ch=11 n=62 v=0
105216 On ch=11 n=62 v=34
105292 Off ch=11 n=62 v=0
105344 On ch=11 n=64 v=36
105420 Off ch=11 n=64 v=0
105472 On ch=11 n=65 v=38
105625 Off ch=11 n=65 v=0
105728 On ch=11 n=65 v=39
105873 Off ch=11 n=65 v=0
105984 On ch=11 n=53 v=29
106022 Off ch=11 n=53 v=0
106048 On ch=11 n=52 v=34
106086 Off ch=11 n=52 v=0
106112 On ch=11 n=55 v=39
106150 Off ch=11 n=55 v=0
106176 On ch=11 n=53 v=32
106214 Off ch=11 n=53 v=0
106240 On ch=11 n=52 v=35
106278 Off ch=11 n=52 v=0
106304 On ch=11 n=55 v=40
106342 Off ch=11 n=55 v=0
106368 On ch=11 n=53 v=37
106406 Off ch=11 n=53 v=0
106432 On ch=11 n=52 v=34
106470 Off ch=11 n=52 v=0
106496 On ch=11 n=50 v=38
106534 Off ch=11 n=50 v=0
106560 On ch=11 n=52 v=33
106598 Off ch=11 n=52 v=0
106624 On ch=11 n=53 v=40
106662 Off ch=11 n=53 v=0
106688 On ch=11 n=55 v=35
106726 Off ch=11 n=55 v=0
106752 On ch=11 n=57 v=39
106790 Off ch=11 n=57 v=0
106816 On ch=11 n=59 v=37
106854 Off ch=11 n=59 v=0
106880 On ch=11 n=61 v=36
106918 Off ch=11 n=61 v=0
106944 On ch=11 n=62 v=35
106982 Off ch=11 n=62 v=0
107008 On ch=11 n=62 v=39
107046 Off ch=11 n=62 v=0
107072 On ch=11 n=50 v=37
107110 Off ch=11 n=50 v=0
107136 On ch=11 n=50 v=38
107174 Off ch=11 n=50 v=0
107200 On ch=11 n=50 v=41
107238 Off ch=11 n=50 v=0
107264 On ch=11 n=50 v=37
107302 Off ch=11 n=50 v=0
107328 On ch=11 n=50 v=49
107366 Off ch=11 n=50 v=0
107392 On ch=11 n=50 v=47
107430 Off ch=11 n=50 v=0
107456 On ch=11 n=50 v=46
107494 Off ch=11 n=50 v=0
107520 On ch=11 n=50 v=46
107558 Off ch=11 n=50 v=0
107584 On ch=11 n=50 v=57
107622 Off ch=11 n=50 v=0
107648 On ch=11 n=50 v=60
107686 Off ch=11 n=50 v=0
107712 On ch=11 n=50 v=58
107750 Off ch=11 n=50 v=0
107776 On ch=11 n=50 v=66
107814 Off ch=11 n=50 v=0
107840 On ch=11 n=50 v=67
107878 Off ch=11 n=50 v=0
107904 On ch=11 n=50 v=67
107942 Off ch=11 n=50 v=0
107968 On ch=11 n=50 v=73
108006 Off ch=11 n=50 v=0
108032 On ch=11 n=50 v=76
108070 Off ch=11 n=50 v=0
108096 On ch=11 n=50 v=78
108134 Off ch=11 n=50 v=0
108160 On ch=11 n=50 v=80
108198 Off ch=11 n=50 v=0
108224 On ch=11 n=50 v=83
108262 Off ch=11 n=50 v=0
108288 On ch=11 n=50 v=80
108326 Off ch=11 n=50 v=0
108352 On ch=11 n=50 v=83
108390 Off ch=11 n=50 v=0
108416 On ch=11 n=50 v=89
108454 Off ch=11 n=50 v=0
108480 On ch=11 n=50 v=92
108518 Off ch=11 n=50 v=0
108544 On ch=11 n=50 v=93
108582 Off ch=11 n=50 v=0
108608 On ch=11 n=50 v=95
108646 Off ch=11 n=50 v=0
108672 On ch=11 n=50 v=96
108710 Off ch=11 n=50 v=0
108736 On ch=11 n=50 v=102
108774 Off ch=11 n=50 v=0
108800 On ch=11 n=50 v=102
108838 Off ch=11 n=50 v=0
108864 On ch=11 n=50 v=107
108902 Off ch=11 n=50 v=0
108928 On ch=11 n=48 v=102
108966 Off ch=11 n=48 v=0
108992 On ch=11 n=47 v=104
109030 Off ch=11 n=47 v=0
109056 On ch=11 n=45 v=106
109312 Off ch=11 n=45 v=0
109312 On ch=11 n=45 v=109
109388 Off ch=11 n=45 v=0
109440 On ch=11 n=45 v=114
109516 Off ch=11 n=45 v=0
109568 On ch=11 n=44 v=107
109721 Off ch=11 n=44 v=0
109824 On ch=11 n=44 v=112
109969 Off ch=11 n=44 v=0
110080 On ch=11 n=40 v=108
110336 Off ch=11 n=40 v=0
110336 On ch=11 n=40 v=111
110412 Off ch=11 n=40 v=0
110464 On ch=11 n=40 v=114
110540 Off ch=11 n=40 v=0
110592 On ch=11 n=45 v=123
110745 Off ch=11 n=45 v=0
110848 On ch=11 n=45 v=116
110993 Off ch=11 n=45 v=0
111104 On ch=11 n=45 v=113
111360 Off ch=11 n=45 v=0
111360 On ch=11 n=45 v=108
111436 Off ch=11 n=45 v=0
111488 On ch=11 n=45 v=110
111564 Off ch=11 n=45 v=0
111616 On ch=11 n=44 v=110
111772 Off ch=11 n=44 v=0
111872 On ch=11 n=45 v=112
112017 Off ch=11 n=45 v=0
112128 On ch=11 n=40 v=105
112384 Off ch=11 n=40 v=0
112384 On ch=11 n=52 v=126
112460 Off ch=11 n=52 v=0
112512 On ch=11 n=52 v=115
112588 Off ch=11 n=52 v=0
112640 On ch=11 n=45 v=101
112896 Off ch=11 n=45 v=0
114176 PrCh ch=11 p=45
114176 Par ch=11 c=7 v=88
114176 Par ch=11 c=10 v=95
114176 Par ch=11 c=91 v=59
114176 On ch=11 n=40 v=45
114432 Off ch=11 n=40 v=0
114432 On ch=11 n=42 v=45
114560 Off ch=11 n=42 v=0
114560 On ch=11 n=44 v=49
114688 Off ch=11 n=44 v=0
114688 On ch=11 n=45 v=49
114944 Off ch=11 n=45 v=0
114944 On ch=11 n=57 v=55
115072 Off ch=11 n=57 v=0
115072 On ch=11 n=57 v=46
115200 Off ch=11 n=57 v=0
115200 On ch=11 n=45 v=44
115456 Off ch=11 n=45 v=0
115456 On ch=11 n=57 v=52
115584 Off ch=11 n=57 v=0
115584 On ch=11 n=57 v=51
115712 Off ch=11 n=57 v=0
115712 On ch=11 n=45 v=39
115968 Off ch=11 n=45 v=0
115968 On ch=11 n=57 v=54
116096 Off ch=11 n=57 v=0
116096 On ch=11 n=57 v=56
116224 Off ch=11 n=57 v=0
116224 On ch=11 n=45 v=45
116480 Off ch=11 n=45 v=0
116480 On ch=11 n=57 v=61
116608 Off ch=11 n=57 v=0
116608 On ch=11 n=57 v=60
116736 Off ch=11 n=57 v=0
116736 On ch=11 n=45 v=52
116992 Off ch=11 n=45 v=0
116992 On ch=11 n=57 v=67
117120 Off ch=11 n=57 v=0
117120 On ch=11 n=57 v=57
117248 Off ch=11 n=57 v=0
117248 On ch=11 n=45 v=50
117504 Off ch=11 n=45 v=0
117504 On ch=11 n=57 v=70
117632 Off ch=11 n=57 v=0
117632 On ch=11 n=57 v=66
117760 Off ch=11 n=57 v=0
117760 On ch=11 n=45 v=52
118016 Off ch=11 n=45 v=0
118016 On ch=11 n=57 v=68
118144 Off ch=11 n=57 v=0
118144 On ch=11 n=57 v=58
118272 Off ch=11 n=57 v=0
118272 On ch=11 n=45 v=52
118528 Off ch=11 n=45 v=0
118528 On ch=11 n=57 v=58
118656 Off ch=11 n=57 v=0
118656 On ch=11 n=57 v=49
118784 Off ch=11 n=57 v=0
118784 On ch=11 n=45 v=41
119040 Off ch=11 n=45 v=0
119040 On ch=11 n=57 v=57
119168 Off ch=11 n=57 v=0
119168 On ch=11 n=57 v=56
119296 Off ch=11 n=57 v=0
119296 On ch=11 n=45 v=46
119552 Off ch=11 n=45 v=0
119552 On ch=11 n=57 v=65
119680 Off ch=11 n=57 v=0
119680 On ch=11 n=57 v=68
119808 Off ch=11 n=57 v=0
119808 On ch=11 n=45 v=58
120064 Off ch=11 n=45 v=0
120064 On ch=11 n=57 v=72
120192 Off ch=11 n=57 v=0
120192 On ch=11 n=57 v=72
120320 Off ch=11 n=57 v=0
120320 On ch=11 n=45 v=63
120576 Off ch=11 n=45 v=0
120576 On ch=11 n=57 v=88
120704 Off ch=11 n=57 v=0
120704 On ch=11 n=57 v=81
120832 Off ch=11 n=57 v=0
120832 On ch=11 n=45 v=53
121088 Off ch=11 n=45 v=0
121088 On ch=11 n=57 v=70
121216 Off ch=11 n=57 v=0
121216 On ch=11 n=57 v=63
121344 Off ch=11 n=57 v=0
121344 On ch=11 n=45 v=59
121600 Off ch=11 n=45 v=0
121600 On ch=11 n=57 v=68
121728 Off ch=11 n=57 v=0
121728 On ch=11 n=57 v=67
121856 Off ch=11 n=57 v=0
121856 On ch=11 n=45 v=56
122112 Off ch=11 n=45 v=0
122112 On ch=11 n=57 v=68
122240 Off ch=11 n=57 v=0
122240 On ch=11 n=57 v=64
122368 Off ch=11 n=57 v=0
122368 On ch=11 n=45 v=45
122624 Off ch=11 n=45 v=0
122624 On ch=11 n=57 v=63
122752 Off ch=11 n=57 v=0
122752 On ch=11 n=57 v=59
122880 Off ch=11 n=57 v=0
122880 On ch=11 n=45 v=45
123136 Off ch=11 n=45 v=0
123136 On ch=11 n=57 v=59
123264 Off ch=11 n=57 v=0
123264 On ch=11 n=57 v=60
123392 Off ch=11 n=57 v=0
123392 On ch=11 n=45 v=48
123648 Off ch=11 n=45 v=0
123648 On ch=11 n=57 v=65
123776 Off ch=11 n=57 v=0
123776 On ch=11 n=57 v=59
123904 Off ch=11 n=57 v=0
123904 PrCh ch=11 p=48
123904 Par ch=11 c=7 v=88
123904 Par ch=11 c=10 v=95
123904 Par ch=11 c=91 v=59
123904 On ch=11 n=57 v=35
124416 On ch=11 n=53 v=29
124426 Off ch=11 n=57 v=0
124928 On ch=11 n=52 v=32
124938 Off ch=11 n=53 v=0
125440 On ch=11 n=50 v=28
125450 Off ch=11 n=52 v=0
125926 Off ch=11 n=50 v=0
125952 On ch=11 n=43 v=103
126080 Off ch=11 n=43 v=0
126208 On ch=11 n=55 v=97
126336 Off ch=11 n=55 v=0
126464 On ch=11 n=48 v=102
126720 Off ch=11 n=48 v=0
126976 On ch=11 n=52 v=45
127232 Off ch=11 n=52 v=0
127232 On ch=11 n=52 v=46
127308 Off ch=11 n=52 v=0
127360 On ch=11 n=52 v=49
127436 Off ch=11 n=52 v=0
127488 On ch=11 n=45 v=43
127616 Off ch=11 n=45 v=0
128000 On ch=11 n=43 v=96
128128 Off ch=11 n=43 v=0
128256 On ch=11 n=55 v=99
128384 Off ch=11 n=55 v=0
128512 On ch=11 n=48 v=105
128768 Off ch=11 n=48 v=0
129024 On ch=11 n=52 v=40
129280 Off ch=11 n=52 v=0
129280 On ch=11 n=52 v=45
129356 Off ch=11 n=52 v=0
129408 On ch=11 n=52 v=48
129484 Off ch=11 n=52 v=0
130304 PrCh ch=11 p=45
130304 Par ch=11 c=7 v=88
130304 Par ch=11 c=10 v=95
130304 Par ch=11 c=91 v=59
130304 On ch=11 n=45 v=47
130560 Off ch=11 n=45 v=0
130816 On ch=11 n=52 v=45
131072 Off ch=11 n=52 v=0
131328 On ch=11 n=52 v=45
131584 Off ch=11 n=52 v=0
131840 On ch=11 n=57 v=45
132096 Off ch=11 n=57 v=0
132352 On ch=11 n=57 v=43
132608 Off ch=11 n=57 v=0
132864 On ch=11 n=55 v=41
133120 Off ch=11 n=55 v=0
133120 On ch=11 n=43 v=42
133376 Off ch=11 n=43 v=0
133376 On ch=11 n=43 v=51
133504 Off ch=11 n=43 v=0
133504 On ch=11 n=43 v=47
133632 Off ch=11 n=43 v=0
133632 On ch=11 n=48 v=52
133888 Off ch=11 n=48 v=0
134400 On ch=11 n=60 v=43
134656 Off ch=11 n=60 v=0
134912 On ch=11 n=59 v=40
135168 Off ch=11 n=59 v=0
135424 On ch=11 n=64 v=44
135680 Off ch=11 n=64 v=0
135936 On ch=11 n=57 v=42
136192 Off ch=11 n=57 v=0
136448 On ch=11 n=57 v=42
136704 Off ch=11 n=57 v=0
136704 On ch=11 n=56 v=45
136960 Off ch=11 n=56 v=0
136960 On ch=11 n=57 v=49
137216 Off ch=11 n=57 v=0
137216 On ch=11 n=40 v=44
137472 Off ch=11 n=40 v=0
137472 On ch=11 n=42 v=47
137600 Off ch=11 n=42 v=0
137600 On ch=11 n=44 v=49
137728 Off ch=11 n=44 v=0
137728 On ch=11 n=45 v=46
137984 Off ch=11 n=45 v=0
139264 On ch=11 n=40 v=47
139520 Off ch=11 n=40 v=0
139520 On ch=11 n=42 v=49
139648 Off ch=11 n=42 v=0
139648 On ch=11 n=44 v=54
139776 Off ch=11 n=44 v=0
139776 On ch=11 n=45 v=51
140032 Off ch=11 n=45 v=0
140288 On ch=11 n=45 v=43
140544 Off ch=11 n=45 v=0
140800 PrCh ch=11 p=48
140800 Par ch=11 c=7 v=88
140800 Par ch=11 c=10 v=95
140800 Par ch=11 c=91 v=59
140800 On ch=11 n=45 v=85
141056 Off ch=11 n=45 v=0
1024 On ch=12 n=33 v=40
1280 Off ch=12 n=33 v=0
1280 On ch=12 n=33 v=48
1356 Off ch=12 n=33 v=0
1408 On ch=12 n=33 v=48
1484 Off ch=12 n=33 v=0
1536 On ch=12 n=32 v=47
1689 Off ch=12 n=32 v=0
1792 On ch=12 n=32 v=48
1937 Off ch=12 n=32 v=0
2048 On ch=12 n=28 v=46
2304 Off ch=12 n=28 v=0
2304 On ch=12 n=28 v=49
2380 Off ch=12 n=28 v=0
2432 On ch=12 n=28 v=49
2508 Off ch=12 n=28 v=0
2560 On ch=12 n=33 v=50
2713 Off ch=12 n=33 v=0
2816 On ch=12 n=33 v=51
2961 Off ch=12 n=33 v=0
3072 On ch=12 n=33 v=46
3328 Off ch=12 n=33 v=0
3328 On ch=12 n=33 v=46
3404 Off ch=12 n=33 v=0
3456 On ch=12 n=33 v=49
3532 Off ch=12 n=33 v=0
3584 On ch=12 n=31 v=49
3737 Off ch=12 n=31 v=0
3840 On ch=12 n=31 v=47
3985 Off ch=12 n=31 v=0
4096 On ch=12 n=31 v=47
4352 Off ch=12 n=31 v=0
4352 On ch=12 n=31 v=54
4428 Off ch=12 n=31 v=0
4480 On ch=12 n=31 v=44
4556 Off ch=12 n=31 v=0
4608 On ch=12 n=36 v=51
4864 Off ch=12 n=36 v=0
5120 On ch=12 n=36 v=46
5376 Off ch=12 n=36 v=0
5376 On ch=12 n=36 v=45
5452 Off ch=12 n=36 v=0
5504 On ch=12 n=36 v=51
5580 Off ch=12 n=36 v=0
5632 On ch=12 n=35 v=49
5785 Off ch=12 n=35 v=0
5888 On ch=12 n=35 v=49
6033 Off ch=12 n=35 v=0
6144 On ch=12 n=35 v=49
6400 Off ch=12 n=35 v=0
6400 On ch=12 n=35 v=50
6476 Off ch=12 n=35 v=0
6528 On ch=12 n=35 v=50
6604 Off ch=12 n=35 v=0
6656 On ch=12 n=33 v=46
6809 Off ch=12 n=33 v=0
6912 On ch=12 n=33 v=50
7057 Off ch=12 n=33 v=0
7168 On ch=12 n=33 v=46
7424 Off ch=12 n=33 v=0
7424 On ch=12 n=33 v=45
7500 Off ch=12 n=33 v=0
7552 On ch=12 n=33 v=50
7628 Off ch=12 n=33 v=0
7680 On ch=12 n=32 v=45
7836 Off ch=12 n=32 v=0
7936 On ch=12 n=33 v=49
8081 Off ch=12 n=33 v=0
8192 On ch=12 n=28 v=41
8448 Off ch=12 n=28 v=0
8448 On ch=12 n=28 v=47
8524 Off ch=12 n=28 v=0
8576 On ch=12 n=28 v=49
8652 Off ch=12 n=28 v=0
8704 On ch=12 n=33 v=49
8960 Off ch=12 n=33 v=0
9216 On ch=12 n=36 v=37
9472 Off ch=12 n=36 v=0
9472 On ch=12 n=36 v=37
9548 Off ch=12 n=36 v=0
9600 On ch=12 n=36 v=34
9676 Off ch=12 n=36 v=0
9728 On ch=12 n=35 v=36
9881 Off ch=12 n=35 v=0
9984 On ch=12 n=35 v=33
10129 Off ch=12 n=35 v=0
10240 On ch=12 n=35 v=33
10496 Off ch=12 n=35 v=0
10496 On ch=12 n=35 v=35
10572 Off ch=12 n=35 v=0
10624 On ch=12 n=35 v=37
10700 Off ch=12 n=35 v=0
10752 On ch=12 n=33 v=34
10905 Off ch=12 n=33 v=0
11008 On ch=12 n=33 v=36
11153 Off ch=12 n=33 v=0
11264 On ch=12 n=33 v=34
11520 Off ch=12 n=33 v=0
11520 On ch=12 n=33 v=36
11596 Off ch=12 n=33 v=0
11648 On ch=12 n=33 v=38
11724 Off ch=12 n=33 v=0
11776 On ch=12 n=32 v=34
11932 Off ch=12 n=32 v=0
12032 On ch=12 n=33 v=38
12177 Off ch=12 n=33 v=0
12288 On ch=12 n=28 v=33
12544 Off ch=12 n=28 v=0
12544 On ch=12 n=28 v=37
12620 Off ch=12 n=28 v=0
12672 On ch=12 n=28 v=34
12748 Off ch=12 n=28 v=0
12800 On ch=12 n=33 v=39
13056 Off ch=12 n=33 v=0
13568 On ch=12 n=33 v=31
13644 Off ch=12 n=33 v=0
13696 On ch=12 n=33 v=35
13772 Off ch=12 n=33 v=0
13824 On ch=12 n=32 v=35
13900 Off ch=12 n=32 v=0
14080 On ch=12 n=44 v=29
14156 Off ch=12 n=44 v=0
14592 On ch=12 n=28 v=30
14668 Off ch=12 n=28 v=0
14720 On ch=12 n=28 v=37
14796 Off ch=12 n=28 v=0
14848 On ch=12 n=33 v=35
14924 Off ch=12 n=33 v=0
15104 On ch=12 n=45 v=29
15180 Off ch=12 n=45 v=0
15616 On ch=12 n=33 v=32
15692 Off ch=12 n=33 v=0
15744 On ch=12 n=33 v=33
15820 Off ch=12 n=33 v=0
15872 On ch=12 n=31 v=32
15948 Off ch=12 n=31 v=0
16128 On ch=12 n=43 v=36
16204 Off ch=12 n=43 v=0
16640 On ch=12 n=43 v=35
16716 Off ch=12 n=43 v=0
16768 On ch=12 n=43 v=36
16844 Off ch=12 n=43 v=0
16896 On ch=12 n=36 v=36
16972 Off ch=12 n=36 v=0
17152 On ch=12 n=48 v=32
17228 Off ch=12 n=48 v=0
17664 On ch=12 n=36 v=33
17740 Off ch=12 n=36 v=0
17792 On ch=12 n=36 v=36
17868 Off ch=12 n=36 v=0
17920 On ch=12 n=35 v=35
17996 Off ch=12 n=35 v=0
18176 On ch=12 n=47 v=31
18252 Off ch=12 n=47 v=0
18688 On ch=12 n=40 v=28
18764 Off ch=12 n=40 v=0
18816 On ch=12 n=40 v=37
18892 Off ch=12 n=40 v=0
18944 On ch=12 n=33 v=33
19020 Off ch=12 n=33 v=0
19200 On ch=12 n=45 v=36
19276 Off ch=12 n=45 v=0
19712 On ch=12 n=33 v=27
19788 Off ch=12 n=33 v=0
19840 On ch=12 n=33 v=31
19916 Off ch=12 n=33 v=0
19968 On ch=12 n=32 v=35
20044 Off ch=12 n=32 v=0
20224 On ch=12 n=33 v=33
20300 Off ch=12 n=33 v=0
20736 On ch=12 n=28 v=33
20812 Off ch=12 n=28 v=0
20864 On ch=12 n=28 v=34
20940 Off ch=12 n=28 v=0
20992 On ch=12 n=33 v=39
21068 Off ch=12 n=33 v=0
21248 On ch=12 n=45 v=33
21324 Off ch=12 n=45 v=0
21760 On ch=12 n=36 v=34
21836 Off ch=12 n=36 v=0
21888 On ch=12 n=36 v=35
21964 Off ch=12 n=36 v=0
22016 On ch=12 n=35 v=33
22092 Off ch=12 n=35 v=0
22272 On ch=12 n=47 v=28
22348 Off ch=12 n=47 v=0
22784 On ch=12 n=40 v=28
22860 Off ch=12 n=40 v=0
22912 On ch=12 n=40 v=33
22988 Off ch=12 n=40 v=0
23040 On ch=12 n=33 v=33
23116 Off ch=12 n=33 v=0
23296 On ch=12 n=45 v=33
23372 Off ch=12 n=45 v=0
23808 On ch=12 n=33 v=30
23884 Off ch=12 n=33 v=0
23936 On ch=12 n=33 v=40
24012 Off ch=12 n=33 v=0
24064 On ch=12 n=32 v=34
24140 Off ch=12 n=32 v=0
24320 On ch=12 n=33 v=29
24396 Off ch=12 n=33 v=0
24832 On ch=12 n=28 v=31
24908 Off ch=12 n=28 v=0
24960 On ch=12 n=28 v=36
25036 Off ch=12 n=28 v=0
25088 On ch=12 n=33 v=37
25164 Off ch=12 n=33 v=0
25344 On ch=12 n=45 v=27
25420 Off ch=12 n=45 v=0
25600 On ch=12 n=33 v=46
25856 Off ch=12 n=33 v=0
25984 On ch=12 n=45 v=47
26112 Off ch=12 n=45 v=0
26112 On ch=12 n=32 v=39
26368 Off ch=12 n=32 v=0
26496 On ch=12 n=44 v=46
26624 Off ch=12 n=44 v=0
26624 On ch=12 n=28 v=45
26880 Off ch=12 n=28 v=0
27008 On ch=12 n=40 v=45
27136 Off ch=12 n=40 v=0
27136 On ch=12 n=33 v=54
27392 Off ch=12 n=33 v=0
27520 On ch=12 n=45 v=53
27648 Off ch=12 n=45 v=0
27648 On ch=12 n=33 v=51
27904 Off ch=12 n=33 v=0
28032 On ch=12 n=45 v=56
28160 Off ch=12 n=45 v=0
28160 On ch=12 n=31 v=51
28416 Off ch=12 n=31 v=0
28544 On ch=12 n=43 v=59
28672 Off ch=12 n=43 v=0
28672 On ch=12 n=31 v=55
28928 Off ch=12 n=31 v=0
29056 On ch=12 n=43 v=60
29184 Off ch=12 n=43 v=0
29184 On ch=12 n=36 v=62
29440 Off ch=12 n=36 v=0
29568 On ch=12 n=48 v=63
29696 Off ch=12 n=48 v=0
29696 On ch=12 n=36 v=61
29952 Off ch=12 n=36 v=0
30080 On ch=12 n=48 v=69
30208 Off ch=12 n=48 v=0
30208 On ch=12 n=35 v=61
30464 Off ch=12 n=35 v=0
30592 On ch=12 n=47 v=67
30720 Off ch=12 n=47 v=0
30720 On ch=12 n=35 v=65
30976 Off ch=12 n=35 v=0
31104 On ch=12 n=47 v=72
31232 Off ch=12 n=47 v=0
31232 On ch=12 n=33 v=73
31488 Off ch=12 n=33 v=0
31616 On ch=12 n=45 v=73
31744 Off ch=12 n=45 v=0
31744 On ch=12 n=33 v=68
32000 Off ch=12 n=33 v=0
32128 On ch=12 n=45 v=72
32256 Off ch=12 n=45 v=0
32256 On ch=12 n=32 v=71
32512 Off ch=12 n=32 v=0
32640 On ch=12 n=33 v=79
32768 Off ch=12 n=33 v=0
32768 On ch=12 n=28 v=86
33024 Off ch=12 n=28 v=0
33152 On ch=12 n=40 v=82
33280 Off ch=12 n=40 v=0
33280 On ch=12 n=33 v=83
33536 Off ch=12 n=33 v=0
33664 On ch=12 n=45 v=84
33792 Off ch=12 n=45 v=0
33792 On ch=12 n=36 v=81
34048 Off ch=12 n=36 v=0
34176 On ch=12 n=48 v=87
34304 Off ch=12 n=48 v=0
34304 On ch=12 n=35 v=85
34560 Off ch=12 n=35 v=0
34688 On ch=12 n=47 v=88
34816 Off ch=12 n=47 v=0
34816 On ch=12 n=35 v=91
35072 Off ch=12 n=35 v=0
35200 On ch=12 n=47 v=96
35328 Off ch=12 n=47 v=0
35328 On ch=12 n=33 v=89
35584 Off ch=12 n=33 v=0
35712 On ch=12 n=45 v=91
35840 Off ch=12 n=45 v=0
35840 On ch=12 n=33 v=94
36096 Off ch=12 n=33 v=0
36224 On ch=12 n=45 v=97
36352 Off ch=12 n=45 v=0
36352 On ch=12 n=32 v=92
36608 Off ch=12 n=32 v=0
36736 On ch=12 n=33 v=90
36864 Off ch=12 n=33 v=0
36864 On ch=12 n=28 v=93
37120 Off ch=12 n=28 v=0
37248 On ch=12 n=40 v=97
37376 Off ch=12 n=40 v=0
37376 On ch=12 n=33 v=96
37632 Off ch=12 n=33 v=0
37760 On ch=12 n=45 v=99
37888 Off ch=12 n=45 v=0
37888 On ch=12 n=33 v=92
38144 Off ch=12 n=33 v=0
38229 On ch=12 n=33 v=104
38280 Off ch=12 n=33 v=0
38314 On ch=12 n=45 v=127
38365 Off ch=12 n=45 v=0
38400 On ch=12 n=32 v=93
38656 Off ch=12 n=32 v=0
38741 On ch=12 n=32 v=100
38792 Off ch=12 n=32 v=0
38826 On ch=12 n=44 v=124
38877 Off ch=12 n=44 v=0
38912 On ch=12 n=28 v=99
39168 Off ch=12 n=28 v=0
39253 On ch=12 n=28 v=102
39304 Off ch=12 n=28 v=0
39338 On ch=12 n=40 v=126
39389 Off ch=12 n=40 v=0
39424 On ch=12 n=33 v=105
39680 Off ch=12 n=33 v=0
39765 On ch=12 n=33 v=99
39816 Off ch=12 n=33 v=0
39850 On ch=12 n=45 v=123
39901 Off ch=12 n=45 v=0
39936 On ch=12 n=33 v=94
40192 Off ch=12 n=33 v=0
40277 On ch=12 n=33 v=101
40328 Off ch=12 n=33 v=0
40362 On ch=12 n=45 v=126
40413 Off ch=12 n=45 v=0
40448 On ch=12 n=31 v=99
40704 Off ch=12 n=31 v=0
40789 On ch=12 n=31 v=98
40840 Off ch=12 n=31 v=0
40874 On ch=12 n=43 v=124
40925 Off ch=12 n=43 v=0
40960 On ch=12 n=31 v=98
41216 Off ch=12 n=31 v=0
41301 On ch=12 n=31 v=101
41352 Off ch=12 n=31 v=0
41386 On ch=12 n=43 v=127
41437 Off ch=12 n=43 v=0
41472 On ch=12 n=36 v=103
41728 Off ch=12 n=36 v=0
41813 On ch=12 n=36 v=101
41864 Off ch=12 n=36 v=0
41898 On ch=12 n=48 v=126
41949 Off ch=12 n=48 v=0
41984 On ch=12 n=36 v=99
42240 Off ch=12 n=36 v=0
42325 On ch=12 n=36 v=99
42376 Off ch=12 n=36 v=0
42410 On ch=12 n=48 v=123
42461 Off ch=12 n=48 v=0
42496 On ch=12 n=35 v=98
42752 Off ch=12 n=35 v=0
42837 On ch=12 n=35 v=103
42888 Off ch=12 n=35 v=0
42922 On ch=12 n=47 v=126
42973 Off ch=12 n=47 v=0
43008 On ch=12 n=35 v=97
43264 Off ch=12 n=35 v=0
43349 On ch=12 n=35 v=102
43400 Off ch=12 n=35 v=0
43434 On ch=12 n=47 v=125
43485 Off ch=12 n=47 v=0
43520 On ch=12 n=33 v=97
43776 Off ch=12 n=33 v=0
43861 On ch=12 n=33 v=95
43912 Off ch=12 n=33 v=0
43946 On ch=12 n=45 v=125
43997 Off ch=12 n=45 v=0
44032 On ch=12 n=33 v=94
44288 Off ch=12 n=33 v=0
44373 On ch=12 n=33 v=96
44424 Off ch=12 n=33 v=0
44458 On ch=12 n=45 v=127
44509 Off ch=12 n=45 v=0
44544 On ch=12 n=32 v=97
44800 Off ch=12 n=32 v=0
44885 On ch=12 n=33 v=102
44936 Off ch=12 n=33 v=0
44970 On ch=12 n=45 v=123
45021 Off ch=12 n=45 v=0
45056 On ch=12 n=28 v=96
45312 Off ch=12 n=28 v=0
45397 On ch=12 n=28 v=101
45448 Off ch=12 n=28 v=0
45482 On ch=12 n=40 v=122
45533 Off ch=12 n=40 v=0
45568 On ch=12 n=33 v=102
45824 Off ch=12 n=33 v=0
45909 On ch=12 n=33 v=97
45960 Off ch=12 n=33 v=0
45994 On ch=12 n=35 v=112
46045 Off ch=12 n=35 v=0
46080 On ch=12 n=36 v=106
46336 Off ch=12 n=36 v=0
46421 On ch=12 n=36 v=94
46472 Off ch=12 n=36 v=0
46506 On ch=12 n=48 v=103
46557 Off ch=12 n=48 v=0
46592 On ch=12 n=35 v=82
46848 Off ch=12 n=35 v=0
46933 On ch=12 n=35 v=81
46984 Off ch=12 n=35 v=0
47018 On ch=12 n=47 v=94
47069 Off ch=12 n=47 v=0
47104 On ch=12 n=35 v=70
47360 Off ch=12 n=35 v=0
47445 On ch=12 n=35 v=69
47496 Off ch=12 n=35 v=0
47530 On ch=12 n=47 v=80
47581 Off ch=12 n=47 v=0
47616 On ch=12 n=33 v=61
47872 Off ch=12 n=33 v=0
47957 On ch=12 n=33 v=60
48008 Off ch=12 n=33 v=0
48042 On ch=12 n=45 v=72
48093 Off ch=12 n=45 v=0
48128 On ch=12 n=33 v=53
48384 Off ch=12 n=33 v=0
48469 On ch=12 n=33 v=52
48520 Off ch=12 n=33 v=0
48554 On ch=12 n=45 v=66
48605 Off ch=12 n=45 v=0
48640 On ch=12 n=32 v=49
48896 Off ch=12 n=32 v=0
48981 On ch=12 n=33 v=49
49032 Off ch=12 n=33 v=0
49066 On ch=12 n=45 v=58
49117 Off ch=12 n=45 v=0
49152 On ch=12 n=28 v=44
49408 Off ch=12 n=28 v=0
49493 On ch=12 n=28 v=44
49544 Off ch=12 n=28 v=0
49578 On ch=12 n=40 v=54
49629 Off ch=12 n=40 v=0
49664 On ch=12 n=33 v=44
49920 Off ch=12 n=33 v=0
51200 On ch=12 n=28 v=45
51293 PrCh ch=12 p=45
51293 Par ch=12 c=7 v=84
51293 Par ch=12 c=10 v=105
51293 Par ch=12 c=91 v=59
51456 Off ch=12 n=28 v=0
51456 On ch=12 n=30 v=49
51584 Off ch=12 n=30 v=0
51584 On ch=12 n=32 v=48
51712 Off ch=12 n=32 v=0
51712 On ch=12 n=33 v=49
51968 Off ch=12 n=33 v=0
51968 On ch=12 n=45 v=50
52096 Off ch=12 n=45 v=0
52096 On ch=12 n=45 v=51
52224 Off ch=12 n=45 v=0
52224 On ch=12 n=33 v=39
52480 Off ch=12 n=33 v=0
52480 On ch=12 n=45 v=58
52608 Off ch=12 n=45 v=0
52608 On ch=12 n=45 v=47
52736 Off ch=12 n=45 v=0
52736 On ch=12 n=33 v=44
52992 Off ch=12 n=33 v=0
52992 On ch=12 n=45 v=51
53120 Off ch=12 n=45 v=0
53120 On ch=12 n=45 v=49
53248 Off ch=12 n=45 v=0
53248 On ch=12 n=33 v=46
53504 Off ch=12 n=33 v=0
53504 On ch=12 n=45 v=65
53632 Off ch=12 n=45 v=0
53632 On ch=12 n=45 v=63
53760 Off ch=12 n=45 v=0
53760 On ch=12 n=33 v=55
54016 Off ch=12 n=33 v=0
54016 On ch=12 n=45 v=77
54144 Off ch=12 n=45 v=0
54144 On ch=12 n=45 v=71
54272 Off ch=12 n=45 v=0
54272 On ch=12 n=33 v=58
54528 Off ch=12 n=33 v=0
54528 On ch=12 n=45 v=87
54656 Off ch=12 n=45 v=0
54656 On ch=12 n=45 v=80
54784 Off ch=12 n=45 v=0
54784 On ch=12 n=33 v=68
55040 Off ch=12 n=33 v=0
55040 On ch=12 n=45 v=77
55168 Off ch=12 n=45 v=0
55168 On ch=12 n=45 v=64
55296 Off ch=12 n=45 v=0
55296 On ch=12 n=33 v=57
55552 Off ch=12 n=33 v=0
55552 On ch=12 n=45 v=63
55680 Off ch=12 n=45 v=0
55680 On ch=12 n=45 v=51
55808 Off ch=12 n=45 v=0
55808 On ch=12 n=33 v=42
56064 Off ch=12 n=33 v=0
56064 On ch=12 n=45 v=60
56192 Off ch=12 n=45 v=0
56192 On ch=12 n=45 v=47
56320 Off ch=12 n=45 v=0
56320 On ch=12 n=33 v=48
56576 Off ch=12 n=33 v=0
56576 On ch=12 n=45 v=67
56704 Off ch=12 n=45 v=0
56704 On ch=12 n=45 v=59
56832 Off ch=12 n=45 v=0
56832 On ch=12 n=33 v=55
57088 Off ch=12 n=33 v=0
57088 On ch=12 n=45 v=73
57216 Off ch=12 n=45 v=0
57216 On ch=12 n=45 v=70
57344 Off ch=12 n=45 v=0
57344 On ch=12 n=33 v=69
57600 Off ch=12 n=33 v=0
57600 On ch=12 n=45 v=86
57728 Off ch=12 n=45 v=0
57728 On ch=12 n=45 v=78
57856 Off ch=12 n=45 v=0
57856 On ch=12 n=30 v=52
57984 Off ch=12 n=30 v=0
57984 On ch=12 n=32 v=62
58112 Off ch=12 n=32 v=0
58112 On ch=12 n=33 v=63
58240 Off ch=12 n=33 v=0
58240 On ch=12 n=33 v=56
58368 Off ch=12 n=33 v=0
58368 On ch=12 n=35 v=58
58624 Off ch=12 n=35 v=0
58624 On ch=12 n=47 v=57
58752 Off ch=12 n=47 v=0
58752 On ch=12 n=47 v=55
58880 Off ch=12 n=47 v=0
58880 On ch=12 n=40 v=48
59136 Off ch=12 n=40 v=0
59136 On ch=12 n=52 v=38
59264 Off ch=12 n=52 v=0
59264 On ch=12 n=52 v=39
59392 Off ch=12 n=52 v=0
59392 On ch=12 n=40 v=24
59648 Off ch=12 n=40 v=0
59648 On ch=12 n=52 v=37
59776 Off ch=12 n=52 v=0
59776 On ch=12 n=52 v=34
59904 Off ch=12 n=52 v=0
59904 On ch=12 n=40 v=30
60160 Off ch=12 n=40 v=0
60160 On ch=12 n=52 v=40
60288 Off ch=12 n=52 v=0
60288 On ch=12 n=52 v=34
60416 Off ch=12 n=52 v=0
60416 On ch=12 n=40 v=29
60672 Off ch=12 n=40 v=0
60672 On ch=12 n=52 v=43
60800 Off ch=12 n=52 v=0
60800 On ch=12 n=52 v=35
60928 Off ch=12 n=52 v=0
60928 On ch=12 n=40 v=32
61184 Off ch=12 n=40 v=0
61184 On ch=12 n=52 v=38
61312 Off ch=12 n=52 v=0
61312 On ch=12 n=52 v=34
61440 Off ch=12 n=52 v=0
61440 On ch=12 n=40 v=36
61696 Off ch=12 n=40 v=0
61696 On ch=12 n=52 v=41
61824 Off ch=12 n=52 v=0
61824 On ch=12 n=52 v=35
61952 Off ch=12 n=52 v=0
61952 On ch=12 n=40 v=33
62208 Off ch=12 n=40 v=0
62208 On ch=12 n=52 v=37
62336 Off ch=12 n=52 v=0
62336 On ch=12 n=52 v=38
62464 Off ch=12 n=52 v=0
62464 On ch=12 n=37 v=31
62720 Off ch=12 n=37 v=0
62720 On ch=12 n=49 v=42
62848 Off ch=12 n=49 v=0
62848 On ch=12 n=49 v=44
62976 Off ch=12 n=49 v=0
62976 On ch=12 n=38 v=37
63232 Off ch=12 n=38 v=0
63232 On ch=12 n=50 v=58
63360 Off ch=12 n=50 v=0
63360 On ch=12 n=50 v=58
63488 Off ch=12 n=50 v=0
63488 On ch=12 n=37 v=51
63744 Off ch=12 n=37 v=0
63744 On ch=12 n=49 v=69
63872 Off ch=12 n=49 v=0
63872 On ch=12 n=49 v=69
64000 Off ch=12 n=49 v=0
64000 On ch=12 n=38 v=62
64256 Off ch=12 n=38 v=0
64256 On ch=12 n=50 v=83
64384 Off ch=12 n=50 v=0
64384 On ch=12 n=50 v=82
64512 Off ch=12 n=50 v=0
64512 On ch=12 n=37 v=63
64768 Off ch=12 n=37 v=0
64768 On ch=12 n=49 v=71
64896 Off ch=12 n=49 v=0
64896 On ch=12 n=49 v=77
65024 Off ch=12 n=49 v=0
65024 On ch=12 n=38 v=60
65280 Off ch=12 n=38 v=0
65280 On ch=12 n=50 v=64
65408 Off ch=12 n=50 v=0
65408 On ch=12 n=50 v=66
65536 Off ch=12 n=50 v=0
65536 On ch=12 n=40 v=44
65792 Off ch=12 n=40 v=0
65792 On ch=12 n=52 v=53
65920 Off ch=12 n=52 v=0
65920 On ch=12 n=52 v=47
66048 Off ch=12 n=52 v=0
66048 On ch=12 n=33 v=44
66304 Off ch=12 n=33 v=0
66304 On ch=12 n=45 v=61
66432 Off ch=12 n=45 v=0
66432 On ch=12 n=45 v=55
66560 Off ch=12 n=45 v=0
66560 On ch=12 n=37 v=49
66816 Off ch=12 n=37 v=0
66816 On ch=12 n=49 v=69
66944 Off ch=12 n=49 v=0
66944 On ch=12 n=49 v=61
67072 Off ch=12 n=49 v=0
67072 On ch=12 n=38 v=54
67328 Off ch=12 n=38 v=0
67328 On ch=12 n=50 v=69
67456 Off ch=12 n=50 v=0
67456 On ch=12 n=50 v=74
67584 Off ch=12 n=50 v=0
67584 On ch=12 n=37 v=62
67840 Off ch=12 n=37 v=0
67840 On ch=12 n=49 v=85
67968 Off ch=12 n=49 v=0
67968 On ch=12 n=49 v=81
68096 Off ch=12 n=49 v=0
68096 On ch=12 n=38 v=73
68352 Off ch=12 n=38 v=0
68352 On ch=12 n=50 v=94
68480 Off ch=12 n=50 v=0
68480 On ch=12 n=50 v=83
68608 Off ch=12 n=50 v=0
68608 On ch=12 n=37 v=62
68864 Off ch=12 n=37 v=0
68864 On ch=12 n=36 v=70
68992 Off ch=12 n=36 v=0
68992 On ch=12 n=36 v=72
69120 Off ch=12 n=36 v=0
69120 On ch=12 n=29 v=61
69376 Off ch=12 n=29 v=0
69376 On ch=12 n=41 v=71
69504 Off ch=12 n=41 v=0
69504 On ch=12 n=41 v=64
69632 Off ch=12 n=41 v=0
69632 On ch=12 n=31 v=41
69888 Off ch=12 n=31 v=0
69888 On ch=12 n=43 v=55
70016 Off ch=12 n=43 v=0
70016 On ch=12 n=43 v=47
70144 Off ch=12 n=43 v=0
70144 On ch=12 n=36 v=40
70400 Off ch=12 n=36 v=0
70400 On ch=12 n=48 v=53
70528 Off ch=12 n=48 v=0
70528 On ch=12 n=48 v=45
70656 Off ch=12 n=48 v=0
70656 On ch=12 n=36 v=44
70912 Off ch=12 n=36 v=0
70912 On ch=12 n=48 v=55
71040 Off ch=12 n=48 v=0
71040 On ch=12 n=48 v=49
71168 Off ch=12 n=48 v=0
71168 On ch=12 n=36 v=40
71424 Off ch=12 n=36 v=0
71424 On ch=12 n=48 v=55
71552 Off ch=12 n=48 v=0
71552 On ch=12 n=48 v=48
71680 Off ch=12 n=48 v=0
71680 On ch=12 n=36 v=45
71936 Off ch=12 n=36 v=0
71936 On ch=12 n=48 v=56
72064 Off ch=12 n=48 v=0
72064 On ch=12 n=48 v=45
72192 Off ch=12 n=48 v=0
72192 On ch=12 n=36 v=45
72448 Off ch=12 n=36 v=0
72448 On ch=12 n=48 v=53
72576 Off ch=12 n=48 v=0
72576 On ch=12 n=48 v=50
72704 Off ch=12 n=48 v=0
72704 On ch=12 n=36 v=48
72960 Off ch=12 n=36 v=0
72960 On ch=12 n=48 v=60
73088 Off ch=12 n=48 v=0
73088 On ch=12 n=48 v=57
73216 Off ch=12 n=48 v=0
74325 PrCh ch=12 p=48
74325 Par ch=12 c=7 v=84
74325 Par ch=12 c=10 v=105
74325 Par ch=12 c=91 v=59
74666 On ch=12 n=48 v=89
74717 Off ch=12 n=48 v=0
74752 On ch=12 n=47 v=93
74803 Off ch=12 n=47 v=0
74837 On ch=12 n=45 v=91
74888 Off ch=12 n=45 v=0
74922 On ch=12 n=43 v=88
74973 Off ch=12 n=43 v=0
75008 On ch=12 n=41 v=95
75059 Off ch=12 n=41 v=0
75093 On ch=12 n=40 v=96
75144 Off ch=12 n=40 v=0
75178 On ch=12 n=38 v=96
75229 Off ch=12 n=38 v=0
75264 On ch=12 n=36 v=98
75315 Off ch=12 n=36 v=0
75349 On ch=12 n=35 v=96
75400 Off ch=12 n=35 v=0
75434 On ch=12 n=33 v=107
75485 Off ch=12 n=33 v=0
75520 On ch=12 n=32 v=109
75596 Off ch=12 n=32 v=0
75648 On ch=12 n=32 v=111
75724 Off ch=12 n=32 v=0
76288 PrCh ch=12 p=45
76288 Par ch=12 c=7 v=84
76288 Par ch=12 c=10 v=105
76288 Par ch=12 c=91 v=59
76288 On ch=12 n=28 v=42
76544 Off ch=12 n=28 v=0
76544 On ch=12 n=28 v=36
76672 Off ch=12 n=28 v=0
76672 On ch=12 n=28 v=38
76800 Off ch=12 n=28 v=0
76800 On ch=12 n=28 v=39
77056 Off ch=12 n=28 v=0
77056 On ch=12 n=28 v=37
77312 Off ch=12 n=28 v=0
77312 On ch=12 n=28 v=34
77568 Off ch=12 n=28 v=0
77568 On ch=12 n=28 v=39
77696 Off ch=12 n=28 v=0
77696 On ch=12 n=28 v=36
77824 Off ch=12 n=28 v=0
77824 On ch=12 n=28 v=36
78080 Off ch=12 n=28 v=0
78080 On ch=12 n=28 v=38
78336 Off ch=12 n=28 v=0
78336 On ch=12 n=28 v=33
78592 Off ch=12 n=28 v=0
78592 On ch=12 n=28 v=43
78720 Off ch=12 n=28 v=0
78720 On ch=12 n=30 v=35
78848 Off ch=12 n=30 v=0
78848 On ch=12 n=31 v=45
79104 Off ch=12 n=31 v=0
79104 On ch=12 n=31 v=34
79360 Off ch=12 n=31 v=0
79360 On ch=12 n=31 v=38
79616 Off ch=12 n=31 v=0
79616 On ch=12 n=31 v=33
79744 Off ch=12 n=31 v=0
79744 On ch=12 n=31 v=34
79872 Off ch=12 n=31 v=0
79872 On ch=12 n=31 v=35
80128 Off ch=12 n=31 v=0
80384 On ch=12 n=31 v=33
80640 Off ch=12 n=31 v=0
80640 On ch=12 n=31 v=31
80768 Off ch=12 n=31 v=0
80768 On ch=12 n=33 v=36
80896 Off ch=12 n=33 v=0
80896 On ch=12 n=35 v=30
81152 Off ch=12 n=35 v=0
81152 On ch=12 n=35 v=36
81408 Off ch=12 n=35 v=0
81408 On ch=12 n=30 v=35
81664 Off ch=12 n=30 v=0
81664 On ch=12 n=30 v=35
81792 Off ch=12 n=30 v=0
81792 On ch=12 n=32 v=37
81920 Off ch=12 n=32 v=0
81920 On ch=12 n=33 v=33
82176 Off ch=12 n=33 v=0
82176 On ch=12 n=33 v=37
82432 Off ch=12 n=33 v=0
82432 On ch=12 n=28 v=33
82688 Off ch=12 n=28 v=0
82688 On ch=12 n=28 v=34
82816 Off ch=12 n=28 v=0
82816 On ch=12 n=28 v=31
82944 Off ch=12 n=28 v=0
82944 On ch=12 n=28 v=34
83200 Off ch=12 n=28 v=0
83200 On ch=12 n=28 v=35
83456 Off ch=12 n=28 v=0
83456 On ch=12 n=28 v=38
83712 Off ch=12 n=28 v=0
83712 On ch=12 n=30 v=39
83840 Off ch=12 n=30 v=0
83840 On ch=12 n=32 v=37
83968 Off ch=12 n=32 v=0
83968 On ch=12 n=33 v=41
84224 Off ch=12 n=33 v=0
84480 On ch=12 n=31 v=35
84736 Off ch=12 n=31 v=0
84736 On ch=12 n=31 v=35
84864 Off ch=12 n=31 v=0
84864 On ch=12 n=33 v=35
84992 Off ch=12 n=33 v=0
84992 On ch=12 n=35 v=36
85248 Off ch=12 n=35 v=0
85248 On ch=12 n=35 v=35
85504 Off ch=12 n=35 v=0
85504 On ch=12 n=30 v=33
85760 Off ch=12 n=30 v=0
85760 On ch=12 n=30 v=38
85888 Off ch=12 n=30 v=0
85888 On ch=12 n=32 v=36
86016 Off ch=12 n=32 v=0
86016 On ch=12 n=33 v=37
86272 Off ch=12 n=33 v=0
86272 On ch=12 n=33 v=36
86528 Off ch=12 n=33 v=0
86528 On ch=12 n=28 v=36
86784 Off ch=12 n=28 v=0
86784 On ch=12 n=28 v=34
86912 Off ch=12 n=28 v=0
86912 On ch=12 n=28 v=32
87040 Off ch=12 n=28 v=0
87040 On ch=12 n=28 v=36
87296 Off ch=12 n=28 v=0
87296 On ch=12 n=28 v=32
87552 Off ch=12 n=28 v=0
87552 On ch=12 n=28 v=32
87808 Off ch=12 n=28 v=0
87808 On ch=12 n=30 v=35
87936 Off ch=12 n=30 v=0
87936 On ch=12 n=32 v=40
88064 Off ch=12 n=32 v=0
88064 On ch=12 n=33 v=35
88320 Off ch=12 n=33 v=0
88576 On ch=12 n=33 v=28
88832 Off ch=12 n=33 v=0
88832 On ch=12 n=33 v=38
88960 Off ch=12 n=33 v=0
88960 On ch=12 n=33 v=35
89088 Off ch=12 n=33 v=0
89088 On ch=12 n=33 v=32
89344 Off ch=12 n=33 v=0
89600 On ch=12 n=33 v=35
89856 Off ch=12 n=33 v=0
89856 On ch=12 n=33 v=36
89984 Off ch=12 n=33 v=0
89984 On ch=12 n=33 v=37
90112 Off ch=12 n=33 v=0
90112 On ch=12 n=33 v=34
90368 Off ch=12 n=33 v=0
90624 On ch=12 n=33 v=39
90752 Off ch=12 n=33 v=0
90752 On ch=12 n=33 v=40
90880 Off ch=12 n=33 v=0
90880 On ch=12 n=33 v=45
91008 Off ch=12 n=33 v=0
91136 On ch=12 n=33 v=45
91264 Off ch=12 n=33 v=0
91264 On ch=12 n=33 v=55
91392 Off ch=12 n=33 v=0
91392 On ch=12 n=33 v=63
91520 Off ch=12 n=33 v=0
91648 On ch=12 n=33 v=62
91776 Off ch=12 n=33 v=0
91776 On ch=12 n=33 v=71
91904 Off ch=12 n=33 v=0
91904 On ch=12 n=33 v=77
92032 Off ch=12 n=33 v=0
92416 On ch=12 n=33 v=64
92544 Off ch=12 n=33 v=0
92544 On ch=12 n=33 v=70
92672 Off ch=12 n=33 v=0
92928 On ch=12 n=33 v=51
93056 Off ch=12 n=33 v=0
93056 On ch=12 n=33 v=46
93184 Off ch=12 n=33 v=0
93440 On ch=12 n=33 v=31
93568 Off ch=12 n=33 v=0
93568 On ch=12 n=33 v=35
93696 Off ch=12 n=33 v=0
97280 PrCh ch=12 p=48
97280 Par ch=12 c=7 v=84
97280 Par ch=12 c=10 v=105
97280 Par ch=12 c=91 v=59
97280 On ch=12 n=45 v=38
97536 Off ch=12 n=45 v=0
97536 On ch=12 n=45 v=32
97612 Off ch=12 n=45 v=0
97664 On ch=12 n=47 v=35
97740 Off ch=12 n=47 v=0
97792 On ch=12 n=48 v=32
97945 Off ch=12 n=48 v=0
98048 On ch=12 n=48 v=36
98193 Off ch=12 n=48 v=0
98304 On ch=12 n=47 v=35
98560 Off ch=12 n=47 v=0
98560 On ch=12 n=47 v=34
98636 Off ch=12 n=47 v=0
98688 On ch=12 n=49 v=37
98764 Off ch=12 n=49 v=0
98816 On ch=12 n=50 v=38
98892 Off ch=12 n=50 v=0
98944 On ch=12 n=48 v=32
99020 Off ch=12 n=48 v=0
99072 On ch=12 n=47 v=33
99148 Off ch=12 n=47 v=0
99200 On ch=12 n=45 v=31
99276 Off ch=12 n=45 v=0
99328 On ch=12 n=43 v=36
99366 Off ch=12 n=43 v=0
99392 On ch=12 n=45 v=37
99430 Off ch=12 n=45 v=0
99456 On ch=12 n=47 v=38
99494 Off ch=12 n=47 v=0
99520 On ch=12 n=45 v=30
99558 Off ch=12 n=45 v=0
99584 On ch=12 n=43 v=35
99622 Off ch=12 n=43 v=0
99648 On ch=12 n=45 v=40
99686 Off ch=12 n=45 v=0
99712 On ch=12 n=43 v=38
99750 Off ch=12 n=43 v=0
99776 On ch=12 n=42 v=32
99814 Off ch=12 n=42 v=0
99840 On ch=12 n=40 v=36
99878 Off ch=12 n=40 v=0
99904 On ch=12 n=42 v=32
99942 Off ch=12 n=42 v=0
99968 On ch=12 n=43 v=38
100006 Off ch=12 n=43 v=0
100032 On ch=12 n=45 v=37
100070 Off ch=12 n=45 v=0
100096 On ch=12 n=47 v=38
100134 Off ch=12 n=47 v=0
100160 On ch=12 n=49 v=36
100198 Off ch=12 n=49 v=0
100224 On ch=12 n=51 v=36
100262 Off ch=12 n=51 v=0
100288 On ch=12 n=52 v=41
100326 Off ch=12 n=52 v=0
100352 On ch=12 n=52 v=37
100390 Off ch=12 n=52 v=0
100416 On ch=12 n=45 v=31
100454 Off ch=12 n=45 v=0
100480 On ch=12 n=47 v=35
100518 Off ch=12 n=47 v=0
100544 On ch=12 n=49 v=36
100582 Off ch=12 n=49 v=0
100608 On ch=12 n=50 v=41
100646 Off ch=12 n=50 v=0
100672 On ch=12 n=47 v=32
100710 Off ch=12 n=47 v=0
100736 On ch=12 n=52 v=36
100774 Off ch=12 n=52 v=0
100800 On ch=12 n=50 v=36
100838 Off ch=12 n=50 v=0
100864 On ch=12 n=48 v=36
100902 Off ch=12 n=48 v=0
100928 On ch=12 n=47 v=30
100966 Off ch=12 n=47 v=0
100992 On ch=12 n=48 v=36
101030 Off ch=12 n=48 v=0
101056 On ch=12 n=50 v=37
101094 Off ch=12 n=50 v=0
101120 On ch=12 n=52 v=38
101158 Off ch=12 n=52 v=0
101184 On ch=12 n=40 v=29
101222 Off ch=12 n=40 v=0
101248 On ch=12 n=42 v=36
101286 Off ch=12 n=42 v=0
101312 On ch=12 n=44 v=39
101350 Off ch=12 n=44 v=0
101376 On ch=12 n=45 v=33
101452 Off ch=12 n=45 v=0
101504 On ch=12 n=43 v=33
101580 Off ch=12 n=43 v=0
101632 On ch=12 n=42 v=37
101708 Off ch=12 n=42 v=0
101760 On ch=12 n=40 v=28
101836 Off ch=12 n=40 v=0
101888 On ch=12 n=42 v=44
101926 Off ch=12 n=42 v=0
101952 On ch=12 n=42 v=37
101990 Off ch=12 n=42 v=0
102016 On ch=12 n=43 v=36
102054 Off ch=12 n=43 v=0
102080 On ch=12 n=45 v=40
102118 Off ch=12 n=45 v=0
102144 On ch=12 n=38 v=28
102182 Off ch=12 n=38 v=0
102208 On ch=12 n=38 v=38
102246 Off ch=12 n=38 v=0
102272 On ch=12 n=40 v=39
102310 Off ch=12 n=40 v=0
102336 On ch=12 n=42 v=35
102374 Off ch=12 n=42 v=0
102400 On ch=12 n=43 v=34
102476 Off ch=12 n=43 v=0
102528 On ch=12 n=41 v=32
102604 Off ch=12 n=41 v=0
102656 On ch=12 n=40 v=34
102732 Off ch=12 n=40 v=0
102784 On ch=12 n=38 v=34
103040 Off ch=12 n=38 v=0
103040 On ch=12 n=36 v=31
103296 Off ch=12 n=36 v=0
103296 On ch=12 n=43 v=40
103552 Off ch=12 n=43 v=0
103552 On ch=12 n=36 v=32
103808 Off ch=12 n=36 v=0
103808 On ch=12 n=48 v=38
103936 Off ch=12 n=48 v=0
104960 On ch=12 n=50 v=37
105216 Off ch=12 n=50 v=0
105216 On ch=12 n=50 v=33
105292 Off ch=12 n=50 v=0
105344 On ch=12 n=52 v=39
105420 Off ch=12 n=52 v=0
105472 On ch=12 n=53 v=35
105625 Off ch=12 n=53 v=0
105728 On ch=12 n=53 v=42
105873 Off ch=12 n=53 v=0
105984 On ch=12 n=41 v=34
106022 Off ch=12 n=41 v=0
106048 On ch=12 n=40 v=32
106086 Off ch=12 n=40 v=0
106112 On ch=12 n=43 v=36
106150 Off ch=12 n=43 v=0
106176 On ch=12 n=41 v=38
106214 Off ch=12 n=41 v=0
106240 On ch=12 n=40 v=36
106278 Off ch=12 n=40 v=0
106304 On ch=12 n=43 v=35
106342 Off ch=12 n=43 v=0
106368 On ch=12 n=41 v=32
106406 Off ch=12 n=41 v=0
106432 On ch=12 n=40 v=36
106470 Off ch=12 n=40 v=0
106496 On ch=12 n=38 v=31
106534 Off ch=12 n=38 v=0
106560 On ch=12 n=40 v=41
106598 Off ch=12 n=40 v=0
106624 On ch=12 n=41 v=40
106662 Off ch=12 n=41 v=0
106688 On ch=12 n=43 v=39
106726 Off ch=12 n=43 v=0
106752 On ch=12 n=45 v=36
106790 Off ch=12 n=45 v=0
106816 On ch=12 n=47 v=35
106854 Off ch=12 n=47 v=0
106880 On ch=12 n=49 v=34
106918 Off ch=12 n=49 v=0
106944 On ch=12 n=50 v=37
106982 Off ch=12 n=50 v=0
107008 On ch=12 n=50 v=40
107046 Off ch=12 n=50 v=0
107072 On ch=12 n=38 v=32
107110 Off ch=12 n=38 v=0
107136 On ch=12 n=38 v=39
107174 Off ch=12 n=38 v=0
107200 On ch=12 n=38 v=37
107238 Off ch=12 n=38 v=0
107264 On ch=12 n=38 v=45
107302 Off ch=12 n=38 v=0
107328 On ch=12 n=38 v=45
107366 Off ch=12 n=38 v=0
107392 On ch=12 n=38 v=54
107430 Off ch=12 n=38 v=0
107456 On ch=12 n=38 v=53
107494 Off ch=12 n=38 v=0
107520 On ch=12 n=38 v=50
107558 Off ch=12 n=38 v=0
107584 On ch=12 n=38 v=54
107622 Off ch=12 n=38 v=0
107648 On ch=12 n=38 v=59
107686 Off ch=12 n=38 v=0
107712 On ch=12 n=38 v=62
107750 Off ch=12 n=38 v=0
107776 On ch=12 n=38 v=59
107814 Off ch=12 n=38 v=0
107840 On ch=12 n=38 v=67
107878 Off ch=12 n=38 v=0
107904 On ch=12 n=38 v=65
107942 Off ch=12 n=38 v=0
107968 On ch=12 n=38 v=72
108006 Off ch=12 n=38 v=0
108032 On ch=12 n=38 v=75
108070 Off ch=12 n=38 v=0
108096 On ch=12 n=38 v=77
108134 Off ch=12 n=38 v=0
108160 On ch=12 n=38 v=77
108198 Off ch=12 n=38 v=0
108224 On ch=12 n=38 v=79
108262 Off ch=12 n=38 v=0
108288 On ch=12 n=38 v=86
108326 Off ch=12 n=38 v=0
108352 On ch=12 n=38 v=88
108390 Off ch=12 n=38 v=0
108416 On ch=12 n=38 v=92
108454 Off ch=12 n=38 v=0
108480 On ch=12 n=38 v=91
108518 Off ch=12 n=38 v=0
108544 On ch=12 n=38 v=96
108582 Off ch=12 n=38 v=0
108608 On ch=12 n=38 v=96
108646 Off ch=12 n=38 v=0
108672 On ch=12 n=38 v=99
108710 Off ch=12 n=38 v=0
108736 On ch=12 n=38 v=102
108774 Off ch=12 n=38 v=0
108800 On ch=12 n=38 v=104
108838 Off ch=12 n=38 v=0
108864 On ch=12 n=38 v=108
108902 Off ch=12 n=38 v=0
108928 On ch=12 n=36 v=105
108966 Off ch=12 n=36 v=0
108992 On ch=12 n=35 v=109
109030 Off ch=12 n=35 v=0
109056 On ch=12 n=33 v=110
109312 Off ch=12 n=33 v=0
109312 On ch=12 n=33 v=113
109388 Off ch=12 n=33 v=0
109440 On ch=12 n=33 v=112
109516 Off ch=12 n=33 v=0
109568 On ch=12 n=32 v=108
109721 Off ch=12 n=32 v=0
109824 On ch=12 n=32 v=111
109969 Off ch=12 n=32 v=0
110080 On ch=12 n=28 v=108
110336 Off ch=12 n=28 v=0
110336 On ch=12 n=28 v=110
110412 Off ch=12 n=28 v=0
110464 On ch=12 n=28 v=115
110540 Off ch=12 n=28 v=0
110592 On ch=12 n=33 v=118
110745 Off ch=12 n=33 v=0
110848 On ch=12 n=33 v=113
110993 Off ch=12 n=33 v=0
111104 On ch=12 n=33 v=113
111360 Off ch=12 n=33 v=0
111360 On ch=12 n=33 v=110
111436 Off ch=12 n=33 v=0
111488 On ch=12 n=33 v=114
111564 Off ch=12 n=33 v=0
111616 On ch=12 n=32 v=109
111772 Off ch=12 n=32 v=0
111872 On ch=12 n=33 v=119
112017 Off ch=12 n=33 v=0
112128 On ch=12 n=28 v=105
112384 Off ch=12 n=28 v=0
112384 On ch=12 n=40 v=127
112460 Off ch=12 n=40 v=0
112512 On ch=12 n=40 v=114
112588 Off ch=12 n=40 v=0
112640 On ch=12 n=33 v=102
112896 Off ch=12 n=33 v=0
114176 PrCh ch=12 p=45
114176 Par ch=12 c=7 v=84
114176 Par ch=12 c=10 v=105
114176 Par ch=12 c=91 v=59
114176 On ch=12 n=28 v=45
114432 Off ch=12 n=28 v=0
114432 On ch=12 n=30 v=54
114560 Off ch=12 n=30 v=0
114560 On ch=12 n=32 v=51
114688 Off ch=12 n=32 v=0
114688 On ch=12 n=33 v=49
114944 Off ch=12 n=33 v=0
114944 On ch=12 n=45 v=53
115072 Off ch=12 n=45 v=0
115072 On ch=12 n=45 v=50
115200 Off ch=12 n=45 v=0
115200 On ch=12 n=33 v=41
115456 Off ch=12 n=33 v=0
115456 On ch=12 n=45 v=49
115584 Off ch=12 n=45 v=0
115584 On ch=12 n=45 v=51
115712 Off ch=12 n=45 v=0
115712 On ch=12 n=33 v=42
115968 Off ch=12 n=33 v=0
115968 On ch=12 n=45 v=51
116096 Off ch=12 n=45 v=0
116096 On ch=12 n=45 v=53
116224 Off ch=12 n=45 v=0
116224 On ch=12 n=33 v=48
116480 Off ch=12 n=33 v=0
116480 On ch=12 n=45 v=62
116608 Off ch=12 n=45 v=0
116608 On ch=12 n=45 v=55
116736 Off ch=12 n=45 v=0
116736 On ch=12 n=33 v=49
116992 Off ch=12 n=33 v=0
116992 On ch=12 n=45 v=64
117120 Off ch=12 n=45 v=0
117120 On ch=12 n=45 v=60
117248 Off ch=12 n=45 v=0
117248 On ch=12 n=33 v=54
117504 Off ch=12 n=33 v=0
117504 On ch=12 n=45 v=72
117632 Off ch=12 n=45 v=0
117632 On ch=12 n=45 v=66
117760 Off ch=12 n=45 v=0
117760 On ch=12 n=33 v=52
118016 Off ch=12 n=33 v=0
118016 On ch=12 n=45 v=67
118144 Off ch=12 n=45 v=0
118144 On ch=12 n=45 v=59
118272 Off ch=12 n=45 v=0
118272 On ch=12 n=33 v=47
118528 Off ch=12 n=33 v=0
118528 On ch=12 n=45 v=56
118656 Off ch=12 n=45 v=0
118656 On ch=12 n=45 v=51
118784 Off ch=12 n=45 v=0
118784 On ch=12 n=33 v=40
119040 Off ch=12 n=33 v=0
119040 On ch=12 n=45 v=60
119168 Off ch=12 n=45 v=0
119168 On ch=12 n=45 v=55
119296 Off ch=12 n=45 v=0
119296 On ch=12 n=33 v=45
119552 Off ch=12 n=33 v=0
119552 On ch=12 n=45 v=72
119680 Off ch=12 n=45 v=0
119680 On ch=12 n=45 v=63
119808 Off ch=12 n=45 v=0
119808 On ch=12 n=33 v=53
120064 Off ch=12 n=33 v=0
120064 On ch=12 n=45 v=75
120192 Off ch=12 n=45 v=0
120192 On ch=12 n=45 v=76
120320 Off ch=12 n=45 v=0
120320 On ch=12 n=33 v=60
120576 Off ch=12 n=33 v=0
120576 On ch=12 n=45 v=85
120704 Off ch=12 n=45 v=0
120704 On ch=12 n=45 v=76
120832 Off ch=12 n=45 v=0
120832 On ch=12 n=33 v=59
121088 Off ch=12 n=33 v=0
121088 On ch=12 n=45 v=70
121216 Off ch=12 n=45 v=0
121216 On ch=12 n=45 v=64
121344 Off ch=12 n=45 v=0
121344 On ch=12 n=33 v=56
121600 Off ch=12 n=33 v=0
121600 On ch=12 n=45 v=73
121728 Off ch=12 n=45 v=0
121728 On ch=12 n=45 v=63
121856 Off ch=12 n=45 v=0
121856 On ch=12 n=33 v=53
122112 Off ch=12 n=33 v=0
122112 On ch=12 n=45 v=75
122240 Off ch=12 n=45 v=0
122240 On ch=12 n=45 v=63
122368 Off ch=12 n=45 v=0
122368 On ch=12 n=33 v=52
122624 Off ch=12 n=33 v=0
122624 On ch=12 n=45 v=60
122752 Off ch=12 n=45 v=0
122752 On ch=12 n=45 v=58
122880 Off ch=12 n=45 v=0
122880 On ch=12 n=33 v=52
123136 Off ch=12 n=33 v=0
123136 On ch=12 n=45 v=61
123264 Off ch=12 n=45 v=0
123264 On ch=12 n=45 v=52
123392 Off ch=12 n=45 v=0
123392 On ch=12 n=33 v=51
123648 Off ch=12 n=33 v=0
123648 On ch=12 n=45 v=65
123776 Off ch=12 n=45 v=0
123776 On ch=12 n=45 v=53
123904 Off ch=12 n=45 v=0
123904 PrCh ch=12 p=48
123904 Par ch=12 c=7 v=84
123904 Par ch=12 c=10 v=105
123904 Par ch=12 c=91 v=59
123904 On ch=12 n=45 v=31
124416 On ch=12 n=41 v=25
124426 Off ch=12 n=45 v=0
124928 On ch=12 n=40 v=34
124938 Off ch=12 n=41 v=0
125440 On ch=12 n=38 v=35
125450 Off ch=12 n=40 v=0
125926 Off ch=12 n=38 v=0
125952 On ch=12 n=31 v=101
126080 Off ch=12 n=31 v=0
126208 On ch=12 n=43 v=99
126336 Off ch=12 n=43 v=0
126464 On ch=12 n=36 v=100
126720 Off ch=12 n=36 v=0
126976 On ch=12 n=40 v=40
127232 Off ch=12 n=40 v=0
127232 On ch=12 n=40 v=52
127308 Off ch=12 n=40 v=0
127360 On ch=12 n=40 v=45
127436 Off ch=12 n=40 v=0
127488 On ch=12 n=33 v=43
127616 Off ch=12 n=33 v=0
128000 On ch=12 n=31 v=101
128128 Off ch=12 n=31 v=0
128256 On ch=12 n=43 v=102
128384 Off ch=12 n=43 v=0
128512 On ch=12 n=36 v=97
128768 Off ch=12 n=36 v=0
129024 On ch=12 n=40 v=44
129280 Off ch=12 n=40 v=0
129280 On ch=12 n=40 v=46
129356 Off ch=12 n=40 v=0
129408 On ch=12 n=40 v=48
129484 Off ch=12 n=40 v=0
130304 PrCh ch=12 p=45
130304 Par ch=12 c=7 v=84
130304 Par ch=12 c=10 v=105
130304 Par ch=12 c=91 v=59
130304 On ch=12 n=33 v=44
130560 Off ch=12 n=33 v=0
130816 On ch=12 n=40 v=46
131072 Off ch=12 n=40 v=0
131328 On ch=12 n=40 v=43
131584 Off ch=12 n=40 v=0
131840 On ch=12 n=45 v=40
132096 Off ch=12 n=45 v=0
132352 On ch=12 n=45 v=44
132608 Off ch=12 n=45 v=0
132864 On ch=12 n=43 v=33
133120 Off ch=12 n=43 v=0
133120 On ch=12 n=31 v=29
133376 Off ch=12 n=31 v=0
133376 On ch=12 n=31 v=35
133504 Off ch=12 n=31 v=0
133504 On ch=12 n=31 v=32
133632 Off ch=12 n=31 v=0
133632 On ch=12 n=36 v=42
133888 Off ch=12 n=36 v=0
134400 On ch=12 n=48 v=33
134656 Off ch=12 n=48 v=0
134912 On ch=12 n=47 v=31
135168 Off ch=12 n=47 v=0
135424 On ch=12 n=52 v=31
135680 Off ch=12 n=52 v=0
135936 On ch=12 n=45 v=29
136192 Off ch=12 n=45 v=0
136448 On ch=12 n=45 v=34
136704 Off ch=12 n=45 v=0
136704 On ch=12 n=44 v=36
136960 Off ch=12 n=44 v=0
136960 On ch=12 n=45 v=37
137216 Off ch=12 n=45 v=0
137216 On ch=12 n=28 v=41
137472 Off ch=12 n=28 v=0
137472 On ch=12 n=30 v=53
137600 Off ch=12 n=30 v=0
137600 On ch=12 n=32 v=51
137728 Off ch=12 n=32 v=0
137728 On ch=12 n=33 v=50
137984 Off ch=12 n=33 v=0
139264 On ch=12 n=28 v=59
139520 Off ch=12 n=28 v=0
139520 On ch=12 n=30 v=63
139648 Off ch=12 n=30 v=0
139648 On ch=12 n=32 v=67
139776 Off ch=12 n=32 v=0
139776 On ch=12 n=33 v=59
140032 Off ch=12 n=33 v=0
140288 On ch=12 n=33 v=55
140544 Off ch=12 n=33 v=0