0 On ch=2 n=60 v=63
256 On ch=2 n=58 v=70
261 Off ch=2 n=60 v=0
499 Off ch=2 n=58 v=0
512 On ch=2 n=63 v=77
896 On ch=2 n=61 v=74
903 Off ch=2 n=63 v=0
1017 Off ch=2 n=61 v=0
1024 On ch=2 n=60 v=76
1152 On ch=2 n=63 v=80
1154 Off ch=2 n=60 v=0
1273 Off ch=2 n=63 v=0
1280 On ch=2 n=68 v=83
1408 On ch=2 n=70 v=83
1410 Off ch=2 n=68 v=0
1529 Off ch=2 n=70 v=0
1536 On ch=2 n=63 v=72
1920 On ch=2 n=64 v=81
1927 Off ch=2 n=63 v=0
2041 Off ch=2 n=64 v=0
2048 On ch=2 n=65 v=87
2304 Off ch=2 n=65 v=0
2304 On ch=2 n=58 v=80
2496 On ch=2 n=60 v=82
2499 Off ch=2 n=58 v=0
2528 Off ch=2 n=60 v=0
2528 On ch=2 n=61 v=83
2558 Off ch=2 n=61 v=0
2560 On ch=2 n=63 v=83
2816 On ch=2 n=57 v=76
2821 Off ch=2 n=63 v=0
3059 Off ch=2 n=57 v=0
3072 On ch=2 n=61 v=83
3328 Off ch=2 n=61 v=0
3328 On ch=2 n=60 v=73
3376 Off ch=2 n=60 v=0
3392 On ch=2 n=58 v=74
3440 Off ch=2 n=58 v=0
3456 On ch=2 n=56 v=72
3504 Off ch=2 n=56 v=0
3520 On ch=2 n=55 v=73
3565 Off ch=2 n=55 v=0
3584 On ch=2 n=58 v=75
3840 On ch=2 n=56 v=70
3845 Off ch=2 n=58 v=0
3961 Off ch=2 n=56 v=0
4096 On ch=2 n=72 v=60
4352 On ch=2 n=70 v=68
4357 Off ch=2 n=72 v=0
4595 Off ch=2 n=70 v=0
4608 On ch=2 n=75 v=79
4992 On ch=2 n=73 v=72
4999 Off ch=2 n=75 v=0
5113 Off ch=2 n=73 v=0
5120 On ch=2 n=72 v=75
5248 On ch=2 n=75 v=81
5250 Off ch=2 n=72 v=0
5369 Off ch=2 n=75 v=0
5376 On ch=2 n=80 v=80
5504 On ch=2 n=82 v=81
5506 Off ch=2 n=80 v=0
5625 Off ch=2 n=82 v=0
5632 On ch=2 n=75 v=71
6016 On ch=2 n=76 v=82
6023 Off ch=2 n=75 v=0
6137 Off ch=2 n=76 v=0
6144 On ch=2 n=77 v=85
6400 Off ch=2 n=77 v=0
6400 On ch=2 n=70 v=76
6592 On ch=2 n=72 v=84
6595 Off ch=2 n=70 v=0
6624 Off ch=2 n=72 v=0
6624 On ch=2 n=73 v=81
6654 Off ch=2 n=73 v=0
6656 On ch=2 n=75 v=81
6912 On ch=2 n=69 v=72
6917 Off ch=2 n=75 v=0
7155 Off ch=2 n=69 v=0
7168 On ch=2 n=73 v=79
7424 Off ch=2 n=73 v=0
7424 On ch=2 n=72 v=71
7472 Off ch=2 n=72 v=0
7488 On ch=2 n=70 v=73
7536 Off ch=2 n=70 v=0
7552 On ch=2 n=68 v=71
7600 Off ch=2 n=68 v=0
7616 On ch=2 n=67 v=71
7661 Off ch=2 n=67 v=0
7680 On ch=2 n=70 v=76
7936 On ch=2 n=68 v=71
7941 Off ch=2 n=70 v=0
8057 Off ch=2 n=68 v=0
8160 On ch=2 n=60 v=63
8192 Off ch=2 n=60 v=0
8192 On ch=2 n=72 v=80
8512 On ch=2 n=80 v=84
8518 Off ch=2 n=72 v=0
8572 Off ch=2 n=80 v=0
8576 On ch=2 n=79 v=68
8640 On ch=2 n=77 v=67
8641 Off ch=2 n=79 v=0
8704 On ch=2 n=84 v=78
8705 Off ch=2 n=77 v=0
9008 Off ch=2 n=84 v=0
9024 On ch=2 n=80 v=69
9088 On ch=2 n=79 v=68
9089 Off ch=2 n=80 v=0
9152 On ch=2 n=77 v=72
9153 Off ch=2 n=79 v=0
9212 Off ch=2 n=77 v=0
9216 On ch=2 n=72 v=67
9536 On ch=2 n=80 v=84
9542 Off ch=2 n=72 v=0
9596 Off ch=2 n=80 v=0
9600 On ch=2 n=79 v=75
9664 On ch=2 n=77 v=72
9665 Off ch=2 n=79 v=0
9724 Off ch=2 n=77 v=0
9728 On ch=2 n=75 v=62
9856 On ch=2 n=74 v=59
9858 Off ch=2 n=75 v=0
10038 Off ch=2 n=74 v=0
10048 On ch=2 n=75 v=73
10064 Off ch=2 n=75 v=0
10064 On ch=2 n=74 v=69
10080 Off ch=2 n=74 v=0
10080 On ch=2 n=72 v=68
10096 Off ch=2 n=72 v=0
10096 On ch=2 n=74 v=74
10111 Off ch=2 n=74 v=0
10112 On ch=2 n=77 v=77
10208 On ch=2 n=75 v=78
10209 Off ch=2 n=77 v=0
10238 Off ch=2 n=75 v=0
10240 On ch=2 n=75 v=81
10496 Off ch=2 n=75 v=0
10496 On ch=2 n=65 v=70
10688 On ch=2 n=68 v=82
10691 Off ch=2 n=65 v=0
10720 Off ch=2 n=68 v=0
10720 On ch=2 n=72 v=87
10734 Off ch=2 n=72 v=0
10734 On ch=2 n=71 v=82
10740 On ch=2 n=72 v=82
10746 On ch=2 n=74 v=82
10752 On ch=2 n=72 v=82
10752 Off ch=2 n=71 v=0
10752 Off ch=2 n=72 v=0
10752 Off ch=2 n=74 v=0
10782 Off ch=2 n=72 v=0
10784 On ch=2 n=70 v=79
10816 Off ch=2 n=70 v=0
10816 On ch=2 n=79 v=91
10937 Off ch=2 n=79 v=0
10944 On ch=2 n=77 v=78
10976 Off ch=2 n=77 v=0
10976 On ch=2 n=75 v=78
11008 Off ch=2 n=75 v=0
11008 On ch=2 n=74 v=75
11040 Off ch=2 n=74 v=0
11040 On ch=2 n=72 v=76
11072 Off ch=2 n=72 v=0
11072 On ch=2 n=70 v=76
11104 Off ch=2 n=70 v=0
11104 On ch=2 n=69 v=72
11136 Off ch=2 n=69 v=0
11136 On ch=2 n=72 v=76
11168 Off ch=2 n=72 v=0
11168 On ch=2 n=70 v=71
11200 Off ch=2 n=70 v=0
11200 On ch=2 n=68 v=69
11232 Off ch=2 n=68 v=0
11232 On ch=2 n=65 v=69
11262 Off ch=2 n=65 v=0
11264 On ch=2 n=63 v=70
11392 Off ch=2 n=63 v=0
11776 On ch=2 n=56 v=51
12288 On ch=2 n=55 v=62
12298 Off ch=2 n=56 v=0
12409 Off ch=2 n=55 v=0
12672 On ch=2 n=58 v=64
12768 On ch=2 n=63 v=75
12769 Off ch=2 n=58 v=0
12798 Off ch=2 n=63 v=0
12800 On ch=2 n=63 v=72
12864 On ch=2 n=62 v=77
12865 Off ch=2 n=63 v=0
12928 Off ch=2 n=62 v=0
12928 On ch=2 n=62 v=73
12992 On ch=2 n=60 v=76
12993 Off ch=2 n=62 v=0
13056 Off ch=2 n=60 v=0
13056 On ch=2 n=60 v=80
13116 Off ch=2 n=60 v=0
13120 On ch=2 n=59 v=78
13184 Off ch=2 n=59 v=0
13184 On ch=2 n=59 v=84
13248 On ch=2 n=58 v=82
13249 Off ch=2 n=59 v=0
13308 Off ch=2 n=58 v=0
13312 On ch=2 n=58 v=57
14336 Off ch=2 n=58 v=0
14336 On ch=2 n=60 v=72
14592 On ch=2 n=58 v=70
14597 Off ch=2 n=60 v=0
14835 Off ch=2 n=58 v=0
14848 On ch=2 n=63 v=80
15232 On ch=2 n=61 v=73
15239 Off ch=2 n=63 v=0
15353 Off ch=2 n=61 v=0
15360 On ch=2 n=60 v=74
15488 Off ch=2 n=60 v=0
15488 On ch=2 n=63 v=81
15616 Off ch=2 n=63 v=0
15616 On ch=2 n=68 v=83
15744 On ch=2 n=70 v=83
15746 Off ch=2 n=68 v=0
15865 Off ch=2 n=70 v=0
15872 On ch=2 n=63 v=72
16256 Off ch=2 n=63 v=0
16256 On ch=2 n=64 v=82
16384 Off ch=2 n=64 v=0
16384 On ch=2 n=65 v=84
16640 Off ch=2 n=65 v=0
16640 On ch=2 n=58 v=79
16832 On ch=2 n=60 v=84
16835 Off ch=2 n=58 v=0
16864 Off ch=2 n=60 v=0
16864 On ch=2 n=61 v=83
16894 Off ch=2 n=61 v=0
16896 On ch=2 n=63 v=82
17152 Off ch=2 n=63 v=0
17152 On ch=2 n=57 v=74
17408 Off ch=2 n=57 v=0
17408 On ch=2 n=61 v=79
17664 Off ch=2 n=61 v=0
17664 On ch=2 n=60 v=72
17712 Off ch=2 n=60 v=0
17728 On ch=2 n=58 v=71
17776 Off ch=2 n=58 v=0
17792 On ch=2 n=56 v=71
17840 Off ch=2 n=56 v=0
17856 On ch=2 n=55 v=69
17901 Off ch=2 n=55 v=0
17920 On ch=2 n=58 v=72
18176 On ch=2 n=56 v=71
18181 Off ch=2 n=58 v=0
18297 Off ch=2 n=56 v=0
18304 On ch=2 n=63 v=87
18400 Off ch=2 n=63 v=0
18432 On ch=2 n=68 v=76
18560 On ch=2 n=71 v=74
18562 Off ch=2 n=68 v=0
18688 On ch=2 n=70 v=66
18690 Off ch=2 n=71 v=0
18809 Off ch=2 n=70 v=0
18816 On ch=2 n=68 v=62
18944 On ch=2 n=67 v=59
18946 Off ch=2 n=68 v=0
19072 On ch=2 n=73 v=64
19074 Off ch=2 n=67 v=0
19193 Off ch=2 n=73 v=0
19456 On ch=2 n=68 v=64
19584 On ch=2 n=71 v=73
19586 Off ch=2 n=68 v=0
19712 On ch=2 n=70 v=66
19714 Off ch=2 n=71 v=0
19833 Off ch=2 n=70 v=0
19840 On ch=2 n=68 v=62
19968 Off ch=2 n=68 v=0
19968 On ch=2 n=68 v=64
20096 On ch=2 n=67 v=53
20098 Off ch=2 n=68 v=0
20217 Off ch=2 n=67 v=0
20608 On ch=2 n=71 v=71
20650 Off ch=2 n=71 v=0
20650 On ch=2 n=71 v=80
20693 Off ch=2 n=71 v=0
20693 On ch=2 n=71 v=78
20736 Off ch=2 n=71 v=0
20736 On ch=2 n=70 v=78
20778 Off ch=2 n=70 v=0
20778 On ch=2 n=70 v=80
20821 Off ch=2 n=70 v=0
20821 On ch=2 n=70 v=81
20864 Off ch=2 n=70 v=0
20864 On ch=2 n=68 v=77
20906 Off ch=2 n=68 v=0
20906 On ch=2 n=68 v=81
20949 Off ch=2 n=68 v=0
20949 On ch=2 n=68 v=80
20992 Off ch=2 n=68 v=0
20992 On ch=2 n=66 v=91
21162 Off ch=2 n=66 v=0
21162 On ch=2 n=63 v=79
21194 Off ch=2 n=63 v=0
21205 On ch=2 n=59 v=79
21235 Off ch=2 n=59 v=0
21248 On ch=2 n=71 v=109
21418 Off ch=2 n=71 v=0
21418 On ch=2 n=68 v=78
21450 Off ch=2 n=68 v=0
21461 On ch=2 n=64 v=77
21491 Off ch=2 n=64 v=0
21504 On ch=2 n=76 v=108
21674 Off ch=2 n=76 v=0
21674 On ch=2 n=73 v=74
21706 Off ch=2 n=73 v=0
21717 On ch=2 n=70 v=76
21749 Off ch=2 n=70 v=0
21760 On ch=2 n=71 v=83
21856 Off ch=2 n=71 v=0
21888 On ch=2 n=63 v=85
22016 Off ch=2 n=63 v=0
22016 On ch=2 n=64 v=97
22144 Off ch=2 n=64 v=0
22528 On ch=2 n=64 v=76
22656 On ch=2 n=68 v=86
22658 Off ch=2 n=64 v=0
22784 On ch=2 n=66 v=77
22786 Off ch=2 n=68 v=0
22912 On ch=2 n=64 v=75
22914 Off ch=2 n=66 v=0
23040 On ch=2 n=63 v=73
23042 Off ch=2 n=64 v=0
23161 Off ch=2 n=63 v=0
23168 On ch=2 n=69 v=76
23296 Off ch=2 n=69 v=0
23552 On ch=2 n=64 v=73
23680 On ch=2 n=68 v=85
23682 Off ch=2 n=64 v=0
23808 On ch=2 n=64 v=74
23810 Off ch=2 n=68 v=0
23929 Off ch=2 n=64 v=0
23936 On ch=2 n=63 v=74
24064 Off ch=2 n=63 v=0
24064 On ch=2 n=62 v=70
24448 Off ch=2 n=62 v=0
24448 On ch=2 n=62 v=75
24576 Off ch=2 n=62 v=0
24576 On ch=2 n=62 v=76
24960 Off ch=2 n=62 v=0
24960 On ch=2 n=62 v=83
25088 Off ch=2 n=62 v=0
25088 On ch=2 n=61 v=77
25472 Off ch=2 n=61 v=0
25472 On ch=2 n=61 v=96
25600 Off ch=2 n=61 v=0
25600 On ch=2 n=60 v=69
25856 Off ch=2 n=60 v=0
25856 On ch=2 n=58 v=70
26112 Off ch=2 n=58 v=0
26112 On ch=2 n=63 v=76
26496 Off ch=2 n=63 v=0
26496 On ch=2 n=61 v=73
26624 Off ch=2 n=61 v=0
26624 On ch=2 n=60 v=75
26752 On ch=2 n=63 v=80
26754 Off ch=2 n=60 v=0
26873 Off ch=2 n=63 v=0
26880 On ch=2 n=68 v=81
27008 On ch=2 n=70 v=80
27010 Off ch=2 n=68 v=0
27129 Off ch=2 n=70 v=0
27136 On ch=2 n=63 v=72
27520 Off ch=2 n=63 v=0
27520 On ch=2 n=64 v=81
27648 On ch=2 n=65 v=85
27650 Off ch=2 n=64 v=0
27891 Off ch=2 n=65 v=0
27904 On ch=2 n=58 v=80
28096 On ch=2 n=60 v=82
28099 Off ch=2 n=58 v=0
28128 Off ch=2 n=60 v=0
28128 On ch=2 n=61 v=84
28158 Off ch=2 n=61 v=0
28160 On ch=2 n=63 v=84
28416 Off ch=2 n=63 v=0
28416 On ch=2 n=57 v=78
28672 Off ch=2 n=57 v=0
28672 On ch=2 n=61 v=86
28928 Off ch=2 n=61 v=0
28928 On ch=2 n=61 v=83
28959 Off ch=2 n=61 v=0
28970 On ch=2 n=60 v=81
29002 Off ch=2 n=60 v=0
29013 On ch=2 n=58 v=81
29045 Off ch=2 n=58 v=0
29056 On ch=2 n=58 v=80
29085 Off ch=2 n=58 v=0
29098 On ch=2 n=56 v=81
29130 Off ch=2 n=56 v=0
29141 On ch=2 n=55 v=82
29173 Off ch=2 n=55 v=0
29184 On ch=2 n=58 v=85
29440 On ch=2 n=56 v=82
29445 Off ch=2 n=58 v=0
29479 Off ch=2 n=56 v=0
29482 On ch=2 n=51 v=79
29525 Off ch=2 n=51 v=0
29525 On ch=2 n=56 v=85
29568 Off ch=2 n=56 v=0
29568 On ch=2 n=60 v=74
29632 Off ch=2 n=60 v=0
29696 On ch=2 n=72 v=63
29952 Off ch=2 n=72 v=0
29952 On ch=2 n=70 v=69
30208 Off ch=2 n=70 v=0
30208 On ch=2 n=75 v=77
30592 Off ch=2 n=75 v=0
30592 On ch=2 n=73 v=75
30720 Off ch=2 n=73 v=0
30720 On ch=2 n=72 v=76
30848 On ch=2 n=75 v=82
30850 Off ch=2 n=72 v=0
30969 Off ch=2 n=75 v=0
30976 On ch=2 n=80 v=82
31104 On ch=2 n=82 v=81
31106 Off ch=2 n=80 v=0
31225 Off ch=2 n=82 v=0
31232 On ch=2 n=75 v=74
31616 Off ch=2 n=75 v=0
31616 On ch=2 n=76 v=83
31744 On ch=2 n=77 v=82
31746 Off ch=2 n=76 v=0
31987 Off ch=2 n=77 v=0
32000 On ch=2 n=70 v=73
32192 On ch=2 n=72 v=85
32195 Off ch=2 n=70 v=0
32224 Off ch=2 n=72 v=0
32224 On ch=2 n=73 v=84
32254 Off ch=2 n=73 v=0
32256 On ch=2 n=75 v=86
32512 Off ch=2 n=75 v=0
32512 On ch=2 n=69 v=72
32768 Off ch=2 n=69 v=0
32768 On ch=2 n=73 v=78
33024 Off ch=2 n=73 v=0
33024 On ch=2 n=73 v=73
33066 Off ch=2 n=73 v=0
33066 On ch=2 n=72 v=75
33109 Off ch=2 n=72 v=0
33109 On ch=2 n=70 v=69
33149 Off ch=2 n=70 v=0
33152 On ch=2 n=70 v=70
33194 Off ch=2 n=70 v=0
33194 On ch=2 n=68 v=67
33237 Off ch=2 n=68 v=0
33237 On ch=2 n=67 v=70
33277 Off ch=2 n=67 v=0
33280 On ch=2 n=68 v=71
33408 Off ch=2 n=68 v=0
33664 On ch=2 n=63 v=76
33760 On ch=2 n=64 v=78
33761 Off ch=2 n=63 v=0
33792 Off ch=2 n=64 v=0
33792 On ch=2 n=65 v=84
33953 Off ch=2 n=65 v=0
33962 On ch=2 n=63 v=88
34002 Off ch=2 n=63 v=0
34005 On ch=2 n=61 v=91
34037 Off ch=2 n=61 v=0
34048 On ch=2 n=60 v=93
34079 Off ch=2 n=60 v=0
34090 On ch=2 n=58 v=91
34122 Off ch=2 n=58 v=0
34133 On ch=2 n=56 v=89
34163 Off ch=2 n=56 v=0
34176 On ch=2 n=55 v=89
34208 Off ch=2 n=55 v=0
34208 On ch=2 n=61 v=93
34240 Off ch=2 n=61 v=0
34240 On ch=2 n=58 v=84
34272 Off ch=2 n=58 v=0
34272 On ch=2 n=55 v=82
34302 Off ch=2 n=55 v=0
34304 On ch=2 n=56 v=75
34368 On ch=2 n=58 v=79
34369 Off ch=2 n=56 v=0
34378 Off ch=2 n=58 v=0
34378 On ch=2 n=56 v=74
34389 Off ch=2 n=56 v=0
34389 On ch=2 n=55 v=73
34400 Off ch=2 n=55 v=0
34400 On ch=2 n=56 v=76
34416 Off ch=2 n=56 v=0
34416 On ch=2 n=60 v=78
34432 Off ch=2 n=60 v=0
34432 On ch=2 n=51 v=66
34553 Off ch=2 n=51 v=0
34688 On ch=2 n=75 v=73
34784 On ch=2 n=76 v=73
34785 Off ch=2 n=75 v=0
34814 Off ch=2 n=76 v=0
34816 On ch=2 n=77 v=85
34986 On ch=2 n=75 v=89
34989 Off ch=2 n=77 v=0
35029 Off ch=2 n=75 v=0
35029 On ch=2 n=73 v=93
35059 Off ch=2 n=73 v=0
35072 On ch=2 n=72 v=92
35103 Off ch=2 n=72 v=0
35114 On ch=2 n=70 v=90
35146 Off ch=2 n=70 v=0
35157 On ch=2 n=68 v=89
35187 Off ch=2 n=68 v=0
35200 On ch=2 n=67 v=87
35242 Off ch=2 n=67 v=0
35242 On ch=2 n=73 v=93
35285 Off ch=2 n=73 v=0
35285 On ch=2 n=67 v=76
35328 Off ch=2 n=67 v=0
35328 On ch=2 n=68 v=84
35449 Off ch=2 n=68 v=0
35578 On ch=2 n=75 v=80
35584 On ch=2 n=73 v=83
35584 Off ch=2 n=75 v=0
35623 Off ch=2 n=73 v=0
35626 On ch=2 n=72 v=82
35669 Off ch=2 n=72 v=0
35669 On ch=2 n=73 v=84
35712 Off ch=2 n=73 v=0
35712 On ch=2 n=77 v=86
35754 Off ch=2 n=77 v=0
35754 On ch=2 n=75 v=76
35797 Off ch=2 n=75 v=0
35797 On ch=2 n=73 v=76
35840 Off ch=2 n=73 v=0
35840 On ch=2 n=72 v=79
35961 Off ch=2 n=72 v=0
36091 On ch=2 n=60 v=74
36096 On ch=2 n=58 v=74
36096 Off ch=2 n=60 v=0
36135 Off ch=2 n=58 v=0
36138 On ch=2 n=57 v=75
36181 Off ch=2 n=57 v=0
36181 On ch=2 n=58 v=77
36224 Off ch=2 n=58 v=0
36224 On ch=2 n=61 v=75
36266 Off ch=2 n=61 v=0
36266 On ch=2 n=60 v=71
36309 Off ch=2 n=60 v=0
36309 On ch=2 n=58 v=71
36352 Off ch=2 n=58 v=0
36352 On ch=2 n=56 v=69
36473 Off ch=2 n=56 v=0
36608 On ch=2 n=55 v=53
36864 On ch=2 n=56 v=54
36869 Off ch=2 n=55 v=0
36924 Off ch=2 n=56 v=0
36992 On ch=2 n=56 v=43
37056 Off ch=2 n=56 v=0
37120 On ch=2 n=56 v=39
37376 Off ch=2 n=56 v=0
0 PrCh ch=1 p=0
0 Par ch=1 c=121 v=0
0 Par ch=1 c=64 v=0
0 Par ch=1 c=91 v=32
0 Par ch=1 c=10 v=63
0 Par ch=1 c=7 v=74
0 On ch=1 n=56 v=52
0 Par ch=1 c=121 v=0
0 Par ch=1 c=64 v=0
0 Par ch=1 c=91 v=32
0 Par ch=1 c=10 v=63
0 Par ch=1 c=7 v=74
0 Meta TrkName "Piano"
0 On ch=1 n=44 v=51
64 Off ch=1 n=56 v=0
64 On ch=1 n=51 v=54
128 Off ch=1 n=51 v=0
128 On ch=1 n=56 v=58
192 Off ch=1 n=56 v=0
192 On ch=1 n=51 v=52
256 Off ch=1 n=51 v=0
256 On ch=1 n=55 v=55
256 Off ch=1 n=44 v=0
256 On ch=1 n=49 v=55
320 Off ch=1 n=55 v=0
320 On ch=1 n=51 v=54
384 Off ch=1 n=51 v=0
384 On ch=1 n=55 v=53
448 Off ch=1 n=55 v=0
448 On ch=1 n=51 v=50
512 Off ch=1 n=51 v=0
512 On ch=1 n=56 v=53
512 Off ch=1 n=49 v=0
512 On ch=1 n=48 v=49
576 Off ch=1 n=56 v=0
576 On ch=1 n=51 v=49
640 Off ch=1 n=51 v=0
640 On ch=1 n=56 v=51
704 Off ch=1 n=56 v=0
704 On ch=1 n=51 v=48
768 Off ch=1 n=51 v=0
768 On ch=1 n=58 v=51
768 Off ch=1 n=48 v=0
768 On ch=1 n=43 v=48
832 Off ch=1 n=58 v=0
832 On ch=1 n=51 v=45
896 Off ch=1 n=51 v=0
896 On ch=1 n=58 v=48
960 Off ch=1 n=58 v=0
960 On ch=1 n=51 v=46
1024 Off ch=1 n=51 v=0
1024 On ch=1 n=56 v=48
1024 Off ch=1 n=43 v=0
1024 On ch=1 n=44 v=49
1088 Off ch=1 n=56 v=0
1088 On ch=1 n=51 v=44
1152 Off ch=1 n=51 v=0
1152 On ch=1 n=58 v=45
1152 Off ch=1 n=44 v=0
1152 On ch=1 n=43 v=42
1216 Off ch=1 n=58 v=0
1216 On ch=1 n=51 v=43
1280 Off ch=1 n=51 v=0
1280 On ch=1 n=60 v=49
1280 Off ch=1 n=43 v=0
1280 On ch=1 n=41 v=42
1344 Off ch=1 n=60 v=0
1344 On ch=1 n=56 v=46
1408 Off ch=1 n=56 v=0
1408 On ch=1 n=62 v=48
1408 Off ch=1 n=41 v=0
1408 On ch=1 n=53 v=48
1472 Off ch=1 n=62 v=0
1472 On ch=1 n=56 v=45
1536 Off ch=1 n=56 v=0
1536 On ch=1 n=55 v=44
1536 Off ch=1 n=53 v=0
1536 On ch=1 n=51 v=46
1600 Off ch=1 n=55 v=0
1600 On ch=1 n=58 v=49
1664 Off ch=1 n=58 v=0
1664 On ch=1 n=55 v=49
1728 Off ch=1 n=55 v=0
1728 On ch=1 n=58 v=51
1792 Off ch=1 n=58 v=0
1792 On ch=1 n=55 v=50
1792 Off ch=1 n=51 v=0
1792 On ch=1 n=39 v=48
1856 Off ch=1 n=55 v=0
1856 On ch=1 n=58 v=54
1920 Off ch=1 n=58 v=0
1920 On ch=1 n=55 v=52
1984 Off ch=1 n=55 v=0
1984 On ch=1 n=58 v=60
2048 Off ch=1 n=58 v=0
2048 On ch=1 n=55 v=56
2048 Off ch=1 n=39 v=0
2048 On ch=1 n=37 v=54
2112 Off ch=1 n=55 v=0
2112 On ch=1 n=58 v=54
2176 Off ch=1 n=58 v=0
2176 On ch=1 n=55 v=51
2240 Off ch=1 n=55 v=0
2240 On ch=1 n=58 v=50
2304 Off ch=1 n=58 v=0
2304 On ch=1 n=55 v=48
2304 Off ch=1 n=37 v=0
2304 On ch=1 n=49 v=50
2368 Off ch=1 n=55 v=0
2368 On ch=1 n=51 v=45
2432 Off ch=1 n=51 v=0
2432 On ch=1 n=55 v=46
2496 Off ch=1 n=55 v=0
2496 On ch=1 n=51 v=43
2560 Off ch=1 n=51 v=0
2560 On ch=1 n=56 v=41
2560 Off ch=1 n=49 v=0
2560 On ch=1 n=48 v=43
2624 Off ch=1 n=56 v=0
2624 On ch=1 n=51 v=41
2688 Off ch=1 n=51 v=0
2688 On ch=1 n=56 v=46
2752 Off ch=1 n=56 v=0
2752 On ch=1 n=51 v=44
2816 Off ch=1 n=51 v=0
2816 On ch=1 n=51 v=45
2816 Off ch=1 n=48 v=0
2816 On ch=1 n=41 v=41
2880 Off ch=1 n=51 v=0
2880 On ch=1 n=48 v=43
2944 Off ch=1 n=48 v=0
2944 On ch=1 n=51 v=46
3008 Off ch=1 n=51 v=0
3008 On ch=1 n=48 v=43
3072 Off ch=1 n=48 v=0
3072 On ch=1 n=53 v=42
3072 Off ch=1 n=41 v=0
3072 On ch=1 n=34 v=42
3136 Off ch=1 n=53 v=0
3136 On ch=1 n=49 v=42
3200 Off ch=1 n=49 v=0
3200 On ch=1 n=53 v=43
3264 Off ch=1 n=53 v=0
3264 On ch=1 n=49 v=41
3328 Off ch=1 n=49 v=0
3328 On ch=1 n=49 v=45
3328 Off ch=1 n=34 v=0
3328 On ch=1 n=39 v=43
3392 Off ch=1 n=49 v=0
3392 On ch=1 n=49 v=44
3456 Off ch=1 n=49 v=0
3456 On ch=1 n=49 v=43
3520 Off ch=1 n=49 v=0
3520 On ch=1 n=49 v=44
3584 Off ch=1 n=49 v=0
3584 On ch=1 n=55 v=44
3584 On ch=1 n=49 v=67
3584 Off ch=1 n=39 v=0
3584 On ch=1 n=32 v=41
3648 Off ch=1 n=49 v=0
3648 On ch=1 n=51 v=77
3681 Off ch=1 n=32 v=0
3712 Off ch=1 n=51 v=0
3712 On ch=1 n=49 v=76
3712 On ch=1 n=44 v=47
3776 Off ch=1 n=49 v=0
3776 On ch=1 n=51 v=77
3809 Off ch=1 n=44 v=0
3840 Off ch=1 n=55 v=0
3840 Off ch=1 n=51 v=0
3840 On ch=1 n=56 v=43
3840 On ch=1 n=48 v=74
3840 On ch=1 n=32 v=43
3882 Off ch=1 n=48 v=0
3882 On ch=1 n=51 v=76
3925 Off ch=1 n=51 v=0
3925 On ch=1 n=56 v=78
3931 Off ch=1 n=32 v=0
3968 Off ch=1 n=56 v=0
3968 Off ch=1 n=56 v=0
3968 On ch=1 n=60 v=81
4010 Off ch=1 n=60 v=0
4010 On ch=1 n=63 v=76
4053 Off ch=1 n=63 v=0
4053 On ch=1 n=68 v=81
4096 Off ch=1 n=68 v=0
4096 On ch=1 n=60 v=38
4096 On ch=1 n=56 v=39
4096 On ch=1 n=44 v=38
4160 Off ch=1 n=60 v=0
4160 On ch=1 n=63 v=46
4160 Off ch=1 n=56 v=0
4160 On ch=1 n=51 v=40
4224 Off ch=1 n=63 v=0
4224 On ch=1 n=60 v=36
4224 Off ch=1 n=51 v=0
4224 On ch=1 n=56 v=43
4288 Off ch=1 n=60 v=0
4288 On ch=1 n=63 v=44
4288 Off ch=1 n=56 v=0
4288 On ch=1 n=51 v=40
4352 Off ch=1 n=63 v=0
4352 On ch=1 n=58 v=37
4352 Off ch=1 n=44 v=0
4352 Off ch=1 n=51 v=0
4352 On ch=1 n=55 v=39
4352 On ch=1 n=49 v=45
4416 Off ch=1 n=58 v=0
4416 On ch=1 n=63 v=40
4416 Off ch=1 n=55 v=0
4416 On ch=1 n=51 v=36
4480 Off ch=1 n=63 v=0
4480 On ch=1 n=58 v=36
4480 Off ch=1 n=51 v=0
4480 On ch=1 n=55 v=37
4544 Off ch=1 n=58 v=0
4544 On ch=1 n=63 v=39
4544 Off ch=1 n=55 v=0
4544 On ch=1 n=51 v=33
4608 Off ch=1 n=63 v=0
4608 On ch=1 n=63 v=35
4608 Off ch=1 n=49 v=0
4608 Off ch=1 n=51 v=0
4608 On ch=1 n=56 v=35
4608 On ch=1 n=48 v=41
4672 Off ch=1 n=63 v=0
4672 On ch=1 n=68 v=36
4672 Off ch=1 n=56 v=0
4672 On ch=1 n=51 v=33
4736 Off ch=1 n=68 v=0
4736 On ch=1 n=63 v=32
4736 Off ch=1 n=51 v=0
4736 On ch=1 n=56 v=35
4800 Off ch=1 n=63 v=0
4800 On ch=1 n=68 v=33
4800 Off ch=1 n=56 v=0
4800 On ch=1 n=51 v=30
4864 Off ch=1 n=68 v=0
4864 On ch=1 n=63 v=30
4864 Off ch=1 n=48 v=0
4864 Off ch=1 n=51 v=0
4864 On ch=1 n=55 v=30
4864 On ch=1 n=43 v=42
4928 Off ch=1 n=63 v=0
4928 On ch=1 n=70 v=32
4928 Off ch=1 n=55 v=0
4928 On ch=1 n=51 v=31
4992 Off ch=1 n=70 v=0
4992 On ch=1 n=63 v=27
4992 Off ch=1 n=51 v=0
4992 On ch=1 n=55 v=28
5056 Off ch=1 n=63 v=0
5056 On ch=1 n=70 v=32
5056 Off ch=1 n=55 v=0
5056 On ch=1 n=51 v=27
5120 Off ch=1 n=70 v=0
5120 On ch=1 n=63 v=23
5120 Off ch=1 n=43 v=0
5120 Off ch=1 n=51 v=0
5120 On ch=1 n=56 v=28
5120 On ch=1 n=44 v=43
5184 Off ch=1 n=63 v=0
5184 On ch=1 n=68 v=27
5184 Off ch=1 n=56 v=0
5184 On ch=1 n=51 v=24
5248 Off ch=1 n=68 v=0
5248 On ch=1 n=63 v=24
5248 Off ch=1 n=44 v=0
5248 Off ch=1 n=51 v=0
5248 On ch=1 n=56 v=28
5248 On ch=1 n=43 v=43
5312 Off ch=1 n=63 v=0
5312 On ch=1 n=70 v=27
5312 Off ch=1 n=56 v=0
5312 On ch=1 n=51 v=24
5376 Off ch=1 n=70 v=0
5376 On ch=1 n=68 v=23
5376 Off ch=1 n=43 v=0
5376 Off ch=1 n=51 v=0
5376 On ch=1 n=53 v=27
5376 On ch=1 n=41 v=42
5440 Off ch=1 n=68 v=0
5440 On ch=1 n=72 v=27
5440 Off ch=1 n=53 v=0
5440 On ch=1 n=44 v=26
5504 Off ch=1 n=72 v=0
5504 On ch=1 n=68 v=27
5504 Off ch=1 n=41 v=0
5504 Off ch=1 n=44 v=0
5504 On ch=1 n=53 v=30
5504 On ch=1 n=41 v=44
5568 Off ch=1 n=68 v=0
5568 On ch=1 n=74 v=32
5568 Off ch=1 n=53 v=0
5568 On ch=1 n=44 v=30
5632 Off ch=1 n=74 v=0
5632 On ch=1 n=67 v=27
5632 Off ch=1 n=41 v=0
5632 Off ch=1 n=44 v=0
5632 On ch=1 n=39 v=31
5696 Off ch=1 n=67 v=0
5696 On ch=1 n=70 v=34
5696 On ch=1 n=43 v=33
5697 Off ch=1 n=39 v=0
5760 Off ch=1 n=70 v=0
5760 On ch=1 n=67 v=33
5760 On ch=1 n=46 v=36
5761 Off ch=1 n=43 v=0
5824 Off ch=1 n=67 v=0
5824 On ch=1 n=70 v=37
5824 On ch=1 n=51 v=39
5825 Off ch=1 n=46 v=0
5884 Off ch=1 n=51 v=0
5888 Off ch=1 n=70 v=0
5888 On ch=1 n=67 v=38
5888 On ch=1 n=55 v=38
5952 Off ch=1 n=67 v=0
5952 On ch=1 n=70 v=42
5952 Off ch=1 n=55 v=0
5952 On ch=1 n=58 v=40
6016 Off ch=1 n=70 v=0
6016 On ch=1 n=67 v=38
6016 Off ch=1 n=58 v=0
6016 On ch=1 n=55 v=41
6080 Off ch=1 n=67 v=0
6080 On ch=1 n=70 v=44
6080 Off ch=1 n=55 v=0
6080 On ch=1 n=58 v=45
6144 Off ch=1 n=70 v=0
6144 On ch=1 n=67 v=39
6144 Off ch=1 n=58 v=0
6144 On ch=1 n=37 v=38
6208 Off ch=1 n=67 v=0
6208 On ch=1 n=70 v=40
6208 Off ch=1 n=37 v=0
6208 On ch=1 n=43 v=38
6272 Off ch=1 n=70 v=0
6272 On ch=1 n=67 v=35
6272 Off ch=1 n=43 v=0
6272 On ch=1 n=46 v=39
6336 Off ch=1 n=67 v=0
6336 On ch=1 n=70 v=33
6336 Off ch=1 n=46 v=0
6336 On ch=1 n=49 v=34
6400 Off ch=1 n=70 v=0
6400 On ch=1 n=67 v=31
6400 Off ch=1 n=49 v=0
6400 On ch=1 n=55 v=33
6464 Off ch=1 n=67 v=0
6464 On ch=1 n=63 v=26
6464 Off ch=1 n=55 v=0
6464 On ch=1 n=58 v=29
6528 Off ch=1 n=63 v=0
6528 On ch=1 n=67 v=27
6528 Off ch=1 n=58 v=0
6528 On ch=1 n=55 v=25
6592 Off ch=1 n=67 v=0
6592 On ch=1 n=63 v=23
6592 Off ch=1 n=55 v=0
6592 On ch=1 n=49 v=23
6656 Off ch=1 n=63 v=0
6656 On ch=1 n=68 v=26
6656 Off ch=1 n=49 v=0
6656 On ch=1 n=48 v=24
6720 Off ch=1 n=68 v=0
6720 On ch=1 n=63 v=21
6720 On ch=1 n=51 v=24
6784 Off ch=1 n=63 v=0
6784 On ch=1 n=68 v=25
6784 Off ch=1 n=51 v=0
6784 On ch=1 n=48 v=26
6848 Off ch=1 n=68 v=0
6848 On ch=1 n=63 v=22
6848 Off ch=1 n=48 v=0
6848 On ch=1 n=51 v=25
6912 Off ch=1 n=63 v=0
6912 On ch=1 n=63 v=23
6912 Off ch=1 n=48 v=0
6912 Off ch=1 n=51 v=0
6912 On ch=1 n=48 v=22
6912 On ch=1 n=41 v=42
6976 Off ch=1 n=63 v=0
6976 On ch=1 n=60 v=22
6976 Off ch=1 n=48 v=0
6976 On ch=1 n=53 v=23
7040 Off ch=1 n=60 v=0
7040 On ch=1 n=63 v=24
7040 Off ch=1 n=53 v=0
7040 On ch=1 n=48 v=23
7104 Off ch=1 n=63 v=0
7104 On ch=1 n=60 v=20
7104 Off ch=1 n=48 v=0
7104 On ch=1 n=53 v=25
7168 Off ch=1 n=60 v=0
7168 On ch=1 n=65 v=26
7168 Off ch=1 n=41 v=0
7168 Off ch=1 n=53 v=0
7168 On ch=1 n=49 v=24
7168 On ch=1 n=46 v=44
7232 Off ch=1 n=65 v=0
7232 On ch=1 n=61 v=23
7232 Off ch=1 n=49 v=0
7232 On ch=1 n=53 v=25
7296 Off ch=1 n=61 v=0
7296 On ch=1 n=65 v=26
7296 Off ch=1 n=53 v=0
7296 On ch=1 n=49 v=23
7360 Off ch=1 n=65 v=0
7360 On ch=1 n=61 v=24
7360 Off ch=1 n=49 v=0
7360 On ch=1 n=53 v=24
7424 Off ch=1 n=61 v=0
7424 On ch=1 n=61 v=23
7424 Off ch=1 n=46 v=0
7424 Off ch=1 n=53 v=0
7424 On ch=1 n=46 v=23
7424 On ch=1 n=39 v=42
7472 Off ch=1 n=61 v=0
7488 On ch=1 n=61 v=24
7488 Off ch=1 n=46 v=0
7488 On ch=1 n=51 v=26
7536 Off ch=1 n=61 v=0
7552 On ch=1 n=61 v=22
7552 Off ch=1 n=51 v=0
7552 On ch=1 n=46 v=24
7600 Off ch=1 n=61 v=0
7616 On ch=1 n=61 v=23
7616 Off ch=1 n=46 v=0
7616 On ch=1 n=51 v=25
7664 Off ch=1 n=61 v=0
7680 On ch=1 n=61 v=23
7680 Off ch=1 n=39 v=0
7680 Off ch=1 n=51 v=0
7680 On ch=1 n=44 v=42
7744 Off ch=1 n=61 v=0
7744 On ch=1 n=63 v=26
7744 On ch=1 n=51 v=21
7808 Off ch=1 n=63 v=0
7808 On ch=1 n=61 v=22
7808 Off ch=1 n=51 v=0
7808 On ch=1 n=55 v=25
7872 Off ch=1 n=61 v=0
7872 On ch=1 n=63 v=72
7872 Off ch=1 n=55 v=0
7872 On ch=1 n=51 v=22
7936 Off ch=1 n=63 v=0
7936 On ch=1 n=60 v=68
7936 Off ch=1 n=51 v=0
7936 On ch=1 n=56 v=24
8064 Off ch=1 n=60 v=0
8064 Off ch=1 n=44 v=0
8064 Off ch=1 n=56 v=0
8256 Par ch=1 c=64 v=127
8256 On ch=1 n=60 v=50
8304 Off ch=1 n=60 v=0
8320 On ch=1 n=60 v=55
8368 Off ch=1 n=60 v=0
8384 On ch=1 n=60 v=55
8432 Off ch=1 n=60 v=0
8448 Par ch=1 c=64 v=0
8448 On ch=1 n=60 v=58
8496 Off ch=1 n=60 v=0
8512 On ch=1 n=60 v=55
8560 Off ch=1 n=60 v=0
8576 On ch=1 n=60 v=58
8624 Off ch=1 n=60 v=0
8640 On ch=1 n=60 v=57
8688 Off ch=1 n=60 v=0
8704 On ch=1 n=60 v=56
8704 Par ch=1 c=64 v=127
8704 On ch=1 n=52 v=52
8704 On ch=1 n=55 v=52
8752 Off ch=1 n=60 v=0
8752 Off ch=1 n=52 v=0
8752 Off ch=1 n=55 v=0
8768 On ch=1 n=60 v=45
8768 On ch=1 n=52 v=42
8768 On ch=1 n=55 v=42
8816 Off ch=1 n=60 v=0
8816 Off ch=1 n=52 v=0
8816 Off ch=1 n=55 v=0
8832 On ch=1 n=60 v=44
8832 Par ch=1 c=64 v=0
8832 On ch=1 n=52 v=42
8832 On ch=1 n=55 v=42
8880 Off ch=1 n=60 v=0
8880 Off ch=1 n=52 v=0
8880 Off ch=1 n=55 v=0
8896 On ch=1 n=60 v=45
8896 On ch=1 n=52 v=41
8896 On ch=1 n=55 v=41
8941 Off ch=1 n=52 v=0
8941 Off ch=1 n=55 v=0
8944 Off ch=1 n=60 v=0
8960 On ch=1 n=60 v=45
8960 On ch=1 n=53 v=46
8960 On ch=1 n=56 v=46
9008 Off ch=1 n=60 v=0
9008 Off ch=1 n=53 v=0
9008 Off ch=1 n=56 v=0
9024 On ch=1 n=60 v=42
9024 On ch=1 n=53 v=43
9024 On ch=1 n=56 v=43
9072 Off ch=1 n=60 v=0
9072 Off ch=1 n=53 v=0
9072 Off ch=1 n=56 v=0
9088 On ch=1 n=60 v=44
9088 On ch=1 n=53 v=44
9088 On ch=1 n=56 v=44
9136 Off ch=1 n=60 v=0
9136 Off ch=1 n=53 v=0
9136 Off ch=1 n=56 v=0
9152 On ch=1 n=60 v=45
9152 On ch=1 n=53 v=45
9152 On ch=1 n=56 v=45
9197 Off ch=1 n=53 v=0
9197 Off ch=1 n=56 v=0
9200 Off ch=1 n=60 v=0
9216 On ch=1 n=64 v=45
9216 Par ch=1 c=64 v=127
9216 On ch=1 n=55 v=44
9216 On ch=1 n=58 v=44
9264 Off ch=1 n=64 v=0
9264 Off ch=1 n=55 v=0
9264 Off ch=1 n=58 v=0
9280 On ch=1 n=64 v=42
9280 On ch=1 n=55 v=44
9280 On ch=1 n=58 v=44
9328 Off ch=1 n=64 v=0
9328 Off ch=1 n=55 v=0
9328 Off ch=1 n=58 v=0
9344 On ch=1 n=64 v=46
9344 Par ch=1 c=64 v=0
9344 On ch=1 n=55 v=41
9344 On ch=1 n=58 v=41
9392 Off ch=1 n=64 v=0
9392 Off ch=1 n=55 v=0
9392 Off ch=1 n=58 v=0
9408 On ch=1 n=64 v=44
9408 On ch=1 n=55 v=42
9408 On ch=1 n=58 v=42
9453 Off ch=1 n=55 v=0
9453 Off ch=1 n=58 v=0
9456 Off ch=1 n=64 v=0
9472 On ch=1 n=65 v=46
9472 Par ch=1 c=64 v=127
9472 On ch=1 n=56 v=45
9472 On ch=1 n=60 v=45
9520 Off ch=1 n=65 v=0
9520 Off ch=1 n=56 v=0
9520 Off ch=1 n=60 v=0
9536 On ch=1 n=65 v=46
9536 On ch=1 n=56 v=43
9536 On ch=1 n=60 v=43
9584 Off ch=1 n=65 v=0
9584 Off ch=1 n=56 v=0
9584 Off ch=1 n=60 v=0
9600 On ch=1 n=65 v=45
9600 Par ch=1 c=64 v=0
9600 On ch=1 n=56 v=44
9600 On ch=1 n=60 v=44
9648 Off ch=1 n=65 v=0
9648 Off ch=1 n=56 v=0
9648 Off ch=1 n=60 v=0
9664 On ch=1 n=65 v=42
9664 On ch=1 n=56 v=42
9664 On ch=1 n=60 v=42
9709 Off ch=1 n=56 v=0
9709 Off ch=1 n=60 v=0
9712 Off ch=1 n=65 v=0
9728 On ch=1 n=65 v=45
9728 On ch=1 n=68 v=45
9728 Par ch=1 c=64 v=127
9728 On ch=1 n=58 v=43
9776 Off ch=1 n=65 v=0
9776 Off ch=1 n=68 v=0
9776 Off ch=1 n=58 v=0
9792 On ch=1 n=65 v=44
9792 On ch=1 n=68 v=44
9792 On ch=1 n=58 v=43
9840 Off ch=1 n=65 v=0
9840 Off ch=1 n=68 v=0
9840 Off ch=1 n=58 v=0
9856 On ch=1 n=65 v=42
9856 On ch=1 n=68 v=42
9856 Par ch=1 c=64 v=0
9856 On ch=1 n=58 v=41
9904 Off ch=1 n=65 v=0
9904 Off ch=1 n=68 v=0
9904 Off ch=1 n=58 v=0
9920 On ch=1 n=65 v=41
9920 On ch=1 n=68 v=41
9920 On ch=1 n=58 v=44
9965 Off ch=1 n=58 v=0
9968 Off ch=1 n=65 v=0
9968 Off ch=1 n=68 v=0
9984 On ch=1 n=65 v=45
9984 On ch=1 n=68 v=45
9984 On ch=1 n=59 v=43
10032 Off ch=1 n=65 v=0
10032 Off ch=1 n=68 v=0
10032 Off ch=1 n=59 v=0
10048 On ch=1 n=65 v=44
10048 On ch=1 n=68 v=44
10048 Par ch=1 c=64 v=127
10048 On ch=1 n=59 v=43
10096 Off ch=1 n=65 v=0
10096 Off ch=1 n=68 v=0
10096 Off ch=1 n=59 v=0
10112 On ch=1 n=68 v=42
10112 On ch=1 n=59 v=46
10112 On ch=1 n=62 v=46
10160 Off ch=1 n=68 v=0
10160 Off ch=1 n=59 v=0
10160 Off ch=1 n=62 v=0
10176 On ch=1 n=68 v=43
10176 Par ch=1 c=64 v=0
10176 On ch=1 n=59 v=44
10176 On ch=1 n=62 v=44
10221 Off ch=1 n=59 v=0
10221 Off ch=1 n=62 v=0
10224 Off ch=1 n=68 v=0
10240 On ch=1 n=67 v=41
10240 Par ch=1 c=64 v=127
10240 On ch=1 n=60 v=42
10240 On ch=1 n=63 v=42
10288 Off ch=1 n=67 v=0
10288 Off ch=1 n=60 v=0
10288 Off ch=1 n=63 v=0
10304 On ch=1 n=67 v=41
10304 On ch=1 n=60 v=44
10304 On ch=1 n=63 v=44
10352 Off ch=1 n=67 v=0
10352 Off ch=1 n=60 v=0
10352 Off ch=1 n=63 v=0
10368 On ch=1 n=67 v=44
10368 Par ch=1 c=64 v=0
10368 On ch=1 n=60 v=42
10368 On ch=1 n=63 v=42
10416 Off ch=1 n=67 v=0
10416 Off ch=1 n=60 v=0
10416 Off ch=1 n=63 v=0
10432 On ch=1 n=67 v=42
10432 On ch=1 n=60 v=43
10432 On ch=1 n=63 v=43
10477 Off ch=1 n=60 v=0
10477 Off ch=1 n=63 v=0
10480 Off ch=1 n=67 v=0
10496 On ch=1 n=63 v=42
10496 On ch=1 n=56 v=40
10544 Off ch=1 n=63 v=0
10544 Off ch=1 n=56 v=0
10560 On ch=1 n=63 v=44
10560 Par ch=1 c=64 v=127
10560 On ch=1 n=56 v=42
10608 Off ch=1 n=63 v=0
10608 Off ch=1 n=56 v=0
10624 On ch=1 n=63 v=43
10624 On ch=1 n=56 v=46
10672 Off ch=1 n=63 v=0
10672 Off ch=1 n=56 v=0
10688 On ch=1 n=63 v=43
10688 Par ch=1 c=64 v=0
10688 On ch=1 n=56 v=43
10733 Off ch=1 n=56 v=0
10736 Off ch=1 n=63 v=0
10816 On ch=1 n=63 v=38
10816 On ch=1 n=67 v=38
10816 Par ch=1 c=64 v=127
10816 On ch=1 n=58 v=40
10864 Off ch=1 n=63 v=0
10864 Off ch=1 n=67 v=0
10864 Off ch=1 n=58 v=0
10880 On ch=1 n=63 v=42
10880 On ch=1 n=67 v=42
10880 On ch=1 n=58 v=41
10928 Off ch=1 n=63 v=0
10928 Off ch=1 n=67 v=0
10928 Off ch=1 n=58 v=0
10944 On ch=1 n=63 v=42
10944 On ch=1 n=67 v=42
10944 Par ch=1 c=64 v=0
10944 On ch=1 n=58 v=44
10989 Off ch=1 n=58 v=0
10992 Off ch=1 n=63 v=0
10992 Off ch=1 n=67 v=0
11072 On ch=1 n=56 v=37
11072 Par ch=1 c=64 v=127
11072 On ch=1 n=46 v=39
11072 On ch=1 n=50 v=39
11120 Off ch=1 n=56 v=0
11120 Off ch=1 n=46 v=0
11120 Off ch=1 n=50 v=0
11136 On ch=1 n=56 v=41
11136 On ch=1 n=46 v=44
11136 On ch=1 n=50 v=44
11184 Off ch=1 n=56 v=0
11184 Off ch=1 n=46 v=0
11184 Off ch=1 n=50 v=0
11200 On ch=1 n=56 v=42
11200 Par ch=1 c=64 v=0
11200 On ch=1 n=46 v=44
11200 On ch=1 n=50 v=44
11245 Off ch=1 n=46 v=0
11245 Off ch=1 n=50 v=0
11248 Off ch=1 n=56 v=0
11264 On ch=1 n=63 v=46
11264 On ch=1 n=51 v=44
11264 On ch=1 n=55 v=44
11392 Off ch=1 n=63 v=0
11392 Off ch=1 n=51 v=0
11392 Off ch=1 n=55 v=0
11456 On ch=1 n=58 v=45
11520 On ch=1 n=55 v=45
11521 Off ch=1 n=58 v=0
11584 On ch=1 n=58 v=51
11585 Off ch=1 n=55 v=0
11648 On ch=1 n=55 v=51
11649 Off ch=1 n=58 v=0
11712 On ch=1 n=51 v=48
11713 Off ch=1 n=55 v=0
11772 Off ch=1 n=51 v=0
11776 On ch=1 n=53 v=59
11776 On ch=1 n=51 v=70
11776 On ch=1 n=34 v=50
11840 On ch=1 n=50 v=70
11842 Off ch=1 n=51 v=0
11897 Off ch=1 n=53 v=0
11900 Off ch=1 n=50 v=0
11904 On ch=1 n=53 v=49
11904 On ch=1 n=50 v=76
11968 On ch=1 n=48 v=74
11970 Off ch=1 n=50 v=0
12025 Off ch=1 n=53 v=0
12028 Off ch=1 n=48 v=0
12032 On ch=1 n=53 v=48
12032 On ch=1 n=48 v=77
12096 On ch=1 n=47 v=76
12098 Off ch=1 n=48 v=0
12153 Off ch=1 n=53 v=0
12156 Off ch=1 n=47 v=0
12160 On ch=1 n=53 v=48
12160 On ch=1 n=47 v=78
12221 Off ch=1 n=47 v=0
12224 On ch=1 n=46 v=75
12274 Off ch=1 n=53 v=0
12284 Off ch=1 n=46 v=0
12288 On ch=1 n=46 v=55
12288 On ch=1 n=51 v=55
12288 On ch=1 n=39 v=59
12298 Off ch=1 n=34 v=0
12409 Off ch=1 n=39 v=0
12416 Off ch=1 n=46 v=0
12416 Off ch=1 n=51 v=0
12480 On ch=1 n=46 v=52
12544 On ch=1 n=43 v=51
12545 Off ch=1 n=46 v=0
12608 On ch=1 n=46 v=59
12609 Off ch=1 n=43 v=0
12672 On ch=1 n=43 v=59
12673 Off ch=1 n=46 v=0
12736 On ch=1 n=39 v=55
12737 Off ch=1 n=43 v=0
12796 Off ch=1 n=39 v=0
12800 On ch=1 n=53 v=56
12800 On ch=1 n=56 v=56
12800 On ch=1 n=34 v=57
13056 Off ch=1 n=53 v=0
13056 Off ch=1 n=56 v=0
13056 On ch=1 n=53 v=43
13056 On ch=1 n=56 v=43
13056 On ch=1 n=46 v=46
13061 Off ch=1 n=34 v=0
13299 Off ch=1 n=46 v=0
13312 Off ch=1 n=53 v=0
13312 Off ch=1 n=56 v=0
13312 On ch=1 n=55 v=55
13312 On ch=1 n=53 v=78
13312 On ch=1 n=39 v=54
13376 On ch=1 n=52 v=76
13377 Off ch=1 n=53 v=0
13436 Off ch=1 n=52 v=0
13440 On ch=1 n=52 v=76
13504 On ch=1 n=51 v=75
13505 Off ch=1 n=52 v=0
13564 Off ch=1 n=51 v=0
13568 On ch=1 n=51 v=73
13632 On ch=1 n=50 v=69
13633 Off ch=1 n=51 v=0
13692 Off ch=1 n=50 v=0
13696 On ch=1 n=50 v=76
13760 On ch=1 n=51 v=75
13761 Off ch=1 n=50 v=0
13820 Off ch=1 n=51 v=0
13824 On ch=1 n=51 v=75
13888 On ch=1 n=52 v=76
13889 Off ch=1 n=51 v=0
13948 Off ch=1 n=52 v=0
13952 On ch=1 n=52 v=76
14016 On ch=1 n=51 v=76
14017 Off ch=1 n=52 v=0
14076 Off ch=1 n=51 v=0
14080 On ch=1 n=51 v=78
14144 On ch=1 n=50 v=77
14145 Off ch=1 n=51 v=0
14204 Off ch=1 n=50 v=0
14208 On ch=1 n=50 v=77
14272 On ch=1 n=49 v=74
14273 Off ch=1 n=50 v=0
14284 Off ch=1 n=55 v=0
14332 Off ch=1 n=49 v=0
14336 On ch=1 n=48 v=59
14336 On ch=1 n=56 v=59
14336 Off ch=1 n=39 v=0
14336 On ch=1 n=32 v=57
14336 On ch=1 n=44 v=57
14400 Off ch=1 n=48 v=0
14400 Off ch=1 n=56 v=0
14400 On ch=1 n=51 v=56
14464 Off ch=1 n=51 v=0
14464 On ch=1 n=56 v=59
14528 Off ch=1 n=56 v=0
14528 On ch=1 n=51 v=51
14592 Off ch=1 n=51 v=0
14592 On ch=1 n=55 v=57
14592 Off ch=1 n=32 v=0
14592 Off ch=1 n=44 v=0
14592 On ch=1 n=49 v=55
14656 Off ch=1 n=55 v=0
14656 On ch=1 n=51 v=52
14720 Off ch=1 n=51 v=0
14720 On ch=1 n=55 v=55
14784 Off ch=1 n=55 v=0
14784 On ch=1 n=51 v=50
14848 Off ch=1 n=51 v=0
14848 On ch=1 n=56 v=53
14848 Off ch=1 n=49 v=0
14848 On ch=1 n=48 v=50
14912 Off ch=1 n=56 v=0
14912 On ch=1 n=51 v=49
14976 Off ch=1 n=51 v=0
14976 On ch=1 n=56 v=51
15040 Off ch=1 n=56 v=0
15040 On ch=1 n=51 v=47
15104 Off ch=1 n=51 v=0
15104 On ch=1 n=58 v=53
15104 Off ch=1 n=48 v=0
15104 On ch=1 n=43 v=49
15168 Off ch=1 n=58 v=0
15168 On ch=1 n=51 v=47
15232 Off ch=1 n=51 v=0
15232 On ch=1 n=58 v=49
15296 Off ch=1 n=58 v=0
15296 On ch=1 n=51 v=45
15360 Off ch=1 n=51 v=0
15360 On ch=1 n=56 v=46
15360 Off ch=1 n=43 v=0
15360 On ch=1 n=44 v=47
15424 Off ch=1 n=56 v=0
15424 On ch=1 n=51 v=45
15488 Off ch=1 n=51 v=0
15488 On ch=1 n=58 v=45
15488 Off ch=1 n=44 v=0
15488 On ch=1 n=43 v=42
15552 Off ch=1 n=58 v=0
15552 On ch=1 n=51 v=41
15616 Off ch=1 n=51 v=0
15616 On ch=1 n=60 v=49
15616 Off ch=1 n=43 v=0
15616 On ch=1 n=41 v=46
15680 Off ch=1 n=60 v=0
15680 On ch=1 n=56 v=45
15744 Off ch=1 n=56 v=0
15744 On ch=1 n=62 v=49
15744 Off ch=1 n=41 v=0
15744 On ch=1 n=53 v=49
15808 Off ch=1 n=62 v=0
15808 On ch=1 n=56 v=47
15872 Off ch=1 n=56 v=0
15872 On ch=1 n=55 v=47
15872 Off ch=1 n=53 v=0
15872 On ch=1 n=51 v=46
15936 Off ch=1 n=55 v=0
15936 On ch=1 n=58 v=50
16000 Off ch=1 n=58 v=0
16000 On ch=1 n=55 v=50
16064 Off ch=1 n=55 v=0
16064 On ch=1 n=58 v=52
16128 Off ch=1 n=58 v=0
16128 On ch=1 n=55 v=52
16128 Off ch=1 n=51 v=0
16128 On ch=1 n=39 v=50
16192 Off ch=1 n=55 v=0
16192 On ch=1 n=58 v=55
16256 Off ch=1 n=58 v=0
16256 On ch=1 n=55 v=52
16320 Off ch=1 n=55 v=0
16320 On ch=1 n=58 v=58
16384 Off ch=1 n=58 v=0
16384 On ch=1 n=55 v=54
16384 Off ch=1 n=39 v=0
16384 On ch=1 n=37 v=56
16448 Off ch=1 n=55 v=0
16448 On ch=1 n=58 v=55
16512 Off ch=1 n=58 v=0
16512 On ch=1 n=55 v=49
16576 Off ch=1 n=55 v=0
16576 On ch=1 n=58 v=50
16640 Off ch=1 n=58 v=0
16640 On ch=1 n=55 v=47
16640 Off ch=1 n=37 v=0
16640 On ch=1 n=49 v=50
16704 Off ch=1 n=55 v=0
16704 On ch=1 n=51 v=45
16768 Off ch=1 n=51 v=0
16768 On ch=1 n=55 v=47
16832 Off ch=1 n=55 v=0
16832 On ch=1 n=51 v=41
16896 Off ch=1 n=51 v=0
16896 On ch=1 n=56 v=47
16896 Off ch=1 n=49 v=0
16896 On ch=1 n=48 v=42
16960 Off ch=1 n=56 v=0
16960 On ch=1 n=51 v=40
17024 Off ch=1 n=51 v=0
17024 On ch=1 n=56 v=46
17088 Off ch=1 n=56 v=0
17088 On ch=1 n=51 v=42
17152 Off ch=1 n=51 v=0
17152 On ch=1 n=51 v=45
17152 Off ch=1 n=48 v=0
17152 On ch=1 n=41 v=43
17216 Off ch=1 n=51 v=0
17216 On ch=1 n=48 v=42
17280 Off ch=1 n=48 v=0
17280 On ch=1 n=51 v=43
17344 Off ch=1 n=51 v=0
17344 On ch=1 n=48 v=40
17408 Off ch=1 n=48 v=0
17408 On ch=1 n=53 v=46
17408 Off ch=1 n=41 v=0
17408 On ch=1 n=34 v=43
17472 Off ch=1 n=53 v=0
17472 On ch=1 n=49 v=42
17536 Off ch=1 n=49 v=0
17536 On ch=1 n=53 v=46
17600 Off ch=1 n=53 v=0
17600 On ch=1 n=49 v=41
17664 Off ch=1 n=49 v=0
17664 On ch=1 n=49 v=41
17664 Off ch=1 n=34 v=0
17664 On ch=1 n=39 v=44
17728 Off ch=1 n=49 v=0
17728 On ch=1 n=49 v=43
17792 Off ch=1 n=49 v=0
17792 On ch=1 n=49 v=44
17856 Off ch=1 n=49 v=0
17856 On ch=1 n=49 v=42
17920 Off ch=1 n=49 v=0
17920 On ch=1 n=49 v=43
17920 Off ch=1 n=39 v=0
17920 On ch=1 n=32 v=42
17984 Off ch=1 n=49 v=0
17984 On ch=1 n=51 v=44
18017 Off ch=1 n=32 v=0
18048 Off ch=1 n=51 v=0
18048 On ch=1 n=49 v=43
18048 On ch=1 n=44 v=46
18112 Off ch=1 n=49 v=0
18112 On ch=1 n=51 v=46
18145 Off ch=1 n=44 v=0
18176 Off ch=1 n=51 v=0
18176 On ch=1 n=48 v=43
18176 On ch=1 n=32 v=39
18267 Off ch=1 n=32 v=0
18304 Off ch=1 n=48 v=0
18432 On ch=1 n=59 v=21
18432 On ch=1 n=63 v=21
18432 On ch=1 n=44 v=38
18432 On ch=1 n=56 v=38
18474 Off ch=1 n=59 v=0
18474 Off ch=1 n=63 v=0
18474 On ch=1 n=59 v=23
18474 On ch=1 n=63 v=23
18517 Off ch=1 n=59 v=0
18517 Off ch=1 n=63 v=0
18517 On ch=1 n=59 v=24
18517 On ch=1 n=63 v=24
18560 Off ch=1 n=59 v=0
18560 Off ch=1 n=63 v=0
18560 On ch=1 n=59 v=24
18560 On ch=1 n=63 v=24
18602 Off ch=1 n=59 v=0
18602 Off ch=1 n=63 v=0
18602 On ch=1 n=59 v=25
18602 On ch=1 n=63 v=25
18645 Off ch=1 n=59 v=0
18645 Off ch=1 n=63 v=0
18645 On ch=1 n=59 v=25
18645 On ch=1 n=63 v=25
18688 Off ch=1 n=59 v=0
18688 Off ch=1 n=63 v=0
18688 On ch=1 n=59 v=25
18688 On ch=1 n=63 v=25
18688 Off ch=1 n=44 v=0
18688 Off ch=1 n=56 v=0
18730 Off ch=1 n=59 v=0
18730 Off ch=1 n=63 v=0
18730 On ch=1 n=59 v=25
18730 On ch=1 n=63 v=25
18773 Off ch=1 n=59 v=0
18773 Off ch=1 n=63 v=0
18773 On ch=1 n=59 v=22
18773 On ch=1 n=63 v=22
18816 Off ch=1 n=59 v=0
18816 Off ch=1 n=63 v=0
18816 On ch=1 n=59 v=26
18816 On ch=1 n=63 v=26
18858 Off ch=1 n=59 v=0
18858 Off ch=1 n=63 v=0
18858 On ch=1 n=59 v=26
18858 On ch=1 n=63 v=26
18901 Off ch=1 n=59 v=0
18901 Off ch=1 n=63 v=0
18901 On ch=1 n=59 v=25
18901 On ch=1 n=63 v=25
18944 Off ch=1 n=59 v=0
18944 Off ch=1 n=63 v=0
18944 On ch=1 n=61 v=23
18944 On ch=1 n=63 v=23
18944 On ch=1 n=58 v=39
18986 Off ch=1 n=61 v=0
18986 Off ch=1 n=63 v=0
18986 On ch=1 n=61 v=24
18986 On ch=1 n=63 v=24
19029 Off ch=1 n=61 v=0
19029 Off ch=1 n=63 v=0
19029 On ch=1 n=61 v=26
19029 On ch=1 n=63 v=26
19072 Off ch=1 n=61 v=0
19072 Off ch=1 n=63 v=0
19072 On ch=1 n=61 v=24
19072 On ch=1 n=63 v=24
19114 Off ch=1 n=61 v=0
19114 Off ch=1 n=63 v=0
19114 On ch=1 n=61 v=22
19114 On ch=1 n=63 v=22
19114 Off ch=1 n=58 v=0
19114 On ch=1 n=58 v=52
19157 Off ch=1 n=61 v=0
19157 Off ch=1 n=63 v=0
19157 On ch=1 n=61 v=23
19157 On ch=1 n=63 v=23
19157 Off ch=1 n=58 v=0
19157 On ch=1 n=57 v=55
19200 Off ch=1 n=61 v=0
19200 Off ch=1 n=63 v=0
19200 On ch=1 n=61 v=21
19200 On ch=1 n=63 v=21
19200 Off ch=1 n=57 v=0
19200 On ch=1 n=58 v=58
19239 Off ch=1 n=58 v=0
19242 Off ch=1 n=61 v=0
19242 Off ch=1 n=63 v=0
19242 On ch=1 n=61 v=25
19242 On ch=1 n=63 v=25
19242 On ch=1 n=58 v=55
19274 Off ch=1 n=58 v=0
19285 Off ch=1 n=61 v=0
19285 Off ch=1 n=63 v=0
19285 On ch=1 n=61 v=22
19285 On ch=1 n=63 v=22
19285 On ch=1 n=56 v=52
19317 Off ch=1 n=56 v=0
19328 Off ch=1 n=61 v=0
19328 Off ch=1 n=63 v=0
19328 On ch=1 n=61 v=24
19328 On ch=1 n=63 v=24
19328 On ch=1 n=55 v=51
19359 Off ch=1 n=55 v=0
19370 Off ch=1 n=61 v=0
19370 Off ch=1 n=63 v=0
19370 On ch=1 n=61 v=25
19370 On ch=1 n=63 v=25
19370 On ch=1 n=53 v=48
19402 Off ch=1 n=53 v=0
19413 Off ch=1 n=61 v=0
19413 Off ch=1 n=63 v=0
19413 On ch=1 n=61 v=25
19413 On ch=1 n=63 v=25
19413 On ch=1 n=51 v=44
19443 Off ch=1 n=51 v=0
19456 Off ch=1 n=61 v=0
19456 Off ch=1 n=63 v=0
19456 On ch=1 n=59 v=23
19456 On ch=1 n=63 v=23
19456 On ch=1 n=56 v=46
19498 Off ch=1 n=59 v=0
19498 Off ch=1 n=63 v=0
19498 On ch=1 n=59 v=23
19498 On ch=1 n=63 v=23
19541 Off ch=1 n=59 v=0
19541 Off ch=1 n=63 v=0
19541 On ch=1 n=59 v=23
19541 On ch=1 n=63 v=23
19584 Off ch=1 n=59 v=0
19584 Off ch=1 n=63 v=0
19584 On ch=1 n=59 v=26
19584 On ch=1 n=63 v=26
19584 Off ch=1 n=56 v=0
19626 Off ch=1 n=59 v=0
19626 Off ch=1 n=63 v=0
19626 On ch=1 n=59 v=24
19626 On ch=1 n=63 v=24
19669 Off ch=1 n=59 v=0
19669 Off ch=1 n=63 v=0
19669 On ch=1 n=59 v=23
19669 On ch=1 n=63 v=23
19712 Off ch=1 n=59 v=0
19712 Off ch=1 n=63 v=0
19712 On ch=1 n=59 v=25
19712 On ch=1 n=63 v=25
19754 Off ch=1 n=59 v=0
19754 Off ch=1 n=63 v=0
19754 On ch=1 n=59 v=24
19754 On ch=1 n=63 v=24
19797 Off ch=1 n=59 v=0
19797 Off ch=1 n=63 v=0
19797 On ch=1 n=59 v=26
19797 On ch=1 n=63 v=26
19840 Off ch=1 n=59 v=0
19840 Off ch=1 n=63 v=0
19840 On ch=1 n=59 v=25
19840 On ch=1 n=63 v=25
19882 Off ch=1 n=59 v=0
19882 Off ch=1 n=63 v=0
19882 On ch=1 n=59 v=27
19882 On ch=1 n=63 v=27
19925 Off ch=1 n=59 v=0
19925 Off ch=1 n=63 v=0
19925 On ch=1 n=59 v=23
19925 On ch=1 n=63 v=23
19968 Off ch=1 n=59 v=0
19968 Off ch=1 n=63 v=0
19968 On ch=1 n=58 v=27
19968 On ch=1 n=63 v=27
19968 On ch=1 n=51 v=41
20010 Off ch=1 n=58 v=0
20010 Off ch=1 n=63 v=0
20010 On ch=1 n=58 v=25
20010 On ch=1 n=63 v=25
20053 Off ch=1 n=58 v=0
20053 Off ch=1 n=63 v=0
20053 On ch=1 n=58 v=23
20053 On ch=1 n=63 v=23
20096 Off ch=1 n=58 v=0
20096 Off ch=1 n=63 v=0
20096 On ch=1 n=58 v=20
20096 On ch=1 n=63 v=20
20138 Off ch=1 n=58 v=0
20138 Off ch=1 n=63 v=0
20138 On ch=1 n=58 v=24
20138 On ch=1 n=63 v=24
20138 Off ch=1 n=51 v=0
20138 On ch=1 n=51 v=49
20181 Off ch=1 n=58 v=0
20181 Off ch=1 n=63 v=0
20181 On ch=1 n=58 v=23
20181 On ch=1 n=63 v=23
20181 Off ch=1 n=51 v=0
20181 On ch=1 n=50 v=49
20224 Off ch=1 n=58 v=0
20224 Off ch=1 n=63 v=0
20224 On ch=1 n=55 v=24
20224 On ch=1 n=58 v=24
20224 On ch=1 n=63 v=24
20224 Off ch=1 n=50 v=0
20224 On ch=1 n=51 v=51
20263 Off ch=1 n=51 v=0
20266 Off ch=1 n=55 v=0
20266 Off ch=1 n=58 v=0
20266 Off ch=1 n=63 v=0
20266 On ch=1 n=55 v=25
20266 On ch=1 n=58 v=25
20266 On ch=1 n=63 v=25
20266 On ch=1 n=52 v=47
20298 Off ch=1 n=52 v=0
20309 Off ch=1 n=55 v=0
20309 Off ch=1 n=58 v=0
20309 Off ch=1 n=63 v=0
20309 On ch=1 n=55 v=24
20309 On ch=1 n=58 v=24
20309 On ch=1 n=63 v=24
20309 On ch=1 n=51 v=46
20341 Off ch=1 n=51 v=0
20352 Off ch=1 n=55 v=0
20352 Off ch=1 n=58 v=0
20352 Off ch=1 n=63 v=0
20352 On ch=1 n=55 v=23
20352 On ch=1 n=58 v=23
20352 On ch=1 n=63 v=23
20352 On ch=1 n=49 v=46
20383 Off ch=1 n=49 v=0
20394 Off ch=1 n=55 v=0
20394 Off ch=1 n=58 v=0
20394 Off ch=1 n=63 v=0
20394 On ch=1 n=55 v=24
20394 On ch=1 n=58 v=24
20394 On ch=1 n=63 v=24
20394 On ch=1 n=47 v=44
20426 Off ch=1 n=47 v=0
20437 Off ch=1 n=55 v=0
20437 Off ch=1 n=58 v=0
20437 Off ch=1 n=63 v=0
20437 On ch=1 n=55 v=23
20437 On ch=1 n=58 v=23
20437 On ch=1 n=63 v=23
20437 On ch=1 n=46 v=42
20467 Off ch=1 n=46 v=0
20480 Off ch=1 n=55 v=0
20480 Off ch=1 n=58 v=0
20480 Off ch=1 n=63 v=0
20480 On ch=1 n=68 v=85
20480 On ch=1 n=59 v=48
20480 On ch=1 n=63 v=48
20480 On ch=1 n=44 v=55
20522 Off ch=1 n=59 v=0
20522 Off ch=1 n=63 v=0
20522 On ch=1 n=59 v=43
20522 On ch=1 n=63 v=43
20565 Off ch=1 n=59 v=0
20565 Off ch=1 n=63 v=0
20565 On ch=1 n=59 v=42
20565 On ch=1 n=63 v=42
20608 Off ch=1 n=68 v=0
20608 Off ch=1 n=59 v=0
20608 Off ch=1 n=63 v=0
20608 On ch=1 n=71 v=95
20608 On ch=1 n=59 v=41
20608 On ch=1 n=63 v=41
20608 Off ch=1 n=44 v=0
20736 Off ch=1 n=71 v=0
20736 Off ch=1 n=59 v=0
20736 Off ch=1 n=63 v=0
20736 On ch=1 n=70 v=82
20736 On ch=1 n=59 v=43
20736 On ch=1 n=63 v=43
20864 Off ch=1 n=70 v=0
20864 Off ch=1 n=59 v=0
20864 Off ch=1 n=63 v=0
20864 On ch=1 n=68 v=80
20864 On ch=1 n=59 v=42
20864 On ch=1 n=63 v=42
20992 Off ch=1 n=68 v=0
20992 Off ch=1 n=59 v=0
20992 Off ch=1 n=63 v=0
20992 On ch=1 n=66 v=102
20992 On ch=1 n=78 v=102
20992 On ch=1 n=45 v=63
20992 On ch=1 n=47 v=63
20992 On ch=1 n=51 v=63
20992 On ch=1 n=54 v=63
21034 Off ch=1 n=45 v=0
21034 Off ch=1 n=47 v=0
21034 Off ch=1 n=51 v=0
21034 Off ch=1 n=54 v=0
21034 On ch=1 n=45 v=63
21034 On ch=1 n=47 v=63
21034 On ch=1 n=51 v=63
21034 On ch=1 n=54 v=63
21077 Off ch=1 n=45 v=0
21077 Off ch=1 n=47 v=0
21077 Off ch=1 n=51 v=0
21077 Off ch=1 n=54 v=0
21077 On ch=1 n=45 v=63
21077 On ch=1 n=47 v=63
21077 On ch=1 n=51 v=63
21077 On ch=1 n=54 v=63
21120 Off ch=1 n=45 v=0
21120 Off ch=1 n=47 v=0
21120 Off ch=1 n=51 v=0
21120 Off ch=1 n=54 v=0
21120 On ch=1 n=45 v=64
21120 On ch=1 n=47 v=64
21120 On ch=1 n=51 v=64
21120 On ch=1 n=54 v=64
21162 Off ch=1 n=45 v=0
21162 Off ch=1 n=47 v=0
21162 Off ch=1 n=51 v=0
21162 Off ch=1 n=54 v=0
21162 On ch=1 n=45 v=61
21162 On ch=1 n=47 v=61
21162 On ch=1 n=51 v=61
21162 On ch=1 n=54 v=61
21205 Off ch=1 n=45 v=0
21205 Off ch=1 n=47 v=0
21205 Off ch=1 n=51 v=0
21205 Off ch=1 n=54 v=0
21205 On ch=1 n=45 v=64
21205 On ch=1 n=47 v=64
21205 On ch=1 n=51 v=64
21205 On ch=1 n=54 v=64
21248 Off ch=1 n=66 v=0
21248 Off ch=1 n=78 v=0
21248 On ch=1 n=71 v=102
21248 On ch=1 n=83 v=102
21248 Off ch=1 n=45 v=0
21248 Off ch=1 n=47 v=0
21248 Off ch=1 n=51 v=0
21248 Off ch=1 n=54 v=0
21248 On ch=1 n=44 v=74
21248 On ch=1 n=47 v=74
21248 On ch=1 n=52 v=74
21248 On ch=1 n=56 v=74
21290 Off ch=1 n=44 v=0
21290 Off ch=1 n=47 v=0
21290 Off ch=1 n=52 v=0
21290 Off ch=1 n=56 v=0
21290 On ch=1 n=44 v=64
21290 On ch=1 n=47 v=64
21290 On ch=1 n=52 v=64
21290 On ch=1 n=56 v=64
21333 Off ch=1 n=44 v=0
21333 Off ch=1 n=47 v=0
21333 Off ch=1 n=52 v=0
21333 Off ch=1 n=56 v=0
21333 On ch=1 n=44 v=62
21333 On ch=1 n=47 v=62
21333 On ch=1 n=52 v=62
21333 On ch=1 n=56 v=62
21376 Off ch=1 n=44 v=0
21376 Off ch=1 n=47 v=0
21376 Off ch=1 n=52 v=0
21376 Off ch=1 n=56 v=0
21376 On ch=1 n=44 v=64
21376 On ch=1 n=47 v=64
21376 On ch=1 n=52 v=64
21376 On ch=1 n=56 v=64
21418 Off ch=1 n=44 v=0
21418 Off ch=1 n=47 v=0
21418 Off ch=1 n=52 v=0
21418 Off ch=1 n=56 v=0
21418 On ch=1 n=44 v=63
21418 On ch=1 n=47 v=63
21418 On ch=1 n=52 v=63
21418 On ch=1 n=56 v=63
21461 Off ch=1 n=44 v=0
21461 Off ch=1 n=47 v=0
21461 Off ch=1 n=52 v=0
21461 Off ch=1 n=56 v=0
21461 On ch=1 n=44 v=61
21461 On ch=1 n=47 v=61
21461 On ch=1 n=52 v=61
21461 On ch=1 n=56 v=61
21504 Off ch=1 n=71 v=0
21504 Off ch=1 n=83 v=0
21504 On ch=1 n=76 v=103
21504 On ch=1 n=88 v=103
21504 Off ch=1 n=44 v=0
21504 Off ch=1 n=47 v=0
21504 Off ch=1 n=52 v=0
21504 Off ch=1 n=56 v=0
21504 On ch=1 n=49 v=74
21504 On ch=1 n=52 v=74
21504 On ch=1 n=54 v=74
21504 On ch=1 n=58 v=74
21546 Off ch=1 n=49 v=0
21546 Off ch=1 n=52 v=0
21546 Off ch=1 n=54 v=0
21546 Off ch=1 n=58 v=0
21546 On ch=1 n=49 v=64
21546 On ch=1 n=52 v=64
21546 On ch=1 n=54 v=64
21546 On ch=1 n=58 v=64
21589 Off ch=1 n=49 v=0
21589 Off ch=1 n=52 v=0
21589 Off ch=1 n=54 v=0
21589 Off ch=1 n=58 v=0
21589 On ch=1 n=49 v=65
21589 On ch=1 n=52 v=65
21589 On ch=1 n=54 v=65
21589 On ch=1 n=58 v=65
21632 Off ch=1 n=49 v=0
21632 Off ch=1 n=52 v=0
21632 Off ch=1 n=54 v=0
21632 Off ch=1 n=58 v=0
21632 On ch=1 n=49 v=64
21632 On ch=1 n=52 v=64
21632 On ch=1 n=54 v=64
21632 On ch=1 n=58 v=64
21674 Off ch=1 n=49 v=0
21674 Off ch=1 n=52 v=0
21674 Off ch=1 n=54 v=0
21674 Off ch=1 n=58 v=0
21674 On ch=1 n=52 v=61
21674 On ch=1 n=54 v=61
21674 On ch=1 n=58 v=61
21717 Off ch=1 n=52 v=0
21717 Off ch=1 n=54 v=0
21717 Off ch=1 n=58 v=0
21717 On ch=1 n=52 v=62
21717 On ch=1 n=54 v=62
21717 On ch=1 n=58 v=62
21760 Off ch=1 n=76 v=0
21760 Off ch=1 n=88 v=0
21760 On ch=1 n=71 v=79
21760 On ch=1 n=83 v=79
21760 Off ch=1 n=52 v=0
21760 Off ch=1 n=54 v=0
21760 Off ch=1 n=58 v=0
21760 On ch=1 n=47 v=63
21760 On ch=1 n=52 v=63
21760 On ch=1 n=56 v=63
21760 On ch=1 n=59 v=63
21802 Off ch=1 n=47 v=0
21802 Off ch=1 n=52 v=0
21802 Off ch=1 n=56 v=0
21802 Off ch=1 n=59 v=0
21802 On ch=1 n=47 v=65
21802 On ch=1 n=52 v=65
21802 On ch=1 n=56 v=65
21802 On ch=1 n=59 v=65
21845 Off ch=1 n=47 v=0
21845 Off ch=1 n=52 v=0
21845 Off ch=1 n=56 v=0
21845 Off ch=1 n=59 v=0
21845 On ch=1 n=47 v=62
21845 On ch=1 n=52 v=62
21845 On ch=1 n=56 v=62
21845 On ch=1 n=59 v=62
21856 Off ch=1 n=71 v=0
21856 Off ch=1 n=83 v=0
21888 On ch=1 n=54 v=73
21888 On ch=1 n=57 v=73
21888 On ch=1 n=59 v=73
21888 On ch=1 n=63 v=73
21888 Off ch=1 n=47 v=0
21888 Off ch=1 n=52 v=0
21888 Off ch=1 n=56 v=0
21888 Off ch=1 n=59 v=0
21888 On ch=1 n=35 v=61
21888 On ch=1 n=47 v=61
21930 Off ch=1 n=35 v=0
21930 Off ch=1 n=47 v=0
21930 On ch=1 n=35 v=61
21930 On ch=1 n=47 v=61
21973 Off ch=1 n=35 v=0
21973 Off ch=1 n=47 v=0
21973 On ch=1 n=35 v=63
21973 On ch=1 n=47 v=63
22016 Off ch=1 n=54 v=0
22016 Off ch=1 n=57 v=0
22016 Off ch=1 n=59 v=0
22016 Off ch=1 n=63 v=0
22016 On ch=1 n=64 v=83
22016 On ch=1 n=56 v=89
22016 On ch=1 n=59 v=89
22016 Off ch=1 n=35 v=0
22016 Off ch=1 n=47 v=0
22016 On ch=1 n=40 v=67
22016 On ch=1 n=52 v=67
22058 Off ch=1 n=56 v=0
22058 Off ch=1 n=59 v=0
22058 On ch=1 n=56 v=44
22058 On ch=1 n=59 v=44
22101 Off ch=1 n=56 v=0
22101 Off ch=1 n=59 v=0
22101 On ch=1 n=56 v=41
22101 On ch=1 n=59 v=41
22144 Off ch=1 n=56 v=0
22144 Off ch=1 n=59 v=0
22144 On ch=1 n=56 v=41
22144 On ch=1 n=59 v=41
22144 Off ch=1 n=40 v=0
22144 Off ch=1 n=52 v=0
22186 Off ch=1 n=56 v=0
22186 Off ch=1 n=59 v=0
22186 On ch=1 n=56 v=38
22186 On ch=1 n=59 v=38
22229 Off ch=1 n=56 v=0
22229 Off ch=1 n=59 v=0
22229 On ch=1 n=56 v=37
22229 On ch=1 n=59 v=37
22272 Off ch=1 n=64 v=0
22272 Off ch=1 n=56 v=0
22272 Off ch=1 n=59 v=0
22272 On ch=1 n=56 v=30
22272 On ch=1 n=59 v=30
22314 Off ch=1 n=56 v=0
22314 Off ch=1 n=59 v=0
22314 On ch=1 n=56 v=30
22314 On ch=1 n=59 v=30
22357 Off ch=1 n=56 v=0
22357 Off ch=1 n=59 v=0
22357 On ch=1 n=56 v=30
22357 On ch=1 n=59 v=30
22400 Off ch=1 n=56 v=0
22400 Off ch=1 n=59 v=0
22400 On ch=1 n=56 v=27
22400 On ch=1 n=59 v=27
22442 Off ch=1 n=56 v=0
22442 Off ch=1 n=59 v=0
22442 On ch=1 n=56 v=26
22442 On ch=1 n=59 v=26
22485 Off ch=1 n=56 v=0
22485 Off ch=1 n=59 v=0
22485 On ch=1 n=56 v=26
22485 On ch=1 n=59 v=26
22528 Off ch=1 n=56 v=0
22528 Off ch=1 n=59 v=0
22528 On ch=1 n=56 v=21
22528 On ch=1 n=59 v=21
22528 On ch=1 n=40 v=19
22528 On ch=1 n=52 v=19
22570 Off ch=1 n=56 v=0
22570 Off ch=1 n=59 v=0
22570 On ch=1 n=56 v=21
22570 On ch=1 n=59 v=21
22613 Off ch=1 n=56 v=0
22613 Off ch=1 n=59 v=0
22613 On ch=1 n=56 v=25
22613 On ch=1 n=59 v=25
22656 Off ch=1 n=56 v=0
22656 Off ch=1 n=59 v=0
22656 On ch=1 n=56 v=23
22656 On ch=1 n=59 v=23
22698 Off ch=1 n=56 v=0
22698 Off ch=1 n=59 v=0
22698 On ch=1 n=56 v=21
22698 On ch=1 n=59 v=21
22741 Off ch=1 n=56 v=0
22741 Off ch=1 n=59 v=0
22741 On ch=1 n=56 v=25
22741 On ch=1 n=59 v=25
22784 Off ch=1 n=56 v=0
22784 Off ch=1 n=59 v=0
22784 On ch=1 n=56 v=24
22784 On ch=1 n=59 v=24
22784 Off ch=1 n=40 v=0
22784 Off ch=1 n=52 v=0
22826 Off ch=1 n=56 v=0
22826 Off ch=1 n=59 v=0
22826 On ch=1 n=56 v=23
22826 On ch=1 n=59 v=23
22869 Off ch=1 n=56 v=0
22869 Off ch=1 n=59 v=0
22869 On ch=1 n=56 v=24
22869 On ch=1 n=59 v=24
22912 Off ch=1 n=56 v=0
22912 Off ch=1 n=59 v=0
22912 On ch=1 n=56 v=25
22912 On ch=1 n=59 v=25
22954 Off ch=1 n=56 v=0
22954 Off ch=1 n=59 v=0
22954 On ch=1 n=56 v=26
22954 On ch=1 n=59 v=26
22997 Off ch=1 n=56 v=0
22997 Off ch=1 n=59 v=0
22997 On ch=1 n=56 v=22
22997 On ch=1 n=59 v=22
23040 Off ch=1 n=56 v=0
23040 Off ch=1 n=59 v=0
23040 On ch=1 n=57 v=24
23040 On ch=1 n=59 v=24
23040 On ch=1 n=54 v=23
23082 Off ch=1 n=57 v=0
23082 Off ch=1 n=59 v=0
23082 On ch=1 n=57 v=25
23082 On ch=1 n=59 v=25
23125 Off ch=1 n=57 v=0
23125 Off ch=1 n=59 v=0
23125 On ch=1 n=57 v=24
23125 On ch=1 n=59 v=24
23168 Off ch=1 n=57 v=0
23168 Off ch=1 n=59 v=0
23168 On ch=1 n=57 v=22
23168 On ch=1 n=59 v=22
23210 Off ch=1 n=57 v=0
23210 Off ch=1 n=59 v=0
23210 On ch=1 n=57 v=23
23210 On ch=1 n=59 v=23
23210 Off ch=1 n=54 v=0
23210 On ch=1 n=54 v=27
23253 Off ch=1 n=57 v=0
23253 Off ch=1 n=59 v=0
23253 On ch=1 n=57 v=25
23253 On ch=1 n=59 v=25
23253 Off ch=1 n=54 v=0
23253 On ch=1 n=53 v=31
23296 Off ch=1 n=57 v=0
23296 Off ch=1 n=59 v=0
23296 On ch=1 n=57 v=25
23296 On ch=1 n=59 v=25
23296 Off ch=1 n=53 v=0
23296 On ch=1 n=54 v=36
23335 Off ch=1 n=54 v=0
23338 Off ch=1 n=57 v=0
23338 Off ch=1 n=59 v=0
23338 On ch=1 n=57 v=22
23338 On ch=1 n=59 v=22
23338 On ch=1 n=54 v=38
23370 Off ch=1 n=54 v=0
23381 Off ch=1 n=57 v=0
23381 Off ch=1 n=59 v=0
23381 On ch=1 n=57 v=24
23381 On ch=1 n=59 v=24
23381 On ch=1 n=52 v=40
23413 Off ch=1 n=52 v=0
23424 Off ch=1 n=57 v=0
23424 Off ch=1 n=59 v=0
23424 On ch=1 n=57 v=25
23424 On ch=1 n=59 v=25
23424 On ch=1 n=51 v=38
23455 Off ch=1 n=51 v=0
23466 Off ch=1 n=57 v=0
23466 Off ch=1 n=59 v=0
23466 On ch=1 n=57 v=24
23466 On ch=1 n=59 v=24
23466 On ch=1 n=49 v=37
23498 Off ch=1 n=49 v=0
23509 Off ch=1 n=57 v=0
23509 Off ch=1 n=59 v=0
23509 On ch=1 n=57 v=23
23509 On ch=1 n=59 v=23
23509 On ch=1 n=47 v=34
23539 Off ch=1 n=47 v=0
23552 Off ch=1 n=57 v=0
23552 Off ch=1 n=59 v=0
23552 On ch=1 n=56 v=22
23552 On ch=1 n=59 v=22
23552 On ch=1 n=52 v=31
23594 Off ch=1 n=56 v=0
23594 Off ch=1 n=59 v=0
23594 On ch=1 n=56 v=25
23594 On ch=1 n=59 v=25
23637 Off ch=1 n=56 v=0
23637 Off ch=1 n=59 v=0
23637 On ch=1 n=56 v=26
23637 On ch=1 n=59 v=26
23680 Off ch=1 n=56 v=0
23680 Off ch=1 n=59 v=0
23680 On ch=1 n=56 v=24
23680 On ch=1 n=59 v=24
23680 Off ch=1 n=52 v=0
23722 Off ch=1 n=56 v=0
23722 Off ch=1 n=59 v=0
23722 On ch=1 n=56 v=23
23722 On ch=1 n=59 v=23
23765 Off ch=1 n=56 v=0
23765 Off ch=1 n=59 v=0
23765 On ch=1 n=56 v=24
23765 On ch=1 n=59 v=24
23808 Off ch=1 n=56 v=0
23808 Off ch=1 n=59 v=0
23808 On ch=1 n=56 v=24
23808 On ch=1 n=59 v=24
23850 Off ch=1 n=56 v=0
23850 Off ch=1 n=59 v=0
23850 On ch=1 n=56 v=25
23850 On ch=1 n=59 v=25
23893 Off ch=1 n=56 v=0
23893 Off ch=1 n=59 v=0
23893 On ch=1 n=56 v=24
23893 On ch=1 n=59 v=24
23936 Off ch=1 n=56 v=0
23936 Off ch=1 n=59 v=0
23936 On ch=1 n=56 v=25
23936 On ch=1 n=59 v=25
23978 Off ch=1 n=56 v=0
23978 Off ch=1 n=59 v=0
23978 On ch=1 n=56 v=22
23978 On ch=1 n=59 v=22
24021 Off ch=1 n=56 v=0
24021 Off ch=1 n=59 v=0
24021 On ch=1 n=56 v=22
24021 On ch=1 n=59 v=22
24064 Off ch=1 n=56 v=0
24064 Off ch=1 n=59 v=0
24064 On ch=1 n=50 v=26
24064 On ch=1 n=56 v=26
24064 On ch=1 n=59 v=26
24106 Off ch=1 n=50 v=0
24106 Off ch=1 n=56 v=0
24106 Off ch=1 n=59 v=0
24106 On ch=1 n=50 v=25
24106 On ch=1 n=56 v=25
24106 On ch=1 n=59 v=25
24106 On ch=1 n=29 v=50
24149 Off ch=1 n=50 v=0
24149 Off ch=1 n=56 v=0
24149 Off ch=1 n=59 v=0
24149 On ch=1 n=50 v=23
24149 On ch=1 n=56 v=23
24149 On ch=1 n=59 v=23
24149 Off ch=1 n=29 v=0
24149 On ch=1 n=32 v=57
24192 Off ch=1 n=50 v=0
24192 Off ch=1 n=56 v=0
24192 Off ch=1 n=59 v=0
24192 On ch=1 n=50 v=24
24192 On ch=1 n=56 v=24
24192 On ch=1 n=59 v=24
24192 Off ch=1 n=32 v=0
24192 On ch=1 n=35 v=57
24234 Off ch=1 n=50 v=0
24234 Off ch=1 n=56 v=0
24234 Off ch=1 n=59 v=0
24234 On ch=1 n=50 v=23
24234 On ch=1 n=56 v=23
24234 On ch=1 n=59 v=23
24234 Off ch=1 n=35 v=0
24234 On ch=1 n=38 v=60
24277 Off ch=1 n=50 v=0
24277 Off ch=1 n=56 v=0
24277 Off ch=1 n=59 v=0
24277 On ch=1 n=50 v=25
24277 On ch=1 n=56 v=25
24277 On ch=1 n=59 v=25
24277 Off ch=1 n=38 v=0
24277 On ch=1 n=41 v=58
24320 Off ch=1 n=50 v=0
24320 Off ch=1 n=56 v=0
24320 Off ch=1 n=59 v=0
24320 On ch=1 n=50 v=26
24320 On ch=1 n=56 v=26
24320 On ch=1 n=59 v=26
24320 Off ch=1 n=41 v=0
24320 On ch=1 n=44 v=56
24362 Off ch=1 n=50 v=0
24362 Off ch=1 n=56 v=0
24362 Off ch=1 n=59 v=0
24362 On ch=1 n=50 v=24
24362 On ch=1 n=56 v=24
24362 On ch=1 n=59 v=24
24405 Off ch=1 n=50 v=0
24405 Off ch=1 n=56 v=0
24405 Off ch=1 n=59 v=0
24405 On ch=1 n=50 v=21
24405 On ch=1 n=56 v=21
24405 On ch=1 n=59 v=21
24448 Off ch=1 n=50 v=0
24448 Off ch=1 n=56 v=0
24448 Off ch=1 n=59 v=0
24448 On ch=1 n=50 v=22
24448 On ch=1 n=56 v=22
24448 On ch=1 n=59 v=22
24448 Off ch=1 n=44 v=0
24490 Off ch=1 n=50 v=0
24490 Off ch=1 n=56 v=0
24490 Off ch=1 n=59 v=0
24490 On ch=1 n=50 v=24
24490 On ch=1 n=56 v=24
24490 On ch=1 n=59 v=24
24533 Off ch=1 n=50 v=0
24533 Off ch=1 n=56 v=0
24533 Off ch=1 n=59 v=0
24533 On ch=1 n=50 v=26
24533 On ch=1 n=56 v=26
24533 On ch=1 n=59 v=26
24576 Off ch=1 n=50 v=0
24576 Off ch=1 n=56 v=0
24576 Off ch=1 n=59 v=0
24576 On ch=1 n=50 v=23
24576 On ch=1 n=56 v=23
24576 On ch=1 n=59 v=23
24618 Off ch=1 n=50 v=0
24618 Off ch=1 n=56 v=0
24618 Off ch=1 n=59 v=0
24618 On ch=1 n=50 v=24
24618 On ch=1 n=56 v=24
24618 On ch=1 n=59 v=24
24618 On ch=1 n=29 v=53
24650 Off ch=1 n=29 v=0
24661 Off ch=1 n=50 v=0
24661 Off ch=1 n=56 v=0
24661 Off ch=1 n=59 v=0
24661 On ch=1 n=50 v=23
24661 On ch=1 n=56 v=23
24661 On ch=1 n=59 v=23
24661 On ch=1 n=32 v=56
24693 Off ch=1 n=32 v=0
24704 Off ch=1 n=50 v=0
24704 Off ch=1 n=56 v=0
24704 Off ch=1 n=59 v=0
24704 On ch=1 n=50 v=24
24704 On ch=1 n=56 v=24
24704 On ch=1 n=59 v=24
24704 On ch=1 n=35 v=58
24735 Off ch=1 n=35 v=0
24746 Off ch=1 n=50 v=0
24746 Off ch=1 n=56 v=0
24746 Off ch=1 n=59 v=0
24746 On ch=1 n=50 v=23
24746 On ch=1 n=56 v=23
24746 On ch=1 n=59 v=23
24746 On ch=1 n=38 v=60
24778 Off ch=1 n=38 v=0
24789 Off ch=1 n=50 v=0
24789 Off ch=1 n=56 v=0
24789 Off ch=1 n=59 v=0
24789 On ch=1 n=50 v=23
24789 On ch=1 n=56 v=23
24789 On ch=1 n=59 v=23
24789 On ch=1 n=41 v=58
24821 Off ch=1 n=41 v=0
24832 Off ch=1 n=50 v=0
24832 Off ch=1 n=56 v=0
24832 Off ch=1 n=59 v=0
24832 On ch=1 n=50 v=22
24832 On ch=1 n=56 v=22
24832 On ch=1 n=59 v=22
24832 On ch=1 n=44 v=58
24874 Off ch=1 n=50 v=0
24874 Off ch=1 n=56 v=0
24874 Off ch=1 n=59 v=0
24874 On ch=1 n=50 v=26
24874 On ch=1 n=56 v=26
24874 On ch=1 n=59 v=26
24917 Off ch=1 n=50 v=0
24917 Off ch=1 n=56 v=0
24917 Off ch=1 n=59 v=0
24917 On ch=1 n=50 v=23
24917 On ch=1 n=56 v=23
24917 On ch=1 n=59 v=23
24960 Off ch=1 n=50 v=0
24960 Off ch=1 n=56 v=0
24960 Off ch=1 n=59 v=0
24960 On ch=1 n=50 v=26
24960 On ch=1 n=56 v=26
24960 On ch=1 n=59 v=26
24960 Off ch=1 n=44 v=0
25002 Off ch=1 n=50 v=0
25002 Off ch=1 n=56 v=0
25002 Off ch=1 n=59 v=0
25002 On ch=1 n=50 v=25
25002 On ch=1 n=56 v=25
25002 On ch=1 n=59 v=25
25045 Off ch=1 n=50 v=0
25045 Off ch=1 n=56 v=0
25045 Off ch=1 n=59 v=0
25045 On ch=1 n=50 v=24
25045 On ch=1 n=56 v=24
25045 On ch=1 n=59 v=24
25088 Off ch=1 n=50 v=0
25088 Off ch=1 n=56 v=0
25088 Off ch=1 n=59 v=0
25088 On ch=1 n=49 v=27
25088 On ch=1 n=56 v=27
25088 On ch=1 n=58 v=27
25130 Off ch=1 n=49 v=0
25130 Off ch=1 n=56 v=0
25130 Off ch=1 n=58 v=0
25130 On ch=1 n=49 v=25
25130 On ch=1 n=56 v=25
25130 On ch=1 n=58 v=25
25130 On ch=1 n=40 v=57
25162 Off ch=1 n=40 v=0
25173 Off ch=1 n=49 v=0
25173 Off ch=1 n=56 v=0
25173 Off ch=1 n=58 v=0
25173 On ch=1 n=49 v=38
25173 On ch=1 n=56 v=38
25173 On ch=1 n=58 v=38
25173 On ch=1 n=44 v=63
25205 Off ch=1 n=44 v=0
25216 Off ch=1 n=49 v=0
25216 Off ch=1 n=56 v=0
25216 Off ch=1 n=58 v=0
25216 On ch=1 n=49 v=48
25216 On ch=1 n=56 v=48
25216 On ch=1 n=58 v=48
25216 On ch=1 n=46 v=65
25258 Off ch=1 n=49 v=0
25258 Off ch=1 n=56 v=0
25258 Off ch=1 n=58 v=0
25258 On ch=1 n=49 v=56
25258 On ch=1 n=56 v=56
25258 On ch=1 n=58 v=56
25301 Off ch=1 n=49 v=0
25301 Off ch=1 n=56 v=0
25301 Off ch=1 n=58 v=0
25301 On ch=1 n=49 v=68
25301 On ch=1 n=56 v=68
25301 On ch=1 n=58 v=68
25312 Off ch=1 n=46 v=0
25344 Off ch=1 n=49 v=0
25344 Off ch=1 n=56 v=0
25344 Off ch=1 n=58 v=0
25344 On ch=1 n=49 v=77
25344 On ch=1 n=55 v=77
25344 On ch=1 n=58 v=77
25386 Off ch=1 n=49 v=0
25386 Off ch=1 n=55 v=0
25386 Off ch=1 n=58 v=0
25386 On ch=1 n=49 v=87
25386 On ch=1 n=55 v=87
25386 On ch=1 n=58 v=87
25386 On ch=1 n=39 v=56
25418 Off ch=1 n=39 v=0
25429 Off ch=1 n=49 v=0
25429 Off ch=1 n=55 v=0
25429 Off ch=1 n=58 v=0
25429 On ch=1 n=55 v=96
25429 On ch=1 n=58 v=96
25429 On ch=1 n=43 v=66
25461 Off ch=1 n=43 v=0
25472 Off ch=1 n=55 v=0
25472 Off ch=1 n=58 v=0
25472 On ch=1 n=61 v=23
25472 On ch=1 n=49 v=96
25472 On ch=1 n=51 v=96
25472 On ch=1 n=55 v=96
25472 On ch=1 n=58 v=96
25472 On ch=1 n=46 v=62
25514 Off ch=1 n=49 v=0
25514 Off ch=1 n=51 v=0
25514 Off ch=1 n=55 v=0
25514 Off ch=1 n=58 v=0
25514 On ch=1 n=49 v=97
25514 On ch=1 n=51 v=97
25514 On ch=1 n=55 v=97
25514 On ch=1 n=58 v=97
25557 Off ch=1 n=49 v=0
25557 Off ch=1 n=51 v=0
25557 Off ch=1 n=55 v=0
25557 Off ch=1 n=58 v=0
25557 On ch=1 n=49 v=43
25557 On ch=1 n=51 v=43
25557 On ch=1 n=55 v=43
25557 On ch=1 n=58 v=43
25568 Off ch=1 n=46 v=0
25600 Off ch=1 n=61 v=0
25600 Off ch=1 n=49 v=0
25600 Off ch=1 n=51 v=0
25600 Off ch=1 n=55 v=0
25600 Off ch=1 n=58 v=0
25600 On ch=1 n=60 v=56
25600 On ch=1 n=48 v=41
25600 On ch=1 n=32 v=55
25600 On ch=1 n=44 v=55
25642 Off ch=1 n=48 v=0
25642 On ch=1 n=51 v=44
25672 Off ch=1 n=51 v=0
25685 On ch=1 n=51 v=43
25717 Off ch=1 n=51 v=0
25728 On ch=1 n=56 v=44
25770 Off ch=1 n=56 v=0
25770 On ch=1 n=51 v=44
25800 Off ch=1 n=51 v=0
25813 On ch=1 n=51 v=44
25843 Off ch=1 n=60 v=0
25845 Off ch=1 n=51 v=0
25856 On ch=1 n=55 v=46
25856 On ch=1 n=49 v=57
25861 Off ch=1 n=32 v=0
25861 Off ch=1 n=44 v=0
25898 Off ch=1 n=55 v=0
25898 On ch=1 n=51 v=42
25928 Off ch=1 n=51 v=0
25941 On ch=1 n=51 v=42
25973 Off ch=1 n=51 v=0
25984 On ch=1 n=55 v=45
26026 Off ch=1 n=55 v=0
26026 On ch=1 n=51 v=42
26056 Off ch=1 n=51 v=0
26069 On ch=1 n=51 v=43
26101 Off ch=1 n=51 v=0
26112 On ch=1 n=56 v=50
26112 On ch=1 n=48 v=56
26117 Off ch=1 n=49 v=0
26154 Off ch=1 n=56 v=0
26154 On ch=1 n=51 v=55
26194 Off ch=1 n=51 v=0
26197 On ch=1 n=51 v=56
26240 Off ch=1 n=51 v=0
26240 On ch=1 n=56 v=59
26282 Off ch=1 n=56 v=0
26282 On ch=1 n=51 v=55
26322 Off ch=1 n=51 v=0
26325 On ch=1 n=51 v=58
26368 Off ch=1 n=51 v=0
26368 On ch=1 n=58 v=60
26368 On ch=1 n=43 v=55
26373 Off ch=1 n=48 v=0
26410 Off ch=1 n=58 v=0
26410 On ch=1 n=51 v=55
26450 Off ch=1 n=51 v=0
26453 On ch=1 n=51 v=56
26496 Off ch=1 n=51 v=0
26496 On ch=1 n=58 v=59
26538 Off ch=1 n=58 v=0
26538 On ch=1 n=51 v=55
26578 Off ch=1 n=51 v=0
26581 On ch=1 n=51 v=59
26624 Off ch=1 n=51 v=0
26624 On ch=1 n=56 v=56
26624 On ch=1 n=44 v=56
26629 Off ch=1 n=43 v=0
26666 Off ch=1 n=56 v=0
26666 On ch=1 n=51 v=54
26706 Off ch=1 n=51 v=0
26709 On ch=1 n=51 v=56
26752 Off ch=1 n=51 v=0
26752 On ch=1 n=58 v=61
26752 On ch=1 n=43 v=57
26754 Off ch=1 n=44 v=0
26794 Off ch=1 n=58 v=0
26794 On ch=1 n=51 v=55
26834 Off ch=1 n=51 v=0
26837 On ch=1 n=51 v=55
26880 Off ch=1 n=51 v=0
26880 On ch=1 n=60 v=66
26880 On ch=1 n=41 v=58
26882 Off ch=1 n=43 v=0
26922 Off ch=1 n=60 v=0
26922 On ch=1 n=56 v=55
26962 Off ch=1 n=56 v=0
26965 On ch=1 n=56 v=57
27008 Off ch=1 n=56 v=0
27008 On ch=1 n=62 v=60
27008 On ch=1 n=53 v=62
27010 Off ch=1 n=41 v=0
27050 Off ch=1 n=62 v=0
27050 On ch=1 n=56 v=55
27090 Off ch=1 n=56 v=0
27093 On ch=1 n=56 v=58
27136 Off ch=1 n=56 v=0
27136 On ch=1 n=55 v=56
27136 On ch=1 n=51 v=58
27138 Off ch=1 n=53 v=0
27178 Off ch=1 n=55 v=0
27178 On ch=1 n=58 v=58
27218 Off ch=1 n=58 v=0
27221 On ch=1 n=58 v=60
27264 Off ch=1 n=58 v=0
27264 On ch=1 n=55 v=55
27306 Off ch=1 n=55 v=0
27306 On ch=1 n=58 v=59
27346 Off ch=1 n=58 v=0
27349 On ch=1 n=58 v=60
27383 Off ch=1 n=51 v=0
27392 Off ch=1 n=58 v=0
27392 On ch=1 n=55 v=56
27392 On ch=1 n=39 v=57
27434 Off ch=1 n=55 v=0
27434 On ch=1 n=58 v=60
27474 Off ch=1 n=58 v=0
27477 On ch=1 n=58 v=55
27520 Off ch=1 n=58 v=0
27520 On ch=1 n=55 v=58
27562 Off ch=1 n=55 v=0
27562 On ch=1 n=58 v=56
27602 Off ch=1 n=58 v=0
27605 On ch=1 n=58 v=58
27648 Off ch=1 n=58 v=0
27648 On ch=1 n=55 v=58
27648 On ch=1 n=37 v=56
27653 Off ch=1 n=39 v=0
27690 Off ch=1 n=55 v=0
27690 On ch=1 n=58 v=61
27730 Off ch=1 n=58 v=0
27733 On ch=1 n=58 v=57
27776 Off ch=1 n=58 v=0
27776 On ch=1 n=55 v=55
27818 Off ch=1 n=55 v=0
27818 On ch=1 n=58 v=59
27858 Off ch=1 n=58 v=0
27861 On ch=1 n=58 v=57
27891 Off ch=1 n=37 v=0
27904 Off ch=1 n=58 v=0
27904 On ch=1 n=55 v=54
27904 On ch=1 n=49 v=62
27946 Off ch=1 n=55 v=0
27946 On ch=1 n=51 v=55
27986 Off ch=1 n=51 v=0
27989 On ch=1 n=51 v=54
28032 Off ch=1 n=51 v=0
28032 On ch=1 n=55 v=55
28074 Off ch=1 n=55 v=0
28074 On ch=1 n=51 v=56
28114 Off ch=1 n=51 v=0
28117 On ch=1 n=51 v=58
28160 Off ch=1 n=51 v=0
28160 On ch=1 n=56 v=60
28160 Off ch=1 n=49 v=0
28160 On ch=1 n=48 v=55
28202 Off ch=1 n=56 v=0
28202 On ch=1 n=51 v=56
28242 Off ch=1 n=51 v=0
28245 On ch=1 n=51 v=58
28288 Off ch=1 n=51 v=0
28288 On ch=1 n=56 v=58
28330 Off ch=1 n=56 v=0
28330 On ch=1 n=51 v=57
28370 Off ch=1 n=51 v=0
28373 On ch=1 n=51 v=57
28416 Off ch=1 n=51 v=0
28416 On ch=1 n=51 v=56
28416 Off ch=1 n=48 v=0
28416 On ch=1 n=41 v=54
28458 Off ch=1 n=51 v=0
28458 On ch=1 n=48 v=54
28498 Off ch=1 n=48 v=0
28501 On ch=1 n=48 v=57
28544 Off ch=1 n=48 v=0
28544 On ch=1 n=51 v=59
28586 Off ch=1 n=51 v=0
28586 On ch=1 n=48 v=58
28626 Off ch=1 n=48 v=0
28629 On ch=1 n=48 v=57
28672 Off ch=1 n=48 v=0
28672 On ch=1 n=53 v=59
28672 Off ch=1 n=41 v=0
28672 On ch=1 n=34 v=54
28714 Off ch=1 n=53 v=0
28714 On ch=1 n=49 v=54
28754 Off ch=1 n=49 v=0
28757 On ch=1 n=49 v=58
28800 Off ch=1 n=49 v=0
28800 On ch=1 n=53 v=58
28842 Off ch=1 n=53 v=0
28842 On ch=1 n=49 v=57
28882 Off ch=1 n=49 v=0
28885 On ch=1 n=49 v=57
28928 Off ch=1 n=49 v=0
28928 On ch=1 n=55 v=61
28928 Off ch=1 n=34 v=0
28928 On ch=1 n=39 v=61
28970 Off ch=1 n=55 v=0
28970 On ch=1 n=49 v=53
29013 Off ch=1 n=49 v=0
29013 On ch=1 n=49 v=58
29053 Off ch=1 n=49 v=0
29056 On ch=1 n=49 v=56
29098 Off ch=1 n=49 v=0
29098 On ch=1 n=49 v=58
29141 Off ch=1 n=49 v=0
29141 On ch=1 n=49 v=59
29181 Off ch=1 n=49 v=0
29184 On ch=1 n=55 v=60
29184 On ch=1 n=49 v=44
29184 Off ch=1 n=39 v=0
29184 On ch=1 n=32 v=56
29226 Off ch=1 n=49 v=0
29226 On ch=1 n=51 v=46
29256 Off ch=1 n=51 v=0
29269 On ch=1 n=51 v=46
29281 Off ch=1 n=32 v=0
29301 Off ch=1 n=51 v=0
29312 On ch=1 n=49 v=43
29312 On ch=1 n=44 v=64
29354 Off ch=1 n=49 v=0
29354 On ch=1 n=51 v=46
29384 Off ch=1 n=51 v=0
29397 On ch=1 n=51 v=42
29409 Off ch=1 n=44 v=0
29427 Off ch=1 n=51 v=0
29431 Off ch=1 n=55 v=0
29440 On ch=1 n=48 v=60
29440 On ch=1 n=56 v=60
29440 On ch=1 n=32 v=55
29500 Off ch=1 n=48 v=0
29500 Off ch=1 n=56 v=0
29531 Off ch=1 n=32 v=0
29568 On ch=1 n=60 v=50
29599 Off ch=1 n=60 v=0
29610 On ch=1 n=63 v=61
29642 Off ch=1 n=63 v=0
29653 On ch=1 n=68 v=61
29685 Off ch=1 n=68 v=0
29696 On ch=1 n=60 v=40
29696 On ch=1 n=56 v=41
29696 On ch=1 n=44 v=41
29738 Off ch=1 n=60 v=0
29738 On ch=1 n=63 v=45
29738 Off ch=1 n=56 v=0
29738 On ch=1 n=51 v=42
29778 Off ch=1 n=63 v=0
29778 Off ch=1 n=51 v=0
29781 On ch=1 n=63 v=42
29781 On ch=1 n=51 v=44
29824 Off ch=1 n=63 v=0
29824 On ch=1 n=60 v=41
29824 Off ch=1 n=51 v=0
29824 On ch=1 n=56 v=44
29866 Off ch=1 n=60 v=0
29866 On ch=1 n=63 v=43
29866 Off ch=1 n=56 v=0
29866 On ch=1 n=51 v=42
29906 Off ch=1 n=63 v=0
29906 Off ch=1 n=51 v=0
29909 On ch=1 n=63 v=41
29909 On ch=1 n=51 v=43
29939 Off ch=1 n=44 v=0
29952 Off ch=1 n=63 v=0
29952 On ch=1 n=58 v=40
29952 Off ch=1 n=51 v=0
29952 On ch=1 n=55 v=44
29952 On ch=1 n=49 v=47
29994 Off ch=1 n=58 v=0
29994 On ch=1 n=63 v=47
29994 Off ch=1 n=55 v=0
29994 On ch=1 n=51 v=41
30034 Off ch=1 n=63 v=0
30034 Off ch=1 n=51 v=0
30037 On ch=1 n=63 v=44
30037 On ch=1 n=51 v=40
30080 Off ch=1 n=63 v=0
30080 On ch=1 n=58 v=39
30080 Off ch=1 n=51 v=0
30080 On ch=1 n=55 v=44
30122 Off ch=1 n=58 v=0
30122 On ch=1 n=63 v=47
30122 Off ch=1 n=55 v=0
30122 On ch=1 n=51 v=41
30162 Off ch=1 n=63 v=0
30162 Off ch=1 n=51 v=0
30165 On ch=1 n=63 v=44
30165 On ch=1 n=51 v=45
30195 Off ch=1 n=49 v=0
30208 Off ch=1 n=63 v=0
30208 On ch=1 n=63 v=43
30208 Off ch=1 n=51 v=0
30208 On ch=1 n=56 v=45
30208 On ch=1 n=48 v=41
30250 Off ch=1 n=63 v=0
30250 On ch=1 n=68 v=46
30250 Off ch=1 n=56 v=0
30250 On ch=1 n=51 v=42
30290 Off ch=1 n=68 v=0
30290 Off ch=1 n=51 v=0
30293 On ch=1 n=68 v=43
30293 On ch=1 n=51 v=41
30336 Off ch=1 n=68 v=0
30336 On ch=1 n=63 v=39
30336 Off ch=1 n=51 v=0
30336 On ch=1 n=56 v=45
30378 Off ch=1 n=63 v=0
30378 On ch=1 n=68 v=46
30378 Off ch=1 n=56 v=0
30378 On ch=1 n=51 v=44
30418 Off ch=1 n=68 v=0
30418 Off ch=1 n=51 v=0
30421 On ch=1 n=68 v=45
30421 On ch=1 n=51 v=43
30451 Off ch=1 n=48 v=0
30464 Off ch=1 n=68 v=0
30464 On ch=1 n=63 v=41
30464 Off ch=1 n=51 v=0
30464 On ch=1 n=55 v=45
30464 On ch=1 n=43 v=44
30506 Off ch=1 n=63 v=0
30506 On ch=1 n=70 v=46
30506 Off ch=1 n=55 v=0
30506 On ch=1 n=51 v=44
30546 Off ch=1 n=70 v=0
30546 Off ch=1 n=51 v=0
30549 On ch=1 n=70 v=43
30549 On ch=1 n=51 v=45
30592 Off ch=1 n=70 v=0
30592 On ch=1 n=63 v=39
30592 Off ch=1 n=51 v=0
30592 On ch=1 n=55 v=45
30634 Off ch=1 n=63 v=0
30634 On ch=1 n=70 v=50
30634 Off ch=1 n=55 v=0
30634 On ch=1 n=51 v=44
30674 Off ch=1 n=70 v=0
30674 Off ch=1 n=51 v=0
30677 On ch=1 n=70 v=44
30677 On ch=1 n=51 v=42
30707 Off ch=1 n=43 v=0
30720 Off ch=1 n=70 v=0
30720 On ch=1 n=63 v=39
30720 Off ch=1 n=51 v=0
30720 On ch=1 n=56 v=44
30720 On ch=1 n=44 v=46
30762 Off ch=1 n=63 v=0
30762 On ch=1 n=68 v=45
30762 Off ch=1 n=56 v=0
30762 On ch=1 n=51 v=42
30802 Off ch=1 n=68 v=0
30805 On ch=1 n=68 v=45
30805 Off ch=1 n=51 v=0
30805 On ch=1 n=51 v=44
30848 Off ch=1 n=68 v=0
30848 On ch=1 n=63 v=41
30848 Off ch=1 n=44 v=0
30848 Off ch=1 n=51 v=0
30848 On ch=1 n=56 v=44
30848 On ch=1 n=43 v=45
30890 Off ch=1 n=63 v=0
30890 On ch=1 n=70 v=47
30890 Off ch=1 n=56 v=0
30890 On ch=1 n=51 v=42
30930 Off ch=1 n=70 v=0
30933 On ch=1 n=70 v=43
30933 Off ch=1 n=51 v=0
30933 On ch=1 n=51 v=45
30976 Off ch=1 n=70 v=0
30976 On ch=1 n=68 v=42
30976 Off ch=1 n=43 v=0
30976 Off ch=1 n=51 v=0
30976 On ch=1 n=53 v=43
30976 On ch=1 n=41 v=42
31018 Off ch=1 n=68 v=0
31018 On ch=1 n=72 v=46
31018 Off ch=1 n=53 v=0
31018 On ch=1 n=44 v=41
31058 Off ch=1 n=72 v=0
31061 On ch=1 n=72 v=43
31061 Off ch=1 n=44 v=0
31061 On ch=1 n=44 v=41
31104 Off ch=1 n=72 v=0
31104 On ch=1 n=68 v=41
31104 Off ch=1 n=41 v=0
31104 Off ch=1 n=44 v=0
31104 On ch=1 n=53 v=44
31104 On ch=1 n=41 v=43
31146 Off ch=1 n=68 v=0
31146 On ch=1 n=74 v=46
31146 Off ch=1 n=53 v=0
31146 On ch=1 n=44 v=39
31186 Off ch=1 n=74 v=0
31189 On ch=1 n=74 v=41
31189 Off ch=1 n=44 v=0
31189 On ch=1 n=44 v=45
31232 Off ch=1 n=74 v=0
31232 On ch=1 n=67 v=37
31232 Off ch=1 n=41 v=0
31232 Off ch=1 n=44 v=0
31232 On ch=1 n=39 v=41
31263 Off ch=1 n=39 v=0
31274 Off ch=1 n=67 v=0
31274 On ch=1 n=70 v=45
31274 On ch=1 n=43 v=46
31306 Off ch=1 n=43 v=0
31314 Off ch=1 n=70 v=0
31317 On ch=1 n=70 v=45
31317 On ch=1 n=46 v=42
31349 Off ch=1 n=46 v=0
31360 Off ch=1 n=70 v=0
31360 On ch=1 n=67 v=42
31360 On ch=1 n=51 v=46
31391 Off ch=1 n=51 v=0
31402 Off ch=1 n=67 v=0
31402 On ch=1 n=70 v=46
31402 On ch=1 n=55 v=43
31434 Off ch=1 n=55 v=0
31442 Off ch=1 n=70 v=0
31445 On ch=1 n=70 v=43
31445 On ch=1 n=58 v=45
31475 Off ch=1 n=58 v=0
31488 Off ch=1 n=70 v=0
31488 On ch=1 n=67 v=40
31488 On ch=1 n=63 v=45
31530 Off ch=1 n=67 v=0
31530 On ch=1 n=70 v=45
31570 Off ch=1 n=70 v=0
31573 On ch=1 n=70 v=40
31616 Off ch=1 n=70 v=0
31616 On ch=1 n=67 v=40
31658 Off ch=1 n=67 v=0
31658 On ch=1 n=70 v=45
31698 Off ch=1 n=70 v=0
31701 On ch=1 n=70 v=43
31744 Off ch=1 n=70 v=0
31744 On ch=1 n=67 v=42
31744 Off ch=1 n=63 v=0
31744 On ch=1 n=37 v=55
31775 Off ch=1 n=37 v=0
31786 Off ch=1 n=67 v=0
31786 On ch=1 n=70 v=44
31786 On ch=1 n=43 v=58
31818 Off ch=1 n=43 v=0
31826 Off ch=1 n=70 v=0
31829 On ch=1 n=70 v=41
31829 On ch=1 n=46 v=57
31861 Off ch=1 n=46 v=0
31872 Off ch=1 n=70 v=0
31872 On ch=1 n=67 v=41
31872 On ch=1 n=49 v=59
31903 Off ch=1 n=49 v=0
31914 Off ch=1 n=67 v=0
31914 On ch=1 n=70 v=45
31914 On ch=1 n=55 v=59
31946 Off ch=1 n=55 v=0
31954 Off ch=1 n=70 v=0
31957 On ch=1 n=70 v=43
31957 On ch=1 n=58 v=59
31987 Off ch=1 n=58 v=0
32000 Off ch=1 n=70 v=0
32000 On ch=1 n=67 v=43
32000 On ch=1 n=61 v=60
32042 Off ch=1 n=67 v=0
32042 On ch=1 n=63 v=43
32082 Off ch=1 n=63 v=0
32085 On ch=1 n=63 v=42
32128 Off ch=1 n=63 v=0
32128 On ch=1 n=67 v=47
32170 Off ch=1 n=67 v=0
32170 On ch=1 n=63 v=40
32210 Off ch=1 n=63 v=0
32213 On ch=1 n=63 v=43
32256 Off ch=1 n=63 v=0
32256 On ch=1 n=68 v=47
32256 Off ch=1 n=61 v=0
32256 On ch=1 n=60 v=55
32298 Off ch=1 n=68 v=0
32298 On ch=1 n=63 v=40
32338 Off ch=1 n=63 v=0
32341 On ch=1 n=63 v=43
32384 Off ch=1 n=63 v=0
32384 On ch=1 n=68 v=48
32426 Off ch=1 n=68 v=0
32426 On ch=1 n=63 v=42
32466 Off ch=1 n=63 v=0
32469 On ch=1 n=63 v=45
32512 Off ch=1 n=63 v=0
32512 On ch=1 n=63 v=46
32512 Off ch=1 n=60 v=0
32512 On ch=1 n=53 v=54
32554 Off ch=1 n=63 v=0
32554 On ch=1 n=60 v=40
32594 Off ch=1 n=60 v=0
32597 On ch=1 n=60 v=42
32640 Off ch=1 n=60 v=0
32640 On ch=1 n=63 v=45
32682 Off ch=1 n=63 v=0
32682 On ch=1 n=60 v=40
32722 Off ch=1 n=60 v=0
32725 On ch=1 n=60 v=46
32768 Off ch=1 n=60 v=0
32768 On ch=1 n=65 v=45
32768 Off ch=1 n=53 v=0
32768 On ch=1 n=46 v=55
32810 Off ch=1 n=65 v=0
32810 On ch=1 n=61 v=43
32850 Off ch=1 n=61 v=0
32853 On ch=1 n=61 v=44
32896 Off ch=1 n=61 v=0
32896 On ch=1 n=65 v=45
32938 Off ch=1 n=65 v=0
32938 On ch=1 n=61 v=39
32978 Off ch=1 n=61 v=0
32981 On ch=1 n=61 v=45
33024 Off ch=1 n=61 v=0
33024 On ch=1 n=67 v=48
33024 Off ch=1 n=46 v=0
33024 On ch=1 n=46 v=58
33024 On ch=1 n=39 v=39
33066 Off ch=1 n=67 v=0
33066 On ch=1 n=61 v=40
33066 Off ch=1 n=46 v=0
33066 On ch=1 n=51 v=58
33106 Off ch=1 n=61 v=0
33106 Off ch=1 n=51 v=0
33109 On ch=1 n=61 v=42
33109 On ch=1 n=51 v=58
33145 Off ch=1 n=39 v=0
33152 Off ch=1 n=61 v=0
33152 On ch=1 n=61 v=45
33152 Off ch=1 n=51 v=0
33152 On ch=1 n=39 v=55
33194 Off ch=1 n=61 v=0
33194 On ch=1 n=61 v=44
33194 On ch=1 n=51 v=55
33234 Off ch=1 n=51 v=0
33237 Off ch=1 n=61 v=0
33237 On ch=1 n=61 v=41
33237 On ch=1 n=51 v=55
33273 Off ch=1 n=39 v=0
33280 Off ch=1 n=61 v=0
33280 On ch=1 n=60 v=44
33280 Off ch=1 n=51 v=0
33280 On ch=1 n=44 v=57
33322 Off ch=1 n=44 v=0
33322 On ch=1 n=51 v=46
33352 Off ch=1 n=51 v=0
33365 On ch=1 n=51 v=43
33397 Off ch=1 n=51 v=0
33408 Off ch=1 n=60 v=0
33408 On ch=1 n=51 v=44
33439 Off ch=1 n=51 v=0
33450 On ch=1 n=51 v=42
33482 Off ch=1 n=51 v=0
33493 On ch=1 n=51 v=42
33525 Off ch=1 n=51 v=0
33536 On ch=1 n=51 v=44
33567 Off ch=1 n=51 v=0
33578 On ch=1 n=51 v=44
33610 Off ch=1 n=51 v=0
33621 On ch=1 n=51 v=42
33653 Off ch=1 n=51 v=0
33664 On ch=1 n=51 v=41
33695 Off ch=1 n=51 v=0
33706 On ch=1 n=51 v=44
33738 Off ch=1 n=51 v=0
33749 On ch=1 n=51 v=42
33779 Off ch=1 n=51 v=0
33792 On ch=1 n=39 v=43
33792 On ch=1 n=49 v=43
33792 On ch=1 n=51 v=43
33823 Off ch=1 n=39 v=0
33823 Off ch=1 n=49 v=0
33823 Off ch=1 n=51 v=0
33834 On ch=1 n=39 v=44
33834 On ch=1 n=49 v=44
33834 On ch=1 n=51 v=44
33866 Off ch=1 n=39 v=0
33866 Off ch=1 n=49 v=0
33866 Off ch=1 n=51 v=0
33877 On ch=1 n=39 v=44
33877 On ch=1 n=49 v=44
33877 On ch=1 n=51 v=44
33909 Off ch=1 n=39 v=0
33909 Off ch=1 n=49 v=0
33909 Off ch=1 n=51 v=0
33920 On ch=1 n=39 v=43
33920 On ch=1 n=49 v=43
33920 On ch=1 n=51 v=43
33951 Off ch=1 n=39 v=0
33951 Off ch=1 n=49 v=0
33951 Off ch=1 n=51 v=0
33962 On ch=1 n=39 v=43
33962 On ch=1 n=49 v=43
33962 On ch=1 n=51 v=43
33994 Off ch=1 n=39 v=0
33994 Off ch=1 n=49 v=0
33994 Off ch=1 n=51 v=0
34005 On ch=1 n=39 v=44
34005 On ch=1 n=49 v=44
34005 On ch=1 n=51 v=44
34037 Off ch=1 n=39 v=0
34037 Off ch=1 n=49 v=0
34037 Off ch=1 n=51 v=0
34048 On ch=1 n=39 v=41
34048 On ch=1 n=49 v=41
34048 On ch=1 n=51 v=41
34079 Off ch=1 n=39 v=0
34079 Off ch=1 n=49 v=0
34079 Off ch=1 n=51 v=0
34090 On ch=1 n=39 v=42
34090 On ch=1 n=49 v=42
34090 On ch=1 n=51 v=42
34122 Off ch=1 n=39 v=0
34122 Off ch=1 n=49 v=0
34122 Off ch=1 n=51 v=0
34133 On ch=1 n=39 v=42
34133 On ch=1 n=49 v=42
34133 On ch=1 n=51 v=42
34165 Off ch=1 n=39 v=0
34165 Off ch=1 n=49 v=0
34165 Off ch=1 n=51 v=0
34176 On ch=1 n=39 v=45
34176 On ch=1 n=49 v=45
34176 On ch=1 n=51 v=45
34207 Off ch=1 n=39 v=0
34207 Off ch=1 n=49 v=0
34207 Off ch=1 n=51 v=0
34218 On ch=1 n=39 v=43
34218 On ch=1 n=49 v=43
34218 On ch=1 n=51 v=43
34250 Off ch=1 n=39 v=0
34250 Off ch=1 n=49 v=0
34250 Off ch=1 n=51 v=0
34261 On ch=1 n=39 v=43
34261 On ch=1 n=49 v=43
34261 On ch=1 n=51 v=43
34291 Off ch=1 n=39 v=0
34291 Off ch=1 n=49 v=0
34291 Off ch=1 n=51 v=0
34304 On ch=1 n=44 v=45
34304 On ch=1 n=48 v=45
34304 On ch=1 n=51 v=45
34346 Off ch=1 n=44 v=0
34346 Off ch=1 n=48 v=0
34346 Off ch=1 n=51 v=0
34346 On ch=1 n=51 v=41
34378 Off ch=1 n=51 v=0
34389 On ch=1 n=51 v=44
34421 Off ch=1 n=51 v=0
34432 On ch=1 n=51 v=42
34463 Off ch=1 n=51 v=0
34474 On ch=1 n=51 v=41
34506 Off ch=1 n=51 v=0
34517 On ch=1 n=51 v=42
34549 Off ch=1 n=51 v=0
34560 On ch=1 n=51 v=44
34591 Off ch=1 n=51 v=0
34602 On ch=1 n=51 v=43
34634 Off ch=1 n=51 v=0
34645 On ch=1 n=51 v=44
34677 Off ch=1 n=51 v=0
34688 On ch=1 n=75 v=40
34688 On ch=1 n=87 v=40
34688 On ch=1 n=51 v=42
34719 Off ch=1 n=51 v=0
34730 On ch=1 n=51 v=43
34762 Off ch=1 n=51 v=0
34773 On ch=1 n=51 v=46
34784 Off ch=1 n=75 v=0
34784 Off ch=1 n=87 v=0
34784 On ch=1 n=76 v=45
34784 On ch=1 n=88 v=45
34805 Off ch=1 n=51 v=0
34816 Off ch=1 n=76 v=0
34816 Off ch=1 n=88 v=0
34816 On ch=1 n=77 v=48
34816 On ch=1 n=89 v=48
34816 On ch=1 n=39 v=46
34816 On ch=1 n=49 v=46
34816 On ch=1 n=51 v=46
34847 Off ch=1 n=39 v=0
34847 Off ch=1 n=49 v=0
34847 Off ch=1 n=51 v=0
34858 On ch=1 n=39 v=45
34858 On ch=1 n=49 v=45
34858 On ch=1 n=51 v=45
34890 Off ch=1 n=39 v=0
34890 Off ch=1 n=49 v=0
34890 Off ch=1 n=51 v=0
34901 On ch=1 n=39 v=47
34901 On ch=1 n=49 v=47
34901 On ch=1 n=51 v=47
34933 Off ch=1 n=39 v=0
34933 Off ch=1 n=49 v=0
34933 Off ch=1 n=51 v=0
34944 On ch=1 n=39 v=49
34944 On ch=1 n=49 v=49
34944 On ch=1 n=51 v=49
34975 Off ch=1 n=39 v=0
34975 Off ch=1 n=49 v=0
34975 Off ch=1 n=51 v=0
34986 Off ch=1 n=77 v=0
34986 Off ch=1 n=89 v=0
34986 On ch=1 n=75 v=50
34986 On ch=1 n=87 v=50
34986 On ch=1 n=39 v=51
34986 On ch=1 n=49 v=51
34986 On ch=1 n=51 v=51
35018 Off ch=1 n=39 v=0
35018 Off ch=1 n=49 v=0
35018 Off ch=1 n=51 v=0
35026 Off ch=1 n=75 v=0
35026 Off ch=1 n=87 v=0
35029 On ch=1 n=73 v=54
35029 On ch=1 n=85 v=54
35029 On ch=1 n=39 v=53
35029 On ch=1 n=49 v=53
35029 On ch=1 n=51 v=53
35061 Off ch=1 n=73 v=0
35061 Off ch=1 n=85 v=0
35061 Off ch=1 n=39 v=0
35061 Off ch=1 n=49 v=0
35061 Off ch=1 n=51 v=0
35072 On ch=1 n=72 v=54
35072 On ch=1 n=84 v=54
35072 On ch=1 n=39 v=54
35072 On ch=1 n=49 v=54
35072 On ch=1 n=51 v=54
35103 Off ch=1 n=72 v=0
35103 Off ch=1 n=84 v=0
35103 Off ch=1 n=39 v=0
35103 Off ch=1 n=49 v=0
35103 Off ch=1 n=51 v=0
35114 On ch=1 n=70 v=53
35114 On ch=1 n=82 v=53
35114 On ch=1 n=39 v=56
35114 On ch=1 n=49 v=56
35114 On ch=1 n=51 v=56
35146 Off ch=1 n=70 v=0
35146 Off ch=1 n=82 v=0
35146 Off ch=1 n=39 v=0
35146 Off ch=1 n=49 v=0
35146 Off ch=1 n=51 v=0
35157 On ch=1 n=68 v=50
35157 On ch=1 n=80 v=50
35157 On ch=1 n=39 v=53
35157 On ch=1 n=49 v=53
35157 On ch=1 n=51 v=53
35187 Off ch=1 n=68 v=0
35187 Off ch=1 n=80 v=0
35189 Off ch=1 n=39 v=0
35189 Off ch=1 n=49 v=0
35189 Off ch=1 n=51 v=0
35200 On ch=1 n=67 v=49
35200 On ch=1 n=79 v=49
35200 On ch=1 n=39 v=47
35200 On ch=1 n=49 v=47
35200 On ch=1 n=51 v=47
35231 Off ch=1 n=39 v=0
35231 Off ch=1 n=49 v=0
35231 Off ch=1 n=51 v=0
35242 Off ch=1 n=67 v=0
35242 Off ch=1 n=79 v=0
35242 On ch=1 n=73 v=49
35242 On ch=1 n=85 v=49
35242 On ch=1 n=39 v=48
35242 On ch=1 n=49 v=48
35242 On ch=1 n=51 v=48
35274 Off ch=1 n=39 v=0
35274 Off ch=1 n=49 v=0
35274 Off ch=1 n=51 v=0
35285 Off ch=1 n=73 v=0
35285 Off ch=1 n=85 v=0
35285 On ch=1 n=67 v=39
35285 On ch=1 n=79 v=39
35285 On ch=1 n=39 v=44
35285 On ch=1 n=49 v=44
35285 On ch=1 n=51 v=44
35315 Off ch=1 n=39 v=0
35315 Off ch=1 n=49 v=0
35315 Off ch=1 n=51 v=0
35325 Off ch=1 n=67 v=0
35325 Off ch=1 n=79 v=0
35328 On ch=1 n=68 v=44
35328 On ch=1 n=80 v=44
35328 On ch=1 n=44 v=41
35328 On ch=1 n=48 v=41
35328 On ch=1 n=51 v=41
35456 Off ch=1 n=68 v=0
35456 Off ch=1 n=80 v=0
35456 Off ch=1 n=44 v=0
35456 Off ch=1 n=48 v=0
35456 Off ch=1 n=51 v=0
35584 On ch=1 n=67 v=39
35584 On ch=1 n=63 v=37
35840 On ch=1 n=68 v=40
35840 On ch=1 n=56 v=36
35840 On ch=1 n=68 v=36
35845 Off ch=1 n=67 v=0
35845 Off ch=1 n=63 v=0
35961 Off ch=1 n=68 v=0
35961 Off ch=1 n=56 v=0
35961 Off ch=1 n=68 v=0
36096 On ch=1 n=67 v=40
36096 On ch=1 n=51 v=40
36096 On ch=1 n=61 v=40
36352 On ch=1 n=68 v=42
36352 On ch=1 n=56 v=38
36352 On ch=1 n=60 v=38
36357 Off ch=1 n=67 v=0
36357 Off ch=1 n=51 v=0
36357 Off ch=1 n=61 v=0
36473 Off ch=1 n=68 v=0
36473 Off ch=1 n=56 v=0
36473 Off ch=1 n=60 v=0
36603 On ch=1 n=60 v=41
36608 On ch=1 n=58 v=41
36608 Off ch=1 n=60 v=0
36608 On ch=1 n=39 v=36
36608 On ch=1 n=49 v=36
36647 Off ch=1 n=58 v=0
36650 On ch=1 n=57 v=45
36693 Off ch=1 n=57 v=0
36693 On ch=1 n=58 v=45
36736 Off ch=1 n=58 v=0
36736 On ch=1 n=61 v=43
36778 Off ch=1 n=61 v=0
36778 On ch=1 n=60 v=42
36818 Off ch=1 n=60 v=0
36821 On ch=1 n=58 v=45
36853 Off ch=1 n=58 v=0
36864 On ch=1 n=56 v=41
36864 On ch=1 n=44 v=44
36864 On ch=1 n=48 v=44
36874 Off ch=1 n=39 v=0
36874 Off ch=1 n=49 v=0
36921 Off ch=1 n=44 v=0
36921 Off ch=1 n=48 v=0
36928 Off ch=1 n=56 v=0
36992 On ch=1 n=48 v=37
36992 On ch=1 n=51 v=37
36992 On ch=1 n=32 v=38
37056 Off ch=1 n=48 v=0
37056 Off ch=1 n=51 v=0
37056 Off ch=1 n=32 v=0
37120 On ch=1 n=48 v=38
37120 On ch=1 n=56 v=38
37120 On ch=1 n=32 v=37
37120 On ch=1 n=44 v=37
37376 Off ch=1 n=48 v=0
37376 Off ch=1 n=56 v=0
37376 Off ch=1 n=32 v=0
37376 Off ch=1 n=44 v=0