0 Off ch=2 n=57 v=0
0 On ch=2 n=66 v=90
0 On ch=2 n=74 v=90
768 Off ch=2 n=74 v=0
798 Off ch=2 n=66 v=0
896 On ch=2 n=69 v=91
960 On ch=2 n=74 v=101
961 Off ch=2 n=69 v=0
1024 On ch=2 n=78 v=109
1025 Off ch=2 n=74 v=0
1194 Off ch=2 n=78 v=0
1408 On ch=2 n=74 v=90
1472 On ch=2 n=78 v=95
1473 Off ch=2 n=74 v=0
1536 On ch=2 n=81 v=106
1537 Off ch=2 n=78 v=0
1706 Off ch=2 n=81 v=0
1920 On ch=2 n=81 v=87
1984 On ch=2 n=78 v=79
1985 Off ch=2 n=81 v=0
2048 On ch=2 n=74 v=85
2049 Off ch=2 n=78 v=0
2218 Off ch=2 n=74 v=0
2944 On ch=2 n=78 v=91
3008 On ch=2 n=74 v=77
3009 Off ch=2 n=78 v=0
3072 On ch=2 n=69 v=84
3073 Off ch=2 n=74 v=0
3242 Off ch=2 n=69 v=0
3456 On ch=2 n=74 v=91
3520 On ch=2 n=69 v=76
3521 Off ch=2 n=74 v=0
3584 On ch=2 n=66 v=89
3585 Off ch=2 n=69 v=0
3754 Off ch=2 n=66 v=0
3968 On ch=2 n=69 v=89
4032 On ch=2 n=66 v=79
4033 Off ch=2 n=69 v=0
4096 On ch=2 n=62 v=82
4097 Off ch=2 n=66 v=0
4266 Off ch=2 n=62 v=0
4544 On ch=2 n=69 v=57
4608 Off ch=2 n=69 v=0
4608 On ch=2 n=81 v=91
5632 Off ch=2 n=81 v=0
5632 On ch=2 n=78 v=65
6080 On ch=2 n=74 v=57
6088 Off ch=2 n=78 v=0
6144 On ch=2 n=73 v=68
6145 Off ch=2 n=74 v=0
6387 Off ch=2 n=73 v=0
6592 On ch=2 n=69 v=59
6656 Off ch=2 n=69 v=0
6656 On ch=2 n=79 v=87
7680 Off ch=2 n=79 v=0
7680 On ch=2 n=76 v=64
8128 On ch=2 n=73 v=61
8136 Off ch=2 n=76 v=0
8192 On ch=2 n=74 v=73
8193 Off ch=2 n=73 v=0
8435 Off ch=2 n=74 v=0
8704 On ch=2 n=74 v=62
9728 Off ch=2 n=74 v=0
9728 On ch=2 n=74 v=86
10240 Off ch=2 n=74 v=0
10240 On ch=2 n=74 v=86
11008 On ch=2 n=73 v=91
11023 Off ch=2 n=74 v=0
11136 On ch=2 n=71 v=90
11138 Off ch=2 n=73 v=0
11257 Off ch=2 n=71 v=0
11264 On ch=2 n=71 v=72
11392 On ch=2 n=69 v=65
11394 Off ch=2 n=71 v=0
11520 On ch=2 n=67 v=72
11522 Off ch=2 n=69 v=0
11648 On ch=2 n=66 v=68
11650 Off ch=2 n=67 v=0
11769 Off ch=2 n=66 v=0
11776 On ch=2 n=66 v=70
11904 On ch=2 n=64 v=70
11906 Off ch=2 n=66 v=0
12032 On ch=2 n=62 v=62
12034 Off ch=2 n=64 v=0
12160 On ch=2 n=61 v=58
12162 Off ch=2 n=62 v=0
12281 Off ch=2 n=61 v=0
12288 On ch=2 n=62 v=72
12416 On ch=2 n=66 v=76
12418 Off ch=2 n=62 v=0
12544 On ch=2 n=69 v=73
12546 Off ch=2 n=66 v=0
12672 On ch=2 n=67 v=70
12674 Off ch=2 n=69 v=0
12800 On ch=2 n=66 v=69
12802 Off ch=2 n=67 v=0
12928 On ch=2 n=64 v=66
12930 Off ch=2 n=66 v=0
13056 On ch=2 n=62 v=67
13058 Off ch=2 n=64 v=0
13184 On ch=2 n=61 v=63
13186 Off ch=2 n=62 v=0
13312 On ch=2 n=62 v=72
13314 Off ch=2 n=61 v=0
13440 On ch=2 n=64 v=75
13442 Off ch=2 n=62 v=0
13568 On ch=2 n=66 v=75
13570 Off ch=2 n=64 v=0
13696 On ch=2 n=67 v=78
13698 Off ch=2 n=66 v=0
13824 On ch=2 n=69 v=77
13826 Off ch=2 n=67 v=0
13952 On ch=2 n=71 v=80
13954 Off ch=2 n=69 v=0
14080 On ch=2 n=73 v=77
14082 Off ch=2 n=71 v=0
14208 On ch=2 n=74 v=81
14210 Off ch=2 n=73 v=0
14329 Off ch=2 n=74 v=0
14336 On ch=2 n=69 v=66
14464 On ch=2 n=73 v=73
14466 Off ch=2 n=69 v=0
14592 On ch=2 n=76 v=79
14594 Off ch=2 n=73 v=0
14720 On ch=2 n=74 v=75
14722 Off ch=2 n=76 v=0
14848 On ch=2 n=73 v=70
14850 Off ch=2 n=74 v=0
14976 On ch=2 n=71 v=65
14978 Off ch=2 n=73 v=0
15104 On ch=2 n=69 v=63
15106 Off ch=2 n=71 v=0
15232 On ch=2 n=68 v=62
15234 Off ch=2 n=69 v=0
15360 On ch=2 n=69 v=77
15362 Off ch=2 n=68 v=0
15488 On ch=2 n=71 v=80
15490 Off ch=2 n=69 v=0
15616 On ch=2 n=73 v=75
15618 Off ch=2 n=71 v=0
15744 On ch=2 n=74 v=80
15746 Off ch=2 n=73 v=0
15872 On ch=2 n=76 v=76
15874 Off ch=2 n=74 v=0
16000 On ch=2 n=78 v=82
16002 Off ch=2 n=76 v=0
16128 On ch=2 n=79 v=69
16130 Off ch=2 n=78 v=0
16256 On ch=2 n=76 v=68
16258 Off ch=2 n=79 v=0
16377 Off ch=2 n=76 v=0
16384 On ch=2 n=74 v=65
16512 On ch=2 n=78 v=77
16514 Off ch=2 n=74 v=0
16640 On ch=2 n=81 v=81
16642 Off ch=2 n=78 v=0
16768 On ch=2 n=79 v=69
16770 Off ch=2 n=81 v=0
16896 On ch=2 n=78 v=70
16898 Off ch=2 n=79 v=0
17024 On ch=2 n=76 v=69
17026 Off ch=2 n=78 v=0
17152 On ch=2 n=74 v=65
17154 Off ch=2 n=76 v=0
17280 On ch=2 n=73 v=79
17282 Off ch=2 n=74 v=0
17408 On ch=2 n=74 v=89
17410 Off ch=2 n=73 v=0
17536 On ch=2 n=76 v=85
17538 Off ch=2 n=74 v=0
17664 On ch=2 n=78 v=85
17666 Off ch=2 n=76 v=0
17792 On ch=2 n=79 v=88
17794 Off ch=2 n=78 v=0
17920 On ch=2 n=81 v=87
17922 Off ch=2 n=79 v=0
18048 On ch=2 n=83 v=89
18050 Off ch=2 n=81 v=0
18176 On ch=2 n=84 v=92
18178 Off ch=2 n=83 v=0
18304 On ch=2 n=85 v=90
18306 Off ch=2 n=84 v=0
18425 Off ch=2 n=85 v=0
18432 On ch=2 n=86 v=92
18521 Off ch=2 n=86 v=0
18560 On ch=2 n=86 v=92
18688 On ch=2 n=85 v=82
18690 Off ch=2 n=86 v=0
18816 On ch=2 n=86 v=92
18818 Off ch=2 n=85 v=0
18944 On ch=2 n=85 v=87
18946 Off ch=2 n=86 v=0
19072 On ch=2 n=86 v=90
19074 Off ch=2 n=85 v=0
19200 On ch=2 n=88 v=102
19202 Off ch=2 n=86 v=0
19328 On ch=2 n=86 v=95
19330 Off ch=2 n=88 v=0
19449 Off ch=2 n=86 v=0
19456 On ch=2 n=85 v=90
19584 On ch=2 n=86 v=92
19586 Off ch=2 n=85 v=0
19712 On ch=2 n=88 v=100
19714 Off ch=2 n=86 v=0
19840 On ch=2 n=86 v=98
19842 Off ch=2 n=88 v=0
19968 On ch=2 n=85 v=93
19970 Off ch=2 n=86 v=0
20096 On ch=2 n=86 v=97
20098 Off ch=2 n=85 v=0
20224 On ch=2 n=88 v=105
20226 Off ch=2 n=86 v=0
20352 On ch=2 n=86 v=101
20354 Off ch=2 n=88 v=0
20473 Off ch=2 n=86 v=0
20480 On ch=2 n=85 v=89
20736 Off ch=2 n=85 v=0
20992 On ch=2 n=57 v=78
21056 On ch=2 n=67 v=98
21057 Off ch=2 n=57 v=0
21120 On ch=2 n=66 v=82
21121 Off ch=2 n=67 v=0
21184 On ch=2 n=67 v=86
21185 Off ch=2 n=66 v=0
21248 On ch=2 n=69 v=89
21249 Off ch=2 n=67 v=0
21312 On ch=2 n=67 v=81
21313 Off ch=2 n=69 v=0
21376 On ch=2 n=66 v=81
21377 Off ch=2 n=67 v=0
21440 On ch=2 n=67 v=83
21441 Off ch=2 n=66 v=0
21500 Off ch=2 n=67 v=0
21504 On ch=2 n=79 v=110
21760 Off ch=2 n=79 v=0
23040 On ch=2 n=66 v=77
23104 On ch=2 n=74 v=91
23105 Off ch=2 n=66 v=0
23168 On ch=2 n=73 v=85
23169 Off ch=2 n=74 v=0
23232 On ch=2 n=74 v=90
23233 Off ch=2 n=73 v=0
23296 On ch=2 n=76 v=89
23297 Off ch=2 n=74 v=0
23360 On ch=2 n=74 v=83
23361 Off ch=2 n=76 v=0
23424 On ch=2 n=73 v=80
23425 Off ch=2 n=74 v=0
23488 On ch=2 n=74 v=79
23489 Off ch=2 n=73 v=0
23548 Off ch=2 n=74 v=0
23552 On ch=2 n=78 v=95
23808 Off ch=2 n=78 v=0
25088 On ch=2 n=57 v=75
25152 On ch=2 n=67 v=89
25153 Off ch=2 n=57 v=0
25216 On ch=2 n=66 v=86
25217 Off ch=2 n=67 v=0
25280 On ch=2 n=67 v=92
25281 Off ch=2 n=66 v=0
25344 On ch=2 n=69 v=88
25345 Off ch=2 n=67 v=0
25408 On ch=2 n=67 v=82
25409 Off ch=2 n=69 v=0
25472 On ch=2 n=66 v=78
25473 Off ch=2 n=67 v=0
25536 On ch=2 n=67 v=84
25537 Off ch=2 n=66 v=0
25596 Off ch=2 n=67 v=0
25600 On ch=2 n=79 v=127
25920 Off ch=2 n=79 v=0
25920 On ch=2 n=78 v=107
25984 Off ch=2 n=78 v=0
25984 On ch=2 n=76 v=109
26048 Off ch=2 n=76 v=0
26048 On ch=2 n=74 v=102
26112 Off ch=2 n=74 v=0
26112 On ch=2 n=73 v=109
26176 Off ch=2 n=73 v=0
26176 On ch=2 n=71 v=105
26240 Off ch=2 n=71 v=0
26240 On ch=2 n=69 v=107
26304 Off ch=2 n=69 v=0
26304 On ch=2 n=67 v=103
26368 Off ch=2 n=67 v=0
26368 On ch=2 n=66 v=106
26432 Off ch=2 n=66 v=0
26432 On ch=2 n=64 v=105
26496 Off ch=2 n=64 v=0
26496 On ch=2 n=62 v=110
26560 Off ch=2 n=62 v=0
26560 On ch=2 n=61 v=108
26624 Off ch=2 n=61 v=0
26624 On ch=2 n=62 v=76
27604 Off ch=2 n=62 v=0
27604 On ch=2 n=62 v=70
27648 On ch=2 n=69 v=70
27648 On ch=2 n=78 v=66
27904 Off ch=2 n=62 v=0
27904 Off ch=2 n=69 v=0
28288 Off ch=2 n=78 v=0
28288 On ch=2 n=77 v=82
28352 On ch=2 n=78 v=86
28353 Off ch=2 n=77 v=0
28416 On ch=2 n=79 v=86
28417 Off ch=2 n=78 v=0
28480 On ch=2 n=78 v=84
28481 Off ch=2 n=79 v=0
28544 On ch=2 n=77 v=78
28545 Off ch=2 n=78 v=0
28608 On ch=2 n=78 v=79
28609 Off ch=2 n=77 v=0
28668 Off ch=2 n=78 v=0
28672 On ch=2 n=86 v=87
28928 Off ch=2 n=86 v=0
29696 On ch=2 n=86 v=62
30336 Off ch=2 n=86 v=0
30336 On ch=2 n=85 v=67
30400 On ch=2 n=86 v=72
30401 Off ch=2 n=85 v=0
30464 On ch=2 n=88 v=81
30465 Off ch=2 n=86 v=0
30528 On ch=2 n=86 v=78
30529 Off ch=2 n=88 v=0
30592 On ch=2 n=85 v=66
30593 Off ch=2 n=86 v=0
30656 On ch=2 n=86 v=65
30657 Off ch=2 n=85 v=0
30716 Off ch=2 n=86 v=0
30720 On ch=2 n=76 v=55
30976 Off ch=2 n=76 v=0
31744 On ch=2 n=76 v=66
32128 On ch=2 n=78 v=64
32135 Off ch=2 n=76 v=0
32256 On ch=2 n=80 v=75
32258 Off ch=2 n=78 v=0
32384 On ch=2 n=81 v=80
32386 Off ch=2 n=80 v=0
32512 On ch=2 n=83 v=82
32514 Off ch=2 n=81 v=0
32640 On ch=2 n=85 v=86
32642 Off ch=2 n=83 v=0
32761 Off ch=2 n=85 v=0
32768 On ch=2 n=86 v=121
33408 Off ch=2 n=86 v=0
33408 On ch=2 n=85 v=107
33472 On ch=2 n=83 v=101
33473 Off ch=2 n=85 v=0
33536 On ch=2 n=81 v=104
33537 Off ch=2 n=83 v=0
33600 On ch=2 n=80 v=99
33601 Off ch=2 n=81 v=0
33664 On ch=2 n=78 v=109
33665 Off ch=2 n=80 v=0
33728 On ch=2 n=76 v=101
33729 Off ch=2 n=78 v=0
33788 Off ch=2 n=76 v=0
33792 On ch=2 n=74 v=105
33881 Off ch=2 n=74 v=0
33920 On ch=2 n=73 v=107
33984 On ch=2 n=71 v=101
33985 Off ch=2 n=73 v=0
34048 On ch=2 n=69 v=103
34049 Off ch=2 n=71 v=0
34112 On ch=2 n=68 v=101
34113 Off ch=2 n=69 v=0
34176 On ch=2 n=66 v=106
34177 Off ch=2 n=68 v=0
34240 On ch=2 n=64 v=100
34241 Off ch=2 n=66 v=0
34300 Off ch=2 n=64 v=0
34304 On ch=2 n=62 v=105
34483 Off ch=2 n=62 v=0
34560 On ch=2 n=62 v=110
34739 Off ch=2 n=62 v=0
34816 On ch=2 n=61 v=105
34995 Off ch=2 n=61 v=0
35072 On ch=2 n=73 v=102
35251 Off ch=2 n=73 v=0
35584 On ch=2 n=73 v=83
35840 On ch=2 n=75 v=91
35845 Off ch=2 n=73 v=0
36010 Off ch=2 n=75 v=0
36096 On ch=2 n=75 v=99
36275 Off ch=2 n=75 v=0
36608 On ch=2 n=75 v=103
36864 On ch=2 n=76 v=105
36869 Off ch=2 n=75 v=0
37034 Off ch=2 n=76 v=0
37120 On ch=2 n=86 v=127
37504 Off ch=2 n=86 v=0
37504 On ch=2 n=85 v=109
37568 On ch=2 n=83 v=98
37569 Off ch=2 n=85 v=0
37632 On ch=2 n=81 v=103
37633 Off ch=2 n=83 v=0
37696 On ch=2 n=80 v=97
37697 Off ch=2 n=81 v=0
37760 On ch=2 n=78 v=103
37761 Off ch=2 n=80 v=0
37824 On ch=2 n=76 v=95
37825 Off ch=2 n=78 v=0
37884 Off ch=2 n=76 v=0
37888 On ch=2 n=74 v=103
37977 Off ch=2 n=74 v=0
38016 On ch=2 n=73 v=109
38080 On ch=2 n=71 v=104
38081 Off ch=2 n=73 v=0
38144 On ch=2 n=69 v=104
38145 Off ch=2 n=71 v=0
38208 On ch=2 n=68 v=97
38209 Off ch=2 n=69 v=0
38272 On ch=2 n=66 v=106
38273 Off ch=2 n=68 v=0
38336 On ch=2 n=64 v=97
38337 Off ch=2 n=66 v=0
38396 Off ch=2 n=64 v=0
38400 On ch=2 n=62 v=102
38579 Off ch=2 n=62 v=0
38656 On ch=2 n=62 v=115
38835 Off ch=2 n=62 v=0
38912 On ch=2 n=61 v=113
39936 Off ch=2 n=61 v=0
39936 On ch=2 n=63 v=118
40960 Off ch=2 n=63 v=0
40960 On ch=2 n=64 v=127
41049 Off ch=2 n=64 v=0
41088 On ch=2 n=66 v=121
41152 On ch=2 n=68 v=127
41153 Off ch=2 n=66 v=0
41216 On ch=2 n=69 v=115
41217 Off ch=2 n=68 v=0
41280 On ch=2 n=71 v=124
41281 Off ch=2 n=69 v=0
41344 On ch=2 n=73 v=122
41345 Off ch=2 n=71 v=0
41408 On ch=2 n=75 v=127
41409 Off ch=2 n=73 v=0
41468 Off ch=2 n=75 v=0
41472 On ch=2 n=76 v=127
41561 Off ch=2 n=76 v=0
41600 On ch=2 n=78 v=121
41664 On ch=2 n=80 v=125
41665 Off ch=2 n=78 v=0
41728 On ch=2 n=81 v=119
41729 Off ch=2 n=80 v=0
41792 On ch=2 n=83 v=127
41793 Off ch=2 n=81 v=0
41856 On ch=2 n=85 v=119
41857 Off ch=2 n=83 v=0
41920 On ch=2 n=87 v=127
41921 Off ch=2 n=85 v=0
41980 Off ch=2 n=87 v=0
41984 On ch=2 n=88 v=116
42163 Off ch=2 n=88 v=0
46976 On ch=2 n=62 v=56
47104 On ch=2 n=78 v=76
47106 Off ch=2 n=62 v=0
47488 On ch=2 n=74 v=70
47495 Off ch=2 n=78 v=0
47609 Off ch=2 n=74 v=0
47616 On ch=2 n=78 v=84
47744 On ch=2 n=76 v=78
47746 Off ch=2 n=78 v=0
47872 On ch=2 n=74 v=69
47874 Off ch=2 n=76 v=0
48000 On ch=2 n=73 v=69
48002 Off ch=2 n=74 v=0
48121 Off ch=2 n=73 v=0
48128 On ch=2 n=76 v=77
48256 On ch=2 n=74 v=76
48258 Off ch=2 n=76 v=0
48384 On ch=2 n=73 v=67
48386 Off ch=2 n=74 v=0
48512 On ch=2 n=71 v=61
48514 Off ch=2 n=73 v=0
48633 Off ch=2 n=71 v=0
48640 On ch=2 n=74 v=73
48768 On ch=2 n=73 v=73
48770 Off ch=2 n=74 v=0
48896 On ch=2 n=71 v=64
48898 Off ch=2 n=73 v=0
49024 On ch=2 n=69 v=60
49026 Off ch=2 n=71 v=0
49145 Off ch=2 n=69 v=0
49152 On ch=2 n=73 v=77
49280 On ch=2 n=71 v=73
49282 Off ch=2 n=73 v=0
49408 On ch=2 n=69 v=68
49410 Off ch=2 n=71 v=0
49536 On ch=2 n=68 v=62
49538 Off ch=2 n=69 v=0
49664 On ch=2 n=66 v=66
49666 Off ch=2 n=68 v=0
49792 On ch=2 n=64 v=58
49794 Off ch=2 n=66 v=0
49920 On ch=2 n=66 v=75
49922 Off ch=2 n=64 v=0
50048 On ch=2 n=68 v=83
50050 Off ch=2 n=66 v=0
50169 Off ch=2 n=68 v=0
50176 On ch=2 n=71 v=79
50688 On ch=2 n=69 v=75
50698 Off ch=2 n=71 v=0
50931 Off ch=2 n=69 v=0
51456 On ch=2 n=81 v=76
51712 On ch=2 n=78 v=62
51717 Off ch=2 n=81 v=0
51882 Off ch=2 n=78 v=0
51968 On ch=2 n=80 v=87
52224 On ch=2 n=77 v=78
52229 Off ch=2 n=80 v=0
52394 Off ch=2 n=77 v=0
52480 On ch=2 n=78 v=84
52736 On ch=2 n=75 v=72
52741 Off ch=2 n=78 v=0
52906 Off ch=2 n=75 v=0
52992 On ch=2 n=76 v=83
53248 On ch=2 n=73 v=80
53253 Off ch=2 n=76 v=0
53418 Off ch=2 n=73 v=0
53504 On ch=2 n=74 v=82
54016 On ch=2 n=70 v=71
54026 Off ch=2 n=74 v=0
54186 Off ch=2 n=70 v=0
54272 On ch=2 n=71 v=87
54451 Off ch=2 n=71 v=0
54528 On ch=2 n=66 v=73
54707 Off ch=2 n=66 v=0
54784 On ch=2 n=59 v=76
54963 Off ch=2 n=59 v=0
55040 On ch=2 n=66 v=83
55125 On ch=2 n=71 v=96
55126 Off ch=2 n=66 v=0
55210 On ch=2 n=74 v=79
55211 Off ch=2 n=71 v=0
55291 Off ch=2 n=74 v=0
55296 On ch=2 n=78 v=75
55680 On ch=2 n=74 v=69
55687 Off ch=2 n=78 v=0
55801 Off ch=2 n=74 v=0
55808 On ch=2 n=78 v=78
55893 On ch=2 n=76 v=72
55894 Off ch=2 n=78 v=0
55973 Off ch=2 n=76 v=0
55978 On ch=2 n=74 v=64
56038 Off ch=2 n=74 v=0
56064 On ch=2 n=73 v=65
56123 Off ch=2 n=73 v=0
56149 On ch=2 n=72 v=66
56208 Off ch=2 n=72 v=0
56234 On ch=2 n=73 v=73
56294 Off ch=2 n=73 v=0
56320 On ch=2 n=76 v=79
56405 On ch=2 n=74 v=67
56406 Off ch=2 n=76 v=0
56485 Off ch=2 n=74 v=0
56490 On ch=2 n=73 v=67
56550 Off ch=2 n=73 v=0
56576 On ch=2 n=71 v=69
56635 Off ch=2 n=71 v=0
56661 On ch=2 n=70 v=68
56720 Off ch=2 n=70 v=0
56746 On ch=2 n=71 v=83
56806 Off ch=2 n=71 v=0
56832 On ch=2 n=74 v=86
56917 On ch=2 n=73 v=78
56918 Off ch=2 n=74 v=0
56997 Off ch=2 n=73 v=0
57002 On ch=2 n=71 v=75
57062 Off ch=2 n=71 v=0
57088 On ch=2 n=69 v=73
57147 Off ch=2 n=69 v=0
57173 On ch=2 n=68 v=81
57232 Off ch=2 n=68 v=0
57258 On ch=2 n=69 v=88
57318 Off ch=2 n=69 v=0
57344 On ch=2 n=73 v=95
57429 On ch=2 n=71 v=86
57430 Off ch=2 n=73 v=0
57509 Off ch=2 n=71 v=0
57514 On ch=2 n=69 v=85
57574 Off ch=2 n=69 v=0
57600 On ch=2 n=68 v=82
57659 Off ch=2 n=68 v=0
57685 On ch=2 n=66 v=84
57744 Off ch=2 n=66 v=0
57770 On ch=2 n=64 v=85
57830 Off ch=2 n=64 v=0
57856 On ch=2 n=62 v=86
57915 Off ch=2 n=62 v=0
57941 On ch=2 n=66 v=101
58000 Off ch=2 n=66 v=0
58026 On ch=2 n=64 v=92
58086 Off ch=2 n=64 v=0
58112 On ch=2 n=62 v=80
58171 Off ch=2 n=62 v=0
58197 On ch=2 n=61 v=81
58256 Off ch=2 n=61 v=0
58282 On ch=2 n=59 v=82
58342 Off ch=2 n=59 v=0
58368 On ch=2 n=57 v=80
58624 Off ch=2 n=57 v=0
59904 On ch=2 n=69 v=77
60352 Off ch=2 n=69 v=0
60352 On ch=2 n=69 v=87
60416 Off ch=2 n=69 v=0
60416 On ch=2 n=81 v=76
61582 On ch=2 n=83 v=81
61607 On ch=2 n=81 v=81
61646 On ch=2 n=80 v=81
61671 On ch=2 n=81 v=81
61696 Off ch=2 n=81 v=0
61696 On ch=2 n=83 v=81
61696 Off ch=2 n=83 v=0
61696 Off ch=2 n=81 v=0
61696 Off ch=2 n=80 v=0
61696 Off ch=2 n=81 v=0
61785 Off ch=2 n=83 v=0
61824 On ch=2 n=81 v=67
61913 Off ch=2 n=81 v=0
61952 On ch=2 n=81 v=72
62041 Off ch=2 n=81 v=0
62080 On ch=2 n=79 v=68
62169 Off ch=2 n=79 v=0
62208 On ch=2 n=78 v=65
62297 Off ch=2 n=78 v=0
62336 On ch=2 n=79 v=74
62425 Off ch=2 n=79 v=0
62464 On ch=2 n=77 v=69
62976 On ch=2 n=78 v=72
62986 Off ch=2 n=77 v=0
63219 Off ch=2 n=78 v=0
64000 On ch=2 n=76 v=65
64448 Off ch=2 n=76 v=0
64448 On ch=2 n=76 v=73
64512 Off ch=2 n=76 v=0
64512 On ch=2 n=88 v=91
65280 Off ch=2 n=88 v=0
65280 On ch=2 n=88 v=76
65344 On ch=2 n=86 v=73
65345 Off ch=2 n=88 v=0
65408 On ch=2 n=85 v=67
65409 Off ch=2 n=86 v=0
65472 On ch=2 n=83 v=64
65473 Off ch=2 n=85 v=0
65532 Off ch=2 n=83 v=0
65536 On ch=2 n=85 v=65
65715 Off ch=2 n=85 v=0
66496 On ch=2 n=76 v=60
66560 Off ch=2 n=76 v=0
66560 On ch=2 n=88 v=75
67328 Off ch=2 n=88 v=0
67328 On ch=2 n=88 v=65
67392 On ch=2 n=86 v=60
67393 Off ch=2 n=88 v=0
67456 On ch=2 n=84 v=59
67457 Off ch=2 n=86 v=0
67520 On ch=2 n=83 v=54
67521 Off ch=2 n=84 v=0
67580 Off ch=2 n=83 v=0
67584 On ch=2 n=84 v=65
67763 Off ch=2 n=84 v=0
68544 On ch=2 n=72 v=63
68608 Off ch=2 n=72 v=0
68608 On ch=2 n=84 v=88
69376 Off ch=2 n=84 v=0
69376 On ch=2 n=84 v=75
69440 On ch=2 n=82 v=71
69441 Off ch=2 n=84 v=0
69504 On ch=2 n=81 v=70
69505 Off ch=2 n=82 v=0
69568 On ch=2 n=79 v=66
69569 Off ch=2 n=81 v=0
69628 Off ch=2 n=79 v=0
69632 On ch=2 n=81 v=76
69811 Off ch=2 n=81 v=0
70592 On ch=2 n=60 v=91
70656 Off ch=2 n=60 v=0
70656 On ch=2 n=72 v=125
71424 Off ch=2 n=72 v=0
71424 On ch=2 n=72 v=103
71488 On ch=2 n=70 v=98
71489 Off ch=2 n=72 v=0
71552 On ch=2 n=69 v=95
71553 Off ch=2 n=70 v=0
71616 On ch=2 n=67 v=88
71617 Off ch=2 n=69 v=0
71676 Off ch=2 n=67 v=0
71680 On ch=2 n=69 v=106
71859 Off ch=2 n=69 v=0
72448 On ch=2 n=57 v=52
72704 On ch=2 n=62 v=58
72709 Off ch=2 n=57 v=0
72874 Off ch=2 n=62 v=0
73472 On ch=2 n=62 v=56
73728 On ch=2 n=55 v=50
73733 Off ch=2 n=62 v=0
73898 Off ch=2 n=55 v=0
74496 On ch=2 n=60 v=53
74752 On ch=2 n=72 v=67
74757 Off ch=2 n=60 v=0
74922 Off ch=2 n=72 v=0
75008 On ch=2 n=70 v=58
75187 Off ch=2 n=70 v=0
75264 On ch=2 n=69 v=57
75443 Off ch=2 n=69 v=0
75520 On ch=2 n=67 v=52
75699 Off ch=2 n=67 v=0
75776 On ch=2 n=65 v=56
75865 Off ch=2 n=65 v=0
75904 On ch=2 n=84 v=76
75993 Off ch=2 n=84 v=0
76032 On ch=2 n=82 v=60
76121 Off ch=2 n=82 v=0
76160 On ch=2 n=81 v=62
76249 Off ch=2 n=81 v=0
76288 On ch=2 n=79 v=57
76544 On ch=2 n=77 v=50
76549 Off ch=2 n=79 v=0
76787 Off ch=2 n=77 v=0
76928 On ch=2 n=77 v=46
77017 Off ch=2 n=77 v=0
77056 On ch=2 n=76 v=46
77145 Off ch=2 n=76 v=0
77184 On ch=2 n=74 v=48
77273 Off ch=2 n=74 v=0
77312 On ch=2 n=72 v=47
77568 On ch=2 n=71 v=43
77573 Off ch=2 n=72 v=0
77811 Off ch=2 n=71 v=0
77952 On ch=2 n=74 v=45
78041 Off ch=2 n=74 v=0
78080 On ch=2 n=72 v=47
78169 Off ch=2 n=72 v=0
78208 On ch=2 n=71 v=48
78297 Off ch=2 n=71 v=0
78336 On ch=2 n=69 v=45
78592 On ch=2 n=68 v=41
78597 Off ch=2 n=69 v=0
78835 Off ch=2 n=68 v=0
80128 On ch=2 n=59 v=49
80384 On ch=2 n=62 v=50
80389 Off ch=2 n=59 v=0
80640 On ch=2 n=68 v=84
80645 Off ch=2 n=62 v=0
80883 Off ch=2 n=68 v=0
81152 On ch=2 n=61 v=64
81408 On ch=2 n=64 v=87
81413 Off ch=2 n=61 v=0
81664 On ch=2 n=70 v=101
81669 Off ch=2 n=64 v=0
81907 Off ch=2 n=70 v=0
82560 On ch=2 n=66 v=91
82688 On ch=2 n=64 v=81
82690 Off ch=2 n=66 v=0
82816 On ch=2 n=62 v=92
82818 Off ch=2 n=64 v=0
82944 On ch=2 n=61 v=91
82946 Off ch=2 n=62 v=0
83072 On ch=2 n=59 v=96
83074 Off ch=2 n=61 v=0
83200 On ch=2 n=70 v=123
83202 Off ch=2 n=59 v=0
83328 On ch=2 n=71 v=109
83330 Off ch=2 n=70 v=0
83449 Off ch=2 n=71 v=0
83456 On ch=2 n=73 v=105
83584 On ch=2 n=74 v=109
83586 Off ch=2 n=73 v=0
83712 On ch=2 n=78 v=110
83714 Off ch=2 n=74 v=0
83840 On ch=2 n=74 v=99
83842 Off ch=2 n=78 v=0
83961 Off ch=2 n=74 v=0
83968 On ch=2 n=74 v=64
84352 On ch=2 n=73 v=62
84359 Off ch=2 n=74 v=0
84480 On ch=2 n=71 v=57
84482 Off ch=2 n=73 v=0
84608 On ch=2 n=69 v=69
84610 Off ch=2 n=71 v=0
84736 On ch=2 n=68 v=66
84738 Off ch=2 n=69 v=0
84864 On ch=2 n=66 v=63
84866 Off ch=2 n=68 v=0
84992 On ch=2 n=64 v=55
84994 Off ch=2 n=66 v=0
85162 Off ch=2 n=64 v=0
85248 On ch=2 n=78 v=108
85376 On ch=2 n=76 v=106
85378 Off ch=2 n=78 v=0
85504 On ch=2 n=74 v=79
85506 Off ch=2 n=76 v=0
85632 On ch=2 n=73 v=70
85634 Off ch=2 n=74 v=0
85760 On ch=2 n=71 v=74
85762 Off ch=2 n=73 v=0
85888 On ch=2 n=69 v=67
85890 Off ch=2 n=71 v=0
86016 On ch=2 n=68 v=79
86018 Off ch=2 n=69 v=0
86186 Off ch=2 n=68 v=0
86272 On ch=2 n=80 v=125
86318 Off ch=2 n=80 v=0
86330 On ch=2 n=81 v=125
86376 Off ch=2 n=81 v=0
86387 On ch=2 n=80 v=125
86432 Off ch=2 n=80 v=0
86443 On ch=2 n=81 v=125
86487 Off ch=2 n=81 v=0
86499 On ch=2 n=80 v=125
86543 Off ch=2 n=80 v=0
86554 On ch=2 n=81 v=125
86598 Off ch=2 n=81 v=0
86608 On ch=2 n=80 v=125
86651 Off ch=2 n=80 v=0
86662 On ch=2 n=81 v=125
86705 Off ch=2 n=81 v=0
86715 On ch=2 n=80 v=125
86757 Off ch=2 n=80 v=0
86767 On ch=2 n=81 v=125
86808 Off ch=2 n=81 v=0
86819 On ch=2 n=80 v=125
86860 Off ch=2 n=80 v=0
86870 On ch=2 n=81 v=125
86910 Off ch=2 n=81 v=0
86921 On ch=2 n=80 v=125
86961 Off ch=2 n=80 v=0
86971 On ch=2 n=81 v=125
87011 Off ch=2 n=81 v=0
87020 On ch=2 n=80 v=125
87059 Off ch=2 n=80 v=0
87069 On ch=2 n=81 v=113
87108 Off ch=2 n=81 v=0
87117 On ch=2 n=80 v=113
87155 Off ch=2 n=80 v=0
87165 On ch=2 n=81 v=113
87203 Off ch=2 n=81 v=0
87212 On ch=2 n=80 v=113
87249 Off ch=2 n=80 v=0
87260 On ch=2 n=81 v=113
87298 Off ch=2 n=81 v=0
87308 On ch=2 n=80 v=113
87346 Off ch=2 n=80 v=0
87357 On ch=2 n=81 v=113
87396 Off ch=2 n=81 v=0
87406 On ch=2 n=80 v=113
87445 Off ch=2 n=80 v=0
87456 On ch=2 n=81 v=113
87496 Off ch=2 n=81 v=0
87507 On ch=2 n=80 v=113
87547 Off ch=2 n=80 v=0
87558 On ch=2 n=81 v=113
87598 Off ch=2 n=81 v=0
87610 On ch=2 n=80 v=113
87651 Off ch=2 n=80 v=0
87663 On ch=2 n=81 v=113
87705 Off ch=2 n=81 v=0
87716 On ch=2 n=80 v=113
87758 Off ch=2 n=80 v=0
87770 On ch=2 n=81 v=113
87813 Off ch=2 n=81 v=0
87825 On ch=2 n=80 v=113
87869 Off ch=2 n=80 v=0
87880 On ch=2 n=81 v=113
87924 Off ch=2 n=81 v=0
87936 On ch=2 n=80 v=113
87980 Off ch=2 n=80 v=0
87991 On ch=2 n=78 v=116
87993 On ch=2 n=81 v=116
88030 On ch=2 n=80 v=116
88038 Off ch=2 n=81 v=0
88050 On ch=2 n=80 v=116
88063 Off ch=2 n=80 v=0
88064 On ch=2 n=69 v=113
88064 On ch=2 n=81 v=113
88064 Off ch=2 n=78 v=0
88064 Off ch=2 n=80 v=0
88404 Off ch=2 n=69 v=0
88404 Off ch=2 n=81 v=0
88576 On ch=2 n=76 v=100
88934 Off ch=2 n=76 v=0
89088 On ch=2 n=78 v=117
89446 Off ch=2 n=78 v=0
89600 On ch=2 n=74 v=98
89958 Off ch=2 n=74 v=0
90597 On ch=2 n=56 v=101
90624 Off ch=2 n=56 v=0
90624 On ch=2 n=64 v=101
90624 On ch=2 n=71 v=101
90803 Off ch=2 n=64 v=0
90803 Off ch=2 n=71 v=0
90880 On ch=2 n=64 v=94
91059 Off ch=2 n=64 v=0
91621 On ch=2 n=57 v=103
91648 Off ch=2 n=57 v=0
91648 On ch=2 n=64 v=103
91648 On ch=2 n=73 v=103
91827 Off ch=2 n=64 v=0
91827 Off ch=2 n=73 v=0
91904 On ch=2 n=69 v=101
92083 Off ch=2 n=69 v=0
92416 On ch=2 n=74 v=54
92672 Off ch=2 n=74 v=0
92928 On ch=2 n=69 v=65
92928 On ch=2 n=76 v=65
93184 Off ch=2 n=69 v=0
93184 Off ch=2 n=76 v=0
93413 On ch=2 n=62 v=78
93440 Off ch=2 n=62 v=0
93440 On ch=2 n=69 v=78
93440 On ch=2 n=78 v=78
93696 Off ch=2 n=69 v=0
93696 Off ch=2 n=78 v=0
93925 On ch=2 n=64 v=83
93952 Off ch=2 n=64 v=0
93952 On ch=2 n=74 v=83
93952 On ch=2 n=80 v=83
94208 Off ch=2 n=74 v=0
94208 Off ch=2 n=80 v=0
95232 On ch=2 n=81 v=118
95552 On ch=2 n=80 v=113
95558 Off ch=2 n=81 v=0
95616 On ch=2 n=78 v=93
95617 Off ch=2 n=80 v=0
95680 On ch=2 n=76 v=81
95681 Off ch=2 n=78 v=0
95744 On ch=2 n=75 v=91
95745 Off ch=2 n=76 v=0
95808 On ch=2 n=76 v=93
95809 Off ch=2 n=75 v=0
95872 On ch=2 n=78 v=105
95873 Off ch=2 n=76 v=0
95936 On ch=2 n=76 v=99
95937 Off ch=2 n=78 v=0
96000 On ch=2 n=74 v=90
96001 Off ch=2 n=76 v=0
96064 On ch=2 n=73 v=92
96065 Off ch=2 n=74 v=0
96128 On ch=2 n=71 v=90
96129 Off ch=2 n=73 v=0
96192 On ch=2 n=69 v=81
96193 Off ch=2 n=71 v=0
96252 Off ch=2 n=69 v=0
96256 On ch=2 n=68 v=93
96435 Off ch=2 n=68 v=0
97280 On ch=2 n=69 v=99
97600 On ch=2 n=68 v=90
97606 Off ch=2 n=69 v=0
97664 On ch=2 n=66 v=93
97665 Off ch=2 n=68 v=0
97728 On ch=2 n=64 v=90
97729 Off ch=2 n=66 v=0
97792 On ch=2 n=63 v=92
97793 Off ch=2 n=64 v=0
97856 On ch=2 n=64 v=96
97857 Off ch=2 n=63 v=0
97920 On ch=2 n=66 v=102
97921 Off ch=2 n=64 v=0
97984 On ch=2 n=64 v=96
97985 Off ch=2 n=66 v=0
98048 On ch=2 n=62 v=94
98049 Off ch=2 n=64 v=0
98112 On ch=2 n=61 v=90
98113 Off ch=2 n=62 v=0
98176 On ch=2 n=59 v=98
98177 Off ch=2 n=61 v=0
98240 On ch=2 n=57 v=90
98241 Off ch=2 n=59 v=0
98300 Off ch=2 n=57 v=0
98304 On ch=2 n=56 v=92
98483 Off ch=2 n=56 v=0
98560 On ch=2 n=74 v=125
98880 On ch=2 n=73 v=119
98886 Off ch=2 n=74 v=0
98944 On ch=2 n=71 v=92
98945 Off ch=2 n=73 v=0
99008 On ch=2 n=69 v=83
99009 Off ch=2 n=71 v=0
99072 On ch=2 n=68 v=95
99073 Off ch=2 n=69 v=0
99136 On ch=2 n=66 v=92
99137 Off ch=2 n=68 v=0
99200 On ch=2 n=64 v=90
99201 Off ch=2 n=66 v=0
99264 On ch=2 n=62 v=89
99265 Off ch=2 n=64 v=0
99324 Off ch=2 n=62 v=0
99328 On ch=2 n=61 v=104
99392 On ch=2 n=62 v=111
99393 Off ch=2 n=61 v=0
99456 On ch=2 n=64 v=118
99457 Off ch=2 n=62 v=0
99520 On ch=2 n=66 v=127
99521 Off ch=2 n=64 v=0
99584 On ch=2 n=68 v=127
99585 Off ch=2 n=66 v=0
99648 On ch=2 n=69 v=127
99649 Off ch=2 n=68 v=0
99712 On ch=2 n=71 v=120
99713 Off ch=2 n=69 v=0
99776 On ch=2 n=73 v=127
99777 Off ch=2 n=71 v=0
99840 On ch=2 n=74 v=114
99841 Off ch=2 n=73 v=0
99904 On ch=2 n=76 v=123
99905 Off ch=2 n=74 v=0
99968 On ch=2 n=78 v=121
99969 Off ch=2 n=76 v=0
100032 On ch=2 n=80 v=127
100033 Off ch=2 n=78 v=0
100096 On ch=2 n=81 v=120
100097 Off ch=2 n=80 v=0
100160 On ch=2 n=83 v=127
100161 Off ch=2 n=81 v=0
100224 On ch=2 n=85 v=117
100225 Off ch=2 n=83 v=0
100288 On ch=2 n=86 v=121
100289 Off ch=2 n=85 v=0
100348 Off ch=2 n=86 v=0
100352 On ch=2 n=88 v=120
100531 Off ch=2 n=88 v=0
100608 On ch=2 n=89 v=120
100787 Off ch=2 n=89 v=0
100864 On ch=2 n=90 v=120
101043 Off ch=2 n=90 v=0
101120 On ch=2 n=93 v=121
101299 Off ch=2 n=93 v=0
101376 On ch=2 n=76 v=81
101632 Off ch=2 n=76 v=0
101863 On ch=2 n=64 v=100
101888 Off ch=2 n=64 v=0
101888 On ch=2 n=74 v=100
101888 On ch=2 n=80 v=100
102144 Off ch=2 n=74 v=0
102144 Off ch=2 n=80 v=0
102375 On ch=2 n=57 v=104
102375 On ch=2 n=64 v=104
102400 Off ch=2 n=57 v=0
102400 Off ch=2 n=64 v=0
102400 On ch=2 n=73 v=104
102400 On ch=2 n=81 v=104
102656 Off ch=2 n=73 v=0
102656 Off ch=2 n=81 v=0
103394 On ch=2 n=57 v=88
103424 Off ch=2 n=57 v=0
103424 On ch=2 n=66 v=88
103424 On ch=2 n=74 v=88
104192 Off ch=2 n=74 v=0
104222 Off ch=2 n=66 v=0
104320 On ch=2 n=69 v=91
104384 On ch=2 n=74 v=100
104385 Off ch=2 n=69 v=0
104448 On ch=2 n=78 v=110
104449 Off ch=2 n=74 v=0
104618 Off ch=2 n=78 v=0
104832 On ch=2 n=74 v=89
104896 On ch=2 n=78 v=96
104897 Off ch=2 n=74 v=0
104960 On ch=2 n=81 v=108
104961 Off ch=2 n=78 v=0
105130 Off ch=2 n=81 v=0
105344 On ch=2 n=81 v=86
105408 On ch=2 n=78 v=75
105409 Off ch=2 n=81 v=0
105472 On ch=2 n=74 v=88
105473 Off ch=2 n=78 v=0
105642 Off ch=2 n=74 v=0
106368 On ch=2 n=78 v=89
106432 On ch=2 n=74 v=77
106433 Off ch=2 n=78 v=0
106496 On ch=2 n=69 v=86
106497 Off ch=2 n=74 v=0
106666 Off ch=2 n=69 v=0
106880 On ch=2 n=74 v=87
106944 On ch=2 n=69 v=74
106945 Off ch=2 n=74 v=0
107008 On ch=2 n=66 v=86
107009 Off ch=2 n=69 v=0
107178 Off ch=2 n=66 v=0
107392 On ch=2 n=69 v=86
107456 On ch=2 n=66 v=81
107457 Off ch=2 n=69 v=0
107520 On ch=2 n=62 v=93
107521 Off ch=2 n=66 v=0
107690 Off ch=2 n=62 v=0
107968 On ch=2 n=69 v=53
108032 Off ch=2 n=69 v=0
108032 On ch=2 n=81 v=92
109056 Off ch=2 n=81 v=0
109056 On ch=2 n=78 v=65
109504 On ch=2 n=74 v=58
109512 Off ch=2 n=78 v=0
109568 On ch=2 n=73 v=63
109569 Off ch=2 n=74 v=0
109811 Off ch=2 n=73 v=0
110016 On ch=2 n=69 v=65
110080 Off ch=2 n=69 v=0
110080 On ch=2 n=79 v=83
111104 Off ch=2 n=79 v=0
111104 On ch=2 n=76 v=65
111552 On ch=2 n=73 v=59
111560 Off ch=2 n=76 v=0
111616 On ch=2 n=74 v=73
111617 Off ch=2 n=73 v=0
111859 Off ch=2 n=74 v=0
112128 On ch=2 n=74 v=64
113152 Off ch=2 n=74 v=0
113152 On ch=2 n=74 v=82
113664 Off ch=2 n=74 v=0
113664 On ch=2 n=74 v=87
114432 On ch=2 n=73 v=92
114447 Off ch=2 n=74 v=0
114560 On ch=2 n=71 v=86
114562 Off ch=2 n=73 v=0
114681 Off ch=2 n=71 v=0
114688 On ch=2 n=71 v=71
114816 On ch=2 n=69 v=69
114818 Off ch=2 n=71 v=0
114944 On ch=2 n=67 v=66
114946 Off ch=2 n=69 v=0
115072 On ch=2 n=66 v=64
115074 Off ch=2 n=67 v=0
115193 Off ch=2 n=66 v=0
115200 On ch=2 n=66 v=69
115328 On ch=2 n=64 v=71
115330 Off ch=2 n=66 v=0
115456 On ch=2 n=62 v=66
115458 Off ch=2 n=64 v=0
115584 On ch=2 n=61 v=60
115586 Off ch=2 n=62 v=0
115705 Off ch=2 n=61 v=0
115712 On ch=2 n=62 v=75
115840 On ch=2 n=66 v=86
115842 Off ch=2 n=62 v=0
115968 On ch=2 n=69 v=74
115970 Off ch=2 n=66 v=0
116096 On ch=2 n=67 v=70
116098 Off ch=2 n=69 v=0
116224 On ch=2 n=66 v=70
116226 Off ch=2 n=67 v=0
116352 On ch=2 n=64 v=67
116354 Off ch=2 n=66 v=0
116480 On ch=2 n=62 v=62
116482 Off ch=2 n=64 v=0
116608 On ch=2 n=61 v=60
116610 Off ch=2 n=62 v=0
116736 On ch=2 n=62 v=73
116738 Off ch=2 n=61 v=0
116864 On ch=2 n=64 v=74
116866 Off ch=2 n=62 v=0
116992 On ch=2 n=66 v=74
116994 Off ch=2 n=64 v=0
117120 On ch=2 n=67 v=80
117122 Off ch=2 n=66 v=0
117248 On ch=2 n=69 v=76
117250 Off ch=2 n=67 v=0
117376 On ch=2 n=71 v=80
117378 Off ch=2 n=69 v=0
117504 On ch=2 n=73 v=72
117506 Off ch=2 n=71 v=0
117632 On ch=2 n=74 v=75
117634 Off ch=2 n=73 v=0
117753 Off ch=2 n=74 v=0
117760 On ch=2 n=69 v=62
117888 On ch=2 n=73 v=65
117890 Off ch=2 n=69 v=0
118016 On ch=2 n=76 v=74
118018 Off ch=2 n=73 v=0
118144 On ch=2 n=74 v=71
118146 Off ch=2 n=76 v=0
118272 On ch=2 n=73 v=64
118274 Off ch=2 n=74 v=0
118400 On ch=2 n=71 v=61
118402 Off ch=2 n=73 v=0
118528 On ch=2 n=69 v=69
118530 Off ch=2 n=71 v=0
118656 On ch=2 n=68 v=63
118658 Off ch=2 n=69 v=0
118784 On ch=2 n=69 v=74
118786 Off ch=2 n=68 v=0
118912 On ch=2 n=71 v=84
118914 Off ch=2 n=69 v=0
119040 On ch=2 n=73 v=77
119042 Off ch=2 n=71 v=0
119168 On ch=2 n=74 v=81
119170 Off ch=2 n=73 v=0
119296 On ch=2 n=76 v=74
119298 Off ch=2 n=74 v=0
119424 On ch=2 n=78 v=78
119426 Off ch=2 n=76 v=0
119552 On ch=2 n=79 v=73
119554 Off ch=2 n=78 v=0
119680 On ch=2 n=76 v=66
119682 Off ch=2 n=79 v=0
119801 Off ch=2 n=76 v=0
119808 On ch=2 n=74 v=67
119936 On ch=2 n=78 v=79
119938 Off ch=2 n=74 v=0
120064 On ch=2 n=81 v=76
120066 Off ch=2 n=78 v=0
120192 On ch=2 n=79 v=70
120194 Off ch=2 n=81 v=0
120320 On ch=2 n=78 v=73
120322 Off ch=2 n=79 v=0
120448 On ch=2 n=76 v=68
120450 Off ch=2 n=78 v=0
120576 On ch=2 n=74 v=74
120578 Off ch=2 n=76 v=0
120704 On ch=2 n=73 v=70
120706 Off ch=2 n=74 v=0
120832 On ch=2 n=74 v=83
120834 Off ch=2 n=73 v=0
120960 On ch=2 n=76 v=92
120962 Off ch=2 n=74 v=0
121088 On ch=2 n=78 v=88
121090 Off ch=2 n=76 v=0
121216 On ch=2 n=79 v=84
121218 Off ch=2 n=78 v=0
121344 On ch=2 n=81 v=90
121346 Off ch=2 n=79 v=0
121472 On ch=2 n=83 v=88
121474 Off ch=2 n=81 v=0
121600 On ch=2 n=84 v=90
121602 Off ch=2 n=83 v=0
121728 On ch=2 n=85 v=92
121730 Off ch=2 n=84 v=0
121849 Off ch=2 n=85 v=0
121856 On ch=2 n=86 v=89
121945 Off ch=2 n=86 v=0
121984 On ch=2 n=86 v=89
122112 On ch=2 n=85 v=89
122114 Off ch=2 n=86 v=0
122240 On ch=2 n=86 v=92
122242 Off ch=2 n=85 v=0
122368 On ch=2 n=85 v=83
122370 Off ch=2 n=86 v=0
122496 On ch=2 n=86 v=100
122498 Off ch=2 n=85 v=0
122624 On ch=2 n=88 v=101
122626 Off ch=2 n=86 v=0
122752 On ch=2 n=86 v=94
122754 Off ch=2 n=88 v=0
122873 Off ch=2 n=86 v=0
122880 On ch=2 n=85 v=93
123008 On ch=2 n=86 v=96
123010 Off ch=2 n=85 v=0
123136 On ch=2 n=88 v=100
123138 Off ch=2 n=86 v=0
123264 On ch=2 n=86 v=92
123266 Off ch=2 n=88 v=0
123392 On ch=2 n=85 v=92
123394 Off ch=2 n=86 v=0
123520 On ch=2 n=86 v=96
123522 Off ch=2 n=85 v=0
123648 On ch=2 n=88 v=109
123650 Off ch=2 n=86 v=0
123776 On ch=2 n=86 v=102
123778 Off ch=2 n=88 v=0
123897 Off ch=2 n=86 v=0
123904 On ch=2 n=85 v=87
124160 Off ch=2 n=85 v=0
124416 On ch=2 n=57 v=77
124480 On ch=2 n=67 v=93
124481 Off ch=2 n=57 v=0
124544 On ch=2 n=66 v=83
124545 Off ch=2 n=67 v=0
124608 On ch=2 n=67 v=82
124609 Off ch=2 n=66 v=0
124672 On ch=2 n=69 v=89
124673 Off ch=2 n=67 v=0
124736 On ch=2 n=67 v=84
124737 Off ch=2 n=69 v=0
124800 On ch=2 n=66 v=80
124801 Off ch=2 n=67 v=0
124864 On ch=2 n=67 v=83
124865 Off ch=2 n=66 v=0
124924 Off ch=2 n=67 v=0
124928 On ch=2 n=79 v=103
125184 Off ch=2 n=79 v=0
126464 On ch=2 n=66 v=78
126528 On ch=2 n=74 v=90
126529 Off ch=2 n=66 v=0
126592 On ch=2 n=73 v=83
126593 Off ch=2 n=74 v=0
126656 On ch=2 n=74 v=87
126657 Off ch=2 n=73 v=0
126720 On ch=2 n=76 v=91
126721 Off ch=2 n=74 v=0
126784 On ch=2 n=74 v=87
126785 Off ch=2 n=76 v=0
126848 On ch=2 n=73 v=75
126849 Off ch=2 n=74 v=0
126912 On ch=2 n=74 v=80
126913 Off ch=2 n=73 v=0
126972 Off ch=2 n=74 v=0
126976 On ch=2 n=78 v=89
127232 Off ch=2 n=78 v=0
128512 On ch=2 n=57 v=73
128576 On ch=2 n=67 v=87
128577 Off ch=2 n=57 v=0
128640 On ch=2 n=66 v=83
128641 Off ch=2 n=67 v=0
128704 On ch=2 n=67 v=87
128705 Off ch=2 n=66 v=0
128768 On ch=2 n=69 v=87
128769 Off ch=2 n=67 v=0
128832 On ch=2 n=67 v=83
128833 Off ch=2 n=69 v=0
128896 On ch=2 n=66 v=74
128897 Off ch=2 n=67 v=0
128960 On ch=2 n=67 v=79
128961 Off ch=2 n=66 v=0
129020 Off ch=2 n=67 v=0
129024 On ch=2 n=79 v=127
129344 Off ch=2 n=79 v=0
129344 On ch=2 n=78 v=107
129408 Off ch=2 n=78 v=0
129408 On ch=2 n=76 v=104
129472 Off ch=2 n=76 v=0
129472 On ch=2 n=74 v=106
129536 Off ch=2 n=74 v=0
129536 On ch=2 n=73 v=107
129600 Off ch=2 n=73 v=0
129600 On ch=2 n=71 v=102
129664 Off ch=2 n=71 v=0
129664 On ch=2 n=69 v=106
129728 Off ch=2 n=69 v=0
129728 On ch=2 n=67 v=103
129792 Off ch=2 n=67 v=0
129792 On ch=2 n=66 v=110
129856 Off ch=2 n=66 v=0
129856 On ch=2 n=64 v=108
129920 Off ch=2 n=64 v=0
129920 On ch=2 n=62 v=104
129984 Off ch=2 n=62 v=0
129984 On ch=2 n=61 v=107
130048 Off ch=2 n=61 v=0
130048 On ch=2 n=62 v=72
131028 Off ch=2 n=62 v=0
131028 On ch=2 n=62 v=72
131072 On ch=2 n=69 v=72
131072 On ch=2 n=78 v=79
131328 Off ch=2 n=62 v=0
131328 Off ch=2 n=69 v=0
131712 Off ch=2 n=78 v=0
131712 On ch=2 n=77 v=79
131776 On ch=2 n=78 v=82
131777 Off ch=2 n=77 v=0
131840 On ch=2 n=79 v=84
131841 Off ch=2 n=78 v=0
131904 On ch=2 n=78 v=78
131905 Off ch=2 n=79 v=0
131968 On ch=2 n=77 v=81
131969 Off ch=2 n=78 v=0
132032 On ch=2 n=78 v=87
132033 Off ch=2 n=77 v=0
132092 Off ch=2 n=78 v=0
132096 On ch=2 n=86 v=90
132352 Off ch=2 n=86 v=0
133120 On ch=2 n=86 v=68
133760 Off ch=2 n=86 v=0
133760 On ch=2 n=85 v=64
133824 On ch=2 n=86 v=66
133825 Off ch=2 n=85 v=0
133888 On ch=2 n=88 v=75
133889 Off ch=2 n=86 v=0
133952 On ch=2 n=86 v=70
133953 Off ch=2 n=88 v=0
134016 On ch=2 n=85 v=65
134017 Off ch=2 n=86 v=0
134080 On ch=2 n=86 v=71
134081 Off ch=2 n=85 v=0
134140 Off ch=2 n=86 v=0
134144 On ch=2 n=76 v=51
134400 Off ch=2 n=76 v=0
135168 On ch=2 n=76 v=62
135552 On ch=2 n=78 v=61
135559 Off ch=2 n=76 v=0
135680 On ch=2 n=80 v=81
135682 Off ch=2 n=78 v=0
135808 On ch=2 n=81 v=90
135810 Off ch=2 n=80 v=0
135936 On ch=2 n=83 v=73
135938 Off ch=2 n=81 v=0
136064 On ch=2 n=85 v=81
136066 Off ch=2 n=83 v=0
136185 Off ch=2 n=85 v=0
136192 On ch=2 n=86 v=120
136832 Off ch=2 n=86 v=0
136832 On ch=2 n=85 v=107
136896 On ch=2 n=83 v=102
136897 Off ch=2 n=85 v=0
136960 On ch=2 n=81 v=105
136961 Off ch=2 n=83 v=0
137024 On ch=2 n=80 v=102
137025 Off ch=2 n=81 v=0
137088 On ch=2 n=78 v=104
137089 Off ch=2 n=80 v=0
137152 On ch=2 n=76 v=94
137153 Off ch=2 n=78 v=0
137212 Off ch=2 n=76 v=0
137216 On ch=2 n=74 v=102
137305 Off ch=2 n=74 v=0
137344 On ch=2 n=73 v=104
137408 On ch=2 n=71 v=102
137409 Off ch=2 n=73 v=0
137472 On ch=2 n=69 v=103
137473 Off ch=2 n=71 v=0
137536 On ch=2 n=68 v=94
137537 Off ch=2 n=69 v=0
137600 On ch=2 n=66 v=106
137601 Off ch=2 n=68 v=0
137664 On ch=2 n=64 v=94
137665 Off ch=2 n=66 v=0
137724 Off ch=2 n=64 v=0
137728 On ch=2 n=62 v=105
137907 Off ch=2 n=62 v=0
137984 On ch=2 n=62 v=114
138163 Off ch=2 n=62 v=0
138240 On ch=2 n=61 v=103
138419 Off ch=2 n=61 v=0
138496 On ch=2 n=73 v=106
138675 Off ch=2 n=73 v=0
139008 On ch=2 n=73 v=88
139264 On ch=2 n=75 v=96
139269 Off ch=2 n=73 v=0
139434 Off ch=2 n=75 v=0
139520 On ch=2 n=75 v=99
139699 Off ch=2 n=75 v=0
140032 On ch=2 n=75 v=103
140288 On ch=2 n=76 v=103
140293 Off ch=2 n=75 v=0
140458 Off ch=2 n=76 v=0
140544 On ch=2 n=86 v=127
140928 Off ch=2 n=86 v=0
140928 On ch=2 n=85 v=109
140992 On ch=2 n=83 v=102
140993 Off ch=2 n=85 v=0
141056 On ch=2 n=81 v=109
141057 Off ch=2 n=83 v=0
141120 On ch=2 n=80 v=102
141121 Off ch=2 n=81 v=0
141184 On ch=2 n=78 v=104
141185 Off ch=2 n=80 v=0
141248 On ch=2 n=76 v=98
141249 Off ch=2 n=78 v=0
141308 Off ch=2 n=76 v=0
141312 On ch=2 n=74 v=106
141401 Off ch=2 n=74 v=0
141440 On ch=2 n=73 v=105
141504 On ch=2 n=71 v=97
141505 Off ch=2 n=73 v=0
141568 On ch=2 n=69 v=103
141569 Off ch=2 n=71 v=0
141632 On ch=2 n=68 v=103
141633 Off ch=2 n=69 v=0
141696 On ch=2 n=66 v=103
141697 Off ch=2 n=68 v=0
141760 On ch=2 n=64 v=106
141761 Off ch=2 n=66 v=0
141820 Off ch=2 n=64 v=0
141824 On ch=2 n=62 v=109
142003 Off ch=2 n=62 v=0
142080 On ch=2 n=62 v=110
142259 Off ch=2 n=62 v=0
142336 On ch=2 n=61 v=105
143360 Off ch=2 n=61 v=0
143360 On ch=2 n=63 v=121
144384 Off ch=2 n=63 v=0
144384 On ch=2 n=64 v=127
144473 Off ch=2 n=64 v=0
144512 On ch=2 n=66 v=121
144576 On ch=2 n=68 v=127
144577 Off ch=2 n=66 v=0
144640 On ch=2 n=69 v=123
144641 Off ch=2 n=68 v=0
144704 On ch=2 n=71 v=127
144705 Off ch=2 n=69 v=0
144768 On ch=2 n=73 v=121
144769 Off ch=2 n=71 v=0
144832 On ch=2 n=75 v=127
144833 Off ch=2 n=73 v=0
144892 Off ch=2 n=75 v=0
144896 On ch=2 n=76 v=127
144985 Off ch=2 n=76 v=0
145024 On ch=2 n=78 v=126
145088 On ch=2 n=80 v=127
145089 Off ch=2 n=78 v=0
145152 On ch=2 n=81 v=119
145153 Off ch=2 n=80 v=0
145216 On ch=2 n=83 v=127
145217 Off ch=2 n=81 v=0
145280 On ch=2 n=85 v=121
145281 Off ch=2 n=83 v=0
145344 On ch=2 n=87 v=127
145345 Off ch=2 n=85 v=0
145404 Off ch=2 n=87 v=0
145408 On ch=2 n=88 v=121
145587 Off ch=2 n=88 v=0
150400 On ch=2 n=62 v=52
150528 On ch=2 n=78 v=68
150530 Off ch=2 n=62 v=0
150912 On ch=2 n=74 v=64
150919 Off ch=2 n=78 v=0
151033 Off ch=2 n=74 v=0
151040 On ch=2 n=78 v=81
151168 On ch=2 n=76 v=73
151170 Off ch=2 n=78 v=0
151296 On ch=2 n=74 v=67
151298 Off ch=2 n=76 v=0
151424 On ch=2 n=73 v=59
151426 Off ch=2 n=74 v=0
151545 Off ch=2 n=73 v=0
151552 On ch=2 n=76 v=72
151680 On ch=2 n=74 v=63
151682 Off ch=2 n=76 v=0
151808 On ch=2 n=73 v=66
151810 Off ch=2 n=74 v=0
151936 On ch=2 n=71 v=59
151938 Off ch=2 n=73 v=0
152057 Off ch=2 n=71 v=0
152064 On ch=2 n=74 v=78
152192 On ch=2 n=73 v=79
152194 Off ch=2 n=74 v=0
152320 On ch=2 n=71 v=67
152322 Off ch=2 n=73 v=0
152448 On ch=2 n=69 v=60
152450 Off ch=2 n=71 v=0
152569 Off ch=2 n=69 v=0
152576 On ch=2 n=73 v=81
152704 On ch=2 n=71 v=74
152706 Off ch=2 n=73 v=0
152832 On ch=2 n=69 v=67
152834 Off ch=2 n=71 v=0
152960 On ch=2 n=68 v=65
152962 Off ch=2 n=69 v=0
153088 On ch=2 n=66 v=71
153090 Off ch=2 n=68 v=0
153216 On ch=2 n=64 v=72
153218 Off ch=2 n=66 v=0
153344 On ch=2 n=66 v=78
153346 Off ch=2 n=64 v=0
153472 On ch=2 n=68 v=84
153474 Off ch=2 n=66 v=0
153593 Off ch=2 n=68 v=0
153600 On ch=2 n=71 v=80
154112 On ch=2 n=69 v=69
154122 Off ch=2 n=71 v=0
154355 Off ch=2 n=69 v=0
154880 On ch=2 n=81 v=73
155136 On ch=2 n=78 v=70
155141 Off ch=2 n=81 v=0
155306 Off ch=2 n=78 v=0
155392 On ch=2 n=80 v=89
155648 On ch=2 n=77 v=81
155653 Off ch=2 n=80 v=0
155818 Off ch=2 n=77 v=0
155904 On ch=2 n=78 v=82
156160 On ch=2 n=75 v=76
156165 Off ch=2 n=78 v=0
156330 Off ch=2 n=75 v=0
156416 On ch=2 n=76 v=83
156672 On ch=2 n=73 v=80
156677 Off ch=2 n=76 v=0
156842 Off ch=2 n=73 v=0
156928 On ch=2 n=74 v=84
157440 On ch=2 n=70 v=74
157450 Off ch=2 n=74 v=0
157610 Off ch=2 n=70 v=0
157696 On ch=2 n=71 v=86
157875 Off ch=2 n=71 v=0
157952 On ch=2 n=66 v=79
158131 Off ch=2 n=66 v=0
158208 On ch=2 n=59 v=72
158387 Off ch=2 n=59 v=0
158464 On ch=2 n=66 v=79
158549 On ch=2 n=71 v=95
158550 Off ch=2 n=66 v=0
158634 On ch=2 n=74 v=74
158635 Off ch=2 n=71 v=0
158715 Off ch=2 n=74 v=0
158720 On ch=2 n=78 v=81
159104 On ch=2 n=74 v=74
159111 Off ch=2 n=78 v=0
159225 Off ch=2 n=74 v=0
159232 On ch=2 n=78 v=77
159317 On ch=2 n=76 v=79
159318 Off ch=2 n=78 v=0
159397 Off ch=2 n=76 v=0
159402 On ch=2 n=74 v=60
159462 Off ch=2 n=74 v=0
159488 On ch=2 n=73 v=71
159547 Off ch=2 n=73 v=0
159573 On ch=2 n=72 v=69
159632 Off ch=2 n=72 v=0
159658 On ch=2 n=73 v=75
159718 Off ch=2 n=73 v=0
159744 On ch=2 n=76 v=75
159829 On ch=2 n=74 v=64
159830 Off ch=2 n=76 v=0
159909 Off ch=2 n=74 v=0
159914 On ch=2 n=73 v=71
159974 Off ch=2 n=73 v=0
160000 On ch=2 n=71 v=69
160059 Off ch=2 n=71 v=0
160085 On ch=2 n=70 v=71
160144 Off ch=2 n=70 v=0
160170 On ch=2 n=71 v=79
160230 Off ch=2 n=71 v=0
160256 On ch=2 n=74 v=81
160341 On ch=2 n=73 v=74
160342 Off ch=2 n=74 v=0
160421 Off ch=2 n=73 v=0
160426 On ch=2 n=71 v=79
160486 Off ch=2 n=71 v=0
160512 On ch=2 n=69 v=71
160571 Off ch=2 n=69 v=0
160597 On ch=2 n=68 v=82
160656 Off ch=2 n=68 v=0
160682 On ch=2 n=69 v=85
160742 Off ch=2 n=69 v=0
160768 On ch=2 n=73 v=94
160853 On ch=2 n=71 v=75
160854 Off ch=2 n=73 v=0
160933 Off ch=2 n=71 v=0
160938 On ch=2 n=69 v=80
160998 Off ch=2 n=69 v=0
161024 On ch=2 n=68 v=84
161083 Off ch=2 n=68 v=0
161109 On ch=2 n=66 v=87
161168 Off ch=2 n=66 v=0
161194 On ch=2 n=64 v=85
161254 Off ch=2 n=64 v=0
161280 On ch=2 n=62 v=86
161339 Off ch=2 n=62 v=0
161365 On ch=2 n=66 v=105
161424 Off ch=2 n=66 v=0
161450 On ch=2 n=64 v=87
161510 Off ch=2 n=64 v=0
161536 On ch=2 n=62 v=78
161595 Off ch=2 n=62 v=0
161621 On ch=2 n=61 v=74
161680 Off ch=2 n=61 v=0
161706 On ch=2 n=59 v=83
161766 Off ch=2 n=59 v=0
161792 On ch=2 n=57 v=81
162048 Off ch=2 n=57 v=0
163328 On ch=2 n=69 v=79
163776 Off ch=2 n=69 v=0
163776 On ch=2 n=69 v=84
163840 Off ch=2 n=69 v=0
163840 On ch=2 n=81 v=75
165006 On ch=2 n=83 v=77
165031 On ch=2 n=81 v=77
165070 On ch=2 n=80 v=77
165095 On ch=2 n=81 v=77
165120 Off ch=2 n=81 v=0
165120 On ch=2 n=83 v=77
165120 Off ch=2 n=83 v=0
165120 Off ch=2 n=81 v=0
165120 Off ch=2 n=80 v=0
165120 Off ch=2 n=81 v=0
165209 Off ch=2 n=83 v=0
165248 On ch=2 n=81 v=59
165337 Off ch=2 n=81 v=0
165376 On ch=2 n=81 v=68
165465 Off ch=2 n=81 v=0
165504 On ch=2 n=79 v=70
165593 Off ch=2 n=79 v=0
165632 On ch=2 n=78 v=64
165721 Off ch=2 n=78 v=0
165760 On ch=2 n=79 v=71
165849 Off ch=2 n=79 v=0
165888 On ch=2 n=77 v=62
166400 On ch=2 n=78 v=65
166410 Off ch=2 n=77 v=0
166643 Off ch=2 n=78 v=0
167424 On ch=2 n=76 v=65
167872 Off ch=2 n=76 v=0
167872 On ch=2 n=76 v=68
167936 Off ch=2 n=76 v=0
167936 On ch=2 n=88 v=94
168704 Off ch=2 n=88 v=0
168704 On ch=2 n=88 v=74
168768 On ch=2 n=86 v=70
168769 Off ch=2 n=88 v=0
168832 On ch=2 n=85 v=67
168833 Off ch=2 n=86 v=0
168896 On ch=2 n=83 v=60
168897 Off ch=2 n=85 v=0
168956 Off ch=2 n=83 v=0
168960 On ch=2 n=85 v=65
169139 Off ch=2 n=85 v=0
169920 On ch=2 n=76 v=52
169984 Off ch=2 n=76 v=0
169984 On ch=2 n=88 v=77
170752 Off ch=2 n=88 v=0
170752 On ch=2 n=88 v=59
170816 On ch=2 n=86 v=56
170817 Off ch=2 n=88 v=0
170880 On ch=2 n=84 v=55
170881 Off ch=2 n=86 v=0
170944 On ch=2 n=83 v=51
170945 Off ch=2 n=84 v=0
171004 Off ch=2 n=83 v=0
171008 On ch=2 n=84 v=64
171187 Off ch=2 n=84 v=0
171968 On ch=2 n=72 v=63
172032 Off ch=2 n=72 v=0
172032 On ch=2 n=84 v=88
172800 Off ch=2 n=84 v=0
172800 On ch=2 n=84 v=74
172864 On ch=2 n=82 v=72
172865 Off ch=2 n=84 v=0
172928 On ch=2 n=81 v=70
172929 Off ch=2 n=82 v=0
172992 On ch=2 n=79 v=69
172993 Off ch=2 n=81 v=0
173052 Off ch=2 n=79 v=0
173056 On ch=2 n=81 v=75
173235 Off ch=2 n=81 v=0
174016 On ch=2 n=60 v=88
174080 Off ch=2 n=60 v=0
174080 On ch=2 n=72 v=124
174848 Off ch=2 n=72 v=0
174848 On ch=2 n=72 v=105
174912 On ch=2 n=70 v=95
174913 Off ch=2 n=72 v=0
174976 On ch=2 n=69 v=93
174977 Off ch=2 n=70 v=0
175040 On ch=2 n=67 v=84
175041 Off ch=2 n=69 v=0
175100 Off ch=2 n=67 v=0
175104 On ch=2 n=69 v=105
175283 Off ch=2 n=69 v=0
175872 On ch=2 n=57 v=51
176128 On ch=2 n=62 v=53
176133 Off ch=2 n=57 v=0
176298 Off ch=2 n=62 v=0
176896 On ch=2 n=62 v=53
177152 On ch=2 n=55 v=48
177157 Off ch=2 n=62 v=0
177322 Off ch=2 n=55 v=0
177920 On ch=2 n=60 v=57
178176 On ch=2 n=72 v=68
178181 Off ch=2 n=60 v=0
178346 Off ch=2 n=72 v=0
178432 On ch=2 n=70 v=64
178611 Off ch=2 n=70 v=0
178688 On ch=2 n=69 v=59
178867 Off ch=2 n=69 v=0
178944 On ch=2 n=67 v=59
179123 Off ch=2 n=67 v=0
179200 On ch=2 n=65 v=58
179289 Off ch=2 n=65 v=0
179328 On ch=2 n=84 v=79
179417 Off ch=2 n=84 v=0
179456 On ch=2 n=82 v=64
179545 Off ch=2 n=82 v=0
179584 On ch=2 n=81 v=55
179673 Off ch=2 n=81 v=0
179712 On ch=2 n=79 v=57
179968 On ch=2 n=77 v=53
179973 Off ch=2 n=79 v=0
180211 Off ch=2 n=77 v=0
180352 On ch=2 n=77 v=47
180441 Off ch=2 n=77 v=0
180480 On ch=2 n=76 v=49
180569 Off ch=2 n=76 v=0
180608 On ch=2 n=74 v=47
180697 Off ch=2 n=74 v=0
180736 On ch=2 n=72 v=45
180992 On ch=2 n=71 v=40
180997 Off ch=2 n=72 v=0
181235 Off ch=2 n=71 v=0
181376 On ch=2 n=74 v=47
181465 Off ch=2 n=74 v=0
181504 On ch=2 n=72 v=51
181593 Off ch=2 n=72 v=0
181632 On ch=2 n=71 v=44
181721 Off ch=2 n=71 v=0
181760 On ch=2 n=69 v=46
182016 On ch=2 n=68 v=40
182021 Off ch=2 n=69 v=0
182259 Off ch=2 n=68 v=0
183552 On ch=2 n=59 v=54
183808 On ch=2 n=62 v=53
183813 Off ch=2 n=59 v=0
184064 On ch=2 n=68 v=84
184069 Off ch=2 n=62 v=0
184307 Off ch=2 n=68 v=0
184576 On ch=2 n=61 v=61
184832 On ch=2 n=64 v=92
184837 Off ch=2 n=61 v=0
185088 On ch=2 n=70 v=110
185093 Off ch=2 n=64 v=0
185331 Off ch=2 n=70 v=0
185984 On ch=2 n=66 v=90
186112 On ch=2 n=64 v=83
186114 Off ch=2 n=66 v=0
186240 On ch=2 n=62 v=92
186242 Off ch=2 n=64 v=0
186368 On ch=2 n=61 v=90
186370 Off ch=2 n=62 v=0
186496 On ch=2 n=59 v=90
186498 Off ch=2 n=61 v=0
186624 On ch=2 n=70 v=110
186626 Off ch=2 n=59 v=0
186752 On ch=2 n=71 v=108
186754 Off ch=2 n=70 v=0
186873 Off ch=2 n=71 v=0
186880 On ch=2 n=73 v=105
187008 On ch=2 n=74 v=109
187010 Off ch=2 n=73 v=0
187136 On ch=2 n=78 v=107
187138 Off ch=2 n=74 v=0
187264 On ch=2 n=74 v=97
187266 Off ch=2 n=78 v=0
187385 Off ch=2 n=74 v=0
187392 On ch=2 n=74 v=60
187776 On ch=2 n=73 v=56
187783 Off ch=2 n=74 v=0
187904 On ch=2 n=71 v=57
187906 Off ch=2 n=73 v=0
188032 On ch=2 n=69 v=66
188034 Off ch=2 n=71 v=0
188160 On ch=2 n=68 v=61
188162 Off ch=2 n=69 v=0
188288 On ch=2 n=66 v=70
188290 Off ch=2 n=68 v=0
188416 On ch=2 n=64 v=64
188418 Off ch=2 n=66 v=0
188586 Off ch=2 n=64 v=0
188672 On ch=2 n=78 v=108
188800 On ch=2 n=76 v=102
188802 Off ch=2 n=78 v=0
188928 On ch=2 n=74 v=76
188930 Off ch=2 n=76 v=0
189056 On ch=2 n=73 v=74
189058 Off ch=2 n=74 v=0
189184 On ch=2 n=71 v=80
189186 Off ch=2 n=73 v=0
189312 On ch=2 n=69 v=71
189314 Off ch=2 n=71 v=0
189440 On ch=2 n=68 v=82
189442 Off ch=2 n=69 v=0
189610 Off ch=2 n=68 v=0
189696 On ch=2 n=80 v=124
189742 Off ch=2 n=80 v=0
189754 On ch=2 n=81 v=124
189800 Off ch=2 n=81 v=0
189811 On ch=2 n=80 v=124
189856 Off ch=2 n=80 v=0
189867 On ch=2 n=81 v=124
189911 Off ch=2 n=81 v=0
189923 On ch=2 n=80 v=124
189967 Off ch=2 n=80 v=0
189978 On ch=2 n=81 v=124
190022 Off ch=2 n=81 v=0
190032 On ch=2 n=80 v=124
190075 Off ch=2 n=80 v=0
190086 On ch=2 n=81 v=124
190129 Off ch=2 n=81 v=0
190139 On ch=2 n=80 v=124
190181 Off ch=2 n=80 v=0
190191 On ch=2 n=81 v=124
190232 Off ch=2 n=81 v=0
190243 On ch=2 n=80 v=124
190284 Off ch=2 n=80 v=0
190294 On ch=2 n=81 v=124
190334 Off ch=2 n=81 v=0
190345 On ch=2 n=80 v=124
190385 Off ch=2 n=80 v=0
190395 On ch=2 n=81 v=124
190435 Off ch=2 n=81 v=0
190444 On ch=2 n=80 v=124
190483 Off ch=2 n=80 v=0
190493 On ch=2 n=81 v=113
190532 Off ch=2 n=81 v=0
190541 On ch=2 n=80 v=113
190579 Off ch=2 n=80 v=0
190589 On ch=2 n=81 v=113
190627 Off ch=2 n=81 v=0
190636 On ch=2 n=80 v=113
190673 Off ch=2 n=80 v=0
190684 On ch=2 n=81 v=113
190722 Off ch=2 n=81 v=0
190732 On ch=2 n=80 v=113
190770 Off ch=2 n=80 v=0
190781 On ch=2 n=81 v=113
190820 Off ch=2 n=81 v=0
190830 On ch=2 n=80 v=113
190869 Off ch=2 n=80 v=0
190880 On ch=2 n=81 v=113
190920 Off ch=2 n=81 v=0
190931 On ch=2 n=80 v=113
190971 Off ch=2 n=80 v=0
190982 On ch=2 n=81 v=113
191022 Off ch=2 n=81 v=0
191034 On ch=2 n=80 v=113
191075 Off ch=2 n=80 v=0
191087 On ch=2 n=81 v=113
191129 Off ch=2 n=81 v=0
191140 On ch=2 n=80 v=113
191182 Off ch=2 n=80 v=0
191194 On ch=2 n=81 v=113
191237 Off ch=2 n=81 v=0
191249 On ch=2 n=80 v=113
191293 Off ch=2 n=80 v=0
191304 On ch=2 n=81 v=113
191348 Off ch=2 n=81 v=0
191360 On ch=2 n=80 v=113
191404 Off ch=2 n=80 v=0
191415 On ch=2 n=78 v=113
191417 On ch=2 n=81 v=113
191454 On ch=2 n=80 v=113
191462 Off ch=2 n=81 v=0
191474 On ch=2 n=80 v=113
191487 Off ch=2 n=80 v=0
191488 On ch=2 n=69 v=113
191488 On ch=2 n=81 v=113
191488 Off ch=2 n=78 v=0
191488 Off ch=2 n=80 v=0
191828 Off ch=2 n=69 v=0
191828 Off ch=2 n=81 v=0
192000 On ch=2 n=76 v=102
192358 Off ch=2 n=76 v=0
192512 On ch=2 n=78 v=115
192870 Off ch=2 n=78 v=0
193024 On ch=2 n=74 v=99
193382 Off ch=2 n=74 v=0
194021 On ch=2 n=56 v=100
194048 Off ch=2 n=56 v=0
194048 On ch=2 n=64 v=100
194048 On ch=2 n=71 v=100
194227 Off ch=2 n=64 v=0
194227 Off ch=2 n=71 v=0
194304 On ch=2 n=64 v=92
194483 Off ch=2 n=64 v=0
195045 On ch=2 n=57 v=102
195072 Off ch=2 n=57 v=0
195072 On ch=2 n=64 v=102
195072 On ch=2 n=73 v=102
195251 Off ch=2 n=64 v=0
195251 Off ch=2 n=73 v=0
195328 On ch=2 n=69 v=97
195507 Off ch=2 n=69 v=0
195840 On ch=2 n=74 v=55
196096 Off ch=2 n=74 v=0
196352 On ch=2 n=69 v=61
196352 On ch=2 n=76 v=61
196608 Off ch=2 n=69 v=0
196608 Off ch=2 n=76 v=0
196837 On ch=2 n=62 v=75
196864 Off ch=2 n=62 v=0
196864 On ch=2 n=69 v=75
196864 On ch=2 n=78 v=75
197120 Off ch=2 n=69 v=0
197120 Off ch=2 n=78 v=0
197349 On ch=2 n=64 v=85
197376 Off ch=2 n=64 v=0
197376 On ch=2 n=74 v=85
197376 On ch=2 n=80 v=85
197632 Off ch=2 n=74 v=0
197632 Off ch=2 n=80 v=0
198656 On ch=2 n=81 v=117
198976 On ch=2 n=80 v=114
198982 Off ch=2 n=81 v=0
199040 On ch=2 n=78 v=89
199041 Off ch=2 n=80 v=0
199104 On ch=2 n=76 v=80
199105 Off ch=2 n=78 v=0
199168 On ch=2 n=75 v=91
199169 Off ch=2 n=76 v=0
199232 On ch=2 n=76 v=91
199233 Off ch=2 n=75 v=0
199296 On ch=2 n=78 v=106
199297 Off ch=2 n=76 v=0
199360 On ch=2 n=76 v=101
199361 Off ch=2 n=78 v=0
199424 On ch=2 n=74 v=93
199425 Off ch=2 n=76 v=0
199488 On ch=2 n=73 v=83
199489 Off ch=2 n=74 v=0
199552 On ch=2 n=71 v=88
199553 Off ch=2 n=73 v=0
199616 On ch=2 n=69 v=82
199617 Off ch=2 n=71 v=0
199676 Off ch=2 n=69 v=0
199680 On ch=2 n=68 v=93
199859 Off ch=2 n=68 v=0
200704 On ch=2 n=69 v=104
201024 On ch=2 n=68 v=103
201030 Off ch=2 n=69 v=0
201088 On ch=2 n=66 v=93
201089 Off ch=2 n=68 v=0
201152 On ch=2 n=64 v=88
201153 Off ch=2 n=66 v=0
201216 On ch=2 n=63 v=95
201217 Off ch=2 n=64 v=0
201280 On ch=2 n=64 v=96
201281 Off ch=2 n=63 v=0
201344 On ch=2 n=66 v=107
201345 Off ch=2 n=64 v=0
201408 On ch=2 n=64 v=96
201409 Off ch=2 n=66 v=0
201472 On ch=2 n=62 v=91
201473 Off ch=2 n=64 v=0
201536 On ch=2 n=61 v=85
201537 Off ch=2 n=62 v=0
201600 On ch=2 n=59 v=96
201601 Off ch=2 n=61 v=0
201664 On ch=2 n=57 v=95
201665 Off ch=2 n=59 v=0
201724 Off ch=2 n=57 v=0
201728 On ch=2 n=56 v=95
201907 Off ch=2 n=56 v=0
201984 On ch=2 n=74 v=125
202304 On ch=2 n=73 v=122
202310 Off ch=2 n=74 v=0
202368 On ch=2 n=71 v=93
202369 Off ch=2 n=73 v=0
202432 On ch=2 n=69 v=85
202433 Off ch=2 n=71 v=0
202496 On ch=2 n=68 v=93
202497 Off ch=2 n=69 v=0
202560 On ch=2 n=66 v=88
202561 Off ch=2 n=68 v=0
202624 On ch=2 n=64 v=92
202625 Off ch=2 n=66 v=0
202688 On ch=2 n=62 v=86
202689 Off ch=2 n=64 v=0
202748 Off ch=2 n=62 v=0
202752 On ch=2 n=61 v=104
202816 On ch=2 n=62 v=108
202817 Off ch=2 n=61 v=0
202880 On ch=2 n=64 v=121
202881 Off ch=2 n=62 v=0
202944 On ch=2 n=66 v=127
202945 Off ch=2 n=64 v=0
203008 On ch=2 n=68 v=119
203009 Off ch=2 n=66 v=0
203072 On ch=2 n=69 v=125
203073 Off ch=2 n=68 v=0
203136 On ch=2 n=71 v=121
203137 Off ch=2 n=69 v=0
203200 On ch=2 n=73 v=127
203201 Off ch=2 n=71 v=0
203264 On ch=2 n=74 v=121
203265 Off ch=2 n=73 v=0
203328 On ch=2 n=76 v=127
203329 Off ch=2 n=74 v=0
203392 On ch=2 n=78 v=119
203393 Off ch=2 n=76 v=0
203456 On ch=2 n=80 v=124
203457 Off ch=2 n=78 v=0
203520 On ch=2 n=81 v=119
203521 Off ch=2 n=80 v=0
203584 On ch=2 n=83 v=124
203585 Off ch=2 n=81 v=0
203648 On ch=2 n=85 v=121
203649 Off ch=2 n=83 v=0
203712 On ch=2 n=86 v=127
203713 Off ch=2 n=85 v=0
203772 Off ch=2 n=86 v=0
203776 On ch=2 n=88 v=122
203955 Off ch=2 n=88 v=0
204032 On ch=2 n=89 v=122
204211 Off ch=2 n=89 v=0
204288 On ch=2 n=90 v=115
204467 Off ch=2 n=90 v=0
204544 On ch=2 n=93 v=121
204723 Off ch=2 n=93 v=0
204800 On ch=2 n=76 v=83
205056 Off ch=2 n=76 v=0
205287 On ch=2 n=64 v=103
205312 Off ch=2 n=64 v=0
205312 On ch=2 n=74 v=103
205312 On ch=2 n=80 v=103
205568 Off ch=2 n=74 v=0
205568 Off ch=2 n=80 v=0
205799 On ch=2 n=57 v=102
205799 On ch=2 n=64 v=102
205824 Off ch=2 n=57 v=0
205824 Off ch=2 n=64 v=0
205824 On ch=2 n=73 v=102
205824 On ch=2 n=81 v=102
206080 Off ch=2 n=73 v=0
206080 Off ch=2 n=81 v=0
206848 On ch=2 n=77 v=51
207206 Off ch=2 n=77 v=0
207360 On ch=2 n=72 v=56
207718 Off ch=2 n=72 v=0
207872 On ch=2 n=74 v=62
208230 Off ch=2 n=74 v=0
208384 On ch=2 n=70 v=55
208742 Off ch=2 n=70 v=0
209388 On ch=2 n=55 v=56
209408 Off ch=2 n=55 v=0
209408 On ch=2 n=64 v=56
209408 On ch=2 n=70 v=56
209587 Off ch=2 n=64 v=0
209587 Off ch=2 n=70 v=0
209664 On ch=2 n=64 v=49
209843 Off ch=2 n=64 v=0
210432 On ch=2 n=70 v=83
210432 On ch=2 n=82 v=83
210611 Off ch=2 n=70 v=0
210611 Off ch=2 n=82 v=0
210688 On ch=2 n=76 v=76
210867 Off ch=2 n=76 v=0
211418 On ch=2 n=72 v=75
211456 On ch=2 n=84 v=75
211456 Off ch=2 n=72 v=0
212428 Off ch=2 n=84 v=0
212480 On ch=2 n=81 v=71
212928 On ch=2 n=77 v=59
212936 Off ch=2 n=81 v=0
212992 On ch=2 n=72 v=64
212993 Off ch=2 n=77 v=0
213162 Off ch=2 n=72 v=0
214016 On ch=2 n=60 v=55
214016 On ch=2 n=69 v=55
215040 On ch=2 n=70 v=69
215060 Off ch=2 n=69 v=0
215283 Off ch=2 n=70 v=0
215321 Off ch=2 n=60 v=0
215552 On ch=2 n=82 v=58
216576 Off ch=2 n=82 v=0
216576 On ch=2 n=79 v=65
217024 On ch=2 n=76 v=60
217032 Off ch=2 n=79 v=0
217084 Off ch=2 n=76 v=0
217088 On ch=2 n=70 v=58
217600 On ch=2 n=69 v=52
217610 Off ch=2 n=70 v=0
217843 Off ch=2 n=69 v=0
218112 On ch=2 n=57 v=55
218112 On ch=2 n=67 v=55
219136 On ch=2 n=65 v=67
219156 Off ch=2 n=67 v=0
219379 Off ch=2 n=65 v=0
219417 Off ch=2 n=57 v=0
219648 On ch=2 n=81 v=56
220672 Off ch=2 n=81 v=0
220672 On ch=2 n=77 v=61
221120 On ch=2 n=74 v=50
221128 Off ch=2 n=77 v=0
221184 On ch=2 n=69 v=61
221185 Off ch=2 n=74 v=0
221354 Off ch=2 n=69 v=0
222208 On ch=2 n=65 v=53
222208 On ch=2 n=75 v=53
223232 On ch=2 n=74 v=66
223252 Off ch=2 n=75 v=0
223475 Off ch=2 n=74 v=0
223513 Off ch=2 n=65 v=0
223744 On ch=2 n=74 v=55
224768 Off ch=2 n=74 v=0
224768 On ch=2 n=70 v=64
225216 On ch=2 n=67 v=53
225224 Off ch=2 n=70 v=0
225280 On ch=2 n=62 v=62
225281 Off ch=2 n=67 v=0
225450 Off ch=2 n=62 v=0
226304 On ch=2 n=60 v=55
226304 On ch=2 n=62 v=55
227328 On ch=2 n=58 v=68
227348 Off ch=2 n=60 v=0
227571 Off ch=2 n=58 v=0
227609 Off ch=2 n=62 v=0
227840 On ch=2 n=74 v=53
228864 Off ch=2 n=74 v=0
228864 On ch=2 n=70 v=64
229312 On ch=2 n=67 v=58
229320 Off ch=2 n=70 v=0
229376 On ch=2 n=65 v=71
229377 Off ch=2 n=67 v=0
229546 Off ch=2 n=65 v=0
229888 On ch=2 n=74 v=91
230848 Off ch=2 n=74 v=0
230848 On ch=2 n=73 v=93
230912 Off ch=2 n=73 v=0
230912 On ch=2 n=74 v=98
231091 Off ch=2 n=74 v=0
231168 On ch=2 n=74 v=96
231347 Off ch=2 n=74 v=0
231424 On ch=2 n=73 v=91
231513 Off ch=2 n=73 v=0
231552 On ch=2 n=73 v=49
231680 On ch=2 n=76 v=53
231682 Off ch=2 n=73 v=0
231808 On ch=2 n=74 v=47
231810 Off ch=2 n=76 v=0
231936 On ch=2 n=73 v=43
231938 Off ch=2 n=74 v=0
232064 On ch=2 n=71 v=51
232066 Off ch=2 n=73 v=0
232192 On ch=2 n=69 v=48
232194 Off ch=2 n=71 v=0
232320 On ch=2 n=68 v=55
232322 Off ch=2 n=69 v=0
232441 Off ch=2 n=68 v=0
232448 On ch=2 n=69 v=53
232537 Off ch=2 n=69 v=0
232576 On ch=2 n=61 v=52
232704 On ch=2 n=64 v=52
232706 Off ch=2 n=61 v=0
232832 On ch=2 n=62 v=63
232834 Off ch=2 n=64 v=0
232960 On ch=2 n=61 v=58
232962 Off ch=2 n=62 v=0
233088 On ch=2 n=59 v=54
233090 Off ch=2 n=61 v=0
233216 On ch=2 n=57 v=51
233218 Off ch=2 n=59 v=0
233344 On ch=2 n=56 v=58
233346 Off ch=2 n=57 v=0
233465 Off ch=2 n=56 v=0
233472 On ch=2 n=57 v=63
233600 On ch=2 n=64 v=70
233602 Off ch=2 n=57 v=0
233728 On ch=2 n=61 v=61
233730 Off ch=2 n=64 v=0
233856 On ch=2 n=69 v=88
233858 Off ch=2 n=61 v=0
233984 On ch=2 n=64 v=71
233986 Off ch=2 n=69 v=0
234112 On ch=2 n=73 v=99
234114 Off ch=2 n=64 v=0
234240 On ch=2 n=69 v=78
234242 Off ch=2 n=73 v=0
234368 On ch=2 n=76 v=86
234370 Off ch=2 n=69 v=0
234489 Off ch=2 n=76 v=0
234496 On ch=2 n=73 v=69
234624 On ch=2 n=81 v=82
234626 Off ch=2 n=73 v=0
234752 On ch=2 n=76 v=58
234754 Off ch=2 n=81 v=0
234880 On ch=2 n=73 v=55
234882 Off ch=2 n=76 v=0
235008 On ch=2 n=69 v=49
235010 Off ch=2 n=73 v=0
235136 On ch=2 n=76 v=57
235138 Off ch=2 n=69 v=0
235264 On ch=2 n=73 v=37
235266 Off ch=2 n=76 v=0
235392 On ch=2 n=69 v=55
235394 Off ch=2 n=73 v=0
235513 Off ch=2 n=69 v=0
235520 On ch=2 n=74 v=64
235609 Off ch=2 n=74 v=0
235648 On ch=2 n=77 v=66
235776 On ch=2 n=81 v=75
235778 Off ch=2 n=77 v=0
235904 On ch=2 n=79 v=58
235906 Off ch=2 n=81 v=0
236032 On ch=2 n=77 v=53
236034 Off ch=2 n=79 v=0
236160 On ch=2 n=76 v=57
236162 Off ch=2 n=77 v=0
236288 On ch=2 n=74 v=54
236290 Off ch=2 n=76 v=0
236416 On ch=2 n=73 v=59
236418 Off ch=2 n=74 v=0
236537 Off ch=2 n=73 v=0
236544 On ch=2 n=74 v=65
236633 Off ch=2 n=74 v=0
236672 On ch=2 n=65 v=44
236800 On ch=2 n=69 v=43
236802 Off ch=2 n=65 v=0
236928 On ch=2 n=67 v=54
236930 Off ch=2 n=69 v=0
237056 On ch=2 n=65 v=52
237058 Off ch=2 n=67 v=0
237184 On ch=2 n=64 v=55
237186 Off ch=2 n=65 v=0
237312 On ch=2 n=62 v=56
237314 Off ch=2 n=64 v=0
237440 On ch=2 n=61 v=57
237442 Off ch=2 n=62 v=0
237561 Off ch=2 n=61 v=0
237568 On ch=2 n=62 v=69
237696 On ch=2 n=69 v=78
237698 Off ch=2 n=62 v=0
237824 On ch=2 n=65 v=65
237826 Off ch=2 n=69 v=0
237952 On ch=2 n=74 v=87
237954 Off ch=2 n=65 v=0
238080 On ch=2 n=69 v=69
238082 Off ch=2 n=74 v=0
238208 On ch=2 n=77 v=100
238210 Off ch=2 n=69 v=0
238336 On ch=2 n=74 v=78
238338 Off ch=2 n=77 v=0
238464 On ch=2 n=81 v=84
238466 Off ch=2 n=74 v=0
238585 Off ch=2 n=81 v=0
238592 On ch=2 n=81 v=72
238681 Off ch=2 n=81 v=0
238720 On ch=2 n=81 v=66
238848 On ch=2 n=78 v=58
238850 Off ch=2 n=81 v=0
238976 On ch=2 n=75 v=52
238978 Off ch=2 n=78 v=0
239097 Off ch=2 n=75 v=0
239104 On ch=2 n=69 v=44
239193 Off ch=2 n=69 v=0
239232 On ch=2 n=69 v=48
239360 On ch=2 n=66 v=40
239362 Off ch=2 n=69 v=0
239488 On ch=2 n=63 v=56
239490 Off ch=2 n=66 v=0
239609 Off ch=2 n=63 v=0
239616 On ch=2 n=64 v=68
239705 Off ch=2 n=64 v=0
239744 On ch=2 n=67 v=66
239872 On ch=2 n=71 v=72
239874 Off ch=2 n=67 v=0
240000 On ch=2 n=69 v=59
240002 Off ch=2 n=71 v=0
240128 On ch=2 n=67 v=53
240130 Off ch=2 n=69 v=0
240256 On ch=2 n=66 v=59
240258 Off ch=2 n=67 v=0
240384 On ch=2 n=64 v=53
240386 Off ch=2 n=66 v=0
240512 On ch=2 n=63 v=58
240514 Off ch=2 n=64 v=0
240633 Off ch=2 n=63 v=0
240640 On ch=2 n=64 v=64
240729 Off ch=2 n=64 v=0
240768 On ch=2 n=76 v=80
240896 On ch=2 n=79 v=68
240898 Off ch=2 n=76 v=0
241024 On ch=2 n=78 v=58
241026 Off ch=2 n=79 v=0
241152 On ch=2 n=76 v=60
241154 Off ch=2 n=78 v=0
241280 On ch=2 n=75 v=64
241282 Off ch=2 n=76 v=0
241408 On ch=2 n=76 v=72
241410 Off ch=2 n=75 v=0
241536 On ch=2 n=78 v=72
241538 Off ch=2 n=76 v=0
241657 Off ch=2 n=78 v=0
241664 On ch=2 n=79 v=74
241753 Off ch=2 n=79 v=0
241792 On ch=2 n=79 v=70
241920 On ch=2 n=83 v=80
241922 Off ch=2 n=79 v=0
242048 On ch=2 n=81 v=67
242050 Off ch=2 n=83 v=0
242176 On ch=2 n=79 v=73
242178 Off ch=2 n=81 v=0
242304 On ch=2 n=78 v=70
242306 Off ch=2 n=79 v=0
242432 On ch=2 n=79 v=73
242434 Off ch=2 n=78 v=0
242560 On ch=2 n=81 v=85
242562 Off ch=2 n=79 v=0
242681 Off ch=2 n=81 v=0
242688 On ch=2 n=82 v=84
242816 On ch=2 n=83 v=84
242818 Off ch=2 n=82 v=0
242944 On ch=2 n=81 v=75
242946 Off ch=2 n=83 v=0
243072 On ch=2 n=79 v=80
243074 Off ch=2 n=81 v=0
243200 On ch=2 n=78 v=78
243202 Off ch=2 n=79 v=0
243328 On ch=2 n=76 v=76
243330 Off ch=2 n=78 v=0
243456 On ch=2 n=74 v=85
243458 Off ch=2 n=76 v=0
243584 On ch=2 n=73 v=80
243586 Off ch=2 n=74 v=0
243684 On ch=2 n=57 v=122
243705 Off ch=2 n=73 v=0
243712 Off ch=2 n=57 v=0
243712 On ch=2 n=66 v=122
243712 On ch=2 n=74 v=122
244480 Off ch=2 n=66 v=0
244480 Off ch=2 n=74 v=0
244608 On ch=2 n=69 v=101
244672 On ch=2 n=74 v=112
244673 Off ch=2 n=69 v=0
244736 On ch=2 n=78 v=127
244737 Off ch=2 n=74 v=0
244906 Off ch=2 n=78 v=0
245120 On ch=2 n=74 v=103
245184 On ch=2 n=78 v=114
245185 Off ch=2 n=74 v=0
245248 On ch=2 n=81 v=127
245249 Off ch=2 n=78 v=0
245418 Off ch=2 n=81 v=0
245632 On ch=2 n=81 v=102
245696 On ch=2 n=78 v=91
245697 Off ch=2 n=81 v=0
245760 On ch=2 n=74 v=99
245761 Off ch=2 n=78 v=0
245930 Off ch=2 n=74 v=0
246656 On ch=2 n=78 v=101
246720 On ch=2 n=74 v=86
246721 Off ch=2 n=78 v=0
246784 On ch=2 n=69 v=92
246785 Off ch=2 n=74 v=0
246954 Off ch=2 n=69 v=0
247168 On ch=2 n=74 v=102
247232 On ch=2 n=69 v=82
247233 Off ch=2 n=74 v=0
247296 On ch=2 n=66 v=99
247297 Off ch=2 n=69 v=0
247466 Off ch=2 n=66 v=0
247680 On ch=2 n=69 v=105
247744 On ch=2 n=66 v=94
247745 Off ch=2 n=69 v=0
247808 On ch=2 n=62 v=100
247809 Off ch=2 n=66 v=0
247978 Off ch=2 n=62 v=0
248256 On ch=2 n=69 v=56
248320 Off ch=2 n=69 v=0
248320 On ch=2 n=81 v=77
249344 Off ch=2 n=81 v=0
249344 On ch=2 n=78 v=57
249792 On ch=2 n=74 v=54
249800 Off ch=2 n=78 v=0
249856 On ch=2 n=73 v=57
249857 Off ch=2 n=74 v=0
250099 Off ch=2 n=73 v=0
250304 On ch=2 n=69 v=51
250368 Off ch=2 n=69 v=0
250368 On ch=2 n=79 v=75
251392 Off ch=2 n=79 v=0
251392 On ch=2 n=76 v=54
251840 On ch=2 n=73 v=54
251848 Off ch=2 n=76 v=0
251904 On ch=2 n=74 v=64
251905 Off ch=2 n=73 v=0
252147 Off ch=2 n=74 v=0
252416 On ch=2 n=74 v=53
253440 Off ch=2 n=74 v=0
253440 On ch=2 n=74 v=73
253952 Off ch=2 n=74 v=0
253952 On ch=2 n=74 v=77
254720 On ch=2 n=73 v=82
254735 Off ch=2 n=74 v=0
254848 On ch=2 n=71 v=84
254850 Off ch=2 n=73 v=0
254969 Off ch=2 n=71 v=0
254976 On ch=2 n=71 v=67
255104 On ch=2 n=69 v=60
255106 Off ch=2 n=71 v=0
255232 On ch=2 n=67 v=65
255234 Off ch=2 n=69 v=0
255360 On ch=2 n=66 v=60
255362 Off ch=2 n=67 v=0
255481 Off ch=2 n=66 v=0
255488 On ch=2 n=66 v=70
255616 On ch=2 n=64 v=62
255618 Off ch=2 n=66 v=0
255744 On ch=2 n=62 v=62
255746 Off ch=2 n=64 v=0
255872 On ch=2 n=61 v=54
255874 Off ch=2 n=62 v=0
255993 Off ch=2 n=61 v=0
256000 On ch=2 n=62 v=75
256128 On ch=2 n=66 v=83
256130 Off ch=2 n=62 v=0
256256 On ch=2 n=69 v=76
256258 Off ch=2 n=66 v=0
256384 On ch=2 n=67 v=73
256386 Off ch=2 n=69 v=0
256512 On ch=2 n=66 v=71
256514 Off ch=2 n=67 v=0
256640 On ch=2 n=64 v=68
256642 Off ch=2 n=66 v=0
256768 On ch=2 n=62 v=66
256770 Off ch=2 n=64 v=0
256896 On ch=2 n=61 v=63
256898 Off ch=2 n=62 v=0
257024 On ch=2 n=62 v=72
257026 Off ch=2 n=61 v=0
257152 On ch=2 n=64 v=78
257154 Off ch=2 n=62 v=0
257280 On ch=2 n=66 v=75
257282 Off ch=2 n=64 v=0
257408 On ch=2 n=67 v=78
257410 Off ch=2 n=66 v=0
257536 On ch=2 n=69 v=72
257538 Off ch=2 n=67 v=0
257664 On ch=2 n=71 v=72
257666 Off ch=2 n=69 v=0
257792 On ch=2 n=73 v=76
257794 Off ch=2 n=71 v=0
257920 On ch=2 n=74 v=80
257922 Off ch=2 n=73 v=0
258041 Off ch=2 n=74 v=0
258048 On ch=2 n=69 v=63
258176 On ch=2 n=73 v=67
258178 Off ch=2 n=69 v=0
258304 On ch=2 n=76 v=79
258306 Off ch=2 n=73 v=0
258432 On ch=2 n=74 v=78
258434 Off ch=2 n=76 v=0
258560 On ch=2 n=73 v=69
258562 Off ch=2 n=74 v=0
258688 On ch=2 n=71 v=64
258690 Off ch=2 n=73 v=0
258816 On ch=2 n=69 v=66
258818 Off ch=2 n=71 v=0
258944 On ch=2 n=68 v=61
258946 Off ch=2 n=69 v=0
259072 On ch=2 n=69 v=71
259074 Off ch=2 n=68 v=0
259200 On ch=2 n=71 v=76
259202 Off ch=2 n=69 v=0
259328 On ch=2 n=73 v=73
259330 Off ch=2 n=71 v=0
259456 On ch=2 n=74 v=77
259458 Off ch=2 n=73 v=0
259584 On ch=2 n=76 v=77
259586 Off ch=2 n=74 v=0
259712 On ch=2 n=78 v=88
259714 Off ch=2 n=76 v=0
259840 On ch=2 n=79 v=72
259842 Off ch=2 n=78 v=0
259968 On ch=2 n=76 v=69
259970 Off ch=2 n=79 v=0
260089 Off ch=2 n=76 v=0
260096 On ch=2 n=75 v=66
260224 On ch=2 n=78 v=73
260226 Off ch=2 n=75 v=0
260352 On ch=2 n=81 v=80
260354 Off ch=2 n=78 v=0
260480 On ch=2 n=79 v=76
260482 Off ch=2 n=81 v=0
260608 On ch=2 n=78 v=69
260610 Off ch=2 n=79 v=0
260736 On ch=2 n=76 v=62
260738 Off ch=2 n=78 v=0
260864 On ch=2 n=75 v=68
260866 Off ch=2 n=76 v=0
260992 On ch=2 n=73 v=63
260994 Off ch=2 n=75 v=0
261120 On ch=2 n=71 v=70
261122 Off ch=2 n=73 v=0
261248 On ch=2 n=73 v=73
261250 Off ch=2 n=71 v=0
261376 On ch=2 n=75 v=76
261378 Off ch=2 n=73 v=0
261504 On ch=2 n=76 v=81
261506 Off ch=2 n=75 v=0
261632 On ch=2 n=78 v=77
261634 Off ch=2 n=76 v=0
261760 On ch=2 n=79 v=78
261762 Off ch=2 n=78 v=0
261888 On ch=2 n=81 v=76
261890 Off ch=2 n=79 v=0
262016 On ch=2 n=78 v=73
262018 Off ch=2 n=81 v=0
262137 Off ch=2 n=78 v=0
262144 On ch=2 n=76 v=65
262272 On ch=2 n=78 v=68
262274 Off ch=2 n=76 v=0
262400 On ch=2 n=79 v=73
262402 Off ch=2 n=78 v=0
262528 On ch=2 n=81 v=78
262530 Off ch=2 n=79 v=0
262656 On ch=2 n=83 v=76
262658 Off ch=2 n=81 v=0
262784 On ch=2 n=85 v=78
262786 Off ch=2 n=83 v=0
262912 On ch=2 n=86 v=78
262914 Off ch=2 n=85 v=0
263040 On ch=2 n=87 v=83
263042 Off ch=2 n=86 v=0
263161 Off ch=2 n=87 v=0
263168 On ch=2 n=88 v=85
263808 Off ch=2 n=88 v=0
263808 On ch=2 n=86 v=66
263936 Off ch=2 n=86 v=0
263936 On ch=2 n=85 v=67
264064 Off ch=2 n=85 v=0
264064 On ch=2 n=83 v=64
264192 Off ch=2 n=83 v=0
264192 On ch=2 n=81 v=104
264832 Off ch=2 n=81 v=0
264832 On ch=2 n=80 v=104
264896 On ch=2 n=78 v=98
264897 Off ch=2 n=80 v=0
264960 On ch=2 n=76 v=102
264961 Off ch=2 n=78 v=0
265024 On ch=2 n=74 v=94
265025 Off ch=2 n=76 v=0
265088 On ch=2 n=73 v=106
265089 Off ch=2 n=74 v=0
265152 On ch=2 n=71 v=96
265153 Off ch=2 n=73 v=0
265212 Off ch=2 n=71 v=0
265216 On ch=2 n=69 v=101
265305 Off ch=2 n=69 v=0
265344 On ch=2 n=68 v=108
265408 On ch=2 n=66 v=104
265409 Off ch=2 n=68 v=0
265472 On ch=2 n=64 v=107
265473 Off ch=2 n=66 v=0
265536 On ch=2 n=62 v=99
265537 Off ch=2 n=64 v=0
265600 On ch=2 n=61 v=105
265601 Off ch=2 n=62 v=0
265664 On ch=2 n=59 v=100
265665 Off ch=2 n=61 v=0
265724 Off ch=2 n=59 v=0
265728 On ch=2 n=57 v=108
265907 Off ch=2 n=57 v=0
265984 On ch=2 n=57 v=109
266163 Off ch=2 n=57 v=0
266240 On ch=2 n=56 v=127
267264 Off ch=2 n=56 v=0
267264 On ch=2 n=68 v=127
268288 Off ch=2 n=68 v=0
268288 On ch=2 n=69 v=120
268467 Off ch=2 n=69 v=0
268544 On ch=2 n=81 v=127
268928 Off ch=2 n=81 v=0
268928 On ch=2 n=80 v=110
268992 On ch=2 n=78 v=106
268993 Off ch=2 n=80 v=0
269056 On ch=2 n=76 v=100
269057 Off ch=2 n=78 v=0
269120 On ch=2 n=74 v=91
269121 Off ch=2 n=76 v=0
269184 On ch=2 n=73 v=104
269185 Off ch=2 n=74 v=0
269248 On ch=2 n=71 v=96
269249 Off ch=2 n=73 v=0
269308 Off ch=2 n=71 v=0
269312 On ch=2 n=69 v=109
269401 Off ch=2 n=69 v=0
269440 On ch=2 n=68 v=110
269504 On ch=2 n=66 v=107
269505 Off ch=2 n=68 v=0
269568 On ch=2 n=64 v=109
269569 Off ch=2 n=66 v=0
269632 On ch=2 n=62 v=106
269633 Off ch=2 n=64 v=0
269696 On ch=2 n=61 v=106
269697 Off ch=2 n=62 v=0
269760 On ch=2 n=59 v=101
269761 Off ch=2 n=61 v=0
269820 Off ch=2 n=59 v=0
269824 On ch=2 n=57 v=110
270003 Off ch=2 n=57 v=0
270080 On ch=2 n=67 v=127
270259 Off ch=2 n=67 v=0
270336 On ch=2 n=65 v=109
270464 On ch=2 n=62 v=89
270466 Off ch=2 n=65 v=0
270592 On ch=2 n=65 v=94
270594 Off ch=2 n=62 v=0
270720 On ch=2 n=62 v=87
270722 Off ch=2 n=65 v=0
270848 On ch=2 n=65 v=94
270850 Off ch=2 n=62 v=0
270976 On ch=2 n=62 v=90
270978 Off ch=2 n=65 v=0
271104 On ch=2 n=65 v=98
271106 Off ch=2 n=62 v=0
271232 On ch=2 n=62 v=88
271234 Off ch=2 n=65 v=0
271353 Off ch=2 n=62 v=0
271360 On ch=2 n=65 v=106
271488 On ch=2 n=62 v=94
271490 Off ch=2 n=65 v=0
271616 On ch=2 n=65 v=105
271618 Off ch=2 n=62 v=0
271744 On ch=2 n=62 v=96
271746 Off ch=2 n=65 v=0
271872 On ch=2 n=65 v=105
271874 Off ch=2 n=62 v=0
272000 On ch=2 n=62 v=103
272002 Off ch=2 n=65 v=0
272128 On ch=2 n=61 v=97
272130 Off ch=2 n=62 v=0
272256 On ch=2 n=62 v=103
272258 Off ch=2 n=61 v=0
272377 Off ch=2 n=62 v=0
272384 On ch=2 n=61 v=111
272448 On ch=2 n=57 v=107
272449 Off ch=2 n=61 v=0
272512 On ch=2 n=59 v=119
272513 Off ch=2 n=57 v=0
272576 On ch=2 n=61 v=124
272577 Off ch=2 n=59 v=0
272640 On ch=2 n=62 v=116
272641 Off ch=2 n=61 v=0
272704 On ch=2 n=64 v=118
272705 Off ch=2 n=62 v=0
272768 On ch=2 n=66 v=121
272769 Off ch=2 n=64 v=0
272832 On ch=2 n=68 v=127
272833 Off ch=2 n=66 v=0
272896 On ch=2 n=69 v=127
272897 Off ch=2 n=68 v=0
272980 Off ch=2 n=69 v=0
273024 On ch=2 n=71 v=127
273088 On ch=2 n=73 v=127
273089 Off ch=2 n=71 v=0
273152 On ch=2 n=74 v=127
273153 Off ch=2 n=73 v=0
273216 On ch=2 n=76 v=127
273217 Off ch=2 n=74 v=0
273280 On ch=2 n=78 v=127
273281 Off ch=2 n=76 v=0
273344 On ch=2 n=80 v=127
273345 Off ch=2 n=78 v=0
273408 On ch=2 n=81 v=127
273409 Off ch=2 n=80 v=0
273578 Off ch=2 n=81 v=0
278400 On ch=2 n=71 v=57
278528 On ch=2 n=83 v=69
278530 Off ch=2 n=71 v=0
278912 On ch=2 n=79 v=56
278919 Off ch=2 n=83 v=0
279033 Off ch=2 n=79 v=0
279040 On ch=2 n=83 v=67
279168 On ch=2 n=81 v=65
279170 Off ch=2 n=83 v=0
279296 On ch=2 n=79 v=62
279298 Off ch=2 n=81 v=0
279424 On ch=2 n=78 v=58
279426 Off ch=2 n=79 v=0
279545 Off ch=2 n=78 v=0
279552 On ch=2 n=81 v=66
279680 On ch=2 n=79 v=62
279682 Off ch=2 n=81 v=0
279808 On ch=2 n=78 v=58
279810 Off ch=2 n=79 v=0
279936 On ch=2 n=76 v=53
279938 Off ch=2 n=78 v=0
280057 Off ch=2 n=76 v=0
280064 On ch=2 n=79 v=71
280192 On ch=2 n=78 v=66
280194 Off ch=2 n=79 v=0
280320 On ch=2 n=76 v=61
280322 Off ch=2 n=78 v=0
280448 On ch=2 n=74 v=60
280450 Off ch=2 n=76 v=0
280569 Off ch=2 n=74 v=0
280576 On ch=2 n=78 v=71
280704 On ch=2 n=76 v=68
280706 Off ch=2 n=78 v=0
280832 On ch=2 n=74 v=63
280834 Off ch=2 n=76 v=0
280960 On ch=2 n=73 v=57
280962 Off ch=2 n=74 v=0
281088 On ch=2 n=71 v=56
281090 Off ch=2 n=73 v=0
281216 On ch=2 n=69 v=53
281218 Off ch=2 n=71 v=0
281344 On ch=2 n=71 v=65
281346 Off ch=2 n=69 v=0
281472 On ch=2 n=73 v=72
281474 Off ch=2 n=71 v=0
281593 Off ch=2 n=73 v=0
281600 On ch=2 n=76 v=64
282112 On ch=2 n=74 v=61
282122 Off ch=2 n=76 v=0
282355 Off ch=2 n=74 v=0
282880 On ch=2 n=74 v=77
283136 On ch=2 n=71 v=69
283141 Off ch=2 n=74 v=0
283306 Off ch=2 n=71 v=0
283392 On ch=2 n=73 v=88
283648 On ch=2 n=70 v=83
283653 Off ch=2 n=73 v=0
283818 Off ch=2 n=70 v=0
283904 On ch=2 n=71 v=88
284160 On ch=2 n=68 v=81
284165 Off ch=2 n=71 v=0
284330 Off ch=2 n=68 v=0
284416 On ch=2 n=69 v=83
284672 On ch=2 n=66 v=71
284677 Off ch=2 n=69 v=0
284842 Off ch=2 n=66 v=0
284928 On ch=2 n=67 v=84
285440 On ch=2 n=63 v=77
285450 Off ch=2 n=67 v=0
285610 Off ch=2 n=63 v=0
285696 On ch=2 n=64 v=88
285875 Off ch=2 n=64 v=0
285952 On ch=2 n=59 v=80
286131 Off ch=2 n=59 v=0
286208 On ch=2 n=64 v=79
286387 Off ch=2 n=64 v=0
286464 On ch=2 n=71 v=83
286549 On ch=2 n=76 v=93
286550 Off ch=2 n=71 v=0
286634 On ch=2 n=79 v=84
286635 Off ch=2 n=76 v=0
286715 Off ch=2 n=79 v=0
286720 On ch=2 n=83 v=79
287104 On ch=2 n=79 v=75
287111 Off ch=2 n=83 v=0
287225 Off ch=2 n=79 v=0
287232 On ch=2 n=83 v=77
287317 On ch=2 n=81 v=75
287318 Off ch=2 n=83 v=0
287397 Off ch=2 n=81 v=0
287402 On ch=2 n=79 v=72
287462 Off ch=2 n=79 v=0
287488 On ch=2 n=78 v=66
287547 Off ch=2 n=78 v=0
287573 On ch=2 n=77 v=66
287632 Off ch=2 n=77 v=0
287658 On ch=2 n=78 v=72
287718 Off ch=2 n=78 v=0
287744 On ch=2 n=81 v=78
287829 On ch=2 n=79 v=64
287830 Off ch=2 n=81 v=0
287909 Off ch=2 n=79 v=0
287914 On ch=2 n=78 v=68
287974 Off ch=2 n=78 v=0
288000 On ch=2 n=76 v=67
288059 Off ch=2 n=76 v=0
288085 On ch=2 n=75 v=73
288144 Off ch=2 n=75 v=0
288170 On ch=2 n=76 v=79
288230 Off ch=2 n=76 v=0
288256 On ch=2 n=79 v=86
288341 On ch=2 n=78 v=73
288342 Off ch=2 n=79 v=0
288421 Off ch=2 n=78 v=0
288426 On ch=2 n=76 v=71
288486 Off ch=2 n=76 v=0
288512 On ch=2 n=74 v=76
288571 Off ch=2 n=74 v=0
288597 On ch=2 n=73 v=81
288656 Off ch=2 n=73 v=0
288682 On ch=2 n=74 v=85
288742 Off ch=2 n=74 v=0
288768 On ch=2 n=78 v=93
288853 On ch=2 n=76 v=81
288854 Off ch=2 n=78 v=0
288933 Off ch=2 n=76 v=0
288938 On ch=2 n=74 v=81
288998 Off ch=2 n=74 v=0
289024 On ch=2 n=73 v=87
289083 Off ch=2 n=73 v=0
289109 On ch=2 n=71 v=84
289168 Off ch=2 n=71 v=0
289194 On ch=2 n=69 v=86
289254 Off ch=2 n=69 v=0
289280 On ch=2 n=67 v=87
289339 Off ch=2 n=67 v=0
289365 On ch=2 n=71 v=101
289424 Off ch=2 n=71 v=0
289450 On ch=2 n=69 v=92
289510 Off ch=2 n=69 v=0
289536 On ch=2 n=67 v=78
289595 Off ch=2 n=67 v=0
289621 On ch=2 n=66 v=80
289680 Off ch=2 n=66 v=0
289706 On ch=2 n=64 v=77
289766 Off ch=2 n=64 v=0
289792 On ch=2 n=62 v=77
290048 Off ch=2 n=62 v=0
291328 On ch=2 n=74 v=71
291776 Off ch=2 n=74 v=0
291776 On ch=2 n=74 v=80
291840 Off ch=2 n=74 v=0
291840 On ch=2 n=86 v=75
293006 On ch=2 n=88 v=77
293031 On ch=2 n=86 v=77
293071 On ch=2 n=85 v=77
293096 On ch=2 n=86 v=77
293120 Off ch=2 n=86 v=0
293120 On ch=2 n=88 v=77
293120 Off ch=2 n=88 v=0
293120 Off ch=2 n=86 v=0
293120 Off ch=2 n=85 v=0
293120 Off ch=2 n=86 v=0
293209 Off ch=2 n=88 v=0
293248 On ch=2 n=86 v=59
293337 Off ch=2 n=86 v=0
293376 On ch=2 n=86 v=71
293465 Off ch=2 n=86 v=0
293504 On ch=2 n=84 v=66
293593 Off ch=2 n=84 v=0
293632 On ch=2 n=83 v=65
293721 Off ch=2 n=83 v=0
293760 On ch=2 n=84 v=74
293849 Off ch=2 n=84 v=0
293888 On ch=2 n=82 v=63
294400 On ch=2 n=83 v=72
294410 Off ch=2 n=82 v=0
294643 Off ch=2 n=83 v=0
295424 On ch=2 n=69 v=63
295872 Off ch=2 n=69 v=0
295872 On ch=2 n=69 v=73
295936 Off ch=2 n=69 v=0
295936 On ch=2 n=81 v=89
296704 Off ch=2 n=81 v=0
296704 On ch=2 n=81 v=74
296768 On ch=2 n=79 v=70
296769 Off ch=2 n=81 v=0
296832 On ch=2 n=78 v=69
296833 Off ch=2 n=79 v=0
296896 On ch=2 n=76 v=65
296897 Off ch=2 n=78 v=0
296956 Off ch=2 n=76 v=0
296960 On ch=2 n=78 v=64
297139 Off ch=2 n=78 v=0
297920 On ch=2 n=69 v=52
297984 Off ch=2 n=69 v=0
297984 On ch=2 n=81 v=72
298752 Off ch=2 n=81 v=0
298752 On ch=2 n=81 v=66
298816 On ch=2 n=79 v=61
298817 Off ch=2 n=81 v=0
298880 On ch=2 n=77 v=57
298881 Off ch=2 n=79 v=0
298944 On ch=2 n=76 v=57
298945 Off ch=2 n=77 v=0
299004 Off ch=2 n=76 v=0
299008 On ch=2 n=77 v=58
299187 Off ch=2 n=77 v=0
299968 On ch=2 n=65 v=55
300032 Off ch=2 n=65 v=0
300032 On ch=2 n=77 v=87
300800 Off ch=2 n=77 v=0
300800 On ch=2 n=77 v=80
300864 On ch=2 n=75 v=77
300865 Off ch=2 n=77 v=0
300928 On ch=2 n=74 v=64
300929 Off ch=2 n=75 v=0
300992 On ch=2 n=72 v=57
300993 Off ch=2 n=74 v=0
301052 Off ch=2 n=72 v=0
301056 On ch=2 n=74 v=80
301235 Off ch=2 n=74 v=0
302016 On ch=2 n=65 v=72
302080 Off ch=2 n=65 v=0
302080 On ch=2 n=77 v=121
302848 Off ch=2 n=77 v=0
302848 On ch=2 n=77 v=104
302912 On ch=2 n=75 v=101
302913 Off ch=2 n=77 v=0
302976 On ch=2 n=74 v=90
302977 Off ch=2 n=75 v=0
303040 On ch=2 n=72 v=86
303041 Off ch=2 n=74 v=0
303104 On ch=2 n=74 v=103
303105 Off ch=2 n=72 v=0
303274 Off ch=2 n=74 v=0
303872 On ch=2 n=62 v=51
304128 On ch=2 n=67 v=54
304133 Off ch=2 n=62 v=0
304298 Off ch=2 n=67 v=0
304896 On ch=2 n=67 v=45
305152 Off ch=2 n=67 v=0
305152 On ch=2 n=60 v=38
305331 Off ch=2 n=60 v=0
305920 On ch=2 n=65 v=47
306355 Off ch=2 n=65 v=0
306432 On ch=2 n=63 v=46
306611 Off ch=2 n=63 v=0
306688 On ch=2 n=62 v=45
306867 Off ch=2 n=62 v=0
306944 On ch=2 n=60 v=49
307123 Off ch=2 n=60 v=0
307200 On ch=2 n=62 v=66
307289 Off ch=2 n=62 v=0
307328 On ch=2 n=77 v=77
307417 Off ch=2 n=77 v=0
307456 On ch=2 n=75 v=61
307545 Off ch=2 n=75 v=0
307584 On ch=2 n=74 v=57
307673 Off ch=2 n=74 v=0
307712 On ch=2 n=72 v=56
307968 On ch=2 n=70 v=52
307973 Off ch=2 n=72 v=0
308211 Off ch=2 n=70 v=0
308352 On ch=2 n=82 v=47
308441 Off ch=2 n=82 v=0
308480 On ch=2 n=81 v=50
308569 Off ch=2 n=81 v=0
308608 On ch=2 n=79 v=48
308697 Off ch=2 n=79 v=0
308736 On ch=2 n=77 v=54
308992 On ch=2 n=76 v=48
308997 Off ch=2 n=77 v=0
309235 Off ch=2 n=76 v=0
309376 On ch=2 n=79 v=43
309465 Off ch=2 n=79 v=0
309504 On ch=2 n=77 v=47
309593 Off ch=2 n=77 v=0
309632 On ch=2 n=76 v=51
309721 Off ch=2 n=76 v=0
309760 On ch=2 n=74 v=43
310016 On ch=2 n=73 v=42
310021 Off ch=2 n=74 v=0
310259 Off ch=2 n=73 v=0
311424 On ch=2 n=55 v=53
311552 On ch=2 n=61 v=63
311554 Off ch=2 n=55 v=0
311680 On ch=2 n=64 v=65
311682 Off ch=2 n=61 v=0
311808 On ch=2 n=67 v=76
311810 Off ch=2 n=64 v=0
312051 Off ch=2 n=67 v=0
312448 On ch=2 n=57 v=62
312576 On ch=2 n=60 v=69
312578 Off ch=2 n=57 v=0
312704 On ch=2 n=66 v=80
312706 Off ch=2 n=60 v=0
312832 On ch=2 n=69 v=85
312834 Off ch=2 n=66 v=0
313075 Off ch=2 n=69 v=0
313984 On ch=2 n=71 v=87
314112 On ch=2 n=69 v=83
314114 Off ch=2 n=71 v=0
314240 On ch=2 n=67 v=89
314242 Off ch=2 n=69 v=0
314368 On ch=2 n=66 v=86
314370 Off ch=2 n=67 v=0
314496 On ch=2 n=64 v=94
314498 Off ch=2 n=66 v=0
314624 On ch=2 n=69 v=103
314626 Off ch=2 n=64 v=0
314752 On ch=2 n=67 v=96
314754 Off ch=2 n=69 v=0
314873 Off ch=2 n=67 v=0
314880 On ch=2 n=66 v=92
315008 On ch=2 n=67 v=95
315010 Off ch=2 n=66 v=0
315136 On ch=2 n=71 v=109
315138 Off ch=2 n=67 v=0
315264 On ch=2 n=67 v=99
315266 Off ch=2 n=71 v=0
315385 Off ch=2 n=67 v=0
315392 On ch=2 n=67 v=60
315776 On ch=2 n=66 v=56
315783 Off ch=2 n=67 v=0
315904 On ch=2 n=64 v=56
315906 Off ch=2 n=66 v=0
316032 On ch=2 n=62 v=66
316034 Off ch=2 n=64 v=0
316160 On ch=2 n=61 v=63
316162 Off ch=2 n=62 v=0
316288 On ch=2 n=59 v=71
316290 Off ch=2 n=61 v=0
316416 On ch=2 n=57 v=69
316418 Off ch=2 n=59 v=0
316659 Off ch=2 n=57 v=0
316672 On ch=2 n=83 v=110
316800 On ch=2 n=81 v=108
316802 Off ch=2 n=83 v=0
316928 On ch=2 n=79 v=81
316930 Off ch=2 n=81 v=0
317056 On ch=2 n=78 v=79
317058 Off ch=2 n=79 v=0
317184 On ch=2 n=76 v=79
317186 Off ch=2 n=78 v=0
317312 On ch=2 n=74 v=77
317314 Off ch=2 n=76 v=0
317440 On ch=2 n=73 v=79
317442 Off ch=2 n=74 v=0
317683 Off ch=2 n=73 v=0
317696 On ch=2 n=85 v=121
317741 Off ch=2 n=85 v=0
317753 On ch=2 n=86 v=121
317798 Off ch=2 n=86 v=0
317809 On ch=2 n=85 v=121
317853 Off ch=2 n=85 v=0
317864 On ch=2 n=86 v=121
317908 Off ch=2 n=86 v=0
317919 On ch=2 n=85 v=121
317963 Off ch=2 n=85 v=0
317973 On ch=2 n=86 v=121
318016 Off ch=2 n=86 v=0
318026 On ch=2 n=85 v=121
318068 Off ch=2 n=85 v=0
318079 On ch=2 n=86 v=121
318121 Off ch=2 n=86 v=0
318131 On ch=2 n=85 v=121
318172 Off ch=2 n=85 v=0
318183 On ch=2 n=86 v=121
318224 Off ch=2 n=86 v=0
318234 On ch=2 n=85 v=121
318274 Off ch=2 n=85 v=0
318284 On ch=2 n=86 v=121
318324 Off ch=2 n=86 v=0
318334 On ch=2 n=85 v=121
318374 Off ch=2 n=85 v=0
318383 On ch=2 n=86 v=121
318422 Off ch=2 n=86 v=0
318431 On ch=2 n=85 v=121
318469 Off ch=2 n=85 v=0
318479 On ch=2 n=86 v=113
318517 Off ch=2 n=86 v=0
318526 On ch=2 n=85 v=113
318563 Off ch=2 n=85 v=0
318573 On ch=2 n=86 v=113
318610 Off ch=2 n=86 v=0
318619 On ch=2 n=85 v=113
318655 Off ch=2 n=85 v=0
318665 On ch=2 n=86 v=113
318701 Off ch=2 n=86 v=0
318712 On ch=2 n=85 v=113
318749 Off ch=2 n=85 v=0
318760 On ch=2 n=86 v=113
318798 Off ch=2 n=86 v=0
318808 On ch=2 n=85 v=113
318846 Off ch=2 n=85 v=0
318857 On ch=2 n=86 v=113
318896 Off ch=2 n=86 v=0
318906 On ch=2 n=85 v=113
318945 Off ch=2 n=85 v=0
318956 On ch=2 n=86 v=113
318996 Off ch=2 n=86 v=0
319007 On ch=2 n=85 v=113
319047 Off ch=2 n=85 v=0
319058 On ch=2 n=86 v=113
319098 Off ch=2 n=86 v=0
319110 On ch=2 n=85 v=113
319151 Off ch=2 n=85 v=0
319162 On ch=2 n=86 v=113
319203 Off ch=2 n=86 v=0
319215 On ch=2 n=85 v=113
319257 Off ch=2 n=85 v=0
319269 On ch=2 n=86 v=113
319312 Off ch=2 n=86 v=0
319323 On ch=2 n=85 v=113
319366 Off ch=2 n=85 v=0
319378 On ch=2 n=86 v=113
319403 On ch=2 n=83 v=116
319422 Off ch=2 n=86 v=0
319434 On ch=2 n=85 v=116
319446 On ch=2 n=85 v=116
319478 Off ch=2 n=85 v=0
319488 On ch=2 n=86 v=113
319488 Off ch=2 n=83 v=0
319488 Off ch=2 n=85 v=0
319828 Off ch=2 n=86 v=0
320000 On ch=2 n=81 v=96
320358 Off ch=2 n=81 v=0
320512 On ch=2 n=83 v=118
320870 Off ch=2 n=83 v=0
321024 On ch=2 n=79 v=95
321382 Off ch=2 n=79 v=0
322022 On ch=2 n=61 v=103
322022 On ch=2 n=64 v=103
322048 Off ch=2 n=61 v=0
322048 Off ch=2 n=64 v=0
322048 On ch=2 n=69 v=103
322048 On ch=2 n=76 v=103
322227 Off ch=2 n=69 v=0
322227 Off ch=2 n=76 v=0
322304 On ch=2 n=69 v=87
322483 Off ch=2 n=69 v=0
323046 On ch=2 n=62 v=105
323072 Off ch=2 n=62 v=0
323072 On ch=2 n=69 v=105
323072 On ch=2 n=78 v=105
323251 Off ch=2 n=69 v=0
323251 Off ch=2 n=78 v=0
323328 On ch=2 n=74 v=103
323507 Off ch=2 n=74 v=0
323816 On ch=2 n=64 v=58
323840 Off ch=2 n=64 v=0
323840 On ch=2 n=73 v=58
323840 On ch=2 n=79 v=58
324096 Off ch=2 n=73 v=0
324096 Off ch=2 n=79 v=0
324328 On ch=2 n=66 v=64
324352 Off ch=2 n=66 v=0
324352 On ch=2 n=74 v=64
324352 On ch=2 n=81 v=64
324608 Off ch=2 n=74 v=0
324608 Off ch=2 n=81 v=0
324840 On ch=2 n=67 v=75
324864 Off ch=2 n=67 v=0
324864 On ch=2 n=74 v=75
324864 On ch=2 n=83 v=75
325120 Off ch=2 n=74 v=0
325120 Off ch=2 n=83 v=0
325352 On ch=2 n=69 v=86
325376 Off ch=2 n=69 v=0
325376 On ch=2 n=79 v=86
325376 On ch=2 n=85 v=86
325632 Off ch=2 n=79 v=0
325632 Off ch=2 n=85 v=0
326656 On ch=2 n=86 v=117
326976 On ch=2 n=85 v=116
326982 Off ch=2 n=86 v=0
327040 On ch=2 n=83 v=95
327041 Off ch=2 n=85 v=0
327104 On ch=2 n=81 v=90
327105 Off ch=2 n=83 v=0
327168 On ch=2 n=80 v=93
327169 Off ch=2 n=81 v=0
327232 On ch=2 n=81 v=100
327233 Off ch=2 n=80 v=0
327296 On ch=2 n=83 v=100
327297 Off ch=2 n=81 v=0
327360 On ch=2 n=81 v=96
327361 Off ch=2 n=83 v=0
327424 On ch=2 n=79 v=91
327425 Off ch=2 n=81 v=0
327488 On ch=2 n=78 v=82
327489 Off ch=2 n=79 v=0
327552 On ch=2 n=76 v=87
327553 Off ch=2 n=78 v=0
327616 On ch=2 n=74 v=83
327617 Off ch=2 n=76 v=0
327676 Off ch=2 n=74 v=0
327680 On ch=2 n=73 v=90
327859 Off ch=2 n=73 v=0
328704 On ch=2 n=74 v=107
329024 On ch=2 n=73 v=100
329030 Off ch=2 n=74 v=0
329088 On ch=2 n=71 v=89
329089 Off ch=2 n=73 v=0
329152 On ch=2 n=69 v=79
329153 Off ch=2 n=71 v=0
329216 On ch=2 n=68 v=95
329217 Off ch=2 n=69 v=0
329280 On ch=2 n=69 v=97
329281 Off ch=2 n=68 v=0
329344 On ch=2 n=71 v=105
329345 Off ch=2 n=69 v=0
329408 On ch=2 n=69 v=98
329409 Off ch=2 n=71 v=0
329472 On ch=2 n=67 v=91
329473 Off ch=2 n=69 v=0
329536 On ch=2 n=66 v=86
329537 Off ch=2 n=67 v=0
329600 On ch=2 n=64 v=91
329601 Off ch=2 n=66 v=0
329664 On ch=2 n=62 v=84
329665 Off ch=2 n=64 v=0
329728 On ch=2 n=61 v=96
329729 Off ch=2 n=62 v=0
329971 Off ch=2 n=61 v=0
329984 On ch=2 n=79 v=127
330304 On ch=2 n=78 v=117
330310 Off ch=2 n=79 v=0
330368 On ch=2 n=76 v=91
330369 Off ch=2 n=78 v=0
330432 On ch=2 n=74 v=83
330433 Off ch=2 n=76 v=0
330496 On ch=2 n=73 v=93
330497 Off ch=2 n=74 v=0
330560 On ch=2 n=71 v=86
330561 Off ch=2 n=73 v=0
330624 On ch=2 n=69 v=89
330625 Off ch=2 n=71 v=0
330688 On ch=2 n=67 v=82
330689 Off ch=2 n=69 v=0
330748 Off ch=2 n=67 v=0
330752 On ch=2 n=66 v=105
330816 On ch=2 n=67 v=113
330817 Off ch=2 n=66 v=0
330880 On ch=2 n=69 v=119
330881 Off ch=2 n=67 v=0
330944 On ch=2 n=71 v=127
330945 Off ch=2 n=69 v=0
331008 On ch=2 n=73 v=121
331009 Off ch=2 n=71 v=0
331072 On ch=2 n=74 v=127
331073 Off ch=2 n=73 v=0
331136 On ch=2 n=76 v=125
331137 Off ch=2 n=74 v=0
331200 On ch=2 n=78 v=127
331201 Off ch=2 n=76 v=0
331260 Off ch=2 n=78 v=0
331264 On ch=2 n=79 v=125
331443 Off ch=2 n=79 v=0
331520 On ch=2 n=80 v=123
331699 Off ch=2 n=80 v=0
331776 On ch=2 n=81 v=127
331955 Off ch=2 n=81 v=0
332032 On ch=2 n=82 v=127
332211 Off ch=2 n=82 v=0
332288 On ch=2 n=83 v=127
332467 Off ch=2 n=83 v=0
332544 On ch=2 n=86 v=127
332723 Off ch=2 n=86 v=0
332800 On ch=2 n=69 v=95
333056 Off ch=2 n=69 v=0
333287 On ch=2 n=69 v=114
333322 Off ch=2 n=69 v=0
333322 On ch=2 n=76 v=114
333322 On ch=2 n=85 v=114
333578 Off ch=2 n=76 v=0
333578 Off ch=2 n=85 v=0
333799 On ch=2 n=62 v=112
333834 Off ch=2 n=62 v=0
333834 On ch=2 n=78 v=112
333834 On ch=2 n=86 v=112
334090 Off ch=2 n=86 v=0
334124 Off ch=2 n=78 v=0
0 On ch=1 n=38 v=87
0 On ch=1 n=42 v=87
0 On ch=1 n=45 v=87
0 On ch=1 n=50 v=87
768 Off ch=1 n=54 v=0
768 Off ch=1 n=57 v=0
768 Off ch=1 n=62 v=0
768 Off ch=1 n=38 v=0
768 Off ch=1 n=42 v=0
768 Off ch=1 n=45 v=0
768 Off ch=1 n=50 v=0
896 On ch=1 n=57 v=84
896 On ch=1 n=45 v=87
960 On ch=1 n=62 v=92
960 On ch=1 n=50 v=93
961 Off ch=1 n=57 v=0
961 Off ch=1 n=45 v=0
1024 On ch=1 n=66 v=111
1024 On ch=1 n=54 v=105
1025 Off ch=1 n=62 v=0
1025 Off ch=1 n=50 v=0
1194 Off ch=1 n=66 v=0
1194 Off ch=1 n=54 v=0
1408 On ch=1 n=62 v=89
1408 On ch=1 n=50 v=93
1472 On ch=1 n=66 v=99
1472 On ch=1 n=54 v=99
1473 Off ch=1 n=62 v=0
1473 Off ch=1 n=50 v=0
1536 On ch=1 n=69 v=107
1536 On ch=1 n=57 v=100
1537 Off ch=1 n=66 v=0
1537 Off ch=1 n=54 v=0
1706 Off ch=1 n=69 v=0
1706 Off ch=1 n=57 v=0
1920 On ch=1 n=69 v=84
1920 On ch=1 n=57 v=87
1984 On ch=1 n=66 v=73
1984 On ch=1 n=54 v=85
1985 Off ch=1 n=69 v=0
1985 Off ch=1 n=57 v=0
2048 On ch=1 n=62 v=82
2048 On ch=1 n=50 v=94
2049 Off ch=1 n=66 v=0
2049 Off ch=1 n=54 v=0
2218 Off ch=1 n=62 v=0
2218 Off ch=1 n=50 v=0
2944 On ch=1 n=66 v=92
2944 On ch=1 n=54 v=86
3008 On ch=1 n=62 v=75
3008 On ch=1 n=50 v=77
3009 Off ch=1 n=66 v=0
3009 Off ch=1 n=54 v=0
3072 On ch=1 n=57 v=94
3072 On ch=1 n=45 v=95
3073 Off ch=1 n=62 v=0
3073 Off ch=1 n=50 v=0
3242 Off ch=1 n=57 v=0
3242 Off ch=1 n=45 v=0
3456 On ch=1 n=62 v=89
3456 On ch=1 n=50 v=89
3520 On ch=1 n=57 v=78
3520 On ch=1 n=45 v=87
3521 Off ch=1 n=62 v=0
3521 Off ch=1 n=50 v=0
3584 On ch=1 n=54 v=90
3584 On ch=1 n=42 v=94
3585 Off ch=1 n=57 v=0
3585 Off ch=1 n=45 v=0
3754 Off ch=1 n=54 v=0
3754 Off ch=1 n=42 v=0
3968 On ch=1 n=57 v=91
3968 On ch=1 n=45 v=87
4032 On ch=1 n=54 v=85
4032 On ch=1 n=42 v=80
4033 Off ch=1 n=57 v=0
4033 Off ch=1 n=45 v=0
4092 Off ch=1 n=54 v=0
4096 On ch=1 n=50 v=58
4096 On ch=1 n=38 v=65
4096 On ch=1 n=45 v=65
4097 Off ch=1 n=42 v=0
4224 On ch=1 n=54 v=64
4226 Off ch=1 n=50 v=0
4352 On ch=1 n=57 v=60
4354 Off ch=1 n=54 v=0
4480 On ch=1 n=55 v=59
4482 Off ch=1 n=57 v=0
4608 On ch=1 n=54 v=57
4610 Off ch=1 n=55 v=0
4736 On ch=1 n=52 v=52
4738 Off ch=1 n=54 v=0
4864 On ch=1 n=50 v=62
4866 Off ch=1 n=52 v=0
4992 On ch=1 n=49 v=63
4994 Off ch=1 n=50 v=0
5068 Off ch=1 n=38 v=0
5068 Off ch=1 n=45 v=0
5120 On ch=1 n=50 v=62
5120 On ch=1 n=42 v=66
5120 On ch=1 n=45 v=66
5120 On ch=1 n=50 v=66
5122 Off ch=1 n=49 v=0
5248 On ch=1 n=52 v=72
5250 Off ch=1 n=50 v=0
5376 On ch=1 n=54 v=62
5378 Off ch=1 n=52 v=0
5504 On ch=1 n=55 v=60
5506 Off ch=1 n=54 v=0
5632 On ch=1 n=57 v=69
5634 Off ch=1 n=55 v=0
5760 On ch=1 n=59 v=70
5762 Off ch=1 n=57 v=0
5888 On ch=1 n=61 v=67
5890 Off ch=1 n=59 v=0
6016 On ch=1 n=62 v=71
6018 Off ch=1 n=61 v=0
6144 On ch=1 n=57 v=56
6144 Off ch=1 n=42 v=0
6144 Off ch=1 n=45 v=0
6144 Off ch=1 n=50 v=0
6144 On ch=1 n=40 v=55
6144 On ch=1 n=45 v=55
6144 On ch=1 n=49 v=55
6146 Off ch=1 n=62 v=0
6272 On ch=1 n=61 v=57
6274 Off ch=1 n=57 v=0
6400 On ch=1 n=64 v=67
6402 Off ch=1 n=61 v=0
6528 On ch=1 n=62 v=64
6530 Off ch=1 n=64 v=0
6656 On ch=1 n=61 v=59
6658 Off ch=1 n=62 v=0
6784 On ch=1 n=59 v=61
6786 Off ch=1 n=61 v=0
6912 On ch=1 n=57 v=59
6914 Off ch=1 n=59 v=0
7040 On ch=1 n=56 v=54
7042 Off ch=1 n=57 v=0
7168 On ch=1 n=57 v=65
7168 Off ch=1 n=40 v=0
7168 Off ch=1 n=45 v=0
7168 Off ch=1 n=49 v=0
7168 On ch=1 n=43 v=61
7168 On ch=1 n=45 v=61
7168 On ch=1 n=52 v=61
7170 Off ch=1 n=56 v=0
7296 On ch=1 n=59 v=70
7298 Off ch=1 n=57 v=0
7424 On ch=1 n=61 v=66
7426 Off ch=1 n=59 v=0
7552 On ch=1 n=62 v=66
7554 Off ch=1 n=61 v=0
7680 On ch=1 n=64 v=66
7682 Off ch=1 n=62 v=0
7808 On ch=1 n=66 v=71
7810 Off ch=1 n=64 v=0
7936 On ch=1 n=67 v=64
7938 Off ch=1 n=66 v=0
8064 On ch=1 n=64 v=59
8066 Off ch=1 n=67 v=0
8192 On ch=1 n=62 v=56
8192 Off ch=1 n=43 v=0
8192 Off ch=1 n=45 v=0
8192 Off ch=1 n=52 v=0
8192 On ch=1 n=42 v=61
8192 On ch=1 n=45 v=61
8192 On ch=1 n=50 v=61
8194 Off ch=1 n=64 v=0
8320 On ch=1 n=66 v=69
8322 Off ch=1 n=62 v=0
8448 On ch=1 n=69 v=71
8450 Off ch=1 n=66 v=0
8576 On ch=1 n=67 v=57
8578 Off ch=1 n=69 v=0
8704 On ch=1 n=66 v=58
8706 Off ch=1 n=67 v=0
8832 On ch=1 n=64 v=63
8834 Off ch=1 n=66 v=0
8960 On ch=1 n=62 v=60
8962 Off ch=1 n=64 v=0
9088 On ch=1 n=61 v=64
9090 Off ch=1 n=62 v=0
9216 On ch=1 n=62 v=68
9216 Off ch=1 n=42 v=0
9216 Off ch=1 n=45 v=0
9216 Off ch=1 n=50 v=0
9216 On ch=1 n=48 v=77
9216 On ch=1 n=50 v=77
9216 On ch=1 n=57 v=77
9218 Off ch=1 n=61 v=0
9344 On ch=1 n=64 v=75
9346 Off ch=1 n=62 v=0
9472 On ch=1 n=66 v=71
9474 Off ch=1 n=64 v=0
9600 On ch=1 n=67 v=80
9602 Off ch=1 n=66 v=0
9728 On ch=1 n=69 v=79
9730 Off ch=1 n=67 v=0
9856 On ch=1 n=71 v=75
9858 Off ch=1 n=69 v=0
9984 On ch=1 n=72 v=81
9986 Off ch=1 n=71 v=0
10112 On ch=1 n=73 v=79
10114 Off ch=1 n=72 v=0
10240 On ch=1 n=74 v=84
10240 Off ch=1 n=48 v=0
10240 Off ch=1 n=50 v=0
10240 Off ch=1 n=57 v=0
10240 On ch=1 n=47 v=76
10240 On ch=1 n=50 v=76
10240 On ch=1 n=55 v=76
10242 Off ch=1 n=73 v=0
10368 On ch=1 n=76 v=82
10370 Off ch=1 n=74 v=0
10496 On ch=1 n=78 v=86
10498 Off ch=1 n=76 v=0
10624 On ch=1 n=79 v=93
10626 Off ch=1 n=78 v=0
10752 On ch=1 n=80 v=85
10752 Off ch=1 n=47 v=0
10752 Off ch=1 n=50 v=0
10752 Off ch=1 n=55 v=0
10752 On ch=1 n=43 v=77
10752 On ch=1 n=50 v=77
10752 On ch=1 n=52 v=77
10754 Off ch=1 n=79 v=0
10880 On ch=1 n=81 v=89
10882 Off ch=1 n=80 v=0
11008 On ch=1 n=82 v=91
11010 Off ch=1 n=81 v=0
11136 On ch=1 n=83 v=92
11138 Off ch=1 n=82 v=0
11257 Off ch=1 n=83 v=0
11264 On ch=1 n=83 v=71
11264 Off ch=1 n=43 v=0
11264 Off ch=1 n=50 v=0
11264 Off ch=1 n=52 v=0
11264 On ch=1 n=45 v=65
11264 On ch=1 n=50 v=65
11264 On ch=1 n=54 v=65
11392 On ch=1 n=81 v=63
11394 Off ch=1 n=83 v=0
11520 On ch=1 n=79 v=71
11522 Off ch=1 n=81 v=0
11648 On ch=1 n=78 v=62
11650 Off ch=1 n=79 v=0
11769 Off ch=1 n=78 v=0
11776 On ch=1 n=78 v=73
11776 Off ch=1 n=45 v=0
11776 Off ch=1 n=50 v=0
11776 Off ch=1 n=54 v=0
11776 On ch=1 n=45 v=61
11776 On ch=1 n=52 v=61
11776 On ch=1 n=55 v=61
11904 On ch=1 n=76 v=71
11906 Off ch=1 n=78 v=0
12032 On ch=1 n=74 v=66
12034 Off ch=1 n=76 v=0
12160 On ch=1 n=73 v=64
12162 Off ch=1 n=74 v=0
12281 Off ch=1 n=73 v=0
12288 On ch=1 n=74 v=74
12288 Off ch=1 n=45 v=0
12288 Off ch=1 n=52 v=0
12288 Off ch=1 n=55 v=0
12288 On ch=1 n=50 v=53
12288 On ch=1 n=54 v=53
12544 Off ch=1 n=74 v=0
12736 On ch=1 n=69 v=76
12800 On ch=1 n=81 v=99
12801 Off ch=1 n=69 v=0
13312 Off ch=1 n=50 v=0
13312 Off ch=1 n=54 v=0
13312 On ch=1 n=54 v=86
13312 On ch=1 n=57 v=86
13367 Off ch=1 n=81 v=0
13397 On ch=1 n=78 v=76
13482 Off ch=1 n=78 v=0
13482 On ch=1 n=74 v=77
13568 Off ch=1 n=74 v=0
13568 On ch=1 n=69 v=71
13653 Off ch=1 n=69 v=0
13653 On ch=1 n=66 v=74
13738 Off ch=1 n=66 v=0
13738 On ch=1 n=62 v=68
13824 Off ch=1 n=62 v=0
13824 On ch=1 n=62 v=80
14003 Off ch=1 n=62 v=0
14080 On ch=1 n=62 v=85
14259 Off ch=1 n=62 v=0
14261 On ch=1 n=61 v=79
14286 On ch=1 n=62 v=79
14311 On ch=1 n=64 v=79
14336 On ch=1 n=62 v=79
14336 Off ch=1 n=61 v=0
14336 Off ch=1 n=62 v=0
14336 Off ch=1 n=64 v=0
14336 Off ch=1 n=54 v=0
14336 Off ch=1 n=57 v=0
14336 On ch=1 n=52 v=81
14336 On ch=1 n=57 v=81
14583 Off ch=1 n=62 v=0
14592 On ch=1 n=61 v=83
14713 Off ch=1 n=61 v=0
14784 On ch=1 n=69 v=73
14848 On ch=1 n=79 v=91
14849 Off ch=1 n=69 v=0
15360 Off ch=1 n=52 v=0
15360 Off ch=1 n=57 v=0
15360 On ch=1 n=55 v=80
15360 On ch=1 n=57 v=80
15415 Off ch=1 n=79 v=0
15445 On ch=1 n=76 v=75
15530 Off ch=1 n=76 v=0
15530 On ch=1 n=73 v=80
15616 Off ch=1 n=73 v=0
15616 On ch=1 n=67 v=66
15701 Off ch=1 n=67 v=0
15701 On ch=1 n=64 v=77
15786 Off ch=1 n=64 v=0
15786 On ch=1 n=61 v=72
15872 Off ch=1 n=61 v=0
15872 On ch=1 n=61 v=84
16051 Off ch=1 n=61 v=0
16128 On ch=1 n=61 v=85
16384 On ch=1 n=64 v=93
16384 Off ch=1 n=55 v=0
16384 Off ch=1 n=57 v=0
16384 On ch=1 n=54 v=82
16384 On ch=1 n=57 v=82
16389 Off ch=1 n=61 v=0
16640 On ch=1 n=62 v=87
16645 Off ch=1 n=64 v=0
16761 Off ch=1 n=62 v=0
16832 On ch=1 n=74 v=78
16896 On ch=1 n=86 v=105
16897 Off ch=1 n=74 v=0
17408 Off ch=1 n=54 v=0
17408 Off ch=1 n=57 v=0
17408 On ch=1 n=60 v=105
17408 On ch=1 n=62 v=105
17463 Off ch=1 n=86 v=0
17493 On ch=1 n=81 v=81
17578 Off ch=1 n=81 v=0
17578 On ch=1 n=78 v=86
17664 Off ch=1 n=78 v=0
17664 On ch=1 n=74 v=79
17749 Off ch=1 n=74 v=0
17749 On ch=1 n=69 v=82
17834 Off ch=1 n=69 v=0
17834 On ch=1 n=66 v=89
17920 Off ch=1 n=66 v=0
17920 On ch=1 n=66 v=93
18099 Off ch=1 n=66 v=0
18176 On ch=1 n=66 v=98
18355 Off ch=1 n=66 v=0
18432 On ch=1 n=67 v=107
18432 Off ch=1 n=60 v=0
18432 Off ch=1 n=62 v=0
18432 On ch=1 n=59 v=103
18432 On ch=1 n=62 v=103
18816 Off ch=1 n=67 v=0
18816 On ch=1 n=69 v=112
18858 Off ch=1 n=69 v=0
18858 On ch=1 n=67 v=99
18901 Off ch=1 n=67 v=0
18901 On ch=1 n=66 v=100
18944 Off ch=1 n=66 v=0
18944 On ch=1 n=67 v=112
19008 Off ch=1 n=67 v=0
19008 On ch=1 n=69 v=112
19072 Off ch=1 n=69 v=0
19072 On ch=1 n=71 v=110
19136 Off ch=1 n=71 v=0
19136 On ch=1 n=72 v=115
19200 Off ch=1 n=72 v=0
19200 On ch=1 n=74 v=109
19264 Off ch=1 n=74 v=0
19264 On ch=1 n=76 v=118
19328 Off ch=1 n=76 v=0
19328 On ch=1 n=78 v=115
19392 Off ch=1 n=78 v=0
19392 On ch=1 n=79 v=115
19456 Off ch=1 n=79 v=0
19456 On ch=1 n=80 v=104
19456 Off ch=1 n=59 v=0
19456 Off ch=1 n=62 v=0
19456 On ch=1 n=58 v=96
19456 On ch=1 n=62 v=96
19501 Off ch=1 n=80 v=0
19512 On ch=1 n=81 v=104
19556 Off ch=1 n=81 v=0
19567 On ch=1 n=80 v=104
19611 Off ch=1 n=80 v=0
19621 On ch=1 n=81 v=104
19664 Off ch=1 n=81 v=0
19674 On ch=1 n=80 v=104
19716 Off ch=1 n=80 v=0
19726 On ch=1 n=81 v=104
19767 Off ch=1 n=81 v=0
19777 On ch=1 n=80 v=104
19817 Off ch=1 n=80 v=0
19827 On ch=1 n=81 v=104
19867 Off ch=1 n=81 v=0
19875 On ch=1 n=80 v=104
19913 Off ch=1 n=80 v=0
19922 On ch=1 n=81 v=104
19959 Off ch=1 n=81 v=0
19968 On ch=1 n=80 v=104
20004 Off ch=1 n=80 v=0
20014 On ch=1 n=81 v=104
20050 Off ch=1 n=81 v=0
20061 On ch=1 n=80 v=104
20098 Off ch=1 n=80 v=0
20110 On ch=1 n=81 v=104
20149 Off ch=1 n=81 v=0
20160 On ch=1 n=80 v=104
20200 Off ch=1 n=80 v=0
20211 On ch=1 n=81 v=104
20251 Off ch=1 n=81 v=0
20263 On ch=1 n=80 v=104
20304 Off ch=1 n=80 v=0
20316 On ch=1 n=81 v=104
20358 Off ch=1 n=81 v=0
20370 On ch=1 n=80 v=104
20413 Off ch=1 n=80 v=0
20419 On ch=1 n=78 v=118
20446 On ch=1 n=79 v=118
20480 On ch=1 n=81 v=118
20480 Off ch=1 n=78 v=0
20480 Off ch=1 n=79 v=0
20480 Off ch=1 n=58 v=0
20480 Off ch=1 n=62 v=0
20480 On ch=1 n=45 v=99
20544 Off ch=1 n=45 v=0
20544 On ch=1 n=57 v=110
20608 Off ch=1 n=57 v=0
20608 On ch=1 n=56 v=94
20672 Off ch=1 n=56 v=0
20672 On ch=1 n=57 v=101
20736 Off ch=1 n=57 v=0
20736 On ch=1 n=59 v=102
20800 Off ch=1 n=59 v=0
20800 On ch=1 n=57 v=97
20844 Off ch=1 n=81 v=0
20864 Off ch=1 n=57 v=0
20864 On ch=1 n=56 v=93
20928 Off ch=1 n=56 v=0
20928 On ch=1 n=57 v=102
20992 Off ch=1 n=57 v=0
20992 On ch=1 n=45 v=84
21248 On ch=1 n=79 v=70
21248 Off ch=1 n=45 v=0
21312 Off ch=1 n=79 v=0
21312 On ch=1 n=88 v=86
21376 Off ch=1 n=88 v=0
21376 On ch=1 n=85 v=69
21440 Off ch=1 n=85 v=0
21440 On ch=1 n=79 v=57
21504 Off ch=1 n=79 v=0
21504 On ch=1 n=76 v=59
21568 Off ch=1 n=76 v=0
21568 On ch=1 n=85 v=90
21632 Off ch=1 n=85 v=0
21632 On ch=1 n=79 v=64
21696 Off ch=1 n=79 v=0
21696 On ch=1 n=76 v=63
21760 Off ch=1 n=76 v=0
21760 On ch=1 n=73 v=64
21824 Off ch=1 n=73 v=0
21824 On ch=1 n=79 v=78
21888 Off ch=1 n=79 v=0
21888 On ch=1 n=76 v=64
21952 Off ch=1 n=76 v=0
21952 On ch=1 n=73 v=64
22016 Off ch=1 n=73 v=0
22016 On ch=1 n=67 v=57
22080 Off ch=1 n=67 v=0
22080 On ch=1 n=76 v=85
22144 Off ch=1 n=76 v=0
22144 On ch=1 n=73 v=68
22208 Off ch=1 n=73 v=0
22208 On ch=1 n=67 v=57
22272 Off ch=1 n=67 v=0
22272 On ch=1 n=64 v=63
22336 Off ch=1 n=64 v=0
22336 On ch=1 n=73 v=89
22400 Off ch=1 n=73 v=0
22400 On ch=1 n=67 v=62
22464 Off ch=1 n=67 v=0
22464 On ch=1 n=64 v=64
22528 Off ch=1 n=64 v=0
22528 On ch=1 n=66 v=99
22528 On ch=1 n=74 v=99
22528 On ch=1 n=33 v=75
22592 Off ch=1 n=33 v=0
22592 On ch=1 n=45 v=75
22656 Off ch=1 n=45 v=0
22656 On ch=1 n=44 v=71
22720 Off ch=1 n=44 v=0
22720 On ch=1 n=45 v=74
22784 Off ch=1 n=66 v=0
22784 Off ch=1 n=74 v=0
22784 Off ch=1 n=45 v=0
22784 On ch=1 n=47 v=74
22848 Off ch=1 n=47 v=0
22848 On ch=1 n=45 v=70
22912 Off ch=1 n=45 v=0
22912 On ch=1 n=44 v=71
22976 Off ch=1 n=44 v=0
22976 On ch=1 n=45 v=68
23040 Off ch=1 n=45 v=0
23040 On ch=1 n=33 v=61
23296 On ch=1 n=78 v=62
23296 Off ch=1 n=33 v=0
23360 Off ch=1 n=78 v=0
23360 On ch=1 n=86 v=90
23424 Off ch=1 n=86 v=0
23424 On ch=1 n=81 v=67
23488 Off ch=1 n=81 v=0
23488 On ch=1 n=78 v=64
23552 Off ch=1 n=78 v=0
23552 On ch=1 n=74 v=60
23616 Off ch=1 n=74 v=0
23616 On ch=1 n=81 v=80
23680 Off ch=1 n=81 v=0
23680 On ch=1 n=78 v=66
23744 Off ch=1 n=78 v=0
23744 On ch=1 n=74 v=61
23808 Off ch=1 n=74 v=0
23808 On ch=1 n=69 v=60
23872 Off ch=1 n=69 v=0
23872 On ch=1 n=78 v=81
23936 Off ch=1 n=78 v=0
23936 On ch=1 n=74 v=63
24000 Off ch=1 n=74 v=0
24000 On ch=1 n=69 v=65
24064 Off ch=1 n=69 v=0
24064 On ch=1 n=66 v=68
24128 Off ch=1 n=66 v=0
24128 On ch=1 n=74 v=83
24192 Off ch=1 n=74 v=0
24192 On ch=1 n=69 v=62
24256 Off ch=1 n=69 v=0
24256 On ch=1 n=66 v=63
24320 Off ch=1 n=66 v=0
24320 On ch=1 n=62 v=67
24384 Off ch=1 n=62 v=0
24384 On ch=1 n=69 v=81
24448 Off ch=1 n=69 v=0
24448 On ch=1 n=66 v=67
24512 Off ch=1 n=66 v=0
24512 On ch=1 n=62 v=64
24576 Off ch=1 n=62 v=0
24576 On ch=1 n=61 v=91
24576 On ch=1 n=64 v=91
24576 On ch=1 n=67 v=91
24576 On ch=1 n=45 v=75
24640 Off ch=1 n=45 v=0
24640 On ch=1 n=57 v=80
24704 Off ch=1 n=57 v=0
24704 On ch=1 n=56 v=74
24768 Off ch=1 n=56 v=0
24768 On ch=1 n=57 v=70
24832 Off ch=1 n=61 v=0
24832 Off ch=1 n=64 v=0
24832 Off ch=1 n=67 v=0
24832 Off ch=1 n=57 v=0
24832 On ch=1 n=59 v=77
24896 Off ch=1 n=59 v=0
24896 On ch=1 n=57 v=62
24960 Off ch=1 n=57 v=0
24960 On ch=1 n=56 v=66
25024 Off ch=1 n=56 v=0
25024 On ch=1 n=57 v=77
25088 Off ch=1 n=57 v=0
25088 On ch=1 n=45 v=64
25344 On ch=1 n=83 v=62
25344 Off ch=1 n=45 v=0
25408 Off ch=1 n=83 v=0
25408 On ch=1 n=82 v=64
25472 Off ch=1 n=82 v=0
25472 On ch=1 n=83 v=70
25536 Off ch=1 n=83 v=0
25536 On ch=1 n=82 v=71
25600 Off ch=1 n=82 v=0
25600 On ch=1 n=83 v=114
25600 On ch=1 n=33 v=84
25600 On ch=1 n=45 v=84
25664 Off ch=1 n=83 v=0
25664 On ch=1 n=85 v=119
25728 Off ch=1 n=85 v=0
25728 On ch=1 n=83 v=102
25792 Off ch=1 n=83 v=0
25792 On ch=1 n=82 v=106
25856 Off ch=1 n=82 v=0
25856 On ch=1 n=83 v=118
25920 Off ch=1 n=83 v=0
25920 On ch=1 n=81 v=107
25984 Off ch=1 n=81 v=0
25984 On ch=1 n=79 v=108
26048 Off ch=1 n=79 v=0
26048 On ch=1 n=78 v=110
26112 Off ch=1 n=78 v=0
26112 On ch=1 n=76 v=108
26176 Off ch=1 n=76 v=0
26176 On ch=1 n=74 v=104
26240 Off ch=1 n=74 v=0
26240 On ch=1 n=73 v=106
26304 Off ch=1 n=73 v=0
26304 On ch=1 n=71 v=106
26368 Off ch=1 n=71 v=0
26368 On ch=1 n=69 v=106
26432 Off ch=1 n=69 v=0
26432 On ch=1 n=67 v=100
26496 Off ch=1 n=67 v=0
26496 On ch=1 n=66 v=110
26560 Off ch=1 n=66 v=0
26560 On ch=1 n=64 v=104
26624 Off ch=1 n=64 v=0
26624 On ch=1 n=62 v=58
26624 Off ch=1 n=33 v=0
26624 Off ch=1 n=45 v=0
26624 On ch=1 n=38 v=61
26624 On ch=1 n=50 v=61
26752 On ch=1 n=66 v=65
26752 On ch=1 n=54 v=64
26754 Off ch=1 n=62 v=0
26754 Off ch=1 n=38 v=0
26754 Off ch=1 n=50 v=0
26880 On ch=1 n=69 v=66
26880 On ch=1 n=57 v=65
26882 Off ch=1 n=66 v=0
26882 Off ch=1 n=54 v=0
27008 On ch=1 n=67 v=63
27008 On ch=1 n=55 v=67
27010 Off ch=1 n=69 v=0
27010 Off ch=1 n=57 v=0
27136 On ch=1 n=66 v=61
27136 On ch=1 n=54 v=57
27138 Off ch=1 n=67 v=0
27138 Off ch=1 n=55 v=0
27264 On ch=1 n=64 v=57
27264 On ch=1 n=52 v=57
27266 Off ch=1 n=66 v=0
27266 Off ch=1 n=54 v=0
27392 On ch=1 n=62 v=57
27392 On ch=1 n=50 v=60
27394 Off ch=1 n=64 v=0
27394 Off ch=1 n=52 v=0
27520 On ch=1 n=61 v=50
27520 On ch=1 n=49 v=58
27522 Off ch=1 n=62 v=0
27522 Off ch=1 n=50 v=0
27648 On ch=1 n=62 v=65
27648 On ch=1 n=50 v=57
27650 Off ch=1 n=61 v=0
27650 Off ch=1 n=49 v=0
27776 On ch=1 n=64 v=63
27776 On ch=1 n=52 v=62
27778 Off ch=1 n=62 v=0
27778 Off ch=1 n=50 v=0
27904 On ch=1 n=66 v=67
27904 On ch=1 n=54 v=65
27906 Off ch=1 n=64 v=0
27906 Off ch=1 n=52 v=0
28032 On ch=1 n=67 v=75
28032 On ch=1 n=55 v=65
28034 Off ch=1 n=66 v=0
28034 Off ch=1 n=54 v=0
28160 On ch=1 n=69 v=67
28160 On ch=1 n=57 v=60
28162 Off ch=1 n=67 v=0
28162 Off ch=1 n=55 v=0
28288 On ch=1 n=71 v=69
28288 On ch=1 n=59 v=62
28290 Off ch=1 n=69 v=0
28290 Off ch=1 n=57 v=0
28416 On ch=1 n=73 v=67
28416 On ch=1 n=61 v=63
28418 Off ch=1 n=71 v=0
28418 Off ch=1 n=59 v=0
28544 On ch=1 n=74 v=72
28544 On ch=1 n=62 v=67
28546 Off ch=1 n=73 v=0
28546 Off ch=1 n=61 v=0
28665 Off ch=1 n=74 v=0
28672 On ch=1 n=71 v=57
28672 On ch=1 n=59 v=61
28674 Off ch=1 n=62 v=0
28800 On ch=1 n=74 v=67
28800 On ch=1 n=62 v=61
28802 Off ch=1 n=71 v=0
28802 Off ch=1 n=59 v=0
28928 On ch=1 n=78 v=68
28928 On ch=1 n=66 v=66
28930 Off ch=1 n=74 v=0
28930 Off ch=1 n=62 v=0
29056 On ch=1 n=76 v=60
29056 On ch=1 n=64 v=64
29058 Off ch=1 n=78 v=0
29058 Off ch=1 n=66 v=0
29184 On ch=1 n=74 v=53
29184 On ch=1 n=62 v=58
29186 Off ch=1 n=76 v=0
29186 Off ch=1 n=64 v=0
29312 On ch=1 n=73 v=52
29312 On ch=1 n=61 v=55
29314 Off ch=1 n=74 v=0
29314 Off ch=1 n=62 v=0
29440 On ch=1 n=71 v=56
29440 On ch=1 n=59 v=56
29442 Off ch=1 n=73 v=0
29442 Off ch=1 n=61 v=0
29568 On ch=1 n=70 v=49
29568 On ch=1 n=58 v=52
29570 Off ch=1 n=71 v=0
29570 Off ch=1 n=59 v=0
29696 On ch=1 n=71 v=63
29696 On ch=1 n=59 v=62
29698 Off ch=1 n=70 v=0
29698 Off ch=1 n=58 v=0
29824 On ch=1 n=73 v=63
29824 On ch=1 n=61 v=65
29826 Off ch=1 n=71 v=0
29826 Off ch=1 n=59 v=0
29952 On ch=1 n=74 v=60
29952 On ch=1 n=62 v=67
29954 Off ch=1 n=73 v=0
29954 Off ch=1 n=61 v=0
30080 On ch=1 n=76 v=65
30080 On ch=1 n=64 v=68
30082 Off ch=1 n=74 v=0
30082 Off ch=1 n=62 v=0
30208 On ch=1 n=78 v=64
30208 On ch=1 n=66 v=68
30210 Off ch=1 n=76 v=0
30210 Off ch=1 n=64 v=0
30336 On ch=1 n=80 v=67
30336 On ch=1 n=68 v=70
30338 Off ch=1 n=78 v=0
30338 Off ch=1 n=66 v=0
30464 On ch=1 n=82 v=62
30464 On ch=1 n=70 v=63
30466 Off ch=1 n=80 v=0
30466 Off ch=1 n=68 v=0
30592 On ch=1 n=83 v=67
30592 On ch=1 n=71 v=64
30594 Off ch=1 n=82 v=0
30594 Off ch=1 n=70 v=0
30713 Off ch=1 n=83 v=0
30713 Off ch=1 n=71 v=0
30720 On ch=1 n=80 v=55
30720 On ch=1 n=68 v=57
30848 On ch=1 n=83 v=64
30848 On ch=1 n=71 v=66
30850 Off ch=1 n=80 v=0
30850 Off ch=1 n=68 v=0
30976 On ch=1 n=86 v=63
30976 On ch=1 n=74 v=70
30978 Off ch=1 n=83 v=0
30978 Off ch=1 n=71 v=0
31104 On ch=1 n=85 v=60
31104 On ch=1 n=73 v=67
31106 Off ch=1 n=86 v=0
31106 Off ch=1 n=74 v=0
31232 On ch=1 n=83 v=55
31232 On ch=1 n=71 v=57
31234 Off ch=1 n=85 v=0
31234 Off ch=1 n=73 v=0
31360 On ch=1 n=81 v=49
31360 On ch=1 n=69 v=52
31362 Off ch=1 n=83 v=0
31362 Off ch=1 n=71 v=0
31488 On ch=1 n=80 v=55
31488 On ch=1 n=68 v=56
31490 Off ch=1 n=81 v=0
31490 Off ch=1 n=69 v=0
31616 On ch=1 n=78 v=48
31616 On ch=1 n=66 v=53
31618 Off ch=1 n=80 v=0
31618 Off ch=1 n=68 v=0
31744 On ch=1 n=76 v=60
31744 On ch=1 n=64 v=55
31746 Off ch=1 n=78 v=0
31746 Off ch=1 n=66 v=0
31872 On ch=1 n=75 v=55
31872 On ch=1 n=63 v=54
31874 Off ch=1 n=76 v=0
31874 Off ch=1 n=64 v=0
32000 On ch=1 n=74 v=63
32000 On ch=1 n=62 v=61
32002 Off ch=1 n=75 v=0
32002 Off ch=1 n=63 v=0
32128 On ch=1 n=73 v=62
32128 On ch=1 n=61 v=58
32130 Off ch=1 n=74 v=0
32130 Off ch=1 n=62 v=0
32256 On ch=1 n=71 v=53
32256 On ch=1 n=59 v=62
32258 Off ch=1 n=73 v=0
32258 Off ch=1 n=61 v=0
32384 On ch=1 n=69 v=51
32384 On ch=1 n=57 v=59
32386 Off ch=1 n=71 v=0
32386 Off ch=1 n=59 v=0
32512 On ch=1 n=68 v=60
32512 On ch=1 n=56 v=63
32514 Off ch=1 n=69 v=0
32514 Off ch=1 n=57 v=0
32640 On ch=1 n=66 v=59
32640 On ch=1 n=54 v=65
32642 Off ch=1 n=68 v=0
32642 Off ch=1 n=56 v=0
32761 Off ch=1 n=66 v=0
32761 Off ch=1 n=54 v=0
32768 On ch=1 n=64 v=89
32768 On ch=1 n=40 v=77
32857 Off ch=1 n=40 v=0
32896 On ch=1 n=52 v=88
32947 Off ch=1 n=64 v=0
33024 On ch=1 n=56 v=94
33024 On ch=1 n=59 v=94
33024 On ch=1 n=64 v=94
33024 On ch=1 n=51 v=88
33026 Off ch=1 n=52 v=0
33152 On ch=1 n=52 v=90
33154 Off ch=1 n=51 v=0
33273 Off ch=1 n=52 v=0
33280 On ch=1 n=50 v=86
33369 Off ch=1 n=50 v=0
33408 On ch=1 n=52 v=82
33536 Off ch=1 n=56 v=0
33536 Off ch=1 n=59 v=0
33536 Off ch=1 n=64 v=0
33536 On ch=1 n=56 v=101
33536 On ch=1 n=59 v=101
33536 On ch=1 n=64 v=101
33536 On ch=1 n=51 v=83
33538 Off ch=1 n=52 v=0
33664 On ch=1 n=52 v=82
33666 Off ch=1 n=51 v=0
33785 Off ch=1 n=52 v=0
33792 On ch=1 n=47 v=73
33881 Off ch=1 n=47 v=0
33920 On ch=1 n=52 v=87
34048 Off ch=1 n=56 v=0
34048 Off ch=1 n=59 v=0
34048 Off ch=1 n=64 v=0
34048 On ch=1 n=59 v=99
34048 On ch=1 n=62 v=99
34048 On ch=1 n=64 v=99
34048 On ch=1 n=51 v=86
34050 Off ch=1 n=52 v=0
34176 On ch=1 n=52 v=85
34178 Off ch=1 n=51 v=0
34297 Off ch=1 n=52 v=0
34304 On ch=1 n=44 v=75
34393 Off ch=1 n=44 v=0
34432 On ch=1 n=52 v=89
34560 Off ch=1 n=59 v=0
34560 Off ch=1 n=62 v=0
34560 Off ch=1 n=64 v=0
34560 On ch=1 n=59 v=99
34560 On ch=1 n=62 v=99
34560 On ch=1 n=64 v=99
34560 On ch=1 n=51 v=90
34562 Off ch=1 n=52 v=0
34688 On ch=1 n=52 v=85
34690 Off ch=1 n=51 v=0
34739 Off ch=1 n=59 v=0
34739 Off ch=1 n=62 v=0
34739 Off ch=1 n=64 v=0
34809 Off ch=1 n=52 v=0
34816 On ch=1 n=57 v=99
34816 On ch=1 n=61 v=99
34816 On ch=1 n=64 v=99
34816 On ch=1 n=45 v=76
34944 Off ch=1 n=45 v=0
34944 On ch=1 n=52 v=93
34995 Off ch=1 n=57 v=0
34995 Off ch=1 n=61 v=0
34995 Off ch=1 n=64 v=0
35072 On ch=1 n=81 v=124
35072 Off ch=1 n=52 v=0
35072 On ch=1 n=49 v=78
35200 Off ch=1 n=49 v=0
35200 On ch=1 n=52 v=85
35328 Off ch=1 n=52 v=0
35328 On ch=1 n=45 v=71
35456 Off ch=1 n=81 v=0
35456 On ch=1 n=80 v=98
35456 Off ch=1 n=45 v=0
35456 On ch=1 n=52 v=92
35520 On ch=1 n=78 v=98
35521 Off ch=1 n=80 v=0
35584 On ch=1 n=76 v=93
35584 Off ch=1 n=52 v=0
35584 On ch=1 n=49 v=77
35585 Off ch=1 n=78 v=0
35648 On ch=1 n=74 v=87
35649 Off ch=1 n=76 v=0
35712 On ch=1 n=73 v=95
35712 Off ch=1 n=49 v=0
35712 On ch=1 n=52 v=90
35713 Off ch=1 n=74 v=0
35776 On ch=1 n=71 v=90
35777 Off ch=1 n=73 v=0
35836 Off ch=1 n=71 v=0
35840 On ch=1 n=69 v=86
35840 Off ch=1 n=52 v=0
35840 On ch=1 n=42 v=77
35929 Off ch=1 n=69 v=0
35968 On ch=1 n=68 v=92
35968 Off ch=1 n=42 v=0
35968 On ch=1 n=52 v=96
36032 On ch=1 n=66 v=86
36033 Off ch=1 n=68 v=0
36096 On ch=1 n=64 v=92
36096 Off ch=1 n=52 v=0
36096 On ch=1 n=45 v=78
36097 Off ch=1 n=66 v=0
36160 On ch=1 n=63 v=93
36161 Off ch=1 n=64 v=0
36224 On ch=1 n=61 v=91
36224 Off ch=1 n=45 v=0
36224 On ch=1 n=52 v=89
36225 Off ch=1 n=63 v=0
36288 On ch=1 n=59 v=86
36289 Off ch=1 n=61 v=0
36348 Off ch=1 n=59 v=0
36352 On ch=1 n=57 v=98
36352 Off ch=1 n=52 v=0
36352 On ch=1 n=42 v=72
36480 Off ch=1 n=42 v=0
36480 On ch=1 n=52 v=93
36531 Off ch=1 n=57 v=0
36608 On ch=1 n=57 v=96
36608 Off ch=1 n=52 v=0
36608 On ch=1 n=45 v=79
36736 Off ch=1 n=45 v=0
36736 On ch=1 n=52 v=89
36787 Off ch=1 n=57 v=0
36864 On ch=1 n=56 v=91
36864 Off ch=1 n=52 v=0
36864 On ch=1 n=40 v=74
36953 Off ch=1 n=40 v=0
36992 On ch=1 n=52 v=92
37043 Off ch=1 n=56 v=0
37120 On ch=1 n=56 v=118
37120 On ch=1 n=59 v=118
37120 On ch=1 n=64 v=118
37120 On ch=1 n=51 v=89
37122 Off ch=1 n=52 v=0
37248 On ch=1 n=52 v=89
37250 Off ch=1 n=51 v=0
37369 Off ch=1 n=52 v=0
37376 On ch=1 n=50 v=83
37465 Off ch=1 n=50 v=0
37504 On ch=1 n=52 v=94
37632 Off ch=1 n=56 v=0
37632 Off ch=1 n=59 v=0
37632 Off ch=1 n=64 v=0
37632 On ch=1 n=56 v=106
37632 On ch=1 n=59 v=106
37632 On ch=1 n=64 v=106
37632 On ch=1 n=51 v=95
37634 Off ch=1 n=52 v=0
37760 On ch=1 n=52 v=85
37762 Off ch=1 n=51 v=0
37881 Off ch=1 n=52 v=0
37888 On ch=1 n=47 v=76
37977 Off ch=1 n=47 v=0
38016 On ch=1 n=52 v=91
38144 Off ch=1 n=56 v=0
38144 Off ch=1 n=59 v=0
38144 Off ch=1 n=64 v=0
38144 On ch=1 n=59 v=103
38144 On ch=1 n=62 v=103
38144 On ch=1 n=64 v=103
38144 On ch=1 n=51 v=86
38146 Off ch=1 n=52 v=0
38272 On ch=1 n=52 v=86
38274 Off ch=1 n=51 v=0
38393 Off ch=1 n=52 v=0
38400 On ch=1 n=44 v=81
38489 Off ch=1 n=44 v=0
38528 On ch=1 n=52 v=92
38656 Off ch=1 n=59 v=0
38656 Off ch=1 n=62 v=0
38656 Off ch=1 n=64 v=0
38656 On ch=1 n=59 v=98
38656 On ch=1 n=62 v=98
38656 On ch=1 n=64 v=98
38656 On ch=1 n=51 v=94
38658 Off ch=1 n=52 v=0
38784 On ch=1 n=52 v=87
38786 Off ch=1 n=51 v=0
38835 Off ch=1 n=59 v=0
38835 Off ch=1 n=62 v=0
38835 Off ch=1 n=64 v=0
38905 Off ch=1 n=52 v=0
38912 On ch=1 n=57 v=98
38912 On ch=1 n=61 v=98
38912 On ch=1 n=64 v=98
38912 On ch=1 n=45 v=79
39040 Off ch=1 n=45 v=0
39040 On ch=1 n=52 v=91
39091 Off ch=1 n=57 v=0
39091 Off ch=1 n=61 v=0
39091 Off ch=1 n=64 v=0
39168 On ch=1 n=81 v=121
39168 Off ch=1 n=52 v=0
39168 On ch=1 n=49 v=81
39296 Off ch=1 n=49 v=0
39296 On ch=1 n=52 v=91
39424 Off ch=1 n=52 v=0
39424 On ch=1 n=45 v=74
39552 Off ch=1 n=81 v=0
39552 On ch=1 n=80 v=91
39552 Off ch=1 n=45 v=0
39552 On ch=1 n=52 v=91
39616 On ch=1 n=78 v=87
39617 Off ch=1 n=80 v=0
39680 On ch=1 n=76 v=85
39680 Off ch=1 n=52 v=0
39680 On ch=1 n=49 v=78
39681 Off ch=1 n=78 v=0
39744 On ch=1 n=74 v=78
39745 Off ch=1 n=76 v=0
39808 On ch=1 n=73 v=90
39808 Off ch=1 n=49 v=0
39808 On ch=1 n=52 v=85
39809 Off ch=1 n=74 v=0
39872 On ch=1 n=71 v=87
39873 Off ch=1 n=73 v=0
39932 Off ch=1 n=71 v=0
39936 On ch=1 n=69 v=95
39936 Off ch=1 n=52 v=0
39936 On ch=1 n=42 v=77
40025 Off ch=1 n=69 v=0
40064 On ch=1 n=68 v=90
40064 Off ch=1 n=42 v=0
40064 On ch=1 n=52 v=99
40128 On ch=1 n=66 v=85
40129 Off ch=1 n=68 v=0
40192 On ch=1 n=64 v=90
40192 Off ch=1 n=52 v=0
40192 On ch=1 n=45 v=78
40193 Off ch=1 n=66 v=0
40256 On ch=1 n=63 v=87
40257 Off ch=1 n=64 v=0
40320 On ch=1 n=61 v=88
40320 Off ch=1 n=45 v=0
40320 On ch=1 n=52 v=92
40321 Off ch=1 n=63 v=0
40384 On ch=1 n=59 v=90
40385 Off ch=1 n=61 v=0
40444 Off ch=1 n=59 v=0
40448 On ch=1 n=57 v=93
40448 Off ch=1 n=52 v=0
40448 On ch=1 n=42 v=74
40576 Off ch=1 n=42 v=0
40576 On ch=1 n=52 v=91
40627 Off ch=1 n=57 v=0
40704 On ch=1 n=57 v=99
40704 Off ch=1 n=52 v=0
40704 On ch=1 n=45 v=79
40832 Off ch=1 n=45 v=0
40832 On ch=1 n=52 v=85
40883 Off ch=1 n=57 v=0
40960 On ch=1 n=56 v=93
40960 Off ch=1 n=52 v=0
40960 On ch=1 n=40 v=74
41139 Off ch=1 n=56 v=0
41139 Off ch=1 n=40 v=0
41536 On ch=1 n=52 v=100
41536 On ch=1 n=40 v=92
41600 On ch=1 n=54 v=107
41600 On ch=1 n=42 v=95
41601 Off ch=1 n=52 v=0
41601 Off ch=1 n=40 v=0
41664 On ch=1 n=56 v=119
41664 On ch=1 n=44 v=96
41665 Off ch=1 n=54 v=0
41665 Off ch=1 n=42 v=0
41728 On ch=1 n=57 v=118
41728 On ch=1 n=45 v=99
41729 Off ch=1 n=56 v=0
41729 Off ch=1 n=44 v=0
41792 On ch=1 n=59 v=117
41792 On ch=1 n=47 v=102
41793 Off ch=1 n=57 v=0
41793 Off ch=1 n=45 v=0
41856 On ch=1 n=61 v=122
41856 On ch=1 n=49 v=105
41857 Off ch=1 n=59 v=0
41857 Off ch=1 n=47 v=0
41920 On ch=1 n=63 v=119
41920 On ch=1 n=51 v=102
41921 Off ch=1 n=61 v=0
41921 Off ch=1 n=49 v=0
41980 Off ch=1 n=63 v=0
41980 Off ch=1 n=51 v=0
41984 On ch=1 n=64 v=122
41984 On ch=1 n=52 v=101
42073 Off ch=1 n=64 v=0
42073 Off ch=1 n=52 v=0
42112 On ch=1 n=66 v=125
42112 On ch=1 n=54 v=103
42176 On ch=1 n=68 v=127
42176 On ch=1 n=56 v=108
42177 Off ch=1 n=66 v=0
42177 Off ch=1 n=54 v=0
42240 On ch=1 n=69 v=116
42240 On ch=1 n=57 v=99
42241 Off ch=1 n=68 v=0
42241 Off ch=1 n=56 v=0
42304 On ch=1 n=71 v=126
42304 On ch=1 n=59 v=100
42305 Off ch=1 n=69 v=0
42305 Off ch=1 n=57 v=0
42368 On ch=1 n=73 v=119
42368 On ch=1 n=61 v=102
42369 Off ch=1 n=71 v=0
42369 Off ch=1 n=59 v=0
42432 On ch=1 n=75 v=124
42432 On ch=1 n=63 v=111
42433 Off ch=1 n=73 v=0
42433 Off ch=1 n=61 v=0
42492 Off ch=1 n=75 v=0
42492 Off ch=1 n=63 v=0
42496 On ch=1 n=76 v=117
42496 On ch=1 n=64 v=106
42585 Off ch=1 n=64 v=0
42624 Off ch=1 n=76 v=0
42624 On ch=1 n=78 v=120
42624 On ch=1 n=66 v=104
42688 On ch=1 n=80 v=127
42688 On ch=1 n=68 v=113
42689 Off ch=1 n=78 v=0
42689 Off ch=1 n=66 v=0
42752 On ch=1 n=81 v=121
42752 On ch=1 n=69 v=99
42753 Off ch=1 n=80 v=0
42753 Off ch=1 n=68 v=0
42816 On ch=1 n=83 v=125
42816 On ch=1 n=71 v=106
42817 Off ch=1 n=81 v=0
42817 Off ch=1 n=69 v=0
42880 On ch=1 n=85 v=123
42880 On ch=1 n=73 v=100
42881 Off ch=1 n=83 v=0
42881 Off ch=1 n=71 v=0
42944 On ch=1 n=87 v=127
42944 On ch=1 n=75 v=108
42945 Off ch=1 n=85 v=0
42945 Off ch=1 n=73 v=0
43004 Off ch=1 n=87 v=0
43004 Off ch=1 n=75 v=0
43008 On ch=1 n=88 v=127
43008 On ch=1 n=76 v=112
43187 Off ch=1 n=76 v=0
43392 Off ch=1 n=88 v=0
43392 On ch=1 n=85 v=107
43520 On ch=1 n=88 v=115
43522 Off ch=1 n=85 v=0
43648 On ch=1 n=86 v=105
43650 Off ch=1 n=88 v=0
43776 On ch=1 n=85 v=100
43778 Off ch=1 n=86 v=0
43904 On ch=1 n=83 v=105
43906 Off ch=1 n=85 v=0
44025 Off ch=1 n=83 v=0
44032 On ch=1 n=86 v=122
44160 On ch=1 n=85 v=120
44162 Off ch=1 n=86 v=0
44288 On ch=1 n=83 v=109
44290 Off ch=1 n=85 v=0
44416 On ch=1 n=81 v=98
44418 Off ch=1 n=83 v=0
44537 Off ch=1 n=81 v=0
44544 On ch=1 n=85 v=122
44672 On ch=1 n=83 v=115
44674 Off ch=1 n=85 v=0
44800 On ch=1 n=81 v=105
44802 Off ch=1 n=83 v=0
44928 On ch=1 n=80 v=100
44930 Off ch=1 n=81 v=0
45049 Off ch=1 n=80 v=0
45056 On ch=1 n=83 v=119
45184 On ch=1 n=81 v=116
45186 Off ch=1 n=83 v=0
45312 On ch=1 n=80 v=108
45312 On ch=1 n=73 v=67
45314 Off ch=1 n=81 v=0
45440 On ch=1 n=78 v=102
45442 Off ch=1 n=80 v=0
45568 On ch=1 n=77 v=108
45568 On ch=1 n=74 v=67
45570 Off ch=1 n=78 v=0
45573 Off ch=1 n=73 v=0
45696 On ch=1 n=78 v=108
45698 Off ch=1 n=77 v=0
45824 On ch=1 n=80 v=118
45824 On ch=1 n=70 v=56
45826 Off ch=1 n=78 v=0
45829 Off ch=1 n=74 v=0
45952 On ch=1 n=78 v=111
45954 Off ch=1 n=80 v=0
46073 Off ch=1 n=78 v=0
46080 On ch=1 n=76 v=103
46080 On ch=1 n=71 v=60
46085 Off ch=1 n=70 v=0
46323 Off ch=1 n=71 v=0
46592 On ch=1 n=74 v=91
46602 Off ch=1 n=76 v=0
46835 Off ch=1 n=74 v=0
47104 On ch=1 n=54 v=49
47104 On ch=1 n=59 v=49
47104 On ch=1 n=62 v=49
47104 On ch=1 n=66 v=49
47104 On ch=1 n=38 v=54
47104 On ch=1 n=42 v=54
47104 On ch=1 n=47 v=54
47104 On ch=1 n=50 v=54
47616 Off ch=1 n=54 v=0
47616 Off ch=1 n=59 v=0
47616 Off ch=1 n=62 v=0
47616 Off ch=1 n=66 v=0
47616 Off ch=1 n=38 v=0
47616 Off ch=1 n=42 v=0
47616 Off ch=1 n=47 v=0
47616 Off ch=1 n=50 v=0
49408 On ch=1 n=52 v=46
49408 On ch=1 n=56 v=46
49408 On ch=1 n=62 v=46
49408 On ch=1 n=40 v=46
49587 Off ch=1 n=52 v=0
49587 Off ch=1 n=56 v=0
49587 Off ch=1 n=62 v=0
49587 Off ch=1 n=40 v=0
49664 On ch=1 n=52 v=51
49664 On ch=1 n=56 v=51
49664 On ch=1 n=62 v=51
49664 On ch=1 n=40 v=50
49843 Off ch=1 n=52 v=0
49843 Off ch=1 n=56 v=0
49843 Off ch=1 n=62 v=0
49843 Off ch=1 n=40 v=0
49920 On ch=1 n=52 v=53
49920 On ch=1 n=56 v=53
49920 On ch=1 n=62 v=53
49920 On ch=1 n=40 v=49
50090 Off ch=1 n=52 v=0
50090 Off ch=1 n=56 v=0
50090 Off ch=1 n=62 v=0
50090 Off ch=1 n=40 v=0
50176 On ch=1 n=52 v=54
50176 On ch=1 n=56 v=54
50176 On ch=1 n=62 v=54
50176 On ch=1 n=33 v=55
50176 On ch=1 n=45 v=55
50688 On ch=1 n=57 v=50
50688 On ch=1 n=61 v=50
50708 Off ch=1 n=56 v=0
50708 Off ch=1 n=62 v=0
50918 Off ch=1 n=57 v=0
50918 Off ch=1 n=61 v=0
50944 On ch=1 n=76 v=75
50944 Off ch=1 n=33 v=0
50944 Off ch=1 n=45 v=0
50974 Off ch=1 n=52 v=0
51029 On ch=1 n=81 v=87
51030 Off ch=1 n=76 v=0
51114 On ch=1 n=85 v=68
51115 Off ch=1 n=81 v=0
51195 Off ch=1 n=85 v=0
51200 On ch=1 n=88 v=80
51584 Off ch=1 n=88 v=0
51584 On ch=1 n=85 v=65
51712 Off ch=1 n=85 v=0
51712 On ch=1 n=88 v=76
51797 Off ch=1 n=88 v=0
51797 On ch=1 n=86 v=71
51882 Off ch=1 n=86 v=0
51882 On ch=1 n=85 v=68
51968 Off ch=1 n=85 v=0
51968 On ch=1 n=83 v=67
52053 Off ch=1 n=83 v=0
52053 On ch=1 n=82 v=62
52138 Off ch=1 n=82 v=0
52138 On ch=1 n=83 v=73
52224 Off ch=1 n=83 v=0
52224 On ch=1 n=86 v=81
52309 Off ch=1 n=86 v=0
52309 On ch=1 n=85 v=73
52394 Off ch=1 n=85 v=0
52394 On ch=1 n=83 v=67
52480 Off ch=1 n=83 v=0
52480 On ch=1 n=81 v=65
52565 Off ch=1 n=81 v=0
52565 On ch=1 n=80 v=70
52650 Off ch=1 n=80 v=0
52650 On ch=1 n=81 v=78
52736 Off ch=1 n=81 v=0
52736 On ch=1 n=85 v=79
52821 Off ch=1 n=85 v=0
52821 On ch=1 n=83 v=70
52906 Off ch=1 n=83 v=0
52906 On ch=1 n=81 v=66
52992 Off ch=1 n=81 v=0
52992 On ch=1 n=80 v=65
53077 Off ch=1 n=80 v=0
53077 On ch=1 n=79 v=71
53162 Off ch=1 n=79 v=0
53162 On ch=1 n=80 v=73
53248 Off ch=1 n=80 v=0
53248 On ch=1 n=83 v=77
53312 Off ch=1 n=83 v=0
53312 On ch=1 n=81 v=67
53376 Off ch=1 n=81 v=0
53376 On ch=1 n=80 v=68
53440 Off ch=1 n=80 v=0
53440 On ch=1 n=78 v=68
53504 Off ch=1 n=78 v=0
53504 On ch=1 n=78 v=70
53589 On ch=1 n=80 v=73
53590 Off ch=1 n=78 v=0
53674 On ch=1 n=78 v=66
53675 Off ch=1 n=80 v=0
53760 Off ch=1 n=78 v=0
53760 On ch=1 n=78 v=72
53845 On ch=1 n=80 v=79
53846 Off ch=1 n=78 v=0
53930 On ch=1 n=78 v=70
53931 Off ch=1 n=80 v=0
54016 Off ch=1 n=78 v=0
54016 On ch=1 n=78 v=69
54101 On ch=1 n=80 v=74
54102 Off ch=1 n=78 v=0
54186 On ch=1 n=78 v=65
54187 Off ch=1 n=80 v=0
54267 Off ch=1 n=78 v=0
54272 On ch=1 n=76 v=65
54784 On ch=1 n=74 v=57
54794 Off ch=1 n=76 v=0
55027 Off ch=1 n=74 v=0
55552 On ch=1 n=71 v=75
55552 On ch=1 n=59 v=72
55808 On ch=1 n=68 v=63
55808 On ch=1 n=56 v=63
55813 Off ch=1 n=71 v=0
55813 Off ch=1 n=59 v=0
55978 Off ch=1 n=68 v=0
55978 Off ch=1 n=56 v=0
56064 On ch=1 n=69 v=85
56064 On ch=1 n=57 v=84
56320 On ch=1 n=66 v=78
56320 On ch=1 n=54 v=79
56325 Off ch=1 n=69 v=0
56325 Off ch=1 n=57 v=0
56490 Off ch=1 n=66 v=0
56490 Off ch=1 n=54 v=0
56576 On ch=1 n=68 v=83
56576 On ch=1 n=56 v=85
56832 On ch=1 n=65 v=78
56832 On ch=1 n=53 v=85
56837 Off ch=1 n=68 v=0
56837 Off ch=1 n=56 v=0
57002 Off ch=1 n=65 v=0
57002 Off ch=1 n=53 v=0
57088 On ch=1 n=66 v=86
57088 On ch=1 n=54 v=80
57344 On ch=1 n=62 v=76
57344 On ch=1 n=50 v=77
57349 Off ch=1 n=66 v=0
57349 Off ch=1 n=54 v=0
57514 Off ch=1 n=62 v=0
57514 Off ch=1 n=50 v=0
57856 On ch=1 n=64 v=62
57856 On ch=1 n=52 v=65
58035 Off ch=1 n=64 v=0
58035 Off ch=1 n=52 v=0
58368 On ch=1 n=69 v=54
58368 On ch=1 n=57 v=44
58453 On ch=1 n=73 v=52
58453 On ch=1 n=61 v=50
58454 Off ch=1 n=69 v=0
58454 Off ch=1 n=57 v=0
58538 On ch=1 n=76 v=55
58538 On ch=1 n=64 v=54
58539 Off ch=1 n=73 v=0
58539 Off ch=1 n=61 v=0
58624 On ch=1 n=68 v=41
58624 On ch=1 n=56 v=54
58625 Off ch=1 n=76 v=0
58625 Off ch=1 n=64 v=0
58709 On ch=1 n=73 v=47
58709 On ch=1 n=61 v=52
58710 Off ch=1 n=68 v=0
58710 Off ch=1 n=56 v=0
58794 On ch=1 n=76 v=53
58794 On ch=1 n=64 v=56
58795 Off ch=1 n=73 v=0
58795 Off ch=1 n=61 v=0
58880 On ch=1 n=69 v=40
58880 On ch=1 n=57 v=49
58881 Off ch=1 n=76 v=0
58881 Off ch=1 n=64 v=0
58965 On ch=1 n=73 v=57
58965 On ch=1 n=61 v=57
58966 Off ch=1 n=69 v=0
58966 Off ch=1 n=57 v=0
59050 On ch=1 n=76 v=64
59050 On ch=1 n=64 v=58
59051 Off ch=1 n=73 v=0
59051 Off ch=1 n=61 v=0
59136 On ch=1 n=64 v=36
59136 On ch=1 n=52 v=56
59137 Off ch=1 n=76 v=0
59137 Off ch=1 n=64 v=0
59221 On ch=1 n=73 v=39
59221 On ch=1 n=61 v=61
59222 Off ch=1 n=64 v=0
59222 Off ch=1 n=52 v=0
59306 On ch=1 n=76 v=58
59306 On ch=1 n=64 v=70
59307 Off ch=1 n=73 v=0
59307 Off ch=1 n=61 v=0
59392 On ch=1 n=67 v=47
59392 On ch=1 n=55 v=46
59393 Off ch=1 n=76 v=0
59393 Off ch=1 n=64 v=0
59477 On ch=1 n=73 v=57
59477 On ch=1 n=61 v=52
59478 Off ch=1 n=67 v=0
59478 Off ch=1 n=55 v=0
59562 On ch=1 n=76 v=63
59562 On ch=1 n=64 v=56
59563 Off ch=1 n=73 v=0
59563 Off ch=1 n=61 v=0
59648 On ch=1 n=66 v=37
59648 On ch=1 n=54 v=51
59649 Off ch=1 n=76 v=0
59649 Off ch=1 n=64 v=0
59733 On ch=1 n=73 v=43
59733 On ch=1 n=61 v=62
59734 Off ch=1 n=66 v=0
59734 Off ch=1 n=54 v=0
59818 On ch=1 n=76 v=57
59818 On ch=1 n=64 v=70
59819 Off ch=1 n=73 v=0
59819 Off ch=1 n=61 v=0
59904 On ch=1 n=67 v=43
59904 On ch=1 n=55 v=46
59905 Off ch=1 n=76 v=0
59905 Off ch=1 n=64 v=0
59989 On ch=1 n=73 v=59
59989 On ch=1 n=61 v=54
59990 Off ch=1 n=67 v=0
59990 Off ch=1 n=55 v=0
60074 On ch=1 n=76 v=66
60074 On ch=1 n=64 v=59
60075 Off ch=1 n=73 v=0
60075 Off ch=1 n=61 v=0
60160 On ch=1 n=64 v=37
60160 On ch=1 n=52 v=51
60161 Off ch=1 n=76 v=0
60161 Off ch=1 n=64 v=0
60245 On ch=1 n=73 v=43
60245 On ch=1 n=61 v=58
60246 Off ch=1 n=64 v=0
60246 Off ch=1 n=52 v=0
60330 On ch=1 n=76 v=58
60330 On ch=1 n=64 v=64
60331 Off ch=1 n=73 v=0
60331 Off ch=1 n=61 v=0
60411 Off ch=1 n=76 v=0
60411 Off ch=1 n=64 v=0
60416 On ch=1 n=66 v=38
60416 On ch=1 n=54 v=45
60501 On ch=1 n=69 v=41
60501 On ch=1 n=57 v=47
60502 Off ch=1 n=66 v=0
60502 Off ch=1 n=54 v=0
60586 On ch=1 n=74 v=59
60586 On ch=1 n=62 v=60
60587 Off ch=1 n=69 v=0
60587 Off ch=1 n=57 v=0
60672 On ch=1 n=65 v=43
60672 On ch=1 n=53 v=52
60673 Off ch=1 n=74 v=0
60673 Off ch=1 n=62 v=0
60757 On ch=1 n=69 v=56
60757 On ch=1 n=57 v=52
60758 Off ch=1 n=65 v=0
60758 Off ch=1 n=53 v=0
60842 On ch=1 n=74 v=66
60842 On ch=1 n=62 v=59
60843 Off ch=1 n=69 v=0
60843 Off ch=1 n=57 v=0
60928 On ch=1 n=66 v=39
60928 On ch=1 n=54 v=52
60929 Off ch=1 n=74 v=0
60929 Off ch=1 n=62 v=0
61013 On ch=1 n=69 v=38
61013 On ch=1 n=57 v=54
61014 Off ch=1 n=66 v=0
61014 Off ch=1 n=54 v=0
61098 On ch=1 n=74 v=58
61098 On ch=1 n=62 v=57
61099 Off ch=1 n=69 v=0
61099 Off ch=1 n=57 v=0
61184 On ch=1 n=62 v=45
61184 On ch=1 n=50 v=53
61185 Off ch=1 n=74 v=0
61185 Off ch=1 n=62 v=0
61269 On ch=1 n=69 v=53
61269 On ch=1 n=57 v=54
61270 Off ch=1 n=62 v=0
61270 Off ch=1 n=50 v=0
61354 On ch=1 n=74 v=67
61354 On ch=1 n=62 v=63
61355 Off ch=1 n=69 v=0
61355 Off ch=1 n=57 v=0
61440 On ch=1 n=64 v=43
61440 On ch=1 n=52 v=44
61441 Off ch=1 n=74 v=0
61441 Off ch=1 n=62 v=0
61525 On ch=1 n=67 v=39
61525 On ch=1 n=55 v=43
61526 Off ch=1 n=64 v=0
61526 Off ch=1 n=52 v=0
61610 On ch=1 n=69 v=52
61610 On ch=1 n=57 v=47
61611 Off ch=1 n=67 v=0
61611 Off ch=1 n=55 v=0
61696 On ch=1 n=63 v=49
61696 On ch=1 n=51 v=45
61697 Off ch=1 n=69 v=0
61697 Off ch=1 n=57 v=0
61781 On ch=1 n=67 v=57
61781 On ch=1 n=55 v=51
61782 Off ch=1 n=63 v=0
61782 Off ch=1 n=51 v=0
61866 On ch=1 n=69 v=60
61866 On ch=1 n=57 v=53
61867 Off ch=1 n=67 v=0
61867 Off ch=1 n=55 v=0
61952 On ch=1 n=64 v=44
61952 On ch=1 n=52 v=49
61953 Off ch=1 n=69 v=0
61953 Off ch=1 n=57 v=0
62037 On ch=1 n=67 v=47
62037 On ch=1 n=55 v=53
62038 Off ch=1 n=64 v=0
62038 Off ch=1 n=52 v=0
62122 On ch=1 n=69 v=54
62122 On ch=1 n=57 v=52
62123 Off ch=1 n=67 v=0
62123 Off ch=1 n=55 v=0
62208 On ch=1 n=61 v=43
62208 On ch=1 n=49 v=45
62209 Off ch=1 n=69 v=0
62209 Off ch=1 n=57 v=0
62293 On ch=1 n=67 v=58
62293 On ch=1 n=55 v=53
62294 Off ch=1 n=61 v=0
62294 Off ch=1 n=49 v=0
62378 On ch=1 n=69 v=67
62378 On ch=1 n=57 v=48
62379 Off ch=1 n=67 v=0
62379 Off ch=1 n=55 v=0
62459 Off ch=1 n=69 v=0
62459 Off ch=1 n=57 v=0
62464 On ch=1 n=62 v=41
62464 On ch=1 n=50 v=45
62549 On ch=1 n=66 v=45
62549 On ch=1 n=54 v=44
62550 Off ch=1 n=62 v=0
62550 Off ch=1 n=50 v=0
62634 On ch=1 n=69 v=54
62634 On ch=1 n=57 v=53
62635 Off ch=1 n=66 v=0
62635 Off ch=1 n=54 v=0
62720 On ch=1 n=61 v=44
62720 On ch=1 n=49 v=53
62721 Off ch=1 n=69 v=0
62721 Off ch=1 n=57 v=0
62805 On ch=1 n=66 v=54
62805 On ch=1 n=54 v=49
62806 Off ch=1 n=61 v=0
62806 Off ch=1 n=49 v=0
62890 On ch=1 n=69 v=63
62890 On ch=1 n=57 v=54
62891 Off ch=1 n=66 v=0
62891 Off ch=1 n=54 v=0
62976 On ch=1 n=62 v=44
62976 On ch=1 n=50 v=49
62977 Off ch=1 n=69 v=0
62977 Off ch=1 n=57 v=0
63061 On ch=1 n=66 v=42
63061 On ch=1 n=54 v=54
63062 Off ch=1 n=62 v=0
63062 Off ch=1 n=50 v=0
63146 On ch=1 n=69 v=56
63146 On ch=1 n=57 v=51
63147 Off ch=1 n=66 v=0
63147 Off ch=1 n=54 v=0
63232 On ch=1 n=57 v=50
63232 On ch=1 n=45 v=46
63233 Off ch=1 n=69 v=0
63233 Off ch=1 n=57 v=0
63317 On ch=1 n=66 v=60
63317 On ch=1 n=54 v=57
63318 Off ch=1 n=57 v=0
63318 Off ch=1 n=45 v=0
63402 On ch=1 n=69 v=67
63402 On ch=1 n=57 v=60
63403 Off ch=1 n=66 v=0
63403 Off ch=1 n=54 v=0
63488 On ch=1 n=61 v=39
63488 On ch=1 n=49 v=38
63489 Off ch=1 n=69 v=0
63489 Off ch=1 n=57 v=0
63573 On ch=1 n=64 v=45
63573 On ch=1 n=52 v=39
63574 Off ch=1 n=61 v=0
63574 Off ch=1 n=49 v=0
63658 On ch=1 n=69 v=58
63658 On ch=1 n=57 v=57
63659 Off ch=1 n=64 v=0
63659 Off ch=1 n=52 v=0
63744 On ch=1 n=60 v=46
63744 On ch=1 n=48 v=48
63745 Off ch=1 n=69 v=0
63745 Off ch=1 n=57 v=0
63829 On ch=1 n=64 v=57
63829 On ch=1 n=52 v=52
63830 Off ch=1 n=60 v=0
63830 Off ch=1 n=48 v=0
63914 On ch=1 n=69 v=66
63914 On ch=1 n=57 v=51
63915 Off ch=1 n=64 v=0
63915 Off ch=1 n=52 v=0
64000 On ch=1 n=61 v=44
64000 On ch=1 n=49 v=45
64001 Off ch=1 n=69 v=0
64001 Off ch=1 n=57 v=0
64085 On ch=1 n=64 v=49
64085 On ch=1 n=52 v=47
64086 Off ch=1 n=61 v=0
64086 Off ch=1 n=49 v=0
64170 On ch=1 n=69 v=59
64170 On ch=1 n=57 v=54
64171 Off ch=1 n=64 v=0
64171 Off ch=1 n=52 v=0
64256 On ch=1 n=57 v=50
64256 On ch=1 n=45 v=48
64257 Off ch=1 n=69 v=0
64257 Off ch=1 n=57 v=0
64341 On ch=1 n=64 v=66
64341 On ch=1 n=52 v=56
64342 Off ch=1 n=57 v=0
64342 Off ch=1 n=45 v=0
64426 On ch=1 n=69 v=78
64426 On ch=1 n=57 v=60
64427 Off ch=1 n=64 v=0
64427 Off ch=1 n=52 v=0
64512 On ch=1 n=59 v=45
64512 On ch=1 n=47 v=48
64513 Off ch=1 n=69 v=0
64513 Off ch=1 n=57 v=0
64597 On ch=1 n=62 v=51
64597 On ch=1 n=50 v=50
64598 Off ch=1 n=59 v=0
64598 Off ch=1 n=47 v=0
64682 On ch=1 n=64 v=58
64682 On ch=1 n=52 v=52
64683 Off ch=1 n=62 v=0
64683 Off ch=1 n=50 v=0
64768 On ch=1 n=58 v=51
64768 On ch=1 n=46 v=51
64769 Off ch=1 n=64 v=0
64769 Off ch=1 n=52 v=0
64853 On ch=1 n=62 v=54
64853 On ch=1 n=50 v=54
64854 Off ch=1 n=58 v=0
64854 Off ch=1 n=46 v=0
64938 On ch=1 n=64 v=62
64938 On ch=1 n=52 v=58
64939 Off ch=1 n=62 v=0
64939 Off ch=1 n=50 v=0
65024 On ch=1 n=59 v=51
65024 On ch=1 n=47 v=47
65025 Off ch=1 n=64 v=0
65025 Off ch=1 n=52 v=0
65109 On ch=1 n=62 v=54
65109 On ch=1 n=50 v=47
65110 Off ch=1 n=59 v=0
65110 Off ch=1 n=47 v=0
65194 On ch=1 n=64 v=53
65194 On ch=1 n=52 v=54
65195 Off ch=1 n=62 v=0
65195 Off ch=1 n=50 v=0
65280 On ch=1 n=56 v=47
65280 On ch=1 n=44 v=53
65281 Off ch=1 n=64 v=0
65281 Off ch=1 n=52 v=0
65365 On ch=1 n=62 v=62
65365 On ch=1 n=50 v=52
65366 Off ch=1 n=56 v=0
65366 Off ch=1 n=44 v=0
65450 On ch=1 n=64 v=71
65450 On ch=1 n=52 v=55
65451 Off ch=1 n=62 v=0
65451 Off ch=1 n=50 v=0
65500 Off ch=1 n=64 v=0
65500 On ch=1 n=64 v=71
65531 Off ch=1 n=52 v=0
65536 On ch=1 n=76 v=71
65536 Off ch=1 n=64 v=0
65536 On ch=1 n=45 v=51
65621 On ch=1 n=49 v=53
65622 Off ch=1 n=45 v=0
65706 On ch=1 n=52 v=52
65707 Off ch=1 n=49 v=0
65792 On ch=1 n=44 v=49
65793 Off ch=1 n=52 v=0
65877 On ch=1 n=49 v=54
65878 Off ch=1 n=44 v=0
65962 On ch=1 n=52 v=56
65963 Off ch=1 n=49 v=0
66048 On ch=1 n=45 v=45
66049 Off ch=1 n=52 v=0
66133 On ch=1 n=49 v=46
66134 Off ch=1 n=45 v=0
66218 On ch=1 n=52 v=57
66219 Off ch=1 n=49 v=0
66265 Off ch=1 n=76 v=0
66304 On ch=1 n=74 v=47
66304 On ch=1 n=40 v=49
66305 Off ch=1 n=52 v=0
66368 On ch=1 n=73 v=47
66369 Off ch=1 n=74 v=0
66389 On ch=1 n=49 v=55
66390 Off ch=1 n=40 v=0
66432 On ch=1 n=71 v=47
66433 Off ch=1 n=73 v=0
66474 On ch=1 n=52 v=62
66475 Off ch=1 n=49 v=0
66496 On ch=1 n=69 v=42
66497 Off ch=1 n=71 v=0
66560 On ch=1 n=64 v=52
66560 On ch=1 n=47 v=59
66561 Off ch=1 n=69 v=0
66561 Off ch=1 n=52 v=0
66645 On ch=1 n=50 v=60
66646 Off ch=1 n=47 v=0
66730 Off ch=1 n=64 v=0
66730 On ch=1 n=52 v=65
66731 Off ch=1 n=50 v=0
66816 On ch=1 n=46 v=57
66817 Off ch=1 n=52 v=0
66901 On ch=1 n=50 v=64
66902 Off ch=1 n=46 v=0
66986 On ch=1 n=52 v=69
66987 Off ch=1 n=50 v=0
67072 On ch=1 n=47 v=61
67073 Off ch=1 n=52 v=0
67157 On ch=1 n=50 v=63
67158 Off ch=1 n=47 v=0
67242 On ch=1 n=52 v=63
67243 Off ch=1 n=50 v=0
67328 On ch=1 n=44 v=61
67329 Off ch=1 n=52 v=0
67413 On ch=1 n=50 v=61
67414 Off ch=1 n=44 v=0
67498 On ch=1 n=52 v=63
67499 Off ch=1 n=50 v=0
67520 On ch=1 n=76 v=52
67584 Off ch=1 n=76 v=0
67584 On ch=1 n=88 v=79
67584 On ch=1 n=45 v=56
67585 Off ch=1 n=52 v=0
67669 On ch=1 n=48 v=59
67670 Off ch=1 n=45 v=0
67754 On ch=1 n=52 v=64
67755 Off ch=1 n=48 v=0
67840 On ch=1 n=44 v=58
67841 Off ch=1 n=52 v=0
67925 On ch=1 n=48 v=62
67926 Off ch=1 n=44 v=0
68010 On ch=1 n=52 v=64
68011 Off ch=1 n=48 v=0
68096 On ch=1 n=45 v=58
68097 Off ch=1 n=52 v=0
68181 On ch=1 n=48 v=59
68182 Off ch=1 n=45 v=0
68266 On ch=1 n=52 v=64
68267 Off ch=1 n=48 v=0
68352 Off ch=1 n=88 v=0
68352 On ch=1 n=86 v=69
68352 On ch=1 n=40 v=62
68353 Off ch=1 n=52 v=0
68416 On ch=1 n=84 v=64
68417 Off ch=1 n=86 v=0
68437 On ch=1 n=48 v=65
68438 Off ch=1 n=40 v=0
68480 On ch=1 n=83 v=68
68481 Off ch=1 n=84 v=0
68522 On ch=1 n=52 v=79
68523 Off ch=1 n=48 v=0
68544 On ch=1 n=81 v=65
68545 Off ch=1 n=83 v=0
68608 On ch=1 n=82 v=65
68608 On ch=1 n=43 v=57
68609 Off ch=1 n=81 v=0
68609 Off ch=1 n=52 v=0
68693 On ch=1 n=46 v=54
68694 Off ch=1 n=43 v=0
68778 Off ch=1 n=82 v=0
68778 On ch=1 n=48 v=64
68779 Off ch=1 n=46 v=0
68864 On ch=1 n=42 v=58
68865 Off ch=1 n=48 v=0
68949 On ch=1 n=46 v=63
68950 Off ch=1 n=42 v=0
69034 On ch=1 n=48 v=65
69035 Off ch=1 n=46 v=0
69120 On ch=1 n=43 v=54
69121 Off ch=1 n=48 v=0
69205 On ch=1 n=46 v=57
69206 Off ch=1 n=43 v=0
69290 On ch=1 n=48 v=68
69291 Off ch=1 n=46 v=0
69376 On ch=1 n=40 v=64
69377 Off ch=1 n=48 v=0
69461 On ch=1 n=46 v=65
69462 Off ch=1 n=40 v=0
69546 On ch=1 n=48 v=63
69547 Off ch=1 n=46 v=0
69568 On ch=1 n=72 v=51
69632 Off ch=1 n=72 v=0
69632 On ch=1 n=84 v=78
69632 On ch=1 n=41 v=53
69633 Off ch=1 n=48 v=0
69717 On ch=1 n=45 v=52
69718 Off ch=1 n=41 v=0
69802 On ch=1 n=48 v=63
69803 Off ch=1 n=45 v=0
69888 On ch=1 n=40 v=55
69889 Off ch=1 n=48 v=0
69973 On ch=1 n=45 v=63
69974 Off ch=1 n=40 v=0
70058 On ch=1 n=48 v=69
70059 Off ch=1 n=45 v=0
70144 On ch=1 n=41 v=66
70145 Off ch=1 n=48 v=0
70229 On ch=1 n=45 v=74
70230 Off ch=1 n=41 v=0
70314 On ch=1 n=48 v=75
70315 Off ch=1 n=45 v=0
70400 Off ch=1 n=84 v=0
70400 On ch=1 n=82 v=70
70400 On ch=1 n=36 v=66
70401 Off ch=1 n=48 v=0
70464 On ch=1 n=81 v=64
70465 Off ch=1 n=82 v=0
70485 On ch=1 n=45 v=73
70486 Off ch=1 n=36 v=0
70528 On ch=1 n=79 v=69
70529 Off ch=1 n=81 v=0
70570 On ch=1 n=48 v=79
70571 Off ch=1 n=45 v=0
70592 On ch=1 n=77 v=61
70593 Off ch=1 n=79 v=0
70656 On ch=1 n=72 v=84
70656 On ch=1 n=43 v=81
70657 Off ch=1 n=77 v=0
70657 Off ch=1 n=48 v=0
70741 On ch=1 n=46 v=85
70742 Off ch=1 n=43 v=0
70777 Off ch=1 n=72 v=0
70784 On ch=1 n=84 v=123
70826 On ch=1 n=48 v=85
70827 Off ch=1 n=46 v=0
70912 Off ch=1 n=84 v=0
70912 On ch=1 n=84 v=100
70912 On ch=1 n=42 v=78
70913 Off ch=1 n=48 v=0
70997 On ch=1 n=46 v=88
70998 Off ch=1 n=42 v=0
71040 Off ch=1 n=84 v=0
71040 On ch=1 n=84 v=102
71082 On ch=1 n=48 v=91
71083 Off ch=1 n=46 v=0
71168 Off ch=1 n=84 v=0
71168 On ch=1 n=84 v=99
71168 On ch=1 n=43 v=77
71169 Off ch=1 n=48 v=0
71253 On ch=1 n=46 v=77
71254 Off ch=1 n=43 v=0
71296 Off ch=1 n=84 v=0
71296 On ch=1 n=84 v=98
71338 On ch=1 n=48 v=84
71339 Off ch=1 n=46 v=0
71424 Off ch=1 n=84 v=0
71424 On ch=1 n=84 v=99
71424 On ch=1 n=40 v=76
71425 Off ch=1 n=48 v=0
71509 On ch=1 n=46 v=84
71510 Off ch=1 n=40 v=0
71552 Off ch=1 n=84 v=0
71552 On ch=1 n=84 v=96
71594 On ch=1 n=48 v=87
71595 Off ch=1 n=46 v=0
71675 Off ch=1 n=48 v=0
71680 Off ch=1 n=84 v=0
71680 On ch=1 n=84 v=112
71680 On ch=1 n=41 v=102
71680 On ch=1 n=45 v=102
71680 On ch=1 n=48 v=102
71680 On ch=1 n=53 v=102
71769 Off ch=1 n=84 v=0
71808 On ch=1 n=84 v=72
71897 Off ch=1 n=84 v=0
71936 On ch=1 n=82 v=67
71936 Off ch=1 n=41 v=0
71936 Off ch=1 n=45 v=0
71936 Off ch=1 n=48 v=0
71936 Off ch=1 n=53 v=0
72025 Off ch=1 n=82 v=0
72064 On ch=1 n=81 v=66
72153 Off ch=1 n=81 v=0
72192 On ch=1 n=79 v=69
72448 On ch=1 n=77 v=62
72448 On ch=1 n=53 v=64
72453 Off ch=1 n=79 v=0
72691 Off ch=1 n=77 v=0
72704 On ch=1 n=46 v=53
72709 Off ch=1 n=53 v=0
72832 On ch=1 n=77 v=50
72874 Off ch=1 n=46 v=0
72921 Off ch=1 n=77 v=0
72960 On ch=1 n=76 v=50
73049 Off ch=1 n=76 v=0
73088 On ch=1 n=74 v=52
73177 Off ch=1 n=74 v=0
73216 On ch=1 n=72 v=61
73472 On ch=1 n=70 v=62
73472 On ch=1 n=46 v=55
73477 Off ch=1 n=72 v=0
73715 Off ch=1 n=70 v=0
73728 On ch=1 n=48 v=55
73733 Off ch=1 n=46 v=0
73856 On ch=1 n=70 v=53
73898 Off ch=1 n=48 v=0
73945 Off ch=1 n=70 v=0
73984 On ch=1 n=69 v=51
74073 Off ch=1 n=69 v=0
74112 On ch=1 n=67 v=57
74201 Off ch=1 n=67 v=0
74240 On ch=1 n=65 v=57
74496 On ch=1 n=64 v=55
74496 On ch=1 n=46 v=58
74501 Off ch=1 n=65 v=0
74739 Off ch=1 n=64 v=0
74752 On ch=1 n=65 v=63
74752 On ch=1 n=45 v=56
74757 Off ch=1 n=46 v=0
74841 Off ch=1 n=65 v=0
74880 On ch=1 n=69 v=68
74922 Off ch=1 n=45 v=0
74969 Off ch=1 n=69 v=0
75008 On ch=1 n=62 v=51
75008 On ch=1 n=46 v=63
75097 Off ch=1 n=62 v=0
75136 On ch=1 n=67 v=66
75187 Off ch=1 n=46 v=0
75225 Off ch=1 n=67 v=0
75264 On ch=1 n=60 v=50
75264 On ch=1 n=48 v=64
75353 Off ch=1 n=60 v=0
75392 On ch=1 n=65 v=71
75443 Off ch=1 n=48 v=0
75481 Off ch=1 n=65 v=0
75520 On ch=1 n=58 v=55
75520 On ch=1 n=48 v=59
75609 Off ch=1 n=58 v=0
75648 On ch=1 n=64 v=65
75699 Off ch=1 n=48 v=0
75737 Off ch=1 n=64 v=0
75776 On ch=1 n=57 v=57
75776 On ch=1 n=41 v=59
75955 Off ch=1 n=57 v=0
75955 Off ch=1 n=41 v=0
76544 On ch=1 n=57 v=54
76544 On ch=1 n=53 v=52
76800 On ch=1 n=65 v=63
76800 On ch=1 n=50 v=46
76805 Off ch=1 n=57 v=0
76805 Off ch=1 n=53 v=0
76970 Off ch=1 n=65 v=0
76970 Off ch=1 n=50 v=0
77568 On ch=1 n=65 v=52
77568 On ch=1 n=50 v=57
77824 On ch=1 n=62 v=52
77824 On ch=1 n=47 v=54
77829 Off ch=1 n=65 v=0
77829 Off ch=1 n=50 v=0
77994 Off ch=1 n=62 v=0
77994 Off ch=1 n=47 v=0
78592 On ch=1 n=59 v=42
78592 On ch=1 n=62 v=42
78848 Off ch=1 n=59 v=0
78848 Off ch=1 n=62 v=0
78848 On ch=1 n=59 v=51
78848 On ch=1 n=62 v=51
78976 On ch=1 n=74 v=45
79065 Off ch=1 n=74 v=0
79104 On ch=1 n=72 v=49
79104 Off ch=1 n=59 v=0
79104 Off ch=1 n=62 v=0
79193 Off ch=1 n=72 v=0
79232 On ch=1 n=71 v=52
79321 Off ch=1 n=71 v=0
79360 On ch=1 n=69 v=48
79616 On ch=1 n=68 v=51
79616 On ch=1 n=59 v=43
79616 On ch=1 n=62 v=43
79621 Off ch=1 n=69 v=0
79859 Off ch=1 n=68 v=0
79872 Off ch=1 n=59 v=0
79872 Off ch=1 n=62 v=0
79872 On ch=1 n=59 v=50
79872 On ch=1 n=62 v=50
80000 On ch=1 n=74 v=45
80128 On ch=1 n=73 v=44
80128 Off ch=1 n=59 v=0
80128 Off ch=1 n=62 v=0
80130 Off ch=1 n=74 v=0
80256 On ch=1 n=71 v=48
80258 Off ch=1 n=73 v=0
80384 On ch=1 n=69 v=45
80386 Off ch=1 n=71 v=0
80512 On ch=1 n=68 v=46
80514 Off ch=1 n=69 v=0
80640 On ch=1 n=78 v=90
80640 On ch=1 n=47 v=60
80640 On ch=1 n=50 v=60
80640 On ch=1 n=56 v=60
80642 Off ch=1 n=68 v=0
80768 On ch=1 n=76 v=87
80770 Off ch=1 n=78 v=0
80889 Off ch=1 n=76 v=0
80896 On ch=1 n=49 v=76
80896 On ch=1 n=52 v=76
80896 On ch=1 n=58 v=76
80901 Off ch=1 n=47 v=0
80901 Off ch=1 n=50 v=0
80901 Off ch=1 n=56 v=0
81024 On ch=1 n=76 v=59
81066 Off ch=1 n=49 v=0
81066 Off ch=1 n=52 v=0
81066 Off ch=1 n=58 v=0
81152 On ch=1 n=74 v=53
81154 Off ch=1 n=76 v=0
81280 On ch=1 n=73 v=68
81282 Off ch=1 n=74 v=0
81408 On ch=1 n=71 v=66
81410 Off ch=1 n=73 v=0
81536 On ch=1 n=70 v=64
81538 Off ch=1 n=71 v=0
81664 On ch=1 n=79 v=79
81664 On ch=1 n=49 v=61
81664 On ch=1 n=52 v=61
81664 On ch=1 n=58 v=61
81666 Off ch=1 n=70 v=0
81792 On ch=1 n=78 v=68
81794 Off ch=1 n=79 v=0
81913 Off ch=1 n=78 v=0
81920 On ch=1 n=50 v=86
81920 On ch=1 n=54 v=86
81920 On ch=1 n=59 v=86
81925 Off ch=1 n=49 v=0
81925 Off ch=1 n=52 v=0
81925 Off ch=1 n=58 v=0
82048 On ch=1 n=78 v=91
82090 Off ch=1 n=50 v=0
82090 Off ch=1 n=54 v=0
82090 Off ch=1 n=59 v=0
82176 On ch=1 n=76 v=84
82178 Off ch=1 n=78 v=0
82304 On ch=1 n=74 v=91
82306 Off ch=1 n=76 v=0
82432 On ch=1 n=73 v=87
82434 Off ch=1 n=74 v=0
82560 On ch=1 n=71 v=93
82562 Off ch=1 n=73 v=0
82688 On ch=1 n=82 v=118
82690 Off ch=1 n=71 v=0
82816 On ch=1 n=83 v=105
82818 Off ch=1 n=82 v=0
82937 Off ch=1 n=83 v=0
82944 On ch=1 n=77 v=83
83072 On ch=1 n=78 v=85
83074 Off ch=1 n=77 v=0
83200 On ch=1 n=85 v=116
83202 Off ch=1 n=78 v=0
83328 On ch=1 n=86 v=127
83330 Off ch=1 n=85 v=0
83456 On ch=1 n=82 v=87
83458 Off ch=1 n=86 v=0
83584 On ch=1 n=83 v=91
83586 Off ch=1 n=82 v=0
83712 On ch=1 n=86 v=104
83714 Off ch=1 n=83 v=0
83840 On ch=1 n=83 v=98
83842 Off ch=1 n=86 v=0
83961 Off ch=1 n=83 v=0
83968 On ch=1 n=83 v=63
83968 On ch=1 n=64 v=55
84013 Off ch=1 n=83 v=0
84025 On ch=1 n=84 v=63
84070 Off ch=1 n=84 v=0
84082 On ch=1 n=83 v=63
84096 On ch=1 n=68 v=60
84098 Off ch=1 n=64 v=0
84127 Off ch=1 n=83 v=0
84139 On ch=1 n=84 v=63
84184 Off ch=1 n=84 v=0
84195 On ch=1 n=83 v=63
84224 On ch=1 n=71 v=69
84226 Off ch=1 n=68 v=0
84239 Off ch=1 n=83 v=0
84251 On ch=1 n=84 v=63
84295 Off ch=1 n=84 v=0
84307 On ch=1 n=83 v=63
84351 Off ch=1 n=83 v=0
84352 On ch=1 n=69 v=67
84354 Off ch=1 n=71 v=0
84362 On ch=1 n=84 v=63
84406 Off ch=1 n=84 v=0
84417 On ch=1 n=83 v=63
84461 Off ch=1 n=83 v=0
84472 On ch=1 n=84 v=63
84480 On ch=1 n=68 v=56
84482 Off ch=1 n=69 v=0
84516 Off ch=1 n=84 v=0
84526 On ch=1 n=83 v=63
84569 Off ch=1 n=83 v=0
84580 On ch=1 n=84 v=63
84608 On ch=1 n=66 v=68
84610 Off ch=1 n=68 v=0
84623 Off ch=1 n=84 v=0
84634 On ch=1 n=83 v=63
84677 Off ch=1 n=83 v=0
84688 On ch=1 n=84 v=63
84731 Off ch=1 n=84 v=0
84736 On ch=1 n=64 v=60
84738 Off ch=1 n=66 v=0
84741 On ch=1 n=83 v=63
84783 Off ch=1 n=83 v=0
84794 On ch=1 n=84 v=63
84836 Off ch=1 n=84 v=0
84847 On ch=1 n=83 v=63
84864 On ch=1 n=63 v=66
84866 Off ch=1 n=64 v=0
84889 Off ch=1 n=83 v=0
84899 On ch=1 n=84 v=63
84940 Off ch=1 n=84 v=0
84951 On ch=1 n=83 v=63
84992 Off ch=1 n=83 v=0
84992 On ch=1 n=64 v=88
84994 Off ch=1 n=63 v=0
85003 On ch=1 n=84 v=84
85044 Off ch=1 n=84 v=0
85055 On ch=1 n=83 v=84
85096 Off ch=1 n=83 v=0
85106 On ch=1 n=84 v=84
85120 On ch=1 n=71 v=102
85122 Off ch=1 n=64 v=0
85146 Off ch=1 n=84 v=0
85157 On ch=1 n=83 v=84
85197 Off ch=1 n=83 v=0
85208 On ch=1 n=84 v=84
85248 Off ch=1 n=84 v=0
85248 On ch=1 n=74 v=95
85250 Off ch=1 n=71 v=0
85259 On ch=1 n=83 v=84
85299 Off ch=1 n=83 v=0
85309 On ch=1 n=84 v=84
85349 Off ch=1 n=84 v=0
85359 On ch=1 n=83 v=84
85376 On ch=1 n=73 v=81
85378 Off ch=1 n=74 v=0
85399 Off ch=1 n=83 v=0
85409 On ch=1 n=84 v=84
85449 Off ch=1 n=84 v=0
85458 On ch=1 n=83 v=84
85497 Off ch=1 n=83 v=0
85504 On ch=1 n=71 v=76
85506 Off ch=1 n=73 v=0
85507 On ch=1 n=84 v=84
85546 Off ch=1 n=84 v=0
85556 On ch=1 n=83 v=84
85595 Off ch=1 n=83 v=0
85605 On ch=1 n=84 v=84
85632 On ch=1 n=69 v=74
85634 Off ch=1 n=71 v=0
85644 Off ch=1 n=84 v=0
85653 On ch=1 n=83 v=84
85691 Off ch=1 n=83 v=0
85701 On ch=1 n=84 v=84
85739 Off ch=1 n=84 v=0
85749 On ch=1 n=83 v=84
85760 On ch=1 n=68 v=74
85762 Off ch=1 n=69 v=0
85787 Off ch=1 n=83 v=0
85797 On ch=1 n=84 v=84
85835 Off ch=1 n=84 v=0
85844 On ch=1 n=83 v=84
85881 Off ch=1 n=83 v=0
85888 On ch=1 n=66 v=78
85890 Off ch=1 n=68 v=0
85891 On ch=1 n=84 v=84
85928 Off ch=1 n=84 v=0
85938 On ch=1 n=83 v=84
85975 Off ch=1 n=83 v=0
85985 On ch=1 n=84 v=84
86016 On ch=1 n=64 v=98
86018 Off ch=1 n=66 v=0
86022 Off ch=1 n=84 v=0
86031 On ch=1 n=83 v=98
86067 Off ch=1 n=83 v=0
86077 On ch=1 n=84 v=98
86113 Off ch=1 n=84 v=0
86123 On ch=1 n=83 v=98
86144 On ch=1 n=63 v=90
86146 Off ch=1 n=64 v=0
86159 Off ch=1 n=83 v=0
86169 On ch=1 n=84 v=98
86205 Off ch=1 n=84 v=0
86216 On ch=1 n=83 v=98
86253 Off ch=1 n=83 v=0
86263 On ch=1 n=84 v=98
86265 Off ch=1 n=63 v=0
86272 On ch=1 n=62 v=93
86300 Off ch=1 n=84 v=0
86310 On ch=1 n=83 v=98
86347 Off ch=1 n=83 v=0
86357 On ch=1 n=84 v=98
86361 Off ch=1 n=62 v=0
86394 Off ch=1 n=84 v=0
86400 On ch=1 n=61 v=94
86405 On ch=1 n=83 v=98
86443 Off ch=1 n=83 v=0
86453 On ch=1 n=84 v=98
86489 Off ch=1 n=61 v=0
86491 Off ch=1 n=84 v=0
86501 On ch=1 n=83 v=98
86528 On ch=1 n=59 v=92
86539 Off ch=1 n=83 v=0
86549 On ch=1 n=84 v=98
86587 Off ch=1 n=84 v=0
86598 On ch=1 n=83 v=98
86617 Off ch=1 n=59 v=0
86637 Off ch=1 n=83 v=0
86647 On ch=1 n=84 v=98
86656 On ch=1 n=57 v=94
86686 Off ch=1 n=84 v=0
86696 On ch=1 n=83 v=98
86735 Off ch=1 n=83 v=0
86745 On ch=1 n=84 v=98
86745 Off ch=1 n=57 v=0
86784 Off ch=1 n=84 v=0
86784 On ch=1 n=56 v=93
86795 On ch=1 n=83 v=98
86835 Off ch=1 n=83 v=0
86845 On ch=1 n=84 v=98
86873 Off ch=1 n=56 v=0
86885 Off ch=1 n=84 v=0
86895 On ch=1 n=83 v=98
86912 On ch=1 n=54 v=97
86935 Off ch=1 n=83 v=0
86945 On ch=1 n=84 v=98
86985 Off ch=1 n=84 v=0
86996 On ch=1 n=83 v=98
87001 Off ch=1 n=54 v=0
87036 Off ch=1 n=83 v=0
87040 On ch=1 n=52 v=110
87047 On ch=1 n=84 v=113
87087 Off ch=1 n=84 v=0
87098 On ch=1 n=83 v=113
87129 Off ch=1 n=52 v=0
87138 Off ch=1 n=83 v=0
87150 On ch=1 n=84 v=113
87168 On ch=1 n=50 v=110
87191 Off ch=1 n=84 v=0
87202 On ch=1 n=83 v=113
87243 Off ch=1 n=83 v=0
87254 On ch=1 n=84 v=113
87257 Off ch=1 n=50 v=0
87295 Off ch=1 n=84 v=0
87296 On ch=1 n=49 v=108
87306 On ch=1 n=83 v=113
87347 Off ch=1 n=83 v=0
87359 On ch=1 n=84 v=113
87385 Off ch=1 n=49 v=0
87401 Off ch=1 n=84 v=0
87412 On ch=1 n=83 v=113
87424 On ch=1 n=47 v=112
87454 Off ch=1 n=83 v=0
87465 On ch=1 n=84 v=113
87507 Off ch=1 n=84 v=0
87513 Off ch=1 n=47 v=0
87519 On ch=1 n=83 v=113
87552 On ch=1 n=45 v=111
87562 Off ch=1 n=83 v=0
87573 On ch=1 n=84 v=113
87616 Off ch=1 n=84 v=0
87627 On ch=1 n=83 v=113
87641 Off ch=1 n=45 v=0
87670 Off ch=1 n=83 v=0
87680 On ch=1 n=44 v=113
87681 On ch=1 n=84 v=113
87724 Off ch=1 n=84 v=0
87736 On ch=1 n=83 v=113
87769 Off ch=1 n=44 v=0
87780 Off ch=1 n=83 v=0
87791 On ch=1 n=84 v=113
87808 On ch=1 n=42 v=113
87835 Off ch=1 n=84 v=0
87846 On ch=1 n=83 v=113
87890 Off ch=1 n=83 v=0
87897 Off ch=1 n=42 v=0
87902 On ch=1 n=84 v=113
87936 On ch=1 n=40 v=104
87946 Off ch=1 n=84 v=0
87958 On ch=1 n=83 v=113
88002 Off ch=1 n=83 v=0
88003 On ch=1 n=81 v=106
88014 On ch=1 n=84 v=106
88025 Off ch=1 n=40 v=0
88030 On ch=1 n=83 v=106
88058 Off ch=1 n=84 v=0
88064 On ch=1 n=69 v=113
88064 On ch=1 n=81 v=113
88064 Off ch=1 n=81 v=0
88064 Off ch=1 n=83 v=0
88064 On ch=1 n=33 v=122
88064 On ch=1 n=45 v=122
88404 Off ch=1 n=69 v=0
88404 Off ch=1 n=81 v=0
88422 Off ch=1 n=33 v=0
88422 Off ch=1 n=45 v=0
88576 On ch=1 n=57 v=78
88576 On ch=1 n=64 v=78
88576 On ch=1 n=69 v=78
88576 On ch=1 n=37 v=118
88576 On ch=1 n=45 v=118
88576 On ch=1 n=49 v=118
88934 Off ch=1 n=57 v=0
88934 Off ch=1 n=64 v=0
88934 Off ch=1 n=69 v=0
88934 Off ch=1 n=37 v=0
88934 Off ch=1 n=45 v=0
88934 Off ch=1 n=49 v=0
89088 On ch=1 n=57 v=109
89088 On ch=1 n=66 v=109
89088 On ch=1 n=69 v=109
89088 On ch=1 n=38 v=114
89088 On ch=1 n=45 v=114
89088 On ch=1 n=50 v=114
89446 Off ch=1 n=57 v=0
89446 Off ch=1 n=66 v=0
89446 Off ch=1 n=69 v=0
89446 Off ch=1 n=38 v=0
89446 Off ch=1 n=45 v=0
89446 Off ch=1 n=50 v=0
89600 On ch=1 n=57 v=114
89600 On ch=1 n=62 v=114
89600 On ch=1 n=69 v=114
89600 On ch=1 n=42 v=120
89600 On ch=1 n=50 v=120
89600 On ch=1 n=54 v=120
89958 Off ch=1 n=57 v=0
89958 Off ch=1 n=62 v=0
89958 Off ch=1 n=69 v=0
89958 Off ch=1 n=42 v=0
89958 Off ch=1 n=50 v=0
89958 Off ch=1 n=54 v=0
90112 On ch=1 n=59 v=117
90112 On ch=1 n=62 v=117
90112 On ch=1 n=71 v=117
90112 On ch=1 n=44 v=115
90112 On ch=1 n=50 v=115
90112 On ch=1 n=52 v=115
90112 On ch=1 n=56 v=115
90291 Off ch=1 n=59 v=0
90291 Off ch=1 n=62 v=0
90291 Off ch=1 n=71 v=0
90291 Off ch=1 n=44 v=0
90291 Off ch=1 n=50 v=0
90291 Off ch=1 n=52 v=0
90291 Off ch=1 n=56 v=0
90368 On ch=1 n=59 v=94
90368 On ch=1 n=62 v=94
90368 On ch=1 n=64 v=94
90368 On ch=1 n=44 v=112
90368 On ch=1 n=50 v=112
90368 On ch=1 n=52 v=112
90368 On ch=1 n=56 v=112
90547 Off ch=1 n=59 v=0
90547 Off ch=1 n=62 v=0
90547 Off ch=1 n=64 v=0
90547 Off ch=1 n=44 v=0
90547 Off ch=1 n=50 v=0
90547 Off ch=1 n=52 v=0
90547 Off ch=1 n=56 v=0
91136 On ch=1 n=61 v=100
91136 On ch=1 n=64 v=100
91136 On ch=1 n=73 v=100
91136 On ch=1 n=45 v=103
91136 On ch=1 n=49 v=103
91136 On ch=1 n=52 v=103
91136 On ch=1 n=57 v=103
91315 Off ch=1 n=61 v=0
91315 Off ch=1 n=64 v=0
91315 Off ch=1 n=73 v=0
91315 Off ch=1 n=45 v=0
91315 Off ch=1 n=49 v=0
91315 Off ch=1 n=52 v=0
91315 Off ch=1 n=57 v=0
91392 On ch=1 n=61 v=96
91392 On ch=1 n=64 v=96
91392 On ch=1 n=69 v=96
91392 On ch=1 n=45 v=107
91392 On ch=1 n=49 v=107
91392 On ch=1 n=52 v=107
91392 On ch=1 n=57 v=107
91571 Off ch=1 n=61 v=0
91571 Off ch=1 n=64 v=0
91571 Off ch=1 n=69 v=0
91571 Off ch=1 n=45 v=0
91571 Off ch=1 n=49 v=0
91571 Off ch=1 n=52 v=0
91571 Off ch=1 n=57 v=0
92160 On ch=1 n=47 v=55
92224 On ch=1 n=62 v=56
92288 Off ch=1 n=62 v=0
92288 On ch=1 n=64 v=59
92352 Off ch=1 n=64 v=0
92352 On ch=1 n=68 v=71
92416 Off ch=1 n=68 v=0
92416 On ch=1 n=74 v=73
92416 Off ch=1 n=47 v=0
92480 On ch=1 n=59 v=55
92544 Off ch=1 n=59 v=0
92544 On ch=1 n=58 v=60
92608 Off ch=1 n=58 v=0
92608 On ch=1 n=59 v=66
92672 Off ch=1 n=74 v=0
92672 Off ch=1 n=59 v=0
92672 On ch=1 n=49 v=52
92736 On ch=1 n=64 v=63
92800 Off ch=1 n=64 v=0
92800 On ch=1 n=69 v=80
92864 Off ch=1 n=69 v=0
92864 On ch=1 n=64 v=62
92928 Off ch=1 n=64 v=0
92928 On ch=1 n=76 v=91
92928 Off ch=1 n=49 v=0
92992 On ch=1 n=61 v=64
93056 Off ch=1 n=61 v=0
93056 On ch=1 n=60 v=73
93120 Off ch=1 n=60 v=0
93120 On ch=1 n=61 v=77
93184 Off ch=1 n=76 v=0
93184 Off ch=1 n=61 v=0
93184 On ch=1 n=50 v=61
93248 On ch=1 n=66 v=63
93312 Off ch=1 n=66 v=0
93312 On ch=1 n=69 v=87
93376 Off ch=1 n=69 v=0
93376 On ch=1 n=66 v=75
93440 Off ch=1 n=66 v=0
93440 On ch=1 n=78 v=103
93440 Off ch=1 n=50 v=0
93504 On ch=1 n=62 v=75
93568 Off ch=1 n=62 v=0
93568 On ch=1 n=61 v=75
93632 Off ch=1 n=61 v=0
93632 On ch=1 n=62 v=91
93696 Off ch=1 n=78 v=0
93696 Off ch=1 n=62 v=0
93696 On ch=1 n=52 v=78
93760 On ch=1 n=68 v=77
93824 Off ch=1 n=68 v=0
93824 On ch=1 n=74 v=98
93888 Off ch=1 n=74 v=0
93888 On ch=1 n=68 v=86
93952 Off ch=1 n=68 v=0
93952 On ch=1 n=80 v=120
93952 Off ch=1 n=52 v=0
94016 On ch=1 n=64 v=91
94080 Off ch=1 n=64 v=0
94080 On ch=1 n=63 v=90
94125 Off ch=1 n=80 v=0
94125 On ch=1 n=74 v=124
94144 Off ch=1 n=63 v=0
94144 On ch=1 n=64 v=100
94158 On ch=1 n=80 v=124
94183 On ch=1 n=83 v=124
94208 On ch=1 n=86 v=124
94208 Off ch=1 n=74 v=0
94208 Off ch=1 n=80 v=0
94208 Off ch=1 n=83 v=0
94208 Off ch=1 n=64 v=0
94208 On ch=1 n=52 v=113
94208 On ch=1 n=59 v=113
94208 On ch=1 n=62 v=113
94208 On ch=1 n=64 v=113
94517 Off ch=1 n=86 v=0
94528 On ch=1 n=85 v=95
94592 On ch=1 n=83 v=90
94593 Off ch=1 n=85 v=0
94656 On ch=1 n=81 v=93
94657 Off ch=1 n=83 v=0
94720 On ch=1 n=80 v=87
94721 Off ch=1 n=81 v=0
94784 On ch=1 n=81 v=98
94785 Off ch=1 n=80 v=0
94848 On ch=1 n=83 v=105
94849 Off ch=1 n=81 v=0
94912 On ch=1 n=81 v=94
94913 Off ch=1 n=83 v=0
94976 On ch=1 n=80 v=87
94977 Off ch=1 n=81 v=0
95040 On ch=1 n=78 v=96
95041 Off ch=1 n=80 v=0
95104 On ch=1 n=76 v=96
95105 Off ch=1 n=78 v=0
95168 On ch=1 n=74 v=90
95169 Off ch=1 n=76 v=0
95232 On ch=1 n=73 v=85
95232 Off ch=1 n=52 v=0
95232 Off ch=1 n=59 v=0
95232 Off ch=1 n=62 v=0
95232 Off ch=1 n=64 v=0
95232 On ch=1 n=57 v=101
95232 On ch=1 n=61 v=101
95232 On ch=1 n=64 v=101
95233 Off ch=1 n=74 v=0
95402 Off ch=1 n=73 v=0
95488 Off ch=1 n=57 v=0
95488 Off ch=1 n=61 v=0
95488 Off ch=1 n=64 v=0
96166 On ch=1 n=62 v=123
96206 On ch=1 n=68 v=123
96231 On ch=1 n=71 v=123
96256 On ch=1 n=74 v=123
96256 Off ch=1 n=62 v=0
96256 Off ch=1 n=68 v=0
96256 Off ch=1 n=71 v=0
96256 On ch=1 n=40 v=98
96256 On ch=1 n=47 v=98
96256 On ch=1 n=50 v=98
96256 On ch=1 n=52 v=98
96565 Off ch=1 n=74 v=0
96576 On ch=1 n=73 v=91
96640 On ch=1 n=71 v=84
96641 Off ch=1 n=73 v=0
96704 On ch=1 n=69 v=88
96705 Off ch=1 n=71 v=0
96768 On ch=1 n=68 v=79
96769 Off ch=1 n=69 v=0
96832 On ch=1 n=69 v=100
96833 Off ch=1 n=68 v=0
96896 On ch=1 n=71 v=105
96897 Off ch=1 n=69 v=0
96960 On ch=1 n=69 v=90
96961 Off ch=1 n=71 v=0
97024 On ch=1 n=68 v=88
97025 Off ch=1 n=69 v=0
97088 On ch=1 n=66 v=91
97089 Off ch=1 n=68 v=0
97152 On ch=1 n=64 v=86
97153 Off ch=1 n=66 v=0
97216 On ch=1 n=62 v=93
97217 Off ch=1 n=64 v=0
97280 On ch=1 n=61 v=88
97280 Off ch=1 n=40 v=0
97280 Off ch=1 n=47 v=0
97280 Off ch=1 n=50 v=0
97280 Off ch=1 n=52 v=0
97280 On ch=1 n=45 v=101
97280 On ch=1 n=49 v=101
97280 On ch=1 n=52 v=101
97280 On ch=1 n=57 v=101
97281 Off ch=1 n=62 v=0
97408 Off ch=1 n=45 v=0
97408 Off ch=1 n=49 v=0
97408 Off ch=1 n=52 v=0
97408 Off ch=1 n=57 v=0
97450 Off ch=1 n=61 v=0
98214 On ch=1 n=50 v=121
98240 On ch=1 n=52 v=90
98240 On ch=1 n=56 v=90
98254 On ch=1 n=56 v=121
98279 On ch=1 n=59 v=121
98304 On ch=1 n=62 v=121
98304 Off ch=1 n=50 v=0
98304 Off ch=1 n=56 v=0
98304 Off ch=1 n=59 v=0
98304 Off ch=1 n=52 v=0
98304 Off ch=1 n=56 v=0
98304 On ch=1 n=40 v=95
98613 Off ch=1 n=62 v=0
98624 On ch=1 n=61 v=91
98688 On ch=1 n=59 v=90
98689 Off ch=1 n=61 v=0
98752 On ch=1 n=57 v=94
98753 Off ch=1 n=59 v=0
98816 On ch=1 n=56 v=95
98817 Off ch=1 n=57 v=0
98880 On ch=1 n=57 v=102
98881 Off ch=1 n=56 v=0
98944 On ch=1 n=59 v=106
98945 Off ch=1 n=57 v=0
99008 On ch=1 n=57 v=98
99009 Off ch=1 n=59 v=0
99072 On ch=1 n=56 v=100
99073 Off ch=1 n=57 v=0
99136 On ch=1 n=54 v=93
99137 Off ch=1 n=56 v=0
99200 On ch=1 n=52 v=93
99201 Off ch=1 n=54 v=0
99264 On ch=1 n=50 v=98
99265 Off ch=1 n=52 v=0
99328 On ch=1 n=45 v=105
99328 Off ch=1 n=40 v=0
99328 On ch=1 n=33 v=88
99329 Off ch=1 n=50 v=0
99388 Off ch=1 n=45 v=0
99392 On ch=1 n=47 v=112
99392 Off ch=1 n=33 v=0
99392 On ch=1 n=35 v=100
99456 Off ch=1 n=47 v=0
99456 On ch=1 n=49 v=118
99456 Off ch=1 n=35 v=0
99456 On ch=1 n=37 v=100
99520 Off ch=1 n=49 v=0
99520 On ch=1 n=50 v=121
99520 Off ch=1 n=37 v=0
99520 On ch=1 n=38 v=98
99584 Off ch=1 n=50 v=0
99584 On ch=1 n=52 v=121
99584 Off ch=1 n=38 v=0
99584 On ch=1 n=40 v=104
99648 Off ch=1 n=52 v=0
99648 On ch=1 n=54 v=118
99648 Off ch=1 n=40 v=0
99648 On ch=1 n=42 v=100
99712 Off ch=1 n=54 v=0
99712 On ch=1 n=56 v=117
99712 Off ch=1 n=42 v=0
99712 On ch=1 n=44 v=100
99776 Off ch=1 n=56 v=0
99776 On ch=1 n=57 v=114
99776 Off ch=1 n=44 v=0
99776 On ch=1 n=45 v=102
99840 Off ch=1 n=57 v=0
99840 On ch=1 n=59 v=115
99840 Off ch=1 n=45 v=0
99840 On ch=1 n=47 v=99
99904 Off ch=1 n=59 v=0
99904 On ch=1 n=61 v=122
99904 Off ch=1 n=47 v=0
99904 On ch=1 n=49 v=100
99968 Off ch=1 n=61 v=0
99968 On ch=1 n=62 v=120
99968 Off ch=1 n=49 v=0
99968 On ch=1 n=50 v=101
100032 Off ch=1 n=62 v=0
100032 On ch=1 n=64 v=119
100032 Off ch=1 n=50 v=0
100032 On ch=1 n=52 v=101
100096 Off ch=1 n=64 v=0
100096 On ch=1 n=66 v=119
100096 Off ch=1 n=52 v=0
100096 On ch=1 n=54 v=102
100160 Off ch=1 n=66 v=0
100160 On ch=1 n=68 v=121
100160 Off ch=1 n=54 v=0
100160 On ch=1 n=56 v=101
100224 Off ch=1 n=68 v=0
100224 On ch=1 n=69 v=122
100224 Off ch=1 n=56 v=0
100224 On ch=1 n=57 v=99
100288 Off ch=1 n=69 v=0
100288 On ch=1 n=71 v=123
100288 Off ch=1 n=57 v=0
100288 On ch=1 n=59 v=101
100352 Off ch=1 n=71 v=0
100352 On ch=1 n=73 v=119
100352 Off ch=1 n=59 v=0
100352 On ch=1 n=61 v=104
100416 Off ch=1 n=73 v=0
100416 On ch=1 n=74 v=116
100416 Off ch=1 n=61 v=0
100416 On ch=1 n=62 v=105
100480 Off ch=1 n=74 v=0
100480 On ch=1 n=76 v=121
100480 Off ch=1 n=62 v=0
100480 On ch=1 n=64 v=103
100544 Off ch=1 n=76 v=0
100544 On ch=1 n=78 v=121
100544 Off ch=1 n=64 v=0
100544 On ch=1 n=66 v=104
100608 Off ch=1 n=78 v=0
100608 On ch=1 n=80 v=123
100608 Off ch=1 n=66 v=0
100608 On ch=1 n=68 v=103
100672 Off ch=1 n=80 v=0
100672 On ch=1 n=81 v=118
100672 Off ch=1 n=68 v=0
100672 On ch=1 n=69 v=105
100736 Off ch=1 n=81 v=0
100736 On ch=1 n=83 v=122
100736 Off ch=1 n=69 v=0
100736 On ch=1 n=71 v=104
100800 Off ch=1 n=83 v=0
100800 On ch=1 n=85 v=122
100800 Off ch=1 n=71 v=0
100800 On ch=1 n=73 v=108
100864 Off ch=1 n=85 v=0
100864 On ch=1 n=86 v=117
100864 Off ch=1 n=73 v=0
100864 On ch=1 n=74 v=99
101043 Off ch=1 n=86 v=0
101043 Off ch=1 n=74 v=0
101120 On ch=1 n=87 v=121
101120 On ch=1 n=75 v=104
101299 Off ch=1 n=87 v=0
101299 Off ch=1 n=75 v=0
101376 On ch=1 n=88 v=121
101376 On ch=1 n=76 v=103
101632 Off ch=1 n=88 v=0
101632 Off ch=1 n=76 v=0
101888 On ch=1 n=59 v=104
101888 On ch=1 n=62 v=104
101888 On ch=1 n=64 v=104
101888 On ch=1 n=68 v=104
101888 On ch=1 n=40 v=87
101888 On ch=1 n=52 v=87
102144 Off ch=1 n=59 v=0
102144 Off ch=1 n=62 v=0
102144 Off ch=1 n=64 v=0
102144 Off ch=1 n=68 v=0
102144 Off ch=1 n=40 v=0
102144 Off ch=1 n=52 v=0
102400 On ch=1 n=57 v=103
102400 On ch=1 n=61 v=103
102400 On ch=1 n=64 v=103
102400 On ch=1 n=69 v=103
102400 On ch=1 n=33 v=87
102400 On ch=1 n=45 v=87
102656 Off ch=1 n=57 v=0
102656 Off ch=1 n=61 v=0
102656 Off ch=1 n=64 v=0
102656 Off ch=1 n=69 v=0
102656 Off ch=1 n=33 v=0
102656 Off ch=1 n=45 v=0
103424 On ch=1 n=54 v=89
103424 On ch=1 n=57 v=89
103424 On ch=1 n=62 v=89
103424 On ch=1 n=38 v=84
103424 On ch=1 n=42 v=84
103424 On ch=1 n=45 v=84
103424 On ch=1 n=50 v=84
104192 Off ch=1 n=54 v=0
104192 Off ch=1 n=57 v=0
104192 Off ch=1 n=62 v=0
104192 Off ch=1 n=38 v=0
104192 Off ch=1 n=42 v=0
104192 Off ch=1 n=45 v=0
104192 Off ch=1 n=50 v=0
104320 On ch=1 n=57 v=88
104320 On ch=1 n=45 v=89
104384 On ch=1 n=62 v=94
104384 On ch=1 n=50 v=101
104385 Off ch=1 n=57 v=0
104385 Off ch=1 n=45 v=0
104448 On ch=1 n=66 v=107
104448 On ch=1 n=54 v=104
104449 Off ch=1 n=62 v=0
104449 Off ch=1 n=50 v=0
104618 Off ch=1 n=66 v=0
104618 Off ch=1 n=54 v=0
104832 On ch=1 n=62 v=90
104832 On ch=1 n=50 v=85
104896 On ch=1 n=66 v=99
104896 On ch=1 n=54 v=89
104897 Off ch=1 n=62 v=0
104897 Off ch=1 n=50 v=0
104960 On ch=1 n=69 v=105
104960 On ch=1 n=57 v=99
104961 Off ch=1 n=66 v=0
104961 Off ch=1 n=54 v=0
105130 Off ch=1 n=69 v=0
105130 Off ch=1 n=57 v=0
105344 On ch=1 n=69 v=87
105344 On ch=1 n=57 v=88
105408 On ch=1 n=66 v=81
105408 On ch=1 n=54 v=90
105409 Off ch=1 n=69 v=0
105409 Off ch=1 n=57 v=0
105472 On ch=1 n=62 v=86
105472 On ch=1 n=50 v=93
105473 Off ch=1 n=66 v=0
105473 Off ch=1 n=54 v=0
105642 Off ch=1 n=62 v=0
105642 Off ch=1 n=50 v=0
106368 On ch=1 n=66 v=88
106368 On ch=1 n=54 v=90
106432 On ch=1 n=62 v=81
106432 On ch=1 n=50 v=86
106433 Off ch=1 n=66 v=0
106433 Off ch=1 n=54 v=0
106496 On ch=1 n=57 v=91
106496 On ch=1 n=45 v=88
106497 Off ch=1 n=62 v=0
106497 Off ch=1 n=50 v=0
106666 Off ch=1 n=57 v=0
106666 Off ch=1 n=45 v=0
106880 On ch=1 n=62 v=88
106880 On ch=1 n=50 v=89
106944 On ch=1 n=57 v=87
106944 On ch=1 n=45 v=81
106945 Off ch=1 n=62 v=0
106945 Off ch=1 n=50 v=0
107008 On ch=1 n=54 v=95
107008 On ch=1 n=42 v=94
107009 Off ch=1 n=57 v=0
107009 Off ch=1 n=45 v=0
107178 Off ch=1 n=54 v=0
107178 Off ch=1 n=42 v=0
107392 On ch=1 n=57 v=92
107392 On ch=1 n=45 v=86
107456 On ch=1 n=54 v=86
107456 On ch=1 n=42 v=85
107457 Off ch=1 n=57 v=0
107457 Off ch=1 n=45 v=0
107516 Off ch=1 n=54 v=0
107520 On ch=1 n=50 v=59
107520 On ch=1 n=38 v=63
107520 On ch=1 n=45 v=63
107521 Off ch=1 n=42 v=0
107648 On ch=1 n=54 v=64
107650 Off ch=1 n=50 v=0
107776 On ch=1 n=57 v=60
107778 Off ch=1 n=54 v=0
107904 On ch=1 n=55 v=59
107906 Off ch=1 n=57 v=0
108032 On ch=1 n=54 v=61
108034 Off ch=1 n=55 v=0
108160 On ch=1 n=52 v=59
108162 Off ch=1 n=54 v=0
108288 On ch=1 n=50 v=57
108290 Off ch=1 n=52 v=0
108416 On ch=1 n=49 v=58
108418 Off ch=1 n=50 v=0
108492 Off ch=1 n=38 v=0
108492 Off ch=1 n=45 v=0
108544 On ch=1 n=50 v=63
108544 On ch=1 n=42 v=63
108544 On ch=1 n=45 v=63
108544 On ch=1 n=50 v=63
108546 Off ch=1 n=49 v=0
108672 On ch=1 n=52 v=67
108674 Off ch=1 n=50 v=0
108800 On ch=1 n=54 v=62
108802 Off ch=1 n=52 v=0
108928 On ch=1 n=55 v=66
108930 Off ch=1 n=54 v=0
109056 On ch=1 n=57 v=58
109058 Off ch=1 n=55 v=0
109184 On ch=1 n=59 v=57
109186 Off ch=1 n=57 v=0
109312 On ch=1 n=61 v=67
109314 Off ch=1 n=59 v=0
109440 On ch=1 n=62 v=69
109442 Off ch=1 n=61 v=0
109568 On ch=1 n=57 v=58
109568 Off ch=1 n=42 v=0
109568 Off ch=1 n=45 v=0
109568 Off ch=1 n=50 v=0
109568 On ch=1 n=40 v=56
109568 On ch=1 n=45 v=56
109568 On ch=1 n=49 v=56
109570 Off ch=1 n=62 v=0
109696 On ch=1 n=61 v=64
109698 Off ch=1 n=57 v=0
109824 On ch=1 n=64 v=68
109826 Off ch=1 n=61 v=0
109952 On ch=1 n=62 v=63
109954 Off ch=1 n=64 v=0
110080 On ch=1 n=61 v=56
110082 Off ch=1 n=62 v=0
110208 On ch=1 n=59 v=50
110210 Off ch=1 n=61 v=0
110336 On ch=1 n=57 v=58
110338 Off ch=1 n=59 v=0
110464 On ch=1 n=56 v=56
110466 Off ch=1 n=57 v=0
110592 On ch=1 n=57 v=61
110592 Off ch=1 n=40 v=0
110592 Off ch=1 n=45 v=0
110592 Off ch=1 n=49 v=0
110592 On ch=1 n=43 v=63
110592 On ch=1 n=45 v=63
110592 On ch=1 n=52 v=63
110594 Off ch=1 n=56 v=0
110720 On ch=1 n=59 v=65
110722 Off ch=1 n=57 v=0
110848 On ch=1 n=61 v=67
110850 Off ch=1 n=59 v=0
110976 On ch=1 n=62 v=68
110978 Off ch=1 n=61 v=0
111104 On ch=1 n=64 v=62
111106 Off ch=1 n=62 v=0
111232 On ch=1 n=66 v=63
111234 Off ch=1 n=64 v=0
111360 On ch=1 n=67 v=65
111362 Off ch=1 n=66 v=0
111488 On ch=1 n=64 v=60
111490 Off ch=1 n=67 v=0
111616 On ch=1 n=62 v=60
111616 Off ch=1 n=43 v=0
111616 Off ch=1 n=45 v=0
111616 Off ch=1 n=52 v=0
111616 On ch=1 n=42 v=55
111616 On ch=1 n=45 v=55
111616 On ch=1 n=50 v=55
111618 Off ch=1 n=64 v=0
111744 On ch=1 n=66 v=68
111746 Off ch=1 n=62 v=0
111872 On ch=1 n=69 v=73
111874 Off ch=1 n=66 v=0
112000 On ch=1 n=67 v=56
112002 Off ch=1 n=69 v=0
112128 On ch=1 n=66 v=62
112130 Off ch=1 n=67 v=0
112256 On ch=1 n=64 v=58
112258 Off ch=1 n=66 v=0
112384 On ch=1 n=62 v=64
112386 Off ch=1 n=64 v=0
112512 On ch=1 n=61 v=62
112514 Off ch=1 n=62 v=0
112640 On ch=1 n=62 v=73
112640 Off ch=1 n=42 v=0
112640 Off ch=1 n=45 v=0
112640 Off ch=1 n=50 v=0
112640 On ch=1 n=48 v=78
112640 On ch=1 n=50 v=78
112640 On ch=1 n=57 v=78
112642 Off ch=1 n=61 v=0
112768 On ch=1 n=64 v=78
112770 Off ch=1 n=62 v=0
112896 On ch=1 n=66 v=76
112898 Off ch=1 n=64 v=0
113024 On ch=1 n=67 v=78
113026 Off ch=1 n=66 v=0
113152 On ch=1 n=69 v=77
113154 Off ch=1 n=67 v=0
113280 On ch=1 n=71 v=81
113282 Off ch=1 n=69 v=0
113408 On ch=1 n=72 v=80
113410 Off ch=1 n=71 v=0
113536 On ch=1 n=73 v=84
113538 Off ch=1 n=72 v=0
113664 On ch=1 n=74 v=84
113664 Off ch=1 n=48 v=0
113664 Off ch=1 n=50 v=0
113664 Off ch=1 n=57 v=0
113664 On ch=1 n=47 v=83
113664 On ch=1 n=50 v=83
113664 On ch=1 n=55 v=83
113666 Off ch=1 n=73 v=0
113792 On ch=1 n=76 v=84
113794 Off ch=1 n=74 v=0
113920 On ch=1 n=78 v=85
113922 Off ch=1 n=76 v=0
114048 On ch=1 n=79 v=91
114050 Off ch=1 n=78 v=0
114176 On ch=1 n=80 v=88
114176 Off ch=1 n=47 v=0
114176 Off ch=1 n=50 v=0
114176 Off ch=1 n=55 v=0
114176 On ch=1 n=43 v=76
114176 On ch=1 n=50 v=76
114176 On ch=1 n=52 v=76
114178 Off ch=1 n=79 v=0
114304 On ch=1 n=81 v=87
114306 Off ch=1 n=80 v=0
114432 On ch=1 n=82 v=90
114434 Off ch=1 n=81 v=0
114560 On ch=1 n=83 v=94
114562 Off ch=1 n=82 v=0
114681 Off ch=1 n=83 v=0
114688 On ch=1 n=83 v=71
114688 Off ch=1 n=43 v=0
114688 Off ch=1 n=50 v=0
114688 Off ch=1 n=52 v=0
114688 On ch=1 n=45 v=62
114688 On ch=1 n=50 v=62
114688 On ch=1 n=54 v=62
114816 On ch=1 n=81 v=66
114818 Off ch=1 n=83 v=0
114944 On ch=1 n=79 v=67
114946 Off ch=1 n=81 v=0
115072 On ch=1 n=78 v=63
115074 Off ch=1 n=79 v=0
115193 Off ch=1 n=78 v=0
115200 On ch=1 n=78 v=72
115200 Off ch=1 n=45 v=0
115200 Off ch=1 n=50 v=0
115200 Off ch=1 n=54 v=0
115200 On ch=1 n=45 v=66
115200 On ch=1 n=52 v=66
115200 On ch=1 n=55 v=66
115328 On ch=1 n=76 v=65
115330 Off ch=1 n=78 v=0
115456 On ch=1 n=74 v=72
115458 Off ch=1 n=76 v=0
115584 On ch=1 n=73 v=70
115586 Off ch=1 n=74 v=0
115705 Off ch=1 n=73 v=0
115712 On ch=1 n=74 v=72
115712 Off ch=1 n=45 v=0
115712 Off ch=1 n=52 v=0
115712 Off ch=1 n=55 v=0
115712 On ch=1 n=50 v=63
115712 On ch=1 n=54 v=63
115968 Off ch=1 n=74 v=0
116160 On ch=1 n=69 v=79
116224 On ch=1 n=81 v=98
116225 Off ch=1 n=69 v=0
116736 Off ch=1 n=50 v=0
116736 Off ch=1 n=54 v=0
116736 On ch=1 n=54 v=86
116736 On ch=1 n=57 v=86
116791 Off ch=1 n=81 v=0
116821 On ch=1 n=78 v=78
116906 Off ch=1 n=78 v=0
116906 On ch=1 n=74 v=71
116992 Off ch=1 n=74 v=0
116992 On ch=1 n=69 v=71
117077 Off ch=1 n=69 v=0
117077 On ch=1 n=66 v=79
117162 Off ch=1 n=66 v=0
117162 On ch=1 n=62 v=72
117248 Off ch=1 n=62 v=0
117248 On ch=1 n=62 v=80
117427 Off ch=1 n=62 v=0
117504 On ch=1 n=62 v=83
117683 Off ch=1 n=62 v=0
117685 On ch=1 n=61 v=78
117710 On ch=1 n=62 v=78
117735 On ch=1 n=64 v=78
117760 On ch=1 n=62 v=78
117760 Off ch=1 n=61 v=0
117760 Off ch=1 n=62 v=0
117760 Off ch=1 n=64 v=0
117760 Off ch=1 n=54 v=0
117760 Off ch=1 n=57 v=0
117760 On ch=1 n=52 v=83
117760 On ch=1 n=57 v=83
118007 Off ch=1 n=62 v=0
118016 On ch=1 n=61 v=79
118137 Off ch=1 n=61 v=0
118208 On ch=1 n=69 v=74
118272 On ch=1 n=79 v=90
118273 Off ch=1 n=69 v=0
118784 Off ch=1 n=52 v=0
118784 Off ch=1 n=57 v=0
118784 On ch=1 n=55 v=89
118784 On ch=1 n=57 v=89
118839 Off ch=1 n=79 v=0
118869 On ch=1 n=76 v=76
118954 Off ch=1 n=76 v=0
118954 On ch=1 n=73 v=75
119040 Off ch=1 n=73 v=0
119040 On ch=1 n=67 v=71
119125 Off ch=1 n=67 v=0
119125 On ch=1 n=64 v=70
119210 Off ch=1 n=64 v=0
119210 On ch=1 n=61 v=76
119296 Off ch=1 n=61 v=0
119296 On ch=1 n=61 v=84
119475 Off ch=1 n=61 v=0
119552 On ch=1 n=61 v=80
119808 On ch=1 n=64 v=94
119808 Off ch=1 n=55 v=0
119808 Off ch=1 n=57 v=0
119808 On ch=1 n=54 v=85
119808 On ch=1 n=57 v=85
119813 Off ch=1 n=61 v=0
120064 On ch=1 n=62 v=79
120069 Off ch=1 n=64 v=0
120185 Off ch=1 n=62 v=0
120256 On ch=1 n=74 v=81
120320 On ch=1 n=86 v=107
120321 Off ch=1 n=74 v=0
120832 Off ch=1 n=54 v=0
120832 Off ch=1 n=57 v=0
120832 On ch=1 n=60 v=104
120832 On ch=1 n=62 v=104
120887 Off ch=1 n=86 v=0
120917 On ch=1 n=81 v=81
121002 Off ch=1 n=81 v=0
121002 On ch=1 n=78 v=82
121088 Off ch=1 n=78 v=0
121088 On ch=1 n=74 v=79
121173 Off ch=1 n=74 v=0
121173 On ch=1 n=69 v=82
121258 Off ch=1 n=69 v=0
121258 On ch=1 n=66 v=88
121344 Off ch=1 n=66 v=0
121344 On ch=1 n=66 v=98
121523 Off ch=1 n=66 v=0
121600 On ch=1 n=66 v=99
121779 Off ch=1 n=66 v=0
121856 On ch=1 n=67 v=107
121856 Off ch=1 n=60 v=0
121856 Off ch=1 n=62 v=0
121856 On ch=1 n=59 v=106
121856 On ch=1 n=62 v=106
122240 Off ch=1 n=67 v=0
122240 On ch=1 n=69 v=111
122282 Off ch=1 n=69 v=0
122282 On ch=1 n=67 v=100
122325 Off ch=1 n=67 v=0
122325 On ch=1 n=66 v=100
122368 Off ch=1 n=66 v=0
122368 On ch=1 n=67 v=108
122432 Off ch=1 n=67 v=0
122432 On ch=1 n=69 v=111
122496 Off ch=1 n=69 v=0
122496 On ch=1 n=71 v=114
122560 Off ch=1 n=71 v=0
122560 On ch=1 n=72 v=116
122624 Off ch=1 n=72 v=0
122624 On ch=1 n=74 v=119
122688 Off ch=1 n=74 v=0
122688 On ch=1 n=76 v=113
122752 Off ch=1 n=76 v=0
122752 On ch=1 n=78 v=121
122816 Off ch=1 n=78 v=0
122816 On ch=1 n=79 v=115
122880 Off ch=1 n=79 v=0
122880 On ch=1 n=80 v=104
122880 Off ch=1 n=59 v=0
122880 Off ch=1 n=62 v=0
122880 On ch=1 n=58 v=97
122880 On ch=1 n=62 v=97
122925 Off ch=1 n=80 v=0
122936 On ch=1 n=81 v=104
122980 Off ch=1 n=81 v=0
122991 On ch=1 n=80 v=104
123035 Off ch=1 n=80 v=0
123045 On ch=1 n=81 v=104
123088 Off ch=1 n=81 v=0
123098 On ch=1 n=80 v=104
123140 Off ch=1 n=80 v=0
123150 On ch=1 n=81 v=104
123191 Off ch=1 n=81 v=0
123201 On ch=1 n=80 v=104
123241 Off ch=1 n=80 v=0
123251 On ch=1 n=81 v=104
123291 Off ch=1 n=81 v=0
123299 On ch=1 n=80 v=104
123337 Off ch=1 n=80 v=0
123346 On ch=1 n=81 v=104
123383 Off ch=1 n=81 v=0
123392 On ch=1 n=80 v=104
123428 Off ch=1 n=80 v=0
123438 On ch=1 n=81 v=104
123474 Off ch=1 n=81 v=0
123485 On ch=1 n=80 v=104
123522 Off ch=1 n=80 v=0
123534 On ch=1 n=81 v=104
123573 Off ch=1 n=81 v=0
123584 On ch=1 n=80 v=104
123624 Off ch=1 n=80 v=0
123635 On ch=1 n=81 v=104
123675 Off ch=1 n=81 v=0
123687 On ch=1 n=80 v=104
123728 Off ch=1 n=80 v=0
123740 On ch=1 n=81 v=104
123782 Off ch=1 n=81 v=0
123794 On ch=1 n=80 v=104
123837 Off ch=1 n=80 v=0
123843 On ch=1 n=78 v=113
123870 On ch=1 n=79 v=113
123904 On ch=1 n=81 v=113
123904 Off ch=1 n=78 v=0
123904 Off ch=1 n=79 v=0
123904 Off ch=1 n=58 v=0
123904 Off ch=1 n=62 v=0
123904 On ch=1 n=45 v=98
123968 Off ch=1 n=45 v=0
123968 On ch=1 n=57 v=106
124032 Off ch=1 n=57 v=0
124032 On ch=1 n=56 v=98
124096 Off ch=1 n=56 v=0
124096 On ch=1 n=57 v=103
124160 Off ch=1 n=57 v=0
124160 On ch=1 n=59 v=99
124224 Off ch=1 n=59 v=0
124224 On ch=1 n=57 v=90
124268 Off ch=1 n=81 v=0
124288 Off ch=1 n=57 v=0
124288 On ch=1 n=56 v=92
124352 Off ch=1 n=56 v=0
124352 On ch=1 n=57 v=101
124416 Off ch=1 n=57 v=0
124416 On ch=1 n=45 v=84
124672 On ch=1 n=79 v=67
124672 Off ch=1 n=45 v=0
124736 Off ch=1 n=79 v=0
124736 On ch=1 n=88 v=83
124800 Off ch=1 n=88 v=0
124800 On ch=1 n=85 v=68
124864 Off ch=1 n=85 v=0
124864 On ch=1 n=79 v=60
124928 Off ch=1 n=79 v=0
124928 On ch=1 n=76 v=65
124992 Off ch=1 n=76 v=0
124992 On ch=1 n=85 v=87
125056 Off ch=1 n=85 v=0
125056 On ch=1 n=79 v=63
125120 Off ch=1 n=79 v=0
125120 On ch=1 n=76 v=65
125184 Off ch=1 n=76 v=0
125184 On ch=1 n=73 v=61
125248 Off ch=1 n=73 v=0
125248 On ch=1 n=79 v=84
125312 Off ch=1 n=79 v=0
125312 On ch=1 n=76 v=68
125376 Off ch=1 n=76 v=0
125376 On ch=1 n=73 v=66
125440 Off ch=1 n=73 v=0
125440 On ch=1 n=67 v=61
125504 Off ch=1 n=67 v=0
125504 On ch=1 n=76 v=83
125568 Off ch=1 n=76 v=0
125568 On ch=1 n=73 v=62
125632 Off ch=1 n=73 v=0
125632 On ch=1 n=67 v=62
125696 Off ch=1 n=67 v=0
125696 On ch=1 n=64 v=61
125760 Off ch=1 n=64 v=0
125760 On ch=1 n=73 v=84
125824 Off ch=1 n=73 v=0
125824 On ch=1 n=67 v=61
125888 Off ch=1 n=67 v=0
125888 On ch=1 n=64 v=67
125952 Off ch=1 n=64 v=0
125952 On ch=1 n=66 v=97
125952 On ch=1 n=74 v=97
125952 On ch=1 n=33 v=78
126016 Off ch=1 n=33 v=0
126016 On ch=1 n=45 v=83
126080 Off ch=1 n=45 v=0
126080 On ch=1 n=44 v=74
126144 Off ch=1 n=44 v=0
126144 On ch=1 n=45 v=71
126208 Off ch=1 n=66 v=0
126208 Off ch=1 n=74 v=0
126208 Off ch=1 n=45 v=0
126208 On ch=1 n=47 v=68
126272 Off ch=1 n=47 v=0
126272 On ch=1 n=45 v=69
126336 Off ch=1 n=45 v=0
126336 On ch=1 n=44 v=73
126400 Off ch=1 n=44 v=0
126400 On ch=1 n=45 v=74
126464 Off ch=1 n=45 v=0
126464 On ch=1 n=33 v=66
126720 On ch=1 n=78 v=63
126720 Off ch=1 n=33 v=0
126784 Off ch=1 n=78 v=0
126784 On ch=1 n=86 v=88
126848 Off ch=1 n=86 v=0
126848 On ch=1 n=81 v=65
126912 Off ch=1 n=81 v=0
126912 On ch=1 n=78 v=62
126976 Off ch=1 n=78 v=0
126976 On ch=1 n=74 v=68
127040 Off ch=1 n=74 v=0
127040 On ch=1 n=81 v=78
127104 Off ch=1 n=81 v=0
127104 On ch=1 n=78 v=68
127168 Off ch=1 n=78 v=0
127168 On ch=1 n=74 v=66
127232 Off ch=1 n=74 v=0
127232 On ch=1 n=69 v=61
127296 Off ch=1 n=69 v=0
127296 On ch=1 n=78 v=80
127360 Off ch=1 n=78 v=0
127360 On ch=1 n=74 v=65
127424 Off ch=1 n=74 v=0
127424 On ch=1 n=69 v=59
127488 Off ch=1 n=69 v=0
127488 On ch=1 n=66 v=63
127552 Off ch=1 n=66 v=0
127552 On ch=1 n=74 v=83
127616 Off ch=1 n=74 v=0
127616 On ch=1 n=69 v=68
127680 Off ch=1 n=69 v=0
127680 On ch=1 n=66 v=63
127744 Off ch=1 n=66 v=0
127744 On ch=1 n=62 v=61
127808 Off ch=1 n=62 v=0
127808 On ch=1 n=69 v=80
127872 Off ch=1 n=69 v=0
127872 On ch=1 n=66 v=69
127936 Off ch=1 n=66 v=0
127936 On ch=1 n=62 v=62
128000 Off ch=1 n=62 v=0
128000 On ch=1 n=61 v=90
128000 On ch=1 n=64 v=90
128000 On ch=1 n=67 v=90
128000 On ch=1 n=45 v=71
128064 Off ch=1 n=45 v=0
128064 On ch=1 n=57 v=78
128128 Off ch=1 n=57 v=0
128128 On ch=1 n=56 v=74
128192 Off ch=1 n=56 v=0
128192 On ch=1 n=57 v=71
128256 Off ch=1 n=61 v=0
128256 Off ch=1 n=64 v=0
128256 Off ch=1 n=67 v=0
128256 Off ch=1 n=57 v=0
128256 On ch=1 n=59 v=76
128320 Off ch=1 n=59 v=0
128320 On ch=1 n=57 v=64
128384 Off ch=1 n=57 v=0
128384 On ch=1 n=56 v=68
128448 Off ch=1 n=56 v=0
128448 On ch=1 n=57 v=72
128512 Off ch=1 n=57 v=0
128512 On ch=1 n=45 v=59
128768 On ch=1 n=83 v=61
128768 Off ch=1 n=45 v=0
128832 Off ch=1 n=83 v=0
128832 On ch=1 n=82 v=66
128896 Off ch=1 n=82 v=0
128896 On ch=1 n=83 v=77
128960 Off ch=1 n=83 v=0
128960 On ch=1 n=82 v=72
129024 Off ch=1 n=82 v=0
129024 On ch=1 n=83 v=118
129024 On ch=1 n=33 v=87
129024 On ch=1 n=45 v=87
129088 Off ch=1 n=83 v=0
129088 On ch=1 n=85 v=126
129152 Off ch=1 n=85 v=0
129152 On ch=1 n=83 v=109
129216 Off ch=1 n=83 v=0
129216 On ch=1 n=82 v=107
129280 Off ch=1 n=82 v=0
129280 On ch=1 n=83 v=121
129344 Off ch=1 n=83 v=0
129344 On ch=1 n=81 v=102
129408 Off ch=1 n=81 v=0
129408 On ch=1 n=79 v=103
129472 Off ch=1 n=79 v=0
129472 On ch=1 n=78 v=108
129536 Off ch=1 n=78 v=0
129536 On ch=1 n=76 v=105
129600 Off ch=1 n=76 v=0
129600 On ch=1 n=74 v=107
129664 Off ch=1 n=74 v=0
129664 On ch=1 n=73 v=107
129728 Off ch=1 n=73 v=0
129728 On ch=1 n=71 v=107
129792 Off ch=1 n=71 v=0
129792 On ch=1 n=69 v=107
129856 Off ch=1 n=69 v=0
129856 On ch=1 n=67 v=103
129920 Off ch=1 n=67 v=0
129920 On ch=1 n=66 v=109
129984 Off ch=1 n=66 v=0
129984 On ch=1 n=64 v=103
130048 Off ch=1 n=64 v=0
130048 On ch=1 n=62 v=54
130048 Off ch=1 n=33 v=0
130048 Off ch=1 n=45 v=0
130048 On ch=1 n=38 v=64
130048 On ch=1 n=50 v=64
130176 On ch=1 n=66 v=59
130176 On ch=1 n=54 v=66
130178 Off ch=1 n=62 v=0
130178 Off ch=1 n=38 v=0
130178 Off ch=1 n=50 v=0
130304 On ch=1 n=69 v=67
130304 On ch=1 n=57 v=64
130306 Off ch=1 n=66 v=0
130306 Off ch=1 n=54 v=0
130432 On ch=1 n=67 v=68
130432 On ch=1 n=55 v=63
130434 Off ch=1 n=69 v=0
130434 Off ch=1 n=57 v=0
130560 On ch=1 n=66 v=59
130560 On ch=1 n=54 v=60
130562 Off ch=1 n=67 v=0
130562 Off ch=1 n=55 v=0
130688 On ch=1 n=64 v=56
130688 On ch=1 n=52 v=60
130690 Off ch=1 n=66 v=0
130690 Off ch=1 n=54 v=0
130816 On ch=1 n=62 v=56
130816 On ch=1 n=50 v=57
130818 Off ch=1 n=64 v=0
130818 Off ch=1 n=52 v=0
130944 On ch=1 n=61 v=53
130944 On ch=1 n=49 v=55
130946 Off ch=1 n=62 v=0
130946 Off ch=1 n=50 v=0
131072 On ch=1 n=62 v=63
131072 On ch=1 n=50 v=56
131074 Off ch=1 n=61 v=0
131074 Off ch=1 n=49 v=0
131200 On ch=1 n=64 v=68
131200 On ch=1 n=52 v=61
131202 Off ch=1 n=62 v=0
131202 Off ch=1 n=50 v=0
131328 On ch=1 n=66 v=68
131328 On ch=1 n=54 v=64
131330 Off ch=1 n=64 v=0
131330 Off ch=1 n=52 v=0
131456 On ch=1 n=67 v=75
131456 On ch=1 n=55 v=63
131458 Off ch=1 n=66 v=0
131458 Off ch=1 n=54 v=0
131584 On ch=1 n=69 v=65
131584 On ch=1 n=57 v=62
131586 Off ch=1 n=67 v=0
131586 Off ch=1 n=55 v=0
131712 On ch=1 n=71 v=70
131712 On ch=1 n=59 v=57
131714 Off ch=1 n=69 v=0
131714 Off ch=1 n=57 v=0
131840 On ch=1 n=73 v=67
131840 On ch=1 n=61 v=67
131842 Off ch=1 n=71 v=0
131842 Off ch=1 n=59 v=0
131968 On ch=1 n=74 v=73
131968 On ch=1 n=62 v=67
131970 Off ch=1 n=73 v=0
131970 Off ch=1 n=61 v=0
132089 Off ch=1 n=74 v=0
132096 On ch=1 n=71 v=59
132096 On ch=1 n=59 v=62
132098 Off ch=1 n=62 v=0
132224 On ch=1 n=74 v=62
132224 On ch=1 n=62 v=60
132226 Off ch=1 n=71 v=0
132226 Off ch=1 n=59 v=0
132352 On ch=1 n=78 v=69
132352 On ch=1 n=66 v=68
132354 Off ch=1 n=74 v=0
132354 Off ch=1 n=62 v=0
132480 On ch=1 n=76 v=71
132480 On ch=1 n=64 v=63
132482 Off ch=1 n=78 v=0
132482 Off ch=1 n=66 v=0
132608 On ch=1 n=74 v=54
132608 On ch=1 n=62 v=61
132610 Off ch=1 n=76 v=0
132610 Off ch=1 n=64 v=0
132736 On ch=1 n=73 v=51
132736 On ch=1 n=61 v=60
132738 Off ch=1 n=74 v=0
132738 Off ch=1 n=62 v=0
132864 On ch=1 n=71 v=55
132864 On ch=1 n=59 v=58
132866 Off ch=1 n=73 v=0
132866 Off ch=1 n=61 v=0
132992 On ch=1 n=70 v=51
132992 On ch=1 n=58 v=57
132994 Off ch=1 n=71 v=0
132994 Off ch=1 n=59 v=0
133120 On ch=1 n=71 v=66
133120 On ch=1 n=59 v=63
133122 Off ch=1 n=70 v=0
133122 Off ch=1 n=58 v=0
133248 On ch=1 n=73 v=78
133248 On ch=1 n=61 v=64
133250 Off ch=1 n=71 v=0
133250 Off ch=1 n=59 v=0
133376 On ch=1 n=74 v=60
133376 On ch=1 n=62 v=70
133378 Off ch=1 n=73 v=0
133378 Off ch=1 n=61 v=0
133504 On ch=1 n=76 v=63
133504 On ch=1 n=64 v=74
133506 Off ch=1 n=74 v=0
133506 Off ch=1 n=62 v=0
133632 On ch=1 n=78 v=67
133632 On ch=1 n=66 v=67
133634 Off ch=1 n=76 v=0
133634 Off ch=1 n=64 v=0
133760 On ch=1 n=80 v=74
133760 On ch=1 n=68 v=71
133762 Off ch=1 n=78 v=0
133762 Off ch=1 n=66 v=0
133888 On ch=1 n=82 v=63
133888 On ch=1 n=70 v=66
133890 Off ch=1 n=80 v=0
133890 Off ch=1 n=68 v=0
134016 On ch=1 n=83 v=67
134016 On ch=1 n=71 v=71
134018 Off ch=1 n=82 v=0
134018 Off ch=1 n=70 v=0
134137 Off ch=1 n=83 v=0
134137 Off ch=1 n=71 v=0
134144 On ch=1 n=80 v=59
134144 On ch=1 n=68 v=60
134272 On ch=1 n=83 v=60
134272 On ch=1 n=71 v=62
134274 Off ch=1 n=80 v=0
134274 Off ch=1 n=68 v=0
134400 On ch=1 n=86 v=62
134400 On ch=1 n=74 v=67
134402 Off ch=1 n=83 v=0
134402 Off ch=1 n=71 v=0
134528 On ch=1 n=85 v=59
134528 On ch=1 n=73 v=67
134530 Off ch=1 n=86 v=0
134530 Off ch=1 n=74 v=0
134656 On ch=1 n=83 v=58
134656 On ch=1 n=71 v=56
134658 Off ch=1 n=85 v=0
134658 Off ch=1 n=73 v=0
134784 On ch=1 n=81 v=58
134784 On ch=1 n=69 v=50
134786 Off ch=1 n=83 v=0
134786 Off ch=1 n=71 v=0
134912 On ch=1 n=80 v=61
134912 On ch=1 n=68 v=58
134914 Off ch=1 n=81 v=0
134914 Off ch=1 n=69 v=0
135040 On ch=1 n=78 v=59
135040 On ch=1 n=66 v=57
135042 Off ch=1 n=80 v=0
135042 Off ch=1 n=68 v=0
135168 On ch=1 n=76 v=53
135168 On ch=1 n=64 v=54
135170 Off ch=1 n=78 v=0
135170 Off ch=1 n=66 v=0
135296 On ch=1 n=75 v=51
135296 On ch=1 n=63 v=44
135298 Off ch=1 n=76 v=0
135298 Off ch=1 n=64 v=0
135424 On ch=1 n=74 v=62
135424 On ch=1 n=62 v=56
135426 Off ch=1 n=75 v=0
135426 Off ch=1 n=63 v=0
135552 On ch=1 n=73 v=57
135552 On ch=1 n=61 v=53
135554 Off ch=1 n=74 v=0
135554 Off ch=1 n=62 v=0
135680 On ch=1 n=71 v=58
135680 On ch=1 n=59 v=58
135682 Off ch=1 n=73 v=0
135682 Off ch=1 n=61 v=0
135808 On ch=1 n=69 v=53
135808 On ch=1 n=57 v=56
135810 Off ch=1 n=71 v=0
135810 Off ch=1 n=59 v=0
135936 On ch=1 n=68 v=54
135936 On ch=1 n=56 v=61
135938 Off ch=1 n=69 v=0
135938 Off ch=1 n=57 v=0
136064 On ch=1 n=66 v=49
136064 On ch=1 n=54 v=57
136066 Off ch=1 n=68 v=0
136066 Off ch=1 n=56 v=0
136185 Off ch=1 n=66 v=0
136185 Off ch=1 n=54 v=0
136192 On ch=1 n=64 v=91
136192 On ch=1 n=40 v=74
136281 Off ch=1 n=40 v=0
136320 On ch=1 n=52 v=89
136371 Off ch=1 n=64 v=0
136448 On ch=1 n=56 v=104
136448 On ch=1 n=59 v=104
136448 On ch=1 n=64 v=104
136448 On ch=1 n=51 v=93
136450 Off ch=1 n=52 v=0
136576 On ch=1 n=52 v=88
136578 Off ch=1 n=51 v=0
136697 Off ch=1 n=52 v=0
136704 On ch=1 n=50 v=80
136793 Off ch=1 n=50 v=0
136832 On ch=1 n=52 v=84
136960 Off ch=1 n=56 v=0
136960 Off ch=1 n=59 v=0
136960 Off ch=1 n=64 v=0
136960 On ch=1 n=56 v=99
136960 On ch=1 n=59 v=99
136960 On ch=1 n=64 v=99
136960 On ch=1 n=51 v=83
136962 Off ch=1 n=52 v=0
137088 On ch=1 n=52 v=85
137090 Off ch=1 n=51 v=0
137209 Off ch=1 n=52 v=0
137216 On ch=1 n=47 v=78
137305 Off ch=1 n=47 v=0
137344 On ch=1 n=52 v=87
137472 Off ch=1 n=56 v=0
137472 Off ch=1 n=59 v=0
137472 Off ch=1 n=64 v=0
137472 On ch=1 n=59 v=99
137472 On ch=1 n=62 v=99
137472 On ch=1 n=64 v=99
137472 On ch=1 n=51 v=90
137474 Off ch=1 n=52 v=0
137600 On ch=1 n=52 v=85
137602 Off ch=1 n=51 v=0
137721 Off ch=1 n=52 v=0
137728 On ch=1 n=44 v=72
137817 Off ch=1 n=44 v=0
137856 On ch=1 n=52 v=89
137984 Off ch=1 n=59 v=0
137984 Off ch=1 n=62 v=0
137984 Off ch=1 n=64 v=0
137984 On ch=1 n=59 v=96
137984 On ch=1 n=62 v=96
137984 On ch=1 n=64 v=96
137984 On ch=1 n=51 v=89
137986 Off ch=1 n=52 v=0
138112 On ch=1 n=52 v=83
138114 Off ch=1 n=51 v=0
138163 Off ch=1 n=59 v=0
138163 Off ch=1 n=62 v=0
138163 Off ch=1 n=64 v=0
138233 Off ch=1 n=52 v=0
138240 On ch=1 n=57 v=97
138240 On ch=1 n=61 v=97
138240 On ch=1 n=64 v=97
138240 On ch=1 n=45 v=77
138368 Off ch=1 n=45 v=0
138368 On ch=1 n=52 v=94
138419 Off ch=1 n=57 v=0
138419 Off ch=1 n=61 v=0
138419 Off ch=1 n=64 v=0
138496 On ch=1 n=81 v=126
138496 Off ch=1 n=52 v=0
138496 On ch=1 n=49 v=80
138624 Off ch=1 n=49 v=0
138624 On ch=1 n=52 v=87
138752 Off ch=1 n=52 v=0
138752 On ch=1 n=45 v=74
138880 Off ch=1 n=81 v=0
138880 On ch=1 n=80 v=94
138880 Off ch=1 n=45 v=0
138880 On ch=1 n=52 v=87
138944 On ch=1 n=78 v=85
138945 Off ch=1 n=80 v=0
139008 On ch=1 n=76 v=91
139008 Off ch=1 n=52 v=0
139008 On ch=1 n=49 v=83
139009 Off ch=1 n=78 v=0
139072 On ch=1 n=74 v=85
139073 Off ch=1 n=76 v=0
139136 On ch=1 n=73 v=95
139136 Off ch=1 n=49 v=0
139136 On ch=1 n=52 v=88
139137 Off ch=1 n=74 v=0
139200 On ch=1 n=71 v=90
139201 Off ch=1 n=73 v=0
139260 Off ch=1 n=71 v=0
139264 On ch=1 n=69 v=94
139264 Off ch=1 n=52 v=0
139264 On ch=1 n=42 v=78
139353 Off ch=1 n=69 v=0
139392 On ch=1 n=68 v=93
139392 Off ch=1 n=42 v=0
139392 On ch=1 n=52 v=93
139456 On ch=1 n=66 v=84
139457 Off ch=1 n=68 v=0
139520 On ch=1 n=64 v=93
139520 Off ch=1 n=52 v=0
139520 On ch=1 n=45 v=78
139521 Off ch=1 n=66 v=0
139584 On ch=1 n=63 v=89
139585 Off ch=1 n=64 v=0
139648 On ch=1 n=61 v=94
139648 Off ch=1 n=45 v=0
139648 On ch=1 n=52 v=91
139649 Off ch=1 n=63 v=0
139712 On ch=1 n=59 v=88
139713 Off ch=1 n=61 v=0
139772 Off ch=1 n=59 v=0
139776 On ch=1 n=57 v=91
139776 Off ch=1 n=52 v=0
139776 On ch=1 n=42 v=77
139904 Off ch=1 n=42 v=0
139904 On ch=1 n=52 v=93
139955 Off ch=1 n=57 v=0
140032 On ch=1 n=57 v=95
140032 Off ch=1 n=52 v=0
140032 On ch=1 n=45 v=77
140160 Off ch=1 n=45 v=0
140160 On ch=1 n=52 v=90
140211 Off ch=1 n=57 v=0
140288 On ch=1 n=56 v=96
140288 Off ch=1 n=52 v=0
140288 On ch=1 n=40 v=71
140377 Off ch=1 n=40 v=0
140416 On ch=1 n=52 v=94
140467 Off ch=1 n=56 v=0
140544 On ch=1 n=56 v=116
140544 On ch=1 n=59 v=116
140544 On ch=1 n=64 v=116
140544 On ch=1 n=51 v=97
140546 Off ch=1 n=52 v=0
140672 On ch=1 n=52 v=87
140674 Off ch=1 n=51 v=0
140793 Off ch=1 n=52 v=0
140800 On ch=1 n=50 v=80
140889 Off ch=1 n=50 v=0
140928 On ch=1 n=52 v=89
141056 Off ch=1 n=56 v=0
141056 Off ch=1 n=59 v=0
141056 Off ch=1 n=64 v=0
141056 On ch=1 n=56 v=102
141056 On ch=1 n=59 v=102
141056 On ch=1 n=64 v=102
141056 On ch=1 n=51 v=84
141058 Off ch=1 n=52 v=0
141184 On ch=1 n=52 v=80
141186 Off ch=1 n=51 v=0
141305 Off ch=1 n=52 v=0
141312 On ch=1 n=47 v=80
141401 Off ch=1 n=47 v=0
141440 On ch=1 n=52 v=92
141568 Off ch=1 n=56 v=0
141568 Off ch=1 n=59 v=0
141568 Off ch=1 n=64 v=0
141568 On ch=1 n=59 v=99
141568 On ch=1 n=62 v=99
141568 On ch=1 n=64 v=99
141568 On ch=1 n=51 v=95
141570 Off ch=1 n=52 v=0
141696 On ch=1 n=52 v=86
141698 Off ch=1 n=51 v=0
141817 Off ch=1 n=52 v=0
141824 On ch=1 n=44 v=76
141913 Off ch=1 n=44 v=0
141952 On ch=1 n=52 v=93
142080 Off ch=1 n=59 v=0
142080 Off ch=1 n=62 v=0
142080 Off ch=1 n=64 v=0
142080 On ch=1 n=59 v=97
142080 On ch=1 n=62 v=97
142080 On ch=1 n=64 v=97
142080 On ch=1 n=51 v=94
142082 Off ch=1 n=52 v=0
142208 On ch=1 n=52 v=85
142210 Off ch=1 n=51 v=0
142259 Off ch=1 n=59 v=0
142259 Off ch=1 n=62 v=0
142259 Off ch=1 n=64 v=0
142329 Off ch=1 n=52 v=0
142336 On ch=1 n=57 v=97
142336 On ch=1 n=61 v=97
142336 On ch=1 n=64 v=97
142336 On ch=1 n=45 v=76
142464 Off ch=1 n=45 v=0
142464 On ch=1 n=52 v=92
142515 Off ch=1 n=57 v=0
142515 Off ch=1 n=61 v=0
142515 Off ch=1 n=64 v=0
142592 On ch=1 n=81 v=124
142592 Off ch=1 n=52 v=0
142592 On ch=1 n=49 v=83
142720 Off ch=1 n=49 v=0
142720 On ch=1 n=52 v=88
142848 Off ch=1 n=52 v=0
142848 On ch=1 n=45 v=79
142976 Off ch=1 n=81 v=0
142976 On ch=1 n=80 v=91
142976 Off ch=1 n=45 v=0
142976 On ch=1 n=52 v=93
143040 On ch=1 n=78 v=87
143041 Off ch=1 n=80 v=0
143104 On ch=1 n=76 v=92
143104 Off ch=1 n=52 v=0
143104 On ch=1 n=49 v=75
143105 Off ch=1 n=78 v=0
143168 On ch=1 n=74 v=85
143169 Off ch=1 n=76 v=0
143232 On ch=1 n=73 v=87
143232 Off ch=1 n=49 v=0
143232 On ch=1 n=52 v=91
143233 Off ch=1 n=74 v=0
143296 On ch=1 n=71 v=83
143297 Off ch=1 n=73 v=0
143356 Off ch=1 n=71 v=0
143360 On ch=1 n=69 v=88
143360 Off ch=1 n=52 v=0
143360 On ch=1 n=42 v=73
143449 Off ch=1 n=69 v=0
143488 On ch=1 n=68 v=96
143488 Off ch=1 n=42 v=0
143488 On ch=1 n=52 v=90
143552 On ch=1 n=66 v=88
143553 Off ch=1 n=68 v=0
143616 On ch=1 n=64 v=91
143616 Off ch=1 n=52 v=0
143616 On ch=1 n=45 v=80
143617 Off ch=1 n=66 v=0
143680 On ch=1 n=63 v=89
143681 Off ch=1 n=64 v=0
143744 On ch=1 n=61 v=91
143744 Off ch=1 n=45 v=0
143744 On ch=1 n=52 v=89
143745 Off ch=1 n=63 v=0
143808 On ch=1 n=59 v=92
143809 Off ch=1 n=61 v=0
143868 Off ch=1 n=59 v=0
143872 On ch=1 n=57 v=98
143872 Off ch=1 n=52 v=0
143872 On ch=1 n=42 v=79
144000 Off ch=1 n=42 v=0
144000 On ch=1 n=52 v=92
144051 Off ch=1 n=57 v=0
144128 On ch=1 n=57 v=99
144128 Off ch=1 n=52 v=0
144128 On ch=1 n=45 v=78
144256 Off ch=1 n=45 v=0
144256 On ch=1 n=52 v=86
144307 Off ch=1 n=57 v=0
144384 On ch=1 n=56 v=98
144384 Off ch=1 n=52 v=0
144384 On ch=1 n=40 v=74
144563 Off ch=1 n=56 v=0
144563 Off ch=1 n=40 v=0
144960 On ch=1 n=52 v=101
144960 On ch=1 n=40 v=87
145024 On ch=1 n=54 v=104
145024 On ch=1 n=42 v=88
145025 Off ch=1 n=52 v=0
145025 Off ch=1 n=40 v=0
145088 On ch=1 n=56 v=113
145088 On ch=1 n=44 v=100
145089 Off ch=1 n=54 v=0
145089 Off ch=1 n=42 v=0
145152 On ch=1 n=57 v=116
145152 On ch=1 n=45 v=103
145153 Off ch=1 n=56 v=0
145153 Off ch=1 n=44 v=0
145216 On ch=1 n=59 v=114
145216 On ch=1 n=47 v=101
145217 Off ch=1 n=57 v=0
145217 Off ch=1 n=45 v=0
145280 On ch=1 n=61 v=122
145280 On ch=1 n=49 v=103
145281 Off ch=1 n=59 v=0
145281 Off ch=1 n=47 v=0
145344 On ch=1 n=63 v=118
145344 On ch=1 n=51 v=101
145345 Off ch=1 n=61 v=0
145345 Off ch=1 n=49 v=0
145404 Off ch=1 n=63 v=0
145404 Off ch=1 n=51 v=0
145408 On ch=1 n=64 v=115
145408 On ch=1 n=52 v=98
145497 Off ch=1 n=64 v=0
145497 Off ch=1 n=52 v=0
145536 On ch=1 n=66 v=124
145536 On ch=1 n=54 v=101
145600 On ch=1 n=68 v=127
145600 On ch=1 n=56 v=106
145601 Off ch=1 n=66 v=0
145601 Off ch=1 n=54 v=0
145664 On ch=1 n=69 v=120
145664 On ch=1 n=57 v=103
145665 Off ch=1 n=68 v=0
145665 Off ch=1 n=56 v=0
145728 On ch=1 n=71 v=127
145728 On ch=1 n=59 v=101
145729 Off ch=1 n=69 v=0
145729 Off ch=1 n=57 v=0
145792 On ch=1 n=73 v=118
145792 On ch=1 n=61 v=101
145793 Off ch=1 n=71 v=0
145793 Off ch=1 n=59 v=0
145856 On ch=1 n=75 v=125
145856 On ch=1 n=63 v=106
145857 Off ch=1 n=73 v=0
145857 Off ch=1 n=61 v=0
145916 Off ch=1 n=75 v=0
145916 Off ch=1 n=63 v=0
145920 On ch=1 n=76 v=118
145920 On ch=1 n=64 v=103
146009 Off ch=1 n=64 v=0
146048 Off ch=1 n=76 v=0
146048 On ch=1 n=78 v=124
146048 On ch=1 n=66 v=106
146112 On ch=1 n=80 v=127
146112 On ch=1 n=68 v=110
146113 Off ch=1 n=78 v=0
146113 Off ch=1 n=66 v=0
146176 On ch=1 n=81 v=118
146176 On ch=1 n=69 v=103
146177 Off ch=1 n=80 v=0
146177 Off ch=1 n=68 v=0
146240 On ch=1 n=83 v=127
146240 On ch=1 n=71 v=110
146241 Off ch=1 n=81 v=0
146241 Off ch=1 n=69 v=0
146304 On ch=1 n=85 v=122
146304 On ch=1 n=73 v=109
146305 Off ch=1 n=83 v=0
146305 Off ch=1 n=71 v=0
146368 On ch=1 n=87 v=127
146368 On ch=1 n=75 v=115
146369 Off ch=1 n=85 v=0
146369 Off ch=1 n=73 v=0
146428 Off ch=1 n=87 v=0
146428 Off ch=1 n=75 v=0
146432 On ch=1 n=88 v=127
146432 On ch=1 n=76 v=119
146611 Off ch=1 n=76 v=0
146816 Off ch=1 n=88 v=0
146816 On ch=1 n=85 v=105
146944 On ch=1 n=88 v=109
146946 Off ch=1 n=85 v=0
147072 On ch=1 n=86 v=107
147074 Off ch=1 n=88 v=0
147200 On ch=1 n=85 v=100
147202 Off ch=1 n=86 v=0
147328 On ch=1 n=83 v=106
147330 Off ch=1 n=85 v=0
147449 Off ch=1 n=83 v=0
147456 On ch=1 n=86 v=119
147584 On ch=1 n=85 v=113
147586 Off ch=1 n=86 v=0
147712 On ch=1 n=83 v=108
147714 Off ch=1 n=85 v=0
147840 On ch=1 n=81 v=101
147842 Off ch=1 n=83 v=0
147961 Off ch=1 n=81 v=0
147968 On ch=1 n=85 v=127
148096 On ch=1 n=83 v=119
148098 Off ch=1 n=85 v=0
148224 On ch=1 n=81 v=101
148226 Off ch=1 n=83 v=0
148352 On ch=1 n=80 v=97
148354 Off ch=1 n=81 v=0
148473 Off ch=1 n=80 v=0
148480 On ch=1 n=83 v=124
148608 On ch=1 n=81 v=118
148610 Off ch=1 n=83 v=0
148736 On ch=1 n=80 v=104
148736 On ch=1 n=73 v=60
148738 Off ch=1 n=81 v=0
148864 On ch=1 n=78 v=95
148866 Off ch=1 n=80 v=0
148992 On ch=1 n=77 v=109
148992 On ch=1 n=74 v=60
148994 Off ch=1 n=78 v=0
148997 Off ch=1 n=73 v=0
149120 On ch=1 n=78 v=114
149122 Off ch=1 n=77 v=0
149248 On ch=1 n=80 v=120
149248 On ch=1 n=70 v=64
149250 Off ch=1 n=78 v=0
149253 Off ch=1 n=74 v=0
149376 On ch=1 n=78 v=113
149378 Off ch=1 n=80 v=0
149497 Off ch=1 n=78 v=0
149504 On ch=1 n=76 v=104
149504 On ch=1 n=71 v=69
149509 Off ch=1 n=70 v=0
149747 Off ch=1 n=71 v=0
150016 On ch=1 n=74 v=93
150026 Off ch=1 n=76 v=0
150259 Off ch=1 n=74 v=0
150528 On ch=1 n=54 v=55
150528 On ch=1 n=59 v=55
150528 On ch=1 n=62 v=55
150528 On ch=1 n=66 v=55
150528 On ch=1 n=38 v=56
150528 On ch=1 n=42 v=56
150528 On ch=1 n=47 v=56
150528 On ch=1 n=50 v=56
151040 Off ch=1 n=54 v=0
151040 Off ch=1 n=59 v=0
151040 Off ch=1 n=62 v=0
151040 Off ch=1 n=66 v=0
151040 Off ch=1 n=38 v=0
151040 Off ch=1 n=42 v=0
151040 Off ch=1 n=47 v=0
151040 Off ch=1 n=50 v=0
152832 On ch=1 n=52 v=47
152832 On ch=1 n=56 v=47
152832 On ch=1 n=62 v=47
152832 On ch=1 n=40 v=44
153011 Off ch=1 n=52 v=0
153011 Off ch=1 n=56 v=0
153011 Off ch=1 n=62 v=0
153011 Off ch=1 n=40 v=0
153088 On ch=1 n=52 v=47
153088 On ch=1 n=56 v=47
153088 On ch=1 n=62 v=47
153088 On ch=1 n=40 v=51
153267 Off ch=1 n=52 v=0
153267 Off ch=1 n=56 v=0
153267 Off ch=1 n=62 v=0
153267 Off ch=1 n=40 v=0
153344 On ch=1 n=52 v=51
153344 On ch=1 n=56 v=51
153344 On ch=1 n=62 v=51
153344 On ch=1 n=40 v=53
153514 Off ch=1 n=52 v=0
153514 Off ch=1 n=56 v=0
153514 Off ch=1 n=62 v=0
153514 Off ch=1 n=40 v=0
153600 On ch=1 n=52 v=49
153600 On ch=1 n=56 v=49
153600 On ch=1 n=62 v=49
153600 On ch=1 n=33 v=52
153600 On ch=1 n=45 v=52
154112 On ch=1 n=57 v=44
154112 On ch=1 n=61 v=44
154132 Off ch=1 n=56 v=0
154132 Off ch=1 n=62 v=0
154342 Off ch=1 n=57 v=0
154342 Off ch=1 n=61 v=0
154368 On ch=1 n=76 v=77
154368 Off ch=1 n=33 v=0
154368 Off ch=1 n=45 v=0
154398 Off ch=1 n=52 v=0
154453 On ch=1 n=81 v=89
154454 Off ch=1 n=76 v=0
154538 On ch=1 n=85 v=70
154539 Off ch=1 n=81 v=0
154619 Off ch=1 n=85 v=0
154624 On ch=1 n=88 v=77
155008 Off ch=1 n=88 v=0
155008 On ch=1 n=85 v=66
155136 Off ch=1 n=85 v=0
155136 On ch=1 n=88 v=73
155221 Off ch=1 n=88 v=0
155221 On ch=1 n=86 v=68
155306 Off ch=1 n=86 v=0
155306 On ch=1 n=85 v=69
155392 Off ch=1 n=85 v=0
155392 On ch=1 n=83 v=69
155477 Off ch=1 n=83 v=0
155477 On ch=1 n=82 v=70
155562 Off ch=1 n=82 v=0
155562 On ch=1 n=83 v=78
155648 Off ch=1 n=83 v=0
155648 On ch=1 n=86 v=74
155733 Off ch=1 n=86 v=0
155733 On ch=1 n=85 v=69
155818 Off ch=1 n=85 v=0
155818 On ch=1 n=83 v=69
155904 Off ch=1 n=83 v=0
155904 On ch=1 n=81 v=73
155989 Off ch=1 n=81 v=0
155989 On ch=1 n=80 v=68
156074 Off ch=1 n=80 v=0
156074 On ch=1 n=81 v=73
156160 Off ch=1 n=81 v=0
156160 On ch=1 n=85 v=81
156245 Off ch=1 n=85 v=0
156245 On ch=1 n=83 v=68
156330 Off ch=1 n=83 v=0
156330 On ch=1 n=81 v=64
156416 Off ch=1 n=81 v=0
156416 On ch=1 n=80 v=68
156501 Off ch=1 n=80 v=0
156501 On ch=1 n=79 v=71
156586 Off ch=1 n=79 v=0
156586 On ch=1 n=80 v=75
156672 Off ch=1 n=80 v=0
156672 On ch=1 n=83 v=77
156736 Off ch=1 n=83 v=0
156736 On ch=1 n=81 v=66
156800 Off ch=1 n=81 v=0
156800 On ch=1 n=80 v=64
156864 Off ch=1 n=80 v=0
156864 On ch=1 n=78 v=70
156928 Off ch=1 n=78 v=0
156928 On ch=1 n=78 v=68
157013 On ch=1 n=80 v=75
157014 Off ch=1 n=78 v=0
157098 On ch=1 n=78 v=64
157099 Off ch=1 n=80 v=0
157184 Off ch=1 n=78 v=0
157184 On ch=1 n=78 v=73
157269 On ch=1 n=80 v=78
157270 Off ch=1 n=78 v=0
157354 On ch=1 n=78 v=66
157355 Off ch=1 n=80 v=0
157440 Off ch=1 n=78 v=0
157440 On ch=1 n=78 v=72
157525 On ch=1 n=80 v=77
157526 Off ch=1 n=78 v=0
157610 On ch=1 n=78 v=70
157611 Off ch=1 n=80 v=0
157691 Off ch=1 n=78 v=0
157696 On ch=1 n=76 v=67
158208 On ch=1 n=74 v=63
158218 Off ch=1 n=76 v=0
158451 Off ch=1 n=74 v=0
158976 On ch=1 n=71 v=75
158976 On ch=1 n=59 v=72
159232 On ch=1 n=68 v=68
159232 On ch=1 n=56 v=67
159237 Off ch=1 n=71 v=0
159237 Off ch=1 n=59 v=0
159402 Off ch=1 n=68 v=0
159402 Off ch=1 n=56 v=0
159488 On ch=1 n=69 v=83
159488 On ch=1 n=57 v=83
159744 On ch=1 n=66 v=77
159744 On ch=1 n=54 v=82
159749 Off ch=1 n=69 v=0
159749 Off ch=1 n=57 v=0
159914 Off ch=1 n=66 v=0
159914 Off ch=1 n=54 v=0
160000 On ch=1 n=68 v=89
160000 On ch=1 n=56 v=88
160256 On ch=1 n=65 v=84
160256 On ch=1 n=53 v=84
160261 Off ch=1 n=68 v=0
160261 Off ch=1 n=56 v=0
160426 Off ch=1 n=65 v=0
160426 Off ch=1 n=53 v=0
160512 On ch=1 n=66 v=84
160512 On ch=1 n=54 v=85
160768 On ch=1 n=62 v=76
160768 On ch=1 n=50 v=79
160773 Off ch=1 n=66 v=0
160773 Off ch=1 n=54 v=0
160938 Off ch=1 n=62 v=0
160938 Off ch=1 n=50 v=0
161280 On ch=1 n=64 v=67
161280 On ch=1 n=52 v=64
161459 Off ch=1 n=64 v=0
161459 Off ch=1 n=52 v=0
161792 On ch=1 n=69 v=53
161792 On ch=1 n=57 v=49
161877 On ch=1 n=73 v=59
161877 On ch=1 n=61 v=55
161878 Off ch=1 n=69 v=0
161878 Off ch=1 n=57 v=0
161962 On ch=1 n=76 v=65
161962 On ch=1 n=64 v=56
161963 Off ch=1 n=73 v=0
161963 Off ch=1 n=61 v=0
162048 On ch=1 n=68 v=39
162048 On ch=1 n=56 v=51
162049 Off ch=1 n=76 v=0
162049 Off ch=1 n=64 v=0
162133 On ch=1 n=73 v=43
162133 On ch=1 n=61 v=56
162134 Off ch=1 n=68 v=0
162134 Off ch=1 n=56 v=0
162218 On ch=1 n=76 v=56
162218 On ch=1 n=64 v=63
162219 Off ch=1 n=73 v=0
162219 Off ch=1 n=61 v=0
162304 On ch=1 n=69 v=45
162304 On ch=1 n=57 v=43
162305 Off ch=1 n=76 v=0
162305 Off ch=1 n=64 v=0
162389 On ch=1 n=73 v=52
162389 On ch=1 n=61 v=46
162390 Off ch=1 n=69 v=0
162390 Off ch=1 n=57 v=0
162474 On ch=1 n=76 v=56
162474 On ch=1 n=64 v=59
162475 Off ch=1 n=73 v=0
162475 Off ch=1 n=61 v=0
162560 On ch=1 n=64 v=41
162560 On ch=1 n=52 v=52
162561 Off ch=1 n=76 v=0
162561 Off ch=1 n=64 v=0
162645 On ch=1 n=73 v=48
162645 On ch=1 n=61 v=62
162646 Off ch=1 n=64 v=0
162646 Off ch=1 n=52 v=0
162730 On ch=1 n=76 v=56
162730 On ch=1 n=64 v=66
162731 Off ch=1 n=73 v=0
162731 Off ch=1 n=61 v=0
162816 On ch=1 n=67 v=43
162816 On ch=1 n=55 v=44
162817 Off ch=1 n=76 v=0
162817 Off ch=1 n=64 v=0
162901 On ch=1 n=73 v=57
162901 On ch=1 n=61 v=54
162902 Off ch=1 n=67 v=0
162902 Off ch=1 n=55 v=0
162986 On ch=1 n=76 v=66
162986 On ch=1 n=64 v=54
162987 Off ch=1 n=73 v=0
162987 Off ch=1 n=61 v=0
163072 On ch=1 n=66 v=39
163072 On ch=1 n=54 v=48
163073 Off ch=1 n=76 v=0
163073 Off ch=1 n=64 v=0
163157 On ch=1 n=73 v=44
163157 On ch=1 n=61 v=65
163158 Off ch=1 n=66 v=0
163158 Off ch=1 n=54 v=0
163242 On ch=1 n=76 v=54
163242 On ch=1 n=64 v=73
163243 Off ch=1 n=73 v=0
163243 Off ch=1 n=61 v=0
163328 On ch=1 n=67 v=43
163328 On ch=1 n=55 v=47
163329 Off ch=1 n=76 v=0
163329 Off ch=1 n=64 v=0
163413 On ch=1 n=73 v=56
163413 On ch=1 n=61 v=59
163414 Off ch=1 n=67 v=0
163414 Off ch=1 n=55 v=0
163498 On ch=1 n=76 v=59
163498 On ch=1 n=64 v=61
163499 Off ch=1 n=73 v=0
163499 Off ch=1 n=61 v=0
163584 On ch=1 n=64 v=40
163584 On ch=1 n=52 v=56
163585 Off ch=1 n=76 v=0
163585 Off ch=1 n=64 v=0
163669 On ch=1 n=73 v=45
163669 On ch=1 n=61 v=65
163670 Off ch=1 n=64 v=0
163670 Off ch=1 n=52 v=0
163754 On ch=1 n=76 v=52
163754 On ch=1 n=64 v=73
163755 Off ch=1 n=73 v=0
163755 Off ch=1 n=61 v=0
163835 Off ch=1 n=76 v=0
163835 Off ch=1 n=64 v=0
163840 On ch=1 n=66 v=38
163840 On ch=1 n=54 v=44
163925 On ch=1 n=69 v=38
163925 On ch=1 n=57 v=47
163926 Off ch=1 n=66 v=0
163926 Off ch=1 n=54 v=0
164010 On ch=1 n=74 v=54
164010 On ch=1 n=62 v=56
164011 Off ch=1 n=69 v=0
164011 Off ch=1 n=57 v=0
164096 On ch=1 n=65 v=45
164096 On ch=1 n=53 v=53
164097 Off ch=1 n=74 v=0
164097 Off ch=1 n=62 v=0
164181 On ch=1 n=69 v=59
164181 On ch=1 n=57 v=49
164182 Off ch=1 n=65 v=0
164182 Off ch=1 n=53 v=0
164266 On ch=1 n=74 v=63
164266 On ch=1 n=62 v=54
164267 Off ch=1 n=69 v=0
164267 Off ch=1 n=57 v=0
164352 On ch=1 n=66 v=38
164352 On ch=1 n=54 v=48
164353 Off ch=1 n=74 v=0
164353 Off ch=1 n=62 v=0
164437 On ch=1 n=69 v=43
164437 On ch=1 n=57 v=49
164438 Off ch=1 n=66 v=0
164438 Off ch=1 n=54 v=0
164522 On ch=1 n=74 v=56
164522 On ch=1 n=62 v=58
164523 Off ch=1 n=69 v=0
164523 Off ch=1 n=57 v=0
164608 On ch=1 n=62 v=51
164608 On ch=1 n=50 v=53
164609 Off ch=1 n=74 v=0
164609 Off ch=1 n=62 v=0
164693 On ch=1 n=69 v=63
164693 On ch=1 n=57 v=55
164694 Off ch=1 n=62 v=0
164694 Off ch=1 n=50 v=0
164778 On ch=1 n=74 v=68
164778 On ch=1 n=62 v=66
164779 Off ch=1 n=69 v=0
164779 Off ch=1 n=57 v=0
164864 On ch=1 n=64 v=40
164864 On ch=1 n=52 v=44
164865 Off ch=1 n=74 v=0
164865 Off ch=1 n=62 v=0
164949 On ch=1 n=67 v=45
164949 On ch=1 n=55 v=48
164950 Off ch=1 n=64 v=0
164950 Off ch=1 n=52 v=0
165034 On ch=1 n=69 v=55
165034 On ch=1 n=57 v=51
165035 Off ch=1 n=67 v=0
165035 Off ch=1 n=55 v=0
165120 On ch=1 n=63 v=44
165120 On ch=1 n=51 v=51
165121 Off ch=1 n=69 v=0
165121 Off ch=1 n=57 v=0
165205 On ch=1 n=67 v=57
165205 On ch=1 n=55 v=51
165206 Off ch=1 n=63 v=0
165206 Off ch=1 n=51 v=0
165290 On ch=1 n=69 v=62
165290 On ch=1 n=57 v=53
165291 Off ch=1 n=67 v=0
165291 Off ch=1 n=55 v=0
165376 On ch=1 n=64 v=47
165376 On ch=1 n=52 v=53
165377 Off ch=1 n=69 v=0
165377 Off ch=1 n=57 v=0
165461 On ch=1 n=67 v=47
165461 On ch=1 n=55 v=54
165462 Off ch=1 n=64 v=0
165462 Off ch=1 n=52 v=0
165546 On ch=1 n=69 v=54
165546 On ch=1 n=57 v=55
165547 Off ch=1 n=67 v=0
165547 Off ch=1 n=55 v=0
165632 On ch=1 n=61 v=46
165632 On ch=1 n=49 v=48
165633 Off ch=1 n=69 v=0
165633 Off ch=1 n=57 v=0
165717 On ch=1 n=67 v=57
165717 On ch=1 n=55 v=50
165718 Off ch=1 n=61 v=0
165718 Off ch=1 n=49 v=0
165802 On ch=1 n=69 v=58
165802 On ch=1 n=57 v=54
165803 Off ch=1 n=67 v=0
165803 Off ch=1 n=55 v=0
165883 Off ch=1 n=69 v=0
165883 Off ch=1 n=57 v=0
165888 On ch=1 n=62 v=44
165888 On ch=1 n=50 v=46
165973 On ch=1 n=66 v=55
165973 On ch=1 n=54 v=51
165974 Off ch=1 n=62 v=0
165974 Off ch=1 n=50 v=0
166058 On ch=1 n=69 v=59
166058 On ch=1 n=57 v=54
166059 Off ch=1 n=66 v=0
166059 Off ch=1 n=54 v=0
166144 On ch=1 n=61 v=47
166144 On ch=1 n=49 v=50
166145 Off ch=1 n=69 v=0
166145 Off ch=1 n=57 v=0
166229 On ch=1 n=66 v=55
166229 On ch=1 n=54 v=55
166230 Off ch=1 n=61 v=0
166230 Off ch=1 n=49 v=0
166314 On ch=1 n=69 v=65
166314 On ch=1 n=57 v=60
166315 Off ch=1 n=66 v=0
166315 Off ch=1 n=54 v=0
166400 On ch=1 n=62 v=43
166400 On ch=1 n=50 v=46
166401 Off ch=1 n=69 v=0
166401 Off ch=1 n=57 v=0
166485 On ch=1 n=66 v=43
166485 On ch=1 n=54 v=52
166486 Off ch=1 n=62 v=0
166486 Off ch=1 n=50 v=0
166570 On ch=1 n=69 v=53
166570 On ch=1 n=57 v=55
166571 Off ch=1 n=66 v=0
166571 Off ch=1 n=54 v=0
166656 On ch=1 n=57 v=50
166656 On ch=1 n=45 v=53
166657 Off ch=1 n=69 v=0
166657 Off ch=1 n=57 v=0
166741 On ch=1 n=66 v=60
166741 On ch=1 n=54 v=57
166742 Off ch=1 n=57 v=0
166742 Off ch=1 n=45 v=0
166826 On ch=1 n=69 v=64
166826 On ch=1 n=57 v=59
166827 Off ch=1 n=66 v=0
166827 Off ch=1 n=54 v=0
166912 On ch=1 n=61 v=45
166912 On ch=1 n=49 v=50
166913 Off ch=1 n=69 v=0
166913 Off ch=1 n=57 v=0
166997 On ch=1 n=64 v=47
166997 On ch=1 n=52 v=50
166998 Off ch=1 n=61 v=0
166998 Off ch=1 n=49 v=0
167082 On ch=1 n=69 v=59
167082 On ch=1 n=57 v=53
167083 Off ch=1 n=64 v=0
167083 Off ch=1 n=52 v=0
167168 On ch=1 n=60 v=49
167168 On ch=1 n=48 v=50
167169 Off ch=1 n=69 v=0
167169 Off ch=1 n=57 v=0
167253 On ch=1 n=64 v=54
167253 On ch=1 n=52 v=54
167254 Off ch=1 n=60 v=0
167254 Off ch=1 n=48 v=0
167338 On ch=1 n=69 v=55
167338 On ch=1 n=57 v=61
167339 Off ch=1 n=64 v=0
167339 Off ch=1 n=52 v=0
167424 On ch=1 n=61 v=42
167424 On ch=1 n=49 v=46
167425 Off ch=1 n=69 v=0
167425 Off ch=1 n=57 v=0
167509 On ch=1 n=64 v=46
167509 On ch=1 n=52 v=48
167510 Off ch=1 n=61 v=0
167510 Off ch=1 n=49 v=0
167594 On ch=1 n=69 v=57
167594 On ch=1 n=57 v=53
167595 Off ch=1 n=64 v=0
167595 Off ch=1 n=52 v=0
167680 On ch=1 n=57 v=49
167680 On ch=1 n=45 v=49
167681 Off ch=1 n=69 v=0
167681 Off ch=1 n=57 v=0
167765 On ch=1 n=64 v=58
167765 On ch=1 n=52 v=53
167766 Off ch=1 n=57 v=0
167766 Off ch=1 n=45 v=0
167850 On ch=1 n=69 v=67
167850 On ch=1 n=57 v=60
167851 Off ch=1 n=64 v=0
167851 Off ch=1 n=52 v=0
167936 On ch=1 n=59 v=48
167936 On ch=1 n=47 v=44
167937 Off ch=1 n=69 v=0
167937 Off ch=1 n=57 v=0
168021 On ch=1 n=62 v=55
168021 On ch=1 n=50 v=42
168022 Off ch=1 n=59 v=0
168022 Off ch=1 n=47 v=0
168106 On ch=1 n=64 v=51
168106 On ch=1 n=52 v=48
168107 Off ch=1 n=62 v=0
168107 Off ch=1 n=50 v=0
168192 On ch=1 n=58 v=44
168192 On ch=1 n=46 v=49
168193 Off ch=1 n=64 v=0
168193 Off ch=1 n=52 v=0
168277 On ch=1 n=62 v=51
168277 On ch=1 n=50 v=55
168278 Off ch=1 n=58 v=0
168278 Off ch=1 n=46 v=0
168362 On ch=1 n=64 v=51
168362 On ch=1 n=52 v=60
168363 Off ch=1 n=62 v=0
168363 Off ch=1 n=50 v=0
168448 On ch=1 n=59 v=49
168448 On ch=1 n=47 v=48
168449 Off ch=1 n=64 v=0
168449 Off ch=1 n=52 v=0
168533 On ch=1 n=62 v=51
168533 On ch=1 n=50 v=45
168534 Off ch=1 n=59 v=0
168534 Off ch=1 n=47 v=0
168618 On ch=1 n=64 v=56
168618 On ch=1 n=52 v=53
168619 Off ch=1 n=62 v=0
168619 Off ch=1 n=50 v=0
168704 On ch=1 n=56 v=53
168704 On ch=1 n=44 v=50
168705 Off ch=1 n=64 v=0
168705 Off ch=1 n=52 v=0
168789 On ch=1 n=62 v=56
168789 On ch=1 n=50 v=55
168790 Off ch=1 n=56 v=0
168790 Off ch=1 n=44 v=0
168874 On ch=1 n=64 v=64
168874 On ch=1 n=52 v=59
168875 Off ch=1 n=62 v=0
168875 Off ch=1 n=50 v=0
168924 Off ch=1 n=64 v=0
168924 On ch=1 n=64 v=64
168955 Off ch=1 n=52 v=0
168960 On ch=1 n=76 v=64
168960 Off ch=1 n=64 v=0
168960 On ch=1 n=45 v=48
169045 On ch=1 n=49 v=54
169046 Off ch=1 n=45 v=0
169130 On ch=1 n=52 v=52
169131 Off ch=1 n=49 v=0
169216 On ch=1 n=44 v=45
169217 Off ch=1 n=52 v=0
169301 On ch=1 n=49 v=51
169302 Off ch=1 n=44 v=0
169386 On ch=1 n=52 v=59
169387 Off ch=1 n=49 v=0
169472 On ch=1 n=45 v=48
169473 Off ch=1 n=52 v=0
169557 On ch=1 n=49 v=53
169558 Off ch=1 n=45 v=0
169642 On ch=1 n=52 v=52
169643 Off ch=1 n=49 v=0
169689 Off ch=1 n=76 v=0
169728 On ch=1 n=74 v=49
169728 On ch=1 n=40 v=48
169729 Off ch=1 n=52 v=0
169792 On ch=1 n=73 v=46
169793 Off ch=1 n=74 v=0
169813 On ch=1 n=49 v=53
169814 Off ch=1 n=40 v=0
169856 On ch=1 n=71 v=48
169857 Off ch=1 n=73 v=0
169898 On ch=1 n=52 v=54
169899 Off ch=1 n=49 v=0
169920 On ch=1 n=69 v=49
169921 Off ch=1 n=71 v=0
169984 On ch=1 n=64 v=52
169984 On ch=1 n=47 v=61
169985 Off ch=1 n=69 v=0
169985 Off ch=1 n=52 v=0
170069 On ch=1 n=50 v=64
170070 Off ch=1 n=47 v=0
170154 Off ch=1 n=64 v=0
170154 On ch=1 n=52 v=65
170155 Off ch=1 n=50 v=0
170240 On ch=1 n=46 v=59
170241 Off ch=1 n=52 v=0
170325 On ch=1 n=50 v=65
170326 Off ch=1 n=46 v=0
170410 On ch=1 n=52 v=66
170411 Off ch=1 n=50 v=0
170496 On ch=1 n=47 v=63
170497 Off ch=1 n=52 v=0
170581 On ch=1 n=50 v=65
170582 Off ch=1 n=47 v=0
170666 On ch=1 n=52 v=67
170667 Off ch=1 n=50 v=0
170752 On ch=1 n=44 v=59
170753 Off ch=1 n=52 v=0
170837 On ch=1 n=50 v=68
170838 Off ch=1 n=44 v=0
170922 On ch=1 n=52 v=78
170923 Off ch=1 n=50 v=0
170944 On ch=1 n=76 v=52
171008 Off ch=1 n=76 v=0
171008 On ch=1 n=88 v=74
171008 On ch=1 n=45 v=57
171009 Off ch=1 n=52 v=0
171093 On ch=1 n=48 v=63
171094 Off ch=1 n=45 v=0
171178 On ch=1 n=52 v=67
171179 Off ch=1 n=48 v=0
171264 On ch=1 n=44 v=57
171265 Off ch=1 n=52 v=0
171349 On ch=1 n=48 v=65
171350 Off ch=1 n=44 v=0
171434 On ch=1 n=52 v=68
171435 Off ch=1 n=48 v=0
171520 On ch=1 n=45 v=56
171521 Off ch=1 n=52 v=0
171605 On ch=1 n=48 v=56
171606 Off ch=1 n=45 v=0
171690 On ch=1 n=52 v=68
171691 Off ch=1 n=48 v=0
171776 Off ch=1 n=88 v=0
171776 On ch=1 n=86 v=70
171776 On ch=1 n=40 v=60
171777 Off ch=1 n=52 v=0
171840 On ch=1 n=84 v=68
171841 Off ch=1 n=86 v=0
171861 On ch=1 n=48 v=67
171862 Off ch=1 n=40 v=0
171904 On ch=1 n=83 v=70
171905 Off ch=1 n=84 v=0
171946 On ch=1 n=52 v=76
171947 Off ch=1 n=48 v=0
171968 On ch=1 n=81 v=66
171969 Off ch=1 n=83 v=0
172032 On ch=1 n=82 v=63
172032 On ch=1 n=43 v=56
172033 Off ch=1 n=81 v=0
172033 Off ch=1 n=52 v=0
172117 On ch=1 n=46 v=56
172118 Off ch=1 n=43 v=0
172202 Off ch=1 n=82 v=0
172202 On ch=1 n=48 v=63
172203 Off ch=1 n=46 v=0
172288 On ch=1 n=42 v=56
172289 Off ch=1 n=48 v=0
172373 On ch=1 n=46 v=66
172374 Off ch=1 n=42 v=0
172458 On ch=1 n=48 v=69
172459 Off ch=1 n=46 v=0
172544 On ch=1 n=43 v=58
172545 Off ch=1 n=48 v=0
172629 On ch=1 n=46 v=57
172630 Off ch=1 n=43 v=0
172714 On ch=1 n=48 v=64
172715 Off ch=1 n=46 v=0
172800 On ch=1 n=40 v=64
172801 Off ch=1 n=48 v=0
172885 On ch=1 n=46 v=64
172886 Off ch=1 n=40 v=0
172970 On ch=1 n=48 v=61
172971 Off ch=1 n=46 v=0
172992 On ch=1 n=72 v=55
173056 Off ch=1 n=72 v=0
173056 On ch=1 n=84 v=76
173056 On ch=1 n=41 v=50
173057 Off ch=1 n=48 v=0
173141 On ch=1 n=45 v=53
173142 Off ch=1 n=41 v=0
173226 On ch=1 n=48 v=65
173227 Off ch=1 n=45 v=0
173312 On ch=1 n=40 v=58
173313 Off ch=1 n=48 v=0
173397 On ch=1 n=45 v=66
173398 Off ch=1 n=40 v=0
173482 On ch=1 n=48 v=69
173483 Off ch=1 n=45 v=0
173568 On ch=1 n=41 v=70
173569 Off ch=1 n=48 v=0
173653 On ch=1 n=45 v=79
173654 Off ch=1 n=41 v=0
173738 On ch=1 n=48 v=73
173739 Off ch=1 n=45 v=0
173824 Off ch=1 n=84 v=0
173824 On ch=1 n=82 v=69
173824 On ch=1 n=36 v=61
173825 Off ch=1 n=48 v=0
173888 On ch=1 n=81 v=71
173889 Off ch=1 n=82 v=0
173909 On ch=1 n=45 v=79
173910 Off ch=1 n=36 v=0
173952 On ch=1 n=79 v=66
173953 Off ch=1 n=81 v=0
173994 On ch=1 n=48 v=87
173995 Off ch=1 n=45 v=0
174016 On ch=1 n=77 v=64
174017 Off ch=1 n=79 v=0
174080 On ch=1 n=72 v=82
174080 On ch=1 n=43 v=77
174081 Off ch=1 n=77 v=0
174081 Off ch=1 n=48 v=0
174165 On ch=1 n=46 v=80
174166 Off ch=1 n=43 v=0
174201 Off ch=1 n=72 v=0
174208 On ch=1 n=84 v=120
174250 On ch=1 n=48 v=89
174251 Off ch=1 n=46 v=0
174336 Off ch=1 n=84 v=0
174336 On ch=1 n=84 v=96
174336 On ch=1 n=42 v=82
174337 Off ch=1 n=48 v=0
174421 On ch=1 n=46 v=86
174422 Off ch=1 n=42 v=0
174464 Off ch=1 n=84 v=0
174464 On ch=1 n=84 v=100
174506 On ch=1 n=48 v=92
174507 Off ch=1 n=46 v=0
174592 Off ch=1 n=84 v=0
174592 On ch=1 n=84 v=99
174592 On ch=1 n=43 v=78
174593 Off ch=1 n=48 v=0
174677 On ch=1 n=46 v=81
174678 Off ch=1 n=43 v=0
174720 Off ch=1 n=84 v=0
174720 On ch=1 n=84 v=101
174762 On ch=1 n=48 v=86
174763 Off ch=1 n=46 v=0
174848 Off ch=1 n=84 v=0
174848 On ch=1 n=84 v=94
174848 On ch=1 n=40 v=80
174849 Off ch=1 n=48 v=0
174933 On ch=1 n=46 v=95
174934 Off ch=1 n=40 v=0
174976 Off ch=1 n=84 v=0
174976 On ch=1 n=84 v=94
175018 On ch=1 n=48 v=102
175019 Off ch=1 n=46 v=0
175099 Off ch=1 n=48 v=0
175104 Off ch=1 n=84 v=0
175104 On ch=1 n=84 v=113
175104 On ch=1 n=41 v=105
175104 On ch=1 n=45 v=105
175104 On ch=1 n=48 v=105
175104 On ch=1 n=53 v=105
175193 Off ch=1 n=84 v=0
175232 On ch=1 n=84 v=76
175321 Off ch=1 n=84 v=0
175360 On ch=1 n=82 v=67
175360 Off ch=1 n=41 v=0
175360 Off ch=1 n=45 v=0
175360 Off ch=1 n=48 v=0
175360 Off ch=1 n=53 v=0
175449 Off ch=1 n=82 v=0
175488 On ch=1 n=81 v=65
175577 Off ch=1 n=81 v=0
175616 On ch=1 n=79 v=69
175872 On ch=1 n=77 v=67
175872 On ch=1 n=53 v=67
175877 Off ch=1 n=79 v=0
176115 Off ch=1 n=77 v=0
176128 On ch=1 n=46 v=60
176133 Off ch=1 n=53 v=0
176256 On ch=1 n=77 v=60
176298 Off ch=1 n=46 v=0
176345 Off ch=1 n=77 v=0
176384 On ch=1 n=76 v=56
176473 Off ch=1 n=76 v=0
176512 On ch=1 n=74 v=58
176601 Off ch=1 n=74 v=0
176640 On ch=1 n=72 v=56
176896 On ch=1 n=70 v=53
176896 On ch=1 n=46 v=53
176901 Off ch=1 n=72 v=0
177139 Off ch=1 n=70 v=0
177152 On ch=1 n=48 v=55
177157 Off ch=1 n=46 v=0
177280 On ch=1 n=70 v=58
177322 Off ch=1 n=48 v=0
177369 Off ch=1 n=70 v=0
177408 On ch=1 n=69 v=56
177497 Off ch=1 n=69 v=0
177536 On ch=1 n=67 v=60
177625 Off ch=1 n=67 v=0
177664 On ch=1 n=65 v=54
177920 On ch=1 n=64 v=52
177920 On ch=1 n=46 v=55
177925 Off ch=1 n=65 v=0
178163 Off ch=1 n=64 v=0
178176 On ch=1 n=65 v=62
178176 On ch=1 n=45 v=51
178181 Off ch=1 n=46 v=0
178265 Off ch=1 n=65 v=0
178304 On ch=1 n=69 v=67
178346 Off ch=1 n=45 v=0
178393 Off ch=1 n=69 v=0
178432 On ch=1 n=62 v=56
178432 On ch=1 n=46 v=62
178521 Off ch=1 n=62 v=0
178560 On ch=1 n=67 v=67
178611 Off ch=1 n=46 v=0
178649 Off ch=1 n=67 v=0
178688 On ch=1 n=60 v=50
178688 On ch=1 n=48 v=58
178777 Off ch=1 n=60 v=0
178816 On ch=1 n=65 v=63
178867 Off ch=1 n=48 v=0
178905 Off ch=1 n=65 v=0
178944 On ch=1 n=58 v=54
178944 On ch=1 n=48 v=58
179033 Off ch=1 n=58 v=0
179072 On ch=1 n=64 v=72
179123 Off ch=1 n=48 v=0
179161 Off ch=1 n=64 v=0
179200 On ch=1 n=57 v=53
179200 On ch=1 n=41 v=56
179379 Off ch=1 n=57 v=0
179379 Off ch=1 n=41 v=0
179968 On ch=1 n=57 v=57
179968 On ch=1 n=53 v=58
180224 On ch=1 n=65 v=66
180224 On ch=1 n=50 v=55
180229 Off ch=1 n=57 v=0
180229 Off ch=1 n=53 v=0
180394 Off ch=1 n=65 v=0
180394 Off ch=1 n=50 v=0
180992 On ch=1 n=65 v=55
180992 On ch=1 n=50 v=56
181248 On ch=1 n=62 v=47
181248 On ch=1 n=47 v=52
181253 Off ch=1 n=65 v=0
181253 Off ch=1 n=50 v=0
181418 Off ch=1 n=62 v=0
181418 Off ch=1 n=47 v=0
182016 On ch=1 n=59 v=46
182016 On ch=1 n=62 v=46
182272 Off ch=1 n=59 v=0
182272 Off ch=1 n=62 v=0
182272 On ch=1 n=59 v=48
182272 On ch=1 n=62 v=48
182400 On ch=1 n=74 v=48
182489 Off ch=1 n=74 v=0
182528 On ch=1 n=72 v=45
182528 Off ch=1 n=59 v=0
182528 Off ch=1 n=62 v=0
182617 Off ch=1 n=72 v=0
182656 On ch=1 n=71 v=46
182745 Off ch=1 n=71 v=0
182784 On ch=1 n=69 v=46
183040 On ch=1 n=68 v=43
183040 On ch=1 n=59 v=43
183040 On ch=1 n=62 v=43
183045 Off ch=1 n=69 v=0
183283 Off ch=1 n=68 v=0
183296 Off ch=1 n=59 v=0
183296 Off ch=1 n=62 v=0
183296 On ch=1 n=59 v=45
183296 On ch=1 n=62 v=45
183424 On ch=1 n=74 v=43
183552 On ch=1 n=73 v=42
183552 Off ch=1 n=59 v=0
183552 Off ch=1 n=62 v=0
183554 Off ch=1 n=74 v=0
183680 On ch=1 n=71 v=47
183682 Off ch=1 n=73 v=0
183808 On ch=1 n=69 v=43
183810 Off ch=1 n=71 v=0
183936 On ch=1 n=68 v=48
183938 Off ch=1 n=69 v=0
184064 On ch=1 n=78 v=88
184064 On ch=1 n=47 v=65
184064 On ch=1 n=50 v=65
184064 On ch=1 n=56 v=65
184066 Off ch=1 n=68 v=0
184192 On ch=1 n=76 v=87
184194 Off ch=1 n=78 v=0
184313 Off ch=1 n=76 v=0
184320 On ch=1 n=49 v=73
184320 On ch=1 n=52 v=73
184320 On ch=1 n=58 v=73
184325 Off ch=1 n=47 v=0
184325 Off ch=1 n=50 v=0
184325 Off ch=1 n=56 v=0
184448 On ch=1 n=76 v=65
184490 Off ch=1 n=49 v=0
184490 Off ch=1 n=52 v=0
184490 Off ch=1 n=58 v=0
184576 On ch=1 n=74 v=64
184578 Off ch=1 n=76 v=0
184704 On ch=1 n=73 v=63
184706 Off ch=1 n=74 v=0
184832 On ch=1 n=71 v=61
184834 Off ch=1 n=73 v=0
184960 On ch=1 n=70 v=63
184962 Off ch=1 n=71 v=0
185088 On ch=1 n=79 v=75
185088 On ch=1 n=49 v=67
185088 On ch=1 n=52 v=67
185088 On ch=1 n=58 v=67
185090 Off ch=1 n=70 v=0
185216 On ch=1 n=78 v=69
185218 Off ch=1 n=79 v=0
185337 Off ch=1 n=78 v=0
185344 On ch=1 n=50 v=82
185344 On ch=1 n=54 v=82
185344 On ch=1 n=59 v=82
185349 Off ch=1 n=49 v=0
185349 Off ch=1 n=52 v=0
185349 Off ch=1 n=58 v=0
185472 On ch=1 n=78 v=87
185514 Off ch=1 n=50 v=0
185514 Off ch=1 n=54 v=0
185514 Off ch=1 n=59 v=0
185600 On ch=1 n=76 v=83
185602 Off ch=1 n=78 v=0
185728 On ch=1 n=74 v=94
185730 Off ch=1 n=76 v=0
185856 On ch=1 n=73 v=88
185858 Off ch=1 n=74 v=0
185984 On ch=1 n=71 v=92
185986 Off ch=1 n=73 v=0
186112 On ch=1 n=82 v=117
186114 Off ch=1 n=71 v=0
186240 On ch=1 n=83 v=107
186242 Off ch=1 n=82 v=0
186361 Off ch=1 n=83 v=0
186368 On ch=1 n=77 v=85
186496 On ch=1 n=78 v=84
186498 Off ch=1 n=77 v=0
186624 On ch=1 n=85 v=118
186626 Off ch=1 n=78 v=0
186752 On ch=1 n=86 v=127
186754 Off ch=1 n=85 v=0
186880 On ch=1 n=82 v=85
186882 Off ch=1 n=86 v=0
187008 On ch=1 n=83 v=92
187010 Off ch=1 n=82 v=0
187136 On ch=1 n=86 v=110
187138 Off ch=1 n=83 v=0
187264 On ch=1 n=83 v=99
187266 Off ch=1 n=86 v=0
187385 Off ch=1 n=83 v=0
187392 On ch=1 n=83 v=58
187392 On ch=1 n=64 v=55
187437 Off ch=1 n=83 v=0
187449 On ch=1 n=84 v=58
187494 Off ch=1 n=84 v=0
187506 On ch=1 n=83 v=58
187520 On ch=1 n=68 v=63
187522 Off ch=1 n=64 v=0
187551 Off ch=1 n=83 v=0
187563 On ch=1 n=84 v=58
187608 Off ch=1 n=84 v=0
187619 On ch=1 n=83 v=58
187648 On ch=1 n=71 v=71
187650 Off ch=1 n=68 v=0
187663 Off ch=1 n=83 v=0
187675 On ch=1 n=84 v=58
187719 Off ch=1 n=84 v=0
187731 On ch=1 n=83 v=58
187775 Off ch=1 n=83 v=0
187776 On ch=1 n=69 v=70
187778 Off ch=1 n=71 v=0
187786 On ch=1 n=84 v=58
187830 Off ch=1 n=84 v=0
187841 On ch=1 n=83 v=58
187885 Off ch=1 n=83 v=0
187896 On ch=1 n=84 v=58
187904 On ch=1 n=68 v=54
187906 Off ch=1 n=69 v=0
187940 Off ch=1 n=84 v=0
187950 On ch=1 n=83 v=58
187993 Off ch=1 n=83 v=0
188004 On ch=1 n=84 v=58
188032 On ch=1 n=66 v=64
188034 Off ch=1 n=68 v=0
188047 Off ch=1 n=84 v=0
188058 On ch=1 n=83 v=58
188101 Off ch=1 n=83 v=0
188112 On ch=1 n=84 v=58
188155 Off ch=1 n=84 v=0
188160 On ch=1 n=64 v=60
188162 Off ch=1 n=66 v=0
188165 On ch=1 n=83 v=58
188207 Off ch=1 n=83 v=0
188218 On ch=1 n=84 v=58
188260 Off ch=1 n=84 v=0
188271 On ch=1 n=83 v=58
188288 On ch=1 n=63 v=67
188290 Off ch=1 n=64 v=0
188313 Off ch=1 n=83 v=0
188323 On ch=1 n=84 v=58
188364 Off ch=1 n=84 v=0
188375 On ch=1 n=83 v=58
188416 Off ch=1 n=83 v=0
188416 On ch=1 n=64 v=90
188418 Off ch=1 n=63 v=0
188427 On ch=1 n=84 v=84
188468 Off ch=1 n=84 v=0
188479 On ch=1 n=83 v=84
188520 Off ch=1 n=83 v=0
188530 On ch=1 n=84 v=84
188544 On ch=1 n=71 v=110
188546 Off ch=1 n=64 v=0
188570 Off ch=1 n=84 v=0
188581 On ch=1 n=83 v=84
188621 Off ch=1 n=83 v=0
188632 On ch=1 n=84 v=84
188672 Off ch=1 n=84 v=0
188672 On ch=1 n=74 v=95
188674 Off ch=1 n=71 v=0
188683 On ch=1 n=83 v=84
188723 Off ch=1 n=83 v=0
188733 On ch=1 n=84 v=84
188773 Off ch=1 n=84 v=0
188783 On ch=1 n=83 v=84
188800 On ch=1 n=73 v=81
188802 Off ch=1 n=74 v=0
188823 Off ch=1 n=83 v=0
188833 On ch=1 n=84 v=84
188873 Off ch=1 n=84 v=0
188882 On ch=1 n=83 v=84
188921 Off ch=1 n=83 v=0
188928 On ch=1 n=71 v=82
188930 Off ch=1 n=73 v=0
188931 On ch=1 n=84 v=84
188970 Off ch=1 n=84 v=0
188980 On ch=1 n=83 v=84
189019 Off ch=1 n=83 v=0
189029 On ch=1 n=84 v=84
189056 On ch=1 n=69 v=80
189058 Off ch=1 n=71 v=0
189068 Off ch=1 n=84 v=0
189077 On ch=1 n=83 v=84
189115 Off ch=1 n=83 v=0
189125 On ch=1 n=84 v=84
189163 Off ch=1 n=84 v=0
189173 On ch=1 n=83 v=84
189184 On ch=1 n=68 v=75
189186 Off ch=1 n=69 v=0
189211 Off ch=1 n=83 v=0
189221 On ch=1 n=84 v=84
189259 Off ch=1 n=84 v=0
189268 On ch=1 n=83 v=84
189305 Off ch=1 n=83 v=0
189312 On ch=1 n=66 v=77
189314 Off ch=1 n=68 v=0
189315 On ch=1 n=84 v=84
189352 Off ch=1 n=84 v=0
189362 On ch=1 n=83 v=84
189399 Off ch=1 n=83 v=0
189409 On ch=1 n=84 v=84
189440 On ch=1 n=64 v=96
189442 Off ch=1 n=66 v=0
189446 Off ch=1 n=84 v=0
189455 On ch=1 n=83 v=98
189491 Off ch=1 n=83 v=0
189501 On ch=1 n=84 v=98
189537 Off ch=1 n=84 v=0
189547 On ch=1 n=83 v=98
189568 On ch=1 n=63 v=90
189570 Off ch=1 n=64 v=0
189583 Off ch=1 n=83 v=0
189593 On ch=1 n=84 v=98
189629 Off ch=1 n=84 v=0
189640 On ch=1 n=83 v=98
189677 Off ch=1 n=83 v=0
189687 On ch=1 n=84 v=98
189689 Off ch=1 n=63 v=0
189696 On ch=1 n=62 v=92
189724 Off ch=1 n=84 v=0
189734 On ch=1 n=83 v=98
189771 Off ch=1 n=83 v=0
189781 On ch=1 n=84 v=98
189785 Off ch=1 n=62 v=0
189818 Off ch=1 n=84 v=0
189824 On ch=1 n=61 v=89
189829 On ch=1 n=83 v=98
189867 Off ch=1 n=83 v=0
189877 On ch=1 n=84 v=98
189913 Off ch=1 n=61 v=0
189915 Off ch=1 n=84 v=0
189925 On ch=1 n=83 v=98
189952 On ch=1 n=59 v=88
189963 Off ch=1 n=83 v=0
189973 On ch=1 n=84 v=98
190011 Off ch=1 n=84 v=0
190022 On ch=1 n=83 v=98
190041 Off ch=1 n=59 v=0
190061 Off ch=1 n=83 v=0
190071 On ch=1 n=84 v=98
190080 On ch=1 n=57 v=93
190110 Off ch=1 n=84 v=0
190120 On ch=1 n=83 v=98
190159 Off ch=1 n=83 v=0
190169 On ch=1 n=84 v=98
190169 Off ch=1 n=57 v=0
190208 Off ch=1 n=84 v=0
190208 On ch=1 n=56 v=95
190219 On ch=1 n=83 v=98
190259 Off ch=1 n=83 v=0
190269 On ch=1 n=84 v=98
190297 Off ch=1 n=56 v=0
190309 Off ch=1 n=84 v=0
190319 On ch=1 n=83 v=98
190336 On ch=1 n=54 v=91
190359 Off ch=1 n=83 v=0
190369 On ch=1 n=84 v=98
190409 Off ch=1 n=84 v=0
190420 On ch=1 n=83 v=98
190425 Off ch=1 n=54 v=0
190460 Off ch=1 n=83 v=0
190464 On ch=1 n=52 v=108
190471 On ch=1 n=84 v=113
190511 Off ch=1 n=84 v=0
190522 On ch=1 n=83 v=113
190553 Off ch=1 n=52 v=0
190562 Off ch=1 n=83 v=0
190574 On ch=1 n=84 v=113
190592 On ch=1 n=50 v=109
190615 Off ch=1 n=84 v=0
190626 On ch=1 n=83 v=113
190667 Off ch=1 n=83 v=0
190678 On ch=1 n=84 v=113
190681 Off ch=1 n=50 v=0
190719 Off ch=1 n=84 v=0
190720 On ch=1 n=49 v=108
190730 On ch=1 n=83 v=113
190771 Off ch=1 n=83 v=0
190783 On ch=1 n=84 v=113
190809 Off ch=1 n=49 v=0
190825 Off ch=1 n=84 v=0
190836 On ch=1 n=83 v=113
190848 On ch=1 n=47 v=105
190878 Off ch=1 n=83 v=0
190889 On ch=1 n=84 v=113
190931 Off ch=1 n=84 v=0
190937 Off ch=1 n=47 v=0
190943 On ch=1 n=83 v=113
190976 On ch=1 n=45 v=110
190986 Off ch=1 n=83 v=0
190997 On ch=1 n=84 v=113
191040 Off ch=1 n=84 v=0
191051 On ch=1 n=83 v=113
191065 Off ch=1 n=45 v=0
191094 Off ch=1 n=83 v=0
191104 On ch=1 n=44 v=112
191105 On ch=1 n=84 v=113
191148 Off ch=1 n=84 v=0
191160 On ch=1 n=83 v=113
191193 Off ch=1 n=44 v=0
191204 Off ch=1 n=83 v=0
191215 On ch=1 n=84 v=113
191232 On ch=1 n=42 v=110
191259 Off ch=1 n=84 v=0
191270 On ch=1 n=83 v=113
191314 Off ch=1 n=83 v=0
191321 Off ch=1 n=42 v=0
191326 On ch=1 n=84 v=113
191360 On ch=1 n=40 v=112
191370 Off ch=1 n=84 v=0
191382 On ch=1 n=83 v=113
191426 Off ch=1 n=83 v=0
191427 On ch=1 n=81 v=106
191438 On ch=1 n=84 v=106
191449 Off ch=1 n=40 v=0
191454 On ch=1 n=83 v=106
191482 Off ch=1 n=84 v=0
191488 On ch=1 n=69 v=113
191488 On ch=1 n=81 v=113
191488 Off ch=1 n=81 v=0
191488 Off ch=1 n=83 v=0
191488 On ch=1 n=33 v=119
191488 On ch=1 n=45 v=119
191828 Off ch=1 n=69 v=0
191828 Off ch=1 n=81 v=0
191846 Off ch=1 n=33 v=0
191846 Off ch=1 n=45 v=0
192000 On ch=1 n=57 v=80
192000 On ch=1 n=64 v=80
192000 On ch=1 n=69 v=80
192000 On ch=1 n=37 v=122
192000 On ch=1 n=45 v=122
192000 On ch=1 n=49 v=122
192358 Off ch=1 n=57 v=0
192358 Off ch=1 n=64 v=0
192358 Off ch=1 n=69 v=0
192358 Off ch=1 n=37 v=0
192358 Off ch=1 n=45 v=0
192358 Off ch=1 n=49 v=0
192512 On ch=1 n=57 v=106
192512 On ch=1 n=66 v=106
192512 On ch=1 n=69 v=106
192512 On ch=1 n=38 v=113
192512 On ch=1 n=45 v=113
192512 On ch=1 n=50 v=113
192870 Off ch=1 n=57 v=0
192870 Off ch=1 n=66 v=0
192870 Off ch=1 n=69 v=0
192870 Off ch=1 n=38 v=0
192870 Off ch=1 n=45 v=0
192870 Off ch=1 n=50 v=0
193024 On ch=1 n=57 v=115
193024 On ch=1 n=62 v=115
193024 On ch=1 n=69 v=115
193024 On ch=1 n=42 v=121
193024 On ch=1 n=50 v=121
193024 On ch=1 n=54 v=121
193382 Off ch=1 n=57 v=0
193382 Off ch=1 n=62 v=0
193382 Off ch=1 n=69 v=0
193382 Off ch=1 n=42 v=0
193382 Off ch=1 n=50 v=0
193382 Off ch=1 n=54 v=0
193536 On ch=1 n=59 v=127
193536 On ch=1 n=62 v=127
193536 On ch=1 n=71 v=127
193536 On ch=1 n=44 v=117
193536 On ch=1 n=50 v=117
193536 On ch=1 n=52 v=117
193536 On ch=1 n=56 v=117
193715 Off ch=1 n=59 v=0
193715 Off ch=1 n=62 v=0
193715 Off ch=1 n=71 v=0
193715 Off ch=1 n=44 v=0
193715 Off ch=1 n=50 v=0
193715 Off ch=1 n=52 v=0
193715 Off ch=1 n=56 v=0
193792 On ch=1 n=59 v=97
193792 On ch=1 n=62 v=97
193792 On ch=1 n=64 v=97
193792 On ch=1 n=44 v=111
193792 On ch=1 n=50 v=111
193792 On ch=1 n=52 v=111
193792 On ch=1 n=56 v=111
193971 Off ch=1 n=59 v=0
193971 Off ch=1 n=62 v=0
193971 Off ch=1 n=64 v=0
193971 Off ch=1 n=44 v=0
193971 Off ch=1 n=50 v=0
193971 Off ch=1 n=52 v=0
193971 Off ch=1 n=56 v=0
194560 On ch=1 n=61 v=101
194560 On ch=1 n=64 v=101
194560 On ch=1 n=73 v=101
194560 On ch=1 n=45 v=99
194560 On ch=1 n=49 v=99
194560 On ch=1 n=52 v=99
194560 On ch=1 n=57 v=99
194739 Off ch=1 n=61 v=0
194739 Off ch=1 n=64 v=0
194739 Off ch=1 n=73 v=0
194739 Off ch=1 n=45 v=0
194739 Off ch=1 n=49 v=0
194739 Off ch=1 n=52 v=0
194739 Off ch=1 n=57 v=0
194816 On ch=1 n=61 v=103
194816 On ch=1 n=64 v=103
194816 On ch=1 n=69 v=103
194816 On ch=1 n=45 v=109
194816 On ch=1 n=49 v=109
194816 On ch=1 n=52 v=109
194816 On ch=1 n=57 v=109
194995 Off ch=1 n=61 v=0
194995 Off ch=1 n=64 v=0
194995 Off ch=1 n=69 v=0
194995 Off ch=1 n=45 v=0
194995 Off ch=1 n=49 v=0
194995 Off ch=1 n=52 v=0
194995 Off ch=1 n=57 v=0
195584 On ch=1 n=47 v=54
195648 On ch=1 n=62 v=56
195712 Off ch=1 n=62 v=0
195712 On ch=1 n=64 v=64
195776 Off ch=1 n=64 v=0
195776 On ch=1 n=68 v=67
195840 Off ch=1 n=68 v=0
195840 On ch=1 n=74 v=73
195840 Off ch=1 n=47 v=0
195904 On ch=1 n=59 v=56
195968 Off ch=1 n=59 v=0
195968 On ch=1 n=58 v=59
196032 Off ch=1 n=58 v=0
196032 On ch=1 n=59 v=67
196096 Off ch=1 n=74 v=0
196096 Off ch=1 n=59 v=0
196096 On ch=1 n=49 v=56
196160 On ch=1 n=64 v=60
196224 Off ch=1 n=64 v=0
196224 On ch=1 n=69 v=81
196288 Off ch=1 n=69 v=0
196288 On ch=1 n=64 v=61
196352 Off ch=1 n=64 v=0
196352 On ch=1 n=76 v=89
196352 Off ch=1 n=49 v=0
196416 On ch=1 n=61 v=64
196480 Off ch=1 n=61 v=0
196480 On ch=1 n=60 v=66
196544 Off ch=1 n=60 v=0
196544 On ch=1 n=61 v=74
196608 Off ch=1 n=76 v=0
196608 Off ch=1 n=61 v=0
196608 On ch=1 n=50 v=60
196672 On ch=1 n=66 v=62
196736 Off ch=1 n=66 v=0
196736 On ch=1 n=69 v=94
196800 Off ch=1 n=69 v=0
196800 On ch=1 n=66 v=77
196864 Off ch=1 n=66 v=0
196864 On ch=1 n=78 v=106
196864 Off ch=1 n=50 v=0
196928 On ch=1 n=62 v=75
196992 Off ch=1 n=62 v=0
196992 On ch=1 n=61 v=81
197056 Off ch=1 n=61 v=0
197056 On ch=1 n=62 v=87
197120 Off ch=1 n=78 v=0
197120 Off ch=1 n=62 v=0
197120 On ch=1 n=52 v=72
197184 On ch=1 n=68 v=76
197248 Off ch=1 n=68 v=0
197248 On ch=1 n=74 v=99
197312 Off ch=1 n=74 v=0
197312 On ch=1 n=68 v=88
197376 Off ch=1 n=68 v=0
197376 On ch=1 n=80 v=120
197376 Off ch=1 n=52 v=0
197440 On ch=1 n=64 v=87
197504 Off ch=1 n=64 v=0
197504 On ch=1 n=63 v=94
197549 Off ch=1 n=80 v=0
197549 On ch=1 n=74 v=126
197568 Off ch=1 n=63 v=0
197568 On ch=1 n=64 v=100
197582 On ch=1 n=80 v=126
197607 On ch=1 n=83 v=126
197632 On ch=1 n=86 v=126
197632 Off ch=1 n=74 v=0
197632 Off ch=1 n=80 v=0
197632 Off ch=1 n=83 v=0
197632 Off ch=1 n=64 v=0
197632 On ch=1 n=52 v=111
197632 On ch=1 n=59 v=111
197632 On ch=1 n=62 v=111
197632 On ch=1 n=64 v=111
197941 Off ch=1 n=86 v=0
197952 On ch=1 n=85 v=87
198016 On ch=1 n=83 v=81
198017 Off ch=1 n=85 v=0
198080 On ch=1 n=81 v=92
198081 Off ch=1 n=83 v=0
198144 On ch=1 n=80 v=84
198145 Off ch=1 n=81 v=0
198208 On ch=1 n=81 v=99
198209 Off ch=1 n=80 v=0
198272 On ch=1 n=83 v=109
198273 Off ch=1 n=81 v=0
198336 On ch=1 n=81 v=92
198337 Off ch=1 n=83 v=0
198400 On ch=1 n=80 v=87
198401 Off ch=1 n=81 v=0
198464 On ch=1 n=78 v=92
198465 Off ch=1 n=80 v=0
198528 On ch=1 n=76 v=85
198529 Off ch=1 n=78 v=0
198592 On ch=1 n=74 v=92
198593 Off ch=1 n=76 v=0
198656 On ch=1 n=73 v=88
198656 Off ch=1 n=52 v=0
198656 Off ch=1 n=59 v=0
198656 Off ch=1 n=62 v=0
198656 Off ch=1 n=64 v=0
198656 On ch=1 n=57 v=101
198656 On ch=1 n=61 v=101
198656 On ch=1 n=64 v=101
198657 Off ch=1 n=74 v=0
198826 Off ch=1 n=73 v=0
198912 Off ch=1 n=57 v=0
198912 Off ch=1 n=61 v=0
198912 Off ch=1 n=64 v=0
199590 On ch=1 n=62 v=125
199630 On ch=1 n=68 v=125
199655 On ch=1 n=71 v=125
199680 On ch=1 n=74 v=125
199680 Off ch=1 n=62 v=0
199680 Off ch=1 n=68 v=0
199680 Off ch=1 n=71 v=0
199680 On ch=1 n=40 v=102
199680 On ch=1 n=47 v=102
199680 On ch=1 n=50 v=102
199680 On ch=1 n=52 v=102
199989 Off ch=1 n=74 v=0
200000 On ch=1 n=73 v=90
200064 On ch=1 n=71 v=89
200065 Off ch=1 n=73 v=0
200128 On ch=1 n=69 v=93
200129 Off ch=1 n=71 v=0
200192 On ch=1 n=68 v=89
200193 Off ch=1 n=69 v=0
200256 On ch=1 n=69 v=100
200257 Off ch=1 n=68 v=0
200320 On ch=1 n=71 v=108
200321 Off ch=1 n=69 v=0
200384 On ch=1 n=69 v=93
200385 Off ch=1 n=71 v=0
200448 On ch=1 n=68 v=89
200449 Off ch=1 n=69 v=0
200512 On ch=1 n=66 v=91
200513 Off ch=1 n=68 v=0
200576 On ch=1 n=64 v=84
200577 Off ch=1 n=66 v=0
200640 On ch=1 n=62 v=85
200641 Off ch=1 n=64 v=0
200704 On ch=1 n=61 v=84
200704 Off ch=1 n=40 v=0
200704 Off ch=1 n=47 v=0
200704 Off ch=1 n=50 v=0
200704 Off ch=1 n=52 v=0
200704 On ch=1 n=45 v=101
200704 On ch=1 n=49 v=101
200704 On ch=1 n=52 v=101
200704 On ch=1 n=57 v=101
200705 Off ch=1 n=62 v=0
200832 Off ch=1 n=45 v=0
200832 Off ch=1 n=49 v=0
200832 Off ch=1 n=52 v=0
200832 Off ch=1 n=57 v=0
200874 Off ch=1 n=61 v=0
201638 On ch=1 n=50 v=124
201664 On ch=1 n=52 v=84
201664 On ch=1 n=56 v=84
201678 On ch=1 n=56 v=124
201703 On ch=1 n=59 v=124
201728 On ch=1 n=62 v=124
201728 Off ch=1 n=50 v=0
201728 Off ch=1 n=56 v=0
201728 Off ch=1 n=59 v=0
201728 Off ch=1 n=52 v=0
201728 Off ch=1 n=56 v=0
201728 On ch=1 n=40 v=94
202037 Off ch=1 n=62 v=0
202048 On ch=1 n=61 v=94
202112 On ch=1 n=59 v=96
202113 Off ch=1 n=61 v=0
202176 On ch=1 n=57 v=94
202177 Off ch=1 n=59 v=0
202240 On ch=1 n=56 v=91
202241 Off ch=1 n=57 v=0
202304 On ch=1 n=57 v=96
202305 Off ch=1 n=56 v=0
202368 On ch=1 n=59 v=98
202369 Off ch=1 n=57 v=0
202432 On ch=1 n=57 v=93
202433 Off ch=1 n=59 v=0
202496 On ch=1 n=56 v=90
202497 Off ch=1 n=57 v=0
202560 On ch=1 n=54 v=98
202561 Off ch=1 n=56 v=0
202624 On ch=1 n=52 v=94
202625 Off ch=1 n=54 v=0
202688 On ch=1 n=50 v=93
202689 Off ch=1 n=52 v=0
202752 On ch=1 n=45 v=105
202752 Off ch=1 n=40 v=0
202752 On ch=1 n=33 v=90
202753 Off ch=1 n=50 v=0
202812 Off ch=1 n=45 v=0
202816 On ch=1 n=47 v=120
202816 Off ch=1 n=33 v=0
202816 On ch=1 n=35 v=99
202880 Off ch=1 n=47 v=0
202880 On ch=1 n=49 v=113
202880 Off ch=1 n=35 v=0
202880 On ch=1 n=37 v=98
202944 Off ch=1 n=49 v=0
202944 On ch=1 n=50 v=114
202944 Off ch=1 n=37 v=0
202944 On ch=1 n=38 v=98
203008 Off ch=1 n=50 v=0
203008 On ch=1 n=52 v=117
203008 Off ch=1 n=38 v=0
203008 On ch=1 n=40 v=103
203072 Off ch=1 n=52 v=0
203072 On ch=1 n=54 v=115
203072 Off ch=1 n=40 v=0
203072 On ch=1 n=42 v=100
203136 Off ch=1 n=54 v=0
203136 On ch=1 n=56 v=116
203136 Off ch=1 n=42 v=0
203136 On ch=1 n=44 v=100
203200 Off ch=1 n=56 v=0
203200 On ch=1 n=57 v=115
203200 Off ch=1 n=44 v=0
203200 On ch=1 n=45 v=103
203264 Off ch=1 n=57 v=0
203264 On ch=1 n=59 v=116
203264 Off ch=1 n=45 v=0
203264 On ch=1 n=47 v=99
203328 Off ch=1 n=59 v=0
203328 On ch=1 n=61 v=122
203328 Off ch=1 n=47 v=0
203328 On ch=1 n=49 v=104
203392 Off ch=1 n=61 v=0
203392 On ch=1 n=62 v=120
203392 Off ch=1 n=49 v=0
203392 On ch=1 n=50 v=94
203456 Off ch=1 n=62 v=0
203456 On ch=1 n=64 v=121
203456 Off ch=1 n=50 v=0
203456 On ch=1 n=52 v=105
203520 Off ch=1 n=64 v=0
203520 On ch=1 n=66 v=119
203520 Off ch=1 n=52 v=0
203520 On ch=1 n=54 v=105
203584 Off ch=1 n=66 v=0
203584 On ch=1 n=68 v=121
203584 Off ch=1 n=54 v=0
203584 On ch=1 n=56 v=104
203648 Off ch=1 n=68 v=0
203648 On ch=1 n=69 v=119
203648 Off ch=1 n=56 v=0
203648 On ch=1 n=57 v=104
203712 Off ch=1 n=69 v=0
203712 On ch=1 n=71 v=123
203712 Off ch=1 n=57 v=0
203712 On ch=1 n=59 v=102
203776 Off ch=1 n=71 v=0
203776 On ch=1 n=73 v=118
203776 Off ch=1 n=59 v=0
203776 On ch=1 n=61 v=106
203840 Off ch=1 n=73 v=0
203840 On ch=1 n=74 v=120
203840 Off ch=1 n=61 v=0
203840 On ch=1 n=62 v=104
203904 Off ch=1 n=74 v=0
203904 On ch=1 n=76 v=119
203904 Off ch=1 n=62 v=0
203904 On ch=1 n=64 v=105
203968 Off ch=1 n=76 v=0
203968 On ch=1 n=78 v=121
203968 Off ch=1 n=64 v=0
203968 On ch=1 n=66 v=105
204032 Off ch=1 n=78 v=0
204032 On ch=1 n=80 v=121
204032 Off ch=1 n=66 v=0
204032 On ch=1 n=68 v=102
204096 Off ch=1 n=80 v=0
204096 On ch=1 n=81 v=119
204096 Off ch=1 n=68 v=0
204096 On ch=1 n=69 v=102
204160 Off ch=1 n=81 v=0
204160 On ch=1 n=83 v=126
204160 Off ch=1 n=69 v=0
204160 On ch=1 n=71 v=107
204224 Off ch=1 n=83 v=0
204224 On ch=1 n=85 v=122
204224 Off ch=1 n=71 v=0
204224 On ch=1 n=73 v=97
204288 Off ch=1 n=85 v=0
204288 On ch=1 n=86 v=120
204288 Off ch=1 n=73 v=0
204288 On ch=1 n=74 v=102
204467 Off ch=1 n=86 v=0
204467 Off ch=1 n=74 v=0
204544 On ch=1 n=87 v=122
204544 On ch=1 n=75 v=105
204723 Off ch=1 n=87 v=0
204723 Off ch=1 n=75 v=0
204800 On ch=1 n=88 v=115
204800 On ch=1 n=76 v=101
205056 Off ch=1 n=88 v=0
205056 Off ch=1 n=76 v=0
205312 On ch=1 n=59 v=99
205312 On ch=1 n=62 v=99
205312 On ch=1 n=64 v=99
205312 On ch=1 n=68 v=99
205312 On ch=1 n=40 v=89
205312 On ch=1 n=52 v=89
205568 Off ch=1 n=59 v=0
205568 Off ch=1 n=62 v=0
205568 Off ch=1 n=64 v=0
205568 Off ch=1 n=68 v=0
205568 Off ch=1 n=40 v=0
205568 Off ch=1 n=52 v=0
205824 On ch=1 n=57 v=101
205824 On ch=1 n=61 v=101
205824 On ch=1 n=64 v=101
205824 On ch=1 n=69 v=101
205824 On ch=1 n=33 v=89
205824 On ch=1 n=45 v=89
206080 Off ch=1 n=57 v=0
206080 Off ch=1 n=61 v=0
206080 Off ch=1 n=64 v=0
206080 Off ch=1 n=69 v=0
206080 Off ch=1 n=33 v=0
206080 Off ch=1 n=45 v=0
206848 On ch=1 n=53 v=56
206848 On ch=1 n=57 v=56
206848 On ch=1 n=65 v=56
206848 On ch=1 n=29 v=52
206848 On ch=1 n=41 v=52
207206 Off ch=1 n=53 v=0
207206 Off ch=1 n=57 v=0
207206 Off ch=1 n=65 v=0
207206 Off ch=1 n=29 v=0
207206 Off ch=1 n=41 v=0
207360 On ch=1 n=53 v=62
207360 On ch=1 n=60 v=62
207360 On ch=1 n=65 v=62
207360 On ch=1 n=33 v=62
207360 On ch=1 n=45 v=62
207718 Off ch=1 n=53 v=0
207718 Off ch=1 n=60 v=0
207718 Off ch=1 n=65 v=0
207718 Off ch=1 n=33 v=0
207718 Off ch=1 n=45 v=0
207872 On ch=1 n=53 v=61
207872 On ch=1 n=62 v=61
207872 On ch=1 n=65 v=61
207872 On ch=1 n=34 v=60
207872 On ch=1 n=46 v=60
208230 Off ch=1 n=53 v=0
208230 Off ch=1 n=62 v=0
208230 Off ch=1 n=65 v=0
208230 Off ch=1 n=34 v=0
208230 Off ch=1 n=46 v=0
208384 On ch=1 n=53 v=62
208384 On ch=1 n=58 v=62
208384 On ch=1 n=65 v=62
208384 On ch=1 n=38 v=60
208384 On ch=1 n=50 v=60
208742 Off ch=1 n=53 v=0
208742 Off ch=1 n=58 v=0
208742 Off ch=1 n=65 v=0
208742 Off ch=1 n=38 v=0
208742 Off ch=1 n=50 v=0
208896 On ch=1 n=55 v=63
208896 On ch=1 n=58 v=63
208896 On ch=1 n=64 v=63
208896 On ch=1 n=36 v=55
208896 On ch=1 n=48 v=55
209075 Off ch=1 n=55 v=0
209075 Off ch=1 n=58 v=0
209075 Off ch=1 n=64 v=0
209075 Off ch=1 n=36 v=0
209075 Off ch=1 n=48 v=0
209152 On ch=1 n=58 v=69
209152 On ch=1 n=64 v=69
209152 On ch=1 n=67 v=69
209152 On ch=1 n=70 v=69
209152 On ch=1 n=36 v=58
209152 On ch=1 n=48 v=58
209331 Off ch=1 n=58 v=0
209331 Off ch=1 n=64 v=0
209331 Off ch=1 n=67 v=0
209331 Off ch=1 n=70 v=0
209331 Off ch=1 n=36 v=0
209331 Off ch=1 n=48 v=0
209920 On ch=1 n=67 v=88
209920 On ch=1 n=70 v=88
209920 On ch=1 n=76 v=88
209920 On ch=1 n=48 v=91
209920 On ch=1 n=60 v=91
210099 Off ch=1 n=67 v=0
210099 Off ch=1 n=70 v=0
210099 Off ch=1 n=76 v=0
210099 Off ch=1 n=48 v=0
210099 Off ch=1 n=60 v=0
210176 On ch=1 n=70 v=111
210176 On ch=1 n=76 v=111
210176 On ch=1 n=79 v=111
210176 On ch=1 n=82 v=111
210176 On ch=1 n=48 v=100
210176 On ch=1 n=60 v=100
210355 Off ch=1 n=70 v=0
210355 Off ch=1 n=76 v=0
210355 Off ch=1 n=79 v=0
210355 Off ch=1 n=82 v=0
210355 Off ch=1 n=48 v=0
210355 Off ch=1 n=60 v=0
210944 On ch=1 n=53 v=57
210944 On ch=1 n=41 v=51
211072 Off ch=1 n=53 v=0
211072 On ch=1 n=57 v=52
211072 Off ch=1 n=41 v=0
211072 On ch=1 n=45 v=62
211200 Off ch=1 n=57 v=0
211200 On ch=1 n=60 v=54
211200 Off ch=1 n=45 v=0
211200 On ch=1 n=48 v=61
211328 Off ch=1 n=60 v=0
211328 On ch=1 n=58 v=54
211328 Off ch=1 n=48 v=0
211328 On ch=1 n=46 v=59
211456 Off ch=1 n=58 v=0
211456 On ch=1 n=57 v=50
211456 Off ch=1 n=46 v=0
211456 On ch=1 n=45 v=61
211584 Off ch=1 n=57 v=0
211584 On ch=1 n=55 v=53
211584 Off ch=1 n=45 v=0
211584 On ch=1 n=43 v=62
211712 Off ch=1 n=55 v=0
211712 On ch=1 n=53 v=52
211712 Off ch=1 n=43 v=0
211712 On ch=1 n=41 v=59
211840 Off ch=1 n=53 v=0
211840 On ch=1 n=52 v=51
211840 Off ch=1 n=41 v=0
211840 On ch=1 n=40 v=55
211968 Off ch=1 n=52 v=0
211968 On ch=1 n=53 v=53
211968 Off ch=1 n=40 v=0
211968 On ch=1 n=41 v=61
212096 Off ch=1 n=53 v=0
212096 On ch=1 n=57 v=54
212096 Off ch=1 n=41 v=0
212096 On ch=1 n=45 v=62
212224 Off ch=1 n=57 v=0
212224 On ch=1 n=60 v=55
212224 Off ch=1 n=45 v=0
212224 On ch=1 n=48 v=66
212352 Off ch=1 n=60 v=0
212352 On ch=1 n=58 v=50
212352 Off ch=1 n=48 v=0
212352 On ch=1 n=46 v=57
212480 Off ch=1 n=58 v=0
212480 On ch=1 n=57 v=45
212480 Off ch=1 n=46 v=0
212480 On ch=1 n=45 v=63
212608 Off ch=1 n=57 v=0
212608 On ch=1 n=55 v=50
212608 Off ch=1 n=45 v=0
212608 On ch=1 n=43 v=57
212736 Off ch=1 n=55 v=0
212736 On ch=1 n=53 v=47
212736 Off ch=1 n=43 v=0
212736 On ch=1 n=41 v=59
212864 Off ch=1 n=53 v=0
212864 On ch=1 n=52 v=53
212864 Off ch=1 n=41 v=0
212864 On ch=1 n=40 v=57
212992 Off ch=1 n=52 v=0
212992 On ch=1 n=53 v=52
212992 Off ch=1 n=40 v=0
212992 On ch=1 n=41 v=60
213120 Off ch=1 n=41 v=0
213120 On ch=1 n=45 v=63
213248 Off ch=1 n=53 v=0
213248 Off ch=1 n=45 v=0
213248 On ch=1 n=48 v=60
213376 Off ch=1 n=48 v=0
213376 On ch=1 n=46 v=63
213462 On ch=1 n=72 v=109
213504 On ch=1 n=84 v=84
213504 Off ch=1 n=72 v=0
213504 Off ch=1 n=46 v=0
213504 On ch=1 n=45 v=56
213632 Off ch=1 n=45 v=0
213632 On ch=1 n=43 v=66
213760 Off ch=1 n=43 v=0
213760 On ch=1 n=41 v=73
213888 Off ch=1 n=41 v=0
213888 On ch=1 n=40 v=79
214016 Off ch=1 n=40 v=0
214016 On ch=1 n=41 v=88
214144 Off ch=1 n=41 v=0
214144 On ch=1 n=43 v=85
214272 Off ch=1 n=43 v=0
214272 On ch=1 n=45 v=82
214400 Off ch=1 n=45 v=0
214400 On ch=1 n=46 v=79
214476 Off ch=1 n=84 v=0
214528 On ch=1 n=81 v=90
214528 Off ch=1 n=46 v=0
214528 On ch=1 n=48 v=75
214656 Off ch=1 n=48 v=0
214656 On ch=1 n=50 v=67
214784 Off ch=1 n=50 v=0
214784 On ch=1 n=52 v=68
214912 Off ch=1 n=52 v=0
214912 On ch=1 n=53 v=64
214976 On ch=1 n=77 v=76
214984 Off ch=1 n=81 v=0
215040 On ch=1 n=76 v=70
215040 Off ch=1 n=53 v=0
215040 On ch=1 n=48 v=58
215041 Off ch=1 n=77 v=0
215168 Off ch=1 n=48 v=0
215168 On ch=1 n=52 v=65
215210 Off ch=1 n=76 v=0
215296 On ch=1 n=67 v=39
215296 Off ch=1 n=52 v=0
215296 On ch=1 n=55 v=54
215424 Off ch=1 n=67 v=0
215424 On ch=1 n=65 v=46
215424 Off ch=1 n=55 v=0
215424 On ch=1 n=53 v=48
215552 Off ch=1 n=65 v=0
215552 On ch=1 n=64 v=45
215552 Off ch=1 n=53 v=0
215552 On ch=1 n=52 v=46
215680 Off ch=1 n=64 v=0
215680 On ch=1 n=62 v=51
215680 Off ch=1 n=52 v=0
215680 On ch=1 n=50 v=53
215808 Off ch=1 n=62 v=0
215808 On ch=1 n=60 v=46
215808 Off ch=1 n=50 v=0
215808 On ch=1 n=48 v=48
215936 Off ch=1 n=60 v=0
215936 On ch=1 n=59 v=44
215936 Off ch=1 n=48 v=0
215936 On ch=1 n=47 v=51
216064 Off ch=1 n=59 v=0
216064 On ch=1 n=60 v=49
216064 Off ch=1 n=47 v=0
216064 On ch=1 n=48 v=57
216192 Off ch=1 n=60 v=0
216192 On ch=1 n=64 v=55
216192 Off ch=1 n=48 v=0
216192 On ch=1 n=52 v=54
216320 Off ch=1 n=64 v=0
216320 On ch=1 n=67 v=56
216320 Off ch=1 n=52 v=0
216320 On ch=1 n=55 v=57
216448 Off ch=1 n=67 v=0
216448 On ch=1 n=65 v=46
216448 Off ch=1 n=55 v=0
216448 On ch=1 n=53 v=46
216576 Off ch=1 n=65 v=0
216576 On ch=1 n=64 v=52
216576 Off ch=1 n=53 v=0
216576 On ch=1 n=52 v=48
216704 Off ch=1 n=64 v=0
216704 On ch=1 n=62 v=46
216704 Off ch=1 n=52 v=0
216704 On ch=1 n=50 v=51
216832 Off ch=1 n=62 v=0
216832 On ch=1 n=64 v=48
216832 Off ch=1 n=50 v=0
216832 On ch=1 n=52 v=57
216960 Off ch=1 n=64 v=0
216960 On ch=1 n=60 v=43
216960 Off ch=1 n=52 v=0
216960 On ch=1 n=48 v=47
217088 Off ch=1 n=60 v=0
217088 On ch=1 n=61 v=53
217088 Off ch=1 n=48 v=0
217088 On ch=1 n=49 v=54
217216 Off ch=1 n=49 v=0
217216 On ch=1 n=52 v=47
217344 Off ch=1 n=61 v=0
217344 Off ch=1 n=52 v=0
217344 On ch=1 n=55 v=57
217472 Off ch=1 n=55 v=0
217472 On ch=1 n=53 v=49
217560 On ch=1 n=76 v=127
217600 On ch=1 n=88 v=98
217600 Off ch=1 n=76 v=0
217600 Off ch=1 n=53 v=0
217600 On ch=1 n=52 v=94
217728 Off ch=1 n=52 v=0
217728 On ch=1 n=50 v=104
217856 Off ch=1 n=50 v=0
217856 On ch=1 n=48 v=105
217984 Off ch=1 n=48 v=0
217984 On ch=1 n=47 v=113
218112 Off ch=1 n=47 v=0
218112 On ch=1 n=45 v=120
218240 Off ch=1 n=45 v=0
218240 On ch=1 n=33 v=102
218368 Off ch=1 n=33 v=0
218368 On ch=1 n=37 v=120
218496 Off ch=1 n=37 v=0
218496 On ch=1 n=40 v=118
218572 Off ch=1 n=88 v=0
218624 On ch=1 n=85 v=103
218624 Off ch=1 n=40 v=0
218624 On ch=1 n=45 v=121
218752 Off ch=1 n=45 v=0
218752 On ch=1 n=49 v=114
218880 Off ch=1 n=49 v=0
218880 On ch=1 n=52 v=101
219008 Off ch=1 n=52 v=0
219008 On ch=1 n=57 v=110
219072 On ch=1 n=79 v=77
219080 Off ch=1 n=85 v=0
219136 On ch=1 n=77 v=71
219136 Off ch=1 n=57 v=0
219136 On ch=1 n=50 v=92
219137 Off ch=1 n=79 v=0
219264 Off ch=1 n=50 v=0
219264 On ch=1 n=53 v=106
219306 Off ch=1 n=77 v=0
219392 On ch=1 n=69 v=40
219392 Off ch=1 n=53 v=0
219392 On ch=1 n=57 v=54
219520 Off ch=1 n=69 v=0
219520 On ch=1 n=67 v=40
219520 Off ch=1 n=57 v=0
219520 On ch=1 n=55 v=51
219648 Off ch=1 n=67 v=0
219648 On ch=1 n=65 v=47
219648 Off ch=1 n=55 v=0
219648 On ch=1 n=53 v=44
219776 Off ch=1 n=65 v=0
219776 On ch=1 n=64 v=52
219776 Off ch=1 n=53 v=0
219776 On ch=1 n=52 v=47
219904 Off ch=1 n=64 v=0
219904 On ch=1 n=62 v=44
219904 Off ch=1 n=52 v=0
219904 On ch=1 n=50 v=49
220032 Off ch=1 n=62 v=0
220032 On ch=1 n=61 v=53
220032 Off ch=1 n=50 v=0
220032 On ch=1 n=49 v=47
220160 Off ch=1 n=61 v=0
220160 On ch=1 n=62 v=50
220160 Off ch=1 n=49 v=0
220160 On ch=1 n=50 v=57
220288 Off ch=1 n=62 v=0
220288 On ch=1 n=65 v=54
220288 Off ch=1 n=50 v=0
220288 On ch=1 n=53 v=50
220416 Off ch=1 n=65 v=0
220416 On ch=1 n=69 v=55
220416 Off ch=1 n=53 v=0
220416 On ch=1 n=57 v=53
220544 Off ch=1 n=69 v=0
220544 On ch=1 n=68 v=51
220544 Off ch=1 n=57 v=0
220544 On ch=1 n=56 v=49
220672 Off ch=1 n=68 v=0
220672 On ch=1 n=69 v=51
220672 Off ch=1 n=56 v=0
220672 On ch=1 n=57 v=49
220800 Off ch=1 n=69 v=0
220800 On ch=1 n=65 v=47
220800 Off ch=1 n=57 v=0
220800 On ch=1 n=53 v=51
220928 Off ch=1 n=65 v=0
220928 On ch=1 n=64 v=46
220928 Off ch=1 n=53 v=0
220928 On ch=1 n=52 v=46
221056 Off ch=1 n=64 v=0
221056 On ch=1 n=62 v=45
221056 Off ch=1 n=52 v=0
221056 On ch=1 n=50 v=50
221184 Off ch=1 n=62 v=0
221184 On ch=1 n=63 v=52
221184 Off ch=1 n=50 v=0
221184 On ch=1 n=51 v=51
221312 Off ch=1 n=51 v=0
221312 On ch=1 n=53 v=50
221440 Off ch=1 n=63 v=0
221440 Off ch=1 n=53 v=0
221440 On ch=1 n=55 v=55
221568 Off ch=1 n=55 v=0
221568 On ch=1 n=53 v=81
221654 On ch=1 n=77 v=108
221696 On ch=1 n=89 v=84
221696 Off ch=1 n=77 v=0
221696 Off ch=1 n=53 v=0
221696 On ch=1 n=51 v=85
221824 Off ch=1 n=51 v=0
221824 On ch=1 n=50 v=86
221952 Off ch=1 n=50 v=0
221952 On ch=1 n=48 v=91
222080 Off ch=1 n=48 v=0
222080 On ch=1 n=46 v=101
222208 Off ch=1 n=46 v=0
222208 On ch=1 n=45 v=105
222336 Off ch=1 n=45 v=0
222336 On ch=1 n=46 v=110
222464 Off ch=1 n=46 v=0
222464 On ch=1 n=48 v=108
222592 Off ch=1 n=48 v=0
222592 On ch=1 n=46 v=99
222668 Off ch=1 n=89 v=0
222720 On ch=1 n=87 v=93
222720 Off ch=1 n=46 v=0
222720 On ch=1 n=45 v=95
222848 Off ch=1 n=45 v=0
222848 On ch=1 n=41 v=90
222976 Off ch=1 n=41 v=0
222976 On ch=1 n=43 v=93
223104 Off ch=1 n=43 v=0
223104 On ch=1 n=45 v=90
223168 On ch=1 n=84 v=72
223176 Off ch=1 n=87 v=0
223232 On ch=1 n=86 v=75
223232 Off ch=1 n=45 v=0
223232 On ch=1 n=46 v=88
223233 Off ch=1 n=84 v=0
223360 Off ch=1 n=46 v=0
223360 On ch=1 n=50 v=89
223402 Off ch=1 n=86 v=0
223488 On ch=1 n=65 v=37
223488 Off ch=1 n=50 v=0
223488 On ch=1 n=53 v=55
223616 Off ch=1 n=65 v=0
223616 On ch=1 n=63 v=47
223616 Off ch=1 n=53 v=0
223616 On ch=1 n=51 v=52
223744 Off ch=1 n=63 v=0
223744 On ch=1 n=62 v=44
223744 Off ch=1 n=51 v=0
223744 On ch=1 n=50 v=48
223872 Off ch=1 n=62 v=0
223872 On ch=1 n=60 v=48
223872 Off ch=1 n=50 v=0
223872 On ch=1 n=48 v=50
224000 Off ch=1 n=60 v=0
224000 On ch=1 n=58 v=45
224000 Off ch=1 n=48 v=0
224000 On ch=1 n=46 v=50
224128 Off ch=1 n=58 v=0
224128 On ch=1 n=57 v=48
224128 Off ch=1 n=46 v=0
224128 On ch=1 n=45 v=48
224256 Off ch=1 n=57 v=0
224256 On ch=1 n=58 v=50
224256 Off ch=1 n=45 v=0
224256 On ch=1 n=46 v=49
224384 Off ch=1 n=58 v=0
224384 On ch=1 n=62 v=58
224384 Off ch=1 n=46 v=0
224384 On ch=1 n=50 v=56
224512 Off ch=1 n=62 v=0
224512 On ch=1 n=67 v=55
224512 Off ch=1 n=50 v=0
224512 On ch=1 n=55 v=58
224640 Off ch=1 n=67 v=0
224640 On ch=1 n=62 v=47
224640 Off ch=1 n=55 v=0
224640 On ch=1 n=50 v=45
224768 Off ch=1 n=62 v=0
224768 On ch=1 n=60 v=48
224768 Off ch=1 n=50 v=0
224768 On ch=1 n=48 v=47
224896 Off ch=1 n=60 v=0
224896 On ch=1 n=58 v=53
224896 Off ch=1 n=48 v=0
224896 On ch=1 n=46 v=53
225024 Off ch=1 n=58 v=0
225024 On ch=1 n=57 v=53
225024 Off ch=1 n=46 v=0
225024 On ch=1 n=45 v=49
225152 Off ch=1 n=57 v=0
225152 On ch=1 n=55 v=52
225152 Off ch=1 n=45 v=0
225152 On ch=1 n=43 v=55
225280 Off ch=1 n=55 v=0
225280 On ch=1 n=54 v=46
225280 Off ch=1 n=43 v=0
225280 On ch=1 n=42 v=51
225408 Off ch=1 n=42 v=0
225408 On ch=1 n=45 v=50
225536 Off ch=1 n=54 v=0
225536 Off ch=1 n=45 v=0
225536 On ch=1 n=48 v=44
225664 Off ch=1 n=48 v=0
225664 On ch=1 n=46 v=85
225754 On ch=1 n=74 v=105
225792 On ch=1 n=86 v=84
225792 Off ch=1 n=74 v=0
225792 Off ch=1 n=46 v=0
225792 On ch=1 n=45 v=84
225920 Off ch=1 n=45 v=0
225920 On ch=1 n=43 v=85
226048 Off ch=1 n=43 v=0
226048 On ch=1 n=42 v=94
226176 Off ch=1 n=42 v=0
226176 On ch=1 n=40 v=101
226304 Off ch=1 n=40 v=0
226304 On ch=1 n=42 v=114
226432 Off ch=1 n=42 v=0
226432 On ch=1 n=38 v=99
226560 Off ch=1 n=38 v=0
226560 On ch=1 n=42 v=107
226688 Off ch=1 n=42 v=0
226688 On ch=1 n=45 v=105
226764 Off ch=1 n=86 v=0
226816 On ch=1 n=84 v=90
226816 Off ch=1 n=45 v=0
226816 On ch=1 n=50 v=104
226944 Off ch=1 n=50 v=0
226944 On ch=1 n=54 v=96
227072 Off ch=1 n=54 v=0
227072 On ch=1 n=57 v=88
227200 Off ch=1 n=57 v=0
227200 On ch=1 n=62 v=102
227264 On ch=1 n=81 v=81
227272 Off ch=1 n=84 v=0
227328 On ch=1 n=82 v=84
227328 Off ch=1 n=62 v=0
227328 On ch=1 n=55 v=75
227329 Off ch=1 n=81 v=0
227456 Off ch=1 n=55 v=0
227456 On ch=1 n=58 v=53
227498 Off ch=1 n=82 v=0
227584 On ch=1 n=74 v=41
227584 Off ch=1 n=58 v=0
227584 On ch=1 n=62 v=54
227712 Off ch=1 n=74 v=0
227712 On ch=1 n=72 v=47
227712 Off ch=1 n=62 v=0
227712 On ch=1 n=60 v=55
227840 Off ch=1 n=72 v=0
227840 On ch=1 n=70 v=50
227840 Off ch=1 n=60 v=0
227840 On ch=1 n=58 v=50
227968 Off ch=1 n=70 v=0
227968 On ch=1 n=69 v=46
227968 Off ch=1 n=58 v=0
227968 On ch=1 n=57 v=48
228096 Off ch=1 n=69 v=0
228096 On ch=1 n=67 v=50
228096 Off ch=1 n=57 v=0
228096 On ch=1 n=55 v=54
228224 Off ch=1 n=67 v=0
228224 On ch=1 n=66 v=47
228224 Off ch=1 n=55 v=0
228224 On ch=1 n=54 v=49
228352 Off ch=1 n=66 v=0
228352 On ch=1 n=67 v=56
228352 Off ch=1 n=54 v=0
228352 On ch=1 n=55 v=54
228480 Off ch=1 n=67 v=0
228480 On ch=1 n=55 v=44
228480 Off ch=1 n=55 v=0
228480 On ch=1 n=43 v=42
228608 Off ch=1 n=55 v=0
228608 On ch=1 n=58 v=52
228608 Off ch=1 n=43 v=0
228608 On ch=1 n=46 v=53
228736 Off ch=1 n=58 v=0
228736 On ch=1 n=62 v=59
228736 Off ch=1 n=46 v=0
228736 On ch=1 n=50 v=55
228864 Off ch=1 n=62 v=0
228864 On ch=1 n=67 v=61
228864 Off ch=1 n=50 v=0
228864 On ch=1 n=55 v=55
228992 Off ch=1 n=67 v=0
228992 On ch=1 n=62 v=41
228992 Off ch=1 n=55 v=0
228992 On ch=1 n=50 v=47
229120 Off ch=1 n=62 v=0
229120 On ch=1 n=58 v=49
229120 Off ch=1 n=50 v=0
229120 On ch=1 n=46 v=48
229248 Off ch=1 n=58 v=0
229248 On ch=1 n=55 v=48
229248 Off ch=1 n=46 v=0
229248 On ch=1 n=43 v=49
229376 Off ch=1 n=55 v=0
229376 On ch=1 n=56 v=49
229376 Off ch=1 n=43 v=0
229376 On ch=1 n=44 v=52
229504 Off ch=1 n=44 v=0
229504 On ch=1 n=50 v=56
229632 Off ch=1 n=56 v=0
229632 Off ch=1 n=50 v=0
229632 On ch=1 n=47 v=47
229760 Off ch=1 n=47 v=0
229760 On ch=1 n=44 v=80
229888 On ch=1 n=77 v=89
229888 On ch=1 n=89 v=89
229888 Off ch=1 n=44 v=0
229888 On ch=1 n=41 v=96
230016 Off ch=1 n=41 v=0
230016 On ch=1 n=38 v=95
230144 Off ch=1 n=38 v=0
230144 On ch=1 n=35 v=93
230272 Off ch=1 n=35 v=0
230272 On ch=1 n=33 v=93
230400 Off ch=1 n=33 v=0
230400 On ch=1 n=32 v=97
230528 Off ch=1 n=32 v=0
230528 On ch=1 n=35 v=101
230656 Off ch=1 n=35 v=0
230656 On ch=1 n=38 v=100
230784 Off ch=1 n=38 v=0
230784 On ch=1 n=41 v=100
230848 Off ch=1 n=77 v=0
230848 Off ch=1 n=89 v=0
230848 On ch=1 n=76 v=92
230848 On ch=1 n=88 v=92
230912 Off ch=1 n=76 v=0
230912 Off ch=1 n=88 v=0
230912 On ch=1 n=77 v=95
230912 On ch=1 n=89 v=95
230912 Off ch=1 n=41 v=0
230912 On ch=1 n=44 v=103
231040 Off ch=1 n=44 v=0
231040 On ch=1 n=47 v=100
231091 Off ch=1 n=77 v=0
231091 Off ch=1 n=89 v=0
231168 On ch=1 n=77 v=96
231168 On ch=1 n=89 v=96
231168 Off ch=1 n=47 v=0
231168 On ch=1 n=50 v=103
231296 Off ch=1 n=50 v=0
231296 On ch=1 n=44 v=92
231347 Off ch=1 n=77 v=0
231347 Off ch=1 n=89 v=0
231424 On ch=1 n=76 v=95
231424 On ch=1 n=88 v=95
231424 Off ch=1 n=44 v=0
231424 On ch=1 n=33 v=100
231424 On ch=1 n=45 v=100
231552 Off ch=1 n=76 v=0
231552 Off ch=1 n=88 v=0
231552 On ch=1 n=57 v=46
231616 On ch=1 n=61 v=52
231617 Off ch=1 n=57 v=0
231680 On ch=1 n=64 v=55
231680 Off ch=1 n=33 v=0
231680 Off ch=1 n=45 v=0
231681 Off ch=1 n=61 v=0
231808 On ch=1 n=45 v=46
231850 Off ch=1 n=64 v=0
231872 On ch=1 n=49 v=44
231873 Off ch=1 n=45 v=0
231936 On ch=1 n=52 v=56
231937 Off ch=1 n=49 v=0
232064 On ch=1 n=61 v=43
232106 Off ch=1 n=52 v=0
232128 On ch=1 n=64 v=53
232129 Off ch=1 n=61 v=0
232192 On ch=1 n=69 v=55
232193 Off ch=1 n=64 v=0
232320 On ch=1 n=50 v=47
232362 Off ch=1 n=69 v=0
232384 On ch=1 n=53 v=49
232385 Off ch=1 n=50 v=0
232448 On ch=1 n=57 v=52
232449 Off ch=1 n=53 v=0
232576 On ch=1 n=64 v=47
232618 Off ch=1 n=57 v=0
232640 On ch=1 n=69 v=53
232641 Off ch=1 n=64 v=0
232704 On ch=1 n=73 v=55
232705 Off ch=1 n=69 v=0
232832 On ch=1 n=53 v=44
232874 Off ch=1 n=73 v=0
232896 On ch=1 n=57 v=48
232897 Off ch=1 n=53 v=0
232960 On ch=1 n=62 v=58
232961 Off ch=1 n=57 v=0
233088 On ch=1 n=69 v=46
233130 Off ch=1 n=62 v=0
233152 On ch=1 n=73 v=54
233153 Off ch=1 n=69 v=0
233216 On ch=1 n=76 v=56
233217 Off ch=1 n=73 v=0
233344 On ch=1 n=57 v=43
233386 Off ch=1 n=76 v=0
233408 On ch=1 n=62 v=50
233409 Off ch=1 n=57 v=0
233472 On ch=1 n=64 v=55
233473 Off ch=1 n=62 v=0
233600 On ch=1 n=73 v=46
233642 Off ch=1 n=64 v=0
233664 On ch=1 n=76 v=54
233665 Off ch=1 n=73 v=0
233728 On ch=1 n=81 v=63
233729 Off ch=1 n=76 v=0
233856 On ch=1 n=61 v=50
233898 Off ch=1 n=81 v=0
233920 On ch=1 n=64 v=69
233921 Off ch=1 n=61 v=0
233984 On ch=1 n=69 v=73
233985 Off ch=1 n=64 v=0
234112 On ch=1 n=76 v=63
234154 Off ch=1 n=69 v=0
234176 On ch=1 n=81 v=86
234177 Off ch=1 n=76 v=0
234240 On ch=1 n=85 v=71
234241 Off ch=1 n=81 v=0
234368 On ch=1 n=64 v=57
234410 Off ch=1 n=85 v=0
234432 On ch=1 n=69 v=61
234433 Off ch=1 n=64 v=0
234496 On ch=1 n=73 v=69
234497 Off ch=1 n=69 v=0
234624 On ch=1 n=81 v=56
234666 Off ch=1 n=73 v=0
234688 On ch=1 n=85 v=59
234689 Off ch=1 n=81 v=0
234752 On ch=1 n=88 v=53
234753 Off ch=1 n=85 v=0
234880 On ch=1 n=69 v=46
234922 Off ch=1 n=88 v=0
234944 On ch=1 n=73 v=52
234945 Off ch=1 n=69 v=0
235008 On ch=1 n=76 v=52
235009 Off ch=1 n=73 v=0
235136 On ch=1 n=81 v=40
235178 Off ch=1 n=76 v=0
235200 On ch=1 n=85 v=37
235201 Off ch=1 n=81 v=0
235264 On ch=1 n=88 v=40
235265 Off ch=1 n=85 v=0
235434 Off ch=1 n=88 v=0
235520 On ch=1 n=33 v=46
235520 On ch=1 n=45 v=46
235648 On ch=1 n=57 v=44
235712 On ch=1 n=62 v=51
235713 Off ch=1 n=57 v=0
235776 On ch=1 n=65 v=52
235776 Off ch=1 n=33 v=0
235776 Off ch=1 n=45 v=0
235777 Off ch=1 n=62 v=0
235904 On ch=1 n=45 v=44
235946 Off ch=1 n=65 v=0
235968 On ch=1 n=50 v=47
235969 Off ch=1 n=45 v=0
236032 On ch=1 n=53 v=54
236033 Off ch=1 n=50 v=0
236160 On ch=1 n=62 v=44
236202 Off ch=1 n=53 v=0
236224 On ch=1 n=65 v=44
236225 Off ch=1 n=62 v=0
236288 On ch=1 n=69 v=56
236289 Off ch=1 n=65 v=0
236416 On ch=1 n=50 v=45
236458 Off ch=1 n=69 v=0
236480 On ch=1 n=53 v=43
236481 Off ch=1 n=50 v=0
236544 On ch=1 n=57 v=58
236545 Off ch=1 n=53 v=0
236672 On ch=1 n=65 v=47
236714 Off ch=1 n=57 v=0
236736 On ch=1 n=69 v=53
236737 Off ch=1 n=65 v=0
236800 On ch=1 n=74 v=53
236801 Off ch=1 n=69 v=0
236928 On ch=1 n=53 v=47
236970 Off ch=1 n=74 v=0
236992 On ch=1 n=57 v=48
236993 Off ch=1 n=53 v=0
237056 On ch=1 n=62 v=60
237057 Off ch=1 n=57 v=0
237184 On ch=1 n=69 v=49
237226 Off ch=1 n=62 v=0
237248 On ch=1 n=74 v=57
237249 Off ch=1 n=69 v=0
237312 On ch=1 n=77 v=52
237313 Off ch=1 n=74 v=0
237440 On ch=1 n=57 v=45
237482 Off ch=1 n=77 v=0
237504 On ch=1 n=62 v=47
237505 Off ch=1 n=57 v=0
237568 On ch=1 n=65 v=57
237569 Off ch=1 n=62 v=0
237696 On ch=1 n=74 v=54
237738 Off ch=1 n=65 v=0
237760 On ch=1 n=77 v=57
237761 Off ch=1 n=74 v=0
237824 On ch=1 n=81 v=70
237825 Off ch=1 n=77 v=0
237952 On ch=1 n=57 v=55
237994 Off ch=1 n=81 v=0
238016 On ch=1 n=62 v=72
238017 Off ch=1 n=57 v=0
238080 On ch=1 n=65 v=70
238081 Off ch=1 n=62 v=0
238208 On ch=1 n=77 v=60
238250 Off ch=1 n=65 v=0
238272 On ch=1 n=81 v=74
238273 Off ch=1 n=77 v=0
238336 On ch=1 n=86 v=83
238337 Off ch=1 n=81 v=0
238464 On ch=1 n=57 v=68
238506 Off ch=1 n=86 v=0
238528 On ch=1 n=63 v=72
238529 Off ch=1 n=57 v=0
238592 On ch=1 n=66 v=65
238593 Off ch=1 n=63 v=0
238720 On ch=1 n=78 v=53
238762 Off ch=1 n=66 v=0
238784 On ch=1 n=81 v=59
238785 Off ch=1 n=78 v=0
238848 On ch=1 n=87 v=60
238849 Off ch=1 n=81 v=0
238976 On ch=1 n=57 v=42
239018 Off ch=1 n=87 v=0
239040 On ch=1 n=63 v=55
239041 Off ch=1 n=57 v=0
239104 On ch=1 n=66 v=52
239105 Off ch=1 n=63 v=0
239232 On ch=1 n=78 v=40
239274 Off ch=1 n=66 v=0
239296 On ch=1 n=81 v=45
239297 Off ch=1 n=78 v=0
239360 On ch=1 n=87 v=51
239361 Off ch=1 n=81 v=0
239530 Off ch=1 n=87 v=0
239616 On ch=1 n=33 v=45
239616 On ch=1 n=45 v=45
239744 On ch=1 n=61 v=48
239808 On ch=1 n=64 v=49
239809 Off ch=1 n=61 v=0
239872 On ch=1 n=67 v=56
239872 Off ch=1 n=33 v=0
239872 Off ch=1 n=45 v=0
239873 Off ch=1 n=64 v=0
240000 On ch=1 n=45 v=45
240042 Off ch=1 n=67 v=0
240064 On ch=1 n=52 v=51
240065 Off ch=1 n=45 v=0
240128 On ch=1 n=55 v=55
240129 Off ch=1 n=52 v=0
240256 On ch=1 n=64 v=46
240298 Off ch=1 n=55 v=0
240320 On ch=1 n=67 v=52
240321 Off ch=1 n=64 v=0
240384 On ch=1 n=73 v=60
240385 Off ch=1 n=67 v=0
240512 On ch=1 n=52 v=51
240554 Off ch=1 n=73 v=0
240576 On ch=1 n=55 v=62
240577 Off ch=1 n=52 v=0
240640 On ch=1 n=61 v=62
240641 Off ch=1 n=55 v=0
240768 On ch=1 n=67 v=45
240810 Off ch=1 n=61 v=0
240832 On ch=1 n=73 v=51
240833 Off ch=1 n=67 v=0
240896 On ch=1 n=76 v=56
240897 Off ch=1 n=73 v=0
241024 On ch=1 n=55 v=59
241066 Off ch=1 n=76 v=0
241088 On ch=1 n=61 v=73
241089 Off ch=1 n=55 v=0
241152 On ch=1 n=64 v=75
241153 Off ch=1 n=61 v=0
241280 On ch=1 n=73 v=51
241322 Off ch=1 n=64 v=0
241344 On ch=1 n=76 v=62
241345 Off ch=1 n=73 v=0
241408 On ch=1 n=79 v=66
241409 Off ch=1 n=76 v=0
241536 On ch=1 n=49 v=61
241578 Off ch=1 n=79 v=0
241600 On ch=1 n=52 v=65
241601 Off ch=1 n=49 v=0
241664 On ch=1 n=55 v=74
241665 Off ch=1 n=52 v=0
241792 On ch=1 n=76 v=54
241834 Off ch=1 n=55 v=0
241856 On ch=1 n=79 v=70
241857 Off ch=1 n=76 v=0
241920 On ch=1 n=85 v=78
241921 Off ch=1 n=79 v=0
242048 On ch=1 n=52 v=68
242090 Off ch=1 n=85 v=0
242112 On ch=1 n=55 v=82
242113 Off ch=1 n=52 v=0
242176 On ch=1 n=61 v=89
242177 Off ch=1 n=55 v=0
242304 On ch=1 n=79 v=58
242346 Off ch=1 n=61 v=0
242368 On ch=1 n=85 v=85
242369 Off ch=1 n=79 v=0
242432 On ch=1 n=88 v=80
242433 Off ch=1 n=85 v=0
242560 On ch=1 n=45 v=78
242602 Off ch=1 n=88 v=0
242624 On ch=1 n=52 v=95
242625 Off ch=1 n=45 v=0
242688 On ch=1 n=55 v=91
242689 Off ch=1 n=52 v=0
242816 On ch=1 n=64 v=66
242858 Off ch=1 n=55 v=0
242880 On ch=1 n=67 v=66
242881 Off ch=1 n=64 v=0
242944 On ch=1 n=73 v=78
242945 Off ch=1 n=67 v=0
243072 On ch=1 n=33 v=78
243114 Off ch=1 n=73 v=0
243136 On ch=1 n=40 v=84
243137 Off ch=1 n=33 v=0
243200 On ch=1 n=43 v=85
243201 Off ch=1 n=40 v=0
243328 On ch=1 n=52 v=74
243370 Off ch=1 n=43 v=0
243392 On ch=1 n=55 v=76
243393 Off ch=1 n=52 v=0
243456 On ch=1 n=61 v=94
243457 Off ch=1 n=55 v=0
243626 Off ch=1 n=61 v=0
243712 On ch=1 n=54 v=120
243712 On ch=1 n=57 v=120
243712 On ch=1 n=62 v=120
243712 On ch=1 n=38 v=90
243712 On ch=1 n=42 v=90
243712 On ch=1 n=45 v=90
243712 On ch=1 n=50 v=90
244480 Off ch=1 n=54 v=0
244480 Off ch=1 n=57 v=0
244480 Off ch=1 n=62 v=0
244480 Off ch=1 n=38 v=0
244480 Off ch=1 n=42 v=0
244480 Off ch=1 n=45 v=0
244480 Off ch=1 n=50 v=0
244608 On ch=1 n=57 v=102
244608 On ch=1 n=45 v=90
244672 On ch=1 n=62 v=115
244672 On ch=1 n=50 v=99
244673 Off ch=1 n=57 v=0
244673 Off ch=1 n=45 v=0
244736 On ch=1 n=66 v=127
244736 On ch=1 n=54 v=102
244737 Off ch=1 n=62 v=0
244737 Off ch=1 n=50 v=0
244906 Off ch=1 n=66 v=0
244906 Off ch=1 n=54 v=0
245120 On ch=1 n=62 v=98
245120 On ch=1 n=50 v=87
245184 On ch=1 n=66 v=105
245184 On ch=1 n=54 v=94
245185 Off ch=1 n=62 v=0
245185 Off ch=1 n=50 v=0
245248 On ch=1 n=69 v=123
245248 On ch=1 n=57 v=98
245249 Off ch=1 n=66 v=0
245249 Off ch=1 n=54 v=0
245418 Off ch=1 n=69 v=0
245418 Off ch=1 n=57 v=0
245632 On ch=1 n=69 v=102
245632 On ch=1 n=57 v=90
245696 On ch=1 n=66 v=89
245696 On ch=1 n=54 v=84
245697 Off ch=1 n=69 v=0
245697 Off ch=1 n=57 v=0
245760 On ch=1 n=62 v=102
245760 On ch=1 n=50 v=91
245761 Off ch=1 n=66 v=0
245761 Off ch=1 n=54 v=0
245930 Off ch=1 n=62 v=0
245930 Off ch=1 n=50 v=0
246656 On ch=1 n=66 v=95
246656 On ch=1 n=54 v=87
246720 On ch=1 n=62 v=81
246720 On ch=1 n=50 v=83
246721 Off ch=1 n=66 v=0
246721 Off ch=1 n=54 v=0
246784 On ch=1 n=57 v=100
246784 On ch=1 n=45 v=89
246785 Off ch=1 n=62 v=0
246785 Off ch=1 n=50 v=0
246954 Off ch=1 n=57 v=0
246954 Off ch=1 n=45 v=0
247168 On ch=1 n=62 v=102
247168 On ch=1 n=50 v=87
247232 On ch=1 n=57 v=92
247232 On ch=1 n=45 v=79
247233 Off ch=1 n=62 v=0
247233 Off ch=1 n=50 v=0
247296 On ch=1 n=54 v=106
247296 On ch=1 n=42 v=91
247297 Off ch=1 n=57 v=0
247297 Off ch=1 n=45 v=0
247466 Off ch=1 n=54 v=0
247466 Off ch=1 n=42 v=0
247680 On ch=1 n=57 v=105
247680 On ch=1 n=45 v=87
247744 On ch=1 n=54 v=100
247744 On ch=1 n=42 v=81
247745 Off ch=1 n=57 v=0
247745 Off ch=1 n=45 v=0
247804 Off ch=1 n=54 v=0
247808 On ch=1 n=50 v=59
247808 On ch=1 n=38 v=62
247808 On ch=1 n=45 v=62
247809 Off ch=1 n=42 v=0
247936 On ch=1 n=54 v=60
247938 Off ch=1 n=50 v=0
248064 On ch=1 n=57 v=60
248066 Off ch=1 n=54 v=0
248192 On ch=1 n=55 v=56
248194 Off ch=1 n=57 v=0
248320 On ch=1 n=54 v=60
248322 Off ch=1 n=55 v=0
248448 On ch=1 n=52 v=57
248450 Off ch=1 n=54 v=0
248576 On ch=1 n=50 v=56
248578 Off ch=1 n=52 v=0
248704 On ch=1 n=49 v=55
248706 Off ch=1 n=50 v=0
248780 Off ch=1 n=38 v=0
248780 Off ch=1 n=45 v=0
248832 On ch=1 n=50 v=64
248832 On ch=1 n=42 v=64
248832 On ch=1 n=45 v=64
248832 On ch=1 n=50 v=64
248834 Off ch=1 n=49 v=0
248960 On ch=1 n=52 v=66
248962 Off ch=1 n=50 v=0
249088 On ch=1 n=54 v=60
249090 Off ch=1 n=52 v=0
249216 On ch=1 n=55 v=61
249218 Off ch=1 n=54 v=0
249344 On ch=1 n=57 v=60
249346 Off ch=1 n=55 v=0
249472 On ch=1 n=59 v=62
249474 Off ch=1 n=57 v=0
249600 On ch=1 n=61 v=68
249602 Off ch=1 n=59 v=0
249728 On ch=1 n=62 v=75
249730 Off ch=1 n=61 v=0
249856 On ch=1 n=57 v=58
249856 Off ch=1 n=42 v=0
249856 Off ch=1 n=45 v=0
249856 Off ch=1 n=50 v=0
249856 On ch=1 n=40 v=58
249856 On ch=1 n=45 v=58
249856 On ch=1 n=49 v=58
249858 Off ch=1 n=62 v=0
249984 On ch=1 n=61 v=63
249986 Off ch=1 n=57 v=0
250112 On ch=1 n=64 v=65
250114 Off ch=1 n=61 v=0
250240 On ch=1 n=62 v=64
250242 Off ch=1 n=64 v=0
250368 On ch=1 n=61 v=56
250370 Off ch=1 n=62 v=0
250496 On ch=1 n=59 v=56
250498 Off ch=1 n=61 v=0
250624 On ch=1 n=57 v=58
250626 Off ch=1 n=59 v=0
250752 On ch=1 n=56 v=60
250754 Off ch=1 n=57 v=0
250880 On ch=1 n=57 v=66
250880 Off ch=1 n=40 v=0
250880 Off ch=1 n=45 v=0
250880 Off ch=1 n=49 v=0
250880 On ch=1 n=43 v=60
250880 On ch=1 n=45 v=60
250880 On ch=1 n=52 v=60
250882 Off ch=1 n=56 v=0
251008 On ch=1 n=59 v=71
251010 Off ch=1 n=57 v=0
251136 On ch=1 n=61 v=67
251138 Off ch=1 n=59 v=0
251264 On ch=1 n=62 v=75
251266 Off ch=1 n=61 v=0
251392 On ch=1 n=64 v=65
251394 Off ch=1 n=62 v=0
251520 On ch=1 n=66 v=75
251522 Off ch=1 n=64 v=0
251648 On ch=1 n=67 v=64
251650 Off ch=1 n=66 v=0
251776 On ch=1 n=64 v=55
251778 Off ch=1 n=67 v=0
251904 On ch=1 n=62 v=58
251904 Off ch=1 n=43 v=0
251904 Off ch=1 n=45 v=0
251904 Off ch=1 n=52 v=0
251904 On ch=1 n=42 v=63
251904 On ch=1 n=45 v=63
251904 On ch=1 n=50 v=63
251906 Off ch=1 n=64 v=0
252032 On ch=1 n=66 v=72
252034 Off ch=1 n=62 v=0
252160 On ch=1 n=69 v=65
252162 Off ch=1 n=66 v=0
252288 On ch=1 n=67 v=58
252290 Off ch=1 n=69 v=0
252416 On ch=1 n=66 v=63
252418 Off ch=1 n=67 v=0
252544 On ch=1 n=64 v=61
252546 Off ch=1 n=66 v=0
252672 On ch=1 n=62 v=62
252674 Off ch=1 n=64 v=0
252800 On ch=1 n=61 v=64
252802 Off ch=1 n=62 v=0
252928 On ch=1 n=62 v=71
252928 Off ch=1 n=42 v=0
252928 Off ch=1 n=45 v=0
252928 Off ch=1 n=50 v=0
252928 On ch=1 n=48 v=74
252928 On ch=1 n=50 v=74
252928 On ch=1 n=57 v=74
252930 Off ch=1 n=61 v=0
253056 On ch=1 n=64 v=75
253058 Off ch=1 n=62 v=0
253184 On ch=1 n=66 v=74
253186 Off ch=1 n=64 v=0
253312 On ch=1 n=67 v=75
253314 Off ch=1 n=66 v=0
253440 On ch=1 n=69 v=80
253442 Off ch=1 n=67 v=0
253568 On ch=1 n=71 v=82
253570 Off ch=1 n=69 v=0
253696 On ch=1 n=72 v=78
253698 Off ch=1 n=71 v=0
253824 On ch=1 n=73 v=79
253826 Off ch=1 n=72 v=0
253952 On ch=1 n=74 v=83
253952 Off ch=1 n=48 v=0
253952 Off ch=1 n=50 v=0
253952 Off ch=1 n=57 v=0
253952 On ch=1 n=47 v=80
253952 On ch=1 n=50 v=80
253952 On ch=1 n=55 v=80
253954 Off ch=1 n=73 v=0
254080 On ch=1 n=76 v=84
254082 Off ch=1 n=74 v=0
254208 On ch=1 n=78 v=86
254210 Off ch=1 n=76 v=0
254336 On ch=1 n=79 v=82
254338 Off ch=1 n=78 v=0
254464 On ch=1 n=80 v=89
254464 Off ch=1 n=47 v=0
254464 Off ch=1 n=50 v=0
254464 Off ch=1 n=55 v=0
254464 On ch=1 n=43 v=78
254464 On ch=1 n=50 v=78
254464 On ch=1 n=52 v=78
254466 Off ch=1 n=79 v=0
254592 On ch=1 n=81 v=88
254594 Off ch=1 n=80 v=0
254720 On ch=1 n=82 v=91
254722 Off ch=1 n=81 v=0
254848 On ch=1 n=83 v=100
254850 Off ch=1 n=82 v=0
254969 Off ch=1 n=83 v=0
254976 On ch=1 n=83 v=73
254976 Off ch=1 n=43 v=0
254976 Off ch=1 n=50 v=0
254976 Off ch=1 n=52 v=0
254976 On ch=1 n=45 v=62
254976 On ch=1 n=50 v=62
254976 On ch=1 n=54 v=62
255104 On ch=1 n=81 v=69
255106 Off ch=1 n=83 v=0
255232 On ch=1 n=79 v=72
255234 Off ch=1 n=81 v=0
255360 On ch=1 n=78 v=65
255362 Off ch=1 n=79 v=0
255481 Off ch=1 n=78 v=0
255488 On ch=1 n=78 v=72
255488 Off ch=1 n=45 v=0
255488 Off ch=1 n=50 v=0
255488 Off ch=1 n=54 v=0
255488 On ch=1 n=45 v=66
255488 On ch=1 n=52 v=66
255488 On ch=1 n=55 v=66
255616 On ch=1 n=76 v=63
255618 Off ch=1 n=78 v=0
255744 On ch=1 n=74 v=67
255746 Off ch=1 n=76 v=0
255872 On ch=1 n=73 v=59
255874 Off ch=1 n=74 v=0
255993 Off ch=1 n=73 v=0
256000 On ch=1 n=74 v=76
256000 Off ch=1 n=45 v=0
256000 Off ch=1 n=52 v=0
256000 Off ch=1 n=55 v=0
256000 On ch=1 n=50 v=56
256000 On ch=1 n=54 v=56
256256 Off ch=1 n=74 v=0
256448 On ch=1 n=69 v=72
256512 On ch=1 n=81 v=88
256513 Off ch=1 n=69 v=0
257024 Off ch=1 n=50 v=0
257024 Off ch=1 n=54 v=0
257024 On ch=1 n=54 v=88
257024 On ch=1 n=57 v=88
257079 Off ch=1 n=81 v=0
257109 On ch=1 n=78 v=74
257194 Off ch=1 n=78 v=0
257194 On ch=1 n=74 v=75
257280 Off ch=1 n=74 v=0
257280 On ch=1 n=69 v=69
257365 Off ch=1 n=69 v=0
257365 On ch=1 n=66 v=79
257450 Off ch=1 n=66 v=0
257450 On ch=1 n=62 v=76
257536 Off ch=1 n=62 v=0
257536 On ch=1 n=62 v=81
257715 Off ch=1 n=62 v=0
257792 On ch=1 n=62 v=88
257971 Off ch=1 n=62 v=0
257978 On ch=1 n=61 v=81
258001 On ch=1 n=62 v=81
258023 On ch=1 n=64 v=81
258048 On ch=1 n=62 v=81
258048 Off ch=1 n=61 v=0
258048 Off ch=1 n=62 v=0
258048 Off ch=1 n=64 v=0
258048 Off ch=1 n=54 v=0
258048 Off ch=1 n=57 v=0
258048 On ch=1 n=52 v=82
258048 On ch=1 n=57 v=82
258295 Off ch=1 n=62 v=0
258304 On ch=1 n=61 v=77
258425 Off ch=1 n=61 v=0
258496 On ch=1 n=69 v=76
258560 On ch=1 n=79 v=92
258561 Off ch=1 n=69 v=0
259072 Off ch=1 n=52 v=0
259072 Off ch=1 n=57 v=0
259072 On ch=1 n=55 v=81
259072 On ch=1 n=57 v=81
259127 Off ch=1 n=79 v=0
259157 On ch=1 n=76 v=80
259242 Off ch=1 n=76 v=0
259242 On ch=1 n=73 v=77
259328 Off ch=1 n=73 v=0
259328 On ch=1 n=67 v=65
259413 Off ch=1 n=67 v=0
259413 On ch=1 n=64 v=71
259498 Off ch=1 n=64 v=0
259498 On ch=1 n=61 v=73
259584 Off ch=1 n=61 v=0
259584 On ch=1 n=61 v=85
259763 Off ch=1 n=61 v=0
259840 On ch=1 n=61 v=89
260019 Off ch=1 n=61 v=0
260096 On ch=1 n=64 v=91
260096 Off ch=1 n=55 v=0
260096 Off ch=1 n=57 v=0
260096 On ch=1 n=54 v=84
260096 On ch=1 n=57 v=84
260352 Off ch=1 n=64 v=0
260352 On ch=1 n=63 v=82
260480 Off ch=1 n=63 v=0
260544 On ch=1 n=71 v=73
260608 On ch=1 n=83 v=123
260609 Off ch=1 n=71 v=0
261120 Off ch=1 n=54 v=0
261120 Off ch=1 n=57 v=0
261120 On ch=1 n=42 v=88
261120 On ch=1 n=45 v=88
261120 On ch=1 n=47 v=88
261120 On ch=1 n=51 v=88
261175 Off ch=1 n=83 v=0
261205 On ch=1 n=78 v=72
261290 Off ch=1 n=78 v=0
261290 On ch=1 n=75 v=74
261376 Off ch=1 n=75 v=0
261376 On ch=1 n=71 v=73
261461 Off ch=1 n=71 v=0
261461 On ch=1 n=66 v=70
261546 Off ch=1 n=66 v=0
261546 On ch=1 n=63 v=72
261632 Off ch=1 n=63 v=0
261632 On ch=1 n=63 v=80
261811 Off ch=1 n=63 v=0
261888 On ch=1 n=63 v=82
262067 Off ch=1 n=63 v=0
262144 On ch=1 n=64 v=90
262144 Off ch=1 n=42 v=0
262144 Off ch=1 n=45 v=0
262144 Off ch=1 n=47 v=0
262144 Off ch=1 n=51 v=0
262144 On ch=1 n=43 v=83
262144 On ch=1 n=47 v=83
262144 On ch=1 n=52 v=83
262272 On ch=1 n=66 v=96
262274 Off ch=1 n=64 v=0
262400 On ch=1 n=67 v=88
262402 Off ch=1 n=66 v=0
262528 On ch=1 n=69 v=97
262530 Off ch=1 n=67 v=0
262656 On ch=1 n=71 v=89
262658 Off ch=1 n=69 v=0
262784 On ch=1 n=73 v=94
262786 Off ch=1 n=71 v=0
262912 On ch=1 n=74 v=88
262914 Off ch=1 n=73 v=0
263040 On ch=1 n=75 v=93
263042 Off ch=1 n=74 v=0
263161 Off ch=1 n=75 v=0
263168 On ch=1 n=76 v=90
263168 Off ch=1 n=43 v=0
263168 Off ch=1 n=47 v=0
263168 Off ch=1 n=52 v=0
263168 On ch=1 n=44 v=83
263168 On ch=1 n=47 v=83
263168 On ch=1 n=50 v=83
263168 On ch=1 n=52 v=83
263296 On ch=1 n=77 v=95
263298 Off ch=1 n=76 v=0
263424 On ch=1 n=78 v=88
263426 Off ch=1 n=77 v=0
263552 On ch=1 n=76 v=85
263554 Off ch=1 n=78 v=0
263673 Off ch=1 n=76 v=0
263680 On ch=1 n=76 v=80
263808 On ch=1 n=74 v=74
263810 Off ch=1 n=76 v=0
263936 On ch=1 n=73 v=81
263938 Off ch=1 n=74 v=0
264064 On ch=1 n=71 v=78
264066 Off ch=1 n=73 v=0
264185 Off ch=1 n=71 v=0
264192 On ch=1 n=69 v=91
264192 Off ch=1 n=44 v=0
264192 Off ch=1 n=47 v=0
264192 Off ch=1 n=50 v=0
264192 Off ch=1 n=52 v=0
264192 On ch=1 n=49 v=94
264320 Off ch=1 n=49 v=0
264320 On ch=1 n=45 v=89
264448 Off ch=1 n=69 v=0
264448 On ch=1 n=61 v=95
264448 On ch=1 n=64 v=95
264448 On ch=1 n=69 v=95
264448 Off ch=1 n=45 v=0
264448 On ch=1 n=49 v=101
264576 Off ch=1 n=49 v=0
264576 On ch=1 n=45 v=94
264704 Off ch=1 n=45 v=0
264704 On ch=1 n=52 v=106
264832 Off ch=1 n=52 v=0
264832 On ch=1 n=45 v=91
264960 Off ch=1 n=61 v=0
264960 Off ch=1 n=64 v=0
264960 Off ch=1 n=69 v=0
264960 On ch=1 n=61 v=101
264960 On ch=1 n=64 v=101
264960 On ch=1 n=69 v=101
264960 Off ch=1 n=45 v=0
264960 On ch=1 n=52 v=106
265088 Off ch=1 n=52 v=0
265088 On ch=1 n=45 v=90
265216 Off ch=1 n=45 v=0
265216 On ch=1 n=57 v=109
265344 Off ch=1 n=57 v=0
265344 On ch=1 n=45 v=87
265472 Off ch=1 n=61 v=0
265472 Off ch=1 n=64 v=0
265472 Off ch=1 n=69 v=0
265472 On ch=1 n=61 v=102
265472 On ch=1 n=64 v=102
265472 On ch=1 n=69 v=102
265472 Off ch=1 n=45 v=0
265472 On ch=1 n=57 v=114
265600 Off ch=1 n=57 v=0
265600 On ch=1 n=45 v=87
265728 Off ch=1 n=45 v=0
265728 On ch=1 n=49 v=99
265856 Off ch=1 n=49 v=0
265856 On ch=1 n=45 v=90
265984 Off ch=1 n=61 v=0
265984 Off ch=1 n=64 v=0
265984 Off ch=1 n=69 v=0
265984 On ch=1 n=61 v=101
265984 On ch=1 n=64 v=101
265984 On ch=1 n=69 v=101
265984 Off ch=1 n=45 v=0
265984 On ch=1 n=49 v=103
266112 Off ch=1 n=49 v=0
266112 On ch=1 n=45 v=88
266163 Off ch=1 n=61 v=0
266163 Off ch=1 n=64 v=0
266163 Off ch=1 n=69 v=0
266192 On ch=1 n=74 v=127
266240 On ch=1 n=86 v=127
266240 Off ch=1 n=74 v=0
266240 Off ch=1 n=45 v=0
266240 On ch=1 n=47 v=98
266368 Off ch=1 n=47 v=0
266368 On ch=1 n=45 v=93
266496 Off ch=1 n=45 v=0
266496 On ch=1 n=47 v=103
266624 Off ch=1 n=47 v=0
266624 On ch=1 n=45 v=93
266752 Off ch=1 n=45 v=0
266752 On ch=1 n=50 v=107
266848 Off ch=1 n=86 v=0
266880 On ch=1 n=85 v=107
266880 Off ch=1 n=50 v=0
266880 On ch=1 n=45 v=96
266944 On ch=1 n=83 v=98
266945 Off ch=1 n=85 v=0
267008 On ch=1 n=81 v=105
267008 Off ch=1 n=45 v=0
267008 On ch=1 n=50 v=100
267009 Off ch=1 n=83 v=0
267072 On ch=1 n=80 v=103
267073 Off ch=1 n=81 v=0
267136 On ch=1 n=78 v=107
267136 Off ch=1 n=50 v=0
267136 On ch=1 n=45 v=94
267137 Off ch=1 n=80 v=0
267200 On ch=1 n=76 v=101
267201 Off ch=1 n=78 v=0
267264 On ch=1 n=74 v=107
267264 Off ch=1 n=45 v=0
267264 On ch=1 n=52 v=105
267265 Off ch=1 n=76 v=0
267348 Off ch=1 n=74 v=0
267392 On ch=1 n=73 v=106
267392 Off ch=1 n=52 v=0
267392 On ch=1 n=45 v=88
267456 On ch=1 n=71 v=99
267457 Off ch=1 n=73 v=0
267520 On ch=1 n=69 v=106
267520 Off ch=1 n=45 v=0
267520 On ch=1 n=52 v=105
267521 Off ch=1 n=71 v=0
267584 On ch=1 n=68 v=106
267585 Off ch=1 n=69 v=0
267648 On ch=1 n=66 v=103
267648 Off ch=1 n=52 v=0
267648 On ch=1 n=45 v=92
267649 Off ch=1 n=68 v=0
267712 On ch=1 n=64 v=97
267713 Off ch=1 n=66 v=0
267776 On ch=1 n=62 v=107
267776 Off ch=1 n=45 v=0
267776 On ch=1 n=56 v=110
267777 Off ch=1 n=64 v=0
267904 Off ch=1 n=56 v=0
267904 On ch=1 n=45 v=89
267946 Off ch=1 n=62 v=0
268032 On ch=1 n=62 v=109
268032 Off ch=1 n=45 v=0
268032 On ch=1 n=56 v=108
268160 Off ch=1 n=56 v=0
268160 On ch=1 n=45 v=87
268211 Off ch=1 n=62 v=0
268288 On ch=1 n=61 v=123
268288 On ch=1 n=73 v=123
268288 Off ch=1 n=45 v=0
268288 On ch=1 n=57 v=111
268416 Off ch=1 n=57 v=0
268416 On ch=1 n=45 v=87
268544 Off ch=1 n=45 v=0
268544 On ch=1 n=57 v=110
268672 Off ch=1 n=57 v=0
268672 On ch=1 n=45 v=85
268800 Off ch=1 n=61 v=0
268800 Off ch=1 n=73 v=0
268800 On ch=1 n=64 v=112
268800 On ch=1 n=76 v=112
268800 Off ch=1 n=45 v=0
268800 On ch=1 n=52 v=107
268928 Off ch=1 n=52 v=0
268928 On ch=1 n=45 v=89
269056 Off ch=1 n=45 v=0
269056 On ch=1 n=52 v=103
269184 Off ch=1 n=52 v=0
269184 On ch=1 n=45 v=94
269312 Off ch=1 n=64 v=0
269312 Off ch=1 n=76 v=0
269312 On ch=1 n=69 v=112
269312 On ch=1 n=81 v=112
269312 Off ch=1 n=45 v=0
269312 On ch=1 n=49 v=104
269440 Off ch=1 n=49 v=0
269440 On ch=1 n=45 v=94
269568 Off ch=1 n=45 v=0
269568 On ch=1 n=49 v=102
269696 Off ch=1 n=49 v=0
269696 On ch=1 n=45 v=93
269824 Off ch=1 n=69 v=0
269824 Off ch=1 n=81 v=0
269824 On ch=1 n=73 v=109
269824 On ch=1 n=85 v=109
269824 Off ch=1 n=45 v=0
269824 On ch=1 n=52 v=106
269952 Off ch=1 n=52 v=0
269952 On ch=1 n=45 v=92
270080 Off ch=1 n=45 v=0
270080 On ch=1 n=52 v=105
270208 Off ch=1 n=52 v=0
270208 On ch=1 n=45 v=95
270336 Off ch=1 n=73 v=0
270336 Off ch=1 n=85 v=0
270336 On ch=1 n=74 v=117
270336 On ch=1 n=86 v=117
270336 Off ch=1 n=45 v=0
270336 On ch=1 n=34 v=116
270336 On ch=1 n=46 v=116
270515 Off ch=1 n=74 v=0
270515 Off ch=1 n=86 v=0
270592 On ch=1 n=77 v=127
270592 On ch=1 n=89 v=127
270848 Off ch=1 n=34 v=0
270848 Off ch=1 n=46 v=0
270848 On ch=1 n=38 v=127
270848 On ch=1 n=50 v=127
271104 Off ch=1 n=77 v=0
271104 Off ch=1 n=89 v=0
271104 On ch=1 n=89 v=111
271168 Off ch=1 n=89 v=0
271168 On ch=1 n=88 v=106
271232 Off ch=1 n=88 v=0
271232 On ch=1 n=86 v=102
271296 Off ch=1 n=86 v=0
271296 On ch=1 n=85 v=104
271360 Off ch=1 n=85 v=0
271360 On ch=1 n=86 v=119
271360 Off ch=1 n=38 v=0
271360 Off ch=1 n=50 v=0
271360 On ch=1 n=41 v=121
271360 On ch=1 n=53 v=121
271539 Off ch=1 n=86 v=0
271616 On ch=1 n=86 v=109
271680 On ch=1 n=84 v=102
271681 Off ch=1 n=86 v=0
271744 On ch=1 n=82 v=106
271745 Off ch=1 n=84 v=0
271808 On ch=1 n=81 v=99
271809 Off ch=1 n=82 v=0
271868 Off ch=1 n=81 v=0
271872 On ch=1 n=68 v=112
271872 On ch=1 n=80 v=112
271872 Off ch=1 n=41 v=0
271872 Off ch=1 n=53 v=0
271872 On ch=1 n=46 v=124
271872 On ch=1 n=58 v=124
272051 Off ch=1 n=68 v=0
272051 Off ch=1 n=80 v=0
272128 On ch=1 n=68 v=113
272128 On ch=1 n=80 v=113
272307 Off ch=1 n=68 v=0
272307 Off ch=1 n=80 v=0
272384 On ch=1 n=69 v=116
272384 On ch=1 n=81 v=116
272384 Off ch=1 n=46 v=0
272384 Off ch=1 n=58 v=0
272384 On ch=1 n=45 v=112
272384 On ch=1 n=57 v=112
272640 Off ch=1 n=69 v=0
272640 Off ch=1 n=81 v=0
272640 Off ch=1 n=45 v=0
272640 Off ch=1 n=57 v=0
272960 On ch=1 n=45 v=102
272960 On ch=1 n=33 v=99
273024 On ch=1 n=47 v=100
273024 On ch=1 n=35 v=100
273025 Off ch=1 n=45 v=0
273025 Off ch=1 n=33 v=0
273088 On ch=1 n=49 v=117
273088 On ch=1 n=37 v=117
273089 Off ch=1 n=47 v=0
273089 Off ch=1 n=35 v=0
273152 On ch=1 n=50 v=119
273152 On ch=1 n=38 v=122
273153 Off ch=1 n=49 v=0
273153 Off ch=1 n=37 v=0
273216 On ch=1 n=52 v=117
273216 On ch=1 n=40 v=117
273217 Off ch=1 n=50 v=0
273217 Off ch=1 n=38 v=0
273280 On ch=1 n=54 v=117
273280 On ch=1 n=42 v=122
273281 Off ch=1 n=52 v=0
273281 Off ch=1 n=40 v=0
273344 On ch=1 n=56 v=114
273344 On ch=1 n=44 v=116
273345 Off ch=1 n=54 v=0
273345 Off ch=1 n=42 v=0
273408 On ch=1 n=57 v=127
273408 On ch=1 n=45 v=127
273409 Off ch=1 n=56 v=0
273409 Off ch=1 n=44 v=0
273492 Off ch=1 n=57 v=0
273492 Off ch=1 n=45 v=0
273536 On ch=1 n=59 v=115
273536 On ch=1 n=47 v=118
273600 On ch=1 n=61 v=124
273600 On ch=1 n=49 v=119
273601 Off ch=1 n=59 v=0
273601 Off ch=1 n=47 v=0
273664 On ch=1 n=62 v=119
273664 On ch=1 n=50 v=122
273665 Off ch=1 n=61 v=0
273665 Off ch=1 n=49 v=0
273728 On ch=1 n=64 v=125
273728 On ch=1 n=52 v=125
273729 Off ch=1 n=62 v=0
273729 Off ch=1 n=50 v=0
273792 On ch=1 n=66 v=117
273792 On ch=1 n=54 v=119
273793 Off ch=1 n=64 v=0
273793 Off ch=1 n=52 v=0
273856 On ch=1 n=68 v=127
273856 On ch=1 n=56 v=127
273857 Off ch=1 n=66 v=0
273857 Off ch=1 n=54 v=0
273920 On ch=1 n=69 v=127
273920 On ch=1 n=57 v=127
273921 Off ch=1 n=68 v=0
273921 Off ch=1 n=56 v=0
274004 Off ch=1 n=69 v=0
274004 Off ch=1 n=57 v=0
274048 On ch=1 n=71 v=119
274048 On ch=1 n=59 v=117
274112 On ch=1 n=73 v=127
274112 On ch=1 n=61 v=122
274113 Off ch=1 n=71 v=0
274113 Off ch=1 n=59 v=0
274176 On ch=1 n=74 v=117
274176 On ch=1 n=62 v=119
274177 Off ch=1 n=73 v=0
274177 Off ch=1 n=61 v=0
274240 On ch=1 n=76 v=125
274240 On ch=1 n=64 v=127
274241 Off ch=1 n=74 v=0
274241 Off ch=1 n=62 v=0
274304 On ch=1 n=78 v=127
274304 On ch=1 n=66 v=122
274305 Off ch=1 n=76 v=0
274305 Off ch=1 n=64 v=0
274368 On ch=1 n=80 v=127
274368 On ch=1 n=68 v=124
274369 Off ch=1 n=78 v=0
274369 Off ch=1 n=66 v=0
274432 On ch=1 n=81 v=127
274432 On ch=1 n=69 v=115
274433 Off ch=1 n=80 v=0
274433 Off ch=1 n=68 v=0
274602 Off ch=1 n=69 v=0
274796 Off ch=1 n=81 v=0
274816 On ch=1 n=78 v=57
274944 Off ch=1 n=78 v=0
274944 On ch=1 n=81 v=67
275072 On ch=1 n=79 v=64
275074 Off ch=1 n=81 v=0
275200 On ch=1 n=78 v=57
275202 Off ch=1 n=79 v=0
275328 On ch=1 n=76 v=54
275330 Off ch=1 n=78 v=0
275449 Off ch=1 n=76 v=0
275456 On ch=1 n=79 v=66
275584 On ch=1 n=78 v=65
275586 Off ch=1 n=79 v=0
275712 On ch=1 n=76 v=54
275714 Off ch=1 n=78 v=0
275840 On ch=1 n=74 v=52
275842 Off ch=1 n=76 v=0
275961 Off ch=1 n=74 v=0
275968 On ch=1 n=78 v=68
276096 On ch=1 n=76 v=69
276098 Off ch=1 n=78 v=0
276224 On ch=1 n=74 v=59
276226 Off ch=1 n=76 v=0
276352 On ch=1 n=73 v=59
276354 Off ch=1 n=74 v=0
276473 Off ch=1 n=73 v=0
276480 On ch=1 n=76 v=66
276608 On ch=1 n=74 v=60
276610 Off ch=1 n=76 v=0
276736 On ch=1 n=73 v=58
276736 On ch=1 n=66 v=59
276738 Off ch=1 n=74 v=0
276864 On ch=1 n=71 v=57
276866 Off ch=1 n=73 v=0
276992 On ch=1 n=70 v=57
276992 Off ch=1 n=66 v=0
276992 On ch=1 n=67 v=62
276994 Off ch=1 n=71 v=0
277120 On ch=1 n=71 v=56
277122 Off ch=1 n=70 v=0
277248 On ch=1 n=73 v=64
277248 Off ch=1 n=67 v=0
277248 On ch=1 n=63 v=51
277250 Off ch=1 n=71 v=0
277376 On ch=1 n=71 v=55
277378 Off ch=1 n=73 v=0
277497 Off ch=1 n=71 v=0
277504 On ch=1 n=69 v=57
277504 Off ch=1 n=63 v=0
277504 On ch=1 n=64 v=63
277683 Off ch=1 n=64 v=0
277760 On ch=1 n=59 v=57
277939 Off ch=1 n=59 v=0
278016 On ch=1 n=67 v=55
278016 On ch=1 n=64 v=72
278026 Off ch=1 n=69 v=0
278195 Off ch=1 n=64 v=0
278259 Off ch=1 n=67 v=0
278528 On ch=1 n=59 v=55
278528 On ch=1 n=64 v=55
278528 On ch=1 n=67 v=55
278528 On ch=1 n=71 v=55
278528 On ch=1 n=43 v=54
278528 On ch=1 n=47 v=54
278528 On ch=1 n=52 v=54
278528 On ch=1 n=55 v=54
279040 Off ch=1 n=59 v=0
279040 Off ch=1 n=64 v=0
279040 Off ch=1 n=67 v=0
279040 Off ch=1 n=71 v=0
279040 Off ch=1 n=43 v=0
279040 Off ch=1 n=47 v=0
279040 Off ch=1 n=52 v=0
279040 Off ch=1 n=55 v=0
280832 On ch=1 n=52 v=53
280832 On ch=1 n=55 v=53
280832 On ch=1 n=61 v=53
280832 On ch=1 n=33 v=55
280832 On ch=1 n=45 v=55
281011 Off ch=1 n=52 v=0
281011 Off ch=1 n=55 v=0
281011 Off ch=1 n=61 v=0
281011 Off ch=1 n=33 v=0
281011 Off ch=1 n=45 v=0
281088 On ch=1 n=52 v=58
281088 On ch=1 n=55 v=58
281088 On ch=1 n=61 v=58
281088 On ch=1 n=33 v=60
281088 On ch=1 n=45 v=60
281267 Off ch=1 n=52 v=0
281267 Off ch=1 n=55 v=0
281267 Off ch=1 n=61 v=0
281267 Off ch=1 n=33 v=0
281267 Off ch=1 n=45 v=0
281344 On ch=1 n=52 v=62
281344 On ch=1 n=55 v=62
281344 On ch=1 n=61 v=62
281344 On ch=1 n=33 v=61
281344 On ch=1 n=45 v=61
281514 Off ch=1 n=52 v=0
281514 Off ch=1 n=55 v=0
281514 Off ch=1 n=61 v=0
281514 Off ch=1 n=33 v=0
281514 Off ch=1 n=45 v=0
281600 On ch=1 n=55 v=59
281600 On ch=1 n=57 v=59
281600 On ch=1 n=61 v=59
281600 On ch=1 n=38 v=65
281600 On ch=1 n=50 v=65
282112 On ch=1 n=54 v=63
282112 On ch=1 n=62 v=63
282132 Off ch=1 n=55 v=0
282132 Off ch=1 n=61 v=0
282342 Off ch=1 n=54 v=0
282342 Off ch=1 n=62 v=0
282368 On ch=1 n=69 v=66
282368 Off ch=1 n=38 v=0
282368 Off ch=1 n=50 v=0
282398 Off ch=1 n=57 v=0
282453 On ch=1 n=74 v=78
282454 Off ch=1 n=69 v=0
282538 On ch=1 n=78 v=69
282539 Off ch=1 n=74 v=0
282619 Off ch=1 n=78 v=0
282624 On ch=1 n=81 v=83
283008 Off ch=1 n=81 v=0
283008 On ch=1 n=78 v=68
283136 Off ch=1 n=78 v=0
283136 On ch=1 n=81 v=73
283221 Off ch=1 n=81 v=0
283221 On ch=1 n=79 v=68
283306 Off ch=1 n=79 v=0
283306 On ch=1 n=78 v=63
283392 Off ch=1 n=78 v=0
283392 On ch=1 n=76 v=69
283477 Off ch=1 n=76 v=0
283477 On ch=1 n=75 v=68
283562 Off ch=1 n=75 v=0
283562 On ch=1 n=76 v=77
283648 Off ch=1 n=76 v=0
283648 On ch=1 n=79 v=81
283733 Off ch=1 n=79 v=0
283733 On ch=1 n=78 v=67
283818 Off ch=1 n=78 v=0
283818 On ch=1 n=76 v=66
283904 Off ch=1 n=76 v=0
283904 On ch=1 n=74 v=66
283989 Off ch=1 n=74 v=0
283989 On ch=1 n=73 v=65
284074 Off ch=1 n=73 v=0
284074 On ch=1 n=74 v=73
284160 Off ch=1 n=74 v=0
284160 On ch=1 n=78 v=76
284245 Off ch=1 n=78 v=0
284245 On ch=1 n=76 v=74
284330 Off ch=1 n=76 v=0
284330 On ch=1 n=74 v=66
284416 Off ch=1 n=74 v=0
284416 On ch=1 n=73 v=64
284501 Off ch=1 n=73 v=0
284501 On ch=1 n=72 v=64
284586 Off ch=1 n=72 v=0
284586 On ch=1 n=73 v=76
284672 Off ch=1 n=73 v=0
284672 On ch=1 n=76 v=78
284736 On ch=1 n=74 v=76
284737 Off ch=1 n=76 v=0
284800 On ch=1 n=73 v=72
284801 Off ch=1 n=74 v=0
284864 On ch=1 n=71 v=68
284865 Off ch=1 n=73 v=0
284924 Off ch=1 n=71 v=0
284928 On ch=1 n=70 v=69
285013 On ch=1 n=73 v=72
285014 Off ch=1 n=70 v=0
285098 On ch=1 n=71 v=65
285099 Off ch=1 n=73 v=0
285184 On ch=1 n=70 v=57
285185 Off ch=1 n=71 v=0
285269 On ch=1 n=73 v=82
285270 Off ch=1 n=70 v=0
285354 On ch=1 n=71 v=75
285355 Off ch=1 n=73 v=0
285440 On ch=1 n=70 v=66
285441 Off ch=1 n=71 v=0
285525 On ch=1 n=73 v=74
285526 Off ch=1 n=70 v=0
285610 On ch=1 n=71 v=67
285611 Off ch=1 n=73 v=0
285691 Off ch=1 n=71 v=0
285696 On ch=1 n=69 v=66
286208 On ch=1 n=67 v=60
286218 Off ch=1 n=69 v=0
286451 Off ch=1 n=67 v=0
286976 On ch=1 n=76 v=71
286976 On ch=1 n=64 v=68
287232 On ch=1 n=73 v=62
287232 On ch=1 n=61 v=62
287237 Off ch=1 n=76 v=0
287237 Off ch=1 n=64 v=0
287402 Off ch=1 n=73 v=0
287402 Off ch=1 n=61 v=0
287488 On ch=1 n=74 v=81
287488 On ch=1 n=62 v=80
287744 On ch=1 n=71 v=74
287744 On ch=1 n=59 v=81
287749 Off ch=1 n=74 v=0
287749 Off ch=1 n=62 v=0
287914 Off ch=1 n=71 v=0
287914 Off ch=1 n=59 v=0
288000 On ch=1 n=73 v=89
288000 On ch=1 n=61 v=89
288256 On ch=1 n=70 v=80
288256 On ch=1 n=58 v=86
288261 Off ch=1 n=73 v=0
288261 Off ch=1 n=61 v=0
288426 Off ch=1 n=70 v=0
288426 Off ch=1 n=58 v=0
288512 On ch=1 n=71 v=83
288512 On ch=1 n=59 v=83
288768 On ch=1 n=67 v=70
288768 On ch=1 n=55 v=76
288773 Off ch=1 n=71 v=0
288773 Off ch=1 n=59 v=0
288938 Off ch=1 n=67 v=0
288938 Off ch=1 n=55 v=0
289280 On ch=1 n=69 v=62
289280 On ch=1 n=57 v=62
289459 Off ch=1 n=69 v=0
289459 Off ch=1 n=57 v=0
289792 On ch=1 n=62 v=58
289792 On ch=1 n=50 v=41
289877 On ch=1 n=66 v=53
289877 On ch=1 n=54 v=50
289878 Off ch=1 n=62 v=0
289878 Off ch=1 n=50 v=0
289962 On ch=1 n=69 v=62
289962 On ch=1 n=57 v=49
289963 Off ch=1 n=66 v=0
289963 Off ch=1 n=54 v=0
290048 On ch=1 n=61 v=44
290048 On ch=1 n=49 v=48
290049 Off ch=1 n=69 v=0
290049 Off ch=1 n=57 v=0
290133 On ch=1 n=66 v=48
290133 On ch=1 n=54 v=51
290134 Off ch=1 n=61 v=0
290134 Off ch=1 n=49 v=0
290218 On ch=1 n=69 v=56
290218 On ch=1 n=57 v=50
290219 Off ch=1 n=66 v=0
290219 Off ch=1 n=54 v=0
290304 On ch=1 n=62 v=43
290304 On ch=1 n=50 v=48
290305 Off ch=1 n=69 v=0
290305 Off ch=1 n=57 v=0
290389 On ch=1 n=66 v=54
290389 On ch=1 n=54 v=54
290390 Off ch=1 n=62 v=0
290390 Off ch=1 n=50 v=0
290474 On ch=1 n=69 v=59
290474 On ch=1 n=57 v=58
290475 Off ch=1 n=66 v=0
290475 Off ch=1 n=54 v=0
290560 On ch=1 n=57 v=45
290560 On ch=1 n=45 v=48
290561 Off ch=1 n=69 v=0
290561 Off ch=1 n=57 v=0
290645 On ch=1 n=66 v=54
290645 On ch=1 n=54 v=53
290646 Off ch=1 n=57 v=0
290646 Off ch=1 n=45 v=0
290730 On ch=1 n=69 v=56
290730 On ch=1 n=57 v=53
290731 Off ch=1 n=66 v=0
290731 Off ch=1 n=54 v=0
290816 On ch=1 n=60 v=46
290816 On ch=1 n=48 v=46
290817 Off ch=1 n=69 v=0
290817 Off ch=1 n=57 v=0
290901 On ch=1 n=66 v=54
290901 On ch=1 n=54 v=57
290902 Off ch=1 n=60 v=0
290902 Off ch=1 n=48 v=0
290986 On ch=1 n=69 v=65
290986 On ch=1 n=57 v=59
290987 Off ch=1 n=66 v=0
290987 Off ch=1 n=54 v=0
291072 On ch=1 n=59 v=45
291072 On ch=1 n=47 v=44
291073 Off ch=1 n=69 v=0
291073 Off ch=1 n=57 v=0
291157 On ch=1 n=66 v=50
291157 On ch=1 n=54 v=48
291158 Off ch=1 n=59 v=0
291158 Off ch=1 n=47 v=0
291242 On ch=1 n=69 v=57
291242 On ch=1 n=57 v=52
291243 Off ch=1 n=66 v=0
291243 Off ch=1 n=54 v=0
291328 On ch=1 n=60 v=47
291328 On ch=1 n=48 v=49
291329 Off ch=1 n=69 v=0
291329 Off ch=1 n=57 v=0
291413 On ch=1 n=66 v=55
291413 On ch=1 n=54 v=56
291414 Off ch=1 n=60 v=0
291414 Off ch=1 n=48 v=0
291498 On ch=1 n=69 v=62
291498 On ch=1 n=57 v=58
291499 Off ch=1 n=66 v=0
291499 Off ch=1 n=54 v=0
291584 On ch=1 n=57 v=42
291584 On ch=1 n=45 v=45
291585 Off ch=1 n=69 v=0
291585 Off ch=1 n=57 v=0
291669 On ch=1 n=66 v=49
291669 On ch=1 n=54 v=50
291670 Off ch=1 n=57 v=0
291670 Off ch=1 n=45 v=0
291754 On ch=1 n=69 v=59
291754 On ch=1 n=57 v=51
291755 Off ch=1 n=66 v=0
291755 Off ch=1 n=54 v=0
291835 Off ch=1 n=69 v=0
291835 Off ch=1 n=57 v=0
291840 On ch=1 n=59 v=48
291840 On ch=1 n=47 v=47
291925 On ch=1 n=62 v=51
291925 On ch=1 n=50 v=50
291926 Off ch=1 n=59 v=0
291926 Off ch=1 n=47 v=0
292010 On ch=1 n=67 v=59
292010 On ch=1 n=55 v=52
292011 Off ch=1 n=62 v=0
292011 Off ch=1 n=50 v=0
292096 On ch=1 n=58 v=55
292096 On ch=1 n=46 v=49
292097 Off ch=1 n=67 v=0
292097 Off ch=1 n=55 v=0
292181 On ch=1 n=62 v=53
292181 On ch=1 n=50 v=53
292182 Off ch=1 n=58 v=0
292182 Off ch=1 n=46 v=0
292266 On ch=1 n=67 v=58
292266 On ch=1 n=55 v=54
292267 Off ch=1 n=62 v=0
292267 Off ch=1 n=50 v=0
292352 On ch=1 n=59 v=48
292352 On ch=1 n=47 v=44
292353 Off ch=1 n=67 v=0
292353 Off ch=1 n=55 v=0
292437 On ch=1 n=62 v=53
292437 On ch=1 n=50 v=39
292438 Off ch=1 n=59 v=0
292438 Off ch=1 n=47 v=0
292522 On ch=1 n=67 v=62
292522 On ch=1 n=55 v=51
292523 Off ch=1 n=62 v=0
292523 Off ch=1 n=50 v=0
292608 On ch=1 n=55 v=58
292608 On ch=1 n=43 v=43
292609 Off ch=1 n=67 v=0
292609 Off ch=1 n=55 v=0
292693 On ch=1 n=62 v=58
292693 On ch=1 n=50 v=53
292694 Off ch=1 n=55 v=0
292694 Off ch=1 n=43 v=0
292778 On ch=1 n=67 v=67
292778 On ch=1 n=55 v=57
292779 Off ch=1 n=62 v=0
292779 Off ch=1 n=50 v=0
292864 On ch=1 n=57 v=50
292864 On ch=1 n=45 v=45
292865 Off ch=1 n=67 v=0
292865 Off ch=1 n=55 v=0
292949 On ch=1 n=60 v=49
292949 On ch=1 n=48 v=47
292950 Off ch=1 n=57 v=0
292950 Off ch=1 n=45 v=0
293034 On ch=1 n=62 v=54
293034 On ch=1 n=50 v=54
293035 Off ch=1 n=60 v=0
293035 Off ch=1 n=48 v=0
293120 On ch=1 n=56 v=47
293120 On ch=1 n=44 v=52
293121 Off ch=1 n=62 v=0
293121 Off ch=1 n=50 v=0
293205 On ch=1 n=60 v=57
293205 On ch=1 n=48 v=51
293206 Off ch=1 n=56 v=0
293206 Off ch=1 n=44 v=0
293290 On ch=1 n=62 v=61
293290 On ch=1 n=50 v=54
293291 Off ch=1 n=60 v=0
293291 Off ch=1 n=48 v=0
293376 On ch=1 n=57 v=49
293376 On ch=1 n=45 v=51
293377 Off ch=1 n=62 v=0
293377 Off ch=1 n=50 v=0
293461 On ch=1 n=60 v=54
293461 On ch=1 n=48 v=52
293462 Off ch=1 n=57 v=0
293462 Off ch=1 n=45 v=0
293546 On ch=1 n=62 v=56
293546 On ch=1 n=50 v=54
293547 Off ch=1 n=60 v=0
293547 Off ch=1 n=48 v=0
293632 On ch=1 n=54 v=56
293632 On ch=1 n=42 v=52
293633 Off ch=1 n=62 v=0
293633 Off ch=1 n=50 v=0
293717 On ch=1 n=60 v=63
293717 On ch=1 n=48 v=59
293718 Off ch=1 n=54 v=0
293718 Off ch=1 n=42 v=0
293802 On ch=1 n=62 v=69
293802 On ch=1 n=50 v=65
293803 Off ch=1 n=60 v=0
293803 Off ch=1 n=48 v=0
293883 Off ch=1 n=62 v=0
293883 Off ch=1 n=50 v=0
293888 On ch=1 n=55 v=49
293888 On ch=1 n=43 v=48
293973 On ch=1 n=59 v=51
293973 On ch=1 n=47 v=56
293974 Off ch=1 n=55 v=0
293974 Off ch=1 n=43 v=0
294058 On ch=1 n=62 v=53
294058 On ch=1 n=50 v=52
294059 Off ch=1 n=59 v=0
294059 Off ch=1 n=47 v=0
294144 On ch=1 n=54 v=54
294144 On ch=1 n=42 v=45
294145 Off ch=1 n=62 v=0
294145 Off ch=1 n=50 v=0
294229 On ch=1 n=59 v=53
294229 On ch=1 n=47 v=52
294230 Off ch=1 n=54 v=0
294230 Off ch=1 n=42 v=0
294314 On ch=1 n=62 v=57
294314 On ch=1 n=50 v=49
294315 Off ch=1 n=59 v=0
294315 Off ch=1 n=47 v=0
294400 On ch=1 n=55 v=47
294400 On ch=1 n=43 v=50
294401 Off ch=1 n=62 v=0
294401 Off ch=1 n=50 v=0
294485 On ch=1 n=59 v=58
294485 On ch=1 n=47 v=50
294486 Off ch=1 n=55 v=0
294486 Off ch=1 n=43 v=0
294570 On ch=1 n=62 v=60
294570 On ch=1 n=50 v=54
294571 Off ch=1 n=59 v=0
294571 Off ch=1 n=47 v=0
294656 On ch=1 n=50 v=52
294656 On ch=1 n=38 v=45
294657 Off ch=1 n=62 v=0
294657 Off ch=1 n=50 v=0
294741 On ch=1 n=59 v=53
294741 On ch=1 n=47 v=58
294742 Off ch=1 n=50 v=0
294742 Off ch=1 n=38 v=0
294826 On ch=1 n=62 v=54
294826 On ch=1 n=50 v=58
294827 Off ch=1 n=59 v=0
294827 Off ch=1 n=47 v=0
294912 On ch=1 n=54 v=46
294912 On ch=1 n=42 v=45
294913 Off ch=1 n=62 v=0
294913 Off ch=1 n=50 v=0
294997 On ch=1 n=57 v=46
294997 On ch=1 n=45 v=45
294998 Off ch=1 n=54 v=0
294998 Off ch=1 n=42 v=0
295082 On ch=1 n=62 v=58
295082 On ch=1 n=50 v=54
295083 Off ch=1 n=57 v=0
295083 Off ch=1 n=45 v=0
295168 On ch=1 n=53 v=52
295168 On ch=1 n=41 v=50
295169 Off ch=1 n=62 v=0
295169 Off ch=1 n=50 v=0
295253 On ch=1 n=57 v=48
295253 On ch=1 n=45 v=57
295254 Off ch=1 n=53 v=0
295254 Off ch=1 n=41 v=0
295338 On ch=1 n=62 v=55
295338 On ch=1 n=50 v=60
295339 Off ch=1 n=57 v=0
295339 Off ch=1 n=45 v=0
295424 On ch=1 n=54 v=47
295424 On ch=1 n=42 v=46
295425 Off ch=1 n=62 v=0
295425 Off ch=1 n=50 v=0
295509 On ch=1 n=57 v=47
295509 On ch=1 n=45 v=47
295510 Off ch=1 n=54 v=0
295510 Off ch=1 n=42 v=0
295594 On ch=1 n=62 v=59
295594 On ch=1 n=50 v=53
295595 Off ch=1 n=57 v=0
295595 Off ch=1 n=45 v=0
295680 On ch=1 n=50 v=53
295680 On ch=1 n=38 v=48
295681 Off ch=1 n=62 v=0
295681 Off ch=1 n=50 v=0
295765 On ch=1 n=57 v=54
295765 On ch=1 n=45 v=54
295766 Off ch=1 n=50 v=0
295766 Off ch=1 n=38 v=0
295850 On ch=1 n=62 v=63
295850 On ch=1 n=50 v=55
295851 Off ch=1 n=57 v=0
295851 Off ch=1 n=45 v=0
295936 On ch=1 n=52 v=43
295936 On ch=1 n=40 v=43
295937 Off ch=1 n=62 v=0
295937 Off ch=1 n=50 v=0
296021 On ch=1 n=55 v=41
296021 On ch=1 n=43 v=44
296022 Off ch=1 n=52 v=0
296022 Off ch=1 n=40 v=0
296106 On ch=1 n=57 v=55
296106 On ch=1 n=45 v=53
296107 Off ch=1 n=55 v=0
296107 Off ch=1 n=43 v=0
296192 On ch=1 n=51 v=52
296192 On ch=1 n=39 v=44
296193 Off ch=1 n=57 v=0
296193 Off ch=1 n=45 v=0
296277 On ch=1 n=55 v=51
296277 On ch=1 n=43 v=52
296278 Off ch=1 n=51 v=0
296278 Off ch=1 n=39 v=0
296362 On ch=1 n=57 v=52
296362 On ch=1 n=45 v=53
296363 Off ch=1 n=55 v=0
296363 Off ch=1 n=43 v=0
296448 On ch=1 n=52 v=47
296448 On ch=1 n=40 v=50
296449 Off ch=1 n=57 v=0
296449 Off ch=1 n=45 v=0
296533 On ch=1 n=55 v=54
296533 On ch=1 n=43 v=51
296534 Off ch=1 n=52 v=0
296534 Off ch=1 n=40 v=0
296618 On ch=1 n=57 v=53
296618 On ch=1 n=45 v=48
296619 Off ch=1 n=55 v=0
296619 Off ch=1 n=43 v=0
296699 Off ch=1 n=57 v=0
296704 On ch=1 n=37 v=43
296705 Off ch=1 n=45 v=0
296789 On ch=1 n=43 v=50
296790 Off ch=1 n=37 v=0
296874 On ch=1 n=45 v=88
296875 Off ch=1 n=43 v=0
296896 On ch=1 n=69 v=73
296955 Off ch=1 n=45 v=0
296960 Off ch=1 n=69 v=0
296960 On ch=1 n=81 v=105
296960 On ch=1 n=38 v=73
297045 On ch=1 n=42 v=78
297046 Off ch=1 n=38 v=0
297130 On ch=1 n=45 v=89
297131 Off ch=1 n=42 v=0
297216 On ch=1 n=37 v=76
297217 Off ch=1 n=45 v=0
297301 On ch=1 n=42 v=89
297302 Off ch=1 n=37 v=0
297386 On ch=1 n=45 v=88
297387 Off ch=1 n=42 v=0
297472 On ch=1 n=38 v=77
297473 Off ch=1 n=45 v=0
297557 On ch=1 n=42 v=82
297558 Off ch=1 n=38 v=0
297642 On ch=1 n=45 v=91
297643 Off ch=1 n=42 v=0
297728 Off ch=1 n=81 v=0
297728 On ch=1 n=79 v=86
297728 On ch=1 n=33 v=79
297729 Off ch=1 n=45 v=0
297792 On ch=1 n=78 v=80
297793 Off ch=1 n=79 v=0
297813 On ch=1 n=42 v=90
297814 Off ch=1 n=33 v=0
297856 On ch=1 n=76 v=74
297857 Off ch=1 n=78 v=0
297898 On ch=1 n=45 v=97
297899 Off ch=1 n=42 v=0
297920 On ch=1 n=74 v=68
297921 Off ch=1 n=76 v=0
297984 On ch=1 n=69 v=70
297984 On ch=1 n=40 v=83
297985 Off ch=1 n=74 v=0
297985 Off ch=1 n=45 v=0
298069 On ch=1 n=43 v=83
298070 Off ch=1 n=40 v=0
298154 Off ch=1 n=69 v=0
298154 On ch=1 n=45 v=86
298155 Off ch=1 n=43 v=0
298240 On ch=1 n=39 v=81
298241 Off ch=1 n=45 v=0
298325 On ch=1 n=43 v=88
298326 Off ch=1 n=39 v=0
298410 On ch=1 n=45 v=96
298411 Off ch=1 n=43 v=0
298496 On ch=1 n=40 v=74
298497 Off ch=1 n=45 v=0
298581 On ch=1 n=43 v=76
298582 Off ch=1 n=40 v=0
298666 On ch=1 n=45 v=91
298667 Off ch=1 n=43 v=0
298752 On ch=1 n=37 v=84
298753 Off ch=1 n=45 v=0
298837 On ch=1 n=43 v=86
298838 Off ch=1 n=37 v=0
298922 On ch=1 n=45 v=92
298923 Off ch=1 n=43 v=0
298944 On ch=1 n=69 v=74
299008 Off ch=1 n=69 v=0
299008 On ch=1 n=81 v=106
299008 On ch=1 n=38 v=77
299009 Off ch=1 n=45 v=0
299093 On ch=1 n=41 v=79
299094 Off ch=1 n=38 v=0
299178 On ch=1 n=45 v=87
299179 Off ch=1 n=41 v=0
299264 On ch=1 n=37 v=79
299265 Off ch=1 n=45 v=0
299349 On ch=1 n=41 v=88
299350 Off ch=1 n=37 v=0
299434 On ch=1 n=45 v=89
299435 Off ch=1 n=41 v=0
299520 On ch=1 n=38 v=77
299521 Off ch=1 n=45 v=0
299605 On ch=1 n=41 v=78
299606 Off ch=1 n=38 v=0
299690 On ch=1 n=45 v=88
299691 Off ch=1 n=41 v=0
299776 Off ch=1 n=81 v=0
299776 On ch=1 n=79 v=74
299776 On ch=1 n=33 v=61
299777 Off ch=1 n=45 v=0
299840 On ch=1 n=77 v=67
299841 Off ch=1 n=79 v=0
299861 On ch=1 n=41 v=63
299862 Off ch=1 n=33 v=0
299904 On ch=1 n=76 v=64
299905 Off ch=1 n=77 v=0
299946 On ch=1 n=45 v=75
299947 Off ch=1 n=41 v=0
299968 On ch=1 n=74 v=63
299969 Off ch=1 n=76 v=0
300032 On ch=1 n=75 v=64
300032 On ch=1 n=48 v=63
300033 Off ch=1 n=74 v=0
300033 Off ch=1 n=45 v=0
300117 On ch=1 n=51 v=69
300118 Off ch=1 n=48 v=0
300202 Off ch=1 n=75 v=0
300202 On ch=1 n=53 v=61
300203 Off ch=1 n=51 v=0
300288 On ch=1 n=47 v=54
300289 Off ch=1 n=53 v=0
300373 On ch=1 n=51 v=65
300374 Off ch=1 n=47 v=0
300458 On ch=1 n=53 v=74
300459 Off ch=1 n=51 v=0
300544 On ch=1 n=48 v=61
300545 Off ch=1 n=53 v=0
300629 On ch=1 n=51 v=65
300630 Off ch=1 n=48 v=0
300714 On ch=1 n=53 v=64
300715 Off ch=1 n=51 v=0
300800 On ch=1 n=45 v=62
300801 Off ch=1 n=53 v=0
300885 On ch=1 n=51 v=68
300886 Off ch=1 n=45 v=0
300970 On ch=1 n=53 v=89
300971 Off ch=1 n=51 v=0
300992 On ch=1 n=77 v=77
301056 Off ch=1 n=77 v=0
301056 On ch=1 n=89 v=107
301056 On ch=1 n=46 v=57
301057 Off ch=1 n=53 v=0
301141 On ch=1 n=50 v=63
301142 Off ch=1 n=46 v=0
301226 On ch=1 n=53 v=68
301227 Off ch=1 n=50 v=0
301312 On ch=1 n=45 v=64
301313 Off ch=1 n=53 v=0
301397 On ch=1 n=50 v=67
301398 Off ch=1 n=45 v=0
301482 On ch=1 n=53 v=69
301483 Off ch=1 n=50 v=0
301568 On ch=1 n=46 v=62
301569 Off ch=1 n=53 v=0
301653 On ch=1 n=50 v=63
301654 Off ch=1 n=46 v=0
301738 On ch=1 n=53 v=77
301739 Off ch=1 n=50 v=0
301824 Off ch=1 n=89 v=0
301824 On ch=1 n=87 v=75
301824 On ch=1 n=41 v=67
301825 Off ch=1 n=53 v=0
301888 On ch=1 n=86 v=73
301889 Off ch=1 n=87 v=0
301909 On ch=1 n=50 v=73
301910 Off ch=1 n=41 v=0
301952 On ch=1 n=84 v=72
301953 Off ch=1 n=86 v=0
301994 On ch=1 n=53 v=74
301995 Off ch=1 n=50 v=0
302016 On ch=1 n=82 v=67
302017 Off ch=1 n=84 v=0
302080 On ch=1 n=77 v=81
302080 On ch=1 n=48 v=79
302081 Off ch=1 n=82 v=0
302081 Off ch=1 n=53 v=0
302165 On ch=1 n=51 v=82
302166 Off ch=1 n=48 v=0
302250 Off ch=1 n=77 v=0
302250 On ch=1 n=53 v=85
302251 Off ch=1 n=51 v=0
302336 On ch=1 n=47 v=75
302337 Off ch=1 n=53 v=0
302421 On ch=1 n=51 v=88
302422 Off ch=1 n=47 v=0
302506 On ch=1 n=53 v=91
302507 Off ch=1 n=51 v=0
302592 On ch=1 n=48 v=77
302593 Off ch=1 n=53 v=0
302677 On ch=1 n=51 v=82
302678 Off ch=1 n=48 v=0
302720 On ch=1 n=77 v=92
302762 On ch=1 n=53 v=86
302763 Off ch=1 n=51 v=0
302848 Off ch=1 n=77 v=0
302848 On ch=1 n=89 v=123
302848 On ch=1 n=45 v=78
302849 Off ch=1 n=53 v=0
302933 On ch=1 n=51 v=93
302934 Off ch=1 n=45 v=0
302976 Off ch=1 n=89 v=0
302976 On ch=1 n=89 v=101
303018 On ch=1 n=53 v=97
303019 Off ch=1 n=51 v=0
303099 Off ch=1 n=53 v=0
303104 Off ch=1 n=89 v=0
303104 On ch=1 n=89 v=111
303104 On ch=1 n=34 v=84
303104 On ch=1 n=38 v=84
303104 On ch=1 n=41 v=84
303104 On ch=1 n=46 v=84
303193 Off ch=1 n=89 v=0
303232 On ch=1 n=89 v=67
303321 Off ch=1 n=89 v=0
303360 On ch=1 n=87 v=61
303360 Off ch=1 n=34 v=0
303360 Off ch=1 n=38 v=0
303360 Off ch=1 n=41 v=0
303360 Off ch=1 n=46 v=0
303449 Off ch=1 n=87 v=0
303488 On ch=1 n=86 v=66
303577 Off ch=1 n=86 v=0
303616 On ch=1 n=84 v=68
303872 On ch=1 n=82 v=66
303872 On ch=1 n=58 v=67
303877 Off ch=1 n=84 v=0
304115 Off ch=1 n=82 v=0
304128 On ch=1 n=51 v=59
304133 Off ch=1 n=58 v=0
304256 On ch=1 n=82 v=51
304298 Off ch=1 n=51 v=0
304345 Off ch=1 n=82 v=0
304384 On ch=1 n=81 v=59
304473 Off ch=1 n=81 v=0
304512 On ch=1 n=79 v=62
304601 Off ch=1 n=79 v=0
304640 On ch=1 n=77 v=53
304896 On ch=1 n=75 v=48
304896 On ch=1 n=51 v=56
304901 Off ch=1 n=77 v=0
305139 Off ch=1 n=75 v=0
305152 On ch=1 n=53 v=53
305157 Off ch=1 n=51 v=0
305280 On ch=1 n=75 v=53
305322 Off ch=1 n=53 v=0
305369 Off ch=1 n=75 v=0
305408 On ch=1 n=74 v=58
305497 Off ch=1 n=74 v=0
305536 On ch=1 n=72 v=57
305625 Off ch=1 n=72 v=0
305664 On ch=1 n=70 v=55
305920 On ch=1 n=69 v=51
305920 On ch=1 n=51 v=54
305925 Off ch=1 n=70 v=0
306163 Off ch=1 n=69 v=0
306176 On ch=1 n=70 v=64
306176 On ch=1 n=50 v=53
306181 Off ch=1 n=51 v=0
306265 Off ch=1 n=70 v=0
306304 On ch=1 n=74 v=69
306346 Off ch=1 n=50 v=0
306393 Off ch=1 n=74 v=0
306432 On ch=1 n=67 v=50
306432 On ch=1 n=51 v=63
306521 Off ch=1 n=67 v=0
306560 On ch=1 n=72 v=65
306611 Off ch=1 n=51 v=0
306649 Off ch=1 n=72 v=0
306688 On ch=1 n=65 v=53
306688 On ch=1 n=53 v=62
306777 Off ch=1 n=65 v=0
306816 On ch=1 n=70 v=68
306867 Off ch=1 n=53 v=0
306905 Off ch=1 n=70 v=0
306944 On ch=1 n=63 v=55
306944 On ch=1 n=41 v=51
307033 Off ch=1 n=63 v=0
307072 On ch=1 n=69 v=68
307123 Off ch=1 n=41 v=0
307161 Off ch=1 n=69 v=0
307200 On ch=1 n=62 v=67
307200 On ch=1 n=70 v=67
307200 On ch=1 n=46 v=64
307379 Off ch=1 n=62 v=0
307379 Off ch=1 n=70 v=0
307379 Off ch=1 n=46 v=0
307968 On ch=1 n=62 v=56
307968 On ch=1 n=58 v=54
308224 On ch=1 n=70 v=67
308224 On ch=1 n=55 v=50
308229 Off ch=1 n=62 v=0
308229 Off ch=1 n=58 v=0
308394 Off ch=1 n=70 v=0
308394 Off ch=1 n=55 v=0
308992 On ch=1 n=70 v=54
308992 On ch=1 n=55 v=55
309248 On ch=1 n=67 v=42
309248 On ch=1 n=52 v=52
309253 Off ch=1 n=70 v=0
309253 Off ch=1 n=55 v=0
309418 Off ch=1 n=67 v=0
309418 Off ch=1 n=52 v=0
310016 On ch=1 n=52 v=45
310016 On ch=1 n=55 v=45
310272 Off ch=1 n=52 v=0
310272 Off ch=1 n=55 v=0
310272 On ch=1 n=52 v=45
310272 On ch=1 n=55 v=45
310400 On ch=1 n=79 v=45
310489 Off ch=1 n=79 v=0
310528 On ch=1 n=77 v=46
310528 Off ch=1 n=52 v=0
310528 Off ch=1 n=55 v=0
310617 Off ch=1 n=77 v=0
310656 On ch=1 n=76 v=51
310745 Off ch=1 n=76 v=0
310784 On ch=1 n=74 v=50
311040 On ch=1 n=73 v=45
311040 On ch=1 n=52 v=41
311040 On ch=1 n=55 v=41
311040 On ch=1 n=61 v=41
311045 Off ch=1 n=74 v=0
311283 Off ch=1 n=73 v=0
311296 Off ch=1 n=52 v=0
311296 Off ch=1 n=55 v=0
311296 Off ch=1 n=61 v=0
311296 On ch=1 n=52 v=49
311296 On ch=1 n=55 v=49
311296 On ch=1 n=61 v=49
311424 On ch=1 n=79 v=43
311552 On ch=1 n=78 v=38
311552 Off ch=1 n=52 v=0
311552 Off ch=1 n=55 v=0
311552 Off ch=1 n=61 v=0
311554 Off ch=1 n=79 v=0
311680 On ch=1 n=76 v=47
311682 Off ch=1 n=78 v=0
311808 On ch=1 n=74 v=43
311810 Off ch=1 n=76 v=0
311936 On ch=1 n=73 v=51
311938 Off ch=1 n=74 v=0
312064 On ch=1 n=83 v=87
312064 On ch=1 n=52 v=67
312064 On ch=1 n=55 v=67
312064 On ch=1 n=61 v=67
312066 Off ch=1 n=73 v=0
312192 On ch=1 n=81 v=88
312194 Off ch=1 n=83 v=0
312313 Off ch=1 n=81 v=0
312320 On ch=1 n=54 v=72
312320 On ch=1 n=57 v=72
312320 On ch=1 n=63 v=72
312325 Off ch=1 n=52 v=0
312325 Off ch=1 n=55 v=0
312325 Off ch=1 n=61 v=0
312448 On ch=1 n=81 v=61
312490 Off ch=1 n=54 v=0
312490 Off ch=1 n=57 v=0
312490 Off ch=1 n=63 v=0
312576 On ch=1 n=79 v=56
312578 Off ch=1 n=81 v=0
312704 On ch=1 n=78 v=66
312706 Off ch=1 n=79 v=0
312832 On ch=1 n=76 v=55
312834 Off ch=1 n=78 v=0
312960 On ch=1 n=75 v=66
312962 Off ch=1 n=76 v=0
313088 On ch=1 n=84 v=81
313088 On ch=1 n=54 v=61
313088 On ch=1 n=57 v=61
313088 On ch=1 n=63 v=61
313090 Off ch=1 n=75 v=0
313216 On ch=1 n=83 v=69
313218 Off ch=1 n=84 v=0
313337 Off ch=1 n=83 v=0
313344 On ch=1 n=55 v=84
313344 On ch=1 n=59 v=84
313344 On ch=1 n=64 v=84
313349 Off ch=1 n=54 v=0
313349 Off ch=1 n=57 v=0
313349 Off ch=1 n=63 v=0
313472 On ch=1 n=83 v=82
313514 Off ch=1 n=55 v=0
313514 Off ch=1 n=59 v=0
313514 Off ch=1 n=64 v=0
313600 On ch=1 n=81 v=72
313602 Off ch=1 n=83 v=0
313728 On ch=1 n=79 v=89
313730 Off ch=1 n=81 v=0
313856 On ch=1 n=78 v=84
313858 Off ch=1 n=79 v=0
313984 On ch=1 n=76 v=89
313986 Off ch=1 n=78 v=0
314112 On ch=1 n=87 v=113
314114 Off ch=1 n=76 v=0
314240 On ch=1 n=88 v=107
314242 Off ch=1 n=87 v=0
314361 Off ch=1 n=88 v=0
314368 On ch=1 n=81 v=80
314496 On ch=1 n=79 v=74
314498 Off ch=1 n=81 v=0
314624 On ch=1 n=78 v=91
314626 Off ch=1 n=79 v=0
314752 On ch=1 n=76 v=84
314754 Off ch=1 n=78 v=0
314880 On ch=1 n=75 v=91
314882 Off ch=1 n=76 v=0
315008 On ch=1 n=76 v=96
315010 Off ch=1 n=75 v=0
315136 On ch=1 n=79 v=109
315138 Off ch=1 n=76 v=0
315264 On ch=1 n=76 v=101
315266 Off ch=1 n=79 v=0
315385 Off ch=1 n=76 v=0
315392 On ch=1 n=76 v=60
315392 On ch=1 n=57 v=51
315437 Off ch=1 n=76 v=0
315449 On ch=1 n=77 v=60
315494 Off ch=1 n=77 v=0
315506 On ch=1 n=76 v=60
315520 On ch=1 n=61 v=53
315522 Off ch=1 n=57 v=0
315551 Off ch=1 n=76 v=0
315562 On ch=1 n=77 v=60
315606 Off ch=1 n=77 v=0
315618 On ch=1 n=76 v=60
315648 On ch=1 n=64 v=66
315650 Off ch=1 n=61 v=0
315662 Off ch=1 n=76 v=0
315673 On ch=1 n=77 v=60
315717 Off ch=1 n=77 v=0
315728 On ch=1 n=76 v=60
315772 Off ch=1 n=76 v=0
315776 On ch=1 n=62 v=61
315778 Off ch=1 n=64 v=0
315783 On ch=1 n=77 v=60
315827 Off ch=1 n=77 v=0
315837 On ch=1 n=76 v=60
315880 Off ch=1 n=76 v=0
315891 On ch=1 n=77 v=60
315904 On ch=1 n=61 v=55
315906 Off ch=1 n=62 v=0
315934 Off ch=1 n=77 v=0
315945 On ch=1 n=76 v=60
315988 Off ch=1 n=76 v=0
315998 On ch=1 n=77 v=60
316032 On ch=1 n=59 v=71
316034 Off ch=1 n=61 v=0
316040 Off ch=1 n=77 v=0
316051 On ch=1 n=76 v=60
316093 Off ch=1 n=76 v=0
316103 On ch=1 n=77 v=60
316144 Off ch=1 n=77 v=0
316155 On ch=1 n=76 v=60
316160 On ch=1 n=57 v=72
316162 Off ch=1 n=59 v=0
316196 Off ch=1 n=76 v=0
316207 On ch=1 n=77 v=60
316248 Off ch=1 n=77 v=0
316258 On ch=1 n=76 v=60
316288 On ch=1 n=56 v=69
316290 Off ch=1 n=57 v=0
316298 Off ch=1 n=76 v=0
316309 On ch=1 n=77 v=60
316349 Off ch=1 n=77 v=0
316360 On ch=1 n=76 v=60
316400 Off ch=1 n=76 v=0
316409 Off ch=1 n=56 v=0
316410 On ch=1 n=77 v=60
316416 On ch=1 n=57 v=87
316450 Off ch=1 n=77 v=0
316460 On ch=1 n=76 v=84
316500 Off ch=1 n=76 v=0
316509 On ch=1 n=77 v=84
316544 On ch=1 n=64 v=109
316546 Off ch=1 n=57 v=0
316548 Off ch=1 n=77 v=0
316558 On ch=1 n=76 v=84
316597 Off ch=1 n=76 v=0
316607 On ch=1 n=77 v=84
316646 Off ch=1 n=77 v=0
316655 On ch=1 n=76 v=84
316672 On ch=1 n=67 v=96
316674 Off ch=1 n=64 v=0
316693 Off ch=1 n=76 v=0
316703 On ch=1 n=77 v=84
316741 Off ch=1 n=77 v=0
316751 On ch=1 n=76 v=84
316789 Off ch=1 n=76 v=0
316798 On ch=1 n=77 v=84
316800 On ch=1 n=66 v=81
316802 Off ch=1 n=67 v=0
316835 Off ch=1 n=77 v=0
316845 On ch=1 n=76 v=84
316882 Off ch=1 n=76 v=0
316892 On ch=1 n=77 v=84
316928 On ch=1 n=64 v=75
316929 Off ch=1 n=77 v=0
316930 Off ch=1 n=66 v=0
316938 On ch=1 n=76 v=84
316974 Off ch=1 n=76 v=0
316984 On ch=1 n=77 v=84
317020 Off ch=1 n=77 v=0
317030 On ch=1 n=76 v=84
317056 On ch=1 n=62 v=81
317058 Off ch=1 n=64 v=0
317066 Off ch=1 n=76 v=0
317077 On ch=1 n=77 v=84
317114 Off ch=1 n=77 v=0
317124 On ch=1 n=76 v=84
317161 Off ch=1 n=76 v=0
317171 On ch=1 n=77 v=84
317184 On ch=1 n=61 v=78
317186 Off ch=1 n=62 v=0
317208 Off ch=1 n=77 v=0
317219 On ch=1 n=76 v=84
317257 Off ch=1 n=76 v=0
317267 On ch=1 n=77 v=84
317305 Off ch=1 n=77 v=0
317312 On ch=1 n=59 v=82
317314 Off ch=1 n=61 v=0
317315 On ch=1 n=76 v=84
317353 Off ch=1 n=76 v=0
317364 On ch=1 n=77 v=84
317403 Off ch=1 n=77 v=0
317413 On ch=1 n=76 v=84
317433 Off ch=1 n=59 v=0
317440 On ch=1 n=57 v=97
317452 Off ch=1 n=76 v=0
317462 On ch=1 n=77 v=98
317501 Off ch=1 n=77 v=0
317512 On ch=1 n=76 v=98
317552 Off ch=1 n=76 v=0
317562 On ch=1 n=77 v=98
317568 Off ch=1 n=57 v=0
317568 On ch=1 n=56 v=97
317602 Off ch=1 n=77 v=0
317612 On ch=1 n=76 v=98
317652 Off ch=1 n=76 v=0
317663 On ch=1 n=77 v=98
317696 Off ch=1 n=56 v=0
317696 On ch=1 n=55 v=96
317703 Off ch=1 n=77 v=0
317714 On ch=1 n=76 v=98
317754 Off ch=1 n=76 v=0
317765 On ch=1 n=77 v=98
317785 Off ch=1 n=55 v=0
317805 Off ch=1 n=77 v=0
317817 On ch=1 n=76 v=98
317824 On ch=1 n=54 v=95
317858 Off ch=1 n=76 v=0
317869 On ch=1 n=77 v=98
317910 Off ch=1 n=77 v=0
317913 Off ch=1 n=54 v=0
317922 On ch=1 n=76 v=98
317952 On ch=1 n=52 v=95
317964 Off ch=1 n=76 v=0
317975 On ch=1 n=77 v=98
318017 Off ch=1 n=77 v=0
318028 On ch=1 n=76 v=98
318041 Off ch=1 n=52 v=0
318070 Off ch=1 n=76 v=0
318080 On ch=1 n=50 v=91
318082 On ch=1 n=77 v=98
318125 Off ch=1 n=77 v=0
318136 On ch=1 n=76 v=98
318169 Off ch=1 n=50 v=0
318179 Off ch=1 n=76 v=0
318191 On ch=1 n=77 v=98
318208 On ch=1 n=49 v=97
318235 Off ch=1 n=77 v=0
318246 On ch=1 n=76 v=98
318290 Off ch=1 n=76 v=0
318297 Off ch=1 n=49 v=0
318301 On ch=1 n=77 v=98
318336 On ch=1 n=47 v=97
318345 Off ch=1 n=77 v=0
318357 On ch=1 n=76 v=98
318401 Off ch=1 n=76 v=0
318413 On ch=1 n=77 v=98
318425 Off ch=1 n=47 v=0
318457 Off ch=1 n=77 v=0
318464 On ch=1 n=76 v=114
318464 On ch=1 n=45 v=110
318506 Off ch=1 n=76 v=0
318520 On ch=1 n=77 v=114
318553 Off ch=1 n=45 v=0
318561 Off ch=1 n=77 v=0
318575 On ch=1 n=76 v=114
318592 On ch=1 n=43 v=111
318616 Off ch=1 n=76 v=0
318629 On ch=1 n=77 v=114
318669 Off ch=1 n=77 v=0
318681 Off ch=1 n=43 v=0
318682 On ch=1 n=76 v=114
318720 On ch=1 n=42 v=103
318721 Off ch=1 n=76 v=0
318734 On ch=1 n=77 v=114
318772 Off ch=1 n=77 v=0
318785 On ch=1 n=76 v=114
318809 Off ch=1 n=42 v=0
318823 Off ch=1 n=76 v=0
318835 On ch=1 n=77 v=114
318848 On ch=1 n=40 v=110
318873 Off ch=1 n=77 v=0
318883 On ch=1 n=76 v=114
318919 Off ch=1 n=76 v=0
318930 On ch=1 n=77 v=114
318937 Off ch=1 n=40 v=0
318965 Off ch=1 n=77 v=0
318976 On ch=1 n=76 v=114
318976 On ch=1 n=38 v=109
319010 Off ch=1 n=76 v=0
319022 On ch=1 n=77 v=114
319056 Off ch=1 n=77 v=0
319065 Off ch=1 n=38 v=0
319069 On ch=1 n=76 v=114
319104 Off ch=1 n=76 v=0
319104 On ch=1 n=37 v=109
319118 On ch=1 n=77 v=114
319155 Off ch=1 n=77 v=0
319168 On ch=1 n=76 v=114
319193 Off ch=1 n=37 v=0
319206 Off ch=1 n=76 v=0
319219 On ch=1 n=77 v=114
319232 On ch=1 n=35 v=119
319257 Off ch=1 n=77 v=0
319271 On ch=1 n=76 v=114
319309 Off ch=1 n=76 v=0
319321 Off ch=1 n=35 v=0
319324 On ch=1 n=77 v=114
319360 On ch=1 n=33 v=108
319363 Off ch=1 n=77 v=0
319378 On ch=1 n=76 v=114
319414 Off ch=1 n=76 v=0
319414 On ch=1 n=74 v=107
319449 Off ch=1 n=33 v=0
319452 On ch=1 n=76 v=107
319488 On ch=1 n=62 v=113
319488 On ch=1 n=74 v=113
319488 Off ch=1 n=74 v=0
319488 Off ch=1 n=76 v=0
319488 On ch=1 n=38 v=125
319488 On ch=1 n=50 v=125
319828 Off ch=1 n=62 v=0
319828 Off ch=1 n=74 v=0
319846 Off ch=1 n=38 v=0
319846 Off ch=1 n=50 v=0
320000 On ch=1 n=62 v=114
320000 On ch=1 n=69 v=114
320000 On ch=1 n=74 v=114
320000 On ch=1 n=42 v=124
320000 On ch=1 n=50 v=124
320000 On ch=1 n=54 v=124
320358 Off ch=1 n=62 v=0
320358 Off ch=1 n=69 v=0
320358 Off ch=1 n=74 v=0
320358 Off ch=1 n=42 v=0
320358 Off ch=1 n=50 v=0
320358 Off ch=1 n=54 v=0
320512 On ch=1 n=62 v=110
320512 On ch=1 n=71 v=110
320512 On ch=1 n=74 v=110
320512 On ch=1 n=43 v=119
320512 On ch=1 n=50 v=119
320512 On ch=1 n=55 v=119
320870 Off ch=1 n=62 v=0
320870 Off ch=1 n=71 v=0
320870 Off ch=1 n=74 v=0
320870 Off ch=1 n=43 v=0
320870 Off ch=1 n=50 v=0
320870 Off ch=1 n=55 v=0
321024 On ch=1 n=62 v=115
321024 On ch=1 n=67 v=115
321024 On ch=1 n=74 v=115
321024 On ch=1 n=47 v=119
321024 On ch=1 n=55 v=119
321024 On ch=1 n=59 v=119
321382 Off ch=1 n=62 v=0
321382 Off ch=1 n=67 v=0
321382 Off ch=1 n=74 v=0
321382 Off ch=1 n=47 v=0
321382 Off ch=1 n=55 v=0
321382 Off ch=1 n=59 v=0
321536 On ch=1 n=64 v=121
321536 On ch=1 n=67 v=121
321536 On ch=1 n=76 v=121
321536 On ch=1 n=49 v=117
321536 On ch=1 n=55 v=117
321536 On ch=1 n=57 v=117
321536 On ch=1 n=61 v=117
321715 Off ch=1 n=64 v=0
321715 Off ch=1 n=67 v=0
321715 Off ch=1 n=76 v=0
321715 Off ch=1 n=49 v=0
321715 Off ch=1 n=55 v=0
321715 Off ch=1 n=57 v=0
321715 Off ch=1 n=61 v=0
321792 On ch=1 n=64 v=92
321792 On ch=1 n=67 v=92
321792 On ch=1 n=69 v=92
321792 On ch=1 n=49 v=113
321792 On ch=1 n=55 v=113
321792 On ch=1 n=57 v=113
321792 On ch=1 n=61 v=113
321971 Off ch=1 n=64 v=0
321971 Off ch=1 n=67 v=0
321971 Off ch=1 n=69 v=0
321971 Off ch=1 n=49 v=0
321971 Off ch=1 n=55 v=0
321971 Off ch=1 n=57 v=0
321971 Off ch=1 n=61 v=0
322560 On ch=1 n=66 v=104
322560 On ch=1 n=69 v=104
322560 On ch=1 n=78 v=104
322560 On ch=1 n=50 v=105
322560 On ch=1 n=54 v=105
322560 On ch=1 n=57 v=105
322560 On ch=1 n=62 v=105
322739 Off ch=1 n=66 v=0
322739 Off ch=1 n=69 v=0
322739 Off ch=1 n=78 v=0
322739 Off ch=1 n=50 v=0
322739 Off ch=1 n=54 v=0
322739 Off ch=1 n=57 v=0
322739 Off ch=1 n=62 v=0
322816 On ch=1 n=66 v=100
322816 On ch=1 n=69 v=100
322816 On ch=1 n=74 v=100
322816 On ch=1 n=50 v=115
322816 On ch=1 n=54 v=115
322816 On ch=1 n=57 v=115
322816 On ch=1 n=62 v=115
322995 Off ch=1 n=66 v=0
322995 Off ch=1 n=69 v=0
322995 Off ch=1 n=74 v=0
322995 Off ch=1 n=50 v=0
322995 Off ch=1 n=54 v=0
322995 Off ch=1 n=57 v=0
322995 Off ch=1 n=62 v=0
323584 On ch=1 n=52 v=49
323648 On ch=1 n=67 v=53
323712 Off ch=1 n=67 v=0
323712 On ch=1 n=69 v=62
323776 Off ch=1 n=69 v=0
323776 On ch=1 n=73 v=67
323840 Off ch=1 n=73 v=0
323840 On ch=1 n=79 v=70
323840 Off ch=1 n=52 v=0
323904 On ch=1 n=64 v=54
323968 Off ch=1 n=64 v=0
323968 On ch=1 n=63 v=52
324032 Off ch=1 n=63 v=0
324032 On ch=1 n=64 v=67
324096 Off ch=1 n=79 v=0
324096 Off ch=1 n=64 v=0
324096 On ch=1 n=54 v=53
324160 On ch=1 n=69 v=61
324224 Off ch=1 n=69 v=0
324224 On ch=1 n=74 v=80
324288 Off ch=1 n=74 v=0
324288 On ch=1 n=69 v=62
324352 Off ch=1 n=69 v=0
324352 On ch=1 n=81 v=92
324352 Off ch=1 n=54 v=0
324416 On ch=1 n=66 v=61
324480 Off ch=1 n=66 v=0
324480 On ch=1 n=65 v=70
324544 Off ch=1 n=65 v=0
324544 On ch=1 n=66 v=73
324608 Off ch=1 n=81 v=0
324608 Off ch=1 n=66 v=0
324608 On ch=1 n=55 v=60
324672 On ch=1 n=71 v=64
324736 Off ch=1 n=71 v=0
324736 On ch=1 n=74 v=88
324800 Off ch=1 n=74 v=0
324800 On ch=1 n=71 v=75
324864 Off ch=1 n=71 v=0
324864 On ch=1 n=83 v=103
324864 Off ch=1 n=55 v=0
324928 On ch=1 n=67 v=76
324992 Off ch=1 n=67 v=0
324992 On ch=1 n=66 v=75
325056 Off ch=1 n=66 v=0
325056 On ch=1 n=67 v=87
325120 Off ch=1 n=83 v=0
325120 Off ch=1 n=67 v=0
325120 On ch=1 n=57 v=69
325184 On ch=1 n=73 v=75
325248 Off ch=1 n=73 v=0
325248 On ch=1 n=79 v=98
325312 Off ch=1 n=79 v=0
325312 On ch=1 n=73 v=85
325376 Off ch=1 n=73 v=0
325376 On ch=1 n=85 v=122
325376 Off ch=1 n=57 v=0
325440 On ch=1 n=69 v=86
325504 Off ch=1 n=69 v=0
325504 On ch=1 n=68 v=92
325544 Off ch=1 n=85 v=0
325544 On ch=1 n=67 v=122
325568 Off ch=1 n=68 v=0
325568 On ch=1 n=69 v=104
325583 On ch=1 n=73 v=122
325608 On ch=1 n=76 v=122
325632 On ch=1 n=79 v=122
325632 Off ch=1 n=67 v=0
325632 Off ch=1 n=73 v=0
325632 Off ch=1 n=76 v=0
325632 Off ch=1 n=69 v=0
325632 On ch=1 n=45 v=99
325632 On ch=1 n=52 v=99
325632 On ch=1 n=55 v=99
325632 On ch=1 n=57 v=99
325941 Off ch=1 n=79 v=0
325952 On ch=1 n=78 v=95
326016 On ch=1 n=76 v=89
326017 Off ch=1 n=78 v=0
326080 On ch=1 n=74 v=93
326081 Off ch=1 n=76 v=0
326144 On ch=1 n=73 v=91
326145 Off ch=1 n=74 v=0
326208 On ch=1 n=74 v=101
326209 Off ch=1 n=73 v=0
326272 On ch=1 n=76 v=104
326273 Off ch=1 n=74 v=0
326336 On ch=1 n=74 v=91
326337 Off ch=1 n=76 v=0
326400 On ch=1 n=73 v=90
326401 Off ch=1 n=74 v=0
326464 On ch=1 n=71 v=93
326465 Off ch=1 n=73 v=0
326528 On ch=1 n=69 v=84
326529 Off ch=1 n=71 v=0
326592 On ch=1 n=67 v=89
326593 Off ch=1 n=69 v=0
326656 On ch=1 n=66 v=79
326656 Off ch=1 n=45 v=0
326656 Off ch=1 n=52 v=0
326656 Off ch=1 n=55 v=0
326656 Off ch=1 n=57 v=0
326656 On ch=1 n=50 v=91
326656 On ch=1 n=54 v=91
326656 On ch=1 n=57 v=91
326657 Off ch=1 n=67 v=0
326826 Off ch=1 n=66 v=0
326912 Off ch=1 n=50 v=0
326912 Off ch=1 n=54 v=0
326912 Off ch=1 n=57 v=0
327591 On ch=1 n=55 v=123
327631 On ch=1 n=61 v=123
327656 On ch=1 n=64 v=123
327680 On ch=1 n=67 v=123
327680 Off ch=1 n=55 v=0
327680 Off ch=1 n=61 v=0
327680 Off ch=1 n=64 v=0
327680 On ch=1 n=33 v=100
327680 On ch=1 n=40 v=100
327680 On ch=1 n=43 v=100
327680 On ch=1 n=45 v=100
327989 Off ch=1 n=67 v=0
328000 On ch=1 n=66 v=88
328064 On ch=1 n=64 v=82
328065 Off ch=1 n=66 v=0
328128 On ch=1 n=62 v=91
328129 Off ch=1 n=64 v=0
328192 On ch=1 n=61 v=87
328193 Off ch=1 n=62 v=0
328256 On ch=1 n=62 v=101
328257 Off ch=1 n=61 v=0
328320 On ch=1 n=64 v=109
328321 Off ch=1 n=62 v=0
328384 On ch=1 n=62 v=90
328385 Off ch=1 n=64 v=0
328448 On ch=1 n=61 v=86
328449 Off ch=1 n=62 v=0
328512 On ch=1 n=59 v=95
328513 Off ch=1 n=61 v=0
328576 On ch=1 n=57 v=89
328577 Off ch=1 n=59 v=0
328640 On ch=1 n=55 v=95
328641 Off ch=1 n=57 v=0
328704 On ch=1 n=54 v=97
328704 Off ch=1 n=33 v=0
328704 Off ch=1 n=40 v=0
328704 Off ch=1 n=43 v=0
328704 Off ch=1 n=45 v=0
328704 On ch=1 n=38 v=96
328704 On ch=1 n=42 v=96
328704 On ch=1 n=45 v=96
328705 Off ch=1 n=55 v=0
328832 Off ch=1 n=38 v=0
328832 Off ch=1 n=42 v=0
328832 Off ch=1 n=45 v=0
328874 Off ch=1 n=54 v=0
329637 On ch=1 n=43 v=116
329678 On ch=1 n=49 v=116
329703 On ch=1 n=52 v=116
329728 On ch=1 n=55 v=116
329728 Off ch=1 n=43 v=0
329728 Off ch=1 n=49 v=0
329728 Off ch=1 n=52 v=0
329728 On ch=1 n=33 v=97
330048 Off ch=1 n=55 v=0
330048 On ch=1 n=54 v=95
330112 Off ch=1 n=54 v=0
330112 On ch=1 n=52 v=98
330176 Off ch=1 n=52 v=0
330176 On ch=1 n=50 v=97
330240 Off ch=1 n=50 v=0
330240 On ch=1 n=49 v=97
330304 Off ch=1 n=49 v=0
330304 On ch=1 n=50 v=100
330368 Off ch=1 n=50 v=0
330368 On ch=1 n=49 v=91
330432 Off ch=1 n=49 v=0
330432 On ch=1 n=47 v=91
330496 Off ch=1 n=47 v=0
330496 On ch=1 n=45 v=97
330560 Off ch=1 n=45 v=0
330560 On ch=1 n=43 v=99
330624 Off ch=1 n=43 v=0
330624 On ch=1 n=42 v=100
330688 Off ch=1 n=42 v=0
330688 On ch=1 n=40 v=95
330752 Off ch=1 n=40 v=0
330752 On ch=1 n=38 v=106
330752 Off ch=1 n=33 v=0
330816 On ch=1 n=40 v=104
330817 Off ch=1 n=38 v=0
330880 On ch=1 n=42 v=116
330881 Off ch=1 n=40 v=0
330944 On ch=1 n=43 v=114
330945 Off ch=1 n=42 v=0
331008 On ch=1 n=45 v=114
331009 Off ch=1 n=43 v=0
331072 On ch=1 n=47 v=118
331073 Off ch=1 n=45 v=0
331136 On ch=1 n=49 v=116
331137 Off ch=1 n=47 v=0
331200 On ch=1 n=50 v=122
331201 Off ch=1 n=49 v=0
331264 On ch=1 n=52 v=118
331264 On ch=1 n=40 v=101
331265 Off ch=1 n=50 v=0
331328 On ch=1 n=54 v=121
331328 On ch=1 n=42 v=102
331329 Off ch=1 n=52 v=0
331329 Off ch=1 n=40 v=0
331392 On ch=1 n=55 v=117
331392 On ch=1 n=43 v=115
331393 Off ch=1 n=54 v=0
331393 Off ch=1 n=42 v=0
331456 On ch=1 n=57 v=124
331456 On ch=1 n=45 v=116
331457 Off ch=1 n=55 v=0
331457 Off ch=1 n=43 v=0
331520 On ch=1 n=59 v=117
331520 On ch=1 n=47 v=119
331521 Off ch=1 n=57 v=0
331521 Off ch=1 n=45 v=0
331584 On ch=1 n=61 v=127
331584 On ch=1 n=49 v=126
331585 Off ch=1 n=59 v=0
331585 Off ch=1 n=47 v=0
331648 On ch=1 n=62 v=111
331648 On ch=1 n=50 v=116
331649 Off ch=1 n=61 v=0
331649 Off ch=1 n=49 v=0
331712 On ch=1 n=64 v=119
331712 On ch=1 n=52 v=121
331713 Off ch=1 n=62 v=0
331713 Off ch=1 n=50 v=0
331776 On ch=1 n=66 v=121
331776 On ch=1 n=54 v=116
331777 Off ch=1 n=64 v=0
331777 Off ch=1 n=52 v=0
331840 On ch=1 n=67 v=126
331840 On ch=1 n=55 v=113
331841 Off ch=1 n=66 v=0
331841 Off ch=1 n=54 v=0
331904 On ch=1 n=69 v=124
331904 On ch=1 n=57 v=114
331905 Off ch=1 n=67 v=0
331905 Off ch=1 n=55 v=0
331968 On ch=1 n=71 v=127
331968 On ch=1 n=59 v=114
331969 Off ch=1 n=69 v=0
331969 Off ch=1 n=57 v=0
332032 On ch=1 n=73 v=120
332032 On ch=1 n=61 v=114
332033 Off ch=1 n=71 v=0
332033 Off ch=1 n=59 v=0
332096 On ch=1 n=74 v=126
332096 On ch=1 n=62 v=122
332097 Off ch=1 n=73 v=0
332097 Off ch=1 n=61 v=0
332160 On ch=1 n=76 v=122
332160 On ch=1 n=64 v=121
332161 Off ch=1 n=74 v=0
332161 Off ch=1 n=62 v=0
332224 On ch=1 n=78 v=127
332224 On ch=1 n=66 v=125
332225 Off ch=1 n=76 v=0
332225 Off ch=1 n=64 v=0
332284 Off ch=1 n=78 v=0
332284 Off ch=1 n=66 v=0
332288 On ch=1 n=79 v=115
332288 On ch=1 n=67 v=122
332467 Off ch=1 n=79 v=0
332467 Off ch=1 n=67 v=0
332544 On ch=1 n=80 v=120
332544 On ch=1 n=68 v=120
332723 Off ch=1 n=80 v=0
332723 Off ch=1 n=68 v=0
332800 On ch=1 n=81 v=127
332800 On ch=1 n=69 v=127
333056 Off ch=1 n=81 v=0
333056 Off ch=1 n=69 v=0
333312 On ch=1 n=64 v=113
333312 On ch=1 n=67 v=113
333312 On ch=1 n=69 v=113
333312 On ch=1 n=73 v=113
333312 On ch=1 n=45 v=112
333312 On ch=1 n=49 v=112
333312 On ch=1 n=52 v=112
333312 On ch=1 n=57 v=112
333568 Off ch=1 n=64 v=0
333568 Off ch=1 n=67 v=0
333568 Off ch=1 n=69 v=0
333568 Off ch=1 n=73 v=0
333568 Off ch=1 n=45 v=0
333568 Off ch=1 n=49 v=0
333568 Off ch=1 n=52 v=0
333568 Off ch=1 n=57 v=0
333824 On ch=1 n=62 v=117
333824 On ch=1 n=66 v=117
333824 On ch=1 n=69 v=117
333824 On ch=1 n=74 v=117
333824 On ch=1 n=38 v=120
333824 On ch=1 n=42 v=120
333824 On ch=1 n=45 v=120
333824 On ch=1 n=50 v=120
334080 Off ch=1 n=62 v=0
334080 Off ch=1 n=66 v=0
334080 Off ch=1 n=69 v=0
334080 Off ch=1 n=74 v=0
334080 Off ch=1 n=38 v=0
334080 Off ch=1 n=42 v=0
334080 Off ch=1 n=45 v=0
334080 Off ch=1 n=50 v=0