192 On ch=1 n=69 v=48
192 On ch=1 n=72 v=48
195 Off ch=1 n=67 v=0
195 Off ch=1 n=71 v=0
256 On ch=1 n=71 v=52
256 On ch=1 n=74 v=52
256 On ch=1 n=43 v=33
257 Off ch=1 n=69 v=0
257 Off ch=1 n=72 v=0
448 On ch=1 n=70 v=47
448 On ch=1 n=73 v=47
451 Off ch=1 n=71 v=0
451 Off ch=1 n=74 v=0
512 On ch=1 n=71 v=50
512 On ch=1 n=74 v=50
512 On ch=1 n=47 v=34
513 Off ch=1 n=70 v=0
513 Off ch=1 n=73 v=0
517 Off ch=1 n=43 v=0
704 On ch=1 n=70 v=46
704 On ch=1 n=73 v=46
707 Off ch=1 n=71 v=0
707 Off ch=1 n=74 v=0
768 On ch=1 n=71 v=51
768 On ch=1 n=74 v=51
768 On ch=1 n=50 v=37
769 Off ch=1 n=70 v=0
769 Off ch=1 n=73 v=0
773 Off ch=1 n=47 v=0
960 On ch=1 n=70 v=48
960 On ch=1 n=73 v=48
963 Off ch=1 n=71 v=0
963 Off ch=1 n=74 v=0
1024 On ch=1 n=71 v=49
1024 On ch=1 n=74 v=49
1024 On ch=1 n=55 v=44
1025 Off ch=1 n=70 v=0
1025 Off ch=1 n=73 v=0
1029 Off ch=1 n=50 v=0
1267 Off ch=1 n=55 v=0
1280 On ch=1 n=43 v=25
1510 Off ch=1 n=71 v=0
1510 Off ch=1 n=74 v=0
1536 On ch=1 n=72 v=51
1536 On ch=1 n=76 v=51
1536 Off ch=1 n=43 v=0
1728 On ch=1 n=68 v=45
1728 On ch=1 n=71 v=45
1731 Off ch=1 n=72 v=0
1731 Off ch=1 n=76 v=0
1792 On ch=1 n=69 v=49
1792 On ch=1 n=72 v=49
1792 On ch=1 n=50 v=35
1793 Off ch=1 n=68 v=0
1793 Off ch=1 n=71 v=0
2048 Off ch=1 n=50 v=0
2048 On ch=1 n=38 v=32
2278 Off ch=1 n=69 v=0
2278 Off ch=1 n=72 v=0
2304 On ch=1 n=71 v=49
2304 On ch=1 n=74 v=49
2304 Off ch=1 n=38 v=0
2496 On ch=1 n=66 v=41
2496 On ch=1 n=69 v=41
2499 Off ch=1 n=71 v=0
2499 Off ch=1 n=74 v=0
2560 On ch=1 n=67 v=44
2560 On ch=1 n=71 v=44
2560 On ch=1 n=43 v=33
2561 Off ch=1 n=66 v=0
2561 Off ch=1 n=69 v=0
2803 Off ch=1 n=67 v=0
2816 Off ch=1 n=43 v=0
2816 On ch=1 n=31 v=28
2960 Off ch=1 n=71 v=0
3072 On ch=1 n=59 v=44
3072 On ch=1 n=67 v=44
3072 Off ch=1 n=31 v=0
3264 On ch=1 n=62 v=57
3264 On ch=1 n=69 v=57
3267 Off ch=1 n=59 v=0
3267 Off ch=1 n=67 v=0
3328 On ch=1 n=67 v=58
3328 On ch=1 n=71 v=58
3328 On ch=1 n=43 v=32
3329 Off ch=1 n=62 v=0
3329 Off ch=1 n=69 v=0
3520 On ch=1 n=66 v=51
3520 On ch=1 n=70 v=51
3523 Off ch=1 n=67 v=0
3523 Off ch=1 n=71 v=0
3584 On ch=1 n=67 v=60
3584 On ch=1 n=71 v=60
3584 On ch=1 n=47 v=48
3585 Off ch=1 n=66 v=0
3585 Off ch=1 n=70 v=0
3589 Off ch=1 n=43 v=0
3776 On ch=1 n=66 v=60
3776 On ch=1 n=70 v=60
3779 Off ch=1 n=67 v=0
3779 Off ch=1 n=71 v=0
3840 On ch=1 n=67 v=60
3840 On ch=1 n=71 v=60
3840 On ch=1 n=51 v=51
3841 Off ch=1 n=66 v=0
3841 Off ch=1 n=70 v=0
3845 Off ch=1 n=47 v=0
4032 On ch=1 n=66 v=61
4032 On ch=1 n=70 v=61
4035 Off ch=1 n=67 v=0
4035 Off ch=1 n=71 v=0
4096 On ch=1 n=67 v=70
4096 On ch=1 n=71 v=70
4096 On ch=1 n=52 v=51
4097 Off ch=1 n=66 v=0
4097 Off ch=1 n=70 v=0
4101 Off ch=1 n=51 v=0
4352 On ch=1 n=54 v=58
4357 Off ch=1 n=52 v=0
4582 Off ch=1 n=67 v=0
4582 Off ch=1 n=71 v=0
4608 On ch=1 n=66 v=62
4608 On ch=1 n=69 v=62
4608 On ch=1 n=55 v=61
4613 Off ch=1 n=54 v=0
4736 Off ch=1 n=66 v=0
4736 Off ch=1 n=69 v=0
4736 On ch=1 n=64 v=61
4736 On ch=1 n=67 v=61
4864 Off ch=1 n=64 v=0
4864 Off ch=1 n=67 v=0
4864 On ch=1 n=64 v=65
4864 On ch=1 n=67 v=65
4864 On ch=1 n=57 v=63
4869 Off ch=1 n=55 v=0
4992 On ch=1 n=62 v=60
4992 On ch=1 n=66 v=60
4994 Off ch=1 n=64 v=0
4994 Off ch=1 n=67 v=0
5107 Off ch=1 n=57 v=0
5113 Off ch=1 n=62 v=0
5113 Off ch=1 n=66 v=0
5120 On ch=1 n=62 v=59
5120 On ch=1 n=66 v=59
5120 On ch=1 n=45 v=52
5248 Off ch=1 n=62 v=0
5248 Off ch=1 n=66 v=0
5248 On ch=1 n=66 v=63
5248 On ch=1 n=69 v=63
5376 Off ch=1 n=66 v=0
5376 Off ch=1 n=69 v=0
5376 On ch=1 n=64 v=51
5376 On ch=1 n=67 v=51
5376 Off ch=1 n=45 v=0
5504 Off ch=1 n=64 v=0
5504 On ch=1 n=61 v=51
5504 On ch=1 n=64 v=51
5506 Off ch=1 n=67 v=0
5625 Off ch=1 n=61 v=0
5625 Off ch=1 n=64 v=0
5632 On ch=1 n=62 v=45
5632 On ch=1 n=50 v=31
5882 Off ch=1 n=62 v=0
5888 Off ch=1 n=50 v=0
5888 On ch=1 n=62 v=48
6068 Off ch=1 n=62 v=0
6144 On ch=1 n=67 v=44
6144 On ch=1 n=71 v=44
6336 On ch=1 n=69 v=48
6336 On ch=1 n=72 v=48
6339 Off ch=1 n=67 v=0
6339 Off ch=1 n=71 v=0
6400 On ch=1 n=71 v=52
6400 On ch=1 n=74 v=52
6400 On ch=1 n=43 v=30
6401 Off ch=1 n=69 v=0
6401 Off ch=1 n=72 v=0
6592 On ch=1 n=70 v=47
6592 On ch=1 n=73 v=47
6595 Off ch=1 n=71 v=0
6595 Off ch=1 n=74 v=0
6656 On ch=1 n=71 v=47
6656 On ch=1 n=74 v=47
6656 On ch=1 n=47 v=30
6657 Off ch=1 n=70 v=0
6657 Off ch=1 n=73 v=0
6661 Off ch=1 n=43 v=0
6848 On ch=1 n=70 v=47
6848 On ch=1 n=73 v=47
6851 Off ch=1 n=71 v=0
6851 Off ch=1 n=74 v=0
6912 On ch=1 n=71 v=50
6912 On ch=1 n=74 v=50
6912 On ch=1 n=50 v=30
6913 Off ch=1 n=70 v=0
6913 Off ch=1 n=73 v=0
6917 Off ch=1 n=47 v=0
7104 On ch=1 n=70 v=48
7104 On ch=1 n=73 v=48
7107 Off ch=1 n=71 v=0
7107 Off ch=1 n=74 v=0
7168 On ch=1 n=71 v=47
7168 On ch=1 n=74 v=47
7168 On ch=1 n=55 v=31
7169 Off ch=1 n=70 v=0
7169 Off ch=1 n=73 v=0
7173 Off ch=1 n=50 v=0
7411 Off ch=1 n=55 v=0
7424 On ch=1 n=43 v=31
7654 Off ch=1 n=71 v=0
7654 Off ch=1 n=74 v=0
7680 On ch=1 n=72 v=48
7680 On ch=1 n=76 v=48
7680 Off ch=1 n=43 v=0
7872 On ch=1 n=68 v=40
7872 On ch=1 n=71 v=40
7875 Off ch=1 n=72 v=0
7875 Off ch=1 n=76 v=0
7936 On ch=1 n=69 v=50
7936 On ch=1 n=72 v=50
7936 On ch=1 n=50 v=36
7937 Off ch=1 n=68 v=0
7937 Off ch=1 n=71 v=0
8192 Off ch=1 n=50 v=0
8192 On ch=1 n=38 v=31
8422 Off ch=1 n=69 v=0
8422 Off ch=1 n=72 v=0
8448 On ch=1 n=71 v=53
8448 On ch=1 n=74 v=53
8448 Off ch=1 n=38 v=0
8640 On ch=1 n=66 v=43
8640 On ch=1 n=69 v=43
8643 Off ch=1 n=71 v=0
8643 Off ch=1 n=74 v=0
8704 On ch=1 n=67 v=51
8704 On ch=1 n=71 v=51
8704 On ch=1 n=43 v=32
8705 Off ch=1 n=66 v=0
8705 Off ch=1 n=69 v=0
8947 Off ch=1 n=67 v=0
8960 Off ch=1 n=43 v=0
8960 On ch=1 n=31 v=33
9104 Off ch=1 n=71 v=0
9216 On ch=1 n=59 v=46
9216 On ch=1 n=67 v=46
9216 Off ch=1 n=31 v=0
9408 On ch=1 n=62 v=53
9408 On ch=1 n=69 v=53
9411 Off ch=1 n=59 v=0
9411 Off ch=1 n=67 v=0
9472 On ch=1 n=67 v=57
9472 On ch=1 n=71 v=57
9472 On ch=1 n=43 v=33
9473 Off ch=1 n=62 v=0
9473 Off ch=1 n=69 v=0
9664 On ch=1 n=66 v=57
9664 On ch=1 n=70 v=57
9667 Off ch=1 n=67 v=0
9667 Off ch=1 n=71 v=0
9728 On ch=1 n=67 v=62
9728 On ch=1 n=71 v=62
9728 On ch=1 n=47 v=46
9729 Off ch=1 n=66 v=0
9729 Off ch=1 n=70 v=0
9733 Off ch=1 n=43 v=0
9920 On ch=1 n=66 v=59
9920 On ch=1 n=70 v=59
9923 Off ch=1 n=67 v=0
9923 Off ch=1 n=71 v=0
9984 On ch=1 n=67 v=62
9984 On ch=1 n=71 v=62
9984 On ch=1 n=51 v=46
9985 Off ch=1 n=66 v=0
9985 Off ch=1 n=70 v=0
9989 Off ch=1 n=47 v=0
10176 On ch=1 n=66 v=61
10176 On ch=1 n=70 v=61
10179 Off ch=1 n=67 v=0
10179 Off ch=1 n=71 v=0
10240 On ch=1 n=67 v=69
10240 On ch=1 n=71 v=69
10240 On ch=1 n=52 v=54
10241 Off ch=1 n=66 v=0
10241 Off ch=1 n=70 v=0
10245 Off ch=1 n=51 v=0
10496 On ch=1 n=54 v=59
10501 Off ch=1 n=52 v=0
10726 Off ch=1 n=67 v=0
10726 Off ch=1 n=71 v=0
10752 On ch=1 n=66 v=55
10752 On ch=1 n=69 v=55
10752 On ch=1 n=55 v=69
10757 Off ch=1 n=54 v=0
10880 Off ch=1 n=66 v=0
10880 Off ch=1 n=69 v=0
10880 On ch=1 n=64 v=62
10880 On ch=1 n=67 v=62
11008 Off ch=1 n=64 v=0
11008 Off ch=1 n=67 v=0
11008 On ch=1 n=64 v=63
11008 On ch=1 n=67 v=63
11008 On ch=1 n=57 v=67
11013 Off ch=1 n=55 v=0
11136 On ch=1 n=62 v=62
11136 On ch=1 n=66 v=62
11138 Off ch=1 n=64 v=0
11138 Off ch=1 n=67 v=0
11251 Off ch=1 n=57 v=0
11257 Off ch=1 n=62 v=0
11257 Off ch=1 n=66 v=0
11264 On ch=1 n=62 v=55
11264 On ch=1 n=66 v=55
11264 On ch=1 n=45 v=45
11392 Off ch=1 n=62 v=0
11392 Off ch=1 n=66 v=0
11392 On ch=1 n=66 v=61
11392 On ch=1 n=69 v=61
11520 Off ch=1 n=66 v=0
11520 Off ch=1 n=69 v=0
11520 On ch=1 n=64 v=50
11520 On ch=1 n=67 v=50
11520 Off ch=1 n=45 v=0
11648 Off ch=1 n=64 v=0
11648 On ch=1 n=61 v=48
11648 On ch=1 n=64 v=48
11650 Off ch=1 n=67 v=0
11769 Off ch=1 n=61 v=0
11769 Off ch=1 n=64 v=0
11776 On ch=1 n=62 v=45
11776 On ch=1 n=50 v=33
12026 Off ch=1 n=62 v=0
12032 Off ch=1 n=50 v=0
12032 On ch=1 n=62 v=40
12212 Off ch=1 n=62 v=0
12288 On ch=1 n=74 v=71
12416 On ch=1 n=79 v=86
12418 Off ch=1 n=74 v=0
12537 Off ch=1 n=79 v=0
12544 On ch=1 n=74 v=80
12544 On ch=1 n=79 v=80
12544 On ch=1 n=59 v=55
12544 On ch=1 n=62 v=55
12800 On ch=1 n=72 v=74
12800 On ch=1 n=78 v=74
12800 Off ch=1 n=62 v=0
12800 On ch=1 n=57 v=57
12800 On ch=1 n=62 v=57
12805 Off ch=1 n=74 v=0
12805 Off ch=1 n=79 v=0
12805 Off ch=1 n=59 v=0
13056 On ch=1 n=71 v=84
13056 On ch=1 n=79 v=84
13056 Off ch=1 n=62 v=0
13056 On ch=1 n=55 v=60
13056 On ch=1 n=62 v=60
13061 Off ch=1 n=72 v=0
13061 Off ch=1 n=78 v=0
13061 Off ch=1 n=57 v=0
13312 On ch=1 n=81 v=83
13312 On ch=1 n=69 v=52
13312 Off ch=1 n=62 v=0
13312 On ch=1 n=62 v=60
13312 On ch=1 n=54 v=52
13317 Off ch=1 n=71 v=0
13317 Off ch=1 n=79 v=0
13317 Off ch=1 n=55 v=0
13555 Off ch=1 n=69 v=0
13568 On ch=1 n=50 v=49
13573 Off ch=1 n=54 v=0
13798 Off ch=1 n=81 v=0
13824 On ch=1 n=79 v=78
13824 On ch=1 n=54 v=67
13829 Off ch=1 n=50 v=0
13888 On ch=1 n=78 v=77
13889 Off ch=1 n=79 v=0
13952 On ch=1 n=76 v=74
13953 Off ch=1 n=78 v=0
14016 On ch=1 n=74 v=69
14017 Off ch=1 n=76 v=0
14076 Off ch=1 n=74 v=0
14080 On ch=1 n=69 v=72
14080 On ch=1 n=72 v=72
14080 On ch=1 n=55 v=54
14085 Off ch=1 n=54 v=0
14095 Off ch=1 n=62 v=0
14336 On ch=1 n=67 v=69
14336 On ch=1 n=71 v=69
14341 Off ch=1 n=69 v=0
14341 Off ch=1 n=72 v=0
14566 Off ch=1 n=55 v=0
14592 On ch=1 n=72 v=93
14592 On ch=1 n=76 v=93
14592 On ch=1 n=48 v=60
14597 Off ch=1 n=67 v=0
14597 Off ch=1 n=71 v=0
14784 Off ch=1 n=72 v=0
14784 On ch=1 n=69 v=86
14784 On ch=1 n=72 v=86
14787 Off ch=1 n=76 v=0
14844 Off ch=1 n=69 v=0
14844 Off ch=1 n=72 v=0
14848 On ch=1 n=67 v=79
14848 On ch=1 n=71 v=79
14848 Off ch=1 n=48 v=0
14848 On ch=1 n=50 v=64
15104 On ch=1 n=66 v=69
15104 On ch=1 n=69 v=69
15104 Off ch=1 n=50 v=0
15109 Off ch=1 n=67 v=0
15109 Off ch=1 n=71 v=0
15225 Off ch=1 n=66 v=0
15254 Off ch=1 n=69 v=0
15360 On ch=1 n=59 v=69
15360 On ch=1 n=67 v=69
15360 On ch=1 n=59 v=72
15552 On ch=1 n=60 v=72
15552 On ch=1 n=69 v=72
15555 Off ch=1 n=59 v=0
15555 Off ch=1 n=67 v=0
15616 On ch=1 n=62 v=103
15616 On ch=1 n=71 v=103
15616 Off ch=1 n=59 v=0
15616 On ch=1 n=31 v=67
15616 On ch=1 n=43 v=67
15617 Off ch=1 n=60 v=0
15617 Off ch=1 n=69 v=0
15808 On ch=1 n=61 v=99
15808 On ch=1 n=70 v=99
15811 Off ch=1 n=62 v=0
15811 Off ch=1 n=71 v=0
15872 On ch=1 n=62 v=99
15872 On ch=1 n=71 v=99
15872 Off ch=1 n=31 v=0
15872 Off ch=1 n=43 v=0
15872 On ch=1 n=35 v=80
15872 On ch=1 n=47 v=80
15873 Off ch=1 n=61 v=0
15873 Off ch=1 n=70 v=0
16064 On ch=1 n=61 v=98
16064 On ch=1 n=70 v=98
16067 Off ch=1 n=62 v=0
16067 Off ch=1 n=71 v=0
16128 On ch=1 n=62 v=104
16128 On ch=1 n=71 v=104
16128 Off ch=1 n=35 v=0
16128 Off ch=1 n=47 v=0
16128 On ch=1 n=38 v=84
16128 On ch=1 n=50 v=84
16129 Off ch=1 n=61 v=0
16129 Off ch=1 n=70 v=0
16320 On ch=1 n=61 v=99
16320 On ch=1 n=70 v=99
16323 Off ch=1 n=62 v=0
16323 Off ch=1 n=71 v=0
16384 On ch=1 n=62 v=107
16384 On ch=1 n=71 v=107
16384 Off ch=1 n=38 v=0
16384 Off ch=1 n=50 v=0
16384 On ch=1 n=43 v=83
16384 On ch=1 n=55 v=83
16385 Off ch=1 n=61 v=0
16385 Off ch=1 n=70 v=0
16640 Off ch=1 n=43 v=0
16640 Off ch=1 n=55 v=0
16640 On ch=1 n=41 v=78
16640 On ch=1 n=53 v=78
16870 Off ch=1 n=62 v=0
16870 Off ch=1 n=71 v=0
16896 On ch=1 n=64 v=99
16896 On ch=1 n=72 v=99
16896 Off ch=1 n=41 v=0
16896 Off ch=1 n=53 v=0
16896 On ch=1 n=40 v=74
16896 On ch=1 n=52 v=74
17088 On ch=1 n=59 v=91
17088 On ch=1 n=68 v=91
17091 Off ch=1 n=64 v=0
17091 Off ch=1 n=72 v=0
17152 On ch=1 n=60 v=98
17152 On ch=1 n=69 v=98
17153 Off ch=1 n=59 v=0
17153 Off ch=1 n=68 v=0
17408 Off ch=1 n=40 v=0
17408 Off ch=1 n=52 v=0
17408 On ch=1 n=39 v=78
17408 On ch=1 n=51 v=78
17638 Off ch=1 n=60 v=0
17638 Off ch=1 n=69 v=0
17664 On ch=1 n=62 v=107
17664 On ch=1 n=71 v=107
17664 Off ch=1 n=39 v=0
17664 Off ch=1 n=51 v=0
17664 On ch=1 n=38 v=76
17664 On ch=1 n=50 v=76
17856 On ch=1 n=57 v=99
17856 On ch=1 n=66 v=99
17859 Off ch=1 n=62 v=0
17859 Off ch=1 n=71 v=0
17920 On ch=1 n=59 v=101
17920 On ch=1 n=67 v=101
17920 Off ch=1 n=38 v=0
17920 Off ch=1 n=50 v=0
17920 On ch=1 n=43 v=72
17921 Off ch=1 n=57 v=0
17921 Off ch=1 n=66 v=0
18163 Off ch=1 n=59 v=0
18163 Off ch=1 n=67 v=0
18176 On ch=1 n=55 v=81
18181 Off ch=1 n=43 v=0
18419 Off ch=1 n=55 v=0
18432 On ch=1 n=74 v=71
18560 On ch=1 n=79 v=81
18562 Off ch=1 n=74 v=0
18681 Off ch=1 n=79 v=0
18688 On ch=1 n=74 v=76
18688 On ch=1 n=79 v=76
18688 On ch=1 n=59 v=56
18688 On ch=1 n=62 v=56
18944 On ch=1 n=72 v=74
18944 On ch=1 n=78 v=74
18944 Off ch=1 n=62 v=0
18944 On ch=1 n=57 v=53
18944 On ch=1 n=62 v=53
18949 Off ch=1 n=74 v=0
18949 Off ch=1 n=79 v=0
18949 Off ch=1 n=59 v=0
19200 On ch=1 n=71 v=83
19200 On ch=1 n=79 v=83
19200 Off ch=1 n=62 v=0
19200 On ch=1 n=55 v=63
19200 On ch=1 n=62 v=63
19205 Off ch=1 n=72 v=0
19205 Off ch=1 n=78 v=0
19205 Off ch=1 n=57 v=0
19456 On ch=1 n=81 v=83
19456 On ch=1 n=69 v=63
19456 Off ch=1 n=62 v=0
19456 On ch=1 n=62 v=66
19456 On ch=1 n=54 v=66
19461 Off ch=1 n=71 v=0
19461 Off ch=1 n=79 v=0
19461 Off ch=1 n=55 v=0
19699 Off ch=1 n=69 v=0
19712 On ch=1 n=50 v=67
19717 Off ch=1 n=54 v=0
19942 Off ch=1 n=81 v=0
19968 On ch=1 n=79 v=76
19968 On ch=1 n=54 v=67
19973 Off ch=1 n=50 v=0
20032 On ch=1 n=78 v=68
20033 Off ch=1 n=79 v=0
20096 On ch=1 n=76 v=72
20097 Off ch=1 n=78 v=0
20160 On ch=1 n=74 v=66
20161 Off ch=1 n=76 v=0
20220 Off ch=1 n=74 v=0
20224 On ch=1 n=69 v=75
20224 On ch=1 n=72 v=75
20224 On ch=1 n=55 v=60
20229 Off ch=1 n=54 v=0
20239 Off ch=1 n=62 v=0
20480 On ch=1 n=67 v=72
20480 On ch=1 n=71 v=72
20485 Off ch=1 n=69 v=0
20485 Off ch=1 n=72 v=0
20710 Off ch=1 n=55 v=0
20736 On ch=1 n=72 v=87
20736 On ch=1 n=76 v=87
20736 On ch=1 n=48 v=58
20741 Off ch=1 n=67 v=0
20741 Off ch=1 n=71 v=0
20928 Off ch=1 n=72 v=0
20928 On ch=1 n=69 v=77
20928 On ch=1 n=72 v=77
20931 Off ch=1 n=76 v=0
20988 Off ch=1 n=69 v=0
20988 Off ch=1 n=72 v=0
20992 On ch=1 n=67 v=74
20992 On ch=1 n=71 v=74
20992 Off ch=1 n=48 v=0
20992 On ch=1 n=50 v=67
21248 On ch=1 n=66 v=71
21248 On ch=1 n=69 v=71
21248 Off ch=1 n=50 v=0
21253 Off ch=1 n=67 v=0
21253 Off ch=1 n=71 v=0
21369 Off ch=1 n=66 v=0
21398 Off ch=1 n=69 v=0
21504 On ch=1 n=59 v=72
21504 On ch=1 n=67 v=72
21504 On ch=1 n=59 v=68
21696 On ch=1 n=60 v=78
21696 On ch=1 n=69 v=78
21699 Off ch=1 n=59 v=0
21699 Off ch=1 n=67 v=0
21760 On ch=1 n=62 v=102
21760 On ch=1 n=71 v=102
21760 Off ch=1 n=59 v=0
21760 On ch=1 n=31 v=69
21760 On ch=1 n=43 v=69
21761 Off ch=1 n=60 v=0
21761 Off ch=1 n=69 v=0
21952 On ch=1 n=61 v=98
21952 On ch=1 n=70 v=98
21955 Off ch=1 n=62 v=0
21955 Off ch=1 n=71 v=0
22016 On ch=1 n=62 v=102
22016 On ch=1 n=71 v=102
22016 Off ch=1 n=31 v=0
22016 Off ch=1 n=43 v=0
22016 On ch=1 n=35 v=80
22016 On ch=1 n=47 v=80
22017 Off ch=1 n=61 v=0
22017 Off ch=1 n=70 v=0
22208 On ch=1 n=61 v=97
22208 On ch=1 n=70 v=97
22211 Off ch=1 n=62 v=0
22211 Off ch=1 n=71 v=0
22272 On ch=1 n=62 v=101
22272 On ch=1 n=71 v=101
22272 Off ch=1 n=35 v=0
22272 Off ch=1 n=47 v=0
22272 On ch=1 n=38 v=85
22272 On ch=1 n=50 v=85
22273 Off ch=1 n=61 v=0
22273 Off ch=1 n=70 v=0
22464 On ch=1 n=61 v=96
22464 On ch=1 n=70 v=96
22467 Off ch=1 n=62 v=0
22467 Off ch=1 n=71 v=0
22528 On ch=1 n=62 v=99
22528 On ch=1 n=71 v=99
22528 Off ch=1 n=38 v=0
22528 Off ch=1 n=50 v=0
22528 On ch=1 n=43 v=81
22528 On ch=1 n=55 v=81
22529 Off ch=1 n=61 v=0
22529 Off ch=1 n=70 v=0
22784 Off ch=1 n=43 v=0
22784 Off ch=1 n=55 v=0
22784 On ch=1 n=41 v=75
22784 On ch=1 n=53 v=75
23014 Off ch=1 n=62 v=0
23014 Off ch=1 n=71 v=0
23040 On ch=1 n=64 v=105
23040 On ch=1 n=72 v=105
23040 Off ch=1 n=41 v=0
23040 Off ch=1 n=53 v=0
23040 On ch=1 n=40 v=77
23040 On ch=1 n=52 v=77
23232 On ch=1 n=59 v=95
23232 On ch=1 n=68 v=95
23235 Off ch=1 n=64 v=0
23235 Off ch=1 n=72 v=0
23296 On ch=1 n=60 v=98
23296 On ch=1 n=69 v=98
23297 Off ch=1 n=59 v=0
23297 Off ch=1 n=68 v=0
23552 Off ch=1 n=40 v=0
23552 Off ch=1 n=52 v=0
23552 On ch=1 n=39 v=78
23552 On ch=1 n=51 v=78
23782 Off ch=1 n=60 v=0
23782 Off ch=1 n=69 v=0
23808 On ch=1 n=62 v=107
23808 On ch=1 n=71 v=107
23808 Off ch=1 n=39 v=0
23808 Off ch=1 n=51 v=0
23808 On ch=1 n=38 v=80
23808 On ch=1 n=50 v=80
24000 On ch=1 n=57 v=92
24000 On ch=1 n=66 v=92
24003 Off ch=1 n=62 v=0
24003 Off ch=1 n=71 v=0
24064 On ch=1 n=59 v=98
24064 On ch=1 n=67 v=98
24064 Off ch=1 n=38 v=0
24064 Off ch=1 n=50 v=0
24064 On ch=1 n=43 v=70
24065 Off ch=1 n=57 v=0
24065 Off ch=1 n=66 v=0
24320 On ch=1 n=55 v=82
24325 Off ch=1 n=43 v=0
24428 Off ch=1 n=59 v=0
24428 Off ch=1 n=67 v=0
24563 Off ch=1 n=55 v=0
24576 On ch=1 n=74 v=56
24704 On ch=1 n=73 v=51
24706 Off ch=1 n=74 v=0
24832 On ch=1 n=74 v=69
24834 Off ch=1 n=73 v=0
24953 Off ch=1 n=74 v=0
24960 On ch=1 n=71 v=66
24960 On ch=1 n=43 v=44
25088 On ch=1 n=74 v=69
25090 Off ch=1 n=71 v=0
25216 On ch=1 n=67 v=55
25216 On ch=1 n=50 v=50
25218 Off ch=1 n=74 v=0
25221 Off ch=1 n=43 v=0
25344 On ch=1 n=71 v=58
25346 Off ch=1 n=67 v=0
25472 On ch=1 n=62 v=51
25472 On ch=1 n=55 v=53
25474 Off ch=1 n=71 v=0
25477 Off ch=1 n=50 v=0
25600 On ch=1 n=71 v=56
25602 Off ch=1 n=62 v=0
25715 Off ch=1 n=55 v=0
25721 Off ch=1 n=71 v=0
25728 On ch=1 n=69 v=63
25728 On ch=1 n=48 v=47
25856 On ch=1 n=72 v=65
25858 Off ch=1 n=69 v=0
25984 On ch=1 n=66 v=55
25984 On ch=1 n=50 v=52
25986 Off ch=1 n=72 v=0
25989 Off ch=1 n=48 v=0
26112 On ch=1 n=69 v=59
26114 Off ch=1 n=66 v=0
26240 On ch=1 n=62 v=52
26240 On ch=1 n=54 v=48
26242 Off ch=1 n=69 v=0
26245 Off ch=1 n=50 v=0
26368 On ch=1 n=66 v=56
26370 Off ch=1 n=62 v=0
26483 Off ch=1 n=54 v=0
26489 Off ch=1 n=66 v=0
26496 On ch=1 n=67 v=68
26496 On ch=1 n=47 v=45
26624 On ch=1 n=66 v=66
26626 Off ch=1 n=67 v=0
26752 On ch=1 n=67 v=69
26752 On ch=1 n=50 v=46
26754 Off ch=1 n=66 v=0
26757 Off ch=1 n=47 v=0
26880 On ch=1 n=69 v=70
26882 Off ch=1 n=67 v=0
27008 On ch=1 n=71 v=68
27008 On ch=1 n=55 v=52
27010 Off ch=1 n=69 v=0
27013 Off ch=1 n=50 v=0
27136 On ch=1 n=73 v=76
27138 Off ch=1 n=71 v=0
27251 Off ch=1 n=55 v=0
27257 Off ch=1 n=73 v=0
27264 On ch=1 n=74 v=67
27264 On ch=1 n=54 v=47
27392 On ch=1 n=73 v=66
27394 Off ch=1 n=74 v=0
27520 On ch=1 n=74 v=65
27520 On ch=1 n=57 v=49
27522 Off ch=1 n=73 v=0
27525 Off ch=1 n=54 v=0
27648 On ch=1 n=76 v=75
27650 Off ch=1 n=74 v=0
27776 On ch=1 n=74 v=60
27776 On ch=1 n=62 v=54
27778 Off ch=1 n=76 v=0
27781 Off ch=1 n=57 v=0
27904 On ch=1 n=72 v=54
27906 Off ch=1 n=74 v=0
28019 Off ch=1 n=62 v=0
28025 Off ch=1 n=72 v=0
28032 On ch=1 n=71 v=61
28032 On ch=1 n=55 v=46
28160 On ch=1 n=70 v=60
28162 Off ch=1 n=71 v=0
28288 On ch=1 n=71 v=62
28288 On ch=1 n=59 v=58
28290 Off ch=1 n=70 v=0
28293 Off ch=1 n=55 v=0
28416 On ch=1 n=72 v=64
28418 Off ch=1 n=71 v=0
28531 Off ch=1 n=59 v=0
28544 On ch=1 n=71 v=64
28544 On ch=1 n=51 v=54
28546 Off ch=1 n=72 v=0
28672 On ch=1 n=69 v=61
28674 Off ch=1 n=71 v=0
28793 Off ch=1 n=69 v=0
28800 On ch=1 n=67 v=55
28800 Off ch=1 n=51 v=0
28800 On ch=1 n=52 v=52
28928 On ch=1 n=71 v=62
28930 Off ch=1 n=67 v=0
29056 On ch=1 n=69 v=59
29056 On ch=1 n=49 v=54
29058 Off ch=1 n=71 v=0
29061 Off ch=1 n=52 v=0
29184 On ch=1 n=67 v=52
29186 Off ch=1 n=69 v=0
29299 Off ch=1 n=49 v=0
29312 On ch=1 n=66 v=58
29312 On ch=1 n=50 v=57
29314 Off ch=1 n=67 v=0
29440 On ch=1 n=69 v=65
29442 Off ch=1 n=66 v=0
29568 On ch=1 n=64 v=56
29568 Off ch=1 n=50 v=0
29568 On ch=1 n=43 v=54
29570 Off ch=1 n=69 v=0
29696 On ch=1 n=66 v=56
29698 Off ch=1 n=64 v=0
29824 On ch=1 n=67 v=63
29824 Off ch=1 n=43 v=0
29826 Off ch=1 n=66 v=0
29952 On ch=1 n=64 v=56
29954 Off ch=1 n=67 v=0
30080 On ch=1 n=61 v=58
30080 On ch=1 n=45 v=53
30082 Off ch=1 n=64 v=0
30208 On ch=1 n=57 v=51
30210 Off ch=1 n=61 v=0
30329 Off ch=1 n=57 v=0
30336 On ch=1 n=62 v=67
30336 On ch=1 n=50 v=56
30341 Off ch=1 n=45 v=0
30636 Off ch=1 n=62 v=0
30636 Off ch=1 n=50 v=0
30720 On ch=1 n=74 v=57
30848 On ch=1 n=73 v=51
30850 Off ch=1 n=74 v=0
30976 On ch=1 n=74 v=67
30978 Off ch=1 n=73 v=0
31097 Off ch=1 n=74 v=0
31104 On ch=1 n=71 v=61
31104 On ch=1 n=43 v=40
31232 On ch=1 n=74 v=63
31234 Off ch=1 n=71 v=0
31360 On ch=1 n=67 v=53
31360 On ch=1 n=50 v=46
31362 Off ch=1 n=74 v=0
31365 Off ch=1 n=43 v=0
31488 On ch=1 n=71 v=62
31490 Off ch=1 n=67 v=0
31616 On ch=1 n=62 v=51
31616 On ch=1 n=55 v=55
31618 Off ch=1 n=71 v=0
31621 Off ch=1 n=50 v=0
31744 On ch=1 n=71 v=60
31746 Off ch=1 n=62 v=0
31859 Off ch=1 n=55 v=0
31865 Off ch=1 n=71 v=0
31872 On ch=1 n=69 v=59
31872 On ch=1 n=48 v=47
32000 On ch=1 n=72 v=63
32002 Off ch=1 n=69 v=0
32128 On ch=1 n=66 v=52
32128 On ch=1 n=50 v=48
32130 Off ch=1 n=72 v=0
32133 Off ch=1 n=48 v=0
32256 On ch=1 n=69 v=55
32258 Off ch=1 n=66 v=0
32384 On ch=1 n=62 v=54
32384 On ch=1 n=54 v=52
32386 Off ch=1 n=69 v=0
32389 Off ch=1 n=50 v=0
32512 On ch=1 n=66 v=57
32514 Off ch=1 n=62 v=0
32627 Off ch=1 n=54 v=0
32633 Off ch=1 n=66 v=0
32640 On ch=1 n=67 v=62
32640 On ch=1 n=47 v=48
32768 On ch=1 n=66 v=59
32770 Off ch=1 n=67 v=0
32896 On ch=1 n=67 v=69
32896 On ch=1 n=50 v=45
32898 Off ch=1 n=66 v=0
32901 Off ch=1 n=47 v=0
33024 On ch=1 n=69 v=71
33026 Off ch=1 n=67 v=0
33152 On ch=1 n=71 v=70
33152 On ch=1 n=55 v=48
33154 Off ch=1 n=69 v=0
33157 Off ch=1 n=50 v=0
33280 On ch=1 n=73 v=71
33282 Off ch=1 n=71 v=0
33395 Off ch=1 n=55 v=0
33401 Off ch=1 n=73 v=0
33408 On ch=1 n=74 v=67
33408 On ch=1 n=54 v=49
33536 On ch=1 n=73 v=71
33538 Off ch=1 n=74 v=0
33664 On ch=1 n=74 v=68
33664 On ch=1 n=57 v=50
33666 Off ch=1 n=73 v=0
33669 Off ch=1 n=54 v=0
33792 On ch=1 n=76 v=69
33794 Off ch=1 n=74 v=0
33920 On ch=1 n=74 v=60
33920 On ch=1 n=62 v=55
33922 Off ch=1 n=76 v=0
33925 Off ch=1 n=57 v=0
34048 On ch=1 n=72 v=52
34050 Off ch=1 n=74 v=0
34163 Off ch=1 n=62 v=0
34169 Off ch=1 n=72 v=0
34176 On ch=1 n=71 v=59
34176 On ch=1 n=55 v=46
34304 On ch=1 n=70 v=56
34306 Off ch=1 n=71 v=0
34432 On ch=1 n=71 v=62
34432 On ch=1 n=59 v=56
34434 Off ch=1 n=70 v=0
34437 Off ch=1 n=55 v=0
34560 On ch=1 n=72 v=65
34562 Off ch=1 n=71 v=0
34675 Off ch=1 n=59 v=0
34688 On ch=1 n=71 v=64
34688 On ch=1 n=51 v=50
34690 Off ch=1 n=72 v=0
34816 On ch=1 n=69 v=58
34818 Off ch=1 n=71 v=0
34937 Off ch=1 n=69 v=0
34944 On ch=1 n=67 v=55
34944 Off ch=1 n=51 v=0
34944 On ch=1 n=52 v=55
35072 On ch=1 n=71 v=63
35074 Off ch=1 n=67 v=0
35200 On ch=1 n=69 v=61
35200 On ch=1 n=49 v=55
35202 Off ch=1 n=71 v=0
35205 Off ch=1 n=52 v=0
35328 On ch=1 n=67 v=59
35330 Off ch=1 n=69 v=0
35443 Off ch=1 n=49 v=0
35456 On ch=1 n=66 v=61
35456 On ch=1 n=50 v=61
35458 Off ch=1 n=67 v=0
35584 On ch=1 n=69 v=65
35586 Off ch=1 n=66 v=0
35712 On ch=1 n=64 v=52
35712 Off ch=1 n=50 v=0
35712 On ch=1 n=43 v=54
35714 Off ch=1 n=69 v=0
35840 On ch=1 n=66 v=51
35842 Off ch=1 n=64 v=0
35968 On ch=1 n=67 v=66
35968 Off ch=1 n=43 v=0
35970 Off ch=1 n=66 v=0
36096 On ch=1 n=64 v=61
36098 Off ch=1 n=67 v=0
36224 On ch=1 n=61 v=63
36224 On ch=1 n=45 v=61
36226 Off ch=1 n=64 v=0
36352 On ch=1 n=57 v=58
36354 Off ch=1 n=61 v=0
36473 Off ch=1 n=57 v=0
36480 On ch=1 n=62 v=66
36480 On ch=1 n=50 v=63
36485 Off ch=1 n=45 v=0
36780 Off ch=1 n=62 v=0
36780 Off ch=1 n=50 v=0
36864 On ch=1 n=74 v=74
36992 On ch=1 n=73 v=68
36994 Off ch=1 n=74 v=0
37120 On ch=1 n=74 v=83
37122 Off ch=1 n=73 v=0
37248 On ch=1 n=76 v=83
37248 On ch=1 n=50 v=59
37250 Off ch=1 n=74 v=0
37376 On ch=1 n=72 v=71
37378 Off ch=1 n=76 v=0
37504 On ch=1 n=69 v=63
37506 Off ch=1 n=72 v=0
37625 Off ch=1 n=69 v=0
37632 On ch=1 n=71 v=85
37632 Off ch=1 n=50 v=0
37632 On ch=1 n=62 v=76
37760 On ch=1 n=70 v=84
37760 On ch=1 n=61 v=66
37762 Off ch=1 n=71 v=0
37762 Off ch=1 n=62 v=0
37888 On ch=1 n=71 v=98
37888 On ch=1 n=62 v=80
37890 Off ch=1 n=70 v=0
37890 Off ch=1 n=61 v=0
38016 On ch=1 n=72 v=105
38016 On ch=1 n=64 v=88
38018 Off ch=1 n=71 v=0
38018 Off ch=1 n=62 v=0
38144 On ch=1 n=69 v=79
38144 On ch=1 n=60 v=68
38146 Off ch=1 n=72 v=0
38146 Off ch=1 n=64 v=0
38272 On ch=1 n=66 v=73
38272 On ch=1 n=57 v=71
38274 Off ch=1 n=69 v=0
38274 Off ch=1 n=60 v=0
38393 Off ch=1 n=66 v=0
38393 Off ch=1 n=57 v=0
38400 On ch=1 n=74 v=94
38400 On ch=1 n=59 v=65
38528 On ch=1 n=73 v=88
38528 On ch=1 n=58 v=56
38530 Off ch=1 n=74 v=0
38530 Off ch=1 n=59 v=0
38656 On ch=1 n=74 v=102
38656 On ch=1 n=59 v=76
38658 Off ch=1 n=73 v=0
38658 Off ch=1 n=58 v=0
38784 On ch=1 n=76 v=100
38784 On ch=1 n=60 v=81
38786 Off ch=1 n=74 v=0
38786 Off ch=1 n=59 v=0
38912 On ch=1 n=72 v=81
38912 On ch=1 n=57 v=76
38914 Off ch=1 n=76 v=0
38914 Off ch=1 n=60 v=0
39040 On ch=1 n=69 v=68
39040 On ch=1 n=54 v=67
39042 Off ch=1 n=72 v=0
39042 Off ch=1 n=57 v=0
39161 Off ch=1 n=69 v=0
39161 Off ch=1 n=54 v=0
39168 On ch=1 n=71 v=81
39168 On ch=1 n=55 v=66
39296 On ch=1 n=70 v=83
39296 On ch=1 n=54 v=62
39298 Off ch=1 n=71 v=0
39298 Off ch=1 n=55 v=0
39424 On ch=1 n=71 v=101
39424 On ch=1 n=55 v=80
39426 Off ch=1 n=70 v=0
39426 Off ch=1 n=54 v=0
39552 On ch=1 n=72 v=102
39552 On ch=1 n=57 v=83
39554 Off ch=1 n=71 v=0
39554 Off ch=1 n=55 v=0
39680 On ch=1 n=69 v=87
39680 On ch=1 n=54 v=74
39682 Off ch=1 n=72 v=0
39682 Off ch=1 n=57 v=0
39808 On ch=1 n=66 v=81
39808 On ch=1 n=50 v=68
39810 Off ch=1 n=69 v=0
39810 Off ch=1 n=54 v=0
39929 Off ch=1 n=66 v=0
39929 Off ch=1 n=50 v=0
39936 On ch=1 n=74 v=90
39936 On ch=1 n=50 v=61
40064 On ch=1 n=73 v=84
40064 On ch=1 n=52 v=66
40066 Off ch=1 n=74 v=0
40066 Off ch=1 n=50 v=0
40192 On ch=1 n=74 v=94
40192 On ch=1 n=54 v=74
40194 Off ch=1 n=73 v=0
40194 Off ch=1 n=52 v=0
40313 Off ch=1 n=74 v=0
40313 Off ch=1 n=54 v=0
40320 On ch=1 n=71 v=83
40320 On ch=1 n=55 v=73
40448 On ch=1 n=74 v=102
40450 Off ch=1 n=71 v=0
40576 On ch=1 n=67 v=85
40576 On ch=1 n=59 v=81
40578 Off ch=1 n=74 v=0
40581 Off ch=1 n=55 v=0
40704 On ch=1 n=71 v=105
40706 Off ch=1 n=67 v=0
40832 On ch=1 n=62 v=79
40832 On ch=1 n=47 v=68
40834 Off ch=1 n=71 v=0
40837 Off ch=1 n=59 v=0
40960 On ch=1 n=79 v=120
40962 Off ch=1 n=62 v=0
41075 Off ch=1 n=47 v=0
41081 Off ch=1 n=79 v=0
41088 On ch=1 n=76 v=90
41088 On ch=1 n=48 v=76
41216 On ch=1 n=79 v=105
41218 Off ch=1 n=76 v=0
41344 On ch=1 n=72 v=78
41344 On ch=1 n=52 v=83
41346 Off ch=1 n=79 v=0
41472 On ch=1 n=76 v=94
41474 Off ch=1 n=72 v=0
41600 On ch=1 n=69 v=72
41600 On ch=1 n=57 v=80
41602 Off ch=1 n=76 v=0
41605 Off ch=1 n=52 v=0
41728 On ch=1 n=72 v=86
41730 Off ch=1 n=69 v=0
41817 Off ch=1 n=48 v=0
41843 Off ch=1 n=57 v=0
41849 Off ch=1 n=72 v=0
41856 On ch=1 n=66 v=67
41856 On ch=1 n=54 v=71
41856 On ch=1 n=50 v=60
41984 On ch=1 n=69 v=80
41986 Off ch=1 n=66 v=0
42112 On ch=1 n=62 v=65
42112 On ch=1 n=57 v=69
42114 Off ch=1 n=69 v=0
42117 Off ch=1 n=54 v=0
42240 On ch=1 n=64 v=83
42242 Off ch=1 n=62 v=0
42368 On ch=1 n=65 v=83
42368 On ch=1 n=60 v=72
42370 Off ch=1 n=64 v=0
42373 Off ch=1 n=57 v=0
42496 On ch=1 n=66 v=82
42498 Off ch=1 n=65 v=0
42585 Off ch=1 n=50 v=0
42611 Off ch=1 n=60 v=0
42617 Off ch=1 n=66 v=0
42624 On ch=1 n=69 v=89
42624 On ch=1 n=60 v=65
42624 On ch=1 n=55 v=70
42880 On ch=1 n=67 v=88
42880 On ch=1 n=59 v=68
42885 Off ch=1 n=69 v=0
42885 Off ch=1 n=60 v=0
42988 Off ch=1 n=55 v=0
43002 Off ch=1 n=59 v=0
43005 Off ch=1 n=67 v=0
43008 On ch=1 n=74 v=94
43136 On ch=1 n=73 v=96
43138 Off ch=1 n=74 v=0
43264 On ch=1 n=74 v=80
43266 Off ch=1 n=73 v=0
43392 On ch=1 n=76 v=85
43392 On ch=1 n=50 v=59
43394 Off ch=1 n=74 v=0
43520 On ch=1 n=72 v=71
43522 Off ch=1 n=76 v=0
43648 On ch=1 n=69 v=63
43650 Off ch=1 n=72 v=0
43769 Off ch=1 n=69 v=0
43776 On ch=1 n=71 v=82
43776 Off ch=1 n=50 v=0
43776 On ch=1 n=62 v=82
43904 On ch=1 n=70 v=88
43904 On ch=1 n=61 v=71
43906 Off ch=1 n=71 v=0
43906 Off ch=1 n=62 v=0
44032 On ch=1 n=71 v=98
44032 On ch=1 n=62 v=75
44034 Off ch=1 n=70 v=0
44034 Off ch=1 n=61 v=0
44160 On ch=1 n=72 v=99
44160 On ch=1 n=64 v=88
44162 Off ch=1 n=71 v=0
44162 Off ch=1 n=62 v=0
44288 On ch=1 n=69 v=78
44288 On ch=1 n=60 v=67
44290 Off ch=1 n=72 v=0
44290 Off ch=1 n=64 v=0
44416 On ch=1 n=66 v=78
44416 On ch=1 n=57 v=68
44418 Off ch=1 n=69 v=0
44418 Off ch=1 n=60 v=0
44537 Off ch=1 n=66 v=0
44537 Off ch=1 n=57 v=0
44544 On ch=1 n=74 v=98
44544 On ch=1 n=59 v=64
44672 On ch=1 n=73 v=83
44672 On ch=1 n=58 v=64
44674 Off ch=1 n=74 v=0
44674 Off ch=1 n=59 v=0
44800 On ch=1 n=74 v=104
44800 On ch=1 n=59 v=75
44802 Off ch=1 n=73 v=0
44802 Off ch=1 n=58 v=0
44928 On ch=1 n=76 v=104
44928 On ch=1 n=60 v=84
44930 Off ch=1 n=74 v=0
44930 Off ch=1 n=59 v=0
45056 On ch=1 n=72 v=79
45056 On ch=1 n=57 v=78
45058 Off ch=1 n=76 v=0
45058 Off ch=1 n=60 v=0
45184 On ch=1 n=69 v=75
45184 On ch=1 n=54 v=71
45186 Off ch=1 n=72 v=0
45186 Off ch=1 n=57 v=0
45305 Off ch=1 n=69 v=0
45305 Off ch=1 n=54 v=0
45312 On ch=1 n=71 v=84
45312 On ch=1 n=55 v=66
45440 On ch=1 n=70 v=87
45440 On ch=1 n=54 v=61
45442 Off ch=1 n=71 v=0
45442 Off ch=1 n=55 v=0
45568 On ch=1 n=71 v=100
45568 On ch=1 n=55 v=82
45570 Off ch=1 n=70 v=0
45570 Off ch=1 n=54 v=0
45696 On ch=1 n=72 v=99
45696 On ch=1 n=57 v=84
45698 Off ch=1 n=71 v=0
45698 Off ch=1 n=55 v=0
45824 On ch=1 n=69 v=86
45824 On ch=1 n=54 v=78
45826 Off ch=1 n=72 v=0
45826 Off ch=1 n=57 v=0
45952 On ch=1 n=66 v=77
45952 On ch=1 n=50 v=68
45954 Off ch=1 n=69 v=0
45954 Off ch=1 n=54 v=0
46073 Off ch=1 n=66 v=0
46073 Off ch=1 n=50 v=0
46080 On ch=1 n=74 v=100
46080 On ch=1 n=50 v=60
46208 On ch=1 n=73 v=81
46208 On ch=1 n=52 v=66
46210 Off ch=1 n=74 v=0
46210 Off ch=1 n=50 v=0
46336 On ch=1 n=74 v=88
46336 On ch=1 n=54 v=71
46338 Off ch=1 n=73 v=0
46338 Off ch=1 n=52 v=0
46457 Off ch=1 n=74 v=0
46457 Off ch=1 n=54 v=0
46464 On ch=1 n=71 v=86
46464 On ch=1 n=55 v=77
46592 On ch=1 n=74 v=100
46594 Off ch=1 n=71 v=0
46720 On ch=1 n=67 v=83
46720 On ch=1 n=59 v=82
46722 Off ch=1 n=74 v=0
46725 Off ch=1 n=55 v=0
46848 On ch=1 n=71 v=106
46850 Off ch=1 n=67 v=0
46976 On ch=1 n=62 v=79
46976 On ch=1 n=47 v=70
46978 Off ch=1 n=71 v=0
46981 Off ch=1 n=59 v=0
47104 On ch=1 n=79 v=119
47106 Off ch=1 n=62 v=0
47219 Off ch=1 n=47 v=0
47225 Off ch=1 n=79 v=0
47232 On ch=1 n=76 v=92
47232 On ch=1 n=48 v=79
47360 On ch=1 n=79 v=106
47362 Off ch=1 n=76 v=0
47488 On ch=1 n=72 v=76
47488 On ch=1 n=52 v=85
47490 Off ch=1 n=79 v=0
47616 On ch=1 n=76 v=97
47618 Off ch=1 n=72 v=0
47744 On ch=1 n=69 v=68
47744 On ch=1 n=57 v=81
47746 Off ch=1 n=76 v=0
47749 Off ch=1 n=52 v=0
47872 On ch=1 n=72 v=89
47874 Off ch=1 n=69 v=0
47961 Off ch=1 n=48 v=0
47987 Off ch=1 n=57 v=0
47993 Off ch=1 n=72 v=0
48000 On ch=1 n=66 v=69
48000 On ch=1 n=54 v=69
48000 On ch=1 n=50 v=63
48128 On ch=1 n=69 v=85
48130 Off ch=1 n=66 v=0
48256 On ch=1 n=62 v=75
48256 On ch=1 n=57 v=69
48258 Off ch=1 n=69 v=0
48261 Off ch=1 n=54 v=0
48384 On ch=1 n=64 v=82
48386 Off ch=1 n=62 v=0
48512 On ch=1 n=65 v=84
48512 On ch=1 n=60 v=72
48514 Off ch=1 n=64 v=0
48517 Off ch=1 n=57 v=0
48640 On ch=1 n=66 v=86
48642 Off ch=1 n=65 v=0
48729 Off ch=1 n=50 v=0
48755 Off ch=1 n=60 v=0
48761 Off ch=1 n=66 v=0
48768 On ch=1 n=69 v=89
48768 On ch=1 n=60 v=61
48768 On ch=1 n=55 v=68
49024 On ch=1 n=67 v=82
49024 On ch=1 n=59 v=59
49029 Off ch=1 n=69 v=0
49029 Off ch=1 n=60 v=0
49193 Off ch=1 n=55 v=0
49206 Off ch=1 n=67 v=0
49206 Off ch=1 n=59 v=0
49216 On ch=1 n=67 v=53
49216 On ch=1 n=71 v=53
49408 On ch=1 n=69 v=54
49408 On ch=1 n=72 v=54
49411 Off ch=1 n=67 v=0
49411 Off ch=1 n=71 v=0
49472 On ch=1 n=71 v=57
49472 On ch=1 n=74 v=57
49472 On ch=1 n=43 v=33
49473 Off ch=1 n=69 v=0
49473 Off ch=1 n=72 v=0
49664 On ch=1 n=70 v=53
49664 On ch=1 n=73 v=53
49667 Off ch=1 n=71 v=0
49667 Off ch=1 n=74 v=0
49728 On ch=1 n=71 v=61
49728 On ch=1 n=74 v=61
49728 On ch=1 n=47 v=38
49729 Off ch=1 n=70 v=0
49729 Off ch=1 n=73 v=0
49733 Off ch=1 n=43 v=0
49920 On ch=1 n=70 v=62
49920 On ch=1 n=73 v=62
49923 Off ch=1 n=71 v=0
49923 Off ch=1 n=74 v=0
49984 On ch=1 n=71 v=49
49984 On ch=1 n=74 v=49
49984 On ch=1 n=50 v=33
49985 Off ch=1 n=70 v=0
49985 Off ch=1 n=73 v=0
49989 Off ch=1 n=47 v=0
50176 On ch=1 n=70 v=45
50176 On ch=1 n=73 v=45
50179 Off ch=1 n=71 v=0
50179 Off ch=1 n=74 v=0
50240 On ch=1 n=71 v=52
50240 On ch=1 n=74 v=52
50240 On ch=1 n=55 v=33
50241 Off ch=1 n=70 v=0
50241 Off ch=1 n=73 v=0
50245 Off ch=1 n=50 v=0
50483 Off ch=1 n=55 v=0
50496 On ch=1 n=43 v=30
50726 Off ch=1 n=71 v=0
50726 Off ch=1 n=74 v=0
50752 On ch=1 n=72 v=58
50752 On ch=1 n=76 v=58
50752 Off ch=1 n=43 v=0
50944 On ch=1 n=68 v=51
50944 On ch=1 n=71 v=51
50947 Off ch=1 n=72 v=0
50947 Off ch=1 n=76 v=0
51008 On ch=1 n=69 v=52
51008 On ch=1 n=72 v=52
51008 On ch=1 n=50 v=33
51009 Off ch=1 n=68 v=0
51009 Off ch=1 n=71 v=0
51264 Off ch=1 n=50 v=0
51264 On ch=1 n=38 v=31
51494 Off ch=1 n=69 v=0
51494 Off ch=1 n=72 v=0
51520 On ch=1 n=71 v=55
51520 On ch=1 n=74 v=55
51520 Off ch=1 n=38 v=0
51712 On ch=1 n=66 v=45
51712 On ch=1 n=69 v=45
51715 Off ch=1 n=71 v=0
51715 Off ch=1 n=74 v=0
51776 On ch=1 n=67 v=50
51776 On ch=1 n=71 v=50
51776 On ch=1 n=43 v=28
51777 Off ch=1 n=66 v=0
51777 Off ch=1 n=69 v=0
52019 Off ch=1 n=67 v=0
52032 Off ch=1 n=43 v=0
52032 On ch=1 n=31 v=34
52176 Off ch=1 n=71 v=0
52288 On ch=1 n=59 v=47
52288 On ch=1 n=67 v=47
52288 Off ch=1 n=31 v=0
52480 On ch=1 n=62 v=56
52480 On ch=1 n=69 v=56
52483 Off ch=1 n=59 v=0
52483 Off ch=1 n=67 v=0
52544 On ch=1 n=67 v=63
52544 On ch=1 n=71 v=63
52544 On ch=1 n=43 v=36
52545 Off ch=1 n=62 v=0
52545 Off ch=1 n=69 v=0
52736 On ch=1 n=66 v=50
52736 On ch=1 n=70 v=50
52739 Off ch=1 n=67 v=0
52739 Off ch=1 n=71 v=0
52800 On ch=1 n=67 v=60
52800 On ch=1 n=71 v=60
52800 On ch=1 n=47 v=47
52801 Off ch=1 n=66 v=0
52801 Off ch=1 n=70 v=0
52805 Off ch=1 n=43 v=0
52992 On ch=1 n=66 v=57
52992 On ch=1 n=70 v=57
52995 Off ch=1 n=67 v=0
52995 Off ch=1 n=71 v=0
53056 On ch=1 n=67 v=63
53056 On ch=1 n=71 v=63
53056 On ch=1 n=51 v=52
53057 Off ch=1 n=66 v=0
53057 Off ch=1 n=70 v=0
53061 Off ch=1 n=47 v=0
53248 On ch=1 n=66 v=66
53248 On ch=1 n=70 v=66
53251 Off ch=1 n=67 v=0
53251 Off ch=1 n=71 v=0
53312 On ch=1 n=67 v=68
53312 On ch=1 n=71 v=68
53312 On ch=1 n=52 v=49
53313 Off ch=1 n=66 v=0
53313 Off ch=1 n=70 v=0
53317 Off ch=1 n=51 v=0
53568 On ch=1 n=54 v=54
53573 Off ch=1 n=52 v=0
53798 Off ch=1 n=67 v=0
53798 Off ch=1 n=71 v=0
53824 On ch=1 n=66 v=57
53824 On ch=1 n=69 v=57
53824 On ch=1 n=55 v=60
53829 Off ch=1 n=54 v=0
53952 Off ch=1 n=66 v=0
53952 Off ch=1 n=69 v=0
53952 On ch=1 n=64 v=62
53952 On ch=1 n=67 v=62
54080 Off ch=1 n=64 v=0
54080 Off ch=1 n=67 v=0
54080 On ch=1 n=64 v=61
54080 On ch=1 n=67 v=61
54080 On ch=1 n=57 v=64
54085 Off ch=1 n=55 v=0
54208 On ch=1 n=62 v=63
54208 On ch=1 n=66 v=63
54210 Off ch=1 n=64 v=0
54210 Off ch=1 n=67 v=0
54323 Off ch=1 n=57 v=0
54329 Off ch=1 n=62 v=0
54329 Off ch=1 n=66 v=0
54336 On ch=1 n=62 v=56
54336 On ch=1 n=66 v=56
54336 On ch=1 n=45 v=54
54464 Off ch=1 n=62 v=0
54464 Off ch=1 n=66 v=0
54464 On ch=1 n=66 v=63
54464 On ch=1 n=69 v=63
54592 Off ch=1 n=66 v=0
54592 Off ch=1 n=69 v=0
54592 On ch=1 n=64 v=48
54592 On ch=1 n=67 v=48
54592 Off ch=1 n=45 v=0
54720 Off ch=1 n=64 v=0
54720 On ch=1 n=61 v=42
54720 On ch=1 n=64 v=42
54722 Off ch=1 n=67 v=0
54841 Off ch=1 n=61 v=0
54841 Off ch=1 n=64 v=0
54848 On ch=1 n=62 v=39
54848 On ch=1 n=50 v=31
55098 Off ch=1 n=62 v=0
55104 Off ch=1 n=50 v=0
55104 On ch=1 n=62 v=48
55284 Off ch=1 n=62 v=0
55360 On ch=1 n=74 v=70
55488 On ch=1 n=79 v=77
55490 Off ch=1 n=74 v=0
55609 Off ch=1 n=79 v=0
55616 On ch=1 n=74 v=82
55616 On ch=1 n=79 v=82
55616 On ch=1 n=59 v=57
55616 On ch=1 n=62 v=57
55872 On ch=1 n=72 v=83
55872 On ch=1 n=78 v=83
55872 Off ch=1 n=62 v=0
55872 On ch=1 n=57 v=52
55872 On ch=1 n=62 v=52
55877 Off ch=1 n=74 v=0
55877 Off ch=1 n=79 v=0
55877 Off ch=1 n=59 v=0
56128 On ch=1 n=71 v=84
56128 On ch=1 n=79 v=84
56128 Off ch=1 n=62 v=0
56128 On ch=1 n=55 v=67
56128 On ch=1 n=62 v=67
56133 Off ch=1 n=72 v=0
56133 Off ch=1 n=78 v=0
56133 Off ch=1 n=57 v=0
56384 On ch=1 n=81 v=83
56384 On ch=1 n=69 v=66
56384 Off ch=1 n=62 v=0
56384 On ch=1 n=62 v=64
56384 On ch=1 n=54 v=63
56389 Off ch=1 n=71 v=0
56389 Off ch=1 n=79 v=0
56389 Off ch=1 n=55 v=0
56627 Off ch=1 n=69 v=0
56640 On ch=1 n=50 v=59
56645 Off ch=1 n=54 v=0
56870 Off ch=1 n=81 v=0
56896 On ch=1 n=79 v=73
56896 On ch=1 n=54 v=65
56901 Off ch=1 n=50 v=0
56960 On ch=1 n=78 v=69
56961 Off ch=1 n=79 v=0
57024 On ch=1 n=76 v=76
57025 Off ch=1 n=78 v=0
57088 On ch=1 n=74 v=76
57089 Off ch=1 n=76 v=0
57148 Off ch=1 n=74 v=0
57152 On ch=1 n=69 v=80
57152 On ch=1 n=72 v=80
57152 On ch=1 n=55 v=58
57157 Off ch=1 n=54 v=0
57167 Off ch=1 n=62 v=0
57408 On ch=1 n=67 v=79
57408 On ch=1 n=71 v=79
57413 Off ch=1 n=69 v=0
57413 Off ch=1 n=72 v=0
57638 Off ch=1 n=55 v=0
57664 On ch=1 n=72 v=90
57664 On ch=1 n=76 v=90
57664 On ch=1 n=48 v=59
57669 Off ch=1 n=67 v=0
57669 Off ch=1 n=71 v=0
57856 Off ch=1 n=72 v=0
57856 On ch=1 n=69 v=84
57856 On ch=1 n=72 v=84
57859 Off ch=1 n=76 v=0
57916 Off ch=1 n=69 v=0
57916 Off ch=1 n=72 v=0
57920 On ch=1 n=67 v=68
57920 On ch=1 n=71 v=68
57920 Off ch=1 n=48 v=0
57920 On ch=1 n=50 v=66
58176 On ch=1 n=66 v=63
58176 On ch=1 n=69 v=63
58176 Off ch=1 n=50 v=0
58181 Off ch=1 n=67 v=0
58181 Off ch=1 n=71 v=0
58297 Off ch=1 n=66 v=0
58326 Off ch=1 n=69 v=0
58432 On ch=1 n=59 v=76
58432 On ch=1 n=67 v=76
58432 On ch=1 n=59 v=70
58624 On ch=1 n=60 v=83
58624 On ch=1 n=69 v=83
58627 Off ch=1 n=59 v=0
58627 Off ch=1 n=67 v=0
58688 On ch=1 n=62 v=102
58688 On ch=1 n=71 v=102
58688 Off ch=1 n=59 v=0
58688 On ch=1 n=31 v=63
58688 On ch=1 n=43 v=63
58689 Off ch=1 n=60 v=0
58689 Off ch=1 n=69 v=0
58880 On ch=1 n=61 v=96
58880 On ch=1 n=70 v=96
58883 Off ch=1 n=62 v=0
58883 Off ch=1 n=71 v=0
58944 On ch=1 n=62 v=102
58944 On ch=1 n=71 v=102
58944 Off ch=1 n=31 v=0
58944 Off ch=1 n=43 v=0
58944 On ch=1 n=35 v=83
58944 On ch=1 n=47 v=83
58945 Off ch=1 n=61 v=0
58945 Off ch=1 n=70 v=0
59136 On ch=1 n=61 v=97
59136 On ch=1 n=70 v=97
59139 Off ch=1 n=62 v=0
59139 Off ch=1 n=71 v=0
59200 On ch=1 n=62 v=105
59200 On ch=1 n=71 v=105
59200 Off ch=1 n=35 v=0
59200 Off ch=1 n=47 v=0
59200 On ch=1 n=38 v=82
59200 On ch=1 n=50 v=82
59201 Off ch=1 n=61 v=0
59201 Off ch=1 n=70 v=0
59392 On ch=1 n=61 v=100
59392 On ch=1 n=70 v=100
59395 Off ch=1 n=62 v=0
59395 Off ch=1 n=71 v=0
59456 On ch=1 n=62 v=100
59456 On ch=1 n=71 v=100
59456 Off ch=1 n=38 v=0
59456 Off ch=1 n=50 v=0
59456 On ch=1 n=43 v=84
59456 On ch=1 n=55 v=84
59457 Off ch=1 n=61 v=0
59457 Off ch=1 n=70 v=0
59712 Off ch=1 n=43 v=0
59712 Off ch=1 n=55 v=0
59712 On ch=1 n=41 v=79
59712 On ch=1 n=53 v=79
59942 Off ch=1 n=62 v=0
59942 Off ch=1 n=71 v=0
59968 On ch=1 n=64 v=102
59968 On ch=1 n=72 v=102
59968 Off ch=1 n=41 v=0
59968 Off ch=1 n=53 v=0
59968 On ch=1 n=40 v=79
59968 On ch=1 n=52 v=79
60160 On ch=1 n=59 v=98
60160 On ch=1 n=68 v=98
60163 Off ch=1 n=64 v=0
60163 Off ch=1 n=72 v=0
60224 On ch=1 n=60 v=97
60224 On ch=1 n=69 v=97
60225 Off ch=1 n=59 v=0
60225 Off ch=1 n=68 v=0
60480 Off ch=1 n=40 v=0
60480 Off ch=1 n=52 v=0
60480 On ch=1 n=39 v=73
60480 On ch=1 n=51 v=73
60710 Off ch=1 n=60 v=0
60710 Off ch=1 n=69 v=0
60736 On ch=1 n=62 v=99
60736 On ch=1 n=71 v=99
60736 Off ch=1 n=39 v=0
60736 Off ch=1 n=51 v=0
60736 On ch=1 n=38 v=80
60736 On ch=1 n=50 v=80
60928 On ch=1 n=57 v=90
60928 On ch=1 n=66 v=90
60931 Off ch=1 n=62 v=0
60931 Off ch=1 n=71 v=0
60992 On ch=1 n=59 v=94
60992 On ch=1 n=67 v=94
60992 Off ch=1 n=38 v=0
60992 Off ch=1 n=50 v=0
60992 On ch=1 n=43 v=74
60993 Off ch=1 n=57 v=0
60993 Off ch=1 n=66 v=0
61248 On ch=1 n=55 v=80
61253 Off ch=1 n=43 v=0
61356 Off ch=1 n=59 v=0
61356 Off ch=1 n=67 v=0
61491 Off ch=1 n=55 v=0