256 Off ch=1 n=62 v=0
256 Off ch=1 n=66 v=0
256 On ch=1 n=62 v=72
256 On ch=1 n=66 v=72
256 Off ch=1 n=50 v=0
384 On ch=1 n=50 v=65
512 Off ch=1 n=62 v=0
512 Off ch=1 n=66 v=0
512 On ch=1 n=64 v=72
512 On ch=1 n=67 v=72
512 Off ch=1 n=50 v=0
512 On ch=1 n=50 v=69
768 Off ch=1 n=64 v=0
768 Off ch=1 n=67 v=0
768 On ch=1 n=66 v=73
768 On ch=1 n=69 v=73
768 Off ch=1 n=50 v=0
896 On ch=1 n=50 v=63
1024 Off ch=1 n=66 v=0
1024 Off ch=1 n=69 v=0
1024 On ch=1 n=66 v=71
1024 On ch=1 n=69 v=71
1024 Off ch=1 n=50 v=0
1024 On ch=1 n=45 v=68
1280 Off ch=1 n=66 v=0
1280 Off ch=1 n=69 v=0
1280 On ch=1 n=64 v=70
1280 On ch=1 n=67 v=70
1280 Off ch=1 n=45 v=0
1408 On ch=1 n=45 v=64
1536 Off ch=1 n=64 v=0
1536 Off ch=1 n=67 v=0
1536 On ch=1 n=62 v=69
1536 On ch=1 n=66 v=69
1536 Off ch=1 n=45 v=0
1536 On ch=1 n=45 v=70
1792 Off ch=1 n=62 v=0
1792 Off ch=1 n=66 v=0
1792 On ch=1 n=57 v=69
1792 On ch=1 n=64 v=69
1792 Off ch=1 n=45 v=0
1920 On ch=1 n=45 v=66
2048 Off ch=1 n=57 v=0
2048 Off ch=1 n=64 v=0
2048 On ch=1 n=54 v=70
2048 On ch=1 n=62 v=70
2048 Off ch=1 n=45 v=0
2048 On ch=1 n=50 v=71
2304 Off ch=1 n=54 v=0
2304 Off ch=1 n=62 v=0
2304 On ch=1 n=54 v=69
2304 On ch=1 n=62 v=69
2304 Off ch=1 n=50 v=0
2560 Off ch=1 n=54 v=0
2560 Off ch=1 n=62 v=0
2560 On ch=1 n=57 v=74
2560 On ch=1 n=64 v=74
2816 Off ch=1 n=57 v=0
2816 Off ch=1 n=64 v=0
2816 On ch=1 n=62 v=73
2816 On ch=1 n=66 v=73
2816 On ch=1 n=50 v=64
3072 Off ch=1 n=62 v=0
3072 Off ch=1 n=66 v=0
3072 On ch=1 n=62 v=71
3072 On ch=1 n=66 v=71
3072 Off ch=1 n=50 v=0
3072 On ch=1 n=45 v=70
3328 Off ch=1 n=45 v=0
3456 Off ch=1 n=62 v=0
3456 Off ch=1 n=66 v=0
3456 On ch=1 n=57 v=68
3456 On ch=1 n=64 v=68
3584 Off ch=1 n=57 v=0
3584 Off ch=1 n=64 v=0
3584 On ch=1 n=57 v=70
3584 On ch=1 n=64 v=70
3584 On ch=1 n=45 v=63
3840 Off ch=1 n=45 v=0
4096 Off ch=1 n=57 v=0
4096 Off ch=1 n=64 v=0
4096 On ch=1 n=62 v=74
4096 On ch=1 n=66 v=74
4096 On ch=1 n=50 v=65
4352 Off ch=1 n=62 v=0
4352 Off ch=1 n=66 v=0
4352 On ch=1 n=62 v=71
4352 On ch=1 n=66 v=71
4352 Off ch=1 n=50 v=0
4480 On ch=1 n=50 v=64
4608 Off ch=1 n=62 v=0
4608 Off ch=1 n=66 v=0
4608 On ch=1 n=64 v=72
4608 On ch=1 n=67 v=72
4608 Off ch=1 n=50 v=0
4608 On ch=1 n=50 v=70
4864 Off ch=1 n=64 v=0
4864 Off ch=1 n=67 v=0
4864 On ch=1 n=66 v=74
4864 On ch=1 n=69 v=74
4864 Off ch=1 n=50 v=0
4992 On ch=1 n=50 v=62
5120 Off ch=1 n=66 v=0
5120 Off ch=1 n=69 v=0
5120 On ch=1 n=66 v=72
5120 On ch=1 n=69 v=72
5120 Off ch=1 n=50 v=0
5120 On ch=1 n=45 v=70
5376 Off ch=1 n=66 v=0
5376 Off ch=1 n=69 v=0
5376 On ch=1 n=64 v=69
5376 On ch=1 n=67 v=69
5376 Off ch=1 n=45 v=0
5504 On ch=1 n=45 v=65
5632 Off ch=1 n=64 v=0
5632 Off ch=1 n=67 v=0
5632 On ch=1 n=62 v=72
5632 On ch=1 n=66 v=72
5632 Off ch=1 n=45 v=0
5632 On ch=1 n=45 v=70
5888 Off ch=1 n=62 v=0
5888 Off ch=1 n=66 v=0
5888 On ch=1 n=57 v=69
5888 On ch=1 n=64 v=69
5888 Off ch=1 n=45 v=0
6016 On ch=1 n=45 v=64
6144 Off ch=1 n=57 v=0
6144 Off ch=1 n=64 v=0
6144 On ch=1 n=54 v=68
6144 On ch=1 n=62 v=68
6144 Off ch=1 n=45 v=0
6144 On ch=1 n=50 v=73
6400 Off ch=1 n=54 v=0
6400 Off ch=1 n=62 v=0
6400 On ch=1 n=54 v=72
6400 On ch=1 n=62 v=72
6400 Off ch=1 n=50 v=0
6656 Off ch=1 n=54 v=0
6656 Off ch=1 n=62 v=0
6656 On ch=1 n=57 v=74
6656 On ch=1 n=64 v=74
6912 Off ch=1 n=57 v=0
6912 Off ch=1 n=64 v=0
6912 On ch=1 n=62 v=75
6912 On ch=1 n=66 v=75
6912 On ch=1 n=50 v=61
7168 Off ch=1 n=62 v=0
7168 Off ch=1 n=66 v=0
7168 On ch=1 n=57 v=68
7168 On ch=1 n=64 v=68
7168 Off ch=1 n=50 v=0
7168 On ch=1 n=45 v=69
7424 Off ch=1 n=45 v=0
7552 Off ch=1 n=57 v=0
7552 Off ch=1 n=64 v=0
7552 On ch=1 n=54 v=68
7552 On ch=1 n=62 v=68
7680 Off ch=1 n=54 v=0
7680 Off ch=1 n=62 v=0
7680 On ch=1 n=54 v=70
7680 On ch=1 n=62 v=70
7680 On ch=1 n=50 v=63
7936 Off ch=1 n=50 v=0
8192 Off ch=1 n=54 v=0
8192 Off ch=1 n=62 v=0
8192 On ch=1 n=61 v=72
8192 On ch=1 n=64 v=72
8192 On ch=1 n=45 v=66
8448 Off ch=1 n=61 v=0
8448 Off ch=1 n=64 v=0
8448 On ch=1 n=61 v=71
8448 On ch=1 n=64 v=71
8448 Off ch=1 n=45 v=0
8576 On ch=1 n=45 v=64
8704 Off ch=1 n=61 v=0
8704 Off ch=1 n=64 v=0
8704 On ch=1 n=62 v=77
8704 On ch=1 n=66 v=77
8704 Off ch=1 n=45 v=0
8704 On ch=1 n=45 v=70
8960 Off ch=1 n=62 v=0
8960 Off ch=1 n=66 v=0
8960 On ch=1 n=57 v=67
8960 On ch=1 n=62 v=67
8960 Off ch=1 n=45 v=0
8960 On ch=1 n=50 v=76
9216 Off ch=1 n=57 v=0
9216 Off ch=1 n=62 v=0
9216 On ch=1 n=61 v=75
9216 On ch=1 n=64 v=75
9216 Off ch=1 n=50 v=0
9216 On ch=1 n=45 v=69
9472 Off ch=1 n=61 v=0
9472 Off ch=1 n=64 v=0
9472 On ch=1 n=62 v=74
9472 On ch=1 n=66 v=74
9472 Off ch=1 n=45 v=0
9600 Off ch=1 n=62 v=0
9600 Off ch=1 n=66 v=0
9600 On ch=1 n=64 v=72
9600 On ch=1 n=67 v=72
9600 On ch=1 n=45 v=64
9728 Off ch=1 n=64 v=0
9728 Off ch=1 n=67 v=0
9728 On ch=1 n=62 v=69
9728 On ch=1 n=66 v=69
9728 Off ch=1 n=45 v=0
9728 On ch=1 n=45 v=71
9984 Off ch=1 n=62 v=0
9984 Off ch=1 n=66 v=0
9984 On ch=1 n=57 v=67
9984 On ch=1 n=62 v=67
9984 Off ch=1 n=45 v=0
9984 On ch=1 n=50 v=74
10240 Off ch=1 n=57 v=0
10240 Off ch=1 n=62 v=0
10240 On ch=1 n=61 v=73
10240 On ch=1 n=64 v=73
10240 Off ch=1 n=50 v=0
10240 On ch=1 n=45 v=68
10496 Off ch=1 n=61 v=0
10496 Off ch=1 n=64 v=0
10496 On ch=1 n=62 v=74
10496 On ch=1 n=66 v=74
10496 Off ch=1 n=45 v=0
10624 Off ch=1 n=62 v=0
10624 Off ch=1 n=66 v=0
10624 On ch=1 n=64 v=75
10624 On ch=1 n=67 v=75
10624 On ch=1 n=45 v=67
10752 Off ch=1 n=64 v=0
10752 Off ch=1 n=67 v=0
10752 On ch=1 n=61 v=69
10752 On ch=1 n=66 v=69
10752 Off ch=1 n=45 v=0
10752 On ch=1 n=46 v=71
11008 Off ch=1 n=61 v=0
11008 Off ch=1 n=66 v=0
11008 On ch=1 n=61 v=68
11008 On ch=1 n=64 v=68
11008 Off ch=1 n=46 v=0
11008 On ch=1 n=54 v=74
11264 Off ch=1 n=61 v=0
11264 Off ch=1 n=64 v=0
11264 On ch=1 n=59 v=69
11264 On ch=1 n=62 v=69
11264 Off ch=1 n=54 v=0
11264 On ch=1 n=47 v=70
11520 Off ch=1 n=59 v=0
11520 Off ch=1 n=62 v=0
11520 On ch=1 n=56 v=73
11520 On ch=1 n=64 v=73
11520 Off ch=1 n=47 v=0
11520 On ch=1 n=52 v=71
11776 Off ch=1 n=56 v=0
11776 Off ch=1 n=64 v=0
11776 On ch=1 n=52 v=65
11776 On ch=1 n=57 v=65
11776 Off ch=1 n=52 v=0
11776 On ch=1 n=45 v=68
12032 Off ch=1 n=52 v=0
12032 Off ch=1 n=57 v=0
12032 On ch=1 n=62 v=79
12032 On ch=1 n=66 v=79
12288 Off ch=1 n=45 v=0
12288 On ch=1 n=50 v=72
12544 Off ch=1 n=62 v=0
12544 Off ch=1 n=66 v=0
12544 On ch=1 n=62 v=71
12544 On ch=1 n=66 v=71
12544 Off ch=1 n=50 v=0
12672 On ch=1 n=50 v=62
12800 Off ch=1 n=62 v=0
12800 Off ch=1 n=66 v=0
12800 On ch=1 n=64 v=71
12800 On ch=1 n=67 v=71
12800 Off ch=1 n=50 v=0
12800 On ch=1 n=50 v=68
13056 Off ch=1 n=64 v=0
13056 Off ch=1 n=67 v=0
13056 On ch=1 n=66 v=71
13056 On ch=1 n=69 v=71
13056 Off ch=1 n=50 v=0
13184 On ch=1 n=50 v=64
13312 Off ch=1 n=66 v=0
13312 Off ch=1 n=69 v=0
13312 On ch=1 n=66 v=71
13312 On ch=1 n=69 v=71
13312 Off ch=1 n=50 v=0
13312 On ch=1 n=45 v=69
13568 Off ch=1 n=66 v=0
13568 Off ch=1 n=69 v=0
13568 On ch=1 n=64 v=70
13568 On ch=1 n=67 v=70
13568 Off ch=1 n=45 v=0
13696 On ch=1 n=45 v=65
13824 Off ch=1 n=64 v=0
13824 Off ch=1 n=67 v=0
13824 On ch=1 n=62 v=69
13824 On ch=1 n=66 v=69
13824 Off ch=1 n=45 v=0
13824 On ch=1 n=45 v=71
14080 Off ch=1 n=62 v=0
14080 Off ch=1 n=66 v=0
14080 On ch=1 n=57 v=69
14080 On ch=1 n=64 v=69
14080 Off ch=1 n=45 v=0
14208 On ch=1 n=45 v=64
14336 Off ch=1 n=57 v=0
14336 Off ch=1 n=64 v=0
14336 On ch=1 n=54 v=69
14336 On ch=1 n=62 v=69
14336 Off ch=1 n=45 v=0
14336 On ch=1 n=50 v=72
14592 Off ch=1 n=54 v=0
14592 Off ch=1 n=62 v=0
14592 On ch=1 n=54 v=69
14592 On ch=1 n=62 v=69
14592 Off ch=1 n=50 v=0
14848 Off ch=1 n=54 v=0
14848 Off ch=1 n=62 v=0
14848 On ch=1 n=57 v=73
14848 On ch=1 n=64 v=73
15104 Off ch=1 n=57 v=0
15104 Off ch=1 n=64 v=0
15104 On ch=1 n=62 v=76
15104 On ch=1 n=66 v=76
15104 On ch=1 n=50 v=63
15360 Off ch=1 n=62 v=0
15360 Off ch=1 n=66 v=0
15360 On ch=1 n=57 v=68
15360 On ch=1 n=64 v=68
15360 Off ch=1 n=50 v=0
15360 On ch=1 n=45 v=68
15616 Off ch=1 n=45 v=0
15744 Off ch=1 n=57 v=0
15744 Off ch=1 n=64 v=0
15744 On ch=1 n=54 v=70
15744 On ch=1 n=62 v=70
15872 Off ch=1 n=54 v=0
15872 Off ch=1 n=62 v=0
15872 On ch=1 n=54 v=72
15872 On ch=1 n=62 v=72
15872 On ch=1 n=50 v=63
16128 Off ch=1 n=50 v=0
16384 Off ch=1 n=54 v=0
16384 Off ch=1 n=62 v=0
16384 On ch=1 n=61 v=73
16384 On ch=1 n=64 v=73
16384 On ch=1 n=45 v=65
16640 Off ch=1 n=61 v=0
16640 Off ch=1 n=64 v=0
16640 On ch=1 n=61 v=72
16640 On ch=1 n=64 v=72
16640 Off ch=1 n=45 v=0
16768 On ch=1 n=45 v=63
16896 Off ch=1 n=61 v=0
16896 Off ch=1 n=64 v=0
16896 On ch=1 n=62 v=70
16896 On ch=1 n=66 v=70
16896 Off ch=1 n=45 v=0
16896 On ch=1 n=45 v=71
17152 Off ch=1 n=62 v=0
17152 Off ch=1 n=66 v=0
17152 On ch=1 n=57 v=66
17152 On ch=1 n=62 v=66
17152 Off ch=1 n=45 v=0
17152 On ch=1 n=50 v=73
17408 Off ch=1 n=57 v=0
17408 Off ch=1 n=62 v=0
17408 On ch=1 n=61 v=73
17408 On ch=1 n=64 v=73
17408 Off ch=1 n=50 v=0
17408 On ch=1 n=45 v=71
17664 Off ch=1 n=61 v=0
17664 Off ch=1 n=64 v=0
17664 On ch=1 n=62 v=71
17664 On ch=1 n=66 v=71
17664 Off ch=1 n=45 v=0
17792 Off ch=1 n=62 v=0
17792 Off ch=1 n=66 v=0
17792 On ch=1 n=64 v=74
17792 On ch=1 n=67 v=74
17792 On ch=1 n=45 v=65
17920 Off ch=1 n=64 v=0
17920 Off ch=1 n=67 v=0
17920 On ch=1 n=62 v=69
17920 On ch=1 n=66 v=69
17920 Off ch=1 n=45 v=0
17920 On ch=1 n=45 v=71
18176 Off ch=1 n=62 v=0
18176 Off ch=1 n=66 v=0
18176 On ch=1 n=57 v=68
18176 On ch=1 n=62 v=68
18176 Off ch=1 n=45 v=0
18176 On ch=1 n=50 v=73
18432 Off ch=1 n=57 v=0
18432 Off ch=1 n=62 v=0
18432 On ch=1 n=61 v=74
18432 On ch=1 n=64 v=74
18432 Off ch=1 n=50 v=0
18432 On ch=1 n=45 v=70
18688 Off ch=1 n=61 v=0
18688 Off ch=1 n=64 v=0
18688 On ch=1 n=62 v=72
18688 On ch=1 n=66 v=72
18688 Off ch=1 n=45 v=0
18816 Off ch=1 n=62 v=0
18816 Off ch=1 n=66 v=0
18816 On ch=1 n=64 v=74
18816 On ch=1 n=67 v=74
18816 On ch=1 n=45 v=64
18944 Off ch=1 n=64 v=0
18944 Off ch=1 n=67 v=0
18944 On ch=1 n=61 v=71
18944 On ch=1 n=66 v=71
18944 Off ch=1 n=45 v=0
18944 On ch=1 n=46 v=69
19200 Off ch=1 n=61 v=0
19200 Off ch=1 n=66 v=0
19200 On ch=1 n=61 v=69
19200 On ch=1 n=64 v=69
19200 Off ch=1 n=46 v=0
19200 On ch=1 n=54 v=76
19456 Off ch=1 n=61 v=0
19456 Off ch=1 n=64 v=0
19456 On ch=1 n=59 v=66
19456 On ch=1 n=62 v=66
19456 Off ch=1 n=54 v=0
19456 On ch=1 n=47 v=70
19712 Off ch=1 n=59 v=0
19712 Off ch=1 n=62 v=0
19712 On ch=1 n=56 v=75
19712 On ch=1 n=64 v=75
19712 Off ch=1 n=47 v=0
19712 On ch=1 n=52 v=72
19968 Off ch=1 n=56 v=0
19968 Off ch=1 n=64 v=0
19968 On ch=1 n=52 v=67
19968 On ch=1 n=57 v=67
19968 Off ch=1 n=52 v=0
19968 On ch=1 n=45 v=68
20224 Off ch=1 n=52 v=0
20224 Off ch=1 n=57 v=0
20224 On ch=1 n=62 v=79
20224 On ch=1 n=66 v=79
20480 Off ch=1 n=45 v=0
20480 On ch=1 n=50 v=74
20736 Off ch=1 n=62 v=0
20736 Off ch=1 n=66 v=0
20736 On ch=1 n=62 v=71
20736 On ch=1 n=66 v=71
20736 Off ch=1 n=50 v=0
20864 On ch=1 n=50 v=64
20992 Off ch=1 n=62 v=0
20992 Off ch=1 n=66 v=0
20992 On ch=1 n=64 v=73
20992 On ch=1 n=67 v=73
20992 Off ch=1 n=50 v=0
20992 On ch=1 n=50 v=71
21248 Off ch=1 n=64 v=0
21248 Off ch=1 n=67 v=0
21248 On ch=1 n=66 v=75
21248 On ch=1 n=69 v=75
21248 Off ch=1 n=50 v=0
21376 On ch=1 n=50 v=61
21504 Off ch=1 n=66 v=0
21504 Off ch=1 n=69 v=0
21504 On ch=1 n=66 v=71
21504 On ch=1 n=69 v=71
21504 Off ch=1 n=50 v=0
21504 On ch=1 n=45 v=70
21760 Off ch=1 n=66 v=0
21760 Off ch=1 n=69 v=0
21760 On ch=1 n=64 v=69
21760 On ch=1 n=67 v=69
21760 Off ch=1 n=45 v=0
21888 On ch=1 n=45 v=63
22016 Off ch=1 n=64 v=0
22016 Off ch=1 n=67 v=0
22016 On ch=1 n=62 v=71
22016 On ch=1 n=66 v=71
22016 Off ch=1 n=45 v=0
22016 On ch=1 n=45 v=69
22272 Off ch=1 n=62 v=0
22272 Off ch=1 n=66 v=0
22272 On ch=1 n=57 v=68
22272 On ch=1 n=64 v=68
22272 Off ch=1 n=45 v=0
22400 On ch=1 n=45 v=64
22528 Off ch=1 n=57 v=0
22528 Off ch=1 n=64 v=0
22528 On ch=1 n=54 v=69
22528 On ch=1 n=62 v=69
22528 Off ch=1 n=45 v=0
22528 On ch=1 n=50 v=72
22784 Off ch=1 n=54 v=0
22784 Off ch=1 n=62 v=0
22784 On ch=1 n=54 v=70
22784 On ch=1 n=62 v=70
22784 Off ch=1 n=50 v=0
23040 Off ch=1 n=54 v=0
23040 Off ch=1 n=62 v=0
23040 On ch=1 n=57 v=72
23040 On ch=1 n=64 v=72
23296 Off ch=1 n=57 v=0
23296 Off ch=1 n=64 v=0
23296 On ch=1 n=62 v=73
23296 On ch=1 n=66 v=73
23296 On ch=1 n=50 v=64
23552 Off ch=1 n=62 v=0
23552 Off ch=1 n=66 v=0
23552 On ch=1 n=57 v=70
23552 On ch=1 n=64 v=70
23552 Off ch=1 n=50 v=0
23552 On ch=1 n=45 v=68
23808 Off ch=1 n=45 v=0
23936 Off ch=1 n=57 v=0
23936 Off ch=1 n=64 v=0
23936 On ch=1 n=54 v=70
23936 On ch=1 n=62 v=70
24064 Off ch=1 n=54 v=0
24064 Off ch=1 n=62 v=0
24064 On ch=1 n=54 v=71
24064 On ch=1 n=62 v=71
24064 On ch=1 n=50 v=60
24320 Off ch=1 n=50 v=0
24576 Off ch=1 n=54 v=0
24576 Off ch=1 n=62 v=0