0 On ch=1 n=57 v=29
0 On ch=1 n=50 v=58
85 Off ch=1 n=57 v=0
85 On ch=1 n=62 v=46
170 Off ch=1 n=62 v=0
170 On ch=1 n=65 v=44
256 Off ch=1 n=65 v=0
256 On ch=1 n=57 v=34
341 Off ch=1 n=57 v=0
341 On ch=1 n=62 v=39
426 Off ch=1 n=62 v=0
426 On ch=1 n=65 v=46
512 Off ch=1 n=65 v=0
512 On ch=1 n=57 v=37
597 Off ch=1 n=57 v=0
597 On ch=1 n=62 v=44
682 Off ch=1 n=62 v=0
682 On ch=1 n=65 v=43
768 Off ch=1 n=65 v=0
768 On ch=1 n=57 v=32
853 Off ch=1 n=57 v=0
853 On ch=1 n=62 v=42
938 Off ch=1 n=62 v=0
938 On ch=1 n=65 v=48
1024 Off ch=1 n=50 v=0
1024 Off ch=1 n=65 v=0
1024 On ch=1 n=57 v=31
1024 On ch=1 n=48 v=62
1109 Off ch=1 n=57 v=0
1109 On ch=1 n=62 v=42
1194 Off ch=1 n=62 v=0
1194 On ch=1 n=65 v=43
1280 Off ch=1 n=65 v=0
1280 On ch=1 n=57 v=30
1365 Off ch=1 n=57 v=0
1365 On ch=1 n=62 v=44
1450 Off ch=1 n=62 v=0
1450 On ch=1 n=65 v=44
1536 Off ch=1 n=65 v=0
1536 On ch=1 n=57 v=40
1621 Off ch=1 n=57 v=0
1621 On ch=1 n=62 v=45
1706 Off ch=1 n=62 v=0
1706 On ch=1 n=65 v=44
1792 Off ch=1 n=65 v=0
1792 On ch=1 n=57 v=39
1877 Off ch=1 n=57 v=0
1877 On ch=1 n=62 v=40
1962 Off ch=1 n=62 v=0
1962 On ch=1 n=65 v=44
2048 Off ch=1 n=48 v=0
2048 Off ch=1 n=65 v=0
2048 On ch=1 n=58 v=32
2048 On ch=1 n=46 v=61
2133 Off ch=1 n=58 v=0
2133 On ch=1 n=62 v=43
2218 Off ch=1 n=62 v=0
2218 On ch=1 n=65 v=47
2304 Off ch=1 n=65 v=0
2304 On ch=1 n=58 v=39
2389 Off ch=1 n=58 v=0
2389 On ch=1 n=62 v=41
2474 Off ch=1 n=62 v=0
2474 On ch=1 n=65 v=41
2560 Off ch=1 n=46 v=0
2560 Off ch=1 n=65 v=0
2560 On ch=1 n=58 v=32
2560 On ch=1 n=43 v=56
2645 Off ch=1 n=58 v=0
2645 On ch=1 n=63 v=48
2730 Off ch=1 n=63 v=0
2730 On ch=1 n=67 v=41
2816 Off ch=1 n=67 v=0
2816 On ch=1 n=58 v=33
2901 Off ch=1 n=58 v=0
2901 On ch=1 n=63 v=39
2986 Off ch=1 n=63 v=0
2986 On ch=1 n=67 v=45
3072 Off ch=1 n=43 v=0
3072 Off ch=1 n=67 v=0
3072 On ch=1 n=57 v=36
3072 On ch=1 n=45 v=61
3157 Off ch=1 n=57 v=0
3157 On ch=1 n=61 v=46
3242 Off ch=1 n=61 v=0
3242 On ch=1 n=67 v=46
3328 Off ch=1 n=67 v=0
3328 On ch=1 n=57 v=36
3413 Off ch=1 n=57 v=0
3413 On ch=1 n=62 v=43
3498 Off ch=1 n=62 v=0
3498 On ch=1 n=65 v=41
3584 Off ch=1 n=45 v=0
3584 Off ch=1 n=65 v=0
3584 On ch=1 n=57 v=37
3584 On ch=1 n=45 v=59
3669 Off ch=1 n=57 v=0
3669 On ch=1 n=62 v=45
3754 Off ch=1 n=62 v=0
3754 On ch=1 n=64 v=38
3840 Off ch=1 n=64 v=0
3840 On ch=1 n=55 v=35
3925 Off ch=1 n=55 v=0
3925 On ch=1 n=61 v=43
4010 Off ch=1 n=61 v=0
4010 On ch=1 n=64 v=43
4096 Off ch=1 n=45 v=0
4096 Off ch=1 n=64 v=0
4096 On ch=1 n=38 v=56
4096 On ch=1 n=53 v=34
4181 Off ch=1 n=53 v=0
4181 On ch=1 n=57 v=39
4266 Off ch=1 n=57 v=0
4266 On ch=1 n=62 v=44
4352 Off ch=1 n=62 v=0
4352 On ch=1 n=53 v=39
4437 Off ch=1 n=53 v=0
4437 On ch=1 n=57 v=43
4522 Off ch=1 n=57 v=0
4522 On ch=1 n=62 v=49
4608 Off ch=1 n=38 v=0
4608 Off ch=1 n=62 v=0
4608 On ch=1 n=53 v=36
4693 Off ch=1 n=53 v=0
4693 On ch=1 n=57 v=41
4778 Off ch=1 n=57 v=0
4778 On ch=1 n=62 v=46
4864 Off ch=1 n=62 v=0
4864 On ch=1 n=38 v=58
4864 On ch=1 n=57 v=55
4949 On ch=1 n=62 v=36
5034 Off ch=1 n=62 v=0
5034 On ch=1 n=65 v=40
5056 Off ch=1 n=57 v=0
5056 On ch=1 n=57 v=63
5120 Off ch=1 n=38 v=0
5120 Off ch=1 n=65 v=0
5120 Off ch=1 n=57 v=0
5120 On ch=1 n=49 v=64
5120 On ch=1 n=57 v=64
5205 On ch=1 n=64 v=32
5290 Off ch=1 n=64 v=0
5290 On ch=1 n=67 v=41
5376 Off ch=1 n=67 v=0
5376 On ch=1 n=57 v=35
5461 Off ch=1 n=57 v=0
5461 On ch=1 n=64 v=48
5546 Off ch=1 n=64 v=0
5546 On ch=1 n=67 v=40
5632 Off ch=1 n=49 v=0
5632 Off ch=1 n=57 v=0
5632 Off ch=1 n=67 v=0
5632 On ch=1 n=57 v=39
5717 Off ch=1 n=57 v=0
5717 On ch=1 n=64 v=47
5802 Off ch=1 n=64 v=0
5802 On ch=1 n=67 v=46
5888 Off ch=1 n=67 v=0
5888 On ch=1 n=49 v=56
5888 On ch=1 n=57 v=37
5973 Off ch=1 n=57 v=0
5973 On ch=1 n=64 v=50
6058 Off ch=1 n=64 v=0
6058 On ch=1 n=67 v=41
6080 Off ch=1 n=49 v=0
6080 On ch=1 n=57 v=66
6144 Off ch=1 n=67 v=0
6144 Off ch=1 n=57 v=0
6144 On ch=1 n=38 v=61
6144 On ch=1 n=57 v=61
6229 On ch=1 n=62 v=36
6314 Off ch=1 n=62 v=0
6314 On ch=1 n=65 v=42
6400 Off ch=1 n=65 v=0
6400 On ch=1 n=57 v=35
6485 Off ch=1 n=57 v=0
6485 On ch=1 n=62 v=41
6570 Off ch=1 n=62 v=0
6570 On ch=1 n=65 v=41
6656 Off ch=1 n=38 v=0
6656 Off ch=1 n=57 v=0
6656 Off ch=1 n=65 v=0
6656 On ch=1 n=43 v=64
6656 On ch=1 n=58 v=64
6741 On ch=1 n=62 v=40
6826 Off ch=1 n=62 v=0
6826 On ch=1 n=67 v=40
6912 Off ch=1 n=67 v=0
6912 On ch=1 n=58 v=35
6997 Off ch=1 n=58 v=0
6997 On ch=1 n=62 v=40
7082 Off ch=1 n=62 v=0
7082 On ch=1 n=67 v=44
7168 Off ch=1 n=43 v=0
7168 Off ch=1 n=58 v=0
7168 Off ch=1 n=67 v=0
7168 On ch=1 n=48 v=55
7168 On ch=1 n=57 v=55
7253 On ch=1 n=60 v=37
7338 Off ch=1 n=60 v=0
7338 On ch=1 n=65 v=41
7424 Off ch=1 n=65 v=0
7424 On ch=1 n=57 v=39
7509 Off ch=1 n=57 v=0
7509 On ch=1 n=60 v=45
7594 Off ch=1 n=60 v=0
7594 On ch=1 n=65 v=47
7680 Off ch=1 n=48 v=0
7680 Off ch=1 n=57 v=0
7680 Off ch=1 n=65 v=0
7680 On ch=1 n=48 v=59
7680 On ch=1 n=55 v=59
7765 On ch=1 n=58 v=37
7850 Off ch=1 n=58 v=0
7850 On ch=1 n=64 v=48
7936 Off ch=1 n=48 v=0
7936 Off ch=1 n=55 v=0
7936 Off ch=1 n=64 v=0
7936 On ch=1 n=48 v=65
7936 On ch=1 n=60 v=65
8021 On ch=1 n=64 v=32
8106 Off ch=1 n=64 v=0
8106 On ch=1 n=70 v=46
8192 Off ch=1 n=48 v=0
8192 Off ch=1 n=60 v=0
8192 Off ch=1 n=70 v=0
8192 On ch=1 n=41 v=57
8192 On ch=1 n=53 v=57
8277 On ch=1 n=65 v=33
8362 Off ch=1 n=65 v=0
8362 On ch=1 n=69 v=41
8448 Off ch=1 n=69 v=0
8448 On ch=1 n=60 v=31
8533 Off ch=1 n=60 v=0
8533 On ch=1 n=65 v=43
8618 Off ch=1 n=65 v=0
8618 On ch=1 n=69 v=43
8704 Off ch=1 n=41 v=0
8704 Off ch=1 n=53 v=0
8704 Off ch=1 n=69 v=0
8704 On ch=1 n=41 v=52
8704 On ch=1 n=57 v=35
8789 Off ch=1 n=57 v=0
8789 On ch=1 n=60 v=41
8874 Off ch=1 n=60 v=0
8874 On ch=1 n=65 v=49
8960 Off ch=1 n=65 v=0
8960 On ch=1 n=57 v=35
9045 Off ch=1 n=57 v=0
9045 On ch=1 n=60 v=44
9130 Off ch=1 n=60 v=0
9130 On ch=1 n=65 v=41
9216 Off ch=1 n=41 v=0
9216 Off ch=1 n=65 v=0
9216 On ch=1 n=41 v=57
9216 On ch=1 n=56 v=38
9301 Off ch=1 n=56 v=0
9301 On ch=1 n=60 v=46
9386 Off ch=1 n=60 v=0
9386 On ch=1 n=65 v=42
9472 Off ch=1 n=65 v=0
9472 On ch=1 n=56 v=39
9557 Off ch=1 n=56 v=0
9557 On ch=1 n=60 v=43
9642 Off ch=1 n=60 v=0
9642 On ch=1 n=65 v=39
9728 Off ch=1 n=65 v=0
9728 On ch=1 n=56 v=39
9813 Off ch=1 n=56 v=0
9813 On ch=1 n=60 v=41
9898 Off ch=1 n=60 v=0
9898 On ch=1 n=65 v=43
9984 Off ch=1 n=41 v=0
9984 Off ch=1 n=65 v=0
9984 On ch=1 n=53 v=54
9984 On ch=1 n=56 v=54
10069 On ch=1 n=62 v=37
10154 Off ch=1 n=62 v=0
10154 On ch=1 n=65 v=42
10176 Off ch=1 n=53 v=0
10176 Off ch=1 n=56 v=0
10176 On ch=1 n=56 v=58
10240 Off ch=1 n=65 v=0
10240 Off ch=1 n=56 v=0
10240 On ch=1 n=51 v=55
10240 On ch=1 n=56 v=58
10325 On ch=1 n=60 v=35
10410 Off ch=1 n=60 v=0
10410 On ch=1 n=66 v=43
10496 Off ch=1 n=56 v=0
10496 Off ch=1 n=66 v=0
10496 On ch=1 n=56 v=62
10581 On ch=1 n=60 v=38
10666 Off ch=1 n=60 v=0
10666 On ch=1 n=66 v=43
10752 Off ch=1 n=51 v=0
10752 Off ch=1 n=56 v=0
10752 Off ch=1 n=66 v=0
10752 On ch=1 n=56 v=58
10837 On ch=1 n=60 v=34
10922 Off ch=1 n=60 v=0
10922 On ch=1 n=66 v=42
11008 Off ch=1 n=56 v=0
11008 Off ch=1 n=66 v=0
11008 On ch=1 n=51 v=63
11008 On ch=1 n=56 v=63
11093 On ch=1 n=60 v=36
11178 Off ch=1 n=60 v=0
11178 On ch=1 n=66 v=47
11200 Off ch=1 n=51 v=0
11200 Off ch=1 n=56 v=0
11200 On ch=1 n=56 v=56
11264 Off ch=1 n=66 v=0
11264 Off ch=1 n=56 v=0
11264 On ch=1 n=49 v=52
11264 On ch=1 n=56 v=52
11349 On ch=1 n=61 v=36
11434 Off ch=1 n=61 v=0
11434 On ch=1 n=65 v=43
11520 Off ch=1 n=49 v=0
11520 Off ch=1 n=56 v=0
11520 Off ch=1 n=65 v=0
11520 On ch=1 n=48 v=63
11520 On ch=1 n=56 v=63
11605 On ch=1 n=61 v=40
11690 Off ch=1 n=61 v=0
11690 On ch=1 n=65 v=45
11776 Off ch=1 n=48 v=0
11776 Off ch=1 n=56 v=0
11776 Off ch=1 n=65 v=0
11776 On ch=1 n=47 v=63
11776 On ch=1 n=56 v=63
11861 On ch=1 n=62 v=38
11946 Off ch=1 n=62 v=0
11946 On ch=1 n=65 v=39
12032 Off ch=1 n=47 v=0
12032 Off ch=1 n=56 v=0
12032 Off ch=1 n=65 v=0
12032 On ch=1 n=47 v=62
12032 On ch=1 n=55 v=62
12117 On ch=1 n=62 v=31
12202 Off ch=1 n=62 v=0
12202 On ch=1 n=65 v=42
12288 Off ch=1 n=47 v=0
12288 Off ch=1 n=55 v=0
12288 Off ch=1 n=65 v=0
12288 On ch=1 n=48 v=60
12288 On ch=1 n=55 v=60
12373 On ch=1 n=60 v=38
12458 Off ch=1 n=60 v=0
12458 On ch=1 n=63 v=44
12544 Off ch=1 n=55 v=0
12544 Off ch=1 n=63 v=0
12544 On ch=1 n=55 v=60
12629 On ch=1 n=60 v=36
12714 Off ch=1 n=60 v=0
12714 On ch=1 n=63 v=44
12800 Off ch=1 n=48 v=0
12800 Off ch=1 n=55 v=0
12800 Off ch=1 n=63 v=0
12800 On ch=1 n=41 v=63
12800 On ch=1 n=56 v=63
12885 On ch=1 n=60 v=34
12970 Off ch=1 n=60 v=0
12970 On ch=1 n=62 v=41
13056 Off ch=1 n=41 v=0
13056 Off ch=1 n=56 v=0
13056 Off ch=1 n=62 v=0
13056 On ch=1 n=44 v=60
13056 On ch=1 n=53 v=60
13141 On ch=1 n=60 v=37
13226 Off ch=1 n=60 v=0
13226 On ch=1 n=62 v=41
13312 Off ch=1 n=44 v=0
13312 Off ch=1 n=53 v=0
13312 Off ch=1 n=62 v=0
13312 On ch=1 n=43 v=60
13312 On ch=1 n=55 v=60
13397 On ch=1 n=60 v=36
13482 Off ch=1 n=60 v=0
13482 On ch=1 n=63 v=43
13568 Off ch=1 n=63 v=0
13568 On ch=1 n=55 v=38
13653 Off ch=1 n=55 v=0
13653 On ch=1 n=60 v=42
13738 Off ch=1 n=60 v=0
13738 On ch=1 n=63 v=43
13824 Off ch=1 n=43 v=0
13824 Off ch=1 n=55 v=0
13824 Off ch=1 n=63 v=0
13824 On ch=1 n=43 v=61
13824 On ch=1 n=55 v=61
13909 On ch=1 n=59 v=39
13994 Off ch=1 n=59 v=0
13994 On ch=1 n=62 v=44
14080 Off ch=1 n=62 v=0
14080 On ch=1 n=55 v=37
14165 Off ch=1 n=55 v=0
14165 On ch=1 n=59 v=39
14250 Off ch=1 n=59 v=0
14250 On ch=1 n=62 v=40
14336 Off ch=1 n=43 v=0
14336 Off ch=1 n=55 v=0
14336 Off ch=1 n=62 v=0
14336 On ch=1 n=48 v=56
14421 On ch=1 n=60 v=32
14506 Off ch=1 n=60 v=0
14506 On ch=1 n=63 v=42
14592 Off ch=1 n=63 v=0
14592 On ch=1 n=60 v=36
14677 Off ch=1 n=60 v=0
14677 On ch=1 n=63 v=44
14762 Off ch=1 n=63 v=0
14762 On ch=1 n=67 v=47
14848 Off ch=1 n=67 v=0
14848 On ch=1 n=60 v=29
14933 Off ch=1 n=60 v=0
14933 On ch=1 n=64 v=41
15018 Off ch=1 n=64 v=0
15018 On ch=1 n=67 v=42
15104 Off ch=1 n=48 v=0
15104 Off ch=1 n=67 v=0
15104 On ch=1 n=48 v=61
15104 On ch=1 n=60 v=34
15189 Off ch=1 n=60 v=0
15189 On ch=1 n=64 v=39
15274 Off ch=1 n=64 v=0
15274 On ch=1 n=67 v=48
15360 Off ch=1 n=48 v=0
15360 Off ch=1 n=67 v=0
15360 On ch=1 n=48 v=60
15360 On ch=1 n=61 v=35
15445 Off ch=1 n=61 v=0
15445 On ch=1 n=65 v=44
15530 Off ch=1 n=65 v=0
15530 On ch=1 n=68 v=42
15616 Off ch=1 n=48 v=0
15616 Off ch=1 n=68 v=0
15616 On ch=1 n=53 v=60
15616 On ch=1 n=61 v=28
15701 Off ch=1 n=61 v=0
15701 On ch=1 n=65 v=41
15786 Off ch=1 n=65 v=0
15786 On ch=1 n=68 v=49
15872 Off ch=1 n=53 v=0
15872 Off ch=1 n=68 v=0
15872 On ch=1 n=56 v=60
15872 On ch=1 n=61 v=36
15957 Off ch=1 n=61 v=0
15957 On ch=1 n=65 v=43
16042 Off ch=1 n=65 v=0
16042 On ch=1 n=68 v=39
16128 Off ch=1 n=56 v=0
16128 Off ch=1 n=68 v=0
16128 On ch=1 n=53 v=62
16128 On ch=1 n=59 v=36
16213 Off ch=1 n=59 v=0
16213 On ch=1 n=65 v=46
16298 Off ch=1 n=65 v=0
16298 On ch=1 n=68 v=43
16384 Off ch=1 n=53 v=0
16384 Off ch=1 n=68 v=0
16384 On ch=1 n=48 v=55
16384 On ch=1 n=60 v=32
16469 Off ch=1 n=60 v=0
16469 On ch=1 n=64 v=44
16554 Off ch=1 n=64 v=0
16554 On ch=1 n=67 v=44
16640 Off ch=1 n=67 v=0
16640 On ch=1 n=60 v=31
16725 Off ch=1 n=60 v=0
16725 On ch=1 n=64 v=38
16810 Off ch=1 n=64 v=0
16810 On ch=1 n=67 v=44
16896 Off ch=1 n=67 v=0
16896 On ch=1 n=60 v=31
16981 Off ch=1 n=60 v=0
16981 On ch=1 n=64 v=42
17066 Off ch=1 n=64 v=0
17066 On ch=1 n=67 v=44
17152 Off ch=1 n=48 v=0
17152 Off ch=1 n=67 v=0
17152 On ch=1 n=48 v=62
17152 On ch=1 n=60 v=28
17237 Off ch=1 n=60 v=0
17237 On ch=1 n=64 v=44
17322 Off ch=1 n=64 v=0
17322 On ch=1 n=67 v=44
17408 Off ch=1 n=48 v=0
17408 Off ch=1 n=67 v=0
17408 On ch=1 n=48 v=59
17408 On ch=1 n=61 v=32
17493 Off ch=1 n=61 v=0
17493 On ch=1 n=65 v=43
17578 Off ch=1 n=65 v=0
17578 On ch=1 n=68 v=44
17664 Off ch=1 n=48 v=0
17664 Off ch=1 n=68 v=0
17664 On ch=1 n=53 v=70
17664 On ch=1 n=61 v=36
17749 Off ch=1 n=61 v=0
17749 On ch=1 n=65 v=43
17834 Off ch=1 n=65 v=0
17834 On ch=1 n=68 v=39
17920 Off ch=1 n=53 v=0
17920 Off ch=1 n=68 v=0
17920 On ch=1 n=56 v=62
17920 On ch=1 n=61 v=31
18005 Off ch=1 n=61 v=0
18005 On ch=1 n=65 v=41
18090 Off ch=1 n=65 v=0
18090 On ch=1 n=68 v=43
18176 Off ch=1 n=56 v=0
18176 Off ch=1 n=68 v=0
18176 On ch=1 n=53 v=57
18176 On ch=1 n=59 v=35
18261 Off ch=1 n=59 v=0
18261 On ch=1 n=65 v=49
18346 Off ch=1 n=65 v=0
18346 On ch=1 n=68 v=44
18432 Off ch=1 n=53 v=0
18432 Off ch=1 n=68 v=0
18432 On ch=1 n=48 v=65
18432 On ch=1 n=60 v=32
18517 Off ch=1 n=60 v=0
18517 On ch=1 n=64 v=45
18602 Off ch=1 n=64 v=0
18602 On ch=1 n=67 v=41
18688 Off ch=1 n=67 v=0
18688 On ch=1 n=60 v=38
18773 Off ch=1 n=60 v=0
18773 On ch=1 n=64 v=41
18858 Off ch=1 n=64 v=0
18858 On ch=1 n=67 v=38
18944 Off ch=1 n=48 v=0
18944 Off ch=1 n=67 v=0
18944 On ch=1 n=45 v=57
18944 On ch=1 n=60 v=31
19029 Off ch=1 n=60 v=0
19029 On ch=1 n=63 v=43
19114 Off ch=1 n=63 v=0
19114 On ch=1 n=66 v=41
19200 Off ch=1 n=66 v=0
19200 On ch=1 n=60 v=33
19285 Off ch=1 n=60 v=0
19285 On ch=1 n=63 v=45
19370 Off ch=1 n=63 v=0
19370 On ch=1 n=66 v=45
19456 Off ch=1 n=45 v=0
19456 Off ch=1 n=66 v=0
19456 On ch=1 n=42 v=59
19456 On ch=1 n=60 v=33
19541 Off ch=1 n=60 v=0
19541 On ch=1 n=62 v=43
19626 Off ch=1 n=62 v=0
19626 On ch=1 n=69 v=48
19712 Off ch=1 n=69 v=0
19712 On ch=1 n=60 v=34
19797 Off ch=1 n=60 v=0
19797 On ch=1 n=62 v=42
19882 Off ch=1 n=62 v=0
19882 On ch=1 n=69 v=48
19968 Off ch=1 n=42 v=0
19968 Off ch=1 n=69 v=0
19968 On ch=1 n=43 v=64
19968 On ch=1 n=58 v=35
20053 Off ch=1 n=58 v=0
20053 On ch=1 n=62 v=38
20138 Off ch=1 n=62 v=0
20138 On ch=1 n=67 v=47
20224 Off ch=1 n=67 v=0
20224 On ch=1 n=58 v=32
20309 Off ch=1 n=58 v=0
20309 On ch=1 n=62 v=42
20394 Off ch=1 n=62 v=0
20394 On ch=1 n=67 v=46
20480 Off ch=1 n=43 v=0
20480 Off ch=1 n=67 v=0
20480 On ch=1 n=48 v=64
20480 On ch=1 n=56 v=34
20565 Off ch=1 n=56 v=0
20565 On ch=1 n=60 v=43
20650 Off ch=1 n=60 v=0
20650 On ch=1 n=63 v=45
20736 Off ch=1 n=63 v=0
20736 On ch=1 n=56 v=38
20821 Off ch=1 n=56 v=0
20821 On ch=1 n=60 v=45
20906 Off ch=1 n=60 v=0
20906 On ch=1 n=63 v=39
20992 Off ch=1 n=48 v=0
20992 Off ch=1 n=63 v=0
20992 On ch=1 n=49 v=59
20992 On ch=1 n=55 v=33
21077 Off ch=1 n=55 v=0
21077 On ch=1 n=58 v=42
21162 Off ch=1 n=58 v=0
21162 On ch=1 n=64 v=42
21248 Off ch=1 n=64 v=0
21248 On ch=1 n=55 v=41
21333 Off ch=1 n=55 v=0
21333 On ch=1 n=58 v=40
21418 Off ch=1 n=58 v=0
21418 On ch=1 n=64 v=52
21504 Off ch=1 n=49 v=0
21504 Off ch=1 n=64 v=0
21504 On ch=1 n=38 v=54
21504 On ch=1 n=50 v=35
21589 Off ch=1 n=50 v=0
21589 On ch=1 n=55 v=39
21674 Off ch=1 n=55 v=0
21674 On ch=1 n=58 v=39
21760 Off ch=1 n=58 v=0
21760 On ch=1 n=50 v=38
21845 Off ch=1 n=50 v=0
21845 On ch=1 n=55 v=38
21930 Off ch=1 n=55 v=0
21930 On ch=1 n=58 v=42
22016 Off ch=1 n=38 v=0
22016 Off ch=1 n=58 v=0
22016 On ch=1 n=38 v=59
22016 On ch=1 n=50 v=35
22101 Off ch=1 n=50 v=0
22101 On ch=1 n=55 v=42
22186 Off ch=1 n=55 v=0
22186 On ch=1 n=57 v=39
22272 Off ch=1 n=38 v=0
22272 Off ch=1 n=57 v=0
22272 On ch=1 n=50 v=35
22357 Off ch=1 n=50 v=0
22357 On ch=1 n=54 v=40
22442 Off ch=1 n=54 v=0
22442 On ch=1 n=57 v=39
22528 Off ch=1 n=57 v=0
22528 On ch=1 n=55 v=37
22528 On ch=1 n=43 v=60
22613 Off ch=1 n=55 v=0
22613 On ch=1 n=58 v=40
22698 Off ch=1 n=58 v=0
22698 On ch=1 n=62 v=41
22784 Off ch=1 n=62 v=0
22784 On ch=1 n=58 v=38
22869 Off ch=1 n=58 v=0
22869 On ch=1 n=62 v=42
22954 Off ch=1 n=62 v=0
22954 On ch=1 n=67 v=47
23040 Off ch=1 n=67 v=0
23040 On ch=1 n=62 v=32
23125 Off ch=1 n=62 v=0
23125 On ch=1 n=67 v=45
23210 Off ch=1 n=67 v=0
23210 On ch=1 n=70 v=44
23296 Off ch=1 n=43 v=0
23296 Off ch=1 n=70 v=0
23296 On ch=1 n=62 v=35
23296 On ch=1 n=55 v=67
23381 Off ch=1 n=62 v=0
23381 On ch=1 n=67 v=41
23466 Off ch=1 n=67 v=0
23466 On ch=1 n=70 v=44
23488 Off ch=1 n=55 v=0
23488 On ch=1 n=62 v=77
23552 Off ch=1 n=70 v=0
23552 Off ch=1 n=62 v=0
23552 On ch=1 n=62 v=36
23552 On ch=1 n=54 v=58
23637 Off ch=1 n=62 v=0
23637 On ch=1 n=69 v=48
23722 Off ch=1 n=69 v=0
23722 On ch=1 n=72 v=44
23808 Off ch=1 n=72 v=0
23808 On ch=1 n=62 v=32
23893 Off ch=1 n=62 v=0
23893 On ch=1 n=69 v=43
23978 Off ch=1 n=69 v=0
23978 On ch=1 n=72 v=48
24064 Off ch=1 n=72 v=0
24064 On ch=1 n=62 v=31
24149 Off ch=1 n=62 v=0
24149 On ch=1 n=69 v=39
24234 Off ch=1 n=69 v=0
24234 On ch=1 n=72 v=47
24320 Off ch=1 n=54 v=0
24320 Off ch=1 n=72 v=0
24320 On ch=1 n=62 v=32
24320 On ch=1 n=54 v=61
24405 Off ch=1 n=62 v=0
24405 On ch=1 n=69 v=43
24490 Off ch=1 n=69 v=0
24490 On ch=1 n=72 v=47
24512 Off ch=1 n=54 v=0
24512 On ch=1 n=62 v=73
24576 Off ch=1 n=72 v=0
24576 Off ch=1 n=62 v=0
24576 On ch=1 n=55 v=55
24576 On ch=1 n=62 v=38
24661 Off ch=1 n=62 v=0
24661 On ch=1 n=67 v=45
24746 Off ch=1 n=67 v=0
24746 On ch=1 n=70 v=48
24832 Off ch=1 n=70 v=0
24832 On ch=1 n=62 v=32
24917 Off ch=1 n=62 v=0
24917 On ch=1 n=67 v=42
25002 Off ch=1 n=67 v=0
25002 On ch=1 n=70 v=44
25088 Off ch=1 n=55 v=0
25088 Off ch=1 n=70 v=0
25088 On ch=1 n=52 v=60
25088 On ch=1 n=61 v=33
25173 Off ch=1 n=61 v=0
25173 On ch=1 n=67 v=47
25258 Off ch=1 n=67 v=0
25258 On ch=1 n=70 v=44
25344 Off ch=1 n=52 v=0
25344 Off ch=1 n=70 v=0
25344 On ch=1 n=50 v=58
25344 On ch=1 n=62 v=33
25429 Off ch=1 n=62 v=0
25429 On ch=1 n=67 v=43
25514 Off ch=1 n=67 v=0
25514 On ch=1 n=70 v=41
25600 Off ch=1 n=50 v=0
25600 Off ch=1 n=70 v=0
25600 On ch=1 n=49 v=56
25600 On ch=1 n=64 v=34
25685 Off ch=1 n=64 v=0
25685 On ch=1 n=67 v=37
25770 Off ch=1 n=67 v=0
25770 On ch=1 n=69 v=40
25856 Off ch=1 n=69 v=0
25856 On ch=1 n=64 v=38
25941 Off ch=1 n=64 v=0
25941 On ch=1 n=67 v=42
26026 Off ch=1 n=67 v=0
26026 On ch=1 n=69 v=44
26112 Off ch=1 n=69 v=0
26112 On ch=1 n=64 v=35
26197 Off ch=1 n=64 v=0
26197 On ch=1 n=67 v=42
26282 Off ch=1 n=67 v=0
26282 On ch=1 n=69 v=43
26368 Off ch=1 n=49 v=0
26368 Off ch=1 n=69 v=0
26368 On ch=1 n=49 v=65
26368 On ch=1 n=64 v=34
26453 Off ch=1 n=64 v=0
26453 On ch=1 n=67 v=38
26538 Off ch=1 n=67 v=0
26538 On ch=1 n=69 v=42
26624 Off ch=1 n=49 v=0
26624 Off ch=1 n=69 v=0
26624 On ch=1 n=50 v=61
26624 On ch=1 n=65 v=40
26709 Off ch=1 n=65 v=0
26709 On ch=1 n=69 v=44
26794 Off ch=1 n=69 v=0
26794 On ch=1 n=74 v=43
26880 Off ch=1 n=74 v=0
26880 On ch=1 n=65 v=34
26965 Off ch=1 n=65 v=0
26965 On ch=1 n=69 v=44
27050 Off ch=1 n=69 v=0
27050 On ch=1 n=74 v=47
27136 Off ch=1 n=50 v=0
27136 Off ch=1 n=74 v=0
27136 On ch=1 n=43 v=59
27136 On ch=1 n=64 v=27
27221 Off ch=1 n=64 v=0
27221 On ch=1 n=67 v=39
27306 Off ch=1 n=67 v=0
27306 On ch=1 n=70 v=42
27392 Off ch=1 n=43 v=0
27392 Off ch=1 n=70 v=0
27392 On ch=1 n=44 v=60
27392 On ch=1 n=62 v=27
27477 Off ch=1 n=62 v=0
27477 On ch=1 n=65 v=31
27562 Off ch=1 n=65 v=0
27562 On ch=1 n=71 v=35
27648 Off ch=1 n=44 v=0
27648 Off ch=1 n=71 v=0
27648 On ch=1 n=45 v=58
27648 On ch=1 n=73 v=37
27733 Off ch=1 n=73 v=0
27733 On ch=1 n=61 v=24
27818 Off ch=1 n=61 v=0
27818 On ch=1 n=64 v=40
27904 Off ch=1 n=64 v=0
27904 On ch=1 n=69 v=54
27989 Off ch=1 n=69 v=0
27989 On ch=1 n=61 v=49
28074 Off ch=1 n=61 v=0
28074 On ch=1 n=64 v=66
28160 Off ch=1 n=45 v=0
28160 Off ch=1 n=64 v=0
28160 On ch=1 n=70 v=71
28245 Off ch=1 n=70 v=0
28245 On ch=1 n=61 v=46
28330 Off ch=1 n=61 v=0
28330 On ch=1 n=64 v=54
28416 Off ch=1 n=64 v=0
28416 On ch=1 n=67 v=55
28501 Off ch=1 n=67 v=0
28501 On ch=1 n=61 v=36
28586 Off ch=1 n=61 v=0
28586 On ch=1 n=64 v=41
28672 Off ch=1 n=64 v=0
28672 On ch=1 n=45 v=50
28757 On ch=1 n=61 v=31
28842 Off ch=1 n=61 v=0
28842 On ch=1 n=64 v=42
28928 Off ch=1 n=64 v=0
28928 On ch=1 n=57 v=56
29013 Off ch=1 n=57 v=0
29013 On ch=1 n=61 v=44
29098 Off ch=1 n=61 v=0
29098 On ch=1 n=64 v=42
29184 Off ch=1 n=45 v=0
29184 Off ch=1 n=64 v=0
29184 On ch=1 n=58 v=57
29269 Off ch=1 n=58 v=0
29269 On ch=1 n=61 v=46
29354 Off ch=1 n=61 v=0
29354 On ch=1 n=64 v=45
29440 Off ch=1 n=64 v=0
29440 On ch=1 n=55 v=55
29525 Off ch=1 n=55 v=0
29525 On ch=1 n=61 v=45
29610 Off ch=1 n=61 v=0
29610 On ch=1 n=64 v=42
29696 Off ch=1 n=64 v=0
29696 On ch=1 n=45 v=57
29781 On ch=1 n=65 v=35
29866 Off ch=1 n=65 v=0
29866 On ch=1 n=69 v=46
29952 Off ch=1 n=69 v=0
29952 On ch=1 n=74 v=56
30037 Off ch=1 n=74 v=0
30037 On ch=1 n=65 v=46
30122 Off ch=1 n=65 v=0
30122 On ch=1 n=69 v=71
30208 Off ch=1 n=45 v=0
30208 Off ch=1 n=69 v=0
30208 On ch=1 n=77 v=70
30293 Off ch=1 n=77 v=0
30293 On ch=1 n=65 v=47
30378 Off ch=1 n=65 v=0
30378 On ch=1 n=69 v=58
30464 Off ch=1 n=69 v=0
30464 On ch=1 n=74 v=60
30549 Off ch=1 n=74 v=0
30549 On ch=1 n=65 v=39
30634 Off ch=1 n=65 v=0
30634 On ch=1 n=69 v=45
30720 Off ch=1 n=69 v=0
30720 On ch=1 n=45 v=56
30805 On ch=1 n=53 v=34
30890 Off ch=1 n=53 v=0
30890 On ch=1 n=57 v=46
30976 Off ch=1 n=57 v=0
30976 On ch=1 n=62 v=57
31061 Off ch=1 n=62 v=0
31061 On ch=1 n=53 v=54
31146 Off ch=1 n=53 v=0
31146 On ch=1 n=57 v=63
31232 Off ch=1 n=45 v=0
31232 Off ch=1 n=57 v=0
31232 On ch=1 n=65 v=72
31317 Off ch=1 n=65 v=0
31317 On ch=1 n=53 v=54
31402 Off ch=1 n=53 v=0
31402 On ch=1 n=57 v=58
31488 Off ch=1 n=57 v=0
31488 On ch=1 n=62 v=55
31573 Off ch=1 n=62 v=0
31573 On ch=1 n=53 v=43
31658 Off ch=1 n=53 v=0
31658 On ch=1 n=57 v=46
31744 Off ch=1 n=57 v=0
31744 On ch=1 n=52 v=36
31744 On ch=1 n=45 v=54
31829 Off ch=1 n=52 v=0
31829 On ch=1 n=58 v=40
31914 On ch=1 n=55 v=39
31915 Off ch=1 n=58 v=0
31995 Off ch=1 n=55 v=0
32000 On ch=1 n=61 v=45
32085 Off ch=1 n=61 v=0
32085 On ch=1 n=58 v=35
32170 Off ch=1 n=58 v=0
32170 On ch=1 n=64 v=48
32256 Off ch=1 n=45 v=0
32256 Off ch=1 n=64 v=0
32256 On ch=1 n=61 v=38
32256 On ch=1 n=45 v=59
32341 Off ch=1 n=61 v=0
32341 On ch=1 n=67 v=45
32426 On ch=1 n=64 v=42
32427 Off ch=1 n=67 v=0
32507 Off ch=1 n=64 v=0
32512 On ch=1 n=70 v=43
32597 Off ch=1 n=70 v=0
32597 On ch=1 n=67 v=36
32682 Off ch=1 n=67 v=0
32682 On ch=1 n=73 v=42
32768 Off ch=1 n=45 v=0
32768 Off ch=1 n=73 v=0
32768 On ch=1 n=53 v=36
32768 On ch=1 n=45 v=58
32853 Off ch=1 n=53 v=0
32853 On ch=1 n=62 v=47
32938 Off ch=1 n=62 v=0
32938 On ch=1 n=57 v=37
33024 Off ch=1 n=57 v=0
33024 On ch=1 n=65 v=44
33109 On ch=1 n=62 v=38
33110 Off ch=1 n=65 v=0
33189 Off ch=1 n=62 v=0
33194 On ch=1 n=69 v=47
33280 Off ch=1 n=45 v=0
33280 Off ch=1 n=69 v=0
33280 On ch=1 n=65 v=40
33280 On ch=1 n=45 v=62
33365 Off ch=1 n=65 v=0
33365 On ch=1 n=74 v=48
33450 Off ch=1 n=74 v=0
33450 On ch=1 n=69 v=34
33536 Off ch=1 n=69 v=0
33536 On ch=1 n=77 v=46
33621 On ch=1 n=74 v=42
33622 Off ch=1 n=77 v=0
33701 Off ch=1 n=74 v=0
33706 On ch=1 n=69 v=29
33792 Off ch=1 n=45 v=0
33792 Off ch=1 n=69 v=0
33792 On ch=1 n=62 v=36
33792 On ch=1 n=45 v=59
33877 Off ch=1 n=62 v=0
33877 On ch=1 n=68 v=41
33962 On ch=1 n=65 v=39
33963 Off ch=1 n=68 v=0
34043 Off ch=1 n=65 v=0
34048 On ch=1 n=71 v=46
34133 Off ch=1 n=71 v=0
34133 On ch=1 n=68 v=40
34218 Off ch=1 n=68 v=0
34218 On ch=1 n=74 v=40
34304 Off ch=1 n=45 v=0
34304 Off ch=1 n=74 v=0
34304 On ch=1 n=71 v=35
34304 On ch=1 n=45 v=59
34389 Off ch=1 n=71 v=0
34389 On ch=1 n=77 v=44
34474 Off ch=1 n=77 v=0
34474 On ch=1 n=74 v=41
34560 Off ch=1 n=74 v=0
34560 On ch=1 n=80 v=49
34645 Off ch=1 n=80 v=0
34645 On ch=1 n=77 v=41
34730 Off ch=1 n=77 v=0
34730 On ch=1 n=83 v=49
34816 Off ch=1 n=45 v=0
34816 Off ch=1 n=83 v=0
34816 On ch=1 n=55 v=40
34816 On ch=1 n=45 v=60
34901 Off ch=1 n=55 v=0
34901 On ch=1 n=61 v=44
34986 On ch=1 n=58 v=44
34987 Off ch=1 n=61 v=0
35067 Off ch=1 n=58 v=0
35072 On ch=1 n=64 v=44
35157 Off ch=1 n=64 v=0
35157 On ch=1 n=61 v=35
35242 Off ch=1 n=61 v=0
35242 On ch=1 n=67 v=45
35328 Off ch=1 n=45 v=0
35328 Off ch=1 n=67 v=0
35328 On ch=1 n=64 v=36
35328 On ch=1 n=45 v=58
35413 Off ch=1 n=64 v=0
35413 On ch=1 n=70 v=45
35498 Off ch=1 n=70 v=0
35498 On ch=1 n=67 v=37
35584 Off ch=1 n=67 v=0
35584 On ch=1 n=73 v=46
35669 Off ch=1 n=73 v=0
35669 On ch=1 n=70 v=34
35754 Off ch=1 n=70 v=0
35754 On ch=1 n=76 v=46
35840 Off ch=1 n=45 v=0
35840 Off ch=1 n=76 v=0
35840 On ch=1 n=73 v=33
35925 Off ch=1 n=73 v=0
35925 On ch=1 n=67 v=32
36010 Off ch=1 n=67 v=0
36010 On ch=1 n=70 v=35
36096 Off ch=1 n=70 v=0
36096 On ch=1 n=64 v=28
36181 Off ch=1 n=64 v=0
36181 On ch=1 n=67 v=42
36266 Off ch=1 n=67 v=0
36266 On ch=1 n=61 v=33
36352 Off ch=1 n=61 v=0
36352 On ch=1 n=64 v=45
36437 Off ch=1 n=64 v=0
36437 On ch=1 n=58 v=40
36522 Off ch=1 n=58 v=0
36522 On ch=1 n=61 v=45
36608 Off ch=1 n=61 v=0
36608 On ch=1 n=55 v=40
36693 Off ch=1 n=55 v=0
36693 On ch=1 n=58 v=38
36778 Off ch=1 n=58 v=0
36778 On ch=1 n=52 v=33
36864 Off ch=1 n=52 v=0
36864 On ch=1 n=55 v=35
36949 Off ch=1 n=55 v=0
36949 On ch=1 n=49 v=36
37034 Off ch=1 n=49 v=0
37034 On ch=1 n=52 v=43
37120 Off ch=1 n=52 v=0
37120 On ch=1 n=46 v=33
37205 Off ch=1 n=46 v=0
37205 On ch=1 n=49 v=41
37290 Off ch=1 n=49 v=0
37290 On ch=1 n=43 v=36
37376 Off ch=1 n=43 v=0
37376 On ch=1 n=52 v=44
37461 Off ch=1 n=52 v=0
37461 On ch=1 n=55 v=49
37546 Off ch=1 n=55 v=0
37546 On ch=1 n=58 v=52
37632 Off ch=1 n=58 v=0
37632 On ch=1 n=50 v=45
37717 Off ch=1 n=50 v=0
37717 On ch=1 n=55 v=58
37802 Off ch=1 n=55 v=0
37802 On ch=1 n=58 v=62
37888 Off ch=1 n=58 v=0
37888 On ch=1 n=45 v=53
37888 On ch=1 n=49 v=53
37973 On ch=1 n=55 v=35
38058 On ch=1 n=57 v=35
38059 Off ch=1 n=55 v=0
38139 Off ch=1 n=57 v=0
38144 On ch=1 n=58 v=41
38229 Off ch=1 n=58 v=0
38229 On ch=1 n=57 v=44
38314 Off ch=1 n=57 v=0
38314 On ch=1 n=55 v=38
38400 Off ch=1 n=45 v=0
38400 Off ch=1 n=49 v=0
38400 Off ch=1 n=55 v=0
38400 On ch=1 n=52 v=38
38485 On ch=1 n=55 v=41
38570 Off ch=1 n=55 v=0
38570 On ch=1 n=58 v=41
38656 Off ch=1 n=52 v=0
38656 Off ch=1 n=58 v=0
38656 On ch=1 n=50 v=35
38741 On ch=1 n=55 v=46
38826 Off ch=1 n=55 v=0
38826 On ch=1 n=58 v=40
38912 Off ch=1 n=50 v=0
38912 Off ch=1 n=58 v=0
38912 On ch=1 n=45 v=64
38912 On ch=1 n=49 v=64
38997 On ch=1 n=55 v=39
39082 On ch=1 n=57 v=43
39083 Off ch=1 n=55 v=0
39163 Off ch=1 n=57 v=0
39168 On ch=1 n=58 v=41
39253 Off ch=1 n=58 v=0
39253 On ch=1 n=57 v=45
39338 Off ch=1 n=57 v=0
39338 On ch=1 n=55 v=35
39424 Off ch=1 n=45 v=0
39424 Off ch=1 n=49 v=0
39424 Off ch=1 n=55 v=0
39424 On ch=1 n=51 v=36
39509 On ch=1 n=55 v=39
39594 Off ch=1 n=55 v=0
39594 On ch=1 n=58 v=38
39680 Off ch=1 n=51 v=0
39680 Off ch=1 n=58 v=0
39680 On ch=1 n=50 v=39
39765 On ch=1 n=55 v=38
39850 Off ch=1 n=55 v=0
39850 On ch=1 n=58 v=41
39936 Off ch=1 n=50 v=0
39936 Off ch=1 n=58 v=0
39936 On ch=1 n=45 v=63
39936 On ch=1 n=49 v=63
40021 On ch=1 n=55 v=35
40106 On ch=1 n=57 v=38
40107 Off ch=1 n=55 v=0
40187 Off ch=1 n=57 v=0
40192 On ch=1 n=58 v=42
40277 Off ch=1 n=58 v=0
40277 On ch=1 n=57 v=41
40362 Off ch=1 n=57 v=0
40362 On ch=1 n=55 v=39
40448 Off ch=1 n=45 v=0
40448 Off ch=1 n=49 v=0
40448 Off ch=1 n=55 v=0
40448 On ch=1 n=53 v=37
40448 On ch=1 n=46 v=53
40533 Off ch=1 n=53 v=0
40533 On ch=1 n=50 v=37
40618 Off ch=1 n=50 v=0
40618 On ch=1 n=62 v=53
40704 Off ch=1 n=62 v=0
40704 On ch=1 n=50 v=37
40789 Off ch=1 n=50 v=0
40789 On ch=1 n=53 v=41
40874 Off ch=1 n=53 v=0
40874 On ch=1 n=62 v=47
40960 Off ch=1 n=46 v=0
40960 Off ch=1 n=62 v=0
40960 On ch=1 n=43 v=56
40960 On ch=1 n=52 v=32
41045 Off ch=1 n=52 v=0
41045 On ch=1 n=58 v=46
41130 Off ch=1 n=58 v=0
41130 On ch=1 n=62 v=43
41216 Off ch=1 n=62 v=0
41216 On ch=1 n=52 v=38
41301 Off ch=1 n=52 v=0
41301 On ch=1 n=58 v=41
41386 Off ch=1 n=58 v=0
41386 On ch=1 n=62 v=46
41472 Off ch=1 n=43 v=0
41472 Off ch=1 n=62 v=0
41472 On ch=1 n=45 v=68
41472 On ch=1 n=52 v=34
41557 Off ch=1 n=52 v=0
41557 On ch=1 n=57 v=40
41642 On ch=1 n=61 v=43
41643 Off ch=1 n=57 v=0
41723 Off ch=1 n=61 v=0
41728 On ch=1 n=52 v=36
41813 Off ch=1 n=52 v=0
41813 On ch=1 n=57 v=36
41898 On ch=1 n=61 v=39
41899 Off ch=1 n=57 v=0
41979 Off ch=1 n=61 v=0
41984 Off ch=1 n=45 v=0
41984 On ch=1 n=53 v=33
41984 On ch=1 n=38 v=58
42069 Off ch=1 n=53 v=0
42069 On ch=1 n=57 v=40
42154 Off ch=1 n=57 v=0
42154 On ch=1 n=62 v=45
42240 Off ch=1 n=62 v=0
42240 On ch=1 n=57 v=34
42325 Off ch=1 n=57 v=0
42325 On ch=1 n=62 v=41
42410 Off ch=1 n=62 v=0
42410 On ch=1 n=65 v=44
42496 Off ch=1 n=65 v=0
42496 On ch=1 n=57 v=38
42581 Off ch=1 n=57 v=0
42581 On ch=1 n=62 v=42
42666 Off ch=1 n=62 v=0
42666 On ch=1 n=65 v=42
42752 Off ch=1 n=38 v=0
42752 Off ch=1 n=65 v=0
42752 On ch=1 n=57 v=35
42752 On ch=1 n=38 v=60
42752 On ch=1 n=57 v=58
42837 Off ch=1 n=57 v=0
42837 On ch=1 n=62 v=45
42922 Off ch=1 n=62 v=0
42922 On ch=1 n=65 v=45
42944 Off ch=1 n=57 v=0
42944 On ch=1 n=57 v=62
43008 Off ch=1 n=38 v=0
43008 Off ch=1 n=65 v=0
43008 Off ch=1 n=57 v=0
43008 On ch=1 n=57 v=35
43008 On ch=1 n=49 v=70
43093 Off ch=1 n=57 v=0
43093 On ch=1 n=64 v=46
43178 Off ch=1 n=64 v=0
43178 On ch=1 n=67 v=45
43264 Off ch=1 n=67 v=0
43264 On ch=1 n=57 v=35
43349 Off ch=1 n=57 v=0
43349 On ch=1 n=64 v=45
43434 Off ch=1 n=64 v=0
43434 On ch=1 n=67 v=40
43520 Off ch=1 n=67 v=0
43520 On ch=1 n=57 v=33
43605 Off ch=1 n=57 v=0
43605 On ch=1 n=64 v=43
43690 Off ch=1 n=64 v=0
43690 On ch=1 n=67 v=44
43776 Off ch=1 n=49 v=0
43776 Off ch=1 n=67 v=0
43776 On ch=1 n=57 v=34
43776 On ch=1 n=49 v=63
43776 On ch=1 n=57 v=54
43861 Off ch=1 n=57 v=0
43861 On ch=1 n=64 v=43
43946 Off ch=1 n=64 v=0
43946 On ch=1 n=67 v=44
43968 Off ch=1 n=57 v=0
43968 On ch=1 n=57 v=57
44032 Off ch=1 n=49 v=0
44032 Off ch=1 n=67 v=0
44032 Off ch=1 n=57 v=0
44032 On ch=1 n=57 v=41
44032 On ch=1 n=38 v=53
44117 Off ch=1 n=57 v=0
44117 On ch=1 n=62 v=47
44202 Off ch=1 n=62 v=0
44202 On ch=1 n=65 v=42
44288 Off ch=1 n=65 v=0
44288 On ch=1 n=57 v=36
44373 Off ch=1 n=57 v=0
44373 On ch=1 n=62 v=44
44458 Off ch=1 n=62 v=0
44458 On ch=1 n=65 v=46
44544 Off ch=1 n=65 v=0
44544 On ch=1 n=58 v=38
44629 Off ch=1 n=58 v=0
44629 On ch=1 n=62 v=43
44714 Off ch=1 n=62 v=0
44714 On ch=1 n=67 v=43
44800 Off ch=1 n=38 v=0
44800 Off ch=1 n=67 v=0
44800 On ch=1 n=58 v=31
44800 On ch=1 n=43 v=65
44885 Off ch=1 n=58 v=0
44885 On ch=1 n=62 v=42
44970 Off ch=1 n=62 v=0
44970 On ch=1 n=67 v=45
45056 Off ch=1 n=43 v=0
45056 Off ch=1 n=67 v=0
45056 On ch=1 n=57 v=39
45056 On ch=1 n=48 v=59
45141 Off ch=1 n=57 v=0
45141 On ch=1 n=60 v=42
45226 Off ch=1 n=60 v=0
45226 On ch=1 n=65 v=43
45312 Off ch=1 n=65 v=0
45312 On ch=1 n=57 v=42
45397 Off ch=1 n=57 v=0
45397 On ch=1 n=60 v=44
45482 Off ch=1 n=60 v=0
45482 On ch=1 n=65 v=42
45568 Off ch=1 n=48 v=0
45568 Off ch=1 n=65 v=0
45568 On ch=1 n=55 v=34
45568 On ch=1 n=48 v=66
45653 Off ch=1 n=55 v=0
45653 On ch=1 n=58 v=37
45738 Off ch=1 n=58 v=0
45738 On ch=1 n=64 v=44
45824 Off ch=1 n=48 v=0
45824 Off ch=1 n=64 v=0
45824 On ch=1 n=60 v=38
45824 On ch=1 n=48 v=63
45909 Off ch=1 n=60 v=0
45909 On ch=1 n=64 v=40
45994 Off ch=1 n=64 v=0
45994 On ch=1 n=70 v=49
46080 Off ch=1 n=48 v=0
46080 Off ch=1 n=70 v=0
46080 On ch=1 n=53 v=35
46080 On ch=1 n=41 v=52
46165 Off ch=1 n=53 v=0
46165 On ch=1 n=65 v=46
46250 Off ch=1 n=65 v=0
46250 On ch=1 n=69 v=45
46336 Off ch=1 n=69 v=0
46336 On ch=1 n=60 v=29
46421 Off ch=1 n=60 v=0
46421 On ch=1 n=65 v=45
46506 Off ch=1 n=65 v=0
46506 On ch=1 n=69 v=43
46592 Off ch=1 n=69 v=0
46592 On ch=1 n=60 v=28
46677 Off ch=1 n=60 v=0
46677 On ch=1 n=65 v=45
46762 Off ch=1 n=65 v=0
46762 On ch=1 n=69 v=46
46848 Off ch=1 n=41 v=0
46848 Off ch=1 n=69 v=0
46848 On ch=1 n=60 v=31
46848 On ch=1 n=53 v=69
46933 Off ch=1 n=60 v=0
46933 On ch=1 n=65 v=43
47018 Off ch=1 n=65 v=0
47018 On ch=1 n=69 v=44
47040 Off ch=1 n=53 v=0
47040 On ch=1 n=57 v=65
47104 Off ch=1 n=69 v=0
47104 Off ch=1 n=57 v=0
47104 On ch=1 n=60 v=32
47104 On ch=1 n=52 v=59
47189 Off ch=1 n=60 v=0
47189 On ch=1 n=67 v=45
47274 Off ch=1 n=67 v=0
47274 On ch=1 n=70 v=50
47360 Off ch=1 n=70 v=0
47360 On ch=1 n=60 v=28
47445 Off ch=1 n=60 v=0
47445 On ch=1 n=67 v=42
47530 Off ch=1 n=67 v=0
47530 On ch=1 n=70 v=44
47616 Off ch=1 n=70 v=0
47616 On ch=1 n=60 v=33
47701 Off ch=1 n=60 v=0
47701 On ch=1 n=67 v=41
47786 Off ch=1 n=67 v=0
47786 On ch=1 n=70 v=44
47872 Off ch=1 n=52 v=0
47872 Off ch=1 n=70 v=0
47872 On ch=1 n=60 v=29
47872 On ch=1 n=52 v=63
47872 On ch=1 n=60 v=53
47957 Off ch=1 n=60 v=0
47957 On ch=1 n=67 v=49
48042 Off ch=1 n=67 v=0
48042 On ch=1 n=70 v=42
48064 Off ch=1 n=60 v=0
48064 On ch=1 n=60 v=62
48128 Off ch=1 n=52 v=0
48128 Off ch=1 n=70 v=0
48128 Off ch=1 n=60 v=0
48128 On ch=1 n=60 v=28
48128 On ch=1 n=53 v=58
48213 Off ch=1 n=60 v=0
48213 On ch=1 n=65 v=42
48298 Off ch=1 n=65 v=0
48298 On ch=1 n=69 v=47
48384 Off ch=1 n=69 v=0
48384 On ch=1 n=60 v=30
48469 Off ch=1 n=60 v=0
48469 On ch=1 n=65 v=45
48554 Off ch=1 n=65 v=0
48554 On ch=1 n=69 v=47
48640 Off ch=1 n=53 v=0
48640 Off ch=1 n=69 v=0
48640 On ch=1 n=61 v=30
48640 On ch=1 n=52 v=61
48725 Off ch=1 n=61 v=0
48725 On ch=1 n=67 v=43
48810 Off ch=1 n=67 v=0
48810 On ch=1 n=69 v=43
48896 Off ch=1 n=52 v=0
48896 Off ch=1 n=69 v=0
48896 On ch=1 n=62 v=33
48896 On ch=1 n=50 v=59
48981 Off ch=1 n=62 v=0
48981 On ch=1 n=65 v=42
49066 Off ch=1 n=65 v=0
49066 On ch=1 n=69 v=43
49152 Off ch=1 n=50 v=0
49152 Off ch=1 n=69 v=0
49152 On ch=1 n=64 v=34
49152 On ch=1 n=49 v=59
49237 Off ch=1 n=64 v=0
49237 On ch=1 n=67 v=42
49322 Off ch=1 n=67 v=0
49322 On ch=1 n=69 v=44
49408 Off ch=1 n=69 v=0
49408 On ch=1 n=64 v=35
49493 Off ch=1 n=64 v=0
49493 On ch=1 n=67 v=46
49578 Off ch=1 n=67 v=0
49578 On ch=1 n=69 v=42
49664 Off ch=1 n=49 v=0
49664 Off ch=1 n=69 v=0
49664 On ch=1 n=65 v=38
49664 On ch=1 n=50 v=64
49749 Off ch=1 n=65 v=0
49749 On ch=1 n=69 v=44
49834 Off ch=1 n=69 v=0
49834 On ch=1 n=74 v=49
49920 Off ch=1 n=74 v=0
49920 On ch=1 n=65 v=31
50005 Off ch=1 n=65 v=0
50005 On ch=1 n=69 v=39
50090 Off ch=1 n=69 v=0
50090 On ch=1 n=74 v=42
50176 Off ch=1 n=50 v=0
50176 Off ch=1 n=74 v=0
50176 On ch=1 n=63 v=27
50176 On ch=1 n=43 v=56
50261 Off ch=1 n=63 v=0
50261 On ch=1 n=67 v=37
50346 Off ch=1 n=67 v=0
50346 On ch=1 n=70 v=44
50432 Off ch=1 n=70 v=0
50432 On ch=1 n=63 v=29
50517 Off ch=1 n=63 v=0
50517 On ch=1 n=67 v=46
50602 Off ch=1 n=67 v=0
50602 On ch=1 n=70 v=47
50688 Off ch=1 n=43 v=0
50688 Off ch=1 n=70 v=0
50688 On ch=1 n=61 v=34
50688 On ch=1 n=45 v=62
50773 Off ch=1 n=61 v=0
50773 On ch=1 n=67 v=44
50858 Off ch=1 n=67 v=0
50858 On ch=1 n=69 v=41
50944 Off ch=1 n=69 v=0
50944 On ch=1 n=61 v=34
51029 Off ch=1 n=61 v=0
51029 On ch=1 n=67 v=48
51114 Off ch=1 n=67 v=0
51114 On ch=1 n=69 v=47
51200 Off ch=1 n=45 v=0
51200 Off ch=1 n=69 v=0
51200 On ch=1 n=62 v=34
51200 On ch=1 n=50 v=65
51285 Off ch=1 n=62 v=0
51285 On ch=1 n=65 v=45
51370 Off ch=1 n=65 v=0
51370 On ch=1 n=69 v=40
51456 Off ch=1 n=69 v=0
51456 On ch=1 n=62 v=35
51541 Off ch=1 n=62 v=0
51541 On ch=1 n=65 v=42
51626 Off ch=1 n=65 v=0
51626 On ch=1 n=69 v=40
51712 Off ch=1 n=69 v=0
51712 On ch=1 n=62 v=29
51797 Off ch=1 n=62 v=0
51797 On ch=1 n=66 v=45
51882 Off ch=1 n=66 v=0
51882 On ch=1 n=69 v=41
51968 Off ch=1 n=50 v=0
51968 Off ch=1 n=69 v=0
51968 On ch=1 n=62 v=39
51968 On ch=1 n=50 v=60
52053 Off ch=1 n=62 v=0
52053 On ch=1 n=66 v=41
52138 Off ch=1 n=66 v=0
52138 On ch=1 n=69 v=39
52224 Off ch=1 n=50 v=0
52224 Off ch=1 n=69 v=0
52224 On ch=1 n=63 v=37
52224 On ch=1 n=50 v=59
52309 Off ch=1 n=63 v=0
52309 On ch=1 n=67 v=49
52394 Off ch=1 n=67 v=0
52394 On ch=1 n=70 v=51
52480 Off ch=1 n=50 v=0
52480 Off ch=1 n=70 v=0
52480 On ch=1 n=63 v=43
52480 On ch=1 n=55 v=65
52565 Off ch=1 n=63 v=0
52565 On ch=1 n=67 v=61
52650 Off ch=1 n=67 v=0
52650 On ch=1 n=70 v=66
52736 Off ch=1 n=55 v=0
52736 Off ch=1 n=70 v=0
52736 On ch=1 n=63 v=55
52736 On ch=1 n=58 v=62
52821 Off ch=1 n=63 v=0
52821 On ch=1 n=67 v=57
52906 Off ch=1 n=67 v=0
52906 On ch=1 n=70 v=58
52992 Off ch=1 n=58 v=0
52992 Off ch=1 n=70 v=0
52992 On ch=1 n=61 v=38
52992 On ch=1 n=55 v=60
53077 Off ch=1 n=61 v=0
53077 On ch=1 n=67 v=49
53162 Off ch=1 n=67 v=0
53162 On ch=1 n=70 v=43
53248 Off ch=1 n=55 v=0
53248 Off ch=1 n=70 v=0
53248 On ch=1 n=50 v=56
53333 On ch=1 n=66 v=33
53418 Off ch=1 n=66 v=0
53418 On ch=1 n=69 v=46
53504 Off ch=1 n=69 v=0
53504 On ch=1 n=62 v=32
53589 Off ch=1 n=62 v=0
53589 On ch=1 n=66 v=43
53674 Off ch=1 n=66 v=0
53674 On ch=1 n=69 v=43
53760 Off ch=1 n=69 v=0
53760 On ch=1 n=62 v=33
53845 Off ch=1 n=62 v=0
53845 On ch=1 n=66 v=46
53930 Off ch=1 n=66 v=0
53930 On ch=1 n=69 v=47
54016 Off ch=1 n=50 v=0
54016 Off ch=1 n=69 v=0
54016 On ch=1 n=62 v=39
54016 On ch=1 n=50 v=59
54101 Off ch=1 n=62 v=0
54101 On ch=1 n=66 v=44
54186 Off ch=1 n=66 v=0
54186 On ch=1 n=69 v=52
54272 Off ch=1 n=50 v=0
54272 Off ch=1 n=69 v=0
54272 On ch=1 n=63 v=32
54272 On ch=1 n=50 v=57
54357 Off ch=1 n=63 v=0
54357 On ch=1 n=67 v=47
54442 Off ch=1 n=67 v=0
54442 On ch=1 n=70 v=52
54528 Off ch=1 n=50 v=0
54528 Off ch=1 n=70 v=0
54528 On ch=1 n=63 v=41
54528 On ch=1 n=55 v=65
54613 Off ch=1 n=63 v=0
54613 On ch=1 n=67 v=64
54698 Off ch=1 n=67 v=0
54698 On ch=1 n=70 v=65
54784 Off ch=1 n=55 v=0
54784 Off ch=1 n=70 v=0
54784 On ch=1 n=63 v=51
54784 On ch=1 n=58 v=63
54869 Off ch=1 n=63 v=0
54869 On ch=1 n=67 v=60
54954 Off ch=1 n=67 v=0
54954 On ch=1 n=70 v=57
55040 Off ch=1 n=58 v=0
55040 Off ch=1 n=70 v=0
55040 On ch=1 n=61 v=39
55040 On ch=1 n=55 v=63
55125 Off ch=1 n=61 v=0
55125 On ch=1 n=67 v=53
55210 Off ch=1 n=67 v=0
55210 On ch=1 n=70 v=47
55296 Off ch=1 n=55 v=0
55296 Off ch=1 n=70 v=0
55296 On ch=1 n=62 v=32
55296 On ch=1 n=50 v=59
55381 Off ch=1 n=62 v=0
55381 On ch=1 n=66 v=48
55466 Off ch=1 n=66 v=0
55466 On ch=1 n=69 v=44
55552 Off ch=1 n=69 v=0
55552 On ch=1 n=62 v=33
55637 Off ch=1 n=62 v=0
55637 On ch=1 n=66 v=48
55722 Off ch=1 n=66 v=0
55722 On ch=1 n=69 v=46
55808 Off ch=1 n=50 v=0
55808 Off ch=1 n=69 v=0
55808 On ch=1 n=62 v=28
55808 On ch=1 n=43 v=54
55893 Off ch=1 n=62 v=0
55893 On ch=1 n=67 v=46
55978 Off ch=1 n=67 v=0
55978 On ch=1 n=70 v=40
56064 Off ch=1 n=70 v=0
56064 On ch=1 n=62 v=32
56149 Off ch=1 n=62 v=0
56149 On ch=1 n=67 v=43
56234 Off ch=1 n=67 v=0
56234 On ch=1 n=70 v=44
56320 Off ch=1 n=43 v=0
56320 Off ch=1 n=70 v=0
56320 On ch=1 n=60 v=31
56320 On ch=1 n=52 v=65
56405 Off ch=1 n=60 v=0
56405 On ch=1 n=67 v=42
56490 Off ch=1 n=67 v=0
56490 On ch=1 n=70 v=45
56576 Off ch=1 n=70 v=0
56576 On ch=1 n=60 v=33
56661 Off ch=1 n=60 v=0
56661 On ch=1 n=67 v=46
56746 Off ch=1 n=67 v=0
56746 On ch=1 n=70 v=41
56832 Off ch=1 n=70 v=0
56832 On ch=1 n=60 v=34
56917 Off ch=1 n=60 v=0
56917 On ch=1 n=67 v=46
57002 Off ch=1 n=67 v=0
57002 On ch=1 n=70 v=38
57088 Off ch=1 n=52 v=0
57088 Off ch=1 n=70 v=0
57088 On ch=1 n=60 v=29
57088 On ch=1 n=53 v=63
57173 Off ch=1 n=60 v=0
57173 On ch=1 n=65 v=45
57258 Off ch=1 n=65 v=0
57258 On ch=1 n=69 v=46
57344 Off ch=1 n=53 v=0
57344 Off ch=1 n=69 v=0
57344 On ch=1 n=58 v=34
57344 On ch=1 n=50 v=59
57429 Off ch=1 n=58 v=0
57429 On ch=1 n=65 v=43
57514 Off ch=1 n=65 v=0
57514 On ch=1 n=69 v=47
57600 Off ch=1 n=50 v=0
57600 Off ch=1 n=69 v=0
57600 On ch=1 n=58 v=35
57600 On ch=1 n=52 v=58
57685 Off ch=1 n=58 v=0
57685 On ch=1 n=64 v=45
57770 Off ch=1 n=64 v=0
57770 On ch=1 n=67 v=44
57856 Off ch=1 n=52 v=0
57856 Off ch=1 n=67 v=0
57856 On ch=1 n=57 v=41
57856 On ch=1 n=49 v=58
57941 Off ch=1 n=57 v=0
57941 On ch=1 n=64 v=45
58026 Off ch=1 n=64 v=0
58026 On ch=1 n=67 v=42
58112 Off ch=1 n=49 v=0
58112 Off ch=1 n=67 v=0
58112 On ch=1 n=57 v=36
58112 On ch=1 n=50 v=60
58197 Off ch=1 n=57 v=0
58197 On ch=1 n=62 v=43
58282 Off ch=1 n=62 v=0
58282 On ch=1 n=65 v=47
58368 Off ch=1 n=50 v=0
58368 Off ch=1 n=65 v=0
58368 On ch=1 n=55 v=33
58368 On ch=1 n=46 v=55
58453 Off ch=1 n=55 v=0
58453 On ch=1 n=62 v=45
58538 Off ch=1 n=62 v=0
58538 On ch=1 n=64 v=44
58624 Off ch=1 n=64 v=0
58624 On ch=1 n=55 v=40
58709 Off ch=1 n=55 v=0
58709 On ch=1 n=62 v=44
58794 Off ch=1 n=62 v=0
58794 On ch=1 n=64 v=45
58880 Off ch=1 n=46 v=0
58880 Off ch=1 n=64 v=0
58880 On ch=1 n=57 v=34
58880 On ch=1 n=45 v=56
58965 Off ch=1 n=57 v=0
58965 On ch=1 n=62 v=46
59050 Off ch=1 n=62 v=0
59050 On ch=1 n=64 v=48
59136 Off ch=1 n=45 v=0
59136 Off ch=1 n=64 v=0
59136 On ch=1 n=58 v=38
59136 On ch=1 n=43 v=57
59221 Off ch=1 n=58 v=0
59221 On ch=1 n=62 v=43
59306 Off ch=1 n=62 v=0
59306 On ch=1 n=64 v=42
59392 Off ch=1 n=43 v=0
59392 Off ch=1 n=64 v=0
59392 On ch=1 n=57 v=42
59392 On ch=1 n=45 v=63
59477 Off ch=1 n=57 v=0
59477 On ch=1 n=62 v=46
59562 Off ch=1 n=62 v=0
59562 On ch=1 n=65 v=43
59648 Off ch=1 n=65 v=0
59648 On ch=1 n=57 v=34
59733 Off ch=1 n=57 v=0
59733 On ch=1 n=62 v=44
59818 Off ch=1 n=62 v=0
59818 On ch=1 n=65 v=40
59904 Off ch=1 n=45 v=0
59904 Off ch=1 n=65 v=0
59904 On ch=1 n=57 v=38
59904 On ch=1 n=45 v=64
59989 Off ch=1 n=57 v=0
59989 On ch=1 n=61 v=44
60074 Off ch=1 n=61 v=0
60074 On ch=1 n=64 v=45
60160 Off ch=1 n=64 v=0
60160 On ch=1 n=57 v=39
60245 On ch=1 n=61 v=38
60330 Off ch=1 n=61 v=0
60330 On ch=1 n=64 v=44
60352 Off ch=1 n=57 v=0
60352 On ch=1 n=57 v=66
60416 Off ch=1 n=45 v=0
60416 Off ch=1 n=64 v=0
60416 Off ch=1 n=57 v=0
60416 On ch=1 n=50 v=34
60416 On ch=1 n=38 v=57
60501 Off ch=1 n=50 v=0
60501 On ch=1 n=57 v=40
60586 Off ch=1 n=57 v=0
60586 On ch=1 n=65 v=50
60672 Off ch=1 n=65 v=0
60672 On ch=1 n=57 v=35
60757 Off ch=1 n=57 v=0
60757 On ch=1 n=62 v=44
60842 Off ch=1 n=62 v=0
60842 On ch=1 n=65 v=47
60928 Off ch=1 n=65 v=0
60928 On ch=1 n=57 v=36
61013 Off ch=1 n=57 v=0
61013 On ch=1 n=62 v=44
61098 Off ch=1 n=62 v=0
61098 On ch=1 n=65 v=38
61184 Off ch=1 n=38 v=0
61184 Off ch=1 n=65 v=0
61184 On ch=1 n=57 v=36
61184 On ch=1 n=45 v=63
61269 Off ch=1 n=57 v=0
61269 On ch=1 n=62 v=40
61354 Off ch=1 n=62 v=0
61354 On ch=1 n=65 v=44
61376 Off ch=1 n=45 v=0
61376 On ch=1 n=45 v=74
61376 On ch=1 n=57 v=74
61440 Off ch=1 n=65 v=0
61440 Off ch=1 n=45 v=0
61440 Off ch=1 n=57 v=0
61440 On ch=1 n=49 v=57
61525 On ch=1 n=64 v=34
61610 Off ch=1 n=64 v=0
61610 On ch=1 n=67 v=43
61696 Off ch=1 n=67 v=0
61696 On ch=1 n=57 v=37
61781 Off ch=1 n=57 v=0
61781 On ch=1 n=64 v=45
61866 Off ch=1 n=64 v=0
61866 On ch=1 n=67 v=45
61952 Off ch=1 n=67 v=0
61952 On ch=1 n=57 v=42
62037 Off ch=1 n=57 v=0
62037 On ch=1 n=64 v=45
62122 Off ch=1 n=64 v=0
62122 On ch=1 n=67 v=38
62208 Off ch=1 n=49 v=0
62208 Off ch=1 n=67 v=0
62208 On ch=1 n=57 v=42
62208 On ch=1 n=45 v=62
62293 Off ch=1 n=57 v=0
62293 On ch=1 n=64 v=46
62378 Off ch=1 n=64 v=0
62378 On ch=1 n=67 v=48
62400 Off ch=1 n=45 v=0
62400 On ch=1 n=45 v=70
62400 On ch=1 n=57 v=70
62464 Off ch=1 n=67 v=0
62464 Off ch=1 n=45 v=0
62464 Off ch=1 n=57 v=0
62464 On ch=1 n=50 v=37
62464 On ch=1 n=38 v=54
62549 Off ch=1 n=50 v=0
62549 On ch=1 n=65 v=50
62634 Off ch=1 n=65 v=0
62634 On ch=1 n=62 v=39
62720 Off ch=1 n=62 v=0
62720 On ch=1 n=69 v=50
62805 Off ch=1 n=69 v=0
62805 On ch=1 n=65 v=43
62890 Off ch=1 n=65 v=0
62890 On ch=1 n=74 v=60
62976 Off ch=1 n=74 v=0
62976 On ch=1 n=69 v=41
63061 Off ch=1 n=69 v=0
63061 On ch=1 n=77 v=67
63146 Off ch=1 n=77 v=0
63146 On ch=1 n=74 v=49
63232 Off ch=1 n=38 v=0
63232 Off ch=1 n=74 v=0
63232 On ch=1 n=81 v=66
63232 On ch=1 n=50 v=68
63317 Off ch=1 n=81 v=0
63317 On ch=1 n=77 v=52
63402 Off ch=1 n=77 v=0
63402 On ch=1 n=74 v=50
63424 Off ch=1 n=50 v=0
63424 On ch=1 n=50 v=63
63488 Off ch=1 n=74 v=0
63488 Off ch=1 n=50 v=0
63488 On ch=1 n=73 v=62
63488 On ch=1 n=45 v=60
63573 On ch=1 n=76 v=61
63574 Off ch=1 n=73 v=0
63653 Off ch=1 n=76 v=0
63658 On ch=1 n=70 v=49
63744 Off ch=1 n=70 v=0
63744 On ch=1 n=73 v=61
63829 Off ch=1 n=73 v=0
63829 On ch=1 n=67 v=47
63914 Off ch=1 n=67 v=0
63914 On ch=1 n=70 v=58
64000 Off ch=1 n=70 v=0
64000 On ch=1 n=64 v=41
64085 Off ch=1 n=64 v=0
64085 On ch=1 n=67 v=50
64170 Off ch=1 n=67 v=0
64170 On ch=1 n=62 v=46
64217 Off ch=1 n=45 v=0
64256 Off ch=1 n=62 v=0
64256 On ch=1 n=61 v=39
64256 On ch=1 n=45 v=61
64256 On ch=1 n=58 v=55
64341 Off ch=1 n=58 v=0
64341 On ch=1 n=57 v=58
64426 Off ch=1 n=57 v=0
64426 On ch=1 n=55 v=59
64448 Off ch=1 n=45 v=0
64448 On ch=1 n=45 v=69
64512 Off ch=1 n=61 v=0
64512 Off ch=1 n=55 v=0
64512 Off ch=1 n=45 v=0
64512 On ch=1 n=50 v=31
64512 On ch=1 n=38 v=57
64597 Off ch=1 n=50 v=0
64597 On ch=1 n=65 v=51
64682 Off ch=1 n=65 v=0
64682 On ch=1 n=62 v=39
64768 Off ch=1 n=62 v=0
64768 On ch=1 n=69 v=48
64853 Off ch=1 n=69 v=0
64853 On ch=1 n=65 v=36
64938 Off ch=1 n=65 v=0
64938 On ch=1 n=74 v=46
65024 Off ch=1 n=74 v=0
65024 On ch=1 n=69 v=38
65109 Off ch=1 n=69 v=0
65109 On ch=1 n=77 v=46
65194 Off ch=1 n=77 v=0
65194 On ch=1 n=74 v=40
65280 Off ch=1 n=38 v=0
65280 Off ch=1 n=74 v=0
65280 On ch=1 n=81 v=50
65280 On ch=1 n=50 v=75
65365 Off ch=1 n=81 v=0
65365 On ch=1 n=77 v=34
65450 Off ch=1 n=77 v=0
65450 On ch=1 n=74 v=39
65472 Off ch=1 n=50 v=0
65472 On ch=1 n=50 v=74
65536 Off ch=1 n=74 v=0
65536 Off ch=1 n=50 v=0
65536 On ch=1 n=73 v=36
65536 On ch=1 n=45 v=68
65621 On ch=1 n=76 v=42
65622 Off ch=1 n=73 v=0
65701 Off ch=1 n=76 v=0
65706 On ch=1 n=70 v=31
65792 Off ch=1 n=70 v=0
65792 On ch=1 n=73 v=37
65877 Off ch=1 n=73 v=0
65877 On ch=1 n=67 v=26
65962 Off ch=1 n=67 v=0
65962 On ch=1 n=70 v=35
66048 Off ch=1 n=70 v=0
66048 On ch=1 n=64 v=23
66133 Off ch=1 n=64 v=0
66133 On ch=1 n=67 v=26
66218 Off ch=1 n=67 v=0
66218 On ch=1 n=62 v=22
66265 Off ch=1 n=45 v=0
66304 Off ch=1 n=62 v=0
66304 On ch=1 n=61 v=20
66304 On ch=1 n=45 v=63
66304 On ch=1 n=58 v=40
66389 Off ch=1 n=58 v=0
66389 On ch=1 n=57 v=38
66474 Off ch=1 n=57 v=0
66474 On ch=1 n=55 v=44
66496 Off ch=1 n=45 v=0
66496 On ch=1 n=45 v=64
66560 Off ch=1 n=61 v=0
66560 Off ch=1 n=55 v=0
66560 Off ch=1 n=45 v=0
66560 On ch=1 n=53 v=41
66560 On ch=1 n=62 v=41
66560 On ch=1 n=38 v=59
66645 Off ch=1 n=53 v=0
66645 Off ch=1 n=62 v=0
66645 On ch=1 n=57 v=36
66730 Off ch=1 n=57 v=0
66730 On ch=1 n=62 v=43
66816 Off ch=1 n=62 v=0
66816 On ch=1 n=65 v=44
66901 Off ch=1 n=65 v=0
66901 On ch=1 n=62 v=39
66986 Off ch=1 n=62 v=0
66986 On ch=1 n=57 v=35
67072 Off ch=1 n=38 v=0
67072 Off ch=1 n=57 v=0
67072 On ch=1 n=50 v=68
67157 On ch=1 n=53 v=40
67242 Off ch=1 n=53 v=0
67242 On ch=1 n=57 v=36
67328 Off ch=1 n=57 v=0
67328 On ch=1 n=62 v=46
67413 Off ch=1 n=62 v=0
67413 On ch=1 n=57 v=38
67498 Off ch=1 n=57 v=0
67498 On ch=1 n=53 v=38
67584 Off ch=1 n=50 v=0
67584 Off ch=1 n=53 v=0
67584 On ch=1 n=45 v=36
67669 Off ch=1 n=45 v=0
67669 On ch=1 n=50 v=40
67754 Off ch=1 n=50 v=0
67754 On ch=1 n=53 v=41
67840 Off ch=1 n=53 v=0
67840 On ch=1 n=57 v=47
67925 Off ch=1 n=57 v=0
67925 On ch=1 n=53 v=40
68010 Off ch=1 n=53 v=0
68010 On ch=1 n=50 v=39
68096 Off ch=1 n=50 v=0
68096 On ch=1 n=45 v=36
68181 Off ch=1 n=45 v=0
68181 On ch=1 n=50 v=43
68266 Off ch=1 n=50 v=0
68266 On ch=1 n=45 v=41
68352 Off ch=1 n=45 v=0
68352 On ch=1 n=41 v=29
68437 Off ch=1 n=41 v=0
68437 On ch=1 n=45 v=45
68522 Off ch=1 n=45 v=0
68522 On ch=1 n=41 v=42
68608 Off ch=1 n=41 v=0
68608 On ch=1 n=38 v=54
69120 Off ch=1 n=38 v=0
69120 On ch=1 n=53 v=35
69120 On ch=1 n=57 v=35
69120 On ch=1 n=62 v=35
69120 On ch=1 n=38 v=36
69632 Off ch=1 n=53 v=0
69632 Off ch=1 n=57 v=0
69632 Off ch=1 n=62 v=0
69632 Off ch=1 n=38 v=0
69632 On ch=1 n=53 v=38
69632 On ch=1 n=57 v=38
69632 On ch=1 n=62 v=38
69632 On ch=1 n=38 v=42
71168 Off ch=1 n=53 v=0
71168 Off ch=1 n=57 v=0
71168 Off ch=1 n=62 v=0
71168 Off ch=1 n=38 v=0