9344 On ch=1 n=86 v=54
9344 On ch=1 n=91 v=54
9460 Off ch=1 n=86 v=0
9460 Off ch=1 n=91 v=0
9472 On ch=1 n=86 v=69
9472 On ch=1 n=91 v=69
9588 Off ch=1 n=86 v=0
9588 Off ch=1 n=91 v=0
9600 On ch=1 n=86 v=74
9600 On ch=1 n=89 v=74
9716 Off ch=1 n=86 v=0
9716 Off ch=1 n=89 v=0
9728 On ch=1 n=84 v=92
9728 On ch=1 n=87 v=92
9959 Off ch=1 n=84 v=0
9959 Off ch=1 n=87 v=0
10240 On ch=1 n=84 v=88
10471 Off ch=1 n=84 v=0
10752 On ch=1 n=83 v=89
10752 On ch=1 n=91 v=89
10983 Off ch=1 n=83 v=0
10983 Off ch=1 n=91 v=0
11520 On ch=1 n=80 v=85
11636 Off ch=1 n=80 v=0
11648 On ch=1 n=80 v=100
11764 Off ch=1 n=80 v=0
11776 On ch=1 n=80 v=97
11892 Off ch=1 n=80 v=0
11904 On ch=1 n=77 v=91
13184 Off ch=1 n=77 v=0
20352 On ch=1 n=84 v=127
20583 Off ch=1 n=84 v=0
20864 On ch=1 n=84 v=104
21095 Off ch=1 n=84 v=0
21376 On ch=1 n=84 v=100
21607 Off ch=1 n=84 v=0
21888 On ch=1 n=84 v=104
22119 Off ch=1 n=84 v=0
22400 On ch=1 n=83 v=102
22400 On ch=1 n=86 v=102
22631 Off ch=1 n=83 v=0
22631 Off ch=1 n=86 v=0
22912 On ch=1 n=84 v=91
22912 On ch=1 n=87 v=91
24909 Off ch=1 n=84 v=0
24909 Off ch=1 n=87 v=0
24960 On ch=1 n=86 v=103
24960 On ch=1 n=89 v=103
26727 Off ch=1 n=86 v=0
26727 Off ch=1 n=89 v=0
26752 On ch=1 n=84 v=94
26752 On ch=1 n=87 v=94
26983 Off ch=1 n=84 v=0
26983 Off ch=1 n=87 v=0
27008 On ch=1 n=84 v=118
27008 On ch=1 n=87 v=118
29005 Off ch=1 n=84 v=0
29005 Off ch=1 n=87 v=0
29056 On ch=1 n=81 v=122
29056 On ch=1 n=90 v=122
29287 Off ch=1 n=81 v=0
29287 Off ch=1 n=90 v=0
30080 On ch=1 n=82 v=101
30311 Off ch=1 n=82 v=0
36736 On ch=1 n=82 v=75
36992 On ch=1 n=87 v=80
36997 Off ch=1 n=82 v=0
37248 On ch=1 n=86 v=83
37253 Off ch=1 n=87 v=0
37504 On ch=1 n=87 v=85
37509 Off ch=1 n=86 v=0
37760 On ch=1 n=89 v=87
37765 Off ch=1 n=87 v=0
38016 On ch=1 n=84 v=78
38021 Off ch=1 n=89 v=0
38259 Off ch=1 n=84 v=0
38272 On ch=1 n=84 v=85
38528 On ch=1 n=82 v=76
38533 Off ch=1 n=84 v=0
38771 Off ch=1 n=82 v=0
46976 On ch=1 n=87 v=97
47232 On ch=1 n=89 v=107
47237 Off ch=1 n=87 v=0
47488 On ch=1 n=90 v=90
47493 Off ch=1 n=89 v=0
47744 On ch=1 n=89 v=92
47749 Off ch=1 n=90 v=0
48000 On ch=1 n=90 v=104
48005 Off ch=1 n=89 v=0
48256 Off ch=1 n=90 v=0
48256 On ch=1 n=90 v=95
48499 Off ch=1 n=90 v=0
48512 On ch=1 n=82 v=110
48512 On ch=1 n=89 v=110
49255 Off ch=1 n=82 v=0
49255 Off ch=1 n=89 v=0
49280 On ch=1 n=82 v=108
49280 On ch=1 n=89 v=108
49511 Off ch=1 n=82 v=0
49511 Off ch=1 n=89 v=0
49536 On ch=1 n=82 v=120
49536 On ch=1 n=91 v=120
49767 Off ch=1 n=82 v=0
49767 Off ch=1 n=91 v=0
50048 On ch=1 n=82 v=100
50048 On ch=1 n=89 v=100
50279 Off ch=1 n=82 v=0
50279 Off ch=1 n=89 v=0
50560 On ch=1 n=82 v=102
50560 On ch=1 n=87 v=102
50791 Off ch=1 n=82 v=0
50791 Off ch=1 n=87 v=0
51072 On ch=1 n=84 v=99
51072 On ch=1 n=87 v=99
51303 Off ch=1 n=84 v=0
51303 Off ch=1 n=87 v=0
51584 On ch=1 n=82 v=100
51584 On ch=1 n=87 v=100
51815 Off ch=1 n=82 v=0
51815 Off ch=1 n=87 v=0
52096 On ch=1 n=82 v=104
52096 On ch=1 n=86 v=104
52327 Off ch=1 n=82 v=0
52327 Off ch=1 n=86 v=0
52608 On ch=1 n=82 v=107
52608 On ch=1 n=89 v=107
53581 Off ch=1 n=82 v=0
53581 Off ch=1 n=89 v=0
53632 On ch=1 n=82 v=117
53632 On ch=1 n=91 v=117
53863 Off ch=1 n=82 v=0
53863 Off ch=1 n=91 v=0
53888 On ch=1 n=82 v=114
53888 On ch=1 n=91 v=114
54119 Off ch=1 n=82 v=0
54119 Off ch=1 n=91 v=0
54400 On ch=1 n=82 v=99
54400 On ch=1 n=86 v=99
54631 Off ch=1 n=82 v=0
54631 Off ch=1 n=86 v=0
54912 On ch=1 n=82 v=101
54912 On ch=1 n=87 v=101
55143 Off ch=1 n=82 v=0
55143 Off ch=1 n=87 v=0
55424 On ch=1 n=80 v=106
55424 On ch=1 n=87 v=106
55655 Off ch=1 n=80 v=0
55655 Off ch=1 n=87 v=0
55936 On ch=1 n=82 v=102
55936 On ch=1 n=87 v=102
56167 Off ch=1 n=82 v=0
56167 Off ch=1 n=87 v=0
56448 On ch=1 n=82 v=99
56448 On ch=1 n=86 v=99
56679 Off ch=1 n=82 v=0
56679 Off ch=1 n=86 v=0
56704 On ch=1 n=82 v=111
56704 On ch=1 n=87 v=111
56820 Off ch=1 n=82 v=0
56820 Off ch=1 n=87 v=0
56832 On ch=1 n=91 v=126
56948 Off ch=1 n=91 v=0
56960 On ch=1 n=91 v=116
57076 Off ch=1 n=91 v=0
57088 On ch=1 n=91 v=119
57204 Off ch=1 n=91 v=0
57216 On ch=1 n=87 v=101
57332 Off ch=1 n=87 v=0
57344 On ch=1 n=82 v=95
57460 Off ch=1 n=82 v=0
57472 On ch=1 n=82 v=110
57588 Off ch=1 n=82 v=0
57600 On ch=1 n=82 v=113
57716 Off ch=1 n=82 v=0
57728 On ch=1 n=79 v=100
57844 Off ch=1 n=79 v=0
57856 On ch=1 n=75 v=97
57972 Off ch=1 n=75 v=0
57984 On ch=1 n=75 v=110
58100 Off ch=1 n=75 v=0
58112 On ch=1 n=75 v=109
58228 Off ch=1 n=75 v=0
58240 On ch=1 n=70 v=97
58868 Off ch=1 n=70 v=0
58880 On ch=1 n=91 v=127
58996 Off ch=1 n=91 v=0
59008 On ch=1 n=91 v=119
59124 Off ch=1 n=91 v=0
59136 On ch=1 n=91 v=116
59252 Off ch=1 n=91 v=0
59264 On ch=1 n=87 v=104
59380 Off ch=1 n=87 v=0
59392 On ch=1 n=82 v=97
59508 Off ch=1 n=82 v=0
59520 On ch=1 n=82 v=109
59636 Off ch=1 n=82 v=0
59648 On ch=1 n=82 v=115
59764 Off ch=1 n=82 v=0
59776 On ch=1 n=79 v=101
59892 Off ch=1 n=79 v=0
59904 On ch=1 n=75 v=101
60020 Off ch=1 n=75 v=0
60032 On ch=1 n=75 v=112
60148 Off ch=1 n=75 v=0
60160 On ch=1 n=75 v=110
60276 Off ch=1 n=75 v=0
60288 On ch=1 n=70 v=96
61031 Off ch=1 n=70 v=0
61440 On ch=1 n=82 v=102
61556 Off ch=1 n=82 v=0
61568 On ch=1 n=82 v=107
61684 Off ch=1 n=82 v=0
61696 On ch=1 n=82 v=114
61812 Off ch=1 n=82 v=0
61824 On ch=1 n=82 v=110
62055 Off ch=1 n=82 v=0
62464 On ch=1 n=77 v=103
62464 On ch=1 n=86 v=103
62580 Off ch=1 n=77 v=0
62580 Off ch=1 n=86 v=0
62592 On ch=1 n=77 v=115
62592 On ch=1 n=86 v=115
62708 Off ch=1 n=77 v=0
62708 Off ch=1 n=86 v=0
62720 On ch=1 n=77 v=115
62720 On ch=1 n=86 v=115
62836 Off ch=1 n=77 v=0
62836 Off ch=1 n=86 v=0
62848 On ch=1 n=79 v=118
62848 On ch=1 n=87 v=118
63079 Off ch=1 n=79 v=0
63079 Off ch=1 n=87 v=0
73728 On ch=1 n=86 v=55
73728 On ch=1 n=91 v=55
73844 Off ch=1 n=86 v=0
73844 Off ch=1 n=91 v=0
73856 On ch=1 n=86 v=66
73856 On ch=1 n=91 v=66
73972 Off ch=1 n=86 v=0
73972 Off ch=1 n=91 v=0
73984 On ch=1 n=86 v=73
73984 On ch=1 n=89 v=73
74100 Off ch=1 n=86 v=0
74100 Off ch=1 n=89 v=0
74112 On ch=1 n=84 v=93
74112 On ch=1 n=87 v=93
74343 Off ch=1 n=84 v=0
74343 Off ch=1 n=87 v=0
74624 On ch=1 n=84 v=91
74855 Off ch=1 n=84 v=0
75136 On ch=1 n=83 v=90
75136 On ch=1 n=91 v=90
75367 Off ch=1 n=83 v=0
75367 Off ch=1 n=91 v=0
75904 On ch=1 n=80 v=88
76020 Off ch=1 n=80 v=0
76032 On ch=1 n=80 v=98
76148 Off ch=1 n=80 v=0
76160 On ch=1 n=80 v=96
76276 Off ch=1 n=80 v=0
76288 On ch=1 n=77 v=92
77568 Off ch=1 n=77 v=0
84736 On ch=1 n=84 v=127
84967 Off ch=1 n=84 v=0
85248 On ch=1 n=84 v=99
85479 Off ch=1 n=84 v=0
85760 On ch=1 n=84 v=102
85991 Off ch=1 n=84 v=0
86272 On ch=1 n=84 v=101
86503 Off ch=1 n=84 v=0
86784 On ch=1 n=83 v=104
86784 On ch=1 n=86 v=104
87015 Off ch=1 n=83 v=0
87015 Off ch=1 n=86 v=0
87296 On ch=1 n=84 v=91
87296 On ch=1 n=87 v=91
89293 Off ch=1 n=84 v=0
89293 Off ch=1 n=87 v=0
89344 On ch=1 n=86 v=102
89344 On ch=1 n=89 v=102
91111 Off ch=1 n=86 v=0
91111 Off ch=1 n=89 v=0
91136 On ch=1 n=84 v=87
91136 On ch=1 n=87 v=87
91367 Off ch=1 n=84 v=0
91367 Off ch=1 n=87 v=0
91392 On ch=1 n=84 v=110
91392 On ch=1 n=87 v=110
93389 Off ch=1 n=84 v=0
93389 Off ch=1 n=87 v=0
93440 On ch=1 n=81 v=120
93440 On ch=1 n=90 v=120
93671 Off ch=1 n=81 v=0
93671 Off ch=1 n=90 v=0
94464 On ch=1 n=82 v=103
94695 Off ch=1 n=82 v=0
101120 On ch=1 n=82 v=81
101376 On ch=1 n=87 v=88
101381 Off ch=1 n=82 v=0
101632 On ch=1 n=86 v=84
101637 Off ch=1 n=87 v=0
101888 On ch=1 n=87 v=89
101893 Off ch=1 n=86 v=0
102144 On ch=1 n=89 v=89
102149 Off ch=1 n=87 v=0
102400 On ch=1 n=84 v=76
102405 Off ch=1 n=89 v=0
102643 Off ch=1 n=84 v=0
102656 On ch=1 n=84 v=86
102912 On ch=1 n=82 v=82
102917 Off ch=1 n=84 v=0
103155 Off ch=1 n=82 v=0
111360 On ch=1 n=87 v=94
111616 On ch=1 n=89 v=99
111621 Off ch=1 n=87 v=0
111872 On ch=1 n=90 v=88
111877 Off ch=1 n=89 v=0
112128 On ch=1 n=89 v=88
112133 Off ch=1 n=90 v=0
112384 On ch=1 n=90 v=100
112389 Off ch=1 n=89 v=0
112640 Off ch=1 n=90 v=0
112640 On ch=1 n=90 v=96
112883 Off ch=1 n=90 v=0
112896 On ch=1 n=82 v=108
112896 On ch=1 n=89 v=108
113639 Off ch=1 n=82 v=0
113639 Off ch=1 n=89 v=0
113664 On ch=1 n=82 v=117
113664 On ch=1 n=89 v=117
113895 Off ch=1 n=82 v=0
113895 Off ch=1 n=89 v=0
113920 On ch=1 n=82 v=120
113920 On ch=1 n=91 v=120
114151 Off ch=1 n=82 v=0
114151 Off ch=1 n=91 v=0
114432 On ch=1 n=82 v=104
114432 On ch=1 n=89 v=104
114663 Off ch=1 n=82 v=0
114663 Off ch=1 n=89 v=0
114944 On ch=1 n=82 v=102
114944 On ch=1 n=87 v=102
115175 Off ch=1 n=82 v=0
115175 Off ch=1 n=87 v=0
115456 On ch=1 n=84 v=100
115456 On ch=1 n=87 v=100
115687 Off ch=1 n=84 v=0
115687 Off ch=1 n=87 v=0
115968 On ch=1 n=82 v=98
115968 On ch=1 n=87 v=98
116199 Off ch=1 n=82 v=0
116199 Off ch=1 n=87 v=0
116480 On ch=1 n=82 v=96
116480 On ch=1 n=86 v=96
116711 Off ch=1 n=82 v=0
116711 Off ch=1 n=86 v=0
116992 On ch=1 n=82 v=105
116992 On ch=1 n=89 v=105
117965 Off ch=1 n=82 v=0
117965 Off ch=1 n=89 v=0
118016 On ch=1 n=82 v=117
118016 On ch=1 n=91 v=117
118247 Off ch=1 n=82 v=0
118247 Off ch=1 n=91 v=0
118272 On ch=1 n=82 v=117
118272 On ch=1 n=91 v=117
118503 Off ch=1 n=82 v=0
118503 Off ch=1 n=91 v=0
118784 On ch=1 n=82 v=100
118784 On ch=1 n=86 v=100
119015 Off ch=1 n=82 v=0
119015 Off ch=1 n=86 v=0
119296 On ch=1 n=82 v=102
119296 On ch=1 n=87 v=102
119527 Off ch=1 n=82 v=0
119527 Off ch=1 n=87 v=0
119808 On ch=1 n=80 v=101
119808 On ch=1 n=87 v=101
120039 Off ch=1 n=80 v=0
120039 Off ch=1 n=87 v=0
120320 On ch=1 n=82 v=103
120320 On ch=1 n=87 v=103
120551 Off ch=1 n=82 v=0
120551 Off ch=1 n=87 v=0
120832 On ch=1 n=82 v=103
120832 On ch=1 n=86 v=103
121063 Off ch=1 n=82 v=0
121063 Off ch=1 n=86 v=0
121088 On ch=1 n=82 v=116
121088 On ch=1 n=87 v=116
121204 Off ch=1 n=82 v=0
121204 Off ch=1 n=87 v=0
121216 On ch=1 n=91 v=127
121332 Off ch=1 n=91 v=0
121344 On ch=1 n=91 v=112
121460 Off ch=1 n=91 v=0
121472 On ch=1 n=91 v=113
121588 Off ch=1 n=91 v=0
121600 On ch=1 n=87 v=101
121716 Off ch=1 n=87 v=0
121728 On ch=1 n=82 v=98
121844 Off ch=1 n=82 v=0
121856 On ch=1 n=82 v=111
121972 Off ch=1 n=82 v=0
121984 On ch=1 n=82 v=113
122100 Off ch=1 n=82 v=0
122112 On ch=1 n=79 v=102
122228 Off ch=1 n=79 v=0
122240 On ch=1 n=75 v=97
122356 Off ch=1 n=75 v=0
122368 On ch=1 n=75 v=110
122484 Off ch=1 n=75 v=0
122496 On ch=1 n=75 v=112
122612 Off ch=1 n=75 v=0
122624 On ch=1 n=70 v=97
123252 Off ch=1 n=70 v=0
123264 On ch=1 n=91 v=127
123380 Off ch=1 n=91 v=0
123392 On ch=1 n=91 v=115
123508 Off ch=1 n=91 v=0
123520 On ch=1 n=91 v=111
123636 Off ch=1 n=91 v=0
123648 On ch=1 n=87 v=103
123764 Off ch=1 n=87 v=0
123776 On ch=1 n=82 v=95
123892 Off ch=1 n=82 v=0
123904 On ch=1 n=82 v=113
124020 Off ch=1 n=82 v=0
124032 On ch=1 n=82 v=111
124148 Off ch=1 n=82 v=0
124160 On ch=1 n=79 v=101
124276 Off ch=1 n=79 v=0
124288 On ch=1 n=75 v=102
124404 Off ch=1 n=75 v=0
124416 On ch=1 n=75 v=112
124532 Off ch=1 n=75 v=0
124544 On ch=1 n=75 v=114
124660 Off ch=1 n=75 v=0
124672 On ch=1 n=70 v=99
125415 Off ch=1 n=70 v=0
125824 On ch=1 n=82 v=102
125940 Off ch=1 n=82 v=0
125952 On ch=1 n=82 v=113
126068 Off ch=1 n=82 v=0
126080 On ch=1 n=82 v=107
126196 Off ch=1 n=82 v=0
126208 On ch=1 n=82 v=110
126439 Off ch=1 n=82 v=0
126848 On ch=1 n=77 v=100
126848 On ch=1 n=86 v=100
126964 Off ch=1 n=77 v=0
126964 Off ch=1 n=86 v=0
126976 On ch=1 n=77 v=111
126976 On ch=1 n=86 v=111
127092 Off ch=1 n=77 v=0
127092 Off ch=1 n=86 v=0
127104 On ch=1 n=77 v=117
127104 On ch=1 n=86 v=117
127220 Off ch=1 n=77 v=0
127220 Off ch=1 n=86 v=0
127232 On ch=1 n=79 v=119
127232 On ch=1 n=87 v=119
127463 Off ch=1 n=79 v=0
127463 Off ch=1 n=87 v=0
143488 On ch=1 n=86 v=50
143604 Off ch=1 n=86 v=0
143616 On ch=1 n=86 v=62
143732 Off ch=1 n=86 v=0
143744 On ch=1 n=84 v=59
143860 Off ch=1 n=84 v=0
143872 On ch=1 n=82 v=57
144333 Off ch=1 n=82 v=0
144384 On ch=1 n=81 v=59
144500 Off ch=1 n=81 v=0
144512 On ch=1 n=86 v=69
144628 Off ch=1 n=86 v=0
144640 On ch=1 n=86 v=59
144756 Off ch=1 n=86 v=0
144768 On ch=1 n=84 v=53
144884 Off ch=1 n=84 v=0
144896 On ch=1 n=82 v=61
145357 Off ch=1 n=82 v=0
145408 On ch=1 n=81 v=55
145869 Off ch=1 n=81 v=0
145920 On ch=1 n=82 v=61
146548 Off ch=1 n=82 v=0
146560 On ch=1 n=79 v=59
146676 Off ch=1 n=79 v=0
146688 On ch=1 n=81 v=63
146804 Off ch=1 n=81 v=0
146816 On ch=1 n=82 v=63
146932 Off ch=1 n=82 v=0
146944 On ch=1 n=84 v=67
147175 Off ch=1 n=84 v=0
147584 On ch=1 n=78 v=54
147700 Off ch=1 n=78 v=0
147712 On ch=1 n=81 v=67
147828 Off ch=1 n=81 v=0
147840 On ch=1 n=82 v=61
147956 Off ch=1 n=82 v=0
147968 On ch=1 n=84 v=61
148199 Off ch=1 n=84 v=0
148608 On ch=1 n=81 v=54
148724 Off ch=1 n=81 v=0
148736 On ch=1 n=82 v=67
148852 Off ch=1 n=82 v=0
148864 On ch=1 n=84 v=64
148980 Off ch=1 n=84 v=0
148992 On ch=1 n=86 v=64
149223 Off ch=1 n=86 v=0
149632 On ch=1 n=79 v=58
149748 Off ch=1 n=79 v=0
149760 On ch=1 n=82 v=67
149876 Off ch=1 n=82 v=0
149888 On ch=1 n=84 v=68
150004 Off ch=1 n=84 v=0
150016 On ch=1 n=86 v=63
150247 Off ch=1 n=86 v=0
150656 On ch=1 n=82 v=65
150772 Off ch=1 n=82 v=0
150784 On ch=1 n=84 v=78
150900 Off ch=1 n=84 v=0
150912 On ch=1 n=86 v=86
151028 Off ch=1 n=86 v=0
151040 On ch=1 n=81 v=104
151040 On ch=1 n=87 v=104
152013 Off ch=1 n=81 v=0
152013 Off ch=1 n=87 v=0
152064 On ch=1 n=81 v=96
152064 On ch=1 n=87 v=96
152295 Off ch=1 n=81 v=0
152295 Off ch=1 n=87 v=0
152704 On ch=1 n=79 v=86
152704 On ch=1 n=88 v=86
152820 Off ch=1 n=79 v=0
152820 Off ch=1 n=88 v=0
152832 On ch=1 n=79 v=94
152832 On ch=1 n=88 v=94
152948 Off ch=1 n=79 v=0
152948 Off ch=1 n=88 v=0
152960 On ch=1 n=79 v=95
152960 On ch=1 n=88 v=95
153076 Off ch=1 n=79 v=0
153076 Off ch=1 n=88 v=0
153088 On ch=1 n=79 v=103
153088 On ch=1 n=88 v=103
154061 Off ch=1 n=79 v=0
154061 Off ch=1 n=88 v=0
154112 On ch=1 n=79 v=100
154112 On ch=1 n=88 v=100
154343 Off ch=1 n=79 v=0
154343 Off ch=1 n=88 v=0
154752 On ch=1 n=82 v=93
154752 On ch=1 n=86 v=93
154868 Off ch=1 n=82 v=0
154868 Off ch=1 n=86 v=0
154880 On ch=1 n=82 v=106
154880 On ch=1 n=86 v=106
154996 Off ch=1 n=82 v=0
154996 Off ch=1 n=86 v=0
155008 On ch=1 n=82 v=101
155008 On ch=1 n=86 v=101
155124 Off ch=1 n=82 v=0
155124 Off ch=1 n=86 v=0
155136 On ch=1 n=82 v=104
155136 On ch=1 n=86 v=104
155367 Off ch=1 n=82 v=0
155367 Off ch=1 n=86 v=0
155904 On ch=1 n=73 v=94
155904 On ch=1 n=85 v=94
156020 Off ch=1 n=73 v=0
156020 Off ch=1 n=85 v=0
156032 On ch=1 n=73 v=103
156032 On ch=1 n=85 v=103
156148 Off ch=1 n=73 v=0
156148 Off ch=1 n=85 v=0
156160 On ch=1 n=73 v=104
156160 On ch=1 n=85 v=104
156391 Off ch=1 n=73 v=0
156391 Off ch=1 n=85 v=0
156416 On ch=1 n=74 v=108
156416 On ch=1 n=86 v=108
156532 Off ch=1 n=74 v=0
156532 Off ch=1 n=86 v=0
156544 On ch=1 n=74 v=105
156544 On ch=1 n=86 v=105
156660 Off ch=1 n=74 v=0
156660 Off ch=1 n=86 v=0
156672 On ch=1 n=74 v=102
156672 On ch=1 n=86 v=102
156903 Off ch=1 n=74 v=0
156903 Off ch=1 n=86 v=0
160512 On ch=1 n=86 v=100
160628 Off ch=1 n=86 v=0
160640 On ch=1 n=86 v=111
160756 Off ch=1 n=86 v=0
160768 On ch=1 n=86 v=127
160768 On ch=1 n=91 v=127
160999 Off ch=1 n=86 v=0
160999 Off ch=1 n=91 v=0
164608 On ch=1 n=83 v=107
164608 On ch=1 n=86 v=107
164724 Off ch=1 n=83 v=0
164724 Off ch=1 n=86 v=0
164736 On ch=1 n=83 v=114
164736 On ch=1 n=86 v=114
164852 Off ch=1 n=83 v=0
164852 Off ch=1 n=86 v=0
164864 On ch=1 n=84 v=123
164864 On ch=1 n=88 v=123
164980 Off ch=1 n=84 v=0
164980 Off ch=1 n=88 v=0
164992 On ch=1 n=84 v=100
165108 Off ch=1 n=84 v=0
165120 On ch=1 n=84 v=111
165236 Off ch=1 n=84 v=0
165248 On ch=1 n=84 v=112
165364 Off ch=1 n=84 v=0
165376 On ch=1 n=77 v=91
165888 On ch=1 n=79 v=91
165898 Off ch=1 n=77 v=0
166374 Off ch=1 n=79 v=0
167424 On ch=1 n=77 v=108
167936 On ch=1 n=79 v=116
167946 Off ch=1 n=77 v=0
168422 Off ch=1 n=79 v=0
169472 On ch=1 n=77 v=108
169984 On ch=1 n=78 v=113
169994 Off ch=1 n=77 v=0
170470 Off ch=1 n=78 v=0
171520 On ch=1 n=81 v=119
172032 On ch=1 n=82 v=127
172042 Off ch=1 n=81 v=0
172518 Off ch=1 n=82 v=0
173056 On ch=1 n=83 v=121
173517 Off ch=1 n=83 v=0
174080 On ch=1 n=85 v=122
174541 Off ch=1 n=85 v=0
175104 On ch=1 n=85 v=60
175565 Off ch=1 n=85 v=0
176128 On ch=1 n=85 v=56
176589 Off ch=1 n=85 v=0
177152 On ch=1 n=85 v=60
177613 Off ch=1 n=85 v=0
178176 On ch=1 n=86 v=50
178637 Off ch=1 n=86 v=0
179200 On ch=1 n=86 v=52
179661 Off ch=1 n=86 v=0
180224 On ch=1 n=86 v=52
180685 Off ch=1 n=86 v=0
181248 On ch=1 n=86 v=55
181709 Off ch=1 n=86 v=0
181888 On ch=1 n=86 v=102
182004 Off ch=1 n=86 v=0
182016 On ch=1 n=86 v=111
182132 Off ch=1 n=86 v=0
182144 On ch=1 n=86 v=113
182260 Off ch=1 n=86 v=0
182272 On ch=1 n=83 v=115
182272 On ch=1 n=86 v=115
182733 Off ch=1 n=83 v=0
182733 Off ch=1 n=86 v=0
182784 On ch=1 n=84 v=112
182784 On ch=1 n=86 v=112
183245 Off ch=1 n=84 v=0
183245 Off ch=1 n=86 v=0
183296 On ch=1 n=81 v=114
183296 On ch=1 n=86 v=114
184269 Off ch=1 n=81 v=0
184269 Off ch=1 n=86 v=0
184320 On ch=1 n=86 v=51
184781 Off ch=1 n=86 v=0
185344 On ch=1 n=86 v=49
185805 Off ch=1 n=86 v=0
186368 On ch=1 n=86 v=45
186829 Off ch=1 n=86 v=0
187392 On ch=1 n=86 v=48
187853 Off ch=1 n=86 v=0
188544 On ch=1 n=80 v=105
188544 On ch=1 n=92 v=105
188660 Off ch=1 n=80 v=0
188660 Off ch=1 n=92 v=0
188672 On ch=1 n=80 v=106
188672 On ch=1 n=92 v=106
188788 Off ch=1 n=80 v=0
188788 Off ch=1 n=92 v=0
188800 On ch=1 n=80 v=111
188800 On ch=1 n=92 v=111
188916 Off ch=1 n=80 v=0
188916 Off ch=1 n=92 v=0
188928 On ch=1 n=77 v=100
188928 On ch=1 n=89 v=100
189556 Off ch=1 n=77 v=0
189556 Off ch=1 n=89 v=0
189568 On ch=1 n=80 v=122
189568 On ch=1 n=92 v=122
189684 Off ch=1 n=80 v=0
189684 Off ch=1 n=92 v=0
189696 On ch=1 n=80 v=109
189696 On ch=1 n=92 v=109
189812 Off ch=1 n=80 v=0
189812 Off ch=1 n=92 v=0
189824 On ch=1 n=80 v=113
189824 On ch=1 n=92 v=113
189940 Off ch=1 n=80 v=0
189940 Off ch=1 n=92 v=0
189952 On ch=1 n=77 v=101
189952 On ch=1 n=89 v=101
190580 Off ch=1 n=77 v=0
190580 Off ch=1 n=89 v=0
190592 On ch=1 n=80 v=121
190592 On ch=1 n=92 v=121
190708 Off ch=1 n=80 v=0
190708 Off ch=1 n=92 v=0
190720 On ch=1 n=80 v=117
190720 On ch=1 n=92 v=117
190836 Off ch=1 n=80 v=0
190836 Off ch=1 n=92 v=0
190848 On ch=1 n=80 v=115
190848 On ch=1 n=92 v=115
190964 Off ch=1 n=80 v=0
190964 Off ch=1 n=92 v=0
190976 On ch=1 n=77 v=101
190976 On ch=1 n=89 v=101
191092 Off ch=1 n=77 v=0
191092 Off ch=1 n=89 v=0
191104 On ch=1 n=80 v=119
191104 On ch=1 n=92 v=119
191220 Off ch=1 n=80 v=0
191220 Off ch=1 n=92 v=0
191232 On ch=1 n=80 v=114
191232 On ch=1 n=92 v=114
191348 Off ch=1 n=80 v=0
191348 Off ch=1 n=92 v=0
191360 On ch=1 n=80 v=112
191360 On ch=1 n=92 v=112
191476 Off ch=1 n=80 v=0
191476 Off ch=1 n=92 v=0
191488 On ch=1 n=77 v=99
191488 On ch=1 n=89 v=99
191604 Off ch=1 n=77 v=0
191604 Off ch=1 n=89 v=0
191616 On ch=1 n=80 v=120
191616 On ch=1 n=92 v=120
191732 Off ch=1 n=80 v=0
191732 Off ch=1 n=92 v=0
191744 On ch=1 n=80 v=113
191744 On ch=1 n=92 v=113
191860 Off ch=1 n=80 v=0
191860 Off ch=1 n=92 v=0
191872 On ch=1 n=80 v=111
191872 On ch=1 n=92 v=111
191988 Off ch=1 n=80 v=0
191988 Off ch=1 n=92 v=0
192000 On ch=1 n=77 v=103
192000 On ch=1 n=89 v=103
192116 Off ch=1 n=77 v=0
192116 Off ch=1 n=89 v=0
192128 On ch=1 n=79 v=118
192128 On ch=1 n=91 v=118
192244 Off ch=1 n=79 v=0
192244 Off ch=1 n=91 v=0
192256 On ch=1 n=79 v=116
192256 On ch=1 n=91 v=116
192372 Off ch=1 n=79 v=0
192372 Off ch=1 n=91 v=0
192384 On ch=1 n=79 v=112
192384 On ch=1 n=91 v=112
192500 Off ch=1 n=79 v=0
192500 Off ch=1 n=91 v=0
192512 On ch=1 n=87 v=110
192512 On ch=1 n=91 v=110
193280 Off ch=1 n=87 v=0
193280 Off ch=1 n=91 v=0
193408 On ch=1 n=89 v=99
193408 On ch=1 n=91 v=99
193524 Off ch=1 n=89 v=0
193524 Off ch=1 n=91 v=0
193536 On ch=1 n=89 v=110
193536 On ch=1 n=91 v=110
193652 Off ch=1 n=89 v=0
193652 Off ch=1 n=91 v=0
193664 On ch=1 n=89 v=115
193664 On ch=1 n=91 v=115
193780 Off ch=1 n=89 v=0
193780 Off ch=1 n=91 v=0
193792 On ch=1 n=86 v=111
193792 On ch=1 n=91 v=111
195072 Off ch=1 n=86 v=0
195072 Off ch=1 n=91 v=0
198656 On ch=1 n=65 v=38
199629 Off ch=1 n=65 v=0
199680 On ch=1 n=63 v=56
199911 Off ch=1 n=63 v=0
202240 On ch=1 n=78 v=65
202240 On ch=1 n=84 v=65
202701 Off ch=1 n=78 v=0
202701 Off ch=1 n=84 v=0
202752 On ch=1 n=79 v=90
202752 On ch=1 n=83 v=90
202983 Off ch=1 n=79 v=0
202983 Off ch=1 n=83 v=0
212736 On ch=1 n=84 v=106
212967 Off ch=1 n=84 v=0
213248 On ch=1 n=84 v=101
213479 Off ch=1 n=84 v=0
213760 On ch=1 n=84 v=102
213991 Off ch=1 n=84 v=0
214272 On ch=1 n=84 v=99
214503 Off ch=1 n=84 v=0
214784 On ch=1 n=83 v=101
214784 On ch=1 n=86 v=101
215015 Off ch=1 n=83 v=0
215015 Off ch=1 n=86 v=0
215296 On ch=1 n=84 v=87
215296 On ch=1 n=87 v=87
217293 Off ch=1 n=84 v=0
217293 Off ch=1 n=87 v=0
217344 On ch=1 n=86 v=104
217344 On ch=1 n=89 v=104
219111 Off ch=1 n=86 v=0
219111 Off ch=1 n=89 v=0
219136 On ch=1 n=84 v=89
219136 On ch=1 n=87 v=89
219367 Off ch=1 n=84 v=0
219367 Off ch=1 n=87 v=0
219392 On ch=1 n=84 v=121
219392 On ch=1 n=90 v=121
221389 Off ch=1 n=84 v=0
221389 Off ch=1 n=90 v=0
221440 On ch=1 n=84 v=114
221440 On ch=1 n=90 v=114
221671 Off ch=1 n=84 v=0
221671 Off ch=1 n=90 v=0
222464 On ch=1 n=79 v=99
222464 On ch=1 n=91 v=99
222695 Off ch=1 n=79 v=0
222695 Off ch=1 n=91 v=0
227072 On ch=1 n=79 v=76
227328 On ch=1 n=84 v=83
227333 Off ch=1 n=79 v=0
227584 On ch=1 n=83 v=81
227589 Off ch=1 n=84 v=0
227840 On ch=1 n=84 v=85
227845 Off ch=1 n=83 v=0
228096 On ch=1 n=86 v=89
228101 Off ch=1 n=84 v=0
228352 On ch=1 n=81 v=77
228357 Off ch=1 n=86 v=0
228595 Off ch=1 n=81 v=0
228608 On ch=1 n=81 v=78
228864 On ch=1 n=79 v=69
228869 Off ch=1 n=81 v=0
229107 Off ch=1 n=79 v=0
231168 On ch=1 n=79 v=84
231424 On ch=1 n=84 v=98
231429 Off ch=1 n=79 v=0
231680 On ch=1 n=83 v=85
231685 Off ch=1 n=84 v=0
231936 On ch=1 n=84 v=86
231941 Off ch=1 n=83 v=0
232192 On ch=1 n=86 v=89
232197 Off ch=1 n=84 v=0
232448 On ch=1 n=81 v=77
232453 Off ch=1 n=86 v=0
232691 Off ch=1 n=81 v=0
232704 On ch=1 n=81 v=82
232960 On ch=1 n=79 v=75
232965 Off ch=1 n=81 v=0
233203 Off ch=1 n=79 v=0
234240 On ch=1 n=82 v=92
234496 On ch=1 n=84 v=101
234501 Off ch=1 n=82 v=0
234752 On ch=1 n=82 v=78
234757 Off ch=1 n=84 v=0
235008 On ch=1 n=81 v=70
235013 Off ch=1 n=82 v=0
235251 Off ch=1 n=81 v=0
236288 On ch=1 n=84 v=90
236544 On ch=1 n=86 v=92
236549 Off ch=1 n=84 v=0
236800 On ch=1 n=84 v=76
236805 Off ch=1 n=86 v=0
237056 On ch=1 n=83 v=71
237061 Off ch=1 n=84 v=0
237299 Off ch=1 n=83 v=0
240896 On ch=1 n=92 v=102
241152 On ch=1 n=91 v=102
241157 Off ch=1 n=92 v=0
241408 On ch=1 n=90 v=79
241413 Off ch=1 n=91 v=0
241664 On ch=1 n=91 v=73
241669 Off ch=1 n=90 v=0
241907 Off ch=1 n=91 v=0
241920 On ch=1 n=93 v=76
242176 On ch=1 n=91 v=70
242181 Off ch=1 n=93 v=0
242432 On ch=1 n=90 v=67
242437 Off ch=1 n=91 v=0
242688 On ch=1 n=91 v=68
242693 Off ch=1 n=90 v=0
242931 Off ch=1 n=91 v=0
242944 On ch=1 n=93 v=90
243200 On ch=1 n=91 v=87
243205 Off ch=1 n=93 v=0
243456 On ch=1 n=90 v=81
243461 Off ch=1 n=91 v=0
243712 On ch=1 n=91 v=82
243717 Off ch=1 n=90 v=0
243968 On ch=1 n=90 v=98
243973 Off ch=1 n=91 v=0
244224 On ch=1 n=91 v=99
244229 Off ch=1 n=90 v=0
244480 On ch=1 n=90 v=96
244485 Off ch=1 n=91 v=0
244736 On ch=1 n=91 v=99
244741 Off ch=1 n=90 v=0
244979 Off ch=1 n=91 v=0
244992 On ch=1 n=89 v=112
244992 On ch=1 n=91 v=112
245735 Off ch=1 n=89 v=0
245735 Off ch=1 n=91 v=0
245760 On ch=1 n=89 v=116
245760 On ch=1 n=91 v=116
245991 Off ch=1 n=89 v=0
245991 Off ch=1 n=91 v=0
246016 On ch=1 n=88 v=111
246016 On ch=1 n=91 v=111
246247 Off ch=1 n=88 v=0
246247 Off ch=1 n=91 v=0
246528 On ch=1 n=83 v=100
246528 On ch=1 n=91 v=100
246759 Off ch=1 n=83 v=0
246759 Off ch=1 n=91 v=0
247040 On ch=1 n=84 v=100
247040 On ch=1 n=91 v=100
247271 Off ch=1 n=84 v=0
247271 Off ch=1 n=91 v=0
247552 On ch=1 n=84 v=98
247552 On ch=1 n=93 v=98
247783 Off ch=1 n=84 v=0
247783 Off ch=1 n=93 v=0
248064 On ch=1 n=88 v=99
248064 On ch=1 n=91 v=99
248295 Off ch=1 n=88 v=0
248295 Off ch=1 n=91 v=0
248576 On ch=1 n=91 v=103
248576 On ch=1 n=83 v=102
248704 On ch=1 n=90 v=97
248706 Off ch=1 n=91 v=0
248819 Off ch=1 n=83 v=0
248832 On ch=1 n=91 v=115
248834 Off ch=1 n=90 v=0
248960 On ch=1 n=90 v=107
248962 Off ch=1 n=91 v=0
249081 Off ch=1 n=90 v=0
249088 On ch=1 n=89 v=119
249088 On ch=1 n=91 v=119
250061 Off ch=1 n=89 v=0
250061 Off ch=1 n=91 v=0
250112 On ch=1 n=88 v=115
250112 On ch=1 n=91 v=115
250343 Off ch=1 n=88 v=0
250343 Off ch=1 n=91 v=0
250368 On ch=1 n=88 v=117
250368 On ch=1 n=91 v=117
250599 Off ch=1 n=88 v=0
250599 Off ch=1 n=91 v=0
250880 On ch=1 n=83 v=103
250880 On ch=1 n=91 v=103
251111 Off ch=1 n=83 v=0
251111 Off ch=1 n=91 v=0
251392 On ch=1 n=84 v=97
251392 On ch=1 n=91 v=97
251623 Off ch=1 n=84 v=0
251623 Off ch=1 n=91 v=0
251904 On ch=1 n=86 v=98
251904 On ch=1 n=89 v=98
252135 Off ch=1 n=86 v=0
252135 Off ch=1 n=89 v=0
252416 On ch=1 n=88 v=100
252416 On ch=1 n=91 v=100
252647 Off ch=1 n=88 v=0
252647 Off ch=1 n=91 v=0
252928 On ch=1 n=86 v=103
252928 On ch=1 n=91 v=103
253159 Off ch=1 n=86 v=0
253159 Off ch=1 n=91 v=0
253184 On ch=1 n=84 v=90
253300 Off ch=1 n=84 v=0
253312 On ch=1 n=88 v=122
253428 Off ch=1 n=88 v=0
253440 On ch=1 n=88 v=116
253556 Off ch=1 n=88 v=0
253568 On ch=1 n=88 v=115
253684 Off ch=1 n=88 v=0
253696 On ch=1 n=84 v=104
253812 Off ch=1 n=84 v=0
253824 On ch=1 n=79 v=97
253940 Off ch=1 n=79 v=0
253952 On ch=1 n=79 v=116
254068 Off ch=1 n=79 v=0
254080 On ch=1 n=79 v=113
254196 Off ch=1 n=79 v=0
254208 On ch=1 n=76 v=101
254324 Off ch=1 n=76 v=0
254336 On ch=1 n=72 v=98
254452 Off ch=1 n=72 v=0
254464 On ch=1 n=72 v=109
254580 Off ch=1 n=72 v=0
254592 On ch=1 n=72 v=110
254708 Off ch=1 n=72 v=0
254720 On ch=1 n=67 v=95
255348 Off ch=1 n=67 v=0
255360 On ch=1 n=88 v=127
255476 Off ch=1 n=88 v=0
255488 On ch=1 n=88 v=119
255604 Off ch=1 n=88 v=0
255616 On ch=1 n=88 v=120
255732 Off ch=1 n=88 v=0
255744 On ch=1 n=84 v=103
255860 Off ch=1 n=84 v=0
255872 On ch=1 n=79 v=96
255988 Off ch=1 n=79 v=0
256000 On ch=1 n=79 v=115
256116 Off ch=1 n=79 v=0
256128 On ch=1 n=79 v=110
256244 Off ch=1 n=79 v=0
256256 On ch=1 n=76 v=100
256372 Off ch=1 n=76 v=0
256384 On ch=1 n=72 v=101
256500 Off ch=1 n=72 v=0
256512 On ch=1 n=72 v=110
256628 Off ch=1 n=72 v=0
256640 On ch=1 n=72 v=116
256756 Off ch=1 n=72 v=0
256768 On ch=1 n=67 v=99
256884 Off ch=1 n=67 v=0
256896 On ch=1 n=74 v=127
256896 On ch=1 n=79 v=127
257012 Off ch=1 n=74 v=0
257012 Off ch=1 n=79 v=0
257024 On ch=1 n=74 v=118
257024 On ch=1 n=79 v=118
257140 Off ch=1 n=74 v=0
257140 Off ch=1 n=79 v=0
257152 On ch=1 n=74 v=111
257152 On ch=1 n=79 v=111
257268 Off ch=1 n=74 v=0
257268 Off ch=1 n=79 v=0
257280 On ch=1 n=76 v=112
257280 On ch=1 n=79 v=112
257511 Off ch=1 n=76 v=0
257511 Off ch=1 n=79 v=0
257920 On ch=1 n=74 v=99
257920 On ch=1 n=79 v=99
258036 Off ch=1 n=74 v=0
258036 Off ch=1 n=79 v=0
258048 On ch=1 n=74 v=110
258048 On ch=1 n=79 v=110
258164 Off ch=1 n=74 v=0
258164 Off ch=1 n=79 v=0
258176 On ch=1 n=74 v=115
258176 On ch=1 n=79 v=115
258292 Off ch=1 n=74 v=0
258292 Off ch=1 n=79 v=0
258304 On ch=1 n=76 v=111
258304 On ch=1 n=79 v=111
258535 Off ch=1 n=76 v=0
258535 Off ch=1 n=79 v=0
258944 On ch=1 n=74 v=104
258944 On ch=1 n=83 v=104
259060 Off ch=1 n=74 v=0
259060 Off ch=1 n=83 v=0
259072 On ch=1 n=74 v=114
259072 On ch=1 n=83 v=114
259188 Off ch=1 n=74 v=0
259188 Off ch=1 n=83 v=0
259200 On ch=1 n=74 v=113
259200 On ch=1 n=83 v=113
259316 Off ch=1 n=74 v=0
259316 Off ch=1 n=83 v=0
259328 On ch=1 n=76 v=116
259328 On ch=1 n=84 v=116
259444 Off ch=1 n=76 v=0
259444 Off ch=1 n=84 v=0
259456 On ch=1 n=72 v=113
259456 On ch=1 n=84 v=113
259572 Off ch=1 n=72 v=0
259572 Off ch=1 n=84 v=0
259584 On ch=1 n=72 v=111
259584 On ch=1 n=84 v=111
259700 Off ch=1 n=72 v=0
259700 Off ch=1 n=84 v=0
259712 On ch=1 n=72 v=109
259712 On ch=1 n=84 v=109
259828 Off ch=1 n=72 v=0
259828 Off ch=1 n=84 v=0
259840 On ch=1 n=72 v=110
259840 On ch=1 n=84 v=110
260468 Off ch=1 n=72 v=0
260468 Off ch=1 n=84 v=0
260480 On ch=1 n=72 v=112
260480 On ch=1 n=84 v=112
260596 Off ch=1 n=72 v=0
260596 Off ch=1 n=84 v=0
260608 On ch=1 n=72 v=115
260608 On ch=1 n=84 v=115
260724 Off ch=1 n=72 v=0
260724 Off ch=1 n=84 v=0
260736 On ch=1 n=72 v=112
260736 On ch=1 n=84 v=112
260852 Off ch=1 n=72 v=0
260852 Off ch=1 n=84 v=0
260864 On ch=1 n=72 v=112
260864 On ch=1 n=84 v=112
261492 Off ch=1 n=72 v=0
261492 Off ch=1 n=84 v=0
261504 On ch=1 n=72 v=114
261504 On ch=1 n=84 v=114
261620 Off ch=1 n=72 v=0
261620 Off ch=1 n=84 v=0
261632 On ch=1 n=72 v=112
261632 On ch=1 n=84 v=112
261748 Off ch=1 n=72 v=0
261748 Off ch=1 n=84 v=0
261760 On ch=1 n=72 v=115
261760 On ch=1 n=84 v=115
261876 Off ch=1 n=72 v=0
261876 Off ch=1 n=84 v=0
261888 On ch=1 n=72 v=112
261888 On ch=1 n=84 v=112
262516 Off ch=1 n=72 v=0
262516 Off ch=1 n=84 v=0
262528 On ch=1 n=72 v=111
262528 On ch=1 n=84 v=111
262644 Off ch=1 n=72 v=0
262644 Off ch=1 n=84 v=0
262656 On ch=1 n=72 v=111
262656 On ch=1 n=84 v=111
262772 Off ch=1 n=72 v=0
262772 Off ch=1 n=84 v=0
262784 On ch=1 n=72 v=110
262784 On ch=1 n=84 v=110
262900 Off ch=1 n=72 v=0
262900 Off ch=1 n=84 v=0
262912 On ch=1 n=72 v=113
262912 On ch=1 n=84 v=113
263373 Off ch=1 n=72 v=0
263373 Off ch=1 n=84 v=0
263424 On ch=1 n=80 v=120
263424 On ch=1 n=85 v=120
265421 Off ch=1 n=80 v=0
265421 Off ch=1 n=85 v=0
265472 On ch=1 n=80 v=115
265472 On ch=1 n=85 v=115
265703 Off ch=1 n=80 v=0
265703 Off ch=1 n=85 v=0
267648 On ch=1 n=84 v=100
267648 On ch=1 n=87 v=100
267764 Off ch=1 n=84 v=0
267764 Off ch=1 n=87 v=0
267776 On ch=1 n=84 v=112
267776 On ch=1 n=87 v=112
267892 Off ch=1 n=84 v=0
267892 Off ch=1 n=87 v=0
267904 On ch=1 n=84 v=109
267904 On ch=1 n=87 v=109
268020 Off ch=1 n=84 v=0
268020 Off ch=1 n=87 v=0
268032 On ch=1 n=84 v=113
268032 On ch=1 n=87 v=113
270029 Off ch=1 n=84 v=0
270029 Off ch=1 n=87 v=0
270080 On ch=1 n=84 v=112
270080 On ch=1 n=87 v=112
270311 Off ch=1 n=84 v=0
270311 Off ch=1 n=87 v=0
270720 On ch=1 n=84 v=98
270836 Off ch=1 n=84 v=0
270848 On ch=1 n=84 v=108
270964 Off ch=1 n=84 v=0
270976 On ch=1 n=84 v=113
271092 Off ch=1 n=84 v=0
271104 On ch=1 n=87 v=123
271335 Off ch=1 n=87 v=0
273152 On ch=1 n=83 v=88
273152 On ch=1 n=89 v=88
274125 Off ch=1 n=83 v=0
274125 Off ch=1 n=89 v=0
275200 On ch=1 n=83 v=96
275200 On ch=1 n=89 v=96
276173 Off ch=1 n=83 v=0
276173 Off ch=1 n=89 v=0
277248 On ch=1 n=87 v=90
277479 Off ch=1 n=87 v=0
277504 On ch=1 n=89 v=108
277735 Off ch=1 n=89 v=0
277760 On ch=1 n=86 v=94
277991 Off ch=1 n=86 v=0
278016 On ch=1 n=87 v=102
278247 Off ch=1 n=87 v=0
278272 On ch=1 n=84 v=87
278503 Off ch=1 n=84 v=0
278528 On ch=1 n=86 v=98
278759 Off ch=1 n=86 v=0
278784 On ch=1 n=82 v=90
279015 Off ch=1 n=82 v=0
279040 On ch=1 n=84 v=103
279271 Off ch=1 n=84 v=0
279296 On ch=1 n=80 v=88
279527 Off ch=1 n=80 v=0
279552 On ch=1 n=82 v=105
279783 Off ch=1 n=82 v=0
279808 On ch=1 n=79 v=88
280039 Off ch=1 n=79 v=0
280064 On ch=1 n=80 v=105
280295 Off ch=1 n=80 v=0
280320 On ch=1 n=77 v=92
280551 Off ch=1 n=77 v=0
280576 On ch=1 n=79 v=105
280807 Off ch=1 n=79 v=0
280832 On ch=1 n=79 v=101
281063 Off ch=1 n=79 v=0
281088 On ch=1 n=79 v=101
281319 Off ch=1 n=79 v=0
281344 On ch=1 n=79 v=97
281575 Off ch=1 n=79 v=0
281600 On ch=1 n=79 v=98
281831 Off ch=1 n=79 v=0
281856 On ch=1 n=79 v=95
282087 Off ch=1 n=79 v=0
282112 On ch=1 n=84 v=109
282343 Off ch=1 n=84 v=0
282368 On ch=1 n=84 v=98
282599 Off ch=1 n=84 v=0
282624 On ch=1 n=84 v=98
282855 Off ch=1 n=84 v=0
282880 On ch=1 n=84 v=103
283111 Off ch=1 n=84 v=0
283136 On ch=1 n=83 v=109
283136 On ch=1 n=89 v=109
283367 Off ch=1 n=83 v=0
283367 Off ch=1 n=89 v=0
283392 On ch=1 n=84 v=102
283392 On ch=1 n=89 v=102
283623 Off ch=1 n=84 v=0
283623 Off ch=1 n=89 v=0
283648 On ch=1 n=83 v=92
283648 On ch=1 n=89 v=92
283879 Off ch=1 n=83 v=0
283879 Off ch=1 n=89 v=0
283904 On ch=1 n=84 v=101
283904 On ch=1 n=89 v=101
284135 Off ch=1 n=84 v=0
284135 Off ch=1 n=89 v=0
284160 On ch=1 n=86 v=98
284160 On ch=1 n=89 v=98
284391 Off ch=1 n=86 v=0
284391 Off ch=1 n=89 v=0
284416 On ch=1 n=84 v=89
284416 On ch=1 n=87 v=89
285389 Off ch=1 n=84 v=0
285389 Off ch=1 n=87 v=0
285440 On ch=1 n=84 v=102
285440 On ch=1 n=89 v=102
286413 Off ch=1 n=84 v=0
286413 Off ch=1 n=89 v=0
286464 On ch=1 n=84 v=103
286464 On ch=1 n=91 v=103
287437 Off ch=1 n=84 v=0
287437 Off ch=1 n=91 v=0
287488 On ch=1 n=84 v=92
287488 On ch=1 n=89 v=92
288461 Off ch=1 n=84 v=0
288461 Off ch=1 n=89 v=0
288512 On ch=1 n=86 v=102
288512 On ch=1 n=89 v=102
288973 Off ch=1 n=86 v=0
288973 Off ch=1 n=89 v=0
289024 On ch=1 n=86 v=107
289024 On ch=1 n=91 v=107
289485 Off ch=1 n=86 v=0
289485 Off ch=1 n=91 v=0
289536 On ch=1 n=87 v=101
289536 On ch=1 n=91 v=101
289651 Off ch=1 n=87 v=0
289651 Off ch=1 n=91 v=0
290048 On ch=1 n=87 v=90
290048 On ch=1 n=92 v=90
290163 Off ch=1 n=87 v=0
290163 Off ch=1 n=92 v=0
290560 On ch=1 n=86 v=90
290560 On ch=1 n=92 v=90
290675 Off ch=1 n=86 v=0
290675 Off ch=1 n=92 v=0
291072 On ch=1 n=86 v=89
291072 On ch=1 n=92 v=89
291187 Off ch=1 n=86 v=0
291187 Off ch=1 n=92 v=0
291584 On ch=1 n=86 v=87
291584 On ch=1 n=91 v=87
291699 Off ch=1 n=86 v=0
291699 Off ch=1 n=91 v=0
292096 On ch=1 n=86 v=89
292096 On ch=1 n=91 v=89
292211 Off ch=1 n=86 v=0
292211 Off ch=1 n=91 v=0
292608 On ch=1 n=84 v=86
293069 Off ch=1 n=84 v=0
293120 On ch=1 n=86 v=103
293235 Off ch=1 n=86 v=0
293376 On ch=1 n=87 v=101
293491 Off ch=1 n=87 v=0
293632 On ch=1 n=89 v=106
293888 On ch=1 n=86 v=104
293893 Off ch=1 n=89 v=0
294131 Off ch=1 n=86 v=0
295168 On ch=1 n=77 v=106
295168 On ch=1 n=89 v=106
295283 Off ch=1 n=77 v=0
295283 Off ch=1 n=89 v=0
295424 On ch=1 n=79 v=107
295424 On ch=1 n=91 v=107
295539 Off ch=1 n=79 v=0
295539 Off ch=1 n=91 v=0
295680 On ch=1 n=80 v=101
295680 On ch=1 n=92 v=101
295936 On ch=1 n=77 v=94
295936 On ch=1 n=89 v=94
295941 Off ch=1 n=80 v=0
295941 Off ch=1 n=92 v=0
296179 Off ch=1 n=77 v=0
296179 Off ch=1 n=89 v=0
297216 On ch=1 n=81 v=83
297216 On ch=1 n=84 v=83
297331 Off ch=1 n=81 v=0
297331 Off ch=1 n=84 v=0
297472 On ch=1 n=83 v=102
297472 On ch=1 n=86 v=102
297587 Off ch=1 n=83 v=0
297587 Off ch=1 n=86 v=0
297728 On ch=1 n=84 v=99
297728 On ch=1 n=87 v=99
297984 Off ch=1 n=84 v=0
297984 On ch=1 n=79 v=89
297984 On ch=1 n=84 v=89
297989 Off ch=1 n=87 v=0
298227 Off ch=1 n=79 v=0
298227 Off ch=1 n=84 v=0
299264 On ch=1 n=81 v=99
299264 On ch=1 n=84 v=99
299379 Off ch=1 n=81 v=0
299379 Off ch=1 n=84 v=0
299520 On ch=1 n=83 v=104
299520 On ch=1 n=86 v=104
299635 Off ch=1 n=83 v=0
299635 Off ch=1 n=86 v=0
299776 On ch=1 n=84 v=100
299776 On ch=1 n=87 v=100
300032 On ch=1 n=82 v=92
300032 On ch=1 n=86 v=92
300037 Off ch=1 n=84 v=0
300037 Off ch=1 n=87 v=0
300288 On ch=1 n=80 v=93
300288 On ch=1 n=84 v=93
300293 Off ch=1 n=82 v=0
300293 Off ch=1 n=86 v=0
300544 On ch=1 n=79 v=90
300544 On ch=1 n=82 v=90
300549 Off ch=1 n=80 v=0
300549 Off ch=1 n=84 v=0
300800 On ch=1 n=77 v=91
300800 On ch=1 n=80 v=91
300805 Off ch=1 n=79 v=0
300805 Off ch=1 n=82 v=0
301056 On ch=1 n=75 v=85
301056 On ch=1 n=79 v=85
301061 Off ch=1 n=77 v=0
301061 Off ch=1 n=80 v=0
301299 Off ch=1 n=75 v=0
301299 Off ch=1 n=79 v=0
301824 On ch=1 n=77 v=115
301824 On ch=1 n=80 v=115
302080 On ch=1 n=75 v=106
302080 On ch=1 n=79 v=106
302085 Off ch=1 n=77 v=0
302085 Off ch=1 n=80 v=0
302323 Off ch=1 n=75 v=0
302323 Off ch=1 n=79 v=0
302336 On ch=1 n=89 v=124
302336 On ch=1 n=92 v=124
302592 On ch=1 n=87 v=125
302592 On ch=1 n=91 v=125
302597 Off ch=1 n=89 v=0
302597 Off ch=1 n=92 v=0
302835 Off ch=1 n=87 v=0
302835 Off ch=1 n=91 v=0
303104 On ch=1 n=84 v=90
303104 On ch=1 n=91 v=90
303335 Off ch=1 n=84 v=0
303335 Off ch=1 n=91 v=0
303616 On ch=1 n=86 v=84
303616 On ch=1 n=91 v=84
303847 Off ch=1 n=86 v=0
303847 Off ch=1 n=91 v=0
305408 On ch=1 n=80 v=70
305664 On ch=1 n=79 v=62
305669 Off ch=1 n=80 v=0
305907 Off ch=1 n=79 v=0
306432 On ch=1 n=89 v=122
306432 On ch=1 n=92 v=122
306688 On ch=1 n=87 v=121
306688 On ch=1 n=91 v=121
306693 Off ch=1 n=89 v=0
306693 Off ch=1 n=92 v=0
306931 Off ch=1 n=87 v=0
306931 Off ch=1 n=91 v=0
307200 On ch=1 n=87 v=86
307200 On ch=1 n=91 v=86
307431 Off ch=1 n=87 v=0
307431 Off ch=1 n=91 v=0
307712 On ch=1 n=86 v=86
307712 On ch=1 n=91 v=86
307943 Off ch=1 n=86 v=0
307943 Off ch=1 n=91 v=0
307968 On ch=1 n=84 v=79
308199 Off ch=1 n=84 v=0
308608 On ch=1 n=86 v=87
308608 On ch=1 n=91 v=87
308724 Off ch=1 n=86 v=0
308724 Off ch=1 n=91 v=0
308736 On ch=1 n=86 v=98
308736 On ch=1 n=91 v=98
308852 Off ch=1 n=86 v=0
308852 Off ch=1 n=91 v=0
308864 On ch=1 n=86 v=97
308864 On ch=1 n=91 v=97
308980 Off ch=1 n=86 v=0
308980 Off ch=1 n=91 v=0
308992 On ch=1 n=91 v=99
308992 On ch=1 n=86 v=124
309735 Off ch=1 n=86 v=0
309760 On ch=1 n=87 v=119
310016 On ch=1 n=89 v=127
310021 Off ch=1 n=87 v=0
310272 On ch=1 n=86 v=104
310277 Off ch=1 n=89 v=0
310528 On ch=1 n=87 v=108
310533 Off ch=1 n=86 v=0
310784 On ch=1 n=89 v=120
310789 Off ch=1 n=87 v=0
310989 Off ch=1 n=91 v=0
311027 Off ch=1 n=89 v=0
311040 On ch=1 n=87 v=99
311040 On ch=1 n=91 v=99
311271 Off ch=1 n=87 v=0
311271 Off ch=1 n=91 v=0
311680 On ch=1 n=79 v=89
311680 On ch=1 n=91 v=89
311796 Off ch=1 n=79 v=0
311796 Off ch=1 n=91 v=0
311808 On ch=1 n=79 v=93
311808 On ch=1 n=91 v=93
311924 Off ch=1 n=79 v=0
311924 Off ch=1 n=91 v=0
311936 On ch=1 n=79 v=98
311936 On ch=1 n=91 v=98
312052 Off ch=1 n=79 v=0
312052 Off ch=1 n=91 v=0
312064 On ch=1 n=79 v=99
312064 On ch=1 n=91 v=99
312180 Off ch=1 n=79 v=0
312180 Off ch=1 n=91 v=0
312192 On ch=1 n=79 v=98
312192 On ch=1 n=91 v=98
312308 Off ch=1 n=79 v=0
312308 Off ch=1 n=91 v=0
312320 On ch=1 n=79 v=99
312320 On ch=1 n=91 v=99
312436 Off ch=1 n=79 v=0
312436 Off ch=1 n=91 v=0
312448 On ch=1 n=79 v=98
312448 On ch=1 n=91 v=98
312564 Off ch=1 n=79 v=0
312564 Off ch=1 n=91 v=0
312576 On ch=1 n=79 v=98
312576 On ch=1 n=91 v=98
312692 Off ch=1 n=79 v=0
312692 Off ch=1 n=91 v=0
312704 On ch=1 n=79 v=95
312704 On ch=1 n=91 v=95
312820 Off ch=1 n=79 v=0
312820 Off ch=1 n=91 v=0
312832 On ch=1 n=79 v=99
312832 On ch=1 n=91 v=99
312948 Off ch=1 n=79 v=0
312948 Off ch=1 n=91 v=0
312960 On ch=1 n=79 v=99
312960 On ch=1 n=91 v=99
313076 Off ch=1 n=79 v=0
313076 Off ch=1 n=91 v=0
313088 On ch=1 n=87 v=116
313088 On ch=1 n=91 v=116
313856 Off ch=1 n=87 v=0
313856 Off ch=1 n=91 v=0
313984 On ch=1 n=89 v=102
313984 On ch=1 n=91 v=102
314100 Off ch=1 n=89 v=0
314100 Off ch=1 n=91 v=0
314112 On ch=1 n=89 v=113
314112 On ch=1 n=91 v=113
314228 Off ch=1 n=89 v=0
314228 Off ch=1 n=91 v=0
314240 On ch=1 n=89 v=113
314240 On ch=1 n=91 v=113
314356 Off ch=1 n=89 v=0
314356 Off ch=1 n=91 v=0
314368 On ch=1 n=86 v=110
314368 On ch=1 n=91 v=110
315648 Off ch=1 n=86 v=0
315648 Off ch=1 n=91 v=0
319872 On ch=1 n=83 v=97
319872 On ch=1 n=86 v=97
319988 Off ch=1 n=83 v=0
319988 Off ch=1 n=86 v=0
320000 On ch=1 n=83 v=110
320000 On ch=1 n=86 v=110
320116 Off ch=1 n=83 v=0
320116 Off ch=1 n=86 v=0
320128 On ch=1 n=83 v=108
320128 On ch=1 n=86 v=108
320244 Off ch=1 n=83 v=0
320244 Off ch=1 n=86 v=0
320256 On ch=1 n=84 v=114
320256 On ch=1 n=87 v=114
320487 Off ch=1 n=84 v=0
320487 Off ch=1 n=87 v=0
320896 On ch=1 n=83 v=99
320896 On ch=1 n=86 v=99
321012 Off ch=1 n=83 v=0
321012 Off ch=1 n=86 v=0
321024 On ch=1 n=83 v=112
321024 On ch=1 n=86 v=112
321140 Off ch=1 n=83 v=0
321140 Off ch=1 n=86 v=0
321152 On ch=1 n=83 v=112
321152 On ch=1 n=86 v=112
321268 Off ch=1 n=83 v=0
321268 Off ch=1 n=86 v=0
321280 On ch=1 n=84 v=121
321280 On ch=1 n=87 v=121
321511 Off ch=1 n=84 v=0
321511 Off ch=1 n=87 v=0
321920 On ch=1 n=83 v=104
321920 On ch=1 n=86 v=104
322036 Off ch=1 n=83 v=0
322036 Off ch=1 n=86 v=0
322048 On ch=1 n=83 v=109
322048 On ch=1 n=86 v=109
322164 Off ch=1 n=83 v=0
322164 Off ch=1 n=86 v=0
322176 On ch=1 n=83 v=112
322176 On ch=1 n=86 v=112
322292 Off ch=1 n=83 v=0
322292 Off ch=1 n=86 v=0
322304 On ch=1 n=84 v=119
322304 On ch=1 n=87 v=119
322535 Off ch=1 n=84 v=0
322535 Off ch=1 n=87 v=0
322560 On ch=1 n=86 v=125
322560 On ch=1 n=91 v=125
322791 Off ch=1 n=86 v=0
322791 Off ch=1 n=91 v=0
322816 On ch=1 n=87 v=116
322816 On ch=1 n=91 v=116
323047 Off ch=1 n=87 v=0
323047 Off ch=1 n=91 v=0
323072 On ch=1 n=86 v=117
323072 On ch=1 n=91 v=117
323303 Off ch=1 n=86 v=0
323303 Off ch=1 n=91 v=0
323328 On ch=1 n=87 v=115
323328 On ch=1 n=91 v=115
323559 Off ch=1 n=87 v=0
323559 Off ch=1 n=91 v=0
323584 On ch=1 n=86 v=111
323584 On ch=1 n=91 v=111
323815 Off ch=1 n=86 v=0
323815 Off ch=1 n=91 v=0
323840 On ch=1 n=87 v=116
323840 On ch=1 n=91 v=116
324071 Off ch=1 n=87 v=0
324071 Off ch=1 n=91 v=0
324096 On ch=1 n=86 v=119
324096 On ch=1 n=91 v=119
324327 Off ch=1 n=86 v=0
324327 Off ch=1 n=91 v=0
324352 On ch=1 n=87 v=113
324352 On ch=1 n=91 v=113
324583 Off ch=1 n=87 v=0
324583 Off ch=1 n=91 v=0
324864 On ch=1 n=79 v=98
324864 On ch=1 n=83 v=98
325095 Off ch=1 n=79 v=0
325095 Off ch=1 n=83 v=0
325376 On ch=1 n=79 v=102
325376 On ch=1 n=84 v=102
325607 Off ch=1 n=79 v=0
325607 Off ch=1 n=84 v=0
9344 On ch=2 n=74 v=56
9344 On ch=2 n=79 v=56
9460 Off ch=2 n=74 v=0
9460 Off ch=2 n=79 v=0
9472 On ch=2 n=74 v=65
9472 On ch=2 n=79 v=65
9588 Off ch=2 n=74 v=0
9588 Off ch=2 n=79 v=0
9600 On ch=2 n=74 v=73
9600 On ch=2 n=77 v=73
9716 Off ch=2 n=74 v=0
9716 Off ch=2 n=77 v=0
9728 On ch=2 n=72 v=92
9728 On ch=2 n=75 v=92
9959 Off ch=2 n=72 v=0
9959 Off ch=2 n=75 v=0
10240 On ch=2 n=72 v=82
10240 On ch=2 n=78 v=82
10471 Off ch=2 n=72 v=0
10471 Off ch=2 n=78 v=0
10752 On ch=2 n=71 v=90
10752 On ch=2 n=79 v=90
10983 Off ch=2 n=71 v=0
10983 Off ch=2 n=79 v=0
11520 On ch=2 n=80 v=84
11636 Off ch=2 n=80 v=0
11648 On ch=2 n=80 v=97
11764 Off ch=2 n=80 v=0
11776 On ch=2 n=80 v=98
11892 Off ch=2 n=80 v=0
11904 On ch=2 n=77 v=93
13184 Off ch=2 n=77 v=0
16896 On ch=2 n=77 v=56
17012 Off ch=2 n=77 v=0
17024 On ch=2 n=77 v=63
17140 Off ch=2 n=77 v=0
17152 On ch=2 n=77 v=58
17268 Off ch=2 n=77 v=0
17280 On ch=2 n=75 v=59
17511 Off ch=2 n=75 v=0
18816 On ch=2 n=75 v=54
18816 On ch=2 n=79 v=54
19559 Off ch=2 n=75 v=0
19559 Off ch=2 n=79 v=0
19840 On ch=2 n=77 v=69
19840 On ch=2 n=80 v=69
20071 Off ch=2 n=77 v=0
20071 Off ch=2 n=80 v=0
20352 On ch=2 n=76 v=68
20352 On ch=2 n=79 v=68
20583 Off ch=2 n=76 v=0
20583 Off ch=2 n=79 v=0
20864 On ch=2 n=77 v=64
20864 On ch=2 n=80 v=64
21095 Off ch=2 n=77 v=0
21095 Off ch=2 n=80 v=0
21376 On ch=2 n=79 v=63
21376 On ch=2 n=82 v=63
21607 Off ch=2 n=79 v=0
21607 Off ch=2 n=82 v=0
21888 On ch=2 n=77 v=66
21888 On ch=2 n=80 v=66
22119 Off ch=2 n=77 v=0
22119 Off ch=2 n=80 v=0
22400 On ch=2 n=77 v=56
22400 On ch=2 n=80 v=56
22631 Off ch=2 n=77 v=0
22631 Off ch=2 n=80 v=0
22912 On ch=2 n=75 v=89
22912 On ch=2 n=79 v=89
24909 Off ch=2 n=75 v=0
24909 Off ch=2 n=79 v=0
24960 On ch=2 n=77 v=97
24960 On ch=2 n=79 v=97
26727 Off ch=2 n=77 v=0
26727 Off ch=2 n=79 v=0
26752 On ch=2 n=75 v=99
26752 On ch=2 n=79 v=99
26983 Off ch=2 n=75 v=0
26983 Off ch=2 n=79 v=0
27008 On ch=2 n=75 v=107
27008 On ch=2 n=78 v=107
29005 Off ch=2 n=75 v=0
29005 Off ch=2 n=78 v=0
29056 On ch=2 n=75 v=113
29056 On ch=2 n=78 v=113
29287 Off ch=2 n=75 v=0
29287 Off ch=2 n=78 v=0
30080 On ch=2 n=70 v=102
30080 On ch=2 n=77 v=102
30311 Off ch=2 n=70 v=0
30311 Off ch=2 n=77 v=0
43392 On ch=2 n=84 v=55
44365 Off ch=2 n=84 v=0
44416 On ch=2 n=82 v=66
45389 Off ch=2 n=82 v=0
45440 On ch=2 n=81 v=81
47719 Off ch=2 n=81 v=0
47744 On ch=2 n=81 v=85
47975 Off ch=2 n=81 v=0
48000 On ch=2 n=81 v=94
48231 Off ch=2 n=81 v=0
48256 On ch=2 n=81 v=97
48487 Off ch=2 n=81 v=0
48512 On ch=2 n=77 v=111
48512 On ch=2 n=80 v=111
49255 Off ch=2 n=77 v=0
49255 Off ch=2 n=80 v=0
49280 On ch=2 n=77 v=113
49280 On ch=2 n=80 v=113
49511 Off ch=2 n=77 v=0
49511 Off ch=2 n=80 v=0
49536 On ch=2 n=75 v=116
49536 On ch=2 n=79 v=116
49767 Off ch=2 n=75 v=0
49767 Off ch=2 n=79 v=0
50048 On ch=2 n=80 v=103
50279 Off ch=2 n=80 v=0
50560 On ch=2 n=75 v=100
50560 On ch=2 n=82 v=100
50791 Off ch=2 n=75 v=0
50791 Off ch=2 n=82 v=0
51072 On ch=2 n=75 v=104
51072 On ch=2 n=84 v=104
51303 Off ch=2 n=75 v=0
51303 Off ch=2 n=84 v=0
51584 On ch=2 n=75 v=101
51584 On ch=2 n=79 v=101
51815 Off ch=2 n=75 v=0
51815 Off ch=2 n=79 v=0
52096 On ch=2 n=74 v=98
52096 On ch=2 n=77 v=98
52327 Off ch=2 n=74 v=0
52327 Off ch=2 n=77 v=0
52608 On ch=2 n=77 v=100
52608 On ch=2 n=80 v=100
53581 Off ch=2 n=77 v=0
53581 Off ch=2 n=80 v=0
53632 On ch=2 n=75 v=106
53632 On ch=2 n=79 v=106
53863 Off ch=2 n=75 v=0
53863 Off ch=2 n=79 v=0
53888 On ch=2 n=75 v=119
53888 On ch=2 n=79 v=119
54119 Off ch=2 n=75 v=0
54119 Off ch=2 n=79 v=0
54400 On ch=2 n=74 v=104
54400 On ch=2 n=77 v=104
54631 Off ch=2 n=74 v=0
54631 Off ch=2 n=77 v=0
54912 On ch=2 n=75 v=102
54912 On ch=2 n=79 v=102
55143 Off ch=2 n=75 v=0
55143 Off ch=2 n=79 v=0
55424 On ch=2 n=75 v=101
55424 On ch=2 n=77 v=101
55655 Off ch=2 n=75 v=0
55655 Off ch=2 n=77 v=0
55936 On ch=2 n=75 v=104
55936 On ch=2 n=79 v=104
56167 Off ch=2 n=75 v=0
56167 Off ch=2 n=79 v=0
56448 On ch=2 n=74 v=103
56448 On ch=2 n=77 v=103
56679 Off ch=2 n=74 v=0
56679 Off ch=2 n=77 v=0
56704 On ch=2 n=75 v=118
56704 On ch=2 n=79 v=118
56820 Off ch=2 n=75 v=0
56820 Off ch=2 n=79 v=0
56832 On ch=2 n=79 v=117
56948 Off ch=2 n=79 v=0
56960 On ch=2 n=79 v=113
57076 Off ch=2 n=79 v=0
57088 On ch=2 n=79 v=111
57204 Off ch=2 n=79 v=0
57216 On ch=2 n=75 v=101
57332 Off ch=2 n=75 v=0
57344 On ch=2 n=82 v=127
57460 Off ch=2 n=82 v=0
57472 On ch=2 n=82 v=116
57588 Off ch=2 n=82 v=0
57600 On ch=2 n=82 v=111
57716 Off ch=2 n=82 v=0
57728 On ch=2 n=79 v=103
57844 Off ch=2 n=79 v=0
57856 On ch=2 n=75 v=103
57972 Off ch=2 n=75 v=0
57984 On ch=2 n=75 v=104
58100 Off ch=2 n=75 v=0
58112 On ch=2 n=75 v=115
58228 Off ch=2 n=75 v=0
58240 On ch=2 n=70 v=103
58868 Off ch=2 n=70 v=0
58880 On ch=2 n=79 v=127
58996 Off ch=2 n=79 v=0
59008 On ch=2 n=79 v=120
59124 Off ch=2 n=79 v=0
59136 On ch=2 n=79 v=112
59252 Off ch=2 n=79 v=0
59264 On ch=2 n=75 v=99
59380 Off ch=2 n=75 v=0
59392 On ch=2 n=82 v=127
59508 Off ch=2 n=82 v=0
59520 On ch=2 n=82 v=114
59636 Off ch=2 n=82 v=0
59648 On ch=2 n=82 v=115
59764 Off ch=2 n=82 v=0
59776 On ch=2 n=79 v=103
59892 Off ch=2 n=79 v=0
59904 On ch=2 n=75 v=95
60020 Off ch=2 n=75 v=0
60032 On ch=2 n=75 v=111
60148 Off ch=2 n=75 v=0
60160 On ch=2 n=75 v=114
60276 Off ch=2 n=75 v=0
60288 On ch=2 n=70 v=103
61031 Off ch=2 n=70 v=0
61440 On ch=2 n=74 v=100
61440 On ch=2 n=77 v=100
61556 Off ch=2 n=74 v=0
61556 Off ch=2 n=77 v=0
61568 On ch=2 n=74 v=111
61568 On ch=2 n=77 v=111
61684 Off ch=2 n=74 v=0
61684 Off ch=2 n=77 v=0
61696 On ch=2 n=74 v=113
61696 On ch=2 n=77 v=113
61812 Off ch=2 n=74 v=0
61812 Off ch=2 n=77 v=0
61824 On ch=2 n=75 v=117
61824 On ch=2 n=79 v=117
62055 Off ch=2 n=75 v=0
62055 Off ch=2 n=79 v=0
62464 On ch=2 n=77 v=100
62464 On ch=2 n=82 v=100
62580 Off ch=2 n=77 v=0
62580 Off ch=2 n=82 v=0
62592 On ch=2 n=77 v=110
62592 On ch=2 n=82 v=110
62708 Off ch=2 n=77 v=0
62708 Off ch=2 n=82 v=0
62720 On ch=2 n=77 v=109
62720 On ch=2 n=82 v=109
62836 Off ch=2 n=77 v=0
62836 Off ch=2 n=82 v=0
62848 On ch=2 n=75 v=101
62848 On ch=2 n=79 v=101
63079 Off ch=2 n=75 v=0
63079 Off ch=2 n=79 v=0
73728 On ch=2 n=74 v=55
73728 On ch=2 n=79 v=55
73844 Off ch=2 n=74 v=0
73844 Off ch=2 n=79 v=0
73856 On ch=2 n=74 v=68
73856 On ch=2 n=79 v=68
73972 Off ch=2 n=74 v=0
73972 Off ch=2 n=79 v=0
73984 On ch=2 n=74 v=77
73984 On ch=2 n=77 v=77
74100 Off ch=2 n=74 v=0
74100 Off ch=2 n=77 v=0
74112 On ch=2 n=72 v=88
74112 On ch=2 n=75 v=88
74343 Off ch=2 n=72 v=0
74343 Off ch=2 n=75 v=0
74624 On ch=2 n=72 v=89
74624 On ch=2 n=78 v=89
74855 Off ch=2 n=72 v=0
74855 Off ch=2 n=78 v=0
75136 On ch=2 n=71 v=87
75136 On ch=2 n=79 v=87
75367 Off ch=2 n=71 v=0
75367 Off ch=2 n=79 v=0
75904 On ch=2 n=80 v=86
76020 Off ch=2 n=80 v=0
76032 On ch=2 n=80 v=95
76148 Off ch=2 n=80 v=0
76160 On ch=2 n=80 v=102
76276 Off ch=2 n=80 v=0
76288 On ch=2 n=77 v=95
77568 Off ch=2 n=77 v=0
81280 On ch=2 n=77 v=55
81396 Off ch=2 n=77 v=0
81408 On ch=2 n=77 v=58
81524 Off ch=2 n=77 v=0
81536 On ch=2 n=77 v=58
81652 Off ch=2 n=77 v=0
81664 On ch=2 n=75 v=55
81895 Off ch=2 n=75 v=0
83200 On ch=2 n=75 v=55
83200 On ch=2 n=79 v=55
83943 Off ch=2 n=75 v=0
83943 Off ch=2 n=79 v=0
84224 On ch=2 n=77 v=62
84224 On ch=2 n=80 v=62
84455 Off ch=2 n=77 v=0
84455 Off ch=2 n=80 v=0
84736 On ch=2 n=76 v=63
84736 On ch=2 n=79 v=63
84967 Off ch=2 n=76 v=0
84967 Off ch=2 n=79 v=0
85248 On ch=2 n=77 v=63
85248 On ch=2 n=80 v=63
85479 Off ch=2 n=77 v=0
85479 Off ch=2 n=80 v=0
85760 On ch=2 n=79 v=60
85760 On ch=2 n=82 v=60
85991 Off ch=2 n=79 v=0
85991 Off ch=2 n=82 v=0
86272 On ch=2 n=77 v=61
86272 On ch=2 n=80 v=61
86503 Off ch=2 n=77 v=0
86503 Off ch=2 n=80 v=0
86784 On ch=2 n=77 v=66
86784 On ch=2 n=80 v=66
87015 Off ch=2 n=77 v=0
87015 Off ch=2 n=80 v=0
87296 On ch=2 n=75 v=87
87296 On ch=2 n=79 v=87
89293 Off ch=2 n=75 v=0
89293 Off ch=2 n=79 v=0
89344 On ch=2 n=77 v=97
89344 On ch=2 n=79 v=97
91111 Off ch=2 n=77 v=0
91111 Off ch=2 n=79 v=0
91136 On ch=2 n=75 v=94
91136 On ch=2 n=79 v=94
91367 Off ch=2 n=75 v=0
91367 Off ch=2 n=79 v=0
91392 On ch=2 n=75 v=103
91392 On ch=2 n=78 v=103
93389 Off ch=2 n=75 v=0
93389 Off ch=2 n=78 v=0
93440 On ch=2 n=75 v=114
93440 On ch=2 n=78 v=114
93671 Off ch=2 n=75 v=0
93671 Off ch=2 n=78 v=0
94464 On ch=2 n=70 v=98
94464 On ch=2 n=77 v=98
94695 Off ch=2 n=70 v=0
94695 Off ch=2 n=77 v=0
107776 On ch=2 n=84 v=54
108749 Off ch=2 n=84 v=0
108800 On ch=2 n=82 v=66
109773 Off ch=2 n=82 v=0
109824 On ch=2 n=81 v=79
112103 Off ch=2 n=81 v=0
112128 On ch=2 n=81 v=82
112359 Off ch=2 n=81 v=0
112384 On ch=2 n=81 v=100
112615 Off ch=2 n=81 v=0
112640 On ch=2 n=81 v=96
112871 Off ch=2 n=81 v=0
112896 On ch=2 n=77 v=106
112896 On ch=2 n=80 v=106
113639 Off ch=2 n=77 v=0
113639 Off ch=2 n=80 v=0
113664 On ch=2 n=77 v=113
113664 On ch=2 n=80 v=113
113895 Off ch=2 n=77 v=0
113895 Off ch=2 n=80 v=0
113920 On ch=2 n=75 v=111
113920 On ch=2 n=79 v=111
114151 Off ch=2 n=75 v=0
114151 Off ch=2 n=79 v=0
114432 On ch=2 n=80 v=101
114663 Off ch=2 n=80 v=0
114944 On ch=2 n=75 v=103
114944 On ch=2 n=82 v=103
115175 Off ch=2 n=75 v=0
115175 Off ch=2 n=82 v=0
115456 On ch=2 n=75 v=100
115456 On ch=2 n=84 v=100
115687 Off ch=2 n=75 v=0
115687 Off ch=2 n=84 v=0
115968 On ch=2 n=75 v=100
115968 On ch=2 n=79 v=100
116199 Off ch=2 n=75 v=0
116199 Off ch=2 n=79 v=0
116480 On ch=2 n=74 v=103
116480 On ch=2 n=77 v=103
116711 Off ch=2 n=74 v=0
116711 Off ch=2 n=77 v=0
116992 On ch=2 n=77 v=100
116992 On ch=2 n=80 v=100
117965 Off ch=2 n=77 v=0
117965 Off ch=2 n=80 v=0
118016 On ch=2 n=75 v=109
118016 On ch=2 n=79 v=109
118247 Off ch=2 n=75 v=0
118247 Off ch=2 n=79 v=0
118272 On ch=2 n=75 v=110
118272 On ch=2 n=79 v=110
118503 Off ch=2 n=75 v=0
118503 Off ch=2 n=79 v=0
118784 On ch=2 n=74 v=101
118784 On ch=2 n=77 v=101
119015 Off ch=2 n=74 v=0
119015 Off ch=2 n=77 v=0
119296 On ch=2 n=75 v=101
119296 On ch=2 n=79 v=101
119527 Off ch=2 n=75 v=0
119527 Off ch=2 n=79 v=0
119808 On ch=2 n=75 v=102
119808 On ch=2 n=77 v=102
120039 Off ch=2 n=75 v=0
120039 Off ch=2 n=77 v=0
120320 On ch=2 n=75 v=100
120320 On ch=2 n=79 v=100
120551 Off ch=2 n=75 v=0
120551 Off ch=2 n=79 v=0
120832 On ch=2 n=74 v=101
120832 On ch=2 n=77 v=101
121063 Off ch=2 n=74 v=0
121063 Off ch=2 n=77 v=0
121088 On ch=2 n=75 v=124
121088 On ch=2 n=79 v=124
121204 Off ch=2 n=75 v=0
121204 Off ch=2 n=79 v=0
121216 On ch=2 n=79 v=118
121332 Off ch=2 n=79 v=0
121344 On ch=2 n=79 v=107
121460 Off ch=2 n=79 v=0
121472 On ch=2 n=79 v=116
121588 Off ch=2 n=79 v=0
121600 On ch=2 n=75 v=101
121716 Off ch=2 n=75 v=0
121728 On ch=2 n=82 v=127
121844 Off ch=2 n=82 v=0
121856 On ch=2 n=82 v=118
121972 Off ch=2 n=82 v=0
121984 On ch=2 n=82 v=111
122100 Off ch=2 n=82 v=0
122112 On ch=2 n=79 v=104
122228 Off ch=2 n=79 v=0
122240 On ch=2 n=75 v=100
122356 Off ch=2 n=75 v=0
122368 On ch=2 n=75 v=108
122484 Off ch=2 n=75 v=0
122496 On ch=2 n=75 v=115
122612 Off ch=2 n=75 v=0
122624 On ch=2 n=70 v=101
123252 Off ch=2 n=70 v=0
123264 On ch=2 n=79 v=127
123380 Off ch=2 n=79 v=0
123392 On ch=2 n=79 v=113
123508 Off ch=2 n=79 v=0
123520 On ch=2 n=79 v=116
123636 Off ch=2 n=79 v=0
123648 On ch=2 n=75 v=99
123764 Off ch=2 n=75 v=0
123776 On ch=2 n=82 v=127
123892 Off ch=2 n=82 v=0
123904 On ch=2 n=82 v=118
124020 Off ch=2 n=82 v=0
124032 On ch=2 n=82 v=108
124148 Off ch=2 n=82 v=0
124160 On ch=2 n=79 v=106
124276 Off ch=2 n=79 v=0
124288 On ch=2 n=75 v=101
124404 Off ch=2 n=75 v=0
124416 On ch=2 n=75 v=108
124532 Off ch=2 n=75 v=0
124544 On ch=2 n=75 v=113
124660 Off ch=2 n=75 v=0
124672 On ch=2 n=70 v=99
125415 Off ch=2 n=70 v=0
125824 On ch=2 n=74 v=99
125824 On ch=2 n=77 v=99
125940 Off ch=2 n=74 v=0
125940 Off ch=2 n=77 v=0
125952 On ch=2 n=74 v=113
125952 On ch=2 n=77 v=113
126068 Off ch=2 n=74 v=0
126068 Off ch=2 n=77 v=0
126080 On ch=2 n=74 v=109
126080 On ch=2 n=77 v=109
126196 Off ch=2 n=74 v=0
126196 Off ch=2 n=77 v=0
126208 On ch=2 n=75 v=115
126208 On ch=2 n=79 v=115
126439 Off ch=2 n=75 v=0
126439 Off ch=2 n=79 v=0
126848 On ch=2 n=77 v=102
126848 On ch=2 n=82 v=102
126964 Off ch=2 n=77 v=0
126964 Off ch=2 n=82 v=0
126976 On ch=2 n=77 v=113
126976 On ch=2 n=82 v=113
127092 Off ch=2 n=77 v=0
127092 Off ch=2 n=82 v=0
127104 On ch=2 n=77 v=113
127104 On ch=2 n=82 v=113
127220 Off ch=2 n=77 v=0
127220 Off ch=2 n=82 v=0
127232 On ch=2 n=75 v=103
127232 On ch=2 n=79 v=103
127463 Off ch=2 n=75 v=0
127463 Off ch=2 n=79 v=0
143488 On ch=2 n=78 v=60
143604 Off ch=2 n=78 v=0
143616 On ch=2 n=78 v=59
143732 Off ch=2 n=78 v=0
143744 On ch=2 n=81 v=65
143860 Off ch=2 n=81 v=0
143872 On ch=2 n=79 v=55
144333 Off ch=2 n=79 v=0
144384 On ch=2 n=78 v=56
144500 Off ch=2 n=78 v=0
144512 On ch=2 n=78 v=64
144628 Off ch=2 n=78 v=0
144640 On ch=2 n=78 v=59
144756 Off ch=2 n=78 v=0
144768 On ch=2 n=81 v=68
144884 Off ch=2 n=81 v=0
144896 On ch=2 n=79 v=57
145357 Off ch=2 n=79 v=0
145408 On ch=2 n=78 v=60
145869 Off ch=2 n=78 v=0
145920 On ch=2 n=79 v=63
146548 Off ch=2 n=79 v=0
146944 On ch=2 n=72 v=51
146944 On ch=2 n=78 v=51
147175 Off ch=2 n=72 v=0
147175 Off ch=2 n=78 v=0
147968 On ch=2 n=72 v=55
147968 On ch=2 n=78 v=55
148199 Off ch=2 n=72 v=0
148199 Off ch=2 n=78 v=0
148992 On ch=2 n=67 v=55
148992 On ch=2 n=79 v=55
149223 Off ch=2 n=67 v=0
149223 Off ch=2 n=79 v=0
150016 On ch=2 n=74 v=51
150016 On ch=2 n=79 v=51
150247 Off ch=2 n=74 v=0
150247 Off ch=2 n=79 v=0
150656 On ch=2 n=79 v=60
150772 Off ch=2 n=79 v=0
150784 On ch=2 n=81 v=89
150900 Off ch=2 n=81 v=0
150912 On ch=2 n=82 v=88
151028 Off ch=2 n=82 v=0
151040 On ch=2 n=78 v=95
151040 On ch=2 n=81 v=95
152013 Off ch=2 n=78 v=0
152013 Off ch=2 n=81 v=0
152064 On ch=2 n=78 v=94
152064 On ch=2 n=81 v=94
152295 Off ch=2 n=78 v=0
152295 Off ch=2 n=81 v=0
152704 On ch=2 n=79 v=83
152704 On ch=2 n=82 v=83
152820 Off ch=2 n=79 v=0
152820 Off ch=2 n=82 v=0
152832 On ch=2 n=79 v=95
152832 On ch=2 n=82 v=95
152948 Off ch=2 n=79 v=0
152948 Off ch=2 n=82 v=0
152960 On ch=2 n=79 v=100
152960 On ch=2 n=82 v=100
153076 Off ch=2 n=79 v=0
153076 Off ch=2 n=82 v=0
153088 On ch=2 n=79 v=96
153088 On ch=2 n=82 v=96
154061 Off ch=2 n=79 v=0
154061 Off ch=2 n=82 v=0
154112 On ch=2 n=79 v=96
154112 On ch=2 n=82 v=96
154343 Off ch=2 n=79 v=0
154343 Off ch=2 n=82 v=0
154752 On ch=2 n=79 v=90
154752 On ch=2 n=82 v=90
154868 Off ch=2 n=79 v=0
154868 Off ch=2 n=82 v=0
154880 On ch=2 n=79 v=101
154880 On ch=2 n=82 v=101
154996 Off ch=2 n=79 v=0
154996 Off ch=2 n=82 v=0
155008 On ch=2 n=79 v=108
155008 On ch=2 n=82 v=108
155124 Off ch=2 n=79 v=0
155124 Off ch=2 n=82 v=0
155136 On ch=2 n=79 v=106
155136 On ch=2 n=82 v=106
155367 Off ch=2 n=79 v=0
155367 Off ch=2 n=82 v=0
155904 On ch=2 n=79 v=97
155904 On ch=2 n=82 v=97
156020 Off ch=2 n=79 v=0
156020 Off ch=2 n=82 v=0
156032 On ch=2 n=79 v=102
156032 On ch=2 n=82 v=102
156148 Off ch=2 n=79 v=0
156148 Off ch=2 n=82 v=0
156160 On ch=2 n=79 v=101
156160 On ch=2 n=82 v=101
156391 Off ch=2 n=79 v=0
156391 Off ch=2 n=82 v=0
156416 On ch=2 n=74 v=100
156416 On ch=2 n=81 v=100
156532 Off ch=2 n=74 v=0
156532 Off ch=2 n=81 v=0
156544 On ch=2 n=74 v=103
156544 On ch=2 n=81 v=103
156660 Off ch=2 n=74 v=0
156660 Off ch=2 n=81 v=0
156672 On ch=2 n=74 v=104
156672 On ch=2 n=81 v=104
156903 Off ch=2 n=74 v=0
156903 Off ch=2 n=81 v=0
160000 On ch=2 n=78 v=101
160116 Off ch=2 n=78 v=0
160128 On ch=2 n=78 v=112
160244 Off ch=2 n=78 v=0
160256 On ch=2 n=78 v=109
160487 Off ch=2 n=78 v=0
160512 On ch=2 n=78 v=121
160512 On ch=2 n=81 v=121
160628 Off ch=2 n=78 v=0
160628 Off ch=2 n=81 v=0
160640 On ch=2 n=78 v=114
160640 On ch=2 n=81 v=114
160756 Off ch=2 n=78 v=0
160756 Off ch=2 n=81 v=0
160768 On ch=2 n=79 v=125
160768 On ch=2 n=83 v=125
160999 Off ch=2 n=79 v=0
160999 Off ch=2 n=83 v=0
164096 On ch=2 n=77 v=104
164212 Off ch=2 n=77 v=0
164224 On ch=2 n=77 v=112
164340 Off ch=2 n=77 v=0
164352 On ch=2 n=77 v=116
164583 Off ch=2 n=77 v=0
164992 On ch=2 n=72 v=108
164992 On ch=2 n=84 v=108
165108 Off ch=2 n=72 v=0
165108 Off ch=2 n=84 v=0
165120 On ch=2 n=72 v=112
165120 On ch=2 n=84 v=112
165236 Off ch=2 n=72 v=0
165236 Off ch=2 n=84 v=0
165248 On ch=2 n=72 v=111
165248 On ch=2 n=84 v=111
165364 Off ch=2 n=72 v=0
165364 Off ch=2 n=84 v=0
165376 On ch=2 n=77 v=93
165888 On ch=2 n=79 v=91
165898 Off ch=2 n=77 v=0
166374 Off ch=2 n=79 v=0
167424 On ch=2 n=65 v=107
167424 On ch=2 n=77 v=107
167936 On ch=2 n=67 v=114
167936 On ch=2 n=79 v=114
167946 Off ch=2 n=65 v=0
167946 Off ch=2 n=77 v=0
168422 Off ch=2 n=67 v=0
168422 Off ch=2 n=79 v=0
169472 On ch=2 n=77 v=108
169984 On ch=2 n=78 v=115
169994 Off ch=2 n=77 v=0
170470 Off ch=2 n=78 v=0
171520 On ch=2 n=81 v=125
172032 On ch=2 n=82 v=127
172042 Off ch=2 n=81 v=0
172518 Off ch=2 n=82 v=0
176128 On ch=2 n=81 v=59
176589 Off ch=2 n=81 v=0
177152 On ch=2 n=81 v=58
177613 Off ch=2 n=81 v=0
178176 On ch=2 n=81 v=51
178637 Off ch=2 n=81 v=0
179200 On ch=2 n=81 v=53
179661 Off ch=2 n=81 v=0
180224 On ch=2 n=81 v=51
180685 Off ch=2 n=81 v=0
181248 On ch=2 n=81 v=56
181709 Off ch=2 n=81 v=0
181888 On ch=2 n=74 v=104
181888 On ch=2 n=86 v=104
182004 Off ch=2 n=74 v=0
182004 Off ch=2 n=86 v=0
182016 On ch=2 n=74 v=111
182016 On ch=2 n=86 v=111
182132 Off ch=2 n=74 v=0
182132 Off ch=2 n=86 v=0
182144 On ch=2 n=74 v=114
182144 On ch=2 n=86 v=114
182260 Off ch=2 n=74 v=0
182260 Off ch=2 n=86 v=0
182272 On ch=2 n=71 v=102
182272 On ch=2 n=83 v=102
182733 Off ch=2 n=71 v=0
182733 Off ch=2 n=83 v=0
182784 On ch=2 n=72 v=117
182784 On ch=2 n=84 v=117
183245 Off ch=2 n=72 v=0
183245 Off ch=2 n=84 v=0
183296 On ch=2 n=69 v=103
183296 On ch=2 n=81 v=103
184269 Off ch=2 n=69 v=0
184269 Off ch=2 n=81 v=0
184320 On ch=2 n=80 v=51
184781 Off ch=2 n=80 v=0
185344 On ch=2 n=80 v=52
185805 Off ch=2 n=80 v=0
186368 On ch=2 n=80 v=53
186829 Off ch=2 n=80 v=0
187392 On ch=2 n=80 v=49
187853 Off ch=2 n=80 v=0
188544 On ch=2 n=80 v=104
188660 Off ch=2 n=80 v=0
188672 On ch=2 n=80 v=110
188788 Off ch=2 n=80 v=0
188800 On ch=2 n=80 v=114
188916 Off ch=2 n=80 v=0
188928 On ch=2 n=77 v=101
189556 Off ch=2 n=77 v=0
189568 On ch=2 n=80 v=120
189684 Off ch=2 n=80 v=0
189696 On ch=2 n=80 v=118
189812 Off ch=2 n=80 v=0
189824 On ch=2 n=80 v=114
189940 Off ch=2 n=80 v=0
189952 On ch=2 n=77 v=100
190580 Off ch=2 n=77 v=0
190592 On ch=2 n=80 v=121
190708 Off ch=2 n=80 v=0
190720 On ch=2 n=80 v=114
190836 Off ch=2 n=80 v=0
190848 On ch=2 n=80 v=111
190964 Off ch=2 n=80 v=0
190976 On ch=2 n=77 v=103
191092 Off ch=2 n=77 v=0
191104 On ch=2 n=80 v=119
191220 Off ch=2 n=80 v=0
191232 On ch=2 n=80 v=110
191348 Off ch=2 n=80 v=0
191360 On ch=2 n=80 v=113
191476 Off ch=2 n=80 v=0
191488 On ch=2 n=77 v=104
191604 Off ch=2 n=77 v=0
191616 On ch=2 n=80 v=121
191732 Off ch=2 n=80 v=0
191744 On ch=2 n=80 v=110
191860 Off ch=2 n=80 v=0
191872 On ch=2 n=80 v=116
191988 Off ch=2 n=80 v=0
192000 On ch=2 n=65 v=103
192000 On ch=2 n=77 v=103
192116 Off ch=2 n=65 v=0
192116 Off ch=2 n=77 v=0
192128 On ch=2 n=67 v=115
192128 On ch=2 n=79 v=115
192244 Off ch=2 n=67 v=0
192244 Off ch=2 n=79 v=0
192256 On ch=2 n=67 v=112
192256 On ch=2 n=79 v=112
192372 Off ch=2 n=67 v=0
192372 Off ch=2 n=79 v=0
192384 On ch=2 n=67 v=114
192384 On ch=2 n=79 v=114
192500 Off ch=2 n=67 v=0
192500 Off ch=2 n=79 v=0
192512 On ch=2 n=75 v=110
192512 On ch=2 n=79 v=110
193280 Off ch=2 n=75 v=0
193280 Off ch=2 n=79 v=0
193408 On ch=2 n=77 v=99
193408 On ch=2 n=79 v=99
193524 Off ch=2 n=77 v=0
193524 Off ch=2 n=79 v=0
193536 On ch=2 n=77 v=113
193536 On ch=2 n=79 v=113
193652 Off ch=2 n=77 v=0
193652 Off ch=2 n=79 v=0
193664 On ch=2 n=77 v=115
193664 On ch=2 n=79 v=115
193780 Off ch=2 n=77 v=0
193780 Off ch=2 n=79 v=0
193792 On ch=2 n=74 v=112
193792 On ch=2 n=79 v=112
195072 Off ch=2 n=74 v=0
195072 Off ch=2 n=79 v=0
195584 On ch=2 n=72 v=48
197581 Off ch=2 n=72 v=0
197632 On ch=2 n=74 v=66
199629 Off ch=2 n=74 v=0
199680 On ch=2 n=75 v=65
200192 On ch=2 n=74 v=62
200202 Off ch=2 n=75 v=0
200704 On ch=2 n=72 v=56
200714 Off ch=2 n=74 v=0
201216 On ch=2 n=71 v=65
201226 Off ch=2 n=72 v=0
201472 On ch=2 n=72 v=67
201477 Off ch=2 n=71 v=0
201600 On ch=2 n=74 v=76
201602 Off ch=2 n=72 v=0
201721 Off ch=2 n=74 v=0
201728 On ch=2 n=75 v=77
202240 On ch=2 n=72 v=78
202250 Off ch=2 n=75 v=0
202726 Off ch=2 n=72 v=0
202752 On ch=2 n=79 v=115
203392 Off ch=2 n=79 v=0
203392 On ch=2 n=77 v=75
203648 On ch=2 n=75 v=64
203653 Off ch=2 n=77 v=0
203904 On ch=2 n=74 v=59
203909 Off ch=2 n=75 v=0
204416 On ch=2 n=75 v=78
204426 Off ch=2 n=74 v=0
204480 On ch=2 n=74 v=74
204481 Off ch=2 n=75 v=0
204544 On ch=2 n=72 v=66
204545 Off ch=2 n=74 v=0
204608 On ch=2 n=74 v=69
204609 Off ch=2 n=72 v=0
204672 On ch=2 n=77 v=78
204673 Off ch=2 n=74 v=0
204928 On ch=2 n=75 v=76
204933 Off ch=2 n=77 v=0
205184 On ch=2 n=74 v=64
205189 Off ch=2 n=75 v=0
205588 Off ch=2 n=74 v=0
206080 On ch=2 n=74 v=68
206080 On ch=2 n=77 v=68
207565 Off ch=2 n=74 v=0
207565 Off ch=2 n=77 v=0
207616 On ch=2 n=72 v=55
207616 On ch=2 n=75 v=55
207847 Off ch=2 n=72 v=0
207847 Off ch=2 n=75 v=0
208640 On ch=2 n=83 v=54
209613 Off ch=2 n=83 v=0
209664 On ch=2 n=84 v=104
209895 Off ch=2 n=84 v=0
210688 On ch=2 n=77 v=87
210688 On ch=2 n=80 v=87
210919 Off ch=2 n=77 v=0
210919 Off ch=2 n=80 v=0
211328 On ch=2 n=75 v=83
211328 On ch=2 n=79 v=83
211444 Off ch=2 n=75 v=0
211444 Off ch=2 n=79 v=0
211456 On ch=2 n=75 v=98
211456 On ch=2 n=79 v=98
211572 Off ch=2 n=75 v=0
211572 Off ch=2 n=79 v=0
211584 On ch=2 n=75 v=98
211584 On ch=2 n=79 v=98
211700 Off ch=2 n=75 v=0
211700 Off ch=2 n=79 v=0
211712 On ch=2 n=75 v=102
211712 On ch=2 n=79 v=102
211943 Off ch=2 n=75 v=0
211943 Off ch=2 n=79 v=0
212224 On ch=2 n=77 v=100
212224 On ch=2 n=80 v=100
212455 Off ch=2 n=77 v=0
212455 Off ch=2 n=80 v=0
212736 On ch=2 n=76 v=102
212736 On ch=2 n=79 v=102
212967 Off ch=2 n=76 v=0
212967 Off ch=2 n=79 v=0
213248 On ch=2 n=77 v=103
213248 On ch=2 n=80 v=103
213479 Off ch=2 n=77 v=0
213479 Off ch=2 n=80 v=0
213760 On ch=2 n=79 v=102
213760 On ch=2 n=82 v=102
213991 Off ch=2 n=79 v=0
213991 Off ch=2 n=82 v=0
214272 On ch=2 n=77 v=100
214272 On ch=2 n=80 v=100
214503 Off ch=2 n=77 v=0
214503 Off ch=2 n=80 v=0
214784 On ch=2 n=77 v=99
214784 On ch=2 n=80 v=99
215015 Off ch=2 n=77 v=0
215015 Off ch=2 n=80 v=0
215296 On ch=2 n=75 v=89
215296 On ch=2 n=79 v=89
217293 Off ch=2 n=75 v=0
217293 Off ch=2 n=79 v=0
217344 On ch=2 n=77 v=93
217344 On ch=2 n=79 v=93
219111 Off ch=2 n=77 v=0
219111 Off ch=2 n=79 v=0
219136 On ch=2 n=75 v=95
219136 On ch=2 n=79 v=95
219367 Off ch=2 n=75 v=0
219367 Off ch=2 n=79 v=0
219392 On ch=2 n=78 v=122
219392 On ch=2 n=81 v=122
221389 Off ch=2 n=78 v=0
221389 Off ch=2 n=81 v=0
221440 On ch=2 n=78 v=110
221440 On ch=2 n=81 v=110
221671 Off ch=2 n=78 v=0
221671 Off ch=2 n=81 v=0
222464 On ch=2 n=74 v=101
222464 On ch=2 n=79 v=101
222695 Off ch=2 n=74 v=0
222695 Off ch=2 n=79 v=0
227072 On ch=2 n=72 v=51
227072 On ch=2 n=76 v=51
227584 On ch=2 n=74 v=56
227584 On ch=2 n=77 v=56
227663 Off ch=2 n=72 v=0
227663 Off ch=2 n=76 v=0
228096 On ch=2 n=71 v=66
228096 On ch=2 n=77 v=66
228097 Off ch=2 n=74 v=0
228097 Off ch=2 n=77 v=0
228608 On ch=2 n=72 v=62
228608 On ch=2 n=76 v=62
228687 Off ch=2 n=71 v=0
228687 Off ch=2 n=77 v=0
229121 Off ch=2 n=72 v=0
229121 Off ch=2 n=76 v=0
231168 On ch=2 n=72 v=57
231168 On ch=2 n=76 v=57
231680 On ch=2 n=74 v=60
231680 On ch=2 n=77 v=60
231759 Off ch=2 n=72 v=0
231759 Off ch=2 n=76 v=0
232192 On ch=2 n=71 v=64
232192 On ch=2 n=77 v=64
232193 Off ch=2 n=74 v=0
232193 Off ch=2 n=77 v=0
232704 On ch=2 n=72 v=58
232704 On ch=2 n=76 v=58
232783 Off ch=2 n=71 v=0
232783 Off ch=2 n=77 v=0
233217 Off ch=2 n=72 v=0
233217 Off ch=2 n=76 v=0
244992 On ch=2 n=79 v=127
244992 On ch=2 n=83 v=127
245735 Off ch=2 n=79 v=0
245735 Off ch=2 n=83 v=0
245760 On ch=2 n=79 v=123
245760 On ch=2 n=86 v=123
245991 Off ch=2 n=79 v=0
245991 Off ch=2 n=86 v=0
246016 On ch=2 n=79 v=106
246016 On ch=2 n=84 v=106
246247 Off ch=2 n=79 v=0
246247 Off ch=2 n=84 v=0
246528 On ch=2 n=77 v=97
246528 On ch=2 n=79 v=97
246759 Off ch=2 n=77 v=0
246759 Off ch=2 n=79 v=0
247040 On ch=2 n=72 v=102
247040 On ch=2 n=79 v=102
247271 Off ch=2 n=72 v=0
247271 Off ch=2 n=79 v=0
247552 On ch=2 n=74 v=97
247552 On ch=2 n=84 v=97
247783 Off ch=2 n=74 v=0
247783 Off ch=2 n=84 v=0
248064 On ch=2 n=76 v=107
248064 On ch=2 n=84 v=107
248295 Off ch=2 n=76 v=0
248295 Off ch=2 n=84 v=0
248576 On ch=2 n=74 v=104
248576 On ch=2 n=83 v=104
248807 Off ch=2 n=74 v=0
248807 Off ch=2 n=83 v=0
249088 On ch=2 n=77 v=107
249088 On ch=2 n=86 v=107
250061 Off ch=2 n=77 v=0
250061 Off ch=2 n=86 v=0
250112 On ch=2 n=76 v=103
250112 On ch=2 n=84 v=103
250343 Off ch=2 n=76 v=0
250343 Off ch=2 n=84 v=0
250368 On ch=2 n=76 v=113
250368 On ch=2 n=84 v=113
250599 Off ch=2 n=76 v=0
250599 Off ch=2 n=84 v=0
250880 On ch=2 n=74 v=99
250880 On ch=2 n=83 v=99
251111 Off ch=2 n=74 v=0
251111 Off ch=2 n=83 v=0
251392 On ch=2 n=76 v=101
251392 On ch=2 n=84 v=101
251623 Off ch=2 n=76 v=0
251623 Off ch=2 n=84 v=0
251904 On ch=2 n=74 v=98
251904 On ch=2 n=84 v=98
252135 Off ch=2 n=74 v=0
252135 Off ch=2 n=84 v=0
252416 On ch=2 n=76 v=103
252416 On ch=2 n=84 v=103
252647 Off ch=2 n=76 v=0
252647 Off ch=2 n=84 v=0
252928 On ch=2 n=74 v=102
252928 On ch=2 n=83 v=102
253159 Off ch=2 n=74 v=0
253159 Off ch=2 n=83 v=0
253184 On ch=2 n=76 v=115
253184 On ch=2 n=84 v=115
253300 Off ch=2 n=76 v=0
253300 Off ch=2 n=84 v=0
253312 On ch=2 n=76 v=89
253428 Off ch=2 n=76 v=0
253440 On ch=2 n=76 v=108
253556 Off ch=2 n=76 v=0
253568 On ch=2 n=76 v=112
253684 Off ch=2 n=76 v=0
253696 On ch=2 n=72 v=101
253812 Off ch=2 n=72 v=0
253824 On ch=2 n=79 v=127
253940 Off ch=2 n=79 v=0
253952 On ch=2 n=79 v=115
254068 Off ch=2 n=79 v=0
254080 On ch=2 n=79 v=112
254196 Off ch=2 n=79 v=0
254208 On ch=2 n=76 v=108
254324 Off ch=2 n=76 v=0
254336 On ch=2 n=72 v=94
254452 Off ch=2 n=72 v=0
254464 On ch=2 n=72 v=111
254580 Off ch=2 n=72 v=0
254592 On ch=2 n=72 v=112
254708 Off ch=2 n=72 v=0
254720 On ch=2 n=67 v=97
255348 Off ch=2 n=67 v=0
255360 On ch=2 n=76 v=127
255476 Off ch=2 n=76 v=0
255488 On ch=2 n=76 v=119
255604 Off ch=2 n=76 v=0
255616 On ch=2 n=76 v=113
255732 Off ch=2 n=76 v=0
255744 On ch=2 n=72 v=100
255860 Off ch=2 n=72 v=0
255872 On ch=2 n=79 v=127
255988 Off ch=2 n=79 v=0
256000 On ch=2 n=79 v=113
256116 Off ch=2 n=79 v=0
256128 On ch=2 n=79 v=113
256244 Off ch=2 n=79 v=0
256256 On ch=2 n=76 v=105
256372 Off ch=2 n=76 v=0
256384 On ch=2 n=72 v=94
256500 Off ch=2 n=72 v=0
256512 On ch=2 n=72 v=108
256628 Off ch=2 n=72 v=0
256640 On ch=2 n=72 v=114
256756 Off ch=2 n=72 v=0
256768 On ch=2 n=67 v=93
256884 Off ch=2 n=67 v=0
256896 On ch=2 n=71 v=127
256896 On ch=2 n=74 v=127
257012 Off ch=2 n=71 v=0
257012 Off ch=2 n=74 v=0
257024 On ch=2 n=71 v=113
257024 On ch=2 n=74 v=113
257140 Off ch=2 n=71 v=0
257140 Off ch=2 n=74 v=0
257152 On ch=2 n=71 v=116
257152 On ch=2 n=74 v=116
257268 Off ch=2 n=71 v=0
257268 Off ch=2 n=74 v=0
257280 On ch=2 n=72 v=119
257280 On ch=2 n=76 v=119
257511 Off ch=2 n=72 v=0
257511 Off ch=2 n=76 v=0
257920 On ch=2 n=71 v=100
257920 On ch=2 n=74 v=100
258036 Off ch=2 n=71 v=0
258036 Off ch=2 n=74 v=0
258048 On ch=2 n=71 v=110
258048 On ch=2 n=74 v=110
258164 Off ch=2 n=71 v=0
258164 Off ch=2 n=74 v=0
258176 On ch=2 n=71 v=114
258176 On ch=2 n=74 v=114
258292 Off ch=2 n=71 v=0
258292 Off ch=2 n=74 v=0
258304 On ch=2 n=72 v=123
258304 On ch=2 n=76 v=123
258535 Off ch=2 n=72 v=0
258535 Off ch=2 n=76 v=0
258944 On ch=2 n=74 v=105
258944 On ch=2 n=79 v=105
259060 Off ch=2 n=74 v=0
259060 Off ch=2 n=79 v=0
259072 On ch=2 n=74 v=111
259072 On ch=2 n=79 v=111
259188 Off ch=2 n=74 v=0
259188 Off ch=2 n=79 v=0
259200 On ch=2 n=74 v=113
259200 On ch=2 n=79 v=113
259316 Off ch=2 n=74 v=0
259316 Off ch=2 n=79 v=0
259328 On ch=2 n=76 v=113
259328 On ch=2 n=79 v=113
259444 Off ch=2 n=76 v=0
259444 Off ch=2 n=79 v=0
259456 On ch=2 n=72 v=124
259456 On ch=2 n=84 v=124
259572 Off ch=2 n=72 v=0
259572 Off ch=2 n=84 v=0
259584 On ch=2 n=72 v=120
259584 On ch=2 n=84 v=120
259700 Off ch=2 n=72 v=0
259700 Off ch=2 n=84 v=0
259712 On ch=2 n=72 v=118
259712 On ch=2 n=84 v=118
259828 Off ch=2 n=72 v=0
259828 Off ch=2 n=84 v=0
259840 On ch=2 n=72 v=114
259840 On ch=2 n=84 v=114
260468 Off ch=2 n=72 v=0
260468 Off ch=2 n=84 v=0
260480 On ch=2 n=72 v=116
260480 On ch=2 n=84 v=116
260596 Off ch=2 n=72 v=0
260596 Off ch=2 n=84 v=0
260608 On ch=2 n=72 v=118
260608 On ch=2 n=84 v=118
260724 Off ch=2 n=72 v=0
260724 Off ch=2 n=84 v=0
260736 On ch=2 n=72 v=117
260736 On ch=2 n=84 v=117
260852 Off ch=2 n=72 v=0
260852 Off ch=2 n=84 v=0
260864 On ch=2 n=72 v=112
260864 On ch=2 n=84 v=112
261492 Off ch=2 n=72 v=0
261492 Off ch=2 n=84 v=0
261504 On ch=2 n=72 v=111
261504 On ch=2 n=84 v=111
261620 Off ch=2 n=72 v=0
261620 Off ch=2 n=84 v=0
261632 On ch=2 n=72 v=113
261632 On ch=2 n=84 v=113
261748 Off ch=2 n=72 v=0
261748 Off ch=2 n=84 v=0
261760 On ch=2 n=72 v=115
261760 On ch=2 n=84 v=115
261876 Off ch=2 n=72 v=0
261876 Off ch=2 n=84 v=0
261888 On ch=2 n=72 v=117
261888 On ch=2 n=84 v=117
262516 Off ch=2 n=72 v=0
262516 Off ch=2 n=84 v=0
262528 On ch=2 n=72 v=111
262528 On ch=2 n=84 v=111
262644 Off ch=2 n=72 v=0
262644 Off ch=2 n=84 v=0
262656 On ch=2 n=72 v=111
262656 On ch=2 n=84 v=111
262772 Off ch=2 n=72 v=0
262772 Off ch=2 n=84 v=0
262784 On ch=2 n=72 v=114
262784 On ch=2 n=84 v=114
262900 Off ch=2 n=72 v=0
262900 Off ch=2 n=84 v=0
262912 On ch=2 n=72 v=110
262912 On ch=2 n=84 v=110
263373 Off ch=2 n=72 v=0
263373 Off ch=2 n=84 v=0
263424 On ch=2 n=85 v=117
263424 On ch=2 n=73 v=69
263680 On ch=2 n=80 v=103
263685 Off ch=2 n=85 v=0
265472 On ch=2 n=73 v=114
265472 On ch=2 n=80 v=114
265517 Off ch=2 n=80 v=0
265531 Off ch=2 n=73 v=0
265703 Off ch=2 n=73 v=0
265703 Off ch=2 n=80 v=0
267648 On ch=2 n=75 v=107
267648 On ch=2 n=81 v=107
267764 Off ch=2 n=75 v=0
267764 Off ch=2 n=81 v=0
267776 On ch=2 n=75 v=110
267776 On ch=2 n=81 v=110
267892 Off ch=2 n=75 v=0
267892 Off ch=2 n=81 v=0
267904 On ch=2 n=75 v=112
267904 On ch=2 n=81 v=112
268020 Off ch=2 n=75 v=0
268020 Off ch=2 n=81 v=0
268032 On ch=2 n=75 v=112
268032 On ch=2 n=81 v=112
270029 Off ch=2 n=75 v=0
270029 Off ch=2 n=81 v=0
270080 On ch=2 n=75 v=109
270080 On ch=2 n=81 v=109
270311 Off ch=2 n=75 v=0
270311 Off ch=2 n=81 v=0
270720 On ch=2 n=72 v=103
270836 Off ch=2 n=72 v=0
270848 On ch=2 n=72 v=112
270964 Off ch=2 n=72 v=0
270976 On ch=2 n=72 v=118
271092 Off ch=2 n=72 v=0
271104 On ch=2 n=75 v=117
271335 Off ch=2 n=75 v=0
273664 On ch=2 n=77 v=90
273664 On ch=2 n=83 v=90
274637 Off ch=2 n=77 v=0
274637 Off ch=2 n=83 v=0
275712 On ch=2 n=77 v=94
275712 On ch=2 n=83 v=94
276685 Off ch=2 n=77 v=0
276685 Off ch=2 n=83 v=0
278272 On ch=2 n=72 v=102
278272 On ch=2 n=84 v=102
278503 Off ch=2 n=72 v=0
278503 Off ch=2 n=84 v=0
278528 On ch=2 n=74 v=104
278528 On ch=2 n=86 v=104
278759 Off ch=2 n=74 v=0
278759 Off ch=2 n=86 v=0
278784 On ch=2 n=70 v=86
278784 On ch=2 n=82 v=86
279015 Off ch=2 n=70 v=0
279015 Off ch=2 n=82 v=0
279040 On ch=2 n=72 v=101
279040 On ch=2 n=84 v=101
279271 Off ch=2 n=72 v=0
279271 Off ch=2 n=84 v=0
279296 On ch=2 n=68 v=94
279296 On ch=2 n=80 v=94
279527 Off ch=2 n=68 v=0
279527 Off ch=2 n=80 v=0
279552 On ch=2 n=70 v=101
279552 On ch=2 n=82 v=101
279783 Off ch=2 n=70 v=0
279783 Off ch=2 n=82 v=0
279808 On ch=2 n=67 v=91
279808 On ch=2 n=79 v=91
280039 Off ch=2 n=67 v=0
280039 Off ch=2 n=79 v=0
280064 On ch=2 n=80 v=97
280295 Off ch=2 n=80 v=0
280320 On ch=2 n=77 v=87
280551 Off ch=2 n=77 v=0
280576 On ch=2 n=75 v=95
280807 Off ch=2 n=75 v=0
280832 On ch=2 n=74 v=93
281063 Off ch=2 n=74 v=0
281088 On ch=2 n=75 v=99
281319 Off ch=2 n=75 v=0
281344 On ch=2 n=77 v=105
281575 Off ch=2 n=77 v=0
281600 On ch=2 n=75 v=93
281831 Off ch=2 n=75 v=0
281856 On ch=2 n=77 v=101
282087 Off ch=2 n=77 v=0
282112 On ch=2 n=79 v=106
282343 Off ch=2 n=79 v=0
282368 On ch=2 n=80 v=106
282599 Off ch=2 n=80 v=0
282624 On ch=2 n=79 v=93
282855 Off ch=2 n=79 v=0
282880 On ch=2 n=80 v=100
283111 Off ch=2 n=80 v=0
283136 On ch=2 n=71 v=91
283136 On ch=2 n=77 v=91
283367 Off ch=2 n=71 v=0
283367 Off ch=2 n=77 v=0
283392 On ch=2 n=72 v=97
283392 On ch=2 n=77 v=97
283623 Off ch=2 n=72 v=0
283623 Off ch=2 n=77 v=0
283648 On ch=2 n=71 v=103
283648 On ch=2 n=77 v=103
283879 Off ch=2 n=71 v=0
283879 Off ch=2 n=77 v=0
283904 On ch=2 n=72 v=95
283904 On ch=2 n=77 v=95
284135 Off ch=2 n=72 v=0
284135 Off ch=2 n=77 v=0
284160 On ch=2 n=74 v=99
284160 On ch=2 n=77 v=99
284391 Off ch=2 n=74 v=0
284391 Off ch=2 n=77 v=0
284416 On ch=2 n=72 v=90
284416 On ch=2 n=75 v=90
285389 Off ch=2 n=72 v=0
285389 Off ch=2 n=75 v=0
285440 On ch=2 n=72 v=106
285440 On ch=2 n=77 v=106
286413 Off ch=2 n=72 v=0
286413 Off ch=2 n=77 v=0
286464 On ch=2 n=72 v=104
286464 On ch=2 n=79 v=104
287437 Off ch=2 n=72 v=0
287437 Off ch=2 n=79 v=0
287488 On ch=2 n=72 v=104
287488 On ch=2 n=80 v=104
287949 Off ch=2 n=80 v=0
288000 On ch=2 n=77 v=94
288461 Off ch=2 n=72 v=0
288461 Off ch=2 n=77 v=0
288512 On ch=2 n=71 v=95
288512 On ch=2 n=77 v=95
288973 Off ch=2 n=71 v=0
288973 Off ch=2 n=77 v=0
289024 On ch=2 n=74 v=106
289024 On ch=2 n=79 v=106
289485 Off ch=2 n=74 v=0
289485 Off ch=2 n=79 v=0
289536 On ch=2 n=75 v=96
289536 On ch=2 n=79 v=96
289651 Off ch=2 n=75 v=0
289651 Off ch=2 n=79 v=0
290048 On ch=2 n=75 v=86
290048 On ch=2 n=84 v=86
290163 Off ch=2 n=75 v=0
290163 Off ch=2 n=84 v=0
290560 On ch=2 n=80 v=86
290560 On ch=2 n=84 v=86
290675 Off ch=2 n=80 v=0
290675 Off ch=2 n=84 v=0
291072 On ch=2 n=80 v=86
291072 On ch=2 n=84 v=86
291187 Off ch=2 n=80 v=0
291187 Off ch=2 n=84 v=0
291584 On ch=2 n=79 v=93
291584 On ch=2 n=84 v=93
291699 Off ch=2 n=79 v=0
291699 Off ch=2 n=84 v=0
292096 On ch=2 n=79 v=89
292096 On ch=2 n=83 v=89
292211 Off ch=2 n=79 v=0
292211 Off ch=2 n=83 v=0
292608 On ch=2 n=72 v=89
292608 On ch=2 n=84 v=89
293069 Off ch=2 n=72 v=0
293069 Off ch=2 n=84 v=0
293120 On ch=2 n=72 v=94
293120 On ch=2 n=84 v=94
293235 Off ch=2 n=72 v=0
293235 Off ch=2 n=84 v=0
293376 On ch=2 n=72 v=98
293376 On ch=2 n=84 v=98
293491 Off ch=2 n=72 v=0
293491 Off ch=2 n=84 v=0
293632 On ch=2 n=72 v=104
293632 On ch=2 n=84 v=104
294093 Off ch=2 n=72 v=0
294093 Off ch=2 n=84 v=0
295168 On ch=2 n=72 v=99
295168 On ch=2 n=84 v=99
295283 Off ch=2 n=72 v=0
295283 Off ch=2 n=84 v=0
295424 On ch=2 n=72 v=97
295424 On ch=2 n=84 v=97
295539 Off ch=2 n=72 v=0
295539 Off ch=2 n=84 v=0
295680 On ch=2 n=72 v=100
295680 On ch=2 n=84 v=100
296141 Off ch=2 n=72 v=0
296141 Off ch=2 n=84 v=0
297216 On ch=2 n=67 v=86
297216 On ch=2 n=79 v=86
297331 Off ch=2 n=67 v=0
297331 Off ch=2 n=79 v=0
297472 On ch=2 n=67 v=96
297472 On ch=2 n=79 v=96
297587 Off ch=2 n=67 v=0
297587 Off ch=2 n=79 v=0
297728 On ch=2 n=67 v=104
297728 On ch=2 n=79 v=104
298189 Off ch=2 n=67 v=0
298189 Off ch=2 n=79 v=0
299264 On ch=2 n=67 v=96
299264 On ch=2 n=79 v=96
299379 Off ch=2 n=67 v=0
299379 Off ch=2 n=79 v=0
299520 On ch=2 n=67 v=102
299520 On ch=2 n=79 v=102
299635 Off ch=2 n=67 v=0
299635 Off ch=2 n=79 v=0
299776 On ch=2 n=67 v=99
299776 On ch=2 n=79 v=99
300237 Off ch=2 n=67 v=0
300237 Off ch=2 n=79 v=0
300288 On ch=2 n=80 v=113
300288 On ch=2 n=84 v=113
300544 On ch=2 n=79 v=110
300544 On ch=2 n=82 v=110
300549 Off ch=2 n=80 v=0
300549 Off ch=2 n=84 v=0
300800 On ch=2 n=77 v=91
300800 On ch=2 n=80 v=91
300805 Off ch=2 n=79 v=0
300805 Off ch=2 n=82 v=0
301056 On ch=2 n=75 v=85
301056 On ch=2 n=79 v=85
301061 Off ch=2 n=77 v=0
301061 Off ch=2 n=80 v=0
301299 Off ch=2 n=75 v=0
301299 Off ch=2 n=79 v=0
301824 On ch=2 n=77 v=114
301824 On ch=2 n=80 v=114
302080 On ch=2 n=75 v=114
302080 On ch=2 n=79 v=114
302085 Off ch=2 n=77 v=0
302085 Off ch=2 n=80 v=0
302323 Off ch=2 n=75 v=0
302323 Off ch=2 n=79 v=0
302336 On ch=2 n=77 v=111
302336 On ch=2 n=84 v=111
302592 Off ch=2 n=84 v=0
302592 On ch=2 n=75 v=117
302592 On ch=2 n=84 v=117
302597 Off ch=2 n=77 v=0
302835 Off ch=2 n=75 v=0
302835 Off ch=2 n=84 v=0
303104 On ch=2 n=75 v=87
303104 On ch=2 n=84 v=87
303335 Off ch=2 n=75 v=0
303335 Off ch=2 n=84 v=0
303616 On ch=2 n=74 v=90
303616 On ch=2 n=83 v=90
303847 Off ch=2 n=74 v=0
303847 Off ch=2 n=83 v=0
305408 On ch=2 n=77 v=89
305408 On ch=2 n=80 v=89
305664 On ch=2 n=75 v=83
305664 On ch=2 n=79 v=83
305669 Off ch=2 n=77 v=0
305669 Off ch=2 n=80 v=0
305907 Off ch=2 n=75 v=0
305907 Off ch=2 n=79 v=0
306432 On ch=2 n=77 v=112
306432 On ch=2 n=84 v=112
306688 Off ch=2 n=84 v=0
306688 On ch=2 n=75 v=115
306688 On ch=2 n=84 v=115
306693 Off ch=2 n=77 v=0
306931 Off ch=2 n=75 v=0
306931 Off ch=2 n=84 v=0
307200 On ch=2 n=75 v=91
307200 On ch=2 n=84 v=91
307431 Off ch=2 n=75 v=0
307431 Off ch=2 n=84 v=0
307712 On ch=2 n=74 v=91
307712 On ch=2 n=83 v=91
307943 Off ch=2 n=74 v=0
307943 Off ch=2 n=83 v=0
307968 On ch=2 n=75 v=103
307968 On ch=2 n=84 v=103
308199 Off ch=2 n=75 v=0
308199 Off ch=2 n=84 v=0
308608 On ch=2 n=74 v=85
308608 On ch=2 n=83 v=85
308724 Off ch=2 n=74 v=0
308724 Off ch=2 n=83 v=0
308736 On ch=2 n=74 v=101
308736 On ch=2 n=83 v=101
308852 Off ch=2 n=74 v=0
308852 Off ch=2 n=83 v=0
308864 On ch=2 n=74 v=99
308864 On ch=2 n=83 v=99
308980 Off ch=2 n=74 v=0
308980 Off ch=2 n=83 v=0
308992 On ch=2 n=74 v=103
308992 On ch=2 n=83 v=103
309735 Off ch=2 n=74 v=0
309735 Off ch=2 n=83 v=0
309760 On ch=2 n=75 v=106
309760 On ch=2 n=84 v=106
310016 On ch=2 n=77 v=118
310016 On ch=2 n=86 v=118
310021 Off ch=2 n=75 v=0
310021 Off ch=2 n=84 v=0
310272 On ch=2 n=74 v=93
310272 On ch=2 n=83 v=93
310277 Off ch=2 n=77 v=0
310277 Off ch=2 n=86 v=0
310528 On ch=2 n=75 v=98
310528 On ch=2 n=84 v=98
310533 Off ch=2 n=74 v=0
310533 Off ch=2 n=83 v=0
310784 On ch=2 n=77 v=101
310784 On ch=2 n=86 v=101
310789 Off ch=2 n=75 v=0
310789 Off ch=2 n=84 v=0
311027 Off ch=2 n=77 v=0
311027 Off ch=2 n=86 v=0
311040 On ch=2 n=75 v=95
311040 On ch=2 n=84 v=95
311271 Off ch=2 n=75 v=0
311271 Off ch=2 n=84 v=0
311680 On ch=2 n=79 v=90
311796 Off ch=2 n=79 v=0
311808 On ch=2 n=79 v=95
311924 Off ch=2 n=79 v=0
311936 On ch=2 n=79 v=97
312052 Off ch=2 n=79 v=0
312064 On ch=2 n=79 v=95
312180 Off ch=2 n=79 v=0
312192 On ch=2 n=79 v=99
312308 Off ch=2 n=79 v=0
312320 On ch=2 n=79 v=105
312436 Off ch=2 n=79 v=0
312448 On ch=2 n=79 v=98
312564 Off ch=2 n=79 v=0
312576 On ch=2 n=79 v=96
312692 Off ch=2 n=79 v=0
312704 On ch=2 n=79 v=98
312820 Off ch=2 n=79 v=0
312832 On ch=2 n=79 v=95
312948 Off ch=2 n=79 v=0
312960 On ch=2 n=79 v=94
313076 Off ch=2 n=79 v=0
313088 On ch=2 n=75 v=113
313088 On ch=2 n=79 v=113
313856 Off ch=2 n=75 v=0
313856 Off ch=2 n=79 v=0
313984 On ch=2 n=77 v=101
313984 On ch=2 n=79 v=101
314100 Off ch=2 n=77 v=0
314100 Off ch=2 n=79 v=0
314112 On ch=2 n=77 v=111
314112 On ch=2 n=79 v=111
314228 Off ch=2 n=77 v=0
314228 Off ch=2 n=79 v=0
314240 On ch=2 n=77 v=112
314240 On ch=2 n=79 v=112
314356 Off ch=2 n=77 v=0
314356 Off ch=2 n=79 v=0
314368 On ch=2 n=74 v=114
314368 On ch=2 n=79 v=114
315648 Off ch=2 n=74 v=0
315648 Off ch=2 n=79 v=0
317440 On ch=2 n=80 v=65
317696 On ch=2 n=79 v=65
317701 Off ch=2 n=80 v=0
318182 Off ch=2 n=79 v=0
319488 On ch=2 n=80 v=65
319744 On ch=2 n=79 v=61
319749 Off ch=2 n=80 v=0
319865 Off ch=2 n=79 v=0
319872 On ch=2 n=74 v=110
319872 On ch=2 n=79 v=110
319988 Off ch=2 n=74 v=0
319988 Off ch=2 n=79 v=0
320000 On ch=2 n=74 v=110
320000 On ch=2 n=79 v=110
320116 Off ch=2 n=74 v=0
320116 Off ch=2 n=79 v=0
320128 On ch=2 n=74 v=120
320128 On ch=2 n=79 v=120
320244 Off ch=2 n=74 v=0
320244 Off ch=2 n=79 v=0
320256 On ch=2 n=75 v=113
320256 On ch=2 n=79 v=113
320487 Off ch=2 n=75 v=0
320487 Off ch=2 n=79 v=0
320896 On ch=2 n=74 v=96
320896 On ch=2 n=83 v=96
321012 Off ch=2 n=74 v=0
321012 Off ch=2 n=83 v=0
321024 On ch=2 n=74 v=111
321024 On ch=2 n=83 v=111
321140 Off ch=2 n=74 v=0
321140 Off ch=2 n=83 v=0
321152 On ch=2 n=74 v=114
321152 On ch=2 n=83 v=114
321268 Off ch=2 n=74 v=0
321268 Off ch=2 n=83 v=0
321280 On ch=2 n=75 v=122
321280 On ch=2 n=84 v=122
321511 Off ch=2 n=75 v=0
321511 Off ch=2 n=84 v=0
321920 On ch=2 n=74 v=106
321920 On ch=2 n=83 v=106
322036 Off ch=2 n=74 v=0
322036 Off ch=2 n=83 v=0
322048 On ch=2 n=74 v=109
322048 On ch=2 n=83 v=109
322164 Off ch=2 n=74 v=0
322164 Off ch=2 n=83 v=0
322176 On ch=2 n=74 v=112
322176 On ch=2 n=83 v=112
322292 Off ch=2 n=74 v=0
322292 Off ch=2 n=83 v=0
322304 On ch=2 n=75 v=118
322304 On ch=2 n=84 v=118
322535 Off ch=2 n=75 v=0
322535 Off ch=2 n=84 v=0
322560 On ch=2 n=74 v=105
322560 On ch=2 n=83 v=105
322791 Off ch=2 n=74 v=0
322791 Off ch=2 n=83 v=0
322816 On ch=2 n=75 v=122
322816 On ch=2 n=84 v=122
323047 Off ch=2 n=75 v=0
323047 Off ch=2 n=84 v=0
323072 On ch=2 n=74 v=107
323072 On ch=2 n=83 v=107
323303 Off ch=2 n=74 v=0
323303 Off ch=2 n=83 v=0
323328 On ch=2 n=75 v=119
323328 On ch=2 n=84 v=119
323559 Off ch=2 n=75 v=0
323559 Off ch=2 n=84 v=0
323584 On ch=2 n=74 v=107
323584 On ch=2 n=83 v=107
323815 Off ch=2 n=74 v=0
323815 Off ch=2 n=83 v=0
323840 On ch=2 n=75 v=120
323840 On ch=2 n=84 v=120
324071 Off ch=2 n=75 v=0
324071 Off ch=2 n=84 v=0
324096 On ch=2 n=74 v=111
324096 On ch=2 n=83 v=111
324327 Off ch=2 n=74 v=0
324327 Off ch=2 n=83 v=0
324352 On ch=2 n=75 v=118
324352 On ch=2 n=84 v=118
324583 Off ch=2 n=75 v=0
324583 Off ch=2 n=84 v=0
324864 On ch=2 n=74 v=105
324864 On ch=2 n=83 v=105
325095 Off ch=2 n=74 v=0
325095 Off ch=2 n=83 v=0
325376 On ch=2 n=75 v=103
325376 On ch=2 n=84 v=103
325607 Off ch=2 n=75 v=0
325607 Off ch=2 n=84 v=0
128 On ch=3 n=67 v=102
244 Off ch=3 n=67 v=0
256 On ch=3 n=67 v=107
372 Off ch=3 n=67 v=0
384 On ch=3 n=67 v=114
500 Off ch=3 n=67 v=0
512 On ch=3 n=63 v=99
1280 Off ch=3 n=63 v=0
1408 On ch=3 n=65 v=102
1524 Off ch=3 n=65 v=0
1536 On ch=3 n=65 v=119
1652 Off ch=3 n=65 v=0
1664 On ch=3 n=65 v=112
1780 Off ch=3 n=65 v=0
1792 On ch=3 n=62 v=103
3072 Off ch=3 n=62 v=0
9344 On ch=3 n=55 v=59
9344 On ch=3 n=59 v=59
9460 Off ch=3 n=55 v=0
9460 Off ch=3 n=59 v=0
9472 On ch=3 n=59 v=73
9472 On ch=3 n=62 v=73
9588 Off ch=3 n=59 v=0
9588 Off ch=3 n=62 v=0
9600 On ch=3 n=62 v=91
9600 On ch=3 n=67 v=91
9716 Off ch=3 n=62 v=0
9716 Off ch=3 n=67 v=0
9728 On ch=3 n=63 v=97
9728 On ch=3 n=67 v=97
9959 Off ch=3 n=63 v=0
9959 Off ch=3 n=67 v=0
10240 On ch=3 n=60 v=87
10240 On ch=3 n=66 v=87
10471 Off ch=3 n=60 v=0
10471 Off ch=3 n=66 v=0
10752 On ch=3 n=59 v=88
10752 On ch=3 n=62 v=88
10983 Off ch=3 n=59 v=0
10983 Off ch=3 n=62 v=0
11520 On ch=3 n=68 v=87
11636 Off ch=3 n=68 v=0
11648 On ch=3 n=68 v=90
11764 Off ch=3 n=68 v=0
11776 On ch=3 n=68 v=98
11892 Off ch=3 n=68 v=0
11904 On ch=3 n=65 v=92
13184 Off ch=3 n=65 v=0
16896 On ch=3 n=74 v=56
17012 Off ch=3 n=74 v=0
17024 On ch=3 n=74 v=57
17140 Off ch=3 n=74 v=0
17152 On ch=3 n=74 v=62
17268 Off ch=3 n=74 v=0
17280 On ch=3 n=72 v=56
17511 Off ch=3 n=72 v=0
19840 On ch=3 n=65 v=66
19840 On ch=3 n=68 v=66
20071 Off ch=3 n=65 v=0
20071 Off ch=3 n=68 v=0
20352 On ch=3 n=64 v=62
20352 On ch=3 n=67 v=62
20583 Off ch=3 n=64 v=0
20583 Off ch=3 n=67 v=0
20864 On ch=3 n=65 v=60
20864 On ch=3 n=68 v=60
21095 Off ch=3 n=65 v=0
21095 Off ch=3 n=68 v=0
21376 On ch=3 n=67 v=60
21376 On ch=3 n=70 v=60
21607 Off ch=3 n=67 v=0
21607 Off ch=3 n=70 v=0
21888 On ch=3 n=65 v=67
21888 On ch=3 n=68 v=67
22119 Off ch=3 n=65 v=0
22119 Off ch=3 n=68 v=0
22400 On ch=3 n=62 v=64
22400 On ch=3 n=65 v=64
22631 Off ch=3 n=62 v=0
22631 Off ch=3 n=65 v=0
22912 On ch=3 n=63 v=91
22912 On ch=3 n=67 v=91
24909 Off ch=3 n=63 v=0
24909 Off ch=3 n=67 v=0
24960 On ch=3 n=62 v=94
24960 On ch=3 n=65 v=94
26727 Off ch=3 n=62 v=0
26727 Off ch=3 n=65 v=0
26752 On ch=3 n=60 v=95
26752 On ch=3 n=63 v=95
26983 Off ch=3 n=60 v=0
26983 Off ch=3 n=63 v=0
27008 On ch=3 n=66 v=127
27008 On ch=3 n=75 v=127
29005 Off ch=3 n=66 v=0
29005 Off ch=3 n=75 v=0
29056 On ch=3 n=66 v=118
29056 On ch=3 n=75 v=118
29287 Off ch=3 n=66 v=0
29287 Off ch=3 n=75 v=0
30080 On ch=3 n=70 v=104
30311 Off ch=3 n=70 v=0
34688 On ch=3 n=70 v=74
34944 On ch=3 n=75 v=88
34949 Off ch=3 n=70 v=0
35200 On ch=3 n=74 v=77
35205 Off ch=3 n=75 v=0
35456 On ch=3 n=75 v=83
35461 Off ch=3 n=74 v=0
35712 On ch=3 n=77 v=85
35717 Off ch=3 n=75 v=0
35968 On ch=3 n=72 v=74
35973 Off ch=3 n=77 v=0
36211 Off ch=3 n=72 v=0
36224 On ch=3 n=72 v=84
36480 On ch=3 n=70 v=77
36485 Off ch=3 n=72 v=0
36723 Off ch=3 n=70 v=0
42880 On ch=3 n=72 v=66
42880 On ch=3 n=75 v=66
44365 Off ch=3 n=72 v=0
44365 Off ch=3 n=75 v=0
44416 On ch=3 n=70 v=59
44416 On ch=3 n=75 v=59
45389 Off ch=3 n=70 v=0
45389 Off ch=3 n=75 v=0
45440 On ch=3 n=69 v=67
45440 On ch=3 n=75 v=67
47719 Off ch=3 n=69 v=0
47719 Off ch=3 n=75 v=0
47744 On ch=3 n=69 v=85
47744 On ch=3 n=75 v=85
47975 Off ch=3 n=69 v=0
47975 Off ch=3 n=75 v=0
48000 On ch=3 n=69 v=101
48000 On ch=3 n=75 v=101
48231 Off ch=3 n=69 v=0
48231 Off ch=3 n=75 v=0
48256 On ch=3 n=69 v=97
48256 On ch=3 n=75 v=97
48487 Off ch=3 n=69 v=0
48487 Off ch=3 n=75 v=0
48512 On ch=3 n=68 v=99
48512 On ch=3 n=70 v=99
49255 Off ch=3 n=68 v=0
49255 Off ch=3 n=70 v=0
49280 On ch=3 n=65 v=116
49280 On ch=3 n=70 v=116
49511 Off ch=3 n=65 v=0
49511 Off ch=3 n=70 v=0
49536 On ch=3 n=67 v=113
49536 On ch=3 n=70 v=113
49767 Off ch=3 n=67 v=0
49767 Off ch=3 n=70 v=0
50048 On ch=3 n=68 v=102
50048 On ch=3 n=70 v=102
50279 Off ch=3 n=68 v=0
50279 Off ch=3 n=70 v=0
50560 On ch=3 n=67 v=99
50560 On ch=3 n=70 v=99
50791 Off ch=3 n=67 v=0
50791 Off ch=3 n=70 v=0
51072 On ch=3 n=65 v=99
51072 On ch=3 n=72 v=99
51303 Off ch=3 n=65 v=0
51303 Off ch=3 n=72 v=0
51584 On ch=3 n=67 v=98
51584 On ch=3 n=70 v=98
51815 Off ch=3 n=67 v=0
51815 Off ch=3 n=70 v=0
52096 On ch=3 n=65 v=93
52096 On ch=3 n=70 v=93
52212 Off ch=3 n=65 v=0
52212 Off ch=3 n=70 v=0
52224 On ch=3 n=69 v=127
52224 On ch=3 n=81 v=127
52352 On ch=3 n=70 v=127
52352 On ch=3 n=82 v=127
52354 Off ch=3 n=69 v=0
52354 Off ch=3 n=81 v=0
52480 On ch=3 n=69 v=109
52480 On ch=3 n=81 v=109
52482 Off ch=3 n=70 v=0
52482 Off ch=3 n=82 v=0
52608 On ch=3 n=70 v=118
52608 On ch=3 n=82 v=118
52610 Off ch=3 n=69 v=0
52610 Off ch=3 n=81 v=0
52736 On ch=3 n=69 v=114
52736 On ch=3 n=81 v=114
52738 Off ch=3 n=70 v=0
52738 Off ch=3 n=82 v=0
52864 On ch=3 n=70 v=122
52864 On ch=3 n=82 v=122
52866 Off ch=3 n=69 v=0
52866 Off ch=3 n=81 v=0
52992 On ch=3 n=69 v=118
52992 On ch=3 n=81 v=118
52994 Off ch=3 n=70 v=0
52994 Off ch=3 n=82 v=0
53113 Off ch=3 n=69 v=0
53113 Off ch=3 n=81 v=0
53120 On ch=3 n=70 v=117
53120 On ch=3 n=82 v=117
53178 Off ch=3 n=70 v=0
53178 Off ch=3 n=82 v=0
53248 On ch=3 n=72 v=116
53248 On ch=3 n=84 v=116
53306 Off ch=3 n=72 v=0
53306 Off ch=3 n=84 v=0
53376 On ch=3 n=70 v=112
53376 On ch=3 n=82 v=112
53434 Off ch=3 n=70 v=0
53434 Off ch=3 n=82 v=0
53504 On ch=3 n=68 v=105
53504 On ch=3 n=80 v=105
53562 Off ch=3 n=68 v=0
53562 Off ch=3 n=80 v=0
53632 On ch=3 n=67 v=104
53632 On ch=3 n=79 v=104
53863 Off ch=3 n=67 v=0
53863 Off ch=3 n=79 v=0
53888 On ch=3 n=67 v=112
53888 On ch=3 n=79 v=112
54119 Off ch=3 n=67 v=0
54119 Off ch=3 n=79 v=0
54400 On ch=3 n=65 v=107
54400 On ch=3 n=74 v=107
54631 Off ch=3 n=65 v=0
54631 Off ch=3 n=74 v=0
54912 On ch=3 n=67 v=101
54912 On ch=3 n=75 v=101
55143 Off ch=3 n=67 v=0
55143 Off ch=3 n=75 v=0
55424 On ch=3 n=65 v=101
55424 On ch=3 n=68 v=101
55655 Off ch=3 n=65 v=0
55655 Off ch=3 n=68 v=0
55936 On ch=3 n=63 v=102
55936 On ch=3 n=67 v=102
56167 Off ch=3 n=63 v=0
56167 Off ch=3 n=67 v=0
56448 On ch=3 n=65 v=105
56448 On ch=3 n=74 v=105
56679 Off ch=3 n=65 v=0
56679 Off ch=3 n=74 v=0
56704 On ch=3 n=67 v=118
56704 On ch=3 n=75 v=118
56820 Off ch=3 n=67 v=0
56820 Off ch=3 n=75 v=0
56832 On ch=3 n=79 v=126
56948 Off ch=3 n=79 v=0
56960 On ch=3 n=79 v=118
57076 Off ch=3 n=79 v=0
57088 On ch=3 n=79 v=112
57204 Off ch=3 n=79 v=0
57216 On ch=3 n=75 v=102
57332 Off ch=3 n=75 v=0
57344 On ch=3 n=70 v=127
57344 On ch=3 n=82 v=127
57460 Off ch=3 n=70 v=0
57460 Off ch=3 n=82 v=0
57472 On ch=3 n=70 v=115
57472 On ch=3 n=82 v=115
57588 Off ch=3 n=70 v=0
57588 Off ch=3 n=82 v=0
57600 On ch=3 n=70 v=114
57600 On ch=3 n=82 v=114
57716 Off ch=3 n=70 v=0
57716 Off ch=3 n=82 v=0
57728 On ch=3 n=67 v=103
57728 On ch=3 n=79 v=103
57844 Off ch=3 n=67 v=0
57844 Off ch=3 n=79 v=0
57856 On ch=3 n=63 v=97
57856 On ch=3 n=75 v=97
57972 Off ch=3 n=63 v=0
57972 Off ch=3 n=75 v=0
57984 On ch=3 n=63 v=111
57984 On ch=3 n=75 v=111
58100 Off ch=3 n=63 v=0
58100 Off ch=3 n=75 v=0
58112 On ch=3 n=63 v=111
58112 On ch=3 n=75 v=111
58228 Off ch=3 n=63 v=0
58228 Off ch=3 n=75 v=0
58240 On ch=3 n=58 v=96
58240 On ch=3 n=70 v=96
58868 Off ch=3 n=58 v=0
58868 Off ch=3 n=70 v=0
58880 On ch=3 n=79 v=127
58996 Off ch=3 n=79 v=0
59008 On ch=3 n=79 v=115
59124 Off ch=3 n=79 v=0
59136 On ch=3 n=79 v=106
59252 Off ch=3 n=79 v=0
59264 On ch=3 n=75 v=104
59380 Off ch=3 n=75 v=0
59392 On ch=3 n=70 v=127
59392 On ch=3 n=82 v=127
59508 Off ch=3 n=70 v=0
59508 Off ch=3 n=82 v=0
59520 On ch=3 n=70 v=113
59520 On ch=3 n=82 v=113
59636 Off ch=3 n=70 v=0
59636 Off ch=3 n=82 v=0
59648 On ch=3 n=70 v=113
59648 On ch=3 n=82 v=113
59764 Off ch=3 n=70 v=0
59764 Off ch=3 n=82 v=0
59776 On ch=3 n=67 v=104
59776 On ch=3 n=79 v=104
59892 Off ch=3 n=67 v=0
59892 Off ch=3 n=79 v=0
59904 On ch=3 n=63 v=100
59904 On ch=3 n=75 v=100
60020 Off ch=3 n=63 v=0
60020 Off ch=3 n=75 v=0
60032 On ch=3 n=63 v=110
60032 On ch=3 n=75 v=110
60148 Off ch=3 n=63 v=0
60148 Off ch=3 n=75 v=0
60160 On ch=3 n=63 v=115
60160 On ch=3 n=75 v=115
60276 Off ch=3 n=63 v=0
60276 Off ch=3 n=75 v=0
60288 On ch=3 n=58 v=94
60288 On ch=3 n=70 v=94
61031 Off ch=3 n=58 v=0
61031 Off ch=3 n=70 v=0
61440 On ch=3 n=65 v=103
61440 On ch=3 n=74 v=103
61556 Off ch=3 n=65 v=0
61556 Off ch=3 n=74 v=0
61568 On ch=3 n=65 v=112
61568 On ch=3 n=74 v=112
61684 Off ch=3 n=65 v=0
61684 Off ch=3 n=74 v=0
61696 On ch=3 n=65 v=112
61696 On ch=3 n=74 v=112
61812 Off ch=3 n=65 v=0
61812 Off ch=3 n=74 v=0
61824 On ch=3 n=67 v=118
61824 On ch=3 n=75 v=118
62055 Off ch=3 n=67 v=0
62055 Off ch=3 n=75 v=0
62464 On ch=3 n=74 v=106
62464 On ch=3 n=77 v=106
62580 Off ch=3 n=74 v=0
62580 Off ch=3 n=77 v=0
62592 On ch=3 n=74 v=110
62592 On ch=3 n=77 v=110
62708 Off ch=3 n=74 v=0
62708 Off ch=3 n=77 v=0
62720 On ch=3 n=74 v=114
62720 On ch=3 n=77 v=114
62836 Off ch=3 n=74 v=0
62836 Off ch=3 n=77 v=0
62848 On ch=3 n=67 v=108
62848 On ch=3 n=75 v=108
63079 Off ch=3 n=67 v=0
63079 Off ch=3 n=75 v=0
64512 On ch=3 n=67 v=100
64628 Off ch=3 n=67 v=0
64640 On ch=3 n=67 v=113
64756 Off ch=3 n=67 v=0
64768 On ch=3 n=67 v=113
64884 Off ch=3 n=67 v=0
64896 On ch=3 n=63 v=100
65664 Off ch=3 n=63 v=0
65792 On ch=3 n=65 v=111
65908 Off ch=3 n=65 v=0
65920 On ch=3 n=65 v=112
66036 Off ch=3 n=65 v=0
66048 On ch=3 n=65 v=110
66164 Off ch=3 n=65 v=0
66176 On ch=3 n=62 v=103
67456 Off ch=3 n=62 v=0
73728 On ch=3 n=55 v=53
73728 On ch=3 n=59 v=53
73844 Off ch=3 n=55 v=0
73844 Off ch=3 n=59 v=0
73856 On ch=3 n=59 v=70
73856 On ch=3 n=62 v=70
73972 Off ch=3 n=59 v=0
73972 Off ch=3 n=62 v=0
73984 On ch=3 n=62 v=90
73984 On ch=3 n=67 v=90
74100 Off ch=3 n=62 v=0
74100 Off ch=3 n=67 v=0
74112 On ch=3 n=63 v=100
74112 On ch=3 n=67 v=100
74343 Off ch=3 n=63 v=0
74343 Off ch=3 n=67 v=0
74624 On ch=3 n=60 v=87
74624 On ch=3 n=66 v=87
74855 Off ch=3 n=60 v=0
74855 Off ch=3 n=66 v=0
75136 On ch=3 n=59 v=92
75136 On ch=3 n=62 v=92
75367 Off ch=3 n=59 v=0
75367 Off ch=3 n=62 v=0
75904 On ch=3 n=68 v=90
76020 Off ch=3 n=68 v=0
76032 On ch=3 n=68 v=95
76148 Off ch=3 n=68 v=0
76160 On ch=3 n=68 v=96
76276 Off ch=3 n=68 v=0
76288 On ch=3 n=65 v=90
77568 Off ch=3 n=65 v=0
81280 On ch=3 n=74 v=55
81396 Off ch=3 n=74 v=0
81408 On ch=3 n=74 v=55
81524 Off ch=3 n=74 v=0
81536 On ch=3 n=74 v=61
81652 Off ch=3 n=74 v=0
81664 On ch=3 n=72 v=60
81895 Off ch=3 n=72 v=0
84224 On ch=3 n=65 v=60
84224 On ch=3 n=68 v=60
84455 Off ch=3 n=65 v=0
84455 Off ch=3 n=68 v=0
84736 On ch=3 n=64 v=65
84736 On ch=3 n=67 v=65
84967 Off ch=3 n=64 v=0
84967 Off ch=3 n=67 v=0
85248 On ch=3 n=65 v=63
85248 On ch=3 n=68 v=63
85479 Off ch=3 n=65 v=0
85479 Off ch=3 n=68 v=0
85760 On ch=3 n=67 v=65
85760 On ch=3 n=70 v=65
85991 Off ch=3 n=67 v=0
85991 Off ch=3 n=70 v=0
86272 On ch=3 n=65 v=61
86272 On ch=3 n=68 v=61
86503 Off ch=3 n=65 v=0
86503 Off ch=3 n=68 v=0
86784 On ch=3 n=62 v=60
86784 On ch=3 n=65 v=60
87015 Off ch=3 n=62 v=0
87015 Off ch=3 n=65 v=0
87296 On ch=3 n=63 v=89
87296 On ch=3 n=67 v=89
89293 Off ch=3 n=63 v=0
89293 Off ch=3 n=67 v=0
89344 On ch=3 n=62 v=89
89344 On ch=3 n=65 v=89
91111 Off ch=3 n=62 v=0
91111 Off ch=3 n=65 v=0
91136 On ch=3 n=60 v=89
91136 On ch=3 n=63 v=89
91367 Off ch=3 n=60 v=0
91367 Off ch=3 n=63 v=0
91392 On ch=3 n=66 v=127
91392 On ch=3 n=75 v=127
93389 Off ch=3 n=66 v=0
93389 Off ch=3 n=75 v=0
93440 On ch=3 n=66 v=113
93440 On ch=3 n=75 v=113
93671 Off ch=3 n=66 v=0
93671 Off ch=3 n=75 v=0
94464 On ch=3 n=70 v=100
94695 Off ch=3 n=70 v=0
99072 On ch=3 n=70 v=71
99328 On ch=3 n=75 v=85
99333 Off ch=3 n=70 v=0
99584 On ch=3 n=74 v=81
99589 Off ch=3 n=75 v=0
99840 On ch=3 n=75 v=86
99845 Off ch=3 n=74 v=0
100096 On ch=3 n=77 v=90
100101 Off ch=3 n=75 v=0
100352 On ch=3 n=72 v=72
100357 Off ch=3 n=77 v=0
100595 Off ch=3 n=72 v=0
100608 On ch=3 n=72 v=83
100864 On ch=3 n=70 v=76
100869 Off ch=3 n=72 v=0
101107 Off ch=3 n=70 v=0
107264 On ch=3 n=72 v=65
107264 On ch=3 n=75 v=65
108749 Off ch=3 n=72 v=0
108749 Off ch=3 n=75 v=0
108800 On ch=3 n=70 v=61
108800 On ch=3 n=75 v=61
109773 Off ch=3 n=70 v=0
109773 Off ch=3 n=75 v=0
109824 On ch=3 n=69 v=72
109824 On ch=3 n=75 v=72
112103 Off ch=3 n=69 v=0
112103 Off ch=3 n=75 v=0
112128 On ch=3 n=69 v=82
112128 On ch=3 n=75 v=82
112359 Off ch=3 n=69 v=0
112359 Off ch=3 n=75 v=0
112384 On ch=3 n=69 v=96
112384 On ch=3 n=75 v=96
112615 Off ch=3 n=69 v=0
112615 Off ch=3 n=75 v=0
112640 On ch=3 n=69 v=98
112640 On ch=3 n=75 v=98
112871 Off ch=3 n=69 v=0
112871 Off ch=3 n=75 v=0
112896 On ch=3 n=68 v=101
112896 On ch=3 n=70 v=101
113639 Off ch=3 n=68 v=0
113639 Off ch=3 n=70 v=0
113664 On ch=3 n=65 v=111
113664 On ch=3 n=70 v=111
113895 Off ch=3 n=65 v=0
113895 Off ch=3 n=70 v=0
113920 On ch=3 n=67 v=113
113920 On ch=3 n=70 v=113
114151 Off ch=3 n=67 v=0
114151 Off ch=3 n=70 v=0
114432 On ch=3 n=68 v=103
114432 On ch=3 n=70 v=103
114663 Off ch=3 n=68 v=0
114663 Off ch=3 n=70 v=0
114944 On ch=3 n=67 v=99
114944 On ch=3 n=70 v=99
115175 Off ch=3 n=67 v=0
115175 Off ch=3 n=70 v=0
115456 On ch=3 n=65 v=101
115456 On ch=3 n=72 v=101
115687 Off ch=3 n=65 v=0
115687 Off ch=3 n=72 v=0
115968 On ch=3 n=67 v=105
115968 On ch=3 n=70 v=105
116199 Off ch=3 n=67 v=0
116199 Off ch=3 n=70 v=0
116480 On ch=3 n=65 v=104
116480 On ch=3 n=70 v=104
116596 Off ch=3 n=65 v=0
116596 Off ch=3 n=70 v=0
116608 On ch=3 n=69 v=127
116608 On ch=3 n=81 v=127
116736 On ch=3 n=70 v=127
116736 On ch=3 n=82 v=127
116738 Off ch=3 n=69 v=0
116738 Off ch=3 n=81 v=0
116864 On ch=3 n=69 v=106
116864 On ch=3 n=81 v=106
116866 Off ch=3 n=70 v=0
116866 Off ch=3 n=82 v=0
116992 On ch=3 n=70 v=122
116992 On ch=3 n=82 v=122
116994 Off ch=3 n=69 v=0
116994 Off ch=3 n=81 v=0
117120 On ch=3 n=69 v=116
117120 On ch=3 n=81 v=116
117122 Off ch=3 n=70 v=0
117122 Off ch=3 n=82 v=0
117248 On ch=3 n=70 v=120
117248 On ch=3 n=82 v=120
117250 Off ch=3 n=69 v=0
117250 Off ch=3 n=81 v=0
117376 On ch=3 n=69 v=116
117376 On ch=3 n=81 v=116
117378 Off ch=3 n=70 v=0
117378 Off ch=3 n=82 v=0
117497 Off ch=3 n=69 v=0
117497 Off ch=3 n=81 v=0
117504 On ch=3 n=70 v=117
117504 On ch=3 n=82 v=117
117562 Off ch=3 n=70 v=0
117562 Off ch=3 n=82 v=0
117632 On ch=3 n=72 v=119
117632 On ch=3 n=84 v=119
117690 Off ch=3 n=72 v=0
117690 Off ch=3 n=84 v=0
117760 On ch=3 n=70 v=107
117760 On ch=3 n=82 v=107
117818 Off ch=3 n=70 v=0
117818 Off ch=3 n=82 v=0
117888 On ch=3 n=68 v=108
117888 On ch=3 n=80 v=108
117946 Off ch=3 n=68 v=0
117946 Off ch=3 n=80 v=0
118016 On ch=3 n=67 v=107
118016 On ch=3 n=79 v=107
118247 Off ch=3 n=67 v=0
118247 Off ch=3 n=79 v=0
118272 On ch=3 n=67 v=112
118272 On ch=3 n=79 v=112
118503 Off ch=3 n=67 v=0
118503 Off ch=3 n=79 v=0
118784 On ch=3 n=65 v=96
118784 On ch=3 n=74 v=96
119015 Off ch=3 n=65 v=0
119015 Off ch=3 n=74 v=0
119296 On ch=3 n=67 v=104
119296 On ch=3 n=75 v=104
119527 Off ch=3 n=67 v=0
119527 Off ch=3 n=75 v=0
119808 On ch=3 n=65 v=100
119808 On ch=3 n=68 v=100
120039 Off ch=3 n=65 v=0
120039 Off ch=3 n=68 v=0
120320 On ch=3 n=63 v=97
120320 On ch=3 n=67 v=97
120551 Off ch=3 n=63 v=0
120551 Off ch=3 n=67 v=0
120832 On ch=3 n=65 v=94
120832 On ch=3 n=74 v=94
121063 Off ch=3 n=65 v=0
121063 Off ch=3 n=74 v=0
121088 On ch=3 n=67 v=117
121088 On ch=3 n=75 v=117
121204 Off ch=3 n=67 v=0
121204 Off ch=3 n=75 v=0
121216 On ch=3 n=79 v=127
121332 Off ch=3 n=79 v=0
121344 On ch=3 n=79 v=112
121460 Off ch=3 n=79 v=0
121472 On ch=3 n=79 v=116
121588 Off ch=3 n=79 v=0
121600 On ch=3 n=75 v=102
121716 Off ch=3 n=75 v=0
121728 On ch=3 n=70 v=127
121728 On ch=3 n=82 v=127
121844 Off ch=3 n=70 v=0
121844 Off ch=3 n=82 v=0
121856 On ch=3 n=70 v=117
121856 On ch=3 n=82 v=117
121972 Off ch=3 n=70 v=0
121972 Off ch=3 n=82 v=0
121984 On ch=3 n=70 v=116
121984 On ch=3 n=82 v=116
122100 Off ch=3 n=70 v=0
122100 Off ch=3 n=82 v=0
122112 On ch=3 n=67 v=106
122112 On ch=3 n=79 v=106
122228 Off ch=3 n=67 v=0
122228 Off ch=3 n=79 v=0
122240 On ch=3 n=63 v=101
122240 On ch=3 n=75 v=101
122356 Off ch=3 n=63 v=0
122356 Off ch=3 n=75 v=0
122368 On ch=3 n=63 v=114
122368 On ch=3 n=75 v=114
122484 Off ch=3 n=63 v=0
122484 Off ch=3 n=75 v=0
122496 On ch=3 n=63 v=110
122496 On ch=3 n=75 v=110
122612 Off ch=3 n=63 v=0
122612 Off ch=3 n=75 v=0
122624 On ch=3 n=58 v=96
122624 On ch=3 n=70 v=96
123252 Off ch=3 n=58 v=0
123252 Off ch=3 n=70 v=0
123264 On ch=3 n=79 v=127
123380 Off ch=3 n=79 v=0
123392 On ch=3 n=79 v=119
123508 Off ch=3 n=79 v=0
123520 On ch=3 n=79 v=113
123636 Off ch=3 n=79 v=0
123648 On ch=3 n=75 v=100
123764 Off ch=3 n=75 v=0
123776 On ch=3 n=70 v=127
123776 On ch=3 n=82 v=127
123892 Off ch=3 n=70 v=0
123892 Off ch=3 n=82 v=0
123904 On ch=3 n=70 v=117
123904 On ch=3 n=82 v=117
124020 Off ch=3 n=70 v=0
124020 Off ch=3 n=82 v=0
124032 On ch=3 n=70 v=112
124032 On ch=3 n=82 v=112
124148 Off ch=3 n=70 v=0
124148 Off ch=3 n=82 v=0
124160 On ch=3 n=67 v=105
124160 On ch=3 n=79 v=105
124276 Off ch=3 n=67 v=0
124276 Off ch=3 n=79 v=0
124288 On ch=3 n=63 v=97
124288 On ch=3 n=75 v=97
124404 Off ch=3 n=63 v=0
124404 Off ch=3 n=75 v=0
124416 On ch=3 n=63 v=107
124416 On ch=3 n=75 v=107
124532 Off ch=3 n=63 v=0
124532 Off ch=3 n=75 v=0
124544 On ch=3 n=63 v=111
124544 On ch=3 n=75 v=111
124660 Off ch=3 n=63 v=0
124660 Off ch=3 n=75 v=0
124672 On ch=3 n=58 v=95
124672 On ch=3 n=70 v=95
125415 Off ch=3 n=58 v=0
125415 Off ch=3 n=70 v=0
125824 On ch=3 n=65 v=104
125824 On ch=3 n=74 v=104
125940 Off ch=3 n=65 v=0
125940 Off ch=3 n=74 v=0
125952 On ch=3 n=65 v=109
125952 On ch=3 n=74 v=109
126068 Off ch=3 n=65 v=0
126068 Off ch=3 n=74 v=0
126080 On ch=3 n=65 v=113
126080 On ch=3 n=74 v=113
126196 Off ch=3 n=65 v=0
126196 Off ch=3 n=74 v=0
126208 On ch=3 n=67 v=120
126208 On ch=3 n=75 v=120
126439 Off ch=3 n=67 v=0
126439 Off ch=3 n=75 v=0
126848 On ch=3 n=74 v=102
126848 On ch=3 n=77 v=102
126964 Off ch=3 n=74 v=0
126964 Off ch=3 n=77 v=0
126976 On ch=3 n=74 v=114
126976 On ch=3 n=77 v=114
127092 Off ch=3 n=74 v=0
127092 Off ch=3 n=77 v=0
127104 On ch=3 n=74 v=117
127104 On ch=3 n=77 v=117
127220 Off ch=3 n=74 v=0
127220 Off ch=3 n=77 v=0
127232 On ch=3 n=67 v=109
127232 On ch=3 n=75 v=109
127463 Off ch=3 n=67 v=0
127463 Off ch=3 n=75 v=0
128896 On ch=3 n=70 v=103
129012 Off ch=3 n=70 v=0
129024 On ch=3 n=70 v=107
129140 Off ch=3 n=70 v=0
129152 On ch=3 n=70 v=111
129268 Off ch=3 n=70 v=0
129280 On ch=3 n=67 v=104
131072 Off ch=3 n=67 v=0
131712 On ch=3 n=73 v=62
131828 Off ch=3 n=73 v=0
131840 On ch=3 n=73 v=71
131956 Off ch=3 n=73 v=0
131968 On ch=3 n=73 v=72
132084 Off ch=3 n=73 v=0
132096 On ch=3 n=72 v=68
133748 Off ch=3 n=72 v=0
133760 On ch=3 n=73 v=74
133876 Off ch=3 n=73 v=0
133888 On ch=3 n=73 v=74
134004 Off ch=3 n=73 v=0
134016 On ch=3 n=73 v=67
134132 Off ch=3 n=73 v=0
134144 On ch=3 n=72 v=67
135629 Off ch=3 n=72 v=0
135680 On ch=3 n=68 v=70
135680 On ch=3 n=72 v=70
136192 On ch=3 n=67 v=71
136202 Off ch=3 n=68 v=0
136704 On ch=3 n=68 v=67
136714 Off ch=3 n=67 v=0
137216 On ch=3 n=67 v=72
137226 Off ch=3 n=68 v=0
137728 On ch=3 n=68 v=71
137738 Off ch=3 n=67 v=0
137971 Off ch=3 n=68 v=0
138262 Off ch=3 n=72 v=0
139776 On ch=3 n=72 v=57
139776 On ch=3 n=75 v=57
140288 On ch=3 n=71 v=51
140288 On ch=3 n=74 v=51
140298 Off ch=3 n=72 v=0
140298 Off ch=3 n=75 v=0
140800 On ch=3 n=72 v=63
140800 On ch=3 n=75 v=63
140810 Off ch=3 n=71 v=0
140810 Off ch=3 n=74 v=0
141312 On ch=3 n=71 v=64
141312 On ch=3 n=74 v=64
141322 Off ch=3 n=72 v=0
141322 Off ch=3 n=75 v=0
141824 On ch=3 n=72 v=64
141824 On ch=3 n=75 v=64
141834 Off ch=3 n=71 v=0
141834 Off ch=3 n=74 v=0
142067 Off ch=3 n=72 v=0
142067 Off ch=3 n=75 v=0
143488 On ch=3 n=66 v=55
143488 On ch=3 n=74 v=55
143604 Off ch=3 n=66 v=0
143604 Off ch=3 n=74 v=0
143616 On ch=3 n=66 v=64
143616 On ch=3 n=74 v=64
143732 Off ch=3 n=66 v=0
143732 Off ch=3 n=74 v=0
143744 On ch=3 n=69 v=60
143744 On ch=3 n=72 v=60
143860 Off ch=3 n=69 v=0
143860 Off ch=3 n=72 v=0
143872 On ch=3 n=67 v=59
143872 On ch=3 n=70 v=59
144333 Off ch=3 n=67 v=0
144333 Off ch=3 n=70 v=0
144384 On ch=3 n=66 v=55
144384 On ch=3 n=69 v=55
144500 Off ch=3 n=66 v=0
144500 Off ch=3 n=69 v=0
144512 On ch=3 n=66 v=66
144512 On ch=3 n=74 v=66
144628 Off ch=3 n=66 v=0
144628 Off ch=3 n=74 v=0
144640 On ch=3 n=66 v=62
144640 On ch=3 n=74 v=62
144756 Off ch=3 n=66 v=0
144756 Off ch=3 n=74 v=0
144768 On ch=3 n=69 v=59
144768 On ch=3 n=72 v=59
144884 Off ch=3 n=69 v=0
144884 Off ch=3 n=72 v=0
144896 On ch=3 n=67 v=55
144896 On ch=3 n=70 v=55
145357 Off ch=3 n=67 v=0
145357 Off ch=3 n=70 v=0
145408 On ch=3 n=66 v=60
145408 On ch=3 n=69 v=60
145869 Off ch=3 n=66 v=0
145869 Off ch=3 n=69 v=0
145920 On ch=3 n=67 v=64
145920 On ch=3 n=70 v=64
146548 Off ch=3 n=67 v=0
146548 Off ch=3 n=70 v=0
146560 On ch=3 n=67 v=61
146676 Off ch=3 n=67 v=0
146688 On ch=3 n=69 v=64
146804 Off ch=3 n=69 v=0
146816 On ch=3 n=70 v=63
146932 Off ch=3 n=70 v=0
146944 On ch=3 n=66 v=65
146944 On ch=3 n=72 v=65
147175 Off ch=3 n=66 v=0
147175 Off ch=3 n=72 v=0
147584 On ch=3 n=66 v=53
147700 Off ch=3 n=66 v=0
147712 On ch=3 n=69 v=66
147828 Off ch=3 n=69 v=0
147840 On ch=3 n=70 v=61
147956 Off ch=3 n=70 v=0
147968 On ch=3 n=66 v=64
147968 On ch=3 n=72 v=64
148199 Off ch=3 n=66 v=0
148199 Off ch=3 n=72 v=0
148608 On ch=3 n=69 v=59
148724 Off ch=3 n=69 v=0
148736 On ch=3 n=70 v=65
148852 Off ch=3 n=70 v=0
148864 On ch=3 n=72 v=61
148980 Off ch=3 n=72 v=0
148992 On ch=3 n=67 v=66
148992 On ch=3 n=74 v=66
149223 Off ch=3 n=67 v=0
149223 Off ch=3 n=74 v=0
149632 On ch=3 n=67 v=56
149748 Off ch=3 n=67 v=0
149760 On ch=3 n=70 v=69
149876 Off ch=3 n=70 v=0
149888 On ch=3 n=72 v=67
150004 Off ch=3 n=72 v=0
150016 On ch=3 n=67 v=63
150016 On ch=3 n=74 v=63
150247 Off ch=3 n=67 v=0
150247 Off ch=3 n=74 v=0
150656 On ch=3 n=67 v=54
150656 On ch=3 n=70 v=54
150772 Off ch=3 n=67 v=0
150772 Off ch=3 n=70 v=0
150784 On ch=3 n=69 v=73
150784 On ch=3 n=72 v=73
150900 Off ch=3 n=69 v=0
150900 Off ch=3 n=72 v=0
150912 On ch=3 n=70 v=94
150912 On ch=3 n=74 v=94
151028 Off ch=3 n=70 v=0
151028 Off ch=3 n=74 v=0
151040 On ch=3 n=66 v=83
151040 On ch=3 n=69 v=83
152013 Off ch=3 n=66 v=0
152013 Off ch=3 n=69 v=0
152064 On ch=3 n=66 v=100
152064 On ch=3 n=69 v=100
152295 Off ch=3 n=66 v=0
152295 Off ch=3 n=69 v=0
152704 On ch=3 n=67 v=88
152704 On ch=3 n=70 v=88
152820 Off ch=3 n=67 v=0
152820 Off ch=3 n=70 v=0
152832 On ch=3 n=67 v=94
152832 On ch=3 n=70 v=94
152948 Off ch=3 n=67 v=0
152948 Off ch=3 n=70 v=0
152960 On ch=3 n=67 v=98
152960 On ch=3 n=70 v=98
153076 Off ch=3 n=67 v=0
153076 Off ch=3 n=70 v=0
153088 On ch=3 n=67 v=93
153088 On ch=3 n=70 v=93
154061 Off ch=3 n=67 v=0
154061 Off ch=3 n=70 v=0
154112 On ch=3 n=67 v=97
154112 On ch=3 n=70 v=97
154343 Off ch=3 n=67 v=0
154343 Off ch=3 n=70 v=0
154752 On ch=3 n=67 v=95
154752 On ch=3 n=70 v=95
154868 Off ch=3 n=67 v=0
154868 Off ch=3 n=70 v=0
154880 On ch=3 n=67 v=99
154880 On ch=3 n=70 v=99
154996 Off ch=3 n=67 v=0
154996 Off ch=3 n=70 v=0
155008 On ch=3 n=67 v=101
155008 On ch=3 n=70 v=101
155124 Off ch=3 n=67 v=0
155124 Off ch=3 n=70 v=0
155136 On ch=3 n=67 v=108
155136 On ch=3 n=70 v=108
155367 Off ch=3 n=67 v=0
155367 Off ch=3 n=70 v=0
155904 On ch=3 n=67 v=93
155904 On ch=3 n=70 v=93
156020 Off ch=3 n=67 v=0
156020 Off ch=3 n=70 v=0
156032 On ch=3 n=67 v=106
156032 On ch=3 n=70 v=106
156148 Off ch=3 n=67 v=0
156148 Off ch=3 n=70 v=0
156160 On ch=3 n=67 v=106
156160 On ch=3 n=70 v=106
156391 Off ch=3 n=67 v=0
156391 Off ch=3 n=70 v=0
156416 On ch=3 n=62 v=100
156416 On ch=3 n=69 v=100
156532 Off ch=3 n=62 v=0
156532 Off ch=3 n=69 v=0
156544 On ch=3 n=62 v=100
156544 On ch=3 n=69 v=100
156660 Off ch=3 n=62 v=0
156660 Off ch=3 n=69 v=0
156672 On ch=3 n=62 v=103
156672 On ch=3 n=69 v=103
156903 Off ch=3 n=62 v=0
156903 Off ch=3 n=69 v=0
159488 On ch=3 n=72 v=99
159604 Off ch=3 n=72 v=0
159616 On ch=3 n=72 v=112
159732 Off ch=3 n=72 v=0
159744 On ch=3 n=72 v=110
159975 Off ch=3 n=72 v=0
160512 On ch=3 n=66 v=104
160512 On ch=3 n=69 v=104
160628 Off ch=3 n=66 v=0
160628 Off ch=3 n=69 v=0
160640 On ch=3 n=66 v=112
160640 On ch=3 n=69 v=112
160756 Off ch=3 n=66 v=0
160756 Off ch=3 n=69 v=0
160768 On ch=3 n=67 v=118
160768 On ch=3 n=71 v=118
160999 Off ch=3 n=67 v=0
160999 Off ch=3 n=71 v=0
163584 On ch=3 n=71 v=102
163700 Off ch=3 n=71 v=0
163712 On ch=3 n=71 v=110
163828 Off ch=3 n=71 v=0
163840 On ch=3 n=71 v=109
164071 Off ch=3 n=71 v=0
164608 On ch=3 n=71 v=100
164608 On ch=3 n=74 v=100
164724 Off ch=3 n=71 v=0
164724 Off ch=3 n=74 v=0
164736 On ch=3 n=71 v=116
164736 On ch=3 n=74 v=116
164852 Off ch=3 n=71 v=0
164852 Off ch=3 n=74 v=0
164864 On ch=3 n=72 v=117
164864 On ch=3 n=76 v=117
164980 Off ch=3 n=72 v=0
164980 Off ch=3 n=76 v=0
164992 On ch=3 n=72 v=127
164992 On ch=3 n=84 v=127
165108 Off ch=3 n=72 v=0
165108 Off ch=3 n=84 v=0
165120 On ch=3 n=72 v=116
165120 On ch=3 n=84 v=116
165236 Off ch=3 n=72 v=0
165236 Off ch=3 n=84 v=0
165248 On ch=3 n=72 v=116
165248 On ch=3 n=84 v=116
165364 Off ch=3 n=72 v=0
165364 Off ch=3 n=84 v=0
165376 On ch=3 n=65 v=94
165376 On ch=3 n=77 v=94
165888 On ch=3 n=67 v=98
165888 On ch=3 n=79 v=98
165898 Off ch=3 n=65 v=0
165898 Off ch=3 n=77 v=0
166374 Off ch=3 n=67 v=0
166374 Off ch=3 n=79 v=0
167424 On ch=3 n=65 v=108
167424 On ch=3 n=77 v=108
167936 On ch=3 n=67 v=114
167936 On ch=3 n=79 v=114
167946 Off ch=3 n=65 v=0
167946 Off ch=3 n=77 v=0
168422 Off ch=3 n=67 v=0
168422 Off ch=3 n=79 v=0
169472 On ch=3 n=68 v=91
169472 On ch=3 n=72 v=91
169984 On ch=3 n=66 v=93
169984 On ch=3 n=73 v=93
169994 Off ch=3 n=68 v=0
169994 Off ch=3 n=72 v=0
170470 Off ch=3 n=66 v=0
170470 Off ch=3 n=73 v=0
171520 On ch=3 n=69 v=124
171520 On ch=3 n=75 v=124
172032 On ch=3 n=70 v=116
172032 On ch=3 n=73 v=116
172042 Off ch=3 n=69 v=0
172042 Off ch=3 n=75 v=0
172518 Off ch=3 n=70 v=0
172518 Off ch=3 n=73 v=0
173056 On ch=3 n=71 v=106
173517 Off ch=3 n=71 v=0
174080 On ch=3 n=68 v=74
174080 On ch=3 n=73 v=74
174541 Off ch=3 n=68 v=0
174541 Off ch=3 n=73 v=0
175104 On ch=3 n=69 v=58
175104 On ch=3 n=73 v=58
175565 Off ch=3 n=69 v=0
175565 Off ch=3 n=73 v=0
176128 On ch=3 n=69 v=57
176128 On ch=3 n=73 v=57
176589 Off ch=3 n=69 v=0
176589 Off ch=3 n=73 v=0
177152 On ch=3 n=69 v=54
177152 On ch=3 n=73 v=54
177613 Off ch=3 n=69 v=0
177613 Off ch=3 n=73 v=0
178176 On ch=3 n=69 v=52
178176 On ch=3 n=74 v=52
178637 Off ch=3 n=69 v=0
178637 Off ch=3 n=74 v=0
179200 On ch=3 n=69 v=50
179200 On ch=3 n=74 v=50
179661 Off ch=3 n=69 v=0
179661 Off ch=3 n=74 v=0
180224 On ch=3 n=69 v=50
180224 On ch=3 n=74 v=50
180685 Off ch=3 n=69 v=0
180685 Off ch=3 n=74 v=0
181248 On ch=3 n=69 v=53
181248 On ch=3 n=74 v=53
181709 Off ch=3 n=69 v=0
181709 Off ch=3 n=74 v=0
181888 On ch=3 n=74 v=100
182004 Off ch=3 n=74 v=0
182016 On ch=3 n=74 v=111
182132 Off ch=3 n=74 v=0
182144 On ch=3 n=74 v=109
182260 Off ch=3 n=74 v=0
182272 On ch=3 n=71 v=106
182733 Off ch=3 n=71 v=0
182784 On ch=3 n=72 v=117
183245 Off ch=3 n=72 v=0
183296 On ch=3 n=69 v=107
184269 Off ch=3 n=69 v=0
184320 On ch=3 n=68 v=60
184320 On ch=3 n=74 v=60
184781 Off ch=3 n=68 v=0
184781 Off ch=3 n=74 v=0
185344 On ch=3 n=68 v=52
185344 On ch=3 n=74 v=52
185805 Off ch=3 n=68 v=0
185805 Off ch=3 n=74 v=0
186368 On ch=3 n=68 v=49
186368 On ch=3 n=74 v=49
186829 Off ch=3 n=68 v=0
186829 Off ch=3 n=74 v=0
187392 On ch=3 n=68 v=47
187392 On ch=3 n=74 v=47
187853 Off ch=3 n=68 v=0
187853 Off ch=3 n=74 v=0
188544 On ch=3 n=68 v=102
188544 On ch=3 n=80 v=102
188660 Off ch=3 n=68 v=0
188660 Off ch=3 n=80 v=0
188672 On ch=3 n=68 v=111
188672 On ch=3 n=80 v=111
188788 Off ch=3 n=68 v=0
188788 Off ch=3 n=80 v=0
188800 On ch=3 n=68 v=113
188800 On ch=3 n=80 v=113
188916 Off ch=3 n=68 v=0
188916 Off ch=3 n=80 v=0
188928 On ch=3 n=65 v=103
188928 On ch=3 n=77 v=103
189556 Off ch=3 n=65 v=0
189556 Off ch=3 n=77 v=0
189568 On ch=3 n=68 v=123
189568 On ch=3 n=80 v=123
189684 Off ch=3 n=68 v=0
189684 Off ch=3 n=80 v=0
189696 On ch=3 n=68 v=116
189696 On ch=3 n=80 v=116
189812 Off ch=3 n=68 v=0
189812 Off ch=3 n=80 v=0
189824 On ch=3 n=68 v=114
189824 On ch=3 n=80 v=114
189940 Off ch=3 n=68 v=0
189940 Off ch=3 n=80 v=0
189952 On ch=3 n=65 v=102
189952 On ch=3 n=77 v=102
190580 Off ch=3 n=65 v=0
190580 Off ch=3 n=77 v=0
190592 On ch=3 n=68 v=125
190592 On ch=3 n=80 v=125
190708 Off ch=3 n=68 v=0
190708 Off ch=3 n=80 v=0
190720 On ch=3 n=68 v=112
190720 On ch=3 n=80 v=112
190836 Off ch=3 n=68 v=0
190836 Off ch=3 n=80 v=0
190848 On ch=3 n=68 v=111
190848 On ch=3 n=80 v=111
190964 Off ch=3 n=68 v=0
190964 Off ch=3 n=80 v=0
190976 On ch=3 n=65 v=104
190976 On ch=3 n=77 v=104
191092 Off ch=3 n=65 v=0
191092 Off ch=3 n=77 v=0
191104 On ch=3 n=68 v=123
191104 On ch=3 n=80 v=123
191220 Off ch=3 n=68 v=0
191220 Off ch=3 n=80 v=0
191232 On ch=3 n=68 v=113
191232 On ch=3 n=80 v=113
191348 Off ch=3 n=68 v=0
191348 Off ch=3 n=80 v=0
191360 On ch=3 n=68 v=112
191360 On ch=3 n=80 v=112
191476 Off ch=3 n=68 v=0
191476 Off ch=3 n=80 v=0
191488 On ch=3 n=65 v=109
191488 On ch=3 n=77 v=109
191604 Off ch=3 n=65 v=0
191604 Off ch=3 n=77 v=0
191616 On ch=3 n=68 v=117
191616 On ch=3 n=80 v=117
191732 Off ch=3 n=68 v=0
191732 Off ch=3 n=80 v=0
191744 On ch=3 n=68 v=114
191744 On ch=3 n=80 v=114
191860 Off ch=3 n=68 v=0
191860 Off ch=3 n=80 v=0
191872 On ch=3 n=68 v=116
191872 On ch=3 n=80 v=116
191988 Off ch=3 n=68 v=0
191988 Off ch=3 n=80 v=0
192000 On ch=3 n=65 v=101
192000 On ch=3 n=77 v=101
192116 Off ch=3 n=65 v=0
192116 Off ch=3 n=77 v=0
192128 On ch=3 n=67 v=121
192128 On ch=3 n=79 v=121
192244 Off ch=3 n=67 v=0
192244 Off ch=3 n=79 v=0
192256 On ch=3 n=67 v=115
192256 On ch=3 n=79 v=115
192372 Off ch=3 n=67 v=0
192372 Off ch=3 n=79 v=0
192384 On ch=3 n=67 v=113
192384 On ch=3 n=79 v=113
192500 Off ch=3 n=67 v=0
192500 Off ch=3 n=79 v=0
192512 On ch=3 n=63 v=102
192512 On ch=3 n=75 v=102
193280 Off ch=3 n=63 v=0
193280 Off ch=3 n=75 v=0
193408 On ch=3 n=65 v=103
193408 On ch=3 n=77 v=103
193524 Off ch=3 n=65 v=0
193524 Off ch=3 n=77 v=0
193536 On ch=3 n=65 v=113
193536 On ch=3 n=77 v=113
193652 Off ch=3 n=65 v=0
193652 Off ch=3 n=77 v=0
193664 On ch=3 n=65 v=112
193664 On ch=3 n=77 v=112
193780 Off ch=3 n=65 v=0
193780 Off ch=3 n=77 v=0
193792 On ch=3 n=62 v=105
193792 On ch=3 n=74 v=105
195072 Off ch=3 n=62 v=0
195072 Off ch=3 n=74 v=0
196608 On ch=3 n=63 v=47
196608 On ch=3 n=67 v=47
197581 Off ch=3 n=63 v=0
197581 Off ch=3 n=67 v=0
197632 On ch=3 n=62 v=57
197632 On ch=3 n=67 v=57
197863 Off ch=3 n=62 v=0
197863 Off ch=3 n=67 v=0
198656 On ch=3 n=62 v=57
198656 On ch=3 n=67 v=57
199629 Off ch=3 n=62 v=0
199629 Off ch=3 n=67 v=0
199680 On ch=3 n=63 v=59
199680 On ch=3 n=67 v=59
199911 Off ch=3 n=63 v=0
199911 Off ch=3 n=67 v=0
202240 On ch=3 n=60 v=64
202240 On ch=3 n=66 v=64
202701 Off ch=3 n=60 v=0
202701 Off ch=3 n=66 v=0
202752 On ch=3 n=59 v=69
202752 On ch=3 n=67 v=69
202983 Off ch=3 n=59 v=0
202983 Off ch=3 n=67 v=0
208640 On ch=3 n=71 v=54
209613 Off ch=3 n=71 v=0
209664 On ch=3 n=72 v=103
209895 Off ch=3 n=72 v=0
212224 On ch=3 n=65 v=98
212224 On ch=3 n=68 v=98
212455 Off ch=3 n=65 v=0
212455 Off ch=3 n=68 v=0
212736 On ch=3 n=64 v=106
212736 On ch=3 n=67 v=106
212967 Off ch=3 n=64 v=0
212967 Off ch=3 n=67 v=0
213248 On ch=3 n=65 v=103
213248 On ch=3 n=68 v=103
213479 Off ch=3 n=65 v=0
213479 Off ch=3 n=68 v=0
213760 On ch=3 n=67 v=99
213760 On ch=3 n=70 v=99
213991 Off ch=3 n=67 v=0
213991 Off ch=3 n=70 v=0
214272 On ch=3 n=65 v=102
214272 On ch=3 n=68 v=102
214503 Off ch=3 n=65 v=0
214503 Off ch=3 n=68 v=0
214784 On ch=3 n=62 v=98
214784 On ch=3 n=65 v=98
215015 Off ch=3 n=62 v=0
215015 Off ch=3 n=65 v=0
215296 On ch=3 n=63 v=85
215296 On ch=3 n=67 v=85
217293 Off ch=3 n=63 v=0
217293 Off ch=3 n=67 v=0
217344 On ch=3 n=62 v=91
217344 On ch=3 n=65 v=91
219111 Off ch=3 n=62 v=0
219111 Off ch=3 n=65 v=0
219136 On ch=3 n=60 v=93
219136 On ch=3 n=63 v=93
219367 Off ch=3 n=60 v=0
219367 Off ch=3 n=63 v=0
219392 On ch=3 n=66 v=127
219392 On ch=3 n=75 v=127
221389 Off ch=3 n=66 v=0
221389 Off ch=3 n=75 v=0
221440 On ch=3 n=69 v=114
221440 On ch=3 n=75 v=114
221671 Off ch=3 n=69 v=0
221671 Off ch=3 n=75 v=0
222464 On ch=3 n=71 v=100
222464 On ch=3 n=74 v=100
222695 Off ch=3 n=71 v=0
222695 Off ch=3 n=74 v=0
234240 On ch=3 n=70 v=55
234496 On ch=3 n=72 v=60
234501 Off ch=3 n=70 v=0
234752 On ch=3 n=70 v=57
234757 Off ch=3 n=72 v=0
235008 On ch=3 n=69 v=56
235013 Off ch=3 n=70 v=0
235251 Off ch=3 n=69 v=0
236288 On ch=3 n=72 v=66
236544 On ch=3 n=74 v=72
236549 Off ch=3 n=72 v=0
236800 On ch=3 n=72 v=57
236805 Off ch=3 n=74 v=0
237056 On ch=3 n=71 v=55
237061 Off ch=3 n=72 v=0
237299 Off ch=3 n=71 v=0
239872 On ch=3 n=68 v=73
239872 On ch=3 n=80 v=73
240128 On ch=3 n=67 v=72
240128 On ch=3 n=79 v=72
240133 Off ch=3 n=68 v=0
240133 Off ch=3 n=80 v=0
240384 On ch=3 n=65 v=58
240384 On ch=3 n=77 v=58
240389 Off ch=3 n=67 v=0
240389 Off ch=3 n=79 v=0
240640 On ch=3 n=67 v=58
240640 On ch=3 n=79 v=58
240645 Off ch=3 n=65 v=0
240645 Off ch=3 n=77 v=0
240883 Off ch=3 n=67 v=0
240883 Off ch=3 n=79 v=0
240896 On ch=3 n=68 v=73
240896 On ch=3 n=80 v=73
241152 On ch=3 n=67 v=72
241152 On ch=3 n=79 v=72
241157 Off ch=3 n=68 v=0
241157 Off ch=3 n=80 v=0
241408 On ch=3 n=66 v=65
241408 On ch=3 n=78 v=65
241413 Off ch=3 n=67 v=0
241413 Off ch=3 n=79 v=0
241664 On ch=3 n=67 v=65
241664 On ch=3 n=79 v=65
241669 Off ch=3 n=66 v=0
241669 Off ch=3 n=78 v=0
241907 Off ch=3 n=67 v=0
241907 Off ch=3 n=79 v=0
241920 On ch=3 n=69 v=76
241920 On ch=3 n=81 v=76
242176 On ch=3 n=67 v=70
242176 On ch=3 n=79 v=70
242181 Off ch=3 n=69 v=0
242181 Off ch=3 n=81 v=0
242432 On ch=3 n=66 v=65
242432 On ch=3 n=78 v=65
242437 Off ch=3 n=67 v=0
242437 Off ch=3 n=79 v=0
242688 On ch=3 n=67 v=91
242688 On ch=3 n=79 v=91
242693 Off ch=3 n=66 v=0
242693 Off ch=3 n=78 v=0
242931 Off ch=3 n=67 v=0
242931 Off ch=3 n=79 v=0
242944 On ch=3 n=69 v=92
242944 On ch=3 n=81 v=92
243200 On ch=3 n=67 v=88
243200 On ch=3 n=79 v=88
243205 Off ch=3 n=69 v=0
243205 Off ch=3 n=81 v=0
243456 On ch=3 n=66 v=83
243456 On ch=3 n=78 v=83
243461 Off ch=3 n=67 v=0
243461 Off ch=3 n=79 v=0
243712 On ch=3 n=67 v=87
243712 On ch=3 n=79 v=87
243717 Off ch=3 n=66 v=0
243717 Off ch=3 n=78 v=0
243968 On ch=3 n=66 v=81
243968 On ch=3 n=78 v=81
243973 Off ch=3 n=67 v=0
243973 Off ch=3 n=79 v=0
244224 On ch=3 n=67 v=102
244224 On ch=3 n=79 v=102
244229 Off ch=3 n=66 v=0
244229 Off ch=3 n=78 v=0
244480 On ch=3 n=66 v=98
244480 On ch=3 n=78 v=98
244485 Off ch=3 n=67 v=0
244485 Off ch=3 n=79 v=0
244736 On ch=3 n=67 v=100
244736 On ch=3 n=79 v=100
244741 Off ch=3 n=66 v=0
244741 Off ch=3 n=78 v=0
244979 Off ch=3 n=67 v=0
244979 Off ch=3 n=79 v=0
244992 On ch=3 n=77 v=109
244992 On ch=3 n=79 v=109
245735 Off ch=3 n=77 v=0
245735 Off ch=3 n=79 v=0
245760 On ch=3 n=74 v=115
245760 On ch=3 n=79 v=115
245991 Off ch=3 n=74 v=0
245991 Off ch=3 n=79 v=0
246016 On ch=3 n=76 v=114
246016 On ch=3 n=79 v=114
246247 Off ch=3 n=76 v=0
246247 Off ch=3 n=79 v=0
246528 On ch=3 n=71 v=105
246528 On ch=3 n=77 v=105
246759 Off ch=3 n=71 v=0
246759 Off ch=3 n=77 v=0
247040 On ch=3 n=72 v=96
247040 On ch=3 n=76 v=96
247271 Off ch=3 n=72 v=0
247271 Off ch=3 n=76 v=0
247552 On ch=3 n=72 v=98
247552 On ch=3 n=74 v=98
247783 Off ch=3 n=72 v=0
247783 Off ch=3 n=74 v=0
248064 On ch=3 n=72 v=102
248064 On ch=3 n=76 v=102
248295 Off ch=3 n=72 v=0
248295 Off ch=3 n=76 v=0
248576 On ch=3 n=71 v=103
248576 On ch=3 n=74 v=103
248807 Off ch=3 n=71 v=0
248807 Off ch=3 n=74 v=0
249088 On ch=3 n=74 v=102
249088 On ch=3 n=77 v=102
250061 Off ch=3 n=74 v=0
250061 Off ch=3 n=77 v=0
250112 On ch=3 n=72 v=106
250112 On ch=3 n=76 v=106
250343 Off ch=3 n=72 v=0
250343 Off ch=3 n=76 v=0
250368 On ch=3 n=72 v=114
250368 On ch=3 n=76 v=114
250599 Off ch=3 n=72 v=0
250599 Off ch=3 n=76 v=0
250880 On ch=3 n=71 v=103
250880 On ch=3 n=74 v=103
251111 Off ch=3 n=71 v=0
251111 Off ch=3 n=74 v=0
251392 On ch=3 n=72 v=103
251392 On ch=3 n=76 v=103
251623 Off ch=3 n=72 v=0
251623 Off ch=3 n=76 v=0
251904 On ch=3 n=72 v=102
251904 On ch=3 n=74 v=102
252135 Off ch=3 n=72 v=0
252135 Off ch=3 n=74 v=0
252416 On ch=3 n=72 v=100
252416 On ch=3 n=76 v=100
252647 Off ch=3 n=72 v=0
252647 Off ch=3 n=76 v=0
252928 On ch=3 n=71 v=98
252928 On ch=3 n=74 v=98
253159 Off ch=3 n=71 v=0
253159 Off ch=3 n=74 v=0
253184 On ch=3 n=64 v=100
253184 On ch=3 n=72 v=100
253300 Off ch=3 n=64 v=0
253300 Off ch=3 n=72 v=0
253312 On ch=3 n=64 v=123
253312 On ch=3 n=76 v=123
253428 Off ch=3 n=64 v=0
253428 Off ch=3 n=76 v=0
253440 On ch=3 n=64 v=115
253440 On ch=3 n=76 v=115
253556 Off ch=3 n=64 v=0
253556 Off ch=3 n=76 v=0
253568 On ch=3 n=64 v=114
253568 On ch=3 n=76 v=114
253684 Off ch=3 n=64 v=0
253684 Off ch=3 n=76 v=0
253696 On ch=3 n=60 v=99
253696 On ch=3 n=72 v=99
253812 Off ch=3 n=60 v=0
253812 Off ch=3 n=72 v=0
253824 On ch=3 n=67 v=127
253824 On ch=3 n=79 v=127
253940 Off ch=3 n=67 v=0
253940 Off ch=3 n=79 v=0
253952 On ch=3 n=67 v=115
253952 On ch=3 n=79 v=115
254068 Off ch=3 n=67 v=0
254068 Off ch=3 n=79 v=0
254080 On ch=3 n=67 v=110
254080 On ch=3 n=79 v=110
254196 Off ch=3 n=67 v=0
254196 Off ch=3 n=79 v=0
254208 On ch=3 n=64 v=103
254208 On ch=3 n=76 v=103
254324 Off ch=3 n=64 v=0
254324 Off ch=3 n=76 v=0
254336 On ch=3 n=60 v=100
254336 On ch=3 n=72 v=100
254452 Off ch=3 n=60 v=0
254452 Off ch=3 n=72 v=0
254464 On ch=3 n=60 v=110
254464 On ch=3 n=72 v=110
254580 Off ch=3 n=60 v=0
254580 Off ch=3 n=72 v=0
254592 On ch=3 n=60 v=108
254592 On ch=3 n=72 v=108
254708 Off ch=3 n=60 v=0
254708 Off ch=3 n=72 v=0
254720 On ch=3 n=55 v=96
254720 On ch=3 n=67 v=96
255348 Off ch=3 n=55 v=0
255348 Off ch=3 n=67 v=0
255360 On ch=3 n=64 v=127
255360 On ch=3 n=76 v=127
255476 Off ch=3 n=64 v=0
255476 Off ch=3 n=76 v=0
255488 On ch=3 n=64 v=111
255488 On ch=3 n=76 v=111
255604 Off ch=3 n=64 v=0
255604 Off ch=3 n=76 v=0
255616 On ch=3 n=64 v=111
255616 On ch=3 n=76 v=111
255732 Off ch=3 n=64 v=0
255732 Off ch=3 n=76 v=0
255744 On ch=3 n=60 v=100
255744 On ch=3 n=72 v=100
255860 Off ch=3 n=60 v=0
255860 Off ch=3 n=72 v=0
255872 On ch=3 n=67 v=127
255872 On ch=3 n=79 v=127
255988 Off ch=3 n=67 v=0
255988 Off ch=3 n=79 v=0
256000 On ch=3 n=67 v=119
256000 On ch=3 n=79 v=119
256116 Off ch=3 n=67 v=0
256116 Off ch=3 n=79 v=0
256128 On ch=3 n=67 v=114
256128 On ch=3 n=79 v=114
256244 Off ch=3 n=67 v=0
256244 Off ch=3 n=79 v=0
256256 On ch=3 n=64 v=104
256256 On ch=3 n=76 v=104
256372 Off ch=3 n=64 v=0
256372 Off ch=3 n=76 v=0
256384 On ch=3 n=60 v=100
256384 On ch=3 n=72 v=100
256500 Off ch=3 n=60 v=0
256500 Off ch=3 n=72 v=0
256512 On ch=3 n=60 v=108
256512 On ch=3 n=72 v=108
256628 Off ch=3 n=60 v=0
256628 Off ch=3 n=72 v=0
256640 On ch=3 n=60 v=114
256640 On ch=3 n=72 v=114
256756 Off ch=3 n=60 v=0
256756 Off ch=3 n=72 v=0
256768 On ch=3 n=55 v=97
256768 On ch=3 n=67 v=97
256884 Off ch=3 n=55 v=0
256884 Off ch=3 n=67 v=0
256896 On ch=3 n=67 v=122
256896 On ch=3 n=71 v=122
257012 Off ch=3 n=67 v=0
257012 Off ch=3 n=71 v=0
257024 On ch=3 n=67 v=115
257024 On ch=3 n=71 v=115
257140 Off ch=3 n=67 v=0
257140 Off ch=3 n=71 v=0
257152 On ch=3 n=67 v=113
257152 On ch=3 n=71 v=113
257268 Off ch=3 n=67 v=0
257268 Off ch=3 n=71 v=0
257280 On ch=3 n=67 v=119
257280 On ch=3 n=72 v=119
257511 Off ch=3 n=67 v=0
257511 Off ch=3 n=72 v=0
257920 On ch=3 n=67 v=105
257920 On ch=3 n=71 v=105
258036 Off ch=3 n=67 v=0
258036 Off ch=3 n=71 v=0
258048 On ch=3 n=67 v=109
258048 On ch=3 n=71 v=109
258164 Off ch=3 n=67 v=0
258164 Off ch=3 n=71 v=0
258176 On ch=3 n=67 v=111
258176 On ch=3 n=71 v=111
258292 Off ch=3 n=67 v=0
258292 Off ch=3 n=71 v=0
258304 On ch=3 n=67 v=117
258304 On ch=3 n=72 v=117
258535 Off ch=3 n=67 v=0
258535 Off ch=3 n=72 v=0
258944 On ch=3 n=71 v=102
258944 On ch=3 n=74 v=102
259060 Off ch=3 n=71 v=0
259060 Off ch=3 n=74 v=0
259072 On ch=3 n=71 v=116
259072 On ch=3 n=74 v=116
259188 Off ch=3 n=71 v=0
259188 Off ch=3 n=74 v=0
259200 On ch=3 n=71 v=111
259200 On ch=3 n=74 v=111
259316 Off ch=3 n=71 v=0
259316 Off ch=3 n=74 v=0
259328 On ch=3 n=72 v=117
259328 On ch=3 n=76 v=117
259444 Off ch=3 n=72 v=0
259444 Off ch=3 n=76 v=0
259456 On ch=3 n=60 v=96
259456 On ch=3 n=72 v=96
259572 Off ch=3 n=60 v=0
259572 Off ch=3 n=72 v=0
259584 On ch=3 n=60 v=108
259584 On ch=3 n=72 v=108
259700 Off ch=3 n=60 v=0
259700 Off ch=3 n=72 v=0
259712 On ch=3 n=60 v=112
259712 On ch=3 n=72 v=112
259828 Off ch=3 n=60 v=0
259828 Off ch=3 n=72 v=0
259840 On ch=3 n=60 v=115
259840 On ch=3 n=72 v=115
260468 Off ch=3 n=60 v=0
260468 Off ch=3 n=72 v=0
260480 On ch=3 n=60 v=113
260480 On ch=3 n=72 v=113
260596 Off ch=3 n=60 v=0
260596 Off ch=3 n=72 v=0
260608 On ch=3 n=60 v=113
260608 On ch=3 n=72 v=113
260724 Off ch=3 n=60 v=0
260724 Off ch=3 n=72 v=0
260736 On ch=3 n=60 v=112
260736 On ch=3 n=72 v=112
260852 Off ch=3 n=60 v=0
260852 Off ch=3 n=72 v=0
260864 On ch=3 n=60 v=109
260864 On ch=3 n=72 v=109
261492 Off ch=3 n=60 v=0
261492 Off ch=3 n=72 v=0
261504 On ch=3 n=60 v=113
261504 On ch=3 n=72 v=113
261620 Off ch=3 n=60 v=0
261620 Off ch=3 n=72 v=0
261632 On ch=3 n=60 v=116
261632 On ch=3 n=72 v=116
261748 Off ch=3 n=60 v=0
261748 Off ch=3 n=72 v=0
261760 On ch=3 n=60 v=114
261760 On ch=3 n=72 v=114
261876 Off ch=3 n=60 v=0
261876 Off ch=3 n=72 v=0
261888 On ch=3 n=60 v=114
261888 On ch=3 n=72 v=114
262516 Off ch=3 n=60 v=0
262516 Off ch=3 n=72 v=0
262528 On ch=3 n=60 v=114
262528 On ch=3 n=72 v=114
262644 Off ch=3 n=60 v=0
262644 Off ch=3 n=72 v=0
262656 On ch=3 n=60 v=112
262656 On ch=3 n=72 v=112
262772 Off ch=3 n=60 v=0
262772 Off ch=3 n=72 v=0
262784 On ch=3 n=60 v=109
262784 On ch=3 n=72 v=109
262900 Off ch=3 n=60 v=0
262900 Off ch=3 n=72 v=0
262912 On ch=3 n=60 v=118
262912 On ch=3 n=72 v=118
263373 Off ch=3 n=60 v=0
263373 Off ch=3 n=72 v=0
263424 On ch=3 n=68 v=121
263424 On ch=3 n=73 v=121
265421 Off ch=3 n=68 v=0
265421 Off ch=3 n=73 v=0
265472 On ch=3 n=68 v=115
265472 On ch=3 n=73 v=115
265703 Off ch=3 n=68 v=0
265703 Off ch=3 n=73 v=0
266112 On ch=3 n=65 v=50
266228 Off ch=3 n=65 v=0
266240 On ch=3 n=65 v=55
266356 Off ch=3 n=65 v=0
266368 On ch=3 n=65 v=64
266484 Off ch=3 n=65 v=0
266496 On ch=3 n=68 v=68
266727 Off ch=3 n=68 v=0
267648 On ch=3 n=69 v=106
267648 On ch=3 n=72 v=106
267764 Off ch=3 n=69 v=0
267764 Off ch=3 n=72 v=0
267776 On ch=3 n=69 v=109
267776 On ch=3 n=72 v=109
267892 Off ch=3 n=69 v=0
267892 Off ch=3 n=72 v=0
267904 On ch=3 n=69 v=117
267904 On ch=3 n=72 v=117
268020 Off ch=3 n=69 v=0
268020 Off ch=3 n=72 v=0
268032 On ch=3 n=69 v=116
268032 On ch=3 n=72 v=116
270029 Off ch=3 n=69 v=0
270029 Off ch=3 n=72 v=0
270080 On ch=3 n=69 v=108
270080 On ch=3 n=72 v=108
270311 Off ch=3 n=69 v=0
270311 Off ch=3 n=72 v=0
270720 On ch=3 n=60 v=101
270720 On ch=3 n=72 v=101
270836 Off ch=3 n=60 v=0
270836 Off ch=3 n=72 v=0
270848 On ch=3 n=60 v=111
270848 On ch=3 n=72 v=111
270964 Off ch=3 n=60 v=0
270964 Off ch=3 n=72 v=0
270976 On ch=3 n=60 v=114
270976 On ch=3 n=72 v=114
271092 Off ch=3 n=60 v=0
271092 Off ch=3 n=72 v=0
271104 On ch=3 n=63 v=125
271104 On ch=3 n=75 v=125
271335 Off ch=3 n=63 v=0
271335 Off ch=3 n=75 v=0
273152 On ch=3 n=80 v=89
273152 On ch=3 n=71 v=78
273895 Off ch=3 n=80 v=0
273920 On ch=3 n=79 v=92
274125 Off ch=3 n=71 v=0
274151 Off ch=3 n=79 v=0
275200 On ch=3 n=80 v=100
275200 On ch=3 n=71 v=72
275943 Off ch=3 n=80 v=0
275968 On ch=3 n=79 v=93
276173 Off ch=3 n=71 v=0
276199 Off ch=3 n=79 v=0
277248 On ch=3 n=75 v=88
277479 Off ch=3 n=75 v=0
277504 On ch=3 n=77 v=103
277735 Off ch=3 n=77 v=0
277760 On ch=3 n=74 v=88
277991 Off ch=3 n=74 v=0
278016 On ch=3 n=75 v=100
278247 Off ch=3 n=75 v=0
278272 On ch=3 n=72 v=89
278503 Off ch=3 n=72 v=0
278528 On ch=3 n=74 v=103
278759 Off ch=3 n=74 v=0
278784 On ch=3 n=70 v=90
279015 Off ch=3 n=70 v=0
279040 On ch=3 n=72 v=101
279271 Off ch=3 n=72 v=0
279296 On ch=3 n=68 v=88
279527 Off ch=3 n=68 v=0
279552 On ch=3 n=70 v=103
279783 Off ch=3 n=70 v=0
279808 On ch=3 n=67 v=91
280039 Off ch=3 n=67 v=0
280064 On ch=3 n=68 v=100
280295 Off ch=3 n=68 v=0
280320 On ch=3 n=65 v=87
280551 Off ch=3 n=65 v=0
280576 On ch=3 n=63 v=102
280576 On ch=3 n=67 v=102
280807 Off ch=3 n=63 v=0
280807 Off ch=3 n=67 v=0
280832 On ch=3 n=62 v=101
280832 On ch=3 n=67 v=101
281063 Off ch=3 n=62 v=0
281063 Off ch=3 n=67 v=0
281088 On ch=3 n=63 v=99
281088 On ch=3 n=67 v=99
281319 Off ch=3 n=63 v=0
281319 Off ch=3 n=67 v=0
281344 On ch=3 n=65 v=97
281344 On ch=3 n=67 v=97
281575 Off ch=3 n=65 v=0
281575 Off ch=3 n=67 v=0
281600 On ch=3 n=63 v=100
281600 On ch=3 n=67 v=100
281831 Off ch=3 n=63 v=0
281831 Off ch=3 n=67 v=0
281856 On ch=3 n=65 v=98
281856 On ch=3 n=67 v=98
282087 Off ch=3 n=65 v=0
282087 Off ch=3 n=67 v=0
282112 On ch=3 n=67 v=109
282112 On ch=3 n=72 v=109
282343 Off ch=3 n=67 v=0
282343 Off ch=3 n=72 v=0
282368 On ch=3 n=68 v=95
282368 On ch=3 n=72 v=95
282599 Off ch=3 n=68 v=0
282599 Off ch=3 n=72 v=0
282624 On ch=3 n=67 v=98
282624 On ch=3 n=72 v=98
282855 Off ch=3 n=67 v=0
282855 Off ch=3 n=72 v=0
282880 On ch=3 n=68 v=93
282880 On ch=3 n=72 v=93
283111 Off ch=3 n=68 v=0
283111 Off ch=3 n=72 v=0
283136 On ch=3 n=59 v=89
283136 On ch=3 n=71 v=89
283367 Off ch=3 n=59 v=0
283367 Off ch=3 n=71 v=0
283392 On ch=3 n=60 v=105
283392 On ch=3 n=72 v=105
283623 Off ch=3 n=60 v=0
283623 Off ch=3 n=72 v=0
283648 On ch=3 n=59 v=92
283648 On ch=3 n=71 v=92
283879 Off ch=3 n=59 v=0
283879 Off ch=3 n=71 v=0
283904 On ch=3 n=60 v=104
283904 On ch=3 n=72 v=104
284135 Off ch=3 n=60 v=0
284135 Off ch=3 n=72 v=0
284160 On ch=3 n=62 v=102
284160 On ch=3 n=74 v=102
284391 Off ch=3 n=62 v=0
284391 Off ch=3 n=74 v=0
284416 On ch=3 n=63 v=90
284416 On ch=3 n=72 v=90
285389 Off ch=3 n=63 v=0
285389 Off ch=3 n=72 v=0
285440 On ch=3 n=65 v=99
285440 On ch=3 n=72 v=99
286413 Off ch=3 n=65 v=0
286413 Off ch=3 n=72 v=0
286464 On ch=3 n=67 v=95
286464 On ch=3 n=72 v=95
287437 Off ch=3 n=67 v=0
287437 Off ch=3 n=72 v=0
287488 On ch=3 n=68 v=96
287488 On ch=3 n=72 v=96
287949 Off ch=3 n=68 v=0
288000 On ch=3 n=65 v=93
288461 Off ch=3 n=72 v=0
288461 Off ch=3 n=65 v=0
288512 On ch=3 n=65 v=92
288512 On ch=3 n=71 v=92
288973 Off ch=3 n=65 v=0
288973 Off ch=3 n=71 v=0
289024 On ch=3 n=67 v=100
289024 On ch=3 n=71 v=100
289485 Off ch=3 n=67 v=0
289485 Off ch=3 n=71 v=0
289536 On ch=3 n=67 v=108
289536 On ch=3 n=72 v=108
289651 Off ch=3 n=67 v=0
289651 Off ch=3 n=72 v=0
290048 On ch=3 n=68 v=84
290048 On ch=3 n=72 v=84
290163 Off ch=3 n=68 v=0
290163 Off ch=3 n=72 v=0
290560 On ch=3 n=68 v=87
290560 On ch=3 n=72 v=87
290675 Off ch=3 n=68 v=0
290675 Off ch=3 n=72 v=0
291072 On ch=3 n=72 v=91
291072 On ch=3 n=74 v=91
291187 Off ch=3 n=72 v=0
291187 Off ch=3 n=74 v=0
291584 On ch=3 n=72 v=88
291584 On ch=3 n=74 v=88
291699 Off ch=3 n=72 v=0
291699 Off ch=3 n=74 v=0
292096 On ch=3 n=71 v=86
292096 On ch=3 n=74 v=86
292211 Off ch=3 n=71 v=0
292211 Off ch=3 n=74 v=0
292608 On ch=3 n=72 v=91
293069 Off ch=3 n=72 v=0
293120 On ch=3 n=74 v=103
293235 Off ch=3 n=74 v=0
293376 On ch=3 n=75 v=103
293491 Off ch=3 n=75 v=0
293632 On ch=3 n=77 v=107
293888 On ch=3 n=74 v=100
293893 Off ch=3 n=77 v=0
294131 Off ch=3 n=74 v=0
295168 On ch=3 n=77 v=108
295283 Off ch=3 n=77 v=0
295424 On ch=3 n=79 v=105
295539 Off ch=3 n=79 v=0
295680 On ch=3 n=80 v=106
295936 On ch=3 n=77 v=96
295941 Off ch=3 n=80 v=0
296179 Off ch=3 n=77 v=0
297216 On ch=3 n=69 v=83
297216 On ch=3 n=72 v=83
297331 Off ch=3 n=69 v=0
297331 Off ch=3 n=72 v=0
297472 On ch=3 n=71 v=99
297472 On ch=3 n=74 v=99
297587 Off ch=3 n=71 v=0
297587 Off ch=3 n=74 v=0
297728 On ch=3 n=72 v=99
297728 On ch=3 n=75 v=99
297984 Off ch=3 n=72 v=0
297984 On ch=3 n=67 v=90
297984 On ch=3 n=72 v=90
297989 Off ch=3 n=75 v=0
298227 Off ch=3 n=67 v=0
298227 Off ch=3 n=72 v=0
299264 On ch=3 n=69 v=95
299264 On ch=3 n=72 v=95
299379 Off ch=3 n=69 v=0
299379 Off ch=3 n=72 v=0
299520 On ch=3 n=71 v=104
299520 On ch=3 n=74 v=104
299635 Off ch=3 n=71 v=0
299635 Off ch=3 n=74 v=0
299776 On ch=3 n=72 v=105
299776 On ch=3 n=75 v=105
300032 On ch=3 n=71 v=101
300032 On ch=3 n=74 v=101
300037 Off ch=3 n=72 v=0
300037 Off ch=3 n=75 v=0
300288 On ch=3 n=68 v=90
300288 On ch=3 n=72 v=90
300293 Off ch=3 n=71 v=0
300293 Off ch=3 n=74 v=0
300544 On ch=3 n=67 v=84
300544 On ch=3 n=70 v=84
300549 Off ch=3 n=68 v=0
300549 Off ch=3 n=72 v=0
300800 On ch=3 n=65 v=87
300800 On ch=3 n=68 v=87
300805 Off ch=3 n=67 v=0
300805 Off ch=3 n=70 v=0
301056 On ch=3 n=63 v=84
301056 On ch=3 n=67 v=84
301061 Off ch=3 n=65 v=0
301061 Off ch=3 n=68 v=0
301299 Off ch=3 n=63 v=0
301299 Off ch=3 n=67 v=0
301824 On ch=3 n=60 v=124
301824 On ch=3 n=72 v=124
302055 Off ch=3 n=60 v=0
302055 Off ch=3 n=72 v=0
302080 On ch=3 n=60 v=104
302080 On ch=3 n=72 v=104
302311 Off ch=3 n=60 v=0
302311 Off ch=3 n=72 v=0
302336 On ch=3 n=77 v=115
302336 On ch=3 n=80 v=115
302592 On ch=3 n=75 v=115
302592 On ch=3 n=79 v=115
302597 Off ch=3 n=77 v=0
302597 Off ch=3 n=80 v=0
302835 Off ch=3 n=75 v=0
302835 Off ch=3 n=79 v=0
303104 On ch=3 n=72 v=84
303104 On ch=3 n=75 v=84
303335 Off ch=3 n=72 v=0
303335 Off ch=3 n=75 v=0
303616 On ch=3 n=71 v=85
303616 On ch=3 n=79 v=85
303847 Off ch=3 n=71 v=0
303847 Off ch=3 n=79 v=0
305408 On ch=3 n=60 v=78
305408 On ch=3 n=72 v=78
305639 Off ch=3 n=60 v=0
305639 Off ch=3 n=72 v=0
305664 On ch=3 n=60 v=95
305664 On ch=3 n=72 v=95
305895 Off ch=3 n=60 v=0
305895 Off ch=3 n=72 v=0
306432 On ch=3 n=65 v=88
306432 On ch=3 n=68 v=88
306688 On ch=3 n=63 v=83
306688 On ch=3 n=67 v=83
306693 Off ch=3 n=65 v=0
306693 Off ch=3 n=68 v=0
306931 Off ch=3 n=63 v=0
306931 Off ch=3 n=67 v=0
307200 On ch=3 n=75 v=90
307200 On ch=3 n=79 v=90
307431 Off ch=3 n=75 v=0
307431 Off ch=3 n=79 v=0
307712 On ch=3 n=74 v=88
307712 On ch=3 n=79 v=88
307943 Off ch=3 n=74 v=0
307943 Off ch=3 n=79 v=0
307968 On ch=3 n=72 v=74
308199 Off ch=3 n=72 v=0
308608 On ch=3 n=71 v=90
308608 On ch=3 n=74 v=90
308724 Off ch=3 n=71 v=0
308724 Off ch=3 n=74 v=0
308736 On ch=3 n=71 v=95
308736 On ch=3 n=74 v=95
308852 Off ch=3 n=71 v=0
308852 Off ch=3 n=74 v=0
308864 On ch=3 n=71 v=97
308864 On ch=3 n=74 v=97
308980 Off ch=3 n=71 v=0
308980 Off ch=3 n=74 v=0
308992 On ch=3 n=71 v=95
308992 On ch=3 n=74 v=95
309735 Off ch=3 n=71 v=0
309735 Off ch=3 n=74 v=0
309760 On ch=3 n=72 v=97
309760 On ch=3 n=75 v=97
310016 On ch=3 n=74 v=106
310016 On ch=3 n=77 v=106
310021 Off ch=3 n=72 v=0
310021 Off ch=3 n=75 v=0
310272 Off ch=3 n=74 v=0
310272 On ch=3 n=71 v=92
310272 On ch=3 n=74 v=92
310277 Off ch=3 n=77 v=0
310528 On ch=3 n=72 v=95
310528 On ch=3 n=75 v=95
310533 Off ch=3 n=71 v=0
310533 Off ch=3 n=74 v=0
310784 On ch=3 n=74 v=104
310784 On ch=3 n=77 v=104
310789 Off ch=3 n=72 v=0
310789 Off ch=3 n=75 v=0
311027 Off ch=3 n=74 v=0
311027 Off ch=3 n=77 v=0
311040 On ch=3 n=72 v=99
311040 On ch=3 n=75 v=99
311271 Off ch=3 n=72 v=0
311271 Off ch=3 n=75 v=0
311680 On ch=3 n=67 v=84
311680 On ch=3 n=79 v=84
311796 Off ch=3 n=67 v=0
311796 Off ch=3 n=79 v=0
311808 On ch=3 n=67 v=99
311808 On ch=3 n=79 v=99
311924 Off ch=3 n=67 v=0
311924 Off ch=3 n=79 v=0
311936 On ch=3 n=67 v=101
311936 On ch=3 n=79 v=101
312052 Off ch=3 n=67 v=0
312052 Off ch=3 n=79 v=0
312064 On ch=3 n=67 v=97
312064 On ch=3 n=79 v=97
312180 Off ch=3 n=67 v=0
312180 Off ch=3 n=79 v=0
312192 On ch=3 n=67 v=99
312192 On ch=3 n=79 v=99
312308 Off ch=3 n=67 v=0
312308 Off ch=3 n=79 v=0
312320 On ch=3 n=67 v=97
312320 On ch=3 n=79 v=97
312436 Off ch=3 n=67 v=0
312436 Off ch=3 n=79 v=0
312448 On ch=3 n=67 v=97
312448 On ch=3 n=79 v=97
312564 Off ch=3 n=67 v=0
312564 Off ch=3 n=79 v=0
312576 On ch=3 n=67 v=105
312576 On ch=3 n=79 v=105
312692 Off ch=3 n=67 v=0
312692 Off ch=3 n=79 v=0
312704 On ch=3 n=67 v=99
312704 On ch=3 n=79 v=99
312820 Off ch=3 n=67 v=0
312820 Off ch=3 n=79 v=0
312832 On ch=3 n=67 v=96
312832 On ch=3 n=79 v=96
312948 Off ch=3 n=67 v=0
312948 Off ch=3 n=79 v=0
312960 On ch=3 n=67 v=95
312960 On ch=3 n=79 v=95
313076 Off ch=3 n=67 v=0
313076 Off ch=3 n=79 v=0
313088 On ch=3 n=63 v=98
313088 On ch=3 n=75 v=98
313856 Off ch=3 n=63 v=0
313856 Off ch=3 n=75 v=0
313984 On ch=3 n=65 v=103
313984 On ch=3 n=77 v=103
314100 Off ch=3 n=65 v=0
314100 Off ch=3 n=77 v=0
314112 On ch=3 n=65 v=109
314112 On ch=3 n=77 v=109
314228 Off ch=3 n=65 v=0
314228 Off ch=3 n=77 v=0
314240 On ch=3 n=65 v=113
314240 On ch=3 n=77 v=113
314356 Off ch=3 n=65 v=0
314356 Off ch=3 n=77 v=0
314368 On ch=3 n=62 v=102
314368 On ch=3 n=74 v=102
315648 Off ch=3 n=62 v=0
315648 Off ch=3 n=74 v=0
316416 On ch=3 n=68 v=68
316672 On ch=3 n=67 v=67
316677 Off ch=3 n=68 v=0
316928 On ch=3 n=75 v=82
316933 Off ch=3 n=67 v=0
317184 On ch=3 n=72 v=81
317189 Off ch=3 n=75 v=0
317967 Off ch=3 n=72 v=0
318464 On ch=3 n=68 v=57
318720 On ch=3 n=67 v=51
318725 Off ch=3 n=68 v=0
318976 On ch=3 n=75 v=82
318981 Off ch=3 n=67 v=0
319232 On ch=3 n=72 v=77
319237 Off ch=3 n=75 v=0
319872 On ch=3 n=71 v=121
319872 On ch=3 n=74 v=121
319894 Off ch=3 n=72 v=0
319988 Off ch=3 n=71 v=0
319988 Off ch=3 n=74 v=0
320000 On ch=3 n=71 v=112
320000 On ch=3 n=74 v=112
320116 Off ch=3 n=71 v=0
320116 Off ch=3 n=74 v=0
320128 On ch=3 n=71 v=111
320128 On ch=3 n=74 v=111
320244 Off ch=3 n=71 v=0
320244 Off ch=3 n=74 v=0
320256 On ch=3 n=72 v=122
320256 On ch=3 n=75 v=122
320487 Off ch=3 n=72 v=0
320487 Off ch=3 n=75 v=0
320896 On ch=3 n=71 v=100
320896 On ch=3 n=74 v=100
321012 Off ch=3 n=71 v=0
321012 Off ch=3 n=74 v=0
321024 On ch=3 n=71 v=113
321024 On ch=3 n=74 v=113
321140 Off ch=3 n=71 v=0
321140 Off ch=3 n=74 v=0
321152 On ch=3 n=71 v=112
321152 On ch=3 n=74 v=112
321268 Off ch=3 n=71 v=0
321268 Off ch=3 n=74 v=0
321280 On ch=3 n=72 v=116
321280 On ch=3 n=75 v=116
321511 Off ch=3 n=72 v=0
321511 Off ch=3 n=75 v=0
321920 On ch=3 n=71 v=107
321920 On ch=3 n=74 v=107
322036 Off ch=3 n=71 v=0
322036 Off ch=3 n=74 v=0
322048 On ch=3 n=71 v=112
322048 On ch=3 n=74 v=112
322164 Off ch=3 n=71 v=0
322164 Off ch=3 n=74 v=0
322176 On ch=3 n=71 v=112
322176 On ch=3 n=74 v=112
322292 Off ch=3 n=71 v=0
322292 Off ch=3 n=74 v=0
322304 On ch=3 n=72 v=120
322304 On ch=3 n=75 v=120
322535 Off ch=3 n=72 v=0
322535 Off ch=3 n=75 v=0
322560 On ch=3 n=71 v=106
322560 On ch=3 n=74 v=106
322791 Off ch=3 n=71 v=0
322791 Off ch=3 n=74 v=0
322816 On ch=3 n=72 v=120
322816 On ch=3 n=75 v=120
323047 Off ch=3 n=72 v=0
323047 Off ch=3 n=75 v=0
323072 On ch=3 n=71 v=106
323072 On ch=3 n=74 v=106
323303 Off ch=3 n=71 v=0
323303 Off ch=3 n=74 v=0
323328 On ch=3 n=72 v=117
323328 On ch=3 n=75 v=117
323559 Off ch=3 n=72 v=0
323559 Off ch=3 n=75 v=0
323584 On ch=3 n=71 v=110
323584 On ch=3 n=74 v=110
323815 Off ch=3 n=71 v=0
323815 Off ch=3 n=74 v=0
323840 On ch=3 n=72 v=116
323840 On ch=3 n=75 v=116
324071 Off ch=3 n=72 v=0
324071 Off ch=3 n=75 v=0
324096 On ch=3 n=71 v=110
324096 On ch=3 n=74 v=110
324327 Off ch=3 n=71 v=0
324327 Off ch=3 n=74 v=0
324352 On ch=3 n=72 v=121
324352 On ch=3 n=75 v=121
324583 Off ch=3 n=72 v=0
324583 Off ch=3 n=75 v=0
324864 On ch=3 n=71 v=103
324864 On ch=3 n=74 v=103
325095 Off ch=3 n=71 v=0
325095 Off ch=3 n=74 v=0
325376 On ch=3 n=72 v=100
325607 Off ch=3 n=72 v=0
3584 On ch=4 n=60 v=57
5581 Off ch=4 n=60 v=0
5632 On ch=4 n=59 v=61
7629 Off ch=4 n=59 v=0
7680 On ch=4 n=60 v=64
8141 Off ch=4 n=60 v=0
8192 On ch=4 n=59 v=63
8653 Off ch=4 n=59 v=0
8704 On ch=4 n=60 v=65
9165 Off ch=4 n=60 v=0
9216 On ch=4 n=59 v=52
9332 Off ch=4 n=59 v=0
9344 On ch=4 n=59 v=67
9460 Off ch=4 n=59 v=0
9472 On ch=4 n=59 v=70
9588 Off ch=4 n=59 v=0
9600 On ch=4 n=59 v=72
9716 Off ch=4 n=59 v=0
9728 On ch=4 n=60 v=104
9959 Off ch=4 n=60 v=0
10240 On ch=4 n=44 v=89
10471 Off ch=4 n=44 v=0
10752 On ch=4 n=43 v=87
10983 Off ch=4 n=43 v=0
11520 On ch=4 n=44 v=86
11636 Off ch=4 n=44 v=0
11648 On ch=4 n=44 v=95
11764 Off ch=4 n=44 v=0
11776 On ch=4 n=44 v=100
11892 Off ch=4 n=44 v=0
11904 On ch=4 n=41 v=94
13184 Off ch=4 n=41 v=0
18816 On ch=4 n=63 v=123
18816 On ch=4 n=67 v=123
19559 Off ch=4 n=63 v=0
19559 Off ch=4 n=67 v=0
19840 On ch=4 n=59 v=104
20071 Off ch=4 n=59 v=0
20352 On ch=4 n=48 v=100
20352 On ch=4 n=58 v=100
20583 Off ch=4 n=48 v=0
20583 Off ch=4 n=58 v=0
20864 On ch=4 n=48 v=99
20864 On ch=4 n=56 v=99
21095 Off ch=4 n=48 v=0
21095 Off ch=4 n=56 v=0
21376 On ch=4 n=48 v=96
21376 On ch=4 n=52 v=96
21607 Off ch=4 n=48 v=0
21607 Off ch=4 n=52 v=0
21888 On ch=4 n=48 v=106
21888 On ch=4 n=53 v=106
22119 Off ch=4 n=48 v=0
22119 Off ch=4 n=53 v=0
22400 On ch=4 n=48 v=102
22400 On ch=4 n=60 v=102
22631 Off ch=4 n=48 v=0
22631 Off ch=4 n=60 v=0
22912 On ch=4 n=48 v=92
22912 On ch=4 n=51 v=92
24909 Off ch=4 n=48 v=0
24909 Off ch=4 n=51 v=0
24960 On ch=4 n=47 v=100
24960 On ch=4 n=50 v=100
26727 Off ch=4 n=47 v=0
26727 Off ch=4 n=50 v=0
26752 On ch=4 n=48 v=106
26752 On ch=4 n=51 v=106
26983 Off ch=4 n=48 v=0
26983 Off ch=4 n=51 v=0
27008 On ch=4 n=51 v=127
27008 On ch=4 n=57 v=127
29005 Off ch=4 n=51 v=0
29005 Off ch=4 n=57 v=0
29056 On ch=4 n=51 v=114
29056 On ch=4 n=57 v=114
29287 Off ch=4 n=51 v=0
29287 Off ch=4 n=57 v=0
30080 On ch=4 n=50 v=101
30080 On ch=4 n=53 v=101
30311 Off ch=4 n=50 v=0
30311 Off ch=4 n=53 v=0
34688 On ch=4 n=55 v=57
34688 On ch=4 n=58 v=57
35200 On ch=4 n=53 v=57
35200 On ch=4 n=56 v=57
35279 Off ch=4 n=55 v=0
35279 Off ch=4 n=58 v=0
35712 On ch=4 n=46 v=57
35712 On ch=4 n=53 v=57
35713 Off ch=4 n=53 v=0
35713 Off ch=4 n=56 v=0
36224 On ch=4 n=51 v=59
36224 On ch=4 n=55 v=59
36303 Off ch=4 n=46 v=0
36303 Off ch=4 n=53 v=0
36736 On ch=4 n=55 v=63
36736 On ch=4 n=58 v=63
36737 Off ch=4 n=51 v=0
36737 Off ch=4 n=55 v=0
37248 On ch=4 n=53 v=59
37248 On ch=4 n=56 v=59
37327 Off ch=4 n=55 v=0
37327 Off ch=4 n=58 v=0
37760 On ch=4 n=46 v=60
37760 On ch=4 n=53 v=60
37761 Off ch=4 n=53 v=0
37761 Off ch=4 n=56 v=0
38272 On ch=4 n=51 v=59
38272 On ch=4 n=55 v=59
38351 Off ch=4 n=46 v=0
38351 Off ch=4 n=53 v=0
38784 On ch=4 n=55 v=59
38784 On ch=4 n=58 v=59
38785 Off ch=4 n=51 v=0
38785 Off ch=4 n=55 v=0
39296 On ch=4 n=52 v=56
39296 On ch=4 n=55 v=56
39352 Off ch=4 n=55 v=0
39375 Off ch=4 n=58 v=0
39808 On ch=4 n=48 v=55
39808 On ch=4 n=52 v=55
39809 Off ch=4 n=52 v=0
39809 Off ch=4 n=55 v=0
40320 On ch=4 n=53 v=60
40320 On ch=4 n=56 v=60
40399 Off ch=4 n=48 v=0
40399 Off ch=4 n=52 v=0
40832 On ch=4 n=56 v=71
40832 On ch=4 n=61 v=71
40833 Off ch=4 n=53 v=0
40833 Off ch=4 n=56 v=0
41344 On ch=4 n=55 v=70
41344 On ch=4 n=58 v=70
41423 Off ch=4 n=56 v=0
41423 Off ch=4 n=61 v=0
41856 On ch=4 n=51 v=56
41856 On ch=4 n=55 v=56
41857 Off ch=4 n=55 v=0
41857 Off ch=4 n=58 v=0
42368 On ch=4 n=56 v=66
42368 On ch=4 n=60 v=66
42447 Off ch=4 n=51 v=0
42447 Off ch=4 n=55 v=0
42880 On ch=4 n=44 v=58
42880 On ch=4 n=56 v=58
42881 Off ch=4 n=56 v=0
42881 Off ch=4 n=60 v=0
43392 On ch=4 n=45 v=62
43392 On ch=4 n=57 v=62
43471 Off ch=4 n=44 v=0
43471 Off ch=4 n=56 v=0
44416 On ch=4 n=46 v=75
44416 On ch=4 n=58 v=75
44475 Off ch=4 n=45 v=0
44475 Off ch=4 n=57 v=0
45389 Off ch=4 n=46 v=0
45389 Off ch=4 n=58 v=0
45440 On ch=4 n=47 v=69
45440 On ch=4 n=59 v=69
46413 Off ch=4 n=47 v=0
46413 Off ch=4 n=59 v=0
46464 On ch=4 n=48 v=91
46464 On ch=4 n=60 v=91
47719 Off ch=4 n=48 v=0
47719 Off ch=4 n=60 v=0
47744 On ch=4 n=48 v=83
47744 On ch=4 n=60 v=83
47975 Off ch=4 n=48 v=0
47975 Off ch=4 n=60 v=0
48000 On ch=4 n=48 v=99
48000 On ch=4 n=60 v=99
48231 Off ch=4 n=48 v=0
48231 Off ch=4 n=60 v=0
48256 On ch=4 n=48 v=99
48256 On ch=4 n=60 v=99
48487 Off ch=4 n=48 v=0
48487 Off ch=4 n=60 v=0
48512 On ch=4 n=50 v=121
48512 On ch=4 n=62 v=121
49255 Off ch=4 n=50 v=0
49255 Off ch=4 n=62 v=0
49280 On ch=4 n=50 v=104
49280 On ch=4 n=53 v=104
49511 Off ch=4 n=50 v=0
49511 Off ch=4 n=53 v=0
49536 On ch=4 n=51 v=117
49536 On ch=4 n=55 v=117
49767 Off ch=4 n=51 v=0
49767 Off ch=4 n=55 v=0
50048 On ch=4 n=53 v=102
50048 On ch=4 n=56 v=102
50279 Off ch=4 n=53 v=0
50279 Off ch=4 n=56 v=0
50560 On ch=4 n=55 v=99
50560 On ch=4 n=58 v=99
50791 Off ch=4 n=55 v=0
50791 Off ch=4 n=58 v=0
51072 On ch=4 n=56 v=96
51072 On ch=4 n=60 v=96
51303 Off ch=4 n=56 v=0
51303 Off ch=4 n=60 v=0
51584 On ch=4 n=58 v=103
51815 Off ch=4 n=58 v=0
52096 On ch=4 n=46 v=104
52327 Off ch=4 n=46 v=0
52608 On ch=4 n=65 v=104
52608 On ch=4 n=68 v=104
53351 Off ch=4 n=65 v=0
53351 Off ch=4 n=68 v=0
53376 On ch=4 n=58 v=108
53376 On ch=4 n=65 v=108
53607 Off ch=4 n=58 v=0
53607 Off ch=4 n=65 v=0
53632 On ch=4 n=63 v=120
53632 On ch=4 n=67 v=120
53863 Off ch=4 n=63 v=0
53863 Off ch=4 n=67 v=0
53888 On ch=4 n=63 v=113
53888 On ch=4 n=67 v=113
54119 Off ch=4 n=63 v=0
54119 Off ch=4 n=67 v=0
54400 On ch=4 n=58 v=101
54400 On ch=4 n=65 v=101
54631 Off ch=4 n=58 v=0
54631 Off ch=4 n=65 v=0
54912 On ch=4 n=58 v=100
54912 On ch=4 n=63 v=100
55143 Off ch=4 n=58 v=0
55143 Off ch=4 n=63 v=0
55424 On ch=4 n=56 v=98
55424 On ch=4 n=60 v=98
55655 Off ch=4 n=56 v=0
55655 Off ch=4 n=60 v=0
55936 On ch=4 n=55 v=102
55936 On ch=4 n=58 v=102
56167 Off ch=4 n=55 v=0
56167 Off ch=4 n=58 v=0
56448 On ch=4 n=46 v=104
56448 On ch=4 n=58 v=104
56679 Off ch=4 n=46 v=0
56679 Off ch=4 n=58 v=0
56704 On ch=4 n=51 v=127
56704 On ch=4 n=63 v=127
56820 Off ch=4 n=51 v=0
56820 Off ch=4 n=63 v=0
56832 On ch=4 n=67 v=127
56948 Off ch=4 n=67 v=0
56960 On ch=4 n=67 v=115
57076 Off ch=4 n=67 v=0
57088 On ch=4 n=67 v=117
57204 Off ch=4 n=67 v=0
57216 On ch=4 n=63 v=101
57332 Off ch=4 n=63 v=0
57344 On ch=4 n=58 v=105
57460 Off ch=4 n=58 v=0
57472 On ch=4 n=58 v=115
57588 Off ch=4 n=58 v=0
57600 On ch=4 n=58 v=111
57716 Off ch=4 n=58 v=0
57728 On ch=4 n=55 v=116
57844 Off ch=4 n=55 v=0
57856 On ch=4 n=51 v=105
57972 Off ch=4 n=51 v=0
57984 On ch=4 n=51 v=121
58100 Off ch=4 n=51 v=0
58112 On ch=4 n=51 v=112
58228 Off ch=4 n=51 v=0
58240 On ch=4 n=46 v=108
58868 Off ch=4 n=46 v=0
58880 On ch=4 n=67 v=127
58996 Off ch=4 n=67 v=0
59008 On ch=4 n=67 v=117
59124 Off ch=4 n=67 v=0
59136 On ch=4 n=67 v=113
59252 Off ch=4 n=67 v=0
59264 On ch=4 n=63 v=101
59380 Off ch=4 n=63 v=0
59392 On ch=4 n=58 v=100
59508 Off ch=4 n=58 v=0
59520 On ch=4 n=58 v=111
59636 Off ch=4 n=58 v=0
59648 On ch=4 n=58 v=107
59764 Off ch=4 n=58 v=0
59776 On ch=4 n=55 v=109
59892 Off ch=4 n=55 v=0
59904 On ch=4 n=51 v=108
60020 Off ch=4 n=51 v=0
60032 On ch=4 n=51 v=112
60148 Off ch=4 n=51 v=0
60160 On ch=4 n=51 v=113
60276 Off ch=4 n=51 v=0
60288 On ch=4 n=46 v=103
61031 Off ch=4 n=46 v=0
61440 On ch=4 n=58 v=103
61440 On ch=4 n=62 v=103
61556 Off ch=4 n=58 v=0
61556 Off ch=4 n=62 v=0
61568 On ch=4 n=58 v=111
61568 On ch=4 n=62 v=111
61684 Off ch=4 n=58 v=0
61684 Off ch=4 n=62 v=0
61696 On ch=4 n=58 v=112
61696 On ch=4 n=62 v=112
61812 Off ch=4 n=58 v=0
61812 Off ch=4 n=62 v=0
61824 On ch=4 n=58 v=114
61824 On ch=4 n=63 v=114
62055 Off ch=4 n=58 v=0
62055 Off ch=4 n=63 v=0
62464 On ch=4 n=46 v=100
62580 Off ch=4 n=46 v=0
62592 On ch=4 n=46 v=111
62708 Off ch=4 n=46 v=0
62720 On ch=4 n=46 v=115
62836 Off ch=4 n=46 v=0
62848 On ch=4 n=51 v=122
63079 Off ch=4 n=51 v=0
67968 On ch=4 n=60 v=55
69965 Off ch=4 n=60 v=0
70016 On ch=4 n=59 v=65
72013 Off ch=4 n=59 v=0
72064 On ch=4 n=60 v=67
72525 Off ch=4 n=60 v=0
72576 On ch=4 n=59 v=60
73037 Off ch=4 n=59 v=0
73088 On ch=4 n=60 v=62
73549 Off ch=4 n=60 v=0
73600 On ch=4 n=59 v=59
73716 Off ch=4 n=59 v=0
73728 On ch=4 n=59 v=61
73844 Off ch=4 n=59 v=0
73856 On ch=4 n=59 v=68
73972 Off ch=4 n=59 v=0
73984 On ch=4 n=59 v=81
74100 Off ch=4 n=59 v=0
74112 On ch=4 n=60 v=101
74343 Off ch=4 n=60 v=0
74624 On ch=4 n=44 v=88
74855 Off ch=4 n=44 v=0
75136 On ch=4 n=43 v=88
75367 Off ch=4 n=43 v=0
75904 On ch=4 n=44 v=90
76020 Off ch=4 n=44 v=0
76032 On ch=4 n=44 v=95
76148 Off ch=4 n=44 v=0
76160 On ch=4 n=44 v=94
76276 Off ch=4 n=44 v=0
76288 On ch=4 n=41 v=94
77568 Off ch=4 n=41 v=0
83200 On ch=4 n=63 v=121
83200 On ch=4 n=67 v=121
83943 Off ch=4 n=63 v=0
83943 Off ch=4 n=67 v=0
84224 On ch=4 n=59 v=98
84455 Off ch=4 n=59 v=0
84736 On ch=4 n=48 v=99
84736 On ch=4 n=58 v=99
84967 Off ch=4 n=48 v=0
84967 Off ch=4 n=58 v=0
85248 On ch=4 n=48 v=104
85248 On ch=4 n=56 v=104
85479 Off ch=4 n=48 v=0
85479 Off ch=4 n=56 v=0
85760 On ch=4 n=48 v=99
85760 On ch=4 n=52 v=99
85991 Off ch=4 n=48 v=0
85991 Off ch=4 n=52 v=0
86272 On ch=4 n=48 v=97
86272 On ch=4 n=53 v=97
86503 Off ch=4 n=48 v=0
86503 Off ch=4 n=53 v=0
86784 On ch=4 n=48 v=104
86784 On ch=4 n=60 v=104
87015 Off ch=4 n=48 v=0
87015 Off ch=4 n=60 v=0
87296 On ch=4 n=48 v=87
87296 On ch=4 n=51 v=87
89293 Off ch=4 n=48 v=0
89293 Off ch=4 n=51 v=0
89344 On ch=4 n=47 v=92
89344 On ch=4 n=50 v=92
91111 Off ch=4 n=47 v=0
91111 Off ch=4 n=50 v=0
91136 On ch=4 n=48 v=103
91136 On ch=4 n=51 v=103
91367 Off ch=4 n=48 v=0
91367 Off ch=4 n=51 v=0
91392 On ch=4 n=51 v=123
91392 On ch=4 n=57 v=123
93389 Off ch=4 n=51 v=0
93389 Off ch=4 n=57 v=0
93440 On ch=4 n=51 v=114
93440 On ch=4 n=57 v=114
93671 Off ch=4 n=51 v=0
93671 Off ch=4 n=57 v=0
94464 On ch=4 n=50 v=100
94464 On ch=4 n=53 v=100
94695 Off ch=4 n=50 v=0
94695 Off ch=4 n=53 v=0
99072 On ch=4 n=55 v=59
99072 On ch=4 n=58 v=59
99584 On ch=4 n=53 v=57
99584 On ch=4 n=56 v=57
99663 Off ch=4 n=55 v=0
99663 Off ch=4 n=58 v=0
100096 On ch=4 n=46 v=60
100096 On ch=4 n=53 v=60
100097 Off ch=4 n=53 v=0
100097 Off ch=4 n=56 v=0
100608 On ch=4 n=51 v=61
100608 On ch=4 n=55 v=61
100687 Off ch=4 n=46 v=0
100687 Off ch=4 n=53 v=0
101120 On ch=4 n=55 v=64
101120 On ch=4 n=58 v=64
101121 Off ch=4 n=51 v=0
101121 Off ch=4 n=55 v=0
101632 On ch=4 n=53 v=66
101632 On ch=4 n=56 v=66
101711 Off ch=4 n=55 v=0
101711 Off ch=4 n=58 v=0
102144 On ch=4 n=46 v=60
102144 On ch=4 n=53 v=60
102145 Off ch=4 n=53 v=0
102145 Off ch=4 n=56 v=0
102656 On ch=4 n=51 v=63
102656 On ch=4 n=55 v=63
102735 Off ch=4 n=46 v=0
102735 Off ch=4 n=53 v=0
103168 On ch=4 n=55 v=65
103168 On ch=4 n=58 v=65
103169 Off ch=4 n=51 v=0
103169 Off ch=4 n=55 v=0
103680 On ch=4 n=52 v=62
103680 On ch=4 n=55 v=62
103736 Off ch=4 n=55 v=0
103759 Off ch=4 n=58 v=0
104192 On ch=4 n=48 v=58
104192 On ch=4 n=52 v=58
104193 Off ch=4 n=52 v=0
104193 Off ch=4 n=55 v=0
104704 On ch=4 n=53 v=65
104704 On ch=4 n=56 v=65
104783 Off ch=4 n=48 v=0
104783 Off ch=4 n=52 v=0
105216 On ch=4 n=56 v=68
105216 On ch=4 n=61 v=68
105217 Off ch=4 n=53 v=0
105217 Off ch=4 n=56 v=0
105728 On ch=4 n=55 v=65
105728 On ch=4 n=58 v=65
105807 Off ch=4 n=56 v=0
105807 Off ch=4 n=61 v=0
106240 On ch=4 n=51 v=59
106240 On ch=4 n=55 v=59
106241 Off ch=4 n=55 v=0
106241 Off ch=4 n=58 v=0
106752 On ch=4 n=56 v=64
106752 On ch=4 n=60 v=64
106831 Off ch=4 n=51 v=0
106831 Off ch=4 n=55 v=0
107264 On ch=4 n=44 v=55
107264 On ch=4 n=56 v=55
107265 Off ch=4 n=56 v=0
107265 Off ch=4 n=60 v=0
107776 On ch=4 n=45 v=54
107776 On ch=4 n=57 v=54
107855 Off ch=4 n=44 v=0
107855 Off ch=4 n=56 v=0
108800 On ch=4 n=46 v=69
108800 On ch=4 n=58 v=69
108859 Off ch=4 n=45 v=0
108859 Off ch=4 n=57 v=0
109773 Off ch=4 n=46 v=0
109773 Off ch=4 n=58 v=0
109824 On ch=4 n=47 v=73
109824 On ch=4 n=59 v=73
110797 Off ch=4 n=47 v=0
110797 Off ch=4 n=59 v=0
110848 On ch=4 n=48 v=88
110848 On ch=4 n=60 v=88
112103 Off ch=4 n=48 v=0
112103 Off ch=4 n=60 v=0
112128 On ch=4 n=48 v=82
112128 On ch=4 n=60 v=82
112359 Off ch=4 n=48 v=0
112359 Off ch=4 n=60 v=0
112384 On ch=4 n=48 v=98
112384 On ch=4 n=60 v=98
112615 Off ch=4 n=48 v=0
112615 Off ch=4 n=60 v=0
112640 On ch=4 n=48 v=100
112640 On ch=4 n=60 v=100
112871 Off ch=4 n=48 v=0
112871 Off ch=4 n=60 v=0
112896 On ch=4 n=50 v=118
112896 On ch=4 n=62 v=118
113639 Off ch=4 n=50 v=0
113639 Off ch=4 n=62 v=0
113664 On ch=4 n=50 v=99
113664 On ch=4 n=53 v=99
113895 Off ch=4 n=50 v=0
113895 Off ch=4 n=53 v=0
113920 On ch=4 n=51 v=111
113920 On ch=4 n=55 v=111
114151 Off ch=4 n=51 v=0
114151 Off ch=4 n=55 v=0
114432 On ch=4 n=53 v=103
114432 On ch=4 n=56 v=103
114663 Off ch=4 n=53 v=0
114663 Off ch=4 n=56 v=0
114944 On ch=4 n=55 v=102
114944 On ch=4 n=58 v=102
115175 Off ch=4 n=55 v=0
115175 Off ch=4 n=58 v=0
115456 On ch=4 n=56 v=102
115456 On ch=4 n=60 v=102
115687 Off ch=4 n=56 v=0
115687 Off ch=4 n=60 v=0
115968 On ch=4 n=58 v=97
116199 Off ch=4 n=58 v=0
116480 On ch=4 n=46 v=103
116711 Off ch=4 n=46 v=0
116992 On ch=4 n=65 v=105
116992 On ch=4 n=68 v=105
117735 Off ch=4 n=65 v=0
117735 Off ch=4 n=68 v=0
117760 On ch=4 n=58 v=106
117760 On ch=4 n=65 v=106
117991 Off ch=4 n=58 v=0
117991 Off ch=4 n=65 v=0
118016 On ch=4 n=63 v=116
118016 On ch=4 n=67 v=116
118247 Off ch=4 n=63 v=0
118247 Off ch=4 n=67 v=0
118272 On ch=4 n=63 v=116
118272 On ch=4 n=67 v=116
118503 Off ch=4 n=63 v=0
118503 Off ch=4 n=67 v=0
118784 On ch=4 n=58 v=97
118784 On ch=4 n=65 v=97
119015 Off ch=4 n=58 v=0
119015 Off ch=4 n=65 v=0
119296 On ch=4 n=58 v=103
119296 On ch=4 n=63 v=103
119527 Off ch=4 n=58 v=0
119527 Off ch=4 n=63 v=0
119808 On ch=4 n=56 v=102
119808 On ch=4 n=60 v=102
120039 Off ch=4 n=56 v=0
120039 Off ch=4 n=60 v=0
120320 On ch=4 n=55 v=102
120320 On ch=4 n=58 v=102
120551 Off ch=4 n=55 v=0
120551 Off ch=4 n=58 v=0
120832 On ch=4 n=46 v=101
120832 On ch=4 n=58 v=101
121063 Off ch=4 n=46 v=0
121063 Off ch=4 n=58 v=0
121088 On ch=4 n=51 v=126
121088 On ch=4 n=63 v=126
121204 Off ch=4 n=51 v=0
121204 Off ch=4 n=63 v=0
121216 On ch=4 n=67 v=127
121332 Off ch=4 n=67 v=0
121344 On ch=4 n=67 v=117
121460 Off ch=4 n=67 v=0
121472 On ch=4 n=67 v=112
121588 Off ch=4 n=67 v=0
121600 On ch=4 n=63 v=99
121716 Off ch=4 n=63 v=0
121728 On ch=4 n=58 v=104
121844 Off ch=4 n=58 v=0
121856 On ch=4 n=58 v=117
121972 Off ch=4 n=58 v=0
121984 On ch=4 n=58 v=110
122100 Off ch=4 n=58 v=0
122112 On ch=4 n=55 v=107
122228 Off ch=4 n=55 v=0
122240 On ch=4 n=51 v=108
122356 Off ch=4 n=51 v=0
122368 On ch=4 n=51 v=113
122484 Off ch=4 n=51 v=0
122496 On ch=4 n=51 v=108
122612 Off ch=4 n=51 v=0
122624 On ch=4 n=46 v=105
123252 Off ch=4 n=46 v=0
123264 On ch=4 n=67 v=127
123380 Off ch=4 n=67 v=0
123392 On ch=4 n=67 v=120
123508 Off ch=4 n=67 v=0
123520 On ch=4 n=67 v=112
123636 Off ch=4 n=67 v=0
123648 On ch=4 n=63 v=101
123764 Off ch=4 n=63 v=0
123776 On ch=4 n=58 v=106
123892 Off ch=4 n=58 v=0
123904 On ch=4 n=58 v=109
124020 Off ch=4 n=58 v=0
124032 On ch=4 n=58 v=111
124148 Off ch=4 n=58 v=0
124160 On ch=4 n=55 v=110
124276 Off ch=4 n=55 v=0
124288 On ch=4 n=51 v=101
124404 Off ch=4 n=51 v=0
124416 On ch=4 n=51 v=119
124532 Off ch=4 n=51 v=0
124544 On ch=4 n=51 v=115
124660 Off ch=4 n=51 v=0
124672 On ch=4 n=46 v=105
125415 Off ch=4 n=46 v=0
125824 On ch=4 n=58 v=105
125824 On ch=4 n=62 v=105
125940 Off ch=4 n=58 v=0
125940 Off ch=4 n=62 v=0
125952 On ch=4 n=58 v=107
125952 On ch=4 n=62 v=107
126068 Off ch=4 n=58 v=0
126068 Off ch=4 n=62 v=0
126080 On ch=4 n=58 v=116
126080 On ch=4 n=62 v=116
126196 Off ch=4 n=58 v=0
126196 Off ch=4 n=62 v=0
126208 On ch=4 n=58 v=121
126208 On ch=4 n=63 v=121
126439 Off ch=4 n=58 v=0
126439 Off ch=4 n=63 v=0
126848 On ch=4 n=46 v=100
126964 Off ch=4 n=46 v=0
126976 On ch=4 n=46 v=109
127092 Off ch=4 n=46 v=0
127104 On ch=4 n=46 v=111
127220 Off ch=4 n=46 v=0
127232 On ch=4 n=51 v=119
127463 Off ch=4 n=51 v=0
129280 On ch=4 n=67 v=101
131072 Off ch=4 n=67 v=0
131584 On ch=4 n=53 v=54
131584 On ch=4 n=65 v=54
133581 Off ch=4 n=53 v=0
133581 Off ch=4 n=65 v=0
133632 On ch=4 n=52 v=69
133632 On ch=4 n=64 v=69
135629 Off ch=4 n=52 v=0
135629 Off ch=4 n=64 v=0
135680 On ch=4 n=53 v=74
135680 On ch=4 n=65 v=74
136192 On ch=4 n=52 v=69
136192 On ch=4 n=64 v=69
136202 Off ch=4 n=53 v=0
136202 Off ch=4 n=65 v=0
136704 On ch=4 n=53 v=74
136704 On ch=4 n=65 v=74
136714 Off ch=4 n=52 v=0
136714 Off ch=4 n=64 v=0
137216 On ch=4 n=52 v=68
137216 On ch=4 n=64 v=68
137226 Off ch=4 n=53 v=0
137226 Off ch=4 n=65 v=0
137728 On ch=4 n=53 v=76
137728 On ch=4 n=65 v=76
137738 Off ch=4 n=52 v=0
137738 Off ch=4 n=64 v=0
137971 Off ch=4 n=53 v=0
137971 Off ch=4 n=65 v=0
139776 On ch=4 n=60 v=53
139776 On ch=4 n=63 v=53
140288 On ch=4 n=59 v=56
140288 On ch=4 n=62 v=56
140298 Off ch=4 n=60 v=0
140298 Off ch=4 n=63 v=0
140800 On ch=4 n=60 v=67
140800 On ch=4 n=63 v=67
140810 Off ch=4 n=59 v=0
140810 Off ch=4 n=62 v=0
141312 On ch=4 n=59 v=61
141312 On ch=4 n=62 v=61
141322 Off ch=4 n=60 v=0
141322 Off ch=4 n=63 v=0
141824 On ch=4 n=60 v=62
141824 On ch=4 n=63 v=62
141834 Off ch=4 n=59 v=0
141834 Off ch=4 n=62 v=0
142067 Off ch=4 n=60 v=0
142067 Off ch=4 n=63 v=0
142464 On ch=4 n=63 v=59
142580 Off ch=4 n=63 v=0
142592 On ch=4 n=63 v=71
142708 Off ch=4 n=63 v=0
142720 On ch=4 n=62 v=65
142836 Off ch=4 n=62 v=0
142848 On ch=4 n=60 v=63
142964 Off ch=4 n=60 v=0
142976 On ch=4 n=60 v=72
143092 Off ch=4 n=60 v=0
143104 On ch=4 n=60 v=81
143220 Off ch=4 n=60 v=0
143232 On ch=4 n=58 v=85
143348 Off ch=4 n=58 v=0
143360 On ch=4 n=57 v=63
143476 Off ch=4 n=57 v=0
143488 On ch=4 n=54 v=71
143488 On ch=4 n=62 v=71
143604 Off ch=4 n=54 v=0
143604 Off ch=4 n=62 v=0
143616 On ch=4 n=54 v=62
143616 On ch=4 n=62 v=62
143732 Off ch=4 n=54 v=0
143732 Off ch=4 n=62 v=0
143744 On ch=4 n=57 v=55
143744 On ch=4 n=60 v=55
143860 Off ch=4 n=57 v=0
143860 Off ch=4 n=60 v=0
143872 On ch=4 n=55 v=56
143872 On ch=4 n=58 v=56
144333 Off ch=4 n=55 v=0
144333 Off ch=4 n=58 v=0
144384 On ch=4 n=54 v=61
144384 On ch=4 n=57 v=61
144500 Off ch=4 n=54 v=0
144500 Off ch=4 n=57 v=0
144512 On ch=4 n=54 v=70
144512 On ch=4 n=62 v=70
144628 Off ch=4 n=54 v=0
144628 Off ch=4 n=62 v=0
144640 On ch=4 n=54 v=61
144640 On ch=4 n=62 v=61
144756 Off ch=4 n=54 v=0
144756 Off ch=4 n=62 v=0
144768 On ch=4 n=57 v=58
144768 On ch=4 n=60 v=58
144884 Off ch=4 n=57 v=0
144884 Off ch=4 n=60 v=0
144896 On ch=4 n=55 v=55
144896 On ch=4 n=58 v=55
145357 Off ch=4 n=55 v=0
145357 Off ch=4 n=58 v=0
145408 On ch=4 n=54 v=60
145408 On ch=4 n=57 v=60
145869 Off ch=4 n=54 v=0
145869 Off ch=4 n=57 v=0
145920 On ch=4 n=55 v=61
145920 On ch=4 n=58 v=61
146151 Off ch=4 n=55 v=0
146151 Off ch=4 n=58 v=0
146432 On ch=4 n=43 v=75
146548 Off ch=4 n=43 v=0
146560 On ch=4 n=55 v=57
146560 On ch=4 n=43 v=71
146676 Off ch=4 n=55 v=0
146676 Off ch=4 n=43 v=0
146688 On ch=4 n=57 v=60
146688 On ch=4 n=43 v=76
146804 Off ch=4 n=57 v=0
146804 Off ch=4 n=43 v=0
146816 On ch=4 n=58 v=62
146816 On ch=4 n=43 v=71
146932 Off ch=4 n=58 v=0
146932 Off ch=4 n=43 v=0
146944 On ch=4 n=60 v=64
146944 On ch=4 n=45 v=75
147175 Off ch=4 n=60 v=0
147572 Off ch=4 n=45 v=0
147584 On ch=4 n=54 v=55
147584 On ch=4 n=45 v=77
147700 Off ch=4 n=54 v=0
147700 Off ch=4 n=45 v=0
147712 On ch=4 n=57 v=62
147712 On ch=4 n=45 v=74
147828 Off ch=4 n=57 v=0
147828 Off ch=4 n=45 v=0
147840 On ch=4 n=58 v=59
147840 On ch=4 n=45 v=77
147956 Off ch=4 n=58 v=0
147956 Off ch=4 n=45 v=0
147968 On ch=4 n=60 v=66
147968 On ch=4 n=45 v=78
148199 Off ch=4 n=60 v=0
148596 Off ch=4 n=45 v=0
148608 On ch=4 n=57 v=54
148608 On ch=4 n=45 v=77
148724 Off ch=4 n=57 v=0
148724 Off ch=4 n=45 v=0
148736 On ch=4 n=58 v=60
148736 On ch=4 n=45 v=75
148852 Off ch=4 n=58 v=0
148852 Off ch=4 n=45 v=0
148864 On ch=4 n=60 v=63
148864 On ch=4 n=45 v=75
148980 Off ch=4 n=60 v=0
148980 Off ch=4 n=45 v=0
148992 On ch=4 n=62 v=65
148992 On ch=4 n=46 v=77
149223 Off ch=4 n=62 v=0
149620 Off ch=4 n=46 v=0
149632 On ch=4 n=55 v=54
149632 On ch=4 n=46 v=78
149748 Off ch=4 n=55 v=0
149748 Off ch=4 n=46 v=0
149760 On ch=4 n=58 v=64
149760 On ch=4 n=46 v=76
149876 Off ch=4 n=58 v=0
149876 Off ch=4 n=46 v=0
149888 On ch=4 n=60 v=64
149888 On ch=4 n=46 v=75
150004 Off ch=4 n=60 v=0
150004 Off ch=4 n=46 v=0
150016 On ch=4 n=62 v=68
150016 On ch=4 n=46 v=76
150247 Off ch=4 n=62 v=0
150477 Off ch=4 n=46 v=0
150656 On ch=4 n=55 v=67
150656 On ch=4 n=58 v=67
150772 Off ch=4 n=55 v=0
150772 Off ch=4 n=58 v=0
150784 On ch=4 n=57 v=87
150784 On ch=4 n=60 v=87
150900 Off ch=4 n=57 v=0
150900 Off ch=4 n=60 v=0
150912 On ch=4 n=58 v=90
150912 On ch=4 n=62 v=90
151028 Off ch=4 n=58 v=0
151028 Off ch=4 n=62 v=0
151040 On ch=4 n=54 v=94
151040 On ch=4 n=57 v=94
152013 Off ch=4 n=54 v=0
152013 Off ch=4 n=57 v=0
152064 On ch=4 n=54 v=96
152064 On ch=4 n=57 v=96
152295 Off ch=4 n=54 v=0
152295 Off ch=4 n=57 v=0
152704 On ch=4 n=49 v=90
152704 On ch=4 n=61 v=90
152820 Off ch=4 n=49 v=0
152820 Off ch=4 n=61 v=0
152832 On ch=4 n=49 v=96
152832 On ch=4 n=61 v=96
152948 Off ch=4 n=49 v=0
152948 Off ch=4 n=61 v=0
152960 On ch=4 n=49 v=102
152960 On ch=4 n=61 v=102
153076 Off ch=4 n=49 v=0
153076 Off ch=4 n=61 v=0
153088 On ch=4 n=49 v=98
153088 On ch=4 n=61 v=98
154061 Off ch=4 n=49 v=0
154061 Off ch=4 n=61 v=0
154112 On ch=4 n=49 v=100
154112 On ch=4 n=61 v=100
154343 Off ch=4 n=49 v=0
154343 Off ch=4 n=61 v=0
154752 On ch=4 n=50 v=94
154752 On ch=4 n=62 v=94
154868 Off ch=4 n=50 v=0
154868 Off ch=4 n=62 v=0
154880 On ch=4 n=50 v=103
154880 On ch=4 n=62 v=103
154996 Off ch=4 n=50 v=0
154996 Off ch=4 n=62 v=0
155008 On ch=4 n=50 v=107
155008 On ch=4 n=62 v=107
155124 Off ch=4 n=50 v=0
155124 Off ch=4 n=62 v=0
155136 On ch=4 n=50 v=110
155136 On ch=4 n=62 v=110
155367 Off ch=4 n=50 v=0
155367 Off ch=4 n=62 v=0
155904 On ch=4 n=52 v=96
155904 On ch=4 n=64 v=96
156020 Off ch=4 n=52 v=0
156020 Off ch=4 n=64 v=0
156032 On ch=4 n=52 v=103
156032 On ch=4 n=64 v=103
156148 Off ch=4 n=52 v=0
156148 Off ch=4 n=64 v=0
156160 On ch=4 n=52 v=104
156160 On ch=4 n=64 v=104
156391 Off ch=4 n=52 v=0
156391 Off ch=4 n=64 v=0
156416 On ch=4 n=54 v=112
156416 On ch=4 n=66 v=112
156532 Off ch=4 n=54 v=0
156532 Off ch=4 n=66 v=0
156544 On ch=4 n=54 v=106
156544 On ch=4 n=66 v=106
156660 Off ch=4 n=54 v=0
156660 Off ch=4 n=66 v=0
156672 On ch=4 n=54 v=101
156672 On ch=4 n=66 v=101
156903 Off ch=4 n=54 v=0
156903 Off ch=4 n=66 v=0
158976 On ch=4 n=66 v=103
159092 Off ch=4 n=66 v=0
159104 On ch=4 n=66 v=112
159220 Off ch=4 n=66 v=0
159232 On ch=4 n=66 v=110
159463 Off ch=4 n=66 v=0
160512 On ch=4 n=50 v=103
160512 On ch=4 n=62 v=103
160628 Off ch=4 n=50 v=0
160628 Off ch=4 n=62 v=0
160640 On ch=4 n=50 v=115
160640 On ch=4 n=62 v=115
160756 Off ch=4 n=50 v=0
160756 Off ch=4 n=62 v=0
160768 On ch=4 n=43 v=105
160768 On ch=4 n=55 v=105
160999 Off ch=4 n=43 v=0
160999 Off ch=4 n=55 v=0
162560 On ch=4 n=59 v=100
162676 Off ch=4 n=59 v=0
162688 On ch=4 n=59 v=112
162804 Off ch=4 n=59 v=0
162816 On ch=4 n=59 v=113
163047 Off ch=4 n=59 v=0
164992 On ch=4 n=60 v=101
165108 Off ch=4 n=60 v=0
165120 On ch=4 n=60 v=113
165236 Off ch=4 n=60 v=0
165248 On ch=4 n=60 v=114
165364 Off ch=4 n=60 v=0
165376 On ch=4 n=56 v=115
165376 On ch=4 n=60 v=115
165888 On ch=4 n=58 v=119
165888 On ch=4 n=61 v=119
165898 Off ch=4 n=56 v=0
165898 Off ch=4 n=60 v=0
166374 Off ch=4 n=58 v=0
166374 Off ch=4 n=61 v=0
167424 On ch=4 n=56 v=111
167424 On ch=4 n=60 v=111
167936 On ch=4 n=58 v=118
167936 On ch=4 n=61 v=118
167946 Off ch=4 n=56 v=0
167946 Off ch=4 n=60 v=0
168422 Off ch=4 n=58 v=0
168422 Off ch=4 n=61 v=0
169472 On ch=4 n=56 v=107
169472 On ch=4 n=60 v=107
169984 On ch=4 n=58 v=111
169984 On ch=4 n=61 v=111
169994 Off ch=4 n=56 v=0
169994 Off ch=4 n=60 v=0
170470 Off ch=4 n=58 v=0
170470 Off ch=4 n=61 v=0
171520 On ch=4 n=60 v=121
171520 On ch=4 n=63 v=121
172032 On ch=4 n=61 v=127
172032 On ch=4 n=65 v=127
172042 Off ch=4 n=60 v=0
172042 Off ch=4 n=63 v=0
172518 Off ch=4 n=61 v=0
172518 Off ch=4 n=65 v=0
173056 On ch=4 n=63 v=121
173056 On ch=4 n=66 v=121
173517 Off ch=4 n=63 v=0
173517 Off ch=4 n=66 v=0
174080 On ch=4 n=65 v=76
174080 On ch=4 n=68 v=76
174541 Off ch=4 n=65 v=0
174541 Off ch=4 n=68 v=0
175104 On ch=4 n=66 v=60
175104 On ch=4 n=69 v=60
175565 Off ch=4 n=66 v=0
175565 Off ch=4 n=69 v=0
176128 On ch=4 n=66 v=61
176128 On ch=4 n=69 v=61
176589 Off ch=4 n=66 v=0
176589 Off ch=4 n=69 v=0
177152 On ch=4 n=66 v=56
177152 On ch=4 n=69 v=56
177613 Off ch=4 n=66 v=0
177613 Off ch=4 n=69 v=0
178176 On ch=4 n=66 v=48
178176 On ch=4 n=69 v=48
178637 Off ch=4 n=66 v=0
178637 Off ch=4 n=69 v=0
179200 On ch=4 n=66 v=50
179200 On ch=4 n=69 v=50
179661 Off ch=4 n=66 v=0
179661 Off ch=4 n=69 v=0
180224 On ch=4 n=66 v=55
180224 On ch=4 n=69 v=55
180685 Off ch=4 n=66 v=0
180685 Off ch=4 n=69 v=0
181248 On ch=4 n=66 v=48
181248 On ch=4 n=69 v=48
181709 Off ch=4 n=66 v=0
181709 Off ch=4 n=69 v=0
181888 On ch=4 n=50 v=102
181888 On ch=4 n=62 v=102
182004 Off ch=4 n=50 v=0
182004 Off ch=4 n=62 v=0
182016 On ch=4 n=50 v=108
182016 On ch=4 n=62 v=108
182132 Off ch=4 n=50 v=0
182132 Off ch=4 n=62 v=0
182144 On ch=4 n=50 v=117
182144 On ch=4 n=62 v=117
182260 Off ch=4 n=50 v=0
182260 Off ch=4 n=62 v=0
182272 On ch=4 n=47 v=108
182272 On ch=4 n=59 v=108
182733 Off ch=4 n=47 v=0
182733 Off ch=4 n=59 v=0
182784 On ch=4 n=48 v=118
182784 On ch=4 n=60 v=118
183245 Off ch=4 n=48 v=0
183245 Off ch=4 n=60 v=0
183296 On ch=4 n=45 v=110
183296 On ch=4 n=57 v=110
184269 Off ch=4 n=45 v=0
184269 Off ch=4 n=57 v=0
184320 On ch=4 n=59 v=64
184320 On ch=4 n=65 v=64
184781 Off ch=4 n=59 v=0
184781 Off ch=4 n=65 v=0
185344 On ch=4 n=59 v=51
185344 On ch=4 n=65 v=51
185805 Off ch=4 n=59 v=0
185805 Off ch=4 n=65 v=0
186368 On ch=4 n=59 v=48
186368 On ch=4 n=65 v=48
186829 Off ch=4 n=59 v=0
186829 Off ch=4 n=65 v=0
187392 On ch=4 n=59 v=55
187392 On ch=4 n=65 v=55
187853 Off ch=4 n=59 v=0
187853 Off ch=4 n=65 v=0
188032 On ch=4 n=44 v=100
188032 On ch=4 n=56 v=100
188148 Off ch=4 n=44 v=0
188148 Off ch=4 n=56 v=0
188160 On ch=4 n=44 v=114
188160 On ch=4 n=56 v=114
188276 Off ch=4 n=44 v=0
188276 Off ch=4 n=56 v=0
188288 On ch=4 n=44 v=110
188288 On ch=4 n=56 v=110
188404 Off ch=4 n=44 v=0
188404 Off ch=4 n=56 v=0
188416 On ch=4 n=41 v=109
188416 On ch=4 n=53 v=109
189044 Off ch=4 n=41 v=0
189044 Off ch=4 n=53 v=0
189056 On ch=4 n=44 v=120
189056 On ch=4 n=56 v=120
189172 Off ch=4 n=44 v=0
189172 Off ch=4 n=56 v=0
189184 On ch=4 n=44 v=111
189184 On ch=4 n=56 v=111
189300 Off ch=4 n=44 v=0
189300 Off ch=4 n=56 v=0
189312 On ch=4 n=44 v=107
189312 On ch=4 n=56 v=107
189428 Off ch=4 n=44 v=0
189428 Off ch=4 n=56 v=0
189440 On ch=4 n=41 v=110
189440 On ch=4 n=53 v=110
190068 Off ch=4 n=41 v=0
190068 Off ch=4 n=53 v=0
190080 On ch=4 n=44 v=119
190080 On ch=4 n=56 v=119
190196 Off ch=4 n=44 v=0
190196 Off ch=4 n=56 v=0
190208 On ch=4 n=44 v=108
190208 On ch=4 n=56 v=108
190324 Off ch=4 n=44 v=0
190324 Off ch=4 n=56 v=0
190336 On ch=4 n=44 v=108
190336 On ch=4 n=56 v=108
190452 Off ch=4 n=44 v=0
190452 Off ch=4 n=56 v=0
190464 On ch=4 n=41 v=105
190464 On ch=4 n=53 v=105
190580 Off ch=4 n=41 v=0
190580 Off ch=4 n=53 v=0
190592 On ch=4 n=44 v=117
190592 On ch=4 n=56 v=117
190708 Off ch=4 n=44 v=0
190708 Off ch=4 n=56 v=0
190720 On ch=4 n=44 v=115
190720 On ch=4 n=56 v=115
190836 Off ch=4 n=44 v=0
190836 Off ch=4 n=56 v=0
190848 On ch=4 n=44 v=111
190848 On ch=4 n=56 v=111
190964 Off ch=4 n=44 v=0
190964 Off ch=4 n=56 v=0
190976 On ch=4 n=41 v=108
190976 On ch=4 n=53 v=108
191092 Off ch=4 n=41 v=0
191092 Off ch=4 n=53 v=0
191104 On ch=4 n=44 v=117
191104 On ch=4 n=56 v=117
191220 Off ch=4 n=44 v=0
191220 Off ch=4 n=56 v=0
191232 On ch=4 n=44 v=110
191232 On ch=4 n=56 v=110
191348 Off ch=4 n=44 v=0
191348 Off ch=4 n=56 v=0
191360 On ch=4 n=44 v=117
191360 On ch=4 n=56 v=117
191476 Off ch=4 n=44 v=0
191476 Off ch=4 n=56 v=0
191488 On ch=4 n=41 v=106
191488 On ch=4 n=53 v=106
191604 Off ch=4 n=41 v=0
191604 Off ch=4 n=53 v=0
191616 On ch=4 n=44 v=116
191616 On ch=4 n=56 v=116
191732 Off ch=4 n=44 v=0
191732 Off ch=4 n=56 v=0
191744 On ch=4 n=44 v=113
191744 On ch=4 n=56 v=113
191860 Off ch=4 n=44 v=0
191860 Off ch=4 n=56 v=0
191872 On ch=4 n=44 v=115
191872 On ch=4 n=56 v=115
191988 Off ch=4 n=44 v=0
191988 Off ch=4 n=56 v=0
192000 On ch=4 n=41 v=106
192000 On ch=4 n=53 v=106
192116 Off ch=4 n=41 v=0
192116 Off ch=4 n=53 v=0
192128 On ch=4 n=43 v=117
192128 On ch=4 n=55 v=117
192244 Off ch=4 n=43 v=0
192244 Off ch=4 n=55 v=0
192256 On ch=4 n=43 v=112
192256 On ch=4 n=55 v=112
192372 Off ch=4 n=43 v=0
192372 Off ch=4 n=55 v=0
192384 On ch=4 n=43 v=113
192384 On ch=4 n=55 v=113
192500 Off ch=4 n=43 v=0
192500 Off ch=4 n=55 v=0
192512 On ch=4 n=51 v=108
193280 Off ch=4 n=51 v=0
193408 On ch=4 n=41 v=104
193408 On ch=4 n=53 v=104
193524 Off ch=4 n=41 v=0
193524 Off ch=4 n=53 v=0
193536 On ch=4 n=41 v=111
193536 On ch=4 n=53 v=111
193652 Off ch=4 n=41 v=0
193652 Off ch=4 n=53 v=0
193664 On ch=4 n=41 v=109
193664 On ch=4 n=53 v=109
193780 Off ch=4 n=41 v=0
193780 Off ch=4 n=53 v=0
193792 On ch=4 n=38 v=109
193792 On ch=4 n=50 v=109
195072 Off ch=4 n=38 v=0
195072 Off ch=4 n=50 v=0
195584 On ch=4 n=48 v=76
195584 On ch=4 n=60 v=76
196839 Off ch=4 n=48 v=0
196839 Off ch=4 n=60 v=0
196864 On ch=4 n=48 v=59
196864 On ch=4 n=60 v=59
197120 On ch=4 n=51 v=65
197120 On ch=4 n=63 v=65
197125 Off ch=4 n=48 v=0
197125 Off ch=4 n=60 v=0
197376 On ch=4 n=48 v=53
197376 On ch=4 n=60 v=53
197381 Off ch=4 n=51 v=0
197381 Off ch=4 n=63 v=0
197619 Off ch=4 n=48 v=0
197619 Off ch=4 n=60 v=0
197632 On ch=4 n=47 v=63
197632 On ch=4 n=59 v=63
198887 Off ch=4 n=47 v=0
198887 Off ch=4 n=59 v=0
198912 On ch=4 n=43 v=59
198912 On ch=4 n=55 v=59
199168 On ch=4 n=47 v=61
199168 On ch=4 n=59 v=61
199173 Off ch=4 n=43 v=0
199173 Off ch=4 n=55 v=0
199424 On ch=4 n=43 v=57
199424 On ch=4 n=55 v=57
199429 Off ch=4 n=47 v=0
199429 Off ch=4 n=59 v=0
199667 Off ch=4 n=43 v=0
199667 Off ch=4 n=55 v=0
199680 On ch=4 n=48 v=66
199680 On ch=4 n=60 v=66
200141 Off ch=4 n=48 v=0
200141 Off ch=4 n=60 v=0
200192 On ch=4 n=47 v=63
200192 On ch=4 n=59 v=63
200653 Off ch=4 n=47 v=0
200653 Off ch=4 n=59 v=0
200704 On ch=4 n=48 v=66
200704 On ch=4 n=60 v=66
201165 Off ch=4 n=48 v=0
201165 Off ch=4 n=60 v=0
201216 On ch=4 n=43 v=58
201216 On ch=4 n=55 v=58
201677 Off ch=4 n=43 v=0
201677 Off ch=4 n=55 v=0
201728 On ch=4 n=48 v=79
201728 On ch=4 n=60 v=79
202189 Off ch=4 n=48 v=0
202189 Off ch=4 n=60 v=0
202240 On ch=4 n=44 v=73
202240 On ch=4 n=56 v=73
202701 Off ch=4 n=44 v=0
202701 Off ch=4 n=56 v=0
202752 On ch=4 n=43 v=97
202752 On ch=4 n=55 v=97
202983 Off ch=4 n=43 v=0
202983 Off ch=4 n=55 v=0
208128 On ch=4 n=62 v=56
209613 Off ch=4 n=62 v=0
209664 On ch=4 n=60 v=93
209895 Off ch=4 n=60 v=0
210304 On ch=4 n=65 v=86
210304 On ch=4 n=68 v=86
210420 Off ch=4 n=65 v=0
210420 Off ch=4 n=68 v=0
210432 On ch=4 n=65 v=98
210432 On ch=4 n=68 v=98
210548 Off ch=4 n=65 v=0
210548 Off ch=4 n=68 v=0
210560 On ch=4 n=65 v=92
210560 On ch=4 n=68 v=92
210676 Off ch=4 n=65 v=0
210676 Off ch=4 n=68 v=0
210688 On ch=4 n=65 v=96
210688 On ch=4 n=68 v=96
210919 Off ch=4 n=65 v=0
210919 Off ch=4 n=68 v=0
211328 On ch=4 n=63 v=86
211328 On ch=4 n=67 v=86
211444 Off ch=4 n=63 v=0
211444 Off ch=4 n=67 v=0
211456 On ch=4 n=63 v=98
211456 On ch=4 n=67 v=98
211572 Off ch=4 n=63 v=0
211572 Off ch=4 n=67 v=0
211584 On ch=4 n=63 v=99
211584 On ch=4 n=67 v=99
211700 Off ch=4 n=63 v=0
211700 Off ch=4 n=67 v=0
211712 On ch=4 n=63 v=102
211712 On ch=4 n=67 v=102
211943 Off ch=4 n=63 v=0
211943 Off ch=4 n=67 v=0
212224 On ch=4 n=59 v=99
212455 Off ch=4 n=59 v=0
212736 On ch=4 n=48 v=100
212736 On ch=4 n=58 v=100
212967 Off ch=4 n=48 v=0
212967 Off ch=4 n=58 v=0
213248 On ch=4 n=48 v=105
213248 On ch=4 n=56 v=105
213479 Off ch=4 n=48 v=0
213479 Off ch=4 n=56 v=0
213760 On ch=4 n=48 v=101
213760 On ch=4 n=52 v=101
213991 Off ch=4 n=48 v=0
213991 Off ch=4 n=52 v=0
214272 On ch=4 n=48 v=103
214272 On ch=4 n=53 v=103
214503 Off ch=4 n=48 v=0
214503 Off ch=4 n=53 v=0
214784 On ch=4 n=48 v=101
214784 On ch=4 n=60 v=101
215015 Off ch=4 n=48 v=0
215015 Off ch=4 n=60 v=0
215296 On ch=4 n=48 v=88
215296 On ch=4 n=51 v=88
217293 Off ch=4 n=48 v=0
217293 Off ch=4 n=51 v=0
217344 On ch=4 n=47 v=97
217344 On ch=4 n=50 v=97
219111 Off ch=4 n=47 v=0
219111 Off ch=4 n=50 v=0
219136 On ch=4 n=48 v=101
219136 On ch=4 n=51 v=101
219367 Off ch=4 n=48 v=0
219367 Off ch=4 n=51 v=0
219392 On ch=4 n=60 v=127
219392 On ch=4 n=63 v=127
221389 Off ch=4 n=60 v=0
221389 Off ch=4 n=63 v=0
221440 On ch=4 n=60 v=112
221440 On ch=4 n=63 v=112
221671 Off ch=4 n=60 v=0
221671 Off ch=4 n=63 v=0
222464 On ch=4 n=59 v=98
222464 On ch=4 n=62 v=98
222695 Off ch=4 n=59 v=0
222695 Off ch=4 n=62 v=0
223104 On ch=4 n=67 v=105
223220 Off ch=4 n=67 v=0
223232 On ch=4 n=67 v=112
223348 Off ch=4 n=67 v=0
223360 On ch=4 n=67 v=112
223476 Off ch=4 n=67 v=0
223488 On ch=4 n=60 v=102
223949 Off ch=4 n=60 v=0
224000 On ch=4 n=62 v=127
224461 Off ch=4 n=62 v=0
224512 On ch=4 n=55 v=120
225024 Off ch=4 n=55 v=0
225024 On ch=4 n=55 v=108
227072 On ch=4 n=64 v=66
227072 On ch=4 n=67 v=66
227131 Off ch=4 n=55 v=0
227584 On ch=4 n=62 v=67
227584 On ch=4 n=65 v=67
227663 Off ch=4 n=64 v=0
227663 Off ch=4 n=67 v=0
228096 On ch=4 n=55 v=44
228096 On ch=4 n=62 v=44
228097 Off ch=4 n=62 v=0
228097 Off ch=4 n=65 v=0
228608 On ch=4 n=60 v=44
228608 On ch=4 n=64 v=44
228687 Off ch=4 n=55 v=0
228687 Off ch=4 n=62 v=0
229120 On ch=4 n=52 v=44
229120 On ch=4 n=55 v=44
229121 Off ch=4 n=60 v=0
229121 Off ch=4 n=64 v=0
229632 On ch=4 n=50 v=43
229632 On ch=4 n=53 v=43
229711 Off ch=4 n=52 v=0
229711 Off ch=4 n=55 v=0
230144 On ch=4 n=43 v=48
230144 On ch=4 n=50 v=48
230145 Off ch=4 n=50 v=0
230145 Off ch=4 n=53 v=0
230656 On ch=4 n=48 v=49
230656 On ch=4 n=52 v=49
230735 Off ch=4 n=43 v=0
230735 Off ch=4 n=50 v=0
231168 On ch=4 n=64 v=68
231168 On ch=4 n=67 v=68
231169 Off ch=4 n=48 v=0
231169 Off ch=4 n=52 v=0
231680 On ch=4 n=62 v=69
231680 On ch=4 n=65 v=69
231759 Off ch=4 n=64 v=0
231759 Off ch=4 n=67 v=0
232192 On ch=4 n=55 v=51
232192 On ch=4 n=62 v=51
232193 Off ch=4 n=62 v=0
232193 Off ch=4 n=65 v=0
232704 On ch=4 n=60 v=58
232704 On ch=4 n=64 v=58
232783 Off ch=4 n=55 v=0
232783 Off ch=4 n=62 v=0
233216 On ch=4 n=55 v=48
233216 On ch=4 n=58 v=48
233217 Off ch=4 n=60 v=0
233217 Off ch=4 n=64 v=0
233728 On ch=4 n=52 v=48
233728 On ch=4 n=55 v=48
233784 Off ch=4 n=55 v=0
233807 Off ch=4 n=58 v=0
234240 On ch=4 n=48 v=43
234240 On ch=4 n=52 v=43
234241 Off ch=4 n=52 v=0
234241 Off ch=4 n=55 v=0
234752 On ch=4 n=53 v=44
234831 Off ch=4 n=48 v=0
234831 Off ch=4 n=52 v=0
235264 On ch=4 n=57 v=58
235264 On ch=4 n=60 v=58
235265 Off ch=4 n=53 v=0
235776 On ch=4 n=54 v=54
235776 On ch=4 n=57 v=54
235832 Off ch=4 n=57 v=0
235855 Off ch=4 n=60 v=0
236288 On ch=4 n=54 v=51
236288 On ch=4 n=50 v=72
236289 Off ch=4 n=54 v=0
236289 Off ch=4 n=57 v=0
236800 On ch=4 n=55 v=50
236879 Off ch=4 n=54 v=0
236879 Off ch=4 n=50 v=0
237312 On ch=4 n=44 v=57
237312 On ch=4 n=56 v=57
237313 Off ch=4 n=55 v=0
238797 Off ch=4 n=44 v=0
238797 Off ch=4 n=56 v=0
238848 On ch=4 n=47 v=57
238848 On ch=4 n=59 v=57
239821 Off ch=4 n=47 v=0
239821 Off ch=4 n=59 v=0
239872 On ch=4 n=50 v=54
239872 On ch=4 n=62 v=54
241869 Off ch=4 n=50 v=0
241869 Off ch=4 n=62 v=0
241920 On ch=4 n=50 v=85
241920 On ch=4 n=62 v=85
242893 Off ch=4 n=50 v=0
242893 Off ch=4 n=62 v=0
242944 On ch=4 n=50 v=99
242944 On ch=4 n=62 v=99
244941 Off ch=4 n=50 v=0
244941 Off ch=4 n=62 v=0
244992 On ch=4 n=62 v=121
244992 On ch=4 n=65 v=121
245735 Off ch=4 n=62 v=0
245735 Off ch=4 n=65 v=0
245760 On ch=4 n=59 v=111
245760 On ch=4 n=65 v=111
245991 Off ch=4 n=59 v=0
245991 Off ch=4 n=65 v=0
246016 On ch=4 n=60 v=110
246016 On ch=4 n=64 v=110
246247 Off ch=4 n=60 v=0
246247 Off ch=4 n=64 v=0
246528 On ch=4 n=59 v=103
246528 On ch=4 n=65 v=103
246759 Off ch=4 n=59 v=0
246759 Off ch=4 n=65 v=0
247040 On ch=4 n=60 v=100
247040 On ch=4 n=64 v=100
247271 Off ch=4 n=60 v=0
247271 Off ch=4 n=64 v=0
247552 On ch=4 n=53 v=97
247552 On ch=4 n=65 v=97
247783 Off ch=4 n=53 v=0
247783 Off ch=4 n=65 v=0
248064 On ch=4 n=55 v=101
248064 On ch=4 n=67 v=101
248295 Off ch=4 n=55 v=0
248295 Off ch=4 n=67 v=0
248576 On ch=4 n=43 v=101
248576 On ch=4 n=55 v=101
248807 Off ch=4 n=43 v=0
248807 Off ch=4 n=55 v=0
249088 On ch=4 n=47 v=101
249088 On ch=4 n=50 v=101
250061 Off ch=4 n=47 v=0
250061 Off ch=4 n=50 v=0
250112 On ch=4 n=48 v=118
250112 On ch=4 n=52 v=118
250343 Off ch=4 n=48 v=0
250343 Off ch=4 n=52 v=0
250368 On ch=4 n=48 v=110
250368 On ch=4 n=52 v=110
250599 Off ch=4 n=48 v=0
250599 Off ch=4 n=52 v=0
250880 On ch=4 n=50 v=101
250880 On ch=4 n=53 v=101
251111 Off ch=4 n=50 v=0
251111 Off ch=4 n=53 v=0
251392 On ch=4 n=52 v=105
251392 On ch=4 n=55 v=105
251623 Off ch=4 n=52 v=0
251623 Off ch=4 n=55 v=0
251904 On ch=4 n=53 v=102
251904 On ch=4 n=57 v=102
252135 Off ch=4 n=53 v=0
252135 Off ch=4 n=57 v=0
252416 On ch=4 n=55 v=102
252416 On ch=4 n=60 v=102
252647 Off ch=4 n=55 v=0
252647 Off ch=4 n=60 v=0
252928 On ch=4 n=55 v=102
252928 On ch=4 n=59 v=102
253159 Off ch=4 n=55 v=0
253159 Off ch=4 n=59 v=0
253184 On ch=4 n=55 v=119
253184 On ch=4 n=60 v=119
253300 Off ch=4 n=55 v=0
253300 Off ch=4 n=60 v=0
253312 On ch=4 n=52 v=125
253312 On ch=4 n=64 v=125
253428 Off ch=4 n=52 v=0
253428 Off ch=4 n=64 v=0
253440 On ch=4 n=52 v=118
253440 On ch=4 n=64 v=118
253556 Off ch=4 n=52 v=0
253556 Off ch=4 n=64 v=0
253568 On ch=4 n=52 v=110
253568 On ch=4 n=64 v=110
253684 Off ch=4 n=52 v=0
253684 Off ch=4 n=64 v=0
253696 On ch=4 n=48 v=101
253696 On ch=4 n=60 v=101
253812 Off ch=4 n=48 v=0
253812 Off ch=4 n=60 v=0
253824 On ch=4 n=55 v=127
253824 On ch=4 n=67 v=127
253940 Off ch=4 n=55 v=0
253940 Off ch=4 n=67 v=0
253952 On ch=4 n=55 v=117
253952 On ch=4 n=67 v=117
254068 Off ch=4 n=55 v=0
254068 Off ch=4 n=67 v=0
254080 On ch=4 n=55 v=115
254080 On ch=4 n=67 v=115
254196 Off ch=4 n=55 v=0
254196 Off ch=4 n=67 v=0
254208 On ch=4 n=52 v=101
254208 On ch=4 n=64 v=101
254324 Off ch=4 n=52 v=0
254324 Off ch=4 n=64 v=0
254336 On ch=4 n=48 v=100
254336 On ch=4 n=60 v=100
254452 Off ch=4 n=48 v=0
254452 Off ch=4 n=60 v=0
254464 On ch=4 n=48 v=111
254464 On ch=4 n=60 v=111
254580 Off ch=4 n=48 v=0
254580 Off ch=4 n=60 v=0
254592 On ch=4 n=48 v=115
254592 On ch=4 n=60 v=115
254708 Off ch=4 n=48 v=0
254708 Off ch=4 n=60 v=0
254720 On ch=4 n=43 v=107
254720 On ch=4 n=55 v=107
255348 Off ch=4 n=43 v=0
255348 Off ch=4 n=55 v=0
255360 On ch=4 n=64 v=127
255476 Off ch=4 n=64 v=0
255488 On ch=4 n=64 v=116
255604 Off ch=4 n=64 v=0
255616 On ch=4 n=64 v=114
255732 Off ch=4 n=64 v=0
255744 On ch=4 n=60 v=100
255860 Off ch=4 n=60 v=0
255872 On ch=4 n=55 v=127
255872 On ch=4 n=67 v=127
255988 Off ch=4 n=55 v=0
255988 Off ch=4 n=67 v=0
256000 On ch=4 n=55 v=118
256000 On ch=4 n=67 v=118
256116 Off ch=4 n=55 v=0
256116 Off ch=4 n=67 v=0
256128 On ch=4 n=55 v=114
256128 On ch=4 n=67 v=114
256244 Off ch=4 n=55 v=0
256244 Off ch=4 n=67 v=0
256256 On ch=4 n=52 v=108
256256 On ch=4 n=64 v=108
256372 Off ch=4 n=52 v=0
256372 Off ch=4 n=64 v=0
256384 On ch=4 n=48 v=101
256384 On ch=4 n=60 v=101
256500 Off ch=4 n=48 v=0
256500 Off ch=4 n=60 v=0
256512 On ch=4 n=48 v=114
256512 On ch=4 n=60 v=114
256628 Off ch=4 n=48 v=0
256628 Off ch=4 n=60 v=0
256640 On ch=4 n=48 v=112
256640 On ch=4 n=60 v=112
256756 Off ch=4 n=48 v=0
256756 Off ch=4 n=60 v=0
256768 On ch=4 n=43 v=106
256768 On ch=4 n=55 v=106
256884 Off ch=4 n=43 v=0
256884 Off ch=4 n=55 v=0
256896 On ch=4 n=59 v=127
256896 On ch=4 n=62 v=127
257012 Off ch=4 n=59 v=0
257012 Off ch=4 n=62 v=0
257024 On ch=4 n=59 v=114
257024 On ch=4 n=62 v=114
257140 Off ch=4 n=59 v=0
257140 Off ch=4 n=62 v=0
257152 On ch=4 n=59 v=114
257152 On ch=4 n=62 v=114
257268 Off ch=4 n=59 v=0
257268 Off ch=4 n=62 v=0
257280 On ch=4 n=60 v=119
257280 On ch=4 n=64 v=119
257511 Off ch=4 n=60 v=0
257511 Off ch=4 n=64 v=0
257920 On ch=4 n=59 v=100
257920 On ch=4 n=62 v=100
258036 Off ch=4 n=59 v=0
258036 Off ch=4 n=62 v=0
258048 On ch=4 n=59 v=117
258048 On ch=4 n=62 v=117
258164 Off ch=4 n=59 v=0
258164 Off ch=4 n=62 v=0
258176 On ch=4 n=59 v=111
258176 On ch=4 n=62 v=111
258292 Off ch=4 n=59 v=0
258292 Off ch=4 n=62 v=0
258304 On ch=4 n=60 v=122
258304 On ch=4 n=64 v=122
258535 Off ch=4 n=60 v=0
258535 Off ch=4 n=64 v=0
258944 On ch=4 n=55 v=98
258944 On ch=4 n=62 v=98
259060 Off ch=4 n=55 v=0
259060 Off ch=4 n=62 v=0
259072 On ch=4 n=55 v=111
259072 On ch=4 n=62 v=111
259188 Off ch=4 n=55 v=0
259188 Off ch=4 n=62 v=0
259200 On ch=4 n=55 v=115
259200 On ch=4 n=62 v=115
259316 Off ch=4 n=55 v=0
259316 Off ch=4 n=62 v=0
259328 On ch=4 n=48 v=106
259328 On ch=4 n=60 v=106
259444 Off ch=4 n=48 v=0
259444 Off ch=4 n=60 v=0
259456 On ch=4 n=48 v=112
259456 On ch=4 n=60 v=112
259572 Off ch=4 n=48 v=0
259572 Off ch=4 n=60 v=0
259584 On ch=4 n=48 v=115
259584 On ch=4 n=60 v=115
259700 Off ch=4 n=48 v=0
259700 Off ch=4 n=60 v=0
259712 On ch=4 n=48 v=113
259712 On ch=4 n=60 v=113
259828 Off ch=4 n=48 v=0
259828 Off ch=4 n=60 v=0
259840 On ch=4 n=48 v=110
259840 On ch=4 n=60 v=110
260468 Off ch=4 n=48 v=0
260468 Off ch=4 n=60 v=0
260480 On ch=4 n=48 v=112
260480 On ch=4 n=60 v=112
260596 Off ch=4 n=48 v=0
260596 Off ch=4 n=60 v=0
260608 On ch=4 n=48 v=111
260608 On ch=4 n=60 v=111
260724 Off ch=4 n=48 v=0
260724 Off ch=4 n=60 v=0
260736 On ch=4 n=48 v=116
260736 On ch=4 n=60 v=116
260852 Off ch=4 n=48 v=0
260852 Off ch=4 n=60 v=0
260864 On ch=4 n=48 v=110
260864 On ch=4 n=60 v=110
261492 Off ch=4 n=48 v=0
261492 Off ch=4 n=60 v=0
261504 On ch=4 n=48 v=112
261504 On ch=4 n=60 v=112
261620 Off ch=4 n=48 v=0
261620 Off ch=4 n=60 v=0
261632 On ch=4 n=48 v=111
261632 On ch=4 n=60 v=111
261748 Off ch=4 n=48 v=0
261748 Off ch=4 n=60 v=0
261760 On ch=4 n=48 v=106
261760 On ch=4 n=60 v=106
261876 Off ch=4 n=48 v=0
261876 Off ch=4 n=60 v=0
261888 On ch=4 n=48 v=108
261888 On ch=4 n=60 v=108
262516 Off ch=4 n=48 v=0
262516 Off ch=4 n=60 v=0
262528 On ch=4 n=48 v=113
262528 On ch=4 n=60 v=113
262644 Off ch=4 n=48 v=0
262644 Off ch=4 n=60 v=0
262656 On ch=4 n=48 v=107
262656 On ch=4 n=60 v=107
262772 Off ch=4 n=48 v=0
262772 Off ch=4 n=60 v=0
262784 On ch=4 n=48 v=106
262784 On ch=4 n=60 v=106
262900 Off ch=4 n=48 v=0
262900 Off ch=4 n=60 v=0
262912 On ch=4 n=48 v=109
262912 On ch=4 n=60 v=109
263028 Off ch=4 n=48 v=0
263028 Off ch=4 n=60 v=0
263040 On ch=4 n=53 v=108
263040 On ch=4 n=56 v=108
263156 Off ch=4 n=53 v=0
263156 Off ch=4 n=56 v=0
263168 On ch=4 n=53 v=109
263168 On ch=4 n=56 v=109
263284 Off ch=4 n=53 v=0
263284 Off ch=4 n=56 v=0
263296 On ch=4 n=53 v=108
263296 On ch=4 n=56 v=108
263412 Off ch=4 n=53 v=0
263412 Off ch=4 n=56 v=0
263424 On ch=4 n=53 v=109
263424 On ch=4 n=56 v=109
265421 Off ch=4 n=53 v=0
265421 Off ch=4 n=56 v=0
265472 On ch=4 n=53 v=111
265472 On ch=4 n=56 v=111
265703 Off ch=4 n=53 v=0
265703 Off ch=4 n=56 v=0
266112 On ch=4 n=65 v=53
266228 Off ch=4 n=65 v=0
266240 On ch=4 n=65 v=63
266356 Off ch=4 n=65 v=0
266368 On ch=4 n=65 v=59
266484 Off ch=4 n=65 v=0
266496 On ch=4 n=68 v=69
266727 Off ch=4 n=68 v=0
267648 On ch=4 n=54 v=101
267648 On ch=4 n=57 v=101
267764 Off ch=4 n=54 v=0
267764 Off ch=4 n=57 v=0
267776 On ch=4 n=54 v=113
267776 On ch=4 n=57 v=113
267892 Off ch=4 n=54 v=0
267892 Off ch=4 n=57 v=0
267904 On ch=4 n=54 v=114
267904 On ch=4 n=57 v=114
268020 Off ch=4 n=54 v=0
268020 Off ch=4 n=57 v=0
268032 On ch=4 n=54 v=115
268032 On ch=4 n=57 v=115
270029 Off ch=4 n=54 v=0
270029 Off ch=4 n=57 v=0
270080 On ch=4 n=54 v=114
270080 On ch=4 n=57 v=114
270311 Off ch=4 n=54 v=0
270311 Off ch=4 n=57 v=0
270720 On ch=4 n=60 v=100
270836 Off ch=4 n=60 v=0
270848 On ch=4 n=60 v=114
270964 Off ch=4 n=60 v=0
270976 On ch=4 n=60 v=110
271092 Off ch=4 n=60 v=0
271104 On ch=4 n=63 v=118
271335 Off ch=4 n=63 v=0
271744 On ch=4 n=67 v=85
271860 Off ch=4 n=67 v=0
271872 On ch=4 n=67 v=94
271988 Off ch=4 n=67 v=0
272000 On ch=4 n=67 v=96
272116 Off ch=4 n=67 v=0
272128 On ch=4 n=63 v=89
272589 Off ch=4 n=63 v=0
272640 On ch=4 n=65 v=102
273101 Off ch=4 n=65 v=0
273152 On ch=4 n=62 v=87
273780 Off ch=4 n=62 v=0
273792 On ch=4 n=67 v=112
273908 Off ch=4 n=67 v=0
273920 On ch=4 n=67 v=97
274036 Off ch=4 n=67 v=0
274048 On ch=4 n=67 v=97
274164 Off ch=4 n=67 v=0
274176 On ch=4 n=63 v=85
274637 Off ch=4 n=63 v=0
274688 On ch=4 n=65 v=105
275149 Off ch=4 n=65 v=0
275200 On ch=4 n=62 v=86
275828 Off ch=4 n=62 v=0
275840 On ch=4 n=67 v=104
275956 Off ch=4 n=67 v=0
275968 On ch=4 n=67 v=96
276084 Off ch=4 n=67 v=0
276096 On ch=4 n=67 v=96
276212 Off ch=4 n=67 v=0
276224 On ch=4 n=63 v=90
276455 Off ch=4 n=63 v=0
276480 On ch=4 n=65 v=105
276711 Off ch=4 n=65 v=0
276736 On ch=4 n=62 v=90
276967 Off ch=4 n=62 v=0
276992 On ch=4 n=63 v=100
277223 Off ch=4 n=63 v=0
277248 On ch=4 n=60 v=95
277479 Off ch=4 n=60 v=0
277504 On ch=4 n=62 v=103
277735 Off ch=4 n=62 v=0
277760 On ch=4 n=58 v=100
277991 Off ch=4 n=58 v=0
278016 On ch=4 n=60 v=99
278247 Off ch=4 n=60 v=0
278272 On ch=4 n=56 v=93
278503 Off ch=4 n=56 v=0
278528 On ch=4 n=58 v=94
278759 Off ch=4 n=58 v=0
278784 On ch=4 n=55 v=92
279015 Off ch=4 n=55 v=0
279040 On ch=4 n=56 v=103
279271 Off ch=4 n=56 v=0
279296 On ch=4 n=53 v=97
279527 Off ch=4 n=53 v=0
279552 On ch=4 n=55 v=100
279783 Off ch=4 n=55 v=0
279808 On ch=4 n=51 v=91
280039 Off ch=4 n=51 v=0
280064 On ch=4 n=53 v=101
280295 Off ch=4 n=53 v=0
280320 On ch=4 n=50 v=94
280551 Off ch=4 n=50 v=0
280576 On ch=4 n=48 v=96
280807 Off ch=4 n=48 v=0
280832 On ch=4 n=47 v=96
281063 Off ch=4 n=47 v=0
281088 On ch=4 n=48 v=99
281319 Off ch=4 n=48 v=0
281344 On ch=4 n=50 v=99
281575 Off ch=4 n=50 v=0
281600 On ch=4 n=48 v=95
281831 Off ch=4 n=48 v=0
281856 On ch=4 n=50 v=97
282087 Off ch=4 n=50 v=0
282112 On ch=4 n=52 v=103
282343 Off ch=4 n=52 v=0
282368 On ch=4 n=53 v=99
282599 Off ch=4 n=53 v=0
282624 On ch=4 n=52 v=92
282855 Off ch=4 n=52 v=0
282880 On ch=4 n=53 v=101
283111 Off ch=4 n=53 v=0
283136 On ch=4 n=55 v=107
283367 Off ch=4 n=55 v=0
283392 On ch=4 n=44 v=100
283392 On ch=4 n=56 v=100
283623 Off ch=4 n=44 v=0
283623 Off ch=4 n=56 v=0
283648 On ch=4 n=43 v=98
283648 On ch=4 n=55 v=98
283879 Off ch=4 n=43 v=0
283879 Off ch=4 n=55 v=0
283904 On ch=4 n=45 v=105
283904 On ch=4 n=57 v=105
284135 Off ch=4 n=45 v=0
284135 Off ch=4 n=57 v=0
284160 On ch=4 n=47 v=100
284160 On ch=4 n=59 v=100
284391 Off ch=4 n=47 v=0
284391 Off ch=4 n=59 v=0
284416 On ch=4 n=48 v=107
284416 On ch=4 n=60 v=107
285389 Off ch=4 n=48 v=0
285389 Off ch=4 n=60 v=0
285440 On ch=4 n=44 v=90
285440 On ch=4 n=56 v=90
286413 Off ch=4 n=44 v=0
286413 Off ch=4 n=56 v=0
286464 On ch=4 n=39 v=93
286464 On ch=4 n=51 v=93
287437 Off ch=4 n=39 v=0
287437 Off ch=4 n=51 v=0
287488 On ch=4 n=41 v=103
287488 On ch=4 n=53 v=103
287949 Off ch=4 n=41 v=0
287949 Off ch=4 n=53 v=0
288000 On ch=4 n=39 v=93
288000 On ch=4 n=51 v=93
288461 Off ch=4 n=39 v=0
288461 Off ch=4 n=51 v=0
288512 On ch=4 n=38 v=94
288512 On ch=4 n=50 v=94
288973 Off ch=4 n=38 v=0
288973 Off ch=4 n=50 v=0
289024 On ch=4 n=41 v=101
289024 On ch=4 n=53 v=101
289485 Off ch=4 n=41 v=0
289485 Off ch=4 n=53 v=0
289536 On ch=4 n=39 v=94
289536 On ch=4 n=51 v=94
289651 Off ch=4 n=39 v=0
289651 Off ch=4 n=51 v=0
290048 On ch=4 n=36 v=86
290048 On ch=4 n=48 v=86
290163 Off ch=4 n=36 v=0
290163 Off ch=4 n=48 v=0
290560 On ch=4 n=41 v=88
290560 On ch=4 n=53 v=88
290675 Off ch=4 n=41 v=0
290675 Off ch=4 n=53 v=0
291072 On ch=4 n=38 v=87
291072 On ch=4 n=50 v=87
291187 Off ch=4 n=38 v=0
291187 Off ch=4 n=50 v=0
291584 On ch=4 n=43 v=86
291584 On ch=4 n=55 v=86
291699 Off ch=4 n=43 v=0
291699 Off ch=4 n=55 v=0
292096 On ch=4 n=43 v=88
292211 Off ch=4 n=43 v=0
292608 On ch=4 n=48 v=88
292608 On ch=4 n=60 v=88
293069 Off ch=4 n=48 v=0
293069 Off ch=4 n=60 v=0
293120 On ch=4 n=50 v=104
293120 On ch=4 n=62 v=104
293235 Off ch=4 n=50 v=0
293235 Off ch=4 n=62 v=0
293376 On ch=4 n=51 v=102
293376 On ch=4 n=63 v=102
293491 Off ch=4 n=51 v=0
293491 Off ch=4 n=63 v=0
293632 On ch=4 n=53 v=108
293632 On ch=4 n=65 v=108
293888 On ch=4 n=50 v=98
293888 On ch=4 n=62 v=98
293893 Off ch=4 n=53 v=0
293893 Off ch=4 n=65 v=0
294131 Off ch=4 n=50 v=0
294131 Off ch=4 n=62 v=0
295168 On ch=4 n=53 v=108
295168 On ch=4 n=65 v=108
295283 Off ch=4 n=53 v=0
295283 Off ch=4 n=65 v=0
295424 On ch=4 n=55 v=102
295424 On ch=4 n=67 v=102
295539 Off ch=4 n=55 v=0
295539 Off ch=4 n=67 v=0
295680 On ch=4 n=56 v=100
295680 On ch=4 n=68 v=100
295936 On ch=4 n=53 v=89
295936 On ch=4 n=65 v=89
295941 Off ch=4 n=56 v=0
295941 Off ch=4 n=68 v=0
296179 Off ch=4 n=53 v=0
296179 Off ch=4 n=65 v=0
297216 On ch=4 n=57 v=82
297216 On ch=4 n=60 v=82
297331 Off ch=4 n=57 v=0
297331 Off ch=4 n=60 v=0
297472 On ch=4 n=59 v=104
297472 On ch=4 n=62 v=104
297587 Off ch=4 n=59 v=0
297587 Off ch=4 n=62 v=0
297728 On ch=4 n=60 v=98
297728 On ch=4 n=63 v=98
297984 Off ch=4 n=60 v=0
297984 On ch=4 n=55 v=92
297984 On ch=4 n=60 v=92
297989 Off ch=4 n=63 v=0
298227 Off ch=4 n=55 v=0
298227 Off ch=4 n=60 v=0
299264 On ch=4 n=57 v=96
299264 On ch=4 n=60 v=96
299379 Off ch=4 n=57 v=0
299379 Off ch=4 n=60 v=0
299520 On ch=4 n=59 v=105
299520 On ch=4 n=62 v=105
299635 Off ch=4 n=59 v=0
299635 Off ch=4 n=62 v=0
299776 On ch=4 n=60 v=99
299776 On ch=4 n=63 v=99
300032 On ch=4 n=55 v=99
300032 On ch=4 n=62 v=99
300037 Off ch=4 n=60 v=0
300037 Off ch=4 n=63 v=0
300288 On ch=4 n=56 v=95
300288 On ch=4 n=60 v=95
300293 Off ch=4 n=55 v=0
300293 Off ch=4 n=62 v=0
300544 On ch=4 n=51 v=86
300544 On ch=4 n=58 v=86
300549 Off ch=4 n=56 v=0
300549 Off ch=4 n=60 v=0
300800 On ch=4 n=53 v=95
300800 On ch=4 n=56 v=95
300805 Off ch=4 n=51 v=0
300805 Off ch=4 n=58 v=0
301056 On ch=4 n=48 v=94
301056 On ch=4 n=55 v=94
301061 Off ch=4 n=53 v=0
301061 Off ch=4 n=56 v=0
301299 Off ch=4 n=48 v=0
301299 Off ch=4 n=55 v=0
301824 On ch=4 n=53 v=115
301824 On ch=4 n=56 v=115
302080 On ch=4 n=48 v=114
302080 On ch=4 n=55 v=114
302085 Off ch=4 n=53 v=0
302085 Off ch=4 n=56 v=0
302323 Off ch=4 n=48 v=0
302323 Off ch=4 n=55 v=0
302336 On ch=4 n=53 v=100
302336 On ch=4 n=56 v=100
302592 On ch=4 n=51 v=96
302592 On ch=4 n=55 v=96
302597 Off ch=4 n=53 v=0
302597 Off ch=4 n=56 v=0
302835 Off ch=4 n=51 v=0
302835 Off ch=4 n=55 v=0
303104 On ch=4 n=60 v=85
303104 On ch=4 n=63 v=85
303335 Off ch=4 n=60 v=0
303335 Off ch=4 n=63 v=0
303616 On ch=4 n=59 v=86
303616 On ch=4 n=62 v=86
303847 Off ch=4 n=59 v=0
303847 Off ch=4 n=62 v=0
305408 On ch=4 n=53 v=91
305408 On ch=4 n=56 v=91
305664 On ch=4 n=51 v=87
305664 On ch=4 n=55 v=87
305669 Off ch=4 n=53 v=0
305669 Off ch=4 n=56 v=0
305907 Off ch=4 n=51 v=0
305907 Off ch=4 n=55 v=0
306432 On ch=4 n=53 v=101
306432 On ch=4 n=56 v=101
306688 On ch=4 n=51 v=96
306688 On ch=4 n=55 v=96
306693 Off ch=4 n=53 v=0
306693 Off ch=4 n=56 v=0
306931 Off ch=4 n=51 v=0
306931 Off ch=4 n=55 v=0
307200 On ch=4 n=55 v=89
307200 On ch=4 n=60 v=89
307431 Off ch=4 n=55 v=0
307431 Off ch=4 n=60 v=0
307712 On ch=4 n=55 v=87
307712 On ch=4 n=59 v=87
307943 Off ch=4 n=55 v=0
307943 Off ch=4 n=59 v=0
307968 On ch=4 n=51 v=102
307968 On ch=4 n=60 v=102
308199 Off ch=4 n=51 v=0
308199 Off ch=4 n=60 v=0
308608 On ch=4 n=62 v=84
308608 On ch=4 n=65 v=84
308724 Off ch=4 n=62 v=0
308724 Off ch=4 n=65 v=0
308736 On ch=4 n=62 v=99
308736 On ch=4 n=65 v=99
308852 Off ch=4 n=62 v=0
308852 Off ch=4 n=65 v=0
308864 On ch=4 n=62 v=99
308864 On ch=4 n=65 v=99
308980 Off ch=4 n=62 v=0
308980 Off ch=4 n=65 v=0
308992 On ch=4 n=62 v=98
308992 On ch=4 n=65 v=98
309735 Off ch=4 n=62 v=0
309735 Off ch=4 n=65 v=0
309760 On ch=4 n=60 v=94
309760 On ch=4 n=63 v=94
310016 On ch=4 n=59 v=85
310016 On ch=4 n=62 v=85
310021 Off ch=4 n=60 v=0
310021 Off ch=4 n=63 v=0
310272 Off ch=4 n=62 v=0
310272 On ch=4 n=62 v=106
310272 On ch=4 n=65 v=106
310277 Off ch=4 n=59 v=0
310528 On ch=4 n=60 v=100
310528 On ch=4 n=63 v=100
310533 Off ch=4 n=62 v=0
310533 Off ch=4 n=65 v=0
310784 On ch=4 n=59 v=94
310784 On ch=4 n=62 v=94
310789 Off ch=4 n=60 v=0
310789 Off ch=4 n=63 v=0
311027 Off ch=4 n=59 v=0
311027 Off ch=4 n=62 v=0
311040 On ch=4 n=60 v=104
311040 On ch=4 n=63 v=104
311271 Off ch=4 n=60 v=0
311271 Off ch=4 n=63 v=0
311680 On ch=4 n=43 v=89
311680 On ch=4 n=55 v=89
311796 Off ch=4 n=43 v=0
311796 Off ch=4 n=55 v=0
311808 On ch=4 n=43 v=99
311808 On ch=4 n=55 v=99
311924 Off ch=4 n=43 v=0
311924 Off ch=4 n=55 v=0
311936 On ch=4 n=43 v=97
311936 On ch=4 n=55 v=97
312052 Off ch=4 n=43 v=0
312052 Off ch=4 n=55 v=0
312064 On ch=4 n=43 v=99
312064 On ch=4 n=55 v=99
312180 Off ch=4 n=43 v=0
312180 Off ch=4 n=55 v=0
312192 On ch=4 n=43 v=98
312192 On ch=4 n=55 v=98
312308 Off ch=4 n=43 v=0
312308 Off ch=4 n=55 v=0
312320 On ch=4 n=43 v=97
312320 On ch=4 n=55 v=97
312436 Off ch=4 n=43 v=0
312436 Off ch=4 n=55 v=0
312448 On ch=4 n=43 v=102
312448 On ch=4 n=55 v=102
312564 Off ch=4 n=43 v=0
312564 Off ch=4 n=55 v=0
312576 On ch=4 n=43 v=96
312576 On ch=4 n=55 v=96
312692 Off ch=4 n=43 v=0
312692 Off ch=4 n=55 v=0
312704 On ch=4 n=43 v=100
312704 On ch=4 n=55 v=100
312820 Off ch=4 n=43 v=0
312820 Off ch=4 n=55 v=0
312832 On ch=4 n=43 v=94
312832 On ch=4 n=55 v=94
312948 Off ch=4 n=43 v=0
312948 Off ch=4 n=55 v=0
312960 On ch=4 n=43 v=100
312960 On ch=4 n=55 v=100
313076 Off ch=4 n=43 v=0
313076 Off ch=4 n=55 v=0
313088 On ch=4 n=39 v=104
313088 On ch=4 n=51 v=104
313856 Off ch=4 n=39 v=0
313856 Off ch=4 n=51 v=0
313984 On ch=4 n=41 v=100
313984 On ch=4 n=53 v=100
314100 Off ch=4 n=41 v=0
314100 Off ch=4 n=53 v=0
314112 On ch=4 n=41 v=113
314112 On ch=4 n=53 v=113
314228 Off ch=4 n=41 v=0
314228 Off ch=4 n=53 v=0
314240 On ch=4 n=41 v=113
314240 On ch=4 n=53 v=113
314356 Off ch=4 n=41 v=0
314356 Off ch=4 n=53 v=0
314368 On ch=4 n=38 v=108
314368 On ch=4 n=50 v=108
315648 Off ch=4 n=38 v=0
315648 Off ch=4 n=50 v=0
315904 On ch=4 n=67 v=54
316160 On ch=4 n=63 v=48
316165 Off ch=4 n=67 v=0
317952 On ch=4 n=67 v=67
318024 Off ch=4 n=63 v=0
318208 On ch=4 n=63 v=61
318213 Off ch=4 n=67 v=0
319872 On ch=4 n=59 v=107
319872 On ch=4 n=62 v=107
319951 Off ch=4 n=63 v=0
319988 Off ch=4 n=59 v=0
319988 Off ch=4 n=62 v=0
320000 On ch=4 n=59 v=110
320000 On ch=4 n=62 v=110
320116 Off ch=4 n=59 v=0
320116 Off ch=4 n=62 v=0
320128 On ch=4 n=59 v=116
320128 On ch=4 n=62 v=116
320244 Off ch=4 n=59 v=0
320244 Off ch=4 n=62 v=0
320256 On ch=4 n=60 v=120
320256 On ch=4 n=63 v=120
320487 Off ch=4 n=60 v=0
320487 Off ch=4 n=63 v=0
320896 On ch=4 n=59 v=100
320896 On ch=4 n=62 v=100
321012 Off ch=4 n=59 v=0
321012 Off ch=4 n=62 v=0
321024 On ch=4 n=59 v=112
321024 On ch=4 n=62 v=112
321140 Off ch=4 n=59 v=0
321140 Off ch=4 n=62 v=0
321152 On ch=4 n=59 v=111
321152 On ch=4 n=62 v=111
321268 Off ch=4 n=59 v=0
321268 Off ch=4 n=62 v=0
321280 On ch=4 n=60 v=118
321280 On ch=4 n=63 v=118
321511 Off ch=4 n=60 v=0
321511 Off ch=4 n=63 v=0
321920 On ch=4 n=59 v=103
321920 On ch=4 n=62 v=103
322036 Off ch=4 n=59 v=0
322036 Off ch=4 n=62 v=0
322048 On ch=4 n=59 v=110
322048 On ch=4 n=62 v=110
322164 Off ch=4 n=59 v=0
322164 Off ch=4 n=62 v=0
322176 On ch=4 n=59 v=112
322176 On ch=4 n=62 v=112
322292 Off ch=4 n=59 v=0
322292 Off ch=4 n=62 v=0
322304 On ch=4 n=60 v=115
322304 On ch=4 n=63 v=115
322535 Off ch=4 n=60 v=0
322535 Off ch=4 n=63 v=0
322560 On ch=4 n=59 v=113
322560 On ch=4 n=62 v=113
322791 Off ch=4 n=59 v=0
322791 Off ch=4 n=62 v=0
322816 On ch=4 n=60 v=118
322816 On ch=4 n=63 v=118
323047 Off ch=4 n=60 v=0
323047 Off ch=4 n=63 v=0
323072 On ch=4 n=59 v=112
323072 On ch=4 n=62 v=112
323303 Off ch=4 n=59 v=0
323303 Off ch=4 n=62 v=0
323328 On ch=4 n=60 v=120
323328 On ch=4 n=63 v=120
323559 Off ch=4 n=60 v=0
323559 Off ch=4 n=63 v=0
323584 On ch=4 n=59 v=110
323584 On ch=4 n=62 v=110
323815 Off ch=4 n=59 v=0
323815 Off ch=4 n=62 v=0
323840 On ch=4 n=60 v=120
323840 On ch=4 n=63 v=120
324071 Off ch=4 n=60 v=0
324071 Off ch=4 n=63 v=0
324096 On ch=4 n=59 v=106
324096 On ch=4 n=62 v=106
324327 Off ch=4 n=59 v=0
324327 Off ch=4 n=62 v=0
324352 On ch=4 n=60 v=119
324352 On ch=4 n=63 v=119
324583 Off ch=4 n=60 v=0
324583 Off ch=4 n=63 v=0
324864 On ch=4 n=55 v=102
324864 On ch=4 n=59 v=102
325095 Off ch=4 n=55 v=0
325095 Off ch=4 n=59 v=0
325376 On ch=4 n=48 v=101
325376 On ch=4 n=60 v=101
325607 Off ch=4 n=48 v=0
325607 Off ch=4 n=60 v=0
9344 On ch=5 n=67 v=58
9460 Off ch=5 n=67 v=0
9472 On ch=5 n=67 v=72
9588 Off ch=5 n=67 v=0
9600 On ch=5 n=67 v=78
9716 Off ch=5 n=67 v=0
9728 On ch=5 n=67 v=99
9959 Off ch=5 n=67 v=0
10240 On ch=5 n=51 v=87
10240 On ch=5 n=63 v=87
10471 Off ch=5 n=51 v=0
10471 Off ch=5 n=63 v=0
10752 On ch=5 n=55 v=91
10752 On ch=5 n=67 v=91
10983 Off ch=5 n=55 v=0
10983 Off ch=5 n=67 v=0
11520 On ch=5 n=68 v=85
11636 Off ch=5 n=68 v=0
11648 On ch=5 n=68 v=95
11764 Off ch=5 n=68 v=0
11776 On ch=5 n=68 v=102
11892 Off ch=5 n=68 v=0
11904 On ch=5 n=65 v=87
13184 Off ch=5 n=65 v=0
16896 On ch=5 n=55 v=54
16896 On ch=5 n=67 v=54
17012 Off ch=5 n=55 v=0
17012 Off ch=5 n=67 v=0
17024 On ch=5 n=55 v=63
17024 On ch=5 n=67 v=63
17140 Off ch=5 n=55 v=0
17140 Off ch=5 n=67 v=0
17152 On ch=5 n=55 v=59
17152 On ch=5 n=67 v=59
17268 Off ch=5 n=55 v=0
17268 Off ch=5 n=67 v=0
17280 On ch=5 n=55 v=60
17280 On ch=5 n=67 v=60
17511 Off ch=5 n=55 v=0
17511 Off ch=5 n=67 v=0
17792 On ch=5 n=65 v=55
17792 On ch=5 n=68 v=55
18535 Off ch=5 n=65 v=0
18535 Off ch=5 n=68 v=0
22400 On ch=5 n=65 v=87
22400 On ch=5 n=68 v=87
22631 Off ch=5 n=65 v=0
22631 Off ch=5 n=68 v=0
22912 On ch=5 n=63 v=87
22912 On ch=5 n=67 v=87
24909 Off ch=5 n=63 v=0
24909 Off ch=5 n=67 v=0
24960 On ch=5 n=65 v=96
24960 On ch=5 n=67 v=96
26727 Off ch=5 n=65 v=0
26727 Off ch=5 n=67 v=0
26752 On ch=5 n=63 v=99
26752 On ch=5 n=67 v=99
26983 Off ch=5 n=63 v=0
26983 Off ch=5 n=67 v=0
27008 On ch=5 n=63 v=107
27008 On ch=5 n=66 v=107
29005 Off ch=5 n=63 v=0
29005 Off ch=5 n=66 v=0
29056 On ch=5 n=63 v=112
29056 On ch=5 n=66 v=112
29287 Off ch=5 n=63 v=0
29287 Off ch=5 n=66 v=0
30080 On ch=5 n=58 v=100
30080 On ch=5 n=65 v=100
30311 Off ch=5 n=58 v=0
30311 Off ch=5 n=65 v=0
30720 On ch=5 n=70 v=101
30836 Off ch=5 n=70 v=0
30848 On ch=5 n=70 v=110
30964 Off ch=5 n=70 v=0
30976 On ch=5 n=70 v=114
31092 Off ch=5 n=70 v=0
31104 On ch=5 n=63 v=105
31565 Off ch=5 n=63 v=0
31616 On ch=5 n=65 v=127
32077 Off ch=5 n=65 v=0
32128 On ch=5 n=58 v=114
32640 Off ch=5 n=58 v=0
32640 On ch=5 n=58 v=50
39071 Off ch=5 n=58 v=0
42880 On ch=5 n=51 v=65
42880 On ch=5 n=63 v=65
44877 Off ch=5 n=51 v=0
44877 Off ch=5 n=63 v=0
44928 On ch=5 n=51 v=69
44928 On ch=5 n=63 v=69
47719 Off ch=5 n=51 v=0
47719 Off ch=5 n=63 v=0
47744 On ch=5 n=51 v=73
47744 On ch=5 n=63 v=73
47975 Off ch=5 n=51 v=0
47975 Off ch=5 n=63 v=0
48000 On ch=5 n=51 v=101
48000 On ch=5 n=63 v=101
48231 Off ch=5 n=51 v=0
48231 Off ch=5 n=63 v=0
48256 On ch=5 n=51 v=95
48256 On ch=5 n=63 v=95
48487 Off ch=5 n=51 v=0
48487 Off ch=5 n=63 v=0
48512 On ch=5 n=58 v=119
48512 On ch=5 n=65 v=119
49255 Off ch=5 n=58 v=0
49255 Off ch=5 n=65 v=0
49280 On ch=5 n=46 v=98
49280 On ch=5 n=58 v=98
49511 Off ch=5 n=46 v=0
49511 Off ch=5 n=58 v=0
49536 On ch=5 n=46 v=111
49536 On ch=5 n=58 v=111
49767 Off ch=5 n=46 v=0
49767 Off ch=5 n=58 v=0
50048 On ch=5 n=46 v=104
50048 On ch=5 n=58 v=104
50279 Off ch=5 n=46 v=0
50279 Off ch=5 n=58 v=0
50560 On ch=5 n=46 v=105
50560 On ch=5 n=58 v=105
50791 Off ch=5 n=46 v=0
50791 Off ch=5 n=58 v=0
51072 On ch=5 n=51 v=106
51072 On ch=5 n=63 v=106
51303 Off ch=5 n=51 v=0
51303 Off ch=5 n=63 v=0
51584 On ch=5 n=63 v=103
51584 On ch=5 n=67 v=103
51815 Off ch=5 n=63 v=0
51815 Off ch=5 n=67 v=0
52096 On ch=5 n=58 v=101
52096 On ch=5 n=65 v=101
52327 Off ch=5 n=58 v=0
52327 Off ch=5 n=65 v=0
52352 On ch=5 n=46 v=102
52352 On ch=5 n=58 v=102
53863 Off ch=5 n=46 v=0
53863 Off ch=5 n=58 v=0
53888 On ch=5 n=46 v=112
53888 On ch=5 n=58 v=112
54119 Off ch=5 n=46 v=0
54119 Off ch=5 n=58 v=0
54400 On ch=5 n=46 v=104
54400 On ch=5 n=58 v=104
54631 Off ch=5 n=46 v=0
54631 Off ch=5 n=58 v=0
54912 On ch=5 n=51 v=103
54912 On ch=5 n=63 v=103
55143 Off ch=5 n=51 v=0
55143 Off ch=5 n=63 v=0
55424 On ch=5 n=51 v=105
55424 On ch=5 n=63 v=105
55655 Off ch=5 n=51 v=0
55655 Off ch=5 n=63 v=0
55936 On ch=5 n=51 v=95
55936 On ch=5 n=63 v=95
56167 Off ch=5 n=51 v=0
56167 Off ch=5 n=63 v=0
56448 On ch=5 n=46 v=102
56448 On ch=5 n=58 v=102
56679 Off ch=5 n=46 v=0
56679 Off ch=5 n=58 v=0
56704 On ch=5 n=51 v=127
56704 On ch=5 n=63 v=127
56935 Off ch=5 n=51 v=0
56935 Off ch=5 n=63 v=0
57344 On ch=5 n=58 v=99
57344 On ch=5 n=70 v=99
57460 Off ch=5 n=58 v=0
57460 Off ch=5 n=70 v=0
57472 On ch=5 n=58 v=111
57472 On ch=5 n=70 v=111
57588 Off ch=5 n=58 v=0
57588 Off ch=5 n=70 v=0
57600 On ch=5 n=58 v=112
57600 On ch=5 n=70 v=112
57716 Off ch=5 n=58 v=0
57716 Off ch=5 n=70 v=0
57728 On ch=5 n=55 v=101
57728 On ch=5 n=67 v=101
57844 Off ch=5 n=55 v=0
57844 Off ch=5 n=67 v=0
57856 On ch=5 n=51 v=96
57856 On ch=5 n=63 v=96
57972 Off ch=5 n=51 v=0
57972 Off ch=5 n=63 v=0
57984 On ch=5 n=51 v=107
57984 On ch=5 n=63 v=107
58100 Off ch=5 n=51 v=0
58100 Off ch=5 n=63 v=0
58112 On ch=5 n=51 v=115
58112 On ch=5 n=63 v=115
58228 Off ch=5 n=51 v=0
58228 Off ch=5 n=63 v=0
58240 On ch=5 n=46 v=107
58240 On ch=5 n=58 v=107
58983 Off ch=5 n=46 v=0
58983 Off ch=5 n=58 v=0
59392 On ch=5 n=58 v=96
59392 On ch=5 n=70 v=96
59508 Off ch=5 n=58 v=0
59508 Off ch=5 n=70 v=0
59520 On ch=5 n=58 v=110
59520 On ch=5 n=70 v=110
59636 Off ch=5 n=58 v=0
59636 Off ch=5 n=70 v=0
59648 On ch=5 n=58 v=112
59648 On ch=5 n=70 v=112
59764 Off ch=5 n=58 v=0
59764 Off ch=5 n=70 v=0
59776 On ch=5 n=55 v=105
59776 On ch=5 n=67 v=105
59892 Off ch=5 n=55 v=0
59892 Off ch=5 n=67 v=0
59904 On ch=5 n=51 v=100
59904 On ch=5 n=63 v=100
60020 Off ch=5 n=51 v=0
60020 Off ch=5 n=63 v=0
60032 On ch=5 n=51 v=108
60032 On ch=5 n=63 v=108
60148 Off ch=5 n=51 v=0
60148 Off ch=5 n=63 v=0
60160 On ch=5 n=51 v=114
60160 On ch=5 n=63 v=114
60276 Off ch=5 n=51 v=0
60276 Off ch=5 n=63 v=0
60288 On ch=5 n=46 v=103
60288 On ch=5 n=58 v=103
61031 Off ch=5 n=46 v=0
61031 Off ch=5 n=58 v=0
61440 On ch=5 n=46 v=102
61440 On ch=5 n=58 v=102
61556 Off ch=5 n=46 v=0
61556 Off ch=5 n=58 v=0
61568 On ch=5 n=46 v=107
61568 On ch=5 n=58 v=107
61684 Off ch=5 n=46 v=0
61684 Off ch=5 n=58 v=0
61696 On ch=5 n=46 v=113
61696 On ch=5 n=58 v=113
61812 Off ch=5 n=46 v=0
61812 Off ch=5 n=58 v=0
61824 On ch=5 n=51 v=127
61824 On ch=5 n=63 v=127
62055 Off ch=5 n=51 v=0
62055 Off ch=5 n=63 v=0
62464 On ch=5 n=58 v=103
62464 On ch=5 n=65 v=103
62580 Off ch=5 n=58 v=0
62580 Off ch=5 n=65 v=0
62592 On ch=5 n=58 v=110
62592 On ch=5 n=65 v=110
62708 Off ch=5 n=58 v=0
62708 Off ch=5 n=65 v=0
62720 On ch=5 n=58 v=107
62720 On ch=5 n=65 v=107
62836 Off ch=5 n=58 v=0
62836 Off ch=5 n=65 v=0
62848 On ch=5 n=51 v=104
62848 On ch=5 n=63 v=104
63079 Off ch=5 n=51 v=0
63079 Off ch=5 n=63 v=0
73728 On ch=5 n=67 v=52
73844 Off ch=5 n=67 v=0
73856 On ch=5 n=67 v=65
73972 Off ch=5 n=67 v=0
73984 On ch=5 n=67 v=79
74100 Off ch=5 n=67 v=0
74112 On ch=5 n=67 v=97
74343 Off ch=5 n=67 v=0
74624 On ch=5 n=51 v=90
74624 On ch=5 n=63 v=90
74855 Off ch=5 n=51 v=0
74855 Off ch=5 n=63 v=0
75136 On ch=5 n=55 v=89
75136 On ch=5 n=67 v=89
75367 Off ch=5 n=55 v=0
75367 Off ch=5 n=67 v=0
75904 On ch=5 n=68 v=88
76020 Off ch=5 n=68 v=0
76032 On ch=5 n=68 v=97
76148 Off ch=5 n=68 v=0
76160 On ch=5 n=68 v=103
76276 Off ch=5 n=68 v=0
76288 On ch=5 n=65 v=90
77568 Off ch=5 n=65 v=0
81280 On ch=5 n=55 v=52
81280 On ch=5 n=67 v=52
81396 Off ch=5 n=55 v=0
81396 Off ch=5 n=67 v=0
81408 On ch=5 n=55 v=62
81408 On ch=5 n=67 v=62
81524 Off ch=5 n=55 v=0
81524 Off ch=5 n=67 v=0
81536 On ch=5 n=55 v=68
81536 On ch=5 n=67 v=68
81652 Off ch=5 n=55 v=0
81652 Off ch=5 n=67 v=0
81664 On ch=5 n=55 v=62
81664 On ch=5 n=67 v=62
81895 Off ch=5 n=55 v=0
81895 Off ch=5 n=67 v=0
82176 On ch=5 n=65 v=57
82176 On ch=5 n=68 v=57
82919 Off ch=5 n=65 v=0
82919 Off ch=5 n=68 v=0
86784 On ch=5 n=65 v=91
86784 On ch=5 n=68 v=91
87015 Off ch=5 n=65 v=0
87015 Off ch=5 n=68 v=0
87296 On ch=5 n=63 v=87
87296 On ch=5 n=67 v=87
89293 Off ch=5 n=63 v=0
89293 Off ch=5 n=67 v=0
89344 On ch=5 n=65 v=96
89344 On ch=5 n=67 v=96
91111 Off ch=5 n=65 v=0
91111 Off ch=5 n=67 v=0
91136 On ch=5 n=63 v=94
91136 On ch=5 n=67 v=94
91367 Off ch=5 n=63 v=0
91367 Off ch=5 n=67 v=0
91392 On ch=5 n=63 v=108
91392 On ch=5 n=66 v=108
93389 Off ch=5 n=63 v=0
93389 Off ch=5 n=66 v=0
93440 On ch=5 n=63 v=109
93440 On ch=5 n=66 v=109
93671 Off ch=5 n=63 v=0
93671 Off ch=5 n=66 v=0
94464 On ch=5 n=58 v=103
94464 On ch=5 n=65 v=103
94695 Off ch=5 n=58 v=0
94695 Off ch=5 n=65 v=0
95104 On ch=5 n=70 v=96
95220 Off ch=5 n=70 v=0
95232 On ch=5 n=70 v=112
95348 Off ch=5 n=70 v=0
95360 On ch=5 n=70 v=112
95476 Off ch=5 n=70 v=0
95488 On ch=5 n=63 v=104
95949 Off ch=5 n=63 v=0
96000 On ch=5 n=65 v=127
96461 Off ch=5 n=65 v=0
96512 On ch=5 n=58 v=111
97024 Off ch=5 n=58 v=0
97024 On ch=5 n=58 v=50
103455 Off ch=5 n=58 v=0
107264 On ch=5 n=51 v=71
107264 On ch=5 n=63 v=71
109261 Off ch=5 n=51 v=0
109261 Off ch=5 n=63 v=0
109312 On ch=5 n=51 v=70
109312 On ch=5 n=63 v=70
112103 Off ch=5 n=51 v=0
112103 Off ch=5 n=63 v=0
112128 On ch=5 n=51 v=71
112128 On ch=5 n=63 v=71
112359 Off ch=5 n=51 v=0
112359 Off ch=5 n=63 v=0
112384 On ch=5 n=51 v=97
112384 On ch=5 n=63 v=97
112615 Off ch=5 n=51 v=0
112615 Off ch=5 n=63 v=0
112640 On ch=5 n=51 v=96
112640 On ch=5 n=63 v=96
112871 Off ch=5 n=51 v=0
112871 Off ch=5 n=63 v=0
112896 On ch=5 n=58 v=119
112896 On ch=5 n=65 v=119
113639 Off ch=5 n=58 v=0
113639 Off ch=5 n=65 v=0
113664 On ch=5 n=46 v=108
113664 On ch=5 n=58 v=108
113895 Off ch=5 n=46 v=0
113895 Off ch=5 n=58 v=0
113920 On ch=5 n=46 v=113
113920 On ch=5 n=58 v=113
114151 Off ch=5 n=46 v=0
114151 Off ch=5 n=58 v=0
114432 On ch=5 n=46 v=101
114432 On ch=5 n=58 v=101
114663 Off ch=5 n=46 v=0
114663 Off ch=5 n=58 v=0
114944 On ch=5 n=46 v=101
114944 On ch=5 n=58 v=101
115175 Off ch=5 n=46 v=0
115175 Off ch=5 n=58 v=0
115456 On ch=5 n=51 v=99
115456 On ch=5 n=63 v=99
115687 Off ch=5 n=51 v=0
115687 Off ch=5 n=63 v=0
115968 On ch=5 n=63 v=105
115968 On ch=5 n=67 v=105
116199 Off ch=5 n=63 v=0
116199 Off ch=5 n=67 v=0
116480 On ch=5 n=58 v=98
116480 On ch=5 n=65 v=98
116711 Off ch=5 n=58 v=0
116711 Off ch=5 n=65 v=0
116736 On ch=5 n=46 v=101
116736 On ch=5 n=58 v=101
118247 Off ch=5 n=46 v=0
118247 Off ch=5 n=58 v=0
118272 On ch=5 n=46 v=110
118272 On ch=5 n=58 v=110
118503 Off ch=5 n=46 v=0
118503 Off ch=5 n=58 v=0
118784 On ch=5 n=46 v=100
118784 On ch=5 n=58 v=100
119015 Off ch=5 n=46 v=0
119015 Off ch=5 n=58 v=0
119296 On ch=5 n=51 v=102
119296 On ch=5 n=63 v=102
119527 Off ch=5 n=51 v=0
119527 Off ch=5 n=63 v=0
119808 On ch=5 n=51 v=100
119808 On ch=5 n=63 v=100
120039 Off ch=5 n=51 v=0
120039 Off ch=5 n=63 v=0
120320 On ch=5 n=51 v=103
120320 On ch=5 n=63 v=103
120551 Off ch=5 n=51 v=0
120551 Off ch=5 n=63 v=0
120832 On ch=5 n=46 v=103
120832 On ch=5 n=58 v=103
121063 Off ch=5 n=46 v=0
121063 Off ch=5 n=58 v=0
121088 On ch=5 n=51 v=126
121088 On ch=5 n=63 v=126
121319 Off ch=5 n=51 v=0
121319 Off ch=5 n=63 v=0
121728 On ch=5 n=58 v=99
121728 On ch=5 n=70 v=99
121844 Off ch=5 n=58 v=0
121844 Off ch=5 n=70 v=0
121856 On ch=5 n=58 v=108
121856 On ch=5 n=70 v=108
121972 Off ch=5 n=58 v=0
121972 Off ch=5 n=70 v=0
121984 On ch=5 n=58 v=116
121984 On ch=5 n=70 v=116
122100 Off ch=5 n=58 v=0
122100 Off ch=5 n=70 v=0
122112 On ch=5 n=55 v=100
122112 On ch=5 n=67 v=100
122228 Off ch=5 n=55 v=0
122228 Off ch=5 n=67 v=0
122240 On ch=5 n=51 v=99
122240 On ch=5 n=63 v=99
122356 Off ch=5 n=51 v=0
122356 Off ch=5 n=63 v=0
122368 On ch=5 n=51 v=107
122368 On ch=5 n=63 v=107
122484 Off ch=5 n=51 v=0
122484 Off ch=5 n=63 v=0
122496 On ch=5 n=51 v=121
122496 On ch=5 n=63 v=121
122612 Off ch=5 n=51 v=0
122612 Off ch=5 n=63 v=0
122624 On ch=5 n=46 v=109
122624 On ch=5 n=58 v=109
123367 Off ch=5 n=46 v=0
123367 Off ch=5 n=58 v=0
123776 On ch=5 n=58 v=105
123776 On ch=5 n=70 v=105
123892 Off ch=5 n=58 v=0
123892 Off ch=5 n=70 v=0
123904 On ch=5 n=58 v=107
123904 On ch=5 n=70 v=107
124020 Off ch=5 n=58 v=0
124020 Off ch=5 n=70 v=0
124032 On ch=5 n=58 v=109
124032 On ch=5 n=70 v=109
124148 Off ch=5 n=58 v=0
124148 Off ch=5 n=70 v=0
124160 On ch=5 n=55 v=101
124160 On ch=5 n=67 v=101
124276 Off ch=5 n=55 v=0
124276 Off ch=5 n=67 v=0
124288 On ch=5 n=51 v=98
124288 On ch=5 n=63 v=98
124404 Off ch=5 n=51 v=0
124404 Off ch=5 n=63 v=0
124416 On ch=5 n=51 v=108
124416 On ch=5 n=63 v=108
124532 Off ch=5 n=51 v=0
124532 Off ch=5 n=63 v=0
124544 On ch=5 n=51 v=111
124544 On ch=5 n=63 v=111
124660 Off ch=5 n=51 v=0
124660 Off ch=5 n=63 v=0
124672 On ch=5 n=46 v=106
124672 On ch=5 n=58 v=106
125415 Off ch=5 n=46 v=0
125415 Off ch=5 n=58 v=0
125824 On ch=5 n=46 v=106
125824 On ch=5 n=58 v=106
125940 Off ch=5 n=46 v=0
125940 Off ch=5 n=58 v=0
125952 On ch=5 n=46 v=111
125952 On ch=5 n=58 v=111
126068 Off ch=5 n=46 v=0
126068 Off ch=5 n=58 v=0
126080 On ch=5 n=46 v=112
126080 On ch=5 n=58 v=112
126196 Off ch=5 n=46 v=0
126196 Off ch=5 n=58 v=0
126208 On ch=5 n=51 v=127
126208 On ch=5 n=63 v=127
126439 Off ch=5 n=51 v=0
126439 Off ch=5 n=63 v=0
126848 On ch=5 n=58 v=103
126848 On ch=5 n=65 v=103
126964 Off ch=5 n=58 v=0
126964 Off ch=5 n=65 v=0
126976 On ch=5 n=58 v=111
126976 On ch=5 n=65 v=111
127092 Off ch=5 n=58 v=0
127092 Off ch=5 n=65 v=0
127104 On ch=5 n=58 v=114
127104 On ch=5 n=65 v=114
127220 Off ch=5 n=58 v=0
127220 Off ch=5 n=65 v=0
127232 On ch=5 n=51 v=101
127232 On ch=5 n=63 v=101
127463 Off ch=5 n=51 v=0
127463 Off ch=5 n=63 v=0
128896 On ch=5 n=70 v=101
129012 Off ch=5 n=70 v=0
129024 On ch=5 n=70 v=108
129140 Off ch=5 n=70 v=0
129152 On ch=5 n=70 v=117
129268 Off ch=5 n=70 v=0
129280 On ch=5 n=67 v=102
131072 Off ch=5 n=67 v=0
138496 On ch=5 n=63 v=59
138727 Off ch=5 n=63 v=0
138752 On ch=5 n=65 v=64
138983 Off ch=5 n=65 v=0
139008 On ch=5 n=66 v=62
139239 Off ch=5 n=66 v=0
139264 On ch=5 n=55 v=62
139264 On ch=5 n=67 v=62
142055 Off ch=5 n=55 v=0
142055 Off ch=5 n=67 v=0
146048 On ch=5 n=55 v=53
146048 On ch=5 n=67 v=53
146164 Off ch=5 n=55 v=0
146164 Off ch=5 n=67 v=0
146176 On ch=5 n=55 v=59
146176 On ch=5 n=67 v=59
146292 Off ch=5 n=55 v=0
146292 Off ch=5 n=67 v=0
146304 On ch=5 n=55 v=62
146304 On ch=5 n=67 v=62
146420 Off ch=5 n=55 v=0
146420 Off ch=5 n=67 v=0
146432 On ch=5 n=55 v=64
146432 On ch=5 n=67 v=64
146663 Off ch=5 n=55 v=0
146663 Off ch=5 n=67 v=0
147072 On ch=5 n=51 v=54
147072 On ch=5 n=63 v=54
147188 Off ch=5 n=51 v=0
147188 Off ch=5 n=63 v=0
147200 On ch=5 n=51 v=59
147200 On ch=5 n=63 v=59
147316 Off ch=5 n=51 v=0
147316 Off ch=5 n=63 v=0
147328 On ch=5 n=51 v=65
147328 On ch=5 n=63 v=65
147444 Off ch=5 n=51 v=0
147444 Off ch=5 n=63 v=0
147456 On ch=5 n=51 v=61
147456 On ch=5 n=63 v=61
147687 Off ch=5 n=51 v=0
147687 Off ch=5 n=63 v=0
148096 On ch=5 n=51 v=54
148096 On ch=5 n=63 v=54
148212 Off ch=5 n=51 v=0
148212 Off ch=5 n=63 v=0
148224 On ch=5 n=51 v=62
148224 On ch=5 n=63 v=62
148340 Off ch=5 n=51 v=0
148340 Off ch=5 n=63 v=0
148352 On ch=5 n=51 v=64
148352 On ch=5 n=63 v=64
148468 Off ch=5 n=51 v=0
148468 Off ch=5 n=63 v=0
148480 On ch=5 n=51 v=56
148480 On ch=5 n=63 v=56
148711 Off ch=5 n=51 v=0
148711 Off ch=5 n=63 v=0
149120 On ch=5 n=55 v=58
149120 On ch=5 n=67 v=58
149236 Off ch=5 n=55 v=0
149236 Off ch=5 n=67 v=0
149248 On ch=5 n=55 v=58
149248 On ch=5 n=67 v=58
149364 Off ch=5 n=55 v=0
149364 Off ch=5 n=67 v=0
149376 On ch=5 n=55 v=62
149376 On ch=5 n=67 v=62
149492 Off ch=5 n=55 v=0
149492 Off ch=5 n=67 v=0
149504 On ch=5 n=55 v=63
149504 On ch=5 n=67 v=63
149735 Off ch=5 n=55 v=0
149735 Off ch=5 n=67 v=0
150144 On ch=5 n=55 v=55
150144 On ch=5 n=67 v=55
150260 Off ch=5 n=55 v=0
150260 Off ch=5 n=67 v=0
150272 On ch=5 n=55 v=57
150272 On ch=5 n=67 v=57
150388 Off ch=5 n=55 v=0
150388 Off ch=5 n=67 v=0
150400 On ch=5 n=55 v=73
150400 On ch=5 n=67 v=73
150516 Off ch=5 n=55 v=0
150516 Off ch=5 n=67 v=0
150528 On ch=5 n=55 v=73
150528 On ch=5 n=67 v=73
150759 Off ch=5 n=55 v=0
150759 Off ch=5 n=67 v=0
150784 On ch=5 n=55 v=84
150784 On ch=5 n=67 v=84
151015 Off ch=5 n=55 v=0
151015 Off ch=5 n=67 v=0
151040 On ch=5 n=51 v=86
151040 On ch=5 n=63 v=86
152013 Off ch=5 n=51 v=0
152013 Off ch=5 n=63 v=0
152064 On ch=5 n=51 v=96
152064 On ch=5 n=63 v=96
152295 Off ch=5 n=51 v=0
152295 Off ch=5 n=63 v=0
152704 On ch=5 n=55 v=85
152704 On ch=5 n=67 v=85
152820 Off ch=5 n=55 v=0
152820 Off ch=5 n=67 v=0
152832 On ch=5 n=55 v=96
152832 On ch=5 n=67 v=96
152948 Off ch=5 n=55 v=0
152948 Off ch=5 n=67 v=0
152960 On ch=5 n=55 v=98
152960 On ch=5 n=67 v=98
153076 Off ch=5 n=55 v=0
153076 Off ch=5 n=67 v=0
153088 On ch=5 n=55 v=96
153088 On ch=5 n=67 v=96
154061 Off ch=5 n=55 v=0
154061 Off ch=5 n=67 v=0
154112 On ch=5 n=55 v=101
154112 On ch=5 n=67 v=101
154343 Off ch=5 n=55 v=0
154343 Off ch=5 n=67 v=0
154752 On ch=5 n=55 v=93
154752 On ch=5 n=67 v=93
154868 Off ch=5 n=55 v=0
154868 Off ch=5 n=67 v=0
154880 On ch=5 n=55 v=105
154880 On ch=5 n=67 v=105
154996 Off ch=5 n=55 v=0
154996 Off ch=5 n=67 v=0
155008 On ch=5 n=55 v=102
155008 On ch=5 n=67 v=102
155124 Off ch=5 n=55 v=0
155124 Off ch=5 n=67 v=0
155136 On ch=5 n=55 v=106
155136 On ch=5 n=67 v=106
155367 Off ch=5 n=55 v=0
155367 Off ch=5 n=67 v=0
163072 On ch=5 n=65 v=93
163188 Off ch=5 n=65 v=0
163200 On ch=5 n=65 v=101
163316 Off ch=5 n=65 v=0
163328 On ch=5 n=65 v=103
163559 Off ch=5 n=65 v=0
164608 On ch=5 n=67 v=94
164724 Off ch=5 n=67 v=0
164736 On ch=5 n=67 v=106
164852 Off ch=5 n=67 v=0
164864 On ch=5 n=67 v=99
165095 Off ch=5 n=67 v=0
165376 On ch=5 n=65 v=95
165888 On ch=5 n=67 v=100
165898 Off ch=5 n=65 v=0
166374 Off ch=5 n=67 v=0
167424 On ch=5 n=65 v=99
167936 On ch=5 n=67 v=105
167946 Off ch=5 n=65 v=0
168422 Off ch=5 n=67 v=0
169472 On ch=5 n=65 v=97
169984 On ch=5 n=66 v=100
169994 Off ch=5 n=65 v=0
170470 Off ch=5 n=66 v=0
171520 On ch=5 n=65 v=101
171981 Off ch=5 n=65 v=0
172032 On ch=5 n=65 v=101
172493 Off ch=5 n=65 v=0
184832 On ch=5 n=65 v=54
184832 On ch=5 n=68 v=54
185293 Off ch=5 n=65 v=0
185293 Off ch=5 n=68 v=0
185856 On ch=5 n=65 v=47
185856 On ch=5 n=68 v=47
186317 Off ch=5 n=65 v=0
186317 Off ch=5 n=68 v=0
186880 On ch=5 n=65 v=54
186880 On ch=5 n=68 v=54
187341 Off ch=5 n=65 v=0
187341 Off ch=5 n=68 v=0
188032 On ch=5 n=68 v=102
188148 Off ch=5 n=68 v=0
188160 On ch=5 n=68 v=106
188276 Off ch=5 n=68 v=0
188288 On ch=5 n=68 v=109
188404 Off ch=5 n=68 v=0
188416 On ch=5 n=65 v=107
189044 Off ch=5 n=65 v=0
189056 On ch=5 n=68 v=120
189172 Off ch=5 n=68 v=0
189184 On ch=5 n=68 v=120
189300 Off ch=5 n=68 v=0
189312 On ch=5 n=68 v=109
189428 Off ch=5 n=68 v=0
189440 On ch=5 n=65 v=106
190068 Off ch=5 n=65 v=0
190080 On ch=5 n=68 v=115
190196 Off ch=5 n=68 v=0
190208 On ch=5 n=68 v=111
190324 Off ch=5 n=68 v=0
190336 On ch=5 n=68 v=110
190452 Off ch=5 n=68 v=0
190464 On ch=5 n=65 v=105
190695 Off ch=5 n=65 v=0
190720 On ch=5 n=68 v=122
190951 Off ch=5 n=68 v=0
190976 On ch=5 n=65 v=107
191207 Off ch=5 n=65 v=0
191232 On ch=5 n=68 v=117
191463 Off ch=5 n=68 v=0
191488 On ch=5 n=65 v=103
191719 Off ch=5 n=65 v=0
191744 On ch=5 n=68 v=126
191975 Off ch=5 n=68 v=0
192000 On ch=5 n=65 v=105
192116 Off ch=5 n=65 v=0
192128 On ch=5 n=68 v=119
192244 Off ch=5 n=68 v=0
192256 On ch=5 n=68 v=110
192372 Off ch=5 n=68 v=0
192384 On ch=5 n=68 v=116
192500 Off ch=5 n=68 v=0
192512 On ch=5 n=63 v=100
193280 Off ch=5 n=63 v=0
193408 On ch=5 n=55 v=100
193408 On ch=5 n=67 v=100
193524 Off ch=5 n=55 v=0
193524 Off ch=5 n=67 v=0
193536 On ch=5 n=55 v=109
193536 On ch=5 n=67 v=109
193652 Off ch=5 n=55 v=0
193652 Off ch=5 n=67 v=0
193664 On ch=5 n=55 v=112
193664 On ch=5 n=67 v=112
193780 Off ch=5 n=55 v=0
193780 Off ch=5 n=67 v=0
193792 On ch=5 n=55 v=111
193792 On ch=5 n=67 v=111
195072 Off ch=5 n=55 v=0
195072 Off ch=5 n=67 v=0
208128 On ch=5 n=65 v=55
209613 Off ch=5 n=65 v=0
209664 On ch=5 n=63 v=94
209895 Off ch=5 n=63 v=0
210304 On ch=5 n=65 v=83
210304 On ch=5 n=68 v=83
210420 Off ch=5 n=65 v=0
210420 Off ch=5 n=68 v=0
210432 On ch=5 n=65 v=96
210432 On ch=5 n=68 v=96
210548 Off ch=5 n=65 v=0
210548 Off ch=5 n=68 v=0
210560 On ch=5 n=65 v=96
210560 On ch=5 n=68 v=96
210676 Off ch=5 n=65 v=0
210676 Off ch=5 n=68 v=0
210688 On ch=5 n=65 v=98
210688 On ch=5 n=68 v=98
210919 Off ch=5 n=65 v=0
210919 Off ch=5 n=68 v=0
211328 On ch=5 n=63 v=87
211328 On ch=5 n=67 v=87
211444 Off ch=5 n=63 v=0
211444 Off ch=5 n=67 v=0
211456 On ch=5 n=63 v=93
211456 On ch=5 n=67 v=93
211572 Off ch=5 n=63 v=0
211572 Off ch=5 n=67 v=0
211584 On ch=5 n=63 v=98
211584 On ch=5 n=67 v=98
211700 Off ch=5 n=63 v=0
211700 Off ch=5 n=67 v=0
211712 On ch=5 n=63 v=100
211712 On ch=5 n=67 v=100
211943 Off ch=5 n=63 v=0
211943 Off ch=5 n=67 v=0
214784 On ch=5 n=65 v=88
214784 On ch=5 n=68 v=88
215015 Off ch=5 n=65 v=0
215015 Off ch=5 n=68 v=0
215296 On ch=5 n=63 v=93
215296 On ch=5 n=67 v=93
217293 Off ch=5 n=63 v=0
217293 Off ch=5 n=67 v=0
217344 On ch=5 n=65 v=97
217344 On ch=5 n=67 v=97
219111 Off ch=5 n=65 v=0
219111 Off ch=5 n=67 v=0
219136 On ch=5 n=63 v=98
219136 On ch=5 n=67 v=98
219367 Off ch=5 n=63 v=0
219367 Off ch=5 n=67 v=0
219392 On ch=5 n=51 v=100
219392 On ch=5 n=63 v=100
221389 Off ch=5 n=51 v=0
221389 Off ch=5 n=63 v=0
221440 On ch=5 n=51 v=113
221440 On ch=5 n=63 v=113
221671 Off ch=5 n=51 v=0
221671 Off ch=5 n=63 v=0
222464 On ch=5 n=55 v=102
222464 On ch=5 n=67 v=102
222695 Off ch=5 n=55 v=0
222695 Off ch=5 n=67 v=0
224512 On ch=5 n=55 v=88
225024 Off ch=5 n=55 v=0
225024 On ch=5 n=55 v=73
233076 Off ch=5 n=55 v=0
243200 On ch=5 n=65 v=65
243431 Off ch=5 n=65 v=0
243712 On ch=5 n=65 v=63
243943 Off ch=5 n=65 v=0
244224 On ch=5 n=65 v=74
244455 Off ch=5 n=65 v=0
244736 On ch=5 n=65 v=89
244967 Off ch=5 n=65 v=0
244992 On ch=5 n=67 v=116
245735 Off ch=5 n=67 v=0
245760 On ch=5 n=67 v=116
245991 Off ch=5 n=67 v=0
246016 On ch=5 n=67 v=114
246247 Off ch=5 n=67 v=0
246528 On ch=5 n=65 v=103
246528 On ch=5 n=67 v=103
246759 Off ch=5 n=65 v=0
246759 Off ch=5 n=67 v=0
247040 On ch=5 n=67 v=104
247271 Off ch=5 n=67 v=0
247552 On ch=5 n=65 v=104
247783 Off ch=5 n=65 v=0
248064 On ch=5 n=67 v=100
248295 Off ch=5 n=67 v=0
248576 On ch=5 n=67 v=106
248807 Off ch=5 n=67 v=0
249088 On ch=5 n=55 v=105
249088 On ch=5 n=67 v=105
250061 Off ch=5 n=55 v=0
250061 Off ch=5 n=67 v=0
250112 On ch=5 n=55 v=111
250112 On ch=5 n=67 v=111
250343 Off ch=5 n=55 v=0
250343 Off ch=5 n=67 v=0
250368 On ch=5 n=55 v=115
250368 On ch=5 n=67 v=115
250599 Off ch=5 n=55 v=0
250599 Off ch=5 n=67 v=0
250880 On ch=5 n=55 v=102
250880 On ch=5 n=67 v=102
251111 Off ch=5 n=55 v=0
251111 Off ch=5 n=67 v=0
251392 On ch=5 n=55 v=100
251392 On ch=5 n=67 v=100
251623 Off ch=5 n=55 v=0
251623 Off ch=5 n=67 v=0
251904 On ch=5 n=65 v=101
252135 Off ch=5 n=65 v=0
252416 On ch=5 n=67 v=102
252647 Off ch=5 n=67 v=0
252928 On ch=5 n=67 v=102
253159 Off ch=5 n=67 v=0
253184 On ch=5 n=67 v=107
253415 Off ch=5 n=67 v=0
254848 On ch=5 n=67 v=98
254964 Off ch=5 n=67 v=0
254976 On ch=5 n=67 v=108
255092 Off ch=5 n=67 v=0
255104 On ch=5 n=67 v=111
255220 Off ch=5 n=67 v=0
255232 On ch=5 n=67 v=111
255463 Off ch=5 n=67 v=0
256896 On ch=5 n=67 v=99
257012 Off ch=5 n=67 v=0
257024 On ch=5 n=67 v=115
257140 Off ch=5 n=67 v=0
257152 On ch=5 n=67 v=116
257268 Off ch=5 n=67 v=0
257280 On ch=5 n=67 v=115
257511 Off ch=5 n=67 v=0
257920 On ch=5 n=55 v=99
257920 On ch=5 n=67 v=99
258036 Off ch=5 n=55 v=0
258036 Off ch=5 n=67 v=0
258048 On ch=5 n=55 v=115
258048 On ch=5 n=67 v=115
258164 Off ch=5 n=55 v=0
258164 Off ch=5 n=67 v=0
258176 On ch=5 n=55 v=112
258176 On ch=5 n=67 v=112
258292 Off ch=5 n=55 v=0
258292 Off ch=5 n=67 v=0
258304 On ch=5 n=55 v=116
258304 On ch=5 n=67 v=116
258535 Off ch=5 n=55 v=0
258535 Off ch=5 n=67 v=0
258944 On ch=5 n=55 v=102
258944 On ch=5 n=67 v=102
259060 Off ch=5 n=55 v=0
259060 Off ch=5 n=67 v=0
259072 On ch=5 n=55 v=110
259072 On ch=5 n=67 v=110
259188 Off ch=5 n=55 v=0
259188 Off ch=5 n=67 v=0
259200 On ch=5 n=55 v=114
259200 On ch=5 n=67 v=114
259316 Off ch=5 n=55 v=0
259316 Off ch=5 n=67 v=0
259328 On ch=5 n=67 v=115
259559 Off ch=5 n=67 v=0
260352 On ch=5 n=65 v=101
260583 Off ch=5 n=65 v=0
261376 On ch=5 n=67 v=102
261607 Off ch=5 n=67 v=0
262400 On ch=5 n=68 v=99
262631 Off ch=5 n=68 v=0
263424 On ch=5 n=65 v=102
263424 On ch=5 n=68 v=102
265421 Off ch=5 n=65 v=0
265421 Off ch=5 n=68 v=0
265472 On ch=5 n=65 v=113
265472 On ch=5 n=68 v=113
265703 Off ch=5 n=65 v=0
265703 Off ch=5 n=68 v=0
266112 On ch=5 n=65 v=58
266228 Off ch=5 n=65 v=0
266240 On ch=5 n=65 v=62
266356 Off ch=5 n=65 v=0
266368 On ch=5 n=65 v=63
266484 Off ch=5 n=65 v=0
266496 On ch=5 n=68 v=69
266727 Off ch=5 n=68 v=0
267648 On ch=5 n=63 v=104
267764 Off ch=5 n=63 v=0
267776 On ch=5 n=63 v=111
267892 Off ch=5 n=63 v=0
267904 On ch=5 n=63 v=111
268020 Off ch=5 n=63 v=0
268032 On ch=5 n=63 v=116
270029 Off ch=5 n=63 v=0
270080 On ch=5 n=63 v=110
270311 Off ch=5 n=63 v=0
273152 On ch=5 n=68 v=87
273152 On ch=5 n=65 v=68
273895 Off ch=5 n=68 v=0
273920 On ch=5 n=67 v=93
274125 Off ch=5 n=65 v=0
274151 Off ch=5 n=67 v=0
275200 On ch=5 n=68 v=103
275200 On ch=5 n=65 v=75
275943 Off ch=5 n=68 v=0
275968 On ch=5 n=67 v=97
276173 Off ch=5 n=65 v=0
276199 Off ch=5 n=67 v=0
279296 On ch=5 n=68 v=102
279527 Off ch=5 n=68 v=0
279552 On ch=5 n=70 v=104
279783 Off ch=5 n=70 v=0
279808 On ch=5 n=67 v=90
280039 Off ch=5 n=67 v=0
280064 On ch=5 n=68 v=103
280295 Off ch=5 n=68 v=0
280320 On ch=5 n=65 v=86
280551 Off ch=5 n=65 v=0
281088 On ch=5 n=63 v=89
281319 Off ch=5 n=63 v=0
281344 On ch=5 n=65 v=101
281575 Off ch=5 n=65 v=0
282112 On ch=5 n=67 v=87
282343 Off ch=5 n=67 v=0
282368 On ch=5 n=68 v=109
282599 Off ch=5 n=68 v=0
282624 On ch=5 n=67 v=94
282855 Off ch=5 n=67 v=0
282880 On ch=5 n=68 v=102
283111 Off ch=5 n=68 v=0
283136 On ch=5 n=67 v=92
283367 Off ch=5 n=67 v=0
283648 On ch=5 n=67 v=88
283879 Off ch=5 n=67 v=0
283904 On ch=5 n=65 v=98
283904 On ch=5 n=67 v=98
284135 Off ch=5 n=65 v=0
284135 Off ch=5 n=67 v=0
284160 On ch=5 n=65 v=98
284160 On ch=5 n=67 v=98
284391 Off ch=5 n=65 v=0
284391 Off ch=5 n=67 v=0
284416 On ch=5 n=63 v=89
285389 Off ch=5 n=63 v=0
285440 On ch=5 n=65 v=102
286413 Off ch=5 n=65 v=0
286464 On ch=5 n=67 v=105
287437 Off ch=5 n=67 v=0
287488 On ch=5 n=68 v=103
287949 Off ch=5 n=68 v=0
288000 On ch=5 n=65 v=86
288231 Off ch=5 n=65 v=0
288256 On ch=5 n=65 v=95
288487 Off ch=5 n=65 v=0
288512 On ch=5 n=65 v=96
288973 Off ch=5 n=65 v=0
289024 On ch=5 n=67 v=102
289485 Off ch=5 n=67 v=0
289536 On ch=5 n=67 v=100
289651 Off ch=5 n=67 v=0
290048 On ch=5 n=68 v=91
290163 Off ch=5 n=68 v=0
290560 On ch=5 n=65 v=84
290560 On ch=5 n=68 v=84
290675 Off ch=5 n=65 v=0
290675 Off ch=5 n=68 v=0
291072 On ch=5 n=65 v=88
291072 On ch=5 n=68 v=88
291187 Off ch=5 n=65 v=0
291187 Off ch=5 n=68 v=0
291584 On ch=5 n=67 v=89
291699 Off ch=5 n=67 v=0
292096 On ch=5 n=67 v=91
292211 Off ch=5 n=67 v=0
297216 On ch=5 n=67 v=88
297447 Off ch=5 n=67 v=0
297472 On ch=5 n=67 v=97
297703 Off ch=5 n=67 v=0
297728 On ch=5 n=67 v=100
298189 Off ch=5 n=67 v=0
299264 On ch=5 n=67 v=95
299495 Off ch=5 n=67 v=0
299520 On ch=5 n=67 v=100
299751 Off ch=5 n=67 v=0
299776 On ch=5 n=67 v=101
300237 Off ch=5 n=67 v=0
300288 On ch=5 n=63 v=88
300519 Off ch=5 n=63 v=0
300544 On ch=5 n=63 v=94
300775 Off ch=5 n=63 v=0
300800 On ch=5 n=65 v=104
301031 Off ch=5 n=65 v=0
301056 On ch=5 n=63 v=93
301056 On ch=5 n=51 v=59
301287 Off ch=5 n=63 v=0
301287 Off ch=5 n=51 v=0
301824 On ch=5 n=65 v=127
301824 On ch=5 n=68 v=127
302080 On ch=5 n=63 v=125
302080 On ch=5 n=67 v=125
302085 Off ch=5 n=65 v=0
302085 Off ch=5 n=68 v=0
302323 Off ch=5 n=63 v=0
302323 Off ch=5 n=67 v=0
302336 On ch=5 n=65 v=104
302336 On ch=5 n=68 v=104
302592 On ch=5 n=63 v=105
302592 On ch=5 n=67 v=105
302597 Off ch=5 n=65 v=0
302597 Off ch=5 n=68 v=0
302835 Off ch=5 n=63 v=0
302835 Off ch=5 n=67 v=0
303104 On ch=5 n=63 v=90
303335 Off ch=5 n=63 v=0
303616 On ch=5 n=67 v=93
303847 Off ch=5 n=67 v=0
304896 On ch=5 n=65 v=97
304896 On ch=5 n=68 v=97
305152 On ch=5 n=63 v=96
305152 On ch=5 n=67 v=96
305157 Off ch=5 n=65 v=0
305157 Off ch=5 n=68 v=0
305395 Off ch=5 n=63 v=0
305395 Off ch=5 n=67 v=0
305408 On ch=5 n=65 v=99
305408 On ch=5 n=68 v=99
305664 On ch=5 n=63 v=95
305664 On ch=5 n=67 v=95
305669 Off ch=5 n=65 v=0
305669 Off ch=5 n=68 v=0
305907 Off ch=5 n=63 v=0
305907 Off ch=5 n=67 v=0
305920 On ch=5 n=65 v=106
305920 On ch=5 n=68 v=106
306176 On ch=5 n=63 v=102
306176 On ch=5 n=67 v=102
306181 Off ch=5 n=65 v=0
306181 Off ch=5 n=68 v=0
306419 Off ch=5 n=63 v=0
306419 Off ch=5 n=67 v=0
306432 On ch=5 n=65 v=96
306432 On ch=5 n=68 v=96
306688 On ch=5 n=63 v=90
306688 On ch=5 n=67 v=90
306693 Off ch=5 n=65 v=0
306693 Off ch=5 n=68 v=0
306931 Off ch=5 n=63 v=0
306931 Off ch=5 n=67 v=0
307200 On ch=5 n=67 v=87
307431 Off ch=5 n=67 v=0
307712 On ch=5 n=67 v=85
307943 Off ch=5 n=67 v=0
307968 On ch=5 n=67 v=90
307968 On ch=5 n=63 v=63
308199 Off ch=5 n=67 v=0
308199 Off ch=5 n=63 v=0
310272 On ch=5 n=65 v=89
310272 On ch=5 n=67 v=89
310503 Off ch=5 n=65 v=0
310503 Off ch=5 n=67 v=0
310528 On ch=5 n=63 v=98
310528 On ch=5 n=67 v=98
310759 Off ch=5 n=63 v=0
310759 Off ch=5 n=67 v=0
310784 On ch=5 n=65 v=95
310784 On ch=5 n=67 v=95
311015 Off ch=5 n=65 v=0
311015 Off ch=5 n=67 v=0
311040 On ch=5 n=63 v=87
311271 Off ch=5 n=63 v=0
311680 On ch=5 n=67 v=91
311796 Off ch=5 n=67 v=0
311808 On ch=5 n=67 v=98
311924 Off ch=5 n=67 v=0
311936 On ch=5 n=67 v=96
312052 Off ch=5 n=67 v=0
312064 On ch=5 n=67 v=100
312180 Off ch=5 n=67 v=0
312192 On ch=5 n=67 v=95
312308 Off ch=5 n=67 v=0
312320 On ch=5 n=67 v=99
312436 Off ch=5 n=67 v=0
312448 On ch=5 n=67 v=97
312564 Off ch=5 n=67 v=0
312576 On ch=5 n=67 v=98
312692 Off ch=5 n=67 v=0
312704 On ch=5 n=67 v=95
312820 Off ch=5 n=67 v=0
312832 On ch=5 n=67 v=96
312948 Off ch=5 n=67 v=0
312960 On ch=5 n=67 v=98
313076 Off ch=5 n=67 v=0
313088 On ch=5 n=63 v=98
313856 Off ch=5 n=63 v=0
313984 On ch=5 n=67 v=106
314100 Off ch=5 n=67 v=0
314112 On ch=5 n=67 v=113
314228 Off ch=5 n=67 v=0
314240 On ch=5 n=67 v=115
314356 Off ch=5 n=67 v=0
314368 On ch=5 n=67 v=115
315648 Off ch=5 n=67 v=0
319872 On ch=5 n=67 v=101
319988 Off ch=5 n=67 v=0
320000 On ch=5 n=67 v=110
320116 Off ch=5 n=67 v=0
320128 On ch=5 n=67 v=112
320244 Off ch=5 n=67 v=0
320256 On ch=5 n=67 v=115
320487 Off ch=5 n=67 v=0
320896 On ch=5 n=67 v=105
321012 Off ch=5 n=67 v=0
321024 On ch=5 n=67 v=113
321140 Off ch=5 n=67 v=0
321152 On ch=5 n=67 v=110
321268 Off ch=5 n=67 v=0
321280 On ch=5 n=67 v=115
321511 Off ch=5 n=67 v=0
321920 On ch=5 n=67 v=97
322036 Off ch=5 n=67 v=0
322048 On ch=5 n=67 v=114
322164 Off ch=5 n=67 v=0
322176 On ch=5 n=67 v=111
322292 Off ch=5 n=67 v=0
322304 On ch=5 n=67 v=112
322535 Off ch=5 n=67 v=0
322560 On ch=5 n=67 v=114
322791 Off ch=5 n=67 v=0
322816 On ch=5 n=67 v=112
323047 Off ch=5 n=67 v=0
323072 On ch=5 n=67 v=113
323303 Off ch=5 n=67 v=0
323328 On ch=5 n=67 v=114
323559 Off ch=5 n=67 v=0
323584 On ch=5 n=67 v=113
323815 Off ch=5 n=67 v=0
323840 On ch=5 n=67 v=116
324071 Off ch=5 n=67 v=0
324096 On ch=5 n=67 v=112
324327 Off ch=5 n=67 v=0
324352 On ch=5 n=67 v=112
324583 Off ch=5 n=67 v=0
324864 On ch=5 n=67 v=102
325095 Off ch=5 n=67 v=0
325376 On ch=5 n=67 v=102
325607 Off ch=5 n=67 v=0
9344 On ch=13 n=55 v=55
9344 On ch=13 n=67 v=55
9460 Off ch=13 n=55 v=0
9460 Off ch=13 n=67 v=0
9472 On ch=13 n=55 v=69
9472 On ch=13 n=67 v=69
9588 Off ch=13 n=55 v=0
9588 Off ch=13 n=67 v=0
9600 On ch=13 n=55 v=79
9600 On ch=13 n=67 v=79
9716 Off ch=13 n=55 v=0
9716 Off ch=13 n=67 v=0
9728 On ch=13 n=60 v=109
9728 On ch=13 n=72 v=109
9959 Off ch=13 n=60 v=0
9959 Off ch=13 n=72 v=0
10240 On ch=13 n=60 v=90
10240 On ch=13 n=72 v=90
10471 Off ch=13 n=60 v=0
10471 Off ch=13 n=72 v=0
10752 On ch=13 n=55 v=86
10752 On ch=13 n=67 v=86
10983 Off ch=13 n=55 v=0
10983 Off ch=13 n=67 v=0
22400 On ch=13 n=60 v=89
22400 On ch=13 n=72 v=89
22631 Off ch=13 n=60 v=0
22631 Off ch=13 n=72 v=0
22912 On ch=13 n=60 v=89
22912 On ch=13 n=72 v=89
23143 Off ch=13 n=60 v=0
23143 Off ch=13 n=72 v=0
24704 On ch=13 n=60 v=84
24704 On ch=13 n=72 v=84
24820 Off ch=13 n=60 v=0
24820 Off ch=13 n=72 v=0
24832 On ch=13 n=60 v=95
24832 On ch=13 n=72 v=95
24948 Off ch=13 n=60 v=0
24948 Off ch=13 n=72 v=0
24960 On ch=13 n=55 v=83
24960 On ch=13 n=67 v=83
25191 Off ch=13 n=55 v=0
25191 Off ch=13 n=67 v=0
26752 On ch=13 n=60 v=85
26752 On ch=13 n=72 v=85
26868 Off ch=13 n=60 v=0
26868 Off ch=13 n=72 v=0
26880 On ch=13 n=60 v=98
26880 On ch=13 n=72 v=98
26996 Off ch=13 n=60 v=0
26996 Off ch=13 n=72 v=0
27008 On ch=13 n=60 v=110
27008 On ch=13 n=72 v=110
29005 Off ch=13 n=60 v=0
29005 Off ch=13 n=72 v=0
29056 On ch=13 n=60 v=114
29056 On ch=13 n=72 v=114
29287 Off ch=13 n=60 v=0
29287 Off ch=13 n=72 v=0
48512 On ch=13 n=77 v=96
49255 Off ch=13 n=77 v=0
50560 On ch=13 n=55 v=88
50560 On ch=13 n=67 v=88
50791 Off ch=13 n=55 v=0
50791 Off ch=13 n=67 v=0
51072 On ch=13 n=60 v=88
51072 On ch=13 n=72 v=88
51303 Off ch=13 n=60 v=0
51303 Off ch=13 n=72 v=0
52608 On ch=13 n=77 v=105
53581 Off ch=13 n=77 v=0
53632 On ch=13 n=79 v=119
53863 Off ch=13 n=79 v=0
53888 On ch=13 n=67 v=117
53888 On ch=13 n=79 v=117
54119 Off ch=13 n=67 v=0
54119 Off ch=13 n=79 v=0
54912 On ch=13 n=55 v=98
54912 On ch=13 n=67 v=98
55143 Off ch=13 n=55 v=0
55143 Off ch=13 n=67 v=0
55424 On ch=13 n=60 v=100
55424 On ch=13 n=72 v=100
55655 Off ch=13 n=60 v=0
55655 Off ch=13 n=72 v=0
73728 On ch=13 n=55 v=55
73728 On ch=13 n=67 v=55
73844 Off ch=13 n=55 v=0
73844 Off ch=13 n=67 v=0
73856 On ch=13 n=55 v=65
73856 On ch=13 n=67 v=65
73972 Off ch=13 n=55 v=0
73972 Off ch=13 n=67 v=0
73984 On ch=13 n=55 v=74
73984 On ch=13 n=67 v=74
74100 Off ch=13 n=55 v=0
74100 Off ch=13 n=67 v=0
74112 On ch=13 n=60 v=106
74112 On ch=13 n=72 v=106
74343 Off ch=13 n=60 v=0
74343 Off ch=13 n=72 v=0
74624 On ch=13 n=60 v=88
74624 On ch=13 n=72 v=88
74855 Off ch=13 n=60 v=0
74855 Off ch=13 n=72 v=0
75136 On ch=13 n=55 v=89
75136 On ch=13 n=67 v=89
75367 Off ch=13 n=55 v=0
75367 Off ch=13 n=67 v=0
86784 On ch=13 n=60 v=83
86784 On ch=13 n=72 v=83
87015 Off ch=13 n=60 v=0
87015 Off ch=13 n=72 v=0
87296 On ch=13 n=60 v=91
87296 On ch=13 n=72 v=91
87527 Off ch=13 n=60 v=0
87527 Off ch=13 n=72 v=0
89088 On ch=13 n=60 v=87
89088 On ch=13 n=72 v=87
89204 Off ch=13 n=60 v=0
89204 Off ch=13 n=72 v=0
89216 On ch=13 n=60 v=95
89216 On ch=13 n=72 v=95
89332 Off ch=13 n=60 v=0
89332 Off ch=13 n=72 v=0
89344 On ch=13 n=55 v=82
89344 On ch=13 n=67 v=82
89575 Off ch=13 n=55 v=0
89575 Off ch=13 n=67 v=0
91136 On ch=13 n=60 v=87
91136 On ch=13 n=72 v=87
91252 Off ch=13 n=60 v=0
91252 Off ch=13 n=72 v=0
91264 On ch=13 n=60 v=92
91264 On ch=13 n=72 v=92
91380 Off ch=13 n=60 v=0
91380 Off ch=13 n=72 v=0
91392 On ch=13 n=60 v=112
91392 On ch=13 n=72 v=112
93389 Off ch=13 n=60 v=0
93389 Off ch=13 n=72 v=0
93440 On ch=13 n=60 v=113
93440 On ch=13 n=72 v=113
93671 Off ch=13 n=60 v=0
93671 Off ch=13 n=72 v=0
112896 On ch=13 n=77 v=96
113639 Off ch=13 n=77 v=0
114944 On ch=13 n=55 v=88
114944 On ch=13 n=67 v=88
115175 Off ch=13 n=55 v=0
115175 Off ch=13 n=67 v=0
115456 On ch=13 n=60 v=84
115456 On ch=13 n=72 v=84
115687 Off ch=13 n=60 v=0
115687 Off ch=13 n=72 v=0
116992 On ch=13 n=77 v=102
117965 Off ch=13 n=77 v=0
118016 On ch=13 n=79 v=120
118247 Off ch=13 n=79 v=0
118272 On ch=13 n=67 v=116
118272 On ch=13 n=79 v=116
118503 Off ch=13 n=67 v=0
118503 Off ch=13 n=79 v=0
119296 On ch=13 n=55 v=104
119296 On ch=13 n=67 v=104
119527 Off ch=13 n=55 v=0
119527 Off ch=13 n=67 v=0
119808 On ch=13 n=60 v=99
119808 On ch=13 n=72 v=99
120039 Off ch=13 n=60 v=0
120039 Off ch=13 n=72 v=0
145920 On ch=13 n=55 v=40
145920 On ch=13 n=67 v=40
146151 Off ch=13 n=55 v=0
146151 Off ch=13 n=67 v=0
146944 On ch=13 n=60 v=51
147175 Off ch=13 n=60 v=0
147968 On ch=13 n=60 v=44
148199 Off ch=13 n=60 v=0
148992 On ch=13 n=55 v=48
148992 On ch=13 n=67 v=48
149223 Off ch=13 n=55 v=0
149223 Off ch=13 n=67 v=0
150016 On ch=13 n=55 v=45
150016 On ch=13 n=67 v=45
150247 Off ch=13 n=55 v=0
150247 Off ch=13 n=67 v=0
151040 On ch=13 n=60 v=90
151040 On ch=13 n=72 v=90
152013 Off ch=13 n=60 v=0
152013 Off ch=13 n=72 v=0
152064 On ch=13 n=60 v=100
152064 On ch=13 n=72 v=100
152295 Off ch=13 n=60 v=0
152295 Off ch=13 n=72 v=0
152704 On ch=13 n=64 v=84
152704 On ch=13 n=76 v=84
152820 Off ch=13 n=64 v=0
152820 Off ch=13 n=76 v=0
152832 On ch=13 n=64 v=97
152832 On ch=13 n=76 v=97
152948 Off ch=13 n=64 v=0
152948 Off ch=13 n=76 v=0
152960 On ch=13 n=64 v=101
152960 On ch=13 n=76 v=101
153076 Off ch=13 n=64 v=0
153076 Off ch=13 n=76 v=0
153088 On ch=13 n=64 v=100
153088 On ch=13 n=76 v=100
154061 Off ch=13 n=64 v=0
154061 Off ch=13 n=76 v=0
154112 On ch=13 n=64 v=101
154112 On ch=13 n=76 v=101
154343 Off ch=13 n=64 v=0
154343 Off ch=13 n=76 v=0
154752 On ch=13 n=67 v=99
154752 On ch=13 n=79 v=99
154868 Off ch=13 n=67 v=0
154868 Off ch=13 n=79 v=0
154880 On ch=13 n=67 v=101
154880 On ch=13 n=79 v=101
154996 Off ch=13 n=67 v=0
154996 Off ch=13 n=79 v=0
155008 On ch=13 n=67 v=109
155008 On ch=13 n=79 v=109
155124 Off ch=13 n=67 v=0
155124 Off ch=13 n=79 v=0
155136 On ch=13 n=67 v=107
155136 On ch=13 n=79 v=107
155367 Off ch=13 n=67 v=0
155367 Off ch=13 n=79 v=0
155904 On ch=13 n=67 v=93
155904 On ch=13 n=79 v=93
156020 Off ch=13 n=67 v=0
156020 Off ch=13 n=79 v=0
156032 On ch=13 n=67 v=105
156032 On ch=13 n=79 v=105
156148 Off ch=13 n=67 v=0
156148 Off ch=13 n=79 v=0
156160 On ch=13 n=67 v=104
156160 On ch=13 n=79 v=104
156391 Off ch=13 n=67 v=0
156391 Off ch=13 n=79 v=0
156672 On ch=13 n=74 v=91
156903 Off ch=13 n=74 v=0
158464 On ch=13 n=60 v=90
158580 Off ch=13 n=60 v=0
158592 On ch=13 n=60 v=97
158708 Off ch=13 n=60 v=0
158720 On ch=13 n=60 v=94
158951 Off ch=13 n=60 v=0
160512 On ch=13 n=74 v=92
160628 Off ch=13 n=74 v=0
160640 On ch=13 n=74 v=93
160756 Off ch=13 n=74 v=0
160768 On ch=13 n=67 v=100
160768 On ch=13 n=74 v=100
160999 Off ch=13 n=67 v=0
160999 Off ch=13 n=74 v=0
164608 On ch=13 n=55 v=93
164608 On ch=13 n=67 v=93
164724 Off ch=13 n=55 v=0
164724 Off ch=13 n=67 v=0
164736 On ch=13 n=55 v=97
164736 On ch=13 n=67 v=97
164852 Off ch=13 n=55 v=0
164852 Off ch=13 n=67 v=0
164864 On ch=13 n=60 v=115
164864 On ch=13 n=72 v=115
165095 Off ch=13 n=60 v=0
165095 Off ch=13 n=72 v=0
165376 On ch=13 n=60 v=84
165837 Off ch=13 n=60 v=0
165888 On ch=13 n=60 v=97
166349 Off ch=13 n=60 v=0
167424 On ch=13 n=60 v=100
167885 Off ch=13 n=60 v=0
167936 On ch=13 n=60 v=95
168397 Off ch=13 n=60 v=0
181888 On ch=13 n=74 v=96
182004 Off ch=13 n=74 v=0
182016 On ch=13 n=74 v=112
182132 Off ch=13 n=74 v=0
182144 On ch=13 n=74 v=114
182260 Off ch=13 n=74 v=0
182272 On ch=13 n=74 v=112
182733 Off ch=13 n=74 v=0
182784 On ch=13 n=74 v=117
183245 Off ch=13 n=74 v=0
183296 On ch=13 n=74 v=111
184269 Off ch=13 n=74 v=0
192128 On ch=13 n=67 v=101
192128 On ch=13 n=79 v=101
192244 Off ch=13 n=67 v=0
192244 Off ch=13 n=79 v=0
192256 On ch=13 n=67 v=112
192256 On ch=13 n=79 v=112
192372 Off ch=13 n=67 v=0
192372 Off ch=13 n=79 v=0
192384 On ch=13 n=67 v=111
192384 On ch=13 n=79 v=111
192500 Off ch=13 n=67 v=0
192500 Off ch=13 n=79 v=0
192512 On ch=13 n=67 v=112
192512 On ch=13 n=79 v=112
193280 Off ch=13 n=67 v=0
193280 Off ch=13 n=79 v=0
193408 On ch=13 n=67 v=101
193408 On ch=13 n=79 v=101
193524 Off ch=13 n=67 v=0
193524 Off ch=13 n=79 v=0
193536 On ch=13 n=67 v=117
193536 On ch=13 n=79 v=117
193652 Off ch=13 n=67 v=0
193652 Off ch=13 n=79 v=0
193664 On ch=13 n=67 v=112
193664 On ch=13 n=79 v=112
193780 Off ch=13 n=67 v=0
193780 Off ch=13 n=79 v=0
193792 On ch=13 n=67 v=115
193792 On ch=13 n=79 v=115
195072 Off ch=13 n=67 v=0
195072 Off ch=13 n=79 v=0
202240 On ch=13 n=60 v=49
202240 On ch=13 n=72 v=49
202471 Off ch=13 n=60 v=0
202471 Off ch=13 n=72 v=0
202752 On ch=13 n=55 v=90
202752 On ch=13 n=67 v=90
202983 Off ch=13 n=55 v=0
202983 Off ch=13 n=67 v=0
210176 On ch=13 n=60 v=86
210176 On ch=13 n=72 v=86
210407 Off ch=13 n=60 v=0
210407 Off ch=13 n=72 v=0
211200 On ch=13 n=60 v=89
211200 On ch=13 n=72 v=89
211431 Off ch=13 n=60 v=0
211431 Off ch=13 n=72 v=0
214784 On ch=13 n=60 v=87
214784 On ch=13 n=72 v=87
215015 Off ch=13 n=60 v=0
215015 Off ch=13 n=72 v=0
215296 On ch=13 n=60 v=88
215296 On ch=13 n=72 v=88
215527 Off ch=13 n=60 v=0
215527 Off ch=13 n=72 v=0
217088 On ch=13 n=60 v=91
217088 On ch=13 n=72 v=91
217204 Off ch=13 n=60 v=0
217204 Off ch=13 n=72 v=0
217216 On ch=13 n=60 v=93
217216 On ch=13 n=72 v=93
217332 Off ch=13 n=60 v=0
217332 Off ch=13 n=72 v=0
217344 On ch=13 n=55 v=84
217344 On ch=13 n=67 v=84
217575 Off ch=13 n=55 v=0
217575 Off ch=13 n=67 v=0
219136 On ch=13 n=60 v=90
219136 On ch=13 n=72 v=90
219252 Off ch=13 n=60 v=0
219252 Off ch=13 n=72 v=0
219264 On ch=13 n=60 v=95
219264 On ch=13 n=72 v=95
219380 Off ch=13 n=60 v=0
219380 Off ch=13 n=72 v=0
219392 On ch=13 n=60 v=120
219392 On ch=13 n=72 v=120
221389 Off ch=13 n=60 v=0
221389 Off ch=13 n=72 v=0
221440 On ch=13 n=60 v=111
221440 On ch=13 n=72 v=111
221671 Off ch=13 n=60 v=0
221671 Off ch=13 n=72 v=0
222464 On ch=13 n=55 v=102
222464 On ch=13 n=67 v=102
222695 Off ch=13 n=55 v=0
222695 Off ch=13 n=67 v=0
244992 On ch=13 n=67 v=103
244992 On ch=13 n=74 v=103
245735 Off ch=13 n=67 v=0
245735 Off ch=13 n=74 v=0
245760 On ch=13 n=67 v=120
245760 On ch=13 n=74 v=120
245991 Off ch=13 n=67 v=0
245991 Off ch=13 n=74 v=0
246016 On ch=13 n=64 v=103
246016 On ch=13 n=72 v=103
246247 Off ch=13 n=64 v=0
246247 Off ch=13 n=72 v=0
246528 On ch=13 n=55 v=97
246528 On ch=13 n=67 v=97
246759 Off ch=13 n=55 v=0
246759 Off ch=13 n=67 v=0
247040 On ch=13 n=60 v=103
247040 On ch=13 n=72 v=103
247271 Off ch=13 n=60 v=0
247271 Off ch=13 n=72 v=0
247552 On ch=13 n=60 v=102
247552 On ch=13 n=72 v=102
247783 Off ch=13 n=60 v=0
247783 Off ch=13 n=72 v=0
248064 On ch=13 n=60 v=103
248064 On ch=13 n=72 v=103
248295 Off ch=13 n=60 v=0
248295 Off ch=13 n=72 v=0
248576 On ch=13 n=55 v=102
248576 On ch=13 n=67 v=102
248807 Off ch=13 n=55 v=0
248807 Off ch=13 n=67 v=0
249088 On ch=13 n=67 v=99
249088 On ch=13 n=74 v=99
250061 Off ch=13 n=67 v=0
250061 Off ch=13 n=74 v=0
250112 On ch=13 n=72 v=122
250112 On ch=13 n=76 v=122
250343 Off ch=13 n=72 v=0
250343 Off ch=13 n=76 v=0
250368 On ch=13 n=60 v=101
250368 On ch=13 n=72 v=101
250599 Off ch=13 n=60 v=0
250599 Off ch=13 n=72 v=0
250880 On ch=13 n=55 v=107
250880 On ch=13 n=67 v=107
251111 Off ch=13 n=55 v=0
251111 Off ch=13 n=67 v=0
251392 On ch=13 n=60 v=103
251392 On ch=13 n=72 v=103
251623 Off ch=13 n=60 v=0
251623 Off ch=13 n=72 v=0
251904 On ch=13 n=60 v=104
251904 On ch=13 n=72 v=104
252135 Off ch=13 n=60 v=0
252135 Off ch=13 n=72 v=0
252416 On ch=13 n=72 v=103
252416 On ch=13 n=76 v=103
252647 Off ch=13 n=72 v=0
252647 Off ch=13 n=76 v=0
252928 On ch=13 n=67 v=101
252928 On ch=13 n=74 v=101
253159 Off ch=13 n=67 v=0
253159 Off ch=13 n=74 v=0
253184 On ch=13 n=64 v=100
253184 On ch=13 n=72 v=100
253415 Off ch=13 n=64 v=0
253415 Off ch=13 n=72 v=0
254848 On ch=13 n=55 v=102
254848 On ch=13 n=67 v=102
254964 Off ch=13 n=55 v=0
254964 Off ch=13 n=67 v=0
254976 On ch=13 n=55 v=109
254976 On ch=13 n=67 v=109
255092 Off ch=13 n=55 v=0
255092 Off ch=13 n=67 v=0
255104 On ch=13 n=55 v=117
255104 On ch=13 n=67 v=117
255220 Off ch=13 n=55 v=0
255220 Off ch=13 n=67 v=0
255232 On ch=13 n=60 v=127
255232 On ch=13 n=72 v=127
255463 Off ch=13 n=60 v=0
255463 Off ch=13 n=72 v=0
256896 On ch=13 n=55 v=100
256896 On ch=13 n=67 v=100
257012 Off ch=13 n=55 v=0
257012 Off ch=13 n=67 v=0
257024 On ch=13 n=55 v=110
257024 On ch=13 n=67 v=110
257140 Off ch=13 n=55 v=0
257140 Off ch=13 n=67 v=0
257152 On ch=13 n=55 v=112
257152 On ch=13 n=67 v=112
257268 Off ch=13 n=55 v=0
257268 Off ch=13 n=67 v=0
257280 On ch=13 n=60 v=127
257280 On ch=13 n=72 v=127
257511 Off ch=13 n=60 v=0
257511 Off ch=13 n=72 v=0
257920 On ch=13 n=55 v=107
257920 On ch=13 n=67 v=107
258036 Off ch=13 n=55 v=0
258036 Off ch=13 n=67 v=0
258048 On ch=13 n=55 v=112
258048 On ch=13 n=67 v=112
258164 Off ch=13 n=55 v=0
258164 Off ch=13 n=67 v=0
258176 On ch=13 n=55 v=109
258176 On ch=13 n=67 v=109
258292 Off ch=13 n=55 v=0
258292 Off ch=13 n=67 v=0
258304 On ch=13 n=60 v=127
258304 On ch=13 n=72 v=127
258535 Off ch=13 n=60 v=0
258535 Off ch=13 n=72 v=0
258944 On ch=13 n=55 v=107
258944 On ch=13 n=67 v=107
259060 Off ch=13 n=55 v=0
259060 Off ch=13 n=67 v=0
259072 On ch=13 n=55 v=113
259072 On ch=13 n=67 v=113
259188 Off ch=13 n=55 v=0
259188 Off ch=13 n=67 v=0
259200 On ch=13 n=55 v=115
259200 On ch=13 n=67 v=115
259316 Off ch=13 n=55 v=0
259316 Off ch=13 n=67 v=0
259328 On ch=13 n=60 v=127
259328 On ch=13 n=72 v=127
259444 Off ch=13 n=60 v=0
259444 Off ch=13 n=72 v=0
259456 On ch=13 n=60 v=122
259456 On ch=13 n=72 v=122
259572 Off ch=13 n=60 v=0
259572 Off ch=13 n=72 v=0
259584 On ch=13 n=60 v=114
259584 On ch=13 n=72 v=114
259700 Off ch=13 n=60 v=0
259700 Off ch=13 n=72 v=0
259712 On ch=13 n=60 v=116
259712 On ch=13 n=72 v=116
259828 Off ch=13 n=60 v=0
259828 Off ch=13 n=72 v=0
259840 On ch=13 n=60 v=112
259840 On ch=13 n=72 v=112
260468 Off ch=13 n=60 v=0
260468 Off ch=13 n=72 v=0
260480 On ch=13 n=60 v=113
260480 On ch=13 n=72 v=113
260596 Off ch=13 n=60 v=0
260596 Off ch=13 n=72 v=0
260608 On ch=13 n=60 v=111
260608 On ch=13 n=72 v=111
260724 Off ch=13 n=60 v=0
260724 Off ch=13 n=72 v=0
260736 On ch=13 n=60 v=111
260736 On ch=13 n=72 v=111
260852 Off ch=13 n=60 v=0
260852 Off ch=13 n=72 v=0
260864 On ch=13 n=60 v=113
260864 On ch=13 n=72 v=113
261492 Off ch=13 n=60 v=0
261492 Off ch=13 n=72 v=0
261504 On ch=13 n=60 v=115
261504 On ch=13 n=72 v=115
261620 Off ch=13 n=60 v=0
261620 Off ch=13 n=72 v=0
261632 On ch=13 n=60 v=111
261632 On ch=13 n=72 v=111
261748 Off ch=13 n=60 v=0
261748 Off ch=13 n=72 v=0
261760 On ch=13 n=60 v=110
261760 On ch=13 n=72 v=110
261876 Off ch=13 n=60 v=0
261876 Off ch=13 n=72 v=0
261888 On ch=13 n=60 v=113
261888 On ch=13 n=72 v=113
262516 Off ch=13 n=60 v=0
262516 Off ch=13 n=72 v=0
262528 On ch=13 n=60 v=115
262528 On ch=13 n=72 v=115
262644 Off ch=13 n=60 v=0
262644 Off ch=13 n=72 v=0
262656 On ch=13 n=60 v=114
262656 On ch=13 n=72 v=114
262772 Off ch=13 n=60 v=0
262772 Off ch=13 n=72 v=0
262784 On ch=13 n=60 v=114
262784 On ch=13 n=72 v=114
262900 Off ch=13 n=60 v=0
262900 Off ch=13 n=72 v=0
262912 On ch=13 n=60 v=115
262912 On ch=13 n=72 v=115
263373 Off ch=13 n=60 v=0
263373 Off ch=13 n=72 v=0
267648 On ch=13 n=60 v=106
267648 On ch=13 n=72 v=106
267764 Off ch=13 n=60 v=0
267764 Off ch=13 n=72 v=0
267776 On ch=13 n=60 v=112
267776 On ch=13 n=72 v=112
267892 Off ch=13 n=60 v=0
267892 Off ch=13 n=72 v=0
267904 On ch=13 n=60 v=112
267904 On ch=13 n=72 v=112
268020 Off ch=13 n=60 v=0
268020 Off ch=13 n=72 v=0
268032 On ch=13 n=60 v=110
268032 On ch=13 n=72 v=110
270029 Off ch=13 n=60 v=0
270029 Off ch=13 n=72 v=0
270080 On ch=13 n=60 v=112
270080 On ch=13 n=72 v=112
270311 Off ch=13 n=60 v=0
270311 Off ch=13 n=72 v=0
270720 On ch=13 n=60 v=103
270720 On ch=13 n=72 v=103
270836 Off ch=13 n=60 v=0
270836 Off ch=13 n=72 v=0
270848 On ch=13 n=60 v=113
270848 On ch=13 n=72 v=113
270964 Off ch=13 n=60 v=0
270964 Off ch=13 n=72 v=0
270976 On ch=13 n=60 v=113
270976 On ch=13 n=72 v=113
271092 Off ch=13 n=60 v=0
271092 Off ch=13 n=72 v=0
271104 On ch=13 n=60 v=116
271104 On ch=13 n=72 v=116
271335 Off ch=13 n=60 v=0
271335 Off ch=13 n=72 v=0
272128 On ch=13 n=55 v=88
272128 On ch=13 n=67 v=88
272359 Off ch=13 n=55 v=0
272359 Off ch=13 n=67 v=0
274176 On ch=13 n=55 v=86
274176 On ch=13 n=67 v=86
274407 Off ch=13 n=55 v=0
274407 Off ch=13 n=67 v=0
280576 On ch=13 n=55 v=89
280576 On ch=13 n=67 v=89
280807 Off ch=13 n=55 v=0
280807 Off ch=13 n=67 v=0
280832 On ch=13 n=55 v=96
280832 On ch=13 n=67 v=96
281063 Off ch=13 n=55 v=0
281063 Off ch=13 n=67 v=0
281088 On ch=13 n=55 v=92
281088 On ch=13 n=67 v=92
281319 Off ch=13 n=55 v=0
281319 Off ch=13 n=67 v=0
281344 On ch=13 n=55 v=97
281344 On ch=13 n=67 v=97
281575 Off ch=13 n=55 v=0
281575 Off ch=13 n=67 v=0
281600 On ch=13 n=55 v=98
281600 On ch=13 n=67 v=98
281831 Off ch=13 n=55 v=0
281831 Off ch=13 n=67 v=0
281856 On ch=13 n=55 v=102
281856 On ch=13 n=67 v=102
282087 Off ch=13 n=55 v=0
282087 Off ch=13 n=67 v=0
282112 On ch=13 n=60 v=115
282112 On ch=13 n=72 v=115
282343 Off ch=13 n=60 v=0
282343 Off ch=13 n=72 v=0
282368 On ch=13 n=60 v=98
282368 On ch=13 n=72 v=98
282599 Off ch=13 n=60 v=0
282599 Off ch=13 n=72 v=0
282624 On ch=13 n=60 v=97
282624 On ch=13 n=72 v=97
282855 Off ch=13 n=60 v=0
282855 Off ch=13 n=72 v=0
282880 On ch=13 n=60 v=101
282880 On ch=13 n=72 v=101
283111 Off ch=13 n=60 v=0
283111 Off ch=13 n=72 v=0
283136 On ch=13 n=55 v=86
283136 On ch=13 n=67 v=86
283367 Off ch=13 n=55 v=0
283367 Off ch=13 n=67 v=0
283392 On ch=13 n=55 v=93
283392 On ch=13 n=67 v=93
283623 Off ch=13 n=55 v=0
283623 Off ch=13 n=67 v=0
283648 On ch=13 n=55 v=96
283648 On ch=13 n=67 v=96
283879 Off ch=13 n=55 v=0
283879 Off ch=13 n=67 v=0
283904 On ch=13 n=55 v=102
283904 On ch=13 n=67 v=102
284135 Off ch=13 n=55 v=0
284135 Off ch=13 n=67 v=0
284160 On ch=13 n=55 v=101
284160 On ch=13 n=67 v=101
284391 Off ch=13 n=55 v=0
284391 Off ch=13 n=67 v=0
284416 On ch=13 n=60 v=114
284416 On ch=13 n=72 v=114
285389 Off ch=13 n=60 v=0
285389 Off ch=13 n=72 v=0
285440 On ch=13 n=60 v=95
285440 On ch=13 n=72 v=95
286413 Off ch=13 n=60 v=0
286413 Off ch=13 n=72 v=0
286464 On ch=13 n=60 v=99
286464 On ch=13 n=72 v=99
287437 Off ch=13 n=60 v=0
287437 Off ch=13 n=72 v=0
287488 On ch=13 n=60 v=101
287488 On ch=13 n=72 v=101
288461 Off ch=13 n=60 v=0
288461 Off ch=13 n=72 v=0
288512 On ch=13 n=55 v=86
288512 On ch=13 n=67 v=86
288973 Off ch=13 n=55 v=0
288973 Off ch=13 n=67 v=0
289024 On ch=13 n=55 v=99
289024 On ch=13 n=67 v=99
289485 Off ch=13 n=55 v=0
289485 Off ch=13 n=67 v=0
289536 On ch=13 n=60 v=112
289536 On ch=13 n=72 v=112
289651 Off ch=13 n=60 v=0
289651 Off ch=13 n=72 v=0
290048 On ch=13 n=60 v=91
290048 On ch=13 n=72 v=91
290163 Off ch=13 n=60 v=0
290163 Off ch=13 n=72 v=0
290560 On ch=13 n=60 v=89
290560 On ch=13 n=72 v=89
290675 Off ch=13 n=60 v=0
290675 Off ch=13 n=72 v=0
291072 On ch=13 n=60 v=93
291072 On ch=13 n=72 v=93
291187 Off ch=13 n=60 v=0
291187 Off ch=13 n=72 v=0
291584 On ch=13 n=55 v=89
291584 On ch=13 n=67 v=89
291699 Off ch=13 n=55 v=0
291699 Off ch=13 n=67 v=0
292096 On ch=13 n=55 v=92
292096 On ch=13 n=67 v=92
292211 Off ch=13 n=55 v=0
292211 Off ch=13 n=67 v=0
292608 On ch=13 n=60 v=92
292608 On ch=13 n=72 v=92
293069 Off ch=13 n=60 v=0
293069 Off ch=13 n=72 v=0
293120 On ch=13 n=60 v=97
293120 On ch=13 n=72 v=97
293351 Off ch=13 n=60 v=0
293351 Off ch=13 n=72 v=0
293376 On ch=13 n=60 v=97
293376 On ch=13 n=72 v=97
293607 Off ch=13 n=60 v=0
293607 Off ch=13 n=72 v=0
293632 On ch=13 n=60 v=99
293632 On ch=13 n=72 v=99
294093 Off ch=13 n=60 v=0
294093 Off ch=13 n=72 v=0
294144 On ch=13 n=60 v=96
294144 On ch=13 n=72 v=96
294375 Off ch=13 n=60 v=0
294375 Off ch=13 n=72 v=0
294400 On ch=13 n=60 v=99
294400 On ch=13 n=72 v=99
294631 Off ch=13 n=60 v=0
294631 Off ch=13 n=72 v=0
294656 On ch=13 n=60 v=100
294656 On ch=13 n=72 v=100
295117 Off ch=13 n=60 v=0
295117 Off ch=13 n=72 v=0
295168 On ch=13 n=60 v=94
295168 On ch=13 n=72 v=94
295399 Off ch=13 n=60 v=0
295399 Off ch=13 n=72 v=0
295424 On ch=13 n=60 v=94
295424 On ch=13 n=72 v=94
295655 Off ch=13 n=60 v=0
295655 Off ch=13 n=72 v=0
295680 On ch=13 n=60 v=99
295680 On ch=13 n=72 v=99
296141 Off ch=13 n=60 v=0
296141 Off ch=13 n=72 v=0
296192 On ch=13 n=55 v=82
296192 On ch=13 n=67 v=82
296423 Off ch=13 n=55 v=0
296423 Off ch=13 n=67 v=0
296448 On ch=13 n=55 v=93
296448 On ch=13 n=67 v=93
296679 Off ch=13 n=55 v=0
296679 Off ch=13 n=67 v=0
296704 On ch=13 n=55 v=99
296704 On ch=13 n=67 v=99
297165 Off ch=13 n=55 v=0
297165 Off ch=13 n=67 v=0
297216 On ch=13 n=55 v=91
297216 On ch=13 n=67 v=91
297447 Off ch=13 n=55 v=0
297447 Off ch=13 n=67 v=0
297472 On ch=13 n=55 v=100
297472 On ch=13 n=67 v=100
297703 Off ch=13 n=55 v=0
297703 Off ch=13 n=67 v=0
297728 On ch=13 n=55 v=98
297728 On ch=13 n=67 v=98
298189 Off ch=13 n=55 v=0
298189 Off ch=13 n=67 v=0
298240 On ch=13 n=55 v=97
298240 On ch=13 n=67 v=97
298471 Off ch=13 n=55 v=0
298471 Off ch=13 n=67 v=0
298496 On ch=13 n=55 v=103
298496 On ch=13 n=67 v=103
298727 Off ch=13 n=55 v=0
298727 Off ch=13 n=67 v=0
298752 On ch=13 n=55 v=97
298752 On ch=13 n=67 v=97
299213 Off ch=13 n=55 v=0
299213 Off ch=13 n=67 v=0
299264 On ch=13 n=55 v=96
299264 On ch=13 n=67 v=96
299495 Off ch=13 n=55 v=0
299495 Off ch=13 n=67 v=0
299520 On ch=13 n=55 v=96
299520 On ch=13 n=67 v=96
299751 Off ch=13 n=55 v=0
299751 Off ch=13 n=67 v=0
299776 On ch=13 n=60 v=97
299776 On ch=13 n=67 v=97
300007 Off ch=13 n=60 v=0
300007 Off ch=13 n=67 v=0
301312 On ch=13 n=60 v=87
301312 On ch=13 n=72 v=87
301543 Off ch=13 n=60 v=0
301543 Off ch=13 n=72 v=0
301568 On ch=13 n=60 v=92
301568 On ch=13 n=72 v=92
301799 Off ch=13 n=60 v=0
301799 Off ch=13 n=72 v=0
302336 On ch=13 n=60 v=96
302336 On ch=13 n=72 v=96
302567 Off ch=13 n=60 v=0
302567 Off ch=13 n=72 v=0
302592 On ch=13 n=60 v=100
302592 On ch=13 n=72 v=100
302823 Off ch=13 n=60 v=0
302823 Off ch=13 n=72 v=0
303104 On ch=13 n=55 v=89
303104 On ch=13 n=67 v=89
303335 Off ch=13 n=55 v=0
303335 Off ch=13 n=67 v=0
303616 On ch=13 n=55 v=88
303616 On ch=13 n=67 v=88
303847 Off ch=13 n=55 v=0
303847 Off ch=13 n=67 v=0
304896 On ch=13 n=60 v=107
304896 On ch=13 n=72 v=107
305127 Off ch=13 n=60 v=0
305127 Off ch=13 n=72 v=0
305152 On ch=13 n=60 v=101
305152 On ch=13 n=72 v=101
305383 Off ch=13 n=60 v=0
305383 Off ch=13 n=72 v=0
305408 On ch=13 n=60 v=96
305408 On ch=13 n=72 v=96
305639 Off ch=13 n=60 v=0
305639 Off ch=13 n=72 v=0
305664 On ch=13 n=60 v=96
305664 On ch=13 n=72 v=96
305895 Off ch=13 n=60 v=0
305895 Off ch=13 n=72 v=0
305920 On ch=13 n=60 v=103
305920 On ch=13 n=72 v=103
306151 Off ch=13 n=60 v=0
306151 Off ch=13 n=72 v=0
306176 On ch=13 n=60 v=98
306176 On ch=13 n=72 v=98
306407 Off ch=13 n=60 v=0
306407 Off ch=13 n=72 v=0
306432 On ch=13 n=60 v=99
306432 On ch=13 n=72 v=99
306663 Off ch=13 n=60 v=0
306663 Off ch=13 n=72 v=0
306688 On ch=13 n=60 v=101
306688 On ch=13 n=72 v=101
306919 Off ch=13 n=60 v=0
306919 Off ch=13 n=72 v=0
307200 On ch=13 n=55 v=86
307200 On ch=13 n=67 v=86
307431 Off ch=13 n=55 v=0
307431 Off ch=13 n=67 v=0
307712 On ch=13 n=55 v=90
307712 On ch=13 n=67 v=90
307943 Off ch=13 n=55 v=0
307943 Off ch=13 n=67 v=0
307968 On ch=13 n=60 v=105
307968 On ch=13 n=72 v=105
308199 Off ch=13 n=60 v=0
308199 Off ch=13 n=72 v=0
310656 On ch=13 n=55 v=89
310656 On ch=13 n=67 v=89
310772 Off ch=13 n=55 v=0
310772 Off ch=13 n=67 v=0
310784 On ch=13 n=55 v=94
310784 On ch=13 n=67 v=94
310900 Off ch=13 n=55 v=0
310900 Off ch=13 n=67 v=0
310912 On ch=13 n=55 v=103
310912 On ch=13 n=67 v=103
311028 Off ch=13 n=55 v=0
311028 Off ch=13 n=67 v=0
311040 On ch=13 n=60 v=117
311040 On ch=13 n=72 v=117
311271 Off ch=13 n=60 v=0
311271 Off ch=13 n=72 v=0
312704 On ch=13 n=55 v=90
312704 On ch=13 n=67 v=90
312820 Off ch=13 n=55 v=0
312820 Off ch=13 n=67 v=0
312832 On ch=13 n=55 v=97
312832 On ch=13 n=67 v=97
312948 Off ch=13 n=55 v=0
312948 Off ch=13 n=67 v=0
312960 On ch=13 n=55 v=91
312960 On ch=13 n=67 v=91
313076 Off ch=13 n=55 v=0
313076 Off ch=13 n=67 v=0
313088 On ch=13 n=55 v=113
313088 On ch=13 n=67 v=113
313856 Off ch=13 n=55 v=0
313856 Off ch=13 n=67 v=0
313984 On ch=13 n=55 v=103
313984 On ch=13 n=67 v=103
314100 Off ch=13 n=55 v=0
314100 Off ch=13 n=67 v=0
314112 On ch=13 n=55 v=114
314112 On ch=13 n=67 v=114
314228 Off ch=13 n=55 v=0
314228 Off ch=13 n=67 v=0
314240 On ch=13 n=55 v=112
314240 On ch=13 n=67 v=112
314356 Off ch=13 n=55 v=0
314356 Off ch=13 n=67 v=0
314368 On ch=13 n=55 v=116
314368 On ch=13 n=67 v=116
315648 Off ch=13 n=55 v=0
315648 Off ch=13 n=67 v=0
319872 On ch=13 n=55 v=101
319872 On ch=13 n=67 v=101
319988 Off ch=13 n=55 v=0
319988 Off ch=13 n=67 v=0
320000 On ch=13 n=55 v=112
320000 On ch=13 n=67 v=112
320116 Off ch=13 n=55 v=0
320116 Off ch=13 n=67 v=0
320128 On ch=13 n=55 v=114
320128 On ch=13 n=67 v=114
320244 Off ch=13 n=55 v=0
320244 Off ch=13 n=67 v=0
320256 On ch=13 n=60 v=127
320256 On ch=13 n=72 v=127
320487 Off ch=13 n=60 v=0
320487 Off ch=13 n=72 v=0
320896 On ch=13 n=55 v=104
320896 On ch=13 n=67 v=104
321012 Off ch=13 n=55 v=0
321012 Off ch=13 n=67 v=0
321024 On ch=13 n=55 v=110
321024 On ch=13 n=67 v=110
321140 Off ch=13 n=55 v=0
321140 Off ch=13 n=67 v=0
321152 On ch=13 n=55 v=115
321152 On ch=13 n=67 v=115
321268 Off ch=13 n=55 v=0
321268 Off ch=13 n=67 v=0
321280 On ch=13 n=60 v=127
321280 On ch=13 n=72 v=127
321511 Off ch=13 n=60 v=0
321511 Off ch=13 n=72 v=0
321920 On ch=13 n=55 v=102
321920 On ch=13 n=67 v=102
322036 Off ch=13 n=55 v=0
322036 Off ch=13 n=67 v=0
322048 On ch=13 n=55 v=111
322048 On ch=13 n=67 v=111
322164 Off ch=13 n=55 v=0
322164 Off ch=13 n=67 v=0
322176 On ch=13 n=55 v=112
322176 On ch=13 n=67 v=112
322292 Off ch=13 n=55 v=0
322292 Off ch=13 n=67 v=0
322304 On ch=13 n=60 v=127
322304 On ch=13 n=72 v=127
322535 Off ch=13 n=60 v=0
322535 Off ch=13 n=72 v=0
322560 On ch=13 n=55 v=104
322560 On ch=13 n=67 v=104
322791 Off ch=13 n=55 v=0
322791 Off ch=13 n=67 v=0
322816 On ch=13 n=60 v=127
322816 On ch=13 n=72 v=127
323047 Off ch=13 n=60 v=0
323047 Off ch=13 n=72 v=0
323072 On ch=13 n=55 v=102
323072 On ch=13 n=67 v=102
323303 Off ch=13 n=55 v=0
323303 Off ch=13 n=67 v=0
323328 On ch=13 n=60 v=127
323328 On ch=13 n=72 v=127
323559 Off ch=13 n=60 v=0
323559 Off ch=13 n=72 v=0
323584 On ch=13 n=55 v=99
323584 On ch=13 n=67 v=99
323815 Off ch=13 n=55 v=0
323815 Off ch=13 n=67 v=0
323840 On ch=13 n=60 v=125
323840 On ch=13 n=72 v=125
324071 Off ch=13 n=60 v=0
324071 Off ch=13 n=72 v=0
324096 On ch=13 n=55 v=97
324096 On ch=13 n=67 v=97
324327 Off ch=13 n=55 v=0
324327 Off ch=13 n=67 v=0
324352 On ch=13 n=60 v=122
324352 On ch=13 n=72 v=122
324583 Off ch=13 n=60 v=0
324583 Off ch=13 n=72 v=0
324864 On ch=13 n=55 v=98
324864 On ch=13 n=67 v=98
325095 Off ch=13 n=55 v=0
325095 Off ch=13 n=67 v=0
325376 On ch=13 n=60 v=101
325607 Off ch=13 n=60 v=0
9344 On ch=6 n=43 v=53
9460 Off ch=6 n=43 v=0
9472 On ch=6 n=43 v=68
9588 Off ch=6 n=43 v=0
9600 On ch=6 n=43 v=82
9716 Off ch=6 n=43 v=0
9728 On ch=6 n=48 v=106
9959 Off ch=6 n=48 v=0
10240 On ch=6 n=48 v=85
10471 Off ch=6 n=48 v=0
10752 On ch=6 n=43 v=89
10983 Off ch=6 n=43 v=0
22400 On ch=6 n=48 v=91
22631 Off ch=6 n=48 v=0
22912 On ch=6 n=48 v=87
23143 Off ch=6 n=48 v=0
24704 On ch=6 n=48 v=86
24820 Off ch=6 n=48 v=0
24832 On ch=6 n=48 v=94
24948 Off ch=6 n=48 v=0
24960 On ch=6 n=43 v=91
25191 Off ch=6 n=43 v=0
26752 On ch=6 n=48 v=86
26868 Off ch=6 n=48 v=0
26880 On ch=6 n=48 v=99
26996 Off ch=6 n=48 v=0
27008 On ch=6 n=48 v=116
27124 Off ch=6 n=48 v=0
27136 On ch=6 n=48 v=113
27252 Off ch=6 n=48 v=0
27264 On ch=6 n=48 v=112
27380 Off ch=6 n=48 v=0
27392 On ch=6 n=48 v=113
27508 Off ch=6 n=48 v=0
27520 On ch=6 n=48 v=115
27636 Off ch=6 n=48 v=0
27648 On ch=6 n=48 v=115
27764 Off ch=6 n=48 v=0
27776 On ch=6 n=48 v=109
27892 Off ch=6 n=48 v=0
27904 On ch=6 n=48 v=113
28020 Off ch=6 n=48 v=0
28032 On ch=6 n=48 v=111
28148 Off ch=6 n=48 v=0
28160 On ch=6 n=48 v=113
28276 Off ch=6 n=48 v=0
28288 On ch=6 n=48 v=115
28404 Off ch=6 n=48 v=0
28416 On ch=6 n=48 v=111
28532 Off ch=6 n=48 v=0
28544 On ch=6 n=48 v=110
28660 Off ch=6 n=48 v=0
28672 On ch=6 n=48 v=115
28788 Off ch=6 n=48 v=0
28800 On ch=6 n=48 v=115
28916 Off ch=6 n=48 v=0
28928 On ch=6 n=48 v=114
29044 Off ch=6 n=48 v=0
29056 On ch=6 n=48 v=116
29287 Off ch=6 n=48 v=0
50560 On ch=6 n=43 v=87
50791 Off ch=6 n=43 v=0
51072 On ch=6 n=48 v=89
51303 Off ch=6 n=48 v=0
53888 On ch=6 n=43 v=87
54119 Off ch=6 n=43 v=0
54912 On ch=6 n=43 v=85
55143 Off ch=6 n=43 v=0
55424 On ch=6 n=48 v=84
55655 Off ch=6 n=48 v=0
73728 On ch=6 n=43 v=56
73844 Off ch=6 n=43 v=0
73856 On ch=6 n=43 v=68
73972 Off ch=6 n=43 v=0
73984 On ch=6 n=43 v=79
74100 Off ch=6 n=43 v=0
74112 On ch=6 n=48 v=105
74343 Off ch=6 n=48 v=0
74624 On ch=6 n=48 v=89
74855 Off ch=6 n=48 v=0
75136 On ch=6 n=43 v=86
75367 Off ch=6 n=43 v=0
86784 On ch=6 n=48 v=86
87015 Off ch=6 n=48 v=0
87296 On ch=6 n=48 v=81
87527 Off ch=6 n=48 v=0
89088 On ch=6 n=48 v=90
89204 Off ch=6 n=48 v=0
89216 On ch=6 n=48 v=93
89332 Off ch=6 n=48 v=0
89344 On ch=6 n=43 v=91
89575 Off ch=6 n=43 v=0
91136 On ch=6 n=48 v=91
91252 Off ch=6 n=48 v=0
91264 On ch=6 n=48 v=97
91380 Off ch=6 n=48 v=0
91392 On ch=6 n=48 v=112
91508 Off ch=6 n=48 v=0
91520 On ch=6 n=48 v=112
91636 Off ch=6 n=48 v=0
91648 On ch=6 n=48 v=113
91764 Off ch=6 n=48 v=0
91776 On ch=6 n=48 v=113
91892 Off ch=6 n=48 v=0
91904 On ch=6 n=48 v=112
92020 Off ch=6 n=48 v=0
92032 On ch=6 n=48 v=116
92148 Off ch=6 n=48 v=0
92160 On ch=6 n=48 v=116
92276 Off ch=6 n=48 v=0
92288 On ch=6 n=48 v=109
92404 Off ch=6 n=48 v=0
92416 On ch=6 n=48 v=113
92532 Off ch=6 n=48 v=0
92544 On ch=6 n=48 v=109
92660 Off ch=6 n=48 v=0
92672 On ch=6 n=48 v=113
92788 Off ch=6 n=48 v=0
92800 On ch=6 n=48 v=114
92916 Off ch=6 n=48 v=0
92928 On ch=6 n=48 v=118
93044 Off ch=6 n=48 v=0
93056 On ch=6 n=48 v=118
93172 Off ch=6 n=48 v=0
93184 On ch=6 n=48 v=115
93300 Off ch=6 n=48 v=0
93312 On ch=6 n=48 v=112
93428 Off ch=6 n=48 v=0
93440 On ch=6 n=48 v=119
93671 Off ch=6 n=48 v=0
114944 On ch=6 n=43 v=92
115175 Off ch=6 n=43 v=0
115456 On ch=6 n=48 v=87
115687 Off ch=6 n=48 v=0
118272 On ch=6 n=43 v=90
118503 Off ch=6 n=43 v=0
119296 On ch=6 n=43 v=91
119527 Off ch=6 n=43 v=0
119808 On ch=6 n=48 v=90
120039 Off ch=6 n=48 v=0
145920 On ch=6 n=43 v=48
146151 Off ch=6 n=43 v=0
146944 On ch=6 n=48 v=41
147175 Off ch=6 n=48 v=0
147968 On ch=6 n=48 v=46
148199 Off ch=6 n=48 v=0
148992 On ch=6 n=43 v=43
149223 Off ch=6 n=43 v=0
150016 On ch=6 n=43 v=49
150247 Off ch=6 n=43 v=0
151040 On ch=6 n=48 v=86
151156 Off ch=6 n=48 v=0
151168 On ch=6 n=48 v=94
151284 Off ch=6 n=48 v=0
151296 On ch=6 n=48 v=98
151412 Off ch=6 n=48 v=0
151424 On ch=6 n=48 v=95
151540 Off ch=6 n=48 v=0
151552 On ch=6 n=48 v=98
151668 Off ch=6 n=48 v=0
151680 On ch=6 n=48 v=96
151796 Off ch=6 n=48 v=0
151808 On ch=6 n=48 v=101
151924 Off ch=6 n=48 v=0
151936 On ch=6 n=48 v=97
152052 Off ch=6 n=48 v=0
152064 On ch=6 n=48 v=100
152295 Off ch=6 n=48 v=0
152704 On ch=6 n=43 v=92
152820 Off ch=6 n=43 v=0
152832 On ch=6 n=43 v=95
152948 Off ch=6 n=43 v=0
152960 On ch=6 n=43 v=97
153076 Off ch=6 n=43 v=0
153088 On ch=6 n=43 v=97
153204 Off ch=6 n=43 v=0
153216 On ch=6 n=43 v=101
153332 Off ch=6 n=43 v=0
153344 On ch=6 n=43 v=92
153460 Off ch=6 n=43 v=0
153472 On ch=6 n=43 v=102
153588 Off ch=6 n=43 v=0
153600 On ch=6 n=43 v=98
153716 Off ch=6 n=43 v=0
153728 On ch=6 n=43 v=99
153844 Off ch=6 n=43 v=0
153856 On ch=6 n=43 v=96
153972 Off ch=6 n=43 v=0
153984 On ch=6 n=43 v=94
154100 Off ch=6 n=43 v=0
154112 On ch=6 n=43 v=98
154343 Off ch=6 n=43 v=0
154752 On ch=6 n=43 v=95
154868 Off ch=6 n=43 v=0
154880 On ch=6 n=43 v=104
154996 Off ch=6 n=43 v=0
155008 On ch=6 n=43 v=104
155124 Off ch=6 n=43 v=0
155136 On ch=6 n=43 v=101
155367 Off ch=6 n=43 v=0
155904 On ch=6 n=43 v=93
156020 Off ch=6 n=43 v=0
156032 On ch=6 n=43 v=107
156148 Off ch=6 n=43 v=0
156160 On ch=6 n=43 v=107
156391 Off ch=6 n=43 v=0
160768 On ch=6 n=43 v=94
160999 Off ch=6 n=43 v=0
164608 On ch=6 n=43 v=88
164724 Off ch=6 n=43 v=0
164736 On ch=6 n=43 v=104
164852 Off ch=6 n=43 v=0
164864 On ch=6 n=48 v=112
165095 Off ch=6 n=48 v=0
192128 On ch=6 n=43 v=101
192244 Off ch=6 n=43 v=0
192256 On ch=6 n=43 v=106
192372 Off ch=6 n=43 v=0
192384 On ch=6 n=43 v=113
192500 Off ch=6 n=43 v=0
192512 On ch=6 n=43 v=111
192542 Off ch=6 n=43 v=0
192550 On ch=6 n=44 v=111
192580 Off ch=6 n=44 v=0
192587 On ch=6 n=43 v=111
192616 Off ch=6 n=43 v=0
192623 On ch=6 n=44 v=111
192651 Off ch=6 n=44 v=0
192659 On ch=6 n=43 v=111
192687 Off ch=6 n=43 v=0
192694 On ch=6 n=44 v=111
192722 Off ch=6 n=44 v=0
192729 On ch=6 n=43 v=111
192757 Off ch=6 n=43 v=0
192763 On ch=6 n=44 v=111
192790 Off ch=6 n=44 v=0
192796 On ch=6 n=43 v=111
192822 Off ch=6 n=43 v=0
192829 On ch=6 n=44 v=111
192855 Off ch=6 n=44 v=0
192861 On ch=6 n=43 v=111
192886 Off ch=6 n=43 v=0
192893 On ch=6 n=44 v=111
192918 Off ch=6 n=44 v=0
192924 On ch=6 n=43 v=111
192948 Off ch=6 n=43 v=0
192956 On ch=6 n=44 v=111
192981 Off ch=6 n=44 v=0
192988 On ch=6 n=43 v=111
193013 Off ch=6 n=43 v=0
193021 On ch=6 n=44 v=111
193047 Off ch=6 n=44 v=0
193054 On ch=6 n=43 v=111
193080 Off ch=6 n=43 v=0
193088 On ch=6 n=44 v=111
193115 Off ch=6 n=44 v=0
193123 On ch=6 n=43 v=111
193151 Off ch=6 n=43 v=0
193158 On ch=6 n=44 v=111
193186 Off ch=6 n=44 v=0
193194 On ch=6 n=43 v=111
193222 Off ch=6 n=43 v=0
193231 On ch=6 n=44 v=111
193260 Off ch=6 n=44 v=0
193268 On ch=6 n=43 v=111
193279 Off ch=6 n=43 v=0
193408 On ch=6 n=43 v=98
193524 Off ch=6 n=43 v=0
193536 On ch=6 n=43 v=113
193652 Off ch=6 n=43 v=0
193664 On ch=6 n=43 v=111
193780 Off ch=6 n=43 v=0
193792 On ch=6 n=43 v=112
193838 Off ch=6 n=43 v=0
193850 On ch=6 n=44 v=112
193896 Off ch=6 n=44 v=0
193907 On ch=6 n=43 v=112
193952 Off ch=6 n=43 v=0
193963 On ch=6 n=44 v=112
194007 Off ch=6 n=44 v=0
194018 On ch=6 n=43 v=112
194062 Off ch=6 n=43 v=0
194072 On ch=6 n=44 v=112
194115 Off ch=6 n=44 v=0
194125 On ch=6 n=43 v=112
194167 Off ch=6 n=43 v=0
194177 On ch=6 n=44 v=112
194218 Off ch=6 n=44 v=0
194228 On ch=6 n=43 v=112
194268 Off ch=6 n=43 v=0
194278 On ch=6 n=44 v=112
194318 Off ch=6 n=44 v=0
194327 On ch=6 n=43 v=112
194366 Off ch=6 n=43 v=0
194375 On ch=6 n=44 v=112
194413 Off ch=6 n=44 v=0
194423 On ch=6 n=43 v=112
194461 Off ch=6 n=43 v=0
194470 On ch=6 n=44 v=112
194507 Off ch=6 n=44 v=0
194518 On ch=6 n=43 v=112
194556 Off ch=6 n=43 v=0
194567 On ch=6 n=44 v=112
194606 Off ch=6 n=44 v=0
194617 On ch=6 n=43 v=112
194657 Off ch=6 n=43 v=0
194668 On ch=6 n=44 v=112
194708 Off ch=6 n=44 v=0
194719 On ch=6 n=43 v=112
194759 Off ch=6 n=43 v=0
194771 On ch=6 n=44 v=112
194812 Off ch=6 n=44 v=0
194824 On ch=6 n=43 v=112
194866 Off ch=6 n=43 v=0
194878 On ch=6 n=44 v=112
194921 Off ch=6 n=44 v=0
194933 On ch=6 n=43 v=112
194977 Off ch=6 n=43 v=0
194989 On ch=6 n=44 v=112
195033 Off ch=6 n=44 v=0
195046 On ch=6 n=43 v=112
195071 Off ch=6 n=43 v=0
202240 On ch=6 n=48 v=64
202471 Off ch=6 n=48 v=0
202752 On ch=6 n=43 v=92
202983 Off ch=6 n=43 v=0
210176 On ch=6 n=48 v=88
210407 Off ch=6 n=48 v=0
211200 On ch=6 n=48 v=86
211431 Off ch=6 n=48 v=0
214784 On ch=6 n=48 v=85
215015 Off ch=6 n=48 v=0
215296 On ch=6 n=48 v=93
215527 Off ch=6 n=48 v=0
217088 On ch=6 n=48 v=86
217204 Off ch=6 n=48 v=0
217216 On ch=6 n=48 v=97
217332 Off ch=6 n=48 v=0
217344 On ch=6 n=43 v=93
217575 Off ch=6 n=43 v=0
219136 On ch=6 n=48 v=85
219252 Off ch=6 n=48 v=0
219264 On ch=6 n=48 v=97
219380 Off ch=6 n=48 v=0
219392 On ch=6 n=48 v=109
219508 Off ch=6 n=48 v=0
219520 On ch=6 n=48 v=112
219636 Off ch=6 n=48 v=0
219648 On ch=6 n=48 v=114
219764 Off ch=6 n=48 v=0
219776 On ch=6 n=48 v=112
219892 Off ch=6 n=48 v=0
219904 On ch=6 n=48 v=111
220020 Off ch=6 n=48 v=0
220032 On ch=6 n=48 v=115
220148 Off ch=6 n=48 v=0
220160 On ch=6 n=48 v=114
220276 Off ch=6 n=48 v=0
220288 On ch=6 n=48 v=115
220404 Off ch=6 n=48 v=0
220416 On ch=6 n=48 v=113
220532 Off ch=6 n=48 v=0
220544 On ch=6 n=48 v=113
220660 Off ch=6 n=48 v=0
220672 On ch=6 n=48 v=113
220788 Off ch=6 n=48 v=0
220800 On ch=6 n=48 v=114
220916 Off ch=6 n=48 v=0
220928 On ch=6 n=48 v=117
221044 Off ch=6 n=48 v=0
221056 On ch=6 n=48 v=113
221172 Off ch=6 n=48 v=0
221184 On ch=6 n=48 v=115
221300 Off ch=6 n=48 v=0
221312 On ch=6 n=48 v=113
221428 Off ch=6 n=48 v=0
221440 On ch=6 n=48 v=112
221671 Off ch=6 n=48 v=0
222464 On ch=6 n=43 v=99
222695 Off ch=6 n=43 v=0
228224 On ch=6 n=43 v=50
228340 Off ch=6 n=43 v=0
228352 On ch=6 n=43 v=60
228468 Off ch=6 n=43 v=0
228480 On ch=6 n=43 v=60
228596 Off ch=6 n=43 v=0
228608 On ch=6 n=48 v=69
228839 Off ch=6 n=48 v=0
232320 On ch=6 n=43 v=55
232436 Off ch=6 n=43 v=0
232448 On ch=6 n=43 v=58
232564 Off ch=6 n=43 v=0
232576 On ch=6 n=43 v=62
232692 Off ch=6 n=43 v=0
232704 On ch=6 n=48 v=68
232935 Off ch=6 n=48 v=0
244992 On ch=6 n=43 v=102
245054 Off ch=6 n=43 v=0
245067 On ch=6 n=44 v=102
245127 Off ch=6 n=44 v=0
245139 On ch=6 n=43 v=102
245196 Off ch=6 n=43 v=0
245209 On ch=6 n=44 v=102
245265 Off ch=6 n=44 v=0
245276 On ch=6 n=43 v=102
245329 Off ch=6 n=43 v=0
245340 On ch=6 n=44 v=102
245391 Off ch=6 n=44 v=0
245404 On ch=6 n=43 v=102
245455 Off ch=6 n=43 v=0
245471 On ch=6 n=44 v=102
245524 Off ch=6 n=44 v=0
245541 On ch=6 n=43 v=102
245597 Off ch=6 n=43 v=0
245613 On ch=6 n=44 v=102
245670 Off ch=6 n=44 v=0
245688 On ch=6 n=43 v=102
245734 Off ch=6 n=43 v=0
245760 On ch=6 n=43 v=111
245991 Off ch=6 n=43 v=0
246016 On ch=6 n=48 v=118
246247 Off ch=6 n=48 v=0
246528 On ch=6 n=43 v=103
246759 Off ch=6 n=43 v=0
247040 On ch=6 n=48 v=103
247271 Off ch=6 n=48 v=0
247552 On ch=6 n=48 v=104
247783 Off ch=6 n=48 v=0
248064 On ch=6 n=43 v=102
248295 Off ch=6 n=43 v=0
248576 On ch=6 n=43 v=110
248807 Off ch=6 n=43 v=0
249088 On ch=6 n=43 v=104
249150 Off ch=6 n=43 v=0
249164 On ch=6 n=44 v=104
249224 Off ch=6 n=44 v=0
249238 On ch=6 n=43 v=104
249297 Off ch=6 n=43 v=0
249310 On ch=6 n=44 v=104
249367 Off ch=6 n=44 v=0
249379 On ch=6 n=43 v=104
249434 Off ch=6 n=43 v=0
249446 On ch=6 n=44 v=104
249499 Off ch=6 n=44 v=0
249511 On ch=6 n=43 v=104
249563 Off ch=6 n=43 v=0
249574 On ch=6 n=44 v=104
249624 Off ch=6 n=44 v=0
249638 On ch=6 n=43 v=104
249689 Off ch=6 n=43 v=0
249704 On ch=6 n=44 v=104
249756 Off ch=6 n=44 v=0
249773 On ch=6 n=43 v=104
249828 Off ch=6 n=43 v=0
249844 On ch=6 n=44 v=104
249900 Off ch=6 n=44 v=0
249917 On ch=6 n=43 v=104
249975 Off ch=6 n=43 v=0
249992 On ch=6 n=44 v=104
250052 Off ch=6 n=44 v=0
250112 On ch=6 n=48 v=125
250343 Off ch=6 n=48 v=0
250368 On ch=6 n=48 v=112
250599 Off ch=6 n=48 v=0
250880 On ch=6 n=43 v=100
251111 Off ch=6 n=43 v=0
251392 On ch=6 n=48 v=103
251623 Off ch=6 n=48 v=0
251904 On ch=6 n=48 v=100
252135 Off ch=6 n=48 v=0
252416 On ch=6 n=43 v=102
252647 Off ch=6 n=43 v=0
252928 On ch=6 n=43 v=105
253159 Off ch=6 n=43 v=0
253184 On ch=6 n=48 v=122
253415 Off ch=6 n=48 v=0
254848 On ch=6 n=43 v=102
254964 Off ch=6 n=43 v=0
254976 On ch=6 n=43 v=114
255092 Off ch=6 n=43 v=0
255104 On ch=6 n=43 v=111
255220 Off ch=6 n=43 v=0
255232 On ch=6 n=48 v=122
255463 Off ch=6 n=48 v=0
256896 On ch=6 n=43 v=100
257012 Off ch=6 n=43 v=0
257024 On ch=6 n=43 v=113
257140 Off ch=6 n=43 v=0
257152 On ch=6 n=43 v=112
257268 Off ch=6 n=43 v=0
257280 On ch=6 n=48 v=119
257511 Off ch=6 n=48 v=0
257920 On ch=6 n=43 v=102
258036 Off ch=6 n=43 v=0
258048 On ch=6 n=43 v=109
258164 Off ch=6 n=43 v=0
258176 On ch=6 n=43 v=114
258292 Off ch=6 n=43 v=0
258304 On ch=6 n=48 v=117
258535 Off ch=6 n=48 v=0
258944 On ch=6 n=43 v=100
259060 Off ch=6 n=43 v=0
259072 On ch=6 n=43 v=111
259188 Off ch=6 n=43 v=0
259200 On ch=6 n=43 v=114
259316 Off ch=6 n=43 v=0
259328 On ch=6 n=48 v=122
259444 Off ch=6 n=48 v=0
259456 On ch=6 n=48 v=117
259572 Off ch=6 n=48 v=0
259584 On ch=6 n=48 v=114
259700 Off ch=6 n=48 v=0
259712 On ch=6 n=48 v=120
259828 Off ch=6 n=48 v=0
259840 On ch=6 n=48 v=114
260071 Off ch=6 n=48 v=0
260480 On ch=6 n=48 v=104
260596 Off ch=6 n=48 v=0
260608 On ch=6 n=48 v=108
260724 Off ch=6 n=48 v=0
260736 On ch=6 n=48 v=114
260852 Off ch=6 n=48 v=0
260864 On ch=6 n=48 v=113
261095 Off ch=6 n=48 v=0
261504 On ch=6 n=48 v=102
261620 Off ch=6 n=48 v=0
261632 On ch=6 n=48 v=111
261748 Off ch=6 n=48 v=0
261760 On ch=6 n=48 v=115
261876 Off ch=6 n=48 v=0
261888 On ch=6 n=48 v=111
262119 Off ch=6 n=48 v=0
262528 On ch=6 n=48 v=102
262644 Off ch=6 n=48 v=0
262656 On ch=6 n=48 v=112
262772 Off ch=6 n=48 v=0
262784 On ch=6 n=48 v=111
262900 Off ch=6 n=48 v=0
262912 On ch=6 n=48 v=118
263143 Off ch=6 n=48 v=0
267648 On ch=6 n=48 v=99
267764 Off ch=6 n=48 v=0
267776 On ch=6 n=48 v=112
267892 Off ch=6 n=48 v=0
267904 On ch=6 n=48 v=114
268020 Off ch=6 n=48 v=0
268032 On ch=6 n=48 v=113
268148 Off ch=6 n=48 v=0
268160 On ch=6 n=48 v=116
268276 Off ch=6 n=48 v=0
268288 On ch=6 n=48 v=114
268404 Off ch=6 n=48 v=0
268416 On ch=6 n=48 v=110
268532 Off ch=6 n=48 v=0
268544 On ch=6 n=48 v=112
268660 Off ch=6 n=48 v=0
268672 On ch=6 n=48 v=117
268788 Off ch=6 n=48 v=0
268800 On ch=6 n=48 v=111
268916 Off ch=6 n=48 v=0
268928 On ch=6 n=48 v=112
269044 Off ch=6 n=48 v=0
269056 On ch=6 n=48 v=112
269172 Off ch=6 n=48 v=0
269184 On ch=6 n=48 v=111
269300 Off ch=6 n=48 v=0
269312 On ch=6 n=48 v=114
269428 Off ch=6 n=48 v=0
269440 On ch=6 n=48 v=112
269556 Off ch=6 n=48 v=0
269568 On ch=6 n=48 v=115
269684 Off ch=6 n=48 v=0
269696 On ch=6 n=48 v=111
269812 Off ch=6 n=48 v=0
269824 On ch=6 n=48 v=116
269940 Off ch=6 n=48 v=0
269952 On ch=6 n=48 v=111
270068 Off ch=6 n=48 v=0
270080 On ch=6 n=48 v=115
270311 Off ch=6 n=48 v=0
270720 On ch=6 n=48 v=99
270836 Off ch=6 n=48 v=0
270848 On ch=6 n=48 v=113
270964 Off ch=6 n=48 v=0
270976 On ch=6 n=48 v=117
271092 Off ch=6 n=48 v=0
271104 On ch=6 n=48 v=117
271335 Off ch=6 n=48 v=0
272128 On ch=6 n=43 v=108
272359 Off ch=6 n=43 v=0
274176 On ch=6 n=43 v=104
274407 Off ch=6 n=43 v=0
280576 On ch=6 n=43 v=99
280807 Off ch=6 n=43 v=0
280832 On ch=6 n=43 v=110
281063 Off ch=6 n=43 v=0
281088 On ch=6 n=43 v=112
281319 Off ch=6 n=43 v=0
281344 On ch=6 n=43 v=111
281575 Off ch=6 n=43 v=0
281600 On ch=6 n=43 v=114
281831 Off ch=6 n=43 v=0
281856 On ch=6 n=43 v=110
282087 Off ch=6 n=43 v=0
282112 On ch=6 n=48 v=118
282343 Off ch=6 n=48 v=0
282368 On ch=6 n=48 v=118
282599 Off ch=6 n=48 v=0
282624 On ch=6 n=48 v=114
282855 Off ch=6 n=48 v=0
282880 On ch=6 n=48 v=111
283111 Off ch=6 n=48 v=0
283136 On ch=6 n=43 v=105
283367 Off ch=6 n=43 v=0
283392 On ch=6 n=43 v=112
283623 Off ch=6 n=43 v=0
283648 On ch=6 n=43 v=117
283879 Off ch=6 n=43 v=0
283904 On ch=6 n=43 v=114
284135 Off ch=6 n=43 v=0
284160 On ch=6 n=43 v=114
284391 Off ch=6 n=43 v=0
284416 On ch=6 n=48 v=122
284532 Off ch=6 n=48 v=0
284544 On ch=6 n=48 v=116
284660 Off ch=6 n=48 v=0
284672 On ch=6 n=48 v=112
284788 Off ch=6 n=48 v=0
284800 On ch=6 n=48 v=113
284916 Off ch=6 n=48 v=0
284928 On ch=6 n=48 v=112
285159 Off ch=6 n=48 v=0
285440 On ch=6 n=48 v=102
285556 Off ch=6 n=48 v=0
285568 On ch=6 n=48 v=114
285684 Off ch=6 n=48 v=0
285696 On ch=6 n=48 v=116
285812 Off ch=6 n=48 v=0
285824 On ch=6 n=48 v=109
285940 Off ch=6 n=48 v=0
285952 On ch=6 n=48 v=112
286183 Off ch=6 n=48 v=0
286464 On ch=6 n=48 v=99
286580 Off ch=6 n=48 v=0
286592 On ch=6 n=48 v=109
286708 Off ch=6 n=48 v=0
286720 On ch=6 n=48 v=117
286836 Off ch=6 n=48 v=0
286848 On ch=6 n=48 v=110
286964 Off ch=6 n=48 v=0
286976 On ch=6 n=48 v=113
287207 Off ch=6 n=48 v=0
287488 On ch=6 n=48 v=103
287604 Off ch=6 n=48 v=0
287616 On ch=6 n=48 v=114
287732 Off ch=6 n=48 v=0
287744 On ch=6 n=48 v=113
287860 Off ch=6 n=48 v=0
287872 On ch=6 n=48 v=112
287988 Off ch=6 n=48 v=0
288000 On ch=6 n=48 v=115
288231 Off ch=6 n=48 v=0
288512 On ch=6 n=43 v=100
288628 Off ch=6 n=43 v=0
288640 On ch=6 n=43 v=111
288756 Off ch=6 n=43 v=0
288768 On ch=6 n=43 v=115
288884 Off ch=6 n=43 v=0
288896 On ch=6 n=43 v=115
289012 Off ch=6 n=43 v=0
289024 On ch=6 n=43 v=112
289255 Off ch=6 n=43 v=0
289536 On ch=6 n=48 v=104
289651 Off ch=6 n=48 v=0
290048 On ch=6 n=48 v=105
290163 Off ch=6 n=48 v=0
290560 On ch=6 n=48 v=101
290675 Off ch=6 n=48 v=0
291072 On ch=6 n=48 v=100
291187 Off ch=6 n=48 v=0
291584 On ch=6 n=43 v=99
291699 Off ch=6 n=43 v=0
292096 On ch=6 n=43 v=103
292211 Off ch=6 n=43 v=0
292608 On ch=6 n=48 v=99
292723 Off ch=6 n=48 v=0
293120 On ch=6 n=48 v=104
293351 Off ch=6 n=48 v=0
293376 On ch=6 n=48 v=111
293607 Off ch=6 n=48 v=0
293632 On ch=6 n=48 v=114
293863 Off ch=6 n=48 v=0
294144 On ch=6 n=48 v=101
294375 Off ch=6 n=48 v=0
294400 On ch=6 n=48 v=114
294631 Off ch=6 n=48 v=0
294656 On ch=6 n=48 v=116
294887 Off ch=6 n=48 v=0
295168 On ch=6 n=48 v=100
295399 Off ch=6 n=48 v=0
295424 On ch=6 n=48 v=112
295655 Off ch=6 n=48 v=0
295680 On ch=6 n=48 v=116
295911 Off ch=6 n=48 v=0
296192 On ch=6 n=43 v=102
296423 Off ch=6 n=43 v=0
296448 On ch=6 n=43 v=114
296679 Off ch=6 n=43 v=0
296704 On ch=6 n=43 v=113
296935 Off ch=6 n=43 v=0
298240 On ch=6 n=43 v=100
298471 Off ch=6 n=43 v=0
298496 On ch=6 n=43 v=109
298727 Off ch=6 n=43 v=0
298752 On ch=6 n=43 v=117
298983 Off ch=6 n=43 v=0
301312 On ch=6 n=48 v=103
301543 Off ch=6 n=48 v=0
301568 On ch=6 n=48 v=111
301799 Off ch=6 n=48 v=0
302336 On ch=6 n=48 v=111
302567 Off ch=6 n=48 v=0
302592 On ch=6 n=48 v=107
302823 Off ch=6 n=48 v=0
303104 On ch=6 n=43 v=101
303335 Off ch=6 n=43 v=0
303616 On ch=6 n=43 v=101
303847 Off ch=6 n=43 v=0
304896 On ch=6 n=48 v=113
305127 Off ch=6 n=48 v=0
305152 On ch=6 n=48 v=115
305383 Off ch=6 n=48 v=0
305408 On ch=6 n=48 v=111
305639 Off ch=6 n=48 v=0
305664 On ch=6 n=48 v=118
305895 Off ch=6 n=48 v=0
305920 On ch=6 n=48 v=117
306151 Off ch=6 n=48 v=0
306176 On ch=6 n=48 v=113
306407 Off ch=6 n=48 v=0
306432 On ch=6 n=48 v=107
306663 Off ch=6 n=48 v=0
306688 On ch=6 n=48 v=108
306919 Off ch=6 n=48 v=0
307200 On ch=6 n=43 v=99
307431 Off ch=6 n=43 v=0
307712 On ch=6 n=43 v=104
307943 Off ch=6 n=43 v=0
307968 On ch=6 n=48 v=119
308199 Off ch=6 n=48 v=0
310656 On ch=6 n=43 v=102
310772 Off ch=6 n=43 v=0
310784 On ch=6 n=43 v=111
310900 Off ch=6 n=43 v=0
310912 On ch=6 n=43 v=108
311028 Off ch=6 n=43 v=0
311040 On ch=6 n=48 v=121
311271 Off ch=6 n=48 v=0
312704 On ch=6 n=43 v=100
312820 Off ch=6 n=43 v=0
312832 On ch=6 n=43 v=110
312948 Off ch=6 n=43 v=0
312960 On ch=6 n=43 v=116
313076 Off ch=6 n=43 v=0
313088 On ch=6 n=43 v=112
313118 Off ch=6 n=43 v=0
313126 On ch=6 n=44 v=112
313156 Off ch=6 n=44 v=0
313163 On ch=6 n=43 v=112
313192 Off ch=6 n=43 v=0
313199 On ch=6 n=44 v=112
313227 Off ch=6 n=44 v=0
313235 On ch=6 n=43 v=112
313263 Off ch=6 n=43 v=0
313270 On ch=6 n=44 v=112
313298 Off ch=6 n=44 v=0
313305 On ch=6 n=43 v=112
313333 Off ch=6 n=43 v=0
313339 On ch=6 n=44 v=112
313366 Off ch=6 n=44 v=0
313372 On ch=6 n=43 v=112
313398 Off ch=6 n=43 v=0
313405 On ch=6 n=44 v=112
313431 Off ch=6 n=44 v=0
313437 On ch=6 n=43 v=112
313462 Off ch=6 n=43 v=0
313469 On ch=6 n=44 v=112
313494 Off ch=6 n=44 v=0
313500 On ch=6 n=43 v=112
313524 Off ch=6 n=43 v=0
313532 On ch=6 n=44 v=112
313557 Off ch=6 n=44 v=0
313564 On ch=6 n=43 v=112
313589 Off ch=6 n=43 v=0
313597 On ch=6 n=44 v=112
313623 Off ch=6 n=44 v=0
313630 On ch=6 n=43 v=112
313656 Off ch=6 n=43 v=0
313664 On ch=6 n=44 v=112
313691 Off ch=6 n=44 v=0
313699 On ch=6 n=43 v=112
313727 Off ch=6 n=43 v=0
313734 On ch=6 n=44 v=112
313762 Off ch=6 n=44 v=0
313770 On ch=6 n=43 v=112
313798 Off ch=6 n=43 v=0
313807 On ch=6 n=44 v=112
313836 Off ch=6 n=44 v=0
313844 On ch=6 n=43 v=112
313855 Off ch=6 n=43 v=0
313984 On ch=6 n=43 v=101
314100 Off ch=6 n=43 v=0
314112 On ch=6 n=43 v=107
314228 Off ch=6 n=43 v=0
314240 On ch=6 n=43 v=112
314356 Off ch=6 n=43 v=0
314368 On ch=6 n=43 v=115
314398 Off ch=6 n=43 v=0
314406 On ch=6 n=44 v=115
314436 Off ch=6 n=44 v=0
314444 On ch=6 n=43 v=115
314474 Off ch=6 n=43 v=0
314481 On ch=6 n=44 v=115
314510 Off ch=6 n=44 v=0
314518 On ch=6 n=43 v=115
314547 Off ch=6 n=43 v=0
314554 On ch=6 n=44 v=115
314582 Off ch=6 n=44 v=0
314590 On ch=6 n=43 v=115
314618 Off ch=6 n=43 v=0
314626 On ch=6 n=44 v=115
314654 Off ch=6 n=44 v=0
314661 On ch=6 n=43 v=115
314689 Off ch=6 n=43 v=0
314696 On ch=6 n=44 v=115
314724 Off ch=6 n=44 v=0
314731 On ch=6 n=43 v=115
314759 Off ch=6 n=43 v=0
314765 On ch=6 n=44 v=115
314792 Off ch=6 n=44 v=0
314799 On ch=6 n=43 v=115
314826 Off ch=6 n=43 v=0
314832 On ch=6 n=44 v=115
314858 Off ch=6 n=44 v=0
314865 On ch=6 n=43 v=115
314891 Off ch=6 n=43 v=0
314898 On ch=6 n=44 v=115
314924 Off ch=6 n=44 v=0
314930 On ch=6 n=43 v=115
314955 Off ch=6 n=43 v=0
314962 On ch=6 n=44 v=115
314987 Off ch=6 n=44 v=0
314994 On ch=6 n=43 v=115
315019 Off ch=6 n=43 v=0
315025 On ch=6 n=44 v=115
315049 Off ch=6 n=44 v=0
315056 On ch=6 n=43 v=115
315080 Off ch=6 n=43 v=0
315087 On ch=6 n=44 v=115
315111 Off ch=6 n=44 v=0
315119 On ch=6 n=43 v=115
315144 Off ch=6 n=43 v=0
315151 On ch=6 n=44 v=115
315176 Off ch=6 n=44 v=0
315183 On ch=6 n=43 v=115
315208 Off ch=6 n=43 v=0
315216 On ch=6 n=44 v=115
315242 Off ch=6 n=44 v=0
315249 On ch=6 n=43 v=115
315275 Off ch=6 n=43 v=0
315282 On ch=6 n=44 v=115
315308 Off ch=6 n=44 v=0
315316 On ch=6 n=43 v=115
315343 Off ch=6 n=43 v=0
315350 On ch=6 n=44 v=115
315377 Off ch=6 n=44 v=0
315385 On ch=6 n=43 v=115
315413 Off ch=6 n=43 v=0
315420 On ch=6 n=44 v=115
315448 Off ch=6 n=44 v=0
315455 On ch=6 n=43 v=115
315483 Off ch=6 n=43 v=0
315491 On ch=6 n=44 v=115
315519 Off ch=6 n=44 v=0
315527 On ch=6 n=43 v=115
315555 Off ch=6 n=43 v=0
315564 On ch=6 n=44 v=115
315593 Off ch=6 n=44 v=0
315601 On ch=6 n=43 v=115
315630 Off ch=6 n=43 v=0
315638 On ch=6 n=44 v=115
315647 Off ch=6 n=44 v=0
319872 On ch=6 n=43 v=102
319988 Off ch=6 n=43 v=0
320000 On ch=6 n=43 v=113
320116 Off ch=6 n=43 v=0
320128 On ch=6 n=43 v=115
320244 Off ch=6 n=43 v=0
320256 On ch=6 n=48 v=117
320487 Off ch=6 n=48 v=0
320896 On ch=6 n=43 v=101
321012 Off ch=6 n=43 v=0
321024 On ch=6 n=43 v=114
321140 Off ch=6 n=43 v=0
321152 On ch=6 n=43 v=112
321268 Off ch=6 n=43 v=0
321280 On ch=6 n=48 v=119
321511 Off ch=6 n=48 v=0
321920 On ch=6 n=43 v=103
322036 Off ch=6 n=43 v=0
322048 On ch=6 n=43 v=112
322164 Off ch=6 n=43 v=0
322176 On ch=6 n=43 v=113
322292 Off ch=6 n=43 v=0
322304 On ch=6 n=48 v=118
322535 Off ch=6 n=48 v=0
322560 On ch=6 n=43 v=103
322791 Off ch=6 n=43 v=0
322816 On ch=6 n=48 v=118
323047 Off ch=6 n=48 v=0
323072 On ch=6 n=43 v=106
323303 Off ch=6 n=43 v=0
323328 On ch=6 n=48 v=124
323559 Off ch=6 n=48 v=0
323584 On ch=6 n=43 v=108
323815 Off ch=6 n=43 v=0
323840 On ch=6 n=48 v=120
324071 Off ch=6 n=48 v=0
324096 On ch=6 n=43 v=104
324327 Off ch=6 n=43 v=0
324352 On ch=6 n=48 v=126
324583 Off ch=6 n=48 v=0
324864 On ch=6 n=43 v=100
325095 Off ch=6 n=43 v=0
325376 On ch=6 n=48 v=103
325607 Off ch=6 n=48 v=0
128 On ch=7 n=67 v=100
244 Off ch=7 n=67 v=0
256 On ch=7 n=67 v=109
372 Off ch=7 n=67 v=0
384 On ch=7 n=67 v=116
500 Off ch=7 n=67 v=0
512 On ch=7 n=63 v=104
1280 Off ch=7 n=63 v=0
1408 On ch=7 n=65 v=101
1524 Off ch=7 n=65 v=0
1536 On ch=7 n=65 v=106
1652 Off ch=7 n=65 v=0
1664 On ch=7 n=65 v=114
1780 Off ch=7 n=65 v=0
1792 On ch=7 n=62 v=98
3072 Off ch=7 n=62 v=0
4224 On ch=7 n=75 v=57
4340 Off ch=7 n=75 v=0
4352 On ch=7 n=75 v=60
4468 Off ch=7 n=75 v=0
4480 On ch=7 n=75 v=57
4596 Off ch=7 n=75 v=0
4608 On ch=7 n=72 v=57
5351 Off ch=7 n=72 v=0
6272 On ch=7 n=77 v=53
6388 Off ch=7 n=77 v=0
6400 On ch=7 n=77 v=62
6516 Off ch=7 n=77 v=0
6528 On ch=7 n=77 v=62
6644 Off ch=7 n=77 v=0
6656 On ch=7 n=74 v=53
7284 Off ch=7 n=74 v=0
7296 On ch=7 n=79 v=67
7412 Off ch=7 n=79 v=0
7424 On ch=7 n=79 v=60
7540 Off ch=7 n=79 v=0
7552 On ch=7 n=77 v=56
7668 Off ch=7 n=77 v=0
7680 On ch=7 n=75 v=52
8141 Off ch=7 n=75 v=0
8192 On ch=7 n=74 v=57
8308 Off ch=7 n=74 v=0
8320 On ch=7 n=79 v=70
8436 Off ch=7 n=79 v=0
8448 On ch=7 n=79 v=62
8564 Off ch=7 n=79 v=0
8576 On ch=7 n=77 v=61
8692 Off ch=7 n=77 v=0
8704 On ch=7 n=75 v=54
9165 Off ch=7 n=75 v=0
9216 On ch=7 n=74 v=57
9332 Off ch=7 n=74 v=0
9344 On ch=7 n=79 v=67
9460 Off ch=7 n=79 v=0
9472 On ch=7 n=79 v=73
9588 Off ch=7 n=79 v=0
9600 On ch=7 n=77 v=75
9716 Off ch=7 n=77 v=0
9728 On ch=7 n=75 v=89
9959 Off ch=7 n=75 v=0
10210 On ch=7 n=56 v=87
10225 On ch=7 n=66 v=87
10240 Off ch=7 n=56 v=0
10240 On ch=7 n=72 v=87
10456 Off ch=7 n=66 v=0
10471 Off ch=7 n=72 v=0
10722 On ch=7 n=55 v=70
10722 On ch=7 n=62 v=70
10737 On ch=7 n=71 v=70
10752 On ch=7 n=79 v=91
10752 Off ch=7 n=55 v=0
10752 Off ch=7 n=62 v=0
10968 Off ch=7 n=71 v=0
11392 Off ch=7 n=79 v=0
11520 On ch=7 n=68 v=87
11636 Off ch=7 n=68 v=0
11648 On ch=7 n=68 v=100
11764 Off ch=7 n=68 v=0
11776 On ch=7 n=68 v=98
11892 Off ch=7 n=68 v=0
11904 On ch=7 n=65 v=83
13184 Off ch=7 n=65 v=0
13312 On ch=7 n=68 v=57
13428 Off ch=7 n=68 v=0
13440 On ch=7 n=68 v=63
13556 Off ch=7 n=68 v=0
13568 On ch=7 n=68 v=57
13684 Off ch=7 n=68 v=0
13696 On ch=7 n=65 v=54
15181 Off ch=7 n=65 v=0
15232 On ch=7 n=63 v=55
15348 Off ch=7 n=63 v=0
15360 On ch=7 n=68 v=70
15476 Off ch=7 n=68 v=0
15488 On ch=7 n=68 v=63
15604 Off ch=7 n=68 v=0
15616 On ch=7 n=68 v=59
15732 Off ch=7 n=68 v=0
15744 On ch=7 n=65 v=57
17229 Off ch=7 n=65 v=0
17280 On ch=7 n=63 v=59
17396 Off ch=7 n=63 v=0
17408 On ch=7 n=67 v=67
17524 Off ch=7 n=67 v=0
17536 On ch=7 n=72 v=70
17652 Off ch=7 n=72 v=0
17664 On ch=7 n=72 v=63
17780 Off ch=7 n=72 v=0
17792 On ch=7 n=72 v=65
18253 Off ch=7 n=72 v=0
18304 On ch=7 n=71 v=57
18420 Off ch=7 n=71 v=0
18432 On ch=7 n=71 v=66
18548 Off ch=7 n=71 v=0
18560 On ch=7 n=71 v=68
18676 Off ch=7 n=71 v=0
18688 On ch=7 n=74 v=73
18804 Off ch=7 n=74 v=0
18816 On ch=7 n=74 v=71
19277 Off ch=7 n=74 v=0
19328 On ch=7 n=72 v=67
19444 Off ch=7 n=72 v=0
19456 On ch=7 n=72 v=75
19572 Off ch=7 n=72 v=0
19584 On ch=7 n=72 v=71
19700 Off ch=7 n=72 v=0
19712 On ch=7 n=75 v=79
19828 Off ch=7 n=75 v=0
19840 On ch=7 n=75 v=89
19968 On ch=7 n=74 v=71
19970 Off ch=7 n=75 v=0
20089 Off ch=7 n=74 v=0
20096 On ch=7 n=74 v=83
20154 Off ch=7 n=74 v=0
20224 On ch=7 n=77 v=86
20282 Off ch=7 n=77 v=0
20352 On ch=7 n=77 v=96
20480 On ch=7 n=76 v=90
20482 Off ch=7 n=77 v=0
20601 Off ch=7 n=76 v=0
20608 On ch=7 n=76 v=80
20666 Off ch=7 n=76 v=0
20736 On ch=7 n=79 v=91
20794 Off ch=7 n=79 v=0
20864 On ch=7 n=79 v=103
20992 On ch=7 n=77 v=80
20994 Off ch=7 n=79 v=0
21113 Off ch=7 n=77 v=0
21120 On ch=7 n=77 v=85
21178 Off ch=7 n=77 v=0
21248 On ch=7 n=80 v=95
21306 Off ch=7 n=80 v=0
21376 On ch=7 n=80 v=106
21504 On ch=7 n=79 v=85
21506 Off ch=7 n=80 v=0
21625 Off ch=7 n=79 v=0
21632 On ch=7 n=79 v=89
21690 Off ch=7 n=79 v=0
21760 On ch=7 n=82 v=98
21818 Off ch=7 n=82 v=0
21888 On ch=7 n=82 v=104
22016 On ch=7 n=80 v=89
22018 Off ch=7 n=82 v=0
22137 Off ch=7 n=80 v=0
22144 On ch=7 n=80 v=91
22202 Off ch=7 n=80 v=0
22272 On ch=7 n=84 v=100
22330 Off ch=7 n=84 v=0
22400 On ch=7 n=84 v=111
22528 On ch=7 n=83 v=90
22530 Off ch=7 n=84 v=0
22649 Off ch=7 n=83 v=0
22656 On ch=7 n=83 v=98
22714 Off ch=7 n=83 v=0
22784 On ch=7 n=86 v=105
22842 Off ch=7 n=86 v=0
22912 On ch=7 n=84 v=90
23028 Off ch=7 n=84 v=0
23040 On ch=7 n=87 v=107
23156 Off ch=7 n=87 v=0
23168 On ch=7 n=87 v=103
23284 Off ch=7 n=87 v=0
23296 On ch=7 n=87 v=94
23412 Off ch=7 n=87 v=0
23424 On ch=7 n=84 v=90
23540 Off ch=7 n=84 v=0
23552 On ch=7 n=79 v=86
23668 Off ch=7 n=79 v=0
23680 On ch=7 n=79 v=90
23796 Off ch=7 n=79 v=0
23808 On ch=7 n=79 v=102
23924 Off ch=7 n=79 v=0
23936 On ch=7 n=75 v=85
24052 Off ch=7 n=75 v=0
24064 On ch=7 n=72 v=84
24180 Off ch=7 n=72 v=0
24192 On ch=7 n=67 v=82
24308 Off ch=7 n=67 v=0
24320 On ch=7 n=67 v=95
24436 Off ch=7 n=67 v=0
24448 On ch=7 n=63 v=88
24564 Off ch=7 n=63 v=0
24576 On ch=7 n=60 v=91
24692 Off ch=7 n=60 v=0
24704 On ch=7 n=60 v=94
24820 Off ch=7 n=60 v=0
24832 On ch=7 n=60 v=102
24948 Off ch=7 n=60 v=0
24960 On ch=7 n=59 v=94
25076 Off ch=7 n=59 v=0
25088 On ch=7 n=89 v=127
25204 Off ch=7 n=89 v=0
25216 On ch=7 n=86 v=94
25332 Off ch=7 n=86 v=0
25344 On ch=7 n=86 v=99
25460 Off ch=7 n=86 v=0
25472 On ch=7 n=83 v=95
25588 Off ch=7 n=83 v=0
25600 On ch=7 n=79 v=84
25716 Off ch=7 n=79 v=0
25728 On ch=7 n=77 v=88
25844 Off ch=7 n=77 v=0
25856 On ch=7 n=77 v=94
25972 Off ch=7 n=77 v=0
25984 On ch=7 n=74 v=89
26100 Off ch=7 n=74 v=0
26112 On ch=7 n=71 v=95
26228 Off ch=7 n=71 v=0
26240 On ch=7 n=67 v=88
26356 Off ch=7 n=67 v=0
26368 On ch=7 n=65 v=88
26484 Off ch=7 n=65 v=0
26496 On ch=7 n=62 v=88
26612 Off ch=7 n=62 v=0
26624 On ch=7 n=59 v=91
26740 Off ch=7 n=59 v=0
26752 On ch=7 n=60 v=101
26868 Off ch=7 n=60 v=0
26880 On ch=7 n=60 v=99
26996 Off ch=7 n=60 v=0
27008 On ch=7 n=60 v=114
27124 Off ch=7 n=60 v=0
27136 On ch=7 n=87 v=127
27252 Off ch=7 n=87 v=0
27264 On ch=7 n=87 v=118
27380 Off ch=7 n=87 v=0
27392 On ch=7 n=87 v=112
27508 Off ch=7 n=87 v=0
27520 On ch=7 n=84 v=103
27636 Off ch=7 n=84 v=0
27648 On ch=7 n=81 v=104
27764 Off ch=7 n=81 v=0
27776 On ch=7 n=81 v=111
27892 Off ch=7 n=81 v=0
27904 On ch=7 n=81 v=110
28020 Off ch=7 n=81 v=0
28032 On ch=7 n=78 v=102
28148 Off ch=7 n=78 v=0
28160 On ch=7 n=75 v=106
28276 Off ch=7 n=75 v=0
28288 On ch=7 n=75 v=109
28404 Off ch=7 n=75 v=0
28416 On ch=7 n=75 v=120
28532 Off ch=7 n=75 v=0
28544 On ch=7 n=72 v=105
28660 Off ch=7 n=72 v=0
28672 On ch=7 n=57 v=101
28672 On ch=7 n=69 v=101
28788 Off ch=7 n=57 v=0
28788 Off ch=7 n=69 v=0
28800 On ch=7 n=57 v=113
28800 On ch=7 n=69 v=113
28916 Off ch=7 n=57 v=0
28916 Off ch=7 n=69 v=0
28928 On ch=7 n=57 v=114
28928 On ch=7 n=69 v=114
29044 Off ch=7 n=57 v=0
29044 Off ch=7 n=69 v=0
29056 On ch=7 n=57 v=111
29056 On ch=7 n=69 v=111
29287 Off ch=7 n=57 v=0
29287 Off ch=7 n=69 v=0
30050 On ch=7 n=58 v=100
30065 On ch=7 n=65 v=100
30080 Off ch=7 n=58 v=0
30080 On ch=7 n=70 v=100
30296 Off ch=7 n=65 v=0
30311 Off ch=7 n=70 v=0
32640 On ch=7 n=70 v=55
32896 On ch=7 n=75 v=59
32901 Off ch=7 n=70 v=0
33152 On ch=7 n=74 v=60
33157 Off ch=7 n=75 v=0
33408 On ch=7 n=75 v=64
33413 Off ch=7 n=74 v=0
33664 On ch=7 n=77 v=63
33669 Off ch=7 n=75 v=0
33920 On ch=7 n=72 v=55
33925 Off ch=7 n=77 v=0
34163 Off ch=7 n=72 v=0
34176 On ch=7 n=72 v=61
34432 On ch=7 n=70 v=57
34437 Off ch=7 n=72 v=0
34675 Off ch=7 n=70 v=0
36736 On ch=7 n=70 v=62
36992 On ch=7 n=75 v=70
36997 Off ch=7 n=70 v=0
37248 On ch=7 n=74 v=59
37253 Off ch=7 n=75 v=0
37504 On ch=7 n=75 v=61
37509 Off ch=7 n=74 v=0
37760 On ch=7 n=77 v=68
37765 Off ch=7 n=75 v=0
38016 On ch=7 n=72 v=60
38021 Off ch=7 n=77 v=0
38259 Off ch=7 n=72 v=0
38272 On ch=7 n=72 v=60
38528 On ch=7 n=70 v=54
38533 Off ch=7 n=72 v=0
38771 Off ch=7 n=70 v=0
38784 On ch=7 n=70 v=59
39040 On ch=7 n=72 v=62
39045 Off ch=7 n=70 v=0
39296 On ch=7 n=73 v=64
39301 Off ch=7 n=72 v=0
39552 On ch=7 n=72 v=67
39557 Off ch=7 n=73 v=0
39795 Off ch=7 n=72 v=0
39808 On ch=7 n=70 v=58
40064 On ch=7 n=72 v=61
40069 Off ch=7 n=70 v=0
40320 On ch=7 n=70 v=60
40325 Off ch=7 n=72 v=0
40576 On ch=7 n=68 v=56
40581 Off ch=7 n=70 v=0
40819 Off ch=7 n=68 v=0
40832 On ch=7 n=73 v=69
41088 On ch=7 n=75 v=72
41093 Off ch=7 n=73 v=0
41344 On ch=7 n=77 v=66
41349 Off ch=7 n=75 v=0
41600 On ch=7 n=75 v=64
41605 Off ch=7 n=77 v=0
41843 Off ch=7 n=75 v=0
41856 On ch=7 n=73 v=62
42112 On ch=7 n=75 v=71
42117 Off ch=7 n=73 v=0
42368 On ch=7 n=73 v=57
42373 Off ch=7 n=75 v=0
42624 On ch=7 n=72 v=52
42629 Off ch=7 n=73 v=0
42867 Off ch=7 n=72 v=0
42880 On ch=7 n=75 v=67
43136 On ch=7 n=77 v=76
43141 Off ch=7 n=75 v=0
43392 On ch=7 n=78 v=61
43397 Off ch=7 n=77 v=0
43648 On ch=7 n=77 v=60
43653 Off ch=7 n=78 v=0
43904 On ch=7 n=75 v=52
43909 Off ch=7 n=77 v=0
44160 On ch=7 n=77 v=55
44165 Off ch=7 n=75 v=0
44403 Off ch=7 n=77 v=0
44416 On ch=7 n=78 v=64
44672 On ch=7 n=77 v=68
44677 Off ch=7 n=78 v=0
44928 On ch=7 n=75 v=66
44933 Off ch=7 n=77 v=0
45184 On ch=7 n=77 v=78
45189 Off ch=7 n=75 v=0
45427 Off ch=7 n=77 v=0
45440 On ch=7 n=78 v=74
45696 On ch=7 n=77 v=72
45701 Off ch=7 n=78 v=0
45952 On ch=7 n=75 v=62
45957 Off ch=7 n=77 v=0
46208 On ch=7 n=77 v=85
46213 Off ch=7 n=75 v=0
46451 Off ch=7 n=77 v=0
46464 On ch=7 n=78 v=92
46720 On ch=7 n=77 v=88
46725 Off ch=7 n=78 v=0
46976 On ch=7 n=75 v=77
46981 Off ch=7 n=77 v=0
47232 On ch=7 n=77 v=84
47237 Off ch=7 n=75 v=0
47488 On ch=7 n=78 v=103
47493 Off ch=7 n=77 v=0
47744 On ch=7 n=77 v=100
47749 Off ch=7 n=78 v=0
48000 On ch=7 n=78 v=102
48005 Off ch=7 n=77 v=0
48256 On ch=7 n=81 v=111
48261 Off ch=7 n=78 v=0
48499 Off ch=7 n=81 v=0
48512 On ch=7 n=70 v=118
48512 On ch=7 n=82 v=118
49140 Off ch=7 n=70 v=0
49140 Off ch=7 n=82 v=0
49152 On ch=7 n=84 v=119
49210 Off ch=7 n=84 v=0
49280 On ch=7 n=82 v=110
49338 Off ch=7 n=82 v=0
49408 On ch=7 n=80 v=104
49466 Off ch=7 n=80 v=0
49536 On ch=7 n=80 v=114
49664 On ch=7 n=79 v=110
49666 Off ch=7 n=80 v=0
49785 Off ch=7 n=79 v=0
49792 On ch=7 n=77 v=107
49850 Off ch=7 n=77 v=0
49920 On ch=7 n=75 v=104
49978 Off ch=7 n=75 v=0
50048 On ch=7 n=75 v=113
50176 On ch=7 n=74 v=103
50178 Off ch=7 n=75 v=0
50297 Off ch=7 n=74 v=0
50304 On ch=7 n=72 v=104
50362 Off ch=7 n=72 v=0
50432 On ch=7 n=74 v=118
50490 Off ch=7 n=74 v=0
50560 On ch=7 n=77 v=122
50688 On ch=7 n=75 v=113
50690 Off ch=7 n=77 v=0
50809 Off ch=7 n=75 v=0
50816 On ch=7 n=70 v=93
50874 Off ch=7 n=70 v=0
50944 On ch=7 n=67 v=99
51002 Off ch=7 n=67 v=0
51072 On ch=7 n=74 v=127
51200 On ch=7 n=72 v=121
51202 Off ch=7 n=74 v=0
51321 Off ch=7 n=72 v=0
51328 On ch=7 n=68 v=99
51386 Off ch=7 n=68 v=0
51456 On ch=7 n=65 v=106
51514 Off ch=7 n=65 v=0
51584 On ch=7 n=72 v=127
51712 On ch=7 n=70 v=121
51714 Off ch=7 n=72 v=0
51833 Off ch=7 n=70 v=0
51840 On ch=7 n=67 v=101
51898 Off ch=7 n=67 v=0
51968 On ch=7 n=63 v=98
52026 Off ch=7 n=63 v=0
52096 On ch=7 n=58 v=104
52212 Off ch=7 n=58 v=0
52224 On ch=7 n=81 v=127
52352 On ch=7 n=82 v=127
52354 Off ch=7 n=81 v=0
52480 On ch=7 n=81 v=107
52482 Off ch=7 n=82 v=0
52608 On ch=7 n=82 v=118
52610 Off ch=7 n=81 v=0
52736 On ch=7 n=81 v=114
52738 Off ch=7 n=82 v=0
52864 On ch=7 n=82 v=116
52866 Off ch=7 n=81 v=0
52992 On ch=7 n=81 v=109
52994 Off ch=7 n=82 v=0
53113 Off ch=7 n=81 v=0
53120 On ch=7 n=82 v=114
53178 Off ch=7 n=82 v=0
53248 On ch=7 n=84 v=121
53306 Off ch=7 n=84 v=0
53376 On ch=7 n=82 v=105
53434 Off ch=7 n=82 v=0
53504 On ch=7 n=80 v=105
53562 Off ch=7 n=80 v=0
53632 On ch=7 n=80 v=116
53760 On ch=7 n=79 v=110
53762 Off ch=7 n=80 v=0
53881 Off ch=7 n=79 v=0
53888 On ch=7 n=77 v=101
53946 Off ch=7 n=77 v=0
54016 On ch=7 n=75 v=107
54074 Off ch=7 n=75 v=0
54144 On ch=7 n=75 v=114
54272 On ch=7 n=74 v=106
54274 Off ch=7 n=75 v=0
54393 Off ch=7 n=74 v=0
54400 On ch=7 n=72 v=107
54458 Off ch=7 n=72 v=0
54528 On ch=7 n=74 v=122
54586 Off ch=7 n=74 v=0
54656 On ch=7 n=77 v=121
54784 On ch=7 n=75 v=115
54786 Off ch=7 n=77 v=0
54905 Off ch=7 n=75 v=0
54912 On ch=7 n=70 v=96
54970 Off ch=7 n=70 v=0
55040 On ch=7 n=67 v=101
55098 Off ch=7 n=67 v=0
55168 On ch=7 n=74 v=127
55296 On ch=7 n=72 v=122
55298 Off ch=7 n=74 v=0
55417 Off ch=7 n=72 v=0
55424 On ch=7 n=68 v=101
55482 Off ch=7 n=68 v=0
55552 On ch=7 n=65 v=95
55610 Off ch=7 n=65 v=0
55680 On ch=7 n=72 v=127
55808 On ch=7 n=70 v=123
55810 Off ch=7 n=72 v=0
55929 Off ch=7 n=70 v=0
55936 On ch=7 n=67 v=108
55994 Off ch=7 n=67 v=0
56064 On ch=7 n=63 v=96
56122 Off ch=7 n=63 v=0
56192 On ch=7 n=58 v=103
56308 Off ch=7 n=58 v=0
56320 On ch=7 n=70 v=127
56436 Off ch=7 n=70 v=0
56448 On ch=7 n=82 v=127
56564 Off ch=7 n=82 v=0
56576 On ch=7 n=82 v=122
56692 Off ch=7 n=82 v=0
56704 On ch=7 n=75 v=92
58356 Off ch=7 n=75 v=0
58368 On ch=7 n=77 v=123
58484 Off ch=7 n=77 v=0
58496 On ch=7 n=77 v=113
58612 Off ch=7 n=77 v=0
58624 On ch=7 n=77 v=114
58740 Off ch=7 n=77 v=0
58752 On ch=7 n=79 v=122
60404 Off ch=7 n=79 v=0
60416 On ch=7 n=70 v=122
60416 On ch=7 n=82 v=122
60532 Off ch=7 n=70 v=0
60532 Off ch=7 n=82 v=0
60544 On ch=7 n=70 v=113
60544 On ch=7 n=82 v=113
60660 Off ch=7 n=70 v=0
60660 Off ch=7 n=82 v=0
60672 On ch=7 n=70 v=109
60672 On ch=7 n=82 v=109
60788 Off ch=7 n=70 v=0
60788 Off ch=7 n=82 v=0
60800 On ch=7 n=70 v=109
60800 On ch=7 n=82 v=109
61031 Off ch=7 n=70 v=0
61031 Off ch=7 n=82 v=0
61440 On ch=7 n=70 v=101
61440 On ch=7 n=82 v=101
61556 Off ch=7 n=70 v=0
61556 Off ch=7 n=82 v=0
61568 On ch=7 n=70 v=115
61568 On ch=7 n=82 v=115
61684 Off ch=7 n=70 v=0
61684 Off ch=7 n=82 v=0
61696 On ch=7 n=70 v=109
61696 On ch=7 n=82 v=109
61812 Off ch=7 n=70 v=0
61812 Off ch=7 n=82 v=0
61824 On ch=7 n=70 v=116
61824 On ch=7 n=82 v=116
62055 Off ch=7 n=70 v=0
62055 Off ch=7 n=82 v=0
62464 On ch=7 n=77 v=100
62464 On ch=7 n=86 v=100
62580 Off ch=7 n=77 v=0
62580 Off ch=7 n=86 v=0
62592 On ch=7 n=77 v=111
62592 On ch=7 n=86 v=111
62708 Off ch=7 n=77 v=0
62708 Off ch=7 n=86 v=0
62720 On ch=7 n=77 v=113
62720 On ch=7 n=86 v=113
62836 Off ch=7 n=77 v=0
62836 Off ch=7 n=86 v=0
62848 On ch=7 n=79 v=122
62848 On ch=7 n=87 v=122
63079 Off ch=7 n=79 v=0
63079 Off ch=7 n=87 v=0
64512 On ch=7 n=67 v=98
64628 Off ch=7 n=67 v=0
64640 On ch=7 n=67 v=107
64756 Off ch=7 n=67 v=0
64768 On ch=7 n=67 v=110
64884 Off ch=7 n=67 v=0
64896 On ch=7 n=63 v=98
65664 Off ch=7 n=63 v=0
65792 On ch=7 n=65 v=102
65908 Off ch=7 n=65 v=0
65920 On ch=7 n=65 v=107
66036 Off ch=7 n=65 v=0
66048 On ch=7 n=65 v=112
66164 Off ch=7 n=65 v=0
66176 On ch=7 n=62 v=101
67456 Off ch=7 n=62 v=0
68608 On ch=7 n=75 v=57
68724 Off ch=7 n=75 v=0
68736 On ch=7 n=75 v=59
68852 Off ch=7 n=75 v=0
68864 On ch=7 n=75 v=57
68980 Off ch=7 n=75 v=0
68992 On ch=7 n=72 v=59
69735 Off ch=7 n=72 v=0
70656 On ch=7 n=77 v=56
70772 Off ch=7 n=77 v=0
70784 On ch=7 n=77 v=59
70900 Off ch=7 n=77 v=0
70912 On ch=7 n=77 v=64
71028 Off ch=7 n=77 v=0
71040 On ch=7 n=74 v=56
71668 Off ch=7 n=74 v=0
71680 On ch=7 n=79 v=68
71796 Off ch=7 n=79 v=0
71808 On ch=7 n=79 v=65
71924 Off ch=7 n=79 v=0
71936 On ch=7 n=77 v=59
72052 Off ch=7 n=77 v=0
72064 On ch=7 n=75 v=59
72525 Off ch=7 n=75 v=0
72576 On ch=7 n=74 v=54
72692 Off ch=7 n=74 v=0
72704 On ch=7 n=79 v=69
72820 Off ch=7 n=79 v=0
72832 On ch=7 n=79 v=64
72948 Off ch=7 n=79 v=0
72960 On ch=7 n=77 v=52
73076 Off ch=7 n=77 v=0
73088 On ch=7 n=75 v=57
73549 Off ch=7 n=75 v=0
73600 On ch=7 n=74 v=61
73716 Off ch=7 n=74 v=0
73728 On ch=7 n=79 v=69
73844 Off ch=7 n=79 v=0
73856 On ch=7 n=79 v=71
73972 Off ch=7 n=79 v=0
73984 On ch=7 n=77 v=73
74100 Off ch=7 n=77 v=0
74112 On ch=7 n=75 v=87
74343 Off ch=7 n=75 v=0
74594 On ch=7 n=56 v=83
74609 On ch=7 n=66 v=83
74624 Off ch=7 n=56 v=0
74624 On ch=7 n=72 v=83
74840 Off ch=7 n=66 v=0
74855 Off ch=7 n=72 v=0
75106 On ch=7 n=55 v=68
75106 On ch=7 n=62 v=68
75121 On ch=7 n=71 v=68
75136 On ch=7 n=79 v=88
75136 Off ch=7 n=55 v=0
75136 Off ch=7 n=62 v=0
75352 Off ch=7 n=71 v=0
75776 Off ch=7 n=79 v=0
75904 On ch=7 n=68 v=89
76020 Off ch=7 n=68 v=0
76032 On ch=7 n=68 v=92
76148 Off ch=7 n=68 v=0
76160 On ch=7 n=68 v=99
76276 Off ch=7 n=68 v=0
76288 On ch=7 n=65 v=92
77568 Off ch=7 n=65 v=0
77696 On ch=7 n=68 v=59
77812 Off ch=7 n=68 v=0
77824 On ch=7 n=68 v=59
77940 Off ch=7 n=68 v=0
77952 On ch=7 n=68 v=61
78068 Off ch=7 n=68 v=0
78080 On ch=7 n=65 v=58
79565 Off ch=7 n=65 v=0
79616 On ch=7 n=63 v=57
79732 Off ch=7 n=63 v=0
79744 On ch=7 n=68 v=71
79860 Off ch=7 n=68 v=0
79872 On ch=7 n=68 v=60
79988 Off ch=7 n=68 v=0
80000 On ch=7 n=68 v=59
80116 Off ch=7 n=68 v=0
80128 On ch=7 n=65 v=53
81613 Off ch=7 n=65 v=0
81664 On ch=7 n=63 v=56
81780 Off ch=7 n=63 v=0
81792 On ch=7 n=67 v=67
81908 Off ch=7 n=67 v=0
81920 On ch=7 n=72 v=71
82036 Off ch=7 n=72 v=0
82048 On ch=7 n=72 v=61
82164 Off ch=7 n=72 v=0
82176 On ch=7 n=72 v=62
82637 Off ch=7 n=72 v=0
82688 On ch=7 n=71 v=66
82804 Off ch=7 n=71 v=0
82816 On ch=7 n=71 v=64
82932 Off ch=7 n=71 v=0
82944 On ch=7 n=71 v=64
83060 Off ch=7 n=71 v=0
83072 On ch=7 n=74 v=77
83188 Off ch=7 n=74 v=0
83200 On ch=7 n=74 v=67
83661 Off ch=7 n=74 v=0
83712 On ch=7 n=72 v=66
83828 Off ch=7 n=72 v=0
83840 On ch=7 n=72 v=69
83956 Off ch=7 n=72 v=0
83968 On ch=7 n=72 v=71
84084 Off ch=7 n=72 v=0
84096 On ch=7 n=75 v=79
84212 Off ch=7 n=75 v=0
84224 On ch=7 n=75 v=92
84352 On ch=7 n=74 v=74
84354 Off ch=7 n=75 v=0
84473 Off ch=7 n=74 v=0
84480 On ch=7 n=74 v=76
84538 Off ch=7 n=74 v=0
84608 On ch=7 n=77 v=92
84666 Off ch=7 n=77 v=0
84736 On ch=7 n=77 v=100
84864 On ch=7 n=76 v=91
84866 Off ch=7 n=77 v=0
84985 Off ch=7 n=76 v=0
84992 On ch=7 n=76 v=80
85050 Off ch=7 n=76 v=0
85120 On ch=7 n=79 v=90
85178 Off ch=7 n=79 v=0
85248 On ch=7 n=79 v=98
85376 On ch=7 n=77 v=83
85378 Off ch=7 n=79 v=0
85497 Off ch=7 n=77 v=0
85504 On ch=7 n=77 v=88
85562 Off ch=7 n=77 v=0
85632 On ch=7 n=80 v=97
85690 Off ch=7 n=80 v=0
85760 On ch=7 n=80 v=102
85888 On ch=7 n=79 v=84
85890 Off ch=7 n=80 v=0
86009 Off ch=7 n=79 v=0
86016 On ch=7 n=79 v=89
86074 Off ch=7 n=79 v=0
86144 On ch=7 n=82 v=96
86202 Off ch=7 n=82 v=0
86272 On ch=7 n=82 v=105
86400 On ch=7 n=80 v=85
86402 Off ch=7 n=82 v=0
86521 Off ch=7 n=80 v=0
86528 On ch=7 n=80 v=92
86586 Off ch=7 n=80 v=0
86656 On ch=7 n=84 v=101
86714 Off ch=7 n=84 v=0
86784 On ch=7 n=84 v=108
86912 On ch=7 n=83 v=91
86914 Off ch=7 n=84 v=0
87033 Off ch=7 n=83 v=0
87040 On ch=7 n=83 v=93
87098 Off ch=7 n=83 v=0
87168 On ch=7 n=86 v=106
87226 Off ch=7 n=86 v=0
87296 On ch=7 n=84 v=93
87412 Off ch=7 n=84 v=0
87424 On ch=7 n=87 v=106
87540 Off ch=7 n=87 v=0
87552 On ch=7 n=87 v=100
87668 Off ch=7 n=87 v=0
87680 On ch=7 n=87 v=102
87796 Off ch=7 n=87 v=0
87808 On ch=7 n=84 v=89
87924 Off ch=7 n=84 v=0
87936 On ch=7 n=79 v=85
88052 Off ch=7 n=79 v=0
88064 On ch=7 n=79 v=98
88180 Off ch=7 n=79 v=0
88192 On ch=7 n=79 v=99
88308 Off ch=7 n=79 v=0
88320 On ch=7 n=75 v=84
88436 Off ch=7 n=75 v=0
88448 On ch=7 n=72 v=87
88564 Off ch=7 n=72 v=0
88576 On ch=7 n=67 v=78
88692 Off ch=7 n=67 v=0
88704 On ch=7 n=67 v=95
88820 Off ch=7 n=67 v=0
88832 On ch=7 n=63 v=88
88948 Off ch=7 n=63 v=0
88960 On ch=7 n=60 v=89
89076 Off ch=7 n=60 v=0
89088 On ch=7 n=60 v=99
89204 Off ch=7 n=60 v=0
89216 On ch=7 n=60 v=99
89332 Off ch=7 n=60 v=0
89344 On ch=7 n=59 v=98
89460 Off ch=7 n=59 v=0
89472 On ch=7 n=89 v=122
89588 Off ch=7 n=89 v=0
89600 On ch=7 n=86 v=92
89716 Off ch=7 n=86 v=0
89728 On ch=7 n=86 v=95
89844 Off ch=7 n=86 v=0
89856 On ch=7 n=83 v=87
89972 Off ch=7 n=83 v=0
89984 On ch=7 n=79 v=85
90100 Off ch=7 n=79 v=0
90112 On ch=7 n=77 v=87
90228 Off ch=7 n=77 v=0
90240 On ch=7 n=77 v=97
90356 Off ch=7 n=77 v=0
90368 On ch=7 n=74 v=87
90484 Off ch=7 n=74 v=0
90496 On ch=7 n=71 v=86
90612 Off ch=7 n=71 v=0
90624 On ch=7 n=67 v=83
90740 Off ch=7 n=67 v=0
90752 On ch=7 n=65 v=86
90868 Off ch=7 n=65 v=0
90880 On ch=7 n=62 v=88
90996 Off ch=7 n=62 v=0
91008 On ch=7 n=59 v=94
91124 Off ch=7 n=59 v=0
91136 On ch=7 n=60 v=105
91252 Off ch=7 n=60 v=0
91264 On ch=7 n=60 v=99
91380 Off ch=7 n=60 v=0
91392 On ch=7 n=60 v=114
91508 Off ch=7 n=60 v=0
91520 On ch=7 n=87 v=127
91636 Off ch=7 n=87 v=0
91648 On ch=7 n=87 v=119
91764 Off ch=7 n=87 v=0
91776 On ch=7 n=87 v=117
91892 Off ch=7 n=87 v=0
91904 On ch=7 n=84 v=103
92020 Off ch=7 n=84 v=0
92032 On ch=7 n=81 v=104
92148 Off ch=7 n=81 v=0
92160 On ch=7 n=81 v=109
92276 Off ch=7 n=81 v=0
92288 On ch=7 n=81 v=113
92404 Off ch=7 n=81 v=0
92416 On ch=7 n=78 v=102
92532 Off ch=7 n=78 v=0
92544 On ch=7 n=75 v=102
92660 Off ch=7 n=75 v=0
92672 On ch=7 n=75 v=109
92788 Off ch=7 n=75 v=0
92800 On ch=7 n=75 v=114
92916 Off ch=7 n=75 v=0
92928 On ch=7 n=72 v=103
93044 Off ch=7 n=72 v=0
93056 On ch=7 n=57 v=105
93056 On ch=7 n=69 v=105
93172 Off ch=7 n=57 v=0
93172 Off ch=7 n=69 v=0
93184 On ch=7 n=57 v=107
93184 On ch=7 n=69 v=107
93300 Off ch=7 n=57 v=0
93300 Off ch=7 n=69 v=0
93312 On ch=7 n=57 v=113
93312 On ch=7 n=69 v=113
93428 Off ch=7 n=57 v=0
93428 Off ch=7 n=69 v=0
93440 On ch=7 n=57 v=116
93440 On ch=7 n=69 v=116
93671 Off ch=7 n=57 v=0
93671 Off ch=7 n=69 v=0
94434 On ch=7 n=58 v=102
94449 On ch=7 n=65 v=102
94464 Off ch=7 n=58 v=0
94464 On ch=7 n=70 v=102
94680 Off ch=7 n=65 v=0
94695 Off ch=7 n=70 v=0
97024 On ch=7 n=70 v=57
97280 On ch=7 n=75 v=64
97285 Off ch=7 n=70 v=0
97536 On ch=7 n=74 v=58
97541 Off ch=7 n=75 v=0
97792 On ch=7 n=75 v=65
97797 Off ch=7 n=74 v=0
98048 On ch=7 n=77 v=65
98053 Off ch=7 n=75 v=0
98304 On ch=7 n=72 v=57
98309 Off ch=7 n=77 v=0
98547 Off ch=7 n=72 v=0
98560 On ch=7 n=72 v=59
98816 On ch=7 n=70 v=53
98821 Off ch=7 n=72 v=0
99059 Off ch=7 n=70 v=0
101120 On ch=7 n=70 v=60
101376 On ch=7 n=75 v=71
101381 Off ch=7 n=70 v=0
101632 On ch=7 n=74 v=60
101637 Off ch=7 n=75 v=0
101888 On ch=7 n=75 v=61
101893 Off ch=7 n=74 v=0
102144 On ch=7 n=77 v=67
102149 Off ch=7 n=75 v=0
102400 On ch=7 n=72 v=59
102405 Off ch=7 n=77 v=0
102643 Off ch=7 n=72 v=0
102656 On ch=7 n=72 v=58
102912 On ch=7 n=70 v=50
102917 Off ch=7 n=72 v=0
103155 Off ch=7 n=70 v=0
103168 On ch=7 n=70 v=61
103424 On ch=7 n=72 v=67
103429 Off ch=7 n=70 v=0
103680 On ch=7 n=73 v=65
103685 Off ch=7 n=72 v=0
103936 On ch=7 n=72 v=56
103941 Off ch=7 n=73 v=0
104179 Off ch=7 n=72 v=0
104192 On ch=7 n=70 v=54
104448 On ch=7 n=72 v=54
104453 Off ch=7 n=70 v=0
104704 On ch=7 n=70 v=56
104709 Off ch=7 n=72 v=0
104960 On ch=7 n=68 v=52
104965 Off ch=7 n=70 v=0
105203 Off ch=7 n=68 v=0
105216 On ch=7 n=73 v=70
105472 On ch=7 n=75 v=77
105477 Off ch=7 n=73 v=0
105728 On ch=7 n=77 v=65
105733 Off ch=7 n=75 v=0
105984 On ch=7 n=75 v=60
105989 Off ch=7 n=77 v=0
106227 Off ch=7 n=75 v=0
106240 On ch=7 n=73 v=61
106496 On ch=7 n=75 v=64
106501 Off ch=7 n=73 v=0
106752 On ch=7 n=73 v=58
106757 Off ch=7 n=75 v=0
107008 On ch=7 n=72 v=57
107013 Off ch=7 n=73 v=0
107251 Off ch=7 n=72 v=0
107264 On ch=7 n=75 v=69
107520 On ch=7 n=77 v=77
107525 Off ch=7 n=75 v=0
107776 On ch=7 n=78 v=66
107781 Off ch=7 n=77 v=0
108032 On ch=7 n=77 v=64
108037 Off ch=7 n=78 v=0
108288 On ch=7 n=75 v=61
108293 Off ch=7 n=77 v=0
108544 On ch=7 n=77 v=62
108549 Off ch=7 n=75 v=0
108787 Off ch=7 n=77 v=0
108800 On ch=7 n=78 v=69
109056 On ch=7 n=77 v=66
109061 Off ch=7 n=78 v=0
109312 On ch=7 n=75 v=64
109317 Off ch=7 n=77 v=0
109568 On ch=7 n=77 v=74
109573 Off ch=7 n=75 v=0
109811 Off ch=7 n=77 v=0
109824 On ch=7 n=78 v=75
110080 On ch=7 n=77 v=72
110085 Off ch=7 n=78 v=0
110336 On ch=7 n=75 v=66
110341 Off ch=7 n=77 v=0
110592 On ch=7 n=77 v=87
110597 Off ch=7 n=75 v=0
110835 Off ch=7 n=77 v=0
110848 On ch=7 n=78 v=88
111104 On ch=7 n=77 v=88
111109 Off ch=7 n=78 v=0
111360 On ch=7 n=75 v=80
111365 Off ch=7 n=77 v=0
111616 On ch=7 n=77 v=83
111621 Off ch=7 n=75 v=0
111872 On ch=7 n=78 v=101
111877 Off ch=7 n=77 v=0
112128 On ch=7 n=77 v=98
112133 Off ch=7 n=78 v=0
112384 On ch=7 n=78 v=98
112389 Off ch=7 n=77 v=0
112640 On ch=7 n=81 v=107
112645 Off ch=7 n=78 v=0
112883 Off ch=7 n=81 v=0
112896 On ch=7 n=70 v=121
112896 On ch=7 n=82 v=121
113524 Off ch=7 n=70 v=0
113524 Off ch=7 n=82 v=0
113536 On ch=7 n=84 v=120
113594 Off ch=7 n=84 v=0
113664 On ch=7 n=82 v=110
113722 Off ch=7 n=82 v=0
113792 On ch=7 n=80 v=102
113850 Off ch=7 n=80 v=0
113920 On ch=7 n=80 v=108
114048 On ch=7 n=79 v=94
114050 Off ch=7 n=80 v=0
114169 Off ch=7 n=79 v=0
114176 On ch=7 n=77 v=106
114234 Off ch=7 n=77 v=0
114304 On ch=7 n=75 v=108
114362 Off ch=7 n=75 v=0
114432 On ch=7 n=75 v=114
114560 On ch=7 n=74 v=111
114562 Off ch=7 n=75 v=0
114681 Off ch=7 n=74 v=0
114688 On ch=7 n=72 v=104
114746 Off ch=7 n=72 v=0
114816 On ch=7 n=74 v=119
114874 Off ch=7 n=74 v=0
114944 On ch=7 n=77 v=124
115072 On ch=7 n=75 v=118
115074 Off ch=7 n=77 v=0
115193 Off ch=7 n=75 v=0
115200 On ch=7 n=70 v=101
115258 Off ch=7 n=70 v=0
115328 On ch=7 n=67 v=102
115386 Off ch=7 n=67 v=0
115456 On ch=7 n=74 v=127
115584 On ch=7 n=72 v=124
115586 Off ch=7 n=74 v=0
115705 Off ch=7 n=72 v=0
115712 On ch=7 n=68 v=105
115770 Off ch=7 n=68 v=0
115840 On ch=7 n=65 v=98
115898 Off ch=7 n=65 v=0
115968 On ch=7 n=72 v=127
116096 On ch=7 n=70 v=121
116098 Off ch=7 n=72 v=0
116217 Off ch=7 n=70 v=0
116224 On ch=7 n=67 v=103
116282 Off ch=7 n=67 v=0
116352 On ch=7 n=63 v=100
116410 Off ch=7 n=63 v=0
116480 On ch=7 n=58 v=107
116596 Off ch=7 n=58 v=0
116608 On ch=7 n=81 v=127
116736 On ch=7 n=82 v=127
116738 Off ch=7 n=81 v=0
116864 On ch=7 n=81 v=106
116866 Off ch=7 n=82 v=0
116992 On ch=7 n=82 v=123
116994 Off ch=7 n=81 v=0
117120 On ch=7 n=81 v=116
117122 Off ch=7 n=82 v=0
117248 On ch=7 n=82 v=122
117250 Off ch=7 n=81 v=0
117376 On ch=7 n=81 v=120
117378 Off ch=7 n=82 v=0
117497 Off ch=7 n=81 v=0
117504 On ch=7 n=82 v=116
117562 Off ch=7 n=82 v=0
117632 On ch=7 n=84 v=120
117690 Off ch=7 n=84 v=0
117760 On ch=7 n=82 v=105
117818 Off ch=7 n=82 v=0
117888 On ch=7 n=80 v=105
117946 Off ch=7 n=80 v=0
118016 On ch=7 n=80 v=113
118144 On ch=7 n=79 v=112
118146 Off ch=7 n=80 v=0
118265 Off ch=7 n=79 v=0
118272 On ch=7 n=77 v=106
118330 Off ch=7 n=77 v=0
118400 On ch=7 n=75 v=109
118458 Off ch=7 n=75 v=0
118528 On ch=7 n=75 v=110
118656 On ch=7 n=74 v=109
118658 Off ch=7 n=75 v=0
118777 Off ch=7 n=74 v=0
118784 On ch=7 n=72 v=103
118842 Off ch=7 n=72 v=0
118912 On ch=7 n=74 v=117
118970 Off ch=7 n=74 v=0
119040 On ch=7 n=77 v=120
119168 On ch=7 n=75 v=114
119170 Off ch=7 n=77 v=0
119289 Off ch=7 n=75 v=0
119296 On ch=7 n=70 v=98
119354 Off ch=7 n=70 v=0
119424 On ch=7 n=67 v=97
119482 Off ch=7 n=67 v=0
119552 On ch=7 n=74 v=127
119680 On ch=7 n=72 v=122
119682 Off ch=7 n=74 v=0
119801 Off ch=7 n=72 v=0
119808 On ch=7 n=68 v=105
119866 Off ch=7 n=68 v=0
119936 On ch=7 n=65 v=101
119994 Off ch=7 n=65 v=0
120064 On ch=7 n=72 v=127
120192 On ch=7 n=70 v=124
120194 Off ch=7 n=72 v=0
120313 Off ch=7 n=70 v=0
120320 On ch=7 n=67 v=106
120378 Off ch=7 n=67 v=0
120448 On ch=7 n=63 v=98
120506 Off ch=7 n=63 v=0
120576 On ch=7 n=58 v=105
120692 Off ch=7 n=58 v=0
120704 On ch=7 n=70 v=127
120820 Off ch=7 n=70 v=0
120832 On ch=7 n=82 v=127
120948 Off ch=7 n=82 v=0
120960 On ch=7 n=82 v=124
121076 Off ch=7 n=82 v=0
121088 On ch=7 n=75 v=95
122740 Off ch=7 n=75 v=0
122752 On ch=7 n=77 v=121
122868 Off ch=7 n=77 v=0
122880 On ch=7 n=77 v=111
122996 Off ch=7 n=77 v=0
123008 On ch=7 n=77 v=114
123124 Off ch=7 n=77 v=0
123136 On ch=7 n=79 v=118
124788 Off ch=7 n=79 v=0
124800 On ch=7 n=70 v=124
124800 On ch=7 n=82 v=124
124916 Off ch=7 n=70 v=0
124916 Off ch=7 n=82 v=0
124928 On ch=7 n=70 v=111
124928 On ch=7 n=82 v=111
125044 Off ch=7 n=70 v=0
125044 Off ch=7 n=82 v=0
125056 On ch=7 n=70 v=110
125056 On ch=7 n=82 v=110
125172 Off ch=7 n=70 v=0
125172 Off ch=7 n=82 v=0
125184 On ch=7 n=70 v=114
125184 On ch=7 n=82 v=114
125415 Off ch=7 n=70 v=0
125415 Off ch=7 n=82 v=0
125824 On ch=7 n=70 v=101
125824 On ch=7 n=82 v=101
125940 Off ch=7 n=70 v=0
125940 Off ch=7 n=82 v=0
125952 On ch=7 n=70 v=111
125952 On ch=7 n=82 v=111
126068 Off ch=7 n=70 v=0
126068 Off ch=7 n=82 v=0
126080 On ch=7 n=70 v=111
126080 On ch=7 n=82 v=111
126196 Off ch=7 n=70 v=0
126196 Off ch=7 n=82 v=0
126208 On ch=7 n=70 v=113
126208 On ch=7 n=82 v=113
126439 Off ch=7 n=70 v=0
126439 Off ch=7 n=82 v=0
126848 On ch=7 n=77 v=105
126848 On ch=7 n=86 v=105
126964 Off ch=7 n=77 v=0
126964 Off ch=7 n=86 v=0
126976 On ch=7 n=77 v=116
126976 On ch=7 n=86 v=116
127092 Off ch=7 n=77 v=0
127092 Off ch=7 n=86 v=0
127104 On ch=7 n=77 v=111
127104 On ch=7 n=86 v=111
127220 Off ch=7 n=77 v=0
127220 Off ch=7 n=86 v=0
127232 On ch=7 n=79 v=117
127232 On ch=7 n=87 v=117
127463 Off ch=7 n=79 v=0
127463 Off ch=7 n=87 v=0
129408 On ch=7 n=61 v=103
129524 Off ch=7 n=61 v=0
129536 On ch=7 n=61 v=113
129652 Off ch=7 n=61 v=0
129664 On ch=7 n=61 v=118
129780 Off ch=7 n=61 v=0
129792 On ch=7 n=60 v=106
131072 Off ch=7 n=60 v=0
132224 On ch=7 n=80 v=57
132340 Off ch=7 n=80 v=0
132352 On ch=7 n=80 v=61
132468 Off ch=7 n=80 v=0
132480 On ch=7 n=80 v=65
132596 Off ch=7 n=80 v=0
132608 On ch=7 n=77 v=56
133351 Off ch=7 n=77 v=0
134272 On ch=7 n=82 v=56
134388 Off ch=7 n=82 v=0
134400 On ch=7 n=82 v=63
134516 Off ch=7 n=82 v=0
134528 On ch=7 n=82 v=63
134644 Off ch=7 n=82 v=0
134656 On ch=7 n=79 v=58
135284 Off ch=7 n=79 v=0
135296 On ch=7 n=84 v=72
135412 Off ch=7 n=84 v=0
135424 On ch=7 n=84 v=62
135540 Off ch=7 n=84 v=0
135552 On ch=7 n=82 v=57
135668 Off ch=7 n=82 v=0
135680 On ch=7 n=80 v=51
136192 On ch=7 n=79 v=46
136202 Off ch=7 n=80 v=0
136313 Off ch=7 n=79 v=0
136320 On ch=7 n=84 v=65
136436 Off ch=7 n=84 v=0
136448 On ch=7 n=84 v=61
136564 Off ch=7 n=84 v=0
136576 On ch=7 n=82 v=52
136692 Off ch=7 n=82 v=0
136704 On ch=7 n=80 v=54
137216 On ch=7 n=79 v=54
137226 Off ch=7 n=80 v=0
137337 Off ch=7 n=79 v=0
137344 On ch=7 n=84 v=68
137460 Off ch=7 n=84 v=0
137472 On ch=7 n=84 v=61
137588 Off ch=7 n=84 v=0
137600 On ch=7 n=82 v=61
137716 Off ch=7 n=82 v=0
137728 On ch=7 n=80 v=57
137844 Off ch=7 n=80 v=0
137856 On ch=7 n=80 v=64
137972 Off ch=7 n=80 v=0
137984 On ch=7 n=80 v=64
138100 Off ch=7 n=80 v=0
138112 On ch=7 n=79 v=61
138228 Off ch=7 n=79 v=0
138240 On ch=7 n=77 v=52
138356 Off ch=7 n=77 v=0
138368 On ch=7 n=77 v=56
138484 Off ch=7 n=77 v=0
138496 On ch=7 n=77 v=59
138612 Off ch=7 n=77 v=0
138624 On ch=7 n=75 v=55
138740 Off ch=7 n=75 v=0
138752 On ch=7 n=74 v=60
138868 Off ch=7 n=74 v=0
138880 On ch=7 n=74 v=66
138996 Off ch=7 n=74 v=0
139008 On ch=7 n=74 v=65
139124 Off ch=7 n=74 v=0
139136 On ch=7 n=72 v=53
139252 Off ch=7 n=72 v=0
139264 On ch=7 n=71 v=56
139495 Off ch=7 n=71 v=0
139904 On ch=7 n=75 v=54
140020 Off ch=7 n=75 v=0
140032 On ch=7 n=75 v=56
140148 Off ch=7 n=75 v=0
140160 On ch=7 n=77 v=65
140276 Off ch=7 n=77 v=0
140288 On ch=7 n=79 v=63
140916 Off ch=7 n=79 v=0
140928 On ch=7 n=75 v=54
141044 Off ch=7 n=75 v=0
141056 On ch=7 n=75 v=56
141172 Off ch=7 n=75 v=0
141184 On ch=7 n=77 v=67
141300 Off ch=7 n=77 v=0
141312 On ch=7 n=79 v=66
142285 Off ch=7 n=79 v=0
142336 On ch=7 n=81 v=76
142592 On ch=7 n=82 v=76
142597 Off ch=7 n=81 v=0
142848 On ch=7 n=84 v=78
142853 Off ch=7 n=82 v=0
143104 On ch=7 n=85 v=88
143109 Off ch=7 n=84 v=0
143347 Off ch=7 n=85 v=0
143360 On ch=7 n=74 v=64
143360 On ch=7 n=86 v=64
144333 Off ch=7 n=74 v=0
144333 Off ch=7 n=86 v=0
144384 On ch=7 n=74 v=63
144384 On ch=7 n=86 v=63
145357 Off ch=7 n=74 v=0
145357 Off ch=7 n=86 v=0
145408 On ch=7 n=74 v=62
145408 On ch=7 n=86 v=62
146036 Off ch=7 n=74 v=0
146036 Off ch=7 n=86 v=0
146048 On ch=7 n=79 v=46
146164 Off ch=7 n=79 v=0
146176 On ch=7 n=79 v=59
146292 Off ch=7 n=79 v=0
146304 On ch=7 n=81 v=68
146420 Off ch=7 n=81 v=0
146432 On ch=7 n=82 v=66
146663 Off ch=7 n=82 v=0
147072 On ch=7 n=77 v=52
147188 Off ch=7 n=77 v=0
147200 On ch=7 n=81 v=66
147316 Off ch=7 n=81 v=0
147328 On ch=7 n=82 v=61
147444 Off ch=7 n=82 v=0
147456 On ch=7 n=84 v=67
147687 Off ch=7 n=84 v=0
148096 On ch=7 n=77 v=55
148212 Off ch=7 n=77 v=0
148224 On ch=7 n=81 v=68
148340 Off ch=7 n=81 v=0
148352 On ch=7 n=82 v=66
148468 Off ch=7 n=82 v=0
148480 On ch=7 n=84 v=68
148711 Off ch=7 n=84 v=0
149120 On ch=7 n=79 v=54
149236 Off ch=7 n=79 v=0
149248 On ch=7 n=82 v=64
149364 Off ch=7 n=82 v=0
149376 On ch=7 n=84 v=62
149492 Off ch=7 n=84 v=0
149504 On ch=7 n=86 v=60
149735 Off ch=7 n=86 v=0
150144 On ch=7 n=79 v=55
150260 Off ch=7 n=79 v=0
150272 On ch=7 n=82 v=65
150388 Off ch=7 n=82 v=0
150400 On ch=7 n=84 v=76
150516 Off ch=7 n=84 v=0
150528 On ch=7 n=86 v=75
150644 Off ch=7 n=86 v=0
150656 On ch=7 n=82 v=63
150772 Off ch=7 n=82 v=0
150784 On ch=7 n=84 v=77
150900 Off ch=7 n=84 v=0
150912 On ch=7 n=86 v=92
151028 Off ch=7 n=86 v=0
151040 On ch=7 n=75 v=104
151040 On ch=7 n=87 v=104
151156 Off ch=7 n=75 v=0
151156 Off ch=7 n=87 v=0
151168 On ch=7 n=75 v=97
151168 On ch=7 n=87 v=97
151284 Off ch=7 n=75 v=0
151284 Off ch=7 n=87 v=0
151296 On ch=7 n=75 v=95
151296 On ch=7 n=87 v=95
151412 Off ch=7 n=75 v=0
151412 Off ch=7 n=87 v=0
151424 On ch=7 n=75 v=98
151424 On ch=7 n=87 v=98
151540 Off ch=7 n=75 v=0
151540 Off ch=7 n=87 v=0
151552 On ch=7 n=75 v=103
151552 On ch=7 n=87 v=103
151668 Off ch=7 n=75 v=0
151668 Off ch=7 n=87 v=0
151680 On ch=7 n=75 v=98
151680 On ch=7 n=87 v=98
151796 Off ch=7 n=75 v=0
151796 Off ch=7 n=87 v=0
151808 On ch=7 n=75 v=93
151808 On ch=7 n=87 v=93
151924 Off ch=7 n=75 v=0
151924 Off ch=7 n=87 v=0
151936 On ch=7 n=75 v=99
151936 On ch=7 n=87 v=99
152052 Off ch=7 n=75 v=0
152052 Off ch=7 n=87 v=0
152064 On ch=7 n=75 v=98
152064 On ch=7 n=87 v=98
152295 Off ch=7 n=75 v=0
152295 Off ch=7 n=87 v=0
152704 On ch=7 n=76 v=89
152704 On ch=7 n=88 v=89
152820 Off ch=7 n=76 v=0
152820 Off ch=7 n=88 v=0
152832 On ch=7 n=76 v=92
152832 On ch=7 n=88 v=92
152948 Off ch=7 n=76 v=0
152948 Off ch=7 n=88 v=0
152960 On ch=7 n=76 v=95
152960 On ch=7 n=88 v=95
153076 Off ch=7 n=76 v=0
153076 Off ch=7 n=88 v=0
153088 On ch=7 n=76 v=101
153088 On ch=7 n=88 v=101
153204 Off ch=7 n=76 v=0
153204 Off ch=7 n=88 v=0
153216 On ch=7 n=76 v=103
153216 On ch=7 n=88 v=103
153332 Off ch=7 n=76 v=0
153332 Off ch=7 n=88 v=0
153344 On ch=7 n=76 v=101
153344 On ch=7 n=88 v=101
153460 Off ch=7 n=76 v=0
153460 Off ch=7 n=88 v=0
153472 On ch=7 n=76 v=95
153472 On ch=7 n=88 v=95
153588 Off ch=7 n=76 v=0
153588 Off ch=7 n=88 v=0
153600 On ch=7 n=76 v=96
153600 On ch=7 n=88 v=96
153716 Off ch=7 n=76 v=0
153716 Off ch=7 n=88 v=0
153728 On ch=7 n=76 v=100
153728 On ch=7 n=88 v=100
153844 Off ch=7 n=76 v=0
153844 Off ch=7 n=88 v=0
153856 On ch=7 n=76 v=97
153856 On ch=7 n=88 v=97
153972 Off ch=7 n=76 v=0
153972 Off ch=7 n=88 v=0
153984 On ch=7 n=76 v=97
153984 On ch=7 n=88 v=97
154100 Off ch=7 n=76 v=0
154100 Off ch=7 n=88 v=0
154112 On ch=7 n=76 v=105
154112 On ch=7 n=88 v=105
154343 Off ch=7 n=76 v=0
154343 Off ch=7 n=88 v=0
154752 On ch=7 n=74 v=96
154752 On ch=7 n=86 v=96
154868 Off ch=7 n=74 v=0
154868 Off ch=7 n=86 v=0
154880 On ch=7 n=74 v=104
154880 On ch=7 n=86 v=104
154996 Off ch=7 n=74 v=0
154996 Off ch=7 n=86 v=0
155008 On ch=7 n=74 v=107
155008 On ch=7 n=86 v=107
155124 Off ch=7 n=74 v=0
155124 Off ch=7 n=86 v=0
155136 On ch=7 n=74 v=101
155136 On ch=7 n=86 v=101
155367 Off ch=7 n=74 v=0
155367 Off ch=7 n=86 v=0
155904 On ch=7 n=85 v=93
156020 Off ch=7 n=85 v=0
156032 On ch=7 n=85 v=104
156148 Off ch=7 n=85 v=0
156160 On ch=7 n=85 v=103
156621 Off ch=7 n=85 v=0
156672 On ch=7 n=86 v=109
156788 Off ch=7 n=86 v=0
156800 On ch=7 n=86 v=115
156916 Off ch=7 n=86 v=0
156928 On ch=7 n=86 v=112
157044 Off ch=7 n=86 v=0
157056 On ch=7 n=86 v=112
157172 Off ch=7 n=86 v=0
157184 On ch=7 n=79 v=109
157645 Off ch=7 n=79 v=0
157696 On ch=7 n=81 v=127
158157 Off ch=7 n=81 v=0
158208 On ch=7 n=74 v=106
159975 Off ch=7 n=74 v=0
160000 On ch=7 n=78 v=126
160116 Off ch=7 n=78 v=0
160128 On ch=7 n=78 v=117
160244 Off ch=7 n=78 v=0
160256 On ch=7 n=81 v=122
160487 Off ch=7 n=81 v=0
160512 On ch=7 n=86 v=127
160628 Off ch=7 n=86 v=0
160640 On ch=7 n=86 v=115
160756 Off ch=7 n=86 v=0
160768 On ch=7 n=83 v=106
160884 Off ch=7 n=83 v=0
160896 On ch=7 n=79 v=98
161012 Off ch=7 n=79 v=0
161024 On ch=7 n=79 v=107
161140 Off ch=7 n=79 v=0
161152 On ch=7 n=79 v=116
161268 Off ch=7 n=79 v=0
161280 On ch=7 n=72 v=103
161741 Off ch=7 n=72 v=0
161792 On ch=7 n=74 v=127
162253 Off ch=7 n=74 v=0
162304 On ch=7 n=67 v=105
164071 Off ch=7 n=67 v=0
164096 On ch=7 n=71 v=127
164212 Off ch=7 n=71 v=0
164224 On ch=7 n=71 v=117
164340 Off ch=7 n=71 v=0
164352 On ch=7 n=74 v=124
164583 Off ch=7 n=74 v=0
164608 On ch=7 n=79 v=127
164724 Off ch=7 n=79 v=0
164736 On ch=7 n=79 v=120
164852 Off ch=7 n=79 v=0
164864 On ch=7 n=76 v=103
165095 Off ch=7 n=76 v=0
166400 On ch=7 n=55 v=98
166400 On ch=7 n=64 v=98
166912 On ch=7 n=56 v=102
166912 On ch=7 n=65 v=102
166922 Off ch=7 n=55 v=0
166922 Off ch=7 n=64 v=0
167398 Off ch=7 n=56 v=0
167398 Off ch=7 n=65 v=0
168448 On ch=7 n=55 v=107
168448 On ch=7 n=64 v=107
168960 On ch=7 n=56 v=110
168960 On ch=7 n=65 v=110
168970 Off ch=7 n=55 v=0
168970 Off ch=7 n=64 v=0
169446 Off ch=7 n=56 v=0
169446 Off ch=7 n=65 v=0
170496 On ch=7 n=66 v=116
171008 On ch=7 n=69 v=127
171018 Off ch=7 n=66 v=0
171494 Off ch=7 n=69 v=0
172544 On ch=7 n=70 v=117
173005 Off ch=7 n=70 v=0
173568 On ch=7 n=71 v=91
174029 Off ch=7 n=71 v=0
174592 On ch=7 n=73 v=78
175053 Off ch=7 n=73 v=0
175616 On ch=7 n=61 v=50
176077 Off ch=7 n=61 v=0
176640 On ch=7 n=61 v=54
177101 Off ch=7 n=61 v=0
177664 On ch=7 n=61 v=57
178125 Off ch=7 n=61 v=0
178688 On ch=7 n=62 v=54
179149 Off ch=7 n=62 v=0
179712 On ch=7 n=62 v=53
180173 Off ch=7 n=62 v=0
180736 On ch=7 n=62 v=51
181197 Off ch=7 n=62 v=0
181760 On ch=7 n=62 v=114
181876 Off ch=7 n=62 v=0
181888 On ch=7 n=74 v=127
182004 Off ch=7 n=74 v=0
182016 On ch=7 n=74 v=122
182132 Off ch=7 n=74 v=0
182144 On ch=7 n=74 v=118
182260 Off ch=7 n=74 v=0
182272 On ch=7 n=71 v=104
182733 Off ch=7 n=71 v=0
182784 On ch=7 n=72 v=117
183245 Off ch=7 n=72 v=0
183296 On ch=7 n=69 v=103
184269 Off ch=7 n=69 v=0
184832 On ch=7 n=62 v=43
185293 Off ch=7 n=62 v=0
185856 On ch=7 n=62 v=51
186317 Off ch=7 n=62 v=0
186880 On ch=7 n=62 v=54
187341 Off ch=7 n=62 v=0
187904 On ch=7 n=62 v=97
188135 Off ch=7 n=62 v=0
188544 On ch=7 n=80 v=82
188660 Off ch=7 n=80 v=0
188672 On ch=7 n=80 v=91
188788 Off ch=7 n=80 v=0
188800 On ch=7 n=80 v=96
188916 Off ch=7 n=80 v=0
188928 On ch=7 n=77 v=91
189556 Off ch=7 n=77 v=0
189568 On ch=7 n=80 v=104
189684 Off ch=7 n=80 v=0
189696 On ch=7 n=80 v=98
189812 Off ch=7 n=80 v=0
189824 On ch=7 n=80 v=99
189940 Off ch=7 n=80 v=0
189952 On ch=7 n=77 v=89
190580 Off ch=7 n=77 v=0
190592 On ch=7 n=80 v=104
190708 Off ch=7 n=80 v=0
190720 On ch=7 n=80 v=102
190836 Off ch=7 n=80 v=0
190848 On ch=7 n=80 v=100
190964 Off ch=7 n=80 v=0
190976 On ch=7 n=77 v=90
191092 Off ch=7 n=77 v=0
191104 On ch=7 n=80 v=103
191220 Off ch=7 n=80 v=0
191232 On ch=7 n=80 v=97
191348 Off ch=7 n=80 v=0
191360 On ch=7 n=80 v=96
191476 Off ch=7 n=80 v=0
191488 On ch=7 n=77 v=90
191604 Off ch=7 n=77 v=0
191616 On ch=7 n=80 v=101
191732 Off ch=7 n=80 v=0
191744 On ch=7 n=80 v=97
191860 Off ch=7 n=80 v=0
191872 On ch=7 n=80 v=98
191988 Off ch=7 n=80 v=0
192000 On ch=7 n=77 v=91
192116 Off ch=7 n=77 v=0
192128 On ch=7 n=79 v=99
192244 Off ch=7 n=79 v=0
192256 On ch=7 n=79 v=104
192372 Off ch=7 n=79 v=0
192384 On ch=7 n=79 v=95
192500 Off ch=7 n=79 v=0
192512 On ch=7 n=75 v=83
193280 Off ch=7 n=75 v=0
193408 On ch=7 n=77 v=88
193524 Off ch=7 n=77 v=0
193536 On ch=7 n=77 v=94
193652 Off ch=7 n=77 v=0
193664 On ch=7 n=77 v=100
193780 Off ch=7 n=77 v=0
193792 On ch=7 n=74 v=93
195072 Off ch=7 n=74 v=0
195712 On ch=7 n=68 v=49
195828 Off ch=7 n=68 v=0
195840 On ch=7 n=68 v=57
195956 Off ch=7 n=68 v=0
195968 On ch=7 n=68 v=63
196084 Off ch=7 n=68 v=0
196096 On ch=7 n=67 v=58
196212 Off ch=7 n=67 v=0
196224 On ch=7 n=75 v=73
196340 Off ch=7 n=75 v=0
196352 On ch=7 n=75 v=64
196468 Off ch=7 n=75 v=0
196480 On ch=7 n=75 v=59
196596 Off ch=7 n=75 v=0
196608 On ch=7 n=72 v=57
196839 Off ch=7 n=72 v=0
197760 On ch=7 n=68 v=58
197876 Off ch=7 n=68 v=0
197888 On ch=7 n=68 v=61
198004 Off ch=7 n=68 v=0
198016 On ch=7 n=68 v=58
198132 Off ch=7 n=68 v=0
198144 On ch=7 n=67 v=57
198260 Off ch=7 n=67 v=0
198272 On ch=7 n=77 v=75
198388 Off ch=7 n=77 v=0
198400 On ch=7 n=77 v=66
198516 Off ch=7 n=77 v=0
198528 On ch=7 n=77 v=61
198644 Off ch=7 n=77 v=0
198656 On ch=7 n=74 v=58
199284 Off ch=7 n=74 v=0
199296 On ch=7 n=79 v=69
199412 Off ch=7 n=79 v=0
199424 On ch=7 n=79 v=61
199540 Off ch=7 n=79 v=0
199552 On ch=7 n=77 v=58
199668 Off ch=7 n=77 v=0
199680 On ch=7 n=75 v=59
200141 Off ch=7 n=75 v=0
200192 On ch=7 n=74 v=57
200308 Off ch=7 n=74 v=0
200320 On ch=7 n=79 v=68
200436 Off ch=7 n=79 v=0
200448 On ch=7 n=79 v=63
200564 Off ch=7 n=79 v=0
200576 On ch=7 n=77 v=56
200692 Off ch=7 n=77 v=0
200704 On ch=7 n=75 v=59
201165 Off ch=7 n=75 v=0
201216 On ch=7 n=74 v=54
201332 Off ch=7 n=74 v=0
201344 On ch=7 n=79 v=65
201460 Off ch=7 n=79 v=0
201472 On ch=7 n=79 v=60
201588 Off ch=7 n=79 v=0
201600 On ch=7 n=77 v=60
201716 Off ch=7 n=77 v=0
201728 On ch=7 n=75 v=64
201959 Off ch=7 n=75 v=0
202240 On ch=7 n=56 v=64
202298 On ch=7 n=66 v=64
202356 On ch=7 n=72 v=64
202471 Off ch=7 n=56 v=0
202471 Off ch=7 n=66 v=0
202471 Off ch=7 n=72 v=0
202752 On ch=7 n=55 v=77
202799 On ch=7 n=62 v=77
202846 On ch=7 n=71 v=77
202893 On ch=7 n=79 v=77
202983 Off ch=7 n=55 v=0
202983 Off ch=7 n=62 v=0
202983 Off ch=7 n=71 v=0
202983 Off ch=7 n=79 v=0
205696 On ch=7 n=68 v=58
205812 Off ch=7 n=68 v=0
205824 On ch=7 n=68 v=61
205940 Off ch=7 n=68 v=0
205952 On ch=7 n=68 v=60
206068 Off ch=7 n=68 v=0
206080 On ch=7 n=65 v=60
207565 Off ch=7 n=65 v=0
207616 On ch=7 n=63 v=56
207732 Off ch=7 n=63 v=0
207744 On ch=7 n=68 v=68
207860 Off ch=7 n=68 v=0
207872 On ch=7 n=68 v=61
207988 Off ch=7 n=68 v=0
208000 On ch=7 n=68 v=59
208116 Off ch=7 n=68 v=0
208128 On ch=7 n=65 v=67
208244 Off ch=7 n=65 v=0
208256 On ch=7 n=62 v=61
208372 Off ch=7 n=62 v=0
208384 On ch=7 n=62 v=71
208500 Off ch=7 n=62 v=0
208512 On ch=7 n=62 v=69
208628 Off ch=7 n=62 v=0
208640 On ch=7 n=59 v=65
208756 Off ch=7 n=59 v=0
208768 On ch=7 n=56 v=68
208884 Off ch=7 n=56 v=0
208896 On ch=7 n=56 v=81
209012 Off ch=7 n=56 v=0
209024 On ch=7 n=56 v=81
209140 Off ch=7 n=56 v=0
209152 On ch=7 n=55 v=86
209268 Off ch=7 n=55 v=0
209280 On ch=7 n=71 v=104
209396 Off ch=7 n=71 v=0
209408 On ch=7 n=71 v=92
209524 Off ch=7 n=71 v=0
209536 On ch=7 n=71 v=84
209652 Off ch=7 n=71 v=0
209664 On ch=7 n=72 v=102
209780 Off ch=7 n=72 v=0
209792 On ch=7 n=67 v=87
209908 Off ch=7 n=67 v=0
209920 On ch=7 n=72 v=107
210036 Off ch=7 n=72 v=0
210048 On ch=7 n=72 v=102
210164 Off ch=7 n=72 v=0
210176 On ch=7 n=72 v=97
210637 Off ch=7 n=72 v=0
210688 On ch=7 n=71 v=96
210804 Off ch=7 n=71 v=0
210816 On ch=7 n=71 v=103
210932 Off ch=7 n=71 v=0
210944 On ch=7 n=71 v=99
211060 Off ch=7 n=71 v=0
211072 On ch=7 n=74 v=106
211188 Off ch=7 n=74 v=0
211200 On ch=7 n=74 v=97
211661 Off ch=7 n=74 v=0
211712 On ch=7 n=72 v=90
211828 Off ch=7 n=72 v=0
211840 On ch=7 n=72 v=95
211956 Off ch=7 n=72 v=0
211968 On ch=7 n=72 v=97
212084 Off ch=7 n=72 v=0
212096 On ch=7 n=75 v=107
212212 Off ch=7 n=75 v=0
212224 On ch=7 n=75 v=115
212352 On ch=7 n=74 v=111
212354 Off ch=7 n=75 v=0
212473 Off ch=7 n=74 v=0
212480 On ch=7 n=74 v=93
212538 Off ch=7 n=74 v=0
212608 On ch=7 n=77 v=109
212666 Off ch=7 n=77 v=0
212736 On ch=7 n=77 v=117
212864 On ch=7 n=76 v=117
212866 Off ch=7 n=77 v=0
212985 Off ch=7 n=76 v=0
212992 On ch=7 n=76 v=100
213050 Off ch=7 n=76 v=0
213120 On ch=7 n=79 v=110
213178 Off ch=7 n=79 v=0
213248 On ch=7 n=79 v=116
213376 On ch=7 n=77 v=107
213378 Off ch=7 n=79 v=0
213497 Off ch=7 n=77 v=0
213504 On ch=7 n=77 v=99
213562 Off ch=7 n=77 v=0
213632 On ch=7 n=80 v=104
213690 Off ch=7 n=80 v=0
213760 On ch=7 n=80 v=114
213888 On ch=7 n=79 v=108
213890 Off ch=7 n=80 v=0
214009 Off ch=7 n=79 v=0
214016 On ch=7 n=79 v=97
214074 Off ch=7 n=79 v=0
214144 On ch=7 n=82 v=110
214202 Off ch=7 n=82 v=0
214272 On ch=7 n=82 v=112
214400 On ch=7 n=80 v=105
214402 Off ch=7 n=82 v=0
214521 Off ch=7 n=80 v=0
214528 On ch=7 n=80 v=95
214586 Off ch=7 n=80 v=0
214656 On ch=7 n=84 v=107
214714 Off ch=7 n=84 v=0
214784 On ch=7 n=84 v=116
214842 Off ch=7 n=84 v=0
214912 On ch=7 n=83 v=94
214970 Off ch=7 n=83 v=0
215040 On ch=7 n=83 v=99
215098 Off ch=7 n=83 v=0
215168 On ch=7 n=86 v=105
215226 Off ch=7 n=86 v=0
215296 On ch=7 n=84 v=94
215412 Off ch=7 n=84 v=0
215424 On ch=7 n=87 v=107
215540 Off ch=7 n=87 v=0
215552 On ch=7 n=87 v=91
215668 Off ch=7 n=87 v=0
215680 On ch=7 n=87 v=97
215796 Off ch=7 n=87 v=0
215808 On ch=7 n=84 v=92
215924 Off ch=7 n=84 v=0
215936 On ch=7 n=79 v=83
216052 Off ch=7 n=79 v=0
216064 On ch=7 n=79 v=96
216180 Off ch=7 n=79 v=0
216192 On ch=7 n=79 v=103
216308 Off ch=7 n=79 v=0
216320 On ch=7 n=75 v=83
216436 Off ch=7 n=75 v=0
216448 On ch=7 n=72 v=87
216564 Off ch=7 n=72 v=0
216576 On ch=7 n=67 v=79
216692 Off ch=7 n=67 v=0
216704 On ch=7 n=67 v=98
216820 Off ch=7 n=67 v=0
216832 On ch=7 n=63 v=85
216948 Off ch=7 n=63 v=0
216960 On ch=7 n=60 v=84
217076 Off ch=7 n=60 v=0
217088 On ch=7 n=60 v=95
217204 Off ch=7 n=60 v=0
217216 On ch=7 n=60 v=102
217332 Off ch=7 n=60 v=0
217344 On ch=7 n=59 v=96
217460 Off ch=7 n=59 v=0
217472 On ch=7 n=89 v=124
217588 Off ch=7 n=89 v=0
217600 On ch=7 n=86 v=96
217716 Off ch=7 n=86 v=0
217728 On ch=7 n=86 v=94
217844 Off ch=7 n=86 v=0
217856 On ch=7 n=83 v=89
217972 Off ch=7 n=83 v=0
217984 On ch=7 n=79 v=87
218100 Off ch=7 n=79 v=0
218112 On ch=7 n=77 v=89
218228 Off ch=7 n=77 v=0
218240 On ch=7 n=77 v=92
218356 Off ch=7 n=77 v=0
218368 On ch=7 n=74 v=92
218484 Off ch=7 n=74 v=0
218496 On ch=7 n=71 v=85
218612 Off ch=7 n=71 v=0
218624 On ch=7 n=67 v=88
218740 Off ch=7 n=67 v=0
218752 On ch=7 n=65 v=92
218868 Off ch=7 n=65 v=0
218880 On ch=7 n=62 v=85
218996 Off ch=7 n=62 v=0
219008 On ch=7 n=59 v=95
219124 Off ch=7 n=59 v=0
219136 On ch=7 n=60 v=100
219252 Off ch=7 n=60 v=0
219264 On ch=7 n=60 v=101
219380 Off ch=7 n=60 v=0
219392 On ch=7 n=60 v=116
219508 Off ch=7 n=60 v=0
219520 On ch=7 n=87 v=127
219636 Off ch=7 n=87 v=0
219648 On ch=7 n=87 v=119
219764 Off ch=7 n=87 v=0
219776 On ch=7 n=87 v=114
219892 Off ch=7 n=87 v=0
219904 On ch=7 n=84 v=99
220020 Off ch=7 n=84 v=0
220032 On ch=7 n=81 v=100
220148 Off ch=7 n=81 v=0
220160 On ch=7 n=81 v=112
220276 Off ch=7 n=81 v=0
220288 On ch=7 n=81 v=117
220404 Off ch=7 n=81 v=0
220416 On ch=7 n=78 v=102
220532 Off ch=7 n=78 v=0
220544 On ch=7 n=75 v=106
220660 Off ch=7 n=75 v=0
220672 On ch=7 n=75 v=112
220788 Off ch=7 n=75 v=0
220800 On ch=7 n=75 v=114
220916 Off ch=7 n=75 v=0
220928 On ch=7 n=72 v=104
221044 Off ch=7 n=72 v=0
221056 On ch=7 n=69 v=107
221172 Off ch=7 n=69 v=0
221184 On ch=7 n=69 v=111
221300 Off ch=7 n=69 v=0
221312 On ch=7 n=69 v=114
221428 Off ch=7 n=69 v=0
221440 On ch=7 n=66 v=104
221671 Off ch=7 n=66 v=0
222464 On ch=7 n=55 v=101
222464 On ch=7 n=67 v=101
222695 Off ch=7 n=55 v=0
222695 Off ch=7 n=67 v=0
225024 On ch=7 n=67 v=55
225280 On ch=7 n=72 v=59
225285 Off ch=7 n=67 v=0
225536 On ch=7 n=71 v=60
225541 Off ch=7 n=72 v=0
225792 On ch=7 n=72 v=66
225797 Off ch=7 n=71 v=0
226048 On ch=7 n=74 v=64
226053 Off ch=7 n=72 v=0
226304 On ch=7 n=69 v=60
226309 Off ch=7 n=74 v=0
226547 Off ch=7 n=69 v=0
226560 On ch=7 n=69 v=55
226816 On ch=7 n=67 v=50
226821 Off ch=7 n=69 v=0
227059 Off ch=7 n=67 v=0
229120 On ch=7 n=67 v=65
229376 On ch=7 n=72 v=76
229381 Off ch=7 n=67 v=0
229632 On ch=7 n=71 v=56
229637 Off ch=7 n=72 v=0
229888 On ch=7 n=72 v=59
229893 Off ch=7 n=71 v=0
230144 On ch=7 n=74 v=63
230149 Off ch=7 n=72 v=0
230400 On ch=7 n=69 v=54
230405 Off ch=7 n=74 v=0
230643 Off ch=7 n=69 v=0
230656 On ch=7 n=69 v=57
230912 On ch=7 n=67 v=55
230917 Off ch=7 n=69 v=0
231155 Off ch=7 n=67 v=0
233216 On ch=7 n=70 v=65
233472 On ch=7 n=72 v=66
233477 Off ch=7 n=70 v=0
233728 On ch=7 n=73 v=63
233733 Off ch=7 n=72 v=0
233984 On ch=7 n=72 v=61
233989 Off ch=7 n=73 v=0
234227 Off ch=7 n=72 v=0
235264 On ch=7 n=72 v=59
235520 On ch=7 n=74 v=61
235525 Off ch=7 n=72 v=0
235776 On ch=7 n=75 v=60
235781 Off ch=7 n=74 v=0
236032 On ch=7 n=74 v=58
236037 Off ch=7 n=75 v=0
236275 Off ch=7 n=74 v=0
237312 On ch=7 n=77 v=68
237568 On ch=7 n=79 v=73
237573 Off ch=7 n=77 v=0
237824 On ch=7 n=80 v=64
237829 Off ch=7 n=79 v=0
238080 On ch=7 n=79 v=55
238085 Off ch=7 n=80 v=0
238336 On ch=7 n=77 v=59
238341 Off ch=7 n=79 v=0
238592 On ch=7 n=79 v=63
238597 Off ch=7 n=77 v=0
238835 Off ch=7 n=79 v=0
238848 On ch=7 n=80 v=67
239104 On ch=7 n=79 v=61
239109 Off ch=7 n=80 v=0
239360 On ch=7 n=77 v=59
239365 Off ch=7 n=79 v=0
239616 On ch=7 n=79 v=63
239621 Off ch=7 n=77 v=0
239859 Off ch=7 n=79 v=0
239872 On ch=7 n=80 v=61
240128 On ch=7 n=79 v=68
240133 Off ch=7 n=80 v=0
240384 On ch=7 n=77 v=66
240389 Off ch=7 n=79 v=0
240640 On ch=7 n=79 v=78
240645 Off ch=7 n=77 v=0
240883 Off ch=7 n=79 v=0
240896 On ch=7 n=80 v=76
241152 On ch=7 n=79 v=79
241157 Off ch=7 n=80 v=0
241408 On ch=7 n=78 v=65
241413 Off ch=7 n=79 v=0
241664 On ch=7 n=79 v=72
241669 Off ch=7 n=78 v=0
241907 Off ch=7 n=79 v=0
241920 On ch=7 n=81 v=78
242176 On ch=7 n=79 v=78
242181 Off ch=7 n=81 v=0
242432 On ch=7 n=78 v=76
242437 Off ch=7 n=79 v=0
242688 On ch=7 n=79 v=88
242693 Off ch=7 n=78 v=0
242931 Off ch=7 n=79 v=0
242944 On ch=7 n=81 v=90
243200 On ch=7 n=79 v=82
243205 Off ch=7 n=81 v=0
243456 On ch=7 n=78 v=83
243461 Off ch=7 n=79 v=0
243712 On ch=7 n=79 v=85
243717 Off ch=7 n=78 v=0
243968 On ch=7 n=78 v=81
243973 Off ch=7 n=79 v=0
244224 On ch=7 n=79 v=104
244229 Off ch=7 n=78 v=0
244480 On ch=7 n=78 v=96
244485 Off ch=7 n=79 v=0
244736 On ch=7 n=79 v=100
244741 Off ch=7 n=78 v=0
244979 Off ch=7 n=79 v=0
244992 On ch=7 n=79 v=116
245620 Off ch=7 n=79 v=0
245632 On ch=7 n=81 v=123
245690 Off ch=7 n=81 v=0
245760 On ch=7 n=79 v=104
245818 Off ch=7 n=79 v=0
245888 On ch=7 n=77 v=107
245946 Off ch=7 n=77 v=0
246016 On ch=7 n=77 v=109
246144 On ch=7 n=76 v=107
246146 Off ch=7 n=77 v=0
246265 Off ch=7 n=76 v=0
246272 On ch=7 n=74 v=101
246330 Off ch=7 n=74 v=0
246400 On ch=7 n=72 v=104
246458 Off ch=7 n=72 v=0
246528 On ch=7 n=72 v=113
246656 On ch=7 n=71 v=109
246658 Off ch=7 n=72 v=0
246777 Off ch=7 n=71 v=0
246784 On ch=7 n=69 v=106
246842 Off ch=7 n=69 v=0
246912 On ch=7 n=71 v=121
246970 Off ch=7 n=71 v=0
247040 On ch=7 n=74 v=126
247168 On ch=7 n=72 v=121
247170 Off ch=7 n=74 v=0
247289 Off ch=7 n=72 v=0
247296 On ch=7 n=67 v=96
247354 Off ch=7 n=67 v=0
247424 On ch=7 n=64 v=99
247482 Off ch=7 n=64 v=0
247552 On ch=7 n=71 v=127
247680 On ch=7 n=69 v=123
247682 Off ch=7 n=71 v=0
247801 Off ch=7 n=69 v=0
247808 On ch=7 n=65 v=101
247866 Off ch=7 n=65 v=0
247936 On ch=7 n=62 v=101
247994 Off ch=7 n=62 v=0
248064 On ch=7 n=69 v=127
248192 On ch=7 n=67 v=117
248194 Off ch=7 n=69 v=0
248313 Off ch=7 n=67 v=0
248320 On ch=7 n=64 v=99
248378 Off ch=7 n=64 v=0
248448 On ch=7 n=60 v=96
248506 Off ch=7 n=60 v=0
248576 On ch=7 n=55 v=107
248634 Off ch=7 n=55 v=0
248704 On ch=7 n=78 v=127
248832 On ch=7 n=79 v=127
248834 Off ch=7 n=78 v=0
248960 On ch=7 n=78 v=111
248962 Off ch=7 n=79 v=0
249088 On ch=7 n=79 v=113
249090 Off ch=7 n=78 v=0
249216 On ch=7 n=78 v=107
249218 Off ch=7 n=79 v=0
249344 On ch=7 n=79 v=110
249346 Off ch=7 n=78 v=0
249472 On ch=7 n=78 v=109
249474 Off ch=7 n=79 v=0
249593 Off ch=7 n=78 v=0
249600 On ch=7 n=79 v=116
249658 Off ch=7 n=79 v=0
249728 On ch=7 n=81 v=121
249786 Off ch=7 n=81 v=0
249856 On ch=7 n=79 v=107
249914 Off ch=7 n=79 v=0
249984 On ch=7 n=77 v=107
250042 Off ch=7 n=77 v=0
250112 On ch=7 n=77 v=108
250240 On ch=7 n=76 v=100
250242 Off ch=7 n=77 v=0
250361 Off ch=7 n=76 v=0
250368 On ch=7 n=74 v=105
250426 Off ch=7 n=74 v=0
250496 On ch=7 n=72 v=103
250554 Off ch=7 n=72 v=0
250624 On ch=7 n=72 v=110
250752 On ch=7 n=71 v=107
250754 Off ch=7 n=72 v=0
250873 Off ch=7 n=71 v=0
250880 On ch=7 n=69 v=102
250938 Off ch=7 n=69 v=0
251008 On ch=7 n=71 v=124
251066 Off ch=7 n=71 v=0
251136 On ch=7 n=74 v=127
251264 On ch=7 n=72 v=123
251266 Off ch=7 n=74 v=0
251385 Off ch=7 n=72 v=0
251392 On ch=7 n=67 v=96
251450 Off ch=7 n=67 v=0
251520 On ch=7 n=64 v=100
251578 Off ch=7 n=64 v=0
251648 On ch=7 n=71 v=127
251776 On ch=7 n=69 v=123
251778 Off ch=7 n=71 v=0
251897 Off ch=7 n=69 v=0
251904 On ch=7 n=65 v=98
251962 Off ch=7 n=65 v=0
252032 On ch=7 n=62 v=106
252090 Off ch=7 n=62 v=0
252160 On ch=7 n=69 v=127
252288 On ch=7 n=67 v=126
252290 Off ch=7 n=69 v=0
252409 Off ch=7 n=67 v=0
252416 On ch=7 n=64 v=102
252474 Off ch=7 n=64 v=0
252544 On ch=7 n=60 v=96
252602 Off ch=7 n=60 v=0
252672 On ch=7 n=55 v=104
252788 Off ch=7 n=55 v=0
252800 On ch=7 n=67 v=127
252916 Off ch=7 n=67 v=0
252928 On ch=7 n=79 v=127
253044 Off ch=7 n=79 v=0
253056 On ch=7 n=79 v=117
253172 Off ch=7 n=79 v=0
253184 On ch=7 n=72 v=94
254836 Off ch=7 n=72 v=0
254848 On ch=7 n=74 v=123
254964 Off ch=7 n=74 v=0
254976 On ch=7 n=74 v=112
255092 Off ch=7 n=74 v=0
255104 On ch=7 n=74 v=114
255220 Off ch=7 n=74 v=0
255232 On ch=7 n=76 v=119
256884 Off ch=7 n=76 v=0
256896 On ch=7 n=79 v=127
257012 Off ch=7 n=79 v=0
257024 On ch=7 n=79 v=117
257140 Off ch=7 n=79 v=0
257152 On ch=7 n=79 v=116
257268 Off ch=7 n=79 v=0
257280 On ch=7 n=79 v=113
257511 Off ch=7 n=79 v=0
257920 On ch=7 n=79 v=102
258036 Off ch=7 n=79 v=0
258048 On ch=7 n=79 v=112
258164 Off ch=7 n=79 v=0
258176 On ch=7 n=79 v=116
258292 Off ch=7 n=79 v=0
258304 On ch=7 n=79 v=115
258535 Off ch=7 n=79 v=0
258944 On ch=7 n=74 v=101
258944 On ch=7 n=83 v=101
259060 Off ch=7 n=74 v=0
259060 Off ch=7 n=83 v=0
259072 On ch=7 n=74 v=109
259072 On ch=7 n=83 v=109
259188 Off ch=7 n=74 v=0
259188 Off ch=7 n=83 v=0
259200 On ch=7 n=74 v=114
259200 On ch=7 n=83 v=114
259316 Off ch=7 n=74 v=0
259316 Off ch=7 n=83 v=0
259328 On ch=7 n=84 v=127
259956 Off ch=7 n=84 v=0
259968 On ch=7 n=84 v=114
260084 Off ch=7 n=84 v=0
260096 On ch=7 n=84 v=108
260212 Off ch=7 n=84 v=0
260224 On ch=7 n=84 v=112
260340 Off ch=7 n=84 v=0
260352 On ch=7 n=84 v=127
260980 Off ch=7 n=84 v=0
260992 On ch=7 n=84 v=113
261108 Off ch=7 n=84 v=0
261120 On ch=7 n=84 v=107
261236 Off ch=7 n=84 v=0
261248 On ch=7 n=84 v=112
261364 Off ch=7 n=84 v=0
261376 On ch=7 n=84 v=125
262004 Off ch=7 n=84 v=0
262016 On ch=7 n=84 v=113
262132 Off ch=7 n=84 v=0
262144 On ch=7 n=84 v=114
262260 Off ch=7 n=84 v=0
262272 On ch=7 n=84 v=112
262388 Off ch=7 n=84 v=0
262400 On ch=7 n=84 v=127
263028 Off ch=7 n=84 v=0
263040 On ch=7 n=84 v=111
263156 Off ch=7 n=84 v=0
263168 On ch=7 n=84 v=115
263284 Off ch=7 n=84 v=0
263296 On ch=7 n=84 v=111
263412 Off ch=7 n=84 v=0
263424 On ch=7 n=85 v=117
263540 Off ch=7 n=85 v=0
263552 On ch=7 n=85 v=113
263668 Off ch=7 n=85 v=0
263680 On ch=7 n=85 v=118
263796 Off ch=7 n=85 v=0
263808 On ch=7 n=85 v=115
263924 Off ch=7 n=85 v=0
263936 On ch=7 n=85 v=114
264052 Off ch=7 n=85 v=0
264064 On ch=7 n=85 v=110
264180 Off ch=7 n=85 v=0
264192 On ch=7 n=85 v=112
264308 Off ch=7 n=85 v=0
264320 On ch=7 n=85 v=114
264436 Off ch=7 n=85 v=0
264448 On ch=7 n=85 v=115
264564 Off ch=7 n=85 v=0
264576 On ch=7 n=85 v=112
264692 Off ch=7 n=85 v=0
264704 On ch=7 n=85 v=112
264820 Off ch=7 n=85 v=0
264832 On ch=7 n=85 v=116
264948 Off ch=7 n=85 v=0
264960 On ch=7 n=85 v=115
265076 Off ch=7 n=85 v=0
265088 On ch=7 n=85 v=112
265204 Off ch=7 n=85 v=0
265216 On ch=7 n=85 v=109
265332 Off ch=7 n=85 v=0
265344 On ch=7 n=85 v=116
265460 Off ch=7 n=85 v=0
265472 On ch=7 n=85 v=110
265703 Off ch=7 n=85 v=0
267648 On ch=7 n=75 v=102
267648 On ch=7 n=87 v=102
267764 Off ch=7 n=75 v=0
267764 Off ch=7 n=87 v=0
267776 On ch=7 n=75 v=113
267776 On ch=7 n=87 v=113
267892 Off ch=7 n=75 v=0
267892 Off ch=7 n=87 v=0
267904 On ch=7 n=75 v=113
267904 On ch=7 n=87 v=113
268020 Off ch=7 n=75 v=0
268020 Off ch=7 n=87 v=0
268032 On ch=7 n=75 v=114
268032 On ch=7 n=87 v=114
268148 Off ch=7 n=75 v=0
268148 Off ch=7 n=87 v=0
268160 On ch=7 n=75 v=111
268160 On ch=7 n=87 v=111
268276 Off ch=7 n=75 v=0
268276 Off ch=7 n=87 v=0
268288 On ch=7 n=75 v=112
268288 On ch=7 n=87 v=112
268404 Off ch=7 n=75 v=0
268404 Off ch=7 n=87 v=0
268416 On ch=7 n=75 v=118
268416 On ch=7 n=87 v=118
268532 Off ch=7 n=75 v=0
268532 Off ch=7 n=87 v=0
268544 On ch=7 n=75 v=111
268544 On ch=7 n=87 v=111
268660 Off ch=7 n=75 v=0
268660 Off ch=7 n=87 v=0
268672 On ch=7 n=75 v=115
268672 On ch=7 n=87 v=115
268788 Off ch=7 n=75 v=0
268788 Off ch=7 n=87 v=0
268800 On ch=7 n=75 v=113
268800 On ch=7 n=87 v=113
268916 Off ch=7 n=75 v=0
268916 Off ch=7 n=87 v=0
268928 On ch=7 n=75 v=114
268928 On ch=7 n=87 v=114
269044 Off ch=7 n=75 v=0
269044 Off ch=7 n=87 v=0
269056 On ch=7 n=75 v=113
269056 On ch=7 n=87 v=113
269172 Off ch=7 n=75 v=0
269172 Off ch=7 n=87 v=0
269184 On ch=7 n=75 v=108
269184 On ch=7 n=87 v=108
269300 Off ch=7 n=75 v=0
269300 Off ch=7 n=87 v=0
269312 On ch=7 n=75 v=109
269312 On ch=7 n=87 v=109
269428 Off ch=7 n=75 v=0
269428 Off ch=7 n=87 v=0
269440 On ch=7 n=75 v=114
269440 On ch=7 n=87 v=114
269556 Off ch=7 n=75 v=0
269556 Off ch=7 n=87 v=0
269568 On ch=7 n=75 v=110
269568 On ch=7 n=87 v=110
269684 Off ch=7 n=75 v=0
269684 Off ch=7 n=87 v=0
269696 On ch=7 n=75 v=113
269696 On ch=7 n=87 v=113
269812 Off ch=7 n=75 v=0
269812 Off ch=7 n=87 v=0
269824 On ch=7 n=75 v=109
269824 On ch=7 n=87 v=109
269940 Off ch=7 n=75 v=0
269940 Off ch=7 n=87 v=0
269952 On ch=7 n=75 v=115
269952 On ch=7 n=87 v=115
270068 Off ch=7 n=75 v=0
270068 Off ch=7 n=87 v=0
270080 On ch=7 n=75 v=116
270080 On ch=7 n=87 v=116
270311 Off ch=7 n=75 v=0
270311 Off ch=7 n=87 v=0
272640 On ch=7 n=71 v=102
272768 On ch=7 n=72 v=106
272770 Off ch=7 n=71 v=0
272896 On ch=7 n=74 v=119
272898 Off ch=7 n=72 v=0
273024 On ch=7 n=75 v=125
273026 Off ch=7 n=74 v=0
273152 On ch=7 n=77 v=123
273154 Off ch=7 n=75 v=0
273280 On ch=7 n=79 v=127
273282 Off ch=7 n=77 v=0
273408 On ch=7 n=80 v=126
273410 Off ch=7 n=79 v=0
273536 On ch=7 n=79 v=117
273538 Off ch=7 n=80 v=0
273664 On ch=7 n=80 v=117
273666 Off ch=7 n=79 v=0
273792 On ch=7 n=79 v=112
273794 Off ch=7 n=80 v=0
273920 On ch=7 n=80 v=124
273922 Off ch=7 n=79 v=0
274048 On ch=7 n=79 v=121
274050 Off ch=7 n=80 v=0
274169 Off ch=7 n=79 v=0
274688 On ch=7 n=71 v=93
274816 On ch=7 n=72 v=95
274818 Off ch=7 n=71 v=0
274944 On ch=7 n=74 v=125
274946 Off ch=7 n=72 v=0
275072 On ch=7 n=75 v=127
275074 Off ch=7 n=74 v=0
275200 On ch=7 n=77 v=117
275202 Off ch=7 n=75 v=0
275328 On ch=7 n=79 v=126
275330 Off ch=7 n=77 v=0
275456 On ch=7 n=80 v=121
275458 Off ch=7 n=79 v=0
275584 On ch=7 n=79 v=120
275586 Off ch=7 n=80 v=0
275712 On ch=7 n=80 v=125
275714 Off ch=7 n=79 v=0
275840 On ch=7 n=79 v=125
275842 Off ch=7 n=80 v=0
275968 On ch=7 n=80 v=115
275970 Off ch=7 n=79 v=0
276096 On ch=7 n=79 v=109
276098 Off ch=7 n=80 v=0
276217 Off ch=7 n=79 v=0
276224 On ch=7 n=80 v=120
276340 Off ch=7 n=80 v=0
276352 On ch=7 n=79 v=109
276468 Off ch=7 n=79 v=0
276480 On ch=7 n=82 v=120
276596 Off ch=7 n=82 v=0
276608 On ch=7 n=80 v=108
276724 Off ch=7 n=80 v=0
276736 On ch=7 n=79 v=108
276852 Off ch=7 n=79 v=0
276864 On ch=7 n=77 v=107
276980 Off ch=7 n=77 v=0
276992 On ch=7 n=80 v=123
277108 Off ch=7 n=80 v=0
277120 On ch=7 n=79 v=107
277236 Off ch=7 n=79 v=0
277248 On ch=7 n=77 v=105
277364 Off ch=7 n=77 v=0
277376 On ch=7 n=75 v=105
277492 Off ch=7 n=75 v=0
277504 On ch=7 n=79 v=123
277620 Off ch=7 n=79 v=0
277632 On ch=7 n=77 v=107
277748 Off ch=7 n=77 v=0
277760 On ch=7 n=75 v=106
277876 Off ch=7 n=75 v=0
277888 On ch=7 n=74 v=113
278004 Off ch=7 n=74 v=0
278016 On ch=7 n=77 v=122
278132 Off ch=7 n=77 v=0
278144 On ch=7 n=75 v=109
278260 Off ch=7 n=75 v=0
278272 On ch=7 n=74 v=107
278388 Off ch=7 n=74 v=0
278400 On ch=7 n=72 v=104
278516 Off ch=7 n=72 v=0
278528 On ch=7 n=75 v=123
278644 Off ch=7 n=75 v=0
278656 On ch=7 n=74 v=114
278772 Off ch=7 n=74 v=0
278784 On ch=7 n=72 v=107
278900 Off ch=7 n=72 v=0
278912 On ch=7 n=70 v=106
279028 Off ch=7 n=70 v=0
279040 On ch=7 n=74 v=121
279156 Off ch=7 n=74 v=0
279168 On ch=7 n=72 v=111
279284 Off ch=7 n=72 v=0
279296 On ch=7 n=70 v=107
279412 Off ch=7 n=70 v=0
279424 On ch=7 n=68 v=102
279540 Off ch=7 n=68 v=0
279552 On ch=7 n=72 v=122
279668 Off ch=7 n=72 v=0
279680 On ch=7 n=70 v=108
279796 Off ch=7 n=70 v=0
279808 On ch=7 n=68 v=104
279924 Off ch=7 n=68 v=0
279936 On ch=7 n=67 v=109
280052 Off ch=7 n=67 v=0
280064 On ch=7 n=70 v=120
280180 Off ch=7 n=70 v=0
280192 On ch=7 n=68 v=108
280308 Off ch=7 n=68 v=0
280320 On ch=7 n=65 v=104
280436 Off ch=7 n=65 v=0
280448 On ch=7 n=67 v=116
280564 Off ch=7 n=67 v=0
280576 On ch=7 n=63 v=101
280692 Off ch=7 n=63 v=0
280704 On ch=7 n=67 v=120
280820 Off ch=7 n=67 v=0
280832 On ch=7 n=62 v=100
280948 Off ch=7 n=62 v=0
280960 On ch=7 n=67 v=125
281076 Off ch=7 n=67 v=0
281088 On ch=7 n=63 v=105
281204 Off ch=7 n=63 v=0
281216 On ch=7 n=67 v=123
281332 Off ch=7 n=67 v=0
281344 On ch=7 n=65 v=107
281460 Off ch=7 n=65 v=0
281472 On ch=7 n=67 v=121
281588 Off ch=7 n=67 v=0
281600 On ch=7 n=63 v=106
281716 Off ch=7 n=63 v=0
281728 On ch=7 n=67 v=120
281844 Off ch=7 n=67 v=0
281856 On ch=7 n=65 v=110
281972 Off ch=7 n=65 v=0
281984 On ch=7 n=67 v=118
282100 Off ch=7 n=67 v=0
282112 On ch=7 n=67 v=114
282228 Off ch=7 n=67 v=0
282240 On ch=7 n=72 v=127
282356 Off ch=7 n=72 v=0
282368 On ch=7 n=68 v=105
282484 Off ch=7 n=68 v=0
282496 On ch=7 n=72 v=123
282612 Off ch=7 n=72 v=0
282624 On ch=7 n=67 v=100
282740 Off ch=7 n=67 v=0
282752 On ch=7 n=72 v=127
282868 Off ch=7 n=72 v=0
282880 On ch=7 n=68 v=104
282996 Off ch=7 n=68 v=0
283008 On ch=7 n=72 v=127
283124 Off ch=7 n=72 v=0
283136 On ch=7 n=71 v=108
283252 Off ch=7 n=71 v=0
283264 On ch=7 n=77 v=127
283380 Off ch=7 n=77 v=0
283392 On ch=7 n=72 v=102
283508 Off ch=7 n=72 v=0
283520 On ch=7 n=77 v=127
283636 Off ch=7 n=77 v=0
283648 On ch=7 n=71 v=96
283764 Off ch=7 n=71 v=0
283776 On ch=7 n=77 v=127
283892 Off ch=7 n=77 v=0
283904 On ch=7 n=72 v=104
284020 Off ch=7 n=72 v=0
284032 On ch=7 n=77 v=124
284148 Off ch=7 n=77 v=0
284160 On ch=7 n=74 v=104
284276 Off ch=7 n=74 v=0
284288 On ch=7 n=79 v=127
284404 Off ch=7 n=79 v=0
284416 On ch=7 n=75 v=115
284672 On ch=7 n=72 v=104
284677 Off ch=7 n=75 v=0
284915 Off ch=7 n=72 v=0
284928 On ch=7 n=74 v=118
285043 Off ch=7 n=74 v=0
285184 On ch=7 n=75 v=123
285299 Off ch=7 n=75 v=0
285440 On ch=7 n=77 v=127
285696 On ch=7 n=74 v=119
285701 Off ch=7 n=77 v=0
285939 Off ch=7 n=74 v=0
285952 On ch=7 n=75 v=110
286067 Off ch=7 n=75 v=0
286208 On ch=7 n=77 v=120
286323 Off ch=7 n=77 v=0
286464 On ch=7 n=79 v=122
286720 On ch=7 n=75 v=115
286725 Off ch=7 n=79 v=0
286963 Off ch=7 n=75 v=0
286976 On ch=7 n=77 v=118
287091 Off ch=7 n=77 v=0
287232 On ch=7 n=79 v=122
287347 Off ch=7 n=79 v=0
287488 On ch=7 n=80 v=118
287744 On ch=7 n=77 v=111
287749 Off ch=7 n=80 v=0
287987 Off ch=7 n=77 v=0
288000 On ch=7 n=79 v=124
288115 Off ch=7 n=79 v=0
288256 On ch=7 n=81 v=118
288371 Off ch=7 n=81 v=0
288512 On ch=7 n=83 v=119
288768 On ch=7 n=79 v=106
288773 Off ch=7 n=83 v=0
289011 Off ch=7 n=79 v=0
289024 On ch=7 n=81 v=119
289139 Off ch=7 n=81 v=0
289280 On ch=7 n=83 v=119
289395 Off ch=7 n=83 v=0
289536 On ch=7 n=84 v=115
289792 On ch=7 n=79 v=102
289797 Off ch=7 n=84 v=0
290035 Off ch=7 n=79 v=0
290048 On ch=7 n=80 v=113
290163 Off ch=7 n=80 v=0
290304 On ch=7 n=75 v=100
290419 Off ch=7 n=75 v=0
290560 On ch=7 n=77 v=118
290675 Off ch=7 n=77 v=0
290816 On ch=7 n=74 v=105
290931 Off ch=7 n=74 v=0
291072 On ch=7 n=75 v=114
291187 Off ch=7 n=75 v=0
291328 On ch=7 n=77 v=119
291443 Off ch=7 n=77 v=0
291584 On ch=7 n=79 v=121
291699 Off ch=7 n=79 v=0
291840 On ch=7 n=78 v=108
291955 Off ch=7 n=78 v=0
292096 On ch=7 n=79 v=117
292211 Off ch=7 n=79 v=0
292352 On ch=7 n=67 v=87
292467 Off ch=7 n=67 v=0
292608 On ch=7 n=72 v=124
292723 Off ch=7 n=72 v=0
294144 On ch=7 n=63 v=104
294259 Off ch=7 n=63 v=0
294400 On ch=7 n=65 v=117
294515 Off ch=7 n=65 v=0
294656 On ch=7 n=67 v=120
294912 On ch=7 n=63 v=109
294917 Off ch=7 n=67 v=0
295155 Off ch=7 n=63 v=0
296192 On ch=7 n=71 v=127
296307 Off ch=7 n=71 v=0
296448 On ch=7 n=72 v=124
296563 Off ch=7 n=72 v=0
296704 On ch=7 n=74 v=118
296960 On ch=7 n=71 v=107
296965 Off ch=7 n=74 v=0
297203 Off ch=7 n=71 v=0
298240 On ch=7 n=71 v=112
298355 Off ch=7 n=71 v=0
298496 On ch=7 n=72 v=117
298611 Off ch=7 n=72 v=0
298752 On ch=7 n=74 v=121
299008 On ch=7 n=71 v=111
299013 Off ch=7 n=74 v=0
299251 Off ch=7 n=71 v=0
301312 On ch=7 n=68 v=116
301568 On ch=7 n=67 v=111
301573 Off ch=7 n=68 v=0
301811 Off ch=7 n=67 v=0
302336 On ch=7 n=80 v=127
302592 On ch=7 n=79 v=127
302597 Off ch=7 n=80 v=0
302818 On ch=7 n=55 v=114
302818 On ch=7 n=63 v=114
302833 On ch=7 n=72 v=114
302835 Off ch=7 n=79 v=0
302848 Off ch=7 n=55 v=0
302848 Off ch=7 n=63 v=0
302848 On ch=7 n=79 v=114
303064 Off ch=7 n=72 v=0
303079 Off ch=7 n=79 v=0
303330 On ch=7 n=55 v=100
303330 On ch=7 n=62 v=100
303345 On ch=7 n=71 v=100
303360 Off ch=7 n=55 v=0
303360 Off ch=7 n=62 v=0
303360 On ch=7 n=79 v=100
303576 Off ch=7 n=71 v=0
303591 Off ch=7 n=79 v=0
303872 On ch=7 n=75 v=103
304128 On ch=7 n=74 v=94
304133 Off ch=7 n=75 v=0
304384 On ch=7 n=72 v=106
304389 Off ch=7 n=74 v=0
304640 On ch=7 n=70 v=101
304645 Off ch=7 n=72 v=0
304896 On ch=7 n=68 v=110
304901 Off ch=7 n=70 v=0
305152 On ch=7 n=67 v=107
305157 Off ch=7 n=68 v=0
305395 Off ch=7 n=67 v=0
305920 On ch=7 n=68 v=116
306176 On ch=7 n=67 v=116
306181 Off ch=7 n=68 v=0
306419 Off ch=7 n=67 v=0
306432 On ch=7 n=80 v=127
306688 On ch=7 n=79 v=127
306693 Off ch=7 n=80 v=0
306914 On ch=7 n=55 v=115
306914 On ch=7 n=63 v=115
306929 On ch=7 n=72 v=115
306931 Off ch=7 n=79 v=0
306944 Off ch=7 n=55 v=0
306944 Off ch=7 n=63 v=0
306944 On ch=7 n=79 v=115
307160 Off ch=7 n=72 v=0
307175 Off ch=7 n=79 v=0
307426 On ch=7 n=55 v=103
307426 On ch=7 n=62 v=103
307441 On ch=7 n=71 v=103
307456 Off ch=7 n=55 v=0
307456 Off ch=7 n=62 v=0
307456 On ch=7 n=79 v=103
307672 Off ch=7 n=71 v=0
307687 Off ch=7 n=79 v=0
307938 On ch=7 n=55 v=96
307968 On ch=7 n=63 v=96
307968 On ch=7 n=72 v=96
308054 Off ch=7 n=55 v=0
308084 Off ch=7 n=63 v=0
308084 Off ch=7 n=72 v=0
308096 On ch=7 n=79 v=127
308212 Off ch=7 n=79 v=0
308224 On ch=7 n=79 v=116
308340 Off ch=7 n=79 v=0
308352 On ch=7 n=79 v=113
308468 Off ch=7 n=79 v=0
308480 On ch=7 n=79 v=110
310644 Off ch=7 n=79 v=0
310656 On ch=7 n=79 v=114
310772 Off ch=7 n=79 v=0
310784 On ch=7 n=79 v=112
310900 Off ch=7 n=79 v=0
310912 On ch=7 n=79 v=111
311028 Off ch=7 n=79 v=0
311040 On ch=7 n=72 v=87
311156 Off ch=7 n=72 v=0
311168 On ch=7 n=79 v=127
311284 Off ch=7 n=79 v=0
311296 On ch=7 n=79 v=118
311412 Off ch=7 n=79 v=0
311424 On ch=7 n=79 v=118
311540 Off ch=7 n=79 v=0
311552 On ch=7 n=79 v=114
311668 Off ch=7 n=79 v=0
311680 On ch=7 n=79 v=116
311796 Off ch=7 n=79 v=0
311808 On ch=7 n=79 v=117
311924 Off ch=7 n=79 v=0
311936 On ch=7 n=79 v=110
312052 Off ch=7 n=79 v=0
312064 On ch=7 n=79 v=112
312180 Off ch=7 n=79 v=0
312192 On ch=7 n=79 v=112
312308 Off ch=7 n=79 v=0
312320 On ch=7 n=79 v=108
312436 Off ch=7 n=79 v=0
312448 On ch=7 n=79 v=112
312564 Off ch=7 n=79 v=0
312576 On ch=7 n=79 v=110
312692 Off ch=7 n=79 v=0
312704 On ch=7 n=79 v=117
312820 Off ch=7 n=79 v=0
312832 On ch=7 n=79 v=117
312948 Off ch=7 n=79 v=0
312960 On ch=7 n=79 v=110
313076 Off ch=7 n=79 v=0
313088 On ch=7 n=75 v=99
313856 Off ch=7 n=75 v=0
313984 On ch=7 n=77 v=100
314100 Off ch=7 n=77 v=0
314112 On ch=7 n=77 v=110
314228 Off ch=7 n=77 v=0
314240 On ch=7 n=77 v=114
314356 Off ch=7 n=77 v=0
314368 On ch=7 n=74 v=100
315648 Off ch=7 n=74 v=0
316288 On ch=7 n=68 v=41
316404 Off ch=7 n=68 v=0
316416 On ch=7 n=68 v=51
316532 Off ch=7 n=68 v=0
316544 On ch=7 n=68 v=48
316660 Off ch=7 n=68 v=0
316672 On ch=7 n=67 v=50
316788 Off ch=7 n=67 v=0
316800 On ch=7 n=75 v=59
316916 Off ch=7 n=75 v=0
316928 On ch=7 n=75 v=52
317044 Off ch=7 n=75 v=0
317056 On ch=7 n=75 v=51
317172 Off ch=7 n=75 v=0
317184 On ch=7 n=72 v=46
317927 Off ch=7 n=72 v=0
318336 On ch=7 n=68 v=46
318452 Off ch=7 n=68 v=0
318464 On ch=7 n=68 v=55
318580 Off ch=7 n=68 v=0
318592 On ch=7 n=68 v=48
318708 Off ch=7 n=68 v=0
318720 On ch=7 n=67 v=45
318836 Off ch=7 n=67 v=0
318848 On ch=7 n=75 v=61
318964 Off ch=7 n=75 v=0
318976 On ch=7 n=75 v=55
319092 Off ch=7 n=75 v=0
319104 On ch=7 n=75 v=53
319220 Off ch=7 n=75 v=0
319232 On ch=7 n=72 v=46
319860 Off ch=7 n=72 v=0
319872 On ch=7 n=71 v=127
319872 On ch=7 n=79 v=127
319988 Off ch=7 n=71 v=0
319988 Off ch=7 n=79 v=0
320000 On ch=7 n=71 v=117
320000 On ch=7 n=79 v=117
320116 Off ch=7 n=71 v=0
320116 Off ch=7 n=79 v=0
320128 On ch=7 n=71 v=113
320128 On ch=7 n=79 v=113
320244 Off ch=7 n=71 v=0
320244 Off ch=7 n=79 v=0
320256 On ch=7 n=72 v=113
320256 On ch=7 n=79 v=113
320487 Off ch=7 n=72 v=0
320487 Off ch=7 n=79 v=0
320896 On ch=7 n=71 v=99
320896 On ch=7 n=79 v=99
321012 Off ch=7 n=71 v=0
321012 Off ch=7 n=79 v=0
321024 On ch=7 n=71 v=109
321024 On ch=7 n=79 v=109
321140 Off ch=7 n=71 v=0
321140 Off ch=7 n=79 v=0
321152 On ch=7 n=71 v=111
321152 On ch=7 n=79 v=111
321268 Off ch=7 n=71 v=0
321268 Off ch=7 n=79 v=0
321280 On ch=7 n=72 v=113
321280 On ch=7 n=79 v=113
321511 Off ch=7 n=72 v=0
321511 Off ch=7 n=79 v=0
321920 On ch=7 n=71 v=104
321920 On ch=7 n=79 v=104
322036 Off ch=7 n=71 v=0
322036 Off ch=7 n=79 v=0
322048 On ch=7 n=71 v=112
322048 On ch=7 n=79 v=112
322164 Off ch=7 n=71 v=0
322164 Off ch=7 n=79 v=0
322176 On ch=7 n=71 v=112
322176 On ch=7 n=79 v=112
322292 Off ch=7 n=71 v=0
322292 Off ch=7 n=79 v=0
322304 On ch=7 n=72 v=113
322304 On ch=7 n=79 v=113
322530 On ch=7 n=62 v=116
322535 Off ch=7 n=72 v=0
322535 Off ch=7 n=79 v=0
322545 On ch=7 n=71 v=116
322560 Off ch=7 n=62 v=0
322560 On ch=7 n=79 v=116
322776 Off ch=7 n=71 v=0
322786 On ch=7 n=63 v=113
322791 Off ch=7 n=79 v=0
322801 On ch=7 n=72 v=113
322816 Off ch=7 n=63 v=0
322816 On ch=7 n=79 v=113
323032 Off ch=7 n=72 v=0
323042 On ch=7 n=62 v=116
323047 Off ch=7 n=79 v=0
323057 On ch=7 n=71 v=116
323072 Off ch=7 n=62 v=0
323072 On ch=7 n=79 v=116
323288 Off ch=7 n=71 v=0
323298 On ch=7 n=63 v=110
323303 Off ch=7 n=79 v=0
323313 On ch=7 n=72 v=110
323328 Off ch=7 n=63 v=0
323328 On ch=7 n=79 v=110
323544 Off ch=7 n=72 v=0
323554 On ch=7 n=67 v=122
323559 Off ch=7 n=79 v=0
323569 On ch=7 n=74 v=122
323584 Off ch=7 n=67 v=0
323584 On ch=7 n=83 v=122
323800 Off ch=7 n=74 v=0
323810 On ch=7 n=67 v=125
323815 Off ch=7 n=83 v=0
323825 On ch=7 n=75 v=125
323840 Off ch=7 n=67 v=0
323840 On ch=7 n=84 v=125
324056 Off ch=7 n=75 v=0
324066 On ch=7 n=67 v=112
324071 Off ch=7 n=84 v=0
324081 On ch=7 n=74 v=112
324096 Off ch=7 n=67 v=0
324096 On ch=7 n=83 v=112
324312 Off ch=7 n=74 v=0
324322 On ch=7 n=67 v=116
324327 Off ch=7 n=83 v=0
324337 On ch=7 n=75 v=116
324352 Off ch=7 n=67 v=0
324352 On ch=7 n=84 v=116
324568 Off ch=7 n=75 v=0
324583 Off ch=7 n=84 v=0
324834 On ch=7 n=55 v=99
324849 On ch=7 n=62 v=99
324864 Off ch=7 n=55 v=0
324864 On ch=7 n=71 v=99
325080 Off ch=7 n=62 v=0
325095 Off ch=7 n=71 v=0
325346 On ch=7 n=55 v=105
325361 On ch=7 n=63 v=105
325376 Off ch=7 n=55 v=0
325376 On ch=7 n=72 v=105
325592 Off ch=7 n=63 v=0
325607 Off ch=7 n=72 v=0
128 On ch=8 n=67 v=101
244 Off ch=8 n=67 v=0
256 On ch=8 n=67 v=106
372 Off ch=8 n=67 v=0
384 On ch=8 n=67 v=116
500 Off ch=8 n=67 v=0
512 On ch=8 n=63 v=101
1280 Off ch=8 n=63 v=0
1408 On ch=8 n=65 v=103
1524 Off ch=8 n=65 v=0
1536 On ch=8 n=65 v=112
1652 Off ch=8 n=65 v=0
1664 On ch=8 n=65 v=109
1780 Off ch=8 n=65 v=0
1792 On ch=8 n=62 v=99
3072 Off ch=8 n=62 v=0
3200 On ch=8 n=67 v=53
3316 Off ch=8 n=67 v=0
3328 On ch=8 n=67 v=63
3444 Off ch=8 n=67 v=0
3456 On ch=8 n=67 v=62
3572 Off ch=8 n=67 v=0
3584 On ch=8 n=63 v=52
5236 Off ch=8 n=63 v=0
5248 On ch=8 n=67 v=65
5364 Off ch=8 n=67 v=0
5376 On ch=8 n=67 v=59
5492 Off ch=8 n=67 v=0
5504 On ch=8 n=67 v=61
5620 Off ch=8 n=67 v=0
5632 On ch=8 n=62 v=53
6605 Off ch=8 n=62 v=0
6656 On ch=8 n=67 v=68
7796 Off ch=8 n=67 v=0
7808 On ch=8 n=63 v=57
7924 Off ch=8 n=63 v=0
7936 On ch=8 n=63 v=62
8052 Off ch=8 n=63 v=0
8064 On ch=8 n=65 v=65
8180 Off ch=8 n=65 v=0
8192 On ch=8 n=67 v=62
8820 Off ch=8 n=67 v=0
8832 On ch=8 n=63 v=50
8948 Off ch=8 n=63 v=0
8960 On ch=8 n=63 v=57
9076 Off ch=8 n=63 v=0
9088 On ch=8 n=65 v=69
9204 Off ch=8 n=65 v=0
9216 On ch=8 n=67 v=63
9332 Off ch=8 n=67 v=0
9344 On ch=8 n=74 v=73
9460 Off ch=8 n=74 v=0
9472 On ch=8 n=74 v=72
9588 Off ch=8 n=74 v=0
9600 On ch=8 n=67 v=67
9698 On ch=8 n=60 v=115
9713 On ch=8 n=67 v=115
9716 Off ch=8 n=67 v=0
9728 Off ch=8 n=60 v=0
9728 On ch=8 n=75 v=115
9944 Off ch=8 n=67 v=0
9959 Off ch=8 n=75 v=0
10210 On ch=8 n=56 v=91
10225 On ch=8 n=66 v=91
10240 Off ch=8 n=56 v=0
10240 On ch=8 n=72 v=91
10456 Off ch=8 n=66 v=0
10471 Off ch=8 n=72 v=0
10722 On ch=8 n=55 v=86
10737 On ch=8 n=62 v=86
10752 Off ch=8 n=55 v=0
10752 On ch=8 n=71 v=86
10968 Off ch=8 n=62 v=0
10983 Off ch=8 n=71 v=0
11520 On ch=8 n=68 v=87
11636 Off ch=8 n=68 v=0
11648 On ch=8 n=68 v=91
11764 Off ch=8 n=68 v=0
11776 On ch=8 n=68 v=100
11892 Off ch=8 n=68 v=0
11904 On ch=8 n=65 v=91
13184 Off ch=8 n=65 v=0
13824 On ch=8 n=62 v=58
13940 Off ch=8 n=62 v=0
13952 On ch=8 n=62 v=56
14068 Off ch=8 n=62 v=0
14080 On ch=8 n=62 v=58
14196 Off ch=8 n=62 v=0
14208 On ch=8 n=59 v=57
15181 Off ch=8 n=59 v=0
15232 On ch=8 n=60 v=66
15463 Off ch=8 n=60 v=0
15872 On ch=8 n=62 v=55
15988 Off ch=8 n=62 v=0
16000 On ch=8 n=62 v=60
16116 Off ch=8 n=62 v=0
16128 On ch=8 n=62 v=61
16244 Off ch=8 n=62 v=0
16256 On ch=8 n=59 v=57
17229 Off ch=8 n=59 v=0
17280 On ch=8 n=60 v=66
17396 Off ch=8 n=60 v=0
17408 On ch=8 n=67 v=68
17524 Off ch=8 n=67 v=0
17536 On ch=8 n=67 v=62
17652 Off ch=8 n=67 v=0
17664 On ch=8 n=63 v=56
17780 Off ch=8 n=63 v=0
17792 On ch=8 n=65 v=66
18420 Off ch=8 n=65 v=0
18432 On ch=8 n=68 v=73
18548 Off ch=8 n=68 v=0
18560 On ch=8 n=68 v=67
18676 Off ch=8 n=68 v=0
18688 On ch=8 n=65 v=63
18804 Off ch=8 n=65 v=0
18816 On ch=8 n=67 v=76
19444 Off ch=8 n=67 v=0
19456 On ch=8 n=67 v=68
19572 Off ch=8 n=67 v=0
19584 On ch=8 n=67 v=70
19700 Off ch=8 n=67 v=0
19712 On ch=8 n=63 v=65
19828 Off ch=8 n=63 v=0
19840 On ch=8 n=68 v=96
19956 Off ch=8 n=68 v=0
19968 On ch=8 n=68 v=78
20084 Off ch=8 n=68 v=0
20096 On ch=8 n=68 v=75
20212 Off ch=8 n=68 v=0
20224 On ch=8 n=65 v=70
20340 Off ch=8 n=65 v=0
20352 On ch=8 n=70 v=98
20468 Off ch=8 n=70 v=0
20480 On ch=8 n=70 v=78
20596 Off ch=8 n=70 v=0
20608 On ch=8 n=70 v=79
20724 Off ch=8 n=70 v=0
20736 On ch=8 n=67 v=77
20852 Off ch=8 n=67 v=0
20864 On ch=8 n=72 v=106
20980 Off ch=8 n=72 v=0
20992 On ch=8 n=60 v=59
21108 Off ch=8 n=60 v=0
21120 On ch=8 n=60 v=81
21236 Off ch=8 n=60 v=0
21248 On ch=8 n=56 v=80
21364 Off ch=8 n=56 v=0
21376 On ch=8 n=64 v=115
21492 Off ch=8 n=64 v=0
21504 On ch=8 n=64 v=89
21620 Off ch=8 n=64 v=0
21632 On ch=8 n=64 v=86
21748 Off ch=8 n=64 v=0
21760 On ch=8 n=58 v=81
21876 Off ch=8 n=58 v=0
21888 On ch=8 n=65 v=123
22004 Off ch=8 n=65 v=0
22016 On ch=8 n=65 v=98
22132 Off ch=8 n=65 v=0
22144 On ch=8 n=65 v=89
22260 Off ch=8 n=65 v=0
22272 On ch=8 n=60 v=82
22388 Off ch=8 n=60 v=0
22400 On ch=8 n=68 v=127
22516 Off ch=8 n=68 v=0
22528 On ch=8 n=68 v=98
22644 Off ch=8 n=68 v=0
22656 On ch=8 n=68 v=96
22772 Off ch=8 n=68 v=0
22784 On ch=8 n=65 v=90
22900 Off ch=8 n=65 v=0
22912 On ch=8 n=67 v=97
23028 Off ch=8 n=67 v=0
23040 On ch=8 n=63 v=112
23040 On ch=8 n=72 v=112
23156 Off ch=8 n=63 v=0
23156 Off ch=8 n=72 v=0
23168 On ch=8 n=63 v=97
23168 On ch=8 n=72 v=97
23284 Off ch=8 n=63 v=0
23284 Off ch=8 n=72 v=0
23296 On ch=8 n=63 v=94
23296 On ch=8 n=72 v=94
23412 Off ch=8 n=63 v=0
23412 Off ch=8 n=72 v=0
23424 On ch=8 n=63 v=105
23424 On ch=8 n=72 v=105
23540 Off ch=8 n=63 v=0
23540 Off ch=8 n=72 v=0
23552 On ch=8 n=63 v=98
23552 On ch=8 n=72 v=98
23668 Off ch=8 n=63 v=0
23668 Off ch=8 n=72 v=0
23680 On ch=8 n=63 v=98
23680 On ch=8 n=72 v=98
23796 Off ch=8 n=63 v=0
23796 Off ch=8 n=72 v=0
23808 On ch=8 n=63 v=98
23808 On ch=8 n=72 v=98
23924 Off ch=8 n=63 v=0
23924 Off ch=8 n=72 v=0
23936 On ch=8 n=63 v=95
23936 On ch=8 n=72 v=95
24052 Off ch=8 n=63 v=0
24052 Off ch=8 n=72 v=0
24064 On ch=8 n=63 v=94
24064 On ch=8 n=72 v=94
24180 Off ch=8 n=63 v=0
24180 Off ch=8 n=72 v=0
24192 On ch=8 n=63 v=99
24192 On ch=8 n=72 v=99
24308 Off ch=8 n=63 v=0
24308 Off ch=8 n=72 v=0
24320 On ch=8 n=63 v=95
24320 On ch=8 n=72 v=95
24436 Off ch=8 n=63 v=0
24436 Off ch=8 n=72 v=0
24448 On ch=8 n=63 v=97
24448 On ch=8 n=72 v=97
24564 Off ch=8 n=63 v=0
24564 Off ch=8 n=72 v=0
24576 On ch=8 n=63 v=102
24576 On ch=8 n=72 v=102
24692 Off ch=8 n=63 v=0
24692 Off ch=8 n=72 v=0
24704 On ch=8 n=63 v=96
24704 On ch=8 n=72 v=96
24820 Off ch=8 n=63 v=0
24820 Off ch=8 n=72 v=0
24832 On ch=8 n=63 v=95
24832 On ch=8 n=72 v=95
24948 Off ch=8 n=63 v=0
24948 Off ch=8 n=72 v=0
24960 On ch=8 n=62 v=93
24960 On ch=8 n=71 v=93
25076 Off ch=8 n=62 v=0
25076 Off ch=8 n=71 v=0
25088 On ch=8 n=77 v=111
25204 Off ch=8 n=77 v=0
25216 On ch=8 n=74 v=99
25332 Off ch=8 n=74 v=0
25344 On ch=8 n=74 v=97
25460 Off ch=8 n=74 v=0
25472 On ch=8 n=71 v=94
25588 Off ch=8 n=71 v=0
25600 On ch=8 n=67 v=87
25716 Off ch=8 n=67 v=0
25728 On ch=8 n=65 v=87
25844 Off ch=8 n=65 v=0
25856 On ch=8 n=65 v=96
25972 Off ch=8 n=65 v=0
25984 On ch=8 n=62 v=88
26100 Off ch=8 n=62 v=0
26112 On ch=8 n=59 v=91
26228 Off ch=8 n=59 v=0
26240 On ch=8 n=55 v=91
26356 Off ch=8 n=55 v=0
26368 On ch=8 n=65 v=118
26484 Off ch=8 n=65 v=0
26496 On ch=8 n=62 v=92
26612 Off ch=8 n=62 v=0
26624 On ch=8 n=59 v=90
26740 Off ch=8 n=59 v=0
26752 On ch=8 n=60 v=101
26868 Off ch=8 n=60 v=0
26880 On ch=8 n=60 v=97
26996 Off ch=8 n=60 v=0
27008 On ch=8 n=72 v=127
27124 Off ch=8 n=72 v=0
27136 On ch=8 n=75 v=120
27252 Off ch=8 n=75 v=0
27264 On ch=8 n=75 v=114
27380 Off ch=8 n=75 v=0
27392 On ch=8 n=75 v=115
27508 Off ch=8 n=75 v=0
27520 On ch=8 n=72 v=100
27636 Off ch=8 n=72 v=0
27648 On ch=8 n=69 v=102
27764 Off ch=8 n=69 v=0
27776 On ch=8 n=69 v=113
27892 Off ch=8 n=69 v=0
27904 On ch=8 n=69 v=111
28020 Off ch=8 n=69 v=0
28032 On ch=8 n=66 v=104
28148 Off ch=8 n=66 v=0
28160 On ch=8 n=63 v=104
28276 Off ch=8 n=63 v=0
28288 On ch=8 n=63 v=109
28404 Off ch=8 n=63 v=0
28416 On ch=8 n=63 v=115
28532 Off ch=8 n=63 v=0
28544 On ch=8 n=60 v=104
28660 Off ch=8 n=60 v=0
28672 On ch=8 n=57 v=127
28672 On ch=8 n=69 v=127
28788 Off ch=8 n=57 v=0
28788 Off ch=8 n=69 v=0
28800 On ch=8 n=57 v=116
28800 On ch=8 n=69 v=116
28916 Off ch=8 n=57 v=0
28916 Off ch=8 n=69 v=0
28928 On ch=8 n=57 v=112
28928 On ch=8 n=69 v=112
29044 Off ch=8 n=57 v=0
29044 Off ch=8 n=69 v=0
29056 On ch=8 n=57 v=112
29056 On ch=8 n=69 v=112
29287 Off ch=8 n=57 v=0
29287 Off ch=8 n=69 v=0
30050 On ch=8 n=58 v=100
30065 On ch=8 n=65 v=100
30080 Off ch=8 n=58 v=0
30080 On ch=8 n=70 v=100
30296 Off ch=8 n=65 v=0
30311 Off ch=8 n=70 v=0
32640 On ch=8 n=67 v=53
33152 On ch=8 n=68 v=56
33162 Off ch=8 n=67 v=0
33638 Off ch=8 n=68 v=0
33664 On ch=8 n=68 v=59
34176 On ch=8 n=67 v=55
34186 Off ch=8 n=68 v=0
34662 Off ch=8 n=67 v=0
34688 On ch=8 n=67 v=60
35200 On ch=8 n=68 v=63
35210 Off ch=8 n=67 v=0
35686 Off ch=8 n=68 v=0
35712 On ch=8 n=68 v=63
36224 On ch=8 n=67 v=61
36234 Off ch=8 n=68 v=0
36710 Off ch=8 n=67 v=0
36736 On ch=8 n=67 v=60
37248 On ch=8 n=68 v=63
37258 Off ch=8 n=67 v=0
37734 Off ch=8 n=68 v=0
37760 On ch=8 n=68 v=65
38272 On ch=8 n=67 v=62
38282 Off ch=8 n=68 v=0
38758 Off ch=8 n=67 v=0
38784 On ch=8 n=67 v=56
39757 Off ch=8 n=67 v=0
39808 On ch=8 n=67 v=60
40320 On ch=8 n=65 v=60
40330 Off ch=8 n=67 v=0
40806 Off ch=8 n=65 v=0
40832 On ch=8 n=68 v=68
41344 On ch=8 n=70 v=74
41354 Off ch=8 n=68 v=0
41830 Off ch=8 n=70 v=0
41856 On ch=8 n=70 v=63
42368 On ch=8 n=68 v=60
42378 Off ch=8 n=70 v=0
42854 Off ch=8 n=68 v=0
42880 On ch=8 n=63 v=52
43136 On ch=8 n=65 v=56
43141 Off ch=8 n=63 v=0
43392 On ch=8 n=66 v=62
43397 Off ch=8 n=65 v=0
43648 On ch=8 n=65 v=61
43653 Off ch=8 n=66 v=0
43904 On ch=8 n=63 v=57
43909 Off ch=8 n=65 v=0
44160 On ch=8 n=65 v=64
44165 Off ch=8 n=63 v=0
44403 Off ch=8 n=65 v=0
44416 On ch=8 n=66 v=73
44672 On ch=8 n=65 v=73
44677 Off ch=8 n=66 v=0
44928 On ch=8 n=63 v=70
44933 Off ch=8 n=65 v=0
45184 On ch=8 n=65 v=70
45189 Off ch=8 n=63 v=0
45427 Off ch=8 n=65 v=0
45440 On ch=8 n=66 v=88
45696 On ch=8 n=65 v=84
45701 Off ch=8 n=66 v=0
45952 On ch=8 n=63 v=80
45957 Off ch=8 n=65 v=0
46208 On ch=8 n=65 v=83
46213 Off ch=8 n=63 v=0
46451 Off ch=8 n=65 v=0
46464 On ch=8 n=66 v=92
46720 On ch=8 n=65 v=87
46725 Off ch=8 n=66 v=0
46976 On ch=8 n=63 v=78
46981 Off ch=8 n=65 v=0
47232 On ch=8 n=65 v=101
47237 Off ch=8 n=63 v=0
47488 On ch=8 n=66 v=104
47493 Off ch=8 n=65 v=0
47744 On ch=8 n=65 v=93
47749 Off ch=8 n=66 v=0
48000 On ch=8 n=66 v=91
48005 Off ch=8 n=65 v=0
48256 On ch=8 n=69 v=109
48261 Off ch=8 n=66 v=0
48499 Off ch=8 n=69 v=0
48512 On ch=8 n=70 v=127
48512 On ch=8 n=82 v=127
49140 Off ch=8 n=70 v=0
49140 Off ch=8 n=82 v=0
49152 On ch=8 n=84 v=123
49210 Off ch=8 n=84 v=0
49280 On ch=8 n=82 v=109
49338 Off ch=8 n=82 v=0
49408 On ch=8 n=80 v=104
49466 Off ch=8 n=80 v=0
49536 On ch=8 n=80 v=110
49664 On ch=8 n=79 v=105
49666 Off ch=8 n=80 v=0
49785 Off ch=8 n=79 v=0
49792 On ch=8 n=77 v=102
49850 Off ch=8 n=77 v=0
49920 On ch=8 n=75 v=102
49978 Off ch=8 n=75 v=0
50048 On ch=8 n=75 v=113
50176 On ch=8 n=74 v=109
50178 Off ch=8 n=75 v=0
50297 Off ch=8 n=74 v=0
50304 On ch=8 n=72 v=105
50362 Off ch=8 n=72 v=0
50432 On ch=8 n=74 v=120
50490 Off ch=8 n=74 v=0
50560 On ch=8 n=77 v=126
50688 On ch=8 n=75 v=120
50690 Off ch=8 n=77 v=0
50809 Off ch=8 n=75 v=0
50816 On ch=8 n=70 v=98
50874 Off ch=8 n=70 v=0
50944 On ch=8 n=67 v=95
51002 Off ch=8 n=67 v=0
51072 On ch=8 n=74 v=127
51200 On ch=8 n=72 v=117
51202 Off ch=8 n=74 v=0
51321 Off ch=8 n=72 v=0
51328 On ch=8 n=68 v=101
51386 Off ch=8 n=68 v=0
51456 On ch=8 n=65 v=105
51514 Off ch=8 n=65 v=0
51584 On ch=8 n=72 v=127
51712 On ch=8 n=70 v=127
51714 Off ch=8 n=72 v=0
51833 Off ch=8 n=70 v=0
51840 On ch=8 n=67 v=103
51898 Off ch=8 n=67 v=0
51968 On ch=8 n=63 v=97
52026 Off ch=8 n=63 v=0
52096 On ch=8 n=58 v=101
52212 Off ch=8 n=58 v=0
52224 On ch=8 n=69 v=127
52352 On ch=8 n=70 v=127
52354 Off ch=8 n=69 v=0
52480 On ch=8 n=69 v=117
52482 Off ch=8 n=70 v=0
52608 On ch=8 n=70 v=117
52610 Off ch=8 n=69 v=0
52736 On ch=8 n=69 v=111
52738 Off ch=8 n=70 v=0
52864 On ch=8 n=70 v=119
52866 Off ch=8 n=69 v=0
52985 Off ch=8 n=70 v=0
52992 On ch=8 n=69 v=112
53108 Off ch=8 n=69 v=0
53120 On ch=8 n=70 v=119
53178 Off ch=8 n=70 v=0
53248 On ch=8 n=84 v=127
53306 Off ch=8 n=84 v=0
53376 On ch=8 n=82 v=106
53434 Off ch=8 n=82 v=0
53504 On ch=8 n=80 v=106
53562 Off ch=8 n=80 v=0
53632 On ch=8 n=80 v=107
53760 On ch=8 n=79 v=100
53762 Off ch=8 n=80 v=0
53881 Off ch=8 n=79 v=0
53888 On ch=8 n=77 v=106
53946 Off ch=8 n=77 v=0
54016 On ch=8 n=75 v=100
54074 Off ch=8 n=75 v=0
54144 On ch=8 n=75 v=112
54272 On ch=8 n=74 v=105
54274 Off ch=8 n=75 v=0
54393 Off ch=8 n=74 v=0
54400 On ch=8 n=72 v=102
54458 Off ch=8 n=72 v=0
54528 On ch=8 n=74 v=119
54586 Off ch=8 n=74 v=0
54656 On ch=8 n=77 v=125
54784 On ch=8 n=75 v=116
54786 Off ch=8 n=77 v=0
54905 Off ch=8 n=75 v=0
54912 On ch=8 n=70 v=98
54970 Off ch=8 n=70 v=0
55040 On ch=8 n=67 v=98
55098 Off ch=8 n=67 v=0
55168 On ch=8 n=74 v=127
55296 On ch=8 n=72 v=122
55298 Off ch=8 n=74 v=0
55417 Off ch=8 n=72 v=0
55424 On ch=8 n=68 v=100
55482 Off ch=8 n=68 v=0
55552 On ch=8 n=65 v=97
55610 Off ch=8 n=65 v=0
55680 On ch=8 n=72 v=127
55808 On ch=8 n=70 v=122
55810 Off ch=8 n=72 v=0
55929 Off ch=8 n=70 v=0
55936 On ch=8 n=67 v=107
55994 Off ch=8 n=67 v=0
56064 On ch=8 n=63 v=97
56122 Off ch=8 n=63 v=0
56192 On ch=8 n=58 v=101
56308 Off ch=8 n=58 v=0
56320 On ch=8 n=70 v=127
56436 Off ch=8 n=70 v=0
56448 On ch=8 n=82 v=127
56564 Off ch=8 n=82 v=0
56576 On ch=8 n=82 v=115
56692 Off ch=8 n=82 v=0
56704 On ch=8 n=63 v=86
58356 Off ch=8 n=63 v=0
58368 On ch=8 n=62 v=104
58484 Off ch=8 n=62 v=0
58496 On ch=8 n=62 v=110
58612 Off ch=8 n=62 v=0
58624 On ch=8 n=62 v=113
58740 Off ch=8 n=62 v=0
58752 On ch=8 n=63 v=119
60404 Off ch=8 n=63 v=0
60416 On ch=8 n=65 v=127
60416 On ch=8 n=74 v=127
60532 Off ch=8 n=65 v=0
60532 Off ch=8 n=74 v=0
60544 On ch=8 n=65 v=121
60544 On ch=8 n=74 v=121
60660 Off ch=8 n=65 v=0
60660 Off ch=8 n=74 v=0
60672 On ch=8 n=65 v=114
60672 On ch=8 n=74 v=114
60788 Off ch=8 n=65 v=0
60788 Off ch=8 n=74 v=0
60800 On ch=8 n=67 v=113
60800 On ch=8 n=75 v=113
61031 Off ch=8 n=67 v=0
61031 Off ch=8 n=75 v=0
61440 On ch=8 n=65 v=99
61440 On ch=8 n=74 v=99
61556 Off ch=8 n=65 v=0
61556 Off ch=8 n=74 v=0
61568 On ch=8 n=65 v=115
61568 On ch=8 n=74 v=115
61684 Off ch=8 n=65 v=0
61684 Off ch=8 n=74 v=0
61696 On ch=8 n=65 v=111
61696 On ch=8 n=74 v=111
61812 Off ch=8 n=65 v=0
61812 Off ch=8 n=74 v=0
61824 On ch=8 n=67 v=116
61824 On ch=8 n=75 v=116
62055 Off ch=8 n=67 v=0
62055 Off ch=8 n=75 v=0
62464 On ch=8 n=70 v=106
62464 On ch=8 n=77 v=106
62580 Off ch=8 n=70 v=0
62580 Off ch=8 n=77 v=0
62592 On ch=8 n=70 v=110
62592 On ch=8 n=77 v=110
62708 Off ch=8 n=70 v=0
62708 Off ch=8 n=77 v=0
62720 On ch=8 n=70 v=116
62720 On ch=8 n=77 v=116
62818 On ch=8 n=63 v=118
62833 On ch=8 n=70 v=118
62836 Off ch=8 n=70 v=0
62836 Off ch=8 n=77 v=0
62848 Off ch=8 n=63 v=0
62848 On ch=8 n=79 v=118
63064 Off ch=8 n=70 v=0
63079 Off ch=8 n=79 v=0
64512 On ch=8 n=67 v=104
64628 Off ch=8 n=67 v=0
64640 On ch=8 n=67 v=111
64756 Off ch=8 n=67 v=0
64768 On ch=8 n=67 v=116
64884 Off ch=8 n=67 v=0
64896 On ch=8 n=63 v=99
65664 Off ch=8 n=63 v=0
65792 On ch=8 n=65 v=101
65908 Off ch=8 n=65 v=0
65920 On ch=8 n=65 v=113
66036 Off ch=8 n=65 v=0
66048 On ch=8 n=65 v=113
66164 Off ch=8 n=65 v=0
66176 On ch=8 n=62 v=108
67456 Off ch=8 n=62 v=0
67584 On ch=8 n=67 v=55
67700 Off ch=8 n=67 v=0
67712 On ch=8 n=67 v=63
67828 Off ch=8 n=67 v=0
67840 On ch=8 n=67 v=55
67956 Off ch=8 n=67 v=0
67968 On ch=8 n=63 v=56
69620 Off ch=8 n=63 v=0
69632 On ch=8 n=67 v=67
69748 Off ch=8 n=67 v=0
69760 On ch=8 n=67 v=56
69876 Off ch=8 n=67 v=0
69888 On ch=8 n=67 v=64
70004 Off ch=8 n=67 v=0
70016 On ch=8 n=62 v=50
70989 Off ch=8 n=62 v=0
71040 On ch=8 n=67 v=69
72180 Off ch=8 n=67 v=0
72192 On ch=8 n=63 v=54
72308 Off ch=8 n=63 v=0
72320 On ch=8 n=63 v=61
72436 Off ch=8 n=63 v=0
72448 On ch=8 n=65 v=67
72564 Off ch=8 n=65 v=0
72576 On ch=8 n=67 v=64
73204 Off ch=8 n=67 v=0
73216 On ch=8 n=63 v=56
73332 Off ch=8 n=63 v=0
73344 On ch=8 n=63 v=54
73460 Off ch=8 n=63 v=0
73472 On ch=8 n=65 v=64
73588 Off ch=8 n=65 v=0
73600 On ch=8 n=67 v=68
73716 Off ch=8 n=67 v=0
73728 On ch=8 n=74 v=71
73844 Off ch=8 n=74 v=0
73856 On ch=8 n=74 v=74
73972 Off ch=8 n=74 v=0
73984 On ch=8 n=67 v=63
74082 On ch=8 n=60 v=113
74097 On ch=8 n=67 v=113
74100 Off ch=8 n=67 v=0
74112 Off ch=8 n=60 v=0
74112 On ch=8 n=75 v=113
74328 Off ch=8 n=67 v=0
74343 Off ch=8 n=75 v=0
74594 On ch=8 n=56 v=88
74609 On ch=8 n=66 v=88
74624 Off ch=8 n=56 v=0
74624 On ch=8 n=72 v=88
74840 Off ch=8 n=66 v=0
74855 Off ch=8 n=72 v=0
75106 On ch=8 n=55 v=87
75121 On ch=8 n=62 v=87
75136 Off ch=8 n=55 v=0
75136 On ch=8 n=71 v=87
75352 Off ch=8 n=62 v=0
75367 Off ch=8 n=71 v=0
75904 On ch=8 n=68 v=83
76020 Off ch=8 n=68 v=0
76032 On ch=8 n=68 v=98
76148 Off ch=8 n=68 v=0
76160 On ch=8 n=68 v=98
76276 Off ch=8 n=68 v=0
76288 On ch=8 n=65 v=90
77568 Off ch=8 n=65 v=0
78208 On ch=8 n=62 v=55
78324 Off ch=8 n=62 v=0
78336 On ch=8 n=62 v=59
78452 Off ch=8 n=62 v=0
78464 On ch=8 n=62 v=62
78580 Off ch=8 n=62 v=0
78592 On ch=8 n=59 v=59
79565 Off ch=8 n=59 v=0
79616 On ch=8 n=60 v=68
79847 Off ch=8 n=60 v=0
80256 On ch=8 n=62 v=58
80372 Off ch=8 n=62 v=0
80384 On ch=8 n=62 v=60
80500 Off ch=8 n=62 v=0
80512 On ch=8 n=62 v=63
80628 Off ch=8 n=62 v=0
80640 On ch=8 n=59 v=55
81613 Off ch=8 n=59 v=0
81664 On ch=8 n=60 v=66
81780 Off ch=8 n=60 v=0
81792 On ch=8 n=67 v=75
81908 Off ch=8 n=67 v=0
81920 On ch=8 n=67 v=63
82036 Off ch=8 n=67 v=0
82048 On ch=8 n=63 v=54
82164 Off ch=8 n=63 v=0
82176 On ch=8 n=65 v=64
82804 Off ch=8 n=65 v=0
82816 On ch=8 n=68 v=71
82932 Off ch=8 n=68 v=0
82944 On ch=8 n=68 v=64
83060 Off ch=8 n=68 v=0
83072 On ch=8 n=65 v=60
83188 Off ch=8 n=65 v=0
83200 On ch=8 n=67 v=71
83828 Off ch=8 n=67 v=0
83840 On ch=8 n=67 v=66
83956 Off ch=8 n=67 v=0
83968 On ch=8 n=67 v=70
84084 Off ch=8 n=67 v=0
84096 On ch=8 n=63 v=65
84212 Off ch=8 n=63 v=0
84224 On ch=8 n=68 v=92
84340 Off ch=8 n=68 v=0
84352 On ch=8 n=68 v=76
84468 Off ch=8 n=68 v=0
84480 On ch=8 n=68 v=77
84596 Off ch=8 n=68 v=0
84608 On ch=8 n=65 v=68
84724 Off ch=8 n=65 v=0
84736 On ch=8 n=70 v=99
84852 Off ch=8 n=70 v=0
84864 On ch=8 n=70 v=82
84980 Off ch=8 n=70 v=0
84992 On ch=8 n=70 v=85
85108 Off ch=8 n=70 v=0
85120 On ch=8 n=67 v=76
85236 Off ch=8 n=67 v=0
85248 On ch=8 n=72 v=111
85364 Off ch=8 n=72 v=0
85376 On ch=8 n=60 v=64
85492 Off ch=8 n=60 v=0
85504 On ch=8 n=60 v=75
85620 Off ch=8 n=60 v=0
85632 On ch=8 n=56 v=77
85748 Off ch=8 n=56 v=0
85760 On ch=8 n=64 v=123
85876 Off ch=8 n=64 v=0
85888 On ch=8 n=64 v=85
86004 Off ch=8 n=64 v=0
86016 On ch=8 n=64 v=87
86132 Off ch=8 n=64 v=0
86144 On ch=8 n=58 v=81
86260 Off ch=8 n=58 v=0
86272 On ch=8 n=65 v=120
86388 Off ch=8 n=65 v=0
86400 On ch=8 n=65 v=96
86516 Off ch=8 n=65 v=0
86528 On ch=8 n=65 v=90
86644 Off ch=8 n=65 v=0
86656 On ch=8 n=60 v=81
86772 Off ch=8 n=60 v=0
86784 On ch=8 n=68 v=126
86900 Off ch=8 n=68 v=0
86912 On ch=8 n=68 v=94
87028 Off ch=8 n=68 v=0
87040 On ch=8 n=68 v=93
87156 Off ch=8 n=68 v=0
87168 On ch=8 n=65 v=87
87284 Off ch=8 n=65 v=0
87296 On ch=8 n=67 v=105
87412 Off ch=8 n=67 v=0
87424 On ch=8 n=63 v=108
87424 On ch=8 n=72 v=108
87540 Off ch=8 n=63 v=0
87540 Off ch=8 n=72 v=0
87552 On ch=8 n=63 v=98
87552 On ch=8 n=72 v=98
87668 Off ch=8 n=63 v=0
87668 Off ch=8 n=72 v=0
87680 On ch=8 n=63 v=92
87680 On ch=8 n=72 v=92
87796 Off ch=8 n=63 v=0
87796 Off ch=8 n=72 v=0
87808 On ch=8 n=63 v=97
87808 On ch=8 n=72 v=97
87924 Off ch=8 n=63 v=0
87924 Off ch=8 n=72 v=0
87936 On ch=8 n=63 v=98
87936 On ch=8 n=72 v=98
88052 Off ch=8 n=63 v=0
88052 Off ch=8 n=72 v=0
88064 On ch=8 n=63 v=95
88064 On ch=8 n=72 v=95
88180 Off ch=8 n=63 v=0
88180 Off ch=8 n=72 v=0
88192 On ch=8 n=63 v=96
88192 On ch=8 n=72 v=96
88308 Off ch=8 n=63 v=0
88308 Off ch=8 n=72 v=0
88320 On ch=8 n=63 v=98
88320 On ch=8 n=72 v=98
88436 Off ch=8 n=63 v=0
88436 Off ch=8 n=72 v=0
88448 On ch=8 n=63 v=99
88448 On ch=8 n=72 v=99
88564 Off ch=8 n=63 v=0
88564 Off ch=8 n=72 v=0
88576 On ch=8 n=63 v=100
88576 On ch=8 n=72 v=100
88692 Off ch=8 n=63 v=0
88692 Off ch=8 n=72 v=0
88704 On ch=8 n=63 v=98
88704 On ch=8 n=72 v=98
88820 Off ch=8 n=63 v=0
88820 Off ch=8 n=72 v=0
88832 On ch=8 n=63 v=98
88832 On ch=8 n=72 v=98
88948 Off ch=8 n=63 v=0
88948 Off ch=8 n=72 v=0
88960 On ch=8 n=63 v=98
88960 On ch=8 n=72 v=98
89076 Off ch=8 n=63 v=0
89076 Off ch=8 n=72 v=0
89088 On ch=8 n=63 v=99
89088 On ch=8 n=72 v=99
89204 Off ch=8 n=63 v=0
89204 Off ch=8 n=72 v=0
89216 On ch=8 n=63 v=96
89216 On ch=8 n=72 v=96
89332 Off ch=8 n=63 v=0
89332 Off ch=8 n=72 v=0
89344 On ch=8 n=62 v=94
89344 On ch=8 n=71 v=94
89460 Off ch=8 n=62 v=0
89460 Off ch=8 n=71 v=0
89472 On ch=8 n=77 v=114
89588 Off ch=8 n=77 v=0
89600 On ch=8 n=74 v=89
89716 Off ch=8 n=74 v=0
89728 On ch=8 n=74 v=96
89844 Off ch=8 n=74 v=0
89856 On ch=8 n=71 v=94
89972 Off ch=8 n=71 v=0
89984 On ch=8 n=67 v=85
90100 Off ch=8 n=67 v=0
90112 On ch=8 n=65 v=89
90228 Off ch=8 n=65 v=0
90240 On ch=8 n=65 v=98
90356 Off ch=8 n=65 v=0
90368 On ch=8 n=62 v=93
90484 Off ch=8 n=62 v=0
90496 On ch=8 n=59 v=95
90612 Off ch=8 n=59 v=0
90624 On ch=8 n=55 v=91
90740 Off ch=8 n=55 v=0
90752 On ch=8 n=65 v=126
90868 Off ch=8 n=65 v=0
90880 On ch=8 n=62 v=96
90996 Off ch=8 n=62 v=0
91008 On ch=8 n=59 v=92
91124 Off ch=8 n=59 v=0
91136 On ch=8 n=60 v=102
91252 Off ch=8 n=60 v=0
91264 On ch=8 n=60 v=95
91380 Off ch=8 n=60 v=0
91392 On ch=8 n=72 v=127
91508 Off ch=8 n=72 v=0
91520 On ch=8 n=75 v=127
91636 Off ch=8 n=75 v=0
91648 On ch=8 n=75 v=114
91764 Off ch=8 n=75 v=0
91776 On ch=8 n=75 v=114
91892 Off ch=8 n=75 v=0
91904 On ch=8 n=72 v=107
92020 Off ch=8 n=72 v=0
92032 On ch=8 n=69 v=101
92148 Off ch=8 n=69 v=0
92160 On ch=8 n=69 v=108
92276 Off ch=8 n=69 v=0
92288 On ch=8 n=69 v=116
92404 Off ch=8 n=69 v=0
92416 On ch=8 n=66 v=108
92532 Off ch=8 n=66 v=0
92544 On ch=8 n=63 v=98
92660 Off ch=8 n=63 v=0
92672 On ch=8 n=63 v=113
92788 Off ch=8 n=63 v=0
92800 On ch=8 n=63 v=117
92916 Off ch=8 n=63 v=0
92928 On ch=8 n=60 v=101
93044 Off ch=8 n=60 v=0
93056 On ch=8 n=57 v=127
93056 On ch=8 n=69 v=127
93172 Off ch=8 n=57 v=0
93172 Off ch=8 n=69 v=0
93184 On ch=8 n=57 v=118
93184 On ch=8 n=69 v=118
93300 Off ch=8 n=57 v=0
93300 Off ch=8 n=69 v=0
93312 On ch=8 n=57 v=113
93312 On ch=8 n=69 v=113
93428 Off ch=8 n=57 v=0
93428 Off ch=8 n=69 v=0
93440 On ch=8 n=57 v=112
93440 On ch=8 n=69 v=112
93671 Off ch=8 n=57 v=0
93671 Off ch=8 n=69 v=0
94434 On ch=8 n=58 v=102
94449 On ch=8 n=65 v=102
94464 Off ch=8 n=58 v=0
94464 On ch=8 n=70 v=102
94680 Off ch=8 n=65 v=0
94695 Off ch=8 n=70 v=0
97024 On ch=8 n=67 v=56
97536 On ch=8 n=68 v=51
97546 Off ch=8 n=67 v=0
98022 Off ch=8 n=68 v=0
98048 On ch=8 n=68 v=62
98560 On ch=8 n=67 v=59
98570 Off ch=8 n=68 v=0
99046 Off ch=8 n=67 v=0
99072 On ch=8 n=67 v=61
99584 On ch=8 n=68 v=60
99594 Off ch=8 n=67 v=0
100070 Off ch=8 n=68 v=0
100096 On ch=8 n=68 v=61
100608 On ch=8 n=67 v=60
100618 Off ch=8 n=68 v=0
101094 Off ch=8 n=67 v=0
101120 On ch=8 n=67 v=60
101632 On ch=8 n=68 v=65
101642 Off ch=8 n=67 v=0
102118 Off ch=8 n=68 v=0
102144 On ch=8 n=68 v=60
102656 On ch=8 n=67 v=60
102666 Off ch=8 n=68 v=0
103142 Off ch=8 n=67 v=0
103168 On ch=8 n=67 v=65
104141 Off ch=8 n=67 v=0
104192 On ch=8 n=67 v=61
104704 On ch=8 n=65 v=59
104714 Off ch=8 n=67 v=0
105190 Off ch=8 n=65 v=0
105216 On ch=8 n=68 v=68
105728 On ch=8 n=70 v=71
105738 Off ch=8 n=68 v=0
106214 Off ch=8 n=70 v=0
106240 On ch=8 n=70 v=58
106752 On ch=8 n=68 v=54
106762 Off ch=8 n=70 v=0
107238 Off ch=8 n=68 v=0
107264 On ch=8 n=63 v=56
107520 On ch=8 n=65 v=55
107525 Off ch=8 n=63 v=0
107776 On ch=8 n=66 v=64
107781 Off ch=8 n=65 v=0
108032 On ch=8 n=65 v=65
108037 Off ch=8 n=66 v=0
108288 On ch=8 n=63 v=58
108293 Off ch=8 n=65 v=0
108544 On ch=8 n=65 v=64
108549 Off ch=8 n=63 v=0
108787 Off ch=8 n=65 v=0
108800 On ch=8 n=66 v=75
109056 On ch=8 n=65 v=68
109061 Off ch=8 n=66 v=0
109312 On ch=8 n=63 v=68
109317 Off ch=8 n=65 v=0
109568 On ch=8 n=65 v=74
109573 Off ch=8 n=63 v=0
109811 Off ch=8 n=65 v=0
109824 On ch=8 n=66 v=89
110080 On ch=8 n=65 v=81
110085 Off ch=8 n=66 v=0
110336 On ch=8 n=63 v=78
110341 Off ch=8 n=65 v=0
110592 On ch=8 n=65 v=86
110597 Off ch=8 n=63 v=0
110835 Off ch=8 n=65 v=0
110848 On ch=8 n=66 v=90
111104 On ch=8 n=65 v=89
111109 Off ch=8 n=66 v=0
111360 On ch=8 n=63 v=81
111365 Off ch=8 n=65 v=0
111616 On ch=8 n=65 v=102
111621 Off ch=8 n=63 v=0
111872 On ch=8 n=66 v=106
111877 Off ch=8 n=65 v=0
112128 On ch=8 n=65 v=96
112133 Off ch=8 n=66 v=0
112384 On ch=8 n=66 v=102
112389 Off ch=8 n=65 v=0
112640 On ch=8 n=69 v=107
112645 Off ch=8 n=66 v=0
112883 Off ch=8 n=69 v=0
112896 On ch=8 n=70 v=127
112896 On ch=8 n=82 v=127
113524 Off ch=8 n=70 v=0
113524 Off ch=8 n=82 v=0
113536 On ch=8 n=84 v=119
113594 Off ch=8 n=84 v=0
113664 On ch=8 n=82 v=107
113722 Off ch=8 n=82 v=0
113792 On ch=8 n=80 v=108
113850 Off ch=8 n=80 v=0
113920 On ch=8 n=80 v=111
114048 On ch=8 n=79 v=106
114050 Off ch=8 n=80 v=0
114169 Off ch=8 n=79 v=0
114176 On ch=8 n=77 v=103
114234 Off ch=8 n=77 v=0
114304 On ch=8 n=75 v=107
114362 Off ch=8 n=75 v=0
114432 On ch=8 n=75 v=112
114560 On ch=8 n=74 v=113
114562 Off ch=8 n=75 v=0
114681 Off ch=8 n=74 v=0
114688 On ch=8 n=72 v=104
114746 Off ch=8 n=72 v=0
114816 On ch=8 n=74 v=117
114874 Off ch=8 n=74 v=0
114944 On ch=8 n=77 v=125
115072 On ch=8 n=75 v=123
115074 Off ch=8 n=77 v=0
115193 Off ch=8 n=75 v=0
115200 On ch=8 n=70 v=98
115258 Off ch=8 n=70 v=0
115328 On ch=8 n=67 v=101
115386 Off ch=8 n=67 v=0
115456 On ch=8 n=74 v=127
115584 On ch=8 n=72 v=122
115586 Off ch=8 n=74 v=0
115705 Off ch=8 n=72 v=0
115712 On ch=8 n=68 v=100
115770 Off ch=8 n=68 v=0
115840 On ch=8 n=65 v=100
115898 Off ch=8 n=65 v=0
115968 On ch=8 n=72 v=127
116096 On ch=8 n=70 v=124
116098 Off ch=8 n=72 v=0
116217 Off ch=8 n=70 v=0
116224 On ch=8 n=67 v=104
116282 Off ch=8 n=67 v=0
116352 On ch=8 n=63 v=102
116410 Off ch=8 n=63 v=0
116480 On ch=8 n=58 v=103
116596 Off ch=8 n=58 v=0
116608 On ch=8 n=69 v=127
116736 On ch=8 n=70 v=127
116738 Off ch=8 n=69 v=0
116864 On ch=8 n=69 v=109
116866 Off ch=8 n=70 v=0
116992 On ch=8 n=70 v=118
116994 Off ch=8 n=69 v=0
117120 On ch=8 n=69 v=111
117122 Off ch=8 n=70 v=0
117248 On ch=8 n=70 v=119
117250 Off ch=8 n=69 v=0
117369 Off ch=8 n=70 v=0
117376 On ch=8 n=69 v=113
117492 Off ch=8 n=69 v=0
117504 On ch=8 n=70 v=122
117562 Off ch=8 n=70 v=0
117632 On ch=8 n=84 v=127
117690 Off ch=8 n=84 v=0
117760 On ch=8 n=82 v=108
117818 Off ch=8 n=82 v=0
117888 On ch=8 n=80 v=104
117946 Off ch=8 n=80 v=0
118016 On ch=8 n=80 v=110
118144 On ch=8 n=79 v=108
118146 Off ch=8 n=80 v=0
118265 Off ch=8 n=79 v=0
118272 On ch=8 n=77 v=106
118330 Off ch=8 n=77 v=0
118400 On ch=8 n=75 v=102
118458 Off ch=8 n=75 v=0
118528 On ch=8 n=75 v=113
118656 On ch=8 n=74 v=108
118658 Off ch=8 n=75 v=0
118777 Off ch=8 n=74 v=0
118784 On ch=8 n=72 v=104
118842 Off ch=8 n=72 v=0
118912 On ch=8 n=74 v=114
118970 Off ch=8 n=74 v=0
119040 On ch=8 n=77 v=124
119168 On ch=8 n=75 v=116
119170 Off ch=8 n=77 v=0
119289 Off ch=8 n=75 v=0
119296 On ch=8 n=70 v=98
119354 Off ch=8 n=70 v=0
119424 On ch=8 n=67 v=99
119482 Off ch=8 n=67 v=0
119552 On ch=8 n=74 v=127
119680 On ch=8 n=72 v=119
119682 Off ch=8 n=74 v=0
119801 Off ch=8 n=72 v=0
119808 On ch=8 n=68 v=105
119866 Off ch=8 n=68 v=0
119936 On ch=8 n=65 v=99
119994 Off ch=8 n=65 v=0
120064 On ch=8 n=72 v=127
120192 On ch=8 n=70 v=123
120194 Off ch=8 n=72 v=0
120313 Off ch=8 n=70 v=0
120320 On ch=8 n=67 v=99
120378 Off ch=8 n=67 v=0
120448 On ch=8 n=63 v=99
120506 Off ch=8 n=63 v=0
120576 On ch=8 n=58 v=103
120692 Off ch=8 n=58 v=0
120704 On ch=8 n=70 v=127
120820 Off ch=8 n=70 v=0
120832 On ch=8 n=82 v=127
120948 Off ch=8 n=82 v=0
120960 On ch=8 n=82 v=124
121076 Off ch=8 n=82 v=0
121088 On ch=8 n=63 v=85
122740 Off ch=8 n=63 v=0
122752 On ch=8 n=62 v=107
122868 Off ch=8 n=62 v=0
122880 On ch=8 n=62 v=112
122996 Off ch=8 n=62 v=0
123008 On ch=8 n=62 v=115
123124 Off ch=8 n=62 v=0
123136 On ch=8 n=63 v=122
124788 Off ch=8 n=63 v=0
124800 On ch=8 n=65 v=127
124800 On ch=8 n=74 v=127
124916 Off ch=8 n=65 v=0
124916 Off ch=8 n=74 v=0
124928 On ch=8 n=65 v=122
124928 On ch=8 n=74 v=122
125044 Off ch=8 n=65 v=0
125044 Off ch=8 n=74 v=0
125056 On ch=8 n=65 v=112
125056 On ch=8 n=74 v=112
125172 Off ch=8 n=65 v=0
125172 Off ch=8 n=74 v=0
125184 On ch=8 n=67 v=118
125184 On ch=8 n=75 v=118
125415 Off ch=8 n=67 v=0
125415 Off ch=8 n=75 v=0
125824 On ch=8 n=65 v=101
125824 On ch=8 n=74 v=101
125940 Off ch=8 n=65 v=0
125940 Off ch=8 n=74 v=0
125952 On ch=8 n=65 v=113
125952 On ch=8 n=74 v=113
126068 Off ch=8 n=65 v=0
126068 Off ch=8 n=74 v=0
126080 On ch=8 n=65 v=114
126080 On ch=8 n=74 v=114
126196 Off ch=8 n=65 v=0
126196 Off ch=8 n=74 v=0
126208 On ch=8 n=67 v=119
126208 On ch=8 n=75 v=119
126439 Off ch=8 n=67 v=0
126439 Off ch=8 n=75 v=0
126848 On ch=8 n=70 v=99
126848 On ch=8 n=77 v=99
126964 Off ch=8 n=70 v=0
126964 Off ch=8 n=77 v=0
126976 On ch=8 n=70 v=111
126976 On ch=8 n=77 v=111
127092 Off ch=8 n=70 v=0
127092 Off ch=8 n=77 v=0
127104 On ch=8 n=70 v=112
127104 On ch=8 n=77 v=112
127202 On ch=8 n=63 v=122
127217 On ch=8 n=70 v=122
127220 Off ch=8 n=70 v=0
127220 Off ch=8 n=77 v=0
127232 Off ch=8 n=63 v=0
127232 On ch=8 n=79 v=122
127448 Off ch=8 n=70 v=0
127463 Off ch=8 n=79 v=0
129408 On ch=8 n=61 v=102
129524 Off ch=8 n=61 v=0
129536 On ch=8 n=61 v=113
129652 Off ch=8 n=61 v=0
129664 On ch=8 n=61 v=111
129780 Off ch=8 n=61 v=0
129792 On ch=8 n=60 v=107
131072 Off ch=8 n=60 v=0
131200 On ch=8 n=72 v=53
131316 Off ch=8 n=72 v=0
131328 On ch=8 n=72 v=60
131444 Off ch=8 n=72 v=0
131456 On ch=8 n=72 v=61
131572 Off ch=8 n=72 v=0
131584 On ch=8 n=68 v=57
133236 Off ch=8 n=68 v=0
133248 On ch=8 n=72 v=69
133364 Off ch=8 n=72 v=0
133376 On ch=8 n=72 v=63
133492 Off ch=8 n=72 v=0
133504 On ch=8 n=72 v=61
133620 Off ch=8 n=72 v=0
133632 On ch=8 n=67 v=51
135629 Off ch=8 n=67 v=0
135680 On ch=8 n=68 v=61
135796 Off ch=8 n=68 v=0
135808 On ch=8 n=68 v=65
135924 Off ch=8 n=68 v=0
135936 On ch=8 n=68 v=62
136052 Off ch=8 n=68 v=0
136064 On ch=8 n=70 v=64
136180 Off ch=8 n=70 v=0
136192 On ch=8 n=72 v=65
136820 Off ch=8 n=72 v=0
136832 On ch=8 n=68 v=58
136948 Off ch=8 n=68 v=0
136960 On ch=8 n=68 v=62
137076 Off ch=8 n=68 v=0
137088 On ch=8 n=70 v=65
137204 Off ch=8 n=70 v=0
137216 On ch=8 n=72 v=71
137959 Off ch=8 n=72 v=0
139904 On ch=8 n=63 v=54
140020 Off ch=8 n=63 v=0
140032 On ch=8 n=63 v=61
140148 Off ch=8 n=63 v=0
140160 On ch=8 n=65 v=66
140276 Off ch=8 n=65 v=0
140288 On ch=8 n=67 v=65
140916 Off ch=8 n=67 v=0
140928 On ch=8 n=63 v=53
141044 Off ch=8 n=63 v=0
141056 On ch=8 n=63 v=62
141172 Off ch=8 n=63 v=0
141184 On ch=8 n=65 v=64
141300 Off ch=8 n=65 v=0
141312 On ch=8 n=67 v=66
142285 Off ch=8 n=67 v=0
142336 On ch=8 n=69 v=75
142592 On ch=8 n=70 v=78
142597 Off ch=8 n=69 v=0
142848 On ch=8 n=72 v=90
142853 Off ch=8 n=70 v=0
143104 On ch=8 n=73 v=94
143109 Off ch=8 n=72 v=0
143347 Off ch=8 n=73 v=0
143360 On ch=8 n=74 v=66
143988 Off ch=8 n=74 v=0
144000 On ch=8 n=67 v=55
144116 Off ch=8 n=67 v=0
144128 On ch=8 n=67 v=57
144244 Off ch=8 n=67 v=0
144256 On ch=8 n=69 v=63
144372 Off ch=8 n=69 v=0
144384 On ch=8 n=66 v=59
144615 Off ch=8 n=66 v=0
145024 On ch=8 n=79 v=57
145140 Off ch=8 n=79 v=0
145152 On ch=8 n=79 v=60
145268 Off ch=8 n=79 v=0
145280 On ch=8 n=81 v=67
145396 Off ch=8 n=81 v=0
145408 On ch=8 n=78 v=57
145639 Off ch=8 n=78 v=0
145664 On ch=8 n=74 v=50
146036 Off ch=8 n=74 v=0
146048 On ch=8 n=67 v=46
146164 Off ch=8 n=67 v=0
146176 On ch=8 n=67 v=61
146292 Off ch=8 n=67 v=0
146304 On ch=8 n=69 v=66
146420 Off ch=8 n=69 v=0
146432 On ch=8 n=70 v=62
146663 Off ch=8 n=70 v=0
147072 On ch=8 n=65 v=57
147188 Off ch=8 n=65 v=0
147200 On ch=8 n=69 v=66
147316 Off ch=8 n=69 v=0
147328 On ch=8 n=70 v=63
147444 Off ch=8 n=70 v=0
147456 On ch=8 n=72 v=62
147687 Off ch=8 n=72 v=0
148096 On ch=8 n=65 v=53
148212 Off ch=8 n=65 v=0
148224 On ch=8 n=69 v=63
148340 Off ch=8 n=69 v=0
148352 On ch=8 n=70 v=70
148468 Off ch=8 n=70 v=0
148480 On ch=8 n=72 v=67
148711 Off ch=8 n=72 v=0
149120 On ch=8 n=67 v=52
149236 Off ch=8 n=67 v=0
149248 On ch=8 n=70 v=69
149364 Off ch=8 n=70 v=0
149376 On ch=8 n=72 v=72
149492 Off ch=8 n=72 v=0
149504 On ch=8 n=74 v=63
149735 Off ch=8 n=74 v=0
150144 On ch=8 n=67 v=55
150260 Off ch=8 n=67 v=0
150272 On ch=8 n=70 v=75
150388 Off ch=8 n=70 v=0
150400 On ch=8 n=72 v=78
150516 Off ch=8 n=72 v=0
150528 On ch=8 n=74 v=77
150644 Off ch=8 n=74 v=0
150656 On ch=8 n=70 v=60
150772 Off ch=8 n=70 v=0
150784 On ch=8 n=72 v=86
150900 Off ch=8 n=72 v=0
150912 On ch=8 n=74 v=90
151028 Off ch=8 n=74 v=0
151040 On ch=8 n=69 v=82
151156 Off ch=8 n=69 v=0
151168 On ch=8 n=69 v=116
151168 On ch=8 n=78 v=116
151284 Off ch=8 n=69 v=0
151284 Off ch=8 n=78 v=0
151296 On ch=8 n=69 v=97
151296 On ch=8 n=78 v=97
151412 Off ch=8 n=69 v=0
151412 Off ch=8 n=78 v=0
151424 On ch=8 n=69 v=97
151424 On ch=8 n=78 v=97
151540 Off ch=8 n=69 v=0
151540 Off ch=8 n=78 v=0
151552 On ch=8 n=69 v=95
151552 On ch=8 n=78 v=95
151668 Off ch=8 n=69 v=0
151668 Off ch=8 n=78 v=0
151680 On ch=8 n=69 v=97
151680 On ch=8 n=78 v=97
151796 Off ch=8 n=69 v=0
151796 Off ch=8 n=78 v=0
151808 On ch=8 n=69 v=94
151808 On ch=8 n=78 v=94
151924 Off ch=8 n=69 v=0
151924 Off ch=8 n=78 v=0
151936 On ch=8 n=69 v=100
151936 On ch=8 n=78 v=100
152052 Off ch=8 n=69 v=0
152052 Off ch=8 n=78 v=0
152064 On ch=8 n=69 v=96
152064 On ch=8 n=78 v=96
152295 Off ch=8 n=69 v=0
152295 Off ch=8 n=78 v=0
152704 On ch=8 n=67 v=87
152704 On ch=8 n=70 v=87
152820 Off ch=8 n=67 v=0
152820 Off ch=8 n=70 v=0
152832 On ch=8 n=67 v=96
152832 On ch=8 n=70 v=96
152948 Off ch=8 n=67 v=0
152948 Off ch=8 n=70 v=0
152960 On ch=8 n=67 v=96
152960 On ch=8 n=70 v=96
153076 Off ch=8 n=67 v=0
153076 Off ch=8 n=70 v=0
153088 On ch=8 n=67 v=95
153088 On ch=8 n=70 v=95
153204 Off ch=8 n=67 v=0
153204 Off ch=8 n=70 v=0
153216 On ch=8 n=70 v=118
153216 On ch=8 n=79 v=118
153332 Off ch=8 n=70 v=0
153332 Off ch=8 n=79 v=0
153344 On ch=8 n=70 v=104
153344 On ch=8 n=79 v=104
153460 Off ch=8 n=70 v=0
153460 Off ch=8 n=79 v=0
153472 On ch=8 n=70 v=95
153472 On ch=8 n=79 v=95
153588 Off ch=8 n=70 v=0
153588 Off ch=8 n=79 v=0
153600 On ch=8 n=70 v=96
153600 On ch=8 n=79 v=96
153716 Off ch=8 n=70 v=0
153716 Off ch=8 n=79 v=0
153728 On ch=8 n=70 v=97
153728 On ch=8 n=79 v=97
153844 Off ch=8 n=70 v=0
153844 Off ch=8 n=79 v=0
153856 On ch=8 n=70 v=97
153856 On ch=8 n=79 v=97
153972 Off ch=8 n=70 v=0
153972 Off ch=8 n=79 v=0
153984 On ch=8 n=70 v=97
153984 On ch=8 n=79 v=97
154100 Off ch=8 n=70 v=0
154100 Off ch=8 n=79 v=0
154112 On ch=8 n=70 v=100
154112 On ch=8 n=79 v=100
154343 Off ch=8 n=70 v=0
154343 Off ch=8 n=79 v=0
154752 On ch=8 n=70 v=92
154752 On ch=8 n=79 v=92
154868 Off ch=8 n=70 v=0
154868 Off ch=8 n=79 v=0
154880 On ch=8 n=70 v=107
154880 On ch=8 n=79 v=107
154996 Off ch=8 n=70 v=0
154996 Off ch=8 n=79 v=0
155008 On ch=8 n=70 v=104
155008 On ch=8 n=79 v=104
155124 Off ch=8 n=70 v=0
155124 Off ch=8 n=79 v=0
155136 On ch=8 n=70 v=104
155136 On ch=8 n=79 v=104
155367 Off ch=8 n=70 v=0
155367 Off ch=8 n=79 v=0
155904 On ch=8 n=73 v=99
156020 Off ch=8 n=73 v=0
156032 On ch=8 n=73 v=107
156148 Off ch=8 n=73 v=0
156160 On ch=8 n=73 v=103
156391 Off ch=8 n=73 v=0
156416 On ch=8 n=74 v=106
156532 Off ch=8 n=74 v=0
156544 On ch=8 n=74 v=106
156660 Off ch=8 n=74 v=0
156672 On ch=8 n=74 v=102
156788 Off ch=8 n=74 v=0
156800 On ch=8 n=74 v=112
156916 Off ch=8 n=74 v=0
156928 On ch=8 n=74 v=115
157044 Off ch=8 n=74 v=0
157056 On ch=8 n=74 v=113
157172 Off ch=8 n=74 v=0
157184 On ch=8 n=67 v=108
157645 Off ch=8 n=67 v=0
157696 On ch=8 n=69 v=127
158157 Off ch=8 n=69 v=0
158208 On ch=8 n=62 v=103
159975 Off ch=8 n=62 v=0
160000 On ch=8 n=66 v=126
160116 Off ch=8 n=66 v=0
160128 On ch=8 n=66 v=120
160244 Off ch=8 n=66 v=0
160256 On ch=8 n=69 v=124
160487 Off ch=8 n=69 v=0
160512 On ch=8 n=74 v=127
160628 Off ch=8 n=74 v=0
160640 On ch=8 n=74 v=115
160756 Off ch=8 n=74 v=0
160768 On ch=8 n=71 v=107
160884 Off ch=8 n=71 v=0
160896 On ch=8 n=67 v=98
161012 Off ch=8 n=67 v=0
161024 On ch=8 n=67 v=115
161140 Off ch=8 n=67 v=0
161152 On ch=8 n=67 v=113
161268 Off ch=8 n=67 v=0
161280 On ch=8 n=60 v=103
161741 Off ch=8 n=60 v=0
161792 On ch=8 n=62 v=127
162253 Off ch=8 n=62 v=0
162304 On ch=8 n=55 v=117
164071 Off ch=8 n=55 v=0
164096 On ch=8 n=59 v=123
164212 Off ch=8 n=59 v=0
164224 On ch=8 n=59 v=113
164340 Off ch=8 n=59 v=0
164352 On ch=8 n=62 v=124
164583 Off ch=8 n=62 v=0
164608 On ch=8 n=67 v=127
164724 Off ch=8 n=67 v=0
164736 On ch=8 n=67 v=115
164852 Off ch=8 n=67 v=0
164864 On ch=8 n=64 v=107
165095 Off ch=8 n=64 v=0
166400 On ch=8 n=58 v=101
166912 On ch=8 n=60 v=111
166922 Off ch=8 n=58 v=0
167398 Off ch=8 n=60 v=0
168448 On ch=8 n=58 v=112
168960 On ch=8 n=60 v=114
168970 Off ch=8 n=58 v=0
169446 Off ch=8 n=60 v=0
170496 On ch=8 n=61 v=116
171008 On ch=8 n=57 v=113
171018 Off ch=8 n=61 v=0
171494 Off ch=8 n=57 v=0
172544 On ch=8 n=65 v=127
173005 Off ch=8 n=65 v=0
173568 On ch=8 n=59 v=80
174029 Off ch=8 n=59 v=0
174592 On ch=8 n=56 v=66
175053 Off ch=8 n=56 v=0
175616 On ch=8 n=57 v=62
176077 Off ch=8 n=57 v=0
176640 On ch=8 n=57 v=55
177101 Off ch=8 n=57 v=0
177664 On ch=8 n=57 v=55
178125 Off ch=8 n=57 v=0
178688 On ch=8 n=57 v=48
179149 Off ch=8 n=57 v=0
179712 On ch=8 n=57 v=46
180173 Off ch=8 n=57 v=0
180736 On ch=8 n=57 v=53
181197 Off ch=8 n=57 v=0
181760 On ch=8 n=57 v=114
181876 Off ch=8 n=57 v=0
181888 On ch=8 n=62 v=127
182004 Off ch=8 n=62 v=0
182016 On ch=8 n=62 v=117
182132 Off ch=8 n=62 v=0
182144 On ch=8 n=62 v=108
182260 Off ch=8 n=62 v=0
182272 On ch=8 n=59 v=107
182733 Off ch=8 n=59 v=0
182784 On ch=8 n=60 v=118
183245 Off ch=8 n=60 v=0
183296 On ch=8 n=57 v=110
184269 Off ch=8 n=57 v=0
184832 On ch=8 n=56 v=46
185293 Off ch=8 n=56 v=0
185856 On ch=8 n=56 v=50
186317 Off ch=8 n=56 v=0
186880 On ch=8 n=56 v=50
187341 Off ch=8 n=56 v=0
187904 On ch=8 n=56 v=98
188135 Off ch=8 n=56 v=0
188544 On ch=8 n=68 v=87
188660 Off ch=8 n=68 v=0
188672 On ch=8 n=68 v=93
188788 Off ch=8 n=68 v=0
188800 On ch=8 n=68 v=93
188916 Off ch=8 n=68 v=0
188928 On ch=8 n=65 v=90
189556 Off ch=8 n=65 v=0
189568 On ch=8 n=68 v=111
189684 Off ch=8 n=68 v=0
189696 On ch=8 n=68 v=99
189812 Off ch=8 n=68 v=0
189824 On ch=8 n=68 v=102
189940 Off ch=8 n=68 v=0
189952 On ch=8 n=65 v=91
190580 Off ch=8 n=65 v=0
190592 On ch=8 n=68 v=107
190708 Off ch=8 n=68 v=0
190720 On ch=8 n=68 v=101
190836 Off ch=8 n=68 v=0
190848 On ch=8 n=68 v=91
190964 Off ch=8 n=68 v=0
190976 On ch=8 n=65 v=94
191092 Off ch=8 n=65 v=0
191104 On ch=8 n=68 v=103
191220 Off ch=8 n=68 v=0
191232 On ch=8 n=68 v=98
191348 Off ch=8 n=68 v=0
191360 On ch=8 n=68 v=97
191476 Off ch=8 n=68 v=0
191488 On ch=8 n=65 v=88
191604 Off ch=8 n=65 v=0
191616 On ch=8 n=68 v=107
191732 Off ch=8 n=68 v=0
191744 On ch=8 n=68 v=96
191860 Off ch=8 n=68 v=0
191872 On ch=8 n=68 v=95
191988 Off ch=8 n=68 v=0
192000 On ch=8 n=65 v=86
192116 Off ch=8 n=65 v=0
192128 On ch=8 n=67 v=104
192244 Off ch=8 n=67 v=0
192256 On ch=8 n=67 v=101
192372 Off ch=8 n=67 v=0
192384 On ch=8 n=67 v=97
192500 Off ch=8 n=67 v=0
192512 On ch=8 n=63 v=84
193280 Off ch=8 n=63 v=0
193408 On ch=8 n=65 v=89
193524 Off ch=8 n=65 v=0
193536 On ch=8 n=65 v=97
193652 Off ch=8 n=65 v=0
193664 On ch=8 n=65 v=94
193780 Off ch=8 n=65 v=0
193792 On ch=8 n=62 v=87
195072 Off ch=8 n=62 v=0
195200 On ch=8 n=67 v=54
195316 Off ch=8 n=67 v=0
195328 On ch=8 n=67 v=59
195444 Off ch=8 n=67 v=0
195456 On ch=8 n=67 v=63
195572 Off ch=8 n=67 v=0
195584 On ch=8 n=63 v=51
196839 Off ch=8 n=63 v=0
197248 On ch=8 n=67 v=53
197364 Off ch=8 n=67 v=0
197376 On ch=8 n=67 v=61
197492 Off ch=8 n=67 v=0
197504 On ch=8 n=67 v=61
197620 Off ch=8 n=67 v=0
197632 On ch=8 n=62 v=55
198887 Off ch=8 n=62 v=0
199808 On ch=8 n=63 v=57
199924 Off ch=8 n=63 v=0
199936 On ch=8 n=63 v=61
200052 Off ch=8 n=63 v=0
200064 On ch=8 n=65 v=65
200180 Off ch=8 n=65 v=0
200192 On ch=8 n=67 v=67
200820 Off ch=8 n=67 v=0
200832 On ch=8 n=63 v=53
200948 Off ch=8 n=63 v=0
200960 On ch=8 n=63 v=58
201076 Off ch=8 n=63 v=0
201088 On ch=8 n=65 v=62
201204 Off ch=8 n=65 v=0
201216 On ch=8 n=67 v=65
201332 Off ch=8 n=67 v=0
201344 On ch=8 n=59 v=58
201460 Off ch=8 n=59 v=0
201472 On ch=8 n=60 v=65
201588 Off ch=8 n=60 v=0
201600 On ch=8 n=62 v=59
201716 Off ch=8 n=62 v=0
201728 On ch=8 n=63 v=72
201959 Off ch=8 n=63 v=0
202240 On ch=8 n=56 v=74
202298 On ch=8 n=66 v=74
202356 On ch=8 n=72 v=74
202471 Off ch=8 n=56 v=0
202471 Off ch=8 n=66 v=0
202471 Off ch=8 n=72 v=0
202752 On ch=8 n=55 v=79
202799 On ch=8 n=62 v=79
202846 On ch=8 n=71 v=79
202893 On ch=8 n=79 v=79
202983 Off ch=8 n=55 v=0
202983 Off ch=8 n=62 v=0
202983 Off ch=8 n=71 v=0
202983 Off ch=8 n=79 v=0
206208 On ch=8 n=62 v=54
206324 Off ch=8 n=62 v=0
206336 On ch=8 n=62 v=61
206452 Off ch=8 n=62 v=0
206464 On ch=8 n=62 v=62
206580 Off ch=8 n=62 v=0
206592 On ch=8 n=59 v=58
207565 Off ch=8 n=59 v=0
207616 On ch=8 n=60 v=60
207732 Off ch=8 n=60 v=0
207744 On ch=8 n=68 v=74
207860 Off ch=8 n=68 v=0
207872 On ch=8 n=68 v=63
207988 Off ch=8 n=68 v=0
208000 On ch=8 n=68 v=60
208116 Off ch=8 n=68 v=0
208128 On ch=8 n=65 v=57
208244 Off ch=8 n=65 v=0
208256 On ch=8 n=62 v=50
208372 Off ch=8 n=62 v=0
208384 On ch=8 n=62 v=71
208500 Off ch=8 n=62 v=0
208512 On ch=8 n=62 v=67
208628 Off ch=8 n=62 v=0
208640 On ch=8 n=59 v=68
208756 Off ch=8 n=59 v=0
208768 On ch=8 n=56 v=65
208884 Off ch=8 n=56 v=0
208896 On ch=8 n=56 v=75
209012 Off ch=8 n=56 v=0
209024 On ch=8 n=56 v=70
209140 Off ch=8 n=56 v=0
209152 On ch=8 n=55 v=80
209268 Off ch=8 n=55 v=0
209280 On ch=8 n=62 v=101
209396 Off ch=8 n=62 v=0
209408 On ch=8 n=62 v=81
209524 Off ch=8 n=62 v=0
209536 On ch=8 n=62 v=80
209652 Off ch=8 n=62 v=0
209664 On ch=8 n=63 v=99
209780 Off ch=8 n=63 v=0
209792 On ch=8 n=63 v=94
209908 Off ch=8 n=63 v=0
209920 On ch=8 n=67 v=112
210036 Off ch=8 n=67 v=0
210048 On ch=8 n=67 v=101
210164 Off ch=8 n=67 v=0
210176 On ch=8 n=65 v=88
210804 Off ch=8 n=65 v=0
210816 On ch=8 n=68 v=109
210932 Off ch=8 n=68 v=0
210944 On ch=8 n=68 v=98
211060 Off ch=8 n=68 v=0
211072 On ch=8 n=65 v=88
211188 Off ch=8 n=65 v=0
211200 On ch=8 n=67 v=101
211828 Off ch=8 n=67 v=0
211840 On ch=8 n=67 v=99
211956 Off ch=8 n=67 v=0
211968 On ch=8 n=67 v=98
212084 Off ch=8 n=67 v=0
212096 On ch=8 n=63 v=92
212212 Off ch=8 n=63 v=0
212224 On ch=8 n=68 v=127
212340 Off ch=8 n=68 v=0
212352 On ch=8 n=68 v=103
212468 Off ch=8 n=68 v=0
212480 On ch=8 n=68 v=96
212596 Off ch=8 n=68 v=0
212608 On ch=8 n=65 v=92
212724 Off ch=8 n=65 v=0
212736 On ch=8 n=70 v=120
212852 Off ch=8 n=70 v=0
212864 On ch=8 n=70 v=103
212980 Off ch=8 n=70 v=0
212992 On ch=8 n=70 v=101
213108 Off ch=8 n=70 v=0
213120 On ch=8 n=67 v=88
213236 Off ch=8 n=67 v=0
213248 On ch=8 n=72 v=124
213364 Off ch=8 n=72 v=0
213376 On ch=8 n=60 v=73
213492 Off ch=8 n=60 v=0
213504 On ch=8 n=60 v=94
213620 Off ch=8 n=60 v=0
213632 On ch=8 n=56 v=90
213748 Off ch=8 n=56 v=0
213760 On ch=8 n=64 v=127
213876 Off ch=8 n=64 v=0
213888 On ch=8 n=64 v=101
214004 Off ch=8 n=64 v=0
214016 On ch=8 n=64 v=98
214132 Off ch=8 n=64 v=0
214144 On ch=8 n=58 v=92
214260 Off ch=8 n=58 v=0
214272 On ch=8 n=65 v=127
214388 Off ch=8 n=65 v=0
214400 On ch=8 n=65 v=97
214516 Off ch=8 n=65 v=0
214528 On ch=8 n=65 v=94
214644 Off ch=8 n=65 v=0
214656 On ch=8 n=60 v=86
214772 Off ch=8 n=60 v=0
214784 On ch=8 n=68 v=127
214900 Off ch=8 n=68 v=0
214912 On ch=8 n=68 v=100
215028 Off ch=8 n=68 v=0
215040 On ch=8 n=68 v=98
215156 Off ch=8 n=68 v=0
215168 On ch=8 n=65 v=87
215284 Off ch=8 n=65 v=0
215296 On ch=8 n=67 v=98
215412 Off ch=8 n=67 v=0
215424 On ch=8 n=63 v=109
215424 On ch=8 n=72 v=109
215540 Off ch=8 n=63 v=0
215540 Off ch=8 n=72 v=0
215552 On ch=8 n=63 v=102
215552 On ch=8 n=72 v=102
215668 Off ch=8 n=63 v=0
215668 Off ch=8 n=72 v=0
215680 On ch=8 n=63 v=98
215680 On ch=8 n=72 v=98
215796 Off ch=8 n=63 v=0
215796 Off ch=8 n=72 v=0
215808 On ch=8 n=63 v=99
215808 On ch=8 n=72 v=99
215924 Off ch=8 n=63 v=0
215924 Off ch=8 n=72 v=0
215936 On ch=8 n=63 v=101
215936 On ch=8 n=72 v=101
216052 Off ch=8 n=63 v=0
216052 Off ch=8 n=72 v=0
216064 On ch=8 n=63 v=98
216064 On ch=8 n=72 v=98
216180 Off ch=8 n=63 v=0
216180 Off ch=8 n=72 v=0
216192 On ch=8 n=63 v=98
216192 On ch=8 n=72 v=98
216308 Off ch=8 n=63 v=0
216308 Off ch=8 n=72 v=0
216320 On ch=8 n=63 v=100
216320 On ch=8 n=72 v=100
216436 Off ch=8 n=63 v=0
216436 Off ch=8 n=72 v=0
216448 On ch=8 n=63 v=99
216448 On ch=8 n=72 v=99
216564 Off ch=8 n=63 v=0
216564 Off ch=8 n=72 v=0
216576 On ch=8 n=63 v=99
216576 On ch=8 n=72 v=99
216692 Off ch=8 n=63 v=0
216692 Off ch=8 n=72 v=0
216704 On ch=8 n=63 v=99
216704 On ch=8 n=72 v=99
216820 Off ch=8 n=63 v=0
216820 Off ch=8 n=72 v=0
216832 On ch=8 n=63 v=100
216832 On ch=8 n=72 v=100
216948 Off ch=8 n=63 v=0
216948 Off ch=8 n=72 v=0
216960 On ch=8 n=63 v=97
216960 On ch=8 n=72 v=97
217076 Off ch=8 n=63 v=0
217076 Off ch=8 n=72 v=0
217088 On ch=8 n=63 v=97
217088 On ch=8 n=72 v=97
217204 Off ch=8 n=63 v=0
217204 Off ch=8 n=72 v=0
217216 On ch=8 n=63 v=97
217216 On ch=8 n=72 v=97
217332 Off ch=8 n=63 v=0
217332 Off ch=8 n=72 v=0
217344 On ch=8 n=62 v=91
217344 On ch=8 n=71 v=91
217460 Off ch=8 n=62 v=0
217460 Off ch=8 n=71 v=0
217472 On ch=8 n=77 v=117
217588 Off ch=8 n=77 v=0
217600 On ch=8 n=74 v=86
217716 Off ch=8 n=74 v=0
217728 On ch=8 n=74 v=94
217844 Off ch=8 n=74 v=0
217856 On ch=8 n=71 v=91
217972 Off ch=8 n=71 v=0
217984 On ch=8 n=67 v=87
218100 Off ch=8 n=67 v=0
218112 On ch=8 n=65 v=90
218228 Off ch=8 n=65 v=0
218240 On ch=8 n=65 v=101
218356 Off ch=8 n=65 v=0
218368 On ch=8 n=62 v=87
218484 Off ch=8 n=62 v=0
218496 On ch=8 n=59 v=94
218612 Off ch=8 n=59 v=0
218624 On ch=8 n=55 v=93
218740 Off ch=8 n=55 v=0
218752 On ch=8 n=65 v=119
218868 Off ch=8 n=65 v=0
218880 On ch=8 n=62 v=93
218996 Off ch=8 n=62 v=0
219008 On ch=8 n=59 v=91
219124 Off ch=8 n=59 v=0
219136 On ch=8 n=60 v=99
219252 Off ch=8 n=60 v=0
219264 On ch=8 n=60 v=96
219380 Off ch=8 n=60 v=0
219392 On ch=8 n=72 v=127
219508 Off ch=8 n=72 v=0
219520 On ch=8 n=87 v=127
219636 Off ch=8 n=87 v=0
219648 On ch=8 n=87 v=123
219764 Off ch=8 n=87 v=0
219776 On ch=8 n=87 v=115
219892 Off ch=8 n=87 v=0
219904 On ch=8 n=84 v=105
220020 Off ch=8 n=84 v=0
220032 On ch=8 n=81 v=103
220148 Off ch=8 n=81 v=0
220160 On ch=8 n=81 v=111
220276 Off ch=8 n=81 v=0
220288 On ch=8 n=81 v=114
220404 Off ch=8 n=81 v=0
220416 On ch=8 n=78 v=97
220532 Off ch=8 n=78 v=0
220544 On ch=8 n=75 v=98
220660 Off ch=8 n=75 v=0
220672 On ch=8 n=75 v=114
220788 Off ch=8 n=75 v=0
220800 On ch=8 n=75 v=109
220916 Off ch=8 n=75 v=0
220928 On ch=8 n=72 v=105
221044 Off ch=8 n=72 v=0
221056 On ch=8 n=69 v=100
221172 Off ch=8 n=69 v=0
221184 On ch=8 n=69 v=112
221300 Off ch=8 n=69 v=0
221312 On ch=8 n=69 v=113
221428 Off ch=8 n=69 v=0
221440 On ch=8 n=57 v=95
221671 Off ch=8 n=57 v=0
222464 On ch=8 n=55 v=103
222464 On ch=8 n=67 v=103
222695 Off ch=8 n=55 v=0
222695 Off ch=8 n=67 v=0
225024 On ch=8 n=64 v=59
225536 On ch=8 n=65 v=62
225546 Off ch=8 n=64 v=0
226022 Off ch=8 n=65 v=0
226048 On ch=8 n=65 v=58
226560 On ch=8 n=64 v=54
226570 Off ch=8 n=65 v=0
227046 Off ch=8 n=64 v=0
229120 On ch=8 n=64 v=62
229632 On ch=8 n=65 v=68
229642 Off ch=8 n=64 v=0
230118 Off ch=8 n=65 v=0
230144 On ch=8 n=65 v=61
230656 On ch=8 n=64 v=59
230666 Off ch=8 n=65 v=0
231142 Off ch=8 n=64 v=0
233216 On ch=8 n=70 v=67
233728 On ch=8 n=67 v=65
233738 Off ch=8 n=70 v=0
234214 Off ch=8 n=67 v=0
234240 On ch=8 n=67 v=59
234752 On ch=8 n=65 v=57
234762 Off ch=8 n=67 v=0
235238 Off ch=8 n=65 v=0
235264 On ch=8 n=69 v=65
236237 Off ch=8 n=69 v=0
236288 On ch=8 n=69 v=66
236800 On ch=8 n=67 v=66
236810 Off ch=8 n=69 v=0
237286 Off ch=8 n=67 v=0
237312 On ch=8 n=65 v=58
237568 On ch=8 n=67 v=63
237573 Off ch=8 n=65 v=0
237824 On ch=8 n=68 v=61
237829 Off ch=8 n=67 v=0
238080 On ch=8 n=67 v=61
238085 Off ch=8 n=68 v=0
238336 On ch=8 n=65 v=60
238341 Off ch=8 n=67 v=0
238592 On ch=8 n=67 v=64
238597 Off ch=8 n=65 v=0
238835 Off ch=8 n=67 v=0
238848 On ch=8 n=68 v=69
239104 On ch=8 n=67 v=66
239109 Off ch=8 n=68 v=0
239360 On ch=8 n=65 v=58
239365 Off ch=8 n=67 v=0
239616 On ch=8 n=67 v=75
239621 Off ch=8 n=65 v=0
239859 Off ch=8 n=67 v=0
239872 On ch=8 n=68 v=68
240128 On ch=8 n=67 v=68
240133 Off ch=8 n=68 v=0
240384 On ch=8 n=65 v=67
240389 Off ch=8 n=67 v=0
240640 On ch=8 n=67 v=72
240645 Off ch=8 n=65 v=0
240883 Off ch=8 n=67 v=0
240896 On ch=8 n=68 v=73
241152 On ch=8 n=67 v=71
241157 Off ch=8 n=68 v=0
241408 On ch=8 n=66 v=75
241413 Off ch=8 n=67 v=0
241664 On ch=8 n=67 v=79
241669 Off ch=8 n=66 v=0
241907 Off ch=8 n=67 v=0
241920 On ch=8 n=69 v=94
242176 On ch=8 n=67 v=90
242181 Off ch=8 n=69 v=0
242432 On ch=8 n=66 v=76
242437 Off ch=8 n=67 v=0
242688 On ch=8 n=67 v=84
242693 Off ch=8 n=66 v=0
242931 Off ch=8 n=67 v=0
242944 On ch=8 n=69 v=87
243200 On ch=8 n=67 v=87
243205 Off ch=8 n=69 v=0
243456 On ch=8 n=66 v=88
243461 Off ch=8 n=67 v=0
243712 On ch=8 n=67 v=90
243717 Off ch=8 n=66 v=0
243968 On ch=8 n=66 v=96
243973 Off ch=8 n=67 v=0
244224 On ch=8 n=67 v=101
244229 Off ch=8 n=66 v=0
244480 On ch=8 n=66 v=95
244485 Off ch=8 n=67 v=0
244736 On ch=8 n=67 v=98
244741 Off ch=8 n=66 v=0
244979 Off ch=8 n=67 v=0
244992 On ch=8 n=79 v=127
245620 Off ch=8 n=79 v=0
245632 On ch=8 n=81 v=121
245690 Off ch=8 n=81 v=0
245760 On ch=8 n=79 v=105
245818 Off ch=8 n=79 v=0
245888 On ch=8 n=77 v=106
245946 Off ch=8 n=77 v=0
246016 On ch=8 n=77 v=112
246144 On ch=8 n=76 v=108
246146 Off ch=8 n=77 v=0
246265 Off ch=8 n=76 v=0
246272 On ch=8 n=74 v=106
246330 Off ch=8 n=74 v=0
246400 On ch=8 n=72 v=106
246458 Off ch=8 n=72 v=0
246528 On ch=8 n=72 v=112
246656 On ch=8 n=71 v=109
246658 Off ch=8 n=72 v=0
246777 Off ch=8 n=71 v=0
246784 On ch=8 n=69 v=104
246842 Off ch=8 n=69 v=0
246912 On ch=8 n=71 v=119
246970 Off ch=8 n=71 v=0
247040 On ch=8 n=74 v=127
247168 On ch=8 n=72 v=124
247170 Off ch=8 n=74 v=0
247289 Off ch=8 n=72 v=0
247296 On ch=8 n=67 v=97
247354 Off ch=8 n=67 v=0
247424 On ch=8 n=64 v=102
247482 Off ch=8 n=64 v=0
247552 On ch=8 n=71 v=127
247680 On ch=8 n=69 v=122
247682 Off ch=8 n=71 v=0
247801 Off ch=8 n=69 v=0
247808 On ch=8 n=65 v=100
247866 Off ch=8 n=65 v=0
247936 On ch=8 n=62 v=102
247994 Off ch=8 n=62 v=0
248064 On ch=8 n=55 v=102
248180 Off ch=8 n=55 v=0
248192 On ch=8 n=55 v=112
248308 Off ch=8 n=55 v=0
248320 On ch=8 n=60 v=127
248436 Off ch=8 n=60 v=0
248448 On ch=8 n=60 v=114
248564 Off ch=8 n=60 v=0
248576 On ch=8 n=59 v=111
248634 Off ch=8 n=59 v=0
248704 On ch=8 n=66 v=127
248832 On ch=8 n=67 v=127
248834 Off ch=8 n=66 v=0
248960 On ch=8 n=66 v=112
248962 Off ch=8 n=67 v=0
249088 On ch=8 n=67 v=114
249090 Off ch=8 n=66 v=0
249216 On ch=8 n=66 v=109
249218 Off ch=8 n=67 v=0
249344 On ch=8 n=67 v=115
249346 Off ch=8 n=66 v=0
249472 On ch=8 n=66 v=109
249474 Off ch=8 n=67 v=0
249593 Off ch=8 n=66 v=0
249600 On ch=8 n=67 v=118
249658 Off ch=8 n=67 v=0
249728 On ch=8 n=81 v=127
249786 Off ch=8 n=81 v=0
249856 On ch=8 n=79 v=108
249914 Off ch=8 n=79 v=0
249984 On ch=8 n=77 v=102
250042 Off ch=8 n=77 v=0
250112 On ch=8 n=77 v=113
250240 On ch=8 n=76 v=110
250242 Off ch=8 n=77 v=0
250361 Off ch=8 n=76 v=0
250368 On ch=8 n=74 v=106
250426 Off ch=8 n=74 v=0
250496 On ch=8 n=72 v=100
250554 Off ch=8 n=72 v=0
250624 On ch=8 n=72 v=116
250752 On ch=8 n=71 v=112
250754 Off ch=8 n=72 v=0
250873 Off ch=8 n=71 v=0
250880 On ch=8 n=69 v=106
250938 Off ch=8 n=69 v=0
251008 On ch=8 n=71 v=116
251066 Off ch=8 n=71 v=0
251136 On ch=8 n=74 v=124
251264 On ch=8 n=72 v=121
251266 Off ch=8 n=74 v=0
251385 Off ch=8 n=72 v=0
251392 On ch=8 n=67 v=97
251450 Off ch=8 n=67 v=0
251520 On ch=8 n=64 v=104
251578 Off ch=8 n=64 v=0
251648 On ch=8 n=71 v=127
251776 On ch=8 n=69 v=124
251778 Off ch=8 n=71 v=0
251897 Off ch=8 n=69 v=0
251904 On ch=8 n=65 v=100
251962 Off ch=8 n=65 v=0
252032 On ch=8 n=62 v=104
252090 Off ch=8 n=62 v=0
252160 On ch=8 n=69 v=127
252288 On ch=8 n=67 v=116
252290 Off ch=8 n=69 v=0
252409 Off ch=8 n=67 v=0
252416 On ch=8 n=64 v=101
252474 Off ch=8 n=64 v=0
252544 On ch=8 n=60 v=99
252602 Off ch=8 n=60 v=0
252672 On ch=8 n=55 v=107
252788 Off ch=8 n=55 v=0
252800 On ch=8 n=67 v=127
252916 Off ch=8 n=67 v=0
252928 On ch=8 n=79 v=127
253044 Off ch=8 n=79 v=0
253056 On ch=8 n=79 v=118
253172 Off ch=8 n=79 v=0
253184 On ch=8 n=64 v=87
254836 Off ch=8 n=64 v=0
254848 On ch=8 n=59 v=102
254964 Off ch=8 n=59 v=0
254976 On ch=8 n=59 v=110
255092 Off ch=8 n=59 v=0
255104 On ch=8 n=59 v=114
255220 Off ch=8 n=59 v=0
255232 On ch=8 n=60 v=120
256884 Off ch=8 n=60 v=0
256896 On ch=8 n=62 v=127
256896 On ch=8 n=71 v=127
257012 Off ch=8 n=62 v=0
257012 Off ch=8 n=71 v=0
257024 On ch=8 n=62 v=118
257024 On ch=8 n=71 v=118
257140 Off ch=8 n=62 v=0
257140 Off ch=8 n=71 v=0
257152 On ch=8 n=62 v=114
257152 On ch=8 n=71 v=114
257268 Off ch=8 n=62 v=0
257268 Off ch=8 n=71 v=0
257280 On ch=8 n=64 v=122
257280 On ch=8 n=72 v=122
257511 Off ch=8 n=64 v=0
257511 Off ch=8 n=72 v=0
257920 On ch=8 n=62 v=103
257920 On ch=8 n=71 v=103
258036 Off ch=8 n=62 v=0
258036 Off ch=8 n=71 v=0
258048 On ch=8 n=62 v=111
258048 On ch=8 n=71 v=111
258164 Off ch=8 n=62 v=0
258164 Off ch=8 n=71 v=0
258176 On ch=8 n=62 v=107
258176 On ch=8 n=71 v=107
258292 Off ch=8 n=62 v=0
258292 Off ch=8 n=71 v=0
258304 On ch=8 n=64 v=115
258304 On ch=8 n=72 v=115
258535 Off ch=8 n=64 v=0
258535 Off ch=8 n=72 v=0
258944 On ch=8 n=71 v=101
258944 On ch=8 n=79 v=101
259060 Off ch=8 n=71 v=0
259060 Off ch=8 n=79 v=0
259072 On ch=8 n=71 v=115
259072 On ch=8 n=79 v=115
259188 Off ch=8 n=71 v=0
259188 Off ch=8 n=79 v=0
259200 On ch=8 n=71 v=118
259200 On ch=8 n=79 v=118
259316 Off ch=8 n=71 v=0
259316 Off ch=8 n=79 v=0
259328 On ch=8 n=76 v=114
259956 Off ch=8 n=76 v=0
259968 On ch=8 n=76 v=113
260084 Off ch=8 n=76 v=0
260096 On ch=8 n=76 v=113
260212 Off ch=8 n=76 v=0
260224 On ch=8 n=76 v=115
260340 Off ch=8 n=76 v=0
260352 On ch=8 n=72 v=127
260352 On ch=8 n=77 v=127
260980 Off ch=8 n=72 v=0
260980 Off ch=8 n=77 v=0
260992 On ch=8 n=72 v=113
260992 On ch=8 n=77 v=113
261108 Off ch=8 n=72 v=0
261108 Off ch=8 n=77 v=0
261120 On ch=8 n=72 v=112
261120 On ch=8 n=77 v=112
261236 Off ch=8 n=72 v=0
261236 Off ch=8 n=77 v=0
261248 On ch=8 n=72 v=112
261248 On ch=8 n=77 v=112
261364 Off ch=8 n=72 v=0
261364 Off ch=8 n=77 v=0
261376 On ch=8 n=72 v=127
261376 On ch=8 n=79 v=127
262004 Off ch=8 n=72 v=0
262004 Off ch=8 n=79 v=0
262016 On ch=8 n=72 v=115
262016 On ch=8 n=79 v=115
262132 Off ch=8 n=72 v=0
262132 Off ch=8 n=79 v=0
262144 On ch=8 n=72 v=114
262144 On ch=8 n=79 v=114
262260 Off ch=8 n=72 v=0
262260 Off ch=8 n=79 v=0
262272 On ch=8 n=72 v=112
262272 On ch=8 n=79 v=112
262388 Off ch=8 n=72 v=0
262388 Off ch=8 n=79 v=0
262400 On ch=8 n=72 v=127
262400 On ch=8 n=80 v=127
263028 Off ch=8 n=72 v=0
263028 Off ch=8 n=80 v=0
263040 On ch=8 n=72 v=116
263040 On ch=8 n=80 v=116
263156 Off ch=8 n=72 v=0
263156 Off ch=8 n=80 v=0
263168 On ch=8 n=72 v=113
263168 On ch=8 n=80 v=113
263284 Off ch=8 n=72 v=0
263284 Off ch=8 n=80 v=0
263296 On ch=8 n=72 v=114
263296 On ch=8 n=80 v=114
263412 Off ch=8 n=72 v=0
263412 Off ch=8 n=80 v=0
263424 On ch=8 n=73 v=93
263540 Off ch=8 n=73 v=0
263552 On ch=8 n=73 v=109
263668 Off ch=8 n=73 v=0
263680 On ch=8 n=73 v=115
263796 Off ch=8 n=73 v=0
263808 On ch=8 n=73 v=115
263924 Off ch=8 n=73 v=0
263936 On ch=8 n=73 v=113
264052 Off ch=8 n=73 v=0
264064 On ch=8 n=73 v=114
264180 Off ch=8 n=73 v=0
264192 On ch=8 n=73 v=109
264308 Off ch=8 n=73 v=0
264320 On ch=8 n=73 v=116
264436 Off ch=8 n=73 v=0
264448 On ch=8 n=73 v=114
264564 Off ch=8 n=73 v=0
264576 On ch=8 n=73 v=110
264692 Off ch=8 n=73 v=0
264704 On ch=8 n=73 v=112
264820 Off ch=8 n=73 v=0
264832 On ch=8 n=73 v=109
264948 Off ch=8 n=73 v=0
264960 On ch=8 n=73 v=115
265076 Off ch=8 n=73 v=0
265088 On ch=8 n=73 v=114
265204 Off ch=8 n=73 v=0
265216 On ch=8 n=73 v=115
265332 Off ch=8 n=73 v=0
265344 On ch=8 n=73 v=114
265460 Off ch=8 n=73 v=0
265472 On ch=8 n=73 v=116
265703 Off ch=8 n=73 v=0
267648 On ch=8 n=75 v=103
267648 On ch=8 n=84 v=103
267764 Off ch=8 n=75 v=0
267764 Off ch=8 n=84 v=0
267776 On ch=8 n=75 v=112
267776 On ch=8 n=84 v=112
267892 Off ch=8 n=75 v=0
267892 Off ch=8 n=84 v=0
267904 On ch=8 n=75 v=113
267904 On ch=8 n=84 v=113
268020 Off ch=8 n=75 v=0
268020 Off ch=8 n=84 v=0
268032 On ch=8 n=75 v=114
268032 On ch=8 n=84 v=114
268148 Off ch=8 n=75 v=0
268148 Off ch=8 n=84 v=0
268160 On ch=8 n=75 v=116
268160 On ch=8 n=84 v=116
268276 Off ch=8 n=75 v=0
268276 Off ch=8 n=84 v=0
268288 On ch=8 n=75 v=110
268288 On ch=8 n=84 v=110
268404 Off ch=8 n=75 v=0
268404 Off ch=8 n=84 v=0
268416 On ch=8 n=75 v=117
268416 On ch=8 n=84 v=117
268532 Off ch=8 n=75 v=0
268532 Off ch=8 n=84 v=0
268544 On ch=8 n=75 v=115
268544 On ch=8 n=84 v=115
268660 Off ch=8 n=75 v=0
268660 Off ch=8 n=84 v=0
268672 On ch=8 n=75 v=109
268672 On ch=8 n=84 v=109
268788 Off ch=8 n=75 v=0
268788 Off ch=8 n=84 v=0
268800 On ch=8 n=75 v=114
268800 On ch=8 n=84 v=114
268916 Off ch=8 n=75 v=0
268916 Off ch=8 n=84 v=0
268928 On ch=8 n=75 v=120
268928 On ch=8 n=84 v=120
269044 Off ch=8 n=75 v=0
269044 Off ch=8 n=84 v=0
269056 On ch=8 n=75 v=115
269056 On ch=8 n=84 v=115
269172 Off ch=8 n=75 v=0
269172 Off ch=8 n=84 v=0
269184 On ch=8 n=75 v=115
269184 On ch=8 n=84 v=115
269300 Off ch=8 n=75 v=0
269300 Off ch=8 n=84 v=0
269312 On ch=8 n=75 v=111
269312 On ch=8 n=84 v=111
269428 Off ch=8 n=75 v=0
269428 Off ch=8 n=84 v=0
269440 On ch=8 n=75 v=115
269440 On ch=8 n=84 v=115
269556 Off ch=8 n=75 v=0
269556 Off ch=8 n=84 v=0
269568 On ch=8 n=75 v=114
269568 On ch=8 n=84 v=114
269684 Off ch=8 n=75 v=0
269684 Off ch=8 n=84 v=0
269696 On ch=8 n=75 v=116
269696 On ch=8 n=84 v=116
269812 Off ch=8 n=75 v=0
269812 Off ch=8 n=84 v=0
269824 On ch=8 n=75 v=108
269824 On ch=8 n=84 v=108
269940 Off ch=8 n=75 v=0
269940 Off ch=8 n=84 v=0
269952 On ch=8 n=75 v=110
269952 On ch=8 n=84 v=110
270068 Off ch=8 n=75 v=0
270068 Off ch=8 n=84 v=0
270080 On ch=8 n=75 v=111
270080 On ch=8 n=84 v=111
270311 Off ch=8 n=75 v=0
270311 Off ch=8 n=84 v=0
272640 On ch=8 n=71 v=103
272768 On ch=8 n=72 v=108
272770 Off ch=8 n=71 v=0
272896 On ch=8 n=74 v=118
272898 Off ch=8 n=72 v=0
273024 On ch=8 n=75 v=124
273026 Off ch=8 n=74 v=0
273152 On ch=8 n=77 v=122
273154 Off ch=8 n=75 v=0
273280 On ch=8 n=79 v=127
273282 Off ch=8 n=77 v=0
273408 On ch=8 n=80 v=120
273410 Off ch=8 n=79 v=0
273536 On ch=8 n=79 v=115
273538 Off ch=8 n=80 v=0
273664 On ch=8 n=80 v=113
273666 Off ch=8 n=79 v=0
273792 On ch=8 n=79 v=105
273794 Off ch=8 n=80 v=0
273920 On ch=8 n=80 v=121
273922 Off ch=8 n=79 v=0
274048 On ch=8 n=79 v=118
274050 Off ch=8 n=80 v=0
274169 Off ch=8 n=79 v=0
274688 On ch=8 n=71 v=90
274816 On ch=8 n=72 v=92
274818 Off ch=8 n=71 v=0
274944 On ch=8 n=74 v=125
274946 Off ch=8 n=72 v=0
275072 On ch=8 n=75 v=127
275074 Off ch=8 n=74 v=0
275200 On ch=8 n=77 v=121
275202 Off ch=8 n=75 v=0
275328 On ch=8 n=79 v=127
275330 Off ch=8 n=77 v=0
275456 On ch=8 n=80 v=120
275458 Off ch=8 n=79 v=0
275584 On ch=8 n=79 v=115
275586 Off ch=8 n=80 v=0
275712 On ch=8 n=80 v=120
275714 Off ch=8 n=79 v=0
275840 On ch=8 n=79 v=115
275842 Off ch=8 n=80 v=0
275968 On ch=8 n=80 v=115
275970 Off ch=8 n=79 v=0
276096 On ch=8 n=79 v=109
276098 Off ch=8 n=80 v=0
276217 Off ch=8 n=79 v=0
276224 On ch=8 n=80 v=120
276340 Off ch=8 n=80 v=0
276352 On ch=8 n=79 v=103
276468 Off ch=8 n=79 v=0
276480 On ch=8 n=82 v=122
276596 Off ch=8 n=82 v=0
276608 On ch=8 n=80 v=109
276724 Off ch=8 n=80 v=0
276736 On ch=8 n=79 v=104
276852 Off ch=8 n=79 v=0
276864 On ch=8 n=77 v=108
276980 Off ch=8 n=77 v=0
276992 On ch=8 n=80 v=121
277108 Off ch=8 n=80 v=0
277120 On ch=8 n=79 v=106
277236 Off ch=8 n=79 v=0
277248 On ch=8 n=77 v=104
277364 Off ch=8 n=77 v=0
277376 On ch=8 n=75 v=106
277492 Off ch=8 n=75 v=0
277504 On ch=8 n=79 v=125
277620 Off ch=8 n=79 v=0
277632 On ch=8 n=77 v=110
277748 Off ch=8 n=77 v=0
277760 On ch=8 n=75 v=111
277876 Off ch=8 n=75 v=0
277888 On ch=8 n=74 v=107
278004 Off ch=8 n=74 v=0
278016 On ch=8 n=77 v=120
278132 Off ch=8 n=77 v=0
278144 On ch=8 n=75 v=107
278260 Off ch=8 n=75 v=0
278272 On ch=8 n=74 v=112
278388 Off ch=8 n=74 v=0
278400 On ch=8 n=72 v=102
278516 Off ch=8 n=72 v=0
278528 On ch=8 n=75 v=127
278644 Off ch=8 n=75 v=0
278656 On ch=8 n=74 v=111
278772 Off ch=8 n=74 v=0
278784 On ch=8 n=72 v=107
278900 Off ch=8 n=72 v=0
278912 On ch=8 n=70 v=105
279028 Off ch=8 n=70 v=0
279040 On ch=8 n=74 v=124
279156 Off ch=8 n=74 v=0
279168 On ch=8 n=72 v=109
279284 Off ch=8 n=72 v=0
279296 On ch=8 n=70 v=103
279412 Off ch=8 n=70 v=0
279424 On ch=8 n=68 v=104
279540 Off ch=8 n=68 v=0
279552 On ch=8 n=72 v=118
279668 Off ch=8 n=72 v=0
279680 On ch=8 n=70 v=105
279796 Off ch=8 n=70 v=0
279808 On ch=8 n=68 v=104
279924 Off ch=8 n=68 v=0
279936 On ch=8 n=67 v=110
280052 Off ch=8 n=67 v=0
280064 On ch=8 n=70 v=121
280180 Off ch=8 n=70 v=0
280192 On ch=8 n=68 v=108
280308 Off ch=8 n=68 v=0
280320 On ch=8 n=65 v=102
280436 Off ch=8 n=65 v=0
280448 On ch=8 n=67 v=120
280564 Off ch=8 n=67 v=0
280576 On ch=8 n=63 v=105
280692 Off ch=8 n=63 v=0
280704 On ch=8 n=67 v=125
280820 Off ch=8 n=67 v=0
280832 On ch=8 n=62 v=101
280948 Off ch=8 n=62 v=0
280960 On ch=8 n=67 v=127
281076 Off ch=8 n=67 v=0
281088 On ch=8 n=63 v=102
281204 Off ch=8 n=63 v=0
281216 On ch=8 n=67 v=125
281332 Off ch=8 n=67 v=0
281344 On ch=8 n=65 v=105
281460 Off ch=8 n=65 v=0
281472 On ch=8 n=67 v=118
281588 Off ch=8 n=67 v=0
281600 On ch=8 n=63 v=101
281716 Off ch=8 n=63 v=0
281728 On ch=8 n=67 v=120
281844 Off ch=8 n=67 v=0
281856 On ch=8 n=65 v=109
281972 Off ch=8 n=65 v=0
281984 On ch=8 n=67 v=113
282100 Off ch=8 n=67 v=0
282112 On ch=8 n=67 v=113
282228 Off ch=8 n=67 v=0
282240 On ch=8 n=72 v=127
282356 Off ch=8 n=72 v=0
282368 On ch=8 n=68 v=103
282484 Off ch=8 n=68 v=0
282496 On ch=8 n=72 v=125
282612 Off ch=8 n=72 v=0
282624 On ch=8 n=67 v=101
282740 Off ch=8 n=67 v=0
282752 On ch=8 n=72 v=124
282868 Off ch=8 n=72 v=0
282880 On ch=8 n=68 v=101
282996 Off ch=8 n=68 v=0
283008 On ch=8 n=72 v=127
283124 Off ch=8 n=72 v=0
283136 On ch=8 n=71 v=111
283252 Off ch=8 n=71 v=0
283264 On ch=8 n=77 v=127
283380 Off ch=8 n=77 v=0
283392 On ch=8 n=72 v=100
283508 Off ch=8 n=72 v=0
283520 On ch=8 n=77 v=125
283636 Off ch=8 n=77 v=0
283648 On ch=8 n=71 v=101
283764 Off ch=8 n=71 v=0
283776 On ch=8 n=77 v=127
283892 Off ch=8 n=77 v=0
283904 On ch=8 n=72 v=100
284020 Off ch=8 n=72 v=0
284032 On ch=8 n=77 v=122
284148 Off ch=8 n=77 v=0
284160 On ch=8 n=74 v=107
284276 Off ch=8 n=74 v=0
284288 On ch=8 n=79 v=121
284404 Off ch=8 n=79 v=0
284416 On ch=8 n=75 v=116
284672 On ch=8 n=72 v=106
284677 Off ch=8 n=75 v=0
284915 Off ch=8 n=72 v=0
284928 On ch=8 n=74 v=120
285043 Off ch=8 n=74 v=0
285184 On ch=8 n=75 v=117
285299 Off ch=8 n=75 v=0
285440 On ch=8 n=77 v=127
285696 On ch=8 n=74 v=113
285701 Off ch=8 n=77 v=0
285939 Off ch=8 n=74 v=0
285952 On ch=8 n=75 v=114
286067 Off ch=8 n=75 v=0
286208 On ch=8 n=77 v=117
286323 Off ch=8 n=77 v=0
286464 On ch=8 n=79 v=120
286720 On ch=8 n=75 v=103
286725 Off ch=8 n=79 v=0
286963 Off ch=8 n=75 v=0
286976 On ch=8 n=77 v=113
287091 Off ch=8 n=77 v=0
287232 On ch=8 n=79 v=125
287347 Off ch=8 n=79 v=0
287488 On ch=8 n=80 v=116
287744 On ch=8 n=77 v=110
287749 Off ch=8 n=80 v=0
287987 Off ch=8 n=77 v=0
288000 On ch=8 n=79 v=118
288115 Off ch=8 n=79 v=0
288256 On ch=8 n=81 v=123
288371 Off ch=8 n=81 v=0
288512 On ch=8 n=83 v=118
288768 On ch=8 n=79 v=109
288773 Off ch=8 n=83 v=0
289011 Off ch=8 n=79 v=0
289024 On ch=8 n=81 v=115
289139 Off ch=8 n=81 v=0
289280 On ch=8 n=83 v=119
289395 Off ch=8 n=83 v=0
289536 On ch=8 n=84 v=124
289792 On ch=8 n=79 v=111
289797 Off ch=8 n=84 v=0
290035 Off ch=8 n=79 v=0
290048 On ch=8 n=80 v=114
290163 Off ch=8 n=80 v=0
290304 On ch=8 n=75 v=98
290419 Off ch=8 n=75 v=0
290560 On ch=8 n=77 v=117
290675 Off ch=8 n=77 v=0
290816 On ch=8 n=74 v=107
290931 Off ch=8 n=74 v=0
291072 On ch=8 n=75 v=118
291187 Off ch=8 n=75 v=0
291328 On ch=8 n=77 v=118
291443 Off ch=8 n=77 v=0
291584 On ch=8 n=79 v=117
291699 Off ch=8 n=79 v=0
291840 On ch=8 n=78 v=108
291955 Off ch=8 n=78 v=0
292096 On ch=8 n=79 v=119
292211 Off ch=8 n=79 v=0
292352 On ch=8 n=67 v=86
292467 Off ch=8 n=67 v=0
292608 On ch=8 n=72 v=124
292723 Off ch=8 n=72 v=0
294144 On ch=8 n=63 v=96
294259 Off ch=8 n=63 v=0
294400 On ch=8 n=65 v=117
294515 Off ch=8 n=65 v=0
294656 On ch=8 n=67 v=118
294912 On ch=8 n=63 v=113
294917 Off ch=8 n=67 v=0
295155 Off ch=8 n=63 v=0
296192 On ch=8 n=59 v=105
296307 Off ch=8 n=59 v=0
296448 On ch=8 n=60 v=118
296563 Off ch=8 n=60 v=0
296704 On ch=8 n=62 v=118
296960 On ch=8 n=59 v=117
296965 Off ch=8 n=62 v=0
297203 Off ch=8 n=59 v=0
298240 On ch=8 n=59 v=112
298355 Off ch=8 n=59 v=0
298496 On ch=8 n=60 v=118
298611 Off ch=8 n=60 v=0
298752 On ch=8 n=62 v=118
299008 On ch=8 n=59 v=117
299013 Off ch=8 n=62 v=0
299251 Off ch=8 n=59 v=0
301312 On ch=8 n=65 v=127
301568 On ch=8 n=63 v=123
301573 Off ch=8 n=65 v=0
301811 Off ch=8 n=63 v=0
302336 On ch=8 n=65 v=121
302592 On ch=8 n=63 v=115
302597 Off ch=8 n=65 v=0
302818 On ch=8 n=55 v=127
302818 On ch=8 n=63 v=127
302833 On ch=8 n=72 v=127
302835 Off ch=8 n=63 v=0
302848 Off ch=8 n=55 v=0
302848 Off ch=8 n=63 v=0
302848 On ch=8 n=79 v=127
303064 Off ch=8 n=72 v=0
303079 Off ch=8 n=79 v=0
303330 On ch=8 n=55 v=104
303330 On ch=8 n=62 v=104
303345 On ch=8 n=71 v=104
303360 Off ch=8 n=55 v=0
303360 Off ch=8 n=62 v=0
303360 On ch=8 n=79 v=104
303576 Off ch=8 n=71 v=0
303591 Off ch=8 n=79 v=0
303872 On ch=8 n=63 v=103
304128 On ch=8 n=70 v=117
304133 Off ch=8 n=63 v=0
304384 On ch=8 n=60 v=88
304389 Off ch=8 n=70 v=0
304640 On ch=8 n=67 v=99
304645 Off ch=8 n=60 v=0
304896 On ch=8 n=56 v=101
304901 Off ch=8 n=67 v=0
305152 On ch=8 n=63 v=120
305157 Off ch=8 n=56 v=0
305395 Off ch=8 n=63 v=0
305920 On ch=8 n=65 v=122
306176 On ch=8 n=63 v=113
306181 Off ch=8 n=65 v=0
306419 Off ch=8 n=63 v=0
306432 On ch=8 n=77 v=127
306688 On ch=8 n=75 v=123
306693 Off ch=8 n=77 v=0
306914 On ch=8 n=55 v=125
306914 On ch=8 n=63 v=125
306929 On ch=8 n=72 v=125
306931 Off ch=8 n=75 v=0
306944 Off ch=8 n=55 v=0
306944 Off ch=8 n=63 v=0
306944 On ch=8 n=79 v=125
307160 Off ch=8 n=72 v=0
307175 Off ch=8 n=79 v=0
307426 On ch=8 n=55 v=103
307426 On ch=8 n=62 v=103
307441 On ch=8 n=71 v=103
307456 Off ch=8 n=55 v=0
307456 Off ch=8 n=62 v=0
307456 On ch=8 n=79 v=103
307672 Off ch=8 n=71 v=0
307687 Off ch=8 n=79 v=0
307938 On ch=8 n=55 v=101
307968 On ch=8 n=63 v=101
307968 On ch=8 n=72 v=101
308054 Off ch=8 n=55 v=0
308084 Off ch=8 n=63 v=0
308084 Off ch=8 n=72 v=0
308096 On ch=8 n=67 v=98
308212 Off ch=8 n=67 v=0
308224 On ch=8 n=67 v=111
308340 Off ch=8 n=67 v=0
308352 On ch=8 n=67 v=113
308468 Off ch=8 n=67 v=0
308480 On ch=8 n=67 v=113
310644 Off ch=8 n=67 v=0
310656 On ch=8 n=67 v=110
310772 Off ch=8 n=67 v=0
310784 On ch=8 n=67 v=110
310900 Off ch=8 n=67 v=0
310912 On ch=8 n=67 v=111
311028 Off ch=8 n=67 v=0
311040 On ch=8 n=60 v=93
311156 Off ch=8 n=60 v=0
311168 On ch=8 n=67 v=127
311284 Off ch=8 n=67 v=0
311296 On ch=8 n=67 v=115
311412 Off ch=8 n=67 v=0
311424 On ch=8 n=67 v=111
311540 Off ch=8 n=67 v=0
311552 On ch=8 n=67 v=107
311668 Off ch=8 n=67 v=0
311680 On ch=8 n=67 v=114
311796 Off ch=8 n=67 v=0
311808 On ch=8 n=67 v=116
311924 Off ch=8 n=67 v=0
311936 On ch=8 n=67 v=114
312052 Off ch=8 n=67 v=0
312064 On ch=8 n=67 v=111
312180 Off ch=8 n=67 v=0
312192 On ch=8 n=67 v=111
312308 Off ch=8 n=67 v=0
312320 On ch=8 n=67 v=111
312436 Off ch=8 n=67 v=0
312448 On ch=8 n=67 v=111
312564 Off ch=8 n=67 v=0
312576 On ch=8 n=67 v=115
312692 Off ch=8 n=67 v=0
312704 On ch=8 n=67 v=114
312820 Off ch=8 n=67 v=0
312832 On ch=8 n=67 v=112
312948 Off ch=8 n=67 v=0
312960 On ch=8 n=67 v=108
313076 Off ch=8 n=67 v=0
313088 On ch=8 n=63 v=106
313856 Off ch=8 n=63 v=0
313984 On ch=8 n=65 v=102
314100 Off ch=8 n=65 v=0
314112 On ch=8 n=65 v=110
314228 Off ch=8 n=65 v=0
314240 On ch=8 n=65 v=108
314356 Off ch=8 n=65 v=0
314368 On ch=8 n=62 v=102
315648 Off ch=8 n=62 v=0
315776 On ch=8 n=67 v=44
315892 Off ch=8 n=67 v=0
315904 On ch=8 n=67 v=48
316020 Off ch=8 n=67 v=0
316032 On ch=8 n=67 v=52
316148 Off ch=8 n=67 v=0
316160 On ch=8 n=63 v=45
317812 Off ch=8 n=63 v=0
317824 On ch=8 n=67 v=54
317940 Off ch=8 n=67 v=0
317952 On ch=8 n=67 v=55
318068 Off ch=8 n=67 v=0
318080 On ch=8 n=67 v=55
318196 Off ch=8 n=67 v=0
318208 On ch=8 n=63 v=42
319860 Off ch=8 n=63 v=0
319872 On ch=8 n=62 v=127
319872 On ch=8 n=71 v=127
319988 Off ch=8 n=62 v=0
319988 Off ch=8 n=71 v=0
320000 On ch=8 n=62 v=120
320000 On ch=8 n=71 v=120
320116 Off ch=8 n=62 v=0
320116 Off ch=8 n=71 v=0
320128 On ch=8 n=62 v=116
320128 On ch=8 n=71 v=116
320244 Off ch=8 n=62 v=0
320244 Off ch=8 n=71 v=0
320256 On ch=8 n=63 v=117
320256 On ch=8 n=72 v=117
320487 Off ch=8 n=63 v=0
320487 Off ch=8 n=72 v=0
320896 On ch=8 n=62 v=99
320896 On ch=8 n=71 v=99
321012 Off ch=8 n=62 v=0
321012 Off ch=8 n=71 v=0
321024 On ch=8 n=62 v=111
321024 On ch=8 n=71 v=111
321140 Off ch=8 n=62 v=0
321140 Off ch=8 n=71 v=0
321152 On ch=8 n=62 v=110
321152 On ch=8 n=71 v=110
321268 Off ch=8 n=62 v=0
321268 Off ch=8 n=71 v=0
321280 On ch=8 n=63 v=117
321280 On ch=8 n=72 v=117
321511 Off ch=8 n=63 v=0
321511 Off ch=8 n=72 v=0
321920 On ch=8 n=62 v=104
321920 On ch=8 n=71 v=104
322036 Off ch=8 n=62 v=0
322036 Off ch=8 n=71 v=0
322048 On ch=8 n=62 v=114
322048 On ch=8 n=71 v=114
322164 Off ch=8 n=62 v=0
322164 Off ch=8 n=71 v=0
322176 On ch=8 n=62 v=115
322176 On ch=8 n=71 v=115
322292 Off ch=8 n=62 v=0
322292 Off ch=8 n=71 v=0
322304 On ch=8 n=63 v=117
322304 On ch=8 n=72 v=117
322530 On ch=8 n=55 v=106
322535 Off ch=8 n=63 v=0
322535 Off ch=8 n=72 v=0
322545 On ch=8 n=62 v=106
322560 Off ch=8 n=55 v=0
322560 On ch=8 n=71 v=106
322776 Off ch=8 n=62 v=0
322786 On ch=8 n=55 v=114
322791 Off ch=8 n=71 v=0
322801 On ch=8 n=63 v=114
322816 Off ch=8 n=55 v=0
322816 On ch=8 n=72 v=114
323032 Off ch=8 n=63 v=0
323042 On ch=8 n=55 v=107
323047 Off ch=8 n=72 v=0
323057 On ch=8 n=62 v=107
323072 Off ch=8 n=55 v=0
323072 On ch=8 n=71 v=107
323288 Off ch=8 n=62 v=0
323298 On ch=8 n=55 v=117
323303 Off ch=8 n=71 v=0
323313 On ch=8 n=63 v=117
323328 Off ch=8 n=55 v=0
323328 On ch=8 n=72 v=117
323544 Off ch=8 n=63 v=0
323554 On ch=8 n=62 v=127
323559 Off ch=8 n=72 v=0
323569 On ch=8 n=71 v=127
323584 Off ch=8 n=62 v=0
323584 On ch=8 n=79 v=127
323800 Off ch=8 n=71 v=0
323810 On ch=8 n=63 v=117
323815 Off ch=8 n=79 v=0
323825 On ch=8 n=72 v=117
323840 Off ch=8 n=63 v=0
323840 On ch=8 n=79 v=117
324056 Off ch=8 n=72 v=0
324066 On ch=8 n=62 v=111
324071 Off ch=8 n=79 v=0
324081 On ch=8 n=71 v=111
324096 Off ch=8 n=62 v=0
324096 On ch=8 n=79 v=111
324312 Off ch=8 n=71 v=0
324322 On ch=8 n=63 v=116
324327 Off ch=8 n=79 v=0
324337 On ch=8 n=72 v=116
324352 Off ch=8 n=63 v=0
324352 On ch=8 n=79 v=116
324568 Off ch=8 n=72 v=0
324583 Off ch=8 n=79 v=0
324834 On ch=8 n=55 v=102
324849 On ch=8 n=62 v=102
324864 Off ch=8 n=55 v=0
324864 On ch=8 n=71 v=102
325080 Off ch=8 n=62 v=0
325095 Off ch=8 n=71 v=0
325346 On ch=8 n=55 v=102
325361 On ch=8 n=63 v=102
325376 Off ch=8 n=55 v=0
325376 On ch=8 n=72 v=102
325592 Off ch=8 n=63 v=0
325607 Off ch=8 n=72 v=0
128 On ch=9 n=55 v=100
244 Off ch=9 n=55 v=0
256 On ch=9 n=55 v=114
372 Off ch=9 n=55 v=0
384 On ch=9 n=55 v=112
500 Off ch=9 n=55 v=0
512 On ch=9 n=51 v=107
1280 Off ch=9 n=51 v=0
1408 On ch=9 n=53 v=100
1524 Off ch=9 n=53 v=0
1536 On ch=9 n=53 v=111
1652 Off ch=9 n=53 v=0
1664 On ch=9 n=53 v=119
1780 Off ch=9 n=53 v=0
1792 On ch=9 n=50 v=106
3072 Off ch=9 n=50 v=0
3712 On ch=9 n=68 v=56
3828 Off ch=9 n=68 v=0
3840 On ch=9 n=68 v=57
3956 Off ch=9 n=68 v=0
3968 On ch=9 n=68 v=59
4084 Off ch=9 n=68 v=0
4096 On ch=9 n=67 v=58
5351 Off ch=9 n=67 v=0
5760 On ch=9 n=68 v=57
5876 Off ch=9 n=68 v=0
5888 On ch=9 n=68 v=61
6004 Off ch=9 n=68 v=0
6016 On ch=9 n=68 v=59
6132 Off ch=9 n=68 v=0
6144 On ch=9 n=67 v=57
6605 Off ch=9 n=67 v=0
6656 On ch=9 n=62 v=53
7629 Off ch=9 n=62 v=0
7680 On ch=9 n=63 v=63
7796 Off ch=9 n=63 v=0
7808 On ch=9 n=63 v=58
7924 Off ch=9 n=63 v=0
7936 On ch=9 n=63 v=61
8052 Off ch=9 n=63 v=0
8064 On ch=9 n=65 v=66
8180 Off ch=9 n=65 v=0
8192 On ch=9 n=67 v=65
8820 Off ch=9 n=67 v=0
8832 On ch=9 n=63 v=53
8948 Off ch=9 n=63 v=0
8960 On ch=9 n=63 v=58
9076 Off ch=9 n=63 v=0
9088 On ch=9 n=65 v=62
9204 Off ch=9 n=65 v=0
9216 On ch=9 n=67 v=65
9562 Off ch=9 n=67 v=0
9600 On ch=9 n=62 v=68
9716 Off ch=9 n=62 v=0
9728 On ch=9 n=63 v=96
9959 Off ch=9 n=63 v=0
10240 On ch=9 n=56 v=87
10471 Off ch=9 n=56 v=0
10752 On ch=9 n=55 v=90
10983 Off ch=9 n=55 v=0
11520 On ch=9 n=56 v=83
11636 Off ch=9 n=56 v=0
11648 On ch=9 n=56 v=100
11764 Off ch=9 n=56 v=0
11776 On ch=9 n=56 v=95
11892 Off ch=9 n=56 v=0
11904 On ch=9 n=53 v=94
13184 Off ch=9 n=53 v=0
14336 On ch=9 n=56 v=57
14452 Off ch=9 n=56 v=0
14464 On ch=9 n=56 v=63
14580 Off ch=9 n=56 v=0
14592 On ch=9 n=56 v=66
14708 Off ch=9 n=56 v=0
14720 On ch=9 n=55 v=60
15463 Off ch=9 n=55 v=0
16384 On ch=9 n=56 v=55
16500 Off ch=9 n=56 v=0
16512 On ch=9 n=56 v=63
16628 Off ch=9 n=56 v=0
16640 On ch=9 n=56 v=59
16756 Off ch=9 n=56 v=0
16768 On ch=9 n=55 v=55
17396 Off ch=9 n=55 v=0
17408 On ch=9 n=63 v=70
17524 Off ch=9 n=63 v=0
17536 On ch=9 n=63 v=62
17652 Off ch=9 n=63 v=0
17664 On ch=9 n=60 v=56
17780 Off ch=9 n=60 v=0
17792 On ch=9 n=62 v=64
18420 Off ch=9 n=62 v=0
18432 On ch=9 n=65 v=69
18548 Off ch=9 n=65 v=0
18560 On ch=9 n=65 v=71
18676 Off ch=9 n=65 v=0
18688 On ch=9 n=62 v=62
18804 Off ch=9 n=62 v=0
18816 On ch=9 n=63 v=72
19444 Off ch=9 n=63 v=0
19456 On ch=9 n=63 v=70
19572 Off ch=9 n=63 v=0
19584 On ch=9 n=63 v=69
19700 Off ch=9 n=63 v=0
19712 On ch=9 n=60 v=63
19828 Off ch=9 n=60 v=0
19840 On ch=9 n=65 v=92
19956 Off ch=9 n=65 v=0
19968 On ch=9 n=65 v=72
20084 Off ch=9 n=65 v=0
20096 On ch=9 n=65 v=77
20212 Off ch=9 n=65 v=0
20224 On ch=9 n=59 v=69
20340 Off ch=9 n=59 v=0
20352 On ch=9 n=67 v=104
20468 Off ch=9 n=67 v=0
20480 On ch=9 n=67 v=80
20596 Off ch=9 n=67 v=0
20608 On ch=9 n=67 v=79
20724 Off ch=9 n=67 v=0
20736 On ch=9 n=58 v=65
20852 Off ch=9 n=58 v=0
20864 On ch=9 n=68 v=107
20980 Off ch=9 n=68 v=0
20992 On ch=9 n=56 v=69
21108 Off ch=9 n=56 v=0
21120 On ch=9 n=56 v=83
21236 Off ch=9 n=56 v=0
21248 On ch=9 n=53 v=73
21364 Off ch=9 n=53 v=0
21376 On ch=9 n=58 v=103
21492 Off ch=9 n=58 v=0
21504 On ch=9 n=58 v=80
21620 Off ch=9 n=58 v=0
21632 On ch=9 n=58 v=80
21748 Off ch=9 n=58 v=0
21760 On ch=9 n=55 v=81
21876 Off ch=9 n=55 v=0
21888 On ch=9 n=60 v=112
22004 Off ch=9 n=60 v=0
22016 On ch=9 n=60 v=91
22132 Off ch=9 n=60 v=0
22144 On ch=9 n=60 v=87
22260 Off ch=9 n=60 v=0
22272 On ch=9 n=56 v=87
22388 Off ch=9 n=56 v=0
22400 On ch=9 n=65 v=125
22516 Off ch=9 n=65 v=0
22528 On ch=9 n=65 v=96
22644 Off ch=9 n=65 v=0
22656 On ch=9 n=65 v=95
22772 Off ch=9 n=65 v=0
22784 On ch=9 n=62 v=89
22900 Off ch=9 n=62 v=0
22912 On ch=9 n=63 v=98
23028 Off ch=9 n=63 v=0
23040 On ch=9 n=48 v=84
23040 On ch=9 n=51 v=84
23156 Off ch=9 n=48 v=0
23156 Off ch=9 n=51 v=0
23168 On ch=9 n=48 v=95
23168 On ch=9 n=51 v=95
23284 Off ch=9 n=48 v=0
23284 Off ch=9 n=51 v=0
23296 On ch=9 n=48 v=96
23296 On ch=9 n=51 v=96
23412 Off ch=9 n=48 v=0
23412 Off ch=9 n=51 v=0
23424 On ch=9 n=48 v=99
23424 On ch=9 n=51 v=99
23540 Off ch=9 n=48 v=0
23540 Off ch=9 n=51 v=0
23552 On ch=9 n=48 v=98
23552 On ch=9 n=51 v=98
23668 Off ch=9 n=48 v=0
23668 Off ch=9 n=51 v=0
23680 On ch=9 n=48 v=97
23680 On ch=9 n=51 v=97
23796 Off ch=9 n=48 v=0
23796 Off ch=9 n=51 v=0
23808 On ch=9 n=48 v=99
23808 On ch=9 n=51 v=99
23924 Off ch=9 n=48 v=0
23924 Off ch=9 n=51 v=0
23936 On ch=9 n=48 v=96
23936 On ch=9 n=51 v=96
24052 Off ch=9 n=48 v=0
24052 Off ch=9 n=51 v=0
24064 On ch=9 n=48 v=97
24064 On ch=9 n=51 v=97
24180 Off ch=9 n=48 v=0
24180 Off ch=9 n=51 v=0
24192 On ch=9 n=48 v=98
24192 On ch=9 n=51 v=98
24308 Off ch=9 n=48 v=0
24308 Off ch=9 n=51 v=0
24320 On ch=9 n=48 v=100
24320 On ch=9 n=51 v=100
24436 Off ch=9 n=48 v=0
24436 Off ch=9 n=51 v=0
24448 On ch=9 n=48 v=100
24448 On ch=9 n=51 v=100
24564 Off ch=9 n=48 v=0
24564 Off ch=9 n=51 v=0
24576 On ch=9 n=48 v=99
24576 On ch=9 n=51 v=99
24692 Off ch=9 n=48 v=0
24692 Off ch=9 n=51 v=0
24704 On ch=9 n=48 v=97
24704 On ch=9 n=51 v=97
24820 Off ch=9 n=48 v=0
24820 Off ch=9 n=51 v=0
24832 On ch=9 n=48 v=89
24832 On ch=9 n=51 v=89
24948 Off ch=9 n=48 v=0
24948 Off ch=9 n=51 v=0
24960 On ch=9 n=50 v=101
24960 On ch=9 n=53 v=101
25076 Off ch=9 n=50 v=0
25076 Off ch=9 n=53 v=0
25088 On ch=9 n=50 v=94
25088 On ch=9 n=53 v=94
25204 Off ch=9 n=50 v=0
25204 Off ch=9 n=53 v=0
25216 On ch=9 n=50 v=98
25216 On ch=9 n=53 v=98
25332 Off ch=9 n=50 v=0
25332 Off ch=9 n=53 v=0
25344 On ch=9 n=50 v=96
25344 On ch=9 n=53 v=96
25460 Off ch=9 n=50 v=0
25460 Off ch=9 n=53 v=0
25472 On ch=9 n=50 v=98
25472 On ch=9 n=53 v=98
25588 Off ch=9 n=50 v=0
25588 Off ch=9 n=53 v=0
25600 On ch=9 n=50 v=94
25600 On ch=9 n=53 v=94
25716 Off ch=9 n=50 v=0
25716 Off ch=9 n=53 v=0
25728 On ch=9 n=50 v=95
25728 On ch=9 n=53 v=95
25844 Off ch=9 n=50 v=0
25844 Off ch=9 n=53 v=0
25856 On ch=9 n=50 v=95
25856 On ch=9 n=53 v=95
25972 Off ch=9 n=50 v=0
25972 Off ch=9 n=53 v=0
25984 On ch=9 n=50 v=97
25984 On ch=9 n=53 v=97
26100 Off ch=9 n=50 v=0
26100 Off ch=9 n=53 v=0
26112 On ch=9 n=50 v=95
26112 On ch=9 n=53 v=95
26228 Off ch=9 n=50 v=0
26228 Off ch=9 n=53 v=0
26240 On ch=9 n=50 v=98
26240 On ch=9 n=53 v=98
26356 Off ch=9 n=50 v=0
26356 Off ch=9 n=53 v=0
26368 On ch=9 n=50 v=100
26368 On ch=9 n=53 v=100
26484 Off ch=9 n=50 v=0
26484 Off ch=9 n=53 v=0
26496 On ch=9 n=50 v=94
26496 On ch=9 n=53 v=94
26612 Off ch=9 n=50 v=0
26612 Off ch=9 n=53 v=0
26624 On ch=9 n=50 v=95
26624 On ch=9 n=53 v=95
26740 Off ch=9 n=50 v=0
26740 Off ch=9 n=53 v=0
26752 On ch=9 n=48 v=99
26752 On ch=9 n=51 v=99
26868 Off ch=9 n=48 v=0
26868 Off ch=9 n=51 v=0
26880 On ch=9 n=48 v=100
26880 On ch=9 n=51 v=100
26996 Off ch=9 n=48 v=0
26996 Off ch=9 n=51 v=0
27008 On ch=9 n=48 v=112
27008 On ch=9 n=51 v=112
27124 Off ch=9 n=48 v=0
27124 Off ch=9 n=51 v=0
27136 On ch=9 n=51 v=121
27136 On ch=9 n=54 v=121
27252 Off ch=9 n=51 v=0
27252 Off ch=9 n=54 v=0
27264 On ch=9 n=51 v=113
27264 On ch=9 n=54 v=113
27380 Off ch=9 n=51 v=0
27380 Off ch=9 n=54 v=0
27392 On ch=9 n=51 v=112
27392 On ch=9 n=54 v=112
27508 Off ch=9 n=51 v=0
27508 Off ch=9 n=54 v=0
27520 On ch=9 n=51 v=115
27520 On ch=9 n=54 v=115
27636 Off ch=9 n=51 v=0
27636 Off ch=9 n=54 v=0
27648 On ch=9 n=51 v=110
27648 On ch=9 n=54 v=110
27764 Off ch=9 n=51 v=0
27764 Off ch=9 n=54 v=0
27776 On ch=9 n=51 v=115
27776 On ch=9 n=54 v=115
27892 Off ch=9 n=51 v=0
27892 Off ch=9 n=54 v=0
27904 On ch=9 n=51 v=112
27904 On ch=9 n=54 v=112
28020 Off ch=9 n=51 v=0
28020 Off ch=9 n=54 v=0
28032 On ch=9 n=51 v=113
28032 On ch=9 n=54 v=113
28148 Off ch=9 n=51 v=0
28148 Off ch=9 n=54 v=0
28160 On ch=9 n=51 v=110
28160 On ch=9 n=54 v=110
28276 Off ch=9 n=51 v=0
28276 Off ch=9 n=54 v=0
28288 On ch=9 n=51 v=113
28288 On ch=9 n=54 v=113
28404 Off ch=9 n=51 v=0
28404 Off ch=9 n=54 v=0
28416 On ch=9 n=51 v=110
28416 On ch=9 n=54 v=110
28532 Off ch=9 n=51 v=0
28532 Off ch=9 n=54 v=0
28544 On ch=9 n=51 v=113
28544 On ch=9 n=54 v=113
28660 Off ch=9 n=51 v=0
28660 Off ch=9 n=54 v=0
28672 On ch=9 n=51 v=115
28672 On ch=9 n=54 v=115
28788 Off ch=9 n=51 v=0
28788 Off ch=9 n=54 v=0
28800 On ch=9 n=51 v=111
28800 On ch=9 n=54 v=111
28916 Off ch=9 n=51 v=0
28916 Off ch=9 n=54 v=0
28928 On ch=9 n=51 v=115
28928 On ch=9 n=54 v=115
29044 Off ch=9 n=51 v=0
29044 Off ch=9 n=54 v=0
29056 On ch=9 n=51 v=114
29056 On ch=9 n=54 v=114
29287 Off ch=9 n=51 v=0
29287 Off ch=9 n=54 v=0
30080 On ch=9 n=53 v=103
30311 Off ch=9 n=53 v=0
32640 On ch=9 n=63 v=57
33152 On ch=9 n=65 v=62
33162 Off ch=9 n=63 v=0
33638 Off ch=9 n=65 v=0
33664 On ch=9 n=62 v=54
34176 On ch=9 n=63 v=56
34186 Off ch=9 n=62 v=0
34662 Off ch=9 n=63 v=0
34688 On ch=9 n=63 v=67
35200 On ch=9 n=65 v=73
35210 Off ch=9 n=63 v=0
35686 Off ch=9 n=65 v=0
35712 On ch=9 n=62 v=56
36224 On ch=9 n=63 v=59
36234 Off ch=9 n=62 v=0
36710 Off ch=9 n=63 v=0
36736 On ch=9 n=63 v=59
37248 On ch=9 n=65 v=61
37258 Off ch=9 n=63 v=0
37734 Off ch=9 n=65 v=0
37760 On ch=9 n=62 v=58
38272 On ch=9 n=63 v=64
38282 Off ch=9 n=62 v=0
38758 Off ch=9 n=63 v=0
38784 On ch=9 n=63 v=60
39296 On ch=9 n=64 v=58
39306 Off ch=9 n=63 v=0
39782 Off ch=9 n=64 v=0
39808 On ch=9 n=64 v=65
40320 On ch=9 n=60 v=61
40330 Off ch=9 n=64 v=0
40806 Off ch=9 n=60 v=0
40832 On ch=9 n=65 v=67
41344 On ch=9 n=67 v=71
41354 Off ch=9 n=65 v=0
41830 Off ch=9 n=67 v=0
41856 On ch=9 n=67 v=64
42368 On ch=9 n=63 v=55
42378 Off ch=9 n=67 v=0
42854 Off ch=9 n=63 v=0
43520 On ch=9 n=57 v=57
43636 Off ch=9 n=57 v=0
43648 On ch=9 n=57 v=58
43764 Off ch=9 n=57 v=0
43776 On ch=9 n=57 v=66
43892 Off ch=9 n=57 v=0
43904 On ch=9 n=57 v=61
44135 Off ch=9 n=57 v=0
44544 On ch=9 n=58 v=59
44660 Off ch=9 n=58 v=0
44672 On ch=9 n=58 v=68
44788 Off ch=9 n=58 v=0
44800 On ch=9 n=58 v=70
44916 Off ch=9 n=58 v=0
44928 On ch=9 n=58 v=68
45159 Off ch=9 n=58 v=0
45568 On ch=9 n=59 v=63
45684 Off ch=9 n=59 v=0
45696 On ch=9 n=59 v=71
45812 Off ch=9 n=59 v=0
45824 On ch=9 n=59 v=83
45940 Off ch=9 n=59 v=0
45952 On ch=9 n=59 v=86
46183 Off ch=9 n=59 v=0
46592 On ch=9 n=60 v=74
46708 Off ch=9 n=60 v=0
46720 On ch=9 n=60 v=80
46836 Off ch=9 n=60 v=0
46848 On ch=9 n=60 v=84
46964 Off ch=9 n=60 v=0
46976 On ch=9 n=60 v=86
47207 Off ch=9 n=60 v=0
47616 On ch=9 n=60 v=87
47732 Off ch=9 n=60 v=0
47744 On ch=9 n=60 v=92
47860 Off ch=9 n=60 v=0
47872 On ch=9 n=60 v=96
47988 Off ch=9 n=60 v=0
48000 On ch=9 n=60 v=99
48231 Off ch=9 n=60 v=0
48256 On ch=9 n=60 v=98
48372 Off ch=9 n=60 v=0
48384 On ch=9 n=60 v=100
48500 Off ch=9 n=60 v=0
48512 On ch=9 n=62 v=116
49255 Off ch=9 n=62 v=0
49280 On ch=9 n=50 v=100
49511 Off ch=9 n=50 v=0
49536 On ch=9 n=51 v=111
49767 Off ch=9 n=51 v=0
50048 On ch=9 n=53 v=101
50279 Off ch=9 n=53 v=0
50560 On ch=9 n=55 v=99
50791 Off ch=9 n=55 v=0
51072 On ch=9 n=56 v=101
51303 Off ch=9 n=56 v=0
51584 On ch=9 n=58 v=102
51815 Off ch=9 n=58 v=0
52096 On ch=9 n=58 v=103
52327 Off ch=9 n=58 v=0
52608 On ch=9 n=53 v=104
52724 Off ch=9 n=53 v=0
52736 On ch=9 n=53 v=108
52852 Off ch=9 n=53 v=0
52864 On ch=9 n=58 v=121
52980 Off ch=9 n=58 v=0
52992 On ch=9 n=58 v=112
53108 Off ch=9 n=58 v=0
53120 On ch=9 n=53 v=105
53236 Off ch=9 n=53 v=0
53248 On ch=9 n=53 v=110
53364 Off ch=9 n=53 v=0
53376 On ch=9 n=58 v=120
53492 Off ch=9 n=58 v=0
53504 On ch=9 n=58 v=112
53620 Off ch=9 n=58 v=0
53632 On ch=9 n=55 v=107
53748 Off ch=9 n=55 v=0
53760 On ch=9 n=55 v=114
53876 Off ch=9 n=55 v=0
53888 On ch=9 n=58 v=115
54004 Off ch=9 n=58 v=0
54016 On ch=9 n=58 v=114
54132 Off ch=9 n=58 v=0
54144 On ch=9 n=56 v=114
54260 Off ch=9 n=56 v=0
54272 On ch=9 n=56 v=114
54388 Off ch=9 n=56 v=0
54400 On ch=9 n=58 v=117
54516 Off ch=9 n=58 v=0
54528 On ch=9 n=58 v=116
54644 Off ch=9 n=58 v=0
54656 On ch=9 n=65 v=127
54784 On ch=9 n=63 v=121
54786 Off ch=9 n=65 v=0
54905 Off ch=9 n=63 v=0
54912 On ch=9 n=58 v=105
54970 Off ch=9 n=58 v=0
55040 On ch=9 n=55 v=107
55098 Off ch=9 n=55 v=0
55168 On ch=9 n=62 v=127
55296 On ch=9 n=60 v=121
55298 Off ch=9 n=62 v=0
55417 Off ch=9 n=60 v=0
55424 On ch=9 n=56 v=105
55482 Off ch=9 n=56 v=0
55552 On ch=9 n=53 v=106
55610 Off ch=9 n=53 v=0
55680 On ch=9 n=60 v=127
55796 Off ch=9 n=60 v=0
55808 On ch=9 n=58 v=107
55924 Off ch=9 n=58 v=0
55936 On ch=9 n=55 v=107
55994 Off ch=9 n=55 v=0
56064 On ch=9 n=51 v=107
56122 Off ch=9 n=51 v=0
56192 On ch=9 n=50 v=102
56308 Off ch=9 n=50 v=0
56320 On ch=9 n=62 v=127
56320 On ch=9 n=53 v=67
56436 Off ch=9 n=62 v=0
56436 Off ch=9 n=53 v=0
56448 On ch=9 n=65 v=125
56448 On ch=9 n=56 v=75
56564 Off ch=9 n=65 v=0
56564 Off ch=9 n=56 v=0
56576 On ch=9 n=62 v=107
56576 On ch=9 n=53 v=76
56692 Off ch=9 n=62 v=0
56692 Off ch=9 n=53 v=0
56704 On ch=9 n=55 v=104
58356 Off ch=9 n=55 v=0
58368 On ch=9 n=58 v=118
58484 Off ch=9 n=58 v=0
58496 On ch=9 n=58 v=117
58612 Off ch=9 n=58 v=0
58624 On ch=9 n=58 v=113
58740 Off ch=9 n=58 v=0
58752 On ch=9 n=58 v=117
60404 Off ch=9 n=58 v=0
60416 On ch=9 n=58 v=118
60532 Off ch=9 n=58 v=0
60544 On ch=9 n=58 v=114
60660 Off ch=9 n=58 v=0
60672 On ch=9 n=58 v=111
60788 Off ch=9 n=58 v=0
60800 On ch=9 n=58 v=115
61031 Off ch=9 n=58 v=0
61440 On ch=9 n=58 v=96
61556 Off ch=9 n=58 v=0
61568 On ch=9 n=58 v=113
61684 Off ch=9 n=58 v=0
61696 On ch=9 n=58 v=115
61812 Off ch=9 n=58 v=0
61824 On ch=9 n=58 v=113
62055 Off ch=9 n=58 v=0
62464 On ch=9 n=58 v=105
62580 Off ch=9 n=58 v=0
62592 On ch=9 n=58 v=111
62708 Off ch=9 n=58 v=0
62720 On ch=9 n=58 v=115
62836 Off ch=9 n=58 v=0
62848 On ch=9 n=63 v=127
63079 Off ch=9 n=63 v=0
64512 On ch=9 n=55 v=103
64628 Off ch=9 n=55 v=0
64640 On ch=9 n=55 v=114
64756 Off ch=9 n=55 v=0
64768 On ch=9 n=55 v=112
64884 Off ch=9 n=55 v=0
64896 On ch=9 n=51 v=107
65664 Off ch=9 n=51 v=0
65792 On ch=9 n=53 v=105
65908 Off ch=9 n=53 v=0
65920 On ch=9 n=53 v=112
66036 Off ch=9 n=53 v=0
66048 On ch=9 n=53 v=113
66164 Off ch=9 n=53 v=0
66176 On ch=9 n=50 v=106
67456 Off ch=9 n=50 v=0
68096 On ch=9 n=68 v=55
68212 Off ch=9 n=68 v=0
68224 On ch=9 n=68 v=59
68340 Off ch=9 n=68 v=0
68352 On ch=9 n=68 v=61
68468 Off ch=9 n=68 v=0
68480 On ch=9 n=67 v=53
69735 Off ch=9 n=67 v=0
70144 On ch=9 n=68 v=55
70260 Off ch=9 n=68 v=0
70272 On ch=9 n=68 v=57
70388 Off ch=9 n=68 v=0
70400 On ch=9 n=68 v=67
70516 Off ch=9 n=68 v=0
70528 On ch=9 n=67 v=57
70989 Off ch=9 n=67 v=0
71040 On ch=9 n=62 v=56
72013 Off ch=9 n=62 v=0
72064 On ch=9 n=63 v=63
72180 Off ch=9 n=63 v=0
72192 On ch=9 n=63 v=62
72308 Off ch=9 n=63 v=0
72320 On ch=9 n=63 v=61
72436 Off ch=9 n=63 v=0
72448 On ch=9 n=65 v=64
72564 Off ch=9 n=65 v=0
72576 On ch=9 n=67 v=65
73204 Off ch=9 n=67 v=0
73216 On ch=9 n=63 v=59
73332 Off ch=9 n=63 v=0
73344 On ch=9 n=63 v=61
73460 Off ch=9 n=63 v=0
73472 On ch=9 n=65 v=65
73588 Off ch=9 n=65 v=0
73600 On ch=9 n=67 v=64
73946 Off ch=9 n=67 v=0
73984 On ch=9 n=62 v=69
74100 Off ch=9 n=62 v=0
74112 On ch=9 n=63 v=102
74343 Off ch=9 n=63 v=0
74624 On ch=9 n=56 v=86
74855 Off ch=9 n=56 v=0
75136 On ch=9 n=55 v=86
75367 Off ch=9 n=55 v=0
75904 On ch=9 n=56 v=89
76020 Off ch=9 n=56 v=0
76032 On ch=9 n=56 v=95
76148 Off ch=9 n=56 v=0
76160 On ch=9 n=56 v=99
76276 Off ch=9 n=56 v=0
76288 On ch=9 n=53 v=92
77568 Off ch=9 n=53 v=0
78720 On ch=9 n=56 v=55
78836 Off ch=9 n=56 v=0
78848 On ch=9 n=56 v=61
78964 Off ch=9 n=56 v=0
78976 On ch=9 n=56 v=62
79092 Off ch=9 n=56 v=0
79104 On ch=9 n=55 v=57
79847 Off ch=9 n=55 v=0
80768 On ch=9 n=56 v=55
80884 Off ch=9 n=56 v=0
80896 On ch=9 n=56 v=62
81012 Off ch=9 n=56 v=0
81024 On ch=9 n=56 v=58
81140 Off ch=9 n=56 v=0
81152 On ch=9 n=55 v=59
81780 Off ch=9 n=55 v=0
81792 On ch=9 n=63 v=70
81908 Off ch=9 n=63 v=0
81920 On ch=9 n=63 v=61
82036 Off ch=9 n=63 v=0
82048 On ch=9 n=60 v=55
82164 Off ch=9 n=60 v=0
82176 On ch=9 n=62 v=64
82804 Off ch=9 n=62 v=0
82816 On ch=9 n=65 v=71
82932 Off ch=9 n=65 v=0
82944 On ch=9 n=65 v=64
83060 Off ch=9 n=65 v=0
83072 On ch=9 n=62 v=63
83188 Off ch=9 n=62 v=0
83200 On ch=9 n=63 v=72
83828 Off ch=9 n=63 v=0
83840 On ch=9 n=63 v=67
83956 Off ch=9 n=63 v=0
83968 On ch=9 n=63 v=73
84084 Off ch=9 n=63 v=0
84096 On ch=9 n=60 v=66
84212 Off ch=9 n=60 v=0
84224 On ch=9 n=65 v=93
84340 Off ch=9 n=65 v=0
84352 On ch=9 n=65 v=76
84468 Off ch=9 n=65 v=0
84480 On ch=9 n=65 v=71
84596 Off ch=9 n=65 v=0
84608 On ch=9 n=59 v=70
84724 Off ch=9 n=59 v=0
84736 On ch=9 n=67 v=101
84852 Off ch=9 n=67 v=0
84864 On ch=9 n=67 v=81
84980 Off ch=9 n=67 v=0
84992 On ch=9 n=67 v=79
85108 Off ch=9 n=67 v=0
85120 On ch=9 n=58 v=67
85236 Off ch=9 n=58 v=0
85248 On ch=9 n=68 v=113
85364 Off ch=9 n=68 v=0
85376 On ch=9 n=56 v=74
85492 Off ch=9 n=56 v=0
85504 On ch=9 n=56 v=76
85620 Off ch=9 n=56 v=0
85632 On ch=9 n=53 v=79
85748 Off ch=9 n=53 v=0
85760 On ch=9 n=58 v=103
85876 Off ch=9 n=58 v=0
85888 On ch=9 n=58 v=87
86004 Off ch=9 n=58 v=0
86016 On ch=9 n=58 v=88
86132 Off ch=9 n=58 v=0
86144 On ch=9 n=55 v=86
86260 Off ch=9 n=55 v=0
86272 On ch=9 n=60 v=110
86388 Off ch=9 n=60 v=0
86400 On ch=9 n=60 v=87
86516 Off ch=9 n=60 v=0
86528 On ch=9 n=60 v=93
86644 Off ch=9 n=60 v=0
86656 On ch=9 n=56 v=86
86772 Off ch=9 n=56 v=0
86784 On ch=9 n=65 v=125
86900 Off ch=9 n=65 v=0
86912 On ch=9 n=65 v=98
87028 Off ch=9 n=65 v=0
87040 On ch=9 n=65 v=97
87156 Off ch=9 n=65 v=0
87168 On ch=9 n=62 v=89
87284 Off ch=9 n=62 v=0
87296 On ch=9 n=63 v=99
87412 Off ch=9 n=63 v=0
87424 On ch=9 n=48 v=87
87424 On ch=9 n=51 v=87
87540 Off ch=9 n=48 v=0
87540 Off ch=9 n=51 v=0
87552 On ch=9 n=48 v=93
87552 On ch=9 n=51 v=93
87668 Off ch=9 n=48 v=0
87668 Off ch=9 n=51 v=0
87680 On ch=9 n=48 v=97
87680 On ch=9 n=51 v=97
87796 Off ch=9 n=48 v=0
87796 Off ch=9 n=51 v=0
87808 On ch=9 n=48 v=98
87808 On ch=9 n=51 v=98
87924 Off ch=9 n=48 v=0
87924 Off ch=9 n=51 v=0
87936 On ch=9 n=48 v=98
87936 On ch=9 n=51 v=98
88052 Off ch=9 n=48 v=0
88052 Off ch=9 n=51 v=0
88064 On ch=9 n=48 v=97
88064 On ch=9 n=51 v=97
88180 Off ch=9 n=48 v=0
88180 Off ch=9 n=51 v=0
88192 On ch=9 n=48 v=96
88192 On ch=9 n=51 v=96
88308 Off ch=9 n=48 v=0
88308 Off ch=9 n=51 v=0
88320 On ch=9 n=48 v=94
88320 On ch=9 n=51 v=94
88436 Off ch=9 n=48 v=0
88436 Off ch=9 n=51 v=0
88448 On ch=9 n=48 v=94
88448 On ch=9 n=51 v=94
88564 Off ch=9 n=48 v=0
88564 Off ch=9 n=51 v=0
88576 On ch=9 n=48 v=101
88576 On ch=9 n=51 v=101
88692 Off ch=9 n=48 v=0
88692 Off ch=9 n=51 v=0
88704 On ch=9 n=48 v=96
88704 On ch=9 n=51 v=96
88820 Off ch=9 n=48 v=0
88820 Off ch=9 n=51 v=0
88832 On ch=9 n=48 v=97
88832 On ch=9 n=51 v=97
88948 Off ch=9 n=48 v=0
88948 Off ch=9 n=51 v=0
88960 On ch=9 n=48 v=96
88960 On ch=9 n=51 v=96
89076 Off ch=9 n=48 v=0
89076 Off ch=9 n=51 v=0
89088 On ch=9 n=48 v=98
89088 On ch=9 n=51 v=98
89204 Off ch=9 n=48 v=0
89204 Off ch=9 n=51 v=0
89216 On ch=9 n=48 v=96
89216 On ch=9 n=51 v=96
89332 Off ch=9 n=48 v=0
89332 Off ch=9 n=51 v=0
89344 On ch=9 n=50 v=103
89344 On ch=9 n=53 v=103
89460 Off ch=9 n=50 v=0
89460 Off ch=9 n=53 v=0
89472 On ch=9 n=50 v=100
89472 On ch=9 n=53 v=100
89588 Off ch=9 n=50 v=0
89588 Off ch=9 n=53 v=0
89600 On ch=9 n=50 v=99
89600 On ch=9 n=53 v=99
89716 Off ch=9 n=50 v=0
89716 Off ch=9 n=53 v=0
89728 On ch=9 n=50 v=97
89728 On ch=9 n=53 v=97
89844 Off ch=9 n=50 v=0
89844 Off ch=9 n=53 v=0
89856 On ch=9 n=50 v=99
89856 On ch=9 n=53 v=99
89972 Off ch=9 n=50 v=0
89972 Off ch=9 n=53 v=0
89984 On ch=9 n=50 v=97
89984 On ch=9 n=53 v=97
90100 Off ch=9 n=50 v=0
90100 Off ch=9 n=53 v=0
90112 On ch=9 n=50 v=96
90112 On ch=9 n=53 v=96
90228 Off ch=9 n=50 v=0
90228 Off ch=9 n=53 v=0
90240 On ch=9 n=50 v=96
90240 On ch=9 n=53 v=96
90356 Off ch=9 n=50 v=0
90356 Off ch=9 n=53 v=0
90368 On ch=9 n=50 v=98
90368 On ch=9 n=53 v=98
90484 Off ch=9 n=50 v=0
90484 Off ch=9 n=53 v=0
90496 On ch=9 n=50 v=98
90496 On ch=9 n=53 v=98
90612 Off ch=9 n=50 v=0
90612 Off ch=9 n=53 v=0
90624 On ch=9 n=50 v=98
90624 On ch=9 n=53 v=98
90740 Off ch=9 n=50 v=0
90740 Off ch=9 n=53 v=0
90752 On ch=9 n=50 v=106
90752 On ch=9 n=53 v=106
90868 Off ch=9 n=50 v=0
90868 Off ch=9 n=53 v=0
90880 On ch=9 n=50 v=103
90880 On ch=9 n=53 v=103
90996 Off ch=9 n=50 v=0
90996 Off ch=9 n=53 v=0
91008 On ch=9 n=50 v=98
91008 On ch=9 n=53 v=98
91124 Off ch=9 n=50 v=0
91124 Off ch=9 n=53 v=0
91136 On ch=9 n=48 v=92
91136 On ch=9 n=51 v=92
91252 Off ch=9 n=48 v=0
91252 Off ch=9 n=51 v=0
91264 On ch=9 n=48 v=96
91264 On ch=9 n=51 v=96
91380 Off ch=9 n=48 v=0
91380 Off ch=9 n=51 v=0
91392 On ch=9 n=48 v=114
91392 On ch=9 n=51 v=114
91508 Off ch=9 n=48 v=0
91508 Off ch=9 n=51 v=0
91520 On ch=9 n=51 v=119
91520 On ch=9 n=54 v=119
91636 Off ch=9 n=51 v=0
91636 Off ch=9 n=54 v=0
91648 On ch=9 n=51 v=112
91648 On ch=9 n=54 v=112
91764 Off ch=9 n=51 v=0
91764 Off ch=9 n=54 v=0
91776 On ch=9 n=51 v=115
91776 On ch=9 n=54 v=115
91892 Off ch=9 n=51 v=0
91892 Off ch=9 n=54 v=0
91904 On ch=9 n=51 v=116
91904 On ch=9 n=54 v=116
92020 Off ch=9 n=51 v=0
92020 Off ch=9 n=54 v=0
92032 On ch=9 n=51 v=114
92032 On ch=9 n=54 v=114
92148 Off ch=9 n=51 v=0
92148 Off ch=9 n=54 v=0
92160 On ch=9 n=51 v=114
92160 On ch=9 n=54 v=114
92276 Off ch=9 n=51 v=0
92276 Off ch=9 n=54 v=0
92288 On ch=9 n=51 v=113
92288 On ch=9 n=54 v=113
92404 Off ch=9 n=51 v=0
92404 Off ch=9 n=54 v=0
92416 On ch=9 n=51 v=112
92416 On ch=9 n=54 v=112
92532 Off ch=9 n=51 v=0
92532 Off ch=9 n=54 v=0
92544 On ch=9 n=51 v=112
92544 On ch=9 n=54 v=112
92660 Off ch=9 n=51 v=0
92660 Off ch=9 n=54 v=0
92672 On ch=9 n=51 v=113
92672 On ch=9 n=54 v=113
92788 Off ch=9 n=51 v=0
92788 Off ch=9 n=54 v=0
92800 On ch=9 n=51 v=115
92800 On ch=9 n=54 v=115
92916 Off ch=9 n=51 v=0
92916 Off ch=9 n=54 v=0
92928 On ch=9 n=51 v=114
92928 On ch=9 n=54 v=114
93044 Off ch=9 n=51 v=0
93044 Off ch=9 n=54 v=0
93056 On ch=9 n=51 v=113
93056 On ch=9 n=54 v=113
93172 Off ch=9 n=51 v=0
93172 Off ch=9 n=54 v=0
93184 On ch=9 n=51 v=114
93184 On ch=9 n=54 v=114
93300 Off ch=9 n=51 v=0
93300 Off ch=9 n=54 v=0
93312 On ch=9 n=51 v=111
93312 On ch=9 n=54 v=111
93428 Off ch=9 n=51 v=0
93428 Off ch=9 n=54 v=0
93440 On ch=9 n=51 v=110
93440 On ch=9 n=54 v=110
93671 Off ch=9 n=51 v=0
93671 Off ch=9 n=54 v=0
94464 On ch=9 n=53 v=104
94695 Off ch=9 n=53 v=0
97024 On ch=9 n=63 v=58
97536 On ch=9 n=65 v=62
97546 Off ch=9 n=63 v=0
98022 Off ch=9 n=65 v=0
98048 On ch=9 n=62 v=55
98560 On ch=9 n=63 v=57
98570 Off ch=9 n=62 v=0
99046 Off ch=9 n=63 v=0
99072 On ch=9 n=63 v=60
99584 On ch=9 n=65 v=63
99594 Off ch=9 n=63 v=0
100070 Off ch=9 n=65 v=0
100096 On ch=9 n=62 v=55
100608 On ch=9 n=63 v=54
100618 Off ch=9 n=62 v=0
101094 Off ch=9 n=63 v=0
101120 On ch=9 n=63 v=67
101632 On ch=9 n=65 v=78
101642 Off ch=9 n=63 v=0
102118 Off ch=9 n=65 v=0
102144 On ch=9 n=62 v=56
102656 On ch=9 n=63 v=57
102666 Off ch=9 n=62 v=0
103142 Off ch=9 n=63 v=0
103168 On ch=9 n=63 v=59
103680 On ch=9 n=64 v=62
103690 Off ch=9 n=63 v=0
104166 Off ch=9 n=64 v=0
104192 On ch=9 n=64 v=58
104704 On ch=9 n=60 v=52
104714 Off ch=9 n=64 v=0
105190 Off ch=9 n=60 v=0
105216 On ch=9 n=65 v=69
105728 On ch=9 n=67 v=76
105738 Off ch=9 n=65 v=0
106214 Off ch=9 n=67 v=0
106240 On ch=9 n=67 v=64
106752 On ch=9 n=63 v=59
106762 Off ch=9 n=67 v=0
107238 Off ch=9 n=63 v=0
107904 On ch=9 n=57 v=58
108020 Off ch=9 n=57 v=0
108032 On ch=9 n=57 v=63
108148 Off ch=9 n=57 v=0
108160 On ch=9 n=57 v=59
108276 Off ch=9 n=57 v=0
108288 On ch=9 n=57 v=60
108519 Off ch=9 n=57 v=0
108928 On ch=9 n=58 v=55
109044 Off ch=9 n=58 v=0
109056 On ch=9 n=58 v=69
109172 Off ch=9 n=58 v=0
109184 On ch=9 n=58 v=71
109300 Off ch=9 n=58 v=0
109312 On ch=9 n=58 v=75
109543 Off ch=9 n=58 v=0
109952 On ch=9 n=59 v=63
110068 Off ch=9 n=59 v=0
110080 On ch=9 n=59 v=67
110196 Off ch=9 n=59 v=0
110208 On ch=9 n=59 v=81
110324 Off ch=9 n=59 v=0
110336 On ch=9 n=59 v=85
110567 Off ch=9 n=59 v=0
110976 On ch=9 n=60 v=76
111092 Off ch=9 n=60 v=0
111104 On ch=9 n=60 v=85
111220 Off ch=9 n=60 v=0
111232 On ch=9 n=60 v=80
111348 Off ch=9 n=60 v=0
111360 On ch=9 n=60 v=82
111591 Off ch=9 n=60 v=0
112000 On ch=9 n=60 v=90
112116 Off ch=9 n=60 v=0
112128 On ch=9 n=60 v=93
112244 Off ch=9 n=60 v=0
112256 On ch=9 n=60 v=98
112372 Off ch=9 n=60 v=0
112384 On ch=9 n=60 v=99
112615 Off ch=9 n=60 v=0
112640 On ch=9 n=60 v=102
112756 Off ch=9 n=60 v=0
112768 On ch=9 n=60 v=98
112884 Off ch=9 n=60 v=0
112896 On ch=9 n=62 v=118
113639 Off ch=9 n=62 v=0
113664 On ch=9 n=50 v=98
113895 Off ch=9 n=50 v=0
113920 On ch=9 n=51 v=113
114151 Off ch=9 n=51 v=0
114432 On ch=9 n=53 v=102
114663 Off ch=9 n=53 v=0
114944 On ch=9 n=55 v=100
115175 Off ch=9 n=55 v=0
115456 On ch=9 n=56 v=102
115687 Off ch=9 n=56 v=0
115968 On ch=9 n=58 v=100
116199 Off ch=9 n=58 v=0
116480 On ch=9 n=58 v=105
116711 Off ch=9 n=58 v=0
116992 On ch=9 n=53 v=103
117108 Off ch=9 n=53 v=0
117120 On ch=9 n=53 v=112
117236 Off ch=9 n=53 v=0
117248 On ch=9 n=58 v=122
117364 Off ch=9 n=58 v=0
117376 On ch=9 n=58 v=117
117492 Off ch=9 n=58 v=0
117504 On ch=9 n=53 v=105
117620 Off ch=9 n=53 v=0
117632 On ch=9 n=53 v=112
117748 Off ch=9 n=53 v=0
117760 On ch=9 n=58 v=121
117876 Off ch=9 n=58 v=0
117888 On ch=9 n=58 v=116
118004 Off ch=9 n=58 v=0
118016 On ch=9 n=55 v=108
118132 Off ch=9 n=55 v=0
118144 On ch=9 n=55 v=108
118260 Off ch=9 n=55 v=0
118272 On ch=9 n=58 v=115
118388 Off ch=9 n=58 v=0
118400 On ch=9 n=58 v=114
118516 Off ch=9 n=58 v=0
118528 On ch=9 n=56 v=112
118644 Off ch=9 n=56 v=0
118656 On ch=9 n=56 v=111
118772 Off ch=9 n=56 v=0
118784 On ch=9 n=58 v=117
118900 Off ch=9 n=58 v=0
118912 On ch=9 n=58 v=114
119028 Off ch=9 n=58 v=0
119040 On ch=9 n=65 v=127
119168 On ch=9 n=63 v=124
119170 Off ch=9 n=65 v=0
119289 Off ch=9 n=63 v=0
119296 On ch=9 n=58 v=103
119354 Off ch=9 n=58 v=0
119424 On ch=9 n=55 v=103
119482 Off ch=9 n=55 v=0
119552 On ch=9 n=62 v=127
119680 On ch=9 n=60 v=126
119682 Off ch=9 n=62 v=0
119801 Off ch=9 n=60 v=0
119808 On ch=9 n=56 v=109
119866 Off ch=9 n=56 v=0
119936 On ch=9 n=53 v=104
119994 Off ch=9 n=53 v=0
120064 On ch=9 n=60 v=127
120180 Off ch=9 n=60 v=0
120192 On ch=9 n=58 v=113
120308 Off ch=9 n=58 v=0
120320 On ch=9 n=55 v=111
120378 Off ch=9 n=55 v=0
120448 On ch=9 n=51 v=107
120506 Off ch=9 n=51 v=0
120576 On ch=9 n=50 v=107
120692 Off ch=9 n=50 v=0
120704 On ch=9 n=62 v=127
120704 On ch=9 n=53 v=79
120820 Off ch=9 n=62 v=0
120820 Off ch=9 n=53 v=0
120832 On ch=9 n=65 v=126
120832 On ch=9 n=56 v=77
120948 Off ch=9 n=65 v=0
120948 Off ch=9 n=56 v=0
120960 On ch=9 n=62 v=106
120960 On ch=9 n=53 v=75
121076 Off ch=9 n=62 v=0
121076 Off ch=9 n=53 v=0
121088 On ch=9 n=55 v=100
122740 Off ch=9 n=55 v=0
122752 On ch=9 n=58 v=118
122868 Off ch=9 n=58 v=0
122880 On ch=9 n=58 v=116
122996 Off ch=9 n=58 v=0
123008 On ch=9 n=58 v=116
123124 Off ch=9 n=58 v=0
123136 On ch=9 n=58 v=114
124788 Off ch=9 n=58 v=0
124800 On ch=9 n=58 v=115
124916 Off ch=9 n=58 v=0
124928 On ch=9 n=58 v=114
125044 Off ch=9 n=58 v=0
125056 On ch=9 n=58 v=112
125172 Off ch=9 n=58 v=0
125184 On ch=9 n=58 v=112
125415 Off ch=9 n=58 v=0
125824 On ch=9 n=58 v=102
125940 Off ch=9 n=58 v=0
125952 On ch=9 n=58 v=113
126068 Off ch=9 n=58 v=0
126080 On ch=9 n=58 v=113
126196 Off ch=9 n=58 v=0
126208 On ch=9 n=58 v=115
126439 Off ch=9 n=58 v=0
126848 On ch=9 n=58 v=100
126964 Off ch=9 n=58 v=0
126976 On ch=9 n=58 v=115
127092 Off ch=9 n=58 v=0
127104 On ch=9 n=58 v=112
127220 Off ch=9 n=58 v=0
127232 On ch=9 n=63 v=127
127463 Off ch=9 n=63 v=0
129408 On ch=9 n=49 v=103
129524 Off ch=9 n=49 v=0
129536 On ch=9 n=49 v=110
129652 Off ch=9 n=49 v=0
129664 On ch=9 n=49 v=113
129780 Off ch=9 n=49 v=0
129792 On ch=9 n=48 v=111
131072 Off ch=9 n=48 v=0
131584 On ch=9 n=60 v=77
132724 Off ch=9 n=60 v=0
132736 On ch=9 n=61 v=65
132852 Off ch=9 n=61 v=0
132864 On ch=9 n=61 v=63
132980 Off ch=9 n=61 v=0
132992 On ch=9 n=61 v=59
133108 Off ch=9 n=61 v=0
133120 On ch=9 n=60 v=56
134772 Off ch=9 n=60 v=0
134784 On ch=9 n=61 v=60
134900 Off ch=9 n=61 v=0
134912 On ch=9 n=61 v=61
135028 Off ch=9 n=61 v=0
135040 On ch=9 n=61 v=58
135156 Off ch=9 n=61 v=0
135168 On ch=9 n=60 v=55
136653 Off ch=9 n=60 v=0
136704 On ch=9 n=60 v=63
138189 Off ch=9 n=60 v=0
138240 On ch=9 n=62 v=70
138496 On ch=9 n=63 v=72
138501 Off ch=9 n=62 v=0
138752 On ch=9 n=65 v=61
138757 Off ch=9 n=63 v=0
139008 On ch=9 n=66 v=67
139013 Off ch=9 n=65 v=0
139251 Off ch=9 n=66 v=0
139264 On ch=9 n=67 v=62
139380 Off ch=9 n=67 v=0
139392 On ch=9 n=67 v=62
139508 Off ch=9 n=67 v=0
139520 On ch=9 n=67 v=61
139636 Off ch=9 n=67 v=0
139648 On ch=9 n=65 v=60
139764 Off ch=9 n=65 v=0
139776 On ch=9 n=63 v=57
140237 Off ch=9 n=63 v=0
140288 On ch=9 n=62 v=55
140404 Off ch=9 n=62 v=0
140416 On ch=9 n=67 v=73
140532 Off ch=9 n=67 v=0
140544 On ch=9 n=67 v=60
140660 Off ch=9 n=67 v=0
140672 On ch=9 n=65 v=61
140788 Off ch=9 n=65 v=0
140800 On ch=9 n=63 v=54
141261 Off ch=9 n=63 v=0
141312 On ch=9 n=62 v=58
141428 Off ch=9 n=62 v=0
141440 On ch=9 n=67 v=67
141556 Off ch=9 n=67 v=0
141568 On ch=9 n=67 v=66
141684 Off ch=9 n=67 v=0
141696 On ch=9 n=65 v=59
141812 Off ch=9 n=65 v=0
141824 On ch=9 n=63 v=55
141940 Off ch=9 n=63 v=0
141952 On ch=9 n=63 v=57
142068 Off ch=9 n=63 v=0
142080 On ch=9 n=63 v=63
142196 Off ch=9 n=63 v=0
142208 On ch=9 n=62 v=71
142324 Off ch=9 n=62 v=0
142336 On ch=9 n=60 v=66
142452 Off ch=9 n=60 v=0
142464 On ch=9 n=60 v=73
142580 Off ch=9 n=60 v=0
142592 On ch=9 n=60 v=69
142708 Off ch=9 n=60 v=0
142720 On ch=9 n=58 v=66
142836 Off ch=9 n=58 v=0
142848 On ch=9 n=57 v=69
142964 Off ch=9 n=57 v=0
142976 On ch=9 n=57 v=84
143092 Off ch=9 n=57 v=0
143104 On ch=9 n=57 v=85
143220 Off ch=9 n=57 v=0
143232 On ch=9 n=55 v=81
143348 Off ch=9 n=55 v=0
143360 On ch=9 n=54 v=62
143591 Off ch=9 n=54 v=0
144000 On ch=9 n=58 v=51
144116 Off ch=9 n=58 v=0
144128 On ch=9 n=58 v=57
144244 Off ch=9 n=58 v=0
144256 On ch=9 n=60 v=62
144372 Off ch=9 n=60 v=0
144384 On ch=9 n=62 v=66
145012 Off ch=9 n=62 v=0
145024 On ch=9 n=58 v=57
145140 Off ch=9 n=58 v=0
145152 On ch=9 n=58 v=57
145268 Off ch=9 n=58 v=0
145280 On ch=9 n=60 v=63
145396 Off ch=9 n=60 v=0
145408 On ch=9 n=62 v=65
145524 Off ch=9 n=62 v=0
145536 On ch=9 n=62 v=63
145652 Off ch=9 n=62 v=0
145664 On ch=9 n=62 v=63
145780 Off ch=9 n=62 v=0
145792 On ch=9 n=60 v=55
145908 Off ch=9 n=60 v=0
145920 On ch=9 n=58 v=57
146036 Off ch=9 n=58 v=0
146048 On ch=9 n=58 v=60
146164 Off ch=9 n=58 v=0
146176 On ch=9 n=58 v=59
146292 Off ch=9 n=58 v=0
146304 On ch=9 n=57 v=60
146420 Off ch=9 n=57 v=0
146432 On ch=9 n=55 v=58
146548 Off ch=9 n=55 v=0
146560 On ch=9 n=55 v=59
146676 Off ch=9 n=55 v=0
146688 On ch=9 n=55 v=58
146804 Off ch=9 n=55 v=0
146816 On ch=9 n=53 v=58
146932 Off ch=9 n=53 v=0
146944 On ch=9 n=51 v=57
147060 Off ch=9 n=51 v=0
147072 On ch=9 n=51 v=58
147188 Off ch=9 n=51 v=0
147200 On ch=9 n=51 v=62
147316 Off ch=9 n=51 v=0
147328 On ch=9 n=50 v=64
147444 Off ch=9 n=50 v=0
147456 On ch=9 n=48 v=57
147572 Off ch=9 n=48 v=0
147584 On ch=9 n=60 v=77
147700 Off ch=9 n=60 v=0
147712 On ch=9 n=60 v=65
147828 Off ch=9 n=60 v=0
147840 On ch=9 n=58 v=64
147956 Off ch=9 n=58 v=0
147968 On ch=9 n=57 v=56
148084 Off ch=9 n=57 v=0
148096 On ch=9 n=57 v=66
148212 Off ch=9 n=57 v=0
148224 On ch=9 n=57 v=65
148340 Off ch=9 n=57 v=0
148352 On ch=9 n=55 v=55
148468 Off ch=9 n=55 v=0
148480 On ch=9 n=54 v=61
148596 Off ch=9 n=54 v=0
148608 On ch=9 n=54 v=62
148724 Off ch=9 n=54 v=0
148736 On ch=9 n=54 v=62
148852 Off ch=9 n=54 v=0
148864 On ch=9 n=51 v=63
148980 Off ch=9 n=51 v=0
148992 On ch=9 n=50 v=66
149108 Off ch=9 n=50 v=0
149120 On ch=9 n=50 v=60
149236 Off ch=9 n=50 v=0
149248 On ch=9 n=50 v=59
149364 Off ch=9 n=50 v=0
149376 On ch=9 n=48 v=58
149492 Off ch=9 n=48 v=0
149504 On ch=9 n=58 v=64
149620 Off ch=9 n=58 v=0
149632 On ch=9 n=62 v=67
149748 Off ch=9 n=62 v=0
149760 On ch=9 n=62 v=63
149876 Off ch=9 n=62 v=0
149888 On ch=9 n=60 v=54
150004 Off ch=9 n=60 v=0
150016 On ch=9 n=58 v=54
150132 Off ch=9 n=58 v=0
150144 On ch=9 n=58 v=61
150260 Off ch=9 n=58 v=0
150272 On ch=9 n=58 v=73
150388 Off ch=9 n=58 v=0
150400 On ch=9 n=57 v=70
150516 Off ch=9 n=57 v=0
150528 On ch=9 n=55 v=65
150644 Off ch=9 n=55 v=0
150656 On ch=9 n=53 v=68
150772 Off ch=9 n=53 v=0
150784 On ch=9 n=51 v=87
150900 Off ch=9 n=51 v=0
150912 On ch=9 n=50 v=80
151028 Off ch=9 n=50 v=0
151040 On ch=9 n=48 v=101
151156 Off ch=9 n=48 v=0
151168 On ch=9 n=48 v=124
151168 On ch=9 n=60 v=124
151284 Off ch=9 n=48 v=0
151284 Off ch=9 n=60 v=0
151296 On ch=9 n=48 v=101
151296 On ch=9 n=60 v=101
151412 Off ch=9 n=48 v=0
151412 Off ch=9 n=60 v=0
151424 On ch=9 n=48 v=98
151424 On ch=9 n=60 v=98
151540 Off ch=9 n=48 v=0
151540 Off ch=9 n=60 v=0
151552 On ch=9 n=48 v=96
151552 On ch=9 n=60 v=96
151668 Off ch=9 n=48 v=0
151668 Off ch=9 n=60 v=0
151680 On ch=9 n=48 v=102
151680 On ch=9 n=60 v=102
151796 Off ch=9 n=48 v=0
151796 Off ch=9 n=60 v=0
151808 On ch=9 n=48 v=95
151808 On ch=9 n=60 v=95
151924 Off ch=9 n=48 v=0
151924 Off ch=9 n=60 v=0
151936 On ch=9 n=48 v=97
151936 On ch=9 n=60 v=97
152052 Off ch=9 n=48 v=0
152052 Off ch=9 n=60 v=0
152064 On ch=9 n=48 v=99
152064 On ch=9 n=60 v=99
152295 Off ch=9 n=48 v=0
152295 Off ch=9 n=60 v=0
152704 On ch=9 n=49 v=85
152820 Off ch=9 n=49 v=0
152832 On ch=9 n=49 v=103
152948 Off ch=9 n=49 v=0
152960 On ch=9 n=49 v=100
153076 Off ch=9 n=49 v=0
153088 On ch=9 n=49 v=98
153204 Off ch=9 n=49 v=0
153216 On ch=9 n=61 v=127
153332 Off ch=9 n=61 v=0
153344 On ch=9 n=61 v=107
153460 Off ch=9 n=61 v=0
153472 On ch=9 n=61 v=106
153588 Off ch=9 n=61 v=0
153600 On ch=9 n=61 v=99
153716 Off ch=9 n=61 v=0
153728 On ch=9 n=61 v=98
153844 Off ch=9 n=61 v=0
153856 On ch=9 n=61 v=99
153972 Off ch=9 n=61 v=0
153984 On ch=9 n=61 v=100
154100 Off ch=9 n=61 v=0
154112 On ch=9 n=61 v=103
154343 Off ch=9 n=61 v=0
154752 On ch=9 n=62 v=96
154868 Off ch=9 n=62 v=0
154880 On ch=9 n=62 v=105
154996 Off ch=9 n=62 v=0
155008 On ch=9 n=62 v=104
155124 Off ch=9 n=62 v=0
155136 On ch=9 n=62 v=102
155367 Off ch=9 n=62 v=0
155904 On ch=9 n=64 v=93
156020 Off ch=9 n=64 v=0
156032 On ch=9 n=64 v=104
156148 Off ch=9 n=64 v=0
156160 On ch=9 n=64 v=104
156391 Off ch=9 n=64 v=0
156416 On ch=9 n=54 v=91
156532 Off ch=9 n=54 v=0
156544 On ch=9 n=54 v=106
156660 Off ch=9 n=54 v=0
156672 On ch=9 n=54 v=108
156903 Off ch=9 n=54 v=0
158464 On ch=9 n=72 v=99
158951 Off ch=9 n=72 v=0
158976 On ch=9 n=69 v=96
159091 Off ch=9 n=69 v=0
159232 On ch=9 n=66 v=95
159347 Off ch=9 n=66 v=0
159488 On ch=9 n=62 v=94
159603 Off ch=9 n=62 v=0
159744 On ch=9 n=60 v=98
159859 Off ch=9 n=60 v=0
160000 On ch=9 n=57 v=101
160115 Off ch=9 n=57 v=0
160256 On ch=9 n=54 v=102
160371 Off ch=9 n=54 v=0
160512 On ch=9 n=50 v=103
160627 Off ch=9 n=50 v=0
160768 On ch=9 n=55 v=112
160999 Off ch=9 n=55 v=0
162560 On ch=9 n=77 v=88
163047 Off ch=9 n=77 v=0
163072 On ch=9 n=74 v=98
163187 Off ch=9 n=74 v=0
163328 On ch=9 n=71 v=93
163443 Off ch=9 n=71 v=0
163584 On ch=9 n=67 v=92
163699 Off ch=9 n=67 v=0
163840 On ch=9 n=65 v=97
163955 Off ch=9 n=65 v=0
164096 On ch=9 n=62 v=95
164211 Off ch=9 n=62 v=0
164352 On ch=9 n=59 v=100
164467 Off ch=9 n=59 v=0
164608 On ch=9 n=55 v=101
164723 Off ch=9 n=55 v=0
164864 On ch=9 n=60 v=116
165095 Off ch=9 n=60 v=0
166400 On ch=9 n=48 v=95
166400 On ch=9 n=60 v=95
166861 Off ch=9 n=48 v=0
166861 Off ch=9 n=60 v=0
166912 On ch=9 n=48 v=102
166912 On ch=9 n=60 v=102
167373 Off ch=9 n=48 v=0
167373 Off ch=9 n=60 v=0
168448 On ch=9 n=55 v=97
168960 On ch=9 n=56 v=93
168970 Off ch=9 n=55 v=0
169446 Off ch=9 n=56 v=0
170496 On ch=9 n=58 v=112
171008 On ch=9 n=51 v=100
171018 Off ch=9 n=58 v=0
171494 Off ch=9 n=51 v=0
172544 On ch=9 n=53 v=107
173005 Off ch=9 n=53 v=0
173568 On ch=9 n=54 v=86
174029 Off ch=9 n=54 v=0
174592 On ch=9 n=53 v=70
175053 Off ch=9 n=53 v=0
175616 On ch=9 n=54 v=63
176077 Off ch=9 n=54 v=0
176640 On ch=9 n=54 v=53
177101 Off ch=9 n=54 v=0
177664 On ch=9 n=54 v=56
178125 Off ch=9 n=54 v=0
178688 On ch=9 n=50 v=45
179149 Off ch=9 n=50 v=0
179712 On ch=9 n=50 v=48
180173 Off ch=9 n=50 v=0
180736 On ch=9 n=50 v=48
181197 Off ch=9 n=50 v=0
181760 On ch=9 n=50 v=114
181876 Off ch=9 n=50 v=0
181888 On ch=9 n=50 v=127
181888 On ch=9 n=62 v=127
182004 Off ch=9 n=50 v=0
182004 Off ch=9 n=62 v=0
182016 On ch=9 n=50 v=116
182016 On ch=9 n=62 v=116
182132 Off ch=9 n=50 v=0
182132 Off ch=9 n=62 v=0
182144 On ch=9 n=50 v=115
182144 On ch=9 n=62 v=115
182260 Off ch=9 n=50 v=0
182260 Off ch=9 n=62 v=0
182272 On ch=9 n=50 v=114
182272 On ch=9 n=62 v=114
182733 Off ch=9 n=50 v=0
182733 Off ch=9 n=62 v=0
182784 On ch=9 n=50 v=112
182784 On ch=9 n=62 v=112
183245 Off ch=9 n=50 v=0
183245 Off ch=9 n=62 v=0
183296 On ch=9 n=50 v=115
183296 On ch=9 n=62 v=115
184269 Off ch=9 n=50 v=0
184269 Off ch=9 n=62 v=0
184832 On ch=9 n=53 v=43
185293 Off ch=9 n=53 v=0
185856 On ch=9 n=53 v=46
186317 Off ch=9 n=53 v=0
186880 On ch=9 n=53 v=51
187341 Off ch=9 n=53 v=0
187904 On ch=9 n=53 v=94
188135 Off ch=9 n=53 v=0
188544 On ch=9 n=56 v=92
188660 Off ch=9 n=56 v=0
188672 On ch=9 n=56 v=90
188788 Off ch=9 n=56 v=0
188800 On ch=9 n=56 v=97
188916 Off ch=9 n=56 v=0
188928 On ch=9 n=53 v=95
189556 Off ch=9 n=53 v=0
189568 On ch=9 n=56 v=104
189684 Off ch=9 n=56 v=0
189696 On ch=9 n=56 v=100
189812 Off ch=9 n=56 v=0
189824 On ch=9 n=56 v=95
189940 Off ch=9 n=56 v=0
189952 On ch=9 n=53 v=93
190580 Off ch=9 n=53 v=0
190592 On ch=9 n=56 v=99
190708 Off ch=9 n=56 v=0
190720 On ch=9 n=56 v=100
190836 Off ch=9 n=56 v=0
190848 On ch=9 n=56 v=100
190964 Off ch=9 n=56 v=0
190976 On ch=9 n=53 v=93
191092 Off ch=9 n=53 v=0
191104 On ch=9 n=56 v=101
191220 Off ch=9 n=56 v=0
191232 On ch=9 n=56 v=99
191348 Off ch=9 n=56 v=0
191360 On ch=9 n=56 v=99
191476 Off ch=9 n=56 v=0
191488 On ch=9 n=53 v=96
191604 Off ch=9 n=53 v=0
191616 On ch=9 n=56 v=104
191732 Off ch=9 n=56 v=0
191744 On ch=9 n=56 v=96
191860 Off ch=9 n=56 v=0
191872 On ch=9 n=56 v=96
191988 Off ch=9 n=56 v=0
192000 On ch=9 n=53 v=92
192116 Off ch=9 n=53 v=0
192128 On ch=9 n=55 v=100
192244 Off ch=9 n=55 v=0
192256 On ch=9 n=55 v=98
192372 Off ch=9 n=55 v=0
192384 On ch=9 n=55 v=98
192500 Off ch=9 n=55 v=0
192512 On ch=9 n=51 v=92
193280 Off ch=9 n=51 v=0
193408 On ch=9 n=53 v=91
193524 Off ch=9 n=53 v=0
193536 On ch=9 n=53 v=99
193652 Off ch=9 n=53 v=0
193664 On ch=9 n=53 v=96
193780 Off ch=9 n=53 v=0
193792 On ch=9 n=50 v=96
195072 Off ch=9 n=50 v=0
195584 PrCh ch=9 p=45
195584 Par ch=9 c=7 v=66
195584 Par ch=9 c=10 v=86
195584 On ch=9 n=60 v=75
195815 Off ch=9 n=60 v=0
196608 On ch=9 n=60 v=58
196839 Off ch=9 n=60 v=0
197632 On ch=9 n=59 v=56
197863 Off ch=9 n=59 v=0
198656 On ch=9 n=59 v=53
198887 Off ch=9 n=59 v=0
199680 On ch=9 n=60 v=55
199911 Off ch=9 n=60 v=0
200192 On ch=9 n=59 v=51
200423 Off ch=9 n=59 v=0
200832 PrCh ch=9 p=48
200832 Par ch=9 c=7 v=66
200832 Par ch=9 c=10 v=86
200832 On ch=9 n=51 v=56
200948 Off ch=9 n=51 v=0
200960 On ch=9 n=51 v=57
201076 Off ch=9 n=51 v=0
201088 On ch=9 n=53 v=60
201204 Off ch=9 n=53 v=0
201216 On ch=9 n=55 v=67
201332 Off ch=9 n=55 v=0
201344 On ch=9 n=55 v=66
201460 Off ch=9 n=55 v=0
201472 On ch=9 n=57 v=66
201588 Off ch=9 n=57 v=0
201600 On ch=9 n=59 v=60
201716 Off ch=9 n=59 v=0
201728 On ch=9 n=60 v=75
201959 Off ch=9 n=60 v=0
202240 On ch=9 n=56 v=72
202471 Off ch=9 n=56 v=0
202752 On ch=9 n=55 v=78
202983 Off ch=9 n=55 v=0
206720 On ch=9 n=56 v=59
206836 Off ch=9 n=56 v=0
206848 On ch=9 n=56 v=54
206964 Off ch=9 n=56 v=0
206976 On ch=9 n=56 v=60
207092 Off ch=9 n=56 v=0
207104 On ch=9 n=55 v=60
207565 Off ch=9 n=55 v=0
207616 On ch=9 n=55 v=63
207732 Off ch=9 n=55 v=0
207744 On ch=9 n=56 v=59
207860 Off ch=9 n=56 v=0
207872 On ch=9 n=56 v=62
207988 Off ch=9 n=56 v=0
208000 On ch=9 n=56 v=60
208116 Off ch=9 n=56 v=0
208128 On ch=9 n=53 v=66
208244 Off ch=9 n=53 v=0
208256 On ch=9 n=50 v=64
208372 Off ch=9 n=50 v=0
208384 On ch=9 n=50 v=75
208500 Off ch=9 n=50 v=0
208512 On ch=9 n=50 v=69
208628 Off ch=9 n=50 v=0
208640 On ch=9 n=59 v=95
208756 Off ch=9 n=59 v=0
208768 On ch=9 n=56 v=86
208884 Off ch=9 n=56 v=0
208896 On ch=9 n=56 v=85
209012 Off ch=9 n=56 v=0
209024 On ch=9 n=56 v=84
209140 Off ch=9 n=56 v=0
209152 On ch=9 n=55 v=82
209268 Off ch=9 n=55 v=0
209280 On ch=9 n=55 v=84
209396 Off ch=9 n=55 v=0
209408 On ch=9 n=55 v=89
209524 Off ch=9 n=55 v=0
209536 On ch=9 n=55 v=83
209652 Off ch=9 n=55 v=0
209664 On ch=9 n=55 v=96
209780 Off ch=9 n=55 v=0
209792 On ch=9 n=60 v=110
209908 Off ch=9 n=60 v=0
209920 On ch=9 n=63 v=106
210036 Off ch=9 n=63 v=0
210048 On ch=9 n=63 v=102
210164 Off ch=9 n=63 v=0
210176 On ch=9 n=62 v=94
210804 Off ch=9 n=62 v=0
210816 On ch=9 n=65 v=107
210932 Off ch=9 n=65 v=0
210944 On ch=9 n=65 v=97
211060 Off ch=9 n=65 v=0
211072 On ch=9 n=62 v=88
211188 Off ch=9 n=62 v=0
211200 On ch=9 n=63 v=104
211828 Off ch=9 n=63 v=0
211840 On ch=9 n=63 v=93
211956 Off ch=9 n=63 v=0
211968 On ch=9 n=63 v=96
212084 Off ch=9 n=63 v=0
212096 On ch=9 n=60 v=88
212212 Off ch=9 n=60 v=0
212224 On ch=9 n=65 v=127
212340 Off ch=9 n=65 v=0
212352 On ch=9 n=65 v=100
212468 Off ch=9 n=65 v=0
212480 On ch=9 n=65 v=95
212596 Off ch=9 n=65 v=0
212608 On ch=9 n=59 v=88
212724 Off ch=9 n=59 v=0
212736 On ch=9 n=67 v=127
212852 Off ch=9 n=67 v=0
212864 On ch=9 n=67 v=100
212980 Off ch=9 n=67 v=0
212992 On ch=9 n=67 v=96
213108 Off ch=9 n=67 v=0
213120 On ch=9 n=58 v=89
213236 Off ch=9 n=58 v=0
213248 On ch=9 n=68 v=127
213364 Off ch=9 n=68 v=0
213376 On ch=9 n=56 v=88
213492 Off ch=9 n=56 v=0
213504 On ch=9 n=56 v=96
213620 Off ch=9 n=56 v=0
213632 On ch=9 n=53 v=97
213748 Off ch=9 n=53 v=0
213760 On ch=9 n=58 v=117
213876 Off ch=9 n=58 v=0
213888 On ch=9 n=58 v=101
214004 Off ch=9 n=58 v=0
214016 On ch=9 n=58 v=97
214132 Off ch=9 n=58 v=0
214144 On ch=9 n=55 v=91
214260 Off ch=9 n=55 v=0
214272 On ch=9 n=60 v=127
214388 Off ch=9 n=60 v=0
214400 On ch=9 n=60 v=102
214516 Off ch=9 n=60 v=0
214528 On ch=9 n=60 v=99
214644 Off ch=9 n=60 v=0
214656 On ch=9 n=56 v=91
214772 Off ch=9 n=56 v=0
214784 On ch=9 n=65 v=127
214900 Off ch=9 n=65 v=0
214912 On ch=9 n=65 v=102
215028 Off ch=9 n=65 v=0
215040 On ch=9 n=65 v=98
215156 Off ch=9 n=65 v=0
215168 On ch=9 n=62 v=88
215284 Off ch=9 n=62 v=0
215296 On ch=9 n=63 v=100
215412 Off ch=9 n=63 v=0
215424 On ch=9 n=48 v=89
215424 On ch=9 n=51 v=89
215540 Off ch=9 n=48 v=0
215540 Off ch=9 n=51 v=0
215552 On ch=9 n=48 v=92
215552 On ch=9 n=51 v=92
215668 Off ch=9 n=48 v=0
215668 Off ch=9 n=51 v=0
215680 On ch=9 n=48 v=95
215680 On ch=9 n=51 v=95
215796 Off ch=9 n=48 v=0
215796 Off ch=9 n=51 v=0
215808 On ch=9 n=48 v=96
215808 On ch=9 n=51 v=96
215924 Off ch=9 n=48 v=0
215924 Off ch=9 n=51 v=0
215936 On ch=9 n=48 v=100
215936 On ch=9 n=51 v=100
216052 Off ch=9 n=48 v=0
216052 Off ch=9 n=51 v=0
216064 On ch=9 n=48 v=103
216064 On ch=9 n=51 v=103
216180 Off ch=9 n=48 v=0
216180 Off ch=9 n=51 v=0
216192 On ch=9 n=48 v=94
216192 On ch=9 n=51 v=94
216308 Off ch=9 n=48 v=0
216308 Off ch=9 n=51 v=0
216320 On ch=9 n=48 v=103
216320 On ch=9 n=51 v=103
216436 Off ch=9 n=48 v=0
216436 Off ch=9 n=51 v=0
216448 On ch=9 n=48 v=99
216448 On ch=9 n=51 v=99
216564 Off ch=9 n=48 v=0
216564 Off ch=9 n=51 v=0
216576 On ch=9 n=48 v=101
216576 On ch=9 n=51 v=101
216692 Off ch=9 n=48 v=0
216692 Off ch=9 n=51 v=0
216704 On ch=9 n=48 v=96
216704 On ch=9 n=51 v=96
216820 Off ch=9 n=48 v=0
216820 Off ch=9 n=51 v=0
216832 On ch=9 n=48 v=103
216832 On ch=9 n=51 v=103
216948 Off ch=9 n=48 v=0
216948 Off ch=9 n=51 v=0
216960 On ch=9 n=48 v=98
216960 On ch=9 n=51 v=98
217076 Off ch=9 n=48 v=0
217076 Off ch=9 n=51 v=0
217088 On ch=9 n=48 v=95
217088 On ch=9 n=51 v=95
217204 Off ch=9 n=48 v=0
217204 Off ch=9 n=51 v=0
217216 On ch=9 n=48 v=94
217216 On ch=9 n=51 v=94
217332 Off ch=9 n=48 v=0
217332 Off ch=9 n=51 v=0
217344 On ch=9 n=50 v=100
217344 On ch=9 n=53 v=100
217460 Off ch=9 n=50 v=0
217460 Off ch=9 n=53 v=0
217472 On ch=9 n=50 v=98
217472 On ch=9 n=53 v=98
217588 Off ch=9 n=50 v=0
217588 Off ch=9 n=53 v=0
217600 On ch=9 n=50 v=100
217600 On ch=9 n=53 v=100
217716 Off ch=9 n=50 v=0
217716 Off ch=9 n=53 v=0
217728 On ch=9 n=50 v=94
217728 On ch=9 n=53 v=94
217844 Off ch=9 n=50 v=0
217844 Off ch=9 n=53 v=0
217856 On ch=9 n=50 v=101
217856 On ch=9 n=53 v=101
217972 Off ch=9 n=50 v=0
217972 Off ch=9 n=53 v=0
217984 On ch=9 n=50 v=99
217984 On ch=9 n=53 v=99
218100 Off ch=9 n=50 v=0
218100 Off ch=9 n=53 v=0
218112 On ch=9 n=50 v=98
218112 On ch=9 n=53 v=98
218228 Off ch=9 n=50 v=0
218228 Off ch=9 n=53 v=0
218240 On ch=9 n=50 v=99
218240 On ch=9 n=53 v=99
218356 Off ch=9 n=50 v=0
218356 Off ch=9 n=53 v=0
218368 On ch=9 n=50 v=101
218368 On ch=9 n=53 v=101
218484 Off ch=9 n=50 v=0
218484 Off ch=9 n=53 v=0
218496 On ch=9 n=50 v=96
218496 On ch=9 n=53 v=96
218612 Off ch=9 n=50 v=0
218612 Off ch=9 n=53 v=0
218624 On ch=9 n=50 v=102
218624 On ch=9 n=53 v=102
218740 Off ch=9 n=50 v=0
218740 Off ch=9 n=53 v=0
218752 On ch=9 n=50 v=97
218752 On ch=9 n=53 v=97
218868 Off ch=9 n=50 v=0
218868 Off ch=9 n=53 v=0
218880 On ch=9 n=50 v=96
218880 On ch=9 n=53 v=96
218996 Off ch=9 n=50 v=0
218996 Off ch=9 n=53 v=0
219008 On ch=9 n=50 v=98
219008 On ch=9 n=53 v=98
219124 Off ch=9 n=50 v=0
219124 Off ch=9 n=53 v=0
219136 On ch=9 n=48 v=92
219136 On ch=9 n=51 v=92
219252 Off ch=9 n=48 v=0
219252 Off ch=9 n=51 v=0
219264 On ch=9 n=48 v=98
219264 On ch=9 n=51 v=98
219380 Off ch=9 n=48 v=0
219380 Off ch=9 n=51 v=0
219392 On ch=9 n=51 v=121
219392 On ch=9 n=57 v=121
219508 Off ch=9 n=51 v=0
219508 Off ch=9 n=57 v=0
219520 On ch=9 n=75 v=127
219636 Off ch=9 n=75 v=0
219648 On ch=9 n=75 v=125
219764 Off ch=9 n=75 v=0
219776 On ch=9 n=75 v=109
219892 Off ch=9 n=75 v=0
219904 On ch=9 n=72 v=108
220020 Off ch=9 n=72 v=0
220032 On ch=9 n=69 v=100
220148 Off ch=9 n=69 v=0
220160 On ch=9 n=69 v=113
220276 Off ch=9 n=69 v=0
220288 On ch=9 n=69 v=107
220404 Off ch=9 n=69 v=0
220416 On ch=9 n=66 v=101
220532 Off ch=9 n=66 v=0
220544 On ch=9 n=63 v=101
220660 Off ch=9 n=63 v=0
220672 On ch=9 n=63 v=111
220788 Off ch=9 n=63 v=0
220800 On ch=9 n=63 v=110
220916 Off ch=9 n=63 v=0
220928 On ch=9 n=60 v=104
221044 Off ch=9 n=60 v=0
221056 On ch=9 n=57 v=108
221172 Off ch=9 n=57 v=0
221184 On ch=9 n=57 v=112
221300 Off ch=9 n=57 v=0
221312 On ch=9 n=57 v=115
221428 Off ch=9 n=57 v=0
221440 On ch=9 n=60 v=125
221671 Off ch=9 n=60 v=0
222464 On ch=9 n=59 v=104
222464 On ch=9 n=62 v=104
222695 Off ch=9 n=59 v=0
222695 Off ch=9 n=62 v=0
225024 On ch=9 n=60 v=59
225536 On ch=9 n=62 v=60
225546 Off ch=9 n=60 v=0
226022 Off ch=9 n=62 v=0
226048 On ch=9 n=59 v=64
226560 On ch=9 n=60 v=67
226570 Off ch=9 n=59 v=0
227046 Off ch=9 n=60 v=0
229120 On ch=9 n=60 v=62
229632 On ch=9 n=62 v=60
229642 Off ch=9 n=60 v=0
230118 Off ch=9 n=62 v=0
230144 On ch=9 n=59 v=59
230656 On ch=9 n=60 v=58
230666 Off ch=9 n=59 v=0
231142 Off ch=9 n=60 v=0
233216 On ch=9 n=67 v=70
233728 On ch=9 n=64 v=65
233738 Off ch=9 n=67 v=0
234214 Off ch=9 n=64 v=0
234240 On ch=9 n=64 v=59
234752 On ch=9 n=60 v=52
234762 Off ch=9 n=64 v=0
235238 Off ch=9 n=60 v=0
235264 On ch=9 n=65 v=70
235776 On ch=9 n=66 v=76
235786 Off ch=9 n=65 v=0
236262 Off ch=9 n=66 v=0
236288 On ch=9 n=66 v=59
236800 On ch=9 n=62 v=54
236810 Off ch=9 n=66 v=0
237286 Off ch=9 n=62 v=0
237952 On ch=9 n=56 v=56
238068 Off ch=9 n=56 v=0
238080 On ch=9 n=56 v=59
238196 Off ch=9 n=56 v=0
238208 On ch=9 n=56 v=60
238324 Off ch=9 n=56 v=0
238336 On ch=9 n=56 v=59
238567 Off ch=9 n=56 v=0
238976 On ch=9 n=59 v=53
239092 Off ch=9 n=59 v=0
239104 On ch=9 n=59 v=61
239220 Off ch=9 n=59 v=0
239232 On ch=9 n=59 v=54
239348 Off ch=9 n=59 v=0
239360 On ch=9 n=59 v=62
239591 Off ch=9 n=59 v=0
240384 On ch=9 n=53 v=57
240640 On ch=9 n=55 v=68
240645 Off ch=9 n=53 v=0
240883 Off ch=9 n=55 v=0
240896 On ch=9 n=56 v=69
241152 On ch=9 n=55 v=71
241157 Off ch=9 n=56 v=0
241408 On ch=9 n=54 v=71
241413 Off ch=9 n=55 v=0
241664 On ch=9 n=55 v=70
241669 Off ch=9 n=54 v=0
241907 Off ch=9 n=55 v=0
241920 On ch=9 n=57 v=75
242176 On ch=9 n=55 v=73
242181 Off ch=9 n=57 v=0
242432 On ch=9 n=54 v=73
242437 Off ch=9 n=55 v=0
242688 On ch=9 n=55 v=83
242693 Off ch=9 n=54 v=0
242931 Off ch=9 n=55 v=0
242944 On ch=9 n=57 v=86
243200 On ch=9 n=55 v=83
243205 Off ch=9 n=57 v=0
243456 On ch=9 n=54 v=83
243461 Off ch=9 n=55 v=0
243712 On ch=9 n=55 v=85
243717 Off ch=9 n=54 v=0
243968 On ch=9 n=54 v=95
243973 Off ch=9 n=55 v=0
244224 On ch=9 n=55 v=95
244229 Off ch=9 n=54 v=0
244480 On ch=9 n=54 v=98
244485 Off ch=9 n=55 v=0
244736 On ch=9 n=55 v=99
244741 Off ch=9 n=54 v=0
244979 Off ch=9 n=55 v=0
244992 On ch=9 n=55 v=127
244992 On ch=9 n=65 v=127
245735 Off ch=9 n=55 v=0
245735 Off ch=9 n=65 v=0
245760 On ch=9 n=50 v=97
245876 Off ch=9 n=50 v=0
245888 On ch=9 n=50 v=111
246004 Off ch=9 n=50 v=0
246016 On ch=9 n=52 v=113
246132 Off ch=9 n=52 v=0
246144 On ch=9 n=52 v=114
246260 Off ch=9 n=52 v=0
246272 On ch=9 n=55 v=116
246388 Off ch=9 n=55 v=0
246400 On ch=9 n=55 v=114
246516 Off ch=9 n=55 v=0
246528 On ch=9 n=53 v=114
246644 Off ch=9 n=53 v=0
246656 On ch=9 n=53 v=111
246772 Off ch=9 n=53 v=0
246784 On ch=9 n=55 v=116
246900 Off ch=9 n=55 v=0
246912 On ch=9 n=55 v=108
247028 Off ch=9 n=55 v=0
247040 On ch=9 n=52 v=112
247156 Off ch=9 n=52 v=0
247168 On ch=9 n=52 v=111
247284 Off ch=9 n=52 v=0
247296 On ch=9 n=55 v=120
247412 Off ch=9 n=55 v=0
247424 On ch=9 n=55 v=113
247540 Off ch=9 n=55 v=0
247552 On ch=9 n=50 v=108
247668 Off ch=9 n=50 v=0
247680 On ch=9 n=50 v=108
247796 Off ch=9 n=50 v=0
247808 On ch=9 n=57 v=122
247924 Off ch=9 n=57 v=0
247936 On ch=9 n=57 v=116
248052 Off ch=9 n=57 v=0
248064 On ch=9 n=52 v=105
248180 Off ch=9 n=52 v=0
248192 On ch=9 n=52 v=111
248308 Off ch=9 n=52 v=0
248320 On ch=9 n=55 v=121
248436 Off ch=9 n=55 v=0
248448 On ch=9 n=55 v=112
248564 Off ch=9 n=55 v=0
248576 On ch=9 n=50 v=112
248807 Off ch=9 n=50 v=0
249088 On ch=9 n=50 v=102
249204 Off ch=9 n=50 v=0
249216 On ch=9 n=50 v=112
249332 Off ch=9 n=50 v=0
249344 On ch=9 n=55 v=125
249460 Off ch=9 n=55 v=0
249472 On ch=9 n=55 v=114
249588 Off ch=9 n=55 v=0
249600 On ch=9 n=50 v=103
249716 Off ch=9 n=50 v=0
249728 On ch=9 n=50 v=116
249844 Off ch=9 n=50 v=0
249856 On ch=9 n=55 v=122
249972 Off ch=9 n=55 v=0
249984 On ch=9 n=55 v=114
250100 Off ch=9 n=55 v=0
250112 On ch=9 n=52 v=112
250228 Off ch=9 n=52 v=0
250240 On ch=9 n=52 v=112
250356 Off ch=9 n=52 v=0
250368 On ch=9 n=55 v=115
250484 Off ch=9 n=55 v=0
250496 On ch=9 n=55 v=117
250612 Off ch=9 n=55 v=0
250624 On ch=9 n=53 v=110
250740 Off ch=9 n=53 v=0
250752 On ch=9 n=53 v=115
250868 Off ch=9 n=53 v=0
250880 On ch=9 n=59 v=121
250996 Off ch=9 n=59 v=0
251008 On ch=9 n=59 v=112
251124 Off ch=9 n=59 v=0
251136 On ch=9 n=62 v=126
251264 On ch=9 n=60 v=119
251266 Off ch=9 n=62 v=0
251385 Off ch=9 n=60 v=0
251392 On ch=9 n=55 v=107
251450 Off ch=9 n=55 v=0
251520 On ch=9 n=52 v=111
251578 Off ch=9 n=52 v=0
251648 On ch=9 n=59 v=120
251776 On ch=9 n=57 v=116
251778 Off ch=9 n=59 v=0
251897 Off ch=9 n=57 v=0
251904 On ch=9 n=53 v=106
251962 Off ch=9 n=53 v=0
252032 On ch=9 n=50 v=105
252090 Off ch=9 n=50 v=0
252160 On ch=9 n=57 v=123
252288 On ch=9 n=55 v=120
252290 Off ch=9 n=57 v=0
252409 Off ch=9 n=55 v=0
252416 On ch=9 n=52 v=104
252474 Off ch=9 n=52 v=0
252544 On ch=9 n=48 v=103
252602 Off ch=9 n=48 v=0
252672 On ch=9 n=50 v=126
252672 On ch=9 n=59 v=126
252788 Off ch=9 n=50 v=0
252788 Off ch=9 n=59 v=0
252800 On ch=9 n=50 v=114
252800 On ch=9 n=59 v=114
252916 Off ch=9 n=50 v=0
252916 Off ch=9 n=59 v=0
252928 On ch=9 n=53 v=122
252928 On ch=9 n=62 v=122
253044 Off ch=9 n=53 v=0
253044 Off ch=9 n=62 v=0
253056 On ch=9 n=53 v=116
253056 On ch=9 n=62 v=116
253172 Off ch=9 n=53 v=0
253172 Off ch=9 n=62 v=0
253184 On ch=9 n=55 v=102
254836 Off ch=9 n=55 v=0
254848 On ch=9 n=55 v=112
254964 Off ch=9 n=55 v=0
254976 On ch=9 n=55 v=112
255092 Off ch=9 n=55 v=0
255104 On ch=9 n=55 v=114
255220 Off ch=9 n=55 v=0
255232 On ch=9 n=55 v=112
256884 Off ch=9 n=55 v=0
256896 On ch=9 n=67 v=127
257012 Off ch=9 n=67 v=0
257024 On ch=9 n=67 v=115
257140 Off ch=9 n=67 v=0
257152 On ch=9 n=67 v=116
257268 Off ch=9 n=67 v=0
257280 On ch=9 n=67 v=117
257511 Off ch=9 n=67 v=0
257920 On ch=9 n=67 v=102
258036 Off ch=9 n=67 v=0
258048 On ch=9 n=67 v=109
258164 Off ch=9 n=67 v=0
258176 On ch=9 n=67 v=112
258292 Off ch=9 n=67 v=0
258304 On ch=9 n=67 v=111
258535 Off ch=9 n=67 v=0
258944 On ch=9 n=55 v=100
259060 Off ch=9 n=55 v=0
259072 On ch=9 n=55 v=116
259188 Off ch=9 n=55 v=0
259200 On ch=9 n=55 v=111
259316 Off ch=9 n=55 v=0
259328 On ch=9 n=67 v=127
259956 Off ch=9 n=67 v=0
259968 On ch=9 n=67 v=113
260084 Off ch=9 n=67 v=0
260096 On ch=9 n=67 v=111
260212 Off ch=9 n=67 v=0
260224 On ch=9 n=67 v=111
260340 Off ch=9 n=67 v=0
260352 On ch=9 n=65 v=119
260980 Off ch=9 n=65 v=0
260992 On ch=9 n=65 v=114
261108 Off ch=9 n=65 v=0
261120 On ch=9 n=65 v=118
261236 Off ch=9 n=65 v=0
261248 On ch=9 n=65 v=113
261364 Off ch=9 n=65 v=0
261376 On ch=9 n=60 v=112
262004 Off ch=9 n=60 v=0
262016 On ch=9 n=60 v=116
262132 Off ch=9 n=60 v=0
262144 On ch=9 n=60 v=113
262260 Off ch=9 n=60 v=0
262272 On ch=9 n=60 v=116
262388 Off ch=9 n=60 v=0
262400 On ch=9 n=56 v=121
263028 Off ch=9 n=56 v=0
263040 On ch=9 n=56 v=115
263156 Off ch=9 n=56 v=0
263168 On ch=9 n=56 v=110
263284 Off ch=9 n=56 v=0
263296 On ch=9 n=56 v=110
263412 Off ch=9 n=56 v=0
263424 On ch=9 n=56 v=116
263540 Off ch=9 n=56 v=0
263552 On ch=9 n=68 v=127
263668 Off ch=9 n=68 v=0
263680 On ch=9 n=68 v=121
263796 Off ch=9 n=68 v=0
263808 On ch=9 n=68 v=113
263924 Off ch=9 n=68 v=0
263936 On ch=9 n=68 v=114
264052 Off ch=9 n=68 v=0
264064 On ch=9 n=68 v=117
264180 Off ch=9 n=68 v=0
264192 On ch=9 n=68 v=115
264308 Off ch=9 n=68 v=0
264320 On ch=9 n=68 v=114
264436 Off ch=9 n=68 v=0
264448 On ch=9 n=68 v=114
264564 Off ch=9 n=68 v=0
264576 On ch=9 n=68 v=112
264692 Off ch=9 n=68 v=0
264704 On ch=9 n=68 v=115
264820 Off ch=9 n=68 v=0
264832 On ch=9 n=68 v=113
264948 Off ch=9 n=68 v=0
264960 On ch=9 n=68 v=114
265076 Off ch=9 n=68 v=0
265088 On ch=9 n=68 v=110
265204 Off ch=9 n=68 v=0
265216 On ch=9 n=68 v=110
265332 Off ch=9 n=68 v=0
265344 On ch=9 n=68 v=109
265460 Off ch=9 n=68 v=0
265472 On ch=9 n=68 v=116
265703 Off ch=9 n=68 v=0
267648 On ch=9 n=57 v=104
267764 Off ch=9 n=57 v=0
267776 On ch=9 n=57 v=105
267892 Off ch=9 n=57 v=0
267904 On ch=9 n=57 v=115
268020 Off ch=9 n=57 v=0
268032 On ch=9 n=57 v=111
268148 Off ch=9 n=57 v=0
268160 On ch=9 n=69 v=127
268276 Off ch=9 n=69 v=0
268288 On ch=9 n=69 v=116
268404 Off ch=9 n=69 v=0
268416 On ch=9 n=69 v=114
268532 Off ch=9 n=69 v=0
268544 On ch=9 n=69 v=112
268660 Off ch=9 n=69 v=0
268672 On ch=9 n=69 v=116
268788 Off ch=9 n=69 v=0
268800 On ch=9 n=69 v=114
268916 Off ch=9 n=69 v=0
268928 On ch=9 n=69 v=112
269044 Off ch=9 n=69 v=0
269056 On ch=9 n=69 v=115
269172 Off ch=9 n=69 v=0
269184 On ch=9 n=69 v=113
269300 Off ch=9 n=69 v=0
269312 On ch=9 n=69 v=114
269428 Off ch=9 n=69 v=0
269440 On ch=9 n=69 v=109
269556 Off ch=9 n=69 v=0
269568 On ch=9 n=69 v=112
269684 Off ch=9 n=69 v=0
269696 On ch=9 n=69 v=118
269812 Off ch=9 n=69 v=0
269824 On ch=9 n=69 v=118
269940 Off ch=9 n=69 v=0
269952 On ch=9 n=69 v=112
270068 Off ch=9 n=69 v=0
270080 On ch=9 n=69 v=115
270311 Off ch=9 n=69 v=0
271744 On ch=9 n=67 v=83
271860 Off ch=9 n=67 v=0
271872 On ch=9 n=67 v=96
271988 Off ch=9 n=67 v=0
272000 On ch=9 n=67 v=100
272116 Off ch=9 n=67 v=0
272128 On ch=9 n=63 v=84
272589 Off ch=9 n=63 v=0
272640 On ch=9 n=65 v=101
273101 Off ch=9 n=65 v=0
273152 On ch=9 n=62 v=88
273780 Off ch=9 n=62 v=0
273792 On ch=9 n=67 v=106
273908 Off ch=9 n=67 v=0
273920 On ch=9 n=67 v=101
274036 Off ch=9 n=67 v=0
274048 On ch=9 n=67 v=96
274164 Off ch=9 n=67 v=0
274176 On ch=9 n=63 v=87
274637 Off ch=9 n=63 v=0
274688 On ch=9 n=65 v=105
275149 Off ch=9 n=65 v=0
275200 On ch=9 n=62 v=91
275828 Off ch=9 n=62 v=0
275840 On ch=9 n=67 v=113
275956 Off ch=9 n=67 v=0
275968 On ch=9 n=67 v=102
276084 Off ch=9 n=67 v=0
276096 On ch=9 n=67 v=97
276212 Off ch=9 n=67 v=0
276224 On ch=9 n=63 v=88
276455 Off ch=9 n=63 v=0
276480 On ch=9 n=65 v=104
276711 Off ch=9 n=65 v=0
276736 On ch=9 n=62 v=90
276967 Off ch=9 n=62 v=0
276992 On ch=9 n=63 v=101
277223 Off ch=9 n=63 v=0
277248 On ch=9 n=60 v=91
277479 Off ch=9 n=60 v=0
277504 On ch=9 n=62 v=99
277735 Off ch=9 n=62 v=0
277760 On ch=9 n=58 v=91
277991 Off ch=9 n=58 v=0
278016 On ch=9 n=60 v=103
278247 Off ch=9 n=60 v=0
278272 On ch=9 n=56 v=94
278503 Off ch=9 n=56 v=0
278528 On ch=9 n=58 v=100
278759 Off ch=9 n=58 v=0
278784 On ch=9 n=55 v=96
279015 Off ch=9 n=55 v=0
279040 On ch=9 n=56 v=99
279271 Off ch=9 n=56 v=0
279296 On ch=9 n=53 v=96
279527 Off ch=9 n=53 v=0
279552 On ch=9 n=55 v=102
279783 Off ch=9 n=55 v=0
279808 On ch=9 n=51 v=94
280039 Off ch=9 n=51 v=0
280064 On ch=9 n=53 v=103
280295 Off ch=9 n=53 v=0
280320 On ch=9 n=50 v=92
280551 Off ch=9 n=50 v=0
280576 On ch=9 n=60 v=121
280807 Off ch=9 n=60 v=0
280832 On ch=9 n=59 v=99
281063 Off ch=9 n=59 v=0
281088 On ch=9 n=60 v=102
281319 Off ch=9 n=60 v=0
281344 On ch=9 n=62 v=104
281575 Off ch=9 n=62 v=0
281600 On ch=9 n=60 v=90
281831 Off ch=9 n=60 v=0
281856 On ch=9 n=62 v=103
282087 Off ch=9 n=62 v=0
282112 On ch=9 n=64 v=103
282343 Off ch=9 n=64 v=0
282368 On ch=9 n=65 v=105
282599 Off ch=9 n=65 v=0
282624 On ch=9 n=64 v=93
282855 Off ch=9 n=64 v=0
282880 On ch=9 n=65 v=103
283111 Off ch=9 n=65 v=0
283136 On ch=9 n=67 v=106
283367 Off ch=9 n=67 v=0
283392 On ch=9 n=68 v=107
283623 Off ch=9 n=68 v=0
283648 On ch=9 n=55 v=84
283879 Off ch=9 n=55 v=0
283904 On ch=9 n=57 v=96
284135 Off ch=9 n=57 v=0
284160 On ch=9 n=59 v=99
284391 Off ch=9 n=59 v=0
284416 On ch=9 n=60 v=104
284877 Off ch=9 n=60 v=0
284928 On ch=9 n=62 v=105
285043 Off ch=9 n=62 v=0
285184 On ch=9 n=63 v=104
285299 Off ch=9 n=63 v=0
285440 On ch=9 n=65 v=121
285696 On ch=9 n=62 v=111
285701 Off ch=9 n=65 v=0
285939 Off ch=9 n=62 v=0
285952 On ch=9 n=63 v=104
286067 Off ch=9 n=63 v=0
286208 On ch=9 n=65 v=103
286323 Off ch=9 n=65 v=0
286464 On ch=9 n=67 v=102
286720 On ch=9 n=63 v=95
286725 Off ch=9 n=67 v=0
286963 Off ch=9 n=63 v=0
286976 On ch=9 n=65 v=102
287091 Off ch=9 n=65 v=0
287232 On ch=9 n=67 v=100
287347 Off ch=9 n=67 v=0
287488 On ch=9 n=68 v=107
287744 On ch=9 n=65 v=101
287749 Off ch=9 n=68 v=0
287987 Off ch=9 n=65 v=0
288000 On ch=9 n=67 v=104
288115 Off ch=9 n=67 v=0
288256 On ch=9 n=69 v=104
288371 Off ch=9 n=69 v=0
288512 On ch=9 n=71 v=103
288768 On ch=9 n=67 v=90
288773 Off ch=9 n=71 v=0
289011 Off ch=9 n=67 v=0
289024 On ch=9 n=69 v=104
289139 Off ch=9 n=69 v=0
289280 On ch=9 n=71 v=103
289395 Off ch=9 n=71 v=0
289536 On ch=9 n=72 v=104
289792 On ch=9 n=67 v=89
289797 Off ch=9 n=72 v=0
290035 Off ch=9 n=67 v=0
290048 On ch=9 n=68 v=99
290163 Off ch=9 n=68 v=0
290304 On ch=9 n=63 v=86
290419 Off ch=9 n=63 v=0
290560 On ch=9 n=65 v=105
290675 Off ch=9 n=65 v=0
290816 On ch=9 n=62 v=87
290931 Off ch=9 n=62 v=0
291072 On ch=9 n=63 v=99
291187 Off ch=9 n=63 v=0
291328 On ch=9 n=65 v=102
291443 Off ch=9 n=65 v=0
291584 On ch=9 n=67 v=102
291699 Off ch=9 n=67 v=0
291840 On ch=9 n=66 v=97
291955 Off ch=9 n=66 v=0
292096 On ch=9 n=67 v=100
292211 Off ch=9 n=67 v=0
292352 On ch=9 n=55 v=88
292467 Off ch=9 n=55 v=0
292608 On ch=9 n=60 v=107
292723 Off ch=9 n=60 v=0
294144 On ch=9 n=51 v=90
294259 Off ch=9 n=51 v=0
294400 On ch=9 n=53 v=103
294515 Off ch=9 n=53 v=0
294656 On ch=9 n=55 v=102
294912 On ch=9 n=51 v=98
294917 Off ch=9 n=55 v=0
295155 Off ch=9 n=51 v=0
296192 On ch=9 n=55 v=104
296307 Off ch=9 n=55 v=0
296448 On ch=9 n=57 v=103
296563 Off ch=9 n=57 v=0
296704 On ch=9 n=59 v=103
296960 On ch=9 n=55 v=97
296965 Off ch=9 n=59 v=0
297203 Off ch=9 n=55 v=0
298240 On ch=9 n=55 v=96
298355 Off ch=9 n=55 v=0
298496 On ch=9 n=57 v=99
298611 Off ch=9 n=57 v=0
298752 On ch=9 n=59 v=99
299008 On ch=9 n=55 v=91
299013 Off ch=9 n=59 v=0
299251 Off ch=9 n=55 v=0
301312 On ch=9 n=53 v=112
301312 On ch=9 n=56 v=112
301568 On ch=9 n=51 v=113
301568 On ch=9 n=55 v=113
301573 Off ch=9 n=53 v=0
301573 Off ch=9 n=56 v=0
301811 Off ch=9 n=51 v=0
301811 Off ch=9 n=55 v=0
302336 On ch=9 n=53 v=95
302592 On ch=9 n=60 v=108
302597 Off ch=9 n=53 v=0
302835 Off ch=9 n=60 v=0
302848 On ch=9 n=55 v=116
302848 On ch=9 n=67 v=116
303079 Off ch=9 n=55 v=0
303079 Off ch=9 n=67 v=0
303360 On ch=9 n=55 v=86
303591 Off ch=9 n=55 v=0
303872 On ch=9 n=60 v=89
304128 On ch=9 n=58 v=89
304133 Off ch=9 n=60 v=0
304384 On ch=9 n=56 v=93
304389 Off ch=9 n=58 v=0
304640 On ch=9 n=55 v=92
304645 Off ch=9 n=56 v=0
304896 On ch=9 n=53 v=96
304901 Off ch=9 n=55 v=0
305152 On ch=9 n=51 v=93
305157 Off ch=9 n=53 v=0
305395 Off ch=9 n=51 v=0
305920 On ch=9 n=53 v=103
305920 On ch=9 n=56 v=103
306176 On ch=9 n=51 v=104
306176 On ch=9 n=55 v=104
306181 Off ch=9 n=53 v=0
306181 Off ch=9 n=56 v=0
306419 Off ch=9 n=51 v=0
306419 Off ch=9 n=55 v=0
306432 On ch=9 n=65 v=123
306688 On ch=9 n=60 v=111
306693 Off ch=9 n=65 v=0
306931 Off ch=9 n=60 v=0
306944 On ch=9 n=55 v=113
306944 On ch=9 n=67 v=113
307175 Off ch=9 n=55 v=0
307175 Off ch=9 n=67 v=0
307456 On ch=9 n=55 v=88
307456 On ch=9 n=67 v=88
307687 Off ch=9 n=55 v=0
307687 Off ch=9 n=67 v=0
307968 On ch=9 n=48 v=89
307968 On ch=9 n=60 v=89
308084 Off ch=9 n=48 v=0
308084 Off ch=9 n=60 v=0
308096 On ch=9 n=55 v=87
308212 Off ch=9 n=55 v=0
308224 On ch=9 n=55 v=96
308340 Off ch=9 n=55 v=0
308352 On ch=9 n=55 v=98
308468 Off ch=9 n=55 v=0
308480 On ch=9 n=55 v=93
310644 Off ch=9 n=55 v=0
310656 On ch=9 n=55 v=95
310772 Off ch=9 n=55 v=0
310784 On ch=9 n=55 v=95
310900 Off ch=9 n=55 v=0
310912 On ch=9 n=55 v=96
311028 Off ch=9 n=55 v=0
311040 On ch=9 n=60 v=110
311156 Off ch=9 n=60 v=0
311168 On ch=9 n=55 v=96
311284 Off ch=9 n=55 v=0
311296 On ch=9 n=55 v=101
311412 Off ch=9 n=55 v=0
311424 On ch=9 n=55 v=98
311540 Off ch=9 n=55 v=0
311552 On ch=9 n=55 v=97
311668 Off ch=9 n=55 v=0
311680 On ch=9 n=55 v=98
311796 Off ch=9 n=55 v=0
311808 On ch=9 n=55 v=102
311924 Off ch=9 n=55 v=0
311936 On ch=9 n=55 v=99
312052 Off ch=9 n=55 v=0
312064 On ch=9 n=55 v=96
312180 Off ch=9 n=55 v=0
312192 On ch=9 n=55 v=100
312308 Off ch=9 n=55 v=0
312320 On ch=9 n=55 v=99
312436 Off ch=9 n=55 v=0
312448 On ch=9 n=55 v=97
312564 Off ch=9 n=55 v=0
312576 On ch=9 n=55 v=97
312692 Off ch=9 n=55 v=0
312704 On ch=9 n=55 v=99
312820 Off ch=9 n=55 v=0
312832 On ch=9 n=55 v=98
312948 Off ch=9 n=55 v=0
312960 On ch=9 n=55 v=104
313076 Off ch=9 n=55 v=0
313088 On ch=9 n=51 v=103
313856 Off ch=9 n=51 v=0
313984 On ch=9 n=53 v=96
314100 Off ch=9 n=53 v=0
314112 On ch=9 n=53 v=113
314228 Off ch=9 n=53 v=0
314240 On ch=9 n=53 v=110
314356 Off ch=9 n=53 v=0
314368 On ch=9 n=50 v=111
315648 Off ch=9 n=50 v=0
319872 On ch=9 n=55 v=105
319988 Off ch=9 n=55 v=0
320000 On ch=9 n=55 v=115
320116 Off ch=9 n=55 v=0
320128 On ch=9 n=55 v=114
320244 Off ch=9 n=55 v=0
320256 On ch=9 n=60 v=127
320487 Off ch=9 n=60 v=0
320896 On ch=9 n=55 v=96
321012 Off ch=9 n=55 v=0
321024 On ch=9 n=55 v=109
321140 Off ch=9 n=55 v=0
321152 On ch=9 n=55 v=115
321268 Off ch=9 n=55 v=0
321280 On ch=9 n=60 v=125
321511 Off ch=9 n=60 v=0
321920 On ch=9 n=55 v=108
322036 Off ch=9 n=55 v=0
322048 On ch=9 n=55 v=113
322164 Off ch=9 n=55 v=0
322176 On ch=9 n=55 v=114
322292 Off ch=9 n=55 v=0
322304 On ch=9 n=60 v=127
322535 Off ch=9 n=60 v=0
322560 On ch=9 n=55 v=108
322791 Off ch=9 n=55 v=0
322816 On ch=9 n=60 v=126
323047 Off ch=9 n=60 v=0
323072 On ch=9 n=55 v=108
323303 Off ch=9 n=55 v=0
323328 On ch=9 n=60 v=127
323559 Off ch=9 n=60 v=0
323584 On ch=9 n=67 v=127
323815 Off ch=9 n=67 v=0
323840 On ch=9 n=72 v=127
324071 Off ch=9 n=72 v=0
324096 On ch=9 n=67 v=102
324327 Off ch=9 n=67 v=0
324352 On ch=9 n=72 v=122
324583 Off ch=9 n=72 v=0
324864 On ch=9 n=55 v=98
325095 Off ch=9 n=55 v=0
325376 On ch=9 n=48 v=104
325607 Off ch=9 n=48 v=0
128 On ch=11 n=43 v=104
244 Off ch=11 n=43 v=0
256 On ch=11 n=43 v=109
372 Off ch=11 n=43 v=0
384 On ch=11 n=43 v=113
500 Off ch=11 n=43 v=0
512 On ch=11 n=39 v=109
1280 Off ch=11 n=39 v=0
1408 On ch=11 n=41 v=99
1524 Off ch=11 n=41 v=0
1536 On ch=11 n=41 v=111
1652 Off ch=11 n=41 v=0
1664 On ch=11 n=41 v=115
1780 Off ch=11 n=41 v=0
1792 On ch=11 n=38 v=109
3072 Off ch=11 n=38 v=0
3584 On ch=11 n=60 v=80
5581 Off ch=11 n=60 v=0
5632 On ch=11 n=59 v=60
7629 Off ch=11 n=59 v=0
7680 On ch=11 n=60 v=63
8141 Off ch=11 n=60 v=0
8192 On ch=11 n=59 v=56
8653 Off ch=11 n=59 v=0
8704 On ch=11 n=60 v=63
9165 Off ch=11 n=60 v=0
9216 On ch=11 n=59 v=67
9332 Off ch=11 n=59 v=0
9344 On ch=11 n=59 v=64
9460 Off ch=11 n=59 v=0
9472 On ch=11 n=59 v=67
9588 Off ch=11 n=59 v=0
9600 On ch=11 n=59 v=80
9716 Off ch=11 n=59 v=0
9728 On ch=11 n=60 v=102
9959 Off ch=11 n=60 v=0
10240 On ch=11 n=44 v=88
10471 Off ch=11 n=44 v=0
10752 On ch=11 n=43 v=89
10983 Off ch=11 n=43 v=0
11520 On ch=11 n=44 v=89
11636 Off ch=11 n=44 v=0
11648 On ch=11 n=44 v=96
11764 Off ch=11 n=44 v=0
11776 On ch=11 n=44 v=99
11892 Off ch=11 n=44 v=0
11904 On ch=11 n=41 v=93
13184 Off ch=11 n=41 v=0
14848 On ch=11 n=43 v=56
14964 Off ch=11 n=43 v=0
14976 On ch=11 n=43 v=55
15092 Off ch=11 n=43 v=0
15104 On ch=11 n=43 v=62
15220 Off ch=11 n=43 v=0
15232 On ch=11 n=48 v=70
15463 Off ch=11 n=48 v=0
16896 On ch=11 n=43 v=52
17012 Off ch=11 n=43 v=0
17024 On ch=11 n=43 v=61
17140 Off ch=11 n=43 v=0
17152 On ch=11 n=43 v=58
17268 Off ch=11 n=43 v=0
17280 On ch=11 n=48 v=66
17511 Off ch=11 n=48 v=0
17920 On ch=11 n=48 v=48
18036 Off ch=11 n=48 v=0
18048 On ch=11 n=48 v=61
18164 Off ch=11 n=48 v=0
18176 On ch=11 n=48 v=66
18292 Off ch=11 n=48 v=0
18304 On ch=11 n=48 v=67
18535 Off ch=11 n=48 v=0
18944 On ch=11 n=48 v=62
19060 Off ch=11 n=48 v=0
19072 On ch=11 n=48 v=70
19188 Off ch=11 n=48 v=0
19200 On ch=11 n=48 v=68
19316 Off ch=11 n=48 v=0
19328 On ch=11 n=48 v=69
19559 Off ch=11 n=48 v=0
19840 On ch=11 n=48 v=77
20071 Off ch=11 n=48 v=0
20352 On ch=11 n=48 v=86
20583 Off ch=11 n=48 v=0
20864 On ch=11 n=48 v=88
21095 Off ch=11 n=48 v=0
21376 On ch=11 n=48 v=90
21607 Off ch=11 n=48 v=0
21888 On ch=11 n=48 v=97
22119 Off ch=11 n=48 v=0
22400 On ch=11 n=48 v=96
22631 Off ch=11 n=48 v=0
22912 On ch=11 n=48 v=89
24564 Off ch=11 n=48 v=0
24576 On ch=11 n=48 v=99
24692 Off ch=11 n=48 v=0
24704 On ch=11 n=48 v=97
24820 Off ch=11 n=48 v=0
24832 On ch=11 n=48 v=100
24948 Off ch=11 n=48 v=0
24960 On ch=11 n=43 v=95
26612 Off ch=11 n=43 v=0
26624 On ch=11 n=43 v=96
26740 Off ch=11 n=43 v=0
26752 On ch=11 n=48 v=104
26868 Off ch=11 n=48 v=0
26880 On ch=11 n=48 v=101
26996 Off ch=11 n=48 v=0
27008 On ch=11 n=48 v=116
27124 Off ch=11 n=48 v=0
27136 On ch=11 n=48 v=111
27252 Off ch=11 n=48 v=0
27264 On ch=11 n=48 v=112
27380 Off ch=11 n=48 v=0
27392 On ch=11 n=48 v=114
27508 Off ch=11 n=48 v=0
27520 On ch=11 n=48 v=111
27636 Off ch=11 n=48 v=0
27648 On ch=11 n=48 v=113
27764 Off ch=11 n=48 v=0
27776 On ch=11 n=48 v=118
27892 Off ch=11 n=48 v=0
27904 On ch=11 n=48 v=110
28020 Off ch=11 n=48 v=0
28032 On ch=11 n=48 v=115
28148 Off ch=11 n=48 v=0
28160 On ch=11 n=48 v=111
28276 Off ch=11 n=48 v=0
28288 On ch=11 n=48 v=112
28404 Off ch=11 n=48 v=0
28416 On ch=11 n=48 v=111
28532 Off ch=11 n=48 v=0
28544 On ch=11 n=48 v=112
28660 Off ch=11 n=48 v=0
28672 On ch=11 n=48 v=112
28788 Off ch=11 n=48 v=0
28800 On ch=11 n=48 v=111
28916 Off ch=11 n=48 v=0
28928 On ch=11 n=48 v=114
29044 Off ch=11 n=48 v=0
29056 On ch=11 n=48 v=109
29287 Off ch=11 n=48 v=0
30080 On ch=11 n=50 v=103
30311 Off ch=11 n=50 v=0
33792 On ch=11 n=46 v=61
33908 Off ch=11 n=46 v=0
33920 On ch=11 n=46 v=60
34036 Off ch=11 n=46 v=0
34048 On ch=11 n=46 v=62
34164 Off ch=11 n=46 v=0
34176 On ch=11 n=51 v=65
34407 Off ch=11 n=51 v=0
35840 On ch=11 n=46 v=55
35956 Off ch=11 n=46 v=0
35968 On ch=11 n=46 v=61
36084 Off ch=11 n=46 v=0
36096 On ch=11 n=46 v=60
36212 Off ch=11 n=46 v=0
36224 On ch=11 n=51 v=61
36455 Off ch=11 n=51 v=0
37888 On ch=11 n=46 v=57
38004 Off ch=11 n=46 v=0
38016 On ch=11 n=46 v=60
38132 Off ch=11 n=46 v=0
38144 On ch=11 n=46 v=60
38260 Off ch=11 n=46 v=0
38272 On ch=11 n=51 v=67
38503 Off ch=11 n=51 v=0
39936 On ch=11 n=48 v=56
40052 Off ch=11 n=48 v=0
40064 On ch=11 n=48 v=60
40180 Off ch=11 n=48 v=0
40192 On ch=11 n=48 v=57
40308 Off ch=11 n=48 v=0
40320 On ch=11 n=53 v=70
40551 Off ch=11 n=53 v=0
41984 On ch=11 n=51 v=48
42100 Off ch=11 n=51 v=0
42112 On ch=11 n=51 v=60
42228 Off ch=11 n=51 v=0
42240 On ch=11 n=51 v=63
42356 Off ch=11 n=51 v=0
42368 On ch=11 n=56 v=63
42599 Off ch=11 n=56 v=0
42880 On ch=11 n=63 v=58
43136 On ch=11 n=65 v=56
43141 Off ch=11 n=63 v=0
43392 On ch=11 n=66 v=62
43397 Off ch=11 n=65 v=0
43648 On ch=11 n=65 v=59
43653 Off ch=11 n=66 v=0
43904 On ch=11 n=63 v=54
43909 Off ch=11 n=65 v=0
44160 On ch=11 n=65 v=56
44165 Off ch=11 n=63 v=0
44403 Off ch=11 n=65 v=0
44416 On ch=11 n=66 v=66
44672 On ch=11 n=65 v=62
44677 Off ch=11 n=66 v=0
44928 On ch=11 n=63 v=63
44933 Off ch=11 n=65 v=0
45184 On ch=11 n=65 v=66
45189 Off ch=11 n=63 v=0
45427 Off ch=11 n=65 v=0
45440 On ch=11 n=66 v=71
45696 On ch=11 n=65 v=68
45701 Off ch=11 n=66 v=0
45952 On ch=11 n=63 v=64
45957 Off ch=11 n=65 v=0
46208 On ch=11 n=65 v=84
46213 Off ch=11 n=63 v=0
46451 Off ch=11 n=65 v=0
46464 On ch=11 n=66 v=91
46720 On ch=11 n=65 v=91
46725 Off ch=11 n=66 v=0
46976 On ch=11 n=63 v=78
46981 Off ch=11 n=65 v=0
47232 On ch=11 n=65 v=84
47237 Off ch=11 n=63 v=0
47488 On ch=11 n=66 v=88
47493 Off ch=11 n=65 v=0
47744 On ch=11 n=65 v=92
47749 Off ch=11 n=66 v=0
48000 On ch=11 n=66 v=96
48005 Off ch=11 n=65 v=0
48256 On ch=11 n=60 v=88
48261 Off ch=11 n=66 v=0
48499 Off ch=11 n=60 v=0
48512 On ch=11 n=62 v=119
49255 Off ch=11 n=62 v=0
49280 On ch=11 n=50 v=98
49511 Off ch=11 n=50 v=0
49536 On ch=11 n=51 v=116
49767 Off ch=11 n=51 v=0
50048 On ch=11 n=53 v=100
50279 Off ch=11 n=53 v=0
50560 On ch=11 n=55 v=104
50791 Off ch=11 n=55 v=0
51072 On ch=11 n=56 v=100
51303 Off ch=11 n=56 v=0
51584 On ch=11 n=58 v=104
51815 Off ch=11 n=58 v=0
52096 On ch=11 n=46 v=104
52327 Off ch=11 n=46 v=0
52608 On ch=11 n=50 v=99
52839 Off ch=11 n=50 v=0
52864 On ch=11 n=53 v=118
53095 Off ch=11 n=53 v=0
53120 On ch=11 n=50 v=114
53351 Off ch=11 n=50 v=0
53376 On ch=11 n=53 v=119
53607 Off ch=11 n=53 v=0
53632 On ch=11 n=51 v=110
53863 Off ch=11 n=51 v=0
53888 On ch=11 n=55 v=117
54119 Off ch=11 n=55 v=0
54144 On ch=11 n=53 v=112
54375 Off ch=11 n=53 v=0
54400 On ch=11 n=56 v=121
54631 Off ch=11 n=56 v=0
54656 On ch=11 n=55 v=107
54887 Off ch=11 n=55 v=0
54912 On ch=11 n=58 v=120
55143 Off ch=11 n=58 v=0
55168 On ch=11 n=56 v=113
55399 Off ch=11 n=56 v=0
55424 On ch=11 n=60 v=125
55655 Off ch=11 n=60 v=0
55680 On ch=11 n=58 v=113
55911 Off ch=11 n=58 v=0
55936 On ch=11 n=46 v=99
56167 Off ch=11 n=46 v=0
56192 On ch=11 n=58 v=127
56423 Off ch=11 n=58 v=0
56448 On ch=11 n=46 v=95
56679 Off ch=11 n=46 v=0
56704 On ch=11 n=51 v=116
58356 Off ch=11 n=51 v=0
58368 On ch=11 n=46 v=103
58484 Off ch=11 n=46 v=0
58496 On ch=11 n=46 v=109
58612 Off ch=11 n=46 v=0
58624 On ch=11 n=46 v=117
58740 Off ch=11 n=46 v=0
58752 On ch=11 n=51 v=120
60404 Off ch=11 n=51 v=0
60416 On ch=11 n=46 v=107
60532 Off ch=11 n=46 v=0
60544 On ch=11 n=46 v=107
60660 Off ch=11 n=46 v=0
60672 On ch=11 n=46 v=115
60788 Off ch=11 n=46 v=0
60800 On ch=11 n=51 v=124
61031 Off ch=11 n=51 v=0
61440 On ch=11 n=46 v=99
61556 Off ch=11 n=46 v=0
61568 On ch=11 n=46 v=112
61684 Off ch=11 n=46 v=0
61696 On ch=11 n=46 v=113
61812 Off ch=11 n=46 v=0
61824 On ch=11 n=51 v=121
62055 Off ch=11 n=51 v=0
62464 On ch=11 n=46 v=101
62580 Off ch=11 n=46 v=0
62592 On ch=11 n=46 v=107
62708 Off ch=11 n=46 v=0
62720 On ch=11 n=46 v=114
62836 Off ch=11 n=46 v=0
62848 On ch=11 n=51 v=120
63079 Off ch=11 n=51 v=0
64512 On ch=11 n=43 v=97
64628 Off ch=11 n=43 v=0
64640 On ch=11 n=43 v=114
64756 Off ch=11 n=43 v=0
64768 On ch=11 n=43 v=117
64884 Off ch=11 n=43 v=0
64896 On ch=11 n=39 v=110
65664 Off ch=11 n=39 v=0
65792 On ch=11 n=41 v=96
65908 Off ch=11 n=41 v=0
65920 On ch=11 n=41 v=111
66036 Off ch=11 n=41 v=0
66048 On ch=11 n=41 v=112
66164 Off ch=11 n=41 v=0
66176 On ch=11 n=38 v=111
67456 Off ch=11 n=38 v=0
67968 On ch=11 n=60 v=81
69965 Off ch=11 n=60 v=0
70016 On ch=11 n=59 v=58
72013 Off ch=11 n=59 v=0
72064 On ch=11 n=60 v=63
72525 Off ch=11 n=60 v=0
72576 On ch=11 n=59 v=60
73037 Off ch=11 n=59 v=0
73088 On ch=11 n=60 v=68
73549 Off ch=11 n=60 v=0
73600 On ch=11 n=59 v=63
73716 Off ch=11 n=59 v=0
73728 On ch=11 n=59 v=61
73844 Off ch=11 n=59 v=0
73856 On ch=11 n=59 v=70
73972 Off ch=11 n=59 v=0
73984 On ch=11 n=59 v=78
74100 Off ch=11 n=59 v=0
74112 On ch=11 n=60 v=103
74343 Off ch=11 n=60 v=0
74624 On ch=11 n=44 v=89
74855 Off ch=11 n=44 v=0
75136 On ch=11 n=43 v=87
75367 Off ch=11 n=43 v=0
75904 On ch=11 n=44 v=89
76020 Off ch=11 n=44 v=0
76032 On ch=11 n=44 v=96
76148 Off ch=11 n=44 v=0
76160 On ch=11 n=44 v=97
76276 Off ch=11 n=44 v=0
76288 On ch=11 n=41 v=94
77568 Off ch=11 n=41 v=0
79232 On ch=11 n=43 v=53
79348 Off ch=11 n=43 v=0
79360 On ch=11 n=43 v=58
79476 Off ch=11 n=43 v=0
79488 On ch=11 n=43 v=59
79604 Off ch=11 n=43 v=0
79616 On ch=11 n=48 v=64
79847 Off ch=11 n=48 v=0
81280 On ch=11 n=43 v=56
81396 Off ch=11 n=43 v=0
81408 On ch=11 n=43 v=57
81524 Off ch=11 n=43 v=0
81536 On ch=11 n=43 v=63
81652 Off ch=11 n=43 v=0
81664 On ch=11 n=48 v=67
81895 Off ch=11 n=48 v=0
82304 On ch=11 n=48 v=55
82420 Off ch=11 n=48 v=0
82432 On ch=11 n=48 v=61
82548 Off ch=11 n=48 v=0
82560 On ch=11 n=48 v=63
82676 Off ch=11 n=48 v=0
82688 On ch=11 n=48 v=61
82919 Off ch=11 n=48 v=0
83328 On ch=11 n=48 v=61
83444 Off ch=11 n=48 v=0
83456 On ch=11 n=48 v=66
83572 Off ch=11 n=48 v=0
83584 On ch=11 n=48 v=72
83700 Off ch=11 n=48 v=0
83712 On ch=11 n=48 v=65
83943 Off ch=11 n=48 v=0
84224 On ch=11 n=48 v=78
84455 Off ch=11 n=48 v=0
84736 On ch=11 n=48 v=89
84967 Off ch=11 n=48 v=0
85248 On ch=11 n=48 v=87
85479 Off ch=11 n=48 v=0
85760 On ch=11 n=48 v=97
85991 Off ch=11 n=48 v=0
86272 On ch=11 n=48 v=93
86503 Off ch=11 n=48 v=0
86784 On ch=11 n=48 v=97
87015 Off ch=11 n=48 v=0
87296 On ch=11 n=48 v=92
88948 Off ch=11 n=48 v=0
88960 On ch=11 n=48 v=96
89076 Off ch=11 n=48 v=0
89088 On ch=11 n=48 v=100
89204 Off ch=11 n=48 v=0
89216 On ch=11 n=48 v=97
89332 Off ch=11 n=48 v=0
89344 On ch=11 n=43 v=90
90996 Off ch=11 n=43 v=0
91008 On ch=11 n=43 v=97
91124 Off ch=11 n=43 v=0
91136 On ch=11 n=48 v=103
91252 Off ch=11 n=48 v=0
91264 On ch=11 n=48 v=102
91380 Off ch=11 n=48 v=0
91392 On ch=11 n=48 v=109
91508 Off ch=11 n=48 v=0
91520 On ch=11 n=48 v=114
91636 Off ch=11 n=48 v=0
91648 On ch=11 n=48 v=115
91764 Off ch=11 n=48 v=0
91776 On ch=11 n=48 v=115
91892 Off ch=11 n=48 v=0
91904 On ch=11 n=48 v=115
92020 Off ch=11 n=48 v=0
92032 On ch=11 n=48 v=112
92148 Off ch=11 n=48 v=0
92160 On ch=11 n=48 v=113
92276 Off ch=11 n=48 v=0
92288 On ch=11 n=48 v=114
92404 Off ch=11 n=48 v=0
92416 On ch=11 n=48 v=107
92532 Off ch=11 n=48 v=0
92544 On ch=11 n=48 v=114
92660 Off ch=11 n=48 v=0
92672 On ch=11 n=48 v=119
92788 Off ch=11 n=48 v=0
92800 On ch=11 n=48 v=108
92916 Off ch=11 n=48 v=0
92928 On ch=11 n=48 v=116
93044 Off ch=11 n=48 v=0
93056 On ch=11 n=48 v=115
93172 Off ch=11 n=48 v=0
93184 On ch=11 n=48 v=113
93300 Off ch=11 n=48 v=0
93312 On ch=11 n=48 v=109
93428 Off ch=11 n=48 v=0
93440 On ch=11 n=48 v=117
93671 Off ch=11 n=48 v=0
94464 On ch=11 n=50 v=106
94695 Off ch=11 n=50 v=0
98176 On ch=11 n=46 v=53
98292 Off ch=11 n=46 v=0
98304 On ch=11 n=46 v=62
98420 Off ch=11 n=46 v=0
98432 On ch=11 n=46 v=63
98548 Off ch=11 n=46 v=0
98560 On ch=11 n=51 v=67
98791 Off ch=11 n=51 v=0
100224 On ch=11 n=46 v=62
100340 Off ch=11 n=46 v=0
100352 On ch=11 n=46 v=56
100468 Off ch=11 n=46 v=0
100480 On ch=11 n=46 v=66
100596 Off ch=11 n=46 v=0
100608 On ch=11 n=51 v=59
100839 Off ch=11 n=51 v=0
102272 On ch=11 n=46 v=56
102388 Off ch=11 n=46 v=0
102400 On ch=11 n=46 v=55
102516 Off ch=11 n=46 v=0
102528 On ch=11 n=46 v=62
102644 Off ch=11 n=46 v=0
102656 On ch=11 n=51 v=63
102887 Off ch=11 n=51 v=0
104320 On ch=11 n=48 v=54
104436 Off ch=11 n=48 v=0
104448 On ch=11 n=48 v=57
104564 Off ch=11 n=48 v=0
104576 On ch=11 n=48 v=67
104692 Off ch=11 n=48 v=0
104704 On ch=11 n=53 v=67
104935 Off ch=11 n=53 v=0
106368 On ch=11 n=51 v=55
106484 Off ch=11 n=51 v=0
106496 On ch=11 n=51 v=60
106612 Off ch=11 n=51 v=0
106624 On ch=11 n=51 v=65
106740 Off ch=11 n=51 v=0
106752 On ch=11 n=56 v=65
106983 Off ch=11 n=56 v=0
107264 On ch=11 n=63 v=60
107520 On ch=11 n=65 v=64
107525 Off ch=11 n=63 v=0
107776 On ch=11 n=66 v=64
107781 Off ch=11 n=65 v=0
108032 On ch=11 n=65 v=64
108037 Off ch=11 n=66 v=0
108288 On ch=11 n=63 v=58
108293 Off ch=11 n=65 v=0
108544 On ch=11 n=65 v=59
108549 Off ch=11 n=63 v=0
108787 Off ch=11 n=65 v=0
108800 On ch=11 n=66 v=62
109056 On ch=11 n=65 v=56
109061 Off ch=11 n=66 v=0
109312 On ch=11 n=63 v=68
109317 Off ch=11 n=65 v=0
109568 On ch=11 n=65 v=73
109573 Off ch=11 n=63 v=0
109811 Off ch=11 n=65 v=0
109824 On ch=11 n=66 v=74
110080 On ch=11 n=65 v=71
110085 Off ch=11 n=66 v=0
110336 On ch=11 n=63 v=64
110341 Off ch=11 n=65 v=0
110592 On ch=11 n=65 v=87
110597 Off ch=11 n=63 v=0
110835 Off ch=11 n=65 v=0
110848 On ch=11 n=66 v=90
111104 On ch=11 n=65 v=90
111109 Off ch=11 n=66 v=0
111360 On ch=11 n=63 v=75
111365 Off ch=11 n=65 v=0
111616 On ch=11 n=65 v=81
111621 Off ch=11 n=63 v=0
111872 On ch=11 n=66 v=88
111877 Off ch=11 n=65 v=0
112128 On ch=11 n=65 v=95
112133 Off ch=11 n=66 v=0
112384 On ch=11 n=66 v=103
112389 Off ch=11 n=65 v=0
112640 On ch=11 n=60 v=84
112645 Off ch=11 n=66 v=0
112883 Off ch=11 n=60 v=0
112896 On ch=11 n=62 v=118
113639 Off ch=11 n=62 v=0
113664 On ch=11 n=50 v=100
113895 Off ch=11 n=50 v=0
113920 On ch=11 n=51 v=112
114151 Off ch=11 n=51 v=0
114432 On ch=11 n=53 v=97
114663 Off ch=11 n=53 v=0
114944 On ch=11 n=55 v=104
115175 Off ch=11 n=55 v=0
115456 On ch=11 n=56 v=101
115687 Off ch=11 n=56 v=0
115968 On ch=11 n=58 v=99
116199 Off ch=11 n=58 v=0
116480 On ch=11 n=46 v=104
116711 Off ch=11 n=46 v=0
116992 On ch=11 n=50 v=99
117223 Off ch=11 n=50 v=0
117248 On ch=11 n=53 v=119
117479 Off ch=11 n=53 v=0
117504 On ch=11 n=50 v=108
117735 Off ch=11 n=50 v=0
117760 On ch=11 n=53 v=117
117991 Off ch=11 n=53 v=0
118016 On ch=11 n=51 v=108
118247 Off ch=11 n=51 v=0
118272 On ch=11 n=55 v=118
118503 Off ch=11 n=55 v=0
118528 On ch=11 n=53 v=111
118759 Off ch=11 n=53 v=0
118784 On ch=11 n=56 v=119
119015 Off ch=11 n=56 v=0
119040 On ch=11 n=55 v=112
119271 Off ch=11 n=55 v=0
119296 On ch=11 n=58 v=124
119527 Off ch=11 n=58 v=0
119552 On ch=11 n=56 v=107
119783 Off ch=11 n=56 v=0
119808 On ch=11 n=60 v=127
120039 Off ch=11 n=60 v=0
120064 On ch=11 n=58 v=108
120295 Off ch=11 n=58 v=0
120320 On ch=11 n=46 v=99
120551 Off ch=11 n=46 v=0
120576 On ch=11 n=58 v=125
120807 Off ch=11 n=58 v=0
120832 On ch=11 n=46 v=101
121063 Off ch=11 n=46 v=0
121088 On ch=11 n=51 v=119
122740 Off ch=11 n=51 v=0
122752 On ch=11 n=46 v=105
122868 Off ch=11 n=46 v=0
122880 On ch=11 n=46 v=115
122996 Off ch=11 n=46 v=0
123008 On ch=11 n=46 v=111
123124 Off ch=11 n=46 v=0
123136 On ch=11 n=51 v=118
124788 Off ch=11 n=51 v=0
124800 On ch=11 n=46 v=103
124916 Off ch=11 n=46 v=0
124928 On ch=11 n=46 v=115
125044 Off ch=11 n=46 v=0
125056 On ch=11 n=46 v=111
125172 Off ch=11 n=46 v=0
125184 On ch=11 n=51 v=125
125415 Off ch=11 n=51 v=0
125824 On ch=11 n=46 v=100
125940 Off ch=11 n=46 v=0
125952 On ch=11 n=46 v=114
126068 Off ch=11 n=46 v=0
126080 On ch=11 n=46 v=112
126196 Off ch=11 n=46 v=0
126208 On ch=11 n=51 v=121
126439 Off ch=11 n=51 v=0
126848 On ch=11 n=46 v=99
126964 Off ch=11 n=46 v=0
126976 On ch=11 n=46 v=110
127092 Off ch=11 n=46 v=0
127104 On ch=11 n=46 v=116
127220 Off ch=11 n=46 v=0
127232 On ch=11 n=51 v=118
127463 Off ch=11 n=51 v=0
129408 On ch=11 n=37 v=105
129524 Off ch=11 n=37 v=0
129536 On ch=11 n=37 v=111
129652 Off ch=11 n=37 v=0
129664 On ch=11 n=37 v=114
129780 Off ch=11 n=37 v=0
129792 On ch=11 n=36 v=111
131072 Off ch=11 n=36 v=0
131584 On ch=11 n=60 v=82
132724 Off ch=11 n=60 v=0
132736 On ch=11 n=61 v=66
132852 Off ch=11 n=61 v=0
132864 On ch=11 n=61 v=62
132980 Off ch=11 n=61 v=0
132992 On ch=11 n=61 v=67
133108 Off ch=11 n=61 v=0
133120 On ch=11 n=60 v=61
134772 Off ch=11 n=60 v=0
134784 On ch=11 n=61 v=61
134900 Off ch=11 n=61 v=0
134912 On ch=11 n=61 v=63
135028 Off ch=11 n=61 v=0
135040 On ch=11 n=61 v=61
135156 Off ch=11 n=61 v=0
135168 On ch=11 n=60 v=60
136653 Off ch=11 n=60 v=0
136704 On ch=11 n=60 v=61
138189 Off ch=11 n=60 v=0
138240 On ch=11 n=62 v=66
138496 On ch=11 n=63 v=70
138501 Off ch=11 n=62 v=0
138752 On ch=11 n=65 v=68
138757 Off ch=11 n=63 v=0
139008 On ch=11 n=66 v=71
139013 Off ch=11 n=65 v=0
139251 Off ch=11 n=66 v=0
139264 On ch=11 n=67 v=67
139380 Off ch=11 n=67 v=0
139392 On ch=11 n=67 v=60
139508 Off ch=11 n=67 v=0
139520 On ch=11 n=67 v=60
139636 Off ch=11 n=67 v=0
139648 On ch=11 n=65 v=55
139764 Off ch=11 n=65 v=0
139776 On ch=11 n=63 v=59
140237 Off ch=11 n=63 v=0
140288 On ch=11 n=62 v=62
140404 Off ch=11 n=62 v=0
140416 On ch=11 n=67 v=68
140532 Off ch=11 n=67 v=0
140544 On ch=11 n=67 v=61
140660 Off ch=11 n=67 v=0
140672 On ch=11 n=65 v=56
140788 Off ch=11 n=65 v=0
140800 On ch=11 n=63 v=56
141261 Off ch=11 n=63 v=0
141312 On ch=11 n=62 v=59
141428 Off ch=11 n=62 v=0
141440 On ch=11 n=67 v=71
141556 Off ch=11 n=67 v=0
141568 On ch=11 n=67 v=64
141684 Off ch=11 n=67 v=0
141696 On ch=11 n=65 v=59
141812 Off ch=11 n=65 v=0
141824 On ch=11 n=63 v=56
141940 Off ch=11 n=63 v=0
141952 On ch=11 n=63 v=60
142068 Off ch=11 n=63 v=0
142080 On ch=11 n=63 v=60
142196 Off ch=11 n=63 v=0
142208 On ch=11 n=62 v=64
142324 Off ch=11 n=62 v=0
142336 On ch=11 n=60 v=64
142452 Off ch=11 n=60 v=0
142464 On ch=11 n=60 v=72
142580 Off ch=11 n=60 v=0
142592 On ch=11 n=60 v=75
142708 Off ch=11 n=60 v=0
142720 On ch=11 n=58 v=68
142836 Off ch=11 n=58 v=0
142848 On ch=11 n=57 v=72
142964 Off ch=11 n=57 v=0
142976 On ch=11 n=57 v=73
143092 Off ch=11 n=57 v=0
143104 On ch=11 n=57 v=81
143220 Off ch=11 n=57 v=0
143232 On ch=11 n=55 v=79
143348 Off ch=11 n=55 v=0
143360 On ch=11 n=54 v=60
143591 Off ch=11 n=54 v=0
144000 On ch=11 n=58 v=56
144116 Off ch=11 n=58 v=0
144128 On ch=11 n=58 v=56
144244 Off ch=11 n=58 v=0
144256 On ch=11 n=60 v=62
144372 Off ch=11 n=60 v=0
144384 On ch=11 n=62 v=60
145012 Off ch=11 n=62 v=0
145024 On ch=11 n=58 v=61
145140 Off ch=11 n=58 v=0
145152 On ch=11 n=58 v=59
145268 Off ch=11 n=58 v=0
145280 On ch=11 n=60 v=62
145396 Off ch=11 n=60 v=0
145408 On ch=11 n=62 v=67
145524 Off ch=11 n=62 v=0
145536 On ch=11 n=62 v=60
145652 Off ch=11 n=62 v=0
145664 On ch=11 n=62 v=60
145780 Off ch=11 n=62 v=0
145792 On ch=11 n=60 v=57
145908 Off ch=11 n=60 v=0
145920 On ch=11 n=58 v=58
146036 Off ch=11 n=58 v=0
146048 On ch=11 n=58 v=60
146164 Off ch=11 n=58 v=0
146176 On ch=11 n=58 v=54
146292 Off ch=11 n=58 v=0
146304 On ch=11 n=57 v=61
146420 Off ch=11 n=57 v=0
146432 On ch=11 n=55 v=60
146548 Off ch=11 n=55 v=0
146560 On ch=11 n=55 v=65
146676 Off ch=11 n=55 v=0
146688 On ch=11 n=55 v=63
146804 Off ch=11 n=55 v=0
146816 On ch=11 n=53 v=59
146932 Off ch=11 n=53 v=0
146944 On ch=11 n=51 v=64
147060 Off ch=11 n=51 v=0
147072 On ch=11 n=51 v=61
147188 Off ch=11 n=51 v=0
147200 On ch=11 n=51 v=63
147316 Off ch=11 n=51 v=0
147328 On ch=11 n=50 v=62
147444 Off ch=11 n=50 v=0
147456 On ch=11 n=48 v=59
147572 Off ch=11 n=48 v=0
147584 On ch=11 n=60 v=77
147700 Off ch=11 n=60 v=0
147712 On ch=11 n=60 v=65
147828 Off ch=11 n=60 v=0
147840 On ch=11 n=58 v=55
147956 Off ch=11 n=58 v=0
147968 On ch=11 n=57 v=61
148084 Off ch=11 n=57 v=0
148096 On ch=11 n=57 v=64
148212 Off ch=11 n=57 v=0
148224 On ch=11 n=57 v=58
148340 Off ch=11 n=57 v=0
148352 On ch=11 n=55 v=61
148468 Off ch=11 n=55 v=0
148480 On ch=11 n=54 v=60
148596 Off ch=11 n=54 v=0
148608 On ch=11 n=54 v=65
148724 Off ch=11 n=54 v=0
148736 On ch=11 n=54 v=60
148852 Off ch=11 n=54 v=0
148864 On ch=11 n=51 v=59
148980 Off ch=11 n=51 v=0
148992 On ch=11 n=50 v=60
149108 Off ch=11 n=50 v=0
149120 On ch=11 n=50 v=63
149236 Off ch=11 n=50 v=0
149248 On ch=11 n=50 v=60
149364 Off ch=11 n=50 v=0
149376 On ch=11 n=48 v=60
149492 Off ch=11 n=48 v=0
149504 On ch=11 n=46 v=58
149620 Off ch=11 n=46 v=0
149632 On ch=11 n=62 v=76
149748 Off ch=11 n=62 v=0
149760 On ch=11 n=62 v=68
149876 Off ch=11 n=62 v=0
149888 On ch=11 n=60 v=59
150004 Off ch=11 n=60 v=0
150016 On ch=11 n=58 v=57
150132 Off ch=11 n=58 v=0
150144 On ch=11 n=58 v=62
150260 Off ch=11 n=58 v=0
150272 On ch=11 n=58 v=61
150388 Off ch=11 n=58 v=0
150400 On ch=11 n=57 v=69
150516 Off ch=11 n=57 v=0
150528 On ch=11 n=55 v=65
150644 Off ch=11 n=55 v=0
150656 On ch=11 n=53 v=69
150772 Off ch=11 n=53 v=0
150784 On ch=11 n=51 v=65
150900 Off ch=11 n=51 v=0
150912 On ch=11 n=50 v=85
151028 Off ch=11 n=50 v=0
151040 On ch=11 n=36 v=95
151040 On ch=11 n=48 v=95
151156 Off ch=11 n=36 v=0
151156 Off ch=11 n=48 v=0
151168 On ch=11 n=36 v=96
151168 On ch=11 n=48 v=96
151284 Off ch=11 n=36 v=0
151284 Off ch=11 n=48 v=0
151296 On ch=11 n=36 v=98
151296 On ch=11 n=48 v=98
151412 Off ch=11 n=36 v=0
151412 Off ch=11 n=48 v=0
151424 On ch=11 n=36 v=102
151424 On ch=11 n=48 v=102
151540 Off ch=11 n=36 v=0
151540 Off ch=11 n=48 v=0
151552 On ch=11 n=36 v=99
151552 On ch=11 n=48 v=99
151668 Off ch=11 n=36 v=0
151668 Off ch=11 n=48 v=0
151680 On ch=11 n=36 v=98
151680 On ch=11 n=48 v=98
151796 Off ch=11 n=36 v=0
151796 Off ch=11 n=48 v=0
151808 On ch=11 n=36 v=99
151808 On ch=11 n=48 v=99
151924 Off ch=11 n=36 v=0
151924 Off ch=11 n=48 v=0
151936 On ch=11 n=36 v=97
151936 On ch=11 n=48 v=97
152052 Off ch=11 n=36 v=0
152052 Off ch=11 n=48 v=0
152064 On ch=11 n=36 v=97
152064 On ch=11 n=48 v=97
152295 Off ch=11 n=36 v=0
152295 Off ch=11 n=48 v=0
152704 On ch=11 n=49 v=84
152820 Off ch=11 n=49 v=0
152832 On ch=11 n=49 v=94
152948 Off ch=11 n=49 v=0
152960 On ch=11 n=49 v=99
153076 Off ch=11 n=49 v=0
153088 On ch=11 n=49 v=100
153204 Off ch=11 n=49 v=0
153216 On ch=11 n=49 v=98
153332 Off ch=11 n=49 v=0
153344 On ch=11 n=49 v=98
153460 Off ch=11 n=49 v=0
153472 On ch=11 n=49 v=98
153588 Off ch=11 n=49 v=0
153600 On ch=11 n=49 v=90
153716 Off ch=11 n=49 v=0
153728 On ch=11 n=49 v=98
153844 Off ch=11 n=49 v=0
153856 On ch=11 n=49 v=97
153972 Off ch=11 n=49 v=0
153984 On ch=11 n=49 v=96
154100 Off ch=11 n=49 v=0
154112 On ch=11 n=49 v=100
154343 Off ch=11 n=49 v=0
154752 On ch=11 n=50 v=95
154868 Off ch=11 n=50 v=0
154880 On ch=11 n=50 v=104
154996 Off ch=11 n=50 v=0
155008 On ch=11 n=50 v=106
155124 Off ch=11 n=50 v=0
155136 On ch=11 n=50 v=105
155367 Off ch=11 n=50 v=0
155904 On ch=11 n=52 v=96
156020 Off ch=11 n=52 v=0
156032 On ch=11 n=52 v=103
156148 Off ch=11 n=52 v=0
156160 On ch=11 n=52 v=106
156391 Off ch=11 n=52 v=0
156416 On ch=11 n=54 v=106
156532 Off ch=11 n=54 v=0
156544 On ch=11 n=54 v=105
156660 Off ch=11 n=54 v=0
156672 On ch=11 n=54 v=110
156903 Off ch=11 n=54 v=0
158464 On ch=11 n=60 v=96
158951 Off ch=11 n=60 v=0
158976 On ch=11 n=57 v=101
159091 Off ch=11 n=57 v=0
159232 On ch=11 n=54 v=99
159347 Off ch=11 n=54 v=0
159488 On ch=11 n=50 v=97
159603 Off ch=11 n=50 v=0
159744 On ch=11 n=48 v=100
159859 Off ch=11 n=48 v=0
160000 On ch=11 n=45 v=104
160115 Off ch=11 n=45 v=0
160256 On ch=11 n=42 v=105
160371 Off ch=11 n=42 v=0
160512 On ch=11 n=38 v=95
160627 Off ch=11 n=38 v=0
160768 On ch=11 n=43 v=114
160999 Off ch=11 n=43 v=0
162560 On ch=11 n=65 v=96
163047 Off ch=11 n=65 v=0
163072 On ch=11 n=62 v=96
163187 Off ch=11 n=62 v=0
163328 On ch=11 n=59 v=100
163443 Off ch=11 n=59 v=0
163584 On ch=11 n=55 v=99
163699 Off ch=11 n=55 v=0
163840 On ch=11 n=53 v=103
163955 Off ch=11 n=53 v=0
164096 On ch=11 n=50 v=98
164211 Off ch=11 n=50 v=0
164352 On ch=11 n=47 v=102
164467 Off ch=11 n=47 v=0
164608 On ch=11 n=43 v=95
164723 Off ch=11 n=43 v=0
164864 On ch=11 n=48 v=112
165095 Off ch=11 n=48 v=0
166400 On ch=11 n=43 v=97
166912 On ch=11 n=44 v=98
166922 Off ch=11 n=43 v=0
167398 Off ch=11 n=44 v=0
168448 On ch=11 n=43 v=100
168960 On ch=11 n=44 v=103
168970 Off ch=11 n=43 v=0
169446 Off ch=11 n=44 v=0
170496 On ch=11 n=46 v=108
171008 On ch=11 n=48 v=112
171018 Off ch=11 n=46 v=0
171494 Off ch=11 n=48 v=0
172544 On ch=11 n=49 v=108
173005 Off ch=11 n=49 v=0
173568 On ch=11 n=51 v=91
174029 Off ch=11 n=51 v=0
174592 On ch=11 n=53 v=72
175053 Off ch=11 n=53 v=0
175616 On ch=11 n=42 v=51
176077 Off ch=11 n=42 v=0
176640 On ch=11 n=42 v=55
177101 Off ch=11 n=42 v=0
177664 On ch=11 n=42 v=59
178125 Off ch=11 n=42 v=0
178688 On ch=11 n=42 v=53
179149 Off ch=11 n=42 v=0
179712 On ch=11 n=42 v=51
180173 Off ch=11 n=42 v=0
180736 On ch=11 n=42 v=49
181197 Off ch=11 n=42 v=0
181760 On ch=11 n=42 v=108
181876 Off ch=11 n=42 v=0
181888 On ch=11 n=50 v=125
182004 Off ch=11 n=50 v=0
182016 On ch=11 n=50 v=119
182132 Off ch=11 n=50 v=0
182144 On ch=11 n=50 v=113
182260 Off ch=11 n=50 v=0
182272 On ch=11 n=47 v=111
182733 Off ch=11 n=47 v=0
182784 On ch=11 n=48 v=112
183245 Off ch=11 n=48 v=0
183296 On ch=11 n=45 v=107
184269 Off ch=11 n=45 v=0
184832 On ch=11 n=47 v=53
185293 Off ch=11 n=47 v=0
185856 On ch=11 n=47 v=50
186317 Off ch=11 n=47 v=0
186880 On ch=11 n=47 v=52
187341 Off ch=11 n=47 v=0
187904 On ch=11 n=47 v=100
188020 Off ch=11 n=47 v=0
188032 On ch=11 n=44 v=108
188148 Off ch=11 n=44 v=0
188160 On ch=11 n=44 v=113
188276 Off ch=11 n=44 v=0
188288 On ch=11 n=44 v=111
188404 Off ch=11 n=44 v=0
188416 On ch=11 n=41 v=114
189044 Off ch=11 n=41 v=0
189056 On ch=11 n=44 v=119
189172 Off ch=11 n=44 v=0
189184 On ch=11 n=44 v=114
189300 Off ch=11 n=44 v=0
189312 On ch=11 n=44 v=112
189428 Off ch=11 n=44 v=0
189440 On ch=11 n=41 v=109
190068 Off ch=11 n=41 v=0
190080 On ch=11 n=44 v=110
190196 Off ch=11 n=44 v=0
190208 On ch=11 n=44 v=114
190324 Off ch=11 n=44 v=0
190336 On ch=11 n=44 v=113
190452 Off ch=11 n=44 v=0
190464 On ch=11 n=41 v=106
190580 Off ch=11 n=41 v=0
190592 On ch=11 n=44 v=121
190708 Off ch=11 n=44 v=0
190720 On ch=11 n=44 v=111
190836 Off ch=11 n=44 v=0
190848 On ch=11 n=44 v=112
190964 Off ch=11 n=44 v=0
190976 On ch=11 n=41 v=108
191092 Off ch=11 n=41 v=0
191104 On ch=11 n=44 v=119
191220 Off ch=11 n=44 v=0
191232 On ch=11 n=44 v=116
191348 Off ch=11 n=44 v=0
191360 On ch=11 n=44 v=112
191476 Off ch=11 n=44 v=0
191488 On ch=11 n=41 v=109
191604 Off ch=11 n=41 v=0
191616 On ch=11 n=44 v=115
191732 Off ch=11 n=44 v=0
191744 On ch=11 n=44 v=115
191860 Off ch=11 n=44 v=0
191872 On ch=11 n=44 v=110
191988 Off ch=11 n=44 v=0
192000 On ch=11 n=41 v=109
192116 Off ch=11 n=41 v=0
192128 On ch=11 n=43 v=111
192244 Off ch=11 n=43 v=0
192256 On ch=11 n=43 v=114
192372 Off ch=11 n=43 v=0
192384 On ch=11 n=43 v=115
192500 Off ch=11 n=43 v=0
192512 On ch=11 n=39 v=109
193280 Off ch=11 n=39 v=0
193408 On ch=11 n=41 v=101
193524 Off ch=11 n=41 v=0
193536 On ch=11 n=41 v=112
193652 Off ch=11 n=41 v=0
193664 On ch=11 n=41 v=111
193780 Off ch=11 n=41 v=0
193792 On ch=11 n=38 v=109
195072 Off ch=11 n=38 v=0
195584 PrCh ch=11 p=45
195584 Par ch=11 c=7 v=75
195584 Par ch=11 c=10 v=95
195584 On ch=11 n=48 v=72
195815 Off ch=11 n=48 v=0
196608 On ch=11 n=48 v=56
196839 Off ch=11 n=48 v=0
197632 On ch=11 n=47 v=54
197863 Off ch=11 n=47 v=0
198656 On ch=11 n=47 v=55
198887 Off ch=11 n=47 v=0
199680 On ch=11 n=48 v=54
199911 Off ch=11 n=48 v=0
200192 On ch=11 n=47 v=56
200423 Off ch=11 n=47 v=0
200704 On ch=11 n=48 v=57
200935 Off ch=11 n=48 v=0
201216 On ch=11 n=43 v=55
201447 Off ch=11 n=43 v=0
201728 On ch=11 n=48 v=68
201959 Off ch=11 n=48 v=0
202240 On ch=11 n=44 v=80
202471 Off ch=11 n=44 v=0
202752 PrCh ch=11 p=48
202752 Par ch=11 c=7 v=75
202752 Par ch=11 c=10 v=95
202752 On ch=11 n=43 v=77
202983 Off ch=11 n=43 v=0
207232 On ch=11 n=43 v=56
207348 Off ch=11 n=43 v=0
207360 On ch=11 n=43 v=59
207476 Off ch=11 n=43 v=0
207488 On ch=11 n=43 v=57
207604 Off ch=11 n=43 v=0
207616 On ch=11 n=48 v=64
207732 Off ch=11 n=48 v=0
207744 On ch=11 n=56 v=66
207860 Off ch=11 n=56 v=0
207872 On ch=11 n=56 v=62
207988 Off ch=11 n=56 v=0
208000 On ch=11 n=56 v=63
208116 Off ch=11 n=56 v=0
208128 On ch=11 n=53 v=57
208244 Off ch=11 n=53 v=0
208256 On ch=11 n=50 v=58
208372 Off ch=11 n=50 v=0
208384 On ch=11 n=50 v=69
208500 Off ch=11 n=50 v=0
208512 On ch=11 n=50 v=72
208628 Off ch=11 n=50 v=0
208640 On ch=11 n=47 v=69
208756 Off ch=11 n=47 v=0
208768 On ch=11 n=44 v=67
208884 Off ch=11 n=44 v=0
208896 On ch=11 n=44 v=73
209012 Off ch=11 n=44 v=0
209024 On ch=11 n=44 v=86
209140 Off ch=11 n=44 v=0
209152 On ch=11 n=43 v=80
209268 Off ch=11 n=43 v=0
209280 On ch=11 n=55 v=94
209396 Off ch=11 n=55 v=0
209408 On ch=11 n=55 v=87
209524 Off ch=11 n=55 v=0
209536 On ch=11 n=55 v=81
209652 Off ch=11 n=55 v=0
209664 On ch=11 n=48 v=88
209780 Off ch=11 n=48 v=0
209792 On ch=11 n=48 v=100
209908 Off ch=11 n=48 v=0
209920 On ch=11 n=48 v=96
210036 Off ch=11 n=48 v=0
210048 On ch=11 n=48 v=97
210164 Off ch=11 n=48 v=0
210176 On ch=11 n=48 v=99
210637 Off ch=11 n=48 v=0
210688 On ch=11 n=48 v=103
210804 Off ch=11 n=48 v=0
210816 On ch=11 n=48 v=101
210932 Off ch=11 n=48 v=0
210944 On ch=11 n=48 v=95
211060 Off ch=11 n=48 v=0
211072 On ch=11 n=48 v=99
211188 Off ch=11 n=48 v=0
211200 On ch=11 n=48 v=101
211661 Off ch=11 n=48 v=0
211712 On ch=11 n=48 v=98
211828 Off ch=11 n=48 v=0
211840 On ch=11 n=48 v=97
211956 Off ch=11 n=48 v=0
211968 On ch=11 n=48 v=97
212084 Off ch=11 n=48 v=0
212096 On ch=11 n=48 v=97
212212 Off ch=11 n=48 v=0
212224 On ch=11 n=48 v=115
212455 Off ch=11 n=48 v=0
212736 On ch=11 n=48 v=102
212967 Off ch=11 n=48 v=0
213248 On ch=11 n=48 v=104
213479 Off ch=11 n=48 v=0
213760 On ch=11 n=48 v=103
213991 Off ch=11 n=48 v=0
214272 On ch=11 n=48 v=102
214503 Off ch=11 n=48 v=0
214784 On ch=11 n=48 v=99
215015 Off ch=11 n=48 v=0
215296 On ch=11 n=48 v=90
216948 Off ch=11 n=48 v=0
216960 On ch=11 n=48 v=97
217076 Off ch=11 n=48 v=0
217088 On ch=11 n=48 v=96
217204 Off ch=11 n=48 v=0
217216 On ch=11 n=48 v=101
217332 Off ch=11 n=48 v=0
217344 On ch=11 n=43 v=93
218996 Off ch=11 n=43 v=0
219008 On ch=11 n=43 v=98
219124 Off ch=11 n=43 v=0
219136 On ch=11 n=48 v=104
219252 Off ch=11 n=48 v=0
219264 On ch=11 n=48 v=95
219380 Off ch=11 n=48 v=0
219392 On ch=11 n=48 v=114
219508 Off ch=11 n=48 v=0
219520 On ch=11 n=63 v=127
219636 Off ch=11 n=63 v=0
219648 On ch=11 n=63 v=125
219764 Off ch=11 n=63 v=0
219776 On ch=11 n=63 v=113
219892 Off ch=11 n=63 v=0
219904 On ch=11 n=60 v=99
220020 Off ch=11 n=60 v=0
220032 On ch=11 n=57 v=108
220148 Off ch=11 n=57 v=0
220160 On ch=11 n=57 v=111
220276 Off ch=11 n=57 v=0
220288 On ch=11 n=57 v=111
220404 Off ch=11 n=57 v=0
220416 On ch=11 n=54 v=105
220532 Off ch=11 n=54 v=0
220544 On ch=11 n=51 v=102
220660 Off ch=11 n=51 v=0
220672 On ch=11 n=51 v=110
220788 Off ch=11 n=51 v=0
220800 On ch=11 n=51 v=114
220916 Off ch=11 n=51 v=0
220928 On ch=11 n=48 v=109
221044 Off ch=11 n=48 v=0
221056 On ch=11 n=45 v=111
221172 Off ch=11 n=45 v=0
221184 On ch=11 n=45 v=112
221300 Off ch=11 n=45 v=0
221312 On ch=11 n=45 v=115
221428 Off ch=11 n=45 v=0
221440 On ch=11 n=48 v=118
221671 Off ch=11 n=48 v=0
222464 On ch=11 n=47 v=100
222695 Off ch=11 n=47 v=0
226176 On ch=11 n=43 v=59
226292 Off ch=11 n=43 v=0
226304 On ch=11 n=43 v=63
226420 Off ch=11 n=43 v=0
226432 On ch=11 n=43 v=60
226548 Off ch=11 n=43 v=0
226560 On ch=11 n=48 v=67
226791 Off ch=11 n=48 v=0
230272 On ch=11 n=43 v=53
230388 Off ch=11 n=43 v=0
230400 On ch=11 n=43 v=59
230516 Off ch=11 n=43 v=0
230528 On ch=11 n=43 v=60
230644 Off ch=11 n=43 v=0
230656 On ch=11 n=48 v=63
230887 Off ch=11 n=48 v=0
234368 On ch=11 n=48 v=52
234484 Off ch=11 n=48 v=0
234496 On ch=11 n=48 v=61
234612 Off ch=11 n=48 v=0
234624 On ch=11 n=48 v=59
234740 Off ch=11 n=48 v=0
234752 On ch=11 n=53 v=67
234983 Off ch=11 n=53 v=0
236416 On ch=11 n=50 v=56
236532 Off ch=11 n=50 v=0
236544 On ch=11 n=50 v=62
236660 Off ch=11 n=50 v=0
236672 On ch=11 n=50 v=65
236788 Off ch=11 n=50 v=0
236800 On ch=11 n=55 v=67
237031 Off ch=11 n=55 v=0
237312 On ch=11 n=65 v=56
237568 On ch=11 n=67 v=61
237573 Off ch=11 n=65 v=0
237824 On ch=11 n=68 v=63
237829 Off ch=11 n=67 v=0
238080 On ch=11 n=67 v=63
238085 Off ch=11 n=68 v=0
238336 On ch=11 n=65 v=57
238341 Off ch=11 n=67 v=0
238592 On ch=11 n=67 v=59
238597 Off ch=11 n=65 v=0
238835 Off ch=11 n=67 v=0
238848 On ch=11 n=68 v=64
239104 On ch=11 n=67 v=58
239109 Off ch=11 n=68 v=0
239360 On ch=11 n=65 v=56
239365 Off ch=11 n=67 v=0
239616 On ch=11 n=67 v=56
239621 Off ch=11 n=65 v=0
239859 Off ch=11 n=67 v=0
239872 On ch=11 n=68 v=62
240128 On ch=11 n=67 v=69
240133 Off ch=11 n=68 v=0
240384 On ch=11 n=65 v=65
240389 Off ch=11 n=67 v=0
240640 On ch=11 n=67 v=73
240645 Off ch=11 n=65 v=0
240883 Off ch=11 n=67 v=0
240896 On ch=11 n=68 v=73
241152 On ch=11 n=67 v=74
241157 Off ch=11 n=68 v=0
241408 On ch=11 n=66 v=69
241413 Off ch=11 n=67 v=0
241664 On ch=11 n=67 v=71
241669 Off ch=11 n=66 v=0
241907 Off ch=11 n=67 v=0
241920 On ch=11 n=69 v=84
242176 On ch=11 n=67 v=81
242181 Off ch=11 n=69 v=0
242432 On ch=11 n=66 v=78
242437 Off ch=11 n=67 v=0
242688 On ch=11 n=67 v=82
242693 Off ch=11 n=66 v=0
242931 Off ch=11 n=67 v=0
242944 On ch=11 n=69 v=90
243200 On ch=11 n=67 v=79
243205 Off ch=11 n=69 v=0
243456 On ch=11 n=66 v=82
243461 Off ch=11 n=67 v=0
243712 On ch=11 n=67 v=85
243717 Off ch=11 n=66 v=0
243968 On ch=11 n=66 v=80
243973 Off ch=11 n=67 v=0
244224 On ch=11 n=67 v=82
244229 Off ch=11 n=66 v=0
244480 On ch=11 n=66 v=95
244485 Off ch=11 n=67 v=0
244736 On ch=11 n=67 v=97
244741 Off ch=11 n=66 v=0
244979 Off ch=11 n=67 v=0
244992 On ch=11 n=62 v=97
245735 Off ch=11 n=62 v=0
245760 On ch=11 n=59 v=107
245991 Off ch=11 n=59 v=0
246016 On ch=11 n=60 v=120
246247 Off ch=11 n=60 v=0
246528 On ch=11 n=62 v=103
246759 Off ch=11 n=62 v=0
247040 On ch=11 n=64 v=98
247271 Off ch=11 n=64 v=0
247552 On ch=11 n=65 v=102
247783 Off ch=11 n=65 v=0
248064 On ch=11 n=67 v=100
248295 Off ch=11 n=67 v=0
248576 On ch=11 n=55 v=107
248807 Off ch=11 n=55 v=0
249088 On ch=11 n=47 v=100
249319 Off ch=11 n=47 v=0
249344 On ch=11 n=50 v=117
249575 Off ch=11 n=50 v=0
249600 On ch=11 n=47 v=104
249831 Off ch=11 n=47 v=0
249856 On ch=11 n=50 v=119
250087 Off ch=11 n=50 v=0
250112 On ch=11 n=48 v=114
250343 Off ch=11 n=48 v=0
250368 On ch=11 n=52 v=119
250599 Off ch=11 n=52 v=0
250624 On ch=11 n=50 v=112
250855 Off ch=11 n=50 v=0
250880 On ch=11 n=53 v=115
251111 Off ch=11 n=53 v=0
251136 On ch=11 n=52 v=110
251367 Off ch=11 n=52 v=0
251392 On ch=11 n=55 v=117
251623 Off ch=11 n=55 v=0
251648 On ch=11 n=53 v=109
251879 Off ch=11 n=53 v=0
251904 On ch=11 n=57 v=122
252135 Off ch=11 n=57 v=0
252160 On ch=11 n=55 v=109
252391 Off ch=11 n=55 v=0
252416 On ch=11 n=43 v=93
252647 Off ch=11 n=43 v=0
252672 On ch=11 n=55 v=125
252903 Off ch=11 n=55 v=0
252928 On ch=11 n=43 v=96
253159 Off ch=11 n=43 v=0
253184 On ch=11 n=48 v=120
254836 Off ch=11 n=48 v=0
254848 On ch=11 n=43 v=103
254964 Off ch=11 n=43 v=0
254976 On ch=11 n=43 v=111
255092 Off ch=11 n=43 v=0
255104 On ch=11 n=43 v=112
255220 Off ch=11 n=43 v=0
255232 On ch=11 n=48 v=118
256884 Off ch=11 n=48 v=0
256896 On ch=11 n=43 v=106
257012 Off ch=11 n=43 v=0
257024 On ch=11 n=43 v=115
257140 Off ch=11 n=43 v=0
257152 On ch=11 n=43 v=112
257268 Off ch=11 n=43 v=0
257280 On ch=11 n=48 v=121
257511 Off ch=11 n=48 v=0
257920 On ch=11 n=43 v=98
258036 Off ch=11 n=43 v=0
258048 On ch=11 n=43 v=115
258164 Off ch=11 n=43 v=0
258176 On ch=11 n=43 v=113
258292 Off ch=11 n=43 v=0
258304 On ch=11 n=48 v=121
258535 Off ch=11 n=48 v=0
258944 On ch=11 n=43 v=97
259060 Off ch=11 n=43 v=0
259072 On ch=11 n=43 v=109
259188 Off ch=11 n=43 v=0
259200 On ch=11 n=43 v=111
259316 Off ch=11 n=43 v=0
259328 On ch=11 n=48 v=127
259956 Off ch=11 n=48 v=0
259968 On ch=11 n=48 v=111
260084 Off ch=11 n=48 v=0
260096 On ch=11 n=48 v=113
260212 Off ch=11 n=48 v=0
260224 On ch=11 n=48 v=115
260340 Off ch=11 n=48 v=0
260352 On ch=11 n=44 v=120
260980 Off ch=11 n=44 v=0
260992 On ch=11 n=44 v=112
261108 Off ch=11 n=44 v=0
261120 On ch=11 n=44 v=114
261236 Off ch=11 n=44 v=0
261248 On ch=11 n=44 v=111
261364 Off ch=11 n=44 v=0
261376 On ch=11 n=52 v=127
262004 Off ch=11 n=52 v=0
262016 On ch=11 n=52 v=118
262132 Off ch=11 n=52 v=0
262144 On ch=11 n=52 v=114
262260 Off ch=11 n=52 v=0
262272 On ch=11 n=52 v=118
262388 Off ch=11 n=52 v=0
262400 On ch=11 n=53 v=127
263028 Off ch=11 n=53 v=0
263040 On ch=11 n=53 v=113
263156 Off ch=11 n=53 v=0
263168 On ch=11 n=53 v=113
263284 Off ch=11 n=53 v=0
263296 On ch=11 n=53 v=113
263412 Off ch=11 n=53 v=0
263424 On ch=11 n=41 v=95
263540 Off ch=11 n=41 v=0
263552 On ch=11 n=53 v=124
263668 Off ch=11 n=53 v=0
263680 On ch=11 n=53 v=112
263796 Off ch=11 n=53 v=0
263808 On ch=11 n=53 v=114
263924 Off ch=11 n=53 v=0
263936 On ch=11 n=53 v=118
264052 Off ch=11 n=53 v=0
264064 On ch=11 n=53 v=116
264180 Off ch=11 n=53 v=0
264192 On ch=11 n=53 v=111
264308 Off ch=11 n=53 v=0
264320 On ch=11 n=53 v=118
264436 Off ch=11 n=53 v=0
264448 On ch=11 n=53 v=115
264564 Off ch=11 n=53 v=0
264576 On ch=11 n=53 v=114
264692 Off ch=11 n=53 v=0
264704 On ch=11 n=53 v=111
264820 Off ch=11 n=53 v=0
264832 On ch=11 n=53 v=111
264948 Off ch=11 n=53 v=0
264960 On ch=11 n=53 v=114
265076 Off ch=11 n=53 v=0
265088 On ch=11 n=53 v=115
265204 Off ch=11 n=53 v=0
265216 On ch=11 n=53 v=112
265332 Off ch=11 n=53 v=0
265344 On ch=11 n=53 v=117
265460 Off ch=11 n=53 v=0
265472 On ch=11 n=53 v=118
265703 Off ch=11 n=53 v=0
267648 On ch=11 n=42 v=99
267764 Off ch=11 n=42 v=0
267776 On ch=11 n=42 v=116
267892 Off ch=11 n=42 v=0
267904 On ch=11 n=42 v=114
268020 Off ch=11 n=42 v=0
268032 On ch=11 n=42 v=117
268148 Off ch=11 n=42 v=0
268160 On ch=11 n=54 v=127
268276 Off ch=11 n=54 v=0
268288 On ch=11 n=54 v=117
268404 Off ch=11 n=54 v=0
268416 On ch=11 n=54 v=112
268532 Off ch=11 n=54 v=0
268544 On ch=11 n=54 v=117
268660 Off ch=11 n=54 v=0
268672 On ch=11 n=54 v=114
268788 Off ch=11 n=54 v=0
268800 On ch=11 n=54 v=112
268916 Off ch=11 n=54 v=0
268928 On ch=11 n=54 v=113
269044 Off ch=11 n=54 v=0
269056 On ch=11 n=54 v=106
269172 Off ch=11 n=54 v=0
269184 On ch=11 n=54 v=113
269300 Off ch=11 n=54 v=0
269312 On ch=11 n=54 v=115
269428 Off ch=11 n=54 v=0
269440 On ch=11 n=54 v=116
269556 Off ch=11 n=54 v=0
269568 On ch=11 n=54 v=110
269684 Off ch=11 n=54 v=0
269696 On ch=11 n=54 v=114
269812 Off ch=11 n=54 v=0
269824 On ch=11 n=54 v=111
269940 Off ch=11 n=54 v=0
269952 On ch=11 n=54 v=110
270068 Off ch=11 n=54 v=0
270080 On ch=11 n=54 v=116
270311 Off ch=11 n=54 v=0
271744 On ch=11 n=67 v=85
271860 Off ch=11 n=67 v=0
271872 On ch=11 n=67 v=99
271988 Off ch=11 n=67 v=0
272000 On ch=11 n=67 v=101
272116 Off ch=11 n=67 v=0
272128 On ch=11 n=63 v=82
272589 Off ch=11 n=63 v=0
272640 On ch=11 n=65 v=104
273101 Off ch=11 n=65 v=0
273152 On ch=11 n=62 v=94
273780 Off ch=11 n=62 v=0
273792 On ch=11 n=67 v=109
273908 Off ch=11 n=67 v=0
273920 On ch=11 n=67 v=100
274036 Off ch=11 n=67 v=0
274048 On ch=11 n=67 v=99
274164 Off ch=11 n=67 v=0
274176 On ch=11 n=63 v=85
274637 Off ch=11 n=63 v=0
274688 On ch=11 n=65 v=103
275149 Off ch=11 n=65 v=0
275200 On ch=11 n=62 v=90
275828 Off ch=11 n=62 v=0
275840 On ch=11 n=67 v=112
275956 Off ch=11 n=67 v=0
275968 On ch=11 n=67 v=104
276084 Off ch=11 n=67 v=0
276096 On ch=11 n=67 v=99
276212 Off ch=11 n=67 v=0
276224 On ch=11 n=63 v=92
276455 Off ch=11 n=63 v=0
276480 On ch=11 n=65 v=102
276711 Off ch=11 n=65 v=0
276736 On ch=11 n=62 v=88
276967 Off ch=11 n=62 v=0
276992 On ch=11 n=63 v=103
277223 Off ch=11 n=63 v=0
277248 On ch=11 n=60 v=88
277479 Off ch=11 n=60 v=0
277504 On ch=11 n=62 v=106
277735 Off ch=11 n=62 v=0
277760 On ch=11 n=58 v=92
277991 Off ch=11 n=58 v=0
278016 On ch=11 n=60 v=106
278247 Off ch=11 n=60 v=0
278272 On ch=11 n=56 v=93
278503 Off ch=11 n=56 v=0
278528 On ch=11 n=58 v=104
278759 Off ch=11 n=58 v=0
278784 On ch=11 n=55 v=91
279015 Off ch=11 n=55 v=0
279040 On ch=11 n=56 v=100
279271 Off ch=11 n=56 v=0
279296 On ch=11 n=53 v=88
279527 Off ch=11 n=53 v=0
279552 On ch=11 n=55 v=103
279783 Off ch=11 n=55 v=0
279808 On ch=11 n=51 v=94
280039 Off ch=11 n=51 v=0
280064 On ch=11 n=53 v=97
280295 Off ch=11 n=53 v=0
280320 On ch=11 n=50 v=89
280551 Off ch=11 n=50 v=0
280576 On ch=11 n=48 v=96
280807 Off ch=11 n=48 v=0
280832 On ch=11 n=47 v=97
281063 Off ch=11 n=47 v=0
281088 On ch=11 n=48 v=98
281319 Off ch=11 n=48 v=0
281344 On ch=11 n=50 v=99
281575 Off ch=11 n=50 v=0
281600 On ch=11 n=48 v=89
281831 Off ch=11 n=48 v=0
281856 On ch=11 n=50 v=99
282087 Off ch=11 n=50 v=0
282112 On ch=11 n=52 v=101
282343 Off ch=11 n=52 v=0
282368 On ch=11 n=53 v=100
282599 Off ch=11 n=53 v=0
282624 On ch=11 n=52 v=94
282855 Off ch=11 n=52 v=0
282880 On ch=11 n=53 v=98
283111 Off ch=11 n=53 v=0
283136 On ch=11 n=55 v=97
283367 Off ch=11 n=55 v=0
283392 On ch=11 n=56 v=103
283623 Off ch=11 n=56 v=0
283648 On ch=11 n=55 v=95
283879 Off ch=11 n=55 v=0
283904 On ch=11 n=57 v=104
284135 Off ch=11 n=57 v=0
284160 On ch=11 n=59 v=104
284391 Off ch=11 n=59 v=0
284416 On ch=11 n=60 v=102
285389 Off ch=11 n=60 v=0
285440 On ch=11 n=56 v=89
286413 Off ch=11 n=56 v=0
286464 On ch=11 n=51 v=89
287437 Off ch=11 n=51 v=0
287488 On ch=11 n=53 v=104
287949 Off ch=11 n=53 v=0
288000 On ch=11 n=51 v=94
288461 Off ch=11 n=51 v=0
288512 On ch=11 n=50 v=96
288973 Off ch=11 n=50 v=0
289024 On ch=11 n=53 v=106
289485 Off ch=11 n=53 v=0
289536 On ch=11 n=51 v=93
289651 Off ch=11 n=51 v=0
290048 On ch=11 n=48 v=89
290163 Off ch=11 n=48 v=0
290560 On ch=11 n=53 v=89
290675 Off ch=11 n=53 v=0
291072 On ch=11 n=50 v=86
291187 Off ch=11 n=50 v=0
291584 On ch=11 n=55 v=83
291699 Off ch=11 n=55 v=0
292096 On ch=11 n=43 v=85
292211 Off ch=11 n=43 v=0
292608 On ch=11 n=48 v=89
292723 Off ch=11 n=48 v=0
294144 On ch=11 n=39 v=89
294259 Off ch=11 n=39 v=0
294400 On ch=11 n=41 v=101
294515 Off ch=11 n=41 v=0
294656 On ch=11 n=43 v=102
294912 On ch=11 n=39 v=96
294917 Off ch=11 n=43 v=0
295155 Off ch=11 n=39 v=0
296192 On ch=11 n=43 v=96
296307 Off ch=11 n=43 v=0
296448 On ch=11 n=45 v=101
296563 Off ch=11 n=45 v=0
296704 On ch=11 n=47 v=100
296960 On ch=11 n=43 v=96
296965 Off ch=11 n=47 v=0
297203 Off ch=11 n=43 v=0
298240 On ch=11 n=43 v=95
298355 Off ch=11 n=43 v=0
298496 On ch=11 n=45 v=98
298611 Off ch=11 n=45 v=0
298752 On ch=11 n=47 v=98
299008 On ch=11 n=43 v=93
299013 Off ch=11 n=47 v=0
299251 Off ch=11 n=43 v=0
301312 On ch=11 n=53 v=124
301568 On ch=11 n=48 v=122
301573 Off ch=11 n=53 v=0
301811 Off ch=11 n=48 v=0
302336 On ch=11 n=53 v=105
302592 On ch=11 n=48 v=100
302597 Off ch=11 n=53 v=0
302835 Off ch=11 n=48 v=0
302848 On ch=11 n=55 v=104
303079 Off ch=11 n=55 v=0
303360 On ch=11 n=43 v=83
303591 Off ch=11 n=43 v=0
303872 On ch=11 n=60 v=88
304128 On ch=11 n=55 v=79
304133 Off ch=11 n=60 v=0
304384 On ch=11 n=56 v=99
304389 Off ch=11 n=55 v=0
304640 On ch=11 n=51 v=92
304645 Off ch=11 n=56 v=0
304896 On ch=11 n=53 v=101
304901 Off ch=11 n=51 v=0
305152 On ch=11 n=48 v=96
305157 Off ch=11 n=53 v=0
305395 Off ch=11 n=48 v=0
305920 On ch=11 n=53 v=102
306176 On ch=11 n=48 v=101
306181 Off ch=11 n=53 v=0
306419 Off ch=11 n=48 v=0
306432 On ch=11 n=53 v=101
306688 On ch=11 n=48 v=94
306693 Off ch=11 n=53 v=0
306931 Off ch=11 n=48 v=0
306944 On ch=11 n=55 v=105
307175 Off ch=11 n=55 v=0
307456 On ch=11 n=43 v=88
307687 Off ch=11 n=43 v=0
307968 On ch=11 n=48 v=89
308199 Off ch=11 n=48 v=0
310656 On ch=11 n=43 v=86
310772 Off ch=11 n=43 v=0
310784 On ch=11 n=43 v=96
310900 Off ch=11 n=43 v=0
310912 On ch=11 n=43 v=94
311028 Off ch=11 n=43 v=0
311040 On ch=11 n=48 v=103
311156 Off ch=11 n=48 v=0
311168 On ch=11 n=43 v=90
311284 Off ch=11 n=43 v=0
311296 On ch=11 n=43 v=98
311412 Off ch=11 n=43 v=0
311424 On ch=11 n=43 v=99
311540 Off ch=11 n=43 v=0
311552 On ch=11 n=43 v=100
311668 Off ch=11 n=43 v=0
311680 On ch=11 n=43 v=102
311796 Off ch=11 n=43 v=0
311808 On ch=11 n=43 v=103
311924 Off ch=11 n=43 v=0
311936 On ch=11 n=43 v=97
312052 Off ch=11 n=43 v=0
312064 On ch=11 n=43 v=98
312180 Off ch=11 n=43 v=0
312192 On ch=11 n=43 v=100
312308 Off ch=11 n=43 v=0
312320 On ch=11 n=43 v=97
312436 Off ch=11 n=43 v=0
312448 On ch=11 n=43 v=102
312564 Off ch=11 n=43 v=0
312576 On ch=11 n=43 v=97
312692 Off ch=11 n=43 v=0
312704 On ch=11 n=43 v=97
312820 Off ch=11 n=43 v=0
312832 On ch=11 n=43 v=100
312948 Off ch=11 n=43 v=0
312960 On ch=11 n=43 v=97
313076 Off ch=11 n=43 v=0
313088 On ch=11 n=39 v=106
313856 Off ch=11 n=39 v=0
313984 On ch=11 n=41 v=105
314100 Off ch=11 n=41 v=0
314112 On ch=11 n=41 v=110
314228 Off ch=11 n=41 v=0
314240 On ch=11 n=41 v=116
314356 Off ch=11 n=41 v=0
314368 On ch=11 n=38 v=104
315648 Off ch=11 n=38 v=0
316160 On ch=11 n=36 v=53
316160 On ch=11 n=43 v=53
319860 Off ch=11 n=36 v=0
319860 Off ch=11 n=43 v=0
319872 On ch=11 n=43 v=112
319988 Off ch=11 n=43 v=0
320000 On ch=11 n=43 v=114
320116 Off ch=11 n=43 v=0
320128 On ch=11 n=43 v=111
320244 Off ch=11 n=43 v=0
320256 On ch=11 n=48 v=118
320487 Off ch=11 n=48 v=0
320896 On ch=11 n=43 v=98
321012 Off ch=11 n=43 v=0
321024 On ch=11 n=43 v=114
321140 Off ch=11 n=43 v=0
321152 On ch=11 n=43 v=112
321268 Off ch=11 n=43 v=0
321280 On ch=11 n=48 v=118
321511 Off ch=11 n=48 v=0
321920 On ch=11 n=43 v=102
322036 Off ch=11 n=43 v=0
322048 On ch=11 n=43 v=110
322164 Off ch=11 n=43 v=0
322176 On ch=11 n=43 v=115
322292 Off ch=11 n=43 v=0
322304 On ch=11 n=48 v=122
322535 Off ch=11 n=48 v=0
322560 On ch=11 n=43 v=107
322791 Off ch=11 n=43 v=0
322816 On ch=11 n=48 v=122
323047 Off ch=11 n=48 v=0
323072 On ch=11 n=43 v=109
323303 Off ch=11 n=43 v=0
323328 On ch=11 n=48 v=120
323559 Off ch=11 n=48 v=0
323584 On ch=11 n=55 v=121
323815 Off ch=11 n=55 v=0
323840 On ch=11 n=60 v=127
324071 Off ch=11 n=60 v=0
324096 On ch=11 n=55 v=109
324327 Off ch=11 n=55 v=0
324352 On ch=11 n=60 v=127
324583 Off ch=11 n=60 v=0
324864 On ch=11 n=43 v=100
325095 Off ch=11 n=43 v=0
325376 On ch=11 n=36 v=105
325376 On ch=11 n=48 v=105
325607 Off ch=11 n=36 v=0
325607 Off ch=11 n=48 v=0
128 On ch=12 n=43 v=99
244 Off ch=12 n=43 v=0
256 On ch=12 n=43 v=114
372 Off ch=12 n=43 v=0
384 On ch=12 n=43 v=113
500 Off ch=12 n=43 v=0
512 On ch=12 n=39 v=109
1280 Off ch=12 n=39 v=0
1408 On ch=12 n=41 v=98
1524 Off ch=12 n=41 v=0
1536 On ch=12 n=41 v=116
1652 Off ch=12 n=41 v=0
1664 On ch=12 n=41 v=112
1780 Off ch=12 n=41 v=0
1792 On ch=12 n=38 v=107
3072 Off ch=12 n=38 v=0
9344 On ch=12 n=35 v=51
9460 Off ch=12 n=35 v=0
9472 On ch=12 n=35 v=71
9588 Off ch=12 n=35 v=0
9600 On ch=12 n=35 v=84
9716 Off ch=12 n=35 v=0
9728 On ch=12 n=36 v=98
9959 Off ch=12 n=36 v=0
10240 On ch=12 n=32 v=90
10471 Off ch=12 n=32 v=0
10752 On ch=12 n=31 v=89
10983 Off ch=12 n=31 v=0
11520 On ch=12 n=32 v=90
11636 Off ch=12 n=32 v=0
11648 On ch=12 n=32 v=87
11764 Off ch=12 n=32 v=0
11776 On ch=12 n=32 v=96
11892 Off ch=12 n=32 v=0
11904 On ch=12 n=29 v=90
13184 Off ch=12 n=29 v=0
14848 On ch=12 n=31 v=55
14964 Off ch=12 n=31 v=0
14976 On ch=12 n=31 v=59
15092 Off ch=12 n=31 v=0
15104 On ch=12 n=31 v=62
15220 Off ch=12 n=31 v=0
15232 On ch=12 n=36 v=64
15463 Off ch=12 n=36 v=0
16896 On ch=12 n=31 v=52
17012 Off ch=12 n=31 v=0
17024 On ch=12 n=31 v=60
17140 Off ch=12 n=31 v=0
17152 On ch=12 n=31 v=63
17268 Off ch=12 n=31 v=0
17280 On ch=12 n=36 v=63
17511 Off ch=12 n=36 v=0
17920 On ch=12 n=36 v=51
18036 Off ch=12 n=36 v=0
18048 On ch=12 n=36 v=61
18164 Off ch=12 n=36 v=0
18176 On ch=12 n=36 v=62
18292 Off ch=12 n=36 v=0
18304 On ch=12 n=36 v=60
18535 Off ch=12 n=36 v=0
18944 On ch=12 n=36 v=62
19060 Off ch=12 n=36 v=0
19072 On ch=12 n=36 v=63
19188 Off ch=12 n=36 v=0
19200 On ch=12 n=36 v=67
19316 Off ch=12 n=36 v=0
19328 On ch=12 n=36 v=68
19559 Off ch=12 n=36 v=0
19840 On ch=12 n=36 v=78
20071 Off ch=12 n=36 v=0
20352 On ch=12 n=36 v=88
20583 Off ch=12 n=36 v=0
20864 On ch=12 n=36 v=84
21095 Off ch=12 n=36 v=0
21376 On ch=12 n=36 v=81
21607 Off ch=12 n=36 v=0
21888 On ch=12 n=36 v=86
22119 Off ch=12 n=36 v=0
22400 On ch=12 n=36 v=90
22631 Off ch=12 n=36 v=0
22912 On ch=12 n=36 v=86
24564 Off ch=12 n=36 v=0
24576 On ch=12 n=36 v=98
24692 Off ch=12 n=36 v=0
24704 On ch=12 n=36 v=97
24820 Off ch=12 n=36 v=0
24832 On ch=12 n=36 v=100
24948 Off ch=12 n=36 v=0
24960 On ch=12 n=31 v=90
26612 Off ch=12 n=31 v=0
26624 On ch=12 n=31 v=95
26740 Off ch=12 n=31 v=0
26752 On ch=12 n=36 v=98
26868 Off ch=12 n=36 v=0
26880 On ch=12 n=36 v=97
26996 Off ch=12 n=36 v=0
27008 On ch=12 n=36 v=115
27124 Off ch=12 n=36 v=0
27136 On ch=12 n=36 v=110
27252 Off ch=12 n=36 v=0
27264 On ch=12 n=36 v=108
27380 Off ch=12 n=36 v=0
27392 On ch=12 n=36 v=119
27508 Off ch=12 n=36 v=0
27520 On ch=12 n=36 v=114
27636 Off ch=12 n=36 v=0
27648 On ch=12 n=36 v=112
27764 Off ch=12 n=36 v=0
27776 On ch=12 n=36 v=109
27892 Off ch=12 n=36 v=0
27904 On ch=12 n=36 v=118
28020 Off ch=12 n=36 v=0
28032 On ch=12 n=36 v=114
28148 Off ch=12 n=36 v=0
28160 On ch=12 n=36 v=114
28276 Off ch=12 n=36 v=0
28288 On ch=12 n=36 v=115
28404 Off ch=12 n=36 v=0
28416 On ch=12 n=36 v=117
28532 Off ch=12 n=36 v=0
28544 On ch=12 n=36 v=113
28660 Off ch=12 n=36 v=0
28672 On ch=12 n=36 v=112
28788 Off ch=12 n=36 v=0
28800 On ch=12 n=36 v=115
28916 Off ch=12 n=36 v=0
28928 On ch=12 n=36 v=114
29044 Off ch=12 n=36 v=0
29056 On ch=12 n=36 v=107
29287 Off ch=12 n=36 v=0
30080 On ch=12 n=38 v=104
30311 Off ch=12 n=38 v=0
33792 On ch=12 n=34 v=57
33908 Off ch=12 n=34 v=0
33920 On ch=12 n=34 v=59
34036 Off ch=12 n=34 v=0
34048 On ch=12 n=34 v=63
34164 Off ch=12 n=34 v=0
34176 On ch=12 n=39 v=67
34407 Off ch=12 n=39 v=0
35840 On ch=12 n=34 v=60
35956 Off ch=12 n=34 v=0
35968 On ch=12 n=34 v=60
36084 Off ch=12 n=34 v=0
36096 On ch=12 n=34 v=57
36212 Off ch=12 n=34 v=0
36224 On ch=12 n=39 v=60
36455 Off ch=12 n=39 v=0
37888 On ch=12 n=34 v=52
38004 Off ch=12 n=34 v=0
38016 On ch=12 n=34 v=61
38132 Off ch=12 n=34 v=0
38144 On ch=12 n=34 v=58
38260 Off ch=12 n=34 v=0
38272 On ch=12 n=39 v=63
38503 Off ch=12 n=39 v=0
39936 On ch=12 n=36 v=58
40052 Off ch=12 n=36 v=0
40064 On ch=12 n=36 v=62
40180 Off ch=12 n=36 v=0
40192 On ch=12 n=36 v=63
40308 Off ch=12 n=36 v=0
40320 On ch=12 n=41 v=67
40551 Off ch=12 n=41 v=0
41984 On ch=12 n=39 v=57
42100 Off ch=12 n=39 v=0
42112 On ch=12 n=39 v=58
42228 Off ch=12 n=39 v=0
42240 On ch=12 n=39 v=59
42356 Off ch=12 n=39 v=0
42368 On ch=12 n=44 v=66
42599 Off ch=12 n=44 v=0
43520 On ch=12 n=45 v=53
43636 Off ch=12 n=45 v=0
43648 On ch=12 n=45 v=59
43764 Off ch=12 n=45 v=0
43776 On ch=12 n=45 v=63
43892 Off ch=12 n=45 v=0
43904 On ch=12 n=45 v=60
44135 Off ch=12 n=45 v=0
44544 On ch=12 n=46 v=60
44660 Off ch=12 n=46 v=0
44672 On ch=12 n=46 v=66
44788 Off ch=12 n=46 v=0
44800 On ch=12 n=46 v=71
44916 Off ch=12 n=46 v=0
44928 On ch=12 n=46 v=73
45159 Off ch=12 n=46 v=0
45568 On ch=12 n=47 v=75
45684 Off ch=12 n=47 v=0
45696 On ch=12 n=47 v=79
45812 Off ch=12 n=47 v=0
45824 On ch=12 n=47 v=87
45940 Off ch=12 n=47 v=0
45952 On ch=12 n=47 v=86
46183 Off ch=12 n=47 v=0
46592 On ch=12 n=48 v=75
46708 Off ch=12 n=48 v=0
46720 On ch=12 n=48 v=82
46836 Off ch=12 n=48 v=0
46848 On ch=12 n=48 v=84
46964 Off ch=12 n=48 v=0
46976 On ch=12 n=48 v=84
47207 Off ch=12 n=48 v=0
47616 On ch=12 n=48 v=74
47732 Off ch=12 n=48 v=0
47744 On ch=12 n=48 v=98
47860 Off ch=12 n=48 v=0
47872 On ch=12 n=48 v=95
47988 Off ch=12 n=48 v=0
48000 On ch=12 n=48 v=97
48231 Off ch=12 n=48 v=0
48256 On ch=12 n=48 v=99
48372 Off ch=12 n=48 v=0
48384 On ch=12 n=48 v=101
48500 Off ch=12 n=48 v=0
48512 On ch=12 n=50 v=115
49255 Off ch=12 n=50 v=0
49280 On ch=12 n=38 v=100
49511 Off ch=12 n=38 v=0
49536 On ch=12 n=39 v=114
49767 Off ch=12 n=39 v=0
50048 On ch=12 n=41 v=102
50279 Off ch=12 n=41 v=0
50560 On ch=12 n=43 v=107
50791 Off ch=12 n=43 v=0
51072 On ch=12 n=44 v=102
51303 Off ch=12 n=44 v=0
51584 On ch=12 n=46 v=103
51815 Off ch=12 n=46 v=0
52096 On ch=12 n=34 v=102
52327 Off ch=12 n=34 v=0
52608 On ch=12 n=38 v=100
52839 Off ch=12 n=38 v=0
52864 On ch=12 n=41 v=118
53095 Off ch=12 n=41 v=0
53120 On ch=12 n=38 v=105
53351 Off ch=12 n=38 v=0
53376 On ch=12 n=41 v=119
53607 Off ch=12 n=41 v=0
53632 On ch=12 n=39 v=110
53863 Off ch=12 n=39 v=0
53888 On ch=12 n=43 v=122
54119 Off ch=12 n=43 v=0
54144 On ch=12 n=41 v=112
54375 Off ch=12 n=41 v=0
54400 On ch=12 n=44 v=117
54631 Off ch=12 n=44 v=0
54656 On ch=12 n=43 v=108
54887 Off ch=12 n=43 v=0
54912 On ch=12 n=46 v=118
55143 Off ch=12 n=46 v=0
55168 On ch=12 n=44 v=108
55399 Off ch=12 n=44 v=0
55424 On ch=12 n=48 v=126
55655 Off ch=12 n=48 v=0
55680 On ch=12 n=46 v=111
55911 Off ch=12 n=46 v=0
55936 On ch=12 n=34 v=98
56167 Off ch=12 n=34 v=0
56192 On ch=12 n=46 v=125
56423 Off ch=12 n=46 v=0
56448 On ch=12 n=34 v=98
56679 Off ch=12 n=34 v=0
56704 On ch=12 n=39 v=117
58356 Off ch=12 n=39 v=0
58368 On ch=12 n=34 v=105
58484 Off ch=12 n=34 v=0
58496 On ch=12 n=34 v=109
58612 Off ch=12 n=34 v=0
58624 On ch=12 n=34 v=117
58740 Off ch=12 n=34 v=0
58752 On ch=12 n=39 v=117
60404 Off ch=12 n=39 v=0
60416 On ch=12 n=34 v=104
60532 Off ch=12 n=34 v=0
60544 On ch=12 n=34 v=113
60660 Off ch=12 n=34 v=0
60672 On ch=12 n=34 v=116
60788 Off ch=12 n=34 v=0
60800 On ch=12 n=39 v=123
61031 Off ch=12 n=39 v=0
61440 On ch=12 n=34 v=100
61556 Off ch=12 n=34 v=0
61568 On ch=12 n=34 v=108
61684 Off ch=12 n=34 v=0
61696 On ch=12 n=34 v=115
61812 Off ch=12 n=34 v=0
61824 On ch=12 n=39 v=120
62055 Off ch=12 n=39 v=0
62464 On ch=12 n=34 v=103
62580 Off ch=12 n=34 v=0
62592 On ch=12 n=34 v=110
62708 Off ch=12 n=34 v=0
62720 On ch=12 n=34 v=120
62836 Off ch=12 n=34 v=0
62848 On ch=12 n=39 v=116
63079 Off ch=12 n=39 v=0
64512 On ch=12 n=43 v=98
64628 Off ch=12 n=43 v=0
64640 On ch=12 n=43 v=106
64756 Off ch=12 n=43 v=0
64768 On ch=12 n=43 v=111
64884 Off ch=12 n=43 v=0
64896 On ch=12 n=39 v=103
65664 Off ch=12 n=39 v=0
65792 On ch=12 n=41 v=101
65908 Off ch=12 n=41 v=0
65920 On ch=12 n=41 v=113
66036 Off ch=12 n=41 v=0
66048 On ch=12 n=41 v=108
66164 Off ch=12 n=41 v=0
66176 On ch=12 n=38 v=110
67456 Off ch=12 n=38 v=0
73728 On ch=12 n=35 v=53
73844 Off ch=12 n=35 v=0
73856 On ch=12 n=35 v=66
73972 Off ch=12 n=35 v=0
73984 On ch=12 n=35 v=80
74100 Off ch=12 n=35 v=0
74112 On ch=12 n=36 v=96
74343 Off ch=12 n=36 v=0
74624 On ch=12 n=32 v=86
74855 Off ch=12 n=32 v=0
75136 On ch=12 n=31 v=92
75367 Off ch=12 n=31 v=0
75904 On ch=12 n=32 v=92
76020 Off ch=12 n=32 v=0
76032 On ch=12 n=32 v=95
76148 Off ch=12 n=32 v=0
76160 On ch=12 n=32 v=97
76276 Off ch=12 n=32 v=0
76288 On ch=12 n=29 v=93
77568 Off ch=12 n=29 v=0
79232 On ch=12 n=31 v=54
79348 Off ch=12 n=31 v=0
79360 On ch=12 n=31 v=57
79476 Off ch=12 n=31 v=0
79488 On ch=12 n=31 v=62
79604 Off ch=12 n=31 v=0
79616 On ch=12 n=36 v=62
79847 Off ch=12 n=36 v=0
81280 On ch=12 n=31 v=56
81396 Off ch=12 n=31 v=0
81408 On ch=12 n=31 v=65
81524 Off ch=12 n=31 v=0
81536 On ch=12 n=31 v=60
81652 Off ch=12 n=31 v=0
81664 On ch=12 n=36 v=70
81895 Off ch=12 n=36 v=0
82304 On ch=12 n=36 v=55
82420 Off ch=12 n=36 v=0
82432 On ch=12 n=36 v=60
82548 Off ch=12 n=36 v=0
82560 On ch=12 n=36 v=66
82676 Off ch=12 n=36 v=0
82688 On ch=12 n=36 v=62
82919 Off ch=12 n=36 v=0
83328 On ch=12 n=36 v=66
83444 Off ch=12 n=36 v=0
83456 On ch=12 n=36 v=64
83572 Off ch=12 n=36 v=0
83584 On ch=12 n=36 v=67
83700 Off ch=12 n=36 v=0
83712 On ch=12 n=36 v=68
83943 Off ch=12 n=36 v=0
84224 On ch=12 n=36 v=73
84455 Off ch=12 n=36 v=0
84736 On ch=12 n=36 v=80
84967 Off ch=12 n=36 v=0
85248 On ch=12 n=36 v=87
85479 Off ch=12 n=36 v=0
85760 On ch=12 n=36 v=89
85991 Off ch=12 n=36 v=0
86272 On ch=12 n=36 v=93
86503 Off ch=12 n=36 v=0
86784 On ch=12 n=36 v=92
87015 Off ch=12 n=36 v=0
87296 On ch=12 n=36 v=89
88948 Off ch=12 n=36 v=0
88960 On ch=12 n=36 v=95
89076 Off ch=12 n=36 v=0
89088 On ch=12 n=36 v=96
89204 Off ch=12 n=36 v=0
89216 On ch=12 n=36 v=91
89332 Off ch=12 n=36 v=0
89344 On ch=12 n=31 v=93
90996 Off ch=12 n=31 v=0
91008 On ch=12 n=31 v=99
91124 Off ch=12 n=31 v=0
91136 On ch=12 n=36 v=102
91252 Off ch=12 n=36 v=0
91264 On ch=12 n=36 v=99
91380 Off ch=12 n=36 v=0
91392 On ch=12 n=36 v=120
91508 Off ch=12 n=36 v=0
91520 On ch=12 n=36 v=112
91636 Off ch=12 n=36 v=0
91648 On ch=12 n=36 v=115
91764 Off ch=12 n=36 v=0
91776 On ch=12 n=36 v=107
91892 Off ch=12 n=36 v=0
91904 On ch=12 n=36 v=111
92020 Off ch=12 n=36 v=0
92032 On ch=12 n=36 v=112
92148 Off ch=12 n=36 v=0
92160 On ch=12 n=36 v=110
92276 Off ch=12 n=36 v=0
92288 On ch=12 n=36 v=112
92404 Off ch=12 n=36 v=0
92416 On ch=12 n=36 v=112
92532 Off ch=12 n=36 v=0
92544 On ch=12 n=36 v=113
92660 Off ch=12 n=36 v=0
92672 On ch=12 n=36 v=112
92788 Off ch=12 n=36 v=0
92800 On ch=12 n=36 v=113
92916 Off ch=12 n=36 v=0
92928 On ch=12 n=36 v=117
93044 Off ch=12 n=36 v=0
93056 On ch=12 n=36 v=111
93172 Off ch=12 n=36 v=0
93184 On ch=12 n=36 v=112
93300 Off ch=12 n=36 v=0
93312 On ch=12 n=36 v=114
93428 Off ch=12 n=36 v=0
93440 On ch=12 n=36 v=118
93671 Off ch=12 n=36 v=0
94464 On ch=12 n=38 v=107
94695 Off ch=12 n=38 v=0
98176 On ch=12 n=34 v=54
98292 Off ch=12 n=34 v=0
98304 On ch=12 n=34 v=59
98420 Off ch=12 n=34 v=0
98432 On ch=12 n=34 v=64
98548 Off ch=12 n=34 v=0
98560 On ch=12 n=39 v=63
98791 Off ch=12 n=39 v=0
100224 On ch=12 n=34 v=50
100340 Off ch=12 n=34 v=0
100352 On ch=12 n=34 v=65
100468 Off ch=12 n=34 v=0
100480 On ch=12 n=34 v=62
100596 Off ch=12 n=34 v=0
100608 On ch=12 n=39 v=65
100839 Off ch=12 n=39 v=0
102272 On ch=12 n=34 v=53
102388 Off ch=12 n=34 v=0
102400 On ch=12 n=34 v=59
102516 Off ch=12 n=34 v=0
102528 On ch=12 n=34 v=62
102644 Off ch=12 n=34 v=0
102656 On ch=12 n=39 v=66
102887 Off ch=12 n=39 v=0
104320 On ch=12 n=36 v=56
104436 Off ch=12 n=36 v=0
104448 On ch=12 n=36 v=60
104564 Off ch=12 n=36 v=0
104576 On ch=12 n=36 v=61
104692 Off ch=12 n=36 v=0
104704 On ch=12 n=41 v=65
104935 Off ch=12 n=41 v=0
106368 On ch=12 n=39 v=54
106484 Off ch=12 n=39 v=0
106496 On ch=12 n=39 v=61
106612 Off ch=12 n=39 v=0
106624 On ch=12 n=39 v=60
106740 Off ch=12 n=39 v=0
106752 On ch=12 n=44 v=65
106983 Off ch=12 n=44 v=0
107904 On ch=12 n=45 v=57
108020 Off ch=12 n=45 v=0
108032 On ch=12 n=45 v=59
108148 Off ch=12 n=45 v=0
108160 On ch=12 n=45 v=64
108276 Off ch=12 n=45 v=0
108288 On ch=12 n=45 v=58
108519 Off ch=12 n=45 v=0
108928 On ch=12 n=46 v=64
109044 Off ch=12 n=46 v=0
109056 On ch=12 n=46 v=66
109172 Off ch=12 n=46 v=0
109184 On ch=12 n=46 v=70
109300 Off ch=12 n=46 v=0
109312 On ch=12 n=46 v=72
109543 Off ch=12 n=46 v=0
109952 On ch=12 n=47 v=76
110068 Off ch=12 n=47 v=0
110080 On ch=12 n=47 v=84
110196 Off ch=12 n=47 v=0
110208 On ch=12 n=47 v=83
110324 Off ch=12 n=47 v=0
110336 On ch=12 n=47 v=84
110567 Off ch=12 n=47 v=0
110976 On ch=12 n=48 v=77
111092 Off ch=12 n=48 v=0
111104 On ch=12 n=48 v=82
111220 Off ch=12 n=48 v=0
111232 On ch=12 n=48 v=84
111348 Off ch=12 n=48 v=0
111360 On ch=12 n=48 v=81
111591 Off ch=12 n=48 v=0
112000 On ch=12 n=48 v=79
112116 Off ch=12 n=48 v=0
112128 On ch=12 n=48 v=96
112244 Off ch=12 n=48 v=0
112256 On ch=12 n=48 v=98
112372 Off ch=12 n=48 v=0
112384 On ch=12 n=48 v=99
112615 Off ch=12 n=48 v=0
112640 On ch=12 n=48 v=99
112756 Off ch=12 n=48 v=0
112768 On ch=12 n=48 v=101
112884 Off ch=12 n=48 v=0
112896 On ch=12 n=50 v=121
113639 Off ch=12 n=50 v=0
113664 On ch=12 n=38 v=96
113895 Off ch=12 n=38 v=0
113920 On ch=12 n=39 v=114
114151 Off ch=12 n=39 v=0
114432 On ch=12 n=41 v=99
114663 Off ch=12 n=41 v=0
114944 On ch=12 n=43 v=105
115175 Off ch=12 n=43 v=0
115456 On ch=12 n=44 v=106
115687 Off ch=12 n=44 v=0
115968 On ch=12 n=46 v=101
116199 Off ch=12 n=46 v=0
116480 On ch=12 n=34 v=100
116711 Off ch=12 n=34 v=0
116992 On ch=12 n=38 v=97
117223 Off ch=12 n=38 v=0
117248 On ch=12 n=41 v=115
117479 Off ch=12 n=41 v=0
117504 On ch=12 n=38 v=111
117735 Off ch=12 n=38 v=0
117760 On ch=12 n=41 v=115
117991 Off ch=12 n=41 v=0
118016 On ch=12 n=39 v=109
118247 Off ch=12 n=39 v=0
118272 On ch=12 n=43 v=120
118503 Off ch=12 n=43 v=0
118528 On ch=12 n=41 v=109
118759 Off ch=12 n=41 v=0
118784 On ch=12 n=44 v=121
119015 Off ch=12 n=44 v=0
119040 On ch=12 n=43 v=112
119271 Off ch=12 n=43 v=0
119296 On ch=12 n=46 v=121
119527 Off ch=12 n=46 v=0
119552 On ch=12 n=44 v=115
119783 Off ch=12 n=44 v=0
119808 On ch=12 n=48 v=121
120039 Off ch=12 n=48 v=0
120064 On ch=12 n=46 v=109
120295 Off ch=12 n=46 v=0
120320 On ch=12 n=34 v=99
120551 Off ch=12 n=34 v=0
120576 On ch=12 n=46 v=125
120807 Off ch=12 n=46 v=0
120832 On ch=12 n=34 v=102
121063 Off ch=12 n=34 v=0
121088 On ch=12 n=39 v=118
122740 Off ch=12 n=39 v=0
122752 On ch=12 n=34 v=105
122868 Off ch=12 n=34 v=0
122880 On ch=12 n=34 v=112
122996 Off ch=12 n=34 v=0
123008 On ch=12 n=34 v=113
123124 Off ch=12 n=34 v=0
123136 On ch=12 n=39 v=119
124788 Off ch=12 n=39 v=0
124800 On ch=12 n=34 v=104
124916 Off ch=12 n=34 v=0
124928 On ch=12 n=34 v=115
125044 Off ch=12 n=34 v=0
125056 On ch=12 n=34 v=116
125172 Off ch=12 n=34 v=0
125184 On ch=12 n=39 v=123
125415 Off ch=12 n=39 v=0
125824 On ch=12 n=34 v=105
125940 Off ch=12 n=34 v=0
125952 On ch=12 n=34 v=110
126068 Off ch=12 n=34 v=0
126080 On ch=12 n=34 v=114
126196 Off ch=12 n=34 v=0
126208 On ch=12 n=39 v=120
126439 Off ch=12 n=39 v=0
126848 On ch=12 n=34 v=100
126964 Off ch=12 n=34 v=0
126976 On ch=12 n=34 v=110
127092 Off ch=12 n=34 v=0
127104 On ch=12 n=34 v=115
127220 Off ch=12 n=34 v=0
127232 On ch=12 n=39 v=122
127463 Off ch=12 n=39 v=0
129408 On ch=12 n=37 v=101
129524 Off ch=12 n=37 v=0
129536 On ch=12 n=37 v=112
129652 Off ch=12 n=37 v=0
129664 On ch=12 n=37 v=112
129780 Off ch=12 n=37 v=0
129792 On ch=12 n=36 v=114
131072 Off ch=12 n=36 v=0
139520 PrCh ch=12 p=45
139520 Par ch=12 c=7 v=63
139520 Par ch=12 c=10 v=119
139520 On ch=12 n=31 v=59
139751 Off ch=12 n=31 v=0
139776 On ch=12 n=36 v=65
140007 Off ch=12 n=36 v=0
140288 On ch=12 n=31 v=54
140519 Off ch=12 n=31 v=0
140800 On ch=12 n=36 v=55
141031 Off ch=12 n=36 v=0
141312 On ch=12 n=31 v=55
141543 Off ch=12 n=31 v=0
141824 On ch=12 n=36 v=53
142055 Off ch=12 n=36 v=0
142848 On ch=12 n=33 v=54
143079 Off ch=12 n=33 v=0
143360 On ch=12 n=38 v=54
143591 Off ch=12 n=38 v=0
143872 On ch=12 n=43 v=54
144103 Off ch=12 n=43 v=0
144384 On ch=12 n=38 v=53
144615 Off ch=12 n=38 v=0
144896 On ch=12 n=43 v=57
145127 Off ch=12 n=43 v=0
145408 On ch=12 n=38 v=52
145639 Off ch=12 n=38 v=0
145920 PrCh ch=12 p=48
145920 Par ch=12 c=7 v=63
145920 Par ch=12 c=10 v=119
145920 On ch=12 n=31 v=56
146432 Off ch=12 n=31 v=0
146432 On ch=12 n=31 v=61
146553 Off ch=12 n=31 v=0
146560 On ch=12 n=31 v=60
146676 Off ch=12 n=31 v=0
146688 On ch=12 n=31 v=55
146804 Off ch=12 n=31 v=0
146816 On ch=12 n=31 v=58
146932 Off ch=12 n=31 v=0
146944 On ch=12 n=33 v=65
147572 Off ch=12 n=33 v=0
147584 On ch=12 n=33 v=63
147700 Off ch=12 n=33 v=0
147712 On ch=12 n=33 v=67
147828 Off ch=12 n=33 v=0
147840 On ch=12 n=33 v=62
147956 Off ch=12 n=33 v=0
147968 On ch=12 n=33 v=59
148596 Off ch=12 n=33 v=0
148608 On ch=12 n=33 v=63
148724 Off ch=12 n=33 v=0
148736 On ch=12 n=33 v=58
148852 Off ch=12 n=33 v=0
148864 On ch=12 n=33 v=63
148980 Off ch=12 n=33 v=0
148992 On ch=12 n=34 v=61
149620 Off ch=12 n=34 v=0
149632 On ch=12 n=34 v=60
149748 Off ch=12 n=34 v=0
149760 On ch=12 n=34 v=59
149876 Off ch=12 n=34 v=0
149888 On ch=12 n=34 v=58
150004 Off ch=12 n=34 v=0
150016 On ch=12 n=34 v=63
150644 Off ch=12 n=34 v=0
150656 On ch=12 n=34 v=72
150772 Off ch=12 n=34 v=0
150784 On ch=12 n=34 v=87
150900 Off ch=12 n=34 v=0
150912 On ch=12 n=34 v=83
151028 Off ch=12 n=34 v=0
151040 On ch=12 n=36 v=102
151156 Off ch=12 n=36 v=0
151168 On ch=12 n=36 v=99
151284 Off ch=12 n=36 v=0
151296 On ch=12 n=36 v=102
151412 Off ch=12 n=36 v=0
151424 On ch=12 n=36 v=95
151540 Off ch=12 n=36 v=0
151552 On ch=12 n=36 v=100
151668 Off ch=12 n=36 v=0
151680 On ch=12 n=36 v=98
151796 Off ch=12 n=36 v=0
151808 On ch=12 n=36 v=99
151924 Off ch=12 n=36 v=0
151936 On ch=12 n=36 v=99
152052 Off ch=12 n=36 v=0
152064 On ch=12 n=36 v=101
152295 Off ch=12 n=36 v=0
152704 On ch=12 n=37 v=88
152820 Off ch=12 n=37 v=0
152832 On ch=12 n=37 v=100
152948 Off ch=12 n=37 v=0
152960 On ch=12 n=37 v=95
153076 Off ch=12 n=37 v=0
153088 On ch=12 n=37 v=95
153204 Off ch=12 n=37 v=0
153216 On ch=12 n=37 v=94
153332 Off ch=12 n=37 v=0
153344 On ch=12 n=37 v=96
153460 Off ch=12 n=37 v=0
153472 On ch=12 n=37 v=100
153588 Off ch=12 n=37 v=0
153600 On ch=12 n=37 v=95
153716 Off ch=12 n=37 v=0
153728 On ch=12 n=37 v=98
153844 Off ch=12 n=37 v=0
153856 On ch=12 n=37 v=102
153972 Off ch=12 n=37 v=0
153984 On ch=12 n=37 v=100
154100 Off ch=12 n=37 v=0
154112 On ch=12 n=37 v=98
154343 Off ch=12 n=37 v=0
154752 On ch=12 n=38 v=95
154868 Off ch=12 n=38 v=0
154880 On ch=12 n=38 v=100
154996 Off ch=12 n=38 v=0
155008 On ch=12 n=38 v=105
155124 Off ch=12 n=38 v=0
155136 On ch=12 n=38 v=107
155367 Off ch=12 n=38 v=0
155904 On ch=12 n=40 v=93
156020 Off ch=12 n=40 v=0
156032 On ch=12 n=40 v=104
156148 Off ch=12 n=40 v=0
156160 On ch=12 n=40 v=101
156391 Off ch=12 n=40 v=0
156416 On ch=12 n=42 v=112
156532 Off ch=12 n=42 v=0
156544 On ch=12 n=42 v=103
156660 Off ch=12 n=42 v=0
156672 On ch=12 n=42 v=107
156903 Off ch=12 n=42 v=0
158464 On ch=12 n=48 v=98
158951 Off ch=12 n=48 v=0
158976 On ch=12 n=45 v=101
159091 Off ch=12 n=45 v=0
159232 On ch=12 n=42 v=98
159347 Off ch=12 n=42 v=0
159488 On ch=12 n=38 v=99
159603 Off ch=12 n=38 v=0
159744 On ch=12 n=36 v=103
159859 Off ch=12 n=36 v=0
160000 On ch=12 n=33 v=102
160115 Off ch=12 n=33 v=0
160256 On ch=12 n=30 v=99
160371 Off ch=12 n=30 v=0
160512 On ch=12 n=34 v=104
160627 Off ch=12 n=34 v=0
160768 On ch=12 n=31 v=100
160999 Off ch=12 n=31 v=0
162560 On ch=12 n=53 v=92
163047 Off ch=12 n=53 v=0
163072 On ch=12 n=50 v=102
163187 Off ch=12 n=50 v=0
163328 On ch=12 n=47 v=107
163443 Off ch=12 n=47 v=0
163584 On ch=12 n=43 v=100
163699 Off ch=12 n=43 v=0
163840 On ch=12 n=41 v=97
163955 Off ch=12 n=41 v=0
164096 On ch=12 n=38 v=104
164211 Off ch=12 n=38 v=0
164352 On ch=12 n=35 v=98
164467 Off ch=12 n=35 v=0
164608 On ch=12 n=31 v=98
164723 Off ch=12 n=31 v=0
164864 On ch=12 n=36 v=114
165095 Off ch=12 n=36 v=0
166400 On ch=12 n=31 v=91
166912 On ch=12 n=32 v=93
166922 Off ch=12 n=31 v=0
167398 Off ch=12 n=32 v=0
168448 On ch=12 n=31 v=104
168960 On ch=12 n=32 v=105
168970 Off ch=12 n=31 v=0
169446 Off ch=12 n=32 v=0
170496 On ch=12 n=34 v=109
171008 On ch=12 n=36 v=110
171018 Off ch=12 n=34 v=0
171494 Off ch=12 n=36 v=0
172544 On ch=12 n=37 v=104
173005 Off ch=12 n=37 v=0
173568 On ch=12 n=39 v=89
174029 Off ch=12 n=39 v=0
174592 On ch=12 n=41 v=68
175053 Off ch=12 n=41 v=0
175616 On ch=12 n=30 v=54
176077 Off ch=12 n=30 v=0
176640 On ch=12 n=30 v=55
177101 Off ch=12 n=30 v=0
177664 On ch=12 n=30 v=56
178125 Off ch=12 n=30 v=0
178688 On ch=12 n=30 v=51
179149 Off ch=12 n=30 v=0
179712 On ch=12 n=30 v=57
180173 Off ch=12 n=30 v=0
180736 On ch=12 n=30 v=56
181197 Off ch=12 n=30 v=0
181760 On ch=12 n=30 v=107
181876 Off ch=12 n=30 v=0
181888 On ch=12 n=38 v=121
182004 Off ch=12 n=38 v=0
182016 On ch=12 n=38 v=116
182132 Off ch=12 n=38 v=0
182144 On ch=12 n=38 v=116
182260 Off ch=12 n=38 v=0
182272 On ch=12 n=35 v=107
182733 Off ch=12 n=35 v=0
182784 On ch=12 n=36 v=119
183245 Off ch=12 n=36 v=0
183296 On ch=12 n=33 v=108
184269 Off ch=12 n=33 v=0
184832 On ch=12 n=35 v=49
185293 Off ch=12 n=35 v=0
185856 On ch=12 n=35 v=54
186317 Off ch=12 n=35 v=0
186880 On ch=12 n=35 v=49
187341 Off ch=12 n=35 v=0
187904 On ch=12 n=35 v=101
188020 Off ch=12 n=35 v=0
188032 On ch=12 n=44 v=124
188148 Off ch=12 n=44 v=0
188160 On ch=12 n=44 v=115
188276 Off ch=12 n=44 v=0
188288 On ch=12 n=44 v=111
188404 Off ch=12 n=44 v=0
188416 On ch=12 n=41 v=110
189044 Off ch=12 n=41 v=0
189056 On ch=12 n=44 v=114
189172 Off ch=12 n=44 v=0
189184 On ch=12 n=44 v=109
189300 Off ch=12 n=44 v=0
189312 On ch=12 n=44 v=111
189428 Off ch=12 n=44 v=0
189440 On ch=12 n=41 v=104
190068 Off ch=12 n=41 v=0
190080 On ch=12 n=44 v=121
190196 Off ch=12 n=44 v=0
190208 On ch=12 n=44 v=114
190324 Off ch=12 n=44 v=0
190336 On ch=12 n=44 v=114
190452 Off ch=12 n=44 v=0
190464 On ch=12 n=41 v=108
190580 Off ch=12 n=41 v=0
190592 On ch=12 n=44 v=116
190708 Off ch=12 n=44 v=0
190720 On ch=12 n=44 v=117
190836 Off ch=12 n=44 v=0
190848 On ch=12 n=44 v=113
190964 Off ch=12 n=44 v=0
190976 On ch=12 n=41 v=116
191092 Off ch=12 n=41 v=0
191104 On ch=12 n=44 v=120
191220 Off ch=12 n=44 v=0
191232 On ch=12 n=44 v=113
191348 Off ch=12 n=44 v=0
191360 On ch=12 n=44 v=110
191476 Off ch=12 n=44 v=0
191488 On ch=12 n=41 v=107
191604 Off ch=12 n=41 v=0
191616 On ch=12 n=44 v=117
191732 Off ch=12 n=44 v=0
191744 On ch=12 n=44 v=112
191860 Off ch=12 n=44 v=0
191872 On ch=12 n=44 v=112
191988 Off ch=12 n=44 v=0
192000 On ch=12 n=41 v=110
192116 Off ch=12 n=41 v=0
192128 On ch=12 n=43 v=117
192244 Off ch=12 n=43 v=0
192256 On ch=12 n=43 v=114
192372 Off ch=12 n=43 v=0
192384 On ch=12 n=43 v=110
192500 Off ch=12 n=43 v=0
192512 On ch=12 n=39 v=112
193280 Off ch=12 n=39 v=0
193408 On ch=12 n=41 v=104
193524 Off ch=12 n=41 v=0
193536 On ch=12 n=41 v=112
193652 Off ch=12 n=41 v=0
193664 On ch=12 n=41 v=111
193780 Off ch=12 n=41 v=0
193792 On ch=12 n=38 v=110
195072 Off ch=12 n=38 v=0
195584 PrCh ch=12 p=45
195584 Par ch=12 c=7 v=63
195584 Par ch=12 c=10 v=119
195584 On ch=12 n=36 v=58
195815 Off ch=12 n=36 v=0
196608 On ch=12 n=36 v=58
196839 Off ch=12 n=36 v=0
197632 On ch=12 n=35 v=59
197863 Off ch=12 n=35 v=0
198656 On ch=12 n=35 v=56
198887 Off ch=12 n=35 v=0
199680 On ch=12 n=36 v=57
199911 Off ch=12 n=36 v=0
200192 On ch=12 n=35 v=56
200423 Off ch=12 n=35 v=0
200704 On ch=12 n=36 v=52
200935 Off ch=12 n=36 v=0
201216 On ch=12 n=31 v=56
201447 Off ch=12 n=31 v=0
201728 On ch=12 n=36 v=61
201959 Off ch=12 n=36 v=0
202240 On ch=12 n=32 v=64
202471 Off ch=12 n=32 v=0
202752 PrCh ch=12 p=48
202752 Par ch=12 c=7 v=63
202752 Par ch=12 c=10 v=119
202752 On ch=12 n=31 v=58
202983 Off ch=12 n=31 v=0
207232 On ch=12 n=31 v=55
207348 Off ch=12 n=31 v=0
207360 On ch=12 n=31 v=54
207476 Off ch=12 n=31 v=0
207488 On ch=12 n=31 v=63
207604 Off ch=12 n=31 v=0
207616 On ch=12 n=36 v=63
207732 Off ch=12 n=36 v=0
207744 On ch=12 n=44 v=67
207860 Off ch=12 n=44 v=0
207872 On ch=12 n=44 v=60
207988 Off ch=12 n=44 v=0
208000 On ch=12 n=44 v=60
208116 Off ch=12 n=44 v=0
208128 On ch=12 n=41 v=69
208244 Off ch=12 n=41 v=0
208256 On ch=12 n=38 v=67
208372 Off ch=12 n=38 v=0
208384 On ch=12 n=38 v=73
208500 Off ch=12 n=38 v=0
208512 On ch=12 n=38 v=68
208628 Off ch=12 n=38 v=0
208640 On ch=12 n=35 v=67
208756 Off ch=12 n=35 v=0
208768 On ch=12 n=32 v=70
208884 Off ch=12 n=32 v=0
208896 On ch=12 n=32 v=71
209012 Off ch=12 n=32 v=0
209024 On ch=12 n=32 v=73
209140 Off ch=12 n=32 v=0
209152 On ch=12 n=31 v=68
209268 Off ch=12 n=31 v=0
209280 On ch=12 n=43 v=96
209396 Off ch=12 n=43 v=0
209408 On ch=12 n=43 v=82
209524 Off ch=12 n=43 v=0
209536 On ch=12 n=43 v=79
209652 Off ch=12 n=43 v=0
209664 On ch=12 n=36 v=91
209780 Off ch=12 n=36 v=0
209792 On ch=12 n=36 v=95
209908 Off ch=12 n=36 v=0
209920 On ch=12 n=36 v=100
210036 Off ch=12 n=36 v=0
210048 On ch=12 n=36 v=97
210164 Off ch=12 n=36 v=0
210176 On ch=12 n=36 v=96
210637 Off ch=12 n=36 v=0
210688 On ch=12 n=36 v=96
210804 Off ch=12 n=36 v=0
210816 On ch=12 n=36 v=94
210932 Off ch=12 n=36 v=0
210944 On ch=12 n=36 v=97
211060 Off ch=12 n=36 v=0
211072 On ch=12 n=36 v=100
211188 Off ch=12 n=36 v=0
211200 On ch=12 n=36 v=96
211661 Off ch=12 n=36 v=0
211712 On ch=12 n=36 v=95
211828 Off ch=12 n=36 v=0
211840 On ch=12 n=36 v=98
211956 Off ch=12 n=36 v=0
211968 On ch=12 n=36 v=96
212084 Off ch=12 n=36 v=0
212096 On ch=12 n=36 v=101
212212 Off ch=12 n=36 v=0
212224 On ch=12 n=36 v=113
212455 Off ch=12 n=36 v=0
212736 On ch=12 n=36 v=101
212967 Off ch=12 n=36 v=0
213248 On ch=12 n=36 v=97
213479 Off ch=12 n=36 v=0
213760 On ch=12 n=36 v=103
213991 Off ch=12 n=36 v=0
214272 On ch=12 n=36 v=101
214503 Off ch=12 n=36 v=0
214784 On ch=12 n=36 v=102
215015 Off ch=12 n=36 v=0
215296 On ch=12 n=36 v=89
216948 Off ch=12 n=36 v=0
216960 On ch=12 n=36 v=98
217076 Off ch=12 n=36 v=0
217088 On ch=12 n=36 v=97
217204 Off ch=12 n=36 v=0
217216 On ch=12 n=36 v=98
217332 Off ch=12 n=36 v=0
217344 On ch=12 n=31 v=86
218996 Off ch=12 n=31 v=0
219008 On ch=12 n=31 v=102
219124 Off ch=12 n=31 v=0
219136 On ch=12 n=36 v=102
219252 Off ch=12 n=36 v=0
219264 On ch=12 n=36 v=103
219380 Off ch=12 n=36 v=0
219392 On ch=12 n=36 v=112
219508 Off ch=12 n=36 v=0
219520 On ch=12 n=51 v=126
219636 Off ch=12 n=51 v=0
219648 On ch=12 n=51 v=115
219764 Off ch=12 n=51 v=0
219776 On ch=12 n=51 v=115
219892 Off ch=12 n=51 v=0
219904 On ch=12 n=48 v=109
220020 Off ch=12 n=48 v=0
220032 On ch=12 n=45 v=109
220148 Off ch=12 n=45 v=0
220160 On ch=12 n=45 v=110
220276 Off ch=12 n=45 v=0
220288 On ch=12 n=45 v=110
220404 Off ch=12 n=45 v=0
220416 On ch=12 n=42 v=108
220532 Off ch=12 n=42 v=0
220544 On ch=12 n=39 v=108
220660 Off ch=12 n=39 v=0
220672 On ch=12 n=39 v=115
220788 Off ch=12 n=39 v=0
220800 On ch=12 n=39 v=112
220916 Off ch=12 n=39 v=0
220928 On ch=12 n=36 v=105
221044 Off ch=12 n=36 v=0
221056 On ch=12 n=33 v=109
221172 Off ch=12 n=33 v=0
221184 On ch=12 n=33 v=109
221300 Off ch=12 n=33 v=0
221312 On ch=12 n=33 v=115
221428 Off ch=12 n=33 v=0
221440 On ch=12 n=36 v=116
221671 Off ch=12 n=36 v=0
222464 On ch=12 n=35 v=100
222695 Off ch=12 n=35 v=0
226176 On ch=12 n=31 v=56
226292 Off ch=12 n=31 v=0
226304 On ch=12 n=31 v=59
226420 Off ch=12 n=31 v=0
226432 On ch=12 n=31 v=57
226548 Off ch=12 n=31 v=0
226560 On ch=12 n=36 v=65
226791 Off ch=12 n=36 v=0
230272 On ch=12 n=31 v=55
230388 Off ch=12 n=31 v=0
230400 On ch=12 n=31 v=62
230516 Off ch=12 n=31 v=0
230528 On ch=12 n=31 v=65
230644 Off ch=12 n=31 v=0
230656 On ch=12 n=36 v=66
230887 Off ch=12 n=36 v=0
234368 On ch=12 n=36 v=52
234484 Off ch=12 n=36 v=0
234496 On ch=12 n=36 v=60
234612 Off ch=12 n=36 v=0
234624 On ch=12 n=36 v=58
234740 Off ch=12 n=36 v=0
234752 On ch=12 n=41 v=62
234983 Off ch=12 n=41 v=0
236416 On ch=12 n=38 v=49
236532 Off ch=12 n=38 v=0
236544 On ch=12 n=38 v=61
236660 Off ch=12 n=38 v=0
236672 On ch=12 n=38 v=61
236788 Off ch=12 n=38 v=0
236800 On ch=12 n=43 v=64
237031 Off ch=12 n=43 v=0
237952 On ch=12 n=44 v=51
238068 Off ch=12 n=44 v=0
238080 On ch=12 n=44 v=59
238196 Off ch=12 n=44 v=0
238208 On ch=12 n=44 v=61
238324 Off ch=12 n=44 v=0
238336 On ch=12 n=44 v=60
238567 Off ch=12 n=44 v=0
238976 On ch=12 n=47 v=58
239092 Off ch=12 n=47 v=0
239104 On ch=12 n=47 v=62
239220 Off ch=12 n=47 v=0
239232 On ch=12 n=47 v=65
239348 Off ch=12 n=47 v=0
239360 On ch=12 n=47 v=70
239591 Off ch=12 n=47 v=0
240000 On ch=12 n=50 v=64
240116 Off ch=12 n=50 v=0
240128 On ch=12 n=50 v=71
240244 Off ch=12 n=50 v=0
240256 On ch=12 n=50 v=68
240372 Off ch=12 n=50 v=0
240384 On ch=12 n=50 v=71
240615 Off ch=12 n=50 v=0
241024 On ch=12 n=50 v=67
241140 Off ch=12 n=50 v=0
241152 On ch=12 n=50 v=72
241268 Off ch=12 n=50 v=0
241280 On ch=12 n=50 v=86
241396 Off ch=12 n=50 v=0
241408 On ch=12 n=50 v=82
241639 Off ch=12 n=50 v=0
242048 On ch=12 n=50 v=73
242164 Off ch=12 n=50 v=0
242176 On ch=12 n=50 v=79
242292 Off ch=12 n=50 v=0
242304 On ch=12 n=50 v=88
242420 Off ch=12 n=50 v=0
242432 On ch=12 n=50 v=82
242663 Off ch=12 n=50 v=0
243200 On ch=12 n=50 v=77
243431 Off ch=12 n=50 v=0
243712 On ch=12 n=50 v=85
243943 Off ch=12 n=50 v=0
244224 On ch=12 n=50 v=83
244455 Off ch=12 n=50 v=0
244736 On ch=12 n=50 v=87
244967 Off ch=12 n=50 v=0
244992 On ch=12 n=50 v=110
245735 Off ch=12 n=50 v=0
245760 On ch=12 n=47 v=108
245991 Off ch=12 n=47 v=0
246016 On ch=12 n=48 v=116
246247 Off ch=12 n=48 v=0
246528 On ch=12 n=50 v=104
246759 Off ch=12 n=50 v=0
247040 On ch=12 n=52 v=105
247271 Off ch=12 n=52 v=0
247552 On ch=12 n=53 v=103
247783 Off ch=12 n=53 v=0
248064 On ch=12 n=55 v=99
248295 Off ch=12 n=55 v=0
248576 On ch=12 n=43 v=102
248807 Off ch=12 n=43 v=0
249088 On ch=12 n=35 v=98
249319 Off ch=12 n=35 v=0
249344 On ch=12 n=38 v=115
249575 Off ch=12 n=38 v=0
249600 On ch=12 n=35 v=109
249831 Off ch=12 n=35 v=0
249856 On ch=12 n=38 v=117
250087 Off ch=12 n=38 v=0
250112 On ch=12 n=36 v=109
250343 Off ch=12 n=36 v=0
250368 On ch=12 n=40 v=123
250599 Off ch=12 n=40 v=0
250624 On ch=12 n=38 v=112
250855 Off ch=12 n=38 v=0
250880 On ch=12 n=41 v=118
251111 Off ch=12 n=41 v=0
251136 On ch=12 n=40 v=111
251367 Off ch=12 n=40 v=0
251392 On ch=12 n=43 v=118
251623 Off ch=12 n=43 v=0
251648 On ch=12 n=41 v=112
251879 Off ch=12 n=41 v=0
251904 On ch=12 n=45 v=120
252135 Off ch=12 n=45 v=0
252160 On ch=12 n=43 v=113
252391 Off ch=12 n=43 v=0
252416 On ch=12 n=31 v=94
252647 Off ch=12 n=31 v=0
252672 On ch=12 n=43 v=121
252903 Off ch=12 n=43 v=0
252928 On ch=12 n=31 v=99
253159 Off ch=12 n=31 v=0
253184 On ch=12 n=36 v=116
254836 Off ch=12 n=36 v=0
254848 On ch=12 n=31 v=108
254964 Off ch=12 n=31 v=0
254976 On ch=12 n=31 v=111
255092 Off ch=12 n=31 v=0
255104 On ch=12 n=31 v=117
255220 Off ch=12 n=31 v=0
255232 On ch=12 n=36 v=120
256884 Off ch=12 n=36 v=0
256896 On ch=12 n=31 v=104
257012 Off ch=12 n=31 v=0
257024 On ch=12 n=31 v=110
257140 Off ch=12 n=31 v=0
257152 On ch=12 n=31 v=121
257268 Off ch=12 n=31 v=0
257280 On ch=12 n=36 v=122
257511 Off ch=12 n=36 v=0
257920 On ch=12 n=31 v=102
258036 Off ch=12 n=31 v=0
258048 On ch=12 n=31 v=113
258164 Off ch=12 n=31 v=0
258176 On ch=12 n=31 v=115
258292 Off ch=12 n=31 v=0
258304 On ch=12 n=36 v=122
258535 Off ch=12 n=36 v=0
258944 On ch=12 n=31 v=100
259060 Off ch=12 n=31 v=0
259072 On ch=12 n=31 v=113
259188 Off ch=12 n=31 v=0
259200 On ch=12 n=31 v=110
259316 Off ch=12 n=31 v=0
259328 On ch=12 n=36 v=127
259956 Off ch=12 n=36 v=0
259968 On ch=12 n=36 v=112
260084 Off ch=12 n=36 v=0
260096 On ch=12 n=36 v=111
260212 Off ch=12 n=36 v=0
260224 On ch=12 n=36 v=114
260340 Off ch=12 n=36 v=0
260352 On ch=12 n=32 v=120
260980 Off ch=12 n=32 v=0
260992 On ch=12 n=32 v=112
261108 Off ch=12 n=32 v=0
261120 On ch=12 n=32 v=111
261236 Off ch=12 n=32 v=0
261248 On ch=12 n=32 v=114
261364 Off ch=12 n=32 v=0
261376 On ch=12 n=40 v=127
262004 Off ch=12 n=40 v=0
262016 On ch=12 n=40 v=115
262132 Off ch=12 n=40 v=0
262144 On ch=12 n=40 v=109
262260 Off ch=12 n=40 v=0
262272 On ch=12 n=40 v=113
262388 Off ch=12 n=40 v=0
262400 On ch=12 n=41 v=127
263028 Off ch=12 n=41 v=0
263040 On ch=12 n=41 v=114
263156 Off ch=12 n=41 v=0
263168 On ch=12 n=41 v=116
263284 Off ch=12 n=41 v=0
263296 On ch=12 n=41 v=111
263412 Off ch=12 n=41 v=0
263424 On ch=12 n=29 v=103
263540 Off ch=12 n=29 v=0
263552 On ch=12 n=41 v=126
263668 Off ch=12 n=41 v=0
263680 On ch=12 n=41 v=113
263796 Off ch=12 n=41 v=0
263808 On ch=12 n=41 v=113
263924 Off ch=12 n=41 v=0
263936 On ch=12 n=41 v=109
264052 Off ch=12 n=41 v=0
264064 On ch=12 n=41 v=115
264180 Off ch=12 n=41 v=0
264192 On ch=12 n=41 v=116
264308 Off ch=12 n=41 v=0
264320 On ch=12 n=41 v=113
264436 Off ch=12 n=41 v=0
264448 On ch=12 n=41 v=111
264564 Off ch=12 n=41 v=0
264576 On ch=12 n=41 v=113
264692 Off ch=12 n=41 v=0
264704 On ch=12 n=41 v=111
264820 Off ch=12 n=41 v=0
264832 On ch=12 n=41 v=116
264948 Off ch=12 n=41 v=0
264960 On ch=12 n=41 v=115
265076 Off ch=12 n=41 v=0
265088 On ch=12 n=41 v=114
265204 Off ch=12 n=41 v=0
265216 On ch=12 n=41 v=110
265332 Off ch=12 n=41 v=0
265344 On ch=12 n=41 v=112
265460 Off ch=12 n=41 v=0
265472 On ch=12 n=41 v=114
265703 Off ch=12 n=41 v=0
267648 On ch=12 n=30 v=105
267764 Off ch=12 n=30 v=0
267776 On ch=12 n=30 v=112
267892 Off ch=12 n=30 v=0
267904 On ch=12 n=30 v=112
268020 Off ch=12 n=30 v=0
268032 On ch=12 n=30 v=109
268148 Off ch=12 n=30 v=0
268160 On ch=12 n=42 v=127
268276 Off ch=12 n=42 v=0
268288 On ch=12 n=42 v=115
268404 Off ch=12 n=42 v=0
268416 On ch=12 n=42 v=114
268532 Off ch=12 n=42 v=0
268544 On ch=12 n=42 v=114
268660 Off ch=12 n=42 v=0
268672 On ch=12 n=42 v=113
268788 Off ch=12 n=42 v=0
268800 On ch=12 n=42 v=116
268916 Off ch=12 n=42 v=0
268928 On ch=12 n=42 v=113
269044 Off ch=12 n=42 v=0
269056 On ch=12 n=42 v=113
269172 Off ch=12 n=42 v=0
269184 On ch=12 n=42 v=116
269300 Off ch=12 n=42 v=0
269312 On ch=12 n=42 v=108
269428 Off ch=12 n=42 v=0
269440 On ch=12 n=42 v=111
269556 Off ch=12 n=42 v=0
269568 On ch=12 n=42 v=117
269684 Off ch=12 n=42 v=0
269696 On ch=12 n=42 v=115
269812 Off ch=12 n=42 v=0
269824 On ch=12 n=42 v=111
269940 Off ch=12 n=42 v=0
269952 On ch=12 n=42 v=108
270068 Off ch=12 n=42 v=0
270080 On ch=12 n=42 v=109
270311 Off ch=12 n=42 v=0
272128 On ch=12 n=31 v=88
272359 Off ch=12 n=31 v=0
274176 On ch=12 n=31 v=89
274407 Off ch=12 n=31 v=0
278272 On ch=12 n=44 v=90
278503 Off ch=12 n=44 v=0
278528 On ch=12 n=46 v=102
278759 Off ch=12 n=46 v=0
278784 On ch=12 n=43 v=94
279015 Off ch=12 n=43 v=0
279040 On ch=12 n=44 v=101
279271 Off ch=12 n=44 v=0
279296 On ch=12 n=41 v=92
279527 Off ch=12 n=41 v=0
279552 On ch=12 n=43 v=100
279783 Off ch=12 n=43 v=0
279808 On ch=12 n=39 v=92
280039 Off ch=12 n=39 v=0
280064 On ch=12 n=41 v=101
280295 Off ch=12 n=41 v=0
280320 On ch=12 n=38 v=93
280551 Off ch=12 n=38 v=0
280576 On ch=12 n=36 v=92
280807 Off ch=12 n=36 v=0
280832 On ch=12 n=35 v=96
281063 Off ch=12 n=35 v=0
281088 On ch=12 n=36 v=101
281319 Off ch=12 n=36 v=0
281344 On ch=12 n=38 v=101
281575 Off ch=12 n=38 v=0
281600 On ch=12 n=36 v=97
281831 Off ch=12 n=36 v=0
281856 On ch=12 n=38 v=103
282087 Off ch=12 n=38 v=0
282112 On ch=12 n=40 v=102
282343 Off ch=12 n=40 v=0
282368 On ch=12 n=41 v=97
282599 Off ch=12 n=41 v=0
282624 On ch=12 n=40 v=95
282855 Off ch=12 n=40 v=0
282880 On ch=12 n=41 v=101
283111 Off ch=12 n=41 v=0
283136 On ch=12 n=43 v=103
283367 Off ch=12 n=43 v=0
283392 On ch=12 n=44 v=101
283623 Off ch=12 n=44 v=0
283648 On ch=12 n=43 v=92
283879 Off ch=12 n=43 v=0
283904 On ch=12 n=45 v=100
284135 Off ch=12 n=45 v=0
284160 On ch=12 n=47 v=104
284391 Off ch=12 n=47 v=0
284416 On ch=12 n=48 v=101
285389 Off ch=12 n=48 v=0
285440 On ch=12 n=44 v=94
286413 Off ch=12 n=44 v=0
286464 On ch=12 n=39 v=90
287437 Off ch=12 n=39 v=0
287488 On ch=12 n=41 v=99
287949 Off ch=12 n=41 v=0
288000 On ch=12 n=39 v=92
288461 Off ch=12 n=39 v=0
288512 On ch=12 n=38 v=91
288973 Off ch=12 n=38 v=0
289024 On ch=12 n=41 v=104
289485 Off ch=12 n=41 v=0
289536 On ch=12 n=39 v=92
289651 Off ch=12 n=39 v=0
290048 On ch=12 n=36 v=86
290163 Off ch=12 n=36 v=0
290560 On ch=12 n=41 v=88
290675 Off ch=12 n=41 v=0
291072 On ch=12 n=38 v=84
291187 Off ch=12 n=38 v=0
291584 On ch=12 n=43 v=88
291699 Off ch=12 n=43 v=0
292096 On ch=12 n=31 v=88
292211 Off ch=12 n=31 v=0
292608 On ch=12 n=36 v=87
292723 Off ch=12 n=36 v=0
294144 On ch=12 n=39 v=92
294259 Off ch=12 n=39 v=0
294400 On ch=12 n=41 v=97
294515 Off ch=12 n=41 v=0
294656 On ch=12 n=43 v=100
294912 On ch=12 n=39 v=96
294917 Off ch=12 n=43 v=0
295155 Off ch=12 n=39 v=0
296192 On ch=12 n=31 v=90
296307 Off ch=12 n=31 v=0
296448 On ch=12 n=33 v=99
296563 Off ch=12 n=33 v=0
296704 On ch=12 n=35 v=99
296960 On ch=12 n=31 v=91
296965 Off ch=12 n=35 v=0
297203 Off ch=12 n=31 v=0
298240 On ch=12 n=31 v=95
298355 Off ch=12 n=31 v=0
298496 On ch=12 n=33 v=101
298611 Off ch=12 n=33 v=0
298752 On ch=12 n=35 v=108
299008 On ch=12 n=31 v=100
299013 Off ch=12 n=35 v=0
299251 Off ch=12 n=31 v=0
301312 On ch=12 n=41 v=125
301568 On ch=12 n=36 v=117
301573 Off ch=12 n=41 v=0
301811 Off ch=12 n=36 v=0
302336 On ch=12 n=41 v=103
302592 On ch=12 n=36 v=93
302597 Off ch=12 n=41 v=0
302835 Off ch=12 n=36 v=0
302848 On ch=12 n=43 v=106
303079 Off ch=12 n=43 v=0
303360 On ch=12 n=31 v=87
303591 Off ch=12 n=31 v=0
303872 On ch=12 n=48 v=86
304128 On ch=12 n=43 v=80
304133 Off ch=12 n=48 v=0
304384 On ch=12 n=44 v=102
304389 Off ch=12 n=43 v=0
304640 On ch=12 n=39 v=97
304645 Off ch=12 n=44 v=0
304896 On ch=12 n=41 v=103
304901 Off ch=12 n=39 v=0
305152 On ch=12 n=36 v=98
305157 Off ch=12 n=41 v=0
305395 Off ch=12 n=36 v=0
305920 On ch=12 n=41 v=105
306176 On ch=12 n=36 v=102
306181 Off ch=12 n=41 v=0
306419 Off ch=12 n=36 v=0
306432 On ch=12 n=41 v=109
306688 On ch=12 n=36 v=102
306693 Off ch=12 n=41 v=0
306931 Off ch=12 n=36 v=0
306944 On ch=12 n=43 v=107
307175 Off ch=12 n=43 v=0
307456 On ch=12 n=31 v=88
307687 Off ch=12 n=31 v=0
307968 On ch=12 n=36 v=86
308199 Off ch=12 n=36 v=0
310656 On ch=12 n=31 v=89
310772 Off ch=12 n=31 v=0
310784 On ch=12 n=31 v=98
310900 Off ch=12 n=31 v=0
310912 On ch=12 n=31 v=96
311028 Off ch=12 n=31 v=0
311040 On ch=12 n=36 v=103
311156 Off ch=12 n=36 v=0
311168 On ch=12 n=31 v=94
311284 Off ch=12 n=31 v=0
311296 On ch=12 n=31 v=99
311412 Off ch=12 n=31 v=0
311424 On ch=12 n=31 v=97
311540 Off ch=12 n=31 v=0
311552 On ch=12 n=31 v=100
311668 Off ch=12 n=31 v=0
311680 On ch=12 n=31 v=96
311796 Off ch=12 n=31 v=0
311808 On ch=12 n=31 v=101
311924 Off ch=12 n=31 v=0
311936 On ch=12 n=31 v=95
312052 Off ch=12 n=31 v=0
312064 On ch=12 n=31 v=94
312180 Off ch=12 n=31 v=0
312192 On ch=12 n=31 v=99
312308 Off ch=12 n=31 v=0
312320 On ch=12 n=31 v=98
312436 Off ch=12 n=31 v=0
312448 On ch=12 n=31 v=98
312564 Off ch=12 n=31 v=0
312576 On ch=12 n=31 v=96
312692 Off ch=12 n=31 v=0
312704 On ch=12 n=31 v=101
312820 Off ch=12 n=31 v=0
312832 On ch=12 n=31 v=100
312948 Off ch=12 n=31 v=0
312960 On ch=12 n=31 v=100
313076 Off ch=12 n=31 v=0
313088 On ch=12 n=27 v=104
313856 Off ch=12 n=27 v=0
313984 On ch=12 n=29 v=107
314100 Off ch=12 n=29 v=0
314112 On ch=12 n=29 v=110
314228 Off ch=12 n=29 v=0
314240 On ch=12 n=29 v=112
314356 Off ch=12 n=29 v=0
314368 On ch=12 n=26 v=105
315648 Off ch=12 n=26 v=0
319872 On ch=12 n=31 v=104
319988 Off ch=12 n=31 v=0
320000 On ch=12 n=31 v=110
320116 Off ch=12 n=31 v=0
320128 On ch=12 n=31 v=113
320244 Off ch=12 n=31 v=0
320256 On ch=12 n=36 v=119
320487 Off ch=12 n=36 v=0
320896 On ch=12 n=31 v=99
321012 Off ch=12 n=31 v=0
321024 On ch=12 n=31 v=117
321140 Off ch=12 n=31 v=0
321152 On ch=12 n=31 v=113
321268 Off ch=12 n=31 v=0
321280 On ch=12 n=36 v=122
321511 Off ch=12 n=36 v=0
321920 On ch=12 n=31 v=101
322036 Off ch=12 n=31 v=0
322048 On ch=12 n=31 v=106
322164 Off ch=12 n=31 v=0
322176 On ch=12 n=31 v=113
322292 Off ch=12 n=31 v=0
322304 On ch=12 n=36 v=123
322535 Off ch=12 n=36 v=0
322560 On ch=12 n=31 v=108
322791 Off ch=12 n=31 v=0
322816 On ch=12 n=36 v=116
323047 Off ch=12 n=36 v=0
323072 On ch=12 n=31 v=106
323303 Off ch=12 n=31 v=0
323328 On ch=12 n=36 v=121
323559 Off ch=12 n=36 v=0
323584 On ch=12 n=43 v=126
323815 Off ch=12 n=43 v=0
323840 On ch=12 n=48 v=122
324071 Off ch=12 n=48 v=0
324096 On ch=12 n=43 v=104
324327 Off ch=12 n=43 v=0
324352 On ch=12 n=48 v=124
324583 Off ch=12 n=48 v=0
324864 On ch=12 n=31 v=103
325095 Off ch=12 n=31 v=0
325376 On ch=12 n=36 v=102
325607 Off ch=12 n=36 v=0
