64 On ch=1 n=75 v=33
65 Off ch=1 n=76 v=0
128 On ch=1 n=76 v=45
129 Off ch=1 n=75 v=0
192 On ch=1 n=75 v=43
193 Off ch=1 n=76 v=0
256 On ch=1 n=76 v=50
257 Off ch=1 n=75 v=0
320 On ch=1 n=71 v=39
321 Off ch=1 n=76 v=0
384 On ch=1 n=74 v=46
385 Off ch=1 n=71 v=0
448 On ch=1 n=72 v=44
449 Off ch=1 n=74 v=0
512 On ch=1 n=69 v=39
512 Par ch=1 c=64 v=127
512 On ch=1 n=45 v=39
513 Off ch=1 n=72 v=0
576 On ch=1 n=52 v=39
577 Off ch=1 n=45 v=0
633 Off ch=1 n=69 v=0
640 On ch=1 n=57 v=47
641 Off ch=1 n=52 v=0
700 Off ch=1 n=57 v=0
704 On ch=1 n=60 v=45
768 On ch=1 n=64 v=51
768 Par ch=1 c=64 v=0
769 Off ch=1 n=60 v=0
832 On ch=1 n=69 v=46
833 Off ch=1 n=64 v=0
896 On ch=1 n=71 v=54
896 Par ch=1 c=64 v=127
896 On ch=1 n=40 v=40
897 Off ch=1 n=69 v=0
960 On ch=1 n=52 v=43
961 Off ch=1 n=40 v=0
1017 Off ch=1 n=71 v=0
1024 On ch=1 n=56 v=48
1025 Off ch=1 n=52 v=0
1084 Off ch=1 n=56 v=0
1088 On ch=1 n=64 v=36
1152 On ch=1 n=68 v=42
1152 Par ch=1 c=64 v=0
1153 Off ch=1 n=64 v=0
1216 On ch=1 n=71 v=43
1217 Off ch=1 n=68 v=0
1280 On ch=1 n=72 v=46
1280 Par ch=1 c=64 v=127
1280 On ch=1 n=45 v=41
1281 Off ch=1 n=71 v=0
1344 On ch=1 n=52 v=42
1345 Off ch=1 n=45 v=0
1401 Off ch=1 n=72 v=0
1408 On ch=1 n=57 v=45
1409 Off ch=1 n=52 v=0
1468 Off ch=1 n=57 v=0
1472 On ch=1 n=64 v=35
1536 On ch=1 n=76 v=40
1536 Par ch=1 c=64 v=0
1537 Off ch=1 n=64 v=0
1600 On ch=1 n=75 v=38
1601 Off ch=1 n=76 v=0
1664 On ch=1 n=76 v=38
1665 Off ch=1 n=75 v=0
1728 On ch=1 n=75 v=40
1729 Off ch=1 n=76 v=0
1792 On ch=1 n=76 v=43
1793 Off ch=1 n=75 v=0
1856 On ch=1 n=71 v=42
1857 Off ch=1 n=76 v=0
1920 On ch=1 n=74 v=45
1921 Off ch=1 n=71 v=0
1984 On ch=1 n=72 v=39
1985 Off ch=1 n=74 v=0
2048 On ch=1 n=69 v=38
2048 Par ch=1 c=64 v=127
2048 On ch=1 n=45 v=39
2049 Off ch=1 n=72 v=0
2112 On ch=1 n=52 v=42
2113 Off ch=1 n=45 v=0
2169 Off ch=1 n=69 v=0
2176 On ch=1 n=57 v=52
2177 Off ch=1 n=52 v=0
2236 Off ch=1 n=57 v=0
2240 On ch=1 n=60 v=36
2304 On ch=1 n=64 v=40
2304 Par ch=1 c=64 v=0
2305 Off ch=1 n=60 v=0
2368 On ch=1 n=69 v=51
2369 Off ch=1 n=64 v=0
2432 On ch=1 n=71 v=61
2432 Par ch=1 c=64 v=127
2432 On ch=1 n=40 v=38
2433 Off ch=1 n=69 v=0
2496 On ch=1 n=52 v=43
2497 Off ch=1 n=40 v=0
2553 Off ch=1 n=71 v=0
2560 On ch=1 n=56 v=46
2561 Off ch=1 n=52 v=0
2620 Off ch=1 n=56 v=0
2624 On ch=1 n=62 v=44
2688 On ch=1 n=72 v=57
2688 Par ch=1 c=64 v=0
2689 Off ch=1 n=62 v=0
2752 On ch=1 n=71 v=43
2753 Off ch=1 n=72 v=0
2816 On ch=1 n=69 v=42
2816 Par ch=1 c=64 v=127
2816 On ch=1 n=45 v=39
2817 Off ch=1 n=71 v=0
2880 On ch=1 n=52 v=41
2881 Off ch=1 n=45 v=0
2944 On ch=1 n=57 v=51
2945 Off ch=1 n=52 v=0
3004 Off ch=1 n=57 v=0
3008 Par ch=1 c=64 v=0
3059 Off ch=1 n=69 v=0
3072 On ch=1 n=76 v=44
3136 On ch=1 n=75 v=43
3137 Off ch=1 n=76 v=0
3200 On ch=1 n=76 v=50
3201 Off ch=1 n=75 v=0
3264 On ch=1 n=75 v=50
3265 Off ch=1 n=76 v=0
3328 On ch=1 n=76 v=44
3329 Off ch=1 n=75 v=0
3392 On ch=1 n=71 v=36
3393 Off ch=1 n=76 v=0
3456 On ch=1 n=74 v=47
3457 Off ch=1 n=71 v=0
3520 On ch=1 n=72 v=43
3521 Off ch=1 n=74 v=0
3584 On ch=1 n=69 v=43
3584 Par ch=1 c=64 v=127
3584 On ch=1 n=45 v=37
3585 Off ch=1 n=72 v=0
3648 On ch=1 n=52 v=44
3649 Off ch=1 n=45 v=0
3705 Off ch=1 n=69 v=0
3712 On ch=1 n=57 v=49
3713 Off ch=1 n=52 v=0
3772 Off ch=1 n=57 v=0
3776 On ch=1 n=60 v=38
3840 On ch=1 n=64 v=41
3840 Par ch=1 c=64 v=0
3841 Off ch=1 n=60 v=0
3904 On ch=1 n=69 v=50
3905 Off ch=1 n=64 v=0
3968 On ch=1 n=71 v=60
3968 Par ch=1 c=64 v=127
3968 On ch=1 n=40 v=43
3969 Off ch=1 n=69 v=0
4032 On ch=1 n=52 v=48
4033 Off ch=1 n=40 v=0
4089 Off ch=1 n=71 v=0
4096 On ch=1 n=56 v=53
4097 Off ch=1 n=52 v=0
4156 Off ch=1 n=56 v=0
4160 On ch=1 n=64 v=36
4224 On ch=1 n=68 v=35
4224 Par ch=1 c=64 v=0
4225 Off ch=1 n=64 v=0
4288 On ch=1 n=71 v=51
4289 Off ch=1 n=68 v=0
4352 On ch=1 n=72 v=49
4352 Par ch=1 c=64 v=127
4352 On ch=1 n=45 v=36
4353 Off ch=1 n=71 v=0
4416 On ch=1 n=52 v=37
4417 Off ch=1 n=45 v=0
4473 Off ch=1 n=72 v=0
4480 On ch=1 n=57 v=47
4481 Off ch=1 n=52 v=0
4540 Off ch=1 n=57 v=0
4544 On ch=1 n=64 v=40
4608 On ch=1 n=76 v=50
4608 Par ch=1 c=64 v=0
4609 Off ch=1 n=64 v=0
4672 On ch=1 n=75 v=43
4673 Off ch=1 n=76 v=0
4736 On ch=1 n=76 v=50
4737 Off ch=1 n=75 v=0
4800 On ch=1 n=75 v=35
4801 Off ch=1 n=76 v=0
4864 On ch=1 n=76 v=40
4865 Off ch=1 n=75 v=0
4928 On ch=1 n=71 v=40
4929 Off ch=1 n=76 v=0
4992 On ch=1 n=74 v=43
4993 Off ch=1 n=71 v=0
5056 On ch=1 n=72 v=38
5057 Off ch=1 n=74 v=0
5120 On ch=1 n=69 v=29
5120 Par ch=1 c=64 v=127
5120 On ch=1 n=45 v=39
5121 Off ch=1 n=72 v=0
5184 On ch=1 n=52 v=45
5185 Off ch=1 n=45 v=0
5241 Off ch=1 n=69 v=0
5248 On ch=1 n=57 v=43
5249 Off ch=1 n=52 v=0
5308 Off ch=1 n=57 v=0
5312 On ch=1 n=60 v=41
5376 On ch=1 n=64 v=45
5376 Par ch=1 c=64 v=0
5377 Off ch=1 n=60 v=0
5440 On ch=1 n=69 v=49
5441 Off ch=1 n=64 v=0
5504 On ch=1 n=71 v=53
5504 Par ch=1 c=64 v=127
5504 On ch=1 n=40 v=39
5505 Off ch=1 n=69 v=0
5568 On ch=1 n=52 v=47
5569 Off ch=1 n=40 v=0
5625 Off ch=1 n=71 v=0
5632 On ch=1 n=56 v=45
5633 Off ch=1 n=52 v=0
5692 Off ch=1 n=56 v=0
5696 On ch=1 n=62 v=35
5760 On ch=1 n=72 v=40
5760 Par ch=1 c=64 v=0
5761 Off ch=1 n=62 v=0
5824 On ch=1 n=71 v=47
5825 Off ch=1 n=72 v=0
5888 On ch=1 n=69 v=39
5888 Par ch=1 c=64 v=127
5888 On ch=1 n=45 v=41
5889 Off ch=1 n=71 v=0
5952 On ch=1 n=52 v=46
5953 Off ch=1 n=45 v=0
6009 Off ch=1 n=69 v=0
6016 On ch=1 n=57 v=49
6017 Off ch=1 n=52 v=0
6076 Off ch=1 n=57 v=0
6080 On ch=1 n=71 v=53
6144 On ch=1 n=72 v=67
6144 Par ch=1 c=64 v=0
6145 Off ch=1 n=71 v=0
6208 On ch=1 n=74 v=85
6209 Off ch=1 n=72 v=0
6272 On ch=1 n=76 v=82
6272 Par ch=1 c=64 v=127
6272 On ch=1 n=48 v=75
6273 Off ch=1 n=74 v=0
6336 On ch=1 n=55 v=79
6337 Off ch=1 n=48 v=0
6400 On ch=1 n=60 v=88
6401 Off ch=1 n=55 v=0
6454 Off ch=1 n=76 v=0
6460 Off ch=1 n=60 v=0
6464 On ch=1 n=67 v=64
6528 On ch=1 n=77 v=77
6528 Par ch=1 c=64 v=0
6529 Off ch=1 n=67 v=0
6592 On ch=1 n=76 v=85
6593 Off ch=1 n=77 v=0
6656 On ch=1 n=74 v=80
6656 Par ch=1 c=64 v=127
6656 On ch=1 n=43 v=74
6657 Off ch=1 n=76 v=0
6720 On ch=1 n=55 v=85
6721 Off ch=1 n=43 v=0
6784 On ch=1 n=59 v=90
6785 Off ch=1 n=55 v=0
6838 Off ch=1 n=74 v=0
6844 Off ch=1 n=59 v=0
6848 On ch=1 n=65 v=64
6912 On ch=1 n=76 v=80
6912 Par ch=1 c=64 v=0
6913 Off ch=1 n=65 v=0
6976 On ch=1 n=74 v=76
6977 Off ch=1 n=76 v=0
7040 On ch=1 n=72 v=70
7040 Par ch=1 c=64 v=127
7040 On ch=1 n=45 v=68
7041 Off ch=1 n=74 v=0
7104 On ch=1 n=52 v=72
7105 Off ch=1 n=45 v=0
7168 On ch=1 n=57 v=77
7169 Off ch=1 n=52 v=0
7222 Off ch=1 n=72 v=0
7228 Off ch=1 n=57 v=0
7232 On ch=1 n=64 v=54
7232 Par ch=1 c=64 v=0
7296 On ch=1 n=74 v=68
7297 Off ch=1 n=64 v=0
7360 On ch=1 n=72 v=71
7361 Off ch=1 n=74 v=0
7424 On ch=1 n=71 v=58
7424 On ch=1 n=40 v=48
7425 Off ch=1 n=72 v=0
7456 Off ch=1 n=40 v=0
7488 On ch=1 n=52 v=69
7545 Off ch=1 n=71 v=0
7552 On ch=1 n=64 v=87
7553 Off ch=1 n=52 v=0
7612 Off ch=1 n=64 v=0
7616 On ch=1 n=64 v=53
7680 On ch=1 n=76 v=64
7681 Off ch=1 n=64 v=0
7740 Off ch=1 n=76 v=0
7744 On ch=1 n=64 v=54
7808 On ch=1 n=76 v=67
7809 Off ch=1 n=64 v=0
7868 Off ch=1 n=76 v=0
7872 On ch=1 n=76 v=49
7936 On ch=1 n=88 v=60
7937 Off ch=1 n=76 v=0
7996 Off ch=1 n=88 v=0
8000 On ch=1 n=75 v=48
8064 On ch=1 n=76 v=55
8065 Off ch=1 n=75 v=0
8124 Off ch=1 n=76 v=0
8128 On ch=1 n=75 v=44
8192 On ch=1 n=76 v=49
8193 Off ch=1 n=75 v=0
8252 Off ch=1 n=76 v=0
8256 On ch=1 n=75 v=45
8320 On ch=1 n=76 v=43
8321 Off ch=1 n=75 v=0
8380 Off ch=1 n=76 v=0
8384 On ch=1 n=75 v=35
8448 On ch=1 n=76 v=33
8449 Off ch=1 n=75 v=0
8512 On ch=1 n=75 v=36
8513 Off ch=1 n=76 v=0
8576 On ch=1 n=76 v=38
8577 Off ch=1 n=75 v=0
8640 On ch=1 n=75 v=42
8641 Off ch=1 n=76 v=0
8704 On ch=1 n=76 v=42
8705 Off ch=1 n=75 v=0
8768 On ch=1 n=71 v=41
8769 Off ch=1 n=76 v=0
8832 On ch=1 n=74 v=43
8833 Off ch=1 n=71 v=0
8896 On ch=1 n=72 v=41
8897 Off ch=1 n=74 v=0
8960 On ch=1 n=69 v=36
8960 On ch=1 n=45 v=37
8961 Off ch=1 n=72 v=0
9024 Par ch=1 c=64 v=127
9024 On ch=1 n=52 v=40
9025 Off ch=1 n=45 v=0
9081 Off ch=1 n=69 v=0
9088 On ch=1 n=57 v=41
9089 Off ch=1 n=52 v=0
9148 Off ch=1 n=57 v=0
9152 On ch=1 n=60 v=37
9216 On ch=1 n=64 v=41
9216 Par ch=1 c=64 v=0
9217 Off ch=1 n=60 v=0
9280 On ch=1 n=69 v=47
9281 Off ch=1 n=64 v=0
9344 On ch=1 n=71 v=51
9344 On ch=1 n=40 v=37
9345 Off ch=1 n=69 v=0
9408 Par ch=1 c=64 v=127
9408 On ch=1 n=52 v=39
9409 Off ch=1 n=40 v=0
9465 Off ch=1 n=71 v=0
9472 On ch=1 n=56 v=48
9473 Off ch=1 n=52 v=0
9532 Off ch=1 n=56 v=0
9536 On ch=1 n=64 v=34
9600 On ch=1 n=68 v=37
9600 Par ch=1 c=64 v=0
9601 Off ch=1 n=64 v=0
9664 On ch=1 n=71 v=46
9665 Off ch=1 n=68 v=0
9728 On ch=1 n=72 v=48
9728 Par ch=1 c=64 v=127
9728 On ch=1 n=45 v=38
9729 Off ch=1 n=71 v=0
9792 On ch=1 n=52 v=41
9793 Off ch=1 n=45 v=0
9849 Off ch=1 n=72 v=0
9856 On ch=1 n=57 v=43
9857 Off ch=1 n=52 v=0
9916 Off ch=1 n=57 v=0
9920 On ch=1 n=64 v=39
9984 On ch=1 n=76 v=48
9984 Par ch=1 c=64 v=0
9985 Off ch=1 n=64 v=0
10048 On ch=1 n=75 v=42
10049 Off ch=1 n=76 v=0
10112 On ch=1 n=76 v=43
10113 Off ch=1 n=75 v=0
10176 On ch=1 n=75 v=44
10177 Off ch=1 n=76 v=0
10240 On ch=1 n=76 v=48
10241 Off ch=1 n=75 v=0
10304 On ch=1 n=71 v=42
10305 Off ch=1 n=76 v=0
10368 On ch=1 n=74 v=45
10369 Off ch=1 n=71 v=0
10432 On ch=1 n=72 v=41
10433 Off ch=1 n=74 v=0
10496 On ch=1 n=69 v=38
10496 Par ch=1 c=64 v=127
10496 On ch=1 n=45 v=35
10497 Off ch=1 n=72 v=0
10560 On ch=1 n=52 v=38
10561 Off ch=1 n=45 v=0
10617 Off ch=1 n=69 v=0
10624 On ch=1 n=57 v=48
10625 Off ch=1 n=52 v=0
10684 Off ch=1 n=57 v=0
10688 On ch=1 n=60 v=42
10752 On ch=1 n=64 v=42
10752 Par ch=1 c=64 v=0
10753 Off ch=1 n=60 v=0
10816 On ch=1 n=69 v=50
10817 Off ch=1 n=64 v=0
10880 On ch=1 n=71 v=52
10880 Par ch=1 c=64 v=127
10880 On ch=1 n=40 v=37
10881 Off ch=1 n=69 v=0
10944 On ch=1 n=52 v=39
10945 Off ch=1 n=40 v=0
11001 Off ch=1 n=71 v=0
11008 On ch=1 n=56 v=45
11009 Off ch=1 n=52 v=0
11068 Off ch=1 n=56 v=0
11072 On ch=1 n=62 v=41
11136 On ch=1 n=72 v=46
11136 Par ch=1 c=64 v=0
11137 Off ch=1 n=62 v=0
11200 On ch=1 n=71 v=39
11201 Off ch=1 n=72 v=0
11264 On ch=1 n=69 v=36
11264 Par ch=1 c=64 v=127
11264 On ch=1 n=45 v=39
11265 Off ch=1 n=71 v=0
11328 On ch=1 n=52 v=45
11329 Off ch=1 n=45 v=0
11385 Off ch=1 n=69 v=0
11392 On ch=1 n=57 v=47
11393 Off ch=1 n=52 v=0
11452 Off ch=1 n=57 v=0
11456 On ch=1 n=71 v=49
11520 On ch=1 n=72 v=72
11520 Par ch=1 c=64 v=0
11521 Off ch=1 n=71 v=0
11584 On ch=1 n=74 v=82
11585 Off ch=1 n=72 v=0
11648 On ch=1 n=76 v=92
11648 Par ch=1 c=64 v=127
11648 On ch=1 n=48 v=76
11649 Off ch=1 n=74 v=0
11712 On ch=1 n=55 v=83
11713 Off ch=1 n=48 v=0
11776 On ch=1 n=60 v=93
11777 Off ch=1 n=55 v=0
11830 Off ch=1 n=76 v=0
11836 Off ch=1 n=60 v=0
11840 On ch=1 n=67 v=66
11904 On ch=1 n=77 v=82
11904 Par ch=1 c=64 v=0
11905 Off ch=1 n=67 v=0
11968 On ch=1 n=76 v=82
11969 Off ch=1 n=77 v=0
12032 On ch=1 n=74 v=79
12032 Par ch=1 c=64 v=127
12032 On ch=1 n=43 v=76
12033 Off ch=1 n=76 v=0
12096 On ch=1 n=55 v=84
12097 Off ch=1 n=43 v=0
12160 On ch=1 n=59 v=89
12161 Off ch=1 n=55 v=0
12214 Off ch=1 n=74 v=0
12220 Off ch=1 n=59 v=0
12224 On ch=1 n=65 v=68
12288 On ch=1 n=76 v=80
12288 Par ch=1 c=64 v=0
12289 Off ch=1 n=65 v=0
12352 On ch=1 n=74 v=81
12353 Off ch=1 n=76 v=0
12416 On ch=1 n=72 v=70
12416 Par ch=1 c=64 v=127
12416 On ch=1 n=45 v=66
12417 Off ch=1 n=74 v=0
12480 On ch=1 n=52 v=70
12481 Off ch=1 n=45 v=0
12544 On ch=1 n=57 v=75
12545 Off ch=1 n=52 v=0
12598 Off ch=1 n=72 v=0
12604 Off ch=1 n=57 v=0
12608 On ch=1 n=64 v=60
12608 Par ch=1 c=64 v=0
12672 On ch=1 n=74 v=72
12673 Off ch=1 n=64 v=0
12736 On ch=1 n=72 v=71
12737 Off ch=1 n=74 v=0
12800 On ch=1 n=71 v=51
12800 On ch=1 n=40 v=49
12801 Off ch=1 n=72 v=0
12832 Off ch=1 n=40 v=0
12864 On ch=1 n=52 v=61
12921 Off ch=1 n=71 v=0
12928 On ch=1 n=64 v=80
12929 Off ch=1 n=52 v=0
12988 Off ch=1 n=64 v=0
12992 On ch=1 n=64 v=49
13056 On ch=1 n=76 v=63
13057 Off ch=1 n=64 v=0
13116 Off ch=1 n=76 v=0
13120 On ch=1 n=64 v=50
13184 On ch=1 n=76 v=63
13185 Off ch=1 n=64 v=0
13244 Off ch=1 n=76 v=0
13248 On ch=1 n=76 v=56
13312 On ch=1 n=88 v=60
13313 Off ch=1 n=76 v=0
13372 Off ch=1 n=88 v=0
13376 On ch=1 n=75 v=45
13440 On ch=1 n=76 v=44
13441 Off ch=1 n=75 v=0
13500 Off ch=1 n=76 v=0
13504 On ch=1 n=75 v=45
13568 On ch=1 n=76 v=43
13569 Off ch=1 n=75 v=0
13628 Off ch=1 n=76 v=0
13632 On ch=1 n=75 v=47
13696 On ch=1 n=76 v=41
13697 Off ch=1 n=75 v=0
13756 Off ch=1 n=76 v=0
13760 On ch=1 n=75 v=38
13824 On ch=1 n=76 v=35
13825 Off ch=1 n=75 v=0
13888 On ch=1 n=75 v=42
13889 Off ch=1 n=76 v=0
13952 On ch=1 n=76 v=41
13953 Off ch=1 n=75 v=0
14016 On ch=1 n=75 v=44
14017 Off ch=1 n=76 v=0
14080 On ch=1 n=76 v=48
14081 Off ch=1 n=75 v=0
14144 On ch=1 n=71 v=40
14145 Off ch=1 n=76 v=0
14208 On ch=1 n=74 v=42
14209 Off ch=1 n=71 v=0
14272 On ch=1 n=72 v=42
14273 Off ch=1 n=74 v=0
14336 On ch=1 n=69 v=41
14336 On ch=1 n=45 v=45
14337 Off ch=1 n=72 v=0
14400 Par ch=1 c=64 v=127
14400 On ch=1 n=52 v=47
14401 Off ch=1 n=45 v=0
14457 Off ch=1 n=69 v=0
14464 On ch=1 n=57 v=49
14465 Off ch=1 n=52 v=0
14524 Off ch=1 n=57 v=0
14528 On ch=1 n=60 v=35
14592 On ch=1 n=64 v=35
14592 Par ch=1 c=64 v=0
14593 Off ch=1 n=60 v=0
14656 On ch=1 n=69 v=51
14657 Off ch=1 n=64 v=0
14720 On ch=1 n=71 v=55
14720 On ch=1 n=40 v=37
14721 Off ch=1 n=69 v=0
14784 Par ch=1 c=64 v=127
14784 On ch=1 n=52 v=42
14785 Off ch=1 n=40 v=0
14841 Off ch=1 n=71 v=0
14848 On ch=1 n=56 v=46
14849 Off ch=1 n=52 v=0
14908 Off ch=1 n=56 v=0
14912 On ch=1 n=64 v=37
14976 On ch=1 n=68 v=38
14976 Par ch=1 c=64 v=0
14977 Off ch=1 n=64 v=0
15040 On ch=1 n=71 v=47
15041 Off ch=1 n=68 v=0
15104 On ch=1 n=72 v=50
15104 Par ch=1 c=64 v=127
15104 On ch=1 n=45 v=41
15105 Off ch=1 n=71 v=0
15168 On ch=1 n=52 v=45
15169 Off ch=1 n=45 v=0
15225 Off ch=1 n=72 v=0
15232 On ch=1 n=57 v=46
15233 Off ch=1 n=52 v=0
15292 Off ch=1 n=57 v=0
15296 On ch=1 n=64 v=37
15360 On ch=1 n=76 v=47
15360 Par ch=1 c=64 v=0
15361 Off ch=1 n=64 v=0
15424 On ch=1 n=75 v=43
15425 Off ch=1 n=76 v=0
15488 On ch=1 n=76 v=43
15489 Off ch=1 n=75 v=0
15552 On ch=1 n=75 v=45
15553 Off ch=1 n=76 v=0
15616 On ch=1 n=76 v=46
15617 Off ch=1 n=75 v=0
15680 On ch=1 n=71 v=40
15681 Off ch=1 n=76 v=0
15744 On ch=1 n=74 v=38
15745 Off ch=1 n=71 v=0
15808 On ch=1 n=72 v=39
15809 Off ch=1 n=74 v=0
15872 On ch=1 n=69 v=37
15872 Par ch=1 c=64 v=127
15872 On ch=1 n=45 v=36
15873 Off ch=1 n=72 v=0
15936 On ch=1 n=52 v=34
15937 Off ch=1 n=45 v=0
15993 Off ch=1 n=69 v=0
16000 On ch=1 n=57 v=48
16001 Off ch=1 n=52 v=0
16060 Off ch=1 n=57 v=0
16064 On ch=1 n=60 v=41
16128 On ch=1 n=64 v=42
16128 Par ch=1 c=64 v=0
16129 Off ch=1 n=60 v=0
16192 On ch=1 n=69 v=53
16193 Off ch=1 n=64 v=0
16256 On ch=1 n=71 v=58
16256 Par ch=1 c=64 v=127
16256 On ch=1 n=40 v=38
16257 Off ch=1 n=69 v=0
16320 On ch=1 n=52 v=42
16321 Off ch=1 n=40 v=0
16377 Off ch=1 n=71 v=0
16384 On ch=1 n=56 v=50
16385 Off ch=1 n=52 v=0
16444 Off ch=1 n=56 v=0
16448 On ch=1 n=62 v=33
16512 On ch=1 n=72 v=43
16512 Par ch=1 c=64 v=0
16513 Off ch=1 n=62 v=0
16576 On ch=1 n=71 v=40
16577 Off ch=1 n=72 v=0
16640 On ch=1 n=69 v=36
16640 On ch=1 n=45 v=33
16641 Off ch=1 n=71 v=0
16704 On ch=1 n=52 v=35
16705 Off ch=1 n=45 v=0
16761 Off ch=1 n=69 v=0
16768 On ch=1 n=57 v=44
16769 Off ch=1 n=52 v=0
16828 Off ch=1 n=57 v=0
16832 On ch=1 n=64 v=37
16832 On ch=1 n=72 v=37
16832 On ch=1 n=58 v=52
16832 On ch=1 n=60 v=52
16864 Off ch=1 n=64 v=0
16864 Off ch=1 n=72 v=0
16864 Off ch=1 n=58 v=0
16864 Off ch=1 n=60 v=0
16896 On ch=1 n=65 v=54
16896 On ch=1 n=72 v=54
16896 On ch=1 n=57 v=56
16896 On ch=1 n=60 v=56
16928 Off ch=1 n=65 v=0
16928 Off ch=1 n=72 v=0
16928 Off ch=1 n=57 v=0
16928 Off ch=1 n=60 v=0
16960 On ch=1 n=64 v=64
16960 On ch=1 n=67 v=64
16960 On ch=1 n=72 v=64
16960 On ch=1 n=55 v=67
16960 On ch=1 n=58 v=67
16960 On ch=1 n=60 v=67
16992 Off ch=1 n=64 v=0
16992 Off ch=1 n=67 v=0
16992 Off ch=1 n=72 v=0
16992 Off ch=1 n=55 v=0
16992 Off ch=1 n=58 v=0
16992 Off ch=1 n=60 v=0
17024 On ch=1 n=72 v=55
17024 On ch=1 n=53 v=50
17088 Off ch=1 n=53 v=0
17088 On ch=1 n=57 v=55
17152 Off ch=1 n=57 v=0
17152 On ch=1 n=60 v=50
17216 Off ch=1 n=60 v=0
17216 On ch=1 n=57 v=46
17280 On ch=1 n=77 v=56
17280 Off ch=1 n=57 v=0
17280 On ch=1 n=60 v=55
17285 Off ch=1 n=72 v=0
17344 Off ch=1 n=60 v=0
17344 On ch=1 n=57 v=50
17376 On ch=1 n=76 v=51
17377 Off ch=1 n=77 v=0
17408 Off ch=1 n=76 v=0
17408 On ch=1 n=76 v=48
17408 Off ch=1 n=57 v=0
17408 On ch=1 n=53 v=43
17472 Off ch=1 n=53 v=0
17472 On ch=1 n=58 v=54
17536 On ch=1 n=74 v=43
17536 Off ch=1 n=58 v=0
17536 On ch=1 n=62 v=54
17538 Off ch=1 n=76 v=0
17600 Off ch=1 n=62 v=0
17600 On ch=1 n=58 v=43
17657 Off ch=1 n=74 v=0
17664 On ch=1 n=82 v=59
17664 Off ch=1 n=58 v=0
17664 On ch=1 n=62 v=51
17728 Off ch=1 n=62 v=0
17728 On ch=1 n=58 v=46
17760 On ch=1 n=81 v=61
17761 Off ch=1 n=82 v=0
17792 Off ch=1 n=81 v=0
17792 On ch=1 n=81 v=47
17792 Off ch=1 n=58 v=0
17792 On ch=1 n=53 v=43
17856 On ch=1 n=79 v=41
17856 Off ch=1 n=53 v=0
17856 On ch=1 n=64 v=62
17857 Off ch=1 n=81 v=0
17920 On ch=1 n=77 v=43
17920 Off ch=1 n=64 v=0
17920 On ch=1 n=53 v=45
17920 On ch=1 n=55 v=45
17920 On ch=1 n=58 v=45
17921 Off ch=1 n=79 v=0
17984 On ch=1 n=76 v=38
17984 Off ch=1 n=53 v=0
17984 Off ch=1 n=55 v=0
17984 Off ch=1 n=58 v=0
17984 On ch=1 n=64 v=53
17985 Off ch=1 n=77 v=0
18048 On ch=1 n=74 v=47
18048 Off ch=1 n=64 v=0
18048 On ch=1 n=53 v=48
18048 On ch=1 n=55 v=48
18048 On ch=1 n=58 v=48
18049 Off ch=1 n=76 v=0
18112 On ch=1 n=72 v=45
18112 Off ch=1 n=53 v=0
18112 Off ch=1 n=55 v=0
18112 Off ch=1 n=58 v=0
18112 On ch=1 n=64 v=57
18113 Off ch=1 n=74 v=0
18176 On ch=1 n=70 v=48
18176 Off ch=1 n=64 v=0
18176 On ch=1 n=53 v=42
18177 Off ch=1 n=72 v=0
18240 Off ch=1 n=53 v=0
18240 On ch=1 n=57 v=52
18304 On ch=1 n=69 v=40
18304 Off ch=1 n=57 v=0
18304 On ch=1 n=60 v=52
18306 Off ch=1 n=70 v=0
18368 Off ch=1 n=60 v=0
18368 On ch=1 n=57 v=47
18419 Off ch=1 n=69 v=0
18419 On ch=1 n=70 v=43
18432 On ch=1 n=69 v=43
18432 Off ch=1 n=70 v=0
18432 Off ch=1 n=57 v=0
18432 On ch=1 n=60 v=53
18464 Off ch=1 n=69 v=0
18464 On ch=1 n=67 v=46
18496 Off ch=1 n=67 v=0
18496 On ch=1 n=69 v=52
18496 Off ch=1 n=60 v=0
18496 On ch=1 n=57 v=47
18528 Off ch=1 n=69 v=0
18528 On ch=1 n=70 v=54
18560 Off ch=1 n=70 v=0
18560 On ch=1 n=72 v=57
18560 Off ch=1 n=57 v=0
18560 On ch=1 n=53 v=47
18624 Off ch=1 n=53 v=0
18624 On ch=1 n=57 v=51
18688 Off ch=1 n=57 v=0
18688 On ch=1 n=60 v=59
18752 Off ch=1 n=60 v=0
18752 On ch=1 n=57 v=44
18816 On ch=1 n=74 v=62
18816 Off ch=1 n=57 v=0
18816 On ch=1 n=60 v=50
18821 Off ch=1 n=72 v=0
18880 On ch=1 n=75 v=53
18880 Off ch=1 n=60 v=0
18880 On ch=1 n=57 v=48
18881 Off ch=1 n=74 v=0
18944 On ch=1 n=76 v=59
18944 Off ch=1 n=57 v=0
18944 On ch=1 n=52 v=48
18945 Off ch=1 n=75 v=0
19008 Off ch=1 n=52 v=0
19008 On ch=1 n=57 v=47
19072 Off ch=1 n=57 v=0
19072 On ch=1 n=60 v=54
19126 Off ch=1 n=76 v=0
19136 On ch=1 n=76 v=46
19136 Off ch=1 n=60 v=0
19136 On ch=1 n=57 v=46
19200 On ch=1 n=77 v=51
19200 Off ch=1 n=57 v=0
19200 On ch=1 n=50 v=58
19200 On ch=1 n=62 v=58
19201 Off ch=1 n=76 v=0
19264 On ch=1 n=69 v=35
19264 Off ch=1 n=50 v=0
19264 Off ch=1 n=62 v=0
19264 On ch=1 n=53 v=42
19265 Off ch=1 n=77 v=0
19328 On ch=1 n=72 v=51
19328 Off ch=1 n=53 v=0
19328 On ch=1 n=55 v=53
19329 Off ch=1 n=69 v=0
19392 Off ch=1 n=55 v=0
19392 On ch=1 n=64 v=57
19456 Off ch=1 n=64 v=0
19456 On ch=1 n=55 v=48
19520 On ch=1 n=74 v=53
19520 Off ch=1 n=55 v=0
19520 On ch=1 n=64 v=56
19523 Off ch=1 n=72 v=0
19536 Off ch=1 n=74 v=0
19536 On ch=1 n=72 v=56
19552 Off ch=1 n=72 v=0
19552 On ch=1 n=71 v=56
19568 Off ch=1 n=71 v=0
19568 On ch=1 n=72 v=59
19584 Off ch=1 n=72 v=0
19584 On ch=1 n=74 v=54
19584 Off ch=1 n=64 v=0
19584 On ch=1 n=55 v=41
19648 Off ch=1 n=55 v=0
19648 On ch=1 n=65 v=59
19680 On ch=1 n=71 v=52
19681 Off ch=1 n=74 v=0
19712 Off ch=1 n=71 v=0
19712 On ch=1 n=72 v=51
19712 Off ch=1 n=65 v=0
19712 On ch=1 n=60 v=51
19712 On ch=1 n=64 v=51
19742 Off ch=1 n=72 v=0
19744 On ch=1 n=79 v=56
19776 Off ch=1 n=79 v=0
19776 On ch=1 n=67 v=37
19808 Off ch=1 n=67 v=0
19808 On ch=1 n=79 v=62
19840 Off ch=1 n=79 v=0
19840 On ch=1 n=69 v=40
19840 Off ch=1 n=60 v=0
19840 Off ch=1 n=64 v=0
19872 Off ch=1 n=69 v=0
19872 On ch=1 n=79 v=58
19904 Off ch=1 n=79 v=0
19904 On ch=1 n=71 v=38
19904 On ch=1 n=65 v=42
19904 On ch=1 n=67 v=42
19936 Off ch=1 n=71 v=0
19936 On ch=1 n=79 v=58
19936 Off ch=1 n=65 v=0
19936 Off ch=1 n=67 v=0
19968 Off ch=1 n=79 v=0
19968 On ch=1 n=72 v=42
19968 On ch=1 n=64 v=50
19968 On ch=1 n=67 v=50
20000 Off ch=1 n=72 v=0
20000 On ch=1 n=79 v=58
20000 Off ch=1 n=64 v=0
20000 Off ch=1 n=67 v=0
20032 Off ch=1 n=79 v=0
20032 On ch=1 n=74 v=41
20032 On ch=1 n=62 v=51
20032 On ch=1 n=65 v=51
20032 On ch=1 n=67 v=51
20064 Off ch=1 n=74 v=0
20064 On ch=1 n=79 v=54
20064 Off ch=1 n=62 v=0
20064 Off ch=1 n=65 v=0
20064 Off ch=1 n=67 v=0
20096 Off ch=1 n=79 v=0
20096 On ch=1 n=76 v=45
20096 On ch=1 n=60 v=46
20096 On ch=1 n=64 v=46
20096 On ch=1 n=67 v=46
20128 Off ch=1 n=76 v=0
20128 On ch=1 n=79 v=56
20160 Off ch=1 n=79 v=0
20160 On ch=1 n=84 v=57
20192 Off ch=1 n=84 v=0
20192 On ch=1 n=83 v=48
20224 Off ch=1 n=83 v=0
20224 On ch=1 n=81 v=43
20224 Off ch=1 n=60 v=0
20224 Off ch=1 n=64 v=0
20224 Off ch=1 n=67 v=0
20224 On ch=1 n=53 v=45
20224 On ch=1 n=57 v=45
20256 Off ch=1 n=81 v=0
20256 On ch=1 n=79 v=42
20288 Off ch=1 n=79 v=0
20288 On ch=1 n=77 v=45
20320 Off ch=1 n=77 v=0
20320 On ch=1 n=76 v=42
20352 Off ch=1 n=76 v=0
20352 On ch=1 n=74 v=45
20352 Off ch=1 n=53 v=0
20352 Off ch=1 n=57 v=0
20352 On ch=1 n=55 v=48
20352 On ch=1 n=59 v=48
20384 Off ch=1 n=74 v=0
20384 On ch=1 n=79 v=55
20416 Off ch=1 n=79 v=0
20416 On ch=1 n=77 v=48
20448 Off ch=1 n=77 v=0
20448 On ch=1 n=74 v=47
20478 Off ch=1 n=74 v=0
20480 On ch=1 n=72 v=41
20480 Off ch=1 n=55 v=0
20480 Off ch=1 n=59 v=0
20480 On ch=1 n=60 v=55
20480 On ch=1 n=64 v=55
20512 Off ch=1 n=72 v=0
20512 On ch=1 n=79 v=55
20544 Off ch=1 n=79 v=0
20544 On ch=1 n=67 v=36
20576 Off ch=1 n=67 v=0
20576 On ch=1 n=79 v=61
20608 Off ch=1 n=79 v=0
20608 On ch=1 n=69 v=40
20608 Off ch=1 n=60 v=0
20608 Off ch=1 n=64 v=0
20640 Off ch=1 n=69 v=0
20640 On ch=1 n=79 v=55
20672 Off ch=1 n=79 v=0
20672 On ch=1 n=71 v=45
20672 On ch=1 n=65 v=44
20672 On ch=1 n=67 v=44
20704 Off ch=1 n=71 v=0
20704 On ch=1 n=79 v=56
20704 Off ch=1 n=65 v=0
20704 Off ch=1 n=67 v=0
20736 Off ch=1 n=79 v=0
20736 On ch=1 n=72 v=42
20736 On ch=1 n=64 v=48
20736 On ch=1 n=67 v=48
20768 Off ch=1 n=72 v=0
20768 On ch=1 n=79 v=57
20768 Off ch=1 n=64 v=0
20768 Off ch=1 n=67 v=0
20800 Off ch=1 n=79 v=0
20800 On ch=1 n=74 v=42
20800 On ch=1 n=62 v=49
20800 On ch=1 n=65 v=49
20800 On ch=1 n=67 v=49
20832 Off ch=1 n=74 v=0
20832 On ch=1 n=79 v=49
20832 Off ch=1 n=62 v=0
20832 Off ch=1 n=65 v=0
20832 Off ch=1 n=67 v=0
20864 Off ch=1 n=79 v=0
20864 On ch=1 n=76 v=41
20864 On ch=1 n=60 v=48
20864 On ch=1 n=64 v=48
20864 On ch=1 n=67 v=48
20896 Off ch=1 n=76 v=0
20896 On ch=1 n=79 v=51
20928 Off ch=1 n=79 v=0
20928 On ch=1 n=84 v=61
20960 Off ch=1 n=84 v=0
20960 On ch=1 n=83 v=43
20992 Off ch=1 n=83 v=0
20992 On ch=1 n=81 v=49
20992 Off ch=1 n=60 v=0
20992 Off ch=1 n=64 v=0
20992 Off ch=1 n=67 v=0
20992 On ch=1 n=53 v=42
20992 On ch=1 n=57 v=42
21024 Off ch=1 n=81 v=0
21024 On ch=1 n=79 v=45
21056 Off ch=1 n=79 v=0
21056 On ch=1 n=77 v=41
21088 Off ch=1 n=77 v=0
21088 On ch=1 n=76 v=49
21120 Off ch=1 n=76 v=0
21120 On ch=1 n=74 v=46
21120 Off ch=1 n=53 v=0
21120 Off ch=1 n=57 v=0
21120 On ch=1 n=55 v=49
21120 On ch=1 n=59 v=49
21152 Off ch=1 n=74 v=0
21152 On ch=1 n=79 v=56
21184 Off ch=1 n=79 v=0
21184 On ch=1 n=77 v=46
21216 Off ch=1 n=77 v=0
21216 On ch=1 n=74 v=43
21246 Off ch=1 n=74 v=0
21248 On ch=1 n=76 v=51
21248 Off ch=1 n=55 v=0
21248 Off ch=1 n=59 v=0
21248 On ch=1 n=56 v=49
21248 On ch=1 n=59 v=49
21280 Off ch=1 n=76 v=0
21280 On ch=1 n=77 v=53
21312 Off ch=1 n=77 v=0
21312 On ch=1 n=76 v=48
21344 Off ch=1 n=76 v=0
21344 On ch=1 n=75 v=44
21376 Off ch=1 n=75 v=0
21376 On ch=1 n=76 v=46
21376 Off ch=1 n=56 v=0
21376 Off ch=1 n=59 v=0
21408 Off ch=1 n=76 v=0
21408 On ch=1 n=71 v=42
21440 Off ch=1 n=71 v=0
21440 On ch=1 n=76 v=52
21472 Off ch=1 n=76 v=0
21472 On ch=1 n=75 v=46
21504 Off ch=1 n=75 v=0
21504 On ch=1 n=76 v=51
21536 Off ch=1 n=76 v=0
21536 On ch=1 n=71 v=44
21568 Off ch=1 n=71 v=0
21568 On ch=1 n=76 v=49
21600 Off ch=1 n=76 v=0
21600 On ch=1 n=75 v=48
21632 Off ch=1 n=75 v=0
21632 On ch=1 n=76 v=52
21814 Off ch=1 n=76 v=0
21824 On ch=1 n=71 v=36
21888 On ch=1 n=76 v=38
21889 Off ch=1 n=71 v=0
21952 On ch=1 n=75 v=43
21953 Off ch=1 n=76 v=0
22016 On ch=1 n=76 v=45
22017 Off ch=1 n=75 v=0
22198 Off ch=1 n=76 v=0
22208 On ch=1 n=71 v=44
22272 Off ch=1 n=71 v=0
22272 On ch=1 n=76 v=52
22368 Off ch=1 n=76 v=0
22368 On ch=1 n=75 v=42
22432 On ch=1 n=76 v=43
22433 Off ch=1 n=75 v=0
22492 Off ch=1 n=76 v=0
22496 On ch=1 n=75 v=39
22560 On ch=1 n=76 v=37
22561 Off ch=1 n=75 v=0
22620 Off ch=1 n=76 v=0
22624 On ch=1 n=75 v=43
22688 On ch=1 n=76 v=44
22689 Off ch=1 n=75 v=0
22748 Off ch=1 n=76 v=0
22752 On ch=1 n=75 v=37
22816 On ch=1 n=76 v=36
22817 Off ch=1 n=75 v=0
22880 On ch=1 n=75 v=40
22881 Off ch=1 n=76 v=0
22944 On ch=1 n=76 v=41
22945 Off ch=1 n=75 v=0
23008 On ch=1 n=71 v=36
23009 Off ch=1 n=76 v=0
23072 On ch=1 n=74 v=37
23073 Off ch=1 n=71 v=0
23136 On ch=1 n=72 v=45
23137 Off ch=1 n=74 v=0
23200 On ch=1 n=69 v=41
23200 Par ch=1 c=64 v=127
23200 On ch=1 n=45 v=41
23201 Off ch=1 n=72 v=0
23264 On ch=1 n=52 v=46
23265 Off ch=1 n=45 v=0
23321 Off ch=1 n=69 v=0
23328 On ch=1 n=57 v=47
23329 Off ch=1 n=52 v=0
23388 Off ch=1 n=57 v=0
23392 On ch=1 n=60 v=46
23456 On ch=1 n=64 v=50
23456 Par ch=1 c=64 v=0
23457 Off ch=1 n=60 v=0
23520 On ch=1 n=69 v=52
23521 Off ch=1 n=64 v=0
23584 On ch=1 n=71 v=55
23584 On ch=1 n=40 v=43
23585 Off ch=1 n=69 v=0
23648 Par ch=1 c=64 v=127
23648 On ch=1 n=52 v=47
23649 Off ch=1 n=40 v=0
23705 Off ch=1 n=71 v=0
23712 On ch=1 n=56 v=43
23713 Off ch=1 n=52 v=0
23772 Off ch=1 n=56 v=0
23776 On ch=1 n=64 v=44
23840 On ch=1 n=68 v=47
23840 Par ch=1 c=64 v=0
23841 Off ch=1 n=64 v=0
23904 On ch=1 n=71 v=42
23905 Off ch=1 n=68 v=0
23968 On ch=1 n=72 v=44
23968 Par ch=1 c=64 v=127
23968 On ch=1 n=45 v=36
23969 Off ch=1 n=71 v=0
24032 On ch=1 n=52 v=35
24033 Off ch=1 n=45 v=0
24089 Off ch=1 n=72 v=0
24096 On ch=1 n=57 v=47
24097 Off ch=1 n=52 v=0
24156 Off ch=1 n=57 v=0
24160 On ch=1 n=64 v=37
24224 On ch=1 n=76 v=48
24224 Par ch=1 c=64 v=0
24225 Off ch=1 n=64 v=0
24288 On ch=1 n=75 v=41
24289 Off ch=1 n=76 v=0
24352 On ch=1 n=76 v=41
24353 Off ch=1 n=75 v=0
24416 On ch=1 n=75 v=45
24417 Off ch=1 n=76 v=0
24480 On ch=1 n=76 v=49
24481 Off ch=1 n=75 v=0
24544 On ch=1 n=71 v=39
24545 Off ch=1 n=76 v=0
24608 On ch=1 n=74 v=40
24609 Off ch=1 n=71 v=0
24672 On ch=1 n=72 v=43
24673 Off ch=1 n=74 v=0
24736 On ch=1 n=69 v=40
24736 Par ch=1 c=64 v=127
24736 On ch=1 n=45 v=34
24737 Off ch=1 n=72 v=0
24800 On ch=1 n=52 v=37
24801 Off ch=1 n=45 v=0
24857 Off ch=1 n=69 v=0
24864 On ch=1 n=57 v=43
24865 Off ch=1 n=52 v=0
24924 Off ch=1 n=57 v=0
24928 On ch=1 n=60 v=41
24992 On ch=1 n=64 v=46
24992 Par ch=1 c=64 v=0
24993 Off ch=1 n=60 v=0
25056 On ch=1 n=69 v=51
25057 Off ch=1 n=64 v=0
25120 On ch=1 n=71 v=58
25120 Par ch=1 c=64 v=127
25120 On ch=1 n=40 v=42
25121 Off ch=1 n=69 v=0
25184 On ch=1 n=52 v=51
25185 Off ch=1 n=40 v=0
25241 Off ch=1 n=71 v=0
25248 On ch=1 n=56 v=49
25249 Off ch=1 n=52 v=0
25308 Off ch=1 n=56 v=0
25312 On ch=1 n=62 v=38
25376 On ch=1 n=72 v=41
25376 Par ch=1 c=64 v=0
25377 Off ch=1 n=62 v=0
25440 On ch=1 n=71 v=44
25441 Off ch=1 n=72 v=0
25504 On ch=1 n=69 v=37
25504 Par ch=1 c=64 v=127
25504 On ch=1 n=45 v=38
25505 Off ch=1 n=71 v=0
25568 On ch=1 n=52 v=41
25569 Off ch=1 n=45 v=0
25625 Off ch=1 n=69 v=0
25632 On ch=1 n=57 v=44
25633 Off ch=1 n=52 v=0
25692 Off ch=1 n=57 v=0
25696 On ch=1 n=71 v=38
25760 On ch=1 n=72 v=63
25761 Off ch=1 n=71 v=0
25824 On ch=1 n=74 v=84
25824 Par ch=1 c=64 v=0
25825 Off ch=1 n=72 v=0
25888 On ch=1 n=76 v=87
25888 Par ch=1 c=64 v=127
25888 On ch=1 n=48 v=75
25889 Off ch=1 n=74 v=0
25952 On ch=1 n=55 v=85
25953 Off ch=1 n=48 v=0
26016 On ch=1 n=60 v=98
26017 Off ch=1 n=55 v=0
26070 Off ch=1 n=76 v=0
26076 Off ch=1 n=60 v=0
26080 On ch=1 n=67 v=65
26144 On ch=1 n=77 v=79
26144 Par ch=1 c=64 v=0
26145 Off ch=1 n=67 v=0
26208 On ch=1 n=76 v=82
26209 Off ch=1 n=77 v=0
26272 On ch=1 n=74 v=79
26272 Par ch=1 c=64 v=127
26272 On ch=1 n=43 v=76
26273 Off ch=1 n=76 v=0
26336 On ch=1 n=55 v=85
26337 Off ch=1 n=43 v=0
26400 On ch=1 n=59 v=91
26401 Off ch=1 n=55 v=0
26454 Off ch=1 n=74 v=0
26460 Off ch=1 n=59 v=0
26464 On ch=1 n=65 v=60
26528 On ch=1 n=76 v=69
26528 Par ch=1 c=64 v=0
26529 Off ch=1 n=65 v=0
26592 On ch=1 n=74 v=77
26593 Off ch=1 n=76 v=0
26656 On ch=1 n=72 v=71
26656 Par ch=1 c=64 v=127
26656 On ch=1 n=45 v=63
26657 Off ch=1 n=74 v=0
26720 On ch=1 n=52 v=69
26721 Off ch=1 n=45 v=0
26784 On ch=1 n=57 v=80
26785 Off ch=1 n=52 v=0
26838 Off ch=1 n=72 v=0
26844 Off ch=1 n=57 v=0
26848 On ch=1 n=64 v=56
26912 On ch=1 n=74 v=72
26912 Par ch=1 c=64 v=0
26913 Off ch=1 n=64 v=0
26976 On ch=1 n=72 v=71
26977 Off ch=1 n=74 v=0
27040 On ch=1 n=71 v=60
27040 On ch=1 n=40 v=48
27041 Off ch=1 n=72 v=0
27072 Off ch=1 n=40 v=0
27104 On ch=1 n=52 v=60
27161 Off ch=1 n=71 v=0
27168 On ch=1 n=64 v=79
27169 Off ch=1 n=52 v=0
27228 Off ch=1 n=64 v=0
27232 On ch=1 n=64 v=52
27296 On ch=1 n=76 v=66
27297 Off ch=1 n=64 v=0
27356 Off ch=1 n=76 v=0
27360 On ch=1 n=64 v=49
27424 On ch=1 n=76 v=67
27425 Off ch=1 n=64 v=0
27484 Off ch=1 n=76 v=0
27488 On ch=1 n=76 v=49
27552 On ch=1 n=88 v=60
27553 Off ch=1 n=76 v=0
27612 Off ch=1 n=88 v=0
27616 On ch=1 n=75 v=49
27680 On ch=1 n=76 v=51
27681 Off ch=1 n=75 v=0
27740 Off ch=1 n=76 v=0
27744 On ch=1 n=75 v=48
27808 On ch=1 n=76 v=46
27809 Off ch=1 n=75 v=0
27868 Off ch=1 n=76 v=0
27872 On ch=1 n=75 v=42
27936 On ch=1 n=76 v=47
27937 Off ch=1 n=75 v=0
27996 Off ch=1 n=76 v=0
28000 On ch=1 n=75 v=39
28064 On ch=1 n=76 v=39
28065 Off ch=1 n=75 v=0
28128 On ch=1 n=75 v=40
28129 Off ch=1 n=76 v=0
28192 On ch=1 n=76 v=42
28193 Off ch=1 n=75 v=0
28256 On ch=1 n=75 v=40
28257 Off ch=1 n=76 v=0
28320 On ch=1 n=76 v=40
28321 Off ch=1 n=75 v=0
28384 On ch=1 n=71 v=37
28385 Off ch=1 n=76 v=0
28448 On ch=1 n=74 v=37
28449 Off ch=1 n=71 v=0
28512 On ch=1 n=72 v=42
28513 Off ch=1 n=74 v=0
28576 On ch=1 n=69 v=43
28576 Par ch=1 c=64 v=127
28576 On ch=1 n=45 v=37
28577 Off ch=1 n=72 v=0
28640 On ch=1 n=52 v=41
28641 Off ch=1 n=45 v=0
28697 Off ch=1 n=69 v=0
28704 On ch=1 n=57 v=45
28705 Off ch=1 n=52 v=0
28764 Off ch=1 n=57 v=0
28768 On ch=1 n=60 v=39
28832 On ch=1 n=64 v=40
28832 Par ch=1 c=64 v=0
28833 Off ch=1 n=60 v=0
28896 On ch=1 n=69 v=50
28897 Off ch=1 n=64 v=0
28960 On ch=1 n=71 v=52
28960 Par ch=1 c=64 v=127
28960 On ch=1 n=40 v=39
28961 Off ch=1 n=69 v=0
29024 On ch=1 n=52 v=43
29025 Off ch=1 n=40 v=0
29081 Off ch=1 n=71 v=0
29088 On ch=1 n=56 v=46
29089 Off ch=1 n=52 v=0
29148 Off ch=1 n=56 v=0
29152 On ch=1 n=64 v=41
29216 On ch=1 n=68 v=42
29216 Par ch=1 c=64 v=0
29217 Off ch=1 n=64 v=0
29280 On ch=1 n=71 v=48
29281 Off ch=1 n=68 v=0
29344 On ch=1 n=72 v=52
29344 Par ch=1 c=64 v=127
29344 On ch=1 n=45 v=38
29345 Off ch=1 n=71 v=0
29408 On ch=1 n=52 v=44
29409 Off ch=1 n=45 v=0
29465 Off ch=1 n=72 v=0
29472 On ch=1 n=57 v=44
29473 Off ch=1 n=52 v=0
29532 Off ch=1 n=57 v=0
29536 On ch=1 n=64 v=41
29600 On ch=1 n=76 v=51
29600 Par ch=1 c=64 v=0
29601 Off ch=1 n=64 v=0
29664 On ch=1 n=75 v=41
29665 Off ch=1 n=76 v=0
29728 On ch=1 n=76 v=43
29729 Off ch=1 n=75 v=0
29792 On ch=1 n=75 v=45
29793 Off ch=1 n=76 v=0
29856 On ch=1 n=76 v=51
29857 Off ch=1 n=75 v=0
29920 On ch=1 n=71 v=39
29921 Off ch=1 n=76 v=0
29984 On ch=1 n=74 v=44
29985 Off ch=1 n=71 v=0
30048 On ch=1 n=72 v=41
30049 Off ch=1 n=74 v=0
30112 On ch=1 n=69 v=38
30112 Par ch=1 c=64 v=127
30112 On ch=1 n=45 v=34
30113 Off ch=1 n=72 v=0
30176 On ch=1 n=52 v=36
30177 Off ch=1 n=45 v=0
30233 Off ch=1 n=69 v=0
30240 On ch=1 n=57 v=45
30241 Off ch=1 n=52 v=0
30300 Off ch=1 n=57 v=0
30304 On ch=1 n=60 v=37
30368 On ch=1 n=64 v=45
30368 Par ch=1 c=64 v=0
30369 Off ch=1 n=60 v=0
30432 On ch=1 n=69 v=49
30433 Off ch=1 n=64 v=0
30496 On ch=1 n=71 v=48
30496 Par ch=1 c=64 v=127
30496 On ch=1 n=40 v=40
30497 Off ch=1 n=69 v=0
30560 On ch=1 n=52 v=43
30561 Off ch=1 n=40 v=0
30617 Off ch=1 n=71 v=0
30624 On ch=1 n=56 v=44
30625 Off ch=1 n=52 v=0
30684 Off ch=1 n=56 v=0
30688 On ch=1 n=62 v=42
30752 On ch=1 n=72 v=52
30752 Par ch=1 c=64 v=0
30753 Off ch=1 n=62 v=0
30816 On ch=1 n=71 v=43
30817 Off ch=1 n=72 v=0
30880 On ch=1 n=69 v=52
30880 On ch=1 n=45 v=50
30881 Off ch=1 n=71 v=0
30912 Off ch=1 n=45 v=0
30944 On ch=1 n=45 v=54
30976 Off ch=1 n=45 v=0
31001 Off ch=1 n=69 v=0
31008 On ch=1 n=45 v=66
31040 Off ch=1 n=45 v=0
31072 On ch=1 n=45 v=62
31104 Off ch=1 n=45 v=0
31136 On ch=1 n=45 v=63
31168 Off ch=1 n=45 v=0
31200 On ch=1 n=45 v=62
31232 Off ch=1 n=45 v=0
31264 On ch=1 n=64 v=60
31264 On ch=1 n=67 v=60
31264 On ch=1 n=70 v=60
31264 On ch=1 n=73 v=60
31264 On ch=1 n=45 v=70
31296 Off ch=1 n=45 v=0
31328 On ch=1 n=45 v=73
31360 Off ch=1 n=45 v=0
31392 On ch=1 n=45 v=73
31424 Off ch=1 n=45 v=0
31456 On ch=1 n=45 v=75
31488 Off ch=1 n=45 v=0
31520 On ch=1 n=45 v=68
31552 Off ch=1 n=45 v=0
31584 On ch=1 n=45 v=77
31616 Off ch=1 n=45 v=0
31648 Off ch=1 n=64 v=0
31648 Off ch=1 n=67 v=0
31648 Off ch=1 n=70 v=0
31648 Off ch=1 n=73 v=0
31648 On ch=1 n=65 v=65
31648 On ch=1 n=69 v=65
31648 On ch=1 n=74 v=65
31648 On ch=1 n=45 v=85
31680 Off ch=1 n=45 v=0
31712 On ch=1 n=45 v=75
31744 Off ch=1 n=45 v=0
31776 On ch=1 n=45 v=72
31808 Off ch=1 n=45 v=0
31840 On ch=1 n=45 v=76
31872 Off ch=1 n=45 v=0
31904 Off ch=1 n=65 v=0
31904 Off ch=1 n=69 v=0
31904 Off ch=1 n=74 v=0
31904 On ch=1 n=73 v=65
31904 On ch=1 n=76 v=65
31904 On ch=1 n=45 v=76
31936 Off ch=1 n=45 v=0
31968 Off ch=1 n=73 v=0
31968 Off ch=1 n=76 v=0
31968 On ch=1 n=74 v=60
31968 On ch=1 n=77 v=60
31968 On ch=1 n=45 v=74
32000 Off ch=1 n=45 v=0
32032 Off ch=1 n=74 v=0
32032 Off ch=1 n=77 v=0
32032 On ch=1 n=68 v=83
32032 On ch=1 n=74 v=83
32032 On ch=1 n=77 v=83
32032 On ch=1 n=45 v=71
32064 Off ch=1 n=45 v=0
32096 On ch=1 n=45 v=74
32128 Off ch=1 n=45 v=0
32160 On ch=1 n=45 v=69
32192 Off ch=1 n=45 v=0
32224 On ch=1 n=45 v=71
32256 Off ch=1 n=45 v=0
32288 Off ch=1 n=68 v=0
32288 Off ch=1 n=74 v=0
32288 Off ch=1 n=77 v=0
32288 On ch=1 n=68 v=87
32288 On ch=1 n=74 v=87
32288 On ch=1 n=77 v=87
32288 On ch=1 n=45 v=70
32320 Off ch=1 n=45 v=0
32352 On ch=1 n=45 v=69
32384 Off ch=1 n=45 v=0
32416 Off ch=1 n=68 v=0
32416 Off ch=1 n=74 v=0
32416 Off ch=1 n=77 v=0
32416 On ch=1 n=69 v=78
32416 On ch=1 n=72 v=78
32416 On ch=1 n=76 v=78
32416 On ch=1 n=45 v=70
32448 Off ch=1 n=45 v=0
32480 On ch=1 n=45 v=71
32512 Off ch=1 n=45 v=0
32544 On ch=1 n=45 v=75
32576 Off ch=1 n=45 v=0
32608 On ch=1 n=45 v=73
32640 Off ch=1 n=45 v=0
32672 On ch=1 n=45 v=72
32704 Off ch=1 n=45 v=0
32736 On ch=1 n=45 v=71
32768 Off ch=1 n=45 v=0
32800 Off ch=1 n=69 v=0
32800 Off ch=1 n=72 v=0
32800 Off ch=1 n=76 v=0
32800 On ch=1 n=65 v=67
32800 On ch=1 n=74 v=67
32800 On ch=1 n=38 v=66
32800 On ch=1 n=45 v=66
32832 Off ch=1 n=38 v=0
32832 Off ch=1 n=45 v=0
32864 On ch=1 n=38 v=69
32864 On ch=1 n=45 v=69
32896 Off ch=1 n=38 v=0
32896 Off ch=1 n=45 v=0
32928 On ch=1 n=38 v=65
32928 On ch=1 n=45 v=65
32960 Off ch=1 n=38 v=0
32960 Off ch=1 n=45 v=0
32992 On ch=1 n=38 v=64
32992 On ch=1 n=45 v=64
33024 Off ch=1 n=38 v=0
33024 Off ch=1 n=45 v=0
33056 On ch=1 n=64 v=64
33056 On ch=1 n=72 v=64
33056 On ch=1 n=38 v=69
33056 On ch=1 n=45 v=69
33061 Off ch=1 n=65 v=0
33061 Off ch=1 n=74 v=0
33088 Off ch=1 n=38 v=0
33088 Off ch=1 n=45 v=0
33120 On ch=1 n=62 v=72
33120 On ch=1 n=71 v=72
33120 On ch=1 n=38 v=67
33120 On ch=1 n=45 v=67
33121 Off ch=1 n=64 v=0
33121 Off ch=1 n=72 v=0
33152 Off ch=1 n=38 v=0
33152 Off ch=1 n=45 v=0
33184 On ch=1 n=60 v=68
33184 On ch=1 n=66 v=68
33184 On ch=1 n=69 v=68
33184 On ch=1 n=39 v=59
33184 On ch=1 n=45 v=59
33185 Off ch=1 n=62 v=0
33185 Off ch=1 n=71 v=0
33216 Off ch=1 n=39 v=0
33216 Off ch=1 n=45 v=0
33248 On ch=1 n=39 v=62
33248 On ch=1 n=45 v=62
33280 Off ch=1 n=39 v=0
33280 Off ch=1 n=45 v=0
33312 On ch=1 n=39 v=67
33312 On ch=1 n=45 v=67
33344 Off ch=1 n=39 v=0
33344 Off ch=1 n=45 v=0
33376 On ch=1 n=39 v=61
33376 On ch=1 n=45 v=61
33408 Off ch=1 n=39 v=0
33408 Off ch=1 n=45 v=0
33427 Off ch=1 n=60 v=0
33427 Off ch=1 n=66 v=0
33427 Off ch=1 n=69 v=0
33440 On ch=1 n=60 v=76
33440 On ch=1 n=69 v=76
33440 On ch=1 n=39 v=63
33440 On ch=1 n=45 v=63
33472 Off ch=1 n=39 v=0
33472 Off ch=1 n=45 v=0
33504 On ch=1 n=39 v=64
33504 On ch=1 n=45 v=64
33536 Off ch=1 n=39 v=0
33536 Off ch=1 n=45 v=0
33568 Off ch=1 n=60 v=0
33568 Off ch=1 n=69 v=0
33568 On ch=1 n=60 v=75
33568 On ch=1 n=69 v=75
33568 On ch=1 n=40 v=65
33568 On ch=1 n=45 v=65
33600 Off ch=1 n=40 v=0
33600 Off ch=1 n=45 v=0
33632 On ch=1 n=40 v=64
33632 On ch=1 n=45 v=64
33664 Off ch=1 n=40 v=0
33664 Off ch=1 n=45 v=0
33696 On ch=1 n=64 v=80
33696 On ch=1 n=72 v=80
33696 On ch=1 n=40 v=62
33696 On ch=1 n=45 v=62
33698 Off ch=1 n=60 v=0
33698 Off ch=1 n=69 v=0
33728 Off ch=1 n=40 v=0
33728 Off ch=1 n=45 v=0
33760 On ch=1 n=40 v=61
33760 On ch=1 n=45 v=61
33792 Off ch=1 n=40 v=0
33792 Off ch=1 n=45 v=0
33824 On ch=1 n=62 v=72
33824 On ch=1 n=71 v=72
33824 On ch=1 n=40 v=64
33824 On ch=1 n=44 v=64
33826 Off ch=1 n=64 v=0
33826 Off ch=1 n=72 v=0
33856 Off ch=1 n=40 v=0
33856 Off ch=1 n=44 v=0
33888 On ch=1 n=40 v=66
33888 On ch=1 n=44 v=66
33920 Off ch=1 n=40 v=0
33920 Off ch=1 n=44 v=0
33952 On ch=1 n=60 v=53
33952 On ch=1 n=69 v=53
33952 On ch=1 n=33 v=60
33952 On ch=1 n=45 v=60
33954 Off ch=1 n=62 v=0
33954 Off ch=1 n=71 v=0
33984 Off ch=1 n=33 v=0
33984 Off ch=1 n=45 v=0
34016 On ch=1 n=45 v=48
34048 Off ch=1 n=45 v=0
34080 On ch=1 n=45 v=55
34112 Off ch=1 n=45 v=0
34144 On ch=1 n=45 v=53
34176 Off ch=1 n=45 v=0
34208 On ch=1 n=45 v=45
34240 Off ch=1 n=45 v=0
34272 On ch=1 n=45 v=49
34304 Off ch=1 n=45 v=0
34316 Off ch=1 n=60 v=0
34316 Off ch=1 n=69 v=0
34336 On ch=1 n=64 v=67
34336 On ch=1 n=67 v=67
34336 On ch=1 n=70 v=67
34336 On ch=1 n=73 v=67
34336 On ch=1 n=45 v=57
34368 Off ch=1 n=45 v=0
34400 On ch=1 n=45 v=58
34432 Off ch=1 n=45 v=0
34464 On ch=1 n=45 v=58
34496 Off ch=1 n=45 v=0
34528 On ch=1 n=45 v=55
34560 Off ch=1 n=45 v=0
34592 On ch=1 n=45 v=57
34624 Off ch=1 n=45 v=0
34656 On ch=1 n=45 v=59
34688 Off ch=1 n=45 v=0
34720 Off ch=1 n=64 v=0
34720 Off ch=1 n=67 v=0
34720 Off ch=1 n=70 v=0
34720 Off ch=1 n=73 v=0
34720 On ch=1 n=65 v=64
34720 On ch=1 n=69 v=64
34720 On ch=1 n=74 v=64
34720 On ch=1 n=45 v=64
34752 Off ch=1 n=45 v=0
34784 On ch=1 n=45 v=62
34816 Off ch=1 n=45 v=0
34848 On ch=1 n=45 v=57
34880 Off ch=1 n=45 v=0
34912 On ch=1 n=45 v=63
34944 Off ch=1 n=45 v=0
34976 Off ch=1 n=65 v=0
34976 Off ch=1 n=69 v=0
34976 Off ch=1 n=74 v=0
34976 On ch=1 n=73 v=68
34976 On ch=1 n=76 v=68
34976 On ch=1 n=45 v=62
35008 Off ch=1 n=45 v=0
35040 Off ch=1 n=73 v=0
35040 Off ch=1 n=76 v=0
35040 On ch=1 n=74 v=62
35040 On ch=1 n=77 v=62
35040 On ch=1 n=45 v=68
35072 Off ch=1 n=45 v=0
35104 Off ch=1 n=74 v=0
35104 Off ch=1 n=77 v=0
35104 On ch=1 n=74 v=95
35104 On ch=1 n=77 v=95
35104 On ch=1 n=45 v=71
35136 Off ch=1 n=45 v=0
35168 On ch=1 n=45 v=71
35200 Off ch=1 n=45 v=0
35232 On ch=1 n=45 v=69
35264 Off ch=1 n=45 v=0
35296 On ch=1 n=45 v=72
35328 Off ch=1 n=45 v=0
35360 Off ch=1 n=74 v=0
35360 Off ch=1 n=77 v=0
35360 On ch=1 n=74 v=100
35360 On ch=1 n=77 v=100
35360 On ch=1 n=45 v=68
35392 Off ch=1 n=45 v=0
35424 On ch=1 n=45 v=70
35456 Off ch=1 n=45 v=0
35488 Off ch=1 n=74 v=0
35488 Off ch=1 n=77 v=0
35488 On ch=1 n=74 v=96
35488 On ch=1 n=77 v=96
35488 On ch=1 n=46 v=77
35520 Off ch=1 n=46 v=0
35552 On ch=1 n=46 v=69
35584 Off ch=1 n=46 v=0
35616 On ch=1 n=46 v=69
35648 Off ch=1 n=46 v=0
35680 On ch=1 n=46 v=71
35712 Off ch=1 n=46 v=0
35744 On ch=1 n=46 v=72
35776 Off ch=1 n=46 v=0
35808 On ch=1 n=46 v=75
35840 Off ch=1 n=46 v=0
35872 Off ch=1 n=74 v=0
35872 Off ch=1 n=77 v=0
35872 On ch=1 n=67 v=83
35872 On ch=1 n=75 v=83
35872 On ch=1 n=46 v=62
35904 Off ch=1 n=46 v=0
35936 On ch=1 n=46 v=67
35968 Off ch=1 n=46 v=0
36000 On ch=1 n=46 v=62
36032 Off ch=1 n=46 v=0
36064 On ch=1 n=46 v=61
36096 Off ch=1 n=46 v=0
36128 Off ch=1 n=67 v=0
36128 Off ch=1 n=75 v=0
36128 On ch=1 n=65 v=83
36128 On ch=1 n=74 v=83
36128 On ch=1 n=46 v=65
36160 Off ch=1 n=46 v=0
36192 Off ch=1 n=65 v=0
36192 Off ch=1 n=74 v=0
36192 On ch=1 n=63 v=81
36192 On ch=1 n=72 v=81
36192 On ch=1 n=46 v=63
36224 Off ch=1 n=46 v=0
36256 Off ch=1 n=63 v=0
36256 Off ch=1 n=72 v=0
36256 On ch=1 n=62 v=74
36256 On ch=1 n=65 v=74
36256 On ch=1 n=70 v=74
36256 On ch=1 n=46 v=53
36288 Off ch=1 n=46 v=0
36320 On ch=1 n=46 v=50
36352 Off ch=1 n=46 v=0
36384 On ch=1 n=46 v=51
36416 Off ch=1 n=46 v=0
36448 On ch=1 n=46 v=51
36480 Off ch=1 n=46 v=0
36512 Off ch=1 n=62 v=0
36512 Off ch=1 n=65 v=0
36512 Off ch=1 n=70 v=0
36512 On ch=1 n=62 v=78
36512 On ch=1 n=65 v=78
36512 On ch=1 n=69 v=78
36512 On ch=1 n=46 v=58
36544 Off ch=1 n=46 v=0
36576 On ch=1 n=46 v=52
36608 Off ch=1 n=46 v=0
36640 Off ch=1 n=62 v=0
36640 Off ch=1 n=65 v=0
36640 Off ch=1 n=69 v=0
36640 On ch=1 n=62 v=73
36640 On ch=1 n=65 v=73
36640 On ch=1 n=68 v=73
36640 On ch=1 n=47 v=55
36672 Off ch=1 n=47 v=0
36704 On ch=1 n=47 v=51
36736 Off ch=1 n=47 v=0
36768 On ch=1 n=47 v=50
36800 Off ch=1 n=47 v=0
36832 On ch=1 n=47 v=52
36864 Off ch=1 n=47 v=0
36896 Off ch=1 n=62 v=0
36896 Off ch=1 n=65 v=0
36896 Off ch=1 n=68 v=0
36896 On ch=1 n=62 v=74
36896 On ch=1 n=65 v=74
36896 On ch=1 n=68 v=74
36896 On ch=1 n=47 v=48
36928 Off ch=1 n=47 v=0
36960 On ch=1 n=47 v=54
36992 Off ch=1 n=47 v=0
37024 Off ch=1 n=62 v=0
37024 Off ch=1 n=65 v=0
37024 Off ch=1 n=68 v=0
37024 On ch=1 n=60 v=60
37024 On ch=1 n=64 v=60
37024 On ch=1 n=69 v=60
37024 On ch=1 n=48 v=61
37280 Off ch=1 n=60 v=0
37280 Off ch=1 n=64 v=0
37280 Off ch=1 n=69 v=0
37280 Off ch=1 n=48 v=0
37408 On ch=1 n=62 v=50
37408 On ch=1 n=64 v=50
37408 On ch=1 n=71 v=50
37408 On ch=1 n=52 v=52
37408 On ch=1 n=56 v=52
37536 Off ch=1 n=62 v=0
37536 Off ch=1 n=64 v=0
37536 Off ch=1 n=71 v=0
37536 Off ch=1 n=52 v=0
37536 Off ch=1 n=56 v=0
37792 On ch=1 n=57 v=44
37792 On ch=1 n=33 v=40
37834 Off ch=1 n=57 v=0
37834 On ch=1 n=60 v=47
37877 Off ch=1 n=60 v=0
37877 On ch=1 n=64 v=46
37920 Off ch=1 n=64 v=0
37920 On ch=1 n=69 v=52
37920 Off ch=1 n=33 v=0
37962 Off ch=1 n=69 v=0
37962 On ch=1 n=72 v=49
38005 Off ch=1 n=72 v=0
38005 On ch=1 n=76 v=50
38048 Off ch=1 n=76 v=0
38048 On ch=1 n=74 v=45
38048 On ch=1 n=57 v=42
38048 On ch=1 n=60 v=42
38048 On ch=1 n=64 v=42
38090 Off ch=1 n=74 v=0
38090 On ch=1 n=72 v=37
38112 Off ch=1 n=57 v=0
38112 Off ch=1 n=60 v=0
38112 Off ch=1 n=64 v=0
38133 Off ch=1 n=72 v=0
38133 On ch=1 n=71 v=38
38173 Off ch=1 n=71 v=0
38176 On ch=1 n=69 v=39
38176 On ch=1 n=57 v=37
38176 On ch=1 n=60 v=37
38176 On ch=1 n=64 v=37
38218 Off ch=1 n=69 v=0
38218 On ch=1 n=72 v=45
38240 Off ch=1 n=57 v=0
38240 Off ch=1 n=60 v=0
38240 Off ch=1 n=64 v=0
38261 Off ch=1 n=72 v=0
38261 On ch=1 n=76 v=48
38304 Off ch=1 n=76 v=0
38304 On ch=1 n=81 v=46
38346 Off ch=1 n=81 v=0
38346 On ch=1 n=84 v=44
38389 Off ch=1 n=84 v=0
38389 On ch=1 n=88 v=44
38432 Off ch=1 n=88 v=0
38432 On ch=1 n=86 v=43
38432 On ch=1 n=57 v=39
38432 On ch=1 n=60 v=39
38432 On ch=1 n=64 v=39
38474 Off ch=1 n=86 v=0
38474 On ch=1 n=84 v=40
38496 Off ch=1 n=57 v=0
38496 Off ch=1 n=60 v=0
38496 Off ch=1 n=64 v=0
38517 Off ch=1 n=84 v=0
38517 On ch=1 n=83 v=38
38557 Off ch=1 n=83 v=0
38560 On ch=1 n=81 v=32
38560 On ch=1 n=57 v=49
38560 On ch=1 n=60 v=49
38560 On ch=1 n=64 v=49
38602 Off ch=1 n=81 v=0
38602 On ch=1 n=84 v=49
38624 Off ch=1 n=57 v=0
38624 Off ch=1 n=60 v=0
38624 Off ch=1 n=64 v=0
38645 Off ch=1 n=84 v=0
38645 On ch=1 n=88 v=50
38688 Off ch=1 n=88 v=0
38688 On ch=1 n=93 v=49
38730 Off ch=1 n=93 v=0
38730 On ch=1 n=96 v=48
38773 Off ch=1 n=96 v=0
38773 On ch=1 n=100 v=46
38816 Off ch=1 n=100 v=0
38816 On ch=1 n=98 v=43
38816 On ch=1 n=57 v=38
38816 On ch=1 n=60 v=38
38816 On ch=1 n=64 v=38
38858 Off ch=1 n=98 v=0
38858 On ch=1 n=96 v=39
38880 Off ch=1 n=57 v=0
38880 Off ch=1 n=60 v=0
38880 Off ch=1 n=64 v=0
38901 Off ch=1 n=96 v=0
38901 On ch=1 n=95 v=40
38944 Off ch=1 n=95 v=0
38944 On ch=1 n=94 v=36
38944 On ch=1 n=57 v=44
38944 On ch=1 n=60 v=44
38944 On ch=1 n=64 v=44
38986 Off ch=1 n=94 v=0
38986 On ch=1 n=93 v=36
39008 Off ch=1 n=57 v=0
39008 Off ch=1 n=60 v=0
39008 Off ch=1 n=64 v=0
39029 Off ch=1 n=93 v=0
39029 On ch=1 n=92 v=41
39072 Off ch=1 n=92 v=0
39072 On ch=1 n=91 v=41
39114 Off ch=1 n=91 v=0
39114 On ch=1 n=90 v=42
39157 Off ch=1 n=90 v=0
39157 On ch=1 n=89 v=40
39200 Off ch=1 n=89 v=0
39200 On ch=1 n=88 v=41
39242 Off ch=1 n=88 v=0
39242 On ch=1 n=87 v=44
39285 Off ch=1 n=87 v=0
39285 On ch=1 n=86 v=43
39328 Off ch=1 n=86 v=0
39328 On ch=1 n=85 v=53
39370 Off ch=1 n=85 v=0
39370 On ch=1 n=84 v=43
39413 Off ch=1 n=84 v=0
39413 On ch=1 n=83 v=40
39456 Off ch=1 n=83 v=0
39456 On ch=1 n=82 v=38
39498 Off ch=1 n=82 v=0
39498 On ch=1 n=81 v=41
39541 Off ch=1 n=81 v=0
39541 On ch=1 n=80 v=38
39584 Off ch=1 n=80 v=0
39584 On ch=1 n=79 v=40
39626 Off ch=1 n=79 v=0
39626 On ch=1 n=78 v=42
39669 Off ch=1 n=78 v=0
39669 On ch=1 n=77 v=46
39712 Off ch=1 n=77 v=0
39712 On ch=1 n=76 v=38
39776 On ch=1 n=75 v=38
39777 Off ch=1 n=76 v=0
39840 On ch=1 n=76 v=44
39841 Off ch=1 n=75 v=0
39904 On ch=1 n=71 v=40
39905 Off ch=1 n=76 v=0
39968 On ch=1 n=74 v=48
39969 Off ch=1 n=71 v=0
40032 On ch=1 n=72 v=45
40033 Off ch=1 n=74 v=0
40096 On ch=1 n=69 v=41
40096 Par ch=1 c=64 v=127
40096 On ch=1 n=45 v=37
40097 Off ch=1 n=72 v=0
40160 On ch=1 n=52 v=42
40161 Off ch=1 n=45 v=0
40217 Off ch=1 n=69 v=0
40224 On ch=1 n=57 v=45
40225 Off ch=1 n=52 v=0
40284 Off ch=1 n=57 v=0
40288 On ch=1 n=60 v=37
40352 On ch=1 n=64 v=41
40352 Par ch=1 c=64 v=0
40353 Off ch=1 n=60 v=0
40416 On ch=1 n=69 v=50
40417 Off ch=1 n=64 v=0
40480 On ch=1 n=71 v=58
40480 Par ch=1 c=64 v=127
40480 On ch=1 n=40 v=39
40481 Off ch=1 n=69 v=0
40544 On ch=1 n=52 v=47
40545 Off ch=1 n=40 v=0
40601 Off ch=1 n=71 v=0
40608 On ch=1 n=56 v=46
40609 Off ch=1 n=52 v=0
40668 Off ch=1 n=56 v=0
40672 On ch=1 n=64 v=38
40736 On ch=1 n=68 v=41
40736 Par ch=1 c=64 v=0
40737 Off ch=1 n=64 v=0
40800 On ch=1 n=71 v=49
40801 Off ch=1 n=68 v=0
40864 On ch=1 n=72 v=52
40864 Par ch=1 c=64 v=127
40864 On ch=1 n=45 v=39
40865 Off ch=1 n=71 v=0
40928 On ch=1 n=52 v=36
40929 Off ch=1 n=45 v=0
40985 Off ch=1 n=72 v=0
40992 On ch=1 n=57 v=46
40993 Off ch=1 n=52 v=0
41052 Off ch=1 n=57 v=0
41056 On ch=1 n=64 v=36
41120 On ch=1 n=76 v=46
41120 Par ch=1 c=64 v=0
41121 Off ch=1 n=64 v=0
41184 On ch=1 n=75 v=46
41185 Off ch=1 n=76 v=0
41248 On ch=1 n=76 v=47
41249 Off ch=1 n=75 v=0
41312 On ch=1 n=75 v=41
41313 Off ch=1 n=76 v=0
41376 On ch=1 n=76 v=41
41377 Off ch=1 n=75 v=0
41440 On ch=1 n=71 v=38
41441 Off ch=1 n=76 v=0
41504 On ch=1 n=74 v=40
41505 Off ch=1 n=71 v=0
41568 On ch=1 n=72 v=37
41569 Off ch=1 n=74 v=0
41632 On ch=1 n=69 v=36
41632 Par ch=1 c=64 v=127
41632 On ch=1 n=45 v=37
41633 Off ch=1 n=72 v=0
41696 On ch=1 n=52 v=35
41697 Off ch=1 n=45 v=0
41753 Off ch=1 n=69 v=0
41760 On ch=1 n=57 v=46
41761 Off ch=1 n=52 v=0
41820 Off ch=1 n=57 v=0
41824 On ch=1 n=60 v=40
41888 On ch=1 n=64 v=43
41888 Par ch=1 c=64 v=0
41889 Off ch=1 n=60 v=0
41952 On ch=1 n=69 v=49
41953 Off ch=1 n=64 v=0
42016 On ch=1 n=71 v=54
42016 Par ch=1 c=64 v=127
42016 On ch=1 n=40 v=43
42017 Off ch=1 n=69 v=0
42080 On ch=1 n=52 v=48
42081 Off ch=1 n=40 v=0
42137 Off ch=1 n=71 v=0
42144 On ch=1 n=56 v=45
42145 Off ch=1 n=52 v=0
42204 Off ch=1 n=56 v=0
42208 On ch=1 n=62 v=36
42272 On ch=1 n=72 v=43
42272 Par ch=1 c=64 v=0
42273 Off ch=1 n=62 v=0
42336 On ch=1 n=71 v=40
42337 Off ch=1 n=72 v=0
42400 On ch=1 n=69 v=38
42400 Par ch=1 c=64 v=127
42400 On ch=1 n=45 v=40
42401 Off ch=1 n=71 v=0
42464 On ch=1 n=52 v=45
42465 Off ch=1 n=45 v=0
42521 Off ch=1 n=69 v=0
42528 On ch=1 n=57 v=45
42529 Off ch=1 n=52 v=0
42588 Off ch=1 n=57 v=0
42592 On ch=1 n=71 v=52
42656 On ch=1 n=72 v=82
42656 Par ch=1 c=64 v=0
42657 Off ch=1 n=71 v=0
42720 On ch=1 n=74 v=86
42721 Off ch=1 n=72 v=0
42784 On ch=1 n=76 v=86
42784 Par ch=1 c=64 v=127
42784 On ch=1 n=48 v=76
42785 Off ch=1 n=74 v=0
42848 On ch=1 n=55 v=88
42849 Off ch=1 n=48 v=0
42912 On ch=1 n=60 v=94
42913 Off ch=1 n=55 v=0
42966 Off ch=1 n=76 v=0
42972 Off ch=1 n=60 v=0
42976 On ch=1 n=67 v=61
43040 On ch=1 n=77 v=75
43040 Par ch=1 c=64 v=0
43041 Off ch=1 n=67 v=0
43104 On ch=1 n=76 v=85
43105 Off ch=1 n=77 v=0
43168 On ch=1 n=74 v=81
43168 Par ch=1 c=64 v=127
43168 On ch=1 n=43 v=68
43169 Off ch=1 n=76 v=0
43232 On ch=1 n=55 v=83
43233 Off ch=1 n=43 v=0
43296 On ch=1 n=59 v=93
43297 Off ch=1 n=55 v=0
43350 Off ch=1 n=74 v=0
43356 Off ch=1 n=59 v=0
43360 On ch=1 n=65 v=64
43424 On ch=1 n=76 v=76
43424 Par ch=1 c=64 v=0
43425 Off ch=1 n=65 v=0
43488 On ch=1 n=74 v=80
43489 Off ch=1 n=76 v=0
43552 On ch=1 n=72 v=68
43552 Par ch=1 c=64 v=127
43552 On ch=1 n=45 v=67
43553 Off ch=1 n=74 v=0
43616 On ch=1 n=52 v=77
43617 Off ch=1 n=45 v=0
43680 On ch=1 n=57 v=80
43681 Off ch=1 n=52 v=0
43734 Off ch=1 n=72 v=0
43740 Off ch=1 n=57 v=0
43744 On ch=1 n=64 v=55
43808 On ch=1 n=74 v=70
43808 Par ch=1 c=64 v=0
43809 Off ch=1 n=64 v=0
43872 On ch=1 n=72 v=70
43873 Off ch=1 n=74 v=0
43936 On ch=1 n=71 v=51
43936 On ch=1 n=40 v=54
43937 Off ch=1 n=72 v=0
43968 Off ch=1 n=40 v=0
44000 On ch=1 n=52 v=64
44057 Off ch=1 n=71 v=0
44064 On ch=1 n=64 v=82
44065 Off ch=1 n=52 v=0
44124 Off ch=1 n=64 v=0
44128 On ch=1 n=64 v=52
44192 On ch=1 n=76 v=66
44193 Off ch=1 n=64 v=0
44252 Off ch=1 n=76 v=0
44256 On ch=1 n=64 v=49
44320 On ch=1 n=76 v=60
44321 Off ch=1 n=64 v=0
44380 Off ch=1 n=76 v=0
44384 On ch=1 n=76 v=55
44448 On ch=1 n=88 v=64
44449 Off ch=1 n=76 v=0
44508 Off ch=1 n=88 v=0
44512 On ch=1 n=75 v=52
44576 On ch=1 n=76 v=55
44577 Off ch=1 n=75 v=0
44636 Off ch=1 n=76 v=0
44640 On ch=1 n=75 v=44
44704 On ch=1 n=76 v=43
44705 Off ch=1 n=75 v=0
44764 Off ch=1 n=76 v=0
44768 On ch=1 n=75 v=42
44832 On ch=1 n=76 v=50
44833 Off ch=1 n=75 v=0
44892 Off ch=1 n=76 v=0
44896 On ch=1 n=75 v=38
44960 On ch=1 n=76 v=42
44961 Off ch=1 n=75 v=0
45024 On ch=1 n=75 v=45
45025 Off ch=1 n=76 v=0
45088 On ch=1 n=76 v=51
45089 Off ch=1 n=75 v=0
45152 On ch=1 n=75 v=45
45153 Off ch=1 n=76 v=0
45216 On ch=1 n=76 v=52
45217 Off ch=1 n=75 v=0
45280 On ch=1 n=71 v=37
45281 Off ch=1 n=76 v=0
45344 On ch=1 n=74 v=38
45345 Off ch=1 n=71 v=0
45408 On ch=1 n=72 v=41
45409 Off ch=1 n=74 v=0
45472 On ch=1 n=69 v=36
45472 Par ch=1 c=64 v=127
45472 On ch=1 n=45 v=36
45473 Off ch=1 n=72 v=0
45536 On ch=1 n=52 v=39
45537 Off ch=1 n=45 v=0
45593 Off ch=1 n=69 v=0
45600 On ch=1 n=57 v=46
45601 Off ch=1 n=52 v=0
45660 Off ch=1 n=57 v=0
45664 On ch=1 n=60 v=37
45728 On ch=1 n=64 v=40
45728 Par ch=1 c=64 v=0
45729 Off ch=1 n=60 v=0
45792 On ch=1 n=69 v=48
45793 Off ch=1 n=64 v=0
45856 On ch=1 n=71 v=50
45856 Par ch=1 c=64 v=127
45856 On ch=1 n=40 v=37
45857 Off ch=1 n=69 v=0
45920 On ch=1 n=52 v=38
45921 Off ch=1 n=40 v=0
45977 Off ch=1 n=71 v=0
45984 On ch=1 n=56 v=47
45985 Off ch=1 n=52 v=0
46044 Off ch=1 n=56 v=0
46048 On ch=1 n=64 v=39
46112 On ch=1 n=68 v=43
46112 Par ch=1 c=64 v=0
46113 Off ch=1 n=64 v=0
46176 On ch=1 n=71 v=48
46177 Off ch=1 n=68 v=0
46240 On ch=1 n=72 v=49
46240 On ch=1 n=45 v=44
46241 Off ch=1 n=71 v=0
46270 Par ch=1 c=64 v=127
46304 On ch=1 n=52 v=50
46305 Off ch=1 n=45 v=0
46361 Off ch=1 n=72 v=0
46368 On ch=1 n=57 v=43
46369 Off ch=1 n=52 v=0
46428 Off ch=1 n=57 v=0
46432 On ch=1 n=64 v=39
46496 On ch=1 n=76 v=46
46496 Par ch=1 c=64 v=0
46497 Off ch=1 n=64 v=0
46560 On ch=1 n=75 v=43
46561 Off ch=1 n=76 v=0
46624 On ch=1 n=76 v=44
46625 Off ch=1 n=75 v=0
46688 On ch=1 n=75 v=41
46689 Off ch=1 n=76 v=0
46752 On ch=1 n=76 v=49
46753 Off ch=1 n=75 v=0
46816 On ch=1 n=71 v=42
46817 Off ch=1 n=76 v=0
46880 On ch=1 n=74 v=48
46881 Off ch=1 n=71 v=0
46944 On ch=1 n=72 v=44
46945 Off ch=1 n=74 v=0
47008 On ch=1 n=69 v=43
47008 Par ch=1 c=64 v=127
47008 On ch=1 n=45 v=38
47009 Off ch=1 n=72 v=0
47072 On ch=1 n=52 v=42
47073 Off ch=1 n=45 v=0
47129 Off ch=1 n=69 v=0
47136 On ch=1 n=57 v=47
47137 Off ch=1 n=52 v=0
47196 Off ch=1 n=57 v=0
47200 On ch=1 n=60 v=42
47264 On ch=1 n=64 v=44
47264 Par ch=1 c=64 v=0
47265 Off ch=1 n=60 v=0
47328 On ch=1 n=69 v=46
47329 Off ch=1 n=64 v=0
47392 On ch=1 n=71 v=44
47392 Par ch=1 c=64 v=127
47392 On ch=1 n=40 v=42
47393 Off ch=1 n=69 v=0
47456 On ch=1 n=52 v=46
47457 Off ch=1 n=40 v=0
47513 Off ch=1 n=71 v=0
47520 On ch=1 n=56 v=45
47521 Off ch=1 n=52 v=0
47580 Off ch=1 n=56 v=0
47584 On ch=1 n=64 v=38
47648 On ch=1 n=72 v=47
47648 Par ch=1 c=64 v=0
47649 Off ch=1 n=64 v=0
47712 On ch=1 n=71 v=40
47713 Off ch=1 n=72 v=0
47776 On ch=1 n=69 v=38
47776 On ch=1 n=33 v=44
47776 On ch=1 n=45 v=44
47777 Off ch=1 n=71 v=0
48019 Off ch=1 n=69 v=0
48032 Off ch=1 n=33 v=0
48032 Off ch=1 n=45 v=0