480 On ch=1 n=72 v=82
672 Off ch=1 n=72 v=63
720 On ch=1 n=72 v=82
912 Off ch=1 n=72 v=62
960 On ch=1 n=72 v=78
1080 Off ch=1 n=72 v=64
1080 On ch=1 n=71 v=78
1200 Off ch=1 n=71 v=66
1200 On ch=1 n=69 v=81
1320 Off ch=1 n=69 v=65
1320 On ch=1 n=71 v=81
1440 Off ch=1 n=71 v=64
1440 On ch=1 n=72 v=82
1680 Off ch=1 n=72 v=62
1680 On ch=1 n=72 v=79
1716 Off ch=1 n=72 v=58
1716 On ch=1 n=74 v=80
1752 Off ch=1 n=74 v=58
1752 On ch=1 n=72 v=82
1788 Off ch=1 n=72 v=54
1788 On ch=1 n=71 v=82
1824 Off ch=1 n=71 v=55
1824 On ch=1 n=72 v=78
1860 Off ch=1 n=72 v=58
1860 On ch=1 n=76 v=78
1920 Off ch=1 n=76 v=55
1920 On ch=1 n=79 v=81
2400 Off ch=1 n=79 v=64
2400 On ch=1 n=77 v=79
2520 Off ch=1 n=77 v=63
2520 On ch=1 n=81 v=79
2760 Off ch=1 n=81 v=65
2760 On ch=1 n=79 v=81
2820 Off ch=1 n=79 v=54
2820 On ch=1 n=77 v=79
2880 Off ch=1 n=77 v=55
2880 On ch=1 n=76 v=82
3000 Off ch=1 n=76 v=65
3000 On ch=1 n=79 v=78
3240 Off ch=1 n=79 v=63
3240 On ch=1 n=77 v=79
3300 Off ch=1 n=77 v=56
3300 On ch=1 n=76 v=82
3360 Off ch=1 n=76 v=54
3360 On ch=1 n=74 v=78
3420 Off ch=1 n=74 v=57
3420 On ch=1 n=76 v=82
3480 Off ch=1 n=76 v=55
3480 On ch=1 n=77 v=79
3540 Off ch=1 n=77 v=54
3540 On ch=1 n=76 v=78
3600 Off ch=1 n=76 v=57
3600 On ch=1 n=79 v=81
3660 Off ch=1 n=79 v=56
3660 On ch=1 n=77 v=78
3720 Off ch=1 n=77 v=54
3720 On ch=1 n=76 v=78
3780 Off ch=1 n=76 v=55
3780 On ch=1 n=74 v=82
3840 Off ch=1 n=74 v=55
3840 On ch=1 n=72 v=80
4080 Off ch=1 n=72 v=64
4080 On ch=1 n=71 v=78
4200 Off ch=1 n=71 v=62
4200 On ch=1 n=67 v=79
4296 Off ch=1 n=67 v=63
4300 On ch=1 n=67 v=79
4320 On ch=1 n=72 v=81
4330 Off ch=1 n=67 v=65
4512 Off ch=1 n=72 v=62
4560 On ch=1 n=72 v=79
4752 Off ch=1 n=72 v=62
4800 On ch=1 n=72 v=81
4920 Off ch=1 n=72 v=66
4920 On ch=1 n=71 v=78
5040 Off ch=1 n=71 v=64
5040 On ch=1 n=69 v=80
5160 Off ch=1 n=69 v=66
5160 On ch=1 n=71 v=80
5280 Off ch=1 n=71 v=62
5280 On ch=1 n=72 v=81
5520 Off ch=1 n=72 v=64
5520 On ch=1 n=72 v=80
5556 Off ch=1 n=72 v=58
5556 On ch=1 n=74 v=78
5592 Off ch=1 n=74 v=57
5592 On ch=1 n=72 v=80
5628 Off ch=1 n=72 v=57
5628 On ch=1 n=71 v=80
5664 Off ch=1 n=71 v=56
5664 On ch=1 n=72 v=78
5700 Off ch=1 n=72 v=56
5700 On ch=1 n=76 v=82
5760 Off ch=1 n=76 v=57
5760 On ch=1 n=79 v=78
6240 Off ch=1 n=79 v=63
6240 On ch=1 n=77 v=78
6540 Off ch=1 n=77 v=63
6540 On ch=1 n=81 v=82
6600 Off ch=1 n=81 v=58
6600 On ch=1 n=79 v=82
6660 Off ch=1 n=79 v=54
6660 On ch=1 n=77 v=80
6720 Off ch=1 n=77 v=58
6720 On ch=1 n=76 v=82
6780 Off ch=1 n=76 v=55
6780 On ch=1 n=79 v=81
6840 Off ch=1 n=79 v=54
6840 On ch=1 n=77 v=79
6900 Off ch=1 n=77 v=54
6900 On ch=1 n=76 v=81
6960 Off ch=1 n=76 v=57
6960 On ch=1 n=74 v=78
7020 Off ch=1 n=74 v=58
7020 On ch=1 n=77 v=82
7080 Off ch=1 n=77 v=55
7080 On ch=1 n=76 v=82
7140 Off ch=1 n=76 v=55
7140 On ch=1 n=74 v=78
7200 Off ch=1 n=74 v=56
7200 On ch=1 n=72 v=81
7248 Off ch=1 n=72 v=56
7248 On ch=1 n=74 v=81
7296 Off ch=1 n=74 v=56
7296 On ch=1 n=72 v=81
7344 Off ch=1 n=72 v=55
7344 On ch=1 n=71 v=81
7392 Off ch=1 n=71 v=57
7392 On ch=1 n=72 v=79
7440 Off ch=1 n=72 v=54
7440 On ch=1 n=76 v=80
7560 Off ch=1 n=76 v=64
7560 On ch=1 n=74 v=79
7680 Off ch=1 n=74 v=62
7680 On ch=1 n=72 v=82
7680 On ch=1 n=64 v=81
7920 Off ch=1 n=64 v=62
7920 Off ch=1 n=72 v=64
8280 On ch=1 n=67 v=81
8352 Off ch=1 n=67 v=62
8400 On ch=1 n=72 v=78
8472 Off ch=1 n=72 v=63
8520 On ch=1 n=76 v=81
8592 Off ch=1 n=76 v=65
8640 On ch=1 n=77 v=81
8820 Off ch=1 n=77 v=62
8820 On ch=1 n=74 v=80
8880 Off ch=1 n=74 v=54
8880 On ch=1 n=71 v=82
9120 Off ch=1 n=71 v=66
9240 On ch=1 n=67 v=82
9312 Off ch=1 n=67 v=64
9360 On ch=1 n=71 v=79
9432 Off ch=1 n=71 v=66
9480 On ch=1 n=74 v=82
9552 Off ch=1 n=74 v=63
9600 On ch=1 n=76 v=79
9780 Off ch=1 n=76 v=64
9780 On ch=1 n=72 v=78
9840 Off ch=1 n=72 v=57
9840 On ch=1 n=67 v=78
10080 Off ch=1 n=67 v=64
10200 On ch=1 n=67 v=80
10260 Off ch=1 n=67 v=55
10260 On ch=1 n=69 v=80
10320 Off ch=1 n=69 v=57
10320 On ch=1 n=71 v=80
10380 Off ch=1 n=71 v=58
10380 On ch=1 n=72 v=81
10440 Off ch=1 n=72 v=55
10440 On ch=1 n=74 v=80
10500 Off ch=1 n=74 v=57
10500 On ch=1 n=76 v=78
10560 Off ch=1 n=76 v=57
10560 On ch=1 n=79 v=78
10620 Off ch=1 n=79 v=58
10620 On ch=1 n=77 v=79
10680 Off ch=1 n=77 v=58
10680 On ch=1 n=76 v=78
10740 Off ch=1 n=76 v=54
10740 On ch=1 n=74 v=79
10800 Off ch=1 n=74 v=55
10800 On ch=1 n=72 v=80
10920 Off ch=1 n=72 v=65
10920 On ch=1 n=71 v=80
11040 Off ch=1 n=71 v=63
11160 On ch=1 n=79 v=78
11220 Off ch=1 n=79 v=55
11220 On ch=1 n=81 v=80
11280 Off ch=1 n=81 v=56
11280 On ch=1 n=83 v=81
11340 Off ch=1 n=83 v=58
11340 On ch=1 n=84 v=78
11400 Off ch=1 n=84 v=55
11400 On ch=1 n=86 v=82
11460 Off ch=1 n=86 v=57
11460 On ch=1 n=87 v=82
11520 Off ch=1 n=87 v=58
11520 On ch=1 n=88 v=78
11580 Off ch=1 n=88 v=55
11580 On ch=1 n=87 v=81
11640 Off ch=1 n=87 v=58
11640 On ch=1 n=89 v=81
11700 Off ch=1 n=89 v=54
11700 On ch=1 n=88 v=78
11760 Off ch=1 n=88 v=57
11760 On ch=1 n=86 v=80
11820 Off ch=1 n=86 v=58
11820 On ch=1 n=84 v=80
11880 Off ch=1 n=84 v=55
11880 On ch=1 n=83 v=77
11940 Off ch=1 n=83 v=57
11940 On ch=1 n=81 v=76
12000 Off ch=1 n=81 v=56
12000 On ch=1 n=79 v=79
12036 Off ch=1 n=79 v=56
12060 On ch=1 n=88 v=79
12096 Off ch=1 n=88 v=57
12120 On ch=1 n=86 v=77
12156 Off ch=1 n=86 v=58
12180 On ch=1 n=84 v=76
12216 Off ch=1 n=84 v=58
12240 On ch=1 n=83 v=73
12276 Off ch=1 n=83 v=55
12300 On ch=1 n=81 v=76
12336 Off ch=1 n=81 v=56
12360 On ch=1 n=79 v=76
12396 Off ch=1 n=79 v=56
12420 On ch=1 n=77 v=76
12456 Off ch=1 n=77 v=54
12480 On ch=1 n=76 v=76
12516 Off ch=1 n=76 v=56
12540 On ch=1 n=84 v=73
12576 Off ch=1 n=84 v=57
12600 On ch=1 n=83 v=71
12636 Off ch=1 n=83 v=54
12660 On ch=1 n=81 v=75
12696 Off ch=1 n=81 v=55
12720 On ch=1 n=79 v=74
12756 Off ch=1 n=79 v=57
12780 On ch=1 n=77 v=72
12816 Off ch=1 n=77 v=55
12840 On ch=1 n=76 v=72
12876 Off ch=1 n=76 v=55
12900 On ch=1 n=74 v=69
12936 Off ch=1 n=74 v=58
12960 On ch=1 n=72 v=80
13152 Off ch=1 n=72 v=64
13200 On ch=1 n=72 v=78
13392 Off ch=1 n=72 v=65
13440 On ch=1 n=72 v=80
13560 Off ch=1 n=72 v=66
13560 On ch=1 n=71 v=82
13680 Off ch=1 n=71 v=62
13680 On ch=1 n=69 v=80
13800 Off ch=1 n=69 v=66
13800 On ch=1 n=71 v=79
13920 Off ch=1 n=71 v=62
13920 On ch=1 n=72 v=82
14160 Off ch=1 n=72 v=63
14160 On ch=1 n=72 v=79
14196 Off ch=1 n=72 v=55
14196 On ch=1 n=74 v=79
14232 Off ch=1 n=74 v=57
14232 On ch=1 n=72 v=78
14268 Off ch=1 n=72 v=58
14268 On ch=1 n=71 v=82
14304 Off ch=1 n=71 v=57
14304 On ch=1 n=72 v=82
14340 Off ch=1 n=72 v=56
14340 On ch=1 n=76 v=79
14400 Off ch=1 n=76 v=58
14400 On ch=1 n=79 v=80
14880 Off ch=1 n=79 v=63
14880 On ch=1 n=77 v=82
15180 Off ch=1 n=77 v=62
15180 On ch=1 n=81 v=80
15240 Off ch=1 n=81 v=54
15240 On ch=1 n=79 v=81
15300 Off ch=1 n=79 v=57
15300 On ch=1 n=77 v=80
15360 Off ch=1 n=77 v=56
15360 On ch=1 n=76 v=82
15420 Off ch=1 n=76 v=57
15420 On ch=1 n=79 v=82
15480 Off ch=1 n=79 v=57
15480 On ch=1 n=77 v=82
15540 Off ch=1 n=77 v=57
15540 On ch=1 n=76 v=78
15600 Off ch=1 n=76 v=56
15600 On ch=1 n=74 v=80
15660 Off ch=1 n=74 v=54
15660 On ch=1 n=77 v=78
15720 Off ch=1 n=77 v=58
15720 On ch=1 n=76 v=82
15780 Off ch=1 n=76 v=57
15780 On ch=1 n=74 v=78
15840 Off ch=1 n=74 v=56
15840 On ch=1 n=72 v=79
15888 Off ch=1 n=72 v=58
15888 On ch=1 n=74 v=81
15936 Off ch=1 n=74 v=54
15936 On ch=1 n=72 v=80
15984 Off ch=1 n=72 v=57
15984 On ch=1 n=71 v=81
16032 Off ch=1 n=71 v=56
16032 On ch=1 n=72 v=81
16080 Off ch=1 n=72 v=56
16080 On ch=1 n=76 v=79
16200 Off ch=1 n=76 v=62
16200 On ch=1 n=74 v=80
16320 Off ch=1 n=74 v=62
16320 On ch=1 n=72 v=79
16320 On ch=1 n=64 v=82
16560 Off ch=1 n=64 v=64
16560 Off ch=1 n=72 v=63
16860 On ch=1 n=72 v=81
16920 Off ch=1 n=72 v=58
16920 On ch=1 n=74 v=80
16980 Off ch=1 n=74 v=56
16980 On ch=1 n=76 v=82
17040 Off ch=1 n=76 v=58
17040 On ch=1 n=77 v=84
17100 Off ch=1 n=77 v=54
17100 On ch=1 n=79 v=85
17160 Off ch=1 n=79 v=55
17160 On ch=1 n=81 v=85
17220 Off ch=1 n=81 v=54
17220 On ch=1 n=83 v=86
17280 Off ch=1 n=83 v=56
17280 On ch=1 n=84 v=91
17640 Off ch=1 n=84 v=64
17640 On ch=1 n=81 v=83
17760 Off ch=1 n=81 v=66
17760 On ch=1 n=78 v=82
17880 Off ch=1 n=78 v=66
17880 On ch=1 n=72 v=80
17904 Off ch=1 n=72 v=46
17904 On ch=1 n=74 v=81
17928 Off ch=1 n=74 v=50
17928 On ch=1 n=72 v=80
17952 Off ch=1 n=72 v=46
17952 On ch=1 n=71 v=79
17976 Off ch=1 n=71 v=48
17976 On ch=1 n=72 v=82
18000 Off ch=1 n=72 v=46
18000 On ch=1 n=74 v=78
18072 Off ch=1 n=74 v=64
18120 On ch=1 n=69 v=79
18192 Off ch=1 n=69 v=63
18240 On ch=1 n=72 v=82
18480 Off ch=1 n=72 v=62
18480 On ch=1 n=71 v=82
18720 Off ch=1 n=71 v=64
18780 On ch=1 n=67 v=80
18840 Off ch=1 n=67 v=58
18840 On ch=1 n=69 v=82
18900 Off ch=1 n=69 v=55
18900 On ch=1 n=71 v=79
18960 Off ch=1 n=71 v=56
18960 On ch=1 n=72 v=82
19020 Off ch=1 n=72 v=55
19020 On ch=1 n=74 v=79
19080 Off ch=1 n=74 v=57
19080 On ch=1 n=76 v=78
19140 Off ch=1 n=76 v=56
19140 On ch=1 n=78 v=78
19200 Off ch=1 n=78 v=54
19200 On ch=1 n=79 v=82
19560 Off ch=1 n=79 v=64
19560 On ch=1 n=76 v=81
19680 Off ch=1 n=76 v=62
19680 On ch=1 n=73 v=82
19800 Off ch=1 n=73 v=65
19800 On ch=1 n=67 v=80
19824 Off ch=1 n=67 v=50
19824 On ch=1 n=69 v=82
19848 Off ch=1 n=69 v=50
19848 On ch=1 n=67 v=79
19872 Off ch=1 n=67 v=48
19872 On ch=1 n=66 v=82
19896 Off ch=1 n=66 v=46
19896 On ch=1 n=67 v=82
19920 Off ch=1 n=67 v=47
19920 On ch=1 n=69 v=85
19992 Off ch=1 n=69 v=65
20040 On ch=1 n=64 v=86
20112 Off ch=1 n=64 v=63
20160 On ch=1 n=67 v=88
20340 Off ch=1 n=67 v=63
20340 On ch=1 n=66 v=92
20400 Off ch=1 n=66 v=58
20400 On ch=1 n=74 v=96
20700 Off ch=1 n=74 v=66
20700 On ch=1 n=73 v=89
20760 Off ch=1 n=73 v=58
20760 On ch=1 n=76 v=91
20820 Off ch=1 n=76 v=57
20820 On ch=1 n=74 v=89
20880 Off ch=1 n=74 v=57
20880 On ch=1 n=72 v=86
20940 Off ch=1 n=72 v=58
20940 On ch=1 n=71 v=84
21000 Off ch=1 n=71 v=58
21000 On ch=1 n=69 v=82
21060 Off ch=1 n=69 v=58
21060 On ch=1 n=67 v=83
21120 Off ch=1 n=67 v=55
21120 On ch=1 n=66 v=78
21180 Off ch=1 n=66 v=57
21180 On ch=1 n=67 v=79
21240 Off ch=1 n=67 v=55
21240 On ch=1 n=69 v=79
21300 Off ch=1 n=69 v=55
21300 On ch=1 n=71 v=79
21360 Off ch=1 n=71 v=58
21360 On ch=1 n=69 v=82
21420 Off ch=1 n=69 v=54
21420 On ch=1 n=71 v=81
21480 Off ch=1 n=71 v=55
21480 On ch=1 n=73 v=80
21540 Off ch=1 n=73 v=55
21540 On ch=1 n=74 v=84
21600 Off ch=1 n=74 v=57
21600 On ch=1 n=73 v=85
21660 Off ch=1 n=73 v=58
21660 On ch=1 n=74 v=85
21720 Off ch=1 n=74 v=54
21720 On ch=1 n=76 v=86
21780 Off ch=1 n=76 v=55
21780 On ch=1 n=74 v=86
21840 Off ch=1 n=74 v=57
21840 On ch=1 n=73 v=87
21900 Off ch=1 n=73 v=56
21900 On ch=1 n=71 v=84
21960 Off ch=1 n=71 v=56
21960 On ch=1 n=69 v=85
22020 Off ch=1 n=69 v=56
22020 On ch=1 n=67 v=89
22080 Off ch=1 n=67 v=57
22080 On ch=1 n=66 v=86
22140 Off ch=1 n=66 v=56
22140 On ch=1 n=67 v=88
22200 Off ch=1 n=67 v=58
22200 On ch=1 n=69 v=86
22260 Off ch=1 n=69 v=58
22260 On ch=1 n=71 v=88
22320 Off ch=1 n=71 v=55
22320 On ch=1 n=73 v=87
22380 Off ch=1 n=73 v=54
22380 On ch=1 n=74 v=88
22440 Off ch=1 n=74 v=56
22440 On ch=1 n=76 v=89
22500 Off ch=1 n=76 v=56
22500 On ch=1 n=78 v=92
22560 Off ch=1 n=78 v=58
22560 On ch=1 n=79 v=89
22620 Off ch=1 n=79 v=57
22620 On ch=1 n=78 v=91
22632 Off ch=1 n=78 v=48
22632 On ch=1 n=79 v=92
22644 Off ch=1 n=79 v=48
22644 On ch=1 n=78 v=92
22656 Off ch=1 n=78 v=49
22656 On ch=1 n=76 v=90
22668 Off ch=1 n=76 v=47
22668 On ch=1 n=78 v=93
22680 Off ch=1 n=78 v=48
22680 On ch=1 n=79 v=94
22740 Off ch=1 n=79 v=54
22740 On ch=1 n=81 v=92
22800 Off ch=1 n=81 v=58
22800 On ch=1 n=83 v=91
22860 Off ch=1 n=83 v=55
22860 On ch=1 n=81 v=92
22872 Off ch=1 n=81 v=47
22872 On ch=1 n=83 v=95
22884 Off ch=1 n=83 v=49
22884 On ch=1 n=81 v=94
22896 Off ch=1 n=81 v=49
22896 On ch=1 n=80 v=94
22908 Off ch=1 n=80 v=49
22908 On ch=1 n=81 v=91
22920 Off ch=1 n=81 v=49
22920 On ch=1 n=83 v=95
22980 Off ch=1 n=83 v=55
22980 On ch=1 n=85 v=95
23040 Off ch=1 n=85 v=56
23040 On ch=1 n=86 v=97
23100 Off ch=1 n=86 v=56
23100 On ch=1 n=85 v=94
23160 Off ch=1 n=85 v=54
23160 On ch=1 n=88 v=96
23220 Off ch=1 n=88 v=55
23220 On ch=1 n=86 v=92
23280 Off ch=1 n=86 v=58
23280 On ch=1 n=81 v=94
23340 Off ch=1 n=81 v=56
23340 On ch=1 n=80 v=89
23400 Off ch=1 n=80 v=57
23400 On ch=1 n=83 v=91
23460 Off ch=1 n=83 v=55
23460 On ch=1 n=81 v=90
23520 Off ch=1 n=81 v=54
23520 On ch=1 n=78 v=88
23580 Off ch=1 n=78 v=57
23580 On ch=1 n=77 v=87
23640 Off ch=1 n=77 v=58
23640 On ch=1 n=79 v=86
23700 Off ch=1 n=79 v=55
23700 On ch=1 n=78 v=87
23760 Off ch=1 n=78 v=57
23760 On ch=1 n=74 v=85
23820 Off ch=1 n=74 v=54
23820 On ch=1 n=73 v=84
23880 Off ch=1 n=73 v=56
23880 On ch=1 n=76 v=80
23940 Off ch=1 n=76 v=55
23940 On ch=1 n=74 v=82
24000 Off ch=1 n=74 v=56
24060 On ch=1 n=74 v=79
24060 On ch=1 n=72 v=79
24096 Off ch=1 n=72 v=55
24096 Off ch=1 n=74 v=54
24180 On ch=1 n=74 v=80
24180 On ch=1 n=72 v=78
24216 Off ch=1 n=72 v=58
24216 Off ch=1 n=74 v=54
24300 On ch=1 n=72 v=81
24300 On ch=1 n=74 v=78
24336 Off ch=1 n=74 v=58
24336 Off ch=1 n=72 v=54
24420 On ch=1 n=72 v=82
24420 On ch=1 n=74 v=82
24456 Off ch=1 n=74 v=58
24456 Off ch=1 n=72 v=57
24540 On ch=1 n=72 v=78
24540 On ch=1 n=74 v=81
24576 Off ch=1 n=74 v=57
24576 Off ch=1 n=72 v=57
24660 On ch=1 n=74 v=81
24660 On ch=1 n=72 v=82
24696 Off ch=1 n=72 v=56
24696 Off ch=1 n=74 v=57
24780 On ch=1 n=72 v=79
24780 On ch=1 n=74 v=78
24816 Off ch=1 n=74 v=56
24816 Off ch=1 n=72 v=57
24900 On ch=1 n=74 v=80
24900 On ch=1 n=72 v=79
24936 Off ch=1 n=72 v=58
24936 Off ch=1 n=74 v=58
25020 On ch=1 n=74 v=81
25080 Off ch=1 n=74 v=56
25080 On ch=1 n=73 v=83
25140 Off ch=1 n=73 v=58
25140 On ch=1 n=74 v=84
25200 Off ch=1 n=74 v=54
25200 On ch=1 n=79 v=88
25260 Off ch=1 n=79 v=55
25260 On ch=1 n=74 v=92
25320 Off ch=1 n=74 v=55
25320 On ch=1 n=83 v=91
25380 Off ch=1 n=83 v=54
25380 On ch=1 n=74 v=95
25440 Off ch=1 n=74 v=55
25440 On ch=1 n=86 v=99
25500 Off ch=1 n=86 v=54
25500 On ch=1 n=74 v=89
25560 Off ch=1 n=74 v=55
25560 On ch=1 n=83 v=88
25620 Off ch=1 n=83 v=57
25620 On ch=1 n=74 v=89
25680 Off ch=1 n=74 v=57
25680 On ch=1 n=81 v=85
25740 Off ch=1 n=81 v=58
25740 On ch=1 n=74 v=87
25800 Off ch=1 n=74 v=54
25800 On ch=1 n=79 v=85
25860 Off ch=1 n=79 v=58
25860 On ch=1 n=74 v=84
25920 Off ch=1 n=74 v=57
25980 On ch=1 n=74 v=80
25980 On ch=1 n=72 v=80
26016 Off ch=1 n=72 v=55
26016 Off ch=1 n=74 v=58
26100 On ch=1 n=72 v=80
26100 On ch=1 n=74 v=81
26136 Off ch=1 n=74 v=55
26136 Off ch=1 n=72 v=58
26220 On ch=1 n=74 v=82
26220 On ch=1 n=72 v=82
26256 Off ch=1 n=72 v=55
26256 Off ch=1 n=74 v=54
26340 On ch=1 n=74 v=81
26340 On ch=1 n=72 v=79
26376 Off ch=1 n=72 v=55
26376 Off ch=1 n=74 v=55
26460 On ch=1 n=72 v=79
26460 On ch=1 n=74 v=79
26496 Off ch=1 n=74 v=57
26496 Off ch=1 n=72 v=54
26580 On ch=1 n=72 v=82
26580 On ch=1 n=74 v=78
26616 Off ch=1 n=74 v=58
26616 Off ch=1 n=72 v=58
26700 On ch=1 n=72 v=79
26700 On ch=1 n=74 v=82
26736 Off ch=1 n=74 v=55
26736 Off ch=1 n=72 v=57
26820 On ch=1 n=72 v=81
26820 On ch=1 n=74 v=81
26856 Off ch=1 n=74 v=55
26856 Off ch=1 n=72 v=55
26940 On ch=1 n=74 v=81
27000 Off ch=1 n=74 v=54
27000 On ch=1 n=73 v=83
27060 Off ch=1 n=73 v=54
27060 On ch=1 n=74 v=87
27120 Off ch=1 n=74 v=56
27120 On ch=1 n=79 v=89
27180 Off ch=1 n=79 v=54
27180 On ch=1 n=74 v=89
27240 Off ch=1 n=74 v=57
27240 On ch=1 n=83 v=94
27300 Off ch=1 n=83 v=55
27300 On ch=1 n=74 v=96
27360 Off ch=1 n=74 v=54
27360 On ch=1 n=86 v=98
27420 Off ch=1 n=86 v=57
27420 On ch=1 n=74 v=89
27480 Off ch=1 n=74 v=56
27480 On ch=1 n=83 v=90
27540 Off ch=1 n=83 v=55
27540 On ch=1 n=74 v=85
27600 Off ch=1 n=74 v=57
27600 On ch=1 n=81 v=84
27660 Off ch=1 n=81 v=56
27660 On ch=1 n=74 v=84
27720 Off ch=1 n=74 v=55
27720 On ch=1 n=79 v=82
27780 Off ch=1 n=79 v=57
27780 On ch=1 n=74 v=80
27840 Off ch=1 n=74 v=54
27900 On ch=1 n=74 v=79
27900 On ch=1 n=76 v=82
27936 Off ch=1 n=76 v=55
27936 Off ch=1 n=74 v=58
28020 On ch=1 n=74 v=80
28020 On ch=1 n=76 v=82
28056 Off ch=1 n=76 v=55
28056 Off ch=1 n=74 v=58
28140 On ch=1 n=76 v=83
28140 On ch=1 n=74 v=82
28176 Off ch=1 n=74 v=57
28176 Off ch=1 n=76 v=58
28260 On ch=1 n=76 v=88
28260 On ch=1 n=74 v=86
28296 Off ch=1 n=74 v=57
28296 Off ch=1 n=76 v=57
28380 On ch=1 n=76 v=89
28380 On ch=1 n=74 v=86
28416 Off ch=1 n=74 v=54
28416 Off ch=1 n=76 v=54
28500 On ch=1 n=74 v=90
28500 On ch=1 n=76 v=91
28536 Off ch=1 n=76 v=55
28536 Off ch=1 n=74 v=54
28620 On ch=1 n=76 v=94
28620 On ch=1 n=74 v=94
28656 Off ch=1 n=74 v=54
28656 Off ch=1 n=76 v=56
28740 On ch=1 n=74 v=92
28740 On ch=1 n=76 v=96
28776 Off ch=1 n=76 v=57
28776 Off ch=1 n=74 v=56
28860 On ch=1 n=76 v=93
28920 Off ch=1 n=76 v=58
28920 On ch=1 n=78 v=97
28980 Off ch=1 n=78 v=56
28980 On ch=1 n=80 v=97
29040 Off ch=1 n=80 v=58
29040 On ch=1 n=81 v=96
29100 Off ch=1 n=81 v=55
29100 On ch=1 n=83 v=96
29160 Off ch=1 n=83 v=57
29160 On ch=1 n=84 v=94
29220 Off ch=1 n=84 v=58
29220 On ch=1 n=86 v=96
29280 Off ch=1 n=86 v=58
29280 On ch=1 n=88 v=93
29340 Off ch=1 n=88 v=56
29340 On ch=1 n=87 v=93
29400 Off ch=1 n=87 v=55
29400 On ch=1 n=89 v=96
29460 Off ch=1 n=89 v=57
29460 On ch=1 n=88 v=93
29520 Off ch=1 n=88 v=54
29520 On ch=1 n=86 v=90
29580 Off ch=1 n=86 v=55
29580 On ch=1 n=84 v=90
29640 Off ch=1 n=84 v=58
29640 On ch=1 n=83 v=83
29700 Off ch=1 n=83 v=54
29700 On ch=1 n=82 v=85
29760 Off ch=1 n=82 v=56
29760 On ch=1 n=84 v=80
29820 Off ch=1 n=84 v=57
29820 On ch=1 n=83 v=78
29880 Off ch=1 n=83 v=58
29880 On ch=1 n=88 v=79
29940 Off ch=1 n=88 v=54
29940 On ch=1 n=86 v=82
30000 Off ch=1 n=86 v=56
30000 On ch=1 n=84 v=79
30060 Off ch=1 n=84 v=56
30060 On ch=1 n=83 v=82
30120 Off ch=1 n=83 v=57
30120 On ch=1 n=81 v=79
30180 Off ch=1 n=81 v=57
30180 On ch=1 n=79 v=79
30240 Off ch=1 n=79 v=55
30240 On ch=1 n=83 v=79
30300 Off ch=1 n=83 v=58
30300 On ch=1 n=81 v=82
30360 Off ch=1 n=81 v=56
30360 On ch=1 n=86 v=79
30420 Off ch=1 n=86 v=56
30420 On ch=1 n=84 v=82
30480 Off ch=1 n=84 v=54
30480 On ch=1 n=83 v=82
30540 Off ch=1 n=83 v=57
30540 On ch=1 n=81 v=80
30600 Off ch=1 n=81 v=54
30600 On ch=1 n=79 v=80
30660 Off ch=1 n=79 v=54
30660 On ch=1 n=78 v=78
30720 Off ch=1 n=78 v=58
30720 On ch=1 n=79 v=80
30780 Off ch=1 n=79 v=58
30780 On ch=1 n=80 v=81
30840 Off ch=1 n=80 v=54
30840 On ch=1 n=81 v=82
30900 Off ch=1 n=81 v=54
30900 On ch=1 n=82 v=84
30960 Off ch=1 n=82 v=56
30960 On ch=1 n=83 v=84
31020 Off ch=1 n=83 v=55
31020 On ch=1 n=77 v=83
31080 Off ch=1 n=77 v=57
31080 On ch=1 n=76 v=86
31140 Off ch=1 n=76 v=56
31140 On ch=1 n=74 v=86
31200 Off ch=1 n=74 v=56
31200 On ch=1 n=73 v=85
31260 Off ch=1 n=73 v=54
31260 On ch=1 n=76 v=86
31320 Off ch=1 n=76 v=57
31320 On ch=1 n=78 v=87
31380 Off ch=1 n=78 v=57
31380 On ch=1 n=80 v=89
31440 Off ch=1 n=80 v=55
31440 On ch=1 n=81 v=89
31500 Off ch=1 n=81 v=58
31500 On ch=1 n=76 v=92
31560 Off ch=1 n=76 v=55
31560 On ch=1 n=74 v=91
31620 Off ch=1 n=74 v=58
31620 On ch=1 n=72 v=96
31680 Off ch=1 n=72 v=57
31680 On ch=1 n=70 v=96
31740 Off ch=1 n=70 v=54
31740 On ch=1 n=71 v=93
31800 Off ch=1 n=71 v=57
31800 On ch=1 n=76 v=93
31860 Off ch=1 n=76 v=57
31860 On ch=1 n=74 v=94
31920 Off ch=1 n=74 v=58
31920 On ch=1 n=72 v=92
31980 Off ch=1 n=72 v=58
31980 On ch=1 n=71 v=93
32040 Off ch=1 n=71 v=55
32040 On ch=1 n=69 v=88
32100 Off ch=1 n=69 v=55
32100 On ch=1 n=67 v=90
32160 Off ch=1 n=67 v=58
32160 On ch=1 n=71 v=86
32220 Off ch=1 n=71 v=56
32220 On ch=1 n=69 v=88
32280 Off ch=1 n=69 v=58
32280 On ch=1 n=74 v=85
32340 Off ch=1 n=74 v=56
32340 On ch=1 n=72 v=83
32400 Off ch=1 n=72 v=58
32400 On ch=1 n=71 v=84
32460 Off ch=1 n=71 v=55
32460 On ch=1 n=69 v=83
32520 Off ch=1 n=69 v=58
32520 On ch=1 n=67 v=81
32580 Off ch=1 n=67 v=54
32580 On ch=1 n=66 v=80
32640 Off ch=1 n=66 v=55
32640 On ch=1 n=67 v=80
32880 Off ch=1 n=67 v=64
33120 On ch=1 n=59 v=78
33120 On ch=1 n=62 v=80
33120 On ch=1 n=67 v=79
33312 Off ch=1 n=67 v=63
33312 Off ch=1 n=62 v=66
33312 Off ch=1 n=59 v=64
33360 On ch=1 n=62 v=81
33360 On ch=1 n=67 v=81
33360 On ch=1 n=59 v=81
33552 Off ch=1 n=59 v=63
33552 Off ch=1 n=67 v=62
33552 Off ch=1 n=62 v=66
33600 On ch=1 n=57 v=79
33600 On ch=1 n=66 v=79
33600 On ch=1 n=63 v=79
33960 Off ch=1 n=66 v=63
33960 On ch=1 n=67 v=80
34080 Off ch=1 n=67 v=62
34080 Off ch=1 n=63 v=66
34080 Off ch=1 n=57 v=64
34080 On ch=1 n=69 v=79
34080 On ch=1 n=63 v=79
34080 On ch=1 n=66 v=81
34320 Off ch=1 n=66 v=65
34320 Off ch=1 n=63 v=65
34320 Off ch=1 n=69 v=64
34320 On ch=1 n=69 v=81
34320 On ch=1 n=66 v=82
34320 On ch=1 n=63 v=79
34500 Off ch=1 n=69 v=62
34500 On ch=1 n=71 v=82
34560 Off ch=1 n=71 v=58
34560 Off ch=1 n=63 v=65
34560 Off ch=1 n=66 v=62
34560 On ch=1 n=67 v=81
34560 On ch=1 n=62 v=81
34800 Off ch=1 n=62 v=64
34800 Off ch=1 n=67 v=66
35040 On ch=1 n=62 v=81
35040 On ch=1 n=67 v=78
35040 On ch=1 n=59 v=79
35232 Off ch=1 n=59 v=64
35232 Off ch=1 n=67 v=66
35232 Off ch=1 n=62 v=64
35280 On ch=1 n=62 v=81
35280 On ch=1 n=67 v=81
35280 On ch=1 n=59 v=80
35472 Off ch=1 n=59 v=66
35472 Off ch=1 n=67 v=62
35472 Off ch=1 n=62 v=63
35520 On ch=1 n=63 v=81
35520 On ch=1 n=66 v=81
35520 On ch=1 n=57 v=79
35880 Off ch=1 n=66 v=62
35880 On ch=1 n=67 v=81
36000 Off ch=1 n=67 v=63
36000 Off ch=1 n=57 v=63
36000 Off ch=1 n=63 v=65
36000 On ch=1 n=69 v=80
36000 On ch=1 n=63 v=82
36000 On ch=1 n=66 v=79
36240 Off ch=1 n=66 v=64
36240 Off ch=1 n=63 v=66
36240 Off ch=1 n=69 v=63
36240 On ch=1 n=69 v=82
36240 On ch=1 n=66 v=80
36240 On ch=1 n=63 v=82
36420 Off ch=1 n=69 v=63
36420 On ch=1 n=71 v=78
36480 Off ch=1 n=71 v=54
36480 Off ch=1 n=63 v=66
36480 Off ch=1 n=66 v=64
36480 On ch=1 n=67 v=78
36480 On ch=1 n=62 v=78
36720 Off ch=1 n=62 v=66
36720 Off ch=1 n=67 v=64
36960 On ch=1 n=66 v=82
36960 On ch=1 n=63 v=84
36960 On ch=1 n=69 v=83
37200 Off ch=1 n=69 v=63
37200 Off ch=1 n=63 v=63
37200 Off ch=1 n=66 v=63
37440 On ch=1 n=71 v=86
37440 On ch=1 n=65 v=87
37440 On ch=1 n=68 v=87
37680 Off ch=1 n=68 v=62
37680 Off ch=1 n=65 v=62
37680 Off ch=1 n=71 v=66
37920 On ch=1 n=72 v=90
37920 On ch=1 n=67 v=91
38160 Off ch=1 n=67 v=66
38160 Off ch=1 n=72 v=63
38400 On ch=1 n=74 v=93
38400 On ch=1 n=71 v=95
38640 Off ch=1 n=71 v=62
38640 Off ch=1 n=74 v=65
39120 On ch=1 n=83 v=96
39120 On ch=1 n=74 v=97
39120 On ch=1 n=71 v=99
39312 Off ch=1 n=71 v=63
39312 Off ch=1 n=74 v=66
39312 Off ch=1 n=83 v=62
39360 On ch=1 n=71 v=82
39360 On ch=1 n=83 v=78
39360 On ch=1 n=74 v=79
39552 Off ch=1 n=74 v=65
39552 Off ch=1 n=83 v=66
39552 Off ch=1 n=71 v=62
40080 On ch=1 n=83 v=101
40080 On ch=1 n=86 v=101
40272 Off ch=1 n=86 v=65
40272 Off ch=1 n=83 v=66
40320 On ch=1 n=83 v=78
40320 On ch=1 n=86 v=81
40512 Off ch=1 n=86 v=65
40512 Off ch=1 n=83 v=64
41760 On ch=1 n=72 v=80
41952 Off ch=1 n=72 v=62
42000 On ch=1 n=72 v=78
42192 Off ch=1 n=72 v=62
42240 On ch=1 n=72 v=78
42360 Off ch=1 n=72 v=63
42360 On ch=1 n=71 v=82
42480 Off ch=1 n=71 v=64
42480 On ch=1 n=69 v=80
42600 Off ch=1 n=69 v=63
42600 On ch=1 n=71 v=78
42720 Off ch=1 n=71 v=66
42720 On ch=1 n=72 v=82
42960 Off ch=1 n=72 v=62
42960 On ch=1 n=72 v=82
42996 Off ch=1 n=72 v=58
42996 On ch=1 n=74 v=80
43032 Off ch=1 n=74 v=58
43032 On ch=1 n=72 v=79
43068 Off ch=1 n=72 v=58
43068 On ch=1 n=71 v=79
43104 Off ch=1 n=71 v=58
43104 On ch=1 n=72 v=78
43140 Off ch=1 n=72 v=57
43140 On ch=1 n=76 v=80
43200 Off ch=1 n=76 v=55
43200 On ch=1 n=79 v=81
43680 Off ch=1 n=79 v=65
43680 On ch=1 n=77 v=78
43800 Off ch=1 n=77 v=66
43800 On ch=1 n=81 v=80
44040 Off ch=1 n=81 v=62
44040 On ch=1 n=79 v=82
44100 Off ch=1 n=79 v=54
44100 On ch=1 n=77 v=78
44160 Off ch=1 n=77 v=58
44160 On ch=1 n=76 v=80
44280 Off ch=1 n=76 v=63
44280 On ch=1 n=79 v=81
44520 Off ch=1 n=79 v=66
44520 On ch=1 n=77 v=79
44580 Off ch=1 n=77 v=58
44580 On ch=1 n=76 v=78
44640 Off ch=1 n=76 v=54
44640 On ch=1 n=74 v=82
44700 Off ch=1 n=74 v=57
44700 On ch=1 n=76 v=80
44760 Off ch=1 n=76 v=58
44760 On ch=1 n=77 v=82
44820 Off ch=1 n=77 v=54
44820 On ch=1 n=76 v=79
44880 Off ch=1 n=76 v=57
44880 On ch=1 n=79 v=79
44940 Off ch=1 n=79 v=57
44940 On ch=1 n=77 v=80
45000 Off ch=1 n=77 v=57
45000 On ch=1 n=76 v=78
45060 Off ch=1 n=76 v=55
45060 On ch=1 n=74 v=79
45120 Off ch=1 n=74 v=55
45120 On ch=1 n=72 v=80
45360 Off ch=1 n=72 v=62
45360 On ch=1 n=71 v=78
45480 Off ch=1 n=71 v=62
45480 On ch=1 n=67 v=78
45576 Off ch=1 n=67 v=63
45580 On ch=1 n=67 v=81
45600 On ch=1 n=72 v=81
45610 Off ch=1 n=67 v=64
45792 Off ch=1 n=72 v=66
45840 On ch=1 n=72 v=79
46032 Off ch=1 n=72 v=63
46080 On ch=1 n=72 v=80
46200 Off ch=1 n=72 v=65
46200 On ch=1 n=71 v=78
46320 Off ch=1 n=71 v=66
46320 On ch=1 n=69 v=82
46440 Off ch=1 n=69 v=62
46440 On ch=1 n=71 v=79
46560 Off ch=1 n=71 v=64
46560 On ch=1 n=72 v=78
46608 Off ch=1 n=72 v=56
46608 On ch=1 n=74 v=82
46656 Off ch=1 n=74 v=57
46656 On ch=1 n=72 v=78
46704 Off ch=1 n=72 v=56
46704 On ch=1 n=71 v=79
46752 Off ch=1 n=71 v=54
46752 On ch=1 n=72 v=81
46800 Off ch=1 n=72 v=57
46800 On ch=1 n=72 v=79
46836 Off ch=1 n=72 v=55
46860 On ch=1 n=74 v=81
46896 Off ch=1 n=74 v=57
46920 On ch=1 n=76 v=81
46956 Off ch=1 n=76 v=57
46980 On ch=1 n=77 v=82
47016 Off ch=1 n=77 v=54
47040 On ch=1 n=78 v=81
47160 Off ch=1 n=78 v=64
47160 On ch=1 n=79 v=82
47400 Off ch=1 n=79 v=65
47400 On ch=1 n=79 v=82
47520 Off ch=1 n=79 v=62
47520 On ch=1 n=77 v=79
47550 Off ch=1 n=77 v=46
47550 On ch=1 n=79 v=82
47580 Off ch=1 n=79 v=48
47580 On ch=1 n=76 v=82
47610 Off ch=1 n=76 v=46
47610 On ch=1 n=77 v=78
47640 Off ch=1 n=77 v=49
47640 On ch=1 n=81 v=81
47880 Off ch=1 n=81 v=63
47880 On ch=1 n=79 v=79
47940 Off ch=1 n=79 v=56
47940 On ch=1 n=77 v=78
48000 Off ch=1 n=77 v=56
48000 On ch=1 n=76 v=82
48040 Off ch=1 n=76 v=58
48040 On ch=1 n=75 v=79
48080 Off ch=1 n=75 v=57
48080 On ch=1 n=76 v=78
48120 Off ch=1 n=76 v=54
48120 On ch=1 n=79 v=79
48160 Off ch=1 n=79 v=58
48160 On ch=1 n=77 v=81
48200 Off ch=1 n=77 v=54
48200 On ch=1 n=76 v=79
48240 Off ch=1 n=76 v=55
48240 On ch=1 n=74 v=82
48280 Off ch=1 n=74 v=56
48280 On ch=1 n=73 v=78
48320 Off ch=1 n=73 v=58
48320 On ch=1 n=74 v=80
48360 Off ch=1 n=74 v=58
48360 On ch=1 n=77 v=78
48400 Off ch=1 n=77 v=58
48400 On ch=1 n=76 v=82
48440 Off ch=1 n=76 v=56
48440 On ch=1 n=74 v=80
48480 Off ch=1 n=74 v=58
48480 On ch=1 n=72 v=78
48528 Off ch=1 n=72 v=54
48528 On ch=1 n=74 v=82
48576 Off ch=1 n=74 v=55
48576 On ch=1 n=72 v=80
48624 Off ch=1 n=72 v=58
48624 On ch=1 n=71 v=78
48672 Off ch=1 n=71 v=54
48672 On ch=1 n=72 v=80
48720 Off ch=1 n=72 v=55
48720 On ch=1 n=76 v=82
48840 Off ch=1 n=76 v=63
48840 On ch=1 n=74 v=81
48960 Off ch=1 n=74 v=65
48960 On ch=1 n=64 v=82
48960 On ch=1 n=72 v=79
49200 Off ch=1 n=72 v=64
49200 Off ch=1 n=64 v=66
49320 On ch=1 n=67 v=101
49392 Off ch=1 n=67 v=66
49440 On ch=1 n=63 v=99
49440 On ch=1 n=75 v=98
49512 Off ch=1 n=75 v=62
49512 Off ch=1 n=63 v=62
49560 On ch=1 n=75 v=99
49560 On ch=1 n=63 v=100
49800 Off ch=1 n=75 v=65
49800 On ch=1 n=74 v=100
49860 Off ch=1 n=74 v=55
49860 On ch=1 n=72 v=102
49920 Off ch=1 n=72 v=54
49920 Off ch=1 n=63 v=63
50040 On ch=1 n=62 v=101
50080 Off ch=1 n=62 v=55
50080 On ch=1 n=65 v=102
50120 Off ch=1 n=65 v=56
50120 On ch=1 n=71 v=101
50160 Off ch=1 n=71 v=55
50280 On ch=1 n=71 v=102
50320 Off ch=1 n=71 v=55
50320 On ch=1 n=74 v=101
50360 Off ch=1 n=74 v=55
50360 On ch=1 n=77 v=101
50384 Off ch=1 n=77 v=58
50400 On ch=1 n=77 v=98
50400 On ch=1 n=65 v=98
50472 Off ch=1 n=65 v=64
50472 Off ch=1 n=77 v=65
50520 On ch=1 n=77 v=99
50520 On ch=1 n=65 v=98
50760 Off ch=1 n=65 v=62
50760 Off ch=1 n=77 v=66
50760 On ch=1 n=75 v=98
50820 Off ch=1 n=75 v=57
50820 On ch=1 n=74 v=101
50880 Off ch=1 n=74 v=56
51000 On ch=1 n=63 v=101
51040 Off ch=1 n=63 v=56
51040 On ch=1 n=67 v=100
51080 Off ch=1 n=67 v=58
51080 On ch=1 n=72 v=98
51120 Off ch=1 n=72 v=57
51240 On ch=1 n=75 v=99
51280 Off ch=1 n=75 v=58
51280 On ch=1 n=79 v=98
51320 Off ch=1 n=79 v=55
51320 On ch=1 n=84 v=101
51344 Off ch=1 n=84 v=57
51360 On ch=1 n=73 v=102
51360 On ch=1 n=85 v=100
51432 Off ch=1 n=85 v=64
51432 Off ch=1 n=73 v=63
51480 On ch=1 n=73 v=99
51480 On ch=1 n=85 v=99
51720 Off ch=1 n=85 v=64
51720 Off ch=1 n=73 v=64
51720 On ch=1 n=84 v=100
51780 Off ch=1 n=84 v=55
51780 On ch=1 n=82 v=101
51816 Off ch=1 n=82 v=55
51840 On ch=1 n=82 v=99
51900 Off ch=1 n=82 v=54
51900 On ch=1 n=80 v=99
51936 Off ch=1 n=80 v=54
51960 On ch=1 n=80 v=101
52020 Off ch=1 n=80 v=54
52020 On ch=1 n=79 v=101
52056 Off ch=1 n=79 v=54
52080 On ch=1 n=79 v=101
52140 Off ch=1 n=79 v=54
52140 On ch=1 n=77 v=100
52176 Off ch=1 n=77 v=56
52200 On ch=1 n=77 v=100
52260 Off ch=1 n=77 v=55
52260 On ch=1 n=75 v=100
52296 Off ch=1 n=75 v=58
52320 On ch=1 n=75 v=99
52380 Off ch=1 n=75 v=58
52380 On ch=1 n=74 v=100
52416 Off ch=1 n=74 v=55
52440 On ch=1 n=74 v=98
52500 Off ch=1 n=74 v=55
52500 On ch=1 n=75 v=101
52536 Off ch=1 n=75 v=54
52560 On ch=1 n=75 v=98
52620 Off ch=1 n=75 v=54
52620 On ch=1 n=74 v=102
52656 Off ch=1 n=74 v=54
52680 On ch=1 n=74 v=99
52740 Off ch=1 n=74 v=57
52740 On ch=1 n=72 v=102
52776 Off ch=1 n=72 v=56
52800 On ch=1 n=72 v=98
52860 Off ch=1 n=72 v=57
52860 On ch=1 n=71 v=98
52920 Off ch=1 n=71 v=56
52920 On ch=1 n=69 v=102
52980 Off ch=1 n=69 v=54
52980 On ch=1 n=67 v=102
53040 Off ch=1 n=67 v=55
53040 On ch=1 n=66 v=98
53100 Off ch=1 n=66 v=55
53100 On ch=1 n=67 v=102
53160 Off ch=1 n=67 v=57
53160 On ch=1 n=68 v=102
53220 Off ch=1 n=68 v=56
53220 On ch=1 n=67 v=102
53280 Off ch=1 n=67 v=57
53280 On ch=1 n=75 v=100
53280 On ch=1 n=63 v=98
53352 Off ch=1 n=63 v=66
53352 Off ch=1 n=75 v=65
53400 On ch=1 n=63 v=98
53400 On ch=1 n=75 v=98
53640 Off ch=1 n=75 v=64
53640 Off ch=1 n=63 v=63
53640 On ch=1 n=74 v=101
53700 Off ch=1 n=74 v=57
53700 On ch=1 n=72 v=102
53760 Off ch=1 n=72 v=54
53880 On ch=1 n=62 v=102
53920 Off ch=1 n=62 v=58
53920 On ch=1 n=65 v=98
53960 Off ch=1 n=65 v=57
53960 On ch=1 n=70 v=100
54000 Off ch=1 n=70 v=58
54120 On ch=1 n=74 v=99
54160 Off ch=1 n=74 v=57
54160 On ch=1 n=77 v=102
54200 Off ch=1 n=77 v=55
54200 On ch=1 n=80 v=101
54240 Off ch=1 n=80 v=56
54240 On ch=1 n=84 v=98
54240 On ch=1 n=80 v=100
54312 Off ch=1 n=80 v=66
54312 Off ch=1 n=84 v=62
54360 On ch=1 n=80 v=98
54360 On ch=1 n=84 v=102
54600 Off ch=1 n=84 v=66
54600 Off ch=1 n=80 v=63
54600 On ch=1 n=82 v=101
54600 On ch=1 n=79 v=102
54660 Off ch=1 n=79 v=57
54660 Off ch=1 n=82 v=56
54660 On ch=1 n=77 v=99
54660 On ch=1 n=80 v=98
54720 Off ch=1 n=80 v=56
54720 Off ch=1 n=77 v=56
54840 On ch=1 n=67 v=101
54880 Off ch=1 n=67 v=56
54880 On ch=1 n=70 v=103
54920 Off ch=1 n=70 v=55
54920 On ch=1 n=75 v=104
54960 Off ch=1 n=75 v=58
55080 On ch=1 n=79 v=102
55120 Off ch=1 n=79 v=57
55120 On ch=1 n=82 v=106
55160 Off ch=1 n=82 v=55
55160 On ch=1 n=87 v=102
55200 Off ch=1 n=87 v=58
55320 On ch=1 n=87 v=104
55360 Off ch=1 n=87 v=54
55360 On ch=1 n=86 v=107
55400 Off ch=1 n=86 v=56
55400 On ch=1 n=84 v=106
55440 Off ch=1 n=84 v=58
55440 On ch=1 n=82 v=108
55480 Off ch=1 n=82 v=58
55480 On ch=1 n=80 v=106
55520 Off ch=1 n=80 v=57
55520 On ch=1 n=79 v=107
55560 Off ch=1 n=79 v=57
55560 On ch=1 n=77 v=106
55600 Off ch=1 n=77 v=54
55600 On ch=1 n=75 v=107
55640 Off ch=1 n=75 v=58
55640 On ch=1 n=74 v=110
55680 Off ch=1 n=74 v=58
55680 On ch=1 n=72 v=112
55800 Off ch=1 n=72 v=64
55800 On ch=1 n=84 v=112
55840 Off ch=1 n=84 v=58
55840 On ch=1 n=82 v=111
55880 Off ch=1 n=82 v=57
55880 On ch=1 n=80 v=108
55920 Off ch=1 n=80 v=57
55920 On ch=1 n=79 v=109
55960 Off ch=1 n=79 v=56
55960 On ch=1 n=77 v=111
56000 Off ch=1 n=77 v=54
56000 On ch=1 n=75 v=109
56040 Off ch=1 n=75 v=55
56040 On ch=1 n=74 v=111
56080 Off ch=1 n=74 v=56
56080 On ch=1 n=75 v=108
56120 Off ch=1 n=75 v=54
56120 On ch=1 n=72 v=110
56160 Off ch=1 n=72 v=56
56160 On ch=1 n=70 v=108
56232 Off ch=1 n=70 v=63
56280 On ch=1 n=75 v=110
56280 On ch=1 n=70 v=111
56280 On ch=1 n=82 v=110
56280 On ch=1 n=79 v=110
56352 Off ch=1 n=79 v=62
56352 Off ch=1 n=82 v=63
56352 Off ch=1 n=70 v=65
56352 Off ch=1 n=75 v=63
56520 On ch=1 n=65 v=112
56520 On ch=1 n=68 v=111
56520 On ch=1 n=74 v=110
56520 On ch=1 n=70 v=108
56592 Off ch=1 n=70 v=66
56592 Off ch=1 n=74 v=65
56592 Off ch=1 n=68 v=64
56592 Off ch=1 n=65 v=65
56640 On ch=1 n=67 v=81
56640 On ch=1 n=75 v=81
56640 On ch=1 n=70 v=81
56880 Off ch=1 n=70 v=62
56880 Off ch=1 n=75 v=62
56880 Off ch=1 n=67 v=66
57240 On ch=1 n=79 v=80
57336 Off ch=1 n=79 v=63
57360 On ch=1 n=79 v=82
57456 Off ch=1 n=79 v=62
57480 On ch=1 n=79 v=81
57576 Off ch=1 n=79 v=65
57600 On ch=1 n=82 v=80
57780 Off ch=1 n=82 v=62
57780 On ch=1 n=80 v=79
57840 Off ch=1 n=80 v=57
57840 On ch=1 n=77 v=82
58080 Off ch=1 n=77 v=66
58200 On ch=1 n=70 v=78
58296 Off ch=1 n=70 v=66
58320 On ch=1 n=70 v=82
58416 Off ch=1 n=70 v=62
58440 On ch=1 n=70 v=81
58536 Off ch=1 n=70 v=64
58540 On ch=1 n=70 v=78
58560 On ch=1 n=77 v=80
58570 Off ch=1 n=70 v=63
58800 Off ch=1 n=77 v=64
58800 On ch=1 n=75 v=78
58920 Off ch=1 n=75 v=65
59100 On ch=1 n=79 v=80
59160 Off ch=1 n=79 v=57
59160 On ch=1 n=78 v=79
59220 Off ch=1 n=78 v=58
59220 On ch=1 n=79 v=78
59280 Off ch=1 n=79 v=54
59280 On ch=1 n=78 v=82
59340 Off ch=1 n=78 v=54
59340 On ch=1 n=79 v=79
59400 Off ch=1 n=79 v=57
59400 On ch=1 n=80 v=78
59460 Off ch=1 n=80 v=54
59460 On ch=1 n=79 v=79
59520 Off ch=1 n=79 v=58
59520 On ch=1 n=82 v=82
59700 Off ch=1 n=82 v=63
59700 On ch=1 n=80 v=79
59760 Off ch=1 n=80 v=58
59760 On ch=1 n=77 v=78
60000 Off ch=1 n=77 v=64
60060 On ch=1 n=70 v=82
60120 Off ch=1 n=70 v=58
60120 On ch=1 n=69 v=78
60180 Off ch=1 n=69 v=56
60180 On ch=1 n=70 v=81
60240 Off ch=1 n=70 v=54
60240 On ch=1 n=69 v=78
60300 Off ch=1 n=69 v=56
60300 On ch=1 n=70 v=81
60360 Off ch=1 n=70 v=57
60360 On ch=1 n=69 v=78
60420 Off ch=1 n=69 v=57
60420 On ch=1 n=70 v=82
60480 Off ch=1 n=70 v=58
60480 On ch=1 n=70 v=81
60500 On ch=1 n=77 v=80
60510 Off ch=1 n=70 v=62
60720 Off ch=1 n=77 v=64
60720 On ch=1 n=76 v=78
60840 Off ch=1 n=76 v=66
61020 On ch=1 n=72 v=78
61080 Off ch=1 n=72 v=58
61080 On ch=1 n=71 v=81
61140 Off ch=1 n=71 v=55
61140 On ch=1 n=72 v=79
61200 Off ch=1 n=72 v=56
61200 On ch=1 n=71 v=78
61260 Off ch=1 n=71 v=58
61260 On ch=1 n=72 v=79
61320 Off ch=1 n=72 v=58
61320 On ch=1 n=71 v=82
61380 Off ch=1 n=71 v=56
61380 On ch=1 n=72 v=78
61440 Off ch=1 n=72 v=57
61440 On ch=1 n=72 v=78
61460 On ch=1 n=79 v=78
61470 Off ch=1 n=72 v=66
61680 Off ch=1 n=79 v=66
61680 On ch=1 n=78 v=80
61800 Off ch=1 n=78 v=62
61980 On ch=1 n=74 v=81
62040 Off ch=1 n=74 v=54
62040 On ch=1 n=73 v=80
62100 Off ch=1 n=73 v=54
62100 On ch=1 n=74 v=82
62160 Off ch=1 n=74 v=58
62160 On ch=1 n=73 v=82
62220 Off ch=1 n=73 v=57
62220 On ch=1 n=74 v=79
62280 Off ch=1 n=74 v=54
62280 On ch=1 n=73 v=82
62340 Off ch=1 n=73 v=55
62340 On ch=1 n=74 v=79
62400 Off ch=1 n=74 v=56
62400 On ch=1 n=81 v=79
62520 Off ch=1 n=81 v=62
62520 On ch=1 n=79 v=82
62760 Off ch=1 n=79 v=66
62760 On ch=1 n=80 v=83
62820 Off ch=1 n=80 v=57
62820 On ch=1 n=83 v=84
62880 Off ch=1 n=83 v=55
62880 On ch=1 n=84 v=85
62940 Off ch=1 n=84 v=58
62940 On ch=1 n=86 v=86
63000 Off ch=1 n=86 v=57
63000 On ch=1 n=87 v=91
63060 Off ch=1 n=87 v=58
63060 On ch=1 n=86 v=90
63120 Off ch=1 n=86 v=56
63120 On ch=1 n=89 v=92
63180 Off ch=1 n=89 v=54
63180 On ch=1 n=87 v=93
63240 Off ch=1 n=87 v=56
63240 On ch=1 n=86 v=92
63300 Off ch=1 n=86 v=54
63300 On ch=1 n=84 v=92
63360 Off ch=1 n=84 v=56
63360 On ch=1 n=83 v=93
63400 Off ch=1 n=83 v=56
63400 On ch=1 n=86 v=96
63440 Off ch=1 n=86 v=55
63440 On ch=1 n=84 v=96
63480 Off ch=1 n=84 v=54
63480 On ch=1 n=83 v=94
63520 Off ch=1 n=83 v=55
63520 On ch=1 n=81 v=96
63560 Off ch=1 n=81 v=54
63560 On ch=1 n=79 v=97
63600 Off ch=1 n=79 v=58
63600 On ch=1 n=77 v=94
63640 Off ch=1 n=77 v=56
63640 On ch=1 n=80 v=94
63680 Off ch=1 n=80 v=56
63680 On ch=1 n=79 v=94
63720 Off ch=1 n=79 v=54
63720 On ch=1 n=77 v=98
63760 Off ch=1 n=77 v=56
63760 On ch=1 n=75 v=95
63800 Off ch=1 n=75 v=57
63800 On ch=1 n=74 v=99
63840 Off ch=1 n=74 v=58
63840 On ch=1 n=75 v=97
63840 On ch=1 n=63 v=99
63912 Off ch=1 n=63 v=62
63912 Off ch=1 n=75 v=63
63960 On ch=1 n=63 v=96
63960 On ch=1 n=75 v=98
64200 Off ch=1 n=75 v=66
64200 Off ch=1 n=63 v=66
64200 On ch=1 n=74 v=99
64260 Off ch=1 n=74 v=56
64260 On ch=1 n=72 v=99
64320 Off ch=1 n=72 v=58
64440 On ch=1 n=62 v=98
64480 Off ch=1 n=62 v=56
64480 On ch=1 n=65 v=100
64520 Off ch=1 n=65 v=55
64520 On ch=1 n=71 v=100
64560 Off ch=1 n=71 v=55
64680 On ch=1 n=71 v=98
64720 Off ch=1 n=71 v=57
64720 On ch=1 n=74 v=98
64760 Off ch=1 n=74 v=55
64760 On ch=1 n=77 v=102
64800 Off ch=1 n=77 v=56
64800 On ch=1 n=77 v=102
64800 On ch=1 n=65 v=100
64872 Off ch=1 n=65 v=65
64872 Off ch=1 n=77 v=64
64920 On ch=1 n=77 v=100
64920 On ch=1 n=65 v=100
65160 Off ch=1 n=65 v=64
65160 Off ch=1 n=77 v=62
65160 On ch=1 n=75 v=98
65220 Off ch=1 n=75 v=54
65220 On ch=1 n=74 v=98
65280 Off ch=1 n=74 v=58
65400 On ch=1 n=63 v=101
65440 Off ch=1 n=63 v=57
65440 On ch=1 n=67 v=102
65480 Off ch=1 n=67 v=58
65480 On ch=1 n=72 v=101
65520 Off ch=1 n=72 v=57
65640 On ch=1 n=75 v=100
65680 Off ch=1 n=75 v=54
65680 On ch=1 n=79 v=98
65720 Off ch=1 n=79 v=56
65720 On ch=1 n=84 v=98
65760 Off ch=1 n=84 v=54
65760 On ch=1 n=73 v=99
65760 On ch=1 n=85 v=101
65832 Off ch=1 n=85 v=66
65832 Off ch=1 n=73 v=64
65880 On ch=1 n=73 v=98
65880 On ch=1 n=85 v=101
66120 Off ch=1 n=85 v=65
66120 Off ch=1 n=73 v=63
66120 On ch=1 n=84 v=100
66180 Off ch=1 n=84 v=55
66180 On ch=1 n=82 v=101
66240 Off ch=1 n=82 v=57
66360 On ch=1 n=80 v=99
66420 Off ch=1 n=80 v=58
66420 On ch=1 n=84 v=98
66456 Off ch=1 n=84 v=55
66600 On ch=1 n=77 v=101
66660 Off ch=1 n=77 v=55
66660 On ch=1 n=80 v=101
66696 Off ch=1 n=80 v=55
66840 On ch=1 n=75 v=99
66900 Off ch=1 n=75 v=56
66900 On ch=1 n=79 v=102
66936 Off ch=1 n=79 v=58
67080 On ch=1 n=71 v=98
67140 Off ch=1 n=71 v=56
67140 On ch=1 n=74 v=99
67176 Off ch=1 n=74 v=58
67260 On ch=1 n=72 v=101
67320 Off ch=1 n=72 v=56
67320 On ch=1 n=71 v=98
67380 Off ch=1 n=71 v=54
67380 On ch=1 n=72 v=99
67440 Off ch=1 n=72 v=58
67440 On ch=1 n=71 v=98
67500 Off ch=1 n=71 v=54
67500 On ch=1 n=72 v=102
67560 Off ch=1 n=72 v=57
67560 On ch=1 n=71 v=98
67620 Off ch=1 n=71 v=57
67620 On ch=1 n=72 v=98
67680 Off ch=1 n=72 v=58
67680 On ch=1 n=61 v=98
67680 On ch=1 n=73 v=102
67752 Off ch=1 n=73 v=66
67752 Off ch=1 n=61 v=65
67800 On ch=1 n=61 v=100
67800 On ch=1 n=73 v=101
68040 Off ch=1 n=73 v=66
68040 Off ch=1 n=61 v=66
68040 On ch=1 n=72 v=102
68100 Off ch=1 n=72 v=54
68100 On ch=1 n=70 v=102
68160 Off ch=1 n=70 v=57
68220 On ch=1 n=68 v=100
68280 Off ch=1 n=68 v=58
68280 On ch=1 n=70 v=100
68340 Off ch=1 n=70 v=54
68340 On ch=1 n=71 v=99
68400 Off ch=1 n=71 v=54
68400 On ch=1 n=72 v=96
68460 Off ch=1 n=72 v=57
68460 On ch=1 n=62 v=95
68520 Off ch=1 n=62 v=56
68520 On ch=1 n=65 v=97
68580 Off ch=1 n=65 v=54
68580 On ch=1 n=68 v=96
68640 Off ch=1 n=68 v=54
68700 On ch=1 n=63 v=97
68760 Off ch=1 n=63 v=56
68760 On ch=1 n=67 v=92
68820 Off ch=1 n=67 v=54
68820 On ch=1 n=60 v=96
68880 Off ch=1 n=60 v=55
68940 On ch=1 n=62 v=90
69000 Off ch=1 n=62 v=55
69000 On ch=1 n=65 v=92
69060 Off ch=1 n=65 v=55
69060 On ch=1 n=59 v=91
69120 Off ch=1 n=59 v=58
69200 On ch=1 n=60 v=89
69248 Off ch=1 n=60 v=62
69280 On ch=1 n=61 v=89
69328 Off ch=1 n=61 v=65
69360 On ch=1 n=62 v=89
69408 Off ch=1 n=62 v=65
69440 On ch=1 n=63 v=89
69488 Off ch=1 n=63 v=64
69520 On ch=1 n=64 v=91
69568 Off ch=1 n=64 v=63
69600 On ch=1 n=65 v=90
69648 Off ch=1 n=65 v=65
69680 On ch=1 n=66 v=91
69728 Off ch=1 n=66 v=66
69760 On ch=1 n=67 v=90
69808 Off ch=1 n=67 v=63
69840 On ch=1 n=68 v=92
69888 Off ch=1 n=68 v=63
69920 On ch=1 n=69 v=89
69968 Off ch=1 n=69 v=62
70000 On ch=1 n=70 v=89
70048 Off ch=1 n=70 v=64
70080 On ch=1 n=71 v=91
70128 Off ch=1 n=71 v=65
70160 On ch=1 n=72 v=89
70208 Off ch=1 n=72 v=65
70240 On ch=1 n=72 v=92
70288 Off ch=1 n=72 v=64
70320 On ch=1 n=72 v=91
70368 Off ch=1 n=72 v=63
70400 On ch=1 n=72 v=89
70448 Off ch=1 n=72 v=62
70480 On ch=1 n=72 v=91
70528 Off ch=1 n=72 v=65
70560 On ch=1 n=72 v=91
70608 Off ch=1 n=72 v=62
70640 On ch=1 n=72 v=89
70688 Off ch=1 n=72 v=66
70720 On ch=1 n=72 v=91
70768 Off ch=1 n=72 v=64
70800 On ch=1 n=71 v=88
70848 Off ch=1 n=71 v=64
70880 On ch=1 n=72 v=91
70928 Off ch=1 n=72 v=66
70960 On ch=1 n=72 v=90
71008 Off ch=1 n=72 v=64
71040 On ch=1 n=72 v=91
71088 Off ch=1 n=72 v=66
71120 On ch=1 n=73 v=88
71168 Off ch=1 n=73 v=63
71200 On ch=1 n=73 v=89
71248 Off ch=1 n=73 v=66
71280 On ch=1 n=73 v=89
71328 Off ch=1 n=73 v=66
71360 On ch=1 n=73 v=91
71408 Off ch=1 n=73 v=66
71440 On ch=1 n=73 v=89
71488 Off ch=1 n=73 v=64
71520 On ch=1 n=73 v=89
71568 Off ch=1 n=73 v=62
71600 On ch=1 n=74 v=88
71648 Off ch=1 n=74 v=65
71680 On ch=1 n=74 v=89
71728 Off ch=1 n=74 v=62
71760 On ch=1 n=74 v=89
71808 Off ch=1 n=74 v=65
71840 On ch=1 n=74 v=90
71888 Off ch=1 n=74 v=65
71920 On ch=1 n=74 v=89
71968 Off ch=1 n=74 v=66
72000 On ch=1 n=74 v=91
72060 Off ch=1 n=74 v=54
72060 On ch=1 n=75 v=92
72120 Off ch=1 n=75 v=57
72120 On ch=1 n=77 v=90
72180 Off ch=1 n=77 v=58
72180 On ch=1 n=75 v=89
72240 Off ch=1 n=75 v=58
72240 On ch=1 n=73 v=87
72288 Off ch=1 n=73 v=54
72288 On ch=1 n=72 v=85
72336 Off ch=1 n=72 v=54
72336 On ch=1 n=75 v=89
72384 Off ch=1 n=75 v=58
72384 On ch=1 n=73 v=84
72432 Off ch=1 n=73 v=56
72432 On ch=1 n=70 v=88
72480 Off ch=1 n=70 v=54
72480 On ch=1 n=68 v=84
72672 Off ch=1 n=68 v=62
72720 On ch=1 n=68 v=82
72912 Off ch=1 n=68 v=66
72960 On ch=1 n=68 v=80
73080 Off ch=1 n=68 v=65
73080 On ch=1 n=67 v=81
73200 Off ch=1 n=67 v=66
73200 On ch=1 n=65 v=81
73320 Off ch=1 n=65 v=63
73320 On ch=1 n=67 v=82
73440 Off ch=1 n=67 v=66
73440 On ch=1 n=68 v=79
73680 Off ch=1 n=68 v=62
73680 On ch=1 n=68 v=78
73716 Off ch=1 n=68 v=55
73716 On ch=1 n=70 v=79
73752 Off ch=1 n=70 v=56
73752 On ch=1 n=68 v=80
73788 Off ch=1 n=68 v=58
73788 On ch=1 n=67 v=82
73824 Off ch=1 n=67 v=56
73824 On ch=1 n=68 v=82
73860 Off ch=1 n=68 v=55
73860 On ch=1 n=72 v=80
73920 Off ch=1 n=72 v=57
73920 On ch=1 n=75 v=82
74400 Off ch=1 n=75 v=65
74400 On ch=1 n=73 v=81
74472 Off ch=1 n=73 v=63
74520 On ch=1 n=89 v=79
74760 Off ch=1 n=89 v=62
74760 On ch=1 n=87 v=81
74820 Off ch=1 n=87 v=55
74820 On ch=1 n=85 v=78
74880 Off ch=1 n=85 v=58
74880 On ch=1 n=84 v=79
74952 Off ch=1 n=84 v=64
75000 On ch=1 n=87 v=81
75240 Off ch=1 n=87 v=65
75240 On ch=1 n=85 v=79
75300 Off ch=1 n=85 v=56
75300 On ch=1 n=84 v=78
75360 Off ch=1 n=84 v=58
75360 On ch=1 n=82 v=78
75420 Off ch=1 n=82 v=58
75420 On ch=1 n=84 v=79
75480 Off ch=1 n=84 v=58
75480 On ch=1 n=85 v=81
75540 Off ch=1 n=85 v=55
75540 On ch=1 n=84 v=78
75600 Off ch=1 n=84 v=54
75600 On ch=1 n=87 v=82
75660 Off ch=1 n=87 v=54
75660 On ch=1 n=85 v=78
75720 Off ch=1 n=85 v=57
75720 On ch=1 n=84 v=80
75780 Off ch=1 n=84 v=58
75780 On ch=1 n=82 v=82
75840 Off ch=1 n=82 v=56
75840 On ch=1 n=80 v=79
76080 Off ch=1 n=80 v=63
76080 On ch=1 n=79 v=81
76200 Off ch=1 n=79 v=66
76200 On ch=1 n=63 v=80
76272 Off ch=1 n=63 v=66
76320 On ch=1 n=63 v=80
76400 Off ch=1 n=63 v=66
76400 On ch=1 n=68 v=82
76448 Off ch=1 n=68 v=62
76480 On ch=1 n=68 v=82
76528 Off ch=1 n=68 v=66
76560 On ch=1 n=68 v=79
76608 Off ch=1 n=68 v=64
76640 On ch=1 n=68 v=80
76688 Off ch=1 n=68 v=65
76720 On ch=1 n=68 v=82
76768 Off ch=1 n=68 v=66
76800 On ch=1 n=68 v=80
76880 Off ch=1 n=68 v=63
76880 On ch=1 n=67 v=79
76928 Off ch=1 n=67 v=65
76960 On ch=1 n=65 v=79
77008 Off ch=1 n=65 v=64
77040 On ch=1 n=63 v=81
77088 Off ch=1 n=63 v=65
77120 On ch=1 n=65 v=81
77168 Off ch=1 n=65 v=63
77200 On ch=1 n=67 v=81
77248 Off ch=1 n=67 v=66
77280 On ch=1 n=68 v=81
77328 Off ch=1 n=68 v=66
77360 On ch=1 n=70 v=78
77408 Off ch=1 n=70 v=65
77440 On ch=1 n=71 v=82
77488 Off ch=1 n=71 v=66
77520 On ch=1 n=72 v=78
77568 Off ch=1 n=72 v=63
77600 On ch=1 n=73 v=80
77648 Off ch=1 n=73 v=63
77680 On ch=1 n=74 v=78
77728 Off ch=1 n=74 v=63
77760 On ch=1 n=77 v=78
77832 Off ch=1 n=77 v=64
77880 On ch=1 n=75 v=78
78120 Off ch=1 n=75 v=62
78120 On ch=1 n=75 v=78
78192 Off ch=1 n=75 v=63
78240 On ch=1 n=73 v=80
78360 Off ch=1 n=73 v=65
78360 On ch=1 n=89 v=78
78600 Off ch=1 n=89 v=62
78600 On ch=1 n=87 v=78
78660 Off ch=1 n=87 v=56
78660 On ch=1 n=85 v=80
78720 Off ch=1 n=85 v=58
78720 On ch=1 n=84 v=80
78816 Off ch=1 n=84 v=66
78816 On ch=1 n=86 v=81
78912 Off ch=1 n=86 v=66
78912 On ch=1 n=84 v=79
79008 Off ch=1 n=84 v=62
79008 On ch=1 n=83 v=79
79104 Off ch=1 n=83 v=63
79104 On ch=1 n=84 v=82
79200 Off ch=1 n=84 v=62
79200 On ch=1 n=89 v=79
79320 Off ch=1 n=89 v=63
79320 On ch=1 n=87 v=78
79440 Off ch=1 n=87 v=63
79440 On ch=1 n=86 v=79
79560 Off ch=1 n=86 v=65
79560 On ch=1 n=84 v=79
79680 Off ch=1 n=84 v=66
79680 On ch=1 n=83 v=82
79920 Off ch=1 n=83 v=64
80280 On ch=1 n=79 v=79
80376 Off ch=1 n=79 v=63
80400 On ch=1 n=79 v=80
80496 Off ch=1 n=79 v=64
80520 On ch=1 n=79 v=80
80616 Off ch=1 n=79 v=64
80640 On ch=1 n=79 v=78
80820 Off ch=1 n=79 v=62
80820 On ch=1 n=75 v=80
80880 Off ch=1 n=75 v=56
80880 On ch=1 n=72 v=81
81024 Off ch=1 n=72 v=62
81240 On ch=1 n=87 v=80
81360 Off ch=1 n=87 v=65
81360 On ch=1 n=86 v=79
81480 Off ch=1 n=86 v=65
81480 On ch=1 n=84 v=79
81600 Off ch=1 n=84 v=62
81600 On ch=1 n=83 v=81
81636 Off ch=1 n=83 v=56
81636 On ch=1 n=84 v=82
81672 Off ch=1 n=84 v=54
81672 On ch=1 n=83 v=82
81708 Off ch=1 n=83 v=55
81708 On ch=1 n=81 v=78
81744 Off ch=1 n=81 v=57
81744 On ch=1 n=83 v=78
81780 Off ch=1 n=83 v=57
81780 On ch=1 n=84 v=80
81840 Off ch=1 n=84 v=57
81840 On ch=1 n=86 v=78
82080 Off ch=1 n=86 v=63
82140 On ch=1 n=79 v=81
82200 Off ch=1 n=79 v=55
82200 On ch=1 n=78 v=78
82260 Off ch=1 n=78 v=57
82260 On ch=1 n=79 v=82
82320 Off ch=1 n=79 v=58
82320 On ch=1 n=81 v=79
82380 Off ch=1 n=81 v=58
82380 On ch=1 n=79 v=81
82440 Off ch=1 n=79 v=54
82440 On ch=1 n=77 v=81
82500 Off ch=1 n=77 v=54
82500 On ch=1 n=74 v=81
82560 Off ch=1 n=74 v=54
82560 On ch=1 n=75 v=79
82620 Off ch=1 n=75 v=55
82620 On ch=1 n=77 v=79
82680 Off ch=1 n=77 v=54
82680 On ch=1 n=78 v=80
82740 Off ch=1 n=78 v=55
82740 On ch=1 n=79 v=79
82800 Off ch=1 n=79 v=58
82800 On ch=1 n=72 v=78
83040 Off ch=1 n=72 v=64
83160 On ch=1 n=75 v=82
83220 Off ch=1 n=75 v=54
83220 On ch=1 n=74 v=80
83280 Off ch=1 n=74 v=56
83280 On ch=1 n=77 v=81
83340 Off ch=1 n=77 v=55
83340 On ch=1 n=75 v=80
83400 Off ch=1 n=75 v=56
83400 On ch=1 n=74 v=78
83460 Off ch=1 n=74 v=58
83460 On ch=1 n=72 v=79
83520 Off ch=1 n=72 v=57
83520 On ch=1 n=71 v=81
83556 Off ch=1 n=71 v=57
83556 On ch=1 n=72 v=82
83592 Off ch=1 n=72 v=56
83592 On ch=1 n=71 v=78
83628 Off ch=1 n=71 v=57
83628 On ch=1 n=69 v=81
83664 Off ch=1 n=69 v=57
83664 On ch=1 n=71 v=82
83700 Off ch=1 n=71 v=54
83700 On ch=1 n=72 v=79
83760 Off ch=1 n=72 v=54
83760 On ch=1 n=74 v=81
84000 Off ch=1 n=74 v=66
84120 On ch=1 n=63 v=82
84180 Off ch=1 n=63 v=57
84180 On ch=1 n=62 v=79
84240 Off ch=1 n=62 v=57
84240 On ch=1 n=65 v=81
84300 Off ch=1 n=65 v=56
84300 On ch=1 n=63 v=81
84360 Off ch=1 n=63 v=55
84360 On ch=1 n=62 v=81
84420 Off ch=1 n=62 v=55
84420 On ch=1 n=60 v=79
84480 Off ch=1 n=60 v=56
84520 On ch=1 n=54 v=81
84560 Off ch=1 n=54 v=54
84560 On ch=1 n=55 v=79
84600 Off ch=1 n=55 v=56
84600 On ch=1 n=56 v=82
84640 Off ch=1 n=56 v=58
84640 On ch=1 n=57 v=83
84680 Off ch=1 n=57 v=55
84680 On ch=1 n=58 v=84
84720 Off ch=1 n=58 v=55
84720 On ch=1 n=59 v=84
84760 Off ch=1 n=59 v=57
84760 On ch=1 n=60 v=87
84800 Off ch=1 n=60 v=57
84800 On ch=1 n=61 v=85
84840 Off ch=1 n=61 v=54
84840 On ch=1 n=62 v=85
84880 Off ch=1 n=62 v=58
84880 On ch=1 n=63 v=89
84920 Off ch=1 n=63 v=55
84920 On ch=1 n=64 v=86
84960 Off ch=1 n=64 v=54
84960 On ch=1 n=65 v=90
85000 Off ch=1 n=65 v=56
85000 On ch=1 n=66 v=89
85040 Off ch=1 n=66 v=55
85040 On ch=1 n=67 v=91
85080 Off ch=1 n=67 v=56
85080 On ch=1 n=68 v=93
85120 Off ch=1 n=68 v=57
85120 On ch=1 n=69 v=90
85160 Off ch=1 n=69 v=54
85160 On ch=1 n=70 v=95
85200 Off ch=1 n=70 v=54
85200 On ch=1 n=71 v=94
85240 Off ch=1 n=71 v=58
85240 On ch=1 n=72 v=96
85280 Off ch=1 n=72 v=57
85280 On ch=1 n=73 v=94
85320 Off ch=1 n=73 v=55
85320 On ch=1 n=74 v=98
85360 Off ch=1 n=74 v=57
85360 On ch=1 n=75 v=100
85400 Off ch=1 n=75 v=57
85400 On ch=1 n=76 v=97
85440 Off ch=1 n=76 v=56
85440 On ch=1 n=77 v=97
85480 Off ch=1 n=77 v=55
85480 On ch=1 n=78 v=99
85520 Off ch=1 n=78 v=58
85520 On ch=1 n=79 v=103
85560 Off ch=1 n=79 v=58
85560 On ch=1 n=80 v=102
85600 Off ch=1 n=80 v=57
85600 On ch=1 n=81 v=105
85640 Off ch=1 n=81 v=58
85640 On ch=1 n=82 v=103
85680 Off ch=1 n=82 v=56
85680 On ch=1 n=83 v=104
85720 Off ch=1 n=83 v=56
85720 On ch=1 n=84 v=103
85760 Off ch=1 n=84 v=56
85760 On ch=1 n=85 v=107
85800 Off ch=1 n=85 v=58
85800 On ch=1 n=86 v=106
85840 Off ch=1 n=86 v=55
85840 On ch=1 n=87 v=108
85880 Off ch=1 n=87 v=56
85880 On ch=1 n=88 v=111
85920 Off ch=1 n=88 v=56
85920 On ch=1 n=89 v=111
85968 Off ch=1 n=89 v=65
86000 On ch=1 n=88 v=110
86048 Off ch=1 n=88 v=66
86080 On ch=1 n=87 v=106
86128 Off ch=1 n=87 v=66
86160 On ch=1 n=86 v=104
86208 Off ch=1 n=86 v=65
86240 On ch=1 n=85 v=104
86288 Off ch=1 n=85 v=65
86320 On ch=1 n=84 v=103
86368 Off ch=1 n=84 v=62
86400 On ch=1 n=83 v=98
86448 Off ch=1 n=83 v=64
86480 On ch=1 n=82 v=98
86528 Off ch=1 n=82 v=64
86560 On ch=1 n=81 v=98
86608 Off ch=1 n=81 v=64
86640 On ch=1 n=80 v=93
86688 Off ch=1 n=80 v=64
86720 On ch=1 n=79 v=93
86768 Off ch=1 n=79 v=66
86800 On ch=1 n=78 v=92
86848 Off ch=1 n=78 v=66
86880 On ch=1 n=77 v=88
86928 Off ch=1 n=77 v=64
86960 On ch=1 n=76 v=88
87008 Off ch=1 n=76 v=63
87040 On ch=1 n=75 v=85
87088 Off ch=1 n=75 v=63
87120 On ch=1 n=74 v=87
87168 Off ch=1 n=74 v=62
87200 On ch=1 n=73 v=86
87248 Off ch=1 n=73 v=63
87280 On ch=1 n=72 v=82
87328 Off ch=1 n=72 v=63
87360 On ch=1 n=71 v=79
87408 Off ch=1 n=71 v=64
87440 On ch=1 n=70 v=79
87488 Off ch=1 n=70 v=65
87520 On ch=1 n=69 v=80
87568 Off ch=1 n=69 v=66
87600 On ch=1 n=67 v=81
87648 Off ch=1 n=67 v=65
87680 On ch=1 n=69 v=82
87728 Off ch=1 n=69 v=66
87760 On ch=1 n=71 v=80
87808 Off ch=1 n=71 v=62
87840 On ch=1 n=72 v=82
88032 Off ch=1 n=72 v=66
88080 On ch=1 n=72 v=82
88272 Off ch=1 n=72 v=65
88320 On ch=1 n=72 v=79
88440 Off ch=1 n=72 v=63
88440 On ch=1 n=71 v=79
88560 Off ch=1 n=71 v=62
88560 On ch=1 n=69 v=81
88680 Off ch=1 n=69 v=64
88680 On ch=1 n=71 v=78
88800 Off ch=1 n=71 v=64
88800 On ch=1 n=72 v=81
89040 Off ch=1 n=72 v=65
89040 On ch=1 n=72 v=81
89076 Off ch=1 n=72 v=58
89076 On ch=1 n=74 v=81
89112 Off ch=1 n=74 v=55
89112 On ch=1 n=72 v=79
89148 Off ch=1 n=72 v=55
89148 On ch=1 n=71 v=79
89184 Off ch=1 n=71 v=54
89184 On ch=1 n=72 v=80
89220 Off ch=1 n=72 v=54
89220 On ch=1 n=76 v=80
89280 Off ch=1 n=76 v=56
89280 On ch=1 n=79 v=82
89760 Off ch=1 n=79 v=62
89760 On ch=1 n=77 v=80
89880 Off ch=1 n=77 v=64
89880 On ch=1 n=81 v=81
90120 Off ch=1 n=81 v=63
90120 On ch=1 n=79 v=81
90180 Off ch=1 n=79 v=57
90180 On ch=1 n=77 v=82
90240 Off ch=1 n=77 v=58
90240 On ch=1 n=76 v=81
90360 Off ch=1 n=76 v=63
90360 On ch=1 n=79 v=80
90600 Off ch=1 n=79 v=65
90600 On ch=1 n=77 v=79
90660 Off ch=1 n=77 v=56
90660 On ch=1 n=76 v=80
90720 Off ch=1 n=76 v=54
90720 On ch=1 n=74 v=82
90780 Off ch=1 n=74 v=56
90780 On ch=1 n=76 v=79
90840 Off ch=1 n=76 v=54
90840 On ch=1 n=77 v=81
90900 Off ch=1 n=77 v=56
90900 On ch=1 n=76 v=78
90960 Off ch=1 n=76 v=57
90960 On ch=1 n=79 v=81
91020 Off ch=1 n=79 v=56
91020 On ch=1 n=77 v=79
91080 Off ch=1 n=77 v=55
91080 On ch=1 n=76 v=78
91140 Off ch=1 n=76 v=54
91140 On ch=1 n=74 v=81
91200 Off ch=1 n=74 v=54
91200 On ch=1 n=72 v=82
91440 Off ch=1 n=72 v=64
91440 On ch=1 n=71 v=80
91560 Off ch=1 n=71 v=63
91560 On ch=1 n=67 v=81
91632 Off ch=1 n=67 v=65
91680 On ch=1 n=67 v=79
91760 Off ch=1 n=67 v=64
91760 On ch=1 n=72 v=80
91808 Off ch=1 n=72 v=62
91840 On ch=1 n=72 v=79
91888 Off ch=1 n=72 v=65
91920 On ch=1 n=72 v=79
91968 Off ch=1 n=72 v=63
92000 On ch=1 n=72 v=80
92048 Off ch=1 n=72 v=66
92080 On ch=1 n=72 v=82
92128 Off ch=1 n=72 v=63
92160 On ch=1 n=72 v=80
92240 Off ch=1 n=72 v=64
92240 On ch=1 n=71 v=80
92288 Off ch=1 n=71 v=65
92320 On ch=1 n=69 v=80
92368 Off ch=1 n=69 v=65
92400 On ch=1 n=67 v=78
92448 Off ch=1 n=67 v=63
92480 On ch=1 n=69 v=82
92528 Off ch=1 n=69 v=64
92560 On ch=1 n=71 v=79
92608 Off ch=1 n=71 v=66
92700 On ch=1 n=72 v=79
92736 Off ch=1 n=72 v=57
92760 On ch=1 n=73 v=81
92796 Off ch=1 n=73 v=55
92820 On ch=1 n=74 v=86
92856 Off ch=1 n=74 v=56
92880 On ch=1 n=75 v=85
92916 Off ch=1 n=75 v=58
92940 On ch=1 n=76 v=91
92976 Off ch=1 n=76 v=55
93000 On ch=1 n=77 v=91
93036 Off ch=1 n=77 v=58
93060 On ch=1 n=78 v=96
93096 Off ch=1 n=78 v=55
93120 On ch=1 n=81 v=94
93192 Off ch=1 n=81 v=64
93240 On ch=1 n=79 v=102
93480 Off ch=1 n=79 v=64
93480 On ch=1 n=79 v=78
93552 Off ch=1 n=79 v=65
93600 On ch=1 n=77 v=82
93630 Off ch=1 n=77 v=50
93630 On ch=1 n=79 v=78
93660 Off ch=1 n=79 v=50
93660 On ch=1 n=76 v=80
93690 Off ch=1 n=76 v=46
93690 On ch=1 n=77 v=82
93720 Off ch=1 n=77 v=50
93720 On ch=1 n=81 v=82
93960 Off ch=1 n=81 v=63
93960 On ch=1 n=79 v=78
94020 Off ch=1 n=79 v=56
94020 On ch=1 n=77 v=81
94080 Off ch=1 n=77 v=54
94080 On ch=1 n=76 v=78
94120 Off ch=1 n=76 v=54
94120 On ch=1 n=79 v=79
94160 Off ch=1 n=79 v=56
94160 On ch=1 n=83 v=78
94200 Off ch=1 n=83 v=56
94200 On ch=1 n=84 v=79
94240 Off ch=1 n=84 v=56
94240 On ch=1 n=79 v=79
94280 Off ch=1 n=79 v=57
94280 On ch=1 n=76 v=79
94320 Off ch=1 n=76 v=56
94320 On ch=1 n=74 v=78
94360 Off ch=1 n=74 v=55
94360 On ch=1 n=77 v=79
94400 Off ch=1 n=77 v=57
94400 On ch=1 n=80 v=81
94440 Off ch=1 n=80 v=55
94440 On ch=1 n=81 v=81
94480 Off ch=1 n=81 v=56
94480 On ch=1 n=77 v=81
94520 Off ch=1 n=77 v=54
94520 On ch=1 n=74 v=78
94560 Off ch=1 n=74 v=57
94560 On ch=1 n=72 v=81
94608 Off ch=1 n=72 v=56
94608 On ch=1 n=74 v=81
94656 Off ch=1 n=74 v=54
94656 On ch=1 n=72 v=81
94704 Off ch=1 n=72 v=56
94704 On ch=1 n=71 v=82
94752 Off ch=1 n=71 v=54
94752 On ch=1 n=72 v=80
94800 Off ch=1 n=72 v=57
94800 On ch=1 n=76 v=82
94920 Off ch=1 n=76 v=62
94920 On ch=1 n=74 v=79
95040 Off ch=1 n=74 v=62
95040 On ch=1 n=72 v=78
95040 On ch=1 n=64 v=81
95280 Off ch=1 n=64 v=65
95280 Off ch=1 n=72 v=66
95640 On ch=1 n=67 v=81
95712 Off ch=1 n=67 v=63
95760 On ch=1 n=72 v=82
95832 Off ch=1 n=72 v=64
95880 On ch=1 n=76 v=79
95952 Off ch=1 n=76 v=64
96000 On ch=1 n=77 v=80
96180 Off ch=1 n=77 v=64
96180 On ch=1 n=74 v=79
96240 Off ch=1 n=74 v=58
96240 On ch=1 n=71 v=82
96480 Off ch=1 n=71 v=64
96600 On ch=1 n=67 v=79
96672 Off ch=1 n=67 v=64
96720 On ch=1 n=71 v=80
96792 Off ch=1 n=71 v=66
96840 On ch=1 n=74 v=82
96912 Off ch=1 n=74 v=66
96960 On ch=1 n=76 v=78
97140 Off ch=1 n=76 v=64
97140 On ch=1 n=72 v=79
97200 Off ch=1 n=72 v=57
97200 On ch=1 n=67 v=79
97440 Off ch=1 n=67 v=63
97560 On ch=1 n=67 v=80
97620 Off ch=1 n=67 v=56
97620 On ch=1 n=69 v=78
97680 Off ch=1 n=69 v=56
97680 On ch=1 n=71 v=80
97740 Off ch=1 n=71 v=57
97740 On ch=1 n=72 v=82
97800 Off ch=1 n=72 v=56
97800 On ch=1 n=74 v=81
97860 Off ch=1 n=74 v=55
97860 On ch=1 n=76 v=80
97896 Off ch=1 n=76 v=57
97920 On ch=1 n=79 v=80
97980 Off ch=1 n=79 v=58
97980 On ch=1 n=77 v=80
98040 Off ch=1 n=77 v=56
98040 On ch=1 n=76 v=80
98100 Off ch=1 n=76 v=56
98100 On ch=1 n=74 v=79
98160 Off ch=1 n=74 v=58
98160 On ch=1 n=72 v=81
98280 Off ch=1 n=72 v=65
98280 On ch=1 n=71 v=80
98400 Off ch=1 n=71 v=63
98520 On ch=1 n=79 v=80
98580 Off ch=1 n=79 v=57
98580 On ch=1 n=81 v=78
98640 Off ch=1 n=81 v=55
98640 On ch=1 n=83 v=79
98700 Off ch=1 n=83 v=58
98700 On ch=1 n=84 v=80
98760 Off ch=1 n=84 v=54
98760 On ch=1 n=86 v=82
98820 Off ch=1 n=86 v=57
98820 On ch=1 n=87 v=80
98856 Off ch=1 n=87 v=55
98880 On ch=1 n=88 v=80
98940 Off ch=1 n=88 v=57
98940 On ch=1 n=87 v=80
99000 Off ch=1 n=87 v=57
99000 On ch=1 n=89 v=79
99060 Off ch=1 n=89 v=58
99060 On ch=1 n=88 v=80
99120 Off ch=1 n=88 v=54
99120 On ch=1 n=86 v=82
99180 Off ch=1 n=86 v=55
99180 On ch=1 n=84 v=82
99240 Off ch=1 n=84 v=58
99240 On ch=1 n=83 v=80
99300 Off ch=1 n=83 v=56
99300 On ch=1 n=81 v=78
99360 Off ch=1 n=81 v=55
99360 On ch=1 n=79 v=78
99396 Off ch=1 n=79 v=56
99420 On ch=1 n=84 v=78
99456 Off ch=1 n=84 v=55
99480 On ch=1 n=83 v=79
99516 Off ch=1 n=83 v=54
99540 On ch=1 n=81 v=82
99576 Off ch=1 n=81 v=54
99600 On ch=1 n=80 v=82
99636 Off ch=1 n=80 v=57
99660 On ch=1 n=79 v=78
99696 Off ch=1 n=79 v=55
99720 On ch=1 n=78 v=82
99756 Off ch=1 n=78 v=54
99780 On ch=1 n=77 v=80
99816 Off ch=1 n=77 v=54
99840 On ch=1 n=76 v=81
99876 Off ch=1 n=76 v=58
99900 On ch=1 n=81 v=78
99936 Off ch=1 n=81 v=54
99960 On ch=1 n=79 v=79
99996 Off ch=1 n=79 v=55
100020 On ch=1 n=78 v=80
100056 Off ch=1 n=78 v=57
100080 On ch=1 n=77 v=80
100116 Off ch=1 n=77 v=55
100140 On ch=1 n=76 v=80
100176 Off ch=1 n=76 v=54
100200 On ch=1 n=75 v=80
100236 Off ch=1 n=75 v=56
100260 On ch=1 n=74 v=82
100296 Off ch=1 n=74 v=55
100320 On ch=1 n=72 v=82
100512 Off ch=1 n=72 v=62
100560 On ch=1 n=72 v=78
100752 Off ch=1 n=72 v=63
100800 On ch=1 n=72 v=78
100920 Off ch=1 n=72 v=62
100920 On ch=1 n=71 v=78
101040 Off ch=1 n=71 v=65
101040 On ch=1 n=70 v=81
101160 Off ch=1 n=70 v=66
101160 On ch=1 n=71 v=79
101280 Off ch=1 n=71 v=65
101280 On ch=1 n=71 v=80
101472 Off ch=1 n=71 v=65
101520 On ch=1 n=71 v=80
101712 Off ch=1 n=71 v=63
101740 On ch=1 n=71 v=82
101760 On ch=1 n=74 v=80
101770 Off ch=1 n=71 v=64
101880 Off ch=1 n=74 v=63
101880 On ch=1 n=72 v=78
102000 Off ch=1 n=72 v=62
102000 On ch=1 n=71 v=78
102120 Off ch=1 n=71 v=65
102120 On ch=1 n=72 v=80
102240 Off ch=1 n=72 v=62
102240 On ch=1 n=72 v=79
102432 Off ch=1 n=72 v=65
102480 On ch=1 n=72 v=80
102672 Off ch=1 n=72 v=63
102720 On ch=1 n=75 v=79
102840 Off ch=1 n=75 v=62
102840 On ch=1 n=73 v=78
102960 Off ch=1 n=73 v=64
102960 On ch=1 n=72 v=80
103080 Off ch=1 n=72 v=65
103080 On ch=1 n=73 v=78
103200 Off ch=1 n=73 v=64
103200 On ch=1 n=78 v=78
103392 Off ch=1 n=78 v=66
103440 On ch=1 n=78 v=79
103632 Off ch=1 n=78 v=66
103680 On ch=1 n=78 v=79
103800 Off ch=1 n=78 v=62
103800 On ch=1 n=77 v=78
103920 Off ch=1 n=77 v=64
103920 On ch=1 n=75 v=81
104040 Off ch=1 n=75 v=64
104040 On ch=1 n=73 v=79
104160 Off ch=1 n=73 v=65
104160 On ch=1 n=72 v=80
104160 On ch=1 n=68 v=82
104352 Off ch=1 n=68 v=63
104352 Off ch=1 n=72 v=64
104400 On ch=1 n=72 v=79
104400 On ch=1 n=68 v=81
104592 Off ch=1 n=68 v=65
104592 Off ch=1 n=72 v=64
104640 On ch=1 n=68 v=80
104640 On ch=1 n=75 v=79
104760 Off ch=1 n=75 v=63
104760 On ch=1 n=73 v=79
104880 Off ch=1 n=73 v=65
104880 On ch=1 n=72 v=80
105000 Off ch=1 n=72 v=65
105000 On ch=1 n=73 v=80
105120 Off ch=1 n=73 v=65
105120 Off ch=1 n=68 v=66
105120 On ch=1 n=68 v=78
105120 On ch=1 n=78 v=80
105120 On ch=1 n=75 v=80
105120 On ch=1 n=66 v=79
105312 Off ch=1 n=66 v=63
105312 Off ch=1 n=75 v=66
105312 Off ch=1 n=78 v=62
105312 Off ch=1 n=68 v=66
105360 On ch=1 n=66 v=81
105360 On ch=1 n=75 v=79
105360 On ch=1 n=78 v=80
105360 On ch=1 n=68 v=78
105552 Off ch=1 n=68 v=66
105552 Off ch=1 n=78 v=64
105552 Off ch=1 n=75 v=66
105552 Off ch=1 n=66 v=66
105600 Par ch=1 c=64 v=127
105840 On ch=1 n=65 v=81
105900 Off ch=1 n=65 v=55
105900 On ch=1 n=68 v=80
105960 Off ch=1 n=68 v=56
105960 On ch=1 n=73 v=82
106020 Off ch=1 n=73 v=56
106020 On ch=1 n=77 v=80
106032 Par ch=1 c=64 v=0
106080 Off ch=1 n=77 v=57
106080 Par ch=1 c=64 v=127
106320 On ch=1 n=63 v=83
106380 Off ch=1 n=63 v=58
106380 On ch=1 n=68 v=81
106440 Off ch=1 n=68 v=55
106440 On ch=1 n=72 v=83
106500 Off ch=1 n=72 v=58
106500 On ch=1 n=75 v=81
106512 Par ch=1 c=64 v=0
106560 Off ch=1 n=75 v=57
106560 Par ch=1 c=64 v=127
106800 On ch=1 n=68 v=83
106860 Off ch=1 n=68 v=55
106860 On ch=1 n=73 v=85
106920 Off ch=1 n=73 v=54
106920 On ch=1 n=77 v=86
106980 Off ch=1 n=77 v=55
106980 On ch=1 n=80 v=86
106992 Par ch=1 c=64 v=0
107040 Off ch=1 n=80 v=55
107040 Par ch=1 c=64 v=127
107280 On ch=1 n=66 v=86
107340 Off ch=1 n=66 v=55
107340 On ch=1 n=68 v=84
107400 Off ch=1 n=68 v=58
107400 On ch=1 n=72 v=87
107460 Off ch=1 n=72 v=58
107460 On ch=1 n=78 v=86
107472 Par ch=1 c=64 v=0
107520 Off ch=1 n=78 v=58
107520 Par ch=1 c=64 v=127
107760 On ch=1 n=65 v=88
107820 Off ch=1 n=65 v=55
107820 On ch=1 n=68 v=88
107880 Off ch=1 n=68 v=55
107880 On ch=1 n=73 v=86
107940 Off ch=1 n=73 v=57
107940 On ch=1 n=77 v=86
107952 Par ch=1 c=64 v=0
108000 Off ch=1 n=77 v=55
108000 Par ch=1 c=64 v=127
108240 On ch=1 n=65 v=91
108300 Off ch=1 n=65 v=55
108300 On ch=1 n=68 v=87
108360 Off ch=1 n=68 v=56
108360 On ch=1 n=72 v=90
108420 Off ch=1 n=72 v=57
108420 On ch=1 n=77 v=88
108432 Par ch=1 c=64 v=0
108480 Off ch=1 n=77 v=55
108480 Par ch=1 c=64 v=127
108720 On ch=1 n=65 v=92
108780 Off ch=1 n=65 v=55
108780 On ch=1 n=68 v=90
108840 Off ch=1 n=68 v=57
108840 On ch=1 n=74 v=89
108900 Off ch=1 n=74 v=54
108900 On ch=1 n=77 v=93
108912 Par ch=1 c=64 v=0
108960 Off ch=1 n=77 v=55
108960 Par ch=1 c=64 v=127
109200 On ch=1 n=63 v=92
109260 Off ch=1 n=63 v=57
109260 On ch=1 n=67 v=94
109320 Off ch=1 n=67 v=57
109320 On ch=1 n=72 v=92
109380 Off ch=1 n=72 v=58
109380 On ch=1 n=75 v=91
109392 Par ch=1 c=64 v=0
109440 Off ch=1 n=75 v=57
109440 Par ch=1 c=64 v=127
109680 On ch=1 n=62 v=93
109740 Off ch=1 n=62 v=55
109740 On ch=1 n=68 v=95
109800 Off ch=1 n=68 v=54
109800 On ch=1 n=72 v=96
109860 Off ch=1 n=72 v=58
109860 On ch=1 n=74 v=92
109872 Par ch=1 c=64 v=0
109920 Off ch=1 n=74 v=56
109920 Par ch=1 c=64 v=127
110160 On ch=1 n=64 v=95
110220 Off ch=1 n=64 v=57
110220 On ch=1 n=70 v=94
110280 Off ch=1 n=70 v=56
110280 On ch=1 n=72 v=96
110340 Off ch=1 n=72 v=54
110340 On ch=1 n=76 v=98
110352 Par ch=1 c=64 v=0
110400 Off ch=1 n=76 v=56
110400 Par ch=1 c=64 v=127
110640 On ch=1 n=65 v=96
110700 Off ch=1 n=65 v=54
110700 On ch=1 n=68 v=95
110760 Off ch=1 n=68 v=54
110760 On ch=1 n=72 v=97
110820 Off ch=1 n=72 v=55
110820 On ch=1 n=77 v=100
110832 Par ch=1 c=64 v=0
110880 Off ch=1 n=77 v=57
110880 Par ch=1 c=64 v=127
111120 On ch=1 n=66 v=100
111180 Off ch=1 n=66 v=55
111180 On ch=1 n=72 v=101
111240 Off ch=1 n=72 v=54
111240 On ch=1 n=75 v=98
111300 Off ch=1 n=75 v=55
111300 On ch=1 n=78 v=100
111312 Par ch=1 c=64 v=0
111360 Off ch=1 n=78 v=54
111360 On ch=1 n=72 v=102
111360 On ch=1 n=79 v=100
111360 On ch=1 n=76 v=101
111360 On ch=1 n=67 v=100
111720 Off ch=1 n=67 v=63
111720 Off ch=1 n=76 v=63
111720 Off ch=1 n=79 v=65
111720 Off ch=1 n=72 v=62
111720 On ch=1 n=74 v=80
111720 On ch=1 n=77 v=80
111840 Off ch=1 n=77 v=66
111840 Off ch=1 n=74 v=62
111840 On ch=1 n=72 v=81
111840 On ch=1 n=76 v=80
111960 Off ch=1 n=76 v=64
111960 Off ch=1 n=72 v=62
111960 On ch=1 n=76 v=79
111960 On ch=1 n=67 v=78
112032 Off ch=1 n=67 v=62
112032 Off ch=1 n=76 v=64
112080 On ch=1 n=65 v=78
112080 On ch=1 n=69 v=78
112080 On ch=1 n=74 v=80
112152 Off ch=1 n=74 v=62
112152 Off ch=1 n=69 v=64
112152 Off ch=1 n=65 v=66
112200 On ch=1 n=72 v=78
112200 On ch=1 n=66 v=79
112200 On ch=1 n=63 v=80
112200 On ch=1 n=69 v=80
112272 Off ch=1 n=69 v=62
112272 Off ch=1 n=63 v=64
112272 Off ch=1 n=66 v=65
112272 Off ch=1 n=72 v=62
112320 On ch=1 n=72 v=78
112320 On ch=1 n=64 v=78
112320 On ch=1 n=67 v=79
112680 Off ch=1 n=67 v=63
112680 Off ch=1 n=64 v=65
112680 Off ch=1 n=72 v=65
112680 On ch=1 n=72 v=82
112680 On ch=1 n=64 v=81
112680 On ch=1 n=67 v=79
112800 Off ch=1 n=67 v=63
112800 Off ch=1 n=64 v=64
112800 Off ch=1 n=72 v=65
112800 On ch=1 n=65 v=78
112800 On ch=1 n=62 v=82
112800 On ch=1 n=72 v=82
112920 Off ch=1 n=72 v=65
112920 Off ch=1 n=62 v=63
112920 Off ch=1 n=65 v=65
112920 On ch=1 n=71 v=78
113040 Off ch=1 n=71 v=64
113040 On ch=1 n=65 v=82
113040 On ch=1 n=69 v=78
113040 On ch=1 n=62 v=79
113160 Off ch=1 n=62 v=63
113160 Off ch=1 n=69 v=65
113160 Off ch=1 n=65 v=66
113160 On ch=1 n=67 v=80
113280 Off ch=1 n=67 v=64
113280 On ch=1 n=76 v=79
113280 On ch=1 n=79 v=79
113640 Off ch=1 n=79 v=66
113640 Off ch=1 n=76 v=63
113640 On ch=1 n=77 v=81
113640 On ch=1 n=74 v=79
113760 Off ch=1 n=74 v=63
113760 Off ch=1 n=77 v=65
113760 On ch=1 n=76 v=78
113760 On ch=1 n=72 v=79
113880 Off ch=1 n=72 v=63
113880 Off ch=1 n=76 v=62
113880 On ch=1 n=67 v=82
113880 On ch=1 n=76 v=81
113952 Off ch=1 n=76 v=63
113952 Off ch=1 n=67 v=65
114000 On ch=1 n=69 v=78
114000 On ch=1 n=74 v=78
114000 On ch=1 n=65 v=82
114072 Off ch=1 n=65 v=63
114072 Off ch=1 n=74 v=64
114072 Off ch=1 n=69 v=66
114120 On ch=1 n=72 v=81
114120 On ch=1 n=63 v=80
114120 On ch=1 n=66 v=80
114120 On ch=1 n=69 v=78
114192 Off ch=1 n=69 v=62
114192 Off ch=1 n=66 v=66
114192 Off ch=1 n=63 v=62
114192 Off ch=1 n=72 v=66
114240 On ch=1 n=72 v=93
114240 On ch=1 n=67 v=93
114240 On ch=1 n=64 v=95
114600 Off ch=1 n=64 v=62
114600 Off ch=1 n=67 v=63
114600 Off ch=1 n=72 v=64
114600 On ch=1 n=72 v=96
114600 On ch=1 n=64 v=96
114600 On ch=1 n=67 v=97
114720 Off ch=1 n=67 v=65
114720 Off ch=1 n=64 v=66
114720 Off ch=1 n=72 v=63
114720 On ch=1 n=62 v=94
114720 On ch=1 n=72 v=96
114720 On ch=1 n=65 v=93
114840 Off ch=1 n=65 v=62
114840 Off ch=1 n=72 v=63
114840 Off ch=1 n=62 v=65
114840 On ch=1 n=71 v=96
114960 Off ch=1 n=71 v=65
114960 On ch=1 n=65 v=97
114960 On ch=1 n=62 v=95
114960 On ch=1 n=69 v=93
115080 Off ch=1 n=69 v=64
115080 Off ch=1 n=62 v=66
115080 Off ch=1 n=65 v=63
115080 On ch=1 n=67 v=93
115200 Off ch=1 n=67 v=64
115200 On ch=1 n=64 v=80
115200 On ch=1 n=72 v=81
115440 Off ch=1 n=72 v=66
115440 Off ch=1 n=64 v=63
115560 On ch=1 n=48 v=78
115680 Off ch=1 n=48 v=63
115680 On ch=1 n=48 v=78
115800 Off ch=1 n=48 v=63
115800 On ch=1 n=47 v=81
115920 Off ch=1 n=47 v=65
115920 On ch=1 n=45 v=79
116040 Off ch=1 n=45 v=62
116040 On ch=1 n=47 v=78
116160 Off ch=1 n=47 v=65
116160 On ch=1 n=48 v=80
116400 Off ch=1 n=48 v=62
116400 On ch=1 n=43 v=79
116520 Off ch=1 n=43 v=62
116520 On ch=1 n=72 v=81
116640 Off ch=1 n=72 v=62
116640 On ch=1 n=72 v=81
116760 Off ch=1 n=72 v=64
116760 On ch=1 n=71 v=81
116880 Off ch=1 n=71 v=63
116880 On ch=1 n=69 v=82
117000 Off ch=1 n=69 v=66
117000 On ch=1 n=71 v=78
117120 Off ch=1 n=71 v=63
117120 On ch=1 n=72 v=79
117360 Off ch=1 n=72 v=64
117360 On ch=1 n=67 v=81
117480 Off ch=1 n=67 v=66
117540 On ch=1 n=48 v=81
117600 Off ch=1 n=48 v=57
117600 On ch=1 n=48 v=78
117660 Off ch=1 n=48 v=56
117660 On ch=1 n=47 v=82
117720 Off ch=1 n=47 v=54
117720 On ch=1 n=52 v=81
117780 Off ch=1 n=52 v=54
117780 On ch=1 n=50 v=80
117840 Off ch=1 n=50 v=56
117840 On ch=1 n=48 v=80
117900 Off ch=1 n=48 v=54
117900 On ch=1 n=47 v=78
117960 Off ch=1 n=47 v=57
117960 On ch=1 n=45 v=80
118020 Off ch=1 n=45 v=56
118020 On ch=1 n=43 v=78
118080 Off ch=1 n=43 v=58
118080 On ch=1 n=43 v=79
118100 On ch=1 n=48 v=82
118110 Off ch=1 n=43 v=63
118320 Off ch=1 n=48 v=66
118320 On ch=1 n=43 v=82
118440 Off ch=1 n=43 v=62
118500 On ch=1 n=72 v=79
118560 Off ch=1 n=72 v=54
118560 On ch=1 n=72 v=80
118620 Off ch=1 n=72 v=58
118620 On ch=1 n=71 v=81
118680 Off ch=1 n=71 v=55
118680 On ch=1 n=76 v=78
118740 Off ch=1 n=76 v=54
118740 On ch=1 n=74 v=81
118800 Off ch=1 n=74 v=54
118800 On ch=1 n=72 v=80
118860 Off ch=1 n=72 v=55
118860 On ch=1 n=71 v=81
118920 Off ch=1 n=71 v=57
118920 On ch=1 n=69 v=81
118980 Off ch=1 n=69 v=57
118980 On ch=1 n=67 v=79
119040 Off ch=1 n=67 v=56
119040 On ch=1 n=67 v=81
119060 On ch=1 n=72 v=79
119070 Off ch=1 n=67 v=65
119280 Off ch=1 n=72 v=62
119280 On ch=1 n=67 v=79
119400 Off ch=1 n=67 v=64
119460 On ch=1 n=48 v=81
119520 Off ch=1 n=48 v=55
119520 On ch=1 n=48 v=84
119580 Off ch=1 n=48 v=55
119580 On ch=1 n=47 v=81
119640 Off ch=1 n=47 v=58
119640 On ch=1 n=52 v=83
119700 Off ch=1 n=52 v=54
119700 On ch=1 n=50 v=85
119760 Off ch=1 n=50 v=57
119760 On ch=1 n=48 v=84
119820 Off ch=1 n=48 v=57
119820 On ch=1 n=47 v=87
119880 Off ch=1 n=47 v=56
119880 On ch=1 n=45 v=83
119940 Off ch=1 n=45 v=56
119940 On ch=1 n=43 v=84
120000 Off ch=1 n=43 v=55
120000 On ch=1 n=48 v=88
120240 Off ch=1 n=48 v=63
120240 On ch=1 n=49 v=90
120480 Off ch=1 n=49 v=63
120480 On ch=1 n=50 v=91
120720 Off ch=1 n=50 v=64
120720 On ch=1 n=51 v=91
120960 Off ch=1 n=51 v=64
120960 On ch=1 n=52 v=94
121200 Off ch=1 n=52 v=63
121200 On ch=1 n=52 v=97
121440 Off ch=1 n=52 v=64
121440 On ch=1 n=53 v=98
121680 Off ch=1 n=53 v=64
121680 On ch=1 n=54 v=99
121920 Off ch=1 n=54 v=65
121920 On ch=1 n=55 v=93
121960 Off ch=1 n=55 v=55
121960 On ch=1 n=56 v=94
122000 Off ch=1 n=56 v=55
122000 On ch=1 n=57 v=96
122040 Off ch=1 n=57 v=57
122040 On ch=1 n=58 v=95
122080 Off ch=1 n=58 v=55
122080 On ch=1 n=59 v=96
122120 Off ch=1 n=59 v=57
122120 On ch=1 n=60 v=94
122160 Off ch=1 n=60 v=55
122160 On ch=1 n=61 v=93
122200 Off ch=1 n=61 v=54
122200 On ch=1 n=62 v=93
122240 Off ch=1 n=62 v=58
122240 On ch=1 n=63 v=97
122280 Off ch=1 n=63 v=57
122280 On ch=1 n=64 v=97
122320 Off ch=1 n=64 v=58
122320 On ch=1 n=65 v=97
122360 Off ch=1 n=65 v=56
122360 On ch=1 n=66 v=94
122400 Off ch=1 n=66 v=58
122400 On ch=1 n=67 v=95
122440 Off ch=1 n=67 v=57
122440 On ch=1 n=68 v=95
122480 Off ch=1 n=68 v=55
122480 On ch=1 n=69 v=96
122520 Off ch=1 n=69 v=57
122520 On ch=1 n=70 v=97
122560 Off ch=1 n=70 v=55
122560 On ch=1 n=71 v=93
122600 Off ch=1 n=71 v=55
122600 On ch=1 n=72 v=95
122640 Off ch=1 n=72 v=54
122640 On ch=1 n=73 v=94
122680 Off ch=1 n=73 v=55
122680 On ch=1 n=74 v=95
122720 Off ch=1 n=74 v=54
122720 On ch=1 n=75 v=95
122760 Off ch=1 n=75 v=57
122760 On ch=1 n=76 v=93
122800 Off ch=1 n=76 v=56
122800 On ch=1 n=77 v=96
122840 Off ch=1 n=77 v=54
122840 On ch=1 n=78 v=97
122880 Off ch=1 n=78 v=54
122880 On ch=1 n=79 v=94
122906 Off ch=1 n=79 v=50
122906 On ch=1 n=80 v=93
122932 Off ch=1 n=80 v=50
122932 On ch=1 n=81 v=97
122958 Off ch=1 n=81 v=47
122958 On ch=1 n=82 v=96
122984 Off ch=1 n=82 v=49
122984 On ch=1 n=83 v=96
123010 Off ch=1 n=83 v=49
123010 On ch=1 n=84 v=91
123036 Off ch=1 n=84 v=48
123036 On ch=1 n=85 v=91
123062 Off ch=1 n=85 v=47
123062 On ch=1 n=86 v=92
123088 Off ch=1 n=86 v=48
123088 On ch=1 n=87 v=92
123114 Off ch=1 n=87 v=48
123120 On ch=1 n=88 v=93
123216 Off ch=1 n=88 v=66
123234 On ch=1 n=86 v=90
123330 Off ch=1 n=86 v=65
123354 On ch=1 n=84 v=86
123450 Off ch=1 n=84 v=65
123474 On ch=1 n=83 v=86
123570 Off ch=1 n=83 v=64
123594 On ch=1 n=81 v=83
123690 Off ch=1 n=81 v=63
123714 On ch=1 n=79 v=81
123810 Off ch=1 n=79 v=63
123840 On ch=1 n=77 v=82
123936 Off ch=1 n=77 v=64
123960 On ch=1 n=76 v=80
124056 Off ch=1 n=76 v=62
124080 On ch=1 n=74 v=79
124176 Off ch=1 n=74 v=62
124200 On ch=1 n=72 v=81
124296 Off ch=1 n=72 v=65
124320 On ch=1 n=71 v=79
124416 Off ch=1 n=71 v=66
124440 On ch=1 n=69 v=82
124536 Off ch=1 n=69 v=64
124560 On ch=1 n=67 v=80
124656 Off ch=1 n=67 v=62
124680 On ch=1 n=66 v=79
124776 Off ch=1 n=66 v=62
124800 On ch=1 n=67 v=80
124920 Off ch=1 n=67 v=65
124920 On ch=1 n=72 v=78
125040 Off ch=1 n=72 v=65
125040 On ch=1 n=76 v=78
125160 Off ch=1 n=76 v=62
125160 On ch=1 n=79 v=79
125400 Off ch=1 n=79 v=66
125400 On ch=1 n=77 v=80
125520 Off ch=1 n=77 v=63
125520 On ch=1 n=74 v=80
125640 Off ch=1 n=74 v=64
125640 On ch=1 n=71 v=78
125760 Off ch=1 n=71 v=62
125760 On ch=1 n=72 v=81
126000 Off ch=1 n=72 v=63
126660 On ch=1 n=67 v=79
126720 Off ch=1 n=67 v=57
126720 On ch=1 n=79 v=80
127200 Off ch=1 n=79 v=64
127620 On ch=1 n=67 v=78
127680 Off ch=1 n=67 v=54
127680 On ch=1 n=79 v=79
128160 Off ch=1 n=79 v=62
128160 On ch=1 n=70 v=80
128160 On ch=1 n=79 v=78
128352 Off ch=1 n=79 v=64
128352 Off ch=1 n=70 v=65
128400 On ch=1 n=79 v=80
128400 On ch=1 n=70 v=78
128592 Off ch=1 n=70 v=64
128592 Off ch=1 n=79 v=66
128640 On ch=1 n=79 v=80
128640 On ch=1 n=69 v=78
128760 Off ch=1 n=79 v=63
128760 On ch=1 n=77 v=82
128880 Off ch=1 n=77 v=65
128880 On ch=1 n=76 v=82
129000 Off ch=1 n=76 v=64
129000 On ch=1 n=74 v=81
129120 Off ch=1 n=74 v=65
129120 Off ch=1 n=69 v=65
129120 On ch=1 n=72 v=94
129120 On ch=1 n=67 v=97
129192 Off ch=1 n=67 v=65
129192 Off ch=1 n=72 v=63
129360 On ch=1 n=65 v=112
129360 On ch=1 n=71 v=108
129360 On ch=1 n=67 v=110
129360 On ch=1 n=62 v=112
129432 Off ch=1 n=62 v=62
129432 Off ch=1 n=67 v=62
129432 Off ch=1 n=71 v=64
129432 Off ch=1 n=65 v=65
129600 On ch=1 n=72 v=112
129600 On ch=1 n=64 v=109
129600 On ch=1 n=67 v=112
129600 On ch=1 n=60 v=110
129840 Off ch=1 n=60 v=62
129840 Off ch=1 n=67 v=65
129840 Off ch=1 n=64 v=66
129840 Off ch=1 n=72 v=65
0 PrCh ch=2 p=0
0 Par ch=2 c=7 v=105
0 Par ch=2 c=121 v=0
0 Par ch=2 c=93 v=4
0 Par ch=2 c=91 v=12
0 Par ch=2 c=10 v=56
480 On ch=2 n=64 v=79
480 On ch=2 n=60 v=78
600 Off ch=2 n=60 v=64
600 Off ch=2 n=64 v=62
600 On ch=2 n=67 v=81
720 Off ch=2 n=67 v=66
720 On ch=2 n=64 v=82
720 On ch=2 n=60 v=80
840 Off ch=2 n=60 v=62
840 Off ch=2 n=64 v=65
840 On ch=2 n=67 v=80
960 Off ch=2 n=67 v=66
960 On ch=2 n=62 v=79
960 On ch=2 n=65 v=80
1080 Off ch=2 n=65 v=65
1080 Off ch=2 n=62 v=62
1080 On ch=2 n=67 v=78
1200 Off ch=2 n=67 v=65
1200 On ch=2 n=65 v=78
1200 On ch=2 n=62 v=79
1320 Off ch=2 n=62 v=63
1320 Off ch=2 n=65 v=64
1320 On ch=2 n=67 v=81
1440 Off ch=2 n=67 v=63
1440 On ch=2 n=64 v=81
1440 On ch=2 n=60 v=78
1560 Off ch=2 n=60 v=66
1560 Off ch=2 n=64 v=63
1560 On ch=2 n=67 v=78
1680 Off ch=2 n=67 v=63
1680 On ch=2 n=64 v=79
1680 On ch=2 n=60 v=79
1800 Off ch=2 n=60 v=64
1800 Off ch=2 n=64 v=63
1800 On ch=2 n=67 v=79
1920 Off ch=2 n=67 v=62
1920 On ch=2 n=59 v=80
1920 On ch=2 n=62 v=81
2040 Off ch=2 n=62 v=65
2040 Off ch=2 n=59 v=65
2040 On ch=2 n=67 v=81
2160 Off ch=2 n=67 v=66
2160 On ch=2 n=59 v=78
2160 On ch=2 n=62 v=78
2280 Off ch=2 n=62 v=66
2280 Off ch=2 n=59 v=66
2280 On ch=2 n=67 v=78
2400 Off ch=2 n=67 v=63
2400 On ch=2 n=60 v=80
2400 On ch=2 n=57 v=82
2520 Off ch=2 n=57 v=64
2520 Off ch=2 n=60 v=65
2520 On ch=2 n=65 v=81
2640 Off ch=2 n=65 v=62
2640 On ch=2 n=59 v=79
2640 On ch=2 n=62 v=81
2760 Off ch=2 n=62 v=65
2760 Off ch=2 n=59 v=64
2760 On ch=2 n=67 v=80
2880 Off ch=2 n=67 v=65
2880 On ch=2 n=60 v=78
3000 Off ch=2 n=60 v=64
3000 On ch=2 n=64 v=78
3120 Off ch=2 n=64 v=63
3120 On ch=2 n=55 v=80
3120 On ch=2 n=52 v=82
3240 Off ch=2 n=52 v=64
3240 Off ch=2 n=55 v=64
3240 On ch=2 n=60 v=81
3360 Off ch=2 n=60 v=63
3360 On ch=2 n=53 v=81
3480 On ch=2 n=57 v=82
3600 Off ch=2 n=57 v=63
3600 On ch=2 n=62 v=81
3720 Off ch=2 n=62 v=62
3720 On ch=2 n=65 v=81
3840 Off ch=2 n=65 v=62
3840 Off ch=2 n=53 v=63
3840 On ch=2 n=55 v=82
3960 On ch=2 n=64 v=81
4080 Off ch=2 n=64 v=65
4080 On ch=2 n=62 v=79
4200 Off ch=2 n=62 v=64
4200 Off ch=2 n=55 v=63
4320 On ch=2 n=64 v=79
4320 On ch=2 n=60 v=81
4440 Off ch=2 n=60 v=63
4440 Off ch=2 n=64 v=64
4440 On ch=2 n=67 v=79
4560 Off ch=2 n=67 v=62
4560 On ch=2 n=64 v=79
4560 On ch=2 n=60 v=81
4680 Off ch=2 n=60 v=64
4680 Off ch=2 n=64 v=65
4680 On ch=2 n=67 v=79
4800 Off ch=2 n=67 v=64
4800 On ch=2 n=62 v=81
4800 On ch=2 n=65 v=81
4920 Off ch=2 n=65 v=63
4920 Off ch=2 n=62 v=66
4920 On ch=2 n=67 v=80
5040 Off ch=2 n=67 v=64
5040 On ch=2 n=62 v=80
5040 On ch=2 n=65 v=79
5160 Off ch=2 n=65 v=62
5160 Off ch=2 n=62 v=62
5160 On ch=2 n=67 v=80
5280 Off ch=2 n=67 v=63
5280 On ch=2 n=64 v=82
5280 On ch=2 n=60 v=81
5400 Off ch=2 n=60 v=66
5400 Off ch=2 n=64 v=62
5400 On ch=2 n=67 v=82
5520 Off ch=2 n=67 v=63
5520 On ch=2 n=64 v=82
5520 On ch=2 n=60 v=78
5640 Off ch=2 n=60 v=63
5640 Off ch=2 n=64 v=63
5640 On ch=2 n=67 v=79
5760 Off ch=2 n=67 v=62
5760 On ch=2 n=62 v=82
5760 On ch=2 n=59 v=78
5880 Off ch=2 n=59 v=62
5880 Off ch=2 n=62 v=66
5880 On ch=2 n=67 v=79
6000 Off ch=2 n=67 v=64
6000 On ch=2 n=62 v=80
6000 On ch=2 n=59 v=80
6120 Off ch=2 n=59 v=64
6120 Off ch=2 n=62 v=64
6120 On ch=2 n=67 v=81
6240 Off ch=2 n=67 v=63
6240 On ch=2 n=60 v=80
6240 On ch=2 n=57 v=80
6360 Off ch=2 n=57 v=62
6360 Off ch=2 n=60 v=63
6360 On ch=2 n=65 v=79
6480 Off ch=2 n=65 v=66
6480 On ch=2 n=59 v=82
6480 On ch=2 n=62 v=78
6600 Off ch=2 n=62 v=63
6600 Off ch=2 n=59 v=63
6600 On ch=2 n=67 v=79
6720 Off ch=2 n=67 v=63
6720 On ch=2 n=64 v=80
6720 On ch=2 n=60 v=78
6840 Off ch=2 n=60 v=65
6840 Off ch=2 n=64 v=66
6840 On ch=2 n=67 v=80
6960 Off ch=2 n=67 v=62
6960 On ch=2 n=53 v=78
7080 Off ch=2 n=53 v=65
7080 On ch=2 n=65 v=82
7200 Off ch=2 n=65 v=64
7200 On ch=2 n=55 v=78
7320 Off ch=2 n=55 v=62
7320 On ch=2 n=64 v=82
7440 Off ch=2 n=64 v=65
7440 On ch=2 n=55 v=79
7560 Off ch=2 n=55 v=65
7560 On ch=2 n=65 v=81
7680 Off ch=2 n=65 v=63
7680 On ch=2 n=48 v=78
7800 Off ch=2 n=48 v=65
7800 On ch=2 n=55 v=78
7920 Off ch=2 n=55 v=63
7920 On ch=2 n=55 v=81
8040 Off ch=2 n=55 v=65
8040 On ch=2 n=55 v=80
8160 Off ch=2 n=55 v=66
8160 On ch=2 n=52 v=82
8160 On ch=2 n=60 v=80
8280 Off ch=2 n=52 v=65
8280 On ch=2 n=55 v=80
8400 Off ch=2 n=55 v=65
8400 On ch=2 n=55 v=81
8520 Off ch=2 n=55 v=62
8520 On ch=2 n=55 v=79
8640 Off ch=2 n=55 v=64
8640 Off ch=2 n=60 v=65
8640 On ch=2 n=50 v=82
8640 On ch=2 n=59 v=81
8760 Off ch=2 n=50 v=62
8760 On ch=2 n=55 v=81
8880 Off ch=2 n=55 v=66
8880 On ch=2 n=55 v=81
9000 Off ch=2 n=55 v=65
9000 On ch=2 n=55 v=78
9120 Off ch=2 n=55 v=64
9120 Off ch=2 n=59 v=65
9120 On ch=2 n=53 v=81
9120 On ch=2 n=62 v=82
9240 Off ch=2 n=53 v=64
9240 On ch=2 n=55 v=82
9360 Off ch=2 n=55 v=63
9360 On ch=2 n=55 v=79
9480 Off ch=2 n=55 v=65
9480 On ch=2 n=55 v=78
9600 Off ch=2 n=55 v=64
9600 Off ch=2 n=62 v=65
9600 On ch=2 n=52 v=78
9600 On ch=2 n=60 v=80
9720 Off ch=2 n=52 v=63
9720 On ch=2 n=55 v=78
9840 Off ch=2 n=55 v=62
9840 On ch=2 n=55 v=81
9960 Off ch=2 n=55 v=62
9960 On ch=2 n=55 v=81
10080 Off ch=2 n=55 v=66
10080 Off ch=2 n=60 v=64
10080 On ch=2 n=52 v=79
10080 On ch=2 n=48 v=81
10200 Off ch=2 n=52 v=64
10200 On ch=2 n=55 v=78
10272 Off ch=2 n=55 v=65
10320 On ch=2 n=55 v=78
10392 Off ch=2 n=55 v=65
10440 On ch=2 n=55 v=78
10512 Off ch=2 n=55 v=63
10560 Off ch=2 n=48 v=64
10560 On ch=2 n=53 v=81
10560 On ch=2 n=50 v=80
10680 Off ch=2 n=53 v=66
10680 On ch=2 n=55 v=79
10752 Off ch=2 n=55 v=65
10800 On ch=2 n=55 v=80
10872 Off ch=2 n=55 v=62
10920 On ch=2 n=55 v=79
10992 Off ch=2 n=55 v=65
11040 Off ch=2 n=50 v=64
11040 On ch=2 n=53 v=79
11040 On ch=2 n=47 v=81
11160 Off ch=2 n=53 v=63
11160 On ch=2 n=55 v=82
11232 Off ch=2 n=55 v=62
11280 On ch=2 n=55 v=81
11352 Off ch=2 n=55 v=66
11400 On ch=2 n=55 v=81
11472 Off ch=2 n=55 v=64
11520 Off ch=2 n=47 v=62
11520 On ch=2 n=48 v=78
11520 On ch=2 n=52 v=80
11760 Off ch=2 n=52 v=62
11760 Off ch=2 n=48 v=62
12960 On ch=2 n=64 v=82
12960 On ch=2 n=60 v=79
13080 Off ch=2 n=60 v=64
13080 Off ch=2 n=64 v=62
13080 On ch=2 n=67 v=78
13200 Off ch=2 n=67 v=62
13200 On ch=2 n=60 v=78
13200 On ch=2 n=64 v=82
13320 Off ch=2 n=64 v=64
13320 Off ch=2 n=60 v=62
13320 On ch=2 n=67 v=78
13440 Off ch=2 n=67 v=63
13440 On ch=2 n=62 v=81
13440 On ch=2 n=65 v=82
13560 Off ch=2 n=65 v=65
13560 Off ch=2 n=62 v=62
13560 On ch=2 n=67 v=80
13680 Off ch=2 n=67 v=64
13680 On ch=2 n=65 v=82
13680 On ch=2 n=62 v=78
13800 Off ch=2 n=62 v=65
13800 Off ch=2 n=65 v=65
13800 On ch=2 n=67 v=82
13920 Off ch=2 n=67 v=63
13920 On ch=2 n=64 v=78
13920 On ch=2 n=60 v=78
14040 Off ch=2 n=60 v=64
14040 Off ch=2 n=64 v=63
14040 On ch=2 n=67 v=78
14160 Off ch=2 n=67 v=63
14160 On ch=2 n=60 v=81
14160 On ch=2 n=64 v=81
14280 Off ch=2 n=64 v=66
14280 Off ch=2 n=60 v=63
14280 On ch=2 n=67 v=78
14400 Off ch=2 n=67 v=62
14400 On ch=2 n=62 v=82
14400 On ch=2 n=59 v=78
14520 Off ch=2 n=59 v=63
14520 Off ch=2 n=62 v=62
14520 On ch=2 n=67 v=78
14640 Off ch=2 n=67 v=64
14640 On ch=2 n=59 v=82
14640 On ch=2 n=62 v=82
14760 Off ch=2 n=62 v=64
14760 Off ch=2 n=59 v=65
14760 On ch=2 n=67 v=81
14880 Off ch=2 n=67 v=65
14880 On ch=2 n=60 v=80
14880 On ch=2 n=57 v=79
15000 Off ch=2 n=57 v=65
15000 Off ch=2 n=60 v=62
15000 On ch=2 n=65 v=79
15120 Off ch=2 n=65 v=66
15120 On ch=2 n=59 v=81
15120 On ch=2 n=62 v=78
15240 Off ch=2 n=62 v=62
15240 Off ch=2 n=59 v=64
15240 On ch=2 n=67 v=78
15360 Off ch=2 n=67 v=63
15360 On ch=2 n=64 v=82
15360 On ch=2 n=60 v=81
15480 Off ch=2 n=60 v=65
15480 Off ch=2 n=64 v=66
15480 On ch=2 n=67 v=78
15600 Off ch=2 n=67 v=65
15600 On ch=2 n=53 v=79
15720 Off ch=2 n=53 v=63
15720 On ch=2 n=65 v=81
15840 Off ch=2 n=65 v=65
15840 On ch=2 n=55 v=81
15960 Off ch=2 n=55 v=65
15960 On ch=2 n=64 v=78
16080 Off ch=2 n=64 v=64
16080 On ch=2 n=55 v=81
16200 Off ch=2 n=55 v=65
16200 On ch=2 n=65 v=78
16320 Off ch=2 n=65 v=63
16380 On ch=2 n=48 v=78
16440 Off ch=2 n=48 v=57
16440 On ch=2 n=52 v=78
16500 Off ch=2 n=52 v=55
16500 On ch=2 n=55 v=79
16560 Off ch=2 n=55 v=58
16560 On ch=2 n=60 v=79
16620 Off ch=2 n=60 v=57
16620 On ch=2 n=55 v=82
16680 Off ch=2 n=55 v=58
16680 On ch=2 n=52 v=82
16740 Off ch=2 n=52 v=58
16740 On ch=2 n=55 v=80
16800 Off ch=2 n=55 v=58
16800 On ch=2 n=48 v=79
17040 Off ch=2 n=48 v=65
17340 On ch=2 n=45 v=80
17400 Off ch=2 n=45 v=54
17400 On ch=2 n=48 v=78
17460 Off ch=2 n=48 v=57
17460 On ch=2 n=54 v=78
17520 Off ch=2 n=54 v=56
17520 On ch=2 n=57 v=82
17580 Off ch=2 n=57 v=58
17580 On ch=2 n=54 v=81
17640 Off ch=2 n=54 v=54
17640 On ch=2 n=48 v=78
17700 Off ch=2 n=48 v=56
17700 On ch=2 n=54 v=80
17760 Off ch=2 n=54 v=56
17760 On ch=2 n=45 v=80
18000 Off ch=2 n=45 v=62
18300 On ch=2 n=43 v=79
18360 Off ch=2 n=43 v=55
18360 On ch=2 n=47 v=79
18420 Off ch=2 n=47 v=54
18420 On ch=2 n=50 v=79
18480 Off ch=2 n=50 v=58
18480 On ch=2 n=55 v=81
18540 Off ch=2 n=55 v=55
18540 On ch=2 n=50 v=78
18600 Off ch=2 n=50 v=55
18600 On ch=2 n=47 v=82
18660 Off ch=2 n=47 v=55
18660 On ch=2 n=50 v=79
18720 Off ch=2 n=50 v=58
18720 On ch=2 n=43 v=80
18960 Off ch=2 n=43 v=64
19260 On ch=2 n=52 v=79
19320 Off ch=2 n=52 v=56
19320 On ch=2 n=55 v=78
19380 Off ch=2 n=55 v=54
19380 On ch=2 n=61 v=81
19440 Off ch=2 n=61 v=54
19440 On ch=2 n=64 v=80
19500 Off ch=2 n=64 v=58
19500 On ch=2 n=61 v=81
19560 Off ch=2 n=61 v=56
19560 On ch=2 n=55 v=79
19620 Off ch=2 n=55 v=56
19620 On ch=2 n=61 v=81
19680 Off ch=2 n=61 v=58
19680 On ch=2 n=52 v=78
19920 Off ch=2 n=52 v=65
20160 On ch=2 n=50 v=81
20280 Off ch=2 n=50 v=64
20280 On ch=2 n=57 v=82
20400 Off ch=2 n=57 v=64
20400 On ch=2 n=54 v=78
20520 Off ch=2 n=54 v=66
20520 On ch=2 n=57 v=79
20640 Off ch=2 n=57 v=62
20640 On ch=2 n=52 v=81
20760 Off ch=2 n=52 v=62
20760 On ch=2 n=57 v=78
20880 Off ch=2 n=57 v=63
20880 On ch=2 n=45 v=78
21000 Off ch=2 n=45 v=63
21000 On ch=2 n=57 v=81
21120 Off ch=2 n=57 v=66
21120 On ch=2 n=50 v=81
21240 Off ch=2 n=50 v=64
21240 On ch=2 n=57 v=82
21360 Off ch=2 n=57 v=62
21360 On ch=2 n=54 v=81
21480 Off ch=2 n=54 v=64
21480 On ch=2 n=57 v=82
21600 Off ch=2 n=57 v=63
21600 On ch=2 n=52 v=79
21720 Off ch=2 n=52 v=65
21720 On ch=2 n=57 v=81
21840 Off ch=2 n=57 v=62
21840 On ch=2 n=45 v=79
21960 Off ch=2 n=45 v=65
21960 On ch=2 n=57 v=79
22080 Off ch=2 n=57 v=65
22080 On ch=2 n=50 v=82
22200 Off ch=2 n=50 v=65
22200 On ch=2 n=57 v=81
22320 Off ch=2 n=57 v=64
22320 On ch=2 n=54 v=80
22440 Off ch=2 n=54 v=63
22440 On ch=2 n=57 v=80
22560 Off ch=2 n=57 v=62
22560 On ch=2 n=52 v=78
22680 Off ch=2 n=52 v=62
22680 On ch=2 n=57 v=79
22800 Off ch=2 n=57 v=64
22800 On ch=2 n=55 v=81
22800 On ch=2 n=45 v=78
22920 Off ch=2 n=45 v=62
22920 Off ch=2 n=55 v=65
22920 On ch=2 n=57 v=78
23040 Off ch=2 n=57 v=64
23040 On ch=2 n=54 v=82
23040 On ch=2 n=50 v=80
23280 Off ch=2 n=50 v=65
23280 Off ch=2 n=54 v=66
24000 On ch=2 n=62 v=81
24000 On ch=2 n=66 v=81
24072 Off ch=2 n=66 v=62
24072 Off ch=2 n=62 v=62
24120 On ch=2 n=64 v=78
24120 On ch=2 n=67 v=80
24192 Off ch=2 n=67 v=65
24192 Off ch=2 n=64 v=62
24240 On ch=2 n=69 v=81
24240 On ch=2 n=66 v=78
24312 Off ch=2 n=66 v=62
24312 Off ch=2 n=69 v=64
24360 On ch=2 n=67 v=81
24360 On ch=2 n=64 v=81
24432 Off ch=2 n=64 v=63
24432 Off ch=2 n=67 v=63
24480 On ch=2 n=66 v=78
24480 On ch=2 n=69 v=81
24552 Off ch=2 n=69 v=63
24552 Off ch=2 n=66 v=63
24600 On ch=2 n=64 v=80
24600 On ch=2 n=67 v=80
24672 Off ch=2 n=67 v=66
24672 Off ch=2 n=64 v=64
24720 On ch=2 n=69 v=81
24720 On ch=2 n=66 v=82
24792 Off ch=2 n=66 v=65
24792 Off ch=2 n=69 v=64
24840 On ch=2 n=66 v=79
24840 On ch=2 n=62 v=82
24912 Off ch=2 n=62 v=65
24912 Off ch=2 n=66 v=65
24960 On ch=2 n=67 v=80
24960 On ch=2 n=71 v=80
25152 Off ch=2 n=71 v=62
25152 Off ch=2 n=67 v=62
25200 On ch=2 n=71 v=80
25200 On ch=2 n=67 v=82
25392 Off ch=2 n=67 v=64
25392 Off ch=2 n=71 v=66
25920 On ch=2 n=66 v=78
25920 On ch=2 n=69 v=79
25992 Off ch=2 n=69 v=64
25992 Off ch=2 n=66 v=66
26040 On ch=2 n=67 v=82
26040 On ch=2 n=64 v=81
26112 Off ch=2 n=64 v=66
26112 Off ch=2 n=67 v=65
26160 On ch=2 n=62 v=80
26160 On ch=2 n=66 v=78
26232 Off ch=2 n=66 v=63
26232 Off ch=2 n=62 v=62
26280 On ch=2 n=67 v=82
26280 On ch=2 n=64 v=81
26352 Off ch=2 n=64 v=65
26352 Off ch=2 n=67 v=64
26400 On ch=2 n=69 v=79
26400 On ch=2 n=66 v=80
26472 Off ch=2 n=66 v=64
26472 Off ch=2 n=69 v=65
26520 On ch=2 n=64 v=80
26520 On ch=2 n=67 v=81
26592 Off ch=2 n=67 v=66
26592 Off ch=2 n=64 v=62
26640 On ch=2 n=69 v=80
26640 On ch=2 n=66 v=80
26712 Off ch=2 n=66 v=62
26712 Off ch=2 n=69 v=66
26760 On ch=2 n=66 v=80
26760 On ch=2 n=62 v=80
26832 Off ch=2 n=62 v=62
26832 Off ch=2 n=66 v=62
26880 On ch=2 n=71 v=82
26880 On ch=2 n=67 v=78
27072 Off ch=2 n=67 v=62
27072 Off ch=2 n=71 v=62
27120 On ch=2 n=67 v=78
27120 On ch=2 n=71 v=82
27312 Off ch=2 n=71 v=65
27312 Off ch=2 n=67 v=66
27840 On ch=2 n=68 v=78
27840 On ch=2 n=71 v=80
27912 Off ch=2 n=71 v=65
27912 Off ch=2 n=68 v=62
27960 On ch=2 n=66 v=82
27960 On ch=2 n=69 v=81
28032 Off ch=2 n=69 v=65
28032 Off ch=2 n=66 v=63
28080 On ch=2 n=68 v=82
28080 On ch=2 n=64 v=81
28152 Off ch=2 n=64 v=64
28152 Off ch=2 n=68 v=62
28200 On ch=2 n=66 v=82
28200 On ch=2 n=69 v=80
28272 Off ch=2 n=69 v=64
28272 Off ch=2 n=66 v=62
28320 On ch=2 n=68 v=78
28320 On ch=2 n=71 v=80
28392 Off ch=2 n=71 v=62
28392 Off ch=2 n=68 v=64
28440 On ch=2 n=69 v=81
28440 On ch=2 n=66 v=81
28512 Off ch=2 n=66 v=62
28512 Off ch=2 n=69 v=66
28560 On ch=2 n=71 v=78
28560 On ch=2 n=68 v=82
28632 Off ch=2 n=68 v=65
28632 Off ch=2 n=71 v=66
28680 On ch=2 n=68 v=81
28680 On ch=2 n=64 v=78
28752 Off ch=2 n=64 v=63
28752 Off ch=2 n=68 v=62
28800 On ch=2 n=72 v=80
28800 On ch=2 n=69 v=78
28992 Off ch=2 n=69 v=65
28992 Off ch=2 n=72 v=64
29040 On ch=2 n=69 v=82
29040 On ch=2 n=72 v=80
29232 Off ch=2 n=72 v=63
29232 Off ch=2 n=69 v=63
29520 On ch=2 n=66 v=78
29760 Off ch=2 n=66 v=63
29760 On ch=2 n=67 v=80
30000 Off ch=2 n=67 v=62
30000 On ch=2 n=64 v=81
30240 Off ch=2 n=64 v=65
30240 On ch=2 n=60 v=80
30480 Off ch=2 n=60 v=66
30480 On ch=2 n=62 v=82
30720 Off ch=2 n=62 v=65
30720 On ch=2 n=59 v=79
30960 Off ch=2 n=59 v=64
30960 On ch=2 n=56 v=80
31200 Off ch=2 n=56 v=65
31200 On ch=2 n=57 v=80
31440 Off ch=2 n=57 v=63
31440 On ch=2 n=54 v=80
31680 Off ch=2 n=54 v=65
31680 On ch=2 n=55 v=78
31920 Off ch=2 n=55 v=64
31920 On ch=2 n=52 v=78
32160 Off ch=2 n=52 v=63
32160 On ch=2 n=48 v=79
32400 Off ch=2 n=48 v=62
32400 On ch=2 n=50 v=79
32640 Off ch=2 n=50 v=64
32640 On ch=2 n=43 v=81
32760 Off ch=2 n=43 v=65
32760 On ch=2 n=47 v=80
32880 Off ch=2 n=47 v=64
32880 On ch=2 n=50 v=79
33000 Off ch=2 n=50 v=65
33000 On ch=2 n=48 v=82
33120 Off ch=2 n=48 v=65
33120 On ch=2 n=47 v=78
33240 Off ch=2 n=47 v=64
33240 On ch=2 n=45 v=82
33360 Off ch=2 n=45 v=63
33360 On ch=2 n=47 v=81
33480 Off ch=2 n=47 v=64
33480 On ch=2 n=43 v=82
33600 Off ch=2 n=43 v=64
33600 On ch=2 n=48 v=79
33720 Off ch=2 n=48 v=63
33720 On ch=2 n=43 v=78
33840 Off ch=2 n=43 v=65
33840 On ch=2 n=48 v=82
33960 Off ch=2 n=48 v=66
33960 On ch=2 n=43 v=81
34080 Off ch=2 n=43 v=66
34080 On ch=2 n=48 v=79
34200 Off ch=2 n=48 v=63
34200 On ch=2 n=43 v=81
34320 Off ch=2 n=43 v=62
34320 On ch=2 n=48 v=81
34440 Off ch=2 n=48 v=62
34440 On ch=2 n=43 v=82
34560 Off ch=2 n=43 v=66
34560 On ch=2 n=47 v=82
34680 Off ch=2 n=47 v=62
34680 On ch=2 n=43 v=81
34800 Off ch=2 n=43 v=64
34800 On ch=2 n=50 v=78
34920 Off ch=2 n=50 v=65
34920 On ch=2 n=48 v=82
35040 Off ch=2 n=48 v=63
35040 On ch=2 n=47 v=82
35160 Off ch=2 n=47 v=62
35160 On ch=2 n=45 v=78
35280 Off ch=2 n=45 v=63
35280 On ch=2 n=47 v=79
35400 Off ch=2 n=47 v=66
35400 On ch=2 n=43 v=80
35520 Off ch=2 n=43 v=65
35520 On ch=2 n=48 v=82
35640 Off ch=2 n=48 v=66
35640 On ch=2 n=43 v=78
35760 Off ch=2 n=43 v=65
35760 On ch=2 n=48 v=80
35880 Off ch=2 n=48 v=63
35880 On ch=2 n=43 v=81
36000 Off ch=2 n=43 v=65
36000 On ch=2 n=48 v=79
36120 Off ch=2 n=48 v=63
36120 On ch=2 n=43 v=78
36240 Off ch=2 n=43 v=63
36240 On ch=2 n=48 v=80
36360 Off ch=2 n=48 v=62
36360 On ch=2 n=43 v=79
36480 Off ch=2 n=43 v=65
36480 On ch=2 n=47 v=81
36600 Off ch=2 n=47 v=66
36600 On ch=2 n=43 v=80
36720 Off ch=2 n=43 v=66
36720 On ch=2 n=47 v=80
36840 Off ch=2 n=47 v=64
36840 On ch=2 n=43 v=80
36960 Off ch=2 n=43 v=63
36960 On ch=2 n=48 v=78
37080 Off ch=2 n=48 v=63
37080 On ch=2 n=43 v=82
37200 Off ch=2 n=43 v=66
37200 On ch=2 n=48 v=81
37320 Off ch=2 n=48 v=64
37320 On ch=2 n=43 v=82
37440 Off ch=2 n=43 v=66
37440 On ch=2 n=50 v=80
37560 Off ch=2 n=50 v=62
37560 On ch=2 n=43 v=80
37680 Off ch=2 n=43 v=64
37680 On ch=2 n=50 v=79
37800 Off ch=2 n=50 v=64
37800 On ch=2 n=43 v=82
37920 Off ch=2 n=43 v=65
37920 On ch=2 n=52 v=78
38040 Off ch=2 n=52 v=63
38040 On ch=2 n=43 v=81
38160 Off ch=2 n=43 v=66
38160 On ch=2 n=52 v=80
38280 Off ch=2 n=52 v=62
38280 On ch=2 n=43 v=82
38400 Off ch=2 n=43 v=65
38400 On ch=2 n=53 v=78
38520 Off ch=2 n=53 v=62
38520 On ch=2 n=43 v=80
38640 Off ch=2 n=43 v=66
38640 On ch=2 n=54 v=79
38760 Off ch=2 n=54 v=62
38760 On ch=2 n=43 v=79
38880 Off ch=2 n=43 v=65
38880 On ch=2 n=55 v=82
39000 Off ch=2 n=55 v=66
39000 On ch=2 n=43 v=79
39120 Off ch=2 n=43 v=66
39120 On ch=2 n=56 v=79
39240 Off ch=2 n=56 v=63
39240 On ch=2 n=43 v=82
39360 Off ch=2 n=43 v=64
39360 On ch=2 n=55 v=79
39480 Off ch=2 n=55 v=65
39480 On ch=2 n=43 v=82
39600 Off ch=2 n=43 v=62
39600 On ch=2 n=54 v=81
39720 Off ch=2 n=54 v=62
39720 On ch=2 n=43 v=81
39840 Off ch=2 n=43 v=64
39840 On ch=2 n=55 v=78
39960 Off ch=2 n=55 v=64
39960 On ch=2 n=43 v=80
40080 Off ch=2 n=43 v=63
40080 On ch=2 n=56 v=80
40200 Off ch=2 n=56 v=64
40200 On ch=2 n=43 v=79
40320 Off ch=2 n=43 v=66
40320 On ch=2 n=55 v=78
40440 Off ch=2 n=55 v=65
40440 On ch=2 n=43 v=78
40560 Off ch=2 n=43 v=62
40560 On ch=2 n=54 v=78
40680 Off ch=2 n=54 v=62
40680 On ch=2 n=43 v=81
40800 Off ch=2 n=43 v=63
40800 On ch=2 n=55 v=81
40920 Off ch=2 n=55 v=62
40920 On ch=2 n=43 v=82
41040 Off ch=2 n=43 v=63
41040 On ch=2 n=57 v=78
41160 Off ch=2 n=57 v=64
41160 On ch=2 n=43 v=80
41280 Off ch=2 n=43 v=63
41280 On ch=2 n=55 v=79
41400 Off ch=2 n=55 v=62
41400 On ch=2 n=43 v=78
41520 Off ch=2 n=43 v=64
41520 On ch=2 n=53 v=79
41640 Off ch=2 n=53 v=66
41640 On ch=2 n=43 v=78
41760 Off ch=2 n=43 v=65
41760 On ch=2 n=52 v=79
41760 On ch=2 n=48 v=81
41880 Off ch=2 n=48 v=66
41880 Off ch=2 n=52 v=64
41880 On ch=2 n=55 v=82
42000 Off ch=2 n=55 v=62
42000 On ch=2 n=64 v=82
42120 Off ch=2 n=64 v=64
42120 On ch=2 n=67 v=82
42240 Off ch=2 n=67 v=62
42240 On ch=2 n=62 v=78
42240 On ch=2 n=65 v=80
42360 Off ch=2 n=65 v=64
42360 Off ch=2 n=62 v=66
42360 On ch=2 n=67 v=78
42480 Off ch=2 n=67 v=62
42480 On ch=2 n=62 v=78
42480 On ch=2 n=65 v=81
42600 Off ch=2 n=65 v=66
42600 Off ch=2 n=62 v=62
42600 On ch=2 n=67 v=79
42720 Off ch=2 n=67 v=63
42720 On ch=2 n=60 v=80
42720 On ch=2 n=64 v=82
42840 Off ch=2 n=64 v=66
42840 Off ch=2 n=60 v=64
42840 On ch=2 n=67 v=82
42960 Off ch=2 n=67 v=65
42960 On ch=2 n=64 v=79
42960 On ch=2 n=60 v=79
43080 Off ch=2 n=60 v=65
43080 Off ch=2 n=64 v=63
43080 On ch=2 n=67 v=81
43200 Off ch=2 n=67 v=63
43200 On ch=2 n=62 v=79
43200 On ch=2 n=59 v=81
43320 Off ch=2 n=59 v=66
43320 Off ch=2 n=62 v=63
43320 On ch=2 n=67 v=81
43440 Off ch=2 n=67 v=63
43440 On ch=2 n=62 v=79
43440 On ch=2 n=59 v=79
43560 Off ch=2 n=59 v=63
43560 Off ch=2 n=62 v=66
43560 On ch=2 n=67 v=80
43680 Off ch=2 n=67 v=64
43680 On ch=2 n=57 v=81
43680 On ch=2 n=60 v=78
43800 Off ch=2 n=60 v=63
43800 Off ch=2 n=57 v=62
43800 On ch=2 n=65 v=79
43920 Off ch=2 n=65 v=66
43920 On ch=2 n=62 v=81
43920 On ch=2 n=59 v=82
44040 Off ch=2 n=59 v=62
44040 Off ch=2 n=62 v=66
44040 On ch=2 n=67 v=79
44160 Off ch=2 n=67 v=65
44160 On ch=2 n=60 v=81
44280 Off ch=2 n=60 v=65
44280 On ch=2 n=64 v=79
44400 Off ch=2 n=64 v=63
44400 On ch=2 n=55 v=81
44400 On ch=2 n=52 v=81
44520 Off ch=2 n=52 v=64
44520 Off ch=2 n=55 v=66
44520 On ch=2 n=60 v=79
44640 Off ch=2 n=60 v=62
44640 On ch=2 n=53 v=79
44640 On ch=2 n=53 v=79
44760 Off ch=2 n=53 v=64
44760 On ch=2 n=57 v=81
44880 Off ch=2 n=57 v=66
44880 On ch=2 n=62 v=80
45000 Off ch=2 n=62 v=63
45000 On ch=2 n=65 v=81
45120 Off ch=2 n=65 v=66
45120 Off ch=2 n=53 v=62
45120 On ch=2 n=55 v=80
45240 On ch=2 n=64 v=80
45360 Off ch=2 n=64 v=66
45360 On ch=2 n=62 v=82
45480 Off ch=2 n=62 v=66
45480 Off ch=2 n=55 v=64
45600 On ch=2 n=64 v=78
45600 On ch=2 n=60 v=79
45720 Off ch=2 n=60 v=62
45720 Off ch=2 n=64 v=62
45720 On ch=2 n=67 v=80
45840 Off ch=2 n=67 v=64
45840 On ch=2 n=60 v=78
45840 On ch=2 n=64 v=78
45960 Off ch=2 n=64 v=63
45960 Off ch=2 n=60 v=62
45960 On ch=2 n=67 v=81
46080 Off ch=2 n=67 v=63
46080 On ch=2 n=62 v=81
46080 On ch=2 n=65 v=81
46200 Off ch=2 n=65 v=63
46200 Off ch=2 n=62 v=66
46200 On ch=2 n=67 v=79
46320 Off ch=2 n=67 v=63
46320 On ch=2 n=62 v=82
46320 On ch=2 n=65 v=78
46440 Off ch=2 n=65 v=62
46440 Off ch=2 n=62 v=63
46440 On ch=2 n=67 v=81
46560 Off ch=2 n=67 v=63
46560 On ch=2 n=64 v=78
46560 On ch=2 n=60 v=81
46680 Off ch=2 n=60 v=63
46680 Off ch=2 n=64 v=65
46680 On ch=2 n=67 v=80
46800 Off ch=2 n=67 v=66
46800 On ch=2 n=60 v=81
46800 On ch=2 n=64 v=81
46920 Off ch=2 n=64 v=65
46920 Off ch=2 n=60 v=66
46920 On ch=2 n=67 v=81
47040 Off ch=2 n=67 v=63
47040 On ch=2 n=62 v=79
47040 On ch=2 n=59 v=78
47160 Off ch=2 n=59 v=63
47160 Off ch=2 n=62 v=66
47160 On ch=2 n=67 v=80
47280 Off ch=2 n=67 v=64
47280 On ch=2 n=59 v=82
47280 On ch=2 n=62 v=79
47400 Off ch=2 n=62 v=66
47400 Off ch=2 n=59 v=64
47400 On ch=2 n=67 v=81
47520 Off ch=2 n=67 v=62
47520 On ch=2 n=60 v=81
47520 On ch=2 n=57 v=78
47640 Off ch=2 n=57 v=66
47640 Off ch=2 n=60 v=63
47640 On ch=2 n=65 v=80
47760 Off ch=2 n=65 v=62
47760 On ch=2 n=59 v=81
47760 On ch=2 n=62 v=80
47880 Off ch=2 n=62 v=62
47880 Off ch=2 n=59 v=62
47880 On ch=2 n=67 v=78
48000 Off ch=2 n=67 v=63
48000 On ch=2 n=64 v=81
48000 On ch=2 n=60 v=80
48120 Off ch=2 n=60 v=64
48120 Off ch=2 n=64 v=62
48120 On ch=2 n=67 v=79
48240 Off ch=2 n=67 v=62
48240 On ch=2 n=53 v=79
48360 Off ch=2 n=53 v=62
48360 On ch=2 n=65 v=79
48480 Off ch=2 n=65 v=65
48480 On ch=2 n=55 v=80
48600 Off ch=2 n=55 v=65
48600 On ch=2 n=64 v=82
48720 Off ch=2 n=64 v=65
48720 On ch=2 n=55 v=79
48840 Off ch=2 n=55 v=63
48840 On ch=2 n=65 v=80
48960 Off ch=2 n=65 v=62
48960 On ch=2 n=48 v=79
49080 Off ch=2 n=48 v=65
49080 On ch=2 n=60 v=82
49200 Off ch=2 n=60 v=65
49200 On ch=2 n=48 v=81
49320 Off ch=2 n=48 v=66
49440 On ch=2 n=48 v=81
49440 On ch=2 n=55 v=78
49560 Off ch=2 n=55 v=66
49560 Off ch=2 n=48 v=64
49560 On ch=2 n=48 v=80
49560 On ch=2 n=55 v=80
49800 Off ch=2 n=48 v=63
49800 On ch=2 n=50 v=80
49860 Off ch=2 n=50 v=54
49860 On ch=2 n=52 v=79
49920 Off ch=2 n=52 v=58
49920 Off ch=2 n=55 v=64
49920 On ch=2 n=50 v=98
49960 Off ch=2 n=50 v=57
49960 On ch=2 n=53 v=102
50000 Off ch=2 n=53 v=56
50000 On ch=2 n=56 v=101
50040 Off ch=2 n=56 v=54
50160 On ch=2 n=62 v=101
50200 Off ch=2 n=62 v=58
50200 On ch=2 n=65 v=100
50240 Off ch=2 n=65 v=58
50240 On ch=2 n=68 v=99
50280 Off ch=2 n=68 v=56
50400 On ch=2 n=59 v=101
50400 On ch=2 n=50 v=102
50472 Off ch=2 n=50 v=62
50472 Off ch=2 n=59 v=63
50520 On ch=2 n=59 v=101
50520 On ch=2 n=50 v=99
50760 Off ch=2 n=50 v=65
50760 Off ch=2 n=59 v=63
50760 On ch=2 n=51 v=101
50820 Off ch=2 n=51 v=58
50820 On ch=2 n=53 v=101
50880 Off ch=2 n=53 v=56
50880 On ch=2 n=51 v=100
50920 Off ch=2 n=51 v=55
50920 On ch=2 n=55 v=98
50960 Off ch=2 n=55 v=56
50960 On ch=2 n=60 v=100
51000 Off ch=2 n=60 v=57
51120 On ch=2 n=63 v=98
51160 Off ch=2 n=63 v=55
51160 On ch=2 n=67 v=99
51200 Off ch=2 n=67 v=55
51200 On ch=2 n=72 v=102
51240 Off ch=2 n=72 v=58
51360 On ch=2 n=67 v=98
51360 On ch=2 n=64 v=101
51432 Off ch=2 n=64 v=64
51432 Off ch=2 n=67 v=62
51480 On ch=2 n=64 v=101
51480 On ch=2 n=67 v=102
51720 Off ch=2 n=67 v=63
51720 Off ch=2 n=64 v=66
51720 On ch=2 n=65 v=98
51720 On ch=2 n=68 v=100
51780 Off ch=2 n=68 v=54
51780 Off ch=2 n=65 v=55
51780 On ch=2 n=70 v=99
51780 On ch=2 n=67 v=101
51840 Off ch=2 n=67 v=57
51840 Off ch=2 n=70 v=58
51840 On ch=2 n=65 v=101
51840 On ch=2 n=68 v=99
52080 Off ch=2 n=68 v=65
52080 Off ch=2 n=65 v=62
52320 On ch=2 n=56 v=101
52320 On ch=2 n=53 v=101
52392 Off ch=2 n=53 v=65
52392 Off ch=2 n=56 v=63
52560 On ch=2 n=54 v=100
52560 On ch=2 n=57 v=101
52632 Off ch=2 n=57 v=62
52632 Off ch=2 n=54 v=64
52800 On ch=2 n=55 v=99
52800 On ch=2 n=62 v=102
52872 Off ch=2 n=62 v=66
52872 Off ch=2 n=55 v=64
53280 On ch=2 n=55 v=98
53280 On ch=2 n=48 v=102
53352 Off ch=2 n=48 v=66
53352 Off ch=2 n=55 v=63
53400 On ch=2 n=48 v=100
53400 On ch=2 n=55 v=98
53640 Off ch=2 n=55 v=64
53640 Off ch=2 n=48 v=62
53640 On ch=2 n=50 v=98
53700 Off ch=2 n=50 v=54
53700 On ch=2 n=51 v=99
53760 Off ch=2 n=51 v=57
53760 On ch=2 n=50 v=98
53800 Off ch=2 n=50 v=56
53800 On ch=2 n=53 v=101
53840 Off ch=2 n=53 v=58
53840 On ch=2 n=58 v=99
53880 Off ch=2 n=58 v=57
54000 On ch=2 n=62 v=99
54040 Off ch=2 n=62 v=54
54040 On ch=2 n=65 v=101
54080 Off ch=2 n=65 v=57
54080 On ch=2 n=70 v=101
54120 Off ch=2 n=70 v=56
54240 On ch=2 n=58 v=98
54240 On ch=2 n=46 v=102
54312 Off ch=2 n=46 v=62
54312 Off ch=2 n=58 v=66
54360 On ch=2 n=58 v=98
54360 On ch=2 n=46 v=102
54600 Off ch=2 n=46 v=66
54600 Off ch=2 n=58 v=63
54600 On ch=2 n=48 v=100
54660 Off ch=2 n=48 v=54
54660 On ch=2 n=50 v=102
54720 Off ch=2 n=50 v=56
54720 On ch=2 n=51 v=101
54760 Off ch=2 n=51 v=56
54760 On ch=2 n=55 v=101
54800 Off ch=2 n=55 v=57
54800 On ch=2 n=58 v=102
54840 Off ch=2 n=58 v=58
54960 On ch=2 n=63 v=100
55000 Off ch=2 n=63 v=55
55000 On ch=2 n=67 v=101
55040 Off ch=2 n=67 v=58
55040 On ch=2 n=70 v=103
55080 Off ch=2 n=70 v=56
55200 On ch=2 n=55 v=103
55200 On ch=2 n=63 v=104
55200 On ch=2 n=58 v=104
55344 Off ch=2 n=58 v=64
55344 Off ch=2 n=63 v=62
55344 Off ch=2 n=55 v=62
55680 On ch=2 n=65 v=112
55680 On ch=2 n=56 v=111
55680 On ch=2 n=60 v=111
55680 On ch=2 n=63 v=110
55824 Off ch=2 n=63 v=65
55824 Off ch=2 n=60 v=63
55824 Off ch=2 n=56 v=64
55824 Off ch=2 n=65 v=65
56160 On ch=2 n=67 v=111
56160 On ch=2 n=63 v=108
56160 On ch=2 n=58 v=112
56232 Off ch=2 n=58 v=64
56232 Off ch=2 n=63 v=66
56232 Off ch=2 n=67 v=63
56400 On ch=2 n=58 v=109
56400 On ch=2 n=46 v=110
56472 Off ch=2 n=46 v=62
56472 Off ch=2 n=58 v=62
56640 On ch=2 n=51 v=80
56700 Off ch=2 n=51 v=56
56700 On ch=2 n=58 v=82
56760 Off ch=2 n=58 v=54
56760 On ch=2 n=55 v=82
56820 Off ch=2 n=55 v=55
56820 On ch=2 n=58 v=78
56880 Off ch=2 n=58 v=55
56880 On ch=2 n=46 v=79
56940 Off ch=2 n=46 v=54
56940 On ch=2 n=58 v=81
57000 Off ch=2 n=58 v=57
57000 On ch=2 n=55 v=78
57060 Off ch=2 n=55 v=57
57060 On ch=2 n=58 v=78
57120 Off ch=2 n=58 v=56
57120 On ch=2 n=51 v=78
57180 Off ch=2 n=51 v=55
57180 On ch=2 n=58 v=81
57240 Off ch=2 n=58 v=55
57240 On ch=2 n=55 v=79
57300 Off ch=2 n=55 v=58
57300 On ch=2 n=58 v=81
57360 Off ch=2 n=58 v=57
57360 On ch=2 n=46 v=79
57420 Off ch=2 n=46 v=57
57420 On ch=2 n=58 v=81
57480 Off ch=2 n=58 v=56
57480 On ch=2 n=55 v=81
57540 Off ch=2 n=55 v=56
57540 On ch=2 n=58 v=82
57600 Off ch=2 n=58 v=56
57600 On ch=2 n=53 v=79
57660 Off ch=2 n=53 v=58
57660 On ch=2 n=58 v=81
57720 Off ch=2 n=58 v=58
57720 On ch=2 n=56 v=78
57780 Off ch=2 n=56 v=56
57780 On ch=2 n=58 v=79
57840 Off ch=2 n=58 v=55
57840 On ch=2 n=46 v=79
57900 Off ch=2 n=46 v=56
57900 On ch=2 n=58 v=82
57960 Off ch=2 n=58 v=58
57960 On ch=2 n=56 v=80
58020 Off ch=2 n=56 v=54
58020 On ch=2 n=58 v=81
58080 Off ch=2 n=58 v=58
58080 On ch=2 n=50 v=79
58140 Off ch=2 n=50 v=58
58140 On ch=2 n=58 v=78
58200 Off ch=2 n=58 v=55
58200 On ch=2 n=56 v=82
58260 Off ch=2 n=56 v=57
58260 On ch=2 n=58 v=81
58320 Off ch=2 n=58 v=54
58320 On ch=2 n=46 v=78
58380 Off ch=2 n=46 v=57
58380 On ch=2 n=58 v=80
58440 Off ch=2 n=58 v=54
58440 On ch=2 n=56 v=80
58500 Off ch=2 n=56 v=58
58500 On ch=2 n=58 v=78
58560 Off ch=2 n=58 v=58
58560 On ch=2 n=51 v=81
58620 Off ch=2 n=51 v=54
58620 On ch=2 n=58 v=80
58680 Off ch=2 n=58 v=58
58680 On ch=2 n=55 v=79
58740 Off ch=2 n=55 v=58
58740 On ch=2 n=58 v=78
58800 Off ch=2 n=58 v=57
58800 On ch=2 n=46 v=79
58860 Off ch=2 n=46 v=58
58860 On ch=2 n=58 v=80
58920 Off ch=2 n=58 v=55
58920 On ch=2 n=55 v=79
58980 Off ch=2 n=55 v=57
58980 On ch=2 n=58 v=79
59040 Off ch=2 n=58 v=54
59040 On ch=2 n=51 v=82
59100 Off ch=2 n=51 v=54
59100 On ch=2 n=58 v=82
59160 Off ch=2 n=58 v=57
59160 On ch=2 n=55 v=81
59220 Off ch=2 n=55 v=56
59220 On ch=2 n=58 v=79
59280 Off ch=2 n=58 v=58
59280 On ch=2 n=46 v=78
59340 Off ch=2 n=46 v=57
59340 On ch=2 n=58 v=82
59400 Off ch=2 n=58 v=58
59400 On ch=2 n=55 v=82
59460 Off ch=2 n=55 v=56
59460 On ch=2 n=58 v=79
59520 Off ch=2 n=58 v=57
59520 On ch=2 n=53 v=80
59580 Off ch=2 n=53 v=56
59580 On ch=2 n=58 v=80
59640 Off ch=2 n=58 v=56
59640 On ch=2 n=56 v=80
59700 Off ch=2 n=56 v=56
59700 On ch=2 n=58 v=80
59760 Off ch=2 n=58 v=57
59760 On ch=2 n=46 v=81
59820 Off ch=2 n=46 v=57
59820 On ch=2 n=58 v=81
59880 Off ch=2 n=58 v=57
59880 On ch=2 n=56 v=78
59940 Off ch=2 n=56 v=55
59940 On ch=2 n=58 v=82
60000 Off ch=2 n=58 v=55
60000 On ch=2 n=50 v=82
60060 Off ch=2 n=50 v=58
60060 On ch=2 n=58 v=82
60120 Off ch=2 n=58 v=56
60120 On ch=2 n=56 v=79
60180 Off ch=2 n=56 v=55
60180 On ch=2 n=58 v=78
60240 Off ch=2 n=58 v=58
60240 On ch=2 n=46 v=82
60300 Off ch=2 n=46 v=57
60300 On ch=2 n=58 v=79
60360 Off ch=2 n=58 v=58
60360 On ch=2 n=56 v=80
60420 Off ch=2 n=56 v=58
60420 On ch=2 n=58 v=81
60480 Off ch=2 n=58 v=58
60480 On ch=2 n=49 v=78
60540 Off ch=2 n=49 v=58
60540 On ch=2 n=58 v=81
60600 Off ch=2 n=58 v=54
60600 On ch=2 n=55 v=82
60660 Off ch=2 n=55 v=58
60660 On ch=2 n=58 v=81
60720 Off ch=2 n=58 v=56
60720 On ch=2 n=48 v=80
60780 Off ch=2 n=48 v=58
60780 On ch=2 n=58 v=80
60840 Off ch=2 n=58 v=56
60840 On ch=2 n=55 v=80
60900 Off ch=2 n=55 v=55
60900 On ch=2 n=58 v=78
60960 Off ch=2 n=58 v=56
60960 On ch=2 n=52 v=82
61020 Off ch=2 n=52 v=57
61020 On ch=2 n=58 v=81
61080 Off ch=2 n=58 v=55
61080 On ch=2 n=55 v=81
61140 Off ch=2 n=55 v=56
61140 On ch=2 n=58 v=82
61200 Off ch=2 n=58 v=54
61200 On ch=2 n=48 v=78
61260 Off ch=2 n=48 v=57
61260 On ch=2 n=58 v=79
61320 Off ch=2 n=58 v=58
61320 On ch=2 n=55 v=80
61380 Off ch=2 n=55 v=58
61380 On ch=2 n=58 v=82
61440 Off ch=2 n=58 v=57
61440 On ch=2 n=51 v=81
61500 Off ch=2 n=51 v=55
61500 On ch=2 n=60 v=79
61560 Off ch=2 n=60 v=55
61560 On ch=2 n=57 v=78
61620 Off ch=2 n=57 v=57
61620 On ch=2 n=60 v=79
61680 Off ch=2 n=60 v=55
61680 On ch=2 n=50 v=79
61740 Off ch=2 n=50 v=57
61740 On ch=2 n=60 v=78
61800 Off ch=2 n=60 v=55
61800 On ch=2 n=57 v=81
61860 Off ch=2 n=57 v=54
61860 On ch=2 n=60 v=79
61920 Off ch=2 n=60 v=56
61920 On ch=2 n=54 v=80
61980 Off ch=2 n=54 v=55
61980 On ch=2 n=60 v=79
62040 Off ch=2 n=60 v=58
62040 On ch=2 n=57 v=82
62100 Off ch=2 n=57 v=58
62100 On ch=2 n=60 v=78
62160 Off ch=2 n=60 v=57
62160 On ch=2 n=50 v=80
62220 Off ch=2 n=50 v=55
62220 On ch=2 n=60 v=80
62280 Off ch=2 n=60 v=58
62280 On ch=2 n=57 v=79
62340 Off ch=2 n=57 v=54
62340 On ch=2 n=60 v=81
62400 Off ch=2 n=60 v=54
62400 On ch=2 n=55 v=78
62460 Off ch=2 n=55 v=56
62460 On ch=2 n=62 v=78
62520 Off ch=2 n=62 v=58
62520 On ch=2 n=59 v=79
62580 Off ch=2 n=59 v=58
62580 On ch=2 n=62 v=81
62640 Off ch=2 n=62 v=54
62640 On ch=2 n=53 v=81
62700 Off ch=2 n=53 v=55
62700 On ch=2 n=62 v=86
62760 Off ch=2 n=62 v=56
62760 On ch=2 n=59 v=83
62820 Off ch=2 n=59 v=56
62820 On ch=2 n=62 v=86
62880 Off ch=2 n=62 v=55
62880 On ch=2 n=51 v=89
62940 Off ch=2 n=51 v=56
62940 On ch=2 n=60 v=90
63000 Off ch=2 n=60 v=55
63000 On ch=2 n=55 v=91
63060 Off ch=2 n=55 v=58
63060 On ch=2 n=60 v=92
63120 Off ch=2 n=60 v=54
63120 On ch=2 n=48 v=90
63180 Off ch=2 n=48 v=57
63180 On ch=2 n=60 v=91
63240 Off ch=2 n=60 v=57
63240 On ch=2 n=55 v=91
63300 Off ch=2 n=55 v=56
63300 On ch=2 n=60 v=94
63360 Off ch=2 n=60 v=56
63360 On ch=2 n=50 v=97
63360 On ch=2 n=47 v=97
63360 On ch=2 n=55 v=93
63360 On ch=2 n=43 v=96
63432 Off ch=2 n=43 v=65
63432 Off ch=2 n=55 v=63
63432 Off ch=2 n=47 v=64
63432 Off ch=2 n=50 v=66
63840 On ch=2 n=55 v=97
63840 On ch=2 n=48 v=99
63912 Off ch=2 n=48 v=66
63912 Off ch=2 n=55 v=66
63960 On ch=2 n=55 v=99
63960 On ch=2 n=48 v=99
64200 Off ch=2 n=48 v=66
64200 Off ch=2 n=55 v=64
64200 On ch=2 n=50 v=100
64260 Off ch=2 n=50 v=56
64260 On ch=2 n=51 v=99
64320 Off ch=2 n=51 v=57
64320 On ch=2 n=50 v=101
64360 Off ch=2 n=50 v=54
64360 On ch=2 n=53 v=102
64400 Off ch=2 n=53 v=58
64400 On ch=2 n=56 v=101
64440 Off ch=2 n=56 v=56
64560 On ch=2 n=62 v=99
64600 Off ch=2 n=62 v=58
64600 On ch=2 n=65 v=99
64640 Off ch=2 n=65 v=57
64640 On ch=2 n=68 v=100
64680 Off ch=2 n=68 v=56
64800 On ch=2 n=59 v=98
64800 On ch=2 n=50 v=98
64872 Off ch=2 n=50 v=66
64872 Off ch=2 n=59 v=66
64920 On ch=2 n=50 v=100
64920 On ch=2 n=59 v=101
65160 Off ch=2 n=59 v=62
65160 Off ch=2 n=50 v=63
65160 On ch=2 n=51 v=100
65220 Off ch=2 n=51 v=55
65220 On ch=2 n=53 v=101
65280 Off ch=2 n=53 v=54
65280 On ch=2 n=51 v=101
65320 Off ch=2 n=51 v=58
65320 On ch=2 n=55 v=99
65360 Off ch=2 n=55 v=56
65360 On ch=2 n=60 v=102
65400 Off ch=2 n=60 v=55
65520 On ch=2 n=63 v=99
65560 Off ch=2 n=63 v=57
65560 On ch=2 n=67 v=98
65600 Off ch=2 n=67 v=54
65600 On ch=2 n=72 v=98
65640 Off ch=2 n=72 v=58
65760 On ch=2 n=67 v=98
65760 On ch=2 n=64 v=101
65832 Off ch=2 n=64 v=64
65832 Off ch=2 n=67 v=62
65880 On ch=2 n=64 v=99
65880 On ch=2 n=67 v=99
66120 Off ch=2 n=67 v=63
66120 Off ch=2 n=64 v=64
66120 On ch=2 n=68 v=102
66120 On ch=2 n=65 v=98
66180 Off ch=2 n=65 v=55
66180 Off ch=2 n=68 v=55
66180 On ch=2 n=70 v=102
66180 On ch=2 n=67 v=102
66240 Off ch=2 n=67 v=57
66240 Off ch=2 n=70 v=54
66240 On ch=2 n=68 v=99
66240 On ch=2 n=65 v=99
66384 Off ch=2 n=65 v=65
66384 Off ch=2 n=68 v=66
66480 On ch=2 n=65 v=102
66624 Off ch=2 n=65 v=64
66720 On ch=2 n=67 v=100
66864 Off ch=2 n=67 v=63
66960 On ch=2 n=55 v=102
66960 On ch=2 n=65 v=99
67104 Off ch=2 n=65 v=62
67104 Off ch=2 n=55 v=66
67200 On ch=2 n=63 v=102
67200 On ch=2 n=56 v=99
67440 Off ch=2 n=56 v=65
67440 Off ch=2 n=63 v=64
67680 On ch=2 n=55 v=99
67680 On ch=2 n=52 v=98
67752 Off ch=2 n=52 v=62
67752 Off ch=2 n=55 v=63
67800 On ch=2 n=52 v=101
67800 On ch=2 n=55 v=101
68040 Off ch=2 n=55 v=64
68040 Off ch=2 n=52 v=64
68040 On ch=2 n=56 v=100
68040 On ch=2 n=53 v=99
68100 Off ch=2 n=53 v=57
68100 Off ch=2 n=56 v=57
68100 On ch=2 n=58 v=99
68100 On ch=2 n=55 v=100
68160 Off ch=2 n=55 v=54
68160 Off ch=2 n=58 v=54
68160 On ch=2 n=56 v=101
68160 On ch=2 n=53 v=99
68304 Off ch=2 n=53 v=63
68304 Off ch=2 n=56 v=64
68400 On ch=2 n=53 v=96
68544 Off ch=2 n=53 v=66
68640 On ch=2 n=55 v=95
68784 Off ch=2 n=55 v=63
68880 On ch=2 n=43 v=94
69024 Off ch=2 n=43 v=65
69120 On ch=2 n=48 v=89
69360 Off ch=2 n=48 v=63
72480 On ch=2 n=56 v=67
72480 On ch=2 n=60 v=63
72600 Off ch=2 n=60 v=63
72600 Off ch=2 n=56 v=65
72600 On ch=2 n=63 v=67
72720 Off ch=2 n=63 v=64
72720 On ch=2 n=60 v=64
72720 On ch=2 n=56 v=65
72840 Off ch=2 n=56 v=64
72840 Off ch=2 n=60 v=63
72840 On ch=2 n=63 v=66
72960 Off ch=2 n=63 v=66
72960 On ch=2 n=58 v=64
72960 On ch=2 n=61 v=64
73080 Off ch=2 n=61 v=63
73080 Off ch=2 n=58 v=64
73080 On ch=2 n=63 v=65
73200 Off ch=2 n=63 v=65
73200 On ch=2 n=61 v=65
73200 On ch=2 n=58 v=63
73320 Off ch=2 n=58 v=62
73320 Off ch=2 n=61 v=63
73320 On ch=2 n=63 v=64
73440 Off ch=2 n=63 v=62
73440 On ch=2 n=56 v=63
73440 On ch=2 n=60 v=67
73560 Off ch=2 n=60 v=64
73560 Off ch=2 n=56 v=63
73560 On ch=2 n=63 v=63
73680 Off ch=2 n=63 v=66
73680 On ch=2 n=60 v=65
73680 On ch=2 n=56 v=67
73800 Off ch=2 n=56 v=63
73800 Off ch=2 n=60 v=64
73800 On ch=2 n=63 v=64
73920 Off ch=2 n=63 v=62
73920 On ch=2 n=58 v=67
73920 On ch=2 n=55 v=64
74040 Off ch=2 n=55 v=65
74040 Off ch=2 n=58 v=65
74040 On ch=2 n=63 v=63
74160 Off ch=2 n=63 v=66
74160 On ch=2 n=55 v=63
74160 On ch=2 n=58 v=66
74280 Off ch=2 n=58 v=63
74280 Off ch=2 n=55 v=63
74280 On ch=2 n=63 v=67
74400 Off ch=2 n=63 v=64
74400 On ch=2 n=56 v=66
74400 On ch=2 n=53 v=63
74520 Off ch=2 n=53 v=63
74520 Off ch=2 n=56 v=63
74520 On ch=2 n=61 v=66
74640 Off ch=2 n=61 v=63
74640 On ch=2 n=55 v=63
74640 On ch=2 n=58 v=66
74760 Off ch=2 n=58 v=66
74760 Off ch=2 n=55 v=62
74760 On ch=2 n=63 v=64
74880 Off ch=2 n=63 v=62
74880 On ch=2 n=56 v=63
75000 Off ch=2 n=56 v=62
75000 On ch=2 n=60 v=66
75120 Off ch=2 n=60 v=64
75120 On ch=2 n=63 v=64
75240 Off ch=2 n=63 v=63
75240 On ch=2 n=68 v=66
75360 Off ch=2 n=68 v=66
75360 On ch=2 n=61 v=66
75480 On ch=2 n=65 v=63
75600 Off ch=2 n=65 v=63
75600 On ch=2 n=70 v=63
75720 Off ch=2 n=70 v=62
75720 On ch=2 n=73 v=64
75840 Off ch=2 n=73 v=62
75840 Off ch=2 n=61 v=65
75840 On ch=2 n=63 v=78
75960 Off ch=2 n=63 v=62
75960 On ch=2 n=72 v=78
76080 Off ch=2 n=72 v=62
76080 On ch=2 n=70 v=81
76200 Off ch=2 n=70 v=62
76320 On ch=2 n=60 v=79
76320 On ch=2 n=56 v=78
76440 Off ch=2 n=56 v=63
76440 Off ch=2 n=60 v=65
76440 On ch=2 n=63 v=79
76560 Off ch=2 n=63 v=64
76560 On ch=2 n=60 v=82
76560 On ch=2 n=56 v=82
76680 Off ch=2 n=56 v=63
76680 Off ch=2 n=60 v=66
76680 On ch=2 n=63 v=81
76800 Off ch=2 n=63 v=63
76800 On ch=2 n=61 v=78
76800 On ch=2 n=58 v=81
76920 Off ch=2 n=58 v=63
76920 Off ch=2 n=61 v=66
76920 On ch=2 n=63 v=78
77040 Off ch=2 n=63 v=64
77040 On ch=2 n=58 v=81
77040 On ch=2 n=61 v=82
77160 Off ch=2 n=61 v=64
77160 Off ch=2 n=58 v=65
77160 On ch=2 n=63 v=82
77280 Off ch=2 n=63 v=62
77280 On ch=2 n=56 v=78
77280 On ch=2 n=60 v=79
77400 Off ch=2 n=60 v=64
77400 Off ch=2 n=56 v=62
77400 On ch=2 n=63 v=82
77520 Off ch=2 n=63 v=63
77520 On ch=2 n=56 v=80
77520 On ch=2 n=60 v=78
77640 Off ch=2 n=60 v=65
77640 Off ch=2 n=56 v=65
77640 On ch=2 n=63 v=80
77760 Off ch=2 n=63 v=63
77760 On ch=2 n=55 v=82
77760 On ch=2 n=58 v=79
77880 Off ch=2 n=58 v=63
77880 Off ch=2 n=55 v=66
77880 On ch=2 n=63 v=78
78000 Off ch=2 n=63 v=65
78000 On ch=2 n=55 v=81
78000 On ch=2 n=58 v=80
78120 Off ch=2 n=58 v=62
78120 Off ch=2 n=55 v=66
78120 On ch=2 n=63 v=80
78240 Off ch=2 n=63 v=66
78240 On ch=2 n=53 v=82
78240 On ch=2 n=56 v=81
78360 Off ch=2 n=56 v=63
78360 Off ch=2 n=53 v=65
78360 On ch=2 n=61 v=81
78480 Off ch=2 n=61 v=62
78480 On ch=2 n=58 v=82
78480 On ch=2 n=55 v=82
78600 Off ch=2 n=55 v=64
78600 Off ch=2 n=58 v=65
78600 On ch=2 n=63 v=81
78720 Off ch=2 n=63 v=62
78720 On ch=2 n=56 v=82
78840 Off ch=2 n=56 v=62
78840 On ch=2 n=63 v=81
78960 Off ch=2 n=63 v=66
78960 On ch=2 n=55 v=82
79080 Off ch=2 n=55 v=64
79080 On ch=2 n=63 v=81
79200 Off ch=2 n=63 v=63
79200 On ch=2 n=54 v=79
79320 Off ch=2 n=54 v=63
79320 On ch=2 n=57 v=79
79440 Off ch=2 n=57 v=65
79440 On ch=2 n=42 v=80
79560 Off ch=2 n=42 v=62
79560 On ch=2 n=54 v=79
79680 Off ch=2 n=54 v=62
79680 On ch=2 n=43 v=79
79740 Off ch=2 n=43 v=58
79740 On ch=2 n=55 v=79
79800 Off ch=2 n=55 v=56
79800 On ch=2 n=47 v=82
79860 Off ch=2 n=47 v=56
79860 On ch=2 n=55 v=81
79920 Off ch=2 n=55 v=58
79920 On ch=2 n=50 v=80
79980 Off ch=2 n=50 v=55
79980 On ch=2 n=55 v=82
80040 Off ch=2 n=55 v=56
80040 On ch=2 n=47 v=82
80100 Off ch=2 n=47 v=57
80100 On ch=2 n=55 v=78
80160 Off ch=2 n=55 v=56
80160 On ch=2 n=43 v=79
80220 Off ch=2 n=43 v=56
80220 On ch=2 n=55 v=81
80280 Off ch=2 n=55 v=58
80280 On ch=2 n=47 v=80
80340 Off ch=2 n=47 v=56
80340 On ch=2 n=55 v=80
80400 Off ch=2 n=55 v=55
80400 On ch=2 n=50 v=81
80460 Off ch=2 n=50 v=56
80460 On ch=2 n=55 v=81
80520 Off ch=2 n=55 v=58
80520 On ch=2 n=47 v=82
80580 Off ch=2 n=47 v=54
80580 On ch=2 n=55 v=81
80640 Off ch=2 n=55 v=55
80640 On ch=2 n=43 v=80
80694 Off ch=2 n=43 v=55
80700 On ch=2 n=55 v=82
80754 Off ch=2 n=55 v=54
80760 On ch=2 n=48 v=81
80814 Off ch=2 n=48 v=57
80820 On ch=2 n=55 v=80
80874 Off ch=2 n=55 v=55
80880 On ch=2 n=51 v=81
80934 Off ch=2 n=51 v=56
80940 On ch=2 n=55 v=78
80994 Off ch=2 n=55 v=54
81000 On ch=2 n=48 v=78
81054 Off ch=2 n=48 v=54
81060 On ch=2 n=55 v=80
81114 Off ch=2 n=55 v=54
81120 On ch=2 n=43 v=82
81174 Off ch=2 n=43 v=55
81180 On ch=2 n=55 v=79
81234 Off ch=2 n=55 v=56
81240 On ch=2 n=48 v=82
81294 Off ch=2 n=48 v=55
81300 On ch=2 n=55 v=81
81354 Off ch=2 n=55 v=54
81360 On ch=2 n=51 v=82
81414 Off ch=2 n=51 v=57
81420 On ch=2 n=55 v=78
81474 Off ch=2 n=55 v=57
81480 On ch=2 n=48 v=79
81534 Off ch=2 n=48 v=58
81540 On ch=2 n=55 v=80
81594 Off ch=2 n=55 v=54
81600 On ch=2 n=43 v=79
81654 Off ch=2 n=43 v=54
81660 On ch=2 n=55 v=81
81714 Off ch=2 n=55 v=56
81720 On ch=2 n=47 v=80
81774 Off ch=2 n=47 v=58
81780 On ch=2 n=55 v=79
81834 Off ch=2 n=55 v=55
81840 On ch=2 n=50 v=79
81894 Off ch=2 n=50 v=57
81900 On ch=2 n=55 v=81
81954 Off ch=2 n=55 v=57
81960 On ch=2 n=47 v=82
82014 Off ch=2 n=47 v=56
82020 On ch=2 n=55 v=80
82074 Off ch=2 n=55 v=54
82080 On ch=2 n=43 v=78
82134 Off ch=2 n=43 v=57
82140 On ch=2 n=55 v=80
82194 Off ch=2 n=55 v=56
82200 On ch=2 n=47 v=79
82254 Off ch=2 n=47 v=57
82260 On ch=2 n=55 v=79
82314 Off ch=2 n=55 v=57
82320 On ch=2 n=50 v=82
82374 Off ch=2 n=50 v=54
82380 On ch=2 n=55 v=78
82434 Off ch=2 n=55 v=58
82440 On ch=2 n=47 v=80
82494 Off ch=2 n=47 v=55
82500 On ch=2 n=55 v=81
82554 Off ch=2 n=55 v=56
82560 On ch=2 n=43 v=79
82614 Off ch=2 n=43 v=58
82620 On ch=2 n=55 v=82
82674 Off ch=2 n=55 v=58
82680 On ch=2 n=48 v=82
82734 Off ch=2 n=48 v=57
82740 On ch=2 n=55 v=80
82794 Off ch=2 n=55 v=58
82800 On ch=2 n=51 v=79
82854 Off ch=2 n=51 v=57
82860 On ch=2 n=55 v=81
82914 Off ch=2 n=55 v=57
82920 On ch=2 n=48 v=82
82974 Off ch=2 n=48 v=57
82980 On ch=2 n=55 v=78
83034 Off ch=2 n=55 v=58
83040 On ch=2 n=43 v=78
83094 Off ch=2 n=43 v=58
83100 On ch=2 n=55 v=80
83154 Off ch=2 n=55 v=54
83160 On ch=2 n=48 v=78
83214 Off ch=2 n=48 v=57
83220 On ch=2 n=55 v=81
83274 Off ch=2 n=55 v=57
83280 On ch=2 n=51 v=81
83334 Off ch=2 n=51 v=56
83340 On ch=2 n=55 v=82
83394 Off ch=2 n=55 v=54
83400 On ch=2 n=48 v=82
83454 Off ch=2 n=48 v=54
83460 On ch=2 n=55 v=81
83514 Off ch=2 n=55 v=54
83520 On ch=2 n=43 v=80
83574 Off ch=2 n=43 v=56
83580 On ch=2 n=55 v=80
83634 Off ch=2 n=55 v=55
83640 On ch=2 n=50 v=82
83694 Off ch=2 n=50 v=58
83700 On ch=2 n=55 v=80
83754 Off ch=2 n=55 v=55
83760 On ch=2 n=43 v=80
83814 Off ch=2 n=43 v=57
83820 On ch=2 n=55 v=80
83874 Off ch=2 n=55 v=58
83880 On ch=2 n=47 v=78
83934 Off ch=2 n=47 v=58
83940 On ch=2 n=55 v=81
83994 Off ch=2 n=55 v=54
84000 On ch=2 n=43 v=81
84054 Off ch=2 n=43 v=58
84060 On ch=2 n=55 v=78
84114 Off ch=2 n=55 v=57
84120 On ch=2 n=48 v=80
84174 Off ch=2 n=48 v=55
84180 On ch=2 n=55 v=78
84234 Off ch=2 n=55 v=55
84240 On ch=2 n=43 v=80
84294 Off ch=2 n=43 v=54
84300 On ch=2 n=55 v=82
84354 Off ch=2 n=55 v=55
84360 On ch=2 n=51 v=82
84414 Off ch=2 n=51 v=54
84420 On ch=2 n=55 v=80
84474 Off ch=2 n=55 v=55
84480 On ch=2 n=43 v=78
84720 Off ch=2 n=43 v=62
87840 On ch=2 n=60 v=79
87840 On ch=2 n=64 v=79
87960 Off ch=2 n=64 v=62
87960 Off ch=2 n=60 v=63
87960 On ch=2 n=67 v=79
88080 Off ch=2 n=67 v=66
88080 On ch=2 n=60 v=82
88080 On ch=2 n=64 v=80
88200 Off ch=2 n=64 v=64
88200 Off ch=2 n=60 v=64
88200 On ch=2 n=67 v=79
88320 Off ch=2 n=67 v=64
88320 On ch=2 n=65 v=81
88320 On ch=2 n=62 v=81
88440 Off ch=2 n=62 v=66
88440 Off ch=2 n=65 v=64
88440 On ch=2 n=67 v=79
88560 Off ch=2 n=67 v=65
88560 On ch=2 n=65 v=79
88560 On ch=2 n=62 v=79
88680 Off ch=2 n=62 v=63
88680 Off ch=2 n=65 v=63
88680 On ch=2 n=67 v=81
88800 Off ch=2 n=67 v=63
88800 On ch=2 n=60 v=81
88800 On ch=2 n=64 v=79
88920 Off ch=2 n=64 v=62
88920 Off ch=2 n=60 v=66
88920 On ch=2 n=67 v=78
89040 Off ch=2 n=67 v=62
89040 On ch=2 n=64 v=79
89040 On ch=2 n=60 v=81
89160 Off ch=2 n=60 v=65
89160 Off ch=2 n=64 v=63
89160 On ch=2 n=67 v=80
89280 Off ch=2 n=67 v=65
89280 On ch=2 n=62 v=81
89280 On ch=2 n=59 v=81
89400 Off ch=2 n=59 v=62
89400 Off ch=2 n=62 v=65
89400 On ch=2 n=67 v=81
89520 Off ch=2 n=67 v=66
89520 On ch=2 n=62 v=82
89520 On ch=2 n=59 v=80
89640 Off ch=2 n=59 v=62
89640 Off ch=2 n=62 v=62
89640 On ch=2 n=67 v=78
89760 Off ch=2 n=67 v=63
89760 On ch=2 n=60 v=80
89760 On ch=2 n=57 v=79
89880 Off ch=2 n=57 v=64
89880 Off ch=2 n=60 v=65
89880 On ch=2 n=67 v=81
90000 Off ch=2 n=67 v=64
90000 On ch=2 n=59 v=82
90000 On ch=2 n=62 v=82
90120 Off ch=2 n=62 v=62
90120 Off ch=2 n=59 v=66
90120 On ch=2 n=67 v=79
90240 Off ch=2 n=67 v=65
90240 On ch=2 n=60 v=79
90360 Off ch=2 n=60 v=66
90360 On ch=2 n=64 v=81
90480 Off ch=2 n=64 v=66
90480 On ch=2 n=52 v=82
90480 On ch=2 n=55 v=79
90600 Off ch=2 n=55 v=65
90600 Off ch=2 n=52 v=65
90600 On ch=2 n=60 v=81
90720 Off ch=2 n=60 v=62
90720 On ch=2 n=53 v=78
90840 On ch=2 n=57 v=82
90960 Off ch=2 n=57 v=62
90960 On ch=2 n=62 v=78
91080 Off ch=2 n=62 v=64
91080 On ch=2 n=65 v=82
91200 Off ch=2 n=65 v=62
91200 Off ch=2 n=53 v=64
91200 On ch=2 n=55 v=82
91320 On ch=2 n=64 v=79
91440 Off ch=2 n=64 v=64
91440 On ch=2 n=62 v=80
91560 Off ch=2 n=62 v=66
91560 Off ch=2 n=55 v=62
91680 On ch=2 n=64 v=78
91680 On ch=2 n=60 v=78
91800 Off ch=2 n=60 v=63
91800 Off ch=2 n=64 v=65
91800 On ch=2 n=67 v=82
91920 Off ch=2 n=67 v=63
91920 On ch=2 n=64 v=81
91920 On ch=2 n=60 v=81
92040 Off ch=2 n=60 v=63
92040 Off ch=2 n=64 v=66
92040 On ch=2 n=67 v=79
92160 Off ch=2 n=67 v=65
92160 On ch=2 n=62 v=78
92160 On ch=2 n=65 v=80
92280 Off ch=2 n=65 v=62
92280 Off ch=2 n=62 v=63
92280 On ch=2 n=67 v=81
92400 Off ch=2 n=67 v=64
92400 On ch=2 n=65 v=81
92400 On ch=2 n=62 v=81
92520 Off ch=2 n=62 v=63
92520 Off ch=2 n=65 v=62
92520 On ch=2 n=67 v=79
92640 Off ch=2 n=67 v=64
92640 On ch=2 n=64 v=79
92640 On ch=2 n=60 v=78
92760 Off ch=2 n=60 v=63
92760 Off ch=2 n=64 v=65
92760 On ch=2 n=67 v=82
92880 Off ch=2 n=67 v=66
92880 On ch=2 n=60 v=80
92880 On ch=2 n=64 v=80
93000 Off ch=2 n=64 v=64
93000 Off ch=2 n=60 v=66
93000 On ch=2 n=67 v=79
93120 Off ch=2 n=67 v=65
93120 On ch=2 n=62 v=81
93120 On ch=2 n=59 v=80
93240 Off ch=2 n=59 v=62
93240 Off ch=2 n=62 v=66
93240 On ch=2 n=67 v=81
93360 Off ch=2 n=67 v=62
93360 On ch=2 n=59 v=80
93360 On ch=2 n=62 v=80
93480 Off ch=2 n=62 v=63
93480 Off ch=2 n=59 v=63
93480 On ch=2 n=67 v=79
93600 Off ch=2 n=67 v=63
93600 On ch=2 n=60 v=78
93600 On ch=2 n=57 v=80
93720 Off ch=2 n=57 v=62
93720 Off ch=2 n=60 v=63
93720 On ch=2 n=65 v=80
93840 Off ch=2 n=65 v=63
93840 On ch=2 n=59 v=81
93840 On ch=2 n=62 v=82
93960 Off ch=2 n=62 v=64
93960 Off ch=2 n=59 v=65
93960 On ch=2 n=67 v=80
94080 Off ch=2 n=67 v=65
94080 On ch=2 n=64 v=79
94080 On ch=2 n=60 v=80
94200 Off ch=2 n=60 v=66
94200 Off ch=2 n=64 v=62
94200 On ch=2 n=67 v=81
94320 Off ch=2 n=67 v=65
94320 On ch=2 n=53 v=82
94440 Off ch=2 n=53 v=64
94440 On ch=2 n=65 v=78
94560 Off ch=2 n=65 v=62
94560 On ch=2 n=55 v=80
94680 Off ch=2 n=55 v=62
94680 On ch=2 n=64 v=81
94800 Off ch=2 n=64 v=64
94800 On ch=2 n=55 v=80
94920 Off ch=2 n=55 v=63
94920 On ch=2 n=65 v=80
95040 Off ch=2 n=65 v=64
95040 On ch=2 n=48 v=80
95160 Off ch=2 n=48 v=62
95160 On ch=2 n=55 v=80
95280 Off ch=2 n=55 v=63
95280 On ch=2 n=55 v=79
95400 Off ch=2 n=55 v=65
95400 On ch=2 n=55 v=81
95520 Off ch=2 n=55 v=64
95520 On ch=2 n=52 v=81
95520 On ch=2 n=60 v=80
95640 Off ch=2 n=52 v=65
95640 On ch=2 n=55 v=80
95760 Off ch=2 n=55 v=64
95760 On ch=2 n=55 v=80
95880 Off ch=2 n=55 v=64
95880 On ch=2 n=55 v=81
96000 Off ch=2 n=55 v=62
96000 Off ch=2 n=60 v=65
96000 On ch=2 n=50 v=79
96000 On ch=2 n=59 v=81
96120 Off ch=2 n=50 v=66
96120 On ch=2 n=55 v=80
96240 Off ch=2 n=55 v=63
96240 On ch=2 n=55 v=80
96360 Off ch=2 n=55 v=64
96360 On ch=2 n=55 v=80
96480 Off ch=2 n=55 v=66
96480 Off ch=2 n=59 v=63
96480 On ch=2 n=53 v=79
96480 On ch=2 n=62 v=80
96600 Off ch=2 n=53 v=62
96600 On ch=2 n=55 v=81
96720 Off ch=2 n=55 v=63
96720 On ch=2 n=55 v=78
96840 Off ch=2 n=55 v=63
96840 On ch=2 n=55 v=82
96960 Off ch=2 n=55 v=64
96960 Off ch=2 n=62 v=64
96960 On ch=2 n=52 v=82
96960 On ch=2 n=60 v=82
97080 Off ch=2 n=52 v=65
97080 On ch=2 n=55 v=80
97200 Off ch=2 n=55 v=66
97200 On ch=2 n=55 v=78
97320 Off ch=2 n=55 v=64
97320 On ch=2 n=55 v=81
97440 Off ch=2 n=55 v=64
97440 Off ch=2 n=60 v=65
97440 On ch=2 n=52 v=81
97440 On ch=2 n=48 v=80
97560 Off ch=2 n=52 v=63
97560 On ch=2 n=55 v=80
97680 Off ch=2 n=55 v=66
97680 On ch=2 n=55 v=78
97800 Off ch=2 n=55 v=63
97800 On ch=2 n=55 v=80
97920 Off ch=2 n=55 v=63
97920 Off ch=2 n=48 v=62
97920 On ch=2 n=53 v=80
97920 On ch=2 n=50 v=78
98040 Off ch=2 n=53 v=63
98040 On ch=2 n=55 v=82
98160 Off ch=2 n=55 v=65
98160 On ch=2 n=55 v=82
98280 Off ch=2 n=55 v=66
98280 On ch=2 n=55 v=81
98400 Off ch=2 n=55 v=65
98400 Off ch=2 n=50 v=62
98400 On ch=2 n=53 v=79
98400 On ch=2 n=47 v=78
98520 Off ch=2 n=53 v=66
98520 On ch=2 n=55 v=80
98640 Off ch=2 n=55 v=65
98640 On ch=2 n=55 v=82
98760 Off ch=2 n=55 v=66
98760 On ch=2 n=55 v=78
98880 Off ch=2 n=55 v=64
98880 Off ch=2 n=47 v=65
98880 On ch=2 n=48 v=80
98880 On ch=2 n=52 v=78
99120 Off ch=2 n=52 v=63
99120 Off ch=2 n=48 v=65
100320 On ch=2 n=60 v=82
100320 On ch=2 n=64 v=78
100440 Off ch=2 n=64 v=63
100440 Off ch=2 n=60 v=62
100440 On ch=2 n=67 v=79
100560 Off ch=2 n=67 v=66
100560 On ch=2 n=60 v=82
100560 On ch=2 n=64 v=80
100680 Off ch=2 n=64 v=65
100680 Off ch=2 n=60 v=62
100680 On ch=2 n=67 v=82
100800 Off ch=2 n=67 v=65
100800 On ch=2 n=65 v=80
100800 On ch=2 n=62 v=82
100800 On ch=2 n=67 v=81
101280 Off ch=2 n=67 v=65
101280 Off ch=2 n=62 v=62
101280 Off ch=2 n=65 v=66
101280 On ch=2 n=62 v=78
101280 On ch=2 n=65 v=79
101400 Off ch=2 n=65 v=62
101400 Off ch=2 n=62 v=64
101400 On ch=2 n=68 v=82
101520 Off ch=2 n=68 v=64
101520 On ch=2 n=62 v=78
101520 On ch=2 n=65 v=81
101640 Off ch=2 n=65 v=62
101640 Off ch=2 n=62 v=65
101640 On ch=2 n=68 v=81
101760 Off ch=2 n=68 v=66
101760 On ch=2 n=67 v=81
101760 On ch=2 n=63 v=79
102240 Off ch=2 n=63 v=65
102240 Off ch=2 n=67 v=62
102240 On ch=2 n=66 v=78
102360 Off ch=2 n=66 v=62
102360 On ch=2 n=68 v=78
102480 Off ch=2 n=68 v=63
102480 On ch=2 n=66 v=78
102600 Off ch=2 n=66 v=64
102600 On ch=2 n=68 v=82
102720 Off ch=2 n=68 v=63
102720 On ch=2 n=65 v=80
102840 Off ch=2 n=65 v=62
102840 On ch=2 n=68 v=82
102960 Off ch=2 n=68 v=62
102960 On ch=2 n=65 v=79
103080 Off ch=2 n=65 v=65
103080 On ch=2 n=68 v=80
103200 Off ch=2 n=68 v=63
103200 On ch=2 n=60 v=81
103320 Off ch=2 n=60 v=63
103320 On ch=2 n=68 v=82
103440 Off ch=2 n=68 v=64
103440 On ch=2 n=60 v=78
103560 Off ch=2 n=60 v=63
103560 On ch=2 n=68 v=78
103680 Off ch=2 n=68 v=66
103680 On ch=2 n=61 v=82
103800 Off ch=2 n=61 v=62
103800 On ch=2 n=68 v=82
103920 Off ch=2 n=68 v=65
103920 On ch=2 n=61 v=80
104040 Off ch=2 n=61 v=63
104040 On ch=2 n=68 v=82
104160 Off ch=2 n=68 v=64
104160 On ch=2 n=54 v=82
104160 On ch=2 n=63 v=81
104280 Off ch=2 n=63 v=65
104280 Off ch=2 n=54 v=62
104280 On ch=2 n=56 v=82
104400 Off ch=2 n=56 v=64
104400 On ch=2 n=63 v=78
104400 On ch=2 n=54 v=78
104520 Off ch=2 n=54 v=64
104520 Off ch=2 n=63 v=66
104520 On ch=2 n=56 v=81
104640 Off ch=2 n=56 v=66
104640 On ch=2 n=61 v=82
104640 On ch=2 n=53 v=79
104760 Off ch=2 n=53 v=66
104760 On ch=2 n=56 v=78
104880 Off ch=2 n=56 v=65
104880 On ch=2 n=53 v=78
105000 Off ch=2 n=53 v=62
105000 On ch=2 n=56 v=81
105120 Off ch=2 n=56 v=65
105120 Off ch=2 n=61 v=65
105120 On ch=2 n=60 v=81
105120 On ch=2 n=48 v=82
105240 Off ch=2 n=48 v=65
105240 Off ch=2 n=60 v=62
105240 On ch=2 n=56 v=78
105360 Off ch=2 n=56 v=66
105360 On ch=2 n=60 v=78
105360 On ch=2 n=48 v=81
105480 Off ch=2 n=48 v=66
105480 Off ch=2 n=60 v=66
105480 On ch=2 n=56 v=79
105600 Off ch=2 n=56 v=62
105600 On ch=2 n=49 v=78
105600 Par ch=2 c=64 v=127
105660 Off ch=2 n=49 v=58
105660 On ch=2 n=53 v=81
105720 Off ch=2 n=53 v=57
105720 On ch=2 n=56 v=78
105780 Off ch=2 n=56 v=56
105780 On ch=2 n=61 v=81
105840 Off ch=2 n=61 v=58
106032 Par ch=2 c=64 v=0
106080 On ch=2 n=54 v=79
106080 Par ch=2 c=64 v=127
106140 Off ch=2 n=54 v=56
106140 On ch=2 n=56 v=83
106200 Off ch=2 n=56 v=55
106200 On ch=2 n=60 v=80
106260 Off ch=2 n=60 v=54
106260 On ch=2 n=63 v=82
106320 Off ch=2 n=63 v=58
106512 Par ch=2 c=64 v=0
106560 On ch=2 n=53 v=85
106560 Par ch=2 c=64 v=127
106620 Off ch=2 n=53 v=55
106620 On ch=2 n=56 v=83
106680 Off ch=2 n=56 v=54
106680 On ch=2 n=61 v=85
106740 Off ch=2 n=61 v=57
106740 On ch=2 n=65 v=85
106800 Off ch=2 n=65 v=55
106992 Par ch=2 c=64 v=0
107040 On ch=2 n=51 v=84
107040 Par ch=2 c=64 v=127
107100 Off ch=2 n=51 v=54
107100 On ch=2 n=56 v=87
107160 Off ch=2 n=56 v=54
107160 On ch=2 n=60 v=87
107220 Off ch=2 n=60 v=56
107220 On ch=2 n=63 v=86
107280 Off ch=2 n=63 v=54
107472 Par ch=2 c=64 v=0
107520 On ch=2 n=49 v=85
107520 Par ch=2 c=64 v=127
107580 Off ch=2 n=49 v=54
107580 On ch=2 n=53 v=88
107640 Off ch=2 n=53 v=54
107640 On ch=2 n=56 v=87
107700 Off ch=2 n=56 v=55
107700 On ch=2 n=61 v=86
107760 Off ch=2 n=61 v=57
107952 Par ch=2 c=64 v=0
108000 On ch=2 n=48 v=89
108000 Par ch=2 c=64 v=127
108060 Off ch=2 n=48 v=55
108060 On ch=2 n=53 v=86
108120 Off ch=2 n=53 v=58
108120 On ch=2 n=56 v=88
108180 Off ch=2 n=56 v=55
108180 On ch=2 n=60 v=90
108240 Off ch=2 n=60 v=58
108432 Par ch=2 c=64 v=0
108480 On ch=2 n=50 v=91
108480 Par ch=2 c=64 v=127
108540 Off ch=2 n=50 v=57
108540 On ch=2 n=53 v=88
108600 Off ch=2 n=53 v=57
108600 On ch=2 n=56 v=91
108660 Off ch=2 n=56 v=55
108660 On ch=2 n=59 v=91
108720 Off ch=2 n=59 v=55
108912 Par ch=2 c=64 v=0
108960 On ch=2 n=48 v=92
108960 Par ch=2 c=64 v=127
109020 Off ch=2 n=48 v=58
109020 On ch=2 n=51 v=89
109080 Off ch=2 n=51 v=55
109080 On ch=2 n=55 v=92
109140 Off ch=2 n=55 v=56
109140 On ch=2 n=60 v=92
109200 Off ch=2 n=60 v=57
109392 Par ch=2 c=64 v=0
109440 On ch=2 n=41 v=92
109440 Par ch=2 c=64 v=127
109500 Off ch=2 n=41 v=56
109500 On ch=2 n=44 v=92
109560 Off ch=2 n=44 v=58
109560 On ch=2 n=48 v=91
109620 Off ch=2 n=48 v=55
109620 On ch=2 n=53 v=91
109680 Off ch=2 n=53 v=58
109872 Par ch=2 c=64 v=0
109920 On ch=2 n=43 v=97
109920 Par ch=2 c=64 v=127
109980 Off ch=2 n=43 v=56
109980 On ch=2 n=46 v=96
110040 Off ch=2 n=46 v=57
110040 On ch=2 n=48 v=97
110100 Off ch=2 n=48 v=58
110100 On ch=2 n=55 v=95
110160 Off ch=2 n=55 v=58
110352 Par ch=2 c=64 v=0
110400 On ch=2 n=44 v=98
110400 Par ch=2 c=64 v=127
110460 Off ch=2 n=44 v=57
110460 On ch=2 n=48 v=94
110520 Off ch=2 n=48 v=56
110520 On ch=2 n=53 v=98
110580 Off ch=2 n=53 v=56
110580 On ch=2 n=56 v=97
110640 Off ch=2 n=56 v=55
110832 Par ch=2 c=64 v=0
110880 On ch=2 n=45 v=97
110880 Par ch=2 c=64 v=127
110940 Off ch=2 n=45 v=54
110940 On ch=2 n=48 v=99
111000 Off ch=2 n=48 v=55
111000 On ch=2 n=51 v=96
111060 Off ch=2 n=51 v=58
111060 On ch=2 n=57 v=96
111120 Off ch=2 n=57 v=58
111312 Par ch=2 c=64 v=0
111360 On ch=2 n=43 v=81
111480 Off ch=2 n=43 v=63
111480 On ch=2 n=55 v=80
111552 Off ch=2 n=55 v=63
111600 On ch=2 n=55 v=79
111672 Off ch=2 n=55 v=63
111720 On ch=2 n=55 v=79
111792 Off ch=2 n=55 v=62
111840 On ch=2 n=55 v=78
111912 Off ch=2 n=55 v=63
111960 On ch=2 n=55 v=81
112032 Off ch=2 n=55 v=62
112080 On ch=2 n=55 v=80
112152 Off ch=2 n=55 v=63
112200 On ch=2 n=55 v=82
112272 Off ch=2 n=55 v=66
112320 On ch=2 n=43 v=79
112440 Off ch=2 n=43 v=66
112440 On ch=2 n=55 v=80
112560 Off ch=2 n=55 v=65
112560 On ch=2 n=43 v=80
112680 Off ch=2 n=43 v=65
112680 On ch=2 n=55 v=78
112800 Off ch=2 n=55 v=63
112800 On ch=2 n=43 v=82
112920 Off ch=2 n=43 v=64
112920 On ch=2 n=55 v=79
113040 Off ch=2 n=55 v=62
113040 On ch=2 n=43 v=82
113160 Off ch=2 n=43 v=63
113160 On ch=2 n=55 v=78
113280 Off ch=2 n=55 v=65
113280 On ch=2 n=43 v=81
113328 Off ch=2 n=43 v=64
113360 On ch=2 n=48 v=82
113408 Off ch=2 n=48 v=65
113440 On ch=2 n=52 v=81
113488 Off ch=2 n=52 v=62
113520 On ch=2 n=55 v=82
113568 Off ch=2 n=55 v=66
113600 On ch=2 n=60 v=82
113648 Off ch=2 n=60 v=64
113680 On ch=2 n=64 v=78
113728 Off ch=2 n=64 v=64
113760 On ch=2 n=67 v=82
113832 Off ch=2 n=67 v=64
113880 On ch=2 n=55 v=81
113952 Off ch=2 n=55 v=66
114000 On ch=2 n=55 v=81
114072 Off ch=2 n=55 v=65
114120 On ch=2 n=55 v=80
114192 Off ch=2 n=55 v=64
114240 On ch=2 n=43 v=94
114360 Off ch=2 n=43 v=62
114360 On ch=2 n=55 v=96
114480 Off ch=2 n=55 v=65
114480 On ch=2 n=43 v=93
114600 Off ch=2 n=43 v=65
114600 On ch=2 n=55 v=95
114720 Off ch=2 n=55 v=64
114720 On ch=2 n=43 v=94
114840 Off ch=2 n=43 v=62
114840 On ch=2 n=55 v=93
114960 Off ch=2 n=55 v=66
114960 On ch=2 n=43 v=93
115080 Off ch=2 n=43 v=64
115080 On ch=2 n=55 v=95
115200 Off ch=2 n=55 v=62
115200 On ch=2 n=48 v=80
115260 Off ch=2 n=48 v=56
115260 On ch=2 n=60 v=78
115320 Off ch=2 n=60 v=57
115320 On ch=2 n=55 v=80
115380 Off ch=2 n=55 v=54
115380 On ch=2 n=60 v=80
115440 Off ch=2 n=60 v=58
115440 On ch=2 n=52 v=81
115500 Off ch=2 n=52 v=58
115500 On ch=2 n=60 v=81
115560 Off ch=2 n=60 v=58
115560 On ch=2 n=55 v=81
115620 Off ch=2 n=55 v=55
115620 On ch=2 n=60 v=82
115680 Off ch=2 n=60 v=58
115680 On ch=2 n=53 v=78
115740 Off ch=2 n=53 v=57
115740 On ch=2 n=62 v=81
115800 Off ch=2 n=62 v=54
115800 On ch=2 n=55 v=82
115860 Off ch=2 n=55 v=55
115860 On ch=2 n=62 v=81
115920 Off ch=2 n=62 v=55
115920 On ch=2 n=53 v=81
115980 Off ch=2 n=53 v=54
115980 On ch=2 n=62 v=80
116040 Off ch=2 n=62 v=54
116040 On ch=2 n=55 v=81
116100 Off ch=2 n=55 v=54
116100 On ch=2 n=62 v=78
116160 Off ch=2 n=62 v=54
116160 On ch=2 n=52 v=78
116220 Off ch=2 n=52 v=54
116220 On ch=2 n=60 v=82
116280 Off ch=2 n=60 v=58
116280 On ch=2 n=55 v=78
116340 Off ch=2 n=55 v=55
116340 On ch=2 n=60 v=80
116400 Off ch=2 n=60 v=54
116400 On ch=2 n=52 v=79
116460 Off ch=2 n=52 v=55
116460 On ch=2 n=60 v=80
116520 Off ch=2 n=60 v=54
116520 On ch=2 n=55 v=78
116580 Off ch=2 n=55 v=55
116580 On ch=2 n=60 v=81
116640 Off ch=2 n=60 v=58
116640 On ch=2 n=53 v=79
116700 Off ch=2 n=53 v=57
116700 On ch=2 n=62 v=79
116760 Off ch=2 n=62 v=55
116760 On ch=2 n=55 v=80
116820 Off ch=2 n=55 v=54
116820 On ch=2 n=62 v=79
116880 Off ch=2 n=62 v=56
116880 On ch=2 n=53 v=81
116940 Off ch=2 n=53 v=57
116940 On ch=2 n=62 v=82
117000 Off ch=2 n=62 v=58
117000 On ch=2 n=55 v=79
117060 Off ch=2 n=55 v=56
117060 On ch=2 n=62 v=82
117120 Off ch=2 n=62 v=58
117120 On ch=2 n=52 v=79
117180 Off ch=2 n=52 v=55
117180 On ch=2 n=60 v=80
117240 Off ch=2 n=60 v=56
117240 On ch=2 n=55 v=81
117300 Off ch=2 n=55 v=54
117300 On ch=2 n=60 v=79
117360 Off ch=2 n=60 v=55
117360 On ch=2 n=52 v=82
117420 Off ch=2 n=52 v=57
117420 On ch=2 n=60 v=81
117480 Off ch=2 n=60 v=56
117480 On ch=2 n=55 v=82
117540 Off ch=2 n=55 v=56
117540 On ch=2 n=60 v=80
117600 Off ch=2 n=60 v=54
117600 On ch=2 n=53 v=78
117660 Off ch=2 n=53 v=57
117660 On ch=2 n=62 v=82
117720 Off ch=2 n=62 v=56
117720 On ch=2 n=55 v=78
117780 Off ch=2 n=55 v=56
117780 On ch=2 n=62 v=79
117840 Off ch=2 n=62 v=58
117840 On ch=2 n=53 v=79
117900 Off ch=2 n=53 v=57
117900 On ch=2 n=62 v=79
117960 Off ch=2 n=62 v=55
117960 On ch=2 n=55 v=79
118020 Off ch=2 n=55 v=56
118020 On ch=2 n=62 v=78
118080 Off ch=2 n=62 v=58
118080 On ch=2 n=52 v=81
118140 Off ch=2 n=52 v=55
118140 On ch=2 n=60 v=81
118200 Off ch=2 n=60 v=58
118200 On ch=2 n=55 v=80
118260 Off ch=2 n=55 v=58
118260 On ch=2 n=60 v=80
118320 Off ch=2 n=60 v=57
118320 On ch=2 n=52 v=80
118380 Off ch=2 n=52 v=55
118380 On ch=2 n=60 v=79
118440 Off ch=2 n=60 v=54
118440 On ch=2 n=55 v=80
118440 On ch=2 n=60 v=80
118500 Off ch=2 n=60 v=56
118500 Off ch=2 n=55 v=54
118500 On ch=2 n=53 v=82
118560 Off ch=2 n=53 v=54
118560 On ch=2 n=62 v=82
118620 Off ch=2 n=62 v=58
118620 On ch=2 n=55 v=81
118680 Off ch=2 n=55 v=58
118680 On ch=2 n=62 v=81
118740 Off ch=2 n=62 v=57
118740 On ch=2 n=53 v=79
118800 Off ch=2 n=53 v=58
118800 On ch=2 n=55 v=80
118800 On ch=2 n=62 v=78
118860 Off ch=2 n=62 v=56
118860 Off ch=2 n=55 v=58
118860 On ch=2 n=62 v=80
118920 Off ch=2 n=62 v=57
118920 On ch=2 n=52 v=82
118980 Off ch=2 n=52 v=58
118980 On ch=2 n=60 v=79
119040 Off ch=2 n=60 v=55
119040 On ch=2 n=52 v=79
119100 Off ch=2 n=52 v=54
119100 On ch=2 n=60 v=81
119160 Off ch=2 n=60 v=58
119160 On ch=2 n=55 v=81
119220 Off ch=2 n=55 v=55
119220 On ch=2 n=60 v=80
119280 Off ch=2 n=60 v=55
119280 On ch=2 n=52 v=80
119340 Off ch=2 n=52 v=56
119340 On ch=2 n=60 v=83
119400 Off ch=2 n=60 v=57
119400 On ch=2 n=55 v=80
119460 Off ch=2 n=55 v=58
119460 On ch=2 n=60 v=80
119520 Off ch=2 n=60 v=58
119520 On ch=2 n=53 v=84
119580 Off ch=2 n=53 v=58
119580 On ch=2 n=62 v=81
119640 Off ch=2 n=62 v=58
119640 On ch=2 n=55 v=86
119700 Off ch=2 n=55 v=54
119700 On ch=2 n=62 v=86
119760 Off ch=2 n=62 v=55
119760 On ch=2 n=53 v=87
119820 Off ch=2 n=53 v=54
119820 On ch=2 n=62 v=83
119880 Off ch=2 n=62 v=54
119880 On ch=2 n=55 v=87
119940 Off ch=2 n=55 v=55
119940 On ch=2 n=62 v=85
120000 Off ch=2 n=62 v=55
120000 On ch=2 n=52 v=88
120060 Off ch=2 n=52 v=54
120060 On ch=2 n=60 v=88
120120 Off ch=2 n=60 v=54
120120 On ch=2 n=55 v=89
120180 Off ch=2 n=55 v=55
120180 On ch=2 n=60 v=89
120240 Off ch=2 n=60 v=56
120240 On ch=2 n=52 v=88
120300 Off ch=2 n=52 v=58
120300 On ch=2 n=58 v=89
120360 Off ch=2 n=58 v=56
120360 On ch=2 n=55 v=90
120420 Off ch=2 n=55 v=56
120420 On ch=2 n=58 v=89
120480 Off ch=2 n=58 v=55
120480 On ch=2 n=53 v=90
120540 Off ch=2 n=53 v=55
120540 On ch=2 n=57 v=90
120600 Off ch=2 n=57 v=58
120600 On ch=2 n=56 v=88
120660 Off ch=2 n=56 v=56
120660 On ch=2 n=57 v=93
120720 Off ch=2 n=57 v=56
120720 On ch=2 n=54 v=92
120780 Off ch=2 n=54 v=55
120780 On ch=2 n=57 v=93
120840 Off ch=2 n=57 v=55
120840 On ch=2 n=59 v=91
120900 Off ch=2 n=59 v=54
120900 On ch=2 n=57 v=93
120960 Off ch=2 n=57 v=58
120960 On ch=2 n=55 v=94
121020 Off ch=2 n=55 v=56
121020 On ch=2 n=58 v=91
121080 Off ch=2 n=58 v=56
121080 On ch=2 n=57 v=96
121140 Off ch=2 n=57 v=55
121140 On ch=2 n=58 v=95
121200 Off ch=2 n=58 v=57
121200 On ch=2 n=55 v=97
121260 Off ch=2 n=55 v=54
121260 On ch=2 n=58 v=94
121320 Off ch=2 n=58 v=56
121320 On ch=2 n=60 v=96
121380 Off ch=2 n=60 v=54
121380 On ch=2 n=58 v=96
121440 Off ch=2 n=58 v=56
121440 On ch=2 n=57 v=97
121500 Off ch=2 n=57 v=55
121500 On ch=2 n=60 v=99
121560 Off ch=2 n=60 v=58
121560 On ch=2 n=59 v=95
121620 Off ch=2 n=59 v=57
121620 On ch=2 n=60 v=95
121680 Off ch=2 n=60 v=57
121680 On ch=2 n=57 v=99
121740 Off ch=2 n=57 v=58
121740 On ch=2 n=60 v=99
121800 Off ch=2 n=60 v=58
121800 On ch=2 n=62 v=101
121860 Off ch=2 n=62 v=54
121860 On ch=2 n=60 v=99
121920 Off ch=2 n=60 v=55
121920 On ch=2 n=60 v=96
121920 On ch=2 n=64 v=94
122160 Off ch=2 n=64 v=65
122160 Off ch=2 n=60 v=62
124800 On ch=2 n=43 v=82
124800 On ch=2 n=52 v=79
124800 On ch=2 n=48 v=80
125280 Off ch=2 n=48 v=65
125280 Off ch=2 n=52 v=64
125280 Off ch=2 n=43 v=63
125280 On ch=2 n=53 v=78
125280 On ch=2 n=43 v=80
125280 On ch=2 n=50 v=78
125760 Off ch=2 n=50 v=66
125760 Off ch=2 n=43 v=62
125760 Off ch=2 n=53 v=63
125760 On ch=2 n=48 v=80
125760 On ch=2 n=52 v=79
126000 Off ch=2 n=52 v=66
126000 Off ch=2 n=48 v=63
126180 On ch=2 n=55 v=81
126240 Off ch=2 n=55 v=54
126240 On ch=2 n=60 v=81
126240 On ch=2 n=64 v=78
126432 Off ch=2 n=64 v=66
126432 Off ch=2 n=60 v=63
126480 On ch=2 n=60 v=80
126480 On ch=2 n=64 v=82
126672 Off ch=2 n=64 v=63
126672 Off ch=2 n=60 v=66
126720 On ch=2 n=64 v=81
126720 On ch=2 n=60 v=78
126840 Off ch=2 n=60 v=62
126840 Off ch=2 n=64 v=63
126840 On ch=2 n=62 v=81
126840 On ch=2 n=59 v=82
126960 Off ch=2 n=59 v=62
126960 Off ch=2 n=62 v=62
126960 On ch=2 n=58 v=80
126960 On ch=2 n=61 v=80
127080 Off ch=2 n=61 v=63
127080 Off ch=2 n=58 v=62
127080 On ch=2 n=62 v=80
127080 On ch=2 n=59 v=82
127180 On ch=2 n=55 v=79
127200 Off ch=2 n=59 v=62
127200 Off ch=2 n=62 v=64
127200 On ch=2 n=62 v=80
127200 On ch=2 n=65 v=80
127210 Off ch=2 n=55 v=66
127392 Off ch=2 n=65 v=63
127392 Off ch=2 n=62 v=66
127440 On ch=2 n=62 v=81
127440 On ch=2 n=65 v=80
127632 Off ch=2 n=65 v=66
127632 Off ch=2 n=62 v=62
127680 On ch=2 n=62 v=81
127680 On ch=2 n=65 v=79
127800 Off ch=2 n=65 v=66
127800 Off ch=2 n=62 v=62
127800 On ch=2 n=64 v=80
127800 On ch=2 n=60 v=80
127920 Off ch=2 n=60 v=62
127920 Off ch=2 n=64 v=64
127920 On ch=2 n=59 v=81
127920 On ch=2 n=63 v=82
128040 Off ch=2 n=63 v=64
128040 Off ch=2 n=59 v=65
128040 On ch=2 n=60 v=80
128040 On ch=2 n=60 v=79
128040 On ch=2 n=64 v=80
128160 Off ch=2 n=64 v=63
128160 Off ch=2 n=60 v=63
128160 Off ch=2 n=60 v=65
128160 On ch=2 n=61 v=78
128160 On ch=2 n=52 v=80
128352 Off ch=2 n=52 v=65
128352 Off ch=2 n=61 v=65
128400 On ch=2 n=61 v=78
128400 On ch=2 n=52 v=78
128592 Off ch=2 n=52 v=65
128592 Off ch=2 n=61 v=64
128640 On ch=2 n=53 v=80
128640 On ch=2 n=61 v=82
128760 Off ch=2 n=61 v=64
128760 On ch=2 n=62 v=82
128880 Off ch=2 n=62 v=65
128880 On ch=2 n=64 v=82
129000 Off ch=2 n=64 v=65
129000 On ch=2 n=65 v=82
129120 Off ch=2 n=65 v=66
129120 Off ch=2 n=53 v=66
129120 On ch=2 n=55 v=96
129120 On ch=2 n=64 v=95
129192 Off ch=2 n=64 v=65
129192 Off ch=2 n=55 v=63
129360 On ch=2 n=43 v=108
129360 On ch=2 n=55 v=108
129432 Off ch=2 n=55 v=66
129432 Off ch=2 n=43 v=63
129600 On ch=2 n=48 v=111
129600 On ch=2 n=36 v=110
129840 Off ch=2 n=36 v=63
129840 Off ch=2 n=48 v=64