185 On ch=1 n=69 v=44
189 On ch=1 n=72 v=38
192 On ch=1 n=77 v=55
233 On ch=1 n=69 v=0
237 On ch=1 n=72 v=0
264 On ch=1 n=79 v=57
266 On ch=1 n=77 v=0
271 On ch=1 n=77 v=49
273 On ch=1 n=79 v=0
276 On ch=1 n=76 v=52
278 On ch=1 n=77 v=0
282 On ch=1 n=77 v=47
284 On ch=1 n=76 v=0
288 On ch=1 n=81 v=49
290 On ch=1 n=77 v=0
324 On ch=1 n=79 v=52
326 On ch=1 n=81 v=0
336 On ch=1 n=82 v=46
338 On ch=1 n=79 v=0
372 On ch=1 n=79 v=49
374 On ch=1 n=82 v=0
384 On ch=1 n=77 v=52
386 On ch=1 n=79 v=0
444 On ch=1 n=76 v=57
446 On ch=1 n=77 v=0
456 On ch=1 n=79 v=49
458 On ch=1 n=76 v=0
468 On ch=1 n=76 v=51
470 On ch=1 n=79 v=0
480 On ch=1 n=72 v=46
482 On ch=1 n=76 v=0
528 On ch=1 n=72 v=0
552 On ch=1 n=72 v=60
576 On ch=1 n=72 v=0
576 On ch=1 n=77 v=66
576 On ch=1 n=72 v=44
621 On ch=1 n=81 v=55
624 On ch=1 n=72 v=0
624 On ch=1 n=77 v=0
624 On ch=1 n=79 v=60
624 On ch=1 n=72 v=38
625 On ch=1 n=81 v=0
636 On ch=1 n=78 v=63
638 On ch=1 n=79 v=0
648 On ch=1 n=79 v=58
650 On ch=1 n=78 v=0
660 On ch=1 n=80 v=52
662 On ch=1 n=79 v=0
672 On ch=1 n=72 v=0
672 On ch=1 n=81 v=55
672 On ch=1 n=72 v=33
674 On ch=1 n=80 v=0
717 On ch=1 n=84 v=49
720 On ch=1 n=72 v=0
720 On ch=1 n=81 v=0
720 On ch=1 n=82 v=57
720 On ch=1 n=74 v=35
721 On ch=1 n=84 v=0
732 On ch=1 n=81 v=60
734 On ch=1 n=82 v=0
744 On ch=1 n=82 v=55
746 On ch=1 n=81 v=0
756 On ch=1 n=86 v=49
758 On ch=1 n=82 v=0
763 On ch=1 n=72 v=33
766 On ch=1 n=77 v=27
768 On ch=1 n=74 v=0
768 On ch=1 n=81 v=52
770 On ch=1 n=86 v=0
828 On ch=1 n=82 v=55
830 On ch=1 n=81 v=0
840 On ch=1 n=83 v=57
842 On ch=1 n=82 v=0
852 On ch=1 n=84 v=59
854 On ch=1 n=83 v=0
859 On ch=1 n=72 v=0
862 On ch=1 n=77 v=0
864 On ch=1 n=79 v=52
864 On ch=1 n=76 v=38
864 On ch=1 n=72 v=22
866 On ch=1 n=84 v=0
912 On ch=1 n=79 v=0
912 On ch=1 n=76 v=0
912 On ch=1 n=72 v=0
936 On ch=1 n=72 v=66
960 On ch=1 n=72 v=0
960 On ch=1 n=82 v=77
960 On ch=1 n=76 v=68
960 On ch=1 n=72 v=49
1032 On ch=1 n=79 v=71
1034 On ch=1 n=76 v=0
1034 On ch=1 n=82 v=0
1038 On ch=1 n=81 v=63
1039 On ch=1 n=79 v=0
1042 On ch=1 n=79 v=67
1043 On ch=1 n=81 v=0
1046 On ch=1 n=78 v=69
1047 On ch=1 n=79 v=0
1051 On ch=1 n=79 v=66
1052 On ch=1 n=78 v=0
1056 On ch=1 n=76 v=71
1057 On ch=1 n=79 v=0
1066 On ch=1 n=76 v=0
1066 On ch=1 n=72 v=0
1080 On ch=1 n=77 v=57
1080 On ch=1 n=72 v=41
1104 On ch=1 n=72 v=0
1104 On ch=1 n=76 v=60
1104 On ch=1 n=72 v=44
1106 On ch=1 n=77 v=0
1128 On ch=1 n=72 v=0
1128 On ch=1 n=77 v=62
1128 On ch=1 n=72 v=49
1130 On ch=1 n=76 v=0
1152 On ch=1 n=72 v=0
1152 On ch=1 n=82 v=66
1152 On ch=1 n=76 v=57
1152 On ch=1 n=72 v=38
1154 On ch=1 n=77 v=0
1224 On ch=1 n=79 v=60
1226 On ch=1 n=82 v=0
1226 On ch=1 n=76 v=0
1230 On ch=1 n=81 v=52
1231 On ch=1 n=79 v=0
1234 On ch=1 n=79 v=56
1235 On ch=1 n=81 v=0
1238 On ch=1 n=78 v=58
1239 On ch=1 n=79 v=0
1243 On ch=1 n=79 v=55
1244 On ch=1 n=78 v=0
1248 On ch=1 n=76 v=60
1249 On ch=1 n=79 v=0
1260 On ch=1 n=76 v=0
1260 On ch=1 n=72 v=0
1272 On ch=1 n=84 v=46
1272 On ch=1 n=72 v=30
1296 On ch=1 n=83 v=44
1296 On ch=1 n=71 v=27
1298 On ch=1 n=72 v=0
1298 On ch=1 n=84 v=0
1320 On ch=1 n=84 v=50
1320 On ch=1 n=72 v=34
1322 On ch=1 n=83 v=0
1322 On ch=1 n=71 v=0
1344 On ch=1 n=86 v=55
1344 On ch=1 n=74 v=38
1346 On ch=1 n=84 v=0
1346 On ch=1 n=72 v=0
1404 On ch=1 n=88 v=49
1406 On ch=1 n=86 v=0
1406 On ch=1 n=74 v=0
1408 On ch=1 n=86 v=44
1409 On ch=1 n=88 v=0
1411 On ch=1 n=85 v=46
1412 On ch=1 n=86 v=0
1413 On ch=1 n=86 v=49
1415 On ch=1 n=85 v=0
1416 On ch=1 n=88 v=55
1417 On ch=1 n=86 v=0
1426 On ch=1 n=88 v=0
1428 On ch=1 n=89 v=60
1436 On ch=1 n=89 v=0
1440 On ch=1 n=77 v=66
1512 On ch=1 n=81 v=58
1514 On ch=1 n=77 v=0
1524 On ch=1 n=79 v=62
1526 On ch=1 n=81 v=0
1536 On ch=1 n=79 v=0
1536 On ch=1 n=79 v=60
1608 On ch=1 n=84 v=52
1610 On ch=1 n=79 v=0
1620 On ch=1 n=76 v=57
1622 On ch=1 n=84 v=0
1632 On ch=1 n=77 v=49
1634 On ch=1 n=76 v=0
1656 On ch=1 n=77 v=0
1728 On ch=1 n=77 v=74
1728 On ch=1 n=69 v=44
1728 On ch=1 n=65 v=57
1824 On ch=1 n=65 v=0
1824 On ch=1 n=69 v=0
1824 On ch=1 n=77 v=0
1824 On ch=1 n=81 v=79
1824 On ch=1 n=74 v=49
1824 On ch=1 n=69 v=71
1860 On ch=1 n=79 v=82
1860 On ch=1 n=67 v=74
1862 On ch=1 n=69 v=0
1862 On ch=1 n=81 v=0
1862 On ch=1 n=74 v=0
1872 On ch=1 n=82 v=68
1872 On ch=1 n=74 v=44
1872 On ch=1 n=70 v=60
1874 On ch=1 n=79 v=0
1874 On ch=1 n=67 v=0
1908 On ch=1 n=79 v=71
1908 On ch=1 n=67 v=62
1910 On ch=1 n=74 v=0
1910 On ch=1 n=70 v=0
1910 On ch=1 n=82 v=0
1920 On ch=1 n=77 v=74
1920 On ch=1 n=72 v=49
1920 On ch=1 n=65 v=58
1922 On ch=1 n=79 v=0
1922 On ch=1 n=67 v=0
1980 On ch=1 n=76 v=79
1980 On ch=1 n=64 v=66
1982 On ch=1 n=72 v=0
1982 On ch=1 n=65 v=0
1982 On ch=1 n=77 v=0
1992 On ch=1 n=79 v=71
1992 On ch=1 n=67 v=58
1994 On ch=1 n=76 v=0
1994 On ch=1 n=64 v=0
2004 On ch=1 n=76 v=73
2004 On ch=1 n=64 v=60
2006 On ch=1 n=79 v=0
2006 On ch=1 n=67 v=0
2014 On ch=1 n=60 v=49
2016 On ch=1 n=72 v=68
2018 On ch=1 n=76 v=0
2018 On ch=1 n=64 v=0
2062 On ch=1 n=60 v=0
2064 On ch=1 n=72 v=0
2088 On ch=1 n=72 v=82
2112 On ch=1 n=65 v=55
2114 On ch=1 n=72 v=0
2114 On ch=1 n=77 v=88
2157 On ch=1 n=81 v=66
2160 On ch=1 n=65 v=0
2160 On ch=1 n=79 v=82
2160 On ch=1 n=67 v=66
2161 On ch=1 n=81 v=0
2162 On ch=1 n=77 v=0
2172 On ch=1 n=78 v=85
2172 On ch=1 n=66 v=69
2174 On ch=1 n=79 v=0
2174 On ch=1 n=67 v=0
2184 On ch=1 n=79 v=80
2184 On ch=1 n=67 v=63
2186 On ch=1 n=78 v=0
2186 On ch=1 n=66 v=0
2196 On ch=1 n=80 v=74
2196 On ch=1 n=68 v=58
2198 On ch=1 n=79 v=0
2198 On ch=1 n=67 v=0
2208 On ch=1 n=81 v=77
2208 On ch=1 n=69 v=55
2210 On ch=1 n=80 v=0
2210 On ch=1 n=68 v=0
2253 On ch=1 n=84 v=66
2256 On ch=1 n=81 v=0
2256 On ch=1 n=69 v=0
2256 On ch=1 n=82 v=79
2256 On ch=1 n=70 v=57
2257 On ch=1 n=84 v=0
2268 On ch=1 n=81 v=82
2268 On ch=1 n=69 v=60
2270 On ch=1 n=70 v=0
2270 On ch=1 n=82 v=0
2280 On ch=1 n=82 v=77
2280 On ch=1 n=70 v=62
2282 On ch=1 n=81 v=0
2282 On ch=1 n=69 v=0
2292 On ch=1 n=86 v=71
2292 On ch=1 n=74 v=57
2294 On ch=1 n=82 v=0
2294 On ch=1 n=70 v=0
2304 On ch=1 n=81 v=74
2304 On ch=1 n=77 v=44
2304 On ch=1 n=69 v=60
2306 On ch=1 n=86 v=0
2306 On ch=1 n=74 v=0
2364 On ch=1 n=82 v=77
2364 On ch=1 n=70 v=62
2366 On ch=1 n=77 v=0
2366 On ch=1 n=69 v=0
2366 On ch=1 n=81 v=0
2376 On ch=1 n=83 v=71
2376 On ch=1 n=71 v=57
2378 On ch=1 n=82 v=0
2378 On ch=1 n=70 v=0
2388 On ch=1 n=84 v=69
2388 On ch=1 n=72 v=56
2390 On ch=1 n=83 v=0
2390 On ch=1 n=71 v=0
2400 On ch=1 n=79 v=66
2400 On ch=1 n=76 v=35
2400 On ch=1 n=67 v=55
2402 On ch=1 n=84 v=0
2402 On ch=1 n=72 v=0
2448 On ch=1 n=76 v=0
2448 On ch=1 n=79 v=0
2448 On ch=1 n=67 v=0
2472 On ch=1 n=72 v=88
2496 On ch=1 n=72 v=0
2496 On ch=1 n=82 v=99
2496 On ch=1 n=79 v=82
2496 On ch=1 n=76 v=90
2496 On ch=1 n=72 v=71
2568 On ch=1 n=79 v=0
2568 On ch=1 n=79 v=93
2570 On ch=1 n=82 v=0
2570 On ch=1 n=72 v=0
2570 On ch=1 n=76 v=0
2573 On ch=1 n=81 v=77
2575 On ch=1 n=79 v=0
2576 On ch=1 n=79 v=66
2577 On ch=1 n=81 v=0
2579 On ch=1 n=81 v=69
2580 On ch=1 n=79 v=0
2582 On ch=1 n=79 v=72
2583 On ch=1 n=81 v=0
2585 On ch=1 n=78 v=74
2586 On ch=1 n=79 v=0
2588 On ch=1 n=79 v=77
2589 On ch=1 n=78 v=0
2592 On ch=1 n=79 v=0
2592 On ch=1 n=76 v=93
2592 On ch=1 n=72 v=77
2602 On ch=1 n=72 v=0
2602 On ch=1 n=76 v=0
2616 On ch=1 n=77 v=90
2616 On ch=1 n=65 v=74
2640 On ch=1 n=76 v=93
2640 On ch=1 n=64 v=77
2642 On ch=1 n=65 v=0
2642 On ch=1 n=77 v=0
2664 On ch=1 n=77 v=88
2664 On ch=1 n=65 v=71
2666 On ch=1 n=76 v=0
2666 On ch=1 n=64 v=0
2688 On ch=1 n=82 v=93
2688 On ch=1 n=79 v=66
2688 On ch=1 n=76 v=84
2688 On ch=1 n=72 v=71
2690 On ch=1 n=77 v=0
2690 On ch=1 n=65 v=0
2760 On ch=1 n=79 v=0
2760 On ch=1 n=79 v=88
2762 On ch=1 n=82 v=0
2762 On ch=1 n=76 v=0
2762 On ch=1 n=72 v=0
2765 On ch=1 n=81 v=74
2767 On ch=1 n=79 v=0
2768 On ch=1 n=79 v=66
2769 On ch=1 n=81 v=0
2771 On ch=1 n=81 v=68
2772 On ch=1 n=79 v=0
2774 On ch=1 n=79 v=70
2775 On ch=1 n=81 v=0
2777 On ch=1 n=78 v=72
2778 On ch=1 n=79 v=0
2780 On ch=1 n=79 v=74
2781 On ch=1 n=78 v=0
2784 On ch=1 n=76 v=88
2784 On ch=1 n=72 v=66
2785 On ch=1 n=79 v=0
2796 On ch=1 n=72 v=0
2796 On ch=1 n=76 v=0
2808 On ch=1 n=84 v=73
2808 On ch=1 n=77 v=49
2808 On ch=1 n=72 v=58
2832 On ch=1 n=77 v=0
2832 On ch=1 n=83 v=82
2832 On ch=1 n=77 v=44
2832 On ch=1 n=71 v=66
2834 On ch=1 n=72 v=0
2834 On ch=1 n=84 v=0
2856 On ch=1 n=77 v=0
2856 On ch=1 n=84 v=78
2856 On ch=1 n=77 v=47
2856 On ch=1 n=72 v=61
2858 On ch=1 n=83 v=0
2858 On ch=1 n=71 v=0
2880 On ch=1 n=77 v=0
2880 On ch=1 n=86 v=71
2880 On ch=1 n=77 v=44
2880 On ch=1 n=74 v=55
2882 On ch=1 n=84 v=0
2882 On ch=1 n=72 v=0
2938 On ch=1 n=77 v=0
2938 On ch=1 n=86 v=0
2938 On ch=1 n=74 v=0
2940 On ch=1 n=86 v=77
2940 On ch=1 n=74 v=60
2946 On ch=1 n=74 v=0
2946 On ch=1 n=86 v=0
2952 On ch=1 n=88 v=69
2952 On ch=1 n=76 v=57
2957 On ch=1 n=76 v=0
2957 On ch=1 n=88 v=0
2964 On ch=1 n=89 v=66
2964 On ch=1 n=77 v=55
2970 On ch=1 n=77 v=0
2970 On ch=1 n=89 v=0
2976 On ch=1 n=77 v=71
2976 On ch=1 n=65 v=66
3024 On ch=1 n=81 v=74
3024 On ch=1 n=69 v=60
3026 On ch=1 n=65 v=0
3026 On ch=1 n=77 v=0
3060 On ch=1 n=79 v=68
3060 On ch=1 n=67 v=51
3062 On ch=1 n=81 v=0
3062 On ch=1 n=69 v=0
3072 On ch=1 n=79 v=0
3072 On ch=1 n=67 v=0
3072 On ch=1 n=77 v=66
3072 On ch=1 n=65 v=47
3112 On ch=1 n=65 v=0
3112 On ch=1 n=77 v=0
3120 On ch=1 n=69 v=110
3162 On ch=1 n=69 v=0
3162 On ch=1 n=69 v=104
3168 On ch=1 n=62 v=115
3170 On ch=1 n=69 v=0
3208 On ch=1 n=62 v=0
3216 On ch=1 n=86 v=110
3216 On ch=1 n=74 v=88
3258 On ch=1 n=74 v=0
3258 On ch=1 n=86 v=0
3258 On ch=1 n=86 v=104
3258 On ch=1 n=74 v=85
3264 On ch=1 n=79 v=115
3264 On ch=1 n=67 v=82
3266 On ch=1 n=74 v=0
3266 On ch=1 n=86 v=0
3304 On ch=1 n=79 v=0
3304 On ch=1 n=67 v=0
3312 On ch=1 n=82 v=110
3312 On ch=1 n=70 v=88
3354 On ch=1 n=70 v=0
3354 On ch=1 n=82 v=0
3354 On ch=1 n=82 v=104
3354 On ch=1 n=70 v=82
3360 On ch=1 n=82 v=0
3360 On ch=1 n=88 v=121
3360 On ch=1 n=82 v=71
3360 On ch=1 n=79 v=85
3360 On ch=1 n=76 v=93
3362 On ch=1 n=70 v=0
3400 On ch=1 n=79 v=0
3400 On ch=1 n=88 v=0
3400 On ch=1 n=82 v=0
3400 On ch=1 n=76 v=0
3408 On ch=1 n=89 v=126
3408 On ch=1 n=81 v=85
3408 On ch=1 n=77 v=99
3444 On ch=1 n=77 v=0
3444 On ch=1 n=81 v=0
3444 On ch=1 n=89 v=0
3456 On ch=1 n=79 v=77
3456 On ch=1 n=77 v=60
3456 On ch=1 n=74 v=38
3456 On ch=1 n=67 v=66
3516 On ch=1 n=81 v=79
3516 On ch=1 n=69 v=63
3518 On ch=1 n=67 v=0
3518 On ch=1 n=74 v=0
3518 On ch=1 n=79 v=0
3518 On ch=1 n=77 v=0
3528 On ch=1 n=82 v=72
3528 On ch=1 n=70 v=61
3530 On ch=1 n=69 v=0
3530 On ch=1 n=81 v=0
3540 On ch=1 n=86 v=69
3540 On ch=1 n=74 v=59
3542 On ch=1 n=82 v=0
3542 On ch=1 n=70 v=0
3550 On ch=1 n=86 v=0
3550 On ch=1 n=74 v=0
3552 On ch=1 n=86 v=63
3552 On ch=1 n=74 v=55
3564 On ch=1 n=84 v=68
3564 On ch=1 n=72 v=57
3566 On ch=1 n=74 v=0
3566 On ch=1 n=86 v=0
3576 On ch=1 n=82 v=71
3576 On ch=1 n=70 v=59
3578 On ch=1 n=84 v=0
3578 On ch=1 n=72 v=0
3588 On ch=1 n=81 v=73
3588 On ch=1 n=69 v=61
3590 On ch=1 n=82 v=0
3590 On ch=1 n=70 v=0
3598 On ch=1 n=81 v=0
3598 On ch=1 n=69 v=0
3600 On ch=1 n=81 v=70
3600 On ch=1 n=69 v=58
3612 On ch=1 n=79 v=72
3612 On ch=1 n=67 v=60
3614 On ch=1 n=69 v=0
3614 On ch=1 n=81 v=0
3624 On ch=1 n=82 v=68
3624 On ch=1 n=70 v=52
3626 On ch=1 n=79 v=0
3626 On ch=1 n=67 v=0
3636 On ch=1 n=76 v=71
3636 On ch=1 n=64 v=55
3638 On ch=1 n=82 v=0
3638 On ch=1 n=70 v=0
3648 On ch=1 n=77 v=66
3648 On ch=1 n=65 v=44
3650 On ch=1 n=76 v=0
3650 On ch=1 n=64 v=0
3688 On ch=1 n=77 v=0
3688 On ch=1 n=65 v=0
3696 On ch=1 n=77 v=57
3696 On ch=1 n=72 v=33
3696 On ch=1 n=69 v=49
3738 On ch=1 n=69 v=0
3738 On ch=1 n=72 v=0
3738 On ch=1 n=77 v=0
3738 On ch=1 n=77 v=49
3738 On ch=1 n=72 v=24
3738 On ch=1 n=69 v=41
3743 On ch=1 n=69 v=0
3743 On ch=1 n=72 v=0
3743 On ch=1 n=77 v=0
3744 On ch=1 n=77 v=55
3744 On ch=1 n=69 v=27
3744 On ch=1 n=65 v=38
3792 On ch=1 n=65 v=0
3792 On ch=1 n=69 v=0
3792 On ch=1 n=77 v=0
3830 On ch=1 n=72 v=38
3840 On ch=1 n=81 v=55
3842 On ch=1 n=72 v=0
3912 On ch=1 n=82 v=49
3914 On ch=1 n=81 v=0
3919 On ch=1 n=81 v=51
3921 On ch=1 n=82 v=0
3925 On ch=1 n=79 v=47
3927 On ch=1 n=81 v=0
3930 On ch=1 n=81 v=49
3932 On ch=1 n=79 v=0
3936 On ch=1 n=84 v=44
3938 On ch=1 n=81 v=0
4008 On ch=1 n=76 v=52
4010 On ch=1 n=84 v=0
4032 On ch=1 n=77 v=49
4034 On ch=1 n=76 v=0
4104 On ch=1 n=81 v=47
4106 On ch=1 n=77 v=0
4116 On ch=1 n=79 v=52
4118 On ch=1 n=81 v=0
4126 On ch=1 n=79 v=0
4128 On ch=1 n=79 v=57
4200 On ch=1 n=82 v=52
4202 On ch=1 n=79 v=0
4212 On ch=1 n=81 v=58
4214 On ch=1 n=82 v=0
4222 On ch=1 n=81 v=0
4224 On ch=1 n=81 v=60
4296 On ch=1 n=82 v=57
4298 On ch=1 n=81 v=0
4308 On ch=1 n=84 v=63
4310 On ch=1 n=82 v=0
4320 On ch=1 n=86 v=66
4322 On ch=1 n=84 v=0
4332 On ch=1 n=88 v=68
4334 On ch=1 n=86 v=0
4344 On ch=1 n=89 v=63
4346 On ch=1 n=88 v=0
4356 On ch=1 n=88 v=66
4358 On ch=1 n=89 v=0
4368 On ch=1 n=89 v=68
4370 On ch=1 n=88 v=0
4380 On ch=1 n=86 v=70
4382 On ch=1 n=89 v=0
4392 On ch=1 n=84 v=63
4394 On ch=1 n=86 v=0
4404 On ch=1 n=82 v=58
4406 On ch=1 n=84 v=0
4416 On ch=1 n=81 v=60
4418 On ch=1 n=82 v=0
4476 On ch=1 n=84 v=55
4478 On ch=1 n=81 v=0
4488 On ch=1 n=83 v=57
4490 On ch=1 n=84 v=0
4500 On ch=1 n=84 v=52
4502 On ch=1 n=83 v=0
4512 On ch=1 n=79 v=49
4514 On ch=1 n=84 v=0
4560 On ch=1 n=79 v=0
4602 On ch=1 n=57 v=82
4608 On ch=1 n=69 v=99
4610 On ch=1 n=57 v=0
4700 On ch=1 n=79 v=44
4704 On ch=1 n=69 v=0
4704 On ch=1 n=91 v=60
4706 On ch=1 n=79 v=0
4812 On ch=1 n=89 v=46
4814 On ch=1 n=91 v=0
4824 On ch=1 n=88 v=48
4826 On ch=1 n=89 v=0
4836 On ch=1 n=86 v=50
4838 On ch=1 n=88 v=0
4848 On ch=1 n=85 v=52
4850 On ch=1 n=86 v=0
4860 On ch=1 n=86 v=49
4862 On ch=1 n=85 v=0
4872 On ch=1 n=89 v=46
4874 On ch=1 n=86 v=0
4884 On ch=1 n=86 v=48
4886 On ch=1 n=89 v=0
4896 On ch=1 n=84 v=50
4898 On ch=1 n=86 v=0
4908 On ch=1 n=82 v=52
4910 On ch=1 n=84 v=0
4920 On ch=1 n=86 v=49
4922 On ch=1 n=82 v=0
4932 On ch=1 n=82 v=51
4934 On ch=1 n=86 v=0
4944 On ch=1 n=81 v=53
4946 On ch=1 n=82 v=0
4956 On ch=1 n=79 v=56
4958 On ch=1 n=81 v=0
4968 On ch=1 n=77 v=58
4970 On ch=1 n=79 v=0
4980 On ch=1 n=76 v=60
4982 On ch=1 n=77 v=0
4992 On ch=1 n=81 v=55
4994 On ch=1 n=76 v=0
5034 On ch=1 n=82 v=60
5036 On ch=1 n=81 v=0
5040 On ch=1 n=74 v=63
5042 On ch=1 n=82 v=0
5112 On ch=1 n=76 v=57
5114 On ch=1 n=74 v=0
5119 On ch=1 n=74 v=55
5121 On ch=1 n=76 v=0
5125 On ch=1 n=73 v=58
5127 On ch=1 n=74 v=0
5130 On ch=1 n=74 v=56
5132 On ch=1 n=73 v=0
5136 On ch=1 n=77 v=52
5136 On ch=1 n=73 v=33
5136 On ch=1 n=69 v=19
5136 On ch=1 n=67 v=24
5138 On ch=1 n=74 v=0
5160 On ch=1 n=76 v=55
5162 On ch=1 n=77 v=0
5184 On ch=1 n=69 v=0
5184 On ch=1 n=74 v=49
5184 On ch=1 n=69 v=22
5184 On ch=1 n=65 v=30
5186 On ch=1 n=67 v=0
5186 On ch=1 n=76 v=0
5186 On ch=1 n=73 v=0
5204 On ch=1 n=74 v=0
5204 On ch=1 n=69 v=0
5204 On ch=1 n=65 v=0
5208 On ch=1 n=65 v=96
5232 On ch=1 n=69 v=99
5234 On ch=1 n=65 v=0
5256 On ch=1 n=67 v=94
5258 On ch=1 n=69 v=0
5280 On ch=1 n=65 v=91
5282 On ch=1 n=67 v=0
5304 On ch=1 n=64 v=88
5306 On ch=1 n=65 v=0
5328 On ch=1 n=62 v=82
5330 On ch=1 n=64 v=0
5352 On ch=1 n=60 v=77
5354 On ch=1 n=62 v=0
5376 On ch=1 n=55 v=110
5378 On ch=1 n=60 v=0
5469 On ch=1 n=77 v=44
5472 On ch=1 n=55 v=0
5472 On ch=1 n=89 v=60
5473 On ch=1 n=77 v=0
5526 On ch=1 n=86 v=52
5528 On ch=1 n=89 v=0
5532 On ch=1 n=83 v=55
5534 On ch=1 n=86 v=0
5538 On ch=1 n=79 v=57
5540 On ch=1 n=83 v=0
5544 On ch=1 n=77 v=59
5546 On ch=1 n=79 v=0
5550 On ch=1 n=74 v=61
5552 On ch=1 n=77 v=0
5556 On ch=1 n=71 v=63
5558 On ch=1 n=74 v=0
5562 On ch=1 n=65 v=68
5564 On ch=1 n=71 v=0
5568 On ch=1 n=64 v=66
5570 On ch=1 n=65 v=0
5574 On ch=1 n=66 v=63
5576 On ch=1 n=64 v=0
5580 On ch=1 n=67 v=61
5582 On ch=1 n=66 v=0
5586 On ch=1 n=66 v=64
5588 On ch=1 n=67 v=0
5592 On ch=1 n=67 v=62
5594 On ch=1 n=66 v=0
5598 On ch=1 n=71 v=60
5600 On ch=1 n=67 v=0
5604 On ch=1 n=72 v=58
5606 On ch=1 n=71 v=0
5610 On ch=1 n=71 v=61
5612 On ch=1 n=72 v=0
5616 On ch=1 n=72 v=59
5618 On ch=1 n=71 v=0
5622 On ch=1 n=75 v=57
5624 On ch=1 n=72 v=0
5628 On ch=1 n=76 v=55
5630 On ch=1 n=75 v=0
5634 On ch=1 n=75 v=58
5636 On ch=1 n=76 v=0
5640 On ch=1 n=76 v=56
5642 On ch=1 n=75 v=0
5646 On ch=1 n=78 v=53
5648 On ch=1 n=76 v=0
5652 On ch=1 n=79 v=51
5654 On ch=1 n=78 v=0
5658 On ch=1 n=78 v=55
5660 On ch=1 n=79 v=0
5664 On ch=1 n=79 v=52
5666 On ch=1 n=78 v=0
5670 On ch=1 n=83 v=50
5672 On ch=1 n=79 v=0
5676 On ch=1 n=84 v=48
5678 On ch=1 n=83 v=0
5682 On ch=1 n=83 v=51
5684 On ch=1 n=84 v=0
5688 On ch=1 n=84 v=49
5690 On ch=1 n=83 v=0
5694 On ch=1 n=87 v=47
5696 On ch=1 n=84 v=0
5700 On ch=1 n=88 v=45
5702 On ch=1 n=87 v=0
5706 On ch=1 n=87 v=48
5708 On ch=1 n=88 v=0
5712 On ch=1 n=88 v=46
5714 On ch=1 n=87 v=0
5718 On ch=1 n=86 v=49
5720 On ch=1 n=88 v=0
5724 On ch=1 n=84 v=52
5726 On ch=1 n=86 v=0
5730 On ch=1 n=83 v=56
5732 On ch=1 n=84 v=0
5736 On ch=1 n=81 v=59
5738 On ch=1 n=83 v=0
5742 On ch=1 n=79 v=62
5744 On ch=1 n=81 v=0
5748 On ch=1 n=77 v=57
5750 On ch=1 n=79 v=0
5754 On ch=1 n=76 v=52
5756 On ch=1 n=77 v=0
5760 On ch=1 n=74 v=55
5762 On ch=1 n=76 v=0
5764 On ch=1 n=74 v=0
5766 On ch=1 n=69 v=57
5769 On ch=1 n=69 v=0
5772 On ch=1 n=71 v=53
5775 On ch=1 n=71 v=0
5778 On ch=1 n=73 v=50
5781 On ch=1 n=73 v=0
5784 On ch=1 n=74 v=52
5787 On ch=1 n=74 v=0
5790 On ch=1 n=76 v=49
5793 On ch=1 n=76 v=0
5796 On ch=1 n=77 v=47
5799 On ch=1 n=77 v=0
5802 On ch=1 n=76 v=50
5805 On ch=1 n=76 v=0
5808 On ch=1 n=74 v=55
5812 On ch=1 n=74 v=0
5814 On ch=1 n=69 v=57
5817 On ch=1 n=69 v=0
5820 On ch=1 n=71 v=53
5823 On ch=1 n=71 v=0
5826 On ch=1 n=73 v=50
5829 On ch=1 n=73 v=0
5832 On ch=1 n=74 v=52
5835 On ch=1 n=74 v=0
5838 On ch=1 n=76 v=49
5841 On ch=1 n=76 v=0
5844 On ch=1 n=77 v=47
5847 On ch=1 n=77 v=0
5850 On ch=1 n=76 v=50
5853 On ch=1 n=76 v=0
5856 On ch=1 n=74 v=55
5860 On ch=1 n=74 v=0
5862 On ch=1 n=69 v=57
5865 On ch=1 n=69 v=0
5868 On ch=1 n=71 v=53
5871 On ch=1 n=71 v=0
5874 On ch=1 n=73 v=50
5877 On ch=1 n=73 v=0
5880 On ch=1 n=74 v=52
5883 On ch=1 n=74 v=0
5886 On ch=1 n=76 v=49
5889 On ch=1 n=76 v=0
5892 On ch=1 n=77 v=47
5895 On ch=1 n=77 v=0
5898 On ch=1 n=79 v=44
5901 On ch=1 n=79 v=0
5904 On ch=1 n=81 v=60
5910 On ch=1 n=79 v=46
5912 On ch=1 n=81 v=0
5913 On ch=1 n=79 v=0
5916 On ch=1 n=77 v=49
5919 On ch=1 n=77 v=0
5922 On ch=1 n=76 v=52
5925 On ch=1 n=76 v=0
5928 On ch=1 n=74 v=56
5931 On ch=1 n=74 v=0
5934 On ch=1 n=72 v=59
5937 On ch=1 n=72 v=0
5940 On ch=1 n=71 v=61
5943 On ch=1 n=71 v=0
5946 On ch=1 n=69 v=63
5949 On ch=1 n=69 v=0
5952 On ch=1 n=67 v=66
5964 On ch=1 n=69 v=68
5966 On ch=1 n=67 v=0
5970 On ch=1 n=71 v=64
5972 On ch=1 n=69 v=0
5976 On ch=1 n=72 v=62
5978 On ch=1 n=71 v=0
5982 On ch=1 n=74 v=60
5984 On ch=1 n=72 v=0
5988 On ch=1 n=76 v=58
5990 On ch=1 n=74 v=0
5994 On ch=1 n=77 v=61
5996 On ch=1 n=76 v=0
6000 On ch=1 n=79 v=64
6002 On ch=1 n=77 v=0
6012 On ch=1 n=81 v=67
6014 On ch=1 n=79 v=0
6018 On ch=1 n=83 v=69
6020 On ch=1 n=81 v=0
6024 On ch=1 n=84 v=66
6026 On ch=1 n=83 v=0
6030 On ch=1 n=86 v=63
6032 On ch=1 n=84 v=0
6036 On ch=1 n=88 v=61
6038 On ch=1 n=86 v=0
6042 On ch=1 n=89 v=59
6044 On ch=1 n=88 v=0
6048 On ch=1 n=91 v=62
6050 On ch=1 n=89 v=0
6058 On ch=1 n=91 v=0
6072 On ch=1 n=93 v=68
6080 On ch=1 n=93 v=0
6096 On ch=1 n=95 v=72
6102 On ch=1 n=95 v=0
6120 On ch=1 n=96 v=77
6128 On ch=1 n=96 v=0
6144 On ch=1 n=74 v=60
6150 On ch=1 n=76 v=44
6152 On ch=1 n=74 v=0
6154 On ch=1 n=74 v=47
6155 On ch=1 n=76 v=0
6157 On ch=1 n=76 v=45
6158 On ch=1 n=74 v=0
6159 On ch=1 n=74 v=48
6161 On ch=1 n=76 v=0
6162 On ch=1 n=76 v=51
6163 On ch=1 n=74 v=0
6165 On ch=1 n=74 v=47
6166 On ch=1 n=76 v=0
6168 On ch=1 n=76 v=52
6169 On ch=1 n=74 v=0
6170 On ch=1 n=74 v=50
6172 On ch=1 n=76 v=0
6173 On ch=1 n=76 v=55
6174 On ch=1 n=74 v=0
6175 On ch=1 n=74 v=57
6177 On ch=1 n=76 v=0
6177 On ch=1 n=76 v=52
6179 On ch=1 n=74 v=0
6180 On ch=1 n=74 v=55
6181 On ch=1 n=76 v=0
6182 On ch=1 n=76 v=60
6184 On ch=1 n=74 v=0
6185 On ch=1 n=74 v=57
6186 On ch=1 n=76 v=0
6187 On ch=1 n=76 v=53
6189 On ch=1 n=74 v=0
6190 On ch=1 n=74 v=63
6191 On ch=1 n=76 v=0
6193 On ch=1 n=76 v=57
6194 On ch=1 n=74 v=0
6195 On ch=1 n=74 v=60
6197 On ch=1 n=76 v=0
6198 On ch=1 n=76 v=66
6199 On ch=1 n=74 v=0
6200 On ch=1 n=74 v=68
6202 On ch=1 n=76 v=0
6202 On ch=1 n=76 v=63
6204 On ch=1 n=74 v=0
6205 On ch=1 n=74 v=71
6206 On ch=1 n=76 v=0
6208 On ch=1 n=76 v=74
6209 On ch=1 n=74 v=0
6210 On ch=1 n=74 v=70
6212 On ch=1 n=76 v=0
6212 On ch=1 n=76 v=72
6214 On ch=1 n=74 v=0
6215 On ch=1 n=74 v=77
6216 On ch=1 n=76 v=0
6217 On ch=1 n=76 v=79
6219 On ch=1 n=74 v=0
6220 On ch=1 n=74 v=75
6221 On ch=1 n=76 v=0
6222 On ch=1 n=76 v=80
6224 On ch=1 n=74 v=0
6226 On ch=1 n=73 v=83
6227 On ch=1 n=76 v=0
6232 On ch=1 n=74 v=88
6233 On ch=1 n=73 v=0
6240 On ch=1 n=79 v=93
6241 On ch=1 n=74 v=0
6246 On ch=1 n=81 v=77
6248 On ch=1 n=79 v=0
6250 On ch=1 n=79 v=80
6251 On ch=1 n=81 v=0
6253 On ch=1 n=81 v=78
6254 On ch=1 n=79 v=0
6255 On ch=1 n=79 v=81
6257 On ch=1 n=81 v=0
6258 On ch=1 n=81 v=84
6259 On ch=1 n=79 v=0
6261 On ch=1 n=79 v=80
6262 On ch=1 n=81 v=0
6264 On ch=1 n=81 v=77
6265 On ch=1 n=79 v=0
6266 On ch=1 n=79 v=82
6268 On ch=1 n=81 v=0
6269 On ch=1 n=81 v=81
6270 On ch=1 n=79 v=0
6271 On ch=1 n=79 v=84
6273 On ch=1 n=81 v=0
6273 On ch=1 n=81 v=83
6275 On ch=1 n=79 v=0
6276 On ch=1 n=79 v=81
6277 On ch=1 n=81 v=0
6278 On ch=1 n=81 v=77
6280 On ch=1 n=79 v=0
6281 On ch=1 n=79 v=74
6282 On ch=1 n=81 v=0
6283 On ch=1 n=81 v=82
6285 On ch=1 n=79 v=0
6286 On ch=1 n=79 v=79
6287 On ch=1 n=81 v=0
6289 On ch=1 n=81 v=81
6290 On ch=1 n=79 v=0
6291 On ch=1 n=79 v=75
6293 On ch=1 n=81 v=0
6294 On ch=1 n=81 v=79
6295 On ch=1 n=79 v=0
6296 On ch=1 n=79 v=73
6298 On ch=1 n=81 v=0
6298 On ch=1 n=81 v=82
6300 On ch=1 n=79 v=0
6301 On ch=1 n=79 v=79
6302 On ch=1 n=81 v=0
6304 On ch=1 n=81 v=75
6305 On ch=1 n=79 v=0
6306 On ch=1 n=79 v=79
6308 On ch=1 n=81 v=0
6308 On ch=1 n=81 v=85
6310 On ch=1 n=79 v=0
6311 On ch=1 n=79 v=77
6312 On ch=1 n=81 v=0
6313 On ch=1 n=81 v=79
6315 On ch=1 n=79 v=0
6316 On ch=1 n=79 v=82
6317 On ch=1 n=81 v=0
6318 On ch=1 n=81 v=88
6320 On ch=1 n=79 v=0
6322 On ch=1 n=78 v=92
6323 On ch=1 n=81 v=0
6328 On ch=1 n=79 v=96
6329 On ch=1 n=78 v=0
6336 On ch=1 n=72 v=104
6336 On ch=1 n=67 v=77
6336 On ch=1 n=64 v=90
6337 On ch=1 n=79 v=0
6408 On ch=1 n=72 v=0
6408 On ch=1 n=67 v=0
6408 On ch=1 n=64 v=0
6426 On ch=1 n=79 v=104
6426 On ch=1 n=76 v=82
6426 On ch=1 n=72 v=66
6426 On ch=1 n=67 v=88
6432 On ch=1 n=67 v=0
6432 On ch=1 n=79 v=0
6432 On ch=1 n=76 v=0
6432 On ch=1 n=72 v=0
6432 On ch=1 n=81 v=110
6432 On ch=1 n=77 v=85
6432 On ch=1 n=72 v=66
6432 On ch=1 n=69 v=93
6472 On ch=1 n=69 v=0
6472 On ch=1 n=81 v=0
6472 On ch=1 n=77 v=0
6472 On ch=1 n=72 v=0
6474 On ch=1 n=77 v=107
6474 On ch=1 n=72 v=55
6474 On ch=1 n=69 v=88
6480 On ch=1 n=69 v=0
6480 On ch=1 n=72 v=0
6480 On ch=1 n=77 v=0
6480 On ch=1 n=84 v=115
6480 On ch=1 n=77 v=74
6480 On ch=1 n=72 v=99
6520 On ch=1 n=72 v=0
6520 On ch=1 n=77 v=0
6520 On ch=1 n=84 v=0
6522 On ch=1 n=81 v=111
6522 On ch=1 n=77 v=79
6522 On ch=1 n=72 v=93
6528 On ch=1 n=72 v=0
6528 On ch=1 n=77 v=0
6528 On ch=1 n=81 v=0
6528 On ch=1 n=79 v=104
6528 On ch=1 n=76 v=96
6528 On ch=1 n=72 v=82
6542 On ch=1 n=72 v=0
6542 On ch=1 n=76 v=0
6542 On ch=1 n=79 v=0
6552 On ch=1 n=72 v=66
6562 On ch=1 n=72 v=0
6564 On ch=1 n=74 v=60
6572 On ch=1 n=74 v=0
6576 On ch=1 n=76 v=55
6585 On ch=1 n=76 v=0
6588 On ch=1 n=77 v=51
6596 On ch=1 n=77 v=0
6600 On ch=1 n=78 v=53
6608 On ch=1 n=78 v=0
6612 On ch=1 n=79 v=47
6620 On ch=1 n=79 v=0
6624 On ch=1 n=81 v=49
6636 On ch=1 n=80 v=51
6638 On ch=1 n=81 v=0
6648 On ch=1 n=81 v=47
6650 On ch=1 n=80 v=0
6660 On ch=1 n=77 v=49
6662 On ch=1 n=81 v=0
6672 On ch=1 n=77 v=0
6672 On ch=1 n=84 v=47
6684 On ch=1 n=83 v=49
6686 On ch=1 n=84 v=0
6696 On ch=1 n=84 v=45
6698 On ch=1 n=83 v=0
6708 On ch=1 n=81 v=49
6710 On ch=1 n=84 v=0
6720 On ch=1 n=81 v=0
6720 On ch=1 n=79 v=44
6768 On ch=1 n=79 v=0
6810 On ch=1 n=79 v=104
6810 On ch=1 n=76 v=82
6810 On ch=1 n=72 v=66
6810 On ch=1 n=67 v=88
6816 On ch=1 n=67 v=0
6816 On ch=1 n=79 v=0
6816 On ch=1 n=76 v=0
6816 On ch=1 n=72 v=0
6816 On ch=1 n=80 v=110
6816 On ch=1 n=77 v=85
6816 On ch=1 n=72 v=66
6816 On ch=1 n=68 v=93
6856 On ch=1 n=68 v=0
6856 On ch=1 n=80 v=0
6856 On ch=1 n=77 v=0
6856 On ch=1 n=72 v=0
6858 On ch=1 n=77 v=107
6858 On ch=1 n=72 v=55
6858 On ch=1 n=68 v=88
6864 On ch=1 n=68 v=0
6864 On ch=1 n=72 v=0
6864 On ch=1 n=77 v=0
6864 On ch=1 n=84 v=115
6864 On ch=1 n=77 v=74
6864 On ch=1 n=72 v=99
6904 On ch=1 n=72 v=0
6904 On ch=1 n=77 v=0
6904 On ch=1 n=84 v=0
6906 On ch=1 n=80 v=111
6906 On ch=1 n=77 v=79
6906 On ch=1 n=72 v=93
6912 On ch=1 n=72 v=0
6912 On ch=1 n=77 v=0
6912 On ch=1 n=80 v=0
6912 On ch=1 n=79 v=104
6912 On ch=1 n=76 v=96
6912 On ch=1 n=72 v=82
6926 On ch=1 n=72 v=0
6926 On ch=1 n=76 v=0
6926 On ch=1 n=79 v=0
6936 On ch=1 n=72 v=66
6946 On ch=1 n=72 v=0
6948 On ch=1 n=74 v=60
6956 On ch=1 n=74 v=0
6960 On ch=1 n=76 v=55
6969 On ch=1 n=76 v=0
6972 On ch=1 n=77 v=51
6980 On ch=1 n=77 v=0
6984 On ch=1 n=78 v=53
6992 On ch=1 n=78 v=0
6996 On ch=1 n=79 v=47
7004 On ch=1 n=79 v=0
7008 On ch=1 n=80 v=49
7026 On ch=1 n=77 v=51
7028 On ch=1 n=80 v=0
7032 On ch=1 n=84 v=55
7034 On ch=1 n=77 v=0
7050 On ch=1 n=80 v=46
7052 On ch=1 n=84 v=0
7056 On ch=1 n=89 v=52
7058 On ch=1 n=80 v=0
7098 On ch=1 n=80 v=49
7100 On ch=1 n=89 v=0
7104 On ch=1 n=79 v=55
7106 On ch=1 n=80 v=0
7110 On ch=1 n=79 v=0
7113 On ch=1 n=84 v=46
7117 On ch=1 n=84 v=0
7120 On ch=1 n=83 v=48
7124 On ch=1 n=83 v=0
7128 On ch=1 n=84 v=50
7132 On ch=1 n=84 v=0
7136 On ch=1 n=83 v=44
7140 On ch=1 n=83 v=0
7144 On ch=1 n=84 v=47
7148 On ch=1 n=84 v=0
7152 On ch=1 n=80 v=50
7158 On ch=1 n=80 v=0
7161 On ch=1 n=84 v=46
7165 On ch=1 n=84 v=0
7168 On ch=1 n=83 v=48
7172 On ch=1 n=83 v=0
7176 On ch=1 n=84 v=50
7180 On ch=1 n=84 v=0
7184 On ch=1 n=83 v=44
7188 On ch=1 n=83 v=0
7192 On ch=1 n=84 v=47
7196 On ch=1 n=84 v=0
7200 On ch=1 n=79 v=52
7206 On ch=1 n=79 v=0
7208 On ch=1 n=84 v=46
7212 On ch=1 n=84 v=0
7216 On ch=1 n=83 v=48
7220 On ch=1 n=83 v=0
7224 On ch=1 n=84 v=50
7228 On ch=1 n=84 v=0
7232 On ch=1 n=83 v=44
7236 On ch=1 n=83 v=0
7240 On ch=1 n=84 v=47
7244 On ch=1 n=84 v=0
7248 On ch=1 n=80 v=49
7254 On ch=1 n=80 v=0
7256 On ch=1 n=84 v=46
7260 On ch=1 n=84 v=0
7264 On ch=1 n=83 v=48
7268 On ch=1 n=83 v=0
7272 On ch=1 n=84 v=50
7276 On ch=1 n=84 v=0
7280 On ch=1 n=83 v=44
7284 On ch=1 n=83 v=0
7288 On ch=1 n=84 v=47
7292 On ch=1 n=84 v=0
7296 On ch=1 n=83 v=50
7300 On ch=1 n=83 v=0
7304 On ch=1 n=84 v=46
7308 On ch=1 n=84 v=0
7312 On ch=1 n=83 v=48
7316 On ch=1 n=83 v=0
7320 On ch=1 n=84 v=46
7324 On ch=1 n=84 v=0
7328 On ch=1 n=83 v=49
7332 On ch=1 n=83 v=0
7336 On ch=1 n=84 v=47
7340 On ch=1 n=84 v=0
7344 On ch=1 n=83 v=50
7348 On ch=1 n=83 v=0
7352 On ch=1 n=84 v=48
7356 On ch=1 n=84 v=0
7360 On ch=1 n=83 v=51
7364 On ch=1 n=83 v=0
7368 On ch=1 n=84 v=49
7372 On ch=1 n=84 v=0
7376 On ch=1 n=83 v=52
7380 On ch=1 n=83 v=0
7384 On ch=1 n=84 v=50
7388 On ch=1 n=84 v=0
7392 On ch=1 n=83 v=53
7396 On ch=1 n=83 v=0
7400 On ch=1 n=84 v=51
7404 On ch=1 n=84 v=0
7408 On ch=1 n=86 v=49
7412 On ch=1 n=86 v=0
7416 On ch=1 n=84 v=52
7420 On ch=1 n=84 v=0
7424 On ch=1 n=82 v=56
7428 On ch=1 n=82 v=0
7432 On ch=1 n=81 v=59
7436 On ch=1 n=81 v=0
7440 On ch=1 n=79 v=62
7444 On ch=1 n=79 v=0
7448 On ch=1 n=81 v=60
7452 On ch=1 n=81 v=0
7456 On ch=1 n=82 v=58
7460 On ch=1 n=82 v=0
7464 On ch=1 n=81 v=61
7468 On ch=1 n=81 v=0
7472 On ch=1 n=79 v=64
7476 On ch=1 n=79 v=0
7480 On ch=1 n=77 v=68
7484 On ch=1 n=77 v=0
7488 On ch=1 n=76 v=71
7492 On ch=1 n=76 v=0
7496 On ch=1 n=77 v=69
7500 On ch=1 n=77 v=0
7504 On ch=1 n=79 v=67
7508 On ch=1 n=79 v=0
7512 On ch=1 n=77 v=70
7516 On ch=1 n=77 v=0
7520 On ch=1 n=76 v=73
7524 On ch=1 n=76 v=0
7528 On ch=1 n=74 v=77
7532 On ch=1 n=74 v=0
7536 On ch=1 n=72 v=80
7540 On ch=1 n=72 v=0
7544 On ch=1 n=73 v=78
7548 On ch=1 n=73 v=0
7552 On ch=1 n=74 v=75
7556 On ch=1 n=74 v=0
7560 On ch=1 n=75 v=73
7564 On ch=1 n=75 v=0
7568 On ch=1 n=76 v=71
7572 On ch=1 n=76 v=0
7576 On ch=1 n=77 v=69
7580 On ch=1 n=77 v=0
7584 On ch=1 n=78 v=67
7588 On ch=1 n=78 v=0
7592 On ch=1 n=79 v=64
7596 On ch=1 n=79 v=0
7600 On ch=1 n=80 v=62
7604 On ch=1 n=80 v=0
7608 On ch=1 n=81 v=60
7612 On ch=1 n=81 v=0
7616 On ch=1 n=82 v=58
7620 On ch=1 n=82 v=0
7624 On ch=1 n=83 v=56
7628 On ch=1 n=83 v=0
7632 On ch=1 n=84 v=53
7636 On ch=1 n=84 v=0
7640 On ch=1 n=83 v=57
7644 On ch=1 n=83 v=0
7648 On ch=1 n=86 v=55
7652 On ch=1 n=86 v=0
7656 On ch=1 n=84 v=58
7660 On ch=1 n=84 v=0
7664 On ch=1 n=82 v=63
7668 On ch=1 n=82 v=0
7672 On ch=1 n=79 v=60
7676 On ch=1 n=79 v=0
7676 On ch=1 n=69 v=44
7678 On ch=1 n=72 v=48
7680 On ch=1 n=69 v=0
7680 On ch=1 n=77 v=55
7682 On ch=1 n=72 v=0
7752 On ch=1 n=79 v=57
7754 On ch=1 n=77 v=0
7759 On ch=1 n=77 v=49
7761 On ch=1 n=79 v=0
7764 On ch=1 n=76 v=52
7766 On ch=1 n=77 v=0
7770 On ch=1 n=77 v=47
7772 On ch=1 n=76 v=0
7776 On ch=1 n=81 v=49
7778 On ch=1 n=77 v=0
7812 On ch=1 n=79 v=52
7814 On ch=1 n=81 v=0
7824 On ch=1 n=82 v=46
7826 On ch=1 n=79 v=0
7860 On ch=1 n=79 v=49
7862 On ch=1 n=82 v=0
7872 On ch=1 n=77 v=52
7874 On ch=1 n=79 v=0
7932 On ch=1 n=76 v=57
7934 On ch=1 n=77 v=0
7944 On ch=1 n=79 v=49
7946 On ch=1 n=76 v=0
7956 On ch=1 n=76 v=51
7958 On ch=1 n=79 v=0
7968 On ch=1 n=72 v=46
7970 On ch=1 n=76 v=0
8016 On ch=1 n=72 v=0
8040 On ch=1 n=72 v=60
8064 On ch=1 n=72 v=0
8064 On ch=1 n=72 v=57
8066 On ch=1 n=77 v=66
8109 On ch=1 n=81 v=55
8112 On ch=1 n=72 v=0
8112 On ch=1 n=79 v=60
8112 On ch=1 n=72 v=38
8113 On ch=1 n=81 v=0
8114 On ch=1 n=77 v=0
8124 On ch=1 n=78 v=63
8126 On ch=1 n=79 v=0
8136 On ch=1 n=79 v=58
8138 On ch=1 n=78 v=0
8148 On ch=1 n=80 v=52
8150 On ch=1 n=79 v=0
8160 On ch=1 n=72 v=0
8160 On ch=1 n=72 v=33
8162 On ch=1 n=80 v=0
8162 On ch=1 n=81 v=55
8205 On ch=1 n=84 v=49
8208 On ch=1 n=72 v=0
8208 On ch=1 n=82 v=57
8208 On ch=1 n=74 v=35
8209 On ch=1 n=84 v=0
8210 On ch=1 n=81 v=0
8220 On ch=1 n=81 v=60
8222 On ch=1 n=82 v=0
8232 On ch=1 n=82 v=55
8234 On ch=1 n=81 v=0
8244 On ch=1 n=86 v=49
8246 On ch=1 n=82 v=0
8251 On ch=1 n=72 v=33
8254 On ch=1 n=77 v=27
8256 On ch=1 n=74 v=0
8256 On ch=1 n=81 v=52
8258 On ch=1 n=86 v=0
8316 On ch=1 n=82 v=55
8318 On ch=1 n=81 v=0
8328 On ch=1 n=83 v=57
8330 On ch=1 n=82 v=0
8340 On ch=1 n=84 v=59
8342 On ch=1 n=83 v=0
8347 On ch=1 n=72 v=0
8350 On ch=1 n=77 v=0
8352 On ch=1 n=79 v=52
8352 On ch=1 n=76 v=38
8352 On ch=1 n=72 v=22
8354 On ch=1 n=84 v=0
8400 On ch=1 n=79 v=0
8400 On ch=1 n=76 v=0
8400 On ch=1 n=72 v=0
8424 On ch=1 n=72 v=66
8448 On ch=1 n=72 v=0
8448 On ch=1 n=82 v=77
8448 On ch=1 n=76 v=68
8448 On ch=1 n=72 v=49
8520 On ch=1 n=79 v=71
8522 On ch=1 n=76 v=0
8522 On ch=1 n=82 v=0
8526 On ch=1 n=81 v=63
8527 On ch=1 n=79 v=0
8530 On ch=1 n=79 v=67
8531 On ch=1 n=81 v=0
8534 On ch=1 n=78 v=69
8535 On ch=1 n=79 v=0
8539 On ch=1 n=79 v=66
8540 On ch=1 n=78 v=0
8544 On ch=1 n=76 v=71
8545 On ch=1 n=79 v=0
8554 On ch=1 n=76 v=0
8554 On ch=1 n=72 v=0
8568 On ch=1 n=77 v=57
8568 On ch=1 n=72 v=41
8592 On ch=1 n=72 v=0
8592 On ch=1 n=76 v=60
8592 On ch=1 n=72 v=44
8594 On ch=1 n=77 v=0
8616 On ch=1 n=72 v=0
8616 On ch=1 n=77 v=62
8616 On ch=1 n=72 v=49
8618 On ch=1 n=76 v=0
8640 On ch=1 n=72 v=0
8640 On ch=1 n=82 v=66
8640 On ch=1 n=76 v=57
8640 On ch=1 n=72 v=38
8642 On ch=1 n=77 v=0
8712 On ch=1 n=79 v=60
8714 On ch=1 n=82 v=0
8714 On ch=1 n=76 v=0
8718 On ch=1 n=81 v=52
8719 On ch=1 n=79 v=0
8722 On ch=1 n=79 v=56
8723 On ch=1 n=81 v=0
8726 On ch=1 n=78 v=58
8727 On ch=1 n=79 v=0
8731 On ch=1 n=79 v=55
8732 On ch=1 n=78 v=0
8736 On ch=1 n=76 v=60
8737 On ch=1 n=79 v=0
8748 On ch=1 n=76 v=0
8748 On ch=1 n=72 v=0
8760 On ch=1 n=84 v=46
8760 On ch=1 n=72 v=30
8784 On ch=1 n=83 v=44
8784 On ch=1 n=71 v=27
8786 On ch=1 n=72 v=0
8786 On ch=1 n=84 v=0
8808 On ch=1 n=84 v=50
8808 On ch=1 n=72 v=34
8810 On ch=1 n=83 v=0
8810 On ch=1 n=71 v=0
8832 On ch=1 n=86 v=55
8832 On ch=1 n=74 v=38
8834 On ch=1 n=84 v=0
8834 On ch=1 n=72 v=0
8892 On ch=1 n=88 v=49
8894 On ch=1 n=86 v=0
8894 On ch=1 n=74 v=0
8896 On ch=1 n=86 v=44
8897 On ch=1 n=88 v=0
8899 On ch=1 n=85 v=46
8900 On ch=1 n=86 v=0
8901 On ch=1 n=86 v=49
8903 On ch=1 n=85 v=0
8904 On ch=1 n=88 v=55
8905 On ch=1 n=86 v=0
8914 On ch=1 n=88 v=0
8916 On ch=1 n=89 v=60
8924 On ch=1 n=89 v=0
8928 On ch=1 n=77 v=66
8928 On ch=1 n=72 v=38
8928 On ch=1 n=69 v=46
9000 On ch=1 n=81 v=58
9000 On ch=1 n=76 v=44
9000 On ch=1 n=70 v=52
9002 On ch=1 n=69 v=0
9002 On ch=1 n=77 v=0
9002 On ch=1 n=72 v=0
9012 On ch=1 n=79 v=62
9014 On ch=1 n=81 v=0
9024 On ch=1 n=70 v=0
9024 On ch=1 n=76 v=0
9024 On ch=1 n=79 v=0
9024 On ch=1 n=79 v=60
9024 On ch=1 n=76 v=46
9024 On ch=1 n=70 v=49
9096 On ch=1 n=84 v=52
9098 On ch=1 n=70 v=0
9098 On ch=1 n=79 v=0
9098 On ch=1 n=76 v=0
9108 On ch=1 n=76 v=57
9110 On ch=1 n=84 v=0
9120 On ch=1 n=77 v=49
9120 On ch=1 n=72 v=27
9120 On ch=1 n=69 v=35
9122 On ch=1 n=76 v=0
9144 On ch=1 n=77 v=0
9144 On ch=1 n=72 v=0
9144 On ch=1 n=69 v=0
9216 On ch=1 n=77 v=74
9216 On ch=1 n=69 v=44
9216 On ch=1 n=65 v=57
9312 On ch=1 n=65 v=0
9312 On ch=1 n=69 v=0
9312 On ch=1 n=77 v=0
9312 On ch=1 n=81 v=79
9312 On ch=1 n=74 v=49
9312 On ch=1 n=69 v=71
9348 On ch=1 n=79 v=82
9348 On ch=1 n=67 v=74
9350 On ch=1 n=69 v=0
9350 On ch=1 n=81 v=0
9350 On ch=1 n=74 v=0
9360 On ch=1 n=82 v=68
9360 On ch=1 n=74 v=44
9360 On ch=1 n=70 v=60
9362 On ch=1 n=79 v=0
9362 On ch=1 n=67 v=0
9396 On ch=1 n=79 v=71
9396 On ch=1 n=67 v=62
9398 On ch=1 n=74 v=0
9398 On ch=1 n=70 v=0
9398 On ch=1 n=82 v=0
9408 On ch=1 n=77 v=74
9408 On ch=1 n=72 v=49
9408 On ch=1 n=65 v=58
9410 On ch=1 n=79 v=0
9410 On ch=1 n=67 v=0
9468 On ch=1 n=76 v=79
9468 On ch=1 n=64 v=66
9470 On ch=1 n=72 v=0
9470 On ch=1 n=65 v=0
9470 On ch=1 n=77 v=0
9480 On ch=1 n=79 v=71
9480 On ch=1 n=67 v=58
9482 On ch=1 n=76 v=0
9482 On ch=1 n=64 v=0
9492 On ch=1 n=76 v=73
9492 On ch=1 n=64 v=60
9494 On ch=1 n=79 v=0
9494 On ch=1 n=67 v=0
9502 On ch=1 n=60 v=49
9504 On ch=1 n=72 v=68
9506 On ch=1 n=76 v=0
9506 On ch=1 n=64 v=0
9550 On ch=1 n=60 v=0
9552 On ch=1 n=72 v=0
9576 On ch=1 n=72 v=82
9600 On ch=1 n=65 v=55
9602 On ch=1 n=72 v=0
9602 On ch=1 n=77 v=88
9645 On ch=1 n=81 v=66
9648 On ch=1 n=65 v=0
9648 On ch=1 n=79 v=82
9648 On ch=1 n=67 v=66
9649 On ch=1 n=81 v=0
9650 On ch=1 n=77 v=0
9660 On ch=1 n=78 v=85
9660 On ch=1 n=66 v=69
9662 On ch=1 n=79 v=0
9662 On ch=1 n=67 v=0
9672 On ch=1 n=79 v=80
9672 On ch=1 n=67 v=63
9674 On ch=1 n=78 v=0
9674 On ch=1 n=66 v=0
9684 On ch=1 n=80 v=74
9684 On ch=1 n=68 v=58
9686 On ch=1 n=79 v=0
9686 On ch=1 n=67 v=0
9696 On ch=1 n=81 v=77
9696 On ch=1 n=69 v=55
9698 On ch=1 n=80 v=0
9698 On ch=1 n=68 v=0
9741 On ch=1 n=84 v=66
9744 On ch=1 n=81 v=0
9744 On ch=1 n=69 v=0
9744 On ch=1 n=82 v=79
9744 On ch=1 n=70 v=57
9745 On ch=1 n=84 v=0
9756 On ch=1 n=81 v=82
9756 On ch=1 n=69 v=60
9758 On ch=1 n=70 v=0
9758 On ch=1 n=82 v=0
9768 On ch=1 n=82 v=77
9768 On ch=1 n=70 v=62
9770 On ch=1 n=81 v=0
9770 On ch=1 n=69 v=0
9780 On ch=1 n=86 v=71
9780 On ch=1 n=74 v=57
9782 On ch=1 n=82 v=0
9782 On ch=1 n=70 v=0
9792 On ch=1 n=81 v=74
9792 On ch=1 n=77 v=44
9792 On ch=1 n=69 v=60
9794 On ch=1 n=86 v=0
9794 On ch=1 n=74 v=0
9852 On ch=1 n=82 v=77
9852 On ch=1 n=70 v=62
9854 On ch=1 n=77 v=0
9854 On ch=1 n=69 v=0
9854 On ch=1 n=81 v=0
9864 On ch=1 n=83 v=71
9864 On ch=1 n=71 v=57
9866 On ch=1 n=82 v=0
9866 On ch=1 n=70 v=0
9876 On ch=1 n=84 v=69
9876 On ch=1 n=72 v=56
9878 On ch=1 n=83 v=0
9878 On ch=1 n=71 v=0
9888 On ch=1 n=79 v=66
9888 On ch=1 n=76 v=35
9888 On ch=1 n=67 v=55
9890 On ch=1 n=84 v=0
9890 On ch=1 n=72 v=0
9936 On ch=1 n=76 v=0
9936 On ch=1 n=79 v=0
9936 On ch=1 n=67 v=0
9960 On ch=1 n=72 v=88
9984 On ch=1 n=72 v=0
9984 On ch=1 n=82 v=99
9984 On ch=1 n=79 v=82
9984 On ch=1 n=76 v=90
9984 On ch=1 n=72 v=71
10056 On ch=1 n=79 v=0
10056 On ch=1 n=79 v=93
10058 On ch=1 n=82 v=0
10058 On ch=1 n=72 v=0
10058 On ch=1 n=76 v=0
10061 On ch=1 n=81 v=77
10063 On ch=1 n=79 v=0
10064 On ch=1 n=79 v=66
10065 On ch=1 n=81 v=0
10067 On ch=1 n=81 v=69
10068 On ch=1 n=79 v=0
10070 On ch=1 n=79 v=72
10071 On ch=1 n=81 v=0
10073 On ch=1 n=78 v=74
10074 On ch=1 n=79 v=0
10076 On ch=1 n=79 v=77
10077 On ch=1 n=78 v=0
10080 On ch=1 n=79 v=0
10080 On ch=1 n=76 v=93
10080 On ch=1 n=72 v=77
10090 On ch=1 n=72 v=0
10090 On ch=1 n=76 v=0
10104 On ch=1 n=77 v=90
10104 On ch=1 n=65 v=74
10128 On ch=1 n=76 v=93
10128 On ch=1 n=64 v=77
10130 On ch=1 n=65 v=0
10130 On ch=1 n=77 v=0
10152 On ch=1 n=77 v=88
10152 On ch=1 n=65 v=71
10154 On ch=1 n=76 v=0
10154 On ch=1 n=64 v=0
10176 On ch=1 n=82 v=93
10176 On ch=1 n=79 v=66
10176 On ch=1 n=76 v=84
10176 On ch=1 n=72 v=71
10178 On ch=1 n=77 v=0
10178 On ch=1 n=65 v=0
10248 On ch=1 n=79 v=0
10248 On ch=1 n=79 v=88
10250 On ch=1 n=82 v=0
10250 On ch=1 n=76 v=0
10250 On ch=1 n=72 v=0
10253 On ch=1 n=81 v=74
10255 On ch=1 n=79 v=0
10256 On ch=1 n=79 v=66
10257 On ch=1 n=81 v=0
10259 On ch=1 n=81 v=68
10260 On ch=1 n=79 v=0
10262 On ch=1 n=79 v=70
10263 On ch=1 n=81 v=0
10265 On ch=1 n=78 v=72
10266 On ch=1 n=79 v=0
10268 On ch=1 n=79 v=74
10269 On ch=1 n=78 v=0
10272 On ch=1 n=76 v=88
10272 On ch=1 n=72 v=66
10273 On ch=1 n=79 v=0
10284 On ch=1 n=72 v=0
10284 On ch=1 n=76 v=0
10296 On ch=1 n=84 v=73
10296 On ch=1 n=77 v=49
10296 On ch=1 n=72 v=58
10320 On ch=1 n=77 v=0
10320 On ch=1 n=83 v=82
10320 On ch=1 n=77 v=52
10320 On ch=1 n=71 v=66
10322 On ch=1 n=72 v=0
10322 On ch=1 n=84 v=0
10344 On ch=1 n=77 v=0
10344 On ch=1 n=84 v=78
10344 On ch=1 n=77 v=47
10344 On ch=1 n=72 v=61
10346 On ch=1 n=83 v=0
10346 On ch=1 n=71 v=0
10368 On ch=1 n=77 v=0
10368 On ch=1 n=86 v=71
10368 On ch=1 n=77 v=44
10368 On ch=1 n=74 v=55
10370 On ch=1 n=84 v=0
10370 On ch=1 n=72 v=0
10426 On ch=1 n=77 v=0
10426 On ch=1 n=86 v=0
10426 On ch=1 n=74 v=0
10428 On ch=1 n=86 v=77
10428 On ch=1 n=74 v=60
10434 On ch=1 n=74 v=0
10434 On ch=1 n=86 v=0
10440 On ch=1 n=88 v=69
10440 On ch=1 n=76 v=57
10445 On ch=1 n=76 v=0
10445 On ch=1 n=88 v=0
10452 On ch=1 n=89 v=66
10452 On ch=1 n=77 v=55
10458 On ch=1 n=77 v=0
10458 On ch=1 n=89 v=0
10464 On ch=1 n=77 v=71
10464 On ch=1 n=65 v=66
10512 On ch=1 n=81 v=74
10512 On ch=1 n=69 v=60
10514 On ch=1 n=65 v=0
10514 On ch=1 n=77 v=0
10548 On ch=1 n=79 v=68
10548 On ch=1 n=67 v=51
10550 On ch=1 n=81 v=0
10550 On ch=1 n=69 v=0
10560 On ch=1 n=79 v=0
10560 On ch=1 n=67 v=0
10560 On ch=1 n=77 v=66
10560 On ch=1 n=65 v=47
10600 On ch=1 n=65 v=0
10600 On ch=1 n=77 v=0
10608 On ch=1 n=69 v=110
10650 On ch=1 n=69 v=0
10650 On ch=1 n=69 v=104
10656 On ch=1 n=62 v=115
10658 On ch=1 n=69 v=0
10696 On ch=1 n=62 v=0
10704 On ch=1 n=86 v=110
10704 On ch=1 n=74 v=88
10746 On ch=1 n=74 v=0
10746 On ch=1 n=86 v=0
10746 On ch=1 n=86 v=104
10746 On ch=1 n=74 v=85
10752 On ch=1 n=79 v=115
10752 On ch=1 n=67 v=82
10754 On ch=1 n=74 v=0
10754 On ch=1 n=86 v=0
10792 On ch=1 n=79 v=0
10792 On ch=1 n=67 v=0
10800 On ch=1 n=82 v=110
10800 On ch=1 n=70 v=88
10842 On ch=1 n=70 v=0
10842 On ch=1 n=82 v=0
10842 On ch=1 n=82 v=104
10842 On ch=1 n=70 v=82
10848 On ch=1 n=82 v=0
10848 On ch=1 n=88 v=115
10848 On ch=1 n=82 v=66
10848 On ch=1 n=76 v=88
10850 On ch=1 n=70 v=0
10888 On ch=1 n=88 v=0
10888 On ch=1 n=82 v=0
10888 On ch=1 n=76 v=0
10896 On ch=1 n=89 v=104
10896 On ch=1 n=80 v=63
10896 On ch=1 n=77 v=77
10932 On ch=1 n=77 v=0
10932 On ch=1 n=80 v=0
10932 On ch=1 n=89 v=0
10944 On ch=1 n=79 v=88
10944 On ch=1 n=77 v=71
10944 On ch=1 n=73 v=49
10944 On ch=1 n=67 v=77
10992 On ch=1 n=74 v=49
10994 On ch=1 n=73 v=0
11004 On ch=1 n=80 v=90
11004 On ch=1 n=68 v=74
11006 On ch=1 n=67 v=0
11006 On ch=1 n=74 v=0
11006 On ch=1 n=79 v=0
11006 On ch=1 n=77 v=0
11016 On ch=1 n=82 v=83
11016 On ch=1 n=70 v=72
11018 On ch=1 n=68 v=0
11018 On ch=1 n=80 v=0
11028 On ch=1 n=85 v=80
11028 On ch=1 n=73 v=70
11030 On ch=1 n=82 v=0
11030 On ch=1 n=70 v=0
11038 On ch=1 n=85 v=0
11038 On ch=1 n=73 v=0
11040 On ch=1 n=85 v=74
11040 On ch=1 n=73 v=66
11052 On ch=1 n=84 v=79
11052 On ch=1 n=72 v=68
11054 On ch=1 n=73 v=0
11054 On ch=1 n=85 v=0
11064 On ch=1 n=82 v=82
11064 On ch=1 n=70 v=70
11066 On ch=1 n=84 v=0
11066 On ch=1 n=72 v=0
11076 On ch=1 n=80 v=84
11076 On ch=1 n=68 v=72
11078 On ch=1 n=82 v=0
11078 On ch=1 n=70 v=0
11086 On ch=1 n=80 v=0
11086 On ch=1 n=68 v=0
11088 On ch=1 n=80 v=81
11088 On ch=1 n=68 v=69
11100 On ch=1 n=79 v=83
11100 On ch=1 n=67 v=71
11102 On ch=1 n=68 v=0
11102 On ch=1 n=80 v=0
11112 On ch=1 n=82 v=79
11112 On ch=1 n=70 v=63
11114 On ch=1 n=79 v=0
11114 On ch=1 n=67 v=0
11124 On ch=1 n=76 v=82
11124 On ch=1 n=64 v=66
11126 On ch=1 n=82 v=0
11126 On ch=1 n=70 v=0
11133 On ch=1 n=77 v=99
11136 On ch=1 n=89 v=126
11138 On ch=1 n=76 v=0
11138 On ch=1 n=64 v=0
11229 On ch=1 n=77 v=0
11232 On ch=1 n=84 v=77
11232 On ch=1 n=72 v=60
11234 On ch=1 n=89 v=0
11304 On ch=1 n=80 v=66
11304 On ch=1 n=68 v=49
11306 On ch=1 n=72 v=0
11306 On ch=1 n=84 v=0
11316 On ch=1 n=77 v=68
11316 On ch=1 n=65 v=52
11318 On ch=1 n=80 v=0
11318 On ch=1 n=68 v=0
11328 On ch=1 n=76 v=71
11328 On ch=1 n=64 v=55
11330 On ch=1 n=77 v=0
11330 On ch=1 n=65 v=0
11364 On ch=1 n=77 v=68
11364 On ch=1 n=65 v=52
11366 On ch=1 n=76 v=0
11366 On ch=1 n=64 v=0
11374 On ch=1 n=77 v=0
11374 On ch=1 n=65 v=0
11376 On ch=1 n=79 v=73
11376 On ch=1 n=67 v=57
11412 On ch=1 n=80 v=79
11412 On ch=1 n=68 v=63
11414 On ch=1 n=67 v=0
11414 On ch=1 n=79 v=0
11422 On ch=1 n=80 v=0
11422 On ch=1 n=68 v=0
11424 On ch=1 n=82 v=84
11424 On ch=1 n=70 v=68
11460 On ch=1 n=84 v=95
11460 On ch=1 n=72 v=80
11462 On ch=1 n=70 v=0
11462 On ch=1 n=82 v=0
11470 On ch=1 n=84 v=0
11470 On ch=1 n=72 v=0
11472 On ch=1 n=85 v=92
11472 On ch=1 n=73 v=75
11508 On ch=1 n=76 v=86
11508 On ch=1 n=64 v=71
11510 On ch=1 n=73 v=0
11510 On ch=1 n=85 v=0
11517 On ch=1 n=65 v=77
11518 On ch=1 n=76 v=0
11518 On ch=1 n=64 v=0
11520 On ch=1 n=77 v=93
11522 On ch=1 n=65 v=0
11568 On ch=1 n=65 v=85
11570 On ch=1 n=77 v=0
11614 On ch=1 n=68 v=66
11616 On ch=1 n=72 v=72
11617 On ch=1 n=80 v=90
11618 On ch=1 n=65 v=0
11674 On ch=1 n=68 v=0
11674 On ch=1 n=72 v=0
11674 On ch=1 n=80 v=0
11676 On ch=1 n=79 v=99
11682 On ch=1 n=80 v=95
11684 On ch=1 n=79 v=0
11688 On ch=1 n=82 v=90
11690 On ch=1 n=80 v=0
11694 On ch=1 n=82 v=0
11700 On ch=1 n=80 v=93
11706 On ch=1 n=80 v=0
11710 On ch=1 n=68 v=66
11712 On ch=1 n=72 v=74
11714 On ch=1 n=68 v=0
11714 On ch=1 n=78 v=93
11716 On ch=1 n=72 v=0
11718 On ch=1 n=78 v=0
11721 On ch=1 n=77 v=96
11724 On ch=1 n=77 v=0
11728 On ch=1 n=78 v=92
11731 On ch=1 n=78 v=0
11736 On ch=1 n=82 v=88
11739 On ch=1 n=82 v=0
11744 On ch=1 n=80 v=83
11747 On ch=1 n=80 v=0
11752 On ch=1 n=78 v=80
11755 On ch=1 n=78 v=0
11760 On ch=1 n=77 v=83
11763 On ch=1 n=77 v=0
11768 On ch=1 n=75 v=85
11771 On ch=1 n=75 v=0
11776 On ch=1 n=73 v=88
11779 On ch=1 n=73 v=0
11784 On ch=1 n=72 v=84
11787 On ch=1 n=72 v=0
11792 On ch=1 n=70 v=81
11795 On ch=1 n=70 v=0
11800 On ch=1 n=68 v=74
11803 On ch=1 n=68 v=0
11808 On ch=1 n=67 v=77
11811 On ch=1 n=67 v=0
11816 On ch=1 n=68 v=79
11819 On ch=1 n=68 v=0
11824 On ch=1 n=70 v=81
11827 On ch=1 n=70 v=0
11832 On ch=1 n=72 v=83
11835 On ch=1 n=72 v=0
11840 On ch=1 n=73 v=83
11843 On ch=1 n=73 v=0
11848 On ch=1 n=75 v=80
11851 On ch=1 n=75 v=0
11856 On ch=1 n=77 v=77
11859 On ch=1 n=77 v=0
11864 On ch=1 n=78 v=73
11867 On ch=1 n=78 v=0
11872 On ch=1 n=75 v=75
11875 On ch=1 n=75 v=0
11880 On ch=1 n=72 v=78
11883 On ch=1 n=72 v=0
11888 On ch=1 n=68 v=80
11891 On ch=1 n=68 v=0
11896 On ch=1 n=66 v=82
11899 On ch=1 n=66 v=0
11904 On ch=1 n=65 v=85
11907 On ch=1 n=65 v=0
11913 On ch=1 n=61 v=83
11916 On ch=1 n=61 v=0
11920 On ch=1 n=63 v=81
11923 On ch=1 n=63 v=0
11928 On ch=1 n=65 v=79
11931 On ch=1 n=65 v=0
11936 On ch=1 n=66 v=77
11939 On ch=1 n=66 v=0
11944 On ch=1 n=68 v=74
11947 On ch=1 n=68 v=0
11952 On ch=1 n=70 v=78
11955 On ch=1 n=70 v=0
11960 On ch=1 n=72 v=81
11963 On ch=1 n=72 v=0
11968 On ch=1 n=73 v=83
11971 On ch=1 n=73 v=0
11976 On ch=1 n=75 v=84
11979 On ch=1 n=75 v=0
11984 On ch=1 n=77 v=85
11987 On ch=1 n=77 v=0
11992 On ch=1 n=78 v=86
11995 On ch=1 n=78 v=0
12000 On ch=1 n=80 v=88
12003 On ch=1 n=80 v=0
12008 On ch=1 n=82 v=84
12011 On ch=1 n=82 v=0
12016 On ch=1 n=84 v=81
12019 On ch=1 n=84 v=0
12024 On ch=1 n=85 v=78
12027 On ch=1 n=85 v=0
12032 On ch=1 n=87 v=74
12035 On ch=1 n=87 v=0
12040 On ch=1 n=88 v=71
12043 On ch=1 n=88 v=0
12048 On ch=1 n=89 v=66
12060 On ch=1 n=89 v=0
12072 On ch=1 n=57 v=88
12082 On ch=1 n=57 v=0
12096 On ch=1 n=58 v=79
12110 On ch=1 n=58 v=0
12120 On ch=1 n=82 v=77
12123 On ch=1 n=82 v=0
12129 On ch=1 n=81 v=72
12132 On ch=1 n=81 v=0
12136 On ch=1 n=82 v=66
12139 On ch=1 n=82 v=0
12144 On ch=1 n=75 v=79
12147 On ch=1 n=75 v=0
12152 On ch=1 n=74 v=74
12155 On ch=1 n=74 v=0
12160 On ch=1 n=75 v=68
12163 On ch=1 n=75 v=0
12168 On ch=1 n=78 v=73
12171 On ch=1 n=78 v=0
12176 On ch=1 n=77 v=69
12179 On ch=1 n=77 v=0
12184 On ch=1 n=78 v=62
12187 On ch=1 n=78 v=0
12192 On ch=1 n=72 v=75
12195 On ch=1 n=72 v=0
12200 On ch=1 n=71 v=71
12203 On ch=1 n=71 v=0
12208 On ch=1 n=72 v=64
12211 On ch=1 n=72 v=0
12216 On ch=1 n=75 v=69
12219 On ch=1 n=75 v=0
12224 On ch=1 n=74 v=75
12227 On ch=1 n=74 v=0
12232 On ch=1 n=75 v=69
12235 On ch=1 n=75 v=0
12240 On ch=1 n=66 v=66
12243 On ch=1 n=66 v=0
12248 On ch=1 n=70 v=60
12251 On ch=1 n=70 v=0
12256 On ch=1 n=68 v=62
12259 On ch=1 n=68 v=0
12264 On ch=1 n=66 v=64
12267 On ch=1 n=66 v=0
12272 On ch=1 n=65 v=58
12275 On ch=1 n=65 v=0
12279 On ch=1 n=63 v=55
12282 On ch=1 n=63 v=0
12284 On ch=1 n=53 v=55
12286 On ch=1 n=56 v=59
12288 On ch=1 n=53 v=0
12288 On ch=1 n=61 v=66
12290 On ch=1 n=56 v=0
12384 On ch=1 n=65 v=60
12386 On ch=1 n=61 v=0
12426 On ch=1 n=63 v=63
12428 On ch=1 n=65 v=0
12432 On ch=1 n=66 v=57
12434 On ch=1 n=63 v=0
12474 On ch=1 n=63 v=60
12476 On ch=1 n=66 v=0
12480 On ch=1 n=61 v=63
12482 On ch=1 n=63 v=0
12540 On ch=1 n=60 v=68
12542 On ch=1 n=61 v=0
12552 On ch=1 n=63 v=60
12554 On ch=1 n=60 v=0
12564 On ch=1 n=60 v=62
12566 On ch=1 n=63 v=0
12576 On ch=1 n=56 v=57
12578 On ch=1 n=60 v=0
12596 On ch=1 n=56 v=0
12624 On ch=1 n=75 v=77
12624 On ch=1 n=63 v=60
12722 On ch=1 n=63 v=0
12732 On ch=1 n=74 v=79
12734 On ch=1 n=75 v=0
12744 On ch=1 n=77 v=71
12746 On ch=1 n=74 v=0
12756 On ch=1 n=74 v=74
12758 On ch=1 n=77 v=0
12768 On ch=1 n=70 v=77
12768 On ch=1 n=63 v=66
12770 On ch=1 n=74 v=0
12780 On ch=1 n=62 v=71
12782 On ch=1 n=63 v=0
12792 On ch=1 n=65 v=60
12794 On ch=1 n=62 v=0
12804 On ch=1 n=62 v=63
12806 On ch=1 n=65 v=0
12810 On ch=1 n=70 v=0
12816 On ch=1 n=77 v=88
12816 On ch=1 n=65 v=71
12818 On ch=1 n=62 v=0
12914 On ch=1 n=65 v=0
12924 On ch=1 n=76 v=90
12926 On ch=1 n=77 v=0
12936 On ch=1 n=79 v=82
12938 On ch=1 n=76 v=0
12948 On ch=1 n=76 v=85
12950 On ch=1 n=79 v=0
12960 On ch=1 n=72 v=88
12960 On ch=1 n=65 v=77
12962 On ch=1 n=76 v=0
12972 On ch=1 n=64 v=82
12974 On ch=1 n=65 v=0
12984 On ch=1 n=67 v=71
12986 On ch=1 n=64 v=0
12996 On ch=1 n=64 v=74
12998 On ch=1 n=67 v=0
13002 On ch=1 n=72 v=0
13008 On ch=1 n=64 v=0
13008 On ch=1 n=72 v=77
13008 On ch=1 n=64 v=66
13008 On ch=1 n=60 v=60
13028 On ch=1 n=60 v=0
13028 On ch=1 n=72 v=0
13032 On ch=1 n=72 v=110
13032 On ch=1 n=60 v=82
13056 On ch=1 n=72 v=0
13056 On ch=1 n=64 v=0
13056 On ch=1 n=84 v=115
13056 On ch=1 n=77 v=77
13056 On ch=1 n=72 v=104
13058 On ch=1 n=60 v=0
13116 On ch=1 n=80 v=106
13116 On ch=1 n=68 v=84
13118 On ch=1 n=84 v=0
13118 On ch=1 n=72 v=0
13118 On ch=1 n=77 v=0
13128 On ch=1 n=84 v=99
13128 On ch=1 n=72 v=77
13130 On ch=1 n=80 v=0
13130 On ch=1 n=68 v=0
13140 On ch=1 n=80 v=94
13140 On ch=1 n=68 v=72
13142 On ch=1 n=84 v=0
13142 On ch=1 n=72 v=0
13152 On ch=1 n=79 v=99
13152 On ch=1 n=67 v=77
13154 On ch=1 n=80 v=0
13154 On ch=1 n=68 v=0
13164 On ch=1 n=77 v=102
13164 On ch=1 n=65 v=80
13166 On ch=1 n=79 v=0
13166 On ch=1 n=67 v=0
13176 On ch=1 n=80 v=105
13176 On ch=1 n=68 v=83
13178 On ch=1 n=77 v=0
13178 On ch=1 n=65 v=0
13188 On ch=1 n=77 v=108
13188 On ch=1 n=65 v=86
13190 On ch=1 n=80 v=0
13190 On ch=1 n=68 v=0
13200 On ch=1 n=75 v=112
13200 On ch=1 n=63 v=90
13202 On ch=1 n=77 v=0
13202 On ch=1 n=65 v=0
13212 On ch=1 n=73 v=115
13212 On ch=1 n=61 v=93
13214 On ch=1 n=75 v=0
13214 On ch=1 n=63 v=0
13224 On ch=1 n=72 v=118
13224 On ch=1 n=60 v=96
13226 On ch=1 n=73 v=0
13226 On ch=1 n=61 v=0
13236 On ch=1 n=71 v=122
13236 On ch=1 n=59 v=100
13238 On ch=1 n=72 v=0
13238 On ch=1 n=60 v=0
13248 On ch=1 n=72 v=126
13248 On ch=1 n=60 v=104
13250 On ch=1 n=71 v=0
13250 On ch=1 n=59 v=0
13254 On ch=1 n=72 v=0
13254 On ch=1 n=60 v=0
13260 On ch=1 n=55 v=127
13264 On ch=1 n=55 v=0
13272 On ch=1 n=60 v=126
13276 On ch=1 n=60 v=0
13284 On ch=1 n=64 v=122
13288 On ch=1 n=64 v=0
13296 On ch=1 n=67 v=127
13300 On ch=1 n=67 v=0
13308 On ch=1 n=64 v=117
13312 On ch=1 n=64 v=0
13320 On ch=1 n=67 v=121
13324 On ch=1 n=67 v=0
13332 On ch=1 n=64 v=107
13336 On ch=1 n=64 v=0
13344 On ch=1 n=72 v=110
13344 On ch=1 n=60 v=99
13350 On ch=1 n=60 v=0
13350 On ch=1 n=72 v=0
13356 On ch=1 n=67 v=121
13360 On ch=1 n=67 v=0
13368 On ch=1 n=72 v=115
13372 On ch=1 n=72 v=0
13380 On ch=1 n=76 v=111
13384 On ch=1 n=76 v=0
13392 On ch=1 n=79 v=118
13396 On ch=1 n=79 v=0
13404 On ch=1 n=76 v=106
13408 On ch=1 n=76 v=0
13416 On ch=1 n=79 v=110
13420 On ch=1 n=79 v=0
13428 On ch=1 n=76 v=96
13432 On ch=1 n=76 v=0
13440 On ch=1 n=72 v=99
13446 On ch=1 n=72 v=0
13452 On ch=1 n=60 v=126
13456 On ch=1 n=60 v=0
13464 On ch=1 n=64 v=121
13468 On ch=1 n=64 v=0
13476 On ch=1 n=67 v=116
13480 On ch=1 n=67 v=0
13488 On ch=1 n=72 v=124
13492 On ch=1 n=72 v=0
13500 On ch=1 n=67 v=112
13504 On ch=1 n=67 v=0
13512 On ch=1 n=72 v=115
13516 On ch=1 n=72 v=0
13524 On ch=1 n=67 v=102
13528 On ch=1 n=67 v=0
13536 On ch=1 n=79 v=104
13542 On ch=1 n=79 v=0
13548 On ch=1 n=72 v=115
13552 On ch=1 n=72 v=0
13560 On ch=1 n=76 v=110
13564 On ch=1 n=76 v=0
13572 On ch=1 n=79 v=105
13576 On ch=1 n=79 v=0
13584 On ch=1 n=84 v=113
13588 On ch=1 n=84 v=0
13596 On ch=1 n=79 v=101
13600 On ch=1 n=79 v=0
13608 On ch=1 n=84 v=104
13612 On ch=1 n=84 v=0
13620 On ch=1 n=79 v=91
13624 On ch=1 n=79 v=0
13632 On ch=1 n=76 v=93
13638 On ch=1 n=76 v=0
13644 On ch=1 n=64 v=115
13648 On ch=1 n=64 v=0
13656 On ch=1 n=67 v=110
13660 On ch=1 n=67 v=0
13668 On ch=1 n=72 v=105
13672 On ch=1 n=72 v=0
13680 On ch=1 n=76 v=113
13684 On ch=1 n=76 v=0
13692 On ch=1 n=72 v=101
13696 On ch=1 n=72 v=0
13704 On ch=1 n=76 v=104
13708 On ch=1 n=76 v=0
13716 On ch=1 n=72 v=91
13720 On ch=1 n=72 v=0
13728 On ch=1 n=76 v=93
13734 On ch=1 n=76 v=0
13740 On ch=1 n=67 v=104
13744 On ch=1 n=67 v=0
13752 On ch=1 n=72 v=99
13756 On ch=1 n=72 v=0
13764 On ch=1 n=76 v=94
13768 On ch=1 n=76 v=0
13776 On ch=1 n=79 v=102
13780 On ch=1 n=79 v=0
13788 On ch=1 n=76 v=90
13792 On ch=1 n=76 v=0
13800 On ch=1 n=79 v=93
13804 On ch=1 n=79 v=0
13812 On ch=1 n=76 v=80
13816 On ch=1 n=76 v=0
13824 On ch=1 n=84 v=82
13824 On ch=1 n=72 v=71
13830 On ch=1 n=72 v=0
13830 On ch=1 n=84 v=0
13836 On ch=1 n=76 v=99
13840 On ch=1 n=76 v=0
13848 On ch=1 n=79 v=93
13852 On ch=1 n=79 v=0
13860 On ch=1 n=84 v=89
13864 On ch=1 n=84 v=0
13872 On ch=1 n=88 v=96
13876 On ch=1 n=88 v=0
13884 On ch=1 n=84 v=84
13888 On ch=1 n=84 v=0
13896 On ch=1 n=88 v=88
13900 On ch=1 n=88 v=0
13908 On ch=1 n=84 v=74
13912 On ch=1 n=84 v=0
13920 On ch=1 n=88 v=77
13926 On ch=1 n=88 v=0
13932 On ch=1 n=79 v=88
13936 On ch=1 n=79 v=0
13944 On ch=1 n=84 v=82
13948 On ch=1 n=84 v=0
13956 On ch=1 n=88 v=78
13960 On ch=1 n=88 v=0
13968 On ch=1 n=91 v=85
13972 On ch=1 n=91 v=0
13980 On ch=1 n=88 v=73
13984 On ch=1 n=88 v=0
13992 On ch=1 n=91 v=77
13996 On ch=1 n=91 v=0
14004 On ch=1 n=88 v=63
14008 On ch=1 n=88 v=0
14016 On ch=1 n=84 v=66
14040 On ch=1 n=84 v=0
14064 On ch=1 n=67 v=63
14070 On ch=1 n=67 v=0
14076 On ch=1 n=64 v=51
14080 On ch=1 n=64 v=0
14088 On ch=1 n=67 v=55
14092 On ch=1 n=67 v=0
14100 On ch=1 n=64 v=41
14104 On ch=1 n=64 v=0
14112 On ch=1 n=60 v=44
14160 On ch=1 n=60 v=0
14208 On ch=1 n=79 v=41
14214 On ch=1 n=79 v=0
14220 On ch=1 n=76 v=29
14224 On ch=1 n=76 v=0
14232 On ch=1 n=79 v=33
14236 On ch=1 n=79 v=0
14244 On ch=1 n=76 v=22
14248 On ch=1 n=76 v=0
14256 On ch=1 n=79 v=36
14260 On ch=1 n=79 v=0
14268 On ch=1 n=76 v=24
14272 On ch=1 n=76 v=0
14280 On ch=1 n=79 v=39
14284 On ch=1 n=79 v=0
14292 On ch=1 n=76 v=26
14296 On ch=1 n=76 v=0
14304 On ch=1 n=80 v=41
14310 On ch=1 n=80 v=0
14316 On ch=1 n=77 v=29
14320 On ch=1 n=77 v=0
14328 On ch=1 n=80 v=44
14332 On ch=1 n=80 v=0
14340 On ch=1 n=77 v=33
14344 On ch=1 n=77 v=0
14352 On ch=1 n=81 v=47
14358 On ch=1 n=81 v=0
14364 On ch=1 n=78 v=35
14368 On ch=1 n=78 v=0
14376 On ch=1 n=81 v=50
14380 On ch=1 n=81 v=0
14388 On ch=1 n=78 v=37
14392 On ch=1 n=78 v=0
14400 On ch=1 n=82 v=52
14406 On ch=1 n=82 v=0
14412 On ch=1 n=79 v=40
14416 On ch=1 n=79 v=0
14424 On ch=1 n=82 v=44
14428 On ch=1 n=82 v=0
14436 On ch=1 n=79 v=33
14440 On ch=1 n=79 v=0
14448 On ch=1 n=82 v=47
14452 On ch=1 n=82 v=0
14460 On ch=1 n=79 v=35
14464 On ch=1 n=79 v=0
14472 On ch=1 n=82 v=50
14476 On ch=1 n=82 v=0
14484 On ch=1 n=79 v=37
14488 On ch=1 n=79 v=0
14496 On ch=1 n=84 v=52
14502 On ch=1 n=84 v=0
14508 On ch=1 n=81 v=40
14512 On ch=1 n=81 v=0
14520 On ch=1 n=84 v=55
14524 On ch=1 n=84 v=0
14532 On ch=1 n=81 v=44
14536 On ch=1 n=81 v=0
14544 On ch=1 n=85 v=58
14550 On ch=1 n=85 v=0
14556 On ch=1 n=81 v=46
14560 On ch=1 n=81 v=0
14568 On ch=1 n=85 v=61
14572 On ch=1 n=85 v=0
14580 On ch=1 n=81 v=48
14584 On ch=1 n=81 v=0
14592 On ch=1 n=86 v=66
14604 On ch=1 n=85 v=60
14606 On ch=1 n=86 v=0
14616 On ch=1 n=86 v=62
14618 On ch=1 n=85 v=0
14628 On ch=1 n=82 v=57
14630 On ch=1 n=86 v=0
14640 On ch=1 n=82 v=0
14640 On ch=1 n=84 v=60
14652 On ch=1 n=83 v=55
14654 On ch=1 n=84 v=0
14664 On ch=1 n=84 v=57
14666 On ch=1 n=83 v=0
14676 On ch=1 n=81 v=51
14678 On ch=1 n=84 v=0
14688 On ch=1 n=81 v=0
14688 On ch=1 n=82 v=55
14700 On ch=1 n=81 v=49
14702 On ch=1 n=82 v=0
14712 On ch=1 n=82 v=51
14714 On ch=1 n=81 v=0
14724 On ch=1 n=79 v=46
14726 On ch=1 n=82 v=0
14736 On ch=1 n=79 v=0
14736 On ch=1 n=81 v=49
14748 On ch=1 n=80 v=44
14750 On ch=1 n=81 v=0
14760 On ch=1 n=81 v=46
14762 On ch=1 n=80 v=0
14772 On ch=1 n=78 v=40
14774 On ch=1 n=81 v=0
14784 On ch=1 n=78 v=0
14784 On ch=1 n=79 v=49
14790 On ch=1 n=81 v=47
14792 On ch=1 n=79 v=0
14796 On ch=1 n=82 v=51
14798 On ch=1 n=81 v=0
14802 On ch=1 n=81 v=55
14804 On ch=1 n=82 v=0
14808 On ch=1 n=84 v=58
14810 On ch=1 n=81 v=0
14814 On ch=1 n=82 v=52
14816 On ch=1 n=84 v=0
14820 On ch=1 n=86 v=60
14822 On ch=1 n=82 v=0
14826 On ch=1 n=84 v=57
14828 On ch=1 n=86 v=0
14832 On ch=1 n=82 v=53
14834 On ch=1 n=84 v=0
14838 On ch=1 n=84 v=49
14840 On ch=1 n=82 v=0
14844 On ch=1 n=81 v=51
14846 On ch=1 n=84 v=0
14850 On ch=1 n=82 v=47
14852 On ch=1 n=81 v=0
14856 On ch=1 n=79 v=49
14858 On ch=1 n=82 v=0
14862 On ch=1 n=81 v=45
14864 On ch=1 n=79 v=0
14868 On ch=1 n=78 v=47
14870 On ch=1 n=81 v=0
14874 On ch=1 n=81 v=41
14876 On ch=1 n=78 v=0
14880 On ch=1 n=81 v=0
14880 On ch=1 n=79 v=38
14886 On ch=1 n=81 v=36
14888 On ch=1 n=79 v=0
14892 On ch=1 n=82 v=40
14894 On ch=1 n=81 v=0
14898 On ch=1 n=81 v=44
14900 On ch=1 n=82 v=0
14904 On ch=1 n=84 v=47
14906 On ch=1 n=81 v=0
14910 On ch=1 n=82 v=41
14912 On ch=1 n=84 v=0
14916 On ch=1 n=86 v=49
14918 On ch=1 n=82 v=0
14922 On ch=1 n=84 v=46
14924 On ch=1 n=86 v=0
14928 On ch=1 n=82 v=42
14930 On ch=1 n=84 v=0
14934 On ch=1 n=84 v=38
14936 On ch=1 n=82 v=0
14940 On ch=1 n=81 v=40
14942 On ch=1 n=84 v=0
14946 On ch=1 n=82 v=36
14948 On ch=1 n=81 v=0
14952 On ch=1 n=79 v=38
14954 On ch=1 n=82 v=0
14958 On ch=1 n=81 v=40
14960 On ch=1 n=79 v=0
14964 On ch=1 n=78 v=42
14966 On ch=1 n=81 v=0
14970 On ch=1 n=81 v=39
14972 On ch=1 n=78 v=0
14976 On ch=1 n=81 v=0
14976 On ch=1 n=79 v=44
14982 On ch=1 n=81 v=41
14984 On ch=1 n=79 v=0
14988 On ch=1 n=82 v=46
14990 On ch=1 n=81 v=0
14994 On ch=1 n=81 v=44
14996 On ch=1 n=82 v=0
15000 On ch=1 n=84 v=48
15002 On ch=1 n=81 v=0
15006 On ch=1 n=82 v=46
15008 On ch=1 n=84 v=0
15012 On ch=1 n=81 v=50
15014 On ch=1 n=82 v=0
15018 On ch=1 n=82 v=48
15020 On ch=1 n=81 v=0
15024 On ch=1 n=79 v=52
15026 On ch=1 n=82 v=0
15030 On ch=1 n=81 v=50
15032 On ch=1 n=79 v=0
15036 On ch=1 n=77 v=55
15038 On ch=1 n=81 v=0
15042 On ch=1 n=79 v=52
15044 On ch=1 n=77 v=0
15048 On ch=1 n=76 v=57
15050 On ch=1 n=79 v=0
15054 On ch=1 n=77 v=55
15056 On ch=1 n=76 v=0
15060 On ch=1 n=74 v=59
15062 On ch=1 n=77 v=0
15066 On ch=1 n=76 v=57
15068 On ch=1 n=74 v=0
15072 On ch=1 n=76 v=0
15072 On ch=1 n=72 v=60
15078 On ch=1 n=76 v=56
15080 On ch=1 n=72 v=0
15084 On ch=1 n=74 v=58
15086 On ch=1 n=76 v=0
15090 On ch=1 n=77 v=53
15092 On ch=1 n=74 v=0
15096 On ch=1 n=76 v=56
15098 On ch=1 n=77 v=0
15102 On ch=1 n=79 v=51
15104 On ch=1 n=76 v=0
15108 On ch=1 n=77 v=53
15110 On ch=1 n=79 v=0
15114 On ch=1 n=81 v=49
15116 On ch=1 n=77 v=0
15120 On ch=1 n=79 v=51
15122 On ch=1 n=81 v=0
15126 On ch=1 n=82 v=47
15128 On ch=1 n=79 v=0
15132 On ch=1 n=81 v=49
15134 On ch=1 n=82 v=0
15138 On ch=1 n=84 v=45
15140 On ch=1 n=81 v=0
15144 On ch=1 n=82 v=47
15146 On ch=1 n=84 v=0
15150 On ch=1 n=81 v=49
15152 On ch=1 n=82 v=0
15156 On ch=1 n=82 v=45
15158 On ch=1 n=81 v=0
15162 On ch=1 n=79 v=38
15164 On ch=1 n=82 v=0
15168 On ch=1 n=79 v=0
15168 On ch=1 n=69 v=38
15170 On ch=1 n=72 v=41
15172 On ch=1 n=77 v=55
15240 On ch=1 n=72 v=0
15240 On ch=1 n=69 v=0
15240 On ch=1 n=79 v=57
15242 On ch=1 n=77 v=0
15247 On ch=1 n=77 v=49
15249 On ch=1 n=79 v=0
15252 On ch=1 n=76 v=52
15254 On ch=1 n=77 v=0
15258 On ch=1 n=77 v=47
15260 On ch=1 n=76 v=0
15262 On ch=1 n=70 v=33
15264 On ch=1 n=74 v=36
15266 On ch=1 n=77 v=0
15266 On ch=1 n=81 v=49
15270 On ch=1 n=70 v=0
15272 On ch=1 n=74 v=0
15300 On ch=1 n=79 v=52
15302 On ch=1 n=81 v=0
15312 On ch=1 n=82 v=46
15314 On ch=1 n=79 v=0
15348 On ch=1 n=79 v=49
15350 On ch=1 n=82 v=0
15356 On ch=1 n=69 v=38
15358 On ch=1 n=72 v=41
15360 On ch=1 n=77 v=52
15362 On ch=1 n=79 v=0
15408 On ch=1 n=67 v=33
15410 On ch=1 n=69 v=0
15420 On ch=1 n=76 v=57
15422 On ch=1 n=77 v=0
15432 On ch=1 n=79 v=49
15434 On ch=1 n=76 v=0
15444 On ch=1 n=76 v=51
15446 On ch=1 n=79 v=0
15452 On ch=1 n=64 v=30
15454 On ch=1 n=67 v=0
15454 On ch=1 n=67 v=35
15456 On ch=1 n=72 v=0
15456 On ch=1 n=72 v=46
15458 On ch=1 n=76 v=0
15466 On ch=1 n=64 v=0
15468 On ch=1 n=67 v=0
15504 On ch=1 n=72 v=0
15528 On ch=1 n=72 v=60
15549 On ch=1 n=79 v=55
15552 On ch=1 n=72 v=0
15552 On ch=1 n=77 v=62
15552 On ch=1 n=65 v=46
15553 On ch=1 n=79 v=0
15564 On ch=1 n=76 v=66
15564 On ch=1 n=64 v=49
15566 On ch=1 n=65 v=0
15566 On ch=1 n=77 v=0
15576 On ch=1 n=77 v=68
15576 On ch=1 n=65 v=51
15578 On ch=1 n=76 v=0
15578 On ch=1 n=64 v=0
15588 On ch=1 n=78 v=62
15588 On ch=1 n=66 v=46
15590 On ch=1 n=77 v=0
15590 On ch=1 n=65 v=0
15597 On ch=1 n=81 v=55
15600 On ch=1 n=79 v=71
15600 On ch=1 n=67 v=55
15601 On ch=1 n=81 v=0
15602 On ch=1 n=66 v=0
15602 On ch=1 n=78 v=0
15612 On ch=1 n=78 v=74
15612 On ch=1 n=66 v=58
15614 On ch=1 n=79 v=0
15614 On ch=1 n=67 v=0
15624 On ch=1 n=79 v=77
15624 On ch=1 n=67 v=60
15626 On ch=1 n=78 v=0
15626 On ch=1 n=66 v=0
15636 On ch=1 n=80 v=71
15636 On ch=1 n=68 v=55
15638 On ch=1 n=79 v=0
15638 On ch=1 n=67 v=0
15645 On ch=1 n=82 v=64
15648 On ch=1 n=81 v=81
15648 On ch=1 n=69 v=64
15649 On ch=1 n=82 v=0
15650 On ch=1 n=68 v=0
15650 On ch=1 n=80 v=0
15660 On ch=1 n=80 v=84
15660 On ch=1 n=68 v=68
15662 On ch=1 n=81 v=0
15662 On ch=1 n=69 v=0
15672 On ch=1 n=81 v=79
15672 On ch=1 n=69 v=62
15674 On ch=1 n=80 v=0
15674 On ch=1 n=68 v=0
15684 On ch=1 n=84 v=77
15684 On ch=1 n=72 v=60
15686 On ch=1 n=81 v=0
15686 On ch=1 n=69 v=0
15696 On ch=1 n=82 v=84
15696 On ch=1 n=70 v=68
15698 On ch=1 n=84 v=0
15698 On ch=1 n=72 v=0
15708 On ch=1 n=84 v=88
15708 On ch=1 n=72 v=71
15710 On ch=1 n=82 v=0
15710 On ch=1 n=70 v=0
15720 On ch=1 n=86 v=82
15720 On ch=1 n=74 v=66
15722 On ch=1 n=84 v=0
15722 On ch=1 n=72 v=0
15732 On ch=1 n=82 v=77
15732 On ch=1 n=70 v=60
15734 On ch=1 n=86 v=0
15734 On ch=1 n=74 v=0
15738 On ch=1 n=69 v=63
15742 On ch=1 n=72 v=55
15744 On ch=1 n=77 v=60
15746 On ch=1 n=82 v=0
15746 On ch=1 n=70 v=0
15746 On ch=1 n=81 v=74
15798 On ch=1 n=84 v=55
15800 On ch=1 n=81 v=0
15800 On ch=1 n=72 v=0
15800 On ch=1 n=77 v=0
15800 On ch=1 n=69 v=0
15804 On ch=1 n=89 v=57
15806 On ch=1 n=84 v=0
15807 On ch=1 n=89 v=0
15810 On ch=1 n=88 v=59
15813 On ch=1 n=88 v=0
15816 On ch=1 n=86 v=61
15819 On ch=1 n=86 v=0
15822 On ch=1 n=84 v=63
15825 On ch=1 n=84 v=0
15828 On ch=1 n=82 v=66
15831 On ch=1 n=82 v=0
15834 On ch=1 n=81 v=68
15837 On ch=1 n=81 v=0
15840 On ch=1 n=79 v=63
15840 On ch=1 n=76 v=35
15840 On ch=1 n=72 v=55
15888 On ch=1 n=72 v=0
15888 On ch=1 n=76 v=0
15888 On ch=1 n=79 v=0
15912 On ch=1 n=72 v=88
15932 On ch=1 n=72 v=0
15932 On ch=1 n=72 v=82
15934 On ch=1 n=76 v=90
15936 On ch=1 n=82 v=110
16008 On ch=1 n=79 v=93
16010 On ch=1 n=82 v=0
16010 On ch=1 n=76 v=0
16013 On ch=1 n=81 v=77
16015 On ch=1 n=79 v=0
16016 On ch=1 n=79 v=66
16017 On ch=1 n=81 v=0
16019 On ch=1 n=81 v=69
16020 On ch=1 n=79 v=0
16022 On ch=1 n=79 v=72
16023 On ch=1 n=81 v=0
16025 On ch=1 n=78 v=74
16026 On ch=1 n=79 v=0
16028 On ch=1 n=79 v=77
16029 On ch=1 n=78 v=0
16032 On ch=1 n=79 v=0
16032 On ch=1 n=76 v=93
16042 On ch=1 n=76 v=0
16042 On ch=1 n=72 v=0
16056 On ch=1 n=77 v=90
16056 On ch=1 n=72 v=60
16056 On ch=1 n=65 v=74
16080 On ch=1 n=76 v=93
16080 On ch=1 n=64 v=77
16082 On ch=1 n=65 v=0
16082 On ch=1 n=77 v=0
16104 On ch=1 n=72 v=0
16104 On ch=1 n=77 v=88
16104 On ch=1 n=72 v=57
16104 On ch=1 n=65 v=71
16106 On ch=1 n=64 v=0
16106 On ch=1 n=76 v=0
16124 On ch=1 n=72 v=0
16124 On ch=1 n=72 v=71
16126 On ch=1 n=76 v=79
16128 On ch=1 n=82 v=104
16130 On ch=1 n=77 v=0
16130 On ch=1 n=65 v=0
16200 On ch=1 n=79 v=88
16202 On ch=1 n=76 v=0
16202 On ch=1 n=82 v=0
16205 On ch=1 n=81 v=74
16207 On ch=1 n=79 v=0
16208 On ch=1 n=79 v=66
16209 On ch=1 n=81 v=0
16211 On ch=1 n=81 v=68
16212 On ch=1 n=79 v=0
16214 On ch=1 n=79 v=70
16215 On ch=1 n=81 v=0
16217 On ch=1 n=78 v=72
16218 On ch=1 n=79 v=0
16220 On ch=1 n=79 v=74
16221 On ch=1 n=78 v=0
16224 On ch=1 n=76 v=88
16225 On ch=1 n=79 v=0
16236 On ch=1 n=76 v=0
16236 On ch=1 n=72 v=0
16248 On ch=1 n=84 v=73
16248 On ch=1 n=77 v=49
16248 On ch=1 n=72 v=58
16272 On ch=1 n=83 v=82
16272 On ch=1 n=71 v=66
16274 On ch=1 n=72 v=0
16274 On ch=1 n=84 v=0
16296 On ch=1 n=77 v=0
16296 On ch=1 n=84 v=78
16296 On ch=1 n=77 v=47
16296 On ch=1 n=72 v=61
16298 On ch=1 n=71 v=0
16298 On ch=1 n=83 v=0
16320 On ch=1 n=77 v=0
16320 On ch=1 n=86 v=71
16320 On ch=1 n=77 v=44
16320 On ch=1 n=74 v=55
16322 On ch=1 n=84 v=0
16322 On ch=1 n=72 v=0
16378 On ch=1 n=77 v=0
16378 On ch=1 n=86 v=0
16378 On ch=1 n=74 v=0
16380 On ch=1 n=88 v=77
16384 On ch=1 n=86 v=69
16386 On ch=1 n=88 v=0
16387 On ch=1 n=85 v=71
16389 On ch=1 n=86 v=0
16389 On ch=1 n=86 v=66
16391 On ch=1 n=85 v=0
16392 On ch=1 n=88 v=69
16394 On ch=1 n=86 v=0
16397 On ch=1 n=88 v=0
16404 On ch=1 n=89 v=66
16410 On ch=1 n=89 v=0
16412 On ch=1 n=69 v=55
16414 On ch=1 n=72 v=60
16416 On ch=1 n=69 v=0
16416 On ch=1 n=77 v=71
16418 On ch=1 n=72 v=0
16484 On ch=1 n=70 v=55
16486 On ch=1 n=76 v=60
16488 On ch=1 n=81 v=74
16490 On ch=1 n=77 v=0
16500 On ch=1 n=79 v=68
16502 On ch=1 n=81 v=0
16508 On ch=1 n=70 v=0
16510 On ch=1 n=76 v=0
16512 On ch=1 n=79 v=0
16512 On ch=1 n=77 v=66
16512 On ch=1 n=72 v=44
16512 On ch=1 n=69 v=68
16552 On ch=1 n=69 v=0
16552 On ch=1 n=72 v=0
16552 On ch=1 n=77 v=0
16560 On ch=1 n=69 v=110
16602 On ch=1 n=69 v=0
16602 On ch=1 n=69 v=104
16608 On ch=1 n=62 v=115
16610 On ch=1 n=69 v=0
16648 On ch=1 n=62 v=0
16656 On ch=1 n=86 v=110
16656 On ch=1 n=74 v=88
16698 On ch=1 n=74 v=0
16698 On ch=1 n=86 v=0
16698 On ch=1 n=86 v=104
16698 On ch=1 n=74 v=85
16704 On ch=1 n=79 v=115
16704 On ch=1 n=67 v=82
16706 On ch=1 n=74 v=0
16706 On ch=1 n=86 v=0
16744 On ch=1 n=79 v=0
16744 On ch=1 n=67 v=0
16752 On ch=1 n=82 v=110
16752 On ch=1 n=70 v=88
16794 On ch=1 n=70 v=0
16794 On ch=1 n=82 v=0
16794 On ch=1 n=82 v=104
16794 On ch=1 n=70 v=82
16800 On ch=1 n=82 v=0
16800 On ch=1 n=88 v=121
16800 On ch=1 n=82 v=71
16800 On ch=1 n=79 v=85
16800 On ch=1 n=76 v=93
16802 On ch=1 n=70 v=0
16840 On ch=1 n=79 v=0
16840 On ch=1 n=88 v=0
16840 On ch=1 n=82 v=0
16840 On ch=1 n=76 v=0
16848 On ch=1 n=89 v=126
16848 On ch=1 n=81 v=85
16848 On ch=1 n=77 v=99
16884 On ch=1 n=77 v=0
16884 On ch=1 n=81 v=0
16884 On ch=1 n=89 v=0
16896 On ch=1 n=79 v=88
16896 On ch=1 n=77 v=71
16896 On ch=1 n=74 v=49
16896 On ch=1 n=67 v=77
16956 On ch=1 n=81 v=90
16956 On ch=1 n=69 v=74
16958 On ch=1 n=67 v=0
16958 On ch=1 n=74 v=0
16958 On ch=1 n=79 v=0
16958 On ch=1 n=77 v=0
16968 On ch=1 n=82 v=83
16968 On ch=1 n=70 v=72
16970 On ch=1 n=69 v=0
16970 On ch=1 n=81 v=0
16980 On ch=1 n=86 v=80
16980 On ch=1 n=74 v=70
16982 On ch=1 n=82 v=0
16982 On ch=1 n=70 v=0
16990 On ch=1 n=86 v=0
16990 On ch=1 n=74 v=0
16992 On ch=1 n=86 v=74
16992 On ch=1 n=74 v=66
17004 On ch=1 n=84 v=79
17004 On ch=1 n=72 v=68
17006 On ch=1 n=74 v=0
17006 On ch=1 n=86 v=0
17016 On ch=1 n=82 v=82
17016 On ch=1 n=70 v=70
17018 On ch=1 n=84 v=0
17018 On ch=1 n=72 v=0
17028 On ch=1 n=81 v=84
17028 On ch=1 n=69 v=72
17030 On ch=1 n=82 v=0
17030 On ch=1 n=70 v=0
17038 On ch=1 n=81 v=0
17038 On ch=1 n=69 v=0
17040 On ch=1 n=81 v=81
17040 On ch=1 n=69 v=69
17052 On ch=1 n=79 v=83
17052 On ch=1 n=67 v=71
17054 On ch=1 n=69 v=0
17054 On ch=1 n=81 v=0
17064 On ch=1 n=82 v=79
17064 On ch=1 n=70 v=63
17066 On ch=1 n=79 v=0
17066 On ch=1 n=67 v=0
17076 On ch=1 n=76 v=82
17076 On ch=1 n=64 v=66
17078 On ch=1 n=82 v=0
17078 On ch=1 n=70 v=0
17088 On ch=1 n=77 v=77
17088 On ch=1 n=65 v=60
17090 On ch=1 n=76 v=0
17090 On ch=1 n=64 v=0
17098 On ch=1 n=77 v=0
17098 On ch=1 n=65 v=0
17100 On ch=1 n=69 v=44
17104 On ch=1 n=69 v=0
17112 On ch=1 n=68 v=52
17116 On ch=1 n=68 v=0
17124 On ch=1 n=69 v=49
17128 On ch=1 n=69 v=0
17136 On ch=1 n=70 v=51
17140 On ch=1 n=70 v=0
17148 On ch=1 n=71 v=48
17152 On ch=1 n=71 v=0
17160 On ch=1 n=72 v=50
17164 On ch=1 n=72 v=0
17172 On ch=1 n=73 v=52
17176 On ch=1 n=73 v=0
17184 On ch=1 n=74 v=55
17188 On ch=1 n=74 v=0
17196 On ch=1 n=75 v=50
17200 On ch=1 n=75 v=0
17208 On ch=1 n=76 v=52
17212 On ch=1 n=76 v=0
17220 On ch=1 n=77 v=48
17224 On ch=1 n=77 v=0
17232 On ch=1 n=78 v=50
17236 On ch=1 n=78 v=0
17244 On ch=1 n=79 v=47
17248 On ch=1 n=79 v=0
17256 On ch=1 n=80 v=44
17260 On ch=1 n=80 v=0
17268 On ch=1 n=81 v=46
17272 On ch=1 n=81 v=0
17280 On ch=1 n=82 v=49
17286 On ch=1 n=82 v=0
17292 On ch=1 n=84 v=47
17296 On ch=1 n=84 v=0
17304 On ch=1 n=85 v=45
17308 On ch=1 n=85 v=0
17316 On ch=1 n=86 v=50
17320 On ch=1 n=86 v=0
17328 On ch=1 n=74 v=55
17332 On ch=1 n=74 v=0
17340 On ch=1 n=76 v=50
17344 On ch=1 n=76 v=0
17352 On ch=1 n=77 v=52
17356 On ch=1 n=77 v=0
17364 On ch=1 n=78 v=48
17368 On ch=1 n=78 v=0
17376 On ch=1 n=79 v=50
17380 On ch=1 n=79 v=0
17388 On ch=1 n=81 v=46
17392 On ch=1 n=81 v=0
17400 On ch=1 n=82 v=48
17404 On ch=1 n=82 v=0
17412 On ch=1 n=81 v=52
17416 On ch=1 n=81 v=0
17424 On ch=1 n=82 v=50
17428 On ch=1 n=82 v=0
17436 On ch=1 n=81 v=55
17440 On ch=1 n=81 v=0
17448 On ch=1 n=82 v=57
17452 On ch=1 n=82 v=0
17460 On ch=1 n=81 v=51
17464 On ch=1 n=81 v=0
17472 On ch=1 n=82 v=55
17478 On ch=1 n=81 v=51
17480 On ch=1 n=82 v=0
17484 On ch=1 n=86 v=47
17486 On ch=1 n=81 v=0
17490 On ch=1 n=84 v=49
17492 On ch=1 n=86 v=0
17496 On ch=1 n=82 v=52
17498 On ch=1 n=84 v=0
17502 On ch=1 n=81 v=49
17504 On ch=1 n=82 v=0
17508 On ch=1 n=86 v=45
17510 On ch=1 n=81 v=0
17514 On ch=1 n=84 v=47
17516 On ch=1 n=86 v=0
17520 On ch=1 n=82 v=50
17522 On ch=1 n=84 v=0
17526 On ch=1 n=81 v=47
17528 On ch=1 n=82 v=0
17532 On ch=1 n=86 v=42
17534 On ch=1 n=81 v=0
17538 On ch=1 n=84 v=45
17540 On ch=1 n=86 v=0
17544 On ch=1 n=82 v=48
17546 On ch=1 n=84 v=0
17550 On ch=1 n=81 v=45
17552 On ch=1 n=82 v=0
17556 On ch=1 n=86 v=40
17558 On ch=1 n=81 v=0
17562 On ch=1 n=84 v=42
17564 On ch=1 n=86 v=0
17568 On ch=1 n=82 v=46
17570 On ch=1 n=84 v=0
17574 On ch=1 n=81 v=42
17576 On ch=1 n=82 v=0
17580 On ch=1 n=86 v=38
17582 On ch=1 n=81 v=0
17586 On ch=1 n=84 v=40
17588 On ch=1 n=86 v=0
17592 On ch=1 n=82 v=44
17594 On ch=1 n=84 v=0
17598 On ch=1 n=81 v=40
17600 On ch=1 n=82 v=0
17604 On ch=1 n=86 v=36
17606 On ch=1 n=81 v=0
17610 On ch=1 n=84 v=38
17612 On ch=1 n=86 v=0
17616 On ch=1 n=82 v=40
17618 On ch=1 n=84 v=0
17622 On ch=1 n=81 v=42
17624 On ch=1 n=82 v=0
17628 On ch=1 n=79 v=45
17630 On ch=1 n=81 v=0
17634 On ch=1 n=77 v=47
17636 On ch=1 n=79 v=0
17640 On ch=1 n=76 v=49
17642 On ch=1 n=77 v=0
17646 On ch=1 n=74 v=51
17648 On ch=1 n=76 v=0
17652 On ch=1 n=72 v=53
17654 On ch=1 n=74 v=0
17658 On ch=1 n=70 v=50
17660 On ch=1 n=72 v=0
17664 On ch=1 n=69 v=55
17666 On ch=1 n=70 v=0
17672 On ch=1 n=69 v=0
17676 On ch=1 n=70 v=50
17680 On ch=1 n=70 v=0
17688 On ch=1 n=72 v=52
17692 On ch=1 n=72 v=0
17700 On ch=1 n=74 v=48
17704 On ch=1 n=74 v=0
17712 On ch=1 n=76 v=50
17716 On ch=1 n=76 v=0
17724 On ch=1 n=77 v=46
17728 On ch=1 n=77 v=0
17736 On ch=1 n=79 v=48
17740 On ch=1 n=79 v=0
17748 On ch=1 n=81 v=44
17752 On ch=1 n=81 v=0
17760 On ch=1 n=82 v=46
17764 On ch=1 n=82 v=0
17772 On ch=1 n=83 v=41
17776 On ch=1 n=83 v=0
17784 On ch=1 n=84 v=44
17788 On ch=1 n=84 v=0
17796 On ch=1 n=85 v=46
17800 On ch=1 n=85 v=0
17808 On ch=1 n=86 v=48
17812 On ch=1 n=86 v=0
17820 On ch=1 n=88 v=41
17824 On ch=1 n=88 v=0
17832 On ch=1 n=89 v=44
17836 On ch=1 n=89 v=0
17844 On ch=1 n=81 v=38
17848 On ch=1 n=81 v=0
17868 On ch=1 n=78 v=49
17880 On ch=1 n=81 v=40
17882 On ch=1 n=78 v=0
17892 On ch=1 n=79 v=44
17894 On ch=1 n=81 v=0
17904 On ch=1 n=79 v=0
17916 On ch=1 n=81 v=55
17928 On ch=1 n=84 v=46
17930 On ch=1 n=81 v=0
17940 On ch=1 n=82 v=49
17942 On ch=1 n=84 v=0
17952 On ch=1 n=82 v=0
17964 On ch=1 n=85 v=57
17976 On ch=1 n=88 v=48
17978 On ch=1 n=85 v=0
17988 On ch=1 n=86 v=51
17990 On ch=1 n=88 v=0
18000 On ch=1 n=86 v=0
18012 On ch=1 n=88 v=51
18024 On ch=1 n=89 v=42
18026 On ch=1 n=88 v=0
18036 On ch=1 n=86 v=46
18038 On ch=1 n=89 v=0
18048 On ch=1 n=86 v=0
18048 On ch=1 n=84 v=49
18054 On ch=1 n=84 v=0
18057 On ch=1 n=89 v=38
18060 On ch=1 n=89 v=0
18064 On ch=1 n=88 v=40
18067 On ch=1 n=88 v=0
18072 On ch=1 n=86 v=42
18075 On ch=1 n=86 v=0
18080 On ch=1 n=84 v=39
18083 On ch=1 n=84 v=0
18088 On ch=1 n=83 v=41
18091 On ch=1 n=83 v=0
18096 On ch=1 n=84 v=44
18099 On ch=1 n=84 v=0
18104 On ch=1 n=89 v=35
18107 On ch=1 n=89 v=0
18112 On ch=1 n=88 v=37
18115 On ch=1 n=88 v=0
18120 On ch=1 n=86 v=39
18123 On ch=1 n=86 v=0
18128 On ch=1 n=84 v=36
18131 On ch=1 n=84 v=0
18136 On ch=1 n=83 v=38
18139 On ch=1 n=83 v=0
18144 On ch=1 n=84 v=40
18147 On ch=1 n=84 v=0
18152 On ch=1 n=89 v=37
18155 On ch=1 n=89 v=0
18160 On ch=1 n=88 v=39
18163 On ch=1 n=88 v=0
18168 On ch=1 n=86 v=41
18171 On ch=1 n=86 v=0
18176 On ch=1 n=84 v=44
18179 On ch=1 n=84 v=0
18184 On ch=1 n=83 v=46
18187 On ch=1 n=83 v=0
18192 On ch=1 n=86 v=42
18200 On ch=1 n=84 v=45
18202 On ch=1 n=86 v=0
18208 On ch=1 n=83 v=47
18210 On ch=1 n=84 v=0
18216 On ch=1 n=86 v=49
18218 On ch=1 n=83 v=0
18223 On ch=1 n=84 v=46
18225 On ch=1 n=86 v=0
18229 On ch=1 n=82 v=52
18231 On ch=1 n=84 v=0
18234 On ch=1 n=81 v=57
18236 On ch=1 n=82 v=0
18240 On ch=1 n=79 v=60
18242 On ch=1 n=81 v=0
18246 On ch=1 n=81 v=44
18248 On ch=1 n=79 v=0
18250 On ch=1 n=79 v=47
18251 On ch=1 n=81 v=0
18253 On ch=1 n=81 v=45
18254 On ch=1 n=79 v=0
18255 On ch=1 n=79 v=48
18257 On ch=1 n=81 v=0
18258 On ch=1 n=81 v=51
18259 On ch=1 n=79 v=0
18261 On ch=1 n=79 v=47
18262 On ch=1 n=81 v=0
18264 On ch=1 n=81 v=52
18265 On ch=1 n=79 v=0
18266 On ch=1 n=79 v=50
18268 On ch=1 n=81 v=0
18269 On ch=1 n=81 v=55
18270 On ch=1 n=79 v=0
18271 On ch=1 n=79 v=57
18273 On ch=1 n=81 v=0
18273 On ch=1 n=81 v=52
18275 On ch=1 n=79 v=0
18276 On ch=1 n=79 v=55
18277 On ch=1 n=81 v=0
18278 On ch=1 n=81 v=60
18280 On ch=1 n=79 v=0
18281 On ch=1 n=79 v=57
18282 On ch=1 n=81 v=0
18283 On ch=1 n=81 v=53
18285 On ch=1 n=79 v=0
18286 On ch=1 n=79 v=63
18287 On ch=1 n=81 v=0
18289 On ch=1 n=81 v=57
18290 On ch=1 n=79 v=0
18291 On ch=1 n=79 v=60
18293 On ch=1 n=81 v=0
18294 On ch=1 n=81 v=66
18295 On ch=1 n=79 v=0
18296 On ch=1 n=79 v=68
18298 On ch=1 n=81 v=0
18298 On ch=1 n=81 v=63
18300 On ch=1 n=79 v=0
18301 On ch=1 n=79 v=71
18302 On ch=1 n=81 v=0
18304 On ch=1 n=81 v=74
18305 On ch=1 n=79 v=0
18306 On ch=1 n=79 v=70
18308 On ch=1 n=81 v=0
18308 On ch=1 n=81 v=72
18310 On ch=1 n=79 v=0
18311 On ch=1 n=79 v=77
18312 On ch=1 n=81 v=0
18313 On ch=1 n=81 v=79
18315 On ch=1 n=79 v=0
18316 On ch=1 n=79 v=75
18317 On ch=1 n=81 v=0
18318 On ch=1 n=81 v=80
18320 On ch=1 n=79 v=0
18322 On ch=1 n=78 v=83
18323 On ch=1 n=81 v=0
18328 On ch=1 n=79 v=88
18329 On ch=1 n=78 v=0
18336 On ch=1 n=84 v=93
18337 On ch=1 n=79 v=0
18342 On ch=1 n=86 v=77
18344 On ch=1 n=84 v=0
18346 On ch=1 n=84 v=80
18347 On ch=1 n=86 v=0
18349 On ch=1 n=86 v=78
18350 On ch=1 n=84 v=0
18351 On ch=1 n=84 v=81
18353 On ch=1 n=86 v=0
18354 On ch=1 n=86 v=84
18355 On ch=1 n=84 v=0
18357 On ch=1 n=84 v=80
18358 On ch=1 n=86 v=0
18360 On ch=1 n=86 v=77
18361 On ch=1 n=84 v=0
18362 On ch=1 n=84 v=82
18364 On ch=1 n=86 v=0
18365 On ch=1 n=86 v=81
18366 On ch=1 n=84 v=0
18367 On ch=1 n=84 v=84
18369 On ch=1 n=86 v=0
18369 On ch=1 n=86 v=83
18371 On ch=1 n=84 v=0
18372 On ch=1 n=84 v=81
18373 On ch=1 n=86 v=0
18374 On ch=1 n=86 v=77
18376 On ch=1 n=84 v=0
18377 On ch=1 n=84 v=74
18378 On ch=1 n=86 v=0
18379 On ch=1 n=86 v=82
18381 On ch=1 n=84 v=0
18382 On ch=1 n=84 v=79
18383 On ch=1 n=86 v=0
18385 On ch=1 n=86 v=81
18386 On ch=1 n=84 v=0
18387 On ch=1 n=84 v=75
18389 On ch=1 n=86 v=0
18390 On ch=1 n=86 v=79
18391 On ch=1 n=84 v=0
18392 On ch=1 n=84 v=73
18394 On ch=1 n=86 v=0
18394 On ch=1 n=86 v=82
18396 On ch=1 n=84 v=0
18397 On ch=1 n=84 v=79
18398 On ch=1 n=86 v=0
18400 On ch=1 n=86 v=75
18401 On ch=1 n=84 v=0
18402 On ch=1 n=84 v=79
18404 On ch=1 n=86 v=0
18404 On ch=1 n=86 v=85
18406 On ch=1 n=84 v=0
18407 On ch=1 n=84 v=77
18408 On ch=1 n=86 v=0
18409 On ch=1 n=86 v=79
18411 On ch=1 n=84 v=0
18412 On ch=1 n=84 v=82
18413 On ch=1 n=86 v=0
18414 On ch=1 n=86 v=88
18416 On ch=1 n=84 v=0
18418 On ch=1 n=83 v=92
18419 On ch=1 n=86 v=0
18424 On ch=1 n=84 v=96
18425 On ch=1 n=83 v=0
18432 On ch=1 n=77 v=104
18432 On ch=1 n=69 v=82
18432 On ch=1 n=65 v=96
18433 On ch=1 n=84 v=0
18528 On ch=1 n=77 v=0
18528 On ch=1 n=69 v=0
18528 On ch=1 n=65 v=0
18528 On ch=1 n=81 v=95
18528 On ch=1 n=75 v=73
18528 On ch=1 n=69 v=88
18600 On ch=1 n=75 v=0
18600 On ch=1 n=82 v=99
18600 On ch=1 n=75 v=77
18600 On ch=1 n=70 v=91
18602 On ch=1 n=69 v=0
18602 On ch=1 n=81 v=0
18612 On ch=1 n=84 v=84
18612 On ch=1 n=72 v=77
18614 On ch=1 n=75 v=0
18614 On ch=1 n=70 v=0
18614 On ch=1 n=82 v=0
18618 On ch=1 n=74 v=44
18620 On ch=1 n=77 v=47
18622 On ch=1 n=74 v=0
18622 On ch=1 n=82 v=50
18624 On ch=1 n=77 v=0
18624 On ch=1 n=86 v=63
18626 On ch=1 n=72 v=0
18626 On ch=1 n=82 v=0
18626 On ch=1 n=84 v=0
18693 On ch=1 n=86 v=0
18693 On ch=1 n=86 v=38
18696 On ch=1 n=84 v=55
18698 On ch=1 n=86 v=0
18708 On ch=1 n=82 v=49
18710 On ch=1 n=84 v=0
18717 On ch=1 n=84 v=41
18718 On ch=1 n=82 v=0
18720 On ch=1 n=82 v=58
18722 On ch=1 n=84 v=0
18732 On ch=1 n=81 v=52
18734 On ch=1 n=82 v=0
18741 On ch=1 n=82 v=45
18742 On ch=1 n=81 v=0
18744 On ch=1 n=81 v=61
18746 On ch=1 n=82 v=0
18756 On ch=1 n=79 v=56
18758 On ch=1 n=81 v=0
18765 On ch=1 n=81 v=48
18766 On ch=1 n=79 v=0
18768 On ch=1 n=79 v=64
18770 On ch=1 n=81 v=0
18780 On ch=1 n=77 v=52
18782 On ch=1 n=79 v=0
18789 On ch=1 n=79 v=52
18790 On ch=1 n=77 v=0
18792 On ch=1 n=77 v=69
18794 On ch=1 n=79 v=0
18804 On ch=1 n=76 v=63
18806 On ch=1 n=77 v=0
18814 On ch=1 n=76 v=0
18816 On ch=1 n=77 v=93
18816 On ch=1 n=69 v=71
18816 On ch=1 n=65 v=85
18888 On ch=1 n=65 v=0
18888 On ch=1 n=69 v=0
18888 On ch=1 n=77 v=0
18888 On ch=1 n=77 v=99
18888 On ch=1 n=69 v=77
18888 On ch=1 n=65 v=91
18912 On ch=1 n=65 v=0
18912 On ch=1 n=69 v=0
18912 On ch=1 n=77 v=0
18912 On ch=1 n=81 v=91
18912 On ch=1 n=75 v=74
18912 On ch=1 n=72 v=58
18912 On ch=1 n=69 v=83
18936 On ch=1 n=72 v=0
18936 On ch=1 n=84 v=93
18936 On ch=1 n=72 v=100
18938 On ch=1 n=81 v=0
18938 On ch=1 n=69 v=0
18938 On ch=1 n=75 v=0
18960 On ch=1 n=87 v=89
18960 On ch=1 n=75 v=96
18962 On ch=1 n=84 v=0
18962 On ch=1 n=72 v=0
18984 On ch=1 n=81 v=91
18984 On ch=1 n=69 v=102
18986 On ch=1 n=87 v=0
18986 On ch=1 n=75 v=0
19002 On ch=1 n=74 v=33
19004 On ch=1 n=77 v=36
19006 On ch=1 n=74 v=0
19006 On ch=1 n=82 v=39
19008 On ch=1 n=77 v=0
19008 On ch=1 n=86 v=49
19010 On ch=1 n=69 v=0
19010 On ch=1 n=82 v=0
19010 On ch=1 n=81 v=0
19068 On ch=1 n=86 v=0
19068 On ch=1 n=85 v=52
19074 On ch=1 n=86 v=48
19076 On ch=1 n=85 v=0
19080 On ch=1 n=88 v=44
19082 On ch=1 n=86 v=0
19086 On ch=1 n=86 v=46
19088 On ch=1 n=88 v=0
19092 On ch=1 n=84 v=48
19094 On ch=1 n=86 v=0
19098 On ch=1 n=82 v=50
19100 On ch=1 n=84 v=0
19104 On ch=1 n=84 v=47
19106 On ch=1 n=82 v=0
19110 On ch=1 n=82 v=49
19112 On ch=1 n=84 v=0
19116 On ch=1 n=81 v=51
19118 On ch=1 n=82 v=0
19122 On ch=1 n=79 v=53
19124 On ch=1 n=81 v=0
19128 On ch=1 n=81 v=50
19130 On ch=1 n=79 v=0
19134 On ch=1 n=79 v=52
19136 On ch=1 n=81 v=0
19140 On ch=1 n=77 v=55
19142 On ch=1 n=79 v=0
19146 On ch=1 n=76 v=57
19148 On ch=1 n=77 v=0
19152 On ch=1 n=77 v=53
19154 On ch=1 n=76 v=0
19158 On ch=1 n=76 v=56
19160 On ch=1 n=77 v=0
19164 On ch=1 n=74 v=58
19166 On ch=1 n=76 v=0
19170 On ch=1 n=72 v=60
19172 On ch=1 n=74 v=0
19176 On ch=1 n=71 v=62
19178 On ch=1 n=72 v=0
19182 On ch=1 n=72 v=59
19184 On ch=1 n=71 v=0
19188 On ch=1 n=74 v=56
19190 On ch=1 n=72 v=0
19194 On ch=1 n=76 v=52
19196 On ch=1 n=74 v=0
19200 On ch=1 n=65 v=33
19202 On ch=1 n=76 v=0
19202 On ch=1 n=69 v=38
19204 On ch=1 n=77 v=55
19220 On ch=1 n=77 v=0
19220 On ch=1 n=69 v=0
19220 On ch=1 n=65 v=0
19224 On ch=1 n=79 v=60
19234 On ch=1 n=79 v=0
19236 On ch=1 n=81 v=58
19246 On ch=1 n=81 v=0
19248 On ch=1 n=82 v=61
19258 On ch=1 n=82 v=0
19260 On ch=1 n=84 v=59
19270 On ch=1 n=84 v=0
19272 On ch=1 n=86 v=57
19282 On ch=1 n=86 v=0
19284 On ch=1 n=88 v=55
19294 On ch=1 n=88 v=0
19296 On ch=1 n=89 v=58
19306 On ch=1 n=89 v=0
19308 On ch=1 n=81 v=61
19318 On ch=1 n=81 v=0
19320 On ch=1 n=82 v=59
19330 On ch=1 n=82 v=0
19332 On ch=1 n=84 v=57
19342 On ch=1 n=84 v=0
19344 On ch=1 n=86 v=60
19354 On ch=1 n=86 v=0
19356 On ch=1 n=88 v=58
19366 On ch=1 n=88 v=0
19368 On ch=1 n=89 v=56
19378 On ch=1 n=89 v=0
19380 On ch=1 n=91 v=52
19390 On ch=1 n=91 v=0
19392 On ch=1 n=93 v=55
19402 On ch=1 n=93 v=0
19404 On ch=1 n=84 v=58
19414 On ch=1 n=84 v=0
19416 On ch=1 n=86 v=56
19426 On ch=1 n=86 v=0
19428 On ch=1 n=88 v=53
19438 On ch=1 n=88 v=0
19440 On ch=1 n=89 v=51
19450 On ch=1 n=89 v=0
19452 On ch=1 n=91 v=49
19462 On ch=1 n=91 v=0
19464 On ch=1 n=93 v=47
19474 On ch=1 n=93 v=0
19476 On ch=1 n=94 v=51
19486 On ch=1 n=94 v=0
19488 On ch=1 n=96 v=60
19560 On ch=1 n=93 v=52
19562 On ch=1 n=96 v=0
19584 On ch=1 n=89 v=55
19586 On ch=1 n=93 v=0
19632 On ch=1 n=89 v=0
19680 On ch=1 n=72 v=44
19752 On ch=1 n=69 v=36
19754 On ch=1 n=72 v=0
19776 On ch=1 n=65 v=38
19778 On ch=1 n=69 v=0
19800 On ch=1 n=65 v=0
19824 On ch=1 n=69 v=16
19826 On ch=1 n=72 v=22
19828 On ch=1 n=77 v=33
19848 On ch=1 n=77 v=0
19848 On ch=1 n=72 v=0
19848 On ch=1 n=69 v=0
19866 On ch=1 n=65 v=13
19872 On ch=1 n=69 v=19
19876 On ch=1 n=77 v=27
19896 On ch=1 n=77 v=0
19896 On ch=1 n=69 v=0
19896 On ch=1 n=65 v=0
0 PrCh ch=2 p=0
0 Par ch=2 c=7 v=122
0 Par ch=2 c=10 v=70
98 Par ch=2 c=32 v=1
110 Par ch=2 c=0 v=0
110 Par ch=2 c=32 v=0
110 PrCh ch=2 p=0
116 Par ch=2 c=10 v=68
122 Par ch=2 c=91 v=80
128 Par ch=2 c=7 v=127
134 Par ch=2 c=11 v=127
140 Meta Text ""
140 Par ch=2 c=99 v=1
142 Par ch=2 c=98 v=99
144 Par ch=2 c=6 v=64
146 Meta Text ""
146 Par ch=2 c=98 v=100
149 Par ch=2 c=6 v=75
152 Meta Text ""
152 Par ch=2 c=98 v=101
155 Par ch=2 c=6 v=90
192 On ch=2 n=53 v=33
192 On ch=2 n=41 v=49
240 On ch=2 n=65 v=41
240 On ch=2 n=60 v=27
240 On ch=2 n=57 v=33
242 On ch=2 n=41 v=0
242 On ch=2 n=53 v=0
288 On ch=2 n=60 v=0
288 On ch=2 n=65 v=0
288 On ch=2 n=57 v=0
288 On ch=2 n=46 v=52
336 On ch=2 n=67 v=38
336 On ch=2 n=62 v=22
336 On ch=2 n=58 v=30
338 On ch=2 n=46 v=0
384 On ch=2 n=67 v=0
384 On ch=2 n=62 v=0
384 On ch=2 n=58 v=0
384 On ch=2 n=48 v=44
432 On ch=2 n=64 v=38
432 On ch=2 n=60 v=35
432 On ch=2 n=55 v=22
434 On ch=2 n=48 v=0
480 On ch=2 n=64 v=0
480 On ch=2 n=60 v=0
480 On ch=2 n=55 v=0
480 On ch=2 n=64 v=36
480 On ch=2 n=60 v=33
480 On ch=2 n=55 v=19
528 On ch=2 n=55 v=0
528 On ch=2 n=60 v=0
528 On ch=2 n=64 v=0
528 On ch=2 n=64 v=33
528 On ch=2 n=60 v=22
528 On ch=2 n=58 v=38
576 On ch=2 n=58 v=0
576 On ch=2 n=60 v=0
576 On ch=2 n=64 v=0
576 On ch=2 n=65 v=38
576 On ch=2 n=60 v=24
576 On ch=2 n=57 v=41
624 On ch=2 n=60 v=0
624 On ch=2 n=65 v=0
624 On ch=2 n=60 v=27
624 On ch=2 n=52 v=44
626 On ch=2 n=57 v=0
672 On ch=2 n=60 v=0
672 On ch=2 n=60 v=22
672 On ch=2 n=53 v=46
674 On ch=2 n=52 v=0
708 On ch=2 n=46 v=49
716 On ch=2 n=55 v=33
720 On ch=2 n=60 v=0
720 On ch=2 n=62 v=41
722 On ch=2 n=53 v=0
768 On ch=2 n=55 v=0
768 On ch=2 n=46 v=0
768 On ch=2 n=62 v=0
768 On ch=2 n=48 v=44
816 On ch=2 n=69 v=38
816 On ch=2 n=65 v=30
816 On ch=2 n=60 v=22
818 On ch=2 n=48 v=0
864 On ch=2 n=60 v=0
864 On ch=2 n=67 v=33
864 On ch=2 n=64 v=27
864 On ch=2 n=60 v=16
866 On ch=2 n=65 v=0
866 On ch=2 n=69 v=0
888 On ch=2 n=64 v=0
888 On ch=2 n=67 v=0
888 On ch=2 n=60 v=0
948 On ch=2 n=48 v=77
954 On ch=2 n=55 v=59
957 On ch=2 n=58 v=62
960 On ch=2 n=64 v=66
1066 On ch=2 n=64 v=0
1066 On ch=2 n=48 v=0
1066 On ch=2 n=55 v=0
1066 On ch=2 n=58 v=0
1080 On ch=2 n=69 v=55
1104 On ch=2 n=70 v=49
1104 On ch=2 n=67 v=57
1106 On ch=2 n=69 v=0
1128 On ch=2 n=69 v=46
1128 On ch=2 n=65 v=60
1130 On ch=2 n=67 v=0
1130 On ch=2 n=70 v=0
1144 On ch=2 n=48 v=66
1148 On ch=2 n=55 v=48
1150 On ch=2 n=58 v=51
1152 On ch=2 n=64 v=55
1154 On ch=2 n=69 v=0
1154 On ch=2 n=65 v=0
1260 On ch=2 n=58 v=0
1260 On ch=2 n=55 v=0
1260 On ch=2 n=64 v=0
1260 On ch=2 n=48 v=0
1272 On ch=2 n=65 v=33
1272 On ch=2 n=57 v=44
1294 On ch=2 n=57 v=0
1294 On ch=2 n=65 v=0
1296 On ch=2 n=65 v=35
1296 On ch=2 n=56 v=46
1318 On ch=2 n=56 v=0
1318 On ch=2 n=65 v=0
1320 On ch=2 n=65 v=29
1320 On ch=2 n=57 v=44
1342 On ch=2 n=57 v=0
1342 On ch=2 n=65 v=0
1344 On ch=2 n=65 v=33
1344 On ch=2 n=58 v=49
1392 On ch=2 n=58 v=0
1392 On ch=2 n=65 v=0
1392 On ch=2 n=53 v=27
1392 On ch=2 n=50 v=30
1392 On ch=2 n=46 v=44
1440 On ch=2 n=46 v=0
1440 On ch=2 n=50 v=0
1440 On ch=2 n=53 v=0
1440 On ch=2 n=57 v=33
1440 On ch=2 n=53 v=24
1440 On ch=2 n=48 v=52
1488 On ch=2 n=48 v=0
1488 On ch=2 n=53 v=0
1488 On ch=2 n=57 v=0
1488 On ch=2 n=58 v=44
1488 On ch=2 n=52 v=35
1488 On ch=2 n=48 v=57
1536 On ch=2 n=48 v=0
1536 On ch=2 n=52 v=0
1536 On ch=2 n=58 v=0
1536 On ch=2 n=64 v=49
1536 On ch=2 n=60 v=27
1536 On ch=2 n=58 v=36
1536 On ch=2 n=53 v=55
1584 On ch=2 n=41 v=44
1586 On ch=2 n=53 v=0
1632 On ch=2 n=65 v=44
1632 On ch=2 n=57 v=30
1632 On ch=2 n=53 v=49
1634 On ch=2 n=58 v=0
1634 On ch=2 n=41 v=0
1634 On ch=2 n=64 v=0
1642 On ch=2 n=65 v=0
1642 On ch=2 n=60 v=0
1642 On ch=2 n=57 v=0
1642 On ch=2 n=53 v=0
1644 On ch=2 n=60 v=55
1656 On ch=2 n=59 v=57
1658 On ch=2 n=60 v=0
1668 On ch=2 n=60 v=52
1670 On ch=2 n=59 v=0
1680 On ch=2 n=62 v=49
1682 On ch=2 n=60 v=0
1692 On ch=2 n=60 v=57
1694 On ch=2 n=62 v=0
1704 On ch=2 n=58 v=61
1706 On ch=2 n=60 v=0
1716 On ch=2 n=55 v=66
1718 On ch=2 n=58 v=0
1728 On ch=2 n=53 v=44
1728 On ch=2 n=41 v=60
1730 On ch=2 n=55 v=0
1740 On ch=2 n=60 v=30
1740 On ch=2 n=57 v=38
1742 On ch=2 n=41 v=0
1742 On ch=2 n=53 v=0
1746 On ch=2 n=60 v=0
1746 On ch=2 n=57 v=0
1752 On ch=2 n=60 v=33
1752 On ch=2 n=57 v=40
1760 On ch=2 n=57 v=0
1760 On ch=2 n=60 v=0
1764 On ch=2 n=60 v=29
1764 On ch=2 n=57 v=35
1770 On ch=2 n=57 v=0
1770 On ch=2 n=60 v=0
1776 On ch=2 n=53 v=52
1788 On ch=2 n=60 v=27
1788 On ch=2 n=57 v=35
1790 On ch=2 n=53 v=0
1794 On ch=2 n=57 v=0
1794 On ch=2 n=60 v=0
1800 On ch=2 n=60 v=29
1800 On ch=2 n=57 v=37
1808 On ch=2 n=57 v=0
1808 On ch=2 n=60 v=0
1812 On ch=2 n=60 v=26
1812 On ch=2 n=57 v=31
1818 On ch=2 n=57 v=0
1818 On ch=2 n=60 v=0
1824 On ch=2 n=46 v=33
1824 On ch=2 n=34 v=55
1836 On ch=2 n=62 v=30
1836 On ch=2 n=58 v=38
1838 On ch=2 n=34 v=0
1838 On ch=2 n=46 v=0
1842 On ch=2 n=62 v=0
1842 On ch=2 n=58 v=0
1848 On ch=2 n=62 v=33
1848 On ch=2 n=58 v=40
1856 On ch=2 n=58 v=0
1856 On ch=2 n=62 v=0
1860 On ch=2 n=62 v=29
1860 On ch=2 n=58 v=35
1866 On ch=2 n=58 v=0
1866 On ch=2 n=62 v=0
1872 On ch=2 n=46 v=49
1884 On ch=2 n=62 v=27
1884 On ch=2 n=58 v=35
1886 On ch=2 n=46 v=0
1890 On ch=2 n=58 v=0
1890 On ch=2 n=62 v=0
1896 On ch=2 n=62 v=29
1896 On ch=2 n=58 v=37
1904 On ch=2 n=58 v=0
1904 On ch=2 n=62 v=0
1908 On ch=2 n=62 v=35
1908 On ch=2 n=58 v=40
1914 On ch=2 n=58 v=0
1914 On ch=2 n=62 v=0
1920 On ch=2 n=48 v=44
1920 On ch=2 n=36 v=60
1932 On ch=2 n=60 v=30
1932 On ch=2 n=55 v=38
1934 On ch=2 n=36 v=0
1934 On ch=2 n=48 v=0
1938 On ch=2 n=60 v=0
1938 On ch=2 n=55 v=0
1944 On ch=2 n=60 v=33
1944 On ch=2 n=55 v=40
1952 On ch=2 n=55 v=0
1952 On ch=2 n=60 v=0
1956 On ch=2 n=60 v=29
1956 On ch=2 n=55 v=35
1962 On ch=2 n=55 v=0
1962 On ch=2 n=60 v=0
1968 On ch=2 n=48 v=52
1980 On ch=2 n=60 v=27
1980 On ch=2 n=55 v=35
1986 On ch=2 n=55 v=0
1986 On ch=2 n=60 v=0
1992 On ch=2 n=60 v=29
1992 On ch=2 n=55 v=37
2000 On ch=2 n=55 v=0
2000 On ch=2 n=60 v=0
2004 On ch=2 n=60 v=26
2004 On ch=2 n=55 v=31
2010 On ch=2 n=55 v=0
2010 On ch=2 n=60 v=0
2016 On ch=2 n=48 v=0
2016 On ch=2 n=48 v=49
2028 On ch=2 n=60 v=30
2028 On ch=2 n=55 v=22
2028 On ch=2 n=52 v=38
2034 On ch=2 n=52 v=0
2034 On ch=2 n=55 v=0
2034 On ch=2 n=60 v=0
2040 On ch=2 n=60 v=33
2040 On ch=2 n=55 v=19
2040 On ch=2 n=52 v=40
2048 On ch=2 n=52 v=0
2048 On ch=2 n=55 v=0
2048 On ch=2 n=60 v=0
2052 On ch=2 n=60 v=29
2052 On ch=2 n=55 v=22
2052 On ch=2 n=52 v=35
2058 On ch=2 n=52 v=0
2058 On ch=2 n=55 v=0
2058 On ch=2 n=60 v=0
2064 On ch=2 n=48 v=0
2064 On ch=2 n=46 v=55
2076 On ch=2 n=60 v=27
2076 On ch=2 n=55 v=16
2076 On ch=2 n=52 v=35
2082 On ch=2 n=52 v=0
2082 On ch=2 n=55 v=0
2082 On ch=2 n=60 v=0
2088 On ch=2 n=60 v=29
2088 On ch=2 n=55 v=19
2088 On ch=2 n=52 v=37
2096 On ch=2 n=52 v=0
2096 On ch=2 n=55 v=0
2096 On ch=2 n=60 v=0
2100 On ch=2 n=60 v=35
2100 On ch=2 n=55 v=22
2100 On ch=2 n=52 v=40
2106 On ch=2 n=52 v=0
2106 On ch=2 n=55 v=0
2106 On ch=2 n=60 v=0
2112 On ch=2 n=46 v=0
2112 On ch=2 n=45 v=60
2124 On ch=2 n=60 v=30
2124 On ch=2 n=53 v=38
2130 On ch=2 n=53 v=0
2130 On ch=2 n=60 v=0
2136 On ch=2 n=60 v=33
2136 On ch=2 n=53 v=40
2144 On ch=2 n=53 v=0
2144 On ch=2 n=60 v=0
2148 On ch=2 n=60 v=29
2148 On ch=2 n=53 v=35
2154 On ch=2 n=53 v=0
2154 On ch=2 n=60 v=0
2160 On ch=2 n=45 v=0
2160 On ch=2 n=52 v=52
2172 On ch=2 n=60 v=27
2172 On ch=2 n=58 v=35
2178 On ch=2 n=58 v=0
2178 On ch=2 n=60 v=0
2184 On ch=2 n=60 v=29
2184 On ch=2 n=58 v=37
2192 On ch=2 n=58 v=0
2192 On ch=2 n=60 v=0
2196 On ch=2 n=60 v=26
2196 On ch=2 n=58 v=31
2202 On ch=2 n=58 v=0
2202 On ch=2 n=60 v=0
2208 On ch=2 n=52 v=0
2208 On ch=2 n=53 v=55
2220 On ch=2 n=60 v=30
2220 On ch=2 n=57 v=38
2226 On ch=2 n=57 v=0
2226 On ch=2 n=60 v=0
2232 On ch=2 n=60 v=33
2232 On ch=2 n=57 v=40
2240 On ch=2 n=57 v=0
2240 On ch=2 n=60 v=0
2244 On ch=2 n=60 v=29
2244 On ch=2 n=57 v=35
2250 On ch=2 n=57 v=0
2250 On ch=2 n=60 v=0
2256 On ch=2 n=53 v=0
2256 On ch=2 n=46 v=60
2268 On ch=2 n=62 v=33
2268 On ch=2 n=58 v=40
2274 On ch=2 n=58 v=0
2274 On ch=2 n=62 v=0
2280 On ch=2 n=62 v=35
2280 On ch=2 n=58 v=42
2288 On ch=2 n=58 v=0
2288 On ch=2 n=62 v=0
2292 On ch=2 n=62 v=40
2292 On ch=2 n=58 v=46
2298 On ch=2 n=58 v=0
2298 On ch=2 n=62 v=0
2304 On ch=2 n=46 v=0
2304 On ch=2 n=48 v=55
2316 On ch=2 n=60 v=30
2316 On ch=2 n=57 v=38
2322 On ch=2 n=57 v=0
2322 On ch=2 n=60 v=0
2328 On ch=2 n=60 v=33
2328 On ch=2 n=57 v=40
2336 On ch=2 n=57 v=0
2336 On ch=2 n=60 v=0
2340 On ch=2 n=60 v=29
2340 On ch=2 n=57 v=35
2346 On ch=2 n=57 v=0
2346 On ch=2 n=60 v=0
2352 On ch=2 n=48 v=0
2352 On ch=2 n=48 v=52
2364 On ch=2 n=60 v=27
2364 On ch=2 n=57 v=35
2364 On ch=2 n=53 v=30
2370 On ch=2 n=53 v=0
2370 On ch=2 n=57 v=0
2370 On ch=2 n=60 v=0
2376 On ch=2 n=60 v=27
2376 On ch=2 n=57 v=37
2376 On ch=2 n=53 v=25
2384 On ch=2 n=53 v=0
2384 On ch=2 n=57 v=0
2384 On ch=2 n=60 v=0
2388 On ch=2 n=60 v=22
2388 On ch=2 n=57 v=31
2388 On ch=2 n=53 v=27
2394 On ch=2 n=53 v=0
2394 On ch=2 n=57 v=0
2394 On ch=2 n=60 v=0
2400 On ch=2 n=48 v=0
2400 On ch=2 n=48 v=49
2412 On ch=2 n=60 v=30
2412 On ch=2 n=55 v=22
2412 On ch=2 n=52 v=38
2418 On ch=2 n=52 v=0
2418 On ch=2 n=55 v=0
2418 On ch=2 n=60 v=0
2424 On ch=2 n=60 v=33
2424 On ch=2 n=55 v=19
2424 On ch=2 n=52 v=40
2432 On ch=2 n=52 v=0
2432 On ch=2 n=55 v=0
2432 On ch=2 n=60 v=0
2436 On ch=2 n=60 v=29
2436 On ch=2 n=55 v=22
2436 On ch=2 n=52 v=35
2442 On ch=2 n=52 v=0
2442 On ch=2 n=55 v=0
2442 On ch=2 n=60 v=0
2448 On ch=2 n=48 v=0
2448 On ch=2 n=48 v=55
2460 On ch=2 n=60 v=27
2460 On ch=2 n=55 v=16
2460 On ch=2 n=52 v=35
2466 On ch=2 n=52 v=0
2466 On ch=2 n=55 v=0
2466 On ch=2 n=60 v=0
2472 On ch=2 n=60 v=29
2472 On ch=2 n=55 v=19
2472 On ch=2 n=52 v=37
2480 On ch=2 n=52 v=0
2480 On ch=2 n=55 v=0
2480 On ch=2 n=60 v=0
2484 On ch=2 n=60 v=35
2484 On ch=2 n=55 v=22
2484 On ch=2 n=52 v=40
2490 On ch=2 n=52 v=0
2490 On ch=2 n=55 v=0
2490 On ch=2 n=60 v=0
2496 On ch=2 n=48 v=0
2508 On ch=2 n=48 v=71
2508 On ch=2 n=36 v=88
2518 On ch=2 n=36 v=0
2518 On ch=2 n=48 v=0
2520 On ch=2 n=52 v=68
2520 On ch=2 n=40 v=82
2530 On ch=2 n=40 v=0
2530 On ch=2 n=52 v=0
2532 On ch=2 n=48 v=70
2532 On ch=2 n=36 v=85
2542 On ch=2 n=36 v=0
2542 On ch=2 n=48 v=0
2544 On ch=2 n=52 v=66
2544 On ch=2 n=40 v=79
2554 On ch=2 n=40 v=0
2554 On ch=2 n=52 v=0
2556 On ch=2 n=48 v=68
2556 On ch=2 n=36 v=82
2566 On ch=2 n=36 v=0
2566 On ch=2 n=48 v=0
2568 On ch=2 n=52 v=63
2568 On ch=2 n=40 v=74
2578 On ch=2 n=40 v=0
2578 On ch=2 n=52 v=0
2580 On ch=2 n=55 v=60
2580 On ch=2 n=43 v=70
2590 On ch=2 n=43 v=0
2590 On ch=2 n=55 v=0
2592 On ch=2 n=58 v=55
2592 On ch=2 n=46 v=66
2602 On ch=2 n=46 v=0
2602 On ch=2 n=58 v=0
2616 On ch=2 n=60 v=44
2616 On ch=2 n=57 v=77
2640 On ch=2 n=58 v=66
2640 On ch=2 n=55 v=79
2642 On ch=2 n=57 v=0
2664 On ch=2 n=60 v=0
2664 On ch=2 n=60 v=49
2664 On ch=2 n=57 v=60
2664 On ch=2 n=53 v=82
2666 On ch=2 n=58 v=0
2666 On ch=2 n=55 v=0
2690 On ch=2 n=57 v=0
2690 On ch=2 n=60 v=0
2690 On ch=2 n=53 v=0
2700 On ch=2 n=48 v=66
2700 On ch=2 n=36 v=82
2710 On ch=2 n=36 v=0
2710 On ch=2 n=48 v=0
2712 On ch=2 n=52 v=62
2712 On ch=2 n=40 v=77
2722 On ch=2 n=40 v=0
2722 On ch=2 n=52 v=0
2724 On ch=2 n=48 v=64
2724 On ch=2 n=36 v=80
2734 On ch=2 n=36 v=0
2734 On ch=2 n=48 v=0
2736 On ch=2 n=52 v=60
2736 On ch=2 n=40 v=73
2746 On ch=2 n=40 v=0
2746 On ch=2 n=52 v=0
2748 On ch=2 n=48 v=62
2748 On ch=2 n=36 v=77
2758 On ch=2 n=36 v=0
2758 On ch=2 n=48 v=0
2760 On ch=2 n=52 v=58
2760 On ch=2 n=40 v=69
2770 On ch=2 n=40 v=0
2770 On ch=2 n=52 v=0
2772 On ch=2 n=55 v=55
2772 On ch=2 n=43 v=64
2782 On ch=2 n=43 v=0
2782 On ch=2 n=55 v=0
2784 On ch=2 n=58 v=49
2784 On ch=2 n=46 v=60
2794 On ch=2 n=46 v=0
2794 On ch=2 n=58 v=0
2808 On ch=2 n=60 v=49
2808 On ch=2 n=57 v=71
2832 On ch=2 n=59 v=69
2832 On ch=2 n=56 v=77
2834 On ch=2 n=57 v=0
2834 On ch=2 n=60 v=0
2856 On ch=2 n=60 v=56
2856 On ch=2 n=57 v=70
2858 On ch=2 n=59 v=0
2858 On ch=2 n=56 v=0
2880 On ch=2 n=55 v=57
2880 On ch=2 n=53 v=46
2880 On ch=2 n=46 v=68
2882 On ch=2 n=60 v=0
2882 On ch=2 n=57 v=0
2928 On ch=2 n=47 v=62
2930 On ch=2 n=46 v=0
2952 On ch=2 n=53 v=0
2952 On ch=2 n=55 v=0
2952 On ch=2 n=55 v=33
2952 On ch=2 n=53 v=46
2952 On ch=2 n=50 v=24
2976 On ch=2 n=50 v=0
2976 On ch=2 n=53 v=0
2976 On ch=2 n=55 v=0
2976 On ch=2 n=57 v=40
2976 On ch=2 n=53 v=31
2976 On ch=2 n=48 v=60
2978 On ch=2 n=47 v=0
3024 On ch=2 n=57 v=0
3024 On ch=2 n=53 v=0
3024 On ch=2 n=48 v=0
3024 On ch=2 n=58 v=44
3024 On ch=2 n=52 v=37
3024 On ch=2 n=48 v=53
3072 On ch=2 n=48 v=0
3072 On ch=2 n=52 v=0
3072 On ch=2 n=58 v=0
3072 On ch=2 n=57 v=41
3072 On ch=2 n=53 v=49
3112 On ch=2 n=53 v=0
3112 On ch=2 n=57 v=0
3120 On ch=2 n=57 v=88
3120 On ch=2 n=45 v=110
3162 On ch=2 n=45 v=0
3162 On ch=2 n=57 v=0
3162 On ch=2 n=57 v=85
3162 On ch=2 n=45 v=104
3168 On ch=2 n=50 v=82
3168 On ch=2 n=38 v=115
3170 On ch=2 n=45 v=0
3170 On ch=2 n=57 v=0
3208 On ch=2 n=50 v=0
3208 On ch=2 n=38 v=0
3216 On ch=2 n=62 v=88
3216 On ch=2 n=50 v=110
3258 On ch=2 n=50 v=0
3258 On ch=2 n=62 v=0
3258 On ch=2 n=62 v=85
3258 On ch=2 n=50 v=104
3264 On ch=2 n=55 v=82
3264 On ch=2 n=43 v=115
3266 On ch=2 n=50 v=0
3266 On ch=2 n=62 v=0
3304 On ch=2 n=55 v=0
3304 On ch=2 n=43 v=0
3312 On ch=2 n=58 v=88
3312 On ch=2 n=46 v=110
3354 On ch=2 n=46 v=0
3354 On ch=2 n=58 v=0
3354 On ch=2 n=58 v=85
3354 On ch=2 n=46 v=104
3360 On ch=2 n=49 v=93
3360 On ch=2 n=37 v=126
3362 On ch=2 n=46 v=0
3362 On ch=2 n=58 v=0
3400 On ch=2 n=49 v=0
3400 On ch=2 n=37 v=0
3408 On ch=2 n=50 v=85
3408 On ch=2 n=38 v=115
3444 On ch=2 n=38 v=0
3444 On ch=2 n=50 v=0
3456 On ch=2 n=46 v=49
3456 On ch=2 n=34 v=66
3504 On ch=2 n=46 v=0
3504 On ch=2 n=55 v=44
3504 On ch=2 n=53 v=35
3504 On ch=2 n=50 v=16
3504 On ch=2 n=46 v=30
3506 On ch=2 n=34 v=0
3552 On ch=2 n=50 v=0
3552 On ch=2 n=55 v=0
3552 On ch=2 n=53 v=0
3552 On ch=2 n=46 v=0
3552 On ch=2 n=57 v=52
3552 On ch=2 n=53 v=27
3552 On ch=2 n=48 v=55
3576 On ch=2 n=60 v=47
3578 On ch=2 n=57 v=0
3600 On ch=2 n=48 v=0
3600 On ch=2 n=58 v=49
3600 On ch=2 n=52 v=36
3600 On ch=2 n=48 v=46
3602 On ch=2 n=53 v=0
3602 On ch=2 n=60 v=0
3624 On ch=2 n=55 v=39
3626 On ch=2 n=52 v=0
3648 On ch=2 n=48 v=0
3648 On ch=2 n=57 v=33
3648 On ch=2 n=53 v=44
3650 On ch=2 n=58 v=0
3650 On ch=2 n=55 v=0
3688 On ch=2 n=57 v=0
3688 On ch=2 n=53 v=0
3696 On ch=2 n=53 v=30
3696 On ch=2 n=41 v=49
3738 On ch=2 n=41 v=0
3738 On ch=2 n=53 v=0
3738 On ch=2 n=53 v=27
3738 On ch=2 n=41 v=41
3743 On ch=2 n=41 v=0
3743 On ch=2 n=53 v=0
3744 On ch=2 n=53 v=22
3744 On ch=2 n=41 v=44
3792 On ch=2 n=41 v=0
3792 On ch=2 n=53 v=0
3840 On ch=2 n=53 v=49
3864 On ch=2 n=60 v=41
3888 On ch=2 n=53 v=0
3888 On ch=2 n=65 v=35
3890 On ch=2 n=60 v=0
3912 On ch=2 n=69 v=30
3914 On ch=2 n=65 v=0
3936 On ch=2 n=67 v=33
3936 On ch=2 n=58 v=44
3938 On ch=2 n=69 v=0
3960 On ch=2 n=72 v=40
3962 On ch=2 n=67 v=0
3984 On ch=2 n=58 v=0
3984 On ch=2 n=64 v=47
3986 On ch=2 n=72 v=0
4008 On ch=2 n=67 v=44
4010 On ch=2 n=64 v=0
4032 On ch=2 n=57 v=49
4034 On ch=2 n=67 v=0
4056 On ch=2 n=60 v=38
4080 On ch=2 n=57 v=0
4080 On ch=2 n=65 v=36
4082 On ch=2 n=60 v=0
4104 On ch=2 n=69 v=30
4106 On ch=2 n=65 v=0
4128 On ch=2 n=60 v=33
4128 On ch=2 n=52 v=44
4130 On ch=2 n=69 v=0
4152 On ch=2 n=58 v=37
4154 On ch=2 n=60 v=0
4176 On ch=2 n=52 v=0
4176 On ch=2 n=55 v=41
4178 On ch=2 n=58 v=0
4200 On ch=2 n=60 v=38
4202 On ch=2 n=55 v=0
4224 On ch=2 n=53 v=49
4226 On ch=2 n=60 v=0
4248 On ch=2 n=53 v=0
4248 On ch=2 n=53 v=38
4272 On ch=2 n=57 v=35
4274 On ch=2 n=53 v=0
4296 On ch=2 n=60 v=41
4298 On ch=2 n=57 v=0
4320 On ch=2 n=58 v=44
4320 On ch=2 n=46 v=52
4322 On ch=2 n=60 v=0
4344 On ch=2 n=60 v=39
4346 On ch=2 n=58 v=0
4368 On ch=2 n=46 v=0
4368 On ch=2 n=62 v=36
4370 On ch=2 n=60 v=0
4392 On ch=2 n=58 v=38
4392 On ch=2 n=55 v=41
4394 On ch=2 n=62 v=0
4416 On ch=2 n=48 v=55
4418 On ch=2 n=55 v=0
4418 On ch=2 n=58 v=0
4440 On ch=2 n=57 v=44
4440 On ch=2 n=53 v=33
4464 On ch=2 n=57 v=0
4464 On ch=2 n=48 v=0
4464 On ch=2 n=60 v=46
4464 On ch=2 n=57 v=30
4466 On ch=2 n=53 v=0
4488 On ch=2 n=57 v=0
4488 On ch=2 n=57 v=41
4488 On ch=2 n=53 v=27
4490 On ch=2 n=60 v=0
4512 On ch=2 n=53 v=0
4512 On ch=2 n=57 v=0
4512 On ch=2 n=55 v=36
4512 On ch=2 n=52 v=22
4512 On ch=2 n=48 v=44
4528 On ch=2 n=48 v=0
4528 On ch=2 n=52 v=0
4528 On ch=2 n=55 v=0
4536 On ch=2 n=55 v=55
4536 On ch=2 n=43 v=77
4560 On ch=2 n=52 v=60
4560 On ch=2 n=40 v=79
4562 On ch=2 n=43 v=0
4562 On ch=2 n=55 v=0
4584 On ch=2 n=50 v=63
4584 On ch=2 n=38 v=84
4586 On ch=2 n=52 v=0
4586 On ch=2 n=40 v=0
4608 On ch=2 n=49 v=71
4608 On ch=2 n=37 v=88
4610 On ch=2 n=50 v=0
4610 On ch=2 n=38 v=0
4632 On ch=2 n=64 v=55
4632 On ch=2 n=61 v=49
4632 On ch=2 n=57 v=38
4634 On ch=2 n=49 v=0
4634 On ch=2 n=37 v=0
4646 On ch=2 n=61 v=0
4646 On ch=2 n=64 v=0
4646 On ch=2 n=57 v=0
4656 On ch=2 n=64 v=47
4656 On ch=2 n=61 v=41
4656 On ch=2 n=57 v=30
4674 On ch=2 n=57 v=0
4674 On ch=2 n=61 v=0
4674 On ch=2 n=64 v=0
4680 On ch=2 n=64 v=41
4680 On ch=2 n=61 v=36
4680 On ch=2 n=57 v=25
4696 On ch=2 n=57 v=0
4696 On ch=2 n=61 v=0
4696 On ch=2 n=64 v=0
4704 On ch=2 n=45 v=33
4704 On ch=2 n=33 v=49
4728 On ch=2 n=67 v=33
4728 On ch=2 n=64 v=19
4728 On ch=2 n=61 v=27
4728 On ch=2 n=57 v=16
4730 On ch=2 n=33 v=0
4730 On ch=2 n=45 v=0
4742 On ch=2 n=61 v=0
4742 On ch=2 n=64 v=0
4742 On ch=2 n=57 v=0
4742 On ch=2 n=67 v=0
4752 On ch=2 n=67 v=38
4752 On ch=2 n=64 v=24
4752 On ch=2 n=61 v=33
4752 On ch=2 n=57 v=22
4770 On ch=2 n=57 v=0
4770 On ch=2 n=67 v=0
4770 On ch=2 n=64 v=0
4770 On ch=2 n=61 v=0
4776 On ch=2 n=67 v=35
4776 On ch=2 n=64 v=22
4776 On ch=2 n=61 v=29
4776 On ch=2 n=57 v=18
4792 On ch=2 n=57 v=0
4792 On ch=2 n=67 v=0
4792 On ch=2 n=64 v=0
4792 On ch=2 n=61 v=0
4800 On ch=2 n=50 v=38
4800 On ch=2 n=38 v=55
4824 On ch=2 n=65 v=33
4824 On ch=2 n=62 v=27
4824 On ch=2 n=57 v=16
4826 On ch=2 n=38 v=0
4826 On ch=2 n=50 v=0
4838 On ch=2 n=62 v=0
4838 On ch=2 n=65 v=0
4838 On ch=2 n=57 v=0
4848 On ch=2 n=65 v=38
4848 On ch=2 n=62 v=28
4848 On ch=2 n=57 v=22
4866 On ch=2 n=57 v=0
4866 On ch=2 n=62 v=0
4866 On ch=2 n=65 v=0
4872 On ch=2 n=65 v=35
4872 On ch=2 n=62 v=29
4872 On ch=2 n=57 v=18
4888 On ch=2 n=57 v=0
4888 On ch=2 n=62 v=0
4888 On ch=2 n=65 v=0
4896 On ch=2 n=55 v=33
4896 On ch=2 n=43 v=49
4920 On ch=2 n=55 v=0
4920 On ch=2 n=64 v=33
4920 On ch=2 n=62 v=19
4920 On ch=2 n=58 v=27
4920 On ch=2 n=55 v=16
4922 On ch=2 n=43 v=0
4934 On ch=2 n=58 v=0
4934 On ch=2 n=64 v=0
4934 On ch=2 n=62 v=0
4934 On ch=2 n=55 v=0
4944 On ch=2 n=64 v=38
4944 On ch=2 n=62 v=24
4944 On ch=2 n=58 v=33
4944 On ch=2 n=55 v=22
4962 On ch=2 n=55 v=0
4962 On ch=2 n=64 v=0
4962 On ch=2 n=62 v=0
4962 On ch=2 n=58 v=0
4968 On ch=2 n=64 v=42
4968 On ch=2 n=62 v=29
4968 On ch=2 n=58 v=37
4968 On ch=2 n=55 v=26
4984 On ch=2 n=55 v=0
4984 On ch=2 n=64 v=0
4984 On ch=2 n=62 v=0
4984 On ch=2 n=58 v=0
4992 On ch=2 n=57 v=44
4992 On ch=2 n=45 v=60
5016 On ch=2 n=57 v=0
5016 On ch=2 n=65 v=33
5016 On ch=2 n=62 v=27
5016 On ch=2 n=57 v=16
5018 On ch=2 n=45 v=0
5030 On ch=2 n=65 v=0
5030 On ch=2 n=62 v=0
5030 On ch=2 n=57 v=0
5040 On ch=2 n=57 v=35
5040 On ch=2 n=45 v=49
5064 On ch=2 n=57 v=0
5064 On ch=2 n=65 v=33
5064 On ch=2 n=62 v=27
5064 On ch=2 n=57 v=16
5066 On ch=2 n=45 v=0
5080 On ch=2 n=65 v=0
5080 On ch=2 n=62 v=0
5080 On ch=2 n=57 v=0
5088 On ch=2 n=45 v=38
5088 On ch=2 n=33 v=55
5112 On ch=2 n=65 v=33
5112 On ch=2 n=62 v=19
5112 On ch=2 n=57 v=16
5114 On ch=2 n=33 v=0
5114 On ch=2 n=45 v=0
5126 On ch=2 n=62 v=0
5126 On ch=2 n=65 v=0
5126 On ch=2 n=57 v=0
5136 On ch=2 n=45 v=36
5136 On ch=2 n=33 v=49
5160 On ch=2 n=61 v=33
5160 On ch=2 n=57 v=17
5160 On ch=2 n=55 v=29
5162 On ch=2 n=33 v=0
5162 On ch=2 n=45 v=0
5176 On ch=2 n=57 v=0
5176 On ch=2 n=61 v=0
5176 On ch=2 n=55 v=0
5184 On ch=2 n=50 v=30
5184 On ch=2 n=38 v=44
5204 On ch=2 n=38 v=0
5204 On ch=2 n=50 v=0
5208 On ch=2 n=53 v=96
5232 On ch=2 n=57 v=99
5234 On ch=2 n=53 v=0
5256 On ch=2 n=55 v=94
5258 On ch=2 n=57 v=0
5280 On ch=2 n=53 v=91
5282 On ch=2 n=55 v=0
5304 On ch=2 n=52 v=88
5306 On ch=2 n=53 v=0
5328 On ch=2 n=50 v=83
5330 On ch=2 n=52 v=0
5352 On ch=2 n=48 v=80
5354 On ch=2 n=50 v=0
5376 On ch=2 n=47 v=55
5376 On ch=2 n=35 v=77
5378 On ch=2 n=48 v=0
5400 On ch=2 n=65 v=74
5400 On ch=2 n=62 v=52
5400 On ch=2 n=55 v=66
5414 On ch=2 n=55 v=0
5414 On ch=2 n=65 v=0
5414 On ch=2 n=62 v=0
5424 On ch=2 n=65 v=61
5424 On ch=2 n=62 v=39
5424 On ch=2 n=55 v=52
5442 On ch=2 n=55 v=0
5442 On ch=2 n=65 v=0
5442 On ch=2 n=62 v=0
5448 On ch=2 n=65 v=52
5448 On ch=2 n=62 v=30
5448 On ch=2 n=55 v=44
5464 On ch=2 n=55 v=0
5464 On ch=2 n=65 v=0
5464 On ch=2 n=62 v=0
5472 On ch=2 n=35 v=0
5472 On ch=2 n=47 v=0
5472 On ch=2 n=43 v=33
5472 On ch=2 n=31 v=49
5496 On ch=2 n=59 v=35
5496 On ch=2 n=55 v=17
5496 On ch=2 n=53 v=20
5496 On ch=2 n=50 v=26
5510 On ch=2 n=50 v=0
5510 On ch=2 n=55 v=0
5510 On ch=2 n=59 v=0
5510 On ch=2 n=53 v=0
5520 On ch=2 n=59 v=38
5520 On ch=2 n=55 v=11
5520 On ch=2 n=53 v=17
5520 On ch=2 n=50 v=30
5538 On ch=2 n=50 v=0
5538 On ch=2 n=55 v=0
5538 On ch=2 n=59 v=0
5538 On ch=2 n=53 v=0
5544 On ch=2 n=59 v=33
5544 On ch=2 n=55 v=13
5544 On ch=2 n=53 v=19
5544 On ch=2 n=50 v=24
5560 On ch=2 n=50 v=0
5560 On ch=2 n=55 v=0
5560 On ch=2 n=59 v=0
5560 On ch=2 n=53 v=0
5568 On ch=2 n=43 v=0
5568 On ch=2 n=31 v=0
5568 On ch=2 n=48 v=38
5568 On ch=2 n=36 v=55
5592 On ch=2 n=60 v=33
5592 On ch=2 n=55 v=27
5592 On ch=2 n=52 v=16
5594 On ch=2 n=36 v=0
5594 On ch=2 n=48 v=0
5606 On ch=2 n=55 v=0
5606 On ch=2 n=60 v=0
5606 On ch=2 n=52 v=0
5616 On ch=2 n=60 v=38
5616 On ch=2 n=55 v=28
5616 On ch=2 n=52 v=22
5634 On ch=2 n=52 v=0
5634 On ch=2 n=55 v=0
5634 On ch=2 n=60 v=0
5640 On ch=2 n=60 v=35
5640 On ch=2 n=55 v=29
5640 On ch=2 n=52 v=18
5656 On ch=2 n=52 v=0
5656 On ch=2 n=55 v=0
5656 On ch=2 n=60 v=0
5664 On ch=2 n=52 v=33
5664 On ch=2 n=40 v=49
5688 On ch=2 n=52 v=0
5688 On ch=2 n=60 v=33
5688 On ch=2 n=55 v=19
5688 On ch=2 n=52 v=27
5690 On ch=2 n=40 v=0
5702 On ch=2 n=60 v=0
5702 On ch=2 n=55 v=0
5702 On ch=2 n=52 v=0
5712 On ch=2 n=60 v=38
5712 On ch=2 n=55 v=24
5712 On ch=2 n=52 v=33
5730 On ch=2 n=52 v=0
5730 On ch=2 n=55 v=0
5730 On ch=2 n=60 v=0
5736 On ch=2 n=60 v=42
5736 On ch=2 n=55 v=29
5736 On ch=2 n=52 v=37
5752 On ch=2 n=52 v=0
5752 On ch=2 n=55 v=0
5752 On ch=2 n=60 v=0
5760 On ch=2 n=53 v=44
5760 On ch=2 n=41 v=60
5784 On ch=2 n=53 v=0
5784 On ch=2 n=62 v=33
5784 On ch=2 n=60 v=27
5784 On ch=2 n=57 v=16
5786 On ch=2 n=41 v=0
5798 On ch=2 n=62 v=0
5798 On ch=2 n=60 v=0
5798 On ch=2 n=57 v=0
5808 On ch=2 n=53 v=49
5826 On ch=2 n=53 v=0
5832 On ch=2 n=62 v=33
5832 On ch=2 n=60 v=27
5832 On ch=2 n=57 v=16
5848 On ch=2 n=57 v=0
5848 On ch=2 n=60 v=0
5848 On ch=2 n=62 v=0
5856 On ch=2 n=53 v=38
5856 On ch=2 n=41 v=55
5876 On ch=2 n=41 v=0
5876 On ch=2 n=53 v=0
5880 On ch=2 n=62 v=33
5880 On ch=2 n=60 v=19
5880 On ch=2 n=57 v=16
5894 On ch=2 n=57 v=0
5894 On ch=2 n=60 v=0
5894 On ch=2 n=62 v=0
5904 On ch=2 n=53 v=44
5920 On ch=2 n=53 v=0
5928 On ch=2 n=62 v=33
5928 On ch=2 n=60 v=17
5928 On ch=2 n=57 v=29
5940 On ch=2 n=57 v=0
5940 On ch=2 n=60 v=0
5940 On ch=2 n=62 v=0
5952 On ch=2 n=43 v=38
5952 On ch=2 n=31 v=55
5976 On ch=2 n=64 v=33
5976 On ch=2 n=60 v=27
5976 On ch=2 n=55 v=16
5978 On ch=2 n=31 v=0
5978 On ch=2 n=43 v=0
5990 On ch=2 n=60 v=0
5990 On ch=2 n=64 v=0
5990 On ch=2 n=55 v=0
6000 On ch=2 n=64 v=38
6000 On ch=2 n=60 v=28
6000 On ch=2 n=55 v=22
6018 On ch=2 n=55 v=0
6018 On ch=2 n=60 v=0
6018 On ch=2 n=64 v=0
6024 On ch=2 n=64 v=35
6024 On ch=2 n=60 v=29
6024 On ch=2 n=55 v=18
6040 On ch=2 n=55 v=0
6040 On ch=2 n=60 v=0
6040 On ch=2 n=64 v=0
6048 On ch=2 n=64 v=38
6048 On ch=2 n=60 v=27
6048 On ch=2 n=55 v=22
6072 On ch=2 n=55 v=0
6072 On ch=2 n=60 v=0
6072 On ch=2 n=64 v=0
6144 On ch=2 n=43 v=38
6144 On ch=2 n=31 v=55
6168 On ch=2 n=65 v=44
6168 On ch=2 n=62 v=30
6168 On ch=2 n=60 v=38
6168 On ch=2 n=55 v=27
6170 On ch=2 n=31 v=0
6170 On ch=2 n=43 v=0
6182 On ch=2 n=60 v=0
6182 On ch=2 n=62 v=0
6182 On ch=2 n=55 v=0
6182 On ch=2 n=65 v=0
6192 On ch=2 n=65 v=55
6192 On ch=2 n=62 v=55
6192 On ch=2 n=60 v=45
6192 On ch=2 n=55 v=38
6210 On ch=2 n=55 v=0
6210 On ch=2 n=65 v=0
6210 On ch=2 n=62 v=0
6210 On ch=2 n=60 v=0
6216 On ch=2 n=65 v=68
6216 On ch=2 n=62 v=68
6216 On ch=2 n=60 v=62
6216 On ch=2 n=55 v=51
6232 On ch=2 n=55 v=0
6232 On ch=2 n=65 v=0
6232 On ch=2 n=62 v=0
6232 On ch=2 n=60 v=0
6240 On ch=2 n=43 v=77
6240 On ch=2 n=31 v=99
6257 On ch=2 n=55 v=88
6260 On ch=2 n=59 v=84
6262 On ch=2 n=55 v=0
6262 On ch=2 n=62 v=89
6264 On ch=2 n=43 v=0
6264 On ch=2 n=59 v=0
6264 On ch=2 n=31 v=0
6264 On ch=2 n=65 v=93
6266 On ch=2 n=62 v=0
6270 On ch=2 n=64 v=91
6272 On ch=2 n=65 v=0
6276 On ch=2 n=62 v=89
6278 On ch=2 n=64 v=0
6282 On ch=2 n=60 v=86
6284 On ch=2 n=62 v=0
6288 On ch=2 n=59 v=90
6290 On ch=2 n=60 v=0
6294 On ch=2 n=57 v=88
6296 On ch=2 n=59 v=0
6300 On ch=2 n=55 v=85
6302 On ch=2 n=57 v=0
6306 On ch=2 n=53 v=83
6308 On ch=2 n=55 v=0
6312 On ch=2 n=52 v=86
6314 On ch=2 n=53 v=0
6318 On ch=2 n=50 v=84
6320 On ch=2 n=52 v=0
6324 On ch=2 n=48 v=88
6326 On ch=2 n=50 v=0
6330 On ch=2 n=47 v=93
6332 On ch=2 n=48 v=0
6336 On ch=2 n=48 v=77
6336 On ch=2 n=36 v=99
6338 On ch=2 n=47 v=0
6408 On ch=2 n=36 v=0
6408 On ch=2 n=48 v=0
6426 On ch=2 n=48 v=82
6426 On ch=2 n=36 v=104
6432 On ch=2 n=36 v=0
6432 On ch=2 n=48 v=0
6432 On ch=2 n=53 v=88
6432 On ch=2 n=48 v=66
6432 On ch=2 n=41 v=112
6472 On ch=2 n=41 v=0
6472 On ch=2 n=48 v=0
6472 On ch=2 n=53 v=0
6474 On ch=2 n=53 v=82
6474 On ch=2 n=48 v=55
6474 On ch=2 n=41 v=107
6480 On ch=2 n=41 v=0
6480 On ch=2 n=48 v=0
6480 On ch=2 n=53 v=0
6480 On ch=2 n=53 v=91
6480 On ch=2 n=48 v=69
6480 On ch=2 n=45 v=115
6520 On ch=2 n=45 v=0
6520 On ch=2 n=48 v=0
6520 On ch=2 n=53 v=0
6522 On ch=2 n=53 v=85
6522 On ch=2 n=48 v=58
6522 On ch=2 n=45 v=111
6528 On ch=2 n=45 v=0
6528 On ch=2 n=48 v=0
6528 On ch=2 n=53 v=0
6528 On ch=2 n=55 v=66
6528 On ch=2 n=52 v=99
6528 On ch=2 n=48 v=104
6542 On ch=2 n=48 v=0
6542 On ch=2 n=52 v=0
6542 On ch=2 n=55 v=0
6618 On ch=2 n=64 v=49
6618 On ch=2 n=60 v=46
6624 On ch=2 n=60 v=0
6624 On ch=2 n=64 v=0
6624 On ch=2 n=65 v=44
6624 On ch=2 n=60 v=33
6624 On ch=2 n=53 v=51
6664 On ch=2 n=53 v=0
6664 On ch=2 n=60 v=0
6664 On ch=2 n=65 v=0
6666 On ch=2 n=65 v=41
6666 On ch=2 n=60 v=30
6666 On ch=2 n=53 v=47
6672 On ch=2 n=53 v=0
6672 On ch=2 n=60 v=0
6672 On ch=2 n=65 v=0
6672 On ch=2 n=65 v=46
6672 On ch=2 n=60 v=35
6672 On ch=2 n=57 v=55
6712 On ch=2 n=57 v=0
6712 On ch=2 n=60 v=0
6712 On ch=2 n=65 v=0
6714 On ch=2 n=65 v=44
6714 On ch=2 n=60 v=33
6714 On ch=2 n=57 v=50
6720 On ch=2 n=57 v=0
6720 On ch=2 n=60 v=0
6720 On ch=2 n=65 v=0
6720 On ch=2 n=64 v=38
6720 On ch=2 n=60 v=44
6768 On ch=2 n=60 v=0
6768 On ch=2 n=64 v=0
6810 On ch=2 n=48 v=82
6810 On ch=2 n=36 v=104
6816 On ch=2 n=36 v=0
6816 On ch=2 n=48 v=0
6816 On ch=2 n=53 v=88
6816 On ch=2 n=48 v=66
6816 On ch=2 n=41 v=112
6856 On ch=2 n=41 v=0
6856 On ch=2 n=48 v=0
6856 On ch=2 n=53 v=0
6858 On ch=2 n=53 v=82
6858 On ch=2 n=48 v=55
6858 On ch=2 n=41 v=107
6864 On ch=2 n=41 v=0
6864 On ch=2 n=48 v=0
6864 On ch=2 n=53 v=0
6864 On ch=2 n=53 v=91
6864 On ch=2 n=48 v=69
6864 On ch=2 n=44 v=115
6904 On ch=2 n=44 v=0
6904 On ch=2 n=48 v=0
6904 On ch=2 n=53 v=0
6906 On ch=2 n=53 v=85
6906 On ch=2 n=48 v=58
6906 On ch=2 n=44 v=111
6912 On ch=2 n=44 v=0
6912 On ch=2 n=48 v=0
6912 On ch=2 n=53 v=0
6912 On ch=2 n=55 v=66
6912 On ch=2 n=52 v=99
6912 On ch=2 n=48 v=104
6926 On ch=2 n=48 v=0
6926 On ch=2 n=52 v=0
6926 On ch=2 n=55 v=0
7002 On ch=2 n=64 v=49
7002 On ch=2 n=60 v=46
7008 On ch=2 n=60 v=0
7008 On ch=2 n=64 v=0
7008 On ch=2 n=65 v=44
7008 On ch=2 n=60 v=33
7008 On ch=2 n=53 v=51
7048 On ch=2 n=53 v=0
7048 On ch=2 n=60 v=0
7048 On ch=2 n=65 v=0
7050 On ch=2 n=65 v=41
7050 On ch=2 n=60 v=30
7050 On ch=2 n=53 v=47
7056 On ch=2 n=53 v=0
7056 On ch=2 n=60 v=0
7056 On ch=2 n=65 v=0
7056 On ch=2 n=65 v=46
7056 On ch=2 n=60 v=35
7056 On ch=2 n=56 v=55
7096 On ch=2 n=56 v=0
7096 On ch=2 n=60 v=0
7096 On ch=2 n=65 v=0
7098 On ch=2 n=65 v=44
7098 On ch=2 n=60 v=33
7098 On ch=2 n=56 v=50
7104 On ch=2 n=56 v=0
7104 On ch=2 n=60 v=0
7104 On ch=2 n=65 v=0
7104 On ch=2 n=64 v=38
7104 On ch=2 n=60 v=55
7128 On ch=2 n=60 v=0
7128 On ch=2 n=64 v=0
7128 On ch=2 n=67 v=44
7128 On ch=2 n=64 v=38
7128 On ch=2 n=60 v=22
7144 On ch=2 n=60 v=0
7144 On ch=2 n=64 v=0
7144 On ch=2 n=67 v=0
7152 On ch=2 n=53 v=49
7176 On ch=2 n=53 v=0
7176 On ch=2 n=65 v=41
7176 On ch=2 n=60 v=22
7176 On ch=2 n=56 v=35
7192 On ch=2 n=56 v=0
7192 On ch=2 n=60 v=0
7192 On ch=2 n=65 v=0
7194 On ch=2 n=48 v=52
7200 On ch=2 n=55 v=33
7203 On ch=2 n=64 v=41
7218 On ch=2 n=48 v=0
7224 On ch=2 n=64 v=0
7224 On ch=2 n=55 v=0
7224 On ch=2 n=67 v=44
7224 On ch=2 n=64 v=38
7224 On ch=2 n=60 v=22
7240 On ch=2 n=60 v=0
7240 On ch=2 n=64 v=0
7240 On ch=2 n=67 v=0
7248 On ch=2 n=53 v=57
7272 On ch=2 n=53 v=0
7272 On ch=2 n=65 v=49
7272 On ch=2 n=60 v=29
7272 On ch=2 n=56 v=42
7288 On ch=2 n=56 v=0
7288 On ch=2 n=60 v=0
7288 On ch=2 n=65 v=0
7292 On ch=2 n=48 v=60
7296 On ch=2 n=55 v=38
7298 On ch=2 n=64 v=46
7316 On ch=2 n=64 v=0
7316 On ch=2 n=55 v=0
7316 On ch=2 n=48 v=0
7320 On ch=2 n=67 v=51
7320 On ch=2 n=64 v=46
7320 On ch=2 n=60 v=29
7336 On ch=2 n=60 v=0
7336 On ch=2 n=64 v=0
7336 On ch=2 n=67 v=0
7344 On ch=2 n=48 v=58
7368 On ch=2 n=48 v=0
7368 On ch=2 n=69 v=45
7368 On ch=2 n=66 v=25
7368 On ch=2 n=60 v=38
7384 On ch=2 n=60 v=0
7384 On ch=2 n=66 v=0
7384 On ch=2 n=69 v=0
7392 On ch=2 n=48 v=55
7416 On ch=2 n=48 v=0
7416 On ch=2 n=70 v=39
7416 On ch=2 n=67 v=19
7416 On ch=2 n=60 v=33
7432 On ch=2 n=60 v=0
7432 On ch=2 n=67 v=0
7432 On ch=2 n=70 v=0
7440 On ch=2 n=48 v=59
7464 On ch=2 n=48 v=0
7464 On ch=2 n=67 v=41
7464 On ch=2 n=64 v=22
7464 On ch=2 n=58 v=35
7480 On ch=2 n=58 v=0
7480 On ch=2 n=64 v=0
7480 On ch=2 n=67 v=0
7488 On ch=2 n=48 v=48
7488 On ch=2 n=36 v=62
7512 On ch=2 n=36 v=0
7512 On ch=2 n=48 v=0
7512 On ch=2 n=64 v=44
7512 On ch=2 n=58 v=24
7512 On ch=2 n=55 v=37
7528 On ch=2 n=55 v=0
7528 On ch=2 n=58 v=0
7528 On ch=2 n=64 v=0
7536 On ch=2 n=48 v=40
7536 On ch=2 n=36 v=55
7560 On ch=2 n=36 v=0
7560 On ch=2 n=48 v=0
7560 On ch=2 n=64 v=38
7560 On ch=2 n=58 v=18
7560 On ch=2 n=55 v=31
7576 On ch=2 n=55 v=0
7576 On ch=2 n=58 v=0
7576 On ch=2 n=64 v=0
7680 On ch=2 n=53 v=33
7680 On ch=2 n=41 v=49
7704 On ch=2 n=41 v=0
7704 On ch=2 n=53 v=0
7704 On ch=2 n=65 v=41
7704 On ch=2 n=60 v=27
7704 On ch=2 n=57 v=33
7724 On ch=2 n=57 v=0
7724 On ch=2 n=60 v=0
7724 On ch=2 n=65 v=0
7728 On ch=2 n=53 v=44
7752 On ch=2 n=53 v=0
7752 On ch=2 n=65 v=36
7752 On ch=2 n=60 v=22
7752 On ch=2 n=57 v=27
7772 On ch=2 n=57 v=0
7772 On ch=2 n=60 v=0
7772 On ch=2 n=65 v=0
7776 On ch=2 n=46 v=48
7800 On ch=2 n=46 v=0
7800 On ch=2 n=67 v=34
7800 On ch=2 n=62 v=17
7800 On ch=2 n=58 v=26
7820 On ch=2 n=58 v=0
7820 On ch=2 n=62 v=0
7820 On ch=2 n=67 v=0
7824 On ch=2 n=46 v=52
7848 On ch=2 n=46 v=0
7848 On ch=2 n=67 v=38
7848 On ch=2 n=62 v=22
7848 On ch=2 n=58 v=30
7868 On ch=2 n=58 v=0
7868 On ch=2 n=62 v=0
7868 On ch=2 n=67 v=0
7872 On ch=2 n=48 v=55
7896 On ch=2 n=48 v=0
7896 On ch=2 n=65 v=38
7896 On ch=2 n=60 v=22
7896 On ch=2 n=57 v=30
7916 On ch=2 n=57 v=0
7916 On ch=2 n=60 v=0
7916 On ch=2 n=65 v=0
7920 On ch=2 n=48 v=51
7944 On ch=2 n=48 v=0
7944 On ch=2 n=64 v=35
7944 On ch=2 n=60 v=27
7944 On ch=2 n=55 v=18
7964 On ch=2 n=55 v=0
7964 On ch=2 n=60 v=0
7964 On ch=2 n=64 v=0
7968 On ch=2 n=48 v=47
7992 On ch=2 n=48 v=0
7992 On ch=2 n=64 v=30
7992 On ch=2 n=60 v=27
7992 On ch=2 n=55 v=14
8012 On ch=2 n=55 v=0
8012 On ch=2 n=60 v=0
8012 On ch=2 n=64 v=0
8016 On ch=2 n=46 v=49
8040 On ch=2 n=46 v=0
8040 On ch=2 n=64 v=33
8040 On ch=2 n=60 v=22
8040 On ch=2 n=55 v=16
8060 On ch=2 n=55 v=0
8060 On ch=2 n=60 v=0
8060 On ch=2 n=64 v=0
8064 On ch=2 n=45 v=55
8088 On ch=2 n=45 v=0
8088 On ch=2 n=65 v=38
8088 On ch=2 n=60 v=22
8088 On ch=2 n=57 v=30
8108 On ch=2 n=57 v=0
8108 On ch=2 n=60 v=0
8108 On ch=2 n=65 v=0
8112 On ch=2 n=52 v=52
8136 On ch=2 n=52 v=0
8136 On ch=2 n=67 v=36
8136 On ch=2 n=60 v=24
8156 On ch=2 n=60 v=0
8156 On ch=2 n=67 v=0
8160 On ch=2 n=53 v=57
8184 On ch=2 n=53 v=0
8184 On ch=2 n=69 v=40
8184 On ch=2 n=65 v=33
8184 On ch=2 n=60 v=24
8204 On ch=2 n=60 v=0
8204 On ch=2 n=65 v=0
8204 On ch=2 n=69 v=0
8208 On ch=2 n=46 v=60
8232 On ch=2 n=46 v=0
8232 On ch=2 n=70 v=38
8232 On ch=2 n=67 v=33
8232 On ch=2 n=62 v=22
8252 On ch=2 n=62 v=0
8252 On ch=2 n=67 v=0
8252 On ch=2 n=70 v=0
8256 On ch=2 n=48 v=52
8280 On ch=2 n=48 v=0
8280 On ch=2 n=69 v=38
8280 On ch=2 n=65 v=30
8280 On ch=2 n=60 v=22
8300 On ch=2 n=60 v=0
8300 On ch=2 n=65 v=0
8300 On ch=2 n=69 v=0
8304 On ch=2 n=48 v=47
8328 On ch=2 n=48 v=0
8328 On ch=2 n=69 v=33
8328 On ch=2 n=65 v=25
8328 On ch=2 n=60 v=16
8348 On ch=2 n=60 v=0
8348 On ch=2 n=65 v=0
8348 On ch=2 n=69 v=0
8352 On ch=2 n=48 v=49
8376 On ch=2 n=48 v=0
8376 On ch=2 n=67 v=35
8376 On ch=2 n=64 v=27
8376 On ch=2 n=60 v=18
8396 On ch=2 n=60 v=0
8396 On ch=2 n=64 v=0
8396 On ch=2 n=67 v=0
8400 On ch=2 n=48 v=44
8424 On ch=2 n=48 v=0
8424 On ch=2 n=67 v=33
8424 On ch=2 n=64 v=25
8424 On ch=2 n=60 v=16
8436 On ch=2 n=48 v=77
8442 On ch=2 n=55 v=59
8444 On ch=2 n=60 v=0
8444 On ch=2 n=67 v=0
8444 On ch=2 n=64 v=0
8445 On ch=2 n=58 v=62
8448 On ch=2 n=64 v=66
8554 On ch=2 n=64 v=0
8554 On ch=2 n=55 v=0
8554 On ch=2 n=48 v=0
8554 On ch=2 n=58 v=0
8568 On ch=2 n=69 v=55
8592 On ch=2 n=70 v=49
8592 On ch=2 n=67 v=57
8594 On ch=2 n=69 v=0
8616 On ch=2 n=69 v=46
8616 On ch=2 n=65 v=60
8618 On ch=2 n=67 v=0
8618 On ch=2 n=70 v=0
8632 On ch=2 n=48 v=66
8636 On ch=2 n=55 v=48
8638 On ch=2 n=58 v=51
8640 On ch=2 n=64 v=55
8642 On ch=2 n=69 v=0
8642 On ch=2 n=65 v=0
8748 On ch=2 n=58 v=0
8748 On ch=2 n=55 v=0
8748 On ch=2 n=64 v=0
8748 On ch=2 n=48 v=0
8760 On ch=2 n=65 v=33
8760 On ch=2 n=57 v=44
8782 On ch=2 n=57 v=0
8782 On ch=2 n=65 v=0
8784 On ch=2 n=65 v=35
8784 On ch=2 n=56 v=46
8806 On ch=2 n=56 v=0
8806 On ch=2 n=65 v=0
8808 On ch=2 n=65 v=29
8808 On ch=2 n=57 v=44
8830 On ch=2 n=57 v=0
8830 On ch=2 n=65 v=0
8832 On ch=2 n=46 v=49
8856 On ch=2 n=46 v=0
8856 On ch=2 n=65 v=41
8856 On ch=2 n=62 v=33
8856 On ch=2 n=58 v=27
8876 On ch=2 n=58 v=0
8876 On ch=2 n=62 v=0
8876 On ch=2 n=65 v=0
8880 On ch=2 n=46 v=52
8904 On ch=2 n=46 v=0
8904 On ch=2 n=65 v=44
8904 On ch=2 n=62 v=38
8904 On ch=2 n=58 v=24
8924 On ch=2 n=58 v=0
8924 On ch=2 n=62 v=0
8924 On ch=2 n=65 v=0
8928 On ch=2 n=48 v=55
8952 On ch=2 n=48 v=0
8952 On ch=2 n=65 v=46
8952 On ch=2 n=60 v=30
8952 On ch=2 n=57 v=41
8972 On ch=2 n=57 v=0
8972 On ch=2 n=60 v=0
8972 On ch=2 n=65 v=0
8976 On ch=2 n=48 v=41
8976 On ch=2 n=36 v=60
9000 On ch=2 n=36 v=0
9000 On ch=2 n=48 v=0
9000 On ch=2 n=64 v=46
9000 On ch=2 n=60 v=24
9000 On ch=2 n=58 v=30
9020 On ch=2 n=58 v=0
9020 On ch=2 n=60 v=0
9020 On ch=2 n=64 v=0
9024 On ch=2 n=64 v=49
9024 On ch=2 n=60 v=27
9024 On ch=2 n=58 v=36
9024 On ch=2 n=53 v=55
9044 On ch=2 n=53 v=0
9072 On ch=2 n=41 v=44
9088 On ch=2 n=41 v=0
9120 On ch=2 n=65 v=44
9120 On ch=2 n=57 v=30
9120 On ch=2 n=53 v=49
9122 On ch=2 n=58 v=0
9122 On ch=2 n=64 v=0
9130 On ch=2 n=65 v=0
9130 On ch=2 n=60 v=0
9130 On ch=2 n=53 v=0
9130 On ch=2 n=57 v=0
9132 On ch=2 n=60 v=55
9144 On ch=2 n=59 v=57
9146 On ch=2 n=60 v=0
9156 On ch=2 n=60 v=52
9158 On ch=2 n=59 v=0
9168 On ch=2 n=62 v=49
9170 On ch=2 n=60 v=0
9180 On ch=2 n=60 v=57
9182 On ch=2 n=62 v=0
9192 On ch=2 n=58 v=61
9194 On ch=2 n=60 v=0
9204 On ch=2 n=55 v=66
9206 On ch=2 n=58 v=0
9216 On ch=2 n=53 v=44
9216 On ch=2 n=41 v=60
9218 On ch=2 n=55 v=0
9228 On ch=2 n=60 v=30
9228 On ch=2 n=57 v=38
9230 On ch=2 n=41 v=0
9230 On ch=2 n=53 v=0
9234 On ch=2 n=60 v=0
9234 On ch=2 n=57 v=0
9240 On ch=2 n=60 v=33
9240 On ch=2 n=57 v=40
9248 On ch=2 n=57 v=0
9248 On ch=2 n=60 v=0
9252 On ch=2 n=60 v=29
9252 On ch=2 n=57 v=35
9258 On ch=2 n=57 v=0
9258 On ch=2 n=60 v=0
9264 On ch=2 n=53 v=52
9276 On ch=2 n=60 v=27
9276 On ch=2 n=57 v=35
9278 On ch=2 n=53 v=0
9282 On ch=2 n=57 v=0
9282 On ch=2 n=60 v=0
9288 On ch=2 n=60 v=29
9288 On ch=2 n=57 v=37
9296 On ch=2 n=57 v=0
9296 On ch=2 n=60 v=0
9300 On ch=2 n=60 v=26
9300 On ch=2 n=57 v=31
9306 On ch=2 n=57 v=0
9306 On ch=2 n=60 v=0
9312 On ch=2 n=46 v=33
9312 On ch=2 n=34 v=55
9324 On ch=2 n=62 v=30
9324 On ch=2 n=58 v=38
9326 On ch=2 n=34 v=0
9326 On ch=2 n=46 v=0
9330 On ch=2 n=62 v=0
9330 On ch=2 n=58 v=0
9336 On ch=2 n=62 v=33
9336 On ch=2 n=58 v=40
9344 On ch=2 n=58 v=0
9344 On ch=2 n=62 v=0
9348 On ch=2 n=62 v=29
9348 On ch=2 n=58 v=35
9354 On ch=2 n=58 v=0
9354 On ch=2 n=62 v=0
9360 On ch=2 n=46 v=49
9372 On ch=2 n=62 v=27
9372 On ch=2 n=58 v=35
9374 On ch=2 n=46 v=0
9378 On ch=2 n=58 v=0
9378 On ch=2 n=62 v=0
9384 On ch=2 n=62 v=29
9384 On ch=2 n=58 v=37
9392 On ch=2 n=58 v=0
9392 On ch=2 n=62 v=0
9396 On ch=2 n=62 v=35
9396 On ch=2 n=58 v=40
9402 On ch=2 n=58 v=0
9402 On ch=2 n=62 v=0
9408 On ch=2 n=48 v=44
9408 On ch=2 n=36 v=60
9420 On ch=2 n=60 v=30
9420 On ch=2 n=55 v=38
9422 On ch=2 n=36 v=0
9422 On ch=2 n=48 v=0
9426 On ch=2 n=60 v=0
9426 On ch=2 n=55 v=0
9432 On ch=2 n=60 v=33
9432 On ch=2 n=55 v=40
9440 On ch=2 n=55 v=0
9440 On ch=2 n=60 v=0
9444 On ch=2 n=60 v=29
9444 On ch=2 n=55 v=35
9450 On ch=2 n=55 v=0
9450 On ch=2 n=60 v=0
9456 On ch=2 n=48 v=52
9468 On ch=2 n=60 v=27
9468 On ch=2 n=55 v=35
9474 On ch=2 n=55 v=0
9474 On ch=2 n=60 v=0
9480 On ch=2 n=60 v=29
9480 On ch=2 n=55 v=37
9488 On ch=2 n=55 v=0
9488 On ch=2 n=60 v=0
9492 On ch=2 n=60 v=26
9492 On ch=2 n=55 v=31
9498 On ch=2 n=55 v=0
9498 On ch=2 n=60 v=0
9504 On ch=2 n=48 v=0
9504 On ch=2 n=48 v=49
9516 On ch=2 n=60 v=30
9516 On ch=2 n=55 v=22
9516 On ch=2 n=52 v=38
9522 On ch=2 n=52 v=0
9522 On ch=2 n=55 v=0
9522 On ch=2 n=60 v=0
9528 On ch=2 n=60 v=33
9528 On ch=2 n=55 v=19
9528 On ch=2 n=52 v=40
9536 On ch=2 n=52 v=0
9536 On ch=2 n=55 v=0
9536 On ch=2 n=60 v=0
9540 On ch=2 n=60 v=29
9540 On ch=2 n=55 v=22
9540 On ch=2 n=52 v=35
9546 On ch=2 n=52 v=0
9546 On ch=2 n=55 v=0
9546 On ch=2 n=60 v=0
9552 On ch=2 n=48 v=0
9552 On ch=2 n=46 v=55
9564 On ch=2 n=60 v=27
9564 On ch=2 n=55 v=16
9564 On ch=2 n=52 v=35
9570 On ch=2 n=52 v=0
9570 On ch=2 n=55 v=0
9570 On ch=2 n=60 v=0
9576 On ch=2 n=60 v=29
9576 On ch=2 n=55 v=19
9576 On ch=2 n=52 v=37
9584 On ch=2 n=52 v=0
9584 On ch=2 n=55 v=0
9584 On ch=2 n=60 v=0
9588 On ch=2 n=60 v=35
9588 On ch=2 n=55 v=22
9588 On ch=2 n=52 v=40
9594 On ch=2 n=52 v=0
9594 On ch=2 n=55 v=0
9594 On ch=2 n=60 v=0
9600 On ch=2 n=46 v=0
9600 On ch=2 n=45 v=60
9612 On ch=2 n=60 v=30
9612 On ch=2 n=53 v=38
9618 On ch=2 n=53 v=0
9618 On ch=2 n=60 v=0
9624 On ch=2 n=60 v=33
9624 On ch=2 n=53 v=40
9632 On ch=2 n=53 v=0
9632 On ch=2 n=60 v=0
9636 On ch=2 n=60 v=29
9636 On ch=2 n=53 v=35
9642 On ch=2 n=53 v=0
9642 On ch=2 n=60 v=0
9648 On ch=2 n=45 v=0
9648 On ch=2 n=52 v=52
9660 On ch=2 n=60 v=27
9660 On ch=2 n=58 v=35
9666 On ch=2 n=58 v=0
9666 On ch=2 n=60 v=0
9672 On ch=2 n=60 v=29
9672 On ch=2 n=58 v=37
9680 On ch=2 n=58 v=0
9680 On ch=2 n=60 v=0
9684 On ch=2 n=60 v=26
9684 On ch=2 n=58 v=31
9690 On ch=2 n=58 v=0
9690 On ch=2 n=60 v=0
9696 On ch=2 n=52 v=0
9696 On ch=2 n=53 v=55
9708 On ch=2 n=60 v=30
9708 On ch=2 n=57 v=38
9714 On ch=2 n=57 v=0
9714 On ch=2 n=60 v=0
9720 On ch=2 n=60 v=33
9720 On ch=2 n=57 v=40
9728 On ch=2 n=57 v=0
9728 On ch=2 n=60 v=0
9732 On ch=2 n=60 v=29
9732 On ch=2 n=57 v=35
9738 On ch=2 n=57 v=0
9738 On ch=2 n=60 v=0
9744 On ch=2 n=53 v=0
9744 On ch=2 n=46 v=60
9756 On ch=2 n=62 v=33
9756 On ch=2 n=58 v=40
9762 On ch=2 n=58 v=0
9762 On ch=2 n=62 v=0
9768 On ch=2 n=62 v=35
9768 On ch=2 n=58 v=42
9776 On ch=2 n=58 v=0
9776 On ch=2 n=62 v=0
9780 On ch=2 n=62 v=40
9780 On ch=2 n=58 v=46
9786 On ch=2 n=58 v=0
9786 On ch=2 n=62 v=0
9792 On ch=2 n=46 v=0
9792 On ch=2 n=48 v=55
9804 On ch=2 n=60 v=30
9804 On ch=2 n=57 v=38
9810 On ch=2 n=57 v=0
9810 On ch=2 n=60 v=0
9816 On ch=2 n=60 v=33
9816 On ch=2 n=57 v=40
9824 On ch=2 n=57 v=0
9824 On ch=2 n=60 v=0
9828 On ch=2 n=60 v=29
9828 On ch=2 n=57 v=35
9834 On ch=2 n=57 v=0
9834 On ch=2 n=60 v=0
9840 On ch=2 n=48 v=0
9840 On ch=2 n=48 v=52
9852 On ch=2 n=60 v=27
9852 On ch=2 n=57 v=35
9852 On ch=2 n=53 v=30
9858 On ch=2 n=53 v=0
9858 On ch=2 n=57 v=0
9858 On ch=2 n=60 v=0
9864 On ch=2 n=60 v=27
9864 On ch=2 n=57 v=37
9864 On ch=2 n=53 v=25
9872 On ch=2 n=53 v=0
9872 On ch=2 n=57 v=0
9872 On ch=2 n=60 v=0
9876 On ch=2 n=60 v=22
9876 On ch=2 n=57 v=31
9876 On ch=2 n=53 v=27
9882 On ch=2 n=53 v=0
9882 On ch=2 n=57 v=0
9882 On ch=2 n=60 v=0
9888 On ch=2 n=48 v=0
9888 On ch=2 n=48 v=49
9900 On ch=2 n=60 v=30
9900 On ch=2 n=55 v=22
9900 On ch=2 n=52 v=38
9906 On ch=2 n=52 v=0
9906 On ch=2 n=55 v=0
9906 On ch=2 n=60 v=0
9912 On ch=2 n=60 v=33
9912 On ch=2 n=55 v=19
9912 On ch=2 n=52 v=40
9920 On ch=2 n=52 v=0
9920 On ch=2 n=55 v=0
9920 On ch=2 n=60 v=0
9924 On ch=2 n=60 v=29
9924 On ch=2 n=55 v=22
9924 On ch=2 n=52 v=35
9930 On ch=2 n=52 v=0
9930 On ch=2 n=55 v=0
9930 On ch=2 n=60 v=0
9936 On ch=2 n=48 v=0
9936 On ch=2 n=48 v=55
9948 On ch=2 n=60 v=27
9948 On ch=2 n=55 v=16
9948 On ch=2 n=52 v=35
9954 On ch=2 n=52 v=0
9954 On ch=2 n=55 v=0
9954 On ch=2 n=60 v=0
9960 On ch=2 n=60 v=29
9960 On ch=2 n=55 v=19
9960 On ch=2 n=52 v=37
9968 On ch=2 n=52 v=0
9968 On ch=2 n=55 v=0
9968 On ch=2 n=60 v=0
9972 On ch=2 n=60 v=35
9972 On ch=2 n=55 v=22
9972 On ch=2 n=52 v=40
9978 On ch=2 n=52 v=0
9978 On ch=2 n=55 v=0
9978 On ch=2 n=60 v=0
9984 On ch=2 n=48 v=0
9996 On ch=2 n=48 v=71
9996 On ch=2 n=36 v=88
10006 On ch=2 n=36 v=0
10006 On ch=2 n=48 v=0
10008 On ch=2 n=52 v=68
10008 On ch=2 n=40 v=82
10018 On ch=2 n=40 v=0
10018 On ch=2 n=52 v=0
10020 On ch=2 n=48 v=70
10020 On ch=2 n=36 v=85
10030 On ch=2 n=36 v=0
10030 On ch=2 n=48 v=0
10032 On ch=2 n=52 v=66
10032 On ch=2 n=40 v=79
10042 On ch=2 n=40 v=0
10042 On ch=2 n=52 v=0
10044 On ch=2 n=48 v=68
10044 On ch=2 n=36 v=82
10054 On ch=2 n=36 v=0
10054 On ch=2 n=48 v=0
10056 On ch=2 n=52 v=63
10056 On ch=2 n=40 v=74
10066 On ch=2 n=40 v=0
10066 On ch=2 n=52 v=0
10068 On ch=2 n=55 v=60
10068 On ch=2 n=43 v=70
10078 On ch=2 n=43 v=0
10078 On ch=2 n=55 v=0
10080 On ch=2 n=58 v=55
10080 On ch=2 n=46 v=66
10090 On ch=2 n=46 v=0
10090 On ch=2 n=58 v=0
10104 On ch=2 n=60 v=44
10104 On ch=2 n=57 v=77
10128 On ch=2 n=58 v=66
10128 On ch=2 n=55 v=79
10130 On ch=2 n=57 v=0
10152 On ch=2 n=60 v=0
10152 On ch=2 n=60 v=49
10152 On ch=2 n=57 v=60
10152 On ch=2 n=53 v=82
10154 On ch=2 n=58 v=0
10154 On ch=2 n=55 v=0
10178 On ch=2 n=57 v=0
10178 On ch=2 n=60 v=0
10178 On ch=2 n=53 v=0
10188 On ch=2 n=48 v=66
10188 On ch=2 n=36 v=82
10198 On ch=2 n=36 v=0
10198 On ch=2 n=48 v=0
10200 On ch=2 n=52 v=62
10200 On ch=2 n=40 v=77
10210 On ch=2 n=40 v=0
10210 On ch=2 n=52 v=0
10212 On ch=2 n=48 v=64
10212 On ch=2 n=36 v=80
10222 On ch=2 n=36 v=0
10222 On ch=2 n=48 v=0
10224 On ch=2 n=52 v=60
10224 On ch=2 n=40 v=73
10234 On ch=2 n=40 v=0
10234 On ch=2 n=52 v=0
10236 On ch=2 n=48 v=62
10236 On ch=2 n=36 v=77
10246 On ch=2 n=36 v=0
10246 On ch=2 n=48 v=0
10248 On ch=2 n=52 v=58
10248 On ch=2 n=40 v=69
10258 On ch=2 n=40 v=0
10258 On ch=2 n=52 v=0
10260 On ch=2 n=55 v=55
10260 On ch=2 n=43 v=64
10270 On ch=2 n=43 v=0
10270 On ch=2 n=55 v=0
10272 On ch=2 n=58 v=49
10272 On ch=2 n=46 v=60
10282 On ch=2 n=46 v=0
10282 On ch=2 n=58 v=0
10296 On ch=2 n=60 v=49
10296 On ch=2 n=57 v=71
10320 On ch=2 n=59 v=69
10320 On ch=2 n=56 v=77
10322 On ch=2 n=57 v=0
10322 On ch=2 n=60 v=0
10344 On ch=2 n=60 v=56
10344 On ch=2 n=57 v=70
10346 On ch=2 n=59 v=0
10346 On ch=2 n=56 v=0
10368 On ch=2 n=55 v=57
10368 On ch=2 n=53 v=46
10368 On ch=2 n=46 v=68
10370 On ch=2 n=60 v=0
10370 On ch=2 n=57 v=0
10416 On ch=2 n=47 v=62
10418 On ch=2 n=46 v=0
10440 On ch=2 n=53 v=0
10440 On ch=2 n=55 v=0
10440 On ch=2 n=55 v=33
10440 On ch=2 n=53 v=46
10440 On ch=2 n=50 v=24
10464 On ch=2 n=50 v=0
10464 On ch=2 n=53 v=0
10464 On ch=2 n=55 v=0
10464 On ch=2 n=57 v=40
10464 On ch=2 n=53 v=31
10464 On ch=2 n=48 v=60
10466 On ch=2 n=47 v=0
10512 On ch=2 n=57 v=0
10512 On ch=2 n=53 v=0
10512 On ch=2 n=48 v=0
10512 On ch=2 n=58 v=44
10512 On ch=2 n=52 v=37
10512 On ch=2 n=48 v=53
10560 On ch=2 n=48 v=0
10560 On ch=2 n=52 v=0
10560 On ch=2 n=58 v=0
10560 On ch=2 n=57 v=41
10560 On ch=2 n=53 v=49
10600 On ch=2 n=53 v=0
10600 On ch=2 n=57 v=0
10608 On ch=2 n=57 v=88
10608 On ch=2 n=45 v=110
10650 On ch=2 n=45 v=0
10650 On ch=2 n=57 v=0
10650 On ch=2 n=57 v=85
10650 On ch=2 n=45 v=104
10656 On ch=2 n=50 v=82
10656 On ch=2 n=38 v=115
10658 On ch=2 n=45 v=0
10658 On ch=2 n=57 v=0
10696 On ch=2 n=50 v=0
10696 On ch=2 n=38 v=0
10704 On ch=2 n=62 v=88
10704 On ch=2 n=50 v=110
10746 On ch=2 n=50 v=0
10746 On ch=2 n=62 v=0
10746 On ch=2 n=62 v=85
10746 On ch=2 n=50 v=104
10752 On ch=2 n=55 v=82
10752 On ch=2 n=43 v=115
10754 On ch=2 n=50 v=0
10754 On ch=2 n=62 v=0
10792 On ch=2 n=55 v=0
10792 On ch=2 n=43 v=0
10800 On ch=2 n=58 v=88
10800 On ch=2 n=46 v=110
10842 On ch=2 n=46 v=0
10842 On ch=2 n=58 v=0
10842 On ch=2 n=58 v=85
10842 On ch=2 n=46 v=104
10848 On ch=2 n=48 v=82
10848 On ch=2 n=36 v=115
10850 On ch=2 n=46 v=0
10850 On ch=2 n=58 v=0
10888 On ch=2 n=48 v=0
10888 On ch=2 n=36 v=0
10896 On ch=2 n=49 v=74
10896 On ch=2 n=37 v=104
10932 On ch=2 n=37 v=0
10932 On ch=2 n=49 v=0
10944 On ch=2 n=46 v=60
10944 On ch=2 n=34 v=77
10992 On ch=2 n=46 v=0
10992 On ch=2 n=55 v=55
10992 On ch=2 n=53 v=46
10992 On ch=2 n=50 v=27
10992 On ch=2 n=46 v=41
10994 On ch=2 n=34 v=0
11040 On ch=2 n=50 v=0
11040 On ch=2 n=55 v=0
11040 On ch=2 n=53 v=0
11040 On ch=2 n=46 v=0
11040 On ch=2 n=56 v=63
11040 On ch=2 n=53 v=38
11040 On ch=2 n=48 v=66
11064 On ch=2 n=60 v=58
11066 On ch=2 n=56 v=0
11088 On ch=2 n=48 v=0
11088 On ch=2 n=58 v=60
11088 On ch=2 n=52 v=47
11088 On ch=2 n=48 v=57
11090 On ch=2 n=53 v=0
11090 On ch=2 n=60 v=0
11112 On ch=2 n=55 v=50
11114 On ch=2 n=52 v=0
11136 On ch=2 n=48 v=0
11136 On ch=2 n=53 v=71
11136 On ch=2 n=41 v=99
11138 On ch=2 n=58 v=0
11138 On ch=2 n=55 v=0
11148 On ch=2 n=53 v=0
11148 On ch=2 n=41 v=0
11148 On ch=2 n=65 v=47
11148 On ch=2 n=60 v=38
11148 On ch=2 n=56 v=55
11154 On ch=2 n=56 v=0
11154 On ch=2 n=60 v=0
11160 On ch=2 n=65 v=0
11160 On ch=2 n=65 v=40
11160 On ch=2 n=60 v=30
11160 On ch=2 n=56 v=48
11168 On ch=2 n=56 v=0
11168 On ch=2 n=60 v=0
11168 On ch=2 n=65 v=0
11172 On ch=2 n=65 v=35
11172 On ch=2 n=60 v=27
11172 On ch=2 n=56 v=40
11178 On ch=2 n=56 v=0
11178 On ch=2 n=60 v=0
11178 On ch=2 n=65 v=0
11184 On ch=2 n=53 v=52
11196 On ch=2 n=65 v=27
11196 On ch=2 n=60 v=35
11196 On ch=2 n=56 v=30
11202 On ch=2 n=56 v=0
11202 On ch=2 n=60 v=0
11202 On ch=2 n=65 v=0
11208 On ch=2 n=53 v=0
11208 On ch=2 n=65 v=27
11208 On ch=2 n=60 v=37
11208 On ch=2 n=56 v=25
11216 On ch=2 n=56 v=0
11216 On ch=2 n=60 v=0
11216 On ch=2 n=65 v=0
11220 On ch=2 n=65 v=22
11220 On ch=2 n=60 v=31
11220 On ch=2 n=56 v=27
11226 On ch=2 n=56 v=0
11226 On ch=2 n=60 v=0
11226 On ch=2 n=65 v=0
11232 On ch=2 n=53 v=49
11244 On ch=2 n=65 v=30
11244 On ch=2 n=60 v=22
11244 On ch=2 n=56 v=38
11250 On ch=2 n=56 v=0
11250 On ch=2 n=60 v=0
11250 On ch=2 n=65 v=0
11256 On ch=2 n=53 v=0
11256 On ch=2 n=65 v=33
11256 On ch=2 n=60 v=19
11256 On ch=2 n=56 v=40
11264 On ch=2 n=56 v=0
11264 On ch=2 n=60 v=0
11264 On ch=2 n=65 v=0
11268 On ch=2 n=65 v=29
11268 On ch=2 n=60 v=22
11268 On ch=2 n=56 v=35
11274 On ch=2 n=56 v=0
11274 On ch=2 n=60 v=0
11274 On ch=2 n=65 v=0
11280 On ch=2 n=53 v=55
11292 On ch=2 n=65 v=27
11292 On ch=2 n=60 v=16
11292 On ch=2 n=56 v=35
11298 On ch=2 n=56 v=0
11298 On ch=2 n=60 v=0
11298 On ch=2 n=65 v=0
11304 On ch=2 n=53 v=0
11304 On ch=2 n=65 v=29
11304 On ch=2 n=60 v=19
11304 On ch=2 n=56 v=37
11312 On ch=2 n=56 v=0
11312 On ch=2 n=60 v=0
11312 On ch=2 n=65 v=0
11316 On ch=2 n=60 v=35
11316 On ch=2 n=56 v=40
11322 On ch=2 n=56 v=0
11322 On ch=2 n=60 v=0
11328 On ch=2 n=41 v=60
11340 On ch=2 n=61 v=30
11340 On ch=2 n=58 v=22
11340 On ch=2 n=55 v=38
11346 On ch=2 n=55 v=0
11346 On ch=2 n=58 v=0
11346 On ch=2 n=61 v=0
11352 On ch=2 n=41 v=0
11352 On ch=2 n=61 v=35
11352 On ch=2 n=58 v=25
11352 On ch=2 n=55 v=42
11360 On ch=2 n=55 v=0
11360 On ch=2 n=58 v=0
11360 On ch=2 n=61 v=0
11364 On ch=2 n=61 v=33
11364 On ch=2 n=58 v=25
11364 On ch=2 n=55 v=38
11370 On ch=2 n=55 v=0
11370 On ch=2 n=58 v=0
11370 On ch=2 n=61 v=0
11376 On ch=2 n=53 v=52
11388 On ch=2 n=64 v=27
11388 On ch=2 n=61 v=19
11388 On ch=2 n=58 v=24
11388 On ch=2 n=55 v=35
11394 On ch=2 n=55 v=0
11394 On ch=2 n=61 v=0
11394 On ch=2 n=58 v=0
11394 On ch=2 n=64 v=0
11400 On ch=2 n=53 v=0
11400 On ch=2 n=64 v=33
11400 On ch=2 n=61 v=27
11400 On ch=2 n=58 v=22
11400 On ch=2 n=55 v=37
11408 On ch=2 n=55 v=0
11408 On ch=2 n=64 v=0
11408 On ch=2 n=61 v=0
11408 On ch=2 n=58 v=0
11412 On ch=2 n=64 v=27
11412 On ch=2 n=61 v=22
11412 On ch=2 n=58 v=16
11412 On ch=2 n=55 v=31
11418 On ch=2 n=55 v=0
11418 On ch=2 n=64 v=0
11418 On ch=2 n=61 v=0
11418 On ch=2 n=58 v=0
11424 On ch=2 n=53 v=60
11436 On ch=2 n=64 v=41
11436 On ch=2 n=61 v=33
11436 On ch=2 n=58 v=27
11436 On ch=2 n=55 v=49
11442 On ch=2 n=55 v=0
11442 On ch=2 n=61 v=0
11442 On ch=2 n=58 v=0
11442 On ch=2 n=64 v=0
11448 On ch=2 n=53 v=0
11448 On ch=2 n=64 v=44
11448 On ch=2 n=61 v=35
11448 On ch=2 n=58 v=30
11448 On ch=2 n=55 v=51
11456 On ch=2 n=55 v=0
11456 On ch=2 n=64 v=0
11456 On ch=2 n=61 v=0
11456 On ch=2 n=58 v=0
11460 On ch=2 n=64 v=40
11460 On ch=2 n=61 v=35
11460 On ch=2 n=58 v=33
11460 On ch=2 n=55 v=46
11466 On ch=2 n=55 v=0
11466 On ch=2 n=64 v=0
11466 On ch=2 n=61 v=0
11466 On ch=2 n=58 v=0
11472 On ch=2 n=53 v=66
11484 On ch=2 n=64 v=38
11484 On ch=2 n=61 v=30
11484 On ch=2 n=58 v=27
11484 On ch=2 n=55 v=46
11490 On ch=2 n=55 v=0
11490 On ch=2 n=61 v=0
11490 On ch=2 n=58 v=0
11490 On ch=2 n=64 v=0
11496 On ch=2 n=53 v=0
11496 On ch=2 n=64 v=40
11496 On ch=2 n=61 v=33
11496 On ch=2 n=58 v=30
11496 On ch=2 n=55 v=48
11504 On ch=2 n=55 v=0
11504 On ch=2 n=64 v=0
11504 On ch=2 n=61 v=0
11504 On ch=2 n=58 v=0
11508 On ch=2 n=61 v=46
11508 On ch=2 n=58 v=35
11508 On ch=2 n=55 v=51
11514 On ch=2 n=55 v=0
11514 On ch=2 n=58 v=0
11514 On ch=2 n=61 v=0
11520 On ch=2 n=53 v=38
11520 On ch=2 n=41 v=66
11532 On ch=2 n=41 v=0
11532 On ch=2 n=53 v=0
11532 On ch=2 n=65 v=36
11532 On ch=2 n=60 v=27
11532 On ch=2 n=56 v=44
11538 On ch=2 n=56 v=0
11538 On ch=2 n=60 v=0
11538 On ch=2 n=65 v=0
11544 On ch=2 n=65 v=40
11544 On ch=2 n=60 v=30
11544 On ch=2 n=56 v=48
11552 On ch=2 n=56 v=0
11552 On ch=2 n=60 v=0
11552 On ch=2 n=65 v=0
11556 On ch=2 n=65 v=35
11556 On ch=2 n=60 v=27
11556 On ch=2 n=56 v=40
11562 On ch=2 n=56 v=0
11562 On ch=2 n=60 v=0
11562 On ch=2 n=65 v=0
11568 On ch=2 n=53 v=63
11580 On ch=2 n=60 v=38
11580 On ch=2 n=56 v=41
11586 On ch=2 n=56 v=0
11586 On ch=2 n=60 v=0
11592 On ch=2 n=53 v=0
11592 On ch=2 n=60 v=38
11592 On ch=2 n=56 v=36
11600 On ch=2 n=56 v=0
11600 On ch=2 n=60 v=0
11604 On ch=2 n=60 v=33
11604 On ch=2 n=56 v=38
11610 On ch=2 n=56 v=0
11610 On ch=2 n=60 v=0
11616 On ch=2 n=53 v=71
11628 On ch=2 n=65 v=52
11628 On ch=2 n=60 v=44
11628 On ch=2 n=56 v=60
11634 On ch=2 n=56 v=0
11634 On ch=2 n=60 v=0
11634 On ch=2 n=65 v=0
11640 On ch=2 n=53 v=0
11640 On ch=2 n=65 v=55
11640 On ch=2 n=60 v=41
11640 On ch=2 n=56 v=62
11648 On ch=2 n=56 v=0
11648 On ch=2 n=60 v=0
11648 On ch=2 n=65 v=0
11652 On ch=2 n=65 v=51
11652 On ch=2 n=60 v=44
11652 On ch=2 n=56 v=57
11658 On ch=2 n=56 v=0
11658 On ch=2 n=60 v=0
11658 On ch=2 n=65 v=0
11664 On ch=2 n=53 v=77
11676 On ch=2 n=65 v=49
11676 On ch=2 n=60 v=38
11676 On ch=2 n=56 v=57
11682 On ch=2 n=56 v=0
11682 On ch=2 n=60 v=0
11682 On ch=2 n=65 v=0
11688 On ch=2 n=53 v=0
11688 On ch=2 n=65 v=51
11688 On ch=2 n=60 v=41
11688 On ch=2 n=56 v=59
11696 On ch=2 n=56 v=0
11696 On ch=2 n=60 v=0
11696 On ch=2 n=65 v=0
11700 On ch=2 n=65 v=57
11700 On ch=2 n=60 v=44
11700 On ch=2 n=56 v=62
11706 On ch=2 n=56 v=0
11706 On ch=2 n=60 v=0
11706 On ch=2 n=65 v=0
11712 On ch=2 n=51 v=49
11712 On ch=2 n=39 v=77
11724 On ch=2 n=56 v=55
11726 On ch=2 n=39 v=0
11726 On ch=2 n=51 v=0
11736 On ch=2 n=60 v=57
11738 On ch=2 n=56 v=0
11748 On ch=2 n=66 v=44
11750 On ch=2 n=60 v=0
11760 On ch=2 n=66 v=0
11760 On ch=2 n=51 v=66
11772 On ch=2 n=56 v=52
11774 On ch=2 n=51 v=0
11784 On ch=2 n=60 v=55
11786 On ch=2 n=56 v=0
11796 On ch=2 n=66 v=49
11798 On ch=2 n=60 v=0
11808 On ch=2 n=66 v=0
11808 On ch=2 n=44 v=44
11808 On ch=2 n=32 v=71
11820 On ch=2 n=51 v=55
11822 On ch=2 n=32 v=0
11822 On ch=2 n=44 v=0
11832 On ch=2 n=54 v=57
11834 On ch=2 n=51 v=0
11844 On ch=2 n=60 v=52
11846 On ch=2 n=54 v=0
11856 On ch=2 n=60 v=0
11856 On ch=2 n=44 v=66
11868 On ch=2 n=51 v=52
11870 On ch=2 n=44 v=0
11880 On ch=2 n=54 v=55
11882 On ch=2 n=51 v=0
11892 On ch=2 n=60 v=49
11894 On ch=2 n=54 v=0
11904 On ch=2 n=60 v=0
11904 On ch=2 n=49 v=46
11904 On ch=2 n=37 v=66
11916 On ch=2 n=56 v=55
11918 On ch=2 n=37 v=0
11918 On ch=2 n=49 v=0
11928 On ch=2 n=61 v=57
11930 On ch=2 n=56 v=0
11940 On ch=2 n=65 v=44
11942 On ch=2 n=61 v=0
11952 On ch=2 n=65 v=0
11952 On ch=2 n=49 v=66
11964 On ch=2 n=56 v=52
11966 On ch=2 n=49 v=0
11976 On ch=2 n=61 v=55
11978 On ch=2 n=56 v=0
11988 On ch=2 n=65 v=49
11990 On ch=2 n=61 v=0
12000 On ch=2 n=65 v=0
12000 On ch=2 n=53 v=44
12000 On ch=2 n=41 v=71
12012 On ch=2 n=56 v=55
12014 On ch=2 n=41 v=0
12014 On ch=2 n=53 v=0
12024 On ch=2 n=61 v=57
12026 On ch=2 n=56 v=0
12036 On ch=2 n=65 v=52
12038 On ch=2 n=61 v=0
12048 On ch=2 n=65 v=0
12048 On ch=2 n=61 v=49
12060 On ch=2 n=56 v=52
12062 On ch=2 n=61 v=0
12072 On ch=2 n=53 v=55
12074 On ch=2 n=56 v=0
12084 On ch=2 n=49 v=49
12086 On ch=2 n=53 v=0
12096 On ch=2 n=49 v=0
12096 On ch=2 n=42 v=77
12108 On ch=2 n=49 v=55
12110 On ch=2 n=42 v=0
12120 On ch=2 n=51 v=57
12122 On ch=2 n=49 v=0
12132 On ch=2 n=58 v=44
12134 On ch=2 n=51 v=0
12144 On ch=2 n=58 v=0
12144 On ch=2 n=42 v=66
12156 On ch=2 n=49 v=52
12158 On ch=2 n=42 v=0
12168 On ch=2 n=51 v=55
12170 On ch=2 n=49 v=0
12180 On ch=2 n=58 v=49
12182 On ch=2 n=51 v=0
12192 On ch=2 n=58 v=0
12192 On ch=2 n=44 v=71
12204 On ch=2 n=51 v=52
12206 On ch=2 n=44 v=0
12216 On ch=2 n=54 v=55
12218 On ch=2 n=51 v=0
12228 On ch=2 n=60 v=44
12230 On ch=2 n=54 v=0
12240 On ch=2 n=60 v=0
12240 On ch=2 n=44 v=60
12252 On ch=2 n=51 v=47
12254 On ch=2 n=44 v=0
12264 On ch=2 n=54 v=41
12266 On ch=2 n=51 v=0
12276 On ch=2 n=60 v=33
12278 On ch=2 n=54 v=0
12288 On ch=2 n=60 v=0
12288 On ch=2 n=49 v=38
12288 On ch=2 n=37 v=55
12312 On ch=2 n=37 v=0
12312 On ch=2 n=49 v=0
12312 On ch=2 n=56 v=47
12312 On ch=2 n=53 v=38
12332 On ch=2 n=53 v=0
12332 On ch=2 n=56 v=0
12336 On ch=2 n=49 v=49
12360 On ch=2 n=49 v=0
12360 On ch=2 n=56 v=41
12360 On ch=2 n=53 v=33
12380 On ch=2 n=53 v=0
12380 On ch=2 n=56 v=0
12384 On ch=2 n=42 v=53
12408 On ch=2 n=42 v=0
12408 On ch=2 n=58 v=39
12408 On ch=2 n=54 v=31
12428 On ch=2 n=54 v=0
12428 On ch=2 n=58 v=0
12432 On ch=2 n=42 v=58
12456 On ch=2 n=42 v=0
12456 On ch=2 n=58 v=44
12456 On ch=2 n=54 v=36
12476 On ch=2 n=54 v=0
12476 On ch=2 n=58 v=0
12480 On ch=2 n=44 v=60
12504 On ch=2 n=44 v=0
12504 On ch=2 n=56 v=44
12504 On ch=2 n=53 v=36
12524 On ch=2 n=53 v=0
12524 On ch=2 n=56 v=0
12528 On ch=2 n=44 v=57
12552 On ch=2 n=44 v=0
12552 On ch=2 n=56 v=40
12552 On ch=2 n=51 v=24
12572 On ch=2 n=51 v=0
12572 On ch=2 n=56 v=0
12576 On ch=2 n=44 v=52
12600 On ch=2 n=44 v=0
12600 On ch=2 n=56 v=44
12600 On ch=2 n=51 v=19
12600 On ch=2 n=48 v=27
12620 On ch=2 n=48 v=0
12620 On ch=2 n=51 v=0
12620 On ch=2 n=56 v=0
12624 On ch=2 n=47 v=66
12648 On ch=2 n=57 v=44
12648 On ch=2 n=51 v=30
12668 On ch=2 n=51 v=0
12668 On ch=2 n=57 v=0
12672 On ch=2 n=47 v=0
12672 On ch=2 n=46 v=58
12696 On ch=2 n=57 v=41
12696 On ch=2 n=54 v=22
12696 On ch=2 n=51 v=28
12716 On ch=2 n=51 v=0
12716 On ch=2 n=54 v=0
12716 On ch=2 n=57 v=0
12720 On ch=2 n=46 v=0
12720 On ch=2 n=46 v=55
12744 On ch=2 n=58 v=38
12744 On ch=2 n=53 v=18
12744 On ch=2 n=50 v=25
12764 On ch=2 n=50 v=0
12764 On ch=2 n=53 v=0
12764 On ch=2 n=58 v=0
12768 On ch=2 n=46 v=0
12768 On ch=2 n=46 v=60
12816 On ch=2 n=46 v=0
12816 On ch=2 n=58 v=63
12816 On ch=2 n=49 v=77
12840 On ch=2 n=59 v=57
12840 On ch=2 n=53 v=33
12842 On ch=2 n=58 v=0
12864 On ch=2 n=49 v=0
12864 On ch=2 n=48 v=69
12866 On ch=2 n=59 v=0
12866 On ch=2 n=53 v=0
12888 On ch=2 n=59 v=52
12888 On ch=2 n=56 v=33
12888 On ch=2 n=53 v=39
12908 On ch=2 n=53 v=0
12908 On ch=2 n=56 v=0
12908 On ch=2 n=59 v=0
12912 On ch=2 n=48 v=0
12912 On ch=2 n=48 v=66
12936 On ch=2 n=60 v=49
12936 On ch=2 n=55 v=29
12936 On ch=2 n=52 v=36
12956 On ch=2 n=52 v=0
12956 On ch=2 n=55 v=0
12956 On ch=2 n=60 v=0
12960 On ch=2 n=48 v=0
12960 On ch=2 n=48 v=71
13008 On ch=2 n=48 v=0
13008 On ch=2 n=58 v=74
13008 On ch=2 n=46 v=88
13068 On ch=2 n=56 v=72
13068 On ch=2 n=44 v=85
13070 On ch=2 n=46 v=0
13070 On ch=2 n=58 v=0
13080 On ch=2 n=60 v=69
13080 On ch=2 n=48 v=82
13082 On ch=2 n=56 v=0
13082 On ch=2 n=44 v=0
13092 On ch=2 n=56 v=74
13092 On ch=2 n=44 v=88
13094 On ch=2 n=60 v=0
13094 On ch=2 n=48 v=0
13104 On ch=2 n=55 v=79
13104 On ch=2 n=43 v=92
13106 On ch=2 n=56 v=0
13106 On ch=2 n=44 v=0
13116 On ch=2 n=53 v=83
13116 On ch=2 n=41 v=96
13118 On ch=2 n=55 v=0
13118 On ch=2 n=43 v=0
13128 On ch=2 n=56 v=88
13128 On ch=2 n=44 v=101
13130 On ch=2 n=53 v=0
13130 On ch=2 n=41 v=0
13140 On ch=2 n=53 v=92
13140 On ch=2 n=41 v=105
13142 On ch=2 n=56 v=0
13142 On ch=2 n=44 v=0
13152 On ch=2 n=49 v=96
13152 On ch=2 n=37 v=110
13154 On ch=2 n=53 v=0
13154 On ch=2 n=41 v=0
13190 On ch=2 n=49 v=0
13190 On ch=2 n=37 v=0
13194 On ch=2 n=53 v=88
13194 On ch=2 n=49 v=104
13198 On ch=2 n=49 v=0
13198 On ch=2 n=53 v=0
13200 On ch=2 n=53 v=104
13200 On ch=2 n=49 v=115
13238 On ch=2 n=49 v=0
13238 On ch=2 n=53 v=0
13242 On ch=2 n=53 v=96
13242 On ch=2 n=49 v=112
13246 On ch=2 n=49 v=0
13246 On ch=2 n=53 v=0
13248 On ch=2 n=52 v=104
13248 On ch=2 n=48 v=121
13254 On ch=2 n=48 v=0
13254 On ch=2 n=52 v=0
13260 On ch=2 n=43 v=110
13260 On ch=2 n=31 v=127
13264 On ch=2 n=31 v=0
13264 On ch=2 n=43 v=0
13272 On ch=2 n=48 v=104
13272 On ch=2 n=36 v=126
13276 On ch=2 n=36 v=0
13276 On ch=2 n=48 v=0
13284 On ch=2 n=52 v=100
13284 On ch=2 n=40 v=122
13288 On ch=2 n=40 v=0
13288 On ch=2 n=52 v=0
13296 On ch=2 n=55 v=107
13296 On ch=2 n=43 v=127
13300 On ch=2 n=43 v=0
13300 On ch=2 n=55 v=0
13308 On ch=2 n=52 v=95
13308 On ch=2 n=40 v=117
13312 On ch=2 n=40 v=0
13312 On ch=2 n=52 v=0
13320 On ch=2 n=55 v=99
13320 On ch=2 n=43 v=121
13324 On ch=2 n=43 v=0
13324 On ch=2 n=55 v=0
13332 On ch=2 n=52 v=85
13332 On ch=2 n=40 v=107
13336 On ch=2 n=40 v=0
13336 On ch=2 n=52 v=0
13344 On ch=2 n=48 v=88
13344 On ch=2 n=36 v=110
13368 On ch=2 n=36 v=0
13368 On ch=2 n=48 v=0
13440 On ch=2 n=55 v=106
13440 On ch=2 n=43 v=123
13446 On ch=2 n=43 v=0
13446 On ch=2 n=55 v=0
13452 On ch=2 n=48 v=104
13452 On ch=2 n=36 v=126
13456 On ch=2 n=36 v=0
13456 On ch=2 n=48 v=0
13464 On ch=2 n=52 v=99
13464 On ch=2 n=40 v=121
13468 On ch=2 n=40 v=0
13468 On ch=2 n=52 v=0
13476 On ch=2 n=55 v=94
13476 On ch=2 n=43 v=116
13480 On ch=2 n=43 v=0
13480 On ch=2 n=55 v=0
13488 On ch=2 n=60 v=102
13488 On ch=2 n=48 v=124
13492 On ch=2 n=48 v=0
13492 On ch=2 n=60 v=0
13500 On ch=2 n=55 v=90
13500 On ch=2 n=43 v=112
13504 On ch=2 n=43 v=0
13504 On ch=2 n=55 v=0
13512 On ch=2 n=60 v=93
13512 On ch=2 n=48 v=115
13516 On ch=2 n=48 v=0
13516 On ch=2 n=60 v=0
13524 On ch=2 n=55 v=80
13524 On ch=2 n=43 v=102
13528 On ch=2 n=43 v=0
13528 On ch=2 n=55 v=0
13536 On ch=2 n=52 v=82
13536 On ch=2 n=40 v=104
13560 On ch=2 n=40 v=0
13560 On ch=2 n=52 v=0
13632 On ch=2 n=60 v=106
13632 On ch=2 n=48 v=123
13638 On ch=2 n=48 v=0
13638 On ch=2 n=60 v=0
13644 On ch=2 n=52 v=126
13648 On ch=2 n=52 v=0
13656 On ch=2 n=55 v=99
13656 On ch=2 n=43 v=121
13660 On ch=2 n=43 v=0
13660 On ch=2 n=55 v=0
13668 On ch=2 n=60 v=94
13668 On ch=2 n=48 v=116
13672 On ch=2 n=48 v=0
13672 On ch=2 n=60 v=0
13680 On ch=2 n=64 v=102
13680 On ch=2 n=52 v=124
13684 On ch=2 n=52 v=0
13684 On ch=2 n=64 v=0
13692 On ch=2 n=60 v=90
13692 On ch=2 n=48 v=112
13696 On ch=2 n=48 v=0
13696 On ch=2 n=60 v=0
13704 On ch=2 n=64 v=93
13704 On ch=2 n=52 v=115
13708 On ch=2 n=52 v=0
13708 On ch=2 n=64 v=0
13716 On ch=2 n=60 v=85
13716 On ch=2 n=48 v=107
13720 On ch=2 n=48 v=0
13720 On ch=2 n=60 v=0
13728 On ch=2 n=64 v=95
13728 On ch=2 n=52 v=112
13734 On ch=2 n=52 v=0
13734 On ch=2 n=64 v=0
13740 On ch=2 n=55 v=115
13744 On ch=2 n=55 v=0
13752 On ch=2 n=60 v=88
13752 On ch=2 n=48 v=110
13756 On ch=2 n=48 v=0
13756 On ch=2 n=60 v=0
13764 On ch=2 n=64 v=83
13764 On ch=2 n=52 v=105
13768 On ch=2 n=52 v=0
13768 On ch=2 n=64 v=0
13776 On ch=2 n=67 v=91
13776 On ch=2 n=55 v=113
13780 On ch=2 n=55 v=0
13780 On ch=2 n=67 v=0
13788 On ch=2 n=64 v=79
13788 On ch=2 n=52 v=101
13792 On ch=2 n=52 v=0
13792 On ch=2 n=64 v=0
13800 On ch=2 n=67 v=82
13800 On ch=2 n=55 v=104
13804 On ch=2 n=55 v=0
13804 On ch=2 n=67 v=0
13812 On ch=2 n=64 v=69
13812 On ch=2 n=52 v=91
13816 On ch=2 n=52 v=0
13816 On ch=2 n=64 v=0
13824 On ch=2 n=60 v=66
13824 On ch=2 n=48 v=93
13848 On ch=2 n=48 v=0
13848 On ch=2 n=60 v=0
14016 On ch=2 n=79 v=74
14022 On ch=2 n=79 v=0
14028 On ch=2 n=76 v=62
14032 On ch=2 n=76 v=0
14040 On ch=2 n=79 v=66
14044 On ch=2 n=79 v=0
14052 On ch=2 n=76 v=52
14056 On ch=2 n=76 v=0
14064 On ch=2 n=72 v=55
14104 On ch=2 n=72 v=0
14112 On ch=2 n=55 v=52
14118 On ch=2 n=55 v=0
14124 On ch=2 n=52 v=40
14128 On ch=2 n=52 v=0
14136 On ch=2 n=55 v=44
14140 On ch=2 n=55 v=0
14148 On ch=2 n=52 v=33
14152 On ch=2 n=52 v=0
14160 On ch=2 n=55 v=47
14164 On ch=2 n=55 v=0
14172 On ch=2 n=52 v=35
14176 On ch=2 n=52 v=0
14184 On ch=2 n=55 v=50
14188 On ch=2 n=55 v=0
14196 On ch=2 n=52 v=37
14200 On ch=2 n=52 v=0
14208 On ch=2 n=48 v=44
14232 On ch=2 n=48 v=0
14232 On ch=2 n=67 v=35
14232 On ch=2 n=64 v=27
14244 On ch=2 n=64 v=0
14244 On ch=2 n=67 v=0
14256 On ch=2 n=67 v=38
14256 On ch=2 n=64 v=24
14270 On ch=2 n=64 v=0
14270 On ch=2 n=67 v=0
14280 On ch=2 n=67 v=33
14280 On ch=2 n=64 v=26
14290 On ch=2 n=64 v=0
14290 On ch=2 n=67 v=0
14304 On ch=2 n=48 v=48
14328 On ch=2 n=48 v=0
14328 On ch=2 n=68 v=39
14328 On ch=2 n=65 v=31
14340 On ch=2 n=65 v=0
14340 On ch=2 n=68 v=0
14352 On ch=2 n=48 v=51
14376 On ch=2 n=48 v=0
14376 On ch=2 n=69 v=42
14376 On ch=2 n=66 v=35
14388 On ch=2 n=66 v=0
14388 On ch=2 n=69 v=0
14400 On ch=2 n=48 v=55
14424 On ch=2 n=48 v=0
14424 On ch=2 n=70 v=46
14424 On ch=2 n=67 v=38
14436 On ch=2 n=67 v=0
14436 On ch=2 n=70 v=0
14448 On ch=2 n=70 v=49
14448 On ch=2 n=67 v=35
14462 On ch=2 n=67 v=0
14462 On ch=2 n=70 v=0
14472 On ch=2 n=70 v=44
14472 On ch=2 n=67 v=37
14482 On ch=2 n=67 v=0
14482 On ch=2 n=70 v=0
14496 On ch=2 n=48 v=59
14520 On ch=2 n=48 v=0
14520 On ch=2 n=72 v=50
14520 On ch=2 n=69 v=42
14532 On ch=2 n=69 v=0
14532 On ch=2 n=72 v=0
14544 On ch=2 n=48 v=62
14568 On ch=2 n=48 v=0
14568 On ch=2 n=73 v=53
14568 On ch=2 n=69 v=46
14580 On ch=2 n=69 v=0
14580 On ch=2 n=73 v=0
14592 On ch=2 n=48 v=66
14616 On ch=2 n=48 v=0
14616 On ch=2 n=74 v=57
14616 On ch=2 n=70 v=49
14628 On ch=2 n=70 v=0
14628 On ch=2 n=74 v=0
14640 On ch=2 n=48 v=69
14664 On ch=2 n=48 v=0
14664 On ch=2 n=72 v=58
14664 On ch=2 n=69 v=51
14674 On ch=2 n=69 v=0
14674 On ch=2 n=72 v=0
14688 On ch=2 n=48 v=63
14712 On ch=2 n=48 v=0
14712 On ch=2 n=70 v=55
14712 On ch=2 n=67 v=47
14724 On ch=2 n=67 v=0
14724 On ch=2 n=70 v=0
14736 On ch=2 n=48 v=55
14760 On ch=2 n=48 v=0
14760 On ch=2 n=69 v=46
14760 On ch=2 n=66 v=38
14772 On ch=2 n=66 v=0
14772 On ch=2 n=69 v=0
14784 On ch=2 n=48 v=60
14808 On ch=2 n=48 v=0
14808 On ch=2 n=70 v=53
14808 On ch=2 n=67 v=46
14820 On ch=2 n=67 v=0
14820 On ch=2 n=70 v=0
14832 On ch=2 n=48 v=57
14856 On ch=2 n=48 v=0
14856 On ch=2 n=67 v=46
14856 On ch=2 n=64 v=39
14866 On ch=2 n=64 v=0
14866 On ch=2 n=67 v=0
14880 On ch=2 n=48 v=40
14904 On ch=2 n=48 v=0
14904 On ch=2 n=70 v=31
14904 On ch=2 n=67 v=24
14916 On ch=2 n=67 v=0
14916 On ch=2 n=70 v=0
14928 On ch=2 n=48 v=37
14952 On ch=2 n=48 v=0
14952 On ch=2 n=67 v=28
14952 On ch=2 n=64 v=20
14964 On ch=2 n=64 v=0
14964 On ch=2 n=67 v=0
14976 On ch=2 n=48 v=51
15000 On ch=2 n=48 v=0
15000 On ch=2 n=70 v=42
15000 On ch=2 n=67 v=27
15000 On ch=2 n=64 v=35
15012 On ch=2 n=64 v=0
15012 On ch=2 n=67 v=0
15012 On ch=2 n=70 v=0
15024 On ch=2 n=48 v=46
15048 On ch=2 n=48 v=0
15048 On ch=2 n=67 v=35
15048 On ch=2 n=64 v=22
15048 On ch=2 n=58 v=28
15058 On ch=2 n=58 v=0
15058 On ch=2 n=64 v=0
15058 On ch=2 n=67 v=0
15072 On ch=2 n=36 v=49
15096 On ch=2 n=36 v=0
15096 On ch=2 n=64 v=40
15096 On ch=2 n=58 v=24
15096 On ch=2 n=55 v=33
15116 On ch=2 n=55 v=0
15116 On ch=2 n=58 v=0
15116 On ch=2 n=64 v=0
15168 On ch=2 n=41 v=55
15180 On ch=2 n=60 v=41
15182 On ch=2 n=41 v=0
15192 On ch=2 n=57 v=44
15194 On ch=2 n=60 v=0
15204 On ch=2 n=60 v=38
15206 On ch=2 n=57 v=0
15216 On ch=2 n=65 v=36
15218 On ch=2 n=60 v=0
15228 On ch=2 n=60 v=40
15230 On ch=2 n=65 v=0
15240 On ch=2 n=57 v=44
15242 On ch=2 n=60 v=0
15252 On ch=2 n=60 v=38
15254 On ch=2 n=57 v=0
15264 On ch=2 n=46 v=49
15266 On ch=2 n=60 v=0
15276 On ch=2 n=62 v=36
15278 On ch=2 n=46 v=0
15288 On ch=2 n=58 v=38
15290 On ch=2 n=62 v=0
15300 On ch=2 n=62 v=33
15302 On ch=2 n=58 v=0
15312 On ch=2 n=67 v=30
15314 On ch=2 n=62 v=0
15324 On ch=2 n=62 v=35
15326 On ch=2 n=67 v=0
15336 On ch=2 n=58 v=38
15338 On ch=2 n=62 v=0
15348 On ch=2 n=62 v=41
15350 On ch=2 n=58 v=0
15360 On ch=2 n=48 v=55
15362 On ch=2 n=62 v=0
15372 On ch=2 n=57 v=41
15374 On ch=2 n=48 v=0
15384 On ch=2 n=60 v=44
15386 On ch=2 n=57 v=0
15396 On ch=2 n=65 v=38
15398 On ch=2 n=60 v=0
15408 On ch=2 n=65 v=0
15408 On ch=2 n=48 v=49
15420 On ch=2 n=55 v=36
15422 On ch=2 n=48 v=0
15432 On ch=2 n=60 v=38
15434 On ch=2 n=55 v=0
15444 On ch=2 n=64 v=33
15446 On ch=2 n=60 v=0
15456 On ch=2 n=64 v=0
15456 On ch=2 n=48 v=52
15468 On ch=2 n=55 v=38
15470 On ch=2 n=48 v=0
15480 On ch=2 n=52 v=40
15482 On ch=2 n=55 v=0
15492 On ch=2 n=55 v=35
15494 On ch=2 n=52 v=0
15504 On ch=2 n=60 v=30
15504 On ch=2 n=46 v=57
15506 On ch=2 n=55 v=0
15516 On ch=2 n=55 v=34
15518 On ch=2 n=60 v=0
15528 On ch=2 n=52 v=36
15530 On ch=2 n=55 v=0
15540 On ch=2 n=55 v=33
15542 On ch=2 n=52 v=0
15552 On ch=2 n=55 v=0
15552 On ch=2 n=46 v=0
15552 On ch=2 n=45 v=60
15564 On ch=2 n=53 v=38
15566 On ch=2 n=45 v=0
15576 On ch=2 n=48 v=40
15578 On ch=2 n=53 v=0
15588 On ch=2 n=57 v=35
15590 On ch=2 n=48 v=0
15600 On ch=2 n=57 v=0
15600 On ch=2 n=40 v=63
15612 On ch=2 n=55 v=40
15614 On ch=2 n=40 v=0
15624 On ch=2 n=52 v=44
15626 On ch=2 n=55 v=0
15636 On ch=2 n=60 v=38
15638 On ch=2 n=52 v=0
15648 On ch=2 n=60 v=0
15648 On ch=2 n=41 v=58
15660 On ch=2 n=60 v=35
15662 On ch=2 n=41 v=0
15672 On ch=2 n=57 v=38
15674 On ch=2 n=60 v=0
15684 On ch=2 n=65 v=33
15686 On ch=2 n=57 v=0
15696 On ch=2 n=65 v=0
15696 On ch=2 n=46 v=60
15708 On ch=2 n=62 v=33
15710 On ch=2 n=46 v=0
15720 On ch=2 n=58 v=35
15722 On ch=2 n=62 v=0
15732 On ch=2 n=67 v=30
15734 On ch=2 n=58 v=0
15744 On ch=2 n=67 v=0
15744 On ch=2 n=48 v=66
15756 On ch=2 n=57 v=47
15758 On ch=2 n=48 v=0
15768 On ch=2 n=53 v=49
15770 On ch=2 n=57 v=0
15780 On ch=2 n=60 v=44
15782 On ch=2 n=53 v=0
15792 On ch=2 n=57 v=46
15794 On ch=2 n=60 v=0
15804 On ch=2 n=65 v=40
15806 On ch=2 n=57 v=0
15816 On ch=2 n=60 v=42
15818 On ch=2 n=65 v=0
15828 On ch=2 n=69 v=36
15830 On ch=2 n=60 v=0
15840 On ch=2 n=48 v=55
15842 On ch=2 n=69 v=0
15852 On ch=2 n=55 v=38
15854 On ch=2 n=48 v=0
15864 On ch=2 n=52 v=40
15866 On ch=2 n=55 v=0
15876 On ch=2 n=60 v=35
15878 On ch=2 n=52 v=0
15888 On ch=2 n=55 v=37
15890 On ch=2 n=60 v=0
15900 On ch=2 n=64 v=40
15902 On ch=2 n=55 v=0
15912 On ch=2 n=60 v=44
15914 On ch=2 n=64 v=0
15924 On ch=2 n=67 v=38
15926 On ch=2 n=60 v=0
15936 On ch=2 n=48 v=79
15936 On ch=2 n=36 v=99
15938 On ch=2 n=67 v=0
15948 On ch=2 n=48 v=0
15948 On ch=2 n=48 v=77
15956 On ch=2 n=48 v=0
15960 On ch=2 n=52 v=71
15967 On ch=2 n=52 v=0
15972 On ch=2 n=48 v=74
15978 On ch=2 n=48 v=0
15984 On ch=2 n=52 v=68
15991 On ch=2 n=52 v=0
15996 On ch=2 n=48 v=71
16008 On ch=2 n=52 v=63
16015 On ch=2 n=52 v=0
16020 On ch=2 n=55 v=59
16026 On ch=2 n=55 v=0
16032 On ch=2 n=58 v=55
16042 On ch=2 n=58 v=0
16042 On ch=2 n=48 v=0
16042 On ch=2 n=36 v=0
16056 On ch=2 n=60 v=33
16056 On ch=2 n=57 v=66
16080 On ch=2 n=58 v=55
16080 On ch=2 n=55 v=68
16082 On ch=2 n=57 v=0
16104 On ch=2 n=60 v=0
16104 On ch=2 n=60 v=38
16104 On ch=2 n=57 v=49
16104 On ch=2 n=53 v=71
16106 On ch=2 n=58 v=0
16106 On ch=2 n=55 v=0
16128 On ch=2 n=48 v=68
16128 On ch=2 n=36 v=88
16130 On ch=2 n=57 v=0
16130 On ch=2 n=53 v=0
16130 On ch=2 n=60 v=0
16140 On ch=2 n=48 v=0
16140 On ch=2 n=48 v=66
16148 On ch=2 n=48 v=0
16152 On ch=2 n=52 v=60
16159 On ch=2 n=52 v=0
16164 On ch=2 n=48 v=63
16170 On ch=2 n=48 v=0
16176 On ch=2 n=52 v=57
16183 On ch=2 n=52 v=0
16188 On ch=2 n=48 v=60
16200 On ch=2 n=52 v=52
16207 On ch=2 n=52 v=0
16212 On ch=2 n=55 v=48
16218 On ch=2 n=55 v=0
16224 On ch=2 n=58 v=44
16234 On ch=2 n=58 v=0
16234 On ch=2 n=48 v=0
16234 On ch=2 n=36 v=0
16248 On ch=2 n=65 v=55
16248 On ch=2 n=60 v=33
16248 On ch=2 n=57 v=66
16272 On ch=2 n=59 v=60
16272 On ch=2 n=56 v=68
16274 On ch=2 n=57 v=0
16296 On ch=2 n=65 v=0
16296 On ch=2 n=60 v=0
16296 On ch=2 n=65 v=38
16296 On ch=2 n=60 v=49
16296 On ch=2 n=57 v=63
16298 On ch=2 n=59 v=0
16298 On ch=2 n=56 v=0
16320 On ch=2 n=58 v=49
16320 On ch=2 n=46 v=66
16322 On ch=2 n=60 v=0
16322 On ch=2 n=57 v=0
16322 On ch=2 n=65 v=0
16332 On ch=2 n=67 v=36
16332 On ch=2 n=65 v=27
16332 On ch=2 n=62 v=44
16334 On ch=2 n=58 v=0
16334 On ch=2 n=46 v=0
16338 On ch=2 n=65 v=0
16338 On ch=2 n=67 v=0
16338 On ch=2 n=62 v=0
16344 On ch=2 n=67 v=38
16344 On ch=2 n=65 v=30
16344 On ch=2 n=62 v=46
16352 On ch=2 n=62 v=0
16352 On ch=2 n=65 v=0
16352 On ch=2 n=67 v=0
16356 On ch=2 n=67 v=35
16356 On ch=2 n=65 v=27
16356 On ch=2 n=62 v=40
16362 On ch=2 n=62 v=0
16362 On ch=2 n=65 v=0
16362 On ch=2 n=67 v=0
16368 On ch=2 n=59 v=47
16368 On ch=2 n=47 v=58
16374 On ch=2 n=59 v=0
16380 On ch=2 n=67 v=33
16380 On ch=2 n=65 v=24
16380 On ch=2 n=62 v=40
16382 On ch=2 n=47 v=0
16386 On ch=2 n=67 v=0
16386 On ch=2 n=65 v=0
16386 On ch=2 n=62 v=0
16392 On ch=2 n=67 v=35
16392 On ch=2 n=65 v=27
16392 On ch=2 n=62 v=42
16400 On ch=2 n=62 v=0
16400 On ch=2 n=65 v=0
16400 On ch=2 n=67 v=0
16404 On ch=2 n=67 v=33
16404 On ch=2 n=65 v=22
16404 On ch=2 n=62 v=37
16410 On ch=2 n=62 v=0
16410 On ch=2 n=65 v=0
16410 On ch=2 n=67 v=0
16416 On ch=2 n=48 v=60
16428 On ch=2 n=69 v=36
16428 On ch=2 n=65 v=27
16428 On ch=2 n=60 v=44
16430 On ch=2 n=48 v=0
16434 On ch=2 n=69 v=0
16434 On ch=2 n=65 v=0
16434 On ch=2 n=60 v=0
16440 On ch=2 n=69 v=38
16440 On ch=2 n=65 v=30
16440 On ch=2 n=60 v=46
16448 On ch=2 n=60 v=0
16448 On ch=2 n=65 v=0
16448 On ch=2 n=69 v=0
16452 On ch=2 n=69 v=35
16452 On ch=2 n=65 v=22
16452 On ch=2 n=60 v=40
16458 On ch=2 n=60 v=0
16458 On ch=2 n=65 v=0
16458 On ch=2 n=69 v=0
16464 On ch=2 n=48 v=44
16464 On ch=2 n=36 v=63
16476 On ch=2 n=64 v=33
16476 On ch=2 n=60 v=27
16476 On ch=2 n=58 v=40
16478 On ch=2 n=36 v=0
16478 On ch=2 n=48 v=0
16482 On ch=2 n=60 v=0
16482 On ch=2 n=64 v=0
16482 On ch=2 n=58 v=0
16488 On ch=2 n=64 v=35
16488 On ch=2 n=60 v=29
16488 On ch=2 n=58 v=42
16496 On ch=2 n=58 v=0
16496 On ch=2 n=60 v=0
16496 On ch=2 n=64 v=0
16500 On ch=2 n=64 v=40
16500 On ch=2 n=60 v=24
16500 On ch=2 n=58 v=46
16504 On ch=2 n=41 v=55
16506 On ch=2 n=58 v=0
16506 On ch=2 n=64 v=0
16506 On ch=2 n=60 v=0
16510 On ch=2 n=60 v=38
16512 On ch=2 n=57 v=44
16552 On ch=2 n=57 v=0
16552 On ch=2 n=41 v=0
16558 On ch=2 n=60 v=0
16560 On ch=2 n=57 v=88
16560 On ch=2 n=45 v=110
16600 On ch=2 n=57 v=0
16602 On ch=2 n=45 v=0
16602 On ch=2 n=57 v=85
16602 On ch=2 n=45 v=104
16608 On ch=2 n=50 v=82
16608 On ch=2 n=38 v=115
16610 On ch=2 n=45 v=0
16610 On ch=2 n=57 v=0
16648 On ch=2 n=50 v=0
16648 On ch=2 n=38 v=0
16656 On ch=2 n=62 v=88
16656 On ch=2 n=50 v=110
16698 On ch=2 n=50 v=0
16698 On ch=2 n=62 v=0
16698 On ch=2 n=62 v=85
16698 On ch=2 n=50 v=104
16704 On ch=2 n=55 v=82
16704 On ch=2 n=43 v=115
16706 On ch=2 n=50 v=0
16706 On ch=2 n=62 v=0
16744 On ch=2 n=55 v=0
16744 On ch=2 n=43 v=0
16752 On ch=2 n=58 v=88
16752 On ch=2 n=46 v=110
16794 On ch=2 n=46 v=0
16794 On ch=2 n=58 v=0
16794 On ch=2 n=58 v=85
16794 On ch=2 n=46 v=104
16800 On ch=2 n=49 v=93
16800 On ch=2 n=37 v=126
16802 On ch=2 n=46 v=0
16802 On ch=2 n=58 v=0
16840 On ch=2 n=49 v=0
16840 On ch=2 n=37 v=0
16848 On ch=2 n=50 v=85
16848 On ch=2 n=38 v=115
16884 On ch=2 n=38 v=0
16884 On ch=2 n=50 v=0
16896 On ch=2 n=46 v=66
16896 On ch=2 n=34 v=82
16944 On ch=2 n=46 v=0
16944 On ch=2 n=46 v=60
16946 On ch=2 n=34 v=0
16968 On ch=2 n=55 v=51
16968 On ch=2 n=53 v=44
16968 On ch=2 n=50 v=33
16992 On ch=2 n=50 v=0
16992 On ch=2 n=46 v=0
16992 On ch=2 n=55 v=0
16992 On ch=2 n=53 v=0
16992 On ch=2 n=57 v=69
16992 On ch=2 n=53 v=44
16992 On ch=2 n=48 v=71
17016 On ch=2 n=60 v=63
17018 On ch=2 n=57 v=0
17040 On ch=2 n=48 v=0
17040 On ch=2 n=58 v=66
17040 On ch=2 n=52 v=52
17040 On ch=2 n=48 v=62
17042 On ch=2 n=53 v=0
17042 On ch=2 n=60 v=0
17064 On ch=2 n=55 v=56
17066 On ch=2 n=52 v=0
17088 On ch=2 n=48 v=0
17088 On ch=2 n=57 v=33
17088 On ch=2 n=53 v=60
17090 On ch=2 n=58 v=0
17090 On ch=2 n=55 v=0
17128 On ch=2 n=57 v=0
17128 On ch=2 n=53 v=0
17136 On ch=2 n=57 v=44
17178 On ch=2 n=57 v=0
17178 On ch=2 n=57 v=38
17184 On ch=2 n=50 v=49
17186 On ch=2 n=57 v=0
17224 On ch=2 n=50 v=0
17232 On ch=2 n=62 v=49
17232 On ch=2 n=50 v=44
17274 On ch=2 n=50 v=0
17274 On ch=2 n=62 v=0
17274 On ch=2 n=62 v=44
17274 On ch=2 n=50 v=38
17280 On ch=2 n=55 v=51
17280 On ch=2 n=43 v=46
17282 On ch=2 n=50 v=0
17282 On ch=2 n=62 v=0
17320 On ch=2 n=55 v=0
17320 On ch=2 n=43 v=0
17328 On ch=2 n=58 v=55
17370 On ch=2 n=58 v=0
17370 On ch=2 n=58 v=49
17376 On ch=2 n=52 v=60
17378 On ch=2 n=58 v=0
17416 On ch=2 n=52 v=0
17424 On ch=2 n=67 v=55
17424 On ch=2 n=55 v=49
17466 On ch=2 n=55 v=0
17466 On ch=2 n=67 v=0
17466 On ch=2 n=67 v=47
17466 On ch=2 n=55 v=41
17472 On ch=2 n=48 v=55
17474 On ch=2 n=55 v=0
17474 On ch=2 n=67 v=0
17496 On ch=2 n=48 v=0
17496 On ch=2 n=64 v=44
17496 On ch=2 n=60 v=27
17496 On ch=2 n=58 v=39
17516 On ch=2 n=58 v=0
17516 On ch=2 n=60 v=0
17516 On ch=2 n=64 v=0
17520 On ch=2 n=50 v=51
17544 On ch=2 n=50 v=0
17544 On ch=2 n=65 v=40
17544 On ch=2 n=60 v=24
17544 On ch=2 n=58 v=36
17564 On ch=2 n=58 v=0
17564 On ch=2 n=60 v=0
17564 On ch=2 n=65 v=0
17568 On ch=2 n=52 v=47
17592 On ch=2 n=52 v=0
17592 On ch=2 n=67 v=36
17592 On ch=2 n=60 v=19
17592 On ch=2 n=58 v=31
17612 On ch=2 n=58 v=0
17612 On ch=2 n=60 v=0
17612 On ch=2 n=67 v=0
17616 On ch=2 n=48 v=49
17640 On ch=2 n=48 v=0
17640 On ch=2 n=64 v=38
17640 On ch=2 n=60 v=22
17640 On ch=2 n=58 v=34
17660 On ch=2 n=58 v=0
17660 On ch=2 n=60 v=0
17660 On ch=2 n=64 v=0
17664 On ch=2 n=53 v=38
17664 On ch=2 n=41 v=55
17688 On ch=2 n=41 v=0
17688 On ch=2 n=53 v=0
17688 On ch=2 n=65 v=38
17688 On ch=2 n=60 v=22
17688 On ch=2 n=57 v=34
17698 On ch=2 n=57 v=0
17698 On ch=2 n=60 v=0
17698 On ch=2 n=65 v=0
17712 On ch=2 n=60 v=36
17712 On ch=2 n=57 v=19
17712 On ch=2 n=53 v=31
17724 On ch=2 n=53 v=0
17724 On ch=2 n=57 v=0
17724 On ch=2 n=60 v=0
17736 On ch=2 n=57 v=33
17736 On ch=2 n=53 v=16
17736 On ch=2 n=48 v=28
17744 On ch=2 n=48 v=0
17744 On ch=2 n=53 v=0
17744 On ch=2 n=57 v=0
17760 On ch=2 n=45 v=38
17760 On ch=2 n=33 v=49
17784 On ch=2 n=33 v=0
17784 On ch=2 n=45 v=0
17784 On ch=2 n=69 v=33
17784 On ch=2 n=65 v=24
17784 On ch=2 n=60 v=36
17794 On ch=2 n=60 v=0
17794 On ch=2 n=65 v=0
17794 On ch=2 n=69 v=0
17808 On ch=2 n=65 v=38
17808 On ch=2 n=60 v=22
17808 On ch=2 n=57 v=34
17820 On ch=2 n=57 v=0
17820 On ch=2 n=60 v=0
17820 On ch=2 n=65 v=0
17832 On ch=2 n=60 v=35
17832 On ch=2 n=57 v=18
17832 On ch=2 n=53 v=30
17840 On ch=2 n=53 v=0
17840 On ch=2 n=57 v=0
17840 On ch=2 n=60 v=0
17856 On ch=2 n=46 v=38
17856 On ch=2 n=34 v=55
17880 On ch=2 n=34 v=0
17880 On ch=2 n=46 v=0
17880 On ch=2 n=67 v=38
17880 On ch=2 n=65 v=22
17880 On ch=2 n=62 v=34
17900 On ch=2 n=62 v=0
17900 On ch=2 n=65 v=0
17900 On ch=2 n=67 v=0
17904 On ch=2 n=67 v=36
17904 On ch=2 n=65 v=19
17904 On ch=2 n=62 v=31
17924 On ch=2 n=62 v=0
17924 On ch=2 n=65 v=0
17924 On ch=2 n=67 v=0
17928 On ch=2 n=67 v=33
17928 On ch=2 n=65 v=16
17928 On ch=2 n=62 v=28
17948 On ch=2 n=62 v=0
17948 On ch=2 n=65 v=0
17948 On ch=2 n=67 v=0
17952 On ch=2 n=47 v=49
17952 On ch=2 n=35 v=60
17976 On ch=2 n=35 v=0
17976 On ch=2 n=47 v=0
17976 On ch=2 n=67 v=44
17976 On ch=2 n=65 v=35
17976 On ch=2 n=62 v=47
17996 On ch=2 n=62 v=0
17996 On ch=2 n=65 v=0
17996 On ch=2 n=67 v=0
18000 On ch=2 n=67 v=49
18000 On ch=2 n=65 v=33
18000 On ch=2 n=62 v=45
18020 On ch=2 n=62 v=0
18020 On ch=2 n=65 v=0
18020 On ch=2 n=67 v=0
18024 On ch=2 n=67 v=46
18024 On ch=2 n=65 v=29
18024 On ch=2 n=62 v=41
18044 On ch=2 n=62 v=0
18044 On ch=2 n=65 v=0
18044 On ch=2 n=67 v=0
18048 On ch=2 n=48 v=38
18048 On ch=2 n=36 v=55
18072 On ch=2 n=36 v=0
18072 On ch=2 n=48 v=0
18072 On ch=2 n=57 v=44
18072 On ch=2 n=53 v=27
18072 On ch=2 n=48 v=39
18092 On ch=2 n=48 v=0
18092 On ch=2 n=53 v=0
18092 On ch=2 n=57 v=0
18096 On ch=2 n=69 v=38
18096 On ch=2 n=65 v=22
18096 On ch=2 n=60 v=29
18144 On ch=2 n=60 v=0
18144 On ch=2 n=65 v=0
18144 On ch=2 n=69 v=0
18240 On ch=2 n=48 v=38
18240 On ch=2 n=36 v=55
18264 On ch=2 n=70 v=44
18264 On ch=2 n=67 v=30
18264 On ch=2 n=65 v=38
18264 On ch=2 n=60 v=27
18266 On ch=2 n=36 v=0
18266 On ch=2 n=48 v=0
18278 On ch=2 n=65 v=0
18278 On ch=2 n=67 v=0
18278 On ch=2 n=60 v=0
18278 On ch=2 n=70 v=0
18288 On ch=2 n=70 v=55
18288 On ch=2 n=67 v=55
18288 On ch=2 n=65 v=45
18288 On ch=2 n=60 v=38
18306 On ch=2 n=60 v=0
18306 On ch=2 n=70 v=0
18306 On ch=2 n=67 v=0
18306 On ch=2 n=65 v=0
18312 On ch=2 n=70 v=68
18312 On ch=2 n=67 v=68
18312 On ch=2 n=65 v=62
18312 On ch=2 n=60 v=51
18328 On ch=2 n=60 v=0
18328 On ch=2 n=70 v=0
18328 On ch=2 n=67 v=0
18328 On ch=2 n=65 v=0
18336 On ch=2 n=48 v=77
18336 On ch=2 n=36 v=99
18353 On ch=2 n=60 v=88
18356 On ch=2 n=64 v=84
18358 On ch=2 n=60 v=0
18358 On ch=2 n=67 v=89
18360 On ch=2 n=48 v=0
18360 On ch=2 n=64 v=0
18360 On ch=2 n=36 v=0
18360 On ch=2 n=70 v=93
18362 On ch=2 n=67 v=0
18366 On ch=2 n=69 v=91
18368 On ch=2 n=70 v=0
18372 On ch=2 n=67 v=89
18374 On ch=2 n=69 v=0
18378 On ch=2 n=65 v=86
18380 On ch=2 n=67 v=0
18384 On ch=2 n=64 v=90
18386 On ch=2 n=65 v=0
18390 On ch=2 n=62 v=88
18392 On ch=2 n=64 v=0
18396 On ch=2 n=60 v=85
18398 On ch=2 n=62 v=0
18402 On ch=2 n=58 v=83
18404 On ch=2 n=60 v=0
18408 On ch=2 n=57 v=86
18410 On ch=2 n=58 v=0
18414 On ch=2 n=55 v=84
18416 On ch=2 n=57 v=0
18420 On ch=2 n=53 v=88
18422 On ch=2 n=55 v=0
18426 On ch=2 n=52 v=93
18428 On ch=2 n=53 v=0
18432 On ch=2 n=53 v=77
18432 On ch=2 n=41 v=93
18434 On ch=2 n=52 v=0
18444 On ch=2 n=53 v=0
18444 On ch=2 n=57 v=52
18444 On ch=2 n=53 v=60
18446 On ch=2 n=41 v=0
18450 On ch=2 n=53 v=0
18450 On ch=2 n=57 v=0
18456 On ch=2 n=57 v=55
18456 On ch=2 n=53 v=62
18464 On ch=2 n=53 v=0
18464 On ch=2 n=57 v=0
18468 On ch=2 n=57 v=51
18468 On ch=2 n=53 v=57
18474 On ch=2 n=53 v=0
18474 On ch=2 n=57 v=0
18480 On ch=2 n=53 v=66
18480 On ch=2 n=41 v=85
18492 On ch=2 n=53 v=0
18492 On ch=2 n=57 v=49
18492 On ch=2 n=53 v=57
18494 On ch=2 n=41 v=0
18498 On ch=2 n=53 v=0
18498 On ch=2 n=57 v=0
18504 On ch=2 n=53 v=51
18504 On ch=2 n=57 v=59
18512 On ch=2 n=57 v=0
18512 On ch=2 n=53 v=0
18516 On ch=2 n=57 v=48
18516 On ch=2 n=53 v=53
18522 On ch=2 n=53 v=0
18522 On ch=2 n=57 v=0
18528 On ch=2 n=53 v=66
18528 On ch=2 n=41 v=88
18540 On ch=2 n=53 v=0
18540 On ch=2 n=63 v=52
18540 On ch=2 n=60 v=44
18540 On ch=2 n=53 v=60
18542 On ch=2 n=41 v=0
18546 On ch=2 n=63 v=0
18546 On ch=2 n=60 v=0
18546 On ch=2 n=53 v=0
18552 On ch=2 n=63 v=55
18552 On ch=2 n=60 v=46
18552 On ch=2 n=53 v=62
18560 On ch=2 n=53 v=0
18560 On ch=2 n=60 v=0
18560 On ch=2 n=63 v=0
18564 On ch=2 n=63 v=51
18564 On ch=2 n=60 v=41
18564 On ch=2 n=53 v=57
18570 On ch=2 n=53 v=0
18570 On ch=2 n=60 v=0
18570 On ch=2 n=63 v=0
18576 On ch=2 n=53 v=82
18576 On ch=2 n=41 v=82
18588 On ch=2 n=53 v=0
18588 On ch=2 n=63 v=49
18588 On ch=2 n=60 v=41
18588 On ch=2 n=53 v=57
18590 On ch=2 n=41 v=0
18594 On ch=2 n=63 v=0
18594 On ch=2 n=60 v=0
18594 On ch=2 n=53 v=0
18600 On ch=2 n=63 v=40
18600 On ch=2 n=60 v=33
18600 On ch=2 n=53 v=48
18608 On ch=2 n=53 v=0
18608 On ch=2 n=60 v=0
18608 On ch=2 n=63 v=0
18612 On ch=2 n=63 v=35
18612 On ch=2 n=60 v=16
18612 On ch=2 n=53 v=40
18618 On ch=2 n=53 v=0
18618 On ch=2 n=60 v=0
18618 On ch=2 n=63 v=0
18624 On ch=2 n=41 v=60
18636 On ch=2 n=46 v=44
18638 On ch=2 n=41 v=0
18648 On ch=2 n=50 v=46
18650 On ch=2 n=46 v=0
18660 On ch=2 n=53 v=38
18662 On ch=2 n=50 v=0
18672 On ch=2 n=50 v=41
18674 On ch=2 n=53 v=0
18684 On ch=2 n=53 v=44
18686 On ch=2 n=50 v=0
18696 On ch=2 n=58 v=39
18698 On ch=2 n=53 v=0
18708 On ch=2 n=62 v=33
18710 On ch=2 n=58 v=0
18720 On ch=2 n=62 v=0
18720 On ch=2 n=41 v=49
18732 On ch=2 n=43 v=44
18734 On ch=2 n=41 v=0
18744 On ch=2 n=46 v=46
18746 On ch=2 n=43 v=0
18756 On ch=2 n=48 v=42
18758 On ch=2 n=46 v=0
18768 On ch=2 n=52 v=39
18770 On ch=2 n=48 v=0
18780 On ch=2 n=55 v=41
18782 On ch=2 n=52 v=0
18792 On ch=2 n=58 v=46
18794 On ch=2 n=55 v=0
18804 On ch=2 n=60 v=49
18806 On ch=2 n=58 v=0
18816 On ch=2 n=60 v=0
18816 On ch=2 n=53 v=66
18816 On ch=2 n=41 v=82
18828 On ch=2 n=53 v=0
18828 On ch=2 n=57 v=41
18828 On ch=2 n=53 v=49
18830 On ch=2 n=41 v=0
18834 On ch=2 n=53 v=0
18834 On ch=2 n=57 v=0
18840 On ch=2 n=57 v=44
18840 On ch=2 n=53 v=51
18848 On ch=2 n=53 v=0
18848 On ch=2 n=57 v=0
18852 On ch=2 n=57 v=40
18852 On ch=2 n=53 v=46
18858 On ch=2 n=53 v=0
18858 On ch=2 n=57 v=0
18864 On ch=2 n=53 v=55
18864 On ch=2 n=41 v=74
18876 On ch=2 n=53 v=0
18876 On ch=2 n=57 v=38
18876 On ch=2 n=53 v=46
18878 On ch=2 n=41 v=0
18882 On ch=2 n=53 v=0
18882 On ch=2 n=57 v=0
18888 On ch=2 n=53 v=40
18888 On ch=2 n=57 v=48
18896 On ch=2 n=57 v=0
18896 On ch=2 n=53 v=0
18900 On ch=2 n=57 v=37
18900 On ch=2 n=53 v=42
18906 On ch=2 n=53 v=0
18906 On ch=2 n=57 v=0
18912 On ch=2 n=53 v=55
18912 On ch=2 n=41 v=77
18924 On ch=2 n=53 v=0
18924 On ch=2 n=63 v=41
18924 On ch=2 n=60 v=33
18924 On ch=2 n=53 v=49
18926 On ch=2 n=41 v=0
18930 On ch=2 n=63 v=0
18930 On ch=2 n=60 v=0
18930 On ch=2 n=53 v=0
18936 On ch=2 n=63 v=44
18936 On ch=2 n=60 v=35
18936 On ch=2 n=53 v=51
18944 On ch=2 n=53 v=0
18944 On ch=2 n=60 v=0
18944 On ch=2 n=63 v=0
18948 On ch=2 n=63 v=40
18948 On ch=2 n=60 v=30
18948 On ch=2 n=53 v=46
18954 On ch=2 n=53 v=0
18954 On ch=2 n=60 v=0
18954 On ch=2 n=63 v=0
18960 On ch=2 n=63 v=38
18960 On ch=2 n=57 v=27
18960 On ch=2 n=53 v=49
18968 On ch=2 n=53 v=0
18968 On ch=2 n=57 v=0
18968 On ch=2 n=63 v=0
18972 On ch=2 n=63 v=38
18972 On ch=2 n=57 v=30
18972 On ch=2 n=53 v=46
18978 On ch=2 n=53 v=0
18978 On ch=2 n=57 v=0
18978 On ch=2 n=63 v=0
18984 On ch=2 n=63 v=35
18984 On ch=2 n=60 v=27
18984 On ch=2 n=53 v=42
18992 On ch=2 n=53 v=0
18992 On ch=2 n=60 v=0
18992 On ch=2 n=63 v=0
18996 On ch=2 n=63 v=29
18996 On ch=2 n=60 v=16
18996 On ch=2 n=53 v=35
19002 On ch=2 n=53 v=0
19002 On ch=2 n=60 v=0
19002 On ch=2 n=63 v=0
19008 On ch=2 n=41 v=44
19020 On ch=2 n=46 v=33
19022 On ch=2 n=41 v=0
19032 On ch=2 n=50 v=35
19034 On ch=2 n=46 v=0
19044 On ch=2 n=53 v=27
19046 On ch=2 n=50 v=0
19056 On ch=2 n=50 v=30
19058 On ch=2 n=53 v=0
19068 On ch=2 n=53 v=33
19070 On ch=2 n=50 v=0
19080 On ch=2 n=58 v=28
19082 On ch=2 n=53 v=0
19092 On ch=2 n=62 v=22
19094 On ch=2 n=58 v=0
19104 On ch=2 n=62 v=0
19104 On ch=2 n=41 v=38
19116 On ch=2 n=43 v=33
19118 On ch=2 n=41 v=0
19128 On ch=2 n=46 v=35
19130 On ch=2 n=43 v=0
19140 On ch=2 n=48 v=31
19142 On ch=2 n=46 v=0
19152 On ch=2 n=52 v=28
19154 On ch=2 n=48 v=0
19164 On ch=2 n=55 v=30
19166 On ch=2 n=52 v=0
19176 On ch=2 n=58 v=27
19178 On ch=2 n=55 v=0
19188 On ch=2 n=60 v=22
19190 On ch=2 n=58 v=0
19194 On ch=2 n=41 v=44
19200 On ch=2 n=60 v=0
19200 On ch=2 n=48 v=27
19202 On ch=2 n=57 v=33
19224 On ch=2 n=57 v=0
19224 On ch=2 n=48 v=0
19224 On ch=2 n=41 v=0
19296 On ch=2 n=60 v=33
19296 On ch=2 n=57 v=19
19296 On ch=2 n=53 v=27
19320 On ch=2 n=53 v=0
19320 On ch=2 n=57 v=0
19320 On ch=2 n=60 v=0
19392 On ch=2 n=65 v=27
19392 On ch=2 n=60 v=16
19392 On ch=2 n=57 v=24
19392 On ch=2 n=53 v=33
19416 On ch=2 n=53 v=0
19416 On ch=2 n=65 v=0
19416 On ch=2 n=60 v=0
19416 On ch=2 n=57 v=0
19584 On ch=2 n=84 v=66
19656 On ch=2 n=81 v=49
19658 On ch=2 n=84 v=0
19680 On ch=2 n=77 v=55
19682 On ch=2 n=81 v=0
19704 On ch=2 n=77 v=0
19824 On ch=2 n=41 v=33
19826 On ch=2 n=48 v=16
19828 On ch=2 n=57 v=22
19848 On ch=2 n=57 v=0
19848 On ch=2 n=48 v=0
19848 On ch=2 n=41 v=0
19866 On ch=2 n=41 v=27
19872 On ch=2 n=48 v=13
19876 On ch=2 n=57 v=19
19896 On ch=2 n=57 v=0
19896 On ch=2 n=48 v=0
19896 On ch=2 n=41 v=0
168 Par ch=1 c=64 v=127
192 Par ch=1 c=64 v=127
290 Par ch=1 c=64 v=0
292 Par ch=1 c=64 v=127
384 Par ch=1 c=64 v=127
386 Par ch=1 c=64 v=0
388 Par ch=1 c=64 v=127
482 Par ch=1 c=64 v=0
484 Par ch=1 c=64 v=127
576 Par ch=1 c=64 v=127
578 Par ch=1 c=64 v=0
580 Par ch=1 c=64 v=127
626 Par ch=1 c=64 v=0
628 Par ch=1 c=64 v=127
674 Par ch=1 c=64 v=0
676 Par ch=1 c=64 v=127
722 Par ch=1 c=64 v=0
724 Par ch=1 c=64 v=127
768 Par ch=1 c=64 v=127
770 Par ch=1 c=64 v=0
772 Par ch=1 c=64 v=127
868 Par ch=1 c=64 v=0
960 Par ch=1 c=64 v=0
964 Par ch=1 c=64 v=127
1060 Par ch=1 c=64 v=0
1084 Par ch=1 c=64 v=127
1106 Par ch=1 c=64 v=0
1108 Par ch=1 c=64 v=127
1130 Par ch=1 c=64 v=0
1132 Par ch=1 c=64 v=127
1152 Par ch=1 c=64 v=127
1154 Par ch=1 c=64 v=0
1156 Par ch=1 c=64 v=127
1252 Par ch=1 c=64 v=0
1276 Par ch=1 c=64 v=127
1298 Par ch=1 c=64 v=0
1300 Par ch=1 c=64 v=127
1322 Par ch=1 c=64 v=0
1324 Par ch=1 c=64 v=127
1344 Par ch=1 c=64 v=127
1346 Par ch=1 c=64 v=0
1348 Par ch=1 c=64 v=127
1442 Par ch=1 c=64 v=0
1444 Par ch=1 c=64 v=127
1490 Par ch=1 c=64 v=0
1492 Par ch=1 c=64 v=127
1536 Par ch=1 c=64 v=127
1538 Par ch=1 c=64 v=0
1540 Par ch=1 c=64 v=127
1636 Par ch=1 c=64 v=0
1728 Par ch=1 c=64 v=0
1732 Par ch=1 c=64 v=127
1778 Par ch=1 c=64 v=0
1780 Par ch=1 c=64 v=127
1826 Par ch=1 c=64 v=0
1828 Par ch=1 c=64 v=127
1874 Par ch=1 c=64 v=0
1876 Par ch=1 c=64 v=127
1920 Par ch=1 c=64 v=127
1922 Par ch=1 c=64 v=0
1924 Par ch=1 c=64 v=127
1970 Par ch=1 c=64 v=0
1972 Par ch=1 c=64 v=127
2018 Par ch=1 c=64 v=0
2020 Par ch=1 c=64 v=127
2066 Par ch=1 c=64 v=0
2068 Par ch=1 c=64 v=127
2112 Par ch=1 c=64 v=127
2114 Par ch=1 c=64 v=0
2116 Par ch=1 c=64 v=127
2162 Par ch=1 c=64 v=0
2164 Par ch=1 c=64 v=127
2210 Par ch=1 c=64 v=0
2212 Par ch=1 c=64 v=127
2258 Par ch=1 c=64 v=0
2260 Par ch=1 c=64 v=127
2304 Par ch=1 c=64 v=127
2306 Par ch=1 c=64 v=0
2308 Par ch=1 c=64 v=127
2402 Par ch=1 c=64 v=0
2404 Par ch=1 c=64 v=127
2492 Par ch=1 c=64 v=0
2496 Par ch=1 c=64 v=0
2620 Par ch=1 c=64 v=127
2642 Par ch=1 c=64 v=0
2644 Par ch=1 c=64 v=127
2666 Par ch=1 c=64 v=0
2668 Par ch=1 c=64 v=127
2688 Par ch=1 c=64 v=127
2690 Par ch=1 c=64 v=0
2812 Par ch=1 c=64 v=127
2834 Par ch=1 c=64 v=0
2836 Par ch=1 c=64 v=127
2858 Par ch=1 c=64 v=0
2860 Par ch=1 c=64 v=127
2880 Par ch=1 c=64 v=127
2882 Par ch=1 c=64 v=0
2884 Par ch=1 c=64 v=127
2930 Par ch=1 c=64 v=0
2932 Par ch=1 c=64 v=127
2978 Par ch=1 c=64 v=0
2980 Par ch=1 c=64 v=127
3026 Par ch=1 c=64 v=0
3028 Par ch=1 c=64 v=127
3072 Par ch=1 c=64 v=127
3074 Par ch=1 c=64 v=0
3124 Par ch=1 c=64 v=127
3172 Par ch=1 c=64 v=0
3220 Par ch=1 c=64 v=127
3264 Par ch=1 c=64 v=127
3268 Par ch=1 c=64 v=0
3316 Par ch=1 c=64 v=127
3364 Par ch=1 c=64 v=0
3456 Par ch=1 c=64 v=127
3458 Par ch=1 c=64 v=0
3460 Par ch=1 c=64 v=127
3554 Par ch=1 c=64 v=0
3556 Par ch=1 c=64 v=127
3602 Par ch=1 c=64 v=0
3604 Par ch=1 c=64 v=127
3648 Par ch=1 c=64 v=127
3650 Par ch=1 c=64 v=0
3700 Par ch=1 c=64 v=127
3748 Par ch=1 c=64 v=0
3816 Par ch=1 c=64 v=127
3840 Par ch=1 c=64 v=127
3938 Par ch=1 c=64 v=0
3940 Par ch=1 c=64 v=127
4032 Par ch=1 c=64 v=127
4034 Par ch=1 c=64 v=0
4036 Par ch=1 c=64 v=127
4130 Par ch=1 c=64 v=0
4132 Par ch=1 c=64 v=127
4224 Par ch=1 c=64 v=127
4226 Par ch=1 c=64 v=0
4228 Par ch=1 c=64 v=127
4322 Par ch=1 c=64 v=0
4324 Par ch=1 c=64 v=127
4416 Par ch=1 c=64 v=0
4420 Par ch=1 c=64 v=127
4514 Par ch=1 c=64 v=0
4608 Par ch=1 c=64 v=0
4616 Par ch=1 c=64 v=127
4706 Par ch=1 c=64 v=0
4708 Par ch=1 c=64 v=127
4800 Par ch=1 c=64 v=127
4802 Par ch=1 c=64 v=0
4804 Par ch=1 c=64 v=127
4898 Par ch=1 c=64 v=0
4900 Par ch=1 c=64 v=127
4992 Par ch=1 c=64 v=127
4994 Par ch=1 c=64 v=0
4996 Par ch=1 c=64 v=127
5042 Par ch=1 c=64 v=0
5044 Par ch=1 c=64 v=127
5138 Par ch=1 c=64 v=0
5140 Par ch=1 c=64 v=127
5184 Par ch=1 c=64 v=127
5186 Par ch=1 c=64 v=0
5376 Par ch=1 c=64 v=0
5380 Par ch=1 c=64 v=127
5474 Par ch=1 c=64 v=0
5476 Par ch=1 c=64 v=127
5568 Par ch=1 c=64 v=127
5570 Par ch=1 c=64 v=0
5572 Par ch=1 c=64 v=127
5666 Par ch=1 c=64 v=0
5668 Par ch=1 c=64 v=127
5760 Par ch=1 c=64 v=127
5762 Par ch=1 c=64 v=0
5952 Par ch=1 c=64 v=0
5956 Par ch=1 c=64 v=127
6052 Par ch=1 c=64 v=0
6144 Par ch=1 c=64 v=0
6148 Par ch=1 c=64 v=127
6244 Par ch=1 c=64 v=0
6246 Par ch=1 c=64 v=127
6316 Par ch=1 c=64 v=0
6336 Par ch=1 c=64 v=0
6436 Par ch=1 c=64 v=127
6528 Par ch=1 c=64 v=127
6530 Par ch=1 c=64 v=0
6628 Par ch=1 c=64 v=127
6674 Par ch=1 c=64 v=0
6676 Par ch=1 c=64 v=127
6720 Par ch=1 c=64 v=127
6722 Par ch=1 c=64 v=0
6820 Par ch=1 c=64 v=127
6912 Par ch=1 c=64 v=127
6914 Par ch=1 c=64 v=0
7012 Par ch=1 c=64 v=127
7058 Par ch=1 c=64 v=0
7060 Par ch=1 c=64 v=127
7104 Par ch=1 c=64 v=127
7106 Par ch=1 c=64 v=0
7296 Par ch=1 c=64 v=0
7488 Par ch=1 c=64 v=0
7680 Par ch=1 c=64 v=127
7778 Par ch=1 c=64 v=0
7780 Par ch=1 c=64 v=127
7872 Par ch=1 c=64 v=127
7874 Par ch=1 c=64 v=0
7876 Par ch=1 c=64 v=127
7922 Par ch=1 c=64 v=0
7924 Par ch=1 c=64 v=127
7970 Par ch=1 c=64 v=0
7972 Par ch=1 c=64 v=127
8064 Par ch=1 c=64 v=127
8066 Par ch=1 c=64 v=0
8068 Par ch=1 c=64 v=127
8114 Par ch=1 c=64 v=0
8116 Par ch=1 c=64 v=127
8162 Par ch=1 c=64 v=0
8164 Par ch=1 c=64 v=127
8210 Par ch=1 c=64 v=0
8212 Par ch=1 c=64 v=127
8256 Par ch=1 c=64 v=127
8258 Par ch=1 c=64 v=0
8260 Par ch=1 c=64 v=127
8356 Par ch=1 c=64 v=0
8448 Par ch=1 c=64 v=0
8452 Par ch=1 c=64 v=127
8548 Par ch=1 c=64 v=0
8572 Par ch=1 c=64 v=127
8594 Par ch=1 c=64 v=0
8596 Par ch=1 c=64 v=127
8618 Par ch=1 c=64 v=0
8620 Par ch=1 c=64 v=127
8640 Par ch=1 c=64 v=127
8642 Par ch=1 c=64 v=0
8644 Par ch=1 c=64 v=127
8740 Par ch=1 c=64 v=0
8764 Par ch=1 c=64 v=127
8786 Par ch=1 c=64 v=0
8788 Par ch=1 c=64 v=127
8810 Par ch=1 c=64 v=0
8812 Par ch=1 c=64 v=127
8832 Par ch=1 c=64 v=127
8834 Par ch=1 c=64 v=0
8836 Par ch=1 c=64 v=127
8930 Par ch=1 c=64 v=0
8932 Par ch=1 c=64 v=127
8978 Par ch=1 c=64 v=0
8980 Par ch=1 c=64 v=127
9024 Par ch=1 c=64 v=127
9026 Par ch=1 c=64 v=0
9028 Par ch=1 c=64 v=127
9124 Par ch=1 c=64 v=0
9216 Par ch=1 c=64 v=0
9220 Par ch=1 c=64 v=127
9266 Par ch=1 c=64 v=0
9268 Par ch=1 c=64 v=127
9314 Par ch=1 c=64 v=0
9316 Par ch=1 c=64 v=127
9362 Par ch=1 c=64 v=0
9364 Par ch=1 c=64 v=127
9408 Par ch=1 c=64 v=127
9410 Par ch=1 c=64 v=0
9412 Par ch=1 c=64 v=127
9458 Par ch=1 c=64 v=0
9460 Par ch=1 c=64 v=127
9506 Par ch=1 c=64 v=0
9508 Par ch=1 c=64 v=127
9554 Par ch=1 c=64 v=0
9556 Par ch=1 c=64 v=127
9600 Par ch=1 c=64 v=127
9602 Par ch=1 c=64 v=0
9604 Par ch=1 c=64 v=127
9650 Par ch=1 c=64 v=0
9652 Par ch=1 c=64 v=127
9698 Par ch=1 c=64 v=0
9700 Par ch=1 c=64 v=127
9746 Par ch=1 c=64 v=0
9748 Par ch=1 c=64 v=127
9792 Par ch=1 c=64 v=127
9794 Par ch=1 c=64 v=0
9796 Par ch=1 c=64 v=127
9890 Par ch=1 c=64 v=0
9892 Par ch=1 c=64 v=127
9980 Par ch=1 c=64 v=0
9984 Par ch=1 c=64 v=0
10108 Par ch=1 c=64 v=127
10130 Par ch=1 c=64 v=0
10132 Par ch=1 c=64 v=127
10154 Par ch=1 c=64 v=0
10156 Par ch=1 c=64 v=127
10176 Par ch=1 c=64 v=127
10178 Par ch=1 c=64 v=0
10300 Par ch=1 c=64 v=127
10322 Par ch=1 c=64 v=0
10324 Par ch=1 c=64 v=127
10346 Par ch=1 c=64 v=0
10348 Par ch=1 c=64 v=127
10368 Par ch=1 c=64 v=127
10370 Par ch=1 c=64 v=0
10372 Par ch=1 c=64 v=127
10418 Par ch=1 c=64 v=0
10420 Par ch=1 c=64 v=127
10466 Par ch=1 c=64 v=0
10468 Par ch=1 c=64 v=127
10514 Par ch=1 c=64 v=0
10516 Par ch=1 c=64 v=127
10560 Par ch=1 c=64 v=127
10562 Par ch=1 c=64 v=0
10612 Par ch=1 c=64 v=127
10660 Par ch=1 c=64 v=0
10708 Par ch=1 c=64 v=127
10752 Par ch=1 c=64 v=127
10756 Par ch=1 c=64 v=0
10804 Par ch=1 c=64 v=127
10852 Par ch=1 c=64 v=0
10944 Par ch=1 c=64 v=127
10946 Par ch=1 c=64 v=0
10948 Par ch=1 c=64 v=127
11042 Par ch=1 c=64 v=0
11044 Par ch=1 c=64 v=127
11090 Par ch=1 c=64 v=0
11092 Par ch=1 c=64 v=127
11136 Par ch=1 c=64 v=0
11140 Par ch=1 c=64 v=127
11234 Par ch=1 c=64 v=0
11236 Par ch=1 c=64 v=127
11328 Par ch=1 c=64 v=127
11330 Par ch=1 c=64 v=0
11332 Par ch=1 c=64 v=127
11378 Par ch=1 c=64 v=0
11380 Par ch=1 c=64 v=127
11426 Par ch=1 c=64 v=0
11428 Par ch=1 c=64 v=127
11474 Par ch=1 c=64 v=0
11476 Par ch=1 c=64 v=127
11520 Par ch=1 c=64 v=127
11522 Par ch=1 c=64 v=0
11524 Par ch=1 c=64 v=127
11618 Par ch=1 c=64 v=0
11620 Par ch=1 c=64 v=127
11710 Par ch=1 c=64 v=0
11712 Par ch=1 c=64 v=127
11728 Par ch=1 c=64 v=0
11760 Par ch=1 c=64 v=127
11776 Par ch=1 c=64 v=0
11808 Par ch=1 c=64 v=127
11824 Par ch=1 c=64 v=0
11856 Par ch=1 c=64 v=127
11872 Par ch=1 c=64 v=0
11904 Par ch=1 c=64 v=127
11920 Par ch=1 c=64 v=0
11952 Par ch=1 c=64 v=127
11968 Par ch=1 c=64 v=0
12000 Par ch=1 c=64 v=127
12016 Par ch=1 c=64 v=0
12048 Par ch=1 c=64 v=127
12064 Par ch=1 c=64 v=0
12096 Par ch=1 c=64 v=127
12112 Par ch=1 c=64 v=0
12144 Par ch=1 c=64 v=127
12160 Par ch=1 c=64 v=0
12192 Par ch=1 c=64 v=127
12208 Par ch=1 c=64 v=0
12240 Par ch=1 c=64 v=127
12256 Par ch=1 c=64 v=0
12288 Par ch=1 c=64 v=0
12292 Par ch=1 c=64 v=127
12386 Par ch=1 c=64 v=0
12388 Par ch=1 c=64 v=127
12480 Par ch=1 c=64 v=127
12482 Par ch=1 c=64 v=0
12484 Par ch=1 c=64 v=127
12530 Par ch=1 c=64 v=0
12532 Par ch=1 c=64 v=127
12578 Par ch=1 c=64 v=0
12580 Par ch=1 c=64 v=127
12626 Par ch=1 c=64 v=0
12628 Par ch=1 c=64 v=127
12672 Par ch=1 c=64 v=127
12674 Par ch=1 c=64 v=0
12676 Par ch=1 c=64 v=127
12722 Par ch=1 c=64 v=0
12724 Par ch=1 c=64 v=127
12770 Par ch=1 c=64 v=0
12772 Par ch=1 c=64 v=127
12818 Par ch=1 c=64 v=0
12820 Par ch=1 c=64 v=127
12844 Par ch=1 c=64 v=0
12864 Par ch=1 c=64 v=127
12866 Par ch=1 c=64 v=0
12868 Par ch=1 c=64 v=127
12914 Par ch=1 c=64 v=0
12916 Par ch=1 c=64 v=127
12962 Par ch=1 c=64 v=0
12964 Par ch=1 c=64 v=127
13010 Par ch=1 c=64 v=0
13012 Par ch=1 c=64 v=127
13056 Par ch=1 c=64 v=127
13058 Par ch=1 c=64 v=0
13060 Par ch=1 c=64 v=127
13082 Par ch=1 c=64 v=0
13084 Par ch=1 c=64 v=127
13106 Par ch=1 c=64 v=0
13108 Par ch=1 c=64 v=127
13130 Par ch=1 c=64 v=0
13132 Par ch=1 c=64 v=127
13154 Par ch=1 c=64 v=0
13156 Par ch=1 c=64 v=127
13202 Par ch=1 c=64 v=0
13204 Par ch=1 c=64 v=127
13248 Par ch=1 c=64 v=127
13250 Par ch=1 c=64 v=0
13440 Par ch=1 c=64 v=0
13632 Par ch=1 c=64 v=0
13824 Par ch=1 c=64 v=0
14016 Par ch=1 c=64 v=0
14208 Par ch=1 c=64 v=0
14212 Par ch=1 c=64 v=127
14236 Par ch=1 c=64 v=0
14308 Par ch=1 c=64 v=127
14332 Par ch=1 c=64 v=0
14356 Par ch=1 c=64 v=127
14380 Par ch=1 c=64 v=0
14400 Par ch=1 c=64 v=0
14404 Par ch=1 c=64 v=127
14428 Par ch=1 c=64 v=0
14500 Par ch=1 c=64 v=127
14524 Par ch=1 c=64 v=0
14548 Par ch=1 c=64 v=127
14572 Par ch=1 c=64 v=0
14592 Par ch=1 c=64 v=0
14596 Par ch=1 c=64 v=127
14620 Par ch=1 c=64 v=0
14644 Par ch=1 c=64 v=127
14668 Par ch=1 c=64 v=0
14692 Par ch=1 c=64 v=127
14716 Par ch=1 c=64 v=0
14740 Par ch=1 c=64 v=127
14764 Par ch=1 c=64 v=0
14784 Par ch=1 c=64 v=0
14788 Par ch=1 c=64 v=127
14812 Par ch=1 c=64 v=0
14836 Par ch=1 c=64 v=127
14860 Par ch=1 c=64 v=0
14884 Par ch=1 c=64 v=127
14908 Par ch=1 c=64 v=0
14932 Par ch=1 c=64 v=127
14956 Par ch=1 c=64 v=0
14976 Par ch=1 c=64 v=0
14980 Par ch=1 c=64 v=127
15004 Par ch=1 c=64 v=0
15028 Par ch=1 c=64 v=127
15052 Par ch=1 c=64 v=0
15076 Par ch=1 c=64 v=127
15100 Par ch=1 c=64 v=0
15168 Par ch=1 c=64 v=127
15266 Par ch=1 c=64 v=0
15268 Par ch=1 c=64 v=127
15360 Par ch=1 c=64 v=127
15362 Par ch=1 c=64 v=0
15364 Par ch=1 c=64 v=127
15410 Par ch=1 c=64 v=0
15412 Par ch=1 c=64 v=127
15458 Par ch=1 c=64 v=0
15460 Par ch=1 c=64 v=127
15552 Par ch=1 c=64 v=127
15554 Par ch=1 c=64 v=0
15556 Par ch=1 c=64 v=127
15602 Par ch=1 c=64 v=0
15604 Par ch=1 c=64 v=127
15650 Par ch=1 c=64 v=0
15652 Par ch=1 c=64 v=127
15698 Par ch=1 c=64 v=0
15700 Par ch=1 c=64 v=127
15744 Par ch=1 c=64 v=127
15746 Par ch=1 c=64 v=0
15748 Par ch=1 c=64 v=127
15842 Par ch=1 c=64 v=0
15844 Par ch=1 c=64 v=127
15930 Par ch=1 c=64 v=0
15936 Par ch=1 c=64 v=0
15940 Par ch=1 c=64 v=127
16036 Par ch=1 c=64 v=0
16060 Par ch=1 c=64 v=127
16082 Par ch=1 c=64 v=0
16084 Par ch=1 c=64 v=127
16106 Par ch=1 c=64 v=0
16108 Par ch=1 c=64 v=127
16128 Par ch=1 c=64 v=127
16130 Par ch=1 c=64 v=0
16132 Par ch=1 c=64 v=127
16228 Par ch=1 c=64 v=0
16252 Par ch=1 c=64 v=127
16274 Par ch=1 c=64 v=0
16276 Par ch=1 c=64 v=127
16298 Par ch=1 c=64 v=0
16300 Par ch=1 c=64 v=127
16320 Par ch=1 c=64 v=127
16322 Par ch=1 c=64 v=0
16324 Par ch=1 c=64 v=127
16370 Par ch=1 c=64 v=0
16372 Par ch=1 c=64 v=127
16418 Par ch=1 c=64 v=0
16420 Par ch=1 c=64 v=127
16466 Par ch=1 c=64 v=0
16468 Par ch=1 c=64 v=127
16512 Par ch=1 c=64 v=127
16514 Par ch=1 c=64 v=0
16562 Par ch=1 c=64 v=127
16610 Par ch=1 c=64 v=0
16658 Par ch=1 c=64 v=127
16704 Par ch=1 c=64 v=127
16706 Par ch=1 c=64 v=0
16754 Par ch=1 c=64 v=127
16802 Par ch=1 c=64 v=0
16896 Par ch=1 c=64 v=0
16900 Par ch=1 c=64 v=127
16946 Par ch=1 c=64 v=0
16948 Par ch=1 c=64 v=127
16994 Par ch=1 c=64 v=0
16996 Par ch=1 c=64 v=127
17042 Par ch=1 c=64 v=0
17044 Par ch=1 c=64 v=127
17088 Par ch=1 c=64 v=0
17280 Par ch=1 c=64 v=0
17472 Par ch=1 c=64 v=0
17476 Par ch=1 c=64 v=127
17522 Par ch=1 c=64 v=0
17524 Par ch=1 c=64 v=127
17570 Par ch=1 c=64 v=0
17572 Par ch=1 c=64 v=127
17618 Par ch=1 c=64 v=0
17620 Par ch=1 c=64 v=127
17664 Par ch=1 c=64 v=127
17666 Par ch=1 c=64 v=0
17668 Par ch=1 c=64 v=127
17690 Par ch=1 c=64 v=0
17764 Par ch=1 c=64 v=127
17786 Par ch=1 c=64 v=0
17856 Par ch=1 c=64 v=0
17860 Par ch=1 c=64 v=127
17954 Par ch=1 c=64 v=0
17956 Par ch=1 c=64 v=127
18048 Par ch=1 c=64 v=127
18050 Par ch=1 c=64 v=0
18052 Par ch=1 c=64 v=127
18098 Par ch=1 c=64 v=0
18240 Par ch=1 c=64 v=0
18244 Par ch=1 c=64 v=127
18340 Par ch=1 c=64 v=0
18342 Par ch=1 c=64 v=127
18424 Par ch=1 c=64 v=0
18432 Par ch=1 c=64 v=0
18436 Par ch=1 c=64 v=127
18482 Par ch=1 c=64 v=0
18484 Par ch=1 c=64 v=127
18530 Par ch=1 c=64 v=0
18532 Par ch=1 c=64 v=127
18578 Par ch=1 c=64 v=0
18580 Par ch=1 c=64 v=127
18624 Par ch=1 c=64 v=127
18626 Par ch=1 c=64 v=0
18628 Par ch=1 c=64 v=127
18722 Par ch=1 c=64 v=0
18724 Par ch=1 c=64 v=127
18816 Par ch=1 c=64 v=127
18818 Par ch=1 c=64 v=0
18820 Par ch=1 c=64 v=127
18866 Par ch=1 c=64 v=0
18868 Par ch=1 c=64 v=127
18914 Par ch=1 c=64 v=0
18916 Par ch=1 c=64 v=127
19008 Par ch=1 c=64 v=127
19010 Par ch=1 c=64 v=0
19012 Par ch=1 c=64 v=127
19106 Par ch=1 c=64 v=0
19108 Par ch=1 c=64 v=127
19200 Par ch=1 c=64 v=127
19202 Par ch=1 c=64 v=0
19392 Par ch=1 c=64 v=0
19492 Par ch=1 c=64 v=127
19584 Par ch=1 c=64 v=127
19776 Par ch=1 c=64 v=127
19778 Par ch=1 c=64 v=0
168 Par ch=2 c=64 v=127
192 Par ch=2 c=64 v=127
290 Par ch=2 c=64 v=0
292 Par ch=2 c=64 v=127
384 Par ch=2 c=64 v=127
386 Par ch=2 c=64 v=0
388 Par ch=2 c=64 v=127
482 Par ch=2 c=64 v=0
484 Par ch=2 c=64 v=127
576 Par ch=2 c=64 v=127
578 Par ch=2 c=64 v=0
580 Par ch=2 c=64 v=127
626 Par ch=2 c=64 v=0
628 Par ch=2 c=64 v=127
674 Par ch=2 c=64 v=0
676 Par ch=2 c=64 v=127
722 Par ch=2 c=64 v=0
724 Par ch=2 c=64 v=127
768 Par ch=2 c=64 v=127
770 Par ch=2 c=64 v=0
772 Par ch=2 c=64 v=127
868 Par ch=2 c=64 v=0
960 Par ch=2 c=64 v=0
964 Par ch=2 c=64 v=127
1060 Par ch=2 c=64 v=0
1084 Par ch=2 c=64 v=127
1106 Par ch=2 c=64 v=0
1108 Par ch=2 c=64 v=127
1130 Par ch=2 c=64 v=0
1132 Par ch=2 c=64 v=127
1152 Par ch=2 c=64 v=127
1154 Par ch=2 c=64 v=0
1156 Par ch=2 c=64 v=127
1252 Par ch=2 c=64 v=0
1276 Par ch=2 c=64 v=127
1298 Par ch=2 c=64 v=0
1300 Par ch=2 c=64 v=127
1322 Par ch=2 c=64 v=0
1324 Par ch=2 c=64 v=127
1344 Par ch=2 c=64 v=127
1346 Par ch=2 c=64 v=0
1348 Par ch=2 c=64 v=127
1442 Par ch=2 c=64 v=0
1444 Par ch=2 c=64 v=127
1490 Par ch=2 c=64 v=0
1492 Par ch=2 c=64 v=127
1536 Par ch=2 c=64 v=127
1538 Par ch=2 c=64 v=0
1540 Par ch=2 c=64 v=127
1636 Par ch=2 c=64 v=0
1728 Par ch=2 c=64 v=0
1732 Par ch=2 c=64 v=127
1778 Par ch=2 c=64 v=0
1780 Par ch=2 c=64 v=127
1826 Par ch=2 c=64 v=0
1828 Par ch=2 c=64 v=127
1874 Par ch=2 c=64 v=0
1876 Par ch=2 c=64 v=127
1920 Par ch=2 c=64 v=127
1922 Par ch=2 c=64 v=0
1924 Par ch=2 c=64 v=127
1970 Par ch=2 c=64 v=0
1972 Par ch=2 c=64 v=127
2018 Par ch=2 c=64 v=0
2020 Par ch=2 c=64 v=127
2066 Par ch=2 c=64 v=0
2068 Par ch=2 c=64 v=127
2112 Par ch=2 c=64 v=127
2114 Par ch=2 c=64 v=0
2116 Par ch=2 c=64 v=127
2162 Par ch=2 c=64 v=0
2164 Par ch=2 c=64 v=127
2210 Par ch=2 c=64 v=0
2212 Par ch=2 c=64 v=127
2258 Par ch=2 c=64 v=0
2260 Par ch=2 c=64 v=127
2304 Par ch=2 c=64 v=127
2306 Par ch=2 c=64 v=0
2308 Par ch=2 c=64 v=127
2402 Par ch=2 c=64 v=0
2404 Par ch=2 c=64 v=127
2492 Par ch=2 c=64 v=0
2496 Par ch=2 c=64 v=0
2620 Par ch=2 c=64 v=127
2642 Par ch=2 c=64 v=0
2644 Par ch=2 c=64 v=127
2666 Par ch=2 c=64 v=0
2668 Par ch=2 c=64 v=127
2688 Par ch=2 c=64 v=127
2690 Par ch=2 c=64 v=0
2812 Par ch=2 c=64 v=127
2834 Par ch=2 c=64 v=0
2836 Par ch=2 c=64 v=127
2858 Par ch=2 c=64 v=0
2860 Par ch=2 c=64 v=127
2880 Par ch=2 c=64 v=127
2882 Par ch=2 c=64 v=0
2884 Par ch=2 c=64 v=127
2930 Par ch=2 c=64 v=0
2932 Par ch=2 c=64 v=127
2978 Par ch=2 c=64 v=0
2980 Par ch=2 c=64 v=127
3026 Par ch=2 c=64 v=0
3028 Par ch=2 c=64 v=127
3072 Par ch=2 c=64 v=127
3074 Par ch=2 c=64 v=0
3124 Par ch=2 c=64 v=127
3172 Par ch=2 c=64 v=0
3220 Par ch=2 c=64 v=127
3264 Par ch=2 c=64 v=127
3268 Par ch=2 c=64 v=0
3316 Par ch=2 c=64 v=127
3364 Par ch=2 c=64 v=0
3456 Par ch=2 c=64 v=127
3458 Par ch=2 c=64 v=0
3460 Par ch=2 c=64 v=127
3554 Par ch=2 c=64 v=0
3556 Par ch=2 c=64 v=127
3602 Par ch=2 c=64 v=0
3604 Par ch=2 c=64 v=127
3648 Par ch=2 c=64 v=127
3650 Par ch=2 c=64 v=0
3700 Par ch=2 c=64 v=127
3748 Par ch=2 c=64 v=0
3816 Par ch=2 c=64 v=127
3840 Par ch=2 c=64 v=127
3938 Par ch=2 c=64 v=0
3940 Par ch=2 c=64 v=127
4032 Par ch=2 c=64 v=127
4034 Par ch=2 c=64 v=0
4036 Par ch=2 c=64 v=127
4130 Par ch=2 c=64 v=0
4132 Par ch=2 c=64 v=127
4224 Par ch=2 c=64 v=127
4226 Par ch=2 c=64 v=0
4228 Par ch=2 c=64 v=127
4322 Par ch=2 c=64 v=0
4324 Par ch=2 c=64 v=127
4416 Par ch=2 c=64 v=0
4420 Par ch=2 c=64 v=127
4514 Par ch=2 c=64 v=0
4608 Par ch=2 c=64 v=0
4616 Par ch=2 c=64 v=127
4706 Par ch=2 c=64 v=0
4708 Par ch=2 c=64 v=127
4800 Par ch=2 c=64 v=127
4802 Par ch=2 c=64 v=0
4804 Par ch=2 c=64 v=127
4898 Par ch=2 c=64 v=0
4900 Par ch=2 c=64 v=127
4992 Par ch=2 c=64 v=127
4994 Par ch=2 c=64 v=0
4996 Par ch=2 c=64 v=127
5042 Par ch=2 c=64 v=0
5044 Par ch=2 c=64 v=127
5138 Par ch=2 c=64 v=0
5140 Par ch=2 c=64 v=127
5184 Par ch=2 c=64 v=127
5186 Par ch=2 c=64 v=0
5376 Par ch=2 c=64 v=0
5380 Par ch=2 c=64 v=127
5474 Par ch=2 c=64 v=0
5476 Par ch=2 c=64 v=127
5568 Par ch=2 c=64 v=127
5570 Par ch=2 c=64 v=0
5572 Par ch=2 c=64 v=127
5666 Par ch=2 c=64 v=0
5668 Par ch=2 c=64 v=127
5760 Par ch=2 c=64 v=127
5762 Par ch=2 c=64 v=0
5952 Par ch=2 c=64 v=0
5956 Par ch=2 c=64 v=127
6052 Par ch=2 c=64 v=0
6144 Par ch=2 c=64 v=0
6148 Par ch=2 c=64 v=127
6244 Par ch=2 c=64 v=0
6246 Par ch=2 c=64 v=127
6316 Par ch=2 c=64 v=0
6336 Par ch=2 c=64 v=0
6436 Par ch=2 c=64 v=127
6528 Par ch=2 c=64 v=127
6530 Par ch=2 c=64 v=0
6628 Par ch=2 c=64 v=127
6674 Par ch=2 c=64 v=0
6676 Par ch=2 c=64 v=127
6720 Par ch=2 c=64 v=127
6722 Par ch=2 c=64 v=0
6820 Par ch=2 c=64 v=127
6912 Par ch=2 c=64 v=127
6914 Par ch=2 c=64 v=0
7012 Par ch=2 c=64 v=127
7058 Par ch=2 c=64 v=0
7060 Par ch=2 c=64 v=127
7104 Par ch=2 c=64 v=127
7106 Par ch=2 c=64 v=0
7108 Par ch=2 c=64 v=127
7132 Par ch=2 c=64 v=0
7156 Par ch=2 c=64 v=127
7180 Par ch=2 c=64 v=0
7204 Par ch=2 c=64 v=127
7228 Par ch=2 c=64 v=0
7252 Par ch=2 c=64 v=127
7276 Par ch=2 c=64 v=0
7296 Par ch=2 c=64 v=0
7300 Par ch=2 c=64 v=127
7324 Par ch=2 c=64 v=0
7348 Par ch=2 c=64 v=127
7372 Par ch=2 c=64 v=0
7396 Par ch=2 c=64 v=127
7420 Par ch=2 c=64 v=0
7444 Par ch=2 c=64 v=127
7468 Par ch=2 c=64 v=0
7488 Par ch=2 c=64 v=0
7492 Par ch=2 c=64 v=127
7516 Par ch=2 c=64 v=0
7540 Par ch=2 c=64 v=127
7564 Par ch=2 c=64 v=0
7680 Par ch=2 c=64 v=127
7778 Par ch=2 c=64 v=0
7780 Par ch=2 c=64 v=127
7872 Par ch=2 c=64 v=127
7874 Par ch=2 c=64 v=0
7876 Par ch=2 c=64 v=127
7922 Par ch=2 c=64 v=0
7924 Par ch=2 c=64 v=127
7970 Par ch=2 c=64 v=0
7972 Par ch=2 c=64 v=127
8064 Par ch=2 c=64 v=127
8066 Par ch=2 c=64 v=0
8068 Par ch=2 c=64 v=127
8114 Par ch=2 c=64 v=0
8116 Par ch=2 c=64 v=127
8162 Par ch=2 c=64 v=0
8164 Par ch=2 c=64 v=127
8210 Par ch=2 c=64 v=0
8212 Par ch=2 c=64 v=127
8256 Par ch=2 c=64 v=127
8258 Par ch=2 c=64 v=0
8260 Par ch=2 c=64 v=127
8356 Par ch=2 c=64 v=0
8448 Par ch=2 c=64 v=0
8452 Par ch=2 c=64 v=127
8548 Par ch=2 c=64 v=0
8572 Par ch=2 c=64 v=127
8594 Par ch=2 c=64 v=0
8596 Par ch=2 c=64 v=127
8618 Par ch=2 c=64 v=0
8620 Par ch=2 c=64 v=127
8640 Par ch=2 c=64 v=127
8642 Par ch=2 c=64 v=0
8644 Par ch=2 c=64 v=127
8740 Par ch=2 c=64 v=0
8764 Par ch=2 c=64 v=127
8786 Par ch=2 c=64 v=0
8788 Par ch=2 c=64 v=127
8810 Par ch=2 c=64 v=0
8812 Par ch=2 c=64 v=127
8832 Par ch=2 c=64 v=127
8834 Par ch=2 c=64 v=0
8836 Par ch=2 c=64 v=127
8930 Par ch=2 c=64 v=0
8932 Par ch=2 c=64 v=127
8978 Par ch=2 c=64 v=0
8980 Par ch=2 c=64 v=127
9024 Par ch=2 c=64 v=127
9026 Par ch=2 c=64 v=0
9028 Par ch=2 c=64 v=127
9124 Par ch=2 c=64 v=0
9216 Par ch=2 c=64 v=0
9220 Par ch=2 c=64 v=127
9266 Par ch=2 c=64 v=0
9268 Par ch=2 c=64 v=127
9314 Par ch=2 c=64 v=0
9316 Par ch=2 c=64 v=127
9362 Par ch=2 c=64 v=0
9364 Par ch=2 c=64 v=127
9408 Par ch=2 c=64 v=127
9410 Par ch=2 c=64 v=0
9412 Par ch=2 c=64 v=127
9458 Par ch=2 c=64 v=0
9460 Par ch=2 c=64 v=127
9506 Par ch=2 c=64 v=0
9508 Par ch=2 c=64 v=127
9554 Par ch=2 c=64 v=0
9556 Par ch=2 c=64 v=127
9600 Par ch=2 c=64 v=127
9602 Par ch=2 c=64 v=0
9604 Par ch=2 c=64 v=127
9650 Par ch=2 c=64 v=0
9652 Par ch=2 c=64 v=127
9698 Par ch=2 c=64 v=0
9700 Par ch=2 c=64 v=127
9746 Par ch=2 c=64 v=0
9748 Par ch=2 c=64 v=127
9792 Par ch=2 c=64 v=127
9794 Par ch=2 c=64 v=0
9796 Par ch=2 c=64 v=127
9890 Par ch=2 c=64 v=0
9892 Par ch=2 c=64 v=127
9980 Par ch=2 c=64 v=0
9984 Par ch=2 c=64 v=0
10108 Par ch=2 c=64 v=127
10130 Par ch=2 c=64 v=0
10132 Par ch=2 c=64 v=127
10154 Par ch=2 c=64 v=0
10156 Par ch=2 c=64 v=127
10176 Par ch=2 c=64 v=127
10178 Par ch=2 c=64 v=0
10300 Par ch=2 c=64 v=127
10322 Par ch=2 c=64 v=0
10324 Par ch=2 c=64 v=127
10346 Par ch=2 c=64 v=0
10348 Par ch=2 c=64 v=127
10368 Par ch=2 c=64 v=127
10370 Par ch=2 c=64 v=0
10372 Par ch=2 c=64 v=127
10418 Par ch=2 c=64 v=0
10420 Par ch=2 c=64 v=127
10466 Par ch=2 c=64 v=0
10468 Par ch=2 c=64 v=127
10514 Par ch=2 c=64 v=0
10516 Par ch=2 c=64 v=127
10560 Par ch=2 c=64 v=127
10562 Par ch=2 c=64 v=0
10612 Par ch=2 c=64 v=127
10660 Par ch=2 c=64 v=0
10708 Par ch=2 c=64 v=127
10752 Par ch=2 c=64 v=127
10756 Par ch=2 c=64 v=0
10804 Par ch=2 c=64 v=127
10852 Par ch=2 c=64 v=0
10944 Par ch=2 c=64 v=127
10946 Par ch=2 c=64 v=0
10948 Par ch=2 c=64 v=127
11042 Par ch=2 c=64 v=0
11044 Par ch=2 c=64 v=127
11090 Par ch=2 c=64 v=0
11092 Par ch=2 c=64 v=127
11136 Par ch=2 c=64 v=0
11140 Par ch=2 c=64 v=127
11234 Par ch=2 c=64 v=0
11236 Par ch=2 c=64 v=127
11328 Par ch=2 c=64 v=127
11330 Par ch=2 c=64 v=0
11332 Par ch=2 c=64 v=127
11378 Par ch=2 c=64 v=0
11380 Par ch=2 c=64 v=127
11426 Par ch=2 c=64 v=0
11428 Par ch=2 c=64 v=127
11474 Par ch=2 c=64 v=0
11476 Par ch=2 c=64 v=127
11520 Par ch=2 c=64 v=127
11522 Par ch=2 c=64 v=0
11524 Par ch=2 c=64 v=127
11618 Par ch=2 c=64 v=0
11620 Par ch=2 c=64 v=127
11710 Par ch=2 c=64 v=0
11712 Par ch=2 c=64 v=127
11728 Par ch=2 c=64 v=0
11760 Par ch=2 c=64 v=127
11776 Par ch=2 c=64 v=0
11808 Par ch=2 c=64 v=127
11824 Par ch=2 c=64 v=0
11856 Par ch=2 c=64 v=127
11872 Par ch=2 c=64 v=0
11904 Par ch=2 c=64 v=127
11920 Par ch=2 c=64 v=0
11952 Par ch=2 c=64 v=127
11968 Par ch=2 c=64 v=0
12000 Par ch=2 c=64 v=127
12016 Par ch=2 c=64 v=0
12048 Par ch=2 c=64 v=127
12064 Par ch=2 c=64 v=0
12096 Par ch=2 c=64 v=127
12112 Par ch=2 c=64 v=0
12144 Par ch=2 c=64 v=127
12160 Par ch=2 c=64 v=0
12192 Par ch=2 c=64 v=127
12208 Par ch=2 c=64 v=0
12240 Par ch=2 c=64 v=127
12256 Par ch=2 c=64 v=0
12288 Par ch=2 c=64 v=127
12290 Par ch=2 c=64 v=0
12292 Par ch=2 c=64 v=127
12386 Par ch=2 c=64 v=0
12388 Par ch=2 c=64 v=127
12480 Par ch=2 c=64 v=127
12482 Par ch=2 c=64 v=0
12484 Par ch=2 c=64 v=127
12530 Par ch=2 c=64 v=0
12532 Par ch=2 c=64 v=127
12578 Par ch=2 c=64 v=0
12580 Par ch=2 c=64 v=127
12626 Par ch=2 c=64 v=0
12628 Par ch=2 c=64 v=127
12672 Par ch=2 c=64 v=127
12674 Par ch=2 c=64 v=0
12676 Par ch=2 c=64 v=127
12722 Par ch=2 c=64 v=0
12724 Par ch=2 c=64 v=127
12770 Par ch=2 c=64 v=0
12772 Par ch=2 c=64 v=127
12818 Par ch=2 c=64 v=0
12820 Par ch=2 c=64 v=127
12844 Par ch=2 c=64 v=0
12864 Par ch=2 c=64 v=127
12866 Par ch=2 c=64 v=0
12868 Par ch=2 c=64 v=127
12914 Par ch=2 c=64 v=0
12916 Par ch=2 c=64 v=127
12962 Par ch=2 c=64 v=0
12964 Par ch=2 c=64 v=127
13010 Par ch=2 c=64 v=0
13012 Par ch=2 c=64 v=127
13056 Par ch=2 c=64 v=127
13058 Par ch=2 c=64 v=0
13060 Par ch=2 c=64 v=127
13082 Par ch=2 c=64 v=0
13084 Par ch=2 c=64 v=127
13106 Par ch=2 c=64 v=0
13108 Par ch=2 c=64 v=127
13130 Par ch=2 c=64 v=0
13132 Par ch=2 c=64 v=127
13154 Par ch=2 c=64 v=0
13156 Par ch=2 c=64 v=127
13202 Par ch=2 c=64 v=0
13204 Par ch=2 c=64 v=127
13248 Par ch=2 c=64 v=127
13250 Par ch=2 c=64 v=0
13440 Par ch=2 c=64 v=0
13632 Par ch=2 c=64 v=0
13824 Par ch=2 c=64 v=0
14016 Par ch=2 c=64 v=0
14208 Par ch=2 c=64 v=0
14212 Par ch=2 c=64 v=127
14236 Par ch=2 c=64 v=0
14308 Par ch=2 c=64 v=127
14332 Par ch=2 c=64 v=0
14356 Par ch=2 c=64 v=127
14380 Par ch=2 c=64 v=0
14400 Par ch=2 c=64 v=0
14404 Par ch=2 c=64 v=127
14428 Par ch=2 c=64 v=0
14500 Par ch=2 c=64 v=127
14524 Par ch=2 c=64 v=0
14548 Par ch=2 c=64 v=127
14572 Par ch=2 c=64 v=0
14592 Par ch=2 c=64 v=0
14596 Par ch=2 c=64 v=127
14620 Par ch=2 c=64 v=0
14644 Par ch=2 c=64 v=127
14668 Par ch=2 c=64 v=0
14692 Par ch=2 c=64 v=127
14716 Par ch=2 c=64 v=0
14740 Par ch=2 c=64 v=127
14764 Par ch=2 c=64 v=0
14784 Par ch=2 c=64 v=0
14788 Par ch=2 c=64 v=127
14812 Par ch=2 c=64 v=0
14836 Par ch=2 c=64 v=127
14860 Par ch=2 c=64 v=0
14884 Par ch=2 c=64 v=127
14908 Par ch=2 c=64 v=0
14932 Par ch=2 c=64 v=127
14956 Par ch=2 c=64 v=0
14976 Par ch=2 c=64 v=0
14980 Par ch=2 c=64 v=127
15004 Par ch=2 c=64 v=0
15028 Par ch=2 c=64 v=127
15052 Par ch=2 c=64 v=0
15076 Par ch=2 c=64 v=127
15100 Par ch=2 c=64 v=0
15168 Par ch=2 c=64 v=127
15266 Par ch=2 c=64 v=0
15268 Par ch=2 c=64 v=127
15360 Par ch=2 c=64 v=127
15362 Par ch=2 c=64 v=0
15364 Par ch=2 c=64 v=127
15410 Par ch=2 c=64 v=0
15412 Par ch=2 c=64 v=127
15458 Par ch=2 c=64 v=0
15460 Par ch=2 c=64 v=127
15552 Par ch=2 c=64 v=127
15554 Par ch=2 c=64 v=0
15556 Par ch=2 c=64 v=127
15602 Par ch=2 c=64 v=0
15604 Par ch=2 c=64 v=127
15650 Par ch=2 c=64 v=0
15652 Par ch=2 c=64 v=127
15698 Par ch=2 c=64 v=0
15700 Par ch=2 c=64 v=127
15744 Par ch=2 c=64 v=127
15746 Par ch=2 c=64 v=0
15748 Par ch=2 c=64 v=127
15842 Par ch=2 c=64 v=0
15844 Par ch=2 c=64 v=127
15930 Par ch=2 c=64 v=0
15936 Par ch=2 c=64 v=0
15940 Par ch=2 c=64 v=127
16036 Par ch=2 c=64 v=0
16060 Par ch=2 c=64 v=127
16082 Par ch=2 c=64 v=0
16084 Par ch=2 c=64 v=127
16106 Par ch=2 c=64 v=0
16108 Par ch=2 c=64 v=127
16128 Par ch=2 c=64 v=127
16130 Par ch=2 c=64 v=0
16132 Par ch=2 c=64 v=127
16228 Par ch=2 c=64 v=0
16252 Par ch=2 c=64 v=127
16274 Par ch=2 c=64 v=0
16276 Par ch=2 c=64 v=127
16298 Par ch=2 c=64 v=0
16300 Par ch=2 c=64 v=127
16320 Par ch=2 c=64 v=127
16322 Par ch=2 c=64 v=0
16324 Par ch=2 c=64 v=127
16418 Par ch=2 c=64 v=0
16420 Par ch=2 c=64 v=127
16466 Par ch=2 c=64 v=0
16468 Par ch=2 c=64 v=127
16512 Par ch=2 c=64 v=127
16514 Par ch=2 c=64 v=0
16562 Par ch=2 c=64 v=127
16610 Par ch=2 c=64 v=0
16658 Par ch=2 c=64 v=127
16704 Par ch=2 c=64 v=127
16706 Par ch=2 c=64 v=0
16754 Par ch=2 c=64 v=127
16802 Par ch=2 c=64 v=0
16896 Par ch=2 c=64 v=0
16900 Par ch=2 c=64 v=127
16946 Par ch=2 c=64 v=0
16948 Par ch=2 c=64 v=127
16994 Par ch=2 c=64 v=0
16996 Par ch=2 c=64 v=127
17042 Par ch=2 c=64 v=0
17044 Par ch=2 c=64 v=127
17088 Par ch=2 c=64 v=0
17280 Par ch=2 c=64 v=0
17472 Par ch=2 c=64 v=0
17476 Par ch=2 c=64 v=127
17522 Par ch=2 c=64 v=0
17524 Par ch=2 c=64 v=127
17570 Par ch=2 c=64 v=0
17572 Par ch=2 c=64 v=127
17618 Par ch=2 c=64 v=0
17620 Par ch=2 c=64 v=127
17664 Par ch=2 c=64 v=127
17666 Par ch=2 c=64 v=0
17668 Par ch=2 c=64 v=127
17690 Par ch=2 c=64 v=0
17764 Par ch=2 c=64 v=127
17786 Par ch=2 c=64 v=0
17856 Par ch=2 c=64 v=0
17860 Par ch=2 c=64 v=127
17954 Par ch=2 c=64 v=0
17956 Par ch=2 c=64 v=127
18048 Par ch=2 c=64 v=127
18050 Par ch=2 c=64 v=0
18052 Par ch=2 c=64 v=127
18098 Par ch=2 c=64 v=0
18240 Par ch=2 c=64 v=0
18244 Par ch=2 c=64 v=127
18340 Par ch=2 c=64 v=0
18342 Par ch=2 c=64 v=127
18424 Par ch=2 c=64 v=0
18432 Par ch=2 c=64 v=0
18436 Par ch=2 c=64 v=127
18482 Par ch=2 c=64 v=0
18484 Par ch=2 c=64 v=127
18530 Par ch=2 c=64 v=0
18532 Par ch=2 c=64 v=127
18578 Par ch=2 c=64 v=0
18580 Par ch=2 c=64 v=127
18624 Par ch=2 c=64 v=127
18626 Par ch=2 c=64 v=0
18628 Par ch=2 c=64 v=127
18722 Par ch=2 c=64 v=0
18724 Par ch=2 c=64 v=127
18816 Par ch=2 c=64 v=127
18818 Par ch=2 c=64 v=0
18820 Par ch=2 c=64 v=127
18866 Par ch=2 c=64 v=0
18868 Par ch=2 c=64 v=127
18914 Par ch=2 c=64 v=0
18916 Par ch=2 c=64 v=127
19008 Par ch=2 c=64 v=127
19010 Par ch=2 c=64 v=0
19012 Par ch=2 c=64 v=127
19106 Par ch=2 c=64 v=0
19108 Par ch=2 c=64 v=127
19200 Par ch=2 c=64 v=127
19202 Par ch=2 c=64 v=0
19392 Par ch=2 c=64 v=0
19492 Par ch=2 c=64 v=127
19584 Par ch=2 c=64 v=127
19776 Par ch=2 c=64 v=127
19778 Par ch=2 c=64 v=0