2240 On ch=1 n=51 v=0
2272 On ch=1 n=43 v=0
2272 On ch=1 n=48 v=0
2280 On ch=1 n=36 v=0
2282 On ch=1 n=55 v=0
2308 On ch=1 n=39 v=0
2364 On ch=1 n=60 v=0
3056 On ch=1 n=60 v=62
3058 On ch=1 n=51 v=46
3064 On ch=1 n=55 v=47
3128 On ch=1 n=55 v=0
3272 On ch=1 n=51 v=0
3282 On ch=1 n=62 v=69
3292 On ch=1 n=55 v=57
3292 On ch=1 n=50 v=51
3295 On ch=1 n=60 v=0
3295 On ch=1 n=59 v=51
3318 Par ch=1 c=64 v=0
3686 Par ch=1 c=64 v=127
3740 On ch=1 n=55 v=0
3774 On ch=1 n=50 v=0
3808 On ch=1 n=59 v=0
3828 On ch=1 n=62 v=0
4136 On ch=1 n=63 v=67
4146 On ch=1 n=55 v=47
4149 On ch=1 n=48 v=49
4158 On ch=1 n=60 v=41
4216 On ch=1 n=48 v=0
4220 On ch=1 n=55 v=0
4232 On ch=1 n=60 v=0
4258 On ch=1 n=63 v=0
4392 On ch=1 n=63 v=62
4404 On ch=1 n=57 v=50
4406 On ch=1 n=60 v=37
4408 On ch=1 n=54 v=52
4470 Par ch=1 c=64 v=0
5454 Par ch=1 c=64 v=127
6560 On ch=1 n=57 v=0
6584 On ch=1 n=62 v=21
6594 On ch=1 n=59 v=19
6596 On ch=1 n=55 v=20
6630 On ch=1 n=60 v=0
6684 On ch=1 n=63 v=0
6684 Par ch=1 c=64 v=0
6746 On ch=1 n=54 v=0
7160 Par ch=1 c=64 v=127
7738 On ch=1 n=59 v=0
7742 On ch=1 n=55 v=0
7778 On ch=1 n=62 v=0
7788 Par ch=1 c=64 v=0
8852 On ch=1 n=44 v=62
8880 Par ch=1 c=64 v=127
8910 On ch=1 n=44 v=0
9052 On ch=1 n=56 v=64
9056 On ch=1 n=65 v=93
9064 On ch=1 n=59 v=80
9067 On ch=1 n=62 v=79
9110 Par ch=1 c=64 v=0
9740 Par ch=1 c=64 v=127
11168 On ch=1 n=62 v=0
11234 On ch=1 n=59 v=0
11298 On ch=1 n=65 v=0
11362 On ch=1 n=56 v=0
11694 On ch=1 n=65 v=70
11697 On ch=1 n=56 v=54
11701 On ch=1 n=62 v=57
11706 On ch=1 n=59 v=49
11772 On ch=1 n=59 v=0
11802 On ch=1 n=62 v=0
11918 On ch=1 n=62 v=42
11924 On ch=1 n=67 v=75
11930 On ch=1 n=59 v=58
11938 Par ch=1 c=64 v=0
11950 On ch=1 n=55 v=57
11966 On ch=1 n=56 v=0
12006 On ch=1 n=65 v=0
12352 Par ch=1 c=64 v=127
12462 On ch=1 n=55 v=0
12524 On ch=1 n=62 v=0
12540 On ch=1 n=59 v=0
12632 On ch=1 n=67 v=0
12918 On ch=1 n=68 v=58
12944 On ch=1 n=59 v=35
12956 On ch=1 n=62 v=40
12956 On ch=1 n=53 v=57
13018 On ch=1 n=59 v=0
13021 On ch=1 n=53 v=0
13021 On ch=1 n=62 v=0
13058 On ch=1 n=68 v=0
13206 On ch=1 n=68 v=45
13220 On ch=1 n=51 v=32
13228 On ch=1 n=59 v=26
13231 On ch=1 n=62 v=22
13260 Par ch=1 c=64 v=0
13950 Par ch=1 c=64 v=127
14524 On ch=1 n=59 v=0
14558 On ch=1 n=62 v=0
15176 On ch=1 n=67 v=22
15186 On ch=1 n=63 v=21
15200 On ch=1 n=60 v=15
15364 On ch=1 n=68 v=0
15396 Par ch=1 c=64 v=0
15840 Par ch=1 c=64 v=127
16554 On ch=1 n=51 v=0
16562 On ch=1 n=60 v=0
16582 On ch=1 n=63 v=0
16640 On ch=1 n=67 v=0
16838 Par ch=1 c=64 v=0
17484 Par ch=1 c=64 v=127
17804 On ch=1 n=51 v=46
17886 On ch=1 n=51 v=0
17974 On ch=1 n=72 v=89
17977 On ch=1 n=66 v=68
17982 On ch=1 n=63 v=65
17984 On ch=1 n=69 v=65
18098 Par ch=1 c=64 v=0
18852 Par ch=1 c=64 v=127
19764 On ch=1 n=69 v=0
19800 On ch=1 n=72 v=0
19830 On ch=1 n=66 v=0
19846 On ch=1 n=63 v=0
20314 On ch=1 n=66 v=41
20318 On ch=1 n=72 v=68
20326 On ch=1 n=69 v=41
20326 On ch=1 n=63 v=62
20388 On ch=1 n=66 v=0
20400 On ch=1 n=69 v=0
20434 On ch=1 n=63 v=0
20540 On ch=1 n=66 v=48
20546 On ch=1 n=74 v=81
20548 On ch=1 n=69 v=50
20562 On ch=1 n=62 v=60
20570 On ch=1 n=72 v=0
20604 Par ch=1 c=64 v=0
20926 Par ch=1 c=64 v=127
20996 On ch=1 n=66 v=0
20998 On ch=1 n=69 v=0
21000 On ch=1 n=74 v=0
21016 On ch=1 n=62 v=0
21282 On ch=1 n=75 v=76
21290 On ch=1 n=66 v=49
21294 On ch=1 n=69 v=49
21296 On ch=1 n=60 v=58
21366 On ch=1 n=66 v=0
21369 On ch=1 n=69 v=0
21388 On ch=1 n=60 v=0
21400 On ch=1 n=75 v=0
21500 On ch=1 n=75 v=59
21522 On ch=1 n=69 v=42
21522 On ch=1 n=66 v=37
21534 On ch=1 n=60 v=43
21542 Par ch=1 c=64 v=0
22356 Par ch=1 c=64 v=127
22692 On ch=1 n=66 v=0
22900 On ch=1 n=75 v=0
23158 On ch=1 n=60 v=0
23214 On ch=1 n=74 v=43
23222 On ch=1 n=62 v=25
23234 On ch=1 n=59 v=19
23238 On ch=1 n=67 v=21
23300 On ch=1 n=69 v=0
23308 Par ch=1 c=64 v=0
23528 On ch=1 n=62 v=0
23538 Par ch=1 c=64 v=127
23574 On ch=1 n=59 v=0
23588 On ch=1 n=67 v=0
23598 On ch=1 n=74 v=0
23738 Par ch=1 c=64 v=0
23852 On ch=1 n=66 v=45
23862 On ch=1 n=63 v=67
23862 On ch=1 n=72 v=68
23872 On ch=1 n=69 v=39
23944 On ch=1 n=69 v=0
23954 Par ch=1 c=64 v=127
23974 On ch=1 n=66 v=0
24086 On ch=1 n=66 v=49
24089 On ch=1 n=69 v=53
24089 On ch=1 n=74 v=84
24104 On ch=1 n=62 v=65
24112 On ch=1 n=63 v=0
24144 On ch=1 n=72 v=0
24168 Par ch=1 c=64 v=0
24430 Par ch=1 c=64 v=127
24456 On ch=1 n=66 v=0
24464 On ch=1 n=62 v=0
24472 On ch=1 n=69 v=0
24478 On ch=1 n=74 v=0
24686 On ch=1 n=75 v=84
24692 On ch=1 n=60 v=62
24694 On ch=1 n=66 v=61
24698 On ch=1 n=69 v=50
24770 On ch=1 n=69 v=0
24778 On ch=1 n=60 v=0
24782 On ch=1 n=66 v=0
24822 On ch=1 n=75 v=0
24924 On ch=1 n=75 v=68
24934 On ch=1 n=66 v=48
24950 On ch=1 n=60 v=50
24950 On ch=1 n=69 v=42
24968 Par ch=1 c=64 v=0
25658 Par ch=1 c=64 v=127
26132 On ch=1 n=69 v=0
26204 On ch=1 n=66 v=0
26492 On ch=1 n=60 v=0
26492 On ch=1 n=74 v=80
26504 On ch=1 n=62 v=36
26506 On ch=1 n=67 v=33
26510 On ch=1 n=59 v=30
26600 On ch=1 n=75 v=0
26688 Par ch=1 c=64 v=0
26964 Par ch=1 c=64 v=127
27130 On ch=1 n=67 v=0
27136 On ch=1 n=62 v=0
27332 On ch=1 n=76 v=89
27346 On ch=1 n=64 v=64
27346 On ch=1 n=58 v=41
27349 On ch=1 n=67 v=47
27349 On ch=1 n=60 v=52
27356 On ch=1 n=72 v=41
27366 On ch=1 n=59 v=0
27408 On ch=1 n=74 v=0
27596 Par ch=1 c=64 v=0
27794 Par ch=1 c=64 v=127
27876 On ch=1 n=72 v=0
27902 On ch=1 n=67 v=0
27908 On ch=1 n=60 v=0
27932 On ch=1 n=64 v=0
28128 On ch=1 n=77 v=89
28140 On ch=1 n=68 v=58
28144 On ch=1 n=65 v=55
28152 On ch=1 n=60 v=56
28158 On ch=1 n=72 v=48
28160 On ch=1 n=56 v=41
28196 On ch=1 n=58 v=0
28202 On ch=1 n=76 v=0
28224 Par ch=1 c=64 v=0
28516 Par ch=1 c=64 v=127
28536 On ch=1 n=68 v=0
28560 On ch=1 n=77 v=0
28604 On ch=1 n=72 v=0
29124 On ch=1 n=65 v=0
29134 On ch=1 n=80 v=94
29152 On ch=1 n=56 v=0
29158 On ch=1 n=60 v=0
29300 Par ch=1 c=64 v=0
30288 On ch=1 n=46 v=78
30292 On ch=1 n=34 v=83
30676 On ch=1 n=79 v=83
30756 On ch=1 n=80 v=0
30892 On ch=1 n=80 v=81
30962 On ch=1 n=79 v=0
31080 On ch=1 n=82 v=60
31100 On ch=1 n=80 v=0
31206 On ch=1 n=80 v=44
31252 Par ch=1 c=64 v=127
31270 On ch=1 n=82 v=0
31336 On ch=1 n=79 v=65
31372 On ch=1 n=80 v=0
31398 On ch=1 n=79 v=0
31436 On ch=1 n=77 v=61
31506 On ch=1 n=77 v=0
31528 On ch=1 n=75 v=62
31628 On ch=1 n=74 v=66
31652 On ch=1 n=75 v=0
31668 On ch=1 n=74 v=0
31700 On ch=1 n=72 v=55
31782 On ch=1 n=70 v=62
31828 On ch=1 n=72 v=0
31866 On ch=1 n=68 v=57
31908 On ch=1 n=70 v=0
31952 On ch=1 n=67 v=66
32010 On ch=1 n=67 v=0
32012 On ch=1 n=68 v=0
32030 On ch=1 n=65 v=50
32120 On ch=1 n=63 v=72
32162 On ch=1 n=65 v=0
32220 Par ch=1 c=64 v=0
32238 On ch=1 n=62 v=66
32270 On ch=1 n=63 v=0
32362 On ch=1 n=65 v=36
32424 On ch=1 n=62 v=0
32498 On ch=1 n=68 v=50
32514 On ch=1 n=65 v=0
32620 Par ch=1 c=64 v=127
32630 On ch=1 n=65 v=24
32654 On ch=1 n=68 v=0
32726 On ch=1 n=34 v=0
32772 On ch=1 n=46 v=0
32792 On ch=1 n=65 v=0
32798 On ch=1 n=62 v=43
32988 Par ch=1 c=64 v=0
33028 On ch=1 n=51 v=44
33030 On ch=1 n=39 v=42
33036 On ch=1 n=63 v=48
33038 On ch=1 n=62 v=0
33350 On ch=1 n=39 v=0
33356 Par ch=1 c=64 v=127
33380 On ch=1 n=51 v=0
33644 On ch=1 n=63 v=0
33662 On ch=1 n=58 v=21
33682 On ch=1 n=55 v=29
33700 On ch=1 n=51 v=26
33976 On ch=1 n=55 v=0
33990 On ch=1 n=58 v=0
33998 On ch=1 n=51 v=0
34234 On ch=1 n=75 v=62
34242 On ch=1 n=63 v=54
34256 On ch=1 n=58 v=21
34296 On ch=1 n=55 v=25
34310 On ch=1 n=51 v=14
34576 On ch=1 n=55 v=0
34576 On ch=1 n=58 v=0
34604 On ch=1 n=51 v=0
34814 On ch=1 n=58 v=23
34826 On ch=1 n=55 v=37
34829 On ch=1 n=51 v=16
35086 On ch=1 n=55 v=0
35089 On ch=1 n=51 v=0
35104 On ch=1 n=58 v=0
35366 On ch=1 n=58 v=24
35390 On ch=1 n=55 v=28
35414 On ch=1 n=51 v=17
35636 On ch=1 n=55 v=0
35643 On ch=1 n=58 v=0
35672 On ch=1 n=51 v=0
35844 On ch=1 n=63 v=0
35858 On ch=1 n=75 v=0
35906 On ch=1 n=58 v=24
35938 On ch=1 n=51 v=16
35942 On ch=1 n=55 v=23
36130 On ch=1 n=55 v=0
36170 On ch=1 n=58 v=0
36170 On ch=1 n=75 v=60
36173 On ch=1 n=63 v=56
36186 On ch=1 n=51 v=0
36244 On ch=1 n=63 v=0
36300 On ch=1 n=75 v=0
36440 On ch=1 n=77 v=83
36450 On ch=1 n=58 v=22
36453 On ch=1 n=65 v=52
36464 On ch=1 n=51 v=21
36480 On ch=1 n=55 v=31
36538 Par ch=1 c=64 v=0
36738 On ch=1 n=55 v=0
36746 On ch=1 n=58 v=0
36752 Par ch=1 c=64 v=127
36764 On ch=1 n=51 v=0
36820 On ch=1 n=65 v=0
36846 On ch=1 n=77 v=0
36946 On ch=1 n=58 v=28
36960 On ch=1 n=55 v=23
36966 On ch=1 n=51 v=26
37126 On ch=1 n=55 v=0
37154 On ch=1 n=51 v=0
37160 On ch=1 n=58 v=0
37216 On ch=1 n=79 v=75
37224 On ch=1 n=67 v=55
37314 On ch=1 n=67 v=0
37344 On ch=1 n=79 v=0
37474 Par ch=1 c=64 v=0
37490 On ch=1 n=56 v=31
37494 On ch=1 n=79 v=79
37496 On ch=1 n=60 v=36
37500 On ch=1 n=67 v=50
37506 On ch=1 n=51 v=31
37766 Par ch=1 c=64 v=127
37820 On ch=1 n=60 v=0
37830 On ch=1 n=56 v=0
37838 On ch=1 n=51 v=0
38038 On ch=1 n=51 v=24
38056 On ch=1 n=56 v=29
38059 On ch=1 n=60 v=32
38332 On ch=1 n=60 v=0
38346 On ch=1 n=56 v=0
38368 On ch=1 n=51 v=0
38384 On ch=1 n=79 v=0
38414 On ch=1 n=67 v=0
38594 On ch=1 n=77 v=44
38616 On ch=1 n=65 v=26
38618 On ch=1 n=56 v=25
38618 On ch=1 n=60 v=31
38626 On ch=1 n=51 v=25
38674 Par ch=1 c=64 v=0
38888 Par ch=1 c=64 v=127
38928 On ch=1 n=60 v=0
38940 On ch=1 n=56 v=0
38940 On ch=1 n=51 v=0
38976 On ch=1 n=77 v=0
39026 On ch=1 n=65 v=0
39144 On ch=1 n=56 v=27
39148 On ch=1 n=51 v=29
39156 On ch=1 n=60 v=47
39286 On ch=1 n=60 v=0
39338 On ch=1 n=56 v=0
39372 On ch=1 n=51 v=0
39418 On ch=1 n=65 v=83
39570 On ch=1 n=65 v=0
39702 On ch=1 n=56 v=72
39706 On ch=1 n=65 v=88
39708 On ch=1 n=53 v=95
39708 On ch=1 n=59 v=80
39712 On ch=1 n=38 v=91
39712 On ch=1 n=50 v=87
39918 Par ch=1 c=64 v=0
40140 On ch=1 n=50 v=0
40142 On ch=1 n=38 v=0
40164 Par ch=1 c=64 v=127
40218 On ch=1 n=65 v=0
40236 On ch=1 n=56 v=0
40254 On ch=1 n=53 v=0
40258 On ch=1 n=59 v=0
40268 On ch=1 n=38 v=87
40268 On ch=1 n=50 v=92
40510 On ch=1 n=65 v=80
40514 On ch=1 n=56 v=69
40516 On ch=1 n=53 v=96
40518 On ch=1 n=59 v=83
40538 On ch=1 n=50 v=0
40558 On ch=1 n=38 v=0
40688 On ch=1 n=53 v=0
40691 On ch=1 n=65 v=0
40694 On ch=1 n=59 v=0
40704 On ch=1 n=56 v=0
40806 On ch=1 n=56 v=64
40806 On ch=1 n=60 v=84
40812 On ch=1 n=65 v=73
40818 On ch=1 n=48 v=86
40820 On ch=1 n=53 v=96
40820 On ch=1 n=36 v=91
40900 Par ch=1 c=64 v=0
41192 Par ch=1 c=64 v=127
41242 On ch=1 n=36 v=0
41246 On ch=1 n=48 v=0
41326 On ch=1 n=65 v=0
41348 On ch=1 n=56 v=0
41350 On ch=1 n=53 v=0
41388 On ch=1 n=60 v=0
41388 On ch=1 n=48 v=84
41391 On ch=1 n=36 v=92
41552 On ch=1 n=48 v=0
41630 On ch=1 n=36 v=0
41650 On ch=1 n=65 v=68
41652 On ch=1 n=60 v=80
41652 On ch=1 n=56 v=62
41654 On ch=1 n=53 v=87
41804 On ch=1 n=56 v=0
41812 On ch=1 n=53 v=0
41814 On ch=1 n=65 v=0
42024 On ch=1 n=56 v=68
42029 On ch=1 n=62 v=74
42029 On ch=1 n=35 v=98
42029 On ch=1 n=53 v=84
42029 On ch=1 n=65 v=79
42033 On ch=1 n=47 v=73
42038 Par ch=1 c=64 v=0
42116 On ch=1 n=60 v=0
42346 On ch=1 n=47 v=0
42352 On ch=1 n=35 v=0
42376 On ch=1 n=53 v=0
42376 Par ch=1 c=64 v=127
42432 On ch=1 n=56 v=0
42556 On ch=1 n=62 v=0
42706 On ch=1 n=47 v=47
42710 On ch=1 n=56 v=37
42734 On ch=1 n=53 v=59
42740 On ch=1 n=50 v=36
42760 On ch=1 n=65 v=0
42848 On ch=1 n=50 v=0
42886 On ch=1 n=53 v=0
42930 On ch=1 n=56 v=0
43062 On ch=1 n=47 v=0
43256 On ch=1 n=77 v=84
43268 Par ch=1 c=64 v=0
43268 On ch=1 n=65 v=51
43274 On ch=1 n=56 v=39
43296 On ch=1 n=47 v=30
43320 On ch=1 n=50 v=34
43326 On ch=1 n=53 v=43
43552 On ch=1 n=50 v=0
43558 On ch=1 n=53 v=0
43590 Par ch=1 c=64 v=127
43606 On ch=1 n=56 v=0
43638 On ch=1 n=47 v=0
43850 On ch=1 n=47 v=24
43858 On ch=1 n=56 v=31
43894 On ch=1 n=53 v=46
43900 On ch=1 n=50 v=32
43960 On ch=1 n=53 v=0
43982 On ch=1 n=50 v=0
43996 On ch=1 n=56 v=0
44132 On ch=1 n=47 v=0
44404 Par ch=1 c=64 v=0
44410 On ch=1 n=46 v=28
44424 On ch=1 n=56 v=20
44454 On ch=1 n=53 v=46
44468 On ch=1 n=50 v=28
44722 On ch=1 n=50 v=0
44728 Par ch=1 c=64 v=127
44736 On ch=1 n=53 v=0
44754 On ch=1 n=56 v=0
44810 On ch=1 n=46 v=0
45034 On ch=1 n=46 v=32
45034 On ch=1 n=56 v=26
45070 On ch=1 n=65 v=0
45070 On ch=1 n=77 v=0
45086 On ch=1 n=53 v=39
45098 On ch=1 n=50 v=21
45166 On ch=1 n=53 v=0
45184 On ch=1 n=50 v=0
45268 On ch=1 n=56 v=0
45308 On ch=1 n=77 v=78
45318 On ch=1 n=65 v=54
45334 On ch=1 n=46 v=0
45414 On ch=1 n=65 v=0
45468 On ch=1 n=77 v=0
45558 On ch=1 n=46 v=23
45560 On ch=1 n=56 v=22
45568 On ch=1 n=79 v=84
45592 On ch=1 n=67 v=43
45608 On ch=1 n=53 v=45
45608 On ch=1 n=50 v=30
45648 Par ch=1 c=64 v=0
45866 On ch=1 n=50 v=0
45874 On ch=1 n=53 v=0
45880 Par ch=1 c=64 v=127
45886 On ch=1 n=56 v=0
45908 On ch=1 n=46 v=0
46062 On ch=1 n=67 v=0
46078 On ch=1 n=46 v=33
46104 On ch=1 n=56 v=30
46118 On ch=1 n=79 v=0
46162 On ch=1 n=53 v=30
46216 On ch=1 n=50 v=2
46262 On ch=1 n=53 v=0
46302 On ch=1 n=50 v=0
46380 On ch=1 n=56 v=0
46434 On ch=1 n=80 v=61
46440 On ch=1 n=68 v=46
46472 On ch=1 n=46 v=0
46540 On ch=1 n=68 v=0
46576 On ch=1 n=80 v=0
46748 On ch=1 n=80 v=52
46751 On ch=1 n=68 v=43
46756 Par ch=1 c=64 v=0
46762 On ch=1 n=49 v=20
46768 On ch=1 n=55 v=25
46770 On ch=1 n=46 v=26
46784 On ch=1 n=52 v=31
47032 Par ch=1 c=64 v=127
47104 On ch=1 n=52 v=0
47106 On ch=1 n=49 v=0
47112 On ch=1 n=55 v=0
47138 On ch=1 n=46 v=0
47414 On ch=1 n=49 v=20
47426 On ch=1 n=46 v=18
47434 On ch=1 n=55 v=25
47444 On ch=1 n=52 v=38
47636 On ch=1 n=49 v=0
47640 On ch=1 n=52 v=0
47642 On ch=1 n=55 v=0
47668 On ch=1 n=46 v=0
47782 On ch=1 n=68 v=0
47806 On ch=1 n=80 v=0
47984 On ch=1 n=79 v=41
47990 On ch=1 n=67 v=34
47994 On ch=1 n=49 v=21
47998 On ch=1 n=46 v=22
48000 On ch=1 n=55 v=29
48016 Par ch=1 c=64 v=0
48024 On ch=1 n=52 v=37
48230 Par ch=1 c=64 v=127
48248 On ch=1 n=55 v=0
48252 On ch=1 n=49 v=0
48254 On ch=1 n=52 v=0
48288 On ch=1 n=46 v=0
48306 On ch=1 n=79 v=0
48362 On ch=1 n=67 v=0
48506 On ch=1 n=46 v=41
48506 On ch=1 n=55 v=60
48509 On ch=1 n=49 v=51
48536 On ch=1 n=52 v=50
48570 On ch=1 n=55 v=0
48592 On ch=1 n=52 v=0
48656 On ch=1 n=49 v=0
48686 On ch=1 n=46 v=0
48754 On ch=1 n=67 v=89
48756 On ch=1 n=64 v=82
48760 On ch=1 n=61 v=65
48763 On ch=1 n=55 v=82
48904 On ch=1 n=55 v=0
48920 On ch=1 n=61 v=0
48930 On ch=1 n=64 v=0
48946 On ch=1 n=67 v=0
49036 On ch=1 n=45 v=88
49036 On ch=1 n=57 v=86
49036 On ch=1 n=69 v=83
49039 On ch=1 n=64 v=71
49039 On ch=1 n=61 v=66
49043 On ch=1 n=33 v=91
49230 Par ch=1 c=64 v=0
49428 Par ch=1 c=64 v=127
49492 On ch=1 n=33 v=0
49495 On ch=1 n=45 v=0
49596 On ch=1 n=64 v=0
49614 On ch=1 n=69 v=0
49626 On ch=1 n=33 v=91
49626 On ch=1 n=45 v=91
49640 On ch=1 n=57 v=0
49643 On ch=1 n=61 v=0
49846 On ch=1 n=69 v=86
49848 On ch=1 n=57 v=93
49852 On ch=1 n=61 v=75
49854 On ch=1 n=64 v=83
49988 On ch=1 n=69 v=0
50000 On ch=1 n=57 v=0
50004 On ch=1 n=45 v=0
50024 On ch=1 n=33 v=0
50058 On ch=1 n=61 v=0
50074 On ch=1 n=64 v=0
50144 On ch=1 n=70 v=87
50144 On ch=1 n=43 v=95
50146 On ch=1 n=58 v=83
50146 On ch=1 n=64 v=75
50148 On ch=1 n=31 v=98
50152 On ch=1 n=61 v=57
50288 Par ch=1 c=64 v=0
50550 Par ch=1 c=64 v=127
50552 On ch=1 n=43 v=0
50566 On ch=1 n=31 v=0
50684 On ch=1 n=61 v=0
50688 On ch=1 n=43 v=91
50688 On ch=1 n=31 v=86
50698 On ch=1 n=58 v=0
50728 On ch=1 n=64 v=0
50730 On ch=1 n=70 v=0
50922 On ch=1 n=43 v=0
50958 On ch=1 n=31 v=0
50974 On ch=1 n=70 v=78
50977 On ch=1 n=58 v=65
50988 On ch=1 n=61 v=64
50988 On ch=1 n=64 v=74
51174 On ch=1 n=58 v=0
51176 On ch=1 n=61 v=0
51202 On ch=1 n=70 v=0
51338 On ch=1 n=42 v=83
51344 On ch=1 n=66 v=57
51346 On ch=1 n=69 v=76
51346 On ch=1 n=57 v=70
51346 On ch=1 n=30 v=83
51350 Par ch=1 c=64 v=0
51356 On ch=1 n=62 v=61
51394 On ch=1 n=64 v=0
51666 On ch=1 n=30 v=0
51690 On ch=1 n=57 v=0
51702 On ch=1 n=42 v=0
51702 Par ch=1 c=64 v=127
51760 On ch=1 n=62 v=0
51868 On ch=1 n=66 v=0
52088 On ch=1 n=62 v=36
52104 On ch=1 n=54 v=32
52108 On ch=1 n=57 v=26
52126 On ch=1 n=69 v=0
52202 On ch=1 n=54 v=0
52272 On ch=1 n=57 v=0
52308 On ch=1 n=62 v=0
52650 On ch=1 n=81 v=83
52662 On ch=1 n=62 v=30
52674 On ch=1 n=69 v=37
52686 Par ch=1 c=64 v=0
52688 On ch=1 n=54 v=21
52688 On ch=1 n=57 v=17
52972 On ch=1 n=54 v=0
52972 On ch=1 n=62 v=0
52975 On ch=1 n=57 v=0
52994 Par ch=1 c=64 v=127
53238 On ch=1 n=62 v=33
53244 On ch=1 n=57 v=20
53250 On ch=1 n=54 v=29
53404 On ch=1 n=57 v=0
53416 On ch=1 n=54 v=0
53424 On ch=1 n=62 v=0
53774 On ch=1 n=62 v=25
53798 On ch=1 n=54 v=12
53798 On ch=1 n=57 v=17
53926 On ch=1 n=57 v=0
53938 On ch=1 n=54 v=0
53964 On ch=1 n=62 v=0
54306 On ch=1 n=62 v=25
54316 On ch=1 n=54 v=18
54326 On ch=1 n=57 v=24
54354 On ch=1 n=69 v=0
54372 On ch=1 n=81 v=0
54490 On ch=1 n=57 v=0
54512 On ch=1 n=54 v=0
54538 On ch=1 n=62 v=0
54584 On ch=1 n=81 v=78
54596 On ch=1 n=69 v=45
54674 On ch=1 n=69 v=0
54744 On ch=1 n=81 v=0
54848 On ch=1 n=83 v=103
54858 On ch=1 n=71 v=72
54868 Par ch=1 c=64 v=0
54874 On ch=1 n=62 v=27
54880 On ch=1 n=54 v=23
54883 On ch=1 n=57 v=22
55118 On ch=1 n=62 v=0
55128 Par ch=1 c=64 v=127
55136 On ch=1 n=57 v=0
55140 On ch=1 n=54 v=0
55192 On ch=1 n=71 v=0
55227 On ch=1 n=83 v=0
55378 On ch=1 n=57 v=28
55380 On ch=1 n=62 v=35
55392 On ch=1 n=54 v=28
55544 On ch=1 n=62 v=0
55544 On ch=1 n=57 v=0
55562 On ch=1 n=54 v=0
55718 On ch=1 n=84 v=88
55730 On ch=1 n=72 v=54
55792 On ch=1 n=72 v=0
55826 On ch=1 n=84 v=0
55984 On ch=1 n=84 v=80
55990 Par ch=1 c=64 v=0
55996 On ch=1 n=72 v=54
55996 On ch=1 n=56 v=26
56012 On ch=1 n=62 v=27
56034 On ch=1 n=53 v=45
56282 Par ch=1 c=64 v=127
56310 On ch=1 n=53 v=0
56315 On ch=1 n=62 v=0
56334 On ch=1 n=56 v=0
56616 On ch=1 n=56 v=26
56626 On ch=1 n=62 v=24
56668 On ch=1 n=53 v=34
56764 On ch=1 n=53 v=0
56855 On ch=1 n=62 v=0
56878 On ch=1 n=56 v=0
56942 On ch=1 n=84 v=0
56990 On ch=1 n=72 v=0
57188 On ch=1 n=83 v=69
57191 On ch=1 n=56 v=23
57200 On ch=1 n=62 v=24
57205 On ch=1 n=71 v=31
57254 On ch=1 n=53 v=36
57296 Par ch=1 c=64 v=0
57478 On ch=1 n=53 v=0
57478 Par ch=1 c=64 v=127
57486 On ch=1 n=62 v=0
57500 On ch=1 n=56 v=0
57734 On ch=1 n=56 v=26
57734 On ch=1 n=62 v=28
57774 On ch=1 n=53 v=30
57852 On ch=1 n=53 v=0
57860 On ch=1 n=62 v=0
57900 On ch=1 n=56 v=0
58252 On ch=1 n=59 v=33
58262 On ch=1 n=53 v=48
58270 On ch=1 n=50 v=27
58310 Par ch=1 c=64 v=0
58526 Par ch=1 c=64 v=127
58538 On ch=1 n=59 v=0
58548 On ch=1 n=53 v=0
58551 On ch=1 n=50 v=0
58588 On ch=1 n=83 v=0
58634 On ch=1 n=71 v=0
58766 On ch=1 n=59 v=41
58772 On ch=1 n=53 v=52
58794 On ch=1 n=50 v=34
58974 On ch=1 n=59 v=0
58980 On ch=1 n=50 v=0
58982 On ch=1 n=53 v=0
59264 On ch=1 n=59 v=32
59268 On ch=1 n=83 v=100
59278 On ch=1 n=71 v=66
59286 On ch=1 n=53 v=48
59294 On ch=1 n=50 v=20
59534 On ch=1 n=59 v=0
59556 On ch=1 n=53 v=0
59564 On ch=1 n=50 v=0
59654 On ch=1 n=71 v=0
59694 On ch=1 n=83 v=0
59772 On ch=1 n=59 v=52
59775 On ch=1 n=53 v=59
59780 On ch=1 n=50 v=39
59892 On ch=1 n=59 v=0
59906 On ch=1 n=50 v=0
59906 On ch=1 n=53 v=0
60110 On ch=1 n=84 v=91
60120 On ch=1 n=72 v=64
60170 On ch=1 n=72 v=0
60200 On ch=1 n=84 v=0
60330 On ch=1 n=56 v=39
60342 On ch=1 n=85 v=82
60342 On ch=1 n=73 v=67
60354 On ch=1 n=50 v=41
60364 On ch=1 n=47 v=31
60384 Par ch=1 c=64 v=0
60626 On ch=1 n=56 v=0
60644 On ch=1 n=50 v=0
60652 On ch=1 n=47 v=0
60660 Par ch=1 c=64 v=127
60876 On ch=1 n=56 v=47
60898 On ch=1 n=47 v=27
60906 On ch=1 n=50 v=39
61100 On ch=1 n=50 v=0
61122 On ch=1 n=47 v=0
61156 On ch=1 n=56 v=0
61232 On ch=1 n=73 v=0
61378 On ch=1 n=86 v=63
61386 On ch=1 n=56 v=38
61392 On ch=1 n=74 v=48
61418 On ch=1 n=85 v=0
61418 On ch=1 n=50 v=33
61432 On ch=1 n=47 v=24
61536 Par ch=1 c=64 v=0
61706 On ch=1 n=47 v=0
61712 On ch=1 n=56 v=0
61712 On ch=1 n=50 v=0
61736 Par ch=1 c=64 v=127
61912 On ch=1 n=56 v=43
61942 On ch=1 n=50 v=33
61945 On ch=1 n=47 v=30
62058 On ch=1 n=47 v=0
62076 On ch=1 n=50 v=0
62094 On ch=1 n=56 v=0
62392 On ch=1 n=44 v=53
62396 On ch=1 n=47 v=50
62396 On ch=1 n=53 v=79
62642 On ch=1 n=53 v=0
62658 On ch=1 n=47 v=0
62674 On ch=1 n=44 v=0
62896 On ch=1 n=44 v=46
62898 On ch=1 n=47 v=43
62914 On ch=1 n=53 v=47
63018 On ch=1 n=53 v=0
63216 On ch=1 n=47 v=0
63218 On ch=1 n=44 v=0
63230 On ch=1 n=74 v=0
63252 On ch=1 n=86 v=0
63386 On ch=1 n=86 v=101
63396 On ch=1 n=74 v=89
63398 On ch=1 n=47 v=51
63408 On ch=1 n=44 v=50
63426 On ch=1 n=53 v=59
63654 On ch=1 n=53 v=0
63688 On ch=1 n=47 v=0
63710 On ch=1 n=44 v=0
63848 On ch=1 n=74 v=0
63890 On ch=1 n=44 v=64
63893 On ch=1 n=47 v=62
63898 On ch=1 n=86 v=0
63904 On ch=1 n=53 v=65
64058 On ch=1 n=53 v=0
64184 On ch=1 n=47 v=0
64187 On ch=1 n=87 v=88
64197 On ch=1 n=75 v=80
64242 On ch=1 n=44 v=0
64248 On ch=1 n=75 v=0
64332 On ch=1 n=87 v=0
64428 On ch=1 n=88 v=101
64436 On ch=1 n=76 v=81
64439 On ch=1 n=53 v=89
64444 On ch=1 n=47 v=61
64444 On ch=1 n=43 v=59
64516 Par ch=1 c=64 v=0
64764 Par ch=1 c=64 v=127
64778 On ch=1 n=53 v=0
64790 On ch=1 n=47 v=0
64790 On ch=1 n=43 v=0
64960 On ch=1 n=47 v=49
64964 On ch=1 n=53 v=60
64966 On ch=1 n=43 v=40
65246 On ch=1 n=53 v=0
65278 On ch=1 n=43 v=0
65296 On ch=1 n=47 v=0
65332 On ch=1 n=76 v=0
65454 On ch=1 n=89 v=98
65457 On ch=1 n=77 v=85
65464 On ch=1 n=47 v=58
65470 On ch=1 n=53 v=86
65492 On ch=1 n=43 v=43
65534 On ch=1 n=53 v=0
65736 On ch=1 n=43 v=0
65748 On ch=1 n=88 v=0
65768 On ch=1 n=47 v=0
65976 On ch=1 n=53 v=84
65978 On ch=1 n=47 v=66
65980 On ch=1 n=43 v=58
66106 On ch=1 n=53 v=0
66174 On ch=1 n=43 v=0
66224 On ch=1 n=47 v=0
66482 On ch=1 n=48 v=89
66488 On ch=1 n=44 v=86
66526 On ch=1 n=53 v=60
66546 Par ch=1 c=64 v=0
66738 On ch=1 n=53 v=0
66792 Par ch=1 c=64 v=127
66806 On ch=1 n=48 v=0
66808 On ch=1 n=44 v=0
67002 On ch=1 n=44 v=78
67005 On ch=1 n=48 v=75
67012 On ch=1 n=53 v=82
67132 On ch=1 n=53 v=0
67218 On ch=1 n=48 v=0
67268 On ch=1 n=44 v=0
67316 On ch=1 n=77 v=0
67336 On ch=1 n=89 v=0
67538 On ch=1 n=89 v=104
67538 On ch=1 n=48 v=78
67546 On ch=1 n=44 v=73
67549 On ch=1 n=77 v=91
67554 On ch=1 n=53 v=83
67616 On ch=1 n=53 v=0
67842 On ch=1 n=44 v=0
67854 On ch=1 n=48 v=0
68096 On ch=1 n=48 v=81
68110 On ch=1 n=44 v=75
68118 On ch=1 n=53 v=87
68164 On ch=1 n=53 v=0
68248 On ch=1 n=48 v=0
68254 On ch=1 n=44 v=0
68444 On ch=1 n=77 v=0
68544 On ch=1 n=89 v=0
68934 On ch=1 n=89 v=101
68934 On ch=1 n=47 v=79
68946 On ch=1 n=77 v=81
68948 On ch=1 n=53 v=90
68950 On ch=1 n=43 v=68
68958 Par ch=1 c=64 v=0
69296 Par ch=1 c=64 v=127
69450 On ch=1 n=53 v=0
69994 On ch=1 n=47 v=0
70052 On ch=1 n=43 v=0
70400 On ch=1 n=77 v=0
70448 Par ch=1 c=64 v=0
71016 On ch=1 n=87 v=58
71048 Par ch=1 c=64 v=127
71236 On ch=1 n=89 v=0
71241 On ch=1 n=86 v=72
71304 On ch=1 n=87 v=0
71424 On ch=1 n=89 v=72
71444 On ch=1 n=86 v=0
71552 On ch=1 n=87 v=59
71670 On ch=1 n=89 v=0
71676 On ch=1 n=86 v=73
71770 On ch=1 n=87 v=0
71792 On ch=1 n=84 v=72
71830 Par ch=1 c=64 v=0
71838 On ch=1 n=86 v=0
71952 On ch=1 n=83 v=95
71964 On ch=1 n=84 v=0
72230 Par ch=1 c=64 v=127
72278 On ch=1 n=83 v=0
72600 On ch=1 n=83 v=76
72802 On ch=1 n=83 v=0
73198 On ch=1 n=83 v=59
73200 Par ch=1 c=64 v=0
73208 On ch=1 n=74 v=24
73208 On ch=1 n=77 v=28
73240 On ch=1 n=67 v=12
73444 Par ch=1 c=64 v=127
73448 On ch=1 n=74 v=0
73452 On ch=1 n=67 v=0
73460 On ch=1 n=77 v=0
73468 On ch=1 n=83 v=0
73798 Par ch=1 c=64 v=0
73820 On ch=1 n=83 v=57
73824 On ch=1 n=77 v=29
73838 On ch=1 n=74 v=33
73860 On ch=1 n=67 v=17
74030 On ch=1 n=74 v=0
74058 Par ch=1 c=64 v=127
74076 On ch=1 n=67 v=0
74100 On ch=1 n=77 v=0
74120 On ch=1 n=83 v=0
74670 On ch=1 n=84 v=38
74678 On ch=1 n=75 v=21
74688 On ch=1 n=68 v=16
74698 On ch=1 n=72 v=19
74704 Par ch=1 c=64 v=0
75242 Par ch=1 c=64 v=127
76056 On ch=1 n=72 v=0
76064 On ch=1 n=75 v=0
76088 On ch=1 n=68 v=0
76722 On ch=1 n=84 v=0
76962 Par ch=1 c=64 v=0
78330 On ch=1 n=84 v=68
79390 Par ch=1 c=64 v=127
79578 On ch=1 n=83 v=87
79634 On ch=1 n=84 v=0
79808 On ch=1 n=84 v=87
79852 On ch=1 n=83 v=0
79928 Par ch=1 c=64 v=0
79978 On ch=1 n=86 v=77
79998 On ch=1 n=84 v=0
80100 On ch=1 n=84 v=65
80168 On ch=1 n=86 v=0
80204 On ch=1 n=82 v=64
80268 On ch=1 n=84 v=0
80312 On ch=1 n=80 v=68
80378 On ch=1 n=82 v=0
80408 On ch=1 n=79 v=79
80436 On ch=1 n=80 v=0
80520 On ch=1 n=82 v=67
80536 On ch=1 n=79 v=0
80686 On ch=1 n=80 v=57
80746 On ch=1 n=82 v=0
80972 Par ch=1 c=64 v=127
81036 On ch=1 n=80 v=0
81312 On ch=1 n=80 v=56
81634 On ch=1 n=80 v=0
81854 On ch=1 n=80 v=49
81864 On ch=1 n=62 v=27
81874 On ch=1 n=60 v=22
81882 On ch=1 n=53 v=31
82144 On ch=1 n=53 v=0
82144 On ch=1 n=62 v=0
82150 On ch=1 n=60 v=0
82186 On ch=1 n=80 v=0
82446 On ch=1 n=80 v=66
82456 On ch=1 n=60 v=30
82460 On ch=1 n=62 v=33
82484 On ch=1 n=53 v=42
82682 On ch=1 n=53 v=0
82688 On ch=1 n=62 v=0
82691 On ch=1 n=60 v=0
82734 On ch=1 n=80 v=0
83186 On ch=1 n=79 v=58
83204 On ch=1 n=63 v=28
83232 On ch=1 n=60 v=19
83254 On ch=1 n=55 v=21
83278 Par ch=1 c=64 v=0
83724 Par ch=1 c=64 v=127
84060 On ch=1 n=87 v=41
84208 On ch=1 n=79 v=0
84230 On ch=1 n=63 v=0
84238 On ch=1 n=55 v=0
84246 On ch=1 n=60 v=0
84430 Par ch=1 c=64 v=0
84782 Par ch=1 c=64 v=127
85020 On ch=1 n=86 v=22
85150 On ch=1 n=87 v=0
85210 On ch=1 n=85 v=45
85224 On ch=1 n=86 v=0
85360 On ch=1 n=85 v=0
85366 On ch=1 n=84 v=58
85496 On ch=1 n=83 v=77
85532 On ch=1 n=84 v=0
85616 On ch=1 n=82 v=47
85628 On ch=1 n=83 v=0
85746 On ch=1 n=81 v=57
85748 On ch=1 n=82 v=0
85846 On ch=1 n=80 v=61
85872 On ch=1 n=81 v=0
85940 On ch=1 n=79 v=63
85988 On ch=1 n=80 v=0
86031 On ch=1 n=78 v=60
86082 On ch=1 n=79 v=0
86084 On ch=1 n=78 v=0
86114 On ch=1 n=77 v=60
86200 On ch=1 n=76 v=40
86212 On ch=1 n=77 v=0
86264 On ch=1 n=75 v=58
86296 On ch=1 n=76 v=0
86346 On ch=1 n=75 v=0
86362 On ch=1 n=74 v=59
86378 On ch=1 n=53 v=76
86384 On ch=1 n=43 v=45
86390 On ch=1 n=50 v=45
86428 On ch=1 n=74 v=0
86432 On ch=1 n=73 v=55
86518 On ch=1 n=72 v=63
86564 On ch=1 n=72 v=0
86566 On ch=1 n=73 v=0
86590 On ch=1 n=71 v=70
86660 On ch=1 n=70 v=57
86708 On ch=1 n=71 v=0
86726 On ch=1 n=69 v=59
86804 On ch=1 n=68 v=69
86809 On ch=1 n=70 v=0
86854 On ch=1 n=69 v=0
86880 On ch=1 n=67 v=66
86886 On ch=1 n=68 v=0
86952 On ch=1 n=66 v=62
86972 On ch=1 n=67 v=0
87032 On ch=1 n=65 v=65
87080 On ch=1 n=65 v=0
87100 On ch=1 n=64 v=66
87102 On ch=1 n=66 v=0
87176 On ch=1 n=63 v=75
87194 On ch=1 n=64 v=0
87260 On ch=1 n=62 v=74
87276 On ch=1 n=63 v=0
87330 On ch=1 n=61 v=76
87368 On ch=1 n=62 v=0
87430 On ch=1 n=60 v=78
87474 On ch=1 n=61 v=0
87512 On ch=1 n=59 v=81
87532 On ch=1 n=60 v=0
87672 On ch=1 n=43 v=0
87672 Par ch=1 c=64 v=0
87672 On ch=1 n=68 v=72
87702 On ch=1 n=59 v=0
87734 On ch=1 n=50 v=0
87764 On ch=1 n=53 v=0
89464 On ch=1 n=59 v=41
89604 On ch=1 n=68 v=0
89674 On ch=1 n=36 v=46
89678 On ch=1 n=60 v=54
89740 On ch=1 n=59 v=0
89746 On ch=1 n=36 v=0
89778 On ch=1 n=48 v=38
89876 On ch=1 n=36 v=39
89884 On ch=1 n=48 v=0
89944 On ch=1 n=36 v=0
89966 On ch=1 n=48 v=40
90038 Par ch=1 c=64 v=127
90068 On ch=1 n=48 v=0
90068 On ch=1 n=36 v=34
90142 On ch=1 n=36 v=0
90160 On ch=1 n=48 v=35
90252 On ch=1 n=60 v=0
90266 On ch=1 n=58 v=45
90269 On ch=1 n=48 v=0
90286 On ch=1 n=64 v=50
90292 On ch=1 n=36 v=44
90326 On ch=1 n=58 v=0
90346 On ch=1 n=36 v=0
90352 On ch=1 n=64 v=0
90378 On ch=1 n=48 v=28
90448 On ch=1 n=48 v=0
90464 On ch=1 n=56 v=62
90476 On ch=1 n=65 v=57
90486 On ch=1 n=36 v=49
90516 On ch=1 n=56 v=0
90524 On ch=1 n=65 v=0
90546 On ch=1 n=36 v=0
90546 Par ch=1 c=64 v=0
90588 On ch=1 n=48 v=41
90662 On ch=1 n=48 v=0
90674 On ch=1 n=64 v=77
90682 On ch=1 n=36 v=54
90685 On ch=1 n=67 v=42
90726 On ch=1 n=64 v=0
90738 On ch=1 n=36 v=0
90748 On ch=1 n=67 v=0
90758 On ch=1 n=48 v=39
90852 On ch=1 n=68 v=66
90855 On ch=1 n=65 v=59
90864 On ch=1 n=48 v=0
90864 On ch=1 n=36 v=56
90902 On ch=1 n=65 v=0
90934 On ch=1 n=36 v=0
90944 On ch=1 n=48 v=47
90954 On ch=1 n=68 v=0
91032 On ch=1 n=48 v=0
91042 On ch=1 n=36 v=55
91048 On ch=1 n=71 v=79
91052 On ch=1 n=62 v=66
91094 On ch=1 n=71 v=0
91100 On ch=1 n=62 v=0
91120 On ch=1 n=36 v=0
91138 On ch=1 n=48 v=43
91230 On ch=1 n=48 v=0
91242 On ch=1 n=63 v=73
91242 On ch=1 n=36 v=55
91254 On ch=1 n=72 v=51
91282 On ch=1 n=63 v=0
91306 On ch=1 n=72 v=0
91324 On ch=1 n=36 v=0
91346 On ch=1 n=48 v=40
91440 On ch=1 n=48 v=0
91458 On ch=1 n=72 v=75
91460 On ch=1 n=36 v=51
91462 On ch=1 n=64 v=78
91482 Par ch=1 c=64 v=127
91524 On ch=1 n=36 v=0
91564 On ch=1 n=64 v=0
91564 On ch=1 n=48 v=37
91598 On ch=1 n=72 v=0
91642 On ch=1 n=48 v=0
91664 On ch=1 n=36 v=50
91724 On ch=1 n=36 v=0
91754 On ch=1 n=48 v=41
91830 On ch=1 n=48 v=0
91852 Par ch=1 c=64 v=0
91852 On ch=1 n=70 v=64
91855 On ch=1 n=76 v=71
91858 On ch=1 n=36 v=50
91904 On ch=1 n=70 v=0
91914 On ch=1 n=36 v=0
91938 On ch=1 n=76 v=0
91938 On ch=1 n=48 v=41
92032 On ch=1 n=48 v=0
92044 On ch=1 n=68 v=69
92046 On ch=1 n=77 v=87
92048 On ch=1 n=36 v=57
92088 On ch=1 n=68 v=0
92112 On ch=1 n=36 v=0
92130 On ch=1 n=77 v=0
92132 On ch=1 n=48 v=39
92234 On ch=1 n=79 v=91
92238 On ch=1 n=76 v=70
92238 On ch=1 n=36 v=52
92246 On ch=1 n=48 v=0
92284 On ch=1 n=76 v=0
92318 On ch=1 n=36 v=0
92320 On ch=1 n=79 v=0
92324 On ch=1 n=48 v=48
92420 On ch=1 n=80 v=85
92428 On ch=1 n=77 v=75
92432 On ch=1 n=36 v=44
92434 On ch=1 n=48 v=0
92466 On ch=1 n=77 v=0
92466 Par ch=1 c=64 v=127
92496 Par ch=1 c=64 v=0
92508 On ch=1 n=36 v=0
92518 On ch=1 n=48 v=44
92521 On ch=1 n=80 v=0
92616 On ch=1 n=83 v=106
92618 On ch=1 n=74 v=81
92622 On ch=1 n=48 v=0
92636 On ch=1 n=36 v=45
92660 On ch=1 n=74 v=0
92676 On ch=1 n=83 v=0
92698 On ch=1 n=36 v=0
92718 On ch=1 n=48 v=34
92820 On ch=1 n=48 v=0
92824 On ch=1 n=75 v=57
92826 On ch=1 n=84 v=91
92832 On ch=1 n=72 v=57
92836 On ch=1 n=36 v=54
92839 On ch=1 n=79 v=58
92922 On ch=1 n=36 v=0
92940 Par ch=1 c=64 v=127
92940 On ch=1 n=48 v=31
92970 On ch=1 n=84 v=0
92982 On ch=1 n=79 v=0
93010 On ch=1 n=48 v=0
93032 On ch=1 n=75 v=0
93052 On ch=1 n=72 v=0
93055 On ch=1 n=36 v=39
93118 On ch=1 n=36 v=0
93158 On ch=1 n=48 v=33
93224 On ch=1 n=48 v=0
93234 Par ch=1 c=64 v=0
93242 On ch=1 n=79 v=80
93242 On ch=1 n=77 v=42
93248 On ch=1 n=67 v=60
93260 On ch=1 n=71 v=39
93274 On ch=1 n=38 v=52
93364 On ch=1 n=50 v=61
93370 On ch=1 n=38 v=0
93418 Par ch=1 c=64 v=127
93430 On ch=1 n=50 v=0
93452 On ch=1 n=77 v=0
93456 On ch=1 n=38 v=51
93482 On ch=1 n=71 v=0
93490 On ch=1 n=67 v=0
93504 On ch=1 n=79 v=0
93516 On ch=1 n=50 v=59
93532 On ch=1 n=38 v=0
93594 On ch=1 n=50 v=0
93632 Par ch=1 c=64 v=0
93632 On ch=1 n=75 v=74
93638 On ch=1 n=72 v=55
93638 On ch=1 n=67 v=63
93640 On ch=1 n=39 v=68
93726 On ch=1 n=51 v=74
93754 On ch=1 n=39 v=0
93798 On ch=1 n=72 v=0
93824 On ch=1 n=75 v=0
93824 On ch=1 n=51 v=0
93824 On ch=1 n=39 v=69
93834 Par ch=1 c=64 v=127
93874 On ch=1 n=67 v=0
93908 On ch=1 n=51 v=64
93924 On ch=1 n=39 v=0
93986 Par ch=1 c=64 v=0
93996 On ch=1 n=51 v=0
94004 On ch=1 n=68 v=65
94007 On ch=1 n=74 v=87
94010 On ch=1 n=41 v=83
94012 On ch=1 n=65 v=63
94112 On ch=1 n=53 v=91
94128 On ch=1 n=41 v=0
94158 On ch=1 n=53 v=0
94170 Par ch=1 c=64 v=127
94190 On ch=1 n=74 v=0
94193 On ch=1 n=41 v=85
94218 On ch=1 n=68 v=0
94238 On ch=1 n=65 v=0
94286 On ch=1 n=53 v=85
94302 On ch=1 n=41 v=0
94364 On ch=1 n=53 v=0
94380 On ch=1 n=72 v=80
94384 On ch=1 n=63 v=76
94396 On ch=1 n=43 v=80
94402 Par ch=1 c=64 v=0
94422 On ch=1 n=67 v=42
94490 On ch=1 n=55 v=67
94528 On ch=1 n=43 v=0
94554 On ch=1 n=55 v=0
94588 On ch=1 n=43 v=80
94618 Par ch=1 c=64 v=127
94648 On ch=1 n=55 v=67
94666 On ch=1 n=43 v=0
94744 On ch=1 n=55 v=0
94762 On ch=1 n=66 v=66
94770 Par ch=1 c=64 v=0
94772 On ch=1 n=44 v=76
94806 On ch=1 n=67 v=0
94854 On ch=1 n=56 v=76
94890 On ch=1 n=44 v=0
94954 On ch=1 n=56 v=0
94954 On ch=1 n=44 v=68
94970 Par ch=1 c=64 v=127
95028 On ch=1 n=56 v=57
95090 On ch=1 n=44 v=0
95124 Par ch=1 c=64 v=0
95126 On ch=1 n=56 v=0
95150 On ch=1 n=69 v=51
95150 On ch=1 n=42 v=62
95210 On ch=1 n=66 v=0
95228 On ch=1 n=42 v=0
95248 On ch=1 n=54 v=58
95324 Par ch=1 c=64 v=127
95336 On ch=1 n=42 v=32
95346 On ch=1 n=54 v=0
95380 On ch=1 n=72 v=0
95442 On ch=1 n=54 v=40
95454 On ch=1 n=63 v=0
95462 On ch=1 n=42 v=0
95540 Par ch=1 c=64 v=0
95540 On ch=1 n=71 v=52
95552 On ch=1 n=54 v=0
95555 On ch=1 n=62 v=38
95558 On ch=1 n=65 v=31
95576 On ch=1 n=69 v=0
95582 On ch=1 n=43 v=37
95650 On ch=1 n=43 v=0
95680 On ch=1 n=55 v=24
95738 Par ch=1 c=64 v=127
95742 On ch=1 n=55 v=0
95742 On ch=1 n=43 v=44
95768 On ch=1 n=65 v=0
95778 On ch=1 n=62 v=0
95796 On ch=1 n=71 v=0
95824 On ch=1 n=55 v=57
95848 On ch=1 n=43 v=0
95874 On ch=1 n=55 v=0
95936 On ch=1 n=63 v=62
95939 On ch=1 n=72 v=57
95944 On ch=1 n=60 v=42
95982 On ch=1 n=63 v=0
95986 On ch=1 n=72 v=0
95998 On ch=1 n=36 v=43
96010 On ch=1 n=60 v=0
96056 On ch=1 n=36 v=0
96062 Par ch=1 c=64 v=0
96066 On ch=1 n=48 v=50
96126 On ch=1 n=48 v=0
96150 On ch=1 n=60 v=91
96158 On ch=1 n=36 v=48
96248 On ch=1 n=36 v=0
96280 On ch=1 n=48 v=42
96342 On ch=1 n=48 v=0
96348 On ch=1 n=36 v=54
96418 On ch=1 n=36 v=0
96436 On ch=1 n=48 v=34
96482 On ch=1 n=60 v=0
96514 On ch=1 n=58 v=60
96522 On ch=1 n=64 v=73
96526 On ch=1 n=48 v=0
96536 On ch=1 n=36 v=56
96570 On ch=1 n=58 v=0
96576 On ch=1 n=64 v=0
96590 On ch=1 n=36 v=0
96616 On ch=1 n=48 v=46
96706 On ch=1 n=65 v=70
96708 On ch=1 n=48 v=0
96710 On ch=1 n=56 v=56
96716 On ch=1 n=36 v=57
96760 On ch=1 n=56 v=0
96772 On ch=1 n=65 v=0
96774 On ch=1 n=36 v=0
96798 On ch=1 n=48 v=43
96890 On ch=1 n=67 v=73
96895 On ch=1 n=48 v=0
96895 On ch=1 n=64 v=70
96900 On ch=1 n=36 v=56
96948 On ch=1 n=64 v=0
96960 On ch=1 n=67 v=0
96972 On ch=1 n=36 v=0
96990 On ch=1 n=48 v=40
97076 On ch=1 n=68 v=71
97088 On ch=1 n=65 v=63
97092 On ch=1 n=36 v=51
97106 On ch=1 n=48 v=0
97130 On ch=1 n=65 v=0
97162 On ch=1 n=36 v=0
97172 On ch=1 n=68 v=0
97174 On ch=1 n=48 v=61
97264 On ch=1 n=71 v=79
97267 On ch=1 n=62 v=62
97270 On ch=1 n=48 v=0
97276 On ch=1 n=36 v=50
97306 On ch=1 n=71 v=0
97314 On ch=1 n=62 v=0
97336 On ch=1 n=36 v=0
97354 On ch=1 n=48 v=45
97438 On ch=1 n=63 v=72
97440 On ch=1 n=72 v=71
97454 On ch=1 n=36 v=47
97466 On ch=1 n=48 v=0
97482 On ch=1 n=63 v=0
97498 On ch=1 n=72 v=0
97520 On ch=1 n=36 v=0
97536 On ch=1 n=48 v=63
97616 On ch=1 n=48 v=0
97638 On ch=1 n=36 v=47
97641 On ch=1 n=72 v=84
97645 On ch=1 n=64 v=83
97694 On ch=1 n=36 v=0
97726 On ch=1 n=48 v=47
97736 Par ch=1 c=64 v=127
97756 On ch=1 n=64 v=0
97776 On ch=1 n=72 v=0
97802 On ch=1 n=48 v=0
97824 On ch=1 n=36 v=57
97884 On ch=1 n=36 v=0
97902 On ch=1 n=48 v=48
97966 Par ch=1 c=64 v=0
97984 On ch=1 n=48 v=0
98002 On ch=1 n=36 v=57
98030 On ch=1 n=76 v=78
98032 On ch=1 n=70 v=65
98074 On ch=1 n=70 v=0
98074 On ch=1 n=36 v=0
98094 On ch=1 n=48 v=53
98106 On ch=1 n=76 v=0
98192 On ch=1 n=48 v=0
98195 On ch=1 n=36 v=63
98222 On ch=1 n=77 v=77
98222 On ch=1 n=68 v=48
98262 On ch=1 n=36 v=0
98265 On ch=1 n=77 v=0
98276 On ch=1 n=68 v=0
98282 On ch=1 n=48 v=45
98382 On ch=1 n=36 v=51
98384 On ch=1 n=48 v=0
98394 On ch=1 n=79 v=84
98400 On ch=1 n=76 v=57
98440 On ch=1 n=79 v=0
98446 On ch=1 n=76 v=0
98460 On ch=1 n=36 v=0
98472 On ch=1 n=48 v=47
98566 On ch=1 n=80 v=81
98572 On ch=1 n=48 v=0
98572 On ch=1 n=36 v=44
98572 On ch=1 n=77 v=73
98608 On ch=1 n=77 v=0
98628 On ch=1 n=80 v=0
98638 On ch=1 n=36 v=0
98662 On ch=1 n=48 v=40
98754 On ch=1 n=48 v=0
98758 On ch=1 n=74 v=75
98760 On ch=1 n=83 v=97
98766 On ch=1 n=36 v=45
98796 On ch=1 n=74 v=0
98799 On ch=1 n=83 v=0
98842 On ch=1 n=36 v=0
98866 On ch=1 n=48 v=38
98956 On ch=1 n=48 v=0
98956 On ch=1 n=75 v=66
98962 On ch=1 n=84 v=90
98964 On ch=1 n=72 v=73
98968 On ch=1 n=79 v=67
98974 On ch=1 n=36 v=36
98996 Par ch=1 c=64 v=127
99030 On ch=1 n=36 v=0
99044 On ch=1 n=48 v=41
99052 On ch=1 n=84 v=0
99070 On ch=1 n=79 v=0
99102 On ch=1 n=75 v=0
99114 On ch=1 n=48 v=0
99120 On ch=1 n=72 v=0
99156 On ch=1 n=36 v=34
99216 On ch=1 n=36 v=0
99264 On ch=1 n=48 v=21
99334 Par ch=1 c=64 v=0
99337 On ch=1 n=48 v=0
99348 On ch=1 n=79 v=78
99348 On ch=1 n=67 v=49
99354 On ch=1 n=77 v=50
99360 On ch=1 n=38 v=54
99368 On ch=1 n=71 v=43
99430 On ch=1 n=38 v=0
99460 On ch=1 n=50 v=42
99528 On ch=1 n=50 v=0
99546 On ch=1 n=77 v=0
99550 Par ch=1 c=64 v=127
99550 On ch=1 n=38 v=39
99572 On ch=1 n=71 v=0
99590 On ch=1 n=67 v=0
99592 On ch=1 n=79 v=0
99606 On ch=1 n=50 v=63
99612 On ch=1 n=38 v=0
99670 On ch=1 n=50 v=0
99702 Par ch=1 c=64 v=0
99724 On ch=1 n=75 v=68
99726 On ch=1 n=39 v=67
99734 On ch=1 n=67 v=60
99740 On ch=1 n=72 v=54
99806 On ch=1 n=51 v=61
99828 On ch=1 n=39 v=0
99868 On ch=1 n=72 v=0
99896 On ch=1 n=75 v=0
99898 On ch=1 n=51 v=0
99902 Par ch=1 c=64 v=127
99906 On ch=1 n=39 v=64
99974 On ch=1 n=67 v=0
99980 On ch=1 n=51 v=56
100014 On ch=1 n=39 v=0
100070 On ch=1 n=51 v=0
100070 Par ch=1 c=64 v=0
100088 On ch=1 n=68 v=65
100088 On ch=1 n=74 v=88
100094 On ch=1 n=65 v=69
100100 On ch=1 n=41 v=81
100202 On ch=1 n=53 v=82
100205 On ch=1 n=41 v=0
100224 Par ch=1 c=64 v=127
100234 On ch=1 n=74 v=0
100250 On ch=1 n=53 v=0
100264 On ch=1 n=68 v=0
100272 On ch=1 n=41 v=85
100280 On ch=1 n=65 v=0
100374 On ch=1 n=41 v=0
100378 On ch=1 n=53 v=83
100426 Par ch=1 c=64 v=0
100434 On ch=1 n=53 v=0
100446 On ch=1 n=72 v=80
100452 On ch=1 n=63 v=76
100458 On ch=1 n=67 v=73
100474 On ch=1 n=43 v=79
100564 On ch=1 n=55 v=79
100600 On ch=1 n=43 v=0
100622 On ch=1 n=55 v=0
100656 Par ch=1 c=64 v=127
100656 On ch=1 n=43 v=69
100722 On ch=1 n=55 v=65
100776 On ch=1 n=43 v=0
100778 Par ch=1 c=64 v=0
100802 On ch=1 n=55 v=0
100832 On ch=1 n=44 v=76
100834 On ch=1 n=66 v=69
100902 On ch=1 n=67 v=0
100920 On ch=1 n=56 v=60
100954 On ch=1 n=44 v=0
101008 Par ch=1 c=64 v=127
101014 On ch=1 n=56 v=0
101016 On ch=1 n=44 v=68
101084 On ch=1 n=56 v=62
101174 On ch=1 n=56 v=0
101190 On ch=1 n=44 v=0
101218 On ch=1 n=42 v=53
101226 On ch=1 n=69 v=61
101276 On ch=1 n=66 v=0
101286 Par ch=1 c=64 v=0
101298 On ch=1 n=54 v=65
101300 On ch=1 n=42 v=0
101372 On ch=1 n=42 v=59
101400 On ch=1 n=54 v=0
101472 On ch=1 n=54 v=65
101486 On ch=1 n=42 v=0
101516 Par ch=1 c=64 v=127
101560 On ch=1 n=54 v=0
101560 On ch=1 n=42 v=55
101578 Par ch=1 c=64 v=0
101670 On ch=1 n=42 v=0
101672 On ch=1 n=54 v=46
101744 On ch=1 n=54 v=0
101746 Par ch=1 c=64 v=127
101764 On ch=1 n=42 v=37
101830 On ch=1 n=72 v=0
101870 On ch=1 n=54 v=41
101878 On ch=1 n=63 v=0
101898 On ch=1 n=42 v=0
101900 Par ch=1 c=64 v=0
101926 On ch=1 n=54 v=0
101988 On ch=1 n=55 v=42
101990 On ch=1 n=62 v=49
101990 On ch=1 n=71 v=57
101998 On ch=1 n=69 v=0
101998 On ch=1 n=67 v=36
102004 On ch=1 n=43 v=52
102050 On ch=1 n=55 v=0
102050 On ch=1 n=62 v=0
102053 On ch=1 n=43 v=0
102060 On ch=1 n=67 v=0
102112 On ch=1 n=71 v=0
102116 Par ch=1 c=64 v=127
102202 On ch=1 n=59 v=50
102205 On ch=1 n=62 v=68
102272 On ch=1 n=59 v=0
102282 On ch=1 n=62 v=0
102402 On ch=1 n=79 v=93
102406 On ch=1 n=67 v=72
102424 On ch=1 n=62 v=61
102428 On ch=1 n=59 v=54
102454 Par ch=1 c=64 v=0
102472 On ch=1 n=62 v=0
102496 On ch=1 n=59 v=0
102620 On ch=1 n=59 v=53
102623 On ch=1 n=62 v=60
102686 On ch=1 n=62 v=0
102689 On ch=1 n=59 v=0
102816 On ch=1 n=55 v=74
102882 On ch=1 n=55 v=0
102914 Par ch=1 c=64 v=127
102942 On ch=1 n=67 v=0
103002 On ch=1 n=63 v=76
103006 On ch=1 n=60 v=63
103036 On ch=1 n=79 v=0
103066 On ch=1 n=60 v=0
103078 On ch=1 n=63 v=0
103082 Par ch=1 c=64 v=0
103178 On ch=1 n=79 v=102
103186 On ch=1 n=67 v=86
103186 On ch=1 n=63 v=58
103189 On ch=1 n=60 v=54
103244 On ch=1 n=60 v=0
103244 On ch=1 n=63 v=0
103354 On ch=1 n=63 v=70
103370 On ch=1 n=60 v=46
103422 On ch=1 n=60 v=0
103474 On ch=1 n=63 v=0
103476 On ch=1 n=67 v=0
103576 On ch=1 n=62 v=58
103579 On ch=1 n=65 v=56
103636 On ch=1 n=62 v=0
103644 On ch=1 n=65 v=0
103648 On ch=1 n=77 v=73
103668 Par ch=1 c=64 v=127
103674 On ch=1 n=79 v=0
103736 On ch=1 n=74 v=74
103772 On ch=1 n=77 v=0
103834 On ch=1 n=71 v=67
103870 On ch=1 n=74 v=0
103904 On ch=1 n=71 v=0
103912 On ch=1 n=67 v=82
103956 On ch=1 n=67 v=0
104010 On ch=1 n=65 v=84
104020 Par ch=1 c=64 v=0
104092 On ch=1 n=62 v=76
104130 On ch=1 n=65 v=0
104148 On ch=1 n=62 v=0
104168 On ch=1 n=59 v=89
104280 On ch=1 n=60 v=92
104316 On ch=1 n=59 v=0
104366 On ch=1 n=63 v=79
104384 On ch=1 n=60 v=0
104448 On ch=1 n=60 v=77
104492 On ch=1 n=63 v=0
104544 On ch=1 n=60 v=0
104546 On ch=1 n=55 v=82
104622 On ch=1 n=32 v=57
104646 On ch=1 n=54 v=85
104664 On ch=1 n=55 v=0
104702 On ch=1 n=32 v=0
104705 On ch=1 n=44 v=55
104716 On ch=1 n=54 v=0
104719 On ch=1 n=60 v=63
104782 On ch=1 n=44 v=0
104808 On ch=1 n=32 v=59
104812 On ch=1 n=56 v=69
104836 On ch=1 n=60 v=0
104886 On ch=1 n=44 v=59
104908 On ch=1 n=54 v=74
104924 On ch=1 n=56 v=0
104930 On ch=1 n=32 v=0
104970 On ch=1 n=44 v=0
104972 On ch=1 n=54 v=0
105014 On ch=1 n=31 v=79
105018 On ch=1 n=55 v=76
105020 On ch=1 n=43 v=80
105054 On ch=1 n=31 v=0
105060 On ch=1 n=43 v=0
105060 On ch=1 n=55 v=0
105096 Par ch=1 c=64 v=127
105248 On ch=1 n=62 v=39
105284 On ch=1 n=59 v=18
105314 On ch=1 n=62 v=0
105326 Par ch=1 c=64 v=0
105350 On ch=1 n=59 v=0
105428 On ch=1 n=59 v=54
105431 On ch=1 n=79 v=83
105434 On ch=1 n=67 v=64
105448 On ch=1 n=62 v=61
105498 On ch=1 n=59 v=0
105500 On ch=1 n=62 v=0
105654 On ch=1 n=62 v=54
105660 On ch=1 n=59 v=47
105712 On ch=1 n=59 v=0
105712 On ch=1 n=62 v=0
105838 On ch=1 n=55 v=75
105922 On ch=1 n=67 v=0
105926 Par ch=1 c=64 v=127
105936 On ch=1 n=55 v=0
106020 On ch=1 n=79 v=0
106048 On ch=1 n=60 v=61
106048 On ch=1 n=63 v=64
106106 On ch=1 n=63 v=0
106106 On ch=1 n=60 v=0
106140 Par ch=1 c=64 v=0
106218 On ch=1 n=79 v=98
106228 On ch=1 n=67 v=78
106236 On ch=1 n=63 v=65
106248 On ch=1 n=60 v=57
106284 On ch=1 n=63 v=0
106298 On ch=1 n=60 v=0
106406 On ch=1 n=63 v=69
106412 On ch=1 n=60 v=47
106434 On ch=1 n=67 v=0
106470 On ch=1 n=60 v=0
106474 On ch=1 n=63 v=0
106630 On ch=1 n=65 v=66
106648 On ch=1 n=62 v=50
106706 On ch=1 n=79 v=0
106712 On ch=1 n=77 v=61
106720 On ch=1 n=62 v=0
106754 On ch=1 n=65 v=0
106786 Par ch=1 c=64 v=127
106810 On ch=1 n=74 v=64
106830 On ch=1 n=77 v=0
106908 On ch=1 n=71 v=69
106932 On ch=1 n=74 v=0
106968 On ch=1 n=71 v=0
106986 On ch=1 n=67 v=76
107032 On ch=1 n=67 v=0
107032 Par ch=1 c=64 v=0
107082 On ch=1 n=65 v=80
107164 On ch=1 n=62 v=72
107172 On ch=1 n=65 v=0
107208 On ch=1 n=62 v=0
107232 On ch=1 n=59 v=83
107344 On ch=1 n=60 v=87
107352 On ch=1 n=59 v=0
107422 On ch=1 n=63 v=77
107446 On ch=1 n=60 v=0
107514 On ch=1 n=60 v=73
107536 On ch=1 n=63 v=0
107576 On ch=1 n=60 v=0
107604 On ch=1 n=55 v=68
107700 On ch=1 n=54 v=92
107706 On ch=1 n=32 v=67
107734 On ch=1 n=55 v=0
107754 On ch=1 n=32 v=0
107786 On ch=1 n=44 v=36
107786 On ch=1 n=60 v=71
107798 On ch=1 n=54 v=0
107864 On ch=1 n=44 v=0
107874 On ch=1 n=56 v=72
107896 On ch=1 n=32 v=46
107904 On ch=1 n=60 v=0
107960 On ch=1 n=32 v=0
107970 On ch=1 n=54 v=69
107976 On ch=1 n=56 v=0
107978 On ch=1 n=44 v=47
108034 On ch=1 n=54 v=0
108057 On ch=1 n=44 v=0
108064 On ch=1 n=55 v=84
108080 On ch=1 n=31 v=74
108092 Par ch=1 c=64 v=127
108110 On ch=1 n=55 v=0
108130 On ch=1 n=31 v=0
108138 Par ch=1 c=64 v=0
108156 On ch=1 n=43 v=61
108222 On ch=1 n=43 v=0
108264 On ch=1 n=66 v=56
108272 On ch=1 n=31 v=64
108318 On ch=1 n=31 v=0
108324 On ch=1 n=66 v=0
108362 On ch=1 n=43 v=44
108418 On ch=1 n=43 v=0
108442 On ch=1 n=67 v=76
108450 On ch=1 n=31 v=61
108488 On ch=1 n=67 v=0
108500 On ch=1 n=31 v=0
108530 On ch=1 n=43 v=36
108612 On ch=1 n=43 v=0
108628 On ch=1 n=31 v=55
108632 On ch=1 n=72 v=73
108636 On ch=1 n=66 v=61
108684 On ch=1 n=66 v=0
108687 On ch=1 n=31 v=0
108694 On ch=1 n=72 v=0
108706 On ch=1 n=43 v=38
108794 On ch=1 n=43 v=0
108816 On ch=1 n=31 v=43
108819 On ch=1 n=67 v=67
108826 On ch=1 n=71 v=74
108866 On ch=1 n=71 v=0
108866 On ch=1 n=67 v=0
108876 Par ch=1 c=64 v=127
108884 On ch=1 n=31 v=0
108900 On ch=1 n=43 v=41
109004 On ch=1 n=43 v=0
109004 On ch=1 n=31 v=41
109004 On ch=1 n=72 v=74
109007 On ch=1 n=78 v=77
109054 On ch=1 n=78 v=0
109062 On ch=1 n=72 v=0
109064 On ch=1 n=31 v=0
109084 On ch=1 n=43 v=55
109158 On ch=1 n=43 v=0
109182 Par ch=1 c=64 v=0
109190 On ch=1 n=31 v=64
109196 On ch=1 n=71 v=91
109198 On ch=1 n=79 v=93
109234 On ch=1 n=71 v=0
109236 On ch=1 n=79 v=0
109236 On ch=1 n=31 v=0
109260 On ch=1 n=43 v=57
109338 On ch=1 n=43 v=0
109368 On ch=1 n=31 v=65
109382 On ch=1 n=84 v=98
109382 On ch=1 n=78 v=88
109416 On ch=1 n=31 v=0
109418 On ch=1 n=78 v=0
109446 On ch=1 n=43 v=58
109488 On ch=1 n=84 v=0
109522 On ch=1 n=43 v=0
109554 On ch=1 n=31 v=71
109576 On ch=1 n=83 v=114
109578 On ch=1 n=79 v=99
109604 On ch=1 n=31 v=0
109628 Par ch=1 c=64 v=127
109644 On ch=1 n=43 v=55
109662 On ch=1 n=79 v=0
109706 Par ch=1 c=64 v=0
109736 On ch=1 n=83 v=0
109750 On ch=1 n=43 v=0
109750 On ch=1 n=31 v=72
109810 On ch=1 n=31 v=0
109818 On ch=1 n=43 v=68
109920 On ch=1 n=43 v=0
109934 On ch=1 n=31 v=74
109998 On ch=1 n=31 v=0
110004 On ch=1 n=43 v=61
110106 On ch=1 n=43 v=0
110126 On ch=1 n=31 v=76
110170 On ch=1 n=31 v=0
110180 On ch=1 n=43 v=69
110228 Par ch=1 c=64 v=127
110278 On ch=1 n=43 v=0
110312 On ch=1 n=31 v=65
110316 On ch=1 n=63 v=98
110316 On ch=1 n=61 v=92
110318 On ch=1 n=58 v=84
110366 On ch=1 n=31 v=0
110404 On ch=1 n=43 v=44
110462 On ch=1 n=43 v=0
110508 On ch=1 n=31 v=75
110570 On ch=1 n=31 v=0
110573 On ch=1 n=43 v=39
110656 On ch=1 n=43 v=0
110698 On ch=1 n=31 v=65
110790 On ch=1 n=43 v=51
110794 On ch=1 n=31 v=0
110870 On ch=1 n=43 v=0
110908 On ch=1 n=31 v=66
110964 On ch=1 n=58 v=0
110980 On ch=1 n=43 v=56
111002 On ch=1 n=31 v=0
111042 On ch=1 n=43 v=0
111092 On ch=1 n=60 v=83
111098 On ch=1 n=32 v=72
111130 On ch=1 n=61 v=0
111134 On ch=1 n=63 v=0
111142 On ch=1 n=60 v=0
111186 On ch=1 n=44 v=60
111196 Par ch=1 c=64 v=0
111222 On ch=1 n=32 v=0
111282 On ch=1 n=73 v=73
111286 On ch=1 n=32 v=66
111290 On ch=1 n=44 v=0
111364 On ch=1 n=44 v=60
111376 On ch=1 n=73 v=0
111400 On ch=1 n=32 v=0
111466 On ch=1 n=32 v=57
111472 On ch=1 n=44 v=0
111486 On ch=1 n=72 v=66
111528 On ch=1 n=72 v=0
111556 On ch=1 n=44 v=58
111582 On ch=1 n=32 v=0
111656 On ch=1 n=32 v=46
111668 On ch=1 n=44 v=0
111674 On ch=1 n=79 v=80
111676 On ch=1 n=73 v=61
111722 On ch=1 n=73 v=0
111730 On ch=1 n=79 v=0
111748 On ch=1 n=44 v=55
111774 On ch=1 n=32 v=0
111850 On ch=1 n=32 v=42
111866 On ch=1 n=80 v=79
111872 On ch=1 n=44 v=0
111876 On ch=1 n=72 v=52
111908 On ch=1 n=80 v=0
111926 On ch=1 n=72 v=0
111940 On ch=1 n=44 v=62
111970 On ch=1 n=32 v=0
112038 On ch=1 n=32 v=52
112050 On ch=1 n=44 v=0
112050 On ch=1 n=85 v=77
112074 On ch=1 n=79 v=54
112100 On ch=1 n=85 v=0
112128 On ch=1 n=44 v=54
112132 On ch=1 n=79 v=0
112158 On ch=1 n=32 v=0
112222 On ch=1 n=32 v=55
112222 On ch=1 n=80 v=78
112230 On ch=1 n=84 v=87
112248 On ch=1 n=44 v=0
112298 On ch=1 n=80 v=0
112310 On ch=1 n=84 v=0
112310 On ch=1 n=44 v=68
112338 On ch=1 n=32 v=0
112402 On ch=1 n=85 v=94
112408 On ch=1 n=79 v=93
112412 On ch=1 n=32 v=55
112428 On ch=1 n=44 v=0
112454 On ch=1 n=79 v=0
112488 On ch=1 n=85 v=0
112494 On ch=1 n=44 v=69
112522 On ch=1 n=32 v=0
112606 On ch=1 n=84 v=110
112609 On ch=1 n=44 v=0
112609 On ch=1 n=32 v=58
112609 On ch=1 n=80 v=90
112672 Par ch=1 c=64 v=127
112694 On ch=1 n=44 v=59
112718 On ch=1 n=80 v=0
112720 On ch=1 n=32 v=0
112726 On ch=1 n=84 v=0
112794 On ch=1 n=32 v=62
112804 On ch=1 n=44 v=0
112824 Par ch=1 c=64 v=0
112870 On ch=1 n=44 v=78
112906 On ch=1 n=32 v=0
112976 On ch=1 n=44 v=0
112978 On ch=1 n=32 v=70
113056 On ch=1 n=44 v=84
113104 On ch=1 n=32 v=0
113162 On ch=1 n=32 v=80
113165 On ch=1 n=44 v=0
113238 On ch=1 n=44 v=83
113306 On ch=1 n=32 v=0
113352 On ch=1 n=66 v=97
113352 On ch=1 n=63 v=100
113356 On ch=1 n=60 v=102
113368 On ch=1 n=44 v=0
113368 On ch=1 n=33 v=103
113440 On ch=1 n=45 v=66
113484 On ch=1 n=33 v=0
113532 Par ch=1 c=64 v=127
113544 On ch=1 n=45 v=0
113558 On ch=1 n=33 v=73
113624 On ch=1 n=45 v=47
113666 On ch=1 n=33 v=0
113720 On ch=1 n=45 v=0
113738 On ch=1 n=33 v=75
113814 On ch=1 n=45 v=26
113852 On ch=1 n=33 v=0
113908 On ch=1 n=45 v=0
113934 On ch=1 n=33 v=65
113970 On ch=1 n=60 v=0
114024 On ch=1 n=45 v=57
114070 On ch=1 n=33 v=0
114086 On ch=1 n=63 v=0
114106 On ch=1 n=66 v=0
114116 On ch=1 n=45 v=0
114140 On ch=1 n=62 v=73
114140 On ch=1 n=65 v=80
114142 On ch=1 n=34 v=80
114180 On ch=1 n=62 v=0
114186 On ch=1 n=65 v=0
114232 On ch=1 n=46 v=69
114238 Par ch=1 c=64 v=0
114272 On ch=1 n=34 v=0
114326 On ch=1 n=75 v=84
114334 On ch=1 n=34 v=72
114346 On ch=1 n=46 v=0
114356 On ch=1 n=69 v=31
114384 On ch=1 n=71 v=12
114404 On ch=1 n=46 v=71
114434 On ch=1 n=71 v=0
114434 On ch=1 n=69 v=0
114460 On ch=1 n=75 v=0
114460 On ch=1 n=34 v=0
114506 On ch=1 n=70 v=73
114506 On ch=1 n=74 v=87
114518 On ch=1 n=34 v=76
114524 On ch=1 n=46 v=0
114558 On ch=1 n=70 v=0
114564 On ch=1 n=74 v=0
114588 On ch=1 n=46 v=67
114642 On ch=1 n=34 v=0
114698 On ch=1 n=81 v=92
114701 On ch=1 n=75 v=81
114701 On ch=1 n=34 v=70
114706 On ch=1 n=46 v=0
114742 On ch=1 n=75 v=0
114776 On ch=1 n=46 v=68
114792 On ch=1 n=81 v=0
114828 On ch=1 n=34 v=0
114886 On ch=1 n=82 v=95
114888 On ch=1 n=34 v=77
114891 On ch=1 n=46 v=0
114891 On ch=1 n=74 v=92
114924 On ch=1 n=74 v=0
114956 On ch=1 n=46 v=68
114968 On ch=1 n=82 v=0
115020 On ch=1 n=34 v=0
115072 On ch=1 n=87 v=93
115072 On ch=1 n=34 v=80
115075 On ch=1 n=81 v=95
115078 On ch=1 n=46 v=0
115110 On ch=1 n=81 v=0
115148 On ch=1 n=46 v=66
115172 On ch=1 n=87 v=0
115208 On ch=1 n=34 v=0
115260 On ch=1 n=82 v=92
115260 On ch=1 n=86 v=100
115263 On ch=1 n=34 v=76
115276 On ch=1 n=46 v=0
115332 On ch=1 n=82 v=0
115340 On ch=1 n=46 v=76
115370 On ch=1 n=86 v=0
115394 On ch=1 n=34 v=0
115438 On ch=1 n=81 v=97
115441 On ch=1 n=87 v=95
115450 On ch=1 n=34 v=79
115460 On ch=1 n=46 v=0
115516 On ch=1 n=81 v=0
115532 On ch=1 n=46 v=73
115536 On ch=1 n=87 v=0
115586 On ch=1 n=34 v=0
115630 On ch=1 n=86 v=104
115636 On ch=1 n=82 v=88
115646 On ch=1 n=34 v=79
115648 On ch=1 n=46 v=0
115726 On ch=1 n=46 v=66
115729 On ch=1 n=82 v=0
115740 On ch=1 n=86 v=0
115772 On ch=1 n=34 v=0
115830 On ch=1 n=34 v=77
115840 On ch=1 n=46 v=0
115908 On ch=1 n=46 v=65
115964 On ch=1 n=34 v=0
116022 On ch=1 n=34 v=73
116036 On ch=1 n=46 v=0
116036 On ch=1 n=81 v=101
116039 On ch=1 n=75 v=92
116082 Par ch=1 c=64 v=127
116112 On ch=1 n=46 v=57
116162 On ch=1 n=34 v=0
116222 On ch=1 n=34 v=68
116226 On ch=1 n=46 v=0
116308 On ch=1 n=46 v=59
116316 On ch=1 n=75 v=0
116352 On ch=1 n=34 v=0
116390 On ch=1 n=81 v=0
116414 On ch=1 n=46 v=0
116424 On ch=1 n=34 v=59
116427 On ch=1 n=82 v=83
116430 On ch=1 n=74 v=89
116492 On ch=1 n=74 v=0
116502 On ch=1 n=46 v=54
116526 On ch=1 n=82 v=0
116534 On ch=1 n=34 v=0
116610 On ch=1 n=46 v=0
116613 On ch=1 n=34 v=58
116636 Par ch=1 c=64 v=0
116698 On ch=1 n=46 v=65
116746 On ch=1 n=34 v=0
116808 On ch=1 n=34 v=65
116813 On ch=1 n=46 v=0
116828 On ch=1 n=75 v=95
116828 On ch=1 n=69 v=84
116884 On ch=1 n=46 v=58
116938 On ch=1 n=34 v=0
116988 Par ch=1 c=64 v=127
117000 On ch=1 n=46 v=0
117002 On ch=1 n=34 v=62
117088 On ch=1 n=46 v=45
117134 On ch=1 n=34 v=0
117188 On ch=1 n=69 v=0
117196 On ch=1 n=46 v=0
117210 On ch=1 n=34 v=58
117226 On ch=1 n=70 v=60
117230 On ch=1 n=75 v=0
117230 On ch=1 n=74 v=91
117302 On ch=1 n=46 v=64
117330 On ch=1 n=74 v=0
117333 On ch=1 n=34 v=0
117340 On ch=1 n=70 v=0
117414 On ch=1 n=46 v=0
117420 On ch=1 n=34 v=64
117466 Par ch=1 c=64 v=0
117502 On ch=1 n=46 v=72
117548 On ch=1 n=34 v=0
117628 On ch=1 n=46 v=0
117632 On ch=1 n=34 v=67
117640 On ch=1 n=69 v=89
117646 On ch=1 n=63 v=90
117728 On ch=1 n=46 v=57
117768 On ch=1 n=34 v=0
117852 On ch=1 n=46 v=0
117852 On ch=1 n=34 v=55
117864 Par ch=1 c=64 v=127
117944 On ch=1 n=46 v=55
117949 On ch=1 n=63 v=0
117966 On ch=1 n=34 v=0
118030 On ch=1 n=70 v=75
118033 On ch=1 n=62 v=75
118054 On ch=1 n=69 v=0
118062 On ch=1 n=46 v=0
118068 On ch=1 n=34 v=57
118160 On ch=1 n=46 v=48
118180 On ch=1 n=34 v=0
118183 On ch=1 n=62 v=0
118202 On ch=1 n=70 v=0
118248 Par ch=1 c=64 v=0
118258 On ch=1 n=34 v=62
118268 On ch=1 n=46 v=0
118358 On ch=1 n=46 v=50
118378 On ch=1 n=34 v=0
118444 On ch=1 n=63 v=86
118448 On ch=1 n=57 v=73
118458 On ch=1 n=34 v=55
118466 On ch=1 n=46 v=0
118548 On ch=1 n=46 v=47
118570 On ch=1 n=34 v=0
118616 Par ch=1 c=64 v=127
118654 On ch=1 n=46 v=0
118660 On ch=1 n=34 v=48
118758 On ch=1 n=46 v=50
118766 On ch=1 n=57 v=0
118776 On ch=1 n=34 v=0
118848 Par ch=1 c=64 v=0
118864 On ch=1 n=63 v=0
118868 On ch=1 n=58 v=47
118876 On ch=1 n=62 v=67
118876 On ch=1 n=34 v=47
118942 On ch=1 n=46 v=0
119066 On ch=1 n=62 v=0
119086 On ch=1 n=57 v=71
119094 Par ch=1 c=64 v=127
119112 On ch=1 n=58 v=0
119128 On ch=1 n=34 v=0
119276 On ch=1 n=58 v=61
119292 On ch=1 n=57 v=0
119354 Par ch=1 c=64 v=0
119476 On ch=1 n=57 v=56
119496 On ch=1 n=58 v=0
119688 On ch=1 n=58 v=49
119698 On ch=1 n=57 v=0
119894 On ch=1 n=57 v=40
119904 On ch=1 n=58 v=0
120104 On ch=1 n=57 v=0
120116 On ch=1 n=58 v=33
120336 On ch=1 n=57 v=39
120344 On ch=1 n=58 v=0
120580 On ch=1 n=57 v=0
120610 On ch=1 n=58 v=27
120816 On ch=1 n=46 v=47
120850 On ch=1 n=63 v=35
120866 On ch=1 n=66 v=19
120906 On ch=1 n=46 v=0
120909 On ch=1 n=63 v=0
120940 On ch=1 n=66 v=0
121016 On ch=1 n=51 v=57
121018 On ch=1 n=66 v=32
121024 On ch=1 n=63 v=16
121086 On ch=1 n=51 v=0
121094 On ch=1 n=66 v=0
121096 On ch=1 n=63 v=0
121206 On ch=1 n=53 v=79
121206 On ch=1 n=63 v=27
121209 On ch=1 n=66 v=21
121252 On ch=1 n=53 v=0
121314 On ch=1 n=58 v=0
121330 On ch=1 n=63 v=0
121330 On ch=1 n=66 v=0
121402 On ch=1 n=58 v=18
121410 On ch=1 n=54 v=60
121428 Par ch=1 c=64 v=127
121458 On ch=1 n=54 v=0
121568 Par ch=1 c=64 v=0
121616 On ch=1 n=70 v=65
121634 On ch=1 n=66 v=26
121648 On ch=1 n=63 v=32
121672 On ch=1 n=70 v=0
121700 On ch=1 n=66 v=0
121708 On ch=1 n=63 v=0
121800 On ch=1 n=66 v=29
121802 On ch=1 n=75 v=78
121812 On ch=1 n=63 v=30
121854 On ch=1 n=75 v=0
121878 On ch=1 n=63 v=0
121878 On ch=1 n=66 v=0
121992 On ch=1 n=77 v=81
122014 On ch=1 n=66 v=25
122022 On ch=1 n=63 v=32
122046 On ch=1 n=77 v=0
122070 On ch=1 n=58 v=0
122108 On ch=1 n=70 v=41
122126 On ch=1 n=63 v=0
122176 On ch=1 n=66 v=0
122190 On ch=1 n=78 v=75
122200 On ch=1 n=70 v=0
122200 On ch=1 n=58 v=29
122336 Par ch=1 c=64 v=127
122402 On ch=1 n=66 v=30
122436 On ch=1 n=63 v=32
122488 On ch=1 n=66 v=0
122496 On ch=1 n=63 v=0
122638 On ch=1 n=66 v=35
122660 On ch=1 n=63 v=22
122718 On ch=1 n=66 v=0
122720 On ch=1 n=58 v=0
122722 On ch=1 n=63 v=0
122802 On ch=1 n=75 v=56
122830 On ch=1 n=63 v=29
122838 On ch=1 n=78 v=0
122838 On ch=1 n=66 v=26
122904 On ch=1 n=75 v=0
122916 On ch=1 n=70 v=35
122922 On ch=1 n=63 v=0
122932 On ch=1 n=66 v=0
122966 Par ch=1 c=64 v=0
123002 On ch=1 n=78 v=57
123020 On ch=1 n=58 v=36
123044 On ch=1 n=70 v=0
123202 On ch=1 n=66 v=33
123232 On ch=1 n=63 v=30
123258 Par ch=1 c=64 v=127
123270 On ch=1 n=66 v=0
123290 On ch=1 n=63 v=0
123332 On ch=1 n=58 v=0
123410 On ch=1 n=66 v=33
123426 On ch=1 n=63 v=15
123480 On ch=1 n=66 v=0
123494 On ch=1 n=63 v=0
123626 On ch=1 n=63 v=21
123638 On ch=1 n=75 v=38
123640 On ch=1 n=66 v=21
123670 On ch=1 n=78 v=0
123698 On ch=1 n=63 v=0
123712 On ch=1 n=75 v=0
123722 On ch=1 n=66 v=0
123764 Par ch=1 c=64 v=0
123852 On ch=1 n=58 v=30
123856 On ch=1 n=74 v=56
123898 On ch=1 n=74 v=0
123980 Par ch=1 c=64 v=127
124106 On ch=1 n=68 v=26
124130 On ch=1 n=46 v=43
124146 On ch=1 n=65 v=15
124174 On ch=1 n=68 v=0
124190 On ch=1 n=46 v=0
124218 On ch=1 n=65 v=0
124256 Par ch=1 c=64 v=0
124308 On ch=1 n=68 v=35
124328 On ch=1 n=53 v=98
124332 On ch=1 n=65 v=13
124374 On ch=1 n=68 v=0
124402 On ch=1 n=65 v=0
124426 On ch=1 n=53 v=0
124530 On ch=1 n=54 v=86
124530 On ch=1 n=68 v=39
124596 On ch=1 n=58 v=0
124622 On ch=1 n=54 v=0
124625 On ch=1 n=68 v=0
124744 On ch=1 n=56 v=73
124750 On ch=1 n=58 v=38
124780 On ch=1 n=56 v=0
124810 Par ch=1 c=64 v=127
124948 On ch=1 n=70 v=74
124954 On ch=1 n=68 v=39
124978 Par ch=1 c=64 v=0
124984 On ch=1 n=65 v=30
125012 On ch=1 n=68 v=0
125042 On ch=1 n=65 v=0
125144 On ch=1 n=80 v=90
125168 On ch=1 n=68 v=45
125178 On ch=1 n=70 v=0
125199 On ch=1 n=65 v=20
125226 On ch=1 n=68 v=0
125262 On ch=1 n=65 v=0
125316 Par ch=1 c=64 v=127
125340 On ch=1 n=78 v=84
125356 On ch=1 n=65 v=23
125359 On ch=1 n=68 v=26
125392 On ch=1 n=78 v=0
125392 On ch=1 n=58 v=0
125392 On ch=1 n=80 v=0
125438 On ch=1 n=68 v=0
125454 On ch=1 n=65 v=0
125486 Par ch=1 c=64 v=0
125526 On ch=1 n=78 v=73
125552 On ch=1 n=58 v=33
125568 On ch=1 n=78 v=0
125574 On ch=1 n=80 v=75
125630 On ch=1 n=78 v=64
125694 On ch=1 n=80 v=0
125716 Par ch=1 c=64 v=127
125732 On ch=1 n=68 v=35
125732 On ch=1 n=77 v=79
125766 On ch=1 n=65 v=23
125782 On ch=1 n=78 v=0
125788 On ch=1 n=77 v=0
125794 On ch=1 n=68 v=0
125828 On ch=1 n=65 v=0
125900 Par ch=1 c=64 v=0
125930 On ch=1 n=77 v=75
125954 On ch=1 n=65 v=13
125954 On ch=1 n=68 v=31
125966 On ch=1 n=77 v=0
125980 On ch=1 n=78 v=75
126020 On ch=1 n=68 v=0
126024 On ch=1 n=65 v=0
126036 On ch=1 n=77 v=54
126100 On ch=1 n=78 v=0
126100 Par ch=1 c=64 v=127
126126 On ch=1 n=68 v=23
126138 On ch=1 n=75 v=69
126144 On ch=1 n=65 v=14
126166 On ch=1 n=77 v=0
126166 On ch=1 n=58 v=0
126180 On ch=1 n=75 v=0
126218 On ch=1 n=65 v=0
126232 On ch=1 n=68 v=0
126332 On ch=1 n=75 v=70
126346 Par ch=1 c=64 v=0
126358 On ch=1 n=58 v=32
126392 On ch=1 n=75 v=0
126408 On ch=1 n=77 v=63
126458 On ch=1 n=75 v=69
126474 On ch=1 n=77 v=0
126546 On ch=1 n=68 v=33
126556 On ch=1 n=74 v=71
126558 On ch=1 n=65 v=34
126590 On ch=1 n=75 v=0
126610 On ch=1 n=68 v=0
126612 On ch=1 n=65 v=0
126624 On ch=1 n=74 v=0
126638 Par ch=1 c=64 v=127
126740 On ch=1 n=68 v=29
126750 On ch=1 n=72 v=60
126778 On ch=1 n=65 v=16
126810 On ch=1 n=72 v=0
126820 On ch=1 n=68 v=0
126846 On ch=1 n=65 v=0
126850 On ch=1 n=58 v=0
126944 On ch=1 n=65 v=26
126952 On ch=1 n=68 v=33
126952 On ch=1 n=74 v=72
127002 On ch=1 n=74 v=0
127018 On ch=1 n=65 v=0
127064 On ch=1 n=68 v=0
127067 Par ch=1 c=64 v=0
127152 On ch=1 n=75 v=63
127160 On ch=1 n=58 v=34
127192 On ch=1 n=75 v=0
127268 Par ch=1 c=64 v=127
127372 On ch=1 n=66 v=29
127384 On ch=1 n=63 v=41
127388 On ch=1 n=46 v=45
127434 Par ch=1 c=64 v=0
127438 On ch=1 n=66 v=0
127443 On ch=1 n=63 v=0
127446 On ch=1 n=46 v=0
127546 On ch=1 n=51 v=62
127552 On ch=1 n=66 v=34
127570 On ch=1 n=63 v=29
127618 On ch=1 n=51 v=0
127624 On ch=1 n=66 v=0
127630 On ch=1 n=63 v=0
127742 On ch=1 n=53 v=89
127754 On ch=1 n=66 v=32
127766 On ch=1 n=63 v=32
127784 On ch=1 n=53 v=0
127832 On ch=1 n=58 v=0
127832 On ch=1 n=66 v=0
127832 On ch=1 n=63 v=0
127946 On ch=1 n=54 v=69
127962 On ch=1 n=58 v=29
127990 On ch=1 n=54 v=0
128134 On ch=1 n=70 v=69
128156 On ch=1 n=66 v=38
128162 On ch=1 n=63 v=46
128196 On ch=1 n=70 v=0
128216 On ch=1 n=66 v=0
128219 On ch=1 n=63 v=0
128312 On ch=1 n=75 v=79
128326 On ch=1 n=66 v=37
128350 On ch=1 n=63 v=37
128402 On ch=1 n=66 v=0
128408 On ch=1 n=63 v=0
128422 On ch=1 n=75 v=0
128504 On ch=1 n=77 v=85
128526 On ch=1 n=63 v=47
128528 On ch=1 n=66 v=34
128590 On ch=1 n=77 v=0
128600 On ch=1 n=63 v=0
128628 On ch=1 n=66 v=0
128630 On ch=1 n=70 v=53
128632 On ch=1 n=58 v=0
128702 On ch=1 n=70 v=0
128705 On ch=1 n=58 v=34
128712 On ch=1 n=78 v=84
128866 Par ch=1 c=64 v=127
128926 On ch=1 n=66 v=27
128950 On ch=1 n=63 v=26
129002 On ch=1 n=66 v=0
129014 On ch=1 n=63 v=0
129126 On ch=1 n=63 v=27
129126 On ch=1 n=66 v=27
129198 On ch=1 n=63 v=0
129208 On ch=1 n=66 v=0
129210 On ch=1 n=58 v=0
129310 On ch=1 n=75 v=59
129334 On ch=1 n=66 v=20
129336 On ch=1 n=78 v=0
129338 On ch=1 n=63 v=34
129406 On ch=1 n=63 v=0
129410 On ch=1 n=75 v=0
129426 On ch=1 n=66 v=0
129432 On ch=1 n=70 v=36
129466 Par ch=1 c=64 v=0
129506 On ch=1 n=78 v=68
129509 On ch=1 n=70 v=0
129513 On ch=1 n=58 v=45
129712 On ch=1 n=66 v=28
129728 On ch=1 n=63 v=36
129780 On ch=1 n=66 v=0
129784 On ch=1 n=63 v=0
129788 Par ch=1 c=64 v=127
129920 On ch=1 n=63 v=26
129925 On ch=1 n=66 v=18
129984 On ch=1 n=63 v=0
130000 On ch=1 n=66 v=0
130132 On ch=1 n=75 v=47
130146 On ch=1 n=78 v=0
130149 On ch=1 n=66 v=13
130182 On ch=1 n=63 v=27
130210 On ch=1 n=75 v=0
130244 On ch=1 n=66 v=0
130252 On ch=1 n=63 v=0
130320 On ch=1 n=58 v=0
130326 Par ch=1 c=64 v=0
130360 On ch=1 n=56 v=31
130390 On ch=1 n=72 v=35
130448 On ch=1 n=72 v=0
130510 Par ch=1 c=64 v=127
130646 On ch=1 n=44 v=73
130648 On ch=1 n=66 v=20
130660 On ch=1 n=63 v=32
130702 On ch=1 n=44 v=0
130722 On ch=1 n=63 v=0
130724 On ch=1 n=66 v=0
130770 Par ch=1 c=64 v=0
130864 On ch=1 n=51 v=68
130866 On ch=1 n=66 v=26
130888 On ch=1 n=63 v=29
130936 On ch=1 n=66 v=0
130948 On ch=1 n=63 v=0
130968 On ch=1 n=51 v=0
131064 On ch=1 n=53 v=89
131072 On ch=1 n=66 v=24
131104 On ch=1 n=63 v=11
131116 On ch=1 n=53 v=0
131132 On ch=1 n=56 v=0
131166 On ch=1 n=66 v=0
131180 On ch=1 n=63 v=0
131248 On ch=1 n=54 v=78
131262 Par ch=1 c=64 v=127
131280 On ch=1 n=56 v=41
131312 On ch=1 n=54 v=0
131462 On ch=1 n=68 v=79
131492 Par ch=1 c=64 v=0
131492 On ch=1 n=63 v=40
131495 On ch=1 n=66 v=28
131548 On ch=1 n=63 v=0
131560 On ch=1 n=66 v=0
131650 On ch=1 n=78 v=86
131656 On ch=1 n=68 v=0
131656 On ch=1 n=66 v=30
131678 On ch=1 n=63 v=36
131736 On ch=1 n=63 v=0
131742 On ch=1 n=66 v=0
131770 Par ch=1 c=64 v=127
131840 On ch=1 n=78 v=0
131843 On ch=1 n=77 v=88
131862 On ch=1 n=66 v=29
131876 On ch=1 n=56 v=0
131879 On ch=1 n=63 v=35
131908 On ch=1 n=77 v=0
131948 On ch=1 n=63 v=0
131960 On ch=1 n=66 v=0
131984 Par ch=1 c=64 v=0
132032 On ch=1 n=77 v=73
132046 On ch=1 n=56 v=40
132070 On ch=1 n=77 v=0
132082 On ch=1 n=78 v=73
132132 On ch=1 n=77 v=69
132194 On ch=1 n=78 v=0
132230 Par ch=1 c=64 v=127
132242 On ch=1 n=66 v=28
132246 On ch=1 n=75 v=77
132264 On ch=1 n=63 v=34
132276 On ch=1 n=77 v=0
132304 On ch=1 n=75 v=0
132312 On ch=1 n=66 v=0
132322 On ch=1 n=63 v=0
132430 Par ch=1 c=64 v=0
132446 On ch=1 n=75 v=73
132460 On ch=1 n=66 v=28
132482 On ch=1 n=63 v=18
132488 On ch=1 n=75 v=0
132508 On ch=1 n=77 v=61
132534 On ch=1 n=66 v=0
132548 On ch=1 n=63 v=0
132568 On ch=1 n=75 v=58
132586 On ch=1 n=77 v=0
132642 On ch=1 n=63 v=35
132644 On ch=1 n=66 v=23
132658 On ch=1 n=73 v=65
132662 Par ch=1 c=64 v=127
132672 On ch=1 n=56 v=0
132694 On ch=1 n=75 v=0
132712 On ch=1 n=73 v=0
132724 On ch=1 n=63 v=0
132758 On ch=1 n=66 v=0
132800 Par ch=1 c=64 v=0
132854 On ch=1 n=73 v=57
132870 On ch=1 n=56 v=44
132898 On ch=1 n=73 v=0
132904 On ch=1 n=75 v=62
132962 On ch=1 n=73 v=50
132992 On ch=1 n=75 v=0
133048 On ch=1 n=66 v=32
133054 On ch=1 n=72 v=63
133054 On ch=1 n=63 v=42
133086 On ch=1 n=73 v=0
133092 Par ch=1 c=64 v=127
133110 On ch=1 n=63 v=0
133118 On ch=1 n=66 v=0
133128 On ch=1 n=72 v=0
133238 On ch=1 n=70 v=54
133252 On ch=1 n=66 v=28
133288 On ch=1 n=63 v=34
133304 On ch=1 n=70 v=0
133318 On ch=1 n=66 v=0
133346 On ch=1 n=63 v=0
133398 Par ch=1 c=64 v=0
133438 On ch=1 n=63 v=32
133448 On ch=1 n=72 v=54
133456 On ch=1 n=66 v=21
133472 On ch=1 n=56 v=0
133506 On ch=1 n=72 v=0
133540 On ch=1 n=63 v=0
133566 On ch=1 n=66 v=0
133640 On ch=1 n=73 v=64
133668 On ch=1 n=56 v=34
133674 Par ch=1 c=64 v=127
133820 On ch=1 n=73 v=0
133850 On ch=1 n=44 v=78
133870 On ch=1 n=61 v=36
133880 On ch=1 n=65 v=28
133890 Par ch=1 c=64 v=0
133894 On ch=1 n=44 v=0
133932 On ch=1 n=61 v=0
133940 On ch=1 n=65 v=0
134046 On ch=1 n=65 v=26
134046 On ch=1 n=49 v=70
134054 On ch=1 n=61 v=29
134104 On ch=1 n=49 v=0
134116 On ch=1 n=61 v=0
134118 On ch=1 n=65 v=0
134248 On ch=1 n=51 v=62
134250 On ch=1 n=61 v=28
134254 On ch=1 n=65 v=34
134292 On ch=1 n=56 v=0
134314 On ch=1 n=51 v=0
134326 On ch=1 n=61 v=0
134364 On ch=1 n=65 v=0
134444 Par ch=1 c=64 v=127
134447 On ch=1 n=56 v=54
134451 On ch=1 n=53 v=68
134500 On ch=1 n=53 v=0
134628 Par ch=1 c=64 v=0
134640 On ch=1 n=68 v=68
134652 On ch=1 n=61 v=40
134652 On ch=1 n=65 v=38
134708 On ch=1 n=65 v=0
134708 On ch=1 n=68 v=0
134711 On ch=1 n=61 v=0
134816 On ch=1 n=73 v=75
134822 On ch=1 n=65 v=32
134828 On ch=1 n=61 v=35
134890 On ch=1 n=73 v=0
134894 On ch=1 n=61 v=0
134896 On ch=1 n=65 v=0
134990 On ch=1 n=75 v=84
135012 On ch=1 n=65 v=30
135014 On ch=1 n=61 v=34
135064 On ch=1 n=56 v=0
135068 On ch=1 n=75 v=0
135112 On ch=1 n=61 v=0
135130 On ch=1 n=68 v=58
135132 On ch=1 n=65 v=0
135216 On ch=1 n=68 v=0
135216 On ch=1 n=56 v=38
135216 On ch=1 n=77 v=84
135412 Par ch=1 c=64 v=127
135415 On ch=1 n=61 v=36
135430 On ch=1 n=65 v=22
135488 On ch=1 n=61 v=0
135508 On ch=1 n=65 v=0
135570 On ch=1 n=56 v=0
135642 On ch=1 n=65 v=25
135666 On ch=1 n=61 v=28
135726 On ch=1 n=65 v=0
135736 On ch=1 n=61 v=0
135814 On ch=1 n=77 v=0
135834 On ch=1 n=73 v=43
135834 On ch=1 n=61 v=29
135844 On ch=1 n=65 v=31
135918 On ch=1 n=61 v=0
135926 On ch=1 n=73 v=0
135928 On ch=1 n=65 v=0
135968 On ch=1 n=68 v=40
135980 Par ch=1 c=64 v=0
136030 On ch=1 n=68 v=0
136044 On ch=1 n=56 v=42
136064 On ch=1 n=77 v=66
136242 On ch=1 n=65 v=29
136250 On ch=1 n=61 v=30
136302 Par ch=1 c=64 v=127
136318 On ch=1 n=61 v=0
136320 On ch=1 n=65 v=0
136360 On ch=1 n=56 v=0
136466 On ch=1 n=65 v=25
136466 On ch=1 n=61 v=24
136536 On ch=1 n=65 v=0
136546 On ch=1 n=61 v=0
136668 On ch=1 n=61 v=34
136674 On ch=1 n=73 v=46
136680 On ch=1 n=65 v=17
136692 On ch=1 n=77 v=0
136750 On ch=1 n=61 v=0
136780 On ch=1 n=73 v=0
136783 On ch=1 n=65 v=0
136840 Par ch=1 c=64 v=0
136894 On ch=1 n=72 v=46
136908 On ch=1 n=56 v=32
136944 On ch=1 n=72 v=0
137026 Par ch=1 c=64 v=127
137164 On ch=1 n=44 v=69
137176 On ch=1 n=63 v=29
137179 On ch=1 n=66 v=10
137214 On ch=1 n=44 v=0
137240 On ch=1 n=63 v=0
137246 On ch=1 n=66 v=0
137302 Par ch=1 c=64 v=0
137360 On ch=1 n=66 v=26
137364 On ch=1 n=51 v=64
137390 On ch=1 n=63 v=27
137441 On ch=1 n=51 v=0
137441 On ch=1 n=66 v=0
137450 On ch=1 n=63 v=0
137562 On ch=1 n=66 v=29
137568 On ch=1 n=53 v=88
137568 On ch=1 n=63 v=25
137610 On ch=1 n=56 v=0
137620 On ch=1 n=53 v=0
137636 On ch=1 n=63 v=0
137672 On ch=1 n=66 v=0
137772 On ch=1 n=56 v=54
137775 On ch=1 n=54 v=81
137792 Par ch=1 c=64 v=127
137806 On ch=1 n=54 v=0
137980 On ch=1 n=68 v=78
137990 On ch=1 n=66 v=37
137992 Par ch=1 c=64 v=0
137994 On ch=1 n=63 v=42
138048 On ch=1 n=63 v=0
138054 On ch=1 n=66 v=0
138160 On ch=1 n=68 v=0
138168 On ch=1 n=78 v=84
138186 On ch=1 n=66 v=34
138212 On ch=1 n=63 v=33
138268 On ch=1 n=63 v=0
138268 On ch=1 n=66 v=0
138268 Par ch=1 c=64 v=127
138348 On ch=1 n=78 v=0
138358 On ch=1 n=77 v=89
138364 On ch=1 n=56 v=0
138390 On ch=1 n=66 v=27
138392 On ch=1 n=63 v=29
138446 On ch=1 n=77 v=0
138464 On ch=1 n=63 v=0
138476 On ch=1 n=66 v=0
138556 On ch=1 n=77 v=67
138582 On ch=1 n=56 v=43
138606 On ch=1 n=77 v=0
138606 On ch=1 n=78 v=79
138654 Par ch=1 c=64 v=0
138678 On ch=1 n=77 v=77
138744 On ch=1 n=78 v=0
138764 On ch=1 n=66 v=32
138786 On ch=1 n=75 v=73
138789 On ch=1 n=63 v=37
138838 On ch=1 n=66 v=0
138840 On ch=1 n=77 v=0
138844 On ch=1 n=63 v=0
138868 Par ch=1 c=64 v=127
138896 On ch=1 n=75 v=0
138970 On ch=1 n=75 v=67
138996 On ch=1 n=66 v=31
139008 On ch=1 n=63 v=26
139044 On ch=1 n=77 v=76
139048 On ch=1 n=75 v=0
139064 On ch=1 n=66 v=0
139070 On ch=1 n=63 v=0
139114 On ch=1 n=75 v=79
139150 On ch=1 n=77 v=0
139186 On ch=1 n=63 v=30
139186 On ch=1 n=66 v=27
139189 On ch=1 n=73 v=68
139214 On ch=1 n=56 v=0
139240 On ch=1 n=75 v=0
139252 On ch=1 n=63 v=0
139260 On ch=1 n=73 v=0
139262 On ch=1 n=66 v=0
139344 Par ch=1 c=64 v=0
139370 On ch=1 n=73 v=57
139382 On ch=1 n=56 v=45
139416 On ch=1 n=73 v=0
139426 On ch=1 n=75 v=64
139480 On ch=1 n=73 v=51
139540 On ch=1 n=75 v=0
139574 On ch=1 n=66 v=32
139584 On ch=1 n=72 v=68
139606 On ch=1 n=63 v=37
139614 On ch=1 n=73 v=0
139622 Par ch=1 c=64 v=127
139644 On ch=1 n=66 v=0
139662 On ch=1 n=63 v=0
139680 On ch=1 n=72 v=0
139768 On ch=1 n=70 v=62
139796 On ch=1 n=66 v=43
139822 On ch=1 n=63 v=32
139870 On ch=1 n=66 v=0
139878 On ch=1 n=63 v=0
139888 On ch=1 n=70 v=0
139976 On ch=1 n=63 v=33
139982 On ch=1 n=66 v=31
139982 On ch=1 n=72 v=68
140048 On ch=1 n=63 v=0
140060 On ch=1 n=72 v=0
140072 On ch=1 n=66 v=0
140184 On ch=1 n=56 v=0
140196 On ch=1 n=73 v=51
140202 On ch=1 n=61 v=66
140242 On ch=1 n=73 v=0
140424 On ch=1 n=68 v=44
140438 On ch=1 n=49 v=76
140452 On ch=1 n=65 v=33
140498 Par ch=1 c=64 v=0
140598 On ch=1 n=65 v=0
140610 On ch=1 n=68 v=0
140668 On ch=1 n=56 v=67
140684 On ch=1 n=49 v=0
140702 On ch=1 n=59 v=46
140705 On ch=1 n=61 v=0
140908 On ch=1 n=47 v=70
140912 Par ch=1 c=64 v=127
140918 On ch=1 n=56 v=0
140926 On ch=1 n=68 v=33
140946 On ch=1 n=65 v=29
141022 On ch=1 n=68 v=0
141026 On ch=1 n=65 v=0
141058 On ch=1 n=59 v=0
141096 Par ch=1 c=64 v=0
141138 On ch=1 n=47 v=0
141152 On ch=1 n=46 v=68
141178 On ch=1 n=58 v=38
141242 On ch=1 n=46 v=0
141326 Par ch=1 c=64 v=127
141416 On ch=1 n=70 v=79
141424 On ch=1 n=68 v=26
141490 On ch=1 n=68 v=0
141634 Par ch=1 c=64 v=0
141644 On ch=1 n=70 v=0
141654 On ch=1 n=80 v=81
141656 On ch=1 n=68 v=40
141732 On ch=1 n=68 v=0
141852 On ch=1 n=78 v=75
141864 Par ch=1 c=64 v=127
141886 On ch=1 n=68 v=39
141886 On ch=1 n=65 v=22
141894 On ch=1 n=80 v=0
141900 On ch=1 n=78 v=0
141928 On ch=1 n=58 v=0
141960 On ch=1 n=68 v=0
141962 On ch=1 n=65 v=0
142004 Par ch=1 c=64 v=0
142042 On ch=1 n=78 v=66
142074 On ch=1 n=58 v=35
142084 On ch=1 n=78 v=0
142098 On ch=1 n=80 v=68
142148 On ch=1 n=78 v=50
142216 On ch=1 n=80 v=0
142260 On ch=1 n=68 v=32
142262 On ch=1 n=77 v=78
142280 Par ch=1 c=64 v=127
142288 On ch=1 n=65 v=27
142306 On ch=1 n=78 v=0
142324 On ch=1 n=77 v=0
142324 On ch=1 n=68 v=0
142348 On ch=1 n=65 v=0
142474 On ch=1 n=77 v=73
142484 On ch=1 n=68 v=38
142514 On ch=1 n=77 v=0
142528 On ch=1 n=65 v=13
142530 On ch=1 n=78 v=66
142546 On ch=1 n=68 v=0
142586 On ch=1 n=77 v=58
142602 On ch=1 n=65 v=0
142634 On ch=1 n=58 v=0
142656 On ch=1 n=78 v=0
142686 On ch=1 n=65 v=34
142690 On ch=1 n=68 v=39
142690 On ch=1 n=75 v=69
142722 On ch=1 n=77 v=0
142740 On ch=1 n=75 v=0
142750 On ch=1 n=68 v=0
142750 On ch=1 n=65 v=0
142832 Par ch=1 c=64 v=0
142894 On ch=1 n=75 v=59
142900 On ch=1 n=58 v=55
142948 On ch=1 n=75 v=0
142958 On ch=1 n=77 v=66
143008 On ch=1 n=75 v=71
143032 On ch=1 n=77 v=0
143074 On ch=1 n=68 v=47
143098 On ch=1 n=65 v=40
143104 On ch=1 n=74 v=69
143132 On ch=1 n=68 v=0
143136 On ch=1 n=75 v=0
143140 Par ch=1 c=64 v=127
143150 On ch=1 n=65 v=0
143214 On ch=1 n=74 v=0
143280 On ch=1 n=68 v=55
143284 On ch=1 n=72 v=67
143330 On ch=1 n=65 v=31
143350 On ch=1 n=68 v=0
143366 On ch=1 n=72 v=0
143388 On ch=1 n=65 v=0
143488 On ch=1 n=65 v=31
143488 On ch=1 n=68 v=56
143488 On ch=1 n=74 v=84
143546 On ch=1 n=68 v=0
143546 On ch=1 n=65 v=0
143576 On ch=1 n=74 v=0
143678 Par ch=1 c=64 v=0
143706 On ch=1 n=75 v=64
143706 On ch=1 n=63 v=82
143744 On ch=1 n=75 v=0
143782 On ch=1 n=58 v=0
143878 Par ch=1 c=64 v=127
143930 On ch=1 n=70 v=41
143940 On ch=1 n=51 v=86
143972 On ch=1 n=66 v=35
144016 Par ch=1 c=64 v=0
144044 On ch=1 n=70 v=0
144056 On ch=1 n=66 v=0
144172 On ch=1 n=58 v=65
144186 On ch=1 n=51 v=0
144192 On ch=1 n=61 v=55
144206 On ch=1 n=63 v=0
144418 On ch=1 n=49 v=74
144430 Par ch=1 c=64 v=127
144432 On ch=1 n=70 v=23
144466 On ch=1 n=66 v=21
144484 On ch=1 n=58 v=0
144542 On ch=1 n=70 v=0
144545 On ch=1 n=66 v=0
144622 On ch=1 n=61 v=0
144630 Par ch=1 c=64 v=0
144668 On ch=1 n=49 v=0
144686 On ch=1 n=48 v=66
144700 On ch=1 n=60 v=62
144796 On ch=1 n=48 v=0
144862 Par ch=1 c=64 v=127
145012 On ch=1 n=72 v=75
145015 On ch=1 n=70 v=30
145052 On ch=1 n=67 v=27
145086 On ch=1 n=70 v=0
145124 On ch=1 n=67 v=0
145230 Par ch=1 c=64 v=0
145242 On ch=1 n=72 v=0
145256 On ch=1 n=82 v=83
145268 On ch=1 n=70 v=31
145318 On ch=1 n=67 v=27
145340 On ch=1 n=70 v=0
145388 On ch=1 n=67 v=0
145460 Par ch=1 c=64 v=127
145468 On ch=1 n=80 v=86
145496 On ch=1 n=67 v=18
145499 On ch=1 n=70 v=32
145528 On ch=1 n=82 v=0
145544 On ch=1 n=60 v=0
145560 On ch=1 n=80 v=0
145578 On ch=1 n=70 v=0
145584 On ch=1 n=67 v=0
145676 Par ch=1 c=64 v=0
145679 On ch=1 n=80 v=68
145712 On ch=1 n=60 v=45
145716 On ch=1 n=80 v=0
145736 On ch=1 n=82 v=58
145782 On ch=1 n=80 v=49
145868 On ch=1 n=82 v=0
145890 On ch=1 n=70 v=26
145892 On ch=1 n=79 v=87
145900 On ch=1 n=67 v=37
145920 Par ch=1 c=64 v=127
145946 On ch=1 n=80 v=0
145958 On ch=1 n=70 v=0
145966 On ch=1 n=67 v=0
145976 On ch=1 n=79 v=0
146104 On ch=1 n=70 v=30
146110 On ch=1 n=79 v=72
146152 On ch=1 n=79 v=0
146152 On ch=1 n=67 v=15
146162 On ch=1 n=80 v=75
146176 On ch=1 n=70 v=0
146218 On ch=1 n=79 v=66
146222 On ch=1 n=67 v=0
146294 On ch=1 n=80 v=0
146310 On ch=1 n=70 v=30
146318 On ch=1 n=77 v=73
146321 On ch=1 n=67 v=24
146340 On ch=1 n=60 v=0
146360 On ch=1 n=79 v=0
146362 On ch=1 n=77 v=0
146384 On ch=1 n=70 v=0
146394 On ch=1 n=67 v=0
146490 Par ch=1 c=64 v=0
146516 On ch=1 n=77 v=74
146522 On ch=1 n=60 v=58
146552 On ch=1 n=77 v=0
146574 On ch=1 n=79 v=82
146632 On ch=1 n=77 v=56
146706 On ch=1 n=79 v=0
146714 On ch=1 n=70 v=31
146726 On ch=1 n=76 v=60
146734 Par ch=1 c=64 v=127
146739 On ch=1 n=67 v=32
146782 On ch=1 n=77 v=0
146784 On ch=1 n=70 v=0
146804 On ch=1 n=67 v=0
146836 On ch=1 n=76 v=0
146918 On ch=1 n=74 v=73
146932 On ch=1 n=70 v=46
146986 On ch=1 n=67 v=27
146996 On ch=1 n=70 v=0
146996 On ch=1 n=74 v=0
147056 On ch=1 n=67 v=0
147122 On ch=1 n=76 v=73
147132 On ch=1 n=67 v=39
147135 On ch=1 n=70 v=42
147160 On ch=1 n=76 v=0
147192 On ch=1 n=70 v=0
147196 On ch=1 n=67 v=0
147282 On ch=1 n=60 v=0
147304 Par ch=1 c=64 v=0
147342 On ch=1 n=79 v=81
147346 On ch=1 n=65 v=66
147384 On ch=1 n=79 v=0
147408 On ch=1 n=80 v=60
147470 On ch=1 n=79 v=51
147554 On ch=1 n=80 v=0
147554 On ch=1 n=68 v=47
147557 On ch=1 n=72 v=36
147562 On ch=1 n=77 v=69
147586 On ch=1 n=79 v=0
147608 On ch=1 n=77 v=0
147610 Par ch=1 c=64 v=127
147620 On ch=1 n=72 v=0
147622 On ch=1 n=68 v=0
147756 On ch=1 n=77 v=60
147760 On ch=1 n=72 v=32
147784 On ch=1 n=68 v=44
147796 On ch=1 n=77 v=0
147810 On ch=1 n=79 v=78
147834 On ch=1 n=72 v=0
147846 On ch=1 n=68 v=0
147862 On ch=1 n=77 v=62
147896 On ch=1 n=79 v=0
147950 On ch=1 n=75 v=69
147966 On ch=1 n=72 v=37
147974 On ch=1 n=77 v=0
148006 On ch=1 n=68 v=35
148012 On ch=1 n=75 v=0
148018 On ch=1 n=72 v=0
148064 On ch=1 n=68 v=0
148078 On ch=1 n=65 v=0
148150 Par ch=1 c=64 v=0
148166 On ch=1 n=75 v=58
148172 On ch=1 n=58 v=61
148218 On ch=1 n=75 v=0
148224 On ch=1 n=77 v=67
148290 On ch=1 n=75 v=52
148358 On ch=1 n=77 v=0
148376 On ch=1 n=68 v=46
148388 On ch=1 n=74 v=66
148394 On ch=1 n=65 v=50
148426 Par ch=1 c=64 v=127
148436 On ch=1 n=75 v=0
148464 On ch=1 n=65 v=0
148464 On ch=1 n=68 v=0
148467 On ch=1 n=74 v=0
148482 On ch=1 n=58 v=0
148584 On ch=1 n=72 v=59
148596 On ch=1 n=59 v=59
148610 Par ch=1 c=64 v=0
148686 On ch=1 n=72 v=0
148784 On ch=1 n=74 v=74
148812 On ch=1 n=68 v=28
148852 On ch=1 n=74 v=0
148856 Par ch=1 c=64 v=127
148894 On ch=1 n=68 v=0
148994 Par ch=1 c=64 v=0
149002 On ch=1 n=77 v=63
149040 On ch=1 n=77 v=0
149040 On ch=1 n=60 v=50
149064 On ch=1 n=79 v=57
149094 On ch=1 n=59 v=0
149114 On ch=1 n=77 v=46
149176 On ch=1 n=79 v=0
149222 On ch=1 n=75 v=54
149248 On ch=1 n=67 v=39
149248 On ch=1 n=63 v=41
149260 On ch=1 n=77 v=0
149298 On ch=1 n=75 v=0
149310 On ch=1 n=63 v=0
149320 On ch=1 n=67 v=0
149348 Par ch=1 c=64 v=127
149430 On ch=1 n=75 v=58
149448 On ch=1 n=67 v=31
149468 On ch=1 n=63 v=30
149476 On ch=1 n=75 v=0
149500 On ch=1 n=77 v=45
149524 On ch=1 n=67 v=0
149526 On ch=1 n=63 v=0
149538 On ch=1 n=75 v=58
149558 On ch=1 n=77 v=0
149626 On ch=1 n=67 v=41
149642 On ch=1 n=74 v=62
149656 On ch=1 n=63 v=22
149674 On ch=1 n=75 v=0
149683 On ch=1 n=74 v=0
149734 On ch=1 n=67 v=0
149742 On ch=1 n=63 v=0
149762 Par ch=1 c=64 v=0
149842 On ch=1 n=56 v=55
149858 On ch=1 n=74 v=28
149894 On ch=1 n=75 v=51
149896 On ch=1 n=74 v=0
149930 On ch=1 n=74 v=28
149932 On ch=1 n=60 v=0
149946 On ch=1 n=75 v=0
150008 On ch=1 n=74 v=0
150038 On ch=1 n=65 v=36
150050 On ch=1 n=63 v=44
150054 Par ch=1 c=64 v=127
150058 On ch=1 n=72 v=44
150100 On ch=1 n=65 v=0
150106 On ch=1 n=63 v=0
150114 On ch=1 n=72 v=0
150250 On ch=1 n=72 v=33
150272 On ch=1 n=65 v=30
150290 On ch=1 n=63 v=36
150308 On ch=1 n=72 v=0
150312 On ch=1 n=74 v=53
150332 On ch=1 n=65 v=0
150346 On ch=1 n=63 v=0
150372 On ch=1 n=74 v=0
150378 On ch=1 n=72 v=50
150454 Par ch=1 c=64 v=0
150460 On ch=1 n=63 v=32
150460 On ch=1 n=65 v=24
150470 On ch=1 n=71 v=59
150473 On ch=1 n=72 v=0
150520 On ch=1 n=71 v=0
150526 On ch=1 n=63 v=0
150570 On ch=1 n=65 v=0
150678 On ch=1 n=72 v=58
150681 On ch=1 n=58 v=50
150726 On ch=1 n=72 v=0
150754 On ch=1 n=74 v=46
150780 On ch=1 n=56 v=0
150806 On ch=1 n=72 v=37
150822 On ch=1 n=74 v=0
150908 On ch=1 n=70 v=41
150910 On ch=1 n=67 v=37
150918 On ch=1 n=63 v=38
150928 On ch=1 n=72 v=0
150980 On ch=1 n=63 v=0
150988 On ch=1 n=67 v=0
151008 On ch=1 n=70 v=0
151038 Par ch=1 c=64 v=127
151100 On ch=1 n=70 v=38
151146 On ch=1 n=67 v=25
151168 On ch=1 n=63 v=19
151218 On ch=1 n=70 v=0
151232 On ch=1 n=63 v=0
151234 On ch=1 n=67 v=0
151326 On ch=1 n=70 v=37
151342 On ch=1 n=67 v=34
151352 On ch=1 n=63 v=23
151390 On ch=1 n=70 v=0
151442 On ch=1 n=58 v=0
151506 On ch=1 n=63 v=0
151509 On ch=1 n=67 v=0
151514 Par ch=1 c=64 v=0
151574 On ch=1 n=72 v=37
151580 On ch=1 n=58 v=21
151640 On ch=1 n=72 v=0
151642 On ch=1 n=74 v=51
151696 On ch=1 n=74 v=0
151736 On ch=1 n=72 v=32
151802 On ch=1 n=62 v=27
151808 On ch=1 n=65 v=32
151810 On ch=1 n=72 v=0
151814 On ch=1 n=70 v=33
151878 On ch=1 n=65 v=0
151902 On ch=1 n=62 v=0
151936 On ch=1 n=70 v=0
151944 Par ch=1 c=64 v=127
152050 On ch=1 n=70 v=26
152066 On ch=1 n=65 v=22
152106 On ch=1 n=62 v=18
152146 On ch=1 n=65 v=0
152172 On ch=1 n=70 v=0
152182 On ch=1 n=62 v=0
152360 On ch=1 n=70 v=27
152366 On ch=1 n=65 v=24
152392 On ch=1 n=62 v=15
152436 On ch=1 n=65 v=0
152462 On ch=1 n=70 v=0
152464 On ch=1 n=62 v=0
152504 On ch=1 n=58 v=0
152690 On ch=1 n=51 v=41
152712 Par ch=1 c=64 v=0
152846 On ch=1 n=63 v=34
152862 On ch=1 n=58 v=34
152952 On ch=1 n=58 v=0
152962 On ch=1 n=63 v=0
152988 On ch=1 n=55 v=22
152994 On ch=1 n=67 v=32
153004 Par ch=1 c=64 v=127
153064 On ch=1 n=55 v=0
153094 On ch=1 n=63 v=35
153102 On ch=1 n=58 v=23
153148 On ch=1 n=67 v=0
153160 On ch=1 n=63 v=0
153196 On ch=1 n=58 v=0
153200 On ch=1 n=75 v=65
153332 On ch=1 n=63 v=35
153366 On ch=1 n=58 v=19
153396 On ch=1 n=63 v=0
153434 On ch=1 n=55 v=34
153434 On ch=1 n=67 v=31
153444 On ch=1 n=58 v=0
153502 On ch=1 n=55 v=0
153510 On ch=1 n=67 v=0
153510 On ch=1 n=63 v=30
153538 On ch=1 n=58 v=25
153606 On ch=1 n=63 v=0
153632 On ch=1 n=58 v=0
153648 On ch=1 n=55 v=10
153672 On ch=1 n=67 v=15
153724 On ch=1 n=55 v=0
153742 On ch=1 n=63 v=33
153742 On ch=1 n=58 v=20
153753 On ch=1 n=67 v=0
153836 On ch=1 n=63 v=0
153862 On ch=1 n=58 v=0
153898 On ch=1 n=67 v=11
153916 On ch=1 n=55 v=4
153938 On ch=1 n=51 v=0
153940 On ch=1 n=75 v=0
153978 On ch=1 n=58 v=16
153982 On ch=1 n=63 v=33
154000 On ch=1 n=55 v=0
154008 On ch=1 n=67 v=0
154040 On ch=1 n=63 v=0
154064 On ch=1 n=58 v=0
154070 On ch=1 n=75 v=36
154080 On ch=1 n=51 v=30
154168 On ch=1 n=58 v=14
154168 On ch=1 n=63 v=29
154240 On ch=1 n=63 v=0
154268 On ch=1 n=58 v=0
154312 On ch=1 n=67 v=29
154332 On ch=1 n=55 v=15
154396 On ch=1 n=67 v=0
154404 On ch=1 n=63 v=28
154416 On ch=1 n=55 v=0
154428 On ch=1 n=58 v=20
154466 On ch=1 n=63 v=0
154506 On ch=1 n=58 v=0
154548 Par ch=1 c=64 v=0
154548 On ch=1 n=49 v=52
154598 On ch=1 n=51 v=0
154650 On ch=1 n=58 v=31
154650 On ch=1 n=63 v=34
154736 On ch=1 n=63 v=0
154748 On ch=1 n=58 v=0
154766 On ch=1 n=67 v=37
154778 On ch=1 n=75 v=0
154778 On ch=1 n=55 v=38
154848 Par ch=1 c=64 v=127
154850 On ch=1 n=55 v=0
154858 On ch=1 n=67 v=0
154860 On ch=1 n=63 v=46
154876 On ch=1 n=58 v=30
154964 On ch=1 n=63 v=0
154990 On ch=1 n=58 v=0
155038 On ch=1 n=55 v=34
155050 On ch=1 n=75 v=62
155114 On ch=1 n=55 v=0
155166 On ch=1 n=58 v=29
155178 On ch=1 n=63 v=45
155236 On ch=1 n=63 v=0
155250 On ch=1 n=58 v=0
155304 On ch=1 n=67 v=29
155304 On ch=1 n=55 v=30
155370 On ch=1 n=55 v=0
155378 On ch=1 n=67 v=0
155402 On ch=1 n=63 v=32
155416 On ch=1 n=58 v=27
155474 On ch=1 n=63 v=0
155496 On ch=1 n=58 v=0
155524 On ch=1 n=67 v=10
155530 On ch=1 n=55 v=17
155604 On ch=1 n=55 v=0
155610 On ch=1 n=67 v=0
155616 On ch=1 n=63 v=23
155646 On ch=1 n=58 v=14
155700 On ch=1 n=63 v=0
155732 On ch=1 n=58 v=0
155780 On ch=1 n=67 v=14
155780 On ch=1 n=55 v=16
155788 On ch=1 n=49 v=0
155808 On ch=1 n=75 v=0
155852 On ch=1 n=63 v=43
155864 On ch=1 n=67 v=0
155866 On ch=1 n=55 v=0
155890 On ch=1 n=58 v=19
155908 On ch=1 n=63 v=0
155972 On ch=1 n=75 v=48
155972 On ch=1 n=49 v=49
155975 On ch=1 n=58 v=0
156046 On ch=1 n=49 v=0
156072 On ch=1 n=58 v=19
156074 On ch=1 n=63 v=40
156090 On ch=1 n=75 v=0
156136 On ch=1 n=63 v=0
156148 On ch=1 n=58 v=0
156180 On ch=1 n=67 v=41
156248 On ch=1 n=67 v=0
156254 On ch=1 n=58 v=25
156266 On ch=1 n=63 v=35
156292 Par ch=1 c=64 v=0
156322 On ch=1 n=63 v=0
156332 On ch=1 n=58 v=0
156378 On ch=1 n=75 v=55
156381 On ch=1 n=48 v=46
156456 On ch=1 n=75 v=0
156470 On ch=1 n=63 v=50
156486 On ch=1 n=56 v=44
156534 On ch=1 n=63 v=0
156552 On ch=1 n=56 v=0
156574 On ch=1 n=68 v=37
156584 On ch=1 n=48 v=0
156590 On ch=1 n=51 v=41
156630 Par ch=1 c=64 v=127
156652 On ch=1 n=68 v=0
156662 On ch=1 n=51 v=0
156664 On ch=1 n=63 v=42
156688 On ch=1 n=56 v=42
156700 Par ch=1 c=64 v=0
156714 On ch=1 n=63 v=0
156760 On ch=1 n=56 v=0
156804 On ch=1 n=46 v=47
156810 On ch=1 n=76 v=46
156862 On ch=1 n=76 v=0
156896 On ch=1 n=46 v=0
156896 On ch=1 n=64 v=48
156904 On ch=1 n=55 v=44
156962 On ch=1 n=64 v=0
156964 On ch=1 n=55 v=0
157002 On ch=1 n=48 v=37
157008 On ch=1 n=72 v=39
157066 On ch=1 n=72 v=0
157078 On ch=1 n=48 v=0
157081 On ch=1 n=64 v=31
157094 On ch=1 n=55 v=34
157142 On ch=1 n=64 v=0
157154 On ch=1 n=55 v=0
157192 On ch=1 n=44 v=64
157204 On ch=1 n=77 v=73
157246 On ch=1 n=77 v=0
157300 On ch=1 n=56 v=47
157300 On ch=1 n=65 v=49
157334 On ch=1 n=44 v=0
157378 On ch=1 n=65 v=0
157388 On ch=1 n=56 v=0
157394 On ch=1 n=48 v=44
157410 On ch=1 n=72 v=47
157474 On ch=1 n=72 v=0
157482 On ch=1 n=48 v=0
157506 On ch=1 n=65 v=34
157516 On ch=1 n=56 v=42
157562 On ch=1 n=65 v=0
157586 On ch=1 n=56 v=0
157596 On ch=1 n=79 v=87
157604 On ch=1 n=43 v=69
157676 On ch=1 n=79 v=0
157686 On ch=1 n=55 v=59
157692 On ch=1 n=67 v=51
157698 On ch=1 n=43 v=0
157756 On ch=1 n=67 v=0
157760 On ch=1 n=55 v=0
157802 On ch=1 n=48 v=50
157802 On ch=1 n=72 v=45
157852 On ch=1 n=67 v=52
157870 On ch=1 n=55 v=58
157878 On ch=1 n=72 v=0
157910 On ch=1 n=48 v=0
157918 On ch=1 n=67 v=0
157928 On ch=1 n=55 v=0
157982 On ch=1 n=80 v=86
157988 On ch=1 n=41 v=79
158088 On ch=1 n=53 v=92
158088 On ch=1 n=68 v=62
158106 On ch=1 n=80 v=0
158112 On ch=1 n=41 v=0
158146 On ch=1 n=68 v=0
158160 On ch=1 n=53 v=0
158192 On ch=1 n=48 v=56
158194 On ch=1 n=72 v=48
158252 On ch=1 n=53 v=79
158274 On ch=1 n=68 v=49
158276 On ch=1 n=72 v=0
158294 On ch=1 n=53 v=0
158328 On ch=1 n=68 v=0
158346 On ch=1 n=48 v=0
158380 On ch=1 n=39 v=81
158388 On ch=1 n=81 v=96
158460 On ch=1 n=69 v=72
158470 On ch=1 n=51 v=78
158502 On ch=1 n=81 v=0
158502 On ch=1 n=39 v=0
158568 On ch=1 n=72 v=76
158568 On ch=1 n=48 v=54
158572 On ch=1 n=51 v=0
158582 On ch=1 n=69 v=0
158640 On ch=1 n=69 v=68
158648 On ch=1 n=72 v=0
158648 On ch=1 n=48 v=0
158660 On ch=1 n=51 v=58
158702 On ch=1 n=69 v=0
158772 On ch=1 n=51 v=0
158780 On ch=1 n=82 v=94
158802 On ch=1 n=38 v=70
158852 On ch=1 n=38 v=0
158852 On ch=1 n=70 v=59
158860 On ch=1 n=50 v=64
158912 On ch=1 n=82 v=0
158942 On ch=1 n=50 v=0
158966 On ch=1 n=77 v=75
158974 On ch=1 n=70 v=0
158984 On ch=1 n=41 v=63
159040 On ch=1 n=70 v=59
159064 On ch=1 n=50 v=63
159067 On ch=1 n=41 v=0
159084 On ch=1 n=77 v=0
159114 On ch=1 n=50 v=0
159130 On ch=1 n=70 v=0
159166 On ch=1 n=36 v=89
159169 On ch=1 n=84 v=104
159252 On ch=1 n=48 v=68
159255 On ch=1 n=72 v=79
159274 On ch=1 n=84 v=0
159282 On ch=1 n=36 v=0
159330 On ch=1 n=48 v=0
159346 On ch=1 n=72 v=0
159364 On ch=1 n=77 v=76
159364 On ch=1 n=41 v=79
159438 On ch=1 n=48 v=62
159454 On ch=1 n=72 v=52
159474 On ch=1 n=77 v=0
159496 On ch=1 n=48 v=0
159500 On ch=1 n=41 v=0
159504 On ch=1 n=72 v=0
159544 On ch=1 n=85 v=102
159558 On ch=1 n=34 v=93
159566 Par ch=1 c=64 v=127
159612 Par ch=1 c=64 v=0
159642 On ch=1 n=46 v=75
159642 On ch=1 n=73 v=74
159690 On ch=1 n=34 v=0
159690 On ch=1 n=85 v=0
159734 On ch=1 n=77 v=79
159740 On ch=1 n=73 v=0
159750 On ch=1 n=41 v=76
159752 On ch=1 n=46 v=0
159812 On ch=1 n=73 v=67
159828 On ch=1 n=46 v=54
159838 On ch=1 n=77 v=0
159864 On ch=1 n=41 v=0
159922 On ch=1 n=46 v=0
159926 On ch=1 n=73 v=0
159938 On ch=1 n=32 v=90
159940 On ch=1 n=86 v=108
160028 On ch=1 n=86 v=0
160030 On ch=1 n=74 v=91
160032 On ch=1 n=44 v=86
160068 On ch=1 n=32 v=0
160116 On ch=1 n=74 v=0
160134 On ch=1 n=41 v=74
160136 On ch=1 n=77 v=88
160138 On ch=1 n=44 v=0
160230 On ch=1 n=77 v=0
160230 On ch=1 n=74 v=64
160233 On ch=1 n=44 v=68
160254 On ch=1 n=41 v=0
160272 On ch=1 n=74 v=0
160338 On ch=1 n=44 v=0
160340 On ch=1 n=87 v=100
160346 On ch=1 n=31 v=103
160432 On ch=1 n=43 v=85
160432 On ch=1 n=75 v=68
160440 On ch=1 n=31 v=0
160482 On ch=1 n=87 v=0
160506 On ch=1 n=43 v=0
160510 On ch=1 n=75 v=0
160524 On ch=1 n=39 v=72
160526 On ch=1 n=82 v=78
160614 On ch=1 n=75 v=65
160620 On ch=1 n=43 v=68
160654 On ch=1 n=82 v=0
160668 On ch=1 n=39 v=0
160668 On ch=1 n=75 v=0
160698 On ch=1 n=43 v=0
160722 On ch=1 n=31 v=102
160730 On ch=1 n=83 v=117
160818 On ch=1 n=43 v=76
160822 On ch=1 n=83 v=0
160822 On ch=1 n=71 v=90
160886 On ch=1 n=31 v=0
160892 On ch=1 n=39 v=75
160906 On ch=1 n=43 v=0
160910 On ch=1 n=71 v=0
160910 On ch=1 n=75 v=75
160984 On ch=1 n=43 v=81
161004 On ch=1 n=71 v=76
161042 On ch=1 n=43 v=0
161044 On ch=1 n=39 v=0
161050 On ch=1 n=75 v=0
161082 On ch=1 n=71 v=0
161118 On ch=1 n=44 v=110
161121 On ch=1 n=32 v=92
161224 On ch=1 n=44 v=0
161224 On ch=1 n=72 v=81
161236 On ch=1 n=32 v=0
161239 Par ch=1 c=64 v=127
161318 On ch=1 n=75 v=75
161344 On ch=1 n=72 v=0
161420 On ch=1 n=72 v=69
161476 On ch=1 n=75 v=0
161524 On ch=1 n=84 v=102
161528 On ch=1 n=72 v=0
161578 Par ch=1 c=64 v=0
161624 On ch=1 n=72 v=61
161674 On ch=1 n=84 v=0
161722 On ch=1 n=75 v=68
161736 On ch=1 n=72 v=0
161796 On ch=1 n=72 v=82
161854 On ch=1 n=75 v=0
161866 On ch=1 n=72 v=0
161918 On ch=1 n=46 v=100
161920 On ch=1 n=34 v=100
161960 On ch=1 n=34 v=0
161978 Par ch=1 c=64 v=127
161980 On ch=1 n=46 v=0
162036 On ch=1 n=65 v=66
162110 On ch=1 n=68 v=65
162112 On ch=1 n=65 v=0
162228 On ch=1 n=65 v=55
162288 On ch=1 n=68 v=0
162322 On ch=1 n=65 v=0
162322 On ch=1 n=74 v=89
162346 Par ch=1 c=64 v=0
162430 On ch=1 n=65 v=54
162514 On ch=1 n=68 v=62
162516 On ch=1 n=65 v=0
162520 On ch=1 n=74 v=0
162600 On ch=1 n=65 v=59
162658 On ch=1 n=68 v=0
162684 On ch=1 n=65 v=0
162748 On ch=1 n=51 v=64
162876 On ch=1 n=63 v=45
162890 On ch=1 n=58 v=35
162956 On ch=1 n=63 v=0
162964 On ch=1 n=58 v=0
162982 On ch=1 n=55 v=38
162992 On ch=1 n=67 v=50
163074 On ch=1 n=55 v=0
163106 On ch=1 n=63 v=44
163114 On ch=1 n=58 v=36
163144 On ch=1 n=67 v=0
163212 On ch=1 n=58 v=0
163240 On ch=1 n=63 v=0
163284 On ch=1 n=75 v=66
163326 On ch=1 n=55 v=15
163345 Par ch=1 c=64 v=127
163402 On ch=1 n=55 v=0
163414 On ch=1 n=63 v=38
163432 On ch=1 n=58 v=22
163500 On ch=1 n=63 v=0
163518 On ch=1 n=58 v=0
163536 On ch=1 n=67 v=39
163604 On ch=1 n=67 v=0
163630 On ch=1 n=63 v=28
163684 On ch=1 n=58 v=8
163734 On ch=1 n=63 v=0
163756 On ch=1 n=58 v=0
163766 On ch=1 n=55 v=22
163796 On ch=1 n=67 v=25
163838 On ch=1 n=55 v=0
163852 On ch=1 n=63 v=31
163864 On ch=1 n=58 v=15
163872 On ch=1 n=67 v=0
163950 On ch=1 n=63 v=0
163953 On ch=1 n=58 v=0
163962 On ch=1 n=67 v=27
163982 On ch=1 n=55 v=9
164034 On ch=1 n=75 v=0
164072 On ch=1 n=51 v=0
164075 On ch=1 n=63 v=28
164106 On ch=1 n=58 v=6
164116 On ch=1 n=55 v=0
164142 On ch=1 n=67 v=0
164148 On ch=1 n=63 v=0
164196 On ch=1 n=58 v=0
164224 On ch=1 n=75 v=44
164240 On ch=1 n=51 v=48
164348 On ch=1 n=63 v=32
164378 On ch=1 n=58 v=19
164416 On ch=1 n=63 v=0
164454 On ch=1 n=58 v=0
164460 On ch=1 n=55 v=45
164466 On ch=1 n=67 v=30
164528 On ch=1 n=75 v=0
164536 On ch=1 n=55 v=0
164550 On ch=1 n=67 v=0
164550 On ch=1 n=63 v=38
164578 On ch=1 n=58 v=32
164590 Par ch=1 c=64 v=0
164622 On ch=1 n=63 v=0
164650 On ch=1 n=58 v=0
164678 On ch=1 n=49 v=64
164724 On ch=1 n=51 v=0
164802 On ch=1 n=58 v=42
164804 On ch=1 n=63 v=49
164890 On ch=1 n=63 v=0
164900 On ch=1 n=58 v=0
164914 On ch=1 n=67 v=53
164924 On ch=1 n=55 v=42
164989 On ch=1 n=55 v=0
165014 On ch=1 n=63 v=44
165017 On ch=1 n=67 v=0
165030 On ch=1 n=58 v=36
165112 Par ch=1 c=64 v=127
165116 On ch=1 n=63 v=0
165120 On ch=1 n=58 v=0
165162 On ch=1 n=75 v=65
165178 On ch=1 n=55 v=32
165250 On ch=1 n=55 v=0
165286 On ch=1 n=63 v=46
165308 On ch=1 n=58 v=21
165322 On ch=1 n=49 v=0
165372 On ch=1 n=63 v=0
165388 On ch=1 n=58 v=0
165408 On ch=1 n=75 v=0
165412 On ch=1 n=67 v=36
165482 On ch=1 n=67 v=0
165502 On ch=1 n=63 v=37
165544 On ch=1 n=58 v=18
165602 On ch=1 n=63 v=0
165616 On ch=1 n=55 v=34
165628 On ch=1 n=58 v=0
165628 On ch=1 n=67 v=26
165692 On ch=1 n=55 v=0
165704 On ch=1 n=67 v=0
165716 On ch=1 n=63 v=30
165742 On ch=1 n=58 v=13
165826 On ch=1 n=63 v=0
165834 On ch=1 n=58 v=0
165850 On ch=1 n=67 v=23
165862 On ch=1 n=55 v=16
165934 On ch=1 n=63 v=30
165940 On ch=1 n=67 v=0
165940 On ch=1 n=58 v=19
165954 On ch=1 n=55 v=0
166008 On ch=1 n=63 v=0
166016 On ch=1 n=58 v=0
166060 On ch=1 n=75 v=54
166064 On ch=1 n=49 v=50
166120 On ch=1 n=75 v=0
166152 On ch=1 n=49 v=0
166174 On ch=1 n=58 v=31
166190 On ch=1 n=63 v=33
166248 On ch=1 n=63 v=0
166248 On ch=1 n=58 v=0
166272 On ch=1 n=67 v=48
166298 On ch=1 n=55 v=25
166340 On ch=1 n=67 v=0
166342 Par ch=1 c=64 v=0
166346 On ch=1 n=58 v=26
166348 On ch=1 n=63 v=38
166368 On ch=1 n=55 v=0
166416 On ch=1 n=63 v=0
166426 On ch=1 n=58 v=0
166464 On ch=1 n=48 v=52
166464 On ch=1 n=75 v=66
166530 On ch=1 n=75 v=0
166558 On ch=1 n=56 v=54
166566 On ch=1 n=63 v=51
166601 On ch=1 n=48 v=0
166622 On ch=1 n=56 v=0
166630 On ch=1 n=63 v=0
166662 On ch=1 n=68 v=53
166668 On ch=1 n=51 v=54
166742 On ch=1 n=68 v=0
166746 On ch=1 n=63 v=53
166752 On ch=1 n=51 v=0
166766 On ch=1 n=56 v=53
166806 On ch=1 n=63 v=0
166832 On ch=1 n=56 v=0
166872 On ch=1 n=46 v=55
166872 On ch=1 n=76 v=62
166918 On ch=1 n=76 v=0
166960 On ch=1 n=46 v=0
166960 On ch=1 n=64 v=49
166963 On ch=1 n=55 v=58
167018 On ch=1 n=64 v=0
167021 On ch=1 n=55 v=0
167058 On ch=1 n=48 v=49
167061 On ch=1 n=72 v=49
167112 On ch=1 n=72 v=0
167134 On ch=1 n=48 v=0
167142 On ch=1 n=64 v=26
167160 On ch=1 n=55 v=32
167208 On ch=1 n=64 v=0
167228 On ch=1 n=55 v=0
167236 On ch=1 n=44 v=72
167246 On ch=1 n=77 v=80
167288 On ch=1 n=77 v=0
167334 On ch=1 n=65 v=52
167334 On ch=1 n=56 v=55
167342 On ch=1 n=44 v=0
167402 On ch=1 n=65 v=0
167410 On ch=1 n=56 v=0
167432 On ch=1 n=72 v=56
167434 On ch=1 n=48 v=47
167504 On ch=1 n=72 v=0
167507 On ch=1 n=48 v=0
167520 On ch=1 n=56 v=44
167520 On ch=1 n=65 v=39
167576 On ch=1 n=65 v=0
167616 On ch=1 n=56 v=0
167636 On ch=1 n=79 v=88
167650 On ch=1 n=43 v=64
167710 On ch=1 n=79 v=0
167720 On ch=1 n=43 v=0
167722 On ch=1 n=55 v=63
167742 On ch=1 n=67 v=60
167790 On ch=1 n=55 v=0
167812 On ch=1 n=67 v=0
167842 On ch=1 n=72 v=56
167848 On ch=1 n=48 v=45
167906 On ch=1 n=67 v=45
167920 On ch=1 n=55 v=60
167928 On ch=1 n=72 v=0
167934 On ch=1 n=48 v=0
167966 On ch=1 n=67 v=0
167972 On ch=1 n=55 v=0
168028 On ch=1 n=80 v=86
168034 On ch=1 n=41 v=85
168136 On ch=1 n=68 v=67
168150 On ch=1 n=53 v=85
168158 On ch=1 n=41 v=0
168168 On ch=1 n=80 v=0
168212 On ch=1 n=68 v=0
168226 On ch=1 n=53 v=0
168234 On ch=1 n=72 v=57
168256 On ch=1 n=48 v=45
168300 On ch=1 n=68 v=55
168310 On ch=1 n=72 v=0
168318 On ch=1 n=53 v=77
168366 On ch=1 n=53 v=0
168396 On ch=1 n=48 v=0
168408 On ch=1 n=68 v=0
168450 On ch=1 n=81 v=95
168453 On ch=1 n=39 v=81
168540 On ch=1 n=69 v=63
168552 On ch=1 n=51 v=73
168560 On ch=1 n=81 v=0
168570 On ch=1 n=39 v=0
168624 On ch=1 n=69 v=0
168636 On ch=1 n=72 v=70
168648 On ch=1 n=48 v=51
168652 On ch=1 n=51 v=0
168720 On ch=1 n=69 v=59
168732 On ch=1 n=72 v=0
168738 On ch=1 n=48 v=0
168738 On ch=1 n=51 v=65
168774 On ch=1 n=69 v=0
168844 On ch=1 n=82 v=96
168858 On ch=1 n=51 v=0
168870 On ch=1 n=38 v=91
168926 On ch=1 n=50 v=63
168936 On ch=1 n=70 v=66
168954 On ch=1 n=38 v=0
168980 On ch=1 n=82 v=0
169018 On ch=1 n=70 v=0
169040 On ch=1 n=50 v=0
169040 On ch=1 n=77 v=77
169042 On ch=1 n=41 v=75
169122 On ch=1 n=70 v=58
169126 On ch=1 n=50 v=72
169160 On ch=1 n=77 v=0
169162 On ch=1 n=41 v=0
169194 On ch=1 n=70 v=0
169216 On ch=1 n=50 v=0
169238 On ch=1 n=36 v=90
169244 On ch=1 n=84 v=105
169320 On ch=1 n=72 v=79
169326 On ch=1 n=48 v=79
169332 On ch=1 n=84 v=0
169360 On ch=1 n=36 v=0
169424 On ch=1 n=77 v=80
169426 On ch=1 n=72 v=0
169434 On ch=1 n=48 v=0
169442 On ch=1 n=41 v=78
169500 On ch=1 n=72 v=72
169516 On ch=1 n=48 v=63
169558 On ch=1 n=77 v=0
169566 On ch=1 n=48 v=0
169602 On ch=1 n=41 v=0
169610 On ch=1 n=72 v=0
169628 On ch=1 n=85 v=104
169638 On ch=1 n=34 v=95
169722 On ch=1 n=73 v=83
169730 On ch=1 n=46 v=81
169782 On ch=1 n=85 v=0
169786 On ch=1 n=34 v=0
169822 On ch=1 n=41 v=79
169830 On ch=1 n=73 v=0
169830 On ch=1 n=77 v=72
169844 On ch=1 n=46 v=0
169898 On ch=1 n=46 v=71
169916 On ch=1 n=73 v=66
169950 On ch=1 n=77 v=0
169960 On ch=1 n=41 v=0
170004 On ch=1 n=46 v=0
170024 On ch=1 n=73 v=0
170027 On ch=1 n=32 v=93
170036 On ch=1 n=86 v=108
170122 On ch=1 n=74 v=92
170122 On ch=1 n=44 v=95
170152 On ch=1 n=86 v=0
170154 On ch=1 n=32 v=0
170208 On ch=1 n=74 v=0
170226 On ch=1 n=77 v=92
170228 On ch=1 n=44 v=0
170230 On ch=1 n=41 v=78
170312 On ch=1 n=74 v=78
170318 On ch=1 n=44 v=73
170342 On ch=1 n=77 v=0
170362 On ch=1 n=41 v=0
170396 On ch=1 n=74 v=0
170428 On ch=1 n=87 v=103
170430 On ch=1 n=44 v=0
170436 On ch=1 n=31 v=105
170512 On ch=1 n=43 v=87
170530 On ch=1 n=31 v=0
170530 On ch=1 n=75 v=70
170578 On ch=1 n=75 v=0
170610 On ch=1 n=43 v=0
170612 On ch=1 n=39 v=76
170618 On ch=1 n=82 v=75
170674 On ch=1 n=87 v=0
170698 On ch=1 n=43 v=74
170698 On ch=1 n=75 v=79
170760 On ch=1 n=82 v=0
170762 On ch=1 n=39 v=0
170768 On ch=1 n=75 v=0
170796 On ch=1 n=43 v=0
170812 On ch=1 n=31 v=105
170815 On ch=1 n=88 v=110
170902 On ch=1 n=43 v=75
170908 On ch=1 n=76 v=73
170938 On ch=1 n=31 v=0
170942 On ch=1 n=88 v=0
170982 On ch=1 n=76 v=0
170996 On ch=1 n=43 v=0
171000 On ch=1 n=31 v=92
171010 On ch=1 n=82 v=81
171082 On ch=1 n=43 v=79
171114 On ch=1 n=76 v=78
171132 On ch=1 n=31 v=0
171148 On ch=1 n=43 v=0
171164 On ch=1 n=76 v=0
171176 On ch=1 n=82 v=0
171226 On ch=1 n=44 v=112
171228 On ch=1 n=32 v=93
171358 On ch=1 n=80 v=73
171396 Par ch=1 c=64 v=127
171440 On ch=1 n=44 v=0
171440 On ch=1 n=84 v=86
171452 On ch=1 n=32 v=0
171462 On ch=1 n=80 v=0
171548 On ch=1 n=80 v=70
171602 On ch=1 n=84 v=0
171654 On ch=1 n=80 v=0
171664 On ch=1 n=89 v=101
171688 Par ch=1 c=64 v=0
171754 On ch=1 n=80 v=69
171860 On ch=1 n=80 v=0
171868 On ch=1 n=89 v=0
171870 On ch=1 n=84 v=70
171960 On ch=1 n=80 v=67
172006 On ch=1 n=84 v=0
172054 On ch=1 n=80 v=0
172074 On ch=1 n=46 v=96
172080 On ch=1 n=34 v=97
172164 Par ch=1 c=64 v=127
172172 On ch=1 n=46 v=0
172186 On ch=1 n=77 v=83
172194 On ch=1 n=34 v=0
172272 On ch=1 n=80 v=83
172290 On ch=1 n=77 v=0
172376 On ch=1 n=77 v=75
172434 On ch=1 n=80 v=0
172440 Par ch=1 c=64 v=0
172476 On ch=1 n=77 v=0
172486 On ch=1 n=86 v=94
172578 On ch=1 n=77 v=63
172628 On ch=1 n=86 v=0
172676 On ch=1 n=77 v=0
172676 On ch=1 n=80 v=86
172766 On ch=1 n=77 v=61
172790 On ch=1 n=80 v=0
172878 On ch=1 n=77 v=0
172902 On ch=1 n=39 v=55
172910 On ch=1 n=79 v=86
172920 On ch=1 n=51 v=37
172944 On ch=1 n=39 v=0
172982 On ch=1 n=51 v=0
172994 Par ch=1 c=64 v=127
173010 On ch=1 n=79 v=0
173198 On ch=1 n=63 v=33
173198 On ch=1 n=87 v=73
173201 On ch=1 n=67 v=39
173270 On ch=1 n=67 v=0
173316 On ch=1 n=63 v=0
173362 Par ch=1 c=64 v=0
173432 On ch=1 n=67 v=50
173432 On ch=1 n=63 v=35
173514 On ch=1 n=67 v=0
173554 On ch=1 n=63 v=0
173562 Par ch=1 c=64 v=127
173640 On ch=1 n=86 v=68
173650 On ch=1 n=67 v=27
173652 On ch=1 n=63 v=45
173662 On ch=1 n=87 v=0
173716 On ch=1 n=63 v=0
173726 On ch=1 n=67 v=0
173738 On ch=1 n=86 v=0
173740 On ch=1 n=87 v=50
173792 Par ch=1 c=64 v=0
173870 On ch=1 n=87 v=0
173870 On ch=1 n=89 v=50
173880 On ch=1 n=60 v=44
173968 On ch=1 n=87 v=32
174020 On ch=1 n=89 v=0
174076 On ch=1 n=67 v=37
174079 On ch=1 n=86 v=58
174084 Par ch=1 c=64 v=127
174086 On ch=1 n=63 v=36
174112 On ch=1 n=87 v=0
174146 On ch=1 n=63 v=0
174150 On ch=1 n=67 v=0
174160 On ch=1 n=86 v=0
174192 On ch=1 n=84 v=55
174274 On ch=1 n=84 v=0
174286 On ch=1 n=67 v=36
174292 On ch=1 n=83 v=78
174328 On ch=1 n=63 v=23
174342 On ch=1 n=83 v=0
174360 On ch=1 n=67 v=0
174388 On ch=1 n=84 v=54
174394 On ch=1 n=63 v=0
174470 On ch=1 n=67 v=30
174476 On ch=1 n=63 v=46
174480 On ch=1 n=86 v=65
174482 On ch=1 n=84 v=0
174546 On ch=1 n=67 v=0
174550 On ch=1 n=63 v=0
174568 On ch=1 n=84 v=59
174592 Par ch=1 c=64 v=0
174618 On ch=1 n=86 v=0
174660 On ch=1 n=56 v=67
174680 On ch=1 n=82 v=61
174708 On ch=1 n=84 v=0
174732 On ch=1 n=60 v=0
174796 On ch=1 n=80 v=56
174850 On ch=1 n=82 v=0
174868 Par ch=1 c=64 v=127
174878 On ch=1 n=65 v=38
174884 On ch=1 n=80 v=0
174884 On ch=1 n=63 v=51
174892 On ch=1 n=79 v=56
174940 On ch=1 n=63 v=0
174944 On ch=1 n=65 v=0
174958 On ch=1 n=79 v=0
174974 On ch=1 n=77 v=69
175068 On ch=1 n=76 v=61
175076 On ch=1 n=77 v=0
175076 On ch=1 n=65 v=30
175120 On ch=1 n=63 v=36
175148 On ch=1 n=65 v=0
175154 On ch=1 n=76 v=0
175156 On ch=1 n=77 v=66
175174 On ch=1 n=63 v=0
175260 On ch=1 n=77 v=0
175266 On ch=1 n=79 v=77
175296 On ch=1 n=63 v=28
175306 On ch=1 n=65 v=38
175330 Par ch=1 c=64 v=0
175362 On ch=1 n=77 v=49
175364 On ch=1 n=65 v=0
175376 On ch=1 n=63 v=0
175398 On ch=1 n=79 v=0
175460 On ch=1 n=75 v=68
175464 On ch=1 n=58 v=60
175488 On ch=1 n=77 v=0
175526 On ch=1 n=56 v=0
175570 On ch=1 n=74 v=70
175594 On ch=1 n=75 v=0
175626 On ch=1 n=74 v=0
175660 On ch=1 n=72 v=52
175660 On ch=1 n=65 v=42
175660 On ch=1 n=62 v=47
175716 On ch=1 n=65 v=0
175719 On ch=1 n=62 v=0
175744 On ch=1 n=70 v=60
175764 On ch=1 n=72 v=0
175830 On ch=1 n=70 v=0
175830 On ch=1 n=69 v=67
175854 On ch=1 n=62 v=41
175864 On ch=1 n=65 v=21
175914 On ch=1 n=62 v=0
175928 On ch=1 n=65 v=0
175931 On ch=1 n=69 v=0
175938 On ch=1 n=70 v=55
176028 On ch=1 n=65 v=35
176031 On ch=1 n=72 v=68
176060 On ch=1 n=70 v=0
176082 Par ch=1 c=64 v=127
176086 On ch=1 n=65 v=0
176112 On ch=1 n=72 v=0
176136 On ch=1 n=68 v=67
176168 On ch=1 n=58 v=0
176198 On ch=1 n=68 v=0
176252 On ch=1 n=51 v=67
176252 On ch=1 n=67 v=59
176306 On ch=1 n=67 v=0
176390 Par ch=1 c=64 v=0
176450 On ch=1 n=87 v=81
176466 On ch=1 n=75 v=62
176470 On ch=1 n=63 v=54
176476 On ch=1 n=55 v=44
176532 On ch=1 n=55 v=0
176538 On ch=1 n=63 v=0
176634 On ch=1 n=75 v=0
176634 Par ch=1 c=64 v=127
176660 On ch=1 n=63 v=55
176688 On ch=1 n=55 v=53
176752 On ch=1 n=55 v=0
176760 On ch=1 n=63 v=0
176786 On ch=1 n=87 v=0
176864 On ch=1 n=86 v=79
176868 On ch=1 n=63 v=56
176886 On ch=1 n=55 v=54
176924 On ch=1 n=63 v=0
176936 On ch=1 n=51 v=0
176952 On ch=1 n=87 v=78
176994 On ch=1 n=86 v=0
177012 On ch=1 n=55 v=0
177046 On ch=1 n=48 v=81
177060 On ch=1 n=89 v=83
177066 Par ch=1 c=64 v=0
177088 On ch=1 n=87 v=0
177142 On ch=1 n=87 v=73
177234 On ch=1 n=51 v=65
177237 On ch=1 n=86 v=85
177242 On ch=1 n=60 v=53
177250 On ch=1 n=55 v=54
177254 On ch=1 n=89 v=0
177306 On ch=1 n=60 v=0
177318 On ch=1 n=55 v=0
177328 On ch=1 n=87 v=0
177334 On ch=1 n=84 v=85
177342 Par ch=1 c=64 v=127
177358 On ch=1 n=51 v=0
177398 On ch=1 n=86 v=0
177424 On ch=1 n=83 v=103
177432 On ch=1 n=60 v=45
177436 On ch=1 n=55 v=39
177436 On ch=1 n=51 v=54
177446 On ch=1 n=84 v=0
177498 On ch=1 n=83 v=0
177508 On ch=1 n=84 v=88
177510 On ch=1 n=60 v=0
177520 On ch=1 n=55 v=0
177556 On ch=1 n=51 v=0
177608 On ch=1 n=60 v=42
177614 On ch=1 n=86 v=80
177616 On ch=1 n=84 v=0
177626 On ch=1 n=55 v=34
177630 On ch=1 n=51 v=59
177662 On ch=1 n=48 v=0
177668 On ch=1 n=60 v=0
177680 On ch=1 n=55 v=0
177694 On ch=1 n=84 v=68
177734 On ch=1 n=51 v=0
177768 On ch=1 n=86 v=0
177788 Par ch=1 c=64 v=0
177794 On ch=1 n=44 v=97
177802 On ch=1 n=82 v=69
177840 On ch=1 n=84 v=0
177908 On ch=1 n=80 v=69
177970 On ch=1 n=53 v=84
177984 On ch=1 n=51 v=60
177986 On ch=1 n=82 v=0
177989 On ch=1 n=79 v=76
177996 On ch=1 n=56 v=60
178022 On ch=1 n=80 v=0
178034 Par ch=1 c=64 v=127
178060 On ch=1 n=53 v=0
178062 On ch=1 n=79 v=0
178066 On ch=1 n=56 v=0
178084 On ch=1 n=77 v=77
178106 On ch=1 n=51 v=0
178174 On ch=1 n=77 v=0
178176 On ch=1 n=56 v=58
178176 On ch=1 n=76 v=78
178184 On ch=1 n=51 v=60
178196 On ch=1 n=53 v=71
178260 On ch=1 n=53 v=0
178268 On ch=1 n=44 v=0
178270 On ch=1 n=77 v=73
178280 On ch=1 n=76 v=0
178288 On ch=1 n=56 v=0
178292 On ch=1 n=51 v=0
178362 On ch=1 n=79 v=88
178365 On ch=1 n=56 v=59
178372 On ch=1 n=51 v=57
178374 On ch=1 n=77 v=0
178388 On ch=1 n=53 v=63
178440 On ch=1 n=53 v=0
178450 On ch=1 n=77 v=66
178476 On ch=1 n=56 v=0
178481 On ch=1 n=51 v=0
178524 On ch=1 n=79 v=0
178546 On ch=1 n=46 v=96
178552 On ch=1 n=75 v=78
178572 Par ch=1 c=64 v=0
178604 On ch=1 n=77 v=0
178652 On ch=1 n=74 v=87
178708 On ch=1 n=75 v=0
178728 On ch=1 n=58 v=59
178736 On ch=1 n=50 v=67
178742 On ch=1 n=72 v=67
178746 On ch=1 n=53 v=86
178758 On ch=1 n=74 v=0
178806 On ch=1 n=53 v=0
178814 On ch=1 n=70 v=73
178828 On ch=1 n=58 v=0
178840 On ch=1 n=50 v=0
178846 On ch=1 n=72 v=0
178848 Par ch=1 c=64 v=127
178914 On ch=1 n=58 v=43
178917 On ch=1 n=69 v=77
178920 On ch=1 n=50 v=62
178928 On ch=1 n=70 v=0
178930 On ch=1 n=53 v=69
179010 On ch=1 n=70 v=53
179026 On ch=1 n=58 v=0
179040 On ch=1 n=50 v=0
179050 On ch=1 n=53 v=0
179050 On ch=1 n=69 v=0
179108 On ch=1 n=58 v=52
179110 On ch=1 n=72 v=76
179122 On ch=1 n=53 v=89
179130 On ch=1 n=50 v=52
179140 Par ch=1 c=64 v=0
179154 On ch=1 n=70 v=0
179170 On ch=1 n=53 v=0
179184 On ch=1 n=58 v=0
179196 On ch=1 n=46 v=0
179198 On ch=1 n=72 v=0
179200 On ch=1 n=50 v=0
179204 On ch=1 n=70 v=84
179324 On ch=1 n=75 v=92
179324 On ch=1 n=39 v=90
179334 On ch=1 n=70 v=0
179340 Par ch=1 c=64 v=127
179370 On ch=1 n=75 v=0
179386 Par ch=1 c=64 v=0
179442 On ch=1 n=51 v=83
179492 On ch=1 n=39 v=0
179560 On ch=1 n=39 v=71
179560 On ch=1 n=63 v=102
179562 On ch=1 n=51 v=0
179664 On ch=1 n=51 v=54
179694 On ch=1 n=39 v=0
179758 On ch=1 n=39 v=79
179772 On ch=1 n=51 v=0
179840 On ch=1 n=51 v=59
179848 On ch=1 n=39 v=0
179862 Par ch=1 c=64 v=127
179894 On ch=1 n=63 v=0
179940 On ch=1 n=39 v=59
179948 On ch=1 n=61 v=81
179954 Par ch=1 c=64 v=0
179956 On ch=1 n=51 v=0
179956 On ch=1 n=67 v=79
180014 On ch=1 n=61 v=0
180022 On ch=1 n=67 v=0
180026 On ch=1 n=51 v=59
180040 On ch=1 n=39 v=0
180130 On ch=1 n=39 v=57
180146 On ch=1 n=60 v=85
180150 On ch=1 n=51 v=0
180150 On ch=1 n=68 v=84
180188 On ch=1 n=60 v=0
180216 On ch=1 n=51 v=65
180252 On ch=1 n=39 v=0
180264 On ch=1 n=68 v=0
180322 On ch=1 n=39 v=55
180336 On ch=1 n=70 v=73
180338 On ch=1 n=67 v=79
180342 On ch=1 n=51 v=0
180412 On ch=1 n=51 v=67
180416 On ch=1 n=70 v=0
180424 On ch=1 n=67 v=0
180432 On ch=1 n=39 v=0
180518 On ch=1 n=39 v=57
180528 On ch=1 n=51 v=0
180528 On ch=1 n=68 v=79
180528 On ch=1 n=72 v=87
180588 On ch=1 n=68 v=0
180602 On ch=1 n=51 v=72
180604 On ch=1 n=72 v=0
180620 On ch=1 n=39 v=0
180712 On ch=1 n=39 v=63
180722 On ch=1 n=74 v=91
180722 On ch=1 n=68 v=75
180730 On ch=1 n=51 v=0
180770 On ch=1 n=68 v=0
180798 On ch=1 n=51 v=80
180818 On ch=1 n=39 v=0
180834 On ch=1 n=74 v=0
180904 On ch=1 n=75 v=94
180908 On ch=1 n=67 v=88
180912 On ch=1 n=39 v=62
180924 On ch=1 n=51 v=0
180948 On ch=1 n=67 v=0
181004 On ch=1 n=51 v=81
181018 On ch=1 n=75 v=0
181024 On ch=1 n=39 v=0
181120 On ch=1 n=39 v=70
181122 On ch=1 n=75 v=97
181140 On ch=1 n=51 v=0
181206 On ch=1 n=51 v=79
181230 Par ch=1 c=64 v=127
181240 On ch=1 n=39 v=0
181310 On ch=1 n=39 v=67
181334 On ch=1 n=51 v=0
181400 On ch=1 n=51 v=78
181414 On ch=1 n=75 v=0
181417 On ch=1 n=39 v=0
181506 On ch=1 n=39 v=57
181506 On ch=1 n=79 v=97
181514 On ch=1 n=73 v=81
181528 On ch=1 n=51 v=0
181552 Par ch=1 c=64 v=0
181564 On ch=1 n=73 v=0
181594 On ch=1 n=51 v=75
181597 On ch=1 n=79 v=0
181612 On ch=1 n=39 v=0
181694 On ch=1 n=39 v=62
181704 On ch=1 n=80 v=93
181704 On ch=1 n=72 v=90
181712 On ch=1 n=51 v=0
181748 On ch=1 n=72 v=0
181780 On ch=1 n=51 v=82
181790 On ch=1 n=80 v=0
181802 On ch=1 n=39 v=0
181870 On ch=1 n=39 v=61
181892 On ch=1 n=82 v=87
181892 On ch=1 n=79 v=99
181904 On ch=1 n=51 v=0
181962 On ch=1 n=51 v=84
181968 On ch=1 n=79 v=0
181974 On ch=1 n=39 v=0
181996 On ch=1 n=82 v=0
182062 On ch=1 n=39 v=65
182072 On ch=1 n=84 v=103
182076 On ch=1 n=51 v=0
182076 On ch=1 n=80 v=91
182144 On ch=1 n=80 v=0
182154 On ch=1 n=84 v=0
182160 On ch=1 n=51 v=69
182180 On ch=1 n=39 v=0
182252 On ch=1 n=86 v=105
182268 On ch=1 n=80 v=80
182278 On ch=1 n=39 v=66
182288 On ch=1 n=51 v=0
182302 On ch=1 n=80 v=0
182336 On ch=1 n=86 v=0
182366 On ch=1 n=51 v=73
182382 On ch=1 n=39 v=0
182464 On ch=1 n=87 v=103
182464 On ch=1 n=79 v=110
182470 On ch=1 n=39 v=76
182504 On ch=1 n=51 v=0
182504 Par ch=1 c=64 v=127
182558 On ch=1 n=51 v=88
182596 On ch=1 n=39 v=0
182670 On ch=1 n=51 v=0
182673 On ch=1 n=39 v=66
182748 On ch=1 n=79 v=0
182756 On ch=1 n=51 v=65
182774 On ch=1 n=87 v=0
182806 On ch=1 n=39 v=0
182882 On ch=1 n=39 v=62
182886 On ch=1 n=51 v=0
182964 On ch=1 n=51 v=76
183020 On ch=1 n=39 v=0
183080 On ch=1 n=39 v=70
183086 On ch=1 n=51 v=0
183142 On ch=1 n=51 v=84
183220 On ch=1 n=39 v=0
183246 On ch=1 n=75 v=99
183252 On ch=1 n=67 v=95
183258 On ch=1 n=38 v=92
183272 Par ch=1 c=64 v=0
183282 On ch=1 n=51 v=0
183336 On ch=1 n=50 v=85
183376 On ch=1 n=38 v=0
183440 On ch=1 n=50 v=0
183442 On ch=1 n=38 v=76
183518 Par ch=1 c=64 v=127
183530 On ch=1 n=50 v=70
183556 On ch=1 n=67 v=0
183570 On ch=1 n=38 v=0
183612 On ch=1 n=75 v=0
183640 On ch=1 n=50 v=0
183642 On ch=1 n=38 v=65
183714 On ch=1 n=50 v=73
183754 On ch=1 n=38 v=0
183814 On ch=1 n=50 v=0
183826 On ch=1 n=38 v=69
183908 On ch=1 n=50 v=77
183946 On ch=1 n=38 v=0
184014 On ch=1 n=50 v=0
184020 On ch=1 n=36 v=101
184025 Par ch=1 c=64 v=0
184034 On ch=1 n=87 v=100
184042 On ch=1 n=79 v=105
184122 On ch=1 n=48 v=75
184144 On ch=1 n=36 v=0
184222 On ch=1 n=48 v=0
184224 On ch=1 n=36 v=79
184272 Par ch=1 c=64 v=127
184320 On ch=1 n=48 v=63
184352 On ch=1 n=36 v=0
184392 On ch=1 n=79 v=0
184400 On ch=1 n=87 v=0
184426 On ch=1 n=48 v=0
184430 On ch=1 n=36 v=79
184510 On ch=1 n=48 v=51
184530 On ch=1 n=36 v=0
184612 On ch=1 n=48 v=0
184638 On ch=1 n=36 v=75
184714 On ch=1 n=48 v=60
184758 On ch=1 n=36 v=0
184788 On ch=1 n=48 v=0
184834 On ch=1 n=75 v=96
184834 On ch=1 n=34 v=95
184837 On ch=1 n=67 v=96
184841 Par ch=1 c=64 v=0
184928 On ch=1 n=46 v=84
184982 On ch=1 n=34 v=0
185026 On ch=1 n=46 v=0
185032 On ch=1 n=34 v=87
185072 Par ch=1 c=64 v=127
185104 On ch=1 n=46 v=66
185134 On ch=1 n=67 v=0
185154 On ch=1 n=34 v=0
185200 On ch=1 n=75 v=0
185214 On ch=1 n=46 v=0
185216 On ch=1 n=34 v=75
185296 On ch=1 n=46 v=75
185346 On ch=1 n=34 v=0
185412 On ch=1 n=46 v=0
185416 On ch=1 n=34 v=76
185490 On ch=1 n=46 v=80
185552 On ch=1 n=34 v=0
185596 On ch=1 n=46 v=0
185604 On ch=1 n=87 v=101
185604 On ch=1 n=32 v=95
185610 On ch=1 n=84 v=105
185670 Par ch=1 c=64 v=0
185704 On ch=1 n=44 v=89
185756 On ch=1 n=32 v=0
185812 On ch=1 n=32 v=80
185820 On ch=1 n=44 v=0
185894 On ch=1 n=44 v=81
185900 Par ch=1 c=64 v=127
185954 On ch=1 n=32 v=0
186008 On ch=1 n=44 v=0
186012 On ch=1 n=32 v=78
186038 On ch=1 n=84 v=0
186068 On ch=1 n=87 v=0
186100 On ch=1 n=44 v=79
186152 On ch=1 n=32 v=0
186212 On ch=1 n=32 v=75
186216 On ch=1 n=44 v=0
186312 On ch=1 n=44 v=81
186364 On ch=1 n=32 v=0
186432 On ch=1 n=44 v=0
186434 On ch=1 n=31 v=103
186440 On ch=1 n=75 v=95
186446 On ch=1 n=72 v=97
186468 Par ch=1 c=64 v=0
186524 On ch=1 n=43 v=83
186566 On ch=1 n=31 v=0
186632 On ch=1 n=31 v=84
186640 On ch=1 n=43 v=0
186684 Par ch=1 c=64 v=127
186730 On ch=1 n=43 v=63
186768 On ch=1 n=31 v=0
186832 On ch=1 n=43 v=0
186838 On ch=1 n=72 v=0
186846 On ch=1 n=31 v=73
186904 On ch=1 n=75 v=0
186946 On ch=1 n=43 v=66
186958 On ch=1 n=31 v=0
187026 On ch=1 n=43 v=0
187062 On ch=1 n=31 v=74
187162 On ch=1 n=43 v=88
187198 On ch=1 n=31 v=0
187252 On ch=1 n=43 v=0
187342 On ch=1 n=81 v=98
187344 On ch=1 n=86 v=102
187346 On ch=1 n=84 v=103
187352 On ch=1 n=42 v=95
187354 On ch=1 n=30 v=98
187438 Par ch=1 c=64 v=0
187760 Par ch=1 c=64 v=127
187908 On ch=1 n=30 v=0
187918 On ch=1 n=86 v=0
187922 On ch=1 n=42 v=0
187944 On ch=1 n=84 v=0
187950 On ch=1 n=81 v=0
188556 On ch=1 n=62 v=99
188560 On ch=1 n=54 v=97
188560 On ch=1 n=60 v=94
188564 On ch=1 n=57 v=85
188566 On ch=1 n=42 v=86
188974 Par ch=1 c=64 v=0
189404 Par ch=1 c=64 v=127
190564 On ch=1 n=42 v=0
190608 On ch=1 n=57 v=0
190628 On ch=1 n=54 v=0
190634 On ch=1 n=60 v=0
190648 On ch=1 n=62 v=0
191258 On ch=1 n=58 v=81
191258 On ch=1 n=67 v=101
191261 On ch=1 n=55 v=98
191268 On ch=1 n=31 v=100
191268 On ch=1 n=62 v=92
191268 On ch=1 n=43 v=96
191268 On ch=1 n=34 v=77
191276 On ch=1 n=38 v=81
191324 Par ch=1 c=64 v=0
192292 Par ch=1 c=64 v=127
193306 Par ch=1 c=64 v=0
193502 On ch=1 n=43 v=0
193506 Par ch=1 c=64 v=127
193512 On ch=1 n=31 v=0
193518 On ch=1 n=38 v=0
193520 On ch=1 n=34 v=0
193532 On ch=1 n=55 v=0
193598 On ch=1 n=62 v=0
193602 On ch=1 n=58 v=0
193668 On ch=1 n=67 v=0
194620 On ch=1 n=67 v=58
194628 On ch=1 n=58 v=33
194636 On ch=1 n=62 v=42
194718 On ch=1 n=62 v=0
194764 On ch=1 n=58 v=0
194780 On ch=1 n=67 v=0
194862 On ch=1 n=69 v=52
194868 On ch=1 n=66 v=39
194880 On ch=1 n=57 v=39
194886 On ch=1 n=62 v=40
194996 Par ch=1 c=64 v=0
195396 Par ch=1 c=64 v=127
195482 On ch=1 n=57 v=0
195496 On ch=1 n=62 v=0
195538 On ch=1 n=66 v=0
195544 On ch=1 n=69 v=0
195808 On ch=1 n=70 v=39
195816 On ch=1 n=62 v=50
195818 On ch=1 n=67 v=37
195824 On ch=1 n=55 v=48
195890 On ch=1 n=62 v=0
195893 On ch=1 n=55 v=0
195902 On ch=1 n=67 v=0
195948 On ch=1 n=70 v=0
196076 On ch=1 n=70 v=38
196092 On ch=1 n=61 v=44
196095 On ch=1 n=67 v=25
196110 On ch=1 n=64 v=38
196134 Par ch=1 c=64 v=0
196948 Par ch=1 c=64 v=127
198136 On ch=1 n=64 v=0
198194 On ch=1 n=66 v=13
198210 On ch=1 n=69 v=20
198216 On ch=1 n=67 v=0
198228 On ch=1 n=62 v=14
198252 On ch=1 n=61 v=0
198346 Par ch=1 c=64 v=0
198410 On ch=1 n=70 v=0
199038 Par ch=1 c=64 v=127
199768 On ch=1 n=62 v=0
199778 On ch=1 n=66 v=0
199784 On ch=1 n=69 v=0
199822 Par ch=1 c=64 v=0
200744 On ch=1 n=51 v=72
200790 Par ch=1 c=64 v=127
200964 On ch=1 n=72 v=88
200966 On ch=1 n=66 v=62
200980 On ch=1 n=69 v=55
200994 On ch=1 n=63 v=69
201014 On ch=1 n=51 v=0
201082 Par ch=1 c=64 v=0
202542 Par ch=1 c=64 v=127
202674 On ch=1 n=63 v=0
202690 On ch=1 n=69 v=0
202704 On ch=1 n=72 v=0
202726 On ch=1 n=66 v=0
203366 On ch=1 n=66 v=40
203370 On ch=1 n=69 v=44
203370 On ch=1 n=63 v=66
203372 On ch=1 n=72 v=63
203446 On ch=1 n=69 v=0
203454 On ch=1 n=66 v=0
203602 On ch=1 n=66 v=50
203608 On ch=1 n=69 v=46
203612 On ch=1 n=74 v=83
203630 On ch=1 n=62 v=56
203634 On ch=1 n=63 v=0
203658 On ch=1 n=72 v=0
203662 Par ch=1 c=64 v=0
204000 Par ch=1 c=64 v=127
204038 On ch=1 n=62 v=0
204070 On ch=1 n=69 v=0
204080 On ch=1 n=74 v=0
204086 On ch=1 n=66 v=0
204482 On ch=1 n=75 v=68
204488 On ch=1 n=69 v=47
204498 On ch=1 n=66 v=38
204498 On ch=1 n=60 v=62
204586 On ch=1 n=66 v=0
204616 On ch=1 n=69 v=0
204638 On ch=1 n=75 v=0
204640 On ch=1 n=60 v=0
204748 On ch=1 n=75 v=52
204760 On ch=1 n=66 v=34
204763 On ch=1 n=69 v=34
204776 On ch=1 n=58 v=40
204846 Par ch=1 c=64 v=0
205690 Par ch=1 c=64 v=127
206064 On ch=1 n=69 v=0
206320 On ch=1 n=66 v=0
206456 On ch=1 n=75 v=0
206886 On ch=1 n=74 v=28
206894 On ch=1 n=70 v=13
206898 On ch=1 n=67 v=15
207044 Par ch=1 c=64 v=0
207534 Par ch=1 c=64 v=127
207882 On ch=1 n=58 v=0
207990 On ch=1 n=74 v=0
208008 On ch=1 n=67 v=0
208032 On ch=1 n=70 v=0
208056 Par ch=1 c=64 v=0
208886 Par ch=1 c=64 v=127
209030 On ch=1 n=51 v=62
209226 On ch=1 n=72 v=89
209226 On ch=1 n=66 v=62
209238 On ch=1 n=69 v=58
209244 On ch=1 n=63 v=78
209272 On ch=1 n=51 v=0
209316 Par ch=1 c=64 v=0
209932 Par ch=1 c=64 v=127
210842 On ch=1 n=69 v=0
210878 On ch=1 n=72 v=0
210912 On ch=1 n=66 v=0
210916 On ch=1 n=63 v=0
211760 On ch=1 n=66 v=32
211762 On ch=1 n=69 v=37
211764 On ch=1 n=72 v=53
211768 On ch=1 n=63 v=47
211862 On ch=1 n=69 v=0
211866 On ch=1 n=66 v=0
211968 On ch=1 n=63 v=0
212010 On ch=1 n=74 v=71
212026 On ch=1 n=66 v=31
212028 On ch=1 n=62 v=50
212032 On ch=1 n=69 v=36
212052 On ch=1 n=72 v=0
212068 Par ch=1 c=64 v=0
212360 Par ch=1 c=64 v=127
212386 On ch=1 n=62 v=0
212391 On ch=1 n=69 v=0
212402 On ch=1 n=66 v=0
212428 On ch=1 n=74 v=0
212868 On ch=1 n=75 v=49
212882 On ch=1 n=69 v=33
212890 On ch=1 n=66 v=25
212910 On ch=1 n=60 v=32
212968 On ch=1 n=69 v=0
212971 On ch=1 n=66 v=0
212986 On ch=1 n=60 v=0
212996 On ch=1 n=75 v=0
213150 On ch=1 n=75 v=66
213172 On ch=1 n=66 v=28
213172 On ch=1 n=69 v=30
213178 On ch=1 n=60 v=40
213204 Par ch=1 c=64 v=0
214250 On ch=1 n=59 v=29
214294 On ch=1 n=60 v=0
214680 Par ch=1 c=64 v=127
214682 On ch=1 n=69 v=0
214738 On ch=1 n=66 v=0
214834 On ch=1 n=75 v=0
215108 On ch=1 n=76 v=31
215142 On ch=1 n=67 v=17
215158 On ch=1 n=64 v=10
215232 Par ch=1 c=64 v=0
215632 Par ch=1 c=64 v=127
215762 On ch=1 n=59 v=0
216088 On ch=1 n=59 v=24
216282 On ch=1 n=64 v=0
216326 On ch=1 n=76 v=0
216328 On ch=1 n=67 v=0
216872 On ch=1 n=69 v=24
216888 On ch=1 n=63 v=31
216904 On ch=1 n=66 v=7
217308 Par ch=1 c=64 v=0
217660 Par ch=1 c=64 v=127
217668 On ch=1 n=47 v=21
217888 On ch=1 n=59 v=0
217926 On ch=1 n=63 v=0
218004 On ch=1 n=66 v=0
218274 On ch=1 n=69 v=0
218522 On ch=1 n=67 v=19
218525 On ch=1 n=64 v=24
218528 On ch=1 n=59 v=16
218612 Par ch=1 c=64 v=0
218930 On ch=1 n=47 v=0
218936 Par ch=1 c=64 v=127
219372 On ch=1 n=47 v=17
219576 On ch=1 n=59 v=0
219588 On ch=1 n=64 v=0
219730 On ch=1 n=67 v=0
220192 On ch=1 n=66 v=19
220198 On ch=1 n=57 v=13
220216 On ch=1 n=63 v=15
220240 On ch=1 n=60 v=8
220748 Par ch=1 c=64 v=0
221026 Par ch=1 c=64 v=127
221154 On ch=1 n=35 v=23
221486 On ch=1 n=57 v=0
221534 On ch=1 n=60 v=0
221538 On ch=1 n=63 v=0
221596 On ch=1 n=35 v=0
221599 On ch=1 n=66 v=0
222250 On ch=1 n=54 v=17
222252 On ch=1 n=63 v=24
222272 On ch=1 n=57 v=11
223514 Par ch=1 c=64 v=0
223550 On ch=1 n=35 v=16
224006 Par ch=1 c=64 v=127
224256 On ch=1 n=47 v=0
224298 On ch=1 n=54 v=0
224314 On ch=1 n=57 v=0
224368 On ch=1 n=35 v=0
224756 On ch=1 n=63 v=0
225120 On ch=1 n=40 v=50
225122 On ch=1 n=64 v=41
225172 On ch=1 n=40 v=0
225174 On ch=1 n=64 v=0
225204 Par ch=1 c=64 v=0
225214 On ch=1 n=52 v=49
225286 On ch=1 n=52 v=0
225316 On ch=1 n=69 v=45
225326 On ch=1 n=40 v=29
225380 On ch=1 n=69 v=0
225388 On ch=1 n=40 v=0
225404 On ch=1 n=52 v=44
225480 On ch=1 n=40 v=54
225496 On ch=1 n=52 v=0
225504 On ch=1 n=67 v=48
225552 On ch=1 n=40 v=0
225570 On ch=1 n=67 v=0
225606 On ch=1 n=52 v=45
225670 On ch=1 n=52 v=0
225682 On ch=1 n=75 v=58
225688 On ch=1 n=69 v=39
225692 On ch=1 n=40 v=59
225740 On ch=1 n=40 v=0
225748 On ch=1 n=75 v=0
225754 On ch=1 n=69 v=0
225800 On ch=1 n=52 v=40
225870 On ch=1 n=52 v=0
225874 On ch=1 n=67 v=65
225874 On ch=1 n=76 v=65
225904 On ch=1 n=40 v=53
225920 On ch=1 n=67 v=0
225922 On ch=1 n=76 v=0
225950 On ch=1 n=40 v=0
225974 On ch=1 n=52 v=56
226046 On ch=1 n=52 v=0
226056 On ch=1 n=81 v=91
226059 On ch=1 n=75 v=77
226074 On ch=1 n=40 v=67
226104 On ch=1 n=75 v=0
226114 On ch=1 n=81 v=0
226117 On ch=1 n=40 v=0
226152 On ch=1 n=52 v=69
226218 On ch=1 n=52 v=0
226240 On ch=1 n=79 v=99
226243 On ch=1 n=76 v=83
226250 On ch=1 n=40 v=95
226276 On ch=1 n=76 v=0
226306 On ch=1 n=79 v=0
226312 On ch=1 n=40 v=0
226320 On ch=1 n=52 v=80
226406 On ch=1 n=52 v=0
226418 On ch=1 n=87 v=96
226420 On ch=1 n=81 v=95
226422 On ch=1 n=40 v=100
226456 On ch=1 n=81 v=0
226494 On ch=1 n=52 v=83
226508 On ch=1 n=87 v=0
226511 On ch=1 n=40 v=0
226600 On ch=1 n=52 v=0
226626 On ch=1 n=79 v=106
226629 On ch=1 n=88 v=108
226629 On ch=1 n=40 v=101
226664 On ch=1 n=40 v=0
226696 Par ch=1 c=64 v=127
226699 On ch=1 n=88 v=0
226699 On ch=1 n=79 v=0
226846 On ch=1 n=55 v=76
226856 On ch=1 n=59 v=63
226952 On ch=1 n=55 v=0
226955 On ch=1 n=59 v=0
227048 Par ch=1 c=64 v=0
227056 On ch=1 n=76 v=83
227061 On ch=1 n=59 v=62
227061 On ch=1 n=64 v=74
227074 On ch=1 n=55 v=51
227136 On ch=1 n=55 v=0
227152 On ch=1 n=59 v=0
227276 On ch=1 n=59 v=60
227290 On ch=1 n=55 v=63
227346 On ch=1 n=55 v=0
227368 On ch=1 n=59 v=0
227436 On ch=1 n=64 v=0
227439 On ch=1 n=76 v=0
227468 On ch=1 n=52 v=86
227654 On ch=1 n=52 v=0
227657 On ch=1 n=76 v=87
227660 On ch=1 n=59 v=59
227664 On ch=1 n=64 v=82
227668 On ch=1 n=55 v=67
227702 On ch=1 n=64 v=0
227710 On ch=1 n=76 v=0
227728 On ch=1 n=55 v=0
227734 On ch=1 n=59 v=0
227838 On ch=1 n=78 v=89
227850 On ch=1 n=66 v=58
227858 On ch=1 n=59 v=59
227858 On ch=1 n=55 v=61
227864 On ch=1 n=68 v=33
227918 On ch=1 n=55 v=0
227920 On ch=1 n=59 v=0
227932 On ch=1 n=68 v=0
227940 On ch=1 n=78 v=0
227943 On ch=1 n=66 v=0
228038 On ch=1 n=79 v=98
228041 On ch=1 n=55 v=57
228044 On ch=1 n=59 v=51
228044 On ch=1 n=67 v=80
228096 On ch=1 n=55 v=0
228099 On ch=1 n=67 v=0
228099 On ch=1 n=59 v=0
228154 On ch=1 n=79 v=0
228250 On ch=1 n=52 v=71
228258 On ch=1 n=79 v=79
228266 On ch=1 n=67 v=74
228400 Par ch=1 c=64 v=127
228444 On ch=1 n=60 v=48
228456 On ch=1 n=57 v=44
228508 On ch=1 n=60 v=0
228511 On ch=1 n=57 v=0
228516 On ch=1 n=67 v=0
228586 On ch=1 n=52 v=0
228616 Par ch=1 c=64 v=0
228656 On ch=1 n=66 v=45
228658 On ch=1 n=60 v=44
228660 On ch=1 n=78 v=55
228692 On ch=1 n=57 v=19
228710 On ch=1 n=79 v=0
228728 On ch=1 n=60 v=0
228764 On ch=1 n=57 v=0
228844 On ch=1 n=57 v=37
228874 On ch=1 n=60 v=31
228946 On ch=1 n=57 v=0
228952 On ch=1 n=60 v=0
229046 On ch=1 n=51 v=50
229082 On ch=1 n=78 v=0
229108 Par ch=1 c=64 v=127
229111 On ch=1 n=66 v=0
229234 On ch=1 n=78 v=63
229237 On ch=1 n=66 v=56
229260 On ch=1 n=60 v=37
229272 On ch=1 n=57 v=31
229275 Par ch=1 c=64 v=0
229314 On ch=1 n=51 v=0
229328 On ch=1 n=60 v=0
229338 On ch=1 n=57 v=0
229350 On ch=1 n=66 v=0
229352 On ch=1 n=78 v=0
229426 On ch=1 n=79 v=94
229434 On ch=1 n=57 v=29
229434 On ch=1 n=67 v=70
229434 On ch=1 n=60 v=38
229490 On ch=1 n=67 v=0
229510 On ch=1 n=60 v=0
229510 On ch=1 n=57 v=0
229518 On ch=1 n=79 v=0
229612 On ch=1 n=81 v=91
229618 On ch=1 n=60 v=48
229618 On ch=1 n=69 v=62
229638 On ch=1 n=57 v=37
229672 On ch=1 n=60 v=0
229676 On ch=1 n=69 v=0
229694 On ch=1 n=81 v=0
229698 On ch=1 n=57 v=0
229722 Par ch=1 c=64 v=127
229810 On ch=1 n=38 v=74
229814 On ch=1 n=81 v=83
229820 On ch=1 n=69 v=58
229846 On ch=1 n=81 v=0
229860 On ch=1 n=38 v=0
229860 Par ch=1 c=64 v=0
229884 On ch=1 n=69 v=0
229908 On ch=1 n=50 v=54
229968 On ch=1 n=50 v=0
230008 On ch=1 n=67 v=52
230014 On ch=1 n=38 v=50
230066 On ch=1 n=38 v=0
230070 On ch=1 n=67 v=0
230096 On ch=1 n=50 v=57
230168 On ch=1 n=50 v=0
230194 On ch=1 n=66 v=55
230208 On ch=1 n=38 v=37
230253 On ch=1 n=66 v=0
230262 On ch=1 n=38 v=0
230294 On ch=1 n=50 v=50
230362 On ch=1 n=73 v=69
230364 On ch=1 n=50 v=0
230370 On ch=1 n=67 v=64
230388 On ch=1 n=38 v=38
230422 On ch=1 n=67 v=0
230430 On ch=1 n=73 v=0
230440 On ch=1 n=38 v=0
230472 On ch=1 n=50 v=53
230548 On ch=1 n=50 v=0
230550 On ch=1 n=66 v=73
230554 On ch=1 n=74 v=87
230568 On ch=1 n=38 v=58
230590 On ch=1 n=66 v=0
230612 On ch=1 n=74 v=0
230622 On ch=1 n=38 v=0
230640 On ch=1 n=50 v=62
230726 On ch=1 n=79 v=105
230730 On ch=1 n=50 v=0
230732 On ch=1 n=73 v=87
230736 On ch=1 n=38 v=74
230782 On ch=1 n=73 v=0
230812 On ch=1 n=38 v=0
230812 On ch=1 n=79 v=0
230812 On ch=1 n=50 v=78
230912 On ch=1 n=78 v=99
230912 On ch=1 n=38 v=84
230915 On ch=1 n=50 v=0
230915 On ch=1 n=74 v=98
230946 On ch=1 n=74 v=0
230986 On ch=1 n=50 v=83
231002 On ch=1 n=78 v=0
231012 On ch=1 n=38 v=0
231083 On ch=1 n=38 v=84
231088 On ch=1 n=85 v=102
231090 On ch=1 n=79 v=108
231092 On ch=1 n=50 v=0
231144 On ch=1 n=79 v=0
231160 On ch=1 n=50 v=85
231204 On ch=1 n=38 v=0
231207 On ch=1 n=85 v=0
231258 On ch=1 n=50 v=0
231282 On ch=1 n=38 v=88
231287 On ch=1 n=78 v=110
231291 On ch=1 n=86 v=110
231334 Par ch=1 c=64 v=127
231342 On ch=1 n=78 v=0
231376 On ch=1 n=86 v=0
231382 On ch=1 n=38 v=0
231486 On ch=1 n=60 v=74
231489 On ch=1 n=57 v=65
231572 On ch=1 n=57 v=0
231578 On ch=1 n=60 v=0
231628 Par ch=1 c=64 v=0
231702 On ch=1 n=60 v=60
231706 On ch=1 n=78 v=80
231710 On ch=1 n=66 v=47
231714 On ch=1 n=57 v=47
231766 On ch=1 n=60 v=0
231774 On ch=1 n=57 v=0
231926 On ch=1 n=60 v=58
231934 On ch=1 n=57 v=50
231994 On ch=1 n=57 v=0
231994 On ch=1 n=60 v=0
232112 On ch=1 n=50 v=73
232170 On ch=1 n=78 v=0
232190 On ch=1 n=66 v=0
232296 On ch=1 n=66 v=64
232298 On ch=1 n=60 v=57
232301 On ch=1 n=78 v=76
232304 On ch=1 n=50 v=0
232316 On ch=1 n=57 v=40
232364 On ch=1 n=60 v=0
232376 On ch=1 n=57 v=0
232412 On ch=1 n=78 v=0
232416 On ch=1 n=66 v=0
232480 On ch=1 n=79 v=101
232483 On ch=1 n=67 v=83
232490 On ch=1 n=60 v=52
232506 On ch=1 n=57 v=36
232536 On ch=1 n=67 v=0
232558 On ch=1 n=60 v=0
232568 On ch=1 n=57 v=0
232598 On ch=1 n=79 v=0
232662 On ch=1 n=81 v=95
232672 On ch=1 n=69 v=66
232678 On ch=1 n=60 v=49
232688 On ch=1 n=57 v=43
232738 On ch=1 n=69 v=0
232741 On ch=1 n=60 v=0
232746 On ch=1 n=57 v=0
232772 On ch=1 n=81 v=0
232886 On ch=1 n=50 v=58
232894 On ch=1 n=69 v=49
232898 On ch=1 n=81 v=65
233010 Par ch=1 c=64 v=127
233060 On ch=1 n=58 v=44
233080 On ch=1 n=50 v=0
233084 On ch=1 n=55 v=50
233128 On ch=1 n=58 v=0
233144 On ch=1 n=55 v=0
233168 On ch=1 n=81 v=0
233170 On ch=1 n=69 v=0
233272 Par ch=1 c=64 v=0
233275 On ch=1 n=79 v=72
233278 On ch=1 n=58 v=34
233280 On ch=1 n=67 v=47
233290 On ch=1 n=55 v=23
233350 On ch=1 n=58 v=0
233362 On ch=1 n=55 v=0
233460 On ch=1 n=58 v=31
233472 On ch=1 n=55 v=28
233554 On ch=1 n=58 v=0
233564 On ch=1 n=55 v=0
233646 On ch=1 n=49 v=62
233680 On ch=1 n=79 v=0
233692 On ch=1 n=67 v=0
233748 Par ch=1 c=64 v=127
233804 On ch=1 n=49 v=0
233834 On ch=1 n=58 v=41
233840 Par ch=1 c=64 v=0
233840 On ch=1 n=67 v=55
233843 On ch=1 n=79 v=73
233864 On ch=1 n=55 v=47
233894 On ch=1 n=67 v=0
233898 On ch=1 n=79 v=0
233906 On ch=1 n=58 v=0
233920 On ch=1 n=55 v=0
234024 On ch=1 n=81 v=79
234038 On ch=1 n=55 v=36
234040 On ch=1 n=58 v=35
234040 On ch=1 n=69 v=38
234074 On ch=1 n=81 v=0
234112 On ch=1 n=55 v=0
234114 On ch=1 n=58 v=0
234116 On ch=1 n=69 v=0
234202 On ch=1 n=82 v=64
234214 On ch=1 n=58 v=30
234218 On ch=1 n=70 v=43
234218 On ch=1 n=55 v=44
234270 On ch=1 n=55 v=0
234276 On ch=1 n=70 v=0
234279 On ch=1 n=58 v=0
234366 On ch=1 n=82 v=0
234378 Par ch=1 c=64 v=127
234412 On ch=1 n=70 v=44
234452 On ch=1 n=48 v=15
234486 On ch=1 n=70 v=0
234492 On ch=1 n=82 v=27
234512 On ch=1 n=48 v=0
234582 On ch=1 n=82 v=0
234582 On ch=1 n=49 v=41
234585 On ch=1 n=70 v=33
234654 Par ch=1 c=64 v=0
234666 On ch=1 n=70 v=0
234668 On ch=1 n=82 v=40
234764 On ch=1 n=82 v=0
234766 On ch=1 n=70 v=27
234782 On ch=1 n=49 v=0
234784 On ch=1 n=48 v=48
234836 On ch=1 n=48 v=0
234856 On ch=1 n=70 v=0
234858 On ch=1 n=82 v=32
234916 Par ch=1 c=64 v=127
234952 On ch=1 n=82 v=0
234955 On ch=1 n=70 v=29
234966 On ch=1 n=53 v=80
235038 Par ch=1 c=64 v=0
235044 On ch=1 n=70 v=0
235047 On ch=1 n=82 v=32
235112 On ch=1 n=53 v=0
235148 On ch=1 n=70 v=35
235153 On ch=1 n=82 v=0
235164 On ch=1 n=52 v=66
235206 On ch=1 n=52 v=0
235230 On ch=1 n=70 v=0
235240 On ch=1 n=82 v=39
235254 Par ch=1 c=64 v=127
235330 On ch=1 n=82 v=0
235340 On ch=1 n=61 v=68
235350 On ch=1 n=70 v=34
235376 Par ch=1 c=64 v=0
235420 On ch=1 n=70 v=0
235426 On ch=1 n=82 v=40
235524 On ch=1 n=82 v=0
235524 On ch=1 n=70 v=37
235524 On ch=1 n=60 v=71
235530 On ch=1 n=61 v=0
235574 On ch=1 n=60 v=0
235608 On ch=1 n=70 v=0
235622 On ch=1 n=82 v=40
235638 Par ch=1 c=64 v=127
235692 On ch=1 n=82 v=0
235704 On ch=1 n=65 v=66
235712 On ch=1 n=70 v=42
235790 On ch=1 n=70 v=0
235790 Par ch=1 c=64 v=0
235802 On ch=1 n=82 v=44
235842 On ch=1 n=65 v=0
235874 On ch=1 n=82 v=0
235890 On ch=1 n=70 v=47
235896 On ch=1 n=64 v=65
235944 On ch=1 n=64 v=0
235972 On ch=1 n=70 v=0
235984 On ch=1 n=82 v=50
236060 On ch=1 n=66 v=69
236063 On ch=1 n=82 v=0
236076 On ch=1 n=70 v=42
236160 Par ch=1 c=64 v=127
236172 On ch=1 n=70 v=0
236174 On ch=1 n=82 v=46
236206 On ch=1 n=66 v=0
236250 On ch=1 n=82 v=0
236250 Par ch=1 c=64 v=0
236264 On ch=1 n=70 v=44
236280 On ch=1 n=67 v=52
236362 On ch=1 n=70 v=0
236372 On ch=1 n=82 v=45
236444 On ch=1 n=82 v=0
236466 On ch=1 n=70 v=41
236540 On ch=1 n=70 v=0
236558 On ch=1 n=67 v=0
236564 On ch=1 n=82 v=39
236626 On ch=1 n=82 v=0
236650 On ch=1 n=70 v=44
236748 On ch=1 n=82 v=42
236750 On ch=1 n=70 v=0
236818 On ch=1 n=82 v=0
236826 On ch=1 n=70 v=40
236924 On ch=1 n=82 v=34
236930 On ch=1 n=70 v=0
237016 On ch=1 n=82 v=0
237016 On ch=1 n=70 v=31
237096 On ch=1 n=82 v=38
237102 On ch=1 n=70 v=0
237212 On ch=1 n=82 v=0
237232 On ch=1 n=70 v=28
237266 Par ch=1 c=64 v=127
237290 On ch=1 n=82 v=42
237352 On ch=1 n=70 v=0
237374 Par ch=1 c=64 v=0
237402 On ch=1 n=82 v=0
237430 On ch=1 n=69 v=34
237498 On ch=1 n=69 v=0
237508 On ch=1 n=81 v=43
237578 On ch=1 n=81 v=0
237624 On ch=1 n=69 v=26
237634 On ch=1 n=42 v=55
237724 On ch=1 n=69 v=0
237724 On ch=1 n=81 v=36
237810 On ch=1 n=81 v=0
237824 On ch=1 n=42 v=0
237826 On ch=1 n=69 v=30
237844 On ch=1 n=41 v=63
237892 On ch=1 n=41 v=0
237912 Par ch=1 c=64 v=127
237915 On ch=1 n=81 v=33
237924 On ch=1 n=69 v=0
238004 Par ch=1 c=64 v=0
238007 On ch=1 n=81 v=0
238014 On ch=1 n=69 v=38
238020 On ch=1 n=49 v=55
238112 On ch=1 n=69 v=0
238114 On ch=1 n=81 v=30
238178 On ch=1 n=49 v=0
238198 On ch=1 n=81 v=0
238202 On ch=1 n=69 v=40
238210 On ch=1 n=48 v=57
238264 On ch=1 n=48 v=0
238302 On ch=1 n=69 v=0
238302 On ch=1 n=81 v=33
238390 On ch=1 n=81 v=0
238390 On ch=1 n=54 v=55
238402 On ch=1 n=69 v=31
238494 On ch=1 n=81 v=34
238500 On ch=1 n=69 v=0
238572 On ch=1 n=81 v=0
238578 On ch=1 n=54 v=0
238582 On ch=1 n=69 v=39
238606 On ch=1 n=53 v=66
238654 On ch=1 n=53 v=0
238666 On ch=1 n=69 v=0
238666 On ch=1 n=81 v=41
238760 On ch=1 n=81 v=0
238776 On ch=1 n=61 v=59
238778 On ch=1 n=69 v=33
238872 On ch=1 n=81 v=38
238875 On ch=1 n=69 v=0
238942 On ch=1 n=61 v=0
238962 On ch=1 n=81 v=0
238972 On ch=1 n=69 v=25
238978 On ch=1 n=60 v=56
239044 On ch=1 n=60 v=0
239066 On ch=1 n=69 v=0
239076 On ch=1 n=81 v=32
239150 On ch=1 n=81 v=0
239170 On ch=1 n=69 v=31
239198 On ch=1 n=64 v=23
239270 On ch=1 n=69 v=0
239280 On ch=1 n=81 v=32
239310 On ch=1 n=64 v=0
239350 On ch=1 n=81 v=0
239366 On ch=1 n=69 v=32
239386 On ch=1 n=65 v=31
239464 On ch=1 n=69 v=0
239476 On ch=1 n=81 v=28
239544 On ch=1 n=81 v=0
239556 On ch=1 n=69 v=40
239650 On ch=1 n=69 v=0
239658 On ch=1 n=65 v=0
239664 On ch=1 n=81 v=28
239730 On ch=1 n=81 v=0
239732 On ch=1 n=69 v=42
239832 On ch=1 n=69 v=0
239834 On ch=1 n=81 v=30
239898 On ch=1 n=81 v=0
239904 On ch=1 n=69 v=50
240006 On ch=1 n=69 v=0
240009 On ch=1 n=81 v=39
240094 On ch=1 n=81 v=0
240100 On ch=1 n=69 v=42
240200 On ch=1 n=81 v=45
240224 On ch=1 n=69 v=0
240294 On ch=1 n=81 v=0
240294 On ch=1 n=69 v=54
240386 On ch=1 n=69 v=0
240392 On ch=1 n=81 v=47
240416 Par ch=1 c=64 v=127
240530 On ch=1 n=81 v=0
240533 On ch=1 n=68 v=37
240606 On ch=1 n=68 v=0
240614 On ch=1 n=80 v=46
240692 On ch=1 n=80 v=0
240700 On ch=1 n=68 v=31
240732 On ch=1 n=48 v=45
240796 On ch=1 n=68 v=0
240824 On ch=1 n=80 v=41
240890 On ch=1 n=80 v=0
240892 Par ch=1 c=64 v=0
240914 On ch=1 n=68 v=30
240918 On ch=1 n=47 v=64
240930 On ch=1 n=48 v=0
241002 On ch=1 n=68 v=0
241026 On ch=1 n=80 v=42
241084 On ch=1 n=80 v=0
241094 On ch=1 n=47 v=0
241094 On ch=1 n=68 v=42
241104 On ch=1 n=50 v=76
241188 On ch=1 n=68 v=0
241204 On ch=1 n=80 v=42
241230 Par ch=1 c=64 v=127
241248 On ch=1 n=50 v=0
241280 On ch=1 n=80 v=0
241286 On ch=1 n=68 v=47
241306 On ch=1 n=53 v=97
241346 On ch=1 n=53 v=0
241384 On ch=1 n=80 v=55
241400 On ch=1 n=68 v=0
241430 Par ch=1 c=64 v=0
241474 On ch=1 n=68 v=57
241496 On ch=1 n=80 v=0
241499 On ch=1 n=60 v=79
241564 On ch=1 n=80 v=65
241576 On ch=1 n=68 v=0
241662 On ch=1 n=68 v=54
241672 On ch=1 n=80 v=0
241678 On ch=1 n=60 v=0
241686 On ch=1 n=59 v=75
241692 Par ch=1 c=64 v=127
241754 Par ch=1 c=64 v=0
241762 On ch=1 n=68 v=0
241762 On ch=1 n=80 v=60
241850 On ch=1 n=68 v=61
241864 On ch=1 n=80 v=0
241864 On ch=1 n=62 v=81
241886 On ch=1 n=59 v=0
241962 On ch=1 n=80 v=62
241976 On ch=1 n=68 v=0
242028 On ch=1 n=62 v=0
242056 On ch=1 n=68 v=58
242060 On ch=1 n=80 v=0
242068 On ch=1 n=65 v=75
242092 Par ch=1 c=64 v=127
242152 Par ch=1 c=64 v=0
242162 On ch=1 n=80 v=61
242170 On ch=1 n=68 v=0
242198 On ch=1 n=65 v=0
242250 On ch=1 n=68 v=58
242264 On ch=1 n=80 v=0
242350 On ch=1 n=80 v=56
242352 On ch=1 n=68 v=0
242398 Par ch=1 c=64 v=127
242428 Par ch=1 c=64 v=0
242446 On ch=1 n=68 v=49
242460 On ch=1 n=80 v=0
242468 On ch=1 n=62 v=63
242548 On ch=1 n=68 v=0
242548 On ch=1 n=80 v=54
242564 On ch=1 n=62 v=0
242636 On ch=1 n=68 v=50
242656 On ch=1 n=80 v=0
242674 Par ch=1 c=64 v=127
242718 On ch=1 n=68 v=0
242720 Par ch=1 c=64 v=0
242728 On ch=1 n=80 v=58
242826 On ch=1 n=80 v=0
242834 On ch=1 n=68 v=48
242844 On ch=1 n=59 v=48
242920 On ch=1 n=80 v=49
242952 Par ch=1 c=64 v=127
242960 On ch=1 n=59 v=0
242982 On ch=1 n=68 v=0
243036 On ch=1 n=80 v=0
243044 On ch=1 n=67 v=61
243090 Par ch=1 c=64 v=0
243106 On ch=1 n=67 v=0
243138 On ch=1 n=79 v=67
243194 On ch=1 n=79 v=0
243226 On ch=1 n=67 v=57
243238 On ch=1 n=55 v=42
243309 On ch=1 n=79 v=70
243326 On ch=1 n=67 v=0
243352 Par ch=1 c=64 v=127
243358 On ch=1 n=79 v=0
243402 On ch=1 n=55 v=0
243418 On ch=1 n=65 v=66
243500 On ch=1 n=65 v=0
243503 Par ch=1 c=64 v=0
243512 On ch=1 n=77 v=64
243574 On ch=1 n=77 v=0
243592 On ch=1 n=65 v=54
243600 On ch=1 n=61 v=64
243614 On ch=1 n=49 v=48
243688 On ch=1 n=77 v=65
243706 On ch=1 n=65 v=0
243734 On ch=1 n=61 v=0
243736 On ch=1 n=77 v=0
243750 Par ch=1 c=64 v=127
243758 On ch=1 n=49 v=0
243788 On ch=1 n=64 v=78
243872 Par ch=1 c=64 v=0
243876 On ch=1 n=76 v=70
243888 On ch=1 n=64 v=0
243926 On ch=1 n=76 v=0
243954 On ch=1 n=64 v=78
243976 On ch=1 n=58 v=54
243988 On ch=1 n=46 v=50
244050 On ch=1 n=64 v=0
244056 On ch=1 n=76 v=45
244088 Par ch=1 c=64 v=127
244090 On ch=1 n=46 v=0
244102 On ch=1 n=58 v=0
244110 On ch=1 n=76 v=0
244144 On ch=1 n=61 v=88
244210 On ch=1 n=73 v=54
244226 Par ch=1 c=64 v=0
244244 On ch=1 n=61 v=0
244312 On ch=1 n=73 v=0
244315 On ch=1 n=61 v=65
244330 On ch=1 n=55 v=57
244344 On ch=1 n=43 v=50
244400 On ch=1 n=73 v=49
244436 On ch=1 n=43 v=0
244436 On ch=1 n=55 v=0
244442 On ch=1 n=61 v=0
244456 Par ch=1 c=64 v=127
244506 On ch=1 n=73 v=0
244514 On ch=1 n=60 v=72
244594 Par ch=1 c=64 v=0
244596 On ch=1 n=60 v=0
244596 On ch=1 n=72 v=63
244646 On ch=1 n=72 v=0
244680 On ch=1 n=60 v=68
244684 On ch=1 n=52 v=63
244700 On ch=1 n=40 v=58
244774 On ch=1 n=72 v=52
244782 On ch=1 n=60 v=0
244816 On ch=1 n=52 v=0
244816 On ch=1 n=40 v=0
244819 On ch=1 n=72 v=0
244826 Par ch=1 c=64 v=127
244872 On ch=1 n=58 v=71
244950 On ch=1 n=70 v=49
244978 On ch=1 n=58 v=0
245016 On ch=1 n=70 v=0
245026 Par ch=1 c=64 v=0
245040 On ch=1 n=58 v=59
245076 On ch=1 n=53 v=81
245088 On ch=1 n=41 v=53
245144 On ch=1 n=70 v=69
245160 On ch=1 n=58 v=0
245214 On ch=1 n=70 v=0
245248 On ch=1 n=56 v=77
245270 On ch=1 n=53 v=0
245270 Par ch=1 c=64 v=127
245310 On ch=1 n=41 v=0
245334 On ch=1 n=68 v=64
245340 On ch=1 n=56 v=0
245348 Par ch=1 c=64 v=0
245426 On ch=1 n=68 v=0
245428 On ch=1 n=56 v=66
245518 On ch=1 n=68 v=50
245564 On ch=1 n=68 v=0
245568 On ch=1 n=56 v=0
245578 Par ch=1 c=64 v=127
245620 On ch=1 n=55 v=70
245698 On ch=1 n=55 v=0
245720 On ch=1 n=67 v=61
245762 Par ch=1 c=64 v=0
245786 On ch=1 n=67 v=0
245804 On ch=1 n=55 v=57
245826 On ch=1 n=41 v=76
245828 On ch=1 n=29 v=71
245900 On ch=1 n=67 v=41
245922 On ch=1 n=55 v=0
245954 On ch=1 n=67 v=0
246000 On ch=1 n=53 v=98
246024 Par ch=1 c=64 v=127
246048 On ch=1 n=41 v=0
246068 On ch=1 n=29 v=0
246084 On ch=1 n=53 v=0
246096 On ch=1 n=65 v=71
246146 Par ch=1 c=64 v=0
246152 On ch=1 n=65 v=0
246176 On ch=1 n=53 v=80
246264 On ch=1 n=65 v=58
246272 On ch=1 n=53 v=0
246308 On ch=1 n=65 v=0
246346 Par ch=1 c=64 v=127
246354 On ch=1 n=51 v=85
246440 On ch=1 n=63 v=68
246454 Par ch=1 c=64 v=0
246466 On ch=1 n=51 v=0
246522 On ch=1 n=63 v=0
246544 On ch=1 n=51 v=69
246547 On ch=1 n=42 v=58
246551 On ch=1 n=30 v=58
246628 On ch=1 n=63 v=55
246682 On ch=1 n=51 v=0
246696 On ch=1 n=63 v=0
246730 Par ch=1 c=64 v=127
246748 On ch=1 n=50 v=75
246766 On ch=1 n=58 v=17
246776 On ch=1 n=42 v=0
246794 On ch=1 n=56 v=24
246796 On ch=1 n=30 v=0
246830 On ch=1 n=50 v=0
246838 Par ch=1 c=64 v=0
246840 On ch=1 n=62 v=55
246868 On ch=1 n=56 v=0
246880 On ch=1 n=58 v=0
246900 On ch=1 n=62 v=0
246918 On ch=1 n=50 v=68
247000 On ch=1 n=50 v=0
247018 On ch=1 n=62 v=55
247052 Par ch=1 c=64 v=127
247068 On ch=1 n=62 v=0
247114 Par ch=1 c=64 v=0
247128 On ch=1 n=51 v=55
247210 On ch=1 n=63 v=65
247242 On ch=1 n=51 v=0
247304 On ch=1 n=63 v=0
247320 On ch=1 n=51 v=47
247320 On ch=1 n=30 v=35
247323 On ch=1 n=42 v=31
247410 On ch=1 n=63 v=48
247464 On ch=1 n=51 v=0
247514 Par ch=1 c=64 v=127
247520 On ch=1 n=63 v=0
247532 On ch=1 n=50 v=61
247576 Par ch=1 c=64 v=0
247594 On ch=1 n=42 v=0
247616 On ch=1 n=50 v=0
247624 On ch=1 n=62 v=52
247642 On ch=1 n=30 v=0
247686 On ch=1 n=62 v=0
247700 On ch=1 n=50 v=56
247714 Par ch=1 c=64 v=127
247808 On ch=1 n=62 v=43
247820 On ch=1 n=50 v=0
247862 On ch=1 n=62 v=0
247924 On ch=1 n=48 v=49
248028 On ch=1 n=60 v=53
248048 On ch=1 n=48 v=0
248082 On ch=1 n=60 v=0
248190 Par ch=1 c=64 v=0
248230 On ch=1 n=47 v=31
248238 On ch=1 n=31 v=24
248240 On ch=1 n=59 v=41
248318 On ch=1 n=31 v=0
248356 On ch=1 n=43 v=42
248424 On ch=1 n=43 v=0
248460 On ch=1 n=31 v=31
248468 Par ch=1 c=64 v=127
248514 On ch=1 n=59 v=0
248522 On ch=1 n=31 v=0
248542 On ch=1 n=43 v=37
248590 On ch=1 n=47 v=0
248612 On ch=1 n=43 v=0
248628 On ch=1 n=49 v=47
248644 On ch=1 n=31 v=40
248708 On ch=1 n=31 v=0
248724 On ch=1 n=56 v=60
248756 On ch=1 n=43 v=32
248759 On ch=1 n=49 v=0
248826 On ch=1 n=43 v=0
248826 On ch=1 n=52 v=67
248856 On ch=1 n=31 v=47
248884 On ch=1 n=56 v=0
248908 On ch=1 n=31 v=0
248908 On ch=1 n=52 v=0
248912 On ch=1 n=49 v=58
248914 Par ch=1 c=64 v=0
248938 On ch=1 n=43 v=36
249008 On ch=1 n=43 v=0
249016 On ch=1 n=50 v=81
249030 On ch=1 n=31 v=47
249033 On ch=1 n=49 v=0
249090 On ch=1 n=31 v=0
249118 On ch=1 n=56 v=56
249134 On ch=1 n=43 v=35
249152 On ch=1 n=50 v=0
249204 On ch=1 n=43 v=0
249220 On ch=1 n=53 v=81
249223 On ch=1 n=31 v=52
249278 On ch=1 n=31 v=0
249288 On ch=1 n=56 v=0
249300 On ch=1 n=53 v=0
249310 On ch=1 n=50 v=65
249320 On ch=1 n=43 v=38
249384 On ch=1 n=50 v=0
249388 On ch=1 n=43 v=0
249410 On ch=1 n=48 v=62
249422 On ch=1 n=31 v=51
249474 On ch=1 n=31 v=0
249486 On ch=1 n=56 v=59
249492 On ch=1 n=48 v=0
249504 On ch=1 n=43 v=36
249566 On ch=1 n=56 v=0
249566 On ch=1 n=51 v=56
249569 On ch=1 n=43 v=0
249580 On ch=1 n=31 v=37
249642 On ch=1 n=31 v=0
249668 On ch=1 n=48 v=49
249668 On ch=1 n=43 v=38
249706 On ch=1 n=51 v=0
249744 On ch=1 n=43 v=0
249758 On ch=1 n=31 v=47
249774 On ch=1 n=47 v=64
249802 On ch=1 n=48 v=0
249820 On ch=1 n=31 v=0
249854 On ch=1 n=55 v=55
249862 On ch=1 n=43 v=34
249886 On ch=1 n=47 v=0
249938 On ch=1 n=43 v=0
249946 On ch=1 n=50 v=56
249946 On ch=1 n=31 v=49
249980 On ch=1 n=55 v=0
250006 On ch=1 n=31 v=0
250020 On ch=1 n=50 v=0
250040 On ch=1 n=43 v=37
250048 On ch=1 n=47 v=52
250126 On ch=1 n=47 v=0
250126 On ch=1 n=43 v=0
250138 On ch=1 n=49 v=61
250138 On ch=1 n=31 v=46
250198 On ch=1 n=31 v=0
250218 On ch=1 n=49 v=0
250228 On ch=1 n=43 v=36
250238 On ch=1 n=56 v=44
250308 On ch=1 n=43 v=0
250326 On ch=1 n=31 v=44
250326 On ch=1 n=52 v=51
250329 On ch=1 n=56 v=0
250384 On ch=1 n=31 v=0
250387 On ch=1 n=52 v=0
250408 On ch=1 n=49 v=48
250428 On ch=1 n=43 v=34
250480 On ch=1 n=49 v=0
250502 On ch=1 n=43 v=0
250514 On ch=1 n=50 v=58
250530 On ch=1 n=31 v=43
250588 On ch=1 n=31 v=0
250598 On ch=1 n=50 v=0
250604 On ch=1 n=56 v=41
250628 On ch=1 n=43 v=36
250700 On ch=1 n=43 v=0
250718 On ch=1 n=56 v=0
250718 On ch=1 n=53 v=49
250726 On ch=1 n=31 v=32
250776 On ch=1 n=53 v=0
250786 On ch=1 n=31 v=0
250792 On ch=1 n=50 v=55
250820 On ch=1 n=43 v=31
250860 On ch=1 n=50 v=0
250890 On ch=1 n=43 v=0
250904 On ch=1 n=48 v=41
250910 On ch=1 n=31 v=36
250978 On ch=1 n=31 v=0
250981 On ch=1 n=48 v=0
250981 On ch=1 n=56 v=38
251018 On ch=1 n=43 v=29
251062 On ch=1 n=56 v=0
251082 On ch=1 n=51 v=30
251090 On ch=1 n=43 v=0
251126 On ch=1 n=31 v=49
251148 On ch=1 n=51 v=0
251160 On ch=1 n=48 v=29
251188 On ch=1 n=31 v=0
251226 On ch=1 n=48 v=0
251270 On ch=1 n=43 v=34
251272 On ch=1 n=55 v=57
251280 On ch=1 n=50 v=39
251286 On ch=1 n=47 v=56
251326 Par ch=1 c=64 v=127
251334 On ch=1 n=47 v=0
251343 On ch=1 n=43 v=0
251344 On ch=1 n=50 v=0
251344 On ch=1 n=55 v=0
251364 On ch=1 n=31 v=35
251444 On ch=1 n=31 v=0
251492 On ch=1 n=43 v=42
251534 On ch=1 n=64 v=70
251554 On ch=1 n=43 v=0
251574 On ch=1 n=31 v=45
251600 On ch=1 n=64 v=0
251600 Par ch=1 c=64 v=0
251634 On ch=1 n=31 v=0
251676 On ch=1 n=43 v=33
251732 On ch=1 n=65 v=72
251748 On ch=1 n=43 v=0
251770 On ch=1 n=65 v=0
251773 On ch=1 n=31 v=56
251826 On ch=1 n=31 v=0
251854 On ch=1 n=43 v=43
251926 On ch=1 n=73 v=72
251936 On ch=1 n=64 v=68
251938 On ch=1 n=43 v=0
251960 On ch=1 n=31 v=57
251984 On ch=1 n=64 v=0
252002 On ch=1 n=73 v=0
252012 On ch=1 n=31 v=0
252040 On ch=1 n=43 v=52
252128 On ch=1 n=43 v=0
252134 On ch=1 n=74 v=89
252137 On ch=1 n=65 v=75
252142 On ch=1 n=31 v=71
252186 On ch=1 n=65 v=0
252192 On ch=1 n=31 v=0
252218 On ch=1 n=43 v=57
252246 On ch=1 n=74 v=0
252318 On ch=1 n=43 v=0
252321 On ch=1 n=73 v=76
252321 On ch=1 n=31 v=80
252321 On ch=1 n=76 v=86
252374 On ch=1 n=31 v=0
252390 On ch=1 n=73 v=0
252398 On ch=1 n=43 v=64
252434 On ch=1 n=76 v=0
252508 On ch=1 n=43 v=0
252510 On ch=1 n=31 v=91
252512 On ch=1 n=74 v=101
252514 On ch=1 n=77 v=100
252554 On ch=1 n=74 v=0
252596 On ch=1 n=77 v=0
252614 On ch=1 n=43 v=69
252628 On ch=1 n=31 v=0
252702 On ch=1 n=85 v=104
252705 On ch=1 n=76 v=100
252730 On ch=1 n=43 v=0
252730 On ch=1 n=31 v=91
252750 On ch=1 n=76 v=0
252806 On ch=1 n=85 v=0
252818 On ch=1 n=43 v=71
252830 Par ch=1 c=64 v=127
252860 On ch=1 n=31 v=0
252918 On ch=1 n=86 v=112
252921 On ch=1 n=77 v=111
252926 On ch=1 n=31 v=92
252928 On ch=1 n=43 v=0
252994 On ch=1 n=77 v=0
253048 On ch=1 n=86 v=0
253124 On ch=1 n=88 v=108
253126 On ch=1 n=43 v=87
253126 On ch=1 n=85 v=103
253200 On ch=1 n=85 v=0
253236 On ch=1 n=88 v=0
253276 On ch=1 n=43 v=0
253370 On ch=1 n=89 v=110
253374 On ch=1 n=86 v=107
253386 On ch=1 n=35 v=110
253440 On ch=1 n=31 v=0
253446 Par ch=1 c=64 v=0
253612 On ch=1 n=43 v=83
253778 On ch=1 n=43 v=0
253842 On ch=1 n=36 v=97
253904 On ch=1 n=35 v=0
254076 On ch=1 n=43 v=78
254106 Par ch=1 c=64 v=127
254136 On ch=1 n=86 v=0
254140 On ch=1 n=89 v=0
254188 On ch=1 n=43 v=0
254258 On ch=1 n=87 v=74
254264 On ch=1 n=30 v=76
254274 On ch=1 n=84 v=71
254300 On ch=1 n=87 v=0
254338 On ch=1 n=89 v=74
254418 On ch=1 n=84 v=0
254446 On ch=1 n=87 v=57
254460 On ch=1 n=89 v=0
254480 On ch=1 n=43 v=56
254542 On ch=1 n=30 v=0
254566 On ch=1 n=87 v=0
254590 On ch=1 n=86 v=85
254654 On ch=1 n=43 v=0
254686 On ch=1 n=86 v=0
254700 On ch=1 n=87 v=76
254712 On ch=1 n=36 v=0
254720 Par ch=1 c=64 v=0
254758 On ch=1 n=31 v=62
254796 On ch=1 n=86 v=95
254799 On ch=1 n=83 v=98
254830 On ch=1 n=87 v=0
254966 On ch=1 n=43 v=60
254968 Par ch=1 c=64 v=127
254970 On ch=1 n=31 v=0
254980 On ch=1 n=83 v=0
254982 On ch=1 n=86 v=0
255042 On ch=1 n=43 v=0
255096 On ch=1 n=31 v=43
255158 On ch=1 n=31 v=0
255200 On ch=1 n=43 v=55
255266 On ch=1 n=43 v=0
255274 Par ch=1 c=64 v=0
255304 On ch=1 n=49 v=59
255312 On ch=1 n=31 v=70
255368 On ch=1 n=31 v=0
255386 On ch=1 n=56 v=55
255406 On ch=1 n=49 v=0
255430 On ch=1 n=43 v=46
255482 On ch=1 n=52 v=69
255485 On ch=1 n=43 v=0
255500 On ch=1 n=56 v=0
255520 On ch=1 n=31 v=63
255570 On ch=1 n=31 v=0
255576 On ch=1 n=49 v=62
255592 On ch=1 n=52 v=0
255606 On ch=1 n=43 v=40
255672 On ch=1 n=43 v=0
255686 On ch=1 n=50 v=77
255698 On ch=1 n=31 v=68
255704 On ch=1 n=49 v=0
255750 On ch=1 n=31 v=0
255784 On ch=1 n=43 v=41
255786 On ch=1 n=56 v=52
255822 On ch=1 n=50 v=0
255852 On ch=1 n=43 v=0
255876 On ch=1 n=53 v=74
255890 On ch=1 n=31 v=57
255936 On ch=1 n=56 v=0
255942 On ch=1 n=31 v=0
255976 On ch=1 n=43 v=40
255979 On ch=1 n=53 v=0
255984 On ch=1 n=50 v=60
256042 On ch=1 n=43 v=0
256066 On ch=1 n=50 v=0
256078 On ch=1 n=31 v=50
256098 On ch=1 n=48 v=55
256134 On ch=1 n=31 v=0
256176 On ch=1 n=56 v=51
256178 On ch=1 n=43 v=37
256186 On ch=1 n=48 v=0
256244 On ch=1 n=43 v=0
256266 On ch=1 n=56 v=0
256274 On ch=1 n=51 v=46
256282 On ch=1 n=31 v=37
256342 On ch=1 n=31 v=0
256354 On ch=1 n=51 v=0
256378 On ch=1 n=48 v=32
256380 On ch=1 n=43 v=33
256442 On ch=1 n=43 v=0
256452 On ch=1 n=48 v=0
256466 On ch=1 n=31 v=37
256469 On ch=1 n=47 v=49
256532 On ch=1 n=31 v=0
256554 On ch=1 n=47 v=0
256554 On ch=1 n=55 v=46
256586 On ch=1 n=43 v=29
256638 On ch=1 n=55 v=0
256650 On ch=1 n=50 v=43
256653 On ch=1 n=43 v=0
256680 On ch=1 n=31 v=41
256712 On ch=1 n=50 v=0
256726 On ch=1 n=47 v=43
256740 On ch=1 n=31 v=0
256764 On ch=1 n=43 v=30
256808 On ch=1 n=47 v=0
256838 On ch=1 n=43 v=0
256852 On ch=1 n=49 v=43
256866 On ch=1 n=31 v=30
256910 On ch=1 n=49 v=0
256926 On ch=1 n=56 v=42
256932 On ch=1 n=31 v=0
256964 On ch=1 n=43 v=34
257014 On ch=1 n=56 v=0
257036 On ch=1 n=52 v=32
257038 On ch=1 n=43 v=0
257064 On ch=1 n=31 v=33
257100 On ch=1 n=49 v=46
257108 On ch=1 n=52 v=0
257130 On ch=1 n=31 v=0
257136 On ch=1 n=43 v=42
257174 On ch=1 n=49 v=0
257212 On ch=1 n=50 v=52
257220 On ch=1 n=43 v=0
257224 On ch=1 n=31 v=41
257290 On ch=1 n=50 v=0
257292 On ch=1 n=56 v=50
257318 On ch=1 n=31 v=0
257328 On ch=1 n=43 v=34
257406 On ch=1 n=43 v=0
257409 On ch=1 n=53 v=62
257415 On ch=1 n=31 v=54
257424 On ch=1 n=56 v=0
257468 On ch=1 n=53 v=0
257486 On ch=1 n=31 v=0
257494 On ch=1 n=50 v=52
257522 On ch=1 n=43 v=33
257556 On ch=1 n=50 v=0
257584 On ch=1 n=43 v=0
257604 On ch=1 n=48 v=50
257607 On ch=1 n=31 v=45
257664 On ch=1 n=31 v=0
257682 On ch=1 n=48 v=0
257684 On ch=1 n=56 v=51
257690 On ch=1 n=43 v=35
257758 On ch=1 n=43 v=0
257788 On ch=1 n=51 v=38
257792 On ch=1 n=31 v=46
257806 On ch=1 n=56 v=0
257854 On ch=1 n=31 v=0
257858 On ch=1 n=51 v=0
257860 On ch=1 n=48 v=52
257888 On ch=1 n=43 v=47
257932 On ch=1 n=48 v=0
257946 On ch=1 n=43 v=0
257988 On ch=1 n=47 v=61
258006 On ch=1 n=55 v=64
258012 On ch=1 n=31 v=53
258015 On ch=1 n=50 v=44
258032 On ch=1 n=47 v=0
258054 Par ch=1 c=64 v=127
258058 On ch=1 n=55 v=0
258072 On ch=1 n=31 v=0
258082 On ch=1 n=50 v=0
258122 On ch=1 n=43 v=48
258196 On ch=1 n=43 v=0
258212 On ch=1 n=64 v=68
258226 On ch=1 n=31 v=61
258288 On ch=1 n=31 v=0
258290 On ch=1 n=64 v=0
258342 On ch=1 n=43 v=48
258392 Par ch=1 c=64 v=0
258402 On ch=1 n=43 v=0
258416 On ch=1 n=65 v=75
258438 On ch=1 n=31 v=69
258454 On ch=1 n=65 v=0
258486 On ch=1 n=31 v=0
258524 On ch=1 n=43 v=50
258596 On ch=1 n=43 v=0
258602 On ch=1 n=73 v=81
258608 On ch=1 n=64 v=86
258626 On ch=1 n=31 v=74
258680 On ch=1 n=31 v=0
258696 On ch=1 n=64 v=0
258714 On ch=1 n=43 v=52
258720 On ch=1 n=73 v=0
258792 On ch=1 n=43 v=0
258808 On ch=1 n=74 v=100
258814 On ch=1 n=31 v=84
258822 On ch=1 n=65 v=54
258898 On ch=1 n=74 v=0
258898 On ch=1 n=43 v=69
258901 On ch=1 n=31 v=0
258906 On ch=1 n=65 v=0
258994 On ch=1 n=73 v=86
258994 On ch=1 n=76 v=94
259002 On ch=1 n=31 v=89
259008 On ch=1 n=43 v=0
259090 On ch=1 n=43 v=66
259102 On ch=1 n=73 v=0
259102 On ch=1 n=31 v=0
259105 On ch=1 n=76 v=0
259186 On ch=1 n=77 v=104
259188 On ch=1 n=43 v=0
259188 On ch=1 n=74 v=104
259196 On ch=1 n=31 v=89
259278 On ch=1 n=74 v=0
259292 On ch=1 n=77 v=0
259294 On ch=1 n=43 v=71
259326 On ch=1 n=31 v=0
259374 On ch=1 n=85 v=103
259382 On ch=1 n=76 v=98
259396 On ch=1 n=31 v=90
259406 On ch=1 n=43 v=0
259456 On ch=1 n=76 v=0
259478 On ch=1 n=85 v=0
259502 On ch=1 n=43 v=75
259524 On ch=1 n=31 v=0
259600 On ch=1 n=77 v=111
259600 On ch=1 n=86 v=114
259612 On ch=1 n=43 v=0
259612 On ch=1 n=31 v=92
259688 On ch=1 n=77 v=0
259722 On ch=1 n=86 v=0
259744 Par ch=1 c=64 v=127
259830 On ch=1 n=88 v=103
259832 On ch=1 n=85 v=100
259844 On ch=1 n=43 v=83
259916 On ch=1 n=85 v=0
259958 On ch=1 n=88 v=0
259970 On ch=1 n=43 v=0
260104 On ch=1 n=89 v=109
260104 On ch=1 n=86 v=103
260122 On ch=1 n=35 v=105
260174 Par ch=1 c=64 v=0
260176 On ch=1 n=31 v=0
260340 On ch=1 n=43 v=82
260454 On ch=1 n=43 v=0
260542 On ch=1 n=36 v=97
260564 On ch=1 n=35 v=0
260754 On ch=1 n=43 v=85
260778 On ch=1 n=86 v=0
260808 On ch=1 n=89 v=0
260820 Par ch=1 c=64 v=127
260862 On ch=1 n=43 v=0
260926 On ch=1 n=87 v=73
260932 On ch=1 n=84 v=79
260932 On ch=1 n=30 v=80
260966 On ch=1 n=87 v=0
260980 On ch=1 n=84 v=0
261002 On ch=1 n=36 v=0
261002 On ch=1 n=89 v=80
261078 On ch=1 n=87 v=49
261106 On ch=1 n=89 v=0
261132 On ch=1 n=43 v=72
261156 On ch=1 n=87 v=0
261164 On ch=1 n=86 v=76
261174 On ch=1 n=30 v=0
261204 On ch=1 n=86 v=0
261230 On ch=1 n=87 v=65
261250 On ch=1 n=43 v=0
261300 On ch=1 n=86 v=84
261308 On ch=1 n=83 v=115
261310 On ch=1 n=31 v=99
261342 Par ch=1 c=64 v=0
261370 On ch=1 n=87 v=0
261406 On ch=1 n=83 v=0
261410 On ch=1 n=86 v=0
261510 On ch=1 n=88 v=102
261512 On ch=1 n=85 v=95
261518 On ch=1 n=43 v=70
261574 On ch=1 n=85 v=0
261604 On ch=1 n=88 v=0
261650 On ch=1 n=43 v=0
261724 On ch=1 n=86 v=109
261724 On ch=1 n=89 v=109
261738 On ch=1 n=35 v=99
261820 On ch=1 n=31 v=0
261946 On ch=1 n=43 v=75
262076 On ch=1 n=43 v=0
262174 On ch=1 n=36 v=95
262214 On ch=1 n=35 v=0
262388 On ch=1 n=43 v=80
262406 On ch=1 n=86 v=0
262418 On ch=1 n=89 v=0
262434 Par ch=1 c=64 v=127
262494 On ch=1 n=43 v=0
262548 On ch=1 n=87 v=73
262562 On ch=1 n=84 v=63
262572 On ch=1 n=30 v=69
262588 On ch=1 n=87 v=0
262610 On ch=1 n=84 v=0
262630 On ch=1 n=89 v=81
262634 On ch=1 n=36 v=0
262714 On ch=1 n=87 v=54
262734 On ch=1 n=89 v=0
262768 On ch=1 n=43 v=65
262800 On ch=1 n=86 v=73
262816 On ch=1 n=87 v=0
262834 On ch=1 n=30 v=0
262840 On ch=1 n=86 v=0
262870 On ch=1 n=87 v=79
262902 On ch=1 n=43 v=0
262948 On ch=1 n=86 v=84
262951 On ch=1 n=83 v=112
262951 On ch=1 n=31 v=94
263016 On ch=1 n=87 v=0
263042 On ch=1 n=83 v=0
263052 On ch=1 n=86 v=0
263078 Par ch=1 c=64 v=0
263158 On ch=1 n=88 v=103
263158 On ch=1 n=85 v=98
263166 On ch=1 n=43 v=71
263240 On ch=1 n=88 v=0
263243 On ch=1 n=85 v=0
263380 On ch=1 n=43 v=0
263442 On ch=1 n=86 v=113
263442 On ch=1 n=89 v=111
263458 On ch=1 n=35 v=94
263596 On ch=1 n=31 v=0
263672 On ch=1 n=43 v=75
263854 On ch=1 n=43 v=0
263888 On ch=1 n=36 v=89
263950 On ch=1 n=35 v=0
264120 On ch=1 n=43 v=79
264152 On ch=1 n=86 v=0
264155 Par ch=1 c=64 v=127
264176 On ch=1 n=89 v=0
264230 On ch=1 n=43 v=0
264294 On ch=1 n=87 v=81
264316 On ch=1 n=30 v=79
264318 On ch=1 n=84 v=62
264340 On ch=1 n=87 v=0
264362 On ch=1 n=84 v=0
264368 On ch=1 n=89 v=88
264444 On ch=1 n=87 v=55
264514 On ch=1 n=36 v=0
264516 On ch=1 n=89 v=0
264536 On ch=1 n=86 v=84
264539 On ch=1 n=43 v=64
264556 On ch=1 n=87 v=0
264562 On ch=1 n=30 v=0
264622 On ch=1 n=43 v=0
264636 On ch=1 n=87 v=60
264644 On ch=1 n=86 v=0
264738 Par ch=1 c=64 v=0
264744 On ch=1 n=31 v=98
264744 On ch=1 n=86 v=89
264747 On ch=1 n=43 v=85
264747 On ch=1 n=83 v=108
264798 On ch=1 n=87 v=0
264862 On ch=1 n=83 v=0
264870 On ch=1 n=89 v=87
264906 On ch=1 n=86 v=0
264972 On ch=1 n=86 v=78
265018 On ch=1 n=43 v=0
265046 On ch=1 n=89 v=0
265080 On ch=1 n=84 v=89
265114 On ch=1 n=31 v=0
265120 On ch=1 n=86 v=0
265198 On ch=1 n=83 v=103
265230 On ch=1 n=84 v=0
265306 On ch=1 n=89 v=75
265316 On ch=1 n=83 v=0
265400 On ch=1 n=86 v=76
265456 On ch=1 n=89 v=0
265502 On ch=1 n=84 v=81
265532 On ch=1 n=86 v=0
265598 On ch=1 n=83 v=91
265614 On ch=1 n=84 v=0
265672 On ch=1 n=83 v=0
265698 On ch=1 n=89 v=64
265790 On ch=1 n=86 v=58
265830 On ch=1 n=89 v=0
265884 On ch=1 n=86 v=0
265892 On ch=1 n=84 v=71
265984 On ch=1 n=84 v=0
265990 On ch=1 n=83 v=92
266036 On ch=1 n=83 v=0
266092 On ch=1 n=86 v=60
266178 On ch=1 n=86 v=0
266178 On ch=1 n=83 v=86
266228 On ch=1 n=83 v=0
266268 On ch=1 n=79 v=71
266356 On ch=1 n=79 v=0
266388 On ch=1 n=80 v=69
266454 On ch=1 n=80 v=0
266476 On ch=1 n=82 v=60
266588 On ch=1 n=80 v=73
266608 On ch=1 n=82 v=0
266690 On ch=1 n=79 v=74
266728 On ch=1 n=80 v=0
266748 On ch=1 n=79 v=0
266782 On ch=1 n=77 v=56
266834 On ch=1 n=77 v=0
266874 On ch=1 n=80 v=59
266960 On ch=1 n=77 v=61
267012 On ch=1 n=80 v=0
267062 On ch=1 n=75 v=51
267082 On ch=1 n=77 v=0
267126 On ch=1 n=75 v=0
267160 On ch=1 n=74 v=57
267210 On ch=1 n=74 v=0
267250 On ch=1 n=77 v=58
267356 On ch=1 n=74 v=54
267368 On ch=1 n=77 v=0
267420 On ch=1 n=74 v=0
267442 On ch=1 n=72 v=49
267500 On ch=1 n=72 v=0
267528 On ch=1 n=71 v=59
267585 On ch=1 n=71 v=0
267620 On ch=1 n=74 v=52
267698 On ch=1 n=71 v=50
267700 On ch=1 n=74 v=0
267758 On ch=1 n=71 v=0
267794 On ch=1 n=67 v=53
267898 On ch=1 n=67 v=0
267898 On ch=1 n=68 v=60
267960 On ch=1 n=68 v=0
267988 On ch=1 n=70 v=55
268102 On ch=1 n=68 v=61
268128 On ch=1 n=70 v=0
268202 On ch=1 n=67 v=58
268206 On ch=1 n=68 v=0
268264 On ch=1 n=67 v=0
268302 On ch=1 n=65 v=37
268374 On ch=1 n=65 v=0
268374 On ch=1 n=68 v=57
268454 On ch=1 n=65 v=52
268516 On ch=1 n=68 v=0
268566 On ch=1 n=63 v=67
268588 On ch=1 n=65 v=0
268636 On ch=1 n=63 v=0
268668 On ch=1 n=62 v=63
268722 On ch=1 n=62 v=0
268742 On ch=1 n=65 v=62
268832 On ch=1 n=62 v=46
268884 On ch=1 n=65 v=0
268928 On ch=1 n=60 v=65
268936 On ch=1 n=62 v=0
269000 On ch=1 n=60 v=0
269018 On ch=1 n=59 v=61
269084 On ch=1 n=59 v=0
269090 On ch=1 n=62 v=68
269180 On ch=1 n=59 v=63
269218 On ch=1 n=62 v=0
269244 On ch=1 n=59 v=0
269278 On ch=1 n=55 v=73
269384 On ch=1 n=56 v=76
269398 On ch=1 n=55 v=0
269466 On ch=1 n=58 v=62
269476 On ch=1 n=56 v=0
269562 On ch=1 n=56 v=59
269604 On ch=1 n=58 v=0
269666 On ch=1 n=55 v=78
269690 On ch=1 n=56 v=0
269716 On ch=1 n=55 v=0
269748 On ch=1 n=53 v=80
269844 On ch=1 n=51 v=73
269868 On ch=1 n=53 v=0
269934 On ch=1 n=50 v=74
269968 On ch=1 n=51 v=0
269988 On ch=1 n=50 v=0
270010 On ch=1 n=48 v=71
270130 On ch=1 n=47 v=74
270142 On ch=1 n=48 v=0
270204 On ch=1 n=48 v=64
270242 On ch=1 n=47 v=0
270304 On ch=1 n=47 v=52
270316 On ch=1 n=48 v=0
270372 On ch=1 n=47 v=0
270394 On ch=1 n=44 v=79
270472 On ch=1 n=44 v=0
270502 On ch=1 n=43 v=65
270582 On ch=1 n=43 v=0
270584 On ch=1 n=41 v=61
270666 On ch=1 n=41 v=0
270672 On ch=1 n=39 v=66
270786 On ch=1 n=39 v=0
270796 On ch=1 n=38 v=49
270872 On ch=1 n=38 v=0
270892 On ch=1 n=36 v=60
270914 On ch=1 n=60 v=55
271000 On ch=1 n=48 v=34
271026 On ch=1 n=36 v=0
271094 On ch=1 n=48 v=0
271108 On ch=1 n=36 v=52
271186 On ch=1 n=36 v=0
271220 On ch=1 n=48 v=30
271306 On ch=1 n=48 v=0
271328 On ch=1 n=36 v=45
271392 On ch=1 n=36 v=0
271424 On ch=1 n=48 v=32
271468 On ch=1 n=60 v=0
271502 On ch=1 n=48 v=0
271516 On ch=1 n=58 v=50
271518 On ch=1 n=64 v=42
271536 On ch=1 n=36 v=46
271574 On ch=1 n=58 v=0
271576 On ch=1 n=64 v=0
271592 On ch=1 n=36 v=0
271628 On ch=1 n=48 v=36
271692 On ch=1 n=56 v=48
271702 On ch=1 n=48 v=0
271704 On ch=1 n=65 v=35
271732 On ch=1 n=36 v=42
271742 On ch=1 n=56 v=0
271758 On ch=1 n=65 v=0
271788 On ch=1 n=36 v=0
271818 On ch=1 n=48 v=32
271886 On ch=1 n=64 v=55
271891 On ch=1 n=67 v=44
271902 On ch=1 n=48 v=0
271918 On ch=1 n=36 v=39
271954 On ch=1 n=67 v=0
271956 On ch=1 n=64 v=0
271978 On ch=1 n=36 v=0
271994 On ch=1 n=48 v=41
272086 On ch=1 n=68 v=45
272089 On ch=1 n=65 v=50
272096 On ch=1 n=48 v=0
272098 On ch=1 n=36 v=40
272138 On ch=1 n=65 v=0
272142 On ch=1 n=68 v=0
272162 On ch=1 n=36 v=0
272182 On ch=1 n=48 v=38
272276 On ch=1 n=48 v=0
272294 On ch=1 n=36 v=42
272296 On ch=1 n=71 v=50
272302 On ch=1 n=62 v=31
272350 On ch=1 n=71 v=0
272352 On ch=1 n=36 v=0
272372 On ch=1 n=62 v=0
272376 On ch=1 n=48 v=34
272474 On ch=1 n=48 v=0
272480 On ch=1 n=63 v=53
272488 On ch=1 n=72 v=53
272488 On ch=1 n=36 v=46
272528 On ch=1 n=63 v=0
272542 On ch=1 n=72 v=0
272548 On ch=1 n=36 v=0
272580 On ch=1 n=48 v=34
272674 On ch=1 n=48 v=0
272698 On ch=1 n=36 v=52
272701 On ch=1 n=64 v=70
272705 On ch=1 n=72 v=61
272760 On ch=1 n=36 v=0
272798 On ch=1 n=48 v=42
272836 Par ch=1 c=64 v=127
272884 On ch=1 n=48 v=0
272884 On ch=1 n=64 v=0
272900 On ch=1 n=72 v=0
272906 On ch=1 n=36 v=54
272962 On ch=1 n=36 v=0
272990 Par ch=1 c=64 v=0
272990 On ch=1 n=48 v=38
273086 On ch=1 n=48 v=0
273104 On ch=1 n=36 v=50
273126 On ch=1 n=70 v=43
273138 On ch=1 n=76 v=41
273156 On ch=1 n=36 v=0
273184 On ch=1 n=70 v=0
273188 On ch=1 n=76 v=0
273192 On ch=1 n=48 v=35
273299 On ch=1 n=48 v=0
273310 On ch=1 n=36 v=49
273316 On ch=1 n=68 v=50
273326 On ch=1 n=77 v=56
273364 On ch=1 n=68 v=0
273368 On ch=1 n=36 v=0
273370 On ch=1 n=77 v=0
273392 On ch=1 n=48 v=35
273504 On ch=1 n=48 v=0
273512 On ch=1 n=36 v=44
273516 On ch=1 n=79 v=54
273520 On ch=1 n=76 v=41
273568 On ch=1 n=79 v=0
273568 On ch=1 n=36 v=0
273571 On ch=1 n=76 v=0
273594 On ch=1 n=48 v=39
273690 On ch=1 n=48 v=0
273692 On ch=1 n=80 v=66
273694 On ch=1 n=77 v=67
273716 On ch=1 n=36 v=45
273732 On ch=1 n=80 v=0
273734 On ch=1 n=77 v=0
273772 On ch=1 n=36 v=0
273798 On ch=1 n=48 v=39
273876 On ch=1 n=48 v=0
273884 On ch=1 n=83 v=97
273898 On ch=1 n=74 v=49
273908 On ch=1 n=36 v=45
273922 On ch=1 n=83 v=0
273948 On ch=1 n=74 v=0
273960 On ch=1 n=36 v=0
273992 On ch=1 n=48 v=36
274068 On ch=1 n=48 v=0
274098 On ch=1 n=84 v=76
274101 On ch=1 n=36 v=47
274104 On ch=1 n=79 v=43
274108 On ch=1 n=72 v=42
274116 On ch=1 n=75 v=46
274184 On ch=1 n=36 v=0
274187 Par ch=1 c=64 v=127
274202 On ch=1 n=48 v=27
274234 On ch=1 n=84 v=0
274246 On ch=1 n=79 v=0
274268 On ch=1 n=75 v=0
274276 On ch=1 n=48 v=0
274310 On ch=1 n=72 v=0
274322 On ch=1 n=36 v=36
274384 On ch=1 n=36 v=0
274420 On ch=1 n=48 v=35
274486 On ch=1 n=48 v=0
274508 On ch=1 n=79 v=73
274514 On ch=1 n=77 v=51
274518 On ch=1 n=67 v=36
274532 On ch=1 n=71 v=27
274546 On ch=1 n=38 v=46
274612 On ch=1 n=38 v=0
274634 On ch=1 n=50 v=51
274698 On ch=1 n=50 v=0
274720 On ch=1 n=77 v=0
274726 On ch=1 n=38 v=37
274760 On ch=1 n=71 v=0
274768 On ch=1 n=67 v=0
274774 On ch=1 n=79 v=0
274790 On ch=1 n=50 v=55
274802 On ch=1 n=38 v=0
274846 On ch=1 n=50 v=0
274878 Par ch=1 c=64 v=0
274910 On ch=1 n=39 v=62
274920 On ch=1 n=67 v=53
274920 On ch=1 n=75 v=67
274930 On ch=1 n=72 v=42
274996 On ch=1 n=51 v=59
275014 On ch=1 n=39 v=0
275060 On ch=1 n=72 v=0
275080 Par ch=1 c=64 v=127
275088 On ch=1 n=51 v=0
275094 On ch=1 n=75 v=0
275098 On ch=1 n=39 v=54
275148 On ch=1 n=67 v=0
275174 On ch=1 n=51 v=43
275186 On ch=1 n=39 v=0
275280 On ch=1 n=51 v=0
275296 On ch=1 n=68 v=55
275302 On ch=1 n=74 v=80
275304 On ch=1 n=65 v=61
275306 On ch=1 n=41 v=69
275374 On ch=1 n=41 v=0
275398 On ch=1 n=53 v=77
275440 On ch=1 n=74 v=0
275448 On ch=1 n=53 v=0
275468 On ch=1 n=68 v=0
275488 On ch=1 n=65 v=0
275492 On ch=1 n=41 v=71
275568 On ch=1 n=41 v=0
275578 On ch=1 n=53 v=71
275634 On ch=1 n=53 v=0
275662 Par ch=1 c=64 v=0
275674 On ch=1 n=72 v=81
275682 On ch=1 n=63 v=68
275682 On ch=1 n=43 v=79
275688 On ch=1 n=67 v=72
275776 On ch=1 n=55 v=63
275800 On ch=1 n=43 v=0
275862 On ch=1 n=55 v=0
275862 On ch=1 n=43 v=75
275894 Par ch=1 c=64 v=127
275934 On ch=1 n=55 v=67
275984 On ch=1 n=43 v=0
276034 On ch=1 n=55 v=0
276042 On ch=1 n=66 v=64
276056 On ch=1 n=44 v=84
276092 Par ch=1 c=64 v=0
276110 On ch=1 n=67 v=0
276142 On ch=1 n=56 v=74
276180 On ch=1 n=44 v=0
276240 On ch=1 n=44 v=74
276248 On ch=1 n=56 v=0
276308 Par ch=1 c=64 v=127
276312 On ch=1 n=56 v=68
276388 On ch=1 n=56 v=0
276394 On ch=1 n=44 v=0
276420 On ch=1 n=42 v=73
276442 On ch=1 n=69 v=48
276446 Par ch=1 c=64 v=0
276514 On ch=1 n=54 v=59
276517 On ch=1 n=66 v=0
276534 On ch=1 n=42 v=0
276602 On ch=1 n=42 v=69
276624 On ch=1 n=54 v=0
276646 Par ch=1 c=64 v=127
276666 On ch=1 n=72 v=0
276712 On ch=1 n=54 v=54
276736 On ch=1 n=63 v=0
276736 On ch=1 n=42 v=0
276800 Par ch=1 c=64 v=0
276818 On ch=1 n=54 v=0
276818 On ch=1 n=71 v=64
276828 On ch=1 n=62 v=45
276830 On ch=1 n=65 v=40
276844 On ch=1 n=43 v=50
276854 On ch=1 n=69 v=0
276904 On ch=1 n=43 v=0
276922 On ch=1 n=55 v=57
276980 On ch=1 n=55 v=0
277010 On ch=1 n=43 v=48
277016 Par ch=1 c=64 v=127
277019 On ch=1 n=65 v=0
277040 On ch=1 n=62 v=0
277070 On ch=1 n=71 v=0
277073 On ch=1 n=55 v=57
277118 On ch=1 n=43 v=0
277126 On ch=1 n=55 v=0
277192 On ch=1 n=72 v=80
277204 On ch=1 n=60 v=47
277214 On ch=1 n=63 v=43
277234 On ch=1 n=72 v=0
277252 On ch=1 n=38 v=44
277258 On ch=1 n=36 v=34
277266 On ch=1 n=63 v=0
277270 On ch=1 n=60 v=0
277276 Par ch=1 c=64 v=0
277302 On ch=1 n=38 v=0
277324 On ch=1 n=36 v=0
277340 On ch=1 n=48 v=40
277400 On ch=1 n=48 v=0
277416 On ch=1 n=36 v=56
277420 On ch=1 n=60 v=88
277516 On ch=1 n=36 v=0
277524 On ch=1 n=48 v=36
277596 On ch=1 n=48 v=0
277602 On ch=1 n=36 v=53
277692 On ch=1 n=36 v=0
277698 On ch=1 n=48 v=32
277786 On ch=1 n=60 v=0
277786 On ch=1 n=58 v=54
277794 On ch=1 n=48 v=0
277798 On ch=1 n=64 v=65
277808 On ch=1 n=36 v=38
277844 On ch=1 n=58 v=0
277862 On ch=1 n=64 v=0
277868 On ch=1 n=36 v=0
277898 On ch=1 n=48 v=39
277992 On ch=1 n=56 v=53
277996 On ch=1 n=65 v=60
278000 On ch=1 n=48 v=0
278006 On ch=1 n=36 v=55
278040 On ch=1 n=56 v=0
278046 On ch=1 n=65 v=0
278064 On ch=1 n=36 v=0
278102 On ch=1 n=48 v=34
278192 On ch=1 n=67 v=52
278195 On ch=1 n=64 v=55
278206 On ch=1 n=48 v=0
278206 On ch=1 n=36 v=50
278252 On ch=1 n=67 v=0
278255 On ch=1 n=64 v=0
278266 On ch=1 n=36 v=0
278290 On ch=1 n=48 v=39
278372 On ch=1 n=68 v=54
278384 On ch=1 n=65 v=44
278398 On ch=1 n=36 v=45
278404 On ch=1 n=48 v=0
278430 On ch=1 n=68 v=0
278433 On ch=1 n=65 v=0
278464 On ch=1 n=36 v=0
278490 On ch=1 n=48 v=39
278564 On ch=1 n=71 v=67
278566 On ch=1 n=62 v=56
278590 On ch=1 n=48 v=0
278590 On ch=1 n=36 v=47
278616 On ch=1 n=62 v=0
278616 On ch=1 n=71 v=0
278664 On ch=1 n=36 v=0
278692 On ch=1 n=48 v=33
278762 On ch=1 n=72 v=57
278770 On ch=1 n=63 v=38
278778 On ch=1 n=36 v=45
278782 On ch=1 n=48 v=0
278812 On ch=1 n=72 v=0
278828 On ch=1 n=63 v=0
278846 On ch=1 n=36 v=0
278878 On ch=1 n=48 v=36
278978 On ch=1 n=72 v=64
278978 On ch=1 n=64 v=71
278984 On ch=1 n=48 v=0
278986 On ch=1 n=36 v=52
279044 On ch=1 n=36 v=0
279082 On ch=1 n=48 v=35
279106 On ch=1 n=64 v=0
279106 Par ch=1 c=64 v=127
279138 On ch=1 n=72 v=0
279174 On ch=1 n=48 v=0
279190 On ch=1 n=36 v=61
279244 On ch=1 n=36 v=0
279278 On ch=1 n=48 v=39
279304 Par ch=1 c=64 v=0
279368 On ch=1 n=76 v=67
279368 On ch=1 n=70 v=54
279372 On ch=1 n=48 v=0
279380 On ch=1 n=36 v=59
279420 On ch=1 n=70 v=0
279420 On ch=1 n=76 v=0
279434 On ch=1 n=36 v=0
279478 On ch=1 n=48 v=36
279548 On ch=1 n=68 v=57
279554 On ch=1 n=48 v=0
279557 On ch=1 n=77 v=67
279574 On ch=1 n=36 v=60
279594 On ch=1 n=68 v=0
279608 On ch=1 n=77 v=0
279626 On ch=1 n=36 v=0
279670 On ch=1 n=48 v=36
279742 On ch=1 n=79 v=75
279750 On ch=1 n=76 v=49
279752 On ch=1 n=48 v=0
279764 On ch=1 n=36 v=54
279794 On ch=1 n=79 v=0
279798 On ch=1 n=76 v=0
279818 On ch=1 n=36 v=0
279846 On ch=1 n=48 v=42
279932 On ch=1 n=77 v=64
279938 On ch=1 n=80 v=56
279941 On ch=1 n=48 v=0
279958 On ch=1 n=36 v=50
279970 On ch=1 n=77 v=0
279984 On ch=1 n=80 v=0
280012 On ch=1 n=36 v=0
280038 On ch=1 n=48 v=37
280118 On ch=1 n=83 v=89
280124 On ch=1 n=48 v=0
280127 On ch=1 n=74 v=52
280140 On ch=1 n=36 v=42
280162 On ch=1 n=83 v=0
280180 On ch=1 n=74 v=0
280204 On ch=1 n=36 v=0
280236 On ch=1 n=48 v=34
280322 On ch=1 n=48 v=0
280327 On ch=1 n=84 v=78
280342 On ch=1 n=79 v=49
280348 On ch=1 n=36 v=41
280352 On ch=1 n=72 v=46
280364 On ch=1 n=75 v=27
280414 On ch=1 n=36 v=0
280456 Par ch=1 c=64 v=127
280458 On ch=1 n=72 v=0
280458 On ch=1 n=48 v=29
280472 On ch=1 n=84 v=0
280492 On ch=1 n=75 v=0
280495 On ch=1 n=79 v=0
280538 On ch=1 n=48 v=0
280570 On ch=1 n=36 v=27
280641 On ch=1 n=36 v=0
280648 On ch=1 n=48 v=26
280738 On ch=1 n=48 v=0
280770 On ch=1 n=68 v=41
280770 On ch=1 n=80 v=59
280778 Par ch=1 c=64 v=0
280778 On ch=1 n=36 v=30
280784 On ch=1 n=75 v=37
280910 On ch=1 n=36 v=0
280916 On ch=1 n=48 v=32
280978 Par ch=1 c=64 v=127
280990 On ch=1 n=48 v=0
281010 On ch=1 n=36 v=38
281030 On ch=1 n=80 v=0
281038 On ch=1 n=68 v=0
281086 On ch=1 n=75 v=0
281124 On ch=1 n=48 v=15
281134 On ch=1 n=36 v=0
281200 On ch=1 n=48 v=0
281218 On ch=1 n=68 v=42
281218 On ch=1 n=77 v=63
281240 Par ch=1 c=64 v=0
281244 On ch=1 n=37 v=49
281250 On ch=1 n=73 v=26
281342 On ch=1 n=49 v=50
281364 On ch=1 n=37 v=0
281418 On ch=1 n=49 v=0
281440 Par ch=1 c=64 v=127
281446 On ch=1 n=37 v=46
281484 On ch=1 n=73 v=0
281492 On ch=1 n=68 v=0
281495 On ch=1 n=77 v=0
281518 On ch=1 n=37 v=0
281521 On ch=1 n=49 v=46
281580 On ch=1 n=49 v=0
281636 On ch=1 n=75 v=67
281648 On ch=1 n=66 v=41
281650 On ch=1 n=39 v=58
281656 Par ch=1 c=64 v=0
281668 On ch=1 n=72 v=35
281724 On ch=1 n=39 v=0
281726 On ch=1 n=51 v=48
281748 On ch=1 n=72 v=0
281800 On ch=1 n=51 v=0
281834 On ch=1 n=39 v=47
281840 Par ch=1 c=64 v=127
281918 On ch=1 n=75 v=0
281918 On ch=1 n=51 v=53
281921 On ch=1 n=66 v=0
281948 On ch=1 n=39 v=0
282004 On ch=1 n=51 v=0
282007 Par ch=1 c=64 v=0
282022 On ch=1 n=73 v=73
282034 On ch=1 n=65 v=59
282048 On ch=1 n=68 v=39
282051 On ch=1 n=41 v=68
282108 On ch=1 n=41 v=0
282138 On ch=1 n=53 v=77
282190 On ch=1 n=53 v=0
282193 Par ch=1 c=64 v=127
282224 On ch=1 n=65 v=0
282238 On ch=1 n=41 v=69
282258 On ch=1 n=68 v=0
282261 On ch=1 n=73 v=0
282318 On ch=1 n=53 v=65
282344 On ch=1 n=41 v=0
282370 On ch=1 n=53 v=0
282428 On ch=1 n=70 v=68
282428 On ch=1 n=42 v=71
282430 On ch=1 n=61 v=68
282442 On ch=1 n=66 v=39
282454 Par ch=1 c=64 v=0
282530 On ch=1 n=54 v=70
282564 On ch=1 n=42 v=0
282600 On ch=1 n=54 v=0
282628 On ch=1 n=42 v=60
282638 Par ch=1 c=64 v=127
282662 On ch=1 n=66 v=0
282664 On ch=1 n=70 v=0
282688 On ch=1 n=42 v=0
282692 On ch=1 n=54 v=73
282702 On ch=1 n=61 v=0
282788 On ch=1 n=54 v=0
282820 On ch=1 n=68 v=66
282824 On ch=1 n=44 v=68
282828 On ch=1 n=61 v=45
282838 Par ch=1 c=64 v=0
282844 On ch=1 n=65 v=46
282888 On ch=1 n=44 v=0
282904 On ch=1 n=56 v=49
282998 On ch=1 n=56 v=0
283004 On ch=1 n=44 v=52
283054 Par ch=1 c=64 v=127
283083 On ch=1 n=44 v=0
283098 On ch=1 n=56 v=32
283176 On ch=1 n=61 v=0
283200 On ch=1 n=56 v=0
283218 On ch=1 n=44 v=47
283221 Par ch=1 c=64 v=0
283224 On ch=1 n=63 v=47
283227 On ch=1 n=65 v=0
283230 On ch=1 n=60 v=49
283294 On ch=1 n=44 v=0
283334 On ch=1 n=56 v=33
283406 On ch=1 n=56 v=0
283426 On ch=1 n=63 v=0
283428 Par ch=1 c=64 v=127
283428 On ch=1 n=44 v=48
283438 On ch=1 n=60 v=0
283468 On ch=1 n=68 v=0
283504 On ch=1 n=44 v=0
283532 On ch=1 n=56 v=33
283618 On ch=1 n=56 v=0
283638 Par ch=1 c=64 v=0
283644 On ch=1 n=70 v=44
283654 On ch=1 n=44 v=48
283668 On ch=1 n=62 v=39
283678 On ch=1 n=65 v=34
283750 On ch=1 n=44 v=0
283764 On ch=1 n=62 v=0
283778 On ch=1 n=56 v=30
283804 On ch=1 n=65 v=0
283822 Par ch=1 c=64 v=127
283846 On ch=1 n=70 v=0
283849 On ch=1 n=56 v=0
283884 On ch=1 n=44 v=30
283968 On ch=1 n=44 v=0
284114 On ch=1 n=82 v=49
284120 On ch=1 n=70 v=28
284134 On ch=1 n=77 v=41
284142 On ch=1 n=38 v=50
284192 On ch=1 n=38 v=0
284230 On ch=1 n=50 v=43
284290 On ch=1 n=50 v=0
284340 On ch=1 n=38 v=39
284396 On ch=1 n=50 v=42
284398 On ch=1 n=70 v=0
284404 On ch=1 n=77 v=0
284406 On ch=1 n=82 v=0
284410 On ch=1 n=38 v=0
284458 On ch=1 n=50 v=0
284514 On ch=1 n=78 v=69
284524 On ch=1 n=39 v=60
284527 Par ch=1 c=64 v=0
284530 On ch=1 n=70 v=47
284536 On ch=1 n=75 v=41
284622 On ch=1 n=51 v=47
284650 On ch=1 n=39 v=0
284672 On ch=1 n=75 v=0
284692 On ch=1 n=51 v=0
284720 On ch=1 n=39 v=55
284727 Par ch=1 c=64 v=127
284778 On ch=1 n=70 v=0
284810 On ch=1 n=51 v=36
284813 On ch=1 n=39 v=0
284836 On ch=1 n=78 v=0
284896 On ch=1 n=51 v=0
284920 On ch=1 n=77 v=83
284926 On ch=1 n=68 v=53
284929 On ch=1 n=41 v=70
284932 On ch=1 n=74 v=58
284958 Par ch=1 c=64 v=0
284998 On ch=1 n=41 v=0
285028 On ch=1 n=53 v=71
285068 On ch=1 n=74 v=0
285080 On ch=1 n=53 v=0
285128 On ch=1 n=41 v=50
285144 Par ch=1 c=64 v=127
285180 On ch=1 n=68 v=0
285204 On ch=1 n=77 v=0
285204 On ch=1 n=53 v=76
285236 On ch=1 n=41 v=0
285252 On ch=1 n=53 v=0
285316 On ch=1 n=75 v=78
285322 On ch=1 n=42 v=66
285326 On ch=1 n=66 v=54
285329 On ch=1 n=70 v=50
285342 Par ch=1 c=64 v=0
285406 On ch=1 n=54 v=62
285438 On ch=1 n=42 v=0
285484 On ch=1 n=54 v=0
285510 On ch=1 n=75 v=0
285512 Par ch=1 c=64 v=127
285514 On ch=1 n=42 v=52
285520 On ch=1 n=70 v=0
285582 On ch=1 n=66 v=0
285610 On ch=1 n=54 v=67
285628 On ch=1 n=42 v=0
285682 On ch=1 n=54 v=0
285726 On ch=1 n=44 v=75
285734 On ch=1 n=71 v=85
285740 On ch=1 n=63 v=69
285740 On ch=1 n=68 v=61
285743 Par ch=1 c=64 v=0
285818 On ch=1 n=56 v=56
285840 On ch=1 n=44 v=0
285900 On ch=1 n=56 v=0
285922 On ch=1 n=44 v=55
285925 Par ch=1 c=64 v=127
285950 On ch=1 n=63 v=0
285972 On ch=1 n=68 v=0
286020 On ch=1 n=71 v=0
286034 On ch=1 n=56 v=55
286056 On ch=1 n=44 v=0
286110 On ch=1 n=70 v=69
286112 Par ch=1 c=64 v=0
286112 On ch=1 n=63 v=70
286118 On ch=1 n=56 v=0
286122 On ch=1 n=66 v=50
286142 On ch=1 n=46 v=50
286232 On ch=1 n=46 v=0
286232 On ch=1 n=58 v=48
286332 On ch=1 n=46 v=45
286346 On ch=1 n=58 v=0
286358 Par ch=1 c=64 v=127
286412 On ch=1 n=58 v=43
286430 On ch=1 n=66 v=0
286430 On ch=1 n=46 v=0
286488 On ch=1 n=63 v=0
286512 On ch=1 n=65 v=58
286516 On ch=1 n=58 v=0
286520 On ch=1 n=46 v=38
286524 On ch=1 n=62 v=52
286606 Par ch=1 c=64 v=0
286614 On ch=1 n=58 v=21
286644 On ch=1 n=46 v=0
286714 On ch=1 n=46 v=47
286722 On ch=1 n=58 v=0
286758 Par ch=1 c=64 v=127
286786 On ch=1 n=62 v=0
286836 On ch=1 n=65 v=0
286842 On ch=1 n=58 v=41
286856 On ch=1 n=46 v=0
286896 Par ch=1 c=64 v=0
286942 On ch=1 n=58 v=0
286948 On ch=1 n=46 v=31
286950 On ch=1 n=72 v=65
286958 On ch=1 n=64 v=58
286964 On ch=1 n=67 v=47
286988 On ch=1 n=70 v=0
287024 On ch=1 n=64 v=0
287034 On ch=1 n=67 v=0
287070 On ch=1 n=58 v=23
287088 On ch=1 n=46 v=0
287094 Par ch=1 c=64 v=127
287100 On ch=1 n=72 v=0
287154 On ch=1 n=58 v=0
287194 On ch=1 n=46 v=28
287278 On ch=1 n=58 v=29
287322 On ch=1 n=46 v=0
287356 On ch=1 n=58 v=0
287408 On ch=1 n=84 v=79
287410 On ch=1 n=72 v=58
287422 On ch=1 n=79 v=63
287428 On ch=1 n=40 v=83
287470 On ch=1 n=40 v=0
287534 On ch=1 n=52 v=32
287600 On ch=1 n=52 v=0
287632 On ch=1 n=40 v=69
287660 On ch=1 n=72 v=0
287662 On ch=1 n=84 v=0
287674 On ch=1 n=40 v=0
287686 On ch=1 n=52 v=63
287724 On ch=1 n=79 v=0
287752 On ch=1 n=52 v=0
287786 Par ch=1 c=64 v=0
287814 On ch=1 n=80 v=79
287814 On ch=1 n=41 v=83
287820 On ch=1 n=72 v=64
287824 On ch=1 n=77 v=67
287926 On ch=1 n=53 v=79
287934 On ch=1 n=41 v=0
287970 Par ch=1 c=64 v=127
287972 On ch=1 n=77 v=0
287978 On ch=1 n=53 v=0
288016 On ch=1 n=41 v=65
288030 On ch=1 n=72 v=0
288070 On ch=1 n=80 v=0
288116 On ch=1 n=41 v=0
288130 On ch=1 n=53 v=78
288176 On ch=1 n=53 v=0
288218 On ch=1 n=79 v=94
288221 On ch=1 n=76 v=63
288228 On ch=1 n=43 v=73
288228 On ch=1 n=70 v=65
288262 Par ch=1 c=64 v=0
288318 On ch=1 n=55 v=62
288320 On ch=1 n=43 v=0
288370 On ch=1 n=76 v=0
288392 On ch=1 n=55 v=0
288416 Par ch=1 c=64 v=127
288428 On ch=1 n=79 v=0
288446 On ch=1 n=43 v=37
288488 On ch=1 n=70 v=0
288524 On ch=1 n=55 v=55
288556 On ch=1 n=43 v=0
288582 On ch=1 n=55 v=0
288630 On ch=1 n=44 v=76
288642 On ch=1 n=68 v=68
288642 On ch=1 n=77 v=88
288645 Par ch=1 c=64 v=0
288664 On ch=1 n=72 v=52
288720 On ch=1 n=56 v=67
288748 On ch=1 n=44 v=0
288820 On ch=1 n=56 v=0
288828 On ch=1 n=44 v=57
288846 Par ch=1 c=64 v=127
288878 On ch=1 n=77 v=0
288886 On ch=1 n=68 v=0
288910 On ch=1 n=56 v=61
288920 On ch=1 n=44 v=0
288923 On ch=1 n=72 v=0
289002 On ch=1 n=56 v=0
289038 On ch=1 n=73 v=78
289048 On ch=1 n=46 v=73
289050 On ch=1 n=65 v=68
289108 Par ch=1 c=64 v=0
289124 On ch=1 n=58 v=48
289162 On ch=1 n=46 v=0
289220 On ch=1 n=58 v=0
289230 On ch=1 n=46 v=64
289292 Par ch=1 c=64 v=127
289306 On ch=1 n=65 v=0
289310 On ch=1 n=58 v=48
289346 On ch=1 n=46 v=0
289354 On ch=1 n=73 v=0
289414 On ch=1 n=72 v=84
289424 On ch=1 n=58 v=0
289424 On ch=1 n=65 v=58
289440 On ch=1 n=48 v=73
289460 Par ch=1 c=64 v=0
289538 On ch=1 n=60 v=72
289556 On ch=1 n=48 v=0
289608 On ch=1 n=60 v=0
289616 On ch=1 n=48 v=72
289642 On ch=1 n=65 v=0
289660 Par ch=1 c=64 v=127
289718 On ch=1 n=60 v=67
289758 On ch=1 n=48 v=0
289784 On ch=1 n=60 v=0
289814 Par ch=1 c=64 v=0
289816 On ch=1 n=49 v=83
289820 On ch=1 n=71 v=85
289830 On ch=1 n=65 v=61
289848 On ch=1 n=72 v=0
289924 On ch=1 n=61 v=77
289960 On ch=1 n=49 v=0
290012 On ch=1 n=61 v=0
290014 Par ch=1 c=64 v=127
290022 On ch=1 n=49 v=67
290094 On ch=1 n=61 v=65
290097 On ch=1 n=65 v=0
290152 Par ch=1 c=64 v=0
290166 On ch=1 n=49 v=0
290194 On ch=1 n=61 v=0
290222 On ch=1 n=60 v=71
290224 On ch=1 n=72 v=80
290230 On ch=1 n=64 v=80
290236 On ch=1 n=48 v=65
290242 On ch=1 n=71 v=0
290316 On ch=1 n=72 v=0
290352 Par ch=1 c=64 v=127
290380 On ch=1 n=60 v=0
290388 On ch=1 n=64 v=0
290436 On ch=1 n=59 v=85
290628 Par ch=1 c=64 v=0
290636 On ch=1 n=60 v=84
290652 On ch=1 n=59 v=0
290680 On ch=1 n=48 v=0
290836 On ch=1 n=59 v=75
290862 On ch=1 n=60 v=0
291040 On ch=1 n=60 v=55
291052 On ch=1 n=59 v=0
291240 On ch=1 n=59 v=53
291244 On ch=1 n=60 v=0
291454 On ch=1 n=59 v=0
291470 On ch=1 n=60 v=40
291688 On ch=1 n=59 v=33
291704 On ch=1 n=60 v=0
291920 On ch=1 n=59 v=0
291948 On ch=1 n=60 v=35
292152 On ch=1 n=48 v=48
292157 On ch=1 n=68 v=32
292198 On ch=1 n=65 v=16
292222 On ch=1 n=68 v=0
292225 On ch=1 n=48 v=0
292274 On ch=1 n=65 v=0
292336 On ch=1 n=68 v=16
292344 On ch=1 n=53 v=82
292350 Par ch=1 c=64 v=127
292388 On ch=1 n=65 v=27
292396 Par ch=1 c=64 v=0
292414 On ch=1 n=68 v=0
292417 On ch=1 n=53 v=0
292448 On ch=1 n=65 v=0
292538 On ch=1 n=65 v=30
292542 On ch=1 n=68 v=30
292546 On ch=1 n=55 v=56
292598 On ch=1 n=55 v=0
292606 On ch=1 n=60 v=0
292632 On ch=1 n=65 v=0
292636 On ch=1 n=68 v=0
292734 On ch=1 n=56 v=73
292742 On ch=1 n=60 v=45
292748 Par ch=1 c=64 v=127
292772 On ch=1 n=56 v=0
292942 On ch=1 n=68 v=35
292962 On ch=1 n=72 v=67
292982 On ch=1 n=65 v=22
293002 On ch=1 n=68 v=0
293010 On ch=1 n=72 v=0
293010 Par ch=1 c=64 v=0
293046 On ch=1 n=65 v=0
293132 On ch=1 n=68 v=34
293132 On ch=1 n=65 v=31
293132 On ch=1 n=77 v=87
293202 On ch=1 n=68 v=0
293222 On ch=1 n=77 v=0
293225 On ch=1 n=65 v=0
293296 On ch=1 n=60 v=0
293332 On ch=1 n=68 v=41
293334 On ch=1 n=79 v=95
293346 On ch=1 n=65 v=30
293374 On ch=1 n=79 v=0
293424 On ch=1 n=68 v=0
293452 On ch=1 n=65 v=0
293476 On ch=1 n=72 v=38
293530 On ch=1 n=80 v=86
293544 On ch=1 n=72 v=0
293546 On ch=1 n=60 v=43
293736 On ch=1 n=68 v=32
293764 On ch=1 n=65 v=30
293798 On ch=1 n=68 v=0
293822 On ch=1 n=65 v=0
293942 On ch=1 n=68 v=24
293960 On ch=1 n=65 v=6
293994 Par ch=1 c=64 v=127
294016 On ch=1 n=68 v=0
294036 On ch=1 n=65 v=0
294160 On ch=1 n=77 v=60
294160 On ch=1 n=65 v=15
294163 On ch=1 n=68 v=23
294184 On ch=1 n=60 v=0
294208 On ch=1 n=80 v=0
294262 On ch=1 n=68 v=0
294280 On ch=1 n=65 v=0
294306 On ch=1 n=72 v=28
294336 On ch=1 n=77 v=0
294346 Par ch=1 c=64 v=0
294376 On ch=1 n=72 v=0
294376 On ch=1 n=80 v=47
294384 On ch=1 n=60 v=33
294566 On ch=1 n=68 v=31
294602 On ch=1 n=65 v=28
294644 On ch=1 n=68 v=0
294666 On ch=1 n=65 v=0
294700 Par ch=1 c=64 v=127
294766 On ch=1 n=68 v=30
294790 On ch=1 n=65 v=8
294846 On ch=1 n=68 v=0
294874 On ch=1 n=65 v=0
294946 On ch=1 n=60 v=0
295000 On ch=1 n=65 v=23
295000 On ch=1 n=77 v=54
295006 On ch=1 n=68 v=24
295054 On ch=1 n=80 v=0
295076 On ch=1 n=65 v=0
295094 On ch=1 n=77 v=0
295110 On ch=1 n=68 v=0
295176 Par ch=1 c=64 v=0
295236 On ch=1 n=76 v=47
295258 On ch=1 n=60 v=42
295284 On ch=1 n=76 v=0
295346 Par ch=1 c=64 v=127
295530 On ch=1 n=70 v=17
295536 On ch=1 n=48 v=43
295566 On ch=1 n=67 v=17
295602 On ch=1 n=48 v=0
295606 Par ch=1 c=64 v=0
295611 On ch=1 n=70 v=0
295646 On ch=1 n=67 v=0
295730 On ch=1 n=70 v=20
295738 On ch=1 n=67 v=26
295746 On ch=1 n=55 v=60
295802 On ch=1 n=55 v=0
295814 On ch=1 n=70 v=0
295832 On ch=1 n=67 v=0
295938 On ch=1 n=56 v=60
295966 On ch=1 n=70 v=30
295980 On ch=1 n=67 v=22
295998 On ch=1 n=60 v=0
296002 On ch=1 n=56 v=0
296042 On ch=1 n=70 v=0
296054 On ch=1 n=67 v=0
296140 On ch=1 n=58 v=58
296174 On ch=1 n=60 v=60
296186 On ch=1 n=58 v=0
296206 Par ch=1 c=64 v=127
296370 On ch=1 n=72 v=76
296392 On ch=1 n=70 v=26
296420 On ch=1 n=67 v=22
296460 On ch=1 n=70 v=0
296468 Par ch=1 c=64 v=0
296498 On ch=1 n=67 v=0
296566 On ch=1 n=72 v=0
296570 On ch=1 n=82 v=87
296578 On ch=1 n=70 v=30
296592 On ch=1 n=67 v=27
296652 On ch=1 n=70 v=0
296666 On ch=1 n=67 v=0
296728 Par ch=1 c=64 v=127
296766 On ch=1 n=80 v=86
296798 On ch=1 n=70 v=34
296806 On ch=1 n=60 v=0
296808 On ch=1 n=82 v=0
296838 On ch=1 n=67 v=24
296846 On ch=1 n=80 v=0
296866 On ch=1 n=70 v=0
296912 Par ch=1 c=64 v=0
296918 On ch=1 n=67 v=0
296972 On ch=1 n=80 v=68
296978 On ch=1 n=60 v=54
297010 On ch=1 n=80 v=0
297032 On ch=1 n=82 v=61
297086 On ch=1 n=80 v=45
297144 On ch=1 n=82 v=0
297156 On ch=1 n=70 v=35
297159 Par ch=1 c=64 v=127
297186 On ch=1 n=67 v=36
297200 On ch=1 n=79 v=72
297224 On ch=1 n=70 v=0
297228 On ch=1 n=80 v=0
297244 On ch=1 n=79 v=0
297250 On ch=1 n=67 v=0
297388 On ch=1 n=70 v=37
297404 On ch=1 n=79 v=68
297406 Par ch=1 c=64 v=0
297436 On ch=1 n=67 v=30
297448 On ch=1 n=79 v=0
297462 On ch=1 n=70 v=0
297465 On ch=1 n=80 v=66
297504 On ch=1 n=67 v=0
297518 On ch=1 n=79 v=62
297574 On ch=1 n=80 v=0
297592 On ch=1 n=67 v=30
297608 On ch=1 n=70 v=33
297611 On ch=1 n=77 v=64
297620 Par ch=1 c=64 v=127
297640 On ch=1 n=79 v=0
297644 On ch=1 n=60 v=0
297656 On ch=1 n=77 v=0
297678 On ch=1 n=70 v=0
297690 On ch=1 n=67 v=0
297772 Par ch=1 c=64 v=0
297818 On ch=1 n=60 v=47
297820 On ch=1 n=77 v=64
297856 On ch=1 n=79 v=79
297865 On ch=1 n=77 v=0
297924 On ch=1 n=79 v=0
297930 On ch=1 n=77 v=64
297975 On ch=1 n=77 v=0
297988 On ch=1 n=76 v=53
297992 On ch=1 n=70 v=30
298004 Par ch=1 c=64 v=127
298016 On ch=1 n=67 v=31
298064 On ch=1 n=70 v=0
298064 On ch=1 n=76 v=0
298084 On ch=1 n=67 v=0
298096 Par ch=1 c=64 v=0
298180 On ch=1 n=74 v=57
298188 On ch=1 n=70 v=26
298192 On ch=1 n=67 v=20
298242 On ch=1 n=74 v=0
298262 On ch=1 n=70 v=0
298280 On ch=1 n=67 v=0
298372 On ch=1 n=76 v=57
298388 On ch=1 n=70 v=25
298390 On ch=1 n=67 v=25
298416 On ch=1 n=60 v=0
298432 On ch=1 n=76 v=0
298468 On ch=1 n=70 v=0
298478 On ch=1 n=67 v=0
298576 On ch=1 n=77 v=62
298592 On ch=1 n=60 v=43
298618 On ch=1 n=77 v=0
298634 Par ch=1 c=64 v=127
298818 On ch=1 n=48 v=65
298826 On ch=1 n=68 v=39
298848 Par ch=1 c=64 v=0
298848 On ch=1 n=65 v=35
298868 On ch=1 n=48 v=0
298886 On ch=1 n=68 v=0
298906 On ch=1 n=65 v=0
299002 On ch=1 n=53 v=97
299024 On ch=1 n=68 v=37
299048 On ch=1 n=65 v=13
299088 On ch=1 n=68 v=0
299088 On ch=1 n=53 v=0
299118 On ch=1 n=65 v=0
299194 On ch=1 n=55 v=80
299208 On ch=1 n=65 v=32
299211 On ch=1 n=68 v=36
299258 On ch=1 n=60 v=0
299260 On ch=1 n=55 v=0
299280 On ch=1 n=65 v=0
299298 On ch=1 n=68 v=0
299384 On ch=1 n=56 v=77
299418 On ch=1 n=60 v=66
299421 On ch=1 n=56 v=0
299448 Par ch=1 c=64 v=127
299586 Par ch=1 c=64 v=0
299592 On ch=1 n=72 v=88
299595 On ch=1 n=68 v=48
299620 On ch=1 n=65 v=33
299650 On ch=1 n=72 v=0
299652 On ch=1 n=68 v=0
299678 On ch=1 n=65 v=0
299758 On ch=1 n=77 v=98
299776 On ch=1 n=68 v=52
299779 On ch=1 n=65 v=31
299854 On ch=1 n=68 v=0
299858 On ch=1 n=77 v=0
299870 On ch=1 n=65 v=0
299948 On ch=1 n=80 v=99
299960 On ch=1 n=68 v=46
299962 On ch=1 n=65 v=46
300026 On ch=1 n=65 v=0
300038 On ch=1 n=80 v=0
300040 On ch=1 n=60 v=0
300080 On ch=1 n=72 v=67
300090 On ch=1 n=68 v=0
300154 On ch=1 n=84 v=107
300166 On ch=1 n=56 v=72
300190 On ch=1 n=72 v=0
300324 Par ch=1 c=64 v=127
300358 On ch=1 n=65 v=43
300372 On ch=1 n=60 v=45
300426 On ch=1 n=65 v=0
300438 On ch=1 n=60 v=0
300568 On ch=1 n=65 v=53
300582 On ch=1 n=60 v=36
300622 On ch=1 n=56 v=0
300628 On ch=1 n=65 v=0
300650 On ch=1 n=60 v=0
300714 On ch=1 n=84 v=0
300756 On ch=1 n=77 v=84
300774 On ch=1 n=60 v=34
300788 On ch=1 n=77 v=0
300792 On ch=1 n=65 v=41
300852 On ch=1 n=65 v=0
300854 On ch=1 n=60 v=0
300856 On ch=1 n=77 v=72
300980 Par ch=1 c=64 v=0
301002 On ch=1 n=56 v=38
301014 On ch=1 n=89 v=85
301026 On ch=1 n=77 v=0
301216 On ch=1 n=65 v=32
301220 On ch=1 n=60 v=36
301276 Par ch=1 c=64 v=127
301282 On ch=1 n=65 v=0
301288 On ch=1 n=60 v=0
301438 On ch=1 n=65 v=33
301458 On ch=1 n=60 v=28
301504 On ch=1 n=65 v=0
301526 On ch=1 n=60 v=0
301654 On ch=1 n=84 v=70
301680 On ch=1 n=65 v=39
301696 On ch=1 n=89 v=0
301696 On ch=1 n=60 v=19
301744 On ch=1 n=56 v=0
301744 On ch=1 n=65 v=0
301780 On ch=1 n=60 v=0
301788 On ch=1 n=84 v=0
301814 Par ch=1 c=64 v=0
301908 On ch=1 n=55 v=48
301914 On ch=1 n=83 v=70
301960 On ch=1 n=83 v=0
302014 Par ch=1 c=64 v=127
302234 On ch=1 n=43 v=63
302240 On ch=1 n=62 v=35
302240 On ch=1 n=65 v=29
302298 On ch=1 n=65 v=0
302298 On ch=1 n=62 v=0
302306 Par ch=1 c=64 v=0
302324 On ch=1 n=43 v=0
302438 On ch=1 n=65 v=30
302446 On ch=1 n=50 v=72
302462 On ch=1 n=62 v=34
302506 On ch=1 n=50 v=0
302506 On ch=1 n=65 v=0
302520 On ch=1 n=62 v=0
302648 On ch=1 n=51 v=55
302674 On ch=1 n=65 v=24
302680 On ch=1 n=62 v=18
302700 On ch=1 n=55 v=0
302712 On ch=1 n=51 v=0
302746 On ch=1 n=65 v=0
302752 On ch=1 n=62 v=0
302836 On ch=1 n=53 v=94
302862 On ch=1 n=55 v=52
302872 On ch=1 n=53 v=0
302920 Par ch=1 c=64 v=127
303052 On ch=1 n=67 v=81
303070 On ch=1 n=62 v=38
303086 On ch=1 n=65 v=28
303128 On ch=1 n=62 v=0
303146 On ch=1 n=65 v=0
303234 On ch=1 n=77 v=94
303244 On ch=1 n=67 v=0
303244 Par ch=1 c=64 v=0
303256 On ch=1 n=65 v=34
303282 On ch=1 n=62 v=38
303326 On ch=1 n=65 v=0
303336 On ch=1 n=62 v=0
303426 On ch=1 n=75 v=88
303458 Par ch=1 c=64 v=127
303458 On ch=1 n=65 v=38
303464 On ch=1 n=77 v=0
303466 On ch=1 n=62 v=30
303488 On ch=1 n=55 v=0
303524 On ch=1 n=75 v=0
303532 On ch=1 n=65 v=0
303540 On ch=1 n=62 v=0
303612 Par ch=1 c=64 v=0
303644 On ch=1 n=75 v=59
303658 On ch=1 n=55 v=53
303688 On ch=1 n=77 v=71
303691 On ch=1 n=75 v=0
303744 On ch=1 n=75 v=73
303790 On ch=1 n=77 v=0
303848 On ch=1 n=65 v=36
303850 On ch=1 n=62 v=45
303850 On ch=1 n=74 v=84
303896 On ch=1 n=75 v=0
303902 On ch=1 n=74 v=0
303904 Par ch=1 c=64 v=127
303906 On ch=1 n=62 v=0
303906 On ch=1 n=65 v=0
304042 Par ch=1 c=64 v=0
304052 On ch=1 n=74 v=68
304062 On ch=1 n=65 v=43
304080 On ch=1 n=62 v=42
304092 On ch=1 n=74 v=0
304098 On ch=1 n=75 v=68
304114 On ch=1 n=65 v=0
304132 On ch=1 n=62 v=0
304148 On ch=1 n=74 v=79
304226 On ch=1 n=75 v=0
304256 On ch=1 n=72 v=67
304264 On ch=1 n=65 v=31
304272 Par ch=1 c=64 v=127
304280 On ch=1 n=62 v=21
304286 On ch=1 n=74 v=0
304294 On ch=1 n=55 v=0
304306 On ch=1 n=72 v=0
304338 On ch=1 n=65 v=0
304350 On ch=1 n=62 v=0
304366 Par ch=1 c=64 v=0
304460 On ch=1 n=72 v=53
304464 On ch=1 n=55 v=63
304506 On ch=1 n=74 v=70
304512 On ch=1 n=72 v=0
304572 On ch=1 n=74 v=0
304575 On ch=1 n=72 v=64
304648 On ch=1 n=65 v=40
304658 On ch=1 n=72 v=0
304658 On ch=1 n=62 v=47
304658 On ch=1 n=71 v=60
304706 On ch=1 n=65 v=0
304712 On ch=1 n=62 v=0
304714 On ch=1 n=71 v=0
304828 On ch=1 n=69 v=48
304868 On ch=1 n=65 v=31
304884 On ch=1 n=62 v=24
304894 On ch=1 n=69 v=0
304928 On ch=1 n=65 v=0
304952 On ch=1 n=62 v=0
305022 On ch=1 n=71 v=62
305036 On ch=1 n=62 v=52
305042 On ch=1 n=65 v=18
305084 On ch=1 n=71 v=0
305096 On ch=1 n=55 v=0
305112 On ch=1 n=62 v=0
305118 Par ch=1 c=64 v=127
305146 On ch=1 n=65 v=0
305224 On ch=1 n=72 v=60
305248 On ch=1 n=55 v=34
305270 On ch=1 n=72 v=0
305454 On ch=1 n=43 v=79
305457 On ch=1 n=63 v=38
305476 On ch=1 n=60 v=36
305486 Par ch=1 c=64 v=0
305504 On ch=1 n=43 v=0
305512 On ch=1 n=63 v=0
305540 On ch=1 n=60 v=0
305628 On ch=1 n=63 v=40
305634 On ch=1 n=48 v=69
305652 On ch=1 n=60 v=15
305708 On ch=1 n=63 v=0
305732 On ch=1 n=60 v=0
305746 On ch=1 n=48 v=0
305820 On ch=1 n=50 v=76
305828 On ch=1 n=63 v=41
305828 On ch=1 n=60 v=30
305854 On ch=1 n=55 v=0
305876 On ch=1 n=50 v=0
305918 On ch=1 n=63 v=0
305920 On ch=1 n=60 v=0
306016 On ch=1 n=51 v=74
306030 On ch=1 n=55 v=52
306054 On ch=1 n=51 v=0
306056 Par ch=1 c=64 v=127
306240 Par ch=1 c=64 v=0
306240 On ch=1 n=63 v=55
306242 On ch=1 n=79 v=91
306256 On ch=1 n=60 v=42
306290 On ch=1 n=63 v=0
306298 On ch=1 n=79 v=0
306316 On ch=1 n=60 v=0
306410 On ch=1 n=84 v=102
306416 On ch=1 n=63 v=55
306426 On ch=1 n=60 v=28
306488 On ch=1 n=84 v=0
306491 On ch=1 n=63 v=0
306512 On ch=1 n=60 v=0
306586 On ch=1 n=86 v=100
306598 On ch=1 n=63 v=55
306600 On ch=1 n=60 v=48
306644 On ch=1 n=55 v=0
306684 On ch=1 n=86 v=0
306720 On ch=1 n=79 v=70
306726 On ch=1 n=63 v=0
306744 On ch=1 n=60 v=0
306776 On ch=1 n=79 v=0
306800 On ch=1 n=87 v=93
306820 On ch=1 n=55 v=45
306932 Par ch=1 c=64 v=127
307002 On ch=1 n=63 v=41
307007 On ch=1 n=60 v=46
307060 On ch=1 n=63 v=0
307072 On ch=1 n=60 v=0
307210 On ch=1 n=63 v=48
307244 On ch=1 n=60 v=40
307260 On ch=1 n=55 v=0
307268 On ch=1 n=63 v=0
307306 On ch=1 n=60 v=0
307422 On ch=1 n=84 v=75
307425 On ch=1 n=60 v=23
307434 On ch=1 n=63 v=39
307458 On ch=1 n=87 v=0
307498 On ch=1 n=63 v=0
307510 On ch=1 n=84 v=0
307516 On ch=1 n=60 v=0
307530 On ch=1 n=79 v=67
307576 Par ch=1 c=64 v=0
307584 On ch=1 n=79 v=0
307604 On ch=1 n=87 v=65
307632 On ch=1 n=55 v=48
307806 On ch=1 n=60 v=47
307808 On ch=1 n=63 v=39
307868 Par ch=1 c=64 v=127
307870 On ch=1 n=63 v=0
307884 On ch=1 n=60 v=0
307950 On ch=1 n=55 v=0
308020 On ch=1 n=63 v=39
308030 On ch=1 n=60 v=35
308078 On ch=1 n=63 v=0
308102 On ch=1 n=60 v=0
308236 On ch=1 n=84 v=67
308238 On ch=1 n=60 v=25
308240 On ch=1 n=63 v=41
308274 On ch=1 n=87 v=0
308306 On ch=1 n=63 v=0
308344 On ch=1 n=60 v=0
308368 On ch=1 n=84 v=0
308406 Par ch=1 c=64 v=0
308452 On ch=1 n=83 v=80
308462 On ch=1 n=55 v=39
308494 On ch=1 n=83 v=0
308560 Par ch=1 c=64 v=127
308734 On ch=1 n=65 v=30
308737 On ch=1 n=43 v=57
308742 On ch=1 n=62 v=31
308792 On ch=1 n=65 v=0
308802 On ch=1 n=62 v=0
308805 On ch=1 n=43 v=0
308852 Par ch=1 c=64 v=0
308928 On ch=1 n=50 v=78
308931 On ch=1 n=65 v=32
308946 On ch=1 n=62 v=33
308994 On ch=1 n=65 v=0
308994 On ch=1 n=50 v=0
309006 On ch=1 n=62 v=0
309126 On ch=1 n=51 v=67
309134 On ch=1 n=65 v=38
309156 On ch=1 n=62 v=30
309178 On ch=1 n=55 v=0
309208 On ch=1 n=51 v=0
309208 On ch=1 n=65 v=0
309216 On ch=1 n=62 v=0
309328 On ch=1 n=53 v=95
309352 On ch=1 n=55 v=70
309362 On ch=1 n=53 v=0
309390 Par ch=1 c=64 v=127
309554 On ch=1 n=65 v=44
309564 On ch=1 n=79 v=96
309570 On ch=1 n=62 v=43
309616 On ch=1 n=65 v=0
309624 On ch=1 n=62 v=0
309652 Par ch=1 c=64 v=0
309748 On ch=1 n=89 v=97
309762 On ch=1 n=79 v=0
309776 On ch=1 n=65 v=50
309800 On ch=1 n=62 v=42
309828 On ch=1 n=65 v=0
309854 On ch=1 n=62 v=0
309880 Par ch=1 c=64 v=127
309942 On ch=1 n=87 v=92
309958 On ch=1 n=89 v=0
309968 On ch=1 n=65 v=42
309976 On ch=1 n=62 v=28
309978 On ch=1 n=55 v=0
310020 On ch=1 n=87 v=0
310036 On ch=1 n=65 v=0
310050 On ch=1 n=62 v=0
310158 On ch=1 n=87 v=84
310166 On ch=1 n=55 v=43
310196 On ch=1 n=87 v=0
310204 Par ch=1 c=64 v=0
310216 On ch=1 n=89 v=71
310264 On ch=1 n=87 v=57
310328 On ch=1 n=89 v=0
310372 On ch=1 n=65 v=36
310380 On ch=1 n=86 v=92
310386 On ch=1 n=62 v=40
310418 Par ch=1 c=64 v=127
310432 On ch=1 n=65 v=0
310440 On ch=1 n=87 v=0
310444 On ch=1 n=62 v=0
310472 On ch=1 n=86 v=0
310602 On ch=1 n=65 v=45
310618 On ch=1 n=86 v=84
310621 On ch=1 n=62 v=42
310658 On ch=1 n=86 v=0
310670 On ch=1 n=65 v=0
310682 On ch=1 n=62 v=0
310684 On ch=1 n=87 v=68
310742 On ch=1 n=86 v=64
310776 On ch=1 n=55 v=0
310822 On ch=1 n=87 v=0
310832 On ch=1 n=84 v=81
310835 On ch=1 n=65 v=36
310868 On ch=1 n=62 v=36
310900 On ch=1 n=65 v=0
310903 On ch=1 n=86 v=0
310914 On ch=1 n=84 v=0
310924 On ch=1 n=62 v=0
311018 On ch=1 n=84 v=77
311036 On ch=1 n=55 v=57
311064 Par ch=1 c=64 v=0
311068 On ch=1 n=84 v=0
311082 On ch=1 n=86 v=75
311152 On ch=1 n=84 v=74
311218 On ch=1 n=86 v=0
311226 On ch=1 n=65 v=36
311229 On ch=1 n=83 v=98
311232 On ch=1 n=62 v=42
311248 Par ch=1 c=64 v=127
311284 On ch=1 n=84 v=0
311286 On ch=1 n=65 v=0
311290 On ch=1 n=62 v=0
311344 On ch=1 n=83 v=0
311416 On ch=1 n=81 v=84
311440 On ch=1 n=65 v=44
311474 On ch=1 n=62 v=42
311492 On ch=1 n=65 v=0
311530 On ch=1 n=62 v=0
311544 On ch=1 n=81 v=0
311608 On ch=1 n=83 v=106
311630 On ch=1 n=65 v=42
311630 On ch=1 n=62 v=29
311646 On ch=1 n=83 v=0
311684 On ch=1 n=65 v=0
311690 On ch=1 n=62 v=0
311828 On ch=1 n=60 v=85
311830 On ch=1 n=86 v=64
311876 On ch=1 n=86 v=0
311878 Par ch=1 c=64 v=0
311878 On ch=1 n=87 v=64
311904 On ch=1 n=55 v=0
311942 On ch=1 n=86 v=54
312014 On ch=1 n=87 v=0
312044 On ch=1 n=84 v=81
312064 On ch=1 n=67 v=45
312070 On ch=1 n=63 v=47
312100 On ch=1 n=86 v=0
312110 On ch=1 n=84 v=0
312122 On ch=1 n=63 v=0
312125 On ch=1 n=67 v=0
312156 Par ch=1 c=64 v=127
312240 On ch=1 n=84 v=74
312258 On ch=1 n=63 v=45
312261 On ch=1 n=67 v=37
312282 On ch=1 n=84 v=0
312296 On ch=1 n=86 v=71
312324 On ch=1 n=63 v=0
312327 On ch=1 n=67 v=0
312368 On ch=1 n=84 v=54
312422 On ch=1 n=86 v=0
312424 On ch=1 n=67 v=34
312438 On ch=1 n=82 v=62
312456 On ch=1 n=63 v=37
312470 On ch=1 n=84 v=0
312488 On ch=1 n=82 v=0
312502 On ch=1 n=67 v=0
312512 On ch=1 n=63 v=0
312548 On ch=1 n=60 v=0
312634 On ch=1 n=82 v=46
312646 On ch=1 n=53 v=89
312678 Par ch=1 c=64 v=0
312686 On ch=1 n=82 v=0
312692 On ch=1 n=84 v=63
312740 On ch=1 n=82 v=62
312774 On ch=1 n=84 v=0
312826 On ch=1 n=81 v=73
312829 On ch=1 n=63 v=62
312836 On ch=1 n=65 v=40
312874 On ch=1 n=82 v=0
312898 On ch=1 n=63 v=0
312898 On ch=1 n=65 v=0
312924 Par ch=1 c=64 v=127
312952 On ch=1 n=81 v=0
313028 On ch=1 n=79 v=81
313046 On ch=1 n=65 v=44
313064 On ch=1 n=63 v=36
313104 On ch=1 n=65 v=0
313120 On ch=1 n=79 v=0
313124 On ch=1 n=63 v=0
313220 On ch=1 n=81 v=75
313226 On ch=1 n=63 v=46
313248 On ch=1 n=65 v=29
313260 On ch=1 n=81 v=0
313290 On ch=1 n=63 v=0
313308 On ch=1 n=65 v=0
313416 Par ch=1 c=64 v=0
313432 On ch=1 n=58 v=56
313444 On ch=1 n=84 v=58
313490 On ch=1 n=84 v=0
313500 On ch=1 n=85 v=60
313512 On ch=1 n=53 v=0
313552 On ch=1 n=84 v=64
313630 On ch=1 n=85 v=0
313654 On ch=1 n=65 v=38
313656 On ch=1 n=61 v=40
313662 On ch=1 n=82 v=53
313688 On ch=1 n=84 v=0
313720 On ch=1 n=82 v=0
313720 On ch=1 n=65 v=0
313722 On ch=1 n=61 v=0
313738 Par ch=1 c=64 v=127
313870 On ch=1 n=82 v=41
313880 On ch=1 n=61 v=46
313902 On ch=1 n=65 v=20
313922 On ch=1 n=84 v=53
313926 On ch=1 n=82 v=0
313942 On ch=1 n=61 v=0
313972 On ch=1 n=65 v=0
313982 On ch=1 n=84 v=0
313988 On ch=1 n=82 v=60
314058 On ch=1 n=65 v=37
314078 On ch=1 n=80 v=61
314088 On ch=1 n=61 v=30
314102 On ch=1 n=82 v=0
314124 On ch=1 n=65 v=0
314127 On ch=1 n=80 v=0
314154 On ch=1 n=61 v=0
314184 On ch=1 n=58 v=0
314274 On ch=1 n=80 v=58
314292 On ch=1 n=51 v=56
314322 On ch=1 n=80 v=0
314336 On ch=1 n=82 v=50
314398 On ch=1 n=80 v=52
314434 On ch=1 n=82 v=0
314468 On ch=1 n=63 v=47
314480 On ch=1 n=79 v=63
314486 On ch=1 n=61 v=38
314524 On ch=1 n=63 v=0
314536 On ch=1 n=80 v=0
314546 On ch=1 n=61 v=0
314564 On ch=1 n=79 v=0
314576 Par ch=1 c=64 v=0
314680 On ch=1 n=77 v=54
314686 On ch=1 n=63 v=59
314700 On ch=1 n=61 v=35
314734 On ch=1 n=63 v=0
314746 On ch=1 n=77 v=0
314760 On ch=1 n=61 v=0
314782 Par ch=1 c=64 v=127
314870 On ch=1 n=79 v=72
314876 On ch=1 n=61 v=24
314894 On ch=1 n=63 v=35
314912 On ch=1 n=79 v=0
314952 On ch=1 n=63 v=0
314952 On ch=1 n=61 v=0
315064 On ch=1 n=82 v=60
315074 Par ch=1 c=64 v=0
315086 On ch=1 n=56 v=50
315110 On ch=1 n=82 v=0
315138 On ch=1 n=84 v=58
315182 On ch=1 n=82 v=43
315212 On ch=1 n=84 v=0
315240 On ch=1 n=51 v=0
315276 On ch=1 n=63 v=44
315280 On ch=1 n=80 v=63
315282 On ch=1 n=60 v=42
315328 On ch=1 n=82 v=0
315330 On ch=1 n=63 v=0
315340 Par ch=1 c=64 v=127
315348 On ch=1 n=60 v=0
315360 On ch=1 n=80 v=0
315488 On ch=1 n=80 v=54
315504 On ch=1 n=63 v=29
315522 On ch=1 n=60 v=26
315538 On ch=1 n=80 v=0
315550 On ch=1 n=82 v=45
315566 On ch=1 n=63 v=0
315584 On ch=1 n=56 v=0
315596 On ch=1 n=60 v=0
315608 On ch=1 n=80 v=55
315630 On ch=1 n=82 v=0
315696 On ch=1 n=60 v=26
315699 On ch=1 n=79 v=59
315706 On ch=1 n=63 v=25
315736 On ch=1 n=80 v=0
315750 On ch=1 n=79 v=0
315768 On ch=1 n=63 v=0
315771 On ch=1 n=60 v=0
315900 On ch=1 n=56 v=55
315903 Par ch=1 c=64 v=0
315908 On ch=1 n=79 v=39
315960 On ch=1 n=80 v=57
315990 On ch=1 n=79 v=0
316064 On ch=1 n=79 v=18
316092 On ch=1 n=80 v=0
316095 On ch=1 n=63 v=41
316095 On ch=1 n=60 v=47
316110 On ch=1 n=78 v=52
316152 On ch=1 n=79 v=0
316174 On ch=1 n=63 v=0
316182 On ch=1 n=60 v=0
316182 Par ch=1 c=64 v=127
316198 On ch=1 n=78 v=0
316298 On ch=1 n=78 v=47
316332 On ch=1 n=63 v=36
316358 On ch=1 n=60 v=27
316394 On ch=1 n=63 v=0
316416 On ch=1 n=78 v=0
316432 On ch=1 n=60 v=0
316508 On ch=1 n=78 v=44
316528 On ch=1 n=60 v=26
316540 On ch=1 n=63 v=36
316574 On ch=1 n=78 v=0
316610 On ch=1 n=63 v=0
316642 On ch=1 n=60 v=0
316642 Par ch=1 c=64 v=0
316728 On ch=1 n=80 v=62
316762 On ch=1 n=55 v=43
316772 On ch=1 n=56 v=0
316776 On ch=1 n=80 v=0
316808 On ch=1 n=82 v=33
316842 On ch=1 n=80 v=58
316884 On ch=1 n=82 v=0
316964 On ch=1 n=63 v=37
316967 On ch=1 n=60 v=41
316972 On ch=1 n=79 v=49
317022 On ch=1 n=80 v=0
317028 On ch=1 n=63 v=0
317036 On ch=1 n=79 v=0
317048 On ch=1 n=60 v=0
317072 Par ch=1 c=64 v=127
317200 On ch=1 n=79 v=49
317210 On ch=1 n=63 v=30
317236 On ch=1 n=60 v=23
317258 On ch=1 n=79 v=0
317274 On ch=1 n=63 v=0
317312 On ch=1 n=60 v=0
317344 On ch=1 n=55 v=0
317406 On ch=1 n=60 v=29
317420 On ch=1 n=79 v=52
317438 On ch=1 n=63 v=23
317474 On ch=1 n=79 v=0
317506 On ch=1 n=60 v=0
317514 On ch=1 n=63 v=0
317610 Par ch=1 c=64 v=0
317656 On ch=1 n=80 v=48
317674 On ch=1 n=55 v=46
317716 On ch=1 n=80 v=0
317740 On ch=1 n=82 v=30
317812 On ch=1 n=80 v=41
317818 On ch=1 n=82 v=0
317920 On ch=1 n=59 v=33
317920 On ch=1 n=79 v=56
317923 On ch=1 n=62 v=34
317992 On ch=1 n=80 v=0
317998 On ch=1 n=62 v=0
318006 On ch=1 n=59 v=0
318054 On ch=1 n=79 v=0
318116 Par ch=1 c=64 v=127
318166 On ch=1 n=79 v=56
318190 On ch=1 n=62 v=31
318214 On ch=1 n=59 v=18
318274 On ch=1 n=62 v=0
318298 On ch=1 n=59 v=0
318298 On ch=1 n=79 v=0
318444 On ch=1 n=55 v=0
318482 On ch=1 n=79 v=39
318496 On ch=1 n=62 v=25
318516 On ch=1 n=59 v=9
318546 On ch=1 n=79 v=0
318562 On ch=1 n=62 v=0
318584 On ch=1 n=59 v=0
318814 On ch=1 n=48 v=45
318974 On ch=1 n=60 v=31
319060 On ch=1 n=60 v=0
319086 On ch=1 n=63 v=32
319086 On ch=1 n=51 v=36
319148 On ch=1 n=51 v=0
319154 On ch=1 n=63 v=0
319186 On ch=1 n=60 v=38
319202 On ch=1 n=55 v=22
319266 On ch=1 n=60 v=0
319284 On ch=1 n=55 v=0
319284 On ch=1 n=72 v=59
319338 On ch=1 n=51 v=19
319360 Par ch=1 c=64 v=0
319400 On ch=1 n=60 v=39
319410 On ch=1 n=51 v=0
319436 On ch=1 n=55 v=18
319470 Par ch=1 c=64 v=127
319496 On ch=1 n=60 v=0
319502 On ch=1 n=63 v=44
319512 On ch=1 n=51 v=25
319515 On ch=1 n=55 v=0
319562 On ch=1 n=63 v=0
319590 On ch=1 n=51 v=0
319608 On ch=1 n=60 v=31
319626 On ch=1 n=55 v=22
319702 On ch=1 n=55 v=0
319704 On ch=1 n=60 v=0
319736 On ch=1 n=51 v=20
319764 On ch=1 n=63 v=20
319809 On ch=1 n=51 v=0
319826 On ch=1 n=63 v=0
319826 On ch=1 n=60 v=20
319832 On ch=1 n=55 v=16
319916 On ch=1 n=55 v=0
319928 On ch=1 n=60 v=0
319952 On ch=1 n=63 v=26
319956 On ch=1 n=51 v=21
320062 On ch=1 n=63 v=0
320070 On ch=1 n=72 v=0
320076 On ch=1 n=51 v=0
320078 On ch=1 n=48 v=0
320078 On ch=1 n=60 v=34
320104 On ch=1 n=55 v=41
320150 On ch=1 n=60 v=0
320170 On ch=1 n=55 v=0
320170 On ch=1 n=72 v=31
320173 On ch=1 n=48 v=35
320308 On ch=1 n=60 v=15
320318 On ch=1 n=55 v=30
320378 On ch=1 n=60 v=0
320392 On ch=1 n=55 v=0
320414 On ch=1 n=63 v=36
320428 On ch=1 n=51 v=28
320478 On ch=1 n=63 v=0
320478 On ch=1 n=60 v=37
320490 On ch=1 n=55 v=34
320496 On ch=1 n=72 v=0
320544 On ch=1 n=60 v=0
320560 On ch=1 n=55 v=0
320590 On ch=1 n=46 v=59
320662 On ch=1 n=48 v=0
320690 On ch=1 n=51 v=0
320693 On ch=1 n=61 v=48
320730 Par ch=1 c=64 v=0
320730 On ch=1 n=55 v=55
320768 On ch=1 n=61 v=0
320802 On ch=1 n=55 v=0
320818 On ch=1 n=64 v=47
320834 On ch=1 n=52 v=50
320900 On ch=1 n=52 v=0
320900 On ch=1 n=61 v=51
320938 On ch=1 n=55 v=39
320982 On ch=1 n=64 v=0
321014 On ch=1 n=73 v=68
321017 On ch=1 n=55 v=0
321017 On ch=1 n=61 v=0
321064 On ch=1 n=52 v=39
321066 Par ch=1 c=64 v=127
321110 On ch=1 n=61 v=43
321120 On ch=1 n=52 v=0
321140 On ch=1 n=55 v=47
321222 On ch=1 n=61 v=0
321228 On ch=1 n=55 v=0
321254 On ch=1 n=64 v=46
321264 On ch=1 n=52 v=24
321318 On ch=1 n=64 v=0
321318 On ch=1 n=61 v=42
321328 On ch=1 n=52 v=0
321354 On ch=1 n=55 v=32
321428 On ch=1 n=55 v=0
321430 On ch=1 n=61 v=0
321468 On ch=1 n=52 v=37
321500 On ch=1 n=64 v=40
321526 On ch=1 n=52 v=0
321550 On ch=1 n=61 v=42
321553 On ch=1 n=64 v=0
321584 On ch=1 n=55 v=23
321638 On ch=1 n=61 v=0
321660 On ch=1 n=55 v=0
321696 On ch=1 n=52 v=36
321698 On ch=1 n=64 v=26
321752 On ch=1 n=73 v=0
321755 On ch=1 n=52 v=0
321774 On ch=1 n=61 v=38
321780 On ch=1 n=64 v=0
321780 On ch=1 n=55 v=33
321784 On ch=1 n=46 v=0
321836 On ch=1 n=61 v=0
321850 On ch=1 n=55 v=0
321890 On ch=1 n=73 v=43
321892 On ch=1 n=46 v=35
321998 On ch=1 n=61 v=41
322024 On ch=1 n=55 v=41
322032 On ch=1 n=73 v=0
322062 On ch=1 n=61 v=0
322084 On ch=1 n=55 v=0
322094 On ch=1 n=52 v=59
322102 On ch=1 n=64 v=52
322146 On ch=1 n=52 v=0
322174 On ch=1 n=61 v=33
322182 On ch=1 n=64 v=0
322186 On ch=1 n=55 v=23
322230 On ch=1 n=61 v=0
322250 On ch=1 n=55 v=0
322264 Par ch=1 c=64 v=0
322290 On ch=1 n=72 v=64
322292 On ch=1 n=44 v=61
322322 On ch=1 n=46 v=0
322356 On ch=1 n=72 v=0
322380 On ch=1 n=60 v=60
322388 On ch=1 n=56 v=46
322462 On ch=1 n=56 v=0
322472 On ch=1 n=60 v=0
322484 On ch=1 n=65 v=54
322500 On ch=1 n=48 v=43
322512 Par ch=1 c=64 v=127
322528 On ch=1 n=44 v=0
322538 On ch=1 n=65 v=0
322544 On ch=1 n=60 v=71
322566 On ch=1 n=48 v=0
322590 On ch=1 n=60 v=0
322594 On ch=1 n=56 v=41
322618 Par ch=1 c=64 v=0
322656 On ch=1 n=56 v=0
322666 On ch=1 n=76 v=70
322686 On ch=1 n=46 v=52
322722 On ch=1 n=76 v=0
322754 On ch=1 n=64 v=62
322776 On ch=1 n=58 v=40
322816 On ch=1 n=46 v=0
322824 On ch=1 n=64 v=0
322856 On ch=1 n=58 v=0
322862 Par ch=1 c=64 v=127
322862 On ch=1 n=72 v=47
322876 On ch=1 n=48 v=41
322896 Par ch=1 c=64 v=0
322916 On ch=1 n=72 v=0
322934 On ch=1 n=58 v=38
322934 On ch=1 n=64 v=46
322952 On ch=1 n=48 v=0
322986 On ch=1 n=64 v=0
323006 On ch=1 n=58 v=0
323036 On ch=1 n=44 v=71
323056 On ch=1 n=77 v=70
323100 On ch=1 n=77 v=0
323142 On ch=1 n=65 v=54
323156 On ch=1 n=56 v=43
323164 On ch=1 n=44 v=0
323220 On ch=1 n=56 v=0
323238 On ch=1 n=65 v=0
323242 On ch=1 n=48 v=40
323245 On ch=1 n=72 v=55
323310 On ch=1 n=72 v=0
323316 On ch=1 n=48 v=0
323326 Par ch=1 c=64 v=127
323326 On ch=1 n=56 v=33
323340 On ch=1 n=65 v=27
323356 Par ch=1 c=64 v=0
323398 On ch=1 n=56 v=0
323402 On ch=1 n=65 v=0
323454 On ch=1 n=43 v=55
323468 On ch=1 n=79 v=73
323516 On ch=1 n=79 v=0
323546 On ch=1 n=55 v=48
323562 On ch=1 n=67 v=47
323582 On ch=1 n=43 v=0
323624 On ch=1 n=55 v=0
323638 On ch=1 n=67 v=0
323654 On ch=1 n=72 v=39
323664 On ch=1 n=48 v=39
323720 On ch=1 n=67 v=53
323722 On ch=1 n=72 v=0
323742 On ch=1 n=55 v=49
323772 On ch=1 n=48 v=0
323775 On ch=1 n=67 v=0
323798 On ch=1 n=55 v=0
323840 On ch=1 n=80 v=75
323850 On ch=1 n=41 v=75
323914 On ch=1 n=80 v=0
323938 On ch=1 n=68 v=63
323954 On ch=1 n=53 v=80
323974 On ch=1 n=41 v=0
323992 On ch=1 n=68 v=0
324008 On ch=1 n=53 v=0
324048 On ch=1 n=72 v=53
324058 On ch=1 n=48 v=44
324102 On ch=1 n=53 v=79
324110 On ch=1 n=72 v=0
324140 On ch=1 n=68 v=39
324144 On ch=1 n=53 v=0
324182 On ch=1 n=48 v=0
324198 On ch=1 n=68 v=0
324216 Par ch=1 c=64 v=127
324222 On ch=1 n=39 v=79
324232 On ch=1 n=81 v=91
324278 Par ch=1 c=64 v=0
324318 On ch=1 n=51 v=78
324318 On ch=1 n=69 v=65
324321 On ch=1 n=39 v=0
324340 On ch=1 n=81 v=0
324392 On ch=1 n=51 v=0
324392 On ch=1 n=69 v=0
324408 On ch=1 n=48 v=57
324414 On ch=1 n=72 v=74
324478 Par ch=1 c=64 v=127
324492 On ch=1 n=48 v=0
324494 On ch=1 n=72 v=0
324497 On ch=1 n=69 v=64
324504 On ch=1 n=51 v=72
324540 Par ch=1 c=64 v=0
324554 On ch=1 n=69 v=0
324606 On ch=1 n=51 v=0
324612 On ch=1 n=83 v=117
324622 On ch=1 n=38 v=89
324700 On ch=1 n=50 v=74
324712 On ch=1 n=71 v=85
324734 On ch=1 n=38 v=0
324734 On ch=1 n=83 v=0
324772 On ch=1 n=71 v=0
324792 On ch=1 n=50 v=0
324795 On ch=1 n=77 v=82
324798 On ch=1 n=43 v=76
324886 On ch=1 n=50 v=82
324886 On ch=1 n=71 v=84
324906 On ch=1 n=77 v=0
324938 On ch=1 n=43 v=0
324940 On ch=1 n=71 v=0
324960 On ch=1 n=50 v=0
324984 Par ch=1 c=64 v=127
324986 On ch=1 n=36 v=103
324994 On ch=1 n=84 v=106
325016 Par ch=1 c=64 v=0
325086 On ch=1 n=48 v=81
325102 On ch=1 n=72 v=69
325112 On ch=1 n=36 v=0
325136 On ch=1 n=84 v=0
325182 On ch=1 n=77 v=89
325185 On ch=1 n=43 v=78
325200 On ch=1 n=48 v=0
325200 On ch=1 n=72 v=0
325214 Par ch=1 c=64 v=127
325260 Par ch=1 c=64 v=0
325262 On ch=1 n=48 v=76
325262 On ch=1 n=72 v=81
325308 On ch=1 n=77 v=0
325352 On ch=1 n=72 v=0
325366 On ch=1 n=48 v=0
325368 On ch=1 n=43 v=0
325374 On ch=1 n=86 v=109
325376 On ch=1 n=35 v=103
325460 Par ch=1 c=64 v=127
325464 On ch=1 n=74 v=95
325466 On ch=1 n=47 v=88
325492 On ch=1 n=35 v=0
325492 On ch=1 n=86 v=0
325523 Par ch=1 c=64 v=0
325554 On ch=1 n=77 v=90
325566 On ch=1 n=43 v=79
325570 On ch=1 n=47 v=0
325576 On ch=1 n=74 v=0
325638 On ch=1 n=74 v=88
325646 On ch=1 n=47 v=67
325658 On ch=1 n=77 v=0
325692 Par ch=1 c=64 v=127
325704 On ch=1 n=43 v=0
325736 On ch=1 n=47 v=0
325742 On ch=1 n=74 v=0
325754 Par ch=1 c=64 v=0
325754 On ch=1 n=88 v=109
325762 On ch=1 n=34 v=95
325848 On ch=1 n=88 v=0
325848 On ch=1 n=76 v=86
325862 On ch=1 n=46 v=74
325898 On ch=1 n=34 v=0
325928 On ch=1 n=76 v=0
325938 On ch=1 n=36 v=82
325946 On ch=1 n=79 v=90
325952 Par ch=1 c=64 v=127
325968 On ch=1 n=46 v=0
326024 On ch=1 n=46 v=75
326024 On ch=1 n=76 v=83
326044 Par ch=1 c=64 v=0
326046 On ch=1 n=79 v=0
326074 On ch=1 n=36 v=0
326092 On ch=1 n=76 v=0
326114 On ch=1 n=46 v=0
326136 On ch=1 n=89 v=107
326138 On ch=1 n=32 v=95
326218 On ch=1 n=77 v=99
326224 On ch=1 n=89 v=0
326226 On ch=1 n=44 v=84
326230 Par ch=1 c=64 v=127
326274 On ch=1 n=32 v=0
326290 Par ch=1 c=64 v=0
326306 On ch=1 n=36 v=83
326310 On ch=1 n=77 v=0
326320 On ch=1 n=80 v=89
326322 On ch=1 n=44 v=0
326398 On ch=1 n=44 v=75
326414 On ch=1 n=77 v=73
326438 On ch=1 n=36 v=0
326456 On ch=1 n=80 v=0
326476 Par ch=1 c=64 v=127
326488 On ch=1 n=44 v=0
326506 On ch=1 n=77 v=0
326514 On ch=1 n=29 v=108
326516 On ch=1 n=86 v=104
326536 Par ch=1 c=64 v=0
326604 On ch=1 n=77 v=63
326608 On ch=1 n=41 v=96
326630 On ch=1 n=29 v=0
326646 On ch=1 n=86 v=0
326670 On ch=1 n=41 v=0
326696 On ch=1 n=80 v=86
326706 On ch=1 n=77 v=0
326709 On ch=1 n=36 v=81
326736 Par ch=1 c=64 v=127
326766 Par ch=1 c=64 v=0
326782 On ch=1 n=41 v=76
326790 On ch=1 n=77 v=71
326822 On ch=1 n=36 v=0
326825 On ch=1 n=80 v=0
326832 On ch=1 n=41 v=0
326864 On ch=1 n=77 v=0
326912 On ch=1 n=43 v=107
326912 On ch=1 n=31 v=107
326994 On ch=1 n=31 v=0
327012 Par ch=1 c=64 v=127
327017 On ch=1 n=43 v=0
327017 On ch=1 n=75 v=68
327102 On ch=1 n=75 v=0
327122 On ch=1 n=79 v=78
327232 On ch=1 n=75 v=72
327256 On ch=1 n=79 v=0
327286 On ch=1 n=75 v=0
327320 On ch=1 n=84 v=101
327420 On ch=1 n=75 v=67
327444 Par ch=1 c=64 v=0
327514 On ch=1 n=75 v=0
327528 On ch=1 n=79 v=81
327600 On ch=1 n=84 v=0
327620 On ch=1 n=75 v=67
327668 On ch=1 n=79 v=0
327740 On ch=1 n=75 v=0
327746 On ch=1 n=43 v=98
327746 On ch=1 n=55 v=97
327872 On ch=1 n=74 v=67
327888 Par ch=1 c=64 v=127
327902 On ch=1 n=43 v=0
327914 On ch=1 n=55 v=0
327930 On ch=1 n=74 v=0
327958 On ch=1 n=77 v=70
328062 On ch=1 n=74 v=75
328098 On ch=1 n=77 v=0
328130 On ch=1 n=74 v=0
328158 On ch=1 n=83 v=106
328280 On ch=1 n=74 v=55
328344 On ch=1 n=83 v=0
328352 On ch=1 n=74 v=0
328364 On ch=1 n=77 v=65
328452 On ch=1 n=74 v=46
328472 Par ch=1 c=64 v=0
328482 On ch=1 n=77 v=0
328496 On ch=1 n=74 v=0
328606 On ch=1 n=48 v=59
328732 On ch=1 n=60 v=55
328738 On ch=1 n=55 v=45
328800 On ch=1 n=55 v=0
328816 On ch=1 n=60 v=0
328850 On ch=1 n=51 v=35
328868 On ch=1 n=63 v=41
328916 On ch=1 n=51 v=0
328954 On ch=1 n=63 v=0
328978 On ch=1 n=55 v=35
328978 On ch=1 n=60 v=50
329042 Par ch=1 c=64 v=127
329052 On ch=1 n=55 v=0
329118 On ch=1 n=60 v=0
329140 On ch=1 n=51 v=26
329156 On ch=1 n=72 v=57
329216 On ch=1 n=51 v=0
329292 On ch=1 n=60 v=32
329366 On ch=1 n=60 v=0
329388 On ch=1 n=63 v=33
329406 On ch=1 n=51 v=22
329458 On ch=1 n=63 v=0
329478 On ch=1 n=51 v=0
329498 On ch=1 n=60 v=13
329510 On ch=1 n=55 v=16
329592 On ch=1 n=60 v=0
329595 On ch=1 n=55 v=0
329600 On ch=1 n=51 v=25
329636 On ch=1 n=63 v=30
329678 On ch=1 n=51 v=0
329696 On ch=1 n=63 v=0
329714 On ch=1 n=60 v=16
329728 On ch=1 n=55 v=20
329776 On ch=1 n=48 v=0
329810 On ch=1 n=55 v=0
329816 On ch=1 n=60 v=0
329860 On ch=1 n=63 v=20
329868 On ch=1 n=51 v=23
329910 On ch=1 n=72 v=0
329918 On ch=1 n=60 v=39
329934 On ch=1 n=63 v=0
329944 On ch=1 n=51 v=0
329948 On ch=1 n=55 v=31
329998 On ch=1 n=60 v=0
330022 On ch=1 n=55 v=0
330074 On ch=1 n=72 v=44
330098 On ch=1 n=48 v=34
330188 On ch=1 n=60 v=31
330198 On ch=1 n=55 v=35
330270 On ch=1 n=55 v=0
330274 On ch=1 n=60 v=0
330291 On ch=1 n=63 v=35
330312 On ch=1 n=51 v=31
330359 On ch=1 n=63 v=0
330374 On ch=1 n=60 v=46
330386 On ch=1 n=51 v=0
330392 On ch=1 n=72 v=0
330414 On ch=1 n=55 v=26
330442 On ch=1 n=60 v=0
330450 On ch=1 n=48 v=0
330486 On ch=1 n=55 v=0
330486 Par ch=1 c=64 v=0
330508 On ch=1 n=46 v=56
330622 On ch=1 n=61 v=51
330642 On ch=1 n=55 v=42
330702 On ch=1 n=61 v=0
330724 On ch=1 n=55 v=0
330758 On ch=1 n=52 v=39
330758 On ch=1 n=64 v=44
330824 On ch=1 n=52 v=0
330824 Par ch=1 c=64 v=127
330864 On ch=1 n=61 v=50
330884 On ch=1 n=64 v=0
330898 On ch=1 n=55 v=40
330982 On ch=1 n=55 v=0
331024 On ch=1 n=61 v=0
331032 On ch=1 n=73 v=58
331074 On ch=1 n=52 v=33
331132 On ch=1 n=52 v=0
331156 On ch=1 n=61 v=36
331214 On ch=1 n=55 v=19
331246 On ch=1 n=61 v=0
331282 On ch=1 n=55 v=0
331324 On ch=1 n=64 v=8
331344 On ch=1 n=52 v=11
331377 On ch=1 n=64 v=0
331382 On ch=1 n=61 v=34
331394 On ch=1 n=52 v=0
331408 On ch=1 n=73 v=0
331411 On ch=1 n=55 v=25
331490 On ch=1 n=55 v=0
331492 On ch=1 n=61 v=0
331496 On ch=1 n=64 v=35
331504 On ch=1 n=52 v=30
331582 On ch=1 n=52 v=0
331585 On ch=1 n=64 v=0
331588 On ch=1 n=46 v=0
331610 On ch=1 n=61 v=31
331636 On ch=1 n=55 v=20
331712 On ch=1 n=55 v=0
331728 On ch=1 n=61 v=0
331731 On ch=1 n=64 v=40
331780 On ch=1 n=52 v=15
331794 On ch=1 n=64 v=0
331832 On ch=1 n=61 v=46
331832 On ch=1 n=55 v=34
331846 On ch=1 n=52 v=0
331890 On ch=1 n=61 v=0
331910 On ch=1 n=55 v=0
331936 On ch=1 n=73 v=42
331956 On ch=1 n=46 v=37
332020 On ch=1 n=73 v=0
332040 On ch=1 n=46 v=0
332048 On ch=1 n=61 v=46
332062 On ch=1 n=55 v=36
332124 On ch=1 n=61 v=0
332126 On ch=1 n=55 v=0
332142 On ch=1 n=64 v=50
332160 On ch=1 n=52 v=46
332208 On ch=1 n=64 v=0
332214 On ch=1 n=52 v=0
332222 On ch=1 n=55 v=37
332225 On ch=1 n=61 v=42
332280 On ch=1 n=55 v=0
332288 On ch=1 n=61 v=0
332330 Par ch=1 c=64 v=0
332333 On ch=1 n=44 v=56
332350 On ch=1 n=72 v=55
332412 On ch=1 n=72 v=0
332430 On ch=1 n=60 v=48
332450 On ch=1 n=56 v=38
332510 On ch=1 n=56 v=0
332524 On ch=1 n=60 v=0
332536 On ch=1 n=44 v=0
332536 On ch=1 n=65 v=50
332552 On ch=1 n=48 v=36
332588 On ch=1 n=65 v=0
332604 On ch=1 n=60 v=49
332624 On ch=1 n=56 v=46
332630 On ch=1 n=48 v=0
332666 On ch=1 n=60 v=0
332684 On ch=1 n=56 v=0
332732 On ch=1 n=76 v=55
332748 On ch=1 n=46 v=41
332780 On ch=1 n=76 v=0
332812 On ch=1 n=64 v=49
332824 On ch=1 n=46 v=0
332824 On ch=1 n=58 v=36
332878 On ch=1 n=64 v=0
332896 On ch=1 n=58 v=0
332922 On ch=1 n=72 v=43
332954 On ch=1 n=48 v=32
332980 On ch=1 n=72 v=0
332986 On ch=1 n=64 v=46
333006 On ch=1 n=58 v=25
333028 On ch=1 n=48 v=0
333038 On ch=1 n=64 v=0
333076 On ch=1 n=58 v=0
333106 On ch=1 n=44 v=62
333118 On ch=1 n=77 v=66
333164 On ch=1 n=77 v=0
333178 On ch=1 n=44 v=0
333202 On ch=1 n=65 v=51
333220 On ch=1 n=56 v=35
333270 On ch=1 n=65 v=0
333286 On ch=1 n=56 v=0
333304 On ch=1 n=72 v=55
333306 On ch=1 n=48 v=44
333374 On ch=1 n=48 v=0
333376 On ch=1 n=72 v=0
333394 On ch=1 n=56 v=27
333460 On ch=1 n=56 v=0
333498 On ch=1 n=43 v=68
333508 On ch=1 n=79 v=87
333574 On ch=1 n=79 v=0
333586 On ch=1 n=55 v=62
333600 On ch=1 n=67 v=55
333620 On ch=1 n=43 v=0
333644 On ch=1 n=55 v=0
333668 On ch=1 n=67 v=0
333708 On ch=1 n=72 v=50
333711 On ch=1 n=48 v=39
333756 On ch=1 n=67 v=54
333774 On ch=1 n=55 v=50
333788 On ch=1 n=72 v=0
333816 On ch=1 n=48 v=0
333820 On ch=1 n=67 v=0
333830 On ch=1 n=55 v=0
333882 On ch=1 n=41 v=76
333882 On ch=1 n=80 v=85
333982 On ch=1 n=68 v=68
333992 On ch=1 n=80 v=0
334000 On ch=1 n=53 v=88
334002 On ch=1 n=41 v=0
334028 On ch=1 n=68 v=0
334062 On ch=1 n=53 v=0
334092 On ch=1 n=72 v=54
334095 On ch=1 n=48 v=51
334144 On ch=1 n=53 v=91
334148 On ch=1 n=72 v=0
334148 On ch=1 n=68 v=48
334192 On ch=1 n=53 v=0
334224 On ch=1 n=68 v=0
334230 On ch=1 n=48 v=0
334270 On ch=1 n=39 v=81
334276 On ch=1 n=81 v=91
334280 Par ch=1 c=64 v=127
334312 Par ch=1 c=64 v=0
334350 On ch=1 n=51 v=84
334352 On ch=1 n=69 v=65
334376 On ch=1 n=81 v=0
334379 On ch=1 n=39 v=0
334448 On ch=1 n=51 v=0
334451 On ch=1 n=69 v=0
334458 On ch=1 n=72 v=74
334460 On ch=1 n=48 v=56
334540 On ch=1 n=69 v=62
334548 On ch=1 n=51 v=67
334552 On ch=1 n=48 v=0
334562 On ch=1 n=72 v=0
334604 On ch=1 n=69 v=0
334666 On ch=1 n=83 v=117
334670 On ch=1 n=51 v=0
334674 On ch=1 n=38 v=92
334748 On ch=1 n=50 v=76
334758 On ch=1 n=71 v=85
334770 On ch=1 n=38 v=0
334772 Par ch=1 c=64 v=127
334798 On ch=1 n=83 v=0
334804 Par ch=1 c=64 v=0
334860 On ch=1 n=77 v=88
334860 On ch=1 n=43 v=74
334874 On ch=1 n=50 v=0
334874 On ch=1 n=71 v=0
334944 On ch=1 n=50 v=83
334944 On ch=1 n=71 v=77
334964 On ch=1 n=77 v=0
335010 On ch=1 n=71 v=0
335012 On ch=1 n=43 v=0
335032 Par ch=1 c=64 v=127
335050 On ch=1 n=50 v=0
335056 On ch=1 n=36 v=98
335059 On ch=1 n=84 v=106
335064 Par ch=1 c=64 v=0
335150 On ch=1 n=84 v=0
335152 On ch=1 n=48 v=85
335158 On ch=1 n=36 v=0
335164 On ch=1 n=72 v=79
335216 On ch=1 n=72 v=0
335258 On ch=1 n=43 v=78
335260 On ch=1 n=77 v=87
335264 On ch=1 n=48 v=0
335294 Par ch=1 c=64 v=127
335326 Par ch=1 c=64 v=0
335332 On ch=1 n=48 v=73
335348 On ch=1 n=77 v=0
335348 On ch=1 n=72 v=61
335400 On ch=1 n=72 v=0
335428 On ch=1 n=43 v=0
335438 On ch=1 n=48 v=0
335446 On ch=1 n=86 v=107
335454 On ch=1 n=35 v=99
335532 On ch=1 n=47 v=89
335540 Par ch=1 c=64 v=127
335544 On ch=1 n=74 v=84
335550 On ch=1 n=86 v=0
335560 On ch=1 n=35 v=0
335572 Par ch=1 c=64 v=0
335606 On ch=1 n=74 v=0
335628 On ch=1 n=47 v=0
335634 On ch=1 n=43 v=68
335640 On ch=1 n=77 v=83
335704 On ch=1 n=47 v=52
335720 On ch=1 n=74 v=73
335732 On ch=1 n=77 v=0
335756 Par ch=1 c=64 v=127
335778 On ch=1 n=43 v=0
335781 On ch=1 n=74 v=0
335802 On ch=1 n=47 v=0
335816 Par ch=1 c=64 v=0
335834 On ch=1 n=88 v=109
335834 On ch=1 n=34 v=92
335932 On ch=1 n=46 v=80
335944 On ch=1 n=76 v=82
335966 On ch=1 n=88 v=0
335994 On ch=1 n=34 v=0
336016 Par ch=1 c=64 v=127
336018 On ch=1 n=36 v=73
336021 On ch=1 n=76 v=0
336024 On ch=1 n=79 v=92
336042 On ch=1 n=46 v=0
336048 Par ch=1 c=64 v=0
336104 On ch=1 n=46 v=65
336114 On ch=1 n=76 v=67
336124 On ch=1 n=79 v=0
336156 On ch=1 n=36 v=0
336162 On ch=1 n=76 v=0
336214 On ch=1 n=46 v=0
336222 On ch=1 n=89 v=108
336232 Par ch=1 c=64 v=127
336235 On ch=1 n=32 v=95
336262 Par ch=1 c=64 v=0
336286 On ch=1 n=31 v=39
336318 On ch=1 n=77 v=89
336330 On ch=1 n=44 v=88
336333 On ch=1 n=89 v=0
336352 On ch=1 n=31 v=0
336376 On ch=1 n=32 v=0
336410 On ch=1 n=77 v=0
336420 On ch=1 n=80 v=81
336426 On ch=1 n=36 v=87
336429 On ch=1 n=44 v=0
336478 Par ch=1 c=64 v=127
336508 On ch=1 n=77 v=73
336510 On ch=1 n=44 v=69
336524 Par ch=1 c=64 v=0
336546 On ch=1 n=80 v=0
336548 On ch=1 n=36 v=0
336566 On ch=1 n=44 v=0
336610 On ch=1 n=77 v=0
336613 On ch=1 n=86 v=97
336616 On ch=1 n=29 v=106
336708 On ch=1 n=77 v=58
336720 On ch=1 n=41 v=89
336726 On ch=1 n=29 v=0
336743 On ch=1 n=86 v=0
336776 On ch=1 n=41 v=0
336802 On ch=1 n=77 v=0
336806 On ch=1 n=36 v=83
336812 On ch=1 n=80 v=82
336886 On ch=1 n=41 v=84
336900 On ch=1 n=77 v=70
336928 On ch=1 n=36 v=0
336936 On ch=1 n=80 v=0
336956 On ch=1 n=41 v=0
336978 On ch=1 n=77 v=0
337024 On ch=1 n=43 v=110
337024 On ch=1 n=31 v=106
337106 On ch=1 n=31 v=0
337112 On ch=1 n=43 v=0
337122 Par ch=1 c=64 v=127
337138 On ch=1 n=75 v=69
337238 On ch=1 n=79 v=81
337248 On ch=1 n=75 v=0
337346 On ch=1 n=75 v=60
337378 On ch=1 n=79 v=0
337424 On ch=1 n=75 v=0
337440 On ch=1 n=84 v=100
337446 Par ch=1 c=64 v=0
337542 On ch=1 n=75 v=64
337648 On ch=1 n=79 v=85
337662 On ch=1 n=75 v=0
337728 On ch=1 n=84 v=0
337731 On ch=1 n=75 v=56
337796 On ch=1 n=79 v=0
337844 On ch=1 n=55 v=101
337844 On ch=1 n=43 v=101
337894 On ch=1 n=75 v=0
337946 On ch=1 n=43 v=0
337946 On ch=1 n=55 v=0
337952 Par ch=1 c=64 v=127
337952 On ch=1 n=74 v=80
338040 On ch=1 n=74 v=0
338042 On ch=1 n=77 v=83
338138 On ch=1 n=74 v=78
338184 On ch=1 n=77 v=0
338234 On ch=1 n=74 v=0
338237 On ch=1 n=83 v=109
338274 Par ch=1 c=64 v=0
338334 On ch=1 n=74 v=59
338374 On ch=1 n=83 v=0
338428 On ch=1 n=74 v=0
338446 On ch=1 n=77 v=71
338538 On ch=1 n=74 v=57
338550 On ch=1 n=77 v=0
338634 On ch=1 n=74 v=0
338680 On ch=1 n=72 v=62
338688 On ch=1 n=48 v=36
338744 On ch=1 n=48 v=0
338766 Par ch=1 c=64 v=127
338880 On ch=1 n=72 v=0
338922 On ch=1 n=63 v=40
338932 On ch=1 n=84 v=72
338950 On ch=1 n=60 v=33
338984 On ch=1 n=63 v=0
339020 On ch=1 n=60 v=0
339104 Par ch=1 c=64 v=0
339140 On ch=1 n=60 v=24
339142 On ch=1 n=63 v=53
339200 On ch=1 n=63 v=0
339224 On ch=1 n=60 v=0
339312 On ch=1 n=63 v=36
339312 On ch=1 n=60 v=45
339326 On ch=1 n=84 v=0
339330 On ch=1 n=83 v=91
339412 On ch=1 n=63 v=0
339426 On ch=1 n=60 v=0
339440 On ch=1 n=84 v=51
339450 On ch=1 n=83 v=0
339534 On ch=1 n=56 v=53
339537 On ch=1 n=86 v=69
339554 On ch=1 n=84 v=0
339626 On ch=1 n=84 v=66
339678 On ch=1 n=86 v=0
339704 On ch=1 n=82 v=64
339722 On ch=1 n=63 v=28
339740 On ch=1 n=84 v=0
339740 On ch=1 n=60 v=37
339784 On ch=1 n=63 v=0
339802 On ch=1 n=60 v=0
339822 On ch=1 n=80 v=65
339848 On ch=1 n=82 v=0
339884 On ch=1 n=60 v=39
339888 On ch=1 n=63 v=36
339916 On ch=1 n=80 v=0
339924 On ch=1 n=79 v=55
339954 On ch=1 n=63 v=0
339978 On ch=1 n=60 v=0
340006 On ch=1 n=80 v=55
340028 On ch=1 n=79 v=0
340106 On ch=1 n=82 v=55
340114 On ch=1 n=63 v=35
340120 Par ch=1 c=64 v=127
340120 On ch=1 n=60 v=28
340128 On ch=1 n=80 v=0
340174 On ch=1 n=63 v=0
340202 On ch=1 n=80 v=55
340208 On ch=1 n=60 v=0
340238 On ch=1 n=82 v=0
340296 On ch=1 n=53 v=94
340310 On ch=1 n=79 v=69
340352 On ch=1 n=80 v=0
340408 On ch=1 n=77 v=45
340410 On ch=1 n=79 v=0
340456 On ch=1 n=56 v=0
340482 On ch=1 n=62 v=41
340500 On ch=1 n=75 v=62
340503 On ch=1 n=60 v=36
340508 On ch=1 n=77 v=0
340538 On ch=1 n=62 v=0
340566 On ch=1 n=60 v=0
340592 On ch=1 n=74 v=62
340595 On ch=1 n=75 v=0
340670 On ch=1 n=74 v=0
340680 On ch=1 n=73 v=54
340710 On ch=1 n=60 v=34
340716 On ch=1 n=62 v=41
340772 On ch=1 n=62 v=0
340772 On ch=1 n=60 v=0
340780 On ch=1 n=74 v=56
340794 On ch=1 n=73 v=0
340870 On ch=1 n=75 v=65
340872 On ch=1 n=74 v=0
340896 On ch=1 n=62 v=30
340902 On ch=1 n=60 v=23
340964 On ch=1 n=62 v=0
340964 On ch=1 n=74 v=60
340974 On ch=1 n=60 v=0
340984 On ch=1 n=75 v=0
341026 Par ch=1 c=64 v=0
341050 On ch=1 n=53 v=0
341056 On ch=1 n=72 v=73
341068 On ch=1 n=74 v=0
341068 On ch=1 n=55 v=72
341142 On ch=1 n=71 v=76
341150 On ch=1 n=72 v=0
341218 On ch=1 n=71 v=0
341246 On ch=1 n=68 v=70
341264 On ch=1 n=62 v=39
341267 On ch=1 n=59 v=39
341320 On ch=1 n=62 v=0
341323 On ch=1 n=59 v=0
341332 On ch=1 n=67 v=66
341352 On ch=1 n=68 v=0
341420 On ch=1 n=67 v=0
341424 On ch=1 n=66 v=61
341446 On ch=1 n=59 v=29
341454 On ch=1 n=62 v=23
341508 On ch=1 n=59 v=0
341520 On ch=1 n=62 v=0
341522 On ch=1 n=67 v=62
341532 On ch=1 n=66 v=0
341620 On ch=1 n=62 v=32
341622 On ch=1 n=68 v=67
341640 On ch=1 n=67 v=0
341648 On ch=1 n=59 v=16
341688 On ch=1 n=62 v=0
341712 On ch=1 n=59 v=0
341712 On ch=1 n=65 v=63
341718 Par ch=1 c=64 v=127
341726 On ch=1 n=68 v=0
341729 On ch=1 n=55 v=0
341772 On ch=1 n=65 v=0
341828 On ch=1 n=63 v=79
341832 On ch=1 n=48 v=54
341864 On ch=1 n=63 v=0
341978 Par ch=1 c=64 v=0
342080 On ch=1 n=84 v=97
342096 On ch=1 n=60 v=46
342099 On ch=1 n=72 v=58
342099 On ch=1 n=51 v=50
342174 On ch=1 n=51 v=0
342174 On ch=1 n=60 v=0
342284 On ch=1 n=60 v=42
342300 On ch=1 n=51 v=53
342316 Par ch=1 c=64 v=127
342356 On ch=1 n=72 v=0
342376 On ch=1 n=60 v=0
342384 On ch=1 n=51 v=0
342474 On ch=1 n=60 v=42
342484 On ch=1 n=84 v=0
342484 On ch=1 n=83 v=99
342496 On ch=1 n=51 v=44
342504 On ch=1 n=48 v=0
342532 On ch=1 n=60 v=0
342556 On ch=1 n=51 v=0
342580 On ch=1 n=84 v=68
342650 On ch=1 n=83 v=0
342664 On ch=1 n=44 v=91
342670 On ch=1 n=86 v=88
342700 Par ch=1 c=64 v=0
342702 On ch=1 n=84 v=0
342764 On ch=1 n=84 v=86
342830 On ch=1 n=86 v=0
342842 On ch=1 n=82 v=73
342842 On ch=1 n=56 v=53
342856 On ch=1 n=48 v=44
342874 On ch=1 n=51 v=53
342894 On ch=1 n=84 v=0
342918 On ch=1 n=56 v=0
342924 On ch=1 n=51 v=0
342928 On ch=1 n=48 v=0
342958 On ch=1 n=80 v=75
342998 On ch=1 n=82 v=0
343008 Par ch=1 c=64 v=127
343034 On ch=1 n=56 v=46
343042 On ch=1 n=79 v=83
343046 On ch=1 n=51 v=35
343048 On ch=1 n=48 v=26
343076 On ch=1 n=80 v=0
343098 On ch=1 n=79 v=0
343104 On ch=1 n=56 v=0
343126 On ch=1 n=48 v=0
343130 On ch=1 n=51 v=0
343130 On ch=1 n=80 v=80
343222 On ch=1 n=82 v=70
343238 On ch=1 n=56 v=55
343244 On ch=1 n=80 v=0
343244 On ch=1 n=51 v=41
343254 On ch=1 n=48 v=36
343290 On ch=1 n=56 v=0
343312 On ch=1 n=80 v=67
343316 On ch=1 n=51 v=0
343320 On ch=1 n=44 v=0
343338 On ch=1 n=48 v=0
343380 On ch=1 n=82 v=0
343426 On ch=1 n=79 v=84
343432 On ch=1 n=41 v=93
343502 On ch=1 n=80 v=0
343520 On ch=1 n=79 v=0
343528 On ch=1 n=77 v=74
343590 On ch=1 n=48 v=59
343593 On ch=1 n=77 v=0
343593 On ch=1 n=53 v=75
343610 On ch=1 n=50 v=61
343626 On ch=1 n=75 v=75
343658 On ch=1 n=53 v=0
343662 On ch=1 n=50 v=0
343702 On ch=1 n=48 v=0
343704 On ch=1 n=74 v=85
343720 On ch=1 n=75 v=0
343790 On ch=1 n=73 v=76
343792 Par ch=1 c=64 v=0
343792 On ch=1 n=48 v=39
343794 On ch=1 n=53 v=68
343804 On ch=1 n=50 v=59
343814 On ch=1 n=74 v=0
343870 On ch=1 n=53 v=0
343876 On ch=1 n=50 v=0
343876 On ch=1 n=74 v=85
343894 On ch=1 n=48 v=0
343916 On ch=1 n=73 v=0
343964 On ch=1 n=75 v=83
343974 On ch=1 n=53 v=78
343978 On ch=1 n=48 v=48
343984 On ch=1 n=50 v=50
343998 On ch=1 n=74 v=0
344004 On ch=1 n=41 v=0
344036 Par ch=1 c=64 v=127
344058 On ch=1 n=74 v=91
344068 On ch=1 n=50 v=0
344082 On ch=1 n=53 v=0
344090 On ch=1 n=48 v=0
344124 On ch=1 n=75 v=0
344154 On ch=1 n=43 v=91
344157 On ch=1 n=72 v=91
344192 On ch=1 n=74 v=0
344250 On ch=1 n=71 v=84
344266 On ch=1 n=72 v=0
344304 On ch=1 n=71 v=0
344326 On ch=1 n=55 v=76
344328 On ch=1 n=47 v=71
344338 On ch=1 n=68 v=83
344338 On ch=1 n=50 v=64
344386 On ch=1 n=55 v=0
344389 On ch=1 n=50 v=0
344420 On ch=1 n=67 v=88
344430 On ch=1 n=68 v=0
344433 On ch=1 n=47 v=0
344482 Par ch=1 c=64 v=0
344510 On ch=1 n=66 v=77
344516 On ch=1 n=55 v=71
344524 On ch=1 n=50 v=61
344526 On ch=1 n=47 v=48
344530 On ch=1 n=67 v=0
344580 On ch=1 n=55 v=0
344594 On ch=1 n=50 v=0
344596 On ch=1 n=67 v=71
344604 On ch=1 n=47 v=0
344648 On ch=1 n=66 v=0
344688 On ch=1 n=68 v=78
344702 On ch=1 n=55 v=68
344702 On ch=1 n=50 v=62
344716 On ch=1 n=47 v=49
344738 On ch=1 n=67 v=0
344746 On ch=1 n=55 v=0
344752 On ch=1 n=50 v=0
344770 On ch=1 n=47 v=0
344773 Par ch=1 c=64 v=127
344798 On ch=1 n=67 v=90
344800 On ch=1 n=43 v=0
344804 On ch=1 n=68 v=0
344899 On ch=1 n=72 v=95
344906 On ch=1 n=36 v=88
344934 On ch=1 n=72 v=0
344934 On ch=1 n=67 v=0
344996 On ch=1 n=36 v=0
345016 On ch=1 n=48 v=54
345076 On ch=1 n=48 v=0
345124 On ch=1 n=60 v=105
345126 On ch=1 n=36 v=71
345186 On ch=1 n=36 v=0
345204 Par ch=1 c=64 v=0
345222 On ch=1 n=48 v=66
345278 On ch=1 n=48 v=0
345304 On ch=1 n=36 v=74
345366 On ch=1 n=36 v=0
345386 On ch=1 n=48 v=61
345440 On ch=1 n=60 v=0
345480 On ch=1 n=58 v=68
345483 On ch=1 n=64 v=79
345496 On ch=1 n=48 v=0
345496 On ch=1 n=36 v=74
345540 On ch=1 n=58 v=0
345544 On ch=1 n=36 v=0
345570 On ch=1 n=48 v=55
345610 On ch=1 n=64 v=0
345672 On ch=1 n=65 v=69
345672 On ch=1 n=56 v=71
345675 On ch=1 n=36 v=74
345686 On ch=1 n=48 v=0
345722 On ch=1 n=56 v=0
345756 On ch=1 n=36 v=0
345756 On ch=1 n=48 v=59
345759 On ch=1 n=65 v=0
345872 On ch=1 n=48 v=0
345872 On ch=1 n=36 v=59
345875 On ch=1 n=67 v=67
345875 On ch=1 n=64 v=73
345926 On ch=1 n=64 v=0
345930 On ch=1 n=67 v=0
345946 On ch=1 n=36 v=0
345950 On ch=1 n=48 v=56
346046 On ch=1 n=68 v=73
346054 On ch=1 n=65 v=58
346060 On ch=1 n=48 v=0
346062 On ch=1 n=36 v=69
346098 On ch=1 n=65 v=0
346132 On ch=1 n=36 v=0
346142 On ch=1 n=48 v=59
346145 On ch=1 n=68 v=0
346238 On ch=1 n=71 v=95
346238 On ch=1 n=62 v=85
346244 On ch=1 n=48 v=0
346250 On ch=1 n=36 v=75
346296 On ch=1 n=62 v=0
346310 On ch=1 n=71 v=0
346336 On ch=1 n=48 v=63
346339 On ch=1 n=36 v=0
346434 On ch=1 n=36 v=73
346436 On ch=1 n=48 v=0
346436 On ch=1 n=63 v=85
346436 On ch=1 n=72 v=89
346474 On ch=1 n=63 v=0
346504 On ch=1 n=72 v=0
346524 On ch=1 n=36 v=0
346532 On ch=1 n=48 v=53
346642 On ch=1 n=48 v=0
346642 On ch=1 n=64 v=97
346642 On ch=1 n=72 v=95
346648 On ch=1 n=36 v=75
346738 On ch=1 n=48 v=54
346742 Par ch=1 c=64 v=127
346752 On ch=1 n=36 v=0
346766 On ch=1 n=64 v=0
346800 On ch=1 n=72 v=0
346830 On ch=1 n=36 v=75
346848 On ch=1 n=48 v=0
346920 On ch=1 n=48 v=66
346922 On ch=1 n=36 v=0
346972 Par ch=1 c=64 v=0
347008 On ch=1 n=76 v=87
347014 On ch=1 n=70 v=77
347022 On ch=1 n=36 v=75
347032 On ch=1 n=48 v=0
347078 On ch=1 n=70 v=0
347102 On ch=1 n=76 v=0
347112 On ch=1 n=36 v=0
347114 On ch=1 n=48 v=57
347200 On ch=1 n=77 v=91
347206 On ch=1 n=36 v=75
347212 On ch=1 n=68 v=77
347224 On ch=1 n=48 v=0
347300 On ch=1 n=68 v=0
347300 On ch=1 n=48 v=59
347304 On ch=1 n=36 v=0
347304 On ch=1 n=77 v=0
347370 On ch=1 n=79 v=92
347378 On ch=1 n=76 v=75
347400 On ch=1 n=36 v=75
347427 On ch=1 n=48 v=0
347454 On ch=1 n=76 v=0
347460 On ch=1 n=79 v=0
347490 On ch=1 n=48 v=79
347502 On ch=1 n=36 v=0
347550 On ch=1 n=80 v=92
347554 On ch=1 n=77 v=89
347580 On ch=1 n=36 v=80
347586 On ch=1 n=48 v=0
347616 On ch=1 n=77 v=0
347634 On ch=1 n=80 v=0
347666 On ch=1 n=48 v=61
347669 On ch=1 n=36 v=0
347732 On ch=1 n=83 v=114
347744 On ch=1 n=74 v=83
347760 On ch=1 n=36 v=83
347764 On ch=1 n=48 v=0
347828 On ch=1 n=83 v=0
347831 On ch=1 n=36 v=0
347832 On ch=1 n=74 v=0
347844 On ch=1 n=48 v=53
347932 On ch=1 n=48 v=0
347935 On ch=1 n=84 v=111
347942 On ch=1 n=75 v=81
347944 On ch=1 n=72 v=88
347946 On ch=1 n=36 v=79
348002 Par ch=1 c=64 v=127
348020 On ch=1 n=36 v=0
348028 On ch=1 n=48 v=45
348092 On ch=1 n=84 v=0
348112 On ch=1 n=48 v=0
348132 On ch=1 n=36 v=75
348148 On ch=1 n=72 v=0
348174 On ch=1 n=75 v=0
348216 On ch=1 n=48 v=39
348238 On ch=1 n=36 v=0
348330 On ch=1 n=48 v=0
348334 On ch=1 n=36 v=67
348418 On ch=1 n=48 v=52
348426 On ch=1 n=36 v=0
348508 On ch=1 n=48 v=0
348542 On ch=1 n=36 v=53
348584 On ch=1 n=48 v=70
348634 On ch=1 n=36 v=0
348676 On ch=1 n=48 v=0
348698 On ch=1 n=72 v=92
348701 On ch=1 n=63 v=84
348701 On ch=1 n=60 v=91
348718 On ch=1 n=34 v=93
348740 Par ch=1 c=64 v=0
348798 On ch=1 n=46 v=83
348846 On ch=1 n=34 v=0
348902 On ch=1 n=46 v=0
348916 On ch=1 n=34 v=74
348938 Par ch=1 c=64 v=127
348972 On ch=1 n=46 v=58
349030 On ch=1 n=60 v=0
349038 On ch=1 n=34 v=0
349064 On ch=1 n=63 v=0
349096 On ch=1 n=46 v=0
349104 On ch=1 n=34 v=73
349128 On ch=1 n=72 v=0
349182 On ch=1 n=46 v=70
349234 On ch=1 n=34 v=0
349300 On ch=1 n=46 v=0
349303 On ch=1 n=34 v=78
349380 On ch=1 n=46 v=83
349440 On ch=1 n=34 v=0
349480 On ch=1 n=46 v=0
349486 On ch=1 n=75 v=92
349486 On ch=1 n=84 v=110
349486 On ch=1 n=72 v=100
349494 On ch=1 n=32 v=93
349554 Par ch=1 c=64 v=0
349582 On ch=1 n=44 v=94
349634 On ch=1 n=32 v=0
349666 On ch=1 n=44 v=0
349678 On ch=1 n=32 v=87
349752 Par ch=1 c=64 v=127
349770 On ch=1 n=44 v=78
349820 On ch=1 n=32 v=0
349826 On ch=1 n=84 v=0
349876 On ch=1 n=44 v=0
349878 On ch=1 n=32 v=76
349906 On ch=1 n=75 v=0
349908 On ch=1 n=72 v=0
349970 On ch=1 n=44 v=89
350002 On ch=1 n=32 v=0
350074 On ch=1 n=32 v=75
350076 On ch=1 n=44 v=0
350150 On ch=1 n=44 v=88
350224 On ch=1 n=32 v=0
350256 On ch=1 n=72 v=99
350260 On ch=1 n=60 v=100
350260 On ch=1 n=63 v=97
350262 Par ch=1 c=64 v=0
350264 On ch=1 n=44 v=0
350264 On ch=1 n=31 v=106
350360 On ch=1 n=43 v=87
350394 On ch=1 n=31 v=0
350452 On ch=1 n=43 v=0
350458 On ch=1 n=31 v=92
350460 Par ch=1 c=64 v=127
350512 On ch=1 n=60 v=0
350556 On ch=1 n=43 v=64
350582 On ch=1 n=63 v=0
350600 On ch=1 n=31 v=0
350646 On ch=1 n=72 v=0
350662 On ch=1 n=43 v=0
350664 On ch=1 n=31 v=88
350776 On ch=1 n=43 v=64
350802 On ch=1 n=31 v=0
350878 On ch=1 n=43 v=0
350888 On ch=1 n=31 v=73
350988 On ch=1 n=43 v=74
351030 On ch=1 n=31 v=0
351044 On ch=1 n=43 v=0
351284 On ch=1 n=87 v=95
351290 On ch=1 n=75 v=90
351290 On ch=1 n=84 v=98
351298 On ch=1 n=42 v=94
351298 On ch=1 n=81 v=83
351298 On ch=1 n=30 v=100
351382 Par ch=1 c=64 v=0
351642 Par ch=1 c=64 v=127
351672 On ch=1 n=42 v=0
351688 On ch=1 n=30 v=0
351706 On ch=1 n=87 v=0
351724 On ch=1 n=81 v=0
351738 On ch=1 n=75 v=0
351740 On ch=1 n=84 v=0
352674 On ch=1 n=63 v=100
352676 On ch=1 n=54 v=102
352682 On ch=1 n=57 v=83
352684 On ch=1 n=60 v=94
352684 On ch=1 n=51 v=91
352688 On ch=1 n=42 v=81
352696 On ch=1 n=48 v=81
352702 On ch=1 n=45 v=72
353104 Par ch=1 c=64 v=0
353548 Par ch=1 c=64 v=127
357856 On ch=1 n=45 v=0
357924 On ch=1 n=54 v=0
357974 On ch=1 n=51 v=0
357984 On ch=1 n=48 v=0
358000 On ch=1 n=57 v=0
358022 On ch=1 n=60 v=0
358025 On ch=1 n=42 v=0
358156 On ch=1 n=63 v=0
358250 Par ch=1 c=64 v=0
359402 Par ch=1 c=64 v=127
361820 On ch=1 n=63 v=32
361834 On ch=1 n=66 v=18
361834 On ch=1 n=72 v=39
361858 On ch=1 n=69 v=14
361918 On ch=1 n=66 v=0
361942 On ch=1 n=69 v=0
361964 On ch=1 n=63 v=0
362078 On ch=1 n=69 v=18
362081 On ch=1 n=74 v=65
362086 On ch=1 n=66 v=23
362110 On ch=1 n=72 v=0
362114 On ch=1 n=62 v=38
362198 Par ch=1 c=64 v=0
362522 Par ch=1 c=64 v=127
362534 On ch=1 n=62 v=0
362556 On ch=1 n=74 v=0
362580 On ch=1 n=69 v=0
362592 On ch=1 n=66 v=0
362944 On ch=1 n=75 v=65
362952 On ch=1 n=66 v=41
362962 On ch=1 n=69 v=27
362966 On ch=1 n=60 v=42
363040 On ch=1 n=69 v=0
363062 On ch=1 n=60 v=0
363072 On ch=1 n=75 v=0
363074 On ch=1 n=66 v=0
363198 On ch=1 n=75 v=57
363208 On ch=1 n=69 v=34
363218 On ch=1 n=66 v=26
363222 On ch=1 n=60 v=48
363290 Par ch=1 c=64 v=0
364062 On ch=1 n=69 v=0
364104 Par ch=1 c=64 v=127
364152 On ch=1 n=69 v=4
364734 On ch=1 n=66 v=0
364798 On ch=1 n=75 v=0
364816 On ch=1 n=60 v=0
365508 On ch=1 n=74 v=27
365546 On ch=1 n=67 v=13
365554 On ch=1 n=62 v=9
365562 On ch=1 n=59 v=16
365632 On ch=1 n=69 v=0
365686 Par ch=1 c=64 v=0
366802 On ch=1 n=62 v=0
366850 On ch=1 n=74 v=0
366868 On ch=1 n=67 v=0
366876 On ch=1 n=59 v=0
367730 Par ch=1 c=64 v=127
368910 On ch=1 n=77 v=68
368918 On ch=1 n=68 v=38
368920 On ch=1 n=71 v=50
368924 On ch=1 n=74 v=39
368992 On ch=1 n=74 v=0
368995 On ch=1 n=71 v=0
369032 On ch=1 n=68 v=0
369158 On ch=1 n=74 v=56
369160 On ch=1 n=79 v=84
369163 On ch=1 n=71 v=57
369176 On ch=1 n=67 v=55
369206 On ch=1 n=77 v=0
369266 Par ch=1 c=64 v=0
369574 Par ch=1 c=64 v=127
369668 On ch=1 n=74 v=0
369706 On ch=1 n=67 v=0
369826 On ch=1 n=71 v=0
369948 On ch=1 n=79 v=0
370550 On ch=1 n=80 v=61
370572 On ch=1 n=74 v=43
370574 On ch=1 n=71 v=35
370578 On ch=1 n=65 v=35
370644 On ch=1 n=74 v=0
370650 On ch=1 n=65 v=0
370658 On ch=1 n=71 v=0
370714 On ch=1 n=80 v=0
370898 On ch=1 n=80 v=50
370920 On ch=1 n=71 v=40
370930 On ch=1 n=74 v=42
370940 On ch=1 n=65 v=30
371050 Par ch=1 c=64 v=0
371678 Par ch=1 c=64 v=127
372144 On ch=1 n=74 v=0
372220 On ch=1 n=71 v=0
372820 On ch=1 n=80 v=0
372838 On ch=1 n=65 v=0
373218 On ch=1 n=72 v=15
373222 On ch=1 n=75 v=14
373230 On ch=1 n=79 v=27
373240 On ch=1 n=63 v=64
373478 Par ch=1 c=64 v=0
373754 Par ch=1 c=64 v=127
373980 On ch=1 n=63 v=0
373992 On ch=1 n=75 v=0
374018 On ch=1 n=79 v=0
374168 On ch=1 n=72 v=0
374876 Par ch=1 c=64 v=0
375444 Par ch=1 c=64 v=127
376516 On ch=1 n=82 v=71
376519 On ch=1 n=70 v=60
376532 On ch=1 n=79 v=68
376540 On ch=1 n=61 v=47
376544 On ch=1 n=76 v=46
376547 On ch=1 n=67 v=43
376558 On ch=1 n=64 v=42
376604 On ch=1 n=76 v=0
376616 On ch=1 n=79 v=0
376619 On ch=1 n=64 v=0
376622 On ch=1 n=67 v=0
376628 On ch=1 n=61 v=0
376636 On ch=1 n=70 v=0
376684 On ch=1 n=82 v=0
376762 On ch=1 n=84 v=106
376774 On ch=1 n=72 v=82
376777 On ch=1 n=76 v=73
376780 On ch=1 n=79 v=81
376786 On ch=1 n=67 v=71
376792 On ch=1 n=60 v=63
376800 On ch=1 n=64 v=64
376904 Par ch=1 c=64 v=0
377134 Par ch=1 c=64 v=127
377222 On ch=1 n=67 v=0
377236 On ch=1 n=64 v=0
377248 On ch=1 n=72 v=0
377282 On ch=1 n=79 v=0
377285 On ch=1 n=60 v=0
377302 On ch=1 n=76 v=0
377318 On ch=1 n=84 v=0
377560 On ch=1 n=85 v=100
377570 On ch=1 n=73 v=76
377573 On ch=1 n=76 v=71
377576 On ch=1 n=79 v=84
377580 On ch=1 n=67 v=87
377582 On ch=1 n=58 v=69
377584 On ch=1 n=64 v=67
377636 On ch=1 n=64 v=0
377640 On ch=1 n=67 v=0
377706 On ch=1 n=58 v=0
377716 On ch=1 n=73 v=0
377730 On ch=1 n=79 v=0
377732 On ch=1 n=76 v=0
377750 On ch=1 n=85 v=0
377826 On ch=1 n=85 v=92
377838 On ch=1 n=73 v=93
377841 On ch=1 n=79 v=89
377844 On ch=1 n=67 v=92
377846 On ch=1 n=56 v=74
377846 On ch=1 n=76 v=72
377848 On ch=1 n=64 v=79
377854 On ch=1 n=58 v=56
378040 Par ch=1 c=64 v=0
378394 Par ch=1 c=64 v=127
378762 On ch=1 n=67 v=0
379000 On ch=1 n=64 v=0
379078 On ch=1 n=58 v=0
379116 On ch=1 n=76 v=0
379262 On ch=1 n=79 v=0
379408 On ch=1 n=73 v=0
379526 On ch=1 n=85 v=0
379700 On ch=1 n=84 v=97
379705 On ch=1 n=68 v=50
379714 On ch=1 n=72 v=64
379730 On ch=1 n=65 v=46
379752 On ch=1 n=60 v=36
379930 Par ch=1 c=64 v=0
380160 Par ch=1 c=64 v=127
380186 On ch=1 n=65 v=0
380198 On ch=1 n=60 v=0
380276 On ch=1 n=68 v=0
380324 On ch=1 n=84 v=0
380350 On ch=1 n=72 v=0
380496 On ch=1 n=56 v=0
380550 On ch=1 n=82 v=78
380560 On ch=1 n=70 v=52
380572 On ch=1 n=64 v=60
380575 On ch=1 n=55 v=45
380596 On ch=1 n=60 v=41
380914 Par ch=1 c=64 v=0
381144 On ch=1 n=60 v=0
381144 Par ch=1 c=64 v=127
381192 On ch=1 n=64 v=0
381220 On ch=1 n=55 v=0
381242 On ch=1 n=70 v=0
381250 On ch=1 n=82 v=0
381346 On ch=1 n=80 v=74
381358 On ch=1 n=68 v=43
381368 On ch=1 n=65 v=42
381390 On ch=1 n=53 v=38
381402 On ch=1 n=60 v=26
381528 Par ch=1 c=64 v=0
381790 Par ch=1 c=64 v=127
381826 On ch=1 n=65 v=0
381850 On ch=1 n=60 v=0
381926 On ch=1 n=53 v=0
382052 On ch=1 n=68 v=0
382150 On ch=1 n=80 v=0
382200 On ch=1 n=79 v=56
382210 On ch=1 n=60 v=37
382218 On ch=1 n=67 v=24
382240 On ch=1 n=51 v=25
382258 On ch=1 n=55 v=18
382388 Par ch=1 c=64 v=0
382634 Par ch=1 c=64 v=127
382706 On ch=1 n=55 v=0
382750 On ch=1 n=60 v=0
382782 On ch=1 n=79 v=0
382786 On ch=1 n=67 v=0
383042 On ch=1 n=77 v=42
383064 On ch=1 n=59 v=24
383072 On ch=1 n=65 v=13
383078 On ch=1 n=55 v=18
383080 On ch=1 n=51 v=0
383108 On ch=1 n=50 v=13
383156 Par ch=1 c=64 v=0
383418 Par ch=1 c=64 v=127
383528 On ch=1 n=59 v=0
383548 On ch=1 n=65 v=0
383550 On ch=1 n=77 v=0
383858 On ch=1 n=50 v=0
383964 On ch=1 n=75 v=26
383976 On ch=1 n=63 v=22
383994 On ch=1 n=60 v=13
383998 On ch=1 n=48 v=16
384110 Par ch=1 c=64 v=0
384478 Par ch=1 c=64 v=127
384554 On ch=1 n=55 v=0
384930 On ch=1 n=53 v=42
384968 On ch=1 n=60 v=0
384998 On ch=1 n=48 v=0
385016 Par ch=1 c=64 v=0
385050 On ch=1 n=63 v=0
385140 On ch=1 n=75 v=0
385614 Par ch=1 c=64 v=127
385932 On ch=1 n=74 v=31
385938 On ch=1 n=65 v=20
385938 On ch=1 n=68 v=17
385994 On ch=1 n=53 v=0
386168 Par ch=1 c=64 v=0
386722 Par ch=1 c=64 v=127
387016 On ch=1 n=74 v=0
387090 On ch=1 n=65 v=0
387090 On ch=1 n=68 v=0
387184 On ch=1 n=31 v=27
387184 On ch=1 n=43 v=25
387244 Par ch=1 c=64 v=0
387674 Par ch=1 c=64 v=127
387772 On ch=1 n=31 v=0
388452 On ch=1 n=43 v=0
388476 On ch=1 n=59 v=16
388512 On ch=1 n=50 v=9
388520 On ch=1 n=53 v=28
388950 On ch=1 n=50 v=0
388986 On ch=1 n=53 v=0
389184 On ch=1 n=59 v=0
390132 Par ch=1 c=64 v=0
390134 On ch=1 n=60 v=37
390148 On ch=1 n=36 v=28
390220 On ch=1 n=36 v=0
390226 On ch=1 n=48 v=33
390310 On ch=1 n=48 v=0
390316 On ch=1 n=36 v=38
390332 Par ch=1 c=64 v=127
390394 On ch=1 n=36 v=0
390412 On ch=1 n=48 v=27
390506 On ch=1 n=48 v=0
390542 On ch=1 n=36 v=28
390592 Par ch=1 c=64 v=0
390606 On ch=1 n=36 v=0
390624 On ch=1 n=48 v=21
390692 On ch=1 n=60 v=0
390710 On ch=1 n=48 v=0
390716 On ch=1 n=58 v=41
390732 On ch=1 n=36 v=35
390738 On ch=1 n=64 v=40
390774 On ch=1 n=58 v=0
390794 On ch=1 n=36 v=0
390794 Par ch=1 c=64 v=127
390808 On ch=1 n=64 v=0
390828 On ch=1 n=48 v=26
390906 On ch=1 n=48 v=0
390928 On ch=1 n=56 v=53
390930 Par ch=1 c=64 v=0
390933 On ch=1 n=65 v=35
390950 On ch=1 n=36 v=45
390978 On ch=1 n=56 v=0
390992 On ch=1 n=65 v=0
391002 On ch=1 n=36 v=0
391034 On ch=1 n=48 v=38
391104 On ch=1 n=48 v=0
391120 On ch=1 n=67 v=68
391128 On ch=1 n=64 v=59
391136 On ch=1 n=36 v=42
391176 On ch=1 n=64 v=0
391176 On ch=1 n=67 v=0
391190 On ch=1 n=36 v=0
391218 On ch=1 n=48 v=39
391298 On ch=1 n=48 v=0
391302 On ch=1 n=68 v=55
391316 On ch=1 n=65 v=44
391318 On ch=1 n=36 v=49
391360 On ch=1 n=68 v=0
391364 On ch=1 n=65 v=0
391378 On ch=1 n=36 v=0
391409 On ch=1 n=48 v=36
391492 On ch=1 n=48 v=0
391492 On ch=1 n=62 v=60
391495 On ch=1 n=71 v=66
391514 On ch=1 n=36 v=53
391542 On ch=1 n=62 v=0
391544 On ch=1 n=71 v=0
391574 On ch=1 n=36 v=0
391614 On ch=1 n=48 v=41
391678 On ch=1 n=72 v=71
391688 On ch=1 n=48 v=0
391692 On ch=1 n=63 v=51
391718 On ch=1 n=36 v=49
391724 On ch=1 n=72 v=0
391742 On ch=1 n=63 v=0
391766 On ch=1 n=36 v=0
391796 On ch=1 n=48 v=36
391870 On ch=1 n=48 v=0
391890 On ch=1 n=64 v=72
391890 On ch=1 n=72 v=70
391906 On ch=1 n=36 v=45
391956 On ch=1 n=36 v=0
391966 On ch=1 n=64 v=0
391976 Par ch=1 c=64 v=127
391986 On ch=1 n=48 v=40
391989 On ch=1 n=72 v=0
392054 On ch=1 n=48 v=0
392078 On ch=1 n=36 v=41
392134 On ch=1 n=36 v=0
392158 On ch=1 n=48 v=41
392206 Par ch=1 c=64 v=0
392239 On ch=1 n=48 v=0
392258 On ch=1 n=36 v=50
392264 On ch=1 n=76 v=66
392266 On ch=1 n=70 v=57
392310 On ch=1 n=36 v=0
392314 On ch=1 n=70 v=0
392324 On ch=1 n=76 v=0
392336 On ch=1 n=48 v=40
392418 On ch=1 n=48 v=0
392440 On ch=1 n=68 v=57
392446 On ch=1 n=36 v=52
392454 On ch=1 n=77 v=70
392484 On ch=1 n=68 v=0
392494 On ch=1 n=36 v=0
392496 On ch=1 n=77 v=0
392530 On ch=1 n=48 v=34
392608 On ch=1 n=48 v=0
392628 On ch=1 n=36 v=51
392630 On ch=1 n=79 v=78
392642 On ch=1 n=76 v=45
392680 On ch=1 n=36 v=0
392682 On ch=1 n=79 v=0
392692 On ch=1 n=76 v=0
392708 On ch=1 n=48 v=42
392782 On ch=1 n=48 v=0
392806 On ch=1 n=80 v=78
392812 On ch=1 n=36 v=55
392817 On ch=1 n=77 v=66
392854 On ch=1 n=77 v=0
392864 On ch=1 n=36 v=0
392870 On ch=1 n=80 v=0
392894 On ch=1 n=48 v=39
392956 On ch=1 n=48 v=0
392990 On ch=1 n=83 v=99
392992 On ch=1 n=74 v=72
392994 On ch=1 n=36 v=64
393028 On ch=1 n=83 v=0
393030 On ch=1 n=74 v=0
393044 On ch=1 n=36 v=0
393084 On ch=1 n=48 v=47
393142 On ch=1 n=48 v=0
393176 On ch=1 n=84 v=91
393182 On ch=1 n=75 v=55
393188 On ch=1 n=72 v=55
393188 On ch=1 n=36 v=67
393264 On ch=1 n=36 v=0
393266 On ch=1 n=48 v=49
393298 Par ch=1 c=64 v=127
393328 On ch=1 n=84 v=0
393330 On ch=1 n=72 v=0
393332 On ch=1 n=48 v=0
393348 On ch=1 n=75 v=0
393376 On ch=1 n=36 v=60
393422 On ch=1 n=48 v=59
393456 On ch=1 n=36 v=0
393504 On ch=1 n=48 v=0
393562 On ch=1 n=84 v=80
393562 On ch=1 n=34 v=88
393565 On ch=1 n=75 v=54
393565 On ch=1 n=72 v=55
393642 On ch=1 n=46 v=61
393674 On ch=1 n=34 v=0
393716 On ch=1 n=46 v=0
393730 On ch=1 n=34 v=79
393760 On ch=1 n=75 v=0
393790 On ch=1 n=72 v=0
393790 On ch=1 n=84 v=0
393810 On ch=1 n=46 v=83
393850 On ch=1 n=34 v=0
393912 On ch=1 n=46 v=0
393914 Par ch=1 c=64 v=0
393916 On ch=1 n=32 v=97
393928 On ch=1 n=84 v=103
393930 On ch=1 n=72 v=94
393932 On ch=1 n=75 v=86
393998 On ch=1 n=44 v=104
394056 On ch=1 n=32 v=0
394090 On ch=1 n=44 v=0
394098 On ch=1 n=32 v=97
394116 On ch=1 n=84 v=0
394128 Par ch=1 c=64 v=127
394156 On ch=1 n=75 v=0
394156 On ch=1 n=72 v=0
394172 On ch=1 n=44 v=97
394250 On ch=1 n=32 v=0
394292 On ch=1 n=44 v=0
394292 On ch=1 n=31 v=111
394298 On ch=1 n=84 v=109
394302 On ch=1 n=72 v=103
394304 On ch=1 n=75 v=88
394384 On ch=1 n=43 v=92
394420 On ch=1 n=72 v=0
394422 On ch=1 n=31 v=0
394424 On ch=1 n=75 v=0
394438 On ch=1 n=43 v=0
394462 On ch=1 n=84 v=0
394474 On ch=1 n=31 v=101
394544 On ch=1 n=43 v=94
394604 On ch=1 n=31 v=0
394607 On ch=1 n=43 v=0
394650 Par ch=1 c=64 v=0
394702 On ch=1 n=75 v=109
394702 On ch=1 n=87 v=100
394708 On ch=1 n=84 v=105
394714 On ch=1 n=42 v=115
394716 On ch=1 n=30 v=103
394804 On ch=1 n=42 v=0
394826 On ch=1 n=30 v=0
394834 Par ch=1 c=64 v=127
394860 On ch=1 n=87 v=0
394878 On ch=1 n=75 v=0
394898 On ch=1 n=84 v=0
395096 Par ch=1 c=64 v=0
395542 On ch=1 n=75 v=103
395546 On ch=1 n=66 v=98
395552 On ch=1 n=72 v=95
395554 On ch=1 n=69 v=84
395554 On ch=1 n=63 v=104
395558 On ch=1 n=54 v=98
395568 On ch=1 n=60 v=91
395576 On ch=1 n=57 v=76
395634 On ch=1 n=63 v=0
395648 On ch=1 n=57 v=0
395650 On ch=1 n=54 v=0
395664 Par ch=1 c=64 v=127
395676 On ch=1 n=66 v=0
395676 On ch=1 n=60 v=0
395706 On ch=1 n=75 v=0
395722 On ch=1 n=72 v=0
395725 On ch=1 n=69 v=0
396048 Par ch=1 c=64 v=0
396386 On ch=1 n=79 v=113
396386 On ch=1 n=67 v=110
396389 On ch=1 n=75 v=98
396392 On ch=1 n=72 v=104
396394 On ch=1 n=63 v=103
396400 On ch=1 n=55 v=95
396416 On ch=1 n=60 v=80
396462 On ch=1 n=55 v=0
396466 On ch=1 n=63 v=0
396466 On ch=1 n=60 v=0
396468 On ch=1 n=67 v=0
396506 On ch=1 n=79 v=0
396506 On ch=1 n=72 v=0
396509 Par ch=1 c=64 v=127
396530 On ch=1 n=75 v=0
396924 Par ch=1 c=64 v=0
397312 On ch=1 n=59 v=108
397314 On ch=1 n=50 v=115
397316 On ch=1 n=53 v=119
397316 On ch=1 n=55 v=101
397318 On ch=1 n=38 v=111
397318 On ch=1 n=43 v=111
397318 On ch=1 n=31 v=112
397320 On ch=1 n=35 v=112
397438 On ch=1 n=38 v=0
397446 Par ch=1 c=64 v=127
397456 On ch=1 n=31 v=0
397474 On ch=1 n=43 v=0
397477 On ch=1 n=50 v=0
397490 On ch=1 n=35 v=0
397532 On ch=1 n=53 v=0
397540 On ch=1 n=59 v=0
397576 On ch=1 n=55 v=0
397830 Par ch=1 c=64 v=0
398394 On ch=1 n=60 v=110
398398 On ch=1 n=51 v=104
398398 On ch=1 n=48 v=110
398402 On ch=1 n=43 v=111
398404 On ch=1 n=36 v=118
398404 On ch=1 n=55 v=97
398406 On ch=1 n=39 v=99
398538 Par ch=1 c=64 v=127
398584 On ch=1 n=43 v=0
398590 On ch=1 n=39 v=0
398602 On ch=1 n=48 v=0
398646 On ch=1 n=36 v=0
398672 On ch=1 n=51 v=0
398684 On ch=1 n=60 v=0
398686 On ch=1 n=55 v=0
399352 Par ch=1 c=64 v=0
399360 Par ch=1 c=64 v=0