52 On ch=1 n=52 v=50
54 On ch=1 n=56 v=40
57 On ch=1 n=59 v=19
62 On ch=1 n=52 v=0
68 On ch=1 n=59 v=0
69 On ch=1 n=56 v=0
95 On ch=1 n=56 v=47
98 On ch=1 n=52 v=45
103 On ch=1 n=59 v=33
107 On ch=1 n=52 v=0
109 On ch=1 n=56 v=0
112 On ch=1 n=59 v=0
138 On ch=1 n=56 v=41
142 On ch=1 n=52 v=41
145 On ch=1 n=59 v=33
151 On ch=1 n=52 v=0
155 On ch=1 n=59 v=0
158 On ch=1 n=56 v=0
187 On ch=1 n=76 v=81
189 On ch=1 n=71 v=0
189 On ch=1 n=64 v=73
232 On ch=1 n=59 v=54
233 On ch=1 n=56 v=47
234 On ch=1 n=52 v=40
242 On ch=1 n=56 v=0
242 On ch=1 n=59 v=0
244 On ch=1 n=52 v=0
276 On ch=1 n=56 v=40
277 On ch=1 n=52 v=50
279 On ch=1 n=59 v=41
286 On ch=1 n=52 v=0
286 On ch=1 n=56 v=0
289 On ch=1 n=59 v=0
301 On ch=1 n=64 v=0
321 On ch=1 n=52 v=54
321 On ch=1 n=56 v=52
322 On ch=1 n=59 v=47
329 On ch=1 n=52 v=0
332 On ch=1 n=59 v=0
339 On ch=1 n=56 v=0
348 On ch=1 n=76 v=0
368 On ch=1 n=73 v=81
384 Par ch=1 c=64 v=0
404 On ch=1 n=52 v=54
407 On ch=1 n=61 v=57
408 On ch=1 n=57 v=73
417 On ch=1 n=57 v=0
419 Par ch=1 c=64 v=127
421 On ch=1 n=52 v=0
423 On ch=1 n=61 v=0
448 On ch=1 n=57 v=59
449 On ch=1 n=52 v=41
450 On ch=1 n=61 v=35
458 On ch=1 n=57 v=0
459 On ch=1 n=52 v=0
460 On ch=1 n=61 v=0
486 On ch=1 n=52 v=52
488 On ch=1 n=57 v=54
488 On ch=1 n=61 v=54
499 On ch=1 n=52 v=0
500 On ch=1 n=61 v=0
500 On ch=1 n=57 v=0
541 On ch=1 n=73 v=0
541 On ch=1 n=78 v=86
542 On ch=1 n=66 v=86
586 On ch=1 n=52 v=66
587 On ch=1 n=57 v=77
587 On ch=1 n=61 v=59
596 On ch=1 n=57 v=0
596 On ch=1 n=52 v=0
597 On ch=1 n=61 v=0
626 On ch=1 n=52 v=66
629 On ch=1 n=57 v=59
632 On ch=1 n=61 v=27
638 On ch=1 n=57 v=0
640 On ch=1 n=61 v=0
641 On ch=1 n=52 v=0
661 On ch=1 n=66 v=0
671 On ch=1 n=52 v=50
676 On ch=1 n=61 v=40
677 On ch=1 n=57 v=57
684 On ch=1 n=61 v=0
686 On ch=1 n=57 v=0
689 On ch=1 n=52 v=0
704 On ch=1 n=78 v=0
722 On ch=1 n=75 v=108
731 Par ch=1 c=64 v=0
764 Par ch=1 c=64 v=127
766 On ch=1 n=54 v=69
766 On ch=1 n=63 v=66
770 On ch=1 n=57 v=59
770 On ch=1 n=52 v=45
778 On ch=1 n=57 v=0
778 On ch=1 n=63 v=0
780 On ch=1 n=52 v=0
782 On ch=1 n=54 v=0
806 On ch=1 n=63 v=66
807 On ch=1 n=54 v=50
810 On ch=1 n=52 v=52
812 On ch=1 n=57 v=50
820 On ch=1 n=52 v=0
821 On ch=1 n=57 v=0
822 On ch=1 n=63 v=0
823 On ch=1 n=54 v=0
849 On ch=1 n=63 v=66
851 On ch=1 n=54 v=47
853 On ch=1 n=52 v=38
855 On ch=1 n=57 v=57
862 On ch=1 n=52 v=0
863 On ch=1 n=63 v=0
864 On ch=1 n=57 v=0
868 On ch=1 n=54 v=0
876 On ch=1 n=75 v=0
895 On ch=1 n=83 v=91
896 On ch=1 n=71 v=91
939 On ch=1 n=63 v=66
942 On ch=1 n=54 v=54
945 On ch=1 n=52 v=54
946 On ch=1 n=57 v=59
952 On ch=1 n=63 v=0
954 On ch=1 n=52 v=0
956 On ch=1 n=57 v=0
958 On ch=1 n=54 v=0
984 On ch=1 n=54 v=52
984 On ch=1 n=63 v=52
986 On ch=1 n=52 v=45
990 On ch=1 n=57 v=50
996 On ch=1 n=52 v=0
997 On ch=1 n=57 v=0
1000 On ch=1 n=71 v=0
1000 On ch=1 n=63 v=0
1002 On ch=1 n=54 v=0
1017 On ch=1 n=83 v=0
1023 On ch=1 n=54 v=54
1024 On ch=1 n=63 v=54
1030 On ch=1 n=52 v=40
1034 On ch=1 n=63 v=0
1038 On ch=1 n=52 v=0
1040 On ch=1 n=54 v=0
1080 On ch=1 n=64 v=50
1081 On ch=1 n=83 v=81
1082 On ch=1 n=52 v=66
1082 On ch=1 n=56 v=66
1083 On ch=1 n=59 v=66
1084 Par ch=1 c=64 v=0
1122 Par ch=1 c=64 v=127
1224 On ch=1 n=83 v=0
1224 On ch=1 n=85 v=73
1238 On ch=1 n=85 v=0
1244 On ch=1 n=87 v=59
1252 On ch=1 n=87 v=0
1257 Par ch=1 c=64 v=0
1267 On ch=1 n=88 v=73
1374 On ch=1 n=88 v=0
1384 On ch=1 n=52 v=0
1386 On ch=1 n=64 v=0
1389 On ch=1 n=59 v=0
1392 On ch=1 n=56 v=0
1455 On ch=1 n=80 v=69
1473 On ch=1 n=80 v=0
1477 On ch=1 n=76 v=69
1490 On ch=1 n=76 v=0
1502 On ch=1 n=81 v=52
1518 On ch=1 n=81 v=0
1524 On ch=1 n=78 v=54
1544 On ch=1 n=78 v=0
1549 On ch=1 n=83 v=54
1569 On ch=1 n=83 v=0
1572 On ch=1 n=80 v=54
1594 On ch=1 n=80 v=0
1597 On ch=1 n=85 v=54
1624 On ch=1 n=81 v=57
1625 On ch=1 n=85 v=0
1641 On ch=1 n=81 v=0
1650 On ch=1 n=83 v=66
1651 On ch=1 n=68 v=50
1673 On ch=1 n=83 v=0
1676 On ch=1 n=68 v=0
1677 On ch=1 n=64 v=69
1708 On ch=1 n=69 v=54
1712 On ch=1 n=64 v=0
1729 On ch=1 n=66 v=52
1733 On ch=1 n=69 v=0
1762 On ch=1 n=66 v=0
1763 On ch=1 n=71 v=47
1780 On ch=1 n=71 v=0
1782 On ch=1 n=68 v=57
1808 On ch=1 n=73 v=66
1810 On ch=1 n=68 v=0
1832 On ch=1 n=73 v=0
1834 On ch=1 n=69 v=66
1863 On ch=1 n=56 v=66
1868 On ch=1 n=71 v=66
1872 On ch=1 n=69 v=0
1886 On ch=1 n=56 v=0
1888 On ch=1 n=52 v=69
1909 On ch=1 n=71 v=0
1910 On ch=1 n=52 v=0
1916 On ch=1 n=57 v=59
1941 On ch=1 n=57 v=0
1941 On ch=1 n=54 v=54
1966 On ch=1 n=54 v=0
1968 On ch=1 n=59 v=59
1992 On ch=1 n=59 v=0
1994 On ch=1 n=56 v=69
2016 On ch=1 n=56 v=0
2017 On ch=1 n=61 v=66
2044 On ch=1 n=57 v=69
2047 On ch=1 n=61 v=0
2063 On ch=1 n=44 v=66
2066 On ch=1 n=57 v=0
2074 On ch=1 n=59 v=73
2093 On ch=1 n=40 v=81
2094 On ch=1 n=44 v=0
2121 On ch=1 n=45 v=77
2128 On ch=1 n=40 v=0
2140 On ch=1 n=59 v=0
2146 On ch=1 n=42 v=69
2149 On ch=1 n=45 v=0
2174 On ch=1 n=47 v=73
2176 On ch=1 n=42 v=0
2198 On ch=1 n=47 v=0
2198 On ch=1 n=44 v=66
2225 On ch=1 n=49 v=73
2232 On ch=1 n=44 v=0
2248 On ch=1 n=46 v=73
2255 On ch=1 n=49 v=0
2281 On ch=1 n=47 v=91
2285 On ch=1 n=46 v=0
2336 On ch=1 n=59 v=69
2389 On ch=1 n=68 v=66
2435 On ch=1 n=68 v=0
2440 On ch=1 n=56 v=52
2442 On ch=1 n=64 v=69
2484 On ch=1 n=64 v=0
2494 On ch=1 n=56 v=0
2496 On ch=1 n=69 v=54
2496 On ch=1 n=51 v=45
2512 On ch=1 n=59 v=0
2543 On ch=1 n=69 v=0
2547 On ch=1 n=66 v=50
2549 On ch=1 n=54 v=40
2554 Par ch=1 c=64 v=127
2582 On ch=1 n=66 v=0
2582 On ch=1 n=51 v=0
2584 On ch=1 n=47 v=0
2593 On ch=1 n=54 v=0
2597 On ch=1 n=57 v=52
2602 On ch=1 n=63 v=69
2623 On ch=1 n=57 v=0
2625 On ch=1 n=63 v=0
2649 On ch=1 n=71 v=69
2658 On ch=1 n=71 v=0
2678 On ch=1 n=47 v=66
2690 On ch=1 n=52 v=73
2697 On ch=1 n=47 v=0
2705 On ch=1 n=56 v=73
2709 Par ch=1 c=64 v=0
2716 On ch=1 n=52 v=0
2720 On ch=1 n=59 v=69
2726 On ch=1 n=73 v=73
2732 On ch=1 n=56 v=0
2740 On ch=1 n=73 v=0
2744 On ch=1 n=71 v=69
2750 Par ch=1 c=64 v=127
2755 On ch=1 n=71 v=0
2759 On ch=1 n=70 v=73
2774 On ch=1 n=70 v=0
2780 On ch=1 n=71 v=73
2810 On ch=1 n=80 v=81
2842 On ch=1 n=80 v=0
2860 On ch=1 n=68 v=69
2862 On ch=1 n=76 v=86
2880 On ch=1 n=59 v=0
2884 On ch=1 n=76 v=0
2895 On ch=1 n=68 v=0
2916 On ch=1 n=63 v=57
2918 On ch=1 n=81 v=77
2921 Par ch=1 c=64 v=0
2970 On ch=1 n=66 v=57
2971 On ch=1 n=78 v=77
2975 On ch=1 n=81 v=0
2976 On ch=1 n=71 v=0
2989 Par ch=1 c=64 v=127
3019 On ch=1 n=63 v=0
3020 On ch=1 n=78 v=0
3023 On ch=1 n=66 v=0
3024 On ch=1 n=69 v=73
3025 On ch=1 n=75 v=86
3046 On ch=1 n=69 v=0
3062 On ch=1 n=75 v=0
3078 On ch=1 n=83 v=86
3097 On ch=1 n=83 v=0
3130 On ch=1 n=64 v=77
3130 On ch=1 n=68 v=57
3133 Par ch=1 c=64 v=0
3136 On ch=1 n=71 v=86
3136 On ch=1 n=83 v=102
3156 On ch=1 n=71 v=0
3168 On ch=1 n=64 v=0
3170 On ch=1 n=71 v=8
3170 Par ch=1 c=64 v=127
3238 On ch=1 n=56 v=69
3269 On ch=1 n=71 v=0
3292 On ch=1 n=83 v=0
3293 On ch=1 n=81 v=77
3295 On ch=1 n=56 v=0
3315 On ch=1 n=81 v=0
3317 On ch=1 n=80 v=59
3344 Par ch=1 c=64 v=0
3344 On ch=1 n=78 v=77
3345 On ch=1 n=73 v=69
3347 On ch=1 n=57 v=73
3348 On ch=1 n=80 v=0
3368 On ch=1 n=78 v=0
3382 Par ch=1 c=64 v=127
3395 On ch=1 n=76 v=77
3401 On ch=1 n=73 v=0
3410 On ch=1 n=57 v=0
3421 On ch=1 n=76 v=0
3448 On ch=1 n=75 v=81
3450 On ch=1 n=58 v=69
3452 On ch=1 n=68 v=0
3468 On ch=1 n=75 v=0
3503 On ch=1 n=73 v=81
3513 On ch=1 n=73 v=0
3557 On ch=1 n=64 v=66
3558 On ch=1 n=58 v=0
3558 On ch=1 n=68 v=73
3558 On ch=1 n=59 v=69
3558 On ch=1 n=71 v=66
3561 Par ch=1 c=64 v=0
3605 Par ch=1 c=64 v=127
3611 On ch=1 n=68 v=0
3659 On ch=1 n=59 v=0
3671 On ch=1 n=67 v=77
3687 On ch=1 n=64 v=0
3778 On ch=1 n=58 v=37
3778 On ch=1 n=66 v=45
3778 Par ch=1 c=64 v=0
3780 On ch=1 n=47 v=52
3784 On ch=1 n=67 v=0
3819 Par ch=1 c=64 v=127
3828 On ch=1 n=58 v=0
3846 On ch=1 n=71 v=0
3859 On ch=1 n=47 v=0
3884 On ch=1 n=66 v=0
3886 On ch=1 n=63 v=59
3886 On ch=1 n=57 v=57
3910 On ch=1 n=63 v=0
3915 On ch=1 n=57 v=0
3986 On ch=1 n=52 v=73
3987 Par ch=1 c=64 v=0
3988 On ch=1 n=56 v=52
3989 On ch=1 n=71 v=77
3989 On ch=1 n=59 v=77
3992 On ch=1 n=64 v=81
4026 Par ch=1 c=64 v=127
4031 On ch=1 n=52 v=0
4099 On ch=1 n=44 v=69
4101 Par ch=1 c=64 v=0
4139 Par ch=1 c=64 v=127
4145 On ch=1 n=64 v=0
4149 On ch=1 n=59 v=0
4154 On ch=1 n=69 v=81
4161 On ch=1 n=71 v=0
4164 On ch=1 n=44 v=0
4174 On ch=1 n=68 v=59
4176 On ch=1 n=69 v=0
4195 Par ch=1 c=64 v=0
4202 On ch=1 n=66 v=69
4203 On ch=1 n=68 v=0
4204 On ch=1 n=45 v=73
4207 On ch=1 n=61 v=66
4227 On ch=1 n=66 v=0
4232 Par ch=1 c=64 v=127
4258 On ch=1 n=64 v=77
4262 On ch=1 n=61 v=0
4290 On ch=1 n=64 v=0
4299 On ch=1 n=56 v=0
4305 On ch=1 n=45 v=0
4305 On ch=1 n=46 v=73
4306 On ch=1 n=63 v=81
4334 On ch=1 n=63 v=0
4355 On ch=1 n=61 v=77
4368 On ch=1 n=61 v=0
4405 On ch=1 n=46 v=0
4405 On ch=1 n=47 v=69
4406 On ch=1 n=56 v=50
4411 On ch=1 n=59 v=54
4412 On ch=1 n=52 v=52
4412 Par ch=1 c=64 v=0
4454 Par ch=1 c=64 v=127
4470 On ch=1 n=56 v=0
4512 On ch=1 n=47 v=0
4519 On ch=1 n=55 v=59
4547 On ch=1 n=52 v=0
4622 Par ch=1 c=64 v=0
4624 On ch=1 n=54 v=57
4625 On ch=1 n=35 v=57
4630 On ch=1 n=55 v=0
4630 On ch=1 n=46 v=29
4635 On ch=1 n=59 v=0
4659 Par ch=1 c=64 v=127
4668 On ch=1 n=46 v=0
4727 On ch=1 n=45 v=69
4734 On ch=1 n=51 v=69
4740 On ch=1 n=54 v=0
4752 On ch=1 n=35 v=0
4815 On ch=1 n=45 v=0
4833 On ch=1 n=59 v=66
4842 On ch=1 n=51 v=0
4846 Par ch=1 c=64 v=0
4887 On ch=1 n=44 v=40
4888 On ch=1 n=40 v=54
4893 Par ch=1 c=64 v=127
4897 On ch=1 n=44 v=0
4898 On ch=1 n=40 v=0
4942 On ch=1 n=40 v=47
4943 On ch=1 n=44 v=29
4952 On ch=1 n=40 v=0
4953 On ch=1 n=44 v=0
4986 On ch=1 n=44 v=40
4992 On ch=1 n=40 v=35
5001 On ch=1 n=40 v=0
5003 On ch=1 n=44 v=0
5041 On ch=1 n=59 v=0
5046 On ch=1 n=52 v=77
5047 On ch=1 n=64 v=86
5056 Par ch=1 c=64 v=0
5093 Par ch=1 c=64 v=127
5096 On ch=1 n=44 v=57
5099 On ch=1 n=40 v=47
5108 On ch=1 n=40 v=0
5114 On ch=1 n=44 v=0
5149 On ch=1 n=44 v=45
5154 On ch=1 n=40 v=52
5163 On ch=1 n=40 v=0
5163 On ch=1 n=44 v=0
5172 On ch=1 n=52 v=0
5196 On ch=1 n=44 v=52
5202 On ch=1 n=40 v=47
5211 On ch=1 n=40 v=0
5214 On ch=1 n=44 v=0
5230 On ch=1 n=64 v=0
5255 On ch=1 n=61 v=81
5269 Par ch=1 c=64 v=0
5305 Par ch=1 c=64 v=127
5307 On ch=1 n=40 v=54
5307 On ch=1 n=45 v=54
5315 On ch=1 n=40 v=0
5318 On ch=1 n=45 v=0
5359 On ch=1 n=45 v=54
5360 On ch=1 n=40 v=50
5368 On ch=1 n=45 v=0
5369 On ch=1 n=40 v=0
5409 On ch=1 n=45 v=69
5412 On ch=1 n=40 v=50
5419 On ch=1 n=45 v=0
5420 On ch=1 n=40 v=0
5458 On ch=1 n=61 v=0
5462 On ch=1 n=66 v=86
5464 On ch=1 n=54 v=86
5471 Par ch=1 c=64 v=0
5509 Par ch=1 c=64 v=127
5515 On ch=1 n=46 v=57
5515 On ch=1 n=40 v=57
5523 On ch=1 n=46 v=0
5525 On ch=1 n=40 v=0
5567 On ch=1 n=54 v=0
5568 On ch=1 n=46 v=54
5570 On ch=1 n=40 v=57
5578 On ch=1 n=46 v=0
5579 On ch=1 n=40 v=0
5586 On ch=1 n=66 v=0
5614 On ch=1 n=46 v=54
5619 On ch=1 n=40 v=54
5628 On ch=1 n=40 v=0
5631 On ch=1 n=46 v=0
5674 On ch=1 n=68 v=86
5675 On ch=1 n=56 v=91
5684 Par ch=1 c=64 v=0
5719 Par ch=1 c=64 v=127
5725 On ch=1 n=40 v=59
5727 On ch=1 n=47 v=66
5735 On ch=1 n=40 v=0
5736 On ch=1 n=47 v=0
5764 On ch=1 n=56 v=0
5780 On ch=1 n=47 v=57
5781 On ch=1 n=68 v=0
5782 On ch=1 n=40 v=52
5789 On ch=1 n=40 v=0
5791 On ch=1 n=47 v=0
5831 On ch=1 n=47 v=59
5832 On ch=1 n=40 v=50
5840 On ch=1 n=47 v=0
5841 On ch=1 n=40 v=0
5887 On ch=1 n=57 v=91
5888 On ch=1 n=69 v=102
5896 Par ch=1 c=64 v=0
5931 Par ch=1 c=64 v=127
5936 On ch=1 n=40 v=66
5939 On ch=1 n=48 v=69
5945 On ch=1 n=57 v=0
5946 On ch=1 n=48 v=0
5946 On ch=1 n=40 v=0
5988 On ch=1 n=48 v=73
5990 On ch=1 n=69 v=0
5992 On ch=1 n=40 v=41
5998 On ch=1 n=48 v=0
6001 On ch=1 n=40 v=0
6039 On ch=1 n=48 v=66
6040 On ch=1 n=40 v=57
6049 On ch=1 n=48 v=0
6050 On ch=1 n=40 v=0
6096 On ch=1 n=70 v=91
6096 On ch=1 n=58 v=91
6098 Par ch=1 c=64 v=0
6133 Par ch=1 c=64 v=127
6146 On ch=1 n=49 v=69
6148 On ch=1 n=40 v=69
6157 On ch=1 n=40 v=0
6161 On ch=1 n=49 v=0
6200 On ch=1 n=49 v=66
6202 On ch=1 n=40 v=57
6204 On ch=1 n=58 v=0
6211 On ch=1 n=40 v=0
6214 On ch=1 n=49 v=0
6217 On ch=1 n=70 v=0
6247 On ch=1 n=40 v=59
6248 On ch=1 n=49 v=57
6257 On ch=1 n=40 v=0
6260 On ch=1 n=49 v=0
6299 On ch=1 n=71 v=102
6300 On ch=1 n=50 v=81
6300 On ch=1 n=59 v=91
6302 Par ch=1 c=64 v=0
6304 On ch=1 n=41 v=81
6320 On ch=1 n=41 v=0
6338 Par ch=1 c=64 v=127
6351 On ch=1 n=41 v=69
6359 On ch=1 n=41 v=0
6403 On ch=1 n=41 v=73
6413 On ch=1 n=41 v=0
6416 On ch=1 n=59 v=0
6454 On ch=1 n=41 v=66
6461 On ch=1 n=71 v=0
6462 On ch=1 n=50 v=0
6465 On ch=1 n=41 v=0
6509 On ch=1 n=42 v=73
6512 Par ch=1 c=64 v=0
6513 On ch=1 n=49 v=86
6513 On ch=1 n=58 v=81
6513 On ch=1 n=70 v=81
6533 On ch=1 n=42 v=0
6545 Par ch=1 c=64 v=127
6559 On ch=1 n=42 v=73
6580 On ch=1 n=42 v=0
6583 On ch=1 n=58 v=0
6616 On ch=1 n=42 v=66
6618 On ch=1 n=66 v=77
6621 On ch=1 n=70 v=0
6631 On ch=1 n=42 v=0
6663 On ch=1 n=42 v=66
6669 On ch=1 n=49 v=0
6680 On ch=1 n=42 v=0
6709 On ch=1 n=66 v=0
6714 Par ch=1 c=64 v=0
6720 On ch=1 n=65 v=77
6720 On ch=1 n=74 v=73
6721 On ch=1 n=54 v=21
6723 On ch=1 n=42 v=41
6724 On ch=1 n=56 v=40
6726 On ch=1 n=47 v=66
6744 On ch=1 n=42 v=0
6748 Par ch=1 c=64 v=127
6771 On ch=1 n=42 v=66
6784 On ch=1 n=42 v=0
6788 On ch=1 n=54 v=0
6794 On ch=1 n=56 v=0
6820 On ch=1 n=42 v=59
6838 On ch=1 n=42 v=0
6840 On ch=1 n=47 v=0
6854 On ch=1 n=74 v=0
6869 On ch=1 n=42 v=54
6872 On ch=1 n=65 v=0
6874 On ch=1 n=66 v=73
6885 On ch=1 n=42 v=0
6894 On ch=1 n=66 v=0
6895 On ch=1 n=68 v=52
6918 Par ch=1 c=64 v=0
6924 On ch=1 n=68 v=0
6924 On ch=1 n=42 v=57
6925 On ch=1 n=73 v=81
6926 On ch=1 n=54 v=57
6926 On ch=1 n=46 v=59
6926 On ch=1 n=61 v=69
6941 On ch=1 n=42 v=0
6946 On ch=1 n=46 v=0
6954 Par ch=1 c=64 v=127
6970 On ch=1 n=42 v=50
6988 On ch=1 n=42 v=0
7000 On ch=1 n=73 v=0
7022 On ch=1 n=42 v=59
7025 On ch=1 n=70 v=69
7032 On ch=1 n=61 v=0
7038 On ch=1 n=42 v=0
7066 On ch=1 n=70 v=0
7068 On ch=1 n=54 v=0
7072 On ch=1 n=42 v=69
7093 On ch=1 n=42 v=0
7122 On ch=1 n=56 v=66
7124 Par ch=1 c=64 v=0
7126 On ch=1 n=71 v=91
7126 On ch=1 n=42 v=29
7127 On ch=1 n=59 v=86
7127 On ch=1 n=65 v=91
7128 On ch=1 n=50 v=86
7142 On ch=1 n=42 v=0
7162 Par ch=1 c=64 v=127
7174 On ch=1 n=42 v=69
7195 On ch=1 n=42 v=0
7218 On ch=1 n=56 v=0
7228 On ch=1 n=42 v=59
7239 On ch=1 n=59 v=0
7243 On ch=1 n=50 v=0
7247 On ch=1 n=42 v=0
7265 On ch=1 n=65 v=0
7271 On ch=1 n=71 v=0
7274 On ch=1 n=42 v=66
7292 On ch=1 n=42 v=0
7329 On ch=1 n=42 v=66
7330 Par ch=1 c=64 v=0
7331 On ch=1 n=49 v=66
7331 On ch=1 n=54 v=57
7332 On ch=1 n=70 v=77
7332 On ch=1 n=58 v=73
7351 On ch=1 n=42 v=0
7353 On ch=1 n=49 v=0
7366 Par ch=1 c=64 v=127
7379 On ch=1 n=42 v=57
7396 On ch=1 n=42 v=0
7404 On ch=1 n=58 v=0
7424 On ch=1 n=42 v=59
7432 On ch=1 n=66 v=66
7433 On ch=1 n=70 v=0
7445 On ch=1 n=42 v=0
7467 On ch=1 n=54 v=0
7474 On ch=1 n=42 v=59
7495 On ch=1 n=42 v=0
7524 On ch=1 n=42 v=50
7528 On ch=1 n=66 v=0
7528 Par ch=1 c=64 v=0
7530 On ch=1 n=74 v=77
7531 On ch=1 n=65 v=73
7531 On ch=1 n=56 v=33
7532 On ch=1 n=50 v=66
7534 On ch=1 n=47 v=57
7545 On ch=1 n=42 v=0
7554 On ch=1 n=47 v=0
7562 Par ch=1 c=64 v=127
7577 On ch=1 n=42 v=69
7596 On ch=1 n=50 v=0
7602 On ch=1 n=42 v=0
7607 On ch=1 n=56 v=0
7630 On ch=1 n=42 v=73
7648 On ch=1 n=42 v=0
7657 On ch=1 n=74 v=0
7675 On ch=1 n=65 v=0
7677 On ch=1 n=66 v=77
7698 On ch=1 n=68 v=66
7699 On ch=1 n=66 v=0
7722 On ch=1 n=68 v=0
7722 Par ch=1 c=64 v=0
7723 On ch=1 n=42 v=77
7726 On ch=1 n=73 v=81
7728 On ch=1 n=61 v=81
7728 On ch=1 n=49 v=54
7729 On ch=1 n=54 v=37
7744 On ch=1 n=42 v=0
7746 On ch=1 n=49 v=0
7756 Par ch=1 c=64 v=127
7771 On ch=1 n=42 v=59
7787 On ch=1 n=42 v=0
7808 On ch=1 n=73 v=0
7823 On ch=1 n=42 v=69
7824 On ch=1 n=70 v=81
7830 On ch=1 n=61 v=0
7841 On ch=1 n=42 v=0
7846 On ch=1 n=70 v=0
7869 On ch=1 n=54 v=0
7872 On ch=1 n=42 v=54
7895 On ch=1 n=42 v=0
7925 Par ch=1 c=64 v=0
7925 On ch=1 n=68 v=86
7926 On ch=1 n=56 v=50
7926 On ch=1 n=77 v=91
7926 On ch=1 n=71 v=86
7926 On ch=1 n=42 v=40
7930 On ch=1 n=54 v=26
7930 On ch=1 n=47 v=73
7930 On ch=1 n=50 v=73
7942 On ch=1 n=42 v=0
7944 On ch=1 n=54 v=0
7949 On ch=1 n=47 v=0
7956 Par ch=1 c=64 v=127
7957 On ch=1 n=50 v=0
7976 On ch=1 n=42 v=69
7986 On ch=1 n=56 v=0
7994 On ch=1 n=71 v=0
7995 On ch=1 n=42 v=0
8008 On ch=1 n=77 v=0
8027 On ch=1 n=42 v=73
8041 On ch=1 n=68 v=0
8046 On ch=1 n=42 v=0
8072 On ch=1 n=42 v=73
8075 On ch=1 n=73 v=86
8093 On ch=1 n=42 v=0
8093 On ch=1 n=74 v=86
8098 On ch=1 n=73 v=0
8112 On ch=1 n=74 v=0
8125 On ch=1 n=73 v=86
8126 On ch=1 n=78 v=102
8126 On ch=1 n=42 v=77
8128 On ch=1 n=70 v=77
8130 On ch=1 n=54 v=77
8131 On ch=1 n=49 v=86
8136 Par ch=1 c=64 v=0
8146 On ch=1 n=70 v=0
8147 On ch=1 n=54 v=0
8151 On ch=1 n=42 v=0
8155 On ch=1 n=78 v=0
8158 On ch=1 n=49 v=0
8159 On ch=1 n=73 v=0
8340 On ch=1 n=66 v=91
8342 On ch=1 n=42 v=86
8342 On ch=1 n=58 v=91
8342 On ch=1 n=61 v=91
8343 On ch=1 n=54 v=86
8367 On ch=1 n=58 v=0
8373 On ch=1 n=54 v=0
8376 On ch=1 n=42 v=0
8380 On ch=1 n=66 v=0
8384 On ch=1 n=61 v=0
8559 On ch=1 n=54 v=91
8560 On ch=1 n=46 v=86
8560 On ch=1 n=30 v=86
8560 On ch=1 n=42 v=91
8561 On ch=1 n=49 v=91
8621 On ch=1 n=46 v=0
8622 On ch=1 n=42 v=0
8622 On ch=1 n=30 v=0
8624 On ch=1 n=54 v=0
8625 On ch=1 n=49 v=0
8788 On ch=1 n=78 v=57
8832 On ch=1 n=78 v=0
8842 On ch=1 n=76 v=50
8882 On ch=1 n=76 v=0
8886 On ch=1 n=75 v=66
8933 On ch=1 n=75 v=0
8936 On ch=1 n=73 v=59
8981 On ch=1 n=73 v=0
8985 On ch=1 n=71 v=66
9125 On ch=1 n=71 v=0
9182 On ch=1 n=72 v=66
9275 On ch=1 n=73 v=59
9286 On ch=1 n=72 v=0
9368 On ch=1 n=74 v=77
9370 On ch=1 n=73 v=0
9396 On ch=1 n=74 v=0
9460 On ch=1 n=75 v=73
9554 On ch=1 n=75 v=0
9557 On ch=1 n=76 v=86
9655 On ch=1 n=78 v=81
9658 On ch=1 n=76 v=0
9752 On ch=1 n=78 v=0
9752 On ch=1 n=79 v=91
9840 On ch=1 n=80 v=86
9841 On ch=1 n=79 v=0
9932 On ch=1 n=68 v=57
9933 On ch=1 n=63 v=29
9934 On ch=1 n=60 v=32
9964 Par ch=1 c=64 v=127
10024 On ch=1 n=78 v=77
10025 On ch=1 n=68 v=0
10030 On ch=1 n=80 v=0
10083 On ch=1 n=60 v=0
10115 On ch=1 n=63 v=0
10116 Par ch=1 c=64 v=0
10116 On ch=1 n=61 v=41
10118 On ch=1 n=64 v=40
10162 Par ch=1 c=64 v=127
10205 On ch=1 n=61 v=0
10208 On ch=1 n=76 v=86
10210 On ch=1 n=64 v=0
10213 On ch=1 n=78 v=0
10225 On ch=1 n=76 v=0
10254 On ch=1 n=75 v=77
10270 Par ch=1 c=64 v=0
10274 On ch=1 n=75 v=0
10275 On ch=1 n=76 v=81
10283 On ch=1 n=76 v=0
10287 On ch=1 n=78 v=73
10298 On ch=1 n=78 v=0
10301 On ch=1 n=77 v=52
10304 On ch=1 n=76 v=86
10309 On ch=1 n=77 v=0
10322 On ch=1 n=76 v=0
10333 On ch=1 n=76 v=45
10348 On ch=1 n=75 v=81
10349 On ch=1 n=76 v=0
10390 On ch=1 n=75 v=0
10396 On ch=1 n=73 v=77
10443 On ch=1 n=71 v=73
10450 On ch=1 n=73 v=0
10490 On ch=1 n=71 v=0
10492 On ch=1 n=70 v=59
10626 On ch=1 n=70 v=0
10685 On ch=1 n=71 v=66
10778 On ch=1 n=71 v=0
10779 On ch=1 n=72 v=69
10870 On ch=1 n=73 v=57
10871 On ch=1 n=72 v=0
10886 On ch=1 n=73 v=0
10960 On ch=1 n=74 v=73
11018 On ch=1 n=74 v=0
11050 On ch=1 n=75 v=81
11082 On ch=1 n=75 v=0
11141 On ch=1 n=76 v=86
11232 On ch=1 n=76 v=0
11234 On ch=1 n=77 v=91
11328 On ch=1 n=77 v=0
11328 On ch=1 n=78 v=77
11412 On ch=1 n=78 v=0
11416 On ch=1 n=61 v=37
11420 On ch=1 n=66 v=40
11421 On ch=1 n=58 v=25
11452 Par ch=1 c=64 v=127
11512 On ch=1 n=76 v=59
11524 On ch=1 n=66 v=0
11564 On ch=1 n=58 v=0
11566 On ch=1 n=61 v=0
11592 On ch=1 n=63 v=37
11599 On ch=1 n=59 v=47
11605 Par ch=1 c=64 v=0
11664 Par ch=1 c=64 v=127
11682 On ch=1 n=59 v=0
11686 On ch=1 n=63 v=0
11692 On ch=1 n=76 v=0
11692 On ch=1 n=75 v=81
11751 On ch=1 n=75 v=0
11783 On ch=1 n=66 v=59
11794 Par ch=1 c=64 v=0
11823 On ch=1 n=66 v=0
11827 On ch=1 n=64 v=59
11872 On ch=1 n=64 v=0
11872 On ch=1 n=63 v=54
11908 On ch=1 n=63 v=0
11914 On ch=1 n=61 v=54
11960 On ch=1 n=61 v=0
11968 On ch=1 n=59 v=50
12153 On ch=1 n=59 v=0
12158 On ch=1 n=60 v=40
12161 On ch=1 n=54 v=52
12201 On ch=1 n=52 v=59
12206 On ch=1 n=54 v=0
12249 On ch=1 n=52 v=0
12250 On ch=1 n=61 v=66
12251 On ch=1 n=60 v=0
12252 On ch=1 n=51 v=69
12293 On ch=1 n=49 v=69
12295 On ch=1 n=51 v=0
12339 On ch=1 n=61 v=0
12340 On ch=1 n=48 v=77
12341 On ch=1 n=62 v=81
12342 On ch=1 n=49 v=0
12397 On ch=1 n=48 v=0
12431 On ch=1 n=63 v=81
12440 On ch=1 n=62 v=0
12523 On ch=1 n=64 v=77
12526 On ch=1 n=63 v=0
12528 On ch=1 n=78 v=73
12567 On ch=1 n=76 v=81
12576 On ch=1 n=78 v=0
12612 Par ch=1 c=64 v=127
12615 On ch=1 n=75 v=81
12617 On ch=1 n=76 v=0
12617 On ch=1 n=66 v=66
12620 On ch=1 n=64 v=0
12650 On ch=1 n=66 v=0
12657 On ch=1 n=73 v=81
12658 On ch=1 n=75 v=0
12697 On ch=1 n=73 v=0
12709 Par ch=1 c=64 v=0
12709 On ch=1 n=56 v=69
12709 On ch=1 n=67 v=77
12712 On ch=1 n=72 v=69
12748 Par ch=1 c=64 v=127
12755 On ch=1 n=67 v=0
12806 On ch=1 n=68 v=77
12817 On ch=1 n=72 v=0
12903 On ch=1 n=75 v=66
12903 On ch=1 n=81 v=69
12904 On ch=1 n=72 v=66
12905 On ch=1 n=68 v=0
12999 On ch=1 n=66 v=52
13087 Par ch=1 c=64 v=0
13087 On ch=1 n=61 v=52
13090 On ch=1 n=66 v=0
13100 On ch=1 n=72 v=0
13126 On ch=1 n=75 v=0
13127 Par ch=1 c=64 v=127
13168 On ch=1 n=61 v=0
13176 On ch=1 n=56 v=0
13177 On ch=1 n=81 v=0
13180 On ch=1 n=64 v=50
13185 On ch=1 n=76 v=59
13186 On ch=1 n=80 v=47
13186 On ch=1 n=73 v=52
13192 Par ch=1 c=64 v=0
13234 On ch=1 n=64 v=0
13264 On ch=1 n=73 v=0
13268 On ch=1 n=76 v=0
13272 On ch=1 n=80 v=0
13274 On ch=1 n=64 v=81
13320 On ch=1 n=63 v=73
13324 On ch=1 n=64 v=0
13360 On ch=1 n=61 v=66
13366 On ch=1 n=63 v=0
13398 On ch=1 n=61 v=0
13403 On ch=1 n=59 v=57
13449 On ch=1 n=59 v=0
13452 On ch=1 n=58 v=54
13644 On ch=1 n=52 v=54
13645 On ch=1 n=58 v=0
13645 On ch=1 n=59 v=52
13684 On ch=1 n=52 v=0
13685 On ch=1 n=51 v=59
13728 On ch=1 n=59 v=0
13734 On ch=1 n=51 v=0
13734 On ch=1 n=49 v=69
13735 On ch=1 n=60 v=66
13773 On ch=1 n=49 v=0
13777 On ch=1 n=47 v=73
13827 On ch=1 n=46 v=73
13830 On ch=1 n=61 v=73
13832 On ch=1 n=47 v=0
13838 On ch=1 n=60 v=0
13888 On ch=1 n=46 v=0
13928 On ch=1 n=63 v=73
13936 On ch=1 n=61 v=0
14020 On ch=1 n=64 v=77
14023 On ch=1 n=76 v=81
14028 On ch=1 n=63 v=0
14066 On ch=1 n=75 v=86
14070 On ch=1 n=76 v=0
14108 On ch=1 n=64 v=0
14109 On ch=1 n=65 v=66
14112 On ch=1 n=73 v=77
14113 On ch=1 n=75 v=0
14152 On ch=1 n=73 v=0
14154 On ch=1 n=71 v=73
14200 On ch=1 n=71 v=0
14200 On ch=1 n=65 v=0
14202 On ch=1 n=70 v=54
14205 On ch=1 n=54 v=38
14279 Par ch=1 c=64 v=127
14298 On ch=1 n=66 v=57
14299 On ch=1 n=70 v=0
14370 On ch=1 n=54 v=0
14396 On ch=1 n=73 v=66
14398 On ch=1 n=70 v=54
14399 On ch=1 n=79 v=66
14485 On ch=1 n=64 v=54
14491 Par ch=1 c=64 v=0
14503 On ch=1 n=66 v=0
14534 Par ch=1 c=64 v=127
14571 Par ch=1 c=64 v=0
14577 On ch=1 n=73 v=0
14579 On ch=1 n=64 v=0
14581 On ch=1 n=70 v=0
14587 On ch=1 n=59 v=50
14669 On ch=1 n=59 v=0
14672 On ch=1 n=79 v=0
14679 On ch=1 n=78 v=45
14681 On ch=1 n=75 v=50
14683 On ch=1 n=63 v=45
14684 On ch=1 n=71 v=33
14685 Par ch=1 c=64 v=127
14707 On ch=1 n=63 v=0
14718 On ch=1 n=71 v=0
14759 Par ch=1 c=64 v=0
14764 On ch=1 n=75 v=0
14776 On ch=1 n=78 v=0
14778 On ch=1 n=51 v=45
14786 On ch=1 n=59 v=38
14797 Par ch=1 c=64 v=127
14815 On ch=1 n=59 v=0
14815 On ch=1 n=51 v=0
14824 On ch=1 n=54 v=40
14856 Par ch=1 c=64 v=0
14864 On ch=1 n=54 v=0
14870 On ch=1 n=51 v=47
14870 On ch=1 n=78 v=57
14874 On ch=1 n=71 v=54
14874 On ch=1 n=59 v=41
14896 On ch=1 n=71 v=0
14898 On ch=1 n=78 v=0
14900 On ch=1 n=59 v=0
14903 On ch=1 n=51 v=0
14913 On ch=1 n=54 v=47
14948 On ch=1 n=54 v=0
14960 On ch=1 n=52 v=54
14962 On ch=1 n=61 v=41
14963 On ch=1 n=78 v=66
14963 On ch=1 n=70 v=57
14969 Par ch=1 c=64 v=127
14988 On ch=1 n=78 v=0
14996 On ch=1 n=52 v=0
15000 On ch=1 n=80 v=59
15004 On ch=1 n=54 v=50
15016 On ch=1 n=80 v=0
15018 On ch=1 n=78 v=47
15027 On ch=1 n=78 v=0
15030 On ch=1 n=77 v=69
15036 On ch=1 n=54 v=0
15038 On ch=1 n=70 v=0
15046 On ch=1 n=78 v=73
15046 On ch=1 n=52 v=54
15050 On ch=1 n=77 v=0
15085 On ch=1 n=61 v=0
15090 On ch=1 n=52 v=0
15091 On ch=1 n=54 v=57
15092 On ch=1 n=82 v=66
15101 On ch=1 n=78 v=0
15127 On ch=1 n=82 v=0
15132 On ch=1 n=54 v=0
15139 On ch=1 n=51 v=45
15141 On ch=1 n=71 v=54
15143 On ch=1 n=83 v=57
15144 On ch=1 n=59 v=47
15146 Par ch=1 c=64 v=0
15152 On ch=1 n=71 v=0
15156 On ch=1 n=83 v=0
15170 On ch=1 n=51 v=0
15175 On ch=1 n=59 v=0
15184 On ch=1 n=54 v=38
15224 On ch=1 n=54 v=0
15234 On ch=1 n=51 v=38
15235 On ch=1 n=78 v=52
15236 On ch=1 n=59 v=38
15236 On ch=1 n=71 v=41
15245 On ch=1 n=78 v=0
15247 On ch=1 n=71 v=0
15256 On ch=1 n=59 v=0
15262 On ch=1 n=51 v=0
15275 On ch=1 n=54 v=38
15316 On ch=1 n=54 v=0
15320 On ch=1 n=61 v=47
15321 On ch=1 n=70 v=59
15323 On ch=1 n=78 v=69
15324 Par ch=1 c=64 v=127
15325 On ch=1 n=52 v=57
15343 On ch=1 n=78 v=0
15357 On ch=1 n=52 v=0
15359 On ch=1 n=80 v=59
15366 On ch=1 n=54 v=50
15374 On ch=1 n=78 v=66
15376 On ch=1 n=80 v=0
15388 On ch=1 n=78 v=0
15391 On ch=1 n=77 v=77
15395 On ch=1 n=54 v=0
15398 On ch=1 n=70 v=0
15404 On ch=1 n=78 v=66
15409 On ch=1 n=77 v=0
15409 On ch=1 n=52 v=52
15441 On ch=1 n=61 v=0
15448 On ch=1 n=82 v=77
15450 On ch=1 n=52 v=0
15452 On ch=1 n=78 v=0
15452 On ch=1 n=54 v=57
15488 On ch=1 n=82 v=0
15495 On ch=1 n=54 v=0
15497 On ch=1 n=51 v=59
15497 On ch=1 n=71 v=59
15499 On ch=1 n=83 v=77
15501 On ch=1 n=59 v=54
15506 Par ch=1 c=64 v=0
15509 On ch=1 n=71 v=0
15515 On ch=1 n=83 v=0
15531 On ch=1 n=59 v=0
15538 On ch=1 n=51 v=0
15538 On ch=1 n=54 v=57
15586 On ch=1 n=54 v=0
15589 On ch=1 n=51 v=57
15589 On ch=1 n=72 v=81
15590 On ch=1 n=84 v=86
15590 On ch=1 n=57 v=66
15593 Par ch=1 c=64 v=127
15609 On ch=1 n=72 v=0
15622 On ch=1 n=57 v=0
15624 On ch=1 n=51 v=0
15630 On ch=1 n=54 v=66
15658 On ch=1 n=84 v=0
15673 On ch=1 n=54 v=0
15680 Par ch=1 c=64 v=0
15682 On ch=1 n=52 v=59
15684 On ch=1 n=56 v=59
15684 On ch=1 n=73 v=81
15684 On ch=1 n=85 v=81
15703 On ch=1 n=73 v=0
15707 On ch=1 n=52 v=0
15717 Par ch=1 c=64 v=127
15727 On ch=1 n=61 v=54
15732 On ch=1 n=56 v=0
15759 On ch=1 n=85 v=0
15769 On ch=1 n=61 v=0
15775 On ch=1 n=56 v=66
15775 On ch=1 n=75 v=86
15775 On ch=1 n=52 v=57
15775 On ch=1 n=87 v=86
15794 On ch=1 n=75 v=0
15800 On ch=1 n=52 v=0
15815 On ch=1 n=56 v=0
15819 On ch=1 n=61 v=59
15826 On ch=1 n=87 v=0
15862 On ch=1 n=61 v=0
15862 Par ch=1 c=64 v=0
15868 On ch=1 n=76 v=86
15868 On ch=1 n=88 v=102
15868 On ch=1 n=58 v=66
15870 On ch=1 n=54 v=57
15888 On ch=1 n=76 v=0
15895 Par ch=1 c=64 v=127
15902 On ch=1 n=54 v=0
15919 On ch=1 n=61 v=52
15920 On ch=1 n=58 v=0
15945 On ch=1 n=88 v=0
15949 On ch=1 n=61 v=0
15964 On ch=1 n=58 v=54
15964 On ch=1 n=78 v=73
15964 On ch=1 n=54 v=52
15966 On ch=1 n=90 v=81
15981 On ch=1 n=78 v=0
15987 On ch=1 n=90 v=0
15993 On ch=1 n=54 v=0
15999 On ch=1 n=58 v=0
16003 On ch=1 n=61 v=66
16011 On ch=1 n=61 v=0
16055 On ch=1 n=59 v=54
16057 Par ch=1 c=64 v=0
16058 On ch=1 n=47 v=59
16060 On ch=1 n=76 v=66
16060 On ch=1 n=88 v=77
16097 Par ch=1 c=64 v=127
16101 On ch=1 n=76 v=0
16101 On ch=1 n=54 v=52
16103 On ch=1 n=59 v=0
16141 On ch=1 n=54 v=0
16153 On ch=1 n=59 v=26
16198 On ch=1 n=59 v=0
16198 On ch=1 n=54 v=40
16226 On ch=1 n=54 v=0
16241 On ch=1 n=87 v=66
16242 On ch=1 n=75 v=57
16244 On ch=1 n=88 v=0
16248 On ch=1 n=59 v=37
16265 On ch=1 n=75 v=0
16270 On ch=1 n=87 v=0
16281 On ch=1 n=47 v=0
16283 On ch=1 n=59 v=0
16287 On ch=1 n=54 v=54
16335 On ch=1 n=54 v=0
16338 On ch=1 n=78 v=57
16339 On ch=1 n=71 v=47
16339 On ch=1 n=51 v=50
16341 Par ch=1 c=64 v=0
16344 On ch=1 n=59 v=47
16352 On ch=1 n=71 v=0
16354 On ch=1 n=78 v=0
16368 On ch=1 n=51 v=0
16370 On ch=1 n=59 v=0
16385 On ch=1 n=54 v=41
16418 On ch=1 n=54 v=0
16430 On ch=1 n=52 v=52
16430 On ch=1 n=61 v=37
16434 On ch=1 n=70 v=54
16434 On ch=1 n=78 v=57
16440 Par ch=1 c=64 v=127
16455 On ch=1 n=78 v=0
16464 On ch=1 n=52 v=0
16469 On ch=1 n=80 v=59
16473 On ch=1 n=54 v=47
16485 On ch=1 n=78 v=52
16486 On ch=1 n=80 v=0
16493 On ch=1 n=78 v=0
16501 On ch=1 n=77 v=73
16505 On ch=1 n=54 v=0
16505 On ch=1 n=70 v=0
16517 On ch=1 n=78 v=81
16518 On ch=1 n=52 v=52
16519 On ch=1 n=77 v=0
16558 On ch=1 n=52 v=0
16560 On ch=1 n=61 v=0
16561 On ch=1 n=78 v=0
16562 On ch=1 n=82 v=69
16562 On ch=1 n=54 v=54
16598 On ch=1 n=82 v=0
16603 On ch=1 n=54 v=0
16608 On ch=1 n=51 v=45
16610 On ch=1 n=71 v=52
16613 On ch=1 n=83 v=59
16615 On ch=1 n=59 v=50
16622 Par ch=1 c=64 v=0
16623 On ch=1 n=71 v=0
16626 On ch=1 n=83 v=0
16640 On ch=1 n=51 v=0
16642 On ch=1 n=59 v=0
16657 On ch=1 n=54 v=37
16693 On ch=1 n=54 v=0
16704 On ch=1 n=78 v=59
16706 On ch=1 n=59 v=41
16706 On ch=1 n=51 v=37
16708 On ch=1 n=71 v=52
16717 On ch=1 n=71 v=0
16720 On ch=1 n=78 v=0
16730 On ch=1 n=59 v=0
16736 On ch=1 n=51 v=0
16746 On ch=1 n=54 v=45
16790 On ch=1 n=54 v=0
16795 On ch=1 n=52 v=66
16796 On ch=1 n=70 v=59
16796 On ch=1 n=61 v=37
16797 Par ch=1 c=64 v=127
16798 On ch=1 n=78 v=66
16816 On ch=1 n=78 v=0
16821 On ch=1 n=52 v=0
16830 On ch=1 n=80 v=66
16839 On ch=1 n=54 v=47
16845 On ch=1 n=78 v=57
16851 On ch=1 n=80 v=0
16860 On ch=1 n=78 v=0
16862 On ch=1 n=77 v=81
16866 On ch=1 n=54 v=0
16866 On ch=1 n=70 v=0
16876 On ch=1 n=78 v=66
16880 On ch=1 n=77 v=0
16882 On ch=1 n=52 v=47
16924 On ch=1 n=52 v=0
16924 On ch=1 n=82 v=73
16926 On ch=1 n=61 v=0
16928 On ch=1 n=78 v=0
16929 On ch=1 n=54 v=54
16970 On ch=1 n=54 v=0
16971 On ch=1 n=82 v=0
16974 On ch=1 n=51 v=59
16976 On ch=1 n=59 v=66
16976 On ch=1 n=83 v=81
16977 On ch=1 n=71 v=47
16980 Par ch=1 c=64 v=0
16988 On ch=1 n=71 v=0
16996 On ch=1 n=83 v=0
17010 On ch=1 n=59 v=0
17015 On ch=1 n=54 v=59
17016 On ch=1 n=51 v=0
17061 On ch=1 n=54 v=0
17062 On ch=1 n=51 v=54
17065 On ch=1 n=57 v=59
17066 On ch=1 n=84 v=86
17066 On ch=1 n=72 v=77
17066 Par ch=1 c=64 v=127
17082 On ch=1 n=72 v=0
17092 On ch=1 n=51 v=0
17101 On ch=1 n=57 v=0
17108 On ch=1 n=54 v=59
17128 On ch=1 n=84 v=0
17152 Par ch=1 c=64 v=0
17153 On ch=1 n=54 v=0
17156 On ch=1 n=52 v=69
17158 On ch=1 n=85 v=86
17158 On ch=1 n=73 v=81
17160 On ch=1 n=56 v=57
17180 On ch=1 n=73 v=0
17185 On ch=1 n=52 v=0
17186 Par ch=1 c=64 v=127
17204 On ch=1 n=61 v=54
17206 On ch=1 n=56 v=0
17224 On ch=1 n=85 v=0
17239 On ch=1 n=61 v=0
17248 On ch=1 n=56 v=66
17248 On ch=1 n=75 v=86
17250 On ch=1 n=87 v=86
17250 On ch=1 n=52 v=50
17266 On ch=1 n=75 v=0
17271 On ch=1 n=52 v=0
17278 On ch=1 n=56 v=0
17281 On ch=1 n=87 v=0
17289 On ch=1 n=61 v=59
17308 On ch=1 n=61 v=0
17337 Par ch=1 c=64 v=0
17341 On ch=1 n=54 v=66
17342 On ch=1 n=61 v=57
17343 On ch=1 n=76 v=86
17344 On ch=1 n=88 v=86
17366 On ch=1 n=76 v=0
17369 On ch=1 n=88 v=0
17372 On ch=1 n=54 v=0
17374 Par ch=1 c=64 v=127
17383 On ch=1 n=61 v=0
17386 On ch=1 n=64 v=50
17412 On ch=1 n=64 v=0
17433 On ch=1 n=82 v=73
17434 On ch=1 n=70 v=69
17436 On ch=1 n=54 v=37
17436 On ch=1 n=61 v=40
17449 On ch=1 n=70 v=0
17458 On ch=1 n=82 v=0
17459 On ch=1 n=54 v=0
17464 On ch=1 n=61 v=0
17478 On ch=1 n=64 v=50
17487 On ch=1 n=64 v=0
17524 Par ch=1 c=64 v=0
17528 On ch=1 n=71 v=77
17530 On ch=1 n=83 v=81
17531 On ch=1 n=59 v=33
17535 On ch=1 n=47 v=66
17551 On ch=1 n=83 v=0
17557 On ch=1 n=71 v=0
17558 On ch=1 n=59 v=0
17561 Par ch=1 c=64 v=127
17627 On ch=1 n=66 v=73
17627 On ch=1 n=63 v=81
17628 On ch=1 n=59 v=77
17629 Par ch=1 c=64 v=0
17709 On ch=1 n=66 v=0
17723 On ch=1 n=64 v=91
17724 On ch=1 n=67 v=81
17730 On ch=1 n=63 v=0
17733 On ch=1 n=59 v=0
17770 On ch=1 n=47 v=0
17822 On ch=1 n=58 v=81
17864 On ch=1 n=42 v=66
17875 On ch=1 n=58 v=0
17880 On ch=1 n=44 v=69
17890 On ch=1 n=67 v=0
17892 On ch=1 n=42 v=0
17893 On ch=1 n=64 v=0
17893 On ch=1 n=46 v=81
17903 On ch=1 n=44 v=0
17909 On ch=1 n=47 v=77
17909 On ch=1 n=59 v=77
17918 On ch=1 n=46 v=0
18006 On ch=1 n=63 v=91
18006 On ch=1 n=66 v=81
18021 On ch=1 n=47 v=0
18094 On ch=1 n=66 v=0
18100 On ch=1 n=59 v=0
18101 On ch=1 n=68 v=81
18102 On ch=1 n=64 v=102
18109 On ch=1 n=63 v=0
18193 On ch=1 n=58 v=73
18214 On ch=1 n=64 v=0
18230 On ch=1 n=42 v=66
18250 On ch=1 n=44 v=73
18252 On ch=1 n=58 v=0
18260 On ch=1 n=46 v=81
18263 On ch=1 n=42 v=0
18266 On ch=1 n=68 v=0
18273 On ch=1 n=44 v=0
18280 On ch=1 n=59 v=66
18282 On ch=1 n=47 v=81
18290 On ch=1 n=46 v=0
18377 On ch=1 n=66 v=73
18378 On ch=1 n=63 v=86
18440 On ch=1 n=47 v=0
18469 On ch=1 n=66 v=0
18475 On ch=1 n=67 v=91
18476 On ch=1 n=63 v=0
18477 On ch=1 n=64 v=91
18486 On ch=1 n=59 v=0
18569 On ch=1 n=58 v=77
18603 On ch=1 n=42 v=69
18616 On ch=1 n=58 v=0
18620 On ch=1 n=44 v=69
18627 On ch=1 n=64 v=0
18631 On ch=1 n=46 v=77
18633 On ch=1 n=42 v=0
18640 On ch=1 n=67 v=0
18643 On ch=1 n=44 v=0
18655 On ch=1 n=59 v=69
18656 On ch=1 n=47 v=81
18662 On ch=1 n=46 v=0
18752 On ch=1 n=66 v=81
18752 On ch=1 n=63 v=86
18839 On ch=1 n=66 v=0
18841 On ch=1 n=47 v=0
18846 On ch=1 n=68 v=81
18847 On ch=1 n=64 v=102
18852 On ch=1 n=59 v=0
18856 On ch=1 n=63 v=0
18936 On ch=1 n=58 v=81
18976 On ch=1 n=42 v=69
18986 On ch=1 n=58 v=0
18998 On ch=1 n=44 v=73
18999 On ch=1 n=64 v=0
19004 On ch=1 n=68 v=0
19008 On ch=1 n=46 v=69
19011 On ch=1 n=42 v=0
19023 On ch=1 n=44 v=0
19027 On ch=1 n=59 v=73
19032 On ch=1 n=47 v=77
19040 On ch=1 n=46 v=0
19046 On ch=1 n=59 v=0
19054 On ch=1 n=47 v=0
19113 On ch=1 n=54 v=52
19116 On ch=1 n=66 v=52
19117 On ch=1 n=47 v=59
19117 On ch=1 n=63 v=59
19133 On ch=1 n=63 v=0
19134 On ch=1 n=66 v=0
19136 On ch=1 n=54 v=0
19138 On ch=1 n=47 v=0
19205 On ch=1 n=54 v=54
19207 On ch=1 n=70 v=57
19208 On ch=1 n=49 v=57
19208 On ch=1 n=64 v=59
19218 On ch=1 n=64 v=0
19224 On ch=1 n=70 v=0
19228 On ch=1 n=49 v=0
19228 On ch=1 n=54 v=0
19298 On ch=1 n=51 v=69
19298 On ch=1 n=66 v=59
19299 On ch=1 n=54 v=59
19300 On ch=1 n=71 v=73
19316 On ch=1 n=51 v=0
19318 On ch=1 n=66 v=0
19320 On ch=1 n=54 v=0
19321 On ch=1 n=71 v=0
19391 On ch=1 n=61 v=50
19391 On ch=1 n=68 v=69
19392 On ch=1 n=52 v=59
19392 On ch=1 n=75 v=59
19393 On ch=1 n=64 v=57
19394 On ch=1 n=56 v=54
19408 Par ch=1 c=64 v=127
19461 On ch=1 n=64 v=0
19464 On ch=1 n=52 v=0
19469 On ch=1 n=56 v=0
19480 On ch=1 n=61 v=0
19503 On ch=1 n=75 v=0
19504 On ch=1 n=68 v=0
19531 On ch=1 n=73 v=59
19558 On ch=1 n=73 v=0
19578 On ch=1 n=71 v=59
19578 Par ch=1 c=64 v=0
19578 On ch=1 n=66 v=50
19578 On ch=1 n=54 v=52
19580 On ch=1 n=63 v=54
19599 On ch=1 n=71 v=0
19600 On ch=1 n=66 v=0
19600 On ch=1 n=54 v=0
19605 On ch=1 n=63 v=0
19670 On ch=1 n=70 v=57
19670 On ch=1 n=66 v=47
19672 On ch=1 n=54 v=50
19674 On ch=1 n=61 v=52
19692 On ch=1 n=54 v=0
19694 On ch=1 n=61 v=0
19697 On ch=1 n=70 v=0
19698 On ch=1 n=66 v=0
19765 On ch=1 n=66 v=81
19770 Par ch=1 c=64 v=127
19789 On ch=1 n=66 v=0
19848 Par ch=1 c=64 v=0
19857 On ch=1 n=66 v=77
19859 On ch=1 n=71 v=86
19860 On ch=1 n=51 v=73
19862 On ch=1 n=59 v=73
19872 On ch=1 n=59 v=0
19883 Par ch=1 c=64 v=127
19884 On ch=1 n=66 v=0
19886 On ch=1 n=51 v=0
19887 On ch=1 n=71 v=0
19942 Par ch=1 c=64 v=0
19950 On ch=1 n=66 v=81
19951 On ch=1 n=58 v=81
19952 On ch=1 n=73 v=86
19953 On ch=1 n=49 v=77
19968 On ch=1 n=49 v=0
19969 On ch=1 n=58 v=0
19971 On ch=1 n=66 v=0
19976 Par ch=1 c=64 v=127
19978 On ch=1 n=73 v=0
20033 Par ch=1 c=64 v=0
20044 On ch=1 n=47 v=91
20046 On ch=1 n=59 v=77
20046 On ch=1 n=66 v=81
20046 On ch=1 n=75 v=91
20063 On ch=1 n=59 v=0
20063 On ch=1 n=47 v=0
20065 On ch=1 n=66 v=0
20067 Par ch=1 c=64 v=127
20073 On ch=1 n=75 v=0
20134 Par ch=1 c=64 v=0
20139 On ch=1 n=78 v=86
20140 On ch=1 n=68 v=86
20141 On ch=1 n=63 v=81
20143 On ch=1 n=52 v=77
20162 On ch=1 n=63 v=0
20172 Par ch=1 c=64 v=127
20242 On ch=1 n=78 v=0
20262 On ch=1 n=68 v=0
20278 On ch=1 n=61 v=59
20281 On ch=1 n=76 v=86
20292 On ch=1 n=52 v=0
20294 On ch=1 n=61 v=0
20304 On ch=1 n=76 v=0
20327 Par ch=1 c=64 v=0
20327 On ch=1 n=54 v=73
20327 On ch=1 n=59 v=77
20328 On ch=1 n=75 v=77
20329 On ch=1 n=66 v=77
20342 On ch=1 n=59 v=0
20349 On ch=1 n=66 v=0
20352 On ch=1 n=54 v=0
20353 On ch=1 n=75 v=0
20419 On ch=1 n=66 v=77
20419 On ch=1 n=73 v=86
20421 On ch=1 n=58 v=77
20422 On ch=1 n=54 v=81
20441 On ch=1 n=66 v=0
20443 On ch=1 n=58 v=0
20448 On ch=1 n=54 v=0
20449 On ch=1 n=73 v=0
20519 On ch=1 n=66 v=81
20519 On ch=1 n=78 v=86
20521 Par ch=1 c=64 v=127
20538 On ch=1 n=66 v=0
20544 On ch=1 n=78 v=0
20603 Par ch=1 c=64 v=0
20613 On ch=1 n=66 v=77
20614 On ch=1 n=78 v=77
20614 On ch=1 n=71 v=91
20616 On ch=1 n=54 v=66
20618 On ch=1 n=51 v=66
20619 On ch=1 n=59 v=69
20628 On ch=1 n=59 v=0
20635 On ch=1 n=66 v=0
20636 On ch=1 n=51 v=0
20638 Par ch=1 c=64 v=127
20640 On ch=1 n=78 v=0
20641 On ch=1 n=71 v=0
20645 On ch=1 n=54 v=0
20696 Par ch=1 c=64 v=0
20706 On ch=1 n=49 v=73
20706 On ch=1 n=52 v=77
20706 On ch=1 n=66 v=77
20707 On ch=1 n=58 v=69
20708 On ch=1 n=78 v=77
20709 On ch=1 n=70 v=81
20709 On ch=1 n=73 v=77
20722 On ch=1 n=58 v=0
20722 On ch=1 n=66 v=0
20724 On ch=1 n=52 v=0
20727 On ch=1 n=70 v=0
20728 On ch=1 n=73 v=0
20730 On ch=1 n=49 v=0
20731 Par ch=1 c=64 v=127
20733 On ch=1 n=78 v=0
20793 Par ch=1 c=64 v=0
20800 On ch=1 n=59 v=66
20800 On ch=1 n=66 v=81
20802 On ch=1 n=51 v=77
20803 On ch=1 n=78 v=77
20803 On ch=1 n=47 v=81
20804 On ch=1 n=75 v=77
20804 On ch=1 n=54 v=69
20806 On ch=1 n=71 v=86
20813 On ch=1 n=66 v=0
20813 On ch=1 n=59 v=0
20814 On ch=1 n=54 v=0
20821 On ch=1 n=78 v=0
20821 On ch=1 n=51 v=0
20822 On ch=1 n=47 v=0
20823 On ch=1 n=71 v=0
20826 On ch=1 n=75 v=0
20827 Par ch=1 c=64 v=127
20896 On ch=1 n=40 v=73
20896 Par ch=1 c=64 v=0
20898 On ch=1 n=44 v=59
20898 On ch=1 n=52 v=59
20900 On ch=1 n=79 v=102
20900 On ch=1 n=49 v=77
20901 On ch=1 n=67 v=102
20918 On ch=1 n=67 v=0
20930 On ch=1 n=79 v=0
20933 Par ch=1 c=64 v=127
20992 On ch=1 n=68 v=91
20992 On ch=1 n=80 v=91
20998 Par ch=1 c=64 v=0
21062 On ch=1 n=68 v=0
21063 On ch=1 n=80 v=0
21068 On ch=1 n=40 v=0
21069 On ch=1 n=52 v=0
21070 On ch=1 n=49 v=0
21076 On ch=1 n=44 v=0
21241 On ch=1 n=42 v=50
21340 On ch=1 n=58 v=40
21343 On ch=1 n=52 v=50
21420 On ch=1 n=58 v=0
21426 On ch=1 n=52 v=0
21434 On ch=1 n=42 v=0
21628 On ch=1 n=35 v=66
21628 Par ch=1 c=64 v=127
21666 On ch=1 n=47 v=45
21668 On ch=1 n=59 v=32
21669 On ch=1 n=51 v=35
21676 On ch=1 n=47 v=0
21680 On ch=1 n=51 v=0
21680 On ch=1 n=59 v=0
21715 On ch=1 n=47 v=29
21721 On ch=1 n=51 v=20
21730 On ch=1 n=51 v=0
21732 On ch=1 n=47 v=0
21763 On ch=1 n=51 v=52
21766 On ch=1 n=47 v=37
21766 On ch=1 n=59 v=29
21778 On ch=1 n=59 v=0
21779 On ch=1 n=47 v=0
21784 On ch=1 n=51 v=0
21806 On ch=1 n=35 v=0
21811 On ch=1 n=40 v=69
21812 Par ch=1 c=64 v=0
21850 Par ch=1 c=64 v=127
21855 On ch=1 n=47 v=54
21858 On ch=1 n=56 v=45
21867 On ch=1 n=56 v=0
21870 On ch=1 n=47 v=0
21901 On ch=1 n=47 v=47
21905 On ch=1 n=56 v=37
21907 On ch=1 n=59 v=26
21914 On ch=1 n=56 v=0
21916 On ch=1 n=59 v=0
21917 On ch=1 n=47 v=0
21948 On ch=1 n=47 v=38
21949 On ch=1 n=56 v=33
21951 On ch=1 n=59 v=25
21963 On ch=1 n=59 v=0
21964 On ch=1 n=47 v=0
21966 On ch=1 n=56 v=0
21997 On ch=1 n=40 v=0
21998 On ch=1 n=39 v=77
21999 Par ch=1 c=64 v=0
22034 Par ch=1 c=64 v=127
22044 On ch=1 n=47 v=50
22045 On ch=1 n=54 v=54
22045 On ch=1 n=59 v=47
22057 On ch=1 n=59 v=0
22060 On ch=1 n=47 v=0
22064 On ch=1 n=54 v=0
22092 On ch=1 n=54 v=40
22093 On ch=1 n=47 v=41
22095 On ch=1 n=59 v=38
22107 On ch=1 n=59 v=0
22108 On ch=1 n=54 v=0
22109 On ch=1 n=47 v=0
22137 On ch=1 n=47 v=57
22139 On ch=1 n=54 v=47
22143 On ch=1 n=59 v=37
22154 On ch=1 n=59 v=0
22158 On ch=1 n=47 v=0
22164 On ch=1 n=54 v=0
22179 On ch=1 n=39 v=0
22186 On ch=1 n=44 v=81
22189 Par ch=1 c=64 v=0
22226 Par ch=1 c=64 v=127
22234 On ch=1 n=47 v=54
22234 On ch=1 n=59 v=52
22236 On ch=1 n=52 v=59
22246 On ch=1 n=52 v=0
22246 On ch=1 n=59 v=0
22248 On ch=1 n=47 v=0
22280 On ch=1 n=47 v=50
22281 On ch=1 n=52 v=59
22285 On ch=1 n=59 v=41
22294 On ch=1 n=59 v=0
22297 On ch=1 n=47 v=0
22300 On ch=1 n=52 v=0
22322 On ch=1 n=52 v=50
22326 On ch=1 n=47 v=54
22330 On ch=1 n=59 v=37
22344 On ch=1 n=59 v=0
22345 On ch=1 n=47 v=0
22347 On ch=1 n=52 v=0
22370 On ch=1 n=42 v=77
22373 On ch=1 n=44 v=0
22375 Par ch=1 c=64 v=0
22413 Par ch=1 c=64 v=127
22416 On ch=1 n=47 v=73
22420 On ch=1 n=59 v=50
22421 On ch=1 n=51 v=47
22430 On ch=1 n=51 v=0
22431 On ch=1 n=47 v=0
22432 On ch=1 n=59 v=0
22465 On ch=1 n=51 v=57
22467 On ch=1 n=59 v=40
22477 On ch=1 n=59 v=0
22480 On ch=1 n=51 v=0
22507 On ch=1 n=47 v=69
22508 On ch=1 n=51 v=45
22516 On ch=1 n=47 v=0
22524 On ch=1 n=51 v=0
22553 Par ch=1 c=64 v=0
22555 On ch=1 n=40 v=81
22557 On ch=1 n=42 v=0
22586 Par ch=1 c=64 v=127
22599 On ch=1 n=47 v=73
22602 On ch=1 n=49 v=66
22602 On ch=1 n=58 v=59
22604 On ch=1 n=59 v=66
22612 On ch=1 n=49 v=0
22613 On ch=1 n=59 v=0
22614 On ch=1 n=47 v=0
22618 On ch=1 n=58 v=0
22646 On ch=1 n=47 v=73
22648 On ch=1 n=49 v=52
22649 On ch=1 n=58 v=50
22651 On ch=1 n=59 v=47
22655 On ch=1 n=47 v=0
22660 On ch=1 n=59 v=0
22662 On ch=1 n=49 v=0
22663 On ch=1 n=58 v=0
22686 On ch=1 n=49 v=59
22687 On ch=1 n=58 v=45
22689 On ch=1 n=47 v=77
22696 On ch=1 n=40 v=0
22700 On ch=1 n=49 v=0
22704 On ch=1 n=58 v=0
22712 On ch=1 n=47 v=0
22738 On ch=1 n=39 v=81
22738 Par ch=1 c=64 v=0
22775 Par ch=1 c=64 v=127
22783 On ch=1 n=47 v=73
22786 On ch=1 n=59 v=57
22798 On ch=1 n=47 v=0
22801 On ch=1 n=59 v=0
22828 On ch=1 n=59 v=47
22829 On ch=1 n=47 v=54
22844 On ch=1 n=47 v=0
22847 On ch=1 n=59 v=0
22873 On ch=1 n=47 v=57
22873 On ch=1 n=59 v=50
22888 On ch=1 n=47 v=0
22893 On ch=1 n=59 v=0
22912 On ch=1 n=39 v=0
22918 On ch=1 n=35 v=69
22921 Par ch=1 c=64 v=0
22955 Par ch=1 c=64 v=127
22961 On ch=1 n=47 v=59
22966 On ch=1 n=59 v=54
22967 On ch=1 n=51 v=57
22969 On ch=1 n=57 v=69
22977 On ch=1 n=51 v=0
22978 On ch=1 n=57 v=0
22981 On ch=1 n=47 v=0
22982 On ch=1 n=59 v=0
23010 On ch=1 n=47 v=73
23011 On ch=1 n=51 v=52
23013 On ch=1 n=59 v=50
23015 On ch=1 n=57 v=66
23020 On ch=1 n=47 v=0
23024 On ch=1 n=57 v=0
23026 On ch=1 n=51 v=0
23028 On ch=1 n=59 v=0
23056 On ch=1 n=51 v=59
23058 On ch=1 n=47 v=69
23058 On ch=1 n=59 v=47
23059 On ch=1 n=57 v=73
23064 On ch=1 n=51 v=0
23067 On ch=1 n=35 v=0
23069 On ch=1 n=59 v=0
23071 On ch=1 n=57 v=0
23080 On ch=1 n=47 v=0
23107 Par ch=1 c=64 v=0
23109 On ch=1 n=40 v=81
23124 On ch=1 n=41 v=33
23129 On ch=1 n=71 v=86
23132 On ch=1 n=41 v=0
23135 On ch=1 n=40 v=0
23141 Par ch=1 c=64 v=127
23186 On ch=1 n=56 v=28
23188 On ch=1 n=59 v=69
23191 On ch=1 n=52 v=69
23205 On ch=1 n=56 v=0
23206 On ch=1 n=59 v=0
23207 On ch=1 n=52 v=0
23234 On ch=1 n=56 v=59
23235 On ch=1 n=52 v=50
23239 On ch=1 n=59 v=52
23249 On ch=1 n=59 v=0
23251 On ch=1 n=52 v=0
23254 On ch=1 n=56 v=0
23279 On ch=1 n=52 v=45
23282 On ch=1 n=56 v=50
23282 On ch=1 n=59 v=57
23290 On ch=1 n=59 v=0
23292 On ch=1 n=52 v=0
23305 On ch=1 n=56 v=0
23322 On ch=1 n=71 v=0
23328 On ch=1 n=76 v=86
23328 On ch=1 n=64 v=81
23373 On ch=1 n=56 v=59
23377 On ch=1 n=59 v=50
23378 On ch=1 n=52 v=41
23386 On ch=1 n=59 v=0
23388 On ch=1 n=52 v=0
23390 On ch=1 n=56 v=0
23423 On ch=1 n=56 v=38
23425 On ch=1 n=52 v=47
23426 On ch=1 n=59 v=47
23435 On ch=1 n=52 v=0
23436 On ch=1 n=56 v=0
23436 On ch=1 n=59 v=0
23466 On ch=1 n=56 v=40
23471 On ch=1 n=59 v=32
23474 On ch=1 n=52 v=33
23484 On ch=1 n=59 v=0
23485 On ch=1 n=52 v=0
23487 On ch=1 n=56 v=0
23514 On ch=1 n=72 v=86
23524 On ch=1 n=76 v=0
23527 Par ch=1 c=64 v=0
23561 Par ch=1 c=64 v=127
23562 On ch=1 n=52 v=52
23562 On ch=1 n=57 v=59
23564 On ch=1 n=60 v=54
23571 On ch=1 n=52 v=0
23573 On ch=1 n=60 v=0
23579 On ch=1 n=57 v=0
23593 On ch=1 n=64 v=0
23609 On ch=1 n=57 v=59
23612 On ch=1 n=52 v=47
23612 On ch=1 n=60 v=57
23621 On ch=1 n=60 v=0
23622 On ch=1 n=52 v=0
23630 On ch=1 n=57 v=0
23655 On ch=1 n=57 v=57
23656 On ch=1 n=52 v=59
23662 On ch=1 n=60 v=27
23669 On ch=1 n=52 v=0
23671 On ch=1 n=60 v=0
23677 On ch=1 n=57 v=0
23705 On ch=1 n=72 v=0
23706 On ch=1 n=65 v=91
23708 On ch=1 n=77 v=86
23749 On ch=1 n=52 v=66
23752 On ch=1 n=57 v=57
23752 On ch=1 n=60 v=59
23761 On ch=1 n=60 v=0
23761 On ch=1 n=52 v=0
23761 On ch=1 n=57 v=0
23782 On ch=1 n=77 v=0
23798 On ch=1 n=52 v=45
23798 On ch=1 n=57 v=66
23800 On ch=1 n=60 v=57
23807 On ch=1 n=57 v=0
23809 On ch=1 n=60 v=0
23812 On ch=1 n=52 v=0
23844 On ch=1 n=60 v=66
23847 On ch=1 n=57 v=57
23849 On ch=1 n=52 v=25
23853 On ch=1 n=60 v=0
23857 On ch=1 n=57 v=0
23858 On ch=1 n=52 v=0
23892 On ch=1 n=71 v=91
23892 On ch=1 n=77 v=91
23897 Par ch=1 c=64 v=0
23931 Par ch=1 c=64 v=127
23938 On ch=1 n=50 v=59
23939 On ch=1 n=53 v=52
23940 On ch=1 n=65 v=0
23940 On ch=1 n=59 v=45
23940 On ch=1 n=57 v=47
23947 On ch=1 n=50 v=0
23948 On ch=1 n=59 v=0
23949 On ch=1 n=57 v=0
23951 On ch=1 n=71 v=0
23952 On ch=1 n=53 v=0
23957 On ch=1 n=77 v=0
23985 On ch=1 n=57 v=57
23985 On ch=1 n=53 v=50
23986 On ch=1 n=50 v=57
23987 On ch=1 n=59 v=50
23993 On ch=1 n=57 v=0
23995 On ch=1 n=53 v=0
23995 On ch=1 n=50 v=0
23995 On ch=1 n=59 v=0
24034 On ch=1 n=57 v=57
24034 On ch=1 n=50 v=57
24035 On ch=1 n=59 v=40
24036 On ch=1 n=53 v=54
24042 On ch=1 n=57 v=0
24043 On ch=1 n=50 v=0
24045 On ch=1 n=59 v=0
24046 On ch=1 n=53 v=0
24081 On ch=1 n=83 v=91
24082 On ch=1 n=71 v=91
24125 On ch=1 n=57 v=59
24126 On ch=1 n=50 v=57
24126 On ch=1 n=53 v=59
24129 On ch=1 n=71 v=0
24130 On ch=1 n=59 v=28
24135 On ch=1 n=50 v=0
24135 On ch=1 n=53 v=0
24135 On ch=1 n=57 v=0
24139 On ch=1 n=59 v=0
24150 On ch=1 n=83 v=0
24174 On ch=1 n=59 v=57
24175 On ch=1 n=57 v=69
24175 On ch=1 n=50 v=59
24177 On ch=1 n=53 v=54
24183 On ch=1 n=57 v=0
24183 On ch=1 n=59 v=0
24185 On ch=1 n=50 v=0
24186 On ch=1 n=53 v=0
24217 On ch=1 n=57 v=54
24220 On ch=1 n=50 v=50
24220 On ch=1 n=53 v=54
24220 On ch=1 n=59 v=50
24226 On ch=1 n=57 v=0
24229 On ch=1 n=59 v=0
24229 On ch=1 n=53 v=0
24230 On ch=1 n=50 v=0
24272 On ch=1 n=86 v=102
24272 On ch=1 n=74 v=102
24280 Par ch=1 c=64 v=0
24307 Par ch=1 c=64 v=127
24320 On ch=1 n=50 v=59
24321 On ch=1 n=56 v=57
24321 On ch=1 n=59 v=54
24322 On ch=1 n=53 v=57
24329 On ch=1 n=50 v=0
24331 On ch=1 n=59 v=0
24331 On ch=1 n=56 v=0
24332 On ch=1 n=53 v=0
24346 On ch=1 n=74 v=0
24361 On ch=1 n=86 v=0
24369 On ch=1 n=50 v=66
24371 On ch=1 n=56 v=45
24372 On ch=1 n=59 v=54
24373 On ch=1 n=53 v=57
24381 On ch=1 n=59 v=0
24381 On ch=1 n=50 v=0
24382 On ch=1 n=53 v=0
24385 On ch=1 n=56 v=0
24417 On ch=1 n=50 v=52
24418 On ch=1 n=56 v=37
24421 On ch=1 n=59 v=59
24422 On ch=1 n=53 v=59
24428 On ch=1 n=50 v=0
24431 On ch=1 n=59 v=0
24432 On ch=1 n=53 v=0
24433 On ch=1 n=56 v=0
24468 On ch=1 n=77 v=102
24468 On ch=1 n=89 v=102
24510 On ch=1 n=50 v=69
24511 On ch=1 n=56 v=57
24512 On ch=1 n=53 v=66
24515 On ch=1 n=59 v=41
24519 On ch=1 n=50 v=0
24520 On ch=1 n=77 v=0
24521 On ch=1 n=56 v=0
24521 On ch=1 n=53 v=0
24525 On ch=1 n=59 v=0
24528 On ch=1 n=89 v=0
24561 On ch=1 n=53 v=69
24562 On ch=1 n=50 v=59
24562 On ch=1 n=56 v=52
24571 On ch=1 n=50 v=0
24571 On ch=1 n=53 v=0
24572 On ch=1 n=56 v=0
24602 On ch=1 n=56 v=54
24604 On ch=1 n=53 v=59
24606 On ch=1 n=50 v=47
24607 On ch=1 n=59 v=59
24614 On ch=1 n=53 v=0
24615 On ch=1 n=50 v=0
24616 On ch=1 n=59 v=0
24617 On ch=1 n=56 v=0
24651 Par ch=1 c=64 v=0
24654 On ch=1 n=48 v=69
24660 On ch=1 n=88 v=77
24660 On ch=1 n=76 v=73
24678 On ch=1 n=52 v=69
24687 Par ch=1 c=64 v=127
24689 On ch=1 n=48 v=0
24706 On ch=1 n=57 v=52
24714 On ch=1 n=52 v=0
24726 On ch=1 n=60 v=59
24736 On ch=1 n=57 v=0
24754 On ch=1 n=60 v=0
24758 On ch=1 n=48 v=73
24759 Par ch=1 c=64 v=0
24774 On ch=1 n=52 v=54
24785 Par ch=1 c=64 v=127
24790 On ch=1 n=48 v=0
24798 On ch=1 n=57 v=57
24814 On ch=1 n=52 v=0
24822 On ch=1 n=60 v=37
24828 On ch=1 n=57 v=0
24848 On ch=1 n=60 v=0
24850 Par ch=1 c=64 v=0
24856 On ch=1 n=48 v=73
24873 Par ch=1 c=64 v=127
24875 On ch=1 n=52 v=57
24879 On ch=1 n=76 v=0
24892 On ch=1 n=88 v=0
24895 On ch=1 n=48 v=0
24901 On ch=1 n=57 v=57
24917 On ch=1 n=52 v=0
24919 On ch=1 n=60 v=47
24933 On ch=1 n=57 v=0
24945 On ch=1 n=60 v=0
24960 On ch=1 n=48 v=73
24963 On ch=1 n=74 v=81
24963 On ch=1 n=86 v=81
24976 On ch=1 n=74 v=0
24977 On ch=1 n=52 v=50
24980 On ch=1 n=86 v=0
24984 On ch=1 n=48 v=0
25012 On ch=1 n=57 v=66
25012 On ch=1 n=72 v=59
25014 On ch=1 n=84 v=66
25021 On ch=1 n=52 v=0
25028 On ch=1 n=84 v=0
25029 On ch=1 n=72 v=0
25036 On ch=1 n=60 v=32
25040 On ch=1 n=57 v=0
25047 On ch=1 n=60 v=0
25056 Par ch=1 c=64 v=0
25062 On ch=1 n=71 v=66
25062 On ch=1 n=83 v=86
25063 On ch=1 n=48 v=77
25080 On ch=1 n=83 v=0
25081 On ch=1 n=71 v=0
25082 On ch=1 n=52 v=59
25085 Par ch=1 c=64 v=127
25088 On ch=1 n=48 v=0
25109 On ch=1 n=57 v=59
25113 On ch=1 n=81 v=77
25115 On ch=1 n=69 v=40
25120 On ch=1 n=52 v=0
25125 On ch=1 n=69 v=0
25130 On ch=1 n=60 v=50
25138 On ch=1 n=81 v=0
25141 On ch=1 n=57 v=0
25143 On ch=1 n=60 v=0
25160 On ch=1 n=80 v=77
25162 On ch=1 n=48 v=77
25164 On ch=1 n=68 v=45
25173 On ch=1 n=68 v=0
25182 On ch=1 n=48 v=0
25182 On ch=1 n=52 v=59
25186 On ch=1 n=80 v=0
25207 On ch=1 n=69 v=81
25210 On ch=1 n=81 v=77
25212 On ch=1 n=57 v=57
25222 On ch=1 n=69 v=0
25222 On ch=1 n=52 v=0
25228 On ch=1 n=81 v=0
25241 On ch=1 n=60 v=25
25249 On ch=1 n=60 v=0
25252 On ch=1 n=57 v=0
25258 Par ch=1 c=64 v=0
25261 On ch=1 n=80 v=69
25264 On ch=1 n=48 v=77
25265 On ch=1 n=68 v=50
25276 On ch=1 n=68 v=0
25281 Par ch=1 c=64 v=127
25284 On ch=1 n=52 v=73
25287 On ch=1 n=80 v=0
25292 On ch=1 n=48 v=0
25312 On ch=1 n=57 v=69
25312 On ch=1 n=69 v=69
25314 On ch=1 n=81 v=73
25325 On ch=1 n=69 v=0
25328 On ch=1 n=52 v=0
25330 On ch=1 n=81 v=0
25333 On ch=1 n=60 v=45
25342 On ch=1 n=57 v=0
25344 On ch=1 n=60 v=0
25363 On ch=1 n=83 v=81
25363 On ch=1 n=71 v=77
25365 On ch=1 n=48 v=77
25377 On ch=1 n=71 v=0
25378 On ch=1 n=83 v=0
25385 On ch=1 n=52 v=59
25394 On ch=1 n=48 v=0
25414 On ch=1 n=69 v=86
25415 On ch=1 n=81 v=86
25417 On ch=1 n=57 v=54
25427 On ch=1 n=52 v=0
25430 On ch=1 n=69 v=0
25431 On ch=1 n=81 v=0
25434 On ch=1 n=60 v=57
25444 On ch=1 n=57 v=0
25456 On ch=1 n=60 v=0
25464 Par ch=1 c=64 v=0
25464 On ch=1 n=69 v=77
25466 On ch=1 n=50 v=73
25466 On ch=1 n=81 v=77
25489 On ch=1 n=53 v=69
25492 On ch=1 n=50 v=0
25498 Par ch=1 c=64 v=127
25515 On ch=1 n=57 v=57
25522 On ch=1 n=53 v=0
25534 On ch=1 n=60 v=40
25538 On ch=1 n=57 v=0
25564 Par ch=1 c=64 v=0
25565 On ch=1 n=60 v=0
25565 On ch=1 n=50 v=57
25584 On ch=1 n=53 v=59
25593 On ch=1 n=50 v=0
25594 Par ch=1 c=64 v=127
25610 On ch=1 n=57 v=59
25621 On ch=1 n=53 v=0
25630 On ch=1 n=69 v=0
25632 On ch=1 n=60 v=52
25639 On ch=1 n=57 v=0
25651 On ch=1 n=81 v=0
25655 On ch=1 n=60 v=0
25662 On ch=1 n=50 v=66
25683 On ch=1 n=53 v=69
25685 On ch=1 n=50 v=0
25709 On ch=1 n=57 v=57
25718 On ch=1 n=53 v=0
25729 On ch=1 n=60 v=57
25737 On ch=1 n=57 v=0
25756 On ch=1 n=60 v=0
25763 On ch=1 n=50 v=59
25769 On ch=1 n=86 v=81
25769 On ch=1 n=74 v=77
25781 On ch=1 n=74 v=0
25786 On ch=1 n=86 v=0
25790 On ch=1 n=50 v=0
25793 On ch=1 n=53 v=66
25820 On ch=1 n=72 v=77
25820 On ch=1 n=84 v=81
25820 On ch=1 n=57 v=59
25826 On ch=1 n=53 v=0
25835 On ch=1 n=84 v=0
25836 On ch=1 n=72 v=0
25839 On ch=1 n=60 v=38
25845 On ch=1 n=57 v=0
25855 Par ch=1 c=64 v=0
25867 On ch=1 n=60 v=0
25868 On ch=1 n=50 v=69
25869 On ch=1 n=71 v=81
25872 On ch=1 n=83 v=81
25888 On ch=1 n=83 v=0
25888 Par ch=1 c=64 v=127
25889 On ch=1 n=71 v=0
25893 On ch=1 n=53 v=66
25894 On ch=1 n=50 v=0
25918 On ch=1 n=57 v=54
25923 On ch=1 n=81 v=86
25923 On ch=1 n=69 v=77
25927 On ch=1 n=53 v=0
25936 On ch=1 n=69 v=0
25941 On ch=1 n=60 v=40
25942 On ch=1 n=81 v=0
25946 On ch=1 n=57 v=0
25959 On ch=1 n=60 v=0
25970 On ch=1 n=50 v=69
25973 On ch=1 n=68 v=77
25973 On ch=1 n=80 v=77
25985 On ch=1 n=68 v=0
25991 On ch=1 n=50 v=0
25994 On ch=1 n=53 v=69
25995 On ch=1 n=80 v=0
26018 On ch=1 n=57 v=69
26020 On ch=1 n=69 v=81
26022 On ch=1 n=81 v=77
26027 On ch=1 n=53 v=0
26033 On ch=1 n=69 v=0
26040 On ch=1 n=81 v=0
26045 On ch=1 n=60 v=50
26046 On ch=1 n=57 v=0
26062 Par ch=1 c=64 v=0
26067 On ch=1 n=60 v=0
26070 On ch=1 n=80 v=77
26072 On ch=1 n=68 v=57
26072 On ch=1 n=50 v=73
26085 On ch=1 n=68 v=0
26089 Par ch=1 c=64 v=127
26096 On ch=1 n=50 v=0
26096 On ch=1 n=80 v=0
26097 On ch=1 n=53 v=69
26121 On ch=1 n=69 v=77
26121 On ch=1 n=57 v=69
26124 On ch=1 n=81 v=77
26126 On ch=1 n=53 v=0
26138 On ch=1 n=69 v=0
26138 On ch=1 n=81 v=0
26147 On ch=1 n=60 v=47
26149 On ch=1 n=57 v=0
26162 On ch=1 n=60 v=0
26171 On ch=1 n=71 v=73
26172 On ch=1 n=83 v=81
26173 On ch=1 n=50 v=77
26187 On ch=1 n=71 v=0
26189 On ch=1 n=83 v=0
26202 On ch=1 n=50 v=0
26203 On ch=1 n=53 v=69
26216 On ch=1 n=57 v=69
26220 On ch=1 n=53 v=0
26225 On ch=1 n=69 v=81
26226 On ch=1 n=81 v=81
26235 On ch=1 n=57 v=0
26240 On ch=1 n=69 v=0
26241 On ch=1 n=81 v=0
26242 On ch=1 n=60 v=66
26269 On ch=1 n=60 v=0
26271 On ch=1 n=52 v=66
26274 Par ch=1 c=64 v=0
26278 On ch=1 n=69 v=81
26278 On ch=1 n=81 v=81
26290 On ch=1 n=58 v=66
26298 On ch=1 n=52 v=0
26302 On ch=1 n=58 v=0
26304 On ch=1 n=57 v=66
26308 Par ch=1 c=64 v=127
26326 On ch=1 n=60 v=57
26340 On ch=1 n=57 v=0
26350 On ch=1 n=64 v=54
26358 On ch=1 n=60 v=0
26366 On ch=1 n=64 v=0
26379 On ch=1 n=52 v=81
26401 On ch=1 n=57 v=66
26404 On ch=1 n=52 v=0
26414 On ch=1 n=69 v=0
26423 On ch=1 n=60 v=59
26436 On ch=1 n=81 v=0
26438 On ch=1 n=57 v=0
26446 On ch=1 n=64 v=57
26456 On ch=1 n=60 v=0
26463 On ch=1 n=64 v=0
26476 On ch=1 n=52 v=77
26500 On ch=1 n=52 v=0
26500 On ch=1 n=57 v=73
26523 On ch=1 n=60 v=59
26528 On ch=1 n=88 v=102
26528 On ch=1 n=76 v=102
26535 On ch=1 n=57 v=0
26541 On ch=1 n=76 v=0
26542 On ch=1 n=88 v=0
26543 On ch=1 n=64 v=54
26555 On ch=1 n=64 v=0
26556 On ch=1 n=60 v=0
26578 On ch=1 n=74 v=102
26578 On ch=1 n=52 v=77
26578 On ch=1 n=86 v=91
26591 On ch=1 n=74 v=0
26592 On ch=1 n=86 v=0
26600 On ch=1 n=52 v=0
26602 On ch=1 n=57 v=69
26626 On ch=1 n=72 v=91
26627 On ch=1 n=84 v=86
26627 On ch=1 n=60 v=66
26637 On ch=1 n=57 v=0
26640 On ch=1 n=72 v=0
26640 On ch=1 n=84 v=0
26645 On ch=1 n=64 v=66
26656 On ch=1 n=60 v=0
26658 On ch=1 n=64 v=0
26673 Par ch=1 c=64 v=0
26676 On ch=1 n=52 v=81
26678 On ch=1 n=71 v=91
26678 On ch=1 n=83 v=102
26696 On ch=1 n=83 v=0
26697 On ch=1 n=71 v=0
26702 On ch=1 n=52 v=0
26702 On ch=1 n=57 v=73
26704 Par ch=1 c=64 v=127
26724 On ch=1 n=60 v=66
26732 On ch=1 n=69 v=91
26732 On ch=1 n=81 v=91
26736 On ch=1 n=57 v=0
26746 On ch=1 n=69 v=0
26746 On ch=1 n=64 v=66
26750 On ch=1 n=81 v=0
26753 On ch=1 n=60 v=0
26757 On ch=1 n=64 v=0
26775 On ch=1 n=52 v=81
26780 On ch=1 n=80 v=81
26781 On ch=1 n=68 v=86
26792 On ch=1 n=68 v=0
26798 On ch=1 n=52 v=0
26799 On ch=1 n=57 v=73
26801 On ch=1 n=80 v=0
26825 On ch=1 n=60 v=69
26831 On ch=1 n=69 v=86
26834 On ch=1 n=81 v=81
26835 On ch=1 n=57 v=0
26836 On ch=1 n=71 v=69
26844 On ch=1 n=69 v=0
26845 On ch=1 n=71 v=0
26848 On ch=1 n=64 v=69
26850 On ch=1 n=81 v=0
26856 On ch=1 n=60 v=0
26858 On ch=1 n=64 v=0
26878 On ch=1 n=52 v=77
26884 On ch=1 n=80 v=86
26884 On ch=1 n=68 v=91
26894 On ch=1 n=68 v=0
26899 On ch=1 n=80 v=0
26903 On ch=1 n=52 v=0
26903 On ch=1 n=57 v=73
26924 On ch=1 n=60 v=66
26934 On ch=1 n=69 v=86
26934 On ch=1 n=81 v=81
26935 On ch=1 n=57 v=0
26947 On ch=1 n=69 v=0
26949 On ch=1 n=81 v=0
26952 On ch=1 n=64 v=59
26959 On ch=1 n=60 v=0
26961 On ch=1 n=64 v=0
26977 On ch=1 n=52 v=73
26984 On ch=1 n=71 v=86
26985 On ch=1 n=83 v=91
26995 On ch=1 n=71 v=0
26996 On ch=1 n=83 v=0
27003 On ch=1 n=57 v=73
27005 On ch=1 n=52 v=0
27024 On ch=1 n=60 v=59
27033 On ch=1 n=69 v=86
27035 On ch=1 n=57 v=0
27035 On ch=1 n=81 v=81
27048 On ch=1 n=64 v=69
27050 On ch=1 n=69 v=0
27052 On ch=1 n=81 v=0
27060 On ch=1 n=60 v=0
27069 On ch=1 n=64 v=0
27078 On ch=1 n=53 v=66
27080 Par ch=1 c=64 v=0
27084 On ch=1 n=69 v=77
27085 On ch=1 n=81 v=77
27107 On ch=1 n=57 v=57
27114 On ch=1 n=53 v=0
27115 Par ch=1 c=64 v=127
27127 On ch=1 n=60 v=54
27132 On ch=1 n=57 v=0
27156 On ch=1 n=62 v=54
27157 On ch=1 n=60 v=0
27181 On ch=1 n=62 v=0
27184 On ch=1 n=53 v=54
27210 On ch=1 n=53 v=0
27211 On ch=1 n=57 v=41
27222 On ch=1 n=57 v=0
27225 On ch=1 n=60 v=52
27254 On ch=1 n=60 v=0
27260 On ch=1 n=62 v=40
27284 On ch=1 n=69 v=0
27285 On ch=1 n=53 v=50
27286 On ch=1 n=62 v=0
27307 On ch=1 n=57 v=57
27312 On ch=1 n=53 v=0
27328 On ch=1 n=60 v=57
27331 On ch=1 n=57 v=0
27346 On ch=1 n=81 v=0
27355 On ch=1 n=62 v=50
27356 On ch=1 n=60 v=0
27371 On ch=1 n=62 v=0
27387 On ch=1 n=53 v=66
27391 On ch=1 n=68 v=77
27391 On ch=1 n=80 v=77
27403 On ch=1 n=68 v=0
27413 On ch=1 n=80 v=0
27416 On ch=1 n=57 v=59
27418 On ch=1 n=53 v=0
27435 On ch=1 n=60 v=69
27438 On ch=1 n=57 v=0
27443 On ch=1 n=69 v=86
27445 On ch=1 n=81 v=81
27457 On ch=1 n=69 v=0
27463 On ch=1 n=81 v=0
27467 On ch=1 n=60 v=0
27482 Par ch=1 c=64 v=0
27489 On ch=1 n=54 v=73
27491 On ch=1 n=80 v=81
27494 On ch=1 n=68 v=73
27508 On ch=1 n=68 v=0
27512 Par ch=1 c=64 v=127
27519 On ch=1 n=57 v=73
27520 On ch=1 n=80 v=0
27525 On ch=1 n=54 v=0
27541 On ch=1 n=60 v=57
27547 On ch=1 n=69 v=91
27548 On ch=1 n=81 v=81
27549 On ch=1 n=57 v=0
27559 On ch=1 n=69 v=0
27560 On ch=1 n=81 v=0
27572 On ch=1 n=62 v=47
27575 On ch=1 n=60 v=0
27594 On ch=1 n=54 v=66
27595 On ch=1 n=71 v=81
27595 On ch=1 n=83 v=86
27598 On ch=1 n=62 v=0
27605 On ch=1 n=71 v=0
27610 On ch=1 n=83 v=0
27626 On ch=1 n=57 v=69
27627 On ch=1 n=54 v=0
27645 On ch=1 n=69 v=86
27648 On ch=1 n=81 v=77
27655 On ch=1 n=60 v=66
27658 On ch=1 n=69 v=0
27659 On ch=1 n=57 v=0
27664 On ch=1 n=81 v=0
27686 On ch=1 n=60 v=0
27688 Par ch=1 c=64 v=0
27690 On ch=1 n=62 v=47
27695 On ch=1 n=80 v=81
27695 On ch=1 n=68 v=86
27698 On ch=1 n=54 v=73
27702 On ch=1 n=62 v=0
27708 On ch=1 n=68 v=0
27709 Par ch=1 c=64 v=127
27716 On ch=1 n=80 v=0
27725 On ch=1 n=57 v=73
27733 On ch=1 n=54 v=0
27746 On ch=1 n=60 v=66
27746 On ch=1 n=69 v=91
27748 On ch=1 n=81 v=86
27754 On ch=1 n=57 v=0
27760 On ch=1 n=69 v=0
27762 On ch=1 n=81 v=0
27783 On ch=1 n=62 v=47
27793 On ch=1 n=60 v=0
27795 On ch=1 n=54 v=73
27801 On ch=1 n=62 v=0
27801 On ch=1 n=71 v=91
27801 On ch=1 n=83 v=86
27814 On ch=1 n=71 v=0
27816 On ch=1 n=83 v=0
27823 On ch=1 n=57 v=69
27831 On ch=1 n=54 v=0
27843 On ch=1 n=60 v=69
27850 On ch=1 n=57 v=0
27854 On ch=1 n=72 v=91
27854 On ch=1 n=84 v=86
27868 On ch=1 n=84 v=0
27869 On ch=1 n=60 v=0
27870 On ch=1 n=72 v=0
27870 On ch=1 n=62 v=66
27892 On ch=1 n=62 v=0
27895 On ch=1 n=55 v=81
27907 Par ch=1 c=64 v=0
27910 On ch=1 n=72 v=91
27910 On ch=1 n=84 v=86
27915 On ch=1 n=60 v=66
27926 On ch=1 n=55 v=0
27937 Par ch=1 c=64 v=127
27950 On ch=1 n=64 v=66
27962 On ch=1 n=60 v=0
27964 On ch=1 n=67 v=57
27978 On ch=1 n=64 v=0
27986 On ch=1 n=67 v=0
28001 On ch=1 n=55 v=73
28020 On ch=1 n=60 v=77
28026 On ch=1 n=55 v=0
28049 On ch=1 n=64 v=69
28052 On ch=1 n=72 v=0
28064 On ch=1 n=67 v=57
28066 On ch=1 n=60 v=0
28075 On ch=1 n=84 v=0
28080 On ch=1 n=64 v=0
28082 On ch=1 n=67 v=0
28100 On ch=1 n=55 v=73
28121 On ch=1 n=60 v=73
28127 On ch=1 n=55 v=0
28147 On ch=1 n=64 v=69
28168 On ch=1 n=67 v=54
28170 On ch=1 n=60 v=0
28179 On ch=1 n=67 v=0
28182 On ch=1 n=64 v=0
28202 On ch=1 n=55 v=77
28211 On ch=1 n=74 v=86
28211 On ch=1 n=86 v=91
28226 On ch=1 n=74 v=0
28231 On ch=1 n=86 v=0
28236 On ch=1 n=55 v=0
28238 On ch=1 n=60 v=69
28263 On ch=1 n=76 v=102
28263 On ch=1 n=88 v=102
28268 On ch=1 n=64 v=77
28275 On ch=1 n=67 v=66
28278 On ch=1 n=88 v=0
28278 On ch=1 n=76 v=0
28279 On ch=1 n=60 v=0
28285 On ch=1 n=67 v=0
28288 On ch=1 n=64 v=0
28314 Par ch=1 c=64 v=0
28315 On ch=1 n=88 v=91
28315 On ch=1 n=76 v=102
28327 On ch=1 n=43 v=27
28334 On ch=1 n=76 v=0
28342 Par ch=1 c=64 v=127
28350 On ch=1 n=50 v=77
28352 On ch=1 n=43 v=0
28378 On ch=1 n=53 v=59
28380 On ch=1 n=88 v=0
28387 On ch=1 n=55 v=66
28388 On ch=1 n=50 v=0
28396 On ch=1 n=53 v=0
28397 On ch=1 n=55 v=0
28418 On ch=1 n=43 v=66
28420 On ch=1 n=77 v=77
28421 On ch=1 n=89 v=86
28445 On ch=1 n=50 v=73
28446 On ch=1 n=43 v=0
28466 On ch=1 n=53 v=77
28473 On ch=1 n=50 v=0
28490 On ch=1 n=55 v=59
28494 On ch=1 n=53 v=0
28502 On ch=1 n=55 v=0
28515 On ch=1 n=43 v=69
28519 On ch=1 n=89 v=0
28527 On ch=1 n=77 v=0
28542 On ch=1 n=50 v=77
28546 On ch=1 n=43 v=0
28568 On ch=1 n=53 v=73
28586 On ch=1 n=50 v=0
28590 On ch=1 n=55 v=54
28594 On ch=1 n=53 v=0
28600 On ch=1 n=55 v=0
28613 On ch=1 n=43 v=69
28628 On ch=1 n=71 v=81
28629 On ch=1 n=83 v=77
28639 On ch=1 n=50 v=77
28645 On ch=1 n=43 v=0
28652 On ch=1 n=71 v=0
28666 On ch=1 n=53 v=69
28668 On ch=1 n=50 v=0
28690 On ch=1 n=55 v=59
28692 On ch=1 n=53 v=0
28718 On ch=1 n=55 v=0
28720 On ch=1 n=83 v=0
28720 On ch=1 n=48 v=73
28739 Par ch=1 c=64 v=0
28739 On ch=1 n=84 v=73
28740 On ch=1 n=72 v=69
28746 On ch=1 n=52 v=66
28753 On ch=1 n=48 v=0
28772 On ch=1 n=55 v=59
28774 Par ch=1 c=64 v=127
28784 On ch=1 n=52 v=0
28798 On ch=1 n=60 v=50
28800 On ch=1 n=55 v=0
28831 On ch=1 n=60 v=0
28831 On ch=1 n=48 v=59
28851 On ch=1 n=52 v=54
28852 On ch=1 n=48 v=0
28874 On ch=1 n=55 v=57
28879 On ch=1 n=52 v=0
28902 On ch=1 n=60 v=50
28910 On ch=1 n=55 v=0
28922 On ch=1 n=72 v=0
28926 On ch=1 n=84 v=0
28930 On ch=1 n=60 v=0
28939 On ch=1 n=48 v=52
28958 On ch=1 n=52 v=52
28960 On ch=1 n=48 v=0
28981 On ch=1 n=55 v=52
28992 On ch=1 n=52 v=0
29004 On ch=1 n=60 v=41
29010 On ch=1 n=55 v=0
29030 On ch=1 n=60 v=0
29041 On ch=1 n=67 v=73
29041 On ch=1 n=79 v=73
29041 On ch=1 n=48 v=69
29056 On ch=1 n=67 v=0
29058 On ch=1 n=79 v=0
29059 On ch=1 n=52 v=59
29064 On ch=1 n=48 v=0
29088 On ch=1 n=55 v=66
29097 On ch=1 n=77 v=73
29098 On ch=1 n=65 v=52
29099 On ch=1 n=52 v=0
29107 On ch=1 n=77 v=0
29108 On ch=1 n=60 v=52
29111 On ch=1 n=65 v=0
29117 On ch=1 n=55 v=0
29130 On ch=1 n=60 v=0
29136 Par ch=1 c=64 v=0
29143 On ch=1 n=48 v=69
29148 On ch=1 n=65 v=77
29149 On ch=1 n=77 v=73
29166 Par ch=1 c=64 v=127
29168 On ch=1 n=77 v=0
29168 On ch=1 n=65 v=0
29168 On ch=1 n=52 v=66
29173 On ch=1 n=48 v=0
29194 On ch=1 n=55 v=66
29200 On ch=1 n=64 v=77
29200 On ch=1 n=76 v=77
29204 On ch=1 n=52 v=0
29208 On ch=1 n=64 v=0
29213 On ch=1 n=60 v=54
29218 On ch=1 n=55 v=0
29227 On ch=1 n=76 v=0
29232 On ch=1 n=60 v=0
29246 On ch=1 n=48 v=73
29249 On ch=1 n=75 v=81
29252 On ch=1 n=63 v=52
29262 On ch=1 n=63 v=0
29268 On ch=1 n=52 v=69
29269 On ch=1 n=48 v=0
29271 On ch=1 n=75 v=0
29295 On ch=1 n=55 v=69
29301 On ch=1 n=64 v=77
29306 On ch=1 n=52 v=0
29306 On ch=1 n=76 v=66
29311 On ch=1 n=64 v=0
29317 On ch=1 n=60 v=57
29323 On ch=1 n=55 v=0
29324 On ch=1 n=76 v=0
29327 On ch=1 n=60 v=0
29348 On ch=1 n=48 v=77
29352 On ch=1 n=75 v=69
29354 On ch=1 n=63 v=50
29364 On ch=1 n=63 v=0
29371 On ch=1 n=52 v=73
29375 On ch=1 n=48 v=0
29376 On ch=1 n=75 v=0
29401 On ch=1 n=55 v=69
29406 On ch=1 n=64 v=81
29407 On ch=1 n=76 v=77
29414 On ch=1 n=52 v=0
29419 On ch=1 n=60 v=59
29420 On ch=1 n=64 v=0
29422 On ch=1 n=76 v=0
29429 On ch=1 n=55 v=0
29441 On ch=1 n=60 v=0
29455 On ch=1 n=48 v=66
29457 On ch=1 n=65 v=77
29457 On ch=1 n=77 v=81
29469 On ch=1 n=65 v=0
29472 On ch=1 n=77 v=0
29475 On ch=1 n=52 v=66
29483 On ch=1 n=48 v=0
29501 On ch=1 n=55 v=66
29509 On ch=1 n=64 v=86
29511 On ch=1 n=76 v=81
29515 On ch=1 n=52 v=0
29516 On ch=1 n=60 v=69
29524 On ch=1 n=64 v=0
29526 On ch=1 n=76 v=0
29527 On ch=1 n=55 v=0
29535 On ch=1 n=60 v=0
29553 On ch=1 n=47 v=66
29560 Par ch=1 c=64 v=0
29562 On ch=1 n=64 v=77
29562 On ch=1 n=76 v=81
29576 On ch=1 n=52 v=69
29584 On ch=1 n=47 v=0
29594 Par ch=1 c=64 v=127
29606 On ch=1 n=55 v=66
29618 On ch=1 n=52 v=0
29626 On ch=1 n=59 v=47
29636 On ch=1 n=55 v=0
29649 On ch=1 n=59 v=0
29662 On ch=1 n=47 v=59
29665 Par ch=1 c=64 v=0
29686 On ch=1 n=52 v=66
29690 Par ch=1 c=64 v=127
29696 On ch=1 n=47 v=0
29713 On ch=1 n=55 v=59
29726 On ch=1 n=52 v=0
29741 On ch=1 n=59 v=35
29745 On ch=1 n=64 v=0
29750 On ch=1 n=55 v=0
29753 On ch=1 n=59 v=0
29768 On ch=1 n=47 v=59
29769 On ch=1 n=76 v=0
29792 On ch=1 n=52 v=69
29799 On ch=1 n=47 v=0
29824 On ch=1 n=55 v=57
29835 On ch=1 n=52 v=0
29838 On ch=1 n=59 v=54
29849 On ch=1 n=55 v=0
29860 On ch=1 n=59 v=0
29875 On ch=1 n=47 v=66
29876 On ch=1 n=79 v=81
29876 On ch=1 n=67 v=77
29885 On ch=1 n=67 v=0
29896 On ch=1 n=79 v=0
29900 On ch=1 n=52 v=73
29901 On ch=1 n=47 v=0
29927 On ch=1 n=78 v=77
29928 On ch=1 n=66 v=73
29928 On ch=1 n=55 v=73
29937 On ch=1 n=52 v=0
29943 On ch=1 n=66 v=0
29946 On ch=1 n=78 v=0
29949 On ch=1 n=59 v=50
29958 On ch=1 n=55 v=0
29968 Par ch=1 c=64 v=0
29971 On ch=1 n=59 v=0
29977 On ch=1 n=66 v=77
29979 On ch=1 n=78 v=81
29980 On ch=1 n=47 v=81
29995 On ch=1 n=66 v=0
30000 Par ch=1 c=64 v=127
30002 On ch=1 n=78 v=0
30006 On ch=1 n=52 v=69
30008 On ch=1 n=47 v=0
30031 On ch=1 n=64 v=81
30032 On ch=1 n=76 v=81
30033 On ch=1 n=55 v=59
30044 On ch=1 n=52 v=0
30046 On ch=1 n=64 v=0
30050 On ch=1 n=59 v=54
30056 On ch=1 n=76 v=0
30060 On ch=1 n=55 v=0
30072 On ch=1 n=59 v=0
30082 On ch=1 n=75 v=81
30084 On ch=1 n=47 v=77
30084 On ch=1 n=63 v=73
30093 On ch=1 n=63 v=0
30105 On ch=1 n=75 v=0
30108 On ch=1 n=52 v=69
30110 On ch=1 n=47 v=0
30134 On ch=1 n=64 v=91
30136 On ch=1 n=55 v=66
30136 On ch=1 n=76 v=81
30146 On ch=1 n=52 v=0
30148 On ch=1 n=64 v=0
30151 On ch=1 n=76 v=0
30157 On ch=1 n=59 v=50
30162 On ch=1 n=55 v=0
30172 On ch=1 n=59 v=0
30185 On ch=1 n=75 v=81
30186 On ch=1 n=47 v=77
30188 On ch=1 n=63 v=69
30196 On ch=1 n=63 v=0
30206 On ch=1 n=75 v=0
30213 On ch=1 n=52 v=73
30216 On ch=1 n=47 v=0
30237 On ch=1 n=64 v=91
30238 On ch=1 n=76 v=91
30238 On ch=1 n=55 v=73
30248 On ch=1 n=64 v=0
30251 On ch=1 n=52 v=0
30252 On ch=1 n=76 v=0
30261 On ch=1 n=59 v=59
30272 On ch=1 n=55 v=0
30280 On ch=1 n=59 v=0
30288 On ch=1 n=66 v=73
30294 On ch=1 n=47 v=81
30301 On ch=1 n=66 v=0
30318 On ch=1 n=52 v=77
30324 On ch=1 n=47 v=0
30336 On ch=1 n=64 v=86
30336 On ch=1 n=76 v=86
30344 On ch=1 n=55 v=66
30351 On ch=1 n=64 v=0
30352 On ch=1 n=76 v=0
30356 On ch=1 n=59 v=66
30357 On ch=1 n=52 v=0
30367 On ch=1 n=59 v=0
30370 On ch=1 n=55 v=0
30387 Par ch=1 c=64 v=0
30390 On ch=1 n=64 v=91
30391 On ch=1 n=76 v=91
30391 On ch=1 n=46 v=57
30415 On ch=1 n=52 v=69
30420 Par ch=1 c=64 v=127
30424 On ch=1 n=46 v=0
30447 On ch=1 n=55 v=59
30458 On ch=1 n=52 v=0
30460 On ch=1 n=61 v=54
30476 On ch=1 n=61 v=0
30482 On ch=1 n=55 v=0
30496 On ch=1 n=46 v=66
30518 On ch=1 n=52 v=69
30530 On ch=1 n=46 v=0
30547 On ch=1 n=55 v=77
30566 On ch=1 n=52 v=0
30575 On ch=1 n=61 v=54
30584 On ch=1 n=61 v=0
30596 On ch=1 n=55 v=0
30598 On ch=1 n=64 v=0
30604 On ch=1 n=46 v=66
30615 On ch=1 n=76 v=0
30623 On ch=1 n=52 v=77
30632 On ch=1 n=46 v=0
30650 On ch=1 n=55 v=69
30669 On ch=1 n=52 v=0
30670 On ch=1 n=61 v=59
30687 On ch=1 n=61 v=0
30694 On ch=1 n=55 v=0
30706 On ch=1 n=46 v=73
30712 On ch=1 n=76 v=91
30713 On ch=1 n=88 v=91
30727 On ch=1 n=52 v=73
30730 On ch=1 n=76 v=0
30735 On ch=1 n=88 v=0
30736 On ch=1 n=46 v=0
30754 On ch=1 n=55 v=77
30775 On ch=1 n=52 v=0
30776 On ch=1 n=61 v=47
30792 On ch=1 n=61 v=0
30803 On ch=1 n=55 v=0
30809 On ch=1 n=46 v=69
30814 On ch=1 n=76 v=102
30814 On ch=1 n=88 v=91
30832 On ch=1 n=52 v=73
30839 On ch=1 n=46 v=0
30854 On ch=1 n=55 v=77
30875 On ch=1 n=52 v=0
30879 On ch=1 n=61 v=57
30895 On ch=1 n=61 v=0
30910 On ch=1 n=55 v=0
30916 On ch=1 n=46 v=66
30929 On ch=1 n=49 v=35
30933 On ch=1 n=52 v=69
30943 On ch=1 n=46 v=0
30948 On ch=1 n=49 v=0
30956 On ch=1 n=76 v=0
30958 On ch=1 n=88 v=0
30961 On ch=1 n=55 v=69
30979 On ch=1 n=61 v=59
30986 On ch=1 n=52 v=0
30997 On ch=1 n=61 v=0
31007 On ch=1 n=55 v=0
31013 On ch=1 n=46 v=66
31029 On ch=1 n=52 v=73
31041 On ch=1 n=46 v=0
31056 On ch=1 n=55 v=73
31064 On ch=1 n=67 v=86
31066 On ch=1 n=79 v=81
31069 On ch=1 n=61 v=69
31078 On ch=1 n=67 v=0
31084 On ch=1 n=79 v=0
31087 On ch=1 n=52 v=0
31090 On ch=1 n=61 v=0
31091 On ch=1 n=55 v=0
31114 On ch=1 n=46 v=73
31115 On ch=1 n=66 v=81
31116 On ch=1 n=78 v=86
31124 On ch=1 n=52 v=59
31127 On ch=1 n=66 v=0
31134 On ch=1 n=78 v=0
31143 On ch=1 n=46 v=0
31158 On ch=1 n=55 v=66
31166 On ch=1 n=61 v=69
31166 On ch=1 n=64 v=57
31168 On ch=1 n=65 v=59
31168 On ch=1 n=77 v=57
31168 On ch=1 n=76 v=66
31176 On ch=1 n=64 v=0
31177 On ch=1 n=65 v=0
31178 On ch=1 n=77 v=0
31179 On ch=1 n=76 v=0
31182 On ch=1 n=61 v=0
31182 On ch=1 n=52 v=0
31186 On ch=1 n=55 v=0
31214 Par ch=1 c=64 v=0
31218 On ch=1 n=47 v=91
31220 On ch=1 n=75 v=86
31220 On ch=1 n=63 v=81
31234 On ch=1 n=63 v=0
31238 On ch=1 n=75 v=0
31248 Par ch=1 c=64 v=127
31272 On ch=1 n=59 v=66
31275 On ch=1 n=71 v=54
31286 On ch=1 n=71 v=0
31288 On ch=1 n=59 v=0
31323 On ch=1 n=59 v=41
31330 On ch=1 n=63 v=33
31335 On ch=1 n=59 v=0
31340 On ch=1 n=63 v=0
31376 On ch=1 n=59 v=40
31379 On ch=1 n=63 v=37
31379 On ch=1 n=71 v=32
31393 On ch=1 n=71 v=0
31394 On ch=1 n=63 v=0
31395 On ch=1 n=59 v=0
31430 On ch=1 n=52 v=73
31441 Par ch=1 c=64 v=0
31476 Par ch=1 c=64 v=127
31482 On ch=1 n=59 v=52
31485 On ch=1 n=71 v=24
31488 On ch=1 n=67 v=47
31496 On ch=1 n=59 v=0
31498 On ch=1 n=67 v=0
31500 On ch=1 n=71 v=0
31535 On ch=1 n=59 v=40
31536 On ch=1 n=67 v=54
31537 On ch=1 n=71 v=38
31549 On ch=1 n=71 v=0
31549 On ch=1 n=59 v=0
31553 On ch=1 n=67 v=0
31588 On ch=1 n=59 v=41
31592 On ch=1 n=67 v=50
31602 On ch=1 n=59 v=0
31611 On ch=1 n=67 v=0
31642 On ch=1 n=51 v=73
31645 On ch=1 n=52 v=0
31653 Par ch=1 c=64 v=0
31691 Par ch=1 c=64 v=127
31697 On ch=1 n=59 v=45
31697 On ch=1 n=71 v=47
31698 On ch=1 n=66 v=45
31708 On ch=1 n=71 v=0
31708 On ch=1 n=59 v=0
31710 On ch=1 n=66 v=0
31746 On ch=1 n=66 v=45
31747 On ch=1 n=59 v=52
31751 On ch=1 n=71 v=41
31759 On ch=1 n=59 v=0
31762 On ch=1 n=71 v=0
31766 On ch=1 n=66 v=0
31798 On ch=1 n=59 v=54
31798 On ch=1 n=66 v=50
31800 On ch=1 n=71 v=52
31814 On ch=1 n=59 v=0
31816 On ch=1 n=71 v=0
31827 On ch=1 n=66 v=0
31832 On ch=1 n=51 v=0
31852 On ch=1 n=55 v=69
31861 Par ch=1 c=64 v=0
31895 Par ch=1 c=64 v=127
31900 On ch=1 n=71 v=59
31904 On ch=1 n=59 v=45
31904 On ch=1 n=64 v=57
31912 On ch=1 n=64 v=0
31912 On ch=1 n=59 v=0
31915 On ch=1 n=71 v=0
31952 On ch=1 n=59 v=52
31954 On ch=1 n=71 v=45
31954 On ch=1 n=64 v=52
31964 On ch=1 n=64 v=0
31964 On ch=1 n=47 v=0
31966 On ch=1 n=71 v=0
31968 On ch=1 n=59 v=0
31999 On ch=1 n=59 v=69
32002 On ch=1 n=71 v=59
32005 On ch=1 n=64 v=38
32012 On ch=1 n=71 v=0
32014 On ch=1 n=64 v=0
32016 On ch=1 n=59 v=0
32024 On ch=1 n=55 v=0
32043 Par ch=1 c=64 v=0
32050 On ch=1 n=47 v=66
32050 On ch=1 n=54 v=69
32052 On ch=1 n=71 v=77
32070 On ch=1 n=47 v=0
32075 Par ch=1 c=64 v=127
32083 On ch=1 n=71 v=0
32085 On ch=1 n=54 v=0
32104 On ch=1 n=59 v=41
32119 On ch=1 n=59 v=0
32158 On ch=1 n=63 v=54
32160 On ch=1 n=59 v=41
32169 On ch=1 n=59 v=0
32169 On ch=1 n=63 v=0
32201 On ch=1 n=63 v=57
32204 On ch=1 n=59 v=54
32212 On ch=1 n=63 v=0
32213 On ch=1 n=59 v=0
32258 On ch=1 n=76 v=81
32265 Par ch=1 c=64 v=0
32295 Par ch=1 c=64 v=127
32305 On ch=1 n=64 v=59
32306 On ch=1 n=67 v=50
32307 On ch=1 n=59 v=47
32317 On ch=1 n=59 v=0
32320 On ch=1 n=64 v=0
32325 On ch=1 n=67 v=0
32356 On ch=1 n=64 v=57
32357 On ch=1 n=59 v=50
32362 On ch=1 n=67 v=27
32366 On ch=1 n=64 v=0
32367 On ch=1 n=59 v=0
32372 On ch=1 n=67 v=0
32384 On ch=1 n=76 v=0
32403 On ch=1 n=64 v=59
32405 On ch=1 n=67 v=57
32405 On ch=1 n=59 v=57
32416 On ch=1 n=59 v=0
32418 On ch=1 n=64 v=0
32422 On ch=1 n=67 v=0
32457 On ch=1 n=75 v=77
32471 Par ch=1 c=64 v=0
32505 Par ch=1 c=64 v=127
32505 On ch=1 n=63 v=45
32508 On ch=1 n=66 v=54
32512 On ch=1 n=59 v=37
32518 On ch=1 n=66 v=0
32520 On ch=1 n=63 v=0
32521 On ch=1 n=59 v=0
32556 On ch=1 n=59 v=54
32560 On ch=1 n=66 v=40
32561 On ch=1 n=63 v=40
32566 On ch=1 n=59 v=0
32568 On ch=1 n=66 v=0
32569 On ch=1 n=63 v=0
32599 On ch=1 n=75 v=0
32603 On ch=1 n=63 v=40
32607 On ch=1 n=59 v=50
32608 On ch=1 n=66 v=50
32617 On ch=1 n=59 v=0
32625 On ch=1 n=63 v=0
32631 On ch=1 n=66 v=0
32657 On ch=1 n=70 v=59
32659 Par ch=1 c=64 v=0
32695 Par ch=1 c=64 v=127
32707 On ch=1 n=70 v=0
32707 On ch=1 n=61 v=40
32708 On ch=1 n=59 v=57
32708 On ch=1 n=64 v=59
32716 On ch=1 n=59 v=0
32718 On ch=1 n=61 v=0
32719 On ch=1 n=64 v=0
32758 On ch=1 n=59 v=38
32760 On ch=1 n=61 v=45
32760 On ch=1 n=64 v=54
32768 On ch=1 n=59 v=0
32769 On ch=1 n=61 v=0
32770 On ch=1 n=64 v=0
32804 On ch=1 n=61 v=50
32806 On ch=1 n=59 v=59
32808 On ch=1 n=64 v=57
32815 On ch=1 n=61 v=0
32816 On ch=1 n=59 v=0
32820 On ch=1 n=64 v=0
32855 On ch=1 n=47 v=73
32860 Par ch=1 c=64 v=0
32895 Par ch=1 c=64 v=127
32909 On ch=1 n=59 v=41
32909 On ch=1 n=71 v=45
32914 On ch=1 n=63 v=38
32920 On ch=1 n=71 v=0
32922 On ch=1 n=63 v=0
32922 On ch=1 n=59 v=0
32960 On ch=1 n=59 v=41
32963 On ch=1 n=63 v=47
32963 On ch=1 n=71 v=38
32972 On ch=1 n=63 v=0
32973 On ch=1 n=59 v=0
32974 On ch=1 n=71 v=0
33008 On ch=1 n=63 v=47
33010 On ch=1 n=59 v=50
33016 On ch=1 n=71 v=25
33027 On ch=1 n=71 v=0
33029 On ch=1 n=59 v=0
33033 On ch=1 n=63 v=0
33062 On ch=1 n=52 v=77
33065 Par ch=1 c=64 v=0
33103 Par ch=1 c=64 v=127
33107 On ch=1 n=59 v=54
33112 On ch=1 n=71 v=24
33112 On ch=1 n=67 v=54
33123 On ch=1 n=67 v=0
33123 On ch=1 n=71 v=0
33124 On ch=1 n=59 v=0
33160 On ch=1 n=59 v=47
33162 On ch=1 n=67 v=54
33163 On ch=1 n=71 v=33
33173 On ch=1 n=67 v=0
33174 On ch=1 n=59 v=0
33176 On ch=1 n=71 v=0
33212 On ch=1 n=71 v=54
33213 On ch=1 n=67 v=54
33231 On ch=1 n=67 v=0
33235 On ch=1 n=71 v=0
33263 On ch=1 n=51 v=73
33267 On ch=1 n=52 v=0
33271 Par ch=1 c=64 v=0
33308 Par ch=1 c=64 v=127
33313 On ch=1 n=59 v=57
33315 On ch=1 n=66 v=52
33315 On ch=1 n=71 v=41
33325 On ch=1 n=59 v=0
33326 On ch=1 n=71 v=0
33332 On ch=1 n=66 v=0
33364 On ch=1 n=59 v=47
33366 On ch=1 n=66 v=41
33372 On ch=1 n=71 v=35
33379 On ch=1 n=59 v=0
33381 On ch=1 n=71 v=0
33383 On ch=1 n=66 v=0
33414 On ch=1 n=66 v=59
33418 On ch=1 n=59 v=59
33420 On ch=1 n=71 v=38
33429 On ch=1 n=59 v=0
33432 On ch=1 n=71 v=0
33438 On ch=1 n=66 v=0
33461 On ch=1 n=51 v=0
33463 On ch=1 n=55 v=73
33471 Par ch=1 c=64 v=0
33509 Par ch=1 c=64 v=127
33516 On ch=1 n=59 v=52
33517 On ch=1 n=71 v=47
33517 On ch=1 n=64 v=57
33526 On ch=1 n=59 v=0
33527 On ch=1 n=64 v=0
33528 On ch=1 n=71 v=0
33564 On ch=1 n=59 v=52
33565 On ch=1 n=71 v=47
33565 On ch=1 n=64 v=57
33576 On ch=1 n=71 v=0
33576 On ch=1 n=59 v=0
33579 On ch=1 n=64 v=0
33582 On ch=1 n=47 v=0
33609 On ch=1 n=59 v=66
33615 On ch=1 n=64 v=52
33615 On ch=1 n=71 v=35
33625 On ch=1 n=64 v=0
33626 On ch=1 n=59 v=0
33627 On ch=1 n=71 v=0
33637 On ch=1 n=55 v=0
33655 Par ch=1 c=64 v=0
33663 On ch=1 n=54 v=66
33663 On ch=1 n=47 v=54
33664 On ch=1 n=71 v=73
33675 On ch=1 n=47 v=0
33688 Par ch=1 c=64 v=127
33695 On ch=1 n=54 v=0
33696 On ch=1 n=71 v=0
33713 On ch=1 n=59 v=50
33717 On ch=1 n=63 v=52
33725 On ch=1 n=59 v=0
33728 On ch=1 n=63 v=0
33767 On ch=1 n=63 v=52
33768 On ch=1 n=59 v=41
33777 On ch=1 n=59 v=0
33777 On ch=1 n=63 v=0
33812 On ch=1 n=63 v=57
33814 On ch=1 n=59 v=52
33821 On ch=1 n=63 v=0
33823 On ch=1 n=59 v=0
33865 On ch=1 n=76 v=77
33873 Par ch=1 c=64 v=0
33905 Par ch=1 c=64 v=127
33910 On ch=1 n=67 v=52
33913 On ch=1 n=59 v=54
33915 On ch=1 n=64 v=23
33925 On ch=1 n=59 v=0
33927 On ch=1 n=64 v=0
33932 On ch=1 n=76 v=0
33933 On ch=1 n=67 v=0
33963 On ch=1 n=59 v=52
33965 On ch=1 n=64 v=47
33965 On ch=1 n=67 v=52
33971 On ch=1 n=59 v=0
33976 On ch=1 n=67 v=0
33976 On ch=1 n=64 v=0
34010 On ch=1 n=59 v=57
34012 On ch=1 n=64 v=54
34014 On ch=1 n=67 v=57
34020 On ch=1 n=59 v=0
34021 On ch=1 n=64 v=0
34022 On ch=1 n=67 v=0
34062 On ch=1 n=75 v=69
34076 Par ch=1 c=64 v=0
34108 On ch=1 n=63 v=50
34111 Par ch=1 c=64 v=127
34113 On ch=1 n=66 v=50
34114 On ch=1 n=59 v=45
34121 On ch=1 n=66 v=0
34123 On ch=1 n=59 v=0
34124 On ch=1 n=63 v=0
34160 On ch=1 n=63 v=41
34163 On ch=1 n=59 v=47
34164 On ch=1 n=66 v=41
34171 On ch=1 n=59 v=0
34172 On ch=1 n=66 v=0
34174 On ch=1 n=63 v=0
34191 On ch=1 n=75 v=0
34210 On ch=1 n=59 v=57
34210 On ch=1 n=63 v=54
34212 On ch=1 n=66 v=52
34218 On ch=1 n=59 v=0
34231 On ch=1 n=63 v=0
34241 On ch=1 n=66 v=0
34261 On ch=1 n=70 v=69
34262 Par ch=1 c=64 v=0
34297 Par ch=1 c=64 v=127
34309 On ch=1 n=59 v=52
34312 On ch=1 n=61 v=45
34316 On ch=1 n=64 v=54
34319 On ch=1 n=59 v=0
34322 On ch=1 n=70 v=0
34326 On ch=1 n=64 v=0
34328 On ch=1 n=61 v=0
34362 On ch=1 n=61 v=47
34362 On ch=1 n=59 v=50
34364 On ch=1 n=64 v=54
34371 On ch=1 n=59 v=0
34373 On ch=1 n=64 v=0
34379 On ch=1 n=61 v=0
34410 On ch=1 n=59 v=57
34410 On ch=1 n=61 v=47
34416 On ch=1 n=64 v=57
34420 On ch=1 n=61 v=0
34420 On ch=1 n=59 v=0
34426 On ch=1 n=64 v=0
34464 On ch=1 n=71 v=73
34485 Par ch=1 c=64 v=0
34511 On ch=1 n=47 v=69
34515 On ch=1 n=63 v=57
34517 On ch=1 n=59 v=47
34520 On ch=1 n=47 v=0
34522 Par ch=1 c=64 v=127
34527 On ch=1 n=59 v=0
34533 On ch=1 n=63 v=0
34562 On ch=1 n=47 v=69
34565 On ch=1 n=63 v=47
34568 On ch=1 n=59 v=52
34571 On ch=1 n=47 v=0
34578 On ch=1 n=59 v=0
34581 On ch=1 n=63 v=0
34609 Par ch=1 c=64 v=0
34610 On ch=1 n=47 v=69
34613 On ch=1 n=63 v=54
34614 On ch=1 n=59 v=54
34634 On ch=1 n=59 v=0
34639 Par ch=1 c=64 v=127
34646 On ch=1 n=63 v=0
34656 On ch=1 n=47 v=0
34661 On ch=1 n=71 v=0
34663 On ch=1 n=69 v=81
34702 On ch=1 n=69 v=0
34710 On ch=1 n=47 v=66
34711 On ch=1 n=64 v=73
34714 On ch=1 n=61 v=52
34719 On ch=1 n=47 v=0
34723 On ch=1 n=61 v=0
34731 On ch=1 n=64 v=0
34762 On ch=1 n=61 v=54
34763 On ch=1 n=64 v=69
34764 On ch=1 n=47 v=59
34773 On ch=1 n=47 v=0
34775 On ch=1 n=64 v=0
34777 On ch=1 n=61 v=0
34810 On ch=1 n=47 v=73
34812 On ch=1 n=61 v=52
34813 On ch=1 n=64 v=81
34825 On ch=1 n=47 v=0
34828 On ch=1 n=61 v=0
34836 On ch=1 n=64 v=0
34864 On ch=1 n=68 v=81
34872 Par ch=1 c=64 v=0
34909 Par ch=1 c=64 v=127
34913 On ch=1 n=59 v=66
34914 On ch=1 n=64 v=66
34914 On ch=1 n=47 v=73
34916 On ch=1 n=35 v=66
34927 On ch=1 n=47 v=0
34928 On ch=1 n=35 v=0
34930 On ch=1 n=59 v=0
34932 On ch=1 n=64 v=0
34968 On ch=1 n=47 v=66
34969 On ch=1 n=68 v=0
34969 On ch=1 n=35 v=66
34971 On ch=1 n=64 v=73
34971 On ch=1 n=59 v=69
34977 On ch=1 n=47 v=0
34978 On ch=1 n=64 v=0
34979 On ch=1 n=59 v=0
34984 On ch=1 n=35 v=0
35018 On ch=1 n=47 v=69
35019 On ch=1 n=35 v=66
35019 On ch=1 n=59 v=69
35022 On ch=1 n=64 v=69
35028 On ch=1 n=47 v=0
35032 On ch=1 n=35 v=0
35038 On ch=1 n=59 v=0
35045 On ch=1 n=64 v=0
35075 On ch=1 n=66 v=77
35084 Par ch=1 c=64 v=0
35123 Par ch=1 c=64 v=127
35129 On ch=1 n=35 v=73
35129 On ch=1 n=47 v=73
35131 On ch=1 n=63 v=69
35132 On ch=1 n=66 v=0
35135 On ch=1 n=57 v=69
35145 On ch=1 n=47 v=0
35146 On ch=1 n=57 v=0
35147 On ch=1 n=35 v=0
35151 On ch=1 n=63 v=0
35190 On ch=1 n=47 v=73
35190 On ch=1 n=35 v=69
35192 On ch=1 n=63 v=73
35194 On ch=1 n=57 v=73
35199 On ch=1 n=47 v=0
35202 On ch=1 n=57 v=0
35205 On ch=1 n=35 v=0
35207 On ch=1 n=63 v=0
35246 On ch=1 n=35 v=69
35247 On ch=1 n=47 v=77
35247 On ch=1 n=63 v=73
35249 On ch=1 n=57 v=73
35257 On ch=1 n=35 v=0
35260 On ch=1 n=47 v=0
35260 On ch=1 n=57 v=0
35262 On ch=1 n=63 v=0
35310 On ch=1 n=59 v=81
35311 On ch=1 n=71 v=81
35312 On ch=1 n=68 v=77
35313 On ch=1 n=64 v=86
35313 Par ch=1 c=64 v=0
35332 On ch=1 n=40 v=81
35353 Par ch=1 c=64 v=127
35358 On ch=1 n=42 v=73
35371 On ch=1 n=40 v=0
35372 On ch=1 n=59 v=0
35375 On ch=1 n=64 v=0
35381 On ch=1 n=44 v=69
35388 On ch=1 n=68 v=0
35391 On ch=1 n=42 v=0
35394 On ch=1 n=71 v=0
35410 On ch=1 n=45 v=81
35412 On ch=1 n=44 v=0
35430 On ch=1 n=45 v=0
35432 On ch=1 n=47 v=73
35457 On ch=1 n=49 v=77
35460 On ch=1 n=47 v=0
35481 On ch=1 n=51 v=54
35486 On ch=1 n=49 v=0
35511 On ch=1 n=51 v=0
35516 On ch=1 n=52 v=81
35518 Par ch=1 c=64 v=0
35519 On ch=1 n=76 v=86
35519 On ch=1 n=64 v=91
35519 On ch=1 n=68 v=81
35521 On ch=1 n=71 v=81
35548 Par ch=1 c=64 v=127
35549 On ch=1 n=54 v=69
35550 On ch=1 n=52 v=0
35572 On ch=1 n=56 v=69
35578 On ch=1 n=54 v=0
35581 On ch=1 n=64 v=0
35599 On ch=1 n=57 v=69
35603 On ch=1 n=56 v=0
35608 On ch=1 n=71 v=0
35610 On ch=1 n=68 v=0
35619 On ch=1 n=57 v=0
35624 On ch=1 n=59 v=66
35647 On ch=1 n=76 v=0
35649 On ch=1 n=61 v=69
35650 On ch=1 n=59 v=0
35669 On ch=1 n=63 v=66
35672 On ch=1 n=61 v=0
35693 On ch=1 n=64 v=81
35697 On ch=1 n=63 v=0
35703 On ch=1 n=64 v=0
35726 On ch=1 n=73 v=86
35726 On ch=1 n=69 v=86
35734 Par ch=1 c=64 v=0
35754 On ch=1 n=40 v=73
35767 Par ch=1 c=64 v=127
35778 On ch=1 n=42 v=69
35793 On ch=1 n=40 v=0
35797 On ch=1 n=44 v=73
35807 On ch=1 n=69 v=0
35808 On ch=1 n=42 v=0
35828 On ch=1 n=45 v=77
35831 On ch=1 n=44 v=0
35837 On ch=1 n=45 v=0
35847 On ch=1 n=47 v=73
35870 On ch=1 n=49 v=77
35874 On ch=1 n=47 v=0
35885 On ch=1 n=73 v=0
35892 On ch=1 n=51 v=59
35898 On ch=1 n=49 v=0
35924 On ch=1 n=51 v=0
35928 On ch=1 n=52 v=81
35933 On ch=1 n=73 v=86
35934 Par ch=1 c=64 v=0
35934 On ch=1 n=78 v=86
35934 On ch=1 n=69 v=91
35960 On ch=1 n=54 v=69
35963 On ch=1 n=52 v=0
35966 Par ch=1 c=64 v=127
35980 On ch=1 n=56 v=69
35990 On ch=1 n=54 v=0
36005 On ch=1 n=57 v=77
36010 On ch=1 n=56 v=0
36025 On ch=1 n=57 v=0
36034 On ch=1 n=59 v=69
36035 On ch=1 n=69 v=0
36055 On ch=1 n=61 v=69
36058 On ch=1 n=59 v=0
36070 On ch=1 n=73 v=0
36077 On ch=1 n=63 v=54
36080 On ch=1 n=61 v=0
36096 On ch=1 n=78 v=0
36105 On ch=1 n=64 v=81
36107 On ch=1 n=63 v=0
36121 On ch=1 n=64 v=0
36140 On ch=1 n=71 v=81
36140 On ch=1 n=75 v=77
36140 On ch=1 n=69 v=77
36144 Par ch=1 c=64 v=0
36160 On ch=1 n=52 v=73
36170 On ch=1 n=69 v=0
36172 On ch=1 n=71 v=0
36179 Par ch=1 c=64 v=127
36186 On ch=1 n=54 v=73
36187 On ch=1 n=75 v=0
36198 On ch=1 n=52 v=0
36207 On ch=1 n=56 v=66
36216 On ch=1 n=54 v=0
36234 On ch=1 n=57 v=73
36237 On ch=1 n=56 v=0
36254 On ch=1 n=57 v=0
36259 On ch=1 n=59 v=66
36282 On ch=1 n=61 v=73
36286 On ch=1 n=59 v=0
36301 On ch=1 n=63 v=69
36308 On ch=1 n=61 v=0
36332 On ch=1 n=63 v=0
36336 On ch=1 n=64 v=81
36338 On ch=1 n=78 v=77
36338 Par ch=1 c=64 v=0
36339 On ch=1 n=81 v=86
36340 On ch=1 n=83 v=81
36364 On ch=1 n=64 v=0
36364 On ch=1 n=66 v=69
36372 Par ch=1 c=64 v=127
36373 On ch=1 n=78 v=0
36376 On ch=1 n=83 v=0
36378 On ch=1 n=81 v=0
36386 On ch=1 n=68 v=66
36395 On ch=1 n=66 v=0
36406 On ch=1 n=69 v=66
36414 On ch=1 n=68 v=0
36426 On ch=1 n=69 v=0
36431 On ch=1 n=71 v=69
36440 On ch=1 n=78 v=81
36442 On ch=1 n=81 v=86
36443 On ch=1 n=83 v=77
36453 On ch=1 n=78 v=0
36454 On ch=1 n=71 v=0
36458 On ch=1 n=81 v=0
36458 On ch=1 n=73 v=77
36461 On ch=1 n=83 v=0
36484 On ch=1 n=73 v=0
36490 On ch=1 n=74 v=86
36507 On ch=1 n=74 v=0
36510 On ch=1 n=75 v=77
36536 On ch=1 n=75 v=0
36540 Par ch=1 c=64 v=0
36541 On ch=1 n=76 v=91
36542 On ch=1 n=80 v=81
36543 On ch=1 n=83 v=91
36693 On ch=1 n=83 v=0
36701 On ch=1 n=85 v=69
36712 On ch=1 n=85 v=0
36726 On ch=1 n=87 v=57
36738 On ch=1 n=87 v=0
36754 On ch=1 n=88 v=77
36884 On ch=1 n=88 v=0
36889 On ch=1 n=76 v=0
36894 On ch=1 n=80 v=0
36974 On ch=1 n=80 v=66
36991 On ch=1 n=80 v=0
36997 On ch=1 n=76 v=66
37015 On ch=1 n=76 v=0
37022 On ch=1 n=81 v=69
37042 On ch=1 n=81 v=0
37046 On ch=1 n=78 v=47
37066 On ch=1 n=78 v=0
37068 On ch=1 n=83 v=57
37094 On ch=1 n=83 v=0
37096 On ch=1 n=80 v=57
37113 On ch=1 n=80 v=0
37116 On ch=1 n=85 v=54
37140 On ch=1 n=81 v=57
37144 On ch=1 n=85 v=0
37157 On ch=1 n=81 v=0
37161 On ch=1 n=68 v=59
37165 On ch=1 n=83 v=69
37186 On ch=1 n=68 v=0
37188 On ch=1 n=64 v=69
37195 On ch=1 n=83 v=0
37214 On ch=1 n=69 v=69
37226 On ch=1 n=64 v=0
37236 On ch=1 n=66 v=59
37244 On ch=1 n=69 v=0
37265 On ch=1 n=66 v=0
37266 On ch=1 n=71 v=66
37282 On ch=1 n=71 v=0
37287 On ch=1 n=68 v=57
37314 On ch=1 n=73 v=69
37318 On ch=1 n=68 v=0
37331 On ch=1 n=69 v=73
37333 On ch=1 n=73 v=0
37358 On ch=1 n=56 v=66
37365 On ch=1 n=71 v=66
37370 On ch=1 n=69 v=0
37385 On ch=1 n=52 v=77
37386 On ch=1 n=56 v=0
37403 On ch=1 n=52 v=0
37408 On ch=1 n=71 v=0
37409 On ch=1 n=57 v=69
37434 On ch=1 n=54 v=66
37436 On ch=1 n=57 v=0
37459 On ch=1 n=59 v=66
37460 On ch=1 n=54 v=0
37484 On ch=1 n=56 v=73
37486 On ch=1 n=59 v=0
37506 On ch=1 n=61 v=69
37508 On ch=1 n=56 v=0
37536 On ch=1 n=57 v=66
37542 On ch=1 n=61 v=0
37548 On ch=1 n=44 v=69
37556 On ch=1 n=57 v=0
37562 On ch=1 n=59 v=73
37582 On ch=1 n=44 v=0
37582 On ch=1 n=40 v=73
37602 On ch=1 n=45 v=81
37610 On ch=1 n=40 v=0
37628 On ch=1 n=59 v=0
37628 On ch=1 n=42 v=69
37635 On ch=1 n=45 v=0
37652 On ch=1 n=47 v=77
37656 On ch=1 n=42 v=0
37673 On ch=1 n=47 v=0
37676 On ch=1 n=44 v=54
37702 On ch=1 n=49 v=66
37705 On ch=1 n=44 v=0
37722 On ch=1 n=46 v=73
37728 On ch=1 n=49 v=0
37754 On ch=1 n=47 v=91
37758 On ch=1 n=46 v=0
37806 Par ch=1 c=64 v=127
37809 On ch=1 n=59 v=69
37863 On ch=1 n=68 v=73
37908 On ch=1 n=68 v=0
37914 On ch=1 n=56 v=54
37916 On ch=1 n=64 v=66
37926 Par ch=1 c=64 v=0
37933 On ch=1 n=59 v=0
37963 On ch=1 n=64 v=0
37971 On ch=1 n=51 v=50
37972 On ch=1 n=56 v=0
37974 On ch=1 n=69 v=45
38022 On ch=1 n=54 v=50
38024 On ch=1 n=66 v=54
38028 On ch=1 n=69 v=0
38040 Par ch=1 c=64 v=127
38067 On ch=1 n=47 v=0
38067 On ch=1 n=51 v=0
38075 On ch=1 n=66 v=0
38076 On ch=1 n=54 v=0
38077 On ch=1 n=57 v=52
38081 On ch=1 n=63 v=73
38106 On ch=1 n=57 v=0
38107 On ch=1 n=63 v=0
38127 On ch=1 n=71 v=73
38144 On ch=1 n=71 v=0
38164 On ch=1 n=47 v=69
38174 On ch=1 n=52 v=77
38184 Par ch=1 c=64 v=0
38186 On ch=1 n=47 v=0
38195 On ch=1 n=56 v=77
38203 On ch=1 n=73 v=69
38207 On ch=1 n=59 v=59
38208 On ch=1 n=52 v=0
38218 On ch=1 n=73 v=0
38218 On ch=1 n=71 v=69
38222 On ch=1 n=56 v=0
38224 Par ch=1 c=64 v=127
38237 On ch=1 n=71 v=0
38239 On ch=1 n=70 v=66
38252 On ch=1 n=70 v=0
38258 On ch=1 n=71 v=66
38292 On ch=1 n=80 v=77
38308 On ch=1 n=71 v=0
38318 On ch=1 n=80 v=0
38320 On ch=1 n=59 v=0
38343 On ch=1 n=76 v=86
38346 On ch=1 n=68 v=59
38346 On ch=1 n=59 v=6
38376 On ch=1 n=76 v=0
38378 On ch=1 n=68 v=0
38395 On ch=1 n=63 v=69
38401 On ch=1 n=81 v=73
38412 Par ch=1 c=64 v=0
38451 On ch=1 n=66 v=54
38452 On ch=1 n=78 v=73
38456 Par ch=1 c=64 v=127
38457 On ch=1 n=81 v=0
38503 On ch=1 n=66 v=0
38504 On ch=1 n=78 v=0
38504 On ch=1 n=69 v=66
38508 On ch=1 n=75 v=81
38522 On ch=1 n=63 v=0
38525 On ch=1 n=69 v=0
38542 On ch=1 n=59 v=0
38548 On ch=1 n=75 v=0
38556 On ch=1 n=83 v=91
38574 On ch=1 n=83 v=0
38604 Par ch=1 c=64 v=0
38605 On ch=1 n=64 v=73
38608 On ch=1 n=68 v=59
38616 On ch=1 n=71 v=91
38617 On ch=1 n=83 v=91
38642 Par ch=1 c=64 v=127
38646 On ch=1 n=64 v=0
38714 Par ch=1 c=64 v=0
38724 On ch=1 n=56 v=54
38754 Par ch=1 c=64 v=127
38774 On ch=1 n=71 v=0
38777 On ch=1 n=81 v=81
38782 On ch=1 n=56 v=0
38784 On ch=1 n=83 v=0
38800 On ch=1 n=81 v=0
38801 On ch=1 n=80 v=66
38822 Par ch=1 c=64 v=0
38826 On ch=1 n=57 v=69
38827 On ch=1 n=78 v=73
38829 On ch=1 n=73 v=73
38830 On ch=1 n=80 v=0
38853 On ch=1 n=78 v=0
38858 Par ch=1 c=64 v=127
38882 On ch=1 n=76 v=77
38884 On ch=1 n=73 v=0
38920 On ch=1 n=76 v=0
38926 On ch=1 n=57 v=0
38932 On ch=1 n=75 v=81
38934 On ch=1 n=68 v=0
38934 On ch=1 n=58 v=66
38958 On ch=1 n=75 v=0
38984 On ch=1 n=73 v=77
38996 On ch=1 n=73 v=0
39034 On ch=1 n=59 v=59
39034 Par ch=1 c=64 v=0
39039 On ch=1 n=68 v=69
39040 On ch=1 n=58 v=0
39040 On ch=1 n=71 v=77
39042 On ch=1 n=64 v=69
39076 Par ch=1 c=64 v=127
39092 On ch=1 n=68 v=0
39129 On ch=1 n=59 v=0
39149 On ch=1 n=67 v=77
39165 On ch=1 n=64 v=0
39169 On ch=1 n=71 v=0
39244 Par ch=1 c=64 v=0
39251 On ch=1 n=47 v=45
39252 On ch=1 n=58 v=35
39252 On ch=1 n=66 v=52
39284 Par ch=1 c=64 v=127
39298 On ch=1 n=58 v=0
39322 On ch=1 n=67 v=0
39342 On ch=1 n=66 v=0
39353 On ch=1 n=57 v=54
39356 On ch=1 n=63 v=66
39381 On ch=1 n=63 v=0
39386 On ch=1 n=57 v=0
39412 On ch=1 n=47 v=0
39455 On ch=1 n=52 v=59
39456 Par ch=1 c=64 v=0
39457 On ch=1 n=56 v=52
39459 On ch=1 n=71 v=73
39460 On ch=1 n=64 v=77
39463 On ch=1 n=59 v=59
39493 Par ch=1 c=64 v=127
39500 On ch=1 n=52 v=0
39566 On ch=1 n=44 v=59
39568 Par ch=1 c=64 v=0
39594 On ch=1 n=59 v=0
39602 Par ch=1 c=64 v=127
39603 On ch=1 n=64 v=0
39613 On ch=1 n=71 v=0
39615 On ch=1 n=69 v=73
39631 On ch=1 n=44 v=0
39635 On ch=1 n=69 v=0
39637 On ch=1 n=68 v=54
39656 Par ch=1 c=64 v=0
39660 On ch=1 n=45 v=73
39660 On ch=1 n=66 v=73
39662 On ch=1 n=61 v=59
39664 On ch=1 n=68 v=0
39688 On ch=1 n=66 v=0
39690 Par ch=1 c=64 v=127
39714 On ch=1 n=64 v=73
39715 On ch=1 n=61 v=0
39752 On ch=1 n=45 v=0
39754 On ch=1 n=56 v=0
39754 On ch=1 n=64 v=0
39759 On ch=1 n=46 v=69
39761 On ch=1 n=63 v=73
39784 On ch=1 n=63 v=0
39807 On ch=1 n=61 v=69
39818 On ch=1 n=61 v=0
39851 On ch=1 n=46 v=0
39856 On ch=1 n=47 v=57
39862 Par ch=1 c=64 v=0
39862 On ch=1 n=56 v=57
39863 On ch=1 n=59 v=57
39864 On ch=1 n=52 v=59
39904 Par ch=1 c=64 v=127
39916 On ch=1 n=56 v=0
39971 On ch=1 n=55 v=66
39990 On ch=1 n=52 v=0
40064 On ch=1 n=35 v=52
40066 Par ch=1 c=64 v=0
40077 On ch=1 n=54 v=47
40117 Par ch=1 c=64 v=127
40143 On ch=1 n=55 v=0
40168 On ch=1 n=59 v=0
40171 On ch=1 n=54 v=0
40172 On ch=1 n=51 v=59
40174 On ch=1 n=35 v=0
40192 On ch=1 n=51 v=0
40195 On ch=1 n=47 v=0
40264 On ch=1 n=52 v=59
40264 On ch=1 n=55 v=59
40276 Par ch=1 c=64 v=0
40293 On ch=1 n=36 v=66
40313 On ch=1 n=38 v=69
40322 On ch=1 n=36 v=0
40337 On ch=1 n=40 v=66
40344 On ch=1 n=38 v=0
40362 On ch=1 n=52 v=0
40362 On ch=1 n=41 v=77
40366 On ch=1 n=40 v=0
40380 On ch=1 n=55 v=0
40384 On ch=1 n=41 v=0
40391 On ch=1 n=43 v=59
40415 On ch=1 n=45 v=73
40416 On ch=1 n=43 v=0
40438 On ch=1 n=47 v=66
40440 On ch=1 n=45 v=0
40463 On ch=1 n=60 v=73
40464 On ch=1 n=47 v=0
40464 On ch=1 n=55 v=73
40465 On ch=1 n=52 v=66
40465 On ch=1 n=48 v=81
40474 On ch=1 n=48 v=0
40519 On ch=1 n=48 v=69
40528 On ch=1 n=48 v=0
40568 On ch=1 n=48 v=73
40576 Par ch=1 c=64 v=127
40578 On ch=1 n=48 v=0
40617 On ch=1 n=48 v=73
40618 On ch=1 n=55 v=0
40621 On ch=1 n=52 v=0
40631 On ch=1 n=48 v=0
40642 On ch=1 n=60 v=0
40664 On ch=1 n=50 v=66
40668 On ch=1 n=53 v=69
40669 On ch=1 n=59 v=73
40671 Par ch=1 c=64 v=0
40695 On ch=1 n=50 v=0
40695 On ch=1 n=36 v=77
40721 On ch=1 n=38 v=73
40723 Par ch=1 c=64 v=127
40730 On ch=1 n=53 v=0
40733 On ch=1 n=36 v=0
40745 On ch=1 n=40 v=69
40751 On ch=1 n=59 v=0
40752 On ch=1 n=38 v=0
40767 On ch=1 n=41 v=81
40771 On ch=1 n=40 v=0
40790 On ch=1 n=41 v=0
40797 On ch=1 n=43 v=69
40820 On ch=1 n=43 v=0
40820 On ch=1 n=45 v=77
40843 On ch=1 n=45 v=0
40844 On ch=1 n=47 v=59
40864 Par ch=1 c=64 v=0
40867 On ch=1 n=47 v=0
40867 On ch=1 n=48 v=86
40869 On ch=1 n=55 v=69
40869 On ch=1 n=65 v=69
40869 On ch=1 n=62 v=73
40870 On ch=1 n=59 v=69
40877 On ch=1 n=48 v=0
40920 On ch=1 n=48 v=73
40930 On ch=1 n=48 v=0
40970 On ch=1 n=48 v=69
40979 On ch=1 n=48 v=0
40982 Par ch=1 c=64 v=127
40995 On ch=1 n=55 v=0
41006 On ch=1 n=59 v=0
41011 On ch=1 n=62 v=0
41017 On ch=1 n=48 v=73
41018 On ch=1 n=65 v=0
41028 On ch=1 n=48 v=0
41064 Par ch=1 c=64 v=0
41067 On ch=1 n=48 v=81
41070 On ch=1 n=55 v=69
41096 On ch=1 n=64 v=81
41106 Par ch=1 c=64 v=127
41112 On ch=1 n=64 v=0
41118 On ch=1 n=65 v=73
41133 On ch=1 n=55 v=0
41137 On ch=1 n=65 v=0
41142 On ch=1 n=67 v=69
41151 On ch=1 n=67 v=0
41163 On ch=1 n=69 v=86
41180 On ch=1 n=69 v=0
41186 On ch=1 n=71 v=73
41204 On ch=1 n=71 v=0
41206 On ch=1 n=72 v=77
41222 On ch=1 n=72 v=0
41230 On ch=1 n=74 v=69
41255 Par ch=1 c=64 v=0
41258 On ch=1 n=60 v=77
41259 On ch=1 n=74 v=0
41260 On ch=1 n=76 v=77
41279 On ch=1 n=76 v=0
41285 Par ch=1 c=64 v=127
41314 On ch=1 n=77 v=81
41330 On ch=1 n=77 v=0
41330 On ch=1 n=60 v=0
41332 On ch=1 n=79 v=77
41353 On ch=1 n=79 v=0
41355 On ch=1 n=81 v=77
41369 On ch=1 n=81 v=0
41380 On ch=1 n=83 v=81
41397 On ch=1 n=83 v=0
41402 On ch=1 n=84 v=81
41420 On ch=1 n=84 v=0
41424 On ch=1 n=86 v=73
41442 On ch=1 n=86 v=0
41453 On ch=1 n=88 v=91
41454 Par ch=1 c=64 v=0
41456 On ch=1 n=58 v=73
41488 On ch=1 n=88 v=0
41490 Par ch=1 c=64 v=127
41549 On ch=1 n=75 v=81
41569 On ch=1 n=75 v=0
41574 On ch=1 n=76 v=77
41577 On ch=1 n=48 v=0
41598 On ch=1 n=76 v=0
41599 On ch=1 n=75 v=81
41602 On ch=1 n=58 v=0
41615 On ch=1 n=75 v=0
41615 On ch=1 n=76 v=57
41624 On ch=1 n=76 v=0
41634 Par ch=1 c=64 v=0
41646 On ch=1 n=48 v=69
41657 On ch=1 n=63 v=77
41671 Par ch=1 c=64 v=127
41681 On ch=1 n=63 v=0
41681 On ch=1 n=64 v=91
41707 On ch=1 n=64 v=0
41710 On ch=1 n=63 v=73
41727 On ch=1 n=63 v=0
41728 On ch=1 n=64 v=69
41752 On ch=1 n=64 v=0
41754 On ch=1 n=63 v=69
41774 On ch=1 n=63 v=0
41774 On ch=1 n=64 v=69
41794 On ch=1 n=64 v=0
41798 On ch=1 n=67 v=77
41800 On ch=1 n=48 v=0
41816 On ch=1 n=64 v=59
41827 On ch=1 n=67 v=0
41845 Par ch=1 c=64 v=0
41846 On ch=1 n=64 v=0
41846 On ch=1 n=63 v=86
41848 On ch=1 n=47 v=73
41852 On ch=1 n=59 v=50
41877 On ch=1 n=59 v=0
41877 On ch=1 n=47 v=0
41880 Par ch=1 c=64 v=127
41901 On ch=1 n=47 v=59
41920 On ch=1 n=47 v=0
41938 On ch=1 n=63 v=0
41947 On ch=1 n=59 v=81
41950 On ch=1 n=47 v=77
41966 On ch=1 n=47 v=0
41966 On ch=1 n=59 v=0
41998 On ch=1 n=47 v=77
42017 On ch=1 n=47 v=0
42049 Par ch=1 c=64 v=0
42049 On ch=1 n=47 v=73
42050 On ch=1 n=52 v=69
42054 On ch=1 n=58 v=81
42054 On ch=1 n=67 v=91
42055 On ch=1 n=61 v=81
42076 On ch=1 n=47 v=0
42085 Par ch=1 c=64 v=127
42106 On ch=1 n=47 v=59
42115 On ch=1 n=47 v=0
42158 On ch=1 n=47 v=57
42166 On ch=1 n=47 v=0
42197 On ch=1 n=58 v=0
42204 On ch=1 n=47 v=69
42214 On ch=1 n=47 v=0
42230 On ch=1 n=67 v=0
42242 On ch=1 n=61 v=0
42251 Par ch=1 c=64 v=0
42254 On ch=1 n=47 v=69
42255 On ch=1 n=51 v=66
42255 On ch=1 n=66 v=77
42256 On ch=1 n=52 v=0
42257 On ch=1 n=59 v=73
42275 On ch=1 n=47 v=0
42289 Par ch=1 c=64 v=127
42309 On ch=1 n=47 v=52
42322 On ch=1 n=47 v=0
42348 On ch=1 n=59 v=0
42359 On ch=1 n=63 v=69
42360 On ch=1 n=66 v=0
42362 On ch=1 n=47 v=52
42370 On ch=1 n=47 v=0
42409 On ch=1 n=47 v=66
42419 On ch=1 n=47 v=0
42427 On ch=1 n=51 v=0
42452 On ch=1 n=63 v=0
42453 Par ch=1 c=64 v=0
42457 On ch=1 n=47 v=57
42460 On ch=1 n=70 v=59
42460 On ch=1 n=55 v=54
42461 On ch=1 n=61 v=59
42480 On ch=1 n=47 v=0
42489 Par ch=1 c=64 v=127
42513 On ch=1 n=47 v=52
42522 On ch=1 n=47 v=0
42550 On ch=1 n=61 v=0
42563 On ch=1 n=47 v=52
42571 On ch=1 n=47 v=0
42598 On ch=1 n=70 v=0
42607 On ch=1 n=47 v=57
42608 On ch=1 n=63 v=73
42616 On ch=1 n=47 v=0
42628 On ch=1 n=63 v=0
42630 On ch=1 n=64 v=77
42647 Par ch=1 c=64 v=0
42652 On ch=1 n=64 v=0
42653 On ch=1 n=55 v=0
42656 On ch=1 n=47 v=73
42659 On ch=1 n=63 v=66
42659 On ch=1 n=54 v=77
42662 On ch=1 n=71 v=86
42674 On ch=1 n=47 v=0
42685 Par ch=1 c=64 v=127
42706 On ch=1 n=47 v=59
42707 On ch=1 n=71 v=0
42718 On ch=1 n=47 v=0
42746 On ch=1 n=63 v=0
42758 On ch=1 n=47 v=73
42758 On ch=1 n=59 v=86
42766 On ch=1 n=59 v=0
42775 On ch=1 n=47 v=0
42807 On ch=1 n=47 v=59
42811 On ch=1 n=54 v=0
42816 On ch=1 n=47 v=0
42857 Par ch=1 c=64 v=0
42859 On ch=1 n=70 v=86
42859 On ch=1 n=73 v=91
42860 On ch=1 n=79 v=91
42860 On ch=1 n=64 v=81
42860 On ch=1 n=59 v=77
42884 On ch=1 n=59 v=0
42893 Par ch=1 c=64 v=127
42911 On ch=1 n=59 v=50
42924 On ch=1 n=59 v=0
42963 On ch=1 n=59 v=66
42974 On ch=1 n=59 v=0
42978 On ch=1 n=70 v=0
43013 On ch=1 n=59 v=54
43022 On ch=1 n=59 v=0
43038 On ch=1 n=79 v=0
43061 On ch=1 n=73 v=0
43063 On ch=1 n=59 v=66
43063 Par ch=1 c=64 v=0
43064 On ch=1 n=71 v=81
43065 On ch=1 n=78 v=77
43065 On ch=1 n=63 v=77
43066 On ch=1 n=64 v=0
43082 On ch=1 n=59 v=0
43096 Par ch=1 c=64 v=127
43114 On ch=1 n=59 v=52
43126 On ch=1 n=59 v=0
43147 On ch=1 n=71 v=0
43165 On ch=1 n=78 v=0
43167 On ch=1 n=75 v=77
43170 On ch=1 n=59 v=45
43178 On ch=1 n=59 v=0
43218 On ch=1 n=59 v=57
43226 On ch=1 n=59 v=0
43246 On ch=1 n=63 v=0
43261 Par ch=1 c=64 v=0
43266 On ch=1 n=75 v=0
43268 On ch=1 n=59 v=57
43268 On ch=1 n=67 v=69
43269 On ch=1 n=73 v=73
43271 On ch=1 n=82 v=57
43287 On ch=1 n=59 v=0
43296 Par ch=1 c=64 v=127
43320 On ch=1 n=59 v=54
43331 On ch=1 n=59 v=0
43368 On ch=1 n=73 v=0
43368 On ch=1 n=59 v=52
43381 On ch=1 n=59 v=0
43411 On ch=1 n=59 v=66
43414 On ch=1 n=75 v=81
43419 On ch=1 n=82 v=0
43428 On ch=1 n=59 v=0
43431 On ch=1 n=67 v=0
43436 On ch=1 n=75 v=0
43436 On ch=1 n=76 v=66
43453 On ch=1 n=76 v=0
43454 Par ch=1 c=64 v=0
43463 On ch=1 n=59 v=66
43464 On ch=1 n=75 v=59
43465 On ch=1 n=66 v=69
43467 On ch=1 n=83 v=81
43479 On ch=1 n=59 v=0
43493 Par ch=1 c=64 v=127
43539 On ch=1 n=83 v=0
43565 On ch=1 n=59 v=50
43565 On ch=1 n=71 v=77
43575 On ch=1 n=59 v=0
43575 On ch=1 n=75 v=0
43586 On ch=1 n=71 v=0
43609 On ch=1 n=66 v=0
43615 On ch=1 n=59 v=40
43625 On ch=1 n=59 v=0
43653 Par ch=1 c=64 v=0
43662 On ch=1 n=82 v=81
43664 On ch=1 n=73 v=77
43664 On ch=1 n=59 v=59
43664 On ch=1 n=64 v=69
43664 On ch=1 n=67 v=59
43664 On ch=1 n=76 v=86
43679 On ch=1 n=59 v=0
43687 On ch=1 n=64 v=0
43687 Par ch=1 c=64 v=127
43713 On ch=1 n=76 v=0
43717 On ch=1 n=59 v=41
43725 On ch=1 n=59 v=0
43747 On ch=1 n=67 v=0
43758 On ch=1 n=82 v=0
43769 On ch=1 n=59 v=77
43772 On ch=1 n=73 v=0
43786 On ch=1 n=59 v=0
43810 On ch=1 n=59 v=69
43812 On ch=1 n=78 v=86
43828 On ch=1 n=59 v=0
43835 On ch=1 n=79 v=69
43836 On ch=1 n=78 v=0
43850 On ch=1 n=79 v=0
43863 Par ch=1 c=64 v=0
43864 On ch=1 n=78 v=66
43867 On ch=1 n=75 v=86
43868 On ch=1 n=83 v=102
43868 On ch=1 n=59 v=81
43868 On ch=1 n=66 v=73
43869 On ch=1 n=63 v=81
43890 On ch=1 n=75 v=0
43896 On ch=1 n=66 v=0
43897 On ch=1 n=59 v=0
43899 On ch=1 n=83 v=0
43904 On ch=1 n=78 v=0
43905 On ch=1 n=63 v=0
44074 On ch=1 n=71 v=91
44076 On ch=1 n=66 v=81
44076 On ch=1 n=63 v=86
44078 On ch=1 n=54 v=77
44078 On ch=1 n=51 v=73
44080 On ch=1 n=59 v=81
44099 On ch=1 n=63 v=0
44103 On ch=1 n=59 v=0
44111 On ch=1 n=71 v=0
44115 On ch=1 n=54 v=0
44120 On ch=1 n=51 v=0
44122 On ch=1 n=66 v=0
44281 On ch=1 n=59 v=91
44281 On ch=1 n=54 v=86
44282 On ch=1 n=51 v=86
44282 On ch=1 n=47 v=86
44283 On ch=1 n=35 v=86
44335 On ch=1 n=51 v=0
44339 On ch=1 n=35 v=0
44340 On ch=1 n=47 v=0
44343 On ch=1 n=59 v=0
44345 On ch=1 n=54 v=0
44491 On ch=1 n=83 v=57
44534 On ch=1 n=83 v=0
44536 On ch=1 n=81 v=54
44579 On ch=1 n=81 v=0
44583 On ch=1 n=80 v=54
44629 On ch=1 n=80 v=0
44631 On ch=1 n=78 v=57
44679 On ch=1 n=78 v=0
44683 On ch=1 n=76 v=66
44793 On ch=1 n=76 v=0
44865 On ch=1 n=78 v=59
44956 On ch=1 n=79 v=69
44957 On ch=1 n=78 v=0
45045 On ch=1 n=79 v=0
45046 On ch=1 n=80 v=69
45061 On ch=1 n=80 v=0
45140 On ch=1 n=81 v=73
45227 On ch=1 n=82 v=73
45231 On ch=1 n=81 v=0
45319 On ch=1 n=83 v=91
45323 On ch=1 n=82 v=0
45410 On ch=1 n=84 v=102
45417 On ch=1 n=83 v=0
45502 On ch=1 n=85 v=86
45506 On ch=1 n=84 v=0
45592 On ch=1 n=65 v=40
45592 On ch=1 n=68 v=41
45595 On ch=1 n=73 v=47
45619 Par ch=1 c=64 v=127
45682 On ch=1 n=85 v=0
45685 On ch=1 n=83 v=77
45686 On ch=1 n=73 v=0
45718 On ch=1 n=65 v=0
45760 On ch=1 n=68 v=0
45771 Par ch=1 c=64 v=0
45772 On ch=1 n=66 v=38
45777 On ch=1 n=69 v=27
45815 Par ch=1 c=64 v=127
45859 On ch=1 n=83 v=0
45859 On ch=1 n=81 v=77
45865 On ch=1 n=69 v=0
45868 On ch=1 n=66 v=0
45876 On ch=1 n=81 v=0
45904 On ch=1 n=80 v=66
45918 Par ch=1 c=64 v=0
45920 On ch=1 n=80 v=0
45923 On ch=1 n=81 v=45
45931 On ch=1 n=83 v=77
45933 On ch=1 n=81 v=0
45947 On ch=1 n=81 v=77
45951 On ch=1 n=83 v=0
45986 On ch=1 n=81 v=0
45987 On ch=1 n=80 v=69
46032 On ch=1 n=80 v=0
46034 On ch=1 n=78 v=66
46077 On ch=1 n=76 v=73
46085 On ch=1 n=78 v=0
46126 On ch=1 n=76 v=0
46128 On ch=1 n=75 v=69
46256 On ch=1 n=75 v=0
46314 On ch=1 n=76 v=66
46397 On ch=1 n=76 v=0
46402 On ch=1 n=77 v=66
46488 On ch=1 n=77 v=0
46488 On ch=1 n=78 v=54
46501 On ch=1 n=78 v=0
46579 On ch=1 n=79 v=59
46668 On ch=1 n=80 v=77
46670 On ch=1 n=79 v=0
46758 On ch=1 n=81 v=77
46782 On ch=1 n=80 v=0
46846 On ch=1 n=81 v=0
46847 On ch=1 n=82 v=86
46940 On ch=1 n=83 v=91
46942 On ch=1 n=82 v=0
47029 On ch=1 n=66 v=33
47030 On ch=1 n=71 v=50
47031 On ch=1 n=63 v=26
47045 Par ch=1 c=64 v=127
47119 On ch=1 n=71 v=0
47123 On ch=1 n=81 v=77
47131 On ch=1 n=83 v=0
47155 On ch=1 n=66 v=0
47181 On ch=1 n=63 v=0
47215 On ch=1 n=64 v=40
47216 On ch=1 n=68 v=26
47219 Par ch=1 c=64 v=0
47273 Par ch=1 c=64 v=127
47292 On ch=1 n=64 v=0
47302 On ch=1 n=81 v=0
47303 On ch=1 n=80 v=77
47304 On ch=1 n=68 v=0
47351 On ch=1 n=80 v=0
47393 On ch=1 n=71 v=73
47396 Par ch=1 c=64 v=0
47437 On ch=1 n=69 v=59
47438 On ch=1 n=71 v=0
47477 On ch=1 n=69 v=0
47481 On ch=1 n=68 v=52
47521 On ch=1 n=68 v=0
47526 On ch=1 n=66 v=47
47570 On ch=1 n=66 v=0
47577 On ch=1 n=64 v=57
47756 On ch=1 n=66 v=50
47763 On ch=1 n=59 v=45
47764 On ch=1 n=64 v=0
47800 On ch=1 n=59 v=0
47802 On ch=1 n=57 v=59
47844 On ch=1 n=57 v=0
47846 On ch=1 n=68 v=66
47848 On ch=1 n=66 v=0
47848 On ch=1 n=56 v=69
47888 On ch=1 n=54 v=66
47891 On ch=1 n=56 v=0
47932 On ch=1 n=68 v=0
47933 On ch=1 n=53 v=81
47934 On ch=1 n=54 v=0
47935 On ch=1 n=69 v=86
47982 On ch=1 n=53 v=0
48025 On ch=1 n=70 v=77
48038 On ch=1 n=69 v=0
48111 On ch=1 n=71 v=81
48113 On ch=1 n=83 v=81
48118 On ch=1 n=70 v=0
48155 On ch=1 n=83 v=0
48155 On ch=1 n=81 v=77
48200 On ch=1 n=80 v=77
48202 On ch=1 n=71 v=0
48203 On ch=1 n=81 v=0
48203 On ch=1 n=72 v=66
48239 On ch=1 n=78 v=81
48245 On ch=1 n=80 v=0
48284 On ch=1 n=78 v=0
48287 On ch=1 n=77 v=59
48290 On ch=1 n=61 v=52
48291 On ch=1 n=72 v=0
48354 Par ch=1 c=64 v=127
48380 On ch=1 n=73 v=54
48392 On ch=1 n=77 v=0
48456 On ch=1 n=61 v=0
48472 On ch=1 n=86 v=81
48473 On ch=1 n=80 v=73
48473 On ch=1 n=77 v=73
48560 On ch=1 n=73 v=0
48567 On ch=1 n=71 v=50
48568 On ch=1 n=77 v=0
48643 On ch=1 n=80 v=0
48653 On ch=1 n=66 v=52
48656 On ch=1 n=71 v=0
48658 Par ch=1 c=64 v=0
48738 On ch=1 n=86 v=0
48744 On ch=1 n=78 v=40
48744 On ch=1 n=69 v=54
48745 On ch=1 n=85 v=50
48747 On ch=1 n=81 v=54
48748 On ch=1 n=66 v=0
48786 On ch=1 n=69 v=0
48813 On ch=1 n=78 v=0
48821 On ch=1 n=81 v=0
48826 On ch=1 n=85 v=0
48833 On ch=1 n=69 v=77
48875 On ch=1 n=68 v=73
48880 On ch=1 n=69 v=0
48917 On ch=1 n=66 v=59
48925 On ch=1 n=68 v=0
48953 On ch=1 n=66 v=0
48960 On ch=1 n=64 v=69
49004 On ch=1 n=64 v=0
49008 On ch=1 n=63 v=57
49193 On ch=1 n=57 v=52
49195 On ch=1 n=64 v=52
49199 On ch=1 n=63 v=0
49231 On ch=1 n=57 v=0
49236 On ch=1 n=56 v=57
49274 On ch=1 n=64 v=0
49280 On ch=1 n=56 v=0
49282 On ch=1 n=54 v=57
49290 On ch=1 n=66 v=54
49317 On ch=1 n=54 v=0
49322 On ch=1 n=52 v=69
49372 On ch=1 n=51 v=66
49375 On ch=1 n=52 v=0
49379 On ch=1 n=66 v=0
49380 On ch=1 n=67 v=57
49433 On ch=1 n=51 v=0
49463 On ch=1 n=68 v=77
49482 On ch=1 n=67 v=0
49549 On ch=1 n=69 v=77
49552 On ch=1 n=81 v=77
49560 On ch=1 n=68 v=0
49589 On ch=1 n=80 v=77
49593 On ch=1 n=81 v=0
49635 On ch=1 n=78 v=73
49636 On ch=1 n=69 v=0
49638 On ch=1 n=80 v=0
49644 Par ch=1 c=64 v=127
49650 On ch=1 n=70 v=54
49673 On ch=1 n=78 v=0
49675 On ch=1 n=76 v=81
49683 On ch=1 n=70 v=0
49731 On ch=1 n=75 v=59
49738 On ch=1 n=76 v=0
49746 Par ch=1 c=64 v=0
49758 On ch=1 n=59 v=24
49790 Par ch=1 c=64 v=127
49819 On ch=1 n=75 v=0
49830 On ch=1 n=71 v=35
49874 On ch=1 n=71 v=0
49915 On ch=1 n=84 v=77
49917 On ch=1 n=78 v=69
49917 On ch=1 n=75 v=69
49984 On ch=1 n=59 v=0
50002 On ch=1 n=69 v=59
50053 On ch=1 n=75 v=0
50075 On ch=1 n=78 v=0
50088 On ch=1 n=69 v=0
50089 Par ch=1 c=64 v=0
50092 On ch=1 n=64 v=57
50164 Par ch=1 c=64 v=127
50179 On ch=1 n=64 v=0
50180 On ch=1 n=84 v=0
50182 On ch=1 n=68 v=54
50182 On ch=1 n=76 v=54
50182 On ch=1 n=80 v=52
50182 On ch=1 n=83 v=54
50195 On ch=1 n=68 v=0
50201 On ch=1 n=83 v=0
50202 On ch=1 n=76 v=0
50203 On ch=1 n=80 v=0
50274 Par ch=1 c=64 v=0
50276 On ch=1 n=56 v=38
50313 On ch=1 n=56 v=0
50320 On ch=1 n=59 v=41
50353 On ch=1 n=59 v=0
50357 On ch=1 n=56 v=52
50363 On ch=1 n=71 v=73
50363 On ch=1 n=64 v=69
50379 On ch=1 n=64 v=0
50383 On ch=1 n=71 v=0
50397 On ch=1 n=56 v=0
50404 On ch=1 n=59 v=47
50430 On ch=1 n=59 v=0
50445 On ch=1 n=57 v=54
50446 On ch=1 n=71 v=73
50447 On ch=1 n=63 v=57
50458 Par ch=1 c=64 v=127
50468 On ch=1 n=71 v=0
50474 On ch=1 n=73 v=69
50481 On ch=1 n=57 v=0
50487 On ch=1 n=59 v=47
50494 On ch=1 n=71 v=66
50495 On ch=1 n=73 v=0
50502 On ch=1 n=63 v=0
50509 On ch=1 n=70 v=77
50510 On ch=1 n=71 v=0
50518 On ch=1 n=59 v=0
50526 On ch=1 n=71 v=77
50529 On ch=1 n=70 v=0
50529 On ch=1 n=57 v=52
50566 On ch=1 n=57 v=0
50570 On ch=1 n=75 v=66
50573 On ch=1 n=59 v=47
50608 On ch=1 n=75 v=0
50612 On ch=1 n=71 v=0
50614 On ch=1 n=59 v=0
50614 On ch=1 n=56 v=54
50615 On ch=1 n=64 v=66
50617 On ch=1 n=76 v=77
50620 Par ch=1 c=64 v=0
50631 On ch=1 n=64 v=0
50633 On ch=1 n=76 v=0
50651 On ch=1 n=56 v=0
50654 On ch=1 n=59 v=52
50690 On ch=1 n=59 v=0
50699 On ch=1 n=56 v=50
50702 On ch=1 n=64 v=59
50703 On ch=1 n=71 v=69
50711 On ch=1 n=71 v=0
50711 On ch=1 n=64 v=0
50733 On ch=1 n=56 v=0
50741 On ch=1 n=59 v=40
50780 On ch=1 n=59 v=0
50787 On ch=1 n=63 v=69
50788 On ch=1 n=57 v=52
50789 On ch=1 n=71 v=73
50793 Par ch=1 c=64 v=127
50812 On ch=1 n=71 v=0
50821 On ch=1 n=73 v=69
50823 On ch=1 n=57 v=0
50829 On ch=1 n=59 v=50
50841 On ch=1 n=73 v=0
50841 On ch=1 n=71 v=54
50842 On ch=1 n=63 v=0
50850 On ch=1 n=71 v=0
50851 On ch=1 n=70 v=69
50865 On ch=1 n=71 v=77
50868 On ch=1 n=59 v=0
50871 On ch=1 n=70 v=0
50871 On ch=1 n=57 v=52
50912 On ch=1 n=57 v=0
50912 On ch=1 n=75 v=77
50918 On ch=1 n=59 v=50
50925 On ch=1 n=71 v=0
50952 On ch=1 n=75 v=0
50958 On ch=1 n=59 v=0
50961 On ch=1 n=56 v=52
50961 On ch=1 n=64 v=69
50963 On ch=1 n=76 v=77
50969 Par ch=1 c=64 v=0
50976 On ch=1 n=64 v=0
50980 On ch=1 n=76 v=0
50992 On ch=1 n=56 v=0
51005 On ch=1 n=59 v=37
51038 On ch=1 n=59 v=0
51049 On ch=1 n=56 v=57
51050 Par ch=1 c=64 v=127
51052 On ch=1 n=77 v=86
51052 On ch=1 n=65 v=86
51069 On ch=1 n=65 v=0
51078 On ch=1 n=56 v=0
51095 On ch=1 n=59 v=45
51131 On ch=1 n=59 v=0
51131 On ch=1 n=77 v=0
51138 Par ch=1 c=64 v=0
51139 On ch=1 n=57 v=57
51142 On ch=1 n=66 v=59
51142 On ch=1 n=78 v=73
51170 On ch=1 n=66 v=0
51172 Par ch=1 c=64 v=127
51185 On ch=1 n=61 v=45
51188 On ch=1 n=57 v=0
51220 On ch=1 n=78 v=0
51225 On ch=1 n=61 v=0
51229 On ch=1 n=80 v=73
51229 On ch=1 n=68 v=77
51230 On ch=1 n=57 v=54
51254 On ch=1 n=68 v=0
51273 On ch=1 n=57 v=0
51274 On ch=1 n=61 v=52
51303 On ch=1 n=80 v=0
51314 Par ch=1 c=64 v=0
51316 On ch=1 n=61 v=0
51318 On ch=1 n=59 v=59
51321 On ch=1 n=69 v=73
51322 On ch=1 n=81 v=91
51348 Par ch=1 c=64 v=127
51357 On ch=1 n=69 v=0
51359 On ch=1 n=59 v=0
51366 On ch=1 n=63 v=57
51376 On ch=1 n=81 v=0
51401 On ch=1 n=63 v=0
51408 On ch=1 n=59 v=57
51412 On ch=1 n=71 v=77
51413 On ch=1 n=83 v=86
51437 On ch=1 n=71 v=0
51442 On ch=1 n=83 v=0
51455 On ch=1 n=59 v=0
51455 On ch=1 n=63 v=50
51493 On ch=1 n=63 v=0
51499 Par ch=1 c=64 v=0
51500 On ch=1 n=52 v=59
51502 On ch=1 n=69 v=69
51505 On ch=1 n=81 v=69
51536 Par ch=1 c=64 v=127
51548 On ch=1 n=69 v=0
51548 On ch=1 n=59 v=47
51592 On ch=1 n=59 v=0
51596 On ch=1 n=52 v=0
51596 On ch=1 n=63 v=35
51632 On ch=1 n=63 v=0
51638 On ch=1 n=59 v=41
51674 On ch=1 n=81 v=0
51679 Par ch=1 c=64 v=0
51684 On ch=1 n=59 v=0
51686 On ch=1 n=68 v=57
51686 On ch=1 n=80 v=59
51688 On ch=1 n=64 v=57
51706 On ch=1 n=68 v=0
51726 On ch=1 n=64 v=0
51728 On ch=1 n=59 v=52
51766 On ch=1 n=80 v=0
51773 On ch=1 n=59 v=0
51775 On ch=1 n=71 v=69
51775 On ch=1 n=56 v=52
51775 On ch=1 n=83 v=73
51781 On ch=1 n=64 v=47
51787 On ch=1 n=71 v=0
51797 On ch=1 n=83 v=0
51807 On ch=1 n=56 v=0
51811 On ch=1 n=64 v=0
51820 On ch=1 n=59 v=57
51853 On ch=1 n=59 v=0
51866 On ch=1 n=75 v=66
51867 On ch=1 n=57 v=50
51867 On ch=1 n=83 v=73
51868 On ch=1 n=66 v=38
51881 Par ch=1 c=64 v=127
51891 On ch=1 n=83 v=0
51897 On ch=1 n=57 v=0
51899 On ch=1 n=85 v=59
51909 On ch=1 n=59 v=50
51918 On ch=1 n=83 v=59
51920 On ch=1 n=85 v=0
51930 On ch=1 n=83 v=0
51931 On ch=1 n=82 v=77
51932 On ch=1 n=75 v=0
51937 On ch=1 n=59 v=0
51946 On ch=1 n=83 v=73
51951 On ch=1 n=82 v=0
51954 On ch=1 n=57 v=47
51983 On ch=1 n=66 v=0
51993 On ch=1 n=57 v=0
51997 On ch=1 n=87 v=73
51999 On ch=1 n=59 v=50
52004 On ch=1 n=83 v=0
52028 On ch=1 n=87 v=0
52030 On ch=1 n=59 v=0
52044 On ch=1 n=64 v=59
52044 On ch=1 n=76 v=57
52045 On ch=1 n=88 v=73
52045 Par ch=1 c=64 v=0
52048 On ch=1 n=56 v=50
52053 On ch=1 n=88 v=0
52056 On ch=1 n=76 v=0
52068 On ch=1 n=64 v=0
52081 On ch=1 n=56 v=0
52091 On ch=1 n=59 v=47
52126 On ch=1 n=59 v=0
52136 On ch=1 n=64 v=57
52140 On ch=1 n=83 v=77
52141 On ch=1 n=71 v=52
52143 On ch=1 n=56 v=32
52150 On ch=1 n=71 v=0
52160 On ch=1 n=64 v=0
52165 On ch=1 n=83 v=0
52165 On ch=1 n=56 v=0
52183 On ch=1 n=59 v=47
52222 Par ch=1 c=64 v=127
52225 On ch=1 n=75 v=69
52226 On ch=1 n=59 v=0
52226 On ch=1 n=66 v=54
52227 On ch=1 n=83 v=77
52234 On ch=1 n=57 v=59
52244 On ch=1 n=57 v=0
52252 On ch=1 n=75 v=0
52258 On ch=1 n=83 v=0
52265 On ch=1 n=85 v=66
52269 On ch=1 n=75 v=7
52276 On ch=1 n=59 v=47
52286 On ch=1 n=83 v=66
52287 On ch=1 n=75 v=0
52289 On ch=1 n=85 v=0
52300 On ch=1 n=83 v=0
52300 On ch=1 n=82 v=77
52301 On ch=1 n=59 v=0
52315 On ch=1 n=83 v=73
52315 On ch=1 n=57 v=47
52319 On ch=1 n=82 v=0
52353 On ch=1 n=57 v=0
52360 On ch=1 n=87 v=77
52362 On ch=1 n=66 v=0
52362 On ch=1 n=59 v=57
52389 On ch=1 n=87 v=0
52394 On ch=1 n=83 v=0
52400 On ch=1 n=59 v=0
52408 On ch=1 n=76 v=77
52408 On ch=1 n=88 v=81
52410 On ch=1 n=56 v=66
52412 On ch=1 n=64 v=66
52413 Par ch=1 c=64 v=0
52422 On ch=1 n=76 v=0
52427 On ch=1 n=88 v=0
52433 On ch=1 n=56 v=0
52451 On ch=1 n=59 v=54
52453 On ch=1 n=64 v=0
52497 On ch=1 n=59 v=0
52502 On ch=1 n=56 v=54
52503 On ch=1 n=86 v=86
52503 On ch=1 n=77 v=91
52509 On ch=1 n=65 v=73
52511 Par ch=1 c=64 v=127
52541 On ch=1 n=56 v=0
52547 On ch=1 n=65 v=0
52549 On ch=1 n=59 v=59
52590 On ch=1 n=66 v=19
52590 Par ch=1 c=64 v=0
52593 On ch=1 n=59 v=0
52594 On ch=1 n=77 v=0
52597 On ch=1 n=85 v=77
52597 On ch=1 n=78 v=81
52598 On ch=1 n=57 v=69
52604 On ch=1 n=86 v=0
52622 On ch=1 n=85 v=0
52625 Par ch=1 c=64 v=127
52634 On ch=1 n=78 v=0
52635 On ch=1 n=57 v=0
52637 On ch=1 n=66 v=0
52642 On ch=1 n=61 v=52
52668 On ch=1 n=61 v=0
52688 On ch=1 n=68 v=81
52688 On ch=1 n=80 v=81
52688 On ch=1 n=57 v=54
52706 On ch=1 n=68 v=0
52716 On ch=1 n=57 v=0
52724 On ch=1 n=80 v=0
52727 On ch=1 n=61 v=59
52736 On ch=1 n=61 v=0
52771 Par ch=1 c=64 v=0
52779 On ch=1 n=69 v=86
52780 On ch=1 n=81 v=91
52780 On ch=1 n=54 v=66
52782 On ch=1 n=47 v=66
52808 On ch=1 n=81 v=0
52809 Par ch=1 c=64 v=127
52811 On ch=1 n=69 v=0
52821 On ch=1 n=57 v=52
52824 On ch=1 n=54 v=0
52845 On ch=1 n=57 v=0
52870 On ch=1 n=54 v=59
52871 On ch=1 n=63 v=86
52872 On ch=1 n=75 v=86
52889 On ch=1 n=63 v=0
52894 On ch=1 n=47 v=0
52901 On ch=1 n=75 v=0
52906 On ch=1 n=54 v=0
52916 On ch=1 n=57 v=54
52944 On ch=1 n=57 v=0
52957 Par ch=1 c=64 v=0
52964 On ch=1 n=52 v=59
52965 On ch=1 n=56 v=54
52965 On ch=1 n=64 v=86
52966 On ch=1 n=76 v=86
52999 Par ch=1 c=64 v=127
53003 On ch=1 n=76 v=0
53029 On ch=1 n=52 v=0
53030 On ch=1 n=56 v=0
53059 On ch=1 n=71 v=86
53061 On ch=1 n=68 v=81
53062 Par ch=1 c=64 v=0
53147 On ch=1 n=71 v=0
53151 On ch=1 n=72 v=81
53152 On ch=1 n=69 v=86
53158 On ch=1 n=64 v=0
53161 On ch=1 n=68 v=0
53244 On ch=1 n=63 v=81
53281 On ch=1 n=47 v=77
53288 On ch=1 n=63 v=0
53291 On ch=1 n=72 v=0
53296 On ch=1 n=69 v=0
53296 On ch=1 n=49 v=86
53308 On ch=1 n=47 v=0
53311 On ch=1 n=51 v=73
53322 On ch=1 n=49 v=0
53324 On ch=1 n=64 v=77
53331 On ch=1 n=52 v=77
53337 On ch=1 n=51 v=0
53413 On ch=1 n=68 v=86
53415 On ch=1 n=71 v=86
53438 On ch=1 n=52 v=0
53503 On ch=1 n=71 v=0
53507 On ch=1 n=73 v=86
53507 On ch=1 n=69 v=91
53508 On ch=1 n=64 v=0
53517 On ch=1 n=68 v=0
53601 On ch=1 n=63 v=81
53636 On ch=1 n=35 v=77
53643 On ch=1 n=63 v=0
53655 On ch=1 n=37 v=73
53662 On ch=1 n=73 v=0
53663 On ch=1 n=69 v=0
53666 On ch=1 n=39 v=69
53667 On ch=1 n=35 v=0
53680 On ch=1 n=37 v=0
53687 On ch=1 n=64 v=52
53688 On ch=1 n=40 v=73
53697 On ch=1 n=39 v=0
53776 On ch=1 n=68 v=81
53776 On ch=1 n=71 v=81
53798 On ch=1 n=40 v=0
53862 On ch=1 n=71 v=0
53866 On ch=1 n=64 v=0
53872 On ch=1 n=72 v=86
53873 On ch=1 n=69 v=91
53878 On ch=1 n=68 v=0
53962 On ch=1 n=63 v=86
54000 On ch=1 n=47 v=81
54010 On ch=1 n=63 v=0
54013 On ch=1 n=72 v=0
54016 On ch=1 n=49 v=91
54021 On ch=1 n=69 v=0
54029 On ch=1 n=51 v=77
54030 On ch=1 n=47 v=0
54045 On ch=1 n=49 v=0
54047 On ch=1 n=52 v=102
54053 On ch=1 n=64 v=91
54058 On ch=1 n=51 v=0
54142 On ch=1 n=68 v=86
54143 On ch=1 n=71 v=86
54164 On ch=1 n=52 v=0
54227 On ch=1 n=71 v=0
54236 On ch=1 n=69 v=102
54236 On ch=1 n=73 v=81
54242 On ch=1 n=64 v=0
54245 On ch=1 n=68 v=0
54325 On ch=1 n=63 v=77
54358 On ch=1 n=35 v=77
54373 On ch=1 n=63 v=0
54375 On ch=1 n=37 v=73
54381 On ch=1 n=73 v=0
54383 On ch=1 n=69 v=0
54388 On ch=1 n=39 v=77
54392 On ch=1 n=35 v=0
54407 On ch=1 n=37 v=0
54408 On ch=1 n=40 v=86
54413 On ch=1 n=64 v=81
54421 On ch=1 n=39 v=0
54433 On ch=1 n=40 v=0
54437 On ch=1 n=64 v=0
54504 On ch=1 n=68 v=66
54506 On ch=1 n=52 v=66
54506 On ch=1 n=59 v=59
54507 On ch=1 n=71 v=57
54517 On ch=1 n=71 v=0
54517 On ch=1 n=59 v=0
54520 On ch=1 n=52 v=0
54520 On ch=1 n=68 v=0
54596 On ch=1 n=54 v=50
54596 On ch=1 n=59 v=54
54597 On ch=1 n=69 v=69
54598 On ch=1 n=75 v=57
54606 On ch=1 n=59 v=0
54607 On ch=1 n=69 v=0
54609 On ch=1 n=54 v=0
54614 On ch=1 n=75 v=0
54688 On ch=1 n=59 v=57
54688 On ch=1 n=76 v=69
54689 On ch=1 n=71 v=66
54690 On ch=1 n=56 v=54
54702 On ch=1 n=76 v=0
54703 On ch=1 n=56 v=0
54705 On ch=1 n=71 v=0
54708 On ch=1 n=59 v=0
54781 On ch=1 n=66 v=54
54781 On ch=1 n=69 v=66
54781 On ch=1 n=73 v=69
54782 On ch=1 n=61 v=50
54784 On ch=1 n=80 v=59
54784 On ch=1 n=57 v=54
54788 Par ch=1 c=64 v=127
54844 On ch=1 n=69 v=0
54865 On ch=1 n=61 v=0
54866 On ch=1 n=73 v=0
54868 On ch=1 n=57 v=0
54872 On ch=1 n=80 v=0
54882 On ch=1 n=66 v=0
54916 On ch=1 n=78 v=57
54940 On ch=1 n=78 v=0
54964 On ch=1 n=76 v=66
54964 On ch=1 n=68 v=50
54965 Par ch=1 c=64 v=0
54965 On ch=1 n=71 v=50
54966 On ch=1 n=59 v=52
54975 On ch=1 n=71 v=0
54978 On ch=1 n=59 v=0
54980 On ch=1 n=76 v=0
54981 On ch=1 n=68 v=0
55054 On ch=1 n=75 v=59
55054 On ch=1 n=66 v=50
55055 On ch=1 n=59 v=57
55057 On ch=1 n=71 v=54
55068 On ch=1 n=71 v=0
55069 On ch=1 n=59 v=0
55074 On ch=1 n=75 v=0
55075 On ch=1 n=66 v=0
55145 Par ch=1 c=64 v=127
55147 On ch=1 n=71 v=86
55172 On ch=1 n=71 v=0
55225 Par ch=1 c=64 v=0
55234 On ch=1 n=59 v=69
55237 On ch=1 n=56 v=69
55238 On ch=1 n=71 v=81
55239 On ch=1 n=76 v=91
55256 On ch=1 n=59 v=0
55257 Par ch=1 c=64 v=127
55258 On ch=1 n=71 v=0
55261 On ch=1 n=76 v=0
55262 On ch=1 n=56 v=0
55313 Par ch=1 c=64 v=0
55328 On ch=1 n=63 v=77
55329 On ch=1 n=78 v=86
55329 On ch=1 n=54 v=69
55330 On ch=1 n=71 v=81
55343 Par ch=1 c=64 v=127
55346 On ch=1 n=71 v=0
55348 On ch=1 n=63 v=0
55350 On ch=1 n=78 v=0
55351 On ch=1 n=54 v=0
55413 Par ch=1 c=64 v=0
55426 On ch=1 n=80 v=86
55427 On ch=1 n=52 v=91
55427 On ch=1 n=71 v=91
55428 On ch=1 n=64 v=81
55442 On ch=1 n=64 v=0
55443 On ch=1 n=71 v=0
55446 On ch=1 n=52 v=0
55446 Par ch=1 c=64 v=127
55452 On ch=1 n=80 v=0
55516 Par ch=1 c=64 v=0
55520 On ch=1 n=73 v=91
55521 On ch=1 n=83 v=91
55524 On ch=1 n=68 v=77
55526 On ch=1 n=57 v=66
55553 Par ch=1 c=64 v=127
55555 On ch=1 n=68 v=0
55619 On ch=1 n=83 v=0
55633 On ch=1 n=73 v=0
55650 On ch=1 n=66 v=73
55654 On ch=1 n=81 v=86
55663 On ch=1 n=57 v=0
55666 On ch=1 n=66 v=0
55680 On ch=1 n=81 v=0
55693 Par ch=1 c=64 v=0
55697 On ch=1 n=80 v=81
55700 On ch=1 n=71 v=81
55700 On ch=1 n=64 v=77
55700 On ch=1 n=59 v=77
55714 On ch=1 n=64 v=0
55720 On ch=1 n=80 v=0
55720 On ch=1 n=71 v=0
55723 On ch=1 n=59 v=0
55788 On ch=1 n=78 v=81
55788 On ch=1 n=63 v=77
55788 On ch=1 n=71 v=86
55790 On ch=1 n=59 v=77
55808 On ch=1 n=59 v=0
55808 On ch=1 n=71 v=0
55809 On ch=1 n=63 v=0
55813 On ch=1 n=78 v=0
55882 On ch=1 n=71 v=86
55882 On ch=1 n=83 v=102
55885 Par ch=1 c=64 v=127
55901 On ch=1 n=71 v=0
55908 On ch=1 n=83 v=0
55966 Par ch=1 c=64 v=0
55974 On ch=1 n=56 v=73
55976 On ch=1 n=71 v=86
55976 On ch=1 n=83 v=91
55977 On ch=1 n=76 v=91
55979 On ch=1 n=59 v=66
55980 On ch=1 n=64 v=66
55989 On ch=1 n=64 v=0
55992 On ch=1 n=71 v=0
55997 Par ch=1 c=64 v=127
55998 On ch=1 n=76 v=0
56000 On ch=1 n=83 v=0
56001 On ch=1 n=59 v=0
56002 On ch=1 n=56 v=0
56055 Par ch=1 c=64 v=0
56070 On ch=1 n=75 v=91
56070 On ch=1 n=83 v=91
56070 On ch=1 n=71 v=91
56070 On ch=1 n=54 v=59
56070 On ch=1 n=63 v=66
56070 On ch=1 n=57 v=73
56071 On ch=1 n=78 v=86
56074 On ch=1 n=59 v=69
56081 On ch=1 n=63 v=0
56083 On ch=1 n=71 v=0
56088 On ch=1 n=75 v=0
56088 Par ch=1 c=64 v=127
56089 On ch=1 n=54 v=0
56091 On ch=1 n=57 v=0
56092 On ch=1 n=83 v=0
56094 On ch=1 n=78 v=0
56098 On ch=1 n=59 v=0
56152 Par ch=1 c=64 v=0
56162 On ch=1 n=64 v=77
56164 On ch=1 n=80 v=81
56164 On ch=1 n=71 v=91
56164 On ch=1 n=56 v=77
56164 On ch=1 n=52 v=73
56164 On ch=1 n=83 v=86
56165 On ch=1 n=76 v=102
56167 On ch=1 n=59 v=73
56175 On ch=1 n=59 v=0
56176 On ch=1 n=71 v=0
56176 On ch=1 n=64 v=0
56184 Par ch=1 c=64 v=127
56185 On ch=1 n=76 v=0
56186 On ch=1 n=56 v=0
56187 On ch=1 n=52 v=0
56190 On ch=1 n=83 v=0
56190 On ch=1 n=80 v=0
56256 Par ch=1 c=64 v=0
56257 On ch=1 n=54 v=52
56260 On ch=1 n=84 v=102
56260 On ch=1 n=72 v=91
56260 On ch=1 n=49 v=77
56262 On ch=1 n=45 v=69
56281 On ch=1 n=72 v=0
56290 Par ch=1 c=64 v=127
56295 On ch=1 n=84 v=0
56349 On ch=1 n=73 v=91
56349 On ch=1 n=85 v=91
56360 Par ch=1 c=64 v=0
56432 On ch=1 n=85 v=0
56433 On ch=1 n=54 v=0
56436 On ch=1 n=73 v=0
56437 On ch=1 n=49 v=0
56442 On ch=1 n=45 v=0
56590 On ch=1 n=35 v=54
56590 On ch=1 n=47 v=52
56683 On ch=1 n=63 v=50
56684 On ch=1 n=57 v=50
56746 On ch=1 n=47 v=0
56750 On ch=1 n=63 v=0
56754 On ch=1 n=35 v=0
56754 On ch=1 n=57 v=0
56905 On ch=1 n=40 v=50
56915 Par ch=1 c=64 v=127
56947 On ch=1 n=52 v=57
56948 On ch=1 n=64 v=57
56952 On ch=1 n=56 v=38
56962 On ch=1 n=56 v=0
56963 On ch=1 n=52 v=0
56966 On ch=1 n=64 v=0
56997 On ch=1 n=56 v=29
56999 On ch=1 n=64 v=28
57000 On ch=1 n=52 v=27
57009 On ch=1 n=64 v=0
57010 On ch=1 n=56 v=0
57012 On ch=1 n=52 v=0
57034 On ch=1 n=52 v=50
57034 On ch=1 n=56 v=45
57036 On ch=1 n=64 v=35
57049 On ch=1 n=52 v=0
57052 On ch=1 n=64 v=0
57054 On ch=1 n=56 v=0
57079 On ch=1 n=45 v=77
57087 On ch=1 n=40 v=0
57088 Par ch=1 c=64 v=0
57122 On ch=1 n=52 v=50
57122 On ch=1 n=64 v=50
57123 Par ch=1 c=64 v=127
57126 On ch=1 n=61 v=41
57131 On ch=1 n=52 v=0
57133 On ch=1 n=61 v=0
57134 On ch=1 n=64 v=0
57166 On ch=1 n=64 v=41
57166 On ch=1 n=52 v=59
57167 On ch=1 n=61 v=37
57178 On ch=1 n=64 v=0
57181 On ch=1 n=61 v=0
57182 On ch=1 n=52 v=0
57208 On ch=1 n=64 v=47
57209 On ch=1 n=61 v=37
57209 On ch=1 n=52 v=59
57230 On ch=1 n=52 v=0
57234 On ch=1 n=64 v=0
57237 On ch=1 n=61 v=0
57253 On ch=1 n=44 v=77
57254 On ch=1 n=45 v=0
57262 Par ch=1 c=64 v=0
57295 On ch=1 n=64 v=41
57298 On ch=1 n=59 v=50
57299 Par ch=1 c=64 v=127
57301 On ch=1 n=52 v=17
57305 On ch=1 n=64 v=0
57308 On ch=1 n=59 v=0
57312 On ch=1 n=52 v=0
57343 On ch=1 n=64 v=47
57343 On ch=1 n=52 v=41
57345 On ch=1 n=59 v=50
57355 On ch=1 n=59 v=0
57355 On ch=1 n=64 v=0
57359 On ch=1 n=52 v=0
57388 On ch=1 n=64 v=47
57390 On ch=1 n=52 v=41
57390 On ch=1 n=59 v=59
57401 On ch=1 n=64 v=0
57402 On ch=1 n=52 v=0
57412 On ch=1 n=59 v=0
57418 On ch=1 n=44 v=0
57434 On ch=1 n=49 v=86
57438 Par ch=1 c=64 v=0
57477 On ch=1 n=52 v=59
57477 On ch=1 n=64 v=57
57480 Par ch=1 c=64 v=127
57482 On ch=1 n=57 v=54
57489 On ch=1 n=64 v=0
57489 On ch=1 n=52 v=0
57491 On ch=1 n=57 v=0
57524 On ch=1 n=52 v=45
57526 On ch=1 n=57 v=50
57529 On ch=1 n=64 v=37
57536 On ch=1 n=57 v=0
57537 On ch=1 n=52 v=0
57538 On ch=1 n=64 v=0
57565 On ch=1 n=52 v=45
57567 On ch=1 n=57 v=47
57570 On ch=1 n=64 v=40
57579 On ch=1 n=52 v=0
57581 On ch=1 n=57 v=0
57582 On ch=1 n=64 v=0
57610 On ch=1 n=47 v=81
57617 On ch=1 n=49 v=0
57619 Par ch=1 c=64 v=0
57653 Par ch=1 c=64 v=127
57655 On ch=1 n=52 v=59
57657 On ch=1 n=64 v=57
57657 On ch=1 n=56 v=52
57666 On ch=1 n=56 v=0
57666 On ch=1 n=64 v=0
57669 On ch=1 n=52 v=0
57699 On ch=1 n=52 v=47
57700 On ch=1 n=56 v=57
57702 On ch=1 n=64 v=52
57712 On ch=1 n=64 v=0
57715 On ch=1 n=56 v=0
57715 On ch=1 n=52 v=0
57739 On ch=1 n=52 v=59
57742 On ch=1 n=64 v=54
57743 On ch=1 n=56 v=50
57760 On ch=1 n=52 v=0
57767 On ch=1 n=56 v=0
57768 On ch=1 n=64 v=0
57779 On ch=1 n=47 v=0
57787 On ch=1 n=45 v=91
57796 Par ch=1 c=64 v=0
57831 Par ch=1 c=64 v=127
57832 On ch=1 n=52 v=69
57832 On ch=1 n=61 v=66
57834 On ch=1 n=64 v=59
57842 On ch=1 n=64 v=0
57844 On ch=1 n=52 v=0
57846 On ch=1 n=61 v=0
57876 On ch=1 n=52 v=57
57879 On ch=1 n=61 v=47
57879 On ch=1 n=64 v=57
57890 On ch=1 n=64 v=0
57893 On ch=1 n=52 v=0
57894 On ch=1 n=61 v=0
57917 On ch=1 n=52 v=52
57920 On ch=1 n=64 v=52
57922 On ch=1 n=61 v=40
57942 On ch=1 n=52 v=0
57944 On ch=1 n=64 v=0
57946 On ch=1 n=61 v=0
57964 On ch=1 n=45 v=0
57967 On ch=1 n=44 v=86
57969 Par ch=1 c=64 v=0
58004 Par ch=1 c=64 v=127
58010 On ch=1 n=52 v=69
58013 On ch=1 n=64 v=52
58014 On ch=1 n=59 v=69
58024 On ch=1 n=59 v=0
58025 On ch=1 n=64 v=0
58027 On ch=1 n=52 v=0
58033 On ch=1 n=44 v=0
58056 On ch=1 n=52 v=57
58057 On ch=1 n=59 v=59
58059 On ch=1 n=64 v=66
58068 On ch=1 n=64 v=0
58068 On ch=1 n=59 v=0
58072 On ch=1 n=52 v=0
58096 On ch=1 n=52 v=54
58097 On ch=1 n=59 v=59
58100 On ch=1 n=64 v=59
58110 On ch=1 n=64 v=0
58114 On ch=1 n=52 v=0
58119 On ch=1 n=59 v=0
58144 On ch=1 n=29 v=91
58144 On ch=1 n=41 v=102
58146 Par ch=1 c=64 v=0
58178 Par ch=1 c=64 v=127
58186 On ch=1 n=52 v=69
58188 On ch=1 n=63 v=57
58189 On ch=1 n=64 v=66
58191 On ch=1 n=57 v=73
58197 On ch=1 n=64 v=0
58200 On ch=1 n=57 v=0
58201 On ch=1 n=52 v=0
58204 On ch=1 n=63 v=0
58221 On ch=1 n=41 v=0
58230 On ch=1 n=52 v=37
58232 On ch=1 n=63 v=41
58234 On ch=1 n=57 v=66
58235 On ch=1 n=64 v=52
58236 On ch=1 n=29 v=0
58244 On ch=1 n=64 v=0
58249 On ch=1 n=63 v=0
58250 On ch=1 n=52 v=0
58252 On ch=1 n=57 v=0
58271 On ch=1 n=52 v=54
58273 On ch=1 n=57 v=52
58277 On ch=1 n=63 v=28
58278 On ch=1 n=64 v=54
58289 On ch=1 n=64 v=0
58301 On ch=1 n=57 v=0
58302 On ch=1 n=63 v=0
58303 On ch=1 n=52 v=0
58321 On ch=1 n=40 v=91
58322 On ch=1 n=28 v=91
58324 Par ch=1 c=64 v=0
58361 Par ch=1 c=64 v=127
58365 On ch=1 n=52 v=59
58366 On ch=1 n=64 v=50
58367 On ch=1 n=56 v=50
58376 On ch=1 n=64 v=0
58377 On ch=1 n=56 v=0
58378 On ch=1 n=52 v=0
58384 On ch=1 n=40 v=0
58394 On ch=1 n=28 v=0
58407 On ch=1 n=52 v=47
58408 On ch=1 n=56 v=50
58409 On ch=1 n=64 v=52
58420 On ch=1 n=64 v=0
58422 On ch=1 n=52 v=0
58424 On ch=1 n=56 v=0
58450 On ch=1 n=52 v=50
58450 On ch=1 n=56 v=54
58454 On ch=1 n=64 v=57
58469 On ch=1 n=52 v=0
58471 On ch=1 n=56 v=0
58474 On ch=1 n=64 v=0
58498 On ch=1 n=30 v=77
58499 On ch=1 n=42 v=86
58499 Par ch=1 c=64 v=0
58534 Par ch=1 c=64 v=127
58543 On ch=1 n=52 v=66
58545 On ch=1 n=64 v=54
58546 On ch=1 n=63 v=45
58548 On ch=1 n=57 v=59
58555 On ch=1 n=64 v=0
58556 On ch=1 n=63 v=0
58556 On ch=1 n=57 v=0
58559 On ch=1 n=52 v=0
58568 On ch=1 n=42 v=0
58585 On ch=1 n=52 v=45
58586 On ch=1 n=30 v=0
58589 On ch=1 n=63 v=27
58590 On ch=1 n=57 v=52
58593 On ch=1 n=64 v=17
58598 On ch=1 n=63 v=0
58600 On ch=1 n=57 v=0
58601 On ch=1 n=52 v=0
58602 On ch=1 n=64 v=0
58625 On ch=1 n=52 v=59
58627 On ch=1 n=57 v=54
58630 On ch=1 n=63 v=37
58630 On ch=1 n=64 v=45
58640 On ch=1 n=63 v=0
58643 On ch=1 n=64 v=0
58645 On ch=1 n=52 v=0
58651 On ch=1 n=57 v=0
58671 Par ch=1 c=64 v=0
58674 On ch=1 n=28 v=81
58674 On ch=1 n=40 v=73
58710 Par ch=1 c=64 v=127
58715 On ch=1 n=56 v=50
58715 On ch=1 n=52 v=50
58715 On ch=1 n=64 v=52
58726 On ch=1 n=64 v=0
58727 On ch=1 n=52 v=0
58730 On ch=1 n=56 v=0
58744 On ch=1 n=28 v=0
58745 On ch=1 n=40 v=0
58762 On ch=1 n=52 v=54
58764 On ch=1 n=56 v=47
58764 On ch=1 n=64 v=38
58773 On ch=1 n=52 v=0
58774 On ch=1 n=64 v=0
58775 On ch=1 n=56 v=0
58802 On ch=1 n=56 v=50
58803 On ch=1 n=52 v=50
58804 On ch=1 n=64 v=50
58820 On ch=1 n=52 v=0
58826 On ch=1 n=64 v=0
58826 On ch=1 n=56 v=0
58846 On ch=1 n=41 v=102
58846 On ch=1 n=29 v=102
58850 Par ch=1 c=64 v=0
58881 Par ch=1 c=64 v=127
58893 On ch=1 n=52 v=69
58896 On ch=1 n=63 v=52
58896 On ch=1 n=64 v=54
58897 On ch=1 n=57 v=66
58905 On ch=1 n=64 v=0
58908 On ch=1 n=57 v=0
58909 On ch=1 n=63 v=0
58910 On ch=1 n=52 v=0
58924 On ch=1 n=41 v=0
58937 On ch=1 n=52 v=52
58940 On ch=1 n=63 v=40
58942 On ch=1 n=29 v=0
58942 On ch=1 n=57 v=47
58944 On ch=1 n=64 v=45
58952 On ch=1 n=64 v=0
58952 On ch=1 n=57 v=0
58955 On ch=1 n=63 v=0
58955 On ch=1 n=52 v=0
58978 On ch=1 n=52 v=57
58982 On ch=1 n=57 v=59
58983 On ch=1 n=64 v=41
58984 On ch=1 n=63 v=17
58993 On ch=1 n=64 v=0
58999 On ch=1 n=63 v=0
58999 On ch=1 n=52 v=0
59003 On ch=1 n=57 v=0
59027 On ch=1 n=40 v=91
59028 On ch=1 n=28 v=86
59032 Par ch=1 c=64 v=0
59066 Par ch=1 c=64 v=127
59070 On ch=1 n=52 v=69
59073 On ch=1 n=64 v=54
59074 On ch=1 n=56 v=57
59082 On ch=1 n=56 v=0
59082 On ch=1 n=64 v=0
59085 On ch=1 n=52 v=0
59098 On ch=1 n=40 v=0
59101 On ch=1 n=28 v=0
59115 On ch=1 n=52 v=57
59117 On ch=1 n=56 v=59
59118 On ch=1 n=64 v=50
59127 On ch=1 n=64 v=0
59129 On ch=1 n=52 v=0
59131 On ch=1 n=56 v=0
59155 On ch=1 n=56 v=52
59156 On ch=1 n=52 v=57
59160 On ch=1 n=64 v=59
59173 On ch=1 n=52 v=0
59175 On ch=1 n=56 v=0
59179 On ch=1 n=64 v=0
59204 On ch=1 n=30 v=86
59205 On ch=1 n=42 v=91
59206 Par ch=1 c=64 v=0
59237 Par ch=1 c=64 v=127
59248 On ch=1 n=52 v=73
59249 On ch=1 n=63 v=66
59251 On ch=1 n=57 v=69
59254 On ch=1 n=64 v=50
59261 On ch=1 n=30 v=0
59262 On ch=1 n=57 v=0
59264 On ch=1 n=64 v=0
59265 On ch=1 n=52 v=0
59268 On ch=1 n=63 v=0
59278 On ch=1 n=42 v=0
59292 On ch=1 n=63 v=45
59294 On ch=1 n=52 v=69
59297 On ch=1 n=64 v=57
59297 On ch=1 n=57 v=57
59306 On ch=1 n=64 v=0
59307 On ch=1 n=57 v=0
59311 On ch=1 n=52 v=0
59313 On ch=1 n=63 v=0
59334 On ch=1 n=52 v=54
59338 On ch=1 n=63 v=26
59341 On ch=1 n=57 v=59
59350 On ch=1 n=57 v=0
59356 On ch=1 n=52 v=0
59360 On ch=1 n=63 v=0
59384 On ch=1 n=64 v=81
59386 Par ch=1 c=64 v=0
59422 Par ch=1 c=64 v=127
59426 On ch=1 n=56 v=66
59426 On ch=1 n=40 v=59
59428 On ch=1 n=59 v=69
59442 On ch=1 n=56 v=0
59445 On ch=1 n=40 v=0
59448 On ch=1 n=64 v=0
59449 On ch=1 n=59 v=0
59470 On ch=1 n=56 v=52
59470 On ch=1 n=59 v=41
59476 On ch=1 n=40 v=66
59486 On ch=1 n=56 v=0
59488 On ch=1 n=40 v=0
59490 On ch=1 n=59 v=0
59513 On ch=1 n=40 v=57
59513 On ch=1 n=56 v=57
59513 On ch=1 n=59 v=47
59523 On ch=1 n=56 v=0
59527 On ch=1 n=59 v=0
59532 On ch=1 n=40 v=0
59557 On ch=1 n=69 v=81
59570 Par ch=1 c=64 v=0
59598 On ch=1 n=66 v=57
59601 On ch=1 n=51 v=57
59601 On ch=1 n=59 v=66
59602 On ch=1 n=40 v=50
59606 Par ch=1 c=64 v=127
59612 On ch=1 n=40 v=0
59615 On ch=1 n=66 v=0
59616 On ch=1 n=59 v=0
59620 On ch=1 n=51 v=0
59648 On ch=1 n=66 v=41
59648 On ch=1 n=59 v=59
59648 On ch=1 n=40 v=54
59648 On ch=1 n=51 v=57
59660 On ch=1 n=59 v=0
59661 On ch=1 n=40 v=0
59662 On ch=1 n=66 v=0
59665 On ch=1 n=51 v=0
59687 On ch=1 n=51 v=59
59688 On ch=1 n=66 v=52
59689 On ch=1 n=40 v=59
59691 On ch=1 n=59 v=57
59701 On ch=1 n=40 v=0
59704 On ch=1 n=51 v=0
59718 On ch=1 n=59 v=0
59730 On ch=1 n=68 v=86
59734 Par ch=1 c=64 v=0
59742 On ch=1 n=69 v=0
59746 On ch=1 n=66 v=0
59764 Par ch=1 c=64 v=127
59773 On ch=1 n=59 v=52
59773 On ch=1 n=40 v=59
59775 On ch=1 n=64 v=69
59776 On ch=1 n=52 v=35
59782 On ch=1 n=40 v=0
59785 On ch=1 n=64 v=0
59786 On ch=1 n=59 v=0
59787 On ch=1 n=52 v=0
59819 On ch=1 n=59 v=59
59820 On ch=1 n=40 v=52
59820 On ch=1 n=52 v=54
59820 On ch=1 n=64 v=73
59829 On ch=1 n=40 v=0
59829 On ch=1 n=68 v=0
59830 On ch=1 n=52 v=0
59832 On ch=1 n=59 v=0
59834 On ch=1 n=64 v=0
59857 On ch=1 n=64 v=66
59859 On ch=1 n=59 v=57
59860 On ch=1 n=52 v=69
59862 On ch=1 n=40 v=52
59868 On ch=1 n=59 v=0
59870 On ch=1 n=52 v=0
59872 On ch=1 n=64 v=0
59874 On ch=1 n=40 v=0
59903 Par ch=1 c=64 v=0
59905 On ch=1 n=75 v=81
59938 Par ch=1 c=64 v=127
59947 On ch=1 n=52 v=66
59948 On ch=1 n=63 v=69
59950 On ch=1 n=42 v=47
59952 On ch=1 n=45 v=59
59952 On ch=1 n=71 v=69
59960 On ch=1 n=45 v=0
59962 On ch=1 n=63 v=0
59962 On ch=1 n=71 v=0
59964 On ch=1 n=42 v=0
59965 On ch=1 n=52 v=0
59990 On ch=1 n=63 v=66
59994 On ch=1 n=71 v=52
59995 On ch=1 n=42 v=54
59996 On ch=1 n=52 v=66
59997 On ch=1 n=40 v=45
59998 On ch=1 n=45 v=52
60008 On ch=1 n=40 v=0
60009 On ch=1 n=63 v=0
60009 On ch=1 n=45 v=0
60010 On ch=1 n=52 v=0
60013 On ch=1 n=71 v=0
60014 On ch=1 n=42 v=0
60031 On ch=1 n=42 v=41
60034 On ch=1 n=52 v=59
60034 On ch=1 n=71 v=57
60034 On ch=1 n=63 v=69
60036 On ch=1 n=45 v=59
60039 On ch=1 n=75 v=0
60039 On ch=1 n=40 v=33
60046 On ch=1 n=45 v=0
60048 On ch=1 n=40 v=0
60049 On ch=1 n=63 v=0
60051 On ch=1 n=52 v=0
60053 On ch=1 n=42 v=0
60074 On ch=1 n=71 v=0
60076 On ch=1 n=76 v=102
60083 Par ch=1 c=64 v=0
60116 Par ch=1 c=64 v=127
60120 On ch=1 n=71 v=59
60120 On ch=1 n=44 v=57
60122 On ch=1 n=52 v=59
60122 On ch=1 n=40 v=59
60122 On ch=1 n=64 v=52
60136 On ch=1 n=40 v=0
60137 On ch=1 n=52 v=0
60137 On ch=1 n=64 v=0
60138 On ch=1 n=44 v=0
60141 On ch=1 n=71 v=0
60166 On ch=1 n=44 v=47
60167 On ch=1 n=71 v=59
60168 On ch=1 n=40 v=57
60169 On ch=1 n=52 v=59
60169 On ch=1 n=64 v=66
60178 On ch=1 n=64 v=0
60178 On ch=1 n=52 v=0
60180 On ch=1 n=40 v=0
60184 On ch=1 n=44 v=0
60186 On ch=1 n=71 v=0
60189 On ch=1 n=76 v=0
60206 On ch=1 n=71 v=66
60208 On ch=1 n=44 v=50
60209 On ch=1 n=64 v=73
60209 On ch=1 n=52 v=59
60212 On ch=1 n=40 v=50
60218 On ch=1 n=64 v=0
60222 On ch=1 n=40 v=0
60222 On ch=1 n=71 v=0
60225 On ch=1 n=52 v=0
60229 On ch=1 n=44 v=0
60252 On ch=1 n=81 v=102
60259 Par ch=1 c=64 v=0
60292 Par ch=1 c=64 v=127
60295 On ch=1 n=78 v=69
60295 On ch=1 n=51 v=66
60296 On ch=1 n=40 v=69
60296 On ch=1 n=71 v=73
60310 On ch=1 n=71 v=0
60310 On ch=1 n=51 v=0
60311 On ch=1 n=40 v=0
60312 On ch=1 n=78 v=0
60338 On ch=1 n=78 v=59
60340 On ch=1 n=71 v=73
60340 On ch=1 n=51 v=57
60342 On ch=1 n=40 v=59
60351 On ch=1 n=40 v=0
60354 On ch=1 n=71 v=0
60355 On ch=1 n=78 v=0
60357 On ch=1 n=51 v=0
60381 On ch=1 n=51 v=66
60382 On ch=1 n=40 v=66
60382 On ch=1 n=78 v=73
60383 On ch=1 n=71 v=73
60394 On ch=1 n=81 v=0
60396 On ch=1 n=51 v=0
60400 On ch=1 n=40 v=0
60401 On ch=1 n=71 v=0
60416 On ch=1 n=78 v=0
60424 On ch=1 n=80 v=81
60430 Par ch=1 c=64 v=0
60463 Par ch=1 c=64 v=127
60466 On ch=1 n=52 v=73
60466 On ch=1 n=40 v=69
60466 On ch=1 n=71 v=77
60467 On ch=1 n=76 v=86
60478 On ch=1 n=71 v=0
60478 On ch=1 n=40 v=0
60479 On ch=1 n=52 v=0
60485 On ch=1 n=76 v=0
60506 On ch=1 n=76 v=57
60508 On ch=1 n=71 v=73
60509 On ch=1 n=52 v=73
60509 On ch=1 n=40 v=73
60520 On ch=1 n=52 v=0
60524 On ch=1 n=71 v=0
60525 On ch=1 n=40 v=0
60526 On ch=1 n=76 v=0
60540 On ch=1 n=80 v=0
60551 On ch=1 n=40 v=69
60551 On ch=1 n=52 v=69
60553 On ch=1 n=71 v=77
60554 On ch=1 n=76 v=77
60562 On ch=1 n=71 v=0
60566 On ch=1 n=52 v=0
60570 On ch=1 n=76 v=0
60571 On ch=1 n=40 v=0
60593 Par ch=1 c=64 v=0
60596 On ch=1 n=87 v=86
60628 Par ch=1 c=64 v=127
60631 On ch=1 n=42 v=57
60633 On ch=1 n=52 v=57
60635 On ch=1 n=75 v=69
60637 On ch=1 n=45 v=59
60642 On ch=1 n=40 v=23
60643 On ch=1 n=83 v=69
60645 On ch=1 n=45 v=0
60649 On ch=1 n=52 v=0
60650 On ch=1 n=75 v=0
60652 On ch=1 n=42 v=0
60653 On ch=1 n=40 v=0
60654 On ch=1 n=83 v=0
60678 On ch=1 n=75 v=69
60679 On ch=1 n=42 v=54
60680 On ch=1 n=52 v=69
60682 On ch=1 n=83 v=73
60683 On ch=1 n=40 v=45
60686 On ch=1 n=45 v=57
60694 On ch=1 n=75 v=0
60695 On ch=1 n=40 v=0
60695 On ch=1 n=45 v=0
60696 On ch=1 n=52 v=0
60699 On ch=1 n=83 v=0
60700 On ch=1 n=42 v=0
60705 On ch=1 n=87 v=0
60718 On ch=1 n=75 v=81
60720 On ch=1 n=83 v=77
60721 On ch=1 n=42 v=45
60722 On ch=1 n=52 v=54
60724 On ch=1 n=45 v=66
60727 On ch=1 n=40 v=33
60734 On ch=1 n=45 v=0
60735 On ch=1 n=75 v=0
60737 On ch=1 n=40 v=0
60740 On ch=1 n=52 v=0
60742 On ch=1 n=42 v=0
60748 On ch=1 n=83 v=0
60761 On ch=1 n=88 v=86
60767 Par ch=1 c=64 v=0
60801 Par ch=1 c=64 v=127
60806 On ch=1 n=44 v=57
60808 On ch=1 n=76 v=32
60808 On ch=1 n=52 v=59
60810 On ch=1 n=83 v=47
60812 On ch=1 n=40 v=50
60817 On ch=1 n=52 v=0
60821 On ch=1 n=83 v=0
60822 On ch=1 n=76 v=0
60823 On ch=1 n=40 v=0
60825 On ch=1 n=44 v=0
60851 On ch=1 n=44 v=45
60852 On ch=1 n=76 v=54
60853 On ch=1 n=40 v=45
60856 On ch=1 n=52 v=38
60862 On ch=1 n=76 v=0
60864 On ch=1 n=40 v=0
60866 On ch=1 n=52 v=0
60868 On ch=1 n=44 v=0
60890 On ch=1 n=44 v=57
60893 On ch=1 n=76 v=66
60896 On ch=1 n=52 v=52
60897 On ch=1 n=83 v=52
60898 On ch=1 n=40 v=37
60902 On ch=1 n=76 v=0
60906 On ch=1 n=52 v=0
60909 On ch=1 n=44 v=0
60909 On ch=1 n=40 v=0
60918 On ch=1 n=83 v=0
60935 On ch=1 n=87 v=81
60941 On ch=1 n=88 v=0
60943 Par ch=1 c=64 v=0
60977 On ch=1 n=75 v=47
60978 On ch=1 n=42 v=45
60978 On ch=1 n=52 v=47
60979 Par ch=1 c=64 v=127
60980 On ch=1 n=83 v=66
60980 On ch=1 n=45 v=66
60988 On ch=1 n=45 v=0
60991 On ch=1 n=75 v=0
60992 On ch=1 n=52 v=0
60996 On ch=1 n=42 v=0
60998 On ch=1 n=83 v=0
61019 On ch=1 n=75 v=52
61022 On ch=1 n=83 v=38
61023 On ch=1 n=42 v=23
61023 On ch=1 n=52 v=52
61026 On ch=1 n=45 v=47
61028 On ch=1 n=40 v=32
61032 On ch=1 n=52 v=0
61033 On ch=1 n=75 v=0
61035 On ch=1 n=83 v=0
61036 On ch=1 n=45 v=0
61037 On ch=1 n=40 v=0
61039 On ch=1 n=42 v=0
61061 On ch=1 n=75 v=54
61063 On ch=1 n=52 v=57
61066 On ch=1 n=42 v=28
61069 On ch=1 n=87 v=0
61069 On ch=1 n=45 v=59
61069 On ch=1 n=83 v=50
61071 On ch=1 n=40 v=25
61076 On ch=1 n=52 v=0
61077 On ch=1 n=42 v=0
61078 On ch=1 n=45 v=0
61079 On ch=1 n=75 v=0
61082 On ch=1 n=40 v=0
61088 On ch=1 n=83 v=0
61109 On ch=1 n=88 v=77
61110 Par ch=1 c=64 v=0
61145 Par ch=1 c=64 v=127
61150 On ch=1 n=44 v=59
61152 On ch=1 n=76 v=66
61153 On ch=1 n=40 v=54
61154 On ch=1 n=52 v=50
61160 On ch=1 n=83 v=37
61165 On ch=1 n=52 v=0
61165 On ch=1 n=40 v=0
61167 On ch=1 n=76 v=0
61169 On ch=1 n=44 v=0
61170 On ch=1 n=83 v=0
61194 On ch=1 n=76 v=57
61195 On ch=1 n=44 v=37
61197 On ch=1 n=83 v=41
61199 On ch=1 n=52 v=57
61200 On ch=1 n=40 v=45
61211 On ch=1 n=52 v=0
61212 On ch=1 n=76 v=0
61214 On ch=1 n=40 v=0
61215 On ch=1 n=83 v=0
61220 On ch=1 n=44 v=0
61237 On ch=1 n=44 v=66
61238 On ch=1 n=76 v=66
61240 On ch=1 n=52 v=59
61240 On ch=1 n=83 v=52
61243 On ch=1 n=40 v=38
61254 On ch=1 n=40 v=0
61255 On ch=1 n=76 v=0
61255 On ch=1 n=52 v=0
61256 On ch=1 n=88 v=0
61257 On ch=1 n=44 v=0
61271 On ch=1 n=83 v=0
61281 On ch=1 n=87 v=77
61287 Par ch=1 c=64 v=0
61322 On ch=1 n=52 v=54
61323 On ch=1 n=42 v=41
61324 On ch=1 n=83 v=66
61324 On ch=1 n=75 v=47
61326 On ch=1 n=45 v=54
61326 Par ch=1 c=64 v=127
61334 On ch=1 n=45 v=0
61335 On ch=1 n=75 v=0
61339 On ch=1 n=42 v=0
61342 On ch=1 n=52 v=0
61344 On ch=1 n=83 v=0
61371 On ch=1 n=42 v=41
61372 On ch=1 n=52 v=50
61373 On ch=1 n=75 v=21
61373 On ch=1 n=83 v=47
61374 On ch=1 n=45 v=57
61382 On ch=1 n=75 v=0
61384 On ch=1 n=52 v=0
61385 On ch=1 n=83 v=0
61385 On ch=1 n=45 v=0
61390 On ch=1 n=42 v=0
61395 On ch=1 n=87 v=0
61407 On ch=1 n=75 v=59
61412 On ch=1 n=52 v=54
61413 On ch=1 n=83 v=47
61413 On ch=1 n=42 v=32
61415 On ch=1 n=45 v=59
61416 On ch=1 n=40 v=32
61423 On ch=1 n=75 v=0
61424 On ch=1 n=45 v=0
61426 On ch=1 n=52 v=0
61428 On ch=1 n=42 v=0
61428 On ch=1 n=40 v=0
61430 On ch=1 n=83 v=0
61457 On ch=1 n=88 v=73
61458 Par ch=1 c=64 v=0
61498 Par ch=1 c=64 v=127
61500 On ch=1 n=44 v=52
61502 On ch=1 n=52 v=57
61503 On ch=1 n=76 v=47
61503 On ch=1 n=47 v=52
61506 On ch=1 n=83 v=57
61507 On ch=1 n=40 v=24
61512 On ch=1 n=47 v=0
61512 On ch=1 n=52 v=0
61514 On ch=1 n=76 v=0
61516 On ch=1 n=40 v=0
61517 On ch=1 n=44 v=0
61518 On ch=1 n=83 v=0
61546 On ch=1 n=44 v=37
61548 On ch=1 n=83 v=35
61548 On ch=1 n=80 v=40
61548 On ch=1 n=52 v=50
61549 On ch=1 n=47 v=41
61550 On ch=1 n=76 v=41
61557 On ch=1 n=52 v=0
61558 On ch=1 n=44 v=0
61558 On ch=1 n=47 v=0
61560 On ch=1 n=76 v=0
61562 On ch=1 n=80 v=0
61562 On ch=1 n=83 v=0
61590 On ch=1 n=80 v=47
61590 On ch=1 n=47 v=57
61591 On ch=1 n=52 v=52
61591 On ch=1 n=44 v=45
61593 On ch=1 n=76 v=45
61594 On ch=1 n=83 v=54
61595 On ch=1 n=88 v=0
61600 On ch=1 n=52 v=0
61600 On ch=1 n=47 v=0
61602 On ch=1 n=44 v=0
61608 On ch=1 n=76 v=0
61614 On ch=1 n=80 v=0
61621 On ch=1 n=83 v=0
61636 On ch=1 n=88 v=69
61637 Par ch=1 c=64 v=0
61677 Par ch=1 c=64 v=127
61681 On ch=1 n=76 v=45
61682 On ch=1 n=44 v=47
61682 On ch=1 n=52 v=59
61682 On ch=1 n=83 v=52
61685 On ch=1 n=80 v=35
61685 On ch=1 n=47 v=57
61686 On ch=1 n=40 v=38
61692 On ch=1 n=83 v=0
61692 On ch=1 n=52 v=0
61693 On ch=1 n=80 v=0
61695 On ch=1 n=76 v=0
61696 On ch=1 n=40 v=0
61696 On ch=1 n=47 v=0
61699 On ch=1 n=44 v=0
61728 On ch=1 n=76 v=45
61730 On ch=1 n=47 v=41
61730 On ch=1 n=83 v=41
61730 On ch=1 n=40 v=38
61730 On ch=1 n=80 v=29
61733 On ch=1 n=44 v=21
61733 On ch=1 n=52 v=38
61740 On ch=1 n=83 v=0
61740 On ch=1 n=47 v=0
61741 On ch=1 n=40 v=0
61741 On ch=1 n=76 v=0
61743 On ch=1 n=80 v=0
61744 On ch=1 n=44 v=0
61745 On ch=1 n=52 v=0
61772 On ch=1 n=83 v=57
61773 On ch=1 n=52 v=47
61773 On ch=1 n=76 v=52
61773 On ch=1 n=80 v=40
61773 On ch=1 n=44 v=35
61774 On ch=1 n=40 v=41
61776 On ch=1 n=47 v=47
61781 On ch=1 n=88 v=0
61784 On ch=1 n=40 v=0
61784 On ch=1 n=52 v=0
61786 On ch=1 n=47 v=0
61788 On ch=1 n=44 v=0
61794 On ch=1 n=76 v=0
61800 On ch=1 n=83 v=0
61805 On ch=1 n=80 v=0
61821 On ch=1 n=88 v=66
61827 Par ch=1 c=64 v=0
61925 On ch=1 n=44 v=40
61927 On ch=1 n=52 v=47
61927 On ch=1 n=40 v=45
61928 On ch=1 n=83 v=45
61930 On ch=1 n=80 v=41
61930 On ch=1 n=76 v=33
61935 On ch=1 n=47 v=47
62186 On ch=1 n=88 v=0
62197 On ch=1 n=76 v=0
62201 On ch=1 n=83 v=0
62208 On ch=1 n=47 v=0
62208 On ch=1 n=40 v=0
62210 On ch=1 n=52 v=0
62211 On ch=1 n=44 v=0
62213 On ch=1 n=80 v=0