0 On ch=1 n=87 v=96
0 On ch=1 n=82 v=96
59 On ch=1 n=82 v=0
59 On ch=1 n=87 v=0
360 On ch=1 n=82 v=96
360 On ch=1 n=87 v=96
419 On ch=1 n=87 v=0
419 On ch=1 n=82 v=0
4560 On ch=1 n=82 v=48
4800 On ch=1 n=84 v=48
4809 On ch=1 n=82 v=0
4920 On ch=1 n=86 v=56
4929 On ch=1 n=84 v=0
5039 On ch=1 n=86 v=0
5040 On ch=1 n=87 v=48
5280 On ch=1 n=91 v=48
5289 On ch=1 n=87 v=0
5400 On ch=1 n=87 v=48
5409 On ch=1 n=91 v=0
5640 On ch=1 n=82 v=48
5649 On ch=1 n=87 v=0
5760 On ch=1 n=87 v=48
5769 On ch=1 n=82 v=0
5879 On ch=1 n=87 v=0
7080 On ch=1 n=79 v=48
7200 On ch=1 n=80 v=48
7209 On ch=1 n=79 v=0
7320 On ch=1 n=84 v=48
7329 On ch=1 n=80 v=0
7440 On ch=1 n=75 v=48
7440 On ch=1 n=87 v=48
7449 On ch=1 n=84 v=0
7559 On ch=1 n=75 v=0
7560 On ch=1 n=80 v=48
7569 On ch=1 n=87 v=0
7680 On ch=1 n=75 v=48
7799 On ch=1 n=75 v=0
7800 On ch=1 n=81 v=64
7800 On ch=1 n=75 v=64
7809 On ch=1 n=80 v=0
7919 On ch=1 n=75 v=0
7920 On ch=1 n=74 v=96
7920 On ch=1 n=82 v=96
7929 On ch=1 n=81 v=0
7949 On ch=1 n=82 v=0
7949 On ch=1 n=74 v=0
7950 On ch=1 n=82 v=48
7950 On ch=1 n=74 v=48
8519 On ch=1 n=74 v=0
8519 On ch=1 n=82 v=0
8520 On ch=1 n=80 v=48
8520 On ch=1 n=86 v=48
8639 On ch=1 n=86 v=0
8639 On ch=1 n=80 v=0
8640 On ch=1 n=87 v=48
8640 On ch=1 n=79 v=48
8699 On ch=1 n=79 v=0
8699 On ch=1 n=87 v=0
8760 On ch=1 n=87 v=96
8760 On ch=1 n=81 v=96
8999 On ch=1 n=81 v=0
8999 On ch=1 n=87 v=0
9000 On ch=1 n=87 v=96
9000 On ch=1 n=81 v=96
9239 On ch=1 n=81 v=0
9239 On ch=1 n=87 v=0
9240 On ch=1 n=87 v=96
9240 On ch=1 n=81 v=96
9359 On ch=1 n=81 v=0
9359 On ch=1 n=87 v=0
9360 On ch=1 n=86 v=96
9360 On ch=1 n=82 v=96
9389 On ch=1 n=82 v=0
9389 On ch=1 n=86 v=0
9390 On ch=1 n=82 v=48
9390 On ch=1 n=86 v=48
9959 On ch=1 n=86 v=0
9959 On ch=1 n=82 v=0
9960 On ch=1 n=82 v=96
10199 On ch=1 n=82 v=0
10200 On ch=1 n=86 v=96
10200 On ch=1 n=82 v=96
10439 On ch=1 n=82 v=0
10439 On ch=1 n=86 v=0
10440 On ch=1 n=86 v=96
10440 On ch=1 n=82 v=96
10679 On ch=1 n=82 v=0
10679 On ch=1 n=86 v=0
10680 On ch=1 n=86 v=96
10680 On ch=1 n=82 v=96
10919 On ch=1 n=82 v=0
10919 On ch=1 n=86 v=0
10920 On ch=1 n=82 v=96
10920 On ch=1 n=87 v=96
11159 On ch=1 n=87 v=0
11159 On ch=1 n=82 v=0
11160 On ch=1 n=82 v=96
11160 On ch=1 n=87 v=96
11399 On ch=1 n=87 v=0
11399 On ch=1 n=82 v=0
11400 On ch=1 n=82 v=96
11400 On ch=1 n=87 v=96
11639 On ch=1 n=87 v=0
11639 On ch=1 n=82 v=0
11640 On ch=1 n=86 v=90
11640 On ch=1 n=82 v=90
11699 On ch=1 n=82 v=0
11699 On ch=1 n=86 v=0
11760 On ch=1 n=86 v=96
11760 On ch=1 n=82 v=96
11999 On ch=1 n=82 v=0
11999 On ch=1 n=86 v=0
12000 On ch=1 n=86 v=90
12000 On ch=1 n=82 v=90
12059 On ch=1 n=82 v=0
12059 On ch=1 n=86 v=0
12120 On ch=1 n=82 v=96
12120 On ch=1 n=87 v=96
12240 On ch=1 n=86 v=96
12249 On ch=1 n=87 v=0
12359 On ch=1 n=86 v=0
12359 On ch=1 n=82 v=0
12360 On ch=1 n=70 v=96
12389 On ch=1 n=70 v=0
12420 On ch=1 n=72 v=99
12449 On ch=1 n=72 v=0
12480 On ch=1 n=74 v=102
12509 On ch=1 n=74 v=0
12540 On ch=1 n=75 v=105
12569 On ch=1 n=75 v=0
12600 On ch=1 n=77 v=108
12629 On ch=1 n=77 v=0
12660 On ch=1 n=79 v=111
12689 On ch=1 n=79 v=0
12720 On ch=1 n=80 v=114
12749 On ch=1 n=80 v=0
12780 On ch=1 n=82 v=117
12809 On ch=1 n=82 v=0
12840 On ch=1 n=84 v=120
12869 On ch=1 n=84 v=0
12900 On ch=1 n=86 v=123
12929 On ch=1 n=86 v=0
12960 On ch=1 n=87 v=127
13200 On ch=1 n=79 v=127
13200 On ch=1 n=91 v=127
13209 On ch=1 n=87 v=0
13320 On ch=1 n=87 v=127
13320 On ch=1 n=75 v=127
13329 On ch=1 n=91 v=0
13329 On ch=1 n=79 v=0
13560 On ch=1 n=70 v=127
13560 On ch=1 n=82 v=127
13569 On ch=1 n=87 v=0
13569 On ch=1 n=75 v=0
13680 On ch=1 n=87 v=127
13680 On ch=1 n=75 v=127
13689 On ch=1 n=70 v=0
13689 On ch=1 n=82 v=0
13799 On ch=1 n=87 v=0
13800 On ch=1 n=87 v=127
13800 On ch=1 n=91 v=127
13809 On ch=1 n=75 v=0
13919 On ch=1 n=91 v=0
13919 On ch=1 n=87 v=0
13920 On ch=1 n=87 v=127
13920 On ch=1 n=91 v=127
14039 On ch=1 n=91 v=0
14039 On ch=1 n=87 v=0
14040 On ch=1 n=91 v=127
14040 On ch=1 n=87 v=127
14519 On ch=1 n=87 v=0
14519 On ch=1 n=91 v=0
14520 On ch=1 n=91 v=127
14520 On ch=1 n=87 v=127
14639 On ch=1 n=87 v=0
14639 On ch=1 n=91 v=0
14640 On ch=1 n=87 v=127
14640 On ch=1 n=91 v=127
14759 On ch=1 n=91 v=0
14759 On ch=1 n=87 v=0
14760 On ch=1 n=91 v=127
14760 On ch=1 n=87 v=127
14999 On ch=1 n=87 v=0
14999 On ch=1 n=91 v=0
15000 On ch=1 n=91 v=127
15000 On ch=1 n=85 v=127
15119 On ch=1 n=85 v=0
15119 On ch=1 n=91 v=0
15120 On ch=1 n=92 v=127
15120 On ch=1 n=84 v=127
15240 On ch=1 n=87 v=127
15249 On ch=1 n=92 v=0
15359 On ch=1 n=87 v=0
15360 On ch=1 n=87 v=127
15479 On ch=1 n=87 v=0
15480 On ch=1 n=88 v=127
15540 On ch=1 n=82 v=127
15549 On ch=1 n=84 v=0
15600 On ch=1 n=81 v=127
15609 On ch=1 n=82 v=0
15660 On ch=1 n=82 v=127
15669 On ch=1 n=81 v=0
15720 On ch=1 n=84 v=127
15729 On ch=1 n=82 v=0
15780 On ch=1 n=82 v=127
15789 On ch=1 n=84 v=0
15840 On ch=1 n=81 v=127
15840 On ch=1 n=89 v=127
15849 On ch=1 n=82 v=0
15849 On ch=1 n=88 v=0
15959 On ch=1 n=81 v=0
15959 On ch=1 n=89 v=0
16680 On ch=1 n=87 v=48
16860 On ch=1 n=84 v=48
16869 On ch=1 n=87 v=0
16920 On ch=1 n=81 v=48
16929 On ch=1 n=84 v=0
17039 On ch=1 n=81 v=0
18120 On ch=1 n=86 v=48
18300 On ch=1 n=82 v=48
18309 On ch=1 n=86 v=0
18360 On ch=1 n=77 v=48
18369 On ch=1 n=82 v=0
18479 On ch=1 n=77 v=0
19560 On ch=1 n=91 v=127
19560 On ch=1 n=79 v=127
19739 On ch=1 n=79 v=0
19739 On ch=1 n=91 v=0
19740 On ch=1 n=77 v=127
19740 On ch=1 n=89 v=127
19799 On ch=1 n=89 v=0
19799 On ch=1 n=77 v=0
19800 On ch=1 n=87 v=127
19800 On ch=1 n=75 v=127
19859 On ch=1 n=75 v=0
19859 On ch=1 n=87 v=0
19920 On ch=1 n=86 v=127
19920 On ch=1 n=74 v=127
19979 On ch=1 n=74 v=0
19979 On ch=1 n=86 v=0
20040 On ch=1 n=84 v=127
20040 On ch=1 n=72 v=127
20099 On ch=1 n=72 v=0
20099 On ch=1 n=84 v=0
20160 On ch=1 n=82 v=48
20160 On ch=1 n=70 v=48
20279 On ch=1 n=70 v=0
20279 On ch=1 n=82 v=0
21600 On ch=1 n=70 v=48
21600 On ch=1 n=82 v=48
22379 On ch=1 n=82 v=0
22379 On ch=1 n=70 v=0
22380 On ch=1 n=82 v=74
22380 On ch=1 n=74 v=74
22409 On ch=1 n=74 v=0
22409 On ch=1 n=82 v=0
22440 On ch=1 n=72 v=76
22440 On ch=1 n=81 v=76
22469 On ch=1 n=81 v=0
22469 On ch=1 n=72 v=0
22500 On ch=1 n=82 v=78
22500 On ch=1 n=74 v=78
22529 On ch=1 n=74 v=0
22529 On ch=1 n=82 v=0
22560 On ch=1 n=81 v=80
22560 On ch=1 n=84 v=80
22589 On ch=1 n=84 v=0
22589 On ch=1 n=81 v=0
22620 On ch=1 n=82 v=82
22620 On ch=1 n=86 v=82
22649 On ch=1 n=86 v=0
22649 On ch=1 n=82 v=0
22680 On ch=1 n=87 v=84
22680 On ch=1 n=84 v=84
22709 On ch=1 n=84 v=0
22709 On ch=1 n=87 v=0
22740 On ch=1 n=87 v=86
22740 On ch=1 n=84 v=86
22769 On ch=1 n=84 v=0
22769 On ch=1 n=87 v=0
22800 On ch=1 n=87 v=88
22800 On ch=1 n=84 v=88
22829 On ch=1 n=84 v=0
22829 On ch=1 n=87 v=0
22860 On ch=1 n=87 v=90
22860 On ch=1 n=84 v=90
22889 On ch=1 n=84 v=0
22889 On ch=1 n=87 v=0
22920 On ch=1 n=87 v=92
22920 On ch=1 n=84 v=92
22949 On ch=1 n=84 v=0
22949 On ch=1 n=87 v=0
22980 On ch=1 n=87 v=94
22980 On ch=1 n=84 v=94
23009 On ch=1 n=84 v=0
23009 On ch=1 n=87 v=0
23040 On ch=1 n=84 v=96
23040 On ch=1 n=87 v=96
23099 On ch=1 n=87 v=0
23099 On ch=1 n=84 v=0
23160 On ch=1 n=84 v=96
23160 On ch=1 n=87 v=96
23219 On ch=1 n=87 v=0
23219 On ch=1 n=84 v=0
23700 On ch=1 n=87 v=96
23700 On ch=1 n=81 v=96
23729 On ch=1 n=81 v=0
23729 On ch=1 n=87 v=0
23760 On ch=1 n=82 v=96
23760 On ch=1 n=86 v=96
23819 On ch=1 n=86 v=0
23819 On ch=1 n=82 v=0
23880 On ch=1 n=86 v=96
23880 On ch=1 n=82 v=96
23939 On ch=1 n=82 v=0
23939 On ch=1 n=86 v=0
24420 On ch=1 n=82 v=96
24420 On ch=1 n=86 v=96
24449 On ch=1 n=86 v=0
24449 On ch=1 n=82 v=0
24480 On ch=1 n=86 v=96
24480 On ch=1 n=83 v=96
24539 On ch=1 n=83 v=0
24539 On ch=1 n=86 v=0
24600 On ch=1 n=83 v=96
24600 On ch=1 n=86 v=96
24659 On ch=1 n=86 v=0
24659 On ch=1 n=83 v=0
25140 On ch=1 n=83 v=96
25140 On ch=1 n=74 v=96
25169 On ch=1 n=74 v=0
25169 On ch=1 n=83 v=0
25200 On ch=1 n=79 v=96
25200 On ch=1 n=84 v=96
25229 On ch=1 n=84 v=0
25229 On ch=1 n=79 v=0
25260 On ch=1 n=84 v=96
25260 On ch=1 n=79 v=96
25379 On ch=1 n=79 v=0
25379 On ch=1 n=84 v=0
25380 On ch=1 n=79 v=96
25380 On ch=1 n=84 v=96
25409 On ch=1 n=84 v=0
25409 On ch=1 n=79 v=0
25440 On ch=1 n=84 v=96
25440 On ch=1 n=81 v=96
25469 On ch=1 n=81 v=0
25469 On ch=1 n=84 v=0
25500 On ch=1 n=81 v=96
25500 On ch=1 n=86 v=96
25529 On ch=1 n=86 v=0
25529 On ch=1 n=81 v=0
25560 On ch=1 n=86 v=96
25560 On ch=1 n=82 v=96
25589 On ch=1 n=82 v=0
25589 On ch=1 n=86 v=0
25620 On ch=1 n=82 v=96
25620 On ch=1 n=87 v=96
25739 On ch=1 n=87 v=0
25739 On ch=1 n=82 v=0
25740 On ch=1 n=87 v=96
25740 On ch=1 n=82 v=96
25769 On ch=1 n=82 v=0
25769 On ch=1 n=87 v=0
25800 On ch=1 n=84 v=96
25800 On ch=1 n=87 v=96
25829 On ch=1 n=87 v=0
25829 On ch=1 n=84 v=0
25860 On ch=1 n=89 v=96
25860 On ch=1 n=84 v=96
25889 On ch=1 n=84 v=0
25889 On ch=1 n=89 v=0
25920 On ch=1 n=86 v=96
25920 On ch=1 n=82 v=96
26039 On ch=1 n=82 v=0
26039 On ch=1 n=86 v=0
26040 On ch=1 n=82 v=96
26040 On ch=1 n=86 v=96
26159 On ch=1 n=82 v=0
26160 On ch=1 n=82 v=96
26160 On ch=1 n=87 v=96
26169 On ch=1 n=86 v=0
26279 On ch=1 n=82 v=0
26280 On ch=1 n=82 v=96
26280 On ch=1 n=88 v=96
26289 On ch=1 n=87 v=0
26399 On ch=1 n=82 v=0
26400 On ch=1 n=82 v=96
26400 On ch=1 n=89 v=96
26409 On ch=1 n=88 v=0
26520 On ch=1 n=91 v=96
26529 On ch=1 n=89 v=0
26580 On ch=1 n=90 v=96
26589 On ch=1 n=91 v=0
26640 On ch=1 n=91 v=96
26649 On ch=1 n=90 v=0
26700 On ch=1 n=90 v=96
26709 On ch=1 n=91 v=0
26760 On ch=1 n=83 v=96
26760 On ch=1 n=91 v=96
26769 On ch=1 n=90 v=0
26769 On ch=1 n=82 v=0
26820 On ch=1 n=86 v=96
26829 On ch=1 n=91 v=0
26879 On ch=1 n=86 v=0
26879 On ch=1 n=83 v=0
26880 On ch=1 n=84 v=96
26880 On ch=1 n=87 v=96
26940 On ch=1 n=86 v=96
26940 On ch=1 n=79 v=96
26949 On ch=1 n=87 v=0
26949 On ch=1 n=84 v=0
26999 On ch=1 n=79 v=0
27000 On ch=1 n=79 v=96
27000 On ch=1 n=89 v=96
27009 On ch=1 n=86 v=0
27059 On ch=1 n=79 v=0
27060 On ch=1 n=87 v=96
27060 On ch=1 n=79 v=96
27069 On ch=1 n=89 v=0
27119 On ch=1 n=79 v=0
27120 On ch=1 n=77 v=96
27120 On ch=1 n=86 v=96
27129 On ch=1 n=87 v=0
27180 On ch=1 n=84 v=96
27180 On ch=1 n=75 v=96
27189 On ch=1 n=86 v=0
27189 On ch=1 n=77 v=0
27240 On ch=1 n=82 v=96
27240 On ch=1 n=74 v=96
27249 On ch=1 n=84 v=0
27249 On ch=1 n=75 v=0
27359 On ch=1 n=82 v=0
27359 On ch=1 n=74 v=0
28080 On ch=1 n=89 v=96
28859 On ch=1 n=89 v=0
28860 On ch=1 n=88 v=127
28889 On ch=1 n=88 v=0
28920 On ch=1 n=87 v=127
28949 On ch=1 n=87 v=0
28980 On ch=1 n=86 v=127
29009 On ch=1 n=86 v=0
29040 On ch=1 n=84 v=127
29069 On ch=1 n=84 v=0
29100 On ch=1 n=82 v=127
29129 On ch=1 n=82 v=0
29160 On ch=1 n=81 v=127
29189 On ch=1 n=81 v=0
29220 On ch=1 n=91 v=127
29220 On ch=1 n=79 v=127
29249 On ch=1 n=79 v=0
29249 On ch=1 n=91 v=0
29280 On ch=1 n=89 v=127
29280 On ch=1 n=77 v=127
29309 On ch=1 n=77 v=0
29309 On ch=1 n=89 v=0
29340 On ch=1 n=75 v=127
29340 On ch=1 n=87 v=127
29369 On ch=1 n=87 v=0
29369 On ch=1 n=75 v=0
29400 On ch=1 n=86 v=127
29400 On ch=1 n=74 v=127
29429 On ch=1 n=74 v=0
29429 On ch=1 n=86 v=0
29460 On ch=1 n=84 v=127
29460 On ch=1 n=72 v=127
29489 On ch=1 n=72 v=0
29489 On ch=1 n=84 v=0
29520 On ch=1 n=82 v=127
29520 On ch=1 n=70 v=127
29639 On ch=1 n=70 v=0
29639 On ch=1 n=82 v=0
30360 On ch=1 n=86 v=88
30449 On ch=1 n=86 v=0
30480 On ch=1 n=86 v=96
30569 On ch=1 n=86 v=0
30600 On ch=1 n=86 v=88
30840 On ch=1 n=84 v=64
30849 On ch=1 n=86 v=0
30959 On ch=1 n=84 v=0
32280 On ch=1 n=89 v=96
32520 On ch=1 n=87 v=96
32529 On ch=1 n=89 v=0
32580 On ch=1 n=86 v=88
32589 On ch=1 n=87 v=0
32640 On ch=1 n=84 v=80
32649 On ch=1 n=86 v=0
32700 On ch=1 n=82 v=72
32709 On ch=1 n=84 v=0
32759 On ch=1 n=82 v=0
35040 On ch=1 n=84 v=56
35040 On ch=1 n=82 v=56
35129 On ch=1 n=82 v=0
35129 On ch=1 n=84 v=0
35160 On ch=1 n=84 v=56
35160 On ch=1 n=82 v=56
35249 On ch=1 n=82 v=0
35249 On ch=1 n=84 v=0
35280 On ch=1 n=84 v=48
35280 On ch=1 n=81 v=48
35399 On ch=1 n=81 v=0
35399 On ch=1 n=84 v=0
38400 On ch=1 n=75 v=75
38400 On ch=1 n=72 v=75
38429 On ch=1 n=72 v=0
38429 On ch=1 n=75 v=0
38460 On ch=1 n=77 v=78
38460 On ch=1 n=74 v=78
38489 On ch=1 n=74 v=0
38489 On ch=1 n=77 v=0
38520 On ch=1 n=79 v=80
38520 On ch=1 n=75 v=80
38549 On ch=1 n=75 v=0
38549 On ch=1 n=79 v=0
38580 On ch=1 n=81 v=83
38580 On ch=1 n=77 v=83
38609 On ch=1 n=77 v=0
38609 On ch=1 n=81 v=0
38640 On ch=1 n=82 v=86
38640 On ch=1 n=79 v=86
38669 On ch=1 n=79 v=0
38669 On ch=1 n=82 v=0
38700 On ch=1 n=84 v=89
38700 On ch=1 n=81 v=89
38729 On ch=1 n=81 v=0
38729 On ch=1 n=84 v=0
38760 On ch=1 n=86 v=92
38760 On ch=1 n=82 v=92
38789 On ch=1 n=82 v=0
38789 On ch=1 n=86 v=0
38820 On ch=1 n=87 v=94
38820 On ch=1 n=84 v=94
38849 On ch=1 n=84 v=0
38849 On ch=1 n=87 v=0
38880 On ch=1 n=89 v=96
38880 On ch=1 n=86 v=96
38999 On ch=1 n=86 v=0
38999 On ch=1 n=89 v=0
39000 On ch=1 n=86 v=112
39000 On ch=1 n=89 v=112
39239 On ch=1 n=89 v=0
39239 On ch=1 n=86 v=0
39360 On ch=1 n=89 v=112
39360 On ch=1 n=86 v=112
39599 On ch=1 n=86 v=0
39599 On ch=1 n=89 v=0
39720 On ch=1 n=89 v=112
39720 On ch=1 n=87 v=112
39959 On ch=1 n=87 v=0
39959 On ch=1 n=89 v=0
40080 On ch=1 n=89 v=112
40080 On ch=1 n=81 v=112
40199 On ch=1 n=81 v=0
40199 On ch=1 n=89 v=0
40200 On ch=1 n=84 v=96
40200 On ch=1 n=89 v=96
40319 On ch=1 n=89 v=0
40319 On ch=1 n=84 v=0
40320 On ch=1 n=89 v=127
40320 On ch=1 n=86 v=127
40379 On ch=1 n=86 v=0
40379 On ch=1 n=89 v=0
40440 On ch=1 n=89 v=127
40619 On ch=1 n=89 v=0
40620 On ch=1 n=86 v=127
40679 On ch=1 n=86 v=0
40680 On ch=1 n=82 v=127
40739 On ch=1 n=82 v=0
40800 On ch=1 n=86 v=127
40979 On ch=1 n=86 v=0
40980 On ch=1 n=77 v=127
41039 On ch=1 n=77 v=0
41040 On ch=1 n=84 v=127
41099 On ch=1 n=84 v=0
41160 On ch=1 n=87 v=127
41339 On ch=1 n=87 v=0
41340 On ch=1 n=77 v=127
41399 On ch=1 n=77 v=0
41400 On ch=1 n=81 v=127
41459 On ch=1 n=81 v=0
41520 On ch=1 n=84 v=127
41699 On ch=1 n=84 v=0
41700 On ch=1 n=81 v=127
41759 On ch=1 n=81 v=0
41760 On ch=1 n=89 v=127
41760 On ch=1 n=82 v=127
42060 On ch=1 n=88 v=127
42069 On ch=1 n=89 v=0
42120 On ch=1 n=89 v=127
42129 On ch=1 n=88 v=0
42179 On ch=1 n=89 v=0
42179 On ch=1 n=82 v=0
43620 On ch=1 n=86 v=127
43620 On ch=1 n=81 v=127
43649 On ch=1 n=81 v=0
43649 On ch=1 n=86 v=0
43680 On ch=1 n=82 v=127
43680 On ch=1 n=86 v=127
43709 On ch=1 n=86 v=0
43709 On ch=1 n=82 v=0
43740 On ch=1 n=91 v=127
43740 On ch=1 n=83 v=127
43769 On ch=1 n=83 v=0
43769 On ch=1 n=91 v=0
43800 On ch=1 n=84 v=127
43800 On ch=1 n=91 v=127
43829 On ch=1 n=91 v=0
43829 On ch=1 n=84 v=0
43860 On ch=1 n=91 v=127
43860 On ch=1 n=85 v=127
43889 On ch=1 n=85 v=0
43889 On ch=1 n=91 v=0
43920 On ch=1 n=90 v=127
43920 On ch=1 n=86 v=127
43979 On ch=1 n=86 v=0
43979 On ch=1 n=90 v=0
44040 On ch=1 n=86 v=127
44040 On ch=1 n=84 v=127
44099 On ch=1 n=84 v=0
44099 On ch=1 n=86 v=0
44160 On ch=1 n=86 v=127
44160 On ch=1 n=82 v=127
44219 On ch=1 n=82 v=0
44219 On ch=1 n=86 v=0
44400 On ch=1 n=83 v=127
44400 On ch=1 n=80 v=127
44459 On ch=1 n=80 v=0
44459 On ch=1 n=83 v=0
44520 On ch=1 n=84 v=127
44520 On ch=1 n=79 v=127
44579 On ch=1 n=79 v=0
44579 On ch=1 n=84 v=0
44760 On ch=1 n=84 v=127
44760 On ch=1 n=82 v=127
44819 On ch=1 n=82 v=0
44819 On ch=1 n=84 v=0
44880 On ch=1 n=81 v=127
44880 On ch=1 n=84 v=127
44939 On ch=1 n=84 v=0
44939 On ch=1 n=81 v=0
45120 On ch=1 n=86 v=127
45120 On ch=1 n=84 v=127
45179 On ch=1 n=84 v=0
45179 On ch=1 n=86 v=0
45240 On ch=1 n=82 v=127
45240 On ch=1 n=86 v=127
45299 On ch=1 n=86 v=0
45299 On ch=1 n=82 v=0
45480 On ch=1 n=83 v=127
45480 On ch=1 n=80 v=127
45539 On ch=1 n=80 v=0
45539 On ch=1 n=83 v=0
45600 On ch=1 n=79 v=127
45600 On ch=1 n=84 v=127
45659 On ch=1 n=84 v=0
45659 On ch=1 n=79 v=0
45840 On ch=1 n=84 v=127
45840 On ch=1 n=82 v=127
45899 On ch=1 n=82 v=0
45899 On ch=1 n=84 v=0
46080 On ch=1 n=82 v=127
46080 On ch=1 n=84 v=127
46139 On ch=1 n=84 v=0
46139 On ch=1 n=82 v=0
46320 On ch=1 n=84 v=127
46320 On ch=1 n=82 v=127
46379 On ch=1 n=82 v=0
46379 On ch=1 n=84 v=0
46560 On ch=1 n=82 v=127
46560 On ch=1 n=84 v=127
46619 On ch=1 n=84 v=0
46619 On ch=1 n=82 v=0
46800 On ch=1 n=84 v=127
46800 On ch=1 n=82 v=127
46859 On ch=1 n=82 v=0
46859 On ch=1 n=84 v=0
47040 On ch=1 n=82 v=127
47040 On ch=1 n=84 v=127
47099 On ch=1 n=84 v=0
47099 On ch=1 n=82 v=0
47520 On ch=1 n=82 v=96
47549 On ch=1 n=82 v=0
47550 On ch=1 n=82 v=48
47640 On ch=1 n=85 v=48
47649 On ch=1 n=82 v=0
47760 On ch=1 n=88 v=48
47769 On ch=1 n=85 v=0
47880 On ch=1 n=89 v=48
47889 On ch=1 n=88 v=0
48239 On ch=1 n=89 v=0
48240 On ch=1 n=82 v=96
48269 On ch=1 n=82 v=0
48270 On ch=1 n=82 v=48
48360 On ch=1 n=85 v=48
48369 On ch=1 n=82 v=0
48480 On ch=1 n=88 v=48
48489 On ch=1 n=85 v=0
48720 On ch=1 n=87 v=48
48729 On ch=1 n=88 v=0
48840 On ch=1 n=85 v=48
48849 On ch=1 n=87 v=0
49080 On ch=1 n=83 v=48
49089 On ch=1 n=85 v=0
49200 On ch=1 n=84 v=48
49209 On ch=1 n=83 v=0
49440 On ch=1 n=77 v=48
49449 On ch=1 n=84 v=0
49560 On ch=1 n=87 v=48
49569 On ch=1 n=77 v=0
49800 On ch=1 n=85 v=48
49809 On ch=1 n=87 v=0
49920 On ch=1 n=86 v=48
49929 On ch=1 n=85 v=0
50100 On ch=1 n=78 v=52
50109 On ch=1 n=86 v=0
50160 On ch=1 n=79 v=55
50169 On ch=1 n=78 v=0
50220 On ch=1 n=83 v=58
50229 On ch=1 n=79 v=0
50280 On ch=1 n=84 v=65
50289 On ch=1 n=83 v=0
50340 On ch=1 n=86 v=69
50349 On ch=1 n=84 v=0
50400 On ch=1 n=87 v=72
50409 On ch=1 n=86 v=0
50460 On ch=1 n=90 v=75
50469 On ch=1 n=87 v=0
50520 On ch=1 n=91 v=79
50529 On ch=1 n=90 v=0
50580 On ch=1 n=87 v=81
50589 On ch=1 n=91 v=0
50640 On ch=1 n=86 v=83
50649 On ch=1 n=87 v=0
50700 On ch=1 n=84 v=88
50709 On ch=1 n=86 v=0
50759 On ch=1 n=84 v=0
50760 On ch=1 n=82 v=91
50819 On ch=1 n=82 v=0
50820 On ch=1 n=86 v=93
50879 On ch=1 n=86 v=0
50880 On ch=1 n=89 v=97
50939 On ch=1 n=89 v=0
50940 On ch=1 n=89 v=101
50999 On ch=1 n=89 v=0
51000 On ch=1 n=89 v=105
51059 On ch=1 n=89 v=0
51060 On ch=1 n=89 v=109
51119 On ch=1 n=89 v=0
51120 On ch=1 n=87 v=127
51120 On ch=1 n=89 v=127
51359 On ch=1 n=87 v=0
51360 On ch=1 n=81 v=127
51479 On ch=1 n=81 v=0
51479 On ch=1 n=89 v=0
51480 On ch=1 n=82 v=96
51539 On ch=1 n=82 v=0
51840 On ch=1 n=82 v=96
51899 On ch=1 n=82 v=0
52200 On ch=1 n=82 v=96
52259 On ch=1 n=82 v=0
52560 On ch=1 n=87 v=96
52560 On ch=1 n=82 v=96
52619 On ch=1 n=82 v=0
52619 On ch=1 n=87 v=0
52680 On ch=1 n=82 v=96
52680 On ch=1 n=87 v=96
52739 On ch=1 n=87 v=0
52739 On ch=1 n=82 v=0
52800 On ch=1 n=87 v=96
52800 On ch=1 n=82 v=96
52859 On ch=1 n=82 v=0
52859 On ch=1 n=87 v=0
52920 On ch=1 n=82 v=96
52920 On ch=1 n=86 v=96
52979 On ch=1 n=86 v=0
52979 On ch=1 n=82 v=0
54960 On ch=1 n=80 v=96
54960 On ch=1 n=74 v=96
54989 On ch=1 n=74 v=0
54989 On ch=1 n=80 v=0
54990 On ch=1 n=74 v=48
54990 On ch=1 n=80 v=48
55080 On ch=1 n=79 v=48
55080 On ch=1 n=75 v=48
55089 On ch=1 n=80 v=0
55089 On ch=1 n=74 v=0
55199 On ch=1 n=79 v=0
55199 On ch=1 n=75 v=0
58920 On ch=1 n=82 v=48
59160 On ch=1 n=84 v=48
59169 On ch=1 n=82 v=0
59280 On ch=1 n=86 v=56
59289 On ch=1 n=84 v=0
59399 On ch=1 n=86 v=0
59400 On ch=1 n=87 v=48
59640 On ch=1 n=91 v=48
59649 On ch=1 n=87 v=0
59760 On ch=1 n=87 v=48
59769 On ch=1 n=91 v=0
60000 On ch=1 n=82 v=48
60009 On ch=1 n=87 v=0
60120 On ch=1 n=87 v=48
60129 On ch=1 n=82 v=0
60239 On ch=1 n=87 v=0
61440 On ch=1 n=79 v=48
61560 On ch=1 n=80 v=48
61569 On ch=1 n=79 v=0
61680 On ch=1 n=84 v=48
61689 On ch=1 n=80 v=0
61800 On ch=1 n=75 v=48
61800 On ch=1 n=87 v=48
61809 On ch=1 n=84 v=0
61919 On ch=1 n=75 v=0
61920 On ch=1 n=80 v=48
61929 On ch=1 n=87 v=0
62040 On ch=1 n=75 v=48
62159 On ch=1 n=75 v=0
62160 On ch=1 n=81 v=64
62160 On ch=1 n=75 v=64
62169 On ch=1 n=80 v=0
62279 On ch=1 n=75 v=0
62280 On ch=1 n=74 v=96
62280 On ch=1 n=82 v=96
62289 On ch=1 n=81 v=0
62309 On ch=1 n=82 v=0
62309 On ch=1 n=74 v=0
62310 On ch=1 n=82 v=48
62310 On ch=1 n=74 v=48
62879 On ch=1 n=74 v=0
62879 On ch=1 n=82 v=0
62880 On ch=1 n=80 v=48
62880 On ch=1 n=86 v=48
62999 On ch=1 n=86 v=0
62999 On ch=1 n=80 v=0
63000 On ch=1 n=87 v=48
63000 On ch=1 n=79 v=48
63059 On ch=1 n=79 v=0
63059 On ch=1 n=87 v=0
63120 On ch=1 n=87 v=96
63120 On ch=1 n=81 v=96
63359 On ch=1 n=81 v=0
63359 On ch=1 n=87 v=0
63360 On ch=1 n=87 v=96
63360 On ch=1 n=81 v=96
63599 On ch=1 n=81 v=0
63599 On ch=1 n=87 v=0
63600 On ch=1 n=87 v=96
63600 On ch=1 n=81 v=96
63719 On ch=1 n=81 v=0
63719 On ch=1 n=87 v=0
63720 On ch=1 n=86 v=96
63720 On ch=1 n=82 v=96
63749 On ch=1 n=82 v=0
63749 On ch=1 n=86 v=0
63750 On ch=1 n=82 v=48
63750 On ch=1 n=86 v=48
64319 On ch=1 n=86 v=0
64319 On ch=1 n=82 v=0
64320 On ch=1 n=82 v=96
64559 On ch=1 n=82 v=0
64560 On ch=1 n=86 v=96
64560 On ch=1 n=82 v=96
64799 On ch=1 n=82 v=0
64799 On ch=1 n=86 v=0
64800 On ch=1 n=86 v=96
64800 On ch=1 n=82 v=96
65039 On ch=1 n=82 v=0
65039 On ch=1 n=86 v=0
65040 On ch=1 n=86 v=96
65040 On ch=1 n=82 v=96
65279 On ch=1 n=82 v=0
65279 On ch=1 n=86 v=0
65280 On ch=1 n=82 v=96
65280 On ch=1 n=87 v=96
65519 On ch=1 n=87 v=0
65519 On ch=1 n=82 v=0
65520 On ch=1 n=82 v=96
65520 On ch=1 n=87 v=96
65759 On ch=1 n=87 v=0
65759 On ch=1 n=82 v=0
65760 On ch=1 n=82 v=96
65760 On ch=1 n=87 v=96
65999 On ch=1 n=87 v=0
65999 On ch=1 n=82 v=0
66000 On ch=1 n=86 v=90
66000 On ch=1 n=82 v=90
66059 On ch=1 n=82 v=0
66059 On ch=1 n=86 v=0
66120 On ch=1 n=86 v=96
66120 On ch=1 n=82 v=96
66359 On ch=1 n=82 v=0
66359 On ch=1 n=86 v=0
66360 On ch=1 n=86 v=90
66360 On ch=1 n=82 v=90
66419 On ch=1 n=82 v=0
66419 On ch=1 n=86 v=0
66480 On ch=1 n=82 v=96
66480 On ch=1 n=87 v=96
66600 On ch=1 n=86 v=96
66609 On ch=1 n=87 v=0
66719 On ch=1 n=86 v=0
66719 On ch=1 n=82 v=0
66720 On ch=1 n=70 v=96
66749 On ch=1 n=70 v=0
66780 On ch=1 n=72 v=99
66809 On ch=1 n=72 v=0
66840 On ch=1 n=74 v=102
66869 On ch=1 n=74 v=0
66900 On ch=1 n=75 v=105
66929 On ch=1 n=75 v=0
66960 On ch=1 n=77 v=108
66989 On ch=1 n=77 v=0
67020 On ch=1 n=79 v=111
67049 On ch=1 n=79 v=0
67080 On ch=1 n=80 v=114
67109 On ch=1 n=80 v=0
67140 On ch=1 n=82 v=117
67169 On ch=1 n=82 v=0
67200 On ch=1 n=84 v=120
67229 On ch=1 n=84 v=0
67260 On ch=1 n=86 v=123
67289 On ch=1 n=86 v=0
67320 On ch=1 n=87 v=127
67560 On ch=1 n=79 v=127
67560 On ch=1 n=91 v=127
67569 On ch=1 n=87 v=0
67680 On ch=1 n=87 v=127
67680 On ch=1 n=75 v=127
67689 On ch=1 n=91 v=0
67689 On ch=1 n=79 v=0
67920 On ch=1 n=70 v=127
67920 On ch=1 n=82 v=127
67929 On ch=1 n=87 v=0
67929 On ch=1 n=75 v=0
68040 On ch=1 n=87 v=127
68040 On ch=1 n=75 v=127
68049 On ch=1 n=70 v=0
68049 On ch=1 n=82 v=0
68159 On ch=1 n=87 v=0
68160 On ch=1 n=87 v=127
68160 On ch=1 n=91 v=127
68169 On ch=1 n=75 v=0
68279 On ch=1 n=91 v=0
68279 On ch=1 n=87 v=0
68280 On ch=1 n=87 v=127
68280 On ch=1 n=91 v=127
68399 On ch=1 n=91 v=0
68399 On ch=1 n=87 v=0
68400 On ch=1 n=91 v=127
68400 On ch=1 n=87 v=127
68879 On ch=1 n=87 v=0
68879 On ch=1 n=91 v=0
68880 On ch=1 n=91 v=127
68880 On ch=1 n=87 v=127
68999 On ch=1 n=87 v=0
68999 On ch=1 n=91 v=0
69000 On ch=1 n=87 v=127
69000 On ch=1 n=91 v=127
69119 On ch=1 n=91 v=0
69119 On ch=1 n=87 v=0
69120 On ch=1 n=91 v=127
69120 On ch=1 n=87 v=127
69359 On ch=1 n=87 v=0
69359 On ch=1 n=91 v=0
69360 On ch=1 n=91 v=127
69360 On ch=1 n=85 v=127
69479 On ch=1 n=85 v=0
69479 On ch=1 n=91 v=0
69480 On ch=1 n=92 v=127
69480 On ch=1 n=84 v=127
69600 On ch=1 n=87 v=127
69609 On ch=1 n=92 v=0
69719 On ch=1 n=87 v=0
69720 On ch=1 n=87 v=127
69839 On ch=1 n=87 v=0
69840 On ch=1 n=88 v=127
69900 On ch=1 n=82 v=127
69909 On ch=1 n=84 v=0
69960 On ch=1 n=81 v=127
69969 On ch=1 n=82 v=0
70020 On ch=1 n=82 v=127
70029 On ch=1 n=81 v=0
70080 On ch=1 n=84 v=127
70089 On ch=1 n=82 v=0
70140 On ch=1 n=82 v=127
70149 On ch=1 n=84 v=0
70200 On ch=1 n=81 v=127
70200 On ch=1 n=89 v=127
70209 On ch=1 n=82 v=0
70209 On ch=1 n=88 v=0
70319 On ch=1 n=81 v=0
70319 On ch=1 n=89 v=0
71040 On ch=1 n=87 v=48
71220 On ch=1 n=84 v=48
71229 On ch=1 n=87 v=0
71280 On ch=1 n=81 v=48
71289 On ch=1 n=84 v=0
71399 On ch=1 n=81 v=0
72480 On ch=1 n=86 v=48
72660 On ch=1 n=82 v=48
72669 On ch=1 n=86 v=0
72720 On ch=1 n=77 v=48
72729 On ch=1 n=82 v=0
72839 On ch=1 n=77 v=0
73920 On ch=1 n=91 v=127
73920 On ch=1 n=79 v=127
74099 On ch=1 n=79 v=0
74099 On ch=1 n=91 v=0
74100 On ch=1 n=77 v=127
74100 On ch=1 n=89 v=127
74159 On ch=1 n=89 v=0
74159 On ch=1 n=77 v=0
74160 On ch=1 n=87 v=127
74160 On ch=1 n=75 v=127
74219 On ch=1 n=75 v=0
74219 On ch=1 n=87 v=0
74280 On ch=1 n=86 v=127
74280 On ch=1 n=74 v=127
74339 On ch=1 n=74 v=0
74339 On ch=1 n=86 v=0
74400 On ch=1 n=84 v=127
74400 On ch=1 n=72 v=127
74459 On ch=1 n=72 v=0
74459 On ch=1 n=84 v=0
74520 On ch=1 n=82 v=48
74520 On ch=1 n=70 v=48
74639 On ch=1 n=70 v=0
74639 On ch=1 n=82 v=0
75960 On ch=1 n=70 v=48
75960 On ch=1 n=82 v=48
76739 On ch=1 n=82 v=0
76739 On ch=1 n=70 v=0
76740 On ch=1 n=82 v=74
76740 On ch=1 n=74 v=74
76769 On ch=1 n=74 v=0
76769 On ch=1 n=82 v=0
76800 On ch=1 n=72 v=76
76800 On ch=1 n=81 v=76
76829 On ch=1 n=81 v=0
76829 On ch=1 n=72 v=0
76860 On ch=1 n=82 v=78
76860 On ch=1 n=74 v=78
76889 On ch=1 n=74 v=0
76889 On ch=1 n=82 v=0
76920 On ch=1 n=81 v=80
76920 On ch=1 n=84 v=80
76949 On ch=1 n=84 v=0
76949 On ch=1 n=81 v=0
76980 On ch=1 n=82 v=82
76980 On ch=1 n=86 v=82
77009 On ch=1 n=86 v=0
77009 On ch=1 n=82 v=0
77040 On ch=1 n=87 v=84
77040 On ch=1 n=84 v=84
77069 On ch=1 n=84 v=0
77069 On ch=1 n=87 v=0
77100 On ch=1 n=87 v=86
77100 On ch=1 n=84 v=86
77129 On ch=1 n=84 v=0
77129 On ch=1 n=87 v=0
77160 On ch=1 n=87 v=88
77160 On ch=1 n=84 v=88
77189 On ch=1 n=84 v=0
77189 On ch=1 n=87 v=0
77220 On ch=1 n=87 v=90
77220 On ch=1 n=84 v=90
77249 On ch=1 n=84 v=0
77249 On ch=1 n=87 v=0
77280 On ch=1 n=87 v=92
77280 On ch=1 n=84 v=92
77309 On ch=1 n=84 v=0
77309 On ch=1 n=87 v=0
77340 On ch=1 n=87 v=94
77340 On ch=1 n=84 v=94
77369 On ch=1 n=84 v=0
77369 On ch=1 n=87 v=0
77400 On ch=1 n=84 v=96
77400 On ch=1 n=87 v=96
77459 On ch=1 n=87 v=0
77459 On ch=1 n=84 v=0
77520 On ch=1 n=84 v=96
77520 On ch=1 n=87 v=96
77579 On ch=1 n=87 v=0
77579 On ch=1 n=84 v=0
78060 On ch=1 n=87 v=96
78060 On ch=1 n=81 v=96
78089 On ch=1 n=81 v=0
78089 On ch=1 n=87 v=0
78120 On ch=1 n=82 v=96
78120 On ch=1 n=86 v=96
78179 On ch=1 n=86 v=0
78179 On ch=1 n=82 v=0
78240 On ch=1 n=86 v=96
78240 On ch=1 n=82 v=96
78299 On ch=1 n=82 v=0
78299 On ch=1 n=86 v=0
78780 On ch=1 n=82 v=96
78780 On ch=1 n=86 v=96
78809 On ch=1 n=86 v=0
78809 On ch=1 n=82 v=0
78840 On ch=1 n=86 v=96
78840 On ch=1 n=83 v=96
78899 On ch=1 n=83 v=0
78899 On ch=1 n=86 v=0
78960 On ch=1 n=83 v=96
78960 On ch=1 n=86 v=96
79019 On ch=1 n=86 v=0
79019 On ch=1 n=83 v=0
79500 On ch=1 n=83 v=96
79500 On ch=1 n=74 v=96
79529 On ch=1 n=74 v=0
79529 On ch=1 n=83 v=0
79560 On ch=1 n=79 v=96
79560 On ch=1 n=84 v=96
79589 On ch=1 n=84 v=0
79589 On ch=1 n=79 v=0
79620 On ch=1 n=84 v=96
79620 On ch=1 n=79 v=96
79739 On ch=1 n=79 v=0
79739 On ch=1 n=84 v=0
79740 On ch=1 n=79 v=96
79740 On ch=1 n=84 v=96
79769 On ch=1 n=84 v=0
79769 On ch=1 n=79 v=0
79800 On ch=1 n=84 v=96
79800 On ch=1 n=81 v=96
79829 On ch=1 n=81 v=0
79829 On ch=1 n=84 v=0
79860 On ch=1 n=81 v=96
79860 On ch=1 n=86 v=96
79889 On ch=1 n=86 v=0
79889 On ch=1 n=81 v=0
79920 On ch=1 n=86 v=96
79920 On ch=1 n=82 v=96
79949 On ch=1 n=82 v=0
79949 On ch=1 n=86 v=0
79980 On ch=1 n=82 v=96
79980 On ch=1 n=87 v=96
80099 On ch=1 n=87 v=0
80099 On ch=1 n=82 v=0
80100 On ch=1 n=87 v=96
80100 On ch=1 n=82 v=96
80129 On ch=1 n=82 v=0
80129 On ch=1 n=87 v=0
80160 On ch=1 n=84 v=96
80160 On ch=1 n=87 v=96
80189 On ch=1 n=87 v=0
80189 On ch=1 n=84 v=0
80220 On ch=1 n=89 v=96
80220 On ch=1 n=84 v=96
80249 On ch=1 n=84 v=0
80249 On ch=1 n=89 v=0
80280 On ch=1 n=86 v=96
80280 On ch=1 n=82 v=96
80399 On ch=1 n=82 v=0
80399 On ch=1 n=86 v=0
80400 On ch=1 n=82 v=96
80400 On ch=1 n=86 v=96
80519 On ch=1 n=82 v=0
80520 On ch=1 n=82 v=96
80520 On ch=1 n=87 v=96
80529 On ch=1 n=86 v=0
80639 On ch=1 n=82 v=0
80640 On ch=1 n=82 v=96
80640 On ch=1 n=88 v=96
80649 On ch=1 n=87 v=0
80759 On ch=1 n=82 v=0
80760 On ch=1 n=82 v=96
80760 On ch=1 n=89 v=96
80769 On ch=1 n=88 v=0
80880 On ch=1 n=91 v=96
80889 On ch=1 n=89 v=0
80940 On ch=1 n=90 v=96
80949 On ch=1 n=91 v=0
81000 On ch=1 n=91 v=96
81009 On ch=1 n=90 v=0
81060 On ch=1 n=90 v=96
81069 On ch=1 n=91 v=0
81120 On ch=1 n=83 v=96
81120 On ch=1 n=91 v=96
81129 On ch=1 n=90 v=0
81129 On ch=1 n=82 v=0
81180 On ch=1 n=86 v=96
81189 On ch=1 n=91 v=0
81239 On ch=1 n=86 v=0
81239 On ch=1 n=83 v=0
81240 On ch=1 n=84 v=96
81240 On ch=1 n=87 v=96
81300 On ch=1 n=86 v=96
81300 On ch=1 n=79 v=96
81309 On ch=1 n=87 v=0
81309 On ch=1 n=84 v=0
81359 On ch=1 n=79 v=0
81360 On ch=1 n=79 v=96
81360 On ch=1 n=89 v=96
81369 On ch=1 n=86 v=0
81419 On ch=1 n=79 v=0
81420 On ch=1 n=87 v=96
81420 On ch=1 n=79 v=96
81429 On ch=1 n=89 v=0
81479 On ch=1 n=79 v=0
81480 On ch=1 n=77 v=96
81480 On ch=1 n=86 v=96
81489 On ch=1 n=87 v=0
81540 On ch=1 n=84 v=96
81540 On ch=1 n=75 v=96
81549 On ch=1 n=86 v=0
81549 On ch=1 n=77 v=0
81600 On ch=1 n=82 v=96
81600 On ch=1 n=74 v=96
81609 On ch=1 n=84 v=0
81609 On ch=1 n=75 v=0
81719 On ch=1 n=82 v=0
81719 On ch=1 n=74 v=0
82440 On ch=1 n=89 v=96
83219 On ch=1 n=89 v=0
83220 On ch=1 n=88 v=127
83249 On ch=1 n=88 v=0
83280 On ch=1 n=87 v=127
83309 On ch=1 n=87 v=0
83340 On ch=1 n=86 v=127
83369 On ch=1 n=86 v=0
83400 On ch=1 n=84 v=127
83429 On ch=1 n=84 v=0
83460 On ch=1 n=82 v=127
83489 On ch=1 n=82 v=0
83520 On ch=1 n=81 v=127
83549 On ch=1 n=81 v=0
83580 On ch=1 n=91 v=127
83580 On ch=1 n=79 v=127
83609 On ch=1 n=79 v=0
83609 On ch=1 n=91 v=0
83640 On ch=1 n=89 v=127
83640 On ch=1 n=77 v=127
83669 On ch=1 n=77 v=0
83669 On ch=1 n=89 v=0
83700 On ch=1 n=75 v=127
83700 On ch=1 n=87 v=127
83729 On ch=1 n=87 v=0
83729 On ch=1 n=75 v=0
83760 On ch=1 n=86 v=127
83760 On ch=1 n=74 v=127
83789 On ch=1 n=74 v=0
83789 On ch=1 n=86 v=0
83820 On ch=1 n=84 v=127
83820 On ch=1 n=72 v=127
83849 On ch=1 n=72 v=0
83849 On ch=1 n=84 v=0
83880 On ch=1 n=82 v=127
83880 On ch=1 n=70 v=127
83999 On ch=1 n=70 v=0
83999 On ch=1 n=82 v=0
84720 On ch=1 n=86 v=88
84809 On ch=1 n=86 v=0
84840 On ch=1 n=86 v=96
84929 On ch=1 n=86 v=0
84960 On ch=1 n=86 v=88
85200 On ch=1 n=84 v=64
85209 On ch=1 n=86 v=0
85319 On ch=1 n=84 v=0
86640 On ch=1 n=89 v=96
86880 On ch=1 n=87 v=96
86889 On ch=1 n=89 v=0
86940 On ch=1 n=86 v=88
86949 On ch=1 n=87 v=0
87000 On ch=1 n=84 v=80
87009 On ch=1 n=86 v=0
87060 On ch=1 n=82 v=72
87069 On ch=1 n=84 v=0
87119 On ch=1 n=82 v=0
89400 On ch=1 n=84 v=56
89400 On ch=1 n=82 v=56
89489 On ch=1 n=82 v=0
89489 On ch=1 n=84 v=0
89520 On ch=1 n=84 v=56
89520 On ch=1 n=82 v=56
89609 On ch=1 n=82 v=0
89609 On ch=1 n=84 v=0
89640 On ch=1 n=84 v=48
89640 On ch=1 n=81 v=48
89759 On ch=1 n=81 v=0
89759 On ch=1 n=84 v=0
92760 On ch=1 n=75 v=75
92760 On ch=1 n=72 v=75
92789 On ch=1 n=72 v=0
92789 On ch=1 n=75 v=0
92820 On ch=1 n=77 v=78
92820 On ch=1 n=74 v=78
92849 On ch=1 n=74 v=0
92849 On ch=1 n=77 v=0
92880 On ch=1 n=79 v=80
92880 On ch=1 n=75 v=80
92909 On ch=1 n=75 v=0
92909 On ch=1 n=79 v=0
92940 On ch=1 n=81 v=83
92940 On ch=1 n=77 v=83
92969 On ch=1 n=77 v=0
92969 On ch=1 n=81 v=0
93000 On ch=1 n=82 v=86
93000 On ch=1 n=79 v=86
93029 On ch=1 n=79 v=0
93029 On ch=1 n=82 v=0
93060 On ch=1 n=84 v=89
93060 On ch=1 n=81 v=89
93089 On ch=1 n=81 v=0
93089 On ch=1 n=84 v=0
93120 On ch=1 n=86 v=92
93120 On ch=1 n=82 v=92
93149 On ch=1 n=82 v=0
93149 On ch=1 n=86 v=0
93180 On ch=1 n=87 v=94
93180 On ch=1 n=84 v=94
93209 On ch=1 n=84 v=0
93209 On ch=1 n=87 v=0
93240 On ch=1 n=89 v=96
93240 On ch=1 n=86 v=96
93359 On ch=1 n=86 v=0
93359 On ch=1 n=89 v=0
93360 On ch=1 n=86 v=112
93360 On ch=1 n=89 v=112
93599 On ch=1 n=89 v=0
93599 On ch=1 n=86 v=0
93720 On ch=1 n=89 v=112
93720 On ch=1 n=86 v=112
93959 On ch=1 n=86 v=0
93959 On ch=1 n=89 v=0
94080 On ch=1 n=89 v=112
94080 On ch=1 n=87 v=112
94319 On ch=1 n=87 v=0
94319 On ch=1 n=89 v=0
94440 On ch=1 n=89 v=112
94440 On ch=1 n=81 v=112
94559 On ch=1 n=81 v=0
94559 On ch=1 n=89 v=0
94560 On ch=1 n=84 v=96
94560 On ch=1 n=89 v=96
94679 On ch=1 n=89 v=0
94679 On ch=1 n=84 v=0
94680 On ch=1 n=89 v=127
94680 On ch=1 n=86 v=127
94739 On ch=1 n=86 v=0
94739 On ch=1 n=89 v=0
94800 On ch=1 n=89 v=127
94979 On ch=1 n=89 v=0
94980 On ch=1 n=86 v=127
95039 On ch=1 n=86 v=0
95040 On ch=1 n=82 v=127
95099 On ch=1 n=82 v=0
95160 On ch=1 n=86 v=127
95339 On ch=1 n=86 v=0
95340 On ch=1 n=77 v=127
95399 On ch=1 n=77 v=0
95400 On ch=1 n=84 v=127
95459 On ch=1 n=84 v=0
95520 On ch=1 n=87 v=127
95699 On ch=1 n=87 v=0
95700 On ch=1 n=77 v=127
95759 On ch=1 n=77 v=0
95760 On ch=1 n=81 v=127
95819 On ch=1 n=81 v=0
95880 On ch=1 n=84 v=127
96059 On ch=1 n=84 v=0
96060 On ch=1 n=81 v=127
96119 On ch=1 n=81 v=0
96120 On ch=1 n=89 v=127
96120 On ch=1 n=82 v=127
96420 On ch=1 n=88 v=127
96429 On ch=1 n=89 v=0
96480 On ch=1 n=89 v=127
96489 On ch=1 n=88 v=0
96539 On ch=1 n=89 v=0
96539 On ch=1 n=82 v=0
97980 On ch=1 n=86 v=127
97980 On ch=1 n=81 v=127
98009 On ch=1 n=81 v=0
98009 On ch=1 n=86 v=0
98040 On ch=1 n=82 v=127
98040 On ch=1 n=86 v=127
98069 On ch=1 n=86 v=0
98069 On ch=1 n=82 v=0
98100 On ch=1 n=91 v=127
98100 On ch=1 n=83 v=127
98129 On ch=1 n=83 v=0
98129 On ch=1 n=91 v=0
98160 On ch=1 n=84 v=127
98160 On ch=1 n=91 v=127
98189 On ch=1 n=91 v=0
98189 On ch=1 n=84 v=0
98220 On ch=1 n=91 v=127
98220 On ch=1 n=85 v=127
98249 On ch=1 n=85 v=0
98249 On ch=1 n=91 v=0
98280 On ch=1 n=90 v=127
98280 On ch=1 n=86 v=127
98339 On ch=1 n=86 v=0
98339 On ch=1 n=90 v=0
98400 On ch=1 n=86 v=127
98400 On ch=1 n=84 v=127
98459 On ch=1 n=84 v=0
98459 On ch=1 n=86 v=0
98520 On ch=1 n=86 v=127
98520 On ch=1 n=82 v=127
98579 On ch=1 n=82 v=0
98579 On ch=1 n=86 v=0
98760 On ch=1 n=83 v=127
98760 On ch=1 n=80 v=127
98819 On ch=1 n=80 v=0
98819 On ch=1 n=83 v=0
98880 On ch=1 n=84 v=127
98880 On ch=1 n=79 v=127
98939 On ch=1 n=79 v=0
98939 On ch=1 n=84 v=0
99120 On ch=1 n=84 v=127
99120 On ch=1 n=82 v=127
99179 On ch=1 n=82 v=0
99179 On ch=1 n=84 v=0
99240 On ch=1 n=81 v=127
99240 On ch=1 n=84 v=127
99299 On ch=1 n=84 v=0
99299 On ch=1 n=81 v=0
99480 On ch=1 n=86 v=127
99480 On ch=1 n=84 v=127
99539 On ch=1 n=84 v=0
99539 On ch=1 n=86 v=0
99600 On ch=1 n=82 v=127
99600 On ch=1 n=86 v=127
99659 On ch=1 n=86 v=0
99659 On ch=1 n=82 v=0
99840 On ch=1 n=83 v=127
99840 On ch=1 n=80 v=127
99899 On ch=1 n=80 v=0
99899 On ch=1 n=83 v=0
99960 On ch=1 n=79 v=127
99960 On ch=1 n=84 v=127
100019 On ch=1 n=84 v=0
100019 On ch=1 n=79 v=0
100200 On ch=1 n=84 v=127
100200 On ch=1 n=82 v=127
100259 On ch=1 n=82 v=0
100259 On ch=1 n=84 v=0
100440 On ch=1 n=82 v=127
100440 On ch=1 n=84 v=127
100499 On ch=1 n=84 v=0
100499 On ch=1 n=82 v=0
100680 On ch=1 n=84 v=127
100680 On ch=1 n=82 v=127
100739 On ch=1 n=82 v=0
100739 On ch=1 n=84 v=0
100920 On ch=1 n=82 v=127
100920 On ch=1 n=84 v=127
100979 On ch=1 n=84 v=0
100979 On ch=1 n=82 v=0
101160 On ch=1 n=84 v=127
101160 On ch=1 n=82 v=127
101219 On ch=1 n=82 v=0
101219 On ch=1 n=84 v=0
101400 On ch=1 n=82 v=127
101400 On ch=1 n=84 v=127
101459 On ch=1 n=84 v=0
101459 On ch=1 n=82 v=0
101880 On ch=1 n=82 v=96
101909 On ch=1 n=82 v=0
101910 On ch=1 n=82 v=48
102000 On ch=1 n=85 v=48
102009 On ch=1 n=82 v=0
102120 On ch=1 n=88 v=48
102129 On ch=1 n=85 v=0
102240 On ch=1 n=89 v=48
102249 On ch=1 n=88 v=0
102599 On ch=1 n=89 v=0
102600 On ch=1 n=82 v=96
102629 On ch=1 n=82 v=0
102630 On ch=1 n=82 v=48
102720 On ch=1 n=85 v=48
102729 On ch=1 n=82 v=0
102840 On ch=1 n=88 v=48
102849 On ch=1 n=85 v=0
103080 On ch=1 n=87 v=48
103089 On ch=1 n=88 v=0
103200 On ch=1 n=85 v=48
103209 On ch=1 n=87 v=0
103440 On ch=1 n=83 v=48
103449 On ch=1 n=85 v=0
103560 On ch=1 n=84 v=48
103569 On ch=1 n=83 v=0
103800 On ch=1 n=77 v=48
103809 On ch=1 n=84 v=0
103920 On ch=1 n=87 v=48
103929 On ch=1 n=77 v=0
104160 On ch=1 n=85 v=48
104169 On ch=1 n=87 v=0
104280 On ch=1 n=86 v=48
104289 On ch=1 n=85 v=0
104460 On ch=1 n=78 v=52
104469 On ch=1 n=86 v=0
104520 On ch=1 n=79 v=55
104529 On ch=1 n=78 v=0
104580 On ch=1 n=83 v=58
104589 On ch=1 n=79 v=0
104640 On ch=1 n=84 v=65
104649 On ch=1 n=83 v=0
104700 On ch=1 n=86 v=69
104709 On ch=1 n=84 v=0
104760 On ch=1 n=87 v=72
104769 On ch=1 n=86 v=0
104820 On ch=1 n=90 v=75
104829 On ch=1 n=87 v=0
104880 On ch=1 n=91 v=79
104889 On ch=1 n=90 v=0
104940 On ch=1 n=87 v=81
104949 On ch=1 n=91 v=0
105000 On ch=1 n=86 v=83
105009 On ch=1 n=87 v=0
105060 On ch=1 n=84 v=88
105069 On ch=1 n=86 v=0
105119 On ch=1 n=84 v=0
105120 On ch=1 n=82 v=91
105179 On ch=1 n=82 v=0
105180 On ch=1 n=86 v=93
105239 On ch=1 n=86 v=0
105240 On ch=1 n=89 v=97
105299 On ch=1 n=89 v=0
105300 On ch=1 n=89 v=101
105359 On ch=1 n=89 v=0
105360 On ch=1 n=89 v=105
105419 On ch=1 n=89 v=0
105420 On ch=1 n=89 v=109
105479 On ch=1 n=89 v=0
105480 On ch=1 n=87 v=127
105480 On ch=1 n=89 v=127
105719 On ch=1 n=87 v=0
105720 On ch=1 n=81 v=127
105839 On ch=1 n=81 v=0
105839 On ch=1 n=89 v=0
105840 On ch=1 n=82 v=96
105899 On ch=1 n=82 v=0
106200 On ch=1 n=82 v=96
106259 On ch=1 n=82 v=0
106560 On ch=1 n=82 v=96
106619 On ch=1 n=82 v=0
106920 On ch=1 n=87 v=96
106920 On ch=1 n=82 v=96
106979 On ch=1 n=82 v=0
106979 On ch=1 n=87 v=0
107040 On ch=1 n=82 v=96
107040 On ch=1 n=87 v=96
107099 On ch=1 n=87 v=0
107099 On ch=1 n=82 v=0
107160 On ch=1 n=87 v=96
107160 On ch=1 n=82 v=96
107219 On ch=1 n=82 v=0
107219 On ch=1 n=87 v=0
107280 On ch=1 n=82 v=96
107280 On ch=1 n=86 v=96
107339 On ch=1 n=86 v=0
107339 On ch=1 n=82 v=0
114600 On ch=1 n=89 v=48
114780 On ch=1 n=86 v=48
114789 On ch=1 n=89 v=0
114840 On ch=1 n=83 v=48
114849 On ch=1 n=86 v=0
114959 On ch=1 n=83 v=0
114960 On ch=1 n=86 v=48
115140 On ch=1 n=77 v=48
115149 On ch=1 n=86 v=0
115200 On ch=1 n=76 v=48
115209 On ch=1 n=77 v=0
115319 On ch=1 n=76 v=0
116040 On ch=1 n=88 v=48
116220 On ch=1 n=84 v=48
116229 On ch=1 n=88 v=0
116280 On ch=1 n=79 v=48
116289 On ch=1 n=84 v=0
116399 On ch=1 n=79 v=0
116400 On ch=1 n=84 v=48
116580 On ch=1 n=76 v=48
116589 On ch=1 n=84 v=0
116640 On ch=1 n=77 v=48
116649 On ch=1 n=76 v=0
116759 On ch=1 n=77 v=0
117120 On ch=1 n=79 v=96
117299 On ch=1 n=79 v=0
117300 On ch=1 n=81 v=48
117359 On ch=1 n=81 v=0
117360 On ch=1 n=83 v=48
117389 On ch=1 n=83 v=0
117420 On ch=1 n=84 v=48
117449 On ch=1 n=84 v=0
117480 On ch=1 n=86 v=48
117509 On ch=1 n=86 v=0
117540 On ch=1 n=88 v=48
117569 On ch=1 n=88 v=0
117600 On ch=1 n=89 v=48
117719 On ch=1 n=89 v=0
117840 On ch=1 n=86 v=48
118020 On ch=1 n=77 v=48
118029 On ch=1 n=86 v=0
118080 On ch=1 n=75 v=32
118089 On ch=1 n=77 v=0
118199 On ch=1 n=75 v=0
119160 On ch=1 n=80 v=32
119639 On ch=1 n=80 v=0
120600 On ch=1 n=81 v=72
121079 On ch=1 n=81 v=0
121080 On ch=1 n=89 v=127
121080 On ch=1 n=86 v=127
121139 On ch=1 n=86 v=0
121139 On ch=1 n=89 v=0
121200 On ch=1 n=86 v=127
121200 On ch=1 n=89 v=127
121259 On ch=1 n=89 v=0
121259 On ch=1 n=86 v=0
121320 On ch=1 n=89 v=127
121320 On ch=1 n=86 v=127
121379 On ch=1 n=86 v=0
121379 On ch=1 n=89 v=0
121440 On ch=1 n=86 v=127
121440 On ch=1 n=89 v=127
121499 On ch=1 n=89 v=0
121499 On ch=1 n=86 v=0
121560 On ch=1 n=86 v=127
121560 On ch=1 n=89 v=127
121619 On ch=1 n=89 v=0
121619 On ch=1 n=86 v=0
121680 On ch=1 n=86 v=127
121680 On ch=1 n=89 v=127
122399 On ch=1 n=89 v=0
122399 On ch=1 n=86 v=0
122400 On ch=1 n=91 v=127
122400 On ch=1 n=85 v=127
122459 On ch=1 n=85 v=0
122459 On ch=1 n=91 v=0
122520 On ch=1 n=85 v=127
122520 On ch=1 n=91 v=127
122579 On ch=1 n=91 v=0
122579 On ch=1 n=85 v=0
122640 On ch=1 n=91 v=127
122640 On ch=1 n=85 v=127
122699 On ch=1 n=85 v=0
122699 On ch=1 n=91 v=0
122760 On ch=1 n=85 v=127
122760 On ch=1 n=91 v=127
122819 On ch=1 n=91 v=0
122819 On ch=1 n=85 v=0
122880 On ch=1 n=91 v=127
122880 On ch=1 n=85 v=127
122939 On ch=1 n=85 v=0
122939 On ch=1 n=91 v=0
123000 On ch=1 n=85 v=127
123000 On ch=1 n=91 v=127
123059 On ch=1 n=91 v=0
123059 On ch=1 n=85 v=0
123120 On ch=1 n=91 v=127
123120 On ch=1 n=85 v=127
123719 On ch=1 n=85 v=0
123719 On ch=1 n=91 v=0
123720 On ch=1 n=88 v=127
123720 On ch=1 n=85 v=127
123839 On ch=1 n=85 v=0
123839 On ch=1 n=88 v=0
123840 On ch=1 n=86 v=48
123899 On ch=1 n=86 v=0
124020 On ch=1 n=86 v=48
124079 On ch=1 n=86 v=0
124080 On ch=1 n=86 v=48
124139 On ch=1 n=86 v=0
124380 On ch=1 n=86 v=48
124439 On ch=1 n=86 v=0
124440 On ch=1 n=86 v=48
124499 On ch=1 n=86 v=0
124620 On ch=1 n=86 v=54
124679 On ch=1 n=86 v=0
124680 On ch=1 n=86 v=61
124739 On ch=1 n=86 v=0
124740 On ch=1 n=86 v=67
124799 On ch=1 n=86 v=0
124800 On ch=1 n=86 v=73
124859 On ch=1 n=86 v=0
124860 On ch=1 n=86 v=80
124919 On ch=1 n=86 v=0
124920 On ch=1 n=86 v=86
125039 On ch=1 n=86 v=0
125280 On ch=1 n=86 v=127
125280 On ch=1 n=82 v=127
125339 On ch=1 n=82 v=0
125339 On ch=1 n=86 v=0
125400 On ch=1 n=82 v=127
125400 On ch=1 n=86 v=127
125459 On ch=1 n=86 v=0
125459 On ch=1 n=82 v=0
125520 On ch=1 n=86 v=127
125520 On ch=1 n=82 v=127
125579 On ch=1 n=82 v=0
125579 On ch=1 n=86 v=0
125640 On ch=1 n=82 v=127
125640 On ch=1 n=86 v=127
125699 On ch=1 n=86 v=0
125699 On ch=1 n=82 v=0
125760 On ch=1 n=86 v=127
125760 On ch=1 n=82 v=127
125819 On ch=1 n=82 v=0
125819 On ch=1 n=86 v=0
125880 On ch=1 n=82 v=127
125880 On ch=1 n=86 v=127
125939 On ch=1 n=86 v=0
125939 On ch=1 n=82 v=0
126000 On ch=1 n=86 v=127
126000 On ch=1 n=82 v=127
126719 On ch=1 n=82 v=0
126719 On ch=1 n=86 v=0
126720 On ch=1 n=86 v=127
126720 On ch=1 n=84 v=127
126779 On ch=1 n=84 v=0
126779 On ch=1 n=86 v=0
126840 On ch=1 n=84 v=127
126840 On ch=1 n=86 v=127
126899 On ch=1 n=86 v=0
126899 On ch=1 n=84 v=0
126960 On ch=1 n=86 v=127
126960 On ch=1 n=84 v=127
127019 On ch=1 n=84 v=0
127019 On ch=1 n=86 v=0
127080 On ch=1 n=84 v=127
127080 On ch=1 n=86 v=127
127139 On ch=1 n=86 v=0
127139 On ch=1 n=84 v=0
127200 On ch=1 n=86 v=127
127200 On ch=1 n=84 v=127
127259 On ch=1 n=84 v=0
127259 On ch=1 n=86 v=0
127320 On ch=1 n=84 v=127
127320 On ch=1 n=86 v=127
127379 On ch=1 n=86 v=0
127379 On ch=1 n=84 v=0
127440 On ch=1 n=86 v=127
127440 On ch=1 n=84 v=127
128039 On ch=1 n=84 v=0
128039 On ch=1 n=86 v=0
128040 On ch=1 n=78 v=127
128040 On ch=1 n=86 v=127
128159 On ch=1 n=86 v=0
128159 On ch=1 n=78 v=0
128160 On ch=1 n=86 v=48
128160 On ch=1 n=79 v=48
128279 On ch=1 n=79 v=0
128279 On ch=1 n=86 v=0
129780 On ch=1 n=84 v=48
129839 On ch=1 n=84 v=0
129840 On ch=1 n=84 v=48
129899 On ch=1 n=84 v=0
130140 On ch=1 n=84 v=48
130199 On ch=1 n=84 v=0
130200 On ch=1 n=84 v=48
130259 On ch=1 n=84 v=0
130380 On ch=1 n=84 v=51
130439 On ch=1 n=84 v=0
130440 On ch=1 n=84 v=54
130499 On ch=1 n=84 v=0
130500 On ch=1 n=84 v=57
130559 On ch=1 n=84 v=0
130560 On ch=1 n=84 v=61
130619 On ch=1 n=84 v=0
130620 On ch=1 n=84 v=64
130679 On ch=1 n=84 v=0
130680 On ch=1 n=84 v=67
130799 On ch=1 n=84 v=0
131220 On ch=1 n=89 v=96
131279 On ch=1 n=89 v=0
131280 On ch=1 n=89 v=96
131339 On ch=1 n=89 v=0
131580 On ch=1 n=82 v=96
131639 On ch=1 n=82 v=0
131640 On ch=1 n=82 v=96
131699 On ch=1 n=82 v=0
131940 On ch=1 n=87 v=96
131999 On ch=1 n=87 v=0
132000 On ch=1 n=87 v=96
132059 On ch=1 n=87 v=0
132180 On ch=1 n=80 v=96
132239 On ch=1 n=80 v=0
132240 On ch=1 n=80 v=96
132299 On ch=1 n=80 v=0
132300 On ch=1 n=80 v=96
132359 On ch=1 n=80 v=0
132360 On ch=1 n=80 v=96
132419 On ch=1 n=80 v=0
132420 On ch=1 n=80 v=96
132479 On ch=1 n=80 v=0
132480 On ch=1 n=85 v=127
132480 On ch=1 n=80 v=127
132839 On ch=1 n=80 v=0
132839 On ch=1 n=85 v=0
132840 On ch=1 n=80 v=127
132840 On ch=1 n=86 v=127
133199 On ch=1 n=86 v=0
133199 On ch=1 n=80 v=0
133200 On ch=1 n=87 v=127
133200 On ch=1 n=79 v=127
133319 On ch=1 n=79 v=0
133319 On ch=1 n=87 v=0
134040 On ch=1 n=85 v=48
134220 On ch=1 n=82 v=48
134229 On ch=1 n=85 v=0
134280 On ch=1 n=79 v=48
134289 On ch=1 n=82 v=0
134399 On ch=1 n=79 v=0
135480 On ch=1 n=84 v=48
135660 On ch=1 n=80 v=48
135669 On ch=1 n=84 v=0
135720 On ch=1 n=75 v=48
135729 On ch=1 n=80 v=0
135839 On ch=1 n=75 v=0
136440 On ch=1 n=75 v=96
136469 On ch=1 n=75 v=0
136470 On ch=1 n=75 v=48
136859 On ch=1 n=75 v=0
136860 On ch=1 n=77 v=48
136889 On ch=1 n=77 v=0
136920 On ch=1 n=79 v=48
136949 On ch=1 n=79 v=0
136980 On ch=1 n=80 v=48
137009 On ch=1 n=80 v=0
137040 On ch=1 n=82 v=48
137069 On ch=1 n=82 v=0
137100 On ch=1 n=84 v=48
137129 On ch=1 n=84 v=0
137160 On ch=1 n=85 v=48
137189 On ch=1 n=85 v=0
137220 On ch=1 n=84 v=48
137249 On ch=1 n=84 v=0
137280 On ch=1 n=85 v=48
137309 On ch=1 n=85 v=0
137340 On ch=1 n=87 v=48
137369 On ch=1 n=87 v=0
137400 On ch=1 n=89 v=48
137429 On ch=1 n=89 v=0
137460 On ch=1 n=91 v=48
137489 On ch=1 n=91 v=0
137520 On ch=1 n=92 v=48
137639 On ch=1 n=92 v=0
137760 On ch=1 n=72 v=48
137939 On ch=1 n=72 v=0
137940 On ch=1 n=74 v=48
137969 On ch=1 n=74 v=0
138000 On ch=1 n=76 v=48
138029 On ch=1 n=76 v=0
138060 On ch=1 n=77 v=48
138089 On ch=1 n=77 v=0
138120 On ch=1 n=79 v=48
138149 On ch=1 n=79 v=0
138180 On ch=1 n=80 v=48
138209 On ch=1 n=80 v=0
138240 On ch=1 n=82 v=48
138359 On ch=1 n=82 v=0
138660 On ch=1 n=85 v=48
138720 On ch=1 n=84 v=48
138729 On ch=1 n=85 v=0
138780 On ch=1 n=82 v=48
138789 On ch=1 n=84 v=0
138840 On ch=1 n=80 v=48
138849 On ch=1 n=82 v=0
138900 On ch=1 n=79 v=48
138909 On ch=1 n=80 v=0
138960 On ch=1 n=80 v=48
138969 On ch=1 n=79 v=0
139079 On ch=1 n=80 v=0
142320 On ch=1 n=81 v=85
142320 On ch=1 n=77 v=85
142379 On ch=1 n=77 v=0
142379 On ch=1 n=81 v=0
142440 On ch=1 n=89 v=112
142440 On ch=1 n=93 v=112
142680 On ch=1 n=88 v=100
142680 On ch=1 n=91 v=100
142689 On ch=1 n=93 v=0
142689 On ch=1 n=89 v=0
142799 On ch=1 n=88 v=0
142799 On ch=1 n=91 v=0
143040 On ch=1 n=89 v=115
143040 On ch=1 n=86 v=115
143069 On ch=1 n=86 v=0
143069 On ch=1 n=89 v=0
143100 On ch=1 n=89 v=118
143100 On ch=1 n=86 v=118
143129 On ch=1 n=86 v=0
143129 On ch=1 n=89 v=0
143160 On ch=1 n=89 v=120
143160 On ch=1 n=86 v=120
143189 On ch=1 n=86 v=0
143189 On ch=1 n=89 v=0
143220 On ch=1 n=89 v=123
143220 On ch=1 n=86 v=123
143249 On ch=1 n=86 v=0
143249 On ch=1 n=89 v=0
143280 On ch=1 n=86 v=125
143280 On ch=1 n=89 v=125
143339 On ch=1 n=89 v=0
143339 On ch=1 n=86 v=0
143400 On ch=1 n=89 v=127
143400 On ch=1 n=83 v=127
144119 On ch=1 n=83 v=0
144119 On ch=1 n=89 v=0
144120 On ch=1 n=83 v=127
144120 On ch=1 n=89 v=127
144359 On ch=1 n=89 v=0
144359 On ch=1 n=83 v=0
144360 On ch=1 n=83 v=127
144360 On ch=1 n=89 v=127
144599 On ch=1 n=89 v=0
144599 On ch=1 n=83 v=0
144600 On ch=1 n=83 v=127
144600 On ch=1 n=89 v=127
144839 On ch=1 n=89 v=0
144839 On ch=1 n=83 v=0
144840 On ch=1 n=83 v=127
144840 On ch=1 n=89 v=127
145079 On ch=1 n=89 v=0
145079 On ch=1 n=83 v=0
145080 On ch=1 n=83 v=127
145080 On ch=1 n=89 v=127
145319 On ch=1 n=89 v=0
145319 On ch=1 n=83 v=0
145320 On ch=1 n=83 v=127
145320 On ch=1 n=89 v=127
145439 On ch=1 n=89 v=0
145439 On ch=1 n=83 v=0
145560 On ch=1 n=88 v=127
145560 On ch=1 n=84 v=127
146279 On ch=1 n=84 v=0
146279 On ch=1 n=88 v=0
146280 On ch=1 n=81 v=127
146280 On ch=1 n=88 v=127
146519 On ch=1 n=88 v=0
146519 On ch=1 n=81 v=0
146520 On ch=1 n=81 v=127
146520 On ch=1 n=88 v=127
146759 On ch=1 n=88 v=0
146759 On ch=1 n=81 v=0
146760 On ch=1 n=81 v=127
146760 On ch=1 n=88 v=127
146999 On ch=1 n=88 v=0
146999 On ch=1 n=81 v=0
147000 On ch=1 n=81 v=127
147000 On ch=1 n=88 v=127
147239 On ch=1 n=88 v=0
147239 On ch=1 n=81 v=0
147240 On ch=1 n=81 v=127
147240 On ch=1 n=88 v=127
147479 On ch=1 n=88 v=0
147479 On ch=1 n=81 v=0
147480 On ch=1 n=81 v=127
147480 On ch=1 n=88 v=127
147599 On ch=1 n=88 v=0
147599 On ch=1 n=81 v=0
147720 On ch=1 n=87 v=127
147720 On ch=1 n=81 v=127
148439 On ch=1 n=81 v=0
148439 On ch=1 n=87 v=0
148440 On ch=1 n=81 v=127
148440 On ch=1 n=87 v=127
148679 On ch=1 n=87 v=0
148679 On ch=1 n=81 v=0
148680 On ch=1 n=81 v=127
148680 On ch=1 n=87 v=127
148919 On ch=1 n=87 v=0
148919 On ch=1 n=81 v=0
148920 On ch=1 n=81 v=127
148920 On ch=1 n=87 v=127
149159 On ch=1 n=87 v=0
149159 On ch=1 n=81 v=0
149160 On ch=1 n=81 v=127
149160 On ch=1 n=87 v=127
149399 On ch=1 n=87 v=0
149399 On ch=1 n=81 v=0
149400 On ch=1 n=81 v=127
149400 On ch=1 n=87 v=127
149639 On ch=1 n=87 v=0
149639 On ch=1 n=81 v=0
149640 On ch=1 n=81 v=127
149640 On ch=1 n=87 v=127
149759 On ch=1 n=87 v=0
149759 On ch=1 n=81 v=0
149880 On ch=1 n=88 v=127
149880 On ch=1 n=85 v=127
150599 On ch=1 n=85 v=0
150599 On ch=1 n=88 v=0
150600 On ch=1 n=85 v=127
150600 On ch=1 n=88 v=127
150839 On ch=1 n=88 v=0
150839 On ch=1 n=85 v=0
150840 On ch=1 n=85 v=127
150840 On ch=1 n=88 v=127
151079 On ch=1 n=88 v=0
151079 On ch=1 n=85 v=0
151080 On ch=1 n=85 v=127
151080 On ch=1 n=88 v=127
151319 On ch=1 n=88 v=0
151319 On ch=1 n=85 v=0
151320 On ch=1 n=85 v=127
151320 On ch=1 n=88 v=127
151559 On ch=1 n=88 v=0
151559 On ch=1 n=85 v=0
151560 On ch=1 n=85 v=127
151560 On ch=1 n=88 v=127
151799 On ch=1 n=88 v=0
151799 On ch=1 n=85 v=0
151800 On ch=1 n=85 v=127
151800 On ch=1 n=88 v=127
151919 On ch=1 n=88 v=0
151919 On ch=1 n=85 v=0
152040 On ch=1 n=87 v=127
152040 On ch=1 n=84 v=127
152279 On ch=1 n=84 v=0
152279 On ch=1 n=87 v=0
152280 On ch=1 n=87 v=127
152280 On ch=1 n=84 v=127
152519 On ch=1 n=84 v=0
152519 On ch=1 n=87 v=0
152520 On ch=1 n=87 v=127
152520 On ch=1 n=84 v=127
152639 On ch=1 n=84 v=0
152639 On ch=1 n=87 v=0
152760 On ch=1 n=88 v=127
152760 On ch=1 n=84 v=127
152999 On ch=1 n=84 v=0
152999 On ch=1 n=88 v=0
153000 On ch=1 n=84 v=127
153000 On ch=1 n=88 v=127
153239 On ch=1 n=88 v=0
153239 On ch=1 n=84 v=0
153240 On ch=1 n=88 v=127
153240 On ch=1 n=84 v=127
153299 On ch=1 n=84 v=0
153299 On ch=1 n=88 v=0
153360 On ch=1 n=89 v=96
153360 On ch=1 n=88 v=96
153599 On ch=1 n=88 v=0
153599 On ch=1 n=89 v=0
153720 On ch=1 n=88 v=96
153720 On ch=1 n=89 v=96
153959 On ch=1 n=89 v=0
153959 On ch=1 n=88 v=0
153960 On ch=1 n=89 v=96
153960 On ch=1 n=88 v=96
154199 On ch=1 n=88 v=0
154199 On ch=1 n=89 v=0
154200 On ch=1 n=88 v=96
154200 On ch=1 n=89 v=96
154259 On ch=1 n=89 v=0
154259 On ch=1 n=88 v=0
156360 On ch=1 n=71 v=48
156479 On ch=1 n=71 v=0
156480 On ch=1 n=71 v=48
156599 On ch=1 n=71 v=0
156600 On ch=1 n=71 v=96
156629 On ch=1 n=71 v=0
156630 On ch=1 n=71 v=48
156779 On ch=1 n=71 v=0
156780 On ch=1 n=71 v=48
156839 On ch=1 n=71 v=0
156840 On ch=1 n=71 v=48
156959 On ch=1 n=71 v=0
156960 On ch=1 n=71 v=48
157079 On ch=1 n=71 v=0
157800 On ch=1 n=71 v=48
157919 On ch=1 n=71 v=0
157920 On ch=1 n=71 v=48
158039 On ch=1 n=71 v=0
158040 On ch=1 n=71 v=96
158069 On ch=1 n=71 v=0
158070 On ch=1 n=71 v=48
158219 On ch=1 n=71 v=0
158220 On ch=1 n=71 v=48
158279 On ch=1 n=71 v=0
158280 On ch=1 n=71 v=48
158399 On ch=1 n=71 v=0
158400 On ch=1 n=71 v=48
158519 On ch=1 n=71 v=0
163800 On ch=1 n=84 v=96
163859 On ch=1 n=84 v=0
163920 On ch=1 n=88 v=96
163979 On ch=1 n=88 v=0
164040 On ch=1 n=91 v=112
164219 On ch=1 n=91 v=0
164220 On ch=1 n=89 v=96
164249 On ch=1 n=89 v=0
164280 On ch=1 n=86 v=96
164309 On ch=1 n=86 v=0
164340 On ch=1 n=83 v=96
164369 On ch=1 n=83 v=0
164400 On ch=1 n=79 v=96
164429 On ch=1 n=79 v=0
164460 On ch=1 n=77 v=96
164489 On ch=1 n=77 v=0
164520 On ch=1 n=74 v=96
164549 On ch=1 n=74 v=0
164580 On ch=1 n=77 v=96
164609 On ch=1 n=77 v=0
164640 On ch=1 n=74 v=96
164669 On ch=1 n=74 v=0
164700 On ch=1 n=71 v=96
164729 On ch=1 n=71 v=0
164760 On ch=1 n=67 v=96
164789 On ch=1 n=67 v=0
164820 On ch=1 n=71 v=96
164849 On ch=1 n=71 v=0
164880 On ch=1 n=72 v=96
164939 On ch=1 n=72 v=0
165000 On ch=1 n=75 v=96
165059 On ch=1 n=75 v=0
165120 On ch=1 n=79 v=96
165179 On ch=1 n=79 v=0
165240 On ch=1 n=84 v=96
165299 On ch=1 n=84 v=0
165360 On ch=1 n=87 v=96
165419 On ch=1 n=87 v=0
165480 On ch=1 n=91 v=112
165659 On ch=1 n=91 v=0
165660 On ch=1 n=89 v=96
165689 On ch=1 n=89 v=0
165720 On ch=1 n=86 v=96
165749 On ch=1 n=86 v=0
165780 On ch=1 n=83 v=96
165809 On ch=1 n=83 v=0
165840 On ch=1 n=79 v=96
165869 On ch=1 n=79 v=0
165900 On ch=1 n=77 v=96
165929 On ch=1 n=77 v=0
165960 On ch=1 n=74 v=96
165989 On ch=1 n=74 v=0
166020 On ch=1 n=77 v=96
166049 On ch=1 n=77 v=0
166080 On ch=1 n=74 v=96
166109 On ch=1 n=74 v=0
166140 On ch=1 n=71 v=96
166169 On ch=1 n=71 v=0
166200 On ch=1 n=67 v=96
166229 On ch=1 n=67 v=0
166260 On ch=1 n=71 v=96
166289 On ch=1 n=71 v=0
166320 On ch=1 n=72 v=96
166440 On ch=1 n=75 v=96
166449 On ch=1 n=72 v=0
166560 On ch=1 n=79 v=96
166569 On ch=1 n=75 v=0
166679 On ch=1 n=79 v=0
166680 On ch=1 n=80 v=112
166920 On ch=1 n=72 v=96
166929 On ch=1 n=80 v=0
167039 On ch=1 n=72 v=0
167040 On ch=1 n=73 v=96
167160 On ch=1 n=77 v=96
167169 On ch=1 n=73 v=0
167280 On ch=1 n=81 v=96
167289 On ch=1 n=77 v=0
167399 On ch=1 n=81 v=0
167400 On ch=1 n=82 v=112
167640 On ch=1 n=74 v=96
167649 On ch=1 n=82 v=0
167759 On ch=1 n=74 v=0
167760 On ch=1 n=75 v=96
167819 On ch=1 n=75 v=0
167880 On ch=1 n=82 v=96
167939 On ch=1 n=82 v=0
168000 On ch=1 n=82 v=96
168059 On ch=1 n=82 v=0
168120 On ch=1 n=82 v=96
168179 On ch=1 n=82 v=0
168240 On ch=1 n=82 v=96
168299 On ch=1 n=82 v=0
168360 On ch=1 n=82 v=112
168539 On ch=1 n=82 v=0
168540 On ch=1 n=80 v=96
168569 On ch=1 n=80 v=0
168600 On ch=1 n=89 v=96
168629 On ch=1 n=89 v=0
168660 On ch=1 n=86 v=96
168689 On ch=1 n=86 v=0
168720 On ch=1 n=82 v=96
168749 On ch=1 n=82 v=0
168780 On ch=1 n=80 v=96
168809 On ch=1 n=80 v=0
168840 On ch=1 n=77 v=96
168869 On ch=1 n=77 v=0
168900 On ch=1 n=80 v=96
168929 On ch=1 n=80 v=0
168960 On ch=1 n=77 v=96
168989 On ch=1 n=77 v=0
169020 On ch=1 n=74 v=96
169049 On ch=1 n=74 v=0
169080 On ch=1 n=70 v=96
169109 On ch=1 n=70 v=0
169140 On ch=1 n=74 v=96
169169 On ch=1 n=74 v=0
169200 On ch=1 n=75 v=127
169319 On ch=1 n=75 v=0
169320 On ch=1 n=82 v=127
169439 On ch=1 n=82 v=0
169440 On ch=1 n=82 v=127
169559 On ch=1 n=82 v=0
169560 On ch=1 n=82 v=127
169679 On ch=1 n=82 v=0
169680 On ch=1 n=75 v=127
169680 On ch=1 n=87 v=127
169799 On ch=1 n=87 v=0
169799 On ch=1 n=75 v=0
169800 On ch=1 n=75 v=127
169800 On ch=1 n=87 v=127
169919 On ch=1 n=87 v=0
169919 On ch=1 n=75 v=0
169920 On ch=1 n=75 v=127
169920 On ch=1 n=87 v=127
170039 On ch=1 n=87 v=0
170039 On ch=1 n=75 v=0
172920 On ch=1 n=78 v=48
173040 On ch=1 n=80 v=48
173049 On ch=1 n=78 v=0
173160 On ch=1 n=82 v=48
173169 On ch=1 n=80 v=0
173340 On ch=1 n=80 v=48
173349 On ch=1 n=82 v=0
173400 On ch=1 n=78 v=48
173409 On ch=1 n=80 v=0
173519 On ch=1 n=78 v=0
173520 On ch=1 n=77 v=48
174239 On ch=1 n=77 v=0
174240 On ch=1 n=78 v=48
174359 On ch=1 n=78 v=0
176400 On ch=1 n=86 v=48
176400 On ch=1 n=82 v=48
176639 On ch=1 n=86 v=0
176640 On ch=1 n=89 v=48
176640 On ch=1 n=86 v=48
176649 On ch=1 n=82 v=0
176759 On ch=1 n=86 v=0
176760 On ch=1 n=82 v=48
176760 On ch=1 n=86 v=48
176769 On ch=1 n=89 v=0
176999 On ch=1 n=82 v=0
177000 On ch=1 n=82 v=48
177000 On ch=1 n=77 v=48
177009 On ch=1 n=86 v=0
177119 On ch=1 n=77 v=0
177119 On ch=1 n=82 v=0
177120 On ch=1 n=82 v=48
177120 On ch=1 n=78 v=48
177239 On ch=1 n=82 v=0
177240 On ch=1 n=82 v=48
177240 On ch=1 n=90 v=48
177249 On ch=1 n=78 v=0
177359 On ch=1 n=90 v=0
177360 On ch=1 n=87 v=48
177360 On ch=1 n=90 v=48
177369 On ch=1 n=82 v=0
177479 On ch=1 n=90 v=0
177479 On ch=1 n=87 v=0
177480 On ch=1 n=90 v=48
177480 On ch=1 n=87 v=48
177599 On ch=1 n=87 v=0
177599 On ch=1 n=90 v=0
177840 On ch=1 n=87 v=48
177840 On ch=1 n=82 v=48
178079 On ch=1 n=87 v=0
178080 On ch=1 n=90 v=48
178080 On ch=1 n=87 v=48
178089 On ch=1 n=82 v=0
178199 On ch=1 n=87 v=0
178200 On ch=1 n=82 v=48
178200 On ch=1 n=87 v=48
178209 On ch=1 n=90 v=0
178439 On ch=1 n=82 v=0
178440 On ch=1 n=78 v=48
178440 On ch=1 n=82 v=48
178449 On ch=1 n=87 v=0
178559 On ch=1 n=82 v=0
178559 On ch=1 n=78 v=0
178560 On ch=1 n=80 v=48
178560 On ch=1 n=78 v=48
178679 On ch=1 n=80 v=0
178680 On ch=1 n=90 v=48
178680 On ch=1 n=80 v=48
178689 On ch=1 n=78 v=0
178799 On ch=1 n=90 v=0
178800 On ch=1 n=87 v=48
178800 On ch=1 n=90 v=48
178809 On ch=1 n=80 v=0
178919 On ch=1 n=90 v=0
178919 On ch=1 n=87 v=0
178920 On ch=1 n=90 v=48
178920 On ch=1 n=87 v=48
179039 On ch=1 n=87 v=0
179039 On ch=1 n=90 v=0
179280 On ch=1 n=87 v=48
179280 On ch=1 n=80 v=48
179519 On ch=1 n=87 v=0
179520 On ch=1 n=90 v=48
179520 On ch=1 n=87 v=48
179529 On ch=1 n=80 v=0
179639 On ch=1 n=87 v=0
179640 On ch=1 n=87 v=48
179640 On ch=1 n=80 v=48
179649 On ch=1 n=90 v=0
179879 On ch=1 n=80 v=0
179880 On ch=1 n=78 v=48
179880 On ch=1 n=80 v=48
179889 On ch=1 n=87 v=0
179999 On ch=1 n=80 v=0
179999 On ch=1 n=78 v=0
180000 On ch=1 n=80 v=48
180000 On ch=1 n=77 v=48
180119 On ch=1 n=80 v=0
180120 On ch=1 n=80 v=48
180120 On ch=1 n=85 v=48
180129 On ch=1 n=77 v=0
180239 On ch=1 n=85 v=0
180240 On ch=1 n=85 v=48
180240 On ch=1 n=89 v=48
180249 On ch=1 n=80 v=0
180359 On ch=1 n=89 v=0
180359 On ch=1 n=85 v=0
180360 On ch=1 n=85 v=48
180360 On ch=1 n=89 v=48
180479 On ch=1 n=89 v=0
180479 On ch=1 n=85 v=0
180720 On ch=1 n=85 v=48
180720 On ch=1 n=80 v=48
180959 On ch=1 n=85 v=0
180960 On ch=1 n=85 v=48
180960 On ch=1 n=89 v=48
180969 On ch=1 n=80 v=0
181079 On ch=1 n=85 v=0
181080 On ch=1 n=80 v=48
181080 On ch=1 n=85 v=48
181089 On ch=1 n=89 v=0
181319 On ch=1 n=80 v=0
181320 On ch=1 n=80 v=48
181320 On ch=1 n=77 v=48
181329 On ch=1 n=85 v=0
181439 On ch=1 n=77 v=0
181439 On ch=1 n=80 v=0
181440 On ch=1 n=77 v=48
181440 On ch=1 n=80 v=48
181559 On ch=1 n=80 v=0
181560 On ch=1 n=82 v=49
181560 On ch=1 n=80 v=49
181569 On ch=1 n=77 v=0
181679 On ch=1 n=82 v=0
181680 On ch=1 n=89 v=50
181680 On ch=1 n=82 v=50
181689 On ch=1 n=80 v=0
181799 On ch=1 n=82 v=0
181799 On ch=1 n=89 v=0
181800 On ch=1 n=89 v=51
181800 On ch=1 n=82 v=51
181919 On ch=1 n=82 v=0
181919 On ch=1 n=89 v=0
182160 On ch=1 n=82 v=54
182160 On ch=1 n=80 v=54
182399 On ch=1 n=82 v=0
182400 On ch=1 n=89 v=56
182400 On ch=1 n=82 v=56
182409 On ch=1 n=80 v=0
182519 On ch=1 n=82 v=0
182520 On ch=1 n=80 v=57
182520 On ch=1 n=82 v=57
182529 On ch=1 n=89 v=0
182759 On ch=1 n=80 v=0
182760 On ch=1 n=80 v=59
182760 On ch=1 n=77 v=59
182769 On ch=1 n=82 v=0
182879 On ch=1 n=77 v=0
182879 On ch=1 n=80 v=0
183240 On ch=1 n=87 v=72
183240 On ch=1 n=75 v=72
183480 On ch=1 n=78 v=68
183480 On ch=1 n=90 v=68
183489 On ch=1 n=75 v=0
183489 On ch=1 n=87 v=0
183599 On ch=1 n=78 v=0
183599 On ch=1 n=90 v=0
183960 On ch=1 n=87 v=96
183960 On ch=1 n=75 v=96
184200 On ch=1 n=78 v=96
184200 On ch=1 n=90 v=96
184209 On ch=1 n=75 v=0
184209 On ch=1 n=87 v=0
184319 On ch=1 n=78 v=0
184319 On ch=1 n=90 v=0
184320 On ch=1 n=90 v=127
184320 On ch=1 n=87 v=127
185159 On ch=1 n=87 v=0
185159 On ch=1 n=90 v=0
185160 On ch=1 n=90 v=127
185160 On ch=1 n=87 v=127
185279 On ch=1 n=87 v=0
185279 On ch=1 n=90 v=0
185280 On ch=1 n=87 v=127
185280 On ch=1 n=90 v=127
185399 On ch=1 n=90 v=0
185399 On ch=1 n=87 v=0
185400 On ch=1 n=90 v=127
185400 On ch=1 n=87 v=127
185519 On ch=1 n=87 v=0
185519 On ch=1 n=90 v=0
185520 On ch=1 n=90 v=127
185520 On ch=1 n=87 v=127
185639 On ch=1 n=87 v=0
185639 On ch=1 n=90 v=0
185640 On ch=1 n=90 v=127
185640 On ch=1 n=87 v=127
185759 On ch=1 n=87 v=0
185759 On ch=1 n=90 v=0
185760 On ch=1 n=90 v=127
185760 On ch=1 n=87 v=127
185879 On ch=1 n=87 v=0
185879 On ch=1 n=90 v=0
196560 On ch=1 n=86 v=96
196560 On ch=1 n=80 v=96
196919 On ch=1 n=80 v=0
196919 On ch=1 n=86 v=0
196920 On ch=1 n=80 v=127
196920 On ch=1 n=89 v=127
197279 On ch=1 n=89 v=0
197279 On ch=1 n=80 v=0
197280 On ch=1 n=87 v=127
197280 On ch=1 n=79 v=127
197399 On ch=1 n=79 v=0
197399 On ch=1 n=87 v=0
203760 On ch=1 n=73 v=56
204000 On ch=1 n=77 v=56
204009 On ch=1 n=73 v=0
204120 On ch=1 n=73 v=56
204129 On ch=1 n=77 v=0
204360 On ch=1 n=68 v=56
204369 On ch=1 n=73 v=0
204479 On ch=1 n=68 v=0
204480 On ch=1 n=73 v=56
204600 On ch=1 n=77 v=56
204609 On ch=1 n=73 v=0
204720 On ch=1 n=80 v=56
204729 On ch=1 n=77 v=0
204839 On ch=1 n=80 v=0
204840 On ch=1 n=80 v=56
205319 On ch=1 n=80 v=0
205320 On ch=1 n=80 v=48
205439 On ch=1 n=80 v=0
205440 On ch=1 n=80 v=48
205559 On ch=1 n=80 v=0
205560 On ch=1 n=80 v=48
206759 On ch=1 n=80 v=0
206760 On ch=1 n=70 v=32
206880 On ch=1 n=74 v=32
206889 On ch=1 n=70 v=0
207000 On ch=1 n=70 v=32
207009 On ch=1 n=74 v=0
207240 On ch=1 n=65 v=32
207249 On ch=1 n=70 v=0
207359 On ch=1 n=65 v=0
207360 On ch=1 n=70 v=32
207389 On ch=1 n=70 v=0
207420 On ch=1 n=74 v=34
207449 On ch=1 n=74 v=0
207480 On ch=1 n=77 v=36
207509 On ch=1 n=77 v=0
207540 On ch=1 n=70 v=38
207569 On ch=1 n=70 v=0
207600 On ch=1 n=74 v=40
207629 On ch=1 n=74 v=0
207660 On ch=1 n=77 v=42
207689 On ch=1 n=77 v=0
207720 On ch=1 n=80 v=44
207749 On ch=1 n=80 v=0
207780 On ch=1 n=74 v=46
207809 On ch=1 n=74 v=0
207840 On ch=1 n=77 v=48
207869 On ch=1 n=77 v=0
207900 On ch=1 n=80 v=50
207929 On ch=1 n=80 v=0
207960 On ch=1 n=84 v=52
207989 On ch=1 n=84 v=0
208020 On ch=1 n=82 v=54
208049 On ch=1 n=82 v=0
208080 On ch=1 n=80 v=56
208109 On ch=1 n=80 v=0
208140 On ch=1 n=82 v=58
208169 On ch=1 n=82 v=0
208200 On ch=1 n=80 v=60
208229 On ch=1 n=80 v=0
208260 On ch=1 n=79 v=62
208289 On ch=1 n=79 v=0
208320 On ch=1 n=80 v=64
208320 On ch=1 n=82 v=64
208349 On ch=1 n=82 v=0
208349 On ch=1 n=80 v=0
208380 On ch=1 n=79 v=68
208380 On ch=1 n=84 v=68
208409 On ch=1 n=84 v=0
208409 On ch=1 n=79 v=0
208440 On ch=1 n=77 v=72
208440 On ch=1 n=86 v=72
208469 On ch=1 n=86 v=0
208469 On ch=1 n=77 v=0
208500 On ch=1 n=75 v=76
208500 On ch=1 n=87 v=76
208529 On ch=1 n=87 v=0
208529 On ch=1 n=75 v=0
208560 On ch=1 n=74 v=80
208560 On ch=1 n=89 v=80
208589 On ch=1 n=89 v=0
208589 On ch=1 n=74 v=0
208620 On ch=1 n=75 v=84
208620 On ch=1 n=91 v=84
208649 On ch=1 n=91 v=0
208649 On ch=1 n=75 v=0
208680 On ch=1 n=77 v=88
208680 On ch=1 n=92 v=88
208709 On ch=1 n=92 v=0
208709 On ch=1 n=77 v=0
208740 On ch=1 n=80 v=88
208740 On ch=1 n=86 v=88
208769 On ch=1 n=86 v=0
208769 On ch=1 n=80 v=0
208800 On ch=1 n=79 v=96
208800 On ch=1 n=87 v=96
208920 On ch=1 n=75 v=96
208929 On ch=1 n=79 v=0
209040 On ch=1 n=79 v=96
209040 On ch=1 n=91 v=96
209049 On ch=1 n=75 v=0
209049 On ch=1 n=87 v=0
209160 On ch=1 n=75 v=96
209160 On ch=1 n=87 v=96
209169 On ch=1 n=79 v=0
209169 On ch=1 n=91 v=0
209400 On ch=1 n=70 v=96
209400 On ch=1 n=82 v=96
209409 On ch=1 n=75 v=0
209409 On ch=1 n=87 v=0
209519 On ch=1 n=70 v=0
209519 On ch=1 n=82 v=0
209520 On ch=1 n=75 v=96
209520 On ch=1 n=87 v=96
209639 On ch=1 n=87 v=0
209639 On ch=1 n=75 v=0
209640 On ch=1 n=87 v=96
209759 On ch=1 n=87 v=0
209760 On ch=1 n=87 v=96
209879 On ch=1 n=87 v=0
209880 On ch=1 n=87 v=96
210119 On ch=1 n=87 v=0
210120 On ch=1 n=82 v=112
210120 On ch=1 n=88 v=112
210239 On ch=1 n=88 v=0
210239 On ch=1 n=82 v=0
210240 On ch=1 n=80 v=96
210240 On ch=1 n=89 v=96
210359 On ch=1 n=89 v=0
210359 On ch=1 n=80 v=0
210360 On ch=1 n=80 v=96
210360 On ch=1 n=89 v=96
210479 On ch=1 n=89 v=0
210479 On ch=1 n=80 v=0
210480 On ch=1 n=80 v=96
210480 On ch=1 n=89 v=96
210599 On ch=1 n=89 v=0
210599 On ch=1 n=80 v=0
210600 On ch=1 n=80 v=96
210600 On ch=1 n=89 v=96
210839 On ch=1 n=89 v=0
210839 On ch=1 n=80 v=0
210840 On ch=1 n=81 v=96
210840 On ch=1 n=90 v=96
210959 On ch=1 n=90 v=0
210959 On ch=1 n=81 v=0
210960 On ch=1 n=82 v=112
210960 On ch=1 n=91 v=112
211319 On ch=1 n=91 v=0
211319 On ch=1 n=82 v=0
211320 On ch=1 n=84 v=112
211320 On ch=1 n=92 v=112
211679 On ch=1 n=92 v=0
211679 On ch=1 n=84 v=0
211680 On ch=1 n=86 v=112
211680 On ch=1 n=92 v=112
212159 On ch=1 n=92 v=0
212159 On ch=1 n=86 v=0
212160 On ch=1 n=92 v=112
212160 On ch=1 n=86 v=112
212279 On ch=1 n=86 v=0
212279 On ch=1 n=92 v=0
212280 On ch=1 n=92 v=112
212280 On ch=1 n=86 v=112
212399 On ch=1 n=86 v=0
212399 On ch=1 n=92 v=0
212400 On ch=1 n=87 v=127
212400 On ch=1 n=91 v=127
212639 On ch=1 n=91 v=0
212639 On ch=1 n=87 v=0
212640 On ch=1 n=91 v=127
212640 On ch=1 n=87 v=127
212759 On ch=1 n=87 v=0
212759 On ch=1 n=91 v=0
212760 On ch=1 n=87 v=127
212760 On ch=1 n=91 v=127
212999 On ch=1 n=91 v=0
212999 On ch=1 n=87 v=0
213000 On ch=1 n=91 v=127
213000 On ch=1 n=87 v=127
213239 On ch=1 n=87 v=0
213239 On ch=1 n=91 v=0
213240 On ch=1 n=87 v=127
213240 On ch=1 n=91 v=127
213359 On ch=1 n=91 v=0
213359 On ch=1 n=87 v=0
213360 On ch=1 n=91 v=127
213360 On ch=1 n=87 v=127
213479 On ch=1 n=87 v=0
213479 On ch=1 n=91 v=0
213480 On ch=1 n=87 v=127
213480 On ch=1 n=91 v=127
213719 On ch=1 n=91 v=0
213719 On ch=1 n=87 v=0
213720 On ch=1 n=91 v=127
213720 On ch=1 n=87 v=127
213959 On ch=1 n=87 v=0
213959 On ch=1 n=91 v=0
213960 On ch=1 n=87 v=127
213960 On ch=1 n=91 v=127
214079 On ch=1 n=91 v=0
214079 On ch=1 n=87 v=0
214080 On ch=1 n=91 v=127
214080 On ch=1 n=87 v=127
214199 On ch=1 n=87 v=0
214199 On ch=1 n=91 v=0
214200 On ch=1 n=87 v=127
214200 On ch=1 n=91 v=127
214439 On ch=1 n=87 v=0
214440 On ch=1 n=88 v=127
214559 On ch=1 n=88 v=0
214559 On ch=1 n=91 v=0
214560 On ch=1 n=91 v=127
214560 On ch=1 n=84 v=127
214620 On ch=1 n=89 v=127
214629 On ch=1 n=91 v=0
214680 On ch=1 n=88 v=127
214689 On ch=1 n=89 v=0
214740 On ch=1 n=89 v=127
214749 On ch=1 n=88 v=0
214800 On ch=1 n=91 v=127
214809 On ch=1 n=89 v=0
214860 On ch=1 n=89 v=127
214869 On ch=1 n=91 v=0
214919 On ch=1 n=89 v=0
214919 On ch=1 n=84 v=0
214920 On ch=1 n=89 v=127
214920 On ch=1 n=84 v=127
214980 On ch=1 n=87 v=127
214989 On ch=1 n=89 v=0
215040 On ch=1 n=86 v=127
215049 On ch=1 n=87 v=0
215100 On ch=1 n=87 v=127
215109 On ch=1 n=86 v=0
215160 On ch=1 n=89 v=127
215169 On ch=1 n=87 v=0
215220 On ch=1 n=87 v=127
215229 On ch=1 n=89 v=0
215279 On ch=1 n=84 v=0
215280 On ch=1 n=86 v=127
215280 On ch=1 n=77 v=127
215289 On ch=1 n=87 v=0
215399 On ch=1 n=77 v=0
215399 On ch=1 n=86 v=0
215400 On ch=1 n=84 v=48
215580 On ch=1 n=82 v=48
215589 On ch=1 n=84 v=0
215640 On ch=1 n=81 v=48
215649 On ch=1 n=82 v=0
215759 On ch=1 n=81 v=0
216840 On ch=1 n=84 v=48
217020 On ch=1 n=82 v=48
217029 On ch=1 n=84 v=0
217080 On ch=1 n=81 v=48
217089 On ch=1 n=82 v=0
217199 On ch=1 n=81 v=0
218640 On ch=1 n=83 v=96
218820 On ch=1 n=82 v=48
218829 On ch=1 n=83 v=0
218880 On ch=1 n=80 v=48
218889 On ch=1 n=82 v=0
218999 On ch=1 n=80 v=0
219000 On ch=1 n=84 v=127
219179 On ch=1 n=84 v=0
219180 On ch=1 n=82 v=127
219209 On ch=1 n=82 v=0
219240 On ch=1 n=80 v=127
219299 On ch=1 n=80 v=0
219360 On ch=1 n=79 v=127
219419 On ch=1 n=79 v=0
219480 On ch=1 n=77 v=127
219539 On ch=1 n=77 v=0
219600 On ch=1 n=75 v=48
219719 On ch=1 n=75 v=0
221040 On ch=1 n=87 v=56
221040 On ch=1 n=75 v=56
221819 On ch=1 n=75 v=0
221819 On ch=1 n=87 v=0
221820 On ch=1 n=82 v=74
221849 On ch=1 n=82 v=0
221880 On ch=1 n=82 v=76
221909 On ch=1 n=82 v=0
221940 On ch=1 n=75 v=78
221940 On ch=1 n=82 v=78
221969 On ch=1 n=82 v=0
221969 On ch=1 n=75 v=0
222000 On ch=1 n=77 v=80
222000 On ch=1 n=86 v=80
222029 On ch=1 n=86 v=0
222029 On ch=1 n=77 v=0
222060 On ch=1 n=79 v=82
222060 On ch=1 n=87 v=82
222089 On ch=1 n=87 v=0
222089 On ch=1 n=79 v=0
222120 On ch=1 n=80 v=84
222120 On ch=1 n=89 v=84
222479 On ch=1 n=89 v=0
222479 On ch=1 n=80 v=0
222480 On ch=1 n=89 v=96
222480 On ch=1 n=80 v=96
222539 On ch=1 n=80 v=0
222539 On ch=1 n=89 v=0
222600 On ch=1 n=86 v=96
222600 On ch=1 n=89 v=96
222659 On ch=1 n=89 v=0
222659 On ch=1 n=86 v=0
223140 On ch=1 n=89 v=96
223140 On ch=1 n=86 v=96
223199 On ch=1 n=86 v=0
223199 On ch=1 n=89 v=0
223200 On ch=1 n=84 v=96
223200 On ch=1 n=87 v=96
223259 On ch=1 n=87 v=0
223259 On ch=1 n=84 v=0
223320 On ch=1 n=87 v=96
223320 On ch=1 n=84 v=96
223379 On ch=1 n=84 v=0
223379 On ch=1 n=87 v=0
223860 On ch=1 n=84 v=96
223860 On ch=1 n=79 v=96
223919 On ch=1 n=79 v=0
223919 On ch=1 n=84 v=0
223920 On ch=1 n=79 v=96
223920 On ch=1 n=85 v=96
223979 On ch=1 n=85 v=0
223979 On ch=1 n=79 v=0
224040 On ch=1 n=79 v=96
224040 On ch=1 n=76 v=96
224099 On ch=1 n=76 v=0
224099 On ch=1 n=79 v=0
224580 On ch=1 n=85 v=96
224580 On ch=1 n=79 v=96
224609 On ch=1 n=79 v=0
224609 On ch=1 n=85 v=0
224640 On ch=1 n=80 v=96
224640 On ch=1 n=84 v=96
224669 On ch=1 n=84 v=0
224669 On ch=1 n=80 v=0
224700 On ch=1 n=72 v=96
224700 On ch=1 n=84 v=96
224819 On ch=1 n=84 v=0
224819 On ch=1 n=72 v=0
224820 On ch=1 n=84 v=96
224820 On ch=1 n=75 v=96
224849 On ch=1 n=75 v=0
224849 On ch=1 n=84 v=0
224880 On ch=1 n=86 v=96
224880 On ch=1 n=74 v=96
224909 On ch=1 n=74 v=0
224909 On ch=1 n=86 v=0
224940 On ch=1 n=79 v=96
224940 On ch=1 n=77 v=96
224969 On ch=1 n=77 v=0
224969 On ch=1 n=79 v=0
225000 On ch=1 n=79 v=96
225000 On ch=1 n=75 v=96
225029 On ch=1 n=75 v=0
225029 On ch=1 n=79 v=0
225060 On ch=1 n=87 v=96
225060 On ch=1 n=80 v=96
225179 On ch=1 n=80 v=0
225179 On ch=1 n=87 v=0
225180 On ch=1 n=80 v=96
225180 On ch=1 n=87 v=96
225209 On ch=1 n=87 v=0
225209 On ch=1 n=80 v=0
225240 On ch=1 n=89 v=96
225240 On ch=1 n=80 v=96
225269 On ch=1 n=80 v=0
225269 On ch=1 n=89 v=0
225300 On ch=1 n=82 v=96
225300 On ch=1 n=80 v=96
225329 On ch=1 n=80 v=0
225329 On ch=1 n=82 v=0
225360 On ch=1 n=82 v=96
225360 On ch=1 n=79 v=96
225479 On ch=1 n=79 v=0
225479 On ch=1 n=82 v=0
225480 On ch=1 n=87 v=96
225480 On ch=1 n=79 v=96
225599 On ch=1 n=87 v=0
225600 On ch=1 n=80 v=96
225600 On ch=1 n=87 v=96
225609 On ch=1 n=79 v=0
225719 On ch=1 n=87 v=0
225719 On ch=1 n=80 v=0
225720 On ch=1 n=87 v=96
225720 On ch=1 n=81 v=96
225839 On ch=1 n=87 v=0
225840 On ch=1 n=87 v=96
225840 On ch=1 n=82 v=96
225849 On ch=1 n=81 v=0
225959 On ch=1 n=87 v=0
225960 On ch=1 n=87 v=96
225960 On ch=1 n=83 v=96
225969 On ch=1 n=82 v=0
226079 On ch=1 n=83 v=0
226079 On ch=1 n=87 v=0
226080 On ch=1 n=84 v=96
226080 On ch=1 n=87 v=96
226320 On ch=1 n=88 v=96
226329 On ch=1 n=87 v=0
226440 On ch=1 n=89 v=96
226449 On ch=1 n=88 v=0
226559 On ch=1 n=89 v=0
226559 On ch=1 n=84 v=0
227520 On ch=1 n=82 v=112
228299 On ch=1 n=82 v=0
228300 On ch=1 n=81 v=127
228329 On ch=1 n=81 v=0
228360 On ch=1 n=80 v=127
228389 On ch=1 n=80 v=0
228420 On ch=1 n=91 v=127
228420 On ch=1 n=79 v=127
228449 On ch=1 n=79 v=0
228449 On ch=1 n=91 v=0
228480 On ch=1 n=89 v=127
228480 On ch=1 n=77 v=127
228509 On ch=1 n=77 v=0
228509 On ch=1 n=89 v=0
228540 On ch=1 n=87 v=127
228540 On ch=1 n=75 v=127
228569 On ch=1 n=75 v=0
228569 On ch=1 n=87 v=0
228600 On ch=1 n=86 v=127
228600 On ch=1 n=74 v=127
228629 On ch=1 n=74 v=0
228629 On ch=1 n=86 v=0
228660 On ch=1 n=84 v=127
228660 On ch=1 n=72 v=127
228689 On ch=1 n=72 v=0
228689 On ch=1 n=84 v=0
228720 On ch=1 n=82 v=127
228720 On ch=1 n=70 v=127
228749 On ch=1 n=70 v=0
228749 On ch=1 n=82 v=0
228780 On ch=1 n=80 v=127
228809 On ch=1 n=80 v=0
228840 On ch=1 n=79 v=127
228869 On ch=1 n=79 v=0
228900 On ch=1 n=77 v=127
228929 On ch=1 n=77 v=0
228960 On ch=1 n=75 v=127
229079 On ch=1 n=75 v=0
231720 On ch=1 n=82 v=96
231960 On ch=1 n=80 v=84
231969 On ch=1 n=82 v=0
232020 On ch=1 n=78 v=72
232029 On ch=1 n=80 v=0
232080 On ch=1 n=77 v=64
232089 On ch=1 n=78 v=0
232140 On ch=1 n=75 v=56
232149 On ch=1 n=77 v=0
232199 On ch=1 n=75 v=0
232680 On ch=1 n=83 v=48
232769 On ch=1 n=83 v=0
232800 On ch=1 n=83 v=64
232889 On ch=1 n=83 v=0
232920 On ch=1 n=83 v=96
233279 On ch=1 n=83 v=0
237840 On ch=1 n=68 v=78
237869 On ch=1 n=68 v=0
237900 On ch=1 n=70 v=80
237929 On ch=1 n=70 v=0
237960 On ch=1 n=72 v=82
237989 On ch=1 n=72 v=0
238020 On ch=1 n=74 v=84
238049 On ch=1 n=74 v=0
238080 On ch=1 n=75 v=87
238109 On ch=1 n=75 v=0
238140 On ch=1 n=77 v=89
238169 On ch=1 n=77 v=0
238200 On ch=1 n=79 v=92
238229 On ch=1 n=79 v=0
238260 On ch=1 n=80 v=94
238289 On ch=1 n=80 v=0
238320 On ch=1 n=82 v=96
238439 On ch=1 n=82 v=0
238440 On ch=1 n=82 v=112
238679 On ch=1 n=82 v=0
238800 On ch=1 n=82 v=112
239039 On ch=1 n=82 v=0
239160 On ch=1 n=82 v=112
239399 On ch=1 n=82 v=0
239520 On ch=1 n=82 v=112
239639 On ch=1 n=82 v=0
239640 On ch=1 n=82 v=96
239759 On ch=1 n=82 v=0
239760 On ch=1 n=82 v=127
239819 On ch=1 n=82 v=0
239880 On ch=1 n=82 v=127
240059 On ch=1 n=82 v=0
240060 On ch=1 n=91 v=127
240060 On ch=1 n=79 v=127
240119 On ch=1 n=79 v=0
240119 On ch=1 n=91 v=0
240120 On ch=1 n=87 v=127
240120 On ch=1 n=75 v=127
240179 On ch=1 n=75 v=0
240179 On ch=1 n=87 v=0
240240 On ch=1 n=91 v=127
240240 On ch=1 n=79 v=127
240419 On ch=1 n=79 v=0
240419 On ch=1 n=91 v=0
240420 On ch=1 n=82 v=127
240420 On ch=1 n=70 v=127
240479 On ch=1 n=70 v=0
240479 On ch=1 n=82 v=0
240480 On ch=1 n=89 v=127
240480 On ch=1 n=77 v=127
240539 On ch=1 n=77 v=0
240539 On ch=1 n=89 v=0
240600 On ch=1 n=80 v=127
240600 On ch=1 n=92 v=127
240779 On ch=1 n=92 v=0
240779 On ch=1 n=80 v=0
240780 On ch=1 n=82 v=127
240780 On ch=1 n=70 v=127
240839 On ch=1 n=70 v=0
240839 On ch=1 n=82 v=0
240840 On ch=1 n=86 v=127
240840 On ch=1 n=74 v=127
240899 On ch=1 n=74 v=0
240899 On ch=1 n=86 v=0
240960 On ch=1 n=77 v=127
240960 On ch=1 n=89 v=127
241139 On ch=1 n=89 v=0
241139 On ch=1 n=77 v=0
241140 On ch=1 n=82 v=127
241140 On ch=1 n=70 v=127
241199 On ch=1 n=70 v=0
241199 On ch=1 n=82 v=0
241200 On ch=1 n=87 v=127
241200 On ch=1 n=75 v=127
241499 On ch=1 n=75 v=0
241500 On ch=1 n=81 v=127
241560 On ch=1 n=82 v=127
241569 On ch=1 n=81 v=0
241679 On ch=1 n=82 v=0
241679 On ch=1 n=87 v=0
242940 On ch=1 n=83 v=127
242940 On ch=1 n=79 v=127
242999 On ch=1 n=79 v=0
242999 On ch=1 n=83 v=0
243000 On ch=1 n=79 v=127
243000 On ch=1 n=84 v=127
243029 On ch=1 n=84 v=0
243029 On ch=1 n=79 v=0
243060 On ch=1 n=86 v=127
243060 On ch=1 n=79 v=127
243089 On ch=1 n=79 v=0
243089 On ch=1 n=86 v=0
243120 On ch=1 n=79 v=127
243120 On ch=1 n=87 v=127
243149 On ch=1 n=87 v=0
243149 On ch=1 n=79 v=0
243180 On ch=1 n=88 v=127
243180 On ch=1 n=84 v=127
243209 On ch=1 n=84 v=0
243209 On ch=1 n=88 v=0
243240 On ch=1 n=84 v=127
243240 On ch=1 n=89 v=127
243269 On ch=1 n=89 v=0
243269 On ch=1 n=84 v=0
243300 On ch=1 n=84 v=127
243300 On ch=1 n=90 v=127
243329 On ch=1 n=90 v=0
243329 On ch=1 n=84 v=0
243360 On ch=1 n=91 v=127
243360 On ch=1 n=83 v=127
243419 On ch=1 n=83 v=0
243419 On ch=1 n=91 v=0
243480 On ch=1 n=89 v=127
243539 On ch=1 n=89 v=0
243600 On ch=1 n=87 v=127
243659 On ch=1 n=87 v=0
243840 On ch=1 n=85 v=127
243899 On ch=1 n=85 v=0
243960 On ch=1 n=84 v=127
244019 On ch=1 n=84 v=0
244200 On ch=1 n=87 v=127
244259 On ch=1 n=87 v=0
244320 On ch=1 n=86 v=127
244379 On ch=1 n=86 v=0
244560 On ch=1 n=89 v=127
244619 On ch=1 n=89 v=0
244680 On ch=1 n=87 v=127
244739 On ch=1 n=87 v=0
244920 On ch=1 n=85 v=127
244979 On ch=1 n=85 v=0
245040 On ch=1 n=84 v=127
245099 On ch=1 n=84 v=0
245280 On ch=1 n=87 v=127
245339 On ch=1 n=87 v=0
245520 On ch=1 n=87 v=127
245579 On ch=1 n=87 v=0
245760 On ch=1 n=87 v=127
245819 On ch=1 n=87 v=0
246000 On ch=1 n=87 v=127
246059 On ch=1 n=87 v=0
246240 On ch=1 n=87 v=127
246299 On ch=1 n=87 v=0
246480 On ch=1 n=87 v=127
246539 On ch=1 n=87 v=0
248280 On ch=1 n=78 v=48
248339 On ch=1 n=78 v=0
248520 On ch=1 n=77 v=48
248579 On ch=1 n=77 v=0
248760 On ch=1 n=80 v=48
248819 On ch=1 n=80 v=0
249000 On ch=1 n=80 v=48
249059 On ch=1 n=80 v=0
249240 On ch=1 n=79 v=48
249299 On ch=1 n=79 v=0
249480 On ch=1 n=84 v=64
249480 On ch=1 n=72 v=64
250019 On ch=1 n=72 v=0
250019 On ch=1 n=84 v=0
250020 On ch=1 n=80 v=87
250020 On ch=1 n=84 v=87
250080 On ch=1 n=79 v=92
250080 On ch=1 n=82 v=92
250089 On ch=1 n=84 v=0
250089 On ch=1 n=80 v=0
250140 On ch=1 n=77 v=97
250140 On ch=1 n=80 v=97
250149 On ch=1 n=79 v=0
250149 On ch=1 n=82 v=0
250199 On ch=1 n=77 v=0
250199 On ch=1 n=80 v=0
250200 On ch=1 n=79 v=102
250200 On ch=1 n=75 v=102
250229 On ch=1 n=75 v=0
250229 On ch=1 n=79 v=0
250260 On ch=1 n=75 v=107
250289 On ch=1 n=75 v=0
250320 On ch=1 n=75 v=107
250320 On ch=1 n=79 v=107
250349 On ch=1 n=79 v=0
250349 On ch=1 n=75 v=0
250380 On ch=1 n=82 v=112
250380 On ch=1 n=79 v=107
250409 On ch=1 n=79 v=0
250409 On ch=1 n=82 v=0
250440 On ch=1 n=79 v=117
250440 On ch=1 n=87 v=117
250469 On ch=1 n=87 v=0
250469 On ch=1 n=79 v=0
250500 On ch=1 n=91 v=122
250500 On ch=1 n=82 v=122
250529 On ch=1 n=82 v=0
250529 On ch=1 n=91 v=0
250560 On ch=1 n=82 v=127
250919 On ch=1 n=82 v=0
250920 On ch=1 n=75 v=96
251039 On ch=1 n=75 v=0
251280 On ch=1 n=87 v=96
251399 On ch=1 n=87 v=0
251640 On ch=1 n=87 v=96
251759 On ch=1 n=87 v=0
252000 On ch=1 n=86 v=96
252000 On ch=1 n=87 v=96
252059 On ch=1 n=87 v=0
252059 On ch=1 n=86 v=0
252120 On ch=1 n=86 v=96
252120 On ch=1 n=87 v=96
252179 On ch=1 n=87 v=0
252179 On ch=1 n=86 v=0
252240 On ch=1 n=86 v=96
252240 On ch=1 n=87 v=96
252299 On ch=1 n=87 v=0
252299 On ch=1 n=86 v=0
252360 On ch=1 n=87 v=96
252479 On ch=1 n=87 v=0
252900 On ch=1 n=75 v=48
252960 On ch=1 n=79 v=48
252969 On ch=1 n=75 v=0
253020 On ch=1 n=82 v=48
253029 On ch=1 n=79 v=0
253079 On ch=1 n=82 v=0
253080 On ch=1 n=87 v=48
253320 On ch=1 n=91 v=48
253329 On ch=1 n=87 v=0
253440 On ch=1 n=87 v=48
253449 On ch=1 n=91 v=0
253680 On ch=1 n=82 v=48
253689 On ch=1 n=87 v=0
253800 On ch=1 n=87 v=48
253809 On ch=1 n=82 v=0
253919 On ch=1 n=87 v=0
254520 On ch=1 n=89 v=96
254520 On ch=1 n=85 v=96
255239 On ch=1 n=85 v=0
255240 On ch=1 n=85 v=48
255249 On ch=1 n=89 v=0
255359 On ch=1 n=85 v=0
255960 On ch=1 n=84 v=127
256019 On ch=1 n=84 v=0
256020 On ch=1 n=84 v=127
256079 On ch=1 n=84 v=0
256080 On ch=1 n=84 v=127
256139 On ch=1 n=84 v=0
256140 On ch=1 n=84 v=127
256199 On ch=1 n=84 v=0
256200 On ch=1 n=88 v=127
256259 On ch=1 n=88 v=0
256260 On ch=1 n=88 v=127
256319 On ch=1 n=88 v=0
256320 On ch=1 n=84 v=127
256379 On ch=1 n=84 v=0
256380 On ch=1 n=84 v=127
256439 On ch=1 n=84 v=0
256440 On ch=1 n=84 v=127
256499 On ch=1 n=84 v=0
256500 On ch=1 n=84 v=127
256559 On ch=1 n=84 v=0
256560 On ch=1 n=79 v=127
256619 On ch=1 n=79 v=0
256620 On ch=1 n=79 v=127
256679 On ch=1 n=79 v=0
256680 On ch=1 n=84 v=48
256799 On ch=1 n=84 v=0
265680 On ch=1 n=82 v=64
266159 On ch=1 n=82 v=0
266160 On ch=1 n=87 v=48
266280 On ch=1 n=86 v=48
266289 On ch=1 n=87 v=0
266400 On ch=1 n=87 v=64
266409 On ch=1 n=86 v=0
266580 On ch=1 n=89 v=48
266589 On ch=1 n=87 v=0
266640 On ch=1 n=90 v=48
266649 On ch=1 n=89 v=0
266759 On ch=1 n=90 v=0
267300 On ch=1 n=82 v=48
267360 On ch=1 n=84 v=48
267369 On ch=1 n=82 v=0
267420 On ch=1 n=86 v=48
267429 On ch=1 n=84 v=0
267479 On ch=1 n=86 v=0
267480 On ch=1 n=87 v=48
267599 On ch=1 n=87 v=0
267600 On ch=1 n=87 v=48
267720 On ch=1 n=86 v=48
267729 On ch=1 n=87 v=0
267840 On ch=1 n=87 v=64
267849 On ch=1 n=86 v=0
268020 On ch=1 n=89 v=48
268029 On ch=1 n=87 v=0
268080 On ch=1 n=90 v=48
268089 On ch=1 n=89 v=0
268199 On ch=1 n=90 v=0
268200 On ch=1 n=89 v=48
268319 On ch=1 n=89 v=0
271800 On ch=1 n=82 v=32
272400 On ch=1 n=83 v=32
272409 On ch=1 n=82 v=0
272520 On ch=1 n=84 v=32
272529 On ch=1 n=83 v=0
272639 On ch=1 n=84 v=0
273240 On ch=1 n=84 v=32
273840 On ch=1 n=85 v=32
273849 On ch=1 n=84 v=0
273960 On ch=1 n=86 v=32
273969 On ch=1 n=85 v=0
274079 On ch=1 n=86 v=0
276960 On ch=1 n=86 v=48
277319 On ch=1 n=86 v=0
277320 On ch=1 n=86 v=56
277679 On ch=1 n=86 v=0
277680 On ch=1 n=86 v=64
277799 On ch=1 n=86 v=0
277800 On ch=1 n=86 v=60
277919 On ch=1 n=86 v=0
277920 On ch=1 n=86 v=56
278040 On ch=1 n=87 v=52
278049 On ch=1 n=86 v=0
278160 On ch=1 n=89 v=48
278169 On ch=1 n=87 v=0
278340 On ch=1 n=87 v=48
278349 On ch=1 n=89 v=0
278400 On ch=1 n=86 v=48
278409 On ch=1 n=87 v=0
278460 On ch=1 n=87 v=48
278469 On ch=1 n=86 v=0
278520 On ch=1 n=89 v=48
278529 On ch=1 n=87 v=0
278580 On ch=1 n=87 v=48
278589 On ch=1 n=89 v=0
278639 On ch=1 n=87 v=0
278700 On ch=1 n=87 v=48
278760 On ch=1 n=86 v=48
278769 On ch=1 n=87 v=0
278820 On ch=1 n=87 v=48
278829 On ch=1 n=86 v=0
278880 On ch=1 n=89 v=48
278889 On ch=1 n=87 v=0
278940 On ch=1 n=87 v=48
278949 On ch=1 n=89 v=0
278999 On ch=1 n=87 v=0
279060 On ch=1 n=84 v=48
279120 On ch=1 n=83 v=48
279129 On ch=1 n=84 v=0
279180 On ch=1 n=84 v=48
279189 On ch=1 n=83 v=0
279240 On ch=1 n=86 v=48
279249 On ch=1 n=84 v=0
279300 On ch=1 n=84 v=48
279309 On ch=1 n=86 v=0
279359 On ch=1 n=84 v=0
279420 On ch=1 n=84 v=48
279480 On ch=1 n=83 v=48
279489 On ch=1 n=84 v=0
279540 On ch=1 n=84 v=48
279549 On ch=1 n=83 v=0
279600 On ch=1 n=86 v=48
279609 On ch=1 n=84 v=0
279660 On ch=1 n=84 v=48
279669 On ch=1 n=86 v=0
279719 On ch=1 n=84 v=0
279720 On ch=1 n=82 v=48
280199 On ch=1 n=82 v=0
280200 On ch=1 n=79 v=56
280200 On ch=1 n=87 v=56
280259 On ch=1 n=87 v=0
280259 On ch=1 n=79 v=0
280320 On ch=1 n=79 v=58
280320 On ch=1 n=87 v=58
280379 On ch=1 n=87 v=0
280379 On ch=1 n=79 v=0
280440 On ch=1 n=77 v=60
280440 On ch=1 n=86 v=60
280499 On ch=1 n=86 v=0
280499 On ch=1 n=77 v=0
280560 On ch=1 n=80 v=62
280560 On ch=1 n=89 v=62
280619 On ch=1 n=89 v=0
280619 On ch=1 n=80 v=0
280680 On ch=1 n=80 v=64
280680 On ch=1 n=89 v=64
280739 On ch=1 n=89 v=0
280739 On ch=1 n=80 v=0
280800 On ch=1 n=80 v=48
280800 On ch=1 n=86 v=48
280859 On ch=1 n=86 v=0
280859 On ch=1 n=80 v=0
280920 On ch=1 n=80 v=48
280920 On ch=1 n=86 v=48
280979 On ch=1 n=86 v=0
280979 On ch=1 n=80 v=0
281040 On ch=1 n=80 v=48
281040 On ch=1 n=86 v=48
281099 On ch=1 n=86 v=0
281099 On ch=1 n=80 v=0
281160 On ch=1 n=79 v=48
281160 On ch=1 n=87 v=48
281219 On ch=1 n=87 v=0
281219 On ch=1 n=79 v=0
285480 On ch=1 n=82 v=48
286979 On ch=1 n=82 v=0
286980 On ch=1 n=79 v=49
287010 On ch=1 n=80 v=49
287019 On ch=1 n=79 v=0
287040 On ch=1 n=82 v=50
287049 On ch=1 n=80 v=0
287069 On ch=1 n=82 v=0
287100 On ch=1 n=82 v=51
287129 On ch=1 n=82 v=0
287160 On ch=1 n=84 v=52
287189 On ch=1 n=84 v=0
287220 On ch=1 n=86 v=53
287249 On ch=1 n=86 v=0
287280 On ch=1 n=87 v=54
287309 On ch=1 n=87 v=0
287340 On ch=1 n=82 v=55
287369 On ch=1 n=82 v=0
287400 On ch=1 n=84 v=56
287429 On ch=1 n=84 v=0
287460 On ch=1 n=86 v=57
287489 On ch=1 n=86 v=0
287520 On ch=1 n=87 v=58
287549 On ch=1 n=87 v=0
287580 On ch=1 n=89 v=59
287609 On ch=1 n=89 v=0
287640 On ch=1 n=91 v=76
287669 On ch=1 n=91 v=0
287700 On ch=1 n=91 v=61
287730 On ch=1 n=89 v=61
287739 On ch=1 n=91 v=0
287760 On ch=1 n=87 v=62
287769 On ch=1 n=89 v=0
287789 On ch=1 n=87 v=0
287820 On ch=1 n=86 v=63
287849 On ch=1 n=86 v=0
287880 On ch=1 n=84 v=64
287909 On ch=1 n=84 v=0
287940 On ch=1 n=82 v=65
287969 On ch=1 n=82 v=0
288000 On ch=1 n=80 v=66
288029 On ch=1 n=80 v=0
288060 On ch=1 n=79 v=67
288089 On ch=1 n=79 v=0
288120 On ch=1 n=77 v=68
288149 On ch=1 n=77 v=0
288180 On ch=1 n=75 v=69
288209 On ch=1 n=75 v=0
288240 On ch=1 n=74 v=70
288269 On ch=1 n=74 v=0
288300 On ch=1 n=72 v=71
288329 On ch=1 n=72 v=0
288360 On ch=1 n=70 v=72
288389 On ch=1 n=70 v=0
288420 On ch=1 n=70 v=73
288450 On ch=1 n=72 v=73
288459 On ch=1 n=70 v=0
288480 On ch=1 n=74 v=74
288489 On ch=1 n=72 v=0
288509 On ch=1 n=74 v=0
288540 On ch=1 n=75 v=75
288569 On ch=1 n=75 v=0
288600 On ch=1 n=77 v=76
288629 On ch=1 n=77 v=0
288660 On ch=1 n=79 v=77
288689 On ch=1 n=79 v=0
288720 On ch=1 n=80 v=78
288749 On ch=1 n=80 v=0
288780 On ch=1 n=70 v=79
288780 On ch=1 n=82 v=79
288810 On ch=1 n=72 v=79
288810 On ch=1 n=84 v=79
288819 On ch=1 n=82 v=0
288819 On ch=1 n=70 v=0
288840 On ch=1 n=74 v=80
288840 On ch=1 n=86 v=80
288849 On ch=1 n=72 v=0
288849 On ch=1 n=84 v=0
288869 On ch=1 n=74 v=0
288869 On ch=1 n=86 v=0
288900 On ch=1 n=75 v=81
288900 On ch=1 n=87 v=81
288929 On ch=1 n=87 v=0
288929 On ch=1 n=75 v=0
288960 On ch=1 n=77 v=82
288960 On ch=1 n=89 v=82
288989 On ch=1 n=89 v=0
288989 On ch=1 n=77 v=0
289020 On ch=1 n=79 v=83
289020 On ch=1 n=91 v=83
289049 On ch=1 n=91 v=0
289049 On ch=1 n=79 v=0
289080 On ch=1 n=80 v=100
289080 On ch=1 n=92 v=100
289109 On ch=1 n=92 v=0
289109 On ch=1 n=80 v=0
289140 On ch=1 n=79 v=85
289140 On ch=1 n=91 v=85
289169 On ch=1 n=91 v=0
289169 On ch=1 n=79 v=0
289200 On ch=1 n=77 v=86
289200 On ch=1 n=89 v=86
289229 On ch=1 n=89 v=0
289229 On ch=1 n=77 v=0
289260 On ch=1 n=87 v=87
289289 On ch=1 n=87 v=0
289320 On ch=1 n=86 v=88
289349 On ch=1 n=86 v=0
289380 On ch=1 n=84 v=89
289409 On ch=1 n=84 v=0
289440 On ch=1 n=82 v=90
289469 On ch=1 n=82 v=0
289500 On ch=1 n=84 v=91
289529 On ch=1 n=84 v=0
289560 On ch=1 n=82 v=92
289589 On ch=1 n=82 v=0
289620 On ch=1 n=80 v=93
289649 On ch=1 n=80 v=0
289680 On ch=1 n=79 v=94
289709 On ch=1 n=79 v=0
289740 On ch=1 n=77 v=95
289769 On ch=1 n=77 v=0
289800 On ch=1 n=75 v=96
289859 On ch=1 n=75 v=0
289860 On ch=1 n=87 v=96
289919 On ch=1 n=87 v=0
289920 On ch=1 n=87 v=96
289979 On ch=1 n=87 v=0
289980 On ch=1 n=87 v=96
290039 On ch=1 n=87 v=0
290040 On ch=1 n=91 v=96
290099 On ch=1 n=91 v=0
290100 On ch=1 n=91 v=96
290159 On ch=1 n=91 v=0
290160 On ch=1 n=87 v=96
290219 On ch=1 n=87 v=0
290220 On ch=1 n=87 v=96
290279 On ch=1 n=87 v=0
290280 On ch=1 n=87 v=96
290339 On ch=1 n=87 v=0
290340 On ch=1 n=87 v=96
290399 On ch=1 n=87 v=0
290400 On ch=1 n=82 v=96
290459 On ch=1 n=82 v=0
290460 On ch=1 n=82 v=96
290519 On ch=1 n=82 v=0
290520 On ch=1 n=87 v=96
290579 On ch=1 n=87 v=0
290580 On ch=1 n=87 v=96
290639 On ch=1 n=87 v=0
290640 On ch=1 n=91 v=96
290699 On ch=1 n=91 v=0
290700 On ch=1 n=91 v=96
290759 On ch=1 n=91 v=0
290760 On ch=1 n=82 v=96
290819 On ch=1 n=82 v=0
290820 On ch=1 n=82 v=96
290879 On ch=1 n=82 v=0
290880 On ch=1 n=82 v=96
290939 On ch=1 n=82 v=0
290940 On ch=1 n=82 v=96
290999 On ch=1 n=82 v=0
291000 On ch=1 n=82 v=96
291059 On ch=1 n=82 v=0
291060 On ch=1 n=82 v=96
291119 On ch=1 n=82 v=0
291120 On ch=1 n=82 v=96
291179 On ch=1 n=82 v=0
291180 On ch=1 n=82 v=96
291239 On ch=1 n=82 v=0
291240 On ch=1 n=77 v=96
291240 On ch=1 n=89 v=96
291299 On ch=1 n=89 v=0
291299 On ch=1 n=77 v=0
291300 On ch=1 n=77 v=96
291300 On ch=1 n=89 v=96
291359 On ch=1 n=89 v=0
291359 On ch=1 n=77 v=0
291360 On ch=1 n=77 v=96
291360 On ch=1 n=89 v=96
291419 On ch=1 n=89 v=0
291419 On ch=1 n=77 v=0
291420 On ch=1 n=77 v=96
291420 On ch=1 n=89 v=96
291479 On ch=1 n=89 v=0
291479 On ch=1 n=77 v=0
291480 On ch=1 n=80 v=96
291480 On ch=1 n=92 v=96
291539 On ch=1 n=92 v=0
291539 On ch=1 n=80 v=0
291540 On ch=1 n=80 v=96
291540 On ch=1 n=92 v=96
291599 On ch=1 n=92 v=0
291599 On ch=1 n=80 v=0
291600 On ch=1 n=77 v=96
291600 On ch=1 n=89 v=96
291659 On ch=1 n=89 v=0
291659 On ch=1 n=77 v=0
291660 On ch=1 n=77 v=96
291660 On ch=1 n=89 v=96
291719 On ch=1 n=89 v=0
291719 On ch=1 n=77 v=0
291720 On ch=1 n=77 v=96
291720 On ch=1 n=89 v=96
291779 On ch=1 n=89 v=0
291779 On ch=1 n=77 v=0
291780 On ch=1 n=77 v=96
291780 On ch=1 n=89 v=96
291839 On ch=1 n=89 v=0
291839 On ch=1 n=77 v=0
291840 On ch=1 n=70 v=96
291840 On ch=1 n=82 v=96
291899 On ch=1 n=82 v=0
291899 On ch=1 n=70 v=0
291900 On ch=1 n=70 v=96
291900 On ch=1 n=82 v=96
291959 On ch=1 n=82 v=0
291959 On ch=1 n=70 v=0
291960 On ch=1 n=77 v=96
291960 On ch=1 n=89 v=96
292019 On ch=1 n=89 v=0
292019 On ch=1 n=77 v=0
292020 On ch=1 n=77 v=96
292020 On ch=1 n=89 v=96
292079 On ch=1 n=89 v=0
292079 On ch=1 n=77 v=0
292080 On ch=1 n=80 v=96
292080 On ch=1 n=92 v=96
292139 On ch=1 n=92 v=0
292139 On ch=1 n=80 v=0
292140 On ch=1 n=80 v=96
292140 On ch=1 n=92 v=96
292199 On ch=1 n=92 v=0
292199 On ch=1 n=80 v=0
292200 On ch=1 n=82 v=96
292259 On ch=1 n=82 v=0
292260 On ch=1 n=82 v=96
292319 On ch=1 n=82 v=0
292320 On ch=1 n=82 v=96
292379 On ch=1 n=82 v=0
292380 On ch=1 n=82 v=96
292439 On ch=1 n=82 v=0
292440 On ch=1 n=82 v=96
292499 On ch=1 n=82 v=0
292500 On ch=1 n=82 v=96
292559 On ch=1 n=82 v=0
292560 On ch=1 n=82 v=96
292619 On ch=1 n=82 v=0
292620 On ch=1 n=82 v=96
292679 On ch=1 n=82 v=0
292680 On ch=1 n=82 v=96
292739 On ch=1 n=82 v=0
292740 On ch=1 n=82 v=96
292799 On ch=1 n=82 v=0
292800 On ch=1 n=88 v=96
292800 On ch=1 n=82 v=96
292859 On ch=1 n=82 v=0
292859 On ch=1 n=88 v=0
292860 On ch=1 n=88 v=96
292860 On ch=1 n=82 v=96
292919 On ch=1 n=82 v=0
292919 On ch=1 n=88 v=0
292920 On ch=1 n=88 v=96
292920 On ch=1 n=82 v=96
292979 On ch=1 n=82 v=0
292979 On ch=1 n=88 v=0
292980 On ch=1 n=88 v=96
292980 On ch=1 n=82 v=96
293039 On ch=1 n=82 v=0
293039 On ch=1 n=88 v=0
293040 On ch=1 n=82 v=96
293040 On ch=1 n=88 v=96
293399 On ch=1 n=88 v=0
293399 On ch=1 n=82 v=0
293400 On ch=1 n=89 v=96
293400 On ch=1 n=84 v=96
293519 On ch=1 n=84 v=0
293519 On ch=1 n=89 v=0
293520 On ch=1 n=84 v=112
293520 On ch=1 n=89 v=112
293759 On ch=1 n=89 v=0
293759 On ch=1 n=84 v=0
293880 On ch=1 n=90 v=112
293880 On ch=1 n=84 v=112
294119 On ch=1 n=84 v=0
294119 On ch=1 n=90 v=0
294240 On ch=1 n=87 v=112
294240 On ch=1 n=91 v=112
294479 On ch=1 n=91 v=0
294479 On ch=1 n=87 v=0
294600 On ch=1 n=92 v=96
294600 On ch=1 n=86 v=96
294839 On ch=1 n=86 v=0
294839 On ch=1 n=92 v=0
294960 On ch=1 n=87 v=96
294960 On ch=1 n=91 v=96
295199 On ch=1 n=91 v=0
295199 On ch=1 n=87 v=0
295320 On ch=1 n=89 v=96
295320 On ch=1 n=87 v=96
295559 On ch=1 n=87 v=0
295559 On ch=1 n=89 v=0
295560 On ch=1 n=91 v=127
295560 On ch=1 n=87 v=127
295919 On ch=1 n=87 v=0
295919 On ch=1 n=91 v=0
295920 On ch=1 n=92 v=127
295920 On ch=1 n=86 v=127
296159 On ch=1 n=92 v=0
296160 On ch=1 n=89 v=127
296279 On ch=1 n=89 v=0
296279 On ch=1 n=86 v=0
296280 On ch=1 n=79 v=48
296280 On ch=1 n=87 v=48
296399 On ch=1 n=87 v=0
296399 On ch=1 n=79 v=0
297720 On ch=1 n=75 v=48
297720 On ch=1 n=87 v=48
298499 On ch=1 n=87 v=0
298499 On ch=1 n=75 v=0
298500 On ch=1 n=82 v=74
298500 On ch=1 n=75 v=74
298529 On ch=1 n=75 v=0
298529 On ch=1 n=82 v=0
298560 On ch=1 n=74 v=76
298560 On ch=1 n=82 v=76
298589 On ch=1 n=82 v=0
298589 On ch=1 n=74 v=0
298620 On ch=1 n=82 v=78
298620 On ch=1 n=75 v=78
298649 On ch=1 n=75 v=0
298649 On ch=1 n=82 v=0
298680 On ch=1 n=77 v=80
298680 On ch=1 n=86 v=80
298709 On ch=1 n=86 v=0
298709 On ch=1 n=77 v=0
298740 On ch=1 n=87 v=82
298740 On ch=1 n=79 v=82
298769 On ch=1 n=79 v=0
298769 On ch=1 n=87 v=0
298800 On ch=1 n=89 v=84
298800 On ch=1 n=80 v=84
298829 On ch=1 n=80 v=0
298829 On ch=1 n=89 v=0
298860 On ch=1 n=80 v=86
298860 On ch=1 n=89 v=86
298889 On ch=1 n=89 v=0
298889 On ch=1 n=80 v=0
298920 On ch=1 n=89 v=88
298920 On ch=1 n=80 v=88
298949 On ch=1 n=80 v=0
298949 On ch=1 n=89 v=0
298980 On ch=1 n=80 v=90
298980 On ch=1 n=89 v=90
299009 On ch=1 n=89 v=0
299009 On ch=1 n=80 v=0
299040 On ch=1 n=89 v=92
299040 On ch=1 n=80 v=92
299069 On ch=1 n=80 v=0
299069 On ch=1 n=89 v=0
299100 On ch=1 n=80 v=94
299100 On ch=1 n=89 v=94
299129 On ch=1 n=89 v=0
299129 On ch=1 n=80 v=0
299160 On ch=1 n=89 v=96
299160 On ch=1 n=80 v=96
299279 On ch=1 n=80 v=0
299279 On ch=1 n=89 v=0
299280 On ch=1 n=77 v=96
299280 On ch=1 n=80 v=96
299639 On ch=1 n=80 v=0
299639 On ch=1 n=77 v=0
299640 On ch=1 n=86 v=96
299640 On ch=1 n=80 v=96
299999 On ch=1 n=80 v=0
299999 On ch=1 n=86 v=0
300000 On ch=1 n=89 v=96
300000 On ch=1 n=86 v=96
300239 On ch=1 n=86 v=0
300239 On ch=1 n=89 v=0
300240 On ch=1 n=86 v=96
300240 On ch=1 n=89 v=96
300479 On ch=1 n=89 v=0
300479 On ch=1 n=86 v=0
300480 On ch=1 n=89 v=96
300480 On ch=1 n=86 v=96
300539 On ch=1 n=86 v=0
300539 On ch=1 n=89 v=0
300600 On ch=1 n=86 v=96
300600 On ch=1 n=89 v=96
300659 On ch=1 n=89 v=0
300659 On ch=1 n=86 v=0
300720 On ch=1 n=82 v=127
300720 On ch=1 n=89 v=127
300779 On ch=1 n=89 v=0
300779 On ch=1 n=82 v=0
300840 On ch=1 n=82 v=127
300840 On ch=1 n=89 v=127
300899 On ch=1 n=89 v=0
300899 On ch=1 n=82 v=0
300960 On ch=1 n=82 v=127
300960 On ch=1 n=89 v=127
301019 On ch=1 n=89 v=0
301019 On ch=1 n=82 v=0
301080 On ch=1 n=82 v=127
301080 On ch=1 n=89 v=127
301139 On ch=1 n=89 v=0
301139 On ch=1 n=82 v=0
301200 On ch=1 n=82 v=127
301200 On ch=1 n=89 v=127
301259 On ch=1 n=89 v=0
301259 On ch=1 n=82 v=0
301320 On ch=1 n=82 v=127
301320 On ch=1 n=89 v=127
301379 On ch=1 n=89 v=0
301379 On ch=1 n=82 v=0
301440 On ch=1 n=82 v=127
301440 On ch=1 n=89 v=127
301499 On ch=1 n=89 v=0
301499 On ch=1 n=82 v=0
301560 On ch=1 n=82 v=127
301560 On ch=1 n=89 v=127
301619 On ch=1 n=89 v=0
301619 On ch=1 n=82 v=0
301680 On ch=1 n=82 v=127
301680 On ch=1 n=89 v=127
301739 On ch=1 n=89 v=0
301739 On ch=1 n=82 v=0
301800 On ch=1 n=82 v=127
301800 On ch=1 n=89 v=127
301859 On ch=1 n=89 v=0
301859 On ch=1 n=82 v=0
301920 On ch=1 n=82 v=127
301920 On ch=1 n=89 v=127
301979 On ch=1 n=89 v=0
301979 On ch=1 n=82 v=0
302040 On ch=1 n=91 v=127
302040 On ch=1 n=87 v=127
302159 On ch=1 n=87 v=0
302159 On ch=1 n=91 v=0
302400 On ch=1 n=82 v=127
302400 On ch=1 n=91 v=127
302519 On ch=1 n=91 v=0
302519 On ch=1 n=82 v=0
302760 On ch=1 n=75 v=127
302879 On ch=1 n=75 v=0
0 PrCh ch=2 p=68
0 Par ch=2 c=7 v=127
0 Par ch=2 c=10 v=52
0 Par ch=2 c=93 v=0
0 Par ch=2 c=91 v=0
0 On ch=2 n=79 v=96
0 On ch=2 n=75 v=96
59 On ch=2 n=75 v=0
59 On ch=2 n=79 v=0
360 On ch=2 n=75 v=96
360 On ch=2 n=79 v=96
419 On ch=2 n=79 v=0
419 On ch=2 n=75 v=0
4320 On ch=2 n=79 v=48
4320 On ch=2 n=75 v=48
4680 On ch=2 n=80 v=48
4680 On ch=2 n=77 v=48
4689 On ch=2 n=75 v=0
4689 On ch=2 n=79 v=0
4800 On ch=2 n=79 v=48
4800 On ch=2 n=75 v=48
4809 On ch=2 n=80 v=0
4809 On ch=2 n=77 v=0
4920 On ch=2 n=77 v=48
4920 On ch=2 n=74 v=48
4929 On ch=2 n=79 v=0
4929 On ch=2 n=75 v=0
5040 On ch=2 n=75 v=48
5049 On ch=2 n=77 v=0
5049 On ch=2 n=74 v=0
5159 On ch=2 n=75 v=0
7920 On ch=2 n=74 v=96
7920 On ch=2 n=70 v=96
7949 On ch=2 n=70 v=0
7949 On ch=2 n=74 v=0
7950 On ch=2 n=70 v=48
7950 On ch=2 n=74 v=48
8279 On ch=2 n=74 v=0
8280 On ch=2 n=77 v=48
8280 On ch=2 n=74 v=48
8289 On ch=2 n=70 v=0
8520 On ch=2 n=81 v=48
8529 On ch=2 n=77 v=0
8639 On ch=2 n=81 v=0
8639 On ch=2 n=74 v=0
8640 On ch=2 n=75 v=48
8640 On ch=2 n=79 v=48
8699 On ch=2 n=79 v=0
8699 On ch=2 n=75 v=0
8760 On ch=2 n=78 v=96
8760 On ch=2 n=75 v=96
8999 On ch=2 n=75 v=0
8999 On ch=2 n=78 v=0
9000 On ch=2 n=75 v=96
9000 On ch=2 n=78 v=96
9239 On ch=2 n=78 v=0
9239 On ch=2 n=75 v=0
9240 On ch=2 n=78 v=96
9240 On ch=2 n=75 v=96
9359 On ch=2 n=75 v=0
9359 On ch=2 n=78 v=0
9360 On ch=2 n=74 v=96
9360 On ch=2 n=77 v=96
9389 On ch=2 n=77 v=0
9389 On ch=2 n=74 v=0
9390 On ch=2 n=77 v=48
9390 On ch=2 n=74 v=48
9959 On ch=2 n=74 v=0
9959 On ch=2 n=77 v=0
9960 On ch=2 n=74 v=96
9960 On ch=2 n=77 v=96
10199 On ch=2 n=77 v=0
10199 On ch=2 n=74 v=0
10200 On ch=2 n=77 v=96
10200 On ch=2 n=74 v=96
10439 On ch=2 n=74 v=0
10439 On ch=2 n=77 v=0
10440 On ch=2 n=77 v=96
10440 On ch=2 n=74 v=96
10679 On ch=2 n=74 v=0
10679 On ch=2 n=77 v=0
10680 On ch=2 n=77 v=96
10680 On ch=2 n=74 v=96
10919 On ch=2 n=74 v=0
10919 On ch=2 n=77 v=0
10920 On ch=2 n=75 v=96
10920 On ch=2 n=79 v=96
11159 On ch=2 n=79 v=0
11159 On ch=2 n=75 v=0
11160 On ch=2 n=79 v=96
11160 On ch=2 n=75 v=96
11399 On ch=2 n=75 v=0
11399 On ch=2 n=79 v=0
11400 On ch=2 n=79 v=96
11400 On ch=2 n=75 v=96
11639 On ch=2 n=75 v=0
11639 On ch=2 n=79 v=0
11640 On ch=2 n=74 v=90
11640 On ch=2 n=77 v=90
11699 On ch=2 n=77 v=0
11699 On ch=2 n=74 v=0
11760 On ch=2 n=77 v=96
11760 On ch=2 n=74 v=96
11999 On ch=2 n=74 v=0
11999 On ch=2 n=77 v=0
12000 On ch=2 n=79 v=90
12000 On ch=2 n=75 v=90
12059 On ch=2 n=75 v=0
12059 On ch=2 n=79 v=0
12120 On ch=2 n=79 v=96
12120 On ch=2 n=75 v=96
12240 On ch=2 n=80 v=96
12240 On ch=2 n=74 v=96
12249 On ch=2 n=75 v=0
12249 On ch=2 n=79 v=0
12359 On ch=2 n=80 v=0
12359 On ch=2 n=74 v=0
12360 On ch=2 n=70 v=96
12389 On ch=2 n=70 v=0
12420 On ch=2 n=72 v=99
12449 On ch=2 n=72 v=0
12480 On ch=2 n=74 v=102
12509 On ch=2 n=74 v=0
12540 On ch=2 n=75 v=105
12569 On ch=2 n=75 v=0
12600 On ch=2 n=77 v=108
12629 On ch=2 n=77 v=0
12660 On ch=2 n=79 v=111
12689 On ch=2 n=79 v=0
12720 On ch=2 n=68 v=114
12749 On ch=2 n=68 v=0
12780 On ch=2 n=70 v=117
12809 On ch=2 n=70 v=0
12840 On ch=2 n=72 v=120
12869 On ch=2 n=72 v=0
12900 On ch=2 n=74 v=123
12929 On ch=2 n=74 v=0
12960 On ch=2 n=75 v=127
13200 On ch=2 n=79 v=127
13209 On ch=2 n=75 v=0
13320 On ch=2 n=75 v=127
13329 On ch=2 n=79 v=0
13560 On ch=2 n=70 v=127
13569 On ch=2 n=75 v=0
13679 On ch=2 n=70 v=0
13680 On ch=2 n=75 v=127
13800 On ch=2 n=70 v=127
13800 On ch=2 n=82 v=127
13809 On ch=2 n=75 v=0
13919 On ch=2 n=82 v=0
13919 On ch=2 n=70 v=0
13920 On ch=2 n=70 v=127
13920 On ch=2 n=82 v=127
14039 On ch=2 n=82 v=0
14039 On ch=2 n=70 v=0
14040 On ch=2 n=82 v=127
14040 On ch=2 n=70 v=127
14280 On ch=2 n=71 v=127
14280 On ch=2 n=83 v=127
14289 On ch=2 n=70 v=0
14289 On ch=2 n=82 v=0
14399 On ch=2 n=71 v=0
14399 On ch=2 n=83 v=0
14400 On ch=2 n=84 v=127
14400 On ch=2 n=72 v=127
14519 On ch=2 n=72 v=0
14519 On ch=2 n=84 v=0
14520 On ch=2 n=84 v=127
14520 On ch=2 n=72 v=127
14639 On ch=2 n=72 v=0
14639 On ch=2 n=84 v=0
14640 On ch=2 n=84 v=127
14640 On ch=2 n=72 v=127
14759 On ch=2 n=72 v=0
14759 On ch=2 n=84 v=0
14760 On ch=2 n=84 v=127
14760 On ch=2 n=72 v=127
14999 On ch=2 n=72 v=0
14999 On ch=2 n=84 v=0
15000 On ch=2 n=82 v=127
15000 On ch=2 n=75 v=127
15119 On ch=2 n=75 v=0
15119 On ch=2 n=82 v=0
15120 On ch=2 n=80 v=127
15120 On ch=2 n=75 v=127
15479 On ch=2 n=75 v=0
15479 On ch=2 n=80 v=0
15480 On ch=2 n=82 v=127
15480 On ch=2 n=76 v=127
15599 On ch=2 n=76 v=0
15599 On ch=2 n=82 v=0
15960 On ch=2 n=79 v=48
16140 On ch=2 n=77 v=48
16149 On ch=2 n=79 v=0
16200 On ch=2 n=76 v=48
16209 On ch=2 n=77 v=0
16319 On ch=2 n=76 v=0
17400 On ch=2 n=79 v=48
17580 On ch=2 n=77 v=48
17589 On ch=2 n=79 v=0
17640 On ch=2 n=76 v=48
17649 On ch=2 n=77 v=0
17759 On ch=2 n=76 v=0
18840 On ch=2 n=78 v=64
19020 On ch=2 n=77 v=56
19029 On ch=2 n=78 v=0
19080 On ch=2 n=75 v=56
19089 On ch=2 n=77 v=0
19199 On ch=2 n=75 v=0
19560 On ch=2 n=79 v=127
19739 On ch=2 n=79 v=0
19740 On ch=2 n=77 v=127
19799 On ch=2 n=77 v=0
19800 On ch=2 n=75 v=127
19859 On ch=2 n=75 v=0
19920 On ch=2 n=74 v=127
19979 On ch=2 n=74 v=0
20040 On ch=2 n=72 v=127
20099 On ch=2 n=72 v=0
20160 On ch=2 n=70 v=48
21060 On ch=2 n=65 v=48
21119 On ch=2 n=70 v=0
21120 On ch=2 n=69 v=48
21120 On ch=2 n=72 v=48
21129 On ch=2 n=65 v=0
21180 On ch=2 n=74 v=48
21180 On ch=2 n=70 v=48
21189 On ch=2 n=72 v=0
21189 On ch=2 n=69 v=0
21240 On ch=2 n=75 v=48
21240 On ch=2 n=72 v=48
21249 On ch=2 n=74 v=0
21249 On ch=2 n=70 v=0
21329 On ch=2 n=75 v=0
21329 On ch=2 n=72 v=0
21360 On ch=2 n=75 v=48
21360 On ch=2 n=72 v=48
21449 On ch=2 n=72 v=0
21449 On ch=2 n=75 v=0
21480 On ch=2 n=75 v=48
21480 On ch=2 n=72 v=48
21569 On ch=2 n=72 v=0
21569 On ch=2 n=75 v=0
21600 On ch=2 n=74 v=48
21600 On ch=2 n=70 v=48
21719 On ch=2 n=70 v=0
21719 On ch=2 n=74 v=0
23040 On ch=2 n=75 v=96
23040 On ch=2 n=72 v=96
23099 On ch=2 n=72 v=0
23099 On ch=2 n=75 v=0
23160 On ch=2 n=72 v=96
23160 On ch=2 n=75 v=96
23219 On ch=2 n=75 v=0
23219 On ch=2 n=72 v=0
23700 On ch=2 n=75 v=96
23700 On ch=2 n=72 v=96
23729 On ch=2 n=72 v=0
23729 On ch=2 n=75 v=0
23760 On ch=2 n=70 v=96
23760 On ch=2 n=74 v=96
23819 On ch=2 n=74 v=0
23819 On ch=2 n=70 v=0
23880 On ch=2 n=82 v=96
23880 On ch=2 n=74 v=96
23939 On ch=2 n=74 v=0
23939 On ch=2 n=82 v=0
24420 On ch=2 n=79 v=96
24420 On ch=2 n=70 v=96
24449 On ch=2 n=70 v=0
24449 On ch=2 n=79 v=0
24480 On ch=2 n=80 v=96
24480 On ch=2 n=71 v=96
24539 On ch=2 n=71 v=0
24539 On ch=2 n=80 v=0
24600 On ch=2 n=71 v=96
24600 On ch=2 n=80 v=96
24659 On ch=2 n=80 v=0
24659 On ch=2 n=71 v=0
25140 On ch=2 n=80 v=96
25140 On ch=2 n=71 v=96
25169 On ch=2 n=71 v=0
25169 On ch=2 n=80 v=0
25200 On ch=2 n=72 v=96
25200 On ch=2 n=79 v=96
25229 On ch=2 n=79 v=0
25229 On ch=2 n=72 v=0
25260 On ch=2 n=70 v=96
25260 On ch=2 n=72 v=96
25379 On ch=2 n=72 v=0
25379 On ch=2 n=70 v=0
25380 On ch=2 n=72 v=96
25380 On ch=2 n=70 v=96
25409 On ch=2 n=70 v=0
25409 On ch=2 n=72 v=0
25440 On ch=2 n=69 v=96
25440 On ch=2 n=72 v=96
25469 On ch=2 n=72 v=0
25469 On ch=2 n=69 v=0
25500 On ch=2 n=74 v=96
25500 On ch=2 n=69 v=96
25529 On ch=2 n=69 v=0
25529 On ch=2 n=74 v=0
25560 On ch=2 n=70 v=96
25560 On ch=2 n=74 v=96
25589 On ch=2 n=74 v=0
25589 On ch=2 n=70 v=0
25620 On ch=2 n=75 v=96
25620 On ch=2 n=70 v=96
25739 On ch=2 n=70 v=0
25739 On ch=2 n=75 v=0
25740 On ch=2 n=70 v=96
25740 On ch=2 n=75 v=96
25769 On ch=2 n=75 v=0
25769 On ch=2 n=70 v=0
25800 On ch=2 n=75 v=96
25800 On ch=2 n=72 v=96
25829 On ch=2 n=72 v=0
25829 On ch=2 n=75 v=0
25860 On ch=2 n=72 v=96
25860 On ch=2 n=77 v=96
25889 On ch=2 n=77 v=0
25889 On ch=2 n=72 v=0
25920 On ch=2 n=77 v=96
25920 On ch=2 n=74 v=96
26039 On ch=2 n=74 v=0
26039 On ch=2 n=77 v=0
26040 On ch=2 n=82 v=96
26040 On ch=2 n=70 v=96
26159 On ch=2 n=70 v=0
26159 On ch=2 n=82 v=0
26160 On ch=2 n=70 v=96
26160 On ch=2 n=82 v=96
26279 On ch=2 n=82 v=0
26279 On ch=2 n=70 v=0
26280 On ch=2 n=82 v=96
26280 On ch=2 n=70 v=96
26399 On ch=2 n=70 v=0
26399 On ch=2 n=82 v=0
26400 On ch=2 n=70 v=96
26400 On ch=2 n=82 v=96
26519 On ch=2 n=82 v=0
26519 On ch=2 n=70 v=0
26520 On ch=2 n=82 v=96
26520 On ch=2 n=70 v=96
26880 On ch=2 n=71 v=96
26880 On ch=2 n=83 v=96
26889 On ch=2 n=70 v=0
26889 On ch=2 n=82 v=0
27000 On ch=2 n=84 v=96
27000 On ch=2 n=72 v=96
27009 On ch=2 n=71 v=0
27009 On ch=2 n=83 v=0
27060 On ch=2 n=79 v=96
27060 On ch=2 n=74 v=96
27069 On ch=2 n=84 v=0
27069 On ch=2 n=72 v=0
27120 On ch=2 n=77 v=96
27129 On ch=2 n=74 v=0
27179 On ch=2 n=79 v=0
27180 On ch=2 n=79 v=96
27180 On ch=2 n=75 v=96
27189 On ch=2 n=77 v=0
27240 On ch=2 n=77 v=96
27240 On ch=2 n=74 v=96
27249 On ch=2 n=75 v=0
27249 On ch=2 n=79 v=0
27300 On ch=2 n=75 v=96
27300 On ch=2 n=72 v=96
27309 On ch=2 n=77 v=0
27309 On ch=2 n=74 v=0
27360 On ch=2 n=74 v=96
27360 On ch=2 n=70 v=96
27369 On ch=2 n=75 v=0
27369 On ch=2 n=72 v=0
27479 On ch=2 n=74 v=0
27479 On ch=2 n=70 v=0
28080 On ch=2 n=77 v=96
28859 On ch=2 n=77 v=0
28860 On ch=2 n=76 v=127
28889 On ch=2 n=76 v=0
28920 On ch=2 n=75 v=127
28949 On ch=2 n=75 v=0
28980 On ch=2 n=74 v=127
29009 On ch=2 n=74 v=0
29040 On ch=2 n=72 v=127
29069 On ch=2 n=72 v=0
29100 On ch=2 n=70 v=127
29129 On ch=2 n=70 v=0
29160 On ch=2 n=69 v=127
29189 On ch=2 n=69 v=0
29220 On ch=2 n=79 v=127
29220 On ch=2 n=67 v=127
29249 On ch=2 n=67 v=0
29249 On ch=2 n=79 v=0
29280 On ch=2 n=77 v=127
29280 On ch=2 n=65 v=127
29309 On ch=2 n=65 v=0
29309 On ch=2 n=77 v=0
29340 On ch=2 n=75 v=127
29340 On ch=2 n=63 v=127
29369 On ch=2 n=63 v=0
29369 On ch=2 n=75 v=0
29400 On ch=2 n=74 v=127
29400 On ch=2 n=62 v=127
29429 On ch=2 n=62 v=0
29429 On ch=2 n=74 v=0
29460 On ch=2 n=72 v=127
29460 On ch=2 n=60 v=127
29489 On ch=2 n=60 v=0
29489 On ch=2 n=72 v=0
29520 On ch=2 n=70 v=127
29639 On ch=2 n=70 v=0
30000 On ch=2 n=77 v=64
30089 On ch=2 n=77 v=0
30120 On ch=2 n=77 v=72
30209 On ch=2 n=77 v=0
30240 On ch=2 n=77 v=80
30329 On ch=2 n=77 v=0
30360 On ch=2 n=77 v=88
30449 On ch=2 n=77 v=0
30480 On ch=2 n=70 v=96
30480 On ch=2 n=78 v=96
30569 On ch=2 n=78 v=0
30600 On ch=2 n=79 v=88
30720 On ch=2 n=71 v=80
30729 On ch=2 n=70 v=0
30840 On ch=2 n=72 v=64
30849 On ch=2 n=71 v=0
30959 On ch=2 n=72 v=0
30959 On ch=2 n=79 v=0
31920 On ch=2 n=79 v=96
32160 On ch=2 n=77 v=96
32169 On ch=2 n=79 v=0
32220 On ch=2 n=75 v=84
32229 On ch=2 n=77 v=0
32280 On ch=2 n=74 v=72
32289 On ch=2 n=75 v=0
32340 On ch=2 n=72 v=64
32349 On ch=2 n=74 v=0
32400 On ch=2 n=70 v=48
32409 On ch=2 n=72 v=0
32519 On ch=2 n=70 v=0
32880 On ch=2 n=75 v=64
32969 On ch=2 n=75 v=0
33000 On ch=2 n=75 v=72
33089 On ch=2 n=75 v=0
33120 On ch=2 n=75 v=80
33209 On ch=2 n=75 v=0
33240 On ch=2 n=78 v=88
33240 On ch=2 n=75 v=88
33329 On ch=2 n=75 v=0
33329 On ch=2 n=78 v=0
33360 On ch=2 n=78 v=88
33360 On ch=2 n=75 v=88
33449 On ch=2 n=75 v=0
33449 On ch=2 n=78 v=0
33480 On ch=2 n=78 v=96
33480 On ch=2 n=75 v=96
33839 On ch=2 n=75 v=0
33839 On ch=2 n=78 v=0
34680 On ch=2 n=82 v=48
34800 On ch=2 n=79 v=48
34809 On ch=2 n=82 v=0
34920 On ch=2 n=77 v=56
34929 On ch=2 n=79 v=0
35160 On ch=2 n=76 v=56
35169 On ch=2 n=77 v=0
35280 On ch=2 n=75 v=48
35289 On ch=2 n=76 v=0
35399 On ch=2 n=75 v=0
38700 On ch=2 n=81 v=89
38700 On ch=2 n=72 v=89
38729 On ch=2 n=72 v=0
38729 On ch=2 n=81 v=0
38760 On ch=2 n=82 v=92
38760 On ch=2 n=74 v=92
38789 On ch=2 n=74 v=0
38789 On ch=2 n=82 v=0
38820 On ch=2 n=84 v=94
38820 On ch=2 n=75 v=94
38849 On ch=2 n=75 v=0
38849 On ch=2 n=84 v=0
38880 On ch=2 n=86 v=96
38880 On ch=2 n=77 v=96
38999 On ch=2 n=77 v=0
38999 On ch=2 n=86 v=0
39000 On ch=2 n=74 v=112
39000 On ch=2 n=77 v=112
39239 On ch=2 n=77 v=0
39239 On ch=2 n=74 v=0
39360 On ch=2 n=74 v=112
39360 On ch=2 n=77 v=112
39599 On ch=2 n=77 v=0
39599 On ch=2 n=74 v=0
39720 On ch=2 n=77 v=112
39720 On ch=2 n=75 v=112
39959 On ch=2 n=75 v=0
39959 On ch=2 n=77 v=0
40080 On ch=2 n=77 v=112
40080 On ch=2 n=69 v=112
40199 On ch=2 n=69 v=0
40199 On ch=2 n=77 v=0
40200 On ch=2 n=72 v=96
40200 On ch=2 n=77 v=96
40319 On ch=2 n=77 v=0
40319 On ch=2 n=72 v=0
40320 On ch=2 n=77 v=127
40320 On ch=2 n=74 v=127
40439 On ch=2 n=74 v=0
41519 On ch=2 n=77 v=0
41520 On ch=2 n=77 v=127
41639 On ch=2 n=77 v=0
41640 On ch=2 n=77 v=127
41759 On ch=2 n=77 v=0
41760 On ch=2 n=77 v=127
42000 On ch=2 n=82 v=127
42060 On ch=2 n=76 v=127
42069 On ch=2 n=77 v=0
42120 On ch=2 n=77 v=127
42129 On ch=2 n=76 v=0
42179 On ch=2 n=77 v=0
42179 On ch=2 n=82 v=0
43740 On ch=2 n=79 v=127
43740 On ch=2 n=71 v=127
43769 On ch=2 n=71 v=0
43769 On ch=2 n=79 v=0
43800 On ch=2 n=72 v=127
43800 On ch=2 n=79 v=127
43829 On ch=2 n=79 v=0
43829 On ch=2 n=72 v=0
43860 On ch=2 n=73 v=127
43860 On ch=2 n=79 v=127
43889 On ch=2 n=79 v=0
43889 On ch=2 n=73 v=0
43920 On ch=2 n=78 v=127
43920 On ch=2 n=74 v=127
43979 On ch=2 n=74 v=0
43979 On ch=2 n=78 v=0
44040 On ch=2 n=81 v=127
44040 On ch=2 n=74 v=127
44099 On ch=2 n=74 v=0
44099 On ch=2 n=81 v=0
44160 On ch=2 n=74 v=127
44160 On ch=2 n=79 v=127
44219 On ch=2 n=79 v=0
44219 On ch=2 n=74 v=0
44400 On ch=2 n=77 v=127
44400 On ch=2 n=71 v=127
44459 On ch=2 n=71 v=0
44459 On ch=2 n=77 v=0
44520 On ch=2 n=75 v=127
44520 On ch=2 n=72 v=127
44579 On ch=2 n=72 v=0
44579 On ch=2 n=75 v=0
44760 On ch=2 n=79 v=127
44760 On ch=2 n=72 v=127
44819 On ch=2 n=72 v=0
44819 On ch=2 n=79 v=0
44880 On ch=2 n=72 v=127
44880 On ch=2 n=77 v=127
44939 On ch=2 n=77 v=0
44939 On ch=2 n=72 v=0
45120 On ch=2 n=74 v=127
45120 On ch=2 n=81 v=127
45179 On ch=2 n=81 v=0
45179 On ch=2 n=74 v=0
45240 On ch=2 n=74 v=127
45240 On ch=2 n=79 v=127
45299 On ch=2 n=79 v=0
45299 On ch=2 n=74 v=0
45480 On ch=2 n=77 v=127
45480 On ch=2 n=71 v=127
45539 On ch=2 n=71 v=0
45539 On ch=2 n=77 v=0
45600 On ch=2 n=72 v=127
45600 On ch=2 n=75 v=127
45659 On ch=2 n=75 v=0
45659 On ch=2 n=72 v=0
45840 On ch=2 n=79 v=127
45840 On ch=2 n=72 v=127
45899 On ch=2 n=72 v=0
45899 On ch=2 n=79 v=0
46080 On ch=2 n=72 v=127
46080 On ch=2 n=79 v=127
46139 On ch=2 n=79 v=0
46139 On ch=2 n=72 v=0
46320 On ch=2 n=79 v=127
46320 On ch=2 n=72 v=127
46379 On ch=2 n=72 v=0
46379 On ch=2 n=79 v=0
46560 On ch=2 n=72 v=127
46560 On ch=2 n=79 v=127
46619 On ch=2 n=79 v=0
46619 On ch=2 n=72 v=0
46800 On ch=2 n=79 v=127
46800 On ch=2 n=72 v=127
46859 On ch=2 n=72 v=0
46859 On ch=2 n=79 v=0
47040 On ch=2 n=72 v=127
47040 On ch=2 n=79 v=127
47099 On ch=2 n=79 v=0
47099 On ch=2 n=72 v=0
47520 On ch=2 n=76 v=96
47520 On ch=2 n=70 v=96
47549 On ch=2 n=70 v=0
47549 On ch=2 n=76 v=0
47550 On ch=2 n=70 v=48
47550 On ch=2 n=76 v=48
47880 On ch=2 n=77 v=48
47889 On ch=2 n=76 v=0
48239 On ch=2 n=77 v=0
48239 On ch=2 n=70 v=0
48240 On ch=2 n=76 v=96
48240 On ch=2 n=70 v=96
48269 On ch=2 n=70 v=0
48269 On ch=2 n=76 v=0
48270 On ch=2 n=70 v=48
48270 On ch=2 n=76 v=48
48719 On ch=2 n=76 v=0
48719 On ch=2 n=70 v=0
48720 On ch=2 n=75 v=48
48720 On ch=2 n=70 v=48
48779 On ch=2 n=70 v=0
48779 On ch=2 n=75 v=0
48960 On ch=2 n=72 v=48
48960 On ch=2 n=75 v=48
49019 On ch=2 n=75 v=0
49019 On ch=2 n=72 v=0
49200 On ch=2 n=75 v=48
49200 On ch=2 n=72 v=48
49259 On ch=2 n=72 v=0
49259 On ch=2 n=75 v=0
49440 On ch=2 n=77 v=48
49440 On ch=2 n=75 v=48
49499 On ch=2 n=75 v=0
49499 On ch=2 n=77 v=0
49680 On ch=2 n=74 v=48
49680 On ch=2 n=77 v=48
49739 On ch=2 n=77 v=0
49739 On ch=2 n=74 v=0
49920 On ch=2 n=77 v=48
49920 On ch=2 n=74 v=48
49979 On ch=2 n=74 v=0
49980 On ch=2 n=78 v=48
49989 On ch=2 n=77 v=0
50040 On ch=2 n=79 v=64
50049 On ch=2 n=78 v=0
50400 On ch=2 n=75 v=72
50579 On ch=2 n=75 v=0
50579 On ch=2 n=79 v=0
50580 On ch=2 n=79 v=81
50580 On ch=2 n=75 v=81
50640 On ch=2 n=74 v=83
50640 On ch=2 n=77 v=83
50649 On ch=2 n=75 v=0
50649 On ch=2 n=79 v=0
50700 On ch=2 n=75 v=86
50700 On ch=2 n=72 v=86
50709 On ch=2 n=74 v=0
50709 On ch=2 n=77 v=0
50759 On ch=2 n=75 v=0
50759 On ch=2 n=72 v=0
50760 On ch=2 n=74 v=88
50760 On ch=2 n=70 v=88
50819 On ch=2 n=70 v=0
50819 On ch=2 n=74 v=0
50820 On ch=2 n=77 v=93
50820 On ch=2 n=74 v=93
50879 On ch=2 n=74 v=0
50879 On ch=2 n=77 v=0
50880 On ch=2 n=82 v=97
50880 On ch=2 n=74 v=97
50939 On ch=2 n=74 v=0
50939 On ch=2 n=82 v=0
50940 On ch=2 n=74 v=101
50940 On ch=2 n=82 v=101
50999 On ch=2 n=82 v=0
50999 On ch=2 n=74 v=0
51000 On ch=2 n=82 v=105
51000 On ch=2 n=74 v=105
51059 On ch=2 n=74 v=0
51059 On ch=2 n=82 v=0
51060 On ch=2 n=82 v=109
51060 On ch=2 n=74 v=109
51119 On ch=2 n=74 v=0
51119 On ch=2 n=82 v=0
51120 On ch=2 n=72 v=127
51120 On ch=2 n=81 v=127
51479 On ch=2 n=81 v=0
51479 On ch=2 n=72 v=0
51480 On ch=2 n=82 v=96
51480 On ch=2 n=74 v=96
51539 On ch=2 n=74 v=0
51539 On ch=2 n=82 v=0
51840 On ch=2 n=70 v=96
51899 On ch=2 n=70 v=0
52200 On ch=2 n=70 v=96
52259 On ch=2 n=70 v=0
52560 On ch=2 n=78 v=96
52560 On ch=2 n=69 v=96
52619 On ch=2 n=69 v=0
52619 On ch=2 n=78 v=0
52680 On ch=2 n=69 v=96
52680 On ch=2 n=78 v=96
52739 On ch=2 n=78 v=0
52739 On ch=2 n=69 v=0
52800 On ch=2 n=78 v=96
52800 On ch=2 n=69 v=96
52859 On ch=2 n=69 v=0
52859 On ch=2 n=78 v=0
52920 On ch=2 n=70 v=96
52920 On ch=2 n=77 v=96
52979 On ch=2 n=77 v=0
52979 On ch=2 n=70 v=0
58680 On ch=2 n=79 v=48
58680 On ch=2 n=75 v=48
59040 On ch=2 n=80 v=48
59040 On ch=2 n=77 v=48
59049 On ch=2 n=75 v=0
59049 On ch=2 n=79 v=0
59160 On ch=2 n=79 v=48
59160 On ch=2 n=75 v=48
59169 On ch=2 n=80 v=0
59169 On ch=2 n=77 v=0
59280 On ch=2 n=77 v=48
59280 On ch=2 n=74 v=48
59289 On ch=2 n=79 v=0
59289 On ch=2 n=75 v=0
59400 On ch=2 n=75 v=48
59409 On ch=2 n=77 v=0
59409 On ch=2 n=74 v=0
59519 On ch=2 n=75 v=0
62280 On ch=2 n=74 v=96
62280 On ch=2 n=70 v=96
62309 On ch=2 n=70 v=0
62309 On ch=2 n=74 v=0
62310 On ch=2 n=70 v=48
62310 On ch=2 n=74 v=48
62639 On ch=2 n=74 v=0
62640 On ch=2 n=77 v=48
62640 On ch=2 n=74 v=48
62649 On ch=2 n=70 v=0
62880 On ch=2 n=81 v=48
62889 On ch=2 n=77 v=0
62999 On ch=2 n=81 v=0
62999 On ch=2 n=74 v=0
63000 On ch=2 n=75 v=48
63000 On ch=2 n=79 v=48
63059 On ch=2 n=79 v=0
63059 On ch=2 n=75 v=0
63120 On ch=2 n=78 v=96
63120 On ch=2 n=75 v=96
63359 On ch=2 n=75 v=0
63359 On ch=2 n=78 v=0
63360 On ch=2 n=75 v=96
63360 On ch=2 n=78 v=96
63599 On ch=2 n=78 v=0
63599 On ch=2 n=75 v=0
63600 On ch=2 n=78 v=96
63600 On ch=2 n=75 v=96
63719 On ch=2 n=75 v=0
63719 On ch=2 n=78 v=0
63720 On ch=2 n=74 v=96
63720 On ch=2 n=77 v=96
63749 On ch=2 n=77 v=0
63749 On ch=2 n=74 v=0
63750 On ch=2 n=77 v=48
63750 On ch=2 n=74 v=48
64319 On ch=2 n=74 v=0
64319 On ch=2 n=77 v=0
64320 On ch=2 n=74 v=96
64320 On ch=2 n=77 v=96
64559 On ch=2 n=77 v=0
64559 On ch=2 n=74 v=0
64560 On ch=2 n=77 v=96
64560 On ch=2 n=74 v=96
64799 On ch=2 n=74 v=0
64799 On ch=2 n=77 v=0
64800 On ch=2 n=77 v=96
64800 On ch=2 n=74 v=96
65039 On ch=2 n=74 v=0
65039 On ch=2 n=77 v=0
65040 On ch=2 n=77 v=96
65040 On ch=2 n=74 v=96
65279 On ch=2 n=74 v=0
65279 On ch=2 n=77 v=0
65280 On ch=2 n=75 v=96
65280 On ch=2 n=79 v=96
65519 On ch=2 n=79 v=0
65519 On ch=2 n=75 v=0
65520 On ch=2 n=79 v=96
65520 On ch=2 n=75 v=96
65759 On ch=2 n=75 v=0
65759 On ch=2 n=79 v=0
65760 On ch=2 n=79 v=96
65760 On ch=2 n=75 v=96
65999 On ch=2 n=75 v=0
65999 On ch=2 n=79 v=0
66000 On ch=2 n=74 v=90
66000 On ch=2 n=77 v=90
66059 On ch=2 n=77 v=0
66059 On ch=2 n=74 v=0
66120 On ch=2 n=77 v=96
66120 On ch=2 n=74 v=96
66359 On ch=2 n=74 v=0
66359 On ch=2 n=77 v=0
66360 On ch=2 n=79 v=90
66360 On ch=2 n=75 v=90
66419 On ch=2 n=75 v=0
66419 On ch=2 n=79 v=0
66480 On ch=2 n=79 v=96
66480 On ch=2 n=75 v=96
66600 On ch=2 n=80 v=96
66600 On ch=2 n=74 v=96
66609 On ch=2 n=75 v=0
66609 On ch=2 n=79 v=0
66719 On ch=2 n=80 v=0
66719 On ch=2 n=74 v=0
66720 On ch=2 n=70 v=96
66749 On ch=2 n=70 v=0
66780 On ch=2 n=72 v=99
66809 On ch=2 n=72 v=0
66840 On ch=2 n=74 v=102
66869 On ch=2 n=74 v=0
66900 On ch=2 n=75 v=105
66929 On ch=2 n=75 v=0
66960 On ch=2 n=77 v=108
66989 On ch=2 n=77 v=0
67020 On ch=2 n=79 v=111
67049 On ch=2 n=79 v=0
67080 On ch=2 n=68 v=114
67109 On ch=2 n=68 v=0
67140 On ch=2 n=70 v=117
67169 On ch=2 n=70 v=0
67200 On ch=2 n=72 v=120
67229 On ch=2 n=72 v=0
67260 On ch=2 n=74 v=123
67289 On ch=2 n=74 v=0
67320 On ch=2 n=75 v=127
67560 On ch=2 n=79 v=127
67569 On ch=2 n=75 v=0
67680 On ch=2 n=75 v=127
67689 On ch=2 n=79 v=0
67920 On ch=2 n=70 v=127
67929 On ch=2 n=75 v=0
68039 On ch=2 n=70 v=0
68040 On ch=2 n=75 v=127
68160 On ch=2 n=70 v=127
68160 On ch=2 n=82 v=127
68169 On ch=2 n=75 v=0
68279 On ch=2 n=82 v=0
68279 On ch=2 n=70 v=0
68280 On ch=2 n=70 v=127
68280 On ch=2 n=82 v=127
68399 On ch=2 n=82 v=0
68399 On ch=2 n=70 v=0
68400 On ch=2 n=82 v=127
68400 On ch=2 n=70 v=127
68640 On ch=2 n=71 v=127
68640 On ch=2 n=83 v=127
68649 On ch=2 n=70 v=0
68649 On ch=2 n=82 v=0
68759 On ch=2 n=71 v=0
68759 On ch=2 n=83 v=0
68760 On ch=2 n=84 v=127
68760 On ch=2 n=72 v=127
68879 On ch=2 n=72 v=0
68879 On ch=2 n=84 v=0
68880 On ch=2 n=84 v=127
68880 On ch=2 n=72 v=127
68999 On ch=2 n=72 v=0
68999 On ch=2 n=84 v=0
69000 On ch=2 n=84 v=127
69000 On ch=2 n=72 v=127
69119 On ch=2 n=72 v=0
69119 On ch=2 n=84 v=0
69120 On ch=2 n=84 v=127
69120 On ch=2 n=72 v=127
69359 On ch=2 n=72 v=0
69359 On ch=2 n=84 v=0
69360 On ch=2 n=82 v=127
69360 On ch=2 n=75 v=127
69479 On ch=2 n=75 v=0
69479 On ch=2 n=82 v=0
69480 On ch=2 n=80 v=127
69480 On ch=2 n=75 v=127
69839 On ch=2 n=75 v=0
69839 On ch=2 n=80 v=0
69840 On ch=2 n=82 v=127
69840 On ch=2 n=76 v=127
69959 On ch=2 n=76 v=0
69959 On ch=2 n=82 v=0
70320 On ch=2 n=79 v=48
70500 On ch=2 n=77 v=48
70509 On ch=2 n=79 v=0
70560 On ch=2 n=76 v=48
70569 On ch=2 n=77 v=0
70679 On ch=2 n=76 v=0
71760 On ch=2 n=79 v=48
71940 On ch=2 n=77 v=48
71949 On ch=2 n=79 v=0
72000 On ch=2 n=76 v=48
72009 On ch=2 n=77 v=0
72119 On ch=2 n=76 v=0
73200 On ch=2 n=78 v=64
73380 On ch=2 n=77 v=56
73389 On ch=2 n=78 v=0
73440 On ch=2 n=75 v=56
73449 On ch=2 n=77 v=0
73559 On ch=2 n=75 v=0
73920 On ch=2 n=79 v=127
74099 On ch=2 n=79 v=0
74100 On ch=2 n=77 v=127
74159 On ch=2 n=77 v=0
74160 On ch=2 n=75 v=127
74219 On ch=2 n=75 v=0
74280 On ch=2 n=74 v=127
74339 On ch=2 n=74 v=0
74400 On ch=2 n=72 v=127
74459 On ch=2 n=72 v=0
74520 On ch=2 n=70 v=48
75420 On ch=2 n=65 v=48
75479 On ch=2 n=70 v=0
75480 On ch=2 n=69 v=48
75480 On ch=2 n=72 v=48
75489 On ch=2 n=65 v=0
75540 On ch=2 n=74 v=48
75540 On ch=2 n=70 v=48
75549 On ch=2 n=72 v=0
75549 On ch=2 n=69 v=0
75600 On ch=2 n=75 v=48
75600 On ch=2 n=72 v=48
75609 On ch=2 n=74 v=0
75609 On ch=2 n=70 v=0
75689 On ch=2 n=75 v=0
75689 On ch=2 n=72 v=0
75720 On ch=2 n=75 v=48
75720 On ch=2 n=72 v=48
75809 On ch=2 n=72 v=0
75809 On ch=2 n=75 v=0
75840 On ch=2 n=75 v=48
75840 On ch=2 n=72 v=48
75929 On ch=2 n=72 v=0
75929 On ch=2 n=75 v=0
75960 On ch=2 n=74 v=48
75960 On ch=2 n=70 v=48
76079 On ch=2 n=70 v=0
76079 On ch=2 n=74 v=0
77400 On ch=2 n=75 v=96
77400 On ch=2 n=72 v=96
77459 On ch=2 n=72 v=0
77459 On ch=2 n=75 v=0
77520 On ch=2 n=72 v=96
77520 On ch=2 n=75 v=96
77579 On ch=2 n=75 v=0
77579 On ch=2 n=72 v=0
78060 On ch=2 n=75 v=96
78060 On ch=2 n=72 v=96
78089 On ch=2 n=72 v=0
78089 On ch=2 n=75 v=0
78120 On ch=2 n=70 v=96
78120 On ch=2 n=74 v=96
78179 On ch=2 n=74 v=0
78179 On ch=2 n=70 v=0
78240 On ch=2 n=82 v=96
78240 On ch=2 n=74 v=96
78299 On ch=2 n=74 v=0
78299 On ch=2 n=82 v=0
78780 On ch=2 n=79 v=96
78780 On ch=2 n=70 v=96
78809 On ch=2 n=70 v=0
78809 On ch=2 n=79 v=0
78840 On ch=2 n=80 v=96
78840 On ch=2 n=71 v=96
78899 On ch=2 n=71 v=0
78899 On ch=2 n=80 v=0
78960 On ch=2 n=71 v=96
78960 On ch=2 n=80 v=96
79019 On ch=2 n=80 v=0
79019 On ch=2 n=71 v=0
79500 On ch=2 n=80 v=96
79500 On ch=2 n=71 v=96
79529 On ch=2 n=71 v=0
79529 On ch=2 n=80 v=0
79560 On ch=2 n=72 v=96
79560 On ch=2 n=79 v=96
79589 On ch=2 n=79 v=0
79589 On ch=2 n=72 v=0
79620 On ch=2 n=70 v=96
79620 On ch=2 n=72 v=96
79739 On ch=2 n=72 v=0
79739 On ch=2 n=70 v=0
79740 On ch=2 n=72 v=96
79740 On ch=2 n=70 v=96
79769 On ch=2 n=70 v=0
79769 On ch=2 n=72 v=0
79800 On ch=2 n=69 v=96
79800 On ch=2 n=72 v=96
79829 On ch=2 n=72 v=0
79829 On ch=2 n=69 v=0
79860 On ch=2 n=74 v=96
79860 On ch=2 n=69 v=96
79889 On ch=2 n=69 v=0
79889 On ch=2 n=74 v=0
79920 On ch=2 n=70 v=96
79920 On ch=2 n=74 v=96
79949 On ch=2 n=74 v=0
79949 On ch=2 n=70 v=0
79980 On ch=2 n=75 v=96
79980 On ch=2 n=70 v=96
80099 On ch=2 n=70 v=0
80099 On ch=2 n=75 v=0
80100 On ch=2 n=70 v=96
80100 On ch=2 n=75 v=96
80129 On ch=2 n=75 v=0
80129 On ch=2 n=70 v=0
80160 On ch=2 n=75 v=96
80160 On ch=2 n=72 v=96
80189 On ch=2 n=72 v=0
80189 On ch=2 n=75 v=0
80220 On ch=2 n=72 v=96
80220 On ch=2 n=77 v=96
80249 On ch=2 n=77 v=0
80249 On ch=2 n=72 v=0
80280 On ch=2 n=77 v=96
80280 On ch=2 n=74 v=96
80399 On ch=2 n=74 v=0
80399 On ch=2 n=77 v=0
80400 On ch=2 n=82 v=96
80400 On ch=2 n=70 v=96
80519 On ch=2 n=70 v=0
80519 On ch=2 n=82 v=0
80520 On ch=2 n=70 v=96
80520 On ch=2 n=82 v=96
80639 On ch=2 n=82 v=0
80639 On ch=2 n=70 v=0
80640 On ch=2 n=82 v=96
80640 On ch=2 n=70 v=96
80759 On ch=2 n=70 v=0
80759 On ch=2 n=82 v=0
80760 On ch=2 n=70 v=96
80760 On ch=2 n=82 v=96
80879 On ch=2 n=82 v=0
80879 On ch=2 n=70 v=0
80880 On ch=2 n=82 v=96
80880 On ch=2 n=70 v=96
81240 On ch=2 n=71 v=96
81240 On ch=2 n=83 v=96
81249 On ch=2 n=70 v=0
81249 On ch=2 n=82 v=0
81360 On ch=2 n=84 v=96
81360 On ch=2 n=72 v=96
81369 On ch=2 n=71 v=0
81369 On ch=2 n=83 v=0
81420 On ch=2 n=79 v=96
81420 On ch=2 n=74 v=96
81429 On ch=2 n=84 v=0
81429 On ch=2 n=72 v=0
81480 On ch=2 n=77 v=96
81489 On ch=2 n=74 v=0
81539 On ch=2 n=79 v=0
81540 On ch=2 n=79 v=96
81540 On ch=2 n=75 v=96
81549 On ch=2 n=77 v=0
81600 On ch=2 n=77 v=96
81600 On ch=2 n=74 v=96
81609 On ch=2 n=75 v=0
81609 On ch=2 n=79 v=0
81660 On ch=2 n=75 v=96
81660 On ch=2 n=72 v=96
81669 On ch=2 n=77 v=0
81669 On ch=2 n=74 v=0
81720 On ch=2 n=74 v=96
81720 On ch=2 n=70 v=96
81729 On ch=2 n=75 v=0
81729 On ch=2 n=72 v=0
81839 On ch=2 n=74 v=0
81839 On ch=2 n=70 v=0
82440 On ch=2 n=77 v=96
83219 On ch=2 n=77 v=0
83220 On ch=2 n=76 v=127
83249 On ch=2 n=76 v=0
83280 On ch=2 n=75 v=127
83309 On ch=2 n=75 v=0
83340 On ch=2 n=74 v=127
83369 On ch=2 n=74 v=0
83400 On ch=2 n=72 v=127
83429 On ch=2 n=72 v=0
83460 On ch=2 n=70 v=127
83489 On ch=2 n=70 v=0
83520 On ch=2 n=69 v=127
83549 On ch=2 n=69 v=0
83580 On ch=2 n=79 v=127
83580 On ch=2 n=67 v=127
83609 On ch=2 n=67 v=0
83609 On ch=2 n=79 v=0
83640 On ch=2 n=77 v=127
83640 On ch=2 n=65 v=127
83669 On ch=2 n=65 v=0
83669 On ch=2 n=77 v=0
83700 On ch=2 n=75 v=127
83700 On ch=2 n=63 v=127
83729 On ch=2 n=63 v=0
83729 On ch=2 n=75 v=0
83760 On ch=2 n=74 v=127
83760 On ch=2 n=62 v=127
83789 On ch=2 n=62 v=0
83789 On ch=2 n=74 v=0
83820 On ch=2 n=72 v=127
83820 On ch=2 n=60 v=127
83849 On ch=2 n=60 v=0
83849 On ch=2 n=72 v=0
83880 On ch=2 n=70 v=127
83999 On ch=2 n=70 v=0
84360 On ch=2 n=77 v=64
84449 On ch=2 n=77 v=0
84480 On ch=2 n=77 v=72
84569 On ch=2 n=77 v=0
84600 On ch=2 n=77 v=80
84689 On ch=2 n=77 v=0
84720 On ch=2 n=77 v=88
84809 On ch=2 n=77 v=0
84840 On ch=2 n=70 v=96
84840 On ch=2 n=78 v=96
84929 On ch=2 n=78 v=0
84960 On ch=2 n=79 v=88
85080 On ch=2 n=71 v=80
85089 On ch=2 n=70 v=0
85200 On ch=2 n=72 v=64
85209 On ch=2 n=71 v=0
85319 On ch=2 n=72 v=0
85319 On ch=2 n=79 v=0
86280 On ch=2 n=79 v=96
86520 On ch=2 n=77 v=96
86529 On ch=2 n=79 v=0
86580 On ch=2 n=75 v=84
86589 On ch=2 n=77 v=0
86640 On ch=2 n=74 v=72
86649 On ch=2 n=75 v=0
86700 On ch=2 n=72 v=64
86709 On ch=2 n=74 v=0
86760 On ch=2 n=70 v=48
86769 On ch=2 n=72 v=0
86879 On ch=2 n=70 v=0
87240 On ch=2 n=75 v=64
87329 On ch=2 n=75 v=0
87360 On ch=2 n=75 v=72
87449 On ch=2 n=75 v=0
87480 On ch=2 n=75 v=80
87569 On ch=2 n=75 v=0
87600 On ch=2 n=78 v=88
87600 On ch=2 n=75 v=88
87689 On ch=2 n=75 v=0
87689 On ch=2 n=78 v=0
87720 On ch=2 n=78 v=88
87720 On ch=2 n=75 v=88
87809 On ch=2 n=75 v=0
87809 On ch=2 n=78 v=0
87840 On ch=2 n=78 v=96
87840 On ch=2 n=75 v=96
88199 On ch=2 n=75 v=0
88199 On ch=2 n=78 v=0
89040 On ch=2 n=82 v=48
89160 On ch=2 n=79 v=48
89169 On ch=2 n=82 v=0
89280 On ch=2 n=77 v=56
89289 On ch=2 n=79 v=0
89520 On ch=2 n=76 v=56
89529 On ch=2 n=77 v=0
89640 On ch=2 n=75 v=48
89649 On ch=2 n=76 v=0
89759 On ch=2 n=75 v=0
93060 On ch=2 n=81 v=89
93060 On ch=2 n=72 v=89
93089 On ch=2 n=72 v=0
93089 On ch=2 n=81 v=0
93120 On ch=2 n=82 v=92
93120 On ch=2 n=74 v=92
93149 On ch=2 n=74 v=0
93149 On ch=2 n=82 v=0
93180 On ch=2 n=84 v=94
93180 On ch=2 n=75 v=94
93209 On ch=2 n=75 v=0
93209 On ch=2 n=84 v=0
93240 On ch=2 n=86 v=96
93240 On ch=2 n=77 v=96
93359 On ch=2 n=77 v=0
93359 On ch=2 n=86 v=0
93360 On ch=2 n=74 v=112
93360 On ch=2 n=77 v=112
93599 On ch=2 n=77 v=0
93599 On ch=2 n=74 v=0
93720 On ch=2 n=74 v=112
93720 On ch=2 n=77 v=112
93959 On ch=2 n=77 v=0
93959 On ch=2 n=74 v=0
94080 On ch=2 n=77 v=112
94080 On ch=2 n=75 v=112
94319 On ch=2 n=75 v=0
94319 On ch=2 n=77 v=0
94440 On ch=2 n=77 v=112
94440 On ch=2 n=69 v=112
94559 On ch=2 n=69 v=0
94559 On ch=2 n=77 v=0
94560 On ch=2 n=72 v=96
94560 On ch=2 n=77 v=96
94679 On ch=2 n=77 v=0
94679 On ch=2 n=72 v=0
94680 On ch=2 n=77 v=127
94680 On ch=2 n=74 v=127
94799 On ch=2 n=74 v=0
95879 On ch=2 n=77 v=0
95880 On ch=2 n=77 v=127
95999 On ch=2 n=77 v=0
96000 On ch=2 n=77 v=127
96119 On ch=2 n=77 v=0
96120 On ch=2 n=77 v=127
96360 On ch=2 n=82 v=127
96420 On ch=2 n=76 v=127
96429 On ch=2 n=77 v=0
96480 On ch=2 n=77 v=127
96489 On ch=2 n=76 v=0
96539 On ch=2 n=77 v=0
96539 On ch=2 n=82 v=0
98100 On ch=2 n=79 v=127
98100 On ch=2 n=71 v=127
98129 On ch=2 n=71 v=0
98129 On ch=2 n=79 v=0
98160 On ch=2 n=72 v=127
98160 On ch=2 n=79 v=127
98189 On ch=2 n=79 v=0
98189 On ch=2 n=72 v=0
98220 On ch=2 n=73 v=127
98220 On ch=2 n=79 v=127
98249 On ch=2 n=79 v=0
98249 On ch=2 n=73 v=0
98280 On ch=2 n=78 v=127
98280 On ch=2 n=74 v=127
98339 On ch=2 n=74 v=0
98339 On ch=2 n=78 v=0
98400 On ch=2 n=81 v=127
98400 On ch=2 n=74 v=127
98459 On ch=2 n=74 v=0
98459 On ch=2 n=81 v=0
98520 On ch=2 n=74 v=127
98520 On ch=2 n=79 v=127
98579 On ch=2 n=79 v=0
98579 On ch=2 n=74 v=0
98760 On ch=2 n=77 v=127
98760 On ch=2 n=71 v=127
98819 On ch=2 n=71 v=0
98819 On ch=2 n=77 v=0
98880 On ch=2 n=75 v=127
98880 On ch=2 n=72 v=127
98939 On ch=2 n=72 v=0
98939 On ch=2 n=75 v=0
99120 On ch=2 n=79 v=127
99120 On ch=2 n=72 v=127
99179 On ch=2 n=72 v=0
99179 On ch=2 n=79 v=0
99240 On ch=2 n=72 v=127
99240 On ch=2 n=77 v=127
99299 On ch=2 n=77 v=0
99299 On ch=2 n=72 v=0
99480 On ch=2 n=74 v=127
99480 On ch=2 n=81 v=127
99539 On ch=2 n=81 v=0
99539 On ch=2 n=74 v=0
99600 On ch=2 n=74 v=127
99600 On ch=2 n=79 v=127
99659 On ch=2 n=79 v=0
99659 On ch=2 n=74 v=0
99840 On ch=2 n=77 v=127
99840 On ch=2 n=71 v=127
99899 On ch=2 n=71 v=0
99899 On ch=2 n=77 v=0
99960 On ch=2 n=72 v=127
99960 On ch=2 n=75 v=127
100019 On ch=2 n=75 v=0
100019 On ch=2 n=72 v=0
100200 On ch=2 n=79 v=127
100200 On ch=2 n=72 v=127
100259 On ch=2 n=72 v=0
100259 On ch=2 n=79 v=0
100440 On ch=2 n=72 v=127
100440 On ch=2 n=79 v=127
100499 On ch=2 n=79 v=0
100499 On ch=2 n=72 v=0
100680 On ch=2 n=79 v=127
100680 On ch=2 n=72 v=127
100739 On ch=2 n=72 v=0
100739 On ch=2 n=79 v=0
100920 On ch=2 n=72 v=127
100920 On ch=2 n=79 v=127
100979 On ch=2 n=79 v=0
100979 On ch=2 n=72 v=0
101160 On ch=2 n=79 v=127
101160 On ch=2 n=72 v=127
101219 On ch=2 n=72 v=0
101219 On ch=2 n=79 v=0
101400 On ch=2 n=72 v=127
101400 On ch=2 n=79 v=127
101459 On ch=2 n=79 v=0
101459 On ch=2 n=72 v=0
101880 On ch=2 n=76 v=96
101880 On ch=2 n=70 v=96
101909 On ch=2 n=70 v=0
101909 On ch=2 n=76 v=0
101910 On ch=2 n=70 v=48
101910 On ch=2 n=76 v=48
102240 On ch=2 n=77 v=48
102249 On ch=2 n=76 v=0
102599 On ch=2 n=77 v=0
102599 On ch=2 n=70 v=0
102600 On ch=2 n=76 v=96
102600 On ch=2 n=70 v=96
102629 On ch=2 n=70 v=0
102629 On ch=2 n=76 v=0
102630 On ch=2 n=70 v=48
102630 On ch=2 n=76 v=48
103079 On ch=2 n=76 v=0
103079 On ch=2 n=70 v=0
103080 On ch=2 n=75 v=48
103080 On ch=2 n=70 v=48
103139 On ch=2 n=70 v=0
103139 On ch=2 n=75 v=0
103320 On ch=2 n=72 v=48
103320 On ch=2 n=75 v=48
103379 On ch=2 n=75 v=0
103379 On ch=2 n=72 v=0
103560 On ch=2 n=75 v=48
103560 On ch=2 n=72 v=48
103619 On ch=2 n=72 v=0
103619 On ch=2 n=75 v=0
103800 On ch=2 n=77 v=48
103800 On ch=2 n=75 v=48
103859 On ch=2 n=75 v=0
103859 On ch=2 n=77 v=0
104040 On ch=2 n=74 v=48
104040 On ch=2 n=77 v=48
104099 On ch=2 n=77 v=0
104099 On ch=2 n=74 v=0
104280 On ch=2 n=77 v=48
104280 On ch=2 n=74 v=48
104339 On ch=2 n=74 v=0
104340 On ch=2 n=78 v=48
104349 On ch=2 n=77 v=0
104400 On ch=2 n=79 v=64
104409 On ch=2 n=78 v=0
104760 On ch=2 n=75 v=72
104939 On ch=2 n=75 v=0
104939 On ch=2 n=79 v=0
104940 On ch=2 n=79 v=81
104940 On ch=2 n=75 v=81
105000 On ch=2 n=74 v=83
105000 On ch=2 n=77 v=83
105009 On ch=2 n=75 v=0
105009 On ch=2 n=79 v=0
105060 On ch=2 n=75 v=86
105060 On ch=2 n=72 v=86
105069 On ch=2 n=74 v=0
105069 On ch=2 n=77 v=0
105119 On ch=2 n=75 v=0
105119 On ch=2 n=72 v=0
105120 On ch=2 n=74 v=88
105120 On ch=2 n=70 v=88
105179 On ch=2 n=70 v=0
105179 On ch=2 n=74 v=0
105180 On ch=2 n=77 v=93
105180 On ch=2 n=74 v=93
105239 On ch=2 n=74 v=0
105239 On ch=2 n=77 v=0
105240 On ch=2 n=82 v=97
105240 On ch=2 n=74 v=97
105299 On ch=2 n=74 v=0
105299 On ch=2 n=82 v=0
105300 On ch=2 n=74 v=101
105300 On ch=2 n=82 v=101
105359 On ch=2 n=82 v=0
105359 On ch=2 n=74 v=0
105360 On ch=2 n=82 v=105
105360 On ch=2 n=74 v=105
105419 On ch=2 n=74 v=0
105419 On ch=2 n=82 v=0
105420 On ch=2 n=82 v=109
105420 On ch=2 n=74 v=109
105479 On ch=2 n=74 v=0
105479 On ch=2 n=82 v=0
105480 On ch=2 n=72 v=127
105480 On ch=2 n=81 v=127
105839 On ch=2 n=81 v=0
105839 On ch=2 n=72 v=0
105840 On ch=2 n=82 v=96
105840 On ch=2 n=74 v=96
105899 On ch=2 n=74 v=0
105899 On ch=2 n=82 v=0
106200 On ch=2 n=70 v=96
106259 On ch=2 n=70 v=0
106560 On ch=2 n=70 v=96
106619 On ch=2 n=70 v=0
106920 On ch=2 n=78 v=96
106920 On ch=2 n=69 v=96
106979 On ch=2 n=69 v=0
106979 On ch=2 n=78 v=0
107040 On ch=2 n=69 v=96
107040 On ch=2 n=78 v=96
107099 On ch=2 n=78 v=0
107099 On ch=2 n=69 v=0
107160 On ch=2 n=78 v=96
107160 On ch=2 n=69 v=96
107219 On ch=2 n=69 v=0
107219 On ch=2 n=78 v=0
107280 On ch=2 n=70 v=96
107280 On ch=2 n=77 v=96
107339 On ch=2 n=77 v=0
107339 On ch=2 n=70 v=0
110400 On ch=2 n=79 v=32
110520 On ch=2 n=76 v=32
110529 On ch=2 n=79 v=0
110760 On ch=2 n=77 v=32
110769 On ch=2 n=76 v=0
110879 On ch=2 n=77 v=0
110880 On ch=2 n=77 v=32
110999 On ch=2 n=77 v=0
113880 On ch=2 n=81 v=48
114060 On ch=2 n=79 v=48
114069 On ch=2 n=81 v=0
114120 On ch=2 n=78 v=48
114129 On ch=2 n=79 v=0
114239 On ch=2 n=78 v=0
115320 On ch=2 n=81 v=48
115500 On ch=2 n=79 v=48
115509 On ch=2 n=81 v=0
115560 On ch=2 n=78 v=48
115569 On ch=2 n=79 v=0
115679 On ch=2 n=78 v=0
116760 On ch=2 n=67 v=96
117059 On ch=2 n=67 v=0
117060 On ch=2 n=71 v=48
117089 On ch=2 n=71 v=0
117120 On ch=2 n=71 v=48
117149 On ch=2 n=71 v=0
117180 On ch=2 n=72 v=48
117209 On ch=2 n=72 v=0
117240 On ch=2 n=74 v=48
117269 On ch=2 n=74 v=0
117300 On ch=2 n=76 v=48
117329 On ch=2 n=76 v=0
117360 On ch=2 n=77 v=48
117479 On ch=2 n=77 v=0
118680 On ch=2 n=79 v=48
119160 On ch=2 n=80 v=56
119169 On ch=2 n=79 v=0
119639 On ch=2 n=80 v=0
120120 On ch=2 n=80 v=48
120600 On ch=2 n=81 v=64
120609 On ch=2 n=80 v=0
120840 On ch=2 n=73 v=80
120960 On ch=2 n=74 v=96
120969 On ch=2 n=73 v=0
121079 On ch=2 n=74 v=0
121079 On ch=2 n=81 v=0
121080 On ch=2 n=77 v=127
121080 On ch=2 n=74 v=127
121139 On ch=2 n=74 v=0
121139 On ch=2 n=77 v=0
121200 On ch=2 n=74 v=127
121200 On ch=2 n=77 v=127
121259 On ch=2 n=77 v=0
121259 On ch=2 n=74 v=0
121320 On ch=2 n=77 v=127
121320 On ch=2 n=74 v=127
121379 On ch=2 n=74 v=0
121379 On ch=2 n=77 v=0
121440 On ch=2 n=74 v=127
121440 On ch=2 n=77 v=127
121499 On ch=2 n=77 v=0
121499 On ch=2 n=74 v=0
121560 On ch=2 n=77 v=127
121560 On ch=2 n=74 v=127
121619 On ch=2 n=74 v=0
121619 On ch=2 n=77 v=0
121680 On ch=2 n=74 v=127
121680 On ch=2 n=77 v=127
122399 On ch=2 n=77 v=0
122399 On ch=2 n=74 v=0
122400 On ch=2 n=79 v=127
122400 On ch=2 n=73 v=127
122459 On ch=2 n=73 v=0
122459 On ch=2 n=79 v=0
122520 On ch=2 n=73 v=127
122520 On ch=2 n=79 v=127
122579 On ch=2 n=79 v=0
122579 On ch=2 n=73 v=0
122640 On ch=2 n=79 v=127
122640 On ch=2 n=73 v=127
122699 On ch=2 n=73 v=0
122699 On ch=2 n=79 v=0
122760 On ch=2 n=73 v=127
122760 On ch=2 n=79 v=127
122819 On ch=2 n=79 v=0
122819 On ch=2 n=73 v=0
122880 On ch=2 n=79 v=127
122880 On ch=2 n=73 v=127
122939 On ch=2 n=73 v=0
122939 On ch=2 n=79 v=0
123000 On ch=2 n=73 v=127
123000 On ch=2 n=79 v=127
123059 On ch=2 n=79 v=0
123059 On ch=2 n=73 v=0
123120 On ch=2 n=79 v=127
123120 On ch=2 n=73 v=127
123719 On ch=2 n=73 v=0
123719 On ch=2 n=79 v=0
123720 On ch=2 n=76 v=127
123720 On ch=2 n=73 v=127
123839 On ch=2 n=73 v=0
123839 On ch=2 n=76 v=0
125280 On ch=2 n=79 v=127
125280 On ch=2 n=74 v=127
125339 On ch=2 n=74 v=0
125339 On ch=2 n=79 v=0
125400 On ch=2 n=74 v=127
125400 On ch=2 n=79 v=127
125459 On ch=2 n=79 v=0
125459 On ch=2 n=74 v=0
125520 On ch=2 n=79 v=127
125520 On ch=2 n=74 v=127
125579 On ch=2 n=74 v=0
125579 On ch=2 n=79 v=0
125640 On ch=2 n=74 v=127
125640 On ch=2 n=79 v=127
125699 On ch=2 n=79 v=0
125699 On ch=2 n=74 v=0
125760 On ch=2 n=79 v=127
125760 On ch=2 n=74 v=127
125819 On ch=2 n=74 v=0
125819 On ch=2 n=79 v=0
125880 On ch=2 n=74 v=127
125880 On ch=2 n=79 v=127
125939 On ch=2 n=79 v=0
125939 On ch=2 n=74 v=0
126000 On ch=2 n=79 v=127
126000 On ch=2 n=74 v=127
126719 On ch=2 n=74 v=0
126719 On ch=2 n=79 v=0
126720 On ch=2 n=74 v=127
126720 On ch=2 n=78 v=127
126779 On ch=2 n=78 v=0
126779 On ch=2 n=74 v=0
126840 On ch=2 n=78 v=127
126840 On ch=2 n=74 v=127
126899 On ch=2 n=74 v=0
126899 On ch=2 n=78 v=0
126960 On ch=2 n=74 v=127
126960 On ch=2 n=78 v=127
127019 On ch=2 n=78 v=0
127019 On ch=2 n=74 v=0
127080 On ch=2 n=78 v=127
127080 On ch=2 n=74 v=127
127139 On ch=2 n=74 v=0
127139 On ch=2 n=78 v=0
127200 On ch=2 n=74 v=127
127200 On ch=2 n=78 v=127
127259 On ch=2 n=78 v=0
127259 On ch=2 n=74 v=0
127320 On ch=2 n=78 v=127
127320 On ch=2 n=74 v=127
127379 On ch=2 n=74 v=0
127379 On ch=2 n=78 v=0
127440 On ch=2 n=74 v=127
127440 On ch=2 n=78 v=127
128039 On ch=2 n=78 v=0
128039 On ch=2 n=74 v=0
128040 On ch=2 n=81 v=127
128040 On ch=2 n=74 v=127
128159 On ch=2 n=74 v=0
128159 On ch=2 n=81 v=0
128160 On ch=2 n=74 v=48
128160 On ch=2 n=79 v=48
128279 On ch=2 n=79 v=0
128279 On ch=2 n=74 v=0
128340 On ch=2 n=79 v=48
128399 On ch=2 n=79 v=0
128400 On ch=2 n=79 v=48
128459 On ch=2 n=79 v=0
128700 On ch=2 n=79 v=48
128759 On ch=2 n=79 v=0
128760 On ch=2 n=79 v=48
128819 On ch=2 n=79 v=0
128940 On ch=2 n=79 v=54
128999 On ch=2 n=79 v=0
129000 On ch=2 n=79 v=61
129059 On ch=2 n=79 v=0
129060 On ch=2 n=79 v=67
129119 On ch=2 n=79 v=0
129120 On ch=2 n=79 v=73
129179 On ch=2 n=79 v=0
129180 On ch=2 n=79 v=80
129239 On ch=2 n=79 v=0
129240 On ch=2 n=79 v=86
129359 On ch=2 n=79 v=0
131220 On ch=2 n=77 v=96
131279 On ch=2 n=77 v=0
131280 On ch=2 n=77 v=96
131339 On ch=2 n=77 v=0
131580 On ch=2 n=70 v=96
131580 On ch=2 n=82 v=96
131639 On ch=2 n=82 v=0
131639 On ch=2 n=70 v=0
131640 On ch=2 n=70 v=96
131640 On ch=2 n=82 v=96
131699 On ch=2 n=82 v=0
131699 On ch=2 n=70 v=0
132480 On ch=2 n=80 v=127
132480 On ch=2 n=73 v=127
132839 On ch=2 n=73 v=0
132839 On ch=2 n=80 v=0
132840 On ch=2 n=74 v=127
132840 On ch=2 n=80 v=127
133199 On ch=2 n=80 v=0
133199 On ch=2 n=74 v=0
133200 On ch=2 n=79 v=127
133200 On ch=2 n=75 v=127
133319 On ch=2 n=75 v=0
133319 On ch=2 n=79 v=0
133920 On ch=2 n=75 v=96
133949 On ch=2 n=75 v=0
133950 On ch=2 n=75 v=48
134339 On ch=2 n=75 v=0
134340 On ch=2 n=75 v=48
134369 On ch=2 n=75 v=0
134400 On ch=2 n=77 v=48
134429 On ch=2 n=77 v=0
134460 On ch=2 n=79 v=48
134489 On ch=2 n=79 v=0
134520 On ch=2 n=80 v=48
134549 On ch=2 n=80 v=0
134580 On ch=2 n=82 v=48
134609 On ch=2 n=82 v=0
134640 On ch=2 n=84 v=48
134759 On ch=2 n=84 v=0
135360 On ch=2 n=75 v=96
135389 On ch=2 n=75 v=0
135390 On ch=2 n=75 v=48
135779 On ch=2 n=75 v=0
135780 On ch=2 n=74 v=48
135809 On ch=2 n=74 v=0
135840 On ch=2 n=75 v=48
135869 On ch=2 n=75 v=0
135900 On ch=2 n=77 v=48
135929 On ch=2 n=77 v=0
135960 On ch=2 n=79 v=48
135989 On ch=2 n=79 v=0
136020 On ch=2 n=80 v=48
136049 On ch=2 n=80 v=0
136080 On ch=2 n=82 v=48
136199 On ch=2 n=82 v=0
138240 On ch=2 n=70 v=96
138269 On ch=2 n=70 v=0
138270 On ch=2 n=70 v=48
138659 On ch=2 n=70 v=0
138660 On ch=2 n=72 v=48
138689 On ch=2 n=72 v=0
138720 On ch=2 n=74 v=48
138749 On ch=2 n=74 v=0
138780 On ch=2 n=76 v=48
138809 On ch=2 n=76 v=0
138840 On ch=2 n=77 v=48
138869 On ch=2 n=77 v=0
138900 On ch=2 n=79 v=48
138929 On ch=2 n=79 v=0
138960 On ch=2 n=80 v=48
139079 On ch=2 n=80 v=0
141960 On ch=2 n=70 v=70
141960 On ch=2 n=67 v=70
142019 On ch=2 n=67 v=0
142019 On ch=2 n=70 v=0
142080 On ch=2 n=82 v=96
142080 On ch=2 n=79 v=96
142320 On ch=2 n=81 v=85
142320 On ch=2 n=77 v=85
142329 On ch=2 n=79 v=0
142329 On ch=2 n=82 v=0
142439 On ch=2 n=81 v=0
142439 On ch=2 n=77 v=0
143400 On ch=2 n=77 v=127
143400 On ch=2 n=68 v=127
144119 On ch=2 n=68 v=0
144119 On ch=2 n=77 v=0
144120 On ch=2 n=68 v=127
144120 On ch=2 n=77 v=127
144359 On ch=2 n=77 v=0
144359 On ch=2 n=68 v=0
144360 On ch=2 n=77 v=127
144360 On ch=2 n=68 v=127
144599 On ch=2 n=68 v=0
144599 On ch=2 n=77 v=0
144600 On ch=2 n=68 v=127
144600 On ch=2 n=77 v=127
144839 On ch=2 n=77 v=0
144839 On ch=2 n=68 v=0
144840 On ch=2 n=77 v=127
144840 On ch=2 n=68 v=127
145079 On ch=2 n=68 v=0
145079 On ch=2 n=77 v=0
145080 On ch=2 n=68 v=127
145080 On ch=2 n=77 v=127
145319 On ch=2 n=77 v=0
145319 On ch=2 n=68 v=0
145320 On ch=2 n=77 v=127
145320 On ch=2 n=68 v=127
145439 On ch=2 n=68 v=0
145439 On ch=2 n=77 v=0
145560 On ch=2 n=76 v=127
145560 On ch=2 n=69 v=127
146279 On ch=2 n=69 v=0
146279 On ch=2 n=76 v=0
146280 On ch=2 n=69 v=127
146280 On ch=2 n=76 v=127
146519 On ch=2 n=76 v=0
146519 On ch=2 n=69 v=0
146520 On ch=2 n=76 v=127
146520 On ch=2 n=69 v=127
146759 On ch=2 n=69 v=0
146759 On ch=2 n=76 v=0
146760 On ch=2 n=69 v=127
146760 On ch=2 n=76 v=127
146999 On ch=2 n=76 v=0
146999 On ch=2 n=69 v=0
147000 On ch=2 n=76 v=127
147000 On ch=2 n=69 v=127
147239 On ch=2 n=69 v=0
147239 On ch=2 n=76 v=0
147240 On ch=2 n=69 v=127
147240 On ch=2 n=76 v=127
147479 On ch=2 n=76 v=0
147479 On ch=2 n=69 v=0
147480 On ch=2 n=76 v=127
147480 On ch=2 n=69 v=127
147599 On ch=2 n=69 v=0
147599 On ch=2 n=76 v=0
147720 On ch=2 n=78 v=127
147720 On ch=2 n=75 v=127
148439 On ch=2 n=75 v=0
148439 On ch=2 n=78 v=0
148440 On ch=2 n=78 v=127
148440 On ch=2 n=75 v=127
148679 On ch=2 n=75 v=0
148679 On ch=2 n=78 v=0
148680 On ch=2 n=75 v=127
148680 On ch=2 n=78 v=127
148919 On ch=2 n=78 v=0
148919 On ch=2 n=75 v=0
148920 On ch=2 n=78 v=127
148920 On ch=2 n=75 v=127
149159 On ch=2 n=75 v=0
149159 On ch=2 n=78 v=0
149160 On ch=2 n=75 v=127
149160 On ch=2 n=78 v=127
149399 On ch=2 n=78 v=0
149399 On ch=2 n=75 v=0
149400 On ch=2 n=78 v=127
149400 On ch=2 n=75 v=127
149639 On ch=2 n=75 v=0
149639 On ch=2 n=78 v=0
149640 On ch=2 n=75 v=127
149640 On ch=2 n=78 v=127
149759 On ch=2 n=78 v=0
149759 On ch=2 n=75 v=0
149880 On ch=2 n=79 v=127
149880 On ch=2 n=76 v=127
150599 On ch=2 n=76 v=0
150599 On ch=2 n=79 v=0
150600 On ch=2 n=76 v=127
150600 On ch=2 n=79 v=127
150839 On ch=2 n=79 v=0
150839 On ch=2 n=76 v=0
150840 On ch=2 n=79 v=127
150840 On ch=2 n=76 v=127
151079 On ch=2 n=76 v=0
151079 On ch=2 n=79 v=0
151080 On ch=2 n=76 v=127
151080 On ch=2 n=79 v=127
151319 On ch=2 n=79 v=0
151319 On ch=2 n=76 v=0
151320 On ch=2 n=79 v=127
151320 On ch=2 n=76 v=127
151559 On ch=2 n=76 v=0
151559 On ch=2 n=79 v=0
151560 On ch=2 n=79 v=127
151560 On ch=2 n=76 v=127
151799 On ch=2 n=76 v=0
151799 On ch=2 n=79 v=0
151800 On ch=2 n=76 v=127
151800 On ch=2 n=79 v=127
151919 On ch=2 n=79 v=0
151919 On ch=2 n=76 v=0
152040 On ch=2 n=78 v=127
152040 On ch=2 n=75 v=127
152279 On ch=2 n=75 v=0
152279 On ch=2 n=78 v=0
152280 On ch=2 n=75 v=127
152280 On ch=2 n=78 v=127
152519 On ch=2 n=78 v=0
152519 On ch=2 n=75 v=0
152520 On ch=2 n=78 v=127
152520 On ch=2 n=75 v=127
152639 On ch=2 n=75 v=0
152639 On ch=2 n=78 v=0
152760 On ch=2 n=79 v=127
152760 On ch=2 n=76 v=127
152999 On ch=2 n=76 v=0
152999 On ch=2 n=79 v=0
153000 On ch=2 n=76 v=127
153000 On ch=2 n=79 v=127
153239 On ch=2 n=79 v=0
153239 On ch=2 n=76 v=0
153240 On ch=2 n=79 v=127
153240 On ch=2 n=76 v=127
153299 On ch=2 n=76 v=0
153299 On ch=2 n=79 v=0
153360 On ch=2 n=84 v=96
153360 On ch=2 n=76 v=96
153599 On ch=2 n=76 v=0
153599 On ch=2 n=84 v=0
153720 On ch=2 n=76 v=96
153720 On ch=2 n=84 v=96
153959 On ch=2 n=84 v=0
153959 On ch=2 n=76 v=0
154080 On ch=2 n=84 v=96
154080 On ch=2 n=76 v=96
154319 On ch=2 n=76 v=0
154319 On ch=2 n=84 v=0
154440 On ch=2 n=76 v=96
154440 On ch=2 n=84 v=96
154679 On ch=2 n=84 v=0
154679 On ch=2 n=76 v=0
154680 On ch=2 n=84 v=96
154680 On ch=2 n=76 v=96
154739 On ch=2 n=76 v=0
154739 On ch=2 n=84 v=0
156360 On ch=2 n=67 v=56
156360 On ch=2 n=76 v=56
156480 On ch=2 n=69 v=56
156480 On ch=2 n=75 v=56
156489 On ch=2 n=76 v=0
156489 On ch=2 n=67 v=0
156600 On ch=2 n=71 v=96
156600 On ch=2 n=76 v=96
156609 On ch=2 n=69 v=0
156609 On ch=2 n=75 v=0
156629 On ch=2 n=71 v=0
156629 On ch=2 n=76 v=0
156630 On ch=2 n=76 v=56
156630 On ch=2 n=71 v=56
156780 On ch=2 n=75 v=56
156780 On ch=2 n=78 v=56
156789 On ch=2 n=71 v=0
156789 On ch=2 n=76 v=0
156840 On ch=2 n=76 v=56
156840 On ch=2 n=79 v=56
156849 On ch=2 n=75 v=0
156849 On ch=2 n=78 v=0
156959 On ch=2 n=76 v=0
156959 On ch=2 n=79 v=0
156960 On ch=2 n=71 v=56
156960 On ch=2 n=78 v=56
157080 On ch=2 n=78 v=56
157080 On ch=2 n=83 v=56
157089 On ch=2 n=78 v=0
157089 On ch=2 n=71 v=0
157200 On ch=2 n=76 v=56
157200 On ch=2 n=82 v=56
157209 On ch=2 n=78 v=0
157209 On ch=2 n=83 v=0
157320 On ch=2 n=75 v=96
157320 On ch=2 n=83 v=96
157329 On ch=2 n=76 v=0
157329 On ch=2 n=82 v=0
157349 On ch=2 n=75 v=0
157349 On ch=2 n=83 v=0
157350 On ch=2 n=75 v=48
157350 On ch=2 n=83 v=48
157500 On ch=2 n=81 v=56
157509 On ch=2 n=83 v=0
157560 On ch=2 n=76 v=48
157560 On ch=2 n=79 v=56
157569 On ch=2 n=81 v=0
157569 On ch=2 n=75 v=0
157620 On ch=2 n=71 v=48
157620 On ch=2 n=78 v=56
157629 On ch=2 n=76 v=0
157629 On ch=2 n=79 v=0
157679 On ch=2 n=71 v=0
157679 On ch=2 n=78 v=0
157680 On ch=2 n=67 v=56
157680 On ch=2 n=76 v=56
157799 On ch=2 n=76 v=0
157799 On ch=2 n=67 v=0
157800 On ch=2 n=67 v=56
157800 On ch=2 n=76 v=56
157920 On ch=2 n=69 v=56
157920 On ch=2 n=75 v=56
157929 On ch=2 n=76 v=0
157929 On ch=2 n=67 v=0
158040 On ch=2 n=71 v=96
158040 On ch=2 n=76 v=96
158049 On ch=2 n=69 v=0
158049 On ch=2 n=75 v=0
158069 On ch=2 n=71 v=0
158069 On ch=2 n=76 v=0
158070 On ch=2 n=76 v=56
158070 On ch=2 n=71 v=56
158220 On ch=2 n=75 v=56
158220 On ch=2 n=78 v=56
158229 On ch=2 n=71 v=0
158229 On ch=2 n=76 v=0
158280 On ch=2 n=76 v=56
158280 On ch=2 n=79 v=56
158289 On ch=2 n=75 v=0
158289 On ch=2 n=78 v=0
158399 On ch=2 n=76 v=0
158399 On ch=2 n=79 v=0
158400 On ch=2 n=71 v=56
158400 On ch=2 n=78 v=56
158520 On ch=2 n=78 v=56
158520 On ch=2 n=83 v=56
158529 On ch=2 n=78 v=0
158529 On ch=2 n=71 v=0
158640 On ch=2 n=76 v=56
158640 On ch=2 n=82 v=56
158649 On ch=2 n=78 v=0
158649 On ch=2 n=83 v=0
158759 On ch=2 n=76 v=0
158759 On ch=2 n=82 v=0
158760 On ch=2 n=74 v=56
158760 On ch=2 n=83 v=56
158940 On ch=2 n=77 v=58
158949 On ch=2 n=74 v=0
159000 On ch=2 n=76 v=60
159000 On ch=2 n=80 v=60
159009 On ch=2 n=77 v=0
159009 On ch=2 n=83 v=0
159060 On ch=2 n=74 v=54
159069 On ch=2 n=76 v=0
159119 On ch=2 n=74 v=0
159119 On ch=2 n=80 v=0
159120 On ch=2 n=72 v=48
159120 On ch=2 n=81 v=48
159239 On ch=2 n=81 v=0
159239 On ch=2 n=72 v=0
162000 On ch=2 n=72 v=96
162240 On ch=2 n=76 v=96
162249 On ch=2 n=72 v=0
162360 On ch=2 n=72 v=96
162369 On ch=2 n=76 v=0
162600 On ch=2 n=67 v=96
162609 On ch=2 n=72 v=0
162719 On ch=2 n=67 v=0
162720 On ch=2 n=72 v=96
162779 On ch=2 n=72 v=0
162840 On ch=2 n=76 v=96
162899 On ch=2 n=76 v=0
162960 On ch=2 n=79 v=96
163019 On ch=2 n=79 v=0
163080 On ch=2 n=72 v=96
163320 On ch=2 n=67 v=96
163329 On ch=2 n=72 v=0
163439 On ch=2 n=67 v=0
163440 On ch=2 n=72 v=96
163499 On ch=2 n=72 v=0
163560 On ch=2 n=76 v=96
163619 On ch=2 n=76 v=0
163680 On ch=2 n=79 v=96
163739 On ch=2 n=79 v=0
163800 On ch=2 n=72 v=96
163859 On ch=2 n=72 v=0
163920 On ch=2 n=76 v=96
163979 On ch=2 n=76 v=0
164040 On ch=2 n=79 v=112
164219 On ch=2 n=79 v=0
164220 On ch=2 n=77 v=96
164249 On ch=2 n=77 v=0
164280 On ch=2 n=74 v=96
164309 On ch=2 n=74 v=0
164340 On ch=2 n=71 v=96
164369 On ch=2 n=71 v=0
164400 On ch=2 n=79 v=96
164429 On ch=2 n=79 v=0
164460 On ch=2 n=77 v=96
164489 On ch=2 n=77 v=0
164520 On ch=2 n=74 v=96
164549 On ch=2 n=74 v=0
164580 On ch=2 n=77 v=96
164609 On ch=2 n=77 v=0
164640 On ch=2 n=74 v=96
164669 On ch=2 n=74 v=0
164700 On ch=2 n=71 v=96
164729 On ch=2 n=71 v=0
164760 On ch=2 n=67 v=96
164789 On ch=2 n=67 v=0
164820 On ch=2 n=71 v=96
164849 On ch=2 n=71 v=0
164880 On ch=2 n=72 v=96
164939 On ch=2 n=72 v=0
165240 On ch=2 n=72 v=96
165299 On ch=2 n=72 v=0
165360 On ch=2 n=75 v=96
165419 On ch=2 n=75 v=0
165480 On ch=2 n=79 v=112
165659 On ch=2 n=79 v=0
165660 On ch=2 n=77 v=96
165689 On ch=2 n=77 v=0
165720 On ch=2 n=74 v=96
165749 On ch=2 n=74 v=0
165780 On ch=2 n=71 v=96
165809 On ch=2 n=71 v=0
165840 On ch=2 n=79 v=96
165869 On ch=2 n=79 v=0
165900 On ch=2 n=77 v=96
165929 On ch=2 n=77 v=0
165960 On ch=2 n=74 v=96
165989 On ch=2 n=74 v=0
166020 On ch=2 n=77 v=96
166049 On ch=2 n=77 v=0
166080 On ch=2 n=74 v=96
166109 On ch=2 n=74 v=0
166140 On ch=2 n=71 v=96
166169 On ch=2 n=71 v=0
166200 On ch=2 n=67 v=96
166229 On ch=2 n=67 v=0
166260 On ch=2 n=71 v=96
166289 On ch=2 n=71 v=0
166320 On ch=2 n=72 v=96
166440 On ch=2 n=75 v=96
166449 On ch=2 n=72 v=0
166560 On ch=2 n=79 v=96
166569 On ch=2 n=75 v=0
166679 On ch=2 n=79 v=0
166680 On ch=2 n=80 v=96
166920 On ch=2 n=72 v=96
166929 On ch=2 n=80 v=0
167039 On ch=2 n=72 v=0
167040 On ch=2 n=73 v=96
167160 On ch=2 n=77 v=96
167169 On ch=2 n=73 v=0
167280 On ch=2 n=81 v=96
167289 On ch=2 n=77 v=0
167399 On ch=2 n=81 v=0
167400 On ch=2 n=82 v=112
167640 On ch=2 n=74 v=96
167649 On ch=2 n=82 v=0
167759 On ch=2 n=74 v=0
167760 On ch=2 n=75 v=96
167819 On ch=2 n=75 v=0
167880 On ch=2 n=82 v=96
167880 On ch=2 n=70 v=96
167939 On ch=2 n=70 v=0
167939 On ch=2 n=82 v=0
168000 On ch=2 n=82 v=96
168000 On ch=2 n=70 v=96
168059 On ch=2 n=70 v=0
168059 On ch=2 n=82 v=0
168120 On ch=2 n=82 v=96
168120 On ch=2 n=70 v=96
168179 On ch=2 n=70 v=0
168179 On ch=2 n=82 v=0
168240 On ch=2 n=82 v=96
168240 On ch=2 n=70 v=96
168299 On ch=2 n=70 v=0
168299 On ch=2 n=82 v=0
168360 On ch=2 n=82 v=112
168360 On ch=2 n=70 v=112
169319 On ch=2 n=70 v=0
169319 On ch=2 n=82 v=0
169320 On ch=2 n=82 v=127
169320 On ch=2 n=70 v=127
169439 On ch=2 n=70 v=0
169439 On ch=2 n=82 v=0
169440 On ch=2 n=82 v=127
169440 On ch=2 n=70 v=127
169559 On ch=2 n=70 v=0
169559 On ch=2 n=82 v=0
169560 On ch=2 n=82 v=127
169560 On ch=2 n=70 v=127
169679 On ch=2 n=70 v=0
169679 On ch=2 n=82 v=0
169680 On ch=2 n=75 v=127
169799 On ch=2 n=75 v=0
169800 On ch=2 n=75 v=127
169919 On ch=2 n=75 v=0
169920 On ch=2 n=75 v=127
170039 On ch=2 n=75 v=0
176400 On ch=2 n=77 v=48
176639 On ch=2 n=77 v=0
176640 On ch=2 n=82 v=48
176640 On ch=2 n=77 v=48
176759 On ch=2 n=77 v=0
176760 On ch=2 n=77 v=48
176769 On ch=2 n=82 v=0
177000 On ch=2 n=74 v=48
177009 On ch=2 n=77 v=0
177119 On ch=2 n=74 v=0
177120 On ch=2 n=75 v=48
177239 On ch=2 n=75 v=0
177240 On ch=2 n=78 v=48
177240 On ch=2 n=75 v=48
177359 On ch=2 n=78 v=0
177360 On ch=2 n=82 v=48
177360 On ch=2 n=78 v=48
177369 On ch=2 n=75 v=0
177479 On ch=2 n=78 v=0
177479 On ch=2 n=82 v=0
177480 On ch=2 n=78 v=48
177480 On ch=2 n=82 v=48
177599 On ch=2 n=82 v=0
177599 On ch=2 n=78 v=0
177840 On ch=2 n=78 v=48
178080 On ch=2 n=82 v=48
178089 On ch=2 n=78 v=0
178200 On ch=2 n=78 v=48
178209 On ch=2 n=82 v=0
178440 On ch=2 n=75 v=48
178449 On ch=2 n=78 v=0
178559 On ch=2 n=75 v=0
178560 On ch=2 n=75 v=48
178679 On ch=2 n=75 v=0
178680 On ch=2 n=78 v=48
178680 On ch=2 n=75 v=48
178799 On ch=2 n=78 v=0
178800 On ch=2 n=80 v=48
178800 On ch=2 n=78 v=48
178809 On ch=2 n=75 v=0
178919 On ch=2 n=78 v=0
178919 On ch=2 n=80 v=0
178920 On ch=2 n=78 v=48
178920 On ch=2 n=80 v=48
179039 On ch=2 n=80 v=0
179039 On ch=2 n=78 v=0
179280 On ch=2 n=78 v=48
179520 On ch=2 n=80 v=48
179529 On ch=2 n=78 v=0
179640 On ch=2 n=78 v=48
179649 On ch=2 n=80 v=0
179880 On ch=2 n=75 v=48
179889 On ch=2 n=78 v=0
179999 On ch=2 n=75 v=0
180000 On ch=2 n=77 v=48
180120 On ch=2 n=73 v=48
180120 On ch=2 n=80 v=48
180129 On ch=2 n=77 v=0
180239 On ch=2 n=80 v=0
180240 On ch=2 n=77 v=48
180240 On ch=2 n=80 v=48
180249 On ch=2 n=73 v=0
180359 On ch=2 n=80 v=0
180359 On ch=2 n=77 v=0
180360 On ch=2 n=77 v=48
180360 On ch=2 n=80 v=48
180479 On ch=2 n=80 v=0
180479 On ch=2 n=77 v=0
180720 On ch=2 n=77 v=48
180959 On ch=2 n=77 v=0
180960 On ch=2 n=80 v=48
180960 On ch=2 n=77 v=48
181079 On ch=2 n=77 v=0
181079 On ch=2 n=80 v=0
181080 On ch=2 n=77 v=48
181080 On ch=2 n=80 v=48
181319 On ch=2 n=77 v=0
181320 On ch=2 n=77 v=48
181320 On ch=2 n=73 v=48
181329 On ch=2 n=80 v=0
181439 On ch=2 n=73 v=0
181439 On ch=2 n=77 v=0
181440 On ch=2 n=77 v=48
181440 On ch=2 n=70 v=48
181559 On ch=2 n=70 v=0
181560 On ch=2 n=70 v=49
181560 On ch=2 n=80 v=49
181569 On ch=2 n=77 v=0
181679 On ch=2 n=80 v=0
181679 On ch=2 n=70 v=0
181680 On ch=2 n=80 v=50
181680 On ch=2 n=82 v=50
181799 On ch=2 n=82 v=0
181799 On ch=2 n=80 v=0
181800 On ch=2 n=80 v=51
181800 On ch=2 n=82 v=51
181919 On ch=2 n=82 v=0
181919 On ch=2 n=80 v=0
182160 On ch=2 n=77 v=54
182400 On ch=2 n=80 v=56
182409 On ch=2 n=77 v=0
182520 On ch=2 n=77 v=48
182529 On ch=2 n=80 v=0
182760 On ch=2 n=70 v=48
182769 On ch=2 n=77 v=0
182879 On ch=2 n=70 v=0
182880 On ch=2 n=75 v=96
183120 On ch=2 n=78 v=56
183129 On ch=2 n=75 v=0
183239 On ch=2 n=78 v=0
183600 On ch=2 n=75 v=96
183840 On ch=2 n=78 v=92
183849 On ch=2 n=75 v=0
183959 On ch=2 n=78 v=0
184320 On ch=2 n=78 v=127
184320 On ch=2 n=75 v=127
185159 On ch=2 n=75 v=0
185159 On ch=2 n=78 v=0
185160 On ch=2 n=78 v=127
185160 On ch=2 n=75 v=127
185279 On ch=2 n=75 v=0
185279 On ch=2 n=78 v=0
185280 On ch=2 n=75 v=127
185280 On ch=2 n=78 v=127
185399 On ch=2 n=78 v=0
185399 On ch=2 n=75 v=0
185400 On ch=2 n=78 v=127
185400 On ch=2 n=75 v=127
185519 On ch=2 n=75 v=0
185519 On ch=2 n=78 v=0
185520 On ch=2 n=78 v=127
185520 On ch=2 n=75 v=127
185639 On ch=2 n=75 v=0
185639 On ch=2 n=78 v=0
185640 On ch=2 n=78 v=127
185640 On ch=2 n=75 v=127
185759 On ch=2 n=75 v=0
185759 On ch=2 n=78 v=0
185760 On ch=2 n=75 v=96
185760 On ch=2 n=78 v=96
186119 On ch=2 n=78 v=0
186119 On ch=2 n=75 v=0
186120 On ch=2 n=78 v=96
186120 On ch=2 n=75 v=96
186479 On ch=2 n=75 v=0
186479 On ch=2 n=78 v=0
186480 On ch=2 n=78 v=96
186480 On ch=2 n=75 v=96
186839 On ch=2 n=75 v=0
186839 On ch=2 n=78 v=0
186840 On ch=2 n=75 v=96
186840 On ch=2 n=78 v=96
187199 On ch=2 n=78 v=0
187199 On ch=2 n=75 v=0
187200 On ch=2 n=78 v=48
187559 On ch=2 n=78 v=0
187560 On ch=2 n=78 v=48
187919 On ch=2 n=78 v=0
187920 On ch=2 n=78 v=48
188279 On ch=2 n=78 v=0
188280 On ch=2 n=78 v=48
188639 On ch=2 n=78 v=0
188640 On ch=2 n=78 v=48
188999 On ch=2 n=78 v=0
189000 On ch=2 n=77 v=44
189359 On ch=2 n=77 v=0
189360 On ch=2 n=77 v=40
189719 On ch=2 n=77 v=0
189720 On ch=2 n=75 v=36
190079 On ch=2 n=75 v=0
190080 On ch=2 n=75 v=32
190439 On ch=2 n=75 v=0
190440 On ch=2 n=75 v=32
190799 On ch=2 n=75 v=0
190800 On ch=2 n=74 v=32
191159 On ch=2 n=74 v=0
191160 On ch=2 n=74 v=32
191519 On ch=2 n=74 v=0
192240 On ch=2 n=74 v=32
192599 On ch=2 n=74 v=0
192600 On ch=2 n=74 v=32
192959 On ch=2 n=74 v=0
193680 On ch=2 n=74 v=32
194039 On ch=2 n=74 v=0
194040 On ch=2 n=74 v=32
194399 On ch=2 n=74 v=0
196560 On ch=2 n=74 v=96
196560 On ch=2 n=68 v=96
196919 On ch=2 n=68 v=0
196919 On ch=2 n=74 v=0
196920 On ch=2 n=80 v=127
196920 On ch=2 n=74 v=127
197279 On ch=2 n=74 v=0
197279 On ch=2 n=80 v=0
197280 On ch=2 n=79 v=127
197280 On ch=2 n=75 v=127
197399 On ch=2 n=75 v=0
197399 On ch=2 n=79 v=0
205920 On ch=2 n=77 v=48
206280 On ch=2 n=75 v=56
206289 On ch=2 n=77 v=0
206640 On ch=2 n=74 v=32
206649 On ch=2 n=75 v=0
206759 On ch=2 n=74 v=0
208320 On ch=2 n=70 v=64
208349 On ch=2 n=70 v=0
208380 On ch=2 n=72 v=68
208409 On ch=2 n=72 v=0
208440 On ch=2 n=74 v=72
208469 On ch=2 n=74 v=0
208500 On ch=2 n=75 v=76
208529 On ch=2 n=75 v=0
208560 On ch=2 n=77 v=80
208589 On ch=2 n=77 v=0
208620 On ch=2 n=79 v=84
208649 On ch=2 n=79 v=0
208680 On ch=2 n=80 v=88
208709 On ch=2 n=80 v=0
208740 On ch=2 n=74 v=92
208769 On ch=2 n=74 v=0
208800 On ch=2 n=75 v=96
209040 On ch=2 n=79 v=96
209049 On ch=2 n=75 v=0
209160 On ch=2 n=75 v=96
209169 On ch=2 n=79 v=0
209400 On ch=2 n=70 v=96
209409 On ch=2 n=75 v=0
209519 On ch=2 n=70 v=0
209520 On ch=2 n=75 v=96
209639 On ch=2 n=75 v=0
209640 On ch=2 n=75 v=96
209759 On ch=2 n=75 v=0
209760 On ch=2 n=75 v=96
209879 On ch=2 n=75 v=0
209880 On ch=2 n=75 v=96
210119 On ch=2 n=75 v=0
210120 On ch=2 n=76 v=112
210120 On ch=2 n=73 v=112
210239 On ch=2 n=73 v=0
210239 On ch=2 n=76 v=0
210240 On ch=2 n=77 v=96
210240 On ch=2 n=72 v=96
210359 On ch=2 n=72 v=0
210359 On ch=2 n=77 v=0
210360 On ch=2 n=77 v=96
210360 On ch=2 n=72 v=96
210479 On ch=2 n=72 v=0
210479 On ch=2 n=77 v=0
210480 On ch=2 n=77 v=96
210480 On ch=2 n=72 v=96
210599 On ch=2 n=72 v=0
210599 On ch=2 n=77 v=0
210600 On ch=2 n=77 v=96
210600 On ch=2 n=72 v=96
210839 On ch=2 n=72 v=0
210839 On ch=2 n=77 v=0
210840 On ch=2 n=78 v=112
210840 On ch=2 n=72 v=112
210959 On ch=2 n=72 v=0
210959 On ch=2 n=78 v=0
210960 On ch=2 n=79 v=112
210960 On ch=2 n=70 v=112
211319 On ch=2 n=70 v=0
211319 On ch=2 n=79 v=0
211320 On ch=2 n=80 v=112
211320 On ch=2 n=72 v=112
211679 On ch=2 n=72 v=0
211679 On ch=2 n=80 v=0
211680 On ch=2 n=80 v=112
211680 On ch=2 n=71 v=112
212159 On ch=2 n=71 v=0
212159 On ch=2 n=80 v=0
212160 On ch=2 n=70 v=112
212160 On ch=2 n=80 v=112
212279 On ch=2 n=80 v=0
212279 On ch=2 n=70 v=0
212280 On ch=2 n=80 v=112
212280 On ch=2 n=70 v=112
212399 On ch=2 n=70 v=0
212399 On ch=2 n=80 v=0
212400 On ch=2 n=79 v=127
212400 On ch=2 n=70 v=127
212639 On ch=2 n=70 v=0
212639 On ch=2 n=79 v=0
212640 On ch=2 n=82 v=127
212640 On ch=2 n=79 v=127
212759 On ch=2 n=79 v=0
212759 On ch=2 n=82 v=0
212760 On ch=2 n=79 v=127
212760 On ch=2 n=82 v=127
212999 On ch=2 n=82 v=0
212999 On ch=2 n=79 v=0
213000 On ch=2 n=82 v=127
213000 On ch=2 n=79 v=127
213239 On ch=2 n=79 v=0
213239 On ch=2 n=82 v=0
213240 On ch=2 n=79 v=127
213240 On ch=2 n=82 v=127
213359 On ch=2 n=82 v=0
213359 On ch=2 n=79 v=0
213360 On ch=2 n=82 v=127
213360 On ch=2 n=79 v=127
213479 On ch=2 n=79 v=0
213479 On ch=2 n=82 v=0
213480 On ch=2 n=79 v=127
213480 On ch=2 n=82 v=127
213719 On ch=2 n=82 v=0
213719 On ch=2 n=79 v=0
213720 On ch=2 n=83 v=127
213720 On ch=2 n=79 v=127
213840 On ch=2 n=84 v=127
213849 On ch=2 n=83 v=0
213959 On ch=2 n=84 v=0
213959 On ch=2 n=79 v=0
213960 On ch=2 n=79 v=127
213960 On ch=2 n=84 v=127
214079 On ch=2 n=84 v=0
214079 On ch=2 n=79 v=0
214080 On ch=2 n=84 v=127
214080 On ch=2 n=79 v=127
214199 On ch=2 n=79 v=0
214199 On ch=2 n=84 v=0
214200 On ch=2 n=79 v=127
214200 On ch=2 n=84 v=127
214439 On ch=2 n=84 v=0
214439 On ch=2 n=79 v=0
214440 On ch=2 n=84 v=127
214440 On ch=2 n=79 v=127
214559 On ch=2 n=79 v=0
214559 On ch=2 n=84 v=0
214560 On ch=2 n=84 v=127
214560 On ch=2 n=77 v=127
214919 On ch=2 n=77 v=0
214919 On ch=2 n=84 v=0
214920 On ch=2 n=84 v=127
214920 On ch=2 n=75 v=127
215279 On ch=2 n=75 v=0
215279 On ch=2 n=84 v=0
215280 On ch=2 n=82 v=127
215280 On ch=2 n=74 v=127
215399 On ch=2 n=74 v=0
215399 On ch=2 n=82 v=0
215760 On ch=2 n=82 v=48
215940 On ch=2 n=80 v=48
215949 On ch=2 n=82 v=0
216000 On ch=2 n=77 v=48
216009 On ch=2 n=80 v=0
216119 On ch=2 n=77 v=0
217200 On ch=2 n=82 v=48
217380 On ch=2 n=79 v=48
217389 On ch=2 n=82 v=0
217440 On ch=2 n=75 v=48
217449 On ch=2 n=79 v=0
217559 On ch=2 n=75 v=0
219000 On ch=2 n=84 v=127
219000 On ch=2 n=72 v=127
219179 On ch=2 n=72 v=0
219179 On ch=2 n=84 v=0
219180 On ch=2 n=82 v=127
219180 On ch=2 n=70 v=127
219209 On ch=2 n=70 v=0
219209 On ch=2 n=82 v=0
219240 On ch=2 n=80 v=127
219240 On ch=2 n=68 v=127
219299 On ch=2 n=68 v=0
219299 On ch=2 n=80 v=0
219360 On ch=2 n=79 v=127
219360 On ch=2 n=67 v=127
219419 On ch=2 n=67 v=0
219419 On ch=2 n=79 v=0
219480 On ch=2 n=77 v=127
219480 On ch=2 n=65 v=127
219539 On ch=2 n=65 v=0
219539 On ch=2 n=77 v=0
219600 On ch=2 n=75 v=48
220320 On ch=2 n=70 v=48
220560 On ch=2 n=77 v=48
220560 On ch=2 n=74 v=48
220569 On ch=2 n=70 v=0
220569 On ch=2 n=75 v=0
220620 On ch=2 n=79 v=48
220620 On ch=2 n=75 v=48
220629 On ch=2 n=77 v=0
220629 On ch=2 n=74 v=0
220679 On ch=2 n=79 v=0
220679 On ch=2 n=75 v=0
220680 On ch=2 n=80 v=48
220680 On ch=2 n=77 v=48
220769 On ch=2 n=77 v=0
220769 On ch=2 n=80 v=0
220800 On ch=2 n=80 v=48
220800 On ch=2 n=77 v=48
220889 On ch=2 n=77 v=0
220889 On ch=2 n=80 v=0
220920 On ch=2 n=80 v=48
220920 On ch=2 n=77 v=48
221009 On ch=2 n=77 v=0
221009 On ch=2 n=80 v=0
221040 On ch=2 n=79 v=48
221040 On ch=2 n=75 v=48
221159 On ch=2 n=75 v=0
221159 On ch=2 n=79 v=0
222480 On ch=2 n=80 v=96
222480 On ch=2 n=74 v=96
222539 On ch=2 n=74 v=0
222539 On ch=2 n=80 v=0
222600 On ch=2 n=77 v=96
222600 On ch=2 n=80 v=96
222659 On ch=2 n=80 v=0
222659 On ch=2 n=77 v=0
223140 On ch=2 n=80 v=96
223140 On ch=2 n=77 v=96
223199 On ch=2 n=77 v=0
223199 On ch=2 n=80 v=0
223200 On ch=2 n=75 v=96
223200 On ch=2 n=79 v=96
223259 On ch=2 n=79 v=0
223259 On ch=2 n=75 v=0
223320 On ch=2 n=79 v=96
223320 On ch=2 n=75 v=96
223379 On ch=2 n=75 v=0
223379 On ch=2 n=79 v=0
223860 On ch=2 n=72 v=96
223860 On ch=2 n=75 v=96
223919 On ch=2 n=75 v=0
223919 On ch=2 n=72 v=0
223920 On ch=2 n=75 v=96
223920 On ch=2 n=73 v=96
223979 On ch=2 n=73 v=0
223979 On ch=2 n=75 v=0
224040 On ch=2 n=73 v=96
224040 On ch=2 n=75 v=96
224099 On ch=2 n=75 v=0
224099 On ch=2 n=73 v=0
224580 On ch=2 n=79 v=96
224580 On ch=2 n=73 v=96
224609 On ch=2 n=73 v=0
224609 On ch=2 n=79 v=0
224640 On ch=2 n=72 v=96
224640 On ch=2 n=80 v=96
224669 On ch=2 n=80 v=0
224669 On ch=2 n=72 v=0
224700 On ch=2 n=72 v=96
224819 On ch=2 n=72 v=0
224820 On ch=2 n=75 v=96
224820 On ch=2 n=72 v=96
224849 On ch=2 n=72 v=0
224849 On ch=2 n=75 v=0
224880 On ch=2 n=74 v=96
224909 On ch=2 n=74 v=0
224940 On ch=2 n=67 v=96
224940 On ch=2 n=74 v=96
224969 On ch=2 n=74 v=0
224969 On ch=2 n=67 v=0
225000 On ch=2 n=75 v=96
225000 On ch=2 n=67 v=96
225029 On ch=2 n=67 v=0
225029 On ch=2 n=75 v=0
225060 On ch=2 n=75 v=96
225179 On ch=2 n=75 v=0
225180 On ch=2 n=75 v=96
225209 On ch=2 n=75 v=0
225240 On ch=2 n=70 v=96
225240 On ch=2 n=77 v=96
225269 On ch=2 n=77 v=0
225269 On ch=2 n=70 v=0
225300 On ch=2 n=77 v=96
225300 On ch=2 n=70 v=96
225329 On ch=2 n=70 v=0
225329 On ch=2 n=77 v=0
225360 On ch=2 n=70 v=96
225360 On ch=2 n=79 v=96
225479 On ch=2 n=79 v=0
225479 On ch=2 n=70 v=0
225480 On ch=2 n=75 v=96
225480 On ch=2 n=67 v=96
225599 On ch=2 n=75 v=0
225600 On ch=2 n=68 v=96
225600 On ch=2 n=75 v=96
225609 On ch=2 n=67 v=0
225719 On ch=2 n=75 v=0
225719 On ch=2 n=68 v=0
225720 On ch=2 n=75 v=96
225720 On ch=2 n=69 v=96
225839 On ch=2 n=75 v=0
225840 On ch=2 n=75 v=96
225840 On ch=2 n=70 v=96
225849 On ch=2 n=69 v=0
225959 On ch=2 n=75 v=0
225960 On ch=2 n=75 v=96
225960 On ch=2 n=71 v=96
225969 On ch=2 n=70 v=0
226079 On ch=2 n=71 v=0
226079 On ch=2 n=75 v=0
226080 On ch=2 n=75 v=96
226080 On ch=2 n=72 v=96
226320 On ch=2 n=76 v=96
226329 On ch=2 n=75 v=0
226439 On ch=2 n=76 v=0
226440 On ch=2 n=77 v=96
226500 On ch=2 n=79 v=96
226509 On ch=2 n=77 v=0
226560 On ch=2 n=82 v=96
226569 On ch=2 n=79 v=0
226619 On ch=2 n=72 v=0
226620 On ch=2 n=72 v=96
226620 On ch=2 n=80 v=96
226629 On ch=2 n=82 v=0
226680 On ch=2 n=70 v=96
226680 On ch=2 n=79 v=96
226689 On ch=2 n=80 v=0
226689 On ch=2 n=72 v=0
226740 On ch=2 n=68 v=96
226740 On ch=2 n=77 v=96
226749 On ch=2 n=70 v=0
226749 On ch=2 n=79 v=0
226799 On ch=2 n=68 v=0
226799 On ch=2 n=77 v=0
226800 On ch=2 n=67 v=96
226800 On ch=2 n=75 v=96
226919 On ch=2 n=75 v=0
226919 On ch=2 n=67 v=0
227520 On ch=2 n=70 v=112
227520 On ch=2 n=82 v=112
228299 On ch=2 n=82 v=0
228299 On ch=2 n=70 v=0
228300 On ch=2 n=81 v=127
228329 On ch=2 n=81 v=0
228360 On ch=2 n=80 v=127
228389 On ch=2 n=80 v=0
228420 On ch=2 n=79 v=127
228449 On ch=2 n=79 v=0
228480 On ch=2 n=77 v=127
228509 On ch=2 n=77 v=0
228540 On ch=2 n=75 v=127
228569 On ch=2 n=75 v=0
228600 On ch=2 n=74 v=127
228629 On ch=2 n=74 v=0
228660 On ch=2 n=72 v=127
228689 On ch=2 n=72 v=0
228720 On ch=2 n=70 v=127
228749 On ch=2 n=70 v=0
228780 On ch=2 n=80 v=127
228780 On ch=2 n=68 v=127
228809 On ch=2 n=68 v=0
228809 On ch=2 n=80 v=0
228840 On ch=2 n=79 v=127
228840 On ch=2 n=67 v=127
228869 On ch=2 n=67 v=0
228869 On ch=2 n=79 v=0
228900 On ch=2 n=77 v=127
228900 On ch=2 n=65 v=127
228929 On ch=2 n=65 v=0
228929 On ch=2 n=77 v=0
228960 On ch=2 n=75 v=127
228960 On ch=2 n=63 v=127
229079 On ch=2 n=63 v=0
229079 On ch=2 n=75 v=0
229800 On ch=2 n=82 v=48
229920 On ch=2 n=83 v=48
229929 On ch=2 n=82 v=0
230040 On ch=2 n=84 v=96
230049 On ch=2 n=83 v=0
230399 On ch=2 n=84 v=0
232320 On ch=2 n=80 v=56
232409 On ch=2 n=80 v=0
232440 On ch=2 n=80 v=64
232529 On ch=2 n=80 v=0
232560 On ch=2 n=80 v=72
232649 On ch=2 n=80 v=0
232680 On ch=2 n=80 v=80
232769 On ch=2 n=80 v=0
232800 On ch=2 n=80 v=88
232889 On ch=2 n=80 v=0
232920 On ch=2 n=80 v=96
233279 On ch=2 n=80 v=0
234480 On ch=2 n=78 v=48
234480 On ch=2 n=75 v=48
234569 On ch=2 n=75 v=0
234569 On ch=2 n=78 v=0
234600 On ch=2 n=77 v=56
234600 On ch=2 n=75 v=56
234689 On ch=2 n=75 v=0
234689 On ch=2 n=77 v=0
234720 On ch=2 n=74 v=48
234839 On ch=2 n=74 v=0
237840 On ch=2 n=65 v=78
237869 On ch=2 n=65 v=0
237900 On ch=2 n=67 v=80
237929 On ch=2 n=67 v=0
237960 On ch=2 n=68 v=82
237989 On ch=2 n=68 v=0
238020 On ch=2 n=70 v=84
238049 On ch=2 n=70 v=0
238080 On ch=2 n=72 v=87
238109 On ch=2 n=72 v=0
238140 On ch=2 n=74 v=89
238169 On ch=2 n=74 v=0
238200 On ch=2 n=75 v=92
238229 On ch=2 n=75 v=0
238260 On ch=2 n=77 v=94
238289 On ch=2 n=77 v=0
238320 On ch=2 n=79 v=96
238439 On ch=2 n=79 v=0
238440 On ch=2 n=75 v=112
238440 On ch=2 n=79 v=112
238679 On ch=2 n=79 v=0
238679 On ch=2 n=75 v=0
238800 On ch=2 n=79 v=112
238800 On ch=2 n=75 v=112
239039 On ch=2 n=75 v=0
239039 On ch=2 n=79 v=0
239160 On ch=2 n=80 v=112
239160 On ch=2 n=77 v=112
239399 On ch=2 n=77 v=0
239399 On ch=2 n=80 v=0
239520 On ch=2 n=74 v=112
239520 On ch=2 n=77 v=112
239639 On ch=2 n=77 v=0
239639 On ch=2 n=74 v=0
239640 On ch=2 n=80 v=96
239640 On ch=2 n=77 v=96
239759 On ch=2 n=77 v=0
239759 On ch=2 n=80 v=0
239760 On ch=2 n=75 v=127
239760 On ch=2 n=79 v=127
239819 On ch=2 n=79 v=0
239819 On ch=2 n=75 v=0
239880 On ch=2 n=82 v=127
240059 On ch=2 n=82 v=0
240060 On ch=2 n=79 v=127
240119 On ch=2 n=79 v=0
240120 On ch=2 n=75 v=127
240179 On ch=2 n=75 v=0
240240 On ch=2 n=79 v=127
240419 On ch=2 n=79 v=0
240420 On ch=2 n=70 v=127
240479 On ch=2 n=70 v=0
240480 On ch=2 n=77 v=127
240539 On ch=2 n=77 v=0
240600 On ch=2 n=80 v=127
240779 On ch=2 n=80 v=0
240780 On ch=2 n=70 v=127
240839 On ch=2 n=70 v=0
240840 On ch=2 n=74 v=127
240899 On ch=2 n=74 v=0
240960 On ch=2 n=77 v=127
241139 On ch=2 n=77 v=0
241140 On ch=2 n=70 v=127
241199 On ch=2 n=70 v=0
241200 On ch=2 n=82 v=127
241200 On ch=2 n=75 v=127
241500 On ch=2 n=81 v=127
241509 On ch=2 n=82 v=0
241560 On ch=2 n=82 v=127
241569 On ch=2 n=81 v=0
241679 On ch=2 n=82 v=0
241679 On ch=2 n=75 v=0
242940 On ch=2 n=77 v=127
242940 On ch=2 n=79 v=127
242999 On ch=2 n=79 v=0
242999 On ch=2 n=77 v=0
243000 On ch=2 n=75 v=127
243000 On ch=2 n=79 v=127
243029 On ch=2 n=79 v=0
243029 On ch=2 n=75 v=0
243060 On ch=2 n=79 v=127
243060 On ch=2 n=74 v=127
243089 On ch=2 n=74 v=0
243089 On ch=2 n=79 v=0
243120 On ch=2 n=79 v=127
243120 On ch=2 n=75 v=127
243149 On ch=2 n=75 v=0
243149 On ch=2 n=79 v=0
243180 On ch=2 n=79 v=127
243180 On ch=2 n=72 v=127
243209 On ch=2 n=72 v=0
243209 On ch=2 n=79 v=0
243240 On ch=2 n=72 v=127
243240 On ch=2 n=77 v=127
243269 On ch=2 n=77 v=0
243269 On ch=2 n=72 v=0
243300 On ch=2 n=78 v=127
243300 On ch=2 n=72 v=127
243329 On ch=2 n=72 v=0
243329 On ch=2 n=78 v=0
243360 On ch=2 n=71 v=127
243360 On ch=2 n=79 v=127
243419 On ch=2 n=79 v=0
243419 On ch=2 n=71 v=0
243480 On ch=2 n=86 v=127
243480 On ch=2 n=79 v=127
243539 On ch=2 n=79 v=0
243539 On ch=2 n=86 v=0
243600 On ch=2 n=79 v=127
243600 On ch=2 n=84 v=127
243659 On ch=2 n=84 v=0
243659 On ch=2 n=79 v=0
243840 On ch=2 n=75 v=127
243840 On ch=2 n=82 v=127
243899 On ch=2 n=82 v=0
243899 On ch=2 n=75 v=0
243960 On ch=2 n=80 v=127
243960 On ch=2 n=75 v=127
244019 On ch=2 n=75 v=0
244019 On ch=2 n=80 v=0
244200 On ch=2 n=84 v=127
244200 On ch=2 n=77 v=127
244259 On ch=2 n=77 v=0
244259 On ch=2 n=84 v=0
244320 On ch=2 n=77 v=127
244320 On ch=2 n=82 v=127
244379 On ch=2 n=82 v=0
244379 On ch=2 n=77 v=0
244560 On ch=2 n=86 v=127
244560 On ch=2 n=79 v=127
244619 On ch=2 n=79 v=0
244619 On ch=2 n=86 v=0
244680 On ch=2 n=79 v=127
244680 On ch=2 n=84 v=127
244739 On ch=2 n=84 v=0
244739 On ch=2 n=79 v=0
244920 On ch=2 n=82 v=127
244920 On ch=2 n=75 v=127
244979 On ch=2 n=75 v=0
244979 On ch=2 n=82 v=0
245040 On ch=2 n=75 v=127
245040 On ch=2 n=80 v=127
245099 On ch=2 n=80 v=0
245099 On ch=2 n=75 v=0
245280 On ch=2 n=78 v=127
245280 On ch=2 n=75 v=127
245339 On ch=2 n=75 v=0
245339 On ch=2 n=78 v=0
245520 On ch=2 n=75 v=127
245520 On ch=2 n=78 v=127
245579 On ch=2 n=78 v=0
245579 On ch=2 n=75 v=0
245760 On ch=2 n=78 v=127
245760 On ch=2 n=75 v=127
245819 On ch=2 n=75 v=0
245819 On ch=2 n=78 v=0
246000 On ch=2 n=75 v=127
246000 On ch=2 n=78 v=127
246059 On ch=2 n=78 v=0
246059 On ch=2 n=75 v=0
246240 On ch=2 n=78 v=127
246240 On ch=2 n=75 v=127
246299 On ch=2 n=75 v=0
246299 On ch=2 n=78 v=0
246480 On ch=2 n=75 v=127
246480 On ch=2 n=78 v=127
246539 On ch=2 n=78 v=0
246539 On ch=2 n=75 v=0
248280 On ch=2 n=75 v=48
248339 On ch=2 n=75 v=0
248520 On ch=2 n=73 v=48
248579 On ch=2 n=73 v=0
248760 On ch=2 n=77 v=48
248819 On ch=2 n=77 v=0
249000 On ch=2 n=77 v=48
249059 On ch=2 n=77 v=0
249240 On ch=2 n=75 v=48
249299 On ch=2 n=75 v=0
249480 On ch=2 n=72 v=64
250019 On ch=2 n=72 v=0
250020 On ch=2 n=80 v=87
250020 On ch=2 n=72 v=87
250080 On ch=2 n=79 v=92
250080 On ch=2 n=70 v=92
250089 On ch=2 n=72 v=0
250089 On ch=2 n=80 v=0
250140 On ch=2 n=77 v=97
250140 On ch=2 n=68 v=97
250149 On ch=2 n=79 v=0
250149 On ch=2 n=70 v=0
250199 On ch=2 n=77 v=0
250199 On ch=2 n=68 v=0
250200 On ch=2 n=75 v=102
250200 On ch=2 n=67 v=102
250319 On ch=2 n=67 v=0
250319 On ch=2 n=75 v=0
250380 On ch=2 n=75 v=112
250380 On ch=2 n=79 v=112
250409 On ch=2 n=79 v=0
250409 On ch=2 n=75 v=0
250440 On ch=2 n=79 v=117
250440 On ch=2 n=75 v=117
250469 On ch=2 n=75 v=0
250469 On ch=2 n=79 v=0
250500 On ch=2 n=75 v=122
250500 On ch=2 n=79 v=122
250529 On ch=2 n=79 v=0
250529 On ch=2 n=75 v=0
250560 On ch=2 n=74 v=127
250560 On ch=2 n=80 v=127
250919 On ch=2 n=80 v=0
250919 On ch=2 n=74 v=0
250920 On ch=2 n=79 v=96
250920 On ch=2 n=75 v=96
251039 On ch=2 n=75 v=0
251039 On ch=2 n=79 v=0
251280 On ch=2 n=75 v=96
251399 On ch=2 n=75 v=0
251640 On ch=2 n=75 v=96
251759 On ch=2 n=75 v=0
252000 On ch=2 n=80 v=96
252000 On ch=2 n=71 v=96
252059 On ch=2 n=71 v=0
252059 On ch=2 n=80 v=0
252120 On ch=2 n=71 v=96
252120 On ch=2 n=80 v=96
252179 On ch=2 n=80 v=0
252179 On ch=2 n=71 v=0
252240 On ch=2 n=80 v=96
252240 On ch=2 n=71 v=96
252299 On ch=2 n=71 v=0
252299 On ch=2 n=80 v=0
252360 On ch=2 n=70 v=96
252360 On ch=2 n=79 v=96
252479 On ch=2 n=79 v=0
252479 On ch=2 n=70 v=0
254520 On ch=2 n=80 v=96
254520 On ch=2 n=77 v=96
255240 On ch=2 n=73 v=48
255249 On ch=2 n=77 v=0
255249 On ch=2 n=80 v=0
255359 On ch=2 n=73 v=0
255960 On ch=2 n=72 v=127
256019 On ch=2 n=72 v=0
256020 On ch=2 n=72 v=127
256079 On ch=2 n=72 v=0
256080 On ch=2 n=72 v=127
256139 On ch=2 n=72 v=0
256140 On ch=2 n=72 v=127
256199 On ch=2 n=72 v=0
256200 On ch=2 n=76 v=127
256259 On ch=2 n=76 v=0
256260 On ch=2 n=76 v=127
256319 On ch=2 n=76 v=0
256320 On ch=2 n=72 v=127
256379 On ch=2 n=72 v=0
256380 On ch=2 n=72 v=127
256439 On ch=2 n=72 v=0
256440 On ch=2 n=72 v=127
256499 On ch=2 n=72 v=0
256500 On ch=2 n=72 v=127
256559 On ch=2 n=72 v=0
256560 On ch=2 n=67 v=127
256619 On ch=2 n=67 v=0
256620 On ch=2 n=67 v=127
256679 On ch=2 n=67 v=0
256680 On ch=2 n=72 v=48
256799 On ch=2 n=72 v=0
259080 On ch=2 n=67 v=32
259200 On ch=2 n=74 v=32
259209 On ch=2 n=67 v=0
259440 On ch=2 n=77 v=32
259449 On ch=2 n=74 v=0
259559 On ch=2 n=77 v=0
259800 On ch=2 n=67 v=32
259920 On ch=2 n=74 v=32
259929 On ch=2 n=67 v=0
260160 On ch=2 n=77 v=32
260169 On ch=2 n=74 v=0
260279 On ch=2 n=77 v=0
260520 On ch=2 n=79 v=32
260640 On ch=2 n=76 v=32
260649 On ch=2 n=79 v=0
260880 On ch=2 n=72 v=32
260889 On ch=2 n=76 v=0
260999 On ch=2 n=72 v=0
261240 On ch=2 n=80 v=32
261360 On ch=2 n=77 v=32
261369 On ch=2 n=80 v=0
261600 On ch=2 n=72 v=32
261609 On ch=2 n=77 v=0
261719 On ch=2 n=72 v=0
261720 On ch=2 n=82 v=32
261839 On ch=2 n=82 v=0
263280 On ch=2 n=77 v=48
263280 On ch=2 n=72 v=48
263399 On ch=2 n=72 v=0
263400 On ch=2 n=76 v=48
263400 On ch=2 n=72 v=48
263409 On ch=2 n=77 v=0
263519 On ch=2 n=72 v=0
263520 On ch=2 n=77 v=64
263520 On ch=2 n=72 v=64
263529 On ch=2 n=76 v=0
263700 On ch=2 n=79 v=48
263700 On ch=2 n=76 v=48
263709 On ch=2 n=72 v=0
263709 On ch=2 n=77 v=0
263760 On ch=2 n=80 v=48
263760 On ch=2 n=77 v=48
263769 On ch=2 n=79 v=0
263769 On ch=2 n=76 v=0
263879 On ch=2 n=80 v=0
263879 On ch=2 n=77 v=0
263880 On ch=2 n=72 v=48
263880 On ch=2 n=79 v=48
263999 On ch=2 n=79 v=0
264000 On ch=2 n=84 v=48
264000 On ch=2 n=79 v=48
264009 On ch=2 n=72 v=0
264120 On ch=2 n=77 v=48
264120 On ch=2 n=83 v=48
264129 On ch=2 n=79 v=0
264129 On ch=2 n=84 v=0
264240 On ch=2 n=84 v=64
264240 On ch=2 n=76 v=64
264249 On ch=2 n=77 v=0
264249 On ch=2 n=83 v=0
264420 On ch=2 n=82 v=48
264429 On ch=2 n=84 v=0
264480 On ch=2 n=77 v=48
264480 On ch=2 n=80 v=48
264489 On ch=2 n=82 v=0
264489 On ch=2 n=76 v=0
264540 On ch=2 n=72 v=48
264540 On ch=2 n=79 v=48
264549 On ch=2 n=77 v=0
264549 On ch=2 n=80 v=0
264599 On ch=2 n=72 v=0
264599 On ch=2 n=79 v=0
264600 On ch=2 n=77 v=48
264600 On ch=2 n=72 v=48
264719 On ch=2 n=72 v=0
264719 On ch=2 n=77 v=0
264720 On ch=2 n=72 v=48
264720 On ch=2 n=77 v=48
264839 On ch=2 n=72 v=0
264840 On ch=2 n=76 v=48
264840 On ch=2 n=72 v=48
264849 On ch=2 n=77 v=0
264959 On ch=2 n=72 v=0
264960 On ch=2 n=77 v=64
264960 On ch=2 n=72 v=64
264969 On ch=2 n=76 v=0
265140 On ch=2 n=79 v=48
265140 On ch=2 n=76 v=48
265149 On ch=2 n=72 v=0
265149 On ch=2 n=77 v=0
265200 On ch=2 n=80 v=48
265200 On ch=2 n=77 v=48
265209 On ch=2 n=79 v=0
265209 On ch=2 n=76 v=0
265319 On ch=2 n=80 v=0
265319 On ch=2 n=77 v=0
265320 On ch=2 n=80 v=48
265680 On ch=2 n=70 v=48
266040 On ch=2 n=78 v=48
266049 On ch=2 n=80 v=0
266159 On ch=2 n=78 v=0
266159 On ch=2 n=70 v=0
266160 On ch=2 n=70 v=48
266279 On ch=2 n=70 v=0
266280 On ch=2 n=70 v=48
266399 On ch=2 n=70 v=0
266400 On ch=2 n=70 v=64
266639 On ch=2 n=70 v=0
266640 On ch=2 n=70 v=48
266759 On ch=2 n=70 v=0
266760 On ch=2 n=70 v=48
266879 On ch=2 n=70 v=0
267600 On ch=2 n=70 v=48
267719 On ch=2 n=70 v=0
267720 On ch=2 n=70 v=48
267839 On ch=2 n=70 v=0
267840 On ch=2 n=70 v=64
268019 On ch=2 n=70 v=0
268020 On ch=2 n=70 v=48
268079 On ch=2 n=70 v=0
268080 On ch=2 n=70 v=48
268199 On ch=2 n=70 v=0
268200 On ch=2 n=70 v=48
268319 On ch=2 n=70 v=0
271800 On ch=2 n=70 v=32
272400 On ch=2 n=71 v=32
272409 On ch=2 n=70 v=0
272520 On ch=2 n=72 v=32
272529 On ch=2 n=71 v=0
272639 On ch=2 n=72 v=0
276960 On ch=2 n=80 v=48
276960 On ch=2 n=74 v=48
277319 On ch=2 n=74 v=0
277319 On ch=2 n=80 v=0
277320 On ch=2 n=74 v=56
277320 On ch=2 n=80 v=56
277679 On ch=2 n=80 v=0
277679 On ch=2 n=74 v=0
277680 On ch=2 n=74 v=64
277680 On ch=2 n=80 v=64
277799 On ch=2 n=80 v=0
277799 On ch=2 n=74 v=0
277800 On ch=2 n=80 v=60
277800 On ch=2 n=74 v=60
277919 On ch=2 n=74 v=0
277919 On ch=2 n=80 v=0
277920 On ch=2 n=74 v=56
277920 On ch=2 n=80 v=56
278040 On ch=2 n=75 v=52
278049 On ch=2 n=74 v=0
278160 On ch=2 n=77 v=48
278169 On ch=2 n=75 v=0
278279 On ch=2 n=77 v=0
278279 On ch=2 n=80 v=0
278280 On ch=2 n=79 v=48
278280 On ch=2 n=75 v=48
278339 On ch=2 n=75 v=0
278339 On ch=2 n=79 v=0
278520 On ch=2 n=75 v=48
278520 On ch=2 n=79 v=48
278579 On ch=2 n=79 v=0
278579 On ch=2 n=75 v=0
278760 On ch=2 n=79 v=48
278760 On ch=2 n=75 v=48
278819 On ch=2 n=75 v=0
278819 On ch=2 n=79 v=0
279000 On ch=2 n=77 v=48
279000 On ch=2 n=75 v=48
279059 On ch=2 n=75 v=0
279059 On ch=2 n=77 v=0
279240 On ch=2 n=75 v=48
279240 On ch=2 n=77 v=48
279299 On ch=2 n=77 v=0
279299 On ch=2 n=75 v=0
279480 On ch=2 n=77 v=48
279480 On ch=2 n=75 v=48
279539 On ch=2 n=75 v=0
279539 On ch=2 n=77 v=0
279720 On ch=2 n=79 v=48
279720 On ch=2 n=75 v=48
280199 On ch=2 n=75 v=0
280199 On ch=2 n=79 v=0
280200 On ch=2 n=70 v=56
280200 On ch=2 n=75 v=56
280259 On ch=2 n=75 v=0
280259 On ch=2 n=70 v=0
280320 On ch=2 n=75 v=58
280320 On ch=2 n=70 v=58
280379 On ch=2 n=70 v=0
280379 On ch=2 n=75 v=0
280440 On ch=2 n=70 v=60
280440 On ch=2 n=74 v=60
280499 On ch=2 n=74 v=0
280499 On ch=2 n=70 v=0
280560 On ch=2 n=77 v=62
280560 On ch=2 n=74 v=62
280619 On ch=2 n=74 v=0
280619 On ch=2 n=77 v=0
280680 On ch=2 n=74 v=64
280680 On ch=2 n=77 v=64
280739 On ch=2 n=77 v=0
280739 On ch=2 n=74 v=0
280800 On ch=2 n=77 v=48
280800 On ch=2 n=74 v=48
280859 On ch=2 n=74 v=0
280859 On ch=2 n=77 v=0
280920 On ch=2 n=74 v=48
280920 On ch=2 n=77 v=48
280979 On ch=2 n=77 v=0
280979 On ch=2 n=74 v=0
281040 On ch=2 n=77 v=48
281040 On ch=2 n=74 v=48
281099 On ch=2 n=74 v=0
281099 On ch=2 n=77 v=0
281160 On ch=2 n=70 v=48
281160 On ch=2 n=75 v=48
281219 On ch=2 n=75 v=0
281219 On ch=2 n=70 v=0
282240 On ch=2 n=75 v=48
282360 On ch=2 n=79 v=48
282369 On ch=2 n=75 v=0
282479 On ch=2 n=79 v=0
282480 On ch=2 n=82 v=48
282539 On ch=2 n=82 v=0
282600 On ch=2 n=82 v=48
282719 On ch=2 n=82 v=0
283680 On ch=2 n=77 v=48
283800 On ch=2 n=80 v=48
283809 On ch=2 n=77 v=0
283919 On ch=2 n=80 v=0
283920 On ch=2 n=82 v=48
283979 On ch=2 n=82 v=0
284040 On ch=2 n=70 v=48
284040 On ch=2 n=82 v=48
287039 On ch=2 n=82 v=0
287039 On ch=2 n=70 v=0
287880 On ch=2 n=84 v=64
287880 On ch=2 n=72 v=64
287909 On ch=2 n=72 v=0
287909 On ch=2 n=84 v=0
287940 On ch=2 n=82 v=65
287969 On ch=2 n=82 v=0
288000 On ch=2 n=80 v=66
288029 On ch=2 n=80 v=0
288060 On ch=2 n=79 v=67
288089 On ch=2 n=79 v=0
288120 On ch=2 n=77 v=68
288149 On ch=2 n=77 v=0
288180 On ch=2 n=75 v=69
288209 On ch=2 n=75 v=0
288240 On ch=2 n=74 v=70
288269 On ch=2 n=74 v=0
288300 On ch=2 n=72 v=71
288329 On ch=2 n=72 v=0
288360 On ch=2 n=70 v=72
288479 On ch=2 n=70 v=0
288780 On ch=2 n=70 v=79
288810 On ch=2 n=72 v=79
288819 On ch=2 n=70 v=0
288840 On ch=2 n=74 v=80
288849 On ch=2 n=72 v=0
288869 On ch=2 n=74 v=0
288900 On ch=2 n=75 v=81
288929 On ch=2 n=75 v=0
288960 On ch=2 n=77 v=82
288989 On ch=2 n=77 v=0
289020 On ch=2 n=79 v=83
289049 On ch=2 n=79 v=0
289080 On ch=2 n=80 v=100
289109 On ch=2 n=80 v=0
289140 On ch=2 n=79 v=85
289169 On ch=2 n=79 v=0
289200 On ch=2 n=77 v=86
289229 On ch=2 n=77 v=0
289260 On ch=2 n=75 v=87
289289 On ch=2 n=75 v=0
289320 On ch=2 n=74 v=88
289349 On ch=2 n=74 v=0
289380 On ch=2 n=72 v=89
289409 On ch=2 n=72 v=0
289440 On ch=2 n=70 v=90
289469 On ch=2 n=70 v=0
289500 On ch=2 n=72 v=91
289529 On ch=2 n=72 v=0
289560 On ch=2 n=70 v=92
289589 On ch=2 n=70 v=0
289620 On ch=2 n=80 v=93
289620 On ch=2 n=68 v=93
289649 On ch=2 n=68 v=0
289649 On ch=2 n=80 v=0
289680 On ch=2 n=79 v=94
289680 On ch=2 n=67 v=94
289709 On ch=2 n=67 v=0
289709 On ch=2 n=79 v=0
289740 On ch=2 n=77 v=95
289740 On ch=2 n=65 v=95
289769 On ch=2 n=65 v=0
289769 On ch=2 n=77 v=0
289800 On ch=2 n=75 v=96
289800 On ch=2 n=63 v=96
289859 On ch=2 n=63 v=0
289859 On ch=2 n=75 v=0
289860 On ch=2 n=75 v=96
289919 On ch=2 n=75 v=0
289920 On ch=2 n=75 v=96
289979 On ch=2 n=75 v=0
289980 On ch=2 n=75 v=96
290039 On ch=2 n=75 v=0
290040 On ch=2 n=79 v=96
290099 On ch=2 n=79 v=0
290100 On ch=2 n=79 v=96
290159 On ch=2 n=79 v=0
290160 On ch=2 n=75 v=96
290219 On ch=2 n=75 v=0
290220 On ch=2 n=75 v=96
290279 On ch=2 n=75 v=0
290280 On ch=2 n=75 v=96
290339 On ch=2 n=75 v=0
290340 On ch=2 n=75 v=96
290399 On ch=2 n=75 v=0
290400 On ch=2 n=70 v=96
290459 On ch=2 n=70 v=0
290460 On ch=2 n=70 v=96
290519 On ch=2 n=70 v=0
290520 On ch=2 n=75 v=96
290579 On ch=2 n=75 v=0
290580 On ch=2 n=75 v=96
290639 On ch=2 n=75 v=0
290640 On ch=2 n=79 v=96
290699 On ch=2 n=79 v=0
290700 On ch=2 n=79 v=96
290759 On ch=2 n=79 v=0
290760 On ch=2 n=82 v=96
290819 On ch=2 n=82 v=0
290820 On ch=2 n=82 v=96
290879 On ch=2 n=82 v=0
290880 On ch=2 n=82 v=96
290939 On ch=2 n=82 v=0
290940 On ch=2 n=82 v=96
290999 On ch=2 n=82 v=0
291000 On ch=2 n=82 v=96
291059 On ch=2 n=82 v=0
291060 On ch=2 n=82 v=96
291119 On ch=2 n=82 v=0
291120 On ch=2 n=82 v=96
291179 On ch=2 n=82 v=0
291180 On ch=2 n=82 v=96
291239 On ch=2 n=82 v=0
291240 On ch=2 n=77 v=96
291299 On ch=2 n=77 v=0
291300 On ch=2 n=77 v=96
291359 On ch=2 n=77 v=0
291360 On ch=2 n=77 v=96
291419 On ch=2 n=77 v=0
291420 On ch=2 n=77 v=96
291479 On ch=2 n=77 v=0
291480 On ch=2 n=80 v=96
291539 On ch=2 n=80 v=0
291540 On ch=2 n=80 v=96
291599 On ch=2 n=80 v=0
291600 On ch=2 n=77 v=96
291659 On ch=2 n=77 v=0
291660 On ch=2 n=77 v=96
291719 On ch=2 n=77 v=0
291720 On ch=2 n=77 v=96
291779 On ch=2 n=77 v=0
291780 On ch=2 n=77 v=96
291839 On ch=2 n=77 v=0
291840 On ch=2 n=70 v=96
291899 On ch=2 n=70 v=0
291900 On ch=2 n=70 v=96
291959 On ch=2 n=70 v=0
291960 On ch=2 n=77 v=96
292019 On ch=2 n=77 v=0
292020 On ch=2 n=77 v=96
292079 On ch=2 n=77 v=0
292080 On ch=2 n=80 v=96
292139 On ch=2 n=80 v=0
292140 On ch=2 n=80 v=96
292199 On ch=2 n=80 v=0
292200 On ch=2 n=82 v=96
292259 On ch=2 n=82 v=0
292260 On ch=2 n=82 v=96
292319 On ch=2 n=82 v=0
292320 On ch=2 n=82 v=96
292379 On ch=2 n=82 v=0
292380 On ch=2 n=82 v=96
292439 On ch=2 n=82 v=0
292440 On ch=2 n=82 v=96
292499 On ch=2 n=82 v=0
292500 On ch=2 n=82 v=96
292559 On ch=2 n=82 v=0
292560 On ch=2 n=82 v=96
292619 On ch=2 n=82 v=0
292620 On ch=2 n=82 v=96
292679 On ch=2 n=82 v=0
292680 On ch=2 n=82 v=96
292739 On ch=2 n=82 v=0
292740 On ch=2 n=82 v=96
292799 On ch=2 n=82 v=0
292800 On ch=2 n=76 v=96
292800 On ch=2 n=82 v=96
292859 On ch=2 n=82 v=0
292859 On ch=2 n=76 v=0
292860 On ch=2 n=76 v=96
292860 On ch=2 n=82 v=96
292919 On ch=2 n=82 v=0
292919 On ch=2 n=76 v=0
292920 On ch=2 n=76 v=96
292920 On ch=2 n=82 v=96
292979 On ch=2 n=82 v=0
292979 On ch=2 n=76 v=0
292980 On ch=2 n=76 v=96
292980 On ch=2 n=82 v=96
293039 On ch=2 n=82 v=0
293039 On ch=2 n=76 v=0
293040 On ch=2 n=82 v=96
293040 On ch=2 n=76 v=96
293399 On ch=2 n=76 v=0
293399 On ch=2 n=82 v=0
293400 On ch=2 n=72 v=96
293400 On ch=2 n=84 v=96
293519 On ch=2 n=84 v=0
293519 On ch=2 n=72 v=0
293520 On ch=2 n=84 v=96
293520 On ch=2 n=77 v=96
293759 On ch=2 n=77 v=0
293759 On ch=2 n=84 v=0
293880 On ch=2 n=75 v=96
293880 On ch=2 n=84 v=96
294119 On ch=2 n=84 v=0
294119 On ch=2 n=75 v=0
294240 On ch=2 n=79 v=96
294240 On ch=2 n=75 v=96
294479 On ch=2 n=75 v=0
294479 On ch=2 n=79 v=0
294600 On ch=2 n=80 v=96
294600 On ch=2 n=74 v=96
294839 On ch=2 n=74 v=0
294839 On ch=2 n=80 v=0
294960 On ch=2 n=79 v=96
294960 On ch=2 n=75 v=96
295199 On ch=2 n=75 v=0
295199 On ch=2 n=79 v=0
295320 On ch=2 n=84 v=96
295320 On ch=2 n=75 v=96
295559 On ch=2 n=75 v=0
295559 On ch=2 n=84 v=0
295560 On ch=2 n=79 v=127
295560 On ch=2 n=75 v=127
295919 On ch=2 n=75 v=0
295919 On ch=2 n=79 v=0
295920 On ch=2 n=80 v=127
295920 On ch=2 n=74 v=127
296159 On ch=2 n=80 v=0
296160 On ch=2 n=77 v=127
296279 On ch=2 n=77 v=0
296279 On ch=2 n=74 v=0
296280 On ch=2 n=67 v=48
296280 On ch=2 n=75 v=48
296399 On ch=2 n=67 v=0
297000 On ch=2 n=70 v=48
297240 On ch=2 n=77 v=48
297240 On ch=2 n=74 v=48
297249 On ch=2 n=70 v=0
297249 On ch=2 n=75 v=0
297300 On ch=2 n=79 v=48
297300 On ch=2 n=75 v=48
297309 On ch=2 n=77 v=0
297309 On ch=2 n=74 v=0
297360 On ch=2 n=80 v=48
297360 On ch=2 n=77 v=48
297369 On ch=2 n=79 v=0
297369 On ch=2 n=75 v=0
297449 On ch=2 n=80 v=0
297449 On ch=2 n=77 v=0
297480 On ch=2 n=80 v=48
297480 On ch=2 n=77 v=48
297569 On ch=2 n=77 v=0
297569 On ch=2 n=80 v=0
297600 On ch=2 n=80 v=48
297600 On ch=2 n=77 v=48
297689 On ch=2 n=77 v=0
297689 On ch=2 n=80 v=0
297720 On ch=2 n=79 v=48
297720 On ch=2 n=75 v=48
297839 On ch=2 n=75 v=0
297839 On ch=2 n=79 v=0
298620 On ch=2 n=70 v=78
298620 On ch=2 n=75 v=78
298649 On ch=2 n=75 v=0
298649 On ch=2 n=70 v=0
298680 On ch=2 n=77 v=80
298680 On ch=2 n=74 v=80
298709 On ch=2 n=74 v=0
298709 On ch=2 n=77 v=0
298740 On ch=2 n=79 v=82
298740 On ch=2 n=75 v=82
298769 On ch=2 n=75 v=0
298769 On ch=2 n=79 v=0
298800 On ch=2 n=77 v=84
298800 On ch=2 n=80 v=84
298829 On ch=2 n=80 v=0
298829 On ch=2 n=77 v=0
298860 On ch=2 n=77 v=86
298860 On ch=2 n=80 v=86
298889 On ch=2 n=80 v=0
298889 On ch=2 n=77 v=0
298920 On ch=2 n=77 v=88
298920 On ch=2 n=80 v=88
298949 On ch=2 n=80 v=0
298949 On ch=2 n=77 v=0
298980 On ch=2 n=77 v=90
298980 On ch=2 n=80 v=90
299009 On ch=2 n=80 v=0
299009 On ch=2 n=77 v=0
299040 On ch=2 n=77 v=92
299040 On ch=2 n=80 v=92
299069 On ch=2 n=80 v=0
299069 On ch=2 n=77 v=0
299100 On ch=2 n=77 v=94
299100 On ch=2 n=80 v=94
299129 On ch=2 n=80 v=0
299129 On ch=2 n=77 v=0
299160 On ch=2 n=77 v=96
299160 On ch=2 n=80 v=96
299279 On ch=2 n=80 v=0
299279 On ch=2 n=77 v=0
299280 On ch=2 n=68 v=96
299280 On ch=2 n=74 v=96
299639 On ch=2 n=74 v=0
299639 On ch=2 n=68 v=0
299640 On ch=2 n=77 v=96
299640 On ch=2 n=74 v=96
299999 On ch=2 n=74 v=0
299999 On ch=2 n=77 v=0
300000 On ch=2 n=77 v=96
300000 On ch=2 n=80 v=96
300239 On ch=2 n=80 v=0
300239 On ch=2 n=77 v=0
300240 On ch=2 n=80 v=96
300240 On ch=2 n=77 v=96
300479 On ch=2 n=77 v=0
300479 On ch=2 n=80 v=0
300480 On ch=2 n=77 v=96
300480 On ch=2 n=80 v=96
300539 On ch=2 n=80 v=0
300539 On ch=2 n=77 v=0
300600 On ch=2 n=80 v=96
300600 On ch=2 n=77 v=96
300659 On ch=2 n=77 v=0
300659 On ch=2 n=80 v=0
300720 On ch=2 n=74 v=127
300720 On ch=2 n=80 v=127
300779 On ch=2 n=80 v=0
300779 On ch=2 n=74 v=0
300840 On ch=2 n=74 v=127
300840 On ch=2 n=80 v=127
300899 On ch=2 n=80 v=0
300899 On ch=2 n=74 v=0
300960 On ch=2 n=74 v=127
300960 On ch=2 n=80 v=127
301019 On ch=2 n=80 v=0
301019 On ch=2 n=74 v=0
301080 On ch=2 n=74 v=127
301080 On ch=2 n=80 v=127
301139 On ch=2 n=80 v=0
301139 On ch=2 n=74 v=0
301200 On ch=2 n=74 v=127
301200 On ch=2 n=80 v=127
301259 On ch=2 n=80 v=0
301259 On ch=2 n=74 v=0
301320 On ch=2 n=74 v=127
301320 On ch=2 n=80 v=127
301379 On ch=2 n=80 v=0
301379 On ch=2 n=74 v=0
301440 On ch=2 n=74 v=127
301440 On ch=2 n=80 v=127
301499 On ch=2 n=80 v=0
301499 On ch=2 n=74 v=0
301560 On ch=2 n=74 v=127
301560 On ch=2 n=80 v=127
301619 On ch=2 n=80 v=0
301619 On ch=2 n=74 v=0
301680 On ch=2 n=74 v=127
301680 On ch=2 n=80 v=127
301739 On ch=2 n=80 v=0
301739 On ch=2 n=74 v=0
301800 On ch=2 n=74 v=127
301800 On ch=2 n=80 v=127
301859 On ch=2 n=80 v=0
301859 On ch=2 n=74 v=0
301920 On ch=2 n=74 v=127
301920 On ch=2 n=80 v=127
301979 On ch=2 n=80 v=0
301979 On ch=2 n=74 v=0
302040 On ch=2 n=75 v=127
302040 On ch=2 n=79 v=127
302159 On ch=2 n=79 v=0
302159 On ch=2 n=75 v=0
302400 On ch=2 n=75 v=127
302519 On ch=2 n=75 v=0
302760 On ch=2 n=75 v=127
302879 On ch=2 n=75 v=0
0 PrCh ch=3 p=71
0 Par ch=3 c=7 v=127
0 Par ch=3 c=10 v=59
0 Par ch=3 c=93 v=0
0 Par ch=3 c=91 v=0
0 On ch=3 n=67 v=96
0 On ch=3 n=75 v=96
59 On ch=3 n=75 v=0
59 On ch=3 n=67 v=0
360 On ch=3 n=75 v=96
360 On ch=3 n=67 v=96
419 On ch=3 n=67 v=0
419 On ch=3 n=75 v=0
4560 On ch=3 n=70 v=48
4800 On ch=3 n=72 v=48
4809 On ch=3 n=70 v=0
4920 On ch=3 n=74 v=56
4929 On ch=3 n=72 v=0
5039 On ch=3 n=74 v=0
5040 On ch=3 n=75 v=48
5280 On ch=3 n=79 v=48
5289 On ch=3 n=75 v=0
5400 On ch=3 n=75 v=48
5409 On ch=3 n=79 v=0
5640 On ch=3 n=70 v=48
5649 On ch=3 n=75 v=0
5759 On ch=3 n=70 v=0
5760 On ch=3 n=75 v=48
5880 On ch=3 n=79 v=48
5889 On ch=3 n=75 v=0
6000 On ch=3 n=82 v=48
6009 On ch=3 n=79 v=0
6120 On ch=3 n=75 v=48
6129 On ch=3 n=82 v=0
6239 On ch=3 n=75 v=0
7080 On ch=3 n=67 v=48
7200 On ch=3 n=68 v=48
7209 On ch=3 n=67 v=0
7320 On ch=3 n=72 v=48
7329 On ch=3 n=68 v=0
7440 On ch=3 n=75 v=48
7449 On ch=3 n=72 v=0
7559 On ch=3 n=75 v=0
7560 On ch=3 n=68 v=48
7680 On ch=3 n=63 v=48
7799 On ch=3 n=63 v=0
7800 On ch=3 n=69 v=64
7800 On ch=3 n=63 v=64
7809 On ch=3 n=68 v=0
7919 On ch=3 n=63 v=0
7920 On ch=3 n=70 v=96
7929 On ch=3 n=69 v=0
7949 On ch=3 n=70 v=0
7950 On ch=3 n=70 v=48
8159 On ch=3 n=70 v=0
8160 On ch=3 n=77 v=48
8160 On ch=3 n=65 v=48
8280 On ch=3 n=62 v=48
8280 On ch=3 n=74 v=48
8289 On ch=3 n=65 v=0
8289 On ch=3 n=77 v=0
8400 On ch=3 n=58 v=48
8400 On ch=3 n=70 v=48
8409 On ch=3 n=62 v=0
8409 On ch=3 n=74 v=0
8520 On ch=3 n=68 v=48
8520 On ch=3 n=77 v=48
8529 On ch=3 n=58 v=0
8529 On ch=3 n=70 v=0
8639 On ch=3 n=68 v=0
8639 On ch=3 n=77 v=0
8640 On ch=3 n=67 v=48
8640 On ch=3 n=75 v=48
8699 On ch=3 n=75 v=0
8699 On ch=3 n=67 v=0
8760 On ch=3 n=75 v=96
8760 On ch=3 n=66 v=96
8999 On ch=3 n=66 v=0
8999 On ch=3 n=75 v=0
9000 On ch=3 n=75 v=96
9000 On ch=3 n=66 v=96
9239 On ch=3 n=66 v=0
9239 On ch=3 n=75 v=0
9240 On ch=3 n=75 v=96
9240 On ch=3 n=66 v=96
9359 On ch=3 n=66 v=0
9359 On ch=3 n=75 v=0
9360 On ch=3 n=65 v=96
9360 On ch=3 n=74 v=96
9419 On ch=3 n=74 v=0
9419 On ch=3 n=65 v=0
9480 On ch=3 n=70 v=48
9480 On ch=3 n=82 v=48
9600 On ch=3 n=65 v=48
9600 On ch=3 n=77 v=48
9609 On ch=3 n=82 v=0
9609 On ch=3 n=70 v=0
9720 On ch=3 n=74 v=48
9720 On ch=3 n=62 v=48
9729 On ch=3 n=65 v=0
9729 On ch=3 n=77 v=0
9840 On ch=3 n=58 v=48
9840 On ch=3 n=70 v=48
9849 On ch=3 n=74 v=0
9849 On ch=3 n=62 v=0
9959 On ch=3 n=58 v=0
9959 On ch=3 n=70 v=0
9960 On ch=3 n=70 v=96
9960 On ch=3 n=65 v=96
10199 On ch=3 n=65 v=0
10199 On ch=3 n=70 v=0
10200 On ch=3 n=65 v=96
10200 On ch=3 n=74 v=96
10439 On ch=3 n=74 v=0
10439 On ch=3 n=65 v=0
10440 On ch=3 n=74 v=96
10440 On ch=3 n=65 v=96
10679 On ch=3 n=65 v=0
10679 On ch=3 n=74 v=0
10680 On ch=3 n=74 v=96
10680 On ch=3 n=65 v=96
10919 On ch=3 n=65 v=0
10919 On ch=3 n=74 v=0
10920 On ch=3 n=67 v=96
10920 On ch=3 n=75 v=96
11159 On ch=3 n=75 v=0
11159 On ch=3 n=67 v=0
11160 On ch=3 n=75 v=96
11160 On ch=3 n=67 v=96
11399 On ch=3 n=67 v=0
11399 On ch=3 n=75 v=0
11400 On ch=3 n=67 v=96
11400 On ch=3 n=75 v=96
11639 On ch=3 n=75 v=0
11639 On ch=3 n=67 v=0
11640 On ch=3 n=74 v=90
11640 On ch=3 n=65 v=90
11699 On ch=3 n=65 v=0
11699 On ch=3 n=74 v=0
11760 On ch=3 n=65 v=96
11760 On ch=3 n=74 v=96
11880 On ch=3 n=70 v=90
11889 On ch=3 n=65 v=0
11999 On ch=3 n=70 v=0
11999 On ch=3 n=74 v=0
12000 On ch=3 n=75 v=90
12000 On ch=3 n=70 v=90
12059 On ch=3 n=70 v=0
12059 On ch=3 n=75 v=0
12120 On ch=3 n=70 v=96
12120 On ch=3 n=75 v=96
12240 On ch=3 n=74 v=96
12249 On ch=3 n=75 v=0
12359 On ch=3 n=74 v=0
12359 On ch=3 n=70 v=0
12360 On ch=3 n=58 v=96
12389 On ch=3 n=58 v=0
12420 On ch=3 n=60 v=98
12449 On ch=3 n=60 v=0
12480 On ch=3 n=62 v=101
12509 On ch=3 n=62 v=0
12540 On ch=3 n=63 v=104
12569 On ch=3 n=63 v=0
12600 On ch=3 n=65 v=106
12629 On ch=3 n=65 v=0
12660 On ch=3 n=67 v=109
12689 On ch=3 n=67 v=0
12720 On ch=3 n=68 v=112
12749 On ch=3 n=68 v=0
12780 On ch=3 n=70 v=115
12809 On ch=3 n=70 v=0
12840 On ch=3 n=72 v=118
12869 On ch=3 n=72 v=0
12900 On ch=3 n=74 v=121
12929 On ch=3 n=74 v=0
12960 On ch=3 n=75 v=127
13200 On ch=3 n=79 v=127
13209 On ch=3 n=75 v=0
13320 On ch=3 n=75 v=127
13329 On ch=3 n=79 v=0
13560 On ch=3 n=70 v=127
13569 On ch=3 n=75 v=0
13680 On ch=3 n=75 v=127
13689 On ch=3 n=70 v=0
13800 On ch=3 n=79 v=127
13809 On ch=3 n=75 v=0
13920 On ch=3 n=82 v=127
13929 On ch=3 n=79 v=0
14040 On ch=3 n=75 v=127
14049 On ch=3 n=82 v=0
14279 On ch=3 n=75 v=0
14280 On ch=3 n=79 v=127
14280 On ch=3 n=75 v=127
14519 On ch=3 n=75 v=0
14519 On ch=3 n=79 v=0
14520 On ch=3 n=75 v=127
14520 On ch=3 n=79 v=127
14639 On ch=3 n=79 v=0
14639 On ch=3 n=75 v=0
14640 On ch=3 n=79 v=127
14640 On ch=3 n=75 v=127
14759 On ch=3 n=75 v=0
14759 On ch=3 n=79 v=0
14760 On ch=3 n=75 v=127
14760 On ch=3 n=79 v=127
14999 On ch=3 n=75 v=0
15000 On ch=3 n=73 v=127
15119 On ch=3 n=73 v=0
15119 On ch=3 n=79 v=0
15120 On ch=3 n=80 v=127
15120 On ch=3 n=72 v=127
15240 On ch=3 n=75 v=127
15249 On ch=3 n=80 v=0
15359 On ch=3 n=75 v=0
15360 On ch=3 n=75 v=127
15479 On ch=3 n=75 v=0
15480 On ch=3 n=76 v=127
15540 On ch=3 n=70 v=127
15549 On ch=3 n=72 v=0
15600 On ch=3 n=69 v=127
15609 On ch=3 n=70 v=0
15660 On ch=3 n=70 v=127
15669 On ch=3 n=69 v=0
15720 On ch=3 n=72 v=127
15729 On ch=3 n=70 v=0
15780 On ch=3 n=70 v=127
15789 On ch=3 n=72 v=0
15839 On ch=3 n=76 v=0
15840 On ch=3 n=69 v=127
15849 On ch=3 n=70 v=0
15959 On ch=3 n=69 v=0
16320 On ch=3 n=77 v=48
16500 On ch=3 n=75 v=48
16509 On ch=3 n=77 v=0
16560 On ch=3 n=72 v=48
16569 On ch=3 n=75 v=0
16679 On ch=3 n=72 v=0
17760 On ch=3 n=77 v=48
17940 On ch=3 n=74 v=48
17949 On ch=3 n=77 v=0
18000 On ch=3 n=70 v=48
18009 On ch=3 n=74 v=0
18119 On ch=3 n=70 v=0
19200 On ch=3 n=78 v=64
19380 On ch=3 n=77 v=56
19389 On ch=3 n=78 v=0
19440 On ch=3 n=75 v=56
19449 On ch=3 n=77 v=0
19559 On ch=3 n=75 v=0
19560 On ch=3 n=67 v=127
19560 On ch=3 n=79 v=127
19739 On ch=3 n=79 v=0
19739 On ch=3 n=67 v=0
19740 On ch=3 n=77 v=127
19740 On ch=3 n=65 v=127
19799 On ch=3 n=65 v=0
19799 On ch=3 n=77 v=0
19800 On ch=3 n=63 v=127
19800 On ch=3 n=75 v=127
19859 On ch=3 n=75 v=0
19859 On ch=3 n=63 v=0
19920 On ch=3 n=74 v=127
19920 On ch=3 n=62 v=127
19979 On ch=3 n=62 v=0
19979 On ch=3 n=74 v=0
20040 On ch=3 n=72 v=127
20040 On ch=3 n=60 v=127
20099 On ch=3 n=60 v=0
20099 On ch=3 n=72 v=0
20160 On ch=3 n=62 v=48
20160 On ch=3 n=58 v=48
20400 On ch=3 n=60 v=60
20400 On ch=3 n=63 v=60
20409 On ch=3 n=58 v=0
20409 On ch=3 n=62 v=0
20460 On ch=3 n=65 v=62
20460 On ch=3 n=62 v=62
20469 On ch=3 n=60 v=0
20469 On ch=3 n=63 v=0
20520 On ch=3 n=63 v=64
20520 On ch=3 n=67 v=64
20529 On ch=3 n=65 v=0
20529 On ch=3 n=62 v=0
20640 On ch=3 n=69 v=56
20640 On ch=3 n=65 v=56
20649 On ch=3 n=63 v=0
20649 On ch=3 n=67 v=0
20760 On ch=3 n=67 v=52
20760 On ch=3 n=70 v=52
20769 On ch=3 n=69 v=0
20769 On ch=3 n=65 v=0
20879 On ch=3 n=67 v=0
20879 On ch=3 n=70 v=0
20880 On ch=3 n=65 v=48
20880 On ch=3 n=70 v=48
21059 On ch=3 n=70 v=0
21059 On ch=3 n=65 v=0
21060 On ch=3 n=53 v=48
21060 On ch=3 n=58 v=48
21120 On ch=3 n=60 v=48
21120 On ch=3 n=57 v=48
21129 On ch=3 n=58 v=0
21129 On ch=3 n=53 v=0
21180 On ch=3 n=58 v=48
21180 On ch=3 n=62 v=48
21189 On ch=3 n=60 v=0
21189 On ch=3 n=57 v=0
21239 On ch=3 n=58 v=0
21239 On ch=3 n=62 v=0
21240 On ch=3 n=63 v=48
21240 On ch=3 n=60 v=48
21329 On ch=3 n=60 v=0
21329 On ch=3 n=63 v=0
21360 On ch=3 n=60 v=48
21360 On ch=3 n=63 v=48
21449 On ch=3 n=63 v=0
21449 On ch=3 n=60 v=0
21480 On ch=3 n=63 v=48
21480 On ch=3 n=60 v=48
21569 On ch=3 n=60 v=0
21569 On ch=3 n=63 v=0
21600 On ch=3 n=62 v=48
21600 On ch=3 n=58 v=48
21719 On ch=3 n=58 v=0
21719 On ch=3 n=62 v=0
23040 On ch=3 n=75 v=96
23040 On ch=3 n=69 v=96
23099 On ch=3 n=69 v=0
23099 On ch=3 n=75 v=0
23160 On ch=3 n=75 v=96
23160 On ch=3 n=69 v=96
23219 On ch=3 n=69 v=0
23219 On ch=3 n=75 v=0
23700 On ch=3 n=69 v=96
23700 On ch=3 n=72 v=96
23729 On ch=3 n=72 v=0
23729 On ch=3 n=69 v=0
23760 On ch=3 n=70 v=96
23819 On ch=3 n=70 v=0
23880 On ch=3 n=70 v=96
23939 On ch=3 n=70 v=0
24420 On ch=3 n=74 v=96
24420 On ch=3 n=70 v=96
24449 On ch=3 n=70 v=0
24449 On ch=3 n=74 v=0
24480 On ch=3 n=71 v=96
24480 On ch=3 n=74 v=96
24539 On ch=3 n=74 v=0
24539 On ch=3 n=71 v=0
24600 On ch=3 n=74 v=96
24600 On ch=3 n=71 v=96
24659 On ch=3 n=71 v=0
24659 On ch=3 n=74 v=0
25320 On ch=3 n=72 v=96
25440 On ch=3 n=74 v=96
25559 On ch=3 n=72 v=0
25560 On ch=3 n=70 v=96
25619 On ch=3 n=74 v=0
25620 On ch=3 n=75 v=96
25679 On ch=3 n=75 v=0
25679 On ch=3 n=70 v=0
25680 On ch=3 n=75 v=96
25800 On ch=3 n=77 v=96
25919 On ch=3 n=77 v=0
25919 On ch=3 n=75 v=0
25920 On ch=3 n=74 v=96
25920 On ch=3 n=77 v=96
26039 On ch=3 n=77 v=0
26039 On ch=3 n=74 v=0
26520 On ch=3 n=70 v=96
26520 On ch=3 n=78 v=96
26640 On ch=3 n=79 v=96
26649 On ch=3 n=78 v=0
26700 On ch=3 n=78 v=96
26709 On ch=3 n=79 v=0
26760 On ch=3 n=79 v=96
26769 On ch=3 n=78 v=0
26820 On ch=3 n=78 v=96
26829 On ch=3 n=79 v=0
26880 On ch=3 n=71 v=96
26880 On ch=3 n=79 v=96
26889 On ch=3 n=78 v=0
26889 On ch=3 n=70 v=0
26940 On ch=3 n=74 v=96
26949 On ch=3 n=79 v=0
26999 On ch=3 n=74 v=0
26999 On ch=3 n=71 v=0
27000 On ch=3 n=72 v=96
27000 On ch=3 n=75 v=96
27059 On ch=3 n=72 v=0
27060 On ch=3 n=67 v=96
27060 On ch=3 n=74 v=96
27069 On ch=3 n=75 v=0
27120 On ch=3 n=77 v=96
27129 On ch=3 n=74 v=0
27179 On ch=3 n=67 v=0
27180 On ch=3 n=67 v=96
27180 On ch=3 n=75 v=96
27189 On ch=3 n=77 v=0
27240 On ch=3 n=65 v=96
27240 On ch=3 n=74 v=96
27249 On ch=3 n=75 v=0
27249 On ch=3 n=67 v=0
27300 On ch=3 n=63 v=96
27300 On ch=3 n=72 v=96
27309 On ch=3 n=65 v=0
27309 On ch=3 n=74 v=0
27359 On ch=3 n=72 v=0
27360 On ch=3 n=62 v=96
27360 On ch=3 n=70 v=96
27369 On ch=3 n=63 v=0
27479 On ch=3 n=70 v=0
27479 On ch=3 n=62 v=0
29640 On ch=3 n=74 v=48
29640 On ch=3 n=65 v=48
29729 On ch=3 n=65 v=0
29729 On ch=3 n=74 v=0
29760 On ch=3 n=65 v=48
29760 On ch=3 n=74 v=48
29849 On ch=3 n=74 v=0
29849 On ch=3 n=65 v=0
29880 On ch=3 n=74 v=56
29880 On ch=3 n=65 v=56
29969 On ch=3 n=65 v=0
29969 On ch=3 n=74 v=0
30000 On ch=3 n=65 v=64
30000 On ch=3 n=74 v=64
30089 On ch=3 n=74 v=0
30089 On ch=3 n=65 v=0
30120 On ch=3 n=65 v=72
30120 On ch=3 n=74 v=72
30209 On ch=3 n=74 v=0
30209 On ch=3 n=65 v=0
30240 On ch=3 n=74 v=80
30240 On ch=3 n=65 v=80
30329 On ch=3 n=65 v=0
30329 On ch=3 n=74 v=0
30360 On ch=3 n=65 v=88
30360 On ch=3 n=74 v=88
30449 On ch=3 n=74 v=0
30449 On ch=3 n=65 v=0
30480 On ch=3 n=74 v=88
30480 On ch=3 n=66 v=88
30569 On ch=3 n=66 v=0
30569 On ch=3 n=74 v=0
30600 On ch=3 n=67 v=96
30600 On ch=3 n=74 v=96
30840 On ch=3 n=72 v=64
30849 On ch=3 n=74 v=0
30959 On ch=3 n=72 v=0
30959 On ch=3 n=67 v=0
32520 On ch=3 n=73 v=48
32520 On ch=3 n=65 v=48
32609 On ch=3 n=65 v=0
32609 On ch=3 n=73 v=0
32640 On ch=3 n=65 v=48
32640 On ch=3 n=73 v=48
32729 On ch=3 n=73 v=0
32729 On ch=3 n=65 v=0
32760 On ch=3 n=73 v=56
32760 On ch=3 n=65 v=56
32849 On ch=3 n=65 v=0
32849 On ch=3 n=73 v=0
32880 On ch=3 n=66 v=64
32880 On ch=3 n=73 v=64
32969 On ch=3 n=73 v=0
32969 On ch=3 n=66 v=0
33000 On ch=3 n=73 v=72
33000 On ch=3 n=66 v=72
33089 On ch=3 n=66 v=0
33089 On ch=3 n=73 v=0
33120 On ch=3 n=73 v=80
33120 On ch=3 n=66 v=80
33209 On ch=3 n=66 v=0
33209 On ch=3 n=73 v=0
33240 On ch=3 n=66 v=88
33240 On ch=3 n=73 v=88
33329 On ch=3 n=73 v=0
33329 On ch=3 n=66 v=0
33360 On ch=3 n=73 v=88
33360 On ch=3 n=66 v=88
33449 On ch=3 n=66 v=0
33449 On ch=3 n=73 v=0
33480 On ch=3 n=66 v=96
33480 On ch=3 n=73 v=96
33720 On ch=3 n=72 v=64
33729 On ch=3 n=73 v=0
33839 On ch=3 n=72 v=0
33839 On ch=3 n=66 v=0
35040 On ch=3 n=72 v=56
35040 On ch=3 n=70 v=56
35129 On ch=3 n=70 v=0
35129 On ch=3 n=72 v=0
35160 On ch=3 n=72 v=56
35160 On ch=3 n=70 v=56
35249 On ch=3 n=70 v=0
35249 On ch=3 n=72 v=0
35280 On ch=3 n=72 v=48
35280 On ch=3 n=69 v=48
35399 On ch=3 n=69 v=0
35399 On ch=3 n=72 v=0
38400 On ch=3 n=63 v=75
38400 On ch=3 n=60 v=75
38429 On ch=3 n=60 v=0
38429 On ch=3 n=63 v=0
38460 On ch=3 n=65 v=78
38460 On ch=3 n=62 v=78
38489 On ch=3 n=62 v=0
38489 On ch=3 n=65 v=0
38520 On ch=3 n=67 v=80
38520 On ch=3 n=63 v=80
38549 On ch=3 n=63 v=0
38549 On ch=3 n=67 v=0
38580 On ch=3 n=69 v=83
38580 On ch=3 n=65 v=83
38609 On ch=3 n=65 v=0
38609 On ch=3 n=69 v=0
38640 On ch=3 n=70 v=86
38640 On ch=3 n=67 v=86
38669 On ch=3 n=67 v=0
38669 On ch=3 n=70 v=0
38700 On ch=3 n=72 v=89
38700 On ch=3 n=69 v=89
38729 On ch=3 n=69 v=0
38729 On ch=3 n=72 v=0
38760 On ch=3 n=74 v=92
38760 On ch=3 n=70 v=92
38789 On ch=3 n=70 v=0
38789 On ch=3 n=74 v=0
38820 On ch=3 n=75 v=94
38820 On ch=3 n=72 v=94
38849 On ch=3 n=72 v=0
38849 On ch=3 n=75 v=0
38880 On ch=3 n=77 v=96
38880 On ch=3 n=74 v=96
38999 On ch=3 n=74 v=0
38999 On ch=3 n=77 v=0
39000 On ch=3 n=70 v=112
39000 On ch=3 n=65 v=112
39239 On ch=3 n=65 v=0
39239 On ch=3 n=70 v=0
39360 On ch=3 n=65 v=112
39360 On ch=3 n=70 v=112
39599 On ch=3 n=70 v=0
39599 On ch=3 n=65 v=0
39720 On ch=3 n=72 v=112
39720 On ch=3 n=65 v=112
39959 On ch=3 n=65 v=0
39959 On ch=3 n=72 v=0
40080 On ch=3 n=65 v=112
40080 On ch=3 n=72 v=112
40199 On ch=3 n=72 v=0
40199 On ch=3 n=65 v=0
40200 On ch=3 n=72 v=96
40200 On ch=3 n=65 v=96
40319 On ch=3 n=65 v=0
40319 On ch=3 n=72 v=0
40320 On ch=3 n=65 v=127
40320 On ch=3 n=74 v=127
40379 On ch=3 n=74 v=0
40379 On ch=3 n=65 v=0
40440 On ch=3 n=77 v=127
40619 On ch=3 n=77 v=0
40620 On ch=3 n=74 v=127
40679 On ch=3 n=74 v=0
40680 On ch=3 n=70 v=127
40739 On ch=3 n=70 v=0
40800 On ch=3 n=74 v=127
40979 On ch=3 n=74 v=0
40980 On ch=3 n=65 v=127
41039 On ch=3 n=65 v=0
41040 On ch=3 n=72 v=127
41099 On ch=3 n=72 v=0
41160 On ch=3 n=75 v=127
41339 On ch=3 n=75 v=0
41340 On ch=3 n=65 v=127
41399 On ch=3 n=65 v=0
41400 On ch=3 n=69 v=127
41459 On ch=3 n=69 v=0
41520 On ch=3 n=72 v=127
41699 On ch=3 n=72 v=0
41700 On ch=3 n=65 v=127
41759 On ch=3 n=65 v=0
41760 On ch=3 n=65 v=127
41760 On ch=3 n=70 v=127
42060 On ch=3 n=64 v=127
42069 On ch=3 n=65 v=0
42120 On ch=3 n=65 v=127
42129 On ch=3 n=64 v=0
42179 On ch=3 n=65 v=0
42179 On ch=3 n=70 v=0
43740 On ch=3 n=67 v=127
43769 On ch=3 n=67 v=0
43800 On ch=3 n=67 v=127
43829 On ch=3 n=67 v=0
43860 On ch=3 n=67 v=127
43889 On ch=3 n=67 v=0
43920 On ch=3 n=69 v=127
43920 On ch=3 n=66 v=127
43979 On ch=3 n=66 v=0
43979 On ch=3 n=69 v=0
44040 On ch=3 n=72 v=127
44040 On ch=3 n=69 v=127
44099 On ch=3 n=69 v=0
44099 On ch=3 n=72 v=0
44160 On ch=3 n=67 v=127
44160 On ch=3 n=70 v=127
44219 On ch=3 n=70 v=0
44219 On ch=3 n=67 v=0
44400 On ch=3 n=68 v=127
44400 On ch=3 n=65 v=127
44459 On ch=3 n=65 v=0
44459 On ch=3 n=68 v=0
44520 On ch=3 n=67 v=127
44520 On ch=3 n=63 v=127
44579 On ch=3 n=63 v=0
44579 On ch=3 n=67 v=0
44760 On ch=3 n=70 v=127
44760 On ch=3 n=67 v=127
44819 On ch=3 n=67 v=0
44819 On ch=3 n=70 v=0
44880 On ch=3 n=65 v=127
44880 On ch=3 n=69 v=127
44939 On ch=3 n=69 v=0
44939 On ch=3 n=65 v=0
45120 On ch=3 n=69 v=127
45120 On ch=3 n=72 v=127
45179 On ch=3 n=72 v=0
45179 On ch=3 n=69 v=0
45240 On ch=3 n=67 v=127
45240 On ch=3 n=70 v=127
45299 On ch=3 n=70 v=0
45299 On ch=3 n=67 v=0
45480 On ch=3 n=65 v=127
45480 On ch=3 n=68 v=127
45539 On ch=3 n=68 v=0
45539 On ch=3 n=65 v=0
45600 On ch=3 n=67 v=127
45600 On ch=3 n=63 v=127
45659 On ch=3 n=63 v=0
45659 On ch=3 n=67 v=0
45840 On ch=3 n=70 v=127
45840 On ch=3 n=67 v=127
45899 On ch=3 n=67 v=0
45899 On ch=3 n=70 v=0
46080 On ch=3 n=67 v=127
46080 On ch=3 n=70 v=127
46139 On ch=3 n=70 v=0
46139 On ch=3 n=67 v=0
46320 On ch=3 n=70 v=127
46320 On ch=3 n=67 v=127
46379 On ch=3 n=67 v=0
46379 On ch=3 n=70 v=0
46560 On ch=3 n=67 v=127
46560 On ch=3 n=70 v=127
46619 On ch=3 n=70 v=0
46619 On ch=3 n=67 v=0
46800 On ch=3 n=70 v=127
46800 On ch=3 n=67 v=127
46859 On ch=3 n=67 v=0
46859 On ch=3 n=70 v=0
47040 On ch=3 n=67 v=127
47040 On ch=3 n=70 v=127
47099 On ch=3 n=70 v=0
47099 On ch=3 n=67 v=0
48720 On ch=3 n=74 v=48
48720 On ch=3 n=70 v=48
48779 On ch=3 n=70 v=0
48779 On ch=3 n=74 v=0
48960 On ch=3 n=72 v=48
48960 On ch=3 n=68 v=48
49019 On ch=3 n=68 v=0
49019 On ch=3 n=72 v=0
49200 On ch=3 n=68 v=48
49200 On ch=3 n=72 v=48
49259 On ch=3 n=72 v=0
49259 On ch=3 n=68 v=0
49440 On ch=3 n=75 v=48
49440 On ch=3 n=72 v=48
49499 On ch=3 n=72 v=0
49499 On ch=3 n=75 v=0
49680 On ch=3 n=74 v=48
49680 On ch=3 n=70 v=48
49739 On ch=3 n=70 v=0
49739 On ch=3 n=74 v=0
49920 On ch=3 n=70 v=48
49920 On ch=3 n=74 v=48
49979 On ch=3 n=74 v=0
49979 On ch=3 n=70 v=0
50040 On ch=3 n=67 v=64
50400 On ch=3 n=63 v=72
50579 On ch=3 n=63 v=0
50579 On ch=3 n=67 v=0
50580 On ch=3 n=72 v=81
50580 On ch=3 n=67 v=81
50640 On ch=3 n=65 v=83
50640 On ch=3 n=71 v=83
50649 On ch=3 n=67 v=0
50649 On ch=3 n=72 v=0
50700 On ch=3 n=63 v=86
50700 On ch=3 n=72 v=86
50709 On ch=3 n=65 v=0
50709 On ch=3 n=71 v=0
50759 On ch=3 n=63 v=0
50759 On ch=3 n=72 v=0
50760 On ch=3 n=70 v=88
50760 On ch=3 n=62 v=88
50819 On ch=3 n=62 v=0
50819 On ch=3 n=70 v=0
50820 On ch=3 n=74 v=93
50820 On ch=3 n=70 v=93
50879 On ch=3 n=70 v=0
50879 On ch=3 n=74 v=0
50880 On ch=3 n=77 v=97
50880 On ch=3 n=74 v=97
50939 On ch=3 n=74 v=0
50939 On ch=3 n=77 v=0
50940 On ch=3 n=70 v=101
50940 On ch=3 n=74 v=101
50999 On ch=3 n=74 v=0
50999 On ch=3 n=70 v=0
51000 On ch=3 n=74 v=105
51000 On ch=3 n=70 v=105
51059 On ch=3 n=70 v=0
51059 On ch=3 n=74 v=0
51060 On ch=3 n=70 v=109
51060 On ch=3 n=74 v=109
51119 On ch=3 n=74 v=0
51119 On ch=3 n=70 v=0
51120 On ch=3 n=77 v=127
51120 On ch=3 n=71 v=127
51479 On ch=3 n=71 v=0
51479 On ch=3 n=77 v=0
51480 On ch=3 n=70 v=96
51480 On ch=3 n=74 v=96
51539 On ch=3 n=74 v=0
51539 On ch=3 n=70 v=0
51840 On ch=3 n=70 v=96
51899 On ch=3 n=70 v=0
52200 On ch=3 n=70 v=96
52259 On ch=3 n=70 v=0
52560 On ch=3 n=66 v=96
52560 On ch=3 n=75 v=96
52619 On ch=3 n=75 v=0
52619 On ch=3 n=66 v=0
52680 On ch=3 n=75 v=96
52680 On ch=3 n=66 v=96
52739 On ch=3 n=66 v=0
52739 On ch=3 n=75 v=0
52800 On ch=3 n=66 v=96
52800 On ch=3 n=75 v=96
52859 On ch=3 n=75 v=0
52859 On ch=3 n=66 v=0
52920 On ch=3 n=65 v=96
52920 On ch=3 n=74 v=96
52979 On ch=3 n=74 v=0
52979 On ch=3 n=65 v=0
54960 On ch=3 n=74 v=96
54960 On ch=3 n=68 v=96
54989 On ch=3 n=68 v=0
54989 On ch=3 n=74 v=0
54990 On ch=3 n=74 v=48
54990 On ch=3 n=68 v=48
55080 On ch=3 n=67 v=48
55080 On ch=3 n=75 v=48
55089 On ch=3 n=68 v=0
55089 On ch=3 n=74 v=0
55199 On ch=3 n=67 v=0
55199 On ch=3 n=75 v=0
58920 On ch=3 n=70 v=48
59160 On ch=3 n=72 v=48
59169 On ch=3 n=70 v=0
59280 On ch=3 n=74 v=56
59289 On ch=3 n=72 v=0
59399 On ch=3 n=74 v=0
59400 On ch=3 n=75 v=48
59640 On ch=3 n=79 v=48
59649 On ch=3 n=75 v=0
59760 On ch=3 n=75 v=48
59769 On ch=3 n=79 v=0
60000 On ch=3 n=70 v=48
60009 On ch=3 n=75 v=0
60119 On ch=3 n=70 v=0
60120 On ch=3 n=75 v=48
60240 On ch=3 n=79 v=48
60249 On ch=3 n=75 v=0
60360 On ch=3 n=82 v=48
60369 On ch=3 n=79 v=0
60480 On ch=3 n=75 v=48
60489 On ch=3 n=82 v=0
60599 On ch=3 n=75 v=0
61440 On ch=3 n=67 v=48
61560 On ch=3 n=68 v=48
61569 On ch=3 n=67 v=0
61680 On ch=3 n=72 v=48
61689 On ch=3 n=68 v=0
61800 On ch=3 n=75 v=48
61809 On ch=3 n=72 v=0
61919 On ch=3 n=75 v=0
61920 On ch=3 n=68 v=48
62040 On ch=3 n=63 v=48
62159 On ch=3 n=63 v=0
62160 On ch=3 n=69 v=64
62160 On ch=3 n=63 v=64
62169 On ch=3 n=68 v=0
62279 On ch=3 n=63 v=0
62280 On ch=3 n=70 v=96
62289 On ch=3 n=69 v=0
62309 On ch=3 n=70 v=0
62310 On ch=3 n=70 v=48
62519 On ch=3 n=70 v=0
62520 On ch=3 n=77 v=48
62520 On ch=3 n=65 v=48
62640 On ch=3 n=62 v=48
62640 On ch=3 n=74 v=48
62649 On ch=3 n=65 v=0
62649 On ch=3 n=77 v=0
62760 On ch=3 n=58 v=48
62760 On ch=3 n=70 v=48
62769 On ch=3 n=62 v=0
62769 On ch=3 n=74 v=0
62880 On ch=3 n=68 v=48
62880 On ch=3 n=77 v=48
62889 On ch=3 n=58 v=0
62889 On ch=3 n=70 v=0
62999 On ch=3 n=68 v=0
62999 On ch=3 n=77 v=0
63000 On ch=3 n=67 v=48
63000 On ch=3 n=75 v=48
63059 On ch=3 n=75 v=0
63059 On ch=3 n=67 v=0
63120 On ch=3 n=75 v=96
63120 On ch=3 n=66 v=96
63359 On ch=3 n=66 v=0
63359 On ch=3 n=75 v=0
63360 On ch=3 n=75 v=96
63360 On ch=3 n=66 v=96
63599 On ch=3 n=66 v=0
63599 On ch=3 n=75 v=0
63600 On ch=3 n=75 v=96
63600 On ch=3 n=66 v=96
63719 On ch=3 n=66 v=0
63719 On ch=3 n=75 v=0
63720 On ch=3 n=65 v=96
63720 On ch=3 n=74 v=96
63779 On ch=3 n=74 v=0
63779 On ch=3 n=65 v=0
63840 On ch=3 n=70 v=48
63840 On ch=3 n=82 v=48
63960 On ch=3 n=65 v=48
63960 On ch=3 n=77 v=48
63969 On ch=3 n=82 v=0
63969 On ch=3 n=70 v=0
64080 On ch=3 n=74 v=48
64080 On ch=3 n=62 v=48
64089 On ch=3 n=65 v=0
64089 On ch=3 n=77 v=0
64200 On ch=3 n=58 v=48
64200 On ch=3 n=70 v=48
64209 On ch=3 n=74 v=0
64209 On ch=3 n=62 v=0
64319 On ch=3 n=58 v=0
64319 On ch=3 n=70 v=0
64320 On ch=3 n=70 v=96
64320 On ch=3 n=65 v=96
64559 On ch=3 n=65 v=0
64559 On ch=3 n=70 v=0
64560 On ch=3 n=65 v=96
64560 On ch=3 n=74 v=96
64799 On ch=3 n=74 v=0
64799 On ch=3 n=65 v=0
64800 On ch=3 n=74 v=96
64800 On ch=3 n=65 v=96
65039 On ch=3 n=65 v=0
65039 On ch=3 n=74 v=0
65040 On ch=3 n=74 v=96
65040 On ch=3 n=65 v=96
65279 On ch=3 n=65 v=0
65279 On ch=3 n=74 v=0
65280 On ch=3 n=67 v=96
65280 On ch=3 n=75 v=96
65519 On ch=3 n=75 v=0
65519 On ch=3 n=67 v=0
65520 On ch=3 n=75 v=96
65520 On ch=3 n=67 v=96
65759 On ch=3 n=67 v=0
65759 On ch=3 n=75 v=0
65760 On ch=3 n=67 v=96
65760 On ch=3 n=75 v=96
65999 On ch=3 n=75 v=0
65999 On ch=3 n=67 v=0
66000 On ch=3 n=74 v=90
66000 On ch=3 n=65 v=90
66059 On ch=3 n=65 v=0
66059 On ch=3 n=74 v=0
66120 On ch=3 n=65 v=96
66120 On ch=3 n=74 v=96
66240 On ch=3 n=70 v=90
66249 On ch=3 n=65 v=0
66359 On ch=3 n=70 v=0
66359 On ch=3 n=74 v=0
66360 On ch=3 n=75 v=90
66360 On ch=3 n=70 v=90
66419 On ch=3 n=70 v=0
66419 On ch=3 n=75 v=0
66480 On ch=3 n=70 v=96
66480 On ch=3 n=75 v=96
66600 On ch=3 n=74 v=96
66609 On ch=3 n=75 v=0
66719 On ch=3 n=74 v=0
66719 On ch=3 n=70 v=0
66720 On ch=3 n=58 v=96
66749 On ch=3 n=58 v=0
66780 On ch=3 n=60 v=98
66809 On ch=3 n=60 v=0
66840 On ch=3 n=62 v=101
66869 On ch=3 n=62 v=0
66900 On ch=3 n=63 v=104
66929 On ch=3 n=63 v=0
66960 On ch=3 n=65 v=106
66989 On ch=3 n=65 v=0
67020 On ch=3 n=67 v=109
67049 On ch=3 n=67 v=0
67080 On ch=3 n=68 v=112
67109 On ch=3 n=68 v=0
67140 On ch=3 n=70 v=115
67169 On ch=3 n=70 v=0
67200 On ch=3 n=72 v=118
67229 On ch=3 n=72 v=0
67260 On ch=3 n=74 v=121
67289 On ch=3 n=74 v=0
67320 On ch=3 n=75 v=127
67560 On ch=3 n=79 v=127
67569 On ch=3 n=75 v=0
67680 On ch=3 n=75 v=127
67689 On ch=3 n=79 v=0
67920 On ch=3 n=70 v=127
67929 On ch=3 n=75 v=0
68040 On ch=3 n=75 v=127
68049 On ch=3 n=70 v=0
68160 On ch=3 n=79 v=127
68169 On ch=3 n=75 v=0
68280 On ch=3 n=82 v=127
68289 On ch=3 n=79 v=0
68400 On ch=3 n=75 v=127
68409 On ch=3 n=82 v=0
68639 On ch=3 n=75 v=0
68640 On ch=3 n=79 v=127
68640 On ch=3 n=75 v=127
68879 On ch=3 n=75 v=0
68879 On ch=3 n=79 v=0
68880 On ch=3 n=75 v=127
68880 On ch=3 n=79 v=127
68999 On ch=3 n=79 v=0
68999 On ch=3 n=75 v=0
69000 On ch=3 n=79 v=127
69000 On ch=3 n=75 v=127
69119 On ch=3 n=75 v=0
69119 On ch=3 n=79 v=0
69120 On ch=3 n=75 v=127
69120 On ch=3 n=79 v=127
69359 On ch=3 n=75 v=0
69360 On ch=3 n=73 v=127
69479 On ch=3 n=73 v=0
69479 On ch=3 n=79 v=0
69480 On ch=3 n=80 v=127
69480 On ch=3 n=72 v=127
69600 On ch=3 n=75 v=127
69609 On ch=3 n=80 v=0
69719 On ch=3 n=75 v=0
69720 On ch=3 n=75 v=127
69839 On ch=3 n=75 v=0
69840 On ch=3 n=76 v=127
69900 On ch=3 n=70 v=127
69909 On ch=3 n=72 v=0
69960 On ch=3 n=69 v=127
69969 On ch=3 n=70 v=0
70020 On ch=3 n=70 v=127
70029 On ch=3 n=69 v=0
70080 On ch=3 n=72 v=127
70089 On ch=3 n=70 v=0
70140 On ch=3 n=70 v=127
70149 On ch=3 n=72 v=0
70199 On ch=3 n=76 v=0
70200 On ch=3 n=69 v=127
70209 On ch=3 n=70 v=0
70319 On ch=3 n=69 v=0
70680 On ch=3 n=77 v=48
70860 On ch=3 n=75 v=48
70869 On ch=3 n=77 v=0
70920 On ch=3 n=72 v=48
70929 On ch=3 n=75 v=0
71039 On ch=3 n=72 v=0
72120 On ch=3 n=77 v=48
72300 On ch=3 n=74 v=48
72309 On ch=3 n=77 v=0
72360 On ch=3 n=70 v=48
72369 On ch=3 n=74 v=0
72479 On ch=3 n=70 v=0
73560 On ch=3 n=78 v=64
73740 On ch=3 n=77 v=56
73749 On ch=3 n=78 v=0
73800 On ch=3 n=75 v=56
73809 On ch=3 n=77 v=0
73919 On ch=3 n=75 v=0
73920 On ch=3 n=67 v=127
73920 On ch=3 n=79 v=127
74099 On ch=3 n=79 v=0
74099 On ch=3 n=67 v=0
74100 On ch=3 n=77 v=127
74100 On ch=3 n=65 v=127
74159 On ch=3 n=65 v=0
74159 On ch=3 n=77 v=0
74160 On ch=3 n=63 v=127
74160 On ch=3 n=75 v=127
74219 On ch=3 n=75 v=0
74219 On ch=3 n=63 v=0
74280 On ch=3 n=74 v=127
74280 On ch=3 n=62 v=127
74339 On ch=3 n=62 v=0
74339 On ch=3 n=74 v=0
74400 On ch=3 n=72 v=127
74400 On ch=3 n=60 v=127
74459 On ch=3 n=60 v=0
74459 On ch=3 n=72 v=0
74520 On ch=3 n=62 v=48
74520 On ch=3 n=58 v=48
74760 On ch=3 n=60 v=60
74760 On ch=3 n=63 v=60
74769 On ch=3 n=58 v=0
74769 On ch=3 n=62 v=0
74820 On ch=3 n=65 v=62
74820 On ch=3 n=62 v=62
74829 On ch=3 n=60 v=0
74829 On ch=3 n=63 v=0
74880 On ch=3 n=63 v=64
74880 On ch=3 n=67 v=64
74889 On ch=3 n=65 v=0
74889 On ch=3 n=62 v=0
75000 On ch=3 n=69 v=56
75000 On ch=3 n=65 v=56
75009 On ch=3 n=63 v=0
75009 On ch=3 n=67 v=0
75120 On ch=3 n=67 v=52
75120 On ch=3 n=70 v=52
75129 On ch=3 n=69 v=0
75129 On ch=3 n=65 v=0
75239 On ch=3 n=67 v=0
75239 On ch=3 n=70 v=0
75240 On ch=3 n=65 v=48
75240 On ch=3 n=70 v=48
75419 On ch=3 n=70 v=0
75419 On ch=3 n=65 v=0
75420 On ch=3 n=53 v=48
75420 On ch=3 n=58 v=48
75480 On ch=3 n=60 v=48
75480 On ch=3 n=57 v=48
75489 On ch=3 n=58 v=0
75489 On ch=3 n=53 v=0
75540 On ch=3 n=58 v=48
75540 On ch=3 n=62 v=48
75549 On ch=3 n=60 v=0
75549 On ch=3 n=57 v=0
75599 On ch=3 n=58 v=0
75599 On ch=3 n=62 v=0
75600 On ch=3 n=63 v=48
75600 On ch=3 n=60 v=48
75689 On ch=3 n=60 v=0
75689 On ch=3 n=63 v=0
75720 On ch=3 n=60 v=48
75720 On ch=3 n=63 v=48
75809 On ch=3 n=63 v=0
75809 On ch=3 n=60 v=0
75840 On ch=3 n=63 v=48
75840 On ch=3 n=60 v=48
75929 On ch=3 n=60 v=0
75929 On ch=3 n=63 v=0
75960 On ch=3 n=62 v=48
75960 On ch=3 n=58 v=48
76079 On ch=3 n=58 v=0
76079 On ch=3 n=62 v=0
77400 On ch=3 n=75 v=96
77400 On ch=3 n=69 v=96
77459 On ch=3 n=69 v=0
77459 On ch=3 n=75 v=0
77520 On ch=3 n=75 v=96
77520 On ch=3 n=69 v=96
77579 On ch=3 n=69 v=0
77579 On ch=3 n=75 v=0
78060 On ch=3 n=69 v=96
78060 On ch=3 n=72 v=96
78089 On ch=3 n=72 v=0
78089 On ch=3 n=69 v=0
78120 On ch=3 n=70 v=96
78179 On ch=3 n=70 v=0
78240 On ch=3 n=70 v=96
78299 On ch=3 n=70 v=0
78780 On ch=3 n=74 v=96
78780 On ch=3 n=70 v=96
78809 On ch=3 n=70 v=0
78809 On ch=3 n=74 v=0
78840 On ch=3 n=71 v=96
78840 On ch=3 n=74 v=96
78899 On ch=3 n=74 v=0
78899 On ch=3 n=71 v=0
78960 On ch=3 n=74 v=96
78960 On ch=3 n=71 v=96
79019 On ch=3 n=71 v=0
79019 On ch=3 n=74 v=0
79680 On ch=3 n=72 v=96
79800 On ch=3 n=74 v=96
79919 On ch=3 n=72 v=0
79920 On ch=3 n=70 v=96
79979 On ch=3 n=74 v=0
79980 On ch=3 n=75 v=96
80039 On ch=3 n=75 v=0
80039 On ch=3 n=70 v=0
80040 On ch=3 n=75 v=96
80160 On ch=3 n=77 v=96
80279 On ch=3 n=77 v=0
80279 On ch=3 n=75 v=0
80280 On ch=3 n=74 v=96
80280 On ch=3 n=77 v=96
80399 On ch=3 n=77 v=0
80399 On ch=3 n=74 v=0
80880 On ch=3 n=70 v=96
80880 On ch=3 n=78 v=96
81000 On ch=3 n=79 v=96
81009 On ch=3 n=78 v=0
81060 On ch=3 n=78 v=96
81069 On ch=3 n=79 v=0
81120 On ch=3 n=79 v=96
81129 On ch=3 n=78 v=0
81180 On ch=3 n=78 v=96
81189 On ch=3 n=79 v=0
81240 On ch=3 n=71 v=96
81240 On ch=3 n=79 v=96
81249 On ch=3 n=78 v=0
81249 On ch=3 n=70 v=0
81300 On ch=3 n=74 v=96
81309 On ch=3 n=79 v=0
81359 On ch=3 n=74 v=0
81359 On ch=3 n=71 v=0
81360 On ch=3 n=72 v=96
81360 On ch=3 n=75 v=96
81419 On ch=3 n=72 v=0
81420 On ch=3 n=67 v=96
81420 On ch=3 n=74 v=96
81429 On ch=3 n=75 v=0
81480 On ch=3 n=77 v=96
81489 On ch=3 n=74 v=0
81539 On ch=3 n=67 v=0
81540 On ch=3 n=67 v=96
81540 On ch=3 n=75 v=96
81549 On ch=3 n=77 v=0
81600 On ch=3 n=65 v=96
81600 On ch=3 n=74 v=96
81609 On ch=3 n=75 v=0
81609 On ch=3 n=67 v=0
81660 On ch=3 n=63 v=96
81660 On ch=3 n=72 v=96
81669 On ch=3 n=65 v=0
81669 On ch=3 n=74 v=0
81719 On ch=3 n=72 v=0
81720 On ch=3 n=62 v=96
81720 On ch=3 n=70 v=96
81729 On ch=3 n=63 v=0
81839 On ch=3 n=70 v=0
81839 On ch=3 n=62 v=0
84000 On ch=3 n=74 v=48
84000 On ch=3 n=65 v=48
84089 On ch=3 n=65 v=0
84089 On ch=3 n=74 v=0
84120 On ch=3 n=65 v=48
84120 On ch=3 n=74 v=48
84209 On ch=3 n=74 v=0
84209 On ch=3 n=65 v=0
84240 On ch=3 n=74 v=56
84240 On ch=3 n=65 v=56
84329 On ch=3 n=65 v=0
84329 On ch=3 n=74 v=0
84360 On ch=3 n=65 v=64
84360 On ch=3 n=74 v=64
84449 On ch=3 n=74 v=0
84449 On ch=3 n=65 v=0
84480 On ch=3 n=65 v=72
84480 On ch=3 n=74 v=72
84569 On ch=3 n=74 v=0
84569 On ch=3 n=65 v=0
84600 On ch=3 n=74 v=80
84600 On ch=3 n=65 v=80
84689 On ch=3 n=65 v=0
84689 On ch=3 n=74 v=0
84720 On ch=3 n=65 v=88
84720 On ch=3 n=74 v=88
84809 On ch=3 n=74 v=0
84809 On ch=3 n=65 v=0
84840 On ch=3 n=74 v=88
84840 On ch=3 n=66 v=88
84929 On ch=3 n=66 v=0
84929 On ch=3 n=74 v=0
84960 On ch=3 n=67 v=96
84960 On ch=3 n=74 v=96
85200 On ch=3 n=72 v=64
85209 On ch=3 n=74 v=0
85319 On ch=3 n=72 v=0
85319 On ch=3 n=67 v=0
86880 On ch=3 n=73 v=48
86880 On ch=3 n=65 v=48
86969 On ch=3 n=65 v=0
86969 On ch=3 n=73 v=0
87000 On ch=3 n=65 v=48
87000 On ch=3 n=73 v=48
87089 On ch=3 n=73 v=0
87089 On ch=3 n=65 v=0
87120 On ch=3 n=73 v=56
87120 On ch=3 n=65 v=56
87209 On ch=3 n=65 v=0
87209 On ch=3 n=73 v=0
87240 On ch=3 n=66 v=64
87240 On ch=3 n=73 v=64
87329 On ch=3 n=73 v=0
87329 On ch=3 n=66 v=0
87360 On ch=3 n=73 v=72
87360 On ch=3 n=66 v=72
87449 On ch=3 n=66 v=0
87449 On ch=3 n=73 v=0
87480 On ch=3 n=73 v=80
87480 On ch=3 n=66 v=80
87569 On ch=3 n=66 v=0
87569 On ch=3 n=73 v=0
87600 On ch=3 n=66 v=88
87600 On ch=3 n=73 v=88
87689 On ch=3 n=73 v=0
87689 On ch=3 n=66 v=0
87720 On ch=3 n=73 v=88
87720 On ch=3 n=66 v=88
87809 On ch=3 n=66 v=0
87809 On ch=3 n=73 v=0
87840 On ch=3 n=66 v=96
87840 On ch=3 n=73 v=96
88080 On ch=3 n=72 v=64
88089 On ch=3 n=73 v=0
88199 On ch=3 n=72 v=0
88199 On ch=3 n=66 v=0
89400 On ch=3 n=72 v=56
89400 On ch=3 n=70 v=56
89489 On ch=3 n=70 v=0
89489 On ch=3 n=72 v=0
89520 On ch=3 n=72 v=56
89520 On ch=3 n=70 v=56
89609 On ch=3 n=70 v=0
89609 On ch=3 n=72 v=0
89640 On ch=3 n=72 v=48
89640 On ch=3 n=69 v=48
89759 On ch=3 n=69 v=0
89759 On ch=3 n=72 v=0
92760 On ch=3 n=63 v=75
92760 On ch=3 n=60 v=75
92789 On ch=3 n=60 v=0
92789 On ch=3 n=63 v=0
92820 On ch=3 n=65 v=78
92820 On ch=3 n=62 v=78
92849 On ch=3 n=62 v=0
92849 On ch=3 n=65 v=0
92880 On ch=3 n=67 v=80
92880 On ch=3 n=63 v=80
92909 On ch=3 n=63 v=0
92909 On ch=3 n=67 v=0
92940 On ch=3 n=69 v=83
92940 On ch=3 n=65 v=83
92969 On ch=3 n=65 v=0
92969 On ch=3 n=69 v=0
93000 On ch=3 n=70 v=86
93000 On ch=3 n=67 v=86
93029 On ch=3 n=67 v=0
93029 On ch=3 n=70 v=0
93060 On ch=3 n=72 v=89
93060 On ch=3 n=69 v=89
93089 On ch=3 n=69 v=0
93089 On ch=3 n=72 v=0
93120 On ch=3 n=74 v=92
93120 On ch=3 n=70 v=92
93149 On ch=3 n=70 v=0
93149 On ch=3 n=74 v=0
93180 On ch=3 n=75 v=94
93180 On ch=3 n=72 v=94
93209 On ch=3 n=72 v=0
93209 On ch=3 n=75 v=0
93240 On ch=3 n=77 v=96
93240 On ch=3 n=74 v=96
93359 On ch=3 n=74 v=0
93359 On ch=3 n=77 v=0
93360 On ch=3 n=70 v=112
93360 On ch=3 n=65 v=112
93599 On ch=3 n=65 v=0
93599 On ch=3 n=70 v=0
93720 On ch=3 n=65 v=112
93720 On ch=3 n=70 v=112
93959 On ch=3 n=70 v=0
93959 On ch=3 n=65 v=0
94080 On ch=3 n=72 v=112
94080 On ch=3 n=65 v=112
94319 On ch=3 n=65 v=0
94319 On ch=3 n=72 v=0
94440 On ch=3 n=65 v=112
94440 On ch=3 n=72 v=112
94559 On ch=3 n=72 v=0
94559 On ch=3 n=65 v=0
94560 On ch=3 n=72 v=96
94560 On ch=3 n=65 v=96
94679 On ch=3 n=65 v=0
94679 On ch=3 n=72 v=0
94680 On ch=3 n=65 v=127
94680 On ch=3 n=74 v=127
94739 On ch=3 n=74 v=0
94739 On ch=3 n=65 v=0
94800 On ch=3 n=77 v=127
94979 On ch=3 n=77 v=0
94980 On ch=3 n=74 v=127
95039 On ch=3 n=74 v=0
95040 On ch=3 n=70 v=127
95099 On ch=3 n=70 v=0
95160 On ch=3 n=74 v=127
95339 On ch=3 n=74 v=0
95340 On ch=3 n=65 v=127
95399 On ch=3 n=65 v=0
95400 On ch=3 n=72 v=127
95459 On ch=3 n=72 v=0
95520 On ch=3 n=75 v=127
95699 On ch=3 n=75 v=0
95700 On ch=3 n=65 v=127
95759 On ch=3 n=65 v=0
95760 On ch=3 n=69 v=127
95819 On ch=3 n=69 v=0
95880 On ch=3 n=72 v=127
96059 On ch=3 n=72 v=0
96060 On ch=3 n=65 v=127
96119 On ch=3 n=65 v=0
96120 On ch=3 n=65 v=127
96120 On ch=3 n=70 v=127
96420 On ch=3 n=64 v=127
96429 On ch=3 n=65 v=0
96480 On ch=3 n=65 v=127
96489 On ch=3 n=64 v=0
96539 On ch=3 n=65 v=0
96539 On ch=3 n=70 v=0
98100 On ch=3 n=67 v=127
98129 On ch=3 n=67 v=0
98160 On ch=3 n=67 v=127
98189 On ch=3 n=67 v=0
98220 On ch=3 n=67 v=127
98249 On ch=3 n=67 v=0
98280 On ch=3 n=69 v=127
98280 On ch=3 n=66 v=127
98339 On ch=3 n=66 v=0
98339 On ch=3 n=69 v=0
98400 On ch=3 n=72 v=127
98400 On ch=3 n=69 v=127
98459 On ch=3 n=69 v=0
98459 On ch=3 n=72 v=0
98520 On ch=3 n=67 v=127
98520 On ch=3 n=70 v=127
98579 On ch=3 n=70 v=0
98579 On ch=3 n=67 v=0
98760 On ch=3 n=68 v=127
98760 On ch=3 n=65 v=127
98819 On ch=3 n=65 v=0
98819 On ch=3 n=68 v=0
98880 On ch=3 n=67 v=127
98880 On ch=3 n=63 v=127
98939 On ch=3 n=63 v=0
98939 On ch=3 n=67 v=0
99120 On ch=3 n=70 v=127
99120 On ch=3 n=67 v=127
99179 On ch=3 n=67 v=0
99179 On ch=3 n=70 v=0
99240 On ch=3 n=65 v=127
99240 On ch=3 n=69 v=127
99299 On ch=3 n=69 v=0
99299 On ch=3 n=65 v=0
99480 On ch=3 n=69 v=127
99480 On ch=3 n=72 v=127
99539 On ch=3 n=72 v=0
99539 On ch=3 n=69 v=0
99600 On ch=3 n=67 v=127
99600 On ch=3 n=70 v=127
99659 On ch=3 n=70 v=0
99659 On ch=3 n=67 v=0
99840 On ch=3 n=65 v=127
99840 On ch=3 n=68 v=127
99899 On ch=3 n=68 v=0
99899 On ch=3 n=65 v=0
99960 On ch=3 n=67 v=127
99960 On ch=3 n=63 v=127
100019 On ch=3 n=63 v=0
100019 On ch=3 n=67 v=0
100200 On ch=3 n=70 v=127
100200 On ch=3 n=67 v=127
100259 On ch=3 n=67 v=0
100259 On ch=3 n=70 v=0
100440 On ch=3 n=67 v=127
100440 On ch=3 n=70 v=127
100499 On ch=3 n=70 v=0
100499 On ch=3 n=67 v=0
100680 On ch=3 n=70 v=127
100680 On ch=3 n=67 v=127
100739 On ch=3 n=67 v=0
100739 On ch=3 n=70 v=0
100920 On ch=3 n=67 v=127
100920 On ch=3 n=70 v=127
100979 On ch=3 n=70 v=0
100979 On ch=3 n=67 v=0
101160 On ch=3 n=70 v=127
101160 On ch=3 n=67 v=127
101219 On ch=3 n=67 v=0
101219 On ch=3 n=70 v=0
101400 On ch=3 n=67 v=127
101400 On ch=3 n=70 v=127
101459 On ch=3 n=70 v=0
101459 On ch=3 n=67 v=0
103080 On ch=3 n=74 v=48
103080 On ch=3 n=70 v=48
103139 On ch=3 n=70 v=0
103139 On ch=3 n=74 v=0
103320 On ch=3 n=72 v=48
103320 On ch=3 n=68 v=48
103379 On ch=3 n=68 v=0
103379 On ch=3 n=72 v=0
103560 On ch=3 n=68 v=48
103560 On ch=3 n=72 v=48
103619 On ch=3 n=72 v=0
103619 On ch=3 n=68 v=0
103800 On ch=3 n=75 v=48
103800 On ch=3 n=72 v=48
103859 On ch=3 n=72 v=0
103859 On ch=3 n=75 v=0
104040 On ch=3 n=74 v=48
104040 On ch=3 n=70 v=48
104099 On ch=3 n=70 v=0
104099 On ch=3 n=74 v=0
104280 On ch=3 n=70 v=48
104280 On ch=3 n=74 v=48
104339 On ch=3 n=74 v=0
104339 On ch=3 n=70 v=0
104400 On ch=3 n=67 v=64
104760 On ch=3 n=63 v=72
104939 On ch=3 n=63 v=0
104939 On ch=3 n=67 v=0
104940 On ch=3 n=72 v=81
104940 On ch=3 n=67 v=81
105000 On ch=3 n=65 v=83
105000 On ch=3 n=71 v=83
105009 On ch=3 n=67 v=0
105009 On ch=3 n=72 v=0
105060 On ch=3 n=63 v=86
105060 On ch=3 n=72 v=86
105069 On ch=3 n=65 v=0
105069 On ch=3 n=71 v=0
105119 On ch=3 n=63 v=0
105119 On ch=3 n=72 v=0
105120 On ch=3 n=70 v=88
105120 On ch=3 n=62 v=88
105179 On ch=3 n=62 v=0
105179 On ch=3 n=70 v=0
105180 On ch=3 n=74 v=93
105180 On ch=3 n=70 v=93
105239 On ch=3 n=70 v=0
105239 On ch=3 n=74 v=0
105240 On ch=3 n=77 v=97
105240 On ch=3 n=74 v=97
105299 On ch=3 n=74 v=0
105299 On ch=3 n=77 v=0
105300 On ch=3 n=70 v=101
105300 On ch=3 n=74 v=101
105359 On ch=3 n=74 v=0
105359 On ch=3 n=70 v=0
105360 On ch=3 n=74 v=105
105360 On ch=3 n=70 v=105
105419 On ch=3 n=70 v=0
105419 On ch=3 n=74 v=0
105420 On ch=3 n=70 v=109
105420 On ch=3 n=74 v=109
105479 On ch=3 n=74 v=0
105479 On ch=3 n=70 v=0
105480 On ch=3 n=77 v=127
105480 On ch=3 n=71 v=127
105839 On ch=3 n=71 v=0
105839 On ch=3 n=77 v=0
105840 On ch=3 n=70 v=96
105840 On ch=3 n=74 v=96
105899 On ch=3 n=74 v=0
105899 On ch=3 n=70 v=0
106200 On ch=3 n=70 v=96
106259 On ch=3 n=70 v=0
106560 On ch=3 n=70 v=96
106619 On ch=3 n=70 v=0
106920 On ch=3 n=66 v=96
106920 On ch=3 n=75 v=96
106979 On ch=3 n=75 v=0
106979 On ch=3 n=66 v=0
107040 On ch=3 n=75 v=96
107040 On ch=3 n=66 v=96
107099 On ch=3 n=66 v=0
107099 On ch=3 n=75 v=0
107160 On ch=3 n=66 v=96
107160 On ch=3 n=75 v=96
107219 On ch=3 n=75 v=0
107219 On ch=3 n=66 v=0
107280 On ch=3 n=65 v=96
107280 On ch=3 n=74 v=96
107339 On ch=3 n=74 v=0
107339 On ch=3 n=65 v=0
120840 On ch=3 n=77 v=110
120840 On ch=3 n=65 v=110
121079 On ch=3 n=65 v=0
121079 On ch=3 n=77 v=0
121080 On ch=3 n=69 v=127
121080 On ch=3 n=65 v=127
121139 On ch=3 n=65 v=0
121139 On ch=3 n=69 v=0
121200 On ch=3 n=65 v=127
121200 On ch=3 n=69 v=127
121259 On ch=3 n=69 v=0
121259 On ch=3 n=65 v=0
121320 On ch=3 n=69 v=127
121320 On ch=3 n=65 v=127
121379 On ch=3 n=65 v=0
121379 On ch=3 n=69 v=0
121440 On ch=3 n=65 v=127
121440 On ch=3 n=69 v=127
121499 On ch=3 n=69 v=0
121499 On ch=3 n=65 v=0
121560 On ch=3 n=69 v=127
121560 On ch=3 n=65 v=127
121619 On ch=3 n=65 v=0
121619 On ch=3 n=69 v=0
121680 On ch=3 n=65 v=127
121680 On ch=3 n=69 v=127
122399 On ch=3 n=69 v=0
122399 On ch=3 n=65 v=0
122400 On ch=3 n=69 v=127
122400 On ch=3 n=67 v=127
122459 On ch=3 n=67 v=0
122459 On ch=3 n=69 v=0
122520 On ch=3 n=67 v=127
122520 On ch=3 n=69 v=127
122579 On ch=3 n=69 v=0
122579 On ch=3 n=67 v=0
122640 On ch=3 n=69 v=127
122640 On ch=3 n=67 v=127
122699 On ch=3 n=67 v=0
122699 On ch=3 n=69 v=0
122760 On ch=3 n=67 v=127
122760 On ch=3 n=69 v=127
122819 On ch=3 n=69 v=0
122819 On ch=3 n=67 v=0
122880 On ch=3 n=69 v=127
122880 On ch=3 n=67 v=127
122939 On ch=3 n=67 v=0
122939 On ch=3 n=69 v=0
123000 On ch=3 n=67 v=127
123000 On ch=3 n=69 v=127
123059 On ch=3 n=69 v=0
123059 On ch=3 n=67 v=0
123120 On ch=3 n=69 v=127
123120 On ch=3 n=67 v=127
123719 On ch=3 n=67 v=0
123719 On ch=3 n=69 v=0
123720 On ch=3 n=69 v=127
123720 On ch=3 n=64 v=127
123839 On ch=3 n=64 v=0
123839 On ch=3 n=69 v=0
125280 On ch=3 n=70 v=127
125280 On ch=3 n=67 v=127
125339 On ch=3 n=67 v=0
125339 On ch=3 n=70 v=0
125400 On ch=3 n=67 v=127
125400 On ch=3 n=70 v=127
125459 On ch=3 n=70 v=0
125459 On ch=3 n=67 v=0
125520 On ch=3 n=70 v=127
125520 On ch=3 n=67 v=127
125579 On ch=3 n=67 v=0
125579 On ch=3 n=70 v=0
125640 On ch=3 n=67 v=127
125640 On ch=3 n=70 v=127
125699 On ch=3 n=70 v=0
125699 On ch=3 n=67 v=0
125760 On ch=3 n=70 v=127
125760 On ch=3 n=67 v=127
125819 On ch=3 n=67 v=0
125819 On ch=3 n=70 v=0
125880 On ch=3 n=67 v=127
125880 On ch=3 n=70 v=127
125939 On ch=3 n=70 v=0
125939 On ch=3 n=67 v=0
126000 On ch=3 n=70 v=127
126000 On ch=3 n=67 v=127
126719 On ch=3 n=67 v=0
126719 On ch=3 n=70 v=0
126720 On ch=3 n=66 v=127
126720 On ch=3 n=72 v=127
126779 On ch=3 n=72 v=0
126779 On ch=3 n=66 v=0
126840 On ch=3 n=72 v=127
126840 On ch=3 n=66 v=127
126899 On ch=3 n=66 v=0
126899 On ch=3 n=72 v=0
126960 On ch=3 n=66 v=127
126960 On ch=3 n=72 v=127
127019 On ch=3 n=72 v=0
127019 On ch=3 n=66 v=0
127080 On ch=3 n=72 v=127
127080 On ch=3 n=66 v=127
127139 On ch=3 n=66 v=0
127139 On ch=3 n=72 v=0
127200 On ch=3 n=66 v=127
127200 On ch=3 n=72 v=127
127259 On ch=3 n=72 v=0
127259 On ch=3 n=66 v=0
127320 On ch=3 n=72 v=127
127320 On ch=3 n=66 v=127
127379 On ch=3 n=66 v=0
127379 On ch=3 n=72 v=0
127440 On ch=3 n=66 v=127
127440 On ch=3 n=72 v=127
128039 On ch=3 n=72 v=0
128039 On ch=3 n=66 v=0
128040 On ch=3 n=69 v=127
128040 On ch=3 n=66 v=127
128159 On ch=3 n=66 v=0
128159 On ch=3 n=69 v=0
128160 On ch=3 n=62 v=48
128160 On ch=3 n=67 v=48
128279 On ch=3 n=67 v=0
128279 On ch=3 n=62 v=0
131580 On ch=3 n=70 v=96
131639 On ch=3 n=70 v=0
131640 On ch=3 n=70 v=96
131699 On ch=3 n=70 v=0
131940 On ch=3 n=63 v=96
131940 On ch=3 n=75 v=96
131999 On ch=3 n=75 v=0
131999 On ch=3 n=63 v=0
132000 On ch=3 n=75 v=96
132000 On ch=3 n=63 v=96
132059 On ch=3 n=63 v=0
132059 On ch=3 n=75 v=0
132180 On ch=3 n=68 v=96
132239 On ch=3 n=68 v=0
132240 On ch=3 n=68 v=96
132299 On ch=3 n=68 v=0
132300 On ch=3 n=68 v=96
132359 On ch=3 n=68 v=0
132360 On ch=3 n=68 v=96
132419 On ch=3 n=68 v=0
132420 On ch=3 n=68 v=96
132479 On ch=3 n=68 v=0
132480 On ch=3 n=73 v=127
132480 On ch=3 n=68 v=127
132839 On ch=3 n=68 v=0
132839 On ch=3 n=73 v=0
132840 On ch=3 n=68 v=127
132840 On ch=3 n=74 v=127
133199 On ch=3 n=74 v=0
133199 On ch=3 n=68 v=0
133200 On ch=3 n=75 v=127
133200 On ch=3 n=67 v=127
133319 On ch=3 n=67 v=0
133319 On ch=3 n=75 v=0
133320 On ch=3 n=77 v=48
133500 On ch=3 n=75 v=48
133509 On ch=3 n=77 v=0
133560 On ch=3 n=74 v=48
133569 On ch=3 n=75 v=0
133679 On ch=3 n=74 v=0
133680 On ch=3 n=75 v=48
133860 On ch=3 n=73 v=48
133869 On ch=3 n=75 v=0
133920 On ch=3 n=70 v=48
133929 On ch=3 n=73 v=0
134039 On ch=3 n=70 v=0
134040 On ch=3 n=75 v=48
134220 On ch=3 n=72 v=48
134229 On ch=3 n=75 v=0
134280 On ch=3 n=67 v=48
134289 On ch=3 n=72 v=0
134399 On ch=3 n=67 v=0
134760 On ch=3 n=77 v=48
134940 On ch=3 n=75 v=48
134949 On ch=3 n=77 v=0
135000 On ch=3 n=74 v=48
135009 On ch=3 n=75 v=0
135119 On ch=3 n=74 v=0
135120 On ch=3 n=75 v=48
135300 On ch=3 n=72 v=48
135309 On ch=3 n=75 v=0
135360 On ch=3 n=68 v=48
135369 On ch=3 n=72 v=0
135479 On ch=3 n=68 v=0
135480 On ch=3 n=72 v=48
135660 On ch=3 n=68 v=48
135669 On ch=3 n=72 v=0
135720 On ch=3 n=63 v=48
135729 On ch=3 n=68 v=0
135839 On ch=3 n=63 v=0
136080 On ch=3 n=63 v=96
136109 On ch=3 n=63 v=0
136110 On ch=3 n=63 v=48
136500 On ch=3 n=65 v=48
136529 On ch=3 n=65 v=0
136560 On ch=3 n=67 v=48
136589 On ch=3 n=67 v=0
136619 On ch=3 n=63 v=0
136620 On ch=3 n=65 v=48
136620 On ch=3 n=68 v=48
136649 On ch=3 n=68 v=0
136649 On ch=3 n=65 v=0
136680 On ch=3 n=70 v=48
136680 On ch=3 n=67 v=48
136709 On ch=3 n=67 v=0
136709 On ch=3 n=70 v=0
136740 On ch=3 n=68 v=48
136740 On ch=3 n=72 v=48
136769 On ch=3 n=72 v=0
136769 On ch=3 n=68 v=0
136800 On ch=3 n=73 v=48
136800 On ch=3 n=70 v=48
136919 On ch=3 n=70 v=0
136919 On ch=3 n=73 v=0
138480 On ch=3 n=73 v=96
138509 On ch=3 n=73 v=0
138510 On ch=3 n=73 v=48
138720 On ch=3 n=72 v=48
138729 On ch=3 n=73 v=0
138780 On ch=3 n=70 v=48
138789 On ch=3 n=72 v=0
138840 On ch=3 n=68 v=48
138849 On ch=3 n=70 v=0
138900 On ch=3 n=67 v=48
138909 On ch=3 n=68 v=0
138959 On ch=3 n=67 v=0
138960 On ch=3 n=65 v=48
139079 On ch=3 n=65 v=0
141960 On ch=3 n=68 v=70
141960 On ch=3 n=65 v=70
142019 On ch=3 n=65 v=0
142019 On ch=3 n=68 v=0
142080 On ch=3 n=80 v=75
142080 On ch=3 n=77 v=75
142320 On ch=3 n=75 v=85
142320 On ch=3 n=79 v=85
142329 On ch=3 n=77 v=0
142329 On ch=3 n=80 v=0
142439 On ch=3 n=75 v=0
142439 On ch=3 n=79 v=0
143040 On ch=3 n=65 v=115
143040 On ch=3 n=62 v=115
143099 On ch=3 n=62 v=0
143099 On ch=3 n=65 v=0
143160 On ch=3 n=74 v=120
143160 On ch=3 n=77 v=120
143399 On ch=3 n=77 v=0
143399 On ch=3 n=74 v=0
143400 On ch=3 n=74 v=127
143400 On ch=3 n=62 v=127
143999 On ch=3 n=62 v=0
143999 On ch=3 n=74 v=0
149880 On ch=3 n=73 v=127
149880 On ch=3 n=67 v=127
150599 On ch=3 n=67 v=0
150599 On ch=3 n=73 v=0
150600 On ch=3 n=67 v=127
150600 On ch=3 n=73 v=127
150839 On ch=3 n=73 v=0
150839 On ch=3 n=67 v=0
150840 On ch=3 n=73 v=127
150840 On ch=3 n=67 v=127
151079 On ch=3 n=67 v=0
151079 On ch=3 n=73 v=0
151080 On ch=3 n=67 v=127
151080 On ch=3 n=73 v=127
151319 On ch=3 n=73 v=0
151319 On ch=3 n=67 v=0
151320 On ch=3 n=73 v=127
151320 On ch=3 n=67 v=127
151559 On ch=3 n=67 v=0
151559 On ch=3 n=73 v=0
151560 On ch=3 n=67 v=127
151560 On ch=3 n=73 v=127
151799 On ch=3 n=73 v=0
151799 On ch=3 n=67 v=0
151800 On ch=3 n=73 v=127
151800 On ch=3 n=67 v=127
151919 On ch=3 n=67 v=0
151919 On ch=3 n=73 v=0
152040 On ch=3 n=72 v=127
152040 On ch=3 n=66 v=127
152279 On ch=3 n=66 v=0
152279 On ch=3 n=72 v=0
152280 On ch=3 n=66 v=127
152280 On ch=3 n=72 v=127
152519 On ch=3 n=72 v=0
152519 On ch=3 n=66 v=0
152520 On ch=3 n=72 v=127
152520 On ch=3 n=66 v=127
152639 On ch=3 n=66 v=0
152639 On ch=3 n=72 v=0
152760 On ch=3 n=72 v=127
152760 On ch=3 n=64 v=127
152999 On ch=3 n=64 v=0
152999 On ch=3 n=72 v=0
153000 On ch=3 n=64 v=127
153000 On ch=3 n=72 v=127
153239 On ch=3 n=72 v=0
153239 On ch=3 n=64 v=0
153240 On ch=3 n=72 v=127
153240 On ch=3 n=64 v=127
153299 On ch=3 n=64 v=0
153299 On ch=3 n=72 v=0
153360 On ch=3 n=64 v=96
153360 On ch=3 n=72 v=96
153599 On ch=3 n=72 v=0
153599 On ch=3 n=64 v=0
153720 On ch=3 n=72 v=96
153720 On ch=3 n=64 v=96
153959 On ch=3 n=64 v=0
153959 On ch=3 n=72 v=0
154080 On ch=3 n=64 v=96
154080 On ch=3 n=72 v=96
154319 On ch=3 n=72 v=0
154319 On ch=3 n=64 v=0
154440 On ch=3 n=72 v=96
154440 On ch=3 n=64 v=96
154679 On ch=3 n=64 v=0
154679 On ch=3 n=72 v=0
154680 On ch=3 n=64 v=96
154680 On ch=3 n=72 v=96
154739 On ch=3 n=72 v=0
154739 On ch=3 n=64 v=0
166320 On ch=3 n=60 v=96
166440 On ch=3 n=63 v=96
166449 On ch=3 n=60 v=0
166560 On ch=3 n=67 v=96
166569 On ch=3 n=63 v=0
166679 On ch=3 n=67 v=0
166680 On ch=3 n=68 v=112
166920 On ch=3 n=60 v=96
166929 On ch=3 n=68 v=0
167039 On ch=3 n=60 v=0
167040 On ch=3 n=61 v=96
167160 On ch=3 n=65 v=96
167169 On ch=3 n=61 v=0
167280 On ch=3 n=69 v=96
167289 On ch=3 n=65 v=0
167399 On ch=3 n=69 v=0
167400 On ch=3 n=70 v=112
167640 On ch=3 n=62 v=96
167649 On ch=3 n=70 v=0
167759 On ch=3 n=62 v=0
167760 On ch=3 n=63 v=96
167819 On ch=3 n=63 v=0
167880 On ch=3 n=67 v=96
167939 On ch=3 n=67 v=0
168000 On ch=3 n=70 v=96
168059 On ch=3 n=70 v=0
168120 On ch=3 n=63 v=96
168120 On ch=3 n=75 v=96
168179 On ch=3 n=75 v=0
168179 On ch=3 n=63 v=0
168240 On ch=3 n=67 v=96
168240 On ch=3 n=79 v=96
168299 On ch=3 n=79 v=0
168299 On ch=3 n=67 v=0
168360 On ch=3 n=70 v=112
168360 On ch=3 n=82 v=112
168539 On ch=3 n=82 v=0
168539 On ch=3 n=70 v=0
168540 On ch=3 n=68 v=96
168540 On ch=3 n=80 v=96
168569 On ch=3 n=80 v=0
168569 On ch=3 n=68 v=0
168600 On ch=3 n=65 v=96
168600 On ch=3 n=77 v=96
168629 On ch=3 n=77 v=0
168629 On ch=3 n=65 v=0
168660 On ch=3 n=62 v=96
168660 On ch=3 n=74 v=96
168689 On ch=3 n=74 v=0
168689 On ch=3 n=62 v=0
168720 On ch=3 n=58 v=96
168720 On ch=3 n=70 v=96
168749 On ch=3 n=70 v=0
168749 On ch=3 n=58 v=0
168780 On ch=3 n=68 v=96
168809 On ch=3 n=68 v=0
168840 On ch=3 n=65 v=96
168869 On ch=3 n=65 v=0
168900 On ch=3 n=68 v=96
168929 On ch=3 n=68 v=0
168960 On ch=3 n=65 v=96
168989 On ch=3 n=65 v=0
169020 On ch=3 n=62 v=96
169049 On ch=3 n=62 v=0
169080 On ch=3 n=58 v=96
169109 On ch=3 n=58 v=0
169140 On ch=3 n=62 v=96
169169 On ch=3 n=62 v=0
169200 On ch=3 n=63 v=127
169319 On ch=3 n=63 v=0
170040 On ch=3 n=75 v=48
170040 On ch=3 n=66 v=48
170160 On ch=3 n=68 v=48
170160 On ch=3 n=74 v=48
170169 On ch=3 n=66 v=0
170169 On ch=3 n=75 v=0
170280 On ch=3 n=75 v=56
170280 On ch=3 n=70 v=56
170289 On ch=3 n=68 v=0
170289 On ch=3 n=74 v=0
170460 On ch=3 n=74 v=48
170460 On ch=3 n=77 v=48
170469 On ch=3 n=75 v=0
170469 On ch=3 n=70 v=0
170520 On ch=3 n=78 v=48
170520 On ch=3 n=75 v=48
170529 On ch=3 n=74 v=0
170529 On ch=3 n=77 v=0
170639 On ch=3 n=78 v=0
170639 On ch=3 n=75 v=0
170640 On ch=3 n=77 v=48
170640 On ch=3 n=70 v=48
170759 On ch=3 n=77 v=0
170760 On ch=3 n=82 v=48
170760 On ch=3 n=77 v=48
170769 On ch=3 n=70 v=0
170880 On ch=3 n=81 v=48
170880 On ch=3 n=75 v=48
170889 On ch=3 n=77 v=0
170889 On ch=3 n=82 v=0
171000 On ch=3 n=82 v=56
171000 On ch=3 n=74 v=56
171009 On ch=3 n=81 v=0
171009 On ch=3 n=75 v=0
171180 On ch=3 n=80 v=48
171189 On ch=3 n=82 v=0
171240 On ch=3 n=78 v=48
171240 On ch=3 n=75 v=48
171249 On ch=3 n=80 v=0
171249 On ch=3 n=74 v=0
171300 On ch=3 n=77 v=48
171309 On ch=3 n=78 v=0
171309 On ch=3 n=75 v=0
171359 On ch=3 n=77 v=0
171360 On ch=3 n=75 v=48
171360 On ch=3 n=66 v=48
171479 On ch=3 n=66 v=0
171479 On ch=3 n=75 v=0
171480 On ch=3 n=75 v=48
171600 On ch=3 n=77 v=48
171609 On ch=3 n=75 v=0
171720 On ch=3 n=78 v=48
171729 On ch=3 n=77 v=0
171900 On ch=3 n=77 v=40
171909 On ch=3 n=78 v=0
171960 On ch=3 n=75 v=32
171969 On ch=3 n=77 v=0
172079 On ch=3 n=75 v=0
172080 On ch=3 n=73 v=40
172500 On ch=3 n=71 v=48
172509 On ch=3 n=73 v=0
172560 On ch=3 n=70 v=48
172569 On ch=3 n=71 v=0
172620 On ch=3 n=71 v=48
172629 On ch=3 n=70 v=0
172680 On ch=3 n=73 v=48
172689 On ch=3 n=71 v=0
172740 On ch=3 n=71 v=48
172749 On ch=3 n=73 v=0
172800 On ch=3 n=70 v=48
172809 On ch=3 n=71 v=0
172919 On ch=3 n=70 v=0
176040 On ch=3 n=70 v=48
176280 On ch=3 n=74 v=48
176289 On ch=3 n=70 v=0
176400 On ch=3 n=70 v=48
176409 On ch=3 n=74 v=0
176640 On ch=3 n=65 v=48
176649 On ch=3 n=70 v=0
176759 On ch=3 n=65 v=0
176760 On ch=3 n=70 v=48
176880 On ch=3 n=74 v=48
176889 On ch=3 n=70 v=0
177000 On ch=3 n=77 v=48
177009 On ch=3 n=74 v=0
177120 On ch=3 n=78 v=48
177129 On ch=3 n=77 v=0
177239 On ch=3 n=78 v=0
177480 On ch=3 n=70 v=48
177480 On ch=3 n=66 v=48
177719 On ch=3 n=70 v=0
177720 On ch=3 n=75 v=48
177720 On ch=3 n=70 v=48
177729 On ch=3 n=66 v=0
177839 On ch=3 n=70 v=0
177839 On ch=3 n=75 v=0
177840 On ch=3 n=70 v=48
177840 On ch=3 n=66 v=48
178079 On ch=3 n=66 v=0
178080 On ch=3 n=66 v=48
178080 On ch=3 n=63 v=48
178089 On ch=3 n=70 v=0
178199 On ch=3 n=63 v=0
178199 On ch=3 n=66 v=0
178200 On ch=3 n=70 v=48
178200 On ch=3 n=66 v=48
178319 On ch=3 n=70 v=0
178320 On ch=3 n=75 v=48
178320 On ch=3 n=70 v=48
178329 On ch=3 n=66 v=0
178439 On ch=3 n=75 v=0
178440 On ch=3 n=78 v=48
178440 On ch=3 n=75 v=48
178449 On ch=3 n=70 v=0
178559 On ch=3 n=75 v=0
178559 On ch=3 n=78 v=0
178560 On ch=3 n=78 v=48
178560 On ch=3 n=75 v=48
178679 On ch=3 n=75 v=0
178679 On ch=3 n=78 v=0
178920 On ch=3 n=68 v=48
179160 On ch=3 n=75 v=48
179169 On ch=3 n=68 v=0
179280 On ch=3 n=68 v=48
179289 On ch=3 n=75 v=0
179520 On ch=3 n=66 v=48
179529 On ch=3 n=68 v=0
179639 On ch=3 n=66 v=0
179640 On ch=3 n=68 v=48
179760 On ch=3 n=75 v=48
179769 On ch=3 n=68 v=0
179879 On ch=3 n=75 v=0
179880 On ch=3 n=78 v=48
179880 On ch=3 n=75 v=48
179999 On ch=3 n=75 v=0
179999 On ch=3 n=78 v=0
180000 On ch=3 n=77 v=48
180000 On ch=3 n=73 v=48
180119 On ch=3 n=73 v=0
180119 On ch=3 n=77 v=0
180360 On ch=3 n=73 v=48
180360 On ch=3 n=68 v=48
180599 On ch=3 n=68 v=0
180600 On ch=3 n=77 v=48
180600 On ch=3 n=68 v=48
180609 On ch=3 n=73 v=0
180719 On ch=3 n=68 v=0
180720 On ch=3 n=73 v=48
180720 On ch=3 n=68 v=48
180729 On ch=3 n=77 v=0
180959 On ch=3 n=68 v=0
180960 On ch=3 n=68 v=48
180960 On ch=3 n=65 v=48
180969 On ch=3 n=73 v=0
181079 On ch=3 n=65 v=0
181079 On ch=3 n=68 v=0
181080 On ch=3 n=68 v=48
181080 On ch=3 n=65 v=48
181199 On ch=3 n=68 v=0
181200 On ch=3 n=73 v=48
181200 On ch=3 n=68 v=48
181209 On ch=3 n=65 v=0
181319 On ch=3 n=73 v=0
181320 On ch=3 n=77 v=48
181320 On ch=3 n=73 v=48
181329 On ch=3 n=68 v=0
181439 On ch=3 n=73 v=0
181439 On ch=3 n=77 v=0
181440 On ch=3 n=77 v=48
181440 On ch=3 n=70 v=48
181559 On ch=3 n=70 v=0
181559 On ch=3 n=77 v=0
181800 On ch=3 n=70 v=48
181800 On ch=3 n=68 v=48
182039 On ch=3 n=70 v=0
182040 On ch=3 n=77 v=48
182040 On ch=3 n=70 v=48
182049 On ch=3 n=68 v=0
182159 On ch=3 n=70 v=0
182159 On ch=3 n=77 v=0
182160 On ch=3 n=70 v=48
182160 On ch=3 n=68 v=48
182399 On ch=3 n=68 v=0
182400 On ch=3 n=68 v=48
182400 On ch=3 n=65 v=48
182409 On ch=3 n=70 v=0
182519 On ch=3 n=65 v=0
182519 On ch=3 n=68 v=0
182520 On ch=3 n=70 v=48
182520 On ch=3 n=68 v=48
182639 On ch=3 n=70 v=0
182640 On ch=3 n=77 v=48
182640 On ch=3 n=70 v=48
182649 On ch=3 n=68 v=0
182759 On ch=3 n=77 v=0
182760 On ch=3 n=80 v=48
182760 On ch=3 n=77 v=48
182769 On ch=3 n=70 v=0
182879 On ch=3 n=77 v=0
182879 On ch=3 n=80 v=0
183240 On ch=3 n=63 v=72
183240 On ch=3 n=75 v=72
183480 On ch=3 n=78 v=68
183480 On ch=3 n=66 v=68
183489 On ch=3 n=75 v=0
183489 On ch=3 n=63 v=0
183599 On ch=3 n=78 v=0
183599 On ch=3 n=66 v=0
183960 On ch=3 n=63 v=96
183960 On ch=3 n=75 v=96
184200 On ch=3 n=78 v=96
184200 On ch=3 n=66 v=96
184209 On ch=3 n=75 v=0
184209 On ch=3 n=63 v=0
184319 On ch=3 n=78 v=0
184319 On ch=3 n=66 v=0
184320 On ch=3 n=75 v=127
184320 On ch=3 n=66 v=127
185159 On ch=3 n=66 v=0
185159 On ch=3 n=75 v=0
185160 On ch=3 n=75 v=127
185160 On ch=3 n=66 v=127
185279 On ch=3 n=66 v=0
185279 On ch=3 n=75 v=0
185280 On ch=3 n=75 v=127
185280 On ch=3 n=66 v=127
185399 On ch=3 n=66 v=0
185399 On ch=3 n=75 v=0
185400 On ch=3 n=75 v=127
185400 On ch=3 n=66 v=127
185519 On ch=3 n=66 v=0
185519 On ch=3 n=75 v=0
185520 On ch=3 n=75 v=127
185520 On ch=3 n=66 v=127
185639 On ch=3 n=66 v=0
185639 On ch=3 n=75 v=0
185640 On ch=3 n=75 v=127
185640 On ch=3 n=66 v=127
185759 On ch=3 n=66 v=0
185759 On ch=3 n=75 v=0
185760 On ch=3 n=75 v=127
185760 On ch=3 n=66 v=127
185879 On ch=3 n=66 v=0
185879 On ch=3 n=75 v=0
187200 On ch=3 n=69 v=48
187559 On ch=3 n=69 v=0
187560 On ch=3 n=69 v=48
187919 On ch=3 n=69 v=0
187920 On ch=3 n=69 v=48
188279 On ch=3 n=69 v=0
188280 On ch=3 n=69 v=48
188639 On ch=3 n=69 v=0
188640 On ch=3 n=68 v=48
188999 On ch=3 n=68 v=0
189000 On ch=3 n=68 v=44
189359 On ch=3 n=68 v=0
189360 On ch=3 n=66 v=40
189719 On ch=3 n=66 v=0
189720 On ch=3 n=66 v=36
190079 On ch=3 n=66 v=0
190080 On ch=3 n=68 v=32
190080 On ch=3 n=65 v=32
190439 On ch=3 n=65 v=0
190439 On ch=3 n=68 v=0
190440 On ch=3 n=65 v=32
190440 On ch=3 n=68 v=32
190799 On ch=3 n=68 v=0
190799 On ch=3 n=65 v=0
190800 On ch=3 n=68 v=32
190800 On ch=3 n=65 v=32
191159 On ch=3 n=65 v=0
191159 On ch=3 n=68 v=0
191160 On ch=3 n=65 v=32
191160 On ch=3 n=68 v=32
191519 On ch=3 n=68 v=0
191519 On ch=3 n=65 v=0
192240 On ch=3 n=71 v=32
192240 On ch=3 n=68 v=32
192599 On ch=3 n=68 v=0
192599 On ch=3 n=71 v=0
192600 On ch=3 n=68 v=32
192600 On ch=3 n=71 v=32
192959 On ch=3 n=71 v=0
192959 On ch=3 n=68 v=0
193680 On ch=3 n=70 v=32
193680 On ch=3 n=68 v=32
194039 On ch=3 n=68 v=0
194039 On ch=3 n=70 v=0
194040 On ch=3 n=68 v=32
194040 On ch=3 n=70 v=32
194399 On ch=3 n=70 v=0
194399 On ch=3 n=68 v=0
196560 On ch=3 n=68 v=96
196560 On ch=3 n=65 v=96
196919 On ch=3 n=65 v=0
196919 On ch=3 n=68 v=0
196920 On ch=3 n=77 v=127
196920 On ch=3 n=68 v=127
197279 On ch=3 n=68 v=0
197279 On ch=3 n=77 v=0
197280 On ch=3 n=67 v=127
197280 On ch=3 n=75 v=127
197399 On ch=3 n=75 v=0
197399 On ch=3 n=67 v=0
203760 On ch=3 n=68 v=48
203760 On ch=3 n=65 v=48
205199 On ch=3 n=65 v=0
205199 On ch=3 n=68 v=0
205200 On ch=3 n=68 v=48
205200 On ch=3 n=66 v=48
205919 On ch=3 n=66 v=0
205919 On ch=3 n=68 v=0
205920 On ch=3 n=68 v=48
205920 On ch=3 n=65 v=48
206280 On ch=3 n=63 v=56
206289 On ch=3 n=65 v=0
206640 On ch=3 n=62 v=32
206649 On ch=3 n=63 v=0
206759 On ch=3 n=62 v=0
206759 On ch=3 n=68 v=0
207960 On ch=3 n=72 v=53
207989 On ch=3 n=72 v=0
208020 On ch=3 n=70 v=55
208049 On ch=3 n=70 v=0
208080 On ch=3 n=68 v=58
208109 On ch=3 n=68 v=0
208140 On ch=3 n=70 v=60
208169 On ch=3 n=70 v=0
208200 On ch=3 n=68 v=62
208229 On ch=3 n=68 v=0
208260 On ch=3 n=67 v=64
208289 On ch=3 n=67 v=0
208320 On ch=3 n=68 v=64
208349 On ch=3 n=68 v=0
208380 On ch=3 n=67 v=68
208409 On ch=3 n=67 v=0
208440 On ch=3 n=65 v=72
208469 On ch=3 n=65 v=0
208500 On ch=3 n=63 v=76
208529 On ch=3 n=63 v=0
208560 On ch=3 n=62 v=80
208589 On ch=3 n=62 v=0
208620 On ch=3 n=63 v=84
208649 On ch=3 n=63 v=0
208680 On ch=3 n=65 v=88
208709 On ch=3 n=65 v=0
208740 On ch=3 n=68 v=92
208769 On ch=3 n=68 v=0
208800 On ch=3 n=67 v=96
208919 On ch=3 n=67 v=0
208920 On ch=3 n=70 v=96
208920 On ch=3 n=67 v=96
209039 On ch=3 n=67 v=0
209039 On ch=3 n=70 v=0
209040 On ch=3 n=70 v=96
209040 On ch=3 n=67 v=96
209159 On ch=3 n=67 v=0
209159 On ch=3 n=70 v=0
209160 On ch=3 n=70 v=96
209160 On ch=3 n=67 v=96
209399 On ch=3 n=67 v=0
209399 On ch=3 n=70 v=0
209400 On ch=3 n=70 v=96
209400 On ch=3 n=67 v=96
209519 On ch=3 n=67 v=0
209519 On ch=3 n=70 v=0
209520 On ch=3 n=70 v=96
209520 On ch=3 n=67 v=96
209639 On ch=3 n=67 v=0
209639 On ch=3 n=70 v=0
209640 On ch=3 n=70 v=96
209640 On ch=3 n=67 v=96
209759 On ch=3 n=67 v=0
209759 On ch=3 n=70 v=0
209760 On ch=3 n=70 v=96
209760 On ch=3 n=67 v=96
209879 On ch=3 n=67 v=0
209879 On ch=3 n=70 v=0
209880 On ch=3 n=70 v=96
209880 On ch=3 n=67 v=96
210119 On ch=3 n=67 v=0
210119 On ch=3 n=70 v=0
210120 On ch=3 n=70 v=112
210120 On ch=3 n=67 v=112
210239 On ch=3 n=67 v=0
210239 On ch=3 n=70 v=0
210240 On ch=3 n=72 v=96
210240 On ch=3 n=68 v=96
210359 On ch=3 n=68 v=0
210359 On ch=3 n=72 v=0
210360 On ch=3 n=72 v=96
210360 On ch=3 n=68 v=96
210479 On ch=3 n=68 v=0
210479 On ch=3 n=72 v=0
210480 On ch=3 n=72 v=96
210480 On ch=3 n=68 v=96
210599 On ch=3 n=68 v=0
210599 On ch=3 n=72 v=0
210600 On ch=3 n=72 v=96
210600 On ch=3 n=68 v=96
210839 On ch=3 n=68 v=0
210839 On ch=3 n=72 v=0
210840 On ch=3 n=72 v=112
210840 On ch=3 n=69 v=112
210959 On ch=3 n=69 v=0
210959 On ch=3 n=72 v=0
210960 On ch=3 n=73 v=112
210960 On ch=3 n=70 v=112
211319 On ch=3 n=70 v=0
211319 On ch=3 n=73 v=0
211320 On ch=3 n=72 v=112
211320 On ch=3 n=68 v=112
211679 On ch=3 n=68 v=0
211679 On ch=3 n=72 v=0
211680 On ch=3 n=71 v=112
211680 On ch=3 n=68 v=112
212159 On ch=3 n=68 v=0
212159 On ch=3 n=71 v=0
212160 On ch=3 n=70 v=112
212160 On ch=3 n=68 v=112
212279 On ch=3 n=68 v=0
212279 On ch=3 n=70 v=0
212280 On ch=3 n=70 v=112
212280 On ch=3 n=68 v=112
212399 On ch=3 n=68 v=0
212399 On ch=3 n=70 v=0
212400 On ch=3 n=70 v=127
212400 On ch=3 n=67 v=127
212639 On ch=3 n=67 v=0
212639 On ch=3 n=70 v=0
212640 On ch=3 n=75 v=127
212640 On ch=3 n=67 v=127
212759 On ch=3 n=67 v=0
212759 On ch=3 n=75 v=0
212760 On ch=3 n=75 v=127
212760 On ch=3 n=67 v=127
212999 On ch=3 n=67 v=0
212999 On ch=3 n=75 v=0
213000 On ch=3 n=75 v=127
213000 On ch=3 n=67 v=127
213239 On ch=3 n=67 v=0
213239 On ch=3 n=75 v=0
213240 On ch=3 n=75 v=127
213240 On ch=3 n=67 v=127
213359 On ch=3 n=67 v=0
213359 On ch=3 n=75 v=0
213360 On ch=3 n=75 v=127
213360 On ch=3 n=67 v=127
213479 On ch=3 n=67 v=0
213479 On ch=3 n=75 v=0
213480 On ch=3 n=75 v=127
213480 On ch=3 n=67 v=127
213719 On ch=3 n=67 v=0
213719 On ch=3 n=75 v=0
213720 On ch=3 n=75 v=127
213720 On ch=3 n=67 v=127
213959 On ch=3 n=67 v=0
213959 On ch=3 n=75 v=0
213960 On ch=3 n=75 v=127
213960 On ch=3 n=67 v=127
214079 On ch=3 n=67 v=0
214079 On ch=3 n=75 v=0
214080 On ch=3 n=75 v=127
214080 On ch=3 n=67 v=127
214199 On ch=3 n=67 v=0
214199 On ch=3 n=75 v=0
214200 On ch=3 n=75 v=127
214200 On ch=3 n=67 v=127
214439 On ch=3 n=67 v=0
214439 On ch=3 n=75 v=0
214440 On ch=3 n=76 v=127
214440 On ch=3 n=67 v=127
214559 On ch=3 n=67 v=0
214559 On ch=3 n=76 v=0
214560 On ch=3 n=77 v=127
214560 On ch=3 n=72 v=127
214919 On ch=3 n=72 v=0
214919 On ch=3 n=77 v=0
214920 On ch=3 n=76 v=127
214920 On ch=3 n=72 v=127
215279 On ch=3 n=72 v=0
215279 On ch=3 n=76 v=0
215280 On ch=3 n=74 v=127
215280 On ch=3 n=70 v=127
215399 On ch=3 n=70 v=0
215399 On ch=3 n=74 v=0
216120 On ch=3 n=80 v=48
216300 On ch=3 n=77 v=48
216309 On ch=3 n=80 v=0
216360 On ch=3 n=74 v=48
216369 On ch=3 n=77 v=0
216479 On ch=3 n=74 v=0
217560 On ch=3 n=79 v=48
217740 On ch=3 n=75 v=48
217749 On ch=3 n=79 v=0
217800 On ch=3 n=70 v=48
217809 On ch=3 n=75 v=0
217919 On ch=3 n=70 v=0
218280 On ch=3 n=71 v=96
218460 On ch=3 n=70 v=48
218469 On ch=3 n=71 v=0
218520 On ch=3 n=68 v=48
218529 On ch=3 n=70 v=0
218639 On ch=3 n=68 v=0
218640 On ch=3 n=71 v=96
218820 On ch=3 n=70 v=48
218829 On ch=3 n=71 v=0
218880 On ch=3 n=68 v=48
218889 On ch=3 n=70 v=0
218999 On ch=3 n=68 v=0
219600 On ch=3 n=67 v=48
219600 On ch=3 n=63 v=48
219840 On ch=3 n=68 v=54
219840 On ch=3 n=65 v=54
219849 On ch=3 n=63 v=0
219849 On ch=3 n=67 v=0
219900 On ch=3 n=70 v=56
219900 On ch=3 n=67 v=56
219909 On ch=3 n=68 v=0
219909 On ch=3 n=65 v=0
219960 On ch=3 n=72 v=56
219960 On ch=3 n=68 v=56
219969 On ch=3 n=70 v=0
219969 On ch=3 n=67 v=0
220080 On ch=3 n=74 v=53
220080 On ch=3 n=70 v=53
220089 On ch=3 n=72 v=0
220089 On ch=3 n=68 v=0
220200 On ch=3 n=75 v=50
220200 On ch=3 n=72 v=50
220209 On ch=3 n=74 v=0
220209 On ch=3 n=70 v=0
220319 On ch=3 n=75 v=0
220319 On ch=3 n=72 v=0
220320 On ch=3 n=75 v=48
220320 On ch=3 n=70 v=48
220439 On ch=3 n=70 v=0
220439 On ch=3 n=75 v=0
220500 On ch=3 n=63 v=48
220500 On ch=3 n=58 v=48
220560 On ch=3 n=65 v=48
220560 On ch=3 n=62 v=48
220569 On ch=3 n=58 v=0
220569 On ch=3 n=63 v=0
220620 On ch=3 n=67 v=48
220620 On ch=3 n=63 v=48
220629 On ch=3 n=65 v=0
220629 On ch=3 n=62 v=0
220679 On ch=3 n=67 v=0
220679 On ch=3 n=63 v=0
220680 On ch=3 n=68 v=48
220680 On ch=3 n=65 v=48
220769 On ch=3 n=65 v=0
220769 On ch=3 n=68 v=0
220800 On ch=3 n=68 v=48
220800 On ch=3 n=65 v=48
220889 On ch=3 n=65 v=0
220889 On ch=3 n=68 v=0
220920 On ch=3 n=68 v=48
220920 On ch=3 n=65 v=48
221009 On ch=3 n=65 v=0
221009 On ch=3 n=68 v=0
221040 On ch=3 n=67 v=48
221040 On ch=3 n=63 v=48
221159 On ch=3 n=63 v=0
221159 On ch=3 n=67 v=0
222480 On ch=3 n=74 v=96
222480 On ch=3 n=65 v=96
222539 On ch=3 n=65 v=0
222539 On ch=3 n=74 v=0
222600 On ch=3 n=74 v=96
222600 On ch=3 n=68 v=96
222659 On ch=3 n=68 v=0
222659 On ch=3 n=74 v=0
223140 On ch=3 n=68 v=96
223140 On ch=3 n=74 v=96
223199 On ch=3 n=74 v=0
223199 On ch=3 n=68 v=0
223200 On ch=3 n=75 v=96
223200 On ch=3 n=67 v=96
223259 On ch=3 n=67 v=0
223259 On ch=3 n=75 v=0
223320 On ch=3 n=67 v=96
223320 On ch=3 n=75 v=96
223379 On ch=3 n=75 v=0
223379 On ch=3 n=67 v=0
223860 On ch=3 n=67 v=96
223860 On ch=3 n=72 v=96
223919 On ch=3 n=72 v=0
223919 On ch=3 n=67 v=0
223920 On ch=3 n=73 v=96
223920 On ch=3 n=67 v=96
223979 On ch=3 n=67 v=0
223979 On ch=3 n=73 v=0
224040 On ch=3 n=67 v=96
224040 On ch=3 n=73 v=96
224099 On ch=3 n=73 v=0
224099 On ch=3 n=67 v=0
224580 On ch=3 n=67 v=96
224580 On ch=3 n=73 v=96
224609 On ch=3 n=73 v=0
224609 On ch=3 n=67 v=0
224640 On ch=3 n=72 v=96
224640 On ch=3 n=68 v=96
224669 On ch=3 n=68 v=0
224669 On ch=3 n=72 v=0
227520 On ch=3 n=70 v=112
227520 On ch=3 n=58 v=112
228299 On ch=3 n=58 v=0
228299 On ch=3 n=70 v=0
228300 On ch=3 n=69 v=127
228329 On ch=3 n=69 v=0
228360 On ch=3 n=68 v=127
228389 On ch=3 n=68 v=0
228420 On ch=3 n=67 v=127
228449 On ch=3 n=67 v=0
228480 On ch=3 n=65 v=127
228509 On ch=3 n=65 v=0
228540 On ch=3 n=63 v=127
228569 On ch=3 n=63 v=0
228600 On ch=3 n=62 v=127
228629 On ch=3 n=62 v=0
228660 On ch=3 n=72 v=127
228689 On ch=3 n=72 v=0
228720 On ch=3 n=70 v=127
228749 On ch=3 n=70 v=0
228780 On ch=3 n=68 v=127
228809 On ch=3 n=68 v=0
228840 On ch=3 n=67 v=127
228869 On ch=3 n=67 v=0
228900 On ch=3 n=65 v=127
228929 On ch=3 n=65 v=0
228960 On ch=3 n=63 v=127
229079 On ch=3 n=63 v=0
229080 On ch=3 n=79 v=48
229080 On ch=3 n=70 v=48
229169 On ch=3 n=70 v=0
229169 On ch=3 n=79 v=0
229200 On ch=3 n=79 v=48
229200 On ch=3 n=70 v=48
229289 On ch=3 n=70 v=0
229289 On ch=3 n=79 v=0
229320 On ch=3 n=70 v=56
229320 On ch=3 n=79 v=56
229409 On ch=3 n=79 v=0
229409 On ch=3 n=70 v=0
229440 On ch=3 n=79 v=64
229440 On ch=3 n=70 v=64
229529 On ch=3 n=70 v=0
229529 On ch=3 n=79 v=0
229560 On ch=3 n=79 v=72
229560 On ch=3 n=70 v=72
229649 On ch=3 n=70 v=0
229649 On ch=3 n=79 v=0
229680 On ch=3 n=79 v=80
229680 On ch=3 n=70 v=80
229769 On ch=3 n=70 v=0
229769 On ch=3 n=79 v=0
229800 On ch=3 n=70 v=88
229800 On ch=3 n=79 v=88
229889 On ch=3 n=79 v=0
229889 On ch=3 n=70 v=0
229920 On ch=3 n=79 v=96
229920 On ch=3 n=71 v=96
230040 On ch=3 n=72 v=96
230049 On ch=3 n=71 v=0
230280 On ch=3 n=77 v=56
230289 On ch=3 n=79 v=0
230399 On ch=3 n=77 v=0
230399 On ch=3 n=72 v=0
231960 On ch=3 n=78 v=48
231960 On ch=3 n=70 v=48
232049 On ch=3 n=70 v=0
232049 On ch=3 n=78 v=0
232080 On ch=3 n=78 v=48
232080 On ch=3 n=70 v=48
232169 On ch=3 n=70 v=0
232169 On ch=3 n=78 v=0
232200 On ch=3 n=78 v=56
232200 On ch=3 n=70 v=56
232289 On ch=3 n=70 v=0
232289 On ch=3 n=78 v=0
232320 On ch=3 n=78 v=64
232320 On ch=3 n=71 v=64
232409 On ch=3 n=71 v=0
232409 On ch=3 n=78 v=0
232440 On ch=3 n=78 v=72
232440 On ch=3 n=71 v=72
232529 On ch=3 n=71 v=0
232529 On ch=3 n=78 v=0
232560 On ch=3 n=78 v=80
232560 On ch=3 n=71 v=80
232649 On ch=3 n=71 v=0
232649 On ch=3 n=78 v=0
232680 On ch=3 n=78 v=85
232680 On ch=3 n=71 v=85
232769 On ch=3 n=71 v=0
232769 On ch=3 n=78 v=0
232800 On ch=3 n=78 v=92
232800 On ch=3 n=71 v=92
232889 On ch=3 n=71 v=0
232889 On ch=3 n=78 v=0
232920 On ch=3 n=78 v=96
232920 On ch=3 n=71 v=96
233160 On ch=3 n=77 v=56
233169 On ch=3 n=78 v=0
233279 On ch=3 n=77 v=0
233279 On ch=3 n=71 v=0
234120 On ch=3 n=75 v=48
234240 On ch=3 n=72 v=48
234249 On ch=3 n=75 v=0
234360 On ch=3 n=70 v=48
234369 On ch=3 n=72 v=0
234480 On ch=3 n=63 v=48
234569 On ch=3 n=63 v=0
234600 On ch=3 n=63 v=56
234600 On ch=3 n=69 v=56
234609 On ch=3 n=70 v=0
234689 On ch=3 n=63 v=0
234719 On ch=3 n=69 v=0
234720 On ch=3 n=65 v=48
234720 On ch=3 n=68 v=48
234839 On ch=3 n=68 v=0
234839 On ch=3 n=65 v=0
237840 On ch=3 n=56 v=78
237840 On ch=3 n=53 v=78
237869 On ch=3 n=53 v=0
237869 On ch=3 n=56 v=0
237900 On ch=3 n=58 v=80
237900 On ch=3 n=55 v=80
237929 On ch=3 n=55 v=0
237929 On ch=3 n=58 v=0
237960 On ch=3 n=60 v=82
237960 On ch=3 n=56 v=82
237989 On ch=3 n=56 v=0
237989 On ch=3 n=60 v=0
238020 On ch=3 n=62 v=84
238020 On ch=3 n=58 v=84
238049 On ch=3 n=58 v=0
238049 On ch=3 n=62 v=0
238080 On ch=3 n=63 v=87
238080 On ch=3 n=60 v=87
238109 On ch=3 n=60 v=0
238109 On ch=3 n=63 v=0
238140 On ch=3 n=65 v=89
238140 On ch=3 n=62 v=89
238169 On ch=3 n=62 v=0
238169 On ch=3 n=65 v=0
238200 On ch=3 n=67 v=92
238200 On ch=3 n=63 v=92
238229 On ch=3 n=63 v=0
238229 On ch=3 n=67 v=0
238260 On ch=3 n=68 v=94
238260 On ch=3 n=65 v=94
238289 On ch=3 n=65 v=0
238289 On ch=3 n=68 v=0
238320 On ch=3 n=70 v=96
238320 On ch=3 n=67 v=96
238439 On ch=3 n=67 v=0
238439 On ch=3 n=70 v=0
238440 On ch=3 n=67 v=96
238440 On ch=3 n=70 v=96
238679 On ch=3 n=70 v=0
238679 On ch=3 n=67 v=0
238800 On ch=3 n=70 v=96
238800 On ch=3 n=67 v=96
239039 On ch=3 n=67 v=0
239039 On ch=3 n=70 v=0
239160 On ch=3 n=68 v=96
239160 On ch=3 n=70 v=96
239399 On ch=3 n=70 v=0
239399 On ch=3 n=68 v=0
239520 On ch=3 n=65 v=96
239520 On ch=3 n=70 v=96
239639 On ch=3 n=70 v=0
239639 On ch=3 n=65 v=0
239640 On ch=3 n=70 v=96
239640 On ch=3 n=65 v=96
239759 On ch=3 n=65 v=0
239759 On ch=3 n=70 v=0
239760 On ch=3 n=67 v=127
239760 On ch=3 n=70 v=127
239879 On ch=3 n=70 v=0
239879 On ch=3 n=67 v=0
240480 On ch=3 n=77 v=127
240480 On ch=3 n=65 v=127
240539 On ch=3 n=65 v=0
240539 On ch=3 n=77 v=0
240600 On ch=3 n=68 v=127
240600 On ch=3 n=80 v=127
240779 On ch=3 n=80 v=0
240779 On ch=3 n=68 v=0
240780 On ch=3 n=58 v=127
240780 On ch=3 n=70 v=127
240839 On ch=3 n=70 v=0
240839 On ch=3 n=58 v=0
240840 On ch=3 n=74 v=127
240840 On ch=3 n=62 v=127
240899 On ch=3 n=62 v=0
240899 On ch=3 n=74 v=0
240960 On ch=3 n=77 v=127
240960 On ch=3 n=65 v=127
241139 On ch=3 n=65 v=0
241139 On ch=3 n=77 v=0
241140 On ch=3 n=58 v=127
241140 On ch=3 n=70 v=127
241199 On ch=3 n=70 v=0
241199 On ch=3 n=58 v=0
241200 On ch=3 n=70 v=127
241200 On ch=3 n=75 v=127
241500 On ch=3 n=69 v=127
241509 On ch=3 n=70 v=0
241560 On ch=3 n=70 v=127
241569 On ch=3 n=69 v=0
241679 On ch=3 n=70 v=0
241679 On ch=3 n=75 v=0
242940 On ch=3 n=67 v=127
242940 On ch=3 n=71 v=127
242999 On ch=3 n=71 v=0
242999 On ch=3 n=67 v=0
243000 On ch=3 n=72 v=127
243000 On ch=3 n=67 v=127
243029 On ch=3 n=67 v=0
243029 On ch=3 n=72 v=0
243060 On ch=3 n=74 v=127
243060 On ch=3 n=67 v=127
243089 On ch=3 n=67 v=0
243089 On ch=3 n=74 v=0
243120 On ch=3 n=75 v=127
243120 On ch=3 n=67 v=127
243149 On ch=3 n=67 v=0
243149 On ch=3 n=75 v=0
243180 On ch=3 n=76 v=127
243180 On ch=3 n=72 v=127
243209 On ch=3 n=72 v=0
243209 On ch=3 n=76 v=0
243240 On ch=3 n=77 v=127
243240 On ch=3 n=72 v=127
243269 On ch=3 n=72 v=0
243269 On ch=3 n=77 v=0
243300 On ch=3 n=78 v=127
243300 On ch=3 n=72 v=127
243329 On ch=3 n=72 v=0
243329 On ch=3 n=78 v=0
243360 On ch=3 n=71 v=127
243360 On ch=3 n=79 v=127
243419 On ch=3 n=79 v=0
243419 On ch=3 n=71 v=0
243480 On ch=3 n=74 v=127
243480 On ch=3 n=77 v=127
243539 On ch=3 n=77 v=0
243539 On ch=3 n=74 v=0
243600 On ch=3 n=72 v=127
243600 On ch=3 n=75 v=127
243659 On ch=3 n=75 v=0
243659 On ch=3 n=72 v=0
243840 On ch=3 n=70 v=127
243840 On ch=3 n=73 v=127
243899 On ch=3 n=73 v=0
243899 On ch=3 n=70 v=0
243960 On ch=3 n=72 v=127
243960 On ch=3 n=68 v=127
244019 On ch=3 n=68 v=0
244019 On ch=3 n=72 v=0
244200 On ch=3 n=75 v=127
244200 On ch=3 n=72 v=127
244259 On ch=3 n=72 v=0
244259 On ch=3 n=75 v=0
244320 On ch=3 n=70 v=127
244320 On ch=3 n=74 v=127
244379 On ch=3 n=74 v=0
244379 On ch=3 n=70 v=0
244560 On ch=3 n=77 v=127
244560 On ch=3 n=74 v=127
244619 On ch=3 n=74 v=0
244619 On ch=3 n=77 v=0
244680 On ch=3 n=72 v=127
244680 On ch=3 n=75 v=127
244739 On ch=3 n=75 v=0
244739 On ch=3 n=72 v=0
244920 On ch=3 n=73 v=127
244920 On ch=3 n=70 v=127
244979 On ch=3 n=70 v=0
244979 On ch=3 n=73 v=0
245040 On ch=3 n=68 v=127
245040 On ch=3 n=72 v=127
245099 On ch=3 n=72 v=0
245099 On ch=3 n=68 v=0
245280 On ch=3 n=75 v=127
245280 On ch=3 n=66 v=127
245339 On ch=3 n=66 v=0
245339 On ch=3 n=75 v=0
245520 On ch=3 n=66 v=127
245520 On ch=3 n=75 v=127
245579 On ch=3 n=75 v=0
245579 On ch=3 n=66 v=0
245760 On ch=3 n=75 v=127
245760 On ch=3 n=66 v=127
245819 On ch=3 n=66 v=0
245819 On ch=3 n=75 v=0
246000 On ch=3 n=66 v=127
246000 On ch=3 n=75 v=127
246059 On ch=3 n=75 v=0
246059 On ch=3 n=66 v=0
246240 On ch=3 n=75 v=127
246240 On ch=3 n=66 v=127
246299 On ch=3 n=66 v=0
246299 On ch=3 n=75 v=0
246480 On ch=3 n=66 v=127
246480 On ch=3 n=75 v=127
246539 On ch=3 n=75 v=0
246539 On ch=3 n=66 v=0
246960 On ch=3 n=63 v=96
246960 On ch=3 n=69 v=96
246989 On ch=3 n=69 v=0
246989 On ch=3 n=63 v=0
246990 On ch=3 n=69 v=48
246990 On ch=3 n=63 v=48
247319 On ch=3 n=69 v=0
247320 On ch=3 n=70 v=48
247679 On ch=3 n=70 v=0
247679 On ch=3 n=63 v=0
247680 On ch=3 n=63 v=96
247680 On ch=3 n=69 v=96
247709 On ch=3 n=69 v=0
247709 On ch=3 n=63 v=0
247710 On ch=3 n=69 v=48
247710 On ch=3 n=63 v=48
248160 On ch=3 n=68 v=48
248169 On ch=3 n=69 v=0
248279 On ch=3 n=68 v=0
248279 On ch=3 n=63 v=0
248280 On ch=3 n=68 v=48
248339 On ch=3 n=68 v=0
248520 On ch=3 n=68 v=48
248579 On ch=3 n=68 v=0
248760 On ch=3 n=68 v=48
248760 On ch=3 n=70 v=48
248819 On ch=3 n=70 v=0
248819 On ch=3 n=68 v=0
249000 On ch=3 n=70 v=48
249000 On ch=3 n=68 v=48
249059 On ch=3 n=68 v=0
249059 On ch=3 n=70 v=0
249240 On ch=3 n=70 v=48
249240 On ch=3 n=67 v=48
249299 On ch=3 n=67 v=0
249299 On ch=3 n=70 v=0
250020 On ch=3 n=68 v=87
250020 On ch=3 n=72 v=87
250080 On ch=3 n=67 v=92
250080 On ch=3 n=70 v=92
250089 On ch=3 n=72 v=0
250089 On ch=3 n=68 v=0
250140 On ch=3 n=65 v=97
250140 On ch=3 n=68 v=97
250149 On ch=3 n=67 v=0
250149 On ch=3 n=70 v=0
250199 On ch=3 n=65 v=0
250199 On ch=3 n=68 v=0
250200 On ch=3 n=67 v=102
250200 On ch=3 n=63 v=102
250229 On ch=3 n=63 v=0
250229 On ch=3 n=67 v=0
250260 On ch=3 n=63 v=107
250289 On ch=3 n=63 v=0
250320 On ch=3 n=63 v=112
250320 On ch=3 n=67 v=112
250349 On ch=3 n=67 v=0
250349 On ch=3 n=63 v=0
250380 On ch=3 n=70 v=117
250380 On ch=3 n=67 v=117
250409 On ch=3 n=67 v=0
250409 On ch=3 n=70 v=0
250440 On ch=3 n=67 v=117
250440 On ch=3 n=75 v=117
250469 On ch=3 n=75 v=0
250469 On ch=3 n=67 v=0
250500 On ch=3 n=70 v=122
250500 On ch=3 n=79 v=122
250529 On ch=3 n=79 v=0
250529 On ch=3 n=70 v=0
250560 On ch=3 n=68 v=127
250560 On ch=3 n=74 v=127
250919 On ch=3 n=74 v=0
250919 On ch=3 n=68 v=0
250920 On ch=3 n=75 v=96
250920 On ch=3 n=67 v=96
251039 On ch=3 n=67 v=0
251039 On ch=3 n=75 v=0
251280 On ch=3 n=75 v=96
251399 On ch=3 n=75 v=0
251640 On ch=3 n=75 v=96
251759 On ch=3 n=75 v=0
252000 On ch=3 n=65 v=96
252000 On ch=3 n=74 v=96
252059 On ch=3 n=74 v=0
252059 On ch=3 n=65 v=0
252120 On ch=3 n=65 v=96
252120 On ch=3 n=74 v=96
252179 On ch=3 n=74 v=0
252179 On ch=3 n=65 v=0
252240 On ch=3 n=65 v=96
252240 On ch=3 n=74 v=96
252299 On ch=3 n=74 v=0
252299 On ch=3 n=65 v=0
252360 On ch=3 n=67 v=96
252360 On ch=3 n=75 v=96
252479 On ch=3 n=75 v=0
252479 On ch=3 n=67 v=0
252900 On ch=3 n=63 v=48
252960 On ch=3 n=67 v=48
252969 On ch=3 n=63 v=0
253020 On ch=3 n=70 v=48
253029 On ch=3 n=67 v=0
253079 On ch=3 n=70 v=0
253080 On ch=3 n=75 v=48
253320 On ch=3 n=79 v=48
253329 On ch=3 n=75 v=0
253440 On ch=3 n=75 v=48
253449 On ch=3 n=79 v=0
253680 On ch=3 n=70 v=48
253689 On ch=3 n=75 v=0
253800 On ch=3 n=75 v=48
253809 On ch=3 n=70 v=0
253919 On ch=3 n=75 v=0
254520 On ch=3 n=65 v=96
254520 On ch=3 n=73 v=96
255239 On ch=3 n=73 v=0
255240 On ch=3 n=73 v=48
255240 On ch=3 n=61 v=48
255249 On ch=3 n=65 v=0
255359 On ch=3 n=61 v=0
255359 On ch=3 n=73 v=0
255960 On ch=3 n=72 v=127
255960 On ch=3 n=64 v=127
256679 On ch=3 n=64 v=0
256679 On ch=3 n=72 v=0
256680 On ch=3 n=64 v=48
256680 On ch=3 n=72 v=48
256799 On ch=3 n=72 v=0
256799 On ch=3 n=64 v=0
260280 On ch=3 n=60 v=32
260280 On ch=3 n=72 v=32
261839 On ch=3 n=72 v=0
261839 On ch=3 n=60 v=0
263280 On ch=3 n=68 v=48
263400 On ch=3 n=70 v=48
263409 On ch=3 n=68 v=0
263520 On ch=3 n=72 v=64
263529 On ch=3 n=70 v=0
263700 On ch=3 n=70 v=48
263709 On ch=3 n=72 v=0
263760 On ch=3 n=68 v=48
263769 On ch=3 n=70 v=0
263879 On ch=3 n=68 v=0
263880 On ch=3 n=67 v=48
264000 On ch=3 n=72 v=48
264009 On ch=3 n=67 v=0
264119 On ch=3 n=72 v=0
264120 On ch=3 n=72 v=48
264239 On ch=3 n=72 v=0
264240 On ch=3 n=72 v=64
264540 On ch=3 n=70 v=48
264549 On ch=3 n=72 v=0
264600 On ch=3 n=68 v=48
264609 On ch=3 n=70 v=0
264719 On ch=3 n=68 v=0
264720 On ch=3 n=68 v=48
264840 On ch=3 n=70 v=48
264849 On ch=3 n=68 v=0
264960 On ch=3 n=72 v=64
264969 On ch=3 n=70 v=0
265140 On ch=3 n=70 v=48
265149 On ch=3 n=72 v=0
265200 On ch=3 n=68 v=48
265209 On ch=3 n=70 v=0
265319 On ch=3 n=68 v=0
265680 On ch=3 n=58 v=64
265680 On ch=3 n=70 v=64
266159 On ch=3 n=70 v=0
266159 On ch=3 n=58 v=0
266160 On ch=3 n=75 v=48
266160 On ch=3 n=66 v=48
266280 On ch=3 n=74 v=48
266280 On ch=3 n=68 v=48
266289 On ch=3 n=66 v=0
266289 On ch=3 n=75 v=0
266400 On ch=3 n=75 v=64
266400 On ch=3 n=70 v=64
266409 On ch=3 n=74 v=0
266409 On ch=3 n=68 v=0
266580 On ch=3 n=77 v=48
266580 On ch=3 n=74 v=48
266589 On ch=3 n=75 v=0
266589 On ch=3 n=70 v=0
266640 On ch=3 n=78 v=48
266640 On ch=3 n=75 v=48
266649 On ch=3 n=77 v=0
266649 On ch=3 n=74 v=0
266759 On ch=3 n=78 v=0
266759 On ch=3 n=75 v=0
266760 On ch=3 n=77 v=48
266760 On ch=3 n=70 v=48
266879 On ch=3 n=77 v=0
266880 On ch=3 n=82 v=48
266880 On ch=3 n=77 v=48
266889 On ch=3 n=70 v=0
267000 On ch=3 n=81 v=48
267000 On ch=3 n=75 v=48
267009 On ch=3 n=77 v=0
267009 On ch=3 n=82 v=0
267120 On ch=3 n=82 v=64
267120 On ch=3 n=74 v=64
267129 On ch=3 n=81 v=0
267129 On ch=3 n=75 v=0
267300 On ch=3 n=80 v=48
267309 On ch=3 n=82 v=0
267360 On ch=3 n=78 v=48
267360 On ch=3 n=75 v=48
267369 On ch=3 n=80 v=0
267369 On ch=3 n=74 v=0
267420 On ch=3 n=77 v=48
267420 On ch=3 n=70 v=48
267429 On ch=3 n=78 v=0
267429 On ch=3 n=75 v=0
267479 On ch=3 n=77 v=0
267479 On ch=3 n=70 v=0
267480 On ch=3 n=75 v=48
267480 On ch=3 n=66 v=48
267599 On ch=3 n=66 v=0
267599 On ch=3 n=75 v=0
267600 On ch=3 n=75 v=48
267600 On ch=3 n=66 v=48
267720 On ch=3 n=74 v=48
267720 On ch=3 n=68 v=48
267729 On ch=3 n=66 v=0
267729 On ch=3 n=75 v=0
267840 On ch=3 n=75 v=64
267840 On ch=3 n=70 v=64
267849 On ch=3 n=74 v=0
267849 On ch=3 n=68 v=0
268020 On ch=3 n=77 v=48
268020 On ch=3 n=74 v=48
268029 On ch=3 n=75 v=0
268029 On ch=3 n=70 v=0
268080 On ch=3 n=78 v=48
268080 On ch=3 n=75 v=48
268089 On ch=3 n=77 v=0
268089 On ch=3 n=74 v=0
268199 On ch=3 n=78 v=0
268199 On ch=3 n=75 v=0
268200 On ch=3 n=77 v=48
268200 On ch=3 n=74 v=48
268319 On ch=3 n=74 v=0
268319 On ch=3 n=77 v=0
273240 On ch=3 n=72 v=32
273840 On ch=3 n=73 v=32
273849 On ch=3 n=72 v=0
273960 On ch=3 n=74 v=32
273969 On ch=3 n=73 v=0
274439 On ch=3 n=74 v=0
274440 On ch=3 n=74 v=32
274499 On ch=3 n=74 v=0
274560 On ch=3 n=70 v=32
274619 On ch=3 n=70 v=0
274680 On ch=3 n=77 v=32
274800 On ch=3 n=75 v=32
274809 On ch=3 n=77 v=0
275159 On ch=3 n=75 v=0
275160 On ch=3 n=75 v=32
275219 On ch=3 n=75 v=0
275280 On ch=3 n=70 v=32
275339 On ch=3 n=70 v=0
275400 On ch=3 n=78 v=32
275519 On ch=3 n=78 v=0
275520 On ch=3 n=78 v=34
275879 On ch=3 n=78 v=0
275880 On ch=3 n=78 v=36
276239 On ch=3 n=78 v=0
276240 On ch=3 n=78 v=40
276329 On ch=3 n=78 v=0
276360 On ch=3 n=78 v=42
276449 On ch=3 n=78 v=0
276480 On ch=3 n=78 v=43
276600 On ch=3 n=77 v=44
276609 On ch=3 n=78 v=0
276720 On ch=3 n=75 v=46
276729 On ch=3 n=77 v=0
276839 On ch=3 n=75 v=0
276840 On ch=3 n=74 v=48
276959 On ch=3 n=74 v=0
278520 On ch=3 n=72 v=48
278520 On ch=3 n=67 v=48
278579 On ch=3 n=67 v=0
278579 On ch=3 n=72 v=0
278760 On ch=3 n=67 v=48
278760 On ch=3 n=72 v=48
278819 On ch=3 n=72 v=0
278819 On ch=3 n=67 v=0
279000 On ch=3 n=72 v=48
279000 On ch=3 n=65 v=48
279059 On ch=3 n=65 v=0
279059 On ch=3 n=72 v=0
279240 On ch=3 n=65 v=48
279240 On ch=3 n=72 v=48
279299 On ch=3 n=72 v=0
279299 On ch=3 n=65 v=0
279480 On ch=3 n=72 v=48
279480 On ch=3 n=65 v=48
279539 On ch=3 n=65 v=0
279539 On ch=3 n=72 v=0
279720 On ch=3 n=70 v=48
279720 On ch=3 n=67 v=48
280199 On ch=3 n=67 v=0
280199 On ch=3 n=70 v=0
280200 On ch=3 n=63 v=56
280200 On ch=3 n=67 v=56
280259 On ch=3 n=67 v=0
280259 On ch=3 n=63 v=0
280320 On ch=3 n=63 v=58
280320 On ch=3 n=67 v=58
280379 On ch=3 n=67 v=0
280379 On ch=3 n=63 v=0
280440 On ch=3 n=62 v=60
280440 On ch=3 n=65 v=60
280499 On ch=3 n=65 v=0
280499 On ch=3 n=62 v=0
280560 On ch=3 n=62 v=62
280560 On ch=3 n=65 v=62
280619 On ch=3 n=65 v=0
280619 On ch=3 n=62 v=0
280680 On ch=3 n=62 v=64
280680 On ch=3 n=65 v=64
280739 On ch=3 n=65 v=0
280739 On ch=3 n=62 v=0
280800 On ch=3 n=62 v=48
280800 On ch=3 n=65 v=48
280859 On ch=3 n=65 v=0
280859 On ch=3 n=62 v=0
280920 On ch=3 n=62 v=48
280920 On ch=3 n=65 v=48
280979 On ch=3 n=65 v=0
280979 On ch=3 n=62 v=0
281040 On ch=3 n=62 v=48
281040 On ch=3 n=65 v=48
281099 On ch=3 n=65 v=0
281099 On ch=3 n=62 v=0
281160 On ch=3 n=63 v=48
281160 On ch=3 n=67 v=48
281219 On ch=3 n=67 v=0
281219 On ch=3 n=63 v=0
284040 On ch=3 n=55 v=48
284040 On ch=3 n=70 v=48
284100 On ch=3 n=58 v=48
284109 On ch=3 n=55 v=0
284160 On ch=3 n=63 v=48
284169 On ch=3 n=58 v=0
284220 On ch=3 n=58 v=48
284229 On ch=3 n=63 v=0
284280 On ch=3 n=55 v=48
284289 On ch=3 n=58 v=0
284340 On ch=3 n=58 v=48
284349 On ch=3 n=55 v=0
284399 On ch=3 n=58 v=0
284400 On ch=3 n=55 v=48
284460 On ch=3 n=58 v=48
284469 On ch=3 n=55 v=0
284520 On ch=3 n=63 v=48
284529 On ch=3 n=58 v=0
284580 On ch=3 n=58 v=48
284589 On ch=3 n=63 v=0
284640 On ch=3 n=55 v=48
284649 On ch=3 n=58 v=0
284700 On ch=3 n=58 v=48
284709 On ch=3 n=55 v=0
284759 On ch=3 n=58 v=0
284760 On ch=3 n=55 v=48
284820 On ch=3 n=58 v=48
284829 On ch=3 n=55 v=0
284880 On ch=3 n=63 v=48
284889 On ch=3 n=58 v=0
284940 On ch=3 n=58 v=48
284949 On ch=3 n=63 v=0
285000 On ch=3 n=55 v=48
285009 On ch=3 n=58 v=0
285060 On ch=3 n=58 v=48
285069 On ch=3 n=55 v=0
285119 On ch=3 n=58 v=0
285120 On ch=3 n=55 v=48
285180 On ch=3 n=58 v=48
285189 On ch=3 n=55 v=0
285240 On ch=3 n=63 v=48
285249 On ch=3 n=58 v=0
285300 On ch=3 n=58 v=48
285309 On ch=3 n=63 v=0
285360 On ch=3 n=55 v=48
285369 On ch=3 n=58 v=0
285420 On ch=3 n=58 v=48
285429 On ch=3 n=55 v=0
285479 On ch=3 n=58 v=0
285480 On ch=3 n=56 v=48
285540 On ch=3 n=58 v=48
285549 On ch=3 n=56 v=0
285600 On ch=3 n=65 v=48
285609 On ch=3 n=58 v=0
285660 On ch=3 n=58 v=48
285669 On ch=3 n=65 v=0
285720 On ch=3 n=56 v=48
285729 On ch=3 n=58 v=0
285780 On ch=3 n=58 v=48
285789 On ch=3 n=56 v=0
285839 On ch=3 n=58 v=0
285840 On ch=3 n=56 v=48
285900 On ch=3 n=58 v=48
285909 On ch=3 n=56 v=0
285960 On ch=3 n=65 v=48
285969 On ch=3 n=58 v=0
286020 On ch=3 n=58 v=48
286029 On ch=3 n=65 v=0
286080 On ch=3 n=56 v=48
286089 On ch=3 n=58 v=0
286140 On ch=3 n=58 v=48
286149 On ch=3 n=56 v=0
286199 On ch=3 n=58 v=0
286200 On ch=3 n=56 v=48
286260 On ch=3 n=58 v=48
286269 On ch=3 n=56 v=0
286320 On ch=3 n=62 v=48
286329 On ch=3 n=58 v=0
286380 On ch=3 n=58 v=48
286389 On ch=3 n=62 v=0
286440 On ch=3 n=56 v=48
286449 On ch=3 n=58 v=0
286500 On ch=3 n=58 v=48
286509 On ch=3 n=56 v=0
286559 On ch=3 n=58 v=0
286560 On ch=3 n=56 v=48
286620 On ch=3 n=58 v=48
286629 On ch=3 n=56 v=0
286680 On ch=3 n=62 v=48
286689 On ch=3 n=58 v=0
286740 On ch=3 n=58 v=48
286749 On ch=3 n=62 v=0
286800 On ch=3 n=56 v=48
286809 On ch=3 n=58 v=0
286860 On ch=3 n=58 v=48
286869 On ch=3 n=56 v=0
286919 On ch=3 n=58 v=0
286920 On ch=3 n=55 v=48
286979 On ch=3 n=55 v=0
286979 On ch=3 n=70 v=0
286980 On ch=3 n=67 v=49
287010 On ch=3 n=68 v=49
287019 On ch=3 n=67 v=0
287040 On ch=3 n=70 v=50
287049 On ch=3 n=68 v=0
287069 On ch=3 n=70 v=0
287100 On ch=3 n=70 v=51
287129 On ch=3 n=70 v=0
287160 On ch=3 n=72 v=52
287189 On ch=3 n=72 v=0
287220 On ch=3 n=74 v=53
287249 On ch=3 n=74 v=0
287280 On ch=3 n=75 v=54
287309 On ch=3 n=75 v=0
287340 On ch=3 n=70 v=55
287369 On ch=3 n=70 v=0
287400 On ch=3 n=72 v=56
287429 On ch=3 n=72 v=0
287460 On ch=3 n=74 v=57
287489 On ch=3 n=74 v=0
287520 On ch=3 n=75 v=58
287549 On ch=3 n=75 v=0
287580 On ch=3 n=77 v=59
287609 On ch=3 n=77 v=0
287640 On ch=3 n=79 v=76
287669 On ch=3 n=79 v=0
287700 On ch=3 n=79 v=61
287730 On ch=3 n=77 v=61
287739 On ch=3 n=79 v=0
287760 On ch=3 n=75 v=62
287769 On ch=3 n=77 v=0
287789 On ch=3 n=75 v=0
287820 On ch=3 n=74 v=63
287849 On ch=3 n=74 v=0
287880 On ch=3 n=72 v=64
287909 On ch=3 n=72 v=0
287940 On ch=3 n=70 v=65
287969 On ch=3 n=70 v=0
288000 On ch=3 n=68 v=66
288029 On ch=3 n=68 v=0
288060 On ch=3 n=67 v=67
288089 On ch=3 n=67 v=0
288120 On ch=3 n=65 v=68
288149 On ch=3 n=65 v=0
288180 On ch=3 n=63 v=69
288209 On ch=3 n=63 v=0
288240 On ch=3 n=62 v=70
288269 On ch=3 n=62 v=0
288300 On ch=3 n=60 v=71
288329 On ch=3 n=60 v=0
288360 On ch=3 n=58 v=72
288389 On ch=3 n=58 v=0
288420 On ch=3 n=58 v=73
288450 On ch=3 n=60 v=73
288459 On ch=3 n=58 v=0
288480 On ch=3 n=62 v=74
288489 On ch=3 n=60 v=0
288509 On ch=3 n=62 v=0
288540 On ch=3 n=63 v=75
288569 On ch=3 n=63 v=0
288600 On ch=3 n=65 v=76
288629 On ch=3 n=65 v=0
288660 On ch=3 n=67 v=77
288689 On ch=3 n=67 v=0
288720 On ch=3 n=68 v=78
288839 On ch=3 n=68 v=0
288900 On ch=3 n=75 v=81
288900 On ch=3 n=63 v=81
288929 On ch=3 n=63 v=0
288929 On ch=3 n=75 v=0
288960 On ch=3 n=77 v=82
288960 On ch=3 n=65 v=82
288989 On ch=3 n=65 v=0
288989 On ch=3 n=77 v=0
289020 On ch=3 n=79 v=83
289020 On ch=3 n=67 v=83
289049 On ch=3 n=67 v=0
289049 On ch=3 n=79 v=0
289080 On ch=3 n=80 v=100
289080 On ch=3 n=68 v=100
289109 On ch=3 n=68 v=0
289109 On ch=3 n=80 v=0
289140 On ch=3 n=79 v=85
289140 On ch=3 n=67 v=85
289169 On ch=3 n=67 v=0
289169 On ch=3 n=79 v=0
289200 On ch=3 n=77 v=86
289200 On ch=3 n=65 v=86
289229 On ch=3 n=65 v=0
289229 On ch=3 n=77 v=0
289260 On ch=3 n=75 v=87
289260 On ch=3 n=63 v=87
289289 On ch=3 n=63 v=0
289289 On ch=3 n=75 v=0
289320 On ch=3 n=74 v=88
289320 On ch=3 n=62 v=88
289349 On ch=3 n=62 v=0
289349 On ch=3 n=74 v=0
289380 On ch=3 n=72 v=89
289380 On ch=3 n=60 v=89
289409 On ch=3 n=60 v=0
289409 On ch=3 n=72 v=0
289440 On ch=3 n=70 v=90
289440 On ch=3 n=58 v=90
289469 On ch=3 n=58 v=0
289469 On ch=3 n=70 v=0
289500 On ch=3 n=72 v=91
289500 On ch=3 n=60 v=91
289529 On ch=3 n=60 v=0
289529 On ch=3 n=72 v=0
289560 On ch=3 n=70 v=92
289560 On ch=3 n=58 v=92
289589 On ch=3 n=58 v=0
289589 On ch=3 n=70 v=0
289620 On ch=3 n=68 v=93
289649 On ch=3 n=68 v=0
289680 On ch=3 n=67 v=94
289709 On ch=3 n=67 v=0
289740 On ch=3 n=65 v=95
289769 On ch=3 n=65 v=0
289800 On ch=3 n=63 v=96
289859 On ch=3 n=63 v=0
289860 On ch=3 n=75 v=96
289860 On ch=3 n=63 v=96
289919 On ch=3 n=63 v=0
289919 On ch=3 n=75 v=0
289920 On ch=3 n=75 v=96
289920 On ch=3 n=63 v=96
289979 On ch=3 n=63 v=0
289979 On ch=3 n=75 v=0
289980 On ch=3 n=75 v=96
289980 On ch=3 n=63 v=96
290039 On ch=3 n=63 v=0
290039 On ch=3 n=75 v=0
290040 On ch=3 n=79 v=96
290040 On ch=3 n=67 v=96
290099 On ch=3 n=67 v=0
290099 On ch=3 n=79 v=0
290100 On ch=3 n=79 v=96
290100 On ch=3 n=67 v=96
290159 On ch=3 n=67 v=0
290159 On ch=3 n=79 v=0
290160 On ch=3 n=75 v=96
290160 On ch=3 n=63 v=96
290219 On ch=3 n=63 v=0
290219 On ch=3 n=75 v=0
290220 On ch=3 n=75 v=96
290220 On ch=3 n=63 v=96
290279 On ch=3 n=63 v=0
290279 On ch=3 n=75 v=0
290280 On ch=3 n=75 v=96
290280 On ch=3 n=63 v=96
290339 On ch=3 n=63 v=0
290339 On ch=3 n=75 v=0
290340 On ch=3 n=75 v=96
290340 On ch=3 n=63 v=96
290399 On ch=3 n=63 v=0
290399 On ch=3 n=75 v=0
290400 On ch=3 n=70 v=96
290400 On ch=3 n=58 v=96
290459 On ch=3 n=58 v=0
290459 On ch=3 n=70 v=0
290460 On ch=3 n=70 v=96
290460 On ch=3 n=58 v=96
290519 On ch=3 n=58 v=0
290519 On ch=3 n=70 v=0
290520 On ch=3 n=75 v=96
290520 On ch=3 n=63 v=96
290579 On ch=3 n=63 v=0
290579 On ch=3 n=75 v=0
290580 On ch=3 n=75 v=96
290580 On ch=3 n=63 v=96
290639 On ch=3 n=63 v=0
290639 On ch=3 n=75 v=0
290640 On ch=3 n=67 v=96
290699 On ch=3 n=67 v=0
290700 On ch=3 n=67 v=96
290759 On ch=3 n=67 v=0
290760 On ch=3 n=70 v=96
290819 On ch=3 n=70 v=0
290820 On ch=3 n=70 v=96
290879 On ch=3 n=70 v=0
290880 On ch=3 n=70 v=96
290939 On ch=3 n=70 v=0
290940 On ch=3 n=70 v=96
290999 On ch=3 n=70 v=0
291000 On ch=3 n=70 v=96
291059 On ch=3 n=70 v=0
291060 On ch=3 n=70 v=96
291119 On ch=3 n=70 v=0
291120 On ch=3 n=70 v=96
291179 On ch=3 n=70 v=0
291180 On ch=3 n=70 v=96
291239 On ch=3 n=70 v=0
291240 On ch=3 n=77 v=96
291240 On ch=3 n=65 v=96
291299 On ch=3 n=65 v=0
291299 On ch=3 n=77 v=0
291300 On ch=3 n=77 v=96
291300 On ch=3 n=65 v=96
291359 On ch=3 n=65 v=0
291359 On ch=3 n=77 v=0
291360 On ch=3 n=77 v=96
291360 On ch=3 n=65 v=96
291419 On ch=3 n=65 v=0
291419 On ch=3 n=77 v=0
291420 On ch=3 n=77 v=96
291420 On ch=3 n=65 v=96
291479 On ch=3 n=65 v=0
291479 On ch=3 n=77 v=0
291480 On ch=3 n=80 v=96
291480 On ch=3 n=68 v=96
291539 On ch=3 n=68 v=0
291539 On ch=3 n=80 v=0
291540 On ch=3 n=80 v=96
291540 On ch=3 n=68 v=96
291599 On ch=3 n=68 v=0
291599 On ch=3 n=80 v=0
291600 On ch=3 n=77 v=96
291600 On ch=3 n=65 v=96
291659 On ch=3 n=65 v=0
291659 On ch=3 n=77 v=0
291660 On ch=3 n=77 v=96
291660 On ch=3 n=65 v=96
291719 On ch=3 n=65 v=0
291719 On ch=3 n=77 v=0
291720 On ch=3 n=77 v=96
291720 On ch=3 n=65 v=96
291779 On ch=3 n=65 v=0
291779 On ch=3 n=77 v=0
291780 On ch=3 n=77 v=96
291780 On ch=3 n=65 v=96
291839 On ch=3 n=65 v=0
291839 On ch=3 n=77 v=0
291840 On ch=3 n=70 v=96
291840 On ch=3 n=58 v=96
291899 On ch=3 n=58 v=0
291899 On ch=3 n=70 v=0
291900 On ch=3 n=70 v=96
291900 On ch=3 n=58 v=96
291959 On ch=3 n=58 v=0
291959 On ch=3 n=70 v=0
291960 On ch=3 n=77 v=96
291960 On ch=3 n=65 v=96
292019 On ch=3 n=65 v=0
292019 On ch=3 n=77 v=0
292020 On ch=3 n=77 v=96
292020 On ch=3 n=65 v=96
292079 On ch=3 n=65 v=0
292079 On ch=3 n=77 v=0
292080 On ch=3 n=68 v=96
292139 On ch=3 n=68 v=0
292140 On ch=3 n=68 v=96
292199 On ch=3 n=68 v=0
292200 On ch=3 n=70 v=96
292259 On ch=3 n=70 v=0
292260 On ch=3 n=70 v=96
292319 On ch=3 n=70 v=0
292320 On ch=3 n=70 v=96
292379 On ch=3 n=70 v=0
292380 On ch=3 n=70 v=96
292439 On ch=3 n=70 v=0
292440 On ch=3 n=70 v=96
292499 On ch=3 n=70 v=0
292500 On ch=3 n=70 v=96
292559 On ch=3 n=70 v=0
292560 On ch=3 n=70 v=96
292619 On ch=3 n=70 v=0
292620 On ch=3 n=70 v=96
292679 On ch=3 n=70 v=0
292680 On ch=3 n=70 v=96
292739 On ch=3 n=70 v=0
292740 On ch=3 n=70 v=96
292799 On ch=3 n=70 v=0
292800 On ch=3 n=79 v=96
292800 On ch=3 n=70 v=96
292859 On ch=3 n=70 v=0
292859 On ch=3 n=79 v=0
292860 On ch=3 n=79 v=96
292860 On ch=3 n=70 v=96
292919 On ch=3 n=70 v=0
292919 On ch=3 n=79 v=0
292920 On ch=3 n=79 v=96
292920 On ch=3 n=70 v=96
292979 On ch=3 n=70 v=0
292979 On ch=3 n=79 v=0
292980 On ch=3 n=79 v=96
292980 On ch=3 n=70 v=96
293039 On ch=3 n=70 v=0
293039 On ch=3 n=79 v=0
293040 On ch=3 n=70 v=96
293040 On ch=3 n=79 v=96
293399 On ch=3 n=79 v=0
293399 On ch=3 n=70 v=0
293400 On ch=3 n=77 v=96
293400 On ch=3 n=72 v=96
293519 On ch=3 n=72 v=0
293519 On ch=3 n=77 v=0
293520 On ch=3 n=72 v=112
293520 On ch=3 n=77 v=112
293759 On ch=3 n=77 v=0
293759 On ch=3 n=72 v=0
293880 On ch=3 n=78 v=112
293880 On ch=3 n=72 v=112
294119 On ch=3 n=72 v=0
294119 On ch=3 n=78 v=0
294240 On ch=3 n=70 v=112
294240 On ch=3 n=67 v=112
294479 On ch=3 n=67 v=0
294479 On ch=3 n=70 v=0
294600 On ch=3 n=68 v=96
294600 On ch=3 n=65 v=96
294839 On ch=3 n=65 v=0
294839 On ch=3 n=68 v=0
294960 On ch=3 n=67 v=96
294960 On ch=3 n=63 v=96
295199 On ch=3 n=63 v=0
295199 On ch=3 n=67 v=0
295320 On ch=3 n=72 v=96
295320 On ch=3 n=63 v=96
295559 On ch=3 n=63 v=0
295559 On ch=3 n=72 v=0
295560 On ch=3 n=67 v=127
295560 On ch=3 n=75 v=127
295919 On ch=3 n=75 v=0
295919 On ch=3 n=67 v=0
295920 On ch=3 n=68 v=127
295920 On ch=3 n=74 v=127
296159 On ch=3 n=68 v=0
296160 On ch=3 n=65 v=127
296279 On ch=3 n=65 v=0
296279 On ch=3 n=74 v=0
296280 On ch=3 n=67 v=48
296280 On ch=3 n=63 v=48
296520 On ch=3 n=68 v=52
296520 On ch=3 n=65 v=52
296529 On ch=3 n=63 v=0
296529 On ch=3 n=67 v=0
296580 On ch=3 n=70 v=56
296580 On ch=3 n=67 v=56
296589 On ch=3 n=68 v=0
296589 On ch=3 n=65 v=0
296640 On ch=3 n=72 v=56
296640 On ch=3 n=68 v=56
296649 On ch=3 n=70 v=0
296649 On ch=3 n=67 v=0
296760 On ch=3 n=74 v=52
296760 On ch=3 n=70 v=52
296769 On ch=3 n=72 v=0
296769 On ch=3 n=68 v=0
296880 On ch=3 n=75 v=48
296880 On ch=3 n=72 v=48
296889 On ch=3 n=74 v=0
296889 On ch=3 n=70 v=0
296999 On ch=3 n=75 v=0
296999 On ch=3 n=72 v=0
297000 On ch=3 n=75 v=48
297000 On ch=3 n=70 v=48
297119 On ch=3 n=70 v=0
297119 On ch=3 n=75 v=0
297180 On ch=3 n=58 v=48
297180 On ch=3 n=63 v=48
297240 On ch=3 n=62 v=48
297240 On ch=3 n=65 v=48
297249 On ch=3 n=63 v=0
297249 On ch=3 n=58 v=0
297300 On ch=3 n=67 v=48
297300 On ch=3 n=63 v=48
297309 On ch=3 n=62 v=0
297309 On ch=3 n=65 v=0
297359 On ch=3 n=67 v=0
297359 On ch=3 n=63 v=0
297360 On ch=3 n=65 v=48
297360 On ch=3 n=68 v=48
297449 On ch=3 n=68 v=0
297449 On ch=3 n=65 v=0
297480 On ch=3 n=68 v=48
297480 On ch=3 n=65 v=48
297569 On ch=3 n=65 v=0
297569 On ch=3 n=68 v=0
297600 On ch=3 n=65 v=48
297600 On ch=3 n=68 v=48
297689 On ch=3 n=68 v=0
297689 On ch=3 n=65 v=0
297720 On ch=3 n=67 v=48
297720 On ch=3 n=63 v=48
297839 On ch=3 n=63 v=0
297839 On ch=3 n=67 v=0
298620 On ch=3 n=70 v=78
298649 On ch=3 n=70 v=0
298680 On ch=3 n=68 v=80
298709 On ch=3 n=68 v=0
298740 On ch=3 n=67 v=82
298769 On ch=3 n=67 v=0
298800 On ch=3 n=65 v=84
298829 On ch=3 n=65 v=0
298860 On ch=3 n=67 v=86
298889 On ch=3 n=67 v=0
298920 On ch=3 n=68 v=88
298949 On ch=3 n=68 v=0
298980 On ch=3 n=67 v=90
299009 On ch=3 n=67 v=0
299040 On ch=3 n=65 v=92
299069 On ch=3 n=65 v=0
299100 On ch=3 n=63 v=94
299129 On ch=3 n=63 v=0
299160 On ch=3 n=62 v=96
299279 On ch=3 n=62 v=0
299280 On ch=3 n=65 v=96
299280 On ch=3 n=62 v=96
299639 On ch=3 n=62 v=0
299639 On ch=3 n=65 v=0
299640 On ch=3 n=68 v=96
299640 On ch=3 n=65 v=96
299999 On ch=3 n=65 v=0
299999 On ch=3 n=68 v=0
300000 On ch=3 n=74 v=96
300000 On ch=3 n=68 v=96
300239 On ch=3 n=68 v=0
300239 On ch=3 n=74 v=0
300240 On ch=3 n=68 v=96
300240 On ch=3 n=74 v=96
300479 On ch=3 n=74 v=0
300479 On ch=3 n=68 v=0
300480 On ch=3 n=74 v=96
300480 On ch=3 n=68 v=96
300539 On ch=3 n=68 v=0
300539 On ch=3 n=74 v=0
300600 On ch=3 n=68 v=96
300600 On ch=3 n=74 v=96
300659 On ch=3 n=74 v=0
300659 On ch=3 n=68 v=0
300720 On ch=3 n=77 v=127
300720 On ch=3 n=68 v=127
300779 On ch=3 n=68 v=0
300779 On ch=3 n=77 v=0
300840 On ch=3 n=77 v=127
300840 On ch=3 n=68 v=127
300899 On ch=3 n=68 v=0
300899 On ch=3 n=77 v=0
300960 On ch=3 n=77 v=127
300960 On ch=3 n=68 v=127
301019 On ch=3 n=68 v=0
301019 On ch=3 n=77 v=0
301080 On ch=3 n=77 v=127
301080 On ch=3 n=68 v=127
301139 On ch=3 n=68 v=0
301139 On ch=3 n=77 v=0
301200 On ch=3 n=77 v=127
301200 On ch=3 n=68 v=127
301259 On ch=3 n=68 v=0
301259 On ch=3 n=77 v=0
301320 On ch=3 n=77 v=127
301320 On ch=3 n=68 v=127
301379 On ch=3 n=68 v=0
301379 On ch=3 n=77 v=0
301440 On ch=3 n=77 v=127
301440 On ch=3 n=68 v=127
301499 On ch=3 n=68 v=0
301499 On ch=3 n=77 v=0
301560 On ch=3 n=77 v=127
301560 On ch=3 n=68 v=127
301619 On ch=3 n=68 v=0
301619 On ch=3 n=77 v=0
301680 On ch=3 n=77 v=127
301680 On ch=3 n=68 v=127
301739 On ch=3 n=68 v=0
301739 On ch=3 n=77 v=0
301800 On ch=3 n=77 v=127
301800 On ch=3 n=68 v=127
301859 On ch=3 n=68 v=0
301859 On ch=3 n=77 v=0
301920 On ch=3 n=77 v=127
301920 On ch=3 n=68 v=127
301979 On ch=3 n=68 v=0
301979 On ch=3 n=77 v=0
302040 On ch=3 n=75 v=127
302040 On ch=3 n=67 v=127
302159 On ch=3 n=67 v=0
302159 On ch=3 n=75 v=0
302400 On ch=3 n=67 v=127
302400 On ch=3 n=75 v=127
302519 On ch=3 n=75 v=0
302519 On ch=3 n=67 v=0
302760 On ch=3 n=63 v=127
302879 On ch=3 n=63 v=0
0 PrCh ch=4 p=70
0 Par ch=4 c=7 v=127
0 Par ch=4 c=10 v=70
0 Par ch=4 c=93 v=0
0 Par ch=4 c=91 v=0
0 On ch=4 n=51 v=96
0 On ch=4 n=63 v=96
59 On ch=4 n=63 v=0
59 On ch=4 n=51 v=0
360 On ch=4 n=63 v=96
360 On ch=4 n=51 v=96
419 On ch=4 n=51 v=0
419 On ch=4 n=63 v=0
7080 On ch=4 n=51 v=48
7200 On ch=4 n=56 v=48
7209 On ch=4 n=51 v=0
7320 On ch=4 n=60 v=48
7329 On ch=4 n=56 v=0
7440 On ch=4 n=63 v=48
7449 On ch=4 n=60 v=0
7559 On ch=4 n=63 v=0
7560 On ch=4 n=56 v=48
7800 On ch=4 n=57 v=64
7809 On ch=4 n=56 v=0
7919 On ch=4 n=57 v=0
7920 On ch=4 n=58 v=96
7949 On ch=4 n=58 v=0
7950 On ch=4 n=58 v=48
8280 On ch=4 n=62 v=48
8520 On ch=4 n=56 v=48
8520 On ch=4 n=65 v=48
8529 On ch=4 n=62 v=0
8529 On ch=4 n=58 v=0
8639 On ch=4 n=56 v=0
8639 On ch=4 n=65 v=0
8640 On ch=4 n=63 v=48
8640 On ch=4 n=55 v=48
8699 On ch=4 n=55 v=0
8699 On ch=4 n=63 v=0
8760 On ch=4 n=60 v=96
8760 On ch=4 n=54 v=96
8999 On ch=4 n=54 v=0
8999 On ch=4 n=60 v=0
9000 On ch=4 n=54 v=96
9000 On ch=4 n=60 v=96
9239 On ch=4 n=60 v=0
9239 On ch=4 n=54 v=0
9240 On ch=4 n=54 v=96
9240 On ch=4 n=60 v=96
9359 On ch=4 n=60 v=0
9359 On ch=4 n=54 v=0
9360 On ch=4 n=53 v=90
9360 On ch=4 n=62 v=90
9419 On ch=4 n=62 v=0
9419 On ch=4 n=53 v=0
9960 On ch=4 n=58 v=96
9960 On ch=4 n=62 v=96
10080 On ch=4 n=56 v=96
10089 On ch=4 n=58 v=0
10199 On ch=4 n=56 v=0
10199 On ch=4 n=62 v=0
10200 On ch=4 n=62 v=96
10200 On ch=4 n=56 v=96
10439 On ch=4 n=56 v=0
10439 On ch=4 n=62 v=0
10440 On ch=4 n=56 v=96
10440 On ch=4 n=62 v=96
10679 On ch=4 n=62 v=0
10679 On ch=4 n=56 v=0
10680 On ch=4 n=56 v=96
10680 On ch=4 n=62 v=96
10919 On ch=4 n=62 v=0
10919 On ch=4 n=56 v=0
10920 On ch=4 n=55 v=96
10920 On ch=4 n=63 v=96
11159 On ch=4 n=63 v=0
11159 On ch=4 n=55 v=0
11160 On ch=4 n=55 v=96
11160 On ch=4 n=63 v=96
11399 On ch=4 n=63 v=0
11399 On ch=4 n=55 v=0
11400 On ch=4 n=55 v=96
11400 On ch=4 n=63 v=96
11639 On ch=4 n=63 v=0
11639 On ch=4 n=55 v=0
11640 On ch=4 n=56 v=90
11640 On ch=4 n=62 v=90
11699 On ch=4 n=62 v=0
11699 On ch=4 n=56 v=0
11760 On ch=4 n=56 v=96
11760 On ch=4 n=62 v=96
11999 On ch=4 n=62 v=0
11999 On ch=4 n=56 v=0
12000 On ch=4 n=55 v=90
12000 On ch=4 n=63 v=90
12059 On ch=4 n=63 v=0
12059 On ch=4 n=55 v=0
12120 On ch=4 n=55 v=96
12120 On ch=4 n=63 v=96
12240 On ch=4 n=56 v=90
12240 On ch=4 n=62 v=90
12249 On ch=4 n=63 v=0
12249 On ch=4 n=55 v=0
12359 On ch=4 n=56 v=0
12359 On ch=4 n=62 v=0
12360 On ch=4 n=46 v=96
12389 On ch=4 n=46 v=0
12420 On ch=4 n=48 v=99
12449 On ch=4 n=48 v=0
12480 On ch=4 n=50 v=101
12509 On ch=4 n=50 v=0
12540 On ch=4 n=51 v=104
12569 On ch=4 n=51 v=0
12600 On ch=4 n=53 v=106
12629 On ch=4 n=53 v=0
12660 On ch=4 n=55 v=109
12689 On ch=4 n=55 v=0
12720 On ch=4 n=56 v=111
12749 On ch=4 n=56 v=0
12780 On ch=4 n=58 v=114
12809 On ch=4 n=58 v=0
12840 On ch=4 n=60 v=116
12869 On ch=4 n=60 v=0
12900 On ch=4 n=62 v=125
12929 On ch=4 n=62 v=0
12960 On ch=4 n=51 v=127
12960 On ch=4 n=63 v=127
13200 On ch=4 n=67 v=127
13200 On ch=4 n=55 v=127
13209 On ch=4 n=63 v=0
13209 On ch=4 n=51 v=0
13320 On ch=4 n=51 v=127
13320 On ch=4 n=63 v=127
13329 On ch=4 n=67 v=0
13329 On ch=4 n=55 v=0
13560 On ch=4 n=46 v=127
13560 On ch=4 n=58 v=127
13569 On ch=4 n=51 v=0
13569 On ch=4 n=63 v=0
13679 On ch=4 n=46 v=0
13679 On ch=4 n=58 v=0
13680 On ch=4 n=63 v=127
13680 On ch=4 n=51 v=127
13800 On ch=4 n=55 v=127
13809 On ch=4 n=51 v=0
13809 On ch=4 n=63 v=0
13920 On ch=4 n=58 v=127
13929 On ch=4 n=55 v=0
14040 On ch=4 n=51 v=127
14049 On ch=4 n=58 v=0
14279 On ch=4 n=51 v=0
14280 On ch=4 n=55 v=127
14280 On ch=4 n=43 v=127
14399 On ch=4 n=43 v=0
14399 On ch=4 n=55 v=0
14400 On ch=4 n=60 v=127
14400 On ch=4 n=48 v=127
14520 On ch=4 n=51 v=127
14520 On ch=4 n=63 v=127
14529 On ch=4 n=48 v=0
14529 On ch=4 n=60 v=0
14640 On ch=4 n=67 v=127
14640 On ch=4 n=55 v=127
14649 On ch=4 n=51 v=0
14649 On ch=4 n=63 v=0
14759 On ch=4 n=67 v=0
14759 On ch=4 n=55 v=0
14760 On ch=4 n=60 v=127
14760 On ch=4 n=48 v=127
14999 On ch=4 n=48 v=0
14999 On ch=4 n=60 v=0
15000 On ch=4 n=61 v=127
15000 On ch=4 n=51 v=127
15119 On ch=4 n=51 v=0
15119 On ch=4 n=61 v=0
15120 On ch=4 n=56 v=127
15120 On ch=4 n=60 v=127
15479 On ch=4 n=56 v=0
15480 On ch=4 n=54 v=127
15540 On ch=4 n=58 v=127
15549 On ch=4 n=60 v=0
15600 On ch=4 n=57 v=127
15609 On ch=4 n=58 v=0
15660 On ch=4 n=58 v=127
15669 On ch=4 n=57 v=0
15720 On ch=4 n=60 v=127
15729 On ch=4 n=58 v=0
15780 On ch=4 n=58 v=127
15789 On ch=4 n=60 v=0
15840 On ch=4 n=57 v=127
15840 On ch=4 n=53 v=127
15849 On ch=4 n=58 v=0
15849 On ch=4 n=54 v=0
15959 On ch=4 n=57 v=0
15959 On ch=4 n=53 v=0
19200 On ch=4 n=66 v=64
19380 On ch=4 n=65 v=56
19389 On ch=4 n=66 v=0
19440 On ch=4 n=63 v=56
19449 On ch=4 n=65 v=0
19559 On ch=4 n=63 v=0
19560 On ch=4 n=67 v=127
19560 On ch=4 n=55 v=127
19739 On ch=4 n=55 v=0
19739 On ch=4 n=67 v=0
19740 On ch=4 n=65 v=127
19740 On ch=4 n=53 v=127
19799 On ch=4 n=53 v=0
19799 On ch=4 n=65 v=0
19800 On ch=4 n=51 v=127
19800 On ch=4 n=63 v=127
19859 On ch=4 n=63 v=0
19859 On ch=4 n=51 v=0
19920 On ch=4 n=62 v=127
19920 On ch=4 n=50 v=127
19979 On ch=4 n=50 v=0
19979 On ch=4 n=62 v=0
20040 On ch=4 n=48 v=127
20040 On ch=4 n=60 v=127
20099 On ch=4 n=60 v=0
20099 On ch=4 n=48 v=0
20160 On ch=4 n=58 v=48
20400 On ch=4 n=57 v=60
20460 On ch=4 n=56 v=62
20469 On ch=4 n=57 v=0
20520 On ch=4 n=55 v=64
20529 On ch=4 n=56 v=0
20640 On ch=4 n=57 v=57
20640 On ch=4 n=53 v=57
20649 On ch=4 n=55 v=0
20649 On ch=4 n=58 v=0
20760 On ch=4 n=51 v=52
20760 On ch=4 n=55 v=52
20769 On ch=4 n=57 v=0
20769 On ch=4 n=53 v=0
20879 On ch=4 n=51 v=0
20879 On ch=4 n=55 v=0
20880 On ch=4 n=53 v=48
20880 On ch=4 n=50 v=48
21120 On ch=4 n=48 v=48
21120 On ch=4 n=51 v=48
21129 On ch=4 n=50 v=0
21129 On ch=4 n=53 v=0
21180 On ch=4 n=46 v=48
21180 On ch=4 n=50 v=48
21189 On ch=4 n=48 v=0
21189 On ch=4 n=51 v=0
21240 On ch=4 n=48 v=48
21240 On ch=4 n=45 v=48
21249 On ch=4 n=46 v=0
21249 On ch=4 n=50 v=0
21359 On ch=4 n=48 v=0
21359 On ch=4 n=45 v=0
21360 On ch=4 n=57 v=48
21360 On ch=4 n=53 v=48
21449 On ch=4 n=53 v=0
21449 On ch=4 n=57 v=0
21480 On ch=4 n=53 v=48
21480 On ch=4 n=57 v=48
21569 On ch=4 n=57 v=0
21569 On ch=4 n=53 v=0
21600 On ch=4 n=58 v=48
21600 On ch=4 n=46 v=48
21719 On ch=4 n=46 v=0
21719 On ch=4 n=58 v=0
22380 On ch=4 n=65 v=74
22409 On ch=4 n=65 v=0
22440 On ch=4 n=63 v=76
22469 On ch=4 n=63 v=0
22500 On ch=4 n=62 v=78
22529 On ch=4 n=62 v=0
22560 On ch=4 n=60 v=80
22589 On ch=4 n=60 v=0
22620 On ch=4 n=58 v=82
22649 On ch=4 n=58 v=0
22680 On ch=4 n=57 v=84
22709 On ch=4 n=57 v=0
22740 On ch=4 n=62 v=86
22740 On ch=4 n=58 v=86
22769 On ch=4 n=58 v=0
22769 On ch=4 n=62 v=0
22800 On ch=4 n=63 v=88
22800 On ch=4 n=60 v=88
22829 On ch=4 n=60 v=0
22829 On ch=4 n=63 v=0
22860 On ch=4 n=62 v=90
22860 On ch=4 n=58 v=90
22889 On ch=4 n=58 v=0
22889 On ch=4 n=62 v=0
22920 On ch=4 n=60 v=92
22920 On ch=4 n=57 v=92
22949 On ch=4 n=57 v=0
22949 On ch=4 n=60 v=0
22980 On ch=4 n=58 v=94
22980 On ch=4 n=55 v=94
23009 On ch=4 n=55 v=0
23009 On ch=4 n=58 v=0
23040 On ch=4 n=57 v=96
23040 On ch=4 n=54 v=96
23099 On ch=4 n=54 v=0
23099 On ch=4 n=57 v=0
23160 On ch=4 n=57 v=96
23160 On ch=4 n=54 v=96
23219 On ch=4 n=54 v=0
23219 On ch=4 n=57 v=0
23700 On ch=4 n=54 v=96
23700 On ch=4 n=57 v=96
23729 On ch=4 n=57 v=0
23729 On ch=4 n=54 v=0
23760 On ch=4 n=58 v=96
23760 On ch=4 n=55 v=96
23819 On ch=4 n=55 v=0
23819 On ch=4 n=58 v=0
23880 On ch=4 n=58 v=96
23880 On ch=4 n=55 v=96
23939 On ch=4 n=55 v=0
23939 On ch=4 n=58 v=0
24420 On ch=4 n=58 v=96
24420 On ch=4 n=55 v=96
24449 On ch=4 n=55 v=0
24449 On ch=4 n=58 v=0
24480 On ch=4 n=56 v=96
24480 On ch=4 n=53 v=96
24539 On ch=4 n=53 v=0
24539 On ch=4 n=56 v=0
24600 On ch=4 n=53 v=96
24600 On ch=4 n=56 v=96
24659 On ch=4 n=56 v=0
24659 On ch=4 n=53 v=0
25140 On ch=4 n=65 v=96
25140 On ch=4 n=53 v=96
25169 On ch=4 n=53 v=0
25169 On ch=4 n=65 v=0
25200 On ch=4 n=63 v=96
25200 On ch=4 n=51 v=96
25229 On ch=4 n=51 v=0
25229 On ch=4 n=63 v=0
25260 On ch=4 n=58 v=96
25260 On ch=4 n=51 v=96
25379 On ch=4 n=51 v=0
25379 On ch=4 n=58 v=0
25380 On ch=4 n=58 v=96
25380 On ch=4 n=52 v=96
25409 On ch=4 n=52 v=0
25409 On ch=4 n=58 v=0
25440 On ch=4 n=57 v=96
25440 On ch=4 n=53 v=96
25469 On ch=4 n=53 v=0
25469 On ch=4 n=57 v=0
25500 On ch=4 n=54 v=96
25500 On ch=4 n=60 v=96
25529 On ch=4 n=60 v=0
25529 On ch=4 n=54 v=0
25560 On ch=4 n=58 v=96
25560 On ch=4 n=55 v=96
25589 On ch=4 n=55 v=0
25589 On ch=4 n=58 v=0
25620 On ch=4 n=55 v=96
25620 On ch=4 n=61 v=96
25739 On ch=4 n=61 v=0
25739 On ch=4 n=55 v=0
25740 On ch=4 n=61 v=96
25740 On ch=4 n=55 v=96
25769 On ch=4 n=55 v=0
25769 On ch=4 n=61 v=0
25800 On ch=4 n=60 v=96
25800 On ch=4 n=56 v=96
25829 On ch=4 n=56 v=0
25829 On ch=4 n=60 v=0
25860 On ch=4 n=57 v=96
25860 On ch=4 n=60 v=96
25889 On ch=4 n=60 v=0
25889 On ch=4 n=57 v=0
25920 On ch=4 n=62 v=96
25920 On ch=4 n=58 v=96
26039 On ch=4 n=58 v=0
26039 On ch=4 n=62 v=0
26520 On ch=4 n=58 v=96
26520 On ch=4 n=50 v=96
26640 On ch=4 n=51 v=96
26649 On ch=4 n=50 v=0
26880 On ch=4 n=59 v=96
26889 On ch=4 n=58 v=0
27000 On ch=4 n=60 v=96
27009 On ch=4 n=59 v=0
27060 On ch=4 n=59 v=96
27069 On ch=4 n=60 v=0
27120 On ch=4 n=62 v=96
27129 On ch=4 n=59 v=0
27180 On ch=4 n=55 v=96
27180 On ch=4 n=60 v=96
27189 On ch=4 n=62 v=0
27189 On ch=4 n=51 v=0
27240 On ch=4 n=59 v=96
27240 On ch=4 n=65 v=96
27249 On ch=4 n=55 v=0
27249 On ch=4 n=60 v=0
27300 On ch=4 n=60 v=96
27300 On ch=4 n=63 v=96
27309 On ch=4 n=59 v=0
27309 On ch=4 n=65 v=0
27360 On ch=4 n=58 v=96
27360 On ch=4 n=62 v=96
27369 On ch=4 n=60 v=0
27369 On ch=4 n=63 v=0
27479 On ch=4 n=58 v=0
27479 On ch=4 n=62 v=0
28080 On ch=4 n=65 v=96
28859 On ch=4 n=65 v=0
28860 On ch=4 n=64 v=127
28889 On ch=4 n=64 v=0
28920 On ch=4 n=63 v=127
28949 On ch=4 n=63 v=0
28980 On ch=4 n=62 v=127
29009 On ch=4 n=62 v=0
29040 On ch=4 n=60 v=127
29069 On ch=4 n=60 v=0
29100 On ch=4 n=58 v=127
29129 On ch=4 n=58 v=0
29160 On ch=4 n=57 v=127
29189 On ch=4 n=57 v=0
29220 On ch=4 n=67 v=127
29220 On ch=4 n=55 v=127
29249 On ch=4 n=55 v=0
29249 On ch=4 n=67 v=0
29280 On ch=4 n=65 v=127
29280 On ch=4 n=53 v=127
29309 On ch=4 n=53 v=0
29309 On ch=4 n=65 v=0
29340 On ch=4 n=63 v=127
29340 On ch=4 n=51 v=127
29369 On ch=4 n=51 v=0
29369 On ch=4 n=63 v=0
29400 On ch=4 n=62 v=127
29400 On ch=4 n=50 v=127
29429 On ch=4 n=50 v=0
29429 On ch=4 n=62 v=0
29460 On ch=4 n=60 v=127
29460 On ch=4 n=48 v=127
29489 On ch=4 n=48 v=0
29489 On ch=4 n=60 v=0
29520 On ch=4 n=58 v=127
29520 On ch=4 n=46 v=127
29639 On ch=4 n=46 v=0
29639 On ch=4 n=58 v=0
29640 On ch=4 n=62 v=48
29640 On ch=4 n=58 v=48
29729 On ch=4 n=58 v=0
29729 On ch=4 n=62 v=0
29760 On ch=4 n=58 v=48
29760 On ch=4 n=62 v=48
29849 On ch=4 n=62 v=0
29849 On ch=4 n=58 v=0
29880 On ch=4 n=62 v=56
29880 On ch=4 n=58 v=56
29969 On ch=4 n=58 v=0
29969 On ch=4 n=62 v=0
30000 On ch=4 n=58 v=64
30000 On ch=4 n=62 v=64
30089 On ch=4 n=62 v=0
30089 On ch=4 n=58 v=0
30120 On ch=4 n=62 v=72
30120 On ch=4 n=58 v=72
30209 On ch=4 n=58 v=0
30209 On ch=4 n=62 v=0
30240 On ch=4 n=62 v=80
30240 On ch=4 n=58 v=80
30329 On ch=4 n=58 v=0
30329 On ch=4 n=62 v=0
30360 On ch=4 n=58 v=88
30360 On ch=4 n=62 v=88
30449 On ch=4 n=62 v=0
30449 On ch=4 n=58 v=0
30480 On ch=4 n=58 v=96
30480 On ch=4 n=46 v=96
30599 On ch=4 n=46 v=0
30600 On ch=4 n=51 v=96
30720 On ch=4 n=59 v=72
30729 On ch=4 n=58 v=0
30840 On ch=4 n=60 v=64
30849 On ch=4 n=59 v=0
30959 On ch=4 n=60 v=0
30959 On ch=4 n=51 v=0
31920 On ch=4 n=67 v=96
32160 On ch=4 n=65 v=96
32169 On ch=4 n=67 v=0
32220 On ch=4 n=63 v=84
32229 On ch=4 n=65 v=0
32280 On ch=4 n=62 v=72
32289 On ch=4 n=63 v=0
32340 On ch=4 n=60 v=60
32349 On ch=4 n=62 v=0
32400 On ch=4 n=58 v=48
32409 On ch=4 n=60 v=0
32519 On ch=4 n=58 v=0
32520 On ch=4 n=61 v=48
32520 On ch=4 n=58 v=48
32609 On ch=4 n=58 v=0
32609 On ch=4 n=61 v=0
32640 On ch=4 n=58 v=48
32640 On ch=4 n=61 v=48
32729 On ch=4 n=61 v=0
32729 On ch=4 n=58 v=0
32760 On ch=4 n=61 v=56
32760 On ch=4 n=58 v=56
32849 On ch=4 n=58 v=0
32849 On ch=4 n=61 v=0
32880 On ch=4 n=58 v=64
32880 On ch=4 n=61 v=64
32969 On ch=4 n=61 v=0
32969 On ch=4 n=58 v=0
33000 On ch=4 n=61 v=72
33000 On ch=4 n=58 v=72
33089 On ch=4 n=58 v=0
33089 On ch=4 n=61 v=0
33120 On ch=4 n=61 v=80
33120 On ch=4 n=58 v=80
33209 On ch=4 n=58 v=0
33209 On ch=4 n=61 v=0
33240 On ch=4 n=56 v=88
33240 On ch=4 n=61 v=88
33329 On ch=4 n=61 v=0
33329 On ch=4 n=56 v=0
33360 On ch=4 n=56 v=88
33360 On ch=4 n=61 v=88
33449 On ch=4 n=61 v=0
33449 On ch=4 n=56 v=0
33480 On ch=4 n=61 v=96
33480 On ch=4 n=56 v=96
33720 On ch=4 n=60 v=84
33729 On ch=4 n=61 v=0
33839 On ch=4 n=60 v=0
33839 On ch=4 n=56 v=0
34560 On ch=4 n=60 v=48
34560 On ch=4 n=48 v=48
34679 On ch=4 n=48 v=0
34679 On ch=4 n=60 v=0
35040 On ch=4 n=67 v=56
35040 On ch=4 n=60 v=56
35129 On ch=4 n=60 v=0
35129 On ch=4 n=67 v=0
35160 On ch=4 n=67 v=56
35160 On ch=4 n=60 v=56
35249 On ch=4 n=60 v=0
35249 On ch=4 n=67 v=0
35280 On ch=4 n=65 v=48
35280 On ch=4 n=53 v=48
35399 On ch=4 n=53 v=0
35399 On ch=4 n=65 v=0
38400 On ch=4 n=63 v=75
38400 On ch=4 n=60 v=75
38429 On ch=4 n=60 v=0
38429 On ch=4 n=63 v=0
38460 On ch=4 n=62 v=78
38460 On ch=4 n=58 v=78
38489 On ch=4 n=58 v=0
38489 On ch=4 n=62 v=0
38520 On ch=4 n=60 v=80
38520 On ch=4 n=57 v=80
38549 On ch=4 n=57 v=0
38549 On ch=4 n=60 v=0
38580 On ch=4 n=58 v=83
38580 On ch=4 n=55 v=83
38609 On ch=4 n=55 v=0
38609 On ch=4 n=58 v=0
38640 On ch=4 n=57 v=86
38640 On ch=4 n=53 v=86
38669 On ch=4 n=53 v=0
38669 On ch=4 n=57 v=0
38700 On ch=4 n=55 v=89
38700 On ch=4 n=51 v=89
38729 On ch=4 n=51 v=0
38729 On ch=4 n=55 v=0
38760 On ch=4 n=53 v=92
38760 On ch=4 n=50 v=92
38789 On ch=4 n=50 v=0
38789 On ch=4 n=53 v=0
38820 On ch=4 n=51 v=94
38820 On ch=4 n=48 v=94
38849 On ch=4 n=48 v=0
38849 On ch=4 n=51 v=0
38880 On ch=4 n=50 v=96
38880 On ch=4 n=46 v=96
38999 On ch=4 n=46 v=0
38999 On ch=4 n=50 v=0
39000 On ch=4 n=58 v=112
39000 On ch=4 n=53 v=112
39239 On ch=4 n=53 v=0
39239 On ch=4 n=58 v=0
39360 On ch=4 n=53 v=112
39360 On ch=4 n=58 v=112
39599 On ch=4 n=58 v=0
39599 On ch=4 n=53 v=0
39720 On ch=4 n=57 v=112
39720 On ch=4 n=53 v=112
39959 On ch=4 n=53 v=0
39959 On ch=4 n=57 v=0
40080 On ch=4 n=63 v=112
40080 On ch=4 n=51 v=112
40199 On ch=4 n=51 v=0
40199 On ch=4 n=63 v=0
40200 On ch=4 n=57 v=96
40200 On ch=4 n=53 v=96
40319 On ch=4 n=53 v=0
40319 On ch=4 n=57 v=0
40320 On ch=4 n=58 v=127
40320 On ch=4 n=46 v=127
40379 On ch=4 n=46 v=0
40379 On ch=4 n=58 v=0
40380 On ch=4 n=41 v=127
40439 On ch=4 n=41 v=0
40440 On ch=4 n=65 v=127
40440 On ch=4 n=46 v=127
40499 On ch=4 n=46 v=0
40500 On ch=4 n=41 v=127
40559 On ch=4 n=41 v=0
40560 On ch=4 n=46 v=127
40619 On ch=4 n=46 v=0
40619 On ch=4 n=65 v=0
40620 On ch=4 n=62 v=127
40620 On ch=4 n=41 v=127
40679 On ch=4 n=41 v=0
40679 On ch=4 n=62 v=0
40680 On ch=4 n=58 v=127
40680 On ch=4 n=46 v=127
40739 On ch=4 n=46 v=0
40739 On ch=4 n=58 v=0
40740 On ch=4 n=41 v=127
40799 On ch=4 n=41 v=0
40800 On ch=4 n=62 v=127
40800 On ch=4 n=46 v=127
40859 On ch=4 n=46 v=0
40860 On ch=4 n=41 v=127
40919 On ch=4 n=41 v=0
40920 On ch=4 n=46 v=127
40979 On ch=4 n=46 v=0
40979 On ch=4 n=62 v=0
40980 On ch=4 n=53 v=127
40980 On ch=4 n=41 v=127
41039 On ch=4 n=41 v=0
41039 On ch=4 n=53 v=0
41040 On ch=4 n=60 v=127
41040 On ch=4 n=45 v=127
41099 On ch=4 n=45 v=0
41099 On ch=4 n=60 v=0
41100 On ch=4 n=41 v=127
41159 On ch=4 n=41 v=0
41160 On ch=4 n=63 v=127
41160 On ch=4 n=45 v=127
41219 On ch=4 n=45 v=0
41220 On ch=4 n=41 v=127
41279 On ch=4 n=41 v=0
41280 On ch=4 n=45 v=127
41339 On ch=4 n=45 v=0
41339 On ch=4 n=63 v=0
41340 On ch=4 n=53 v=127
41340 On ch=4 n=41 v=127
41399 On ch=4 n=41 v=0
41399 On ch=4 n=53 v=0
41400 On ch=4 n=57 v=127
41400 On ch=4 n=48 v=127
41459 On ch=4 n=48 v=0
41459 On ch=4 n=57 v=0
41460 On ch=4 n=41 v=127
41519 On ch=4 n=41 v=0
41520 On ch=4 n=60 v=127
41520 On ch=4 n=51 v=127
41579 On ch=4 n=51 v=0
41580 On ch=4 n=53 v=127
41639 On ch=4 n=53 v=0
41640 On ch=4 n=51 v=127
41699 On ch=4 n=51 v=0
41699 On ch=4 n=60 v=0
41700 On ch=4 n=53 v=127
41759 On ch=4 n=53 v=0
41760 On ch=4 n=50 v=127
41760 On ch=4 n=62 v=127
42060 On ch=4 n=61 v=127
42060 On ch=4 n=49 v=127
42069 On ch=4 n=62 v=0
42069 On ch=4 n=50 v=0
42120 On ch=4 n=50 v=127
42120 On ch=4 n=62 v=127
42129 On ch=4 n=61 v=0
42129 On ch=4 n=49 v=0
42179 On ch=4 n=50 v=0
42179 On ch=4 n=62 v=0
43620 On ch=4 n=66 v=127
43620 On ch=4 n=54 v=127
43649 On ch=4 n=54 v=0
43649 On ch=4 n=66 v=0
43680 On ch=4 n=67 v=127
43680 On ch=4 n=55 v=127
43709 On ch=4 n=55 v=0
43709 On ch=4 n=67 v=0
43740 On ch=4 n=65 v=127
43740 On ch=4 n=53 v=127
43769 On ch=4 n=53 v=0
43769 On ch=4 n=65 v=0
43800 On ch=4 n=64 v=127
43800 On ch=4 n=52 v=127
43829 On ch=4 n=52 v=0
43829 On ch=4 n=64 v=0
43860 On ch=4 n=63 v=127
43860 On ch=4 n=51 v=127
43889 On ch=4 n=51 v=0
43889 On ch=4 n=63 v=0
43920 On ch=4 n=62 v=127
43920 On ch=4 n=50 v=127
43979 On ch=4 n=50 v=0
43979 On ch=4 n=62 v=0
44040 On ch=4 n=60 v=127
44040 On ch=4 n=57 v=127
44099 On ch=4 n=57 v=0
44099 On ch=4 n=60 v=0
44160 On ch=4 n=58 v=127
44160 On ch=4 n=55 v=127
44219 On ch=4 n=55 v=0
44219 On ch=4 n=58 v=0
44400 On ch=4 n=59 v=127
44400 On ch=4 n=53 v=127
44459 On ch=4 n=53 v=0
44459 On ch=4 n=59 v=0
44520 On ch=4 n=60 v=127
44520 On ch=4 n=55 v=127
44579 On ch=4 n=55 v=0
44579 On ch=4 n=60 v=0
44760 On ch=4 n=60 v=127
44760 On ch=4 n=58 v=127
44819 On ch=4 n=58 v=0
44819 On ch=4 n=60 v=0
44880 On ch=4 n=57 v=127
44880 On ch=4 n=60 v=127
44939 On ch=4 n=60 v=0
44939 On ch=4 n=57 v=0
45120 On ch=4 n=60 v=127
45120 On ch=4 n=57 v=127
45179 On ch=4 n=57 v=0
45179 On ch=4 n=60 v=0
45240 On ch=4 n=58 v=127
45240 On ch=4 n=55 v=127
45299 On ch=4 n=55 v=0
45299 On ch=4 n=58 v=0
45480 On ch=4 n=59 v=127
45480 On ch=4 n=53 v=127
45539 On ch=4 n=53 v=0
45539 On ch=4 n=59 v=0
45600 On ch=4 n=55 v=127
45600 On ch=4 n=60 v=127
45659 On ch=4 n=60 v=0
45659 On ch=4 n=55 v=0
45840 On ch=4 n=58 v=127
45840 On ch=4 n=60 v=127
45899 On ch=4 n=60 v=0
45899 On ch=4 n=58 v=0
46080 On ch=4 n=60 v=127
46080 On ch=4 n=58 v=127
46139 On ch=4 n=58 v=0
46139 On ch=4 n=60 v=0
46320 On ch=4 n=58 v=127
46320 On ch=4 n=60 v=127
46379 On ch=4 n=60 v=0
46379 On ch=4 n=58 v=0
46560 On ch=4 n=60 v=127
46560 On ch=4 n=58 v=127
46619 On ch=4 n=58 v=0
46619 On ch=4 n=60 v=0
46800 On ch=4 n=58 v=127
46800 On ch=4 n=60 v=127
46859 On ch=4 n=60 v=0
46859 On ch=4 n=58 v=0
47040 On ch=4 n=60 v=127
47099 On ch=4 n=60 v=0
47520 On ch=4 n=61 v=96
47520 On ch=4 n=54 v=96
47549 On ch=4 n=54 v=0
47549 On ch=4 n=61 v=0
47550 On ch=4 n=54 v=48
47550 On ch=4 n=61 v=48
47880 On ch=4 n=53 v=48
47880 On ch=4 n=62 v=48
47889 On ch=4 n=61 v=0
47889 On ch=4 n=54 v=0
48239 On ch=4 n=53 v=0
48239 On ch=4 n=62 v=0
48240 On ch=4 n=61 v=96
48240 On ch=4 n=55 v=96
48269 On ch=4 n=55 v=0
48269 On ch=4 n=61 v=0
48270 On ch=4 n=55 v=48
48270 On ch=4 n=61 v=48
48839 On ch=4 n=61 v=0
48839 On ch=4 n=55 v=0
48840 On ch=4 n=61 v=48
48840 On ch=4 n=58 v=48
48899 On ch=4 n=58 v=0
48899 On ch=4 n=61 v=0
49080 On ch=4 n=56 v=48
49080 On ch=4 n=60 v=48
49139 On ch=4 n=60 v=0
49139 On ch=4 n=56 v=0
49320 On ch=4 n=60 v=48
49320 On ch=4 n=57 v=48
49379 On ch=4 n=57 v=0
49379 On ch=4 n=60 v=0
49560 On ch=4 n=57 v=48
49560 On ch=4 n=60 v=48
49619 On ch=4 n=60 v=0
49619 On ch=4 n=57 v=0
49800 On ch=4 n=62 v=48
49800 On ch=4 n=58 v=48
49859 On ch=4 n=58 v=0
49859 On ch=4 n=62 v=0
50040 On ch=4 n=51 v=64
50040 On ch=4 n=63 v=64
50399 On ch=4 n=63 v=0
50399 On ch=4 n=51 v=0
50400 On ch=4 n=48 v=72
50400 On ch=4 n=60 v=72
50579 On ch=4 n=60 v=0
50579 On ch=4 n=48 v=0
50580 On ch=4 n=55 v=81
50580 On ch=4 n=48 v=81
50640 On ch=4 n=50 v=83
50640 On ch=4 n=59 v=83
50649 On ch=4 n=48 v=0
50649 On ch=4 n=55 v=0
50700 On ch=4 n=60 v=86
50700 On ch=4 n=51 v=86
50709 On ch=4 n=50 v=0
50709 On ch=4 n=59 v=0
50759 On ch=4 n=60 v=0
50759 On ch=4 n=51 v=0
50760 On ch=4 n=53 v=88
50760 On ch=4 n=58 v=88
50819 On ch=4 n=58 v=0
50819 On ch=4 n=53 v=0
50820 On ch=4 n=65 v=93
50820 On ch=4 n=53 v=93
50879 On ch=4 n=53 v=0
50879 On ch=4 n=65 v=0
50880 On ch=4 n=65 v=97
50880 On ch=4 n=53 v=97
50939 On ch=4 n=53 v=0
50939 On ch=4 n=65 v=0
50940 On ch=4 n=65 v=101
50940 On ch=4 n=53 v=101
50999 On ch=4 n=53 v=0
50999 On ch=4 n=65 v=0
51000 On ch=4 n=62 v=105
51000 On ch=4 n=50 v=105
51059 On ch=4 n=50 v=0
51059 On ch=4 n=62 v=0
51060 On ch=4 n=58 v=109
51060 On ch=4 n=46 v=109
51119 On ch=4 n=46 v=0
51119 On ch=4 n=58 v=0
51120 On ch=4 n=60 v=127
51120 On ch=4 n=53 v=127
51479 On ch=4 n=53 v=0
51479 On ch=4 n=60 v=0
51480 On ch=4 n=46 v=96
51480 On ch=4 n=58 v=96
51539 On ch=4 n=58 v=0
51539 On ch=4 n=46 v=0
51840 On ch=4 n=58 v=96
51840 On ch=4 n=46 v=96
51899 On ch=4 n=46 v=0
51899 On ch=4 n=58 v=0
52200 On ch=4 n=46 v=96
52200 On ch=4 n=58 v=96
52259 On ch=4 n=58 v=0
52259 On ch=4 n=46 v=0
52560 On ch=4 n=63 v=96
52560 On ch=4 n=60 v=96
52619 On ch=4 n=60 v=0
52619 On ch=4 n=63 v=0
52680 On ch=4 n=60 v=96
52680 On ch=4 n=63 v=96
52739 On ch=4 n=63 v=0
52739 On ch=4 n=60 v=0
52800 On ch=4 n=63 v=96
52800 On ch=4 n=60 v=96
52859 On ch=4 n=60 v=0
52859 On ch=4 n=63 v=0
52920 On ch=4 n=62 v=96
52920 On ch=4 n=58 v=96
52979 On ch=4 n=58 v=0
52979 On ch=4 n=62 v=0
61440 On ch=4 n=51 v=48
61560 On ch=4 n=56 v=48
61569 On ch=4 n=51 v=0
61680 On ch=4 n=60 v=48
61689 On ch=4 n=56 v=0
61800 On ch=4 n=63 v=48
61809 On ch=4 n=60 v=0
61919 On ch=4 n=63 v=0
61920 On ch=4 n=56 v=48
62160 On ch=4 n=57 v=64
62169 On ch=4 n=56 v=0
62279 On ch=4 n=57 v=0
62280 On ch=4 n=58 v=96
62309 On ch=4 n=58 v=0
62310 On ch=4 n=58 v=48
62640 On ch=4 n=62 v=48
62880 On ch=4 n=56 v=48
62880 On ch=4 n=65 v=48
62889 On ch=4 n=62 v=0
62889 On ch=4 n=58 v=0
62999 On ch=4 n=56 v=0
62999 On ch=4 n=65 v=0
63000 On ch=4 n=63 v=48
63000 On ch=4 n=55 v=48
63059 On ch=4 n=55 v=0
63059 On ch=4 n=63 v=0
63120 On ch=4 n=60 v=96
63120 On ch=4 n=54 v=96
63359 On ch=4 n=54 v=0
63359 On ch=4 n=60 v=0
63360 On ch=4 n=54 v=96
63360 On ch=4 n=60 v=96
63599 On ch=4 n=60 v=0
63599 On ch=4 n=54 v=0
63600 On ch=4 n=54 v=96
63600 On ch=4 n=60 v=96
63719 On ch=4 n=60 v=0
63719 On ch=4 n=54 v=0
63720 On ch=4 n=53 v=90
63720 On ch=4 n=62 v=90
63779 On ch=4 n=62 v=0
63779 On ch=4 n=53 v=0
64320 On ch=4 n=58 v=96
64320 On ch=4 n=62 v=96
64440 On ch=4 n=56 v=96
64449 On ch=4 n=58 v=0
64559 On ch=4 n=56 v=0
64559 On ch=4 n=62 v=0
64560 On ch=4 n=62 v=96
64560 On ch=4 n=56 v=96
64799 On ch=4 n=56 v=0
64799 On ch=4 n=62 v=0
64800 On ch=4 n=56 v=96
64800 On ch=4 n=62 v=96
65039 On ch=4 n=62 v=0
65039 On ch=4 n=56 v=0
65040 On ch=4 n=56 v=96
65040 On ch=4 n=62 v=96
65279 On ch=4 n=62 v=0
65279 On ch=4 n=56 v=0
65280 On ch=4 n=55 v=96
65280 On ch=4 n=63 v=96
65519 On ch=4 n=63 v=0
65519 On ch=4 n=55 v=0
65520 On ch=4 n=55 v=96
65520 On ch=4 n=63 v=96
65759 On ch=4 n=63 v=0
65759 On ch=4 n=55 v=0
65760 On ch=4 n=55 v=96
65760 On ch=4 n=63 v=96
65999 On ch=4 n=63 v=0
65999 On ch=4 n=55 v=0
66000 On ch=4 n=56 v=90
66000 On ch=4 n=62 v=90
66059 On ch=4 n=62 v=0
66059 On ch=4 n=56 v=0
66120 On ch=4 n=56 v=96
66120 On ch=4 n=62 v=96
66359 On ch=4 n=62 v=0
66359 On ch=4 n=56 v=0
66360 On ch=4 n=55 v=90
66360 On ch=4 n=63 v=90
66419 On ch=4 n=63 v=0
66419 On ch=4 n=55 v=0
66480 On ch=4 n=55 v=96
66480 On ch=4 n=63 v=96
66600 On ch=4 n=56 v=90
66600 On ch=4 n=62 v=90
66609 On ch=4 n=63 v=0
66609 On ch=4 n=55 v=0
66719 On ch=4 n=56 v=0
66719 On ch=4 n=62 v=0
66720 On ch=4 n=46 v=96
66749 On ch=4 n=46 v=0
66780 On ch=4 n=48 v=99
66809 On ch=4 n=48 v=0
66840 On ch=4 n=50 v=101
66869 On ch=4 n=50 v=0
66900 On ch=4 n=51 v=104
66929 On ch=4 n=51 v=0
66960 On ch=4 n=53 v=106
66989 On ch=4 n=53 v=0
67020 On ch=4 n=55 v=109
67049 On ch=4 n=55 v=0
67080 On ch=4 n=56 v=111
67109 On ch=4 n=56 v=0
67140 On ch=4 n=58 v=114
67169 On ch=4 n=58 v=0
67200 On ch=4 n=60 v=116
67229 On ch=4 n=60 v=0
67260 On ch=4 n=62 v=125
67289 On ch=4 n=62 v=0
67320 On ch=4 n=51 v=127
67320 On ch=4 n=63 v=127
67560 On ch=4 n=67 v=127
67560 On ch=4 n=55 v=127
67569 On ch=4 n=63 v=0
67569 On ch=4 n=51 v=0
67680 On ch=4 n=51 v=127
67680 On ch=4 n=63 v=127
67689 On ch=4 n=67 v=0
67689 On ch=4 n=55 v=0
67920 On ch=4 n=46 v=127
67920 On ch=4 n=58 v=127
67929 On ch=4 n=51 v=0
67929 On ch=4 n=63 v=0
68039 On ch=4 n=46 v=0
68039 On ch=4 n=58 v=0
68040 On ch=4 n=63 v=127
68040 On ch=4 n=51 v=127
68160 On ch=4 n=55 v=127
68169 On ch=4 n=51 v=0
68169 On ch=4 n=63 v=0
68280 On ch=4 n=58 v=127
68289 On ch=4 n=55 v=0
68400 On ch=4 n=51 v=127
68409 On ch=4 n=58 v=0
68639 On ch=4 n=51 v=0
68640 On ch=4 n=55 v=127
68640 On ch=4 n=43 v=127
68759 On ch=4 n=43 v=0
68759 On ch=4 n=55 v=0
68760 On ch=4 n=60 v=127
68760 On ch=4 n=48 v=127
68880 On ch=4 n=51 v=127
68880 On ch=4 n=63 v=127
68889 On ch=4 n=48 v=0
68889 On ch=4 n=60 v=0
69000 On ch=4 n=67 v=127
69000 On ch=4 n=55 v=127
69009 On ch=4 n=51 v=0
69009 On ch=4 n=63 v=0
69119 On ch=4 n=67 v=0
69119 On ch=4 n=55 v=0
69120 On ch=4 n=60 v=127
69120 On ch=4 n=48 v=127
69359 On ch=4 n=48 v=0
69359 On ch=4 n=60 v=0
69360 On ch=4 n=61 v=127
69360 On ch=4 n=51 v=127
69479 On ch=4 n=51 v=0
69479 On ch=4 n=61 v=0
69480 On ch=4 n=56 v=127
69480 On ch=4 n=60 v=127
69839 On ch=4 n=56 v=0
69840 On ch=4 n=54 v=127
69900 On ch=4 n=58 v=127
69909 On ch=4 n=60 v=0
69960 On ch=4 n=57 v=127
69969 On ch=4 n=58 v=0
70020 On ch=4 n=58 v=127
70029 On ch=4 n=57 v=0
70080 On ch=4 n=60 v=127
70089 On ch=4 n=58 v=0
70140 On ch=4 n=58 v=127
70149 On ch=4 n=60 v=0
70200 On ch=4 n=57 v=127
70200 On ch=4 n=53 v=127
70209 On ch=4 n=58 v=0
70209 On ch=4 n=54 v=0
70319 On ch=4 n=57 v=0
70319 On ch=4 n=53 v=0
73560 On ch=4 n=66 v=64
73740 On ch=4 n=65 v=56
73749 On ch=4 n=66 v=0
73800 On ch=4 n=63 v=56
73809 On ch=4 n=65 v=0
73919 On ch=4 n=63 v=0
73920 On ch=4 n=67 v=127
73920 On ch=4 n=55 v=127
74099 On ch=4 n=55 v=0
74099 On ch=4 n=67 v=0
74100 On ch=4 n=65 v=127
74100 On ch=4 n=53 v=127
74159 On ch=4 n=53 v=0
74159 On ch=4 n=65 v=0
74160 On ch=4 n=51 v=127
74160 On ch=4 n=63 v=127
74219 On ch=4 n=63 v=0
74219 On ch=4 n=51 v=0
74280 On ch=4 n=62 v=127
74280 On ch=4 n=50 v=127
74339 On ch=4 n=50 v=0
74339 On ch=4 n=62 v=0
74400 On ch=4 n=48 v=127
74400 On ch=4 n=60 v=127
74459 On ch=4 n=60 v=0
74459 On ch=4 n=48 v=0
74520 On ch=4 n=58 v=48
74760 On ch=4 n=57 v=60
74820 On ch=4 n=56 v=62
74829 On ch=4 n=57 v=0
74880 On ch=4 n=55 v=64
74889 On ch=4 n=56 v=0
75000 On ch=4 n=57 v=57
75000 On ch=4 n=53 v=57
75009 On ch=4 n=55 v=0
75009 On ch=4 n=58 v=0
75120 On ch=4 n=51 v=52
75120 On ch=4 n=55 v=52
75129 On ch=4 n=57 v=0
75129 On ch=4 n=53 v=0
75239 On ch=4 n=51 v=0
75239 On ch=4 n=55 v=0
75240 On ch=4 n=53 v=48
75240 On ch=4 n=50 v=48
75480 On ch=4 n=48 v=48
75480 On ch=4 n=51 v=48
75489 On ch=4 n=50 v=0
75489 On ch=4 n=53 v=0
75540 On ch=4 n=46 v=48
75540 On ch=4 n=50 v=48
75549 On ch=4 n=48 v=0
75549 On ch=4 n=51 v=0
75600 On ch=4 n=48 v=48
75600 On ch=4 n=45 v=48
75609 On ch=4 n=46 v=0
75609 On ch=4 n=50 v=0
75719 On ch=4 n=48 v=0
75719 On ch=4 n=45 v=0
75720 On ch=4 n=57 v=48
75720 On ch=4 n=53 v=48
75809 On ch=4 n=53 v=0
75809 On ch=4 n=57 v=0
75840 On ch=4 n=53 v=48
75840 On ch=4 n=57 v=48
75929 On ch=4 n=57 v=0
75929 On ch=4 n=53 v=0
75960 On ch=4 n=58 v=48
75960 On ch=4 n=46 v=48
76079 On ch=4 n=46 v=0
76079 On ch=4 n=58 v=0
76740 On ch=4 n=65 v=74
76769 On ch=4 n=65 v=0
76800 On ch=4 n=63 v=76
76829 On ch=4 n=63 v=0
76860 On ch=4 n=62 v=78
76889 On ch=4 n=62 v=0
76920 On ch=4 n=60 v=80
76949 On ch=4 n=60 v=0
76980 On ch=4 n=58 v=82
77009 On ch=4 n=58 v=0
77040 On ch=4 n=57 v=84
77069 On ch=4 n=57 v=0
77100 On ch=4 n=62 v=86
77100 On ch=4 n=58 v=86
77129 On ch=4 n=58 v=0
77129 On ch=4 n=62 v=0
77160 On ch=4 n=63 v=88
77160 On ch=4 n=60 v=88
77189 On ch=4 n=60 v=0
77189 On ch=4 n=63 v=0
77220 On ch=4 n=62 v=90
77220 On ch=4 n=58 v=90
77249 On ch=4 n=58 v=0
77249 On ch=4 n=62 v=0
77280 On ch=4 n=60 v=92
77280 On ch=4 n=57 v=92
77309 On ch=4 n=57 v=0
77309 On ch=4 n=60 v=0
77340 On ch=4 n=58 v=94
77340 On ch=4 n=55 v=94
77369 On ch=4 n=55 v=0
77369 On ch=4 n=58 v=0
77400 On ch=4 n=57 v=96
77400 On ch=4 n=54 v=96
77459 On ch=4 n=54 v=0
77459 On ch=4 n=57 v=0
77520 On ch=4 n=57 v=96
77520 On ch=4 n=54 v=96
77579 On ch=4 n=54 v=0
77579 On ch=4 n=57 v=0
78060 On ch=4 n=54 v=96
78060 On ch=4 n=57 v=96
78089 On ch=4 n=57 v=0
78089 On ch=4 n=54 v=0
78120 On ch=4 n=58 v=96
78120 On ch=4 n=55 v=96
78179 On ch=4 n=55 v=0
78179 On ch=4 n=58 v=0
78240 On ch=4 n=58 v=96
78240 On ch=4 n=55 v=96
78299 On ch=4 n=55 v=0
78299 On ch=4 n=58 v=0
78780 On ch=4 n=58 v=96
78780 On ch=4 n=55 v=96
78809 On ch=4 n=55 v=0
78809 On ch=4 n=58 v=0
78840 On ch=4 n=56 v=96
78840 On ch=4 n=53 v=96
78899 On ch=4 n=53 v=0
78899 On ch=4 n=56 v=0
78960 On ch=4 n=53 v=96
78960 On ch=4 n=56 v=96
79019 On ch=4 n=56 v=0
79019 On ch=4 n=53 v=0
79500 On ch=4 n=65 v=96
79500 On ch=4 n=53 v=96
79529 On ch=4 n=53 v=0
79529 On ch=4 n=65 v=0
79560 On ch=4 n=63 v=96
79560 On ch=4 n=51 v=96
79589 On ch=4 n=51 v=0
79589 On ch=4 n=63 v=0
79620 On ch=4 n=58 v=96
79620 On ch=4 n=51 v=96
79739 On ch=4 n=51 v=0
79739 On ch=4 n=58 v=0
79740 On ch=4 n=58 v=96
79740 On ch=4 n=52 v=96
79769 On ch=4 n=52 v=0
79769 On ch=4 n=58 v=0
79800 On ch=4 n=57 v=96
79800 On ch=4 n=53 v=96
79829 On ch=4 n=53 v=0
79829 On ch=4 n=57 v=0
79860 On ch=4 n=54 v=96
79860 On ch=4 n=60 v=96
79889 On ch=4 n=60 v=0
79889 On ch=4 n=54 v=0
79920 On ch=4 n=58 v=96
79920 On ch=4 n=55 v=96
79949 On ch=4 n=55 v=0
79949 On ch=4 n=58 v=0
79980 On ch=4 n=55 v=96
79980 On ch=4 n=61 v=96
80099 On ch=4 n=61 v=0
80099 On ch=4 n=55 v=0
80100 On ch=4 n=61 v=96
80100 On ch=4 n=55 v=96
80129 On ch=4 n=55 v=0
80129 On ch=4 n=61 v=0
80160 On ch=4 n=60 v=96
80160 On ch=4 n=56 v=96
80189 On ch=4 n=56 v=0
80189 On ch=4 n=60 v=0
80220 On ch=4 n=57 v=96
80220 On ch=4 n=60 v=96
80249 On ch=4 n=60 v=0
80249 On ch=4 n=57 v=0
80280 On ch=4 n=62 v=96
80280 On ch=4 n=58 v=96
80399 On ch=4 n=58 v=0
80399 On ch=4 n=62 v=0
80880 On ch=4 n=58 v=96
80880 On ch=4 n=50 v=96
81000 On ch=4 n=51 v=96
81009 On ch=4 n=50 v=0
81240 On ch=4 n=59 v=96
81249 On ch=4 n=58 v=0
81360 On ch=4 n=60 v=96
81369 On ch=4 n=59 v=0
81420 On ch=4 n=59 v=96
81429 On ch=4 n=60 v=0
81480 On ch=4 n=62 v=96
81489 On ch=4 n=59 v=0
81540 On ch=4 n=55 v=96
81540 On ch=4 n=60 v=96
81549 On ch=4 n=62 v=0
81549 On ch=4 n=51 v=0
81600 On ch=4 n=59 v=96
81600 On ch=4 n=65 v=96
81609 On ch=4 n=55 v=0
81609 On ch=4 n=60 v=0
81660 On ch=4 n=60 v=96
81660 On ch=4 n=63 v=96
81669 On ch=4 n=59 v=0
81669 On ch=4 n=65 v=0
81720 On ch=4 n=58 v=96
81720 On ch=4 n=62 v=96
81729 On ch=4 n=60 v=0
81729 On ch=4 n=63 v=0
81839 On ch=4 n=58 v=0
81839 On ch=4 n=62 v=0
82440 On ch=4 n=65 v=96
83219 On ch=4 n=65 v=0
83220 On ch=4 n=64 v=127
83249 On ch=4 n=64 v=0
83280 On ch=4 n=63 v=127
83309 On ch=4 n=63 v=0
83340 On ch=4 n=62 v=127
83369 On ch=4 n=62 v=0
83400 On ch=4 n=60 v=127
83429 On ch=4 n=60 v=0
83460 On ch=4 n=58 v=127
83489 On ch=4 n=58 v=0
83520 On ch=4 n=57 v=127
83549 On ch=4 n=57 v=0
83580 On ch=4 n=67 v=127
83580 On ch=4 n=55 v=127
83609 On ch=4 n=55 v=0
83609 On ch=4 n=67 v=0
83640 On ch=4 n=65 v=127
83640 On ch=4 n=53 v=127
83669 On ch=4 n=53 v=0
83669 On ch=4 n=65 v=0
83700 On ch=4 n=63 v=127
83700 On ch=4 n=51 v=127
83729 On ch=4 n=51 v=0
83729 On ch=4 n=63 v=0
83760 On ch=4 n=62 v=127
83760 On ch=4 n=50 v=127
83789 On ch=4 n=50 v=0
83789 On ch=4 n=62 v=0
83820 On ch=4 n=60 v=127
83820 On ch=4 n=48 v=127
83849 On ch=4 n=48 v=0
83849 On ch=4 n=60 v=0
83880 On ch=4 n=58 v=127
83880 On ch=4 n=46 v=127
83999 On ch=4 n=46 v=0
83999 On ch=4 n=58 v=0
84000 On ch=4 n=62 v=48
84000 On ch=4 n=58 v=48
84089 On ch=4 n=58 v=0
84089 On ch=4 n=62 v=0
84120 On ch=4 n=58 v=48
84120 On ch=4 n=62 v=48
84209 On ch=4 n=62 v=0
84209 On ch=4 n=58 v=0
84240 On ch=4 n=62 v=56
84240 On ch=4 n=58 v=56
84329 On ch=4 n=58 v=0
84329 On ch=4 n=62 v=0
84360 On ch=4 n=58 v=64
84360 On ch=4 n=62 v=64
84449 On ch=4 n=62 v=0
84449 On ch=4 n=58 v=0
84480 On ch=4 n=62 v=72
84480 On ch=4 n=58 v=72
84569 On ch=4 n=58 v=0
84569 On ch=4 n=62 v=0
84600 On ch=4 n=62 v=80
84600 On ch=4 n=58 v=80
84689 On ch=4 n=58 v=0
84689 On ch=4 n=62 v=0
84720 On ch=4 n=58 v=88
84720 On ch=4 n=62 v=88
84809 On ch=4 n=62 v=0
84809 On ch=4 n=58 v=0
84840 On ch=4 n=58 v=96
84840 On ch=4 n=46 v=96
84959 On ch=4 n=46 v=0
84960 On ch=4 n=51 v=96
85080 On ch=4 n=59 v=72
85089 On ch=4 n=58 v=0
85200 On ch=4 n=60 v=64
85209 On ch=4 n=59 v=0
85319 On ch=4 n=60 v=0
85319 On ch=4 n=51 v=0
86280 On ch=4 n=67 v=96
86520 On ch=4 n=65 v=96
86529 On ch=4 n=67 v=0
86580 On ch=4 n=63 v=84
86589 On ch=4 n=65 v=0
86640 On ch=4 n=62 v=72
86649 On ch=4 n=63 v=0
86700 On ch=4 n=60 v=60
86709 On ch=4 n=62 v=0
86760 On ch=4 n=58 v=48
86769 On ch=4 n=60 v=0
86879 On ch=4 n=58 v=0
86880 On ch=4 n=61 v=48
86880 On ch=4 n=58 v=48
86969 On ch=4 n=58 v=0
86969 On ch=4 n=61 v=0
87000 On ch=4 n=58 v=48
87000 On ch=4 n=61 v=48
87089 On ch=4 n=61 v=0
87089 On ch=4 n=58 v=0
87120 On ch=4 n=61 v=56
87120 On ch=4 n=58 v=56
87209 On ch=4 n=58 v=0
87209 On ch=4 n=61 v=0
87240 On ch=4 n=58 v=64
87240 On ch=4 n=61 v=64
87329 On ch=4 n=61 v=0
87329 On ch=4 n=58 v=0
87360 On ch=4 n=61 v=72
87360 On ch=4 n=58 v=72
87449 On ch=4 n=58 v=0
87449 On ch=4 n=61 v=0
87480 On ch=4 n=61 v=80
87480 On ch=4 n=58 v=80
87569 On ch=4 n=58 v=0
87569 On ch=4 n=61 v=0
87600 On ch=4 n=56 v=88
87600 On ch=4 n=61 v=88
87689 On ch=4 n=61 v=0
87689 On ch=4 n=56 v=0
87720 On ch=4 n=56 v=88
87720 On ch=4 n=61 v=88
87809 On ch=4 n=61 v=0
87809 On ch=4 n=56 v=0
87840 On ch=4 n=61 v=96
87840 On ch=4 n=56 v=96
88080 On ch=4 n=60 v=84
88089 On ch=4 n=61 v=0
88199 On ch=4 n=60 v=0
88199 On ch=4 n=56 v=0
88920 On ch=4 n=60 v=48
88920 On ch=4 n=48 v=48
89039 On ch=4 n=48 v=0
89039 On ch=4 n=60 v=0
89400 On ch=4 n=67 v=56
89400 On ch=4 n=60 v=56
89489 On ch=4 n=60 v=0
89489 On ch=4 n=67 v=0
89520 On ch=4 n=67 v=56
89520 On ch=4 n=60 v=56
89609 On ch=4 n=60 v=0
89609 On ch=4 n=67 v=0
89640 On ch=4 n=65 v=48
89640 On ch=4 n=53 v=48
89759 On ch=4 n=53 v=0
89759 On ch=4 n=65 v=0
92760 On ch=4 n=63 v=75
92760 On ch=4 n=60 v=75
92789 On ch=4 n=60 v=0
92789 On ch=4 n=63 v=0
92820 On ch=4 n=62 v=78
92820 On ch=4 n=58 v=78
92849 On ch=4 n=58 v=0
92849 On ch=4 n=62 v=0
92880 On ch=4 n=60 v=80
92880 On ch=4 n=57 v=80
92909 On ch=4 n=57 v=0
92909 On ch=4 n=60 v=0
92940 On ch=4 n=58 v=83
92940 On ch=4 n=55 v=83
92969 On ch=4 n=55 v=0
92969 On ch=4 n=58 v=0
93000 On ch=4 n=57 v=86
93000 On ch=4 n=53 v=86
93029 On ch=4 n=53 v=0
93029 On ch=4 n=57 v=0
93060 On ch=4 n=55 v=89
93060 On ch=4 n=51 v=89
93089 On ch=4 n=51 v=0
93089 On ch=4 n=55 v=0
93120 On ch=4 n=53 v=92
93120 On ch=4 n=50 v=92
93149 On ch=4 n=50 v=0
93149 On ch=4 n=53 v=0
93180 On ch=4 n=51 v=94
93180 On ch=4 n=48 v=94
93209 On ch=4 n=48 v=0
93209 On ch=4 n=51 v=0
93240 On ch=4 n=50 v=96
93240 On ch=4 n=46 v=96
93359 On ch=4 n=46 v=0
93359 On ch=4 n=50 v=0
93360 On ch=4 n=58 v=112
93360 On ch=4 n=53 v=112
93599 On ch=4 n=53 v=0
93599 On ch=4 n=58 v=0
93720 On ch=4 n=53 v=112
93720 On ch=4 n=58 v=112
93959 On ch=4 n=58 v=0
93959 On ch=4 n=53 v=0
94080 On ch=4 n=57 v=112
94080 On ch=4 n=53 v=112
94319 On ch=4 n=53 v=0
94319 On ch=4 n=57 v=0
94440 On ch=4 n=63 v=112
94440 On ch=4 n=51 v=112
94559 On ch=4 n=51 v=0
94559 On ch=4 n=63 v=0
94560 On ch=4 n=57 v=96
94560 On ch=4 n=53 v=96
94679 On ch=4 n=53 v=0
94679 On ch=4 n=57 v=0
94680 On ch=4 n=58 v=127
94680 On ch=4 n=46 v=127
94739 On ch=4 n=46 v=0
94739 On ch=4 n=58 v=0
94740 On ch=4 n=41 v=127
94799 On ch=4 n=41 v=0
94800 On ch=4 n=65 v=127
94800 On ch=4 n=46 v=127
94859 On ch=4 n=46 v=0
94860 On ch=4 n=41 v=127
94919 On ch=4 n=41 v=0
94920 On ch=4 n=46 v=127
94979 On ch=4 n=46 v=0
94979 On ch=4 n=65 v=0
94980 On ch=4 n=62 v=127
94980 On ch=4 n=41 v=127
95039 On ch=4 n=41 v=0
95039 On ch=4 n=62 v=0
95040 On ch=4 n=58 v=127
95040 On ch=4 n=46 v=127
95099 On ch=4 n=46 v=0
95099 On ch=4 n=58 v=0
95100 On ch=4 n=41 v=127
95159 On ch=4 n=41 v=0
95160 On ch=4 n=62 v=127
95160 On ch=4 n=46 v=127
95219 On ch=4 n=46 v=0
95220 On ch=4 n=41 v=127
95279 On ch=4 n=41 v=0
95280 On ch=4 n=46 v=127
95339 On ch=4 n=46 v=0
95339 On ch=4 n=62 v=0
95340 On ch=4 n=53 v=127
95340 On ch=4 n=41 v=127
95399 On ch=4 n=41 v=0
95399 On ch=4 n=53 v=0
95400 On ch=4 n=60 v=127
95400 On ch=4 n=45 v=127
95459 On ch=4 n=45 v=0
95459 On ch=4 n=60 v=0
95460 On ch=4 n=41 v=127
95519 On ch=4 n=41 v=0
95520 On ch=4 n=63 v=127
95520 On ch=4 n=45 v=127
95579 On ch=4 n=45 v=0
95580 On ch=4 n=41 v=127
95639 On ch=4 n=41 v=0
95640 On ch=4 n=45 v=127
95699 On ch=4 n=45 v=0
95699 On ch=4 n=63 v=0
95700 On ch=4 n=53 v=127
95700 On ch=4 n=41 v=127
95759 On ch=4 n=41 v=0
95759 On ch=4 n=53 v=0
95760 On ch=4 n=57 v=127
95760 On ch=4 n=48 v=127
95819 On ch=4 n=48 v=0
95819 On ch=4 n=57 v=0
95820 On ch=4 n=41 v=127
95879 On ch=4 n=41 v=0
95880 On ch=4 n=60 v=127
95880 On ch=4 n=51 v=127
95939 On ch=4 n=51 v=0
95940 On ch=4 n=53 v=127
95999 On ch=4 n=53 v=0
96000 On ch=4 n=51 v=127
96059 On ch=4 n=51 v=0
96059 On ch=4 n=60 v=0
96060 On ch=4 n=53 v=127
96119 On ch=4 n=53 v=0
96120 On ch=4 n=50 v=127
96120 On ch=4 n=62 v=127
96420 On ch=4 n=61 v=127
96420 On ch=4 n=49 v=127
96429 On ch=4 n=62 v=0
96429 On ch=4 n=50 v=0
96480 On ch=4 n=50 v=127
96480 On ch=4 n=62 v=127
96489 On ch=4 n=61 v=0
96489 On ch=4 n=49 v=0
96539 On ch=4 n=50 v=0
96539 On ch=4 n=62 v=0
97980 On ch=4 n=66 v=127
97980 On ch=4 n=54 v=127
98009 On ch=4 n=54 v=0
98009 On ch=4 n=66 v=0
98040 On ch=4 n=67 v=127
98040 On ch=4 n=55 v=127
98069 On ch=4 n=55 v=0
98069 On ch=4 n=67 v=0
98100 On ch=4 n=65 v=127
98100 On ch=4 n=53 v=127
98129 On ch=4 n=53 v=0
98129 On ch=4 n=65 v=0
98160 On ch=4 n=64 v=127
98160 On ch=4 n=52 v=127
98189 On ch=4 n=52 v=0
98189 On ch=4 n=64 v=0
98220 On ch=4 n=63 v=127
98220 On ch=4 n=51 v=127
98249 On ch=4 n=51 v=0
98249 On ch=4 n=63 v=0
98280 On ch=4 n=62 v=127
98280 On ch=4 n=50 v=127
98339 On ch=4 n=50 v=0
98339 On ch=4 n=62 v=0
98400 On ch=4 n=60 v=127
98400 On ch=4 n=57 v=127
98459 On ch=4 n=57 v=0
98459 On ch=4 n=60 v=0
98520 On ch=4 n=58 v=127
98520 On ch=4 n=55 v=127
98579 On ch=4 n=55 v=0
98579 On ch=4 n=58 v=0
98760 On ch=4 n=59 v=127
98760 On ch=4 n=53 v=127
98819 On ch=4 n=53 v=0
98819 On ch=4 n=59 v=0
98880 On ch=4 n=60 v=127
98880 On ch=4 n=55 v=127
98939 On ch=4 n=55 v=0
98939 On ch=4 n=60 v=0
99120 On ch=4 n=60 v=127
99120 On ch=4 n=58 v=127
99179 On ch=4 n=58 v=0
99179 On ch=4 n=60 v=0
99240 On ch=4 n=57 v=127
99240 On ch=4 n=60 v=127
99299 On ch=4 n=60 v=0
99299 On ch=4 n=57 v=0
99480 On ch=4 n=60 v=127
99480 On ch=4 n=57 v=127
99539 On ch=4 n=57 v=0
99539 On ch=4 n=60 v=0
99600 On ch=4 n=58 v=127
99600 On ch=4 n=55 v=127
99659 On ch=4 n=55 v=0
99659 On ch=4 n=58 v=0
99840 On ch=4 n=59 v=127
99840 On ch=4 n=53 v=127
99899 On ch=4 n=53 v=0
99899 On ch=4 n=59 v=0
99960 On ch=4 n=55 v=127
99960 On ch=4 n=60 v=127
100019 On ch=4 n=60 v=0
100019 On ch=4 n=55 v=0
100200 On ch=4 n=58 v=127
100200 On ch=4 n=60 v=127
100259 On ch=4 n=60 v=0
100259 On ch=4 n=58 v=0
100440 On ch=4 n=60 v=127
100440 On ch=4 n=58 v=127
100499 On ch=4 n=58 v=0
100499 On ch=4 n=60 v=0
100680 On ch=4 n=58 v=127
100680 On ch=4 n=60 v=127
100739 On ch=4 n=60 v=0
100739 On ch=4 n=58 v=0
100920 On ch=4 n=60 v=127
100920 On ch=4 n=58 v=127
100979 On ch=4 n=58 v=0
100979 On ch=4 n=60 v=0
101160 On ch=4 n=58 v=127
101160 On ch=4 n=60 v=127
101219 On ch=4 n=60 v=0
101219 On ch=4 n=58 v=0
101400 On ch=4 n=60 v=127
101459 On ch=4 n=60 v=0
101880 On ch=4 n=61 v=96
101880 On ch=4 n=54 v=96
101909 On ch=4 n=54 v=0
101909 On ch=4 n=61 v=0
101910 On ch=4 n=54 v=48
101910 On ch=4 n=61 v=48
102240 On ch=4 n=53 v=48
102240 On ch=4 n=62 v=48
102249 On ch=4 n=61 v=0
102249 On ch=4 n=54 v=0
102599 On ch=4 n=53 v=0
102599 On ch=4 n=62 v=0
102600 On ch=4 n=61 v=96
102600 On ch=4 n=55 v=96
102629 On ch=4 n=55 v=0
102629 On ch=4 n=61 v=0
102630 On ch=4 n=55 v=48
102630 On ch=4 n=61 v=48
103199 On ch=4 n=61 v=0
103199 On ch=4 n=55 v=0
103200 On ch=4 n=61 v=48
103200 On ch=4 n=58 v=48
103259 On ch=4 n=58 v=0
103259 On ch=4 n=61 v=0
103440 On ch=4 n=56 v=48
103440 On ch=4 n=60 v=48
103499 On ch=4 n=60 v=0
103499 On ch=4 n=56 v=0
103680 On ch=4 n=60 v=48
103680 On ch=4 n=57 v=48
103739 On ch=4 n=57 v=0
103739 On ch=4 n=60 v=0
103920 On ch=4 n=57 v=48
103920 On ch=4 n=60 v=48
103979 On ch=4 n=60 v=0
103979 On ch=4 n=57 v=0
104160 On ch=4 n=62 v=48
104160 On ch=4 n=58 v=48
104219 On ch=4 n=58 v=0
104219 On ch=4 n=62 v=0
104400 On ch=4 n=51 v=64
104400 On ch=4 n=63 v=64
104759 On ch=4 n=63 v=0
104759 On ch=4 n=51 v=0
104760 On ch=4 n=48 v=72
104760 On ch=4 n=60 v=72
104939 On ch=4 n=60 v=0
104939 On ch=4 n=48 v=0
104940 On ch=4 n=55 v=81
104940 On ch=4 n=48 v=81
105000 On ch=4 n=50 v=83
105000 On ch=4 n=59 v=83
105009 On ch=4 n=48 v=0
105009 On ch=4 n=55 v=0
105060 On ch=4 n=60 v=86
105060 On ch=4 n=51 v=86
105069 On ch=4 n=50 v=0
105069 On ch=4 n=59 v=0
105119 On ch=4 n=60 v=0
105119 On ch=4 n=51 v=0
105120 On ch=4 n=53 v=88
105120 On ch=4 n=58 v=88
105179 On ch=4 n=58 v=0
105179 On ch=4 n=53 v=0
105180 On ch=4 n=65 v=93
105180 On ch=4 n=53 v=93
105239 On ch=4 n=53 v=0
105239 On ch=4 n=65 v=0
105240 On ch=4 n=65 v=97
105240 On ch=4 n=53 v=97
105299 On ch=4 n=53 v=0
105299 On ch=4 n=65 v=0
105300 On ch=4 n=65 v=101
105300 On ch=4 n=53 v=101
105359 On ch=4 n=53 v=0
105359 On ch=4 n=65 v=0
105360 On ch=4 n=62 v=105
105360 On ch=4 n=50 v=105
105419 On ch=4 n=50 v=0
105419 On ch=4 n=62 v=0
105420 On ch=4 n=58 v=109
105420 On ch=4 n=46 v=109
105479 On ch=4 n=46 v=0
105479 On ch=4 n=58 v=0
105480 On ch=4 n=60 v=127
105480 On ch=4 n=53 v=127
105839 On ch=4 n=53 v=0
105839 On ch=4 n=60 v=0
105840 On ch=4 n=46 v=96
105840 On ch=4 n=58 v=96
105899 On ch=4 n=58 v=0
105899 On ch=4 n=46 v=0
106200 On ch=4 n=58 v=96
106200 On ch=4 n=46 v=96
106259 On ch=4 n=46 v=0
106259 On ch=4 n=58 v=0
106560 On ch=4 n=46 v=96
106560 On ch=4 n=58 v=96
106619 On ch=4 n=58 v=0
106619 On ch=4 n=46 v=0
106920 On ch=4 n=63 v=96
106920 On ch=4 n=60 v=96
106979 On ch=4 n=60 v=0
106979 On ch=4 n=63 v=0
107040 On ch=4 n=60 v=96
107040 On ch=4 n=63 v=96
107099 On ch=4 n=63 v=0
107099 On ch=4 n=60 v=0
107160 On ch=4 n=63 v=96
107160 On ch=4 n=60 v=96
107219 On ch=4 n=60 v=0
107219 On ch=4 n=63 v=0
107280 On ch=4 n=62 v=96
107280 On ch=4 n=58 v=96
107339 On ch=4 n=58 v=0
107339 On ch=4 n=62 v=0
110400 On ch=4 n=67 v=32
110520 On ch=4 n=64 v=32
110529 On ch=4 n=67 v=0
110760 On ch=4 n=65 v=32
110769 On ch=4 n=64 v=0
110879 On ch=4 n=65 v=0
110880 On ch=4 n=65 v=32
110999 On ch=4 n=65 v=0
111960 On ch=4 n=55 v=48
113280 On ch=4 n=56 v=80
113289 On ch=4 n=55 v=0
113400 On ch=4 n=57 v=96
113409 On ch=4 n=56 v=0
113759 On ch=4 n=57 v=0
113760 On ch=4 n=59 v=48
113879 On ch=4 n=59 v=0
114240 On ch=4 n=67 v=48
114420 On ch=4 n=65 v=48
114429 On ch=4 n=67 v=0
114480 On ch=4 n=62 v=48
114489 On ch=4 n=65 v=0
114599 On ch=4 n=62 v=0
114600 On ch=4 n=55 v=96
114629 On ch=4 n=55 v=0
114630 On ch=4 n=55 v=48
114899 On ch=4 n=55 v=0
114900 On ch=4 n=55 v=48
114929 On ch=4 n=55 v=0
114960 On ch=4 n=57 v=48
114989 On ch=4 n=57 v=0
115020 On ch=4 n=59 v=48
115049 On ch=4 n=59 v=0
115080 On ch=4 n=60 v=48
115109 On ch=4 n=60 v=0
115140 On ch=4 n=62 v=48
115169 On ch=4 n=62 v=0
115200 On ch=4 n=64 v=48
115319 On ch=4 n=64 v=0
115680 On ch=4 n=67 v=48
115860 On ch=4 n=64 v=48
115869 On ch=4 n=67 v=0
115920 On ch=4 n=60 v=48
115929 On ch=4 n=64 v=0
116039 On ch=4 n=60 v=0
116040 On ch=4 n=55 v=96
116339 On ch=4 n=55 v=0
116340 On ch=4 n=57 v=48
116369 On ch=4 n=57 v=0
116400 On ch=4 n=59 v=48
116429 On ch=4 n=59 v=0
116460 On ch=4 n=60 v=48
116489 On ch=4 n=60 v=0
116520 On ch=4 n=62 v=48
116549 On ch=4 n=62 v=0
116580 On ch=4 n=64 v=48
116609 On ch=4 n=64 v=0
116640 On ch=4 n=65 v=48
116759 On ch=4 n=65 v=0
116880 On ch=4 n=55 v=96
117119 On ch=4 n=55 v=0
117120 On ch=4 n=55 v=48
117149 On ch=4 n=55 v=0
117180 On ch=4 n=57 v=48
117209 On ch=4 n=57 v=0
117240 On ch=4 n=59 v=48
117269 On ch=4 n=59 v=0
117300 On ch=4 n=60 v=48
117329 On ch=4 n=60 v=0
117360 On ch=4 n=62 v=48
117389 On ch=4 n=62 v=0
117420 On ch=4 n=65 v=48
117449 On ch=4 n=65 v=0
117480 On ch=4 n=65 v=48
117509 On ch=4 n=65 v=0
117540 On ch=4 n=64 v=48
117569 On ch=4 n=64 v=0
117600 On ch=4 n=62 v=48
117629 On ch=4 n=62 v=0
117660 On ch=4 n=60 v=48
117689 On ch=4 n=60 v=0
117720 On ch=4 n=59 v=48
117749 On ch=4 n=59 v=0
117780 On ch=4 n=57 v=48
117809 On ch=4 n=57 v=0
117840 On ch=4 n=55 v=48
117869 On ch=4 n=55 v=0
117900 On ch=4 n=53 v=48
117929 On ch=4 n=53 v=0
117960 On ch=4 n=52 v=48
117989 On ch=4 n=52 v=0
118020 On ch=4 n=50 v=48
118049 On ch=4 n=50 v=0
118080 On ch=4 n=48 v=32
118199 On ch=4 n=48 v=0
120840 On ch=4 n=61 v=102
120840 On ch=4 n=65 v=115
120960 On ch=4 n=62 v=127
120969 On ch=4 n=61 v=0
121079 On ch=4 n=62 v=0
121079 On ch=4 n=65 v=0
121080 On ch=4 n=62 v=127
121080 On ch=4 n=57 v=127
121139 On ch=4 n=57 v=0
121139 On ch=4 n=62 v=0
121200 On ch=4 n=57 v=127
121200 On ch=4 n=62 v=127
121259 On ch=4 n=62 v=0
121259 On ch=4 n=57 v=0
121320 On ch=4 n=62 v=127
121320 On ch=4 n=57 v=127
121379 On ch=4 n=57 v=0
121379 On ch=4 n=62 v=0
121440 On ch=4 n=57 v=127
121440 On ch=4 n=62 v=127
121499 On ch=4 n=62 v=0
121499 On ch=4 n=57 v=0
121560 On ch=4 n=62 v=127
121560 On ch=4 n=57 v=127
121619 On ch=4 n=57 v=0
121619 On ch=4 n=62 v=0
121680 On ch=4 n=57 v=127
121680 On ch=4 n=62 v=127
122399 On ch=4 n=62 v=0
122399 On ch=4 n=57 v=0
122400 On ch=4 n=64 v=127
122400 On ch=4 n=57 v=127
122459 On ch=4 n=57 v=0
122459 On ch=4 n=64 v=0
122520 On ch=4 n=57 v=127
122520 On ch=4 n=64 v=127
122579 On ch=4 n=64 v=0
122579 On ch=4 n=57 v=0
122640 On ch=4 n=64 v=127
122640 On ch=4 n=57 v=127
122699 On ch=4 n=57 v=0
122699 On ch=4 n=64 v=0
122760 On ch=4 n=57 v=127
122760 On ch=4 n=64 v=127
122819 On ch=4 n=64 v=0
122819 On ch=4 n=57 v=0
122880 On ch=4 n=64 v=127
122880 On ch=4 n=57 v=127
122939 On ch=4 n=57 v=0
122939 On ch=4 n=64 v=0
123000 On ch=4 n=64 v=127
123000 On ch=4 n=57 v=127
123059 On ch=4 n=57 v=0
123059 On ch=4 n=64 v=0
123120 On ch=4 n=57 v=127
123120 On ch=4 n=64 v=127
123719 On ch=4 n=64 v=0
123719 On ch=4 n=57 v=0
123720 On ch=4 n=57 v=127
123720 On ch=4 n=64 v=127
123839 On ch=4 n=64 v=0
123839 On ch=4 n=57 v=0
123840 On ch=4 n=62 v=48
123840 On ch=4 n=57 v=48
123899 On ch=4 n=57 v=0
123899 On ch=4 n=62 v=0
124020 On ch=4 n=62 v=48
124079 On ch=4 n=62 v=0
124080 On ch=4 n=62 v=48
124139 On ch=4 n=62 v=0
124380 On ch=4 n=62 v=48
124439 On ch=4 n=62 v=0
124440 On ch=4 n=62 v=48
124499 On ch=4 n=62 v=0
124620 On ch=4 n=62 v=54
124679 On ch=4 n=62 v=0
124680 On ch=4 n=62 v=61
124739 On ch=4 n=62 v=0
124740 On ch=4 n=62 v=67
124799 On ch=4 n=62 v=0
124800 On ch=4 n=62 v=73
124859 On ch=4 n=62 v=0
124860 On ch=4 n=62 v=80
124919 On ch=4 n=62 v=0
124920 On ch=4 n=62 v=86
125039 On ch=4 n=62 v=0
125280 On ch=4 n=58 v=127
125280 On ch=4 n=55 v=127
125339 On ch=4 n=55 v=0
125339 On ch=4 n=58 v=0
125400 On ch=4 n=55 v=127
125400 On ch=4 n=58 v=127
125459 On ch=4 n=58 v=0
125459 On ch=4 n=55 v=0
125520 On ch=4 n=58 v=127
125520 On ch=4 n=55 v=127
125579 On ch=4 n=55 v=0
125579 On ch=4 n=58 v=0
125640 On ch=4 n=55 v=127
125640 On ch=4 n=58 v=127
125699 On ch=4 n=58 v=0
125699 On ch=4 n=55 v=0
125760 On ch=4 n=58 v=127
125760 On ch=4 n=55 v=127
125819 On ch=4 n=55 v=0
125819 On ch=4 n=58 v=0
125880 On ch=4 n=55 v=127
125880 On ch=4 n=58 v=127
125939 On ch=4 n=58 v=0
125939 On ch=4 n=55 v=0
126000 On ch=4 n=58 v=127
126000 On ch=4 n=55 v=127
126719 On ch=4 n=55 v=0
126719 On ch=4 n=58 v=0
126720 On ch=4 n=60 v=127
126720 On ch=4 n=57 v=127
126779 On ch=4 n=57 v=0
126779 On ch=4 n=60 v=0
126840 On ch=4 n=57 v=127
126840 On ch=4 n=60 v=127
126899 On ch=4 n=60 v=0
126899 On ch=4 n=57 v=0
126960 On ch=4 n=57 v=127
126960 On ch=4 n=60 v=127
127019 On ch=4 n=60 v=0
127019 On ch=4 n=57 v=0
127080 On ch=4 n=60 v=127
127080 On ch=4 n=57 v=127
127139 On ch=4 n=57 v=0
127139 On ch=4 n=60 v=0
127200 On ch=4 n=57 v=127
127200 On ch=4 n=60 v=127
127259 On ch=4 n=60 v=0
127259 On ch=4 n=57 v=0
127320 On ch=4 n=60 v=127
127320 On ch=4 n=57 v=127
127379 On ch=4 n=57 v=0
127379 On ch=4 n=60 v=0
127440 On ch=4 n=57 v=127
127440 On ch=4 n=60 v=127
128039 On ch=4 n=60 v=0
128039 On ch=4 n=57 v=0
128040 On ch=4 n=60 v=127
128159 On ch=4 n=60 v=0
128160 On ch=4 n=59 v=48
128219 On ch=4 n=59 v=0
129780 On ch=4 n=60 v=48
129839 On ch=4 n=60 v=0
129840 On ch=4 n=60 v=48
129899 On ch=4 n=60 v=0
130140 On ch=4 n=60 v=48
130199 On ch=4 n=60 v=0
130200 On ch=4 n=60 v=48
130259 On ch=4 n=60 v=0
130380 On ch=4 n=60 v=52
130439 On ch=4 n=60 v=0
130440 On ch=4 n=60 v=54
130499 On ch=4 n=60 v=0
130500 On ch=4 n=60 v=57
130559 On ch=4 n=60 v=0
130560 On ch=4 n=60 v=60
130619 On ch=4 n=60 v=0
130620 On ch=4 n=60 v=63
130679 On ch=4 n=60 v=0
130680 On ch=4 n=60 v=66
130799 On ch=4 n=60 v=0
131220 On ch=4 n=65 v=96
131279 On ch=4 n=65 v=0
131280 On ch=4 n=65 v=96
131339 On ch=4 n=65 v=0
131580 On ch=4 n=46 v=96
131580 On ch=4 n=58 v=96
131639 On ch=4 n=58 v=0
131639 On ch=4 n=46 v=0
131640 On ch=4 n=58 v=96
131640 On ch=4 n=46 v=96
131699 On ch=4 n=46 v=0
131699 On ch=4 n=58 v=0
131940 On ch=4 n=63 v=96
131940 On ch=4 n=51 v=96
131999 On ch=4 n=51 v=0
131999 On ch=4 n=63 v=0
132000 On ch=4 n=51 v=96
132000 On ch=4 n=63 v=96
132059 On ch=4 n=63 v=0
132059 On ch=4 n=51 v=0
132180 On ch=4 n=56 v=96
132239 On ch=4 n=56 v=0
132240 On ch=4 n=56 v=96
132299 On ch=4 n=56 v=0
132300 On ch=4 n=56 v=96
132359 On ch=4 n=56 v=0
132360 On ch=4 n=56 v=96
132419 On ch=4 n=56 v=0
132420 On ch=4 n=56 v=96
132479 On ch=4 n=56 v=0
132480 On ch=4 n=65 v=127
132480 On ch=4 n=53 v=127
132839 On ch=4 n=53 v=0
132839 On ch=4 n=65 v=0
132840 On ch=4 n=52 v=127
132840 On ch=4 n=64 v=127
133199 On ch=4 n=64 v=0
133199 On ch=4 n=52 v=0
133200 On ch=4 n=51 v=127
133200 On ch=4 n=63 v=127
133319 On ch=4 n=63 v=0
133319 On ch=4 n=51 v=0
133680 On ch=4 n=63 v=48
133860 On ch=4 n=61 v=48
133869 On ch=4 n=63 v=0
133920 On ch=4 n=58 v=48
133929 On ch=4 n=61 v=0
134039 On ch=4 n=58 v=0
135120 On ch=4 n=63 v=48
135300 On ch=4 n=60 v=48
135309 On ch=4 n=63 v=0
135360 On ch=4 n=56 v=48
135369 On ch=4 n=60 v=0
135479 On ch=4 n=56 v=0
135720 On ch=4 n=51 v=96
135749 On ch=4 n=51 v=0
135750 On ch=4 n=51 v=48
136139 On ch=4 n=51 v=0
136140 On ch=4 n=53 v=48
136169 On ch=4 n=53 v=0
136200 On ch=4 n=55 v=48
136229 On ch=4 n=55 v=0
136260 On ch=4 n=56 v=48
136289 On ch=4 n=56 v=0
136320 On ch=4 n=58 v=48
136349 On ch=4 n=58 v=0
136380 On ch=4 n=60 v=48
136409 On ch=4 n=60 v=0
136440 On ch=4 n=61 v=48
136619 On ch=4 n=61 v=0
136620 On ch=4 n=60 v=48
136649 On ch=4 n=60 v=0
136680 On ch=4 n=58 v=48
136709 On ch=4 n=58 v=0
136740 On ch=4 n=56 v=48
136769 On ch=4 n=56 v=0
136800 On ch=4 n=55 v=48
136829 On ch=4 n=55 v=0
136860 On ch=4 n=56 v=48
136889 On ch=4 n=56 v=0
136920 On ch=4 n=58 v=48
136949 On ch=4 n=58 v=0
136980 On ch=4 n=56 v=48
137009 On ch=4 n=56 v=0
137040 On ch=4 n=55 v=48
137069 On ch=4 n=55 v=0
137100 On ch=4 n=53 v=48
137129 On ch=4 n=53 v=0
137160 On ch=4 n=51 v=48
137279 On ch=4 n=51 v=0
141600 On ch=4 n=55 v=55
141659 On ch=4 n=55 v=0
141720 On ch=4 n=67 v=96
141960 On ch=4 n=64 v=70
142079 On ch=4 n=64 v=0
142079 On ch=4 n=67 v=0
142680 On ch=4 n=55 v=100
142680 On ch=4 n=52 v=100
142739 On ch=4 n=52 v=0
142739 On ch=4 n=55 v=0
142800 On ch=4 n=67 v=118
142800 On ch=4 n=64 v=118
142980 On ch=4 n=62 v=113
142980 On ch=4 n=65 v=113
142989 On ch=4 n=64 v=0
142989 On ch=4 n=67 v=0
143039 On ch=4 n=62 v=0
143039 On ch=4 n=65 v=0
143040 On ch=4 n=65 v=115
143040 On ch=4 n=62 v=115
143069 On ch=4 n=62 v=0
143069 On ch=4 n=65 v=0
143100 On ch=4 n=60 v=118
143100 On ch=4 n=64 v=118
143129 On ch=4 n=64 v=0
143129 On ch=4 n=60 v=0
143160 On ch=4 n=58 v=120
143160 On ch=4 n=62 v=120
143189 On ch=4 n=62 v=0
143189 On ch=4 n=58 v=0
143220 On ch=4 n=57 v=123
143220 On ch=4 n=60 v=123
143249 On ch=4 n=60 v=0
143249 On ch=4 n=57 v=0
143280 On ch=4 n=59 v=125
143280 On ch=4 n=56 v=125
143339 On ch=4 n=56 v=0
143339 On ch=4 n=59 v=0
143400 On ch=4 n=59 v=127
143400 On ch=4 n=56 v=127
144119 On ch=4 n=56 v=0
144119 On ch=4 n=59 v=0
144120 On ch=4 n=59 v=127
144120 On ch=4 n=56 v=127
144359 On ch=4 n=56 v=0
144359 On ch=4 n=59 v=0
144360 On ch=4 n=56 v=127
144360 On ch=4 n=59 v=127
144599 On ch=4 n=59 v=0
144599 On ch=4 n=56 v=0
144600 On ch=4 n=59 v=127
144600 On ch=4 n=56 v=127
144839 On ch=4 n=56 v=0
144839 On ch=4 n=59 v=0
144840 On ch=4 n=59 v=127
144840 On ch=4 n=56 v=127
145079 On ch=4 n=56 v=0
145079 On ch=4 n=59 v=0
145080 On ch=4 n=59 v=127
145080 On ch=4 n=56 v=127
145319 On ch=4 n=56 v=0
145319 On ch=4 n=59 v=0
145320 On ch=4 n=59 v=127
145320 On ch=4 n=56 v=127
145439 On ch=4 n=56 v=0
145439 On ch=4 n=59 v=0
145560 On ch=4 n=60 v=127
145560 On ch=4 n=57 v=127
146279 On ch=4 n=57 v=0
146279 On ch=4 n=60 v=0
146280 On ch=4 n=60 v=127
146280 On ch=4 n=57 v=127
146519 On ch=4 n=57 v=0
146519 On ch=4 n=60 v=0
146520 On ch=4 n=60 v=127
146520 On ch=4 n=57 v=127
146759 On ch=4 n=57 v=0
146759 On ch=4 n=60 v=0
146760 On ch=4 n=60 v=127
146760 On ch=4 n=57 v=127
146999 On ch=4 n=57 v=0
146999 On ch=4 n=60 v=0
147000 On ch=4 n=60 v=127
147000 On ch=4 n=57 v=127
147239 On ch=4 n=57 v=0
147239 On ch=4 n=60 v=0
147240 On ch=4 n=60 v=127
147240 On ch=4 n=57 v=127
147479 On ch=4 n=57 v=0
147479 On ch=4 n=60 v=0
147480 On ch=4 n=60 v=127
147480 On ch=4 n=57 v=127
147599 On ch=4 n=57 v=0
147599 On ch=4 n=60 v=0
147720 On ch=4 n=57 v=127
147720 On ch=4 n=59 v=127
148439 On ch=4 n=59 v=0
148439 On ch=4 n=57 v=0
148440 On ch=4 n=59 v=127
148440 On ch=4 n=57 v=127
148679 On ch=4 n=57 v=0
148679 On ch=4 n=59 v=0
148680 On ch=4 n=57 v=127
148680 On ch=4 n=59 v=127
148919 On ch=4 n=59 v=0
148919 On ch=4 n=57 v=0
148920 On ch=4 n=59 v=127
148920 On ch=4 n=57 v=127
149159 On ch=4 n=57 v=0
149159 On ch=4 n=59 v=0
149160 On ch=4 n=59 v=127
149160 On ch=4 n=57 v=127
149399 On ch=4 n=57 v=0
149399 On ch=4 n=59 v=0
149400 On ch=4 n=59 v=127
149400 On ch=4 n=57 v=127
149639 On ch=4 n=57 v=0
149639 On ch=4 n=59 v=0
149640 On ch=4 n=59 v=127
149640 On ch=4 n=57 v=127
149759 On ch=4 n=57 v=0
149759 On ch=4 n=59 v=0
149880 On ch=4 n=46 v=127
149880 On ch=4 n=58 v=127
150599 On ch=4 n=58 v=0
150599 On ch=4 n=46 v=0
150600 On ch=4 n=58 v=127
150600 On ch=4 n=46 v=127
150839 On ch=4 n=46 v=0
150839 On ch=4 n=58 v=0
150840 On ch=4 n=46 v=127
150840 On ch=4 n=58 v=127
151079 On ch=4 n=58 v=0
151079 On ch=4 n=46 v=0
151080 On ch=4 n=58 v=127
151080 On ch=4 n=46 v=127
151319 On ch=4 n=46 v=0
151319 On ch=4 n=58 v=0
151320 On ch=4 n=46 v=127
151320 On ch=4 n=58 v=127
151559 On ch=4 n=58 v=0
151559 On ch=4 n=46 v=0
151560 On ch=4 n=58 v=127
151560 On ch=4 n=46 v=127
151799 On ch=4 n=46 v=0
151799 On ch=4 n=58 v=0
151800 On ch=4 n=46 v=127
151800 On ch=4 n=58 v=127
151919 On ch=4 n=58 v=0
151919 On ch=4 n=46 v=0
152040 On ch=4 n=60 v=127
152040 On ch=4 n=57 v=127
152279 On ch=4 n=57 v=0
152279 On ch=4 n=60 v=0
152280 On ch=4 n=57 v=127
152280 On ch=4 n=60 v=127
152519 On ch=4 n=60 v=0
152519 On ch=4 n=57 v=0
152520 On ch=4 n=60 v=127
152520 On ch=4 n=57 v=127
152639 On ch=4 n=57 v=0
152639 On ch=4 n=60 v=0
152760 On ch=4 n=60 v=127
152760 On ch=4 n=55 v=127
152999 On ch=4 n=55 v=0
152999 On ch=4 n=60 v=0
153000 On ch=4 n=55 v=127
153000 On ch=4 n=60 v=127
153239 On ch=4 n=60 v=0
153239 On ch=4 n=55 v=0
153240 On ch=4 n=60 v=127
153240 On ch=4 n=55 v=127
153299 On ch=4 n=55 v=0
153299 On ch=4 n=60 v=0
153360 On ch=4 n=60 v=96
153360 On ch=4 n=57 v=96
153599 On ch=4 n=57 v=0
153599 On ch=4 n=60 v=0
153720 On ch=4 n=57 v=96
153720 On ch=4 n=60 v=96
153959 On ch=4 n=60 v=0
153959 On ch=4 n=57 v=0
154080 On ch=4 n=60 v=96
154080 On ch=4 n=57 v=96
154319 On ch=4 n=57 v=0
154319 On ch=4 n=60 v=0
154440 On ch=4 n=57 v=96
154440 On ch=4 n=60 v=96
154679 On ch=4 n=60 v=0
154679 On ch=4 n=57 v=0
154680 On ch=4 n=60 v=96
154680 On ch=4 n=57 v=96
154739 On ch=4 n=57 v=0
154739 On ch=4 n=60 v=0
158940 On ch=4 n=62 v=50
159000 On ch=4 n=60 v=52
159009 On ch=4 n=62 v=0
159060 On ch=4 n=59 v=50
159069 On ch=4 n=60 v=0
159119 On ch=4 n=59 v=0
159120 On ch=4 n=57 v=50
159239 On ch=4 n=57 v=0
159240 On ch=4 n=60 v=52
159240 On ch=4 n=57 v=52
159360 On ch=4 n=62 v=52
159360 On ch=4 n=59 v=52
159369 On ch=4 n=57 v=0
159369 On ch=4 n=60 v=0
159480 On ch=4 n=60 v=64
159480 On ch=4 n=64 v=64
159489 On ch=4 n=62 v=0
159489 On ch=4 n=59 v=0
159660 On ch=4 n=59 v=52
159660 On ch=4 n=62 v=52
159669 On ch=4 n=60 v=0
159669 On ch=4 n=64 v=0
159720 On ch=4 n=57 v=52
159720 On ch=4 n=60 v=52
159729 On ch=4 n=59 v=0
159729 On ch=4 n=62 v=0
159839 On ch=4 n=57 v=0
159839 On ch=4 n=60 v=0
159840 On ch=4 n=59 v=52
159840 On ch=4 n=56 v=52
159959 On ch=4 n=59 v=0
159960 On ch=4 n=59 v=52
159960 On ch=4 n=55 v=52
159969 On ch=4 n=56 v=0
160080 On ch=4 n=57 v=52
160080 On ch=4 n=54 v=52
160089 On ch=4 n=55 v=0
160089 On ch=4 n=59 v=0
160200 On ch=4 n=56 v=64
160200 On ch=4 n=52 v=64
160209 On ch=4 n=57 v=0
160209 On ch=4 n=54 v=0
160440 On ch=4 n=57 v=52
160440 On ch=4 n=54 v=52
160449 On ch=4 n=56 v=0
160449 On ch=4 n=52 v=0
160500 On ch=4 n=59 v=52
160500 On ch=4 n=56 v=52
160509 On ch=4 n=57 v=0
160509 On ch=4 n=54 v=0
160559 On ch=4 n=59 v=0
160559 On ch=4 n=56 v=0
160560 On ch=4 n=57 v=52
160560 On ch=4 n=60 v=52
160679 On ch=4 n=60 v=0
160679 On ch=4 n=57 v=0
160680 On ch=4 n=60 v=52
160680 On ch=4 n=57 v=52
160800 On ch=4 n=62 v=52
160800 On ch=4 n=59 v=52
160809 On ch=4 n=57 v=0
160809 On ch=4 n=60 v=0
160920 On ch=4 n=64 v=52
160920 On ch=4 n=60 v=52
160929 On ch=4 n=62 v=0
160929 On ch=4 n=59 v=0
161100 On ch=4 n=59 v=52
161100 On ch=4 n=62 v=52
161109 On ch=4 n=64 v=0
161109 On ch=4 n=60 v=0
161160 On ch=4 n=60 v=52
161160 On ch=4 n=57 v=52
161169 On ch=4 n=59 v=0
161169 On ch=4 n=62 v=0
161279 On ch=4 n=60 v=0
161279 On ch=4 n=57 v=0
161280 On ch=4 n=59 v=52
161280 On ch=4 n=56 v=52
161399 On ch=4 n=59 v=0
161400 On ch=4 n=59 v=52
161400 On ch=4 n=55 v=52
161409 On ch=4 n=56 v=0
161520 On ch=4 n=57 v=52
161520 On ch=4 n=54 v=52
161529 On ch=4 n=55 v=0
161529 On ch=4 n=59 v=0
161640 On ch=4 n=55 v=52
161640 On ch=4 n=52 v=52
161649 On ch=4 n=57 v=0
161649 On ch=4 n=54 v=0
161699 On ch=4 n=55 v=0
161699 On ch=4 n=52 v=0
161700 On ch=4 n=52 v=56
161760 On ch=4 n=55 v=64
161769 On ch=4 n=52 v=0
161820 On ch=4 n=53 v=72
161829 On ch=4 n=55 v=0
161880 On ch=4 n=52 v=80
161889 On ch=4 n=53 v=0
161940 On ch=4 n=50 v=88
161949 On ch=4 n=52 v=0
161999 On ch=4 n=50 v=0
162000 On ch=4 n=48 v=96
162119 On ch=4 n=48 v=0
162120 On ch=4 n=60 v=96
162120 On ch=4 n=48 v=96
162240 On ch=4 n=52 v=96
162240 On ch=4 n=64 v=96
162249 On ch=4 n=48 v=0
162249 On ch=4 n=60 v=0
162360 On ch=4 n=60 v=96
162360 On ch=4 n=48 v=96
162369 On ch=4 n=52 v=0
162369 On ch=4 n=64 v=0
162600 On ch=4 n=43 v=96
162600 On ch=4 n=55 v=96
162609 On ch=4 n=60 v=0
162609 On ch=4 n=48 v=0
162719 On ch=4 n=43 v=0
162719 On ch=4 n=55 v=0
162720 On ch=4 n=60 v=96
162720 On ch=4 n=48 v=96
162779 On ch=4 n=48 v=0
162779 On ch=4 n=60 v=0
162840 On ch=4 n=64 v=96
162840 On ch=4 n=52 v=96
162899 On ch=4 n=52 v=0
162899 On ch=4 n=64 v=0
162960 On ch=4 n=67 v=96
162960 On ch=4 n=55 v=96
163019 On ch=4 n=55 v=0
163019 On ch=4 n=67 v=0
163080 On ch=4 n=60 v=96
163080 On ch=4 n=48 v=96
163319 On ch=4 n=48 v=0
163319 On ch=4 n=60 v=0
163320 On ch=4 n=43 v=96
163439 On ch=4 n=43 v=0
163440 On ch=4 n=48 v=96
163499 On ch=4 n=48 v=0
163560 On ch=4 n=52 v=96
163619 On ch=4 n=52 v=0
163680 On ch=4 n=55 v=96
163739 On ch=4 n=55 v=0
163800 On ch=4 n=60 v=96
163859 On ch=4 n=60 v=0
163920 On ch=4 n=64 v=96
163979 On ch=4 n=64 v=0
164040 On ch=4 n=67 v=112
164219 On ch=4 n=67 v=0
164220 On ch=4 n=65 v=96
164249 On ch=4 n=65 v=0
164280 On ch=4 n=62 v=96
164309 On ch=4 n=62 v=0
164340 On ch=4 n=59 v=96
164369 On ch=4 n=59 v=0
164400 On ch=4 n=55 v=96
164429 On ch=4 n=55 v=0
164460 On ch=4 n=53 v=96
164489 On ch=4 n=53 v=0
164520 On ch=4 n=50 v=96
164549 On ch=4 n=50 v=0
164580 On ch=4 n=53 v=96
164609 On ch=4 n=53 v=0
164640 On ch=4 n=50 v=96
164669 On ch=4 n=50 v=0
164700 On ch=4 n=47 v=96
164729 On ch=4 n=47 v=0
164760 On ch=4 n=43 v=96
164789 On ch=4 n=43 v=0
164820 On ch=4 n=47 v=96
164849 On ch=4 n=47 v=0
164880 On ch=4 n=48 v=96
164939 On ch=4 n=48 v=0
165000 On ch=4 n=51 v=96
165059 On ch=4 n=51 v=0
165120 On ch=4 n=55 v=96
165179 On ch=4 n=55 v=0
165240 On ch=4 n=60 v=96
165299 On ch=4 n=60 v=0
165360 On ch=4 n=63 v=96
165419 On ch=4 n=63 v=0
165480 On ch=4 n=67 v=112
165659 On ch=4 n=67 v=0
165660 On ch=4 n=65 v=96
165689 On ch=4 n=65 v=0
165720 On ch=4 n=62 v=96
165749 On ch=4 n=62 v=0
165780 On ch=4 n=59 v=96
165809 On ch=4 n=59 v=0
165840 On ch=4 n=55 v=96
165869 On ch=4 n=55 v=0
165900 On ch=4 n=53 v=96
165929 On ch=4 n=53 v=0
165960 On ch=4 n=50 v=96
165989 On ch=4 n=50 v=0
166020 On ch=4 n=53 v=96
166049 On ch=4 n=53 v=0
166080 On ch=4 n=50 v=96
166109 On ch=4 n=50 v=0
166140 On ch=4 n=47 v=96
166169 On ch=4 n=47 v=0
166200 On ch=4 n=43 v=96
166229 On ch=4 n=43 v=0
166260 On ch=4 n=47 v=96
166289 On ch=4 n=47 v=0
166320 On ch=4 n=48 v=96
166440 On ch=4 n=51 v=96
166449 On ch=4 n=48 v=0
166560 On ch=4 n=55 v=96
166569 On ch=4 n=51 v=0
166679 On ch=4 n=55 v=0
166680 On ch=4 n=56 v=112
166920 On ch=4 n=48 v=96
166929 On ch=4 n=56 v=0
167039 On ch=4 n=48 v=0
167040 On ch=4 n=49 v=96
167160 On ch=4 n=53 v=96
167169 On ch=4 n=49 v=0
167280 On ch=4 n=57 v=96
167289 On ch=4 n=53 v=0
167399 On ch=4 n=57 v=0
167400 On ch=4 n=58 v=112
167640 On ch=4 n=50 v=96
167649 On ch=4 n=58 v=0
167759 On ch=4 n=50 v=0
167760 On ch=4 n=51 v=96
167819 On ch=4 n=51 v=0
167880 On ch=4 n=43 v=96
167939 On ch=4 n=43 v=0
168000 On ch=4 n=46 v=96
168059 On ch=4 n=46 v=0
168120 On ch=4 n=51 v=96
168179 On ch=4 n=51 v=0
168240 On ch=4 n=55 v=96
168299 On ch=4 n=55 v=0
168360 On ch=4 n=58 v=112
168539 On ch=4 n=58 v=0
168540 On ch=4 n=56 v=96
168569 On ch=4 n=56 v=0
168600 On ch=4 n=53 v=96
168629 On ch=4 n=53 v=0
168660 On ch=4 n=50 v=96
168689 On ch=4 n=50 v=0
168720 On ch=4 n=46 v=96
168749 On ch=4 n=46 v=0
168780 On ch=4 n=44 v=96
168809 On ch=4 n=44 v=0
168840 On ch=4 n=41 v=96
168869 On ch=4 n=41 v=0
168900 On ch=4 n=56 v=96
168929 On ch=4 n=56 v=0
168960 On ch=4 n=53 v=96
168989 On ch=4 n=53 v=0
169020 On ch=4 n=50 v=96
169049 On ch=4 n=50 v=0
169080 On ch=4 n=46 v=96
169109 On ch=4 n=46 v=0
169140 On ch=4 n=50 v=96
169169 On ch=4 n=50 v=0
169200 On ch=4 n=51 v=127
169259 On ch=4 n=51 v=0
169320 On ch=4 n=42 v=127
169379 On ch=4 n=42 v=0
169440 On ch=4 n=46 v=127
169499 On ch=4 n=46 v=0
169560 On ch=4 n=51 v=127
169619 On ch=4 n=51 v=0
169680 On ch=4 n=54 v=127
169739 On ch=4 n=54 v=0
169800 On ch=4 n=58 v=127
169859 On ch=4 n=58 v=0
169920 On ch=4 n=63 v=127
170039 On ch=4 n=63 v=0
170040 On ch=4 n=63 v=48
170160 On ch=4 n=65 v=48
170169 On ch=4 n=63 v=0
170280 On ch=4 n=66 v=56
170289 On ch=4 n=65 v=0
170460 On ch=4 n=65 v=48
170469 On ch=4 n=66 v=0
170520 On ch=4 n=63 v=48
170529 On ch=4 n=65 v=0
170639 On ch=4 n=63 v=0
170640 On ch=4 n=62 v=48
170760 On ch=4 n=61 v=48
170769 On ch=4 n=62 v=0
170880 On ch=4 n=60 v=48
170889 On ch=4 n=61 v=0
171000 On ch=4 n=58 v=56
171009 On ch=4 n=60 v=0
171240 On ch=4 n=60 v=48
171249 On ch=4 n=58 v=0
171300 On ch=4 n=62 v=48
171309 On ch=4 n=60 v=0
171359 On ch=4 n=62 v=0
171360 On ch=4 n=63 v=48
171479 On ch=4 n=63 v=0
171480 On ch=4 n=63 v=48
171600 On ch=4 n=65 v=48
171609 On ch=4 n=63 v=0
171720 On ch=4 n=66 v=56
171729 On ch=4 n=65 v=0
171900 On ch=4 n=65 v=40
171909 On ch=4 n=66 v=0
171960 On ch=4 n=63 v=32
171969 On ch=4 n=65 v=0
172079 On ch=4 n=63 v=0
172080 On ch=4 n=61 v=40
172500 On ch=4 n=59 v=48
172509 On ch=4 n=61 v=0
172560 On ch=4 n=58 v=48
172569 On ch=4 n=59 v=0
172620 On ch=4 n=59 v=48
172629 On ch=4 n=58 v=0
172680 On ch=4 n=61 v=48
172689 On ch=4 n=59 v=0
172740 On ch=4 n=59 v=48
172749 On ch=4 n=61 v=0
172800 On ch=4 n=58 v=48
172809 On ch=4 n=59 v=0
172919 On ch=4 n=58 v=0
175680 On ch=4 n=58 v=48
175920 On ch=4 n=62 v=48
175929 On ch=4 n=58 v=0
176040 On ch=4 n=58 v=48
176049 On ch=4 n=62 v=0
176280 On ch=4 n=53 v=48
176289 On ch=4 n=58 v=0
176399 On ch=4 n=53 v=0
176400 On ch=4 n=58 v=48
176520 On ch=4 n=62 v=48
176529 On ch=4 n=58 v=0
176640 On ch=4 n=65 v=48
176649 On ch=4 n=62 v=0
176759 On ch=4 n=65 v=0
176760 On ch=4 n=65 v=48
177119 On ch=4 n=65 v=0
177120 On ch=4 n=58 v=48
177360 On ch=4 n=63 v=48
177369 On ch=4 n=58 v=0
177480 On ch=4 n=58 v=48
177489 On ch=4 n=63 v=0
177720 On ch=4 n=54 v=48
177729 On ch=4 n=58 v=0
177839 On ch=4 n=54 v=0
177840 On ch=4 n=58 v=48
177960 On ch=4 n=63 v=48
177969 On ch=4 n=58 v=0
178080 On ch=4 n=66 v=48
178089 On ch=4 n=63 v=0
178199 On ch=4 n=66 v=0
178200 On ch=4 n=66 v=48
178559 On ch=4 n=66 v=0
178560 On ch=4 n=60 v=48
178800 On ch=4 n=63 v=48
178809 On ch=4 n=60 v=0
178920 On ch=4 n=60 v=48
178929 On ch=4 n=63 v=0
179160 On ch=4 n=56 v=48
179169 On ch=4 n=60 v=0
179279 On ch=4 n=56 v=0
179280 On ch=4 n=60 v=48
179400 On ch=4 n=63 v=48
179409 On ch=4 n=60 v=0
179520 On ch=4 n=68 v=48
179529 On ch=4 n=63 v=0
179639 On ch=4 n=68 v=0
179640 On ch=4 n=68 v=48
179999 On ch=4 n=68 v=0
180000 On ch=4 n=61 v=48
180240 On ch=4 n=65 v=48
180249 On ch=4 n=61 v=0
180360 On ch=4 n=61 v=48
180369 On ch=4 n=65 v=0
180600 On ch=4 n=56 v=48
180609 On ch=4 n=61 v=0
180719 On ch=4 n=56 v=0
180720 On ch=4 n=56 v=48
180840 On ch=4 n=61 v=48
180849 On ch=4 n=56 v=0
180960 On ch=4 n=65 v=48
180969 On ch=4 n=61 v=0
181079 On ch=4 n=65 v=0
181080 On ch=4 n=65 v=48
181439 On ch=4 n=65 v=0
181440 On ch=4 n=62 v=48
181680 On ch=4 n=65 v=50
181689 On ch=4 n=62 v=0
181800 On ch=4 n=62 v=51
181809 On ch=4 n=65 v=0
182040 On ch=4 n=58 v=53
182049 On ch=4 n=62 v=0
182159 On ch=4 n=58 v=0
182160 On ch=4 n=58 v=54
182280 On ch=4 n=62 v=55
182289 On ch=4 n=58 v=0
182400 On ch=4 n=65 v=56
182409 On ch=4 n=62 v=0
182519 On ch=4 n=65 v=0
182520 On ch=4 n=65 v=96
182879 On ch=4 n=65 v=0
182880 On ch=4 n=63 v=96
182999 On ch=4 n=63 v=0
183240 On ch=4 n=51 v=96
183240 On ch=4 n=63 v=96
183480 On ch=4 n=54 v=72
183480 On ch=4 n=66 v=72
183489 On ch=4 n=63 v=0
183489 On ch=4 n=51 v=0
183599 On ch=4 n=54 v=0
183599 On ch=4 n=66 v=0
183960 On ch=4 n=51 v=96
183960 On ch=4 n=63 v=96
184200 On ch=4 n=66 v=96
184200 On ch=4 n=54 v=96
184209 On ch=4 n=63 v=0
184209 On ch=4 n=51 v=0
184319 On ch=4 n=66 v=0
184319 On ch=4 n=54 v=0
184320 On ch=4 n=47 v=127
184320 On ch=4 n=59 v=127
185519 On ch=4 n=59 v=0
185519 On ch=4 n=47 v=0
185520 On ch=4 n=59 v=127
185520 On ch=4 n=47 v=127
185639 On ch=4 n=47 v=0
185639 On ch=4 n=59 v=0
185640 On ch=4 n=59 v=127
185640 On ch=4 n=47 v=127
185759 On ch=4 n=47 v=0
185759 On ch=4 n=59 v=0
185760 On ch=4 n=63 v=96
185760 On ch=4 n=59 v=96
186119 On ch=4 n=59 v=0
186119 On ch=4 n=63 v=0
186120 On ch=4 n=59 v=96
186120 On ch=4 n=63 v=96
186479 On ch=4 n=63 v=0
186479 On ch=4 n=59 v=0
186480 On ch=4 n=63 v=96
186480 On ch=4 n=59 v=96
186839 On ch=4 n=59 v=0
186839 On ch=4 n=63 v=0
186840 On ch=4 n=59 v=96
186840 On ch=4 n=63 v=96
187199 On ch=4 n=63 v=0
187199 On ch=4 n=59 v=0
187200 On ch=4 n=63 v=48
187200 On ch=4 n=60 v=48
187559 On ch=4 n=60 v=0
187559 On ch=4 n=63 v=0
187560 On ch=4 n=60 v=48
187560 On ch=4 n=63 v=48
187919 On ch=4 n=63 v=0
187919 On ch=4 n=60 v=0
187920 On ch=4 n=63 v=48
187920 On ch=4 n=60 v=48
188279 On ch=4 n=60 v=0
188279 On ch=4 n=63 v=0
188280 On ch=4 n=48 v=48
188280 On ch=4 n=63 v=48
188639 On ch=4 n=63 v=0
188639 On ch=4 n=48 v=0
188640 On ch=4 n=58 v=48
188640 On ch=4 n=50 v=48
188999 On ch=4 n=50 v=0
188999 On ch=4 n=58 v=0
189000 On ch=4 n=50 v=44
189000 On ch=4 n=58 v=44
189359 On ch=4 n=58 v=0
189359 On ch=4 n=50 v=0
189360 On ch=4 n=58 v=40
189360 On ch=4 n=51 v=40
189719 On ch=4 n=51 v=0
189719 On ch=4 n=58 v=0
189720 On ch=4 n=51 v=36
189720 On ch=4 n=58 v=36
190079 On ch=4 n=58 v=0
190079 On ch=4 n=51 v=0
190080 On ch=4 n=58 v=32
190080 On ch=4 n=46 v=32
190439 On ch=4 n=46 v=0
190439 On ch=4 n=58 v=0
190440 On ch=4 n=46 v=32
190440 On ch=4 n=58 v=32
190799 On ch=4 n=58 v=0
190799 On ch=4 n=46 v=0
190800 On ch=4 n=58 v=32
190800 On ch=4 n=46 v=32
191159 On ch=4 n=46 v=0
191159 On ch=4 n=58 v=0
191160 On ch=4 n=46 v=32
191160 On ch=4 n=58 v=32
191519 On ch=4 n=58 v=0
191519 On ch=4 n=46 v=0
192240 On ch=4 n=58 v=32
192240 On ch=4 n=46 v=32
192599 On ch=4 n=46 v=0
192599 On ch=4 n=58 v=0
192600 On ch=4 n=46 v=32
192600 On ch=4 n=58 v=32
192959 On ch=4 n=58 v=0
192959 On ch=4 n=46 v=0
193680 On ch=4 n=58 v=32
193680 On ch=4 n=46 v=32
194039 On ch=4 n=46 v=0
194039 On ch=4 n=58 v=0
194040 On ch=4 n=46 v=32
194040 On ch=4 n=58 v=32
194399 On ch=4 n=58 v=0
194399 On ch=4 n=46 v=0
196560 On ch=4 n=62 v=96
196560 On ch=4 n=58 v=96
196919 On ch=4 n=58 v=0
196919 On ch=4 n=62 v=0
196920 On ch=4 n=58 v=127
196920 On ch=4 n=62 v=127
197279 On ch=4 n=62 v=0
197279 On ch=4 n=58 v=0
197280 On ch=4 n=63 v=127
197280 On ch=4 n=51 v=127
197399 On ch=4 n=51 v=0
197399 On ch=4 n=63 v=0
205920 On ch=4 n=53 v=48
205920 On ch=4 n=49 v=48
206280 On ch=4 n=47 v=56
206280 On ch=4 n=51 v=56
206289 On ch=4 n=49 v=0
206289 On ch=4 n=53 v=0
206640 On ch=4 n=53 v=32
206640 On ch=4 n=46 v=32
206649 On ch=4 n=47 v=0
206649 On ch=4 n=51 v=0
206759 On ch=4 n=53 v=0
206759 On ch=4 n=46 v=0
207960 On ch=4 n=60 v=53
207989 On ch=4 n=60 v=0
208020 On ch=4 n=58 v=55
208049 On ch=4 n=58 v=0
208080 On ch=4 n=56 v=58
208109 On ch=4 n=56 v=0
208140 On ch=4 n=58 v=60
208169 On ch=4 n=58 v=0
208200 On ch=4 n=56 v=62
208229 On ch=4 n=56 v=0
208260 On ch=4 n=55 v=64
208289 On ch=4 n=55 v=0
208320 On ch=4 n=56 v=64
208320 On ch=4 n=53 v=64
208349 On ch=4 n=53 v=0
208349 On ch=4 n=56 v=0
208380 On ch=4 n=55 v=68
208380 On ch=4 n=51 v=68
208409 On ch=4 n=51 v=0
208409 On ch=4 n=55 v=0
208440 On ch=4 n=53 v=72
208440 On ch=4 n=50 v=72
208469 On ch=4 n=50 v=0
208469 On ch=4 n=53 v=0
208500 On ch=4 n=51 v=76
208500 On ch=4 n=48 v=76
208529 On ch=4 n=48 v=0
208529 On ch=4 n=51 v=0
208560 On ch=4 n=50 v=80
208560 On ch=4 n=46 v=80
208589 On ch=4 n=46 v=0
208589 On ch=4 n=50 v=0
208620 On ch=4 n=58 v=84
208649 On ch=4 n=58 v=0
208680 On ch=4 n=58 v=88
208709 On ch=4 n=58 v=0
208740 On ch=4 n=58 v=92
208769 On ch=4 n=58 v=0
208800 On ch=4 n=58 v=96
208800 On ch=4 n=51 v=96
208919 On ch=4 n=51 v=0
208919 On ch=4 n=58 v=0
208920 On ch=4 n=58 v=96
208920 On ch=4 n=55 v=96
209039 On ch=4 n=55 v=0
209039 On ch=4 n=58 v=0
209040 On ch=4 n=58 v=96
209040 On ch=4 n=55 v=96
209159 On ch=4 n=55 v=0
209159 On ch=4 n=58 v=0
209160 On ch=4 n=58 v=96
209160 On ch=4 n=55 v=96
209399 On ch=4 n=55 v=0
209399 On ch=4 n=58 v=0
209400 On ch=4 n=58 v=96
209400 On ch=4 n=55 v=96
209519 On ch=4 n=55 v=0
209519 On ch=4 n=58 v=0
209520 On ch=4 n=58 v=96
209520 On ch=4 n=55 v=96
209639 On ch=4 n=55 v=0
209639 On ch=4 n=58 v=0
209640 On ch=4 n=58 v=96
209640 On ch=4 n=55 v=96
209759 On ch=4 n=55 v=0
209759 On ch=4 n=58 v=0
209760 On ch=4 n=58 v=96
209760 On ch=4 n=55 v=96
209879 On ch=4 n=55 v=0
209879 On ch=4 n=58 v=0
209880 On ch=4 n=58 v=96
209880 On ch=4 n=55 v=96
210119 On ch=4 n=55 v=0
210119 On ch=4 n=58 v=0
210120 On ch=4 n=61 v=112
210120 On ch=4 n=55 v=112
210239 On ch=4 n=55 v=0
210239 On ch=4 n=61 v=0
210240 On ch=4 n=60 v=96
210240 On ch=4 n=56 v=96
210359 On ch=4 n=56 v=0
210359 On ch=4 n=60 v=0
210360 On ch=4 n=60 v=96
210360 On ch=4 n=56 v=96
210479 On ch=4 n=56 v=0
210479 On ch=4 n=60 v=0
210480 On ch=4 n=60 v=96
210480 On ch=4 n=56 v=96
210599 On ch=4 n=56 v=0
210599 On ch=4 n=60 v=0
210600 On ch=4 n=60 v=96
210600 On ch=4 n=56 v=96
210839 On ch=4 n=56 v=0
210839 On ch=4 n=60 v=0
210840 On ch=4 n=60 v=112
210840 On ch=4 n=57 v=112
210959 On ch=4 n=57 v=0
210959 On ch=4 n=60 v=0
210960 On ch=4 n=58 v=112
210960 On ch=4 n=61 v=112
211319 On ch=4 n=61 v=0
211319 On ch=4 n=58 v=0
211320 On ch=4 n=63 v=112
211320 On ch=4 n=60 v=112
211679 On ch=4 n=60 v=0
211679 On ch=4 n=63 v=0
211680 On ch=4 n=59 v=112
211680 On ch=4 n=62 v=112
212159 On ch=4 n=62 v=0
212159 On ch=4 n=59 v=0
212160 On ch=4 n=62 v=112
212160 On ch=4 n=58 v=112
212279 On ch=4 n=58 v=0
212279 On ch=4 n=62 v=0
212280 On ch=4 n=58 v=112
212280 On ch=4 n=65 v=112
212399 On ch=4 n=65 v=0
212399 On ch=4 n=58 v=0
212400 On ch=4 n=63 v=127
212400 On ch=4 n=58 v=127
212639 On ch=4 n=58 v=0
212639 On ch=4 n=63 v=0
212640 On ch=4 n=58 v=127
212640 On ch=4 n=63 v=127
212759 On ch=4 n=63 v=0
212759 On ch=4 n=58 v=0
212760 On ch=4 n=58 v=127
212760 On ch=4 n=63 v=127
212999 On ch=4 n=63 v=0
212999 On ch=4 n=58 v=0
213000 On ch=4 n=58 v=127
213000 On ch=4 n=63 v=127
213239 On ch=4 n=63 v=0
213239 On ch=4 n=58 v=0
213240 On ch=4 n=58 v=127
213240 On ch=4 n=63 v=127
213359 On ch=4 n=63 v=0
213359 On ch=4 n=58 v=0
213360 On ch=4 n=58 v=127
213360 On ch=4 n=63 v=127
213479 On ch=4 n=63 v=0
213479 On ch=4 n=58 v=0
213480 On ch=4 n=58 v=127
213480 On ch=4 n=63 v=127
213719 On ch=4 n=63 v=0
213719 On ch=4 n=58 v=0
213720 On ch=4 n=59 v=127
213720 On ch=4 n=63 v=127
213840 On ch=4 n=60 v=127
213849 On ch=4 n=59 v=0
213959 On ch=4 n=60 v=0
213959 On ch=4 n=63 v=0
213960 On ch=4 n=60 v=127
213960 On ch=4 n=63 v=127
214079 On ch=4 n=63 v=0
214079 On ch=4 n=60 v=0
214080 On ch=4 n=60 v=127
214080 On ch=4 n=63 v=127
214199 On ch=4 n=63 v=0
214199 On ch=4 n=60 v=0
214200 On ch=4 n=60 v=127
214200 On ch=4 n=63 v=127
214439 On ch=4 n=63 v=0
214439 On ch=4 n=60 v=0
214440 On ch=4 n=58 v=127
214440 On ch=4 n=60 v=127
214559 On ch=4 n=60 v=0
214559 On ch=4 n=58 v=0
214560 On ch=4 n=56 v=127
214560 On ch=4 n=60 v=127
214919 On ch=4 n=60 v=0
214919 On ch=4 n=56 v=0
214920 On ch=4 n=57 v=127
214920 On ch=4 n=60 v=127
215279 On ch=4 n=60 v=0
215279 On ch=4 n=57 v=0
215280 On ch=4 n=58 v=127
215280 On ch=4 n=62 v=127
215399 On ch=4 n=62 v=0
215399 On ch=4 n=58 v=0
218280 On ch=4 n=59 v=96
218460 On ch=4 n=58 v=48
218469 On ch=4 n=59 v=0
218520 On ch=4 n=56 v=48
218529 On ch=4 n=58 v=0
218639 On ch=4 n=56 v=0
218640 On ch=4 n=59 v=96
218820 On ch=4 n=58 v=48
218829 On ch=4 n=59 v=0
218880 On ch=4 n=56 v=48
218889 On ch=4 n=58 v=0
218999 On ch=4 n=56 v=0
219600 On ch=4 n=63 v=48
219840 On ch=4 n=62 v=54
219900 On ch=4 n=61 v=56
219909 On ch=4 n=62 v=0
219960 On ch=4 n=60 v=56
219969 On ch=4 n=61 v=0
220080 On ch=4 n=62 v=53
220080 On ch=4 n=58 v=53
220089 On ch=4 n=60 v=0
220089 On ch=4 n=63 v=0
220200 On ch=4 n=60 v=50
220200 On ch=4 n=56 v=50
220209 On ch=4 n=62 v=0
220209 On ch=4 n=58 v=0
220319 On ch=4 n=60 v=0
220319 On ch=4 n=56 v=0
220320 On ch=4 n=58 v=48
220320 On ch=4 n=55 v=48
220560 On ch=4 n=56 v=48
220560 On ch=4 n=53 v=48
220569 On ch=4 n=55 v=0
220569 On ch=4 n=58 v=0
220620 On ch=4 n=55 v=48
220620 On ch=4 n=51 v=48
220629 On ch=4 n=56 v=0
220629 On ch=4 n=53 v=0
220679 On ch=4 n=55 v=0
220679 On ch=4 n=51 v=0
220680 On ch=4 n=53 v=48
220680 On ch=4 n=50 v=48
220769 On ch=4 n=50 v=0
220769 On ch=4 n=53 v=0
220800 On ch=4 n=58 v=48
220800 On ch=4 n=50 v=48
220889 On ch=4 n=50 v=0
220889 On ch=4 n=58 v=0
220920 On ch=4 n=58 v=48
220920 On ch=4 n=50 v=48
221009 On ch=4 n=50 v=0
221009 On ch=4 n=58 v=0
221040 On ch=4 n=58 v=48
221040 On ch=4 n=51 v=48
221159 On ch=4 n=51 v=0
221159 On ch=4 n=58 v=0
222480 On ch=4 n=59 v=96
222480 On ch=4 n=47 v=96
222539 On ch=4 n=47 v=0
222539 On ch=4 n=59 v=0
222600 On ch=4 n=62 v=96
222600 On ch=4 n=59 v=96
222659 On ch=4 n=59 v=0
222659 On ch=4 n=62 v=0
223140 On ch=4 n=47 v=96
223140 On ch=4 n=59 v=96
223199 On ch=4 n=59 v=0
223199 On ch=4 n=47 v=0
223200 On ch=4 n=60 v=96
223200 On ch=4 n=48 v=96
223259 On ch=4 n=48 v=0
223259 On ch=4 n=60 v=0
223320 On ch=4 n=60 v=96
223379 On ch=4 n=60 v=0
223860 On ch=4 n=48 v=96
223860 On ch=4 n=60 v=96
223919 On ch=4 n=60 v=0
223919 On ch=4 n=48 v=0
223920 On ch=4 n=58 v=96
223920 On ch=4 n=46 v=96
223979 On ch=4 n=46 v=0
223979 On ch=4 n=58 v=0
224040 On ch=4 n=61 v=96
224040 On ch=4 n=58 v=96
224099 On ch=4 n=58 v=0
224099 On ch=4 n=61 v=0
224580 On ch=4 n=46 v=96
224580 On ch=4 n=58 v=96
224609 On ch=4 n=58 v=0
224609 On ch=4 n=46 v=0
224640 On ch=4 n=56 v=96
224640 On ch=4 n=44 v=96
224669 On ch=4 n=44 v=0
224669 On ch=4 n=56 v=0
224700 On ch=4 n=44 v=96
224819 On ch=4 n=44 v=0
224820 On ch=4 n=45 v=96
224849 On ch=4 n=45 v=0
224880 On ch=4 n=46 v=96
224909 On ch=4 n=46 v=0
224940 On ch=4 n=47 v=96
224969 On ch=4 n=47 v=0
225000 On ch=4 n=48 v=96
225029 On ch=4 n=48 v=0
225060 On ch=4 n=48 v=96
225179 On ch=4 n=48 v=0
225180 On ch=4 n=48 v=96
225209 On ch=4 n=48 v=0
225240 On ch=4 n=50 v=96
225269 On ch=4 n=50 v=0
225300 On ch=4 n=50 v=96
225329 On ch=4 n=50 v=0
225360 On ch=4 n=51 v=96
225479 On ch=4 n=51 v=0
225480 On ch=4 n=61 v=96
225600 On ch=4 n=60 v=96
225609 On ch=4 n=61 v=0
225719 On ch=4 n=60 v=0
225720 On ch=4 n=59 v=96
225840 On ch=4 n=58 v=96
225849 On ch=4 n=59 v=0
225960 On ch=4 n=55 v=96
225969 On ch=4 n=58 v=0
226079 On ch=4 n=55 v=0
226080 On ch=4 n=56 v=96
226199 On ch=4 n=56 v=0
226200 On ch=4 n=63 v=96
226200 On ch=4 n=60 v=96
226320 On ch=4 n=64 v=96
226329 On ch=4 n=63 v=0
226440 On ch=4 n=65 v=96
226449 On ch=4 n=64 v=0
226499 On ch=4 n=65 v=0
226499 On ch=4 n=60 v=0
226500 On ch=4 n=60 v=96
226619 On ch=4 n=60 v=0
226620 On ch=4 n=60 v=96
226680 On ch=4 n=64 v=96
226680 On ch=4 n=58 v=96
226689 On ch=4 n=60 v=0
226740 On ch=4 n=65 v=96
226740 On ch=4 n=56 v=96
226749 On ch=4 n=58 v=0
226749 On ch=4 n=64 v=0
226799 On ch=4 n=65 v=0
226799 On ch=4 n=56 v=0
226800 On ch=4 n=63 v=96
226800 On ch=4 n=55 v=96
226860 On ch=4 n=58 v=96
226869 On ch=4 n=55 v=0
226869 On ch=4 n=63 v=0
226920 On ch=4 n=57 v=96
226929 On ch=4 n=58 v=0
226980 On ch=4 n=56 v=96
226989 On ch=4 n=57 v=0
227040 On ch=4 n=55 v=96
227049 On ch=4 n=56 v=0
227100 On ch=4 n=53 v=96
227109 On ch=4 n=55 v=0
227159 On ch=4 n=53 v=0
227160 On ch=4 n=51 v=96
227279 On ch=4 n=51 v=0
228240 On ch=4 n=58 v=127
228269 On ch=4 n=58 v=0
228300 On ch=4 n=57 v=127
228329 On ch=4 n=57 v=0
228360 On ch=4 n=56 v=127
228389 On ch=4 n=56 v=0
228420 On ch=4 n=55 v=127
228449 On ch=4 n=55 v=0
228480 On ch=4 n=53 v=127
228509 On ch=4 n=53 v=0
228540 On ch=4 n=51 v=127
228569 On ch=4 n=51 v=0
228600 On ch=4 n=50 v=127
228629 On ch=4 n=50 v=0
228660 On ch=4 n=48 v=127
228689 On ch=4 n=48 v=0
228720 On ch=4 n=46 v=127
228749 On ch=4 n=46 v=0
228780 On ch=4 n=44 v=127
228809 On ch=4 n=44 v=0
228840 On ch=4 n=43 v=127
228869 On ch=4 n=43 v=0
228900 On ch=4 n=41 v=127
228929 On ch=4 n=41 v=0
228960 On ch=4 n=39 v=127
229079 On ch=4 n=39 v=0
229080 On ch=4 n=67 v=48
229080 On ch=4 n=63 v=48
229169 On ch=4 n=63 v=0
229169 On ch=4 n=67 v=0
229200 On ch=4 n=67 v=48
229200 On ch=4 n=63 v=48
229289 On ch=4 n=63 v=0
229289 On ch=4 n=67 v=0
229320 On ch=4 n=67 v=48
229320 On ch=4 n=63 v=48
229409 On ch=4 n=63 v=0
229409 On ch=4 n=67 v=0
229440 On ch=4 n=67 v=57
229440 On ch=4 n=63 v=57
229529 On ch=4 n=63 v=0
229529 On ch=4 n=67 v=0
229560 On ch=4 n=67 v=66
229560 On ch=4 n=63 v=66
229649 On ch=4 n=63 v=0
229649 On ch=4 n=67 v=0
229680 On ch=4 n=67 v=76
229680 On ch=4 n=63 v=76
229769 On ch=4 n=63 v=0
229769 On ch=4 n=67 v=0
229800 On ch=4 n=67 v=86
229800 On ch=4 n=63 v=86
229889 On ch=4 n=63 v=0
229889 On ch=4 n=67 v=0
229920 On ch=4 n=63 v=96
230040 On ch=4 n=56 v=96
230160 On ch=4 n=64 v=64
230169 On ch=4 n=63 v=0
230280 On ch=4 n=65 v=48
230289 On ch=4 n=64 v=0
230399 On ch=4 n=65 v=0
230399 On ch=4 n=56 v=0
231360 On ch=4 n=60 v=96
231600 On ch=4 n=58 v=84
231609 On ch=4 n=60 v=0
231660 On ch=4 n=56 v=72
231669 On ch=4 n=58 v=0
231720 On ch=4 n=55 v=64
231729 On ch=4 n=56 v=0
231780 On ch=4 n=53 v=56
231789 On ch=4 n=55 v=0
231840 On ch=4 n=51 v=48
231849 On ch=4 n=53 v=0
231959 On ch=4 n=51 v=0
231960 On ch=4 n=66 v=48
231960 On ch=4 n=63 v=48
232049 On ch=4 n=63 v=0
232049 On ch=4 n=66 v=0
232080 On ch=4 n=63 v=48
232080 On ch=4 n=66 v=48
232169 On ch=4 n=66 v=0
232169 On ch=4 n=63 v=0
232200 On ch=4 n=66 v=56
232200 On ch=4 n=63 v=56
232289 On ch=4 n=63 v=0
232289 On ch=4 n=66 v=0
232320 On ch=4 n=66 v=64
232320 On ch=4 n=63 v=64
232409 On ch=4 n=63 v=0
232409 On ch=4 n=66 v=0
232440 On ch=4 n=66 v=72
232440 On ch=4 n=63 v=72
232529 On ch=4 n=63 v=0
232529 On ch=4 n=66 v=0
232560 On ch=4 n=66 v=80
232560 On ch=4 n=63 v=80
232649 On ch=4 n=63 v=0
232649 On ch=4 n=66 v=0
232680 On ch=4 n=66 v=86
232680 On ch=4 n=61 v=86
232769 On ch=4 n=61 v=0
232769 On ch=4 n=66 v=0
232800 On ch=4 n=66 v=92
232800 On ch=4 n=61 v=92
232889 On ch=4 n=61 v=0
232889 On ch=4 n=66 v=0
232920 On ch=4 n=66 v=96
232920 On ch=4 n=61 v=96
233160 On ch=4 n=65 v=60
233169 On ch=4 n=66 v=0
233279 On ch=4 n=65 v=0
233279 On ch=4 n=61 v=0
234480 On ch=4 n=53 v=48
234480 On ch=4 n=60 v=48
234569 On ch=4 n=60 v=0
234569 On ch=4 n=53 v=0
234600 On ch=4 n=53 v=56
234600 On ch=4 n=60 v=56
234689 On ch=4 n=60 v=0
234689 On ch=4 n=53 v=0
234720 On ch=4 n=46 v=48
234720 On ch=4 n=58 v=48
234839 On ch=4 n=58 v=0
234839 On ch=4 n=46 v=0
238140 On ch=4 n=56 v=89
238140 On ch=4 n=60 v=89
238169 On ch=4 n=60 v=0
238169 On ch=4 n=56 v=0
238200 On ch=4 n=55 v=92
238200 On ch=4 n=58 v=92
238229 On ch=4 n=58 v=0
238229 On ch=4 n=55 v=0
238260 On ch=4 n=53 v=94
238260 On ch=4 n=56 v=94
238289 On ch=4 n=56 v=0
238289 On ch=4 n=53 v=0
238320 On ch=4 n=51 v=96
238320 On ch=4 n=55 v=96
238439 On ch=4 n=55 v=0
238439 On ch=4 n=51 v=0
238440 On ch=4 n=63 v=112
238440 On ch=4 n=55 v=112
238679 On ch=4 n=55 v=0
238679 On ch=4 n=63 v=0
238800 On ch=4 n=55 v=112
238800 On ch=4 n=63 v=112
239039 On ch=4 n=63 v=0
239039 On ch=4 n=55 v=0
239160 On ch=4 n=62 v=112
239160 On ch=4 n=56 v=112
239399 On ch=4 n=56 v=0
239399 On ch=4 n=62 v=0
239520 On ch=4 n=65 v=112
239520 On ch=4 n=56 v=112
239639 On ch=4 n=56 v=0
239639 On ch=4 n=65 v=0
239640 On ch=4 n=56 v=96
239640 On ch=4 n=53 v=96
239759 On ch=4 n=53 v=0
239759 On ch=4 n=56 v=0
239760 On ch=4 n=55 v=127
239760 On ch=4 n=51 v=127
239879 On ch=4 n=51 v=0
239879 On ch=4 n=55 v=0
240480 On ch=4 n=53 v=127
240539 On ch=4 n=53 v=0
240600 On ch=4 n=56 v=127
240779 On ch=4 n=56 v=0
240780 On ch=4 n=46 v=127
240839 On ch=4 n=46 v=0
240840 On ch=4 n=62 v=127
240840 On ch=4 n=50 v=127
240899 On ch=4 n=50 v=0
240899 On ch=4 n=62 v=0
240960 On ch=4 n=65 v=127
240960 On ch=4 n=53 v=127
241139 On ch=4 n=53 v=0
241139 On ch=4 n=65 v=0
241140 On ch=4 n=58 v=127
241140 On ch=4 n=46 v=127
241199 On ch=4 n=46 v=0
241199 On ch=4 n=58 v=0
241200 On ch=4 n=67 v=127
241200 On ch=4 n=55 v=127
241500 On ch=4 n=66 v=127
241500 On ch=4 n=54 v=127
241509 On ch=4 n=55 v=0
241509 On ch=4 n=67 v=0
241560 On ch=4 n=67 v=127
241560 On ch=4 n=55 v=127
241569 On ch=4 n=66 v=0
241569 On ch=4 n=54 v=0
241679 On ch=4 n=67 v=0
241679 On ch=4 n=55 v=0
242940 On ch=4 n=65 v=127
242940 On ch=4 n=62 v=127
242999 On ch=4 n=62 v=0
242999 On ch=4 n=65 v=0
243000 On ch=4 n=60 v=127
243000 On ch=4 n=63 v=127
243029 On ch=4 n=63 v=0
243029 On ch=4 n=60 v=0
243060 On ch=4 n=62 v=127
243060 On ch=4 n=65 v=127
243089 On ch=4 n=65 v=0
243089 On ch=4 n=62 v=0
243120 On ch=4 n=60 v=127
243120 On ch=4 n=63 v=127
243149 On ch=4 n=63 v=0
243149 On ch=4 n=60 v=0
243180 On ch=4 n=58 v=127
243180 On ch=4 n=60 v=127
243209 On ch=4 n=60 v=0
243209 On ch=4 n=58 v=0
243240 On ch=4 n=57 v=127
243240 On ch=4 n=60 v=127
243269 On ch=4 n=60 v=0
243269 On ch=4 n=57 v=0
243300 On ch=4 n=56 v=127
243300 On ch=4 n=60 v=127
243329 On ch=4 n=60 v=0
243329 On ch=4 n=56 v=0
243360 On ch=4 n=59 v=127
243360 On ch=4 n=55 v=127
243419 On ch=4 n=55 v=0
243419 On ch=4 n=59 v=0
243480 On ch=4 n=62 v=127
243480 On ch=4 n=59 v=127
243539 On ch=4 n=59 v=0
243539 On ch=4 n=62 v=0
243600 On ch=4 n=63 v=127
243600 On ch=4 n=60 v=127
243659 On ch=4 n=60 v=0
243659 On ch=4 n=63 v=0
243840 On ch=4 n=55 v=127
243840 On ch=4 n=58 v=127
243899 On ch=4 n=58 v=0
243899 On ch=4 n=55 v=0
243960 On ch=4 n=60 v=127
243960 On ch=4 n=56 v=127
244019 On ch=4 n=56 v=0
244019 On ch=4 n=60 v=0
244200 On ch=4 n=57 v=127
244200 On ch=4 n=60 v=127
244259 On ch=4 n=60 v=0
244259 On ch=4 n=57 v=0
244320 On ch=4 n=62 v=127
244320 On ch=4 n=58 v=127
244379 On ch=4 n=58 v=0
244379 On ch=4 n=62 v=0
244560 On ch=4 n=59 v=127
244560 On ch=4 n=62 v=127
244619 On ch=4 n=62 v=0
244619 On ch=4 n=59 v=0
244680 On ch=4 n=63 v=127
244680 On ch=4 n=60 v=127
244739 On ch=4 n=60 v=0
244739 On ch=4 n=63 v=0
244920 On ch=4 n=58 v=127
244920 On ch=4 n=55 v=127
244979 On ch=4 n=55 v=0
244979 On ch=4 n=58 v=0
245040 On ch=4 n=60 v=127
245040 On ch=4 n=56 v=127
245099 On ch=4 n=56 v=0
245099 On ch=4 n=60 v=0
245280 On ch=4 n=60 v=127
245280 On ch=4 n=57 v=127
245339 On ch=4 n=57 v=0
245339 On ch=4 n=60 v=0
245520 On ch=4 n=57 v=127
245520 On ch=4 n=60 v=127
245579 On ch=4 n=60 v=0
245579 On ch=4 n=57 v=0
245760 On ch=4 n=60 v=127
245760 On ch=4 n=57 v=127
245819 On ch=4 n=57 v=0
245819 On ch=4 n=60 v=0
246000 On ch=4 n=57 v=127
246000 On ch=4 n=60 v=127
246059 On ch=4 n=60 v=0
246059 On ch=4 n=57 v=0
246240 On ch=4 n=60 v=127
246240 On ch=4 n=57 v=127
246299 On ch=4 n=57 v=0
246299 On ch=4 n=60 v=0
246480 On ch=4 n=57 v=127
246480 On ch=4 n=60 v=127
246539 On ch=4 n=60 v=0
246539 On ch=4 n=57 v=0
246960 On ch=4 n=47 v=96
246960 On ch=4 n=54 v=96
246989 On ch=4 n=54 v=0
246989 On ch=4 n=47 v=0
246990 On ch=4 n=54 v=48
246990 On ch=4 n=47 v=48
247319 On ch=4 n=47 v=0
247319 On ch=4 n=54 v=0
247320 On ch=4 n=55 v=48
247320 On ch=4 n=46 v=48
247679 On ch=4 n=46 v=0
247679 On ch=4 n=55 v=0
247680 On ch=4 n=54 v=96
247680 On ch=4 n=48 v=96
247709 On ch=4 n=48 v=0
247709 On ch=4 n=54 v=0
247710 On ch=4 n=54 v=48
247710 On ch=4 n=48 v=48
248279 On ch=4 n=48 v=0
248279 On ch=4 n=54 v=0
248280 On ch=4 n=63 v=48
248280 On ch=4 n=60 v=48
248339 On ch=4 n=60 v=0
248339 On ch=4 n=63 v=0
248400 On ch=4 n=65 v=48
248400 On ch=4 n=61 v=48
248459 On ch=4 n=61 v=0
248459 On ch=4 n=65 v=0
248640 On ch=4 n=61 v=48
248640 On ch=4 n=65 v=48
248699 On ch=4 n=65 v=0
248699 On ch=4 n=61 v=0
248880 On ch=4 n=65 v=48
248880 On ch=4 n=62 v=48
248939 On ch=4 n=62 v=0
248939 On ch=4 n=65 v=0
249120 On ch=4 n=67 v=48
249120 On ch=4 n=63 v=48
249179 On ch=4 n=63 v=0
249179 On ch=4 n=67 v=0
249360 On ch=4 n=63 v=48
249360 On ch=4 n=67 v=48
249419 On ch=4 n=67 v=0
249419 On ch=4 n=63 v=0
249480 On ch=4 n=60 v=64
249480 On ch=4 n=56 v=64
250019 On ch=4 n=56 v=0
250019 On ch=4 n=60 v=0
250020 On ch=4 n=56 v=87
250020 On ch=4 n=60 v=87
250080 On ch=4 n=64 v=92
250080 On ch=4 n=58 v=92
250089 On ch=4 n=60 v=0
250089 On ch=4 n=56 v=0
250140 On ch=4 n=60 v=97
250140 On ch=4 n=65 v=97
250149 On ch=4 n=64 v=0
250149 On ch=4 n=58 v=0
250199 On ch=4 n=60 v=0
250199 On ch=4 n=65 v=0
250200 On ch=4 n=58 v=102
250200 On ch=4 n=63 v=102
250229 On ch=4 n=63 v=0
250229 On ch=4 n=58 v=0
250260 On ch=4 n=51 v=107
250289 On ch=4 n=51 v=0
250320 On ch=4 n=51 v=112
250320 On ch=4 n=55 v=112
250349 On ch=4 n=55 v=0
250349 On ch=4 n=51 v=0
250380 On ch=4 n=55 v=117
250380 On ch=4 n=58 v=117
250409 On ch=4 n=58 v=0
250409 On ch=4 n=55 v=0
250440 On ch=4 n=55 v=117
250440 On ch=4 n=63 v=117
250469 On ch=4 n=63 v=0
250469 On ch=4 n=55 v=0
250500 On ch=4 n=58 v=122
250500 On ch=4 n=67 v=122
250529 On ch=4 n=67 v=0
250529 On ch=4 n=58 v=0
250560 On ch=4 n=46 v=127
250560 On ch=4 n=58 v=127
250919 On ch=4 n=58 v=0
250919 On ch=4 n=46 v=0
250920 On ch=4 n=63 v=96
250920 On ch=4 n=51 v=96
251039 On ch=4 n=51 v=0
251039 On ch=4 n=63 v=0
251280 On ch=4 n=51 v=96
251280 On ch=4 n=63 v=96
251399 On ch=4 n=63 v=0
251399 On ch=4 n=51 v=0
251640 On ch=4 n=63 v=96
251640 On ch=4 n=51 v=96
251759 On ch=4 n=51 v=0
251759 On ch=4 n=63 v=0
252000 On ch=4 n=56 v=96
252000 On ch=4 n=59 v=96
252059 On ch=4 n=59 v=0
252059 On ch=4 n=56 v=0
252120 On ch=4 n=59 v=96
252120 On ch=4 n=56 v=96
252179 On ch=4 n=56 v=0
252179 On ch=4 n=59 v=0
252240 On ch=4 n=56 v=96
252240 On ch=4 n=59 v=96
252299 On ch=4 n=59 v=0
252299 On ch=4 n=56 v=0
252360 On ch=4 n=55 v=96
252360 On ch=4 n=58 v=96
252419 On ch=4 n=58 v=0
252419 On ch=4 n=55 v=0
252900 On ch=4 n=51 v=48
252960 On ch=4 n=55 v=48
252969 On ch=4 n=51 v=0
253020 On ch=4 n=58 v=48
253029 On ch=4 n=55 v=0
253079 On ch=4 n=58 v=0
253080 On ch=4 n=63 v=48
253320 On ch=4 n=67 v=48
253329 On ch=4 n=63 v=0
253440 On ch=4 n=63 v=48
253449 On ch=4 n=67 v=0
253680 On ch=4 n=58 v=48
253689 On ch=4 n=63 v=0
253800 On ch=4 n=63 v=48
253809 On ch=4 n=58 v=0
253919 On ch=4 n=63 v=0
254520 On ch=4 n=53 v=96
254520 On ch=4 n=56 v=96
255240 On ch=4 n=61 v=48
255240 On ch=4 n=49 v=48
255249 On ch=4 n=56 v=0
255249 On ch=4 n=53 v=0
255359 On ch=4 n=61 v=0
255359 On ch=4 n=49 v=0
255960 On ch=4 n=60 v=127
255960 On ch=4 n=48 v=127
256019 On ch=4 n=60 v=0
256020 On ch=4 n=60 v=127
256079 On ch=4 n=60 v=0
256080 On ch=4 n=60 v=127
256139 On ch=4 n=60 v=0
256140 On ch=4 n=60 v=127
256199 On ch=4 n=60 v=0
256200 On ch=4 n=64 v=127
256259 On ch=4 n=64 v=0
256260 On ch=4 n=64 v=127
256319 On ch=4 n=64 v=0
256320 On ch=4 n=60 v=127
256379 On ch=4 n=60 v=0
256380 On ch=4 n=60 v=127
256439 On ch=4 n=60 v=0
256440 On ch=4 n=60 v=127
256499 On ch=4 n=60 v=0
256500 On ch=4 n=60 v=127
256559 On ch=4 n=60 v=0
256560 On ch=4 n=55 v=127
256619 On ch=4 n=55 v=0
256620 On ch=4 n=55 v=127
256679 On ch=4 n=55 v=0
256679 On ch=4 n=48 v=0
256680 On ch=4 n=60 v=48
256680 On ch=4 n=48 v=48
256799 On ch=4 n=48 v=0
256799 On ch=4 n=60 v=0
264240 On ch=4 n=60 v=48
264480 On ch=4 n=62 v=48
264489 On ch=4 n=60 v=0
264540 On ch=4 n=64 v=48
264549 On ch=4 n=62 v=0
264599 On ch=4 n=64 v=0
264600 On ch=4 n=65 v=48
264719 On ch=4 n=65 v=0
264720 On ch=4 n=65 v=48
264840 On ch=4 n=67 v=48
264849 On ch=4 n=65 v=0
264960 On ch=4 n=68 v=64
264969 On ch=4 n=67 v=0
265140 On ch=4 n=67 v=48
265149 On ch=4 n=68 v=0
265200 On ch=4 n=65 v=48
265209 On ch=4 n=67 v=0
265319 On ch=4 n=65 v=0
265320 On ch=4 n=65 v=48
266040 On ch=4 n=63 v=48
266049 On ch=4 n=65 v=0
266159 On ch=4 n=63 v=0
266160 On ch=4 n=63 v=48
266280 On ch=4 n=65 v=48
266289 On ch=4 n=63 v=0
266400 On ch=4 n=66 v=64
266409 On ch=4 n=65 v=0
266580 On ch=4 n=65 v=48
266589 On ch=4 n=66 v=0
266640 On ch=4 n=63 v=48
266649 On ch=4 n=65 v=0
266759 On ch=4 n=63 v=0
266760 On ch=4 n=62 v=48
266880 On ch=4 n=61 v=48
266889 On ch=4 n=62 v=0
267000 On ch=4 n=60 v=48
267009 On ch=4 n=61 v=0
267120 On ch=4 n=58 v=64
267129 On ch=4 n=60 v=0
267360 On ch=4 n=60 v=48
267369 On ch=4 n=58 v=0
267420 On ch=4 n=62 v=48
267429 On ch=4 n=60 v=0
267480 On ch=4 n=63 v=48
267489 On ch=4 n=62 v=0
267599 On ch=4 n=63 v=0
267600 On ch=4 n=63 v=48
267720 On ch=4 n=65 v=48
267729 On ch=4 n=63 v=0
267840 On ch=4 n=66 v=64
267849 On ch=4 n=65 v=0
268020 On ch=4 n=65 v=48
268029 On ch=4 n=66 v=0
268080 On ch=4 n=63 v=48
268089 On ch=4 n=65 v=0
268199 On ch=4 n=63 v=0
268200 On ch=4 n=62 v=32
268560 On ch=4 n=61 v=32
268569 On ch=4 n=62 v=0
268920 On ch=4 n=60 v=32
268929 On ch=4 n=61 v=0
269280 On ch=4 n=59 v=32
269289 On ch=4 n=60 v=0
269640 On ch=4 n=58 v=32
269649 On ch=4 n=59 v=0
269999 On ch=4 n=58 v=0
270000 On ch=4 n=58 v=32
270360 On ch=4 n=57 v=32
270369 On ch=4 n=58 v=0
270720 On ch=4 n=56 v=32
270729 On ch=4 n=57 v=0
271079 On ch=4 n=56 v=0
271080 On ch=4 n=56 v=32
271199 On ch=4 n=56 v=0
271800 On ch=4 n=58 v=32
272400 On ch=4 n=59 v=32
272409 On ch=4 n=58 v=0
272520 On ch=4 n=60 v=32
272529 On ch=4 n=59 v=0
272639 On ch=4 n=60 v=0
273240 On ch=4 n=60 v=32
273840 On ch=4 n=61 v=32
273849 On ch=4 n=60 v=0
273960 On ch=4 n=62 v=32
273969 On ch=4 n=61 v=0
274439 On ch=4 n=62 v=0
274440 On ch=4 n=62 v=32
274499 On ch=4 n=62 v=0
274560 On ch=4 n=58 v=32
274619 On ch=4 n=58 v=0
274680 On ch=4 n=65 v=32
274800 On ch=4 n=63 v=32
274809 On ch=4 n=65 v=0
275159 On ch=4 n=63 v=0
275160 On ch=4 n=63 v=32
275219 On ch=4 n=63 v=0
275280 On ch=4 n=58 v=32
275339 On ch=4 n=58 v=0
275400 On ch=4 n=66 v=32
275519 On ch=4 n=66 v=0
275520 On ch=4 n=66 v=32
275879 On ch=4 n=66 v=0
275880 On ch=4 n=66 v=36
276239 On ch=4 n=66 v=0
276240 On ch=4 n=66 v=40
276329 On ch=4 n=66 v=0
276360 On ch=4 n=66 v=42
276449 On ch=4 n=66 v=0
276480 On ch=4 n=66 v=43
276600 On ch=4 n=65 v=44
276609 On ch=4 n=66 v=0
276720 On ch=4 n=63 v=46
276729 On ch=4 n=65 v=0
276839 On ch=4 n=63 v=0
276840 On ch=4 n=62 v=48
276959 On ch=4 n=62 v=0
276960 On ch=4 n=65 v=52
276960 On ch=4 n=58 v=52
277319 On ch=4 n=58 v=0
277319 On ch=4 n=65 v=0
277320 On ch=4 n=58 v=60
277320 On ch=4 n=65 v=60
277560 On ch=4 n=59 v=68
277569 On ch=4 n=58 v=0
277679 On ch=4 n=59 v=0
277679 On ch=4 n=65 v=0
277680 On ch=4 n=65 v=64
277680 On ch=4 n=59 v=64
277799 On ch=4 n=59 v=0
277799 On ch=4 n=65 v=0
277800 On ch=4 n=65 v=60
277800 On ch=4 n=59 v=60
277919 On ch=4 n=59 v=0
277919 On ch=4 n=65 v=0
277920 On ch=4 n=65 v=56
277920 On ch=4 n=59 v=56
278039 On ch=4 n=59 v=0
278040 On ch=4 n=63 v=52
278040 On ch=4 n=59 v=52
278049 On ch=4 n=65 v=0
278159 On ch=4 n=59 v=0
278160 On ch=4 n=62 v=48
278160 On ch=4 n=59 v=48
278169 On ch=4 n=63 v=0
278279 On ch=4 n=59 v=0
278279 On ch=4 n=62 v=0
278280 On ch=4 n=63 v=48
278280 On ch=4 n=60 v=48
278339 On ch=4 n=60 v=0
278339 On ch=4 n=63 v=0
278520 On ch=4 n=60 v=48
278520 On ch=4 n=63 v=48
278579 On ch=4 n=63 v=0
278579 On ch=4 n=60 v=0
278760 On ch=4 n=63 v=48
278760 On ch=4 n=60 v=48
278819 On ch=4 n=60 v=0
278819 On ch=4 n=63 v=0
279000 On ch=4 n=56 v=48
279000 On ch=4 n=60 v=48
279059 On ch=4 n=60 v=0
279059 On ch=4 n=56 v=0
279240 On ch=4 n=60 v=48
279240 On ch=4 n=56 v=48
279299 On ch=4 n=56 v=0
279299 On ch=4 n=60 v=0
279480 On ch=4 n=60 v=48
279480 On ch=4 n=56 v=48
279539 On ch=4 n=56 v=0
279539 On ch=4 n=60 v=0
279720 On ch=4 n=63 v=48
279720 On ch=4 n=58 v=48
280199 On ch=4 n=58 v=0
280199 On ch=4 n=63 v=0
280200 On ch=4 n=55 v=56
280200 On ch=4 n=58 v=56
280259 On ch=4 n=58 v=0
280259 On ch=4 n=55 v=0
280320 On ch=4 n=55 v=58
280320 On ch=4 n=58 v=58
280379 On ch=4 n=58 v=0
280379 On ch=4 n=55 v=0
280440 On ch=4 n=56 v=62
280440 On ch=4 n=58 v=62
280499 On ch=4 n=58 v=0
280499 On ch=4 n=56 v=0
280560 On ch=4 n=56 v=62
280560 On ch=4 n=58 v=62
280619 On ch=4 n=58 v=0
280619 On ch=4 n=56 v=0
280680 On ch=4 n=56 v=64
280680 On ch=4 n=58 v=64
280739 On ch=4 n=58 v=0
280739 On ch=4 n=56 v=0
280800 On ch=4 n=56 v=48
280800 On ch=4 n=58 v=48
280859 On ch=4 n=58 v=0
280859 On ch=4 n=56 v=0
280920 On ch=4 n=56 v=48
280920 On ch=4 n=58 v=48
280979 On ch=4 n=58 v=0
280979 On ch=4 n=56 v=0
281040 On ch=4 n=56 v=48
281040 On ch=4 n=58 v=48
281099 On ch=4 n=58 v=0
281099 On ch=4 n=56 v=0
281160 On ch=4 n=55 v=48
281160 On ch=4 n=58 v=48
281219 On ch=4 n=58 v=0
281219 On ch=4 n=55 v=0
286980 On ch=4 n=55 v=49
287010 On ch=4 n=56 v=49
287019 On ch=4 n=55 v=0
287040 On ch=4 n=58 v=50
287049 On ch=4 n=56 v=0
287069 On ch=4 n=58 v=0
287100 On ch=4 n=58 v=51
287129 On ch=4 n=58 v=0
287160 On ch=4 n=60 v=52
287189 On ch=4 n=60 v=0
287220 On ch=4 n=62 v=53
287249 On ch=4 n=62 v=0
287280 On ch=4 n=63 v=54
287309 On ch=4 n=63 v=0
287340 On ch=4 n=58 v=55
287369 On ch=4 n=58 v=0
287400 On ch=4 n=60 v=56
287429 On ch=4 n=60 v=0
287460 On ch=4 n=62 v=57
287489 On ch=4 n=62 v=0
287520 On ch=4 n=63 v=58
287549 On ch=4 n=63 v=0
287580 On ch=4 n=65 v=59
287609 On ch=4 n=65 v=0
287640 On ch=4 n=67 v=76
287669 On ch=4 n=67 v=0
287700 On ch=4 n=65 v=61
287729 On ch=4 n=65 v=0
287760 On ch=4 n=63 v=62
287789 On ch=4 n=63 v=0
287820 On ch=4 n=62 v=63
287849 On ch=4 n=62 v=0
287880 On ch=4 n=60 v=64
287909 On ch=4 n=60 v=0
287940 On ch=4 n=58 v=65
287969 On ch=4 n=58 v=0
288000 On ch=4 n=56 v=66
288029 On ch=4 n=56 v=0
288060 On ch=4 n=55 v=67
288089 On ch=4 n=55 v=0
288120 On ch=4 n=53 v=68
288149 On ch=4 n=53 v=0
288180 On ch=4 n=51 v=69
288209 On ch=4 n=51 v=0
288240 On ch=4 n=50 v=70
288269 On ch=4 n=50 v=0
288300 On ch=4 n=48 v=71
288329 On ch=4 n=48 v=0
288360 On ch=4 n=46 v=72
288389 On ch=4 n=46 v=0
288420 On ch=4 n=46 v=73
288450 On ch=4 n=48 v=73
288459 On ch=4 n=46 v=0
288480 On ch=4 n=50 v=74
288489 On ch=4 n=48 v=0
288509 On ch=4 n=50 v=0
288540 On ch=4 n=51 v=75
288569 On ch=4 n=51 v=0
288600 On ch=4 n=53 v=76
288629 On ch=4 n=53 v=0
288660 On ch=4 n=55 v=77
288689 On ch=4 n=55 v=0
288720 On ch=4 n=56 v=78
288749 On ch=4 n=56 v=0
288780 On ch=4 n=58 v=79
288810 On ch=4 n=60 v=79
288819 On ch=4 n=58 v=0
288840 On ch=4 n=62 v=80
288849 On ch=4 n=60 v=0
288869 On ch=4 n=62 v=0
288900 On ch=4 n=51 v=81
288900 On ch=4 n=63 v=81
288929 On ch=4 n=63 v=0
288929 On ch=4 n=51 v=0
288960 On ch=4 n=53 v=82
288960 On ch=4 n=65 v=82
288989 On ch=4 n=65 v=0
288989 On ch=4 n=53 v=0
289020 On ch=4 n=55 v=83
289020 On ch=4 n=67 v=83
289049 On ch=4 n=67 v=0
289049 On ch=4 n=55 v=0
289080 On ch=4 n=56 v=100
289080 On ch=4 n=68 v=100
289109 On ch=4 n=68 v=0
289109 On ch=4 n=56 v=0
289140 On ch=4 n=55 v=85
289140 On ch=4 n=67 v=85
289169 On ch=4 n=67 v=0
289169 On ch=4 n=55 v=0
289200 On ch=4 n=53 v=86
289200 On ch=4 n=65 v=86
289229 On ch=4 n=65 v=0
289229 On ch=4 n=53 v=0
289260 On ch=4 n=51 v=87
289260 On ch=4 n=63 v=87
289289 On ch=4 n=63 v=0
289289 On ch=4 n=51 v=0
289320 On ch=4 n=50 v=88
289320 On ch=4 n=62 v=88
289349 On ch=4 n=62 v=0
289349 On ch=4 n=50 v=0
289380 On ch=4 n=48 v=89
289380 On ch=4 n=60 v=89
289409 On ch=4 n=60 v=0
289409 On ch=4 n=48 v=0
289440 On ch=4 n=46 v=90
289440 On ch=4 n=58 v=90
289469 On ch=4 n=58 v=0
289469 On ch=4 n=46 v=0
289500 On ch=4 n=60 v=91
289529 On ch=4 n=60 v=0
289560 On ch=4 n=58 v=92
289589 On ch=4 n=58 v=0
289620 On ch=4 n=56 v=93
289649 On ch=4 n=56 v=0
289680 On ch=4 n=55 v=94
289709 On ch=4 n=55 v=0
289740 On ch=4 n=53 v=94
289769 On ch=4 n=53 v=0
289800 On ch=4 n=51 v=96
289829 On ch=4 n=51 v=0
289860 On ch=4 n=51 v=96
289890 On ch=4 n=53 v=96
289899 On ch=4 n=51 v=0
289920 On ch=4 n=55 v=96
289929 On ch=4 n=53 v=0
289949 On ch=4 n=55 v=0
289980 On ch=4 n=55 v=96
290010 On ch=4 n=56 v=96
290019 On ch=4 n=55 v=0
290040 On ch=4 n=58 v=96
290049 On ch=4 n=56 v=0
290069 On ch=4 n=58 v=0
290100 On ch=4 n=60 v=96
290130 On ch=4 n=62 v=96
290139 On ch=4 n=60 v=0
290160 On ch=4 n=63 v=96
290169 On ch=4 n=62 v=0
290189 On ch=4 n=63 v=0
290220 On ch=4 n=55 v=96
290250 On ch=4 n=56 v=96
290259 On ch=4 n=55 v=0
290280 On ch=4 n=58 v=96
290289 On ch=4 n=56 v=0
290309 On ch=4 n=58 v=0
290340 On ch=4 n=58 v=96
290370 On ch=4 n=60 v=96
290379 On ch=4 n=58 v=0
290400 On ch=4 n=62 v=96
290409 On ch=4 n=60 v=0
290429 On ch=4 n=62 v=0
290460 On ch=4 n=63 v=96
290490 On ch=4 n=65 v=96
290499 On ch=4 n=63 v=0
290520 On ch=4 n=67 v=112
290529 On ch=4 n=65 v=0
290549 On ch=4 n=67 v=0
290580 On ch=4 n=65 v=96
290609 On ch=4 n=65 v=0
290640 On ch=4 n=63 v=96
290669 On ch=4 n=63 v=0
290700 On ch=4 n=62 v=96
290729 On ch=4 n=62 v=0
290760 On ch=4 n=60 v=96
290789 On ch=4 n=60 v=0
290820 On ch=4 n=58 v=96
290849 On ch=4 n=58 v=0
290880 On ch=4 n=56 v=96
290909 On ch=4 n=56 v=0
290940 On ch=4 n=55 v=96
290969 On ch=4 n=55 v=0
291000 On ch=4 n=53 v=96
291029 On ch=4 n=53 v=0
291060 On ch=4 n=51 v=96
291089 On ch=4 n=51 v=0
291120 On ch=4 n=50 v=96
291149 On ch=4 n=50 v=0
291180 On ch=4 n=48 v=96
291209 On ch=4 n=48 v=0
291240 On ch=4 n=53 v=96
291299 On ch=4 n=53 v=0
291300 On ch=4 n=53 v=96
291359 On ch=4 n=53 v=0
291360 On ch=4 n=53 v=96
291419 On ch=4 n=53 v=0
291420 On ch=4 n=53 v=96
291479 On ch=4 n=53 v=0
291480 On ch=4 n=56 v=96
291539 On ch=4 n=56 v=0
291540 On ch=4 n=56 v=96
291599 On ch=4 n=56 v=0
291600 On ch=4 n=53 v=96
291659 On ch=4 n=53 v=0
291660 On ch=4 n=53 v=96
291719 On ch=4 n=53 v=0
291720 On ch=4 n=53 v=96
291779 On ch=4 n=53 v=0
291780 On ch=4 n=53 v=96
291839 On ch=4 n=53 v=0
291840 On ch=4 n=46 v=96
291899 On ch=4 n=46 v=0
291900 On ch=4 n=46 v=96
291959 On ch=4 n=46 v=0
291960 On ch=4 n=53 v=96
292019 On ch=4 n=53 v=0
292020 On ch=4 n=53 v=96
292079 On ch=4 n=53 v=0
292080 On ch=4 n=56 v=96
292139 On ch=4 n=56 v=0
292140 On ch=4 n=56 v=96
292199 On ch=4 n=56 v=0
292200 On ch=4 n=58 v=96
292259 On ch=4 n=58 v=0
292260 On ch=4 n=58 v=96
292319 On ch=4 n=58 v=0
292320 On ch=4 n=58 v=96
292379 On ch=4 n=58 v=0
292380 On ch=4 n=58 v=96
292439 On ch=4 n=58 v=0
292440 On ch=4 n=58 v=96
292499 On ch=4 n=58 v=0
292500 On ch=4 n=58 v=96
292559 On ch=4 n=58 v=0
292560 On ch=4 n=58 v=96
292619 On ch=4 n=58 v=0
292620 On ch=4 n=58 v=96
292679 On ch=4 n=58 v=0
292680 On ch=4 n=58 v=96
292739 On ch=4 n=58 v=0
292740 On ch=4 n=58 v=96
292799 On ch=4 n=58 v=0
292800 On ch=4 n=61 v=96
292800 On ch=4 n=58 v=96
292859 On ch=4 n=58 v=0
292859 On ch=4 n=61 v=0
292860 On ch=4 n=61 v=96
292860 On ch=4 n=58 v=96
292919 On ch=4 n=58 v=0
292919 On ch=4 n=61 v=0
292920 On ch=4 n=61 v=96
292920 On ch=4 n=58 v=96
292979 On ch=4 n=58 v=0
292979 On ch=4 n=61 v=0
292980 On ch=4 n=61 v=96
292980 On ch=4 n=58 v=96
293039 On ch=4 n=58 v=0
293039 On ch=4 n=61 v=0
293040 On ch=4 n=58 v=96
293040 On ch=4 n=61 v=96
293399 On ch=4 n=61 v=0
293399 On ch=4 n=58 v=0
293400 On ch=4 n=60 v=96
293400 On ch=4 n=56 v=96
293519 On ch=4 n=56 v=0
293519 On ch=4 n=60 v=0
293520 On ch=4 n=56 v=112
293520 On ch=4 n=60 v=112
293759 On ch=4 n=60 v=0
293759 On ch=4 n=56 v=0
293880 On ch=4 n=60 v=112
293880 On ch=4 n=57 v=112
294119 On ch=4 n=57 v=0
294119 On ch=4 n=60 v=0
294240 On ch=4 n=46 v=112
294240 On ch=4 n=58 v=112
294479 On ch=4 n=58 v=0
294479 On ch=4 n=46 v=0
294600 On ch=4 n=47 v=96
294600 On ch=4 n=59 v=96
294839 On ch=4 n=59 v=0
294839 On ch=4 n=47 v=0
294960 On ch=4 n=60 v=96
294960 On ch=4 n=48 v=96
295199 On ch=4 n=48 v=0
295199 On ch=4 n=60 v=0
295320 On ch=4 n=44 v=96
295320 On ch=4 n=56 v=96
295559 On ch=4 n=56 v=0
295559 On ch=4 n=44 v=0
295560 On ch=4 n=46 v=127
295560 On ch=4 n=58 v=127
296039 On ch=4 n=58 v=0
296039 On ch=4 n=46 v=0
296040 On ch=4 n=58 v=127
296040 On ch=4 n=46 v=127
296159 On ch=4 n=46 v=0
296159 On ch=4 n=58 v=0
296160 On ch=4 n=58 v=127
296160 On ch=4 n=46 v=127
296279 On ch=4 n=46 v=0
296279 On ch=4 n=58 v=0
296280 On ch=4 n=63 v=48
296520 On ch=4 n=62 v=52
296529 On ch=4 n=63 v=0
296580 On ch=4 n=61 v=56
296589 On ch=4 n=62 v=0
296640 On ch=4 n=63 v=56
296640 On ch=4 n=60 v=56
296649 On ch=4 n=61 v=0
296760 On ch=4 n=62 v=52
296760 On ch=4 n=58 v=52
296769 On ch=4 n=60 v=0
296769 On ch=4 n=63 v=0
296880 On ch=4 n=60 v=48
296880 On ch=4 n=56 v=48
296889 On ch=4 n=62 v=0
296889 On ch=4 n=58 v=0
296999 On ch=4 n=60 v=0
296999 On ch=4 n=56 v=0
297000 On ch=4 n=58 v=48
297000 On ch=4 n=55 v=48
297240 On ch=4 n=56 v=48
297240 On ch=4 n=53 v=48
297249 On ch=4 n=55 v=0
297249 On ch=4 n=58 v=0
297300 On ch=4 n=55 v=48
297300 On ch=4 n=51 v=48
297309 On ch=4 n=56 v=0
297309 On ch=4 n=53 v=0
297359 On ch=4 n=55 v=0
297359 On ch=4 n=51 v=0
297360 On ch=4 n=53 v=48
297360 On ch=4 n=50 v=48
297449 On ch=4 n=50 v=0
297449 On ch=4 n=53 v=0
297480 On ch=4 n=58 v=48
297480 On ch=4 n=50 v=48
297569 On ch=4 n=50 v=0
297569 On ch=4 n=58 v=0
297600 On ch=4 n=58 v=48
297600 On ch=4 n=50 v=48
297689 On ch=4 n=50 v=0
297689 On ch=4 n=58 v=0
297720 On ch=4 n=58 v=48
297720 On ch=4 n=51 v=48
297839 On ch=4 n=51 v=0
297839 On ch=4 n=58 v=0
298620 On ch=4 n=55 v=78
298620 On ch=4 n=58 v=78
298649 On ch=4 n=58 v=0
298649 On ch=4 n=55 v=0
298680 On ch=4 n=53 v=80
298680 On ch=4 n=56 v=80
298709 On ch=4 n=56 v=0
298709 On ch=4 n=53 v=0
298740 On ch=4 n=51 v=82
298740 On ch=4 n=55 v=82
298769 On ch=4 n=55 v=0
298769 On ch=4 n=51 v=0
298800 On ch=4 n=50 v=84
298800 On ch=4 n=53 v=84
298829 On ch=4 n=53 v=0
298829 On ch=4 n=50 v=0
298860 On ch=4 n=51 v=86
298860 On ch=4 n=55 v=86
298889 On ch=4 n=55 v=0
298889 On ch=4 n=51 v=0
298920 On ch=4 n=53 v=88
298920 On ch=4 n=56 v=88
298949 On ch=4 n=56 v=0
298949 On ch=4 n=53 v=0
298980 On ch=4 n=51 v=90
298980 On ch=4 n=55 v=90
299009 On ch=4 n=55 v=0
299009 On ch=4 n=51 v=0
299040 On ch=4 n=50 v=92
299040 On ch=4 n=53 v=92
299069 On ch=4 n=53 v=0
299069 On ch=4 n=50 v=0
299100 On ch=4 n=48 v=94
299100 On ch=4 n=51 v=94
299129 On ch=4 n=51 v=0
299129 On ch=4 n=48 v=0
299160 On ch=4 n=46 v=96
299160 On ch=4 n=50 v=96
299279 On ch=4 n=50 v=0
299279 On ch=4 n=46 v=0
299280 On ch=4 n=58 v=96
299280 On ch=4 n=46 v=96
299639 On ch=4 n=46 v=0
299639 On ch=4 n=58 v=0
299640 On ch=4 n=46 v=96
299640 On ch=4 n=58 v=96
299999 On ch=4 n=58 v=0
299999 On ch=4 n=46 v=0
300000 On ch=4 n=58 v=96
300000 On ch=4 n=46 v=96
300239 On ch=4 n=46 v=0
300239 On ch=4 n=58 v=0
300240 On ch=4 n=46 v=96
300240 On ch=4 n=58 v=96
300479 On ch=4 n=58 v=0
300479 On ch=4 n=46 v=0
300480 On ch=4 n=58 v=96
300480 On ch=4 n=46 v=96
300539 On ch=4 n=46 v=0
300539 On ch=4 n=58 v=0
300600 On ch=4 n=46 v=96
300600 On ch=4 n=58 v=96
300659 On ch=4 n=58 v=0
300659 On ch=4 n=46 v=0
300720 On ch=4 n=62 v=127
300720 On ch=4 n=46 v=127
300779 On ch=4 n=46 v=0
300779 On ch=4 n=62 v=0
300840 On ch=4 n=62 v=127
300840 On ch=4 n=46 v=127
300899 On ch=4 n=46 v=0
300899 On ch=4 n=62 v=0
300960 On ch=4 n=62 v=127
300960 On ch=4 n=46 v=127
301019 On ch=4 n=46 v=0
301019 On ch=4 n=62 v=0
301080 On ch=4 n=62 v=127
301080 On ch=4 n=46 v=127
301139 On ch=4 n=46 v=0
301139 On ch=4 n=62 v=0
301200 On ch=4 n=62 v=127
301200 On ch=4 n=46 v=127
301259 On ch=4 n=46 v=0
301259 On ch=4 n=62 v=0
301320 On ch=4 n=62 v=127
301320 On ch=4 n=46 v=127
301379 On ch=4 n=46 v=0
301379 On ch=4 n=62 v=0
301440 On ch=4 n=62 v=127
301440 On ch=4 n=46 v=127
301499 On ch=4 n=46 v=0
301499 On ch=4 n=62 v=0
301560 On ch=4 n=62 v=127
301560 On ch=4 n=46 v=127
301619 On ch=4 n=46 v=0
301619 On ch=4 n=62 v=0
301680 On ch=4 n=62 v=127
301680 On ch=4 n=46 v=127
301739 On ch=4 n=46 v=0
301739 On ch=4 n=62 v=0
301800 On ch=4 n=62 v=127
301800 On ch=4 n=46 v=127
301859 On ch=4 n=46 v=0
301859 On ch=4 n=62 v=0
301920 On ch=4 n=62 v=127
301920 On ch=4 n=46 v=127
301979 On ch=4 n=46 v=0
301979 On ch=4 n=62 v=0
302040 On ch=4 n=63 v=127
302040 On ch=4 n=51 v=127
302159 On ch=4 n=51 v=0
302159 On ch=4 n=63 v=0
302400 On ch=4 n=51 v=127
302400 On ch=4 n=63 v=127
302519 On ch=4 n=63 v=0
302519 On ch=4 n=51 v=0
302760 On ch=4 n=51 v=127
302879 On ch=4 n=51 v=0
0 PrCh ch=5 p=60
0 Par ch=5 c=7 v=127
0 Par ch=5 c=10 v=81
0 Par ch=5 c=93 v=0
0 Par ch=5 c=91 v=0
0 On ch=5 n=55 v=96
0 On ch=5 n=63 v=127
59 On ch=5 n=63 v=0
59 On ch=5 n=55 v=0
360 On ch=5 n=63 v=127
360 On ch=5 n=55 v=96
419 On ch=5 n=55 v=0
419 On ch=5 n=63 v=0
4320 On ch=5 n=67 v=48
4320 On ch=5 n=63 v=48
4680 On ch=5 n=65 v=48
4680 On ch=5 n=68 v=48
4689 On ch=5 n=63 v=0
4689 On ch=5 n=67 v=0
4800 On ch=5 n=63 v=56
4800 On ch=5 n=67 v=56
4809 On ch=5 n=65 v=0
4809 On ch=5 n=68 v=0
4920 On ch=5 n=65 v=48
4920 On ch=5 n=58 v=48
4929 On ch=5 n=63 v=0
4929 On ch=5 n=67 v=0
5040 On ch=5 n=55 v=48
5040 On ch=5 n=63 v=48
5049 On ch=5 n=65 v=0
5049 On ch=5 n=58 v=0
5159 On ch=5 n=55 v=0
5280 On ch=5 n=67 v=48
5289 On ch=5 n=63 v=0
5400 On ch=5 n=63 v=48
5409 On ch=5 n=67 v=0
5640 On ch=5 n=58 v=48
5649 On ch=5 n=63 v=0
5760 On ch=5 n=63 v=48
5769 On ch=5 n=58 v=0
5880 On ch=5 n=67 v=48
5889 On ch=5 n=63 v=0
6000 On ch=5 n=70 v=48
6009 On ch=5 n=67 v=0
6120 On ch=5 n=63 v=48
6129 On ch=5 n=70 v=0
6249 On ch=5 n=63 v=0
7680 On ch=5 n=51 v=48
7680 On ch=5 n=63 v=48
7799 On ch=5 n=63 v=0
7799 On ch=5 n=51 v=0
7800 On ch=5 n=63 v=64
7800 On ch=5 n=51 v=64
7800 On ch=5 n=65 v=64
7919 On ch=5 n=65 v=0
7919 On ch=5 n=51 v=0
7919 On ch=5 n=63 v=0
7920 On ch=5 n=46 v=96
7920 On ch=5 n=58 v=96
7920 On ch=5 n=65 v=96
7949 On ch=5 n=65 v=0
7949 On ch=5 n=58 v=0
7949 On ch=5 n=46 v=0
7950 On ch=5 n=58 v=48
7950 On ch=5 n=46 v=48
7950 On ch=5 n=65 v=48
8039 On ch=5 n=65 v=0
8519 On ch=5 n=46 v=0
8519 On ch=5 n=58 v=0
8520 On ch=5 n=58 v=48
8520 On ch=5 n=65 v=48
8639 On ch=5 n=65 v=0
8639 On ch=5 n=58 v=0
8640 On ch=5 n=51 v=48
8640 On ch=5 n=63 v=48
8640 On ch=5 n=67 v=48
8699 On ch=5 n=67 v=0
8699 On ch=5 n=63 v=0
8699 On ch=5 n=51 v=0
8760 On ch=5 n=63 v=96
8760 On ch=5 n=51 v=96
8760 On ch=5 n=66 v=96
8999 On ch=5 n=66 v=0
8999 On ch=5 n=51 v=0
8999 On ch=5 n=63 v=0
9000 On ch=5 n=51 v=96
9000 On ch=5 n=63 v=96
9000 On ch=5 n=66 v=96
9239 On ch=5 n=66 v=0
9239 On ch=5 n=63 v=0
9239 On ch=5 n=51 v=0
9240 On ch=5 n=63 v=96
9240 On ch=5 n=51 v=96
9240 On ch=5 n=66 v=96
9359 On ch=5 n=66 v=0
9359 On ch=5 n=51 v=0
9359 On ch=5 n=63 v=0
9360 On ch=5 n=46 v=96
9360 On ch=5 n=58 v=96
9360 On ch=5 n=65 v=90
9389 On ch=5 n=58 v=0
9389 On ch=5 n=46 v=0
9390 On ch=5 n=58 v=48
9390 On ch=5 n=46 v=48
9419 On ch=5 n=65 v=0
9959 On ch=5 n=46 v=0
9959 On ch=5 n=58 v=0
9960 On ch=5 n=65 v=96
9960 On ch=5 n=46 v=96
9960 On ch=5 n=58 v=96
10199 On ch=5 n=58 v=0
10199 On ch=5 n=46 v=0
10199 On ch=5 n=65 v=0
10200 On ch=5 n=65 v=96
10200 On ch=5 n=46 v=96
10200 On ch=5 n=58 v=96
10439 On ch=5 n=58 v=0
10439 On ch=5 n=46 v=0
10439 On ch=5 n=65 v=0
10440 On ch=5 n=65 v=96
10440 On ch=5 n=46 v=96
10440 On ch=5 n=58 v=96
10679 On ch=5 n=58 v=0
10679 On ch=5 n=46 v=0
10679 On ch=5 n=65 v=0
10680 On ch=5 n=65 v=96
10680 On ch=5 n=46 v=96
10680 On ch=5 n=58 v=96
10919 On ch=5 n=58 v=0
10919 On ch=5 n=46 v=0
10919 On ch=5 n=65 v=0
10920 On ch=5 n=67 v=96
10920 On ch=5 n=46 v=96
10920 On ch=5 n=63 v=96
11159 On ch=5 n=63 v=0
11159 On ch=5 n=46 v=0
11159 On ch=5 n=67 v=0
11160 On ch=5 n=67 v=96
11160 On ch=5 n=46 v=96
11160 On ch=5 n=63 v=96
11399 On ch=5 n=63 v=0
11399 On ch=5 n=46 v=0
11399 On ch=5 n=67 v=0
11400 On ch=5 n=67 v=96
11400 On ch=5 n=46 v=96
11400 On ch=5 n=63 v=96
11639 On ch=5 n=63 v=0
11639 On ch=5 n=46 v=0
11639 On ch=5 n=67 v=0
11640 On ch=5 n=65 v=90
11640 On ch=5 n=46 v=90
11640 On ch=5 n=58 v=90
11699 On ch=5 n=58 v=0
11699 On ch=5 n=46 v=0
11699 On ch=5 n=65 v=0
11760 On ch=5 n=65 v=96
11760 On ch=5 n=46 v=96
11760 On ch=5 n=58 v=96
11999 On ch=5 n=58 v=0
11999 On ch=5 n=46 v=0
11999 On ch=5 n=65 v=0
12000 On ch=5 n=67 v=90
12000 On ch=5 n=46 v=90
12000 On ch=5 n=63 v=90
12059 On ch=5 n=63 v=0
12059 On ch=5 n=46 v=0
12059 On ch=5 n=67 v=0
12120 On ch=5 n=67 v=96
12120 On ch=5 n=46 v=96
12120 On ch=5 n=63 v=96
12239 On ch=5 n=63 v=0
12239 On ch=5 n=46 v=0
12239 On ch=5 n=67 v=0
12240 On ch=5 n=68 v=110
12240 On ch=5 n=46 v=110
12240 On ch=5 n=58 v=110
12719 On ch=5 n=58 v=0
12719 On ch=5 n=46 v=0
12719 On ch=5 n=68 v=0
12720 On ch=5 n=68 v=120
12720 On ch=5 n=58 v=120
12720 On ch=5 n=65 v=120
12839 On ch=5 n=65 v=0
12839 On ch=5 n=58 v=0
12839 On ch=5 n=68 v=0
12840 On ch=5 n=68 v=125
12840 On ch=5 n=58 v=125
12840 On ch=5 n=65 v=125
12959 On ch=5 n=65 v=0
12959 On ch=5 n=58 v=0
12959 On ch=5 n=68 v=0
12960 On ch=5 n=67 v=127
12960 On ch=5 n=58 v=127
12960 On ch=5 n=63 v=127
13079 On ch=5 n=63 v=0
13079 On ch=5 n=58 v=0
13079 On ch=5 n=67 v=0
13080 On ch=5 n=51 v=127
13080 On ch=5 n=63 v=127
13199 On ch=5 n=63 v=0
13199 On ch=5 n=51 v=0
13200 On ch=5 n=55 v=127
13200 On ch=5 n=67 v=127
13319 On ch=5 n=67 v=0
13319 On ch=5 n=55 v=0
13320 On ch=5 n=51 v=127
13320 On ch=5 n=63 v=127
13559 On ch=5 n=63 v=0
13559 On ch=5 n=51 v=0
13560 On ch=5 n=46 v=127
13560 On ch=5 n=58 v=127
13679 On ch=5 n=58 v=0
13679 On ch=5 n=46 v=0
13680 On ch=5 n=51 v=127
13680 On ch=5 n=63 v=127
13799 On ch=5 n=63 v=0
13799 On ch=5 n=51 v=0
13800 On ch=5 n=55 v=127
13800 On ch=5 n=67 v=127
13919 On ch=5 n=67 v=0
13919 On ch=5 n=55 v=0
13920 On ch=5 n=70 v=127
13920 On ch=5 n=58 v=127
13920 On ch=5 n=67 v=127
14039 On ch=5 n=67 v=0
14039 On ch=5 n=58 v=0
14039 On ch=5 n=70 v=0
14040 On ch=5 n=51 v=127
14040 On ch=5 n=63 v=127
14040 On ch=5 n=67 v=127
14279 On ch=5 n=67 v=0
14279 On ch=5 n=63 v=0
14279 On ch=5 n=51 v=0
14280 On ch=5 n=55 v=127
14280 On ch=5 n=67 v=127
14280 On ch=5 n=63 v=127
14399 On ch=5 n=63 v=0
14399 On ch=5 n=67 v=0
14399 On ch=5 n=55 v=0
14400 On ch=5 n=55 v=127
14400 On ch=5 n=67 v=127
14400 On ch=5 n=63 v=127
14519 On ch=5 n=63 v=0
14519 On ch=5 n=67 v=0
14519 On ch=5 n=55 v=0
14520 On ch=5 n=55 v=127
14520 On ch=5 n=67 v=127
14520 On ch=5 n=63 v=127
14639 On ch=5 n=63 v=0
14639 On ch=5 n=67 v=0
14639 On ch=5 n=55 v=0
14640 On ch=5 n=55 v=127
14640 On ch=5 n=67 v=127
14640 On ch=5 n=63 v=127
14759 On ch=5 n=63 v=0
14759 On ch=5 n=67 v=0
14759 On ch=5 n=55 v=0
14760 On ch=5 n=55 v=127
14760 On ch=5 n=67 v=127
14760 On ch=5 n=63 v=127
14999 On ch=5 n=63 v=0
14999 On ch=5 n=67 v=0
14999 On ch=5 n=55 v=0
15000 On ch=5 n=51 v=127
15000 On ch=5 n=63 v=127
15000 On ch=5 n=61 v=127
15119 On ch=5 n=61 v=0
15119 On ch=5 n=63 v=0
15119 On ch=5 n=51 v=0
15120 On ch=5 n=51 v=127
15120 On ch=5 n=63 v=127
15120 On ch=5 n=60 v=127
15239 On ch=5 n=60 v=0
15239 On ch=5 n=63 v=0
15240 On ch=5 n=63 v=127
15359 On ch=5 n=63 v=0
15360 On ch=5 n=63 v=127
15479 On ch=5 n=63 v=0
15479 On ch=5 n=51 v=0
15480 On ch=5 n=46 v=127
15480 On ch=5 n=58 v=127
15839 On ch=5 n=58 v=0
15839 On ch=5 n=46 v=0
15840 On ch=5 n=65 v=127
15959 On ch=5 n=65 v=0
16560 On ch=5 n=65 v=48
17039 On ch=5 n=65 v=0
17040 On ch=5 n=65 v=48
17159 On ch=5 n=65 v=0
17160 On ch=5 n=65 v=48
17279 On ch=5 n=65 v=0
17280 On ch=5 n=65 v=48
17399 On ch=5 n=65 v=0
18000 On ch=5 n=65 v=48
18479 On ch=5 n=65 v=0
18480 On ch=5 n=65 v=48
18599 On ch=5 n=65 v=0
18600 On ch=5 n=65 v=48
18719 On ch=5 n=65 v=0
18720 On ch=5 n=65 v=48
18839 On ch=5 n=65 v=0
19560 On ch=5 n=65 v=127
19739 On ch=5 n=65 v=0
19740 On ch=5 n=65 v=127
19799 On ch=5 n=65 v=0
19800 On ch=5 n=65 v=127
19889 On ch=5 n=65 v=0
19920 On ch=5 n=65 v=127
20009 On ch=5 n=65 v=0
20040 On ch=5 n=65 v=127
20129 On ch=5 n=65 v=0
20160 On ch=5 n=46 v=48
20160 On ch=5 n=58 v=48
21119 On ch=5 n=58 v=0
21119 On ch=5 n=46 v=0
21120 On ch=5 n=65 v=48
21209 On ch=5 n=65 v=0
21240 On ch=5 n=65 v=48
21329 On ch=5 n=65 v=0
21360 On ch=5 n=65 v=48
21449 On ch=5 n=65 v=0
21480 On ch=5 n=65 v=48
21569 On ch=5 n=65 v=0
21600 On ch=5 n=46 v=64
21600 On ch=5 n=58 v=64
22439 On ch=5 n=58 v=0
22439 On ch=5 n=46 v=0
22860 On ch=5 n=63 v=90
22860 On ch=5 n=51 v=90
22919 On ch=5 n=51 v=0
22919 On ch=5 n=63 v=0
22920 On ch=5 n=63 v=92
22920 On ch=5 n=51 v=92
22979 On ch=5 n=51 v=0
22979 On ch=5 n=63 v=0
22980 On ch=5 n=63 v=94
22980 On ch=5 n=51 v=94
23039 On ch=5 n=51 v=0
23039 On ch=5 n=63 v=0
23040 On ch=5 n=63 v=96
23040 On ch=5 n=51 v=96
23099 On ch=5 n=51 v=0
23099 On ch=5 n=63 v=0
23160 On ch=5 n=63 v=96
23160 On ch=5 n=51 v=96
23219 On ch=5 n=51 v=0
23219 On ch=5 n=63 v=0
23700 On ch=5 n=51 v=96
23700 On ch=5 n=63 v=96
23729 On ch=5 n=63 v=0
23729 On ch=5 n=51 v=0
23760 On ch=5 n=67 v=96
23760 On ch=5 n=46 v=96
23760 On ch=5 n=58 v=96
23819 On ch=5 n=58 v=0
23819 On ch=5 n=46 v=0
23819 On ch=5 n=67 v=0
23880 On ch=5 n=67 v=96
23880 On ch=5 n=58 v=96
23880 On ch=5 n=46 v=96
23939 On ch=5 n=46 v=0
23939 On ch=5 n=58 v=0
23939 On ch=5 n=67 v=0
24420 On ch=5 n=55 v=96
24420 On ch=5 n=67 v=96
24449 On ch=5 n=67 v=0
24449 On ch=5 n=55 v=0
24480 On ch=5 n=65 v=96
24480 On ch=5 n=68 v=96
24539 On ch=5 n=68 v=0
24539 On ch=5 n=65 v=0
24600 On ch=5 n=68 v=96
24600 On ch=5 n=65 v=96
24659 On ch=5 n=65 v=0
24659 On ch=5 n=68 v=0
25020 On ch=5 n=65 v=96
25020 On ch=5 n=68 v=96
25049 On ch=5 n=68 v=0
25049 On ch=5 n=65 v=0
25080 On ch=5 n=65 v=96
25080 On ch=5 n=68 v=96
25109 On ch=5 n=68 v=0
25109 On ch=5 n=65 v=0
25140 On ch=5 n=65 v=96
25140 On ch=5 n=68 v=96
25169 On ch=5 n=68 v=0
25169 On ch=5 n=65 v=0
25200 On ch=5 n=67 v=96
25200 On ch=5 n=63 v=96
25319 On ch=5 n=63 v=0
25319 On ch=5 n=67 v=0
25680 On ch=5 n=67 v=96
25799 On ch=5 n=67 v=0
25800 On ch=5 n=65 v=96
25919 On ch=5 n=65 v=0
25920 On ch=5 n=65 v=96
26039 On ch=5 n=65 v=0
26040 On ch=5 n=46 v=96
26040 On ch=5 n=70 v=96
26040 On ch=5 n=58 v=96
26159 On ch=5 n=58 v=0
26159 On ch=5 n=70 v=0
26159 On ch=5 n=46 v=0
26160 On ch=5 n=46 v=96
26160 On ch=5 n=70 v=96
26160 On ch=5 n=58 v=96
26279 On ch=5 n=58 v=0
26279 On ch=5 n=70 v=0
26279 On ch=5 n=46 v=0
26280 On ch=5 n=46 v=96
26280 On ch=5 n=70 v=96
26280 On ch=5 n=58 v=96
26399 On ch=5 n=58 v=0
26399 On ch=5 n=70 v=0
26399 On ch=5 n=46 v=0
26400 On ch=5 n=46 v=96
26400 On ch=5 n=70 v=96
26400 On ch=5 n=58 v=96
26519 On ch=5 n=58 v=0
26519 On ch=5 n=70 v=0
26519 On ch=5 n=46 v=0
26520 On ch=5 n=46 v=96
26520 On ch=5 n=70 v=96
26520 On ch=5 n=58 v=96
26639 On ch=5 n=58 v=0
26639 On ch=5 n=70 v=0
26639 On ch=5 n=46 v=0
26640 On ch=5 n=70 v=96
26640 On ch=5 n=58 v=96
26640 On ch=5 n=46 v=96
26759 On ch=5 n=46 v=0
26759 On ch=5 n=58 v=0
26759 On ch=5 n=70 v=0
26760 On ch=5 n=55 v=96
26760 On ch=5 n=67 v=96
26879 On ch=5 n=67 v=0
26879 On ch=5 n=55 v=0
26880 On ch=5 n=65 v=96
26880 On ch=5 n=67 v=96
26880 On ch=5 n=55 v=96
26999 On ch=5 n=55 v=0
26999 On ch=5 n=67 v=0
26999 On ch=5 n=65 v=0
27000 On ch=5 n=55 v=96
27000 On ch=5 n=67 v=96
27000 On ch=5 n=63 v=96
27359 On ch=5 n=63 v=0
27359 On ch=5 n=67 v=0
27359 On ch=5 n=55 v=0
27360 On ch=5 n=65 v=96
27479 On ch=5 n=65 v=0
28080 On ch=5 n=65 v=96
28919 On ch=5 n=65 v=0
28920 On ch=5 n=65 v=127
29039 On ch=5 n=65 v=0
29040 On ch=5 n=65 v=127
29159 On ch=5 n=65 v=0
29160 On ch=5 n=65 v=127
29279 On ch=5 n=65 v=0
29280 On ch=5 n=65 v=127
29399 On ch=5 n=65 v=0
29400 On ch=5 n=65 v=127
29519 On ch=5 n=65 v=0
29520 On ch=5 n=46 v=127
29520 On ch=5 n=70 v=127
29520 On ch=5 n=58 v=127
29639 On ch=5 n=58 v=0
29639 On ch=5 n=70 v=0
29639 On ch=5 n=46 v=0
32880 On ch=5 n=63 v=48
32969 On ch=5 n=63 v=0
33000 On ch=5 n=63 v=48
33089 On ch=5 n=63 v=0
33120 On ch=5 n=63 v=60
33209 On ch=5 n=63 v=0
33240 On ch=5 n=66 v=72
33240 On ch=5 n=63 v=72
33329 On ch=5 n=63 v=0
33329 On ch=5 n=66 v=0
33360 On ch=5 n=66 v=84
33360 On ch=5 n=63 v=84
33449 On ch=5 n=63 v=0
33449 On ch=5 n=66 v=0
33480 On ch=5 n=66 v=96
33480 On ch=5 n=63 v=96
33839 On ch=5 n=63 v=0
33839 On ch=5 n=66 v=0
38400 On ch=5 n=65 v=75
38459 On ch=5 n=65 v=0
38460 On ch=5 n=65 v=78
38519 On ch=5 n=65 v=0
38520 On ch=5 n=65 v=80
38579 On ch=5 n=65 v=0
38580 On ch=5 n=65 v=83
38639 On ch=5 n=65 v=0
38640 On ch=5 n=65 v=86
38699 On ch=5 n=65 v=0
38700 On ch=5 n=65 v=89
38759 On ch=5 n=65 v=0
38760 On ch=5 n=65 v=92
38819 On ch=5 n=65 v=0
38820 On ch=5 n=65 v=94
38879 On ch=5 n=65 v=0
38880 On ch=5 n=65 v=96
38999 On ch=5 n=65 v=0
39000 On ch=5 n=58 v=112
39000 On ch=5 n=70 v=112
39000 On ch=5 n=65 v=112
39239 On ch=5 n=65 v=0
39239 On ch=5 n=70 v=0
39239 On ch=5 n=58 v=0
39360 On ch=5 n=70 v=112
39360 On ch=5 n=58 v=112
39360 On ch=5 n=65 v=112
39599 On ch=5 n=65 v=0
39599 On ch=5 n=58 v=0
39599 On ch=5 n=70 v=0
39720 On ch=5 n=63 v=112
39720 On ch=5 n=72 v=112
39720 On ch=5 n=65 v=112
39959 On ch=5 n=65 v=0
39959 On ch=5 n=72 v=0
39959 On ch=5 n=63 v=0
40080 On ch=5 n=72 v=112
40080 On ch=5 n=63 v=112
40080 On ch=5 n=65 v=112
40319 On ch=5 n=65 v=0
40319 On ch=5 n=63 v=0
40319 On ch=5 n=72 v=0
40320 On ch=5 n=58 v=127
40320 On ch=5 n=70 v=127
40320 On ch=5 n=65 v=127
40439 On ch=5 n=65 v=0
40439 On ch=5 n=70 v=0
40439 On ch=5 n=58 v=0
40440 On ch=5 n=70 v=127
40440 On ch=5 n=58 v=127
40440 On ch=5 n=65 v=127
40559 On ch=5 n=65 v=0
40559 On ch=5 n=58 v=0
40559 On ch=5 n=70 v=0
40560 On ch=5 n=58 v=127
40560 On ch=5 n=70 v=127
40560 On ch=5 n=65 v=127
40679 On ch=5 n=65 v=0
40679 On ch=5 n=70 v=0
40679 On ch=5 n=58 v=0
40680 On ch=5 n=70 v=127
40680 On ch=5 n=58 v=127
40680 On ch=5 n=65 v=127
40799 On ch=5 n=65 v=0
40799 On ch=5 n=58 v=0
40799 On ch=5 n=70 v=0
40800 On ch=5 n=58 v=127
40800 On ch=5 n=70 v=127
40800 On ch=5 n=65 v=127
40919 On ch=5 n=65 v=0
40919 On ch=5 n=70 v=0
40919 On ch=5 n=58 v=0
40920 On ch=5 n=70 v=127
40920 On ch=5 n=58 v=127
40920 On ch=5 n=65 v=127
41039 On ch=5 n=65 v=0
41039 On ch=5 n=58 v=0
41039 On ch=5 n=70 v=0
41040 On ch=5 n=72 v=127
41040 On ch=5 n=63 v=127
41040 On ch=5 n=65 v=127
41399 On ch=5 n=65 v=0
41399 On ch=5 n=63 v=0
41399 On ch=5 n=72 v=0
41400 On ch=5 n=63 v=127
41400 On ch=5 n=72 v=127
41400 On ch=5 n=65 v=127
41759 On ch=5 n=65 v=0
41759 On ch=5 n=72 v=0
41759 On ch=5 n=63 v=0
41760 On ch=5 n=70 v=127
41760 On ch=5 n=58 v=127
41760 On ch=5 n=65 v=127
41879 On ch=5 n=65 v=0
41879 On ch=5 n=58 v=0
41879 On ch=5 n=70 v=0
41880 On ch=5 n=46 v=127
41880 On ch=5 n=70 v=127
41880 On ch=5 n=58 v=127
41999 On ch=5 n=58 v=0
41999 On ch=5 n=70 v=0
41999 On ch=5 n=46 v=0
42000 On ch=5 n=46 v=127
42000 On ch=5 n=70 v=127
42000 On ch=5 n=58 v=127
42119 On ch=5 n=58 v=0
42119 On ch=5 n=70 v=0
42119 On ch=5 n=46 v=0
42120 On ch=5 n=46 v=127
42120 On ch=5 n=70 v=127
42120 On ch=5 n=58 v=127
42179 On ch=5 n=58 v=0
42179 On ch=5 n=70 v=0
42179 On ch=5 n=46 v=0
43740 On ch=5 n=55 v=127
43740 On ch=5 n=67 v=127
43799 On ch=5 n=67 v=0
43799 On ch=5 n=55 v=0
43800 On ch=5 n=55 v=127
43800 On ch=5 n=67 v=127
43859 On ch=5 n=67 v=0
43859 On ch=5 n=55 v=0
43860 On ch=5 n=67 v=127
43860 On ch=5 n=55 v=127
43919 On ch=5 n=55 v=0
43919 On ch=5 n=67 v=0
44400 On ch=5 n=68 v=127
44400 On ch=5 n=65 v=127
44459 On ch=5 n=65 v=0
44459 On ch=5 n=68 v=0
44520 On ch=5 n=67 v=127
44520 On ch=5 n=63 v=127
44579 On ch=5 n=63 v=0
44579 On ch=5 n=67 v=0
44760 On ch=5 n=67 v=127
44760 On ch=5 n=55 v=127
44819 On ch=5 n=55 v=0
44819 On ch=5 n=67 v=0
44880 On ch=5 n=65 v=127
44939 On ch=5 n=65 v=0
45240 On ch=5 n=55 v=127
45240 On ch=5 n=67 v=127
45299 On ch=5 n=67 v=0
45299 On ch=5 n=55 v=0
45480 On ch=5 n=56 v=127
45480 On ch=5 n=53 v=127
45539 On ch=5 n=53 v=0
45539 On ch=5 n=56 v=0
45600 On ch=5 n=55 v=127
45600 On ch=5 n=51 v=127
45659 On ch=5 n=51 v=0
45659 On ch=5 n=55 v=0
45840 On ch=5 n=46 v=127
45840 On ch=5 n=70 v=127
45840 On ch=5 n=67 v=127
45899 On ch=5 n=67 v=0
45899 On ch=5 n=70 v=0
45899 On ch=5 n=46 v=0
46080 On ch=5 n=67 v=127
46080 On ch=5 n=70 v=127
46080 On ch=5 n=46 v=127
46139 On ch=5 n=46 v=0
46139 On ch=5 n=70 v=0
46139 On ch=5 n=67 v=0
46320 On ch=5 n=67 v=127
46320 On ch=5 n=70 v=127
46320 On ch=5 n=46 v=127
46379 On ch=5 n=46 v=0
46379 On ch=5 n=70 v=0
46379 On ch=5 n=67 v=0
46560 On ch=5 n=67 v=127
46560 On ch=5 n=70 v=127
46560 On ch=5 n=46 v=127
46619 On ch=5 n=46 v=0
46619 On ch=5 n=70 v=0
46619 On ch=5 n=67 v=0
46800 On ch=5 n=67 v=127
46800 On ch=5 n=70 v=127
46800 On ch=5 n=46 v=127
46859 On ch=5 n=46 v=0
46859 On ch=5 n=70 v=0
46859 On ch=5 n=67 v=0
47040 On ch=5 n=67 v=127
47040 On ch=5 n=70 v=127
47040 On ch=5 n=46 v=127
47099 On ch=5 n=46 v=0
47099 On ch=5 n=70 v=0
47099 On ch=5 n=67 v=0
48840 On ch=5 n=63 v=48
48840 On ch=5 n=51 v=48
48899 On ch=5 n=51 v=0
48899 On ch=5 n=63 v=0
49080 On ch=5 n=63 v=48
49080 On ch=5 n=51 v=48
49139 On ch=5 n=51 v=0
49139 On ch=5 n=63 v=0
49320 On ch=5 n=51 v=48
49320 On ch=5 n=63 v=48
49379 On ch=5 n=63 v=0
49379 On ch=5 n=51 v=0
49560 On ch=5 n=63 v=48
49560 On ch=5 n=51 v=48
49619 On ch=5 n=51 v=0
49619 On ch=5 n=63 v=0
49800 On ch=5 n=65 v=48
49800 On ch=5 n=58 v=48
49800 On ch=5 n=46 v=48
49859 On ch=5 n=46 v=0
49859 On ch=5 n=58 v=0
49859 On ch=5 n=65 v=0
50040 On ch=5 n=51 v=64
50040 On ch=5 n=67 v=64
50579 On ch=5 n=67 v=0
50579 On ch=5 n=51 v=0
50580 On ch=5 n=55 v=81
50580 On ch=5 n=67 v=81
50639 On ch=5 n=67 v=0
50639 On ch=5 n=55 v=0
50640 On ch=5 n=67 v=83
50640 On ch=5 n=55 v=83
50699 On ch=5 n=55 v=0
50699 On ch=5 n=67 v=0
50700 On ch=5 n=55 v=86
50700 On ch=5 n=67 v=86
50759 On ch=5 n=67 v=0
50759 On ch=5 n=55 v=0
50760 On ch=5 n=65 v=88
50939 On ch=5 n=65 v=0
50940 On ch=5 n=65 v=101
50999 On ch=5 n=65 v=0
51000 On ch=5 n=65 v=103
51059 On ch=5 n=65 v=0
51060 On ch=5 n=65 v=105
51119 On ch=5 n=65 v=0
51120 On ch=5 n=63 v=127
51120 On ch=5 n=65 v=127
51479 On ch=5 n=65 v=0
51479 On ch=5 n=63 v=0
51480 On ch=5 n=70 v=96
51480 On ch=5 n=58 v=96
51539 On ch=5 n=58 v=0
51539 On ch=5 n=70 v=0
51840 On ch=5 n=58 v=96
51840 On ch=5 n=70 v=96
51899 On ch=5 n=70 v=0
51899 On ch=5 n=58 v=0
52200 On ch=5 n=70 v=96
52200 On ch=5 n=58 v=96
52259 On ch=5 n=58 v=0
52259 On ch=5 n=70 v=0
52560 On ch=5 n=66 v=96
52560 On ch=5 n=46 v=96
52560 On ch=5 n=63 v=96
52619 On ch=5 n=63 v=0
52619 On ch=5 n=46 v=0
52619 On ch=5 n=66 v=0
52680 On ch=5 n=66 v=96
52680 On ch=5 n=63 v=96
52680 On ch=5 n=46 v=96
52739 On ch=5 n=46 v=0
52739 On ch=5 n=63 v=0
52739 On ch=5 n=66 v=0
52800 On ch=5 n=66 v=96
52800 On ch=5 n=63 v=96
52800 On ch=5 n=46 v=96
52859 On ch=5 n=46 v=0
52859 On ch=5 n=63 v=0
52859 On ch=5 n=66 v=0
52920 On ch=5 n=58 v=96
52920 On ch=5 n=46 v=96
52920 On ch=5 n=65 v=96
52949 On ch=5 n=46 v=0
52949 On ch=5 n=58 v=0
52950 On ch=5 n=46 v=48
52950 On ch=5 n=58 v=48
52979 On ch=5 n=65 v=0
54479 On ch=5 n=58 v=0
54479 On ch=5 n=46 v=0
54960 On ch=5 n=65 v=96
54960 On ch=5 n=58 v=96
54989 On ch=5 n=58 v=0
54989 On ch=5 n=65 v=0
54990 On ch=5 n=65 v=48
54990 On ch=5 n=58 v=48
55080 On ch=5 n=55 v=48
55080 On ch=5 n=63 v=48
55089 On ch=5 n=65 v=0
55199 On ch=5 n=58 v=0
55199 On ch=5 n=55 v=0
55199 On ch=5 n=63 v=0
58680 On ch=5 n=67 v=48
58680 On ch=5 n=63 v=48
59040 On ch=5 n=65 v=48
59040 On ch=5 n=68 v=48
59049 On ch=5 n=63 v=0
59049 On ch=5 n=67 v=0
59160 On ch=5 n=63 v=56
59160 On ch=5 n=67 v=56
59169 On ch=5 n=65 v=0
59169 On ch=5 n=68 v=0
59280 On ch=5 n=65 v=48
59280 On ch=5 n=58 v=48
59289 On ch=5 n=63 v=0
59289 On ch=5 n=67 v=0
59400 On ch=5 n=55 v=48
59400 On ch=5 n=63 v=48
59409 On ch=5 n=65 v=0
59409 On ch=5 n=58 v=0
59519 On ch=5 n=55 v=0
59640 On ch=5 n=67 v=48
59649 On ch=5 n=63 v=0
59760 On ch=5 n=63 v=48
59769 On ch=5 n=67 v=0
60000 On ch=5 n=58 v=48
60009 On ch=5 n=63 v=0
60120 On ch=5 n=63 v=48
60129 On ch=5 n=58 v=0
60240 On ch=5 n=67 v=48
60249 On ch=5 n=63 v=0
60360 On ch=5 n=70 v=48
60369 On ch=5 n=67 v=0
60480 On ch=5 n=63 v=48
60489 On ch=5 n=70 v=0
60609 On ch=5 n=63 v=0
62040 On ch=5 n=51 v=48
62040 On ch=5 n=63 v=48
62159 On ch=5 n=63 v=0
62159 On ch=5 n=51 v=0
62160 On ch=5 n=63 v=64
62160 On ch=5 n=51 v=64
62160 On ch=5 n=65 v=64
62279 On ch=5 n=65 v=0
62279 On ch=5 n=51 v=0
62279 On ch=5 n=63 v=0
62280 On ch=5 n=46 v=96
62280 On ch=5 n=58 v=96
62280 On ch=5 n=65 v=96
62309 On ch=5 n=65 v=0
62309 On ch=5 n=58 v=0
62309 On ch=5 n=46 v=0
62310 On ch=5 n=58 v=48
62310 On ch=5 n=46 v=48
62310 On ch=5 n=65 v=48
62399 On ch=5 n=65 v=0
62879 On ch=5 n=46 v=0
62879 On ch=5 n=58 v=0
62880 On ch=5 n=58 v=48
62880 On ch=5 n=65 v=48
62999 On ch=5 n=65 v=0
62999 On ch=5 n=58 v=0
63000 On ch=5 n=51 v=48
63000 On ch=5 n=63 v=48
63000 On ch=5 n=67 v=48
63059 On ch=5 n=67 v=0
63059 On ch=5 n=63 v=0
63059 On ch=5 n=51 v=0
63120 On ch=5 n=63 v=96
63120 On ch=5 n=51 v=96
63120 On ch=5 n=66 v=96
63359 On ch=5 n=66 v=0
63359 On ch=5 n=51 v=0
63359 On ch=5 n=63 v=0
63360 On ch=5 n=51 v=96
63360 On ch=5 n=63 v=96
63360 On ch=5 n=66 v=96
63599 On ch=5 n=66 v=0
63599 On ch=5 n=63 v=0
63599 On ch=5 n=51 v=0
63600 On ch=5 n=63 v=96
63600 On ch=5 n=51 v=96
63600 On ch=5 n=66 v=96
63719 On ch=5 n=66 v=0
63719 On ch=5 n=51 v=0
63719 On ch=5 n=63 v=0
63720 On ch=5 n=46 v=96
63720 On ch=5 n=58 v=96
63720 On ch=5 n=65 v=90
63749 On ch=5 n=58 v=0
63749 On ch=5 n=46 v=0
63750 On ch=5 n=58 v=48
63750 On ch=5 n=46 v=48
63779 On ch=5 n=65 v=0
64319 On ch=5 n=46 v=0
64319 On ch=5 n=58 v=0
64320 On ch=5 n=65 v=96
64320 On ch=5 n=46 v=96
64320 On ch=5 n=58 v=96
64559 On ch=5 n=58 v=0
64559 On ch=5 n=46 v=0
64559 On ch=5 n=65 v=0
64560 On ch=5 n=65 v=96
64560 On ch=5 n=46 v=96
64560 On ch=5 n=58 v=96
64799 On ch=5 n=58 v=0
64799 On ch=5 n=46 v=0
64799 On ch=5 n=65 v=0
64800 On ch=5 n=65 v=96
64800 On ch=5 n=46 v=96
64800 On ch=5 n=58 v=96
65039 On ch=5 n=58 v=0
65039 On ch=5 n=46 v=0
65039 On ch=5 n=65 v=0
65040 On ch=5 n=65 v=96
65040 On ch=5 n=46 v=96
65040 On ch=5 n=58 v=96
65279 On ch=5 n=58 v=0
65279 On ch=5 n=46 v=0
65279 On ch=5 n=65 v=0
65280 On ch=5 n=67 v=96
65280 On ch=5 n=46 v=96
65280 On ch=5 n=63 v=96
65519 On ch=5 n=63 v=0
65519 On ch=5 n=46 v=0
65519 On ch=5 n=67 v=0
65520 On ch=5 n=67 v=96
65520 On ch=5 n=46 v=96
65520 On ch=5 n=63 v=96
65759 On ch=5 n=63 v=0
65759 On ch=5 n=46 v=0
65759 On ch=5 n=67 v=0
65760 On ch=5 n=67 v=96
65760 On ch=5 n=46 v=96
65760 On ch=5 n=63 v=96
65999 On ch=5 n=63 v=0
65999 On ch=5 n=46 v=0
65999 On ch=5 n=67 v=0
66000 On ch=5 n=65 v=90
66000 On ch=5 n=46 v=90
66000 On ch=5 n=58 v=90
66059 On ch=5 n=58 v=0
66059 On ch=5 n=46 v=0
66059 On ch=5 n=65 v=0
66120 On ch=5 n=65 v=96
66120 On ch=5 n=46 v=96
66120 On ch=5 n=58 v=96
66359 On ch=5 n=58 v=0
66359 On ch=5 n=46 v=0
66359 On ch=5 n=65 v=0
66360 On ch=5 n=67 v=90
66360 On ch=5 n=46 v=90
66360 On ch=5 n=63 v=90
66419 On ch=5 n=63 v=0
66419 On ch=5 n=46 v=0
66419 On ch=5 n=67 v=0
66480 On ch=5 n=67 v=96
66480 On ch=5 n=46 v=96
66480 On ch=5 n=63 v=96
66599 On ch=5 n=63 v=0
66599 On ch=5 n=46 v=0
66599 On ch=5 n=67 v=0
66600 On ch=5 n=68 v=110
66600 On ch=5 n=46 v=110
66600 On ch=5 n=58 v=110
67079 On ch=5 n=58 v=0
67079 On ch=5 n=46 v=0
67079 On ch=5 n=68 v=0
67080 On ch=5 n=68 v=120
67080 On ch=5 n=58 v=120
67080 On ch=5 n=65 v=120
67199 On ch=5 n=65 v=0
67199 On ch=5 n=58 v=0
67199 On ch=5 n=68 v=0
67200 On ch=5 n=68 v=125
67200 On ch=5 n=58 v=125
67200 On ch=5 n=65 v=125
67319 On ch=5 n=65 v=0
67319 On ch=5 n=58 v=0
67319 On ch=5 n=68 v=0
67320 On ch=5 n=67 v=127
67320 On ch=5 n=58 v=127
67320 On ch=5 n=63 v=127
67439 On ch=5 n=63 v=0
67439 On ch=5 n=58 v=0
67439 On ch=5 n=67 v=0
67440 On ch=5 n=51 v=127
67440 On ch=5 n=63 v=127
67559 On ch=5 n=63 v=0
67559 On ch=5 n=51 v=0
67560 On ch=5 n=55 v=127
67560 On ch=5 n=67 v=127
67679 On ch=5 n=67 v=0
67679 On ch=5 n=55 v=0
67680 On ch=5 n=51 v=127
67680 On ch=5 n=63 v=127
67919 On ch=5 n=63 v=0
67919 On ch=5 n=51 v=0
67920 On ch=5 n=46 v=127
67920 On ch=5 n=58 v=127
68039 On ch=5 n=58 v=0
68039 On ch=5 n=46 v=0
68040 On ch=5 n=51 v=127
68040 On ch=5 n=63 v=127
68159 On ch=5 n=63 v=0
68159 On ch=5 n=51 v=0
68160 On ch=5 n=55 v=127
68160 On ch=5 n=67 v=127
68279 On ch=5 n=67 v=0
68279 On ch=5 n=55 v=0
68280 On ch=5 n=70 v=127
68280 On ch=5 n=58 v=127
68280 On ch=5 n=67 v=127
68399 On ch=5 n=67 v=0
68399 On ch=5 n=58 v=0
68399 On ch=5 n=70 v=0
68400 On ch=5 n=51 v=127
68400 On ch=5 n=63 v=127
68400 On ch=5 n=67 v=127
68639 On ch=5 n=67 v=0
68639 On ch=5 n=63 v=0
68639 On ch=5 n=51 v=0
68640 On ch=5 n=55 v=127
68640 On ch=5 n=67 v=127
68640 On ch=5 n=63 v=127
68759 On ch=5 n=63 v=0
68759 On ch=5 n=67 v=0
68759 On ch=5 n=55 v=0
68760 On ch=5 n=55 v=127
68760 On ch=5 n=67 v=127
68760 On ch=5 n=63 v=127
68879 On ch=5 n=63 v=0
68879 On ch=5 n=67 v=0
68879 On ch=5 n=55 v=0
68880 On ch=5 n=55 v=127
68880 On ch=5 n=67 v=127
68880 On ch=5 n=63 v=127
68999 On ch=5 n=63 v=0
68999 On ch=5 n=67 v=0
68999 On ch=5 n=55 v=0
69000 On ch=5 n=55 v=127
69000 On ch=5 n=67 v=127
69000 On ch=5 n=63 v=127
69119 On ch=5 n=63 v=0
69119 On ch=5 n=67 v=0
69119 On ch=5 n=55 v=0
69120 On ch=5 n=55 v=127
69120 On ch=5 n=67 v=127
69120 On ch=5 n=63 v=127
69359 On ch=5 n=63 v=0
69359 On ch=5 n=67 v=0
69359 On ch=5 n=55 v=0
69360 On ch=5 n=51 v=127
69360 On ch=5 n=63 v=127
69360 On ch=5 n=61 v=127
69479 On ch=5 n=61 v=0
69479 On ch=5 n=63 v=0
69479 On ch=5 n=51 v=0
69480 On ch=5 n=51 v=127
69480 On ch=5 n=63 v=127
69480 On ch=5 n=60 v=127
69599 On ch=5 n=60 v=0
69599 On ch=5 n=63 v=0
69600 On ch=5 n=63 v=127
69719 On ch=5 n=63 v=0
69720 On ch=5 n=63 v=127
69839 On ch=5 n=63 v=0
69839 On ch=5 n=51 v=0
69840 On ch=5 n=46 v=127
69840 On ch=5 n=58 v=127
70199 On ch=5 n=58 v=0
70199 On ch=5 n=46 v=0
70200 On ch=5 n=65 v=127
70319 On ch=5 n=65 v=0
70920 On ch=5 n=65 v=48
71399 On ch=5 n=65 v=0
71400 On ch=5 n=65 v=48
71519 On ch=5 n=65 v=0
71520 On ch=5 n=65 v=48
71639 On ch=5 n=65 v=0
71640 On ch=5 n=65 v=48
71759 On ch=5 n=65 v=0
72360 On ch=5 n=65 v=48
72839 On ch=5 n=65 v=0
72840 On ch=5 n=65 v=48
72959 On ch=5 n=65 v=0
72960 On ch=5 n=65 v=48
73079 On ch=5 n=65 v=0
73080 On ch=5 n=65 v=48
73199 On ch=5 n=65 v=0
73920 On ch=5 n=65 v=127
74099 On ch=5 n=65 v=0
74100 On ch=5 n=65 v=127
74159 On ch=5 n=65 v=0
74160 On ch=5 n=65 v=127
74249 On ch=5 n=65 v=0
74280 On ch=5 n=65 v=127
74369 On ch=5 n=65 v=0
74400 On ch=5 n=65 v=127
74489 On ch=5 n=65 v=0
74520 On ch=5 n=46 v=48
74520 On ch=5 n=58 v=48
75479 On ch=5 n=58 v=0
75479 On ch=5 n=46 v=0
75480 On ch=5 n=65 v=48
75569 On ch=5 n=65 v=0
75600 On ch=5 n=65 v=48
75689 On ch=5 n=65 v=0
75720 On ch=5 n=65 v=48
75809 On ch=5 n=65 v=0
75840 On ch=5 n=65 v=48
75929 On ch=5 n=65 v=0
75960 On ch=5 n=46 v=64
75960 On ch=5 n=58 v=64
76799 On ch=5 n=58 v=0
76799 On ch=5 n=46 v=0
77220 On ch=5 n=63 v=90
77220 On ch=5 n=51 v=90
77279 On ch=5 n=51 v=0
77279 On ch=5 n=63 v=0
77280 On ch=5 n=63 v=92
77280 On ch=5 n=51 v=92
77339 On ch=5 n=51 v=0
77339 On ch=5 n=63 v=0
77340 On ch=5 n=63 v=94
77340 On ch=5 n=51 v=94
77399 On ch=5 n=51 v=0
77399 On ch=5 n=63 v=0
77400 On ch=5 n=63 v=96
77400 On ch=5 n=51 v=96
77459 On ch=5 n=51 v=0
77459 On ch=5 n=63 v=0
77520 On ch=5 n=63 v=96
77520 On ch=5 n=51 v=96
77579 On ch=5 n=51 v=0
77579 On ch=5 n=63 v=0
78060 On ch=5 n=51 v=96
78060 On ch=5 n=63 v=96
78089 On ch=5 n=63 v=0
78089 On ch=5 n=51 v=0
78120 On ch=5 n=67 v=96
78120 On ch=5 n=46 v=96
78120 On ch=5 n=58 v=96
78179 On ch=5 n=58 v=0
78179 On ch=5 n=46 v=0
78179 On ch=5 n=67 v=0
78240 On ch=5 n=67 v=96
78240 On ch=5 n=58 v=96
78240 On ch=5 n=46 v=96
78299 On ch=5 n=46 v=0
78299 On ch=5 n=58 v=0
78299 On ch=5 n=67 v=0
78780 On ch=5 n=55 v=96
78780 On ch=5 n=67 v=96
78809 On ch=5 n=67 v=0
78809 On ch=5 n=55 v=0
78840 On ch=5 n=65 v=96
78840 On ch=5 n=68 v=96
78899 On ch=5 n=68 v=0
78899 On ch=5 n=65 v=0
78960 On ch=5 n=68 v=96
78960 On ch=5 n=65 v=96
79019 On ch=5 n=65 v=0
79019 On ch=5 n=68 v=0
79380 On ch=5 n=65 v=96
79380 On ch=5 n=68 v=96
79409 On ch=5 n=68 v=0
79409 On ch=5 n=65 v=0
79440 On ch=5 n=65 v=96
79440 On ch=5 n=68 v=96
79469 On ch=5 n=68 v=0
79469 On ch=5 n=65 v=0
79500 On ch=5 n=65 v=96
79500 On ch=5 n=68 v=96
79529 On ch=5 n=68 v=0
79529 On ch=5 n=65 v=0
79560 On ch=5 n=67 v=96
79560 On ch=5 n=63 v=96
79679 On ch=5 n=63 v=0
79679 On ch=5 n=67 v=0
80040 On ch=5 n=67 v=96
80159 On ch=5 n=67 v=0
80160 On ch=5 n=65 v=96
80279 On ch=5 n=65 v=0
80280 On ch=5 n=65 v=96
80399 On ch=5 n=65 v=0
80400 On ch=5 n=46 v=96
80400 On ch=5 n=70 v=96
80400 On ch=5 n=58 v=96
80519 On ch=5 n=58 v=0
80519 On ch=5 n=70 v=0
80519 On ch=5 n=46 v=0
80520 On ch=5 n=46 v=96
80520 On ch=5 n=70 v=96
80520 On ch=5 n=58 v=96
80639 On ch=5 n=58 v=0
80639 On ch=5 n=70 v=0
80639 On ch=5 n=46 v=0
80640 On ch=5 n=46 v=96
80640 On ch=5 n=70 v=96
80640 On ch=5 n=58 v=96
80759 On ch=5 n=58 v=0
80759 On ch=5 n=70 v=0
80759 On ch=5 n=46 v=0
80760 On ch=5 n=46 v=96
80760 On ch=5 n=70 v=96
80760 On ch=5 n=58 v=96
80879 On ch=5 n=58 v=0
80879 On ch=5 n=70 v=0
80879 On ch=5 n=46 v=0
80880 On ch=5 n=46 v=96
80880 On ch=5 n=70 v=96
80880 On ch=5 n=58 v=96
80999 On ch=5 n=58 v=0
80999 On ch=5 n=70 v=0
80999 On ch=5 n=46 v=0
81000 On ch=5 n=70 v=96
81000 On ch=5 n=58 v=96
81000 On ch=5 n=46 v=96
81119 On ch=5 n=46 v=0
81119 On ch=5 n=58 v=0
81119 On ch=5 n=70 v=0
81120 On ch=5 n=55 v=96
81120 On ch=5 n=67 v=96
81239 On ch=5 n=67 v=0
81239 On ch=5 n=55 v=0
81240 On ch=5 n=65 v=96
81240 On ch=5 n=67 v=96
81240 On ch=5 n=55 v=96
81359 On ch=5 n=55 v=0
81359 On ch=5 n=67 v=0
81359 On ch=5 n=65 v=0
81360 On ch=5 n=55 v=96
81360 On ch=5 n=67 v=96
81360 On ch=5 n=63 v=96
81719 On ch=5 n=63 v=0
81719 On ch=5 n=67 v=0
81719 On ch=5 n=55 v=0
81720 On ch=5 n=65 v=96
81839 On ch=5 n=65 v=0
82440 On ch=5 n=65 v=96
83279 On ch=5 n=65 v=0
83280 On ch=5 n=65 v=127
83399 On ch=5 n=65 v=0
83400 On ch=5 n=65 v=127
83519 On ch=5 n=65 v=0
83520 On ch=5 n=65 v=127
83639 On ch=5 n=65 v=0
83640 On ch=5 n=65 v=127
83759 On ch=5 n=65 v=0
83760 On ch=5 n=65 v=127
83879 On ch=5 n=65 v=0
83880 On ch=5 n=46 v=127
83880 On ch=5 n=70 v=127
83880 On ch=5 n=58 v=127
83999 On ch=5 n=58 v=0
83999 On ch=5 n=70 v=0
83999 On ch=5 n=46 v=0
87240 On ch=5 n=63 v=48
87329 On ch=5 n=63 v=0
87360 On ch=5 n=63 v=48
87449 On ch=5 n=63 v=0
87480 On ch=5 n=63 v=60
87569 On ch=5 n=63 v=0
87600 On ch=5 n=66 v=72
87600 On ch=5 n=63 v=72
87689 On ch=5 n=63 v=0
87689 On ch=5 n=66 v=0
87720 On ch=5 n=66 v=84
87720 On ch=5 n=63 v=84
87809 On ch=5 n=63 v=0
87809 On ch=5 n=66 v=0
87840 On ch=5 n=66 v=96
87840 On ch=5 n=63 v=96
88199 On ch=5 n=63 v=0
88199 On ch=5 n=66 v=0
92760 On ch=5 n=65 v=75
92819 On ch=5 n=65 v=0
92820 On ch=5 n=65 v=78
92879 On ch=5 n=65 v=0
92880 On ch=5 n=65 v=80
92939 On ch=5 n=65 v=0
92940 On ch=5 n=65 v=83
92999 On ch=5 n=65 v=0
93000 On ch=5 n=65 v=86
93059 On ch=5 n=65 v=0
93060 On ch=5 n=65 v=89
93119 On ch=5 n=65 v=0
93120 On ch=5 n=65 v=92
93179 On ch=5 n=65 v=0
93180 On ch=5 n=65 v=94
93239 On ch=5 n=65 v=0
93240 On ch=5 n=65 v=96
93359 On ch=5 n=65 v=0
93360 On ch=5 n=58 v=112
93360 On ch=5 n=70 v=112
93360 On ch=5 n=65 v=112
93599 On ch=5 n=65 v=0
93599 On ch=5 n=70 v=0
93599 On ch=5 n=58 v=0
93720 On ch=5 n=70 v=112
93720 On ch=5 n=58 v=112
93720 On ch=5 n=65 v=112
93959 On ch=5 n=65 v=0
93959 On ch=5 n=58 v=0
93959 On ch=5 n=70 v=0
94080 On ch=5 n=63 v=112
94080 On ch=5 n=72 v=112
94080 On ch=5 n=65 v=112
94319 On ch=5 n=65 v=0
94319 On ch=5 n=72 v=0
94319 On ch=5 n=63 v=0
94440 On ch=5 n=72 v=112
94440 On ch=5 n=63 v=112
94440 On ch=5 n=65 v=112
94679 On ch=5 n=65 v=0
94679 On ch=5 n=63 v=0
94679 On ch=5 n=72 v=0
94680 On ch=5 n=58 v=127
94680 On ch=5 n=70 v=127
94680 On ch=5 n=65 v=127
94799 On ch=5 n=65 v=0
94799 On ch=5 n=70 v=0
94799 On ch=5 n=58 v=0
94800 On ch=5 n=70 v=127
94800 On ch=5 n=58 v=127
94800 On ch=5 n=65 v=127
94919 On ch=5 n=65 v=0
94919 On ch=5 n=58 v=0
94919 On ch=5 n=70 v=0
94920 On ch=5 n=58 v=127
94920 On ch=5 n=70 v=127
94920 On ch=5 n=65 v=127
95039 On ch=5 n=65 v=0
95039 On ch=5 n=70 v=0
95039 On ch=5 n=58 v=0
95040 On ch=5 n=70 v=127
95040 On ch=5 n=58 v=127
95040 On ch=5 n=65 v=127
95159 On ch=5 n=65 v=0
95159 On ch=5 n=58 v=0
95159 On ch=5 n=70 v=0
95160 On ch=5 n=58 v=127
95160 On ch=5 n=70 v=127
95160 On ch=5 n=65 v=127
95279 On ch=5 n=65 v=0
95279 On ch=5 n=70 v=0
95279 On ch=5 n=58 v=0
95280 On ch=5 n=70 v=127
95280 On ch=5 n=58 v=127
95280 On ch=5 n=65 v=127
95399 On ch=5 n=65 v=0
95399 On ch=5 n=58 v=0
95399 On ch=5 n=70 v=0
95400 On ch=5 n=72 v=127
95400 On ch=5 n=63 v=127
95400 On ch=5 n=65 v=127
95759 On ch=5 n=65 v=0
95759 On ch=5 n=63 v=0
95759 On ch=5 n=72 v=0
95760 On ch=5 n=63 v=127
95760 On ch=5 n=72 v=127
95760 On ch=5 n=65 v=127
96119 On ch=5 n=65 v=0
96119 On ch=5 n=72 v=0
96119 On ch=5 n=63 v=0
96120 On ch=5 n=70 v=127
96120 On ch=5 n=58 v=127
96120 On ch=5 n=65 v=127
96239 On ch=5 n=65 v=0
96239 On ch=5 n=58 v=0
96239 On ch=5 n=70 v=0
96240 On ch=5 n=46 v=127
96240 On ch=5 n=70 v=127
96240 On ch=5 n=58 v=127
96359 On ch=5 n=58 v=0
96359 On ch=5 n=70 v=0
96359 On ch=5 n=46 v=0
96360 On ch=5 n=46 v=127
96360 On ch=5 n=70 v=127
96360 On ch=5 n=58 v=127
96479 On ch=5 n=58 v=0
96479 On ch=5 n=70 v=0
96479 On ch=5 n=46 v=0
96480 On ch=5 n=46 v=127
96480 On ch=5 n=70 v=127
96480 On ch=5 n=58 v=127
96539 On ch=5 n=58 v=0
96539 On ch=5 n=70 v=0
96539 On ch=5 n=46 v=0
98100 On ch=5 n=55 v=127
98100 On ch=5 n=67 v=127
98159 On ch=5 n=67 v=0
98159 On ch=5 n=55 v=0
98160 On ch=5 n=55 v=127
98160 On ch=5 n=67 v=127
98219 On ch=5 n=67 v=0
98219 On ch=5 n=55 v=0
98220 On ch=5 n=67 v=127
98220 On ch=5 n=55 v=127
98279 On ch=5 n=55 v=0
98279 On ch=5 n=67 v=0
98760 On ch=5 n=68 v=127
98760 On ch=5 n=65 v=127
98819 On ch=5 n=65 v=0
98819 On ch=5 n=68 v=0
98880 On ch=5 n=67 v=127
98880 On ch=5 n=63 v=127
98939 On ch=5 n=63 v=0
98939 On ch=5 n=67 v=0
99120 On ch=5 n=67 v=127
99120 On ch=5 n=55 v=127
99179 On ch=5 n=55 v=0
99179 On ch=5 n=67 v=0
99240 On ch=5 n=65 v=127
99299 On ch=5 n=65 v=0
99600 On ch=5 n=55 v=127
99600 On ch=5 n=67 v=127
99659 On ch=5 n=67 v=0
99659 On ch=5 n=55 v=0
99840 On ch=5 n=56 v=127
99840 On ch=5 n=53 v=127
99899 On ch=5 n=53 v=0
99899 On ch=5 n=56 v=0
99960 On ch=5 n=55 v=127
99960 On ch=5 n=51 v=127
100019 On ch=5 n=51 v=0
100019 On ch=5 n=55 v=0
100200 On ch=5 n=46 v=127
100200 On ch=5 n=70 v=127
100200 On ch=5 n=67 v=127
100259 On ch=5 n=67 v=0
100259 On ch=5 n=70 v=0
100259 On ch=5 n=46 v=0
100440 On ch=5 n=67 v=127
100440 On ch=5 n=70 v=127
100440 On ch=5 n=46 v=127
100499 On ch=5 n=46 v=0
100499 On ch=5 n=70 v=0
100499 On ch=5 n=67 v=0
100680 On ch=5 n=67 v=127
100680 On ch=5 n=70 v=127
100680 On ch=5 n=46 v=127
100739 On ch=5 n=46 v=0
100739 On ch=5 n=70 v=0
100739 On ch=5 n=67 v=0
100920 On ch=5 n=67 v=127
100920 On ch=5 n=70 v=127
100920 On ch=5 n=46 v=127
100979 On ch=5 n=46 v=0
100979 On ch=5 n=70 v=0
100979 On ch=5 n=67 v=0
101160 On ch=5 n=67 v=127
101160 On ch=5 n=70 v=127
101160 On ch=5 n=46 v=127
101219 On ch=5 n=46 v=0
101219 On ch=5 n=70 v=0
101219 On ch=5 n=67 v=0
101400 On ch=5 n=67 v=127
101400 On ch=5 n=70 v=127
101400 On ch=5 n=46 v=127
101459 On ch=5 n=46 v=0
101459 On ch=5 n=70 v=0
101459 On ch=5 n=67 v=0
103200 On ch=5 n=63 v=48
103200 On ch=5 n=51 v=48
103259 On ch=5 n=51 v=0
103259 On ch=5 n=63 v=0
103440 On ch=5 n=63 v=48
103440 On ch=5 n=51 v=48
103499 On ch=5 n=51 v=0
103499 On ch=5 n=63 v=0
103680 On ch=5 n=51 v=48
103680 On ch=5 n=63 v=48
103739 On ch=5 n=63 v=0
103739 On ch=5 n=51 v=0
103920 On ch=5 n=63 v=48
103920 On ch=5 n=51 v=48
103979 On ch=5 n=51 v=0
103979 On ch=5 n=63 v=0
104160 On ch=5 n=65 v=48
104160 On ch=5 n=58 v=48
104160 On ch=5 n=46 v=48
104219 On ch=5 n=46 v=0
104219 On ch=5 n=58 v=0
104219 On ch=5 n=65 v=0
104400 On ch=5 n=51 v=64
104400 On ch=5 n=67 v=64
104939 On ch=5 n=67 v=0
104939 On ch=5 n=51 v=0
104940 On ch=5 n=55 v=81
104940 On ch=5 n=67 v=81
104999 On ch=5 n=67 v=0
104999 On ch=5 n=55 v=0
105000 On ch=5 n=67 v=83
105000 On ch=5 n=55 v=83
105059 On ch=5 n=55 v=0
105059 On ch=5 n=67 v=0
105060 On ch=5 n=55 v=86
105060 On ch=5 n=67 v=86
105119 On ch=5 n=67 v=0
105119 On ch=5 n=55 v=0
105120 On ch=5 n=65 v=88
105299 On ch=5 n=65 v=0
105300 On ch=5 n=65 v=101
105359 On ch=5 n=65 v=0
105360 On ch=5 n=65 v=103
105419 On ch=5 n=65 v=0
105420 On ch=5 n=65 v=105
105479 On ch=5 n=65 v=0
105480 On ch=5 n=63 v=127
105480 On ch=5 n=65 v=127
105839 On ch=5 n=65 v=0
105839 On ch=5 n=63 v=0
105840 On ch=5 n=70 v=96
105840 On ch=5 n=58 v=96
105899 On ch=5 n=58 v=0
105899 On ch=5 n=70 v=0
106200 On ch=5 n=58 v=96
106200 On ch=5 n=70 v=96
106259 On ch=5 n=70 v=0
106259 On ch=5 n=58 v=0
106560 On ch=5 n=70 v=96
106560 On ch=5 n=58 v=96
106619 On ch=5 n=58 v=0
106619 On ch=5 n=70 v=0
106920 On ch=5 n=66 v=96
106920 On ch=5 n=46 v=96
106920 On ch=5 n=63 v=96
106979 On ch=5 n=63 v=0
106979 On ch=5 n=46 v=0
106979 On ch=5 n=66 v=0
107040 On ch=5 n=66 v=96
107040 On ch=5 n=63 v=96
107040 On ch=5 n=46 v=96
107099 On ch=5 n=46 v=0
107099 On ch=5 n=63 v=0
107099 On ch=5 n=66 v=0
107160 On ch=5 n=66 v=96
107160 On ch=5 n=63 v=96
107160 On ch=5 n=46 v=96
107219 On ch=5 n=46 v=0
107219 On ch=5 n=63 v=0
107219 On ch=5 n=66 v=0
107280 On ch=5 n=58 v=96
107280 On ch=5 n=46 v=96
107280 On ch=5 n=65 v=96
107309 On ch=5 n=46 v=0
107309 On ch=5 n=58 v=0
107310 On ch=5 n=46 v=48
107310 On ch=5 n=58 v=48
107339 On ch=5 n=65 v=0
108839 On ch=5 n=58 v=0
108839 On ch=5 n=46 v=0
113760 On ch=5 n=55 v=48
113760 On ch=5 n=67 v=48
114959 On ch=5 n=67 v=0
114959 On ch=5 n=55 v=0
114960 On ch=5 n=55 v=48
114960 On ch=5 n=67 v=48
115079 On ch=5 n=67 v=0
115079 On ch=5 n=55 v=0
115080 On ch=5 n=67 v=48
115080 On ch=5 n=55 v=48
115199 On ch=5 n=55 v=0
115199 On ch=5 n=67 v=0
115200 On ch=5 n=55 v=48
115200 On ch=5 n=67 v=48
116399 On ch=5 n=67 v=0
116399 On ch=5 n=55 v=0
116400 On ch=5 n=67 v=48
116400 On ch=5 n=55 v=48
116519 On ch=5 n=55 v=0
116519 On ch=5 n=67 v=0
116520 On ch=5 n=55 v=48
116520 On ch=5 n=67 v=48
116639 On ch=5 n=67 v=0
116639 On ch=5 n=55 v=0
116640 On ch=5 n=67 v=48
116640 On ch=5 n=55 v=48
117479 On ch=5 n=55 v=0
117479 On ch=5 n=67 v=0
117480 On ch=5 n=55 v=48
117480 On ch=5 n=67 v=48
117599 On ch=5 n=67 v=0
117599 On ch=5 n=55 v=0
117600 On ch=5 n=67 v=48
117600 On ch=5 n=55 v=48
117719 On ch=5 n=55 v=0
117719 On ch=5 n=67 v=0
117720 On ch=5 n=55 v=48
117720 On ch=5 n=67 v=48
117839 On ch=5 n=67 v=0
117839 On ch=5 n=55 v=0
117840 On ch=5 n=67 v=48
117840 On ch=5 n=55 v=48
117959 On ch=5 n=55 v=0
117959 On ch=5 n=67 v=0
117960 On ch=5 n=55 v=48
117960 On ch=5 n=67 v=48
118079 On ch=5 n=67 v=0
118079 On ch=5 n=55 v=0
118080 On ch=5 n=67 v=32
118080 On ch=5 n=55 v=32
118199 On ch=5 n=55 v=0
118199 On ch=5 n=67 v=0
121080 On ch=5 n=65 v=127
121139 On ch=5 n=65 v=0
121200 On ch=5 n=65 v=127
121259 On ch=5 n=65 v=0
121320 On ch=5 n=65 v=127
121379 On ch=5 n=65 v=0
121440 On ch=5 n=65 v=127
121499 On ch=5 n=65 v=0
121560 On ch=5 n=65 v=127
121619 On ch=5 n=65 v=0
121680 On ch=5 n=65 v=127
122400 On ch=5 n=67 v=127
122409 On ch=5 n=65 v=0
122519 On ch=5 n=67 v=0
122520 On ch=5 n=55 v=127
122520 On ch=5 n=67 v=127
122579 On ch=5 n=67 v=0
122579 On ch=5 n=55 v=0
122640 On ch=5 n=67 v=127
122640 On ch=5 n=55 v=127
122699 On ch=5 n=55 v=0
122699 On ch=5 n=67 v=0
122760 On ch=5 n=67 v=127
122819 On ch=5 n=67 v=0
122880 On ch=5 n=67 v=127
122939 On ch=5 n=67 v=0
123000 On ch=5 n=67 v=127
123059 On ch=5 n=67 v=0
123120 On ch=5 n=67 v=127
123839 On ch=5 n=67 v=0
125280 On ch=5 n=67 v=127
125339 On ch=5 n=67 v=0
125400 On ch=5 n=67 v=127
125459 On ch=5 n=67 v=0
125520 On ch=5 n=67 v=127
125579 On ch=5 n=67 v=0
125640 On ch=5 n=67 v=127
125699 On ch=5 n=67 v=0
125760 On ch=5 n=67 v=127
125819 On ch=5 n=67 v=0
125880 On ch=5 n=67 v=127
125939 On ch=5 n=67 v=0
126000 On ch=5 n=67 v=127
126719 On ch=5 n=67 v=0
128340 On ch=5 n=55 v=48
128340 On ch=5 n=67 v=48
128399 On ch=5 n=67 v=0
128399 On ch=5 n=55 v=0
128400 On ch=5 n=67 v=48
128400 On ch=5 n=55 v=48
128459 On ch=5 n=55 v=0
128459 On ch=5 n=67 v=0
128700 On ch=5 n=55 v=48
128700 On ch=5 n=67 v=48
128759 On ch=5 n=67 v=0
128759 On ch=5 n=55 v=0
128760 On ch=5 n=67 v=48
128760 On ch=5 n=55 v=48
128819 On ch=5 n=55 v=0
128819 On ch=5 n=67 v=0
128940 On ch=5 n=55 v=54
128940 On ch=5 n=67 v=54
128999 On ch=5 n=67 v=0
128999 On ch=5 n=55 v=0
129000 On ch=5 n=55 v=61
129000 On ch=5 n=67 v=61
129059 On ch=5 n=67 v=0
129059 On ch=5 n=55 v=0
129060 On ch=5 n=55 v=67
129060 On ch=5 n=67 v=67
129119 On ch=5 n=67 v=0
129119 On ch=5 n=55 v=0
129120 On ch=5 n=67 v=73
129120 On ch=5 n=55 v=73
129179 On ch=5 n=55 v=0
129179 On ch=5 n=67 v=0
129180 On ch=5 n=55 v=80
129180 On ch=5 n=67 v=80
129239 On ch=5 n=67 v=0
129239 On ch=5 n=55 v=0
129240 On ch=5 n=55 v=86
129240 On ch=5 n=67 v=86
129359 On ch=5 n=67 v=0
129359 On ch=5 n=55 v=0
131040 On ch=5 n=65 v=96
131040 On ch=5 n=63 v=96
131399 On ch=5 n=63 v=0
131399 On ch=5 n=65 v=0
131400 On ch=5 n=65 v=96
131400 On ch=5 n=70 v=96
131400 On ch=5 n=61 v=96
131759 On ch=5 n=61 v=0
131759 On ch=5 n=70 v=0
131759 On ch=5 n=65 v=0
131760 On ch=5 n=67 v=96
131760 On ch=5 n=61 v=96
131760 On ch=5 n=63 v=96
132119 On ch=5 n=63 v=0
132119 On ch=5 n=61 v=0
132119 On ch=5 n=67 v=0
132120 On ch=5 n=68 v=96
132120 On ch=5 n=63 v=96
132120 On ch=5 n=60 v=96
132479 On ch=5 n=60 v=0
132479 On ch=5 n=63 v=0
132479 On ch=5 n=68 v=0
132480 On ch=5 n=68 v=127
132480 On ch=5 n=65 v=127
132839 On ch=5 n=65 v=0
132839 On ch=5 n=68 v=0
132840 On ch=5 n=68 v=127
132840 On ch=5 n=64 v=127
133199 On ch=5 n=64 v=0
133199 On ch=5 n=68 v=0
133200 On ch=5 n=67 v=127
133200 On ch=5 n=63 v=127
133319 On ch=5 n=63 v=0
133319 On ch=5 n=67 v=0
133320 On ch=5 n=51 v=48
133320 On ch=5 n=63 v=48
133919 On ch=5 n=51 v=0
133920 On ch=5 n=51 v=48
134040 On ch=5 n=55 v=48
134099 On ch=5 n=55 v=0
134160 On ch=5 n=58 v=48
134219 On ch=5 n=58 v=0
134279 On ch=5 n=63 v=0
134280 On ch=5 n=63 v=48
134399 On ch=5 n=63 v=0
134399 On ch=5 n=51 v=0
134400 On ch=5 n=51 v=48
134400 On ch=5 n=63 v=48
134400 On ch=5 n=67 v=48
134459 On ch=5 n=67 v=0
134519 On ch=5 n=63 v=0
134519 On ch=5 n=51 v=0
134520 On ch=5 n=63 v=48
134520 On ch=5 n=51 v=48
134520 On ch=5 n=70 v=48
134579 On ch=5 n=70 v=0
134639 On ch=5 n=51 v=0
134639 On ch=5 n=63 v=0
134640 On ch=5 n=51 v=48
134640 On ch=5 n=63 v=48
135839 On ch=5 n=63 v=0
135839 On ch=5 n=51 v=0
135840 On ch=5 n=63 v=48
135840 On ch=5 n=51 v=48
135959 On ch=5 n=51 v=0
135959 On ch=5 n=63 v=0
135960 On ch=5 n=51 v=48
135960 On ch=5 n=63 v=48
136079 On ch=5 n=63 v=0
136079 On ch=5 n=51 v=0
136080 On ch=5 n=51 v=48
136080 On ch=5 n=63 v=48
136799 On ch=5 n=51 v=0
136800 On ch=5 n=51 v=48
136919 On ch=5 n=51 v=0
136919 On ch=5 n=63 v=0
136920 On ch=5 n=55 v=48
136920 On ch=5 n=63 v=48
136920 On ch=5 n=51 v=48
136979 On ch=5 n=55 v=0
137039 On ch=5 n=51 v=0
137039 On ch=5 n=63 v=0
137040 On ch=5 n=58 v=48
137040 On ch=5 n=51 v=48
137040 On ch=5 n=63 v=48
137099 On ch=5 n=58 v=0
137159 On ch=5 n=63 v=0
137159 On ch=5 n=51 v=0
137160 On ch=5 n=51 v=48
137160 On ch=5 n=63 v=48
137279 On ch=5 n=63 v=0
137279 On ch=5 n=51 v=0
137280 On ch=5 n=67 v=48
137280 On ch=5 n=63 v=48
137280 On ch=5 n=51 v=48
137339 On ch=5 n=67 v=0
137399 On ch=5 n=51 v=0
137399 On ch=5 n=63 v=0
137400 On ch=5 n=51 v=48
137400 On ch=5 n=63 v=48
137519 On ch=5 n=63 v=0
137519 On ch=5 n=51 v=0
137520 On ch=5 n=63 v=48
137520 On ch=5 n=51 v=48
137580 On ch=5 n=60 v=48
137609 On ch=5 n=60 v=0
137639 On ch=5 n=51 v=0
137639 On ch=5 n=63 v=0
137640 On ch=5 n=61 v=48
137669 On ch=5 n=61 v=0
137700 On ch=5 n=63 v=48
137729 On ch=5 n=63 v=0
137760 On ch=5 n=65 v=48
137789 On ch=5 n=65 v=0
137820 On ch=5 n=67 v=48
137849 On ch=5 n=67 v=0
137880 On ch=5 n=68 v=96
138119 On ch=5 n=68 v=0
138120 On ch=5 n=68 v=96
138240 On ch=5 n=70 v=96
138269 On ch=5 n=70 v=0
138270 On ch=5 n=70 v=48
138360 On ch=5 n=67 v=48
138369 On ch=5 n=68 v=0
138479 On ch=5 n=67 v=0
138480 On ch=5 n=67 v=48
138599 On ch=5 n=67 v=0
138600 On ch=5 n=67 v=48
138659 On ch=5 n=70 v=0
138719 On ch=5 n=67 v=0
138720 On ch=5 n=67 v=48
138839 On ch=5 n=67 v=0
138840 On ch=5 n=67 v=48
138959 On ch=5 n=67 v=0
138960 On ch=5 n=68 v=48
138960 On ch=5 n=65 v=48
139079 On ch=5 n=65 v=0
139079 On ch=5 n=68 v=0
143400 On ch=5 n=68 v=127
143400 On ch=5 n=65 v=127
144119 On ch=5 n=65 v=0
144119 On ch=5 n=68 v=0
144120 On ch=5 n=65 v=127
144120 On ch=5 n=68 v=127
144359 On ch=5 n=68 v=0
144359 On ch=5 n=65 v=0
144360 On ch=5 n=68 v=127
144360 On ch=5 n=65 v=127
144599 On ch=5 n=65 v=0
144599 On ch=5 n=68 v=0
144600 On ch=5 n=65 v=127
144600 On ch=5 n=68 v=127
144839 On ch=5 n=68 v=0
144839 On ch=5 n=65 v=0
144840 On ch=5 n=68 v=127
144840 On ch=5 n=65 v=127
145079 On ch=5 n=65 v=0
145079 On ch=5 n=68 v=0
145080 On ch=5 n=65 v=127
145080 On ch=5 n=68 v=127
145319 On ch=5 n=68 v=0
145319 On ch=5 n=65 v=0
145320 On ch=5 n=68 v=127
145320 On ch=5 n=65 v=127
145439 On ch=5 n=65 v=0
145439 On ch=5 n=68 v=0
147720 On ch=5 n=66 v=127
147720 On ch=5 n=63 v=127
148439 On ch=5 n=63 v=0
148439 On ch=5 n=66 v=0
148440 On ch=5 n=63 v=127
148440 On ch=5 n=66 v=127
148679 On ch=5 n=66 v=0
148679 On ch=5 n=63 v=0
148680 On ch=5 n=66 v=127
148680 On ch=5 n=63 v=127
148919 On ch=5 n=63 v=0
148919 On ch=5 n=66 v=0
148920 On ch=5 n=63 v=127
148920 On ch=5 n=66 v=127
149159 On ch=5 n=66 v=0
149159 On ch=5 n=63 v=0
149160 On ch=5 n=66 v=127
149160 On ch=5 n=63 v=127
149399 On ch=5 n=63 v=0
149399 On ch=5 n=66 v=0
149400 On ch=5 n=63 v=127
149400 On ch=5 n=66 v=127
149639 On ch=5 n=66 v=0
149639 On ch=5 n=63 v=0
149640 On ch=5 n=63 v=127
149640 On ch=5 n=66 v=127
149759 On ch=5 n=66 v=0
149759 On ch=5 n=63 v=0
149880 On ch=5 n=55 v=127
149880 On ch=5 n=67 v=127
150599 On ch=5 n=67 v=0
150599 On ch=5 n=55 v=0
150600 On ch=5 n=67 v=127
150600 On ch=5 n=55 v=127
150839 On ch=5 n=55 v=0
150839 On ch=5 n=67 v=0
150840 On ch=5 n=67 v=127
150840 On ch=5 n=55 v=127
151079 On ch=5 n=55 v=0
151079 On ch=5 n=67 v=0
151080 On ch=5 n=55 v=127
151080 On ch=5 n=67 v=127
151319 On ch=5 n=67 v=0
151319 On ch=5 n=55 v=0
151320 On ch=5 n=67 v=127
151320 On ch=5 n=55 v=127
151559 On ch=5 n=55 v=0
151559 On ch=5 n=67 v=0
151560 On ch=5 n=55 v=127
151560 On ch=5 n=67 v=127
151799 On ch=5 n=67 v=0
151799 On ch=5 n=55 v=0
151800 On ch=5 n=67 v=127
151800 On ch=5 n=55 v=127
151919 On ch=5 n=55 v=0
151919 On ch=5 n=67 v=0
152040 On ch=5 n=51 v=127
152040 On ch=5 n=66 v=127
152040 On ch=5 n=63 v=127
152279 On ch=5 n=63 v=0
152279 On ch=5 n=66 v=0
152279 On ch=5 n=51 v=0
152280 On ch=5 n=66 v=127
152280 On ch=5 n=63 v=127
152280 On ch=5 n=51 v=127
152519 On ch=5 n=51 v=0
152519 On ch=5 n=63 v=0
152519 On ch=5 n=66 v=0
152520 On ch=5 n=51 v=127
152520 On ch=5 n=63 v=127
152520 On ch=5 n=66 v=127
152639 On ch=5 n=66 v=0
152639 On ch=5 n=63 v=0
152639 On ch=5 n=51 v=0
152760 On ch=5 n=67 v=127
152760 On ch=5 n=55 v=127
152999 On ch=5 n=55 v=0
152999 On ch=5 n=67 v=0
153000 On ch=5 n=55 v=127
153000 On ch=5 n=67 v=127
153239 On ch=5 n=67 v=0
153239 On ch=5 n=55 v=0
153240 On ch=5 n=67 v=127
153240 On ch=5 n=55 v=127
153359 On ch=5 n=55 v=0
153359 On ch=5 n=67 v=0
153360 On ch=5 n=65 v=96
153479 On ch=5 n=65 v=0
153480 On ch=5 n=65 v=96
153719 On ch=5 n=65 v=0
153720 On ch=5 n=65 v=96
153839 On ch=5 n=65 v=0
153840 On ch=5 n=65 v=96
154079 On ch=5 n=65 v=0
154080 On ch=5 n=65 v=96
154199 On ch=5 n=65 v=0
154200 On ch=5 n=65 v=96
154439 On ch=5 n=65 v=0
154440 On ch=5 n=65 v=96
154679 On ch=5 n=65 v=0
154680 On ch=5 n=65 v=96
154739 On ch=5 n=65 v=0
163560 On ch=5 n=55 v=96
163560 On ch=5 n=67 v=96
163619 On ch=5 n=67 v=0
163619 On ch=5 n=55 v=0
163680 On ch=5 n=67 v=96
163680 On ch=5 n=55 v=96
163739 On ch=5 n=55 v=0
163739 On ch=5 n=67 v=0
163800 On ch=5 n=55 v=96
163800 On ch=5 n=67 v=96
163859 On ch=5 n=67 v=0
163859 On ch=5 n=55 v=0
163920 On ch=5 n=67 v=96
163920 On ch=5 n=55 v=96
163979 On ch=5 n=55 v=0
163979 On ch=5 n=67 v=0
164040 On ch=5 n=55 v=112
164040 On ch=5 n=67 v=112
164999 On ch=5 n=67 v=0
164999 On ch=5 n=55 v=0
165000 On ch=5 n=67 v=96
165000 On ch=5 n=55 v=96
165059 On ch=5 n=55 v=0
165059 On ch=5 n=67 v=0
165120 On ch=5 n=55 v=96
165120 On ch=5 n=67 v=96
165179 On ch=5 n=67 v=0
165179 On ch=5 n=55 v=0
165240 On ch=5 n=67 v=96
165240 On ch=5 n=55 v=96
165299 On ch=5 n=55 v=0
165299 On ch=5 n=67 v=0
165360 On ch=5 n=55 v=96
165360 On ch=5 n=67 v=96
165419 On ch=5 n=67 v=0
165419 On ch=5 n=55 v=0
165480 On ch=5 n=67 v=112
165480 On ch=5 n=55 v=112
166439 On ch=5 n=55 v=0
166439 On ch=5 n=67 v=0
167880 On ch=5 n=55 v=96
167880 On ch=5 n=46 v=96
167880 On ch=5 n=58 v=96
167939 On ch=5 n=55 v=0
167999 On ch=5 n=58 v=0
167999 On ch=5 n=46 v=0
168000 On ch=5 n=58 v=96
168000 On ch=5 n=46 v=96
168119 On ch=5 n=46 v=0
168119 On ch=5 n=58 v=0
168120 On ch=5 n=63 v=96
168120 On ch=5 n=46 v=96
168120 On ch=5 n=58 v=96
168179 On ch=5 n=63 v=0
168239 On ch=5 n=58 v=0
168239 On ch=5 n=46 v=0
168240 On ch=5 n=67 v=96
168240 On ch=5 n=58 v=96
168240 On ch=5 n=46 v=96
168299 On ch=5 n=67 v=0
168359 On ch=5 n=46 v=0
168359 On ch=5 n=58 v=0
168360 On ch=5 n=70 v=112
168360 On ch=5 n=46 v=112
168360 On ch=5 n=58 v=112
168599 On ch=5 n=58 v=0
168599 On ch=5 n=70 v=0
168600 On ch=5 n=58 v=96
168719 On ch=5 n=58 v=0
168720 On ch=5 n=58 v=96
168839 On ch=5 n=58 v=0
168840 On ch=5 n=58 v=96
168959 On ch=5 n=58 v=0
168960 On ch=5 n=58 v=96
169079 On ch=5 n=58 v=0
169080 On ch=5 n=58 v=96
169199 On ch=5 n=58 v=0
169200 On ch=5 n=58 v=127
169319 On ch=5 n=58 v=0
169319 On ch=5 n=46 v=0
169320 On ch=5 n=63 v=127
169320 On ch=5 n=58 v=127
169320 On ch=5 n=46 v=127
169439 On ch=5 n=46 v=0
169439 On ch=5 n=58 v=0
169439 On ch=5 n=63 v=0
169440 On ch=5 n=63 v=127
169440 On ch=5 n=46 v=127
169440 On ch=5 n=58 v=127
169559 On ch=5 n=58 v=0
169559 On ch=5 n=46 v=0
169559 On ch=5 n=63 v=0
169560 On ch=5 n=63 v=127
169560 On ch=5 n=58 v=127
169560 On ch=5 n=46 v=127
169679 On ch=5 n=46 v=0
169679 On ch=5 n=58 v=0
169679 On ch=5 n=63 v=0
169680 On ch=5 n=51 v=127
169680 On ch=5 n=63 v=127
169799 On ch=5 n=63 v=0
169799 On ch=5 n=51 v=0
169800 On ch=5 n=63 v=127
169800 On ch=5 n=51 v=127
169919 On ch=5 n=51 v=0
169919 On ch=5 n=63 v=0
169920 On ch=5 n=51 v=127
169920 On ch=5 n=63 v=127
170039 On ch=5 n=63 v=0
170039 On ch=5 n=51 v=0
177120 On ch=5 n=63 v=48
177479 On ch=5 n=63 v=0
177480 On ch=5 n=63 v=48
177720 On ch=5 n=66 v=48
177839 On ch=5 n=63 v=0
177840 On ch=5 n=63 v=48
177849 On ch=5 n=66 v=0
178080 On ch=5 n=58 v=48
178199 On ch=5 n=58 v=0
178199 On ch=5 n=63 v=0
178200 On ch=5 n=63 v=48
178319 On ch=5 n=63 v=0
178320 On ch=5 n=63 v=48
178320 On ch=5 n=66 v=48
178439 On ch=5 n=66 v=0
178439 On ch=5 n=63 v=0
178440 On ch=5 n=70 v=48
178440 On ch=5 n=66 v=48
178440 On ch=5 n=63 v=48
178559 On ch=5 n=63 v=0
178559 On ch=5 n=66 v=0
178559 On ch=5 n=70 v=0
178560 On ch=5 n=63 v=48
178560 On ch=5 n=66 v=48
178560 On ch=5 n=68 v=48
178679 On ch=5 n=68 v=0
178679 On ch=5 n=66 v=0
178920 On ch=5 n=66 v=48
179160 On ch=5 n=68 v=48
179169 On ch=5 n=66 v=0
179280 On ch=5 n=66 v=48
179289 On ch=5 n=68 v=0
179519 On ch=5 n=63 v=0
179520 On ch=5 n=63 v=48
179529 On ch=5 n=66 v=0
179639 On ch=5 n=63 v=0
179640 On ch=5 n=63 v=48
179759 On ch=5 n=63 v=0
179760 On ch=5 n=66 v=48
179760 On ch=5 n=63 v=48
179879 On ch=5 n=63 v=0
179879 On ch=5 n=66 v=0
179880 On ch=5 n=63 v=48
179880 On ch=5 n=68 v=48
179880 On ch=5 n=66 v=48
179999 On ch=5 n=66 v=0
179999 On ch=5 n=68 v=0
179999 On ch=5 n=63 v=0
180000 On ch=5 n=68 v=48
180000 On ch=5 n=65 v=48
181199 On ch=5 n=65 v=0
181199 On ch=5 n=68 v=0
181200 On ch=5 n=65 v=48
181200 On ch=5 n=68 v=48
181319 On ch=5 n=68 v=0
181319 On ch=5 n=65 v=0
181320 On ch=5 n=68 v=48
181320 On ch=5 n=65 v=48
181439 On ch=5 n=65 v=0
181439 On ch=5 n=68 v=0
181440 On ch=5 n=68 v=48
181440 On ch=5 n=70 v=52
181440 On ch=5 n=65 v=48
181799 On ch=5 n=65 v=0
181799 On ch=5 n=68 v=0
181800 On ch=5 n=65 v=51
182040 On ch=5 n=68 v=53
182159 On ch=5 n=65 v=0
182160 On ch=5 n=65 v=54
182169 On ch=5 n=68 v=0
182400 On ch=5 n=58 v=56
182519 On ch=5 n=65 v=0
182520 On ch=5 n=65 v=96
182529 On ch=5 n=58 v=0
182639 On ch=5 n=65 v=0
182639 On ch=5 n=70 v=0
182640 On ch=5 n=70 v=96
182640 On ch=5 n=68 v=96
182640 On ch=5 n=65 v=96
182759 On ch=5 n=65 v=0
182759 On ch=5 n=70 v=0
182760 On ch=5 n=65 v=96
182760 On ch=5 n=70 v=96
182769 On ch=5 n=68 v=0
182879 On ch=5 n=70 v=0
182879 On ch=5 n=65 v=0
182880 On ch=5 n=70 v=72
182880 On ch=5 n=66 v=72
182880 On ch=5 n=63 v=96
183959 On ch=5 n=63 v=0
183959 On ch=5 n=66 v=0
183959 On ch=5 n=70 v=0
183960 On ch=5 n=51 v=96
183960 On ch=5 n=63 v=80
184079 On ch=5 n=63 v=0
184080 On ch=5 n=63 v=96
184199 On ch=5 n=63 v=0
184199 On ch=5 n=51 v=0
184200 On ch=5 n=54 v=96
184200 On ch=5 n=66 v=96
184200 On ch=5 n=63 v=96
184319 On ch=5 n=63 v=0
184319 On ch=5 n=66 v=0
184319 On ch=5 n=54 v=0
184320 On ch=5 n=63 v=127
184320 On ch=5 n=51 v=127
184320 On ch=5 n=66 v=127
185159 On ch=5 n=66 v=0
185159 On ch=5 n=51 v=0
185159 On ch=5 n=63 v=0
185160 On ch=5 n=66 v=127
185160 On ch=5 n=63 v=127
185160 On ch=5 n=51 v=127
185279 On ch=5 n=51 v=0
185279 On ch=5 n=63 v=0
185279 On ch=5 n=66 v=0
185280 On ch=5 n=66 v=127
185280 On ch=5 n=63 v=127
185280 On ch=5 n=51 v=127
185399 On ch=5 n=51 v=0
185399 On ch=5 n=63 v=0
185399 On ch=5 n=66 v=0
185400 On ch=5 n=66 v=127
185400 On ch=5 n=63 v=127
185400 On ch=5 n=51 v=127
185519 On ch=5 n=51 v=0
185519 On ch=5 n=63 v=0
185519 On ch=5 n=66 v=0
185520 On ch=5 n=66 v=127
185520 On ch=5 n=63 v=127
185520 On ch=5 n=51 v=127
185639 On ch=5 n=51 v=0
185639 On ch=5 n=63 v=0
185639 On ch=5 n=66 v=0
185640 On ch=5 n=66 v=127
185640 On ch=5 n=63 v=127
185640 On ch=5 n=51 v=127
185759 On ch=5 n=51 v=0
185759 On ch=5 n=63 v=0
185759 On ch=5 n=66 v=0
185760 On ch=5 n=66 v=127
185760 On ch=5 n=63 v=127
185760 On ch=5 n=51 v=127
185879 On ch=5 n=51 v=0
185879 On ch=5 n=63 v=0
185879 On ch=5 n=66 v=0
188280 On ch=5 n=51 v=48
188639 On ch=5 n=51 v=0
188640 On ch=5 n=58 v=48
188640 On ch=5 n=50 v=48
188999 On ch=5 n=50 v=0
188999 On ch=5 n=58 v=0
189000 On ch=5 n=58 v=48
189000 On ch=5 n=50 v=44
189359 On ch=5 n=50 v=0
189359 On ch=5 n=58 v=0
189360 On ch=5 n=63 v=48
189360 On ch=5 n=51 v=40
189719 On ch=5 n=51 v=0
189719 On ch=5 n=63 v=0
189720 On ch=5 n=63 v=48
189720 On ch=5 n=51 v=36
190079 On ch=5 n=51 v=0
190079 On ch=5 n=63 v=0
190080 On ch=5 n=65 v=48
190080 On ch=5 n=46 v=32
190439 On ch=5 n=46 v=0
190439 On ch=5 n=65 v=0
190440 On ch=5 n=65 v=48
190440 On ch=5 n=46 v=32
190799 On ch=5 n=46 v=0
190799 On ch=5 n=65 v=0
190800 On ch=5 n=65 v=48
190800 On ch=5 n=46 v=32
191159 On ch=5 n=46 v=0
191159 On ch=5 n=65 v=0
191160 On ch=5 n=65 v=48
191160 On ch=5 n=46 v=32
191519 On ch=5 n=46 v=0
191519 On ch=5 n=65 v=0
192240 On ch=5 n=65 v=32
192240 On ch=5 n=46 v=32
192599 On ch=5 n=46 v=0
192599 On ch=5 n=65 v=0
192600 On ch=5 n=65 v=32
192600 On ch=5 n=46 v=32
192959 On ch=5 n=46 v=0
192959 On ch=5 n=65 v=0
193680 On ch=5 n=65 v=32
193680 On ch=5 n=46 v=32
194039 On ch=5 n=46 v=0
194039 On ch=5 n=65 v=0
194040 On ch=5 n=65 v=32
194040 On ch=5 n=46 v=32
194399 On ch=5 n=46 v=0
194399 On ch=5 n=65 v=0
195840 On ch=5 n=51 v=40
196079 On ch=5 n=51 v=0
196080 On ch=5 n=55 v=40
196199 On ch=5 n=55 v=0
196200 On ch=5 n=51 v=40
196439 On ch=5 n=51 v=0
196440 On ch=5 n=46 v=40
196559 On ch=5 n=46 v=0
196560 On ch=5 n=65 v=96
196560 On ch=5 n=46 v=96
196919 On ch=5 n=46 v=0
196919 On ch=5 n=65 v=0
196920 On ch=5 n=65 v=127
196920 On ch=5 n=58 v=127
197279 On ch=5 n=58 v=0
197279 On ch=5 n=65 v=0
197280 On ch=5 n=63 v=127
197280 On ch=5 n=55 v=127
197399 On ch=5 n=55 v=0
197399 On ch=5 n=63 v=0
200880 On ch=5 n=65 v=56
201120 On ch=5 n=69 v=56
201129 On ch=5 n=65 v=0
201240 On ch=5 n=65 v=56
201249 On ch=5 n=69 v=0
201480 On ch=5 n=60 v=56
201489 On ch=5 n=65 v=0
201599 On ch=5 n=60 v=0
201600 On ch=5 n=65 v=56
201720 On ch=5 n=69 v=56
201729 On ch=5 n=65 v=0
201840 On ch=5 n=72 v=56
201849 On ch=5 n=69 v=0
201959 On ch=5 n=72 v=0
201960 On ch=5 n=72 v=48
202439 On ch=5 n=72 v=0
202440 On ch=5 n=72 v=48
202559 On ch=5 n=72 v=0
202560 On ch=5 n=72 v=48
202679 On ch=5 n=72 v=0
202680 On ch=5 n=72 v=48
203760 On ch=5 n=73 v=48
203769 On ch=5 n=72 v=0
203879 On ch=5 n=73 v=0
206640 On ch=5 n=70 v=32
206640 On ch=5 n=58 v=32
208139 On ch=5 n=58 v=0
208139 On ch=5 n=70 v=0
208140 On ch=5 n=58 v=58
208140 On ch=5 n=70 v=58
208199 On ch=5 n=70 v=0
208199 On ch=5 n=58 v=0
208200 On ch=5 n=58 v=60
208200 On ch=5 n=70 v=60
208259 On ch=5 n=70 v=0
208259 On ch=5 n=58 v=0
208260 On ch=5 n=58 v=62
208260 On ch=5 n=70 v=62
208319 On ch=5 n=70 v=0
208319 On ch=5 n=58 v=0
208320 On ch=5 n=58 v=64
208320 On ch=5 n=70 v=64
208379 On ch=5 n=70 v=0
208379 On ch=5 n=58 v=0
208380 On ch=5 n=58 v=68
208380 On ch=5 n=70 v=68
208439 On ch=5 n=70 v=0
208439 On ch=5 n=58 v=0
208440 On ch=5 n=70 v=72
208440 On ch=5 n=58 v=72
208499 On ch=5 n=58 v=0
208499 On ch=5 n=70 v=0
208500 On ch=5 n=70 v=76
208500 On ch=5 n=58 v=76
208559 On ch=5 n=58 v=0
208559 On ch=5 n=70 v=0
208560 On ch=5 n=70 v=80
208560 On ch=5 n=58 v=80
208619 On ch=5 n=58 v=0
208619 On ch=5 n=70 v=0
208620 On ch=5 n=70 v=84
208620 On ch=5 n=58 v=84
208679 On ch=5 n=58 v=0
208679 On ch=5 n=70 v=0
208680 On ch=5 n=58 v=88
208680 On ch=5 n=65 v=88
208739 On ch=5 n=65 v=0
208739 On ch=5 n=58 v=0
208740 On ch=5 n=58 v=92
208740 On ch=5 n=65 v=92
208799 On ch=5 n=65 v=0
208799 On ch=5 n=58 v=0
208800 On ch=5 n=63 v=96
208800 On ch=5 n=55 v=96
209639 On ch=5 n=55 v=0
209639 On ch=5 n=63 v=0
209640 On ch=5 n=55 v=96
209640 On ch=5 n=63 v=96
209759 On ch=5 n=63 v=0
209759 On ch=5 n=55 v=0
209760 On ch=5 n=55 v=96
209760 On ch=5 n=63 v=96
209879 On ch=5 n=63 v=0
209879 On ch=5 n=55 v=0
209880 On ch=5 n=63 v=96
209880 On ch=5 n=55 v=96
210119 On ch=5 n=55 v=0
210119 On ch=5 n=63 v=0
210360 On ch=5 n=51 v=96
210360 On ch=5 n=63 v=96
210479 On ch=5 n=63 v=0
210479 On ch=5 n=51 v=0
210480 On ch=5 n=63 v=96
210480 On ch=5 n=51 v=96
210599 On ch=5 n=51 v=0
210599 On ch=5 n=63 v=0
210600 On ch=5 n=63 v=96
210600 On ch=5 n=51 v=96
210839 On ch=5 n=51 v=0
210839 On ch=5 n=63 v=0
210840 On ch=5 n=51 v=112
210840 On ch=5 n=63 v=112
210959 On ch=5 n=63 v=0
210959 On ch=5 n=51 v=0
210960 On ch=5 n=63 v=112
210960 On ch=5 n=51 v=112
211319 On ch=5 n=51 v=0
211319 On ch=5 n=63 v=0
211320 On ch=5 n=51 v=112
211320 On ch=5 n=63 v=112
211679 On ch=5 n=63 v=0
211679 On ch=5 n=51 v=0
211680 On ch=5 n=63 v=112
211680 On ch=5 n=51 v=112
212159 On ch=5 n=51 v=0
212159 On ch=5 n=63 v=0
212160 On ch=5 n=51 v=112
212160 On ch=5 n=63 v=112
212279 On ch=5 n=63 v=0
212279 On ch=5 n=51 v=0
212280 On ch=5 n=63 v=112
212280 On ch=5 n=51 v=112
212399 On ch=5 n=51 v=0
212399 On ch=5 n=63 v=0
212400 On ch=5 n=51 v=127
212400 On ch=5 n=63 v=127
212639 On ch=5 n=63 v=0
212639 On ch=5 n=51 v=0
212640 On ch=5 n=67 v=127
212640 On ch=5 n=55 v=127
212759 On ch=5 n=55 v=0
212759 On ch=5 n=67 v=0
212760 On ch=5 n=51 v=127
212760 On ch=5 n=63 v=127
212999 On ch=5 n=63 v=0
212999 On ch=5 n=51 v=0
213000 On ch=5 n=58 v=127
213000 On ch=5 n=46 v=127
213119 On ch=5 n=46 v=0
213119 On ch=5 n=58 v=0
213120 On ch=5 n=51 v=127
213120 On ch=5 n=63 v=127
213239 On ch=5 n=63 v=0
213239 On ch=5 n=51 v=0
213240 On ch=5 n=67 v=127
213240 On ch=5 n=55 v=127
213359 On ch=5 n=55 v=0
213359 On ch=5 n=67 v=0
213360 On ch=5 n=58 v=127
213360 On ch=5 n=70 v=127
213479 On ch=5 n=70 v=0
213479 On ch=5 n=58 v=0
213480 On ch=5 n=63 v=127
213480 On ch=5 n=51 v=127
213719 On ch=5 n=51 v=0
213719 On ch=5 n=63 v=0
213720 On ch=5 n=55 v=127
213720 On ch=5 n=67 v=127
213959 On ch=5 n=67 v=0
213959 On ch=5 n=55 v=0
213960 On ch=5 n=67 v=127
213960 On ch=5 n=55 v=127
214079 On ch=5 n=55 v=0
214079 On ch=5 n=67 v=0
214080 On ch=5 n=55 v=127
214080 On ch=5 n=67 v=127
214199 On ch=5 n=67 v=0
214199 On ch=5 n=55 v=0
214200 On ch=5 n=67 v=127
214200 On ch=5 n=55 v=127
214439 On ch=5 n=55 v=0
214439 On ch=5 n=67 v=0
214440 On ch=5 n=55 v=127
214440 On ch=5 n=67 v=127
214559 On ch=5 n=67 v=0
214559 On ch=5 n=55 v=0
214560 On ch=5 n=65 v=127
214919 On ch=5 n=65 v=0
214920 On ch=5 n=63 v=127
214920 On ch=5 n=65 v=127
215279 On ch=5 n=65 v=0
215279 On ch=5 n=63 v=0
215280 On ch=5 n=58 v=127
215280 On ch=5 n=65 v=127
215399 On ch=5 n=65 v=0
215399 On ch=5 n=58 v=0
215400 On ch=5 n=46 v=48
215400 On ch=5 n=58 v=48
216479 On ch=5 n=58 v=0
216479 On ch=5 n=46 v=0
216480 On ch=5 n=46 v=48
216480 On ch=5 n=58 v=48
216599 On ch=5 n=58 v=0
216599 On ch=5 n=46 v=0
216600 On ch=5 n=46 v=48
216600 On ch=5 n=58 v=48
216719 On ch=5 n=58 v=0
216719 On ch=5 n=46 v=0
216720 On ch=5 n=46 v=48
216720 On ch=5 n=58 v=48
217559 On ch=5 n=58 v=0
217559 On ch=5 n=46 v=0
217560 On ch=5 n=55 v=48
217560 On ch=5 n=67 v=48
217739 On ch=5 n=67 v=0
217739 On ch=5 n=55 v=0
217740 On ch=5 n=63 v=48
217740 On ch=5 n=51 v=48
217799 On ch=5 n=51 v=0
217799 On ch=5 n=63 v=0
217800 On ch=5 n=46 v=48
217800 On ch=5 n=58 v=48
217919 On ch=5 n=58 v=0
217919 On ch=5 n=46 v=0
217920 On ch=5 n=58 v=48
217920 On ch=5 n=46 v=48
218039 On ch=5 n=46 v=0
218039 On ch=5 n=58 v=0
218040 On ch=5 n=58 v=48
218040 On ch=5 n=46 v=48
218159 On ch=5 n=46 v=0
218159 On ch=5 n=58 v=0
218160 On ch=5 n=58 v=48
218160 On ch=5 n=46 v=48
218999 On ch=5 n=46 v=0
218999 On ch=5 n=58 v=0
219000 On ch=5 n=46 v=127
219000 On ch=5 n=58 v=127
219179 On ch=5 n=58 v=0
219179 On ch=5 n=46 v=0
219180 On ch=5 n=46 v=127
219180 On ch=5 n=58 v=127
219239 On ch=5 n=58 v=0
219239 On ch=5 n=46 v=0
219240 On ch=5 n=46 v=127
219240 On ch=5 n=58 v=127
219359 On ch=5 n=58 v=0
219359 On ch=5 n=46 v=0
219360 On ch=5 n=46 v=127
219360 On ch=5 n=58 v=127
219479 On ch=5 n=58 v=0
219479 On ch=5 n=46 v=0
219480 On ch=5 n=46 v=127
219480 On ch=5 n=58 v=127
219599 On ch=5 n=58 v=0
219599 On ch=5 n=46 v=0
219600 On ch=5 n=51 v=48
219600 On ch=5 n=63 v=48
220440 On ch=5 n=70 v=48
220440 On ch=5 n=58 v=48
220449 On ch=5 n=63 v=0
220449 On ch=5 n=51 v=0
220559 On ch=5 n=70 v=0
220559 On ch=5 n=58 v=0
220560 On ch=5 n=58 v=48
220560 On ch=5 n=70 v=48
220649 On ch=5 n=70 v=0
220649 On ch=5 n=58 v=0
220680 On ch=5 n=58 v=48
220680 On ch=5 n=70 v=48
220769 On ch=5 n=70 v=0
220769 On ch=5 n=58 v=0
220800 On ch=5 n=58 v=48
220800 On ch=5 n=70 v=48
220889 On ch=5 n=70 v=0
220889 On ch=5 n=58 v=0
220920 On ch=5 n=58 v=48
220920 On ch=5 n=70 v=48
221009 On ch=5 n=70 v=0
221009 On ch=5 n=58 v=0
221040 On ch=5 n=58 v=48
221040 On ch=5 n=70 v=48
221159 On ch=5 n=70 v=0
221159 On ch=5 n=58 v=0
222480 On ch=5 n=65 v=96
222480 On ch=5 n=68 v=96
222539 On ch=5 n=68 v=0
222539 On ch=5 n=65 v=0
222600 On ch=5 n=65 v=96
222600 On ch=5 n=68 v=96
222659 On ch=5 n=68 v=0
222659 On ch=5 n=65 v=0
223140 On ch=5 n=68 v=96
223140 On ch=5 n=65 v=96
223199 On ch=5 n=65 v=0
223199 On ch=5 n=68 v=0
223200 On ch=5 n=51 v=96
223200 On ch=5 n=63 v=96
223200 On ch=5 n=67 v=96
223259 On ch=5 n=67 v=0
223259 On ch=5 n=63 v=0
223259 On ch=5 n=51 v=0
223320 On ch=5 n=67 v=96
223320 On ch=5 n=63 v=96
223320 On ch=5 n=51 v=96
223379 On ch=5 n=51 v=0
223379 On ch=5 n=63 v=0
223379 On ch=5 n=67 v=0
223860 On ch=5 n=51 v=96
223860 On ch=5 n=63 v=96
223860 On ch=5 n=67 v=96
223919 On ch=5 n=67 v=0
223919 On ch=5 n=63 v=0
223919 On ch=5 n=51 v=0
223920 On ch=5 n=67 v=96
223920 On ch=5 n=58 v=96
223920 On ch=5 n=46 v=96
223979 On ch=5 n=46 v=0
223979 On ch=5 n=58 v=0
223979 On ch=5 n=67 v=0
224040 On ch=5 n=46 v=96
224040 On ch=5 n=58 v=96
224040 On ch=5 n=67 v=96
224099 On ch=5 n=67 v=0
224099 On ch=5 n=58 v=0
224099 On ch=5 n=46 v=0
224580 On ch=5 n=67 v=96
224580 On ch=5 n=55 v=96
224639 On ch=5 n=55 v=0
224639 On ch=5 n=67 v=0
224640 On ch=5 n=65 v=96
224640 On ch=5 n=68 v=96
224759 On ch=5 n=68 v=0
224759 On ch=5 n=65 v=0
225480 On ch=5 n=51 v=96
225480 On ch=5 n=63 v=96
225599 On ch=5 n=63 v=0
225599 On ch=5 n=51 v=0
225600 On ch=5 n=63 v=96
225600 On ch=5 n=51 v=96
225719 On ch=5 n=51 v=0
225719 On ch=5 n=63 v=0
225720 On ch=5 n=51 v=96
225720 On ch=5 n=63 v=96
225839 On ch=5 n=63 v=0
225839 On ch=5 n=51 v=0
225840 On ch=5 n=63 v=96
225840 On ch=5 n=51 v=96
225959 On ch=5 n=51 v=0
225959 On ch=5 n=63 v=0
225960 On ch=5 n=51 v=96
225960 On ch=5 n=63 v=96
226079 On ch=5 n=63 v=0
226079 On ch=5 n=51 v=0
226080 On ch=5 n=63 v=96
226080 On ch=5 n=51 v=96
226199 On ch=5 n=51 v=0
226199 On ch=5 n=63 v=0
227280 On ch=5 n=63 v=96
227280 On ch=5 n=55 v=96
227399 On ch=5 n=55 v=0
227399 On ch=5 n=63 v=0
227400 On ch=5 n=55 v=96
227400 On ch=5 n=63 v=96
227519 On ch=5 n=63 v=0
227519 On ch=5 n=55 v=0
227520 On ch=5 n=46 v=112
227520 On ch=5 n=58 v=112
228239 On ch=5 n=58 v=0
228239 On ch=5 n=46 v=0
228240 On ch=5 n=58 v=127
228240 On ch=5 n=46 v=127
228299 On ch=5 n=46 v=0
228299 On ch=5 n=58 v=0
228300 On ch=5 n=58 v=127
228300 On ch=5 n=46 v=127
228359 On ch=5 n=46 v=0
228359 On ch=5 n=58 v=0
228360 On ch=5 n=58 v=127
228360 On ch=5 n=46 v=127
228419 On ch=5 n=46 v=0
228419 On ch=5 n=58 v=0
228420 On ch=5 n=58 v=127
228420 On ch=5 n=46 v=127
228479 On ch=5 n=46 v=0
228479 On ch=5 n=58 v=0
228480 On ch=5 n=58 v=127
228480 On ch=5 n=46 v=127
228539 On ch=5 n=46 v=0
228539 On ch=5 n=58 v=0
228540 On ch=5 n=58 v=127
228540 On ch=5 n=46 v=127
228599 On ch=5 n=46 v=0
228599 On ch=5 n=58 v=0
228600 On ch=5 n=58 v=127
228600 On ch=5 n=46 v=127
228659 On ch=5 n=46 v=0
228659 On ch=5 n=58 v=0
228660 On ch=5 n=58 v=127
228660 On ch=5 n=46 v=127
228719 On ch=5 n=46 v=0
228719 On ch=5 n=58 v=0
228720 On ch=5 n=58 v=127
228720 On ch=5 n=46 v=127
228779 On ch=5 n=46 v=0
228779 On ch=5 n=58 v=0
228780 On ch=5 n=58 v=127
228780 On ch=5 n=46 v=127
228839 On ch=5 n=46 v=0
228839 On ch=5 n=58 v=0
228840 On ch=5 n=58 v=127
228840 On ch=5 n=46 v=127
228899 On ch=5 n=46 v=0
228899 On ch=5 n=58 v=0
228900 On ch=5 n=58 v=127
228900 On ch=5 n=46 v=127
228959 On ch=5 n=46 v=0
228959 On ch=5 n=58 v=0
228960 On ch=5 n=63 v=127
228960 On ch=5 n=51 v=127
229079 On ch=5 n=51 v=0
229079 On ch=5 n=63 v=0
232680 On ch=5 n=68 v=48
232769 On ch=5 n=68 v=0
232800 On ch=5 n=68 v=64
232889 On ch=5 n=68 v=0
232920 On ch=5 n=68 v=96
233279 On ch=5 n=68 v=0
234600 On ch=5 n=65 v=48
234719 On ch=5 n=65 v=0
234720 On ch=5 n=58 v=48
234720 On ch=5 n=65 v=48
234839 On ch=5 n=65 v=0
234839 On ch=5 n=58 v=0
236160 On ch=5 n=46 v=32
236160 On ch=5 n=58 v=32
237659 On ch=5 n=58 v=0
237659 On ch=5 n=46 v=0
237660 On ch=5 n=70 v=67
237660 On ch=5 n=46 v=67
237719 On ch=5 n=46 v=0
237719 On ch=5 n=70 v=0
237720 On ch=5 n=70 v=72
237720 On ch=5 n=46 v=72
237779 On ch=5 n=46 v=0
237779 On ch=5 n=70 v=0
237780 On ch=5 n=70 v=75
237780 On ch=5 n=46 v=75
237839 On ch=5 n=46 v=0
237839 On ch=5 n=70 v=0
237840 On ch=5 n=70 v=78
237840 On ch=5 n=46 v=78
237899 On ch=5 n=46 v=0
237899 On ch=5 n=70 v=0
237900 On ch=5 n=70 v=80
237900 On ch=5 n=46 v=80
237959 On ch=5 n=46 v=0
237959 On ch=5 n=70 v=0
237960 On ch=5 n=70 v=82
237960 On ch=5 n=46 v=82
238019 On ch=5 n=46 v=0
238019 On ch=5 n=70 v=0
238020 On ch=5 n=70 v=84
238020 On ch=5 n=46 v=84
238079 On ch=5 n=46 v=0
238079 On ch=5 n=70 v=0
238080 On ch=5 n=70 v=87
238080 On ch=5 n=46 v=87
238139 On ch=5 n=46 v=0
238139 On ch=5 n=70 v=0
238140 On ch=5 n=70 v=89
238140 On ch=5 n=46 v=89
238199 On ch=5 n=46 v=0
238199 On ch=5 n=70 v=0
238200 On ch=5 n=70 v=92
238200 On ch=5 n=46 v=92
238259 On ch=5 n=46 v=0
238259 On ch=5 n=70 v=0
238260 On ch=5 n=70 v=94
238260 On ch=5 n=46 v=94
238319 On ch=5 n=46 v=0
238319 On ch=5 n=70 v=0
238320 On ch=5 n=58 v=96
238320 On ch=5 n=46 v=96
238439 On ch=5 n=46 v=0
238439 On ch=5 n=58 v=0
238440 On ch=5 n=67 v=112
238440 On ch=5 n=46 v=112
238440 On ch=5 n=70 v=112
238679 On ch=5 n=70 v=0
238679 On ch=5 n=46 v=0
238679 On ch=5 n=67 v=0
238800 On ch=5 n=46 v=112
238800 On ch=5 n=70 v=112
238800 On ch=5 n=67 v=112
239039 On ch=5 n=67 v=0
239039 On ch=5 n=70 v=0
239039 On ch=5 n=46 v=0
239160 On ch=5 n=72 v=112
239160 On ch=5 n=68 v=112
239160 On ch=5 n=46 v=112
239399 On ch=5 n=46 v=0
239399 On ch=5 n=68 v=0
239399 On ch=5 n=72 v=0
239520 On ch=5 n=46 v=112
239520 On ch=5 n=58 v=112
239520 On ch=5 n=65 v=112
239639 On ch=5 n=65 v=0
239639 On ch=5 n=58 v=0
239639 On ch=5 n=46 v=0
239640 On ch=5 n=46 v=96
239640 On ch=5 n=58 v=96
239640 On ch=5 n=65 v=96
239759 On ch=5 n=65 v=0
239759 On ch=5 n=58 v=0
239759 On ch=5 n=46 v=0
239760 On ch=5 n=63 v=127
239760 On ch=5 n=51 v=127
239819 On ch=5 n=51 v=0
239819 On ch=5 n=63 v=0
239880 On ch=5 n=58 v=127
239880 On ch=5 n=70 v=127
240059 On ch=5 n=70 v=0
240059 On ch=5 n=58 v=0
240060 On ch=5 n=55 v=127
240060 On ch=5 n=70 v=127
240060 On ch=5 n=67 v=127
240119 On ch=5 n=67 v=0
240119 On ch=5 n=70 v=0
240119 On ch=5 n=55 v=0
240120 On ch=5 n=70 v=127
240120 On ch=5 n=51 v=127
240120 On ch=5 n=63 v=127
240179 On ch=5 n=63 v=0
240179 On ch=5 n=51 v=0
240179 On ch=5 n=70 v=0
240240 On ch=5 n=55 v=127
240240 On ch=5 n=70 v=127
240240 On ch=5 n=67 v=127
240419 On ch=5 n=67 v=0
240419 On ch=5 n=70 v=0
240419 On ch=5 n=55 v=0
240420 On ch=5 n=70 v=127
240420 On ch=5 n=46 v=127
240420 On ch=5 n=58 v=127
240479 On ch=5 n=58 v=0
240479 On ch=5 n=46 v=0
240479 On ch=5 n=70 v=0
240480 On ch=5 n=46 v=127
240480 On ch=5 n=65 v=127
240539 On ch=5 n=65 v=0
240539 On ch=5 n=46 v=0
240600 On ch=5 n=46 v=127
240600 On ch=5 n=68 v=127
240779 On ch=5 n=68 v=0
240779 On ch=5 n=46 v=0
240780 On ch=5 n=46 v=127
240780 On ch=5 n=58 v=127
240839 On ch=5 n=58 v=0
240839 On ch=5 n=46 v=0
240840 On ch=5 n=46 v=127
240840 On ch=5 n=65 v=127
240899 On ch=5 n=65 v=0
240899 On ch=5 n=46 v=0
240960 On ch=5 n=46 v=127
240960 On ch=5 n=65 v=127
241139 On ch=5 n=65 v=0
241139 On ch=5 n=46 v=0
241140 On ch=5 n=46 v=127
241140 On ch=5 n=58 v=127
241199 On ch=5 n=58 v=0
241199 On ch=5 n=46 v=0
241200 On ch=5 n=51 v=127
241200 On ch=5 n=63 v=127
241679 On ch=5 n=63 v=0
241679 On ch=5 n=51 v=0
242880 On ch=5 n=63 v=127
242880 On ch=5 n=67 v=127
242880 On ch=5 n=55 v=127
242939 On ch=5 n=55 v=0
242939 On ch=5 n=67 v=0
242939 On ch=5 n=63 v=0
242940 On ch=5 n=65 v=127
242940 On ch=5 n=67 v=127
242940 On ch=5 n=55 v=127
242999 On ch=5 n=55 v=0
242999 On ch=5 n=67 v=0
242999 On ch=5 n=65 v=0
243000 On ch=5 n=63 v=127
243000 On ch=5 n=67 v=127
243000 On ch=5 n=55 v=127
243059 On ch=5 n=55 v=0
243059 On ch=5 n=67 v=0
243059 On ch=5 n=63 v=0
243060 On ch=5 n=67 v=127
243060 On ch=5 n=55 v=127
243119 On ch=5 n=55 v=0
243119 On ch=5 n=67 v=0
243120 On ch=5 n=67 v=127
243120 On ch=5 n=55 v=127
243179 On ch=5 n=55 v=0
243179 On ch=5 n=67 v=0
243180 On ch=5 n=67 v=127
243180 On ch=5 n=55 v=127
243239 On ch=5 n=55 v=0
243239 On ch=5 n=67 v=0
243240 On ch=5 n=67 v=127
243240 On ch=5 n=55 v=127
243299 On ch=5 n=55 v=0
243299 On ch=5 n=67 v=0
243300 On ch=5 n=67 v=127
243300 On ch=5 n=55 v=127
243359 On ch=5 n=55 v=0
243359 On ch=5 n=67 v=0
243360 On ch=5 n=67 v=127
243360 On ch=5 n=55 v=127
243419 On ch=5 n=55 v=0
243419 On ch=5 n=67 v=0
243480 On ch=5 n=67 v=127
243480 On ch=5 n=55 v=127
243539 On ch=5 n=55 v=0
243539 On ch=5 n=67 v=0
243600 On ch=5 n=55 v=127
243600 On ch=5 n=67 v=127
243659 On ch=5 n=67 v=0
243659 On ch=5 n=55 v=0
243840 On ch=5 n=61 v=127
243840 On ch=5 n=63 v=127
243840 On ch=5 n=51 v=127
243899 On ch=5 n=51 v=0
243899 On ch=5 n=63 v=0
243899 On ch=5 n=61 v=0
243960 On ch=5 n=60 v=127
243960 On ch=5 n=51 v=127
243960 On ch=5 n=63 v=127
244019 On ch=5 n=63 v=0
244019 On ch=5 n=51 v=0
244019 On ch=5 n=60 v=0
244200 On ch=5 n=63 v=127
244200 On ch=5 n=51 v=127
244259 On ch=5 n=51 v=0
244259 On ch=5 n=63 v=0
244320 On ch=5 n=58 v=127
244320 On ch=5 n=63 v=127
244320 On ch=5 n=46 v=127
244379 On ch=5 n=46 v=0
244379 On ch=5 n=63 v=0
244379 On ch=5 n=58 v=0
244560 On ch=5 n=67 v=127
244560 On ch=5 n=65 v=127
244560 On ch=5 n=55 v=127
244619 On ch=5 n=55 v=0
244619 On ch=5 n=65 v=0
244619 On ch=5 n=67 v=0
244680 On ch=5 n=55 v=127
244680 On ch=5 n=63 v=127
244680 On ch=5 n=67 v=127
244739 On ch=5 n=67 v=0
244739 On ch=5 n=63 v=0
244739 On ch=5 n=55 v=0
244920 On ch=5 n=63 v=127
244920 On ch=5 n=61 v=127
244920 On ch=5 n=51 v=127
244979 On ch=5 n=51 v=0
244979 On ch=5 n=61 v=0
244979 On ch=5 n=63 v=0
245040 On ch=5 n=51 v=127
245040 On ch=5 n=60 v=127
245040 On ch=5 n=63 v=127
245099 On ch=5 n=63 v=0
245099 On ch=5 n=60 v=0
245099 On ch=5 n=51 v=0
245280 On ch=5 n=63 v=127
245280 On ch=5 n=51 v=127
245339 On ch=5 n=51 v=0
245339 On ch=5 n=63 v=0
245520 On ch=5 n=51 v=127
245520 On ch=5 n=63 v=127
245579 On ch=5 n=63 v=0
245579 On ch=5 n=51 v=0
245760 On ch=5 n=63 v=127
245760 On ch=5 n=51 v=127
245819 On ch=5 n=51 v=0
245819 On ch=5 n=63 v=0
246000 On ch=5 n=51 v=127
246000 On ch=5 n=63 v=127
246059 On ch=5 n=63 v=0
246059 On ch=5 n=51 v=0
246240 On ch=5 n=63 v=127
246240 On ch=5 n=51 v=127
246299 On ch=5 n=51 v=0
246299 On ch=5 n=63 v=0
246480 On ch=5 n=51 v=127
246480 On ch=5 n=63 v=127
246539 On ch=5 n=63 v=0
246539 On ch=5 n=51 v=0
246600 On ch=5 n=51 v=48
246600 On ch=5 n=63 v=48
246720 On ch=5 n=67 v=48
246720 On ch=5 n=55 v=48
246729 On ch=5 n=63 v=0
246729 On ch=5 n=51 v=0
246840 On ch=5 n=58 v=48
246840 On ch=5 n=70 v=48
246849 On ch=5 n=67 v=0
246849 On ch=5 n=55 v=0
246959 On ch=5 n=58 v=0
246959 On ch=5 n=70 v=0
246960 On ch=5 n=51 v=96
246960 On ch=5 n=63 v=96
246989 On ch=5 n=63 v=0
246989 On ch=5 n=51 v=0
246990 On ch=5 n=63 v=48
246990 On ch=5 n=51 v=48
247440 On ch=5 n=67 v=48
247440 On ch=5 n=55 v=48
247449 On ch=5 n=51 v=0
247449 On ch=5 n=63 v=0
247560 On ch=5 n=58 v=48
247560 On ch=5 n=70 v=48
247569 On ch=5 n=67 v=0
247569 On ch=5 n=55 v=0
247679 On ch=5 n=58 v=0
247679 On ch=5 n=70 v=0
247680 On ch=5 n=63 v=96
247680 On ch=5 n=51 v=96
247709 On ch=5 n=51 v=0
247709 On ch=5 n=63 v=0
247710 On ch=5 n=51 v=48
247710 On ch=5 n=63 v=48
248159 On ch=5 n=63 v=0
248159 On ch=5 n=51 v=0
248160 On ch=5 n=63 v=48
248279 On ch=5 n=63 v=0
248520 On ch=5 n=65 v=48
248579 On ch=5 n=65 v=0
248760 On ch=5 n=58 v=48
248760 On ch=5 n=65 v=48
248819 On ch=5 n=65 v=0
248819 On ch=5 n=58 v=0
249000 On ch=5 n=65 v=48
249000 On ch=5 n=58 v=48
249059 On ch=5 n=58 v=0
249059 On ch=5 n=65 v=0
249240 On ch=5 n=63 v=48
249240 On ch=5 n=67 v=48
249299 On ch=5 n=67 v=0
249299 On ch=5 n=63 v=0
250260 On ch=5 n=67 v=112
250260 On ch=5 n=58 v=112
250260 On ch=5 n=70 v=112
250319 On ch=5 n=70 v=0
250319 On ch=5 n=58 v=0
250319 On ch=5 n=67 v=0
250320 On ch=5 n=67 v=117
250320 On ch=5 n=58 v=117
250320 On ch=5 n=70 v=117
250379 On ch=5 n=70 v=0
250379 On ch=5 n=58 v=0
250379 On ch=5 n=67 v=0
250380 On ch=5 n=67 v=122
250380 On ch=5 n=58 v=122
250380 On ch=5 n=70 v=122
250439 On ch=5 n=70 v=0
250439 On ch=5 n=58 v=0
250439 On ch=5 n=67 v=0
250440 On ch=5 n=55 v=124
250440 On ch=5 n=67 v=124
250499 On ch=5 n=67 v=0
250499 On ch=5 n=55 v=0
250500 On ch=5 n=67 v=126
250500 On ch=5 n=51 v=126
250500 On ch=5 n=63 v=126
250559 On ch=5 n=63 v=0
250559 On ch=5 n=51 v=0
250559 On ch=5 n=67 v=0
250560 On ch=5 n=46 v=127
250560 On ch=5 n=68 v=127
250560 On ch=5 n=65 v=127
250919 On ch=5 n=65 v=0
250919 On ch=5 n=68 v=0
250919 On ch=5 n=46 v=0
250920 On ch=5 n=67 v=96
250920 On ch=5 n=63 v=96
250920 On ch=5 n=51 v=96
251039 On ch=5 n=51 v=0
251039 On ch=5 n=63 v=0
251039 On ch=5 n=67 v=0
251280 On ch=5 n=51 v=96
251280 On ch=5 n=63 v=96
251399 On ch=5 n=63 v=0
251399 On ch=5 n=51 v=0
251640 On ch=5 n=63 v=96
251640 On ch=5 n=51 v=96
251759 On ch=5 n=51 v=0
251759 On ch=5 n=63 v=0
252000 On ch=5 n=51 v=96
252000 On ch=5 n=63 v=96
252059 On ch=5 n=63 v=0
252059 On ch=5 n=51 v=0
252120 On ch=5 n=63 v=96
252120 On ch=5 n=51 v=96
252179 On ch=5 n=51 v=0
252179 On ch=5 n=63 v=0
252240 On ch=5 n=51 v=96
252240 On ch=5 n=63 v=96
252299 On ch=5 n=63 v=0
252299 On ch=5 n=51 v=0
252360 On ch=5 n=63 v=96
252360 On ch=5 n=51 v=96
252479 On ch=5 n=51 v=0
252479 On ch=5 n=63 v=0
253620 On ch=5 n=51 v=48
253680 On ch=5 n=55 v=48
253689 On ch=5 n=51 v=0
253740 On ch=5 n=58 v=48
253749 On ch=5 n=55 v=0
253800 On ch=5 n=63 v=48
253809 On ch=5 n=58 v=0
253919 On ch=5 n=63 v=0
254520 On ch=5 n=68 v=96
254520 On ch=5 n=65 v=96
255239 On ch=5 n=65 v=0
255239 On ch=5 n=68 v=0
255960 On ch=5 n=67 v=127
255960 On ch=5 n=55 v=127
256019 On ch=5 n=55 v=0
256019 On ch=5 n=67 v=0
256020 On ch=5 n=67 v=127
256020 On ch=5 n=55 v=127
256079 On ch=5 n=55 v=0
256079 On ch=5 n=67 v=0
256080 On ch=5 n=67 v=127
256080 On ch=5 n=55 v=127
256139 On ch=5 n=55 v=0
256139 On ch=5 n=67 v=0
256140 On ch=5 n=67 v=127
256140 On ch=5 n=55 v=127
256199 On ch=5 n=55 v=0
256199 On ch=5 n=67 v=0
256200 On ch=5 n=67 v=127
256200 On ch=5 n=55 v=127
256259 On ch=5 n=55 v=0
256259 On ch=5 n=67 v=0
256260 On ch=5 n=67 v=127
256260 On ch=5 n=55 v=127
256319 On ch=5 n=55 v=0
256319 On ch=5 n=67 v=0
256320 On ch=5 n=67 v=127
256320 On ch=5 n=55 v=127
256379 On ch=5 n=55 v=0
256379 On ch=5 n=67 v=0
256380 On ch=5 n=67 v=127
256380 On ch=5 n=55 v=127
256439 On ch=5 n=55 v=0
256439 On ch=5 n=67 v=0
256440 On ch=5 n=67 v=127
256440 On ch=5 n=55 v=127
256499 On ch=5 n=55 v=0
256499 On ch=5 n=67 v=0
256500 On ch=5 n=67 v=127
256500 On ch=5 n=55 v=127
256559 On ch=5 n=55 v=0
256559 On ch=5 n=67 v=0
256560 On ch=5 n=67 v=127
256560 On ch=5 n=55 v=127
256619 On ch=5 n=55 v=0
256619 On ch=5 n=67 v=0
256620 On ch=5 n=67 v=127
256620 On ch=5 n=55 v=127
256679 On ch=5 n=55 v=0
256679 On ch=5 n=67 v=0
256680 On ch=5 n=55 v=48
256680 On ch=5 n=67 v=48
256799 On ch=5 n=67 v=0
256799 On ch=5 n=55 v=0
258840 On ch=5 n=55 v=32
258840 On ch=5 n=67 v=32
260399 On ch=5 n=67 v=0
260399 On ch=5 n=55 v=0
265320 On ch=5 n=46 v=32
265320 On ch=5 n=58 v=32
266039 On ch=5 n=58 v=0
266039 On ch=5 n=46 v=0
266040 On ch=5 n=58 v=48
266040 On ch=5 n=46 v=48
266099 On ch=5 n=46 v=0
266099 On ch=5 n=58 v=0
266100 On ch=5 n=58 v=48
266100 On ch=5 n=46 v=48
266159 On ch=5 n=46 v=0
266159 On ch=5 n=58 v=0
266160 On ch=5 n=63 v=48
266160 On ch=5 n=58 v=48
266160 On ch=5 n=46 v=48
266219 On ch=5 n=46 v=0
266219 On ch=5 n=58 v=0
266220 On ch=5 n=58 v=48
266220 On ch=5 n=46 v=48
266279 On ch=5 n=46 v=0
266279 On ch=5 n=58 v=0
266280 On ch=5 n=65 v=48
266280 On ch=5 n=58 v=48
266280 On ch=5 n=46 v=48
266289 On ch=5 n=63 v=0
266339 On ch=5 n=46 v=0
266339 On ch=5 n=58 v=0
266340 On ch=5 n=58 v=48
266340 On ch=5 n=46 v=48
266399 On ch=5 n=46 v=0
266399 On ch=5 n=58 v=0
266400 On ch=5 n=66 v=48
266400 On ch=5 n=58 v=48
266400 On ch=5 n=46 v=48
266409 On ch=5 n=65 v=0
266459 On ch=5 n=46 v=0
266459 On ch=5 n=58 v=0
266460 On ch=5 n=58 v=48
266460 On ch=5 n=46 v=48
266519 On ch=5 n=46 v=0
266519 On ch=5 n=58 v=0
266520 On ch=5 n=58 v=48
266520 On ch=5 n=46 v=48
266579 On ch=5 n=46 v=0
266579 On ch=5 n=58 v=0
266580 On ch=5 n=65 v=48
266580 On ch=5 n=58 v=48
266580 On ch=5 n=46 v=48
266589 On ch=5 n=66 v=0
266639 On ch=5 n=46 v=0
266639 On ch=5 n=58 v=0
266640 On ch=5 n=63 v=48
266640 On ch=5 n=58 v=48
266640 On ch=5 n=46 v=48
266649 On ch=5 n=65 v=0
266699 On ch=5 n=46 v=0
266699 On ch=5 n=58 v=0
266700 On ch=5 n=58 v=48
266700 On ch=5 n=46 v=48
266759 On ch=5 n=46 v=0
266759 On ch=5 n=58 v=0
266759 On ch=5 n=63 v=0
266760 On ch=5 n=62 v=48
266760 On ch=5 n=58 v=48
266760 On ch=5 n=46 v=48
266819 On ch=5 n=46 v=0
266819 On ch=5 n=58 v=0
266820 On ch=5 n=58 v=48
266820 On ch=5 n=46 v=48
266879 On ch=5 n=46 v=0
266879 On ch=5 n=58 v=0
266880 On ch=5 n=61 v=48
266880 On ch=5 n=58 v=48
266880 On ch=5 n=46 v=48
266889 On ch=5 n=62 v=0
266939 On ch=5 n=46 v=0
266939 On ch=5 n=58 v=0
266940 On ch=5 n=58 v=48
266940 On ch=5 n=46 v=48
266999 On ch=5 n=46 v=0
266999 On ch=5 n=58 v=0
267000 On ch=5 n=60 v=48
267000 On ch=5 n=58 v=48
267000 On ch=5 n=46 v=48
267009 On ch=5 n=61 v=0
267059 On ch=5 n=46 v=0
267059 On ch=5 n=58 v=0
267060 On ch=5 n=58 v=48
267060 On ch=5 n=46 v=48
267119 On ch=5 n=46 v=0
267119 On ch=5 n=58 v=0
267120 On ch=5 n=58 v=48
267120 On ch=5 n=46 v=48
267129 On ch=5 n=60 v=0
267179 On ch=5 n=46 v=0
267179 On ch=5 n=58 v=0
267180 On ch=5 n=58 v=48
267180 On ch=5 n=46 v=48
267239 On ch=5 n=46 v=0
267239 On ch=5 n=58 v=0
267240 On ch=5 n=58 v=48
267240 On ch=5 n=46 v=48
267299 On ch=5 n=46 v=0
267299 On ch=5 n=58 v=0
267300 On ch=5 n=58 v=48
267300 On ch=5 n=46 v=48
267359 On ch=5 n=46 v=0
267359 On ch=5 n=58 v=0
267360 On ch=5 n=60 v=48
267360 On ch=5 n=58 v=48
267360 On ch=5 n=46 v=48
267419 On ch=5 n=46 v=0
267419 On ch=5 n=58 v=0
267420 On ch=5 n=62 v=48
267420 On ch=5 n=58 v=48
267420 On ch=5 n=46 v=48
267429 On ch=5 n=60 v=0
267479 On ch=5 n=46 v=0
267479 On ch=5 n=58 v=0
267480 On ch=5 n=63 v=48
267480 On ch=5 n=58 v=48
267480 On ch=5 n=46 v=48
267489 On ch=5 n=62 v=0
267539 On ch=5 n=46 v=0
267539 On ch=5 n=58 v=0
267540 On ch=5 n=58 v=48
267540 On ch=5 n=46 v=48
267599 On ch=5 n=46 v=0
267599 On ch=5 n=58 v=0
267599 On ch=5 n=63 v=0
267600 On ch=5 n=63 v=48
267600 On ch=5 n=58 v=48
267600 On ch=5 n=46 v=48
267659 On ch=5 n=46 v=0
267659 On ch=5 n=58 v=0
267660 On ch=5 n=58 v=48
267660 On ch=5 n=46 v=48
267719 On ch=5 n=46 v=0
267719 On ch=5 n=58 v=0
267720 On ch=5 n=65 v=48
267720 On ch=5 n=58 v=48
267720 On ch=5 n=46 v=48
267729 On ch=5 n=63 v=0
267779 On ch=5 n=46 v=0
267779 On ch=5 n=58 v=0
267780 On ch=5 n=58 v=48
267780 On ch=5 n=46 v=48
267839 On ch=5 n=46 v=0
267839 On ch=5 n=58 v=0
267840 On ch=5 n=66 v=48
267840 On ch=5 n=58 v=48
267840 On ch=5 n=46 v=48
267849 On ch=5 n=65 v=0
267899 On ch=5 n=46 v=0
267899 On ch=5 n=58 v=0
267900 On ch=5 n=58 v=48
267900 On ch=5 n=46 v=48
267959 On ch=5 n=46 v=0
267959 On ch=5 n=58 v=0
267960 On ch=5 n=58 v=48
267960 On ch=5 n=46 v=48
268019 On ch=5 n=46 v=0
268019 On ch=5 n=58 v=0
268020 On ch=5 n=65 v=48
268020 On ch=5 n=58 v=48
268020 On ch=5 n=46 v=48
268029 On ch=5 n=66 v=0
268079 On ch=5 n=46 v=0
268079 On ch=5 n=58 v=0
268080 On ch=5 n=63 v=48
268080 On ch=5 n=58 v=48
268080 On ch=5 n=46 v=48
268089 On ch=5 n=65 v=0
268139 On ch=5 n=46 v=0
268139 On ch=5 n=58 v=0
268140 On ch=5 n=58 v=48
268140 On ch=5 n=46 v=48
268199 On ch=5 n=46 v=0
268199 On ch=5 n=58 v=0
268199 On ch=5 n=63 v=0
268200 On ch=5 n=62 v=48
268200 On ch=5 n=46 v=48
268200 On ch=5 n=58 v=48
268319 On ch=5 n=58 v=0
268319 On ch=5 n=46 v=0
268319 On ch=5 n=62 v=0
271800 On ch=5 n=58 v=32
271800 On ch=5 n=46 v=32
272639 On ch=5 n=46 v=0
272639 On ch=5 n=58 v=0
273240 On ch=5 n=46 v=32
273240 On ch=5 n=58 v=32
274439 On ch=5 n=58 v=0
274439 On ch=5 n=46 v=0
274440 On ch=5 n=58 v=32
274440 On ch=5 n=46 v=32
274559 On ch=5 n=46 v=0
274559 On ch=5 n=58 v=0
274560 On ch=5 n=58 v=32
274560 On ch=5 n=46 v=32
274679 On ch=5 n=46 v=0
274679 On ch=5 n=58 v=0
274680 On ch=5 n=58 v=32
274680 On ch=5 n=46 v=32
275159 On ch=5 n=46 v=0
275159 On ch=5 n=58 v=0
275160 On ch=5 n=58 v=32
275160 On ch=5 n=46 v=32
275279 On ch=5 n=46 v=0
275279 On ch=5 n=58 v=0
275280 On ch=5 n=58 v=32
275280 On ch=5 n=46 v=32
275399 On ch=5 n=46 v=0
275399 On ch=5 n=58 v=0
275400 On ch=5 n=63 v=32
275400 On ch=5 n=51 v=32
275519 On ch=5 n=51 v=0
275639 On ch=5 n=63 v=0
275640 On ch=5 n=66 v=35
275759 On ch=5 n=66 v=0
275760 On ch=5 n=63 v=36
275999 On ch=5 n=63 v=0
276000 On ch=5 n=51 v=39
276119 On ch=5 n=51 v=0
276120 On ch=5 n=63 v=41
276359 On ch=5 n=63 v=0
276360 On ch=5 n=66 v=43
276479 On ch=5 n=66 v=0
276480 On ch=5 n=63 v=45
276719 On ch=5 n=63 v=0
276720 On ch=5 n=51 v=47
276839 On ch=5 n=51 v=0
276840 On ch=5 n=65 v=48
277079 On ch=5 n=65 v=0
277080 On ch=5 n=68 v=56
277199 On ch=5 n=68 v=0
277200 On ch=5 n=65 v=60
277200 On ch=5 n=58 v=60
277439 On ch=5 n=58 v=0
277439 On ch=5 n=65 v=0
277440 On ch=5 n=46 v=68
277440 On ch=5 n=58 v=68
277559 On ch=5 n=58 v=0
277559 On ch=5 n=46 v=0
277560 On ch=5 n=65 v=68
277799 On ch=5 n=65 v=0
277800 On ch=5 n=68 v=60
277919 On ch=5 n=68 v=0
277920 On ch=5 n=65 v=56
277920 On ch=5 n=68 v=56
278159 On ch=5 n=68 v=0
278159 On ch=5 n=65 v=0
278160 On ch=5 n=65 v=48
278160 On ch=5 n=68 v=48
278279 On ch=5 n=68 v=0
278279 On ch=5 n=65 v=0
278280 On ch=5 n=63 v=48
278399 On ch=5 n=63 v=0
278400 On ch=5 n=67 v=48
278400 On ch=5 n=51 v=48
278400 On ch=5 n=63 v=48
278459 On ch=5 n=63 v=0
278459 On ch=5 n=51 v=0
278459 On ch=5 n=67 v=0
278640 On ch=5 n=51 v=48
278640 On ch=5 n=63 v=48
278640 On ch=5 n=67 v=48
278699 On ch=5 n=67 v=0
278699 On ch=5 n=63 v=0
278699 On ch=5 n=51 v=0
278880 On ch=5 n=67 v=48
278880 On ch=5 n=63 v=48
278880 On ch=5 n=51 v=48
278939 On ch=5 n=51 v=0
278939 On ch=5 n=63 v=0
278939 On ch=5 n=67 v=0
279120 On ch=5 n=51 v=48
279120 On ch=5 n=63 v=48
279120 On ch=5 n=65 v=48
279179 On ch=5 n=65 v=0
279179 On ch=5 n=63 v=0
279179 On ch=5 n=51 v=0
279360 On ch=5 n=65 v=48
279360 On ch=5 n=63 v=48
279360 On ch=5 n=51 v=48
279419 On ch=5 n=51 v=0
279419 On ch=5 n=63 v=0
279419 On ch=5 n=65 v=0
279600 On ch=5 n=51 v=48
279600 On ch=5 n=63 v=48
279600 On ch=5 n=65 v=48
279659 On ch=5 n=65 v=0
279659 On ch=5 n=63 v=0
279659 On ch=5 n=51 v=0
279720 On ch=5 n=67 v=48
279720 On ch=5 n=63 v=48
279720 On ch=5 n=51 v=48
279779 On ch=5 n=51 v=0
279779 On ch=5 n=63 v=0
279779 On ch=5 n=67 v=0
280080 On ch=5 n=55 v=54
280080 On ch=5 n=46 v=54
280080 On ch=5 n=63 v=54
280440 On ch=5 n=65 v=60
280440 On ch=5 n=58 v=60
280449 On ch=5 n=63 v=0
280449 On ch=5 n=55 v=0
280559 On ch=5 n=46 v=0
280559 On ch=5 n=65 v=0
280559 On ch=5 n=58 v=0
280560 On ch=5 n=65 v=62
280560 On ch=5 n=46 v=62
280560 On ch=5 n=58 v=62
280619 On ch=5 n=58 v=0
280619 On ch=5 n=46 v=0
280619 On ch=5 n=65 v=0
280680 On ch=5 n=65 v=64
280680 On ch=5 n=46 v=64
280680 On ch=5 n=58 v=64
280739 On ch=5 n=58 v=0
280739 On ch=5 n=46 v=0
280739 On ch=5 n=65 v=0
280800 On ch=5 n=46 v=48
280800 On ch=5 n=58 v=48
280859 On ch=5 n=58 v=0
280859 On ch=5 n=46 v=0
280920 On ch=5 n=58 v=48
280920 On ch=5 n=46 v=48
280979 On ch=5 n=46 v=0
280979 On ch=5 n=58 v=0
281040 On ch=5 n=46 v=48
281040 On ch=5 n=58 v=48
281099 On ch=5 n=46 v=0
281159 On ch=5 n=58 v=0
281160 On ch=5 n=63 v=48
281160 On ch=5 n=51 v=48
281160 On ch=5 n=58 v=48
281219 On ch=5 n=58 v=0
281219 On ch=5 n=51 v=0
281400 On ch=5 n=67 v=48
281409 On ch=5 n=63 v=0
281520 On ch=5 n=63 v=48
281529 On ch=5 n=67 v=0
281760 On ch=5 n=58 v=48
281769 On ch=5 n=63 v=0
281879 On ch=5 n=58 v=0
281880 On ch=5 n=63 v=48
282000 On ch=5 n=67 v=48
282009 On ch=5 n=63 v=0
282119 On ch=5 n=67 v=0
282120 On ch=5 n=70 v=48
282179 On ch=5 n=70 v=0
282240 On ch=5 n=58 v=48
282240 On ch=5 n=70 v=48
282360 On ch=5 n=63 v=48
282369 On ch=5 n=58 v=0
282479 On ch=5 n=63 v=0
282480 On ch=5 n=67 v=48
282539 On ch=5 n=67 v=0
282599 On ch=5 n=70 v=0
282600 On ch=5 n=65 v=48
282600 On ch=5 n=68 v=48
282719 On ch=5 n=68 v=0
282840 On ch=5 n=68 v=48
282849 On ch=5 n=65 v=0
282960 On ch=5 n=65 v=48
282969 On ch=5 n=68 v=0
283200 On ch=5 n=58 v=48
283209 On ch=5 n=65 v=0
283319 On ch=5 n=58 v=0
283320 On ch=5 n=65 v=48
283440 On ch=5 n=68 v=48
283449 On ch=5 n=65 v=0
283559 On ch=5 n=68 v=0
283560 On ch=5 n=70 v=48
283619 On ch=5 n=70 v=0
283680 On ch=5 n=58 v=48
283680 On ch=5 n=70 v=48
283800 On ch=5 n=65 v=48
283809 On ch=5 n=58 v=0
283919 On ch=5 n=65 v=0
283920 On ch=5 n=68 v=48
283979 On ch=5 n=68 v=0
284040 On ch=5 n=67 v=48
284519 On ch=5 n=67 v=0
284519 On ch=5 n=70 v=0
284520 On ch=5 n=55 v=48
284520 On ch=5 n=58 v=48
284520 On ch=5 n=63 v=48
284639 On ch=5 n=63 v=0
284639 On ch=5 n=58 v=0
284640 On ch=5 n=67 v=48
284640 On ch=5 n=58 v=48
284640 On ch=5 n=63 v=48
284649 On ch=5 n=55 v=0
284759 On ch=5 n=67 v=0
284759 On ch=5 n=58 v=0
284759 On ch=5 n=63 v=0
284760 On ch=5 n=55 v=48
284760 On ch=5 n=58 v=48
284760 On ch=5 n=63 v=48
284999 On ch=5 n=58 v=0
284999 On ch=5 n=55 v=0
285000 On ch=5 n=58 v=48
285000 On ch=5 n=55 v=48
285000 On ch=5 n=51 v=48
285009 On ch=5 n=63 v=0
285119 On ch=5 n=58 v=0
285119 On ch=5 n=55 v=0
285119 On ch=5 n=51 v=0
285120 On ch=5 n=55 v=48
285120 On ch=5 n=58 v=48
285120 On ch=5 n=63 v=48
285239 On ch=5 n=63 v=0
285239 On ch=5 n=58 v=0
285240 On ch=5 n=58 v=48
285240 On ch=5 n=63 v=48
285240 On ch=5 n=67 v=48
285249 On ch=5 n=55 v=0
285359 On ch=5 n=58 v=0
285359 On ch=5 n=63 v=0
285359 On ch=5 n=67 v=0
285360 On ch=5 n=67 v=48
285360 On ch=5 n=63 v=48
285360 On ch=5 n=70 v=48
285419 On ch=5 n=70 v=0
285419 On ch=5 n=63 v=0
285419 On ch=5 n=67 v=0
285480 On ch=5 n=68 v=48
285480 On ch=5 n=65 v=48
285480 On ch=5 n=70 v=48
285839 On ch=5 n=70 v=0
285839 On ch=5 n=65 v=0
285839 On ch=5 n=68 v=0
285840 On ch=5 n=65 v=48
285840 On ch=5 n=46 v=48
285840 On ch=5 n=58 v=48
286079 On ch=5 n=58 v=0
286079 On ch=5 n=65 v=0
286080 On ch=5 n=58 v=48
286080 On ch=5 n=68 v=48
286080 On ch=5 n=65 v=48
286089 On ch=5 n=46 v=0
286199 On ch=5 n=58 v=0
286199 On ch=5 n=68 v=0
286199 On ch=5 n=65 v=0
286200 On ch=5 n=65 v=48
286200 On ch=5 n=46 v=48
286200 On ch=5 n=58 v=48
286439 On ch=5 n=58 v=0
286439 On ch=5 n=46 v=0
286440 On ch=5 n=46 v=48
286440 On ch=5 n=58 v=48
286449 On ch=5 n=65 v=0
286559 On ch=5 n=58 v=0
286559 On ch=5 n=46 v=0
286560 On ch=5 n=65 v=48
286560 On ch=5 n=46 v=48
286560 On ch=5 n=58 v=48
286679 On ch=5 n=58 v=0
286679 On ch=5 n=65 v=0
286680 On ch=5 n=68 v=48
286680 On ch=5 n=58 v=48
286680 On ch=5 n=65 v=48
286689 On ch=5 n=46 v=0
286799 On ch=5 n=68 v=0
286799 On ch=5 n=58 v=0
286799 On ch=5 n=65 v=0
286800 On ch=5 n=65 v=48
286800 On ch=5 n=70 v=48
286800 On ch=5 n=68 v=48
286859 On ch=5 n=68 v=0
286859 On ch=5 n=70 v=0
286859 On ch=5 n=65 v=0
286920 On ch=5 n=67 v=48
286920 On ch=5 n=70 v=48
286920 On ch=5 n=63 v=48
287759 On ch=5 n=63 v=0
287759 On ch=5 n=70 v=0
287759 On ch=5 n=67 v=0
287760 On ch=5 n=70 v=62
287760 On ch=5 n=67 v=62
287760 On ch=5 n=63 v=62
287879 On ch=5 n=63 v=0
287879 On ch=5 n=67 v=0
287879 On ch=5 n=70 v=0
287880 On ch=5 n=63 v=64
287880 On ch=5 n=67 v=64
287880 On ch=5 n=70 v=64
287999 On ch=5 n=70 v=0
287999 On ch=5 n=67 v=0
287999 On ch=5 n=63 v=0
288000 On ch=5 n=70 v=66
288000 On ch=5 n=67 v=66
288000 On ch=5 n=63 v=66
288119 On ch=5 n=63 v=0
288119 On ch=5 n=67 v=0
288119 On ch=5 n=70 v=0
288120 On ch=5 n=70 v=68
288120 On ch=5 n=67 v=68
288120 On ch=5 n=63 v=68
288239 On ch=5 n=63 v=0
288239 On ch=5 n=67 v=0
288239 On ch=5 n=70 v=0
288240 On ch=5 n=70 v=70
288240 On ch=5 n=67 v=70
288240 On ch=5 n=63 v=70
288359 On ch=5 n=63 v=0
288359 On ch=5 n=67 v=0
288359 On ch=5 n=70 v=0
288360 On ch=5 n=68 v=72
288360 On ch=5 n=58 v=72
288360 On ch=5 n=70 v=72
289199 On ch=5 n=70 v=0
289199 On ch=5 n=58 v=0
289199 On ch=5 n=68 v=0
289200 On ch=5 n=68 v=86
289200 On ch=5 n=70 v=86
289200 On ch=5 n=58 v=86
289319 On ch=5 n=58 v=0
289319 On ch=5 n=70 v=0
289319 On ch=5 n=68 v=0
289320 On ch=5 n=68 v=88
289320 On ch=5 n=70 v=88
289320 On ch=5 n=58 v=88
289439 On ch=5 n=58 v=0
289439 On ch=5 n=70 v=0
289439 On ch=5 n=68 v=0
289440 On ch=5 n=68 v=90
289440 On ch=5 n=70 v=90
289440 On ch=5 n=58 v=90
289559 On ch=5 n=58 v=0
289559 On ch=5 n=70 v=0
289559 On ch=5 n=68 v=0
289560 On ch=5 n=68 v=92
289560 On ch=5 n=70 v=92
289560 On ch=5 n=58 v=92
289679 On ch=5 n=58 v=0
289679 On ch=5 n=70 v=0
289679 On ch=5 n=68 v=0
289680 On ch=5 n=68 v=94
289680 On ch=5 n=70 v=94
289680 On ch=5 n=58 v=94
289799 On ch=5 n=58 v=0
289799 On ch=5 n=70 v=0
289799 On ch=5 n=68 v=0
289800 On ch=5 n=58 v=96
289800 On ch=5 n=70 v=96
289800 On ch=5 n=67 v=96
289919 On ch=5 n=67 v=0
289919 On ch=5 n=70 v=0
289919 On ch=5 n=58 v=0
289920 On ch=5 n=63 v=96
289920 On ch=5 n=51 v=96
289920 On ch=5 n=70 v=96
289979 On ch=5 n=51 v=0
289979 On ch=5 n=63 v=0
289980 On ch=5 n=51 v=96
289980 On ch=5 n=63 v=96
290039 On ch=5 n=63 v=0
290039 On ch=5 n=51 v=0
290039 On ch=5 n=70 v=0
290040 On ch=5 n=67 v=96
290040 On ch=5 n=55 v=96
290040 On ch=5 n=70 v=96
290099 On ch=5 n=55 v=0
290099 On ch=5 n=67 v=0
290100 On ch=5 n=55 v=96
290100 On ch=5 n=67 v=96
290159 On ch=5 n=67 v=0
290159 On ch=5 n=55 v=0
290159 On ch=5 n=70 v=0
290160 On ch=5 n=63 v=96
290160 On ch=5 n=51 v=96
290160 On ch=5 n=70 v=96
290219 On ch=5 n=51 v=0
290219 On ch=5 n=63 v=0
290220 On ch=5 n=51 v=96
290220 On ch=5 n=63 v=96
290279 On ch=5 n=63 v=0
290279 On ch=5 n=51 v=0
290279 On ch=5 n=70 v=0
290280 On ch=5 n=63 v=96
290280 On ch=5 n=51 v=96
290280 On ch=5 n=70 v=96
290339 On ch=5 n=51 v=0
290339 On ch=5 n=63 v=0
290340 On ch=5 n=51 v=96
290340 On ch=5 n=63 v=96
290399 On ch=5 n=63 v=0
290399 On ch=5 n=51 v=0
290399 On ch=5 n=70 v=0
290400 On ch=5 n=46 v=96
290400 On ch=5 n=58 v=96
290400 On ch=5 n=70 v=96
290459 On ch=5 n=58 v=0
290459 On ch=5 n=46 v=0
290460 On ch=5 n=58 v=96
290460 On ch=5 n=46 v=96
290519 On ch=5 n=46 v=0
290519 On ch=5 n=58 v=0
290519 On ch=5 n=70 v=0
290520 On ch=5 n=51 v=96
290520 On ch=5 n=63 v=96
290520 On ch=5 n=70 v=96
290579 On ch=5 n=63 v=0
290579 On ch=5 n=51 v=0
290580 On ch=5 n=63 v=96
290580 On ch=5 n=51 v=96
290639 On ch=5 n=51 v=0
290639 On ch=5 n=63 v=0
290639 On ch=5 n=70 v=0
290640 On ch=5 n=55 v=96
290640 On ch=5 n=67 v=96
290640 On ch=5 n=70 v=96
290699 On ch=5 n=67 v=0
290699 On ch=5 n=55 v=0
290700 On ch=5 n=67 v=96
290700 On ch=5 n=55 v=96
290759 On ch=5 n=55 v=0
290759 On ch=5 n=67 v=0
290759 On ch=5 n=70 v=0
290760 On ch=5 n=58 v=96
290760 On ch=5 n=70 v=96
290819 On ch=5 n=70 v=0
290819 On ch=5 n=58 v=0
290820 On ch=5 n=70 v=96
290820 On ch=5 n=58 v=96
290879 On ch=5 n=58 v=0
290879 On ch=5 n=70 v=0
290880 On ch=5 n=58 v=96
290880 On ch=5 n=70 v=96
290939 On ch=5 n=70 v=0
290939 On ch=5 n=58 v=0
290940 On ch=5 n=58 v=96
290940 On ch=5 n=70 v=96
290999 On ch=5 n=70 v=0
290999 On ch=5 n=58 v=0
291000 On ch=5 n=58 v=96
291000 On ch=5 n=70 v=96
291059 On ch=5 n=70 v=0
291059 On ch=5 n=58 v=0
291060 On ch=5 n=58 v=96
291060 On ch=5 n=70 v=96
291119 On ch=5 n=70 v=0
291119 On ch=5 n=58 v=0
291120 On ch=5 n=58 v=96
291120 On ch=5 n=70 v=96
291179 On ch=5 n=70 v=0
291179 On ch=5 n=58 v=0
291180 On ch=5 n=58 v=96
291180 On ch=5 n=70 v=96
291239 On ch=5 n=70 v=0
291239 On ch=5 n=58 v=0
291240 On ch=5 n=65 v=96
291240 On ch=5 n=70 v=96
291299 On ch=5 n=65 v=0
291300 On ch=5 n=46 v=96
291300 On ch=5 n=58 v=96
291359 On ch=5 n=58 v=0
291359 On ch=5 n=46 v=0
291359 On ch=5 n=70 v=0
291360 On ch=5 n=58 v=96
291360 On ch=5 n=46 v=96
291360 On ch=5 n=70 v=96
291419 On ch=5 n=46 v=0
291419 On ch=5 n=58 v=0
291420 On ch=5 n=58 v=96
291420 On ch=5 n=46 v=96
291479 On ch=5 n=46 v=0
291479 On ch=5 n=58 v=0
291479 On ch=5 n=70 v=0
291480 On ch=5 n=58 v=96
291480 On ch=5 n=46 v=96
291480 On ch=5 n=70 v=96
291539 On ch=5 n=46 v=0
291539 On ch=5 n=58 v=0
291540 On ch=5 n=58 v=96
291540 On ch=5 n=46 v=96
291599 On ch=5 n=46 v=0
291599 On ch=5 n=58 v=0
291599 On ch=5 n=70 v=0
291600 On ch=5 n=58 v=96
291600 On ch=5 n=46 v=96
291600 On ch=5 n=70 v=96
291659 On ch=5 n=46 v=0
291659 On ch=5 n=58 v=0
291660 On ch=5 n=58 v=96
291660 On ch=5 n=46 v=96
291719 On ch=5 n=46 v=0
291719 On ch=5 n=58 v=0
291719 On ch=5 n=70 v=0
291720 On ch=5 n=58 v=96
291720 On ch=5 n=46 v=96
291720 On ch=5 n=70 v=96
291779 On ch=5 n=46 v=0
291779 On ch=5 n=58 v=0
291780 On ch=5 n=58 v=96
291780 On ch=5 n=46 v=96
291839 On ch=5 n=46 v=0
291839 On ch=5 n=58 v=0
291839 On ch=5 n=70 v=0
291840 On ch=5 n=58 v=96
291840 On ch=5 n=46 v=96
291840 On ch=5 n=70 v=96
291899 On ch=5 n=46 v=0
291899 On ch=5 n=58 v=0
291900 On ch=5 n=58 v=96
291900 On ch=5 n=46 v=96
291959 On ch=5 n=46 v=0
291959 On ch=5 n=58 v=0
291959 On ch=5 n=70 v=0
291960 On ch=5 n=58 v=96
291960 On ch=5 n=46 v=96
291960 On ch=5 n=70 v=96
292019 On ch=5 n=46 v=0
292019 On ch=5 n=58 v=0
292020 On ch=5 n=58 v=96
292020 On ch=5 n=46 v=96
292079 On ch=5 n=46 v=0
292079 On ch=5 n=58 v=0
292079 On ch=5 n=70 v=0
292080 On ch=5 n=58 v=96
292080 On ch=5 n=46 v=96
292139 On ch=5 n=46 v=0
292139 On ch=5 n=58 v=0
292140 On ch=5 n=58 v=96
292140 On ch=5 n=46 v=96
292199 On ch=5 n=46 v=0
292199 On ch=5 n=58 v=0
292200 On ch=5 n=58 v=96
292200 On ch=5 n=46 v=96
292259 On ch=5 n=46 v=0
292259 On ch=5 n=58 v=0
292260 On ch=5 n=58 v=96
292260 On ch=5 n=46 v=96
292319 On ch=5 n=46 v=0
292319 On ch=5 n=58 v=0
292320 On ch=5 n=58 v=96
292320 On ch=5 n=46 v=96
292379 On ch=5 n=46 v=0
292379 On ch=5 n=58 v=0
292380 On ch=5 n=58 v=96
292380 On ch=5 n=46 v=96
292439 On ch=5 n=46 v=0
292439 On ch=5 n=58 v=0
292440 On ch=5 n=58 v=96
292440 On ch=5 n=46 v=96
292499 On ch=5 n=46 v=0
292499 On ch=5 n=58 v=0
292500 On ch=5 n=58 v=96
292500 On ch=5 n=46 v=96
292559 On ch=5 n=46 v=0
292559 On ch=5 n=58 v=0
292560 On ch=5 n=58 v=96
292560 On ch=5 n=46 v=96
292619 On ch=5 n=46 v=0
292619 On ch=5 n=58 v=0
292620 On ch=5 n=58 v=96
292620 On ch=5 n=46 v=96
292679 On ch=5 n=46 v=0
292679 On ch=5 n=58 v=0
292680 On ch=5 n=61 v=96
292680 On ch=5 n=58 v=96
292680 On ch=5 n=46 v=96
292739 On ch=5 n=46 v=0
292739 On ch=5 n=58 v=0
292740 On ch=5 n=58 v=96
292740 On ch=5 n=46 v=96
292799 On ch=5 n=46 v=0
292799 On ch=5 n=58 v=0
292799 On ch=5 n=61 v=0
292800 On ch=5 n=67 v=96
292800 On ch=5 n=55 v=96
292800 On ch=5 n=61 v=96
292859 On ch=5 n=55 v=0
292859 On ch=5 n=67 v=0
292860 On ch=5 n=67 v=96
292860 On ch=5 n=55 v=96
292919 On ch=5 n=55 v=0
292919 On ch=5 n=67 v=0
292919 On ch=5 n=61 v=0
292920 On ch=5 n=55 v=96
292920 On ch=5 n=67 v=96
292979 On ch=5 n=67 v=0
292979 On ch=5 n=55 v=0
292980 On ch=5 n=55 v=96
292980 On ch=5 n=67 v=96
293039 On ch=5 n=67 v=0
293039 On ch=5 n=55 v=0
293040 On ch=5 n=61 v=96
293040 On ch=5 n=67 v=96
293040 On ch=5 n=55 v=96
293399 On ch=5 n=55 v=0
293399 On ch=5 n=67 v=0
293399 On ch=5 n=61 v=0
293400 On ch=5 n=65 v=96
293400 On ch=5 n=60 v=96
293519 On ch=5 n=60 v=0
293519 On ch=5 n=65 v=0
293520 On ch=5 n=51 v=112
293520 On ch=5 n=63 v=112
293520 On ch=5 n=65 v=112
293579 On ch=5 n=65 v=0
293579 On ch=5 n=63 v=0
293579 On ch=5 n=51 v=0
293580 On ch=5 n=51 v=96
293580 On ch=5 n=63 v=96
293580 On ch=5 n=65 v=96
293639 On ch=5 n=65 v=0
293639 On ch=5 n=63 v=0
293639 On ch=5 n=51 v=0
293640 On ch=5 n=63 v=96
293640 On ch=5 n=51 v=96
293640 On ch=5 n=65 v=96
293759 On ch=5 n=65 v=0
293759 On ch=5 n=51 v=0
293759 On ch=5 n=63 v=0
293880 On ch=5 n=51 v=112
293880 On ch=5 n=63 v=112
293939 On ch=5 n=63 v=0
293939 On ch=5 n=51 v=0
293940 On ch=5 n=51 v=96
293940 On ch=5 n=63 v=96
293999 On ch=5 n=63 v=0
293999 On ch=5 n=51 v=0
294000 On ch=5 n=63 v=96
294000 On ch=5 n=51 v=96
294119 On ch=5 n=51 v=0
294119 On ch=5 n=63 v=0
294240 On ch=5 n=51 v=112
294240 On ch=5 n=67 v=112
294240 On ch=5 n=63 v=112
294299 On ch=5 n=63 v=0
294299 On ch=5 n=67 v=0
294299 On ch=5 n=51 v=0
294300 On ch=5 n=51 v=96
294300 On ch=5 n=67 v=96
294300 On ch=5 n=63 v=96
294359 On ch=5 n=63 v=0
294359 On ch=5 n=67 v=0
294359 On ch=5 n=51 v=0
294360 On ch=5 n=67 v=96
294360 On ch=5 n=51 v=96
294360 On ch=5 n=63 v=96
294479 On ch=5 n=63 v=0
294479 On ch=5 n=51 v=0
294479 On ch=5 n=67 v=0
294600 On ch=5 n=68 v=96
294600 On ch=5 n=65 v=96
294659 On ch=5 n=65 v=0
294659 On ch=5 n=68 v=0
294660 On ch=5 n=68 v=96
294660 On ch=5 n=65 v=96
294719 On ch=5 n=65 v=0
294719 On ch=5 n=68 v=0
294720 On ch=5 n=68 v=96
294720 On ch=5 n=65 v=96
294839 On ch=5 n=65 v=0
294839 On ch=5 n=68 v=0
294960 On ch=5 n=51 v=96
294960 On ch=5 n=63 v=96
294960 On ch=5 n=67 v=96
295019 On ch=5 n=67 v=0
295019 On ch=5 n=63 v=0
295019 On ch=5 n=51 v=0
295020 On ch=5 n=51 v=96
295020 On ch=5 n=63 v=96
295020 On ch=5 n=67 v=96
295079 On ch=5 n=67 v=0
295079 On ch=5 n=63 v=0
295079 On ch=5 n=51 v=0
295080 On ch=5 n=51 v=96
295080 On ch=5 n=63 v=96
295080 On ch=5 n=67 v=96
295199 On ch=5 n=67 v=0
295199 On ch=5 n=63 v=0
295199 On ch=5 n=51 v=0
295320 On ch=5 n=65 v=96
295320 On ch=5 n=51 v=96
295320 On ch=5 n=63 v=96
295379 On ch=5 n=63 v=0
295379 On ch=5 n=51 v=0
295379 On ch=5 n=65 v=0
295380 On ch=5 n=65 v=96
295380 On ch=5 n=51 v=96
295380 On ch=5 n=63 v=96
295439 On ch=5 n=63 v=0
295439 On ch=5 n=51 v=0
295439 On ch=5 n=65 v=0
295440 On ch=5 n=65 v=96
295440 On ch=5 n=51 v=96
295440 On ch=5 n=63 v=96
295559 On ch=5 n=63 v=0
295559 On ch=5 n=51 v=0
295559 On ch=5 n=65 v=0
295560 On ch=5 n=63 v=127
295560 On ch=5 n=51 v=127
295560 On ch=5 n=67 v=127
295619 On ch=5 n=67 v=0
295619 On ch=5 n=51 v=0
295619 On ch=5 n=63 v=0
295620 On ch=5 n=58 v=127
295620 On ch=5 n=63 v=127
295620 On ch=5 n=67 v=127
295679 On ch=5 n=67 v=0
295679 On ch=5 n=63 v=0
295679 On ch=5 n=58 v=0
295680 On ch=5 n=58 v=127
295680 On ch=5 n=63 v=127
295680 On ch=5 n=67 v=127
295739 On ch=5 n=67 v=0
295739 On ch=5 n=63 v=0
295739 On ch=5 n=58 v=0
295740 On ch=5 n=58 v=127
295740 On ch=5 n=63 v=127
295740 On ch=5 n=67 v=127
295799 On ch=5 n=67 v=0
295799 On ch=5 n=63 v=0
295799 On ch=5 n=58 v=0
295800 On ch=5 n=58 v=127
295800 On ch=5 n=63 v=127
295800 On ch=5 n=67 v=127
295859 On ch=5 n=67 v=0
295859 On ch=5 n=63 v=0
295859 On ch=5 n=58 v=0
295860 On ch=5 n=58 v=127
295860 On ch=5 n=63 v=127
295860 On ch=5 n=67 v=127
295919 On ch=5 n=67 v=0
295919 On ch=5 n=63 v=0
295919 On ch=5 n=58 v=0
295920 On ch=5 n=65 v=127
295920 On ch=5 n=58 v=127
295979 On ch=5 n=58 v=0
295979 On ch=5 n=65 v=0
295980 On ch=5 n=65 v=127
295980 On ch=5 n=58 v=127
296039 On ch=5 n=58 v=0
296039 On ch=5 n=65 v=0
296040 On ch=5 n=65 v=127
296040 On ch=5 n=58 v=127
296099 On ch=5 n=58 v=0
296099 On ch=5 n=65 v=0
296100 On ch=5 n=65 v=127
296100 On ch=5 n=58 v=127
296159 On ch=5 n=58 v=0
296159 On ch=5 n=65 v=0
296160 On ch=5 n=65 v=127
296160 On ch=5 n=58 v=127
296219 On ch=5 n=58 v=0
296219 On ch=5 n=65 v=0
296220 On ch=5 n=65 v=127
296220 On ch=5 n=58 v=127
296279 On ch=5 n=58 v=0
296279 On ch=5 n=65 v=0
296280 On ch=5 n=51 v=48
296280 On ch=5 n=63 v=48
297120 On ch=5 n=46 v=48
297120 On ch=5 n=58 v=48
297129 On ch=5 n=63 v=0
297129 On ch=5 n=51 v=0
297239 On ch=5 n=46 v=0
297239 On ch=5 n=58 v=0
297240 On ch=5 n=58 v=48
297240 On ch=5 n=46 v=48
297329 On ch=5 n=46 v=0
297329 On ch=5 n=58 v=0
297360 On ch=5 n=58 v=48
297360 On ch=5 n=46 v=48
297449 On ch=5 n=46 v=0
297449 On ch=5 n=58 v=0
297480 On ch=5 n=58 v=48
297480 On ch=5 n=46 v=48
297569 On ch=5 n=46 v=0
297569 On ch=5 n=58 v=0
297600 On ch=5 n=58 v=48
297600 On ch=5 n=46 v=48
297689 On ch=5 n=46 v=0
297689 On ch=5 n=58 v=0
297720 On ch=5 n=51 v=48
297720 On ch=5 n=63 v=48
297839 On ch=5 n=63 v=0
297839 On ch=5 n=51 v=0
299280 On ch=5 n=65 v=96
299280 On ch=5 n=46 v=96
299280 On ch=5 n=58 v=96
299639 On ch=5 n=58 v=0
299639 On ch=5 n=46 v=0
299639 On ch=5 n=65 v=0
299640 On ch=5 n=46 v=96
299640 On ch=5 n=58 v=96
299640 On ch=5 n=65 v=96
299999 On ch=5 n=65 v=0
299999 On ch=5 n=58 v=0
299999 On ch=5 n=46 v=0
300000 On ch=5 n=65 v=96
300000 On ch=5 n=58 v=96
300000 On ch=5 n=46 v=96
300239 On ch=5 n=46 v=0
300239 On ch=5 n=58 v=0
300239 On ch=5 n=65 v=0
300240 On ch=5 n=46 v=96
300240 On ch=5 n=58 v=96
300240 On ch=5 n=65 v=96
300479 On ch=5 n=65 v=0
300479 On ch=5 n=58 v=0
300479 On ch=5 n=46 v=0
300480 On ch=5 n=65 v=96
300480 On ch=5 n=58 v=96
300480 On ch=5 n=46 v=96
300539 On ch=5 n=46 v=0
300539 On ch=5 n=58 v=0
300539 On ch=5 n=65 v=0
300600 On ch=5 n=46 v=96
300600 On ch=5 n=58 v=96
300600 On ch=5 n=65 v=96
300659 On ch=5 n=65 v=0
300659 On ch=5 n=58 v=0
300659 On ch=5 n=46 v=0
300720 On ch=5 n=68 v=127
300720 On ch=5 n=65 v=127
300720 On ch=5 n=46 v=127
300779 On ch=5 n=46 v=0
300779 On ch=5 n=65 v=0
300779 On ch=5 n=68 v=0
300840 On ch=5 n=68 v=127
300840 On ch=5 n=65 v=127
300840 On ch=5 n=46 v=127
300899 On ch=5 n=46 v=0
300899 On ch=5 n=65 v=0
300899 On ch=5 n=68 v=0
300960 On ch=5 n=68 v=127
300960 On ch=5 n=65 v=127
300960 On ch=5 n=46 v=127
301019 On ch=5 n=46 v=0
301019 On ch=5 n=65 v=0
301019 On ch=5 n=68 v=0
301080 On ch=5 n=68 v=127
301080 On ch=5 n=65 v=127
301080 On ch=5 n=46 v=127
301139 On ch=5 n=46 v=0
301139 On ch=5 n=65 v=0
301139 On ch=5 n=68 v=0
301200 On ch=5 n=68 v=127
301200 On ch=5 n=65 v=127
301200 On ch=5 n=46 v=127
301259 On ch=5 n=46 v=0
301259 On ch=5 n=65 v=0
301259 On ch=5 n=68 v=0
301320 On ch=5 n=68 v=127
301320 On ch=5 n=65 v=127
301320 On ch=5 n=46 v=127
301379 On ch=5 n=46 v=0
301379 On ch=5 n=65 v=0
301379 On ch=5 n=68 v=0
301440 On ch=5 n=68 v=127
301440 On ch=5 n=65 v=127
301440 On ch=5 n=46 v=127
301499 On ch=5 n=46 v=0
301499 On ch=5 n=65 v=0
301499 On ch=5 n=68 v=0
301560 On ch=5 n=68 v=127
301560 On ch=5 n=65 v=127
301560 On ch=5 n=46 v=127
301619 On ch=5 n=46 v=0
301619 On ch=5 n=65 v=0
301619 On ch=5 n=68 v=0
301680 On ch=5 n=68 v=127
301680 On ch=5 n=65 v=127
301680 On ch=5 n=46 v=127
301739 On ch=5 n=46 v=0
301739 On ch=5 n=65 v=0
301739 On ch=5 n=68 v=0
301800 On ch=5 n=68 v=127
301800 On ch=5 n=65 v=127
301800 On ch=5 n=46 v=127
301859 On ch=5 n=46 v=0
301859 On ch=5 n=65 v=0
301859 On ch=5 n=68 v=0
301920 On ch=5 n=68 v=127
301920 On ch=5 n=65 v=127
301920 On ch=5 n=46 v=127
301979 On ch=5 n=46 v=0
301979 On ch=5 n=65 v=0
301979 On ch=5 n=68 v=0
302040 On ch=5 n=67 v=127
302040 On ch=5 n=51 v=127
302040 On ch=5 n=63 v=127
302159 On ch=5 n=63 v=0
302159 On ch=5 n=51 v=0
302159 On ch=5 n=67 v=0
302400 On ch=5 n=63 v=127
302400 On ch=5 n=67 v=127
302519 On ch=5 n=67 v=0
302519 On ch=5 n=63 v=0
302760 On ch=5 n=55 v=127
302760 On ch=5 n=63 v=127
302879 On ch=5 n=63 v=0
302879 On ch=5 n=55 v=0
0 PrCh ch=6 p=56
0 Par ch=6 c=7 v=127
0 Par ch=6 c=10 v=74
0 Par ch=6 c=93 v=0
0 Par ch=6 c=91 v=0
0 On ch=6 n=63 v=96
0 On ch=6 n=75 v=96
59 On ch=6 n=75 v=0
59 On ch=6 n=63 v=0
360 On ch=6 n=75 v=96
360 On ch=6 n=63 v=96
419 On ch=6 n=63 v=0
419 On ch=6 n=75 v=0
12960 On ch=6 n=63 v=127
13199 On ch=6 n=63 v=0
13200 On ch=6 n=67 v=127
13319 On ch=6 n=67 v=0
13320 On ch=6 n=63 v=127
13559 On ch=6 n=63 v=0
13560 On ch=6 n=58 v=127
13679 On ch=6 n=58 v=0
13680 On ch=6 n=63 v=127
13799 On ch=6 n=63 v=0
13800 On ch=6 n=67 v=127
13919 On ch=6 n=67 v=0
13920 On ch=6 n=70 v=127
14039 On ch=6 n=70 v=0
14040 On ch=6 n=63 v=127
14279 On ch=6 n=63 v=0
14280 On ch=6 n=67 v=127
14399 On ch=6 n=67 v=0
14400 On ch=6 n=67 v=127
14519 On ch=6 n=67 v=0
14520 On ch=6 n=67 v=127
14639 On ch=6 n=67 v=0
14640 On ch=6 n=67 v=127
14759 On ch=6 n=67 v=0
14760 On ch=6 n=67 v=127
14999 On ch=6 n=67 v=0
15000 On ch=6 n=63 v=127
15119 On ch=6 n=63 v=0
15120 On ch=6 n=63 v=127
15120 On ch=6 n=75 v=127
15479 On ch=6 n=75 v=0
15479 On ch=6 n=63 v=0
15480 On ch=6 n=70 v=127
15480 On ch=6 n=58 v=127
15839 On ch=6 n=58 v=0
15839 On ch=6 n=70 v=0
15840 On ch=6 n=72 v=127
15959 On ch=6 n=72 v=0
19560 On ch=6 n=77 v=127
19739 On ch=6 n=77 v=0
19740 On ch=6 n=77 v=127
19799 On ch=6 n=77 v=0
19800 On ch=6 n=77 v=127
19859 On ch=6 n=77 v=0
19920 On ch=6 n=77 v=127
19979 On ch=6 n=77 v=0
20040 On ch=6 n=77 v=127
20099 On ch=6 n=77 v=0
20160 On ch=6 n=70 v=48
20279 On ch=6 n=70 v=0
23040 On ch=6 n=70 v=96
23040 On ch=6 n=58 v=96
23099 On ch=6 n=58 v=0
23099 On ch=6 n=70 v=0
23160 On ch=6 n=70 v=96
23160 On ch=6 n=58 v=96
23219 On ch=6 n=58 v=0
23219 On ch=6 n=70 v=0
23700 On ch=6 n=58 v=96
23700 On ch=6 n=70 v=96
23729 On ch=6 n=70 v=0
23729 On ch=6 n=58 v=0
23760 On ch=6 n=67 v=96
23760 On ch=6 n=55 v=96
23819 On ch=6 n=55 v=0
23819 On ch=6 n=67 v=0
23880 On ch=6 n=55 v=96
23880 On ch=6 n=67 v=96
23939 On ch=6 n=67 v=0
23939 On ch=6 n=55 v=0
24420 On ch=6 n=74 v=96
24420 On ch=6 n=62 v=96
24449 On ch=6 n=62 v=0
24449 On ch=6 n=74 v=0
24480 On ch=6 n=72 v=96
24539 On ch=6 n=72 v=0
24600 On ch=6 n=72 v=96
24659 On ch=6 n=72 v=0
25140 On ch=6 n=72 v=96
25169 On ch=6 n=72 v=0
25200 On ch=6 n=70 v=96
25319 On ch=6 n=70 v=0
26040 On ch=6 n=53 v=96
26040 On ch=6 n=65 v=96
26159 On ch=6 n=65 v=0
26159 On ch=6 n=53 v=0
26160 On ch=6 n=53 v=96
26160 On ch=6 n=65 v=96
26279 On ch=6 n=65 v=0
26279 On ch=6 n=53 v=0
26280 On ch=6 n=53 v=96
26280 On ch=6 n=65 v=96
26399 On ch=6 n=65 v=0
26399 On ch=6 n=53 v=0
26400 On ch=6 n=53 v=96
26400 On ch=6 n=65 v=96
26519 On ch=6 n=65 v=0
26519 On ch=6 n=53 v=0
26520 On ch=6 n=53 v=96
26520 On ch=6 n=65 v=96
26639 On ch=6 n=65 v=0
26639 On ch=6 n=53 v=0
26640 On ch=6 n=65 v=96
26640 On ch=6 n=53 v=96
26759 On ch=6 n=53 v=0
26759 On ch=6 n=65 v=0
27000 On ch=6 n=74 v=96
27000 On ch=6 n=62 v=96
27359 On ch=6 n=62 v=0
27359 On ch=6 n=74 v=0
27360 On ch=6 n=72 v=96
27479 On ch=6 n=72 v=0
28080 On ch=6 n=72 v=96
28919 On ch=6 n=72 v=0
28920 On ch=6 n=72 v=127
29039 On ch=6 n=72 v=0
29040 On ch=6 n=72 v=127
29159 On ch=6 n=72 v=0
29160 On ch=6 n=72 v=127
29279 On ch=6 n=72 v=0
29280 On ch=6 n=72 v=127
29399 On ch=6 n=72 v=0
29400 On ch=6 n=72 v=127
29519 On ch=6 n=72 v=0
29520 On ch=6 n=53 v=127
29520 On ch=6 n=65 v=127
29639 On ch=6 n=65 v=0
29639 On ch=6 n=53 v=0
39000 On ch=6 n=77 v=112
39239 On ch=6 n=77 v=0
39360 On ch=6 n=77 v=112
39599 On ch=6 n=77 v=0
39720 On ch=6 n=77 v=112
39959 On ch=6 n=77 v=0
40080 On ch=6 n=77 v=112
40199 On ch=6 n=77 v=0
40200 On ch=6 n=77 v=96
40319 On ch=6 n=77 v=0
40320 On ch=6 n=77 v=127
41519 On ch=6 n=77 v=0
41520 On ch=6 n=77 v=127
41639 On ch=6 n=77 v=0
41640 On ch=6 n=77 v=127
41759 On ch=6 n=77 v=0
41760 On ch=6 n=77 v=127
41879 On ch=6 n=77 v=0
41880 On ch=6 n=58 v=127
41880 On ch=6 n=70 v=127
42179 On ch=6 n=70 v=0
42179 On ch=6 n=58 v=0
44520 On ch=6 n=67 v=127
44520 On ch=6 n=63 v=127
44579 On ch=6 n=63 v=0
44579 On ch=6 n=67 v=0
45240 On ch=6 n=58 v=127
45240 On ch=6 n=70 v=127
45299 On ch=6 n=70 v=0
45299 On ch=6 n=58 v=0
45600 On ch=6 n=75 v=127
45600 On ch=6 n=63 v=127
45659 On ch=6 n=63 v=0
45659 On ch=6 n=75 v=0
45840 On ch=6 n=70 v=127
45840 On ch=6 n=58 v=127
45899 On ch=6 n=58 v=0
45899 On ch=6 n=70 v=0
46080 On ch=6 n=58 v=127
46080 On ch=6 n=70 v=127
46139 On ch=6 n=70 v=0
46139 On ch=6 n=58 v=0
46320 On ch=6 n=70 v=127
46320 On ch=6 n=58 v=127
46379 On ch=6 n=58 v=0
46379 On ch=6 n=70 v=0
46560 On ch=6 n=58 v=127
46560 On ch=6 n=70 v=127
46619 On ch=6 n=70 v=0
46619 On ch=6 n=58 v=0
46800 On ch=6 n=70 v=127
46800 On ch=6 n=58 v=127
46859 On ch=6 n=58 v=0
46859 On ch=6 n=70 v=0
47040 On ch=6 n=58 v=127
47040 On ch=6 n=70 v=127
47099 On ch=6 n=70 v=0
47099 On ch=6 n=58 v=0
51120 On ch=6 n=77 v=127
51479 On ch=6 n=77 v=0
51480 On ch=6 n=58 v=96
51480 On ch=6 n=70 v=96
51539 On ch=6 n=70 v=0
51539 On ch=6 n=58 v=0
51840 On ch=6 n=70 v=96
51840 On ch=6 n=58 v=96
51899 On ch=6 n=58 v=0
51899 On ch=6 n=70 v=0
52200 On ch=6 n=58 v=96
52200 On ch=6 n=70 v=96
52259 On ch=6 n=70 v=0
52259 On ch=6 n=58 v=0
52560 On ch=6 n=70 v=96
52560 On ch=6 n=58 v=96
52619 On ch=6 n=58 v=0
52619 On ch=6 n=70 v=0
52680 On ch=6 n=58 v=96
52680 On ch=6 n=70 v=96
52739 On ch=6 n=70 v=0
52739 On ch=6 n=58 v=0
52800 On ch=6 n=70 v=96
52800 On ch=6 n=58 v=96
52859 On ch=6 n=58 v=0
52859 On ch=6 n=70 v=0
52920 On ch=6 n=58 v=96
52920 On ch=6 n=70 v=96
52979 On ch=6 n=70 v=0
52979 On ch=6 n=58 v=0
67320 On ch=6 n=63 v=127
67559 On ch=6 n=63 v=0
67560 On ch=6 n=67 v=127
67679 On ch=6 n=67 v=0
67680 On ch=6 n=63 v=127
67919 On ch=6 n=63 v=0
67920 On ch=6 n=58 v=127
68039 On ch=6 n=58 v=0
68040 On ch=6 n=63 v=127
68159 On ch=6 n=63 v=0
68160 On ch=6 n=67 v=127
68279 On ch=6 n=67 v=0
68280 On ch=6 n=70 v=127
68399 On ch=6 n=70 v=0
68400 On ch=6 n=63 v=127
68639 On ch=6 n=63 v=0
68640 On ch=6 n=67 v=127
68759 On ch=6 n=67 v=0
68760 On ch=6 n=67 v=127
68879 On ch=6 n=67 v=0
68880 On ch=6 n=67 v=127
68999 On ch=6 n=67 v=0
69000 On ch=6 n=67 v=127
69119 On ch=6 n=67 v=0
69120 On ch=6 n=67 v=127
69359 On ch=6 n=67 v=0
69360 On ch=6 n=63 v=127
69479 On ch=6 n=63 v=0
69480 On ch=6 n=63 v=127
69480 On ch=6 n=75 v=127
69839 On ch=6 n=75 v=0
69839 On ch=6 n=63 v=0
69840 On ch=6 n=70 v=127
69840 On ch=6 n=58 v=127
70199 On ch=6 n=58 v=0
70199 On ch=6 n=70 v=0
70200 On ch=6 n=72 v=127
70319 On ch=6 n=72 v=0
73920 On ch=6 n=77 v=127
74099 On ch=6 n=77 v=0
74100 On ch=6 n=77 v=127
74159 On ch=6 n=77 v=0
74160 On ch=6 n=77 v=127
74219 On ch=6 n=77 v=0
74280 On ch=6 n=77 v=127
74339 On ch=6 n=77 v=0
74400 On ch=6 n=77 v=127
74459 On ch=6 n=77 v=0
74520 On ch=6 n=70 v=48
74639 On ch=6 n=70 v=0
77400 On ch=6 n=70 v=96
77400 On ch=6 n=58 v=96
77459 On ch=6 n=58 v=0
77459 On ch=6 n=70 v=0
77520 On ch=6 n=70 v=96
77520 On ch=6 n=58 v=96
77579 On ch=6 n=58 v=0
77579 On ch=6 n=70 v=0
78060 On ch=6 n=58 v=96
78060 On ch=6 n=70 v=96
78089 On ch=6 n=70 v=0
78089 On ch=6 n=58 v=0
78120 On ch=6 n=67 v=96
78120 On ch=6 n=55 v=96
78179 On ch=6 n=55 v=0
78179 On ch=6 n=67 v=0
78240 On ch=6 n=55 v=96
78240 On ch=6 n=67 v=96
78299 On ch=6 n=67 v=0
78299 On ch=6 n=55 v=0
78780 On ch=6 n=74 v=96
78780 On ch=6 n=62 v=96
78809 On ch=6 n=62 v=0
78809 On ch=6 n=74 v=0
78840 On ch=6 n=72 v=96
78899 On ch=6 n=72 v=0
78960 On ch=6 n=72 v=96
79019 On ch=6 n=72 v=0
79500 On ch=6 n=72 v=96
79529 On ch=6 n=72 v=0
79560 On ch=6 n=70 v=96
79679 On ch=6 n=70 v=0
80400 On ch=6 n=53 v=96
80400 On ch=6 n=65 v=96
80519 On ch=6 n=65 v=0
80519 On ch=6 n=53 v=0
80520 On ch=6 n=53 v=96
80520 On ch=6 n=65 v=96
80639 On ch=6 n=65 v=0
80639 On ch=6 n=53 v=0
80640 On ch=6 n=53 v=96
80640 On ch=6 n=65 v=96
80759 On ch=6 n=65 v=0
80759 On ch=6 n=53 v=0
80760 On ch=6 n=53 v=96
80760 On ch=6 n=65 v=96
80879 On ch=6 n=65 v=0
80879 On ch=6 n=53 v=0
80880 On ch=6 n=53 v=96
80880 On ch=6 n=65 v=96
80999 On ch=6 n=65 v=0
80999 On ch=6 n=53 v=0
81000 On ch=6 n=65 v=96
81000 On ch=6 n=53 v=96
81119 On ch=6 n=53 v=0
81119 On ch=6 n=65 v=0
81360 On ch=6 n=74 v=96
81360 On ch=6 n=62 v=96
81719 On ch=6 n=62 v=0
81719 On ch=6 n=74 v=0
81720 On ch=6 n=72 v=96
81839 On ch=6 n=72 v=0
82440 On ch=6 n=72 v=96
83279 On ch=6 n=72 v=0
83280 On ch=6 n=72 v=127
83399 On ch=6 n=72 v=0
83400 On ch=6 n=72 v=127
83519 On ch=6 n=72 v=0
83520 On ch=6 n=72 v=127
83639 On ch=6 n=72 v=0
83640 On ch=6 n=72 v=127
83759 On ch=6 n=72 v=0
83760 On ch=6 n=72 v=127
83879 On ch=6 n=72 v=0
83880 On ch=6 n=53 v=127
83880 On ch=6 n=65 v=127
83999 On ch=6 n=65 v=0
83999 On ch=6 n=53 v=0
93360 On ch=6 n=77 v=112
93599 On ch=6 n=77 v=0
93720 On ch=6 n=77 v=112
93959 On ch=6 n=77 v=0
94080 On ch=6 n=77 v=112
94319 On ch=6 n=77 v=0
94440 On ch=6 n=77 v=112
94559 On ch=6 n=77 v=0
94560 On ch=6 n=77 v=96
94679 On ch=6 n=77 v=0
94680 On ch=6 n=77 v=127
95879 On ch=6 n=77 v=0
95880 On ch=6 n=77 v=127
95999 On ch=6 n=77 v=0
96000 On ch=6 n=77 v=127
96119 On ch=6 n=77 v=0
96120 On ch=6 n=77 v=127
96239 On ch=6 n=77 v=0
96240 On ch=6 n=58 v=127
96240 On ch=6 n=70 v=127
96539 On ch=6 n=70 v=0
96539 On ch=6 n=58 v=0
98880 On ch=6 n=67 v=127
98880 On ch=6 n=63 v=127
98939 On ch=6 n=63 v=0
98939 On ch=6 n=67 v=0
99600 On ch=6 n=58 v=127
99600 On ch=6 n=70 v=127
99659 On ch=6 n=70 v=0
99659 On ch=6 n=58 v=0
99960 On ch=6 n=75 v=127
99960 On ch=6 n=63 v=127
100019 On ch=6 n=63 v=0
100019 On ch=6 n=75 v=0
100200 On ch=6 n=70 v=127
100200 On ch=6 n=58 v=127
100259 On ch=6 n=58 v=0
100259 On ch=6 n=70 v=0
100440 On ch=6 n=58 v=127
100440 On ch=6 n=70 v=127
100499 On ch=6 n=70 v=0
100499 On ch=6 n=58 v=0
100680 On ch=6 n=70 v=127
100680 On ch=6 n=58 v=127
100739 On ch=6 n=58 v=0
100739 On ch=6 n=70 v=0
100920 On ch=6 n=58 v=127
100920 On ch=6 n=70 v=127
100979 On ch=6 n=70 v=0
100979 On ch=6 n=58 v=0
101160 On ch=6 n=70 v=127
101160 On ch=6 n=58 v=127
101219 On ch=6 n=58 v=0
101219 On ch=6 n=70 v=0
101400 On ch=6 n=58 v=127
101400 On ch=6 n=70 v=127
101459 On ch=6 n=70 v=0
101459 On ch=6 n=58 v=0
105480 On ch=6 n=77 v=127
105839 On ch=6 n=77 v=0
105840 On ch=6 n=58 v=96
105840 On ch=6 n=70 v=96
105899 On ch=6 n=70 v=0
105899 On ch=6 n=58 v=0
106200 On ch=6 n=70 v=96
106200 On ch=6 n=58 v=96
106259 On ch=6 n=58 v=0
106259 On ch=6 n=70 v=0
106560 On ch=6 n=58 v=96
106560 On ch=6 n=70 v=96
106619 On ch=6 n=70 v=0
106619 On ch=6 n=58 v=0
106920 On ch=6 n=70 v=96
106920 On ch=6 n=58 v=96
106979 On ch=6 n=58 v=0
106979 On ch=6 n=70 v=0
107040 On ch=6 n=58 v=96
107040 On ch=6 n=70 v=96
107099 On ch=6 n=70 v=0
107099 On ch=6 n=58 v=0
107160 On ch=6 n=70 v=96
107160 On ch=6 n=58 v=96
107219 On ch=6 n=58 v=0
107219 On ch=6 n=70 v=0
107280 On ch=6 n=58 v=96
107280 On ch=6 n=70 v=96
107339 On ch=6 n=70 v=0
107339 On ch=6 n=58 v=0
121080 On ch=6 n=77 v=127
121139 On ch=6 n=77 v=0
121200 On ch=6 n=77 v=127
121259 On ch=6 n=77 v=0
121320 On ch=6 n=77 v=127
121379 On ch=6 n=77 v=0
121440 On ch=6 n=77 v=127
121499 On ch=6 n=77 v=0
121560 On ch=6 n=77 v=127
121619 On ch=6 n=77 v=0
121680 On ch=6 n=77 v=127
122400 On ch=6 n=79 v=127
122409 On ch=6 n=77 v=0
122519 On ch=6 n=79 v=0
122520 On ch=6 n=67 v=127
122520 On ch=6 n=79 v=127
122579 On ch=6 n=79 v=0
122579 On ch=6 n=67 v=0
122640 On ch=6 n=79 v=127
122640 On ch=6 n=67 v=127
122699 On ch=6 n=67 v=0
122699 On ch=6 n=79 v=0
122760 On ch=6 n=67 v=127
122760 On ch=6 n=79 v=127
122819 On ch=6 n=79 v=0
122819 On ch=6 n=67 v=0
122880 On ch=6 n=79 v=127
122880 On ch=6 n=67 v=127
122939 On ch=6 n=67 v=0
122939 On ch=6 n=79 v=0
123000 On ch=6 n=67 v=127
123000 On ch=6 n=79 v=127
123059 On ch=6 n=79 v=0
123059 On ch=6 n=67 v=0
123120 On ch=6 n=79 v=127
123120 On ch=6 n=67 v=127
123839 On ch=6 n=67 v=0
123839 On ch=6 n=79 v=0
125400 On ch=6 n=58 v=127
125400 On ch=6 n=70 v=127
125459 On ch=6 n=70 v=0
125459 On ch=6 n=58 v=0
125520 On ch=6 n=70 v=127
125520 On ch=6 n=58 v=127
125579 On ch=6 n=58 v=0
125579 On ch=6 n=70 v=0
125640 On ch=6 n=58 v=127
125640 On ch=6 n=70 v=127
125699 On ch=6 n=70 v=0
125699 On ch=6 n=58 v=0
125760 On ch=6 n=70 v=127
125760 On ch=6 n=58 v=127
125819 On ch=6 n=58 v=0
125819 On ch=6 n=70 v=0
125880 On ch=6 n=58 v=127
125880 On ch=6 n=70 v=127
125939 On ch=6 n=70 v=0
125939 On ch=6 n=58 v=0
126000 On ch=6 n=70 v=127
126000 On ch=6 n=58 v=127
126719 On ch=6 n=58 v=0
126719 On ch=6 n=70 v=0
143400 On ch=6 n=77 v=127
144119 On ch=6 n=77 v=0
144120 On ch=6 n=77 v=127
144359 On ch=6 n=77 v=0
144360 On ch=6 n=77 v=127
144599 On ch=6 n=77 v=0
144600 On ch=6 n=77 v=127
144839 On ch=6 n=77 v=0
144840 On ch=6 n=77 v=127
145079 On ch=6 n=77 v=0
145080 On ch=6 n=77 v=127
145319 On ch=6 n=77 v=0
145320 On ch=6 n=77 v=127
145439 On ch=6 n=77 v=0
147720 On ch=6 n=63 v=127
147720 On ch=6 n=75 v=127
148439 On ch=6 n=75 v=0
148439 On ch=6 n=63 v=0
148440 On ch=6 n=75 v=127
148440 On ch=6 n=63 v=127
148679 On ch=6 n=63 v=0
148679 On ch=6 n=75 v=0
148680 On ch=6 n=63 v=127
148680 On ch=6 n=75 v=127
148919 On ch=6 n=75 v=0
148919 On ch=6 n=63 v=0
148920 On ch=6 n=75 v=127
148920 On ch=6 n=63 v=127
149159 On ch=6 n=63 v=0
149159 On ch=6 n=75 v=0
149160 On ch=6 n=75 v=127
149160 On ch=6 n=63 v=127
149399 On ch=6 n=63 v=0
149399 On ch=6 n=75 v=0
149400 On ch=6 n=63 v=127
149400 On ch=6 n=75 v=127
149639 On ch=6 n=75 v=0
149639 On ch=6 n=63 v=0
149640 On ch=6 n=75 v=127
149640 On ch=6 n=63 v=127
149759 On ch=6 n=63 v=0
149759 On ch=6 n=75 v=0
149880 On ch=6 n=67 v=127
149880 On ch=6 n=79 v=127
150599 On ch=6 n=79 v=0
150599 On ch=6 n=67 v=0
150600 On ch=6 n=79 v=127
150600 On ch=6 n=67 v=127
150839 On ch=6 n=67 v=0
150839 On ch=6 n=79 v=0
150840 On ch=6 n=67 v=127
150840 On ch=6 n=79 v=127
151079 On ch=6 n=79 v=0
151079 On ch=6 n=67 v=0
151080 On ch=6 n=79 v=127
151080 On ch=6 n=67 v=127
151319 On ch=6 n=67 v=0
151319 On ch=6 n=79 v=0
151320 On ch=6 n=67 v=127
151320 On ch=6 n=79 v=127
151559 On ch=6 n=79 v=0
151559 On ch=6 n=67 v=0
151560 On ch=6 n=79 v=127
151560 On ch=6 n=67 v=127
151799 On ch=6 n=67 v=0
151799 On ch=6 n=79 v=0
151800 On ch=6 n=67 v=127
151800 On ch=6 n=79 v=127
151919 On ch=6 n=79 v=0
151919 On ch=6 n=67 v=0
152040 On ch=6 n=75 v=127
152040 On ch=6 n=63 v=127
152279 On ch=6 n=63 v=0
152279 On ch=6 n=75 v=0
152280 On ch=6 n=63 v=127
152280 On ch=6 n=75 v=127
152519 On ch=6 n=75 v=0
152519 On ch=6 n=63 v=0
152520 On ch=6 n=75 v=127
152520 On ch=6 n=63 v=127
152639 On ch=6 n=63 v=0
152639 On ch=6 n=75 v=0
152760 On ch=6 n=67 v=127
152999 On ch=6 n=67 v=0
153000 On ch=6 n=67 v=127
153239 On ch=6 n=67 v=0
153240 On ch=6 n=67 v=127
153359 On ch=6 n=67 v=0
153360 On ch=6 n=77 v=96
153599 On ch=6 n=77 v=0
153720 On ch=6 n=77 v=96
153959 On ch=6 n=77 v=0
154080 On ch=6 n=77 v=96
154319 On ch=6 n=77 v=0
154440 On ch=6 n=77 v=96
154679 On ch=6 n=77 v=0
154680 On ch=6 n=77 v=96
154739 On ch=6 n=77 v=0
163440 On ch=6 n=67 v=96
163440 On ch=6 n=79 v=96
164279 On ch=6 n=79 v=0
164279 On ch=6 n=67 v=0
164280 On ch=6 n=79 v=96
164280 On ch=6 n=67 v=96
164399 On ch=6 n=67 v=0
164399 On ch=6 n=79 v=0
164400 On ch=6 n=79 v=96
164400 On ch=6 n=67 v=96
164519 On ch=6 n=67 v=0
164519 On ch=6 n=79 v=0
164520 On ch=6 n=79 v=96
164520 On ch=6 n=67 v=96
164639 On ch=6 n=67 v=0
164639 On ch=6 n=79 v=0
164640 On ch=6 n=79 v=96
164640 On ch=6 n=67 v=96
164759 On ch=6 n=67 v=0
164759 On ch=6 n=79 v=0
164760 On ch=6 n=79 v=96
164760 On ch=6 n=67 v=96
165719 On ch=6 n=67 v=0
165719 On ch=6 n=79 v=0
165720 On ch=6 n=79 v=96
165720 On ch=6 n=67 v=96
165839 On ch=6 n=67 v=0
165839 On ch=6 n=79 v=0
165840 On ch=6 n=79 v=96
165840 On ch=6 n=67 v=96
165959 On ch=6 n=67 v=0
165959 On ch=6 n=79 v=0
165960 On ch=6 n=79 v=96
165960 On ch=6 n=67 v=96
166079 On ch=6 n=67 v=0
166079 On ch=6 n=79 v=0
166080 On ch=6 n=79 v=96
166080 On ch=6 n=67 v=96
166199 On ch=6 n=67 v=0
166199 On ch=6 n=79 v=0
166200 On ch=6 n=79 v=96
166200 On ch=6 n=67 v=96
166439 On ch=6 n=67 v=0
166439 On ch=6 n=79 v=0
167760 On ch=6 n=58 v=96
167760 On ch=6 n=70 v=96
167879 On ch=6 n=70 v=0
167879 On ch=6 n=58 v=0
167880 On ch=6 n=70 v=96
167880 On ch=6 n=58 v=96
167999 On ch=6 n=58 v=0
167999 On ch=6 n=70 v=0
168000 On ch=6 n=58 v=96
168000 On ch=6 n=70 v=96
168119 On ch=6 n=70 v=0
168119 On ch=6 n=58 v=0
168120 On ch=6 n=70 v=96
168120 On ch=6 n=58 v=96
168239 On ch=6 n=58 v=0
168239 On ch=6 n=70 v=0
168240 On ch=6 n=58 v=96
168240 On ch=6 n=70 v=96
168359 On ch=6 n=70 v=0
168359 On ch=6 n=58 v=0
168360 On ch=6 n=70 v=96
168360 On ch=6 n=58 v=96
169319 On ch=6 n=58 v=0
169319 On ch=6 n=70 v=0
169320 On ch=6 n=58 v=127
169320 On ch=6 n=70 v=127
169439 On ch=6 n=70 v=0
169439 On ch=6 n=58 v=0
169440 On ch=6 n=70 v=127
169440 On ch=6 n=58 v=127
169559 On ch=6 n=58 v=0
169559 On ch=6 n=70 v=0
169560 On ch=6 n=58 v=127
169560 On ch=6 n=70 v=127
169679 On ch=6 n=70 v=0
169679 On ch=6 n=58 v=0
169680 On ch=6 n=75 v=127
169680 On ch=6 n=63 v=127
169799 On ch=6 n=63 v=0
169799 On ch=6 n=75 v=0
169800 On ch=6 n=63 v=127
169800 On ch=6 n=75 v=127
169919 On ch=6 n=75 v=0
169919 On ch=6 n=63 v=0
169920 On ch=6 n=75 v=127
169920 On ch=6 n=63 v=127
170039 On ch=6 n=63 v=0
170039 On ch=6 n=75 v=0
196560 On ch=6 n=58 v=96
196560 On ch=6 n=70 v=96
196919 On ch=6 n=70 v=0
196919 On ch=6 n=58 v=0
196920 On ch=6 n=70 v=127
196920 On ch=6 n=58 v=127
197279 On ch=6 n=58 v=0
197279 On ch=6 n=70 v=0
197280 On ch=6 n=63 v=127
197280 On ch=6 n=75 v=127
197399 On ch=6 n=75 v=0
197399 On ch=6 n=63 v=0
208320 On ch=6 n=58 v=64
208320 On ch=6 n=70 v=64
208379 On ch=6 n=70 v=0
208379 On ch=6 n=58 v=0
208380 On ch=6 n=58 v=68
208380 On ch=6 n=70 v=68
208439 On ch=6 n=70 v=0
208439 On ch=6 n=58 v=0
208440 On ch=6 n=58 v=72
208440 On ch=6 n=70 v=72
208499 On ch=6 n=70 v=0
208499 On ch=6 n=58 v=0
208500 On ch=6 n=58 v=76
208500 On ch=6 n=70 v=76
208559 On ch=6 n=70 v=0
208559 On ch=6 n=58 v=0
208560 On ch=6 n=58 v=80
208560 On ch=6 n=70 v=80
208619 On ch=6 n=70 v=0
208619 On ch=6 n=58 v=0
208620 On ch=6 n=58 v=84
208620 On ch=6 n=70 v=84
208679 On ch=6 n=70 v=0
208679 On ch=6 n=58 v=0
208680 On ch=6 n=58 v=88
208680 On ch=6 n=70 v=88
208739 On ch=6 n=70 v=0
208739 On ch=6 n=58 v=0
208740 On ch=6 n=58 v=92
208740 On ch=6 n=70 v=92
208799 On ch=6 n=70 v=0
208799 On ch=6 n=58 v=0
208800 On ch=6 n=63 v=96
208800 On ch=6 n=75 v=96
209399 On ch=6 n=75 v=0
209399 On ch=6 n=63 v=0
209400 On ch=6 n=58 v=96
209400 On ch=6 n=70 v=96
209519 On ch=6 n=70 v=0
209519 On ch=6 n=58 v=0
209520 On ch=6 n=75 v=96
209520 On ch=6 n=63 v=96
209639 On ch=6 n=63 v=0
209639 On ch=6 n=75 v=0
209640 On ch=6 n=63 v=96
209640 On ch=6 n=70 v=96
209759 On ch=6 n=70 v=0
209759 On ch=6 n=63 v=0
209760 On ch=6 n=70 v=96
209760 On ch=6 n=63 v=96
209879 On ch=6 n=63 v=0
209879 On ch=6 n=70 v=0
209880 On ch=6 n=63 v=96
209880 On ch=6 n=70 v=96
209999 On ch=6 n=70 v=0
209999 On ch=6 n=63 v=0
210360 On ch=6 n=75 v=96
210360 On ch=6 n=63 v=96
210479 On ch=6 n=63 v=0
210479 On ch=6 n=75 v=0
210480 On ch=6 n=63 v=96
210480 On ch=6 n=75 v=96
210599 On ch=6 n=75 v=0
210599 On ch=6 n=63 v=0
210600 On ch=6 n=75 v=96
210600 On ch=6 n=63 v=96
210839 On ch=6 n=63 v=0
210839 On ch=6 n=75 v=0
210840 On ch=6 n=63 v=112
210840 On ch=6 n=75 v=112
210959 On ch=6 n=75 v=0
210959 On ch=6 n=63 v=0
210960 On ch=6 n=75 v=112
210960 On ch=6 n=63 v=112
211319 On ch=6 n=63 v=0
211319 On ch=6 n=75 v=0
211320 On ch=6 n=63 v=112
211320 On ch=6 n=75 v=112
211679 On ch=6 n=75 v=0
211679 On ch=6 n=63 v=0
211680 On ch=6 n=75 v=112
211680 On ch=6 n=63 v=112
212159 On ch=6 n=63 v=0
212159 On ch=6 n=75 v=0
212160 On ch=6 n=70 v=112
212160 On ch=6 n=77 v=112
212279 On ch=6 n=77 v=0
212279 On ch=6 n=70 v=0
212280 On ch=6 n=70 v=112
212280 On ch=6 n=77 v=112
212399 On ch=6 n=77 v=0
212399 On ch=6 n=70 v=0
212400 On ch=6 n=75 v=127
212400 On ch=6 n=63 v=127
212639 On ch=6 n=63 v=0
212639 On ch=6 n=75 v=0
212640 On ch=6 n=67 v=127
212640 On ch=6 n=79 v=127
212759 On ch=6 n=79 v=0
212759 On ch=6 n=67 v=0
212760 On ch=6 n=75 v=127
212760 On ch=6 n=63 v=127
212999 On ch=6 n=63 v=0
212999 On ch=6 n=75 v=0
213000 On ch=6 n=70 v=127
213000 On ch=6 n=58 v=127
213119 On ch=6 n=58 v=0
213119 On ch=6 n=70 v=0
213120 On ch=6 n=75 v=127
213120 On ch=6 n=63 v=127
213239 On ch=6 n=63 v=0
213239 On ch=6 n=75 v=0
213240 On ch=6 n=67 v=127
213359 On ch=6 n=67 v=0
213360 On ch=6 n=70 v=127
213479 On ch=6 n=70 v=0
213480 On ch=6 n=63 v=127
213719 On ch=6 n=63 v=0
213720 On ch=6 n=67 v=127
213959 On ch=6 n=67 v=0
213960 On ch=6 n=79 v=127
213960 On ch=6 n=67 v=127
214079 On ch=6 n=67 v=0
214079 On ch=6 n=79 v=0
214080 On ch=6 n=67 v=127
214080 On ch=6 n=79 v=127
214199 On ch=6 n=79 v=0
214199 On ch=6 n=67 v=0
214200 On ch=6 n=79 v=127
214200 On ch=6 n=67 v=127
214319 On ch=6 n=67 v=0
214319 On ch=6 n=79 v=0
214440 On ch=6 n=67 v=127
214440 On ch=6 n=79 v=127
214559 On ch=6 n=79 v=0
214559 On ch=6 n=67 v=0
214560 On ch=6 n=77 v=127
214679 On ch=6 n=77 v=0
214920 On ch=6 n=63 v=127
214920 On ch=6 n=75 v=127
215039 On ch=6 n=75 v=0
215039 On ch=6 n=63 v=0
215280 On ch=6 n=70 v=127
215280 On ch=6 n=58 v=127
215399 On ch=6 n=58 v=0
215399 On ch=6 n=70 v=0
219000 On ch=6 n=70 v=127
219000 On ch=6 n=58 v=127
219179 On ch=6 n=58 v=0
219179 On ch=6 n=70 v=0
219180 On ch=6 n=70 v=127
219180 On ch=6 n=58 v=127
219239 On ch=6 n=58 v=0
219239 On ch=6 n=70 v=0
219240 On ch=6 n=70 v=127
219240 On ch=6 n=58 v=127
219359 On ch=6 n=58 v=0
219359 On ch=6 n=70 v=0
219360 On ch=6 n=70 v=127
219360 On ch=6 n=58 v=127
219479 On ch=6 n=58 v=0
219479 On ch=6 n=70 v=0
219480 On ch=6 n=70 v=127
219480 On ch=6 n=58 v=127
219599 On ch=6 n=58 v=0
219599 On ch=6 n=70 v=0
219600 On ch=6 n=75 v=48
219600 On ch=6 n=63 v=48
219719 On ch=6 n=63 v=0
219719 On ch=6 n=75 v=0
222480 On ch=6 n=77 v=96
222539 On ch=6 n=77 v=0
222600 On ch=6 n=77 v=96
222659 On ch=6 n=77 v=0
223140 On ch=6 n=77 v=96
223199 On ch=6 n=77 v=0
223200 On ch=6 n=63 v=96
223200 On ch=6 n=75 v=96
223259 On ch=6 n=75 v=0
223259 On ch=6 n=63 v=0
223320 On ch=6 n=75 v=96
223320 On ch=6 n=63 v=96
223379 On ch=6 n=63 v=0
223379 On ch=6 n=75 v=0
223860 On ch=6 n=63 v=96
223860 On ch=6 n=75 v=96
223919 On ch=6 n=75 v=0
223919 On ch=6 n=63 v=0
223920 On ch=6 n=70 v=96
223920 On ch=6 n=58 v=96
223979 On ch=6 n=58 v=0
223979 On ch=6 n=70 v=0
224040 On ch=6 n=58 v=96
224040 On ch=6 n=70 v=96
224099 On ch=6 n=70 v=0
224099 On ch=6 n=58 v=0
225480 On ch=6 n=75 v=96
225480 On ch=6 n=63 v=96
225599 On ch=6 n=63 v=0
225599 On ch=6 n=75 v=0
225600 On ch=6 n=75 v=96
225600 On ch=6 n=63 v=96
225719 On ch=6 n=63 v=0
225719 On ch=6 n=75 v=0
225720 On ch=6 n=75 v=96
225720 On ch=6 n=63 v=96
225839 On ch=6 n=63 v=0
225839 On ch=6 n=75 v=0
225840 On ch=6 n=75 v=96
225840 On ch=6 n=63 v=96
225959 On ch=6 n=63 v=0
225959 On ch=6 n=75 v=0
225960 On ch=6 n=75 v=96
225960 On ch=6 n=63 v=96
226079 On ch=6 n=63 v=0
226079 On ch=6 n=75 v=0
226080 On ch=6 n=75 v=96
226080 On ch=6 n=63 v=96
226199 On ch=6 n=63 v=0
226199 On ch=6 n=75 v=0
227520 On ch=6 n=70 v=112
227520 On ch=6 n=58 v=112
228239 On ch=6 n=58 v=0
228239 On ch=6 n=70 v=0
228240 On ch=6 n=58 v=127
228240 On ch=6 n=70 v=127
228299 On ch=6 n=70 v=0
228299 On ch=6 n=58 v=0
228300 On ch=6 n=58 v=127
228300 On ch=6 n=70 v=127
228359 On ch=6 n=70 v=0
228359 On ch=6 n=58 v=0
228360 On ch=6 n=58 v=127
228360 On ch=6 n=70 v=127
228419 On ch=6 n=70 v=0
228419 On ch=6 n=58 v=0
228420 On ch=6 n=58 v=127
228420 On ch=6 n=70 v=127
228479 On ch=6 n=70 v=0
228479 On ch=6 n=58 v=0
228480 On ch=6 n=58 v=127
228480 On ch=6 n=70 v=127
228539 On ch=6 n=70 v=0
228539 On ch=6 n=58 v=0
228540 On ch=6 n=58 v=127
228540 On ch=6 n=70 v=127
228599 On ch=6 n=70 v=0
228599 On ch=6 n=58 v=0
228600 On ch=6 n=58 v=127
228600 On ch=6 n=70 v=127
228659 On ch=6 n=70 v=0
228659 On ch=6 n=58 v=0
228660 On ch=6 n=58 v=127
228660 On ch=6 n=70 v=127
228719 On ch=6 n=70 v=0
228719 On ch=6 n=58 v=0
228720 On ch=6 n=58 v=127
228720 On ch=6 n=70 v=127
228779 On ch=6 n=70 v=0
228779 On ch=6 n=58 v=0
228780 On ch=6 n=58 v=127
228780 On ch=6 n=70 v=127
228839 On ch=6 n=70 v=0
228839 On ch=6 n=58 v=0
228840 On ch=6 n=58 v=127
228840 On ch=6 n=70 v=127
228899 On ch=6 n=70 v=0
228899 On ch=6 n=58 v=0
228900 On ch=6 n=58 v=127
228900 On ch=6 n=70 v=127
228959 On ch=6 n=70 v=0
228959 On ch=6 n=58 v=0
228960 On ch=6 n=75 v=127
228960 On ch=6 n=63 v=127
229079 On ch=6 n=63 v=0
229079 On ch=6 n=75 v=0
238440 On ch=6 n=58 v=112
238440 On ch=6 n=70 v=112
238559 On ch=6 n=70 v=0
238559 On ch=6 n=58 v=0
238800 On ch=6 n=70 v=112
238800 On ch=6 n=58 v=112
238919 On ch=6 n=58 v=0
238919 On ch=6 n=70 v=0
239160 On ch=6 n=58 v=112
239160 On ch=6 n=70 v=112
239279 On ch=6 n=70 v=0
239279 On ch=6 n=58 v=0
239520 On ch=6 n=70 v=112
239520 On ch=6 n=58 v=112
239639 On ch=6 n=58 v=0
239639 On ch=6 n=70 v=0
239640 On ch=6 n=70 v=96
239640 On ch=6 n=58 v=96
239759 On ch=6 n=58 v=0
239759 On ch=6 n=70 v=0
239760 On ch=6 n=70 v=127
239760 On ch=6 n=58 v=127
240119 On ch=6 n=58 v=0
240119 On ch=6 n=70 v=0
240120 On ch=6 n=58 v=127
240120 On ch=6 n=70 v=127
240479 On ch=6 n=70 v=0
240479 On ch=6 n=58 v=0
240480 On ch=6 n=70 v=127
240480 On ch=6 n=58 v=127
240839 On ch=6 n=58 v=0
240839 On ch=6 n=70 v=0
240840 On ch=6 n=58 v=127
240840 On ch=6 n=70 v=127
240959 On ch=6 n=70 v=0
240959 On ch=6 n=58 v=0
240960 On ch=6 n=58 v=127
240960 On ch=6 n=70 v=127
241079 On ch=6 n=70 v=0
241079 On ch=6 n=58 v=0
241080 On ch=6 n=58 v=127
241080 On ch=6 n=70 v=127
241199 On ch=6 n=70 v=0
241199 On ch=6 n=58 v=0
241200 On ch=6 n=63 v=127
241200 On ch=6 n=75 v=127
241679 On ch=6 n=75 v=0
241679 On ch=6 n=63 v=0
243480 On ch=6 n=67 v=127
243539 On ch=6 n=67 v=0
243600 On ch=6 n=67 v=127
243659 On ch=6 n=67 v=0
243840 On ch=6 n=63 v=127
243840 On ch=6 n=75 v=127
243899 On ch=6 n=75 v=0
243899 On ch=6 n=63 v=0
243960 On ch=6 n=75 v=127
243960 On ch=6 n=63 v=127
244019 On ch=6 n=63 v=0
244019 On ch=6 n=75 v=0
244200 On ch=6 n=63 v=127
244200 On ch=6 n=75 v=127
244259 On ch=6 n=75 v=0
244259 On ch=6 n=63 v=0
244320 On ch=6 n=70 v=127
244320 On ch=6 n=58 v=127
244379 On ch=6 n=58 v=0
244379 On ch=6 n=70 v=0
244560 On ch=6 n=67 v=127
244619 On ch=6 n=67 v=0
244680 On ch=6 n=67 v=127
244739 On ch=6 n=67 v=0
244920 On ch=6 n=75 v=127
244920 On ch=6 n=63 v=127
244979 On ch=6 n=63 v=0
244979 On ch=6 n=75 v=0
245040 On ch=6 n=63 v=127
245040 On ch=6 n=75 v=127
245099 On ch=6 n=75 v=0
245099 On ch=6 n=63 v=0
245280 On ch=6 n=75 v=127
245280 On ch=6 n=63 v=127
245339 On ch=6 n=63 v=0
245339 On ch=6 n=75 v=0
245520 On ch=6 n=63 v=127
245520 On ch=6 n=75 v=127
245579 On ch=6 n=75 v=0
245579 On ch=6 n=63 v=0
245760 On ch=6 n=75 v=127
245760 On ch=6 n=63 v=127
245819 On ch=6 n=63 v=0
245819 On ch=6 n=75 v=0
246000 On ch=6 n=75 v=127
246000 On ch=6 n=63 v=127
246059 On ch=6 n=63 v=0
246059 On ch=6 n=75 v=0
246240 On ch=6 n=63 v=127
246240 On ch=6 n=75 v=127
246299 On ch=6 n=75 v=0
246299 On ch=6 n=63 v=0
246480 On ch=6 n=75 v=127
246480 On ch=6 n=63 v=127
246539 On ch=6 n=63 v=0
246539 On ch=6 n=75 v=0
250380 On ch=6 n=58 v=122
250439 On ch=6 n=58 v=0
250440 On ch=6 n=63 v=124
250499 On ch=6 n=63 v=0
250500 On ch=6 n=67 v=126
250559 On ch=6 n=67 v=0
250560 On ch=6 n=70 v=127
250919 On ch=6 n=70 v=0
250920 On ch=6 n=63 v=96
251039 On ch=6 n=63 v=0
251280 On ch=6 n=63 v=96
251280 On ch=6 n=75 v=96
251399 On ch=6 n=75 v=0
251399 On ch=6 n=63 v=0
251640 On ch=6 n=75 v=96
251640 On ch=6 n=63 v=96
251759 On ch=6 n=63 v=0
251759 On ch=6 n=75 v=0
252000 On ch=6 n=75 v=96
252000 On ch=6 n=63 v=96
252059 On ch=6 n=63 v=0
252059 On ch=6 n=75 v=0
252120 On ch=6 n=75 v=96
252120 On ch=6 n=63 v=96
252179 On ch=6 n=63 v=0
252179 On ch=6 n=75 v=0
252240 On ch=6 n=75 v=96
252240 On ch=6 n=63 v=96
252299 On ch=6 n=63 v=0
252299 On ch=6 n=75 v=0
252360 On ch=6 n=75 v=96
252360 On ch=6 n=63 v=96
252479 On ch=6 n=63 v=0
252479 On ch=6 n=75 v=0
254520 On ch=6 n=77 v=96
255239 On ch=6 n=77 v=0
255960 On ch=6 n=67 v=127
256019 On ch=6 n=67 v=0
256020 On ch=6 n=67 v=127
256079 On ch=6 n=67 v=0
256080 On ch=6 n=67 v=127
256139 On ch=6 n=67 v=0
256140 On ch=6 n=67 v=127
256199 On ch=6 n=67 v=0
256200 On ch=6 n=67 v=127
256259 On ch=6 n=67 v=0
256260 On ch=6 n=67 v=127
256319 On ch=6 n=67 v=0
256320 On ch=6 n=67 v=127
256379 On ch=6 n=67 v=0
256380 On ch=6 n=67 v=127
256439 On ch=6 n=67 v=0
256440 On ch=6 n=67 v=127
256499 On ch=6 n=67 v=0
256500 On ch=6 n=67 v=127
256559 On ch=6 n=67 v=0
256560 On ch=6 n=67 v=127
256619 On ch=6 n=67 v=0
256620 On ch=6 n=67 v=127
256679 On ch=6 n=67 v=0
256680 On ch=6 n=67 v=48
256799 On ch=6 n=67 v=0
279720 On ch=6 n=58 v=48
279720 On ch=6 n=70 v=48
280199 On ch=6 n=70 v=0
280199 On ch=6 n=58 v=0
280200 On ch=6 n=70 v=56
280200 On ch=6 n=58 v=56
280259 On ch=6 n=58 v=0
280259 On ch=6 n=70 v=0
280320 On ch=6 n=70 v=58
280320 On ch=6 n=58 v=58
280379 On ch=6 n=58 v=0
280379 On ch=6 n=70 v=0
280440 On ch=6 n=70 v=60
280440 On ch=6 n=58 v=60
280499 On ch=6 n=58 v=0
280499 On ch=6 n=70 v=0
280560 On ch=6 n=70 v=62
280560 On ch=6 n=58 v=62
280619 On ch=6 n=58 v=0
280619 On ch=6 n=70 v=0
280680 On ch=6 n=70 v=64
280680 On ch=6 n=58 v=64
280739 On ch=6 n=58 v=0
280739 On ch=6 n=70 v=0
280800 On ch=6 n=70 v=48
280800 On ch=6 n=58 v=48
280859 On ch=6 n=58 v=0
280859 On ch=6 n=70 v=0
280920 On ch=6 n=70 v=48
280920 On ch=6 n=58 v=48
280979 On ch=6 n=58 v=0
280979 On ch=6 n=70 v=0
281040 On ch=6 n=70 v=48
281040 On ch=6 n=58 v=48
281099 On ch=6 n=58 v=0
281099 On ch=6 n=70 v=0
281160 On ch=6 n=67 v=48
281160 On ch=6 n=63 v=48
281219 On ch=6 n=63 v=0
281219 On ch=6 n=67 v=0
286800 On ch=6 n=70 v=48
286800 On ch=6 n=58 v=48
286839 On ch=6 n=58 v=0
286839 On ch=6 n=70 v=0
286840 On ch=6 n=58 v=48
286840 On ch=6 n=70 v=48
286879 On ch=6 n=70 v=0
286879 On ch=6 n=58 v=0
286880 On ch=6 n=58 v=48
286880 On ch=6 n=70 v=48
286919 On ch=6 n=70 v=0
286919 On ch=6 n=58 v=0
286920 On ch=6 n=58 v=48
286920 On ch=6 n=70 v=48
287039 On ch=6 n=70 v=0
287039 On ch=6 n=58 v=0
287160 On ch=6 n=70 v=52
287160 On ch=6 n=58 v=52
287199 On ch=6 n=58 v=0
287199 On ch=6 n=70 v=0
287200 On ch=6 n=70 v=52
287200 On ch=6 n=58 v=52
287239 On ch=6 n=58 v=0
287239 On ch=6 n=70 v=0
287240 On ch=6 n=70 v=53
287240 On ch=6 n=58 v=53
287279 On ch=6 n=58 v=0
287279 On ch=6 n=70 v=0
287280 On ch=6 n=70 v=54
287280 On ch=6 n=58 v=54
287399 On ch=6 n=58 v=0
287399 On ch=6 n=70 v=0
287520 On ch=6 n=70 v=58
287520 On ch=6 n=58 v=58
287559 On ch=6 n=58 v=0
287559 On ch=6 n=70 v=0
287560 On ch=6 n=70 v=58
287560 On ch=6 n=58 v=58
287599 On ch=6 n=58 v=0
287599 On ch=6 n=70 v=0
287600 On ch=6 n=70 v=59
287600 On ch=6 n=58 v=59
287639 On ch=6 n=58 v=0
287639 On ch=6 n=70 v=0
287640 On ch=6 n=70 v=60
287640 On ch=6 n=58 v=60
287759 On ch=6 n=58 v=0
287759 On ch=6 n=70 v=0
287880 On ch=6 n=58 v=64
287880 On ch=6 n=70 v=64
287919 On ch=6 n=70 v=0
287919 On ch=6 n=58 v=0
287920 On ch=6 n=58 v=65
287920 On ch=6 n=70 v=65
287959 On ch=6 n=70 v=0
287959 On ch=6 n=58 v=0
287960 On ch=6 n=58 v=65
287960 On ch=6 n=70 v=65
287999 On ch=6 n=70 v=0
287999 On ch=6 n=58 v=0
288000 On ch=6 n=58 v=66
288000 On ch=6 n=70 v=66
288119 On ch=6 n=70 v=0
288119 On ch=6 n=58 v=0
288240 On ch=6 n=70 v=70
288240 On ch=6 n=58 v=70
288279 On ch=6 n=58 v=0
288279 On ch=6 n=70 v=0
288280 On ch=6 n=70 v=70
288280 On ch=6 n=58 v=70
288319 On ch=6 n=58 v=0
288319 On ch=6 n=70 v=0
288320 On ch=6 n=70 v=71
288320 On ch=6 n=58 v=71
288359 On ch=6 n=58 v=0
288359 On ch=6 n=70 v=0
288360 On ch=6 n=70 v=72
288360 On ch=6 n=58 v=72
288479 On ch=6 n=58 v=0
288479 On ch=6 n=70 v=0
288600 On ch=6 n=58 v=76
288600 On ch=6 n=70 v=76
288639 On ch=6 n=70 v=0
288639 On ch=6 n=58 v=0
288640 On ch=6 n=58 v=76
288640 On ch=6 n=70 v=76
288679 On ch=6 n=70 v=0
288679 On ch=6 n=58 v=0
288680 On ch=6 n=58 v=77
288680 On ch=6 n=70 v=77
288719 On ch=6 n=70 v=0
288719 On ch=6 n=58 v=0
288720 On ch=6 n=58 v=78
288720 On ch=6 n=70 v=78
288839 On ch=6 n=70 v=0
288839 On ch=6 n=58 v=0
288960 On ch=6 n=70 v=82
288960 On ch=6 n=58 v=82
288999 On ch=6 n=58 v=0
288999 On ch=6 n=70 v=0
289000 On ch=6 n=70 v=82
289000 On ch=6 n=58 v=82
289039 On ch=6 n=58 v=0
289039 On ch=6 n=70 v=0
289040 On ch=6 n=70 v=83
289040 On ch=6 n=58 v=83
289079 On ch=6 n=58 v=0
289079 On ch=6 n=70 v=0
289080 On ch=6 n=70 v=84
289080 On ch=6 n=58 v=84
289199 On ch=6 n=58 v=0
289199 On ch=6 n=70 v=0
289320 On ch=6 n=58 v=88
289320 On ch=6 n=70 v=88
289359 On ch=6 n=70 v=0
289359 On ch=6 n=58 v=0
289360 On ch=6 n=58 v=88
289360 On ch=6 n=70 v=88
289399 On ch=6 n=70 v=0
289399 On ch=6 n=58 v=0
289400 On ch=6 n=58 v=89
289400 On ch=6 n=70 v=89
289439 On ch=6 n=70 v=0
289439 On ch=6 n=58 v=0
289440 On ch=6 n=58 v=90
289440 On ch=6 n=70 v=90
289559 On ch=6 n=70 v=0
289559 On ch=6 n=58 v=0
289680 On ch=6 n=70 v=94
289680 On ch=6 n=58 v=94
289719 On ch=6 n=58 v=0
289719 On ch=6 n=70 v=0
289720 On ch=6 n=70 v=94
289720 On ch=6 n=58 v=94
289759 On ch=6 n=58 v=0
289759 On ch=6 n=70 v=0
289760 On ch=6 n=70 v=95
289760 On ch=6 n=58 v=95
289799 On ch=6 n=58 v=0
289799 On ch=6 n=70 v=0
289800 On ch=6 n=63 v=96
289800 On ch=6 n=75 v=96
290039 On ch=6 n=75 v=0
290039 On ch=6 n=63 v=0
290040 On ch=6 n=67 v=96
290040 On ch=6 n=79 v=96
290159 On ch=6 n=79 v=0
290159 On ch=6 n=67 v=0
290160 On ch=6 n=75 v=96
290160 On ch=6 n=63 v=96
290399 On ch=6 n=63 v=0
290399 On ch=6 n=75 v=0
290400 On ch=6 n=70 v=96
290400 On ch=6 n=58 v=96
290519 On ch=6 n=58 v=0
290519 On ch=6 n=70 v=0
290520 On ch=6 n=75 v=96
290520 On ch=6 n=63 v=96
290639 On ch=6 n=63 v=0
290639 On ch=6 n=75 v=0
290640 On ch=6 n=67 v=96
290640 On ch=6 n=79 v=96
290759 On ch=6 n=79 v=0
290759 On ch=6 n=67 v=0
290760 On ch=6 n=58 v=96
290760 On ch=6 n=70 v=96
290879 On ch=6 n=70 v=0
290879 On ch=6 n=58 v=0
290880 On ch=6 n=70 v=96
290880 On ch=6 n=58 v=96
290939 On ch=6 n=58 v=0
290939 On ch=6 n=70 v=0
290940 On ch=6 n=70 v=96
290940 On ch=6 n=58 v=96
290999 On ch=6 n=58 v=0
290999 On ch=6 n=70 v=0
291000 On ch=6 n=70 v=96
291000 On ch=6 n=58 v=96
291059 On ch=6 n=58 v=0
291059 On ch=6 n=70 v=0
291060 On ch=6 n=70 v=96
291060 On ch=6 n=58 v=96
291119 On ch=6 n=58 v=0
291119 On ch=6 n=70 v=0
291120 On ch=6 n=70 v=96
291120 On ch=6 n=58 v=96
291179 On ch=6 n=58 v=0
291179 On ch=6 n=70 v=0
291180 On ch=6 n=70 v=96
291180 On ch=6 n=58 v=96
291239 On ch=6 n=58 v=0
291239 On ch=6 n=70 v=0
291240 On ch=6 n=70 v=96
291240 On ch=6 n=58 v=96
291299 On ch=6 n=58 v=0
291299 On ch=6 n=70 v=0
291300 On ch=6 n=70 v=96
291300 On ch=6 n=58 v=96
291359 On ch=6 n=58 v=0
291359 On ch=6 n=70 v=0
291360 On ch=6 n=70 v=96
291360 On ch=6 n=58 v=96
291419 On ch=6 n=58 v=0
291419 On ch=6 n=70 v=0
291420 On ch=6 n=70 v=96
291420 On ch=6 n=58 v=96
291479 On ch=6 n=58 v=0
291479 On ch=6 n=70 v=0
291480 On ch=6 n=70 v=96
291480 On ch=6 n=58 v=96
291539 On ch=6 n=58 v=0
291539 On ch=6 n=70 v=0
291540 On ch=6 n=70 v=96
291540 On ch=6 n=58 v=96
291599 On ch=6 n=58 v=0
291599 On ch=6 n=70 v=0
291600 On ch=6 n=70 v=96
291600 On ch=6 n=58 v=96
291659 On ch=6 n=58 v=0
291659 On ch=6 n=70 v=0
291660 On ch=6 n=70 v=96
291660 On ch=6 n=58 v=96
291719 On ch=6 n=58 v=0
291719 On ch=6 n=70 v=0
291720 On ch=6 n=70 v=96
291720 On ch=6 n=58 v=96
291779 On ch=6 n=58 v=0
291779 On ch=6 n=70 v=0
291780 On ch=6 n=70 v=96
291780 On ch=6 n=58 v=96
291839 On ch=6 n=58 v=0
291839 On ch=6 n=70 v=0
291840 On ch=6 n=70 v=96
291840 On ch=6 n=58 v=96
291899 On ch=6 n=58 v=0
291899 On ch=6 n=70 v=0
291900 On ch=6 n=70 v=96
291900 On ch=6 n=58 v=96
291959 On ch=6 n=58 v=0
291959 On ch=6 n=70 v=0
291960 On ch=6 n=70 v=96
291960 On ch=6 n=58 v=96
292019 On ch=6 n=58 v=0
292019 On ch=6 n=70 v=0
292020 On ch=6 n=70 v=96
292020 On ch=6 n=58 v=96
292079 On ch=6 n=58 v=0
292079 On ch=6 n=70 v=0
292080 On ch=6 n=70 v=96
292080 On ch=6 n=58 v=96
292139 On ch=6 n=58 v=0
292139 On ch=6 n=70 v=0
292140 On ch=6 n=70 v=96
292140 On ch=6 n=58 v=96
292199 On ch=6 n=58 v=0
292199 On ch=6 n=70 v=0
292200 On ch=6 n=70 v=96
292200 On ch=6 n=58 v=96
292259 On ch=6 n=58 v=0
292259 On ch=6 n=70 v=0
292260 On ch=6 n=70 v=96
292260 On ch=6 n=58 v=96
292319 On ch=6 n=58 v=0
292319 On ch=6 n=70 v=0
292320 On ch=6 n=70 v=96
292320 On ch=6 n=58 v=96
292379 On ch=6 n=58 v=0
292379 On ch=6 n=70 v=0
292380 On ch=6 n=70 v=96
292380 On ch=6 n=58 v=96
292439 On ch=6 n=58 v=0
292439 On ch=6 n=70 v=0
292440 On ch=6 n=70 v=96
292440 On ch=6 n=58 v=96
292499 On ch=6 n=58 v=0
292499 On ch=6 n=70 v=0
292500 On ch=6 n=70 v=96
292500 On ch=6 n=58 v=96
292559 On ch=6 n=58 v=0
292559 On ch=6 n=70 v=0
292560 On ch=6 n=70 v=96
292560 On ch=6 n=58 v=96
292619 On ch=6 n=58 v=0
292619 On ch=6 n=70 v=0
292620 On ch=6 n=70 v=96
292620 On ch=6 n=58 v=96
292679 On ch=6 n=58 v=0
292679 On ch=6 n=70 v=0
292680 On ch=6 n=58 v=96
292680 On ch=6 n=70 v=96
292799 On ch=6 n=70 v=0
292799 On ch=6 n=58 v=0
292800 On ch=6 n=73 v=96
292919 On ch=6 n=73 v=0
292920 On ch=6 n=73 v=96
293039 On ch=6 n=73 v=0
293040 On ch=6 n=73 v=96
293399 On ch=6 n=73 v=0
293520 On ch=6 n=63 v=112
293520 On ch=6 n=75 v=112
293579 On ch=6 n=75 v=0
293579 On ch=6 n=63 v=0
293580 On ch=6 n=63 v=96
293580 On ch=6 n=75 v=96
293639 On ch=6 n=75 v=0
293639 On ch=6 n=63 v=0
293640 On ch=6 n=63 v=96
293640 On ch=6 n=75 v=96
293759 On ch=6 n=75 v=0
293759 On ch=6 n=63 v=0
293880 On ch=6 n=63 v=112
293880 On ch=6 n=75 v=112
293939 On ch=6 n=75 v=0
293939 On ch=6 n=63 v=0
293940 On ch=6 n=63 v=96
293940 On ch=6 n=75 v=96
293999 On ch=6 n=75 v=0
293999 On ch=6 n=63 v=0
294000 On ch=6 n=63 v=96
294000 On ch=6 n=75 v=96
294119 On ch=6 n=75 v=0
294119 On ch=6 n=63 v=0
294240 On ch=6 n=63 v=112
294240 On ch=6 n=75 v=112
294299 On ch=6 n=75 v=0
294299 On ch=6 n=63 v=0
294300 On ch=6 n=63 v=96
294300 On ch=6 n=75 v=96
294359 On ch=6 n=75 v=0
294359 On ch=6 n=63 v=0
294360 On ch=6 n=63 v=96
294360 On ch=6 n=75 v=96
294479 On ch=6 n=75 v=0
294479 On ch=6 n=63 v=0
294600 On ch=6 n=77 v=96
294659 On ch=6 n=77 v=0
294660 On ch=6 n=77 v=96
294719 On ch=6 n=77 v=0
294720 On ch=6 n=77 v=96
294839 On ch=6 n=77 v=0
295320 On ch=6 n=63 v=96
295320 On ch=6 n=75 v=96
295439 On ch=6 n=75 v=0
295439 On ch=6 n=63 v=0
295440 On ch=6 n=63 v=96
295440 On ch=6 n=75 v=96
295559 On ch=6 n=75 v=0
295559 On ch=6 n=63 v=0
295560 On ch=6 n=75 v=127
295560 On ch=6 n=63 v=127
295619 On ch=6 n=63 v=0
295619 On ch=6 n=75 v=0
295620 On ch=6 n=75 v=127
295620 On ch=6 n=63 v=127
295679 On ch=6 n=63 v=0
295679 On ch=6 n=75 v=0
295680 On ch=6 n=75 v=127
295680 On ch=6 n=63 v=127
295739 On ch=6 n=63 v=0
295739 On ch=6 n=75 v=0
295740 On ch=6 n=75 v=127
295740 On ch=6 n=63 v=127
295799 On ch=6 n=63 v=0
295799 On ch=6 n=75 v=0
295800 On ch=6 n=75 v=127
295800 On ch=6 n=63 v=127
295859 On ch=6 n=63 v=0
295859 On ch=6 n=75 v=0
295860 On ch=6 n=75 v=127
295860 On ch=6 n=63 v=127
295919 On ch=6 n=63 v=0
295919 On ch=6 n=75 v=0
295920 On ch=6 n=70 v=127
295920 On ch=6 n=58 v=127
295979 On ch=6 n=58 v=0
295979 On ch=6 n=70 v=0
295980 On ch=6 n=70 v=127
295980 On ch=6 n=58 v=127
296039 On ch=6 n=58 v=0
296039 On ch=6 n=70 v=0
296040 On ch=6 n=70 v=127
296040 On ch=6 n=58 v=127
296099 On ch=6 n=58 v=0
296099 On ch=6 n=70 v=0
296100 On ch=6 n=70 v=127
296100 On ch=6 n=58 v=127
296159 On ch=6 n=58 v=0
296159 On ch=6 n=70 v=0
296160 On ch=6 n=70 v=127
296160 On ch=6 n=58 v=127
296219 On ch=6 n=58 v=0
296219 On ch=6 n=70 v=0
296220 On ch=6 n=70 v=127
296220 On ch=6 n=58 v=127
296279 On ch=6 n=58 v=0
296279 On ch=6 n=70 v=0
296280 On ch=6 n=75 v=48
296280 On ch=6 n=63 v=48
296399 On ch=6 n=63 v=0
296399 On ch=6 n=75 v=0
299280 On ch=6 n=58 v=96
299280 On ch=6 n=70 v=96
299639 On ch=6 n=70 v=0
299639 On ch=6 n=58 v=0
299640 On ch=6 n=70 v=96
299640 On ch=6 n=58 v=96
299999 On ch=6 n=58 v=0
299999 On ch=6 n=70 v=0
300000 On ch=6 n=77 v=96
300000 On ch=6 n=70 v=96
300239 On ch=6 n=70 v=0
300239 On ch=6 n=77 v=0
300240 On ch=6 n=77 v=96
300240 On ch=6 n=70 v=96
300479 On ch=6 n=70 v=0
300479 On ch=6 n=77 v=0
300480 On ch=6 n=70 v=96
300480 On ch=6 n=77 v=96
300539 On ch=6 n=77 v=0
300539 On ch=6 n=70 v=0
300600 On ch=6 n=77 v=96
300600 On ch=6 n=70 v=96
300659 On ch=6 n=70 v=0
300659 On ch=6 n=77 v=0
300720 On ch=6 n=58 v=127
300720 On ch=6 n=70 v=127
300779 On ch=6 n=70 v=0
300779 On ch=6 n=58 v=0
300840 On ch=6 n=58 v=127
300840 On ch=6 n=70 v=127
300899 On ch=6 n=70 v=0
300899 On ch=6 n=58 v=0
300960 On ch=6 n=58 v=127
300960 On ch=6 n=70 v=127
301019 On ch=6 n=70 v=0
301019 On ch=6 n=58 v=0
301080 On ch=6 n=58 v=127
301080 On ch=6 n=70 v=127
301139 On ch=6 n=70 v=0
301139 On ch=6 n=58 v=0
301200 On ch=6 n=58 v=127
301200 On ch=6 n=70 v=127
301259 On ch=6 n=70 v=0
301259 On ch=6 n=58 v=0
301320 On ch=6 n=58 v=127
301320 On ch=6 n=70 v=127
301379 On ch=6 n=70 v=0
301379 On ch=6 n=58 v=0
301440 On ch=6 n=58 v=127
301440 On ch=6 n=70 v=127
301499 On ch=6 n=70 v=0
301499 On ch=6 n=58 v=0
301560 On ch=6 n=58 v=127
301560 On ch=6 n=70 v=127
301619 On ch=6 n=70 v=0
301619 On ch=6 n=58 v=0
301680 On ch=6 n=58 v=127
301680 On ch=6 n=70 v=127
301739 On ch=6 n=70 v=0
301739 On ch=6 n=58 v=0
301800 On ch=6 n=58 v=127
301800 On ch=6 n=70 v=127
301859 On ch=6 n=70 v=0
301859 On ch=6 n=58 v=0
301920 On ch=6 n=58 v=127
301920 On ch=6 n=70 v=127
301979 On ch=6 n=70 v=0
301979 On ch=6 n=58 v=0
302040 On ch=6 n=63 v=127
302040 On ch=6 n=67 v=127
302159 On ch=6 n=67 v=0
302159 On ch=6 n=63 v=0
302400 On ch=6 n=63 v=127
302400 On ch=6 n=75 v=127
302519 On ch=6 n=75 v=0
302519 On ch=6 n=63 v=0
302760 On ch=6 n=63 v=127
302760 On ch=6 n=75 v=127
302879 On ch=6 n=75 v=0
302879 On ch=6 n=63 v=0
0 PrCh ch=7 p=47
0 Par ch=7 c=7 v=127
0 Par ch=7 c=10 v=37
0 Par ch=7 c=93 v=0
0 Par ch=7 c=91 v=0
0 On ch=7 n=51 v=96
59 On ch=7 n=51 v=0
360 On ch=7 n=51 v=96
419 On ch=7 n=51 v=0
12960 On ch=7 n=51 v=127
13079 On ch=7 n=51 v=0
13320 On ch=7 n=51 v=127
13439 On ch=7 n=51 v=0
13560 On ch=7 n=46 v=127
13679 On ch=7 n=46 v=0
13680 On ch=7 n=51 v=127
13799 On ch=7 n=51 v=0
13800 On ch=7 n=51 v=127
13919 On ch=7 n=51 v=0
13920 On ch=7 n=51 v=127
14039 On ch=7 n=51 v=0
14040 On ch=7 n=51 v=127
14159 On ch=7 n=51 v=0
14280 On ch=7 n=51 v=127
14399 On ch=7 n=51 v=0
14400 On ch=7 n=51 v=127
14519 On ch=7 n=51 v=0
14520 On ch=7 n=51 v=127
14639 On ch=7 n=51 v=0
14640 On ch=7 n=51 v=127
14759 On ch=7 n=51 v=0
14760 On ch=7 n=51 v=127
14879 On ch=7 n=51 v=0
15000 On ch=7 n=51 v=127
15119 On ch=7 n=51 v=0
15120 On ch=7 n=51 v=127
15139 On ch=7 n=51 v=0
15140 On ch=7 n=51 v=127
15159 On ch=7 n=51 v=0
15160 On ch=7 n=51 v=127
15179 On ch=7 n=51 v=0
15180 On ch=7 n=51 v=127
15199 On ch=7 n=51 v=0
15200 On ch=7 n=51 v=127
15219 On ch=7 n=51 v=0
15220 On ch=7 n=51 v=127
15239 On ch=7 n=51 v=0
15240 On ch=7 n=51 v=127
15259 On ch=7 n=51 v=0
15260 On ch=7 n=51 v=127
15279 On ch=7 n=51 v=0
15280 On ch=7 n=51 v=127
15299 On ch=7 n=51 v=0
15300 On ch=7 n=51 v=127
15319 On ch=7 n=51 v=0
15320 On ch=7 n=51 v=127
15339 On ch=7 n=51 v=0
15340 On ch=7 n=51 v=127
15359 On ch=7 n=51 v=0
15360 On ch=7 n=51 v=127
15379 On ch=7 n=51 v=0
15380 On ch=7 n=51 v=127
15399 On ch=7 n=51 v=0
15400 On ch=7 n=51 v=127
15419 On ch=7 n=51 v=0
15420 On ch=7 n=51 v=127
15439 On ch=7 n=51 v=0
15440 On ch=7 n=51 v=127
15459 On ch=7 n=51 v=0
15460 On ch=7 n=51 v=127
15479 On ch=7 n=51 v=0
15480 On ch=7 n=46 v=127
15499 On ch=7 n=46 v=0
15500 On ch=7 n=46 v=127
15519 On ch=7 n=46 v=0
15520 On ch=7 n=46 v=127
15539 On ch=7 n=46 v=0
15540 On ch=7 n=46 v=127
15559 On ch=7 n=46 v=0
15560 On ch=7 n=46 v=127
15579 On ch=7 n=46 v=0
15580 On ch=7 n=46 v=127
15599 On ch=7 n=46 v=0
15600 On ch=7 n=46 v=127
15619 On ch=7 n=46 v=0
15620 On ch=7 n=46 v=127
15639 On ch=7 n=46 v=0
15640 On ch=7 n=46 v=127
15659 On ch=7 n=46 v=0
15660 On ch=7 n=46 v=127
15679 On ch=7 n=46 v=0
15680 On ch=7 n=46 v=127
15699 On ch=7 n=46 v=0
15700 On ch=7 n=46 v=127
15719 On ch=7 n=46 v=0
15720 On ch=7 n=46 v=127
15739 On ch=7 n=46 v=0
15740 On ch=7 n=46 v=127
15759 On ch=7 n=46 v=0
15760 On ch=7 n=46 v=127
15779 On ch=7 n=46 v=0
15780 On ch=7 n=46 v=127
15799 On ch=7 n=46 v=0
15800 On ch=7 n=46 v=127
15819 On ch=7 n=46 v=0
15820 On ch=7 n=46 v=127
15839 On ch=7 n=46 v=0
23040 On ch=7 n=51 v=96
23099 On ch=7 n=51 v=0
23160 On ch=7 n=51 v=96
23219 On ch=7 n=51 v=0
23700 On ch=7 n=51 v=96
23729 On ch=7 n=51 v=0
23760 On ch=7 n=46 v=96
23819 On ch=7 n=46 v=0
23880 On ch=7 n=46 v=96
23939 On ch=7 n=46 v=0
26040 On ch=7 n=46 v=96
26099 On ch=7 n=46 v=0
26160 On ch=7 n=46 v=96
26219 On ch=7 n=46 v=0
26280 On ch=7 n=46 v=96
26339 On ch=7 n=46 v=0
26400 On ch=7 n=46 v=96
26459 On ch=7 n=46 v=0
26520 On ch=7 n=46 v=96
26579 On ch=7 n=46 v=0
26640 On ch=7 n=46 v=96
26699 On ch=7 n=46 v=0
27000 On ch=7 n=51 v=96
27059 On ch=7 n=51 v=0
38880 On ch=7 n=46 v=96
38939 On ch=7 n=46 v=0
39240 On ch=7 n=46 v=96
39299 On ch=7 n=46 v=0
39600 On ch=7 n=51 v=96
39659 On ch=7 n=51 v=0
39960 On ch=7 n=51 v=96
40019 On ch=7 n=51 v=0
40320 On ch=7 n=46 v=127
40379 On ch=7 n=46 v=0
40440 On ch=7 n=46 v=127
40499 On ch=7 n=46 v=0
40800 On ch=7 n=46 v=127
40859 On ch=7 n=46 v=0
41160 On ch=7 n=51 v=127
41219 On ch=7 n=51 v=0
41520 On ch=7 n=51 v=127
41579 On ch=7 n=51 v=0
41760 On ch=7 n=46 v=127
41819 On ch=7 n=46 v=0
41880 On ch=7 n=46 v=127
41939 On ch=7 n=46 v=0
42000 On ch=7 n=46 v=127
42059 On ch=7 n=46 v=0
42120 On ch=7 n=46 v=127
42149 On ch=7 n=46 v=0
44520 On ch=7 n=51 v=127
44579 On ch=7 n=51 v=0
45240 On ch=7 n=46 v=127
45299 On ch=7 n=46 v=0
45600 On ch=7 n=51 v=127
45659 On ch=7 n=51 v=0
45840 On ch=7 n=46 v=127
45899 On ch=7 n=46 v=0
46080 On ch=7 n=46 v=127
46139 On ch=7 n=46 v=0
46320 On ch=7 n=46 v=127
46379 On ch=7 n=46 v=0
46560 On ch=7 n=46 v=127
46619 On ch=7 n=46 v=0
46800 On ch=7 n=46 v=127
46859 On ch=7 n=46 v=0
47040 On ch=7 n=46 v=127
47099 On ch=7 n=46 v=0
51480 On ch=7 n=46 v=127
51539 On ch=7 n=46 v=0
51840 On ch=7 n=46 v=127
51899 On ch=7 n=46 v=0
52200 On ch=7 n=46 v=127
52259 On ch=7 n=46 v=0
52560 On ch=7 n=46 v=127
52619 On ch=7 n=46 v=0
52680 On ch=7 n=46 v=127
52739 On ch=7 n=46 v=0
52800 On ch=7 n=46 v=127
52859 On ch=7 n=46 v=0
52920 On ch=7 n=46 v=127
52979 On ch=7 n=46 v=0
67320 On ch=7 n=51 v=127
67439 On ch=7 n=51 v=0
67680 On ch=7 n=51 v=127
67799 On ch=7 n=51 v=0
67920 On ch=7 n=46 v=127
68039 On ch=7 n=46 v=0
68040 On ch=7 n=51 v=127
68159 On ch=7 n=51 v=0
68160 On ch=7 n=51 v=127
68279 On ch=7 n=51 v=0
68280 On ch=7 n=51 v=127
68399 On ch=7 n=51 v=0
68400 On ch=7 n=51 v=127
68519 On ch=7 n=51 v=0
68640 On ch=7 n=51 v=127
68759 On ch=7 n=51 v=0
68760 On ch=7 n=51 v=127
68879 On ch=7 n=51 v=0
68880 On ch=7 n=51 v=127
68999 On ch=7 n=51 v=0
69000 On ch=7 n=51 v=127
69119 On ch=7 n=51 v=0
69120 On ch=7 n=51 v=127
69239 On ch=7 n=51 v=0
69360 On ch=7 n=51 v=127
69479 On ch=7 n=51 v=0
69480 On ch=7 n=51 v=127
69499 On ch=7 n=51 v=0
69500 On ch=7 n=51 v=127
69519 On ch=7 n=51 v=0
69520 On ch=7 n=51 v=127
69539 On ch=7 n=51 v=0
69540 On ch=7 n=51 v=127
69559 On ch=7 n=51 v=0
69560 On ch=7 n=51 v=127
69579 On ch=7 n=51 v=0
69580 On ch=7 n=51 v=127
69599 On ch=7 n=51 v=0
69600 On ch=7 n=51 v=127
69619 On ch=7 n=51 v=0
69620 On ch=7 n=51 v=127
69639 On ch=7 n=51 v=0
69640 On ch=7 n=51 v=127
69659 On ch=7 n=51 v=0
69660 On ch=7 n=51 v=127
69679 On ch=7 n=51 v=0
69680 On ch=7 n=51 v=127
69699 On ch=7 n=51 v=0
69700 On ch=7 n=51 v=127
69719 On ch=7 n=51 v=0
69720 On ch=7 n=51 v=127
69739 On ch=7 n=51 v=0
69740 On ch=7 n=51 v=127
69759 On ch=7 n=51 v=0
69760 On ch=7 n=51 v=127
69779 On ch=7 n=51 v=0
69780 On ch=7 n=51 v=127
69799 On ch=7 n=51 v=0
69800 On ch=7 n=51 v=127
69819 On ch=7 n=51 v=0
69820 On ch=7 n=51 v=127
69839 On ch=7 n=51 v=0
69840 On ch=7 n=46 v=127
69859 On ch=7 n=46 v=0
69860 On ch=7 n=46 v=127
69879 On ch=7 n=46 v=0
69880 On ch=7 n=46 v=127
69899 On ch=7 n=46 v=0
69900 On ch=7 n=46 v=127
69919 On ch=7 n=46 v=0
69920 On ch=7 n=46 v=127
69939 On ch=7 n=46 v=0
69940 On ch=7 n=46 v=127
69959 On ch=7 n=46 v=0
69960 On ch=7 n=46 v=127
69979 On ch=7 n=46 v=0
69980 On ch=7 n=46 v=127
69999 On ch=7 n=46 v=0
70000 On ch=7 n=46 v=127
70019 On ch=7 n=46 v=0
70020 On ch=7 n=46 v=127
70039 On ch=7 n=46 v=0
70040 On ch=7 n=46 v=127
70059 On ch=7 n=46 v=0
70060 On ch=7 n=46 v=127
70079 On ch=7 n=46 v=0
70080 On ch=7 n=46 v=127
70099 On ch=7 n=46 v=0
70100 On ch=7 n=46 v=127
70119 On ch=7 n=46 v=0
70120 On ch=7 n=46 v=127
70139 On ch=7 n=46 v=0
70140 On ch=7 n=46 v=127
70159 On ch=7 n=46 v=0
70160 On ch=7 n=46 v=127
70179 On ch=7 n=46 v=0
70180 On ch=7 n=46 v=127
70199 On ch=7 n=46 v=0
77400 On ch=7 n=51 v=96
77459 On ch=7 n=51 v=0
77520 On ch=7 n=51 v=96
77579 On ch=7 n=51 v=0
78060 On ch=7 n=51 v=96
78089 On ch=7 n=51 v=0
78120 On ch=7 n=46 v=96
78179 On ch=7 n=46 v=0
78240 On ch=7 n=46 v=96
78299 On ch=7 n=46 v=0
80400 On ch=7 n=46 v=96
80459 On ch=7 n=46 v=0
80520 On ch=7 n=46 v=96
80579 On ch=7 n=46 v=0
80640 On ch=7 n=46 v=96
80699 On ch=7 n=46 v=0
80760 On ch=7 n=46 v=96
80819 On ch=7 n=46 v=0
80880 On ch=7 n=46 v=96
80939 On ch=7 n=46 v=0
81000 On ch=7 n=46 v=96
81059 On ch=7 n=46 v=0
81360 On ch=7 n=51 v=96
81419 On ch=7 n=51 v=0
93240 On ch=7 n=46 v=96
93299 On ch=7 n=46 v=0
93600 On ch=7 n=46 v=96
93659 On ch=7 n=46 v=0
93960 On ch=7 n=51 v=96
94019 On ch=7 n=51 v=0
94320 On ch=7 n=51 v=96
94379 On ch=7 n=51 v=0
94680 On ch=7 n=46 v=127
94739 On ch=7 n=46 v=0
94800 On ch=7 n=46 v=127
94859 On ch=7 n=46 v=0
95160 On ch=7 n=46 v=127
95219 On ch=7 n=46 v=0
95520 On ch=7 n=51 v=127
95579 On ch=7 n=51 v=0
95880 On ch=7 n=51 v=127
95939 On ch=7 n=51 v=0
96120 On ch=7 n=46 v=127
96179 On ch=7 n=46 v=0
96240 On ch=7 n=46 v=127
96299 On ch=7 n=46 v=0
96360 On ch=7 n=46 v=127
96419 On ch=7 n=46 v=0
96480 On ch=7 n=46 v=127
96509 On ch=7 n=46 v=0
98880 On ch=7 n=51 v=127
98939 On ch=7 n=51 v=0
99600 On ch=7 n=46 v=127
99659 On ch=7 n=46 v=0
99960 On ch=7 n=51 v=127
100019 On ch=7 n=51 v=0
100200 On ch=7 n=46 v=127
100259 On ch=7 n=46 v=0
100440 On ch=7 n=46 v=127
100499 On ch=7 n=46 v=0
100680 On ch=7 n=46 v=127
100739 On ch=7 n=46 v=0
100920 On ch=7 n=46 v=127
100979 On ch=7 n=46 v=0
101160 On ch=7 n=46 v=127
101219 On ch=7 n=46 v=0
101400 On ch=7 n=46 v=127
101459 On ch=7 n=46 v=0
105840 On ch=7 n=46 v=127
105899 On ch=7 n=46 v=0
106200 On ch=7 n=46 v=127
106259 On ch=7 n=46 v=0
106560 On ch=7 n=46 v=127
106619 On ch=7 n=46 v=0
106920 On ch=7 n=46 v=127
106979 On ch=7 n=46 v=0
107040 On ch=7 n=46 v=127
107099 On ch=7 n=46 v=0
107160 On ch=7 n=46 v=127
107219 On ch=7 n=46 v=0
107280 On ch=7 n=46 v=127
107339 On ch=7 n=46 v=0
125280 On ch=7 n=46 v=96
125339 On ch=7 n=46 v=0
125640 On ch=7 n=46 v=96
125699 On ch=7 n=46 v=0
126000 On ch=7 n=46 v=96
126059 On ch=7 n=46 v=0
126360 On ch=7 n=46 v=96
126419 On ch=7 n=46 v=0
147720 On ch=7 n=51 v=127
147739 On ch=7 n=51 v=0
147740 On ch=7 n=51 v=127
147759 On ch=7 n=51 v=0
147760 On ch=7 n=51 v=127
147779 On ch=7 n=51 v=0
147780 On ch=7 n=51 v=127
147799 On ch=7 n=51 v=0
147800 On ch=7 n=51 v=127
147819 On ch=7 n=51 v=0
147820 On ch=7 n=51 v=127
147839 On ch=7 n=51 v=0
147840 On ch=7 n=51 v=127
147859 On ch=7 n=51 v=0
147860 On ch=7 n=51 v=127
147879 On ch=7 n=51 v=0
147880 On ch=7 n=51 v=127
147899 On ch=7 n=51 v=0
147900 On ch=7 n=51 v=127
147919 On ch=7 n=51 v=0
147920 On ch=7 n=51 v=127
147939 On ch=7 n=51 v=0
147940 On ch=7 n=51 v=127
147959 On ch=7 n=51 v=0
147960 On ch=7 n=51 v=127
147979 On ch=7 n=51 v=0
147980 On ch=7 n=51 v=127
147999 On ch=7 n=51 v=0
148000 On ch=7 n=51 v=127
148019 On ch=7 n=51 v=0
148020 On ch=7 n=51 v=127
148039 On ch=7 n=51 v=0
148040 On ch=7 n=51 v=127
148059 On ch=7 n=51 v=0
148060 On ch=7 n=51 v=127
148079 On ch=7 n=51 v=0
148080 On ch=7 n=51 v=127
148099 On ch=7 n=51 v=0
148100 On ch=7 n=51 v=127
148119 On ch=7 n=51 v=0
148120 On ch=7 n=51 v=127
148139 On ch=7 n=51 v=0
148140 On ch=7 n=51 v=127
148159 On ch=7 n=51 v=0
148160 On ch=7 n=51 v=127
148179 On ch=7 n=51 v=0
148180 On ch=7 n=51 v=127
148199 On ch=7 n=51 v=0
148200 On ch=7 n=51 v=127
148219 On ch=7 n=51 v=0
148220 On ch=7 n=51 v=127
148239 On ch=7 n=51 v=0
148240 On ch=7 n=51 v=127
148259 On ch=7 n=51 v=0
148260 On ch=7 n=51 v=127
148279 On ch=7 n=51 v=0
148280 On ch=7 n=51 v=127
148299 On ch=7 n=51 v=0
148300 On ch=7 n=51 v=127
148319 On ch=7 n=51 v=0
148320 On ch=7 n=51 v=127
148439 On ch=7 n=51 v=0
148440 On ch=7 n=51 v=127
148559 On ch=7 n=51 v=0
148680 On ch=7 n=51 v=127
148799 On ch=7 n=51 v=0
148920 On ch=7 n=51 v=127
148939 On ch=7 n=51 v=0
148940 On ch=7 n=51 v=127
148959 On ch=7 n=51 v=0
148960 On ch=7 n=51 v=127
148979 On ch=7 n=51 v=0
148980 On ch=7 n=51 v=127
148999 On ch=7 n=51 v=0
149000 On ch=7 n=51 v=127
149019 On ch=7 n=51 v=0
149020 On ch=7 n=51 v=127
149039 On ch=7 n=51 v=0
149040 On ch=7 n=51 v=127
149059 On ch=7 n=51 v=0
149060 On ch=7 n=51 v=127
149079 On ch=7 n=51 v=0
149080 On ch=7 n=51 v=127
149099 On ch=7 n=51 v=0
149100 On ch=7 n=51 v=127
149119 On ch=7 n=51 v=0
149120 On ch=7 n=51 v=127
149139 On ch=7 n=51 v=0
149140 On ch=7 n=51 v=127
149159 On ch=7 n=51 v=0
149160 On ch=7 n=51 v=127
149279 On ch=7 n=51 v=0
149400 On ch=7 n=51 v=127
149519 On ch=7 n=51 v=0
149640 On ch=7 n=51 v=127
149759 On ch=7 n=51 v=0
149880 On ch=7 n=46 v=127
149899 On ch=7 n=46 v=0
149900 On ch=7 n=46 v=127
149919 On ch=7 n=46 v=0
149920 On ch=7 n=46 v=127
149939 On ch=7 n=46 v=0
149940 On ch=7 n=46 v=127
149959 On ch=7 n=46 v=0
149960 On ch=7 n=46 v=127
149979 On ch=7 n=46 v=0
149980 On ch=7 n=46 v=127
149999 On ch=7 n=46 v=0
150000 On ch=7 n=46 v=127
150019 On ch=7 n=46 v=0
150020 On ch=7 n=46 v=127
150039 On ch=7 n=46 v=0
150040 On ch=7 n=46 v=127
150059 On ch=7 n=46 v=0
150060 On ch=7 n=46 v=127
150079 On ch=7 n=46 v=0
150080 On ch=7 n=46 v=127
150099 On ch=7 n=46 v=0
150100 On ch=7 n=46 v=127
150119 On ch=7 n=46 v=0
150120 On ch=7 n=46 v=127
150139 On ch=7 n=46 v=0
150140 On ch=7 n=46 v=127
150159 On ch=7 n=46 v=0
150160 On ch=7 n=46 v=127
150179 On ch=7 n=46 v=0
150180 On ch=7 n=46 v=127
150199 On ch=7 n=46 v=0
150200 On ch=7 n=46 v=127
150219 On ch=7 n=46 v=0
150220 On ch=7 n=46 v=127
150239 On ch=7 n=46 v=0
150240 On ch=7 n=46 v=127
150259 On ch=7 n=46 v=0
150260 On ch=7 n=46 v=127
150279 On ch=7 n=46 v=0
150280 On ch=7 n=46 v=127
150299 On ch=7 n=46 v=0
150300 On ch=7 n=46 v=127
150319 On ch=7 n=46 v=0
150320 On ch=7 n=46 v=127
150339 On ch=7 n=46 v=0
150340 On ch=7 n=46 v=127
150359 On ch=7 n=46 v=0
150360 On ch=7 n=46 v=127
150379 On ch=7 n=46 v=0
150380 On ch=7 n=46 v=127
150399 On ch=7 n=46 v=0
150400 On ch=7 n=46 v=127
150419 On ch=7 n=46 v=0
150420 On ch=7 n=46 v=127
150439 On ch=7 n=46 v=0
150440 On ch=7 n=46 v=127
150459 On ch=7 n=46 v=0
150460 On ch=7 n=46 v=127
150479 On ch=7 n=46 v=0
150480 On ch=7 n=46 v=127
150599 On ch=7 n=46 v=0
150600 On ch=7 n=46 v=127
150719 On ch=7 n=46 v=0
150840 On ch=7 n=46 v=127
150959 On ch=7 n=46 v=0
151080 On ch=7 n=46 v=127
151099 On ch=7 n=46 v=0
151100 On ch=7 n=46 v=127
151119 On ch=7 n=46 v=0
151120 On ch=7 n=46 v=127
151139 On ch=7 n=46 v=0
151140 On ch=7 n=46 v=127
151159 On ch=7 n=46 v=0
151160 On ch=7 n=46 v=127
151179 On ch=7 n=46 v=0
151180 On ch=7 n=46 v=127
151199 On ch=7 n=46 v=0
151200 On ch=7 n=46 v=127
151219 On ch=7 n=46 v=0
151220 On ch=7 n=46 v=127
151239 On ch=7 n=46 v=0
151240 On ch=7 n=46 v=127
151259 On ch=7 n=46 v=0
151260 On ch=7 n=46 v=127
151279 On ch=7 n=46 v=0
151280 On ch=7 n=46 v=127
151299 On ch=7 n=46 v=0
151300 On ch=7 n=46 v=127
151319 On ch=7 n=46 v=0
151320 On ch=7 n=46 v=127
151439 On ch=7 n=46 v=0
151560 On ch=7 n=46 v=127
151679 On ch=7 n=46 v=0
151800 On ch=7 n=46 v=127
151919 On ch=7 n=46 v=0
167760 On ch=7 n=46 v=96
167879 On ch=7 n=46 v=0
167880 On ch=7 n=46 v=96
167999 On ch=7 n=46 v=0
168000 On ch=7 n=46 v=96
168119 On ch=7 n=46 v=0
168120 On ch=7 n=46 v=96
168239 On ch=7 n=46 v=0
168240 On ch=7 n=46 v=96
168359 On ch=7 n=46 v=0
168360 On ch=7 n=46 v=96
168479 On ch=7 n=46 v=0
168480 On ch=7 n=46 v=96
168499 On ch=7 n=46 v=0
168500 On ch=7 n=46 v=96
168519 On ch=7 n=46 v=0
168520 On ch=7 n=46 v=96
168539 On ch=7 n=46 v=0
168540 On ch=7 n=46 v=96
168559 On ch=7 n=46 v=0
168560 On ch=7 n=46 v=96
168579 On ch=7 n=46 v=0
168580 On ch=7 n=46 v=96
168599 On ch=7 n=46 v=0
168600 On ch=7 n=46 v=96
168619 On ch=7 n=46 v=0
168620 On ch=7 n=46 v=96
168639 On ch=7 n=46 v=0
168640 On ch=7 n=46 v=96
168659 On ch=7 n=46 v=0
168660 On ch=7 n=46 v=96
168679 On ch=7 n=46 v=0
168680 On ch=7 n=46 v=96
168699 On ch=7 n=46 v=0
168700 On ch=7 n=46 v=96
168719 On ch=7 n=46 v=0
168720 On ch=7 n=46 v=96
168739 On ch=7 n=46 v=0
168740 On ch=7 n=46 v=96
168759 On ch=7 n=46 v=0
168760 On ch=7 n=46 v=96
168779 On ch=7 n=46 v=0
168780 On ch=7 n=46 v=96
168799 On ch=7 n=46 v=0
168800 On ch=7 n=46 v=96
168819 On ch=7 n=46 v=0
168820 On ch=7 n=46 v=96
168839 On ch=7 n=46 v=0
168840 On ch=7 n=46 v=96
168859 On ch=7 n=46 v=0
168860 On ch=7 n=46 v=96
168879 On ch=7 n=46 v=0
168880 On ch=7 n=46 v=96
168899 On ch=7 n=46 v=0
168900 On ch=7 n=46 v=96
168919 On ch=7 n=46 v=0
168920 On ch=7 n=46 v=96
168939 On ch=7 n=46 v=0
168940 On ch=7 n=46 v=96
168959 On ch=7 n=46 v=0
168960 On ch=7 n=46 v=96
168979 On ch=7 n=46 v=0
168980 On ch=7 n=46 v=96
168999 On ch=7 n=46 v=0
169000 On ch=7 n=46 v=96
169019 On ch=7 n=46 v=0
169020 On ch=7 n=46 v=96
169039 On ch=7 n=46 v=0
169040 On ch=7 n=46 v=96
169059 On ch=7 n=46 v=0
169060 On ch=7 n=46 v=96
169079 On ch=7 n=46 v=0
169080 On ch=7 n=46 v=96
169099 On ch=7 n=46 v=0
169100 On ch=7 n=46 v=96
169119 On ch=7 n=46 v=0
169120 On ch=7 n=46 v=96
169139 On ch=7 n=46 v=0
169140 On ch=7 n=46 v=96
169159 On ch=7 n=46 v=0
169160 On ch=7 n=46 v=96
169179 On ch=7 n=46 v=0
169180 On ch=7 n=46 v=96
169199 On ch=7 n=46 v=0
169200 On ch=7 n=46 v=127
169319 On ch=7 n=46 v=0
169320 On ch=7 n=46 v=127
169439 On ch=7 n=46 v=0
169440 On ch=7 n=46 v=127
169559 On ch=7 n=46 v=0
169560 On ch=7 n=46 v=127
169679 On ch=7 n=46 v=0
169680 On ch=7 n=51 v=127
169799 On ch=7 n=51 v=0
169800 On ch=7 n=51 v=127
169919 On ch=7 n=51 v=0
169920 On ch=7 n=51 v=127
170039 On ch=7 n=51 v=0
184320 On ch=7 n=51 v=127
184339 On ch=7 n=51 v=0
184340 On ch=7 n=51 v=127
184359 On ch=7 n=51 v=0
184360 On ch=7 n=51 v=127
184379 On ch=7 n=51 v=0
184380 On ch=7 n=51 v=127
184399 On ch=7 n=51 v=0
184400 On ch=7 n=51 v=127
184419 On ch=7 n=51 v=0
184420 On ch=7 n=51 v=127
184439 On ch=7 n=51 v=0
184440 On ch=7 n=51 v=127
184459 On ch=7 n=51 v=0
184460 On ch=7 n=51 v=127
184479 On ch=7 n=51 v=0
184480 On ch=7 n=51 v=127
184499 On ch=7 n=51 v=0
184500 On ch=7 n=51 v=127
184519 On ch=7 n=51 v=0
184520 On ch=7 n=51 v=127
184539 On ch=7 n=51 v=0
184540 On ch=7 n=51 v=127
184559 On ch=7 n=51 v=0
184560 On ch=7 n=51 v=127
184579 On ch=7 n=51 v=0
184580 On ch=7 n=51 v=127
184599 On ch=7 n=51 v=0
184600 On ch=7 n=51 v=127
184619 On ch=7 n=51 v=0
184620 On ch=7 n=51 v=127
184639 On ch=7 n=51 v=0
184640 On ch=7 n=51 v=127
184659 On ch=7 n=51 v=0
184660 On ch=7 n=51 v=127
184679 On ch=7 n=51 v=0
184680 On ch=7 n=51 v=127
184699 On ch=7 n=51 v=0
184700 On ch=7 n=51 v=127
184719 On ch=7 n=51 v=0
184720 On ch=7 n=51 v=127
184739 On ch=7 n=51 v=0
184740 On ch=7 n=51 v=127
184759 On ch=7 n=51 v=0
184760 On ch=7 n=51 v=127
184779 On ch=7 n=51 v=0
184780 On ch=7 n=51 v=127
184799 On ch=7 n=51 v=0
184800 On ch=7 n=51 v=127
184819 On ch=7 n=51 v=0
184820 On ch=7 n=51 v=127
184839 On ch=7 n=51 v=0
184840 On ch=7 n=51 v=127
184859 On ch=7 n=51 v=0
184860 On ch=7 n=51 v=127
184879 On ch=7 n=51 v=0
184880 On ch=7 n=51 v=127
184899 On ch=7 n=51 v=0
184900 On ch=7 n=51 v=127
184919 On ch=7 n=51 v=0
184920 On ch=7 n=51 v=127
184939 On ch=7 n=51 v=0
184940 On ch=7 n=51 v=127
184959 On ch=7 n=51 v=0
184960 On ch=7 n=51 v=127
184979 On ch=7 n=51 v=0
184980 On ch=7 n=51 v=127
184999 On ch=7 n=51 v=0
185000 On ch=7 n=51 v=127
185019 On ch=7 n=51 v=0
185020 On ch=7 n=51 v=127
185039 On ch=7 n=51 v=0
185040 On ch=7 n=51 v=127
185059 On ch=7 n=51 v=0
185060 On ch=7 n=51 v=127
185079 On ch=7 n=51 v=0
185080 On ch=7 n=51 v=127
185099 On ch=7 n=51 v=0
185100 On ch=7 n=51 v=127
185119 On ch=7 n=51 v=0
185120 On ch=7 n=51 v=127
185139 On ch=7 n=51 v=0
185140 On ch=7 n=51 v=127
185159 On ch=7 n=51 v=0
185160 On ch=7 n=51 v=127
185279 On ch=7 n=51 v=0
185280 On ch=7 n=51 v=127
185399 On ch=7 n=51 v=0
185400 On ch=7 n=51 v=127
185519 On ch=7 n=51 v=0
185520 On ch=7 n=51 v=127
185639 On ch=7 n=51 v=0
185640 On ch=7 n=51 v=127
185759 On ch=7 n=51 v=0
185760 On ch=7 n=51 v=127
185879 On ch=7 n=51 v=0
196560 On ch=7 n=46 v=96
196579 On ch=7 n=46 v=0
196580 On ch=7 n=46 v=96
196599 On ch=7 n=46 v=0
196600 On ch=7 n=46 v=96
196619 On ch=7 n=46 v=0
196620 On ch=7 n=46 v=96
196639 On ch=7 n=46 v=0
196640 On ch=7 n=46 v=96
196659 On ch=7 n=46 v=0
196660 On ch=7 n=46 v=96
196679 On ch=7 n=46 v=0
196680 On ch=7 n=46 v=96
196699 On ch=7 n=46 v=0
196700 On ch=7 n=46 v=96
196719 On ch=7 n=46 v=0
196720 On ch=7 n=46 v=96
196739 On ch=7 n=46 v=0
196740 On ch=7 n=46 v=96
196759 On ch=7 n=46 v=0
196760 On ch=7 n=46 v=96
196779 On ch=7 n=46 v=0
196780 On ch=7 n=46 v=96
196799 On ch=7 n=46 v=0
196800 On ch=7 n=46 v=96
196819 On ch=7 n=46 v=0
196820 On ch=7 n=46 v=96
196839 On ch=7 n=46 v=0
196840 On ch=7 n=46 v=96
196859 On ch=7 n=46 v=0
196860 On ch=7 n=46 v=96
196879 On ch=7 n=46 v=0
196880 On ch=7 n=46 v=96
196899 On ch=7 n=46 v=0
196900 On ch=7 n=46 v=96
196919 On ch=7 n=46 v=0
196920 On ch=7 n=46 v=127
196939 On ch=7 n=46 v=0
196940 On ch=7 n=46 v=127
196959 On ch=7 n=46 v=0
196960 On ch=7 n=46 v=127
196979 On ch=7 n=46 v=0
196980 On ch=7 n=46 v=127
196999 On ch=7 n=46 v=0
197000 On ch=7 n=46 v=127
197019 On ch=7 n=46 v=0
197020 On ch=7 n=46 v=127
197039 On ch=7 n=46 v=0
197040 On ch=7 n=46 v=127
197059 On ch=7 n=46 v=0
197060 On ch=7 n=46 v=127
197079 On ch=7 n=46 v=0
197080 On ch=7 n=46 v=127
197099 On ch=7 n=46 v=0
197100 On ch=7 n=46 v=127
197119 On ch=7 n=46 v=0
197120 On ch=7 n=46 v=127
197139 On ch=7 n=46 v=0
197140 On ch=7 n=46 v=127
197159 On ch=7 n=46 v=0
197160 On ch=7 n=46 v=127
197179 On ch=7 n=46 v=0
197180 On ch=7 n=46 v=127
197199 On ch=7 n=46 v=0
197200 On ch=7 n=46 v=127
197219 On ch=7 n=46 v=0
197220 On ch=7 n=46 v=127
197239 On ch=7 n=46 v=0
197240 On ch=7 n=46 v=127
197259 On ch=7 n=46 v=0
197260 On ch=7 n=46 v=127
197279 On ch=7 n=46 v=0
197280 On ch=7 n=51 v=127
197399 On ch=7 n=51 v=0
208320 On ch=7 n=46 v=64
208439 On ch=7 n=46 v=0
208440 On ch=7 n=46 v=72
208559 On ch=7 n=46 v=0
208560 On ch=7 n=46 v=80
208679 On ch=7 n=46 v=0
208680 On ch=7 n=46 v=88
208799 On ch=7 n=46 v=0
208800 On ch=7 n=51 v=96
208819 On ch=7 n=51 v=0
208820 On ch=7 n=51 v=96
208839 On ch=7 n=51 v=0
208840 On ch=7 n=51 v=96
208859 On ch=7 n=51 v=0
208860 On ch=7 n=51 v=96
208879 On ch=7 n=51 v=0
208880 On ch=7 n=51 v=96
208899 On ch=7 n=51 v=0
208900 On ch=7 n=51 v=96
208919 On ch=7 n=51 v=0
208920 On ch=7 n=51 v=96
208939 On ch=7 n=51 v=0
208940 On ch=7 n=51 v=96
208959 On ch=7 n=51 v=0
208960 On ch=7 n=51 v=96
208979 On ch=7 n=51 v=0
208980 On ch=7 n=51 v=96
208999 On ch=7 n=51 v=0
209000 On ch=7 n=51 v=96
209019 On ch=7 n=51 v=0
209020 On ch=7 n=51 v=96
209039 On ch=7 n=51 v=0
209040 On ch=7 n=51 v=96
209059 On ch=7 n=51 v=0
209060 On ch=7 n=51 v=96
209079 On ch=7 n=51 v=0
209080 On ch=7 n=51 v=96
209099 On ch=7 n=51 v=0
209100 On ch=7 n=51 v=96
209119 On ch=7 n=51 v=0
209120 On ch=7 n=51 v=96
209139 On ch=7 n=51 v=0
209140 On ch=7 n=51 v=96
209159 On ch=7 n=51 v=0
209160 On ch=7 n=51 v=96
209179 On ch=7 n=51 v=0
209180 On ch=7 n=51 v=96
209199 On ch=7 n=51 v=0
209200 On ch=7 n=51 v=96
209219 On ch=7 n=51 v=0
209220 On ch=7 n=51 v=96
209239 On ch=7 n=51 v=0
209240 On ch=7 n=51 v=96
209259 On ch=7 n=51 v=0
209260 On ch=7 n=51 v=96
209279 On ch=7 n=51 v=0
209280 On ch=7 n=51 v=96
209299 On ch=7 n=51 v=0
209300 On ch=7 n=51 v=96
209319 On ch=7 n=51 v=0
209320 On ch=7 n=51 v=96
209339 On ch=7 n=51 v=0
209340 On ch=7 n=51 v=96
209359 On ch=7 n=51 v=0
209360 On ch=7 n=51 v=96
209379 On ch=7 n=51 v=0
209380 On ch=7 n=51 v=96
209399 On ch=7 n=51 v=0
209400 On ch=7 n=51 v=96
209419 On ch=7 n=51 v=0
209420 On ch=7 n=51 v=96
209439 On ch=7 n=51 v=0
209440 On ch=7 n=51 v=96
209459 On ch=7 n=51 v=0
209460 On ch=7 n=51 v=96
209479 On ch=7 n=51 v=0
209480 On ch=7 n=51 v=96
209499 On ch=7 n=51 v=0
209500 On ch=7 n=51 v=96
209519 On ch=7 n=51 v=0
209520 On ch=7 n=51 v=96
209639 On ch=7 n=51 v=0
209640 On ch=7 n=51 v=96
209759 On ch=7 n=51 v=0
209760 On ch=7 n=51 v=96
209879 On ch=7 n=51 v=0
209880 On ch=7 n=51 v=96
209999 On ch=7 n=51 v=0
210360 On ch=7 n=51 v=96
210479 On ch=7 n=51 v=0
210480 On ch=7 n=51 v=96
210599 On ch=7 n=51 v=0
210600 On ch=7 n=51 v=96
210719 On ch=7 n=51 v=0
210840 On ch=7 n=51 v=112
210959 On ch=7 n=51 v=0
210960 On ch=7 n=51 v=112
211079 On ch=7 n=51 v=0
211320 On ch=7 n=51 v=112
211439 On ch=7 n=51 v=0
211680 On ch=7 n=51 v=112
211799 On ch=7 n=51 v=0
212040 On ch=7 n=51 v=112
212159 On ch=7 n=51 v=0
212160 On ch=7 n=51 v=112
212279 On ch=7 n=51 v=0
212280 On ch=7 n=51 v=112
212399 On ch=7 n=51 v=0
212400 On ch=7 n=51 v=127
212419 On ch=7 n=51 v=0
212420 On ch=7 n=51 v=127
212439 On ch=7 n=51 v=0
212440 On ch=7 n=51 v=127
212459 On ch=7 n=51 v=0
212460 On ch=7 n=51 v=127
212479 On ch=7 n=51 v=0
212480 On ch=7 n=51 v=127
212499 On ch=7 n=51 v=0
212500 On ch=7 n=51 v=127
212519 On ch=7 n=51 v=0
212520 On ch=7 n=51 v=127
212539 On ch=7 n=51 v=0
212540 On ch=7 n=51 v=127
212559 On ch=7 n=51 v=0
212560 On ch=7 n=51 v=127
212579 On ch=7 n=51 v=0
212580 On ch=7 n=51 v=127
212599 On ch=7 n=51 v=0
212600 On ch=7 n=51 v=127
212619 On ch=7 n=51 v=0
212620 On ch=7 n=51 v=127
212639 On ch=7 n=51 v=0
212640 On ch=7 n=51 v=127
212659 On ch=7 n=51 v=0
212660 On ch=7 n=51 v=127
212679 On ch=7 n=51 v=0
212680 On ch=7 n=51 v=127
212699 On ch=7 n=51 v=0
212700 On ch=7 n=51 v=127
212719 On ch=7 n=51 v=0
212720 On ch=7 n=51 v=127
212739 On ch=7 n=51 v=0
212740 On ch=7 n=51 v=127
212759 On ch=7 n=51 v=0
212760 On ch=7 n=51 v=127
212779 On ch=7 n=51 v=0
212780 On ch=7 n=51 v=127
212799 On ch=7 n=51 v=0
212800 On ch=7 n=51 v=127
212819 On ch=7 n=51 v=0
212820 On ch=7 n=51 v=127
212839 On ch=7 n=51 v=0
212840 On ch=7 n=51 v=127
212859 On ch=7 n=51 v=0
212860 On ch=7 n=51 v=127
212879 On ch=7 n=51 v=0
212880 On ch=7 n=51 v=127
212899 On ch=7 n=51 v=0
212900 On ch=7 n=51 v=127
212919 On ch=7 n=51 v=0
212920 On ch=7 n=51 v=127
212939 On ch=7 n=51 v=0
212940 On ch=7 n=51 v=127
212959 On ch=7 n=51 v=0
212960 On ch=7 n=51 v=127
212979 On ch=7 n=51 v=0
212980 On ch=7 n=51 v=127
212999 On ch=7 n=51 v=0
213000 On ch=7 n=46 v=127
213119 On ch=7 n=46 v=0
213120 On ch=7 n=51 v=127
213239 On ch=7 n=51 v=0
213240 On ch=7 n=46 v=127
213359 On ch=7 n=46 v=0
213360 On ch=7 n=46 v=127
213479 On ch=7 n=46 v=0
213480 On ch=7 n=51 v=127
213599 On ch=7 n=51 v=0
213720 On ch=7 n=51 v=127
213839 On ch=7 n=51 v=0
213840 On ch=7 n=51 v=127
213959 On ch=7 n=51 v=0
213960 On ch=7 n=51 v=127
214079 On ch=7 n=51 v=0
214080 On ch=7 n=51 v=127
214199 On ch=7 n=51 v=0
214200 On ch=7 n=51 v=127
214319 On ch=7 n=51 v=0
214920 On ch=7 n=51 v=127
215039 On ch=7 n=51 v=0
215280 On ch=7 n=46 v=127
215399 On ch=7 n=46 v=0
219000 On ch=7 n=46 v=127
219179 On ch=7 n=46 v=0
219180 On ch=7 n=46 v=127
219239 On ch=7 n=46 v=0
219240 On ch=7 n=46 v=127
219359 On ch=7 n=46 v=0
219360 On ch=7 n=46 v=127
219479 On ch=7 n=46 v=0
219480 On ch=7 n=46 v=127
219599 On ch=7 n=46 v=0
219600 On ch=7 n=51 v=48
219719 On ch=7 n=51 v=0
223200 On ch=7 n=51 v=96
223259 On ch=7 n=51 v=0
223320 On ch=7 n=51 v=96
223379 On ch=7 n=51 v=0
223860 On ch=7 n=51 v=96
223919 On ch=7 n=51 v=0
223920 On ch=7 n=46 v=96
223979 On ch=7 n=46 v=0
224040 On ch=7 n=46 v=96
224099 On ch=7 n=46 v=0
225480 On ch=7 n=51 v=96
225599 On ch=7 n=51 v=0
225600 On ch=7 n=51 v=96
225719 On ch=7 n=51 v=0
225720 On ch=7 n=51 v=96
225839 On ch=7 n=51 v=0
225840 On ch=7 n=51 v=96
225959 On ch=7 n=51 v=0
225960 On ch=7 n=51 v=96
226079 On ch=7 n=51 v=0
226080 On ch=7 n=51 v=96
226199 On ch=7 n=51 v=0
227520 On ch=7 n=46 v=127
227639 On ch=7 n=46 v=0
228240 On ch=7 n=46 v=127
228259 On ch=7 n=46 v=0
228260 On ch=7 n=46 v=127
228279 On ch=7 n=46 v=0
228280 On ch=7 n=46 v=127
228299 On ch=7 n=46 v=0
228300 On ch=7 n=46 v=127
228319 On ch=7 n=46 v=0
228320 On ch=7 n=46 v=127
228339 On ch=7 n=46 v=0
228340 On ch=7 n=46 v=127
228359 On ch=7 n=46 v=0
228360 On ch=7 n=46 v=127
228379 On ch=7 n=46 v=0
228380 On ch=7 n=46 v=127
228399 On ch=7 n=46 v=0
228400 On ch=7 n=46 v=127
228419 On ch=7 n=46 v=0
228420 On ch=7 n=46 v=127
228439 On ch=7 n=46 v=0
228440 On ch=7 n=46 v=127
228459 On ch=7 n=46 v=0
228460 On ch=7 n=46 v=127
228479 On ch=7 n=46 v=0
228480 On ch=7 n=46 v=127
228499 On ch=7 n=46 v=0
228500 On ch=7 n=46 v=127
228519 On ch=7 n=46 v=0
228520 On ch=7 n=46 v=127
228539 On ch=7 n=46 v=0
228540 On ch=7 n=46 v=127
228559 On ch=7 n=46 v=0
228560 On ch=7 n=46 v=127
228579 On ch=7 n=46 v=0
228580 On ch=7 n=46 v=127
228599 On ch=7 n=46 v=0
228600 On ch=7 n=46 v=127
228619 On ch=7 n=46 v=0
228620 On ch=7 n=46 v=127
228639 On ch=7 n=46 v=0
228640 On ch=7 n=46 v=127
228659 On ch=7 n=46 v=0
228660 On ch=7 n=46 v=127
228679 On ch=7 n=46 v=0
228680 On ch=7 n=46 v=127
228699 On ch=7 n=46 v=0
228700 On ch=7 n=46 v=127
228719 On ch=7 n=46 v=0
228720 On ch=7 n=46 v=127
228739 On ch=7 n=46 v=0
228740 On ch=7 n=46 v=127
228759 On ch=7 n=46 v=0
228760 On ch=7 n=46 v=127
228779 On ch=7 n=46 v=0
228780 On ch=7 n=46 v=127
228799 On ch=7 n=46 v=0
228800 On ch=7 n=46 v=127
228819 On ch=7 n=46 v=0
228820 On ch=7 n=46 v=127
228839 On ch=7 n=46 v=0
228840 On ch=7 n=46 v=127
228859 On ch=7 n=46 v=0
228860 On ch=7 n=46 v=127
228879 On ch=7 n=46 v=0
228880 On ch=7 n=46 v=127
228899 On ch=7 n=46 v=0
228900 On ch=7 n=46 v=127
228919 On ch=7 n=46 v=0
228920 On ch=7 n=46 v=127
228939 On ch=7 n=46 v=0
228940 On ch=7 n=46 v=127
228959 On ch=7 n=46 v=0
228960 On ch=7 n=51 v=127
229079 On ch=7 n=51 v=0
238440 On ch=7 n=46 v=96
238559 On ch=7 n=46 v=0
238800 On ch=7 n=46 v=96
238919 On ch=7 n=46 v=0
239160 On ch=7 n=46 v=96
239279 On ch=7 n=46 v=0
239520 On ch=7 n=46 v=96
239639 On ch=7 n=46 v=0
239640 On ch=7 n=46 v=96
239759 On ch=7 n=46 v=0
239760 On ch=7 n=46 v=127
239879 On ch=7 n=46 v=0
240120 On ch=7 n=46 v=127
240239 On ch=7 n=46 v=0
240480 On ch=7 n=46 v=127
240599 On ch=7 n=46 v=0
240840 On ch=7 n=46 v=127
240959 On ch=7 n=46 v=0
240960 On ch=7 n=46 v=127
241079 On ch=7 n=46 v=0
241080 On ch=7 n=46 v=127
241199 On ch=7 n=46 v=0
241200 On ch=7 n=51 v=127
241319 On ch=7 n=51 v=0
241440 On ch=7 n=51 v=127
241459 On ch=7 n=51 v=0
241460 On ch=7 n=51 v=127
241479 On ch=7 n=51 v=0
241480 On ch=7 n=51 v=127
241499 On ch=7 n=51 v=0
241500 On ch=7 n=51 v=127
241519 On ch=7 n=51 v=0
241520 On ch=7 n=51 v=127
241539 On ch=7 n=51 v=0
241540 On ch=7 n=51 v=127
241559 On ch=7 n=51 v=0
241560 On ch=7 n=51 v=127
241679 On ch=7 n=51 v=0
243840 On ch=7 n=51 v=127
243899 On ch=7 n=51 v=0
243960 On ch=7 n=51 v=127
244019 On ch=7 n=51 v=0
244200 On ch=7 n=51 v=127
244259 On ch=7 n=51 v=0
244320 On ch=7 n=46 v=127
244379 On ch=7 n=46 v=0
244920 On ch=7 n=51 v=127
244979 On ch=7 n=51 v=0
245040 On ch=7 n=51 v=127
245099 On ch=7 n=51 v=0
245280 On ch=7 n=51 v=127
245339 On ch=7 n=51 v=0
245520 On ch=7 n=51 v=127
245579 On ch=7 n=51 v=0
245760 On ch=7 n=51 v=127
245819 On ch=7 n=51 v=0
246000 On ch=7 n=51 v=127
246059 On ch=7 n=51 v=0
246240 On ch=7 n=51 v=127
246299 On ch=7 n=51 v=0
246480 On ch=7 n=51 v=127
246539 On ch=7 n=51 v=0
250560 On ch=7 n=46 v=127
250579 On ch=7 n=46 v=0
250580 On ch=7 n=46 v=127
250599 On ch=7 n=46 v=0
250600 On ch=7 n=46 v=127
250619 On ch=7 n=46 v=0
250620 On ch=7 n=46 v=127
250639 On ch=7 n=46 v=0
250640 On ch=7 n=46 v=127
250659 On ch=7 n=46 v=0
250660 On ch=7 n=46 v=127
250679 On ch=7 n=46 v=0
250680 On ch=7 n=46 v=127
250699 On ch=7 n=46 v=0
250700 On ch=7 n=46 v=127
250719 On ch=7 n=46 v=0
250720 On ch=7 n=46 v=127
250739 On ch=7 n=46 v=0
250740 On ch=7 n=46 v=127
250759 On ch=7 n=46 v=0
250760 On ch=7 n=46 v=127
250779 On ch=7 n=46 v=0
250780 On ch=7 n=46 v=127
250799 On ch=7 n=46 v=0
250800 On ch=7 n=46 v=127
250819 On ch=7 n=46 v=0
250820 On ch=7 n=46 v=127
250839 On ch=7 n=46 v=0
250840 On ch=7 n=46 v=127
250859 On ch=7 n=46 v=0
250860 On ch=7 n=46 v=127
250879 On ch=7 n=46 v=0
250880 On ch=7 n=46 v=127
250899 On ch=7 n=46 v=0
250900 On ch=7 n=46 v=127
250919 On ch=7 n=46 v=0
250920 On ch=7 n=51 v=96
251039 On ch=7 n=51 v=0
251280 On ch=7 n=51 v=96
251399 On ch=7 n=51 v=0
251640 On ch=7 n=51 v=96
251759 On ch=7 n=51 v=0
252000 On ch=7 n=51 v=96
252059 On ch=7 n=51 v=0
252120 On ch=7 n=51 v=96
252179 On ch=7 n=51 v=0
252240 On ch=7 n=51 v=96
252299 On ch=7 n=51 v=0
252360 On ch=7 n=51 v=96
252479 On ch=7 n=51 v=0
266040 On ch=7 n=51 v=48
266159 On ch=7 n=51 v=0
266520 On ch=7 n=51 v=48
266639 On ch=7 n=51 v=0
266640 On ch=7 n=51 v=48
266759 On ch=7 n=51 v=0
266760 On ch=7 n=46 v=48
266879 On ch=7 n=46 v=0
267240 On ch=7 n=46 v=48
267359 On ch=7 n=46 v=0
267360 On ch=7 n=46 v=48
267479 On ch=7 n=46 v=0
267480 On ch=7 n=51 v=48
267599 On ch=7 n=51 v=0
267960 On ch=7 n=51 v=48
268079 On ch=7 n=51 v=0
268080 On ch=7 n=51 v=48
268199 On ch=7 n=51 v=0
268200 On ch=7 n=46 v=48
268319 On ch=7 n=46 v=0
279720 On ch=7 n=46 v=48
279839 On ch=7 n=46 v=0
280080 On ch=7 n=46 v=54
280199 On ch=7 n=46 v=0
280440 On ch=7 n=46 v=60
280559 On ch=7 n=46 v=0
280800 On ch=7 n=46 v=48
280919 On ch=7 n=46 v=0
281160 On ch=7 n=51 v=48
281279 On ch=7 n=51 v=0
286800 On ch=7 n=46 v=48
286839 On ch=7 n=46 v=0
286840 On ch=7 n=46 v=48
286879 On ch=7 n=46 v=0
286880 On ch=7 n=46 v=48
286919 On ch=7 n=46 v=0
286920 On ch=7 n=46 v=48
287039 On ch=7 n=46 v=0
287160 On ch=7 n=46 v=54
287199 On ch=7 n=46 v=0
287200 On ch=7 n=46 v=54
287239 On ch=7 n=46 v=0
287240 On ch=7 n=46 v=55
287279 On ch=7 n=46 v=0
287280 On ch=7 n=46 v=56
287399 On ch=7 n=46 v=0
287520 On ch=7 n=46 v=60
287559 On ch=7 n=46 v=0
287560 On ch=7 n=46 v=60
287599 On ch=7 n=46 v=0
287600 On ch=7 n=46 v=61
287639 On ch=7 n=46 v=0
287640 On ch=7 n=46 v=62
287759 On ch=7 n=46 v=0
287880 On ch=7 n=46 v=66
287919 On ch=7 n=46 v=0
287920 On ch=7 n=46 v=66
287959 On ch=7 n=46 v=0
287960 On ch=7 n=46 v=67
287999 On ch=7 n=46 v=0
288000 On ch=7 n=46 v=68
288119 On ch=7 n=46 v=0
288240 On ch=7 n=46 v=72
288279 On ch=7 n=46 v=0
288280 On ch=7 n=46 v=72
288319 On ch=7 n=46 v=0
288320 On ch=7 n=46 v=73
288359 On ch=7 n=46 v=0
288360 On ch=7 n=46 v=74
288479 On ch=7 n=46 v=0
288600 On ch=7 n=46 v=78
288639 On ch=7 n=46 v=0
288640 On ch=7 n=46 v=78
288679 On ch=7 n=46 v=0
288680 On ch=7 n=46 v=79
288719 On ch=7 n=46 v=0
288720 On ch=7 n=46 v=80
288839 On ch=7 n=46 v=0
288960 On ch=7 n=46 v=84
288999 On ch=7 n=46 v=0
289000 On ch=7 n=46 v=84
289039 On ch=7 n=46 v=0
289040 On ch=7 n=46 v=85
289079 On ch=7 n=46 v=0
289080 On ch=7 n=46 v=86
289199 On ch=7 n=46 v=0
289320 On ch=7 n=46 v=88
289359 On ch=7 n=46 v=0
289360 On ch=7 n=46 v=88
289399 On ch=7 n=46 v=0
289400 On ch=7 n=46 v=89
289439 On ch=7 n=46 v=0
289440 On ch=7 n=46 v=90
289559 On ch=7 n=46 v=0
289680 On ch=7 n=46 v=94
289719 On ch=7 n=46 v=0
289720 On ch=7 n=46 v=94
289759 On ch=7 n=46 v=0
289760 On ch=7 n=46 v=95
289799 On ch=7 n=46 v=0
289800 On ch=7 n=51 v=96
289819 On ch=7 n=51 v=0
289820 On ch=7 n=51 v=96
289839 On ch=7 n=51 v=0
289840 On ch=7 n=51 v=96
289859 On ch=7 n=51 v=0
289860 On ch=7 n=51 v=96
289879 On ch=7 n=51 v=0
289880 On ch=7 n=51 v=96
289899 On ch=7 n=51 v=0
289900 On ch=7 n=51 v=96
289919 On ch=7 n=51 v=0
289920 On ch=7 n=51 v=96
289939 On ch=7 n=51 v=0
289940 On ch=7 n=51 v=96
289959 On ch=7 n=51 v=0
289960 On ch=7 n=51 v=96
289979 On ch=7 n=51 v=0
289980 On ch=7 n=51 v=96
289999 On ch=7 n=51 v=0
290000 On ch=7 n=51 v=96
290019 On ch=7 n=51 v=0
290020 On ch=7 n=51 v=96
290039 On ch=7 n=51 v=0
290040 On ch=7 n=51 v=96
290059 On ch=7 n=51 v=0
290060 On ch=7 n=51 v=96
290079 On ch=7 n=51 v=0
290080 On ch=7 n=51 v=96
290099 On ch=7 n=51 v=0
290100 On ch=7 n=51 v=96
290119 On ch=7 n=51 v=0
290120 On ch=7 n=51 v=96
290139 On ch=7 n=51 v=0
290140 On ch=7 n=51 v=96
290159 On ch=7 n=51 v=0
290160 On ch=7 n=51 v=96
290179 On ch=7 n=51 v=0
290180 On ch=7 n=51 v=96
290199 On ch=7 n=51 v=0
290200 On ch=7 n=51 v=96
290219 On ch=7 n=51 v=0
290220 On ch=7 n=51 v=96
290239 On ch=7 n=51 v=0
290240 On ch=7 n=51 v=96
290259 On ch=7 n=51 v=0
290260 On ch=7 n=51 v=96
290279 On ch=7 n=51 v=0
290280 On ch=7 n=51 v=96
290299 On ch=7 n=51 v=0
290300 On ch=7 n=51 v=96
290319 On ch=7 n=51 v=0
290320 On ch=7 n=51 v=96
290339 On ch=7 n=51 v=0
290340 On ch=7 n=51 v=96
290359 On ch=7 n=51 v=0
290360 On ch=7 n=51 v=96
290379 On ch=7 n=51 v=0
290380 On ch=7 n=51 v=96
290399 On ch=7 n=51 v=0
290400 On ch=7 n=51 v=96
290419 On ch=7 n=51 v=0
290420 On ch=7 n=51 v=96
290439 On ch=7 n=51 v=0
290440 On ch=7 n=51 v=96
290459 On ch=7 n=51 v=0
290460 On ch=7 n=51 v=96
290479 On ch=7 n=51 v=0
290480 On ch=7 n=51 v=96
290499 On ch=7 n=51 v=0
290500 On ch=7 n=51 v=96
290519 On ch=7 n=51 v=0
290520 On ch=7 n=51 v=96
290539 On ch=7 n=51 v=0
290540 On ch=7 n=51 v=96
290559 On ch=7 n=51 v=0
290560 On ch=7 n=51 v=96
290579 On ch=7 n=51 v=0
290580 On ch=7 n=51 v=96
290599 On ch=7 n=51 v=0
290600 On ch=7 n=51 v=96
290619 On ch=7 n=51 v=0
290620 On ch=7 n=51 v=96
290639 On ch=7 n=51 v=0
290640 On ch=7 n=51 v=96
290659 On ch=7 n=51 v=0
290660 On ch=7 n=51 v=96
290679 On ch=7 n=51 v=0
290680 On ch=7 n=51 v=96
290699 On ch=7 n=51 v=0
290700 On ch=7 n=51 v=96
290719 On ch=7 n=51 v=0
290720 On ch=7 n=51 v=96
290739 On ch=7 n=51 v=0
290740 On ch=7 n=51 v=96
290759 On ch=7 n=51 v=0
290760 On ch=7 n=51 v=96
290779 On ch=7 n=51 v=0
290780 On ch=7 n=51 v=96
290799 On ch=7 n=51 v=0
290800 On ch=7 n=51 v=96
290819 On ch=7 n=51 v=0
290820 On ch=7 n=51 v=96
290839 On ch=7 n=51 v=0
290840 On ch=7 n=51 v=96
290859 On ch=7 n=51 v=0
290860 On ch=7 n=51 v=96
290879 On ch=7 n=51 v=0
290880 On ch=7 n=51 v=96
290899 On ch=7 n=51 v=0
290900 On ch=7 n=51 v=96
290919 On ch=7 n=51 v=0
290920 On ch=7 n=51 v=96
290939 On ch=7 n=51 v=0
290940 On ch=7 n=51 v=96
290959 On ch=7 n=51 v=0
290960 On ch=7 n=51 v=96
290979 On ch=7 n=51 v=0
290980 On ch=7 n=51 v=96
290999 On ch=7 n=51 v=0
291000 On ch=7 n=51 v=96
291019 On ch=7 n=51 v=0
291020 On ch=7 n=51 v=96
291039 On ch=7 n=51 v=0
291040 On ch=7 n=51 v=96
291059 On ch=7 n=51 v=0
291060 On ch=7 n=51 v=96
291079 On ch=7 n=51 v=0
291080 On ch=7 n=51 v=96
291099 On ch=7 n=51 v=0
291100 On ch=7 n=51 v=96
291119 On ch=7 n=51 v=0
291120 On ch=7 n=51 v=96
291139 On ch=7 n=51 v=0
291140 On ch=7 n=51 v=96
291159 On ch=7 n=51 v=0
291160 On ch=7 n=51 v=96
291179 On ch=7 n=51 v=0
291180 On ch=7 n=51 v=96
291199 On ch=7 n=51 v=0
291200 On ch=7 n=51 v=96
291219 On ch=7 n=51 v=0
291220 On ch=7 n=51 v=96
291239 On ch=7 n=51 v=0
291240 On ch=7 n=46 v=96
291259 On ch=7 n=46 v=0
291260 On ch=7 n=46 v=96
291279 On ch=7 n=46 v=0
291280 On ch=7 n=46 v=96
291299 On ch=7 n=46 v=0
291300 On ch=7 n=46 v=96
291319 On ch=7 n=46 v=0
291320 On ch=7 n=46 v=96
291339 On ch=7 n=46 v=0
291340 On ch=7 n=46 v=96
291359 On ch=7 n=46 v=0
291360 On ch=7 n=46 v=96
291379 On ch=7 n=46 v=0
291380 On ch=7 n=46 v=96
291399 On ch=7 n=46 v=0
291400 On ch=7 n=46 v=96
291419 On ch=7 n=46 v=0
291420 On ch=7 n=46 v=96
291439 On ch=7 n=46 v=0
291440 On ch=7 n=46 v=96
291459 On ch=7 n=46 v=0
291460 On ch=7 n=46 v=96
291479 On ch=7 n=46 v=0
291480 On ch=7 n=46 v=96
291499 On ch=7 n=46 v=0
291500 On ch=7 n=46 v=96
291519 On ch=7 n=46 v=0
291520 On ch=7 n=46 v=96
291539 On ch=7 n=46 v=0
291540 On ch=7 n=46 v=96
291559 On ch=7 n=46 v=0
291560 On ch=7 n=46 v=96
291579 On ch=7 n=46 v=0
291580 On ch=7 n=46 v=96
291599 On ch=7 n=46 v=0
291600 On ch=7 n=46 v=96
291619 On ch=7 n=46 v=0
291620 On ch=7 n=46 v=96
291639 On ch=7 n=46 v=0
291640 On ch=7 n=46 v=96
291659 On ch=7 n=46 v=0
291660 On ch=7 n=46 v=96
291679 On ch=7 n=46 v=0
291680 On ch=7 n=46 v=96
291699 On ch=7 n=46 v=0
291700 On ch=7 n=46 v=96
291719 On ch=7 n=46 v=0
291720 On ch=7 n=46 v=96
291739 On ch=7 n=46 v=0
291740 On ch=7 n=46 v=96
291759 On ch=7 n=46 v=0
291760 On ch=7 n=46 v=96
291779 On ch=7 n=46 v=0
291780 On ch=7 n=46 v=96
291799 On ch=7 n=46 v=0
291800 On ch=7 n=46 v=96
291819 On ch=7 n=46 v=0
291820 On ch=7 n=46 v=96
291839 On ch=7 n=46 v=0
291840 On ch=7 n=46 v=96
291859 On ch=7 n=46 v=0
291860 On ch=7 n=46 v=96
291879 On ch=7 n=46 v=0
291880 On ch=7 n=46 v=96
291899 On ch=7 n=46 v=0
291900 On ch=7 n=46 v=96
291919 On ch=7 n=46 v=0
291920 On ch=7 n=46 v=96
291939 On ch=7 n=46 v=0
291940 On ch=7 n=46 v=96
291959 On ch=7 n=46 v=0
291960 On ch=7 n=46 v=96
291979 On ch=7 n=46 v=0
291980 On ch=7 n=46 v=96
291999 On ch=7 n=46 v=0
292000 On ch=7 n=46 v=96
292019 On ch=7 n=46 v=0
292020 On ch=7 n=46 v=96
292039 On ch=7 n=46 v=0
292040 On ch=7 n=46 v=96
292059 On ch=7 n=46 v=0
292060 On ch=7 n=46 v=96
292079 On ch=7 n=46 v=0
292080 On ch=7 n=46 v=96
292099 On ch=7 n=46 v=0
292100 On ch=7 n=46 v=96
292119 On ch=7 n=46 v=0
292120 On ch=7 n=46 v=96
292139 On ch=7 n=46 v=0
292140 On ch=7 n=46 v=96
292159 On ch=7 n=46 v=0
292160 On ch=7 n=46 v=96
292179 On ch=7 n=46 v=0
292180 On ch=7 n=46 v=96
292199 On ch=7 n=46 v=0
292200 On ch=7 n=46 v=96
292219 On ch=7 n=46 v=0
292220 On ch=7 n=46 v=96
292239 On ch=7 n=46 v=0
292240 On ch=7 n=46 v=96
292259 On ch=7 n=46 v=0
292260 On ch=7 n=46 v=96
292279 On ch=7 n=46 v=0
292280 On ch=7 n=46 v=96
292299 On ch=7 n=46 v=0
292300 On ch=7 n=46 v=96
292319 On ch=7 n=46 v=0
292320 On ch=7 n=46 v=96
292339 On ch=7 n=46 v=0
292340 On ch=7 n=46 v=96
292359 On ch=7 n=46 v=0
292360 On ch=7 n=46 v=96
292379 On ch=7 n=46 v=0
292380 On ch=7 n=46 v=96
292399 On ch=7 n=46 v=0
292400 On ch=7 n=46 v=96
292419 On ch=7 n=46 v=0
292420 On ch=7 n=46 v=96
292439 On ch=7 n=46 v=0
292440 On ch=7 n=46 v=96
292459 On ch=7 n=46 v=0
292460 On ch=7 n=46 v=96
292479 On ch=7 n=46 v=0
292480 On ch=7 n=46 v=96
292499 On ch=7 n=46 v=0
292500 On ch=7 n=46 v=96
292519 On ch=7 n=46 v=0
292520 On ch=7 n=46 v=96
292539 On ch=7 n=46 v=0
292540 On ch=7 n=46 v=96
292559 On ch=7 n=46 v=0
292560 On ch=7 n=46 v=96
292579 On ch=7 n=46 v=0
292580 On ch=7 n=46 v=96
292599 On ch=7 n=46 v=0
292600 On ch=7 n=46 v=96
292619 On ch=7 n=46 v=0
292620 On ch=7 n=46 v=96
292639 On ch=7 n=46 v=0
292640 On ch=7 n=46 v=96
292659 On ch=7 n=46 v=0
292660 On ch=7 n=46 v=96
292679 On ch=7 n=46 v=0
292680 On ch=7 n=46 v=96
292799 On ch=7 n=46 v=0
292800 On ch=7 n=46 v=96
292919 On ch=7 n=46 v=0
292920 On ch=7 n=46 v=96
293039 On ch=7 n=46 v=0
293040 On ch=7 n=46 v=96
293159 On ch=7 n=46 v=0
293400 On ch=7 n=51 v=96
293519 On ch=7 n=51 v=0
293760 On ch=7 n=51 v=96
293879 On ch=7 n=51 v=0
294120 On ch=7 n=51 v=96
294239 On ch=7 n=51 v=0
294840 On ch=7 n=51 v=96
294959 On ch=7 n=51 v=0
295200 On ch=7 n=51 v=96
295319 On ch=7 n=51 v=0
295560 On ch=7 n=46 v=127
295579 On ch=7 n=46 v=0
295580 On ch=7 n=46 v=127
295599 On ch=7 n=46 v=0
295600 On ch=7 n=46 v=127
295619 On ch=7 n=46 v=0
295620 On ch=7 n=46 v=127
295639 On ch=7 n=46 v=0
295640 On ch=7 n=46 v=127
295659 On ch=7 n=46 v=0
295660 On ch=7 n=46 v=127
295679 On ch=7 n=46 v=0
295680 On ch=7 n=46 v=127
295699 On ch=7 n=46 v=0
295700 On ch=7 n=46 v=127
295719 On ch=7 n=46 v=0
295720 On ch=7 n=46 v=127
295739 On ch=7 n=46 v=0
295740 On ch=7 n=46 v=127
295759 On ch=7 n=46 v=0
295760 On ch=7 n=46 v=127
295779 On ch=7 n=46 v=0
295780 On ch=7 n=46 v=127
295799 On ch=7 n=46 v=0
295800 On ch=7 n=46 v=127
295819 On ch=7 n=46 v=0
295820 On ch=7 n=46 v=127
295839 On ch=7 n=46 v=0
295840 On ch=7 n=46 v=127
295859 On ch=7 n=46 v=0
295860 On ch=7 n=46 v=127
295879 On ch=7 n=46 v=0
295880 On ch=7 n=46 v=127
295899 On ch=7 n=46 v=0
295900 On ch=7 n=46 v=127
295919 On ch=7 n=46 v=0
295920 On ch=7 n=46 v=127
295939 On ch=7 n=46 v=0
295940 On ch=7 n=46 v=127
295959 On ch=7 n=46 v=0
295960 On ch=7 n=46 v=127
295979 On ch=7 n=46 v=0
295980 On ch=7 n=46 v=127
295999 On ch=7 n=46 v=0
296000 On ch=7 n=46 v=127
296019 On ch=7 n=46 v=0
296020 On ch=7 n=46 v=127
296039 On ch=7 n=46 v=0
296040 On ch=7 n=46 v=127
296059 On ch=7 n=46 v=0
296060 On ch=7 n=46 v=127
296079 On ch=7 n=46 v=0
296080 On ch=7 n=46 v=127
296099 On ch=7 n=46 v=0
296100 On ch=7 n=46 v=127
296119 On ch=7 n=46 v=0
296120 On ch=7 n=46 v=127
296139 On ch=7 n=46 v=0
296140 On ch=7 n=46 v=127
296159 On ch=7 n=46 v=0
296160 On ch=7 n=46 v=127
296179 On ch=7 n=46 v=0
296180 On ch=7 n=46 v=127
296199 On ch=7 n=46 v=0
296200 On ch=7 n=46 v=127
296219 On ch=7 n=46 v=0
296220 On ch=7 n=46 v=127
296239 On ch=7 n=46 v=0
296240 On ch=7 n=46 v=127
296259 On ch=7 n=46 v=0
296260 On ch=7 n=46 v=127
296279 On ch=7 n=46 v=0
299280 On ch=7 n=46 v=96
299399 On ch=7 n=46 v=0
299640 On ch=7 n=46 v=112
299759 On ch=7 n=46 v=0
300000 On ch=7 n=46 v=112
300119 On ch=7 n=46 v=0
300240 On ch=7 n=46 v=112
300359 On ch=7 n=46 v=0
300480 On ch=7 n=46 v=112
300599 On ch=7 n=46 v=0
300600 On ch=7 n=46 v=112
300719 On ch=7 n=46 v=0
300720 On ch=7 n=46 v=127
300839 On ch=7 n=46 v=0
300840 On ch=7 n=46 v=127
300959 On ch=7 n=46 v=0
300960 On ch=7 n=46 v=127
301079 On ch=7 n=46 v=0
301080 On ch=7 n=46 v=127
301199 On ch=7 n=46 v=0
301200 On ch=7 n=46 v=127
301319 On ch=7 n=46 v=0
301320 On ch=7 n=46 v=127
301439 On ch=7 n=46 v=0
301440 On ch=7 n=46 v=127
301559 On ch=7 n=46 v=0
301560 On ch=7 n=46 v=127
301679 On ch=7 n=46 v=0
301680 On ch=7 n=46 v=127
301799 On ch=7 n=46 v=0
301800 On ch=7 n=46 v=127
301919 On ch=7 n=46 v=0
301920 On ch=7 n=46 v=127
302039 On ch=7 n=46 v=0
302040 On ch=7 n=51 v=127
302159 On ch=7 n=51 v=0
302400 On ch=7 n=51 v=127
302519 On ch=7 n=51 v=0
302760 On ch=7 n=51 v=127
302879 On ch=7 n=51 v=0
0 PrCh ch=8 p=48
0 Par ch=8 c=7 v=127
0 Par ch=8 c=10 v=46
0 Par ch=8 c=93 v=0
0 Par ch=8 c=91 v=0
230520 On ch=8 n=60 v=48
230520 On ch=8 n=68 v=48
230609 On ch=8 n=68 v=0
230609 On ch=8 n=60 v=0
230640 On ch=8 n=61 v=48
230640 On ch=8 n=68 v=48
230729 On ch=8 n=68 v=0
230729 On ch=8 n=61 v=0
230760 On ch=8 n=62 v=48
230760 On ch=8 n=68 v=48
230849 On ch=8 n=68 v=0
230849 On ch=8 n=62 v=0
230880 On ch=8 n=62 v=60
230880 On ch=8 n=70 v=60
230969 On ch=8 n=70 v=0
230969 On ch=8 n=62 v=0
231000 On ch=8 n=62 v=72
231000 On ch=8 n=70 v=72
231089 On ch=8 n=70 v=0
231089 On ch=8 n=62 v=0
231120 On ch=8 n=62 v=84
231120 On ch=8 n=70 v=84
231239 On ch=8 n=62 v=0
231240 On ch=8 n=62 v=96
231240 On ch=8 n=71 v=90
231249 On ch=8 n=70 v=0
231360 On ch=8 n=72 v=96
231369 On ch=8 n=71 v=0
231479 On ch=8 n=62 v=0
231480 On ch=8 n=62 v=96
231600 On ch=8 n=70 v=84
231609 On ch=8 n=72 v=0
231660 On ch=8 n=68 v=72
231669 On ch=8 n=70 v=0
231720 On ch=8 n=67 v=60
231729 On ch=8 n=68 v=0
231780 On ch=8 n=56 v=56
231780 On ch=8 n=65 v=56
231789 On ch=8 n=67 v=0
231789 On ch=8 n=62 v=0
231840 On ch=8 n=55 v=48
231840 On ch=8 n=63 v=56
231849 On ch=8 n=56 v=0
231849 On ch=8 n=65 v=0
231959 On ch=8 n=55 v=0
231959 On ch=8 n=63 v=0
233760 On ch=8 n=67 v=48
233760 On ch=8 n=70 v=48
233849 On ch=8 n=70 v=0
233849 On ch=8 n=67 v=0
233880 On ch=8 n=67 v=48
233880 On ch=8 n=70 v=48
233969 On ch=8 n=70 v=0
233969 On ch=8 n=67 v=0
234000 On ch=8 n=63 v=56
234000 On ch=8 n=70 v=56
234240 On ch=8 n=69 v=48
234249 On ch=8 n=70 v=0
234359 On ch=8 n=69 v=0
234359 On ch=8 n=63 v=0
234840 On ch=8 n=59 v=32
234840 On ch=8 n=62 v=32
234899 On ch=8 n=62 v=0
234899 On ch=8 n=59 v=0
234960 On ch=8 n=62 v=32
234960 On ch=8 n=59 v=32
235019 On ch=8 n=59 v=0
235019 On ch=8 n=62 v=0
235200 On ch=8 n=58 v=32
235200 On ch=8 n=63 v=32
235259 On ch=8 n=63 v=0
235259 On ch=8 n=58 v=0
235320 On ch=8 n=64 v=32
235320 On ch=8 n=61 v=32
235379 On ch=8 n=61 v=0
235379 On ch=8 n=64 v=0
235560 On ch=8 n=62 v=32
235560 On ch=8 n=65 v=32
235619 On ch=8 n=65 v=0
235619 On ch=8 n=62 v=0
235680 On ch=8 n=63 v=32
235680 On ch=8 n=67 v=32
235739 On ch=8 n=67 v=0
235739 On ch=8 n=63 v=0
235800 On ch=8 n=65 v=32
235800 On ch=8 n=68 v=32
235859 On ch=8 n=68 v=0
235859 On ch=8 n=65 v=0
235920 On ch=8 n=67 v=32
235920 On ch=8 n=70 v=32
235979 On ch=8 n=70 v=0
235979 On ch=8 n=67 v=0
236040 On ch=8 n=67 v=32
236040 On ch=8 n=71 v=32
236099 On ch=8 n=71 v=0
236099 On ch=8 n=67 v=0
236160 On ch=8 n=68 v=32
236160 On ch=8 n=72 v=32
236189 On ch=8 n=72 v=0
236189 On ch=8 n=68 v=0
236220 On ch=8 n=67 v=32
236220 On ch=8 n=70 v=32
236249 On ch=8 n=70 v=0
236249 On ch=8 n=67 v=0
236280 On ch=8 n=65 v=32
236280 On ch=8 n=68 v=32
236309 On ch=8 n=68 v=0
236309 On ch=8 n=65 v=0
236340 On ch=8 n=63 v=32
236340 On ch=8 n=67 v=32
236369 On ch=8 n=67 v=0
236369 On ch=8 n=63 v=0
236400 On ch=8 n=62 v=32
236400 On ch=8 n=65 v=32
236429 On ch=8 n=65 v=0
236429 On ch=8 n=62 v=0
236460 On ch=8 n=63 v=32
236460 On ch=8 n=67 v=32
236489 On ch=8 n=67 v=0
236489 On ch=8 n=63 v=0
236520 On ch=8 n=65 v=32
236520 On ch=8 n=68 v=32
236549 On ch=8 n=68 v=0
236549 On ch=8 n=65 v=0
236580 On ch=8 n=63 v=32
236580 On ch=8 n=67 v=32
236609 On ch=8 n=67 v=0
236609 On ch=8 n=63 v=0
236640 On ch=8 n=62 v=32
236640 On ch=8 n=65 v=32
236669 On ch=8 n=65 v=0
236669 On ch=8 n=62 v=0
236700 On ch=8 n=63 v=32
236700 On ch=8 n=67 v=32
236729 On ch=8 n=67 v=0
236729 On ch=8 n=63 v=0
236760 On ch=8 n=65 v=32
236760 On ch=8 n=68 v=32
236789 On ch=8 n=68 v=0
236789 On ch=8 n=65 v=0
236820 On ch=8 n=67 v=32
236820 On ch=8 n=70 v=32
236849 On ch=8 n=70 v=0
236849 On ch=8 n=67 v=0
236880 On ch=8 n=68 v=35
236880 On ch=8 n=72 v=35
236909 On ch=8 n=72 v=0
236909 On ch=8 n=68 v=0
236940 On ch=8 n=67 v=38
236940 On ch=8 n=70 v=38
236969 On ch=8 n=70 v=0
236969 On ch=8 n=67 v=0
237000 On ch=8 n=65 v=41
237000 On ch=8 n=68 v=41
237029 On ch=8 n=68 v=0
237029 On ch=8 n=65 v=0
237060 On ch=8 n=63 v=43
237060 On ch=8 n=67 v=43
237089 On ch=8 n=67 v=0
237089 On ch=8 n=63 v=0
237120 On ch=8 n=62 v=46
237120 On ch=8 n=65 v=46
237149 On ch=8 n=65 v=0
237149 On ch=8 n=62 v=0
237180 On ch=8 n=63 v=48
237180 On ch=8 n=67 v=48
237209 On ch=8 n=67 v=0
237209 On ch=8 n=63 v=0
237240 On ch=8 n=65 v=51
237240 On ch=8 n=68 v=51
237269 On ch=8 n=68 v=0
237269 On ch=8 n=65 v=0
237300 On ch=8 n=63 v=54
237300 On ch=8 n=67 v=54
237329 On ch=8 n=67 v=0
237329 On ch=8 n=63 v=0
237360 On ch=8 n=62 v=57
237360 On ch=8 n=65 v=57
237389 On ch=8 n=65 v=0
237389 On ch=8 n=62 v=0
237420 On ch=8 n=63 v=59
237420 On ch=8 n=67 v=59
237449 On ch=8 n=67 v=0
237449 On ch=8 n=63 v=0
237480 On ch=8 n=65 v=62
237480 On ch=8 n=68 v=62
237509 On ch=8 n=68 v=0
237509 On ch=8 n=65 v=0
237540 On ch=8 n=67 v=64
237540 On ch=8 n=70 v=64
237569 On ch=8 n=70 v=0
237569 On ch=8 n=67 v=0
237600 On ch=8 n=68 v=67
237600 On ch=8 n=72 v=67
237629 On ch=8 n=72 v=0
237629 On ch=8 n=68 v=0
237660 On ch=8 n=67 v=70
237660 On ch=8 n=70 v=70
237689 On ch=8 n=70 v=0
237689 On ch=8 n=67 v=0
237720 On ch=8 n=65 v=73
237720 On ch=8 n=68 v=73
237749 On ch=8 n=68 v=0
237749 On ch=8 n=65 v=0
237780 On ch=8 n=64 v=75
237780 On ch=8 n=67 v=75
237809 On ch=8 n=67 v=0
237809 On ch=8 n=64 v=0
237840 On ch=8 n=65 v=78
237840 On ch=8 n=68 v=78
237869 On ch=8 n=68 v=0
237869 On ch=8 n=65 v=0
237900 On ch=8 n=67 v=80
237900 On ch=8 n=70 v=80
237929 On ch=8 n=70 v=0
237929 On ch=8 n=67 v=0
237960 On ch=8 n=68 v=82
237960 On ch=8 n=72 v=82
237989 On ch=8 n=72 v=0
237989 On ch=8 n=68 v=0
238020 On ch=8 n=70 v=84
238020 On ch=8 n=74 v=84
238049 On ch=8 n=74 v=0
238049 On ch=8 n=70 v=0
238080 On ch=8 n=72 v=87
238080 On ch=8 n=75 v=87
238109 On ch=8 n=75 v=0
238109 On ch=8 n=72 v=0
238140 On ch=8 n=74 v=89
238140 On ch=8 n=77 v=89
238169 On ch=8 n=77 v=0
238169 On ch=8 n=74 v=0
238200 On ch=8 n=75 v=92
238200 On ch=8 n=79 v=92
238229 On ch=8 n=79 v=0
238229 On ch=8 n=75 v=0
238260 On ch=8 n=77 v=94
238260 On ch=8 n=80 v=94
238289 On ch=8 n=80 v=0
238289 On ch=8 n=77 v=0
238320 On ch=8 n=79 v=96
238320 On ch=8 n=82 v=96
238379 On ch=8 n=79 v=0
238440 On ch=8 n=70 v=96
238499 On ch=8 n=70 v=0
238559 On ch=8 n=82 v=0
238560 On ch=8 n=79 v=96
238560 On ch=8 n=67 v=96
238619 On ch=8 n=67 v=0
238619 On ch=8 n=79 v=0
238680 On ch=8 n=75 v=96
238680 On ch=8 n=63 v=96
238739 On ch=8 n=63 v=0
238739 On ch=8 n=75 v=0
238800 On ch=8 n=79 v=112
238800 On ch=8 n=67 v=112
238859 On ch=8 n=67 v=0
238859 On ch=8 n=79 v=0
238920 On ch=8 n=70 v=96
238920 On ch=8 n=58 v=96
238979 On ch=8 n=58 v=0
238979 On ch=8 n=70 v=0
239040 On ch=8 n=77 v=96
239040 On ch=8 n=65 v=96
239099 On ch=8 n=65 v=0
239099 On ch=8 n=77 v=0
239160 On ch=8 n=80 v=112
239160 On ch=8 n=68 v=112
239219 On ch=8 n=68 v=0
239219 On ch=8 n=80 v=0
239280 On ch=8 n=70 v=96
239280 On ch=8 n=58 v=96
239339 On ch=8 n=58 v=0
239339 On ch=8 n=70 v=0
239400 On ch=8 n=74 v=96
239400 On ch=8 n=62 v=96
239459 On ch=8 n=62 v=0
239459 On ch=8 n=74 v=0
239520 On ch=8 n=77 v=112
239520 On ch=8 n=65 v=112
239579 On ch=8 n=65 v=0
239579 On ch=8 n=77 v=0
239640 On ch=8 n=70 v=96
239640 On ch=8 n=58 v=96
239699 On ch=8 n=58 v=0
239699 On ch=8 n=70 v=0
239760 On ch=8 n=82 v=127
239760 On ch=8 n=70 v=127
239789 On ch=8 n=70 v=0
239789 On ch=8 n=82 v=0
239790 On ch=8 n=82 v=127
239790 On ch=8 n=70 v=127
239819 On ch=8 n=70 v=0
239819 On ch=8 n=82 v=0
239820 On ch=8 n=67 v=127
239820 On ch=8 n=82 v=127
239820 On ch=8 n=70 v=127
239849 On ch=8 n=70 v=0
239849 On ch=8 n=82 v=0
239849 On ch=8 n=67 v=0
239850 On ch=8 n=67 v=127
239850 On ch=8 n=82 v=127
239850 On ch=8 n=70 v=127
239879 On ch=8 n=70 v=0
239879 On ch=8 n=82 v=0
239879 On ch=8 n=67 v=0
239880 On ch=8 n=82 v=127
239880 On ch=8 n=70 v=127
239909 On ch=8 n=70 v=0
239909 On ch=8 n=82 v=0
239910 On ch=8 n=82 v=127
239910 On ch=8 n=70 v=127
239939 On ch=8 n=70 v=0
239939 On ch=8 n=82 v=0
239940 On ch=8 n=75 v=127
239940 On ch=8 n=82 v=127
239940 On ch=8 n=70 v=127
239969 On ch=8 n=70 v=0
239969 On ch=8 n=82 v=0
239969 On ch=8 n=75 v=0
239970 On ch=8 n=75 v=127
239970 On ch=8 n=82 v=127
239970 On ch=8 n=70 v=127
239999 On ch=8 n=70 v=0
239999 On ch=8 n=82 v=0
239999 On ch=8 n=75 v=0
240000 On ch=8 n=79 v=127
240000 On ch=8 n=82 v=126
240000 On ch=8 n=70 v=127
240029 On ch=8 n=70 v=0
240029 On ch=8 n=82 v=0
240029 On ch=8 n=79 v=0
240030 On ch=8 n=79 v=127
240030 On ch=8 n=82 v=127
240030 On ch=8 n=70 v=127
240059 On ch=8 n=70 v=0
240059 On ch=8 n=82 v=0
240059 On ch=8 n=79 v=0
240060 On ch=8 n=67 v=127
240060 On ch=8 n=82 v=127
240060 On ch=8 n=70 v=127
240089 On ch=8 n=70 v=0
240089 On ch=8 n=82 v=0
240089 On ch=8 n=67 v=0
240090 On ch=8 n=67 v=127
240090 On ch=8 n=82 v=127
240090 On ch=8 n=70 v=127
240119 On ch=8 n=70 v=0
240119 On ch=8 n=82 v=0
240119 On ch=8 n=67 v=0
240120 On ch=8 n=82 v=127
240120 On ch=8 n=70 v=127
240149 On ch=8 n=70 v=0
240149 On ch=8 n=82 v=0
240150 On ch=8 n=82 v=127
240150 On ch=8 n=70 v=127
240179 On ch=8 n=70 v=0
240179 On ch=8 n=82 v=0
240180 On ch=8 n=67 v=127
240180 On ch=8 n=82 v=127
240180 On ch=8 n=70 v=127
240209 On ch=8 n=70 v=0
240209 On ch=8 n=82 v=0
240209 On ch=8 n=67 v=0
240210 On ch=8 n=67 v=127
240210 On ch=8 n=82 v=127
240210 On ch=8 n=70 v=127
240239 On ch=8 n=70 v=0
240239 On ch=8 n=82 v=0
240239 On ch=8 n=67 v=0
240240 On ch=8 n=82 v=127
240240 On ch=8 n=70 v=127
240269 On ch=8 n=70 v=0
240269 On ch=8 n=82 v=0
240270 On ch=8 n=82 v=127
240270 On ch=8 n=70 v=127
240299 On ch=8 n=70 v=0
240299 On ch=8 n=82 v=0
240300 On ch=8 n=75 v=127
240300 On ch=8 n=82 v=127
240300 On ch=8 n=70 v=127
240329 On ch=8 n=70 v=0
240329 On ch=8 n=82 v=0
240329 On ch=8 n=75 v=0
240330 On ch=8 n=75 v=127
240330 On ch=8 n=82 v=127
240330 On ch=8 n=70 v=127
240359 On ch=8 n=70 v=0
240359 On ch=8 n=82 v=0
240359 On ch=8 n=75 v=0
240360 On ch=8 n=79 v=127
240360 On ch=8 n=82 v=126
240360 On ch=8 n=70 v=127
240389 On ch=8 n=70 v=0
240389 On ch=8 n=82 v=0
240389 On ch=8 n=79 v=0
240390 On ch=8 n=79 v=127
240390 On ch=8 n=82 v=127
240390 On ch=8 n=70 v=127
240419 On ch=8 n=70 v=0
240419 On ch=8 n=82 v=0
240419 On ch=8 n=79 v=0
240420 On ch=8 n=67 v=127
240420 On ch=8 n=82 v=127
240420 On ch=8 n=70 v=127
240449 On ch=8 n=70 v=0
240449 On ch=8 n=82 v=0
240449 On ch=8 n=67 v=0
240450 On ch=8 n=67 v=127
240450 On ch=8 n=82 v=127
240450 On ch=8 n=70 v=127
240479 On ch=8 n=70 v=0
240479 On ch=8 n=82 v=0
240479 On ch=8 n=67 v=0
240480 On ch=8 n=82 v=127
240480 On ch=8 n=70 v=127
240509 On ch=8 n=70 v=0
240509 On ch=8 n=82 v=0
240510 On ch=8 n=82 v=127
240510 On ch=8 n=70 v=127
240539 On ch=8 n=70 v=0
240539 On ch=8 n=82 v=0
240540 On ch=8 n=68 v=127
240540 On ch=8 n=82 v=127
240540 On ch=8 n=70 v=127
240569 On ch=8 n=70 v=0
240569 On ch=8 n=82 v=0
240569 On ch=8 n=68 v=0
240570 On ch=8 n=68 v=127
240570 On ch=8 n=82 v=127
240570 On ch=8 n=70 v=127
240599 On ch=8 n=70 v=0
240599 On ch=8 n=82 v=0
240599 On ch=8 n=68 v=0
240600 On ch=8 n=82 v=127
240600 On ch=8 n=70 v=127
240629 On ch=8 n=70 v=0
240629 On ch=8 n=82 v=0
240630 On ch=8 n=82 v=127
240630 On ch=8 n=70 v=127
240659 On ch=8 n=70 v=0
240659 On ch=8 n=82 v=0
240660 On ch=8 n=74 v=127
240660 On ch=8 n=82 v=127
240660 On ch=8 n=70 v=127
240689 On ch=8 n=70 v=0
240689 On ch=8 n=82 v=0
240689 On ch=8 n=74 v=0
240690 On ch=8 n=74 v=127
240690 On ch=8 n=82 v=127
240690 On ch=8 n=70 v=127
240719 On ch=8 n=70 v=0
240719 On ch=8 n=82 v=0
240719 On ch=8 n=74 v=0
240720 On ch=8 n=77 v=127
240720 On ch=8 n=82 v=126
240720 On ch=8 n=70 v=127
240749 On ch=8 n=70 v=0
240749 On ch=8 n=82 v=0
240749 On ch=8 n=77 v=0
240750 On ch=8 n=77 v=127
240750 On ch=8 n=82 v=127
240750 On ch=8 n=70 v=127
240779 On ch=8 n=70 v=0
240779 On ch=8 n=82 v=0
240779 On ch=8 n=77 v=0
240780 On ch=8 n=68 v=127
240780 On ch=8 n=82 v=127
240780 On ch=8 n=70 v=127
240809 On ch=8 n=70 v=0
240809 On ch=8 n=82 v=0
240809 On ch=8 n=68 v=0
240810 On ch=8 n=68 v=127
240810 On ch=8 n=82 v=127
240810 On ch=8 n=70 v=127
240839 On ch=8 n=70 v=0
240839 On ch=8 n=82 v=0
240839 On ch=8 n=68 v=0
240840 On ch=8 n=82 v=127
240840 On ch=8 n=70 v=127
240869 On ch=8 n=70 v=0
240869 On ch=8 n=82 v=0
240870 On ch=8 n=82 v=127
240870 On ch=8 n=70 v=127
240899 On ch=8 n=70 v=0
240899 On ch=8 n=82 v=0
240900 On ch=8 n=68 v=127
240900 On ch=8 n=82 v=127
240900 On ch=8 n=70 v=127
240929 On ch=8 n=70 v=0
240929 On ch=8 n=82 v=0
240929 On ch=8 n=68 v=0
240930 On ch=8 n=68 v=127
240930 On ch=8 n=82 v=127
240930 On ch=8 n=70 v=127
240959 On ch=8 n=70 v=0
240959 On ch=8 n=82 v=0
240959 On ch=8 n=68 v=0
240960 On ch=8 n=82 v=127
240960 On ch=8 n=70 v=127
240989 On ch=8 n=70 v=0
240989 On ch=8 n=82 v=0
240990 On ch=8 n=82 v=127
240990 On ch=8 n=70 v=127
241019 On ch=8 n=70 v=0
241019 On ch=8 n=82 v=0
241020 On ch=8 n=74 v=127
241020 On ch=8 n=82 v=127
241020 On ch=8 n=70 v=127
241049 On ch=8 n=70 v=0
241049 On ch=8 n=82 v=0
241049 On ch=8 n=74 v=0
241050 On ch=8 n=74 v=127
241050 On ch=8 n=82 v=127
241050 On ch=8 n=70 v=127
241079 On ch=8 n=70 v=0
241079 On ch=8 n=82 v=0
241079 On ch=8 n=74 v=0
241080 On ch=8 n=77 v=127
241080 On ch=8 n=82 v=126
241080 On ch=8 n=70 v=127
241109 On ch=8 n=70 v=0
241109 On ch=8 n=82 v=0
241109 On ch=8 n=77 v=0
241110 On ch=8 n=77 v=127
241110 On ch=8 n=82 v=127
241110 On ch=8 n=70 v=127
241139 On ch=8 n=70 v=0
241139 On ch=8 n=82 v=0
241139 On ch=8 n=77 v=0
241140 On ch=8 n=68 v=127
241140 On ch=8 n=82 v=127
241140 On ch=8 n=70 v=127
241169 On ch=8 n=70 v=0
241169 On ch=8 n=82 v=0
241169 On ch=8 n=68 v=0
241170 On ch=8 n=68 v=127
241170 On ch=8 n=82 v=127
241170 On ch=8 n=70 v=127
241199 On ch=8 n=70 v=0
241199 On ch=8 n=82 v=0
241199 On ch=8 n=68 v=0
241200 On ch=8 n=82 v=127
241200 On ch=8 n=75 v=127
241229 On ch=8 n=75 v=0
241229 On ch=8 n=82 v=0
241230 On ch=8 n=82 v=127
241230 On ch=8 n=75 v=127
241259 On ch=8 n=75 v=0
241259 On ch=8 n=82 v=0
241260 On ch=8 n=86 v=127
241260 On ch=8 n=74 v=127
241289 On ch=8 n=74 v=0
241289 On ch=8 n=86 v=0
241290 On ch=8 n=86 v=127
241290 On ch=8 n=74 v=127
241319 On ch=8 n=74 v=0
241319 On ch=8 n=86 v=0
241320 On ch=8 n=87 v=127
241320 On ch=8 n=75 v=127
241349 On ch=8 n=75 v=0
241349 On ch=8 n=87 v=0
241350 On ch=8 n=87 v=127
241350 On ch=8 n=75 v=127
241379 On ch=8 n=75 v=0
241379 On ch=8 n=87 v=0
241380 On ch=8 n=86 v=127
241380 On ch=8 n=74 v=127
241409 On ch=8 n=74 v=0
241409 On ch=8 n=86 v=0
241410 On ch=8 n=86 v=127
241410 On ch=8 n=74 v=127
241439 On ch=8 n=74 v=0
241439 On ch=8 n=86 v=0
241440 On ch=8 n=87 v=127
241440 On ch=8 n=75 v=127
241469 On ch=8 n=75 v=0
241469 On ch=8 n=87 v=0
241470 On ch=8 n=87 v=127
241470 On ch=8 n=75 v=127
241499 On ch=8 n=75 v=0
241499 On ch=8 n=87 v=0
241500 On ch=8 n=81 v=127
241500 On ch=8 n=69 v=127
241529 On ch=8 n=69 v=0
241529 On ch=8 n=81 v=0
241530 On ch=8 n=81 v=127
241530 On ch=8 n=69 v=127
241559 On ch=8 n=69 v=0
241559 On ch=8 n=81 v=0
241560 On ch=8 n=82 v=127
241560 On ch=8 n=70 v=127
241589 On ch=8 n=70 v=0
241589 On ch=8 n=82 v=0
241590 On ch=8 n=82 v=127
241590 On ch=8 n=70 v=127
241619 On ch=8 n=70 v=0
241619 On ch=8 n=82 v=0
241620 On ch=8 n=78 v=127
241620 On ch=8 n=66 v=127
241649 On ch=8 n=66 v=0
241649 On ch=8 n=78 v=0
241650 On ch=8 n=66 v=127
241650 On ch=8 n=78 v=127
241679 On ch=8 n=78 v=0
241679 On ch=8 n=66 v=0
241680 On ch=8 n=79 v=127
241680 On ch=8 n=67 v=127
241709 On ch=8 n=67 v=0
241709 On ch=8 n=79 v=0
241710 On ch=8 n=79 v=127
241710 On ch=8 n=67 v=127
241739 On ch=8 n=67 v=0
241739 On ch=8 n=79 v=0
241740 On ch=8 n=74 v=127
241740 On ch=8 n=62 v=127
241769 On ch=8 n=62 v=0
241769 On ch=8 n=74 v=0
241770 On ch=8 n=74 v=127
241770 On ch=8 n=62 v=127
241799 On ch=8 n=62 v=0
241799 On ch=8 n=74 v=0
241800 On ch=8 n=75 v=127
241800 On ch=8 n=63 v=127
241829 On ch=8 n=63 v=0
241829 On ch=8 n=75 v=0
241830 On ch=8 n=75 v=127
241830 On ch=8 n=63 v=127
241859 On ch=8 n=63 v=0
241859 On ch=8 n=75 v=0
241860 On ch=8 n=73 v=127
241860 On ch=8 n=61 v=127
241889 On ch=8 n=61 v=0
241889 On ch=8 n=73 v=0
241890 On ch=8 n=73 v=127
241890 On ch=8 n=61 v=127
241919 On ch=8 n=61 v=0
241919 On ch=8 n=73 v=0
241920 On ch=8 n=72 v=127
241920 On ch=8 n=60 v=127
241949 On ch=8 n=60 v=0
241949 On ch=8 n=72 v=0
241950 On ch=8 n=72 v=127
241950 On ch=8 n=60 v=127
241979 On ch=8 n=60 v=0
241979 On ch=8 n=72 v=0
241980 On ch=8 n=76 v=127
241980 On ch=8 n=64 v=127
242009 On ch=8 n=64 v=0
242009 On ch=8 n=76 v=0
242010 On ch=8 n=76 v=127
242010 On ch=8 n=64 v=127
242039 On ch=8 n=64 v=0
242039 On ch=8 n=76 v=0
242040 On ch=8 n=77 v=127
242040 On ch=8 n=65 v=127
242069 On ch=8 n=65 v=0
242069 On ch=8 n=77 v=0
242070 On ch=8 n=77 v=127
242070 On ch=8 n=65 v=127
242099 On ch=8 n=65 v=0
242099 On ch=8 n=77 v=0
242100 On ch=8 n=75 v=127
242100 On ch=8 n=63 v=127
242129 On ch=8 n=63 v=0
242129 On ch=8 n=75 v=0
242130 On ch=8 n=75 v=127
242130 On ch=8 n=63 v=127
242159 On ch=8 n=63 v=0
242159 On ch=8 n=75 v=0
242160 On ch=8 n=74 v=127
242160 On ch=8 n=62 v=127
242189 On ch=8 n=62 v=0
242189 On ch=8 n=74 v=0
242190 On ch=8 n=74 v=127
242190 On ch=8 n=62 v=127
242219 On ch=8 n=62 v=0
242219 On ch=8 n=74 v=0
242220 On ch=8 n=78 v=127
242220 On ch=8 n=66 v=127
242249 On ch=8 n=66 v=0
242249 On ch=8 n=78 v=0
242250 On ch=8 n=78 v=127
242250 On ch=8 n=66 v=127
242279 On ch=8 n=66 v=0
242279 On ch=8 n=78 v=0
242280 On ch=8 n=79 v=127
242280 On ch=8 n=67 v=127
242309 On ch=8 n=67 v=0
242309 On ch=8 n=79 v=0
242310 On ch=8 n=79 v=127
242310 On ch=8 n=67 v=127
242339 On ch=8 n=67 v=0
242339 On ch=8 n=79 v=0
242340 On ch=8 n=77 v=127
242340 On ch=8 n=65 v=127
242369 On ch=8 n=65 v=0
242369 On ch=8 n=77 v=0
242370 On ch=8 n=77 v=127
242370 On ch=8 n=65 v=127
242399 On ch=8 n=65 v=0
242399 On ch=8 n=77 v=0
242400 On ch=8 n=75 v=127
242400 On ch=8 n=63 v=127
242429 On ch=8 n=63 v=0
242429 On ch=8 n=75 v=0
242430 On ch=8 n=75 v=127
242430 On ch=8 n=63 v=127
242459 On ch=8 n=63 v=0
242459 On ch=8 n=75 v=0
242460 On ch=8 n=79 v=127
242460 On ch=8 n=67 v=127
242489 On ch=8 n=67 v=0
242489 On ch=8 n=79 v=0
242490 On ch=8 n=79 v=127
242490 On ch=8 n=67 v=127
242519 On ch=8 n=67 v=0
242519 On ch=8 n=79 v=0
242520 On ch=8 n=80 v=127
242520 On ch=8 n=68 v=127
242549 On ch=8 n=68 v=0
242549 On ch=8 n=80 v=0
242550 On ch=8 n=80 v=127
242550 On ch=8 n=68 v=127
242579 On ch=8 n=68 v=0
242579 On ch=8 n=80 v=0
242580 On ch=8 n=79 v=127
242580 On ch=8 n=67 v=127
242609 On ch=8 n=67 v=0
242609 On ch=8 n=79 v=0
242610 On ch=8 n=79 v=127
242610 On ch=8 n=67 v=127
242639 On ch=8 n=67 v=0
242639 On ch=8 n=79 v=0
242640 On ch=8 n=77 v=127
242640 On ch=8 n=65 v=127
242669 On ch=8 n=65 v=0
242669 On ch=8 n=77 v=0
242670 On ch=8 n=77 v=127
242670 On ch=8 n=65 v=127
242699 On ch=8 n=65 v=0
242699 On ch=8 n=77 v=0
242700 On ch=8 n=81 v=127
242700 On ch=8 n=69 v=127
242729 On ch=8 n=69 v=0
242729 On ch=8 n=81 v=0
242730 On ch=8 n=81 v=127
242730 On ch=8 n=69 v=127
242759 On ch=8 n=69 v=0
242759 On ch=8 n=81 v=0
242760 On ch=8 n=82 v=127
242760 On ch=8 n=70 v=127
242789 On ch=8 n=70 v=0
242789 On ch=8 n=82 v=0
242790 On ch=8 n=82 v=127
242790 On ch=8 n=70 v=127
242819 On ch=8 n=70 v=0
242819 On ch=8 n=82 v=0
242820 On ch=8 n=80 v=127
242820 On ch=8 n=68 v=127
242849 On ch=8 n=68 v=0
242849 On ch=8 n=80 v=0
242850 On ch=8 n=80 v=127
242850 On ch=8 n=68 v=127
242879 On ch=8 n=68 v=0
242879 On ch=8 n=80 v=0
242880 On ch=8 n=79 v=127
242880 On ch=8 n=67 v=127
242909 On ch=8 n=67 v=0
242909 On ch=8 n=79 v=0
242910 On ch=8 n=79 v=127
242910 On ch=8 n=67 v=127
242939 On ch=8 n=67 v=0
242939 On ch=8 n=79 v=0
242940 On ch=8 n=83 v=127
242940 On ch=8 n=71 v=127
242969 On ch=8 n=71 v=0
242969 On ch=8 n=83 v=0
242970 On ch=8 n=83 v=127
242970 On ch=8 n=71 v=127
242999 On ch=8 n=71 v=0
242999 On ch=8 n=83 v=0
243000 On ch=8 n=84 v=127
243000 On ch=8 n=72 v=127
243029 On ch=8 n=72 v=0
243029 On ch=8 n=84 v=0
243030 On ch=8 n=84 v=127
243030 On ch=8 n=72 v=127
243059 On ch=8 n=72 v=0
243059 On ch=8 n=84 v=0
243060 On ch=8 n=86 v=127
243060 On ch=8 n=74 v=127
243089 On ch=8 n=74 v=0
243089 On ch=8 n=86 v=0
243090 On ch=8 n=74 v=127
243090 On ch=8 n=86 v=127
243119 On ch=8 n=86 v=0
243119 On ch=8 n=74 v=0
243120 On ch=8 n=87 v=127
243120 On ch=8 n=75 v=127
243149 On ch=8 n=75 v=0
243149 On ch=8 n=87 v=0
243150 On ch=8 n=87 v=127
243150 On ch=8 n=75 v=127
243179 On ch=8 n=75 v=0
243179 On ch=8 n=87 v=0
243180 On ch=8 n=88 v=127
243180 On ch=8 n=76 v=127
243209 On ch=8 n=76 v=0
243209 On ch=8 n=88 v=0
243210 On ch=8 n=88 v=127
243210 On ch=8 n=76 v=127
243239 On ch=8 n=76 v=0
243239 On ch=8 n=88 v=0
243240 On ch=8 n=89 v=127
243240 On ch=8 n=77 v=127
243269 On ch=8 n=77 v=0
243269 On ch=8 n=89 v=0
243270 On ch=8 n=89 v=127
243270 On ch=8 n=77 v=127
243299 On ch=8 n=77 v=0
243299 On ch=8 n=89 v=0
243300 On ch=8 n=90 v=127
243300 On ch=8 n=78 v=127
243329 On ch=8 n=78 v=0
243329 On ch=8 n=90 v=0
243330 On ch=8 n=90 v=127
243330 On ch=8 n=78 v=127
243359 On ch=8 n=78 v=0
243359 On ch=8 n=90 v=0
243360 On ch=8 n=91 v=127
243360 On ch=8 n=79 v=127
243419 On ch=8 n=79 v=0
243419 On ch=8 n=91 v=0
243480 On ch=8 n=67 v=127
243480 On ch=8 n=77 v=127
243480 On ch=8 n=86 v=127
243539 On ch=8 n=86 v=0
243539 On ch=8 n=77 v=0
243539 On ch=8 n=67 v=0
243600 On ch=8 n=84 v=127
243600 On ch=8 n=75 v=127
243600 On ch=8 n=67 v=127
243659 On ch=8 n=67 v=0
243659 On ch=8 n=75 v=0
243659 On ch=8 n=84 v=0
243840 On ch=8 n=55 v=127
243840 On ch=8 n=63 v=127
243840 On ch=8 n=73 v=127
243840 On ch=8 n=82 v=127
243899 On ch=8 n=82 v=0
243899 On ch=8 n=55 v=0
243899 On ch=8 n=63 v=0
243899 On ch=8 n=73 v=0
243960 On ch=8 n=80 v=127
243960 On ch=8 n=72 v=127
243960 On ch=8 n=63 v=127
243960 On ch=8 n=56 v=127
244019 On ch=8 n=56 v=0
244019 On ch=8 n=80 v=0
244019 On ch=8 n=72 v=0
244019 On ch=8 n=63 v=0
244200 On ch=8 n=57 v=127
244200 On ch=8 n=65 v=127
244200 On ch=8 n=75 v=127
244200 On ch=8 n=84 v=127
244259 On ch=8 n=84 v=0
244259 On ch=8 n=57 v=0
244259 On ch=8 n=65 v=0
244259 On ch=8 n=75 v=0
244320 On ch=8 n=82 v=127
244320 On ch=8 n=74 v=127
244320 On ch=8 n=65 v=127
244320 On ch=8 n=58 v=127
244379 On ch=8 n=58 v=0
244379 On ch=8 n=82 v=0
244379 On ch=8 n=74 v=0
244379 On ch=8 n=65 v=0
244560 On ch=8 n=67 v=127
244560 On ch=8 n=77 v=127
244560 On ch=8 n=86 v=127
244619 On ch=8 n=86 v=0
244619 On ch=8 n=77 v=0
244619 On ch=8 n=67 v=0
244680 On ch=8 n=84 v=127
244680 On ch=8 n=75 v=127
244680 On ch=8 n=67 v=127
244739 On ch=8 n=67 v=0
244739 On ch=8 n=75 v=0
244739 On ch=8 n=84 v=0
244920 On ch=8 n=55 v=127
244920 On ch=8 n=63 v=127
244920 On ch=8 n=73 v=127
244920 On ch=8 n=82 v=127
244979 On ch=8 n=82 v=0
244979 On ch=8 n=55 v=0
244979 On ch=8 n=63 v=0
244979 On ch=8 n=73 v=0
245040 On ch=8 n=80 v=127
245040 On ch=8 n=72 v=127
245040 On ch=8 n=63 v=127
245040 On ch=8 n=56 v=127
245099 On ch=8 n=56 v=0
245099 On ch=8 n=80 v=0
245099 On ch=8 n=72 v=0
245099 On ch=8 n=63 v=0
245280 On ch=8 n=84 v=127
245280 On ch=8 n=75 v=127
245280 On ch=8 n=66 v=127
245280 On ch=8 n=57 v=127
245339 On ch=8 n=57 v=0
245339 On ch=8 n=84 v=0
245339 On ch=8 n=75 v=0
245339 On ch=8 n=66 v=0
245520 On ch=8 n=57 v=127
245520 On ch=8 n=66 v=127
245520 On ch=8 n=75 v=127
245520 On ch=8 n=84 v=127
245579 On ch=8 n=84 v=0
245579 On ch=8 n=57 v=0
245579 On ch=8 n=66 v=0
245579 On ch=8 n=75 v=0
245760 On ch=8 n=84 v=127
245760 On ch=8 n=75 v=127
245760 On ch=8 n=66 v=127
245760 On ch=8 n=57 v=127
245819 On ch=8 n=57 v=0
245819 On ch=8 n=84 v=0
245819 On ch=8 n=75 v=0
245819 On ch=8 n=66 v=0
246000 On ch=8 n=57 v=127
246000 On ch=8 n=66 v=127
246000 On ch=8 n=75 v=127
246000 On ch=8 n=84 v=127
246059 On ch=8 n=84 v=0
246059 On ch=8 n=57 v=0
246059 On ch=8 n=66 v=0
246059 On ch=8 n=75 v=0
246240 On ch=8 n=84 v=127
246240 On ch=8 n=75 v=127
246240 On ch=8 n=66 v=127
246240 On ch=8 n=57 v=127
246299 On ch=8 n=57 v=0
246299 On ch=8 n=84 v=0
246299 On ch=8 n=75 v=0
246299 On ch=8 n=66 v=0
246480 On ch=8 n=57 v=127
246480 On ch=8 n=66 v=127
246480 On ch=8 n=75 v=127
246480 On ch=8 n=84 v=127
246539 On ch=8 n=84 v=0
246539 On ch=8 n=57 v=0
246539 On ch=8 n=66 v=0
246539 On ch=8 n=75 v=0
246960 On ch=8 n=75 v=96
246960 On ch=8 n=63 v=96
246989 On ch=8 n=63 v=0
246989 On ch=8 n=75 v=0
246990 On ch=8 n=75 v=48
246990 On ch=8 n=63 v=48
247080 On ch=8 n=78 v=48
247080 On ch=8 n=66 v=48
247089 On ch=8 n=63 v=0
247089 On ch=8 n=75 v=0
247200 On ch=8 n=81 v=48
247200 On ch=8 n=69 v=48
247209 On ch=8 n=78 v=0
247209 On ch=8 n=66 v=0
247319 On ch=8 n=81 v=0
247319 On ch=8 n=69 v=0
247320 On ch=8 n=82 v=48
247320 On ch=8 n=70 v=48
247679 On ch=8 n=70 v=0
247679 On ch=8 n=82 v=0
247680 On ch=8 n=75 v=96
247680 On ch=8 n=63 v=96
247709 On ch=8 n=63 v=0
247709 On ch=8 n=75 v=0
247710 On ch=8 n=75 v=48
247710 On ch=8 n=63 v=48
247800 On ch=8 n=78 v=48
247800 On ch=8 n=66 v=48
247809 On ch=8 n=63 v=0
247809 On ch=8 n=75 v=0
247920 On ch=8 n=81 v=48
247920 On ch=8 n=69 v=48
247929 On ch=8 n=78 v=0
247929 On ch=8 n=66 v=0
248160 On ch=8 n=80 v=48
248160 On ch=8 n=68 v=48
248169 On ch=8 n=81 v=0
248169 On ch=8 n=69 v=0
248280 On ch=8 n=78 v=48
248280 On ch=8 n=66 v=48
248289 On ch=8 n=80 v=0
248289 On ch=8 n=68 v=0
248520 On ch=8 n=76 v=48
248520 On ch=8 n=64 v=48
248529 On ch=8 n=78 v=0
248529 On ch=8 n=66 v=0
248640 On ch=8 n=77 v=48
248640 On ch=8 n=65 v=48
248649 On ch=8 n=76 v=0
248649 On ch=8 n=64 v=0
248880 On ch=8 n=70 v=48
248880 On ch=8 n=58 v=48
248889 On ch=8 n=77 v=0
248889 On ch=8 n=65 v=0
249000 On ch=8 n=80 v=48
249000 On ch=8 n=68 v=48
249009 On ch=8 n=70 v=0
249009 On ch=8 n=58 v=0
249240 On ch=8 n=78 v=48
249240 On ch=8 n=66 v=48
249249 On ch=8 n=80 v=0
249249 On ch=8 n=68 v=0
249360 On ch=8 n=79 v=48
249360 On ch=8 n=67 v=48
249369 On ch=8 n=78 v=0
249369 On ch=8 n=66 v=0
249539 On ch=8 n=79 v=0
249539 On ch=8 n=67 v=0
249540 On ch=8 n=71 v=56
249540 On ch=8 n=59 v=56
249600 On ch=8 n=72 v=60
249600 On ch=8 n=60 v=60
249609 On ch=8 n=59 v=0
249609 On ch=8 n=71 v=0
249660 On ch=8 n=76 v=64
249660 On ch=8 n=64 v=64
249669 On ch=8 n=72 v=0
249669 On ch=8 n=60 v=0
249720 On ch=8 n=65 v=68
249720 On ch=8 n=77 v=68
249729 On ch=8 n=76 v=0
249729 On ch=8 n=64 v=0
249780 On ch=8 n=79 v=72
249780 On ch=8 n=67 v=72
249789 On ch=8 n=65 v=0
249789 On ch=8 n=77 v=0
249840 On ch=8 n=68 v=77
249840 On ch=8 n=80 v=77
249849 On ch=8 n=79 v=0
249849 On ch=8 n=67 v=0
249900 On ch=8 n=83 v=82
249900 On ch=8 n=71 v=82
249909 On ch=8 n=68 v=0
249909 On ch=8 n=80 v=0
249960 On ch=8 n=72 v=87
249960 On ch=8 n=84 v=87
249969 On ch=8 n=83 v=0
249969 On ch=8 n=71 v=0
250020 On ch=8 n=68 v=92
250020 On ch=8 n=80 v=92
250029 On ch=8 n=72 v=0
250029 On ch=8 n=84 v=0
250080 On ch=8 n=79 v=97
250080 On ch=8 n=67 v=97
250089 On ch=8 n=68 v=0
250089 On ch=8 n=80 v=0
250140 On ch=8 n=65 v=102
250140 On ch=8 n=77 v=102
250149 On ch=8 n=79 v=0
250149 On ch=8 n=67 v=0
250199 On ch=8 n=65 v=0
250199 On ch=8 n=77 v=0
250200 On ch=8 n=75 v=105
250200 On ch=8 n=63 v=105
250229 On ch=8 n=63 v=0
250229 On ch=8 n=75 v=0
250230 On ch=8 n=75 v=107
250230 On ch=8 n=63 v=107
250259 On ch=8 n=63 v=0
250259 On ch=8 n=75 v=0
250260 On ch=8 n=79 v=110
250260 On ch=8 n=67 v=110
250289 On ch=8 n=67 v=0
250289 On ch=8 n=79 v=0
250290 On ch=8 n=79 v=112
250290 On ch=8 n=67 v=112
250319 On ch=8 n=67 v=0
250319 On ch=8 n=79 v=0
250320 On ch=8 n=82 v=115
250320 On ch=8 n=70 v=115
250349 On ch=8 n=70 v=0
250349 On ch=8 n=82 v=0
250350 On ch=8 n=82 v=117
250350 On ch=8 n=70 v=117
250379 On ch=8 n=70 v=0
250379 On ch=8 n=82 v=0
250380 On ch=8 n=82 v=120
250380 On ch=8 n=70 v=120
250409 On ch=8 n=70 v=0
250409 On ch=8 n=82 v=0
250410 On ch=8 n=82 v=122
250410 On ch=8 n=70 v=122
250439 On ch=8 n=70 v=0
250439 On ch=8 n=82 v=0
250440 On ch=8 n=82 v=121
250440 On ch=8 n=75 v=121
250469 On ch=8 n=75 v=0
250469 On ch=8 n=82 v=0
250470 On ch=8 n=82 v=123
250470 On ch=8 n=75 v=123
250499 On ch=8 n=75 v=0
250499 On ch=8 n=82 v=0
250500 On ch=8 n=82 v=124
250500 On ch=8 n=79 v=124
250529 On ch=8 n=79 v=0
250529 On ch=8 n=82 v=0
250530 On ch=8 n=82 v=126
250530 On ch=8 n=79 v=126
250559 On ch=8 n=79 v=0
250559 On ch=8 n=82 v=0
250560 On ch=8 n=80 v=127
250560 On ch=8 n=82 v=127
250589 On ch=8 n=82 v=0
250589 On ch=8 n=80 v=0
250590 On ch=8 n=68 v=127
250590 On ch=8 n=82 v=127
250619 On ch=8 n=82 v=0
250619 On ch=8 n=68 v=0
250620 On ch=8 n=68 v=127
250620 On ch=8 n=82 v=127
250649 On ch=8 n=82 v=0
250649 On ch=8 n=68 v=0
250650 On ch=8 n=82 v=127
250650 On ch=8 n=68 v=127
250679 On ch=8 n=68 v=0
250679 On ch=8 n=82 v=0
250680 On ch=8 n=82 v=127
250680 On ch=8 n=68 v=127
250709 On ch=8 n=68 v=0
250709 On ch=8 n=82 v=0
250710 On ch=8 n=82 v=127
250710 On ch=8 n=68 v=127
250739 On ch=8 n=68 v=0
250739 On ch=8 n=82 v=0
250740 On ch=8 n=82 v=127
250740 On ch=8 n=68 v=127
250769 On ch=8 n=68 v=0
250769 On ch=8 n=82 v=0
250770 On ch=8 n=82 v=127
250770 On ch=8 n=68 v=127
250799 On ch=8 n=68 v=0
250799 On ch=8 n=82 v=0
250800 On ch=8 n=82 v=127
250800 On ch=8 n=68 v=127
250829 On ch=8 n=68 v=0
250829 On ch=8 n=82 v=0
250830 On ch=8 n=82 v=127
250830 On ch=8 n=68 v=127
250859 On ch=8 n=68 v=0
250859 On ch=8 n=82 v=0
250860 On ch=8 n=82 v=127
250860 On ch=8 n=68 v=127
250889 On ch=8 n=68 v=0
250889 On ch=8 n=82 v=0
250890 On ch=8 n=82 v=127
250890 On ch=8 n=68 v=127
250919 On ch=8 n=68 v=0
250919 On ch=8 n=82 v=0
250920 On ch=8 n=75 v=127
250920 On ch=8 n=67 v=127
250979 On ch=8 n=67 v=0
251039 On ch=8 n=75 v=0
251040 On ch=8 n=70 v=127
251099 On ch=8 n=70 v=0
251160 On ch=8 n=67 v=127
251219 On ch=8 n=67 v=0
251280 On ch=8 n=87 v=127
251280 On ch=8 n=75 v=127
251399 On ch=8 n=75 v=0
251399 On ch=8 n=87 v=0
251400 On ch=8 n=72 v=127
251459 On ch=8 n=72 v=0
251520 On ch=8 n=68 v=127
251579 On ch=8 n=68 v=0
251640 On ch=8 n=75 v=127
251640 On ch=8 n=87 v=127
251759 On ch=8 n=87 v=0
251759 On ch=8 n=75 v=0
251760 On ch=8 n=70 v=127
251819 On ch=8 n=70 v=0
251880 On ch=8 n=67 v=127
251939 On ch=8 n=67 v=0
252000 On ch=8 n=71 v=127
252000 On ch=8 n=68 v=127
252000 On ch=8 n=87 v=127
252000 On ch=8 n=75 v=127
252059 On ch=8 n=75 v=0
252059 On ch=8 n=71 v=0
252059 On ch=8 n=68 v=0
252059 On ch=8 n=87 v=0
252120 On ch=8 n=71 v=127
252120 On ch=8 n=68 v=127
252120 On ch=8 n=87 v=127
252120 On ch=8 n=75 v=127
252179 On ch=8 n=75 v=0
252179 On ch=8 n=71 v=0
252179 On ch=8 n=68 v=0
252179 On ch=8 n=87 v=0
252240 On ch=8 n=71 v=127
252240 On ch=8 n=68 v=127
252240 On ch=8 n=87 v=127
252240 On ch=8 n=75 v=127
252299 On ch=8 n=75 v=0
252299 On ch=8 n=71 v=0
252299 On ch=8 n=68 v=0
252299 On ch=8 n=87 v=0
252360 On ch=8 n=70 v=96
252360 On ch=8 n=67 v=96
252360 On ch=8 n=87 v=96
252360 On ch=8 n=75 v=96
252389 On ch=8 n=75 v=0
252389 On ch=8 n=70 v=0
252389 On ch=8 n=67 v=0
252389 On ch=8 n=87 v=0
252390 On ch=8 n=67 v=48
252390 On ch=8 n=70 v=48
252390 On ch=8 n=87 v=48
252390 On ch=8 n=75 v=48
252599 On ch=8 n=70 v=0
252599 On ch=8 n=67 v=0
252600 On ch=8 n=67 v=48
252600 On ch=8 n=79 v=48
252609 On ch=8 n=87 v=0
252609 On ch=8 n=75 v=0
252720 On ch=8 n=75 v=48
252720 On ch=8 n=63 v=48
252729 On ch=8 n=67 v=0
252729 On ch=8 n=79 v=0
252960 On ch=8 n=58 v=48
252960 On ch=8 n=70 v=48
252969 On ch=8 n=75 v=0
252969 On ch=8 n=63 v=0
253079 On ch=8 n=58 v=0
253079 On ch=8 n=70 v=0
253080 On ch=8 n=75 v=48
253080 On ch=8 n=63 v=48
254519 On ch=8 n=63 v=0
254519 On ch=8 n=75 v=0
254520 On ch=8 n=61 v=96
254520 On ch=8 n=73 v=96
254760 On ch=8 n=77 v=96
254760 On ch=8 n=65 v=96
254769 On ch=8 n=73 v=0
254769 On ch=8 n=61 v=0
254880 On ch=8 n=73 v=96
254880 On ch=8 n=61 v=96
254889 On ch=8 n=77 v=0
254889 On ch=8 n=65 v=0
255120 On ch=8 n=56 v=96
255120 On ch=8 n=68 v=96
255129 On ch=8 n=73 v=0
255129 On ch=8 n=61 v=0
255239 On ch=8 n=56 v=0
255239 On ch=8 n=68 v=0
255240 On ch=8 n=73 v=48
255240 On ch=8 n=61 v=48
255959 On ch=8 n=61 v=0
255959 On ch=8 n=73 v=0
255960 On ch=8 n=72 v=127
255960 On ch=8 n=60 v=127
255989 On ch=8 n=60 v=0
255989 On ch=8 n=72 v=0
255990 On ch=8 n=72 v=127
255990 On ch=8 n=55 v=127
255990 On ch=8 n=64 v=127
256019 On ch=8 n=64 v=0
256019 On ch=8 n=55 v=0
256019 On ch=8 n=72 v=0
256020 On ch=8 n=72 v=127
256020 On ch=8 n=55 v=127
256020 On ch=8 n=64 v=127
256049 On ch=8 n=64 v=0
256049 On ch=8 n=55 v=0
256049 On ch=8 n=72 v=0
256050 On ch=8 n=72 v=127
256050 On ch=8 n=55 v=127
256050 On ch=8 n=64 v=127
256079 On ch=8 n=64 v=0
256079 On ch=8 n=55 v=0
256079 On ch=8 n=72 v=0
256080 On ch=8 n=72 v=127
256080 On ch=8 n=55 v=127
256080 On ch=8 n=64 v=127
256109 On ch=8 n=64 v=0
256109 On ch=8 n=55 v=0
256109 On ch=8 n=72 v=0
256110 On ch=8 n=72 v=127
256110 On ch=8 n=55 v=127
256110 On ch=8 n=64 v=127
256139 On ch=8 n=64 v=0
256139 On ch=8 n=55 v=0
256139 On ch=8 n=72 v=0
256140 On ch=8 n=72 v=127
256140 On ch=8 n=55 v=127
256140 On ch=8 n=64 v=127
256169 On ch=8 n=64 v=0
256169 On ch=8 n=55 v=0
256169 On ch=8 n=72 v=0
256170 On ch=8 n=72 v=127
256170 On ch=8 n=55 v=127
256170 On ch=8 n=64 v=127
256199 On ch=8 n=64 v=0
256199 On ch=8 n=55 v=0
256199 On ch=8 n=72 v=0
256200 On ch=8 n=76 v=127
256200 On ch=8 n=55 v=127
256200 On ch=8 n=64 v=127
256229 On ch=8 n=64 v=0
256229 On ch=8 n=55 v=0
256229 On ch=8 n=76 v=0
256230 On ch=8 n=76 v=127
256230 On ch=8 n=55 v=127
256230 On ch=8 n=64 v=127
256259 On ch=8 n=64 v=0
256259 On ch=8 n=55 v=0
256259 On ch=8 n=76 v=0
256260 On ch=8 n=76 v=127
256260 On ch=8 n=55 v=127
256260 On ch=8 n=64 v=127
256289 On ch=8 n=64 v=0
256289 On ch=8 n=55 v=0
256289 On ch=8 n=76 v=0
256290 On ch=8 n=76 v=127
256290 On ch=8 n=55 v=127
256319 On ch=8 n=55 v=0
256319 On ch=8 n=76 v=0
256320 On ch=8 n=72 v=127
256320 On ch=8 n=55 v=127
256320 On ch=8 n=64 v=127
256349 On ch=8 n=64 v=0
256349 On ch=8 n=55 v=0
256349 On ch=8 n=72 v=0
256350 On ch=8 n=72 v=127
256350 On ch=8 n=64 v=127
256379 On ch=8 n=64 v=0
256379 On ch=8 n=72 v=0
256380 On ch=8 n=64 v=127
256380 On ch=8 n=72 v=127
256409 On ch=8 n=72 v=0
256409 On ch=8 n=64 v=0
256410 On ch=8 n=64 v=127
256410 On ch=8 n=72 v=127
256439 On ch=8 n=72 v=0
256439 On ch=8 n=64 v=0
256440 On ch=8 n=64 v=127
256440 On ch=8 n=72 v=127
256469 On ch=8 n=72 v=0
256469 On ch=8 n=64 v=0
256470 On ch=8 n=64 v=127
256470 On ch=8 n=72 v=127
256499 On ch=8 n=72 v=0
256499 On ch=8 n=64 v=0
256500 On ch=8 n=64 v=127
256500 On ch=8 n=72 v=127
256529 On ch=8 n=72 v=0
256529 On ch=8 n=64 v=0
256530 On ch=8 n=64 v=127
256530 On ch=8 n=72 v=127
256559 On ch=8 n=72 v=0
256559 On ch=8 n=64 v=0
256560 On ch=8 n=67 v=127
256560 On ch=8 n=64 v=127
256560 On ch=8 n=72 v=127
256589 On ch=8 n=72 v=0
256589 On ch=8 n=64 v=0
256589 On ch=8 n=67 v=0
256590 On ch=8 n=67 v=127
256590 On ch=8 n=64 v=127
256590 On ch=8 n=72 v=127
256619 On ch=8 n=72 v=0
256619 On ch=8 n=64 v=0
256619 On ch=8 n=67 v=0
256620 On ch=8 n=67 v=127
256620 On ch=8 n=64 v=127
256620 On ch=8 n=72 v=127
256649 On ch=8 n=72 v=0
256649 On ch=8 n=64 v=0
256649 On ch=8 n=67 v=0
256650 On ch=8 n=67 v=127
256650 On ch=8 n=64 v=127
256650 On ch=8 n=72 v=127
256679 On ch=8 n=72 v=0
256679 On ch=8 n=64 v=0
256679 On ch=8 n=67 v=0
256680 On ch=8 n=72 v=48
256680 On ch=8 n=64 v=48
256799 On ch=8 n=64 v=0
257040 On ch=8 n=60 v=48
257519 On ch=8 n=72 v=0
257640 On ch=8 n=64 v=32
257649 On ch=8 n=60 v=0
257760 On ch=8 n=60 v=32
257769 On ch=8 n=64 v=0
258000 On ch=8 n=55 v=32
258009 On ch=8 n=60 v=0
258119 On ch=8 n=55 v=0
258120 On ch=8 n=60 v=32
258180 On ch=8 n=79 v=32
258210 On ch=8 n=78 v=32
258219 On ch=8 n=79 v=0
258239 On ch=8 n=78 v=0
258240 On ch=8 n=79 v=32
258269 On ch=8 n=79 v=0
258300 On ch=8 n=79 v=32
258329 On ch=8 n=79 v=0
258360 On ch=8 n=79 v=32
258360 On ch=8 n=64 v=32
258369 On ch=8 n=60 v=0
258389 On ch=8 n=79 v=0
258420 On ch=8 n=79 v=32
258449 On ch=8 n=79 v=0
258480 On ch=8 n=60 v=32
258489 On ch=8 n=64 v=0
258540 On ch=8 n=79 v=32
258570 On ch=8 n=78 v=32
258579 On ch=8 n=79 v=0
258599 On ch=8 n=78 v=0
258600 On ch=8 n=79 v=32
258629 On ch=8 n=79 v=0
258660 On ch=8 n=79 v=32
258689 On ch=8 n=79 v=0
258720 On ch=8 n=79 v=32
258720 On ch=8 n=55 v=32
258729 On ch=8 n=60 v=0
258749 On ch=8 n=79 v=0
258780 On ch=8 n=79 v=32
258809 On ch=8 n=79 v=0
258839 On ch=8 n=55 v=0
258840 On ch=8 n=62 v=32
258900 On ch=8 n=79 v=32
258930 On ch=8 n=78 v=32
258939 On ch=8 n=79 v=0
258959 On ch=8 n=78 v=0
258960 On ch=8 n=79 v=32
258989 On ch=8 n=79 v=0
259020 On ch=8 n=81 v=32
259049 On ch=8 n=81 v=0
259080 On ch=8 n=83 v=32
259080 On ch=8 n=65 v=32
259089 On ch=8 n=62 v=0
259109 On ch=8 n=83 v=0
259140 On ch=8 n=84 v=32
259169 On ch=8 n=84 v=0
259200 On ch=8 n=86 v=32
259200 On ch=8 n=62 v=32
259209 On ch=8 n=65 v=0
259229 On ch=8 n=86 v=0
259260 On ch=8 n=88 v=32
259289 On ch=8 n=88 v=0
259320 On ch=8 n=89 v=32
259349 On ch=8 n=89 v=0
259380 On ch=8 n=88 v=32
259409 On ch=8 n=88 v=0
259440 On ch=8 n=86 v=32
259440 On ch=8 n=55 v=32
259449 On ch=8 n=62 v=0
259469 On ch=8 n=86 v=0
259500 On ch=8 n=84 v=32
259529 On ch=8 n=84 v=0
259559 On ch=8 n=55 v=0
259560 On ch=8 n=83 v=32
259560 On ch=8 n=62 v=32
259589 On ch=8 n=83 v=0
259620 On ch=8 n=84 v=32
259649 On ch=8 n=84 v=0
259680 On ch=8 n=86 v=32
259709 On ch=8 n=86 v=0
259740 On ch=8 n=84 v=32
259769 On ch=8 n=84 v=0
259800 On ch=8 n=83 v=32
259800 On ch=8 n=65 v=32
259809 On ch=8 n=62 v=0
259829 On ch=8 n=83 v=0
259860 On ch=8 n=81 v=32
259889 On ch=8 n=81 v=0
259920 On ch=8 n=79 v=32
259920 On ch=8 n=62 v=32
259929 On ch=8 n=65 v=0
259949 On ch=8 n=79 v=0
259980 On ch=8 n=78 v=32
260009 On ch=8 n=78 v=0
260040 On ch=8 n=79 v=32
260069 On ch=8 n=79 v=0
260100 On ch=8 n=77 v=32
260129 On ch=8 n=77 v=0
260160 On ch=8 n=76 v=32
260160 On ch=8 n=55 v=32
260169 On ch=8 n=62 v=0
260189 On ch=8 n=76 v=0
260220 On ch=8 n=74 v=32
260249 On ch=8 n=74 v=0
260279 On ch=8 n=55 v=0
260280 On ch=8 n=64 v=32
260340 On ch=8 n=72 v=32
260370 On ch=8 n=71 v=32
260379 On ch=8 n=72 v=0
260399 On ch=8 n=71 v=0
260400 On ch=8 n=72 v=32
260429 On ch=8 n=72 v=0
260460 On ch=8 n=76 v=32
260489 On ch=8 n=76 v=0
260520 On ch=8 n=79 v=32
260520 On ch=8 n=67 v=32
260529 On ch=8 n=64 v=0
260549 On ch=8 n=79 v=0
260580 On ch=8 n=76 v=32
260609 On ch=8 n=76 v=0
260640 On ch=8 n=84 v=32
260640 On ch=8 n=64 v=32
260649 On ch=8 n=67 v=0
260669 On ch=8 n=84 v=0
260700 On ch=8 n=79 v=32
260729 On ch=8 n=79 v=0
260760 On ch=8 n=76 v=32
260789 On ch=8 n=76 v=0
260820 On ch=8 n=79 v=32
260849 On ch=8 n=79 v=0
260880 On ch=8 n=76 v=32
260880 On ch=8 n=60 v=32
260889 On ch=8 n=64 v=0
260909 On ch=8 n=76 v=0
260940 On ch=8 n=72 v=32
260969 On ch=8 n=72 v=0
260999 On ch=8 n=60 v=0
261000 On ch=8 n=65 v=32
261060 On ch=8 n=72 v=32
261090 On ch=8 n=71 v=32
261099 On ch=8 n=72 v=0
261119 On ch=8 n=71 v=0
261120 On ch=8 n=72 v=32
261149 On ch=8 n=72 v=0
261180 On ch=8 n=77 v=32
261209 On ch=8 n=77 v=0
261240 On ch=8 n=80 v=32
261240 On ch=8 n=68 v=32
261249 On ch=8 n=65 v=0
261269 On ch=8 n=80 v=0
261300 On ch=8 n=77 v=32
261329 On ch=8 n=77 v=0
261360 On ch=8 n=84 v=32
261360 On ch=8 n=65 v=32
261369 On ch=8 n=68 v=0
261389 On ch=8 n=84 v=0
261420 On ch=8 n=80 v=32
261449 On ch=8 n=80 v=0
261480 On ch=8 n=77 v=32
261509 On ch=8 n=77 v=0
261540 On ch=8 n=80 v=32
261569 On ch=8 n=80 v=0
261600 On ch=8 n=77 v=32
261600 On ch=8 n=60 v=32
261609 On ch=8 n=65 v=0
261629 On ch=8 n=77 v=0
261660 On ch=8 n=72 v=32
261689 On ch=8 n=72 v=0
261719 On ch=8 n=60 v=0
261720 On ch=8 n=67 v=32
261780 On ch=8 n=82 v=32
261809 On ch=8 n=82 v=0
261839 On ch=8 n=67 v=0
261840 On ch=8 n=84 v=32
261869 On ch=8 n=84 v=0
261900 On ch=8 n=85 v=32
261929 On ch=8 n=85 v=0
261960 On ch=8 n=79 v=32
261989 On ch=8 n=79 v=0
262020 On ch=8 n=80 v=32
262049 On ch=8 n=80 v=0
262080 On ch=8 n=82 v=32
262109 On ch=8 n=82 v=0
262140 On ch=8 n=76 v=32
262169 On ch=8 n=76 v=0
262200 On ch=8 n=77 v=32
262229 On ch=8 n=77 v=0
262260 On ch=8 n=79 v=32
262289 On ch=8 n=79 v=0
262320 On ch=8 n=70 v=32
262349 On ch=8 n=70 v=0
262380 On ch=8 n=72 v=32
262409 On ch=8 n=72 v=0
262440 On ch=8 n=73 v=32
262469 On ch=8 n=73 v=0
262500 On ch=8 n=56 v=32
262500 On ch=8 n=72 v=32
262529 On ch=8 n=72 v=0
262529 On ch=8 n=56 v=0
262560 On ch=8 n=55 v=32
262560 On ch=8 n=70 v=32
262589 On ch=8 n=70 v=0
262589 On ch=8 n=55 v=0
262620 On ch=8 n=56 v=32
262620 On ch=8 n=68 v=32
262649 On ch=8 n=68 v=0
262649 On ch=8 n=56 v=0
262680 On ch=8 n=58 v=32
262680 On ch=8 n=67 v=32
262709 On ch=8 n=67 v=0
262709 On ch=8 n=58 v=0
262740 On ch=8 n=59 v=32
262740 On ch=8 n=65 v=32
262769 On ch=8 n=65 v=0
262769 On ch=8 n=59 v=0
262800 On ch=8 n=64 v=32
262800 On ch=8 n=60 v=32
262829 On ch=8 n=60 v=0
262829 On ch=8 n=64 v=0
262860 On ch=8 n=67 v=32
262860 On ch=8 n=59 v=32
262889 On ch=8 n=59 v=0
262889 On ch=8 n=67 v=0
262920 On ch=8 n=72 v=32
262920 On ch=8 n=60 v=32
262949 On ch=8 n=60 v=0
262949 On ch=8 n=72 v=0
262980 On ch=8 n=70 v=32
262980 On ch=8 n=62 v=32
263009 On ch=8 n=62 v=0
263009 On ch=8 n=70 v=0
263040 On ch=8 n=68 v=32
263040 On ch=8 n=63 v=32
263069 On ch=8 n=63 v=0
263069 On ch=8 n=68 v=0
263100 On ch=8 n=67 v=32
263100 On ch=8 n=64 v=32
263129 On ch=8 n=64 v=0
263129 On ch=8 n=67 v=0
263160 On ch=8 n=65 v=32
263220 On ch=8 n=72 v=32
263279 On ch=8 n=65 v=0
263280 On ch=8 n=68 v=32
263339 On ch=8 n=72 v=0
263340 On ch=8 n=72 v=32
263400 On ch=8 n=70 v=32
263409 On ch=8 n=68 v=0
263459 On ch=8 n=72 v=0
263460 On ch=8 n=72 v=32
263519 On ch=8 n=72 v=0
263520 On ch=8 n=72 v=48
263529 On ch=8 n=70 v=0
263579 On ch=8 n=72 v=0
263580 On ch=8 n=72 v=32
263699 On ch=8 n=72 v=0
263700 On ch=8 n=70 v=32
263700 On ch=8 n=72 v=32
263760 On ch=8 n=68 v=32
263769 On ch=8 n=70 v=0
263819 On ch=8 n=72 v=0
263820 On ch=8 n=72 v=32
263879 On ch=8 n=68 v=0
263880 On ch=8 n=67 v=32
263939 On ch=8 n=72 v=0
263940 On ch=8 n=84 v=32
263999 On ch=8 n=67 v=0
264000 On ch=8 n=67 v=32
264059 On ch=8 n=84 v=0
264060 On ch=8 n=84 v=32
264120 On ch=8 n=65 v=32
264129 On ch=8 n=67 v=0
264179 On ch=8 n=84 v=0
264180 On ch=8 n=84 v=32
264240 On ch=8 n=64 v=48
264249 On ch=8 n=65 v=0
264299 On ch=8 n=84 v=0
264300 On ch=8 n=84 v=32
264419 On ch=8 n=84 v=0
264420 On ch=8 n=84 v=32
264480 On ch=8 n=65 v=32
264489 On ch=8 n=64 v=0
264539 On ch=8 n=84 v=0
264540 On ch=8 n=67 v=32
264540 On ch=8 n=84 v=32
264549 On ch=8 n=65 v=0
264600 On ch=8 n=68 v=32
264609 On ch=8 n=67 v=0
264659 On ch=8 n=68 v=0
264659 On ch=8 n=84 v=0
264660 On ch=8 n=72 v=32
264720 On ch=8 n=68 v=32
264779 On ch=8 n=72 v=0
264780 On ch=8 n=72 v=32
264840 On ch=8 n=70 v=32
264849 On ch=8 n=68 v=0
264899 On ch=8 n=72 v=0
264900 On ch=8 n=72 v=32
264959 On ch=8 n=72 v=0
264960 On ch=8 n=72 v=48
264969 On ch=8 n=70 v=0
265019 On ch=8 n=72 v=0
265020 On ch=8 n=72 v=32
265139 On ch=8 n=72 v=0
265140 On ch=8 n=70 v=32
265140 On ch=8 n=72 v=32
265200 On ch=8 n=68 v=32
265209 On ch=8 n=70 v=0
265259 On ch=8 n=72 v=0
265260 On ch=8 n=71 v=32
265319 On ch=8 n=68 v=0
265320 On ch=8 n=68 v=32
265320 On ch=8 n=70 v=32
265329 On ch=8 n=71 v=0
265379 On ch=8 n=70 v=0
265379 On ch=8 n=68 v=0
265380 On ch=8 n=58 v=48
265380 On ch=8 n=70 v=48
265499 On ch=8 n=70 v=0
265499 On ch=8 n=58 v=0
265500 On ch=8 n=58 v=56
265500 On ch=8 n=70 v=56
265619 On ch=8 n=70 v=0
265619 On ch=8 n=58 v=0
265620 On ch=8 n=58 v=64
265620 On ch=8 n=70 v=64
265739 On ch=8 n=70 v=0
265739 On ch=8 n=58 v=0
265740 On ch=8 n=58 v=48
265740 On ch=8 n=70 v=48
265859 On ch=8 n=70 v=0
265859 On ch=8 n=58 v=0
265860 On ch=8 n=58 v=48
265860 On ch=8 n=70 v=48
265979 On ch=8 n=70 v=0
265979 On ch=8 n=58 v=0
265980 On ch=8 n=58 v=48
265980 On ch=8 n=70 v=48
266099 On ch=8 n=70 v=0
266099 On ch=8 n=58 v=0
266100 On ch=8 n=70 v=48
266100 On ch=8 n=82 v=48
266219 On ch=8 n=82 v=0
266219 On ch=8 n=70 v=0
266220 On ch=8 n=70 v=48
266220 On ch=8 n=82 v=48
266339 On ch=8 n=82 v=0
266339 On ch=8 n=70 v=0
266340 On ch=8 n=70 v=48
266340 On ch=8 n=82 v=48
266459 On ch=8 n=82 v=0
266459 On ch=8 n=70 v=0
266460 On ch=8 n=70 v=48
266460 On ch=8 n=82 v=48
266579 On ch=8 n=82 v=0
266579 On ch=8 n=70 v=0
266580 On ch=8 n=70 v=48
266580 On ch=8 n=82 v=48
266699 On ch=8 n=82 v=0
266699 On ch=8 n=70 v=0
266700 On ch=8 n=70 v=48
266700 On ch=8 n=82 v=48
266819 On ch=8 n=82 v=0
266819 On ch=8 n=70 v=0
266820 On ch=8 n=58 v=48
266820 On ch=8 n=70 v=48
266939 On ch=8 n=70 v=0
266939 On ch=8 n=58 v=0
266940 On ch=8 n=58 v=48
266940 On ch=8 n=70 v=48
267059 On ch=8 n=70 v=0
267059 On ch=8 n=58 v=0
267060 On ch=8 n=58 v=48
267060 On ch=8 n=70 v=48
267179 On ch=8 n=70 v=0
267179 On ch=8 n=58 v=0
267180 On ch=8 n=58 v=48
267180 On ch=8 n=70 v=48
267299 On ch=8 n=70 v=0
267299 On ch=8 n=58 v=0
267300 On ch=8 n=58 v=48
267300 On ch=8 n=70 v=48
267419 On ch=8 n=70 v=0
267419 On ch=8 n=58 v=0
267420 On ch=8 n=58 v=48
267420 On ch=8 n=70 v=48
267539 On ch=8 n=70 v=0
267539 On ch=8 n=58 v=0
267540 On ch=8 n=70 v=48
267540 On ch=8 n=82 v=48
267659 On ch=8 n=82 v=0
267659 On ch=8 n=70 v=0
267660 On ch=8 n=70 v=48
267660 On ch=8 n=82 v=48
267779 On ch=8 n=82 v=0
267779 On ch=8 n=70 v=0
267780 On ch=8 n=70 v=48
267780 On ch=8 n=82 v=48
267899 On ch=8 n=82 v=0
267899 On ch=8 n=70 v=0
267900 On ch=8 n=70 v=48
267900 On ch=8 n=82 v=48
268019 On ch=8 n=82 v=0
268019 On ch=8 n=70 v=0
268020 On ch=8 n=70 v=48
268020 On ch=8 n=82 v=48
268139 On ch=8 n=82 v=0
268139 On ch=8 n=70 v=0
268140 On ch=8 n=70 v=48
268140 On ch=8 n=82 v=48
268259 On ch=8 n=82 v=0
268260 On ch=8 n=82 v=32
268290 On ch=8 n=81 v=32
268299 On ch=8 n=82 v=0
268319 On ch=8 n=81 v=0
268319 On ch=8 n=70 v=0
268320 On ch=8 n=82 v=32
268349 On ch=8 n=82 v=0
268380 On ch=8 n=82 v=32
268409 On ch=8 n=82 v=0
268440 On ch=8 n=82 v=32
268469 On ch=8 n=82 v=0
268500 On ch=8 n=82 v=32
268529 On ch=8 n=82 v=0
268560 On ch=8 n=82 v=32
268620 On ch=8 n=75 v=32
268650 On ch=8 n=74 v=32
268659 On ch=8 n=75 v=0
268679 On ch=8 n=74 v=0
268680 On ch=8 n=75 v=32
268709 On ch=8 n=75 v=0
268740 On ch=8 n=75 v=32
268769 On ch=8 n=75 v=0
268800 On ch=8 n=75 v=32
268829 On ch=8 n=75 v=0
268860 On ch=8 n=75 v=32
268889 On ch=8 n=75 v=0
268920 On ch=8 n=75 v=32
268979 On ch=8 n=82 v=0
268980 On ch=8 n=80 v=32
269010 On ch=8 n=79 v=32
269019 On ch=8 n=80 v=0
269039 On ch=8 n=79 v=0
269040 On ch=8 n=80 v=32
269069 On ch=8 n=80 v=0
269100 On ch=8 n=80 v=32
269129 On ch=8 n=80 v=0
269160 On ch=8 n=80 v=32
269189 On ch=8 n=80 v=0
269220 On ch=8 n=80 v=32
269249 On ch=8 n=80 v=0
269280 On ch=8 n=80 v=32
269339 On ch=8 n=75 v=0
269340 On ch=8 n=77 v=32
269370 On ch=8 n=76 v=32
269379 On ch=8 n=77 v=0
269399 On ch=8 n=76 v=0
269400 On ch=8 n=77 v=32
269429 On ch=8 n=77 v=0
269460 On ch=8 n=77 v=32
269489 On ch=8 n=77 v=0
269520 On ch=8 n=77 v=32
269549 On ch=8 n=77 v=0
269580 On ch=8 n=77 v=32
269609 On ch=8 n=77 v=0
269699 On ch=8 n=80 v=0
269700 On ch=8 n=77 v=32
269700 On ch=8 n=80 v=32
269730 On ch=8 n=76 v=32
269730 On ch=8 n=79 v=32
269739 On ch=8 n=80 v=0
269739 On ch=8 n=77 v=0
269759 On ch=8 n=76 v=0
269759 On ch=8 n=79 v=0
269760 On ch=8 n=77 v=32
269760 On ch=8 n=80 v=32
269789 On ch=8 n=80 v=0
269789 On ch=8 n=77 v=0
269820 On ch=8 n=77 v=32
269820 On ch=8 n=80 v=32
269849 On ch=8 n=80 v=0
269849 On ch=8 n=77 v=0
269880 On ch=8 n=77 v=32
269880 On ch=8 n=80 v=32
269909 On ch=8 n=80 v=0
269909 On ch=8 n=77 v=0
269940 On ch=8 n=77 v=32
269940 On ch=8 n=80 v=32
269969 On ch=8 n=80 v=0
269969 On ch=8 n=77 v=0
270060 On ch=8 n=78 v=32
270060 On ch=8 n=75 v=32
270090 On ch=8 n=77 v=32
270090 On ch=8 n=74 v=32
270099 On ch=8 n=75 v=0
270099 On ch=8 n=78 v=0
270119 On ch=8 n=77 v=0
270119 On ch=8 n=74 v=0
270120 On ch=8 n=78 v=32
270120 On ch=8 n=75 v=32
270149 On ch=8 n=75 v=0
270149 On ch=8 n=78 v=0
270180 On ch=8 n=78 v=32
270180 On ch=8 n=75 v=32
270209 On ch=8 n=75 v=0
270209 On ch=8 n=78 v=0
270240 On ch=8 n=78 v=32
270240 On ch=8 n=75 v=32
270269 On ch=8 n=75 v=0
270269 On ch=8 n=78 v=0
270300 On ch=8 n=78 v=32
270300 On ch=8 n=75 v=32
270329 On ch=8 n=75 v=0
270329 On ch=8 n=78 v=0
270420 On ch=8 n=77 v=32
270420 On ch=8 n=75 v=32
270449 On ch=8 n=75 v=0
270450 On ch=8 n=75 v=32
270450 On ch=8 n=63 v=32
270459 On ch=8 n=77 v=0
270479 On ch=8 n=63 v=0
270479 On ch=8 n=75 v=0
270480 On ch=8 n=77 v=32
270480 On ch=8 n=75 v=32
270509 On ch=8 n=75 v=0
270509 On ch=8 n=77 v=0
270540 On ch=8 n=77 v=32
270540 On ch=8 n=75 v=32
270569 On ch=8 n=75 v=0
270569 On ch=8 n=77 v=0
270600 On ch=8 n=77 v=32
270600 On ch=8 n=75 v=32
270629 On ch=8 n=75 v=0
270629 On ch=8 n=77 v=0
270660 On ch=8 n=77 v=32
270660 On ch=8 n=75 v=32
270689 On ch=8 n=75 v=0
270689 On ch=8 n=77 v=0
270780 On ch=8 n=77 v=32
270780 On ch=8 n=75 v=32
270809 On ch=8 n=75 v=0
270810 On ch=8 n=75 v=32
270810 On ch=8 n=63 v=32
270819 On ch=8 n=77 v=0
270839 On ch=8 n=63 v=0
270839 On ch=8 n=75 v=0
270840 On ch=8 n=77 v=32
270840 On ch=8 n=75 v=32
270869 On ch=8 n=75 v=0
270869 On ch=8 n=77 v=0
270900 On ch=8 n=77 v=32
270900 On ch=8 n=75 v=32
270929 On ch=8 n=75 v=0
270929 On ch=8 n=77 v=0
270960 On ch=8 n=77 v=32
270960 On ch=8 n=75 v=32
270989 On ch=8 n=75 v=0
270989 On ch=8 n=77 v=0
271020 On ch=8 n=77 v=32
271020 On ch=8 n=75 v=32
271049 On ch=8 n=75 v=0
271049 On ch=8 n=77 v=0
271080 On ch=8 n=77 v=32
271080 On ch=8 n=74 v=32
271109 On ch=8 n=74 v=0
271109 On ch=8 n=77 v=0
271110 On ch=8 n=70 v=32
271110 On ch=8 n=58 v=32
271139 On ch=8 n=58 v=0
271139 On ch=8 n=70 v=0
271140 On ch=8 n=70 v=32
271140 On ch=8 n=58 v=32
271169 On ch=8 n=58 v=0
271169 On ch=8 n=70 v=0
271170 On ch=8 n=70 v=32
271170 On ch=8 n=58 v=32
271199 On ch=8 n=58 v=0
271199 On ch=8 n=70 v=0
271200 On ch=8 n=70 v=32
271200 On ch=8 n=58 v=32
271229 On ch=8 n=58 v=0
271229 On ch=8 n=70 v=0
271230 On ch=8 n=70 v=32
271230 On ch=8 n=58 v=32
271259 On ch=8 n=58 v=0
271259 On ch=8 n=70 v=0
271260 On ch=8 n=70 v=32
271260 On ch=8 n=58 v=32
271289 On ch=8 n=58 v=0
271289 On ch=8 n=70 v=0
271290 On ch=8 n=70 v=32
271290 On ch=8 n=58 v=32
271319 On ch=8 n=58 v=0
271319 On ch=8 n=70 v=0
271320 On ch=8 n=70 v=32
271320 On ch=8 n=58 v=32
271349 On ch=8 n=58 v=0
271349 On ch=8 n=70 v=0
271350 On ch=8 n=70 v=32
271350 On ch=8 n=58 v=32
271379 On ch=8 n=58 v=0
271379 On ch=8 n=70 v=0
271380 On ch=8 n=70 v=32
271380 On ch=8 n=58 v=32
271409 On ch=8 n=58 v=0
271409 On ch=8 n=70 v=0
271410 On ch=8 n=70 v=32
271410 On ch=8 n=58 v=32
271439 On ch=8 n=58 v=0
271439 On ch=8 n=70 v=0
271440 On ch=8 n=70 v=32
271440 On ch=8 n=58 v=32
271469 On ch=8 n=58 v=0
271469 On ch=8 n=70 v=0
271470 On ch=8 n=70 v=32
271470 On ch=8 n=58 v=32
271499 On ch=8 n=58 v=0
271499 On ch=8 n=70 v=0
271500 On ch=8 n=70 v=32
271500 On ch=8 n=58 v=32
271529 On ch=8 n=58 v=0
271529 On ch=8 n=70 v=0
271530 On ch=8 n=70 v=32
271530 On ch=8 n=58 v=32
271559 On ch=8 n=58 v=0
271559 On ch=8 n=70 v=0
271560 On ch=8 n=70 v=32
271560 On ch=8 n=58 v=32
271589 On ch=8 n=58 v=0
271589 On ch=8 n=70 v=0
271590 On ch=8 n=70 v=32
271590 On ch=8 n=58 v=32
271619 On ch=8 n=58 v=0
271619 On ch=8 n=70 v=0
271620 On ch=8 n=70 v=32
271620 On ch=8 n=58 v=32
271649 On ch=8 n=58 v=0
271649 On ch=8 n=70 v=0
271650 On ch=8 n=70 v=32
271650 On ch=8 n=58 v=32
271679 On ch=8 n=58 v=0
271679 On ch=8 n=70 v=0
271680 On ch=8 n=70 v=32
271680 On ch=8 n=58 v=32
271709 On ch=8 n=58 v=0
271709 On ch=8 n=70 v=0
271710 On ch=8 n=70 v=32
271710 On ch=8 n=58 v=32
271739 On ch=8 n=58 v=0
271739 On ch=8 n=70 v=0
271740 On ch=8 n=70 v=32
271740 On ch=8 n=58 v=32
271769 On ch=8 n=58 v=0
271769 On ch=8 n=70 v=0
271770 On ch=8 n=70 v=32
271770 On ch=8 n=58 v=32
271799 On ch=8 n=58 v=0
271799 On ch=8 n=70 v=0
271800 On ch=8 n=62 v=32
271800 On ch=8 n=65 v=32
271800 On ch=8 n=70 v=32
271800 On ch=8 n=58 v=32
271829 On ch=8 n=58 v=0
271829 On ch=8 n=62 v=0
271829 On ch=8 n=65 v=0
271829 On ch=8 n=70 v=0
271830 On ch=8 n=62 v=32
271830 On ch=8 n=65 v=32
271830 On ch=8 n=70 v=32
271830 On ch=8 n=58 v=32
271859 On ch=8 n=58 v=0
271859 On ch=8 n=62 v=0
271859 On ch=8 n=65 v=0
271859 On ch=8 n=70 v=0
271860 On ch=8 n=62 v=32
271860 On ch=8 n=65 v=32
271860 On ch=8 n=70 v=32
271860 On ch=8 n=58 v=32
271889 On ch=8 n=58 v=0
271889 On ch=8 n=62 v=0
271889 On ch=8 n=65 v=0
271889 On ch=8 n=70 v=0
271890 On ch=8 n=62 v=32
271890 On ch=8 n=65 v=32
271890 On ch=8 n=70 v=32
271890 On ch=8 n=58 v=32
271919 On ch=8 n=58 v=0
271919 On ch=8 n=62 v=0
271919 On ch=8 n=65 v=0
271919 On ch=8 n=70 v=0
271920 On ch=8 n=62 v=32
271920 On ch=8 n=65 v=32
271920 On ch=8 n=70 v=32
271920 On ch=8 n=58 v=32
271949 On ch=8 n=58 v=0
271949 On ch=8 n=62 v=0
271949 On ch=8 n=65 v=0
271949 On ch=8 n=70 v=0
271950 On ch=8 n=62 v=32
271950 On ch=8 n=65 v=32
271950 On ch=8 n=70 v=32
271950 On ch=8 n=58 v=32
271979 On ch=8 n=58 v=0
271979 On ch=8 n=62 v=0
271979 On ch=8 n=65 v=0
271979 On ch=8 n=70 v=0
271980 On ch=8 n=62 v=32
271980 On ch=8 n=65 v=32
271980 On ch=8 n=70 v=32
271980 On ch=8 n=58 v=32
272009 On ch=8 n=58 v=0
272009 On ch=8 n=62 v=0
272009 On ch=8 n=65 v=0
272009 On ch=8 n=70 v=0
272010 On ch=8 n=62 v=32
272010 On ch=8 n=65 v=32
272010 On ch=8 n=70 v=32
272010 On ch=8 n=58 v=32
272039 On ch=8 n=58 v=0
272039 On ch=8 n=62 v=0
272039 On ch=8 n=65 v=0
272039 On ch=8 n=70 v=0
272040 On ch=8 n=62 v=32
272040 On ch=8 n=65 v=32
272040 On ch=8 n=70 v=32
272040 On ch=8 n=58 v=32
272069 On ch=8 n=58 v=0
272069 On ch=8 n=62 v=0
272069 On ch=8 n=65 v=0
272069 On ch=8 n=70 v=0
272070 On ch=8 n=62 v=32
272070 On ch=8 n=65 v=32
272070 On ch=8 n=70 v=32
272070 On ch=8 n=58 v=32
272099 On ch=8 n=58 v=0
272099 On ch=8 n=62 v=0
272099 On ch=8 n=65 v=0
272099 On ch=8 n=70 v=0
272100 On ch=8 n=62 v=32
272100 On ch=8 n=65 v=32
272100 On ch=8 n=70 v=32
272100 On ch=8 n=58 v=32
272129 On ch=8 n=58 v=0
272129 On ch=8 n=62 v=0
272129 On ch=8 n=65 v=0
272129 On ch=8 n=70 v=0
272130 On ch=8 n=62 v=32
272130 On ch=8 n=65 v=32
272130 On ch=8 n=70 v=32
272130 On ch=8 n=58 v=32
272159 On ch=8 n=58 v=0
272159 On ch=8 n=62 v=0
272159 On ch=8 n=65 v=0
272159 On ch=8 n=70 v=0
272160 On ch=8 n=70 v=32
272160 On ch=8 n=68 v=32
272160 On ch=8 n=58 v=32
272189 On ch=8 n=58 v=0
272189 On ch=8 n=68 v=0
272189 On ch=8 n=70 v=0
272190 On ch=8 n=70 v=32
272190 On ch=8 n=68 v=32
272190 On ch=8 n=58 v=32
272219 On ch=8 n=58 v=0
272219 On ch=8 n=68 v=0
272219 On ch=8 n=70 v=0
272220 On ch=8 n=70 v=32
272220 On ch=8 n=68 v=32
272220 On ch=8 n=58 v=32
272249 On ch=8 n=58 v=0
272249 On ch=8 n=68 v=0
272249 On ch=8 n=70 v=0
272250 On ch=8 n=70 v=32
272250 On ch=8 n=68 v=32
272250 On ch=8 n=58 v=32
272279 On ch=8 n=58 v=0
272279 On ch=8 n=68 v=0
272279 On ch=8 n=70 v=0
272280 On ch=8 n=70 v=32
272280 On ch=8 n=68 v=32
272280 On ch=8 n=58 v=32
272309 On ch=8 n=58 v=0
272309 On ch=8 n=68 v=0
272309 On ch=8 n=70 v=0
272310 On ch=8 n=70 v=32
272310 On ch=8 n=68 v=32
272310 On ch=8 n=58 v=32
272339 On ch=8 n=58 v=0
272339 On ch=8 n=68 v=0
272339 On ch=8 n=70 v=0
272340 On ch=8 n=70 v=32
272340 On ch=8 n=68 v=32
272340 On ch=8 n=58 v=32
272369 On ch=8 n=58 v=0
272369 On ch=8 n=68 v=0
272369 On ch=8 n=70 v=0
272370 On ch=8 n=70 v=32
272370 On ch=8 n=68 v=32
272370 On ch=8 n=58 v=32
272399 On ch=8 n=58 v=0
272399 On ch=8 n=68 v=0
272399 On ch=8 n=70 v=0
272400 On ch=8 n=71 v=32
272400 On ch=8 n=68 v=32
272400 On ch=8 n=58 v=32
272429 On ch=8 n=58 v=0
272429 On ch=8 n=68 v=0
272429 On ch=8 n=71 v=0
272430 On ch=8 n=71 v=32
272430 On ch=8 n=68 v=32
272430 On ch=8 n=58 v=32
272459 On ch=8 n=58 v=0
272459 On ch=8 n=68 v=0
272459 On ch=8 n=71 v=0
272460 On ch=8 n=71 v=32
272460 On ch=8 n=68 v=32
272460 On ch=8 n=58 v=32
272489 On ch=8 n=58 v=0
272489 On ch=8 n=68 v=0
272489 On ch=8 n=71 v=0
272490 On ch=8 n=71 v=32
272490 On ch=8 n=68 v=32
272490 On ch=8 n=58 v=32
272519 On ch=8 n=58 v=0
272519 On ch=8 n=68 v=0
272519 On ch=8 n=71 v=0
272520 On ch=8 n=63 v=32
272520 On ch=8 n=72 v=32
272520 On ch=8 n=69 v=32
272549 On ch=8 n=69 v=0
272549 On ch=8 n=72 v=0
272549 On ch=8 n=63 v=0
272550 On ch=8 n=63 v=32
272550 On ch=8 n=72 v=32
272550 On ch=8 n=69 v=32
272579 On ch=8 n=69 v=0
272579 On ch=8 n=72 v=0
272579 On ch=8 n=63 v=0
272580 On ch=8 n=63 v=32
272580 On ch=8 n=72 v=32
272580 On ch=8 n=69 v=32
272609 On ch=8 n=69 v=0
272609 On ch=8 n=72 v=0
272609 On ch=8 n=63 v=0
272610 On ch=8 n=63 v=32
272610 On ch=8 n=72 v=32
272610 On ch=8 n=69 v=32
272639 On ch=8 n=69 v=0
272639 On ch=8 n=72 v=0
272639 On ch=8 n=63 v=0
272640 On ch=8 n=63 v=32
272640 On ch=8 n=72 v=32
272640 On ch=8 n=69 v=32
272669 On ch=8 n=69 v=0
272669 On ch=8 n=72 v=0
272669 On ch=8 n=63 v=0
272670 On ch=8 n=63 v=32
272670 On ch=8 n=72 v=32
272670 On ch=8 n=69 v=32
272699 On ch=8 n=69 v=0
272699 On ch=8 n=72 v=0
272699 On ch=8 n=63 v=0
272700 On ch=8 n=63 v=32
272700 On ch=8 n=72 v=32
272700 On ch=8 n=69 v=32
272729 On ch=8 n=69 v=0
272729 On ch=8 n=72 v=0
272729 On ch=8 n=63 v=0
272730 On ch=8 n=63 v=32
272730 On ch=8 n=72 v=32
272730 On ch=8 n=69 v=32
272759 On ch=8 n=69 v=0
272759 On ch=8 n=72 v=0
272759 On ch=8 n=63 v=0
272760 On ch=8 n=63 v=32
272760 On ch=8 n=72 v=32
272760 On ch=8 n=69 v=32
272789 On ch=8 n=69 v=0
272789 On ch=8 n=72 v=0
272789 On ch=8 n=63 v=0
272790 On ch=8 n=63 v=32
272790 On ch=8 n=72 v=32
272790 On ch=8 n=69 v=32
272819 On ch=8 n=69 v=0
272819 On ch=8 n=72 v=0
272819 On ch=8 n=63 v=0
272820 On ch=8 n=63 v=32
272820 On ch=8 n=72 v=32
272820 On ch=8 n=69 v=32
272849 On ch=8 n=69 v=0
272849 On ch=8 n=72 v=0
272849 On ch=8 n=63 v=0
272850 On ch=8 n=63 v=32
272850 On ch=8 n=72 v=32
272850 On ch=8 n=69 v=32
272879 On ch=8 n=69 v=0
272879 On ch=8 n=72 v=0
272879 On ch=8 n=63 v=0
272880 On ch=8 n=63 v=32
272880 On ch=8 n=72 v=32
272880 On ch=8 n=69 v=32
272909 On ch=8 n=69 v=0
272909 On ch=8 n=72 v=0
272909 On ch=8 n=63 v=0
272910 On ch=8 n=63 v=32
272910 On ch=8 n=72 v=32
272910 On ch=8 n=69 v=32
272939 On ch=8 n=69 v=0
272939 On ch=8 n=72 v=0
272939 On ch=8 n=63 v=0
272940 On ch=8 n=63 v=32
272940 On ch=8 n=72 v=32
272940 On ch=8 n=69 v=32
272969 On ch=8 n=69 v=0
272969 On ch=8 n=72 v=0
272969 On ch=8 n=63 v=0
272970 On ch=8 n=63 v=32
272970 On ch=8 n=72 v=32
272970 On ch=8 n=69 v=32
272999 On ch=8 n=69 v=0
272999 On ch=8 n=72 v=0
272999 On ch=8 n=63 v=0
273000 On ch=8 n=63 v=32
273000 On ch=8 n=72 v=32
273000 On ch=8 n=69 v=32
273029 On ch=8 n=69 v=0
273029 On ch=8 n=72 v=0
273029 On ch=8 n=63 v=0
273030 On ch=8 n=63 v=32
273030 On ch=8 n=72 v=32
273030 On ch=8 n=69 v=32
273059 On ch=8 n=69 v=0
273059 On ch=8 n=72 v=0
273059 On ch=8 n=63 v=0
273060 On ch=8 n=63 v=32
273060 On ch=8 n=72 v=32
273060 On ch=8 n=69 v=32
273089 On ch=8 n=69 v=0
273089 On ch=8 n=72 v=0
273089 On ch=8 n=63 v=0
273090 On ch=8 n=63 v=32
273090 On ch=8 n=72 v=32
273090 On ch=8 n=69 v=32
273119 On ch=8 n=69 v=0
273119 On ch=8 n=72 v=0
273119 On ch=8 n=63 v=0
273120 On ch=8 n=63 v=32
273120 On ch=8 n=72 v=32
273120 On ch=8 n=69 v=32
273149 On ch=8 n=69 v=0
273149 On ch=8 n=72 v=0
273149 On ch=8 n=63 v=0
273150 On ch=8 n=63 v=32
273150 On ch=8 n=72 v=32
273150 On ch=8 n=69 v=32
273179 On ch=8 n=69 v=0
273179 On ch=8 n=72 v=0
273179 On ch=8 n=63 v=0
273180 On ch=8 n=63 v=32
273180 On ch=8 n=72 v=32
273180 On ch=8 n=69 v=32
273209 On ch=8 n=69 v=0
273209 On ch=8 n=72 v=0
273209 On ch=8 n=63 v=0
273210 On ch=8 n=63 v=32
273210 On ch=8 n=72 v=32
273210 On ch=8 n=69 v=32
273239 On ch=8 n=69 v=0
273239 On ch=8 n=72 v=0
273239 On ch=8 n=63 v=0
273240 On ch=8 n=63 v=32
273240 On ch=8 n=72 v=32
273240 On ch=8 n=69 v=32
273269 On ch=8 n=69 v=0
273269 On ch=8 n=72 v=0
273269 On ch=8 n=63 v=0
273270 On ch=8 n=63 v=32
273270 On ch=8 n=72 v=32
273270 On ch=8 n=69 v=32
273299 On ch=8 n=69 v=0
273299 On ch=8 n=72 v=0
273299 On ch=8 n=63 v=0
273300 On ch=8 n=63 v=32
273300 On ch=8 n=72 v=32
273300 On ch=8 n=69 v=32
273329 On ch=8 n=69 v=0
273329 On ch=8 n=72 v=0
273329 On ch=8 n=63 v=0
273330 On ch=8 n=63 v=32
273330 On ch=8 n=72 v=32
273330 On ch=8 n=69 v=32
273359 On ch=8 n=69 v=0
273359 On ch=8 n=72 v=0
273359 On ch=8 n=63 v=0
273360 On ch=8 n=63 v=32
273360 On ch=8 n=72 v=32
273360 On ch=8 n=69 v=32
273389 On ch=8 n=69 v=0
273389 On ch=8 n=72 v=0
273389 On ch=8 n=63 v=0
273390 On ch=8 n=63 v=32
273390 On ch=8 n=72 v=32
273390 On ch=8 n=69 v=32
273419 On ch=8 n=69 v=0
273419 On ch=8 n=72 v=0
273419 On ch=8 n=63 v=0
273420 On ch=8 n=63 v=32
273420 On ch=8 n=72 v=32
273420 On ch=8 n=69 v=32
273449 On ch=8 n=69 v=0
273449 On ch=8 n=72 v=0
273449 On ch=8 n=63 v=0
273450 On ch=8 n=63 v=32
273450 On ch=8 n=72 v=32
273450 On ch=8 n=69 v=32
273479 On ch=8 n=69 v=0
273479 On ch=8 n=72 v=0
273479 On ch=8 n=63 v=0
273480 On ch=8 n=63 v=32
273480 On ch=8 n=72 v=32
273480 On ch=8 n=69 v=32
273509 On ch=8 n=69 v=0
273509 On ch=8 n=72 v=0
273509 On ch=8 n=63 v=0
273510 On ch=8 n=63 v=32
273510 On ch=8 n=72 v=32
273510 On ch=8 n=69 v=32
273539 On ch=8 n=69 v=0
273539 On ch=8 n=72 v=0
273539 On ch=8 n=63 v=0
273540 On ch=8 n=63 v=32
273540 On ch=8 n=72 v=32
273540 On ch=8 n=69 v=32
273569 On ch=8 n=69 v=0
273569 On ch=8 n=72 v=0
273569 On ch=8 n=63 v=0
273570 On ch=8 n=63 v=32
273570 On ch=8 n=72 v=32
273570 On ch=8 n=69 v=32
273599 On ch=8 n=69 v=0
273599 On ch=8 n=72 v=0
273599 On ch=8 n=63 v=0
273600 On ch=8 n=63 v=32
273600 On ch=8 n=72 v=32
273600 On ch=8 n=69 v=32
273629 On ch=8 n=69 v=0
273629 On ch=8 n=72 v=0
273629 On ch=8 n=63 v=0
273630 On ch=8 n=63 v=32
273630 On ch=8 n=72 v=32
273630 On ch=8 n=69 v=32
273659 On ch=8 n=69 v=0
273659 On ch=8 n=72 v=0
273659 On ch=8 n=63 v=0
273660 On ch=8 n=63 v=32
273660 On ch=8 n=72 v=32
273660 On ch=8 n=69 v=32
273689 On ch=8 n=69 v=0
273689 On ch=8 n=72 v=0
273689 On ch=8 n=63 v=0
273690 On ch=8 n=63 v=32
273690 On ch=8 n=72 v=32
273690 On ch=8 n=69 v=32
273719 On ch=8 n=69 v=0
273719 On ch=8 n=72 v=0
273719 On ch=8 n=63 v=0
273720 On ch=8 n=63 v=32
273720 On ch=8 n=72 v=32
273720 On ch=8 n=69 v=32
273720 On ch=8 n=63 v=32
273720 On ch=8 n=72 v=32
273720 On ch=8 n=69 v=32
273749 On ch=8 n=69 v=0
273749 On ch=8 n=72 v=0
273749 On ch=8 n=69 v=0
273749 On ch=8 n=63 v=0
273749 On ch=8 n=72 v=0
273749 On ch=8 n=63 v=0
273750 On ch=8 n=63 v=32
273750 On ch=8 n=72 v=32
273750 On ch=8 n=69 v=32
273779 On ch=8 n=69 v=0
273779 On ch=8 n=72 v=0
273779 On ch=8 n=63 v=0
273780 On ch=8 n=63 v=32
273780 On ch=8 n=72 v=32
273780 On ch=8 n=69 v=32
273809 On ch=8 n=69 v=0
273809 On ch=8 n=72 v=0
273809 On ch=8 n=63 v=0
273810 On ch=8 n=63 v=32
273810 On ch=8 n=72 v=32
273810 On ch=8 n=69 v=32
273839 On ch=8 n=69 v=0
273839 On ch=8 n=72 v=0
273839 On ch=8 n=63 v=0
273840 On ch=8 n=63 v=32
273840 On ch=8 n=73 v=32
273840 On ch=8 n=69 v=32
273869 On ch=8 n=69 v=0
273869 On ch=8 n=73 v=0
273869 On ch=8 n=63 v=0
273870 On ch=8 n=69 v=32
273870 On ch=8 n=73 v=32
273870 On ch=8 n=63 v=32
273899 On ch=8 n=63 v=0
273899 On ch=8 n=73 v=0
273899 On ch=8 n=69 v=0
273900 On ch=8 n=69 v=32
273900 On ch=8 n=73 v=32
273900 On ch=8 n=63 v=32
273929 On ch=8 n=63 v=0
273929 On ch=8 n=73 v=0
273929 On ch=8 n=69 v=0
273930 On ch=8 n=69 v=32
273930 On ch=8 n=73 v=32
273930 On ch=8 n=63 v=32
273959 On ch=8 n=63 v=0
273959 On ch=8 n=73 v=0
273959 On ch=8 n=69 v=0
273960 On ch=8 n=74 v=32
273960 On ch=8 n=62 v=32
273960 On ch=8 n=58 v=32
273989 On ch=8 n=58 v=0
273989 On ch=8 n=62 v=0
273989 On ch=8 n=74 v=0
273990 On ch=8 n=74 v=32
273990 On ch=8 n=62 v=32
273990 On ch=8 n=70 v=32
274019 On ch=8 n=70 v=0
274019 On ch=8 n=62 v=0
274019 On ch=8 n=74 v=0
274020 On ch=8 n=74 v=32
274020 On ch=8 n=62 v=32
274020 On ch=8 n=70 v=32
274049 On ch=8 n=70 v=0
274049 On ch=8 n=62 v=0
274049 On ch=8 n=74 v=0
274050 On ch=8 n=74 v=32
274050 On ch=8 n=62 v=32
274050 On ch=8 n=70 v=32
274079 On ch=8 n=70 v=0
274079 On ch=8 n=62 v=0
274079 On ch=8 n=74 v=0
274080 On ch=8 n=74 v=32
274080 On ch=8 n=62 v=32
274080 On ch=8 n=70 v=32
274109 On ch=8 n=70 v=0
274109 On ch=8 n=62 v=0
274109 On ch=8 n=74 v=0
274110 On ch=8 n=74 v=32
274110 On ch=8 n=62 v=32
274110 On ch=8 n=70 v=32
274139 On ch=8 n=70 v=0
274139 On ch=8 n=62 v=0
274139 On ch=8 n=74 v=0
274140 On ch=8 n=74 v=32
274140 On ch=8 n=62 v=32
274140 On ch=8 n=70 v=32
274169 On ch=8 n=70 v=0
274169 On ch=8 n=62 v=0
274169 On ch=8 n=74 v=0
274170 On ch=8 n=74 v=32
274170 On ch=8 n=62 v=32
274170 On ch=8 n=70 v=32
274199 On ch=8 n=70 v=0
274199 On ch=8 n=62 v=0
274199 On ch=8 n=74 v=0
274200 On ch=8 n=74 v=32
274200 On ch=8 n=62 v=32
274200 On ch=8 n=70 v=32
274229 On ch=8 n=70 v=0
274229 On ch=8 n=62 v=0
274229 On ch=8 n=74 v=0
274230 On ch=8 n=74 v=32
274230 On ch=8 n=62 v=32
274230 On ch=8 n=70 v=32
274259 On ch=8 n=70 v=0
274259 On ch=8 n=62 v=0
274259 On ch=8 n=74 v=0
274260 On ch=8 n=74 v=32
274260 On ch=8 n=62 v=32
274260 On ch=8 n=70 v=32
274289 On ch=8 n=70 v=0
274289 On ch=8 n=62 v=0
274289 On ch=8 n=74 v=0
274290 On ch=8 n=74 v=32
274290 On ch=8 n=62 v=32
274290 On ch=8 n=70 v=32
274319 On ch=8 n=70 v=0
274319 On ch=8 n=62 v=0
274319 On ch=8 n=74 v=0
274320 On ch=8 n=74 v=32
274320 On ch=8 n=65 v=32
274320 On ch=8 n=62 v=32
274320 On ch=8 n=70 v=32
274349 On ch=8 n=70 v=0
274349 On ch=8 n=74 v=0
274349 On ch=8 n=65 v=0
274349 On ch=8 n=62 v=0
274350 On ch=8 n=74 v=32
274350 On ch=8 n=65 v=32
274350 On ch=8 n=62 v=32
274350 On ch=8 n=70 v=32
274379 On ch=8 n=70 v=0
274379 On ch=8 n=74 v=0
274379 On ch=8 n=65 v=0
274379 On ch=8 n=62 v=0
274380 On ch=8 n=74 v=32
274380 On ch=8 n=65 v=32
274380 On ch=8 n=62 v=32
274380 On ch=8 n=70 v=32
274409 On ch=8 n=70 v=0
274409 On ch=8 n=74 v=0
274409 On ch=8 n=65 v=0
274409 On ch=8 n=62 v=0
274410 On ch=8 n=74 v=32
274410 On ch=8 n=65 v=32
274410 On ch=8 n=62 v=32
274410 On ch=8 n=70 v=32
274439 On ch=8 n=70 v=0
274439 On ch=8 n=74 v=0
274439 On ch=8 n=65 v=0
274439 On ch=8 n=62 v=0
274440 On ch=8 n=74 v=32
274440 On ch=8 n=65 v=32
274440 On ch=8 n=62 v=32
274440 On ch=8 n=70 v=32
274469 On ch=8 n=70 v=0
274469 On ch=8 n=74 v=0
274469 On ch=8 n=65 v=0
274469 On ch=8 n=62 v=0
274470 On ch=8 n=74 v=32
274470 On ch=8 n=65 v=32
274470 On ch=8 n=62 v=32
274470 On ch=8 n=70 v=32
274499 On ch=8 n=70 v=0
274499 On ch=8 n=74 v=0
274499 On ch=8 n=65 v=0
274499 On ch=8 n=62 v=0
274500 On ch=8 n=74 v=32
274500 On ch=8 n=65 v=32
274500 On ch=8 n=62 v=32
274500 On ch=8 n=70 v=32
274529 On ch=8 n=70 v=0
274529 On ch=8 n=74 v=0
274529 On ch=8 n=65 v=0
274529 On ch=8 n=62 v=0
274530 On ch=8 n=74 v=32
274530 On ch=8 n=65 v=32
274530 On ch=8 n=62 v=32
274530 On ch=8 n=70 v=32
274559 On ch=8 n=70 v=0
274559 On ch=8 n=74 v=0
274559 On ch=8 n=65 v=0
274559 On ch=8 n=62 v=0
274560 On ch=8 n=74 v=32
274560 On ch=8 n=65 v=32
274560 On ch=8 n=62 v=32
274560 On ch=8 n=70 v=32
274589 On ch=8 n=70 v=0
274589 On ch=8 n=74 v=0
274589 On ch=8 n=65 v=0
274589 On ch=8 n=62 v=0
274590 On ch=8 n=74 v=32
274590 On ch=8 n=65 v=32
274590 On ch=8 n=62 v=32
274590 On ch=8 n=70 v=32
274619 On ch=8 n=70 v=0
274619 On ch=8 n=74 v=0
274619 On ch=8 n=65 v=0
274619 On ch=8 n=62 v=0
274620 On ch=8 n=74 v=32
274620 On ch=8 n=65 v=32
274620 On ch=8 n=62 v=32
274620 On ch=8 n=70 v=32
274649 On ch=8 n=70 v=0
274649 On ch=8 n=74 v=0
274649 On ch=8 n=65 v=0
274649 On ch=8 n=62 v=0
274650 On ch=8 n=74 v=32
274650 On ch=8 n=65 v=32
274650 On ch=8 n=62 v=32
274650 On ch=8 n=70 v=32
274679 On ch=8 n=70 v=0
274679 On ch=8 n=74 v=0
274679 On ch=8 n=65 v=0
274679 On ch=8 n=62 v=0
274680 On ch=8 n=75 v=32
274680 On ch=8 n=67 v=32
274680 On ch=8 n=63 v=32
274680 On ch=8 n=70 v=32
274709 On ch=8 n=70 v=0
274709 On ch=8 n=75 v=0
274709 On ch=8 n=67 v=0
274709 On ch=8 n=63 v=0
274710 On ch=8 n=75 v=32
274710 On ch=8 n=67 v=32
274710 On ch=8 n=63 v=32
274710 On ch=8 n=70 v=32
274739 On ch=8 n=70 v=0
274739 On ch=8 n=75 v=0
274739 On ch=8 n=67 v=0
274739 On ch=8 n=63 v=0
274740 On ch=8 n=75 v=32
274740 On ch=8 n=67 v=32
274740 On ch=8 n=63 v=32
274740 On ch=8 n=70 v=32
274769 On ch=8 n=70 v=0
274769 On ch=8 n=75 v=0
274769 On ch=8 n=67 v=0
274769 On ch=8 n=63 v=0
274770 On ch=8 n=75 v=32
274770 On ch=8 n=67 v=32
274770 On ch=8 n=63 v=32
274770 On ch=8 n=70 v=32
274799 On ch=8 n=70 v=0
274799 On ch=8 n=75 v=0
274799 On ch=8 n=67 v=0
274799 On ch=8 n=63 v=0
274800 On ch=8 n=75 v=32
274800 On ch=8 n=67 v=32
274800 On ch=8 n=63 v=32
274800 On ch=8 n=70 v=32
274829 On ch=8 n=70 v=0
274829 On ch=8 n=75 v=0
274829 On ch=8 n=67 v=0
274829 On ch=8 n=63 v=0
274830 On ch=8 n=75 v=32
274830 On ch=8 n=67 v=32
274830 On ch=8 n=63 v=32
274830 On ch=8 n=70 v=32
274859 On ch=8 n=70 v=0
274859 On ch=8 n=75 v=0
274859 On ch=8 n=67 v=0
274859 On ch=8 n=63 v=0
274860 On ch=8 n=75 v=32
274860 On ch=8 n=67 v=32
274860 On ch=8 n=63 v=32
274860 On ch=8 n=70 v=32
274889 On ch=8 n=70 v=0
274889 On ch=8 n=75 v=0
274889 On ch=8 n=67 v=0
274889 On ch=8 n=63 v=0
274890 On ch=8 n=75 v=32
274890 On ch=8 n=67 v=32
274890 On ch=8 n=63 v=32
274890 On ch=8 n=70 v=32
274919 On ch=8 n=70 v=0
274919 On ch=8 n=75 v=0
274919 On ch=8 n=67 v=0
274919 On ch=8 n=63 v=0
274920 On ch=8 n=75 v=32
274920 On ch=8 n=67 v=32
274920 On ch=8 n=63 v=32
274920 On ch=8 n=70 v=32
274949 On ch=8 n=70 v=0
274949 On ch=8 n=75 v=0
274949 On ch=8 n=67 v=0
274949 On ch=8 n=63 v=0
274950 On ch=8 n=75 v=32
274950 On ch=8 n=67 v=32
274950 On ch=8 n=63 v=32
274950 On ch=8 n=70 v=32
274979 On ch=8 n=70 v=0
274979 On ch=8 n=75 v=0
274979 On ch=8 n=67 v=0
274979 On ch=8 n=63 v=0
274980 On ch=8 n=75 v=32
274980 On ch=8 n=67 v=32
274980 On ch=8 n=63 v=32
274980 On ch=8 n=70 v=32
275009 On ch=8 n=70 v=0
275009 On ch=8 n=75 v=0
275009 On ch=8 n=67 v=0
275009 On ch=8 n=63 v=0
275010 On ch=8 n=75 v=32
275010 On ch=8 n=67 v=32
275010 On ch=8 n=63 v=32
275010 On ch=8 n=70 v=32
275039 On ch=8 n=70 v=0
275039 On ch=8 n=75 v=0
275039 On ch=8 n=67 v=0
275039 On ch=8 n=63 v=0
275040 On ch=8 n=75 v=32
275040 On ch=8 n=67 v=32
275040 On ch=8 n=63 v=32
275040 On ch=8 n=70 v=32
275069 On ch=8 n=70 v=0
275069 On ch=8 n=75 v=0
275069 On ch=8 n=67 v=0
275069 On ch=8 n=63 v=0
275070 On ch=8 n=75 v=32
275070 On ch=8 n=67 v=32
275070 On ch=8 n=63 v=32
275070 On ch=8 n=70 v=32
275099 On ch=8 n=70 v=0
275099 On ch=8 n=75 v=0
275099 On ch=8 n=67 v=0
275099 On ch=8 n=63 v=0
275100 On ch=8 n=75 v=32
275100 On ch=8 n=67 v=32
275100 On ch=8 n=63 v=32
275100 On ch=8 n=70 v=32
275129 On ch=8 n=70 v=0
275129 On ch=8 n=75 v=0
275129 On ch=8 n=67 v=0
275129 On ch=8 n=63 v=0
275130 On ch=8 n=75 v=32
275130 On ch=8 n=67 v=32
275130 On ch=8 n=63 v=32
275130 On ch=8 n=70 v=32
275159 On ch=8 n=70 v=0
275159 On ch=8 n=75 v=0
275159 On ch=8 n=67 v=0
275159 On ch=8 n=63 v=0
275160 On ch=8 n=75 v=32
275160 On ch=8 n=67 v=32
275160 On ch=8 n=63 v=32
275160 On ch=8 n=70 v=32
275189 On ch=8 n=70 v=0
275189 On ch=8 n=75 v=0
275189 On ch=8 n=67 v=0
275189 On ch=8 n=63 v=0
275190 On ch=8 n=75 v=32
275190 On ch=8 n=67 v=32
275190 On ch=8 n=63 v=32
275190 On ch=8 n=70 v=32
275219 On ch=8 n=70 v=0
275219 On ch=8 n=75 v=0
275219 On ch=8 n=67 v=0
275219 On ch=8 n=63 v=0
275220 On ch=8 n=75 v=32
275220 On ch=8 n=67 v=32
275220 On ch=8 n=63 v=32
275220 On ch=8 n=70 v=32
275249 On ch=8 n=70 v=0
275249 On ch=8 n=75 v=0
275249 On ch=8 n=67 v=0
275249 On ch=8 n=63 v=0
275250 On ch=8 n=75 v=32
275250 On ch=8 n=67 v=32
275250 On ch=8 n=63 v=32
275250 On ch=8 n=70 v=32
275279 On ch=8 n=70 v=0
275279 On ch=8 n=75 v=0
275279 On ch=8 n=67 v=0
275279 On ch=8 n=63 v=0
275280 On ch=8 n=75 v=32
275280 On ch=8 n=67 v=32
275280 On ch=8 n=63 v=32
275280 On ch=8 n=70 v=32
275309 On ch=8 n=70 v=0
275309 On ch=8 n=75 v=0
275309 On ch=8 n=67 v=0
275309 On ch=8 n=63 v=0
275310 On ch=8 n=75 v=32
275310 On ch=8 n=67 v=32
275310 On ch=8 n=63 v=32
275310 On ch=8 n=70 v=32
275339 On ch=8 n=70 v=0
275339 On ch=8 n=75 v=0
275339 On ch=8 n=67 v=0
275339 On ch=8 n=63 v=0
275340 On ch=8 n=75 v=32
275340 On ch=8 n=67 v=32
275340 On ch=8 n=63 v=32
275340 On ch=8 n=70 v=32
275369 On ch=8 n=70 v=0
275369 On ch=8 n=75 v=0
275369 On ch=8 n=67 v=0
275369 On ch=8 n=63 v=0
275370 On ch=8 n=75 v=32
275370 On ch=8 n=67 v=32
275370 On ch=8 n=63 v=32
275370 On ch=8 n=70 v=32
275399 On ch=8 n=70 v=0
275399 On ch=8 n=75 v=0
275399 On ch=8 n=67 v=0
275399 On ch=8 n=63 v=0
275400 On ch=8 n=63 v=32
275400 On ch=8 n=72 v=32
275400 On ch=8 n=75 v=32
275429 On ch=8 n=75 v=0
275429 On ch=8 n=72 v=0
275429 On ch=8 n=63 v=0
275430 On ch=8 n=63 v=32
275430 On ch=8 n=72 v=32
275430 On ch=8 n=78 v=32
275459 On ch=8 n=78 v=0
275459 On ch=8 n=72 v=0
275459 On ch=8 n=63 v=0
275460 On ch=8 n=63 v=32
275460 On ch=8 n=72 v=32
275460 On ch=8 n=78 v=32
275489 On ch=8 n=78 v=0
275489 On ch=8 n=72 v=0
275489 On ch=8 n=63 v=0
275490 On ch=8 n=63 v=32
275490 On ch=8 n=72 v=32
275490 On ch=8 n=78 v=32
275519 On ch=8 n=78 v=0
275519 On ch=8 n=72 v=0
275519 On ch=8 n=63 v=0
275520 On ch=8 n=63 v=33
275520 On ch=8 n=72 v=33
275520 On ch=8 n=78 v=33
275549 On ch=8 n=78 v=0
275549 On ch=8 n=72 v=0
275549 On ch=8 n=63 v=0
275550 On ch=8 n=63 v=33
275550 On ch=8 n=72 v=33
275550 On ch=8 n=78 v=33
275579 On ch=8 n=78 v=0
275579 On ch=8 n=72 v=0
275579 On ch=8 n=63 v=0
275580 On ch=8 n=63 v=34
275580 On ch=8 n=72 v=34
275580 On ch=8 n=78 v=34
275609 On ch=8 n=78 v=0
275609 On ch=8 n=72 v=0
275609 On ch=8 n=63 v=0
275610 On ch=8 n=63 v=34
275610 On ch=8 n=72 v=34
275610 On ch=8 n=78 v=34
275639 On ch=8 n=78 v=0
275639 On ch=8 n=72 v=0
275639 On ch=8 n=63 v=0
275640 On ch=8 n=63 v=35
275640 On ch=8 n=72 v=35
275640 On ch=8 n=78 v=35
275669 On ch=8 n=78 v=0
275669 On ch=8 n=72 v=0
275669 On ch=8 n=63 v=0
275670 On ch=8 n=63 v=35
275670 On ch=8 n=72 v=35
275670 On ch=8 n=78 v=35
275699 On ch=8 n=78 v=0
275699 On ch=8 n=72 v=0
275699 On ch=8 n=63 v=0
275700 On ch=8 n=63 v=35
275700 On ch=8 n=72 v=35
275700 On ch=8 n=78 v=35
275729 On ch=8 n=78 v=0
275729 On ch=8 n=72 v=0
275729 On ch=8 n=63 v=0
275730 On ch=8 n=63 v=35
275730 On ch=8 n=72 v=35
275730 On ch=8 n=78 v=35
275759 On ch=8 n=78 v=0
275759 On ch=8 n=72 v=0
275759 On ch=8 n=63 v=0
275760 On ch=8 n=63 v=36
275760 On ch=8 n=72 v=36
275760 On ch=8 n=78 v=36
275789 On ch=8 n=78 v=0
275789 On ch=8 n=72 v=0
275789 On ch=8 n=63 v=0
275790 On ch=8 n=63 v=36
275790 On ch=8 n=72 v=36
275790 On ch=8 n=78 v=36
275819 On ch=8 n=78 v=0
275819 On ch=8 n=72 v=0
275819 On ch=8 n=63 v=0
275820 On ch=8 n=63 v=36
275820 On ch=8 n=72 v=36
275820 On ch=8 n=78 v=36
275849 On ch=8 n=78 v=0
275849 On ch=8 n=72 v=0
275849 On ch=8 n=63 v=0
275850 On ch=8 n=63 v=36
275850 On ch=8 n=72 v=36
275850 On ch=8 n=78 v=36
275879 On ch=8 n=78 v=0
275879 On ch=8 n=72 v=0
275879 On ch=8 n=63 v=0
275880 On ch=8 n=63 v=37
275880 On ch=8 n=72 v=37
275880 On ch=8 n=78 v=37
275909 On ch=8 n=78 v=0
275909 On ch=8 n=72 v=0
275909 On ch=8 n=63 v=0
275910 On ch=8 n=63 v=37
275910 On ch=8 n=72 v=37
275910 On ch=8 n=78 v=37
275939 On ch=8 n=78 v=0
275939 On ch=8 n=72 v=0
275939 On ch=8 n=63 v=0
275940 On ch=8 n=63 v=37
275940 On ch=8 n=72 v=37
275940 On ch=8 n=78 v=37
275969 On ch=8 n=78 v=0
275969 On ch=8 n=72 v=0
275969 On ch=8 n=63 v=0
275970 On ch=8 n=63 v=37
275970 On ch=8 n=72 v=37
275970 On ch=8 n=78 v=37
275999 On ch=8 n=78 v=0
275999 On ch=8 n=72 v=0
275999 On ch=8 n=63 v=0
276000 On ch=8 n=63 v=38
276000 On ch=8 n=72 v=38
276000 On ch=8 n=78 v=38
276029 On ch=8 n=78 v=0
276029 On ch=8 n=72 v=0
276029 On ch=8 n=63 v=0
276030 On ch=8 n=63 v=38
276030 On ch=8 n=72 v=38
276030 On ch=8 n=78 v=38
276059 On ch=8 n=78 v=0
276059 On ch=8 n=72 v=0
276059 On ch=8 n=63 v=0
276060 On ch=8 n=63 v=38
276060 On ch=8 n=72 v=38
276060 On ch=8 n=78 v=38
276089 On ch=8 n=78 v=0
276089 On ch=8 n=72 v=0
276089 On ch=8 n=63 v=0
276090 On ch=8 n=63 v=38
276090 On ch=8 n=72 v=38
276090 On ch=8 n=78 v=38
276119 On ch=8 n=78 v=0
276119 On ch=8 n=72 v=0
276119 On ch=8 n=63 v=0
276120 On ch=8 n=63 v=39
276120 On ch=8 n=72 v=39
276120 On ch=8 n=78 v=39
276149 On ch=8 n=78 v=0
276149 On ch=8 n=72 v=0
276149 On ch=8 n=63 v=0
276150 On ch=8 n=63 v=39
276150 On ch=8 n=72 v=39
276150 On ch=8 n=78 v=39
276179 On ch=8 n=78 v=0
276179 On ch=8 n=72 v=0
276179 On ch=8 n=63 v=0
276180 On ch=8 n=63 v=40
276180 On ch=8 n=72 v=40
276180 On ch=8 n=78 v=40
276209 On ch=8 n=78 v=0
276209 On ch=8 n=72 v=0
276209 On ch=8 n=63 v=0
276210 On ch=8 n=63 v=40
276210 On ch=8 n=72 v=40
276210 On ch=8 n=78 v=40
276239 On ch=8 n=78 v=0
276239 On ch=8 n=72 v=0
276239 On ch=8 n=63 v=0
276240 On ch=8 n=63 v=41
276240 On ch=8 n=72 v=41
276240 On ch=8 n=78 v=41
276269 On ch=8 n=78 v=0
276269 On ch=8 n=72 v=0
276269 On ch=8 n=63 v=0
276270 On ch=8 n=63 v=41
276270 On ch=8 n=72 v=41
276270 On ch=8 n=78 v=41
276299 On ch=8 n=78 v=0
276299 On ch=8 n=72 v=0
276299 On ch=8 n=63 v=0
276300 On ch=8 n=63 v=41
276300 On ch=8 n=72 v=41
276300 On ch=8 n=78 v=41
276329 On ch=8 n=78 v=0
276329 On ch=8 n=72 v=0
276329 On ch=8 n=63 v=0
276330 On ch=8 n=63 v=41
276330 On ch=8 n=72 v=41
276330 On ch=8 n=78 v=41
276359 On ch=8 n=78 v=0
276359 On ch=8 n=72 v=0
276359 On ch=8 n=63 v=0
276360 On ch=8 n=63 v=42
276360 On ch=8 n=72 v=42
276360 On ch=8 n=78 v=42
276389 On ch=8 n=78 v=0
276389 On ch=8 n=72 v=0
276389 On ch=8 n=63 v=0
276390 On ch=8 n=63 v=42
276390 On ch=8 n=72 v=42
276390 On ch=8 n=78 v=42
276419 On ch=8 n=78 v=0
276419 On ch=8 n=72 v=0
276419 On ch=8 n=63 v=0
276420 On ch=8 n=63 v=42
276420 On ch=8 n=72 v=42
276420 On ch=8 n=78 v=42
276449 On ch=8 n=78 v=0
276449 On ch=8 n=72 v=0
276449 On ch=8 n=63 v=0
276450 On ch=8 n=63 v=42
276450 On ch=8 n=72 v=42
276450 On ch=8 n=78 v=42
276479 On ch=8 n=78 v=0
276479 On ch=8 n=72 v=0
276479 On ch=8 n=63 v=0
276480 On ch=8 n=63 v=44
276480 On ch=8 n=72 v=44
276480 On ch=8 n=78 v=44
276509 On ch=8 n=78 v=0
276509 On ch=8 n=72 v=0
276509 On ch=8 n=63 v=0
276510 On ch=8 n=63 v=44
276510 On ch=8 n=72 v=44
276510 On ch=8 n=78 v=44
276539 On ch=8 n=78 v=0
276539 On ch=8 n=72 v=0
276539 On ch=8 n=63 v=0
276540 On ch=8 n=63 v=44
276540 On ch=8 n=72 v=44
276540 On ch=8 n=78 v=44
276569 On ch=8 n=78 v=0
276569 On ch=8 n=72 v=0
276569 On ch=8 n=63 v=0
276570 On ch=8 n=63 v=44
276570 On ch=8 n=72 v=44
276570 On ch=8 n=78 v=44
276599 On ch=8 n=78 v=0
276599 On ch=8 n=72 v=0
276599 On ch=8 n=63 v=0
276600 On ch=8 n=63 v=46
276600 On ch=8 n=72 v=46
276600 On ch=8 n=77 v=46
276629 On ch=8 n=77 v=0
276629 On ch=8 n=72 v=0
276629 On ch=8 n=63 v=0
276630 On ch=8 n=63 v=46
276630 On ch=8 n=72 v=46
276630 On ch=8 n=77 v=46
276659 On ch=8 n=77 v=0
276659 On ch=8 n=72 v=0
276659 On ch=8 n=63 v=0
276660 On ch=8 n=63 v=46
276660 On ch=8 n=72 v=46
276660 On ch=8 n=77 v=46
276689 On ch=8 n=77 v=0
276689 On ch=8 n=72 v=0
276689 On ch=8 n=63 v=0
276690 On ch=8 n=63 v=46
276690 On ch=8 n=72 v=46
276690 On ch=8 n=77 v=46
276719 On ch=8 n=77 v=0
276719 On ch=8 n=72 v=0
276719 On ch=8 n=63 v=0
276720 On ch=8 n=63 v=47
276720 On ch=8 n=72 v=47
276720 On ch=8 n=75 v=47
276749 On ch=8 n=75 v=0
276749 On ch=8 n=72 v=0
276749 On ch=8 n=63 v=0
276750 On ch=8 n=63 v=47
276750 On ch=8 n=72 v=47
276750 On ch=8 n=75 v=47
276779 On ch=8 n=75 v=0
276779 On ch=8 n=72 v=0
276779 On ch=8 n=63 v=0
276780 On ch=8 n=63 v=47
276780 On ch=8 n=72 v=47
276780 On ch=8 n=75 v=47
276809 On ch=8 n=75 v=0
276809 On ch=8 n=72 v=0
276809 On ch=8 n=63 v=0
276810 On ch=8 n=63 v=47
276810 On ch=8 n=72 v=47
276810 On ch=8 n=75 v=47
276839 On ch=8 n=75 v=0
276839 On ch=8 n=72 v=0
276839 On ch=8 n=63 v=0
276840 On ch=8 n=65 v=48
276840 On ch=8 n=74 v=48
276869 On ch=8 n=74 v=0
276869 On ch=8 n=65 v=0
276870 On ch=8 n=80 v=49
276870 On ch=8 n=65 v=49
276899 On ch=8 n=65 v=0
276899 On ch=8 n=80 v=0
276900 On ch=8 n=80 v=50
276900 On ch=8 n=65 v=50
276929 On ch=8 n=65 v=0
276929 On ch=8 n=80 v=0
276930 On ch=8 n=80 v=51
276930 On ch=8 n=65 v=51
276959 On ch=8 n=65 v=0
276959 On ch=8 n=80 v=0
276960 On ch=8 n=80 v=52
276960 On ch=8 n=65 v=52
276989 On ch=8 n=65 v=0
276989 On ch=8 n=80 v=0
276990 On ch=8 n=80 v=53
276990 On ch=8 n=65 v=53
277019 On ch=8 n=65 v=0
277019 On ch=8 n=80 v=0
277020 On ch=8 n=80 v=54
277020 On ch=8 n=65 v=54
277049 On ch=8 n=65 v=0
277049 On ch=8 n=80 v=0
277050 On ch=8 n=80 v=55
277050 On ch=8 n=65 v=55
277079 On ch=8 n=65 v=0
277079 On ch=8 n=80 v=0
277080 On ch=8 n=80 v=56
277080 On ch=8 n=65 v=56
277109 On ch=8 n=65 v=0
277109 On ch=8 n=80 v=0
277110 On ch=8 n=80 v=57
277110 On ch=8 n=65 v=57
277139 On ch=8 n=65 v=0
277139 On ch=8 n=80 v=0
277140 On ch=8 n=80 v=58
277140 On ch=8 n=65 v=58
277169 On ch=8 n=65 v=0
277169 On ch=8 n=80 v=0
277170 On ch=8 n=80 v=59
277170 On ch=8 n=65 v=59
277199 On ch=8 n=65 v=0
277199 On ch=8 n=80 v=0
277200 On ch=8 n=74 v=60
277200 On ch=8 n=80 v=60
277200 On ch=8 n=65 v=60
277229 On ch=8 n=65 v=0
277229 On ch=8 n=80 v=0
277229 On ch=8 n=74 v=0
277230 On ch=8 n=74 v=61
277230 On ch=8 n=80 v=61
277230 On ch=8 n=65 v=61
277259 On ch=8 n=65 v=0
277259 On ch=8 n=80 v=0
277259 On ch=8 n=74 v=0
277260 On ch=8 n=74 v=62
277260 On ch=8 n=80 v=62
277260 On ch=8 n=65 v=62
277289 On ch=8 n=65 v=0
277289 On ch=8 n=80 v=0
277289 On ch=8 n=74 v=0
277290 On ch=8 n=74 v=63
277290 On ch=8 n=80 v=63
277290 On ch=8 n=65 v=63
277319 On ch=8 n=65 v=0
277319 On ch=8 n=80 v=0
277319 On ch=8 n=74 v=0
277320 On ch=8 n=74 v=64
277320 On ch=8 n=80 v=64
277320 On ch=8 n=65 v=64
277349 On ch=8 n=65 v=0
277349 On ch=8 n=80 v=0
277349 On ch=8 n=74 v=0
277350 On ch=8 n=74 v=65
277350 On ch=8 n=80 v=65
277350 On ch=8 n=65 v=65
277379 On ch=8 n=65 v=0
277379 On ch=8 n=80 v=0
277379 On ch=8 n=74 v=0
277380 On ch=8 n=74 v=66
277380 On ch=8 n=80 v=66
277380 On ch=8 n=65 v=66
277409 On ch=8 n=65 v=0
277409 On ch=8 n=80 v=0
277409 On ch=8 n=74 v=0
277410 On ch=8 n=74 v=67
277410 On ch=8 n=80 v=67
277410 On ch=8 n=65 v=67
277439 On ch=8 n=65 v=0
277439 On ch=8 n=80 v=0
277439 On ch=8 n=74 v=0
277440 On ch=8 n=74 v=68
277440 On ch=8 n=80 v=68
277440 On ch=8 n=65 v=68
277469 On ch=8 n=65 v=0
277469 On ch=8 n=80 v=0
277469 On ch=8 n=74 v=0
277470 On ch=8 n=74 v=67
277470 On ch=8 n=80 v=67
277470 On ch=8 n=65 v=67
277499 On ch=8 n=65 v=0
277499 On ch=8 n=80 v=0
277499 On ch=8 n=74 v=0
277500 On ch=8 n=74 v=66
277500 On ch=8 n=80 v=66
277500 On ch=8 n=65 v=66
277529 On ch=8 n=65 v=0
277529 On ch=8 n=80 v=0
277529 On ch=8 n=74 v=0
277530 On ch=8 n=74 v=65
277530 On ch=8 n=80 v=65
277530 On ch=8 n=65 v=65
277559 On ch=8 n=65 v=0
277559 On ch=8 n=80 v=0
277559 On ch=8 n=74 v=0
277560 On ch=8 n=74 v=64
277560 On ch=8 n=80 v=64
277560 On ch=8 n=65 v=64
277589 On ch=8 n=65 v=0
277589 On ch=8 n=80 v=0
277589 On ch=8 n=74 v=0
277590 On ch=8 n=74 v=63
277590 On ch=8 n=80 v=63
277590 On ch=8 n=65 v=63
277619 On ch=8 n=65 v=0
277619 On ch=8 n=80 v=0
277619 On ch=8 n=74 v=0
277620 On ch=8 n=74 v=62
277620 On ch=8 n=80 v=62
277620 On ch=8 n=65 v=62
277649 On ch=8 n=65 v=0
277649 On ch=8 n=80 v=0
277649 On ch=8 n=74 v=0
277650 On ch=8 n=74 v=61
277650 On ch=8 n=80 v=61
277650 On ch=8 n=65 v=61
277679 On ch=8 n=65 v=0
277679 On ch=8 n=80 v=0
277679 On ch=8 n=74 v=0
277680 On ch=8 n=74 v=60
277680 On ch=8 n=80 v=60
277680 On ch=8 n=65 v=60
277709 On ch=8 n=65 v=0
277709 On ch=8 n=80 v=0
277709 On ch=8 n=74 v=0
277710 On ch=8 n=74 v=59
277710 On ch=8 n=80 v=59
277710 On ch=8 n=65 v=59
277739 On ch=8 n=65 v=0
277739 On ch=8 n=80 v=0
277739 On ch=8 n=74 v=0
277740 On ch=8 n=74 v=58
277740 On ch=8 n=80 v=58
277740 On ch=8 n=65 v=58
277769 On ch=8 n=65 v=0
277769 On ch=8 n=80 v=0
277769 On ch=8 n=74 v=0
277770 On ch=8 n=74 v=57
277770 On ch=8 n=80 v=57
277770 On ch=8 n=65 v=57
277799 On ch=8 n=65 v=0
277799 On ch=8 n=80 v=0
277799 On ch=8 n=74 v=0
277800 On ch=8 n=74 v=56
277800 On ch=8 n=80 v=56
277800 On ch=8 n=65 v=56
277829 On ch=8 n=65 v=0
277829 On ch=8 n=80 v=0
277829 On ch=8 n=74 v=0
277830 On ch=8 n=74 v=55
277830 On ch=8 n=80 v=55
277830 On ch=8 n=65 v=55
277859 On ch=8 n=65 v=0
277859 On ch=8 n=80 v=0
277859 On ch=8 n=74 v=0
277860 On ch=8 n=74 v=54
277860 On ch=8 n=80 v=54
277860 On ch=8 n=65 v=54
277889 On ch=8 n=65 v=0
277889 On ch=8 n=80 v=0
277889 On ch=8 n=74 v=0
277890 On ch=8 n=74 v=53
277890 On ch=8 n=80 v=53
277890 On ch=8 n=65 v=53
277919 On ch=8 n=65 v=0
277919 On ch=8 n=80 v=0
277919 On ch=8 n=74 v=0
277920 On ch=8 n=80 v=52
277920 On ch=8 n=65 v=52
277949 On ch=8 n=65 v=0
277949 On ch=8 n=80 v=0
277950 On ch=8 n=80 v=51
277950 On ch=8 n=65 v=51
277979 On ch=8 n=65 v=0
277979 On ch=8 n=80 v=0
277980 On ch=8 n=80 v=50
277980 On ch=8 n=65 v=50
278009 On ch=8 n=65 v=0
278009 On ch=8 n=80 v=0
278010 On ch=8 n=80 v=49
278010 On ch=8 n=65 v=49
278039 On ch=8 n=65 v=0
278039 On ch=8 n=80 v=0
278040 On ch=8 n=80 v=48
278040 On ch=8 n=65 v=48
278069 On ch=8 n=65 v=0
278069 On ch=8 n=80 v=0
278070 On ch=8 n=80 v=48
278070 On ch=8 n=65 v=48
278099 On ch=8 n=65 v=0
278099 On ch=8 n=80 v=0
278100 On ch=8 n=80 v=48
278100 On ch=8 n=65 v=48
278129 On ch=8 n=65 v=0
278129 On ch=8 n=80 v=0
278130 On ch=8 n=80 v=48
278130 On ch=8 n=65 v=48
278159 On ch=8 n=65 v=0
278159 On ch=8 n=80 v=0
278160 On ch=8 n=80 v=48
278160 On ch=8 n=62 v=48
278189 On ch=8 n=62 v=0
278189 On ch=8 n=80 v=0
278190 On ch=8 n=80 v=48
278190 On ch=8 n=62 v=48
278219 On ch=8 n=62 v=0
278219 On ch=8 n=80 v=0
278220 On ch=8 n=80 v=48
278220 On ch=8 n=62 v=48
278249 On ch=8 n=62 v=0
278249 On ch=8 n=80 v=0
278250 On ch=8 n=80 v=48
278250 On ch=8 n=62 v=48
278279 On ch=8 n=62 v=0
278279 On ch=8 n=80 v=0
278280 On ch=8 n=79 v=48
278280 On ch=8 n=63 v=48
278339 On ch=8 n=79 v=0
278340 On ch=8 n=79 v=48
278399 On ch=8 n=63 v=0
278400 On ch=8 n=78 v=48
278400 On ch=8 n=67 v=48
278409 On ch=8 n=79 v=0
278459 On ch=8 n=67 v=0
278460 On ch=8 n=79 v=48
278469 On ch=8 n=78 v=0
278520 On ch=8 n=80 v=48
278529 On ch=8 n=79 v=0
278580 On ch=8 n=79 v=48
278589 On ch=8 n=80 v=0
278639 On ch=8 n=79 v=0
278700 On ch=8 n=75 v=48
278760 On ch=8 n=74 v=48
278760 On ch=8 n=67 v=48
278769 On ch=8 n=75 v=0
278819 On ch=8 n=67 v=0
278820 On ch=8 n=75 v=48
278829 On ch=8 n=74 v=0
278880 On ch=8 n=77 v=48
278889 On ch=8 n=75 v=0
278940 On ch=8 n=75 v=48
278949 On ch=8 n=77 v=0
278999 On ch=8 n=75 v=0
279060 On ch=8 n=72 v=48
279120 On ch=8 n=71 v=48
279120 On ch=8 n=65 v=48
279129 On ch=8 n=72 v=0
279179 On ch=8 n=65 v=0
279180 On ch=8 n=72 v=48
279189 On ch=8 n=71 v=0
279240 On ch=8 n=74 v=48
279249 On ch=8 n=72 v=0
279300 On ch=8 n=72 v=48
279309 On ch=8 n=74 v=0
279359 On ch=8 n=72 v=0
279420 On ch=8 n=72 v=48
279480 On ch=8 n=71 v=48
279480 On ch=8 n=65 v=48
279489 On ch=8 n=72 v=0
279539 On ch=8 n=65 v=0
279540 On ch=8 n=72 v=48
279549 On ch=8 n=71 v=0
279600 On ch=8 n=74 v=48
279609 On ch=8 n=72 v=0
279660 On ch=8 n=72 v=48
279669 On ch=8 n=74 v=0
279719 On ch=8 n=72 v=0
279780 On ch=8 n=58 v=49
279780 On ch=8 n=70 v=49
279840 On ch=8 n=57 v=50
279840 On ch=8 n=69 v=50
279849 On ch=8 n=70 v=0
279849 On ch=8 n=58 v=0
279900 On ch=8 n=58 v=51
279900 On ch=8 n=70 v=51
279909 On ch=8 n=57 v=0
279909 On ch=8 n=69 v=0
279960 On ch=8 n=63 v=52
279960 On ch=8 n=75 v=52
279969 On ch=8 n=58 v=0
279969 On ch=8 n=70 v=0
280020 On ch=8 n=62 v=53
280020 On ch=8 n=74 v=53
280029 On ch=8 n=63 v=0
280029 On ch=8 n=75 v=0
280079 On ch=8 n=62 v=0
280079 On ch=8 n=74 v=0
280080 On ch=8 n=65 v=54
280080 On ch=8 n=77 v=54
280140 On ch=8 n=63 v=55
280140 On ch=8 n=75 v=55
280149 On ch=8 n=77 v=0
280149 On ch=8 n=65 v=0
280200 On ch=8 n=67 v=56
280200 On ch=8 n=79 v=56
280209 On ch=8 n=63 v=0
280209 On ch=8 n=75 v=0
280260 On ch=8 n=65 v=57
280260 On ch=8 n=77 v=57
280269 On ch=8 n=67 v=0
280269 On ch=8 n=79 v=0
280320 On ch=8 n=68 v=58
280320 On ch=8 n=80 v=58
280329 On ch=8 n=65 v=0
280329 On ch=8 n=77 v=0
280380 On ch=8 n=67 v=59
280380 On ch=8 n=79 v=59
280389 On ch=8 n=68 v=0
280389 On ch=8 n=80 v=0
280440 On ch=8 n=70 v=60
280440 On ch=8 n=82 v=60
280449 On ch=8 n=67 v=0
280449 On ch=8 n=79 v=0
280500 On ch=8 n=69 v=61
280500 On ch=8 n=81 v=61
280509 On ch=8 n=70 v=0
280509 On ch=8 n=82 v=0
280560 On ch=8 n=72 v=62
280560 On ch=8 n=84 v=62
280569 On ch=8 n=69 v=0
280569 On ch=8 n=81 v=0
280620 On ch=8 n=70 v=63
280620 On ch=8 n=82 v=63
280629 On ch=8 n=72 v=0
280629 On ch=8 n=84 v=0
280680 On ch=8 n=68 v=64
280680 On ch=8 n=80 v=64
280689 On ch=8 n=70 v=0
280689 On ch=8 n=82 v=0
280740 On ch=8 n=67 v=65
280740 On ch=8 n=79 v=65
280749 On ch=8 n=68 v=0
280749 On ch=8 n=80 v=0
280800 On ch=8 n=65 v=48
280800 On ch=8 n=77 v=48
280809 On ch=8 n=67 v=0
280809 On ch=8 n=79 v=0
280860 On ch=8 n=63 v=48
280860 On ch=8 n=75 v=48
280869 On ch=8 n=65 v=0
280869 On ch=8 n=77 v=0
280920 On ch=8 n=62 v=48
280920 On ch=8 n=74 v=48
280929 On ch=8 n=63 v=0
280929 On ch=8 n=75 v=0
280980 On ch=8 n=65 v=48
280980 On ch=8 n=77 v=48
280989 On ch=8 n=62 v=0
280989 On ch=8 n=74 v=0
281040 On ch=8 n=68 v=48
281040 On ch=8 n=80 v=48
281049 On ch=8 n=65 v=0
281049 On ch=8 n=77 v=0
281100 On ch=8 n=62 v=48
281100 On ch=8 n=74 v=48
281109 On ch=8 n=68 v=0
281109 On ch=8 n=80 v=0
281159 On ch=8 n=62 v=0
281159 On ch=8 n=74 v=0
281160 On ch=8 n=63 v=48
281160 On ch=8 n=75 v=48
281189 On ch=8 n=75 v=0
281219 On ch=8 n=63 v=0
281220 On ch=8 n=63 v=48
281220 On ch=8 n=58 v=48
281250 On ch=8 n=65 v=48
281259 On ch=8 n=63 v=0
281280 On ch=8 n=67 v=48
281280 On ch=8 n=63 v=48
281289 On ch=8 n=65 v=0
281289 On ch=8 n=58 v=0
281309 On ch=8 n=67 v=0
281340 On ch=8 n=67 v=48
281340 On ch=8 n=58 v=48
281349 On ch=8 n=63 v=0
281370 On ch=8 n=68 v=48
281379 On ch=8 n=67 v=0
281400 On ch=8 n=70 v=48
281400 On ch=8 n=55 v=48
281409 On ch=8 n=68 v=0
281409 On ch=8 n=58 v=0
281429 On ch=8 n=70 v=0
281460 On ch=8 n=72 v=48
281460 On ch=8 n=58 v=48
281469 On ch=8 n=55 v=0
281490 On ch=8 n=74 v=48
281499 On ch=8 n=72 v=0
281519 On ch=8 n=58 v=0
281520 On ch=8 n=75 v=48
281520 On ch=8 n=55 v=48
281529 On ch=8 n=74 v=0
281549 On ch=8 n=75 v=0
281580 On ch=8 n=75 v=48
281580 On ch=8 n=58 v=48
281589 On ch=8 n=55 v=0
281610 On ch=8 n=77 v=48
281619 On ch=8 n=75 v=0
281640 On ch=8 n=79 v=48
281640 On ch=8 n=63 v=48
281649 On ch=8 n=77 v=0
281649 On ch=8 n=58 v=0
281669 On ch=8 n=79 v=0
281700 On ch=8 n=79 v=48
281700 On ch=8 n=58 v=48
281709 On ch=8 n=63 v=0
281730 On ch=8 n=80 v=48
281739 On ch=8 n=79 v=0
281760 On ch=8 n=82 v=48
281760 On ch=8 n=55 v=48
281769 On ch=8 n=80 v=0
281769 On ch=8 n=58 v=0
281789 On ch=8 n=82 v=0
281820 On ch=8 n=84 v=48
281820 On ch=8 n=58 v=48
281829 On ch=8 n=55 v=0
281850 On ch=8 n=86 v=48
281859 On ch=8 n=84 v=0
281879 On ch=8 n=58 v=0
281880 On ch=8 n=87 v=64
281880 On ch=8 n=55 v=48
281889 On ch=8 n=86 v=0
281909 On ch=8 n=87 v=0
281940 On ch=8 n=82 v=48
281940 On ch=8 n=58 v=48
281949 On ch=8 n=55 v=0
281970 On ch=8 n=80 v=48
281979 On ch=8 n=82 v=0
282000 On ch=8 n=79 v=48
282000 On ch=8 n=63 v=48
282009 On ch=8 n=80 v=0
282009 On ch=8 n=58 v=0
282029 On ch=8 n=79 v=0
282060 On ch=8 n=77 v=48
282060 On ch=8 n=58 v=48
282069 On ch=8 n=63 v=0
282089 On ch=8 n=77 v=0
282120 On ch=8 n=75 v=48
282120 On ch=8 n=55 v=48
282129 On ch=8 n=58 v=0
282149 On ch=8 n=75 v=0
282180 On ch=8 n=74 v=48
282180 On ch=8 n=58 v=48
282189 On ch=8 n=55 v=0
282209 On ch=8 n=74 v=0
282239 On ch=8 n=58 v=0
282240 On ch=8 n=72 v=48
282240 On ch=8 n=55 v=48
282269 On ch=8 n=72 v=0
282300 On ch=8 n=70 v=48
282300 On ch=8 n=58 v=48
282309 On ch=8 n=55 v=0
282329 On ch=8 n=70 v=0
282360 On ch=8 n=68 v=48
282360 On ch=8 n=63 v=48
282369 On ch=8 n=58 v=0
282389 On ch=8 n=68 v=0
282420 On ch=8 n=67 v=48
282420 On ch=8 n=58 v=48
282429 On ch=8 n=63 v=0
282449 On ch=8 n=67 v=0
282480 On ch=8 n=65 v=48
282480 On ch=8 n=55 v=48
282489 On ch=8 n=58 v=0
282509 On ch=8 n=65 v=0
282540 On ch=8 n=63 v=48
282540 On ch=8 n=58 v=48
282549 On ch=8 n=55 v=0
282569 On ch=8 n=63 v=0
282599 On ch=8 n=58 v=0
282600 On ch=8 n=56 v=48
282660 On ch=8 n=58 v=48
282669 On ch=8 n=56 v=0
282690 On ch=8 n=60 v=48
282720 On ch=8 n=62 v=48
282720 On ch=8 n=65 v=48
282729 On ch=8 n=60 v=0
282729 On ch=8 n=58 v=0
282749 On ch=8 n=62 v=0
282780 On ch=8 n=62 v=48
282780 On ch=8 n=58 v=48
282789 On ch=8 n=65 v=0
282810 On ch=8 n=63 v=48
282819 On ch=8 n=62 v=0
282840 On ch=8 n=65 v=48
282840 On ch=8 n=56 v=48
282849 On ch=8 n=63 v=0
282849 On ch=8 n=58 v=0
282869 On ch=8 n=65 v=0
282900 On ch=8 n=65 v=48
282900 On ch=8 n=58 v=48
282909 On ch=8 n=56 v=0
282930 On ch=8 n=67 v=48
282939 On ch=8 n=65 v=0
282959 On ch=8 n=58 v=0
282960 On ch=8 n=68 v=48
282960 On ch=8 n=56 v=48
282969 On ch=8 n=67 v=0
282989 On ch=8 n=68 v=0
283020 On ch=8 n=70 v=48
283020 On ch=8 n=58 v=48
283029 On ch=8 n=56 v=0
283050 On ch=8 n=72 v=48
283059 On ch=8 n=70 v=0
283080 On ch=8 n=74 v=48
283080 On ch=8 n=65 v=48
283089 On ch=8 n=72 v=0
283089 On ch=8 n=58 v=0
283109 On ch=8 n=74 v=0
283140 On ch=8 n=74 v=48
283140 On ch=8 n=58 v=48
283149 On ch=8 n=65 v=0
283170 On ch=8 n=75 v=48
283179 On ch=8 n=74 v=0
283200 On ch=8 n=77 v=48
283200 On ch=8 n=56 v=48
283209 On ch=8 n=75 v=0
283209 On ch=8 n=58 v=0
283229 On ch=8 n=77 v=0
283260 On ch=8 n=77 v=48
283260 On ch=8 n=58 v=48
283269 On ch=8 n=56 v=0
283290 On ch=8 n=79 v=48
283299 On ch=8 n=77 v=0
283319 On ch=8 n=58 v=0
283320 On ch=8 n=80 v=64
283320 On ch=8 n=56 v=48
283329 On ch=8 n=79 v=0
283349 On ch=8 n=80 v=0
283380 On ch=8 n=84 v=48
283380 On ch=8 n=58 v=48
283389 On ch=8 n=56 v=0
283410 On ch=8 n=82 v=48
283419 On ch=8 n=84 v=0
283440 On ch=8 n=80 v=48
283440 On ch=8 n=62 v=48
283449 On ch=8 n=82 v=0
283449 On ch=8 n=58 v=0
283469 On ch=8 n=80 v=0
283500 On ch=8 n=79 v=48
283500 On ch=8 n=58 v=48
283509 On ch=8 n=62 v=0
283529 On ch=8 n=79 v=0
283560 On ch=8 n=77 v=48
283560 On ch=8 n=56 v=48
283569 On ch=8 n=58 v=0
283589 On ch=8 n=77 v=0
283620 On ch=8 n=75 v=48
283620 On ch=8 n=58 v=48
283629 On ch=8 n=56 v=0
283649 On ch=8 n=75 v=0
283679 On ch=8 n=58 v=0
283680 On ch=8 n=74 v=48
283680 On ch=8 n=56 v=48
283709 On ch=8 n=74 v=0
283740 On ch=8 n=72 v=48
283740 On ch=8 n=58 v=48
283749 On ch=8 n=56 v=0
283769 On ch=8 n=72 v=0
283800 On ch=8 n=70 v=48
283800 On ch=8 n=62 v=48
283809 On ch=8 n=58 v=0
283829 On ch=8 n=70 v=0
283860 On ch=8 n=68 v=48
283860 On ch=8 n=58 v=48
283869 On ch=8 n=62 v=0
283889 On ch=8 n=68 v=0
283920 On ch=8 n=67 v=48
283920 On ch=8 n=56 v=48
283929 On ch=8 n=58 v=0
283949 On ch=8 n=67 v=0
283980 On ch=8 n=65 v=48
283980 On ch=8 n=58 v=48
283989 On ch=8 n=56 v=0
284009 On ch=8 n=65 v=0
284039 On ch=8 n=58 v=0
284040 On ch=8 n=63 v=48
284040 On ch=8 n=55 v=48
284069 On ch=8 n=55 v=0
284100 On ch=8 n=55 v=48
284130 On ch=8 n=56 v=48
284139 On ch=8 n=55 v=0
284159 On ch=8 n=63 v=0
284160 On ch=8 n=58 v=48
284160 On ch=8 n=75 v=48
284169 On ch=8 n=56 v=0
284189 On ch=8 n=58 v=0
284220 On ch=8 n=60 v=48
284250 On ch=8 n=62 v=48
284259 On ch=8 n=60 v=0
284280 On ch=8 n=63 v=48
284280 On ch=8 n=79 v=48
284289 On ch=8 n=62 v=0
284289 On ch=8 n=75 v=0
284309 On ch=8 n=63 v=0
284340 On ch=8 n=63 v=48
284370 On ch=8 n=65 v=48
284379 On ch=8 n=63 v=0
284400 On ch=8 n=67 v=48
284400 On ch=8 n=75 v=48
284409 On ch=8 n=65 v=0
284409 On ch=8 n=79 v=0
284429 On ch=8 n=67 v=0
284460 On ch=8 n=67 v=48
284490 On ch=8 n=68 v=48
284499 On ch=8 n=67 v=0
284520 On ch=8 n=70 v=48
284529 On ch=8 n=68 v=0
284549 On ch=8 n=70 v=0
284580 On ch=8 n=70 v=48
284610 On ch=8 n=72 v=48
284619 On ch=8 n=70 v=0
284640 On ch=8 n=74 v=48
284640 On ch=8 n=70 v=48
284649 On ch=8 n=72 v=0
284649 On ch=8 n=75 v=0
284669 On ch=8 n=74 v=0
284700 On ch=8 n=75 v=48
284730 On ch=8 n=77 v=48
284739 On ch=8 n=75 v=0
284759 On ch=8 n=70 v=0
284760 On ch=8 n=79 v=64
284760 On ch=8 n=75 v=48
284769 On ch=8 n=77 v=0
284789 On ch=8 n=79 v=0
284820 On ch=8 n=77 v=48
284849 On ch=8 n=77 v=0
284879 On ch=8 n=75 v=0
284880 On ch=8 n=75 v=48
284880 On ch=8 n=79 v=48
284909 On ch=8 n=75 v=0
284940 On ch=8 n=74 v=48
284969 On ch=8 n=74 v=0
284999 On ch=8 n=79 v=0
285000 On ch=8 n=72 v=48
285000 On ch=8 n=82 v=48
285029 On ch=8 n=72 v=0
285059 On ch=8 n=82 v=0
285060 On ch=8 n=70 v=48
285089 On ch=8 n=70 v=0
285120 On ch=8 n=68 v=48
285120 On ch=8 n=82 v=48
285149 On ch=8 n=68 v=0
285180 On ch=8 n=67 v=48
285209 On ch=8 n=67 v=0
285240 On ch=8 n=65 v=48
285269 On ch=8 n=65 v=0
285300 On ch=8 n=63 v=48
285329 On ch=8 n=63 v=0
285360 On ch=8 n=62 v=48
285389 On ch=8 n=62 v=0
285420 On ch=8 n=60 v=48
285449 On ch=8 n=60 v=0
285479 On ch=8 n=82 v=0
285480 On ch=8 n=77 v=48
285540 On ch=8 n=58 v=48
285570 On ch=8 n=60 v=48
285579 On ch=8 n=58 v=0
285600 On ch=8 n=62 v=48
285609 On ch=8 n=60 v=0
285629 On ch=8 n=62 v=0
285660 On ch=8 n=62 v=48
285690 On ch=8 n=63 v=48
285699 On ch=8 n=62 v=0
285720 On ch=8 n=65 v=48
285720 On ch=8 n=80 v=48
285729 On ch=8 n=63 v=0
285729 On ch=8 n=77 v=0
285749 On ch=8 n=65 v=0
285780 On ch=8 n=65 v=48
285810 On ch=8 n=67 v=48
285819 On ch=8 n=65 v=0
285840 On ch=8 n=68 v=48
285840 On ch=8 n=77 v=48
285849 On ch=8 n=67 v=0
285849 On ch=8 n=80 v=0
285869 On ch=8 n=68 v=0
285900 On ch=8 n=70 v=48
285930 On ch=8 n=72 v=48
285939 On ch=8 n=70 v=0
285960 On ch=8 n=74 v=48
285969 On ch=8 n=72 v=0
285989 On ch=8 n=74 v=0
286020 On ch=8 n=74 v=48
286050 On ch=8 n=75 v=48
286059 On ch=8 n=74 v=0
286079 On ch=8 n=77 v=0
286080 On ch=8 n=77 v=48
286080 On ch=8 n=70 v=48
286089 On ch=8 n=75 v=0
286109 On ch=8 n=77 v=0
286140 On ch=8 n=77 v=48
286170 On ch=8 n=79 v=48
286179 On ch=8 n=77 v=0
286199 On ch=8 n=70 v=0
286200 On ch=8 n=80 v=48
286200 On ch=8 n=77 v=48
286209 On ch=8 n=79 v=0
286229 On ch=8 n=80 v=0
286260 On ch=8 n=79 v=48
286289 On ch=8 n=79 v=0
286319 On ch=8 n=77 v=0
286320 On ch=8 n=77 v=48
286320 On ch=8 n=80 v=48
286349 On ch=8 n=77 v=0
286380 On ch=8 n=75 v=48
286409 On ch=8 n=75 v=0
286439 On ch=8 n=80 v=0
286440 On ch=8 n=74 v=48
286440 On ch=8 n=82 v=48
286469 On ch=8 n=74 v=0
286499 On ch=8 n=82 v=0
286500 On ch=8 n=72 v=48
286529 On ch=8 n=72 v=0
286560 On ch=8 n=70 v=48
286560 On ch=8 n=82 v=48
286589 On ch=8 n=70 v=0
286620 On ch=8 n=72 v=48
286649 On ch=8 n=72 v=0
286680 On ch=8 n=70 v=48
286709 On ch=8 n=70 v=0
286740 On ch=8 n=68 v=48
286769 On ch=8 n=68 v=0
286800 On ch=8 n=67 v=48
286829 On ch=8 n=67 v=0
286860 On ch=8 n=65 v=48
286889 On ch=8 n=65 v=0
286920 On ch=8 n=63 v=48
286949 On ch=8 n=63 v=0
286979 On ch=8 n=82 v=0
286980 On ch=8 n=82 v=49
286980 On ch=8 n=79 v=49
286980 On ch=8 n=70 v=49
287099 On ch=8 n=70 v=0
287099 On ch=8 n=79 v=0
287099 On ch=8 n=82 v=0
287100 On ch=8 n=82 v=51
287100 On ch=8 n=79 v=51
287100 On ch=8 n=70 v=51
287219 On ch=8 n=70 v=0
287219 On ch=8 n=79 v=0
287219 On ch=8 n=82 v=0
287220 On ch=8 n=82 v=53
287220 On ch=8 n=70 v=53
287220 On ch=8 n=79 v=53
287339 On ch=8 n=79 v=0
287339 On ch=8 n=70 v=0
287339 On ch=8 n=82 v=0
287340 On ch=8 n=82 v=55
287340 On ch=8 n=79 v=55
287340 On ch=8 n=70 v=55
287459 On ch=8 n=70 v=0
287459 On ch=8 n=79 v=0
287459 On ch=8 n=82 v=0
287460 On ch=8 n=82 v=57
287460 On ch=8 n=79 v=57
287460 On ch=8 n=70 v=57
287579 On ch=8 n=70 v=0
287579 On ch=8 n=79 v=0
287579 On ch=8 n=82 v=0
287580 On ch=8 n=82 v=59
287580 On ch=8 n=79 v=59
287580 On ch=8 n=70 v=59
287699 On ch=8 n=70 v=0
287699 On ch=8 n=79 v=0
287699 On ch=8 n=82 v=0
287700 On ch=8 n=82 v=61
287700 On ch=8 n=79 v=61
287700 On ch=8 n=70 v=61
287819 On ch=8 n=70 v=0
287819 On ch=8 n=79 v=0
287819 On ch=8 n=82 v=0
287820 On ch=8 n=82 v=63
287820 On ch=8 n=79 v=63
287820 On ch=8 n=70 v=63
287939 On ch=8 n=70 v=0
287939 On ch=8 n=79 v=0
287939 On ch=8 n=82 v=0
287940 On ch=8 n=82 v=65
287940 On ch=8 n=79 v=65
287940 On ch=8 n=70 v=65
288059 On ch=8 n=70 v=0
288059 On ch=8 n=79 v=0
288059 On ch=8 n=82 v=0
288060 On ch=8 n=82 v=67
288060 On ch=8 n=79 v=67
288060 On ch=8 n=70 v=67
288179 On ch=8 n=70 v=0
288179 On ch=8 n=79 v=0
288179 On ch=8 n=82 v=0
288180 On ch=8 n=82 v=69
288180 On ch=8 n=79 v=69
288180 On ch=8 n=70 v=69
288299 On ch=8 n=70 v=0
288299 On ch=8 n=79 v=0
288299 On ch=8 n=82 v=0
288300 On ch=8 n=82 v=71
288300 On ch=8 n=79 v=71
288300 On ch=8 n=70 v=71
288360 On ch=8 n=80 v=72
288369 On ch=8 n=79 v=0
288419 On ch=8 n=82 v=0
288419 On ch=8 n=70 v=0
288419 On ch=8 n=80 v=0
288420 On ch=8 n=82 v=73
288420 On ch=8 n=80 v=73
288420 On ch=8 n=70 v=73
288539 On ch=8 n=70 v=0
288539 On ch=8 n=80 v=0
288539 On ch=8 n=82 v=0
288540 On ch=8 n=82 v=75
288540 On ch=8 n=80 v=75
288540 On ch=8 n=70 v=75
288659 On ch=8 n=70 v=0
288659 On ch=8 n=80 v=0
288659 On ch=8 n=82 v=0
288660 On ch=8 n=82 v=77
288660 On ch=8 n=80 v=77
288660 On ch=8 n=70 v=77
288779 On ch=8 n=70 v=0
288779 On ch=8 n=80 v=0
288779 On ch=8 n=82 v=0
288780 On ch=8 n=82 v=79
288780 On ch=8 n=80 v=79
288780 On ch=8 n=70 v=79
288899 On ch=8 n=70 v=0
288899 On ch=8 n=80 v=0
288899 On ch=8 n=82 v=0
288900 On ch=8 n=82 v=81
288900 On ch=8 n=80 v=81
288900 On ch=8 n=70 v=81
289019 On ch=8 n=70 v=0
289019 On ch=8 n=80 v=0
289019 On ch=8 n=82 v=0
289020 On ch=8 n=82 v=83
289020 On ch=8 n=80 v=83
289020 On ch=8 n=70 v=83
289139 On ch=8 n=70 v=0
289139 On ch=8 n=80 v=0
289139 On ch=8 n=82 v=0
289140 On ch=8 n=82 v=85
289140 On ch=8 n=80 v=85
289140 On ch=8 n=70 v=85
289259 On ch=8 n=70 v=0
289259 On ch=8 n=80 v=0
289259 On ch=8 n=82 v=0
289260 On ch=8 n=82 v=87
289260 On ch=8 n=80 v=87
289260 On ch=8 n=70 v=87
289379 On ch=8 n=70 v=0
289379 On ch=8 n=80 v=0
289379 On ch=8 n=82 v=0
289380 On ch=8 n=82 v=89
289380 On ch=8 n=80 v=89
289380 On ch=8 n=70 v=89
289499 On ch=8 n=70 v=0
289499 On ch=8 n=80 v=0
289499 On ch=8 n=82 v=0
289500 On ch=8 n=82 v=91
289500 On ch=8 n=70 v=91
289559 On ch=8 n=70 v=0
289559 On ch=8 n=82 v=0
289560 On ch=8 n=84 v=92
289560 On ch=8 n=72 v=92
289619 On ch=8 n=72 v=0
289619 On ch=8 n=84 v=0
289620 On ch=8 n=84 v=93
289620 On ch=8 n=72 v=93
289679 On ch=8 n=72 v=0
289679 On ch=8 n=84 v=0
289680 On ch=8 n=86 v=94
289680 On ch=8 n=74 v=94
289739 On ch=8 n=74 v=0
289739 On ch=8 n=86 v=0
289740 On ch=8 n=86 v=95
289740 On ch=8 n=74 v=95
289799 On ch=8 n=74 v=0
289799 On ch=8 n=86 v=0
289800 On ch=8 n=75 v=96
289829 On ch=8 n=75 v=0
289830 On ch=8 n=87 v=96
289830 On ch=8 n=75 v=96
289830 On ch=8 n=79 v=96
289830 On ch=8 n=70 v=96
289859 On ch=8 n=70 v=0
289859 On ch=8 n=87 v=0
289859 On ch=8 n=75 v=0
289859 On ch=8 n=79 v=0
289860 On ch=8 n=87 v=96
289860 On ch=8 n=75 v=96
289860 On ch=8 n=79 v=96
289860 On ch=8 n=70 v=96
289889 On ch=8 n=70 v=0
289889 On ch=8 n=87 v=0
289889 On ch=8 n=75 v=0
289889 On ch=8 n=79 v=0
289890 On ch=8 n=87 v=96
289890 On ch=8 n=75 v=96
289890 On ch=8 n=79 v=96
289890 On ch=8 n=70 v=96
289919 On ch=8 n=70 v=0
289919 On ch=8 n=87 v=0
289919 On ch=8 n=75 v=0
289919 On ch=8 n=79 v=0
289920 On ch=8 n=87 v=96
289920 On ch=8 n=75 v=96
289920 On ch=8 n=79 v=96
289920 On ch=8 n=70 v=96
289949 On ch=8 n=70 v=0
289949 On ch=8 n=87 v=0
289949 On ch=8 n=75 v=0
289949 On ch=8 n=79 v=0
289950 On ch=8 n=87 v=96
289950 On ch=8 n=75 v=96
289950 On ch=8 n=79 v=96
289950 On ch=8 n=70 v=96
289979 On ch=8 n=70 v=0
289979 On ch=8 n=87 v=0
289979 On ch=8 n=75 v=0
289979 On ch=8 n=79 v=0
289980 On ch=8 n=87 v=96
289980 On ch=8 n=75 v=96
289980 On ch=8 n=79 v=96
289980 On ch=8 n=70 v=96
290009 On ch=8 n=70 v=0
290009 On ch=8 n=87 v=0
290009 On ch=8 n=75 v=0
290009 On ch=8 n=79 v=0
290010 On ch=8 n=87 v=96
290010 On ch=8 n=75 v=96
290010 On ch=8 n=79 v=96
290010 On ch=8 n=70 v=96
290039 On ch=8 n=70 v=0
290039 On ch=8 n=87 v=0
290039 On ch=8 n=75 v=0
290039 On ch=8 n=79 v=0
290040 On ch=8 n=87 v=96
290040 On ch=8 n=75 v=96
290040 On ch=8 n=79 v=96
290040 On ch=8 n=70 v=96
290069 On ch=8 n=70 v=0
290069 On ch=8 n=87 v=0
290069 On ch=8 n=75 v=0
290069 On ch=8 n=79 v=0
290070 On ch=8 n=87 v=96
290070 On ch=8 n=75 v=96
290070 On ch=8 n=79 v=96
290070 On ch=8 n=70 v=96
290099 On ch=8 n=70 v=0
290099 On ch=8 n=87 v=0
290099 On ch=8 n=75 v=0
290099 On ch=8 n=79 v=0
290100 On ch=8 n=87 v=96
290100 On ch=8 n=75 v=96
290100 On ch=8 n=79 v=96
290100 On ch=8 n=70 v=96
290129 On ch=8 n=70 v=0
290129 On ch=8 n=87 v=0
290129 On ch=8 n=75 v=0
290129 On ch=8 n=79 v=0
290130 On ch=8 n=87 v=96
290130 On ch=8 n=75 v=96
290130 On ch=8 n=79 v=96
290130 On ch=8 n=70 v=96
290159 On ch=8 n=70 v=0
290159 On ch=8 n=87 v=0
290159 On ch=8 n=75 v=0
290159 On ch=8 n=79 v=0
290160 On ch=8 n=87 v=96
290160 On ch=8 n=75 v=96
290160 On ch=8 n=79 v=96
290160 On ch=8 n=70 v=96
290189 On ch=8 n=70 v=0
290189 On ch=8 n=87 v=0
290189 On ch=8 n=75 v=0
290189 On ch=8 n=79 v=0
290190 On ch=8 n=87 v=96
290190 On ch=8 n=75 v=96
290190 On ch=8 n=79 v=96
290190 On ch=8 n=70 v=96
290219 On ch=8 n=70 v=0
290219 On ch=8 n=87 v=0
290219 On ch=8 n=75 v=0
290219 On ch=8 n=79 v=0
290220 On ch=8 n=87 v=96
290220 On ch=8 n=75 v=96
290220 On ch=8 n=79 v=96
290220 On ch=8 n=70 v=96
290249 On ch=8 n=70 v=0
290249 On ch=8 n=87 v=0
290249 On ch=8 n=75 v=0
290249 On ch=8 n=79 v=0
290250 On ch=8 n=87 v=96
290250 On ch=8 n=75 v=96
290250 On ch=8 n=79 v=96
290250 On ch=8 n=70 v=96
290279 On ch=8 n=70 v=0
290279 On ch=8 n=87 v=0
290279 On ch=8 n=75 v=0
290279 On ch=8 n=79 v=0
290280 On ch=8 n=87 v=96
290280 On ch=8 n=75 v=96
290280 On ch=8 n=79 v=96
290280 On ch=8 n=70 v=96
290309 On ch=8 n=70 v=0
290309 On ch=8 n=87 v=0
290309 On ch=8 n=75 v=0
290309 On ch=8 n=79 v=0
290310 On ch=8 n=87 v=96
290310 On ch=8 n=75 v=96
290310 On ch=8 n=79 v=96
290310 On ch=8 n=70 v=96
290339 On ch=8 n=70 v=0
290339 On ch=8 n=87 v=0
290339 On ch=8 n=75 v=0
290339 On ch=8 n=79 v=0
290340 On ch=8 n=87 v=96
290340 On ch=8 n=75 v=96
290340 On ch=8 n=79 v=96
290340 On ch=8 n=70 v=96
290369 On ch=8 n=70 v=0
290369 On ch=8 n=87 v=0
290369 On ch=8 n=75 v=0
290369 On ch=8 n=79 v=0
290370 On ch=8 n=87 v=96
290370 On ch=8 n=75 v=96
290370 On ch=8 n=79 v=96
290370 On ch=8 n=70 v=96
290399 On ch=8 n=70 v=0
290399 On ch=8 n=87 v=0
290399 On ch=8 n=75 v=0
290399 On ch=8 n=79 v=0
290400 On ch=8 n=87 v=96
290400 On ch=8 n=75 v=96
290400 On ch=8 n=79 v=96
290400 On ch=8 n=70 v=96
290429 On ch=8 n=70 v=0
290429 On ch=8 n=87 v=0
290429 On ch=8 n=75 v=0
290429 On ch=8 n=79 v=0
290430 On ch=8 n=87 v=96
290430 On ch=8 n=75 v=96
290430 On ch=8 n=79 v=96
290430 On ch=8 n=70 v=96
290459 On ch=8 n=70 v=0
290459 On ch=8 n=87 v=0
290459 On ch=8 n=75 v=0
290459 On ch=8 n=79 v=0
290460 On ch=8 n=87 v=96
290460 On ch=8 n=75 v=96
290460 On ch=8 n=79 v=96
290460 On ch=8 n=70 v=96
290489 On ch=8 n=70 v=0
290489 On ch=8 n=87 v=0
290489 On ch=8 n=75 v=0
290489 On ch=8 n=79 v=0
290490 On ch=8 n=87 v=96
290490 On ch=8 n=75 v=96
290490 On ch=8 n=79 v=96
290490 On ch=8 n=70 v=96
290519 On ch=8 n=70 v=0
290519 On ch=8 n=87 v=0
290519 On ch=8 n=75 v=0
290519 On ch=8 n=79 v=0
290520 On ch=8 n=87 v=96
290520 On ch=8 n=75 v=96
290520 On ch=8 n=79 v=96
290520 On ch=8 n=70 v=96
290549 On ch=8 n=70 v=0
290549 On ch=8 n=87 v=0
290549 On ch=8 n=75 v=0
290549 On ch=8 n=79 v=0
290550 On ch=8 n=87 v=96
290550 On ch=8 n=75 v=96
290550 On ch=8 n=79 v=96
290550 On ch=8 n=70 v=96
290579 On ch=8 n=70 v=0
290579 On ch=8 n=87 v=0
290579 On ch=8 n=75 v=0
290579 On ch=8 n=79 v=0
290580 On ch=8 n=87 v=96
290580 On ch=8 n=75 v=96
290580 On ch=8 n=79 v=96
290580 On ch=8 n=70 v=96
290609 On ch=8 n=70 v=0
290609 On ch=8 n=87 v=0
290609 On ch=8 n=75 v=0
290609 On ch=8 n=79 v=0
290610 On ch=8 n=87 v=96
290610 On ch=8 n=75 v=96
290610 On ch=8 n=79 v=96
290610 On ch=8 n=70 v=96
290639 On ch=8 n=70 v=0
290639 On ch=8 n=87 v=0
290639 On ch=8 n=75 v=0
290639 On ch=8 n=79 v=0
290640 On ch=8 n=87 v=96
290640 On ch=8 n=75 v=96
290640 On ch=8 n=79 v=96
290640 On ch=8 n=70 v=96
290669 On ch=8 n=70 v=0
290669 On ch=8 n=87 v=0
290669 On ch=8 n=75 v=0
290669 On ch=8 n=79 v=0
290670 On ch=8 n=87 v=96
290670 On ch=8 n=75 v=96
290670 On ch=8 n=79 v=96
290670 On ch=8 n=70 v=96
290699 On ch=8 n=70 v=0
290699 On ch=8 n=87 v=0
290699 On ch=8 n=75 v=0
290699 On ch=8 n=79 v=0
290700 On ch=8 n=87 v=96
290700 On ch=8 n=75 v=96
290700 On ch=8 n=79 v=96
290700 On ch=8 n=70 v=96
290729 On ch=8 n=70 v=0
290729 On ch=8 n=87 v=0
290729 On ch=8 n=75 v=0
290729 On ch=8 n=79 v=0
290730 On ch=8 n=87 v=96
290730 On ch=8 n=75 v=96
290730 On ch=8 n=79 v=96
290730 On ch=8 n=70 v=96
290759 On ch=8 n=70 v=0
290759 On ch=8 n=87 v=0
290759 On ch=8 n=75 v=0
290759 On ch=8 n=79 v=0
290760 On ch=8 n=87 v=96
290760 On ch=8 n=75 v=96
290760 On ch=8 n=79 v=96
290760 On ch=8 n=70 v=96
290789 On ch=8 n=70 v=0
290789 On ch=8 n=87 v=0
290789 On ch=8 n=75 v=0
290789 On ch=8 n=79 v=0
290790 On ch=8 n=87 v=96
290790 On ch=8 n=75 v=96
290790 On ch=8 n=79 v=96
290790 On ch=8 n=70 v=96
290819 On ch=8 n=70 v=0
290819 On ch=8 n=87 v=0
290819 On ch=8 n=75 v=0
290819 On ch=8 n=79 v=0
290820 On ch=8 n=87 v=96
290820 On ch=8 n=75 v=96
290820 On ch=8 n=79 v=96
290820 On ch=8 n=70 v=96
290849 On ch=8 n=70 v=0
290849 On ch=8 n=87 v=0
290849 On ch=8 n=75 v=0
290849 On ch=8 n=79 v=0
290850 On ch=8 n=87 v=96
290850 On ch=8 n=75 v=96
290850 On ch=8 n=79 v=96
290850 On ch=8 n=70 v=96
290879 On ch=8 n=70 v=0
290879 On ch=8 n=87 v=0
290879 On ch=8 n=75 v=0
290879 On ch=8 n=79 v=0
290880 On ch=8 n=87 v=96
290880 On ch=8 n=75 v=96
290880 On ch=8 n=79 v=96
290880 On ch=8 n=70 v=96
290909 On ch=8 n=70 v=0
290909 On ch=8 n=87 v=0
290909 On ch=8 n=75 v=0
290909 On ch=8 n=79 v=0
290910 On ch=8 n=87 v=96
290910 On ch=8 n=75 v=96
290910 On ch=8 n=79 v=96
290910 On ch=8 n=70 v=96
290939 On ch=8 n=70 v=0
290939 On ch=8 n=87 v=0
290939 On ch=8 n=75 v=0
290939 On ch=8 n=79 v=0
290940 On ch=8 n=87 v=96
290940 On ch=8 n=75 v=96
290940 On ch=8 n=79 v=96
290940 On ch=8 n=70 v=96
290969 On ch=8 n=70 v=0
290969 On ch=8 n=87 v=0
290969 On ch=8 n=75 v=0
290969 On ch=8 n=79 v=0
290970 On ch=8 n=87 v=96
290970 On ch=8 n=75 v=96
290970 On ch=8 n=79 v=96
290970 On ch=8 n=70 v=96
290999 On ch=8 n=70 v=0
290999 On ch=8 n=87 v=0
290999 On ch=8 n=75 v=0
290999 On ch=8 n=79 v=0
291000 On ch=8 n=87 v=96
291000 On ch=8 n=75 v=96
291000 On ch=8 n=79 v=96
291000 On ch=8 n=70 v=96
291029 On ch=8 n=70 v=0
291029 On ch=8 n=87 v=0
291029 On ch=8 n=75 v=0
291029 On ch=8 n=79 v=0
291030 On ch=8 n=87 v=96
291030 On ch=8 n=75 v=96
291030 On ch=8 n=79 v=96
291030 On ch=8 n=70 v=96
291059 On ch=8 n=70 v=0
291059 On ch=8 n=87 v=0
291059 On ch=8 n=75 v=0
291059 On ch=8 n=79 v=0
291060 On ch=8 n=87 v=96
291060 On ch=8 n=75 v=96
291060 On ch=8 n=79 v=96
291060 On ch=8 n=70 v=96
291089 On ch=8 n=70 v=0
291089 On ch=8 n=87 v=0
291089 On ch=8 n=75 v=0
291089 On ch=8 n=79 v=0
291090 On ch=8 n=87 v=96
291090 On ch=8 n=75 v=96
291090 On ch=8 n=79 v=96
291090 On ch=8 n=70 v=96
291119 On ch=8 n=70 v=0
291119 On ch=8 n=87 v=0
291119 On ch=8 n=75 v=0
291119 On ch=8 n=79 v=0
291120 On ch=8 n=87 v=96
291120 On ch=8 n=75 v=96
291120 On ch=8 n=79 v=96
291120 On ch=8 n=70 v=96
291149 On ch=8 n=70 v=0
291149 On ch=8 n=87 v=0
291149 On ch=8 n=75 v=0
291149 On ch=8 n=79 v=0
291150 On ch=8 n=87 v=96
291150 On ch=8 n=75 v=96
291150 On ch=8 n=79 v=96
291150 On ch=8 n=70 v=96
291179 On ch=8 n=70 v=0
291179 On ch=8 n=87 v=0
291179 On ch=8 n=75 v=0
291179 On ch=8 n=79 v=0
291180 On ch=8 n=87 v=96
291180 On ch=8 n=75 v=96
291180 On ch=8 n=79 v=96
291180 On ch=8 n=70 v=96
291209 On ch=8 n=70 v=0
291209 On ch=8 n=87 v=0
291209 On ch=8 n=75 v=0
291209 On ch=8 n=79 v=0
291210 On ch=8 n=87 v=96
291210 On ch=8 n=75 v=96
291210 On ch=8 n=79 v=96
291210 On ch=8 n=70 v=96
291239 On ch=8 n=70 v=0
291239 On ch=8 n=87 v=0
291239 On ch=8 n=75 v=0
291239 On ch=8 n=79 v=0
291240 On ch=8 n=86 v=96
291240 On ch=8 n=74 v=96
291240 On ch=8 n=80 v=96
291240 On ch=8 n=70 v=96
291269 On ch=8 n=70 v=0
291269 On ch=8 n=86 v=0
291269 On ch=8 n=74 v=0
291269 On ch=8 n=80 v=0
291270 On ch=8 n=86 v=96
291270 On ch=8 n=74 v=96
291270 On ch=8 n=80 v=96
291270 On ch=8 n=70 v=96
291299 On ch=8 n=70 v=0
291299 On ch=8 n=86 v=0
291299 On ch=8 n=74 v=0
291299 On ch=8 n=80 v=0
291300 On ch=8 n=86 v=96
291300 On ch=8 n=74 v=96
291300 On ch=8 n=80 v=96
291300 On ch=8 n=70 v=96
291329 On ch=8 n=70 v=0
291329 On ch=8 n=86 v=0
291329 On ch=8 n=74 v=0
291329 On ch=8 n=80 v=0
291330 On ch=8 n=86 v=96
291330 On ch=8 n=74 v=96
291330 On ch=8 n=80 v=96
291330 On ch=8 n=70 v=96
291359 On ch=8 n=70 v=0
291359 On ch=8 n=86 v=0
291359 On ch=8 n=74 v=0
291359 On ch=8 n=80 v=0
291360 On ch=8 n=86 v=96
291360 On ch=8 n=74 v=96
291360 On ch=8 n=80 v=96
291360 On ch=8 n=70 v=96
291389 On ch=8 n=70 v=0
291389 On ch=8 n=86 v=0
291389 On ch=8 n=74 v=0
291389 On ch=8 n=80 v=0
291390 On ch=8 n=86 v=96
291390 On ch=8 n=74 v=96
291390 On ch=8 n=80 v=96
291390 On ch=8 n=70 v=96
291419 On ch=8 n=70 v=0
291419 On ch=8 n=86 v=0
291419 On ch=8 n=74 v=0
291419 On ch=8 n=80 v=0
291420 On ch=8 n=86 v=96
291420 On ch=8 n=74 v=96
291420 On ch=8 n=80 v=96
291420 On ch=8 n=70 v=96
291449 On ch=8 n=70 v=0
291449 On ch=8 n=86 v=0
291449 On ch=8 n=74 v=0
291449 On ch=8 n=80 v=0
291450 On ch=8 n=86 v=96
291450 On ch=8 n=74 v=96
291450 On ch=8 n=80 v=96
291450 On ch=8 n=70 v=96
291479 On ch=8 n=70 v=0
291479 On ch=8 n=86 v=0
291479 On ch=8 n=74 v=0
291479 On ch=8 n=80 v=0
291480 On ch=8 n=86 v=96
291480 On ch=8 n=74 v=96
291480 On ch=8 n=80 v=96
291480 On ch=8 n=70 v=96
291509 On ch=8 n=70 v=0
291509 On ch=8 n=86 v=0
291509 On ch=8 n=74 v=0
291509 On ch=8 n=80 v=0
291510 On ch=8 n=86 v=96
291510 On ch=8 n=74 v=96
291510 On ch=8 n=80 v=96
291510 On ch=8 n=70 v=96
291539 On ch=8 n=70 v=0
291539 On ch=8 n=86 v=0
291539 On ch=8 n=74 v=0
291539 On ch=8 n=80 v=0
291540 On ch=8 n=86 v=96
291540 On ch=8 n=74 v=96
291540 On ch=8 n=80 v=96
291540 On ch=8 n=70 v=96
291569 On ch=8 n=70 v=0
291569 On ch=8 n=86 v=0
291569 On ch=8 n=74 v=0
291569 On ch=8 n=80 v=0
291570 On ch=8 n=86 v=96
291570 On ch=8 n=74 v=96
291570 On ch=8 n=80 v=96
291570 On ch=8 n=70 v=96
291599 On ch=8 n=70 v=0
291599 On ch=8 n=86 v=0
291599 On ch=8 n=74 v=0
291599 On ch=8 n=80 v=0
291600 On ch=8 n=86 v=96
291600 On ch=8 n=74 v=96
291600 On ch=8 n=80 v=96
291600 On ch=8 n=70 v=96
291629 On ch=8 n=70 v=0
291629 On ch=8 n=86 v=0
291629 On ch=8 n=74 v=0
291629 On ch=8 n=80 v=0
291630 On ch=8 n=86 v=96
291630 On ch=8 n=74 v=96
291630 On ch=8 n=80 v=96
291630 On ch=8 n=70 v=96
291659 On ch=8 n=70 v=0
291659 On ch=8 n=86 v=0
291659 On ch=8 n=74 v=0
291659 On ch=8 n=80 v=0
291660 On ch=8 n=86 v=96
291660 On ch=8 n=74 v=96
291660 On ch=8 n=80 v=96
291660 On ch=8 n=70 v=96
291689 On ch=8 n=70 v=0
291689 On ch=8 n=86 v=0
291689 On ch=8 n=74 v=0
291689 On ch=8 n=80 v=0
291690 On ch=8 n=86 v=96
291690 On ch=8 n=74 v=96
291690 On ch=8 n=80 v=96
291690 On ch=8 n=70 v=96
291719 On ch=8 n=70 v=0
291719 On ch=8 n=86 v=0
291719 On ch=8 n=74 v=0
291719 On ch=8 n=80 v=0
291720 On ch=8 n=86 v=96
291720 On ch=8 n=74 v=96
291720 On ch=8 n=80 v=96
291720 On ch=8 n=70 v=96
291749 On ch=8 n=70 v=0
291749 On ch=8 n=86 v=0
291749 On ch=8 n=74 v=0
291749 On ch=8 n=80 v=0
291750 On ch=8 n=86 v=96
291750 On ch=8 n=74 v=96
291750 On ch=8 n=80 v=96
291750 On ch=8 n=70 v=96
291779 On ch=8 n=70 v=0
291779 On ch=8 n=86 v=0
291779 On ch=8 n=74 v=0
291779 On ch=8 n=80 v=0
291780 On ch=8 n=86 v=96
291780 On ch=8 n=74 v=96
291780 On ch=8 n=80 v=96
291780 On ch=8 n=70 v=96
291809 On ch=8 n=70 v=0
291809 On ch=8 n=86 v=0
291809 On ch=8 n=74 v=0
291809 On ch=8 n=80 v=0
291810 On ch=8 n=86 v=96
291810 On ch=8 n=74 v=96
291810 On ch=8 n=80 v=96
291810 On ch=8 n=70 v=96
291839 On ch=8 n=70 v=0
291839 On ch=8 n=86 v=0
291839 On ch=8 n=74 v=0
291839 On ch=8 n=80 v=0
291840 On ch=8 n=86 v=96
291840 On ch=8 n=74 v=96
291840 On ch=8 n=80 v=96
291840 On ch=8 n=70 v=96
291869 On ch=8 n=70 v=0
291869 On ch=8 n=86 v=0
291869 On ch=8 n=74 v=0
291869 On ch=8 n=80 v=0
291870 On ch=8 n=86 v=96
291870 On ch=8 n=74 v=96
291870 On ch=8 n=80 v=96
291870 On ch=8 n=70 v=96
291899 On ch=8 n=70 v=0
291899 On ch=8 n=86 v=0
291899 On ch=8 n=74 v=0
291899 On ch=8 n=80 v=0
291900 On ch=8 n=86 v=96
291900 On ch=8 n=74 v=96
291900 On ch=8 n=80 v=96
291900 On ch=8 n=70 v=96
291929 On ch=8 n=70 v=0
291929 On ch=8 n=86 v=0
291929 On ch=8 n=74 v=0
291929 On ch=8 n=80 v=0
291930 On ch=8 n=86 v=96
291930 On ch=8 n=74 v=96
291930 On ch=8 n=80 v=96
291930 On ch=8 n=70 v=96
291959 On ch=8 n=70 v=0
291959 On ch=8 n=86 v=0
291959 On ch=8 n=74 v=0
291959 On ch=8 n=80 v=0
291960 On ch=8 n=86 v=96
291960 On ch=8 n=74 v=96
291960 On ch=8 n=80 v=96
291960 On ch=8 n=70 v=96
291989 On ch=8 n=70 v=0
291989 On ch=8 n=86 v=0
291989 On ch=8 n=74 v=0
291989 On ch=8 n=80 v=0
291990 On ch=8 n=86 v=96
291990 On ch=8 n=74 v=96
291990 On ch=8 n=80 v=96
291990 On ch=8 n=70 v=96
292019 On ch=8 n=70 v=0
292019 On ch=8 n=86 v=0
292019 On ch=8 n=74 v=0
292019 On ch=8 n=80 v=0
292020 On ch=8 n=86 v=96
292020 On ch=8 n=74 v=96
292020 On ch=8 n=80 v=96
292020 On ch=8 n=70 v=96
292049 On ch=8 n=70 v=0
292049 On ch=8 n=86 v=0
292049 On ch=8 n=74 v=0
292049 On ch=8 n=80 v=0
292050 On ch=8 n=86 v=96
292050 On ch=8 n=74 v=96
292050 On ch=8 n=80 v=96
292050 On ch=8 n=70 v=96
292079 On ch=8 n=70 v=0
292079 On ch=8 n=86 v=0
292079 On ch=8 n=74 v=0
292079 On ch=8 n=80 v=0
292080 On ch=8 n=86 v=96
292080 On ch=8 n=74 v=96
292080 On ch=8 n=80 v=96
292080 On ch=8 n=70 v=96
292109 On ch=8 n=70 v=0
292109 On ch=8 n=86 v=0
292109 On ch=8 n=74 v=0
292109 On ch=8 n=80 v=0
292110 On ch=8 n=86 v=96
292110 On ch=8 n=74 v=96
292110 On ch=8 n=80 v=96
292110 On ch=8 n=70 v=96
292139 On ch=8 n=70 v=0
292139 On ch=8 n=86 v=0
292139 On ch=8 n=74 v=0
292139 On ch=8 n=80 v=0
292140 On ch=8 n=86 v=96
292140 On ch=8 n=74 v=96
292140 On ch=8 n=80 v=96
292140 On ch=8 n=70 v=96
292169 On ch=8 n=70 v=0
292169 On ch=8 n=86 v=0
292169 On ch=8 n=74 v=0
292169 On ch=8 n=80 v=0
292170 On ch=8 n=86 v=96
292170 On ch=8 n=74 v=96
292170 On ch=8 n=80 v=96
292170 On ch=8 n=70 v=96
292199 On ch=8 n=70 v=0
292199 On ch=8 n=86 v=0
292199 On ch=8 n=74 v=0
292199 On ch=8 n=80 v=0
292200 On ch=8 n=86 v=96
292200 On ch=8 n=74 v=96
292200 On ch=8 n=80 v=96
292200 On ch=8 n=70 v=96
292229 On ch=8 n=70 v=0
292229 On ch=8 n=86 v=0
292229 On ch=8 n=74 v=0
292229 On ch=8 n=80 v=0
292230 On ch=8 n=86 v=96
292230 On ch=8 n=74 v=96
292230 On ch=8 n=80 v=96
292230 On ch=8 n=70 v=96
292259 On ch=8 n=70 v=0
292259 On ch=8 n=86 v=0
292259 On ch=8 n=74 v=0
292259 On ch=8 n=80 v=0
292260 On ch=8 n=86 v=96
292260 On ch=8 n=74 v=96
292260 On ch=8 n=80 v=96
292260 On ch=8 n=70 v=96
292289 On ch=8 n=70 v=0
292289 On ch=8 n=86 v=0
292289 On ch=8 n=74 v=0
292289 On ch=8 n=80 v=0
292290 On ch=8 n=86 v=96
292290 On ch=8 n=74 v=96
292290 On ch=8 n=80 v=96
292290 On ch=8 n=70 v=96
292319 On ch=8 n=70 v=0
292319 On ch=8 n=86 v=0
292319 On ch=8 n=74 v=0
292319 On ch=8 n=80 v=0
292320 On ch=8 n=86 v=96
292320 On ch=8 n=74 v=96
292320 On ch=8 n=80 v=96
292320 On ch=8 n=70 v=96
292349 On ch=8 n=70 v=0
292349 On ch=8 n=86 v=0
292349 On ch=8 n=74 v=0
292349 On ch=8 n=80 v=0
292350 On ch=8 n=86 v=96
292350 On ch=8 n=74 v=96
292350 On ch=8 n=80 v=96
292350 On ch=8 n=70 v=96
292379 On ch=8 n=70 v=0
292379 On ch=8 n=86 v=0
292379 On ch=8 n=74 v=0
292379 On ch=8 n=80 v=0
292380 On ch=8 n=86 v=96
292380 On ch=8 n=74 v=96
292380 On ch=8 n=80 v=96
292380 On ch=8 n=70 v=96
292409 On ch=8 n=70 v=0
292409 On ch=8 n=86 v=0
292409 On ch=8 n=74 v=0
292409 On ch=8 n=80 v=0
292410 On ch=8 n=86 v=96
292410 On ch=8 n=74 v=96
292410 On ch=8 n=80 v=96
292410 On ch=8 n=70 v=96
292439 On ch=8 n=70 v=0
292439 On ch=8 n=86 v=0
292439 On ch=8 n=74 v=0
292439 On ch=8 n=80 v=0
292440 On ch=8 n=86 v=96
292440 On ch=8 n=74 v=96
292440 On ch=8 n=80 v=96
292440 On ch=8 n=70 v=96
292469 On ch=8 n=70 v=0
292469 On ch=8 n=86 v=0
292469 On ch=8 n=74 v=0
292469 On ch=8 n=80 v=0
292470 On ch=8 n=86 v=96
292470 On ch=8 n=74 v=96
292470 On ch=8 n=80 v=96
292470 On ch=8 n=70 v=96
292499 On ch=8 n=70 v=0
292499 On ch=8 n=86 v=0
292499 On ch=8 n=74 v=0
292499 On ch=8 n=80 v=0
292500 On ch=8 n=86 v=96
292500 On ch=8 n=74 v=96
292500 On ch=8 n=80 v=96
292500 On ch=8 n=70 v=96
292529 On ch=8 n=70 v=0
292529 On ch=8 n=86 v=0
292529 On ch=8 n=74 v=0
292529 On ch=8 n=80 v=0
292530 On ch=8 n=86 v=96
292530 On ch=8 n=74 v=96
292530 On ch=8 n=80 v=96
292530 On ch=8 n=70 v=96
292559 On ch=8 n=70 v=0
292559 On ch=8 n=86 v=0
292559 On ch=8 n=74 v=0
292559 On ch=8 n=80 v=0
292560 On ch=8 n=86 v=96
292560 On ch=8 n=74 v=96
292560 On ch=8 n=80 v=96
292560 On ch=8 n=70 v=96
292589 On ch=8 n=70 v=0
292589 On ch=8 n=86 v=0
292589 On ch=8 n=74 v=0
292589 On ch=8 n=80 v=0
292590 On ch=8 n=86 v=96
292590 On ch=8 n=74 v=96
292590 On ch=8 n=80 v=96
292590 On ch=8 n=70 v=96
292619 On ch=8 n=70 v=0
292619 On ch=8 n=86 v=0
292619 On ch=8 n=74 v=0
292619 On ch=8 n=80 v=0
292620 On ch=8 n=86 v=96
292620 On ch=8 n=74 v=96
292620 On ch=8 n=80 v=96
292620 On ch=8 n=70 v=96
292649 On ch=8 n=70 v=0
292649 On ch=8 n=86 v=0
292649 On ch=8 n=74 v=0
292649 On ch=8 n=80 v=0
292650 On ch=8 n=86 v=96
292650 On ch=8 n=74 v=96
292650 On ch=8 n=80 v=96
292650 On ch=8 n=70 v=96
292679 On ch=8 n=70 v=0
292679 On ch=8 n=86 v=0
292679 On ch=8 n=74 v=0
292679 On ch=8 n=80 v=0
292680 On ch=8 n=88 v=96
292680 On ch=8 n=79 v=96
292680 On ch=8 n=70 v=96
292709 On ch=8 n=70 v=0
292709 On ch=8 n=79 v=0
292709 On ch=8 n=88 v=0
292710 On ch=8 n=88 v=96
292710 On ch=8 n=79 v=96
292710 On ch=8 n=70 v=96
292739 On ch=8 n=70 v=0
292739 On ch=8 n=79 v=0
292739 On ch=8 n=88 v=0
292740 On ch=8 n=88 v=96
292740 On ch=8 n=79 v=96
292740 On ch=8 n=70 v=96
292769 On ch=8 n=70 v=0
292769 On ch=8 n=79 v=0
292769 On ch=8 n=88 v=0
292770 On ch=8 n=88 v=96
292770 On ch=8 n=79 v=96
292770 On ch=8 n=70 v=96
292799 On ch=8 n=70 v=0
292799 On ch=8 n=79 v=0
292799 On ch=8 n=88 v=0
292800 On ch=8 n=88 v=96
292800 On ch=8 n=79 v=96
292800 On ch=8 n=70 v=96
292829 On ch=8 n=70 v=0
292829 On ch=8 n=79 v=0
292829 On ch=8 n=88 v=0
292830 On ch=8 n=88 v=96
292830 On ch=8 n=79 v=96
292830 On ch=8 n=70 v=96
292859 On ch=8 n=70 v=0
292859 On ch=8 n=79 v=0
292859 On ch=8 n=88 v=0
292860 On ch=8 n=88 v=96
292860 On ch=8 n=79 v=96
292860 On ch=8 n=70 v=96
292889 On ch=8 n=70 v=0
292889 On ch=8 n=79 v=0
292889 On ch=8 n=88 v=0
292890 On ch=8 n=88 v=96
292890 On ch=8 n=79 v=96
292890 On ch=8 n=70 v=96
292919 On ch=8 n=70 v=0
292919 On ch=8 n=79 v=0
292919 On ch=8 n=88 v=0
292920 On ch=8 n=88 v=96
292920 On ch=8 n=79 v=96
292920 On ch=8 n=70 v=96
292949 On ch=8 n=70 v=0
292949 On ch=8 n=79 v=0
292949 On ch=8 n=88 v=0
292950 On ch=8 n=88 v=96
292950 On ch=8 n=79 v=96
292950 On ch=8 n=70 v=96
292979 On ch=8 n=70 v=0
292979 On ch=8 n=79 v=0
292979 On ch=8 n=88 v=0
292980 On ch=8 n=88 v=96
292980 On ch=8 n=79 v=96
292980 On ch=8 n=70 v=96
293009 On ch=8 n=70 v=0
293009 On ch=8 n=79 v=0
293009 On ch=8 n=88 v=0
293010 On ch=8 n=88 v=96
293010 On ch=8 n=79 v=96
293010 On ch=8 n=70 v=96
293039 On ch=8 n=70 v=0
293039 On ch=8 n=79 v=0
293039 On ch=8 n=88 v=0
293040 On ch=8 n=88 v=96
293040 On ch=8 n=79 v=96
293040 On ch=8 n=70 v=96
293069 On ch=8 n=70 v=0
293069 On ch=8 n=79 v=0
293069 On ch=8 n=88 v=0
293070 On ch=8 n=88 v=96
293070 On ch=8 n=79 v=96
293070 On ch=8 n=70 v=96
293099 On ch=8 n=70 v=0
293099 On ch=8 n=79 v=0
293099 On ch=8 n=88 v=0
293100 On ch=8 n=88 v=96
293100 On ch=8 n=79 v=96
293100 On ch=8 n=70 v=96
293129 On ch=8 n=70 v=0
293129 On ch=8 n=79 v=0
293129 On ch=8 n=88 v=0
293130 On ch=8 n=88 v=96
293130 On ch=8 n=79 v=96
293130 On ch=8 n=70 v=96
293159 On ch=8 n=70 v=0
293159 On ch=8 n=79 v=0
293159 On ch=8 n=88 v=0
293160 On ch=8 n=88 v=96
293160 On ch=8 n=79 v=96
293160 On ch=8 n=70 v=96
293189 On ch=8 n=70 v=0
293189 On ch=8 n=79 v=0
293189 On ch=8 n=88 v=0
293190 On ch=8 n=88 v=96
293190 On ch=8 n=79 v=96
293190 On ch=8 n=70 v=96
293219 On ch=8 n=70 v=0
293219 On ch=8 n=79 v=0
293219 On ch=8 n=88 v=0
293220 On ch=8 n=88 v=96
293220 On ch=8 n=79 v=96
293220 On ch=8 n=70 v=96
293249 On ch=8 n=70 v=0
293249 On ch=8 n=79 v=0
293249 On ch=8 n=88 v=0
293250 On ch=8 n=88 v=96
293250 On ch=8 n=79 v=96
293250 On ch=8 n=70 v=96
293279 On ch=8 n=70 v=0
293279 On ch=8 n=79 v=0
293279 On ch=8 n=88 v=0
293280 On ch=8 n=88 v=96
293280 On ch=8 n=79 v=96
293280 On ch=8 n=70 v=96
293309 On ch=8 n=70 v=0
293309 On ch=8 n=79 v=0
293309 On ch=8 n=88 v=0
293310 On ch=8 n=88 v=96
293310 On ch=8 n=79 v=96
293310 On ch=8 n=70 v=96
293339 On ch=8 n=70 v=0
293339 On ch=8 n=79 v=0
293339 On ch=8 n=88 v=0
293340 On ch=8 n=88 v=96
293340 On ch=8 n=79 v=96
293340 On ch=8 n=70 v=96
293369 On ch=8 n=70 v=0
293369 On ch=8 n=79 v=0
293369 On ch=8 n=88 v=0
293370 On ch=8 n=88 v=96
293370 On ch=8 n=79 v=96
293370 On ch=8 n=70 v=96
293399 On ch=8 n=70 v=0
293399 On ch=8 n=79 v=0
293399 On ch=8 n=88 v=0
293400 On ch=8 n=89 v=112
293400 On ch=8 n=77 v=112
293400 On ch=8 n=72 v=112
293429 On ch=8 n=72 v=0
293429 On ch=8 n=77 v=0
293429 On ch=8 n=89 v=0
293430 On ch=8 n=89 v=96
293430 On ch=8 n=77 v=96
293430 On ch=8 n=72 v=96
293459 On ch=8 n=72 v=0
293459 On ch=8 n=77 v=0
293459 On ch=8 n=89 v=0
293460 On ch=8 n=89 v=96
293460 On ch=8 n=77 v=96
293460 On ch=8 n=72 v=96
293489 On ch=8 n=72 v=0
293489 On ch=8 n=77 v=0
293489 On ch=8 n=89 v=0
293490 On ch=8 n=89 v=96
293490 On ch=8 n=77 v=96
293490 On ch=8 n=72 v=96
293519 On ch=8 n=72 v=0
293519 On ch=8 n=77 v=0
293519 On ch=8 n=89 v=0
293520 On ch=8 n=89 v=96
293520 On ch=8 n=77 v=96
293520 On ch=8 n=72 v=96
293549 On ch=8 n=72 v=0
293549 On ch=8 n=77 v=0
293549 On ch=8 n=89 v=0
293550 On ch=8 n=89 v=96
293550 On ch=8 n=77 v=96
293550 On ch=8 n=72 v=96
293579 On ch=8 n=72 v=0
293579 On ch=8 n=77 v=0
293579 On ch=8 n=89 v=0
293580 On ch=8 n=89 v=96
293580 On ch=8 n=77 v=96
293580 On ch=8 n=72 v=96
293609 On ch=8 n=72 v=0
293609 On ch=8 n=77 v=0
293609 On ch=8 n=89 v=0
293610 On ch=8 n=89 v=96
293610 On ch=8 n=77 v=96
293610 On ch=8 n=72 v=96
293639 On ch=8 n=72 v=0
293639 On ch=8 n=77 v=0
293639 On ch=8 n=89 v=0
293640 On ch=8 n=89 v=96
293640 On ch=8 n=77 v=96
293640 On ch=8 n=72 v=96
293669 On ch=8 n=72 v=0
293669 On ch=8 n=77 v=0
293669 On ch=8 n=89 v=0
293670 On ch=8 n=89 v=96
293670 On ch=8 n=77 v=96
293670 On ch=8 n=72 v=96
293699 On ch=8 n=72 v=0
293699 On ch=8 n=77 v=0
293699 On ch=8 n=89 v=0
293700 On ch=8 n=89 v=96
293700 On ch=8 n=77 v=96
293700 On ch=8 n=72 v=96
293729 On ch=8 n=72 v=0
293729 On ch=8 n=77 v=0
293729 On ch=8 n=89 v=0
293730 On ch=8 n=89 v=96
293730 On ch=8 n=77 v=96
293730 On ch=8 n=72 v=96
293759 On ch=8 n=72 v=0
293759 On ch=8 n=77 v=0
293759 On ch=8 n=89 v=0
293760 On ch=8 n=90 v=112
293760 On ch=8 n=84 v=112
293789 On ch=8 n=84 v=0
293789 On ch=8 n=90 v=0
293790 On ch=8 n=90 v=96
293790 On ch=8 n=84 v=96
293819 On ch=8 n=84 v=0
293819 On ch=8 n=90 v=0
293820 On ch=8 n=90 v=96
293820 On ch=8 n=84 v=96
293849 On ch=8 n=84 v=0
293849 On ch=8 n=90 v=0
293850 On ch=8 n=90 v=96
293850 On ch=8 n=84 v=96
293879 On ch=8 n=84 v=0
293879 On ch=8 n=90 v=0
293880 On ch=8 n=90 v=96
293880 On ch=8 n=84 v=96
293909 On ch=8 n=84 v=0
293909 On ch=8 n=90 v=0
293910 On ch=8 n=90 v=96
293910 On ch=8 n=84 v=96
293939 On ch=8 n=84 v=0
293939 On ch=8 n=90 v=0
293940 On ch=8 n=90 v=96
293940 On ch=8 n=84 v=96
293969 On ch=8 n=84 v=0
293969 On ch=8 n=90 v=0
293970 On ch=8 n=90 v=96
293970 On ch=8 n=84 v=96
293999 On ch=8 n=84 v=0
293999 On ch=8 n=90 v=0
294000 On ch=8 n=90 v=96
294000 On ch=8 n=84 v=96
294029 On ch=8 n=84 v=0
294029 On ch=8 n=90 v=0
294030 On ch=8 n=90 v=96
294030 On ch=8 n=84 v=96
294059 On ch=8 n=84 v=0
294059 On ch=8 n=90 v=0
294060 On ch=8 n=90 v=96
294060 On ch=8 n=84 v=96
294089 On ch=8 n=84 v=0
294089 On ch=8 n=90 v=0
294090 On ch=8 n=90 v=96
294090 On ch=8 n=84 v=96
294119 On ch=8 n=84 v=0
294119 On ch=8 n=90 v=0
294120 On ch=8 n=91 v=112
294120 On ch=8 n=75 v=112
294149 On ch=8 n=75 v=0
294149 On ch=8 n=91 v=0
294150 On ch=8 n=75 v=96
294150 On ch=8 n=91 v=96
294179 On ch=8 n=91 v=0
294179 On ch=8 n=75 v=0
294180 On ch=8 n=75 v=96
294180 On ch=8 n=91 v=96
294209 On ch=8 n=91 v=0
294209 On ch=8 n=75 v=0
294210 On ch=8 n=75 v=96
294210 On ch=8 n=91 v=96
294239 On ch=8 n=91 v=0
294239 On ch=8 n=75 v=0
294240 On ch=8 n=91 v=96
294240 On ch=8 n=75 v=96
294269 On ch=8 n=75 v=0
294269 On ch=8 n=91 v=0
294270 On ch=8 n=75 v=96
294270 On ch=8 n=91 v=96
294299 On ch=8 n=91 v=0
294299 On ch=8 n=75 v=0
294300 On ch=8 n=75 v=96
294300 On ch=8 n=91 v=96
294329 On ch=8 n=91 v=0
294329 On ch=8 n=75 v=0
294330 On ch=8 n=75 v=96
294330 On ch=8 n=91 v=96
294359 On ch=8 n=91 v=0
294359 On ch=8 n=75 v=0
294360 On ch=8 n=91 v=96
294360 On ch=8 n=75 v=96
294389 On ch=8 n=75 v=0
294389 On ch=8 n=91 v=0
294390 On ch=8 n=75 v=96
294390 On ch=8 n=91 v=96
294419 On ch=8 n=91 v=0
294419 On ch=8 n=75 v=0
294420 On ch=8 n=75 v=96
294420 On ch=8 n=91 v=96
294449 On ch=8 n=91 v=0
294449 On ch=8 n=75 v=0
294450 On ch=8 n=75 v=96
294450 On ch=8 n=91 v=96
294479 On ch=8 n=91 v=0
294479 On ch=8 n=75 v=0
294480 On ch=8 n=92 v=96
294480 On ch=8 n=77 v=96
294480 On ch=8 n=74 v=96
294509 On ch=8 n=74 v=0
294509 On ch=8 n=77 v=0
294509 On ch=8 n=92 v=0
294510 On ch=8 n=92 v=96
294510 On ch=8 n=77 v=96
294510 On ch=8 n=74 v=96
294539 On ch=8 n=74 v=0
294539 On ch=8 n=77 v=0
294539 On ch=8 n=92 v=0
294540 On ch=8 n=92 v=96
294540 On ch=8 n=77 v=96
294540 On ch=8 n=74 v=96
294569 On ch=8 n=74 v=0
294569 On ch=8 n=77 v=0
294569 On ch=8 n=92 v=0
294570 On ch=8 n=92 v=96
294570 On ch=8 n=77 v=96
294570 On ch=8 n=74 v=96
294599 On ch=8 n=74 v=0
294599 On ch=8 n=77 v=0
294599 On ch=8 n=92 v=0
294600 On ch=8 n=92 v=96
294600 On ch=8 n=77 v=96
294600 On ch=8 n=74 v=96
294629 On ch=8 n=74 v=0
294629 On ch=8 n=77 v=0
294629 On ch=8 n=92 v=0
294630 On ch=8 n=92 v=96
294630 On ch=8 n=77 v=96
294630 On ch=8 n=74 v=96
294659 On ch=8 n=74 v=0
294659 On ch=8 n=77 v=0
294659 On ch=8 n=92 v=0
294660 On ch=8 n=92 v=96
294660 On ch=8 n=77 v=96
294660 On ch=8 n=74 v=96
294689 On ch=8 n=74 v=0
294689 On ch=8 n=77 v=0
294689 On ch=8 n=92 v=0
294690 On ch=8 n=92 v=96
294690 On ch=8 n=77 v=96
294690 On ch=8 n=74 v=96
294719 On ch=8 n=74 v=0
294719 On ch=8 n=77 v=0
294719 On ch=8 n=92 v=0
294720 On ch=8 n=92 v=96
294720 On ch=8 n=77 v=96
294720 On ch=8 n=74 v=96
294749 On ch=8 n=74 v=0
294749 On ch=8 n=77 v=0
294749 On ch=8 n=92 v=0
294750 On ch=8 n=92 v=96
294750 On ch=8 n=77 v=96
294750 On ch=8 n=74 v=96
294779 On ch=8 n=74 v=0
294779 On ch=8 n=77 v=0
294779 On ch=8 n=92 v=0
294780 On ch=8 n=92 v=96
294780 On ch=8 n=77 v=96
294780 On ch=8 n=74 v=96
294809 On ch=8 n=74 v=0
294809 On ch=8 n=77 v=0
294809 On ch=8 n=92 v=0
294810 On ch=8 n=92 v=96
294810 On ch=8 n=77 v=96
294810 On ch=8 n=74 v=96
294839 On ch=8 n=74 v=0
294839 On ch=8 n=77 v=0
294839 On ch=8 n=92 v=0
294840 On ch=8 n=91 v=96
294840 On ch=8 n=75 v=96
294869 On ch=8 n=75 v=0
294869 On ch=8 n=91 v=0
294870 On ch=8 n=91 v=96
294870 On ch=8 n=75 v=96
294899 On ch=8 n=75 v=0
294899 On ch=8 n=91 v=0
294900 On ch=8 n=91 v=96
294900 On ch=8 n=75 v=96
294929 On ch=8 n=75 v=0
294929 On ch=8 n=91 v=0
294930 On ch=8 n=91 v=96
294930 On ch=8 n=75 v=96
294959 On ch=8 n=75 v=0
294959 On ch=8 n=91 v=0
294960 On ch=8 n=91 v=96
294960 On ch=8 n=75 v=96
294989 On ch=8 n=75 v=0
294989 On ch=8 n=91 v=0
294990 On ch=8 n=91 v=96
294990 On ch=8 n=75 v=96
295019 On ch=8 n=75 v=0
295019 On ch=8 n=91 v=0
295020 On ch=8 n=91 v=96
295020 On ch=8 n=75 v=96
295049 On ch=8 n=75 v=0
295049 On ch=8 n=91 v=0
295050 On ch=8 n=91 v=96
295050 On ch=8 n=75 v=96
295079 On ch=8 n=75 v=0
295079 On ch=8 n=91 v=0
295080 On ch=8 n=91 v=96
295080 On ch=8 n=75 v=96
295109 On ch=8 n=75 v=0
295109 On ch=8 n=91 v=0
295110 On ch=8 n=91 v=96
295110 On ch=8 n=75 v=96
295139 On ch=8 n=75 v=0
295139 On ch=8 n=91 v=0
295140 On ch=8 n=91 v=96
295140 On ch=8 n=75 v=96
295169 On ch=8 n=75 v=0
295169 On ch=8 n=91 v=0
295170 On ch=8 n=91 v=96
295170 On ch=8 n=75 v=96
295199 On ch=8 n=75 v=0
295199 On ch=8 n=91 v=0
295200 On ch=8 n=89 v=96
295200 On ch=8 n=80 v=96
295200 On ch=8 n=72 v=96
295229 On ch=8 n=72 v=0
295229 On ch=8 n=80 v=0
295229 On ch=8 n=89 v=0
295230 On ch=8 n=89 v=96
295230 On ch=8 n=80 v=96
295230 On ch=8 n=72 v=96
295259 On ch=8 n=72 v=0
295259 On ch=8 n=80 v=0
295259 On ch=8 n=89 v=0
295260 On ch=8 n=89 v=96
295260 On ch=8 n=80 v=96
295260 On ch=8 n=72 v=96
295289 On ch=8 n=72 v=0
295289 On ch=8 n=80 v=0
295289 On ch=8 n=89 v=0
295290 On ch=8 n=89 v=96
295290 On ch=8 n=80 v=96
295290 On ch=8 n=72 v=96
295319 On ch=8 n=72 v=0
295319 On ch=8 n=80 v=0
295319 On ch=8 n=89 v=0
295320 On ch=8 n=89 v=96
295320 On ch=8 n=80 v=96
295320 On ch=8 n=72 v=96
295349 On ch=8 n=72 v=0
295349 On ch=8 n=80 v=0
295349 On ch=8 n=89 v=0
295350 On ch=8 n=89 v=96
295350 On ch=8 n=80 v=96
295350 On ch=8 n=72 v=96
295379 On ch=8 n=72 v=0
295379 On ch=8 n=80 v=0
295379 On ch=8 n=89 v=0
295380 On ch=8 n=89 v=96
295380 On ch=8 n=80 v=96
295380 On ch=8 n=72 v=96
295409 On ch=8 n=72 v=0
295409 On ch=8 n=80 v=0
295409 On ch=8 n=89 v=0
295410 On ch=8 n=89 v=96
295410 On ch=8 n=80 v=96
295410 On ch=8 n=72 v=96
295439 On ch=8 n=72 v=0
295439 On ch=8 n=80 v=0
295439 On ch=8 n=89 v=0
295440 On ch=8 n=89 v=96
295440 On ch=8 n=80 v=96
295440 On ch=8 n=72 v=96
295469 On ch=8 n=72 v=0
295469 On ch=8 n=80 v=0
295469 On ch=8 n=89 v=0
295470 On ch=8 n=89 v=96
295470 On ch=8 n=80 v=96
295470 On ch=8 n=72 v=96
295499 On ch=8 n=72 v=0
295499 On ch=8 n=80 v=0
295499 On ch=8 n=89 v=0
295500 On ch=8 n=89 v=96
295500 On ch=8 n=80 v=96
295500 On ch=8 n=72 v=96
295529 On ch=8 n=72 v=0
295529 On ch=8 n=80 v=0
295529 On ch=8 n=89 v=0
295530 On ch=8 n=89 v=96
295530 On ch=8 n=80 v=96
295530 On ch=8 n=72 v=96
295559 On ch=8 n=72 v=0
295559 On ch=8 n=80 v=0
295559 On ch=8 n=89 v=0
295560 On ch=8 n=87 v=127
295560 On ch=8 n=79 v=127
295560 On ch=8 n=70 v=127
295589 On ch=8 n=70 v=0
295589 On ch=8 n=79 v=0
295589 On ch=8 n=87 v=0
295590 On ch=8 n=87 v=127
295590 On ch=8 n=79 v=127
295590 On ch=8 n=70 v=127
295619 On ch=8 n=70 v=0
295619 On ch=8 n=79 v=0
295619 On ch=8 n=87 v=0
295620 On ch=8 n=87 v=127
295620 On ch=8 n=79 v=127
295620 On ch=8 n=70 v=127
295649 On ch=8 n=70 v=0
295649 On ch=8 n=79 v=0
295649 On ch=8 n=87 v=0
295650 On ch=8 n=87 v=127
295650 On ch=8 n=79 v=127
295650 On ch=8 n=70 v=127
295679 On ch=8 n=70 v=0
295679 On ch=8 n=79 v=0
295679 On ch=8 n=87 v=0
295680 On ch=8 n=87 v=127
295680 On ch=8 n=79 v=127
295680 On ch=8 n=70 v=127
295709 On ch=8 n=70 v=0
295709 On ch=8 n=79 v=0
295709 On ch=8 n=87 v=0
295710 On ch=8 n=87 v=127
295710 On ch=8 n=79 v=127
295710 On ch=8 n=70 v=127
295739 On ch=8 n=70 v=0
295739 On ch=8 n=79 v=0
295739 On ch=8 n=87 v=0
295740 On ch=8 n=87 v=127
295740 On ch=8 n=79 v=127
295740 On ch=8 n=70 v=127
295769 On ch=8 n=70 v=0
295769 On ch=8 n=79 v=0
295769 On ch=8 n=87 v=0
295770 On ch=8 n=87 v=127
295770 On ch=8 n=79 v=127
295770 On ch=8 n=70 v=127
295799 On ch=8 n=70 v=0
295799 On ch=8 n=79 v=0
295799 On ch=8 n=87 v=0
295800 On ch=8 n=87 v=127
295800 On ch=8 n=79 v=127
295800 On ch=8 n=70 v=127
295829 On ch=8 n=70 v=0
295829 On ch=8 n=79 v=0
295829 On ch=8 n=87 v=0
295830 On ch=8 n=87 v=127
295830 On ch=8 n=79 v=127
295830 On ch=8 n=70 v=127
295859 On ch=8 n=70 v=0
295859 On ch=8 n=79 v=0
295859 On ch=8 n=87 v=0
295860 On ch=8 n=87 v=127
295860 On ch=8 n=79 v=127
295860 On ch=8 n=70 v=127
295889 On ch=8 n=70 v=0
295889 On ch=8 n=79 v=0
295889 On ch=8 n=87 v=0
295890 On ch=8 n=87 v=127
295890 On ch=8 n=79 v=127
295890 On ch=8 n=70 v=127
295919 On ch=8 n=70 v=0
295919 On ch=8 n=79 v=0
295919 On ch=8 n=87 v=0
295920 On ch=8 n=86 v=127
295920 On ch=8 n=77 v=127
295920 On ch=8 n=70 v=127
295949 On ch=8 n=70 v=0
295949 On ch=8 n=77 v=0
295949 On ch=8 n=86 v=0
295950 On ch=8 n=86 v=127
295950 On ch=8 n=77 v=127
295950 On ch=8 n=70 v=127
295979 On ch=8 n=70 v=0
295979 On ch=8 n=77 v=0
295979 On ch=8 n=86 v=0
295980 On ch=8 n=86 v=127
295980 On ch=8 n=77 v=127
295980 On ch=8 n=70 v=127
296009 On ch=8 n=70 v=0
296009 On ch=8 n=77 v=0
296009 On ch=8 n=86 v=0
296010 On ch=8 n=86 v=127
296010 On ch=8 n=77 v=127
296010 On ch=8 n=70 v=127
296039 On ch=8 n=70 v=0
296039 On ch=8 n=77 v=0
296039 On ch=8 n=86 v=0
296040 On ch=8 n=86 v=127
296040 On ch=8 n=77 v=127
296040 On ch=8 n=70 v=127
296069 On ch=8 n=70 v=0
296069 On ch=8 n=77 v=0
296069 On ch=8 n=86 v=0
296070 On ch=8 n=86 v=127
296070 On ch=8 n=77 v=127
296070 On ch=8 n=70 v=127
296099 On ch=8 n=70 v=0
296099 On ch=8 n=77 v=0
296099 On ch=8 n=86 v=0
296100 On ch=8 n=86 v=127
296100 On ch=8 n=77 v=127
296100 On ch=8 n=70 v=127
296129 On ch=8 n=70 v=0
296129 On ch=8 n=77 v=0
296129 On ch=8 n=86 v=0
296130 On ch=8 n=86 v=127
296130 On ch=8 n=77 v=127
296130 On ch=8 n=70 v=127
296159 On ch=8 n=70 v=0
296159 On ch=8 n=77 v=0
296159 On ch=8 n=86 v=0
296160 On ch=8 n=86 v=127
296160 On ch=8 n=77 v=127
296160 On ch=8 n=70 v=127
296189 On ch=8 n=70 v=0
296189 On ch=8 n=77 v=0
296189 On ch=8 n=86 v=0
296190 On ch=8 n=86 v=127
296190 On ch=8 n=77 v=127
296190 On ch=8 n=70 v=127
296219 On ch=8 n=70 v=0
296219 On ch=8 n=77 v=0
296219 On ch=8 n=86 v=0
296220 On ch=8 n=86 v=127
296220 On ch=8 n=77 v=127
296220 On ch=8 n=70 v=127
296249 On ch=8 n=70 v=0
296249 On ch=8 n=77 v=0
296249 On ch=8 n=86 v=0
296250 On ch=8 n=86 v=127
296250 On ch=8 n=77 v=127
296250 On ch=8 n=70 v=127
296279 On ch=8 n=70 v=0
296279 On ch=8 n=77 v=0
296279 On ch=8 n=86 v=0
296280 On ch=8 n=87 v=48
296280 On ch=8 n=79 v=48
296280 On ch=8 n=70 v=48
296399 On ch=8 n=70 v=0
296399 On ch=8 n=79 v=0
296399 On ch=8 n=87 v=0
296640 On ch=8 n=75 v=48
296640 On ch=8 n=63 v=48
297120 On ch=8 n=82 v=48
297120 On ch=8 n=70 v=48
297129 On ch=8 n=63 v=0
297129 On ch=8 n=75 v=0
297239 On ch=8 n=82 v=0
297239 On ch=8 n=70 v=0
297240 On ch=8 n=82 v=48
297240 On ch=8 n=70 v=48
297329 On ch=8 n=70 v=0
297329 On ch=8 n=82 v=0
297360 On ch=8 n=82 v=48
297360 On ch=8 n=70 v=48
297449 On ch=8 n=70 v=0
297449 On ch=8 n=82 v=0
297480 On ch=8 n=82 v=48
297480 On ch=8 n=70 v=48
297569 On ch=8 n=70 v=0
297569 On ch=8 n=82 v=0
297600 On ch=8 n=82 v=48
297600 On ch=8 n=70 v=48
297689 On ch=8 n=70 v=0
297689 On ch=8 n=82 v=0
297720 On ch=8 n=82 v=48
297720 On ch=8 n=70 v=48
297749 On ch=8 n=70 v=0
297749 On ch=8 n=82 v=0
297780 On ch=8 n=79 v=50
297780 On ch=8 n=75 v=50
297809 On ch=8 n=75 v=0
297809 On ch=8 n=79 v=0
297840 On ch=8 n=77 v=52
297840 On ch=8 n=74 v=52
297869 On ch=8 n=74 v=0
297869 On ch=8 n=77 v=0
297900 On ch=8 n=79 v=54
297900 On ch=8 n=75 v=54
297929 On ch=8 n=75 v=0
297929 On ch=8 n=79 v=0
297960 On ch=8 n=80 v=56
297960 On ch=8 n=77 v=56
297989 On ch=8 n=77 v=0
297989 On ch=8 n=80 v=0
298020 On ch=8 n=82 v=58
298020 On ch=8 n=79 v=58
298049 On ch=8 n=79 v=0
298049 On ch=8 n=82 v=0
298080 On ch=8 n=84 v=60
298080 On ch=8 n=80 v=60
298109 On ch=8 n=80 v=0
298109 On ch=8 n=84 v=0
298140 On ch=8 n=86 v=62
298140 On ch=8 n=82 v=62
298169 On ch=8 n=82 v=0
298169 On ch=8 n=86 v=0
298200 On ch=8 n=87 v=64
298200 On ch=8 n=84 v=64
298229 On ch=8 n=84 v=0
298229 On ch=8 n=87 v=0
298260 On ch=8 n=87 v=66
298260 On ch=8 n=75 v=66
298289 On ch=8 n=75 v=0
298289 On ch=8 n=87 v=0
298320 On ch=8 n=87 v=68
298320 On ch=8 n=74 v=68
298349 On ch=8 n=74 v=0
298349 On ch=8 n=87 v=0
298380 On ch=8 n=87 v=70
298380 On ch=8 n=72 v=70
298409 On ch=8 n=72 v=0
298409 On ch=8 n=87 v=0
298440 On ch=8 n=87 v=72
298440 On ch=8 n=70 v=72
298469 On ch=8 n=70 v=0
298469 On ch=8 n=87 v=0
298500 On ch=8 n=75 v=74
298500 On ch=8 n=67 v=74
298529 On ch=8 n=67 v=0
298529 On ch=8 n=75 v=0
298560 On ch=8 n=74 v=76
298560 On ch=8 n=65 v=76
298589 On ch=8 n=65 v=0
298589 On ch=8 n=74 v=0
298620 On ch=8 n=75 v=78
298620 On ch=8 n=67 v=78
298649 On ch=8 n=67 v=0
298649 On ch=8 n=75 v=0
298680 On ch=8 n=77 v=80
298680 On ch=8 n=74 v=80
298709 On ch=8 n=74 v=0
298709 On ch=8 n=77 v=0
298740 On ch=8 n=79 v=82
298740 On ch=8 n=75 v=82
298769 On ch=8 n=75 v=0
298769 On ch=8 n=79 v=0
298800 On ch=8 n=80 v=84
298800 On ch=8 n=77 v=84
298829 On ch=8 n=77 v=0
298829 On ch=8 n=80 v=0
298860 On ch=8 n=80 v=86
298860 On ch=8 n=77 v=86
298889 On ch=8 n=77 v=0
298889 On ch=8 n=80 v=0
298920 On ch=8 n=80 v=88
298920 On ch=8 n=77 v=88
298949 On ch=8 n=77 v=0
298949 On ch=8 n=80 v=0
298980 On ch=8 n=80 v=90
298980 On ch=8 n=77 v=90
299009 On ch=8 n=77 v=0
299009 On ch=8 n=80 v=0
299040 On ch=8 n=80 v=92
299040 On ch=8 n=77 v=92
299069 On ch=8 n=77 v=0
299069 On ch=8 n=80 v=0
299100 On ch=8 n=80 v=94
299100 On ch=8 n=77 v=94
299129 On ch=8 n=77 v=0
299129 On ch=8 n=80 v=0
299160 On ch=8 n=80 v=96
299160 On ch=8 n=77 v=96
299279 On ch=8 n=77 v=0
299279 On ch=8 n=80 v=0
299280 On ch=8 n=80 v=96
299280 On ch=8 n=68 v=96
299639 On ch=8 n=68 v=0
299639 On ch=8 n=80 v=0
299640 On ch=8 n=86 v=96
299640 On ch=8 n=74 v=96
299999 On ch=8 n=74 v=0
299999 On ch=8 n=86 v=0
300000 On ch=8 n=89 v=96
300000 On ch=8 n=77 v=96
300239 On ch=8 n=77 v=0
300239 On ch=8 n=89 v=0
300240 On ch=8 n=92 v=96
300240 On ch=8 n=80 v=96
300240 On ch=8 n=70 v=96
300479 On ch=8 n=70 v=0
300479 On ch=8 n=80 v=0
300479 On ch=8 n=92 v=0
300480 On ch=8 n=92 v=96
300480 On ch=8 n=80 v=96
300480 On ch=8 n=70 v=96
300539 On ch=8 n=70 v=0
300539 On ch=8 n=80 v=0
300539 On ch=8 n=92 v=0
300600 On ch=8 n=92 v=96
300600 On ch=8 n=80 v=96
300600 On ch=8 n=70 v=96
300659 On ch=8 n=70 v=0
300659 On ch=8 n=80 v=0
300659 On ch=8 n=92 v=0
300720 On ch=8 n=62 v=127
300720 On ch=8 n=56 v=127
300749 On ch=8 n=56 v=0
300749 On ch=8 n=62 v=0
300750 On ch=8 n=62 v=127
300750 On ch=8 n=56 v=127
300779 On ch=8 n=56 v=0
300779 On ch=8 n=62 v=0
300780 On ch=8 n=62 v=127
300780 On ch=8 n=56 v=127
300809 On ch=8 n=56 v=0
300809 On ch=8 n=62 v=0
300810 On ch=8 n=62 v=127
300810 On ch=8 n=56 v=127
300839 On ch=8 n=56 v=0
300839 On ch=8 n=62 v=0
300840 On ch=8 n=58 v=127
300840 On ch=8 n=56 v=127
300869 On ch=8 n=56 v=0
300869 On ch=8 n=58 v=0
300870 On ch=8 n=58 v=127
300870 On ch=8 n=56 v=127
300899 On ch=8 n=56 v=0
300899 On ch=8 n=58 v=0
300900 On ch=8 n=58 v=127
300900 On ch=8 n=56 v=127
300929 On ch=8 n=56 v=0
300929 On ch=8 n=58 v=0
300930 On ch=8 n=58 v=127
300930 On ch=8 n=56 v=127
300959 On ch=8 n=56 v=0
300959 On ch=8 n=58 v=0
300960 On ch=8 n=65 v=127
300960 On ch=8 n=56 v=127
300989 On ch=8 n=56 v=0
300989 On ch=8 n=65 v=0
300990 On ch=8 n=65 v=127
300990 On ch=8 n=56 v=127
301019 On ch=8 n=56 v=0
301019 On ch=8 n=65 v=0
301020 On ch=8 n=65 v=127
301020 On ch=8 n=56 v=127
301049 On ch=8 n=56 v=0
301049 On ch=8 n=65 v=0
301050 On ch=8 n=65 v=127
301050 On ch=8 n=56 v=127
301079 On ch=8 n=56 v=0
301079 On ch=8 n=65 v=0
301080 On ch=8 n=58 v=127
301080 On ch=8 n=56 v=127
301109 On ch=8 n=56 v=0
301109 On ch=8 n=58 v=0
301110 On ch=8 n=58 v=127
301110 On ch=8 n=56 v=127
301139 On ch=8 n=56 v=0
301139 On ch=8 n=58 v=0
301140 On ch=8 n=58 v=127
301140 On ch=8 n=56 v=127
301169 On ch=8 n=56 v=0
301169 On ch=8 n=58 v=0
301170 On ch=8 n=58 v=127
301170 On ch=8 n=56 v=127
301199 On ch=8 n=56 v=0
301199 On ch=8 n=58 v=0
301200 On ch=8 n=70 v=127
301200 On ch=8 n=56 v=127
301229 On ch=8 n=56 v=0
301229 On ch=8 n=70 v=0
301230 On ch=8 n=70 v=127
301230 On ch=8 n=56 v=127
301259 On ch=8 n=56 v=0
301259 On ch=8 n=70 v=0
301260 On ch=8 n=70 v=127
301260 On ch=8 n=56 v=127
301289 On ch=8 n=56 v=0
301289 On ch=8 n=70 v=0
301290 On ch=8 n=70 v=127
301290 On ch=8 n=56 v=127
301319 On ch=8 n=56 v=0
301319 On ch=8 n=70 v=0
301320 On ch=8 n=58 v=127
301320 On ch=8 n=56 v=127
301349 On ch=8 n=56 v=0
301349 On ch=8 n=58 v=0
301350 On ch=8 n=58 v=127
301350 On ch=8 n=56 v=127
301379 On ch=8 n=56 v=0
301379 On ch=8 n=58 v=0
301380 On ch=8 n=58 v=127
301380 On ch=8 n=56 v=127
301409 On ch=8 n=56 v=0
301409 On ch=8 n=58 v=0
301410 On ch=8 n=58 v=127
301410 On ch=8 n=56 v=127
301439 On ch=8 n=56 v=0
301439 On ch=8 n=58 v=0
301440 On ch=8 n=74 v=127
301440 On ch=8 n=56 v=127
301469 On ch=8 n=56 v=0
301469 On ch=8 n=74 v=0
301470 On ch=8 n=74 v=127
301470 On ch=8 n=56 v=127
301499 On ch=8 n=56 v=0
301499 On ch=8 n=74 v=0
301500 On ch=8 n=74 v=127
301500 On ch=8 n=56 v=127
301529 On ch=8 n=56 v=0
301529 On ch=8 n=74 v=0
301530 On ch=8 n=74 v=127
301530 On ch=8 n=56 v=127
301559 On ch=8 n=56 v=0
301559 On ch=8 n=74 v=0
301560 On ch=8 n=58 v=127
301560 On ch=8 n=56 v=127
301589 On ch=8 n=56 v=0
301589 On ch=8 n=58 v=0
301590 On ch=8 n=58 v=127
301590 On ch=8 n=56 v=127
301619 On ch=8 n=56 v=0
301619 On ch=8 n=58 v=0
301620 On ch=8 n=58 v=127
301620 On ch=8 n=56 v=127
301649 On ch=8 n=56 v=0
301649 On ch=8 n=58 v=0
301650 On ch=8 n=58 v=127
301650 On ch=8 n=56 v=127
301679 On ch=8 n=56 v=0
301679 On ch=8 n=58 v=0
301680 On ch=8 n=77 v=127
301680 On ch=8 n=56 v=127
301709 On ch=8 n=56 v=0
301709 On ch=8 n=77 v=0
301710 On ch=8 n=77 v=127
301710 On ch=8 n=56 v=127
301739 On ch=8 n=56 v=0
301739 On ch=8 n=77 v=0
301740 On ch=8 n=77 v=127
301740 On ch=8 n=56 v=127
301769 On ch=8 n=56 v=0
301769 On ch=8 n=77 v=0
301770 On ch=8 n=77 v=127
301770 On ch=8 n=56 v=127
301799 On ch=8 n=56 v=0
301799 On ch=8 n=77 v=0
301800 On ch=8 n=58 v=127
301800 On ch=8 n=56 v=127
301829 On ch=8 n=56 v=0
301829 On ch=8 n=58 v=0
301830 On ch=8 n=58 v=127
301830 On ch=8 n=56 v=127
301859 On ch=8 n=56 v=0
301859 On ch=8 n=58 v=0
301860 On ch=8 n=58 v=127
301860 On ch=8 n=56 v=127
301889 On ch=8 n=56 v=0
301889 On ch=8 n=58 v=0
301890 On ch=8 n=58 v=127
301890 On ch=8 n=56 v=127
301919 On ch=8 n=56 v=0
301919 On ch=8 n=58 v=0
301920 On ch=8 n=82 v=127
301920 On ch=8 n=74 v=127
301920 On ch=8 n=65 v=127
301949 On ch=8 n=65 v=0
301949 On ch=8 n=74 v=0
301949 On ch=8 n=82 v=0
301950 On ch=8 n=82 v=127
301950 On ch=8 n=74 v=127
301950 On ch=8 n=65 v=127
301979 On ch=8 n=65 v=0
301979 On ch=8 n=74 v=0
301979 On ch=8 n=82 v=0
301980 On ch=8 n=82 v=127
301980 On ch=8 n=74 v=127
301980 On ch=8 n=65 v=127
302009 On ch=8 n=65 v=0
302009 On ch=8 n=74 v=0
302009 On ch=8 n=82 v=0
302010 On ch=8 n=82 v=127
302010 On ch=8 n=74 v=127
302010 On ch=8 n=65 v=127
302039 On ch=8 n=65 v=0
302039 On ch=8 n=74 v=0
302039 On ch=8 n=82 v=0
302040 On ch=8 n=79 v=127
302040 On ch=8 n=67 v=127
302040 On ch=8 n=75 v=127
302159 On ch=8 n=75 v=0
302159 On ch=8 n=67 v=0
302159 On ch=8 n=79 v=0
302400 On ch=8 n=79 v=127
302400 On ch=8 n=70 v=127
302400 On ch=8 n=55 v=127
302400 On ch=8 n=63 v=127
302519 On ch=8 n=63 v=0
302519 On ch=8 n=79 v=0
302519 On ch=8 n=70 v=0
302519 On ch=8 n=55 v=0
302760 On ch=8 n=55 v=127
302760 On ch=8 n=63 v=127
302879 On ch=8 n=63 v=0
302879 On ch=8 n=55 v=0
0 PrCh ch=8 p=48
0 Par ch=8 c=7 v=127
0 Par ch=8 c=10 v=64
0 Par ch=8 c=93 v=0
0 Par ch=8 c=91 v=0
0 On ch=8 n=55 v=96
0 On ch=8 n=63 v=96
59 On ch=8 n=63 v=0
59 On ch=8 n=55 v=0
360 On ch=8 n=63 v=96
360 On ch=8 n=55 v=96
419 On ch=8 n=55 v=0
419 On ch=8 n=63 v=0
720 On ch=8 n=58 v=48
779 On ch=8 n=58 v=0
780 On ch=8 n=58 v=48
839 On ch=8 n=58 v=0
840 On ch=8 n=58 v=48
899 On ch=8 n=58 v=0
900 On ch=8 n=58 v=48
959 On ch=8 n=58 v=0
960 On ch=8 n=58 v=48
1019 On ch=8 n=58 v=0
1020 On ch=8 n=58 v=48
1079 On ch=8 n=58 v=0
1080 On ch=8 n=58 v=48
1139 On ch=8 n=58 v=0
1140 On ch=8 n=58 v=48
1199 On ch=8 n=58 v=0
1200 On ch=8 n=58 v=48
1259 On ch=8 n=58 v=0
1260 On ch=8 n=58 v=48
1319 On ch=8 n=58 v=0
1320 On ch=8 n=58 v=48
1379 On ch=8 n=58 v=0
1380 On ch=8 n=58 v=48
1439 On ch=8 n=58 v=0
1440 On ch=8 n=58 v=48
1499 On ch=8 n=58 v=0
1500 On ch=8 n=58 v=48
1559 On ch=8 n=58 v=0
1560 On ch=8 n=58 v=48
1619 On ch=8 n=58 v=0
1620 On ch=8 n=58 v=48
1679 On ch=8 n=58 v=0
1680 On ch=8 n=58 v=48
1739 On ch=8 n=58 v=0
1740 On ch=8 n=58 v=48
1799 On ch=8 n=58 v=0
1800 On ch=8 n=58 v=48
1859 On ch=8 n=58 v=0
1860 On ch=8 n=58 v=48
1919 On ch=8 n=58 v=0
1920 On ch=8 n=58 v=48
1979 On ch=8 n=58 v=0
1980 On ch=8 n=58 v=48
2039 On ch=8 n=58 v=0
2040 On ch=8 n=58 v=48
2099 On ch=8 n=58 v=0
2100 On ch=8 n=58 v=48
2159 On ch=8 n=58 v=0
2160 On ch=8 n=58 v=48
2219 On ch=8 n=58 v=0
2220 On ch=8 n=58 v=48
2279 On ch=8 n=58 v=0
2280 On ch=8 n=58 v=51
2339 On ch=8 n=58 v=0
2340 On ch=8 n=58 v=54
2399 On ch=8 n=58 v=0
2400 On ch=8 n=58 v=57
2459 On ch=8 n=58 v=0
2460 On ch=8 n=58 v=60
2519 On ch=8 n=58 v=0
2520 On ch=8 n=58 v=63
2579 On ch=8 n=58 v=0
2580 On ch=8 n=58 v=66
2639 On ch=8 n=58 v=0
2640 On ch=8 n=58 v=69
2699 On ch=8 n=58 v=0
2700 On ch=8 n=58 v=72
2759 On ch=8 n=58 v=0
2760 On ch=8 n=58 v=75
2819 On ch=8 n=58 v=0
2820 On ch=8 n=58 v=78
2879 On ch=8 n=58 v=0
2880 On ch=8 n=58 v=81
2999 On ch=8 n=58 v=0
3240 On ch=8 n=68 v=96
3839 On ch=8 n=68 v=0
3840 On ch=8 n=67 v=48
3960 On ch=8 n=65 v=48
3969 On ch=8 n=67 v=0
4080 On ch=8 n=67 v=48
4089 On ch=8 n=65 v=0
4200 On ch=8 n=68 v=48
4209 On ch=8 n=67 v=0
4320 On ch=8 n=67 v=48
4329 On ch=8 n=68 v=0
4380 On ch=8 n=70 v=48
4389 On ch=8 n=67 v=0
4440 On ch=8 n=68 v=48
4449 On ch=8 n=70 v=0
4500 On ch=8 n=67 v=48
4509 On ch=8 n=68 v=0
4560 On ch=8 n=65 v=48
4569 On ch=8 n=67 v=0
4620 On ch=8 n=63 v=48
4629 On ch=8 n=65 v=0
4679 On ch=8 n=63 v=0
4680 On ch=8 n=62 v=48
4740 On ch=8 n=58 v=48
4749 On ch=8 n=62 v=0
4800 On ch=8 n=63 v=48
4809 On ch=8 n=58 v=0
4860 On ch=8 n=58 v=48
4869 On ch=8 n=63 v=0
4920 On ch=8 n=57 v=48
4929 On ch=8 n=58 v=0
4980 On ch=8 n=53 v=48
4989 On ch=8 n=57 v=0
5039 On ch=8 n=53 v=0
5040 On ch=8 n=55 v=48
5069 On ch=8 n=55 v=0
5100 On ch=8 n=51 v=48
5100 On ch=8 n=55 v=48
5129 On ch=8 n=55 v=0
5129 On ch=8 n=51 v=0
5160 On ch=8 n=55 v=48
5160 On ch=8 n=51 v=48
5189 On ch=8 n=51 v=0
5189 On ch=8 n=55 v=0
5220 On ch=8 n=55 v=48
5220 On ch=8 n=51 v=48
5249 On ch=8 n=51 v=0
5249 On ch=8 n=55 v=0
5280 On ch=8 n=55 v=48
5280 On ch=8 n=51 v=48
5309 On ch=8 n=51 v=0
5309 On ch=8 n=55 v=0
5340 On ch=8 n=55 v=48
5340 On ch=8 n=51 v=48
5369 On ch=8 n=51 v=0
5369 On ch=8 n=55 v=0
5400 On ch=8 n=55 v=48
5400 On ch=8 n=51 v=48
5429 On ch=8 n=51 v=0
5429 On ch=8 n=55 v=0
5460 On ch=8 n=55 v=48
5460 On ch=8 n=51 v=48
5489 On ch=8 n=51 v=0
5489 On ch=8 n=55 v=0
5520 On ch=8 n=55 v=48
5520 On ch=8 n=51 v=48
5549 On ch=8 n=51 v=0
5549 On ch=8 n=55 v=0
5580 On ch=8 n=55 v=48
5580 On ch=8 n=51 v=48
5609 On ch=8 n=51 v=0
5609 On ch=8 n=55 v=0
5640 On ch=8 n=55 v=48
5640 On ch=8 n=51 v=48
5669 On ch=8 n=51 v=0
5669 On ch=8 n=55 v=0
5700 On ch=8 n=55 v=48
5700 On ch=8 n=51 v=48
5729 On ch=8 n=51 v=0
5729 On ch=8 n=55 v=0
5760 On ch=8 n=55 v=48
5760 On ch=8 n=51 v=48
5789 On ch=8 n=51 v=0
5789 On ch=8 n=55 v=0
5820 On ch=8 n=55 v=48
5820 On ch=8 n=51 v=48
5849 On ch=8 n=51 v=0
5849 On ch=8 n=55 v=0
5880 On ch=8 n=55 v=48
5880 On ch=8 n=51 v=48
5909 On ch=8 n=51 v=0
5909 On ch=8 n=55 v=0
5940 On ch=8 n=55 v=48
5940 On ch=8 n=51 v=48
5969 On ch=8 n=51 v=0
5969 On ch=8 n=55 v=0
6000 On ch=8 n=55 v=48
6000 On ch=8 n=51 v=48
6029 On ch=8 n=51 v=0
6029 On ch=8 n=55 v=0
6060 On ch=8 n=55 v=48
6060 On ch=8 n=51 v=48
6089 On ch=8 n=51 v=0
6089 On ch=8 n=55 v=0
6120 On ch=8 n=55 v=48
6179 On ch=8 n=55 v=0
6180 On ch=8 n=55 v=48
6239 On ch=8 n=55 v=0
6240 On ch=8 n=58 v=48
6240 On ch=8 n=55 v=48
6299 On ch=8 n=55 v=0
6299 On ch=8 n=58 v=0
6300 On ch=8 n=58 v=48
6300 On ch=8 n=55 v=48
6359 On ch=8 n=55 v=0
6359 On ch=8 n=58 v=0
6360 On ch=8 n=58 v=48
6360 On ch=8 n=55 v=48
6419 On ch=8 n=55 v=0
6419 On ch=8 n=58 v=0
6420 On ch=8 n=58 v=48
6420 On ch=8 n=55 v=48
6479 On ch=8 n=55 v=0
6479 On ch=8 n=58 v=0
6480 On ch=8 n=53 v=48
6480 On ch=8 n=56 v=48
6539 On ch=8 n=56 v=0
6539 On ch=8 n=53 v=0
6540 On ch=8 n=53 v=48
6540 On ch=8 n=56 v=48
6599 On ch=8 n=56 v=0
6599 On ch=8 n=53 v=0
6600 On ch=8 n=53 v=48
6600 On ch=8 n=56 v=48
6659 On ch=8 n=56 v=0
6659 On ch=8 n=53 v=0
6660 On ch=8 n=53 v=48
6660 On ch=8 n=56 v=48
6719 On ch=8 n=56 v=0
6719 On ch=8 n=53 v=0
6720 On ch=8 n=53 v=48
6720 On ch=8 n=56 v=48
6779 On ch=8 n=56 v=0
6779 On ch=8 n=53 v=0
6780 On ch=8 n=53 v=48
6780 On ch=8 n=56 v=48
6839 On ch=8 n=56 v=0
6839 On ch=8 n=53 v=0
6840 On ch=8 n=53 v=48
6840 On ch=8 n=56 v=48
6899 On ch=8 n=56 v=0
6899 On ch=8 n=53 v=0
6900 On ch=8 n=53 v=48
6900 On ch=8 n=56 v=48
6959 On ch=8 n=56 v=0
6959 On ch=8 n=53 v=0
6960 On ch=8 n=53 v=48
6960 On ch=8 n=56 v=48
7019 On ch=8 n=56 v=0
7019 On ch=8 n=53 v=0
7020 On ch=8 n=53 v=48
7020 On ch=8 n=56 v=48
7079 On ch=8 n=56 v=0
7079 On ch=8 n=53 v=0
7080 On ch=8 n=58 v=48
7080 On ch=8 n=61 v=48
7139 On ch=8 n=61 v=0
7139 On ch=8 n=58 v=0
7140 On ch=8 n=58 v=48
7140 On ch=8 n=61 v=48
7199 On ch=8 n=61 v=0
7199 On ch=8 n=58 v=0
7200 On ch=8 n=60 v=48
7200 On ch=8 n=56 v=48
7259 On ch=8 n=56 v=0
7259 On ch=8 n=60 v=0
7260 On ch=8 n=60 v=48
7260 On ch=8 n=56 v=48
7319 On ch=8 n=56 v=0
7319 On ch=8 n=60 v=0
7320 On ch=8 n=60 v=48
7320 On ch=8 n=56 v=48
7379 On ch=8 n=56 v=0
7379 On ch=8 n=60 v=0
7380 On ch=8 n=60 v=48
7380 On ch=8 n=56 v=48
7439 On ch=8 n=56 v=0
7439 On ch=8 n=60 v=0
7440 On ch=8 n=60 v=48
7440 On ch=8 n=56 v=48
7499 On ch=8 n=56 v=0
7499 On ch=8 n=60 v=0
7500 On ch=8 n=60 v=48
7500 On ch=8 n=56 v=48
7559 On ch=8 n=56 v=0
7559 On ch=8 n=60 v=0
7560 On ch=8 n=56 v=48
7560 On ch=8 n=60 v=48
7619 On ch=8 n=60 v=0
7619 On ch=8 n=56 v=0
7620 On ch=8 n=60 v=56
7679 On ch=8 n=60 v=0
7680 On ch=8 n=60 v=64
7739 On ch=8 n=60 v=0
7740 On ch=8 n=60 v=72
7799 On ch=8 n=60 v=0
7800 On ch=8 n=59 v=80
7859 On ch=8 n=59 v=0
7860 On ch=8 n=59 v=88
7919 On ch=8 n=59 v=0
7920 On ch=8 n=58 v=96
7949 On ch=8 n=58 v=0
7950 On ch=8 n=58 v=48
8399 On ch=8 n=58 v=0
8400 On ch=8 n=50 v=48
8520 On ch=8 n=53 v=48
8529 On ch=8 n=50 v=0
8639 On ch=8 n=53 v=0
8640 On ch=8 n=55 v=48
8699 On ch=8 n=55 v=0
8760 On ch=8 n=54 v=96
8999 On ch=8 n=54 v=0
9000 On ch=8 n=54 v=96
9239 On ch=8 n=54 v=0
9240 On ch=8 n=54 v=96
9359 On ch=8 n=54 v=0
9360 On ch=8 n=53 v=96
9419 On ch=8 n=53 v=0
9480 On ch=8 n=58 v=48
9840 On ch=8 n=50 v=48
9849 On ch=8 n=58 v=0
9959 On ch=8 n=50 v=0
9960 On ch=8 n=58 v=96
10080 On ch=8 n=56 v=90
10089 On ch=8 n=58 v=0
10139 On ch=8 n=56 v=0
10200 On ch=8 n=68 v=96
10439 On ch=8 n=68 v=0
10440 On ch=8 n=68 v=96
10679 On ch=8 n=68 v=0
10680 On ch=8 n=68 v=96
10919 On ch=8 n=68 v=0
10920 On ch=8 n=67 v=96
11159 On ch=8 n=67 v=0
11160 On ch=8 n=67 v=96
11399 On ch=8 n=67 v=0
11400 On ch=8 n=67 v=96
11639 On ch=8 n=67 v=0
11640 On ch=8 n=68 v=90
11699 On ch=8 n=68 v=0
11760 On ch=8 n=68 v=96
11999 On ch=8 n=68 v=0
12000 On ch=8 n=67 v=90
12059 On ch=8 n=67 v=0
12120 On ch=8 n=67 v=96
12240 On ch=8 n=62 v=96
12249 On ch=8 n=67 v=0
12269 On ch=8 n=62 v=0
12270 On ch=8 n=65 v=97
12299 On ch=8 n=65 v=0
12300 On ch=8 n=65 v=98
12329 On ch=8 n=65 v=0
12330 On ch=8 n=65 v=99
12359 On ch=8 n=65 v=0
12360 On ch=8 n=65 v=100
12389 On ch=8 n=65 v=0
12390 On ch=8 n=65 v=102
12419 On ch=8 n=65 v=0
12420 On ch=8 n=63 v=103
12449 On ch=8 n=63 v=0
12450 On ch=8 n=63 v=104
12479 On ch=8 n=63 v=0
12480 On ch=8 n=62 v=105
12509 On ch=8 n=62 v=0
12510 On ch=8 n=62 v=106
12539 On ch=8 n=62 v=0
12540 On ch=8 n=60 v=107
12569 On ch=8 n=60 v=0
12570 On ch=8 n=60 v=109
12599 On ch=8 n=60 v=0
12600 On ch=8 n=58 v=110
12629 On ch=8 n=58 v=0
12630 On ch=8 n=58 v=111
12659 On ch=8 n=58 v=0
12660 On ch=8 n=56 v=112
12689 On ch=8 n=56 v=0
12690 On ch=8 n=56 v=113
12719 On ch=8 n=56 v=0
12720 On ch=8 n=55 v=114
12749 On ch=8 n=55 v=0
12750 On ch=8 n=55 v=115
12779 On ch=8 n=55 v=0
12780 On ch=8 n=53 v=116
12809 On ch=8 n=53 v=0
12810 On ch=8 n=53 v=118
12839 On ch=8 n=53 v=0
12840 On ch=8 n=51 v=119
12869 On ch=8 n=51 v=0
12870 On ch=8 n=51 v=121
12899 On ch=8 n=51 v=0
12900 On ch=8 n=56 v=123
12929 On ch=8 n=56 v=0
12930 On ch=8 n=56 v=125
12959 On ch=8 n=56 v=0
12960 On ch=8 n=55 v=127
13080 On ch=8 n=63 v=127
13089 On ch=8 n=55 v=0
13200 On ch=8 n=67 v=127
13209 On ch=8 n=63 v=0
13319 On ch=8 n=67 v=0
13320 On ch=8 n=63 v=127
13560 On ch=8 n=58 v=127
13569 On ch=8 n=63 v=0
13679 On ch=8 n=58 v=0
13680 On ch=8 n=63 v=127
13800 On ch=8 n=55 v=48
13800 On ch=8 n=67 v=127
13809 On ch=8 n=63 v=0
13869 On ch=8 n=55 v=0
13920 On ch=8 n=70 v=127
13929 On ch=8 n=67 v=0
14039 On ch=8 n=70 v=0
14040 On ch=8 n=63 v=127
14279 On ch=8 n=63 v=0
14280 On ch=8 n=55 v=127
14399 On ch=8 n=55 v=0
14400 On ch=8 n=60 v=127
14520 On ch=8 n=63 v=127
14529 On ch=8 n=60 v=0
14640 On ch=8 n=67 v=127
14649 On ch=8 n=63 v=0
14759 On ch=8 n=67 v=0
14760 On ch=8 n=60 v=127
14999 On ch=8 n=60 v=0
15000 On ch=8 n=61 v=127
15029 On ch=8 n=61 v=0
15030 On ch=8 n=61 v=127
15059 On ch=8 n=61 v=0
15060 On ch=8 n=61 v=127
15089 On ch=8 n=61 v=0
15090 On ch=8 n=61 v=127
15119 On ch=8 n=61 v=0
15120 On ch=8 n=60 v=127
15149 On ch=8 n=60 v=0
15150 On ch=8 n=60 v=127
15179 On ch=8 n=60 v=0
15180 On ch=8 n=60 v=127
15209 On ch=8 n=60 v=0
15210 On ch=8 n=60 v=127
15239 On ch=8 n=60 v=0
15240 On ch=8 n=60 v=127
15269 On ch=8 n=60 v=0
15270 On ch=8 n=60 v=127
15299 On ch=8 n=60 v=0
15300 On ch=8 n=60 v=127
15329 On ch=8 n=60 v=0
15330 On ch=8 n=60 v=127
15359 On ch=8 n=60 v=0
15360 On ch=8 n=60 v=127
15389 On ch=8 n=60 v=0
15390 On ch=8 n=60 v=127
15419 On ch=8 n=60 v=0
15420 On ch=8 n=60 v=127
15449 On ch=8 n=60 v=0
15450 On ch=8 n=60 v=127
15479 On ch=8 n=60 v=0
15480 On ch=8 n=60 v=127
15509 On ch=8 n=60 v=0
15510 On ch=8 n=60 v=127
15539 On ch=8 n=60 v=0
15540 On ch=8 n=58 v=127
15569 On ch=8 n=58 v=0
15570 On ch=8 n=58 v=127
15599 On ch=8 n=58 v=0
15600 On ch=8 n=57 v=127
15629 On ch=8 n=57 v=0
15630 On ch=8 n=57 v=127
15659 On ch=8 n=57 v=0
15660 On ch=8 n=58 v=127
15689 On ch=8 n=58 v=0
15690 On ch=8 n=58 v=127
15719 On ch=8 n=58 v=0
15720 On ch=8 n=60 v=127
15749 On ch=8 n=60 v=0
15750 On ch=8 n=60 v=127
15779 On ch=8 n=60 v=0
15780 On ch=8 n=58 v=127
15809 On ch=8 n=58 v=0
15810 On ch=8 n=58 v=127
15839 On ch=8 n=58 v=0
15840 On ch=8 n=57 v=127
15869 On ch=8 n=57 v=0
15900 On ch=8 n=53 v=48
15960 On ch=8 n=57 v=48
15969 On ch=8 n=53 v=0
16020 On ch=8 n=53 v=48
16029 On ch=8 n=57 v=0
16080 On ch=8 n=57 v=48
16089 On ch=8 n=53 v=0
16140 On ch=8 n=53 v=48
16149 On ch=8 n=57 v=0
16199 On ch=8 n=53 v=0
16200 On ch=8 n=57 v=48
16260 On ch=8 n=53 v=48
16269 On ch=8 n=57 v=0
16320 On ch=8 n=57 v=48
16329 On ch=8 n=53 v=0
16380 On ch=8 n=53 v=48
16389 On ch=8 n=57 v=0
16440 On ch=8 n=57 v=48
16449 On ch=8 n=53 v=0
16500 On ch=8 n=53 v=48
16509 On ch=8 n=57 v=0
16559 On ch=8 n=53 v=0
16560 On ch=8 n=57 v=48
16620 On ch=8 n=53 v=48
16629 On ch=8 n=57 v=0
16680 On ch=8 n=57 v=48
16689 On ch=8 n=53 v=0
16740 On ch=8 n=53 v=48
16749 On ch=8 n=57 v=0
16800 On ch=8 n=57 v=48
16809 On ch=8 n=53 v=0
16860 On ch=8 n=53 v=48
16869 On ch=8 n=57 v=0
16919 On ch=8 n=53 v=0
16920 On ch=8 n=57 v=48
16980 On ch=8 n=53 v=48
16989 On ch=8 n=57 v=0
17040 On ch=8 n=57 v=48
17049 On ch=8 n=53 v=0
17100 On ch=8 n=53 v=48
17109 On ch=8 n=57 v=0
17160 On ch=8 n=57 v=48
17169 On ch=8 n=53 v=0
17220 On ch=8 n=53 v=48
17229 On ch=8 n=57 v=0
17279 On ch=8 n=53 v=0
17280 On ch=8 n=58 v=48
17340 On ch=8 n=53 v=48
17349 On ch=8 n=58 v=0
17400 On ch=8 n=58 v=48
17409 On ch=8 n=53 v=0
17460 On ch=8 n=53 v=48
17469 On ch=8 n=58 v=0
17520 On ch=8 n=58 v=48
17529 On ch=8 n=53 v=0
17580 On ch=8 n=53 v=48
17589 On ch=8 n=58 v=0
17639 On ch=8 n=53 v=0
17640 On ch=8 n=58 v=48
17700 On ch=8 n=53 v=48
17709 On ch=8 n=58 v=0
17760 On ch=8 n=58 v=48
17769 On ch=8 n=53 v=0
17820 On ch=8 n=53 v=48
17829 On ch=8 n=58 v=0
17880 On ch=8 n=58 v=48
17889 On ch=8 n=53 v=0
17940 On ch=8 n=53 v=48
17949 On ch=8 n=58 v=0
17999 On ch=8 n=53 v=0
18000 On ch=8 n=58 v=48
18060 On ch=8 n=53 v=48
18069 On ch=8 n=58 v=0
18120 On ch=8 n=58 v=48
18129 On ch=8 n=53 v=0
18180 On ch=8 n=53 v=48
18189 On ch=8 n=58 v=0
18240 On ch=8 n=58 v=48
18249 On ch=8 n=53 v=0
18300 On ch=8 n=53 v=48
18309 On ch=8 n=58 v=0
18359 On ch=8 n=53 v=0
18360 On ch=8 n=58 v=48
18420 On ch=8 n=53 v=48
18429 On ch=8 n=58 v=0
18480 On ch=8 n=58 v=48
18489 On ch=8 n=53 v=0
18540 On ch=8 n=53 v=48
18549 On ch=8 n=58 v=0
18600 On ch=8 n=58 v=48
18609 On ch=8 n=53 v=0
18660 On ch=8 n=53 v=48
18669 On ch=8 n=58 v=0
18719 On ch=8 n=53 v=0
18720 On ch=8 n=60 v=48
18839 On ch=8 n=60 v=0
19560 On ch=8 n=67 v=127
19739 On ch=8 n=67 v=0
19740 On ch=8 n=65 v=127
19799 On ch=8 n=65 v=0
19800 On ch=8 n=63 v=127
19859 On ch=8 n=63 v=0
19920 On ch=8 n=62 v=127
19979 On ch=8 n=62 v=0
20040 On ch=8 n=60 v=127
20099 On ch=8 n=60 v=0
20160 On ch=8 n=58 v=48
20400 On ch=8 n=57 v=51
20409 On ch=8 n=58 v=0
20460 On ch=8 n=56 v=53
20469 On ch=8 n=57 v=0
20520 On ch=8 n=55 v=56
20529 On ch=8 n=56 v=0
20640 On ch=8 n=53 v=52
20649 On ch=8 n=55 v=0
20760 On ch=8 n=51 v=48
20769 On ch=8 n=53 v=0
20879 On ch=8 n=51 v=0
20880 On ch=8 n=50 v=48
20909 On ch=8 n=50 v=0
20940 On ch=8 n=65 v=48
20969 On ch=8 n=65 v=0
21000 On ch=8 n=63 v=48
21029 On ch=8 n=63 v=0
21060 On ch=8 n=62 v=48
21089 On ch=8 n=62 v=0
21120 On ch=8 n=60 v=48
21149 On ch=8 n=60 v=0
21180 On ch=8 n=58 v=48
21209 On ch=8 n=58 v=0
21240 On ch=8 n=57 v=48
21269 On ch=8 n=57 v=0
21300 On ch=8 n=58 v=48
21329 On ch=8 n=58 v=0
21360 On ch=8 n=60 v=48
21389 On ch=8 n=60 v=0
21420 On ch=8 n=53 v=48
21449 On ch=8 n=53 v=0
21480 On ch=8 n=55 v=48
21509 On ch=8 n=55 v=0
21540 On ch=8 n=57 v=48
21569 On ch=8 n=57 v=0
21600 On ch=8 n=58 v=48
21629 On ch=8 n=58 v=0
21660 On ch=8 n=70 v=50
21689 On ch=8 n=70 v=0
21720 On ch=8 n=70 v=52
21749 On ch=8 n=70 v=0
21780 On ch=8 n=70 v=54
21840 On ch=8 n=69 v=56
21849 On ch=8 n=70 v=0
21900 On ch=8 n=68 v=58
21909 On ch=8 n=69 v=0
21959 On ch=8 n=68 v=0
21960 On ch=8 n=67 v=60
22020 On ch=8 n=65 v=62
22029 On ch=8 n=67 v=0
22079 On ch=8 n=65 v=0
22080 On ch=8 n=63 v=64
22109 On ch=8 n=63 v=0
22140 On ch=8 n=67 v=66
22169 On ch=8 n=67 v=0
22200 On ch=8 n=65 v=68
22229 On ch=8 n=65 v=0
22260 On ch=8 n=63 v=70
22289 On ch=8 n=63 v=0
22320 On ch=8 n=62 v=72
22349 On ch=8 n=62 v=0
22380 On ch=8 n=62 v=74
22409 On ch=8 n=62 v=0
22440 On ch=8 n=60 v=76
22469 On ch=8 n=60 v=0
22500 On ch=8 n=65 v=78
22529 On ch=8 n=65 v=0
22560 On ch=8 n=69 v=80
22589 On ch=8 n=69 v=0
22620 On ch=8 n=70 v=82
22649 On ch=8 n=70 v=0
22680 On ch=8 n=72 v=84
22709 On ch=8 n=72 v=0
22740 On ch=8 n=72 v=86
22769 On ch=8 n=72 v=0
22800 On ch=8 n=72 v=88
22829 On ch=8 n=72 v=0
22860 On ch=8 n=72 v=90
22889 On ch=8 n=72 v=0
22920 On ch=8 n=72 v=92
22949 On ch=8 n=72 v=0
22980 On ch=8 n=72 v=94
23009 On ch=8 n=72 v=0
23040 On ch=8 n=72 v=96
23099 On ch=8 n=72 v=0
23160 On ch=8 n=63 v=96
23160 On ch=8 n=60 v=96
23219 On ch=8 n=60 v=0
23219 On ch=8 n=63 v=0
23700 On ch=8 n=60 v=96
23729 On ch=8 n=60 v=0
23760 On ch=8 n=58 v=96
23819 On ch=8 n=58 v=0
23880 On ch=8 n=62 v=96
23880 On ch=8 n=58 v=96
23939 On ch=8 n=58 v=0
23939 On ch=8 n=62 v=0
24420 On ch=8 n=62 v=96
24449 On ch=8 n=62 v=0
24480 On ch=8 n=62 v=96
24539 On ch=8 n=62 v=0
24600 On ch=8 n=74 v=96
24659 On ch=8 n=74 v=0
25020 On ch=8 n=56 v=96
25049 On ch=8 n=56 v=0
25080 On ch=8 n=56 v=96
25109 On ch=8 n=56 v=0
25140 On ch=8 n=65 v=96
25169 On ch=8 n=65 v=0
25200 On ch=8 n=63 v=96
25229 On ch=8 n=63 v=0
25260 On ch=8 n=60 v=96
25379 On ch=8 n=60 v=0
25380 On ch=8 n=60 v=96
25409 On ch=8 n=60 v=0
25440 On ch=8 n=57 v=96
25469 On ch=8 n=57 v=0
25500 On ch=8 n=62 v=96
25529 On ch=8 n=62 v=0
25560 On ch=8 n=62 v=96
25589 On ch=8 n=62 v=0
25620 On ch=8 n=58 v=96
25739 On ch=8 n=58 v=0
25740 On ch=8 n=63 v=96
25769 On ch=8 n=63 v=0
25800 On ch=8 n=60 v=96
25829 On ch=8 n=60 v=0
25860 On ch=8 n=65 v=96
25889 On ch=8 n=65 v=0
25920 On ch=8 n=65 v=96
25979 On ch=8 n=65 v=0
25980 On ch=8 n=70 v=96
26039 On ch=8 n=70 v=0
26040 On ch=8 n=68 v=96
26099 On ch=8 n=68 v=0
26100 On ch=8 n=68 v=96
26159 On ch=8 n=68 v=0
26160 On ch=8 n=67 v=96
26219 On ch=8 n=67 v=0
26220 On ch=8 n=67 v=96
26279 On ch=8 n=67 v=0
26280 On ch=8 n=66 v=96
26339 On ch=8 n=66 v=0
26340 On ch=8 n=66 v=96
26399 On ch=8 n=66 v=0
26400 On ch=8 n=65 v=96
26459 On ch=8 n=65 v=0
26460 On ch=8 n=65 v=96
26519 On ch=8 n=65 v=0
26520 On ch=8 n=62 v=96
26579 On ch=8 n=62 v=0
26580 On ch=8 n=62 v=96
26639 On ch=8 n=62 v=0
26640 On ch=8 n=63 v=96
26669 On ch=8 n=63 v=0
26670 On ch=8 n=58 v=96
26699 On ch=8 n=58 v=0
26700 On ch=8 n=58 v=96
26729 On ch=8 n=58 v=0
26730 On ch=8 n=58 v=96
26759 On ch=8 n=58 v=0
26760 On ch=8 n=58 v=96
26789 On ch=8 n=58 v=0
26790 On ch=8 n=58 v=96
26819 On ch=8 n=58 v=0
26820 On ch=8 n=58 v=96
26849 On ch=8 n=58 v=0
26850 On ch=8 n=58 v=96
26879 On ch=8 n=58 v=0
26880 On ch=8 n=59 v=96
26909 On ch=8 n=59 v=0
26910 On ch=8 n=59 v=96
26939 On ch=8 n=59 v=0
26940 On ch=8 n=59 v=96
26969 On ch=8 n=59 v=0
26970 On ch=8 n=59 v=96
26999 On ch=8 n=59 v=0
27000 On ch=8 n=60 v=96
27029 On ch=8 n=60 v=0
27030 On ch=8 n=60 v=96
27059 On ch=8 n=60 v=0
27060 On ch=8 n=59 v=96
27089 On ch=8 n=59 v=0
27090 On ch=8 n=59 v=96
27119 On ch=8 n=59 v=0
27120 On ch=8 n=62 v=96
27149 On ch=8 n=62 v=0
27150 On ch=8 n=62 v=96
27179 On ch=8 n=62 v=0
27180 On ch=8 n=60 v=96
27209 On ch=8 n=60 v=0
27210 On ch=8 n=60 v=96
27239 On ch=8 n=60 v=0
27240 On ch=8 n=65 v=96
27269 On ch=8 n=65 v=0
27270 On ch=8 n=65 v=96
27299 On ch=8 n=65 v=0
27300 On ch=8 n=63 v=96
27329 On ch=8 n=63 v=0
27330 On ch=8 n=63 v=96
27359 On ch=8 n=63 v=0
27360 On ch=8 n=62 v=96
27389 On ch=8 n=62 v=0
27390 On ch=8 n=62 v=96
27419 On ch=8 n=62 v=0
27420 On ch=8 n=65 v=96
27449 On ch=8 n=65 v=0
27450 On ch=8 n=65 v=96
27479 On ch=8 n=65 v=0
27480 On ch=8 n=64 v=96
27509 On ch=8 n=64 v=0
27510 On ch=8 n=64 v=96
27539 On ch=8 n=64 v=0
27540 On ch=8 n=63 v=96
27569 On ch=8 n=63 v=0
27570 On ch=8 n=63 v=96
27599 On ch=8 n=63 v=0
27600 On ch=8 n=62 v=96
27629 On ch=8 n=62 v=0
27630 On ch=8 n=62 v=96
27659 On ch=8 n=62 v=0
27660 On ch=8 n=60 v=96
27689 On ch=8 n=60 v=0
27690 On ch=8 n=60 v=96
27719 On ch=8 n=60 v=0
27720 On ch=8 n=58 v=96
27749 On ch=8 n=58 v=0
27750 On ch=8 n=58 v=96
27779 On ch=8 n=58 v=0
27780 On ch=8 n=60 v=96
27809 On ch=8 n=60 v=0
27810 On ch=8 n=60 v=96
27839 On ch=8 n=60 v=0
27840 On ch=8 n=61 v=96
27869 On ch=8 n=61 v=0
27870 On ch=8 n=61 v=96
27899 On ch=8 n=61 v=0
27900 On ch=8 n=62 v=96
27929 On ch=8 n=62 v=0
27930 On ch=8 n=62 v=96
27959 On ch=8 n=62 v=0
27960 On ch=8 n=60 v=96
27989 On ch=8 n=60 v=0
27990 On ch=8 n=60 v=96
28019 On ch=8 n=60 v=0
28020 On ch=8 n=58 v=96
28049 On ch=8 n=58 v=0
28050 On ch=8 n=58 v=96
28079 On ch=8 n=58 v=0
28080 On ch=8 n=57 v=96
28109 On ch=8 n=57 v=0
28110 On ch=8 n=63 v=96
28110 On ch=8 n=60 v=96
28139 On ch=8 n=60 v=0
28139 On ch=8 n=63 v=0
28140 On ch=8 n=63 v=96
28140 On ch=8 n=60 v=96
28169 On ch=8 n=60 v=0
28169 On ch=8 n=63 v=0
28170 On ch=8 n=63 v=96
28170 On ch=8 n=60 v=96
28199 On ch=8 n=60 v=0
28199 On ch=8 n=63 v=0
28200 On ch=8 n=63 v=96
28200 On ch=8 n=60 v=96
28229 On ch=8 n=60 v=0
28229 On ch=8 n=63 v=0
28230 On ch=8 n=63 v=96
28230 On ch=8 n=60 v=96
28259 On ch=8 n=60 v=0
28259 On ch=8 n=63 v=0
28260 On ch=8 n=63 v=96
28260 On ch=8 n=60 v=96
28289 On ch=8 n=60 v=0
28289 On ch=8 n=63 v=0
28290 On ch=8 n=63 v=96
28290 On ch=8 n=60 v=96
28319 On ch=8 n=60 v=0
28319 On ch=8 n=63 v=0
28320 On ch=8 n=63 v=96
28320 On ch=8 n=60 v=96
28349 On ch=8 n=60 v=0
28349 On ch=8 n=63 v=0
28350 On ch=8 n=63 v=96
28350 On ch=8 n=60 v=96
28379 On ch=8 n=60 v=0
28379 On ch=8 n=63 v=0
28380 On ch=8 n=63 v=96
28380 On ch=8 n=60 v=96
28409 On ch=8 n=60 v=0
28409 On ch=8 n=63 v=0
28410 On ch=8 n=63 v=96
28410 On ch=8 n=60 v=96
28439 On ch=8 n=60 v=0
28439 On ch=8 n=63 v=0
28440 On ch=8 n=63 v=96
28440 On ch=8 n=60 v=96
28469 On ch=8 n=60 v=0
28469 On ch=8 n=63 v=0
28470 On ch=8 n=63 v=96
28470 On ch=8 n=60 v=96
28499 On ch=8 n=60 v=0
28499 On ch=8 n=63 v=0
28500 On ch=8 n=63 v=96
28500 On ch=8 n=60 v=96
28529 On ch=8 n=60 v=0
28529 On ch=8 n=63 v=0
28530 On ch=8 n=63 v=96
28530 On ch=8 n=60 v=96
28559 On ch=8 n=60 v=0
28559 On ch=8 n=63 v=0
28560 On ch=8 n=63 v=96
28560 On ch=8 n=60 v=96
28589 On ch=8 n=60 v=0
28589 On ch=8 n=63 v=0
28590 On ch=8 n=63 v=96
28590 On ch=8 n=60 v=96
28619 On ch=8 n=60 v=0
28619 On ch=8 n=63 v=0
28620 On ch=8 n=63 v=96
28620 On ch=8 n=60 v=96
28649 On ch=8 n=60 v=0
28649 On ch=8 n=63 v=0
28650 On ch=8 n=63 v=96
28650 On ch=8 n=60 v=96
28679 On ch=8 n=60 v=0
28679 On ch=8 n=63 v=0
28680 On ch=8 n=63 v=96
28680 On ch=8 n=60 v=96
28709 On ch=8 n=60 v=0
28709 On ch=8 n=63 v=0
28710 On ch=8 n=63 v=96
28710 On ch=8 n=60 v=96
28739 On ch=8 n=60 v=0
28739 On ch=8 n=63 v=0
28740 On ch=8 n=63 v=96
28740 On ch=8 n=60 v=96
28769 On ch=8 n=60 v=0
28769 On ch=8 n=63 v=0
28770 On ch=8 n=63 v=96
28770 On ch=8 n=60 v=96
28799 On ch=8 n=60 v=0
28799 On ch=8 n=63 v=0
28800 On ch=8 n=57 v=127
28829 On ch=8 n=57 v=0
28830 On ch=8 n=57 v=127
28859 On ch=8 n=57 v=0
28860 On ch=8 n=64 v=127
28889 On ch=8 n=64 v=0
28890 On ch=8 n=64 v=127
28919 On ch=8 n=64 v=0
28920 On ch=8 n=63 v=127
28949 On ch=8 n=63 v=0
28950 On ch=8 n=63 v=127
28979 On ch=8 n=63 v=0
28980 On ch=8 n=62 v=127
29009 On ch=8 n=62 v=0
29010 On ch=8 n=62 v=127
29039 On ch=8 n=62 v=0
29040 On ch=8 n=60 v=127
29069 On ch=8 n=60 v=0
29070 On ch=8 n=60 v=127
29099 On ch=8 n=60 v=0
29100 On ch=8 n=58 v=127
29129 On ch=8 n=58 v=0
29130 On ch=8 n=58 v=127
29159 On ch=8 n=58 v=0
29160 On ch=8 n=57 v=127
29189 On ch=8 n=57 v=0
29190 On ch=8 n=57 v=127
29219 On ch=8 n=57 v=0
29220 On ch=8 n=55 v=127
29249 On ch=8 n=55 v=0
29250 On ch=8 n=55 v=127
29279 On ch=8 n=55 v=0
29280 On ch=8 n=53 v=127
29309 On ch=8 n=53 v=0
29310 On ch=8 n=53 v=127
29339 On ch=8 n=53 v=0
29340 On ch=8 n=51 v=127
29369 On ch=8 n=51 v=0
29370 On ch=8 n=51 v=127
29399 On ch=8 n=51 v=0
29400 On ch=8 n=50 v=127
29429 On ch=8 n=50 v=0
29430 On ch=8 n=50 v=127
29459 On ch=8 n=50 v=0
29460 On ch=8 n=60 v=127
29489 On ch=8 n=60 v=0
29490 On ch=8 n=60 v=127
29519 On ch=8 n=60 v=0
29520 On ch=8 n=58 v=127
29639 On ch=8 n=58 v=0
31080 On ch=8 n=63 v=48
31169 On ch=8 n=63 v=0
31200 On ch=8 n=63 v=48
31289 On ch=8 n=63 v=0
31320 On ch=8 n=63 v=48
31409 On ch=8 n=63 v=0
31440 On ch=8 n=63 v=60
31529 On ch=8 n=63 v=0
31560 On ch=8 n=63 v=72
31649 On ch=8 n=63 v=0
31680 On ch=8 n=63 v=80
31799 On ch=8 n=63 v=0
31800 On ch=8 n=63 v=96
32039 On ch=8 n=63 v=0
32040 On ch=8 n=63 v=96
32340 On ch=8 n=60 v=56
32349 On ch=8 n=63 v=0
32400 On ch=8 n=62 v=48
32409 On ch=8 n=60 v=0
32519 On ch=8 n=62 v=0
34320 On ch=8 n=62 v=48
34409 On ch=8 n=62 v=0
34440 On ch=8 n=62 v=48
34529 On ch=8 n=62 v=0
34560 On ch=8 n=55 v=48
34919 On ch=8 n=55 v=0
35400 On ch=8 n=63 v=32
35400 On ch=8 n=60 v=32
35459 On ch=8 n=60 v=0
35459 On ch=8 n=63 v=0
35520 On ch=8 n=63 v=32
35520 On ch=8 n=60 v=32
35579 On ch=8 n=60 v=0
35579 On ch=8 n=63 v=0
35760 On ch=8 n=65 v=32
35760 On ch=8 n=62 v=32
35819 On ch=8 n=62 v=0
35819 On ch=8 n=65 v=0
35880 On ch=8 n=65 v=32
35939 On ch=8 n=65 v=0
36120 On ch=8 n=65 v=32
36179 On ch=8 n=65 v=0
36240 On ch=8 n=65 v=32
36299 On ch=8 n=65 v=0
36360 On ch=8 n=65 v=32
36419 On ch=8 n=65 v=0
36480 On ch=8 n=65 v=32
36539 On ch=8 n=65 v=0
36600 On ch=8 n=65 v=32
36659 On ch=8 n=65 v=0
36960 On ch=8 n=67 v=32
36989 On ch=8 n=67 v=0
37020 On ch=8 n=65 v=32
37049 On ch=8 n=65 v=0
37080 On ch=8 n=63 v=32
37109 On ch=8 n=63 v=0
37140 On ch=8 n=65 v=32
37169 On ch=8 n=65 v=0
37200 On ch=8 n=67 v=32
37229 On ch=8 n=67 v=0
37260 On ch=8 n=65 v=32
37289 On ch=8 n=65 v=0
37320 On ch=8 n=63 v=32
37349 On ch=8 n=63 v=0
37380 On ch=8 n=62 v=32
37409 On ch=8 n=62 v=0
37440 On ch=8 n=60 v=34
37469 On ch=8 n=60 v=0
37500 On ch=8 n=62 v=37
37529 On ch=8 n=62 v=0
37560 On ch=8 n=63 v=40
37589 On ch=8 n=63 v=0
37620 On ch=8 n=65 v=43
37649 On ch=8 n=65 v=0
37680 On ch=8 n=67 v=46
37709 On ch=8 n=67 v=0
37740 On ch=8 n=65 v=48
37769 On ch=8 n=65 v=0
37800 On ch=8 n=63 v=50
37829 On ch=8 n=63 v=0
37860 On ch=8 n=65 v=53
37889 On ch=8 n=65 v=0
37920 On ch=8 n=67 v=56
37949 On ch=8 n=67 v=0
37980 On ch=8 n=65 v=59
38009 On ch=8 n=65 v=0
38040 On ch=8 n=63 v=62
38069 On ch=8 n=63 v=0
38100 On ch=8 n=62 v=64
38129 On ch=8 n=62 v=0
38160 On ch=8 n=60 v=66
38189 On ch=8 n=60 v=0
38220 On ch=8 n=62 v=69
38249 On ch=8 n=62 v=0
38280 On ch=8 n=63 v=72
38309 On ch=8 n=63 v=0
38340 On ch=8 n=65 v=75
38369 On ch=8 n=65 v=0
38400 On ch=8 n=63 v=78
38429 On ch=8 n=63 v=0
38460 On ch=8 n=62 v=80
38489 On ch=8 n=62 v=0
38520 On ch=8 n=60 v=82
38549 On ch=8 n=60 v=0
38580 On ch=8 n=58 v=85
38609 On ch=8 n=58 v=0
38640 On ch=8 n=57 v=88
38669 On ch=8 n=57 v=0
38700 On ch=8 n=55 v=90
38729 On ch=8 n=55 v=0
38760 On ch=8 n=53 v=92
38789 On ch=8 n=53 v=0
38820 On ch=8 n=51 v=94
38849 On ch=8 n=51 v=0
38880 On ch=8 n=50 v=96
38909 On ch=8 n=50 v=0
38940 On ch=8 n=50 v=96
38969 On ch=8 n=50 v=0
39000 On ch=8 n=53 v=96
39029 On ch=8 n=53 v=0
39060 On ch=8 n=58 v=96
39089 On ch=8 n=58 v=0
39120 On ch=8 n=62 v=96
39149 On ch=8 n=62 v=0
39180 On ch=8 n=50 v=96
39209 On ch=8 n=50 v=0
39300 On ch=8 n=50 v=96
39329 On ch=8 n=50 v=0
39360 On ch=8 n=53 v=112
39389 On ch=8 n=53 v=0
39420 On ch=8 n=58 v=96
39449 On ch=8 n=58 v=0
39480 On ch=8 n=62 v=96
39509 On ch=8 n=62 v=0
39540 On ch=8 n=50 v=96
39569 On ch=8 n=50 v=0
39660 On ch=8 n=51 v=96
39689 On ch=8 n=51 v=0
39720 On ch=8 n=53 v=112
39749 On ch=8 n=53 v=0
39780 On ch=8 n=57 v=96
39809 On ch=8 n=57 v=0
39840 On ch=8 n=60 v=96
39869 On ch=8 n=60 v=0
39900 On ch=8 n=51 v=96
39929 On ch=8 n=51 v=0
40020 On ch=8 n=50 v=96
40049 On ch=8 n=50 v=0
40080 On ch=8 n=57 v=112
40109 On ch=8 n=57 v=0
40140 On ch=8 n=60 v=96
40169 On ch=8 n=60 v=0
40200 On ch=8 n=63 v=96
40229 On ch=8 n=63 v=0
40260 On ch=8 n=51 v=96
40289 On ch=8 n=51 v=0
40320 On ch=8 n=50 v=127
40379 On ch=8 n=50 v=0
40380 On ch=8 n=50 v=127
40409 On ch=8 n=50 v=0
40410 On ch=8 n=50 v=127
40439 On ch=8 n=50 v=0
40440 On ch=8 n=53 v=127
40469 On ch=8 n=53 v=0
40470 On ch=8 n=53 v=127
40499 On ch=8 n=53 v=0
40500 On ch=8 n=58 v=127
40529 On ch=8 n=58 v=0
40530 On ch=8 n=58 v=127
40559 On ch=8 n=58 v=0
40560 On ch=8 n=62 v=127
40589 On ch=8 n=62 v=0
40590 On ch=8 n=62 v=127
40619 On ch=8 n=62 v=0
40620 On ch=8 n=50 v=127
40649 On ch=8 n=50 v=0
40650 On ch=8 n=50 v=127
40679 On ch=8 n=50 v=0
40740 On ch=8 n=50 v=127
40769 On ch=8 n=50 v=0
40770 On ch=8 n=50 v=127
40799 On ch=8 n=50 v=0
40800 On ch=8 n=53 v=127
40829 On ch=8 n=53 v=0
40830 On ch=8 n=53 v=127
40859 On ch=8 n=53 v=0
40860 On ch=8 n=58 v=127
40889 On ch=8 n=58 v=0
40890 On ch=8 n=58 v=127
40919 On ch=8 n=58 v=0
40920 On ch=8 n=62 v=127
40949 On ch=8 n=62 v=0
40950 On ch=8 n=62 v=127
40979 On ch=8 n=62 v=0
40980 On ch=8 n=50 v=127
41009 On ch=8 n=50 v=0
41010 On ch=8 n=50 v=127
41039 On ch=8 n=50 v=0
41100 On ch=8 n=51 v=127
41129 On ch=8 n=51 v=0
41130 On ch=8 n=51 v=127
41159 On ch=8 n=51 v=0
41160 On ch=8 n=53 v=127
41189 On ch=8 n=53 v=0
41190 On ch=8 n=53 v=127
41219 On ch=8 n=53 v=0
41220 On ch=8 n=60 v=127
41249 On ch=8 n=60 v=0
41250 On ch=8 n=60 v=127
41279 On ch=8 n=60 v=0
41280 On ch=8 n=63 v=127
41309 On ch=8 n=63 v=0
41310 On ch=8 n=63 v=127
41339 On ch=8 n=63 v=0
41340 On ch=8 n=51 v=127
41369 On ch=8 n=51 v=0
41370 On ch=8 n=51 v=127
41399 On ch=8 n=51 v=0
41460 On ch=8 n=51 v=127
41489 On ch=8 n=51 v=0
41490 On ch=8 n=51 v=127
41519 On ch=8 n=51 v=0
41520 On ch=8 n=53 v=127
41549 On ch=8 n=53 v=0
41550 On ch=8 n=53 v=127
41579 On ch=8 n=53 v=0
41580 On ch=8 n=57 v=127
41609 On ch=8 n=57 v=0
41610 On ch=8 n=57 v=127
41639 On ch=8 n=57 v=0
41640 On ch=8 n=60 v=127
41669 On ch=8 n=60 v=0
41670 On ch=8 n=60 v=127
41699 On ch=8 n=60 v=0
41700 On ch=8 n=57 v=127
41729 On ch=8 n=57 v=0
41730 On ch=8 n=57 v=127
41759 On ch=8 n=57 v=0
41760 On ch=8 n=65 v=127
41760 On ch=8 n=58 v=127
41879 On ch=8 n=58 v=0
41879 On ch=8 n=65 v=0
42300 On ch=8 n=51 v=127
42329 On ch=8 n=51 v=0
42330 On ch=8 n=51 v=127
42359 On ch=8 n=51 v=0
42360 On ch=8 n=52 v=127
42389 On ch=8 n=52 v=0
42390 On ch=8 n=52 v=127
42419 On ch=8 n=52 v=0
42420 On ch=8 n=53 v=127
42449 On ch=8 n=53 v=0
42450 On ch=8 n=53 v=127
42479 On ch=8 n=53 v=0
42480 On ch=8 n=55 v=127
42509 On ch=8 n=55 v=0
42510 On ch=8 n=55 v=127
42539 On ch=8 n=55 v=0
42540 On ch=8 n=53 v=127
42569 On ch=8 n=53 v=0
42570 On ch=8 n=53 v=127
42599 On ch=8 n=53 v=0
42600 On ch=8 n=51 v=127
42629 On ch=8 n=51 v=0
42630 On ch=8 n=51 v=127
42659 On ch=8 n=51 v=0
42660 On ch=8 n=55 v=127
42689 On ch=8 n=55 v=0
42690 On ch=8 n=55 v=127
42719 On ch=8 n=55 v=0
42720 On ch=8 n=48 v=127
42749 On ch=8 n=48 v=0
42750 On ch=8 n=48 v=127
42779 On ch=8 n=48 v=0
42780 On ch=8 n=55 v=127
42809 On ch=8 n=55 v=0
42810 On ch=8 n=55 v=127
42839 On ch=8 n=55 v=0
42840 On ch=8 n=54 v=127
42869 On ch=8 n=54 v=0
42870 On ch=8 n=54 v=127
42899 On ch=8 n=54 v=0
42900 On ch=8 n=57 v=127
42929 On ch=8 n=57 v=0
42930 On ch=8 n=57 v=127
42959 On ch=8 n=57 v=0
42960 On ch=8 n=50 v=127
42989 On ch=8 n=50 v=0
42990 On ch=8 n=50 v=127
43019 On ch=8 n=50 v=0
43020 On ch=8 n=56 v=127
43049 On ch=8 n=56 v=0
43050 On ch=8 n=56 v=127
43079 On ch=8 n=56 v=0
43080 On ch=8 n=55 v=127
43109 On ch=8 n=55 v=0
43110 On ch=8 n=55 v=127
43139 On ch=8 n=55 v=0
43140 On ch=8 n=58 v=127
43169 On ch=8 n=58 v=0
43170 On ch=8 n=58 v=127
43199 On ch=8 n=58 v=0
43200 On ch=8 n=51 v=127
43229 On ch=8 n=51 v=0
43230 On ch=8 n=51 v=127
43259 On ch=8 n=51 v=0
43260 On ch=8 n=58 v=127
43289 On ch=8 n=58 v=0
43290 On ch=8 n=58 v=127
43319 On ch=8 n=58 v=0
43320 On ch=8 n=57 v=127
43349 On ch=8 n=57 v=0
43350 On ch=8 n=57 v=127
43379 On ch=8 n=57 v=0
43380 On ch=8 n=60 v=127
43409 On ch=8 n=60 v=0
43410 On ch=8 n=60 v=127
43439 On ch=8 n=60 v=0
43440 On ch=8 n=53 v=127
43469 On ch=8 n=53 v=0
43470 On ch=8 n=53 v=127
43499 On ch=8 n=53 v=0
43500 On ch=8 n=60 v=127
43529 On ch=8 n=60 v=0
43530 On ch=8 n=60 v=127
43559 On ch=8 n=60 v=0
43560 On ch=8 n=58 v=127
43589 On ch=8 n=58 v=0
43590 On ch=8 n=58 v=127
43619 On ch=8 n=58 v=0
43620 On ch=8 n=62 v=127
43649 On ch=8 n=62 v=0
43650 On ch=8 n=62 v=127
43679 On ch=8 n=62 v=0
43680 On ch=8 n=55 v=127
43709 On ch=8 n=55 v=0
43710 On ch=8 n=67 v=127
43739 On ch=8 n=67 v=0
43740 On ch=8 n=67 v=127
43769 On ch=8 n=67 v=0
43770 On ch=8 n=67 v=127
43799 On ch=8 n=67 v=0
43800 On ch=8 n=67 v=127
43829 On ch=8 n=67 v=0
43830 On ch=8 n=67 v=127
43859 On ch=8 n=67 v=0
43860 On ch=8 n=67 v=127
43889 On ch=8 n=67 v=0
43890 On ch=8 n=67 v=127
43919 On ch=8 n=67 v=0
43920 On ch=8 n=66 v=127
43979 On ch=8 n=66 v=0
44040 On ch=8 n=66 v=127
44099 On ch=8 n=66 v=0
44160 On ch=8 n=67 v=127
44219 On ch=8 n=67 v=0
44400 On ch=8 n=62 v=127
44459 On ch=8 n=62 v=0
44520 On ch=8 n=63 v=127
44579 On ch=8 n=63 v=0
44760 On ch=8 n=64 v=127
44819 On ch=8 n=64 v=0
44880 On ch=8 n=65 v=127
44939 On ch=8 n=65 v=0
45120 On ch=8 n=66 v=127
45179 On ch=8 n=66 v=0
45240 On ch=8 n=67 v=127
45299 On ch=8 n=67 v=0
45480 On ch=8 n=62 v=127
45539 On ch=8 n=62 v=0
45600 On ch=8 n=63 v=127
45659 On ch=8 n=63 v=0
45840 On ch=8 n=64 v=127
45899 On ch=8 n=64 v=0
46080 On ch=8 n=64 v=127
46139 On ch=8 n=64 v=0
46320 On ch=8 n=64 v=127
46379 On ch=8 n=64 v=0
46560 On ch=8 n=64 v=127
46619 On ch=8 n=64 v=0
46800 On ch=8 n=64 v=127
46859 On ch=8 n=64 v=0
47040 On ch=8 n=64 v=127
47099 On ch=8 n=64 v=0
47160 On ch=8 n=53 v=48
47280 On ch=8 n=58 v=48
47289 On ch=8 n=53 v=0
47400 On ch=8 n=62 v=48
47409 On ch=8 n=58 v=0
47519 On ch=8 n=62 v=0
47520 On ch=8 n=54 v=96
47549 On ch=8 n=54 v=0
47550 On ch=8 n=54 v=48
47879 On ch=8 n=54 v=0
47880 On ch=8 n=53 v=48
48000 On ch=8 n=58 v=48
48009 On ch=8 n=53 v=0
48120 On ch=8 n=62 v=48
48129 On ch=8 n=58 v=0
48239 On ch=8 n=62 v=0
48240 On ch=8 n=55 v=96
48269 On ch=8 n=55 v=0
48270 On ch=8 n=55 v=48
48719 On ch=8 n=55 v=0
48780 On ch=8 n=58 v=48
48809 On ch=8 n=58 v=0
48840 On ch=8 n=55 v=48
48869 On ch=8 n=55 v=0
48900 On ch=8 n=51 v=48
48929 On ch=8 n=51 v=0
48960 On ch=8 n=60 v=48
49079 On ch=8 n=60 v=0
49140 On ch=8 n=60 v=48
49169 On ch=8 n=60 v=0
49200 On ch=8 n=56 v=48
49229 On ch=8 n=56 v=0
49260 On ch=8 n=51 v=48
49289 On ch=8 n=51 v=0
49320 On ch=8 n=60 v=48
49439 On ch=8 n=60 v=0
49500 On ch=8 n=60 v=48
49529 On ch=8 n=60 v=0
49560 On ch=8 n=57 v=48
49589 On ch=8 n=57 v=0
49620 On ch=8 n=53 v=48
49649 On ch=8 n=53 v=0
49680 On ch=8 n=62 v=48
49799 On ch=8 n=62 v=0
49860 On ch=8 n=58 v=48
49889 On ch=8 n=58 v=0
49920 On ch=8 n=65 v=48
49949 On ch=8 n=65 v=0
49980 On ch=8 n=62 v=48
50009 On ch=8 n=62 v=0
50040 On ch=8 n=63 v=48
50099 On ch=8 n=63 v=0
50100 On ch=8 n=51 v=52
50159 On ch=8 n=51 v=0
50160 On ch=8 n=63 v=57
50219 On ch=8 n=63 v=0
50220 On ch=8 n=63 v=61
50279 On ch=8 n=63 v=0
50280 On ch=8 n=63 v=66
50339 On ch=8 n=63 v=0
50340 On ch=8 n=63 v=70
50399 On ch=8 n=63 v=0
50400 On ch=8 n=55 v=75
50459 On ch=8 n=55 v=0
50460 On ch=8 n=55 v=79
50519 On ch=8 n=55 v=0
50520 On ch=8 n=55 v=84
50579 On ch=8 n=55 v=0
50580 On ch=8 n=55 v=88
50640 On ch=8 n=59 v=93
50649 On ch=8 n=55 v=0
50700 On ch=8 n=60 v=97
50709 On ch=8 n=59 v=0
50759 On ch=8 n=60 v=0
50760 On ch=8 n=65 v=99
50789 On ch=8 n=65 v=0
50790 On ch=8 n=65 v=100
50819 On ch=8 n=65 v=0
50820 On ch=8 n=65 v=102
50849 On ch=8 n=65 v=0
50850 On ch=8 n=65 v=104
50879 On ch=8 n=65 v=0
50880 On ch=8 n=65 v=106
50909 On ch=8 n=65 v=0
50910 On ch=8 n=65 v=107
50939 On ch=8 n=65 v=0
50940 On ch=8 n=65 v=109
50969 On ch=8 n=65 v=0
50970 On ch=8 n=65 v=111
50999 On ch=8 n=65 v=0
51000 On ch=8 n=62 v=113
51029 On ch=8 n=62 v=0
51030 On ch=8 n=62 v=114
51059 On ch=8 n=62 v=0
51060 On ch=8 n=58 v=116
51089 On ch=8 n=58 v=0
51090 On ch=8 n=58 v=118
51119 On ch=8 n=58 v=0
51120 On ch=8 n=57 v=127
51149 On ch=8 n=57 v=0
51150 On ch=8 n=69 v=127
51179 On ch=8 n=69 v=0
51180 On ch=8 n=69 v=127
51209 On ch=8 n=69 v=0
51210 On ch=8 n=69 v=127
51239 On ch=8 n=69 v=0
51240 On ch=8 n=69 v=127
51269 On ch=8 n=69 v=0
51270 On ch=8 n=69 v=127
51299 On ch=8 n=69 v=0
51300 On ch=8 n=69 v=127
51329 On ch=8 n=69 v=0
51330 On ch=8 n=69 v=127
51359 On ch=8 n=69 v=0
51360 On ch=8 n=69 v=127
51389 On ch=8 n=69 v=0
51390 On ch=8 n=69 v=127
51419 On ch=8 n=69 v=0
51420 On ch=8 n=69 v=127
51449 On ch=8 n=69 v=0
51450 On ch=8 n=69 v=127
51479 On ch=8 n=69 v=0
51480 On ch=8 n=70 v=96
51539 On ch=8 n=70 v=0
51600 On ch=8 n=53 v=96
51659 On ch=8 n=53 v=0
51720 On ch=8 n=50 v=96
51779 On ch=8 n=50 v=0
51960 On ch=8 n=55 v=112
52019 On ch=8 n=55 v=0
52080 On ch=8 n=51 v=96
52139 On ch=8 n=51 v=0
52320 On ch=8 n=53 v=112
52379 On ch=8 n=53 v=0
52440 On ch=8 n=50 v=96
52499 On ch=8 n=50 v=0
52560 On ch=8 n=63 v=96
52560 On ch=8 n=60 v=96
52619 On ch=8 n=60 v=0
52619 On ch=8 n=63 v=0
52680 On ch=8 n=60 v=96
52680 On ch=8 n=63 v=96
52739 On ch=8 n=63 v=0
52739 On ch=8 n=60 v=0
52800 On ch=8 n=63 v=96
52800 On ch=8 n=60 v=96
52859 On ch=8 n=60 v=0
52859 On ch=8 n=63 v=0
52920 On ch=8 n=60 v=96
52920 On ch=8 n=63 v=96
52949 On ch=8 n=63 v=0
52949 On ch=8 n=60 v=0
52950 On ch=8 n=63 v=48
52950 On ch=8 n=60 v=48
52979 On ch=8 n=60 v=0
52979 On ch=8 n=63 v=0
53520 On ch=8 n=50 v=48
53580 On ch=8 n=53 v=48
53589 On ch=8 n=50 v=0
53639 On ch=8 n=53 v=0
53640 On ch=8 n=56 v=48
53880 On ch=8 n=60 v=44
53889 On ch=8 n=56 v=0
54000 On ch=8 n=56 v=40
54009 On ch=8 n=60 v=0
54240 On ch=8 n=53 v=36
54249 On ch=8 n=56 v=0
54359 On ch=8 n=53 v=0
54360 On ch=8 n=50 v=32
54600 On ch=8 n=59 v=32
54609 On ch=8 n=50 v=0
54720 On ch=8 n=57 v=32
54729 On ch=8 n=59 v=0
54960 On ch=8 n=58 v=64
54969 On ch=8 n=57 v=0
54989 On ch=8 n=58 v=0
54990 On ch=8 n=58 v=48
55080 On ch=8 n=51 v=48
55089 On ch=8 n=58 v=0
55139 On ch=8 n=51 v=0
55140 On ch=8 n=58 v=48
55169 On ch=8 n=58 v=0
55200 On ch=8 n=58 v=48
55259 On ch=8 n=58 v=0
55260 On ch=8 n=58 v=48
55319 On ch=8 n=58 v=0
55320 On ch=8 n=58 v=48
55379 On ch=8 n=58 v=0
55380 On ch=8 n=58 v=48
55439 On ch=8 n=58 v=0
55440 On ch=8 n=58 v=48
55499 On ch=8 n=58 v=0
55500 On ch=8 n=58 v=48
55559 On ch=8 n=58 v=0
55560 On ch=8 n=58 v=48
55619 On ch=8 n=58 v=0
55620 On ch=8 n=58 v=48
55679 On ch=8 n=58 v=0
55680 On ch=8 n=58 v=48
55739 On ch=8 n=58 v=0
55740 On ch=8 n=58 v=48
55799 On ch=8 n=58 v=0
55800 On ch=8 n=58 v=48
55859 On ch=8 n=58 v=0
55860 On ch=8 n=58 v=48
55919 On ch=8 n=58 v=0
55920 On ch=8 n=58 v=48
55979 On ch=8 n=58 v=0
55980 On ch=8 n=58 v=48
56039 On ch=8 n=58 v=0
56040 On ch=8 n=58 v=48
56099 On ch=8 n=58 v=0
56100 On ch=8 n=58 v=48
56159 On ch=8 n=58 v=0
56160 On ch=8 n=58 v=48
56219 On ch=8 n=58 v=0
56220 On ch=8 n=58 v=48
56279 On ch=8 n=58 v=0
56280 On ch=8 n=58 v=48
56339 On ch=8 n=58 v=0
56340 On ch=8 n=58 v=48
56399 On ch=8 n=58 v=0
56400 On ch=8 n=58 v=48
56459 On ch=8 n=58 v=0
56460 On ch=8 n=58 v=48
56519 On ch=8 n=58 v=0
56520 On ch=8 n=58 v=48
56579 On ch=8 n=58 v=0
56580 On ch=8 n=58 v=48
56639 On ch=8 n=58 v=0
56640 On ch=8 n=58 v=51
56699 On ch=8 n=58 v=0
56700 On ch=8 n=58 v=54
56759 On ch=8 n=58 v=0
56760 On ch=8 n=58 v=57
56819 On ch=8 n=58 v=0
56820 On ch=8 n=58 v=60
56879 On ch=8 n=58 v=0
56880 On ch=8 n=58 v=63
56939 On ch=8 n=58 v=0
56940 On ch=8 n=58 v=66
56999 On ch=8 n=58 v=0
57000 On ch=8 n=58 v=69
57059 On ch=8 n=58 v=0
57060 On ch=8 n=58 v=72
57119 On ch=8 n=58 v=0
57120 On ch=8 n=58 v=75
57179 On ch=8 n=58 v=0
57180 On ch=8 n=58 v=78
57239 On ch=8 n=58 v=0
57240 On ch=8 n=58 v=81
57359 On ch=8 n=58 v=0
57600 On ch=8 n=68 v=96
58199 On ch=8 n=68 v=0
58200 On ch=8 n=67 v=48
58320 On ch=8 n=65 v=48
58329 On ch=8 n=67 v=0
58440 On ch=8 n=67 v=48
58449 On ch=8 n=65 v=0
58560 On ch=8 n=68 v=48
58569 On ch=8 n=67 v=0
58680 On ch=8 n=67 v=48
58689 On ch=8 n=68 v=0
58740 On ch=8 n=70 v=48
58749 On ch=8 n=67 v=0
58800 On ch=8 n=68 v=48
58809 On ch=8 n=70 v=0
58860 On ch=8 n=67 v=48
58869 On ch=8 n=68 v=0
58920 On ch=8 n=65 v=48
58929 On ch=8 n=67 v=0
58980 On ch=8 n=63 v=48
58989 On ch=8 n=65 v=0
59039 On ch=8 n=63 v=0
59040 On ch=8 n=62 v=48
59100 On ch=8 n=58 v=48
59109 On ch=8 n=62 v=0
59160 On ch=8 n=63 v=48
59169 On ch=8 n=58 v=0
59220 On ch=8 n=58 v=48
59229 On ch=8 n=63 v=0
59280 On ch=8 n=57 v=48
59289 On ch=8 n=58 v=0
59340 On ch=8 n=53 v=48
59349 On ch=8 n=57 v=0
59399 On ch=8 n=53 v=0
59400 On ch=8 n=55 v=48
59429 On ch=8 n=55 v=0
59460 On ch=8 n=51 v=48
59460 On ch=8 n=55 v=48
59489 On ch=8 n=55 v=0
59489 On ch=8 n=51 v=0
59520 On ch=8 n=55 v=48
59520 On ch=8 n=51 v=48
59549 On ch=8 n=51 v=0
59549 On ch=8 n=55 v=0
59580 On ch=8 n=55 v=48
59580 On ch=8 n=51 v=48
59609 On ch=8 n=51 v=0
59609 On ch=8 n=55 v=0
59640 On ch=8 n=55 v=48
59640 On ch=8 n=51 v=48
59669 On ch=8 n=51 v=0
59669 On ch=8 n=55 v=0
59700 On ch=8 n=55 v=48
59700 On ch=8 n=51 v=48
59729 On ch=8 n=51 v=0
59729 On ch=8 n=55 v=0
59760 On ch=8 n=55 v=48
59760 On ch=8 n=51 v=48
59789 On ch=8 n=51 v=0
59789 On ch=8 n=55 v=0
59820 On ch=8 n=55 v=48
59820 On ch=8 n=51 v=48
59849 On ch=8 n=51 v=0
59849 On ch=8 n=55 v=0
59880 On ch=8 n=55 v=48
59880 On ch=8 n=51 v=48
59909 On ch=8 n=51 v=0
59909 On ch=8 n=55 v=0
59940 On ch=8 n=55 v=48
59940 On ch=8 n=51 v=48
59969 On ch=8 n=51 v=0
59969 On ch=8 n=55 v=0
60000 On ch=8 n=55 v=48
60000 On ch=8 n=51 v=48
60029 On ch=8 n=51 v=0
60029 On ch=8 n=55 v=0
60060 On ch=8 n=55 v=48
60060 On ch=8 n=51 v=48
60089 On ch=8 n=51 v=0
60089 On ch=8 n=55 v=0
60120 On ch=8 n=55 v=48
60120 On ch=8 n=51 v=48
60149 On ch=8 n=51 v=0
60149 On ch=8 n=55 v=0
60180 On ch=8 n=55 v=48
60180 On ch=8 n=51 v=48
60209 On ch=8 n=51 v=0
60209 On ch=8 n=55 v=0
60240 On ch=8 n=55 v=48
60240 On ch=8 n=51 v=48
60269 On ch=8 n=51 v=0
60269 On ch=8 n=55 v=0
60300 On ch=8 n=55 v=48
60300 On ch=8 n=51 v=48
60329 On ch=8 n=51 v=0
60329 On ch=8 n=55 v=0
60360 On ch=8 n=55 v=48
60360 On ch=8 n=51 v=48
60389 On ch=8 n=51 v=0
60389 On ch=8 n=55 v=0
60420 On ch=8 n=55 v=48
60420 On ch=8 n=51 v=48
60449 On ch=8 n=51 v=0
60449 On ch=8 n=55 v=0
60480 On ch=8 n=55 v=48
60539 On ch=8 n=55 v=0
60540 On ch=8 n=55 v=48
60599 On ch=8 n=55 v=0
60600 On ch=8 n=58 v=48
60600 On ch=8 n=55 v=48
60659 On ch=8 n=55 v=0
60659 On ch=8 n=58 v=0
60660 On ch=8 n=58 v=48
60660 On ch=8 n=55 v=48
60719 On ch=8 n=55 v=0
60719 On ch=8 n=58 v=0
60720 On ch=8 n=58 v=48
60720 On ch=8 n=55 v=48
60779 On ch=8 n=55 v=0
60779 On ch=8 n=58 v=0
60780 On ch=8 n=58 v=48
60780 On ch=8 n=55 v=48
60839 On ch=8 n=55 v=0
60839 On ch=8 n=58 v=0
60840 On ch=8 n=53 v=48
60840 On ch=8 n=56 v=48
60899 On ch=8 n=56 v=0
60899 On ch=8 n=53 v=0
60900 On ch=8 n=53 v=48
60900 On ch=8 n=56 v=48
60959 On ch=8 n=56 v=0
60959 On ch=8 n=53 v=0
60960 On ch=8 n=53 v=48
60960 On ch=8 n=56 v=48
61019 On ch=8 n=56 v=0
61019 On ch=8 n=53 v=0
61020 On ch=8 n=53 v=48
61020 On ch=8 n=56 v=48
61079 On ch=8 n=56 v=0
61079 On ch=8 n=53 v=0
61080 On ch=8 n=53 v=48
61080 On ch=8 n=56 v=48
61139 On ch=8 n=56 v=0
61139 On ch=8 n=53 v=0
61140 On ch=8 n=53 v=48
61140 On ch=8 n=56 v=48
61199 On ch=8 n=56 v=0
61199 On ch=8 n=53 v=0
61200 On ch=8 n=53 v=48
61200 On ch=8 n=56 v=48
61259 On ch=8 n=56 v=0
61259 On ch=8 n=53 v=0
61260 On ch=8 n=53 v=48
61260 On ch=8 n=56 v=48
61319 On ch=8 n=56 v=0
61319 On ch=8 n=53 v=0
61320 On ch=8 n=53 v=48
61320 On ch=8 n=56 v=48
61379 On ch=8 n=56 v=0
61379 On ch=8 n=53 v=0
61380 On ch=8 n=53 v=48
61380 On ch=8 n=56 v=48
61439 On ch=8 n=56 v=0
61439 On ch=8 n=53 v=0
61440 On ch=8 n=58 v=48
61440 On ch=8 n=61 v=48
61499 On ch=8 n=61 v=0
61499 On ch=8 n=58 v=0
61500 On ch=8 n=58 v=48
61500 On ch=8 n=61 v=48
61559 On ch=8 n=61 v=0
61559 On ch=8 n=58 v=0
61560 On ch=8 n=60 v=48
61560 On ch=8 n=56 v=48
61619 On ch=8 n=56 v=0
61619 On ch=8 n=60 v=0
61620 On ch=8 n=60 v=48
61620 On ch=8 n=56 v=48
61679 On ch=8 n=56 v=0
61679 On ch=8 n=60 v=0
61680 On ch=8 n=60 v=48
61680 On ch=8 n=56 v=48
61739 On ch=8 n=56 v=0
61739 On ch=8 n=60 v=0
61740 On ch=8 n=60 v=48
61740 On ch=8 n=56 v=48
61799 On ch=8 n=56 v=0
61799 On ch=8 n=60 v=0
61800 On ch=8 n=60 v=48
61800 On ch=8 n=56 v=48
61859 On ch=8 n=56 v=0
61859 On ch=8 n=60 v=0
61860 On ch=8 n=60 v=48
61860 On ch=8 n=56 v=48
61919 On ch=8 n=56 v=0
61919 On ch=8 n=60 v=0
61920 On ch=8 n=56 v=48
61920 On ch=8 n=60 v=48
61979 On ch=8 n=60 v=0
61979 On ch=8 n=56 v=0
61980 On ch=8 n=60 v=56
62039 On ch=8 n=60 v=0
62040 On ch=8 n=60 v=64
62099 On ch=8 n=60 v=0
62100 On ch=8 n=60 v=72
62159 On ch=8 n=60 v=0
62160 On ch=8 n=59 v=80
62219 On ch=8 n=59 v=0
62220 On ch=8 n=59 v=88
62279 On ch=8 n=59 v=0
62280 On ch=8 n=58 v=96
62309 On ch=8 n=58 v=0
62310 On ch=8 n=58 v=48
62759 On ch=8 n=58 v=0
62760 On ch=8 n=50 v=48
62880 On ch=8 n=53 v=48
62889 On ch=8 n=50 v=0
62999 On ch=8 n=53 v=0
63000 On ch=8 n=55 v=48
63059 On ch=8 n=55 v=0
63120 On ch=8 n=54 v=96
63359 On ch=8 n=54 v=0
63360 On ch=8 n=54 v=96
63599 On ch=8 n=54 v=0
63600 On ch=8 n=54 v=96
63719 On ch=8 n=54 v=0
63720 On ch=8 n=53 v=96
63779 On ch=8 n=53 v=0
63840 On ch=8 n=58 v=48
64200 On ch=8 n=50 v=48
64209 On ch=8 n=58 v=0
64319 On ch=8 n=50 v=0
64320 On ch=8 n=58 v=96
64440 On ch=8 n=56 v=90
64449 On ch=8 n=58 v=0
64499 On ch=8 n=56 v=0
64560 On ch=8 n=68 v=96
64799 On ch=8 n=68 v=0
64800 On ch=8 n=68 v=96
65039 On ch=8 n=68 v=0
65040 On ch=8 n=68 v=96
65279 On ch=8 n=68 v=0
65280 On ch=8 n=67 v=96
65519 On ch=8 n=67 v=0
65520 On ch=8 n=67 v=96
65759 On ch=8 n=67 v=0
65760 On ch=8 n=67 v=96
65999 On ch=8 n=67 v=0
66000 On ch=8 n=68 v=90
66059 On ch=8 n=68 v=0
66120 On ch=8 n=68 v=96
66359 On ch=8 n=68 v=0
66360 On ch=8 n=67 v=90
66419 On ch=8 n=67 v=0
66480 On ch=8 n=67 v=96
66600 On ch=8 n=62 v=96
66609 On ch=8 n=67 v=0
66629 On ch=8 n=62 v=0
66630 On ch=8 n=65 v=97
66659 On ch=8 n=65 v=0
66660 On ch=8 n=65 v=98
66689 On ch=8 n=65 v=0
66690 On ch=8 n=65 v=99
66719 On ch=8 n=65 v=0
66720 On ch=8 n=65 v=100
66749 On ch=8 n=65 v=0
66750 On ch=8 n=65 v=102
66779 On ch=8 n=65 v=0
66780 On ch=8 n=63 v=103
66809 On ch=8 n=63 v=0
66810 On ch=8 n=63 v=104
66839 On ch=8 n=63 v=0
66840 On ch=8 n=62 v=105
66869 On ch=8 n=62 v=0
66870 On ch=8 n=62 v=106
66899 On ch=8 n=62 v=0
66900 On ch=8 n=60 v=107
66929 On ch=8 n=60 v=0
66930 On ch=8 n=60 v=109
66959 On ch=8 n=60 v=0
66960 On ch=8 n=58 v=110
66989 On ch=8 n=58 v=0
66990 On ch=8 n=58 v=111
67019 On ch=8 n=58 v=0
67020 On ch=8 n=56 v=112
67049 On ch=8 n=56 v=0
67050 On ch=8 n=56 v=113
67079 On ch=8 n=56 v=0
67080 On ch=8 n=55 v=114
67109 On ch=8 n=55 v=0
67110 On ch=8 n=55 v=115
67139 On ch=8 n=55 v=0
67140 On ch=8 n=53 v=116
67169 On ch=8 n=53 v=0
67170 On ch=8 n=53 v=118
67199 On ch=8 n=53 v=0
67200 On ch=8 n=51 v=119
67229 On ch=8 n=51 v=0
67230 On ch=8 n=51 v=121
67259 On ch=8 n=51 v=0
67260 On ch=8 n=56 v=123
67289 On ch=8 n=56 v=0
67290 On ch=8 n=56 v=125
67319 On ch=8 n=56 v=0
67320 On ch=8 n=55 v=127
67440 On ch=8 n=63 v=127
67449 On ch=8 n=55 v=0
67560 On ch=8 n=67 v=127
67569 On ch=8 n=63 v=0
67679 On ch=8 n=67 v=0
67680 On ch=8 n=63 v=127
67920 On ch=8 n=58 v=127
67929 On ch=8 n=63 v=0
68039 On ch=8 n=58 v=0
68040 On ch=8 n=63 v=127
68160 On ch=8 n=67 v=127
68169 On ch=8 n=63 v=0
68280 On ch=8 n=70 v=127
68289 On ch=8 n=67 v=0
68399 On ch=8 n=70 v=0
68400 On ch=8 n=63 v=127
68639 On ch=8 n=63 v=0
68640 On ch=8 n=55 v=127
68759 On ch=8 n=55 v=0
68760 On ch=8 n=60 v=127
68880 On ch=8 n=63 v=127
68889 On ch=8 n=60 v=0
69000 On ch=8 n=67 v=127
69009 On ch=8 n=63 v=0
69119 On ch=8 n=67 v=0
69120 On ch=8 n=60 v=127
69359 On ch=8 n=60 v=0
69360 On ch=8 n=61 v=127
69389 On ch=8 n=61 v=0
69390 On ch=8 n=61 v=127
69419 On ch=8 n=61 v=0
69420 On ch=8 n=61 v=127
69449 On ch=8 n=61 v=0
69450 On ch=8 n=61 v=127
69479 On ch=8 n=61 v=0
69480 On ch=8 n=60 v=127
69509 On ch=8 n=60 v=0
69510 On ch=8 n=60 v=127
69539 On ch=8 n=60 v=0
69540 On ch=8 n=60 v=127
69569 On ch=8 n=60 v=0
69570 On ch=8 n=60 v=127
69599 On ch=8 n=60 v=0
69600 On ch=8 n=60 v=127
69629 On ch=8 n=60 v=0
69630 On ch=8 n=60 v=127
69659 On ch=8 n=60 v=0
69660 On ch=8 n=60 v=127
69689 On ch=8 n=60 v=0
69690 On ch=8 n=60 v=127
69719 On ch=8 n=60 v=0
69720 On ch=8 n=60 v=127
69749 On ch=8 n=60 v=0
69750 On ch=8 n=60 v=127
69779 On ch=8 n=60 v=0
69780 On ch=8 n=60 v=127
69809 On ch=8 n=60 v=0
69810 On ch=8 n=60 v=127
69839 On ch=8 n=60 v=0
69840 On ch=8 n=60 v=127
69869 On ch=8 n=60 v=0
69870 On ch=8 n=60 v=127
69899 On ch=8 n=60 v=0
69900 On ch=8 n=58 v=127
69929 On ch=8 n=58 v=0
69930 On ch=8 n=58 v=127
69959 On ch=8 n=58 v=0
69960 On ch=8 n=57 v=127
69989 On ch=8 n=57 v=0
69990 On ch=8 n=57 v=127
70019 On ch=8 n=57 v=0
70020 On ch=8 n=58 v=127
70049 On ch=8 n=58 v=0
70050 On ch=8 n=58 v=127
70079 On ch=8 n=58 v=0
70080 On ch=8 n=60 v=127
70109 On ch=8 n=60 v=0
70110 On ch=8 n=60 v=127
70139 On ch=8 n=60 v=0
70140 On ch=8 n=58 v=127
70169 On ch=8 n=58 v=0
70170 On ch=8 n=58 v=127
70199 On ch=8 n=58 v=0
70200 On ch=8 n=57 v=127
70229 On ch=8 n=57 v=0
70260 On ch=8 n=53 v=48
70320 On ch=8 n=57 v=48
70329 On ch=8 n=53 v=0
70380 On ch=8 n=53 v=48
70389 On ch=8 n=57 v=0
70440 On ch=8 n=57 v=48
70449 On ch=8 n=53 v=0
70500 On ch=8 n=53 v=48
70509 On ch=8 n=57 v=0
70559 On ch=8 n=53 v=0
70560 On ch=8 n=57 v=48
70620 On ch=8 n=53 v=48
70629 On ch=8 n=57 v=0
70680 On ch=8 n=57 v=48
70689 On ch=8 n=53 v=0
70740 On ch=8 n=53 v=48
70749 On ch=8 n=57 v=0
70800 On ch=8 n=57 v=48
70809 On ch=8 n=53 v=0
70860 On ch=8 n=53 v=48
70869 On ch=8 n=57 v=0
70919 On ch=8 n=53 v=0
70920 On ch=8 n=57 v=48
70980 On ch=8 n=53 v=48
70989 On ch=8 n=57 v=0
71040 On ch=8 n=57 v=48
71049 On ch=8 n=53 v=0
71100 On ch=8 n=53 v=48
71109 On ch=8 n=57 v=0
71160 On ch=8 n=57 v=48
71169 On ch=8 n=53 v=0
71220 On ch=8 n=53 v=48
71229 On ch=8 n=57 v=0
71279 On ch=8 n=53 v=0
71280 On ch=8 n=57 v=48
71340 On ch=8 n=53 v=48
71349 On ch=8 n=57 v=0
71400 On ch=8 n=57 v=48
71409 On ch=8 n=53 v=0
71460 On ch=8 n=53 v=48
71469 On ch=8 n=57 v=0
71520 On ch=8 n=57 v=48
71529 On ch=8 n=53 v=0
71580 On ch=8 n=53 v=48
71589 On ch=8 n=57 v=0
71639 On ch=8 n=53 v=0
71640 On ch=8 n=58 v=48
71700 On ch=8 n=53 v=48
71709 On ch=8 n=58 v=0
71760 On ch=8 n=58 v=48
71769 On ch=8 n=53 v=0
71820 On ch=8 n=53 v=48
71829 On ch=8 n=58 v=0
71880 On ch=8 n=58 v=48
71889 On ch=8 n=53 v=0
71940 On ch=8 n=53 v=48
71949 On ch=8 n=58 v=0
71999 On ch=8 n=53 v=0
72000 On ch=8 n=58 v=48
72060 On ch=8 n=53 v=48
72069 On ch=8 n=58 v=0
72120 On ch=8 n=58 v=48
72129 On ch=8 n=53 v=0
72180 On ch=8 n=53 v=48
72189 On ch=8 n=58 v=0
72240 On ch=8 n=58 v=48
72249 On ch=8 n=53 v=0
72300 On ch=8 n=53 v=48
72309 On ch=8 n=58 v=0
72359 On ch=8 n=53 v=0
72360 On ch=8 n=58 v=48
72420 On ch=8 n=53 v=48
72429 On ch=8 n=58 v=0
72480 On ch=8 n=58 v=48
72489 On ch=8 n=53 v=0
72540 On ch=8 n=53 v=48
72549 On ch=8 n=58 v=0
72600 On ch=8 n=58 v=48
72609 On ch=8 n=53 v=0
72660 On ch=8 n=53 v=48
72669 On ch=8 n=58 v=0
72719 On ch=8 n=53 v=0
72720 On ch=8 n=58 v=48
72780 On ch=8 n=53 v=48
72789 On ch=8 n=58 v=0
72840 On ch=8 n=58 v=48
72849 On ch=8 n=53 v=0
72900 On ch=8 n=53 v=48
72909 On ch=8 n=58 v=0
72960 On ch=8 n=58 v=48
72969 On ch=8 n=53 v=0
73020 On ch=8 n=53 v=48
73029 On ch=8 n=58 v=0
73079 On ch=8 n=53 v=0
73080 On ch=8 n=60 v=48
73199 On ch=8 n=60 v=0
73920 On ch=8 n=67 v=127
74099 On ch=8 n=67 v=0
74100 On ch=8 n=65 v=127
74159 On ch=8 n=65 v=0
74160 On ch=8 n=63 v=127
74219 On ch=8 n=63 v=0
74280 On ch=8 n=62 v=127
74339 On ch=8 n=62 v=0
74400 On ch=8 n=60 v=127
74459 On ch=8 n=60 v=0
74520 On ch=8 n=58 v=48
74760 On ch=8 n=57 v=51
74769 On ch=8 n=58 v=0
74820 On ch=8 n=56 v=53
74829 On ch=8 n=57 v=0
74880 On ch=8 n=55 v=56
74889 On ch=8 n=56 v=0
75000 On ch=8 n=53 v=52
75009 On ch=8 n=55 v=0
75120 On ch=8 n=51 v=48
75129 On ch=8 n=53 v=0
75239 On ch=8 n=51 v=0
75240 On ch=8 n=50 v=48
75269 On ch=8 n=50 v=0
75300 On ch=8 n=65 v=48
75329 On ch=8 n=65 v=0
75360 On ch=8 n=63 v=48
75389 On ch=8 n=63 v=0
75420 On ch=8 n=62 v=48
75449 On ch=8 n=62 v=0
75480 On ch=8 n=60 v=48
75509 On ch=8 n=60 v=0
75540 On ch=8 n=58 v=48
75569 On ch=8 n=58 v=0
75600 On ch=8 n=57 v=48
75629 On ch=8 n=57 v=0
75660 On ch=8 n=58 v=48
75689 On ch=8 n=58 v=0
75720 On ch=8 n=60 v=48
75749 On ch=8 n=60 v=0
75780 On ch=8 n=53 v=48
75809 On ch=8 n=53 v=0
75840 On ch=8 n=55 v=48
75869 On ch=8 n=55 v=0
75900 On ch=8 n=57 v=48
75929 On ch=8 n=57 v=0
75960 On ch=8 n=58 v=48
75989 On ch=8 n=58 v=0
76020 On ch=8 n=70 v=50
76049 On ch=8 n=70 v=0
76080 On ch=8 n=70 v=52
76109 On ch=8 n=70 v=0
76140 On ch=8 n=70 v=54
76200 On ch=8 n=69 v=56
76209 On ch=8 n=70 v=0
76260 On ch=8 n=68 v=58
76269 On ch=8 n=69 v=0
76319 On ch=8 n=68 v=0
76320 On ch=8 n=67 v=60
76380 On ch=8 n=65 v=62
76389 On ch=8 n=67 v=0
76439 On ch=8 n=65 v=0
76440 On ch=8 n=63 v=64
76469 On ch=8 n=63 v=0
76500 On ch=8 n=67 v=66
76529 On ch=8 n=67 v=0
76560 On ch=8 n=65 v=68
76589 On ch=8 n=65 v=0
76620 On ch=8 n=63 v=70
76649 On ch=8 n=63 v=0
76680 On ch=8 n=62 v=72
76709 On ch=8 n=62 v=0
76740 On ch=8 n=62 v=74
76769 On ch=8 n=62 v=0
76800 On ch=8 n=60 v=76
76829 On ch=8 n=60 v=0
76860 On ch=8 n=65 v=78
76889 On ch=8 n=65 v=0
76920 On ch=8 n=69 v=80
76949 On ch=8 n=69 v=0
76980 On ch=8 n=70 v=82
77009 On ch=8 n=70 v=0
77040 On ch=8 n=72 v=84
77069 On ch=8 n=72 v=0
77100 On ch=8 n=72 v=86
77129 On ch=8 n=72 v=0
77160 On ch=8 n=72 v=88
77189 On ch=8 n=72 v=0
77220 On ch=8 n=72 v=90
77249 On ch=8 n=72 v=0
77280 On ch=8 n=72 v=92
77309 On ch=8 n=72 v=0
77340 On ch=8 n=72 v=94
77369 On ch=8 n=72 v=0
77400 On ch=8 n=72 v=96
77459 On ch=8 n=72 v=0
77520 On ch=8 n=63 v=96
77520 On ch=8 n=60 v=96
77579 On ch=8 n=60 v=0
77579 On ch=8 n=63 v=0
78060 On ch=8 n=60 v=96
78089 On ch=8 n=60 v=0
78120 On ch=8 n=58 v=96
78179 On ch=8 n=58 v=0
78240 On ch=8 n=62 v=96
78240 On ch=8 n=58 v=96
78299 On ch=8 n=58 v=0
78299 On ch=8 n=62 v=0
78780 On ch=8 n=62 v=96
78809 On ch=8 n=62 v=0
78840 On ch=8 n=62 v=96
78899 On ch=8 n=62 v=0
78960 On ch=8 n=74 v=96
79019 On ch=8 n=74 v=0
79380 On ch=8 n=56 v=96
79409 On ch=8 n=56 v=0
79440 On ch=8 n=56 v=96
79469 On ch=8 n=56 v=0
79500 On ch=8 n=65 v=96
79529 On ch=8 n=65 v=0
79560 On ch=8 n=63 v=96
79589 On ch=8 n=63 v=0
79620 On ch=8 n=60 v=96
79739 On ch=8 n=60 v=0
79740 On ch=8 n=60 v=96
79769 On ch=8 n=60 v=0
79800 On ch=8 n=57 v=96
79829 On ch=8 n=57 v=0
79860 On ch=8 n=62 v=96
79889 On ch=8 n=62 v=0
79920 On ch=8 n=62 v=96
79949 On ch=8 n=62 v=0
79980 On ch=8 n=58 v=96
80099 On ch=8 n=58 v=0
80100 On ch=8 n=63 v=96
80129 On ch=8 n=63 v=0
80160 On ch=8 n=60 v=96
80189 On ch=8 n=60 v=0
80220 On ch=8 n=65 v=96
80249 On ch=8 n=65 v=0
80280 On ch=8 n=65 v=96
80339 On ch=8 n=65 v=0
80340 On ch=8 n=70 v=96
80399 On ch=8 n=70 v=0
80400 On ch=8 n=68 v=96
80459 On ch=8 n=68 v=0
80460 On ch=8 n=68 v=96
80519 On ch=8 n=68 v=0
80520 On ch=8 n=67 v=96
80579 On ch=8 n=67 v=0
80580 On ch=8 n=67 v=96
80639 On ch=8 n=67 v=0
80640 On ch=8 n=66 v=96
80699 On ch=8 n=66 v=0
80700 On ch=8 n=66 v=96
80759 On ch=8 n=66 v=0
80760 On ch=8 n=65 v=96
80819 On ch=8 n=65 v=0
80820 On ch=8 n=65 v=96
80879 On ch=8 n=65 v=0
80880 On ch=8 n=62 v=96
80939 On ch=8 n=62 v=0
80940 On ch=8 n=62 v=96
80999 On ch=8 n=62 v=0
81000 On ch=8 n=63 v=96
81029 On ch=8 n=63 v=0
81030 On ch=8 n=58 v=96
81059 On ch=8 n=58 v=0
81060 On ch=8 n=58 v=96
81089 On ch=8 n=58 v=0
81090 On ch=8 n=58 v=96
81119 On ch=8 n=58 v=0
81120 On ch=8 n=58 v=96
81149 On ch=8 n=58 v=0
81150 On ch=8 n=58 v=96
81179 On ch=8 n=58 v=0
81180 On ch=8 n=58 v=96
81209 On ch=8 n=58 v=0
81210 On ch=8 n=58 v=96
81239 On ch=8 n=58 v=0
81240 On ch=8 n=59 v=96
81269 On ch=8 n=59 v=0
81270 On ch=8 n=59 v=96
81299 On ch=8 n=59 v=0
81300 On ch=8 n=59 v=96
81329 On ch=8 n=59 v=0
81330 On ch=8 n=59 v=96
81359 On ch=8 n=59 v=0
81360 On ch=8 n=60 v=96
81389 On ch=8 n=60 v=0
81390 On ch=8 n=60 v=96
81419 On ch=8 n=60 v=0
81420 On ch=8 n=59 v=96
81449 On ch=8 n=59 v=0
81450 On ch=8 n=59 v=96
81479 On ch=8 n=59 v=0
81480 On ch=8 n=62 v=96
81509 On ch=8 n=62 v=0
81510 On ch=8 n=62 v=96
81539 On ch=8 n=62 v=0
81540 On ch=8 n=60 v=96
81569 On ch=8 n=60 v=0
81570 On ch=8 n=60 v=96
81599 On ch=8 n=60 v=0
81600 On ch=8 n=65 v=96
81629 On ch=8 n=65 v=0
81630 On ch=8 n=65 v=96
81659 On ch=8 n=65 v=0
81660 On ch=8 n=63 v=96
81689 On ch=8 n=63 v=0
81690 On ch=8 n=63 v=96
81719 On ch=8 n=63 v=0
81720 On ch=8 n=62 v=96
81749 On ch=8 n=62 v=0
81750 On ch=8 n=62 v=96
81779 On ch=8 n=62 v=0
81780 On ch=8 n=65 v=96
81809 On ch=8 n=65 v=0
81810 On ch=8 n=65 v=96
81839 On ch=8 n=65 v=0
81840 On ch=8 n=64 v=96
81869 On ch=8 n=64 v=0
81870 On ch=8 n=64 v=96
81899 On ch=8 n=64 v=0
81900 On ch=8 n=63 v=96
81929 On ch=8 n=63 v=0
81930 On ch=8 n=63 v=96
81959 On ch=8 n=63 v=0
81960 On ch=8 n=62 v=96
81989 On ch=8 n=62 v=0
81990 On ch=8 n=62 v=96
82019 On ch=8 n=62 v=0
82020 On ch=8 n=60 v=96
82049 On ch=8 n=60 v=0
82050 On ch=8 n=60 v=96
82079 On ch=8 n=60 v=0
82080 On ch=8 n=58 v=96
82109 On ch=8 n=58 v=0
82110 On ch=8 n=58 v=96
82139 On ch=8 n=58 v=0
82140 On ch=8 n=60 v=96
82169 On ch=8 n=60 v=0
82170 On ch=8 n=60 v=96
82199 On ch=8 n=60 v=0
82200 On ch=8 n=61 v=96
82229 On ch=8 n=61 v=0
82230 On ch=8 n=61 v=96
82259 On ch=8 n=61 v=0
82260 On ch=8 n=62 v=96
82289 On ch=8 n=62 v=0
82290 On ch=8 n=62 v=96
82319 On ch=8 n=62 v=0
82320 On ch=8 n=60 v=96
82349 On ch=8 n=60 v=0
82350 On ch=8 n=60 v=96
82379 On ch=8 n=60 v=0
82380 On ch=8 n=58 v=96
82409 On ch=8 n=58 v=0
82410 On ch=8 n=58 v=96
82439 On ch=8 n=58 v=0
82440 On ch=8 n=57 v=96
82469 On ch=8 n=57 v=0
82470 On ch=8 n=63 v=96
82470 On ch=8 n=60 v=96
82499 On ch=8 n=60 v=0
82499 On ch=8 n=63 v=0
82500 On ch=8 n=63 v=96
82500 On ch=8 n=60 v=96
82529 On ch=8 n=60 v=0
82529 On ch=8 n=63 v=0
82530 On ch=8 n=63 v=96
82530 On ch=8 n=60 v=96
82559 On ch=8 n=60 v=0
82559 On ch=8 n=63 v=0
82560 On ch=8 n=63 v=96
82560 On ch=8 n=60 v=96
82589 On ch=8 n=60 v=0
82589 On ch=8 n=63 v=0
82590 On ch=8 n=63 v=96
82590 On ch=8 n=60 v=96
82619 On ch=8 n=60 v=0
82619 On ch=8 n=63 v=0
82620 On ch=8 n=63 v=96
82620 On ch=8 n=60 v=96
82649 On ch=8 n=60 v=0
82649 On ch=8 n=63 v=0
82650 On ch=8 n=63 v=96
82650 On ch=8 n=60 v=96
82679 On ch=8 n=60 v=0
82679 On ch=8 n=63 v=0
82680 On ch=8 n=63 v=96
82680 On ch=8 n=60 v=96
82709 On ch=8 n=60 v=0
82709 On ch=8 n=63 v=0
82710 On ch=8 n=63 v=96
82710 On ch=8 n=60 v=96
82739 On ch=8 n=60 v=0
82739 On ch=8 n=63 v=0
82740 On ch=8 n=63 v=96
82740 On ch=8 n=60 v=96
82769 On ch=8 n=60 v=0
82769 On ch=8 n=63 v=0
82770 On ch=8 n=63 v=96
82770 On ch=8 n=60 v=96
82799 On ch=8 n=60 v=0
82799 On ch=8 n=63 v=0
82800 On ch=8 n=63 v=96
82800 On ch=8 n=60 v=96
82829 On ch=8 n=60 v=0
82829 On ch=8 n=63 v=0
82830 On ch=8 n=63 v=96
82830 On ch=8 n=60 v=96
82859 On ch=8 n=60 v=0
82859 On ch=8 n=63 v=0
82860 On ch=8 n=63 v=96
82860 On ch=8 n=60 v=96
82889 On ch=8 n=60 v=0
82889 On ch=8 n=63 v=0
82890 On ch=8 n=63 v=96
82890 On ch=8 n=60 v=96
82919 On ch=8 n=60 v=0
82919 On ch=8 n=63 v=0
82920 On ch=8 n=63 v=96
82920 On ch=8 n=60 v=96
82949 On ch=8 n=60 v=0
82949 On ch=8 n=63 v=0
82950 On ch=8 n=63 v=96
82950 On ch=8 n=60 v=96
82979 On ch=8 n=60 v=0
82979 On ch=8 n=63 v=0
82980 On ch=8 n=63 v=96
82980 On ch=8 n=60 v=96
83009 On ch=8 n=60 v=0
83009 On ch=8 n=63 v=0
83010 On ch=8 n=63 v=96
83010 On ch=8 n=60 v=96
83039 On ch=8 n=60 v=0
83039 On ch=8 n=63 v=0
83040 On ch=8 n=63 v=96
83040 On ch=8 n=60 v=96
83069 On ch=8 n=60 v=0
83069 On ch=8 n=63 v=0
83070 On ch=8 n=63 v=96
83070 On ch=8 n=60 v=96
83099 On ch=8 n=60 v=0
83099 On ch=8 n=63 v=0
83100 On ch=8 n=63 v=96
83100 On ch=8 n=60 v=96
83129 On ch=8 n=60 v=0
83129 On ch=8 n=63 v=0
83130 On ch=8 n=63 v=96
83130 On ch=8 n=60 v=96
83159 On ch=8 n=60 v=0
83159 On ch=8 n=63 v=0
83160 On ch=8 n=57 v=127
83189 On ch=8 n=57 v=0
83190 On ch=8 n=57 v=127
83219 On ch=8 n=57 v=0
83220 On ch=8 n=64 v=127
83249 On ch=8 n=64 v=0
83250 On ch=8 n=64 v=127
83279 On ch=8 n=64 v=0
83280 On ch=8 n=63 v=127
83309 On ch=8 n=63 v=0
83310 On ch=8 n=63 v=127
83339 On ch=8 n=63 v=0
83340 On ch=8 n=62 v=127
83369 On ch=8 n=62 v=0
83370 On ch=8 n=62 v=127
83399 On ch=8 n=62 v=0
83400 On ch=8 n=60 v=127
83429 On ch=8 n=60 v=0
83430 On ch=8 n=60 v=127
83459 On ch=8 n=60 v=0
83460 On ch=8 n=58 v=127
83489 On ch=8 n=58 v=0
83490 On ch=8 n=58 v=127
83519 On ch=8 n=58 v=0
83520 On ch=8 n=57 v=127
83549 On ch=8 n=57 v=0
83550 On ch=8 n=57 v=127
83579 On ch=8 n=57 v=0
83580 On ch=8 n=55 v=127
83609 On ch=8 n=55 v=0
83610 On ch=8 n=55 v=127
83639 On ch=8 n=55 v=0
83640 On ch=8 n=53 v=127
83669 On ch=8 n=53 v=0
83670 On ch=8 n=53 v=127
83699 On ch=8 n=53 v=0
83700 On ch=8 n=51 v=127
83729 On ch=8 n=51 v=0
83730 On ch=8 n=51 v=127
83759 On ch=8 n=51 v=0
83760 On ch=8 n=50 v=127
83789 On ch=8 n=50 v=0
83790 On ch=8 n=50 v=127
83819 On ch=8 n=50 v=0
83820 On ch=8 n=60 v=127
83849 On ch=8 n=60 v=0
83850 On ch=8 n=60 v=127
83879 On ch=8 n=60 v=0
83880 On ch=8 n=58 v=127
83999 On ch=8 n=58 v=0
85440 On ch=8 n=63 v=48
85529 On ch=8 n=63 v=0
85560 On ch=8 n=63 v=48
85649 On ch=8 n=63 v=0
85680 On ch=8 n=63 v=48
85769 On ch=8 n=63 v=0
85800 On ch=8 n=63 v=60
85889 On ch=8 n=63 v=0
85920 On ch=8 n=63 v=72
86009 On ch=8 n=63 v=0
86040 On ch=8 n=63 v=80
86129 On ch=8 n=63 v=0
86160 On ch=8 n=63 v=96
86399 On ch=8 n=63 v=0
86400 On ch=8 n=63 v=96
86700 On ch=8 n=60 v=56
86709 On ch=8 n=63 v=0
86760 On ch=8 n=62 v=48
86769 On ch=8 n=60 v=0
86879 On ch=8 n=62 v=0
88680 On ch=8 n=62 v=48
88769 On ch=8 n=62 v=0
88800 On ch=8 n=62 v=48
88889 On ch=8 n=62 v=0
88920 On ch=8 n=55 v=48
89279 On ch=8 n=55 v=0
89760 On ch=8 n=63 v=32
89760 On ch=8 n=60 v=32
89819 On ch=8 n=60 v=0
89819 On ch=8 n=63 v=0
89880 On ch=8 n=63 v=32
89880 On ch=8 n=60 v=32
89939 On ch=8 n=60 v=0
89939 On ch=8 n=63 v=0
90120 On ch=8 n=65 v=32
90120 On ch=8 n=62 v=32
90179 On ch=8 n=62 v=0
90179 On ch=8 n=65 v=0
90240 On ch=8 n=65 v=32
90299 On ch=8 n=65 v=0
90480 On ch=8 n=65 v=32
90539 On ch=8 n=65 v=0
90600 On ch=8 n=65 v=32
90659 On ch=8 n=65 v=0
90720 On ch=8 n=65 v=32
90779 On ch=8 n=65 v=0
90840 On ch=8 n=65 v=32
90899 On ch=8 n=65 v=0
90960 On ch=8 n=65 v=32
91019 On ch=8 n=65 v=0
91320 On ch=8 n=67 v=32
91349 On ch=8 n=67 v=0
91380 On ch=8 n=65 v=32
91409 On ch=8 n=65 v=0
91440 On ch=8 n=63 v=32
91469 On ch=8 n=63 v=0
91500 On ch=8 n=65 v=32
91529 On ch=8 n=65 v=0
91560 On ch=8 n=67 v=32
91589 On ch=8 n=67 v=0
91620 On ch=8 n=65 v=32
91649 On ch=8 n=65 v=0
91680 On ch=8 n=63 v=32
91709 On ch=8 n=63 v=0
91740 On ch=8 n=62 v=32
91769 On ch=8 n=62 v=0
91800 On ch=8 n=60 v=34
91829 On ch=8 n=60 v=0
91860 On ch=8 n=62 v=37
91889 On ch=8 n=62 v=0
91920 On ch=8 n=63 v=40
91949 On ch=8 n=63 v=0
91980 On ch=8 n=65 v=43
92009 On ch=8 n=65 v=0
92040 On ch=8 n=67 v=46
92069 On ch=8 n=67 v=0
92100 On ch=8 n=65 v=48
92129 On ch=8 n=65 v=0
92160 On ch=8 n=63 v=50
92189 On ch=8 n=63 v=0
92220 On ch=8 n=65 v=53
92249 On ch=8 n=65 v=0
92280 On ch=8 n=67 v=56
92309 On ch=8 n=67 v=0
92340 On ch=8 n=65 v=59
92369 On ch=8 n=65 v=0
92400 On ch=8 n=63 v=62
92429 On ch=8 n=63 v=0
92460 On ch=8 n=62 v=64
92489 On ch=8 n=62 v=0
92520 On ch=8 n=60 v=66
92549 On ch=8 n=60 v=0
92580 On ch=8 n=62 v=69
92609 On ch=8 n=62 v=0
92640 On ch=8 n=63 v=72
92669 On ch=8 n=63 v=0
92700 On ch=8 n=65 v=75
92729 On ch=8 n=65 v=0
92760 On ch=8 n=63 v=78
92789 On ch=8 n=63 v=0
92820 On ch=8 n=62 v=80
92849 On ch=8 n=62 v=0
92880 On ch=8 n=60 v=82
92909 On ch=8 n=60 v=0
92940 On ch=8 n=58 v=85
92969 On ch=8 n=58 v=0
93000 On ch=8 n=57 v=88
93029 On ch=8 n=57 v=0
93060 On ch=8 n=55 v=90
93089 On ch=8 n=55 v=0
93120 On ch=8 n=53 v=92
93149 On ch=8 n=53 v=0
93180 On ch=8 n=51 v=94
93209 On ch=8 n=51 v=0
93240 On ch=8 n=50 v=96
93269 On ch=8 n=50 v=0
93300 On ch=8 n=50 v=96
93329 On ch=8 n=50 v=0
93360 On ch=8 n=53 v=96
93389 On ch=8 n=53 v=0
93420 On ch=8 n=58 v=96
93449 On ch=8 n=58 v=0
93480 On ch=8 n=62 v=96
93509 On ch=8 n=62 v=0
93540 On ch=8 n=50 v=96
93569 On ch=8 n=50 v=0
93660 On ch=8 n=50 v=96
93689 On ch=8 n=50 v=0
93720 On ch=8 n=53 v=112
93749 On ch=8 n=53 v=0
93780 On ch=8 n=58 v=96
93809 On ch=8 n=58 v=0
93840 On ch=8 n=62 v=96
93869 On ch=8 n=62 v=0
93900 On ch=8 n=50 v=96
93929 On ch=8 n=50 v=0
94020 On ch=8 n=51 v=96
94049 On ch=8 n=51 v=0
94080 On ch=8 n=53 v=112
94109 On ch=8 n=53 v=0
94140 On ch=8 n=57 v=96
94169 On ch=8 n=57 v=0
94200 On ch=8 n=60 v=96
94229 On ch=8 n=60 v=0
94260 On ch=8 n=51 v=96
94289 On ch=8 n=51 v=0
94380 On ch=8 n=50 v=96
94409 On ch=8 n=50 v=0
94440 On ch=8 n=57 v=112
94469 On ch=8 n=57 v=0
94500 On ch=8 n=60 v=96
94529 On ch=8 n=60 v=0
94560 On ch=8 n=63 v=96
94589 On ch=8 n=63 v=0
94620 On ch=8 n=51 v=96
94649 On ch=8 n=51 v=0
94680 On ch=8 n=50 v=127
94739 On ch=8 n=50 v=0
94740 On ch=8 n=50 v=127
94769 On ch=8 n=50 v=0
94770 On ch=8 n=50 v=127
94799 On ch=8 n=50 v=0
94800 On ch=8 n=53 v=127
94829 On ch=8 n=53 v=0
94830 On ch=8 n=53 v=127
94859 On ch=8 n=53 v=0
94860 On ch=8 n=58 v=127
94889 On ch=8 n=58 v=0
94890 On ch=8 n=58 v=127
94919 On ch=8 n=58 v=0
94920 On ch=8 n=62 v=127
94949 On ch=8 n=62 v=0
94950 On ch=8 n=62 v=127
94979 On ch=8 n=62 v=0
94980 On ch=8 n=50 v=127
95009 On ch=8 n=50 v=0
95010 On ch=8 n=50 v=127
95039 On ch=8 n=50 v=0
95100 On ch=8 n=50 v=127
95129 On ch=8 n=50 v=0
95130 On ch=8 n=50 v=127
95159 On ch=8 n=50 v=0
95160 On ch=8 n=53 v=127
95189 On ch=8 n=53 v=0
95190 On ch=8 n=53 v=127
95219 On ch=8 n=53 v=0
95220 On ch=8 n=58 v=127
95249 On ch=8 n=58 v=0
95250 On ch=8 n=58 v=127
95279 On ch=8 n=58 v=0
95280 On ch=8 n=62 v=127
95309 On ch=8 n=62 v=0
95310 On ch=8 n=62 v=127
95339 On ch=8 n=62 v=0
95340 On ch=8 n=50 v=127
95369 On ch=8 n=50 v=0
95370 On ch=8 n=50 v=127
95399 On ch=8 n=50 v=0
95460 On ch=8 n=51 v=127
95489 On ch=8 n=51 v=0
95490 On ch=8 n=51 v=127
95519 On ch=8 n=51 v=0
95520 On ch=8 n=53 v=127
95549 On ch=8 n=53 v=0
95550 On ch=8 n=53 v=127
95579 On ch=8 n=53 v=0
95580 On ch=8 n=60 v=127
95609 On ch=8 n=60 v=0
95610 On ch=8 n=60 v=127
95639 On ch=8 n=60 v=0
95640 On ch=8 n=63 v=127
95669 On ch=8 n=63 v=0
95670 On ch=8 n=63 v=127
95699 On ch=8 n=63 v=0
95700 On ch=8 n=51 v=127
95729 On ch=8 n=51 v=0
95730 On ch=8 n=51 v=127
95759 On ch=8 n=51 v=0
95820 On ch=8 n=51 v=127
95849 On ch=8 n=51 v=0
95850 On ch=8 n=51 v=127
95879 On ch=8 n=51 v=0
95880 On ch=8 n=53 v=127
95909 On ch=8 n=53 v=0
95910 On ch=8 n=53 v=127
95939 On ch=8 n=53 v=0
95940 On ch=8 n=57 v=127
95969 On ch=8 n=57 v=0
95970 On ch=8 n=57 v=127
95999 On ch=8 n=57 v=0
96000 On ch=8 n=60 v=127
96029 On ch=8 n=60 v=0
96030 On ch=8 n=60 v=127
96059 On ch=8 n=60 v=0
96060 On ch=8 n=57 v=127
96089 On ch=8 n=57 v=0
96090 On ch=8 n=57 v=127
96119 On ch=8 n=57 v=0
96120 On ch=8 n=65 v=127
96120 On ch=8 n=58 v=127
96239 On ch=8 n=58 v=0
96239 On ch=8 n=65 v=0
96660 On ch=8 n=51 v=127
96689 On ch=8 n=51 v=0
96690 On ch=8 n=51 v=127
96719 On ch=8 n=51 v=0
96720 On ch=8 n=52 v=127
96749 On ch=8 n=52 v=0
96750 On ch=8 n=52 v=127
96779 On ch=8 n=52 v=0
96780 On ch=8 n=53 v=127
96809 On ch=8 n=53 v=0
96810 On ch=8 n=53 v=127
96839 On ch=8 n=53 v=0
96840 On ch=8 n=55 v=127
96869 On ch=8 n=55 v=0
96870 On ch=8 n=55 v=127
96899 On ch=8 n=55 v=0
96900 On ch=8 n=53 v=127
96929 On ch=8 n=53 v=0
96930 On ch=8 n=53 v=127
96959 On ch=8 n=53 v=0
96960 On ch=8 n=51 v=127
96989 On ch=8 n=51 v=0
96990 On ch=8 n=51 v=127
97019 On ch=8 n=51 v=0
97020 On ch=8 n=55 v=127
97049 On ch=8 n=55 v=0
97050 On ch=8 n=55 v=127
97079 On ch=8 n=55 v=0
97080 On ch=8 n=48 v=127
97109 On ch=8 n=48 v=0
97110 On ch=8 n=48 v=127
97139 On ch=8 n=48 v=0
97140 On ch=8 n=55 v=127
97169 On ch=8 n=55 v=0
97170 On ch=8 n=55 v=127
97199 On ch=8 n=55 v=0
97200 On ch=8 n=54 v=127
97229 On ch=8 n=54 v=0
97230 On ch=8 n=54 v=127
97259 On ch=8 n=54 v=0
97260 On ch=8 n=57 v=127
97289 On ch=8 n=57 v=0
97290 On ch=8 n=57 v=127
97319 On ch=8 n=57 v=0
97320 On ch=8 n=50 v=127
97349 On ch=8 n=50 v=0
97350 On ch=8 n=50 v=127
97379 On ch=8 n=50 v=0
97380 On ch=8 n=56 v=127
97409 On ch=8 n=56 v=0
97410 On ch=8 n=56 v=127
97439 On ch=8 n=56 v=0
97440 On ch=8 n=55 v=127
97469 On ch=8 n=55 v=0
97470 On ch=8 n=55 v=127
97499 On ch=8 n=55 v=0
97500 On ch=8 n=58 v=127
97529 On ch=8 n=58 v=0
97530 On ch=8 n=58 v=127
97559 On ch=8 n=58 v=0
97560 On ch=8 n=51 v=127
97589 On ch=8 n=51 v=0
97590 On ch=8 n=51 v=127
97619 On ch=8 n=51 v=0
97620 On ch=8 n=58 v=127
97649 On ch=8 n=58 v=0
97650 On ch=8 n=58 v=127
97679 On ch=8 n=58 v=0
97680 On ch=8 n=57 v=127
97709 On ch=8 n=57 v=0
97710 On ch=8 n=57 v=127
97739 On ch=8 n=57 v=0
97740 On ch=8 n=60 v=127
97769 On ch=8 n=60 v=0
97770 On ch=8 n=60 v=127
97799 On ch=8 n=60 v=0
97800 On ch=8 n=53 v=127
97829 On ch=8 n=53 v=0
97830 On ch=8 n=53 v=127
97859 On ch=8 n=53 v=0
97860 On ch=8 n=60 v=127
97889 On ch=8 n=60 v=0
97890 On ch=8 n=60 v=127
97919 On ch=8 n=60 v=0
97920 On ch=8 n=58 v=127
97949 On ch=8 n=58 v=0
97950 On ch=8 n=58 v=127
97979 On ch=8 n=58 v=0
97980 On ch=8 n=62 v=127
98009 On ch=8 n=62 v=0
98010 On ch=8 n=62 v=127
98039 On ch=8 n=62 v=0
98040 On ch=8 n=55 v=127
98069 On ch=8 n=55 v=0
98070 On ch=8 n=67 v=127
98099 On ch=8 n=67 v=0
98100 On ch=8 n=67 v=127
98129 On ch=8 n=67 v=0
98130 On ch=8 n=67 v=127
98159 On ch=8 n=67 v=0
98160 On ch=8 n=67 v=127
98189 On ch=8 n=67 v=0
98190 On ch=8 n=67 v=127
98219 On ch=8 n=67 v=0
98220 On ch=8 n=67 v=127
98249 On ch=8 n=67 v=0
98250 On ch=8 n=67 v=127
98279 On ch=8 n=67 v=0
98280 On ch=8 n=66 v=127
98339 On ch=8 n=66 v=0
98400 On ch=8 n=66 v=127
98459 On ch=8 n=66 v=0
98520 On ch=8 n=67 v=127
98579 On ch=8 n=67 v=0
98760 On ch=8 n=62 v=127
98819 On ch=8 n=62 v=0
98880 On ch=8 n=63 v=127
98939 On ch=8 n=63 v=0
99120 On ch=8 n=64 v=127
99179 On ch=8 n=64 v=0
99240 On ch=8 n=65 v=127
99299 On ch=8 n=65 v=0
99480 On ch=8 n=66 v=127
99539 On ch=8 n=66 v=0
99600 On ch=8 n=67 v=127
99659 On ch=8 n=67 v=0
99840 On ch=8 n=62 v=127
99899 On ch=8 n=62 v=0
99960 On ch=8 n=63 v=127
100019 On ch=8 n=63 v=0
100200 On ch=8 n=64 v=127
100259 On ch=8 n=64 v=0
100440 On ch=8 n=64 v=127
100499 On ch=8 n=64 v=0
100680 On ch=8 n=64 v=127
100739 On ch=8 n=64 v=0
100920 On ch=8 n=64 v=127
100979 On ch=8 n=64 v=0
101160 On ch=8 n=64 v=127
101219 On ch=8 n=64 v=0
101400 On ch=8 n=64 v=127
101459 On ch=8 n=64 v=0
101520 On ch=8 n=53 v=48
101640 On ch=8 n=58 v=48
101649 On ch=8 n=53 v=0
101760 On ch=8 n=62 v=48
101769 On ch=8 n=58 v=0
101879 On ch=8 n=62 v=0
101880 On ch=8 n=54 v=96
101909 On ch=8 n=54 v=0
101910 On ch=8 n=54 v=48
102239 On ch=8 n=54 v=0
102240 On ch=8 n=53 v=48
102360 On ch=8 n=58 v=48
102369 On ch=8 n=53 v=0
102480 On ch=8 n=62 v=48
102489 On ch=8 n=58 v=0
102599 On ch=8 n=62 v=0
102600 On ch=8 n=55 v=96
102629 On ch=8 n=55 v=0
102630 On ch=8 n=55 v=48
103079 On ch=8 n=55 v=0
103140 On ch=8 n=58 v=48
103169 On ch=8 n=58 v=0
103200 On ch=8 n=55 v=48
103229 On ch=8 n=55 v=0
103260 On ch=8 n=51 v=48
103289 On ch=8 n=51 v=0
103320 On ch=8 n=60 v=48
103439 On ch=8 n=60 v=0
103500 On ch=8 n=60 v=48
103529 On ch=8 n=60 v=0
103560 On ch=8 n=56 v=48
103589 On ch=8 n=56 v=0
103620 On ch=8 n=51 v=48
103649 On ch=8 n=51 v=0
103680 On ch=8 n=60 v=48
103799 On ch=8 n=60 v=0
103860 On ch=8 n=60 v=48
103889 On ch=8 n=60 v=0
103920 On ch=8 n=57 v=48
103949 On ch=8 n=57 v=0
103980 On ch=8 n=53 v=48
104009 On ch=8 n=53 v=0
104040 On ch=8 n=62 v=48
104159 On ch=8 n=62 v=0
104220 On ch=8 n=58 v=48
104249 On ch=8 n=58 v=0
104280 On ch=8 n=65 v=48
104309 On ch=8 n=65 v=0
104340 On ch=8 n=62 v=48
104369 On ch=8 n=62 v=0
104400 On ch=8 n=63 v=48
104459 On ch=8 n=63 v=0
104460 On ch=8 n=51 v=52
104519 On ch=8 n=51 v=0
104520 On ch=8 n=63 v=57
104579 On ch=8 n=63 v=0
104580 On ch=8 n=63 v=61
104639 On ch=8 n=63 v=0
104640 On ch=8 n=63 v=66
104699 On ch=8 n=63 v=0
104700 On ch=8 n=63 v=70
104759 On ch=8 n=63 v=0
104760 On ch=8 n=55 v=75
104819 On ch=8 n=55 v=0
104820 On ch=8 n=55 v=79
104879 On ch=8 n=55 v=0
104880 On ch=8 n=55 v=84
104939 On ch=8 n=55 v=0
104940 On ch=8 n=55 v=88
105000 On ch=8 n=59 v=93
105009 On ch=8 n=55 v=0
105060 On ch=8 n=60 v=97
105069 On ch=8 n=59 v=0
105119 On ch=8 n=60 v=0
105120 On ch=8 n=65 v=99
105149 On ch=8 n=65 v=0
105150 On ch=8 n=65 v=100
105179 On ch=8 n=65 v=0
105180 On ch=8 n=65 v=102
105209 On ch=8 n=65 v=0
105210 On ch=8 n=65 v=104
105239 On ch=8 n=65 v=0
105240 On ch=8 n=65 v=106
105269 On ch=8 n=65 v=0
105270 On ch=8 n=65 v=107
105299 On ch=8 n=65 v=0
105300 On ch=8 n=65 v=109
105329 On ch=8 n=65 v=0
105330 On ch=8 n=65 v=111
105359 On ch=8 n=65 v=0
105360 On ch=8 n=62 v=113
105389 On ch=8 n=62 v=0
105390 On ch=8 n=62 v=114
105419 On ch=8 n=62 v=0
105420 On ch=8 n=58 v=116
105449 On ch=8 n=58 v=0
105450 On ch=8 n=58 v=118
105479 On ch=8 n=58 v=0
105480 On ch=8 n=57 v=127
105509 On ch=8 n=57 v=0
105510 On ch=8 n=69 v=127
105539 On ch=8 n=69 v=0
105540 On ch=8 n=69 v=127
105569 On ch=8 n=69 v=0
105570 On ch=8 n=69 v=127
105599 On ch=8 n=69 v=0
105600 On ch=8 n=69 v=127
105629 On ch=8 n=69 v=0
105630 On ch=8 n=69 v=127
105659 On ch=8 n=69 v=0
105660 On ch=8 n=69 v=127
105689 On ch=8 n=69 v=0
105690 On ch=8 n=69 v=127
105719 On ch=8 n=69 v=0
105720 On ch=8 n=69 v=127
105749 On ch=8 n=69 v=0
105750 On ch=8 n=69 v=127
105779 On ch=8 n=69 v=0
105780 On ch=8 n=69 v=127
105809 On ch=8 n=69 v=0
105810 On ch=8 n=69 v=127
105839 On ch=8 n=69 v=0
105840 On ch=8 n=70 v=96
105899 On ch=8 n=70 v=0
105960 On ch=8 n=53 v=96
106019 On ch=8 n=53 v=0
106080 On ch=8 n=50 v=96
106139 On ch=8 n=50 v=0
106320 On ch=8 n=55 v=112
106379 On ch=8 n=55 v=0
106440 On ch=8 n=51 v=96
106499 On ch=8 n=51 v=0
106680 On ch=8 n=53 v=112
106739 On ch=8 n=53 v=0
106800 On ch=8 n=50 v=96
106859 On ch=8 n=50 v=0
106920 On ch=8 n=63 v=96
106920 On ch=8 n=60 v=96
106979 On ch=8 n=60 v=0
106979 On ch=8 n=63 v=0
107040 On ch=8 n=60 v=96
107040 On ch=8 n=63 v=96
107099 On ch=8 n=63 v=0
107099 On ch=8 n=60 v=0
107160 On ch=8 n=63 v=96
107160 On ch=8 n=60 v=96
107219 On ch=8 n=60 v=0
107219 On ch=8 n=63 v=0
107280 On ch=8 n=60 v=96
107280 On ch=8 n=63 v=96
107309 On ch=8 n=63 v=0
107309 On ch=8 n=60 v=0
107310 On ch=8 n=63 v=48
107310 On ch=8 n=60 v=48
107339 On ch=8 n=60 v=0
107339 On ch=8 n=63 v=0
107880 On ch=8 n=50 v=48
107940 On ch=8 n=53 v=48
107949 On ch=8 n=50 v=0
107999 On ch=8 n=53 v=0
108000 On ch=8 n=56 v=48
108240 On ch=8 n=60 v=44
108249 On ch=8 n=56 v=0
108360 On ch=8 n=56 v=40
108369 On ch=8 n=60 v=0
108600 On ch=8 n=53 v=36
108609 On ch=8 n=56 v=0
108719 On ch=8 n=53 v=0
108720 On ch=8 n=50 v=32
108960 On ch=8 n=59 v=32
108969 On ch=8 n=50 v=0
109080 On ch=8 n=57 v=32
109089 On ch=8 n=59 v=0
109320 On ch=8 n=58 v=32
109329 On ch=8 n=57 v=0
109439 On ch=8 n=58 v=0
109440 On ch=8 n=56 v=32
110159 On ch=8 n=56 v=0
110160 On ch=8 n=55 v=32
110879 On ch=8 n=55 v=0
110880 On ch=8 n=56 v=32
111599 On ch=8 n=56 v=0
111600 On ch=8 n=55 v=32
111719 On ch=8 n=55 v=0
111840 On ch=8 n=71 v=32
112199 On ch=8 n=71 v=0
112200 On ch=8 n=65 v=32
112559 On ch=8 n=65 v=0
112560 On ch=8 n=62 v=32
112919 On ch=8 n=62 v=0
112920 On ch=8 n=59 v=32
113160 On ch=8 n=55 v=50
113169 On ch=8 n=59 v=0
113280 On ch=8 n=56 v=70
113289 On ch=8 n=55 v=0
113399 On ch=8 n=56 v=0
113400 On ch=8 n=57 v=96
113759 On ch=8 n=57 v=0
113760 On ch=8 n=59 v=48
113820 On ch=8 n=55 v=48
113829 On ch=8 n=59 v=0
113880 On ch=8 n=59 v=48
113889 On ch=8 n=55 v=0
113940 On ch=8 n=55 v=48
113949 On ch=8 n=59 v=0
114000 On ch=8 n=59 v=48
114009 On ch=8 n=55 v=0
114060 On ch=8 n=55 v=48
114069 On ch=8 n=59 v=0
114119 On ch=8 n=55 v=0
114120 On ch=8 n=59 v=48
114180 On ch=8 n=55 v=48
114189 On ch=8 n=59 v=0
114240 On ch=8 n=59 v=48
114249 On ch=8 n=55 v=0
114300 On ch=8 n=55 v=48
114309 On ch=8 n=59 v=0
114360 On ch=8 n=59 v=48
114369 On ch=8 n=55 v=0
114420 On ch=8 n=55 v=48
114429 On ch=8 n=59 v=0
114479 On ch=8 n=55 v=0
114480 On ch=8 n=62 v=48
114540 On ch=8 n=55 v=48
114549 On ch=8 n=62 v=0
114600 On ch=8 n=62 v=48
114609 On ch=8 n=55 v=0
114660 On ch=8 n=55 v=48
114669 On ch=8 n=62 v=0
114720 On ch=8 n=62 v=48
114729 On ch=8 n=55 v=0
114780 On ch=8 n=55 v=48
114789 On ch=8 n=62 v=0
114839 On ch=8 n=55 v=0
114840 On ch=8 n=62 v=48
114900 On ch=8 n=55 v=48
114909 On ch=8 n=62 v=0
114960 On ch=8 n=59 v=48
114969 On ch=8 n=55 v=0
115020 On ch=8 n=55 v=48
115029 On ch=8 n=59 v=0
115080 On ch=8 n=59 v=48
115089 On ch=8 n=55 v=0
115140 On ch=8 n=55 v=48
115149 On ch=8 n=59 v=0
115199 On ch=8 n=55 v=0
115200 On ch=8 n=60 v=48
115260 On ch=8 n=55 v=48
115269 On ch=8 n=60 v=0
115320 On ch=8 n=60 v=48
115329 On ch=8 n=55 v=0
115380 On ch=8 n=55 v=48
115389 On ch=8 n=60 v=0
115440 On ch=8 n=60 v=48
115449 On ch=8 n=55 v=0
115500 On ch=8 n=55 v=48
115509 On ch=8 n=60 v=0
115559 On ch=8 n=55 v=0
115560 On ch=8 n=60 v=48
115620 On ch=8 n=55 v=48
115629 On ch=8 n=60 v=0
115680 On ch=8 n=60 v=48
115689 On ch=8 n=55 v=0
115740 On ch=8 n=55 v=48
115749 On ch=8 n=60 v=0
115800 On ch=8 n=60 v=48
115809 On ch=8 n=55 v=0
115860 On ch=8 n=55 v=48
115869 On ch=8 n=60 v=0
115919 On ch=8 n=55 v=0
115920 On ch=8 n=60 v=48
115980 On ch=8 n=55 v=48
115989 On ch=8 n=60 v=0
116040 On ch=8 n=60 v=48
116049 On ch=8 n=55 v=0
116100 On ch=8 n=55 v=48
116109 On ch=8 n=60 v=0
116160 On ch=8 n=60 v=48
116169 On ch=8 n=55 v=0
116220 On ch=8 n=55 v=48
116229 On ch=8 n=60 v=0
116279 On ch=8 n=55 v=0
116280 On ch=8 n=60 v=48
116340 On ch=8 n=55 v=48
116349 On ch=8 n=60 v=0
116400 On ch=8 n=60 v=48
116409 On ch=8 n=55 v=0
116460 On ch=8 n=55 v=48
116469 On ch=8 n=60 v=0
116520 On ch=8 n=60 v=48
116529 On ch=8 n=55 v=0
116580 On ch=8 n=55 v=48
116589 On ch=8 n=60 v=0
116639 On ch=8 n=55 v=0
116640 On ch=8 n=59 v=48
116700 On ch=8 n=55 v=48
116709 On ch=8 n=59 v=0
116760 On ch=8 n=59 v=48
116769 On ch=8 n=55 v=0
116820 On ch=8 n=55 v=48
116829 On ch=8 n=59 v=0
116880 On ch=8 n=59 v=48
116889 On ch=8 n=55 v=0
116940 On ch=8 n=55 v=48
116949 On ch=8 n=59 v=0
116999 On ch=8 n=55 v=0
117000 On ch=8 n=59 v=48
117060 On ch=8 n=55 v=48
117069 On ch=8 n=59 v=0
117120 On ch=8 n=62 v=48
117129 On ch=8 n=55 v=0
117180 On ch=8 n=55 v=48
117189 On ch=8 n=62 v=0
117240 On ch=8 n=62 v=48
117249 On ch=8 n=55 v=0
117300 On ch=8 n=55 v=48
117309 On ch=8 n=62 v=0
117359 On ch=8 n=55 v=0
117360 On ch=8 n=62 v=48
117420 On ch=8 n=55 v=48
117429 On ch=8 n=62 v=0
117480 On ch=8 n=59 v=48
117489 On ch=8 n=55 v=0
117540 On ch=8 n=55 v=48
117549 On ch=8 n=59 v=0
117600 On ch=8 n=59 v=48
117609 On ch=8 n=55 v=0
117660 On ch=8 n=55 v=48
117669 On ch=8 n=59 v=0
117719 On ch=8 n=55 v=0
117720 On ch=8 n=59 v=48
117780 On ch=8 n=55 v=48
117789 On ch=8 n=59 v=0
117840 On ch=8 n=62 v=48
117849 On ch=8 n=55 v=0
117900 On ch=8 n=55 v=48
117909 On ch=8 n=62 v=0
117960 On ch=8 n=62 v=48
117969 On ch=8 n=55 v=0
118020 On ch=8 n=55 v=48
118029 On ch=8 n=62 v=0
118079 On ch=8 n=55 v=0
118080 On ch=8 n=60 v=32
118109 On ch=8 n=60 v=0
118110 On ch=8 n=63 v=32
118110 On ch=8 n=60 v=32
118139 On ch=8 n=60 v=0
118139 On ch=8 n=63 v=0
118140 On ch=8 n=63 v=32
118140 On ch=8 n=60 v=32
118169 On ch=8 n=60 v=0
118169 On ch=8 n=63 v=0
118170 On ch=8 n=63 v=32
118170 On ch=8 n=60 v=32
118199 On ch=8 n=60 v=0
118199 On ch=8 n=63 v=0
118200 On ch=8 n=63 v=32
118200 On ch=8 n=60 v=32
118229 On ch=8 n=60 v=0
118229 On ch=8 n=63 v=0
118230 On ch=8 n=63 v=32
118230 On ch=8 n=60 v=32
118259 On ch=8 n=60 v=0
118259 On ch=8 n=63 v=0
118260 On ch=8 n=63 v=32
118260 On ch=8 n=60 v=32
118289 On ch=8 n=60 v=0
118289 On ch=8 n=63 v=0
118290 On ch=8 n=63 v=32
118290 On ch=8 n=60 v=32
118319 On ch=8 n=60 v=0
118319 On ch=8 n=63 v=0
118320 On ch=8 n=63 v=32
118320 On ch=8 n=60 v=32
118349 On ch=8 n=60 v=0
118349 On ch=8 n=63 v=0
118350 On ch=8 n=63 v=32
118350 On ch=8 n=60 v=32
118379 On ch=8 n=60 v=0
118379 On ch=8 n=63 v=0
118380 On ch=8 n=63 v=32
118380 On ch=8 n=60 v=32
118409 On ch=8 n=60 v=0
118409 On ch=8 n=63 v=0
118410 On ch=8 n=63 v=32
118410 On ch=8 n=60 v=32
118439 On ch=8 n=60 v=0
118439 On ch=8 n=63 v=0
118440 On ch=8 n=63 v=32
118440 On ch=8 n=60 v=32
118469 On ch=8 n=60 v=0
118469 On ch=8 n=63 v=0
118470 On ch=8 n=63 v=32
118470 On ch=8 n=60 v=32
118499 On ch=8 n=60 v=0
118499 On ch=8 n=63 v=0
118500 On ch=8 n=63 v=32
118500 On ch=8 n=60 v=32
118529 On ch=8 n=60 v=0
118529 On ch=8 n=63 v=0
118530 On ch=8 n=63 v=32
118530 On ch=8 n=60 v=32
118559 On ch=8 n=60 v=0
118559 On ch=8 n=63 v=0
118560 On ch=8 n=63 v=32
118560 On ch=8 n=60 v=32
118589 On ch=8 n=60 v=0
118589 On ch=8 n=63 v=0
118590 On ch=8 n=63 v=32
118590 On ch=8 n=60 v=32
118619 On ch=8 n=60 v=0
118619 On ch=8 n=63 v=0
118620 On ch=8 n=63 v=32
118620 On ch=8 n=60 v=32
118649 On ch=8 n=60 v=0
118649 On ch=8 n=63 v=0
118650 On ch=8 n=63 v=32
118650 On ch=8 n=60 v=32
118679 On ch=8 n=60 v=0
118679 On ch=8 n=63 v=0
118680 On ch=8 n=63 v=32
118680 On ch=8 n=60 v=32
118709 On ch=8 n=60 v=0
118709 On ch=8 n=63 v=0
118710 On ch=8 n=63 v=32
118710 On ch=8 n=60 v=32
118739 On ch=8 n=60 v=0
118739 On ch=8 n=63 v=0
118740 On ch=8 n=63 v=32
118740 On ch=8 n=60 v=32
118769 On ch=8 n=60 v=0
118769 On ch=8 n=63 v=0
118770 On ch=8 n=63 v=32
118770 On ch=8 n=60 v=32
118799 On ch=8 n=60 v=0
118799 On ch=8 n=63 v=0
118800 On ch=8 n=63 v=32
118800 On ch=8 n=60 v=32
118829 On ch=8 n=60 v=0
118829 On ch=8 n=63 v=0
118830 On ch=8 n=63 v=32
118830 On ch=8 n=60 v=32
118859 On ch=8 n=60 v=0
118859 On ch=8 n=63 v=0
118860 On ch=8 n=63 v=32
118860 On ch=8 n=60 v=32
118889 On ch=8 n=60 v=0
118889 On ch=8 n=63 v=0
118890 On ch=8 n=63 v=32
118890 On ch=8 n=60 v=32
118919 On ch=8 n=60 v=0
118919 On ch=8 n=63 v=0
118920 On ch=8 n=63 v=32
118920 On ch=8 n=60 v=32
118949 On ch=8 n=60 v=0
118949 On ch=8 n=63 v=0
118950 On ch=8 n=63 v=32
118950 On ch=8 n=60 v=32
118979 On ch=8 n=60 v=0
118979 On ch=8 n=63 v=0
118980 On ch=8 n=63 v=32
118980 On ch=8 n=60 v=32
119009 On ch=8 n=60 v=0
119009 On ch=8 n=63 v=0
119010 On ch=8 n=63 v=32
119010 On ch=8 n=60 v=32
119039 On ch=8 n=60 v=0
119039 On ch=8 n=63 v=0
119040 On ch=8 n=63 v=32
119040 On ch=8 n=60 v=32
119069 On ch=8 n=60 v=0
119069 On ch=8 n=63 v=0
119070 On ch=8 n=63 v=32
119070 On ch=8 n=60 v=32
119099 On ch=8 n=60 v=0
119099 On ch=8 n=63 v=0
119100 On ch=8 n=63 v=32
119100 On ch=8 n=60 v=32
119129 On ch=8 n=60 v=0
119129 On ch=8 n=63 v=0
119130 On ch=8 n=63 v=32
119130 On ch=8 n=60 v=32
119159 On ch=8 n=60 v=0
119159 On ch=8 n=63 v=0
119160 On ch=8 n=63 v=34
119160 On ch=8 n=60 v=34
119189 On ch=8 n=60 v=0
119189 On ch=8 n=63 v=0
119190 On ch=8 n=63 v=35
119190 On ch=8 n=60 v=35
119219 On ch=8 n=60 v=0
119219 On ch=8 n=63 v=0
119220 On ch=8 n=63 v=36
119220 On ch=8 n=60 v=36
119249 On ch=8 n=60 v=0
119249 On ch=8 n=63 v=0
119250 On ch=8 n=63 v=37
119250 On ch=8 n=60 v=37
119279 On ch=8 n=60 v=0
119279 On ch=8 n=63 v=0
119280 On ch=8 n=63 v=39
119280 On ch=8 n=60 v=39
119309 On ch=8 n=60 v=0
119309 On ch=8 n=63 v=0
119310 On ch=8 n=63 v=40
119310 On ch=8 n=60 v=40
119339 On ch=8 n=60 v=0
119339 On ch=8 n=63 v=0
119340 On ch=8 n=63 v=41
119340 On ch=8 n=60 v=41
119369 On ch=8 n=60 v=0
119369 On ch=8 n=63 v=0
119370 On ch=8 n=63 v=42
119370 On ch=8 n=60 v=42
119399 On ch=8 n=60 v=0
119399 On ch=8 n=63 v=0
119400 On ch=8 n=63 v=44
119400 On ch=8 n=60 v=44
119429 On ch=8 n=60 v=0
119429 On ch=8 n=63 v=0
119430 On ch=8 n=63 v=45
119430 On ch=8 n=60 v=45
119459 On ch=8 n=60 v=0
119459 On ch=8 n=63 v=0
119460 On ch=8 n=63 v=46
119460 On ch=8 n=60 v=45
119489 On ch=8 n=60 v=0
119489 On ch=8 n=63 v=0
119490 On ch=8 n=63 v=47
119490 On ch=8 n=60 v=47
119519 On ch=8 n=60 v=0
119519 On ch=8 n=63 v=0
119520 On ch=8 n=64 v=48
119520 On ch=8 n=61 v=48
119549 On ch=8 n=61 v=0
119549 On ch=8 n=64 v=0
119550 On ch=8 n=64 v=48
119550 On ch=8 n=61 v=48
119579 On ch=8 n=61 v=0
119579 On ch=8 n=64 v=0
119580 On ch=8 n=64 v=48
119580 On ch=8 n=61 v=48
119609 On ch=8 n=61 v=0
119609 On ch=8 n=64 v=0
119610 On ch=8 n=64 v=48
119610 On ch=8 n=61 v=48
119639 On ch=8 n=61 v=0
119639 On ch=8 n=64 v=0
119640 On ch=8 n=64 v=48
119640 On ch=8 n=61 v=48
119669 On ch=8 n=61 v=0
119669 On ch=8 n=64 v=0
119670 On ch=8 n=64 v=48
119670 On ch=8 n=61 v=48
119699 On ch=8 n=61 v=0
119699 On ch=8 n=64 v=0
119700 On ch=8 n=64 v=48
119700 On ch=8 n=61 v=48
119729 On ch=8 n=61 v=0
119729 On ch=8 n=64 v=0
119730 On ch=8 n=64 v=48
119730 On ch=8 n=61 v=48
119759 On ch=8 n=61 v=0
119759 On ch=8 n=64 v=0
119760 On ch=8 n=64 v=48
119760 On ch=8 n=61 v=48
119789 On ch=8 n=61 v=0
119789 On ch=8 n=64 v=0
119790 On ch=8 n=64 v=48
119790 On ch=8 n=61 v=48
119819 On ch=8 n=61 v=0
119819 On ch=8 n=64 v=0
119820 On ch=8 n=64 v=48
119820 On ch=8 n=61 v=48
119849 On ch=8 n=61 v=0
119849 On ch=8 n=64 v=0
119850 On ch=8 n=64 v=48
119850 On ch=8 n=61 v=48
119879 On ch=8 n=61 v=0
119879 On ch=8 n=64 v=0
119880 On ch=8 n=64 v=48
119880 On ch=8 n=61 v=48
119909 On ch=8 n=61 v=0
119909 On ch=8 n=64 v=0
119910 On ch=8 n=64 v=48
119910 On ch=8 n=61 v=48
119939 On ch=8 n=61 v=0
119939 On ch=8 n=64 v=0
119940 On ch=8 n=64 v=48
119940 On ch=8 n=61 v=48
119969 On ch=8 n=61 v=0
119969 On ch=8 n=64 v=0
119970 On ch=8 n=64 v=48
119970 On ch=8 n=61 v=48
119999 On ch=8 n=61 v=0
119999 On ch=8 n=64 v=0
120000 On ch=8 n=64 v=48
120000 On ch=8 n=61 v=48
120029 On ch=8 n=61 v=0
120029 On ch=8 n=64 v=0
120030 On ch=8 n=64 v=48
120030 On ch=8 n=61 v=48
120059 On ch=8 n=61 v=0
120059 On ch=8 n=64 v=0
120060 On ch=8 n=64 v=48
120060 On ch=8 n=61 v=48
120089 On ch=8 n=61 v=0
120089 On ch=8 n=64 v=0
120090 On ch=8 n=64 v=48
120090 On ch=8 n=61 v=48
120119 On ch=8 n=61 v=0
120119 On ch=8 n=64 v=0
120120 On ch=8 n=64 v=48
120120 On ch=8 n=61 v=48
120149 On ch=8 n=61 v=0
120149 On ch=8 n=64 v=0
120150 On ch=8 n=64 v=48
120150 On ch=8 n=61 v=48
120179 On ch=8 n=61 v=0
120179 On ch=8 n=64 v=0
120180 On ch=8 n=64 v=48
120180 On ch=8 n=61 v=48
120209 On ch=8 n=61 v=0
120209 On ch=8 n=64 v=0
120210 On ch=8 n=64 v=48
120210 On ch=8 n=61 v=48
120239 On ch=8 n=61 v=0
120239 On ch=8 n=64 v=0
120240 On ch=8 n=64 v=48
120240 On ch=8 n=61 v=48
120269 On ch=8 n=61 v=0
120269 On ch=8 n=64 v=0
120270 On ch=8 n=64 v=48
120270 On ch=8 n=61 v=48
120299 On ch=8 n=61 v=0
120299 On ch=8 n=64 v=0
120300 On ch=8 n=64 v=48
120300 On ch=8 n=61 v=48
120329 On ch=8 n=61 v=0
120329 On ch=8 n=64 v=0
120330 On ch=8 n=64 v=48
120330 On ch=8 n=61 v=48
120359 On ch=8 n=61 v=0
120359 On ch=8 n=64 v=0
120360 On ch=8 n=64 v=48
120360 On ch=8 n=61 v=48
120389 On ch=8 n=61 v=0
120389 On ch=8 n=64 v=0
120390 On ch=8 n=64 v=48
120390 On ch=8 n=61 v=48
120419 On ch=8 n=61 v=0
120419 On ch=8 n=64 v=0
120420 On ch=8 n=64 v=48
120420 On ch=8 n=61 v=48
120449 On ch=8 n=61 v=0
120449 On ch=8 n=64 v=0
120450 On ch=8 n=64 v=48
120450 On ch=8 n=61 v=48
120479 On ch=8 n=61 v=0
120479 On ch=8 n=64 v=0
120480 On ch=8 n=64 v=48
120480 On ch=8 n=61 v=48
120509 On ch=8 n=61 v=0
120509 On ch=8 n=64 v=0
120510 On ch=8 n=64 v=48
120510 On ch=8 n=61 v=48
120539 On ch=8 n=61 v=0
120539 On ch=8 n=64 v=0
120540 On ch=8 n=64 v=48
120540 On ch=8 n=61 v=48
120569 On ch=8 n=61 v=0
120569 On ch=8 n=64 v=0
120570 On ch=8 n=64 v=48
120570 On ch=8 n=61 v=48
120599 On ch=8 n=61 v=0
120599 On ch=8 n=64 v=0
120600 On ch=8 n=64 v=49
120600 On ch=8 n=61 v=49
120629 On ch=8 n=61 v=0
120629 On ch=8 n=64 v=0
120630 On ch=8 n=64 v=56
120630 On ch=8 n=61 v=56
120659 On ch=8 n=61 v=0
120659 On ch=8 n=64 v=0
120660 On ch=8 n=64 v=63
120660 On ch=8 n=61 v=63
120689 On ch=8 n=61 v=0
120689 On ch=8 n=64 v=0
120690 On ch=8 n=64 v=70
120690 On ch=8 n=61 v=70
120719 On ch=8 n=61 v=0
120719 On ch=8 n=64 v=0
120720 On ch=8 n=64 v=76
120720 On ch=8 n=61 v=76
120749 On ch=8 n=61 v=0
120749 On ch=8 n=64 v=0
120750 On ch=8 n=64 v=83
120750 On ch=8 n=61 v=83
120779 On ch=8 n=61 v=0
120779 On ch=8 n=64 v=0
120780 On ch=8 n=64 v=89
120780 On ch=8 n=61 v=89
120809 On ch=8 n=61 v=0
120809 On ch=8 n=64 v=0
120810 On ch=8 n=64 v=95
120810 On ch=8 n=61 v=95
120839 On ch=8 n=61 v=0
120839 On ch=8 n=64 v=0
120840 On ch=8 n=65 v=101
120840 On ch=8 n=61 v=101
120869 On ch=8 n=61 v=0
120869 On ch=8 n=65 v=0
120870 On ch=8 n=65 v=108
120870 On ch=8 n=61 v=108
120899 On ch=8 n=61 v=0
120899 On ch=8 n=65 v=0
120900 On ch=8 n=65 v=115
120900 On ch=8 n=61 v=115
120929 On ch=8 n=61 v=0
120929 On ch=8 n=65 v=0
120930 On ch=8 n=65 v=121
120930 On ch=8 n=61 v=121
120959 On ch=8 n=61 v=0
120959 On ch=8 n=65 v=0
120960 On ch=8 n=62 v=127
121200 On ch=8 n=65 v=127
121209 On ch=8 n=62 v=0
121320 On ch=8 n=62 v=127
121329 On ch=8 n=65 v=0
121560 On ch=8 n=57 v=127
121569 On ch=8 n=62 v=0
121679 On ch=8 n=57 v=0
121680 On ch=8 n=62 v=127
121920 On ch=8 n=65 v=127
121929 On ch=8 n=62 v=0
122040 On ch=8 n=62 v=127
122049 On ch=8 n=65 v=0
122280 On ch=8 n=57 v=127
122289 On ch=8 n=62 v=0
122399 On ch=8 n=57 v=0
122400 On ch=8 n=64 v=127
122640 On ch=8 n=67 v=127
122649 On ch=8 n=64 v=0
122760 On ch=8 n=64 v=127
122769 On ch=8 n=67 v=0
123000 On ch=8 n=57 v=127
123009 On ch=8 n=64 v=0
123119 On ch=8 n=57 v=0
123120 On ch=8 n=64 v=127
123360 On ch=8 n=67 v=127
123369 On ch=8 n=64 v=0
123479 On ch=8 n=67 v=0
123480 On ch=8 n=64 v=127
123720 On ch=8 n=67 v=127
123729 On ch=8 n=64 v=0
123839 On ch=8 n=67 v=0
123840 On ch=8 n=66 v=48
123869 On ch=8 n=66 v=0
123900 On ch=8 n=66 v=48
123929 On ch=8 n=66 v=0
123960 On ch=8 n=66 v=48
123989 On ch=8 n=66 v=0
124260 On ch=8 n=67 v=48
124289 On ch=8 n=67 v=0
124320 On ch=8 n=67 v=48
124349 On ch=8 n=67 v=0
124560 On ch=8 n=72 v=48
124560 On ch=8 n=62 v=48
124679 On ch=8 n=62 v=0
124679 On ch=8 n=72 v=0
124980 On ch=8 n=57 v=94
125039 On ch=8 n=57 v=0
125040 On ch=8 n=57 v=101
125099 On ch=8 n=57 v=0
125100 On ch=8 n=57 v=107
125159 On ch=8 n=57 v=0
125160 On ch=8 n=57 v=114
125219 On ch=8 n=57 v=0
125220 On ch=8 n=57 v=120
125279 On ch=8 n=57 v=0
125280 On ch=8 n=58 v=127
125400 On ch=8 n=55 v=127
125409 On ch=8 n=58 v=0
125520 On ch=8 n=58 v=127
125529 On ch=8 n=55 v=0
125640 On ch=8 n=55 v=127
125649 On ch=8 n=58 v=0
125880 On ch=8 n=50 v=127
125889 On ch=8 n=55 v=0
125999 On ch=8 n=50 v=0
126000 On ch=8 n=55 v=127
126240 On ch=8 n=58 v=127
126249 On ch=8 n=55 v=0
126360 On ch=8 n=55 v=127
126369 On ch=8 n=58 v=0
126600 On ch=8 n=50 v=127
126609 On ch=8 n=55 v=0
126719 On ch=8 n=50 v=0
126720 On ch=8 n=57 v=127
126960 On ch=8 n=60 v=127
126969 On ch=8 n=57 v=0
127080 On ch=8 n=57 v=127
127089 On ch=8 n=60 v=0
127320 On ch=8 n=50 v=127
127329 On ch=8 n=57 v=0
127439 On ch=8 n=50 v=0
127440 On ch=8 n=57 v=127
127680 On ch=8 n=60 v=127
127689 On ch=8 n=57 v=0
127799 On ch=8 n=60 v=0
127800 On ch=8 n=57 v=127
128040 On ch=8 n=60 v=127
128049 On ch=8 n=57 v=0
128159 On ch=8 n=60 v=0
128220 On ch=8 n=65 v=48
128249 On ch=8 n=65 v=0
128280 On ch=8 n=65 v=48
128309 On ch=8 n=65 v=0
128580 On ch=8 n=63 v=48
128609 On ch=8 n=63 v=0
128640 On ch=8 n=63 v=48
128669 On ch=8 n=63 v=0
128880 On ch=8 n=55 v=48
128880 On ch=8 n=65 v=48
128999 On ch=8 n=65 v=0
128999 On ch=8 n=55 v=0
129660 On ch=8 n=72 v=48
129689 On ch=8 n=72 v=0
129720 On ch=8 n=72 v=48
129749 On ch=8 n=72 v=0
130020 On ch=8 n=65 v=48
130049 On ch=8 n=65 v=0
130080 On ch=8 n=65 v=48
130109 On ch=8 n=65 v=0
130380 On ch=8 n=67 v=48
130409 On ch=8 n=67 v=0
130440 On ch=8 n=67 v=52
130469 On ch=8 n=67 v=0
130740 On ch=8 n=64 v=78
130799 On ch=8 n=64 v=0
130800 On ch=8 n=64 v=82
130859 On ch=8 n=64 v=0
130860 On ch=8 n=64 v=86
130919 On ch=8 n=64 v=0
130920 On ch=8 n=64 v=90
130979 On ch=8 n=64 v=0
130980 On ch=8 n=64 v=93
131039 On ch=8 n=64 v=0
131040 On ch=8 n=63 v=96
131069 On ch=8 n=63 v=0
131100 On ch=8 n=72 v=96
131129 On ch=8 n=72 v=0
131160 On ch=8 n=72 v=96
131189 On ch=8 n=72 v=0
131460 On ch=8 n=65 v=96
131489 On ch=8 n=65 v=0
131520 On ch=8 n=65 v=96
131549 On ch=8 n=65 v=0
131820 On ch=8 n=51 v=96
131850 On ch=8 n=53 v=96
131859 On ch=8 n=51 v=0
131879 On ch=8 n=53 v=0
131880 On ch=8 n=51 v=96
131909 On ch=8 n=51 v=0
132180 On ch=8 n=56 v=96
132210 On ch=8 n=58 v=96
132219 On ch=8 n=56 v=0
132239 On ch=8 n=58 v=0
132240 On ch=8 n=56 v=96
132269 On ch=8 n=56 v=0
132480 On ch=8 n=53 v=127
132509 On ch=8 n=53 v=0
132510 On ch=8 n=65 v=127
132539 On ch=8 n=65 v=0
132540 On ch=8 n=65 v=127
132569 On ch=8 n=65 v=0
132570 On ch=8 n=65 v=127
132599 On ch=8 n=65 v=0
132600 On ch=8 n=65 v=127
132629 On ch=8 n=65 v=0
132630 On ch=8 n=65 v=127
132659 On ch=8 n=65 v=0
132660 On ch=8 n=65 v=127
132689 On ch=8 n=65 v=0
132690 On ch=8 n=65 v=127
132719 On ch=8 n=65 v=0
132720 On ch=8 n=65 v=127
132749 On ch=8 n=65 v=0
132750 On ch=8 n=65 v=127
132779 On ch=8 n=65 v=0
132780 On ch=8 n=65 v=127
132809 On ch=8 n=65 v=0
132810 On ch=8 n=65 v=127
132839 On ch=8 n=65 v=0
132840 On ch=8 n=64 v=127
132869 On ch=8 n=64 v=0
132870 On ch=8 n=64 v=127
132899 On ch=8 n=64 v=0
132900 On ch=8 n=64 v=127
132929 On ch=8 n=64 v=0
132930 On ch=8 n=64 v=127
132959 On ch=8 n=64 v=0
132960 On ch=8 n=64 v=127
132989 On ch=8 n=64 v=0
132990 On ch=8 n=64 v=127
133019 On ch=8 n=64 v=0
133020 On ch=8 n=64 v=127
133049 On ch=8 n=64 v=0
133050 On ch=8 n=64 v=127
133079 On ch=8 n=64 v=0
133080 On ch=8 n=64 v=127
133109 On ch=8 n=64 v=0
133110 On ch=8 n=64 v=127
133139 On ch=8 n=64 v=0
133140 On ch=8 n=64 v=127
133169 On ch=8 n=64 v=0
133170 On ch=8 n=64 v=127
133199 On ch=8 n=64 v=0
133200 On ch=8 n=63 v=127
133229 On ch=8 n=63 v=0
133260 On ch=8 n=51 v=48
133320 On ch=8 n=55 v=48
133329 On ch=8 n=51 v=0
133380 On ch=8 n=51 v=48
133389 On ch=8 n=55 v=0
133440 On ch=8 n=55 v=48
133449 On ch=8 n=51 v=0
133500 On ch=8 n=51 v=48
133509 On ch=8 n=55 v=0
133559 On ch=8 n=51 v=0
133560 On ch=8 n=55 v=48
133620 On ch=8 n=51 v=48
133629 On ch=8 n=55 v=0
133680 On ch=8 n=55 v=48
133689 On ch=8 n=51 v=0
133740 On ch=8 n=51 v=48
133749 On ch=8 n=55 v=0
133800 On ch=8 n=55 v=48
133809 On ch=8 n=51 v=0
133860 On ch=8 n=51 v=48
133869 On ch=8 n=55 v=0
133919 On ch=8 n=51 v=0
133920 On ch=8 n=55 v=48
133980 On ch=8 n=51 v=48
133989 On ch=8 n=55 v=0
134040 On ch=8 n=55 v=48
134049 On ch=8 n=51 v=0
134100 On ch=8 n=51 v=48
134109 On ch=8 n=55 v=0
134160 On ch=8 n=55 v=48
134169 On ch=8 n=51 v=0
134220 On ch=8 n=51 v=48
134229 On ch=8 n=55 v=0
134279 On ch=8 n=51 v=0
134280 On ch=8 n=55 v=48
134340 On ch=8 n=51 v=48
134349 On ch=8 n=55 v=0
134400 On ch=8 n=55 v=48
134409 On ch=8 n=51 v=0
134460 On ch=8 n=51 v=48
134469 On ch=8 n=55 v=0
134520 On ch=8 n=55 v=48
134529 On ch=8 n=51 v=0
134580 On ch=8 n=51 v=48
134589 On ch=8 n=55 v=0
134639 On ch=8 n=51 v=0
134640 On ch=8 n=56 v=48
134700 On ch=8 n=51 v=48
134709 On ch=8 n=56 v=0
134760 On ch=8 n=56 v=48
134769 On ch=8 n=51 v=0
134820 On ch=8 n=51 v=48
134829 On ch=8 n=56 v=0
134880 On ch=8 n=56 v=48
134889 On ch=8 n=51 v=0
134940 On ch=8 n=51 v=48
134949 On ch=8 n=56 v=0
134999 On ch=8 n=51 v=0
135000 On ch=8 n=56 v=48
135060 On ch=8 n=51 v=48
135069 On ch=8 n=56 v=0
135120 On ch=8 n=56 v=48
135129 On ch=8 n=51 v=0
135180 On ch=8 n=51 v=48
135189 On ch=8 n=56 v=0
135240 On ch=8 n=56 v=48
135249 On ch=8 n=51 v=0
135300 On ch=8 n=51 v=48
135309 On ch=8 n=56 v=0
135359 On ch=8 n=51 v=0
135360 On ch=8 n=56 v=48
135420 On ch=8 n=51 v=48
135429 On ch=8 n=56 v=0
135480 On ch=8 n=56 v=48
135489 On ch=8 n=51 v=0
135540 On ch=8 n=51 v=48
135549 On ch=8 n=56 v=0
135600 On ch=8 n=56 v=48
135609 On ch=8 n=51 v=0
135660 On ch=8 n=51 v=48
135669 On ch=8 n=56 v=0
135719 On ch=8 n=51 v=0
135720 On ch=8 n=56 v=48
135780 On ch=8 n=51 v=48
135789 On ch=8 n=56 v=0
135840 On ch=8 n=56 v=48
135849 On ch=8 n=51 v=0
135900 On ch=8 n=51 v=48
135909 On ch=8 n=56 v=0
135960 On ch=8 n=56 v=48
135969 On ch=8 n=51 v=0
136020 On ch=8 n=51 v=48
136029 On ch=8 n=56 v=0
136079 On ch=8 n=51 v=0
136080 On ch=8 n=58 v=48
136140 On ch=8 n=51 v=48
136149 On ch=8 n=58 v=0
136199 On ch=8 n=51 v=0
136200 On ch=8 n=55 v=48
136260 On ch=8 n=51 v=48
136269 On ch=8 n=55 v=0
136320 On ch=8 n=55 v=48
136329 On ch=8 n=51 v=0
136380 On ch=8 n=51 v=48
136389 On ch=8 n=55 v=0
136439 On ch=8 n=51 v=0
136440 On ch=8 n=55 v=48
136500 On ch=8 n=51 v=48
136509 On ch=8 n=55 v=0
136560 On ch=8 n=55 v=48
136569 On ch=8 n=51 v=0
136620 On ch=8 n=51 v=48
136629 On ch=8 n=55 v=0
136680 On ch=8 n=55 v=48
136689 On ch=8 n=51 v=0
136740 On ch=8 n=51 v=48
136749 On ch=8 n=55 v=0
136799 On ch=8 n=51 v=0
136800 On ch=8 n=55 v=48
136860 On ch=8 n=51 v=48
136869 On ch=8 n=55 v=0
136920 On ch=8 n=55 v=48
136929 On ch=8 n=51 v=0
136980 On ch=8 n=51 v=48
136989 On ch=8 n=55 v=0
137040 On ch=8 n=55 v=48
137049 On ch=8 n=51 v=0
137100 On ch=8 n=51 v=48
137109 On ch=8 n=55 v=0
137159 On ch=8 n=51 v=0
137160 On ch=8 n=55 v=48
137220 On ch=8 n=51 v=48
137229 On ch=8 n=55 v=0
137280 On ch=8 n=55 v=48
137289 On ch=8 n=51 v=0
137340 On ch=8 n=51 v=48
137349 On ch=8 n=55 v=0
137400 On ch=8 n=55 v=48
137409 On ch=8 n=51 v=0
137460 On ch=8 n=51 v=48
137469 On ch=8 n=55 v=0
137519 On ch=8 n=51 v=0
137520 On ch=8 n=56 v=48
137639 On ch=8 n=56 v=0
137880 On ch=8 n=48 v=96
137909 On ch=8 n=48 v=0
137910 On ch=8 n=48 v=48
138299 On ch=8 n=48 v=0
138300 On ch=8 n=50 v=48
138329 On ch=8 n=50 v=0
138360 On ch=8 n=52 v=48
138389 On ch=8 n=52 v=0
138420 On ch=8 n=53 v=48
138449 On ch=8 n=53 v=0
138480 On ch=8 n=55 v=48
138509 On ch=8 n=55 v=0
138540 On ch=8 n=56 v=48
138569 On ch=8 n=56 v=0
138600 On ch=8 n=58 v=48
138720 On ch=8 n=56 v=48
138729 On ch=8 n=58 v=0
138780 On ch=8 n=55 v=48
138789 On ch=8 n=56 v=0
138840 On ch=8 n=53 v=48
138849 On ch=8 n=55 v=0
138900 On ch=8 n=52 v=48
138909 On ch=8 n=53 v=0
138959 On ch=8 n=52 v=0
138960 On ch=8 n=53 v=48
139079 On ch=8 n=53 v=0
139080 On ch=8 n=65 v=96
139109 On ch=8 n=65 v=0
139110 On ch=8 n=65 v=48
139259 On ch=8 n=65 v=0
139260 On ch=8 n=56 v=48
139319 On ch=8 n=56 v=0
139320 On ch=8 n=55 v=48
139439 On ch=8 n=55 v=0
139440 On ch=8 n=63 v=96
139469 On ch=8 n=63 v=0
139470 On ch=8 n=63 v=48
139619 On ch=8 n=63 v=0
139620 On ch=8 n=63 v=48
139679 On ch=8 n=63 v=0
139680 On ch=8 n=63 v=48
139710 On ch=8 n=60 v=48
139719 On ch=8 n=63 v=0
139740 On ch=8 n=59 v=48
139749 On ch=8 n=60 v=0
139770 On ch=8 n=60 v=48
139779 On ch=8 n=59 v=0
139799 On ch=8 n=60 v=0
139800 On ch=8 n=62 v=48
139829 On ch=8 n=62 v=0
139860 On ch=8 n=59 v=48
139889 On ch=8 n=59 v=0
139920 On ch=8 n=60 v=48
139949 On ch=8 n=60 v=0
139980 On ch=8 n=62 v=48
140009 On ch=8 n=62 v=0
140040 On ch=8 n=63 v=48
140069 On ch=8 n=63 v=0
140100 On ch=8 n=63 v=48
140130 On ch=8 n=62 v=48
140139 On ch=8 n=63 v=0
140159 On ch=8 n=62 v=0
140160 On ch=8 n=63 v=48
140189 On ch=8 n=63 v=0
140220 On ch=8 n=66 v=48
140249 On ch=8 n=66 v=0
140280 On ch=8 n=67 v=48
140309 On ch=8 n=67 v=0
140340 On ch=8 n=69 v=48
140369 On ch=8 n=69 v=0
140400 On ch=8 n=70 v=48
140519 On ch=8 n=70 v=0
141240 On ch=8 n=62 v=48
141299 On ch=8 n=62 v=0
141360 On ch=8 n=67 v=96
141539 On ch=8 n=67 v=0
141540 On ch=8 n=60 v=53
141569 On ch=8 n=60 v=0
141600 On ch=8 n=67 v=55
141629 On ch=8 n=67 v=0
141660 On ch=8 n=55 v=58
141689 On ch=8 n=55 v=0
141720 On ch=8 n=55 v=60
141749 On ch=8 n=55 v=0
141780 On ch=8 n=53 v=63
141809 On ch=8 n=53 v=0
141840 On ch=8 n=52 v=65
141899 On ch=8 n=52 v=0
141960 On ch=8 n=64 v=112
142139 On ch=8 n=64 v=0
142140 On ch=8 n=64 v=78
142199 On ch=8 n=64 v=0
142200 On ch=8 n=65 v=80
142319 On ch=8 n=65 v=0
142380 On ch=8 n=53 v=83
142410 On ch=8 n=52 v=84
142419 On ch=8 n=53 v=0
142439 On ch=8 n=52 v=0
142440 On ch=8 n=53 v=85
142469 On ch=8 n=53 v=0
142500 On ch=8 n=52 v=88
142529 On ch=8 n=52 v=0
142560 On ch=8 n=50 v=90
142679 On ch=8 n=50 v=0
142740 On ch=8 n=52 v=103
142770 On ch=8 n=50 v=104
142779 On ch=8 n=52 v=0
142799 On ch=8 n=50 v=0
142800 On ch=8 n=52 v=105
142829 On ch=8 n=52 v=0
142860 On ch=8 n=49 v=108
142889 On ch=8 n=49 v=0
142920 On ch=8 n=53 v=110
142949 On ch=8 n=53 v=0
142980 On ch=8 n=69 v=113
143009 On ch=8 n=69 v=0
143040 On ch=8 n=65 v=115
143069 On ch=8 n=65 v=0
143100 On ch=8 n=64 v=118
143129 On ch=8 n=64 v=0
143160 On ch=8 n=62 v=120
143189 On ch=8 n=62 v=0
143220 On ch=8 n=60 v=123
143249 On ch=8 n=60 v=0
143280 On ch=8 n=59 v=125
143399 On ch=8 n=59 v=0
143400 On ch=8 n=56 v=127
144119 On ch=8 n=56 v=0
144120 On ch=8 n=53 v=127
144359 On ch=8 n=53 v=0
144360 On ch=8 n=53 v=127
144599 On ch=8 n=53 v=0
144600 On ch=8 n=53 v=127
144839 On ch=8 n=53 v=0
144840 On ch=8 n=53 v=127
145079 On ch=8 n=53 v=0
145080 On ch=8 n=53 v=127
145319 On ch=8 n=53 v=0
145320 On ch=8 n=53 v=127
145439 On ch=8 n=53 v=0
145440 On ch=8 n=52 v=127
146279 On ch=8 n=52 v=0
146280 On ch=8 n=52 v=127
146519 On ch=8 n=52 v=0
146520 On ch=8 n=52 v=127
146759 On ch=8 n=52 v=0
146760 On ch=8 n=52 v=127
146999 On ch=8 n=52 v=0
147000 On ch=8 n=52 v=127
147239 On ch=8 n=52 v=0
147240 On ch=8 n=52 v=127
147479 On ch=8 n=52 v=0
147480 On ch=8 n=52 v=127
147599 On ch=8 n=52 v=0
147600 On ch=8 n=54 v=127
148439 On ch=8 n=54 v=0
148440 On ch=8 n=54 v=127
148679 On ch=8 n=54 v=0
148680 On ch=8 n=51 v=127
148919 On ch=8 n=51 v=0
148920 On ch=8 n=54 v=127
149159 On ch=8 n=54 v=0
149160 On ch=8 n=54 v=127
149399 On ch=8 n=54 v=0
149400 On ch=8 n=51 v=127
149639 On ch=8 n=51 v=0
149640 On ch=8 n=54 v=127
149759 On ch=8 n=54 v=0
149760 On ch=8 n=49 v=127
150599 On ch=8 n=49 v=0
150600 On ch=8 n=49 v=127
150839 On ch=8 n=49 v=0
150840 On ch=8 n=55 v=127
151079 On ch=8 n=55 v=0
151080 On ch=8 n=49 v=127
151319 On ch=8 n=49 v=0
151320 On ch=8 n=49 v=127
151559 On ch=8 n=49 v=0
151560 On ch=8 n=55 v=127
151799 On ch=8 n=55 v=0
151800 On ch=8 n=49 v=127
151919 On ch=8 n=49 v=0
151920 On ch=8 n=48 v=127
151979 On ch=8 n=48 v=0
152040 On ch=8 n=60 v=127
152279 On ch=8 n=60 v=0
152280 On ch=8 n=60 v=127
152519 On ch=8 n=60 v=0
152520 On ch=8 n=60 v=127
152639 On ch=8 n=60 v=0
152640 On ch=8 n=48 v=127
152699 On ch=8 n=48 v=0
152760 On ch=8 n=64 v=127
152760 On ch=8 n=60 v=127
152999 On ch=8 n=60 v=0
152999 On ch=8 n=64 v=0
153000 On ch=8 n=60 v=127
153000 On ch=8 n=64 v=127
153239 On ch=8 n=64 v=0
153239 On ch=8 n=60 v=0
153240 On ch=8 n=64 v=127
153240 On ch=8 n=60 v=127
153299 On ch=8 n=60 v=0
153299 On ch=8 n=64 v=0
153360 On ch=8 n=48 v=127
153419 On ch=8 n=48 v=0
153480 On ch=8 n=64 v=96
153480 On ch=8 n=60 v=96
153719 On ch=8 n=60 v=0
153719 On ch=8 n=64 v=0
153840 On ch=8 n=60 v=96
153840 On ch=8 n=64 v=96
154079 On ch=8 n=64 v=0
154079 On ch=8 n=60 v=0
154200 On ch=8 n=64 v=96
154200 On ch=8 n=60 v=96
154439 On ch=8 n=60 v=0
154439 On ch=8 n=64 v=0
154440 On ch=8 n=60 v=96
154440 On ch=8 n=64 v=96
154679 On ch=8 n=64 v=0
154679 On ch=8 n=60 v=0
154680 On ch=8 n=64 v=96
154680 On ch=8 n=60 v=96
154739 On ch=8 n=60 v=0
154739 On ch=8 n=64 v=0
154920 On ch=8 n=54 v=96
154920 On ch=8 n=57 v=96
154979 On ch=8 n=57 v=0
154979 On ch=8 n=54 v=0
155040 On ch=8 n=57 v=96
155040 On ch=8 n=54 v=96
155099 On ch=8 n=54 v=0
155099 On ch=8 n=57 v=0
155160 On ch=8 n=57 v=96
155160 On ch=8 n=54 v=96
155219 On ch=8 n=54 v=0
155219 On ch=8 n=57 v=0
155280 On ch=8 n=54 v=88
155280 On ch=8 n=57 v=88
155339 On ch=8 n=57 v=0
155339 On ch=8 n=54 v=0
155400 On ch=8 n=57 v=80
155400 On ch=8 n=54 v=80
155459 On ch=8 n=54 v=0
155459 On ch=8 n=57 v=0
155520 On ch=8 n=54 v=72
155520 On ch=8 n=57 v=72
155579 On ch=8 n=57 v=0
155579 On ch=8 n=54 v=0
155640 On ch=8 n=57 v=64
155640 On ch=8 n=54 v=64
155699 On ch=8 n=54 v=0
155699 On ch=8 n=57 v=0
155760 On ch=8 n=54 v=56
155760 On ch=8 n=57 v=56
155819 On ch=8 n=57 v=0
155819 On ch=8 n=54 v=0
155880 On ch=8 n=57 v=48
155880 On ch=8 n=54 v=48
155939 On ch=8 n=54 v=0
155939 On ch=8 n=57 v=0
156000 On ch=8 n=54 v=48
156000 On ch=8 n=57 v=48
156059 On ch=8 n=57 v=0
156059 On ch=8 n=54 v=0
156120 On ch=8 n=57 v=48
156120 On ch=8 n=54 v=48
156179 On ch=8 n=54 v=0
156179 On ch=8 n=57 v=0
156240 On ch=8 n=55 v=48
156359 On ch=8 n=55 v=0
159120 On ch=8 n=57 v=48
159179 On ch=8 n=57 v=0
159180 On ch=8 n=52 v=48
159299 On ch=8 n=52 v=0
159300 On ch=8 n=52 v=48
159419 On ch=8 n=52 v=0
159420 On ch=8 n=52 v=48
159539 On ch=8 n=52 v=0
159540 On ch=8 n=52 v=48
159659 On ch=8 n=52 v=0
159660 On ch=8 n=52 v=48
159779 On ch=8 n=52 v=0
159780 On ch=8 n=52 v=48
159899 On ch=8 n=52 v=0
159900 On ch=8 n=64 v=48
160019 On ch=8 n=64 v=0
160020 On ch=8 n=64 v=48
160139 On ch=8 n=64 v=0
160140 On ch=8 n=64 v=48
160259 On ch=8 n=64 v=0
160260 On ch=8 n=64 v=48
160379 On ch=8 n=64 v=0
160380 On ch=8 n=64 v=48
160499 On ch=8 n=64 v=0
160500 On ch=8 n=64 v=48
160619 On ch=8 n=64 v=0
160620 On ch=8 n=52 v=48
160739 On ch=8 n=52 v=0
160740 On ch=8 n=52 v=48
160859 On ch=8 n=52 v=0
160860 On ch=8 n=52 v=48
160979 On ch=8 n=52 v=0
160980 On ch=8 n=52 v=48
161099 On ch=8 n=52 v=0
161100 On ch=8 n=52 v=48
161219 On ch=8 n=52 v=0
161220 On ch=8 n=52 v=48
161339 On ch=8 n=52 v=0
161340 On ch=8 n=64 v=48
161459 On ch=8 n=64 v=0
161460 On ch=8 n=64 v=48
161579 On ch=8 n=64 v=0
161580 On ch=8 n=64 v=48
161699 On ch=8 n=64 v=0
161700 On ch=8 n=52 v=56
161760 On ch=8 n=55 v=64
161769 On ch=8 n=52 v=0
161820 On ch=8 n=53 v=72
161829 On ch=8 n=55 v=0
161880 On ch=8 n=52 v=80
161889 On ch=8 n=53 v=0
161940 On ch=8 n=50 v=88
161949 On ch=8 n=52 v=0
161999 On ch=8 n=50 v=0
162000 On ch=8 n=48 v=96
162119 On ch=8 n=48 v=0
162120 On ch=8 n=60 v=96
162240 On ch=8 n=64 v=96
162249 On ch=8 n=60 v=0
162360 On ch=8 n=60 v=96
162369 On ch=8 n=64 v=0
162600 On ch=8 n=55 v=96
162609 On ch=8 n=60 v=0
162719 On ch=8 n=55 v=0
162720 On ch=8 n=60 v=96
162779 On ch=8 n=60 v=0
162840 On ch=8 n=64 v=96
162899 On ch=8 n=64 v=0
162960 On ch=8 n=67 v=96
163019 On ch=8 n=67 v=0
163080 On ch=8 n=60 v=96
163320 On ch=8 n=55 v=96
163329 On ch=8 n=60 v=0
163439 On ch=8 n=55 v=0
163440 On ch=8 n=60 v=96
163499 On ch=8 n=60 v=0
163560 On ch=8 n=52 v=96
163619 On ch=8 n=52 v=0
163680 On ch=8 n=55 v=96
163739 On ch=8 n=55 v=0
163800 On ch=8 n=60 v=96
163859 On ch=8 n=60 v=0
163920 On ch=8 n=64 v=96
163979 On ch=8 n=64 v=0
164040 On ch=8 n=67 v=112
164219 On ch=8 n=67 v=0
164220 On ch=8 n=65 v=96
164249 On ch=8 n=65 v=0
164280 On ch=8 n=62 v=96
164309 On ch=8 n=62 v=0
164340 On ch=8 n=59 v=96
164369 On ch=8 n=59 v=0
164400 On ch=8 n=55 v=96
164429 On ch=8 n=55 v=0
164460 On ch=8 n=53 v=96
164489 On ch=8 n=53 v=0
164520 On ch=8 n=50 v=96
164549 On ch=8 n=50 v=0
164580 On ch=8 n=65 v=96
164609 On ch=8 n=65 v=0
164640 On ch=8 n=62 v=96
164669 On ch=8 n=62 v=0
164700 On ch=8 n=59 v=96
164729 On ch=8 n=59 v=0
164760 On ch=8 n=55 v=96
164789 On ch=8 n=55 v=0
164820 On ch=8 n=59 v=96
164849 On ch=8 n=59 v=0
164880 On ch=8 n=60 v=96
164939 On ch=8 n=60 v=0
165000 On ch=8 n=51 v=96
165059 On ch=8 n=51 v=0
165120 On ch=8 n=55 v=96
165179 On ch=8 n=55 v=0
165240 On ch=8 n=60 v=96
165299 On ch=8 n=60 v=0
165360 On ch=8 n=63 v=96
165419 On ch=8 n=63 v=0
165480 On ch=8 n=67 v=112
165659 On ch=8 n=67 v=0
165660 On ch=8 n=65 v=96
165689 On ch=8 n=65 v=0
165720 On ch=8 n=62 v=96
165749 On ch=8 n=62 v=0
165780 On ch=8 n=59 v=96
165809 On ch=8 n=59 v=0
165840 On ch=8 n=55 v=96
165869 On ch=8 n=55 v=0
165900 On ch=8 n=53 v=96
165929 On ch=8 n=53 v=0
165960 On ch=8 n=50 v=96
165989 On ch=8 n=50 v=0
166020 On ch=8 n=65 v=96
166049 On ch=8 n=65 v=0
166080 On ch=8 n=62 v=96
166109 On ch=8 n=62 v=0
166140 On ch=8 n=59 v=96
166169 On ch=8 n=59 v=0
166200 On ch=8 n=55 v=96
166229 On ch=8 n=55 v=0
166260 On ch=8 n=59 v=96
166289 On ch=8 n=59 v=0
166320 On ch=8 n=60 v=96
166440 On ch=8 n=51 v=96
166449 On ch=8 n=60 v=0
166560 On ch=8 n=55 v=96
166569 On ch=8 n=51 v=0
166679 On ch=8 n=55 v=0
166680 On ch=8 n=56 v=112
166920 On ch=8 n=48 v=96
166929 On ch=8 n=56 v=0
167039 On ch=8 n=48 v=0
167040 On ch=8 n=49 v=96
167160 On ch=8 n=53 v=96
167169 On ch=8 n=49 v=0
167280 On ch=8 n=57 v=96
167289 On ch=8 n=53 v=0
167399 On ch=8 n=57 v=0
167400 On ch=8 n=58 v=112
167640 On ch=8 n=50 v=96
167649 On ch=8 n=58 v=0
167759 On ch=8 n=50 v=0
167760 On ch=8 n=51 v=96
167819 On ch=8 n=51 v=0
167880 On ch=8 n=55 v=96
167939 On ch=8 n=55 v=0
168000 On ch=8 n=58 v=96
168059 On ch=8 n=58 v=0
168120 On ch=8 n=63 v=96
168179 On ch=8 n=63 v=0
168240 On ch=8 n=67 v=96
168299 On ch=8 n=67 v=0
168360 On ch=8 n=70 v=112
168539 On ch=8 n=70 v=0
168540 On ch=8 n=68 v=96
168569 On ch=8 n=68 v=0
168600 On ch=8 n=65 v=96
168629 On ch=8 n=65 v=0
168660 On ch=8 n=62 v=96
168689 On ch=8 n=62 v=0
168720 On ch=8 n=58 v=96
168749 On ch=8 n=58 v=0
168780 On ch=8 n=56 v=96
168809 On ch=8 n=56 v=0
168840 On ch=8 n=53 v=96
168869 On ch=8 n=53 v=0
168900 On ch=8 n=68 v=96
168929 On ch=8 n=68 v=0
168960 On ch=8 n=65 v=96
168989 On ch=8 n=65 v=0
169020 On ch=8 n=62 v=96
169049 On ch=8 n=62 v=0
169080 On ch=8 n=58 v=96
169109 On ch=8 n=58 v=0
169140 On ch=8 n=62 v=96
169169 On ch=8 n=62 v=0
169200 On ch=8 n=63 v=127
169259 On ch=8 n=63 v=0
169320 On ch=8 n=54 v=127
169379 On ch=8 n=54 v=0
169440 On ch=8 n=58 v=127
169499 On ch=8 n=58 v=0
169560 On ch=8 n=63 v=127
169619 On ch=8 n=63 v=0
169680 On ch=8 n=66 v=127
169739 On ch=8 n=66 v=0
169800 On ch=8 n=70 v=127
169859 On ch=8 n=70 v=0
169920 On ch=8 n=75 v=127
170039 On ch=8 n=75 v=0
171420 On ch=8 n=58 v=48
171539 On ch=8 n=58 v=0
171540 On ch=8 n=58 v=48
171659 On ch=8 n=58 v=0
171660 On ch=8 n=58 v=48
171779 On ch=8 n=58 v=0
171780 On ch=8 n=59 v=48
171899 On ch=8 n=59 v=0
171900 On ch=8 n=59 v=40
172019 On ch=8 n=59 v=0
172020 On ch=8 n=59 v=32
172139 On ch=8 n=59 v=0
172140 On ch=8 n=56 v=34
172259 On ch=8 n=56 v=0
172260 On ch=8 n=56 v=37
172379 On ch=8 n=56 v=0
172380 On ch=8 n=56 v=40
172499 On ch=8 n=56 v=0
172500 On ch=8 n=53 v=42
172619 On ch=8 n=53 v=0
172620 On ch=8 n=53 v=45
172739 On ch=8 n=53 v=0
172740 On ch=8 n=53 v=48
172799 On ch=8 n=53 v=0
172800 On ch=8 n=54 v=48
172860 On ch=8 n=49 v=48
172869 On ch=8 n=54 v=0
172920 On ch=8 n=54 v=48
172929 On ch=8 n=49 v=0
172980 On ch=8 n=49 v=48
172989 On ch=8 n=54 v=0
173040 On ch=8 n=54 v=48
173049 On ch=8 n=49 v=0
173100 On ch=8 n=49 v=48
173109 On ch=8 n=54 v=0
173159 On ch=8 n=49 v=0
173160 On ch=8 n=54 v=48
173220 On ch=8 n=49 v=48
173229 On ch=8 n=54 v=0
173280 On ch=8 n=54 v=48
173289 On ch=8 n=49 v=0
173340 On ch=8 n=49 v=48
173349 On ch=8 n=54 v=0
173400 On ch=8 n=54 v=48
173409 On ch=8 n=49 v=0
173460 On ch=8 n=49 v=48
173469 On ch=8 n=54 v=0
173519 On ch=8 n=49 v=0
173520 On ch=8 n=56 v=48
173580 On ch=8 n=49 v=48
173589 On ch=8 n=56 v=0
173640 On ch=8 n=56 v=48
173649 On ch=8 n=49 v=0
173700 On ch=8 n=49 v=48
173709 On ch=8 n=56 v=0
173760 On ch=8 n=56 v=48
173769 On ch=8 n=49 v=0
173820 On ch=8 n=49 v=48
173829 On ch=8 n=56 v=0
173879 On ch=8 n=49 v=0
173880 On ch=8 n=56 v=48
173940 On ch=8 n=49 v=48
173949 On ch=8 n=56 v=0
174000 On ch=8 n=56 v=48
174009 On ch=8 n=49 v=0
174060 On ch=8 n=49 v=48
174069 On ch=8 n=56 v=0
174120 On ch=8 n=56 v=48
174129 On ch=8 n=49 v=0
174180 On ch=8 n=49 v=48
174189 On ch=8 n=56 v=0
174239 On ch=8 n=49 v=0
174240 On ch=8 n=54 v=48
174299 On ch=8 n=54 v=0
174300 On ch=8 n=61 v=48
174419 On ch=8 n=61 v=0
174420 On ch=8 n=61 v=48
174539 On ch=8 n=61 v=0
174540 On ch=8 n=61 v=48
174659 On ch=8 n=61 v=0
174660 On ch=8 n=61 v=48
174779 On ch=8 n=61 v=0
174780 On ch=8 n=61 v=48
174899 On ch=8 n=61 v=0
174900 On ch=8 n=61 v=48
174960 On ch=8 n=62 v=48
174969 On ch=8 n=61 v=0
175019 On ch=8 n=62 v=0
175020 On ch=8 n=62 v=48
175139 On ch=8 n=62 v=0
175140 On ch=8 n=62 v=48
175259 On ch=8 n=62 v=0
175260 On ch=8 n=62 v=48
175320 On ch=8 n=63 v=48
175329 On ch=8 n=62 v=0
175379 On ch=8 n=63 v=0
175380 On ch=8 n=63 v=48
175499 On ch=8 n=63 v=0
175500 On ch=8 n=63 v=48
175619 On ch=8 n=63 v=0
175620 On ch=8 n=63 v=48
175680 On ch=8 n=62 v=48
175689 On ch=8 n=63 v=0
175799 On ch=8 n=62 v=0
175800 On ch=8 n=62 v=48
175859 On ch=8 n=62 v=0
175920 On ch=8 n=58 v=48
175979 On ch=8 n=58 v=0
176040 On ch=8 n=65 v=48
176099 On ch=8 n=65 v=0
176160 On ch=8 n=58 v=48
176219 On ch=8 n=58 v=0
176280 On ch=8 n=70 v=48
176339 On ch=8 n=70 v=0
176400 On ch=8 n=58 v=48
176459 On ch=8 n=58 v=0
176520 On ch=8 n=74 v=48
176579 On ch=8 n=74 v=0
176640 On ch=8 n=58 v=48
176699 On ch=8 n=58 v=0
176760 On ch=8 n=65 v=96
176789 On ch=8 n=65 v=0
176790 On ch=8 n=65 v=48
177119 On ch=8 n=65 v=0
177120 On ch=8 n=58 v=48
177179 On ch=8 n=58 v=0
177240 On ch=8 n=63 v=48
177299 On ch=8 n=63 v=0
177360 On ch=8 n=58 v=48
177419 On ch=8 n=58 v=0
177480 On ch=8 n=66 v=48
177539 On ch=8 n=66 v=0
177600 On ch=8 n=58 v=48
177659 On ch=8 n=58 v=0
177720 On ch=8 n=70 v=48
177779 On ch=8 n=70 v=0
177840 On ch=8 n=58 v=48
177899 On ch=8 n=58 v=0
177960 On ch=8 n=75 v=48
178019 On ch=8 n=75 v=0
178080 On ch=8 n=58 v=48
178139 On ch=8 n=58 v=0
178200 On ch=8 n=66 v=96
178229 On ch=8 n=66 v=0
178230 On ch=8 n=66 v=48
178559 On ch=8 n=66 v=0
178560 On ch=8 n=48 v=48
178619 On ch=8 n=48 v=0
178680 On ch=8 n=51 v=48
178739 On ch=8 n=51 v=0
178800 On ch=8 n=48 v=48
178859 On ch=8 n=48 v=0
178920 On ch=8 n=56 v=48
178979 On ch=8 n=56 v=0
179040 On ch=8 n=48 v=48
179099 On ch=8 n=48 v=0
179160 On ch=8 n=60 v=48
179219 On ch=8 n=60 v=0
179280 On ch=8 n=48 v=48
179339 On ch=8 n=48 v=0
179400 On ch=8 n=63 v=48
179459 On ch=8 n=63 v=0
179520 On ch=8 n=48 v=48
179579 On ch=8 n=48 v=0
179640 On ch=8 n=68 v=96
179669 On ch=8 n=68 v=0
179670 On ch=8 n=68 v=48
179999 On ch=8 n=68 v=0
180000 On ch=8 n=49 v=48
180059 On ch=8 n=49 v=0
180120 On ch=8 n=53 v=48
180179 On ch=8 n=53 v=0
180240 On ch=8 n=49 v=48
180299 On ch=8 n=49 v=0
180360 On ch=8 n=56 v=48
180419 On ch=8 n=56 v=0
180480 On ch=8 n=49 v=48
180539 On ch=8 n=49 v=0
180600 On ch=8 n=61 v=48
180659 On ch=8 n=61 v=0
180720 On ch=8 n=49 v=48
180779 On ch=8 n=49 v=0
180840 On ch=8 n=65 v=48
180899 On ch=8 n=65 v=0
180960 On ch=8 n=49 v=48
181019 On ch=8 n=49 v=0
181080 On ch=8 n=68 v=96
181109 On ch=8 n=68 v=0
181110 On ch=8 n=68 v=48
181439 On ch=8 n=68 v=0
181440 On ch=8 n=50 v=48
181499 On ch=8 n=50 v=0
181560 On ch=8 n=53 v=49
181619 On ch=8 n=53 v=0
181680 On ch=8 n=50 v=50
181739 On ch=8 n=50 v=0
181800 On ch=8 n=58 v=51
181859 On ch=8 n=58 v=0
181920 On ch=8 n=50 v=48
181979 On ch=8 n=50 v=0
182040 On ch=8 n=62 v=53
182099 On ch=8 n=62 v=0
182160 On ch=8 n=50 v=54
182219 On ch=8 n=50 v=0
182280 On ch=8 n=65 v=55
182339 On ch=8 n=65 v=0
182400 On ch=8 n=50 v=56
182459 On ch=8 n=50 v=0
182520 On ch=8 n=70 v=96
182879 On ch=8 n=70 v=0
182880 On ch=8 n=51 v=60
182939 On ch=8 n=51 v=0
183000 On ch=8 n=54 v=64
183059 On ch=8 n=54 v=0
183120 On ch=8 n=51 v=68
183179 On ch=8 n=51 v=0
183240 On ch=8 n=58 v=72
183299 On ch=8 n=58 v=0
183360 On ch=8 n=51 v=76
183419 On ch=8 n=51 v=0
183480 On ch=8 n=63 v=80
183539 On ch=8 n=63 v=0
183600 On ch=8 n=51 v=84
183659 On ch=8 n=51 v=0
183720 On ch=8 n=66 v=88
183779 On ch=8 n=66 v=0
183840 On ch=8 n=51 v=92
183899 On ch=8 n=51 v=0
183960 On ch=8 n=70 v=96
184319 On ch=8 n=70 v=0
184320 On ch=8 n=59 v=127
184379 On ch=8 n=59 v=0
184440 On ch=8 n=63 v=127
184499 On ch=8 n=63 v=0
184560 On ch=8 n=59 v=127
184619 On ch=8 n=59 v=0
184680 On ch=8 n=66 v=127
184739 On ch=8 n=66 v=0
184800 On ch=8 n=59 v=127
184859 On ch=8 n=59 v=0
184920 On ch=8 n=71 v=127
184979 On ch=8 n=71 v=0
185040 On ch=8 n=59 v=127
185099 On ch=8 n=59 v=0
185160 On ch=8 n=75 v=127
185219 On ch=8 n=75 v=0
185280 On ch=8 n=59 v=127
185339 On ch=8 n=59 v=0
185400 On ch=8 n=78 v=127
185429 On ch=8 n=78 v=0
185460 On ch=8 n=75 v=127
185489 On ch=8 n=75 v=0
185520 On ch=8 n=71 v=127
185549 On ch=8 n=71 v=0
185580 On ch=8 n=66 v=127
185609 On ch=8 n=66 v=0
185640 On ch=8 n=63 v=127
185669 On ch=8 n=63 v=0
185700 On ch=8 n=66 v=127
185729 On ch=8 n=66 v=0
185760 On ch=8 n=59 v=127
185879 On ch=8 n=59 v=0
186840 On ch=8 n=59 v=96
186960 On ch=8 n=63 v=96
186969 On ch=8 n=59 v=0
187080 On ch=8 n=66 v=96
187089 On ch=8 n=63 v=0
187199 On ch=8 n=66 v=0
188280 On ch=8 n=48 v=48
188400 On ch=8 n=51 v=48
188409 On ch=8 n=48 v=0
188520 On ch=8 n=57 v=48
188529 On ch=8 n=51 v=0
188639 On ch=8 n=57 v=0
188820 On ch=8 n=50 v=46
188880 On ch=8 n=53 v=45
188889 On ch=8 n=50 v=0
188940 On ch=8 n=58 v=45
188949 On ch=8 n=53 v=0
188999 On ch=8 n=58 v=0
189180 On ch=8 n=50 v=42
189240 On ch=8 n=53 v=41
189249 On ch=8 n=50 v=0
189300 On ch=8 n=58 v=41
189309 On ch=8 n=53 v=0
189359 On ch=8 n=58 v=0
189540 On ch=8 n=51 v=38
189600 On ch=8 n=54 v=37
189609 On ch=8 n=51 v=0
189660 On ch=8 n=58 v=37
189669 On ch=8 n=54 v=0
189719 On ch=8 n=58 v=0
189900 On ch=8 n=51 v=34
189960 On ch=8 n=54 v=33
189969 On ch=8 n=51 v=0
190020 On ch=8 n=58 v=33
190029 On ch=8 n=54 v=0
190079 On ch=8 n=58 v=0
196560 On ch=8 n=58 v=96
196589 On ch=8 n=58 v=0
196590 On ch=8 n=65 v=96
196619 On ch=8 n=65 v=0
196620 On ch=8 n=65 v=96
196649 On ch=8 n=65 v=0
196650 On ch=8 n=65 v=96
196679 On ch=8 n=65 v=0
196680 On ch=8 n=65 v=96
196709 On ch=8 n=65 v=0
196710 On ch=8 n=65 v=96
196739 On ch=8 n=65 v=0
196740 On ch=8 n=65 v=96
196769 On ch=8 n=65 v=0
196770 On ch=8 n=65 v=96
196799 On ch=8 n=65 v=0
196800 On ch=8 n=65 v=96
196829 On ch=8 n=65 v=0
196830 On ch=8 n=65 v=96
196859 On ch=8 n=65 v=0
196860 On ch=8 n=65 v=96
196889 On ch=8 n=65 v=0
196890 On ch=8 n=65 v=96
196919 On ch=8 n=65 v=0
196920 On ch=8 n=70 v=127
196949 On ch=8 n=70 v=0
196950 On ch=8 n=70 v=127
196979 On ch=8 n=70 v=0
196980 On ch=8 n=70 v=127
197009 On ch=8 n=70 v=0
197010 On ch=8 n=70 v=127
197039 On ch=8 n=70 v=0
197040 On ch=8 n=70 v=127
197069 On ch=8 n=70 v=0
197070 On ch=8 n=70 v=127
197099 On ch=8 n=70 v=0
197100 On ch=8 n=70 v=127
197129 On ch=8 n=70 v=0
197130 On ch=8 n=70 v=127
197159 On ch=8 n=70 v=0
197160 On ch=8 n=70 v=127
197189 On ch=8 n=70 v=0
197190 On ch=8 n=70 v=127
197219 On ch=8 n=70 v=0
197220 On ch=8 n=70 v=127
197249 On ch=8 n=70 v=0
197250 On ch=8 n=70 v=127
197279 On ch=8 n=70 v=0
197280 On ch=8 n=63 v=127
197309 On ch=8 n=63 v=0
197310 On ch=8 n=63 v=48
197339 On ch=8 n=63 v=0
197340 On ch=8 n=58 v=48
197399 On ch=8 n=58 v=0
197400 On ch=8 n=58 v=48
197459 On ch=8 n=58 v=0
197460 On ch=8 n=58 v=48
197519 On ch=8 n=58 v=0
197520 On ch=8 n=58 v=48
197579 On ch=8 n=58 v=0
197580 On ch=8 n=58 v=48
197639 On ch=8 n=58 v=0
197640 On ch=8 n=58 v=48
197699 On ch=8 n=58 v=0
197700 On ch=8 n=58 v=48
197759 On ch=8 n=58 v=0
197760 On ch=8 n=58 v=48
197819 On ch=8 n=58 v=0
197820 On ch=8 n=58 v=48
197879 On ch=8 n=58 v=0
197880 On ch=8 n=58 v=48
197939 On ch=8 n=58 v=0
197940 On ch=8 n=58 v=48
197999 On ch=8 n=58 v=0
198000 On ch=8 n=58 v=48
198059 On ch=8 n=58 v=0
198060 On ch=8 n=58 v=48
198119 On ch=8 n=58 v=0
198120 On ch=8 n=58 v=48
198179 On ch=8 n=58 v=0
198180 On ch=8 n=58 v=48
198239 On ch=8 n=58 v=0
198240 On ch=8 n=58 v=48
198299 On ch=8 n=58 v=0
198300 On ch=8 n=58 v=48
198359 On ch=8 n=58 v=0
198360 On ch=8 n=58 v=48
198419 On ch=8 n=58 v=0
198420 On ch=8 n=58 v=48
198479 On ch=8 n=58 v=0
198480 On ch=8 n=58 v=48
198539 On ch=8 n=58 v=0
198540 On ch=8 n=58 v=48
198599 On ch=8 n=58 v=0
198600 On ch=8 n=58 v=48
198659 On ch=8 n=58 v=0
198660 On ch=8 n=58 v=48
198719 On ch=8 n=58 v=0
198720 On ch=8 n=58 v=48
198779 On ch=8 n=58 v=0
198780 On ch=8 n=67 v=52
198899 On ch=8 n=67 v=0
198900 On ch=8 n=67 v=60
199019 On ch=8 n=67 v=0
199020 On ch=8 n=67 v=68
199139 On ch=8 n=67 v=0
199140 On ch=8 n=67 v=76
199259 On ch=8 n=67 v=0
199260 On ch=8 n=67 v=88
199379 On ch=8 n=67 v=0
199380 On ch=8 n=67 v=96
199799 On ch=8 n=67 v=0
199800 On ch=8 n=65 v=48
200280 On ch=8 n=64 v=48
200289 On ch=8 n=65 v=0
200400 On ch=8 n=62 v=48
200409 On ch=8 n=64 v=0
200519 On ch=8 n=62 v=0
200520 On ch=8 n=64 v=48
200539 On ch=8 n=64 v=0
200540 On ch=8 n=65 v=48
200559 On ch=8 n=65 v=0
200560 On ch=8 n=64 v=48
200579 On ch=8 n=64 v=0
200580 On ch=8 n=65 v=48
200599 On ch=8 n=65 v=0
200600 On ch=8 n=64 v=48
200619 On ch=8 n=64 v=0
200620 On ch=8 n=65 v=48
200639 On ch=8 n=65 v=0
200640 On ch=8 n=64 v=48
200659 On ch=8 n=64 v=0
200660 On ch=8 n=65 v=48
200679 On ch=8 n=65 v=0
200680 On ch=8 n=64 v=48
200699 On ch=8 n=64 v=0
200700 On ch=8 n=65 v=48
200719 On ch=8 n=65 v=0
200720 On ch=8 n=64 v=48
200739 On ch=8 n=64 v=0
200740 On ch=8 n=65 v=48
200759 On ch=8 n=65 v=0
200760 On ch=8 n=64 v=48
200779 On ch=8 n=64 v=0
200780 On ch=8 n=65 v=48
200809 On ch=8 n=65 v=0
200810 On ch=8 n=64 v=48
200839 On ch=8 n=64 v=0
200840 On ch=8 n=62 v=48
200859 On ch=8 n=62 v=0
200860 On ch=8 n=64 v=48
200879 On ch=8 n=64 v=0
200880 On ch=8 n=65 v=48
200939 On ch=8 n=65 v=0
200940 On ch=8 n=53 v=48
200999 On ch=8 n=53 v=0
201000 On ch=8 n=53 v=48
201059 On ch=8 n=53 v=0
201060 On ch=8 n=53 v=48
201119 On ch=8 n=53 v=0
201120 On ch=8 n=53 v=48
201179 On ch=8 n=53 v=0
201180 On ch=8 n=53 v=48
201239 On ch=8 n=53 v=0
201240 On ch=8 n=53 v=48
201299 On ch=8 n=53 v=0
201300 On ch=8 n=53 v=48
201359 On ch=8 n=53 v=0
201360 On ch=8 n=53 v=48
201419 On ch=8 n=53 v=0
201420 On ch=8 n=53 v=48
201479 On ch=8 n=53 v=0
201480 On ch=8 n=53 v=48
201539 On ch=8 n=53 v=0
201540 On ch=8 n=53 v=48
201599 On ch=8 n=53 v=0
201600 On ch=8 n=53 v=48
201659 On ch=8 n=53 v=0
201660 On ch=8 n=53 v=48
201719 On ch=8 n=53 v=0
201720 On ch=8 n=53 v=48
201779 On ch=8 n=53 v=0
201780 On ch=8 n=53 v=48
201839 On ch=8 n=53 v=0
201840 On ch=8 n=53 v=48
201899 On ch=8 n=53 v=0
201900 On ch=8 n=53 v=48
201959 On ch=8 n=53 v=0
201960 On ch=8 n=53 v=48
202019 On ch=8 n=53 v=0
202020 On ch=8 n=53 v=48
202079 On ch=8 n=53 v=0
202080 On ch=8 n=53 v=48
202139 On ch=8 n=53 v=0
202140 On ch=8 n=53 v=48
202199 On ch=8 n=53 v=0
202200 On ch=8 n=53 v=48
202259 On ch=8 n=53 v=0
202260 On ch=8 n=53 v=48
202319 On ch=8 n=53 v=0
202320 On ch=8 n=52 v=48
202320 On ch=8 n=55 v=48
202379 On ch=8 n=55 v=0
202379 On ch=8 n=52 v=0
202380 On ch=8 n=52 v=48
202380 On ch=8 n=55 v=48
202439 On ch=8 n=55 v=0
202439 On ch=8 n=52 v=0
202440 On ch=8 n=52 v=48
202440 On ch=8 n=55 v=48
202499 On ch=8 n=55 v=0
202499 On ch=8 n=52 v=0
202500 On ch=8 n=52 v=48
202500 On ch=8 n=55 v=48
202559 On ch=8 n=55 v=0
202559 On ch=8 n=52 v=0
202560 On ch=8 n=52 v=48
202560 On ch=8 n=55 v=48
202619 On ch=8 n=55 v=0
202619 On ch=8 n=52 v=0
202620 On ch=8 n=52 v=48
202620 On ch=8 n=55 v=48
202679 On ch=8 n=55 v=0
202679 On ch=8 n=52 v=0
202680 On ch=8 n=52 v=48
202680 On ch=8 n=55 v=48
202739 On ch=8 n=55 v=0
202739 On ch=8 n=52 v=0
202740 On ch=8 n=52 v=48
202740 On ch=8 n=55 v=48
202799 On ch=8 n=55 v=0
202799 On ch=8 n=52 v=0
202800 On ch=8 n=52 v=48
202800 On ch=8 n=55 v=48
202859 On ch=8 n=55 v=0
202859 On ch=8 n=52 v=0
202860 On ch=8 n=52 v=48
202860 On ch=8 n=55 v=48
202919 On ch=8 n=55 v=0
202919 On ch=8 n=52 v=0
202920 On ch=8 n=52 v=48
202920 On ch=8 n=55 v=48
202979 On ch=8 n=55 v=0
202979 On ch=8 n=52 v=0
202980 On ch=8 n=52 v=48
202980 On ch=8 n=55 v=48
203039 On ch=8 n=55 v=0
203039 On ch=8 n=52 v=0
203040 On ch=8 n=53 v=48
203099 On ch=8 n=53 v=0
203100 On ch=8 n=53 v=50
203159 On ch=8 n=53 v=0
203160 On ch=8 n=53 v=52
203219 On ch=8 n=53 v=0
203220 On ch=8 n=53 v=54
203279 On ch=8 n=53 v=0
203280 On ch=8 n=53 v=56
203339 On ch=8 n=53 v=0
203340 On ch=8 n=53 v=58
203399 On ch=8 n=53 v=0
203400 On ch=8 n=53 v=60
203459 On ch=8 n=53 v=0
203460 On ch=8 n=53 v=62
203519 On ch=8 n=53 v=0
203520 On ch=8 n=53 v=64
203579 On ch=8 n=53 v=0
203580 On ch=8 n=53 v=66
203639 On ch=8 n=53 v=0
203640 On ch=8 n=53 v=68
203699 On ch=8 n=53 v=0
203700 On ch=8 n=53 v=70
203759 On ch=8 n=53 v=0
203760 On ch=8 n=53 v=48
203819 On ch=8 n=53 v=0
203820 On ch=8 n=49 v=48
203820 On ch=8 n=53 v=48
203879 On ch=8 n=53 v=0
203879 On ch=8 n=49 v=0
203880 On ch=8 n=53 v=48
203880 On ch=8 n=49 v=48
203939 On ch=8 n=49 v=0
203939 On ch=8 n=53 v=0
203940 On ch=8 n=53 v=48
203940 On ch=8 n=49 v=48
203999 On ch=8 n=49 v=0
203999 On ch=8 n=53 v=0
204000 On ch=8 n=53 v=48
204000 On ch=8 n=49 v=48
204059 On ch=8 n=49 v=0
204059 On ch=8 n=53 v=0
204060 On ch=8 n=53 v=48
204060 On ch=8 n=49 v=48
204119 On ch=8 n=49 v=0
204119 On ch=8 n=53 v=0
204120 On ch=8 n=53 v=48
204120 On ch=8 n=49 v=48
204179 On ch=8 n=49 v=0
204179 On ch=8 n=53 v=0
204180 On ch=8 n=53 v=48
204180 On ch=8 n=49 v=48
204239 On ch=8 n=49 v=0
204239 On ch=8 n=53 v=0
204240 On ch=8 n=53 v=48
204240 On ch=8 n=49 v=48
204299 On ch=8 n=49 v=0
204299 On ch=8 n=53 v=0
204300 On ch=8 n=53 v=48
204300 On ch=8 n=49 v=48
204359 On ch=8 n=49 v=0
204359 On ch=8 n=53 v=0
204360 On ch=8 n=53 v=48
204360 On ch=8 n=49 v=48
204419 On ch=8 n=49 v=0
204419 On ch=8 n=53 v=0
204420 On ch=8 n=53 v=48
204420 On ch=8 n=49 v=48
204479 On ch=8 n=49 v=0
204479 On ch=8 n=53 v=0
204480 On ch=8 n=53 v=48
204480 On ch=8 n=49 v=48
204539 On ch=8 n=49 v=0
204539 On ch=8 n=53 v=0
204540 On ch=8 n=53 v=48
204540 On ch=8 n=49 v=48
204599 On ch=8 n=49 v=0
204599 On ch=8 n=53 v=0
204600 On ch=8 n=53 v=48
204600 On ch=8 n=49 v=48
204659 On ch=8 n=49 v=0
204659 On ch=8 n=53 v=0
204660 On ch=8 n=53 v=48
204660 On ch=8 n=49 v=48
204719 On ch=8 n=49 v=0
204719 On ch=8 n=53 v=0
204720 On ch=8 n=53 v=48
204720 On ch=8 n=49 v=48
204779 On ch=8 n=49 v=0
204779 On ch=8 n=53 v=0
204780 On ch=8 n=53 v=48
204780 On ch=8 n=49 v=48
204839 On ch=8 n=49 v=0
204839 On ch=8 n=53 v=0
204840 On ch=8 n=53 v=48
204840 On ch=8 n=49 v=48
204899 On ch=8 n=49 v=0
204899 On ch=8 n=53 v=0
204900 On ch=8 n=53 v=48
204900 On ch=8 n=49 v=48
204959 On ch=8 n=49 v=0
204959 On ch=8 n=53 v=0
204960 On ch=8 n=53 v=48
204960 On ch=8 n=49 v=48
205019 On ch=8 n=49 v=0
205019 On ch=8 n=53 v=0
205020 On ch=8 n=53 v=48
205020 On ch=8 n=49 v=48
205079 On ch=8 n=49 v=0
205079 On ch=8 n=53 v=0
205080 On ch=8 n=53 v=48
205080 On ch=8 n=49 v=48
205139 On ch=8 n=49 v=0
205139 On ch=8 n=53 v=0
205140 On ch=8 n=53 v=48
205140 On ch=8 n=49 v=48
205199 On ch=8 n=49 v=0
205199 On ch=8 n=53 v=0
205200 On ch=8 n=54 v=48
205200 On ch=8 n=51 v=48
205259 On ch=8 n=51 v=0
205259 On ch=8 n=54 v=0
205260 On ch=8 n=51 v=48
205260 On ch=8 n=54 v=48
205319 On ch=8 n=54 v=0
205319 On ch=8 n=51 v=0
205320 On ch=8 n=54 v=48
205320 On ch=8 n=51 v=48
205379 On ch=8 n=51 v=0
205379 On ch=8 n=54 v=0
205380 On ch=8 n=54 v=48
205380 On ch=8 n=51 v=48
205439 On ch=8 n=51 v=0
205439 On ch=8 n=54 v=0
205440 On ch=8 n=54 v=48
205440 On ch=8 n=51 v=48
205499 On ch=8 n=51 v=0
205499 On ch=8 n=54 v=0
205500 On ch=8 n=54 v=48
205500 On ch=8 n=51 v=48
205559 On ch=8 n=51 v=0
205559 On ch=8 n=54 v=0
205560 On ch=8 n=51 v=48
205560 On ch=8 n=54 v=48
205619 On ch=8 n=54 v=0
205619 On ch=8 n=51 v=0
205620 On ch=8 n=51 v=48
205620 On ch=8 n=54 v=48
205679 On ch=8 n=54 v=0
205679 On ch=8 n=51 v=0
205680 On ch=8 n=51 v=48
205680 On ch=8 n=54 v=48
205739 On ch=8 n=54 v=0
205739 On ch=8 n=51 v=0
205740 On ch=8 n=51 v=48
205740 On ch=8 n=54 v=48
205799 On ch=8 n=54 v=0
205799 On ch=8 n=51 v=0
205800 On ch=8 n=51 v=48
205800 On ch=8 n=54 v=48
205859 On ch=8 n=54 v=0
205859 On ch=8 n=51 v=0
205860 On ch=8 n=51 v=48
205860 On ch=8 n=54 v=48
205919 On ch=8 n=54 v=0
205919 On ch=8 n=51 v=0
205920 On ch=8 n=53 v=48
205920 On ch=8 n=49 v=48
205979 On ch=8 n=49 v=0
205979 On ch=8 n=53 v=0
205980 On ch=8 n=49 v=50
206099 On ch=8 n=49 v=0
206100 On ch=8 n=49 v=54
206219 On ch=8 n=49 v=0
206220 On ch=8 n=49 v=58
206280 On ch=8 n=51 v=56
206289 On ch=8 n=49 v=0
206339 On ch=8 n=51 v=0
206340 On ch=8 n=51 v=52
206459 On ch=8 n=51 v=0
206460 On ch=8 n=51 v=44
206579 On ch=8 n=51 v=0
206580 On ch=8 n=51 v=36
206639 On ch=8 n=51 v=0
206640 On ch=8 n=53 v=32
206760 On ch=8 n=58 v=32
206769 On ch=8 n=53 v=0
206880 On ch=8 n=62 v=32
206889 On ch=8 n=58 v=0
207000 On ch=8 n=58 v=32
207009 On ch=8 n=62 v=0
207240 On ch=8 n=53 v=32
207249 On ch=8 n=58 v=0
207359 On ch=8 n=53 v=0
207360 On ch=8 n=58 v=32
207389 On ch=8 n=58 v=0
207420 On ch=8 n=62 v=34
207449 On ch=8 n=62 v=0
207480 On ch=8 n=65 v=36
207509 On ch=8 n=65 v=0
207540 On ch=8 n=58 v=38
207569 On ch=8 n=58 v=0
207600 On ch=8 n=62 v=40
207629 On ch=8 n=62 v=0
207660 On ch=8 n=65 v=42
207689 On ch=8 n=65 v=0
207720 On ch=8 n=68 v=44
207749 On ch=8 n=68 v=0
207780 On ch=8 n=62 v=46
207809 On ch=8 n=62 v=0
207840 On ch=8 n=65 v=48
207869 On ch=8 n=65 v=0
207900 On ch=8 n=68 v=50
207929 On ch=8 n=68 v=0
207960 On ch=8 n=72 v=52
207989 On ch=8 n=72 v=0
208020 On ch=8 n=70 v=54
208049 On ch=8 n=70 v=0
208080 On ch=8 n=68 v=56
208109 On ch=8 n=68 v=0
208140 On ch=8 n=70 v=58
208169 On ch=8 n=70 v=0
208200 On ch=8 n=68 v=60
208229 On ch=8 n=68 v=0
208260 On ch=8 n=67 v=62
208289 On ch=8 n=67 v=0
208320 On ch=8 n=65 v=64
208349 On ch=8 n=65 v=0
208380 On ch=8 n=63 v=68
208409 On ch=8 n=63 v=0
208440 On ch=8 n=62 v=72
208469 On ch=8 n=62 v=0
208500 On ch=8 n=60 v=76
208529 On ch=8 n=60 v=0
208560 On ch=8 n=58 v=80
208589 On ch=8 n=58 v=0
208620 On ch=8 n=70 v=84
208649 On ch=8 n=70 v=0
208680 On ch=8 n=70 v=88
208709 On ch=8 n=70 v=0
208740 On ch=8 n=70 v=92
208769 On ch=8 n=70 v=0
208800 On ch=8 n=63 v=96
208829 On ch=8 n=63 v=0
208830 On ch=8 n=58 v=96
208830 On ch=8 n=55 v=96
208859 On ch=8 n=55 v=0
208859 On ch=8 n=58 v=0
208860 On ch=8 n=55 v=96
208860 On ch=8 n=58 v=96
208889 On ch=8 n=58 v=0
208889 On ch=8 n=55 v=0
208890 On ch=8 n=58 v=96
208890 On ch=8 n=55 v=96
208919 On ch=8 n=55 v=0
208919 On ch=8 n=58 v=0
208920 On ch=8 n=55 v=96
208920 On ch=8 n=58 v=96
208949 On ch=8 n=58 v=0
208949 On ch=8 n=55 v=0
208950 On ch=8 n=58 v=96
208950 On ch=8 n=55 v=96
208979 On ch=8 n=55 v=0
208979 On ch=8 n=58 v=0
208980 On ch=8 n=55 v=96
208980 On ch=8 n=58 v=96
209009 On ch=8 n=58 v=0
209009 On ch=8 n=55 v=0
209010 On ch=8 n=58 v=96
209010 On ch=8 n=55 v=96
209039 On ch=8 n=55 v=0
209039 On ch=8 n=58 v=0
209040 On ch=8 n=55 v=96
209040 On ch=8 n=58 v=96
209069 On ch=8 n=58 v=0
209069 On ch=8 n=55 v=0
209070 On ch=8 n=58 v=96
209070 On ch=8 n=55 v=96
209099 On ch=8 n=55 v=0
209099 On ch=8 n=58 v=0
209100 On ch=8 n=55 v=96
209100 On ch=8 n=58 v=96
209129 On ch=8 n=58 v=0
209129 On ch=8 n=55 v=0
209130 On ch=8 n=58 v=96
209130 On ch=8 n=55 v=96
209159 On ch=8 n=55 v=0
209159 On ch=8 n=58 v=0
209160 On ch=8 n=55 v=96
209160 On ch=8 n=58 v=96
209189 On ch=8 n=58 v=0
209189 On ch=8 n=55 v=0
209190 On ch=8 n=58 v=96
209190 On ch=8 n=55 v=96
209219 On ch=8 n=55 v=0
209219 On ch=8 n=58 v=0
209220 On ch=8 n=55 v=96
209220 On ch=8 n=58 v=96
209249 On ch=8 n=58 v=0
209249 On ch=8 n=55 v=0
209250 On ch=8 n=58 v=96
209250 On ch=8 n=55 v=96
209279 On ch=8 n=55 v=0
209279 On ch=8 n=58 v=0
209280 On ch=8 n=55 v=96
209280 On ch=8 n=58 v=96
209309 On ch=8 n=58 v=0
209309 On ch=8 n=55 v=0
209310 On ch=8 n=58 v=96
209310 On ch=8 n=55 v=96
209339 On ch=8 n=55 v=0
209339 On ch=8 n=58 v=0
209340 On ch=8 n=55 v=96
209340 On ch=8 n=58 v=96
209369 On ch=8 n=58 v=0
209369 On ch=8 n=55 v=0
209370 On ch=8 n=58 v=96
209370 On ch=8 n=55 v=96
209399 On ch=8 n=55 v=0
209399 On ch=8 n=58 v=0
209400 On ch=8 n=55 v=96
209400 On ch=8 n=58 v=96
209429 On ch=8 n=58 v=0
209429 On ch=8 n=55 v=0
209430 On ch=8 n=58 v=96
209430 On ch=8 n=55 v=96
209459 On ch=8 n=55 v=0
209459 On ch=8 n=58 v=0
209460 On ch=8 n=55 v=96
209460 On ch=8 n=58 v=96
209489 On ch=8 n=58 v=0
209489 On ch=8 n=55 v=0
209490 On ch=8 n=58 v=96
209490 On ch=8 n=55 v=96
209519 On ch=8 n=55 v=0
209519 On ch=8 n=58 v=0
209520 On ch=8 n=55 v=96
209520 On ch=8 n=58 v=96
209549 On ch=8 n=58 v=0
209549 On ch=8 n=55 v=0
209550 On ch=8 n=58 v=96
209550 On ch=8 n=55 v=96
209579 On ch=8 n=55 v=0
209579 On ch=8 n=58 v=0
209580 On ch=8 n=55 v=96
209580 On ch=8 n=58 v=96
209609 On ch=8 n=58 v=0
209609 On ch=8 n=55 v=0
209610 On ch=8 n=58 v=96
209610 On ch=8 n=55 v=96
209639 On ch=8 n=55 v=0
209639 On ch=8 n=58 v=0
209640 On ch=8 n=55 v=96
209640 On ch=8 n=58 v=96
209669 On ch=8 n=58 v=0
209669 On ch=8 n=55 v=0
209670 On ch=8 n=58 v=96
209670 On ch=8 n=55 v=96
209699 On ch=8 n=55 v=0
209699 On ch=8 n=58 v=0
209700 On ch=8 n=55 v=96
209700 On ch=8 n=58 v=96
209729 On ch=8 n=58 v=0
209729 On ch=8 n=55 v=0
209730 On ch=8 n=58 v=96
209730 On ch=8 n=55 v=96
209759 On ch=8 n=55 v=0
209759 On ch=8 n=58 v=0
209760 On ch=8 n=55 v=96
209760 On ch=8 n=58 v=96
209789 On ch=8 n=58 v=0
209789 On ch=8 n=55 v=0
209790 On ch=8 n=58 v=96
209790 On ch=8 n=55 v=96
209819 On ch=8 n=55 v=0
209819 On ch=8 n=58 v=0
209820 On ch=8 n=55 v=96
209820 On ch=8 n=58 v=96
209849 On ch=8 n=58 v=0
209849 On ch=8 n=55 v=0
209850 On ch=8 n=58 v=96
209850 On ch=8 n=55 v=96
209879 On ch=8 n=55 v=0
209879 On ch=8 n=58 v=0
209880 On ch=8 n=55 v=96
209880 On ch=8 n=58 v=96
209909 On ch=8 n=58 v=0
209909 On ch=8 n=55 v=0
209910 On ch=8 n=58 v=96
209910 On ch=8 n=55 v=96
209939 On ch=8 n=55 v=0
209939 On ch=8 n=58 v=0
209940 On ch=8 n=55 v=96
209940 On ch=8 n=58 v=96
209969 On ch=8 n=58 v=0
209969 On ch=8 n=55 v=0
209970 On ch=8 n=58 v=96
209970 On ch=8 n=55 v=96
209999 On ch=8 n=55 v=0
209999 On ch=8 n=58 v=0
210000 On ch=8 n=55 v=96
210000 On ch=8 n=58 v=96
210029 On ch=8 n=58 v=0
210029 On ch=8 n=55 v=0
210030 On ch=8 n=58 v=96
210030 On ch=8 n=55 v=96
210059 On ch=8 n=55 v=0
210059 On ch=8 n=58 v=0
210060 On ch=8 n=55 v=96
210060 On ch=8 n=58 v=96
210089 On ch=8 n=58 v=0
210089 On ch=8 n=55 v=0
210090 On ch=8 n=58 v=96
210090 On ch=8 n=55 v=96
210119 On ch=8 n=55 v=0
210119 On ch=8 n=58 v=0
210120 On ch=8 n=55 v=112
210120 On ch=8 n=61 v=112
210149 On ch=8 n=61 v=0
210149 On ch=8 n=55 v=0
210150 On ch=8 n=61 v=96
210150 On ch=8 n=55 v=96
210179 On ch=8 n=55 v=0
210179 On ch=8 n=61 v=0
210180 On ch=8 n=61 v=96
210180 On ch=8 n=55 v=96
210209 On ch=8 n=55 v=0
210209 On ch=8 n=61 v=0
210210 On ch=8 n=61 v=96
210210 On ch=8 n=55 v=96
210239 On ch=8 n=55 v=0
210239 On ch=8 n=61 v=0
210240 On ch=8 n=56 v=96
210240 On ch=8 n=60 v=96
210269 On ch=8 n=60 v=0
210269 On ch=8 n=56 v=0
210270 On ch=8 n=56 v=96
210270 On ch=8 n=60 v=96
210299 On ch=8 n=60 v=0
210299 On ch=8 n=56 v=0
210300 On ch=8 n=56 v=96
210300 On ch=8 n=60 v=96
210329 On ch=8 n=60 v=0
210329 On ch=8 n=56 v=0
210330 On ch=8 n=56 v=96
210330 On ch=8 n=60 v=96
210359 On ch=8 n=60 v=0
210359 On ch=8 n=56 v=0
210360 On ch=8 n=56 v=96
210360 On ch=8 n=60 v=96
210389 On ch=8 n=60 v=0
210389 On ch=8 n=56 v=0
210390 On ch=8 n=56 v=96
210390 On ch=8 n=60 v=96
210419 On ch=8 n=60 v=0
210419 On ch=8 n=56 v=0
210420 On ch=8 n=56 v=96
210420 On ch=8 n=60 v=96
210449 On ch=8 n=60 v=0
210449 On ch=8 n=56 v=0
210450 On ch=8 n=56 v=96
210450 On ch=8 n=60 v=96
210479 On ch=8 n=60 v=0
210479 On ch=8 n=56 v=0
210480 On ch=8 n=56 v=96
210480 On ch=8 n=60 v=96
210509 On ch=8 n=60 v=0
210509 On ch=8 n=56 v=0
210510 On ch=8 n=56 v=96
210510 On ch=8 n=60 v=96
210539 On ch=8 n=60 v=0
210539 On ch=8 n=56 v=0
210540 On ch=8 n=56 v=96
210540 On ch=8 n=60 v=96
210569 On ch=8 n=60 v=0
210569 On ch=8 n=56 v=0
210570 On ch=8 n=56 v=96
210570 On ch=8 n=60 v=96
210599 On ch=8 n=60 v=0
210599 On ch=8 n=56 v=0
210600 On ch=8 n=56 v=96
210600 On ch=8 n=60 v=96
210629 On ch=8 n=60 v=0
210629 On ch=8 n=56 v=0
210630 On ch=8 n=56 v=96
210630 On ch=8 n=60 v=96
210659 On ch=8 n=60 v=0
210659 On ch=8 n=56 v=0
210660 On ch=8 n=56 v=96
210660 On ch=8 n=60 v=96
210689 On ch=8 n=60 v=0
210689 On ch=8 n=56 v=0
210690 On ch=8 n=56 v=96
210690 On ch=8 n=60 v=96
210719 On ch=8 n=60 v=0
210719 On ch=8 n=56 v=0
210720 On ch=8 n=56 v=96
210720 On ch=8 n=60 v=96
210749 On ch=8 n=60 v=0
210749 On ch=8 n=56 v=0
210750 On ch=8 n=56 v=96
210750 On ch=8 n=60 v=96
210779 On ch=8 n=60 v=0
210779 On ch=8 n=56 v=0
210780 On ch=8 n=56 v=96
210780 On ch=8 n=60 v=96
210809 On ch=8 n=60 v=0
210809 On ch=8 n=56 v=0
210810 On ch=8 n=56 v=96
210810 On ch=8 n=60 v=96
210839 On ch=8 n=60 v=0
210839 On ch=8 n=56 v=0
210840 On ch=8 n=60 v=112
210840 On ch=8 n=57 v=112
210869 On ch=8 n=57 v=0
210869 On ch=8 n=60 v=0
210870 On ch=8 n=57 v=96
210870 On ch=8 n=60 v=96
210899 On ch=8 n=60 v=0
210899 On ch=8 n=57 v=0
210900 On ch=8 n=57 v=96
210900 On ch=8 n=60 v=96
210929 On ch=8 n=60 v=0
210929 On ch=8 n=57 v=0
210930 On ch=8 n=57 v=96
210930 On ch=8 n=60 v=96
210959 On ch=8 n=60 v=0
210959 On ch=8 n=57 v=0
210960 On ch=8 n=58 v=112
210960 On ch=8 n=61 v=112
210989 On ch=8 n=61 v=0
210989 On ch=8 n=58 v=0
210990 On ch=8 n=58 v=112
210990 On ch=8 n=61 v=112
211019 On ch=8 n=61 v=0
211019 On ch=8 n=58 v=0
211020 On ch=8 n=58 v=112
211020 On ch=8 n=61 v=112
211049 On ch=8 n=61 v=0
211049 On ch=8 n=58 v=0
211050 On ch=8 n=58 v=112
211050 On ch=8 n=61 v=112
211079 On ch=8 n=61 v=0
211079 On ch=8 n=58 v=0
211080 On ch=8 n=61 v=112
211080 On ch=8 n=58 v=112
211109 On ch=8 n=58 v=0
211109 On ch=8 n=61 v=0
211110 On ch=8 n=61 v=112
211110 On ch=8 n=58 v=112
211139 On ch=8 n=58 v=0
211139 On ch=8 n=61 v=0
211140 On ch=8 n=61 v=112
211140 On ch=8 n=58 v=112
211169 On ch=8 n=58 v=0
211169 On ch=8 n=61 v=0
211170 On ch=8 n=61 v=112
211170 On ch=8 n=58 v=112
211199 On ch=8 n=58 v=0
211199 On ch=8 n=61 v=0
211200 On ch=8 n=67 v=112
211200 On ch=8 n=58 v=112
211229 On ch=8 n=58 v=0
211229 On ch=8 n=67 v=0
211230 On ch=8 n=58 v=112
211230 On ch=8 n=67 v=112
211259 On ch=8 n=67 v=0
211259 On ch=8 n=58 v=0
211260 On ch=8 n=58 v=112
211260 On ch=8 n=67 v=112
211289 On ch=8 n=67 v=0
211289 On ch=8 n=58 v=0
211290 On ch=8 n=58 v=112
211290 On ch=8 n=67 v=112
211319 On ch=8 n=67 v=0
211319 On ch=8 n=58 v=0
211320 On ch=8 n=63 v=112
211320 On ch=8 n=60 v=112
211349 On ch=8 n=60 v=0
211349 On ch=8 n=63 v=0
211350 On ch=8 n=63 v=112
211350 On ch=8 n=60 v=112
211379 On ch=8 n=60 v=0
211379 On ch=8 n=63 v=0
211380 On ch=8 n=63 v=112
211380 On ch=8 n=60 v=112
211409 On ch=8 n=60 v=0
211409 On ch=8 n=63 v=0
211410 On ch=8 n=63 v=112
211410 On ch=8 n=60 v=112
211439 On ch=8 n=60 v=0
211439 On ch=8 n=63 v=0
211440 On ch=8 n=63 v=112
211440 On ch=8 n=60 v=112
211469 On ch=8 n=60 v=0
211469 On ch=8 n=63 v=0
211470 On ch=8 n=63 v=112
211470 On ch=8 n=60 v=112
211499 On ch=8 n=60 v=0
211499 On ch=8 n=63 v=0
211500 On ch=8 n=63 v=112
211500 On ch=8 n=60 v=112
211529 On ch=8 n=60 v=0
211529 On ch=8 n=63 v=0
211530 On ch=8 n=63 v=112
211530 On ch=8 n=60 v=112
211559 On ch=8 n=60 v=0
211559 On ch=8 n=63 v=0
211560 On ch=8 n=68 v=112
211560 On ch=8 n=60 v=112
211589 On ch=8 n=60 v=0
211589 On ch=8 n=68 v=0
211590 On ch=8 n=68 v=112
211590 On ch=8 n=60 v=112
211619 On ch=8 n=60 v=0
211619 On ch=8 n=68 v=0
211620 On ch=8 n=68 v=112
211620 On ch=8 n=60 v=112
211649 On ch=8 n=60 v=0
211649 On ch=8 n=68 v=0
211650 On ch=8 n=68 v=112
211650 On ch=8 n=60 v=112
211679 On ch=8 n=60 v=0
211679 On ch=8 n=68 v=0
211680 On ch=8 n=65 v=112
211680 On ch=8 n=59 v=112
211709 On ch=8 n=59 v=0
211709 On ch=8 n=65 v=0
211710 On ch=8 n=65 v=112
211710 On ch=8 n=59 v=112
211739 On ch=8 n=59 v=0
211739 On ch=8 n=65 v=0
211740 On ch=8 n=65 v=112
211740 On ch=8 n=59 v=112
211769 On ch=8 n=59 v=0
211769 On ch=8 n=65 v=0
211770 On ch=8 n=65 v=112
211770 On ch=8 n=59 v=112
211799 On ch=8 n=59 v=0
211799 On ch=8 n=65 v=0
211800 On ch=8 n=65 v=112
211800 On ch=8 n=59 v=112
211829 On ch=8 n=59 v=0
211829 On ch=8 n=65 v=0
211830 On ch=8 n=65 v=112
211830 On ch=8 n=59 v=112
211859 On ch=8 n=59 v=0
211859 On ch=8 n=65 v=0
211860 On ch=8 n=65 v=112
211860 On ch=8 n=59 v=112
211889 On ch=8 n=59 v=0
211889 On ch=8 n=65 v=0
211890 On ch=8 n=65 v=112
211890 On ch=8 n=59 v=112
211919 On ch=8 n=59 v=0
211919 On ch=8 n=65 v=0
211920 On ch=8 n=68 v=112
211920 On ch=8 n=59 v=112
211949 On ch=8 n=59 v=0
211949 On ch=8 n=68 v=0
211950 On ch=8 n=68 v=112
211950 On ch=8 n=59 v=112
211979 On ch=8 n=59 v=0
211979 On ch=8 n=68 v=0
211980 On ch=8 n=68 v=112
211980 On ch=8 n=59 v=112
212009 On ch=8 n=59 v=0
212009 On ch=8 n=68 v=0
212010 On ch=8 n=68 v=112
212010 On ch=8 n=59 v=112
212039 On ch=8 n=59 v=0
212039 On ch=8 n=68 v=0
212040 On ch=8 n=65 v=112
212040 On ch=8 n=59 v=112
212069 On ch=8 n=59 v=0
212069 On ch=8 n=65 v=0
212070 On ch=8 n=65 v=112
212070 On ch=8 n=59 v=112
212099 On ch=8 n=59 v=0
212099 On ch=8 n=65 v=0
212100 On ch=8 n=65 v=112
212100 On ch=8 n=59 v=112
212129 On ch=8 n=59 v=0
212129 On ch=8 n=65 v=0
212130 On ch=8 n=65 v=112
212130 On ch=8 n=59 v=112
212159 On ch=8 n=59 v=0
212159 On ch=8 n=65 v=0
212160 On ch=8 n=65 v=112
212160 On ch=8 n=58 v=112
212189 On ch=8 n=58 v=0
212189 On ch=8 n=65 v=0
212190 On ch=8 n=65 v=112
212190 On ch=8 n=58 v=112
212219 On ch=8 n=58 v=0
212219 On ch=8 n=65 v=0
212220 On ch=8 n=65 v=112
212220 On ch=8 n=58 v=112
212249 On ch=8 n=58 v=0
212249 On ch=8 n=65 v=0
212250 On ch=8 n=65 v=112
212250 On ch=8 n=58 v=112
212279 On ch=8 n=58 v=0
212279 On ch=8 n=65 v=0
212280 On ch=8 n=65 v=112
212280 On ch=8 n=58 v=112
212309 On ch=8 n=58 v=0
212309 On ch=8 n=65 v=0
212310 On ch=8 n=65 v=112
212310 On ch=8 n=58 v=112
212339 On ch=8 n=58 v=0
212339 On ch=8 n=65 v=0
212340 On ch=8 n=65 v=112
212340 On ch=8 n=58 v=112
212369 On ch=8 n=58 v=0
212369 On ch=8 n=65 v=0
212370 On ch=8 n=65 v=112
212370 On ch=8 n=58 v=112
212399 On ch=8 n=58 v=0
212399 On ch=8 n=65 v=0
212400 On ch=8 n=58 v=127
212400 On ch=8 n=63 v=127
212459 On ch=8 n=63 v=0
212459 On ch=8 n=58 v=0
212460 On ch=8 n=63 v=127
212519 On ch=8 n=63 v=0
212520 On ch=8 n=63 v=127
212579 On ch=8 n=63 v=0
212580 On ch=8 n=63 v=127
212639 On ch=8 n=63 v=0
212640 On ch=8 n=67 v=127
212699 On ch=8 n=67 v=0
212700 On ch=8 n=67 v=127
212759 On ch=8 n=67 v=0
212760 On ch=8 n=63 v=127
212819 On ch=8 n=63 v=0
212820 On ch=8 n=63 v=127
212879 On ch=8 n=63 v=0
212880 On ch=8 n=63 v=127
212939 On ch=8 n=63 v=0
212940 On ch=8 n=63 v=127
212999 On ch=8 n=63 v=0
213000 On ch=8 n=58 v=127
213059 On ch=8 n=58 v=0
213060 On ch=8 n=58 v=127
213119 On ch=8 n=58 v=0
213120 On ch=8 n=63 v=127
213179 On ch=8 n=63 v=0
213180 On ch=8 n=63 v=127
213239 On ch=8 n=63 v=0
213240 On ch=8 n=67 v=127
213299 On ch=8 n=67 v=0
213300 On ch=8 n=67 v=127
213359 On ch=8 n=67 v=0
213360 On ch=8 n=70 v=127
213419 On ch=8 n=70 v=0
213420 On ch=8 n=70 v=127
213479 On ch=8 n=70 v=0
213480 On ch=8 n=63 v=127
213539 On ch=8 n=63 v=0
213540 On ch=8 n=63 v=127
213599 On ch=8 n=63 v=0
213600 On ch=8 n=63 v=127
213659 On ch=8 n=63 v=0
213660 On ch=8 n=63 v=127
213719 On ch=8 n=63 v=0
213720 On ch=8 n=55 v=127
213779 On ch=8 n=55 v=0
213780 On ch=8 n=55 v=127
213839 On ch=8 n=55 v=0
213840 On ch=8 n=60 v=127
213899 On ch=8 n=60 v=0
213900 On ch=8 n=60 v=127
213959 On ch=8 n=60 v=0
213960 On ch=8 n=63 v=127
214019 On ch=8 n=63 v=0
214020 On ch=8 n=63 v=127
214079 On ch=8 n=63 v=0
214080 On ch=8 n=67 v=127
214139 On ch=8 n=67 v=0
214140 On ch=8 n=67 v=127
214199 On ch=8 n=67 v=0
214200 On ch=8 n=60 v=127
214259 On ch=8 n=60 v=0
214260 On ch=8 n=60 v=127
214319 On ch=8 n=60 v=0
214320 On ch=8 n=60 v=127
214379 On ch=8 n=60 v=0
214380 On ch=8 n=60 v=127
214439 On ch=8 n=60 v=0
214440 On ch=8 n=60 v=127
214499 On ch=8 n=60 v=0
214500 On ch=8 n=60 v=127
214559 On ch=8 n=60 v=0
214560 On ch=8 n=60 v=127
214619 On ch=8 n=60 v=0
214620 On ch=8 n=72 v=127
214679 On ch=8 n=72 v=0
214680 On ch=8 n=72 v=127
214739 On ch=8 n=72 v=0
214740 On ch=8 n=72 v=127
214799 On ch=8 n=72 v=0
214800 On ch=8 n=72 v=127
214859 On ch=8 n=72 v=0
214860 On ch=8 n=72 v=127
214919 On ch=8 n=72 v=0
214920 On ch=8 n=72 v=127
214979 On ch=8 n=72 v=0
214980 On ch=8 n=60 v=127
215039 On ch=8 n=60 v=0
215040 On ch=8 n=60 v=127
215099 On ch=8 n=60 v=0
215100 On ch=8 n=60 v=127
215159 On ch=8 n=60 v=0
215160 On ch=8 n=60 v=127
215219 On ch=8 n=60 v=0
215220 On ch=8 n=60 v=127
215279 On ch=8 n=60 v=0
215280 On ch=8 n=53 v=127
215309 On ch=8 n=53 v=0
215340 On ch=8 n=58 v=48
215400 On ch=8 n=62 v=48
215409 On ch=8 n=58 v=0
215460 On ch=8 n=58 v=48
215469 On ch=8 n=62 v=0
215520 On ch=8 n=62 v=48
215529 On ch=8 n=58 v=0
215580 On ch=8 n=58 v=48
215589 On ch=8 n=62 v=0
215639 On ch=8 n=58 v=0
215640 On ch=8 n=62 v=48
215700 On ch=8 n=58 v=48
215709 On ch=8 n=62 v=0
215760 On ch=8 n=62 v=48
215769 On ch=8 n=58 v=0
215820 On ch=8 n=58 v=48
215829 On ch=8 n=62 v=0
215880 On ch=8 n=62 v=48
215889 On ch=8 n=58 v=0
215940 On ch=8 n=58 v=48
215949 On ch=8 n=62 v=0
215999 On ch=8 n=58 v=0
216000 On ch=8 n=62 v=48
216060 On ch=8 n=58 v=48
216069 On ch=8 n=62 v=0
216120 On ch=8 n=62 v=48
216129 On ch=8 n=58 v=0
216180 On ch=8 n=58 v=48
216189 On ch=8 n=62 v=0
216240 On ch=8 n=62 v=48
216249 On ch=8 n=58 v=0
216300 On ch=8 n=58 v=48
216309 On ch=8 n=62 v=0
216359 On ch=8 n=58 v=0
216360 On ch=8 n=62 v=48
216420 On ch=8 n=58 v=48
216429 On ch=8 n=62 v=0
216480 On ch=8 n=65 v=48
216489 On ch=8 n=58 v=0
216540 On ch=8 n=58 v=48
216549 On ch=8 n=65 v=0
216600 On ch=8 n=62 v=48
216609 On ch=8 n=58 v=0
216660 On ch=8 n=58 v=48
216669 On ch=8 n=62 v=0
216719 On ch=8 n=58 v=0
216720 On ch=8 n=63 v=48
216780 On ch=8 n=58 v=48
216789 On ch=8 n=63 v=0
216840 On ch=8 n=63 v=48
216849 On ch=8 n=58 v=0
216900 On ch=8 n=58 v=48
216909 On ch=8 n=63 v=0
216960 On ch=8 n=63 v=48
216969 On ch=8 n=58 v=0
217020 On ch=8 n=58 v=48
217029 On ch=8 n=63 v=0
217079 On ch=8 n=58 v=0
217080 On ch=8 n=63 v=48
217140 On ch=8 n=58 v=48
217149 On ch=8 n=63 v=0
217200 On ch=8 n=63 v=48
217209 On ch=8 n=58 v=0
217260 On ch=8 n=58 v=48
217269 On ch=8 n=63 v=0
217320 On ch=8 n=63 v=48
217329 On ch=8 n=58 v=0
217380 On ch=8 n=58 v=48
217389 On ch=8 n=63 v=0
217439 On ch=8 n=58 v=0
217440 On ch=8 n=63 v=48
217500 On ch=8 n=58 v=48
217509 On ch=8 n=63 v=0
217560 On ch=8 n=63 v=48
217569 On ch=8 n=58 v=0
217620 On ch=8 n=58 v=48
217629 On ch=8 n=63 v=0
217680 On ch=8 n=63 v=48
217689 On ch=8 n=58 v=0
217740 On ch=8 n=58 v=48
217749 On ch=8 n=63 v=0
217799 On ch=8 n=58 v=0
217800 On ch=8 n=63 v=48
217860 On ch=8 n=58 v=48
217869 On ch=8 n=63 v=0
217920 On ch=8 n=63 v=48
217929 On ch=8 n=58 v=0
217980 On ch=8 n=58 v=48
217989 On ch=8 n=63 v=0
218040 On ch=8 n=63 v=48
218049 On ch=8 n=58 v=0
218100 On ch=8 n=58 v=48
218109 On ch=8 n=63 v=0
218159 On ch=8 n=58 v=0
218160 On ch=8 n=62 v=48
218279 On ch=8 n=62 v=0
219000 On ch=8 n=72 v=127
219179 On ch=8 n=72 v=0
219180 On ch=8 n=70 v=127
219209 On ch=8 n=70 v=0
219240 On ch=8 n=68 v=127
219299 On ch=8 n=68 v=0
219360 On ch=8 n=67 v=127
219419 On ch=8 n=67 v=0
219480 On ch=8 n=65 v=127
219539 On ch=8 n=65 v=0
219600 On ch=8 n=63 v=48
219840 On ch=8 n=62 v=48
219849 On ch=8 n=63 v=0
219900 On ch=8 n=61 v=48
219909 On ch=8 n=62 v=0
219960 On ch=8 n=60 v=48
219969 On ch=8 n=61 v=0
220080 On ch=8 n=58 v=48
220089 On ch=8 n=60 v=0
220200 On ch=8 n=56 v=48
220209 On ch=8 n=58 v=0
220319 On ch=8 n=56 v=0
220320 On ch=8 n=55 v=48
220349 On ch=8 n=55 v=0
220380 On ch=8 n=58 v=48
220409 On ch=8 n=58 v=0
220440 On ch=8 n=56 v=48
220469 On ch=8 n=56 v=0
220500 On ch=8 n=55 v=48
220529 On ch=8 n=55 v=0
220560 On ch=8 n=53 v=48
220589 On ch=8 n=53 v=0
220620 On ch=8 n=51 v=48
220649 On ch=8 n=51 v=0
220680 On ch=8 n=50 v=48
220709 On ch=8 n=50 v=0
220740 On ch=8 n=58 v=48
220769 On ch=8 n=58 v=0
220800 On ch=8 n=58 v=48
220829 On ch=8 n=58 v=0
220860 On ch=8 n=58 v=48
220889 On ch=8 n=58 v=0
220920 On ch=8 n=58 v=48
220949 On ch=8 n=58 v=0
220980 On ch=8 n=58 v=48
221009 On ch=8 n=58 v=0
221040 On ch=8 n=58 v=48
221069 On ch=8 n=58 v=0
221100 On ch=8 n=63 v=50
221129 On ch=8 n=63 v=0
221160 On ch=8 n=63 v=52
221189 On ch=8 n=63 v=0
221220 On ch=8 n=63 v=54
221280 On ch=8 n=62 v=56
221289 On ch=8 n=63 v=0
221340 On ch=8 n=61 v=58
221349 On ch=8 n=62 v=0
221399 On ch=8 n=61 v=0
221400 On ch=8 n=60 v=60
221460 On ch=8 n=58 v=62
221469 On ch=8 n=60 v=0
221519 On ch=8 n=58 v=0
221520 On ch=8 n=56 v=64
221549 On ch=8 n=56 v=0
221580 On ch=8 n=60 v=66
221609 On ch=8 n=60 v=0
221640 On ch=8 n=58 v=68
221669 On ch=8 n=58 v=0
221700 On ch=8 n=56 v=70
221729 On ch=8 n=56 v=0
221760 On ch=8 n=55 v=72
221789 On ch=8 n=55 v=0
221820 On ch=8 n=70 v=74
221849 On ch=8 n=70 v=0
221880 On ch=8 n=70 v=76
221909 On ch=8 n=70 v=0
221940 On ch=8 n=70 v=78
221969 On ch=8 n=70 v=0
222000 On ch=8 n=68 v=80
222029 On ch=8 n=68 v=0
222060 On ch=8 n=67 v=82
222089 On ch=8 n=67 v=0
222120 On ch=8 n=65 v=84
222149 On ch=8 n=65 v=0
222180 On ch=8 n=63 v=86
222209 On ch=8 n=63 v=0
222240 On ch=8 n=62 v=88
222269 On ch=8 n=62 v=0
222300 On ch=8 n=63 v=90
222329 On ch=8 n=63 v=0
222360 On ch=8 n=65 v=92
222389 On ch=8 n=65 v=0
222420 On ch=8 n=65 v=94
222449 On ch=8 n=65 v=0
222480 On ch=8 n=65 v=96
222539 On ch=8 n=65 v=0
222600 On ch=8 n=62 v=96
222659 On ch=8 n=62 v=0
223140 On ch=8 n=59 v=96
223199 On ch=8 n=59 v=0
223200 On ch=8 n=60 v=96
223259 On ch=8 n=60 v=0
223320 On ch=8 n=72 v=96
223379 On ch=8 n=72 v=0
223860 On ch=8 n=60 v=96
223919 On ch=8 n=60 v=0
223920 On ch=8 n=58 v=96
223979 On ch=8 n=58 v=0
224040 On ch=8 n=67 v=96
224099 On ch=8 n=67 v=0
224580 On ch=8 n=52 v=96
224609 On ch=8 n=52 v=0
224640 On ch=8 n=53 v=96
224669 On ch=8 n=53 v=0
224700 On ch=8 n=53 v=96
224819 On ch=8 n=53 v=0
224820 On ch=8 n=53 v=96
224849 On ch=8 n=53 v=0
224880 On ch=8 n=53 v=96
224909 On ch=8 n=53 v=0
224940 On ch=8 n=55 v=96
224969 On ch=8 n=55 v=0
225000 On ch=8 n=55 v=96
225029 On ch=8 n=55 v=0
225060 On ch=8 n=60 v=96
225179 On ch=8 n=60 v=0
225180 On ch=8 n=60 v=96
225209 On ch=8 n=60 v=0
225240 On ch=8 n=58 v=96
225269 On ch=8 n=58 v=0
225300 On ch=8 n=58 v=96
225329 On ch=8 n=58 v=0
225360 On ch=8 n=63 v=96
225389 On ch=8 n=63 v=0
225420 On ch=8 n=63 v=96
225449 On ch=8 n=63 v=0
225480 On ch=8 n=70 v=96
225509 On ch=8 n=70 v=0
225540 On ch=8 n=70 v=96
225569 On ch=8 n=70 v=0
225600 On ch=8 n=68 v=96
225629 On ch=8 n=68 v=0
225660 On ch=8 n=68 v=96
225689 On ch=8 n=68 v=0
225720 On ch=8 n=66 v=96
225749 On ch=8 n=66 v=0
225780 On ch=8 n=66 v=96
225809 On ch=8 n=66 v=0
225840 On ch=8 n=67 v=96
225869 On ch=8 n=67 v=0
225900 On ch=8 n=67 v=96
225929 On ch=8 n=67 v=0
225960 On ch=8 n=63 v=96
225989 On ch=8 n=63 v=0
226020 On ch=8 n=63 v=96
226049 On ch=8 n=63 v=0
226080 On ch=8 n=63 v=96
226109 On ch=8 n=63 v=0
226110 On ch=8 n=51 v=96
226139 On ch=8 n=51 v=0
226140 On ch=8 n=51 v=96
226169 On ch=8 n=51 v=0
226170 On ch=8 n=51 v=96
226199 On ch=8 n=51 v=0
226200 On ch=8 n=51 v=96
226229 On ch=8 n=51 v=0
226230 On ch=8 n=51 v=96
226259 On ch=8 n=51 v=0
226260 On ch=8 n=51 v=96
226289 On ch=8 n=51 v=0
226290 On ch=8 n=51 v=96
226319 On ch=8 n=51 v=0
226320 On ch=8 n=52 v=96
226349 On ch=8 n=52 v=0
226350 On ch=8 n=52 v=96
226379 On ch=8 n=52 v=0
226380 On ch=8 n=52 v=96
226409 On ch=8 n=52 v=0
226410 On ch=8 n=52 v=96
226439 On ch=8 n=52 v=0
226440 On ch=8 n=53 v=96
226469 On ch=8 n=53 v=0
226470 On ch=8 n=53 v=96
226499 On ch=8 n=53 v=0
226500 On ch=8 n=52 v=96
226529 On ch=8 n=52 v=0
226530 On ch=8 n=52 v=96
226559 On ch=8 n=52 v=0
226560 On ch=8 n=55 v=96
226589 On ch=8 n=55 v=0
226590 On ch=8 n=55 v=96
226619 On ch=8 n=55 v=0
226620 On ch=8 n=53 v=96
226649 On ch=8 n=53 v=0
226650 On ch=8 n=53 v=96
226679 On ch=8 n=53 v=0
226680 On ch=8 n=58 v=96
226709 On ch=8 n=58 v=0
226710 On ch=8 n=58 v=96
226739 On ch=8 n=58 v=0
226740 On ch=8 n=56 v=96
226769 On ch=8 n=56 v=0
226770 On ch=8 n=56 v=96
226799 On ch=8 n=56 v=0
226800 On ch=8 n=51 v=96
226800 On ch=8 n=55 v=96
226829 On ch=8 n=55 v=0
226829 On ch=8 n=51 v=0
226830 On ch=8 n=51 v=96
226830 On ch=8 n=55 v=96
226859 On ch=8 n=55 v=0
226859 On ch=8 n=51 v=0
226860 On ch=8 n=51 v=96
226860 On ch=8 n=55 v=96
226889 On ch=8 n=55 v=0
226889 On ch=8 n=51 v=0
226890 On ch=8 n=51 v=96
226890 On ch=8 n=55 v=96
226919 On ch=8 n=55 v=0
226919 On ch=8 n=51 v=0
226920 On ch=8 n=51 v=96
226920 On ch=8 n=55 v=96
226949 On ch=8 n=55 v=0
226949 On ch=8 n=51 v=0
226950 On ch=8 n=51 v=96
226950 On ch=8 n=55 v=96
226979 On ch=8 n=55 v=0
226979 On ch=8 n=51 v=0
226980 On ch=8 n=51 v=96
226980 On ch=8 n=55 v=96
227009 On ch=8 n=55 v=0
227009 On ch=8 n=51 v=0
227010 On ch=8 n=51 v=96
227010 On ch=8 n=55 v=96
227039 On ch=8 n=55 v=0
227039 On ch=8 n=51 v=0
227040 On ch=8 n=51 v=96
227040 On ch=8 n=55 v=96
227069 On ch=8 n=55 v=0
227069 On ch=8 n=51 v=0
227070 On ch=8 n=51 v=96
227070 On ch=8 n=55 v=96
227099 On ch=8 n=55 v=0
227099 On ch=8 n=51 v=0
227100 On ch=8 n=51 v=96
227100 On ch=8 n=55 v=96
227129 On ch=8 n=55 v=0
227129 On ch=8 n=51 v=0
227130 On ch=8 n=51 v=96
227130 On ch=8 n=55 v=96
227159 On ch=8 n=55 v=0
227159 On ch=8 n=51 v=0
227160 On ch=8 n=51 v=96
227160 On ch=8 n=55 v=96
227189 On ch=8 n=55 v=0
227189 On ch=8 n=51 v=0
227190 On ch=8 n=51 v=96
227190 On ch=8 n=55 v=96
227219 On ch=8 n=55 v=0
227219 On ch=8 n=51 v=0
227220 On ch=8 n=51 v=96
227220 On ch=8 n=55 v=96
227249 On ch=8 n=55 v=0
227249 On ch=8 n=51 v=0
227250 On ch=8 n=51 v=96
227250 On ch=8 n=55 v=96
227279 On ch=8 n=55 v=0
227279 On ch=8 n=51 v=0
227280 On ch=8 n=51 v=96
227280 On ch=8 n=55 v=96
227309 On ch=8 n=55 v=0
227309 On ch=8 n=51 v=0
227310 On ch=8 n=51 v=96
227310 On ch=8 n=55 v=96
227339 On ch=8 n=55 v=0
227339 On ch=8 n=51 v=0
227340 On ch=8 n=51 v=96
227340 On ch=8 n=55 v=96
227369 On ch=8 n=55 v=0
227369 On ch=8 n=51 v=0
227370 On ch=8 n=51 v=96
227370 On ch=8 n=55 v=96
227399 On ch=8 n=55 v=0
227399 On ch=8 n=51 v=0
227400 On ch=8 n=51 v=96
227400 On ch=8 n=55 v=96
227429 On ch=8 n=55 v=0
227429 On ch=8 n=51 v=0
227430 On ch=8 n=51 v=96
227430 On ch=8 n=55 v=96
227459 On ch=8 n=55 v=0
227459 On ch=8 n=51 v=0
227460 On ch=8 n=51 v=96
227460 On ch=8 n=55 v=96
227489 On ch=8 n=55 v=0
227489 On ch=8 n=51 v=0
227490 On ch=8 n=51 v=96
227490 On ch=8 n=55 v=96
227519 On ch=8 n=55 v=0
227519 On ch=8 n=51 v=0
227520 On ch=8 n=56 v=102
227520 On ch=8 n=50 v=102
227639 On ch=8 n=50 v=0
227639 On ch=8 n=56 v=0
227880 On ch=8 n=62 v=113
227909 On ch=8 n=62 v=0
227910 On ch=8 n=62 v=114
227939 On ch=8 n=62 v=0
227940 On ch=8 n=63 v=115
227969 On ch=8 n=63 v=0
227970 On ch=8 n=63 v=116
227999 On ch=8 n=63 v=0
228000 On ch=8 n=65 v=118
228029 On ch=8 n=65 v=0
228030 On ch=8 n=65 v=119
228059 On ch=8 n=65 v=0
228060 On ch=8 n=63 v=120
228089 On ch=8 n=63 v=0
228090 On ch=8 n=63 v=121
228119 On ch=8 n=63 v=0
228120 On ch=8 n=62 v=123
228149 On ch=8 n=62 v=0
228150 On ch=8 n=62 v=124
228179 On ch=8 n=62 v=0
228180 On ch=8 n=60 v=125
228209 On ch=8 n=60 v=0
228210 On ch=8 n=60 v=125
228239 On ch=8 n=60 v=0
228240 On ch=8 n=58 v=127
228269 On ch=8 n=58 v=0
228270 On ch=8 n=58 v=127
228299 On ch=8 n=58 v=0
228300 On ch=8 n=57 v=127
228329 On ch=8 n=57 v=0
228330 On ch=8 n=57 v=127
228359 On ch=8 n=57 v=0
228360 On ch=8 n=56 v=127
228389 On ch=8 n=56 v=0
228390 On ch=8 n=56 v=127
228419 On ch=8 n=56 v=0
228420 On ch=8 n=55 v=127
228449 On ch=8 n=55 v=0
228450 On ch=8 n=55 v=127
228479 On ch=8 n=55 v=0
228480 On ch=8 n=53 v=127
228509 On ch=8 n=53 v=0
228510 On ch=8 n=53 v=127
228539 On ch=8 n=53 v=0
228540 On ch=8 n=51 v=127
228569 On ch=8 n=51 v=0
228570 On ch=8 n=51 v=127
228599 On ch=8 n=51 v=0
228600 On ch=8 n=50 v=127
228629 On ch=8 n=50 v=0
228630 On ch=8 n=50 v=127
228659 On ch=8 n=50 v=0
228660 On ch=8 n=60 v=127
228689 On ch=8 n=60 v=0
228690 On ch=8 n=60 v=127
228719 On ch=8 n=60 v=0
228720 On ch=8 n=58 v=127
228749 On ch=8 n=58 v=0
228750 On ch=8 n=58 v=127
228779 On ch=8 n=58 v=0
228780 On ch=8 n=56 v=127
228809 On ch=8 n=56 v=0
228810 On ch=8 n=56 v=127
228839 On ch=8 n=56 v=0
228840 On ch=8 n=55 v=127
228869 On ch=8 n=55 v=0
228870 On ch=8 n=55 v=127
228899 On ch=8 n=55 v=0
228900 On ch=8 n=53 v=127
228929 On ch=8 n=53 v=0
228930 On ch=8 n=53 v=127
228959 On ch=8 n=53 v=0
228960 On ch=8 n=51 v=127
229079 On ch=8 n=51 v=0
230520 On ch=8 n=56 v=48
230609 On ch=8 n=56 v=0
230640 On ch=8 n=56 v=48
230729 On ch=8 n=56 v=0
230760 On ch=8 n=56 v=48
230849 On ch=8 n=56 v=0
230880 On ch=8 n=56 v=60
230969 On ch=8 n=56 v=0
231000 On ch=8 n=56 v=72
231089 On ch=8 n=56 v=0
231120 On ch=8 n=56 v=84
231239 On ch=8 n=56 v=0
231240 On ch=8 n=56 v=96
231479 On ch=8 n=56 v=0
231480 On ch=8 n=56 v=96
231780 On ch=8 n=50 v=56
231789 On ch=8 n=56 v=0
231840 On ch=8 n=51 v=48
231849 On ch=8 n=50 v=0
231959 On ch=8 n=51 v=0
233760 On ch=8 n=61 v=48
233849 On ch=8 n=61 v=0
233880 On ch=8 n=61 v=48
233969 On ch=8 n=61 v=0
234000 On ch=8 n=60 v=48
234359 On ch=8 n=60 v=0
234840 On ch=8 n=56 v=32
234840 On ch=8 n=53 v=32
234899 On ch=8 n=53 v=0
234899 On ch=8 n=56 v=0
234960 On ch=8 n=53 v=32
234960 On ch=8 n=56 v=32
235019 On ch=8 n=56 v=0
235019 On ch=8 n=53 v=0
235200 On ch=8 n=55 v=32
235259 On ch=8 n=55 v=0
235320 On ch=8 n=58 v=32
235320 On ch=8 n=55 v=32
235379 On ch=8 n=55 v=0
235379 On ch=8 n=58 v=0
235560 On ch=8 n=58 v=32
235619 On ch=8 n=58 v=0
235680 On ch=8 n=58 v=32
235739 On ch=8 n=58 v=0
235800 On ch=8 n=58 v=32
235859 On ch=8 n=58 v=0
235920 On ch=8 n=58 v=32
235979 On ch=8 n=58 v=0
236040 On ch=8 n=58 v=32
236099 On ch=8 n=58 v=0
236160 On ch=8 n=58 v=32
236219 On ch=8 n=58 v=0
236220 On ch=8 n=58 v=32
236279 On ch=8 n=58 v=0
236280 On ch=8 n=58 v=32
236339 On ch=8 n=58 v=0
236340 On ch=8 n=58 v=32
236399 On ch=8 n=58 v=0
236400 On ch=8 n=60 v=32
236429 On ch=8 n=60 v=0
236460 On ch=8 n=58 v=32
236489 On ch=8 n=58 v=0
236520 On ch=8 n=56 v=32
236549 On ch=8 n=56 v=0
236580 On ch=8 n=58 v=32
236609 On ch=8 n=58 v=0
236640 On ch=8 n=60 v=32
236669 On ch=8 n=60 v=0
236700 On ch=8 n=58 v=32
236729 On ch=8 n=58 v=0
236760 On ch=8 n=56 v=32
236789 On ch=8 n=56 v=0
236820 On ch=8 n=55 v=32
236849 On ch=8 n=55 v=0
236880 On ch=8 n=53 v=35
236909 On ch=8 n=53 v=0
236940 On ch=8 n=55 v=38
236969 On ch=8 n=55 v=0
237000 On ch=8 n=56 v=41
237029 On ch=8 n=56 v=0
237060 On ch=8 n=58 v=43
237089 On ch=8 n=58 v=0
237120 On ch=8 n=60 v=46
237149 On ch=8 n=60 v=0
237180 On ch=8 n=58 v=48
237209 On ch=8 n=58 v=0
237240 On ch=8 n=56 v=51
237269 On ch=8 n=56 v=0
237300 On ch=8 n=58 v=54
237329 On ch=8 n=58 v=0
237360 On ch=8 n=60 v=57
237389 On ch=8 n=60 v=0
237420 On ch=8 n=58 v=59
237449 On ch=8 n=58 v=0
237480 On ch=8 n=56 v=62
237509 On ch=8 n=56 v=0
237540 On ch=8 n=55 v=64
237569 On ch=8 n=55 v=0
237600 On ch=8 n=53 v=67
237629 On ch=8 n=53 v=0
237660 On ch=8 n=55 v=70
237689 On ch=8 n=55 v=0
237720 On ch=8 n=56 v=73
237749 On ch=8 n=56 v=0
237780 On ch=8 n=58 v=75
237809 On ch=8 n=58 v=0
237840 On ch=8 n=56 v=78
237869 On ch=8 n=56 v=0
237900 On ch=8 n=55 v=80
237929 On ch=8 n=55 v=0
237960 On ch=8 n=53 v=82
237989 On ch=8 n=53 v=0
238020 On ch=8 n=51 v=84
238049 On ch=8 n=51 v=0
238080 On ch=8 n=50 v=87
238109 On ch=8 n=50 v=0
238140 On ch=8 n=60 v=90
238169 On ch=8 n=60 v=0
238200 On ch=8 n=58 v=92
238229 On ch=8 n=58 v=0
238260 On ch=8 n=56 v=94
238289 On ch=8 n=56 v=0
238320 On ch=8 n=55 v=96
238379 On ch=8 n=55 v=0
238380 On ch=8 n=55 v=96
238439 On ch=8 n=55 v=0
238440 On ch=8 n=58 v=96
238499 On ch=8 n=58 v=0
238500 On ch=8 n=63 v=96
238559 On ch=8 n=63 v=0
238560 On ch=8 n=67 v=96
238619 On ch=8 n=67 v=0
238620 On ch=8 n=55 v=96
238679 On ch=8 n=55 v=0
238740 On ch=8 n=58 v=96
238799 On ch=8 n=58 v=0
238800 On ch=8 n=63 v=112
238859 On ch=8 n=63 v=0
238860 On ch=8 n=67 v=96
238919 On ch=8 n=67 v=0
238920 On ch=8 n=70 v=96
238979 On ch=8 n=70 v=0
238980 On ch=8 n=58 v=96
239039 On ch=8 n=58 v=0
239100 On ch=8 n=58 v=96
239159 On ch=8 n=58 v=0
239160 On ch=8 n=65 v=112
239219 On ch=8 n=65 v=0
239220 On ch=8 n=68 v=96
239279 On ch=8 n=68 v=0
239280 On ch=8 n=70 v=96
239339 On ch=8 n=70 v=0
239340 On ch=8 n=58 v=96
239399 On ch=8 n=58 v=0
239460 On ch=8 n=58 v=96
239519 On ch=8 n=58 v=0
239520 On ch=8 n=62 v=112
239579 On ch=8 n=62 v=0
239580 On ch=8 n=65 v=96
239639 On ch=8 n=65 v=0
239640 On ch=8 n=70 v=96
239699 On ch=8 n=70 v=0
239700 On ch=8 n=68 v=96
239759 On ch=8 n=68 v=0
239760 On ch=8 n=67 v=127
239819 On ch=8 n=67 v=0
239820 On ch=8 n=55 v=127
239849 On ch=8 n=55 v=0
239850 On ch=8 n=55 v=127
239879 On ch=8 n=55 v=0
239880 On ch=8 n=58 v=127
239909 On ch=8 n=58 v=0
239910 On ch=8 n=58 v=127
239939 On ch=8 n=58 v=0
239940 On ch=8 n=63 v=127
239969 On ch=8 n=63 v=0
239970 On ch=8 n=63 v=127
239999 On ch=8 n=63 v=0
240000 On ch=8 n=67 v=127
240029 On ch=8 n=67 v=0
240030 On ch=8 n=67 v=127
240059 On ch=8 n=67 v=0
240060 On ch=8 n=55 v=127
240089 On ch=8 n=55 v=0
240090 On ch=8 n=55 v=127
240119 On ch=8 n=55 v=0
240180 On ch=8 n=55 v=127
240209 On ch=8 n=55 v=0
240210 On ch=8 n=55 v=127
240239 On ch=8 n=55 v=0
240240 On ch=8 n=58 v=127
240269 On ch=8 n=58 v=0
240270 On ch=8 n=58 v=127
240299 On ch=8 n=58 v=0
240300 On ch=8 n=63 v=127
240329 On ch=8 n=63 v=0
240330 On ch=8 n=63 v=127
240359 On ch=8 n=63 v=0
240360 On ch=8 n=67 v=127
240389 On ch=8 n=67 v=0
240390 On ch=8 n=67 v=127
240419 On ch=8 n=67 v=0
240420 On ch=8 n=55 v=127
240449 On ch=8 n=55 v=0
240450 On ch=8 n=55 v=127
240479 On ch=8 n=55 v=0
240540 On ch=8 n=56 v=127
240569 On ch=8 n=56 v=0
240570 On ch=8 n=56 v=127
240599 On ch=8 n=56 v=0
240600 On ch=8 n=58 v=127
240629 On ch=8 n=58 v=0
240630 On ch=8 n=58 v=127
240659 On ch=8 n=58 v=0
240660 On ch=8 n=62 v=127
240689 On ch=8 n=62 v=0
240690 On ch=8 n=62 v=127
240719 On ch=8 n=62 v=0
240720 On ch=8 n=65 v=127
240749 On ch=8 n=65 v=0
240750 On ch=8 n=65 v=127
240779 On ch=8 n=65 v=0
240780 On ch=8 n=56 v=127
240809 On ch=8 n=56 v=0
240810 On ch=8 n=56 v=127
240839 On ch=8 n=56 v=0
240900 On ch=8 n=56 v=127
240929 On ch=8 n=56 v=0
240930 On ch=8 n=56 v=127
240959 On ch=8 n=56 v=0
240960 On ch=8 n=58 v=127
240989 On ch=8 n=58 v=0
240990 On ch=8 n=58 v=127
241019 On ch=8 n=58 v=0
241020 On ch=8 n=62 v=127
241049 On ch=8 n=62 v=0
241050 On ch=8 n=62 v=127
241079 On ch=8 n=62 v=0
241080 On ch=8 n=65 v=127
241109 On ch=8 n=65 v=0
241110 On ch=8 n=65 v=127
241139 On ch=8 n=65 v=0
241140 On ch=8 n=62 v=127
241169 On ch=8 n=62 v=0
241170 On ch=8 n=62 v=127
241199 On ch=8 n=62 v=0
241200 On ch=8 n=63 v=127
241319 On ch=8 n=63 v=0
241740 On ch=8 n=56 v=127
241769 On ch=8 n=56 v=0
241770 On ch=8 n=56 v=127
241799 On ch=8 n=56 v=0
241800 On ch=8 n=58 v=127
241829 On ch=8 n=58 v=0
241830 On ch=8 n=58 v=127
241859 On ch=8 n=58 v=0
241860 On ch=8 n=58 v=127
241889 On ch=8 n=58 v=0
241890 On ch=8 n=58 v=127
241919 On ch=8 n=58 v=0
241920 On ch=8 n=51 v=127
241949 On ch=8 n=51 v=0
241950 On ch=8 n=51 v=127
241979 On ch=8 n=51 v=0
241980 On ch=8 n=58 v=127
242009 On ch=8 n=58 v=0
242010 On ch=8 n=58 v=127
242039 On ch=8 n=58 v=0
242040 On ch=8 n=56 v=127
242069 On ch=8 n=56 v=0
242070 On ch=8 n=56 v=127
242099 On ch=8 n=56 v=0
242100 On ch=8 n=60 v=127
242129 On ch=8 n=60 v=0
242130 On ch=8 n=60 v=127
242159 On ch=8 n=60 v=0
242160 On ch=8 n=53 v=127
242189 On ch=8 n=53 v=0
242190 On ch=8 n=53 v=127
242219 On ch=8 n=53 v=0
242220 On ch=8 n=60 v=127
242249 On ch=8 n=60 v=0
242250 On ch=8 n=60 v=127
242279 On ch=8 n=60 v=0
242280 On ch=8 n=59 v=127
242309 On ch=8 n=59 v=0
242310 On ch=8 n=59 v=127
242339 On ch=8 n=59 v=0
242340 On ch=8 n=62 v=127
242369 On ch=8 n=62 v=0
242370 On ch=8 n=62 v=127
242399 On ch=8 n=62 v=0
242400 On ch=8 n=55 v=127
242429 On ch=8 n=55 v=0
242430 On ch=8 n=55 v=127
242459 On ch=8 n=55 v=0
242460 On ch=8 n=61 v=127
242489 On ch=8 n=61 v=0
242490 On ch=8 n=61 v=127
242519 On ch=8 n=61 v=0
242520 On ch=8 n=60 v=127
242549 On ch=8 n=60 v=0
242550 On ch=8 n=60 v=127
242579 On ch=8 n=60 v=0
242580 On ch=8 n=63 v=127
242609 On ch=8 n=63 v=0
242610 On ch=8 n=63 v=127
242639 On ch=8 n=63 v=0
242640 On ch=8 n=56 v=127
242669 On ch=8 n=56 v=0
242670 On ch=8 n=56 v=127
242699 On ch=8 n=56 v=0
242700 On ch=8 n=63 v=127
242729 On ch=8 n=63 v=0
242730 On ch=8 n=63 v=127
242759 On ch=8 n=63 v=0
242760 On ch=8 n=62 v=127
242789 On ch=8 n=62 v=0
242790 On ch=8 n=62 v=127
242819 On ch=8 n=62 v=0
242820 On ch=8 n=65 v=127
242849 On ch=8 n=65 v=0
242850 On ch=8 n=65 v=127
242879 On ch=8 n=65 v=0
242880 On ch=8 n=58 v=127
242909 On ch=8 n=58 v=0
242910 On ch=8 n=58 v=127
242939 On ch=8 n=58 v=0
242940 On ch=8 n=65 v=127
242969 On ch=8 n=65 v=0
242970 On ch=8 n=65 v=127
242999 On ch=8 n=65 v=0
243000 On ch=8 n=63 v=127
243029 On ch=8 n=63 v=0
243030 On ch=8 n=67 v=127
243059 On ch=8 n=67 v=0
243060 On ch=8 n=67 v=127
243089 On ch=8 n=67 v=0
243090 On ch=8 n=67 v=127
243119 On ch=8 n=67 v=0
243120 On ch=8 n=67 v=127
243149 On ch=8 n=67 v=0
243150 On ch=8 n=70 v=127
243179 On ch=8 n=70 v=0
243180 On ch=8 n=70 v=127
243209 On ch=8 n=70 v=0
243210 On ch=8 n=70 v=127
243239 On ch=8 n=70 v=0
243240 On ch=8 n=70 v=127
243269 On ch=8 n=70 v=0
243270 On ch=8 n=70 v=127
243299 On ch=8 n=70 v=0
243300 On ch=8 n=70 v=127
243329 On ch=8 n=70 v=0
243330 On ch=8 n=70 v=127
243359 On ch=8 n=70 v=0
243360 On ch=8 n=69 v=127
243419 On ch=8 n=69 v=0
243480 On ch=8 n=55 v=127
243480 On ch=8 n=67 v=127
243539 On ch=8 n=67 v=0
243539 On ch=8 n=55 v=0
243600 On ch=8 n=67 v=127
243600 On ch=8 n=55 v=127
243659 On ch=8 n=55 v=0
243659 On ch=8 n=67 v=0
243840 On ch=8 n=55 v=127
243899 On ch=8 n=55 v=0
243960 On ch=8 n=56 v=127
244019 On ch=8 n=56 v=0
244200 On ch=8 n=57 v=127
244259 On ch=8 n=57 v=0
244320 On ch=8 n=58 v=127
244379 On ch=8 n=58 v=0
244560 On ch=8 n=67 v=127
244560 On ch=8 n=55 v=127
244619 On ch=8 n=55 v=0
244619 On ch=8 n=67 v=0
244680 On ch=8 n=55 v=127
244680 On ch=8 n=67 v=127
244739 On ch=8 n=67 v=0
244739 On ch=8 n=55 v=0
244920 On ch=8 n=67 v=127
244979 On ch=8 n=67 v=0
245040 On ch=8 n=68 v=127
245099 On ch=8 n=68 v=0
245280 On ch=8 n=69 v=127
245339 On ch=8 n=69 v=0
245520 On ch=8 n=69 v=127
245579 On ch=8 n=69 v=0
245760 On ch=8 n=69 v=127
245819 On ch=8 n=69 v=0
246000 On ch=8 n=69 v=127
246059 On ch=8 n=69 v=0
246240 On ch=8 n=69 v=127
246299 On ch=8 n=69 v=0
246480 On ch=8 n=69 v=127
246539 On ch=8 n=69 v=0
246960 On ch=8 n=57 v=96
246989 On ch=8 n=57 v=0
246990 On ch=8 n=57 v=48
247080 On ch=8 n=54 v=48
247089 On ch=8 n=57 v=0
247200 On ch=8 n=51 v=48
247209 On ch=8 n=54 v=0
247319 On ch=8 n=51 v=0
247320 On ch=8 n=55 v=48
247679 On ch=8 n=55 v=0
247680 On ch=8 n=57 v=96
247709 On ch=8 n=57 v=0
247710 On ch=8 n=57 v=48
247800 On ch=8 n=54 v=48
247809 On ch=8 n=57 v=0
247920 On ch=8 n=51 v=48
247929 On ch=8 n=54 v=0
248099 On ch=8 n=51 v=0
248100 On ch=8 n=48 v=48
248129 On ch=8 n=48 v=0
248160 On ch=8 n=51 v=48
248189 On ch=8 n=51 v=0
248220 On ch=8 n=56 v=48
248249 On ch=8 n=56 v=0
248280 On ch=8 n=48 v=48
248399 On ch=8 n=48 v=0
248460 On ch=8 n=49 v=48
248489 On ch=8 n=49 v=0
248520 On ch=8 n=53 v=48
248549 On ch=8 n=53 v=0
248580 On ch=8 n=56 v=48
248609 On ch=8 n=56 v=0
248640 On ch=8 n=49 v=48
248759 On ch=8 n=49 v=0
248820 On ch=8 n=50 v=48
248849 On ch=8 n=50 v=0
248880 On ch=8 n=53 v=48
248909 On ch=8 n=53 v=0
248940 On ch=8 n=58 v=48
248969 On ch=8 n=58 v=0
249000 On ch=8 n=50 v=48
249119 On ch=8 n=50 v=0
249180 On ch=8 n=58 v=48
249240 On ch=8 n=63 v=48
249249 On ch=8 n=58 v=0
249300 On ch=8 n=58 v=48
249309 On ch=8 n=63 v=0
249360 On ch=8 n=63 v=48
249369 On ch=8 n=58 v=0
249420 On ch=8 n=59 v=48
249429 On ch=8 n=63 v=0
249479 On ch=8 n=59 v=0
249480 On ch=8 n=60 v=50
249509 On ch=8 n=60 v=0
249510 On ch=8 n=60 v=52
249539 On ch=8 n=60 v=0
249540 On ch=8 n=60 v=54
249569 On ch=8 n=60 v=0
249570 On ch=8 n=60 v=56
249599 On ch=8 n=60 v=0
249600 On ch=8 n=60 v=58
249629 On ch=8 n=60 v=0
249630 On ch=8 n=60 v=60
249659 On ch=8 n=60 v=0
249660 On ch=8 n=60 v=62
249689 On ch=8 n=60 v=0
249690 On ch=8 n=60 v=64
249719 On ch=8 n=60 v=0
249720 On ch=8 n=60 v=66
249749 On ch=8 n=60 v=0
249750 On ch=8 n=60 v=68
249779 On ch=8 n=60 v=0
249780 On ch=8 n=60 v=70
249809 On ch=8 n=60 v=0
249810 On ch=8 n=60 v=72
249839 On ch=8 n=60 v=0
249840 On ch=8 n=56 v=74
249869 On ch=8 n=56 v=0
249870 On ch=8 n=68 v=77
249899 On ch=8 n=68 v=0
249900 On ch=8 n=68 v=79
249929 On ch=8 n=68 v=0
249930 On ch=8 n=68 v=82
249959 On ch=8 n=68 v=0
249960 On ch=8 n=68 v=84
249989 On ch=8 n=68 v=0
249990 On ch=8 n=68 v=87
250019 On ch=8 n=68 v=0
250020 On ch=8 n=68 v=89
250049 On ch=8 n=68 v=0
250050 On ch=8 n=68 v=92
250079 On ch=8 n=68 v=0
250080 On ch=8 n=70 v=94
250109 On ch=8 n=70 v=0
250110 On ch=8 n=70 v=97
250139 On ch=8 n=70 v=0
250140 On ch=8 n=72 v=99
250169 On ch=8 n=72 v=0
250170 On ch=8 n=72 v=102
250199 On ch=8 n=72 v=0
250200 On ch=8 n=67 v=107
250229 On ch=8 n=67 v=0
250260 On ch=8 n=70 v=112
250289 On ch=8 n=70 v=0
250320 On ch=8 n=67 v=117
250349 On ch=8 n=67 v=0
250380 On ch=8 n=63 v=122
250409 On ch=8 n=63 v=0
250440 On ch=8 n=58 v=124
250469 On ch=8 n=58 v=0
250500 On ch=8 n=55 v=126
250529 On ch=8 n=55 v=0
250560 On ch=8 n=53 v=127
250589 On ch=8 n=53 v=0
250590 On ch=8 n=62 v=127
250619 On ch=8 n=62 v=0
250620 On ch=8 n=62 v=127
250649 On ch=8 n=62 v=0
250650 On ch=8 n=62 v=127
250679 On ch=8 n=62 v=0
250680 On ch=8 n=62 v=127
250709 On ch=8 n=62 v=0
250710 On ch=8 n=62 v=127
250739 On ch=8 n=62 v=0
250740 On ch=8 n=62 v=127
250769 On ch=8 n=62 v=0
250770 On ch=8 n=62 v=127
250799 On ch=8 n=62 v=0
250800 On ch=8 n=62 v=127
250829 On ch=8 n=62 v=0
250830 On ch=8 n=62 v=127
250859 On ch=8 n=62 v=0
250860 On ch=8 n=62 v=127
250889 On ch=8 n=62 v=0
250890 On ch=8 n=62 v=127
250919 On ch=8 n=62 v=0
250920 On ch=8 n=63 v=96
250979 On ch=8 n=63 v=0
251040 On ch=8 n=58 v=112
251099 On ch=8 n=58 v=0
251160 On ch=8 n=55 v=96
251219 On ch=8 n=55 v=0
251400 On ch=8 n=60 v=112
251459 On ch=8 n=60 v=0
251520 On ch=8 n=56 v=96
251579 On ch=8 n=56 v=0
251760 On ch=8 n=58 v=112
251819 On ch=8 n=58 v=0
251880 On ch=8 n=55 v=96
251939 On ch=8 n=55 v=0
252000 On ch=8 n=53 v=96
252000 On ch=8 n=62 v=96
252059 On ch=8 n=62 v=0
252059 On ch=8 n=53 v=0
252120 On ch=8 n=53 v=96
252120 On ch=8 n=62 v=96
252179 On ch=8 n=62 v=0
252179 On ch=8 n=53 v=0
252240 On ch=8 n=53 v=96
252240 On ch=8 n=62 v=96
252299 On ch=8 n=62 v=0
252299 On ch=8 n=53 v=0
252360 On ch=8 n=51 v=96
252389 On ch=8 n=51 v=0
252390 On ch=8 n=51 v=48
254519 On ch=8 n=51 v=0
254520 On ch=8 n=56 v=96
254520 On ch=8 n=49 v=96
255239 On ch=8 n=49 v=0
255239 On ch=8 n=56 v=0
255240 On ch=8 n=49 v=48
255959 On ch=8 n=49 v=0
255960 On ch=8 n=55 v=127
255960 On ch=8 n=48 v=127
255989 On ch=8 n=48 v=0
255989 On ch=8 n=55 v=0
255990 On ch=8 n=55 v=127
255990 On ch=8 n=48 v=127
256019 On ch=8 n=48 v=0
256019 On ch=8 n=55 v=0
256020 On ch=8 n=55 v=127
256020 On ch=8 n=48 v=127
256049 On ch=8 n=48 v=0
256049 On ch=8 n=55 v=0
256050 On ch=8 n=55 v=127
256050 On ch=8 n=48 v=127
256079 On ch=8 n=48 v=0
256079 On ch=8 n=55 v=0
256080 On ch=8 n=55 v=127
256080 On ch=8 n=48 v=127
256109 On ch=8 n=48 v=0
256109 On ch=8 n=55 v=0
256110 On ch=8 n=55 v=127
256110 On ch=8 n=48 v=127
256139 On ch=8 n=48 v=0
256139 On ch=8 n=55 v=0
256140 On ch=8 n=55 v=127
256140 On ch=8 n=48 v=127
256169 On ch=8 n=48 v=0
256169 On ch=8 n=55 v=0
256170 On ch=8 n=55 v=127
256170 On ch=8 n=48 v=127
256199 On ch=8 n=48 v=0
256199 On ch=8 n=55 v=0
256200 On ch=8 n=55 v=127
256200 On ch=8 n=48 v=127
256229 On ch=8 n=48 v=0
256229 On ch=8 n=55 v=0
256230 On ch=8 n=55 v=127
256230 On ch=8 n=48 v=127
256259 On ch=8 n=48 v=0
256259 On ch=8 n=55 v=0
256260 On ch=8 n=55 v=127
256260 On ch=8 n=48 v=127
256289 On ch=8 n=48 v=0
256289 On ch=8 n=55 v=0
256290 On ch=8 n=55 v=127
256290 On ch=8 n=48 v=127
256319 On ch=8 n=48 v=0
256319 On ch=8 n=55 v=0
256320 On ch=8 n=55 v=127
256320 On ch=8 n=48 v=127
256349 On ch=8 n=48 v=0
256349 On ch=8 n=55 v=0
256350 On ch=8 n=55 v=127
256350 On ch=8 n=48 v=127
256379 On ch=8 n=48 v=0
256379 On ch=8 n=55 v=0
256380 On ch=8 n=55 v=127
256380 On ch=8 n=48 v=127
256409 On ch=8 n=48 v=0
256409 On ch=8 n=55 v=0
256410 On ch=8 n=55 v=127
256410 On ch=8 n=48 v=127
256439 On ch=8 n=48 v=0
256439 On ch=8 n=55 v=0
256440 On ch=8 n=55 v=127
256440 On ch=8 n=48 v=127
256469 On ch=8 n=48 v=0
256469 On ch=8 n=55 v=0
256470 On ch=8 n=55 v=127
256470 On ch=8 n=48 v=127
256499 On ch=8 n=48 v=0
256499 On ch=8 n=55 v=0
256500 On ch=8 n=55 v=127
256500 On ch=8 n=48 v=127
256529 On ch=8 n=48 v=0
256529 On ch=8 n=55 v=0
256530 On ch=8 n=55 v=127
256530 On ch=8 n=48 v=127
256559 On ch=8 n=48 v=0
256559 On ch=8 n=55 v=0
256560 On ch=8 n=55 v=127
256560 On ch=8 n=48 v=127
256589 On ch=8 n=48 v=0
256589 On ch=8 n=55 v=0
256590 On ch=8 n=55 v=127
256590 On ch=8 n=48 v=127
256619 On ch=8 n=48 v=0
256619 On ch=8 n=55 v=0
256620 On ch=8 n=55 v=127
256620 On ch=8 n=48 v=127
256649 On ch=8 n=48 v=0
256649 On ch=8 n=55 v=0
256650 On ch=8 n=55 v=127
256650 On ch=8 n=48 v=127
256679 On ch=8 n=48 v=0
256679 On ch=8 n=55 v=0
256680 On ch=8 n=48 v=48
258839 On ch=8 n=48 v=0
258840 On ch=8 n=55 v=32
260520 On ch=8 n=48 v=32
260529 On ch=8 n=55 v=0
260640 On ch=8 n=52 v=32
260649 On ch=8 n=48 v=0
260880 On ch=8 n=55 v=32
260889 On ch=8 n=52 v=0
260999 On ch=8 n=55 v=0
261240 On ch=8 n=48 v=32
261360 On ch=8 n=53 v=32
261369 On ch=8 n=48 v=0
261600 On ch=8 n=56 v=32
261609 On ch=8 n=53 v=0
261720 On ch=8 n=48 v=32
261720 On ch=8 n=60 v=32
261729 On ch=8 n=56 v=0
261839 On ch=8 n=60 v=0
261839 On ch=8 n=48 v=0
263280 On ch=8 n=65 v=48
263400 On ch=8 n=67 v=48
263409 On ch=8 n=65 v=0
263520 On ch=8 n=68 v=64
263529 On ch=8 n=67 v=0
263700 On ch=8 n=67 v=56
263709 On ch=8 n=68 v=0
263760 On ch=8 n=65 v=48
263769 On ch=8 n=67 v=0
263879 On ch=8 n=65 v=0
263880 On ch=8 n=64 v=48
264000 On ch=8 n=63 v=48
264009 On ch=8 n=64 v=0
264120 On ch=8 n=62 v=48
264129 On ch=8 n=63 v=0
264240 On ch=8 n=60 v=64
264249 On ch=8 n=62 v=0
264480 On ch=8 n=62 v=48
264489 On ch=8 n=60 v=0
264540 On ch=8 n=64 v=48
264549 On ch=8 n=62 v=0
264600 On ch=8 n=65 v=48
264609 On ch=8 n=64 v=0
264669 On ch=8 n=65 v=0
264720 On ch=8 n=65 v=48
264840 On ch=8 n=67 v=48
264849 On ch=8 n=65 v=0
264960 On ch=8 n=68 v=64
264969 On ch=8 n=67 v=0
265140 On ch=8 n=67 v=48
265149 On ch=8 n=68 v=0
265200 On ch=8 n=65 v=48
265209 On ch=8 n=67 v=0
265319 On ch=8 n=65 v=0
265320 On ch=8 n=65 v=48
265439 On ch=8 n=65 v=0
265440 On ch=8 n=58 v=53
265560 On ch=8 n=60 v=58
265569 On ch=8 n=58 v=0
265680 On ch=8 n=62 v=64
265689 On ch=8 n=60 v=0
265860 On ch=8 n=60 v=48
265869 On ch=8 n=62 v=0
265920 On ch=8 n=58 v=48
265929 On ch=8 n=60 v=0
266039 On ch=8 n=58 v=0
266040 On ch=8 n=63 v=48
266159 On ch=8 n=63 v=0
271080 On ch=8 n=58 v=32
271139 On ch=8 n=58 v=0
271200 On ch=8 n=62 v=32
271259 On ch=8 n=62 v=0
271320 On ch=8 n=58 v=32
271379 On ch=8 n=58 v=0
271440 On ch=8 n=65 v=32
271499 On ch=8 n=65 v=0
271560 On ch=8 n=58 v=32
271619 On ch=8 n=58 v=0
271680 On ch=8 n=70 v=32
271739 On ch=8 n=70 v=0
271800 On ch=8 n=58 v=32
271859 On ch=8 n=58 v=0
271920 On ch=8 n=74 v=32
271979 On ch=8 n=74 v=0
272040 On ch=8 n=58 v=32
272099 On ch=8 n=58 v=0
272160 On ch=8 n=65 v=96
272189 On ch=8 n=65 v=0
272190 On ch=8 n=65 v=32
272519 On ch=8 n=65 v=0
272520 On ch=8 n=58 v=32
272579 On ch=8 n=58 v=0
272640 On ch=8 n=63 v=32
272699 On ch=8 n=63 v=0
272760 On ch=8 n=58 v=32
272819 On ch=8 n=58 v=0
272880 On ch=8 n=66 v=32
272939 On ch=8 n=66 v=0
273000 On ch=8 n=58 v=32
273059 On ch=8 n=58 v=0
273120 On ch=8 n=70 v=32
273179 On ch=8 n=70 v=0
273240 On ch=8 n=58 v=32
273299 On ch=8 n=58 v=0
273360 On ch=8 n=75 v=32
273419 On ch=8 n=75 v=0
273480 On ch=8 n=58 v=32
273539 On ch=8 n=58 v=0
273600 On ch=8 n=66 v=96
273629 On ch=8 n=66 v=0
273630 On ch=8 n=66 v=32
274079 On ch=8 n=66 v=0
274080 On ch=8 n=65 v=32
274139 On ch=8 n=65 v=0
274200 On ch=8 n=58 v=32
274259 On ch=8 n=58 v=0
274320 On ch=8 n=68 v=96
274349 On ch=8 n=68 v=0
274350 On ch=8 n=68 v=32
274799 On ch=8 n=68 v=0
274800 On ch=8 n=67 v=32
274859 On ch=8 n=67 v=0
274920 On ch=8 n=58 v=32
274979 On ch=8 n=58 v=0
275040 On ch=8 n=70 v=96
275069 On ch=8 n=70 v=0
275070 On ch=8 n=70 v=32
275519 On ch=8 n=70 v=0
275520 On ch=8 n=69 v=32
275579 On ch=8 n=69 v=0
275640 On ch=8 n=58 v=34
275699 On ch=8 n=58 v=0
275760 On ch=8 n=69 v=35
275819 On ch=8 n=69 v=0
275880 On ch=8 n=58 v=36
275939 On ch=8 n=58 v=0
276000 On ch=8 n=69 v=37
276059 On ch=8 n=69 v=0
276120 On ch=8 n=58 v=38
276179 On ch=8 n=58 v=0
276240 On ch=8 n=69 v=40
276299 On ch=8 n=69 v=0
276360 On ch=8 n=58 v=41
276419 On ch=8 n=58 v=0
276480 On ch=8 n=69 v=42
276539 On ch=8 n=69 v=0
276600 On ch=8 n=58 v=45
276659 On ch=8 n=58 v=0
276720 On ch=8 n=69 v=47
276779 On ch=8 n=69 v=0
276840 On ch=8 n=58 v=48
276899 On ch=8 n=58 v=0
276960 On ch=8 n=70 v=52
277019 On ch=8 n=70 v=0
277080 On ch=8 n=58 v=56
277139 On ch=8 n=58 v=0
277200 On ch=8 n=70 v=60
277259 On ch=8 n=70 v=0
277320 On ch=8 n=58 v=64
277379 On ch=8 n=58 v=0
277440 On ch=8 n=70 v=68
277499 On ch=8 n=70 v=0
277560 On ch=8 n=59 v=64
277619 On ch=8 n=59 v=0
277680 On ch=8 n=71 v=60
277739 On ch=8 n=71 v=0
277800 On ch=8 n=59 v=56
277859 On ch=8 n=59 v=0
277920 On ch=8 n=71 v=52
277979 On ch=8 n=71 v=0
278040 On ch=8 n=59 v=48
278099 On ch=8 n=59 v=0
278160 On ch=8 n=71 v=48
278219 On ch=8 n=71 v=0
278280 On ch=8 n=60 v=48
278339 On ch=8 n=60 v=0
278400 On ch=8 n=72 v=48
278459 On ch=8 n=72 v=0
278520 On ch=8 n=60 v=48
278579 On ch=8 n=60 v=0
278640 On ch=8 n=72 v=48
278699 On ch=8 n=72 v=0
278760 On ch=8 n=60 v=48
278819 On ch=8 n=60 v=0
278880 On ch=8 n=72 v=48
278939 On ch=8 n=72 v=0
279000 On ch=8 n=56 v=48
279059 On ch=8 n=56 v=0
279120 On ch=8 n=68 v=48
279179 On ch=8 n=68 v=0
279240 On ch=8 n=56 v=48
279299 On ch=8 n=56 v=0
279360 On ch=8 n=68 v=48
279419 On ch=8 n=68 v=0
279480 On ch=8 n=56 v=48
279539 On ch=8 n=56 v=0
279600 On ch=8 n=68 v=48
279659 On ch=8 n=68 v=0
279720 On ch=8 n=58 v=48
279779 On ch=8 n=58 v=0
279840 On ch=8 n=70 v=50
279899 On ch=8 n=70 v=0
279960 On ch=8 n=58 v=52
280019 On ch=8 n=58 v=0
280080 On ch=8 n=70 v=54
280139 On ch=8 n=70 v=0
280200 On ch=8 n=58 v=56
280259 On ch=8 n=58 v=0
280320 On ch=8 n=70 v=58
280379 On ch=8 n=70 v=0
280440 On ch=8 n=58 v=60
280499 On ch=8 n=58 v=0
280560 On ch=8 n=70 v=62
280619 On ch=8 n=70 v=0
280680 On ch=8 n=58 v=64
280739 On ch=8 n=58 v=0
280800 On ch=8 n=70 v=48
280859 On ch=8 n=70 v=0
280920 On ch=8 n=58 v=48
280979 On ch=8 n=58 v=0
281040 On ch=8 n=70 v=48
281099 On ch=8 n=70 v=0
281160 On ch=8 n=63 v=48
281219 On ch=8 n=63 v=0
281880 On ch=8 n=63 v=48
281939 On ch=8 n=63 v=0
282360 On ch=8 n=63 v=48
282419 On ch=8 n=63 v=0
282480 On ch=8 n=63 v=48
282539 On ch=8 n=63 v=0
282600 On ch=8 n=62 v=48
282659 On ch=8 n=62 v=0
283320 On ch=8 n=58 v=48
283379 On ch=8 n=58 v=0
283800 On ch=8 n=58 v=48
283859 On ch=8 n=58 v=0
283920 On ch=8 n=58 v=48
283979 On ch=8 n=58 v=0
284040 On ch=8 n=63 v=48
284099 On ch=8 n=63 v=0
284760 On ch=8 n=63 v=48
284819 On ch=8 n=63 v=0
285240 On ch=8 n=63 v=48
285299 On ch=8 n=63 v=0
285360 On ch=8 n=63 v=48
285419 On ch=8 n=63 v=0
285480 On ch=8 n=62 v=48
285539 On ch=8 n=62 v=0
286200 On ch=8 n=58 v=48
286259 On ch=8 n=58 v=0
286680 On ch=8 n=58 v=48
286739 On ch=8 n=58 v=0
286800 On ch=8 n=58 v=48
286859 On ch=8 n=58 v=0
286920 On ch=8 n=63 v=48
287160 On ch=8 n=67 v=52
287169 On ch=8 n=63 v=0
287280 On ch=8 n=63 v=54
287289 On ch=8 n=67 v=0
287520 On ch=8 n=58 v=58
287529 On ch=8 n=63 v=0
287639 On ch=8 n=58 v=0
287640 On ch=8 n=63 v=60
287760 On ch=8 n=67 v=62
287769 On ch=8 n=63 v=0
287879 On ch=8 n=67 v=0
287880 On ch=8 n=70 v=64
287939 On ch=8 n=70 v=0
288000 On ch=8 n=70 v=66
288359 On ch=8 n=70 v=0
288360 On ch=8 n=65 v=72
288600 On ch=8 n=68 v=76
288609 On ch=8 n=65 v=0
288720 On ch=8 n=65 v=78
288729 On ch=8 n=68 v=0
288960 On ch=8 n=58 v=82
288969 On ch=8 n=65 v=0
289079 On ch=8 n=58 v=0
289080 On ch=8 n=65 v=84
289200 On ch=8 n=68 v=86
289209 On ch=8 n=65 v=0
289319 On ch=8 n=68 v=0
289320 On ch=8 n=70 v=88
289379 On ch=8 n=70 v=0
289440 On ch=8 n=70 v=90
289859 On ch=8 n=70 v=0
289860 On ch=8 n=63 v=96
289890 On ch=8 n=65 v=96
289899 On ch=8 n=63 v=0
289920 On ch=8 n=67 v=96
289929 On ch=8 n=65 v=0
289949 On ch=8 n=67 v=0
289980 On ch=8 n=67 v=96
290010 On ch=8 n=68 v=96
290019 On ch=8 n=67 v=0
290040 On ch=8 n=70 v=96
290049 On ch=8 n=68 v=0
290069 On ch=8 n=70 v=0
290100 On ch=8 n=72 v=96
290130 On ch=8 n=74 v=96
290139 On ch=8 n=72 v=0
290160 On ch=8 n=75 v=96
290169 On ch=8 n=74 v=0
290189 On ch=8 n=75 v=0
290220 On ch=8 n=67 v=96
290250 On ch=8 n=68 v=96
290259 On ch=8 n=67 v=0
290280 On ch=8 n=70 v=96
290289 On ch=8 n=68 v=0
290309 On ch=8 n=70 v=0
290340 On ch=8 n=72 v=96
290370 On ch=8 n=74 v=96
290379 On ch=8 n=72 v=0
290400 On ch=8 n=75 v=96
290409 On ch=8 n=74 v=0
290429 On ch=8 n=75 v=0
290460 On ch=8 n=75 v=96
290490 On ch=8 n=77 v=96
290499 On ch=8 n=75 v=0
290520 On ch=8 n=79 v=112
290529 On ch=8 n=77 v=0
290549 On ch=8 n=79 v=0
290580 On ch=8 n=77 v=96
290609 On ch=8 n=77 v=0
290640 On ch=8 n=75 v=96
290669 On ch=8 n=75 v=0
290700 On ch=8 n=74 v=96
290729 On ch=8 n=74 v=0
290760 On ch=8 n=72 v=96
290789 On ch=8 n=72 v=0
290820 On ch=8 n=70 v=96
290849 On ch=8 n=70 v=0
290880 On ch=8 n=68 v=96
290909 On ch=8 n=68 v=0
290940 On ch=8 n=67 v=96
290969 On ch=8 n=67 v=0
291000 On ch=8 n=65 v=96
291029 On ch=8 n=65 v=0
291060 On ch=8 n=63 v=96
291089 On ch=8 n=63 v=0
291120 On ch=8 n=62 v=96
291149 On ch=8 n=62 v=0
291180 On ch=8 n=60 v=96
291209 On ch=8 n=60 v=0
291240 On ch=8 n=58 v=96
291269 On ch=8 n=58 v=0
291300 On ch=8 n=58 v=96
291330 On ch=8 n=60 v=96
291339 On ch=8 n=58 v=0
291360 On ch=8 n=62 v=96
291369 On ch=8 n=60 v=0
291389 On ch=8 n=62 v=0
291420 On ch=8 n=62 v=96
291450 On ch=8 n=63 v=96
291459 On ch=8 n=62 v=0
291480 On ch=8 n=65 v=96
291489 On ch=8 n=63 v=0
291509 On ch=8 n=65 v=0
291540 On ch=8 n=65 v=96
291570 On ch=8 n=67 v=96
291579 On ch=8 n=65 v=0
291600 On ch=8 n=68 v=96
291609 On ch=8 n=67 v=0
291629 On ch=8 n=68 v=0
291660 On ch=8 n=62 v=96
291690 On ch=8 n=63 v=96
291699 On ch=8 n=62 v=0
291720 On ch=8 n=65 v=96
291729 On ch=8 n=63 v=0
291749 On ch=8 n=65 v=0
291780 On ch=8 n=65 v=96
291810 On ch=8 n=67 v=96
291819 On ch=8 n=65 v=0
291840 On ch=8 n=68 v=96
291849 On ch=8 n=67 v=0
291869 On ch=8 n=68 v=0
291900 On ch=8 n=68 v=96
291930 On ch=8 n=70 v=96
291939 On ch=8 n=68 v=0
291960 On ch=8 n=72 v=112
291969 On ch=8 n=70 v=0
291989 On ch=8 n=72 v=0
292020 On ch=8 n=70 v=96
292049 On ch=8 n=70 v=0
292080 On ch=8 n=68 v=96
292109 On ch=8 n=68 v=0
292140 On ch=8 n=67 v=96
292169 On ch=8 n=67 v=0
292200 On ch=8 n=65 v=96
292229 On ch=8 n=65 v=0
292260 On ch=8 n=63 v=96
292289 On ch=8 n=63 v=0
292320 On ch=8 n=62 v=96
292349 On ch=8 n=62 v=0
292380 On ch=8 n=60 v=96
292409 On ch=8 n=60 v=0
292440 On ch=8 n=58 v=96
292469 On ch=8 n=58 v=0
292500 On ch=8 n=56 v=96
292529 On ch=8 n=56 v=0
292560 On ch=8 n=55 v=96
292589 On ch=8 n=55 v=0
292620 On ch=8 n=53 v=96
292649 On ch=8 n=53 v=0
292680 On ch=8 n=55 v=96
292739 On ch=8 n=55 v=0
292740 On ch=8 n=55 v=96
292799 On ch=8 n=55 v=0
292800 On ch=8 n=58 v=96
292859 On ch=8 n=58 v=0
292860 On ch=8 n=58 v=96
292919 On ch=8 n=58 v=0
292920 On ch=8 n=61 v=96
292979 On ch=8 n=61 v=0
292980 On ch=8 n=61 v=96
293039 On ch=8 n=61 v=0
293040 On ch=8 n=61 v=112
293399 On ch=8 n=61 v=0
293400 On ch=8 n=56 v=112
293579 On ch=8 n=56 v=0
293580 On ch=8 n=56 v=96
293609 On ch=8 n=56 v=0
293640 On ch=8 n=60 v=96
293669 On ch=8 n=60 v=0
293700 On ch=8 n=65 v=96
293729 On ch=8 n=65 v=0
293760 On ch=8 n=57 v=112
293939 On ch=8 n=57 v=0
293940 On ch=8 n=57 v=96
293969 On ch=8 n=57 v=0
294000 On ch=8 n=60 v=96
294029 On ch=8 n=60 v=0
294060 On ch=8 n=63 v=96
294089 On ch=8 n=63 v=0
294120 On ch=8 n=58 v=112
294299 On ch=8 n=58 v=0
294300 On ch=8 n=58 v=96
294329 On ch=8 n=58 v=0
294360 On ch=8 n=63 v=96
294389 On ch=8 n=63 v=0
294420 On ch=8 n=67 v=96
294449 On ch=8 n=67 v=0
294480 On ch=8 n=59 v=96
294539 On ch=8 n=59 v=0
294540 On ch=8 n=62 v=96
294599 On ch=8 n=62 v=0
294600 On ch=8 n=65 v=96
294659 On ch=8 n=65 v=0
294660 On ch=8 n=59 v=96
294719 On ch=8 n=59 v=0
294720 On ch=8 n=62 v=96
294779 On ch=8 n=62 v=0
294780 On ch=8 n=65 v=96
294839 On ch=8 n=65 v=0
294840 On ch=8 n=60 v=96
294899 On ch=8 n=60 v=0
294900 On ch=8 n=63 v=96
294959 On ch=8 n=63 v=0
294960 On ch=8 n=67 v=96
295019 On ch=8 n=67 v=0
295020 On ch=8 n=60 v=96
295079 On ch=8 n=60 v=0
295080 On ch=8 n=63 v=96
295139 On ch=8 n=63 v=0
295140 On ch=8 n=67 v=96
295199 On ch=8 n=67 v=0
295200 On ch=8 n=56 v=96
295259 On ch=8 n=56 v=0
295260 On ch=8 n=60 v=96
295319 On ch=8 n=60 v=0
295320 On ch=8 n=65 v=96
295379 On ch=8 n=65 v=0
295380 On ch=8 n=56 v=96
295439 On ch=8 n=56 v=0
295440 On ch=8 n=60 v=96
295499 On ch=8 n=60 v=0
295500 On ch=8 n=65 v=96
295559 On ch=8 n=65 v=0
295560 On ch=8 n=58 v=127
295619 On ch=8 n=58 v=0
295620 On ch=8 n=63 v=127
295679 On ch=8 n=63 v=0
295680 On ch=8 n=67 v=127
295739 On ch=8 n=67 v=0
295740 On ch=8 n=58 v=127
295799 On ch=8 n=58 v=0
295800 On ch=8 n=63 v=127
295859 On ch=8 n=63 v=0
295860 On ch=8 n=67 v=127
295919 On ch=8 n=67 v=0
295920 On ch=8 n=70 v=127
295979 On ch=8 n=70 v=0
295980 On ch=8 n=58 v=127
296039 On ch=8 n=58 v=0
296040 On ch=8 n=58 v=127
296099 On ch=8 n=58 v=0
296100 On ch=8 n=58 v=127
296159 On ch=8 n=58 v=0
296160 On ch=8 n=58 v=127
296219 On ch=8 n=58 v=0
296220 On ch=8 n=58 v=127
296279 On ch=8 n=58 v=0
296280 On ch=8 n=63 v=48
296399 On ch=8 n=63 v=0
298620 On ch=8 n=70 v=78
298649 On ch=8 n=70 v=0
298680 On ch=8 n=68 v=80
298709 On ch=8 n=68 v=0
298740 On ch=8 n=67 v=82
298769 On ch=8 n=67 v=0
298800 On ch=8 n=65 v=84
298829 On ch=8 n=65 v=0
298860 On ch=8 n=67 v=86
298889 On ch=8 n=67 v=0
298920 On ch=8 n=68 v=88
298949 On ch=8 n=68 v=0
298980 On ch=8 n=67 v=90
299009 On ch=8 n=67 v=0
299040 On ch=8 n=65 v=92
299069 On ch=8 n=65 v=0
299100 On ch=8 n=63 v=94
299129 On ch=8 n=63 v=0
299160 On ch=8 n=62 v=96
299279 On ch=8 n=62 v=0
299280 On ch=8 n=65 v=96
299639 On ch=8 n=65 v=0
299640 On ch=8 n=68 v=96
299999 On ch=8 n=68 v=0
300000 On ch=8 n=62 v=96
300239 On ch=8 n=62 v=0
300240 On ch=8 n=65 v=96
300479 On ch=8 n=65 v=0
300480 On ch=8 n=65 v=96
300539 On ch=8 n=65 v=0
300600 On ch=8 n=65 v=96
300659 On ch=8 n=65 v=0
300720 On ch=8 n=58 v=127
300749 On ch=8 n=58 v=0
300750 On ch=8 n=58 v=127
300779 On ch=8 n=58 v=0
300780 On ch=8 n=58 v=127
300809 On ch=8 n=58 v=0
300810 On ch=8 n=58 v=127
300839 On ch=8 n=58 v=0
300840 On ch=8 n=58 v=127
300869 On ch=8 n=58 v=0
300870 On ch=8 n=58 v=127
300899 On ch=8 n=58 v=0
300900 On ch=8 n=58 v=127
300929 On ch=8 n=58 v=0
300930 On ch=8 n=58 v=127
300959 On ch=8 n=58 v=0
300960 On ch=8 n=58 v=127
300989 On ch=8 n=58 v=0
300990 On ch=8 n=58 v=127
301019 On ch=8 n=58 v=0
301020 On ch=8 n=58 v=127
301049 On ch=8 n=58 v=0
301050 On ch=8 n=58 v=127
301079 On ch=8 n=58 v=0
301080 On ch=8 n=58 v=127
301109 On ch=8 n=58 v=0
301110 On ch=8 n=58 v=127
301139 On ch=8 n=58 v=0
301140 On ch=8 n=58 v=127
301169 On ch=8 n=58 v=0
301170 On ch=8 n=58 v=127
301199 On ch=8 n=58 v=0
301200 On ch=8 n=58 v=127
301229 On ch=8 n=58 v=0
301230 On ch=8 n=58 v=127
301259 On ch=8 n=58 v=0
301260 On ch=8 n=58 v=127
301289 On ch=8 n=58 v=0
301290 On ch=8 n=58 v=127
301319 On ch=8 n=58 v=0
301320 On ch=8 n=58 v=127
301349 On ch=8 n=58 v=0
301350 On ch=8 n=58 v=127
301379 On ch=8 n=58 v=0
301380 On ch=8 n=58 v=127
301409 On ch=8 n=58 v=0
301410 On ch=8 n=58 v=127
301439 On ch=8 n=58 v=0
301440 On ch=8 n=58 v=127
301469 On ch=8 n=58 v=0
301470 On ch=8 n=58 v=127
301499 On ch=8 n=58 v=0
301500 On ch=8 n=58 v=127
301529 On ch=8 n=58 v=0
301530 On ch=8 n=58 v=127
301559 On ch=8 n=58 v=0
301560 On ch=8 n=58 v=127
301589 On ch=8 n=58 v=0
301590 On ch=8 n=58 v=127
301619 On ch=8 n=58 v=0
301620 On ch=8 n=58 v=127
301649 On ch=8 n=58 v=0
301650 On ch=8 n=58 v=127
301679 On ch=8 n=58 v=0
301680 On ch=8 n=58 v=127
301709 On ch=8 n=58 v=0
301710 On ch=8 n=58 v=127
301739 On ch=8 n=58 v=0
301740 On ch=8 n=58 v=127
301769 On ch=8 n=58 v=0
301770 On ch=8 n=58 v=127
301799 On ch=8 n=58 v=0
301800 On ch=8 n=58 v=127
301829 On ch=8 n=58 v=0
301830 On ch=8 n=58 v=127
301859 On ch=8 n=58 v=0
301860 On ch=8 n=58 v=127
301889 On ch=8 n=58 v=0
301890 On ch=8 n=58 v=127
301919 On ch=8 n=58 v=0
301920 On ch=8 n=58 v=127
301949 On ch=8 n=58 v=0
301950 On ch=8 n=58 v=127
301979 On ch=8 n=58 v=0
301980 On ch=8 n=58 v=127
302009 On ch=8 n=58 v=0
302010 On ch=8 n=58 v=127
302039 On ch=8 n=58 v=0
302040 On ch=8 n=63 v=127
302159 On ch=8 n=63 v=0
302400 On ch=8 n=75 v=127
302400 On ch=8 n=55 v=127
302400 On ch=8 n=63 v=127
302519 On ch=8 n=63 v=0
302519 On ch=8 n=55 v=0
302519 On ch=8 n=75 v=0
302760 On ch=8 n=51 v=127
302879 On ch=8 n=51 v=0
0 PrCh ch=8 p=48
0 Par ch=8 c=7 v=127
0 Par ch=8 c=10 v=82
0 Par ch=8 c=93 v=0
0 Par ch=8 c=91 v=0
0 On ch=8 n=51 v=96
59 On ch=8 n=51 v=0
360 On ch=8 n=51 v=96
419 On ch=8 n=51 v=0
720 On ch=8 n=51 v=54
960 On ch=8 n=55 v=54
969 On ch=8 n=51 v=0
1080 On ch=8 n=51 v=54
1089 On ch=8 n=55 v=0
1320 On ch=8 n=46 v=54
1329 On ch=8 n=51 v=0
1439 On ch=8 n=46 v=0
1440 On ch=8 n=51 v=54
1560 On ch=8 n=55 v=54
1569 On ch=8 n=51 v=0
1680 On ch=8 n=58 v=54
1689 On ch=8 n=55 v=0
1799 On ch=8 n=58 v=0
1800 On ch=8 n=51 v=54
2040 On ch=8 n=50 v=54
2049 On ch=8 n=51 v=0
2160 On ch=8 n=49 v=64
2169 On ch=8 n=50 v=0
2280 ChPr ch=8 v=20
2879 On ch=8 n=49 v=0
2880 On ch=8 n=50 v=96
3479 On ch=8 n=50 v=0
3480 On ch=8 n=50 v=54
3600 On ch=8 n=51 v=48
3609 On ch=8 n=50 v=0
3959 On ch=8 n=51 v=0
3960 On ch=8 n=44 v=48
4080 On ch=8 n=46 v=48
4089 On ch=8 n=44 v=0
4200 On ch=8 n=48 v=48
4209 On ch=8 n=46 v=0
4319 On ch=8 n=48 v=0
4320 On ch=8 n=46 v=48
4679 On ch=8 n=46 v=0
4680 On ch=8 n=46 v=48
4739 On ch=8 n=46 v=0
4800 On ch=8 n=46 v=48
4859 On ch=8 n=46 v=0
4920 On ch=8 n=46 v=48
4979 On ch=8 n=46 v=0
5040 On ch=8 n=51 v=48
5159 On ch=8 n=51 v=0
6360 On ch=8 n=48 v=48
6480 On ch=8 n=53 v=48
6489 On ch=8 n=48 v=0
6600 On ch=8 n=56 v=48
6609 On ch=8 n=53 v=0
6720 On ch=8 n=60 v=48
6729 On ch=8 n=56 v=0
6839 On ch=8 n=60 v=0
6840 On ch=8 n=53 v=48
6959 On ch=8 n=53 v=0
7680 On ch=8 n=48 v=48
7800 On ch=8 n=47 v=64
7809 On ch=8 n=48 v=0
7920 On ch=8 n=46 v=96
7929 On ch=8 n=47 v=0
7979 On ch=8 n=46 v=0
7980 On ch=8 n=46 v=48
8040 On ch=8 n=50 v=48
8049 On ch=8 n=46 v=0
8100 On ch=8 n=53 v=48
8109 On ch=8 n=50 v=0
8160 On ch=8 n=58 v=48
8169 On ch=8 n=53 v=0
8220 On ch=8 n=62 v=48
8229 On ch=8 n=58 v=0
8280 On ch=8 n=65 v=48
8289 On ch=8 n=62 v=0
8399 On ch=8 n=65 v=0
8520 On ch=8 n=46 v=48
8759 On ch=8 n=46 v=0
8760 On ch=8 n=46 v=96
8999 On ch=8 n=46 v=0
9000 On ch=8 n=46 v=96
9239 On ch=8 n=46 v=0
9240 On ch=8 n=46 v=96
9359 On ch=8 n=46 v=0
9360 On ch=8 n=46 v=96
9419 On ch=8 n=46 v=0
9420 On ch=8 n=46 v=48
9480 On ch=8 n=50 v=48
9489 On ch=8 n=46 v=0
9540 On ch=8 n=53 v=48
9549 On ch=8 n=50 v=0
9600 On ch=8 n=58 v=48
9609 On ch=8 n=53 v=0
9660 On ch=8 n=62 v=48
9669 On ch=8 n=58 v=0
9720 On ch=8 n=65 v=48
9729 On ch=8 n=62 v=0
9839 On ch=8 n=65 v=0
9960 On ch=8 n=46 v=96
10080 On ch=8 n=44 v=90
10089 On ch=8 n=46 v=0
10199 On ch=8 n=44 v=0
10200 On ch=8 n=56 v=96
10439 On ch=8 n=56 v=0
10440 On ch=8 n=56 v=96
10679 On ch=8 n=56 v=0
10680 On ch=8 n=56 v=96
10919 On ch=8 n=56 v=0
10920 On ch=8 n=55 v=96
11159 On ch=8 n=55 v=0
11160 On ch=8 n=55 v=96
11399 On ch=8 n=55 v=0
11400 On ch=8 n=55 v=96
11639 On ch=8 n=55 v=0
11640 On ch=8 n=56 v=90
11699 On ch=8 n=56 v=0
11760 On ch=8 n=56 v=96
11999 On ch=8 n=56 v=0
12000 On ch=8 n=55 v=96
12059 On ch=8 n=55 v=0
12120 On ch=8 n=55 v=96
12240 On ch=8 n=53 v=96
12249 On ch=8 n=55 v=0
12269 On ch=8 n=53 v=0
12300 On ch=8 n=53 v=99
12329 On ch=8 n=53 v=0
12360 On ch=8 n=53 v=102
12389 On ch=8 n=53 v=0
12420 On ch=8 n=53 v=105
12449 On ch=8 n=53 v=0
12480 On ch=8 n=53 v=107
12509 On ch=8 n=53 v=0
12540 On ch=8 n=53 v=110
12569 On ch=8 n=53 v=0
12600 On ch=8 n=46 v=112
12659 On ch=8 n=46 v=0
12660 On ch=8 n=58 v=115
12719 On ch=8 n=58 v=0
12720 On ch=8 n=58 v=117
12779 On ch=8 n=58 v=0
12780 On ch=8 n=58 v=120
12839 On ch=8 n=58 v=0
12840 On ch=8 n=58 v=123
12899 On ch=8 n=58 v=0
12900 On ch=8 n=58 v=125
12959 On ch=8 n=58 v=0
12960 On ch=8 n=51 v=127
13200 On ch=8 n=55 v=127
13209 On ch=8 n=51 v=0
13320 On ch=8 n=51 v=127
13329 On ch=8 n=55 v=0
13560 On ch=8 n=46 v=127
13569 On ch=8 n=51 v=0
13679 On ch=8 n=46 v=0
13680 On ch=8 n=51 v=127
13800 On ch=8 n=55 v=127
13809 On ch=8 n=51 v=0
13920 On ch=8 n=58 v=127
13929 On ch=8 n=55 v=0
14039 On ch=8 n=58 v=0
14040 On ch=8 n=51 v=127
14279 On ch=8 n=51 v=0
14280 On ch=8 n=43 v=127
14399 On ch=8 n=43 v=0
14400 On ch=8 n=48 v=127
14520 On ch=8 n=51 v=127
14529 On ch=8 n=48 v=0
14640 On ch=8 n=55 v=127
14649 On ch=8 n=51 v=0
14759 On ch=8 n=55 v=0
14760 On ch=8 n=48 v=127
14999 On ch=8 n=48 v=0
15000 On ch=8 n=39 v=127
15119 On ch=8 n=39 v=0
15120 On ch=8 n=44 v=127
15179 On ch=8 n=44 v=0
15180 On ch=8 n=56 v=127
15239 On ch=8 n=56 v=0
15240 On ch=8 n=56 v=127
15299 On ch=8 n=56 v=0
15300 On ch=8 n=56 v=127
15359 On ch=8 n=56 v=0
15360 On ch=8 n=56 v=127
15419 On ch=8 n=56 v=0
15420 On ch=8 n=56 v=127
15479 On ch=8 n=56 v=0
15480 On ch=8 n=54 v=127
15539 On ch=8 n=54 v=0
15540 On ch=8 n=54 v=127
15599 On ch=8 n=54 v=0
15600 On ch=8 n=54 v=127
15659 On ch=8 n=54 v=0
15660 On ch=8 n=54 v=127
15719 On ch=8 n=54 v=0
15720 On ch=8 n=54 v=127
15779 On ch=8 n=54 v=0
15780 On ch=8 n=54 v=127
15839 On ch=8 n=54 v=0
15840 On ch=8 n=53 v=127
15959 On ch=8 n=53 v=0
16560 On ch=8 n=41 v=48
16619 On ch=8 n=41 v=0
16680 On ch=8 n=45 v=48
16739 On ch=8 n=45 v=0
16800 On ch=8 n=48 v=48
16859 On ch=8 n=48 v=0
16920 On ch=8 n=53 v=48
16979 On ch=8 n=53 v=0
17040 On ch=8 n=57 v=48
17099 On ch=8 n=57 v=0
17160 On ch=8 n=60 v=48
17219 On ch=8 n=60 v=0
17280 On ch=8 n=53 v=48
17399 On ch=8 n=53 v=0
18000 On ch=8 n=41 v=48
18059 On ch=8 n=41 v=0
18120 On ch=8 n=46 v=48
18179 On ch=8 n=46 v=0
18240 On ch=8 n=50 v=48
18299 On ch=8 n=50 v=0
18360 On ch=8 n=53 v=48
18419 On ch=8 n=53 v=0
18480 On ch=8 n=62 v=48
18539 On ch=8 n=62 v=0
18600 On ch=8 n=58 v=48
18659 On ch=8 n=58 v=0
18720 On ch=8 n=53 v=48
18839 On ch=8 n=53 v=0
19560 On ch=8 n=55 v=127
19739 On ch=8 n=55 v=0
19740 On ch=8 n=53 v=127
19799 On ch=8 n=53 v=0
19800 On ch=8 n=51 v=127
19859 On ch=8 n=51 v=0
19920 On ch=8 n=50 v=127
19979 On ch=8 n=50 v=0
20040 On ch=8 n=48 v=127
20099 On ch=8 n=48 v=0
20160 On ch=8 n=58 v=48
20400 On ch=8 n=57 v=51
20409 On ch=8 n=58 v=0
20460 On ch=8 n=56 v=53
20469 On ch=8 n=57 v=0
20520 On ch=8 n=55 v=56
20529 On ch=8 n=56 v=0
20640 On ch=8 n=53 v=52
20649 On ch=8 n=55 v=0
20760 On ch=8 n=51 v=48
20769 On ch=8 n=53 v=0
20880 On ch=8 n=50 v=48
20889 On ch=8 n=51 v=0
20909 On ch=8 n=50 v=0
20940 On ch=8 n=53 v=48
20969 On ch=8 n=53 v=0
21000 On ch=8 n=51 v=48
21029 On ch=8 n=51 v=0
21060 On ch=8 n=50 v=48
21089 On ch=8 n=50 v=0
21120 On ch=8 n=48 v=48
21149 On ch=8 n=48 v=0
21180 On ch=8 n=46 v=48
21209 On ch=8 n=46 v=0
21240 On ch=8 n=45 v=48
21269 On ch=8 n=45 v=0
21300 On ch=8 n=46 v=48
21329 On ch=8 n=46 v=0
21360 On ch=8 n=48 v=48
21389 On ch=8 n=48 v=0
21420 On ch=8 n=41 v=48
21449 On ch=8 n=41 v=0
21480 On ch=8 n=43 v=48
21509 On ch=8 n=43 v=0
21540 On ch=8 n=45 v=48
21569 On ch=8 n=45 v=0
21600 On ch=8 n=46 v=48
21629 On ch=8 n=46 v=0
21660 On ch=8 n=58 v=50
21689 On ch=8 n=58 v=0
21720 On ch=8 n=58 v=52
21749 On ch=8 n=58 v=0
21780 On ch=8 n=58 v=54
21840 On ch=8 n=57 v=56
21849 On ch=8 n=58 v=0
21900 On ch=8 n=56 v=58
21909 On ch=8 n=57 v=0
21959 On ch=8 n=56 v=0
21960 On ch=8 n=55 v=60
22020 On ch=8 n=53 v=62
22029 On ch=8 n=55 v=0
22079 On ch=8 n=53 v=0
22080 On ch=8 n=51 v=64
22109 On ch=8 n=51 v=0
22140 On ch=8 n=55 v=66
22169 On ch=8 n=55 v=0
22200 On ch=8 n=53 v=68
22229 On ch=8 n=53 v=0
22260 On ch=8 n=51 v=70
22289 On ch=8 n=51 v=0
22320 On ch=8 n=50 v=72
22349 On ch=8 n=50 v=0
22380 On ch=8 n=53 v=74
22409 On ch=8 n=53 v=0
22440 On ch=8 n=51 v=76
22469 On ch=8 n=51 v=0
22500 On ch=8 n=50 v=78
22529 On ch=8 n=50 v=0
22560 On ch=8 n=48 v=80
22589 On ch=8 n=48 v=0
22620 On ch=8 n=46 v=82
22649 On ch=8 n=46 v=0
22680 On ch=8 n=45 v=84
22709 On ch=8 n=45 v=0
22740 On ch=8 n=46 v=86
22769 On ch=8 n=46 v=0
22800 On ch=8 n=48 v=88
22829 On ch=8 n=48 v=0
22860 On ch=8 n=46 v=90
22889 On ch=8 n=46 v=0
22920 On ch=8 n=45 v=92
22949 On ch=8 n=45 v=0
22980 On ch=8 n=43 v=94
23009 On ch=8 n=43 v=0
23040 On ch=8 n=42 v=96
23099 On ch=8 n=42 v=0
23160 On ch=8 n=54 v=96
23219 On ch=8 n=54 v=0
23700 On ch=8 n=42 v=96
23729 On ch=8 n=42 v=0
23760 On ch=8 n=43 v=96
23819 On ch=8 n=43 v=0
23880 On ch=8 n=55 v=96
23939 On ch=8 n=55 v=0
24420 On ch=8 n=55 v=96
24449 On ch=8 n=55 v=0
24480 On ch=8 n=53 v=96
24539 On ch=8 n=53 v=0
24600 On ch=8 n=65 v=96
24659 On ch=8 n=65 v=0
25020 On ch=8 n=53 v=96
25049 On ch=8 n=53 v=0
25080 On ch=8 n=53 v=96
25109 On ch=8 n=53 v=0
25140 On ch=8 n=53 v=96
25169 On ch=8 n=53 v=0
25200 On ch=8 n=51 v=96
25229 On ch=8 n=51 v=0
25260 On ch=8 n=51 v=96
25379 On ch=8 n=51 v=0
25380 On ch=8 n=52 v=96
25409 On ch=8 n=52 v=0
25440 On ch=8 n=53 v=96
25469 On ch=8 n=53 v=0
25500 On ch=8 n=54 v=96
25529 On ch=8 n=54 v=0
25560 On ch=8 n=55 v=96
25589 On ch=8 n=55 v=0
25620 On ch=8 n=55 v=96
25739 On ch=8 n=55 v=0
25740 On ch=8 n=55 v=96
25769 On ch=8 n=55 v=0
25800 On ch=8 n=56 v=96
25829 On ch=8 n=56 v=0
25860 On ch=8 n=57 v=96
25889 On ch=8 n=57 v=0
25920 On ch=8 n=58 v=96
25979 On ch=8 n=58 v=0
25980 On ch=8 n=58 v=96
26039 On ch=8 n=58 v=0
26040 On ch=8 n=56 v=96
26099 On ch=8 n=56 v=0
26100 On ch=8 n=56 v=96
26159 On ch=8 n=56 v=0
26160 On ch=8 n=55 v=96
26219 On ch=8 n=55 v=0
26220 On ch=8 n=55 v=96
26279 On ch=8 n=55 v=0
26280 On ch=8 n=54 v=96
26339 On ch=8 n=54 v=0
26340 On ch=8 n=54 v=96
26399 On ch=8 n=54 v=0
26400 On ch=8 n=53 v=96
26459 On ch=8 n=53 v=0
26460 On ch=8 n=53 v=96
26519 On ch=8 n=53 v=0
26520 On ch=8 n=50 v=96
26579 On ch=8 n=50 v=0
26580 On ch=8 n=50 v=96
26639 On ch=8 n=50 v=0
26640 On ch=8 n=51 v=96
26699 On ch=8 n=51 v=0
26700 On ch=8 n=51 v=96
26759 On ch=8 n=51 v=0
26760 On ch=8 n=51 v=96
26819 On ch=8 n=51 v=0
26820 On ch=8 n=51 v=96
26879 On ch=8 n=51 v=0
26880 On ch=8 n=51 v=96
26939 On ch=8 n=51 v=0
26940 On ch=8 n=51 v=96
26999 On ch=8 n=51 v=0
27000 On ch=8 n=51 v=96
27059 On ch=8 n=51 v=0
27060 On ch=8 n=51 v=96
27119 On ch=8 n=51 v=0
27120 On ch=8 n=51 v=96
27179 On ch=8 n=51 v=0
27180 On ch=8 n=51 v=96
27239 On ch=8 n=51 v=0
27240 On ch=8 n=51 v=96
27299 On ch=8 n=51 v=0
27300 On ch=8 n=51 v=96
27359 On ch=8 n=51 v=0
27360 On ch=8 n=53 v=96
27419 On ch=8 n=53 v=0
27420 On ch=8 n=53 v=96
27479 On ch=8 n=53 v=0
27480 On ch=8 n=53 v=96
27539 On ch=8 n=53 v=0
27540 On ch=8 n=53 v=96
27599 On ch=8 n=53 v=0
27600 On ch=8 n=53 v=96
27659 On ch=8 n=53 v=0
27660 On ch=8 n=53 v=96
27719 On ch=8 n=53 v=0
27720 On ch=8 n=53 v=96
27779 On ch=8 n=53 v=0
27780 On ch=8 n=53 v=96
27839 On ch=8 n=53 v=0
27840 On ch=8 n=53 v=96
27899 On ch=8 n=53 v=0
27900 On ch=8 n=53 v=96
27959 On ch=8 n=53 v=0
27960 On ch=8 n=53 v=96
28019 On ch=8 n=53 v=0
28020 On ch=8 n=53 v=96
28079 On ch=8 n=53 v=0
28080 On ch=8 n=41 v=96
28139 On ch=8 n=41 v=0
28140 On ch=8 n=53 v=96
28199 On ch=8 n=53 v=0
28200 On ch=8 n=53 v=96
28259 On ch=8 n=53 v=0
28260 On ch=8 n=53 v=96
28319 On ch=8 n=53 v=0
28320 On ch=8 n=53 v=96
28379 On ch=8 n=53 v=0
28380 On ch=8 n=53 v=96
28439 On ch=8 n=53 v=0
28440 On ch=8 n=53 v=96
28499 On ch=8 n=53 v=0
28500 On ch=8 n=53 v=96
28559 On ch=8 n=53 v=0
28560 On ch=8 n=53 v=96
28619 On ch=8 n=53 v=0
28620 On ch=8 n=53 v=96
28679 On ch=8 n=53 v=0
28680 On ch=8 n=53 v=96
28739 On ch=8 n=53 v=0
28740 On ch=8 n=53 v=96
28799 On ch=8 n=53 v=0
28800 On ch=8 n=53 v=127
28829 On ch=8 n=53 v=0
28860 On ch=8 n=64 v=127
28889 On ch=8 n=64 v=0
28920 On ch=8 n=63 v=127
28949 On ch=8 n=63 v=0
28980 On ch=8 n=62 v=127
29009 On ch=8 n=62 v=0
29040 On ch=8 n=60 v=127
29069 On ch=8 n=60 v=0
29100 On ch=8 n=58 v=127
29129 On ch=8 n=58 v=0
29160 On ch=8 n=57 v=127
29189 On ch=8 n=57 v=0
29220 On ch=8 n=55 v=127
29249 On ch=8 n=55 v=0
29280 On ch=8 n=53 v=127
29309 On ch=8 n=53 v=0
29340 On ch=8 n=51 v=127
29369 On ch=8 n=51 v=0
29400 On ch=8 n=50 v=127
29429 On ch=8 n=50 v=0
29460 On ch=8 n=48 v=127
29489 On ch=8 n=48 v=0
29520 On ch=8 n=46 v=127
29639 On ch=8 n=46 v=0
31080 On ch=8 n=60 v=48
31169 On ch=8 n=60 v=0
31200 On ch=8 n=60 v=48
31289 On ch=8 n=60 v=0
31320 On ch=8 n=60 v=48
31409 On ch=8 n=60 v=0
31440 On ch=8 n=60 v=60
31529 On ch=8 n=60 v=0
31560 On ch=8 n=60 v=72
31649 On ch=8 n=60 v=0
31680 On ch=8 n=60 v=84
31799 On ch=8 n=60 v=0
31800 On ch=8 n=60 v=96
32039 On ch=8 n=60 v=0
32040 On ch=8 n=60 v=96
32340 On ch=8 n=57 v=56
32349 On ch=8 n=60 v=0
32400 On ch=8 n=58 v=48
32409 On ch=8 n=57 v=0
32519 On ch=8 n=58 v=0
33960 On ch=8 n=53 v=48
34080 On ch=8 n=49 v=48
34089 On ch=8 n=53 v=0
34200 On ch=8 n=48 v=54
34209 On ch=8 n=49 v=0
34440 On ch=8 n=47 v=54
34449 On ch=8 n=48 v=0
34560 On ch=8 n=48 v=48
34569 On ch=8 n=47 v=0
34679 On ch=8 n=48 v=0
35400 On ch=8 n=53 v=32
35459 On ch=8 n=53 v=0
35520 On ch=8 n=53 v=32
35579 On ch=8 n=53 v=0
35760 On ch=8 n=53 v=32
35819 On ch=8 n=53 v=0
35880 On ch=8 n=53 v=32
35939 On ch=8 n=53 v=0
36120 On ch=8 n=53 v=32
36179 On ch=8 n=53 v=0
36240 On ch=8 n=53 v=32
36299 On ch=8 n=53 v=0
36360 On ch=8 n=53 v=32
36419 On ch=8 n=53 v=0
36480 On ch=8 n=53 v=32
36539 On ch=8 n=53 v=0
36600 On ch=8 n=53 v=32
36659 On ch=8 n=53 v=0
36720 On ch=8 n=53 v=32
36779 On ch=8 n=53 v=0
36780 On ch=8 n=53 v=32
36839 On ch=8 n=53 v=0
36840 On ch=8 n=53 v=32
36899 On ch=8 n=53 v=0
36900 On ch=8 n=53 v=32
36959 On ch=8 n=53 v=0
36960 On ch=8 n=63 v=32
36989 On ch=8 n=63 v=0
37020 On ch=8 n=62 v=32
37049 On ch=8 n=62 v=0
37080 On ch=8 n=60 v=32
37109 On ch=8 n=60 v=0
37140 On ch=8 n=62 v=32
37169 On ch=8 n=62 v=0
37200 On ch=8 n=63 v=32
37229 On ch=8 n=63 v=0
37260 On ch=8 n=62 v=32
37289 On ch=8 n=62 v=0
37320 On ch=8 n=60 v=32
37349 On ch=8 n=60 v=0
37380 On ch=8 n=58 v=32
37409 On ch=8 n=58 v=0
37440 On ch=8 n=57 v=34
37469 On ch=8 n=57 v=0
37500 On ch=8 n=58 v=37
37529 On ch=8 n=58 v=0
37560 On ch=8 n=60 v=40
37589 On ch=8 n=60 v=0
37620 On ch=8 n=62 v=43
37649 On ch=8 n=62 v=0
37680 On ch=8 n=63 v=46
37709 On ch=8 n=63 v=0
37740 On ch=8 n=62 v=48
37769 On ch=8 n=62 v=0
37800 On ch=8 n=60 v=50
37829 On ch=8 n=60 v=0
37860 On ch=8 n=62 v=53
37889 On ch=8 n=62 v=0
37920 On ch=8 n=63 v=56
37949 On ch=8 n=63 v=0
37980 On ch=8 n=62 v=59
38009 On ch=8 n=62 v=0
38040 On ch=8 n=60 v=62
38069 On ch=8 n=60 v=0
38100 On ch=8 n=58 v=64
38129 On ch=8 n=58 v=0
38160 On ch=8 n=57 v=66
38189 On ch=8 n=57 v=0
38220 On ch=8 n=58 v=69
38249 On ch=8 n=58 v=0
38280 On ch=8 n=60 v=72
38309 On ch=8 n=60 v=0
38340 On ch=8 n=62 v=75
38369 On ch=8 n=62 v=0
38400 On ch=8 n=60 v=78
38429 On ch=8 n=60 v=0
38460 On ch=8 n=58 v=80
38489 On ch=8 n=58 v=0
38520 On ch=8 n=57 v=82
38549 On ch=8 n=57 v=0
38580 On ch=8 n=55 v=85
38609 On ch=8 n=55 v=0
38640 On ch=8 n=53 v=88
38669 On ch=8 n=53 v=0
38700 On ch=8 n=51 v=90
38729 On ch=8 n=51 v=0
38760 On ch=8 n=50 v=92
38789 On ch=8 n=50 v=0
38820 On ch=8 n=48 v=94
38849 On ch=8 n=48 v=0
38880 On ch=8 n=46 v=96
38939 On ch=8 n=46 v=0
38940 On ch=8 n=41 v=96
38999 On ch=8 n=41 v=0
39000 On ch=8 n=46 v=96
39059 On ch=8 n=46 v=0
39060 On ch=8 n=41 v=96
39119 On ch=8 n=41 v=0
39120 On ch=8 n=46 v=96
39179 On ch=8 n=46 v=0
39180 On ch=8 n=41 v=96
39239 On ch=8 n=41 v=0
39240 On ch=8 n=46 v=96
39299 On ch=8 n=46 v=0
39300 On ch=8 n=41 v=96
39359 On ch=8 n=41 v=0
39360 On ch=8 n=46 v=112
39419 On ch=8 n=46 v=0
39420 On ch=8 n=41 v=96
39479 On ch=8 n=41 v=0
39480 On ch=8 n=46 v=96
39539 On ch=8 n=46 v=0
39540 On ch=8 n=41 v=96
39599 On ch=8 n=41 v=0
39600 On ch=8 n=45 v=96
39659 On ch=8 n=45 v=0
39660 On ch=8 n=41 v=96
39719 On ch=8 n=41 v=0
39720 On ch=8 n=45 v=112
39779 On ch=8 n=45 v=0
39780 On ch=8 n=41 v=96
39839 On ch=8 n=41 v=0
39840 On ch=8 n=45 v=96
39899 On ch=8 n=45 v=0
39900 On ch=8 n=41 v=96
39959 On ch=8 n=41 v=0
39960 On ch=8 n=48 v=96
40019 On ch=8 n=48 v=0
40020 On ch=8 n=41 v=96
40079 On ch=8 n=41 v=0
40080 On ch=8 n=51 v=112
40139 On ch=8 n=51 v=0
40140 On ch=8 n=41 v=96
40199 On ch=8 n=41 v=0
40200 On ch=8 n=45 v=96
40259 On ch=8 n=45 v=0
40260 On ch=8 n=41 v=96
40319 On ch=8 n=41 v=0
40320 On ch=8 n=46 v=127
40379 On ch=8 n=46 v=0
40380 On ch=8 n=41 v=127
40439 On ch=8 n=41 v=0
40440 On ch=8 n=46 v=127
40499 On ch=8 n=46 v=0
40500 On ch=8 n=41 v=127
40559 On ch=8 n=41 v=0
40560 On ch=8 n=46 v=127
40619 On ch=8 n=46 v=0
40620 On ch=8 n=41 v=127
40679 On ch=8 n=41 v=0
40680 On ch=8 n=46 v=127
40739 On ch=8 n=46 v=0
40740 On ch=8 n=41 v=127
40799 On ch=8 n=41 v=0
40800 On ch=8 n=46 v=127
40859 On ch=8 n=46 v=0
40860 On ch=8 n=41 v=127
40919 On ch=8 n=41 v=0
40920 On ch=8 n=46 v=127
40979 On ch=8 n=46 v=0
40980 On ch=8 n=41 v=127
41039 On ch=8 n=41 v=0
41040 On ch=8 n=45 v=127
41099 On ch=8 n=45 v=0
41100 On ch=8 n=41 v=127
41159 On ch=8 n=41 v=0
41160 On ch=8 n=45 v=127
41219 On ch=8 n=45 v=0
41220 On ch=8 n=41 v=127
41279 On ch=8 n=41 v=0
41280 On ch=8 n=45 v=127
41339 On ch=8 n=45 v=0
41340 On ch=8 n=41 v=127
41399 On ch=8 n=41 v=0
41400 On ch=8 n=48 v=127
41459 On ch=8 n=48 v=0
41460 On ch=8 n=41 v=127
41519 On ch=8 n=41 v=0
41520 On ch=8 n=51 v=127
41579 On ch=8 n=51 v=0
41580 On ch=8 n=53 v=127
41639 On ch=8 n=53 v=0
41640 On ch=8 n=51 v=127
41699 On ch=8 n=51 v=0
41700 On ch=8 n=53 v=127
41759 On ch=8 n=53 v=0
41760 On ch=8 n=50 v=127
42060 On ch=8 n=49 v=127
42069 On ch=8 n=50 v=0
42119 On ch=8 n=49 v=0
42120 On ch=8 n=50 v=127
42149 On ch=8 n=50 v=0
42180 On ch=8 n=45 v=127
42209 On ch=8 n=45 v=0
42240 On ch=8 n=46 v=127
42269 On ch=8 n=46 v=0
42300 On ch=8 n=48 v=127
42329 On ch=8 n=48 v=0
42360 On ch=8 n=49 v=127
42389 On ch=8 n=49 v=0
42420 On ch=8 n=50 v=127
42449 On ch=8 n=50 v=0
42480 On ch=8 n=51 v=127
42509 On ch=8 n=51 v=0
42540 On ch=8 n=50 v=127
42569 On ch=8 n=50 v=0
42600 On ch=8 n=48 v=127
42629 On ch=8 n=48 v=0
42660 On ch=8 n=52 v=127
42689 On ch=8 n=52 v=0
42720 On ch=8 n=53 v=127
42749 On ch=8 n=53 v=0
42780 On ch=8 n=51 v=127
42809 On ch=8 n=51 v=0
42840 On ch=8 n=50 v=127
42869 On ch=8 n=50 v=0
42900 On ch=8 n=54 v=127
42929 On ch=8 n=54 v=0
42960 On ch=8 n=55 v=127
42989 On ch=8 n=55 v=0
43020 On ch=8 n=53 v=127
43049 On ch=8 n=53 v=0
43080 On ch=8 n=51 v=127
43109 On ch=8 n=51 v=0
43140 On ch=8 n=55 v=127
43169 On ch=8 n=55 v=0
43200 On ch=8 n=57 v=127
43229 On ch=8 n=57 v=0
43260 On ch=8 n=55 v=127
43289 On ch=8 n=55 v=0
43320 On ch=8 n=53 v=127
43349 On ch=8 n=53 v=0
43380 On ch=8 n=57 v=127
43409 On ch=8 n=57 v=0
43440 On ch=8 n=58 v=127
43469 On ch=8 n=58 v=0
43500 On ch=8 n=57 v=127
43529 On ch=8 n=57 v=0
43560 On ch=8 n=55 v=127
43589 On ch=8 n=55 v=0
43620 On ch=8 n=54 v=127
43649 On ch=8 n=54 v=0
43680 On ch=8 n=55 v=127
43709 On ch=8 n=55 v=0
43740 On ch=8 n=53 v=127
43769 On ch=8 n=53 v=0
43800 On ch=8 n=52 v=127
43829 On ch=8 n=52 v=0
43860 On ch=8 n=51 v=127
43889 On ch=8 n=51 v=0
43920 On ch=8 n=50 v=127
43979 On ch=8 n=50 v=0
44040 On ch=8 n=54 v=127
44099 On ch=8 n=54 v=0
44160 On ch=8 n=55 v=127
44219 On ch=8 n=55 v=0
44400 On ch=8 n=50 v=127
44459 On ch=8 n=50 v=0
44520 On ch=8 n=51 v=127
44579 On ch=8 n=51 v=0
44760 On ch=8 n=52 v=127
44819 On ch=8 n=52 v=0
44880 On ch=8 n=53 v=127
44939 On ch=8 n=53 v=0
45120 On ch=8 n=54 v=127
45179 On ch=8 n=54 v=0
45240 On ch=8 n=55 v=127
45299 On ch=8 n=55 v=0
45480 On ch=8 n=50 v=127
45539 On ch=8 n=50 v=0
45600 On ch=8 n=51 v=127
45659 On ch=8 n=51 v=0
45840 On ch=8 n=52 v=127
45899 On ch=8 n=52 v=0
46080 On ch=8 n=52 v=127
46139 On ch=8 n=52 v=0
46320 On ch=8 n=52 v=127
46379 On ch=8 n=52 v=0
46560 On ch=8 n=52 v=127
46619 On ch=8 n=52 v=0
46800 On ch=8 n=52 v=127
46859 On ch=8 n=52 v=0
47040 On ch=8 n=52 v=127
47099 On ch=8 n=52 v=0
47160 On ch=8 n=53 v=48
47280 On ch=8 n=58 v=48
47289 On ch=8 n=53 v=0
47400 On ch=8 n=62 v=48
47409 On ch=8 n=58 v=0
47519 On ch=8 n=62 v=0
47520 On ch=8 n=54 v=96
47549 On ch=8 n=54 v=0
47550 On ch=8 n=54 v=48
47879 On ch=8 n=54 v=0
47880 On ch=8 n=53 v=48
48000 On ch=8 n=58 v=48
48009 On ch=8 n=53 v=0
48120 On ch=8 n=62 v=48
48129 On ch=8 n=58 v=0
48239 On ch=8 n=62 v=0
48240 On ch=8 n=55 v=96
48269 On ch=8 n=55 v=0
48270 On ch=8 n=55 v=48
48719 On ch=8 n=55 v=0
48780 On ch=8 n=43 v=48
48809 On ch=8 n=43 v=0
48840 On ch=8 n=46 v=48
48869 On ch=8 n=46 v=0
48900 On ch=8 n=51 v=48
48929 On ch=8 n=51 v=0
48960 On ch=8 n=44 v=48
49079 On ch=8 n=44 v=0
49140 On ch=8 n=44 v=48
49169 On ch=8 n=44 v=0
49200 On ch=8 n=48 v=48
49229 On ch=8 n=48 v=0
49260 On ch=8 n=51 v=48
49289 On ch=8 n=51 v=0
49320 On ch=8 n=45 v=48
49439 On ch=8 n=45 v=0
49500 On ch=8 n=45 v=48
49529 On ch=8 n=45 v=0
49560 On ch=8 n=48 v=48
49589 On ch=8 n=48 v=0
49620 On ch=8 n=53 v=48
49649 On ch=8 n=53 v=0
49680 On ch=8 n=46 v=48
49799 On ch=8 n=46 v=0
49860 On ch=8 n=58 v=48
49889 On ch=8 n=58 v=0
49920 On ch=8 n=53 v=48
49949 On ch=8 n=53 v=0
49980 On ch=8 n=50 v=48
50009 On ch=8 n=50 v=0
50040 On ch=8 n=51 v=48
50099 On ch=8 n=51 v=0
50100 On ch=8 n=51 v=52
50159 On ch=8 n=51 v=0
50160 On ch=8 n=51 v=57
50219 On ch=8 n=51 v=0
50220 On ch=8 n=51 v=61
50279 On ch=8 n=51 v=0
50280 On ch=8 n=51 v=66
50339 On ch=8 n=51 v=0
50340 On ch=8 n=51 v=70
50399 On ch=8 n=51 v=0
50400 On ch=8 n=48 v=75
50459 On ch=8 n=48 v=0
50460 On ch=8 n=48 v=79
50519 On ch=8 n=48 v=0
50520 On ch=8 n=48 v=83
50579 On ch=8 n=48 v=0
50580 On ch=8 n=48 v=87
50640 On ch=8 n=50 v=91
50649 On ch=8 n=48 v=0
50700 On ch=8 n=51 v=96
50709 On ch=8 n=50 v=0
50760 On ch=8 n=53 v=101
50769 On ch=8 n=51 v=0
50819 On ch=8 n=53 v=0
50820 On ch=8 n=53 v=105
50879 On ch=8 n=53 v=0
50880 On ch=8 n=53 v=109
50939 On ch=8 n=53 v=0
50940 On ch=8 n=53 v=114
50999 On ch=8 n=53 v=0
51000 On ch=8 n=50 v=118
51059 On ch=8 n=50 v=0
51060 On ch=8 n=46 v=123
51119 On ch=8 n=46 v=0
51120 On ch=8 n=41 v=127
51179 On ch=8 n=41 v=0
51180 On ch=8 n=53 v=127
51239 On ch=8 n=53 v=0
51240 On ch=8 n=53 v=127
51299 On ch=8 n=53 v=0
51300 On ch=8 n=53 v=127
51359 On ch=8 n=53 v=0
51360 On ch=8 n=53 v=127
51419 On ch=8 n=53 v=0
51420 On ch=8 n=53 v=127
51479 On ch=8 n=53 v=0
51480 On ch=8 n=58 v=96
51539 On ch=8 n=58 v=0
51840 On ch=8 n=46 v=96
51899 On ch=8 n=46 v=0
52200 On ch=8 n=46 v=96
52259 On ch=8 n=46 v=0
52560 On ch=8 n=46 v=96
52619 On ch=8 n=46 v=0
52680 On ch=8 n=46 v=96
52739 On ch=8 n=46 v=0
52800 On ch=8 n=46 v=96
52859 On ch=8 n=46 v=0
52920 On ch=8 n=46 v=96
52949 On ch=8 n=46 v=0
52950 On ch=8 n=46 v=48
54600 On ch=8 n=47 v=32
54609 On ch=8 n=46 v=0
54720 On ch=8 n=45 v=32
54729 On ch=8 n=47 v=0
54959 On ch=8 n=45 v=0
54960 On ch=8 n=46 v=96
54989 On ch=8 n=46 v=0
54990 On ch=8 n=46 v=48
55079 On ch=8 n=46 v=0
55080 On ch=8 n=51 v=48
55320 On ch=8 n=55 v=48
55329 On ch=8 n=51 v=0
55440 On ch=8 n=51 v=48
55449 On ch=8 n=55 v=0
55680 On ch=8 n=46 v=48
55689 On ch=8 n=51 v=0
55799 On ch=8 n=46 v=0
55800 On ch=8 n=51 v=54
55920 On ch=8 n=55 v=54
55929 On ch=8 n=51 v=0
56040 On ch=8 n=58 v=54
56049 On ch=8 n=55 v=0
56159 On ch=8 n=58 v=0
56160 On ch=8 n=51 v=54
56400 On ch=8 n=50 v=54
56409 On ch=8 n=51 v=0
56520 On ch=8 n=49 v=64
56529 On ch=8 n=50 v=0
56640 ChPr ch=8 v=20
57239 On ch=8 n=49 v=0
57240 On ch=8 n=50 v=96
57839 On ch=8 n=50 v=0
57840 On ch=8 n=50 v=54
57960 On ch=8 n=51 v=48
57969 On ch=8 n=50 v=0
58319 On ch=8 n=51 v=0
58320 On ch=8 n=44 v=48
58440 On ch=8 n=46 v=48
58449 On ch=8 n=44 v=0
58560 On ch=8 n=48 v=48
58569 On ch=8 n=46 v=0
58679 On ch=8 n=48 v=0
58680 On ch=8 n=46 v=48
59039 On ch=8 n=46 v=0
59040 On ch=8 n=46 v=48
59099 On ch=8 n=46 v=0
59160 On ch=8 n=46 v=48
59219 On ch=8 n=46 v=0
59280 On ch=8 n=46 v=48
59339 On ch=8 n=46 v=0
59400 On ch=8 n=51 v=48
59519 On ch=8 n=51 v=0
60720 On ch=8 n=48 v=48
60840 On ch=8 n=53 v=48
60849 On ch=8 n=48 v=0
60960 On ch=8 n=56 v=48
60969 On ch=8 n=53 v=0
61080 On ch=8 n=60 v=48
61089 On ch=8 n=56 v=0
61199 On ch=8 n=60 v=0
61200 On ch=8 n=53 v=48
61319 On ch=8 n=53 v=0
62040 On ch=8 n=48 v=48
62160 On ch=8 n=47 v=64
62169 On ch=8 n=48 v=0
62280 On ch=8 n=46 v=96
62289 On ch=8 n=47 v=0
62339 On ch=8 n=46 v=0
62340 On ch=8 n=46 v=48
62400 On ch=8 n=50 v=48
62409 On ch=8 n=46 v=0
62460 On ch=8 n=53 v=48
62469 On ch=8 n=50 v=0
62520 On ch=8 n=58 v=48
62529 On ch=8 n=53 v=0
62580 On ch=8 n=62 v=48
62589 On ch=8 n=58 v=0
62640 On ch=8 n=65 v=48
62649 On ch=8 n=62 v=0
62759 On ch=8 n=65 v=0
62880 On ch=8 n=46 v=48
63119 On ch=8 n=46 v=0
63120 On ch=8 n=46 v=96
63359 On ch=8 n=46 v=0
63360 On ch=8 n=46 v=96
63599 On ch=8 n=46 v=0
63600 On ch=8 n=46 v=96
63719 On ch=8 n=46 v=0
63720 On ch=8 n=46 v=96
63779 On ch=8 n=46 v=0
63780 On ch=8 n=46 v=48
63840 On ch=8 n=50 v=48
63849 On ch=8 n=46 v=0
63900 On ch=8 n=53 v=48
63909 On ch=8 n=50 v=0
63960 On ch=8 n=58 v=48
63969 On ch=8 n=53 v=0
64020 On ch=8 n=62 v=48
64029 On ch=8 n=58 v=0
64080 On ch=8 n=65 v=48
64089 On ch=8 n=62 v=0
64199 On ch=8 n=65 v=0
64320 On ch=8 n=46 v=96
64440 On ch=8 n=44 v=90
64449 On ch=8 n=46 v=0
64559 On ch=8 n=44 v=0
64560 On ch=8 n=56 v=96
64799 On ch=8 n=56 v=0
64800 On ch=8 n=56 v=96
65039 On ch=8 n=56 v=0
65040 On ch=8 n=56 v=96
65279 On ch=8 n=56 v=0
65280 On ch=8 n=55 v=96
65519 On ch=8 n=55 v=0
65520 On ch=8 n=55 v=96
65759 On ch=8 n=55 v=0
65760 On ch=8 n=55 v=96
65999 On ch=8 n=55 v=0
66000 On ch=8 n=56 v=90
66059 On ch=8 n=56 v=0
66120 On ch=8 n=56 v=96
66359 On ch=8 n=56 v=0
66360 On ch=8 n=55 v=96
66419 On ch=8 n=55 v=0
66480 On ch=8 n=55 v=96
66600 On ch=8 n=53 v=96
66609 On ch=8 n=55 v=0
66629 On ch=8 n=53 v=0
66660 On ch=8 n=53 v=99
66689 On ch=8 n=53 v=0
66720 On ch=8 n=53 v=102
66749 On ch=8 n=53 v=0
66780 On ch=8 n=53 v=105
66809 On ch=8 n=53 v=0
66840 On ch=8 n=53 v=107
66869 On ch=8 n=53 v=0
66900 On ch=8 n=53 v=110
66929 On ch=8 n=53 v=0
66960 On ch=8 n=46 v=112
67019 On ch=8 n=46 v=0
67020 On ch=8 n=58 v=115
67079 On ch=8 n=58 v=0
67080 On ch=8 n=58 v=117
67139 On ch=8 n=58 v=0
67140 On ch=8 n=58 v=120
67199 On ch=8 n=58 v=0
67200 On ch=8 n=58 v=123
67259 On ch=8 n=58 v=0
67260 On ch=8 n=58 v=125
67319 On ch=8 n=58 v=0
67320 On ch=8 n=51 v=127
67560 On ch=8 n=55 v=127
67569 On ch=8 n=51 v=0
67680 On ch=8 n=51 v=127
67689 On ch=8 n=55 v=0
67920 On ch=8 n=46 v=127
67929 On ch=8 n=51 v=0
68039 On ch=8 n=46 v=0
68040 On ch=8 n=51 v=127
68160 On ch=8 n=55 v=127
68169 On ch=8 n=51 v=0
68280 On ch=8 n=58 v=127
68289 On ch=8 n=55 v=0
68399 On ch=8 n=58 v=0
68400 On ch=8 n=51 v=127
68639 On ch=8 n=51 v=0
68640 On ch=8 n=43 v=127
68759 On ch=8 n=43 v=0
68760 On ch=8 n=48 v=127
68880 On ch=8 n=51 v=127
68889 On ch=8 n=48 v=0
69000 On ch=8 n=55 v=127
69009 On ch=8 n=51 v=0
69119 On ch=8 n=55 v=0
69120 On ch=8 n=48 v=127
69359 On ch=8 n=48 v=0
69360 On ch=8 n=39 v=127
69479 On ch=8 n=39 v=0
69480 On ch=8 n=44 v=127
69539 On ch=8 n=44 v=0
69540 On ch=8 n=56 v=127
69599 On ch=8 n=56 v=0
69600 On ch=8 n=56 v=127
69659 On ch=8 n=56 v=0
69660 On ch=8 n=56 v=127
69719 On ch=8 n=56 v=0
69720 On ch=8 n=56 v=127
69779 On ch=8 n=56 v=0
69780 On ch=8 n=56 v=127
69839 On ch=8 n=56 v=0
69840 On ch=8 n=54 v=127
69899 On ch=8 n=54 v=0
69900 On ch=8 n=54 v=127
69959 On ch=8 n=54 v=0
69960 On ch=8 n=54 v=127
70019 On ch=8 n=54 v=0
70020 On ch=8 n=54 v=127
70079 On ch=8 n=54 v=0
70080 On ch=8 n=54 v=127
70139 On ch=8 n=54 v=0
70140 On ch=8 n=54 v=127
70199 On ch=8 n=54 v=0
70200 On ch=8 n=53 v=127
70319 On ch=8 n=53 v=0
70920 On ch=8 n=41 v=48
70979 On ch=8 n=41 v=0
71040 On ch=8 n=45 v=48
71099 On ch=8 n=45 v=0
71160 On ch=8 n=48 v=48
71219 On ch=8 n=48 v=0
71280 On ch=8 n=53 v=48
71339 On ch=8 n=53 v=0
71400 On ch=8 n=57 v=48
71459 On ch=8 n=57 v=0
71520 On ch=8 n=60 v=48
71579 On ch=8 n=60 v=0
71640 On ch=8 n=53 v=48
71759 On ch=8 n=53 v=0
72360 On ch=8 n=41 v=48
72419 On ch=8 n=41 v=0
72480 On ch=8 n=46 v=48
72539 On ch=8 n=46 v=0
72600 On ch=8 n=50 v=48
72659 On ch=8 n=50 v=0
72720 On ch=8 n=53 v=48
72779 On ch=8 n=53 v=0
72840 On ch=8 n=62 v=48
72899 On ch=8 n=62 v=0
72960 On ch=8 n=58 v=48
73019 On ch=8 n=58 v=0
73080 On ch=8 n=53 v=48
73199 On ch=8 n=53 v=0
73920 On ch=8 n=55 v=127
74099 On ch=8 n=55 v=0
74100 On ch=8 n=53 v=127
74159 On ch=8 n=53 v=0
74160 On ch=8 n=51 v=127
74219 On ch=8 n=51 v=0
74280 On ch=8 n=50 v=127
74339 On ch=8 n=50 v=0
74400 On ch=8 n=48 v=127
74459 On ch=8 n=48 v=0
74520 On ch=8 n=58 v=48
74760 On ch=8 n=57 v=51
74769 On ch=8 n=58 v=0
74820 On ch=8 n=56 v=53
74829 On ch=8 n=57 v=0
74880 On ch=8 n=55 v=56
74889 On ch=8 n=56 v=0
75000 On ch=8 n=53 v=52
75009 On ch=8 n=55 v=0
75120 On ch=8 n=51 v=48
75129 On ch=8 n=53 v=0
75240 On ch=8 n=50 v=48
75249 On ch=8 n=51 v=0
75269 On ch=8 n=50 v=0
75300 On ch=8 n=53 v=48
75329 On ch=8 n=53 v=0
75360 On ch=8 n=51 v=48
75389 On ch=8 n=51 v=0
75420 On ch=8 n=50 v=48
75449 On ch=8 n=50 v=0
75480 On ch=8 n=48 v=48
75509 On ch=8 n=48 v=0
75540 On ch=8 n=46 v=48
75569 On ch=8 n=46 v=0
75600 On ch=8 n=45 v=48
75629 On ch=8 n=45 v=0
75660 On ch=8 n=46 v=48
75689 On ch=8 n=46 v=0
75720 On ch=8 n=48 v=48
75749 On ch=8 n=48 v=0
75780 On ch=8 n=41 v=48
75809 On ch=8 n=41 v=0
75840 On ch=8 n=43 v=48
75869 On ch=8 n=43 v=0
75900 On ch=8 n=45 v=48
75929 On ch=8 n=45 v=0
75960 On ch=8 n=46 v=48
75989 On ch=8 n=46 v=0
76020 On ch=8 n=58 v=50
76049 On ch=8 n=58 v=0
76080 On ch=8 n=58 v=52
76109 On ch=8 n=58 v=0
76140 On ch=8 n=58 v=54
76200 On ch=8 n=57 v=56
76209 On ch=8 n=58 v=0
76260 On ch=8 n=56 v=58
76269 On ch=8 n=57 v=0
76319 On ch=8 n=56 v=0
76320 On ch=8 n=55 v=60
76380 On ch=8 n=53 v=62
76389 On ch=8 n=55 v=0
76439 On ch=8 n=53 v=0
76440 On ch=8 n=51 v=64
76469 On ch=8 n=51 v=0
76500 On ch=8 n=55 v=66
76529 On ch=8 n=55 v=0
76560 On ch=8 n=53 v=68
76589 On ch=8 n=53 v=0
76620 On ch=8 n=51 v=70
76649 On ch=8 n=51 v=0
76680 On ch=8 n=50 v=72
76709 On ch=8 n=50 v=0
76740 On ch=8 n=53 v=74
76769 On ch=8 n=53 v=0
76800 On ch=8 n=51 v=76
76829 On ch=8 n=51 v=0
76860 On ch=8 n=50 v=78
76889 On ch=8 n=50 v=0
76920 On ch=8 n=48 v=80
76949 On ch=8 n=48 v=0
76980 On ch=8 n=46 v=82
77009 On ch=8 n=46 v=0
77040 On ch=8 n=45 v=84
77069 On ch=8 n=45 v=0
77100 On ch=8 n=46 v=86
77129 On ch=8 n=46 v=0
77160 On ch=8 n=48 v=88
77189 On ch=8 n=48 v=0
77220 On ch=8 n=46 v=90
77249 On ch=8 n=46 v=0
77280 On ch=8 n=45 v=92
77309 On ch=8 n=45 v=0
77340 On ch=8 n=43 v=94
77369 On ch=8 n=43 v=0
77400 On ch=8 n=42 v=96
77459 On ch=8 n=42 v=0
77520 On ch=8 n=54 v=96
77579 On ch=8 n=54 v=0
78060 On ch=8 n=42 v=96
78089 On ch=8 n=42 v=0
78120 On ch=8 n=43 v=96
78179 On ch=8 n=43 v=0
78240 On ch=8 n=55 v=96
78299 On ch=8 n=55 v=0
78780 On ch=8 n=55 v=96
78809 On ch=8 n=55 v=0
78840 On ch=8 n=53 v=96
78899 On ch=8 n=53 v=0
78960 On ch=8 n=65 v=96
79019 On ch=8 n=65 v=0
79380 On ch=8 n=53 v=96
79409 On ch=8 n=53 v=0
79440 On ch=8 n=53 v=96
79469 On ch=8 n=53 v=0
79500 On ch=8 n=53 v=96
79529 On ch=8 n=53 v=0
79560 On ch=8 n=51 v=96
79589 On ch=8 n=51 v=0
79620 On ch=8 n=51 v=96
79739 On ch=8 n=51 v=0
79740 On ch=8 n=52 v=96
79769 On ch=8 n=52 v=0
79800 On ch=8 n=53 v=96
79829 On ch=8 n=53 v=0
79860 On ch=8 n=54 v=96
79889 On ch=8 n=54 v=0
79920 On ch=8 n=55 v=96
79949 On ch=8 n=55 v=0
79980 On ch=8 n=55 v=96
80099 On ch=8 n=55 v=0
80100 On ch=8 n=55 v=96
80129 On ch=8 n=55 v=0
80160 On ch=8 n=56 v=96
80189 On ch=8 n=56 v=0
80220 On ch=8 n=57 v=96
80249 On ch=8 n=57 v=0
80280 On ch=8 n=58 v=96
80339 On ch=8 n=58 v=0
80340 On ch=8 n=58 v=96
80399 On ch=8 n=58 v=0
80400 On ch=8 n=56 v=96
80459 On ch=8 n=56 v=0
80460 On ch=8 n=56 v=96
80519 On ch=8 n=56 v=0
80520 On ch=8 n=55 v=96
80579 On ch=8 n=55 v=0
80580 On ch=8 n=55 v=96
80639 On ch=8 n=55 v=0
80640 On ch=8 n=54 v=96
80699 On ch=8 n=54 v=0
80700 On ch=8 n=54 v=96
80759 On ch=8 n=54 v=0
80760 On ch=8 n=53 v=96
80819 On ch=8 n=53 v=0
80820 On ch=8 n=53 v=96
80879 On ch=8 n=53 v=0
80880 On ch=8 n=50 v=96
80939 On ch=8 n=50 v=0
80940 On ch=8 n=50 v=96
80999 On ch=8 n=50 v=0
81000 On ch=8 n=51 v=96
81059 On ch=8 n=51 v=0
81060 On ch=8 n=51 v=96
81119 On ch=8 n=51 v=0
81120 On ch=8 n=51 v=96
81179 On ch=8 n=51 v=0
81180 On ch=8 n=51 v=96
81239 On ch=8 n=51 v=0
81240 On ch=8 n=51 v=96
81299 On ch=8 n=51 v=0
81300 On ch=8 n=51 v=96
81359 On ch=8 n=51 v=0
81360 On ch=8 n=51 v=96
81419 On ch=8 n=51 v=0
81420 On ch=8 n=51 v=96
81479 On ch=8 n=51 v=0
81480 On ch=8 n=51 v=96
81539 On ch=8 n=51 v=0
81540 On ch=8 n=51 v=96
81599 On ch=8 n=51 v=0
81600 On ch=8 n=51 v=96
81659 On ch=8 n=51 v=0
81660 On ch=8 n=51 v=96
81719 On ch=8 n=51 v=0
81720 On ch=8 n=53 v=96
81779 On ch=8 n=53 v=0
81780 On ch=8 n=53 v=96
81839 On ch=8 n=53 v=0
81840 On ch=8 n=53 v=96
81899 On ch=8 n=53 v=0
81900 On ch=8 n=53 v=96
81959 On ch=8 n=53 v=0
81960 On ch=8 n=53 v=96
82019 On ch=8 n=53 v=0
82020 On ch=8 n=53 v=96
82079 On ch=8 n=53 v=0
82080 On ch=8 n=53 v=96
82139 On ch=8 n=53 v=0
82140 On ch=8 n=53 v=96
82199 On ch=8 n=53 v=0
82200 On ch=8 n=53 v=96
82259 On ch=8 n=53 v=0
82260 On ch=8 n=53 v=96
82319 On ch=8 n=53 v=0
82320 On ch=8 n=53 v=96
82379 On ch=8 n=53 v=0
82380 On ch=8 n=53 v=96
82439 On ch=8 n=53 v=0
82440 On ch=8 n=41 v=96
82499 On ch=8 n=41 v=0
82500 On ch=8 n=53 v=96
82559 On ch=8 n=53 v=0
82560 On ch=8 n=53 v=96
82619 On ch=8 n=53 v=0
82620 On ch=8 n=53 v=96
82679 On ch=8 n=53 v=0
82680 On ch=8 n=53 v=96
82739 On ch=8 n=53 v=0
82740 On ch=8 n=53 v=96
82799 On ch=8 n=53 v=0
82800 On ch=8 n=53 v=96
82859 On ch=8 n=53 v=0
82860 On ch=8 n=53 v=96
82919 On ch=8 n=53 v=0
82920 On ch=8 n=53 v=96
82979 On ch=8 n=53 v=0
82980 On ch=8 n=53 v=96
83039 On ch=8 n=53 v=0
83040 On ch=8 n=53 v=96
83099 On ch=8 n=53 v=0
83100 On ch=8 n=53 v=96
83159 On ch=8 n=53 v=0
83160 On ch=8 n=53 v=127
83189 On ch=8 n=53 v=0
83220 On ch=8 n=64 v=127
83249 On ch=8 n=64 v=0
83280 On ch=8 n=63 v=127
83309 On ch=8 n=63 v=0
83340 On ch=8 n=62 v=127
83369 On ch=8 n=62 v=0
83400 On ch=8 n=60 v=127
83429 On ch=8 n=60 v=0
83460 On ch=8 n=58 v=127
83489 On ch=8 n=58 v=0
83520 On ch=8 n=57 v=127
83549 On ch=8 n=57 v=0
83580 On ch=8 n=55 v=127
83609 On ch=8 n=55 v=0
83640 On ch=8 n=53 v=127
83669 On ch=8 n=53 v=0
83700 On ch=8 n=51 v=127
83729 On ch=8 n=51 v=0
83760 On ch=8 n=50 v=127
83789 On ch=8 n=50 v=0
83820 On ch=8 n=48 v=127
83849 On ch=8 n=48 v=0
83880 On ch=8 n=46 v=127
83999 On ch=8 n=46 v=0
85440 On ch=8 n=60 v=48
85529 On ch=8 n=60 v=0
85560 On ch=8 n=60 v=48
85649 On ch=8 n=60 v=0
85680 On ch=8 n=60 v=48
85769 On ch=8 n=60 v=0
85800 On ch=8 n=60 v=60
85889 On ch=8 n=60 v=0
85920 On ch=8 n=60 v=72
86009 On ch=8 n=60 v=0
86040 On ch=8 n=60 v=84
86129 On ch=8 n=60 v=0
86160 On ch=8 n=60 v=96
86399 On ch=8 n=60 v=0
86400 On ch=8 n=60 v=96
86700 On ch=8 n=57 v=56
86709 On ch=8 n=60 v=0
86760 On ch=8 n=58 v=48
86769 On ch=8 n=57 v=0
86879 On ch=8 n=58 v=0
88320 On ch=8 n=53 v=48
88440 On ch=8 n=49 v=48
88449 On ch=8 n=53 v=0
88560 On ch=8 n=48 v=54
88569 On ch=8 n=49 v=0
88800 On ch=8 n=47 v=54
88809 On ch=8 n=48 v=0
88920 On ch=8 n=48 v=48
88929 On ch=8 n=47 v=0
89039 On ch=8 n=48 v=0
89760 On ch=8 n=53 v=32
89819 On ch=8 n=53 v=0
89880 On ch=8 n=53 v=32
89939 On ch=8 n=53 v=0
90120 On ch=8 n=53 v=32
90179 On ch=8 n=53 v=0
90240 On ch=8 n=53 v=32
90299 On ch=8 n=53 v=0
90480 On ch=8 n=53 v=32
90539 On ch=8 n=53 v=0
90600 On ch=8 n=53 v=32
90659 On ch=8 n=53 v=0
90720 On ch=8 n=53 v=32
90779 On ch=8 n=53 v=0
90840 On ch=8 n=53 v=32
90899 On ch=8 n=53 v=0
90960 On ch=8 n=53 v=32
91019 On ch=8 n=53 v=0
91080 On ch=8 n=53 v=32
91139 On ch=8 n=53 v=0
91140 On ch=8 n=53 v=32
91199 On ch=8 n=53 v=0
91200 On ch=8 n=53 v=32
91259 On ch=8 n=53 v=0
91260 On ch=8 n=53 v=32
91319 On ch=8 n=53 v=0
91320 On ch=8 n=63 v=32
91349 On ch=8 n=63 v=0
91380 On ch=8 n=62 v=32
91409 On ch=8 n=62 v=0
91440 On ch=8 n=60 v=32
91469 On ch=8 n=60 v=0
91500 On ch=8 n=62 v=32
91529 On ch=8 n=62 v=0
91560 On ch=8 n=63 v=32
91589 On ch=8 n=63 v=0
91620 On ch=8 n=62 v=32
91649 On ch=8 n=62 v=0
91680 On ch=8 n=60 v=32
91709 On ch=8 n=60 v=0
91740 On ch=8 n=58 v=32
91769 On ch=8 n=58 v=0
91800 On ch=8 n=57 v=34
91829 On ch=8 n=57 v=0
91860 On ch=8 n=58 v=37
91889 On ch=8 n=58 v=0
91920 On ch=8 n=60 v=40
91949 On ch=8 n=60 v=0
91980 On ch=8 n=62 v=43
92009 On ch=8 n=62 v=0
92040 On ch=8 n=63 v=46
92069 On ch=8 n=63 v=0
92100 On ch=8 n=62 v=48
92129 On ch=8 n=62 v=0
92160 On ch=8 n=60 v=50
92189 On ch=8 n=60 v=0
92220 On ch=8 n=62 v=53
92249 On ch=8 n=62 v=0
92280 On ch=8 n=63 v=56
92309 On ch=8 n=63 v=0
92340 On ch=8 n=62 v=59
92369 On ch=8 n=62 v=0
92400 On ch=8 n=60 v=62
92429 On ch=8 n=60 v=0
92460 On ch=8 n=58 v=64
92489 On ch=8 n=58 v=0
92520 On ch=8 n=57 v=66
92549 On ch=8 n=57 v=0
92580 On ch=8 n=58 v=69
92609 On ch=8 n=58 v=0
92640 On ch=8 n=60 v=72
92669 On ch=8 n=60 v=0
92700 On ch=8 n=62 v=75
92729 On ch=8 n=62 v=0
92760 On ch=8 n=60 v=78
92789 On ch=8 n=60 v=0
92820 On ch=8 n=58 v=80
92849 On ch=8 n=58 v=0
92880 On ch=8 n=57 v=82
92909 On ch=8 n=57 v=0
92940 On ch=8 n=55 v=85
92969 On ch=8 n=55 v=0
93000 On ch=8 n=53 v=88
93029 On ch=8 n=53 v=0
93060 On ch=8 n=51 v=90
93089 On ch=8 n=51 v=0
93120 On ch=8 n=50 v=92
93149 On ch=8 n=50 v=0
93180 On ch=8 n=48 v=94
93209 On ch=8 n=48 v=0
93240 On ch=8 n=46 v=96
93299 On ch=8 n=46 v=0
93300 On ch=8 n=41 v=96
93359 On ch=8 n=41 v=0
93360 On ch=8 n=46 v=96
93419 On ch=8 n=46 v=0
93420 On ch=8 n=41 v=96
93479 On ch=8 n=41 v=0
93480 On ch=8 n=46 v=96
93539 On ch=8 n=46 v=0
93540 On ch=8 n=41 v=96
93599 On ch=8 n=41 v=0
93600 On ch=8 n=46 v=96
93659 On ch=8 n=46 v=0
93660 On ch=8 n=41 v=96
93719 On ch=8 n=41 v=0
93720 On ch=8 n=46 v=112
93779 On ch=8 n=46 v=0
93780 On ch=8 n=41 v=96
93839 On ch=8 n=41 v=0
93840 On ch=8 n=46 v=96
93899 On ch=8 n=46 v=0
93900 On ch=8 n=41 v=96
93959 On ch=8 n=41 v=0
93960 On ch=8 n=45 v=96
94019 On ch=8 n=45 v=0
94020 On ch=8 n=41 v=96
94079 On ch=8 n=41 v=0
94080 On ch=8 n=45 v=112
94139 On ch=8 n=45 v=0
94140 On ch=8 n=41 v=96
94199 On ch=8 n=41 v=0
94200 On ch=8 n=45 v=96
94259 On ch=8 n=45 v=0
94260 On ch=8 n=41 v=96
94319 On ch=8 n=41 v=0
94320 On ch=8 n=48 v=96
94379 On ch=8 n=48 v=0
94380 On ch=8 n=41 v=96
94439 On ch=8 n=41 v=0
94440 On ch=8 n=51 v=112
94499 On ch=8 n=51 v=0
94500 On ch=8 n=41 v=96
94559 On ch=8 n=41 v=0
94560 On ch=8 n=45 v=96
94619 On ch=8 n=45 v=0
94620 On ch=8 n=41 v=96
94679 On ch=8 n=41 v=0
94680 On ch=8 n=46 v=127
94739 On ch=8 n=46 v=0
94740 On ch=8 n=41 v=127
94799 On ch=8 n=41 v=0
94800 On ch=8 n=46 v=127
94859 On ch=8 n=46 v=0
94860 On ch=8 n=41 v=127
94919 On ch=8 n=41 v=0
94920 On ch=8 n=46 v=127
94979 On ch=8 n=46 v=0
94980 On ch=8 n=41 v=127
95039 On ch=8 n=41 v=0
95040 On ch=8 n=46 v=127
95099 On ch=8 n=46 v=0
95100 On ch=8 n=41 v=127
95159 On ch=8 n=41 v=0
95160 On ch=8 n=46 v=127
95219 On ch=8 n=46 v=0
95220 On ch=8 n=41 v=127
95279 On ch=8 n=41 v=0
95280 On ch=8 n=46 v=127
95339 On ch=8 n=46 v=0
95340 On ch=8 n=41 v=127
95399 On ch=8 n=41 v=0
95400 On ch=8 n=45 v=127
95459 On ch=8 n=45 v=0
95460 On ch=8 n=41 v=127
95519 On ch=8 n=41 v=0
95520 On ch=8 n=45 v=127
95579 On ch=8 n=45 v=0
95580 On ch=8 n=41 v=127
95639 On ch=8 n=41 v=0
95640 On ch=8 n=45 v=127
95699 On ch=8 n=45 v=0
95700 On ch=8 n=41 v=127
95759 On ch=8 n=41 v=0
95760 On ch=8 n=48 v=127
95819 On ch=8 n=48 v=0
95820 On ch=8 n=41 v=127
95879 On ch=8 n=41 v=0
95880 On ch=8 n=51 v=127
95939 On ch=8 n=51 v=0
95940 On ch=8 n=53 v=127
95999 On ch=8 n=53 v=0
96000 On ch=8 n=51 v=127
96059 On ch=8 n=51 v=0
96060 On ch=8 n=53 v=127
96119 On ch=8 n=53 v=0
96120 On ch=8 n=50 v=127
96420 On ch=8 n=49 v=127
96429 On ch=8 n=50 v=0
96479 On ch=8 n=49 v=0
96480 On ch=8 n=50 v=127
96509 On ch=8 n=50 v=0
96540 On ch=8 n=45 v=127
96569 On ch=8 n=45 v=0
96600 On ch=8 n=46 v=127
96629 On ch=8 n=46 v=0
96660 On ch=8 n=48 v=127
96689 On ch=8 n=48 v=0
96720 On ch=8 n=49 v=127
96749 On ch=8 n=49 v=0
96780 On ch=8 n=50 v=127
96809 On ch=8 n=50 v=0
96840 On ch=8 n=51 v=127
96869 On ch=8 n=51 v=0
96900 On ch=8 n=50 v=127
96929 On ch=8 n=50 v=0
96960 On ch=8 n=48 v=127
96989 On ch=8 n=48 v=0
97020 On ch=8 n=52 v=127
97049 On ch=8 n=52 v=0
97080 On ch=8 n=53 v=127
97109 On ch=8 n=53 v=0
97140 On ch=8 n=51 v=127
97169 On ch=8 n=51 v=0
97200 On ch=8 n=50 v=127
97229 On ch=8 n=50 v=0
97260 On ch=8 n=54 v=127
97289 On ch=8 n=54 v=0
97320 On ch=8 n=55 v=127
97349 On ch=8 n=55 v=0
97380 On ch=8 n=53 v=127
97409 On ch=8 n=53 v=0
97440 On ch=8 n=51 v=127
97469 On ch=8 n=51 v=0
97500 On ch=8 n=55 v=127
97529 On ch=8 n=55 v=0
97560 On ch=8 n=57 v=127
97589 On ch=8 n=57 v=0
97620 On ch=8 n=55 v=127
97649 On ch=8 n=55 v=0
97680 On ch=8 n=53 v=127
97709 On ch=8 n=53 v=0
97740 On ch=8 n=57 v=127
97769 On ch=8 n=57 v=0
97800 On ch=8 n=58 v=127
97829 On ch=8 n=58 v=0
97860 On ch=8 n=57 v=127
97889 On ch=8 n=57 v=0
97920 On ch=8 n=55 v=127
97949 On ch=8 n=55 v=0
97980 On ch=8 n=54 v=127
98009 On ch=8 n=54 v=0
98040 On ch=8 n=55 v=127
98069 On ch=8 n=55 v=0
98100 On ch=8 n=53 v=127
98129 On ch=8 n=53 v=0
98160 On ch=8 n=52 v=127
98189 On ch=8 n=52 v=0
98220 On ch=8 n=51 v=127
98249 On ch=8 n=51 v=0
98280 On ch=8 n=50 v=127
98339 On ch=8 n=50 v=0
98400 On ch=8 n=54 v=127
98459 On ch=8 n=54 v=0
98520 On ch=8 n=55 v=127
98579 On ch=8 n=55 v=0
98760 On ch=8 n=50 v=127
98819 On ch=8 n=50 v=0
98880 On ch=8 n=51 v=127
98939 On ch=8 n=51 v=0
99120 On ch=8 n=52 v=127
99179 On ch=8 n=52 v=0
99240 On ch=8 n=53 v=127
99299 On ch=8 n=53 v=0
99480 On ch=8 n=54 v=127
99539 On ch=8 n=54 v=0
99600 On ch=8 n=55 v=127
99659 On ch=8 n=55 v=0
99840 On ch=8 n=50 v=127
99899 On ch=8 n=50 v=0
99960 On ch=8 n=51 v=127
100019 On ch=8 n=51 v=0
100200 On ch=8 n=52 v=127
100259 On ch=8 n=52 v=0
100440 On ch=8 n=52 v=127
100499 On ch=8 n=52 v=0
100680 On ch=8 n=52 v=127
100739 On ch=8 n=52 v=0
100920 On ch=8 n=52 v=127
100979 On ch=8 n=52 v=0
101160 On ch=8 n=52 v=127
101219 On ch=8 n=52 v=0
101400 On ch=8 n=52 v=127
101459 On ch=8 n=52 v=0
101520 On ch=8 n=53 v=48
101640 On ch=8 n=58 v=48
101649 On ch=8 n=53 v=0
101760 On ch=8 n=62 v=48
101769 On ch=8 n=58 v=0
101879 On ch=8 n=62 v=0
101880 On ch=8 n=54 v=96
101909 On ch=8 n=54 v=0
101910 On ch=8 n=54 v=48
102239 On ch=8 n=54 v=0
102240 On ch=8 n=53 v=48
102360 On ch=8 n=58 v=48
102369 On ch=8 n=53 v=0
102480 On ch=8 n=62 v=48
102489 On ch=8 n=58 v=0
102599 On ch=8 n=62 v=0
102600 On ch=8 n=55 v=96
102629 On ch=8 n=55 v=0
102630 On ch=8 n=55 v=48
103079 On ch=8 n=55 v=0
103140 On ch=8 n=43 v=48
103169 On ch=8 n=43 v=0
103200 On ch=8 n=46 v=48
103229 On ch=8 n=46 v=0
103260 On ch=8 n=51 v=48
103289 On ch=8 n=51 v=0
103320 On ch=8 n=44 v=48
103439 On ch=8 n=44 v=0
103500 On ch=8 n=44 v=48
103529 On ch=8 n=44 v=0
103560 On ch=8 n=48 v=48
103589 On ch=8 n=48 v=0
103620 On ch=8 n=51 v=48
103649 On ch=8 n=51 v=0
103680 On ch=8 n=45 v=48
103799 On ch=8 n=45 v=0
103860 On ch=8 n=45 v=48
103889 On ch=8 n=45 v=0
103920 On ch=8 n=48 v=48
103949 On ch=8 n=48 v=0
103980 On ch=8 n=53 v=48
104009 On ch=8 n=53 v=0
104040 On ch=8 n=46 v=48
104159 On ch=8 n=46 v=0
104220 On ch=8 n=58 v=48
104249 On ch=8 n=58 v=0
104280 On ch=8 n=53 v=48
104309 On ch=8 n=53 v=0
104340 On ch=8 n=50 v=48
104369 On ch=8 n=50 v=0
104400 On ch=8 n=51 v=48
104459 On ch=8 n=51 v=0
104460 On ch=8 n=51 v=52
104519 On ch=8 n=51 v=0
104520 On ch=8 n=51 v=57
104579 On ch=8 n=51 v=0
104580 On ch=8 n=51 v=61
104639 On ch=8 n=51 v=0
104640 On ch=8 n=51 v=66
104699 On ch=8 n=51 v=0
104700 On ch=8 n=51 v=70
104759 On ch=8 n=51 v=0
104760 On ch=8 n=48 v=75
104819 On ch=8 n=48 v=0
104820 On ch=8 n=48 v=79
104879 On ch=8 n=48 v=0
104880 On ch=8 n=48 v=83
104939 On ch=8 n=48 v=0
104940 On ch=8 n=48 v=87
105000 On ch=8 n=50 v=91
105009 On ch=8 n=48 v=0
105060 On ch=8 n=51 v=96
105069 On ch=8 n=50 v=0
105120 On ch=8 n=53 v=101
105129 On ch=8 n=51 v=0
105179 On ch=8 n=53 v=0
105180 On ch=8 n=53 v=105
105239 On ch=8 n=53 v=0
105240 On ch=8 n=53 v=109
105299 On ch=8 n=53 v=0
105300 On ch=8 n=53 v=114
105359 On ch=8 n=53 v=0
105360 On ch=8 n=50 v=118
105419 On ch=8 n=50 v=0
105420 On ch=8 n=46 v=123
105479 On ch=8 n=46 v=0
105480 On ch=8 n=41 v=127
105539 On ch=8 n=41 v=0
105540 On ch=8 n=53 v=127
105599 On ch=8 n=53 v=0
105600 On ch=8 n=53 v=127
105659 On ch=8 n=53 v=0
105660 On ch=8 n=53 v=127
105719 On ch=8 n=53 v=0
105720 On ch=8 n=53 v=127
105779 On ch=8 n=53 v=0
105780 On ch=8 n=53 v=127
105839 On ch=8 n=53 v=0
105840 On ch=8 n=58 v=96
105899 On ch=8 n=58 v=0
106200 On ch=8 n=46 v=96
106259 On ch=8 n=46 v=0
106560 On ch=8 n=46 v=96
106619 On ch=8 n=46 v=0
106920 On ch=8 n=46 v=96
106979 On ch=8 n=46 v=0
107040 On ch=8 n=46 v=96
107099 On ch=8 n=46 v=0
107160 On ch=8 n=46 v=96
107219 On ch=8 n=46 v=0
107280 On ch=8 n=46 v=96
107309 On ch=8 n=46 v=0
107310 On ch=8 n=46 v=48
108960 On ch=8 n=47 v=32
108969 On ch=8 n=46 v=0
109080 On ch=8 n=45 v=32
109089 On ch=8 n=47 v=0
109320 On ch=8 n=46 v=32
109329 On ch=8 n=45 v=0
109439 On ch=8 n=46 v=0
109440 On ch=8 n=44 v=32
110159 On ch=8 n=44 v=0
110160 On ch=8 n=43 v=32
110879 On ch=8 n=43 v=0
110880 On ch=8 n=44 v=32
111599 On ch=8 n=44 v=0
111600 On ch=8 n=43 v=32
111719 On ch=8 n=43 v=0
111960 On ch=8 n=55 v=32
112079 On ch=8 n=55 v=0
112320 On ch=8 n=55 v=32
112439 On ch=8 n=55 v=0
112680 On ch=8 n=55 v=32
112799 On ch=8 n=55 v=0
113040 On ch=8 n=55 v=32
113159 On ch=8 n=55 v=0
113400 On ch=8 n=43 v=80
113519 On ch=8 n=43 v=0
113760 On ch=8 n=43 v=48
113879 On ch=8 n=43 v=0
114480 On ch=8 n=47 v=48
114599 On ch=8 n=47 v=0
114840 On ch=8 n=43 v=48
114959 On ch=8 n=43 v=0
115200 On ch=8 n=48 v=48
115319 On ch=8 n=48 v=0
115920 On ch=8 n=52 v=48
116039 On ch=8 n=52 v=0
116280 On ch=8 n=48 v=48
116399 On ch=8 n=48 v=0
116640 On ch=8 n=50 v=48
116759 On ch=8 n=50 v=0
117000 On ch=8 n=43 v=96
117029 On ch=8 n=43 v=0
117030 On ch=8 n=43 v=48
117419 On ch=8 n=43 v=0
117420 On ch=8 n=45 v=48
117449 On ch=8 n=45 v=0
117480 On ch=8 n=47 v=48
117509 On ch=8 n=47 v=0
117540 On ch=8 n=48 v=48
117569 On ch=8 n=48 v=0
117600 On ch=8 n=50 v=48
117629 On ch=8 n=50 v=0
117660 On ch=8 n=52 v=48
117689 On ch=8 n=52 v=0
117720 On ch=8 n=53 v=48
117749 On ch=8 n=53 v=0
117780 On ch=8 n=50 v=48
117809 On ch=8 n=50 v=0
117840 On ch=8 n=47 v=48
117869 On ch=8 n=47 v=0
117900 On ch=8 n=43 v=48
117929 On ch=8 n=43 v=0
117960 On ch=8 n=45 v=48
117989 On ch=8 n=45 v=0
118020 On ch=8 n=47 v=48
118049 On ch=8 n=47 v=0
118080 On ch=8 n=48 v=32
118320 On ch=8 n=51 v=32
118329 On ch=8 n=48 v=0
118440 On ch=8 n=48 v=32
118449 On ch=8 n=51 v=0
118680 On ch=8 n=43 v=32
118689 On ch=8 n=48 v=0
118799 On ch=8 n=43 v=0
118800 On ch=8 n=48 v=32
118919 On ch=8 n=48 v=0
119400 On ch=8 n=44 v=48
119519 On ch=8 n=44 v=0
119520 On ch=8 n=49 v=48
119760 On ch=8 n=52 v=48
119769 On ch=8 n=49 v=0
119880 On ch=8 n=49 v=48
119889 On ch=8 n=52 v=0
120120 On ch=8 n=44 v=48
120129 On ch=8 n=49 v=0
120239 On ch=8 n=44 v=0
120240 On ch=8 n=49 v=48
120359 On ch=8 n=49 v=0
120840 On ch=8 n=45 v=96
120959 On ch=8 n=45 v=0
120960 On ch=8 n=50 v=127
121200 On ch=8 n=53 v=127
121209 On ch=8 n=50 v=0
121320 On ch=8 n=50 v=127
121329 On ch=8 n=53 v=0
121560 On ch=8 n=45 v=127
121569 On ch=8 n=50 v=0
121679 On ch=8 n=45 v=0
121680 On ch=8 n=50 v=127
121920 On ch=8 n=53 v=127
121929 On ch=8 n=50 v=0
122040 On ch=8 n=50 v=127
122049 On ch=8 n=53 v=0
122280 On ch=8 n=45 v=127
122289 On ch=8 n=50 v=0
122399 On ch=8 n=45 v=0
122400 On ch=8 n=52 v=127
122640 On ch=8 n=55 v=127
122649 On ch=8 n=52 v=0
122760 On ch=8 n=52 v=127
122769 On ch=8 n=55 v=0
123000 On ch=8 n=45 v=127
123009 On ch=8 n=52 v=0
123119 On ch=8 n=45 v=0
123120 On ch=8 n=52 v=127
123360 On ch=8 n=55 v=127
123369 On ch=8 n=52 v=0
123479 On ch=8 n=55 v=0
123480 On ch=8 n=52 v=127
123720 On ch=8 n=55 v=127
123729 On ch=8 n=52 v=0
123839 On ch=8 n=55 v=0
123840 On ch=8 n=53 v=48
123869 On ch=8 n=53 v=0
123900 On ch=8 n=60 v=48
123929 On ch=8 n=60 v=0
123960 On ch=8 n=60 v=48
123989 On ch=8 n=60 v=0
124260 On ch=8 n=58 v=48
124289 On ch=8 n=58 v=0
124320 On ch=8 n=58 v=48
124349 On ch=8 n=58 v=0
124560 On ch=8 n=54 v=48
124679 On ch=8 n=54 v=0
124980 On ch=8 n=54 v=94
125039 On ch=8 n=54 v=0
125040 On ch=8 n=54 v=101
125099 On ch=8 n=54 v=0
125100 On ch=8 n=54 v=107
125159 On ch=8 n=54 v=0
125160 On ch=8 n=54 v=114
125219 On ch=8 n=54 v=0
125220 On ch=8 n=54 v=120
125279 On ch=8 n=54 v=0
125280 On ch=8 n=55 v=127
125520 On ch=8 n=58 v=127
125529 On ch=8 n=55 v=0
125640 On ch=8 n=55 v=127
125649 On ch=8 n=58 v=0
125880 On ch=8 n=50 v=127
125889 On ch=8 n=55 v=0
125999 On ch=8 n=50 v=0
126000 On ch=8 n=55 v=127
126240 On ch=8 n=58 v=127
126249 On ch=8 n=55 v=0
126360 On ch=8 n=55 v=127
126369 On ch=8 n=58 v=0
126600 On ch=8 n=50 v=127
126609 On ch=8 n=55 v=0
126719 On ch=8 n=50 v=0
126720 On ch=8 n=57 v=127
126960 On ch=8 n=60 v=127
126969 On ch=8 n=57 v=0
127080 On ch=8 n=57 v=127
127089 On ch=8 n=60 v=0
127320 On ch=8 n=50 v=127
127329 On ch=8 n=57 v=0
127439 On ch=8 n=50 v=0
127440 On ch=8 n=57 v=127
127680 On ch=8 n=60 v=127
127689 On ch=8 n=57 v=0
127799 On ch=8 n=60 v=0
127800 On ch=8 n=57 v=127
128040 On ch=8 n=60 v=127
128049 On ch=8 n=57 v=0
128159 On ch=8 n=60 v=0
128160 On ch=8 n=59 v=48
128189 On ch=8 n=59 v=0
128220 On ch=8 n=65 v=48
128249 On ch=8 n=65 v=0
128280 On ch=8 n=65 v=48
128309 On ch=8 n=65 v=0
128580 On ch=8 n=63 v=48
128609 On ch=8 n=63 v=0
128640 On ch=8 n=63 v=48
128669 On ch=8 n=63 v=0
128880 On ch=8 n=59 v=48
128999 On ch=8 n=59 v=0
129300 On ch=8 n=59 v=94
129359 On ch=8 n=59 v=0
129360 On ch=8 n=59 v=101
129419 On ch=8 n=59 v=0
129420 On ch=8 n=59 v=107
129479 On ch=8 n=59 v=0
129480 On ch=8 n=59 v=114
129539 On ch=8 n=59 v=0
129540 On ch=8 n=59 v=120
129599 On ch=8 n=59 v=0
129600 On ch=8 n=58 v=48
129629 On ch=8 n=58 v=0
129660 On ch=8 n=58 v=48
129689 On ch=8 n=58 v=0
129720 On ch=8 n=58 v=48
129749 On ch=8 n=58 v=0
130020 On ch=8 n=56 v=48
130049 On ch=8 n=56 v=0
130080 On ch=8 n=56 v=48
130109 On ch=8 n=56 v=0
130380 On ch=8 n=52 v=48
130409 On ch=8 n=52 v=0
130440 On ch=8 n=52 v=52
130469 On ch=8 n=52 v=0
130740 On ch=8 n=52 v=78
130769 On ch=8 n=52 v=0
130800 On ch=8 n=52 v=82
130829 On ch=8 n=52 v=0
130860 On ch=8 n=52 v=86
130889 On ch=8 n=52 v=0
130920 On ch=8 n=52 v=90
130949 On ch=8 n=52 v=0
130980 On ch=8 n=52 v=94
131009 On ch=8 n=52 v=0
131040 On ch=8 n=51 v=96
131069 On ch=8 n=51 v=0
131100 On ch=8 n=63 v=96
131129 On ch=8 n=63 v=0
131160 On ch=8 n=63 v=96
131189 On ch=8 n=63 v=0
131460 On ch=8 n=61 v=96
131489 On ch=8 n=61 v=0
131520 On ch=8 n=61 v=96
131549 On ch=8 n=61 v=0
131820 On ch=8 n=61 v=96
131849 On ch=8 n=61 v=0
131880 On ch=8 n=61 v=96
131909 On ch=8 n=61 v=0
132180 On ch=8 n=48 v=96
132209 On ch=8 n=48 v=0
132240 On ch=8 n=48 v=96
132269 On ch=8 n=48 v=0
132480 On ch=8 n=41 v=127
132539 On ch=8 n=41 v=0
132540 On ch=8 n=53 v=127
132599 On ch=8 n=53 v=0
132600 On ch=8 n=53 v=127
132659 On ch=8 n=53 v=0
132660 On ch=8 n=53 v=127
132719 On ch=8 n=53 v=0
132720 On ch=8 n=53 v=127
132779 On ch=8 n=53 v=0
132780 On ch=8 n=53 v=127
132839 On ch=8 n=53 v=0
132840 On ch=8 n=52 v=127
132899 On ch=8 n=52 v=0
132900 On ch=8 n=52 v=127
132959 On ch=8 n=52 v=0
132960 On ch=8 n=52 v=127
133019 On ch=8 n=52 v=0
133020 On ch=8 n=52 v=127
133079 On ch=8 n=52 v=0
133080 On ch=8 n=52 v=127
133139 On ch=8 n=52 v=0
133140 On ch=8 n=52 v=127
133199 On ch=8 n=52 v=0
133200 On ch=8 n=51 v=127
133319 On ch=8 n=51 v=0
133920 On ch=8 n=55 v=48
134039 On ch=8 n=55 v=0
134280 On ch=8 n=51 v=48
134399 On ch=8 n=51 v=0
134640 On ch=8 n=56 v=48
134759 On ch=8 n=56 v=0
135360 On ch=8 n=60 v=48
135479 On ch=8 n=60 v=0
135720 On ch=8 n=56 v=48
135839 On ch=8 n=56 v=0
136080 On ch=8 n=55 v=48
136199 On ch=8 n=55 v=0
136800 On ch=8 n=51 v=96
136829 On ch=8 n=51 v=0
136830 On ch=8 n=51 v=48
137219 On ch=8 n=51 v=0
137220 On ch=8 n=53 v=48
137249 On ch=8 n=53 v=0
137280 On ch=8 n=51 v=48
137309 On ch=8 n=51 v=0
137340 On ch=8 n=49 v=48
137369 On ch=8 n=49 v=0
137400 On ch=8 n=48 v=48
137429 On ch=8 n=48 v=0
137460 On ch=8 n=46 v=48
137489 On ch=8 n=46 v=0
137520 On ch=8 n=44 v=48
137639 On ch=8 n=44 v=0
137640 On ch=8 n=61 v=48
137820 On ch=8 n=60 v=48
137829 On ch=8 n=61 v=0
137879 On ch=8 n=60 v=0
137880 On ch=8 n=59 v=48
137939 On ch=8 n=59 v=0
138000 On ch=8 n=60 v=48
138180 On ch=8 n=53 v=48
138189 On ch=8 n=60 v=0
138239 On ch=8 n=53 v=0
138240 On ch=8 n=52 v=48
138299 On ch=8 n=52 v=0
138360 On ch=8 n=58 v=48
138540 On ch=8 n=55 v=48
138549 On ch=8 n=58 v=0
138599 On ch=8 n=55 v=0
138600 On ch=8 n=52 v=48
138659 On ch=8 n=52 v=0
138720 On ch=8 n=55 v=48
138900 On ch=8 n=48 v=48
138909 On ch=8 n=55 v=0
138959 On ch=8 n=48 v=0
138960 On ch=8 n=53 v=48
139019 On ch=8 n=53 v=0
139020 On ch=8 n=53 v=48
139050 On ch=8 n=55 v=48
139059 On ch=8 n=53 v=0
139079 On ch=8 n=55 v=0
139080 On ch=8 n=56 v=48
139109 On ch=8 n=56 v=0
139140 On ch=8 n=53 v=48
139169 On ch=8 n=53 v=0
139200 On ch=8 n=49 v=48
139229 On ch=8 n=49 v=0
139260 On ch=8 n=48 v=48
139289 On ch=8 n=48 v=0
139320 On ch=8 n=47 v=48
139349 On ch=8 n=47 v=0
139380 On ch=8 n=43 v=48
139400 On ch=8 n=45 v=48
139409 On ch=8 n=43 v=0
139420 On ch=8 n=47 v=48
139429 On ch=8 n=45 v=0
139439 On ch=8 n=47 v=0
139440 On ch=8 n=48 v=48
139469 On ch=8 n=48 v=0
139500 On ch=8 n=50 v=48
139529 On ch=8 n=50 v=0
139560 On ch=8 n=48 v=48
139589 On ch=8 n=48 v=0
139620 On ch=8 n=46 v=48
139649 On ch=8 n=46 v=0
139680 On ch=8 n=45 v=48
139709 On ch=8 n=45 v=0
139740 On ch=8 n=55 v=48
139770 On ch=8 n=57 v=48
139779 On ch=8 n=55 v=0
139799 On ch=8 n=57 v=0
139800 On ch=8 n=59 v=48
139829 On ch=8 n=59 v=0
139860 On ch=8 n=55 v=48
139889 On ch=8 n=55 v=0
139920 On ch=8 n=57 v=48
139949 On ch=8 n=57 v=0
139980 On ch=8 n=59 v=48
140009 On ch=8 n=59 v=0
140040 On ch=8 n=60 v=48
140069 On ch=8 n=60 v=0
140100 On ch=8 n=60 v=48
140130 On ch=8 n=59 v=48
140139 On ch=8 n=60 v=0
140159 On ch=8 n=59 v=0
140160 On ch=8 n=60 v=48
140189 On ch=8 n=60 v=0
140220 On ch=8 n=62 v=48
140249 On ch=8 n=62 v=0
140280 On ch=8 n=63 v=48
140309 On ch=8 n=63 v=0
140340 On ch=8 n=66 v=48
140369 On ch=8 n=66 v=0
140400 On ch=8 n=67 v=48
140519 On ch=8 n=67 v=0
141060 On ch=8 n=48 v=48
141119 On ch=8 n=48 v=0
141120 On ch=8 n=46 v=48
141239 On ch=8 n=46 v=0
141240 On ch=8 n=55 v=96
141419 On ch=8 n=55 v=0
141420 On ch=8 n=46 v=48
141479 On ch=8 n=46 v=0
141480 On ch=8 n=45 v=50
141509 On ch=8 n=45 v=0
141540 On ch=8 n=54 v=53
141569 On ch=8 n=54 v=0
141600 On ch=8 n=43 v=55
141629 On ch=8 n=43 v=0
141660 On ch=8 n=55 v=58
141689 On ch=8 n=55 v=0
141720 On ch=8 n=51 v=60
141749 On ch=8 n=51 v=0
141780 On ch=8 n=50 v=63
141809 On ch=8 n=50 v=0
141840 On ch=8 n=49 v=65
141959 On ch=8 n=49 v=0
141960 On ch=8 n=61 v=112
142139 On ch=8 n=61 v=0
142140 On ch=8 n=61 v=78
142199 On ch=8 n=61 v=0
142200 On ch=8 n=62 v=80
142319 On ch=8 n=62 v=0
142380 On ch=8 n=50 v=88
142410 On ch=8 n=49 v=89
142419 On ch=8 n=50 v=0
142439 On ch=8 n=49 v=0
142440 On ch=8 n=50 v=90
142469 On ch=8 n=50 v=0
142500 On ch=8 n=48 v=93
142529 On ch=8 n=48 v=0
142560 On ch=8 n=47 v=95
142679 On ch=8 n=47 v=0
142740 On ch=8 n=49 v=103
142770 On ch=8 n=46 v=104
142779 On ch=8 n=49 v=0
142799 On ch=8 n=46 v=0
142800 On ch=8 n=49 v=105
142829 On ch=8 n=49 v=0
142860 On ch=8 n=45 v=108
142889 On ch=8 n=45 v=0
142920 On ch=8 n=50 v=110
142949 On ch=8 n=50 v=0
142980 On ch=8 n=50 v=113
143010 On ch=8 n=49 v=114
143019 On ch=8 n=50 v=0
143039 On ch=8 n=49 v=0
143040 On ch=8 n=50 v=115
143069 On ch=8 n=50 v=0
143100 On ch=8 n=48 v=118
143129 On ch=8 n=48 v=0
143160 On ch=8 n=46 v=120
143189 On ch=8 n=46 v=0
143220 On ch=8 n=45 v=123
143249 On ch=8 n=45 v=0
143280 On ch=8 n=44 v=125
143399 On ch=8 n=44 v=0
143400 On ch=8 n=50 v=127
144119 On ch=8 n=50 v=0
144120 On ch=8 n=50 v=127
144359 On ch=8 n=50 v=0
144360 On ch=8 n=50 v=127
144599 On ch=8 n=50 v=0
144600 On ch=8 n=50 v=127
144839 On ch=8 n=50 v=0
144840 On ch=8 n=50 v=127
145079 On ch=8 n=50 v=0
145080 On ch=8 n=50 v=127
145319 On ch=8 n=50 v=0
145320 On ch=8 n=50 v=127
145439 On ch=8 n=50 v=0
145440 On ch=8 n=36 v=127
145440 On ch=8 n=48 v=127
145499 On ch=8 n=48 v=0
145499 On ch=8 n=36 v=0
145560 On ch=8 n=48 v=127
146279 On ch=8 n=48 v=0
146280 On ch=8 n=48 v=127
146519 On ch=8 n=48 v=0
146520 On ch=8 n=48 v=127
146759 On ch=8 n=48 v=0
146760 On ch=8 n=48 v=127
146999 On ch=8 n=48 v=0
147000 On ch=8 n=48 v=127
147239 On ch=8 n=48 v=0
147240 On ch=8 n=48 v=127
147479 On ch=8 n=48 v=0
147480 On ch=8 n=48 v=127
147599 On ch=8 n=48 v=0
147600 On ch=8 n=47 v=127
147659 On ch=8 n=47 v=0
147720 On ch=8 n=59 v=127
148439 On ch=8 n=59 v=0
148440 On ch=8 n=47 v=127
148679 On ch=8 n=47 v=0
148680 On ch=8 n=47 v=127
148919 On ch=8 n=47 v=0
148920 On ch=8 n=47 v=127
149159 On ch=8 n=47 v=0
149160 On ch=8 n=47 v=127
149399 On ch=8 n=47 v=0
149400 On ch=8 n=47 v=127
149639 On ch=8 n=47 v=0
149640 On ch=8 n=47 v=127
149759 On ch=8 n=47 v=0
149760 On ch=8 n=46 v=127
149819 On ch=8 n=46 v=0
149880 On ch=8 n=58 v=127
150599 On ch=8 n=58 v=0
150600 On ch=8 n=58 v=127
150839 On ch=8 n=58 v=0
150840 On ch=8 n=58 v=127
151079 On ch=8 n=58 v=0
151080 On ch=8 n=58 v=127
151319 On ch=8 n=58 v=0
151320 On ch=8 n=58 v=127
151559 On ch=8 n=58 v=0
151560 On ch=8 n=58 v=127
151799 On ch=8 n=58 v=0
151800 On ch=8 n=58 v=127
151919 On ch=8 n=58 v=0
151920 On ch=8 n=45 v=127
151979 On ch=8 n=45 v=0
152040 On ch=8 n=57 v=127
152279 On ch=8 n=57 v=0
152280 On ch=8 n=57 v=127
152519 On ch=8 n=57 v=0
152520 On ch=8 n=57 v=127
152639 On ch=8 n=57 v=0
152640 On ch=8 n=43 v=127
152699 On ch=8 n=43 v=0
152760 On ch=8 n=55 v=127
152999 On ch=8 n=55 v=0
153000 On ch=8 n=55 v=127
153239 On ch=8 n=55 v=0
153240 On ch=8 n=55 v=127
153359 On ch=8 n=55 v=0
153360 On ch=8 n=45 v=127
153419 On ch=8 n=45 v=0
153480 On ch=8 n=57 v=96
153719 On ch=8 n=57 v=0
153840 On ch=8 n=57 v=96
154079 On ch=8 n=57 v=0
154200 On ch=8 n=57 v=96
154439 On ch=8 n=57 v=0
154440 On ch=8 n=57 v=96
154679 On ch=8 n=57 v=0
154680 On ch=8 n=57 v=96
154739 On ch=8 n=57 v=0
154920 On ch=8 n=47 v=96
154979 On ch=8 n=47 v=0
155040 On ch=8 n=47 v=96
155099 On ch=8 n=47 v=0
155160 On ch=8 n=47 v=96
155219 On ch=8 n=47 v=0
155280 On ch=8 n=47 v=88
155339 On ch=8 n=47 v=0
155400 On ch=8 n=47 v=80
155459 On ch=8 n=47 v=0
155520 On ch=8 n=47 v=72
155579 On ch=8 n=47 v=0
155640 On ch=8 n=47 v=64
155699 On ch=8 n=47 v=0
155760 On ch=8 n=47 v=56
155819 On ch=8 n=47 v=0
155880 On ch=8 n=47 v=48
155939 On ch=8 n=47 v=0
156000 On ch=8 n=47 v=48
156059 On ch=8 n=47 v=0
156120 On ch=8 n=47 v=48
156179 On ch=8 n=47 v=0
156240 On ch=8 n=52 v=48
156359 On ch=8 n=52 v=0
156360 On ch=8 n=64 v=56
156480 On ch=8 n=66 v=56
156489 On ch=8 n=64 v=0
156600 On ch=8 n=67 v=96
156609 On ch=8 n=66 v=0
156629 On ch=8 n=67 v=0
156630 On ch=8 n=67 v=48
156780 On ch=8 n=66 v=48
156789 On ch=8 n=67 v=0
156840 On ch=8 n=64 v=48
156849 On ch=8 n=66 v=0
156959 On ch=8 n=64 v=0
156960 On ch=8 n=63 v=48
157080 On ch=8 n=62 v=48
157089 On ch=8 n=63 v=0
157200 On ch=8 n=61 v=48
157209 On ch=8 n=62 v=0
157320 On ch=8 n=59 v=96
157329 On ch=8 n=61 v=0
157349 On ch=8 n=59 v=0
157350 On ch=8 n=59 v=48
157560 On ch=8 n=61 v=48
157569 On ch=8 n=59 v=0
157620 On ch=8 n=63 v=48
157629 On ch=8 n=61 v=0
157679 On ch=8 n=63 v=0
157680 On ch=8 n=64 v=48
157799 On ch=8 n=64 v=0
157800 On ch=8 n=64 v=48
157920 On ch=8 n=66 v=48
157929 On ch=8 n=64 v=0
158040 On ch=8 n=67 v=96
158049 On ch=8 n=66 v=0
158069 On ch=8 n=67 v=0
158070 On ch=8 n=67 v=48
158220 On ch=8 n=66 v=48
158229 On ch=8 n=67 v=0
158280 On ch=8 n=64 v=48
158289 On ch=8 n=66 v=0
158399 On ch=8 n=64 v=0
158400 On ch=8 n=63 v=48
158520 On ch=8 n=62 v=48
158529 On ch=8 n=63 v=0
158640 On ch=8 n=61 v=48
158649 On ch=8 n=62 v=0
158759 On ch=8 n=61 v=0
158760 On ch=8 n=59 v=48
159000 On ch=8 n=64 v=56
159009 On ch=8 n=59 v=0
159120 On ch=8 n=57 v=48
159129 On ch=8 n=64 v=0
159239 On ch=8 n=57 v=0
161700 On ch=8 n=52 v=56
161760 On ch=8 n=55 v=64
161769 On ch=8 n=52 v=0
161820 On ch=8 n=53 v=72
161829 On ch=8 n=55 v=0
161880 On ch=8 n=52 v=80
161889 On ch=8 n=53 v=0
161940 On ch=8 n=50 v=88
161949 On ch=8 n=52 v=0
161999 On ch=8 n=50 v=0
162000 On ch=8 n=48 v=96
162240 On ch=8 n=52 v=96
162249 On ch=8 n=48 v=0
162360 On ch=8 n=48 v=96
162369 On ch=8 n=52 v=0
162600 On ch=8 n=43 v=96
162609 On ch=8 n=48 v=0
162719 On ch=8 n=43 v=0
162720 On ch=8 n=48 v=96
162779 On ch=8 n=48 v=0
162840 On ch=8 n=52 v=96
162899 On ch=8 n=52 v=0
162960 On ch=8 n=55 v=96
163019 On ch=8 n=55 v=0
163080 On ch=8 n=48 v=96
163320 On ch=8 n=43 v=96
163329 On ch=8 n=48 v=0
163439 On ch=8 n=43 v=0
163440 On ch=8 n=48 v=96
163499 On ch=8 n=48 v=0
163560 On ch=8 n=52 v=96
163619 On ch=8 n=52 v=0
163680 On ch=8 n=55 v=96
163739 On ch=8 n=55 v=0
163800 On ch=8 n=60 v=96
163859 On ch=8 n=60 v=0
163920 On ch=8 n=64 v=96
163979 On ch=8 n=64 v=0
164040 On ch=8 n=67 v=112
164219 On ch=8 n=67 v=0
164220 On ch=8 n=65 v=96
164249 On ch=8 n=65 v=0
164280 On ch=8 n=62 v=96
164309 On ch=8 n=62 v=0
164340 On ch=8 n=59 v=96
164369 On ch=8 n=59 v=0
164400 On ch=8 n=55 v=96
164429 On ch=8 n=55 v=0
164460 On ch=8 n=53 v=96
164489 On ch=8 n=53 v=0
164520 On ch=8 n=50 v=96
164549 On ch=8 n=50 v=0
164580 On ch=8 n=53 v=96
164609 On ch=8 n=53 v=0
164640 On ch=8 n=50 v=96
164669 On ch=8 n=50 v=0
164700 On ch=8 n=47 v=96
164729 On ch=8 n=47 v=0
164760 On ch=8 n=43 v=96
164789 On ch=8 n=43 v=0
164820 On ch=8 n=47 v=96
164849 On ch=8 n=47 v=0
164880 On ch=8 n=48 v=96
164939 On ch=8 n=48 v=0
165000 On ch=8 n=51 v=96
165059 On ch=8 n=51 v=0
165120 On ch=8 n=55 v=96
165179 On ch=8 n=55 v=0
165240 On ch=8 n=60 v=96
165299 On ch=8 n=60 v=0
165360 On ch=8 n=63 v=96
165419 On ch=8 n=63 v=0
165480 On ch=8 n=67 v=112
165659 On ch=8 n=67 v=0
165660 On ch=8 n=65 v=96
165689 On ch=8 n=65 v=0
165720 On ch=8 n=62 v=96
165749 On ch=8 n=62 v=0
165780 On ch=8 n=59 v=96
165809 On ch=8 n=59 v=0
165840 On ch=8 n=55 v=96
165869 On ch=8 n=55 v=0
165900 On ch=8 n=53 v=96
165929 On ch=8 n=53 v=0
165960 On ch=8 n=50 v=96
165989 On ch=8 n=50 v=0
166020 On ch=8 n=53 v=96
166049 On ch=8 n=53 v=0
166080 On ch=8 n=50 v=96
166109 On ch=8 n=50 v=0
166140 On ch=8 n=47 v=96
166169 On ch=8 n=47 v=0
166200 On ch=8 n=43 v=96
166229 On ch=8 n=43 v=0
166260 On ch=8 n=47 v=96
166289 On ch=8 n=47 v=0
166320 On ch=8 n=48 v=96
166440 On ch=8 n=51 v=96
166449 On ch=8 n=48 v=0
166560 On ch=8 n=55 v=96
166569 On ch=8 n=51 v=0
166679 On ch=8 n=55 v=0
166680 On ch=8 n=56 v=112
166920 On ch=8 n=48 v=112
166929 On ch=8 n=56 v=0
167039 On ch=8 n=48 v=0
167040 On ch=8 n=49 v=96
167160 On ch=8 n=53 v=96
167169 On ch=8 n=49 v=0
167280 On ch=8 n=57 v=96
167289 On ch=8 n=53 v=0
167399 On ch=8 n=57 v=0
167400 On ch=8 n=58 v=112
167640 On ch=8 n=50 v=96
167649 On ch=8 n=58 v=0
167759 On ch=8 n=50 v=0
167760 On ch=8 n=51 v=96
167819 On ch=8 n=51 v=0
167880 On ch=8 n=43 v=96
167939 On ch=8 n=43 v=0
168000 On ch=8 n=46 v=96
168059 On ch=8 n=46 v=0
168120 On ch=8 n=51 v=96
168179 On ch=8 n=51 v=0
168240 On ch=8 n=55 v=96
168299 On ch=8 n=55 v=0
168360 On ch=8 n=58 v=112
168539 On ch=8 n=58 v=0
168540 On ch=8 n=56 v=96
168569 On ch=8 n=56 v=0
168600 On ch=8 n=53 v=96
168629 On ch=8 n=53 v=0
168660 On ch=8 n=50 v=96
168689 On ch=8 n=50 v=0
168720 On ch=8 n=46 v=96
168749 On ch=8 n=46 v=0
168780 On ch=8 n=44 v=96
168809 On ch=8 n=44 v=0
168840 On ch=8 n=41 v=96
168869 On ch=8 n=41 v=0
168900 On ch=8 n=56 v=96
168929 On ch=8 n=56 v=0
168960 On ch=8 n=53 v=96
168989 On ch=8 n=53 v=0
169020 On ch=8 n=50 v=96
169049 On ch=8 n=50 v=0
169080 On ch=8 n=46 v=96
169109 On ch=8 n=46 v=0
169140 On ch=8 n=50 v=96
169169 On ch=8 n=50 v=0
169200 On ch=8 n=51 v=127
169259 On ch=8 n=51 v=0
169320 On ch=8 n=42 v=127
169379 On ch=8 n=42 v=0
169440 On ch=8 n=46 v=127
169499 On ch=8 n=46 v=0
169560 On ch=8 n=51 v=127
169619 On ch=8 n=51 v=0
169680 On ch=8 n=54 v=127
169739 On ch=8 n=54 v=0
169800 On ch=8 n=58 v=127
169859 On ch=8 n=58 v=0
169920 On ch=8 n=63 v=127
170039 On ch=8 n=63 v=0
170040 On ch=8 n=63 v=48
170160 On ch=8 n=65 v=48
170169 On ch=8 n=63 v=0
170280 On ch=8 n=66 v=48
170289 On ch=8 n=65 v=0
170460 On ch=8 n=65 v=48
170469 On ch=8 n=66 v=0
170520 On ch=8 n=63 v=48
170529 On ch=8 n=65 v=0
170639 On ch=8 n=63 v=0
170640 On ch=8 n=62 v=48
170760 On ch=8 n=61 v=48
170769 On ch=8 n=62 v=0
170880 On ch=8 n=60 v=48
170889 On ch=8 n=61 v=0
170999 On ch=8 n=60 v=0
171000 On ch=8 n=58 v=56
171240 On ch=8 n=60 v=48
171249 On ch=8 n=58 v=0
171300 On ch=8 n=62 v=48
171309 On ch=8 n=60 v=0
171360 On ch=8 n=63 v=48
171369 On ch=8 n=62 v=0
171479 On ch=8 n=63 v=0
171840 On ch=8 n=51 v=40
171959 On ch=8 n=51 v=0
171960 On ch=8 n=51 v=32
172079 On ch=8 n=51 v=0
172080 On ch=8 n=53 v=40
172440 On ch=8 n=49 v=48
172449 On ch=8 n=53 v=0
172799 On ch=8 n=49 v=0
172800 On ch=8 n=54 v=48
173519 On ch=8 n=54 v=0
173520 On ch=8 n=56 v=48
173880 On ch=8 n=49 v=48
173889 On ch=8 n=56 v=0
174239 On ch=8 n=49 v=0
174240 On ch=8 n=54 v=48
174359 On ch=8 n=54 v=0
174360 On ch=8 n=54 v=48
174480 On ch=8 n=56 v=48
174489 On ch=8 n=54 v=0
174600 On ch=8 n=58 v=56
174609 On ch=8 n=56 v=0
174780 On ch=8 n=56 v=48
174789 On ch=8 n=58 v=0
174840 On ch=8 n=54 v=48
174849 On ch=8 n=56 v=0
174959 On ch=8 n=54 v=0
174960 On ch=8 n=53 v=48
175320 On ch=8 n=51 v=48
175329 On ch=8 n=53 v=0
175679 On ch=8 n=51 v=0
175680 On ch=8 n=46 v=48
175739 On ch=8 n=46 v=0
175800 On ch=8 n=50 v=48
175859 On ch=8 n=50 v=0
175920 On ch=8 n=46 v=48
175979 On ch=8 n=46 v=0
176040 On ch=8 n=53 v=48
176099 On ch=8 n=53 v=0
176160 On ch=8 n=46 v=48
176219 On ch=8 n=46 v=0
176280 On ch=8 n=58 v=48
176339 On ch=8 n=58 v=0
176400 On ch=8 n=46 v=48
176459 On ch=8 n=46 v=0
176520 On ch=8 n=62 v=48
176579 On ch=8 n=62 v=0
176640 On ch=8 n=46 v=48
176699 On ch=8 n=46 v=0
176760 On ch=8 n=65 v=96
176789 On ch=8 n=65 v=0
176790 On ch=8 n=65 v=48
177119 On ch=8 n=65 v=0
177120 On ch=8 n=46 v=48
177179 On ch=8 n=46 v=0
177240 On ch=8 n=51 v=48
177299 On ch=8 n=51 v=0
177360 On ch=8 n=46 v=48
177419 On ch=8 n=46 v=0
177480 On ch=8 n=54 v=48
177539 On ch=8 n=54 v=0
177600 On ch=8 n=46 v=48
177659 On ch=8 n=46 v=0
177720 On ch=8 n=58 v=48
177779 On ch=8 n=58 v=0
177840 On ch=8 n=46 v=48
177899 On ch=8 n=46 v=0
177960 On ch=8 n=63 v=48
178019 On ch=8 n=63 v=0
178080 On ch=8 n=46 v=48
178139 On ch=8 n=46 v=0
178200 On ch=8 n=66 v=96
178229 On ch=8 n=66 v=0
178230 On ch=8 n=66 v=48
178559 On ch=8 n=66 v=0
178560 On ch=8 n=36 v=48
178619 On ch=8 n=36 v=0
178680 On ch=8 n=39 v=48
178739 On ch=8 n=39 v=0
178800 On ch=8 n=36 v=48
178859 On ch=8 n=36 v=0
178920 On ch=8 n=44 v=48
178979 On ch=8 n=44 v=0
179040 On ch=8 n=36 v=48
179099 On ch=8 n=36 v=0
179160 On ch=8 n=48 v=48
179219 On ch=8 n=48 v=0
179280 On ch=8 n=36 v=48
179339 On ch=8 n=36 v=0
179400 On ch=8 n=51 v=48
179459 On ch=8 n=51 v=0
179520 On ch=8 n=36 v=48
179579 On ch=8 n=36 v=0
179640 On ch=8 n=56 v=96
179669 On ch=8 n=56 v=0
179670 On ch=8 n=56 v=48
179999 On ch=8 n=56 v=0
180000 On ch=8 n=37 v=48
180059 On ch=8 n=37 v=0
180120 On ch=8 n=41 v=48
180179 On ch=8 n=41 v=0
180240 On ch=8 n=37 v=48
180299 On ch=8 n=37 v=0
180360 On ch=8 n=44 v=48
180419 On ch=8 n=44 v=0
180480 On ch=8 n=37 v=48
180539 On ch=8 n=37 v=0
180600 On ch=8 n=49 v=48
180659 On ch=8 n=49 v=0
180720 On ch=8 n=37 v=48
180779 On ch=8 n=37 v=0
180840 On ch=8 n=53 v=48
180899 On ch=8 n=53 v=0
180960 On ch=8 n=37 v=48
181019 On ch=8 n=37 v=0
181080 On ch=8 n=56 v=96
181109 On ch=8 n=56 v=0
181110 On ch=8 n=56 v=48
181439 On ch=8 n=56 v=0
181440 On ch=8 n=38 v=48
181499 On ch=8 n=38 v=0
181560 On ch=8 n=41 v=49
181619 On ch=8 n=41 v=0
181680 On ch=8 n=38 v=50
181739 On ch=8 n=38 v=0
181800 On ch=8 n=46 v=51
181859 On ch=8 n=46 v=0
181920 On ch=8 n=38 v=52
181979 On ch=8 n=38 v=0
182040 On ch=8 n=50 v=53
182099 On ch=8 n=50 v=0
182160 On ch=8 n=38 v=54
182219 On ch=8 n=38 v=0
182280 On ch=8 n=53 v=55
182339 On ch=8 n=53 v=0
182400 On ch=8 n=38 v=56
182459 On ch=8 n=38 v=0
182520 On ch=8 n=58 v=96
182879 On ch=8 n=58 v=0
182880 On ch=8 n=39 v=60
182939 On ch=8 n=39 v=0
183000 On ch=8 n=42 v=64
183059 On ch=8 n=42 v=0
183120 On ch=8 n=39 v=68
183179 On ch=8 n=39 v=0
183240 On ch=8 n=46 v=72
183299 On ch=8 n=46 v=0
183360 On ch=8 n=39 v=76
183419 On ch=8 n=39 v=0
183480 On ch=8 n=51 v=80
183539 On ch=8 n=51 v=0
183600 On ch=8 n=39 v=84
183659 On ch=8 n=39 v=0
183720 On ch=8 n=54 v=88
183779 On ch=8 n=54 v=0
183840 On ch=8 n=39 v=92
183899 On ch=8 n=39 v=0
183960 On ch=8 n=58 v=96
184319 On ch=8 n=58 v=0
184320 On ch=8 n=47 v=127
184379 On ch=8 n=47 v=0
184440 On ch=8 n=51 v=127
184499 On ch=8 n=51 v=0
184560 On ch=8 n=47 v=127
184619 On ch=8 n=47 v=0
184680 On ch=8 n=54 v=127
184739 On ch=8 n=54 v=0
184800 On ch=8 n=47 v=127
184859 On ch=8 n=47 v=0
184920 On ch=8 n=59 v=127
184979 On ch=8 n=59 v=0
185040 On ch=8 n=47 v=127
185099 On ch=8 n=47 v=0
185160 On ch=8 n=63 v=127
185219 On ch=8 n=63 v=0
185280 On ch=8 n=47 v=127
185339 On ch=8 n=47 v=0
185400 On ch=8 n=66 v=127
185429 On ch=8 n=66 v=0
185460 On ch=8 n=63 v=127
185489 On ch=8 n=63 v=0
185520 On ch=8 n=59 v=127
185549 On ch=8 n=59 v=0
185580 On ch=8 n=54 v=127
185609 On ch=8 n=54 v=0
185640 On ch=8 n=51 v=127
185669 On ch=8 n=51 v=0
185700 On ch=8 n=54 v=127
185729 On ch=8 n=54 v=0
185760 On ch=8 n=47 v=127
185879 On ch=8 n=47 v=0
186840 On ch=8 n=47 v=96
186960 On ch=8 n=51 v=96
186969 On ch=8 n=47 v=0
187080 On ch=8 n=54 v=96
187089 On ch=8 n=51 v=0
187199 On ch=8 n=54 v=0
188280 On ch=8 n=48 v=48
188400 On ch=8 n=51 v=48
188409 On ch=8 n=48 v=0
188520 On ch=8 n=57 v=48
188529 On ch=8 n=51 v=0
188639 On ch=8 n=57 v=0
188820 On ch=8 n=50 v=46
188880 On ch=8 n=53 v=45
188889 On ch=8 n=50 v=0
188940 On ch=8 n=58 v=45
188949 On ch=8 n=53 v=0
188999 On ch=8 n=58 v=0
189180 On ch=8 n=50 v=42
189240 On ch=8 n=53 v=41
189249 On ch=8 n=50 v=0
189300 On ch=8 n=58 v=41
189309 On ch=8 n=53 v=0
189359 On ch=8 n=58 v=0
189540 On ch=8 n=51 v=38
189600 On ch=8 n=54 v=37
189609 On ch=8 n=51 v=0
189660 On ch=8 n=58 v=37
189669 On ch=8 n=54 v=0
189719 On ch=8 n=58 v=0
189900 On ch=8 n=51 v=34
189960 On ch=8 n=54 v=33
189969 On ch=8 n=51 v=0
190020 On ch=8 n=58 v=33
190029 On ch=8 n=54 v=0
190079 On ch=8 n=58 v=0
196560 On ch=8 n=46 v=96
196619 On ch=8 n=46 v=0
196620 On ch=8 n=58 v=96
196679 On ch=8 n=58 v=0
196680 On ch=8 n=58 v=96
196739 On ch=8 n=58 v=0
196740 On ch=8 n=58 v=96
196799 On ch=8 n=58 v=0
196800 On ch=8 n=58 v=96
196859 On ch=8 n=58 v=0
196860 On ch=8 n=58 v=96
196919 On ch=8 n=58 v=0
196920 On ch=8 n=58 v=127
196979 On ch=8 n=58 v=0
196980 On ch=8 n=58 v=127
197039 On ch=8 n=58 v=0
197040 On ch=8 n=58 v=127
197099 On ch=8 n=58 v=0
197100 On ch=8 n=58 v=127
197159 On ch=8 n=58 v=0
197160 On ch=8 n=58 v=127
197219 On ch=8 n=58 v=0
197220 On ch=8 n=58 v=127
197279 On ch=8 n=58 v=0
197280 On ch=8 n=51 v=127
197309 On ch=8 n=51 v=0
197310 On ch=8 n=51 v=56
197520 On ch=8 n=55 v=56
197529 On ch=8 n=51 v=0
197640 On ch=8 n=51 v=56
197649 On ch=8 n=55 v=0
197880 On ch=8 n=46 v=56
197889 On ch=8 n=51 v=0
197999 On ch=8 n=46 v=0
198000 On ch=8 n=51 v=56
198120 On ch=8 n=55 v=56
198129 On ch=8 n=51 v=0
198240 On ch=8 n=58 v=56
198249 On ch=8 n=55 v=0
198360 On ch=8 n=51 v=56
198369 On ch=8 n=58 v=0
198600 On ch=8 n=50 v=56
198609 On ch=8 n=51 v=0
198719 On ch=8 n=50 v=0
198720 On ch=8 n=49 v=64
199439 On ch=8 n=49 v=0
199440 On ch=8 n=48 v=96
200159 On ch=8 n=48 v=0
200160 On ch=8 n=48 v=56
200639 On ch=8 n=48 v=0
200640 On ch=8 n=48 v=56
200759 On ch=8 n=48 v=0
200760 On ch=8 n=48 v=56
200879 On ch=8 n=48 v=0
200880 On ch=8 n=53 v=48
200999 On ch=8 n=53 v=0
206100 On ch=8 n=49 v=56
206159 On ch=8 n=49 v=0
206160 On ch=8 n=49 v=58
206219 On ch=8 n=49 v=0
206220 On ch=8 n=49 v=60
206279 On ch=8 n=49 v=0
206280 On ch=8 n=47 v=56
206339 On ch=8 n=47 v=0
206340 On ch=8 n=47 v=52
206399 On ch=8 n=47 v=0
206400 On ch=8 n=47 v=48
206459 On ch=8 n=47 v=0
206460 On ch=8 n=47 v=44
206519 On ch=8 n=47 v=0
206520 On ch=8 n=47 v=40
206579 On ch=8 n=47 v=0
206580 On ch=8 n=47 v=36
206639 On ch=8 n=47 v=0
206640 On ch=8 n=46 v=32
206880 On ch=8 n=50 v=32
206889 On ch=8 n=46 v=0
207000 On ch=8 n=46 v=32
207009 On ch=8 n=50 v=0
207240 On ch=8 n=41 v=32
207249 On ch=8 n=46 v=0
207359 On ch=8 n=41 v=0
207360 On ch=8 n=46 v=32
207389 On ch=8 n=46 v=0
207420 On ch=8 n=50 v=34
207449 On ch=8 n=50 v=0
207480 On ch=8 n=53 v=36
207509 On ch=8 n=53 v=0
207540 On ch=8 n=46 v=38
207569 On ch=8 n=46 v=0
207600 On ch=8 n=50 v=40
207629 On ch=8 n=50 v=0
207660 On ch=8 n=53 v=42
207689 On ch=8 n=53 v=0
207720 On ch=8 n=56 v=45
207749 On ch=8 n=56 v=0
207780 On ch=8 n=50 v=47
207809 On ch=8 n=50 v=0
207840 On ch=8 n=53 v=49
207869 On ch=8 n=53 v=0
207900 On ch=8 n=56 v=51
207929 On ch=8 n=56 v=0
207960 On ch=8 n=60 v=53
207989 On ch=8 n=60 v=0
208020 On ch=8 n=58 v=55
208049 On ch=8 n=58 v=0
208080 On ch=8 n=56 v=58
208109 On ch=8 n=56 v=0
208140 On ch=8 n=58 v=60
208169 On ch=8 n=58 v=0
208200 On ch=8 n=56 v=62
208229 On ch=8 n=56 v=0
208260 On ch=8 n=55 v=64
208289 On ch=8 n=55 v=0
208320 On ch=8 n=53 v=66
208349 On ch=8 n=53 v=0
208380 On ch=8 n=51 v=68
208409 On ch=8 n=51 v=0
208440 On ch=8 n=50 v=72
208469 On ch=8 n=50 v=0
208500 On ch=8 n=48 v=76
208529 On ch=8 n=48 v=0
208560 On ch=8 n=46 v=80
208589 On ch=8 n=46 v=0
208620 On ch=8 n=58 v=84
208649 On ch=8 n=58 v=0
208680 On ch=8 n=58 v=88
208709 On ch=8 n=58 v=0
208740 On ch=8 n=58 v=92
208769 On ch=8 n=58 v=0
208800 On ch=8 n=51 v=96
208859 On ch=8 n=51 v=0
208860 On ch=8 n=51 v=96
208919 On ch=8 n=51 v=0
208920 On ch=8 n=51 v=96
208979 On ch=8 n=51 v=0
208980 On ch=8 n=51 v=96
209039 On ch=8 n=51 v=0
209040 On ch=8 n=51 v=96
209099 On ch=8 n=51 v=0
209100 On ch=8 n=51 v=96
209159 On ch=8 n=51 v=0
209160 On ch=8 n=51 v=96
209219 On ch=8 n=51 v=0
209220 On ch=8 n=51 v=96
209279 On ch=8 n=51 v=0
209280 On ch=8 n=51 v=96
209339 On ch=8 n=51 v=0
209340 On ch=8 n=51 v=96
209399 On ch=8 n=51 v=0
209400 On ch=8 n=51 v=96
209459 On ch=8 n=51 v=0
209460 On ch=8 n=51 v=96
209519 On ch=8 n=51 v=0
209520 On ch=8 n=51 v=96
209579 On ch=8 n=51 v=0
209580 On ch=8 n=51 v=96
209639 On ch=8 n=51 v=0
209640 On ch=8 n=51 v=96
209699 On ch=8 n=51 v=0
209700 On ch=8 n=51 v=96
209759 On ch=8 n=51 v=0
209760 On ch=8 n=51 v=96
209819 On ch=8 n=51 v=0
209820 On ch=8 n=51 v=96
209879 On ch=8 n=51 v=0
209880 On ch=8 n=51 v=96
209939 On ch=8 n=51 v=0
209940 On ch=8 n=51 v=96
209999 On ch=8 n=51 v=0
210000 On ch=8 n=51 v=96
210059 On ch=8 n=51 v=0
210060 On ch=8 n=51 v=96
210119 On ch=8 n=51 v=0
210120 On ch=8 n=51 v=112
210179 On ch=8 n=51 v=0
210180 On ch=8 n=51 v=96
210239 On ch=8 n=51 v=0
210240 On ch=8 n=51 v=96
210299 On ch=8 n=51 v=0
210300 On ch=8 n=51 v=96
210359 On ch=8 n=51 v=0
210360 On ch=8 n=51 v=96
210419 On ch=8 n=51 v=0
210420 On ch=8 n=51 v=96
210479 On ch=8 n=51 v=0
210480 On ch=8 n=51 v=96
210539 On ch=8 n=51 v=0
210540 On ch=8 n=51 v=96
210599 On ch=8 n=51 v=0
210600 On ch=8 n=51 v=96
210659 On ch=8 n=51 v=0
210660 On ch=8 n=51 v=96
210719 On ch=8 n=51 v=0
210720 On ch=8 n=51 v=96
210779 On ch=8 n=51 v=0
210780 On ch=8 n=51 v=96
210839 On ch=8 n=51 v=0
210840 On ch=8 n=51 v=112
210899 On ch=8 n=51 v=0
210900 On ch=8 n=51 v=96
210959 On ch=8 n=51 v=0
210960 On ch=8 n=51 v=112
211019 On ch=8 n=51 v=0
211020 On ch=8 n=51 v=112
211079 On ch=8 n=51 v=0
211080 On ch=8 n=51 v=112
211139 On ch=8 n=51 v=0
211140 On ch=8 n=51 v=112
211199 On ch=8 n=51 v=0
211200 On ch=8 n=51 v=112
211259 On ch=8 n=51 v=0
211260 On ch=8 n=51 v=112
211319 On ch=8 n=51 v=0
211320 On ch=8 n=51 v=112
211379 On ch=8 n=51 v=0
211380 On ch=8 n=51 v=112
211439 On ch=8 n=51 v=0
211440 On ch=8 n=51 v=112
211499 On ch=8 n=51 v=0
211500 On ch=8 n=51 v=112
211559 On ch=8 n=51 v=0
211560 On ch=8 n=51 v=112
211619 On ch=8 n=51 v=0
211620 On ch=8 n=51 v=112
211679 On ch=8 n=51 v=0
211680 On ch=8 n=51 v=112
211739 On ch=8 n=51 v=0
211740 On ch=8 n=51 v=112
211799 On ch=8 n=51 v=0
211800 On ch=8 n=51 v=112
211859 On ch=8 n=51 v=0
211860 On ch=8 n=51 v=112
211919 On ch=8 n=51 v=0
211920 On ch=8 n=51 v=112
211979 On ch=8 n=51 v=0
211980 On ch=8 n=51 v=112
212039 On ch=8 n=51 v=0
212040 On ch=8 n=51 v=112
212099 On ch=8 n=51 v=0
212100 On ch=8 n=51 v=112
212159 On ch=8 n=51 v=0
212160 On ch=8 n=51 v=112
212219 On ch=8 n=51 v=0
212220 On ch=8 n=51 v=112
212279 On ch=8 n=51 v=0
212280 On ch=8 n=51 v=112
212339 On ch=8 n=51 v=0
212340 On ch=8 n=51 v=112
212399 On ch=8 n=51 v=0
212400 On ch=8 n=51 v=127
212459 On ch=8 n=51 v=0
212460 On ch=8 n=51 v=127
212519 On ch=8 n=51 v=0
212520 On ch=8 n=51 v=127
212579 On ch=8 n=51 v=0
212580 On ch=8 n=51 v=127
212639 On ch=8 n=51 v=0
212640 On ch=8 n=55 v=127
212699 On ch=8 n=55 v=0
212700 On ch=8 n=55 v=127
212759 On ch=8 n=55 v=0
212760 On ch=8 n=51 v=127
212819 On ch=8 n=51 v=0
212820 On ch=8 n=51 v=127
212879 On ch=8 n=51 v=0
212880 On ch=8 n=51 v=127
212939 On ch=8 n=51 v=0
212940 On ch=8 n=51 v=127
212999 On ch=8 n=51 v=0
213000 On ch=8 n=46 v=127
213059 On ch=8 n=46 v=0
213060 On ch=8 n=46 v=127
213119 On ch=8 n=46 v=0
213120 On ch=8 n=51 v=127
213179 On ch=8 n=51 v=0
213180 On ch=8 n=51 v=127
213239 On ch=8 n=51 v=0
213240 On ch=8 n=55 v=127
213299 On ch=8 n=55 v=0
213300 On ch=8 n=55 v=127
213359 On ch=8 n=55 v=0
213360 On ch=8 n=58 v=127
213419 On ch=8 n=58 v=0
213420 On ch=8 n=58 v=127
213479 On ch=8 n=58 v=0
213480 On ch=8 n=51 v=127
213539 On ch=8 n=51 v=0
213540 On ch=8 n=51 v=127
213599 On ch=8 n=51 v=0
213600 On ch=8 n=51 v=127
213659 On ch=8 n=51 v=0
213660 On ch=8 n=51 v=127
213719 On ch=8 n=51 v=0
213720 On ch=8 n=43 v=127
213779 On ch=8 n=43 v=0
213780 On ch=8 n=43 v=127
213839 On ch=8 n=43 v=0
213840 On ch=8 n=48 v=127
213899 On ch=8 n=48 v=0
213900 On ch=8 n=48 v=127
213959 On ch=8 n=48 v=0
213960 On ch=8 n=51 v=127
214019 On ch=8 n=51 v=0
214020 On ch=8 n=51 v=127
214079 On ch=8 n=51 v=0
214080 On ch=8 n=55 v=127
214139 On ch=8 n=55 v=0
214140 On ch=8 n=55 v=127
214199 On ch=8 n=55 v=0
214200 On ch=8 n=48 v=127
214259 On ch=8 n=48 v=0
214260 On ch=8 n=48 v=127
214319 On ch=8 n=48 v=0
214320 On ch=8 n=48 v=127
214379 On ch=8 n=48 v=0
214380 On ch=8 n=48 v=127
214439 On ch=8 n=48 v=0
214440 On ch=8 n=46 v=127
214499 On ch=8 n=46 v=0
214500 On ch=8 n=46 v=127
214559 On ch=8 n=46 v=0
214560 On ch=8 n=44 v=127
214619 On ch=8 n=44 v=0
214620 On ch=8 n=56 v=127
214679 On ch=8 n=56 v=0
214680 On ch=8 n=56 v=127
214739 On ch=8 n=56 v=0
214740 On ch=8 n=56 v=127
214799 On ch=8 n=56 v=0
214800 On ch=8 n=56 v=127
214859 On ch=8 n=56 v=0
214860 On ch=8 n=56 v=127
214919 On ch=8 n=56 v=0
214920 On ch=8 n=45 v=127
214979 On ch=8 n=45 v=0
214980 On ch=8 n=57 v=127
215039 On ch=8 n=57 v=0
215040 On ch=8 n=57 v=127
215099 On ch=8 n=57 v=0
215100 On ch=8 n=57 v=127
215159 On ch=8 n=57 v=0
215160 On ch=8 n=57 v=127
215219 On ch=8 n=57 v=0
215220 On ch=8 n=57 v=127
215279 On ch=8 n=57 v=0
215280 On ch=8 n=58 v=127
215399 On ch=8 n=58 v=0
216000 On ch=8 n=46 v=48
216059 On ch=8 n=46 v=0
216120 On ch=8 n=50 v=48
216179 On ch=8 n=50 v=0
216240 On ch=8 n=53 v=48
216299 On ch=8 n=53 v=0
216360 On ch=8 n=58 v=48
216419 On ch=8 n=58 v=0
216480 On ch=8 n=62 v=48
216539 On ch=8 n=62 v=0
216600 On ch=8 n=65 v=48
216659 On ch=8 n=65 v=0
216720 On ch=8 n=46 v=48
216839 On ch=8 n=46 v=0
217440 On ch=8 n=46 v=48
217499 On ch=8 n=46 v=0
217560 On ch=8 n=51 v=48
217619 On ch=8 n=51 v=0
217680 On ch=8 n=55 v=48
217739 On ch=8 n=55 v=0
217800 On ch=8 n=58 v=48
217859 On ch=8 n=58 v=0
217920 On ch=8 n=67 v=48
217979 On ch=8 n=67 v=0
218040 On ch=8 n=63 v=48
218099 On ch=8 n=63 v=0
218160 On ch=8 n=58 v=48
218219 On ch=8 n=58 v=0
219000 On ch=8 n=60 v=127
219179 On ch=8 n=60 v=0
219180 On ch=8 n=58 v=127
219209 On ch=8 n=58 v=0
219240 On ch=8 n=56 v=127
219299 On ch=8 n=56 v=0
219360 On ch=8 n=55 v=127
219419 On ch=8 n=55 v=0
219480 On ch=8 n=53 v=127
219539 On ch=8 n=53 v=0
219600 On ch=8 n=63 v=48
219840 On ch=8 n=62 v=54
219849 On ch=8 n=63 v=0
219900 On ch=8 n=61 v=56
219909 On ch=8 n=62 v=0
219960 On ch=8 n=60 v=56
219969 On ch=8 n=61 v=0
220080 On ch=8 n=58 v=53
220089 On ch=8 n=60 v=0
220200 On ch=8 n=56 v=50
220209 On ch=8 n=58 v=0
220319 On ch=8 n=56 v=0
220320 On ch=8 n=55 v=48
220349 On ch=8 n=55 v=0
220380 On ch=8 n=58 v=48
220409 On ch=8 n=58 v=0
220440 On ch=8 n=56 v=48
220469 On ch=8 n=56 v=0
220500 On ch=8 n=55 v=48
220529 On ch=8 n=55 v=0
220560 On ch=8 n=53 v=48
220589 On ch=8 n=53 v=0
220620 On ch=8 n=51 v=48
220649 On ch=8 n=51 v=0
220680 On ch=8 n=50 v=48
220709 On ch=8 n=50 v=0
220740 On ch=8 n=51 v=48
220769 On ch=8 n=51 v=0
220800 On ch=8 n=53 v=48
220829 On ch=8 n=53 v=0
220860 On ch=8 n=46 v=48
220889 On ch=8 n=46 v=0
220920 On ch=8 n=48 v=48
220949 On ch=8 n=48 v=0
220980 On ch=8 n=50 v=48
221009 On ch=8 n=50 v=0
221040 On ch=8 n=51 v=48
221069 On ch=8 n=51 v=0
221100 On ch=8 n=63 v=50
221129 On ch=8 n=63 v=0
221160 On ch=8 n=63 v=52
221189 On ch=8 n=63 v=0
221220 On ch=8 n=63 v=54
221280 On ch=8 n=62 v=56
221289 On ch=8 n=63 v=0
221340 On ch=8 n=61 v=58
221349 On ch=8 n=62 v=0
221399 On ch=8 n=61 v=0
221400 On ch=8 n=60 v=60
221460 On ch=8 n=58 v=62
221469 On ch=8 n=60 v=0
221519 On ch=8 n=58 v=0
221520 On ch=8 n=56 v=64
221549 On ch=8 n=56 v=0
221580 On ch=8 n=60 v=66
221609 On ch=8 n=60 v=0
221640 On ch=8 n=58 v=68
221669 On ch=8 n=58 v=0
221700 On ch=8 n=56 v=70
221729 On ch=8 n=56 v=0
221760 On ch=8 n=55 v=72
221789 On ch=8 n=55 v=0
221820 On ch=8 n=58 v=74
221849 On ch=8 n=58 v=0
221880 On ch=8 n=56 v=76
221909 On ch=8 n=56 v=0
221940 On ch=8 n=55 v=78
221969 On ch=8 n=55 v=0
222000 On ch=8 n=53 v=80
222029 On ch=8 n=53 v=0
222060 On ch=8 n=51 v=82
222089 On ch=8 n=51 v=0
222120 On ch=8 n=50 v=84
222149 On ch=8 n=50 v=0
222180 On ch=8 n=51 v=86
222209 On ch=8 n=51 v=0
222240 On ch=8 n=53 v=88
222269 On ch=8 n=53 v=0
222300 On ch=8 n=51 v=90
222329 On ch=8 n=51 v=0
222360 On ch=8 n=50 v=92
222389 On ch=8 n=50 v=0
222420 On ch=8 n=48 v=94
222449 On ch=8 n=48 v=0
222480 On ch=8 n=47 v=96
222539 On ch=8 n=47 v=0
222600 On ch=8 n=59 v=96
222659 On ch=8 n=59 v=0
223140 On ch=8 n=47 v=96
223199 On ch=8 n=47 v=0
223200 On ch=8 n=48 v=96
223259 On ch=8 n=48 v=0
223320 On ch=8 n=60 v=96
223379 On ch=8 n=60 v=0
223860 On ch=8 n=48 v=96
223919 On ch=8 n=48 v=0
223920 On ch=8 n=46 v=96
223979 On ch=8 n=46 v=0
224040 On ch=8 n=58 v=96
224099 On ch=8 n=58 v=0
224580 On ch=8 n=46 v=96
224609 On ch=8 n=46 v=0
224640 On ch=8 n=44 v=96
224669 On ch=8 n=44 v=0
224700 On ch=8 n=44 v=96
224819 On ch=8 n=44 v=0
224820 On ch=8 n=45 v=96
224849 On ch=8 n=45 v=0
224880 On ch=8 n=46 v=96
224909 On ch=8 n=46 v=0
224940 On ch=8 n=47 v=96
224969 On ch=8 n=47 v=0
225000 On ch=8 n=48 v=96
225029 On ch=8 n=48 v=0
225060 On ch=8 n=48 v=96
225179 On ch=8 n=48 v=0
225180 On ch=8 n=48 v=96
225209 On ch=8 n=48 v=0
225240 On ch=8 n=50 v=96
225269 On ch=8 n=50 v=0
225300 On ch=8 n=50 v=96
225329 On ch=8 n=50 v=0
225360 On ch=8 n=51 v=96
225389 On ch=8 n=51 v=0
225420 On ch=8 n=51 v=96
225449 On ch=8 n=51 v=0
225480 On ch=8 n=61 v=96
225509 On ch=8 n=61 v=0
225540 On ch=8 n=61 v=96
225569 On ch=8 n=61 v=0
225600 On ch=8 n=60 v=96
225629 On ch=8 n=60 v=0
225660 On ch=8 n=60 v=96
225689 On ch=8 n=60 v=0
225720 On ch=8 n=59 v=96
225749 On ch=8 n=59 v=0
225780 On ch=8 n=59 v=96
225809 On ch=8 n=59 v=0
225840 On ch=8 n=58 v=96
225869 On ch=8 n=58 v=0
225900 On ch=8 n=58 v=96
225929 On ch=8 n=58 v=0
225960 On ch=8 n=55 v=96
225989 On ch=8 n=55 v=0
226020 On ch=8 n=55 v=96
226049 On ch=8 n=55 v=0
226080 On ch=8 n=56 v=96
226139 On ch=8 n=56 v=0
226140 On ch=8 n=44 v=96
226199 On ch=8 n=44 v=0
226200 On ch=8 n=44 v=96
226259 On ch=8 n=44 v=0
226260 On ch=8 n=44 v=96
226319 On ch=8 n=44 v=0
226320 On ch=8 n=44 v=96
226379 On ch=8 n=44 v=0
226380 On ch=8 n=44 v=96
226439 On ch=8 n=44 v=0
226440 On ch=8 n=44 v=96
226499 On ch=8 n=44 v=0
226500 On ch=8 n=44 v=96
226559 On ch=8 n=44 v=0
226560 On ch=8 n=44 v=96
226619 On ch=8 n=44 v=0
226620 On ch=8 n=44 v=96
226679 On ch=8 n=44 v=0
226680 On ch=8 n=44 v=96
226739 On ch=8 n=44 v=0
226740 On ch=8 n=44 v=96
226799 On ch=8 n=44 v=0
226800 On ch=8 n=46 v=96
226859 On ch=8 n=46 v=0
226860 On ch=8 n=46 v=96
226919 On ch=8 n=46 v=0
226920 On ch=8 n=46 v=96
226979 On ch=8 n=46 v=0
226980 On ch=8 n=46 v=96
227039 On ch=8 n=46 v=0
227040 On ch=8 n=46 v=96
227099 On ch=8 n=46 v=0
227100 On ch=8 n=46 v=96
227159 On ch=8 n=46 v=0
227160 On ch=8 n=46 v=96
227219 On ch=8 n=46 v=0
227220 On ch=8 n=46 v=96
227279 On ch=8 n=46 v=0
227280 On ch=8 n=46 v=96
227339 On ch=8 n=46 v=0
227340 On ch=8 n=46 v=96
227399 On ch=8 n=46 v=0
227400 On ch=8 n=46 v=96
227459 On ch=8 n=46 v=0
227460 On ch=8 n=46 v=96
227519 On ch=8 n=46 v=0
227520 On ch=8 n=46 v=96
227639 On ch=8 n=46 v=0
228240 On ch=8 n=58 v=127
228269 On ch=8 n=58 v=0
228300 On ch=8 n=57 v=127
228329 On ch=8 n=57 v=0
228360 On ch=8 n=56 v=127
228389 On ch=8 n=56 v=0
228420 On ch=8 n=55 v=127
228449 On ch=8 n=55 v=0
228480 On ch=8 n=53 v=127
228509 On ch=8 n=53 v=0
228540 On ch=8 n=51 v=127
228569 On ch=8 n=51 v=0
228600 On ch=8 n=50 v=127
228629 On ch=8 n=50 v=0
228660 On ch=8 n=48 v=127
228689 On ch=8 n=48 v=0
228720 On ch=8 n=46 v=127
228749 On ch=8 n=46 v=0
228780 On ch=8 n=44 v=127
228809 On ch=8 n=44 v=0
228840 On ch=8 n=43 v=127
228869 On ch=8 n=43 v=0
228900 On ch=8 n=41 v=127
228929 On ch=8 n=41 v=0
228960 On ch=8 n=39 v=127
229079 On ch=8 n=39 v=0
230520 On ch=8 n=53 v=48
230609 On ch=8 n=53 v=0
230640 On ch=8 n=53 v=48
230729 On ch=8 n=53 v=0
230760 On ch=8 n=53 v=48
230849 On ch=8 n=53 v=0
230880 On ch=8 n=53 v=60
230969 On ch=8 n=53 v=0
231000 On ch=8 n=53 v=72
231089 On ch=8 n=53 v=0
231120 On ch=8 n=53 v=84
231239 On ch=8 n=53 v=0
231240 On ch=8 n=53 v=96
231479 On ch=8 n=53 v=0
231480 On ch=8 n=53 v=96
231780 On ch=8 n=50 v=56
231789 On ch=8 n=53 v=0
231840 On ch=8 n=51 v=48
231849 On ch=8 n=50 v=0
231959 On ch=8 n=51 v=0
233400 On ch=8 n=46 v=48
233520 On ch=8 n=42 v=48
233529 On ch=8 n=46 v=0
233640 On ch=8 n=41 v=56
233649 On ch=8 n=42 v=0
233880 On ch=8 n=40 v=48
233889 On ch=8 n=41 v=0
233999 On ch=8 n=40 v=0
234840 On ch=8 n=46 v=32
234899 On ch=8 n=46 v=0
234960 On ch=8 n=46 v=32
235019 On ch=8 n=46 v=0
235200 On ch=8 n=46 v=32
235259 On ch=8 n=46 v=0
235320 On ch=8 n=46 v=32
235379 On ch=8 n=46 v=0
235560 On ch=8 n=46 v=32
235619 On ch=8 n=46 v=0
235680 On ch=8 n=46 v=32
235739 On ch=8 n=46 v=0
235800 On ch=8 n=46 v=32
235859 On ch=8 n=46 v=0
235920 On ch=8 n=46 v=32
235979 On ch=8 n=46 v=0
236040 On ch=8 n=46 v=32
236099 On ch=8 n=46 v=0
236160 On ch=8 n=46 v=32
236219 On ch=8 n=46 v=0
236220 On ch=8 n=46 v=32
236279 On ch=8 n=46 v=0
236280 On ch=8 n=46 v=32
236339 On ch=8 n=46 v=0
236340 On ch=8 n=46 v=32
236399 On ch=8 n=46 v=0
236400 On ch=8 n=56 v=32
236429 On ch=8 n=56 v=0
236460 On ch=8 n=55 v=32
236489 On ch=8 n=55 v=0
236520 On ch=8 n=53 v=32
236549 On ch=8 n=53 v=0
236580 On ch=8 n=55 v=32
236609 On ch=8 n=55 v=0
236640 On ch=8 n=56 v=32
236669 On ch=8 n=56 v=0
236700 On ch=8 n=55 v=32
236729 On ch=8 n=55 v=0
236760 On ch=8 n=53 v=32
236789 On ch=8 n=53 v=0
236820 On ch=8 n=51 v=32
236849 On ch=8 n=51 v=0
236880 On ch=8 n=50 v=35
236909 On ch=8 n=50 v=0
236940 On ch=8 n=51 v=38
236969 On ch=8 n=51 v=0
237000 On ch=8 n=53 v=41
237029 On ch=8 n=53 v=0
237060 On ch=8 n=55 v=43
237089 On ch=8 n=55 v=0
237120 On ch=8 n=56 v=46
237149 On ch=8 n=56 v=0
237180 On ch=8 n=55 v=48
237209 On ch=8 n=55 v=0
237240 On ch=8 n=53 v=51
237269 On ch=8 n=53 v=0
237300 On ch=8 n=55 v=54
237329 On ch=8 n=55 v=0
237360 On ch=8 n=56 v=57
237389 On ch=8 n=56 v=0
237420 On ch=8 n=55 v=59
237449 On ch=8 n=55 v=0
237480 On ch=8 n=53 v=62
237509 On ch=8 n=53 v=0
237540 On ch=8 n=51 v=64
237569 On ch=8 n=51 v=0
237600 On ch=8 n=50 v=67
237629 On ch=8 n=50 v=0
237660 On ch=8 n=51 v=70
237689 On ch=8 n=51 v=0
237720 On ch=8 n=53 v=73
237749 On ch=8 n=53 v=0
237780 On ch=8 n=55 v=75
237809 On ch=8 n=55 v=0
237840 On ch=8 n=53 v=78
237869 On ch=8 n=53 v=0
237900 On ch=8 n=51 v=80
237929 On ch=8 n=51 v=0
237960 On ch=8 n=50 v=82
237989 On ch=8 n=50 v=0
238020 On ch=8 n=48 v=84
238049 On ch=8 n=48 v=0
238080 On ch=8 n=46 v=87
238109 On ch=8 n=46 v=0
238140 On ch=8 n=44 v=89
238169 On ch=8 n=44 v=0
238200 On ch=8 n=43 v=92
238229 On ch=8 n=43 v=0
238260 On ch=8 n=41 v=94
238289 On ch=8 n=41 v=0
238320 On ch=8 n=39 v=96
238379 On ch=8 n=39 v=0
238380 On ch=8 n=46 v=96
238439 On ch=8 n=46 v=0
238440 On ch=8 n=51 v=96
238499 On ch=8 n=51 v=0
238500 On ch=8 n=46 v=96
238559 On ch=8 n=46 v=0
238560 On ch=8 n=51 v=96
238619 On ch=8 n=51 v=0
238620 On ch=8 n=46 v=96
238679 On ch=8 n=46 v=0
238740 On ch=8 n=46 v=96
238799 On ch=8 n=46 v=0
238800 On ch=8 n=51 v=96
238859 On ch=8 n=51 v=0
238860 On ch=8 n=55 v=96
238919 On ch=8 n=55 v=0
238920 On ch=8 n=58 v=96
238979 On ch=8 n=58 v=0
238980 On ch=8 n=46 v=96
239039 On ch=8 n=46 v=0
239100 On ch=8 n=46 v=96
239159 On ch=8 n=46 v=0
239160 On ch=8 n=53 v=96
239219 On ch=8 n=53 v=0
239220 On ch=8 n=56 v=96
239279 On ch=8 n=56 v=0
239280 On ch=8 n=58 v=96
239339 On ch=8 n=58 v=0
239340 On ch=8 n=46 v=96
239399 On ch=8 n=46 v=0
239460 On ch=8 n=46 v=96
239519 On ch=8 n=46 v=0
239520 On ch=8 n=50 v=96
239579 On ch=8 n=50 v=0
239580 On ch=8 n=53 v=96
239639 On ch=8 n=53 v=0
239640 On ch=8 n=58 v=96
239699 On ch=8 n=58 v=0
239700 On ch=8 n=56 v=96
239759 On ch=8 n=56 v=0
239760 On ch=8 n=55 v=127
239819 On ch=8 n=55 v=0
239820 On ch=8 n=46 v=127
239879 On ch=8 n=46 v=0
239880 On ch=8 n=51 v=127
239939 On ch=8 n=51 v=0
239940 On ch=8 n=46 v=127
239999 On ch=8 n=46 v=0
240000 On ch=8 n=51 v=127
240059 On ch=8 n=51 v=0
240060 On ch=8 n=46 v=127
240119 On ch=8 n=46 v=0
240120 On ch=8 n=51 v=127
240179 On ch=8 n=51 v=0
240180 On ch=8 n=46 v=127
240239 On ch=8 n=46 v=0
240240 On ch=8 n=51 v=127
240299 On ch=8 n=51 v=0
240300 On ch=8 n=46 v=127
240359 On ch=8 n=46 v=0
240360 On ch=8 n=51 v=127
240419 On ch=8 n=51 v=0
240420 On ch=8 n=46 v=127
240479 On ch=8 n=46 v=0
240480 On ch=8 n=50 v=127
240539 On ch=8 n=50 v=0
240540 On ch=8 n=46 v=127
240599 On ch=8 n=46 v=0
240600 On ch=8 n=50 v=127
240659 On ch=8 n=50 v=0
240660 On ch=8 n=46 v=127
240719 On ch=8 n=46 v=0
240720 On ch=8 n=50 v=127
240779 On ch=8 n=50 v=0
240780 On ch=8 n=46 v=127
240839 On ch=8 n=46 v=0
240840 On ch=8 n=53 v=127
240899 On ch=8 n=53 v=0
240900 On ch=8 n=46 v=127
240959 On ch=8 n=46 v=0
240960 On ch=8 n=56 v=127
241019 On ch=8 n=56 v=0
241020 On ch=8 n=58 v=127
241079 On ch=8 n=58 v=0
241080 On ch=8 n=56 v=127
241139 On ch=8 n=56 v=0
241140 On ch=8 n=58 v=127
241199 On ch=8 n=58 v=0
241200 On ch=8 n=55 v=127
241500 On ch=8 n=54 v=127
241509 On ch=8 n=55 v=0
241560 On ch=8 n=55 v=127
241569 On ch=8 n=54 v=0
241619 On ch=8 n=55 v=0
241620 On ch=8 n=50 v=127
241649 On ch=8 n=50 v=0
241680 On ch=8 n=51 v=127
241709 On ch=8 n=51 v=0
241740 On ch=8 n=53 v=127
241769 On ch=8 n=53 v=0
241800 On ch=8 n=54 v=127
241829 On ch=8 n=54 v=0
241860 On ch=8 n=55 v=127
241889 On ch=8 n=55 v=0
241920 On ch=8 n=56 v=127
241949 On ch=8 n=56 v=0
241980 On ch=8 n=55 v=127
242009 On ch=8 n=55 v=0
242040 On ch=8 n=53 v=127
242069 On ch=8 n=53 v=0
242100 On ch=8 n=57 v=127
242129 On ch=8 n=57 v=0
242160 On ch=8 n=58 v=127
242189 On ch=8 n=58 v=0
242220 On ch=8 n=56 v=127
242249 On ch=8 n=56 v=0
242280 On ch=8 n=55 v=127
242309 On ch=8 n=55 v=0
242340 On ch=8 n=47 v=127
242369 On ch=8 n=47 v=0
242400 On ch=8 n=48 v=127
242429 On ch=8 n=48 v=0
242460 On ch=8 n=46 v=127
242489 On ch=8 n=46 v=0
242520 On ch=8 n=44 v=127
242549 On ch=8 n=44 v=0
242580 On ch=8 n=48 v=127
242609 On ch=8 n=48 v=0
242640 On ch=8 n=50 v=127
242669 On ch=8 n=50 v=0
242700 On ch=8 n=48 v=127
242729 On ch=8 n=48 v=0
242760 On ch=8 n=46 v=127
242789 On ch=8 n=46 v=0
242820 On ch=8 n=50 v=127
242849 On ch=8 n=50 v=0
242880 On ch=8 n=51 v=127
242909 On ch=8 n=51 v=0
242940 On ch=8 n=50 v=127
242969 On ch=8 n=50 v=0
243000 On ch=8 n=48 v=127
243029 On ch=8 n=48 v=0
243060 On ch=8 n=59 v=127
243089 On ch=8 n=59 v=0
243120 On ch=8 n=60 v=127
243149 On ch=8 n=60 v=0
243180 On ch=8 n=58 v=127
243209 On ch=8 n=58 v=0
243240 On ch=8 n=57 v=127
243269 On ch=8 n=57 v=0
243300 On ch=8 n=56 v=127
243329 On ch=8 n=56 v=0
243360 On ch=8 n=55 v=127
243419 On ch=8 n=55 v=0
243480 On ch=8 n=59 v=127
243539 On ch=8 n=59 v=0
243600 On ch=8 n=60 v=127
243659 On ch=8 n=60 v=0
243840 On ch=8 n=55 v=127
243899 On ch=8 n=55 v=0
243960 On ch=8 n=56 v=127
244019 On ch=8 n=56 v=0
244200 On ch=8 n=57 v=127
244259 On ch=8 n=57 v=0
244320 On ch=8 n=58 v=127
244379 On ch=8 n=58 v=0
244560 On ch=8 n=59 v=127
244619 On ch=8 n=59 v=0
244680 On ch=8 n=60 v=127
244739 On ch=8 n=60 v=0
244920 On ch=8 n=55 v=127
244979 On ch=8 n=55 v=0
245040 On ch=8 n=56 v=127
245099 On ch=8 n=56 v=0
245280 On ch=8 n=57 v=127
245339 On ch=8 n=57 v=0
245520 On ch=8 n=45 v=127
245579 On ch=8 n=45 v=0
245760 On ch=8 n=45 v=127
245819 On ch=8 n=45 v=0
246000 On ch=8 n=45 v=127
246059 On ch=8 n=45 v=0
246240 On ch=8 n=45 v=127
246299 On ch=8 n=45 v=0
246480 On ch=8 n=45 v=127
246539 On ch=8 n=45 v=0
246960 On ch=8 n=47 v=96
246989 On ch=8 n=47 v=0
246990 On ch=8 n=47 v=48
247319 On ch=8 n=47 v=0
247320 On ch=8 n=46 v=48
247679 On ch=8 n=46 v=0
247680 On ch=8 n=48 v=96
247709 On ch=8 n=48 v=0
247710 On ch=8 n=48 v=48
248159 On ch=8 n=48 v=0
248220 On ch=8 n=36 v=48
248249 On ch=8 n=36 v=0
248280 On ch=8 n=39 v=48
248309 On ch=8 n=39 v=0
248340 On ch=8 n=44 v=48
248369 On ch=8 n=44 v=0
248400 On ch=8 n=37 v=48
248519 On ch=8 n=37 v=0
248580 On ch=8 n=37 v=48
248609 On ch=8 n=37 v=0
248640 On ch=8 n=41 v=48
248669 On ch=8 n=41 v=0
248700 On ch=8 n=44 v=48
248729 On ch=8 n=44 v=0
248760 On ch=8 n=38 v=48
248879 On ch=8 n=38 v=0
248940 On ch=8 n=38 v=48
248969 On ch=8 n=38 v=0
249000 On ch=8 n=41 v=48
249029 On ch=8 n=41 v=0
249060 On ch=8 n=46 v=48
249089 On ch=8 n=46 v=0
249120 On ch=8 n=39 v=48
249239 On ch=8 n=39 v=0
249300 On ch=8 n=51 v=48
249359 On ch=8 n=51 v=0
249360 On ch=8 n=51 v=48
249419 On ch=8 n=51 v=0
249420 On ch=8 n=51 v=48
249479 On ch=8 n=51 v=0
249480 On ch=8 n=56 v=52
249539 On ch=8 n=56 v=0
249540 On ch=8 n=56 v=56
249599 On ch=8 n=56 v=0
249600 On ch=8 n=56 v=60
249659 On ch=8 n=56 v=0
249660 On ch=8 n=56 v=64
249719 On ch=8 n=56 v=0
249720 On ch=8 n=56 v=68
249779 On ch=8 n=56 v=0
249780 On ch=8 n=56 v=72
249839 On ch=8 n=56 v=0
249840 On ch=8 n=53 v=77
249899 On ch=8 n=53 v=0
249900 On ch=8 n=53 v=82
249959 On ch=8 n=53 v=0
249960 On ch=8 n=53 v=87
250019 On ch=8 n=53 v=0
250020 On ch=8 n=53 v=92
250080 On ch=8 n=55 v=97
250089 On ch=8 n=53 v=0
250140 On ch=8 n=56 v=102
250149 On ch=8 n=55 v=0
250199 On ch=8 n=56 v=0
250200 On ch=8 n=58 v=107
250229 On ch=8 n=58 v=0
250260 On ch=8 n=55 v=112
250289 On ch=8 n=55 v=0
250320 On ch=8 n=51 v=117
250349 On ch=8 n=51 v=0
250380 On ch=8 n=58 v=122
250409 On ch=8 n=58 v=0
250440 On ch=8 n=55 v=124
250469 On ch=8 n=55 v=0
250500 On ch=8 n=51 v=126
250529 On ch=8 n=51 v=0
250560 On ch=8 n=46 v=127
250619 On ch=8 n=46 v=0
250620 On ch=8 n=46 v=127
250679 On ch=8 n=46 v=0
250680 On ch=8 n=46 v=127
250739 On ch=8 n=46 v=0
250740 On ch=8 n=46 v=127
250799 On ch=8 n=46 v=0
250800 On ch=8 n=46 v=127
250859 On ch=8 n=46 v=0
250860 On ch=8 n=46 v=127
250919 On ch=8 n=46 v=0
250920 On ch=8 n=51 v=96
251039 On ch=8 n=51 v=0
251280 On ch=8 n=51 v=96
251399 On ch=8 n=51 v=0
251640 On ch=8 n=51 v=96
251759 On ch=8 n=51 v=0
252000 On ch=8 n=51 v=96
252059 On ch=8 n=51 v=0
252120 On ch=8 n=51 v=96
252179 On ch=8 n=51 v=0
252240 On ch=8 n=51 v=96
252299 On ch=8 n=51 v=0
252360 On ch=8 n=51 v=96
252389 On ch=8 n=51 v=0
252390 On ch=8 n=51 v=48
254519 On ch=8 n=51 v=0
254520 On ch=8 n=44 v=96
254520 On ch=8 n=37 v=96
255239 On ch=8 n=37 v=0
255239 On ch=8 n=44 v=0
255240 On ch=8 n=49 v=48
255959 On ch=8 n=49 v=0
255960 On ch=8 n=36 v=127
255960 On ch=8 n=43 v=127
255989 On ch=8 n=43 v=0
255989 On ch=8 n=36 v=0
255990 On ch=8 n=36 v=127
255990 On ch=8 n=43 v=127
256019 On ch=8 n=43 v=0
256019 On ch=8 n=36 v=0
256020 On ch=8 n=36 v=127
256020 On ch=8 n=43 v=127
256049 On ch=8 n=43 v=0
256049 On ch=8 n=36 v=0
256050 On ch=8 n=36 v=127
256050 On ch=8 n=43 v=127
256079 On ch=8 n=43 v=0
256079 On ch=8 n=36 v=0
256080 On ch=8 n=36 v=127
256080 On ch=8 n=43 v=127
256109 On ch=8 n=43 v=0
256109 On ch=8 n=36 v=0
256110 On ch=8 n=36 v=127
256110 On ch=8 n=43 v=127
256139 On ch=8 n=43 v=0
256139 On ch=8 n=36 v=0
256140 On ch=8 n=36 v=127
256140 On ch=8 n=43 v=127
256169 On ch=8 n=43 v=0
256169 On ch=8 n=36 v=0
256170 On ch=8 n=36 v=127
256170 On ch=8 n=43 v=127
256199 On ch=8 n=43 v=0
256199 On ch=8 n=36 v=0
256200 On ch=8 n=36 v=127
256200 On ch=8 n=43 v=127
256229 On ch=8 n=43 v=0
256229 On ch=8 n=36 v=0
256230 On ch=8 n=36 v=127
256230 On ch=8 n=43 v=127
256259 On ch=8 n=43 v=0
256259 On ch=8 n=36 v=0
256260 On ch=8 n=36 v=127
256260 On ch=8 n=43 v=127
256289 On ch=8 n=43 v=0
256289 On ch=8 n=36 v=0
256290 On ch=8 n=36 v=127
256290 On ch=8 n=43 v=127
256319 On ch=8 n=43 v=0
256319 On ch=8 n=36 v=0
256320 On ch=8 n=36 v=127
256320 On ch=8 n=43 v=127
256349 On ch=8 n=43 v=0
256349 On ch=8 n=36 v=0
256350 On ch=8 n=36 v=127
256350 On ch=8 n=43 v=127
256379 On ch=8 n=43 v=0
256379 On ch=8 n=36 v=0
256380 On ch=8 n=36 v=127
256380 On ch=8 n=43 v=127
256409 On ch=8 n=43 v=0
256409 On ch=8 n=36 v=0
256410 On ch=8 n=36 v=127
256410 On ch=8 n=43 v=127
256439 On ch=8 n=43 v=0
256439 On ch=8 n=36 v=0
256440 On ch=8 n=36 v=127
256440 On ch=8 n=43 v=127
256469 On ch=8 n=43 v=0
256469 On ch=8 n=36 v=0
256470 On ch=8 n=36 v=127
256470 On ch=8 n=43 v=127
256499 On ch=8 n=43 v=0
256499 On ch=8 n=36 v=0
256500 On ch=8 n=36 v=127
256500 On ch=8 n=43 v=127
256529 On ch=8 n=43 v=0
256529 On ch=8 n=36 v=0
256530 On ch=8 n=36 v=127
256530 On ch=8 n=43 v=127
256559 On ch=8 n=43 v=0
256559 On ch=8 n=36 v=0
256560 On ch=8 n=36 v=127
256560 On ch=8 n=43 v=127
256589 On ch=8 n=43 v=0
256589 On ch=8 n=36 v=0
256590 On ch=8 n=36 v=127
256590 On ch=8 n=43 v=127
256619 On ch=8 n=43 v=0
256619 On ch=8 n=36 v=0
256620 On ch=8 n=36 v=127
256620 On ch=8 n=43 v=127
256649 On ch=8 n=43 v=0
256649 On ch=8 n=36 v=0
256650 On ch=8 n=36 v=127
256650 On ch=8 n=43 v=127
256679 On ch=8 n=43 v=0
256679 On ch=8 n=36 v=0
256680 On ch=8 n=48 v=48
258839 On ch=8 n=48 v=0
258840 On ch=8 n=47 v=32
260279 On ch=8 n=47 v=0
260280 On ch=8 n=46 v=32
260640 On ch=8 n=58 v=32
260649 On ch=8 n=46 v=0
260999 On ch=8 n=58 v=0
261000 On ch=8 n=56 v=32
261719 On ch=8 n=56 v=0
261720 On ch=8 n=52 v=32
261839 On ch=8 n=52 v=0
265440 On ch=8 n=46 v=48
265560 On ch=8 n=48 v=64
265569 On ch=8 n=46 v=0
265680 On ch=8 n=50 v=96
265689 On ch=8 n=48 v=0
265860 On ch=8 n=48 v=64
265869 On ch=8 n=50 v=0
265920 On ch=8 n=46 v=48
265929 On ch=8 n=48 v=0
266039 On ch=8 n=46 v=0
266040 On ch=8 n=51 v=48
266159 On ch=8 n=51 v=0
266160 On ch=8 n=63 v=48
266280 On ch=8 n=65 v=48
266289 On ch=8 n=63 v=0
266400 On ch=8 n=66 v=64
266409 On ch=8 n=65 v=0
266580 On ch=8 n=65 v=48
266589 On ch=8 n=66 v=0
266640 On ch=8 n=63 v=48
266649 On ch=8 n=65 v=0
266759 On ch=8 n=63 v=0
266760 On ch=8 n=62 v=48
266880 On ch=8 n=61 v=48
266889 On ch=8 n=62 v=0
267000 On ch=8 n=60 v=48
267009 On ch=8 n=61 v=0
267120 On ch=8 n=58 v=64
267129 On ch=8 n=60 v=0
267360 On ch=8 n=60 v=48
267369 On ch=8 n=58 v=0
267420 On ch=8 n=62 v=48
267429 On ch=8 n=60 v=0
267479 On ch=8 n=62 v=0
267480 On ch=8 n=63 v=48
267599 On ch=8 n=63 v=0
267600 On ch=8 n=63 v=48
267720 On ch=8 n=65 v=48
267729 On ch=8 n=63 v=0
267840 On ch=8 n=66 v=64
267849 On ch=8 n=65 v=0
268020 On ch=8 n=65 v=48
268029 On ch=8 n=66 v=0
268080 On ch=8 n=63 v=48
268089 On ch=8 n=65 v=0
268199 On ch=8 n=63 v=0
268200 On ch=8 n=62 v=32
268560 On ch=8 n=61 v=32
268569 On ch=8 n=62 v=0
268920 On ch=8 n=60 v=32
268929 On ch=8 n=61 v=0
269280 On ch=8 n=59 v=32
269289 On ch=8 n=60 v=0
269640 On ch=8 n=58 v=32
269649 On ch=8 n=59 v=0
269999 On ch=8 n=58 v=0
270000 On ch=8 n=58 v=32
270360 On ch=8 n=57 v=32
270369 On ch=8 n=58 v=0
270720 On ch=8 n=56 v=32
270729 On ch=8 n=57 v=0
271080 On ch=8 n=56 v=32
271089 On ch=8 n=56 v=0
271199 On ch=8 n=56 v=0
271200 On ch=8 n=50 v=32
271259 On ch=8 n=50 v=0
271320 On ch=8 n=46 v=32
271379 On ch=8 n=46 v=0
271440 On ch=8 n=53 v=32
271499 On ch=8 n=53 v=0
271560 On ch=8 n=46 v=32
271619 On ch=8 n=46 v=0
271680 On ch=8 n=58 v=32
271739 On ch=8 n=58 v=0
271800 On ch=8 n=46 v=32
271859 On ch=8 n=46 v=0
271920 On ch=8 n=62 v=32
271979 On ch=8 n=62 v=0
272040 On ch=8 n=46 v=32
272099 On ch=8 n=46 v=0
272160 On ch=8 n=65 v=96
272189 On ch=8 n=65 v=0
272190 On ch=8 n=65 v=32
272519 On ch=8 n=65 v=0
272520 On ch=8 n=46 v=32
272579 On ch=8 n=46 v=0
272640 On ch=8 n=51 v=32
272699 On ch=8 n=51 v=0
272760 On ch=8 n=46 v=32
272819 On ch=8 n=46 v=0
272880 On ch=8 n=54 v=32
272939 On ch=8 n=54 v=0
273000 On ch=8 n=46 v=32
273059 On ch=8 n=46 v=0
273120 On ch=8 n=58 v=32
273179 On ch=8 n=58 v=0
273240 On ch=8 n=46 v=32
273299 On ch=8 n=46 v=0
273360 On ch=8 n=51 v=32
273419 On ch=8 n=51 v=0
273480 On ch=8 n=46 v=32
273539 On ch=8 n=46 v=0
273600 On ch=8 n=54 v=96
273629 On ch=8 n=54 v=0
273630 On ch=8 n=54 v=32
274079 On ch=8 n=54 v=0
274080 On ch=8 n=53 v=32
274139 On ch=8 n=53 v=0
274200 On ch=8 n=46 v=32
274259 On ch=8 n=46 v=0
274320 On ch=8 n=56 v=96
274349 On ch=8 n=56 v=0
274350 On ch=8 n=56 v=32
274799 On ch=8 n=56 v=0
274800 On ch=8 n=55 v=32
274859 On ch=8 n=55 v=0
274920 On ch=8 n=46 v=32
274979 On ch=8 n=46 v=0
275040 On ch=8 n=58 v=96
275069 On ch=8 n=58 v=0
275070 On ch=8 n=58 v=32
275519 On ch=8 n=58 v=0
275520 On ch=8 n=57 v=32
275579 On ch=8 n=57 v=0
275640 On ch=8 n=46 v=34
275699 On ch=8 n=46 v=0
275760 On ch=8 n=57 v=35
275819 On ch=8 n=57 v=0
275880 On ch=8 n=46 v=36
275939 On ch=8 n=46 v=0
276000 On ch=8 n=57 v=37
276059 On ch=8 n=57 v=0
276120 On ch=8 n=46 v=40
276179 On ch=8 n=46 v=0
276240 On ch=8 n=57 v=41
276299 On ch=8 n=57 v=0
276360 On ch=8 n=46 v=42
276419 On ch=8 n=46 v=0
276480 On ch=8 n=57 v=43
276539 On ch=8 n=57 v=0
276600 On ch=8 n=46 v=45
276659 On ch=8 n=46 v=0
276720 On ch=8 n=57 v=47
276779 On ch=8 n=57 v=0
276840 On ch=8 n=46 v=48
276899 On ch=8 n=46 v=0
276960 On ch=8 n=58 v=52
277019 On ch=8 n=58 v=0
277080 On ch=8 n=46 v=56
277139 On ch=8 n=46 v=0
277200 On ch=8 n=58 v=60
277259 On ch=8 n=58 v=0
277320 On ch=8 n=46 v=64
277379 On ch=8 n=46 v=0
277440 On ch=8 n=58 v=68
277499 On ch=8 n=58 v=0
277560 On ch=8 n=47 v=64
277619 On ch=8 n=47 v=0
277680 On ch=8 n=59 v=60
277739 On ch=8 n=59 v=0
277800 On ch=8 n=47 v=56
277859 On ch=8 n=47 v=0
277920 On ch=8 n=59 v=52
277979 On ch=8 n=59 v=0
278040 On ch=8 n=47 v=48
278099 On ch=8 n=47 v=0
278160 On ch=8 n=59 v=48
278219 On ch=8 n=59 v=0
278280 On ch=8 n=48 v=48
278339 On ch=8 n=48 v=0
278400 On ch=8 n=60 v=48
278459 On ch=8 n=60 v=0
278520 On ch=8 n=48 v=48
278579 On ch=8 n=48 v=0
278640 On ch=8 n=60 v=48
278699 On ch=8 n=60 v=0
278760 On ch=8 n=48 v=48
278819 On ch=8 n=48 v=0
278880 On ch=8 n=60 v=48
278939 On ch=8 n=60 v=0
279000 On ch=8 n=44 v=48
279059 On ch=8 n=44 v=0
279120 On ch=8 n=56 v=48
279179 On ch=8 n=56 v=0
279240 On ch=8 n=44 v=48
279299 On ch=8 n=44 v=0
279360 On ch=8 n=56 v=48
279419 On ch=8 n=56 v=0
279480 On ch=8 n=44 v=48
279539 On ch=8 n=44 v=0
279600 On ch=8 n=56 v=48
279659 On ch=8 n=56 v=0
279720 On ch=8 n=46 v=48
279779 On ch=8 n=46 v=0
279840 On ch=8 n=58 v=50
279899 On ch=8 n=58 v=0
279960 On ch=8 n=46 v=52
280019 On ch=8 n=46 v=0
280080 On ch=8 n=58 v=54
280139 On ch=8 n=58 v=0
280200 On ch=8 n=46 v=56
280259 On ch=8 n=46 v=0
280320 On ch=8 n=58 v=58
280379 On ch=8 n=58 v=0
280440 On ch=8 n=46 v=60
280499 On ch=8 n=46 v=0
280560 On ch=8 n=58 v=62
280619 On ch=8 n=58 v=0
280680 On ch=8 n=46 v=64
280739 On ch=8 n=46 v=0
280800 On ch=8 n=58 v=48
280859 On ch=8 n=58 v=0
280920 On ch=8 n=46 v=48
280979 On ch=8 n=46 v=0
281040 On ch=8 n=58 v=48
281099 On ch=8 n=58 v=0
281160 On ch=8 n=51 v=48
281219 On ch=8 n=51 v=0
281880 On ch=8 n=51 v=48
281939 On ch=8 n=51 v=0
282600 On ch=8 n=50 v=48
282659 On ch=8 n=50 v=0
283320 On ch=8 n=46 v=48
283379 On ch=8 n=46 v=0
283800 On ch=8 n=46 v=48
283859 On ch=8 n=46 v=0
283920 On ch=8 n=46 v=48
283979 On ch=8 n=46 v=0
284040 On ch=8 n=51 v=48
284100 On ch=8 n=46 v=48
284109 On ch=8 n=51 v=0
284160 On ch=8 n=51 v=48
284169 On ch=8 n=46 v=0
284220 On ch=8 n=46 v=48
284229 On ch=8 n=51 v=0
284280 On ch=8 n=43 v=48
284289 On ch=8 n=46 v=0
284340 On ch=8 n=46 v=48
284349 On ch=8 n=43 v=0
284399 On ch=8 n=46 v=0
284400 On ch=8 n=43 v=48
284460 On ch=8 n=46 v=48
284469 On ch=8 n=43 v=0
284520 On ch=8 n=51 v=48
284529 On ch=8 n=46 v=0
284580 On ch=8 n=46 v=48
284589 On ch=8 n=51 v=0
284640 On ch=8 n=43 v=48
284649 On ch=8 n=46 v=0
284700 On ch=8 n=46 v=48
284709 On ch=8 n=43 v=0
284759 On ch=8 n=46 v=0
284760 On ch=8 n=43 v=48
284820 On ch=8 n=46 v=48
284829 On ch=8 n=43 v=0
284880 On ch=8 n=51 v=48
284889 On ch=8 n=46 v=0
284940 On ch=8 n=46 v=48
284949 On ch=8 n=51 v=0
285000 On ch=8 n=43 v=48
285009 On ch=8 n=46 v=0
285060 On ch=8 n=46 v=48
285069 On ch=8 n=43 v=0
285119 On ch=8 n=46 v=0
285120 On ch=8 n=43 v=48
285180 On ch=8 n=46 v=48
285189 On ch=8 n=43 v=0
285240 On ch=8 n=51 v=48
285249 On ch=8 n=46 v=0
285300 On ch=8 n=46 v=48
285309 On ch=8 n=51 v=0
285360 On ch=8 n=43 v=48
285369 On ch=8 n=46 v=0
285420 On ch=8 n=46 v=48
285429 On ch=8 n=43 v=0
285479 On ch=8 n=46 v=0
285480 On ch=8 n=44 v=48
285540 On ch=8 n=46 v=48
285549 On ch=8 n=44 v=0
285600 On ch=8 n=53 v=48
285609 On ch=8 n=46 v=0
285660 On ch=8 n=46 v=48
285669 On ch=8 n=53 v=0
285720 On ch=8 n=44 v=48
285729 On ch=8 n=46 v=0
285780 On ch=8 n=46 v=48
285789 On ch=8 n=44 v=0
285839 On ch=8 n=46 v=0
285840 On ch=8 n=44 v=48
285900 On ch=8 n=46 v=48
285909 On ch=8 n=44 v=0
285960 On ch=8 n=53 v=48
285969 On ch=8 n=46 v=0
286020 On ch=8 n=46 v=48
286029 On ch=8 n=53 v=0
286080 On ch=8 n=44 v=48
286089 On ch=8 n=46 v=0
286140 On ch=8 n=46 v=48
286149 On ch=8 n=44 v=0
286199 On ch=8 n=46 v=0
286200 On ch=8 n=44 v=48
286260 On ch=8 n=46 v=48
286269 On ch=8 n=44 v=0
286320 On ch=8 n=50 v=48
286329 On ch=8 n=46 v=0
286380 On ch=8 n=46 v=48
286389 On ch=8 n=50 v=0
286440 On ch=8 n=44 v=48
286449 On ch=8 n=46 v=0
286500 On ch=8 n=46 v=48
286509 On ch=8 n=44 v=0
286559 On ch=8 n=46 v=0
286560 On ch=8 n=44 v=48
286620 On ch=8 n=46 v=48
286629 On ch=8 n=44 v=0
286680 On ch=8 n=50 v=48
286689 On ch=8 n=46 v=0
286740 On ch=8 n=46 v=48
286749 On ch=8 n=50 v=0
286800 On ch=8 n=44 v=48
286809 On ch=8 n=46 v=0
286860 On ch=8 n=46 v=48
286869 On ch=8 n=44 v=0
286919 On ch=8 n=46 v=0
286920 On ch=8 n=51 v=48
287160 On ch=8 n=55 v=52
287169 On ch=8 n=51 v=0
287280 On ch=8 n=51 v=54
287289 On ch=8 n=55 v=0
287520 On ch=8 n=46 v=58
287529 On ch=8 n=51 v=0
287639 On ch=8 n=46 v=0
287640 On ch=8 n=51 v=60
287760 On ch=8 n=55 v=62
287769 On ch=8 n=51 v=0
287879 On ch=8 n=55 v=0
287880 On ch=8 n=58 v=64
287939 On ch=8 n=58 v=0
288000 On ch=8 n=58 v=66
288359 On ch=8 n=58 v=0
288360 On ch=8 n=53 v=72
288600 On ch=8 n=56 v=76
288609 On ch=8 n=53 v=0
288720 On ch=8 n=53 v=78
288729 On ch=8 n=56 v=0
288960 On ch=8 n=46 v=82
288969 On ch=8 n=53 v=0
289079 On ch=8 n=46 v=0
289080 On ch=8 n=53 v=84
289200 On ch=8 n=56 v=86
289209 On ch=8 n=53 v=0
289319 On ch=8 n=56 v=0
289320 On ch=8 n=58 v=88
289379 On ch=8 n=58 v=0
289440 On ch=8 n=58 v=90
289859 On ch=8 n=58 v=0
289860 On ch=8 n=51 v=96
289890 On ch=8 n=53 v=96
289899 On ch=8 n=51 v=0
289920 On ch=8 n=55 v=96
289929 On ch=8 n=53 v=0
289949 On ch=8 n=55 v=0
289980 On ch=8 n=55 v=96
290010 On ch=8 n=56 v=96
290019 On ch=8 n=55 v=0
290040 On ch=8 n=58 v=96
290049 On ch=8 n=56 v=0
290069 On ch=8 n=58 v=0
290100 On ch=8 n=60 v=96
290130 On ch=8 n=62 v=96
290139 On ch=8 n=60 v=0
290160 On ch=8 n=63 v=96
290169 On ch=8 n=62 v=0
290189 On ch=8 n=63 v=0
290220 On ch=8 n=55 v=96
290250 On ch=8 n=56 v=96
290259 On ch=8 n=55 v=0
290280 On ch=8 n=58 v=96
290289 On ch=8 n=56 v=0
290309 On ch=8 n=58 v=0
290340 On ch=8 n=58 v=96
290370 On ch=8 n=60 v=96
290379 On ch=8 n=58 v=0
290400 On ch=8 n=62 v=96
290409 On ch=8 n=60 v=0
290429 On ch=8 n=62 v=0
290460 On ch=8 n=63 v=96
290490 On ch=8 n=65 v=96
290499 On ch=8 n=63 v=0
290520 On ch=8 n=67 v=96
290529 On ch=8 n=65 v=0
290549 On ch=8 n=67 v=0
290580 On ch=8 n=65 v=96
290609 On ch=8 n=65 v=0
290640 On ch=8 n=63 v=112
290669 On ch=8 n=63 v=0
290700 On ch=8 n=62 v=96
290729 On ch=8 n=62 v=0
290760 On ch=8 n=60 v=96
290789 On ch=8 n=60 v=0
290820 On ch=8 n=58 v=96
290849 On ch=8 n=58 v=0
290880 On ch=8 n=56 v=96
290909 On ch=8 n=56 v=0
290940 On ch=8 n=55 v=96
290969 On ch=8 n=55 v=0
291000 On ch=8 n=53 v=96
291029 On ch=8 n=53 v=0
291060 On ch=8 n=51 v=96
291089 On ch=8 n=51 v=0
291120 On ch=8 n=50 v=96
291149 On ch=8 n=50 v=0
291180 On ch=8 n=48 v=96
291209 On ch=8 n=48 v=0
291240 On ch=8 n=46 v=96
291269 On ch=8 n=46 v=0
291300 On ch=8 n=46 v=96
291330 On ch=8 n=48 v=96
291339 On ch=8 n=46 v=0
291360 On ch=8 n=50 v=96
291369 On ch=8 n=48 v=0
291389 On ch=8 n=50 v=0
291420 On ch=8 n=50 v=96
291450 On ch=8 n=51 v=96
291459 On ch=8 n=50 v=0
291480 On ch=8 n=53 v=96
291489 On ch=8 n=51 v=0
291509 On ch=8 n=53 v=0
291540 On ch=8 n=53 v=96
291570 On ch=8 n=55 v=96
291579 On ch=8 n=53 v=0
291600 On ch=8 n=56 v=96
291609 On ch=8 n=55 v=0
291629 On ch=8 n=56 v=0
291660 On ch=8 n=50 v=96
291690 On ch=8 n=51 v=96
291699 On ch=8 n=50 v=0
291720 On ch=8 n=53 v=96
291729 On ch=8 n=51 v=0
291749 On ch=8 n=53 v=0
291780 On ch=8 n=53 v=96
291810 On ch=8 n=55 v=96
291819 On ch=8 n=53 v=0
291840 On ch=8 n=56 v=96
291849 On ch=8 n=55 v=0
291869 On ch=8 n=56 v=0
291900 On ch=8 n=56 v=96
291930 On ch=8 n=58 v=96
291939 On ch=8 n=56 v=0
291960 On ch=8 n=60 v=112
291969 On ch=8 n=58 v=0
291989 On ch=8 n=60 v=0
292020 On ch=8 n=58 v=96
292049 On ch=8 n=58 v=0
292080 On ch=8 n=56 v=96
292109 On ch=8 n=56 v=0
292140 On ch=8 n=55 v=96
292169 On ch=8 n=55 v=0
292200 On ch=8 n=53 v=96
292229 On ch=8 n=53 v=0
292260 On ch=8 n=51 v=96
292289 On ch=8 n=51 v=0
292320 On ch=8 n=50 v=96
292349 On ch=8 n=50 v=0
292380 On ch=8 n=48 v=96
292409 On ch=8 n=48 v=0
292440 On ch=8 n=46 v=96
292469 On ch=8 n=46 v=0
292500 On ch=8 n=44 v=96
292529 On ch=8 n=44 v=0
292560 On ch=8 n=43 v=96
292589 On ch=8 n=43 v=0
292620 On ch=8 n=41 v=96
292649 On ch=8 n=41 v=0
292680 On ch=8 n=43 v=96
292739 On ch=8 n=43 v=0
292740 On ch=8 n=43 v=96
292799 On ch=8 n=43 v=0
292800 On ch=8 n=46 v=96
292859 On ch=8 n=46 v=0
292860 On ch=8 n=46 v=96
292919 On ch=8 n=46 v=0
292920 On ch=8 n=49 v=96
292979 On ch=8 n=49 v=0
292980 On ch=8 n=49 v=96
293039 On ch=8 n=49 v=0
293040 On ch=8 n=49 v=112
293099 On ch=8 n=49 v=0
293100 On ch=8 n=49 v=96
293159 On ch=8 n=49 v=0
293160 On ch=8 n=49 v=96
293219 On ch=8 n=49 v=0
293220 On ch=8 n=49 v=96
293279 On ch=8 n=49 v=0
293280 On ch=8 n=49 v=96
293339 On ch=8 n=49 v=0
293340 On ch=8 n=49 v=96
293399 On ch=8 n=49 v=0
293400 On ch=8 n=44 v=112
293579 On ch=8 n=44 v=0
293580 On ch=8 n=44 v=96
293609 On ch=8 n=44 v=0
293640 On ch=8 n=48 v=96
293669 On ch=8 n=48 v=0
293700 On ch=8 n=53 v=96
293729 On ch=8 n=53 v=0
293760 On ch=8 n=45 v=112
293939 On ch=8 n=45 v=0
293940 On ch=8 n=45 v=96
293969 On ch=8 n=45 v=0
294000 On ch=8 n=48 v=96
294029 On ch=8 n=48 v=0
294060 On ch=8 n=51 v=96
294089 On ch=8 n=51 v=0
294120 On ch=8 n=46 v=112
294299 On ch=8 n=46 v=0
294300 On ch=8 n=46 v=96
294329 On ch=8 n=46 v=0
294360 On ch=8 n=51 v=96
294389 On ch=8 n=51 v=0
294420 On ch=8 n=55 v=96
294449 On ch=8 n=55 v=0
294480 On ch=8 n=47 v=96
294539 On ch=8 n=47 v=0
294540 On ch=8 n=50 v=96
294599 On ch=8 n=50 v=0
294600 On ch=8 n=53 v=96
294659 On ch=8 n=53 v=0
294660 On ch=8 n=47 v=96
294719 On ch=8 n=47 v=0
294720 On ch=8 n=50 v=96
294779 On ch=8 n=50 v=0
294780 On ch=8 n=53 v=96
294839 On ch=8 n=53 v=0
294840 On ch=8 n=48 v=96
294899 On ch=8 n=48 v=0
294900 On ch=8 n=51 v=96
294959 On ch=8 n=51 v=0
294960 On ch=8 n=55 v=96
295019 On ch=8 n=55 v=0
295020 On ch=8 n=48 v=96
295079 On ch=8 n=48 v=0
295080 On ch=8 n=51 v=96
295139 On ch=8 n=51 v=0
295140 On ch=8 n=55 v=96
295199 On ch=8 n=55 v=0
295200 On ch=8 n=44 v=96
295259 On ch=8 n=44 v=0
295260 On ch=8 n=48 v=96
295319 On ch=8 n=48 v=0
295320 On ch=8 n=53 v=96
295379 On ch=8 n=53 v=0
295380 On ch=8 n=44 v=96
295439 On ch=8 n=44 v=0
295440 On ch=8 n=48 v=96
295499 On ch=8 n=48 v=0
295500 On ch=8 n=53 v=96
295559 On ch=8 n=53 v=0
295560 On ch=8 n=46 v=127
295619 On ch=8 n=46 v=0
295620 On ch=8 n=51 v=127
295679 On ch=8 n=51 v=0
295680 On ch=8 n=55 v=127
295739 On ch=8 n=55 v=0
295740 On ch=8 n=46 v=127
295799 On ch=8 n=46 v=0
295800 On ch=8 n=51 v=127
295859 On ch=8 n=51 v=0
295860 On ch=8 n=55 v=127
295919 On ch=8 n=55 v=0
295920 On ch=8 n=58 v=127
295979 On ch=8 n=58 v=0
295980 On ch=8 n=46 v=127
296039 On ch=8 n=46 v=0
296040 On ch=8 n=46 v=127
296099 On ch=8 n=46 v=0
296100 On ch=8 n=46 v=127
296159 On ch=8 n=46 v=0
296160 On ch=8 n=46 v=127
296219 On ch=8 n=46 v=0
296220 On ch=8 n=46 v=127
296279 On ch=8 n=46 v=0
296280 On ch=8 n=63 v=48
296520 On ch=8 n=62 v=52
296529 On ch=8 n=63 v=0
296580 On ch=8 n=61 v=56
296589 On ch=8 n=62 v=0
296640 On ch=8 n=60 v=56
296649 On ch=8 n=61 v=0
296760 On ch=8 n=58 v=52
296769 On ch=8 n=60 v=0
296880 On ch=8 n=56 v=48
296889 On ch=8 n=58 v=0
296999 On ch=8 n=56 v=0
297000 On ch=8 n=55 v=48
297060 On ch=8 n=58 v=48
297069 On ch=8 n=55 v=0
297119 On ch=8 n=58 v=0
297120 On ch=8 n=56 v=48
297149 On ch=8 n=56 v=0
297180 On ch=8 n=55 v=48
297209 On ch=8 n=55 v=0
297240 On ch=8 n=53 v=48
297269 On ch=8 n=53 v=0
297300 On ch=8 n=51 v=48
297329 On ch=8 n=51 v=0
297360 On ch=8 n=50 v=48
297389 On ch=8 n=50 v=0
297420 On ch=8 n=51 v=48
297449 On ch=8 n=51 v=0
297480 On ch=8 n=53 v=48
297509 On ch=8 n=53 v=0
297540 On ch=8 n=46 v=48
297569 On ch=8 n=46 v=0
297600 On ch=8 n=48 v=48
297629 On ch=8 n=48 v=0
297660 On ch=8 n=50 v=48
297689 On ch=8 n=50 v=0
297720 On ch=8 n=51 v=48
297749 On ch=8 n=51 v=0
297780 On ch=8 n=63 v=50
297809 On ch=8 n=63 v=0
297840 On ch=8 n=63 v=52
297869 On ch=8 n=63 v=0
297900 On ch=8 n=63 v=54
297929 On ch=8 n=63 v=0
297960 On ch=8 n=62 v=56
297989 On ch=8 n=62 v=0
298020 On ch=8 n=61 v=58
298049 On ch=8 n=61 v=0
298080 On ch=8 n=60 v=60
298109 On ch=8 n=60 v=0
298140 On ch=8 n=58 v=62
298169 On ch=8 n=58 v=0
298200 On ch=8 n=56 v=64
298229 On ch=8 n=56 v=0
298260 On ch=8 n=60 v=66
298289 On ch=8 n=60 v=0
298320 On ch=8 n=58 v=68
298349 On ch=8 n=58 v=0
298380 On ch=8 n=56 v=70
298409 On ch=8 n=56 v=0
298440 On ch=8 n=55 v=72
298469 On ch=8 n=55 v=0
298500 On ch=8 n=58 v=74
298529 On ch=8 n=58 v=0
298560 On ch=8 n=56 v=76
298589 On ch=8 n=56 v=0
298620 On ch=8 n=55 v=78
298649 On ch=8 n=55 v=0
298680 On ch=8 n=53 v=80
298709 On ch=8 n=53 v=0
298740 On ch=8 n=51 v=82
298769 On ch=8 n=51 v=0
298800 On ch=8 n=50 v=84
298829 On ch=8 n=50 v=0
298860 On ch=8 n=51 v=86
298889 On ch=8 n=51 v=0
298920 On ch=8 n=53 v=88
298949 On ch=8 n=53 v=0
298980 On ch=8 n=51 v=90
299009 On ch=8 n=51 v=0
299040 On ch=8 n=50 v=92
299069 On ch=8 n=50 v=0
299100 On ch=8 n=48 v=94
299129 On ch=8 n=48 v=0
299160 On ch=8 n=46 v=96
299279 On ch=8 n=46 v=0
299280 On ch=8 n=58 v=96
299639 On ch=8 n=58 v=0
299640 On ch=8 n=58 v=96
299999 On ch=8 n=58 v=0
300000 On ch=8 n=58 v=96
300239 On ch=8 n=58 v=0
300240 On ch=8 n=58 v=96
300479 On ch=8 n=58 v=0
300480 On ch=8 n=58 v=96
300539 On ch=8 n=58 v=0
300600 On ch=8 n=58 v=96
300659 On ch=8 n=58 v=0
300720 On ch=8 n=46 v=127
300779 On ch=8 n=46 v=0
300840 On ch=8 n=46 v=127
300899 On ch=8 n=46 v=0
300960 On ch=8 n=46 v=127
301019 On ch=8 n=46 v=0
301080 On ch=8 n=46 v=127
301139 On ch=8 n=46 v=0
301200 On ch=8 n=46 v=127
301259 On ch=8 n=46 v=0
301320 On ch=8 n=46 v=127
301379 On ch=8 n=46 v=0
301440 On ch=8 n=46 v=127
301499 On ch=8 n=46 v=0
301560 On ch=8 n=46 v=127
301619 On ch=8 n=46 v=0
301680 On ch=8 n=46 v=127
301739 On ch=8 n=46 v=0
301800 On ch=8 n=46 v=127
301859 On ch=8 n=46 v=0
301920 On ch=8 n=46 v=127
301979 On ch=8 n=46 v=0
302040 On ch=8 n=51 v=127
302159 On ch=8 n=51 v=0
302400 On ch=8 n=63 v=127
302519 On ch=8 n=63 v=0
302760 On ch=8 n=51 v=127
302879 On ch=8 n=51 v=0
0 PrCh ch=8 p=48
0 Par ch=8 c=7 v=127
0 Par ch=8 c=10 v=86
0 Par ch=8 c=93 v=0
0 Par ch=8 c=91 v=0
0 On ch=8 n=39 v=96
59 On ch=8 n=39 v=0
360 On ch=8 n=39 v=96
419 On ch=8 n=39 v=0
5040 On ch=8 n=39 v=32
5159 On ch=8 n=39 v=0
6360 On ch=8 n=36 v=48
6480 On ch=8 n=41 v=48
6489 On ch=8 n=36 v=0
6600 On ch=8 n=44 v=48
6609 On ch=8 n=41 v=0
6720 On ch=8 n=48 v=48
6729 On ch=8 n=44 v=0
6839 On ch=8 n=48 v=0
6840 On ch=8 n=41 v=48
6959 On ch=8 n=41 v=0
7680 On ch=8 n=36 v=48
7800 On ch=8 n=35 v=64
7809 On ch=8 n=36 v=0
7920 On ch=8 n=34 v=96
7929 On ch=8 n=35 v=0
7949 On ch=8 n=34 v=0
7950 On ch=8 n=34 v=48
8519 On ch=8 n=34 v=0
8520 On ch=8 n=34 v=48
8759 On ch=8 n=34 v=0
8760 On ch=8 n=34 v=96
8999 On ch=8 n=34 v=0
9000 On ch=8 n=34 v=96
9239 On ch=8 n=34 v=0
9240 On ch=8 n=34 v=96
9359 On ch=8 n=34 v=0
9360 On ch=8 n=34 v=96
9389 On ch=8 n=34 v=0
9390 On ch=8 n=34 v=48
9959 On ch=8 n=34 v=0
9960 On ch=8 n=34 v=96
10080 On ch=8 n=32 v=90
10089 On ch=8 n=34 v=0
10199 On ch=8 n=32 v=0
10200 On ch=8 n=44 v=96
10439 On ch=8 n=44 v=0
10440 On ch=8 n=44 v=96
10679 On ch=8 n=44 v=0
10680 On ch=8 n=44 v=96
10919 On ch=8 n=44 v=0
10920 On ch=8 n=43 v=96
11159 On ch=8 n=43 v=0
11160 On ch=8 n=43 v=96
11399 On ch=8 n=43 v=0
11400 On ch=8 n=43 v=96
11639 On ch=8 n=43 v=0
11640 On ch=8 n=44 v=90
11699 On ch=8 n=44 v=0
11760 On ch=8 n=44 v=96
11999 On ch=8 n=44 v=0
12000 On ch=8 n=43 v=96
12059 On ch=8 n=43 v=0
12120 On ch=8 n=43 v=96
12240 On ch=8 n=41 v=96
12249 On ch=8 n=43 v=0
12299 On ch=8 n=41 v=0
12300 On ch=8 n=41 v=99
12329 On ch=8 n=41 v=0
12360 On ch=8 n=41 v=102
12389 On ch=8 n=41 v=0
12420 On ch=8 n=41 v=105
12449 On ch=8 n=41 v=0
12480 On ch=8 n=41 v=107
12509 On ch=8 n=41 v=0
12540 On ch=8 n=41 v=110
12569 On ch=8 n=41 v=0
12600 On ch=8 n=34 v=112
12659 On ch=8 n=34 v=0
12660 On ch=8 n=46 v=115
12719 On ch=8 n=46 v=0
12720 On ch=8 n=46 v=117
12779 On ch=8 n=46 v=0
12780 On ch=8 n=46 v=120
12839 On ch=8 n=46 v=0
12840 On ch=8 n=46 v=123
12899 On ch=8 n=46 v=0
12900 On ch=8 n=46 v=125
12959 On ch=8 n=46 v=0
12960 On ch=8 n=39 v=127
13200 On ch=8 n=43 v=127
13209 On ch=8 n=39 v=0
13320 On ch=8 n=39 v=127
13329 On ch=8 n=43 v=0
13560 On ch=8 n=34 v=127
13569 On ch=8 n=39 v=0
13679 On ch=8 n=34 v=0
13680 On ch=8 n=39 v=127
13800 On ch=8 n=43 v=127
13809 On ch=8 n=39 v=0
13920 On ch=8 n=46 v=127
13929 On ch=8 n=43 v=0
14039 On ch=8 n=46 v=0
14040 On ch=8 n=39 v=127
14279 On ch=8 n=39 v=0
14280 On ch=8 n=31 v=127
14399 On ch=8 n=31 v=0
14400 On ch=8 n=36 v=127
14520 On ch=8 n=39 v=127
14529 On ch=8 n=36 v=0
14640 On ch=8 n=43 v=127
14649 On ch=8 n=39 v=0
14759 On ch=8 n=43 v=0
14760 On ch=8 n=36 v=127
14999 On ch=8 n=36 v=0
15000 On ch=8 n=27 v=127
15119 On ch=8 n=27 v=0
15120 On ch=8 n=32 v=127
15179 On ch=8 n=32 v=0
15180 On ch=8 n=44 v=127
15239 On ch=8 n=44 v=0
15240 On ch=8 n=44 v=127
15299 On ch=8 n=44 v=0
15300 On ch=8 n=44 v=127
15359 On ch=8 n=44 v=0
15360 On ch=8 n=44 v=127
15419 On ch=8 n=44 v=0
15420 On ch=8 n=44 v=127
15479 On ch=8 n=44 v=0
15480 On ch=8 n=42 v=127
15539 On ch=8 n=42 v=0
15540 On ch=8 n=42 v=127
15599 On ch=8 n=42 v=0
15600 On ch=8 n=42 v=127
15659 On ch=8 n=42 v=0
15660 On ch=8 n=42 v=127
15719 On ch=8 n=42 v=0
15720 On ch=8 n=42 v=127
15779 On ch=8 n=42 v=0
15780 On ch=8 n=42 v=127
15839 On ch=8 n=42 v=0
15840 On ch=8 n=41 v=127
15959 On ch=8 n=41 v=0
16560 On ch=8 n=29 v=48
16619 On ch=8 n=29 v=0
16680 On ch=8 n=33 v=48
16739 On ch=8 n=33 v=0
16800 On ch=8 n=36 v=48
16859 On ch=8 n=36 v=0
16920 On ch=8 n=41 v=48
16979 On ch=8 n=41 v=0
17040 On ch=8 n=45 v=48
17099 On ch=8 n=45 v=0
17160 On ch=8 n=48 v=48
17219 On ch=8 n=48 v=0
17280 On ch=8 n=41 v=48
17399 On ch=8 n=41 v=0
18000 On ch=8 n=29 v=48
18059 On ch=8 n=29 v=0
18120 On ch=8 n=34 v=48
18179 On ch=8 n=34 v=0
18240 On ch=8 n=38 v=48
18299 On ch=8 n=38 v=0
18360 On ch=8 n=41 v=48
18419 On ch=8 n=41 v=0
18480 On ch=8 n=50 v=48
18539 On ch=8 n=50 v=0
18600 On ch=8 n=46 v=48
18659 On ch=8 n=46 v=0
18720 On ch=8 n=41 v=48
18839 On ch=8 n=41 v=0
19560 On ch=8 n=43 v=127
19739 On ch=8 n=43 v=0
19740 On ch=8 n=41 v=127
19799 On ch=8 n=41 v=0
19800 On ch=8 n=39 v=127
19859 On ch=8 n=39 v=0
19920 On ch=8 n=38 v=127
19979 On ch=8 n=38 v=0
20040 On ch=8 n=36 v=127
20099 On ch=8 n=36 v=0
20160 On ch=8 n=34 v=48
20279 On ch=8 n=34 v=0
21600 On ch=8 n=34 v=56
22349 On ch=8 n=34 v=0
22380 On ch=8 n=41 v=74
22409 On ch=8 n=41 v=0
22440 On ch=8 n=39 v=76
22469 On ch=8 n=39 v=0
22500 On ch=8 n=38 v=78
22529 On ch=8 n=38 v=0
22560 On ch=8 n=36 v=80
22589 On ch=8 n=36 v=0
22620 On ch=8 n=34 v=82
22649 On ch=8 n=34 v=0
22680 On ch=8 n=33 v=84
22709 On ch=8 n=33 v=0
22740 On ch=8 n=34 v=86
22769 On ch=8 n=34 v=0
22800 On ch=8 n=36 v=88
22829 On ch=8 n=36 v=0
22860 On ch=8 n=34 v=90
22889 On ch=8 n=34 v=0
22920 On ch=8 n=33 v=92
22949 On ch=8 n=33 v=0
22980 On ch=8 n=31 v=94
23009 On ch=8 n=31 v=0
23040 On ch=8 n=30 v=96
23099 On ch=8 n=30 v=0
23160 On ch=8 n=42 v=96
23219 On ch=8 n=42 v=0
23700 On ch=8 n=30 v=96
23729 On ch=8 n=30 v=0
23760 On ch=8 n=31 v=96
23819 On ch=8 n=31 v=0
23880 On ch=8 n=43 v=96
23939 On ch=8 n=43 v=0
24420 On ch=8 n=43 v=96
24449 On ch=8 n=43 v=0
24480 On ch=8 n=41 v=96
24539 On ch=8 n=41 v=0
24600 On ch=8 n=53 v=96
24659 On ch=8 n=53 v=0
25020 On ch=8 n=41 v=96
25049 On ch=8 n=41 v=0
25080 On ch=8 n=41 v=96
25109 On ch=8 n=41 v=0
25140 On ch=8 n=41 v=96
25169 On ch=8 n=41 v=0
25200 On ch=8 n=39 v=96
25229 On ch=8 n=39 v=0
25260 On ch=8 n=39 v=96
25379 On ch=8 n=39 v=0
25380 On ch=8 n=40 v=96
25409 On ch=8 n=40 v=0
25440 On ch=8 n=41 v=96
25469 On ch=8 n=41 v=0
25500 On ch=8 n=42 v=96
25529 On ch=8 n=42 v=0
25560 On ch=8 n=43 v=96
25589 On ch=8 n=43 v=0
25620 On ch=8 n=43 v=96
25739 On ch=8 n=43 v=0
25740 On ch=8 n=43 v=96
25769 On ch=8 n=43 v=0
25800 On ch=8 n=44 v=96
25829 On ch=8 n=44 v=0
25860 On ch=8 n=45 v=96
25889 On ch=8 n=45 v=0
25920 On ch=8 n=46 v=96
25979 On ch=8 n=46 v=0
25980 On ch=8 n=46 v=96
26039 On ch=8 n=46 v=0
26040 On ch=8 n=44 v=96
26099 On ch=8 n=44 v=0
26100 On ch=8 n=44 v=96
26159 On ch=8 n=44 v=0
26160 On ch=8 n=43 v=96
26219 On ch=8 n=43 v=0
26220 On ch=8 n=43 v=96
26279 On ch=8 n=43 v=0
26280 On ch=8 n=42 v=96
26339 On ch=8 n=42 v=0
26340 On ch=8 n=42 v=96
26399 On ch=8 n=42 v=0
26400 On ch=8 n=41 v=96
26459 On ch=8 n=41 v=0
26460 On ch=8 n=41 v=96
26519 On ch=8 n=41 v=0
26520 On ch=8 n=38 v=96
26579 On ch=8 n=38 v=0
26580 On ch=8 n=38 v=96
26639 On ch=8 n=38 v=0
26640 On ch=8 n=39 v=96
26699 On ch=8 n=39 v=0
26700 On ch=8 n=39 v=96
26759 On ch=8 n=39 v=0
26760 On ch=8 n=39 v=96
26819 On ch=8 n=39 v=0
26820 On ch=8 n=39 v=96
26879 On ch=8 n=39 v=0
26880 On ch=8 n=39 v=96
26939 On ch=8 n=39 v=0
26940 On ch=8 n=39 v=96
26999 On ch=8 n=39 v=0
27000 On ch=8 n=39 v=96
27059 On ch=8 n=39 v=0
27060 On ch=8 n=39 v=96
27119 On ch=8 n=39 v=0
27120 On ch=8 n=39 v=96
27179 On ch=8 n=39 v=0
27180 On ch=8 n=39 v=96
27239 On ch=8 n=39 v=0
27240 On ch=8 n=39 v=96
27299 On ch=8 n=39 v=0
27300 On ch=8 n=39 v=96
27359 On ch=8 n=39 v=0
27360 On ch=8 n=41 v=96
27419 On ch=8 n=41 v=0
27420 On ch=8 n=41 v=96
27479 On ch=8 n=41 v=0
27480 On ch=8 n=41 v=96
27539 On ch=8 n=41 v=0
27540 On ch=8 n=41 v=96
27599 On ch=8 n=41 v=0
27600 On ch=8 n=41 v=96
27659 On ch=8 n=41 v=0
27660 On ch=8 n=41 v=96
27719 On ch=8 n=41 v=0
27720 On ch=8 n=41 v=96
27779 On ch=8 n=41 v=0
27780 On ch=8 n=41 v=96
27839 On ch=8 n=41 v=0
27840 On ch=8 n=41 v=96
27899 On ch=8 n=41 v=0
27900 On ch=8 n=41 v=96
27959 On ch=8 n=41 v=0
27960 On ch=8 n=41 v=96
28019 On ch=8 n=41 v=0
28020 On ch=8 n=41 v=96
28079 On ch=8 n=41 v=0
28080 On ch=8 n=29 v=96
28139 On ch=8 n=29 v=0
28140 On ch=8 n=41 v=96
28199 On ch=8 n=41 v=0
28200 On ch=8 n=41 v=96
28259 On ch=8 n=41 v=0
28260 On ch=8 n=41 v=96
28319 On ch=8 n=41 v=0
28320 On ch=8 n=41 v=96
28379 On ch=8 n=41 v=0
28380 On ch=8 n=41 v=96
28439 On ch=8 n=41 v=0
28440 On ch=8 n=41 v=96
28499 On ch=8 n=41 v=0
28500 On ch=8 n=41 v=96
28559 On ch=8 n=41 v=0
28560 On ch=8 n=41 v=96
28619 On ch=8 n=41 v=0
28620 On ch=8 n=41 v=96
28679 On ch=8 n=41 v=0
28680 On ch=8 n=41 v=96
28739 On ch=8 n=41 v=0
28740 On ch=8 n=41 v=96
28799 On ch=8 n=41 v=0
28800 On ch=8 n=41 v=127
28829 On ch=8 n=41 v=0
28860 On ch=8 n=52 v=127
28889 On ch=8 n=52 v=0
28920 On ch=8 n=51 v=127
28949 On ch=8 n=51 v=0
28980 On ch=8 n=50 v=127
29009 On ch=8 n=50 v=0
29040 On ch=8 n=48 v=127
29069 On ch=8 n=48 v=0
29100 On ch=8 n=46 v=127
29129 On ch=8 n=46 v=0
29160 On ch=8 n=45 v=127
29189 On ch=8 n=45 v=0
29220 On ch=8 n=43 v=127
29249 On ch=8 n=43 v=0
29280 On ch=8 n=41 v=127
29309 On ch=8 n=41 v=0
29340 On ch=8 n=39 v=127
29369 On ch=8 n=39 v=0
29400 On ch=8 n=38 v=127
29429 On ch=8 n=38 v=0
29460 On ch=8 n=36 v=127
29489 On ch=8 n=36 v=0
29520 On ch=8 n=34 v=127
29639 On ch=8 n=34 v=0
33960 On ch=8 n=41 v=48
34080 On ch=8 n=37 v=48
34089 On ch=8 n=41 v=0
34200 On ch=8 n=36 v=54
34209 On ch=8 n=37 v=0
34440 On ch=8 n=35 v=54
34449 On ch=8 n=36 v=0
34560 On ch=8 n=36 v=48
34569 On ch=8 n=35 v=0
34679 On ch=8 n=36 v=0
35400 On ch=8 n=41 v=32
35459 On ch=8 n=41 v=0
35520 On ch=8 n=41 v=32
35579 On ch=8 n=41 v=0
35760 On ch=8 n=41 v=32
35819 On ch=8 n=41 v=0
35880 On ch=8 n=41 v=32
35939 On ch=8 n=41 v=0
36120 On ch=8 n=41 v=32
36179 On ch=8 n=41 v=0
36240 On ch=8 n=41 v=32
36299 On ch=8 n=41 v=0
36360 On ch=8 n=41 v=32
36419 On ch=8 n=41 v=0
36480 On ch=8 n=41 v=32
36539 On ch=8 n=41 v=0
36600 On ch=8 n=41 v=32
36659 On ch=8 n=41 v=0
36720 On ch=8 n=41 v=32
36779 On ch=8 n=41 v=0
36780 On ch=8 n=41 v=32
36839 On ch=8 n=41 v=0
36840 On ch=8 n=41 v=32
36899 On ch=8 n=41 v=0
36900 On ch=8 n=41 v=32
36959 On ch=8 n=41 v=0
36960 On ch=8 n=41 v=32
37019 On ch=8 n=41 v=0
37020 On ch=8 n=41 v=32
37079 On ch=8 n=41 v=0
37080 On ch=8 n=41 v=32
37139 On ch=8 n=41 v=0
37140 On ch=8 n=41 v=32
37199 On ch=8 n=41 v=0
37200 On ch=8 n=41 v=32
37259 On ch=8 n=41 v=0
37260 On ch=8 n=41 v=32
37319 On ch=8 n=41 v=0
37320 On ch=8 n=41 v=32
37379 On ch=8 n=41 v=0
37380 On ch=8 n=41 v=32
37439 On ch=8 n=41 v=0
37440 On ch=8 n=41 v=34
37499 On ch=8 n=41 v=0
37500 On ch=8 n=41 v=37
37559 On ch=8 n=41 v=0
37560 On ch=8 n=41 v=40
37619 On ch=8 n=41 v=0
37620 On ch=8 n=41 v=43
37679 On ch=8 n=41 v=0
37680 On ch=8 n=41 v=46
37739 On ch=8 n=41 v=0
37740 On ch=8 n=41 v=48
37799 On ch=8 n=41 v=0
37800 On ch=8 n=41 v=50
37859 On ch=8 n=41 v=0
37860 On ch=8 n=41 v=53
37919 On ch=8 n=41 v=0
37920 On ch=8 n=41 v=56
37979 On ch=8 n=41 v=0
37980 On ch=8 n=41 v=59
38039 On ch=8 n=41 v=0
38040 On ch=8 n=41 v=62
38099 On ch=8 n=41 v=0
38100 On ch=8 n=41 v=64
38159 On ch=8 n=41 v=0
38160 On ch=8 n=41 v=66
38219 On ch=8 n=41 v=0
38220 On ch=8 n=41 v=69
38279 On ch=8 n=41 v=0
38280 On ch=8 n=41 v=72
38339 On ch=8 n=41 v=0
38340 On ch=8 n=41 v=75
38399 On ch=8 n=41 v=0
38400 On ch=8 n=41 v=78
38459 On ch=8 n=41 v=0
38460 On ch=8 n=41 v=80
38519 On ch=8 n=41 v=0
38520 On ch=8 n=41 v=82
38579 On ch=8 n=41 v=0
38580 On ch=8 n=41 v=85
38639 On ch=8 n=41 v=0
38640 On ch=8 n=41 v=88
38699 On ch=8 n=41 v=0
38700 On ch=8 n=39 v=91
38759 On ch=8 n=39 v=0
38760 On ch=8 n=38 v=93
38819 On ch=8 n=38 v=0
38820 On ch=8 n=36 v=95
38879 On ch=8 n=36 v=0
38880 On ch=8 n=34 v=96
38939 On ch=8 n=34 v=0
38940 On ch=8 n=29 v=96
38999 On ch=8 n=29 v=0
39000 On ch=8 n=34 v=96
39059 On ch=8 n=34 v=0
39060 On ch=8 n=29 v=96
39119 On ch=8 n=29 v=0
39120 On ch=8 n=34 v=96
39179 On ch=8 n=34 v=0
39180 On ch=8 n=29 v=96
39239 On ch=8 n=29 v=0
39240 On ch=8 n=34 v=96
39299 On ch=8 n=34 v=0
39300 On ch=8 n=29 v=96
39359 On ch=8 n=29 v=0
39360 On ch=8 n=34 v=112
39419 On ch=8 n=34 v=0
39420 On ch=8 n=29 v=96
39479 On ch=8 n=29 v=0
39480 On ch=8 n=34 v=96
39539 On ch=8 n=34 v=0
39540 On ch=8 n=29 v=96
39599 On ch=8 n=29 v=0
39600 On ch=8 n=33 v=96
39659 On ch=8 n=33 v=0
39660 On ch=8 n=29 v=96
39719 On ch=8 n=29 v=0
39720 On ch=8 n=33 v=112
39779 On ch=8 n=33 v=0
39780 On ch=8 n=29 v=96
39839 On ch=8 n=29 v=0
39840 On ch=8 n=33 v=96
39899 On ch=8 n=33 v=0
39900 On ch=8 n=29 v=96
39959 On ch=8 n=29 v=0
39960 On ch=8 n=36 v=96
40019 On ch=8 n=36 v=0
40020 On ch=8 n=29 v=96
40079 On ch=8 n=29 v=0
40080 On ch=8 n=39 v=112
40139 On ch=8 n=39 v=0
40140 On ch=8 n=29 v=96
40199 On ch=8 n=29 v=0
40200 On ch=8 n=33 v=96
40259 On ch=8 n=33 v=0
40260 On ch=8 n=29 v=96
40319 On ch=8 n=29 v=0
40320 On ch=8 n=34 v=127
40379 On ch=8 n=34 v=0
40380 On ch=8 n=29 v=127
40439 On ch=8 n=29 v=0
40440 On ch=8 n=34 v=127
40499 On ch=8 n=34 v=0
40500 On ch=8 n=29 v=127
40559 On ch=8 n=29 v=0
40560 On ch=8 n=34 v=127
40619 On ch=8 n=34 v=0
40620 On ch=8 n=29 v=127
40679 On ch=8 n=29 v=0
40680 On ch=8 n=34 v=127
40739 On ch=8 n=34 v=0
40740 On ch=8 n=29 v=127
40799 On ch=8 n=29 v=0
40800 On ch=8 n=34 v=127
40859 On ch=8 n=34 v=0
40860 On ch=8 n=29 v=127
40919 On ch=8 n=29 v=0
40920 On ch=8 n=34 v=127
40979 On ch=8 n=34 v=0
40980 On ch=8 n=29 v=127
41039 On ch=8 n=29 v=0
41040 On ch=8 n=33 v=127
41099 On ch=8 n=33 v=0
41100 On ch=8 n=29 v=127
41159 On ch=8 n=29 v=0
41160 On ch=8 n=33 v=127
41219 On ch=8 n=33 v=0
41220 On ch=8 n=29 v=127
41279 On ch=8 n=29 v=0
41280 On ch=8 n=33 v=127
41339 On ch=8 n=33 v=0
41340 On ch=8 n=29 v=127
41399 On ch=8 n=29 v=0
41400 On ch=8 n=36 v=127
41459 On ch=8 n=36 v=0
41460 On ch=8 n=29 v=127
41519 On ch=8 n=29 v=0
41520 On ch=8 n=39 v=127
41579 On ch=8 n=39 v=0
41580 On ch=8 n=41 v=127
41639 On ch=8 n=41 v=0
41640 On ch=8 n=39 v=127
41699 On ch=8 n=39 v=0
41700 On ch=8 n=41 v=127
41759 On ch=8 n=41 v=0
41760 On ch=8 n=38 v=127
42060 On ch=8 n=37 v=127
42069 On ch=8 n=38 v=0
42119 On ch=8 n=37 v=0
42120 On ch=8 n=38 v=127
42149 On ch=8 n=38 v=0
42180 On ch=8 n=33 v=127
42209 On ch=8 n=33 v=0
42240 On ch=8 n=34 v=127
42269 On ch=8 n=34 v=0
42300 On ch=8 n=36 v=127
42329 On ch=8 n=36 v=0
42360 On ch=8 n=37 v=127
42389 On ch=8 n=37 v=0
42420 On ch=8 n=38 v=127
42449 On ch=8 n=38 v=0
42480 On ch=8 n=39 v=127
42509 On ch=8 n=39 v=0
42540 On ch=8 n=38 v=127
42569 On ch=8 n=38 v=0
42600 On ch=8 n=36 v=127
42629 On ch=8 n=36 v=0
42660 On ch=8 n=40 v=127
42689 On ch=8 n=40 v=0
42720 On ch=8 n=41 v=127
42749 On ch=8 n=41 v=0
42780 On ch=8 n=39 v=127
42809 On ch=8 n=39 v=0
42840 On ch=8 n=38 v=127
42869 On ch=8 n=38 v=0
42900 On ch=8 n=42 v=127
42929 On ch=8 n=42 v=0
42960 On ch=8 n=43 v=127
42989 On ch=8 n=43 v=0
43020 On ch=8 n=41 v=127
43049 On ch=8 n=41 v=0
43080 On ch=8 n=39 v=127
43109 On ch=8 n=39 v=0
43140 On ch=8 n=43 v=127
43169 On ch=8 n=43 v=0
43200 On ch=8 n=45 v=127
43229 On ch=8 n=45 v=0
43260 On ch=8 n=43 v=127
43289 On ch=8 n=43 v=0
43320 On ch=8 n=41 v=127
43349 On ch=8 n=41 v=0
43380 On ch=8 n=45 v=127
43409 On ch=8 n=45 v=0
43440 On ch=8 n=46 v=127
43469 On ch=8 n=46 v=0
43500 On ch=8 n=45 v=127
43529 On ch=8 n=45 v=0
43560 On ch=8 n=43 v=127
43589 On ch=8 n=43 v=0
43620 On ch=8 n=42 v=127
43649 On ch=8 n=42 v=0
43680 On ch=8 n=43 v=127
43709 On ch=8 n=43 v=0
43740 On ch=8 n=41 v=127
43769 On ch=8 n=41 v=0
43800 On ch=8 n=40 v=127
43829 On ch=8 n=40 v=0
43860 On ch=8 n=39 v=127
43889 On ch=8 n=39 v=0
43920 On ch=8 n=38 v=127
43979 On ch=8 n=38 v=0
44040 On ch=8 n=42 v=127
44099 On ch=8 n=42 v=0
44160 On ch=8 n=43 v=127
44219 On ch=8 n=43 v=0
44400 On ch=8 n=38 v=127
44459 On ch=8 n=38 v=0
44520 On ch=8 n=39 v=127
44579 On ch=8 n=39 v=0
44760 On ch=8 n=40 v=127
44819 On ch=8 n=40 v=0
44880 On ch=8 n=41 v=127
44939 On ch=8 n=41 v=0
45120 On ch=8 n=42 v=127
45179 On ch=8 n=42 v=0
45240 On ch=8 n=43 v=127
45299 On ch=8 n=43 v=0
45480 On ch=8 n=38 v=127
45539 On ch=8 n=38 v=0
45600 On ch=8 n=39 v=127
45659 On ch=8 n=39 v=0
45840 On ch=8 n=40 v=127
45899 On ch=8 n=40 v=0
46080 On ch=8 n=40 v=127
46139 On ch=8 n=40 v=0
46320 On ch=8 n=40 v=127
46379 On ch=8 n=40 v=0
46560 On ch=8 n=40 v=127
46619 On ch=8 n=40 v=0
46800 On ch=8 n=40 v=127
46859 On ch=8 n=40 v=0
47040 On ch=8 n=40 v=127
47099 On ch=8 n=40 v=0
48600 On ch=8 n=31 v=48
48719 On ch=8 n=31 v=0
48960 On ch=8 n=32 v=48
49079 On ch=8 n=32 v=0
49320 On ch=8 n=33 v=48
49439 On ch=8 n=33 v=0
49680 On ch=8 n=34 v=48
49799 On ch=8 n=34 v=0
50040 On ch=8 n=39 v=48
50099 On ch=8 n=39 v=0
50100 On ch=8 n=39 v=52
50159 On ch=8 n=39 v=0
50160 On ch=8 n=39 v=57
50219 On ch=8 n=39 v=0
50220 On ch=8 n=39 v=61
50279 On ch=8 n=39 v=0
50280 On ch=8 n=39 v=66
50339 On ch=8 n=39 v=0
50340 On ch=8 n=39 v=70
50399 On ch=8 n=39 v=0
50400 On ch=8 n=36 v=75
50459 On ch=8 n=36 v=0
50460 On ch=8 n=36 v=79
50519 On ch=8 n=36 v=0
50520 On ch=8 n=36 v=84
50579 On ch=8 n=36 v=0
50580 On ch=8 n=36 v=88
50640 On ch=8 n=38 v=89
50649 On ch=8 n=36 v=0
50700 On ch=8 n=39 v=93
50709 On ch=8 n=38 v=0
50759 On ch=8 n=39 v=0
50760 On ch=8 n=41 v=98
50819 On ch=8 n=41 v=0
50820 On ch=8 n=41 v=102
50879 On ch=8 n=41 v=0
50880 On ch=8 n=41 v=113
50939 On ch=8 n=41 v=0
50940 On ch=8 n=41 v=117
50999 On ch=8 n=41 v=0
51000 On ch=8 n=38 v=123
51059 On ch=8 n=38 v=0
51060 On ch=8 n=34 v=125
51119 On ch=8 n=34 v=0
51120 On ch=8 n=29 v=127
51179 On ch=8 n=29 v=0
51180 On ch=8 n=41 v=127
51239 On ch=8 n=41 v=0
51240 On ch=8 n=41 v=127
51299 On ch=8 n=41 v=0
51300 On ch=8 n=41 v=127
51359 On ch=8 n=41 v=0
51360 On ch=8 n=41 v=127
51419 On ch=8 n=41 v=0
51420 On ch=8 n=41 v=127
51479 On ch=8 n=41 v=0
51480 On ch=8 n=46 v=96
51539 On ch=8 n=46 v=0
51840 On ch=8 n=34 v=96
51899 On ch=8 n=34 v=0
52200 On ch=8 n=34 v=96
52259 On ch=8 n=34 v=0
52560 On ch=8 n=34 v=96
52619 On ch=8 n=34 v=0
52680 On ch=8 n=34 v=96
52739 On ch=8 n=34 v=0
52800 On ch=8 n=34 v=96
52859 On ch=8 n=34 v=0
52920 On ch=8 n=34 v=96
52949 On ch=8 n=34 v=0
52950 On ch=8 n=34 v=48
54600 On ch=8 n=35 v=32
54609 On ch=8 n=34 v=0
54720 On ch=8 n=33 v=32
54729 On ch=8 n=35 v=0
54960 On ch=8 n=34 v=96
54969 On ch=8 n=33 v=0
54989 On ch=8 n=34 v=0
54990 On ch=8 n=34 v=48
55079 On ch=8 n=34 v=0
55080 On ch=8 n=39 v=48
55199 On ch=8 n=39 v=0
59400 On ch=8 n=39 v=32
59519 On ch=8 n=39 v=0
60720 On ch=8 n=36 v=48
60840 On ch=8 n=41 v=48
60849 On ch=8 n=36 v=0
60960 On ch=8 n=44 v=48
60969 On ch=8 n=41 v=0
61080 On ch=8 n=48 v=48
61089 On ch=8 n=44 v=0
61199 On ch=8 n=48 v=0
61200 On ch=8 n=41 v=48
61319 On ch=8 n=41 v=0
62040 On ch=8 n=36 v=48
62160 On ch=8 n=35 v=64
62169 On ch=8 n=36 v=0
62280 On ch=8 n=34 v=96
62289 On ch=8 n=35 v=0
62309 On ch=8 n=34 v=0
62310 On ch=8 n=34 v=48
62879 On ch=8 n=34 v=0
62880 On ch=8 n=34 v=48
63119 On ch=8 n=34 v=0
63120 On ch=8 n=34 v=96
63359 On ch=8 n=34 v=0
63360 On ch=8 n=34 v=96
63599 On ch=8 n=34 v=0
63600 On ch=8 n=34 v=96
63719 On ch=8 n=34 v=0
63720 On ch=8 n=34 v=96
63749 On ch=8 n=34 v=0
63750 On ch=8 n=34 v=48
64319 On ch=8 n=34 v=0
64320 On ch=8 n=34 v=96
64440 On ch=8 n=32 v=90
64449 On ch=8 n=34 v=0
64559 On ch=8 n=32 v=0
64560 On ch=8 n=44 v=96
64799 On ch=8 n=44 v=0
64800 On ch=8 n=44 v=96
65039 On ch=8 n=44 v=0
65040 On ch=8 n=44 v=96
65279 On ch=8 n=44 v=0
65280 On ch=8 n=43 v=96
65519 On ch=8 n=43 v=0
65520 On ch=8 n=43 v=96
65759 On ch=8 n=43 v=0
65760 On ch=8 n=43 v=96
65999 On ch=8 n=43 v=0
66000 On ch=8 n=44 v=90
66059 On ch=8 n=44 v=0
66120 On ch=8 n=44 v=96
66359 On ch=8 n=44 v=0
66360 On ch=8 n=43 v=96
66419 On ch=8 n=43 v=0
66480 On ch=8 n=43 v=96
66600 On ch=8 n=41 v=96
66609 On ch=8 n=43 v=0
66659 On ch=8 n=41 v=0
66660 On ch=8 n=41 v=99
66689 On ch=8 n=41 v=0
66720 On ch=8 n=41 v=102
66749 On ch=8 n=41 v=0
66780 On ch=8 n=41 v=105
66809 On ch=8 n=41 v=0
66840 On ch=8 n=41 v=107
66869 On ch=8 n=41 v=0
66900 On ch=8 n=41 v=110
66929 On ch=8 n=41 v=0
66960 On ch=8 n=34 v=112
67019 On ch=8 n=34 v=0
67020 On ch=8 n=46 v=115
67079 On ch=8 n=46 v=0
67080 On ch=8 n=46 v=117
67139 On ch=8 n=46 v=0
67140 On ch=8 n=46 v=120
67199 On ch=8 n=46 v=0
67200 On ch=8 n=46 v=123
67259 On ch=8 n=46 v=0
67260 On ch=8 n=46 v=125
67319 On ch=8 n=46 v=0
67320 On ch=8 n=39 v=127
67560 On ch=8 n=43 v=127
67569 On ch=8 n=39 v=0
67680 On ch=8 n=39 v=127
67689 On ch=8 n=43 v=0
67920 On ch=8 n=34 v=127
67929 On ch=8 n=39 v=0
68039 On ch=8 n=34 v=0
68040 On ch=8 n=39 v=127
68160 On ch=8 n=43 v=127
68169 On ch=8 n=39 v=0
68280 On ch=8 n=46 v=127
68289 On ch=8 n=43 v=0
68399 On ch=8 n=46 v=0
68400 On ch=8 n=39 v=127
68639 On ch=8 n=39 v=0
68640 On ch=8 n=31 v=127
68759 On ch=8 n=31 v=0
68760 On ch=8 n=36 v=127
68880 On ch=8 n=39 v=127
68889 On ch=8 n=36 v=0
69000 On ch=8 n=43 v=127
69009 On ch=8 n=39 v=0
69119 On ch=8 n=43 v=0
69120 On ch=8 n=36 v=127
69359 On ch=8 n=36 v=0
69360 On ch=8 n=27 v=127
69479 On ch=8 n=27 v=0
69480 On ch=8 n=32 v=127
69539 On ch=8 n=32 v=0
69540 On ch=8 n=44 v=127
69599 On ch=8 n=44 v=0
69600 On ch=8 n=44 v=127
69659 On ch=8 n=44 v=0
69660 On ch=8 n=44 v=127
69719 On ch=8 n=44 v=0
69720 On ch=8 n=44 v=127
69779 On ch=8 n=44 v=0
69780 On ch=8 n=44 v=127
69839 On ch=8 n=44 v=0
69840 On ch=8 n=42 v=127
69899 On ch=8 n=42 v=0
69900 On ch=8 n=42 v=127
69959 On ch=8 n=42 v=0
69960 On ch=8 n=42 v=127
70019 On ch=8 n=42 v=0
70020 On ch=8 n=42 v=127
70079 On ch=8 n=42 v=0
70080 On ch=8 n=42 v=127
70139 On ch=8 n=42 v=0
70140 On ch=8 n=42 v=127
70199 On ch=8 n=42 v=0
70200 On ch=8 n=41 v=127
70319 On ch=8 n=41 v=0
70920 On ch=8 n=29 v=48
70979 On ch=8 n=29 v=0
71040 On ch=8 n=33 v=48
71099 On ch=8 n=33 v=0
71160 On ch=8 n=36 v=48
71219 On ch=8 n=36 v=0
71280 On ch=8 n=41 v=48
71339 On ch=8 n=41 v=0
71400 On ch=8 n=45 v=48
71459 On ch=8 n=45 v=0
71520 On ch=8 n=48 v=48
71579 On ch=8 n=48 v=0
71640 On ch=8 n=41 v=48
71759 On ch=8 n=41 v=0
72360 On ch=8 n=29 v=48
72419 On ch=8 n=29 v=0
72480 On ch=8 n=34 v=48
72539 On ch=8 n=34 v=0
72600 On ch=8 n=38 v=48
72659 On ch=8 n=38 v=0
72720 On ch=8 n=41 v=48
72779 On ch=8 n=41 v=0
72840 On ch=8 n=50 v=48
72899 On ch=8 n=50 v=0
72960 On ch=8 n=46 v=48
73019 On ch=8 n=46 v=0
73080 On ch=8 n=41 v=48
73199 On ch=8 n=41 v=0
73920 On ch=8 n=43 v=127
74099 On ch=8 n=43 v=0
74100 On ch=8 n=41 v=127
74159 On ch=8 n=41 v=0
74160 On ch=8 n=39 v=127
74219 On ch=8 n=39 v=0
74280 On ch=8 n=38 v=127
74339 On ch=8 n=38 v=0
74400 On ch=8 n=36 v=127
74459 On ch=8 n=36 v=0
74520 On ch=8 n=34 v=48
74639 On ch=8 n=34 v=0
75960 On ch=8 n=34 v=56
76709 On ch=8 n=34 v=0
76740 On ch=8 n=41 v=74
76769 On ch=8 n=41 v=0
76800 On ch=8 n=39 v=76
76829 On ch=8 n=39 v=0
76860 On ch=8 n=38 v=78
76889 On ch=8 n=38 v=0
76920 On ch=8 n=36 v=80
76949 On ch=8 n=36 v=0
76980 On ch=8 n=34 v=82
77009 On ch=8 n=34 v=0
77040 On ch=8 n=33 v=84
77069 On ch=8 n=33 v=0
77100 On ch=8 n=34 v=86
77129 On ch=8 n=34 v=0
77160 On ch=8 n=36 v=88
77189 On ch=8 n=36 v=0
77220 On ch=8 n=34 v=90
77249 On ch=8 n=34 v=0
77280 On ch=8 n=33 v=92
77309 On ch=8 n=33 v=0
77340 On ch=8 n=31 v=94
77369 On ch=8 n=31 v=0
77400 On ch=8 n=30 v=96
77459 On ch=8 n=30 v=0
77520 On ch=8 n=42 v=96
77579 On ch=8 n=42 v=0
78060 On ch=8 n=30 v=96
78089 On ch=8 n=30 v=0
78120 On ch=8 n=31 v=96
78179 On ch=8 n=31 v=0
78240 On ch=8 n=43 v=96
78299 On ch=8 n=43 v=0
78780 On ch=8 n=43 v=96
78809 On ch=8 n=43 v=0
78840 On ch=8 n=41 v=96
78899 On ch=8 n=41 v=0
78960 On ch=8 n=53 v=96
79019 On ch=8 n=53 v=0
79380 On ch=8 n=41 v=96
79409 On ch=8 n=41 v=0
79440 On ch=8 n=41 v=96
79469 On ch=8 n=41 v=0
79500 On ch=8 n=41 v=96
79529 On ch=8 n=41 v=0
79560 On ch=8 n=39 v=96
79589 On ch=8 n=39 v=0
79620 On ch=8 n=39 v=96
79739 On ch=8 n=39 v=0
79740 On ch=8 n=40 v=96
79769 On ch=8 n=40 v=0
79800 On ch=8 n=41 v=96
79829 On ch=8 n=41 v=0
79860 On ch=8 n=42 v=96
79889 On ch=8 n=42 v=0
79920 On ch=8 n=43 v=96
79949 On ch=8 n=43 v=0
79980 On ch=8 n=43 v=96
80099 On ch=8 n=43 v=0
80100 On ch=8 n=43 v=96
80129 On ch=8 n=43 v=0
80160 On ch=8 n=44 v=96
80189 On ch=8 n=44 v=0
80220 On ch=8 n=45 v=96
80249 On ch=8 n=45 v=0
80280 On ch=8 n=46 v=96
80339 On ch=8 n=46 v=0
80340 On ch=8 n=46 v=96
80399 On ch=8 n=46 v=0
80400 On ch=8 n=44 v=96
80459 On ch=8 n=44 v=0
80460 On ch=8 n=44 v=96
80519 On ch=8 n=44 v=0
80520 On ch=8 n=43 v=96
80579 On ch=8 n=43 v=0
80580 On ch=8 n=43 v=96
80639 On ch=8 n=43 v=0
80640 On ch=8 n=42 v=96
80699 On ch=8 n=42 v=0
80700 On ch=8 n=42 v=96
80759 On ch=8 n=42 v=0
80760 On ch=8 n=41 v=96
80819 On ch=8 n=41 v=0
80820 On ch=8 n=41 v=96
80879 On ch=8 n=41 v=0
80880 On ch=8 n=38 v=96
80939 On ch=8 n=38 v=0
80940 On ch=8 n=38 v=96
80999 On ch=8 n=38 v=0
81000 On ch=8 n=39 v=96
81059 On ch=8 n=39 v=0
81060 On ch=8 n=39 v=96
81119 On ch=8 n=39 v=0
81120 On ch=8 n=39 v=96
81179 On ch=8 n=39 v=0
81180 On ch=8 n=39 v=96
81239 On ch=8 n=39 v=0
81240 On ch=8 n=39 v=96
81299 On ch=8 n=39 v=0
81300 On ch=8 n=39 v=96
81359 On ch=8 n=39 v=0
81360 On ch=8 n=39 v=96
81419 On ch=8 n=39 v=0
81420 On ch=8 n=39 v=96
81479 On ch=8 n=39 v=0
81480 On ch=8 n=39 v=96
81539 On ch=8 n=39 v=0
81540 On ch=8 n=39 v=96
81599 On ch=8 n=39 v=0
81600 On ch=8 n=39 v=96
81659 On ch=8 n=39 v=0
81660 On ch=8 n=39 v=96
81719 On ch=8 n=39 v=0
81720 On ch=8 n=41 v=96
81779 On ch=8 n=41 v=0
81780 On ch=8 n=41 v=96
81839 On ch=8 n=41 v=0
81840 On ch=8 n=41 v=96
81899 On ch=8 n=41 v=0
81900 On ch=8 n=41 v=96
81959 On ch=8 n=41 v=0
81960 On ch=8 n=41 v=96
82019 On ch=8 n=41 v=0
82020 On ch=8 n=41 v=96
82079 On ch=8 n=41 v=0
82080 On ch=8 n=41 v=96
82139 On ch=8 n=41 v=0
82140 On ch=8 n=41 v=96
82199 On ch=8 n=41 v=0
82200 On ch=8 n=41 v=96
82259 On ch=8 n=41 v=0
82260 On ch=8 n=41 v=96
82319 On ch=8 n=41 v=0
82320 On ch=8 n=41 v=96
82379 On ch=8 n=41 v=0
82380 On ch=8 n=41 v=96
82439 On ch=8 n=41 v=0
82440 On ch=8 n=29 v=96
82499 On ch=8 n=29 v=0
82500 On ch=8 n=41 v=96
82559 On ch=8 n=41 v=0
82560 On ch=8 n=41 v=96
82619 On ch=8 n=41 v=0
82620 On ch=8 n=41 v=96
82679 On ch=8 n=41 v=0
82680 On ch=8 n=41 v=96
82739 On ch=8 n=41 v=0
82740 On ch=8 n=41 v=96
82799 On ch=8 n=41 v=0
82800 On ch=8 n=41 v=96
82859 On ch=8 n=41 v=0
82860 On ch=8 n=41 v=96
82919 On ch=8 n=41 v=0
82920 On ch=8 n=41 v=96
82979 On ch=8 n=41 v=0
82980 On ch=8 n=41 v=96
83039 On ch=8 n=41 v=0
83040 On ch=8 n=41 v=96
83099 On ch=8 n=41 v=0
83100 On ch=8 n=41 v=96
83159 On ch=8 n=41 v=0
83160 On ch=8 n=41 v=127
83189 On ch=8 n=41 v=0
83220 On ch=8 n=52 v=127
83249 On ch=8 n=52 v=0
83280 On ch=8 n=51 v=127
83309 On ch=8 n=51 v=0
83340 On ch=8 n=50 v=127
83369 On ch=8 n=50 v=0
83400 On ch=8 n=48 v=127
83429 On ch=8 n=48 v=0
83460 On ch=8 n=46 v=127
83489 On ch=8 n=46 v=0
83520 On ch=8 n=45 v=127
83549 On ch=8 n=45 v=0
83580 On ch=8 n=43 v=127
83609 On ch=8 n=43 v=0
83640 On ch=8 n=41 v=127
83669 On ch=8 n=41 v=0
83700 On ch=8 n=39 v=127
83729 On ch=8 n=39 v=0
83760 On ch=8 n=38 v=127
83789 On ch=8 n=38 v=0
83820 On ch=8 n=36 v=127
83849 On ch=8 n=36 v=0
83880 On ch=8 n=34 v=127
83999 On ch=8 n=34 v=0
88320 On ch=8 n=41 v=48
88440 On ch=8 n=37 v=48
88449 On ch=8 n=41 v=0
88560 On ch=8 n=36 v=54
88569 On ch=8 n=37 v=0
88800 On ch=8 n=35 v=54
88809 On ch=8 n=36 v=0
88920 On ch=8 n=36 v=48
88929 On ch=8 n=35 v=0
89039 On ch=8 n=36 v=0
89760 On ch=8 n=41 v=32
89819 On ch=8 n=41 v=0
89880 On ch=8 n=41 v=32
89939 On ch=8 n=41 v=0
90120 On ch=8 n=41 v=32
90179 On ch=8 n=41 v=0
90240 On ch=8 n=41 v=32
90299 On ch=8 n=41 v=0
90480 On ch=8 n=41 v=32
90539 On ch=8 n=41 v=0
90600 On ch=8 n=41 v=32
90659 On ch=8 n=41 v=0
90720 On ch=8 n=41 v=32
90779 On ch=8 n=41 v=0
90840 On ch=8 n=41 v=32
90899 On ch=8 n=41 v=0
90960 On ch=8 n=41 v=32
91019 On ch=8 n=41 v=0
91080 On ch=8 n=41 v=32
91139 On ch=8 n=41 v=0
91140 On ch=8 n=41 v=32
91199 On ch=8 n=41 v=0
91200 On ch=8 n=41 v=32
91259 On ch=8 n=41 v=0
91260 On ch=8 n=41 v=32
91319 On ch=8 n=41 v=0
91320 On ch=8 n=41 v=32
91379 On ch=8 n=41 v=0
91380 On ch=8 n=41 v=32
91439 On ch=8 n=41 v=0
91440 On ch=8 n=41 v=32
91499 On ch=8 n=41 v=0
91500 On ch=8 n=41 v=32
91559 On ch=8 n=41 v=0
91560 On ch=8 n=41 v=32
91619 On ch=8 n=41 v=0
91620 On ch=8 n=41 v=32
91679 On ch=8 n=41 v=0
91680 On ch=8 n=41 v=32
91739 On ch=8 n=41 v=0
91740 On ch=8 n=41 v=32
91799 On ch=8 n=41 v=0
91800 On ch=8 n=41 v=34
91859 On ch=8 n=41 v=0
91860 On ch=8 n=41 v=37
91919 On ch=8 n=41 v=0
91920 On ch=8 n=41 v=40
91979 On ch=8 n=41 v=0
91980 On ch=8 n=41 v=43
92039 On ch=8 n=41 v=0
92040 On ch=8 n=41 v=46
92099 On ch=8 n=41 v=0
92100 On ch=8 n=41 v=48
92159 On ch=8 n=41 v=0
92160 On ch=8 n=41 v=50
92219 On ch=8 n=41 v=0
92220 On ch=8 n=41 v=53
92279 On ch=8 n=41 v=0
92280 On ch=8 n=41 v=56
92339 On ch=8 n=41 v=0
92340 On ch=8 n=41 v=59
92399 On ch=8 n=41 v=0
92400 On ch=8 n=41 v=62
92459 On ch=8 n=41 v=0
92460 On ch=8 n=41 v=64
92519 On ch=8 n=41 v=0
92520 On ch=8 n=41 v=66
92579 On ch=8 n=41 v=0
92580 On ch=8 n=41 v=69
92639 On ch=8 n=41 v=0
92640 On ch=8 n=41 v=72
92699 On ch=8 n=41 v=0
92700 On ch=8 n=41 v=75
92759 On ch=8 n=41 v=0
92760 On ch=8 n=41 v=78
92819 On ch=8 n=41 v=0
92820 On ch=8 n=41 v=80
92879 On ch=8 n=41 v=0
92880 On ch=8 n=41 v=82
92939 On ch=8 n=41 v=0
92940 On ch=8 n=41 v=85
92999 On ch=8 n=41 v=0
93000 On ch=8 n=41 v=88
93059 On ch=8 n=41 v=0
93060 On ch=8 n=39 v=91
93119 On ch=8 n=39 v=0
93120 On ch=8 n=38 v=93
93179 On ch=8 n=38 v=0
93180 On ch=8 n=36 v=95
93239 On ch=8 n=36 v=0
93240 On ch=8 n=34 v=96
93299 On ch=8 n=34 v=0
93300 On ch=8 n=29 v=96
93359 On ch=8 n=29 v=0
93360 On ch=8 n=34 v=96
93419 On ch=8 n=34 v=0
93420 On ch=8 n=29 v=96
93479 On ch=8 n=29 v=0
93480 On ch=8 n=34 v=96
93539 On ch=8 n=34 v=0
93540 On ch=8 n=29 v=96
93599 On ch=8 n=29 v=0
93600 On ch=8 n=34 v=96
93659 On ch=8 n=34 v=0
93660 On ch=8 n=29 v=96
93719 On ch=8 n=29 v=0
93720 On ch=8 n=34 v=112
93779 On ch=8 n=34 v=0
93780 On ch=8 n=29 v=96
93839 On ch=8 n=29 v=0
93840 On ch=8 n=34 v=96
93899 On ch=8 n=34 v=0
93900 On ch=8 n=29 v=96
93959 On ch=8 n=29 v=0
93960 On ch=8 n=33 v=96
94019 On ch=8 n=33 v=0
94020 On ch=8 n=29 v=96
94079 On ch=8 n=29 v=0
94080 On ch=8 n=33 v=112
94139 On ch=8 n=33 v=0
94140 On ch=8 n=29 v=96
94199 On ch=8 n=29 v=0
94200 On ch=8 n=33 v=96
94259 On ch=8 n=33 v=0
94260 On ch=8 n=29 v=96
94319 On ch=8 n=29 v=0
94320 On ch=8 n=36 v=96
94379 On ch=8 n=36 v=0
94380 On ch=8 n=29 v=96
94439 On ch=8 n=29 v=0
94440 On ch=8 n=39 v=112
94499 On ch=8 n=39 v=0
94500 On ch=8 n=29 v=96
94559 On ch=8 n=29 v=0
94560 On ch=8 n=33 v=96
94619 On ch=8 n=33 v=0
94620 On ch=8 n=29 v=96
94679 On ch=8 n=29 v=0
94680 On ch=8 n=34 v=127
94739 On ch=8 n=34 v=0
94740 On ch=8 n=29 v=127
94799 On ch=8 n=29 v=0
94800 On ch=8 n=34 v=127
94859 On ch=8 n=34 v=0
94860 On ch=8 n=29 v=127
94919 On ch=8 n=29 v=0
94920 On ch=8 n=34 v=127
94979 On ch=8 n=34 v=0
94980 On ch=8 n=29 v=127
95039 On ch=8 n=29 v=0
95040 On ch=8 n=34 v=127
95099 On ch=8 n=34 v=0
95100 On ch=8 n=29 v=127
95159 On ch=8 n=29 v=0
95160 On ch=8 n=34 v=127
95219 On ch=8 n=34 v=0
95220 On ch=8 n=29 v=127
95279 On ch=8 n=29 v=0
95280 On ch=8 n=34 v=127
95339 On ch=8 n=34 v=0
95340 On ch=8 n=29 v=127
95399 On ch=8 n=29 v=0
95400 On ch=8 n=33 v=127
95459 On ch=8 n=33 v=0
95460 On ch=8 n=29 v=127
95519 On ch=8 n=29 v=0
95520 On ch=8 n=33 v=127
95579 On ch=8 n=33 v=0
95580 On ch=8 n=29 v=127
95639 On ch=8 n=29 v=0
95640 On ch=8 n=33 v=127
95699 On ch=8 n=33 v=0
95700 On ch=8 n=29 v=127
95759 On ch=8 n=29 v=0
95760 On ch=8 n=36 v=127
95819 On ch=8 n=36 v=0
95820 On ch=8 n=29 v=127
95879 On ch=8 n=29 v=0
95880 On ch=8 n=39 v=127
95939 On ch=8 n=39 v=0
95940 On ch=8 n=41 v=127
95999 On ch=8 n=41 v=0
96000 On ch=8 n=39 v=127
96059 On ch=8 n=39 v=0
96060 On ch=8 n=41 v=127
96119 On ch=8 n=41 v=0
96120 On ch=8 n=38 v=127
96420 On ch=8 n=37 v=127
96429 On ch=8 n=38 v=0
96479 On ch=8 n=37 v=0
96480 On ch=8 n=38 v=127
96509 On ch=8 n=38 v=0
96540 On ch=8 n=33 v=127
96569 On ch=8 n=33 v=0
96600 On ch=8 n=34 v=127
96629 On ch=8 n=34 v=0
96660 On ch=8 n=36 v=127
96689 On ch=8 n=36 v=0
96720 On ch=8 n=37 v=127
96749 On ch=8 n=37 v=0
96780 On ch=8 n=38 v=127
96809 On ch=8 n=38 v=0
96840 On ch=8 n=39 v=127
96869 On ch=8 n=39 v=0
96900 On ch=8 n=38 v=127
96929 On ch=8 n=38 v=0
96960 On ch=8 n=36 v=127
96989 On ch=8 n=36 v=0
97020 On ch=8 n=40 v=127
97049 On ch=8 n=40 v=0
97080 On ch=8 n=41 v=127
97109 On ch=8 n=41 v=0
97140 On ch=8 n=39 v=127
97169 On ch=8 n=39 v=0
97200 On ch=8 n=38 v=127
97229 On ch=8 n=38 v=0
97260 On ch=8 n=42 v=127
97289 On ch=8 n=42 v=0
97320 On ch=8 n=43 v=127
97349 On ch=8 n=43 v=0
97380 On ch=8 n=41 v=127
97409 On ch=8 n=41 v=0
97440 On ch=8 n=39 v=127
97469 On ch=8 n=39 v=0
97500 On ch=8 n=43 v=127
97529 On ch=8 n=43 v=0
97560 On ch=8 n=45 v=127
97589 On ch=8 n=45 v=0
97620 On ch=8 n=43 v=127
97649 On ch=8 n=43 v=0
97680 On ch=8 n=41 v=127
97709 On ch=8 n=41 v=0
97740 On ch=8 n=45 v=127
97769 On ch=8 n=45 v=0
97800 On ch=8 n=46 v=127
97829 On ch=8 n=46 v=0
97860 On ch=8 n=45 v=127
97889 On ch=8 n=45 v=0
97920 On ch=8 n=43 v=127
97949 On ch=8 n=43 v=0
97980 On ch=8 n=42 v=127
98009 On ch=8 n=42 v=0
98040 On ch=8 n=43 v=127
98069 On ch=8 n=43 v=0
98100 On ch=8 n=41 v=127
98129 On ch=8 n=41 v=0
98160 On ch=8 n=40 v=127
98189 On ch=8 n=40 v=0
98220 On ch=8 n=39 v=127
98249 On ch=8 n=39 v=0
98280 On ch=8 n=38 v=127
98339 On ch=8 n=38 v=0
98400 On ch=8 n=42 v=127
98459 On ch=8 n=42 v=0
98520 On ch=8 n=43 v=127
98579 On ch=8 n=43 v=0
98760 On ch=8 n=38 v=127
98819 On ch=8 n=38 v=0
98880 On ch=8 n=39 v=127
98939 On ch=8 n=39 v=0
99120 On ch=8 n=40 v=127
99179 On ch=8 n=40 v=0
99240 On ch=8 n=41 v=127
99299 On ch=8 n=41 v=0
99480 On ch=8 n=42 v=127
99539 On ch=8 n=42 v=0
99600 On ch=8 n=43 v=127
99659 On ch=8 n=43 v=0
99840 On ch=8 n=38 v=127
99899 On ch=8 n=38 v=0
99960 On ch=8 n=39 v=127
100019 On ch=8 n=39 v=0
100200 On ch=8 n=40 v=127
100259 On ch=8 n=40 v=0
100440 On ch=8 n=40 v=127
100499 On ch=8 n=40 v=0
100680 On ch=8 n=40 v=127
100739 On ch=8 n=40 v=0
100920 On ch=8 n=40 v=127
100979 On ch=8 n=40 v=0
101160 On ch=8 n=40 v=127
101219 On ch=8 n=40 v=0
101400 On ch=8 n=40 v=127
101459 On ch=8 n=40 v=0
102960 On ch=8 n=31 v=48
103079 On ch=8 n=31 v=0
103320 On ch=8 n=32 v=48
103439 On ch=8 n=32 v=0
103680 On ch=8 n=33 v=48
103799 On ch=8 n=33 v=0
104040 On ch=8 n=34 v=48
104159 On ch=8 n=34 v=0
104400 On ch=8 n=39 v=48
104459 On ch=8 n=39 v=0
104460 On ch=8 n=39 v=52
104519 On ch=8 n=39 v=0
104520 On ch=8 n=39 v=57
104579 On ch=8 n=39 v=0
104580 On ch=8 n=39 v=61
104639 On ch=8 n=39 v=0
104640 On ch=8 n=39 v=66
104699 On ch=8 n=39 v=0
104700 On ch=8 n=39 v=70
104759 On ch=8 n=39 v=0
104760 On ch=8 n=36 v=75
104819 On ch=8 n=36 v=0
104820 On ch=8 n=36 v=79
104879 On ch=8 n=36 v=0
104880 On ch=8 n=36 v=84
104939 On ch=8 n=36 v=0
104940 On ch=8 n=36 v=88
105000 On ch=8 n=38 v=89
105009 On ch=8 n=36 v=0
105060 On ch=8 n=39 v=93
105069 On ch=8 n=38 v=0
105119 On ch=8 n=39 v=0
105120 On ch=8 n=41 v=98
105179 On ch=8 n=41 v=0
105180 On ch=8 n=41 v=102
105239 On ch=8 n=41 v=0
105240 On ch=8 n=41 v=113
105299 On ch=8 n=41 v=0
105300 On ch=8 n=41 v=117
105359 On ch=8 n=41 v=0
105360 On ch=8 n=38 v=123
105419 On ch=8 n=38 v=0
105420 On ch=8 n=34 v=125
105479 On ch=8 n=34 v=0
105480 On ch=8 n=29 v=127
105539 On ch=8 n=29 v=0
105540 On ch=8 n=41 v=127
105599 On ch=8 n=41 v=0
105600 On ch=8 n=41 v=127
105659 On ch=8 n=41 v=0
105660 On ch=8 n=41 v=127
105719 On ch=8 n=41 v=0
105720 On ch=8 n=41 v=127
105779 On ch=8 n=41 v=0
105780 On ch=8 n=41 v=127
105839 On ch=8 n=41 v=0
105840 On ch=8 n=46 v=96
105899 On ch=8 n=46 v=0
106200 On ch=8 n=34 v=96
106259 On ch=8 n=34 v=0
106560 On ch=8 n=34 v=96
106619 On ch=8 n=34 v=0
106920 On ch=8 n=34 v=96
106979 On ch=8 n=34 v=0
107040 On ch=8 n=34 v=96
107099 On ch=8 n=34 v=0
107160 On ch=8 n=34 v=96
107219 On ch=8 n=34 v=0
107280 On ch=8 n=34 v=96
107309 On ch=8 n=34 v=0
107310 On ch=8 n=34 v=48
108960 On ch=8 n=35 v=32
108969 On ch=8 n=34 v=0
109080 On ch=8 n=33 v=32
109089 On ch=8 n=35 v=0
109320 On ch=8 n=34 v=32
109329 On ch=8 n=33 v=0
109439 On ch=8 n=34 v=0
109440 On ch=8 n=32 v=32
110159 On ch=8 n=32 v=0
110160 On ch=8 n=31 v=32
110879 On ch=8 n=31 v=0
110880 On ch=8 n=32 v=32
111599 On ch=8 n=32 v=0
111600 On ch=8 n=31 v=32
111719 On ch=8 n=31 v=0
111960 On ch=8 n=43 v=32
112079 On ch=8 n=43 v=0
112320 On ch=8 n=43 v=32
112439 On ch=8 n=43 v=0
112680 On ch=8 n=43 v=32
112799 On ch=8 n=43 v=0
113040 On ch=8 n=43 v=32
113159 On ch=8 n=43 v=0
113400 On ch=8 n=31 v=80
113519 On ch=8 n=31 v=0
113760 On ch=8 n=31 v=48
113879 On ch=8 n=31 v=0
114480 On ch=8 n=35 v=48
114599 On ch=8 n=35 v=0
114840 On ch=8 n=31 v=48
114959 On ch=8 n=31 v=0
115200 On ch=8 n=36 v=48
115319 On ch=8 n=36 v=0
115920 On ch=8 n=40 v=48
116039 On ch=8 n=40 v=0
116280 On ch=8 n=36 v=48
116399 On ch=8 n=36 v=0
116640 On ch=8 n=38 v=48
116759 On ch=8 n=38 v=0
117000 On ch=8 n=31 v=96
117029 On ch=8 n=31 v=0
117030 On ch=8 n=31 v=48
117419 On ch=8 n=31 v=0
117420 On ch=8 n=33 v=48
117449 On ch=8 n=33 v=0
117480 On ch=8 n=35 v=48
117509 On ch=8 n=35 v=0
117540 On ch=8 n=36 v=48
117569 On ch=8 n=36 v=0
117600 On ch=8 n=38 v=48
117629 On ch=8 n=38 v=0
117660 On ch=8 n=40 v=48
117689 On ch=8 n=40 v=0
117720 On ch=8 n=41 v=48
117749 On ch=8 n=41 v=0
117780 On ch=8 n=38 v=48
117809 On ch=8 n=38 v=0
117840 On ch=8 n=35 v=48
117869 On ch=8 n=35 v=0
117900 On ch=8 n=31 v=48
117929 On ch=8 n=31 v=0
117960 On ch=8 n=33 v=48
117989 On ch=8 n=33 v=0
118020 On ch=8 n=35 v=48
118049 On ch=8 n=35 v=0
118080 On ch=8 n=36 v=32
118320 On ch=8 n=39 v=32
118329 On ch=8 n=36 v=0
118440 On ch=8 n=36 v=32
118449 On ch=8 n=39 v=0
118680 On ch=8 n=31 v=32
118689 On ch=8 n=36 v=0
118799 On ch=8 n=31 v=0
118800 On ch=8 n=36 v=32
118919 On ch=8 n=36 v=0
119400 On ch=8 n=32 v=48
119519 On ch=8 n=32 v=0
119520 On ch=8 n=37 v=48
119760 On ch=8 n=40 v=48
119769 On ch=8 n=37 v=0
119880 On ch=8 n=37 v=48
119889 On ch=8 n=40 v=0
120120 On ch=8 n=32 v=48
120129 On ch=8 n=37 v=0
120239 On ch=8 n=32 v=0
120240 On ch=8 n=37 v=48
120359 On ch=8 n=37 v=0
120840 On ch=8 n=33 v=96
120959 On ch=8 n=33 v=0
120960 On ch=8 n=38 v=127
121200 On ch=8 n=41 v=127
121209 On ch=8 n=38 v=0
121320 On ch=8 n=38 v=127
121329 On ch=8 n=41 v=0
121560 On ch=8 n=33 v=127
121569 On ch=8 n=38 v=0
121679 On ch=8 n=33 v=0
121680 On ch=8 n=38 v=127
121920 On ch=8 n=41 v=127
121929 On ch=8 n=38 v=0
122040 On ch=8 n=38 v=127
122049 On ch=8 n=41 v=0
122280 On ch=8 n=33 v=127
122289 On ch=8 n=38 v=0
122399 On ch=8 n=33 v=0
122400 On ch=8 n=40 v=127
122640 On ch=8 n=43 v=127
122649 On ch=8 n=40 v=0
122760 On ch=8 n=40 v=127
122769 On ch=8 n=43 v=0
123000 On ch=8 n=33 v=127
123009 On ch=8 n=40 v=0
123119 On ch=8 n=33 v=0
123120 On ch=8 n=40 v=127
123360 On ch=8 n=43 v=127
123369 On ch=8 n=40 v=0
123479 On ch=8 n=43 v=0
123480 On ch=8 n=40 v=127
123720 On ch=8 n=43 v=127
123729 On ch=8 n=40 v=0
123839 On ch=8 n=43 v=0
123840 On ch=8 n=42 v=48
123869 On ch=8 n=42 v=0
123900 On ch=8 n=48 v=48
123929 On ch=8 n=48 v=0
123960 On ch=8 n=48 v=48
123989 On ch=8 n=48 v=0
124260 On ch=8 n=46 v=48
124289 On ch=8 n=46 v=0
124320 On ch=8 n=46 v=48
124349 On ch=8 n=46 v=0
124560 On ch=8 n=42 v=48
124679 On ch=8 n=42 v=0
124980 On ch=8 n=42 v=94
125039 On ch=8 n=42 v=0
125040 On ch=8 n=42 v=101
125099 On ch=8 n=42 v=0
125100 On ch=8 n=42 v=107
125159 On ch=8 n=42 v=0
125160 On ch=8 n=42 v=114
125219 On ch=8 n=42 v=0
125220 On ch=8 n=42 v=120
125279 On ch=8 n=42 v=0
125280 On ch=8 n=43 v=127
125520 On ch=8 n=46 v=127
125529 On ch=8 n=43 v=0
125640 On ch=8 n=43 v=127
125649 On ch=8 n=46 v=0
125880 On ch=8 n=38 v=127
125889 On ch=8 n=43 v=0
125999 On ch=8 n=38 v=0
126000 On ch=8 n=43 v=127
126240 On ch=8 n=46 v=127
126249 On ch=8 n=43 v=0
126360 On ch=8 n=43 v=127
126369 On ch=8 n=46 v=0
126600 On ch=8 n=38 v=127
126609 On ch=8 n=43 v=0
126719 On ch=8 n=38 v=0
126720 On ch=8 n=45 v=127
126960 On ch=8 n=48 v=127
126969 On ch=8 n=45 v=0
127080 On ch=8 n=45 v=127
127089 On ch=8 n=48 v=0
127320 On ch=8 n=38 v=127
127329 On ch=8 n=45 v=0
127439 On ch=8 n=38 v=0
127440 On ch=8 n=45 v=127
127680 On ch=8 n=48 v=127
127689 On ch=8 n=45 v=0
127799 On ch=8 n=48 v=0
127800 On ch=8 n=45 v=127
128040 On ch=8 n=48 v=127
128049 On ch=8 n=45 v=0
128159 On ch=8 n=48 v=0
128160 On ch=8 n=47 v=48
128189 On ch=8 n=47 v=0
128220 On ch=8 n=53 v=48
128249 On ch=8 n=53 v=0
128280 On ch=8 n=53 v=48
128309 On ch=8 n=53 v=0
128580 On ch=8 n=51 v=48
128609 On ch=8 n=51 v=0
128640 On ch=8 n=51 v=48
128669 On ch=8 n=51 v=0
128880 On ch=8 n=47 v=48
128999 On ch=8 n=47 v=0
129300 On ch=8 n=47 v=94
129359 On ch=8 n=47 v=0
129360 On ch=8 n=47 v=101
129419 On ch=8 n=47 v=0
129420 On ch=8 n=47 v=107
129479 On ch=8 n=47 v=0
129480 On ch=8 n=47 v=114
129539 On ch=8 n=47 v=0
129540 On ch=8 n=47 v=120
129599 On ch=8 n=47 v=0
129600 On ch=8 n=46 v=48
129629 On ch=8 n=46 v=0
129660 On ch=8 n=46 v=48
129689 On ch=8 n=46 v=0
129720 On ch=8 n=46 v=48
129749 On ch=8 n=46 v=0
130020 On ch=8 n=44 v=48
130049 On ch=8 n=44 v=0
130080 On ch=8 n=44 v=48
130109 On ch=8 n=44 v=0
130370 On ch=8 n=40 v=48
130399 On ch=8 n=40 v=0
130440 On ch=8 n=40 v=52
130469 On ch=8 n=40 v=0
130740 On ch=8 n=40 v=76
130769 On ch=8 n=40 v=0
130800 On ch=8 n=40 v=80
130829 On ch=8 n=40 v=0
130860 On ch=8 n=40 v=84
130889 On ch=8 n=40 v=0
130920 On ch=8 n=40 v=88
130949 On ch=8 n=40 v=0
130980 On ch=8 n=40 v=92
131009 On ch=8 n=40 v=0
131040 On ch=8 n=39 v=96
131069 On ch=8 n=39 v=0
131100 On ch=8 n=51 v=96
131129 On ch=8 n=51 v=0
131160 On ch=8 n=51 v=96
131189 On ch=8 n=51 v=0
131460 On ch=8 n=49 v=96
131489 On ch=8 n=49 v=0
131520 On ch=8 n=49 v=96
131549 On ch=8 n=49 v=0
131820 On ch=8 n=49 v=96
131849 On ch=8 n=49 v=0
131880 On ch=8 n=49 v=96
131909 On ch=8 n=49 v=0
132180 On ch=8 n=36 v=96
132209 On ch=8 n=36 v=0
132240 On ch=8 n=36 v=96
132269 On ch=8 n=36 v=0
132480 On ch=8 n=29 v=127
132539 On ch=8 n=29 v=0
132540 On ch=8 n=41 v=127
132599 On ch=8 n=41 v=0
132600 On ch=8 n=41 v=127
132659 On ch=8 n=41 v=0
132660 On ch=8 n=41 v=127
132719 On ch=8 n=41 v=0
132720 On ch=8 n=41 v=127
132779 On ch=8 n=41 v=0
132780 On ch=8 n=41 v=127
132839 On ch=8 n=41 v=0
132840 On ch=8 n=40 v=127
132899 On ch=8 n=40 v=0
132900 On ch=8 n=40 v=127
132959 On ch=8 n=40 v=0
132960 On ch=8 n=40 v=127
133019 On ch=8 n=40 v=0
133020 On ch=8 n=40 v=127
133079 On ch=8 n=40 v=0
133080 On ch=8 n=40 v=127
133139 On ch=8 n=40 v=0
133140 On ch=8 n=40 v=127
133199 On ch=8 n=40 v=0
133200 On ch=8 n=39 v=127
133319 On ch=8 n=39 v=0
133920 On ch=8 n=43 v=48
134039 On ch=8 n=43 v=0
134280 On ch=8 n=39 v=48
134399 On ch=8 n=39 v=0
134640 On ch=8 n=44 v=48
134759 On ch=8 n=44 v=0
135360 On ch=8 n=48 v=48
135479 On ch=8 n=48 v=0
135720 On ch=8 n=44 v=48
135839 On ch=8 n=44 v=0
136080 On ch=8 n=43 v=48
136199 On ch=8 n=43 v=0
136800 On ch=8 n=39 v=96
136829 On ch=8 n=39 v=0
136830 On ch=8 n=39 v=48
137219 On ch=8 n=39 v=0
137220 On ch=8 n=41 v=48
137249 On ch=8 n=41 v=0
137280 On ch=8 n=39 v=48
137309 On ch=8 n=39 v=0
137340 On ch=8 n=37 v=48
137369 On ch=8 n=37 v=0
137400 On ch=8 n=36 v=48
137429 On ch=8 n=36 v=0
137460 On ch=8 n=34 v=48
137489 On ch=8 n=34 v=0
137520 On ch=8 n=32 v=48
137639 On ch=8 n=32 v=0
137640 On ch=8 n=49 v=48
137820 On ch=8 n=48 v=48
137829 On ch=8 n=49 v=0
137879 On ch=8 n=48 v=0
137880 On ch=8 n=47 v=48
137939 On ch=8 n=47 v=0
138000 On ch=8 n=48 v=48
138180 On ch=8 n=41 v=48
138189 On ch=8 n=48 v=0
138239 On ch=8 n=41 v=0
138240 On ch=8 n=40 v=48
138299 On ch=8 n=40 v=0
138360 On ch=8 n=46 v=48
138540 On ch=8 n=43 v=48
138549 On ch=8 n=46 v=0
138599 On ch=8 n=43 v=0
138600 On ch=8 n=40 v=48
138659 On ch=8 n=40 v=0
138720 On ch=8 n=43 v=48
138900 On ch=8 n=36 v=48
138909 On ch=8 n=43 v=0
138959 On ch=8 n=36 v=0
138960 On ch=8 n=41 v=48
139079 On ch=8 n=41 v=0
141060 On ch=8 n=36 v=48
141119 On ch=8 n=36 v=0
141120 On ch=8 n=34 v=48
141239 On ch=8 n=34 v=0
141240 On ch=8 n=43 v=96
141419 On ch=8 n=43 v=0
141420 On ch=8 n=34 v=48
141479 On ch=8 n=34 v=0
141480 On ch=8 n=33 v=50
141509 On ch=8 n=33 v=0
141540 On ch=8 n=42 v=53
141569 On ch=8 n=42 v=0
141600 On ch=8 n=31 v=55
141629 On ch=8 n=31 v=0
141660 On ch=8 n=43 v=58
141689 On ch=8 n=43 v=0
141720 On ch=8 n=39 v=60
141749 On ch=8 n=39 v=0
141780 On ch=8 n=38 v=63
141809 On ch=8 n=38 v=0
141840 On ch=8 n=37 v=65
141959 On ch=8 n=37 v=0
142200 On ch=8 n=38 v=80
142319 On ch=8 n=38 v=0
142380 On ch=8 n=38 v=88
142410 On ch=8 n=37 v=89
142419 On ch=8 n=38 v=0
142439 On ch=8 n=37 v=0
142440 On ch=8 n=38 v=90
142469 On ch=8 n=38 v=0
142500 On ch=8 n=36 v=93
142529 On ch=8 n=36 v=0
142560 On ch=8 n=35 v=95
142679 On ch=8 n=35 v=0
142740 On ch=8 n=37 v=102
142770 On ch=8 n=34 v=104
142779 On ch=8 n=37 v=0
142799 On ch=8 n=34 v=0
142800 On ch=8 n=37 v=105
142829 On ch=8 n=37 v=0
142860 On ch=8 n=33 v=108
142889 On ch=8 n=33 v=0
142920 On ch=8 n=38 v=110
142949 On ch=8 n=38 v=0
142980 On ch=8 n=38 v=113
143010 On ch=8 n=37 v=114
143019 On ch=8 n=38 v=0
143039 On ch=8 n=37 v=0
143040 On ch=8 n=38 v=115
143069 On ch=8 n=38 v=0
143100 On ch=8 n=36 v=118
143129 On ch=8 n=36 v=0
143160 On ch=8 n=34 v=120
143189 On ch=8 n=34 v=0
143220 On ch=8 n=33 v=123
143249 On ch=8 n=33 v=0
143280 On ch=8 n=32 v=125
143399 On ch=8 n=32 v=0
143400 On ch=8 n=38 v=127
144119 On ch=8 n=38 v=0
144120 On ch=8 n=38 v=127
144359 On ch=8 n=38 v=0
144360 On ch=8 n=38 v=127
144599 On ch=8 n=38 v=0
144600 On ch=8 n=38 v=127
144839 On ch=8 n=38 v=0
144840 On ch=8 n=38 v=127
145079 On ch=8 n=38 v=0
145080 On ch=8 n=38 v=127
145319 On ch=8 n=38 v=0
145320 On ch=8 n=38 v=127
145439 On ch=8 n=38 v=0
145440 On ch=8 n=24 v=127
145440 On ch=8 n=36 v=127
145499 On ch=8 n=36 v=0
145499 On ch=8 n=24 v=0
145560 On ch=8 n=36 v=127
146279 On ch=8 n=36 v=0
146280 On ch=8 n=36 v=127
146519 On ch=8 n=36 v=0
146520 On ch=8 n=36 v=127
146759 On ch=8 n=36 v=0
146760 On ch=8 n=36 v=127
146999 On ch=8 n=36 v=0
147000 On ch=8 n=36 v=127
147239 On ch=8 n=36 v=0
147240 On ch=8 n=36 v=127
147479 On ch=8 n=36 v=0
147480 On ch=8 n=36 v=127
147599 On ch=8 n=36 v=0
147600 On ch=8 n=35 v=127
147659 On ch=8 n=35 v=0
147720 On ch=8 n=47 v=127
148439 On ch=8 n=47 v=0
148440 On ch=8 n=35 v=127
148679 On ch=8 n=35 v=0
148680 On ch=8 n=35 v=127
148919 On ch=8 n=35 v=0
148920 On ch=8 n=35 v=127
149159 On ch=8 n=35 v=0
149160 On ch=8 n=35 v=127
149399 On ch=8 n=35 v=0
149400 On ch=8 n=35 v=127
149639 On ch=8 n=35 v=0
149640 On ch=8 n=35 v=127
149759 On ch=8 n=35 v=0
149760 On ch=8 n=34 v=127
149819 On ch=8 n=34 v=0
149880 On ch=8 n=46 v=127
150599 On ch=8 n=46 v=0
150600 On ch=8 n=46 v=127
150839 On ch=8 n=46 v=0
150840 On ch=8 n=46 v=127
151079 On ch=8 n=46 v=0
151080 On ch=8 n=46 v=127
151319 On ch=8 n=46 v=0
151320 On ch=8 n=46 v=127
151559 On ch=8 n=46 v=0
151560 On ch=8 n=46 v=127
151799 On ch=8 n=46 v=0
151800 On ch=8 n=46 v=127
151919 On ch=8 n=46 v=0
151920 On ch=8 n=33 v=127
151979 On ch=8 n=33 v=0
152040 On ch=8 n=45 v=127
152279 On ch=8 n=45 v=0
152280 On ch=8 n=45 v=127
152519 On ch=8 n=45 v=0
152520 On ch=8 n=45 v=127
152639 On ch=8 n=45 v=0
152640 On ch=8 n=31 v=127
152699 On ch=8 n=31 v=0
152760 On ch=8 n=43 v=127
152999 On ch=8 n=43 v=0
153000 On ch=8 n=43 v=127
153239 On ch=8 n=43 v=0
153240 On ch=8 n=43 v=127
153299 On ch=8 n=43 v=0
153360 On ch=8 n=33 v=127
153419 On ch=8 n=33 v=0
153480 On ch=8 n=45 v=96
153719 On ch=8 n=45 v=0
153840 On ch=8 n=45 v=96
154079 On ch=8 n=45 v=0
154200 On ch=8 n=45 v=96
154439 On ch=8 n=45 v=0
154440 On ch=8 n=45 v=96
154679 On ch=8 n=45 v=0
154680 On ch=8 n=45 v=96
154739 On ch=8 n=45 v=0
154920 On ch=8 n=35 v=96
154979 On ch=8 n=35 v=0
155040 On ch=8 n=35 v=96
155099 On ch=8 n=35 v=0
155160 On ch=8 n=35 v=96
155219 On ch=8 n=35 v=0
155280 On ch=8 n=35 v=88
155339 On ch=8 n=35 v=0
155400 On ch=8 n=35 v=80
155459 On ch=8 n=35 v=0
155520 On ch=8 n=35 v=72
155579 On ch=8 n=35 v=0
155640 On ch=8 n=35 v=64
155699 On ch=8 n=35 v=0
155760 On ch=8 n=35 v=56
155819 On ch=8 n=35 v=0
155880 On ch=8 n=35 v=48
155939 On ch=8 n=35 v=0
156000 On ch=8 n=35 v=48
156059 On ch=8 n=35 v=0
156120 On ch=8 n=35 v=48
156179 On ch=8 n=35 v=0
156240 On ch=8 n=40 v=48
156359 On ch=8 n=40 v=0
161700 On ch=8 n=40 v=56
161760 On ch=8 n=43 v=64
161769 On ch=8 n=40 v=0
161820 On ch=8 n=41 v=72
161829 On ch=8 n=43 v=0
161880 On ch=8 n=40 v=80
161889 On ch=8 n=41 v=0
161940 On ch=8 n=38 v=88
161949 On ch=8 n=40 v=0
161999 On ch=8 n=38 v=0
162000 On ch=8 n=36 v=96
162240 On ch=8 n=40 v=96
162249 On ch=8 n=36 v=0
162360 On ch=8 n=36 v=96
162369 On ch=8 n=40 v=0
162600 On ch=8 n=31 v=96
162609 On ch=8 n=36 v=0
162719 On ch=8 n=31 v=0
162720 On ch=8 n=36 v=96
162779 On ch=8 n=36 v=0
162840 On ch=8 n=40 v=96
162899 On ch=8 n=40 v=0
162960 On ch=8 n=43 v=96
163019 On ch=8 n=43 v=0
163080 On ch=8 n=36 v=96
163320 On ch=8 n=31 v=96
163329 On ch=8 n=36 v=0
163439 On ch=8 n=31 v=0
163440 On ch=8 n=36 v=96
163499 On ch=8 n=36 v=0
163560 On ch=8 n=40 v=96
163619 On ch=8 n=40 v=0
163680 On ch=8 n=43 v=96
163739 On ch=8 n=43 v=0
163800 On ch=8 n=48 v=96
163859 On ch=8 n=48 v=0
163920 On ch=8 n=52 v=96
163979 On ch=8 n=52 v=0
164040 On ch=8 n=55 v=112
164219 On ch=8 n=55 v=0
164220 On ch=8 n=53 v=96
164249 On ch=8 n=53 v=0
164280 On ch=8 n=50 v=96
164309 On ch=8 n=50 v=0
164340 On ch=8 n=47 v=96
164369 On ch=8 n=47 v=0
164400 On ch=8 n=43 v=96
164429 On ch=8 n=43 v=0
164460 On ch=8 n=41 v=96
164489 On ch=8 n=41 v=0
164520 On ch=8 n=38 v=96
164549 On ch=8 n=38 v=0
164580 On ch=8 n=41 v=96
164609 On ch=8 n=41 v=0
164640 On ch=8 n=38 v=96
164669 On ch=8 n=38 v=0
164700 On ch=8 n=35 v=96
164729 On ch=8 n=35 v=0
164760 On ch=8 n=31 v=96
164789 On ch=8 n=31 v=0
164820 On ch=8 n=35 v=96
164849 On ch=8 n=35 v=0
164880 On ch=8 n=36 v=96
164939 On ch=8 n=36 v=0
165000 On ch=8 n=39 v=96
165059 On ch=8 n=39 v=0
165120 On ch=8 n=43 v=96
165179 On ch=8 n=43 v=0
165240 On ch=8 n=48 v=96
165299 On ch=8 n=48 v=0
165360 On ch=8 n=51 v=96
165419 On ch=8 n=51 v=0
165480 On ch=8 n=55 v=112
165659 On ch=8 n=55 v=0
165660 On ch=8 n=53 v=96
165689 On ch=8 n=53 v=0
165720 On ch=8 n=50 v=96
165749 On ch=8 n=50 v=0
165780 On ch=8 n=47 v=96
165809 On ch=8 n=47 v=0
165840 On ch=8 n=43 v=96
165869 On ch=8 n=43 v=0
165900 On ch=8 n=41 v=96
165929 On ch=8 n=41 v=0
165960 On ch=8 n=38 v=96
165989 On ch=8 n=38 v=0
166020 On ch=8 n=41 v=96
166049 On ch=8 n=41 v=0
166080 On ch=8 n=38 v=96
166109 On ch=8 n=38 v=0
166140 On ch=8 n=35 v=96
166169 On ch=8 n=35 v=0
166200 On ch=8 n=31 v=96
166229 On ch=8 n=31 v=0
166260 On ch=8 n=35 v=96
166289 On ch=8 n=35 v=0
166320 On ch=8 n=36 v=96
166440 On ch=8 n=39 v=96
166449 On ch=8 n=36 v=0
166560 On ch=8 n=43 v=96
166569 On ch=8 n=39 v=0
166679 On ch=8 n=43 v=0
166680 On ch=8 n=44 v=112
166920 On ch=8 n=36 v=96
166929 On ch=8 n=44 v=0
167039 On ch=8 n=36 v=0
167040 On ch=8 n=37 v=96
167160 On ch=8 n=41 v=96
167169 On ch=8 n=37 v=0
167280 On ch=8 n=45 v=96
167289 On ch=8 n=41 v=0
167399 On ch=8 n=45 v=0
167400 On ch=8 n=46 v=112
167640 On ch=8 n=38 v=96
167649 On ch=8 n=46 v=0
167759 On ch=8 n=38 v=0
167760 On ch=8 n=39 v=96
167819 On ch=8 n=39 v=0
167880 On ch=8 n=31 v=96
167939 On ch=8 n=31 v=0
168000 On ch=8 n=34 v=96
168059 On ch=8 n=34 v=0
168120 On ch=8 n=39 v=96
168179 On ch=8 n=39 v=0
168240 On ch=8 n=43 v=96
168299 On ch=8 n=43 v=0
168360 On ch=8 n=46 v=112
168539 On ch=8 n=46 v=0
168540 On ch=8 n=44 v=96
168569 On ch=8 n=44 v=0
168600 On ch=8 n=41 v=96
168629 On ch=8 n=41 v=0
168660 On ch=8 n=38 v=96
168689 On ch=8 n=38 v=0
168720 On ch=8 n=34 v=96
168749 On ch=8 n=34 v=0
168780 On ch=8 n=32 v=96
168809 On ch=8 n=32 v=0
168840 On ch=8 n=29 v=96
168869 On ch=8 n=29 v=0
168900 On ch=8 n=44 v=96
168929 On ch=8 n=44 v=0
168960 On ch=8 n=41 v=96
168989 On ch=8 n=41 v=0
169020 On ch=8 n=38 v=96
169049 On ch=8 n=38 v=0
169080 On ch=8 n=34 v=96
169109 On ch=8 n=34 v=0
169140 On ch=8 n=38 v=96
169169 On ch=8 n=38 v=0
169200 On ch=8 n=39 v=127
169259 On ch=8 n=39 v=0
169320 On ch=8 n=30 v=127
169379 On ch=8 n=30 v=0
169440 On ch=8 n=34 v=127
169499 On ch=8 n=34 v=0
169560 On ch=8 n=39 v=127
169619 On ch=8 n=39 v=0
169680 On ch=8 n=42 v=127
169739 On ch=8 n=42 v=0
169800 On ch=8 n=46 v=127
169859 On ch=8 n=46 v=0
169920 On ch=8 n=51 v=127
170039 On ch=8 n=51 v=0
171840 On ch=8 n=39 v=40
171959 On ch=8 n=39 v=0
171960 On ch=8 n=39 v=32
172079 On ch=8 n=39 v=0
172080 On ch=8 n=41 v=40
172440 On ch=8 n=37 v=48
172449 On ch=8 n=41 v=0
172799 On ch=8 n=37 v=0
172800 On ch=8 n=42 v=48
173519 On ch=8 n=42 v=0
173520 On ch=8 n=44 v=48
173880 On ch=8 n=37 v=48
173889 On ch=8 n=44 v=0
174239 On ch=8 n=37 v=0
174240 On ch=8 n=42 v=48
174359 On ch=8 n=42 v=0
174360 On ch=8 n=42 v=48
174480 On ch=8 n=44 v=48
174489 On ch=8 n=42 v=0
174600 On ch=8 n=46 v=56
174609 On ch=8 n=44 v=0
174780 On ch=8 n=44 v=48
174789 On ch=8 n=46 v=0
174840 On ch=8 n=42 v=48
174849 On ch=8 n=44 v=0
174959 On ch=8 n=42 v=0
174960 On ch=8 n=41 v=48
175320 On ch=8 n=39 v=48
175329 On ch=8 n=41 v=0
175679 On ch=8 n=39 v=0
175680 On ch=8 n=34 v=48
175739 On ch=8 n=34 v=0
175800 On ch=8 n=38 v=48
175859 On ch=8 n=38 v=0
175920 On ch=8 n=34 v=48
175979 On ch=8 n=34 v=0
176040 On ch=8 n=41 v=48
176099 On ch=8 n=41 v=0
176160 On ch=8 n=34 v=48
176219 On ch=8 n=34 v=0
176280 On ch=8 n=46 v=48
176339 On ch=8 n=46 v=0
176400 On ch=8 n=34 v=48
176459 On ch=8 n=34 v=0
176520 On ch=8 n=50 v=48
176579 On ch=8 n=50 v=0
176640 On ch=8 n=34 v=48
176699 On ch=8 n=34 v=0
176760 On ch=8 n=53 v=96
176789 On ch=8 n=53 v=0
176790 On ch=8 n=53 v=48
177119 On ch=8 n=53 v=0
177120 On ch=8 n=34 v=48
177179 On ch=8 n=34 v=0
177240 On ch=8 n=39 v=48
177299 On ch=8 n=39 v=0
177360 On ch=8 n=34 v=48
177419 On ch=8 n=34 v=0
177480 On ch=8 n=42 v=48
177539 On ch=8 n=42 v=0
177600 On ch=8 n=34 v=48
177659 On ch=8 n=34 v=0
177720 On ch=8 n=46 v=48
177779 On ch=8 n=46 v=0
177840 On ch=8 n=34 v=48
177899 On ch=8 n=34 v=0
177960 On ch=8 n=51 v=48
178019 On ch=8 n=51 v=0
178080 On ch=8 n=34 v=48
178139 On ch=8 n=34 v=0
178200 On ch=8 n=54 v=96
178229 On ch=8 n=54 v=0
178230 On ch=8 n=54 v=48
178559 On ch=8 n=54 v=0
178560 On ch=8 n=24 v=48
178619 On ch=8 n=24 v=0
178680 On ch=8 n=27 v=48
178739 On ch=8 n=27 v=0
178800 On ch=8 n=24 v=48
178859 On ch=8 n=24 v=0
178920 On ch=8 n=32 v=48
178979 On ch=8 n=32 v=0
179040 On ch=8 n=24 v=48
179099 On ch=8 n=24 v=0
179160 On ch=8 n=36 v=48
179219 On ch=8 n=36 v=0
179280 On ch=8 n=24 v=48
179339 On ch=8 n=24 v=0
179400 On ch=8 n=39 v=48
179459 On ch=8 n=39 v=0
179520 On ch=8 n=24 v=48
179579 On ch=8 n=24 v=0
179640 On ch=8 n=44 v=96
179669 On ch=8 n=44 v=0
179670 On ch=8 n=44 v=48
179999 On ch=8 n=44 v=0
180000 On ch=8 n=25 v=48
180059 On ch=8 n=25 v=0
180120 On ch=8 n=29 v=48
180179 On ch=8 n=29 v=0
180240 On ch=8 n=25 v=48
180299 On ch=8 n=25 v=0
180360 On ch=8 n=32 v=48
180419 On ch=8 n=32 v=0
180480 On ch=8 n=25 v=48
180539 On ch=8 n=25 v=0
180600 On ch=8 n=37 v=48
180659 On ch=8 n=37 v=0
180720 On ch=8 n=25 v=48
180779 On ch=8 n=25 v=0
180840 On ch=8 n=41 v=48
180899 On ch=8 n=41 v=0
180960 On ch=8 n=25 v=48
181019 On ch=8 n=25 v=0
181080 On ch=8 n=44 v=96
181109 On ch=8 n=44 v=0
181110 On ch=8 n=44 v=48
181439 On ch=8 n=44 v=0
181440 On ch=8 n=26 v=48
181499 On ch=8 n=26 v=0
181560 On ch=8 n=29 v=49
181619 On ch=8 n=29 v=0
181680 On ch=8 n=26 v=50
181739 On ch=8 n=26 v=0
181800 On ch=8 n=34 v=51
181859 On ch=8 n=34 v=0
181920 On ch=8 n=26 v=52
181979 On ch=8 n=26 v=0
182040 On ch=8 n=38 v=53
182099 On ch=8 n=38 v=0
182160 On ch=8 n=26 v=54
182219 On ch=8 n=26 v=0
182280 On ch=8 n=41 v=55
182339 On ch=8 n=41 v=0
182400 On ch=8 n=26 v=56
182459 On ch=8 n=26 v=0
182520 On ch=8 n=46 v=96
182879 On ch=8 n=46 v=0
182880 On ch=8 n=27 v=60
182939 On ch=8 n=27 v=0
183000 On ch=8 n=30 v=64
183059 On ch=8 n=30 v=0
183120 On ch=8 n=27 v=68
183179 On ch=8 n=27 v=0
183240 On ch=8 n=34 v=72
183299 On ch=8 n=34 v=0
183360 On ch=8 n=27 v=76
183419 On ch=8 n=27 v=0
183480 On ch=8 n=39 v=80
183539 On ch=8 n=39 v=0
183600 On ch=8 n=27 v=84
183659 On ch=8 n=27 v=0
183720 On ch=8 n=42 v=88
183779 On ch=8 n=42 v=0
183840 On ch=8 n=27 v=92
183899 On ch=8 n=27 v=0
183960 On ch=8 n=46 v=96
184319 On ch=8 n=46 v=0
184320 On ch=8 n=35 v=127
184379 On ch=8 n=35 v=0
184440 On ch=8 n=39 v=127
184499 On ch=8 n=39 v=0
184560 On ch=8 n=35 v=127
184619 On ch=8 n=35 v=0
184680 On ch=8 n=42 v=127
184739 On ch=8 n=42 v=0
184800 On ch=8 n=35 v=127
184859 On ch=8 n=35 v=0
184920 On ch=8 n=47 v=127
184979 On ch=8 n=47 v=0
185040 On ch=8 n=35 v=127
185099 On ch=8 n=35 v=0
185160 On ch=8 n=51 v=127
185219 On ch=8 n=51 v=0
185280 On ch=8 n=35 v=127
185339 On ch=8 n=35 v=0
185400 On ch=8 n=54 v=127
185429 On ch=8 n=54 v=0
185460 On ch=8 n=51 v=127
185489 On ch=8 n=51 v=0
185520 On ch=8 n=47 v=127
185549 On ch=8 n=47 v=0
185580 On ch=8 n=42 v=127
185609 On ch=8 n=42 v=0
185640 On ch=8 n=39 v=127
185669 On ch=8 n=39 v=0
185700 On ch=8 n=42 v=127
185729 On ch=8 n=42 v=0
185760 On ch=8 n=35 v=127
185879 On ch=8 n=35 v=0
186840 On ch=8 n=35 v=96
186960 On ch=8 n=39 v=96
186969 On ch=8 n=35 v=0
187080 On ch=8 n=42 v=96
187089 On ch=8 n=39 v=0
187199 On ch=8 n=42 v=0
188280 On ch=8 n=36 v=48
188400 On ch=8 n=39 v=48
188409 On ch=8 n=36 v=0
188520 On ch=8 n=45 v=48
188529 On ch=8 n=39 v=0
188639 On ch=8 n=45 v=0
188820 On ch=8 n=38 v=46
188880 On ch=8 n=41 v=45
188889 On ch=8 n=38 v=0
188940 On ch=8 n=46 v=45
188949 On ch=8 n=41 v=0
188999 On ch=8 n=46 v=0
189180 On ch=8 n=38 v=42
189240 On ch=8 n=41 v=41
189249 On ch=8 n=38 v=0
189300 On ch=8 n=46 v=41
189309 On ch=8 n=41 v=0
189359 On ch=8 n=46 v=0
189540 On ch=8 n=39 v=38
189600 On ch=8 n=42 v=37
189609 On ch=8 n=39 v=0
189660 On ch=8 n=46 v=37
189669 On ch=8 n=42 v=0
189719 On ch=8 n=46 v=0
189900 On ch=8 n=39 v=34
189960 On ch=8 n=42 v=33
189969 On ch=8 n=39 v=0
190020 On ch=8 n=46 v=33
190029 On ch=8 n=42 v=0
190079 On ch=8 n=46 v=0
196560 On ch=8 n=34 v=96
196619 On ch=8 n=34 v=0
196620 On ch=8 n=46 v=96
196679 On ch=8 n=46 v=0
196680 On ch=8 n=46 v=96
196739 On ch=8 n=46 v=0
196740 On ch=8 n=46 v=96
196799 On ch=8 n=46 v=0
196800 On ch=8 n=46 v=96
196859 On ch=8 n=46 v=0
196860 On ch=8 n=46 v=96
196919 On ch=8 n=46 v=0
196920 On ch=8 n=46 v=127
196979 On ch=8 n=46 v=0
196980 On ch=8 n=46 v=127
197039 On ch=8 n=46 v=0
197040 On ch=8 n=46 v=127
197099 On ch=8 n=46 v=0
197100 On ch=8 n=46 v=127
197159 On ch=8 n=46 v=0
197160 On ch=8 n=46 v=127
197219 On ch=8 n=46 v=0
197220 On ch=8 n=46 v=127
197279 On ch=8 n=46 v=0
197280 On ch=8 n=39 v=127
197309 On ch=8 n=39 v=0
197310 On ch=8 n=39 v=48
197399 On ch=8 n=39 v=0
206100 On ch=8 n=37 v=56
206159 On ch=8 n=37 v=0
206160 On ch=8 n=37 v=58
206219 On ch=8 n=37 v=0
206220 On ch=8 n=37 v=60
206279 On ch=8 n=37 v=0
206280 On ch=8 n=35 v=56
206339 On ch=8 n=35 v=0
206340 On ch=8 n=35 v=52
206399 On ch=8 n=35 v=0
206400 On ch=8 n=35 v=48
206459 On ch=8 n=35 v=0
206460 On ch=8 n=35 v=44
206519 On ch=8 n=35 v=0
206520 On ch=8 n=35 v=40
206579 On ch=8 n=35 v=0
206580 On ch=8 n=35 v=36
206639 On ch=8 n=35 v=0
206640 On ch=8 n=34 v=32
206880 On ch=8 n=38 v=32
206889 On ch=8 n=34 v=0
207000 On ch=8 n=35 v=32
207009 On ch=8 n=38 v=0
207240 On ch=8 n=29 v=32
207249 On ch=8 n=35 v=0
207359 On ch=8 n=29 v=0
207360 On ch=8 n=34 v=32
207389 On ch=8 n=34 v=0
207420 On ch=8 n=38 v=34
207449 On ch=8 n=38 v=0
207480 On ch=8 n=41 v=36
207509 On ch=8 n=41 v=0
207540 On ch=8 n=34 v=38
207569 On ch=8 n=34 v=0
207600 On ch=8 n=38 v=40
207629 On ch=8 n=38 v=0
207660 On ch=8 n=41 v=42
207689 On ch=8 n=41 v=0
207720 On ch=8 n=44 v=45
207749 On ch=8 n=44 v=0
207780 On ch=8 n=38 v=47
207809 On ch=8 n=38 v=0
207840 On ch=8 n=41 v=49
207869 On ch=8 n=41 v=0
207900 On ch=8 n=44 v=51
207929 On ch=8 n=44 v=0
207960 On ch=8 n=48 v=53
207989 On ch=8 n=48 v=0
208020 On ch=8 n=46 v=55
208049 On ch=8 n=46 v=0
208080 On ch=8 n=44 v=58
208109 On ch=8 n=44 v=0
208140 On ch=8 n=46 v=60
208169 On ch=8 n=46 v=0
208200 On ch=8 n=44 v=62
208229 On ch=8 n=44 v=0
208260 On ch=8 n=43 v=64
208289 On ch=8 n=43 v=0
208320 On ch=8 n=41 v=66
208349 On ch=8 n=41 v=0
208380 On ch=8 n=39 v=68
208409 On ch=8 n=39 v=0
208440 On ch=8 n=38 v=72
208469 On ch=8 n=38 v=0
208500 On ch=8 n=36 v=76
208529 On ch=8 n=36 v=0
208560 On ch=8 n=34 v=80
208589 On ch=8 n=34 v=0
208620 On ch=8 n=46 v=84
208649 On ch=8 n=46 v=0
208680 On ch=8 n=46 v=88
208709 On ch=8 n=46 v=0
208740 On ch=8 n=46 v=92
208769 On ch=8 n=46 v=0
208800 On ch=8 n=39 v=96
208859 On ch=8 n=39 v=0
208860 On ch=8 n=39 v=96
208919 On ch=8 n=39 v=0
208920 On ch=8 n=39 v=96
208979 On ch=8 n=39 v=0
208980 On ch=8 n=39 v=96
209039 On ch=8 n=39 v=0
209040 On ch=8 n=39 v=96
209099 On ch=8 n=39 v=0
209100 On ch=8 n=39 v=96
209159 On ch=8 n=39 v=0
209160 On ch=8 n=39 v=96
209219 On ch=8 n=39 v=0
209220 On ch=8 n=39 v=96
209279 On ch=8 n=39 v=0
209280 On ch=8 n=39 v=96
209339 On ch=8 n=39 v=0
209340 On ch=8 n=39 v=96
209399 On ch=8 n=39 v=0
209400 On ch=8 n=39 v=96
209459 On ch=8 n=39 v=0
209460 On ch=8 n=39 v=96
209519 On ch=8 n=39 v=0
209520 On ch=8 n=39 v=96
209579 On ch=8 n=39 v=0
209580 On ch=8 n=39 v=96
209639 On ch=8 n=39 v=0
209640 On ch=8 n=39 v=96
209699 On ch=8 n=39 v=0
209700 On ch=8 n=39 v=96
209759 On ch=8 n=39 v=0
209760 On ch=8 n=39 v=96
209819 On ch=8 n=39 v=0
209820 On ch=8 n=39 v=96
209879 On ch=8 n=39 v=0
209880 On ch=8 n=39 v=96
209939 On ch=8 n=39 v=0
209940 On ch=8 n=39 v=96
209999 On ch=8 n=39 v=0
210000 On ch=8 n=39 v=96
210059 On ch=8 n=39 v=0
210060 On ch=8 n=39 v=96
210119 On ch=8 n=39 v=0
210120 On ch=8 n=39 v=112
210179 On ch=8 n=39 v=0
210180 On ch=8 n=39 v=96
210239 On ch=8 n=39 v=0
210240 On ch=8 n=39 v=96
210299 On ch=8 n=39 v=0
210300 On ch=8 n=39 v=96
210359 On ch=8 n=39 v=0
210360 On ch=8 n=39 v=96
210419 On ch=8 n=39 v=0
210420 On ch=8 n=39 v=96
210479 On ch=8 n=39 v=0
210480 On ch=8 n=39 v=96
210539 On ch=8 n=39 v=0
210540 On ch=8 n=39 v=96
210599 On ch=8 n=39 v=0
210600 On ch=8 n=39 v=96
210659 On ch=8 n=39 v=0
210660 On ch=8 n=39 v=96
210719 On ch=8 n=39 v=0
210720 On ch=8 n=39 v=96
210779 On ch=8 n=39 v=0
210780 On ch=8 n=39 v=96
210839 On ch=8 n=39 v=0
210840 On ch=8 n=39 v=112
210899 On ch=8 n=39 v=0
210900 On ch=8 n=39 v=96
210959 On ch=8 n=39 v=0
210960 On ch=8 n=39 v=112
211019 On ch=8 n=39 v=0
211020 On ch=8 n=39 v=112
211079 On ch=8 n=39 v=0
211080 On ch=8 n=39 v=112
211139 On ch=8 n=39 v=0
211140 On ch=8 n=39 v=112
211199 On ch=8 n=39 v=0
211200 On ch=8 n=39 v=112
211259 On ch=8 n=39 v=0
211260 On ch=8 n=39 v=112
211319 On ch=8 n=39 v=0
211320 On ch=8 n=39 v=112
211379 On ch=8 n=39 v=0
211380 On ch=8 n=39 v=112
211439 On ch=8 n=39 v=0
211440 On ch=8 n=39 v=112
211499 On ch=8 n=39 v=0
211500 On ch=8 n=39 v=112
211559 On ch=8 n=39 v=0
211560 On ch=8 n=39 v=112
211619 On ch=8 n=39 v=0
211620 On ch=8 n=39 v=112
211679 On ch=8 n=39 v=0
211680 On ch=8 n=39 v=112
211739 On ch=8 n=39 v=0
211740 On ch=8 n=39 v=112
211799 On ch=8 n=39 v=0
211800 On ch=8 n=39 v=112
211859 On ch=8 n=39 v=0
211860 On ch=8 n=39 v=112
211919 On ch=8 n=39 v=0
211920 On ch=8 n=39 v=112
211979 On ch=8 n=39 v=0
211980 On ch=8 n=39 v=112
212039 On ch=8 n=39 v=0
212040 On ch=8 n=39 v=112
212099 On ch=8 n=39 v=0
212100 On ch=8 n=39 v=112
212159 On ch=8 n=39 v=0
212160 On ch=8 n=39 v=112
212219 On ch=8 n=39 v=0
212220 On ch=8 n=39 v=112
212279 On ch=8 n=39 v=0
212280 On ch=8 n=39 v=112
212339 On ch=8 n=39 v=0
212340 On ch=8 n=39 v=112
212399 On ch=8 n=39 v=0
212400 On ch=8 n=39 v=127
212459 On ch=8 n=39 v=0
212460 On ch=8 n=39 v=127
212519 On ch=8 n=39 v=0
212520 On ch=8 n=39 v=127
212579 On ch=8 n=39 v=0
212580 On ch=8 n=39 v=127
212639 On ch=8 n=39 v=0
212640 On ch=8 n=43 v=127
212699 On ch=8 n=43 v=0
212700 On ch=8 n=43 v=127
212759 On ch=8 n=43 v=0
212760 On ch=8 n=39 v=127
212819 On ch=8 n=39 v=0
212820 On ch=8 n=39 v=127
212879 On ch=8 n=39 v=0
212880 On ch=8 n=39 v=127
212939 On ch=8 n=39 v=0
212940 On ch=8 n=39 v=127
212999 On ch=8 n=39 v=0
213000 On ch=8 n=34 v=127
213059 On ch=8 n=34 v=0
213060 On ch=8 n=34 v=127
213119 On ch=8 n=34 v=0
213120 On ch=8 n=39 v=127
213179 On ch=8 n=39 v=0
213180 On ch=8 n=39 v=127
213239 On ch=8 n=39 v=0
213240 On ch=8 n=43 v=127
213299 On ch=8 n=43 v=0
213300 On ch=8 n=43 v=127
213359 On ch=8 n=43 v=0
213360 On ch=8 n=46 v=127
213419 On ch=8 n=46 v=0
213420 On ch=8 n=46 v=127
213479 On ch=8 n=46 v=0
213480 On ch=8 n=39 v=127
213539 On ch=8 n=39 v=0
213540 On ch=8 n=39 v=127
213599 On ch=8 n=39 v=0
213600 On ch=8 n=39 v=127
213659 On ch=8 n=39 v=0
213660 On ch=8 n=39 v=127
213719 On ch=8 n=39 v=0
213720 On ch=8 n=31 v=127
213779 On ch=8 n=31 v=0
213780 On ch=8 n=31 v=127
213839 On ch=8 n=31 v=0
213840 On ch=8 n=36 v=127
213899 On ch=8 n=36 v=0
213900 On ch=8 n=36 v=127
213959 On ch=8 n=36 v=0
213960 On ch=8 n=39 v=127
214019 On ch=8 n=39 v=0
214020 On ch=8 n=39 v=127
214079 On ch=8 n=39 v=0
214080 On ch=8 n=43 v=127
214139 On ch=8 n=43 v=0
214140 On ch=8 n=43 v=127
214199 On ch=8 n=43 v=0
214200 On ch=8 n=36 v=127
214259 On ch=8 n=36 v=0
214260 On ch=8 n=36 v=127
214319 On ch=8 n=36 v=0
214320 On ch=8 n=36 v=127
214379 On ch=8 n=36 v=0
214380 On ch=8 n=36 v=127
214439 On ch=8 n=36 v=0
214440 On ch=8 n=34 v=127
214499 On ch=8 n=34 v=0
214500 On ch=8 n=34 v=127
214559 On ch=8 n=34 v=0
214560 On ch=8 n=32 v=127
214619 On ch=8 n=32 v=0
214620 On ch=8 n=44 v=127
214679 On ch=8 n=44 v=0
214680 On ch=8 n=44 v=127
214739 On ch=8 n=44 v=0
214740 On ch=8 n=44 v=127
214799 On ch=8 n=44 v=0
214800 On ch=8 n=44 v=127
214859 On ch=8 n=44 v=0
214860 On ch=8 n=44 v=127
214919 On ch=8 n=44 v=0
214920 On ch=8 n=33 v=127
214979 On ch=8 n=33 v=0
214980 On ch=8 n=45 v=127
215039 On ch=8 n=45 v=0
215040 On ch=8 n=45 v=127
215099 On ch=8 n=45 v=0
215100 On ch=8 n=45 v=127
215159 On ch=8 n=45 v=0
215160 On ch=8 n=45 v=127
215219 On ch=8 n=45 v=0
215220 On ch=8 n=45 v=127
215279 On ch=8 n=45 v=0
215280 On ch=8 n=46 v=127
215399 On ch=8 n=46 v=0
216000 On ch=8 n=34 v=48
216059 On ch=8 n=34 v=0
216120 On ch=8 n=38 v=48
216179 On ch=8 n=38 v=0
216240 On ch=8 n=41 v=48
216299 On ch=8 n=41 v=0
216360 On ch=8 n=46 v=48
216419 On ch=8 n=46 v=0
216480 On ch=8 n=50 v=48
216539 On ch=8 n=50 v=0
216600 On ch=8 n=53 v=48
216659 On ch=8 n=53 v=0
216720 On ch=8 n=34 v=48
216839 On ch=8 n=34 v=0
217440 On ch=8 n=34 v=48
217499 On ch=8 n=34 v=0
217560 On ch=8 n=39 v=48
217619 On ch=8 n=39 v=0
217680 On ch=8 n=43 v=48
217739 On ch=8 n=43 v=0
217800 On ch=8 n=46 v=48
217859 On ch=8 n=46 v=0
217920 On ch=8 n=55 v=48
217979 On ch=8 n=55 v=0
218040 On ch=8 n=51 v=48
218099 On ch=8 n=51 v=0
218160 On ch=8 n=46 v=48
218219 On ch=8 n=46 v=0
219000 On ch=8 n=48 v=127
219179 On ch=8 n=48 v=0
219180 On ch=8 n=46 v=127
219209 On ch=8 n=46 v=0
219240 On ch=8 n=44 v=127
219299 On ch=8 n=44 v=0
219360 On ch=8 n=43 v=127
219419 On ch=8 n=43 v=0
219480 On ch=8 n=41 v=127
219539 On ch=8 n=41 v=0
219600 On ch=8 n=39 v=48
219719 On ch=8 n=39 v=0
221040 On ch=8 n=39 v=56
221819 On ch=8 n=39 v=0
221820 On ch=8 n=46 v=74
221849 On ch=8 n=46 v=0
221880 On ch=8 n=44 v=76
221909 On ch=8 n=44 v=0
221940 On ch=8 n=43 v=78
221969 On ch=8 n=43 v=0
222000 On ch=8 n=41 v=80
222029 On ch=8 n=41 v=0
222060 On ch=8 n=39 v=82
222089 On ch=8 n=39 v=0
222120 On ch=8 n=38 v=84
222149 On ch=8 n=38 v=0
222180 On ch=8 n=39 v=86
222209 On ch=8 n=39 v=0
222240 On ch=8 n=41 v=88
222269 On ch=8 n=41 v=0
222300 On ch=8 n=39 v=90
222329 On ch=8 n=39 v=0
222360 On ch=8 n=38 v=92
222389 On ch=8 n=38 v=0
222420 On ch=8 n=36 v=94
222449 On ch=8 n=36 v=0
222480 On ch=8 n=35 v=96
222539 On ch=8 n=35 v=0
222600 On ch=8 n=47 v=96
222659 On ch=8 n=47 v=0
223140 On ch=8 n=35 v=96
223199 On ch=8 n=35 v=0
223200 On ch=8 n=36 v=96
223259 On ch=8 n=36 v=0
223320 On ch=8 n=48 v=96
223379 On ch=8 n=48 v=0
223860 On ch=8 n=36 v=96
223919 On ch=8 n=36 v=0
223920 On ch=8 n=34 v=96
223979 On ch=8 n=34 v=0
224040 On ch=8 n=46 v=96
224099 On ch=8 n=46 v=0
224580 On ch=8 n=34 v=96
224609 On ch=8 n=34 v=0
224640 On ch=8 n=32 v=96
224669 On ch=8 n=32 v=0
224700 On ch=8 n=32 v=96
224819 On ch=8 n=32 v=0
224820 On ch=8 n=33 v=96
224849 On ch=8 n=33 v=0
224880 On ch=8 n=34 v=96
224909 On ch=8 n=34 v=0
224940 On ch=8 n=35 v=96
224969 On ch=8 n=35 v=0
225000 On ch=8 n=36 v=96
225029 On ch=8 n=36 v=0
225060 On ch=8 n=36 v=96
225179 On ch=8 n=36 v=0
225180 On ch=8 n=36 v=96
225209 On ch=8 n=36 v=0
225240 On ch=8 n=38 v=96
225269 On ch=8 n=38 v=0
225300 On ch=8 n=38 v=96
225329 On ch=8 n=38 v=0
225360 On ch=8 n=39 v=96
225389 On ch=8 n=39 v=0
225420 On ch=8 n=39 v=96
225449 On ch=8 n=39 v=0
225480 On ch=8 n=49 v=96
225509 On ch=8 n=49 v=0
225540 On ch=8 n=49 v=96
225569 On ch=8 n=49 v=0
225600 On ch=8 n=48 v=96
225629 On ch=8 n=48 v=0
225660 On ch=8 n=48 v=96
225689 On ch=8 n=48 v=0
225720 On ch=8 n=47 v=96
225749 On ch=8 n=47 v=0
225780 On ch=8 n=47 v=96
225809 On ch=8 n=47 v=0
225840 On ch=8 n=46 v=96
225869 On ch=8 n=46 v=0
225900 On ch=8 n=46 v=96
225929 On ch=8 n=46 v=0
225960 On ch=8 n=43 v=96
225989 On ch=8 n=43 v=0
226020 On ch=8 n=43 v=96
226049 On ch=8 n=43 v=0
226080 On ch=8 n=44 v=96
226139 On ch=8 n=44 v=0
226140 On ch=8 n=32 v=96
226199 On ch=8 n=32 v=0
226200 On ch=8 n=32 v=96
226259 On ch=8 n=32 v=0
226260 On ch=8 n=32 v=96
226319 On ch=8 n=32 v=0
226320 On ch=8 n=32 v=96
226379 On ch=8 n=32 v=0
226380 On ch=8 n=32 v=96
226439 On ch=8 n=32 v=0
226440 On ch=8 n=32 v=96
226499 On ch=8 n=32 v=0
226500 On ch=8 n=32 v=96
226559 On ch=8 n=32 v=0
226560 On ch=8 n=32 v=96
226619 On ch=8 n=32 v=0
226620 On ch=8 n=32 v=96
226679 On ch=8 n=32 v=0
226680 On ch=8 n=32 v=96
226739 On ch=8 n=32 v=0
226740 On ch=8 n=32 v=96
226799 On ch=8 n=32 v=0
226800 On ch=8 n=34 v=96
226859 On ch=8 n=34 v=0
226860 On ch=8 n=34 v=96
226919 On ch=8 n=34 v=0
226920 On ch=8 n=34 v=96
226979 On ch=8 n=34 v=0
226980 On ch=8 n=34 v=96
227039 On ch=8 n=34 v=0
227040 On ch=8 n=34 v=96
227099 On ch=8 n=34 v=0
227100 On ch=8 n=34 v=96
227159 On ch=8 n=34 v=0
227160 On ch=8 n=34 v=96
227219 On ch=8 n=34 v=0
227220 On ch=8 n=34 v=96
227279 On ch=8 n=34 v=0
227280 On ch=8 n=34 v=96
227339 On ch=8 n=34 v=0
227340 On ch=8 n=34 v=96
227399 On ch=8 n=34 v=0
227400 On ch=8 n=34 v=96
227459 On ch=8 n=34 v=0
227460 On ch=8 n=34 v=96
227519 On ch=8 n=34 v=0
227520 On ch=8 n=34 v=96
227639 On ch=8 n=34 v=0
228240 On ch=8 n=46 v=127
228269 On ch=8 n=46 v=0
228300 On ch=8 n=45 v=127
228329 On ch=8 n=45 v=0
228360 On ch=8 n=44 v=127
228389 On ch=8 n=44 v=0
228420 On ch=8 n=43 v=127
228449 On ch=8 n=43 v=0
228480 On ch=8 n=41 v=127
228509 On ch=8 n=41 v=0
228540 On ch=8 n=39 v=127
228569 On ch=8 n=39 v=0
228600 On ch=8 n=38 v=127
228629 On ch=8 n=38 v=0
228660 On ch=8 n=36 v=127
228689 On ch=8 n=36 v=0
228720 On ch=8 n=34 v=127
228749 On ch=8 n=34 v=0
228780 On ch=8 n=32 v=127
228809 On ch=8 n=32 v=0
228840 On ch=8 n=31 v=127
228869 On ch=8 n=31 v=0
228900 On ch=8 n=29 v=127
228929 On ch=8 n=29 v=0
228960 On ch=8 n=27 v=127
229079 On ch=8 n=27 v=0
233400 On ch=8 n=34 v=48
233520 On ch=8 n=30 v=48
233529 On ch=8 n=34 v=0
233640 On ch=8 n=29 v=56
233649 On ch=8 n=30 v=0
233880 On ch=8 n=28 v=48
233889 On ch=8 n=29 v=0
233999 On ch=8 n=28 v=0
234840 On ch=8 n=34 v=32
234899 On ch=8 n=34 v=0
234960 On ch=8 n=34 v=32
235019 On ch=8 n=34 v=0
235200 On ch=8 n=34 v=32
235259 On ch=8 n=34 v=0
235320 On ch=8 n=34 v=32
235379 On ch=8 n=34 v=0
235560 On ch=8 n=34 v=32
235619 On ch=8 n=34 v=0
235680 On ch=8 n=34 v=32
235739 On ch=8 n=34 v=0
235800 On ch=8 n=34 v=32
235859 On ch=8 n=34 v=0
235920 On ch=8 n=34 v=32
235979 On ch=8 n=34 v=0
236040 On ch=8 n=34 v=32
236099 On ch=8 n=34 v=0
236160 On ch=8 n=34 v=32
236219 On ch=8 n=34 v=0
236220 On ch=8 n=34 v=32
236279 On ch=8 n=34 v=0
236280 On ch=8 n=34 v=32
236339 On ch=8 n=34 v=0
236340 On ch=8 n=34 v=32
236399 On ch=8 n=34 v=0
236400 On ch=8 n=34 v=32
236459 On ch=8 n=34 v=0
236460 On ch=8 n=34 v=32
236519 On ch=8 n=34 v=0
236520 On ch=8 n=34 v=32
236579 On ch=8 n=34 v=0
236580 On ch=8 n=34 v=32
236639 On ch=8 n=34 v=0
236640 On ch=8 n=34 v=32
236699 On ch=8 n=34 v=0
236700 On ch=8 n=34 v=32
236759 On ch=8 n=34 v=0
236760 On ch=8 n=34 v=32
236819 On ch=8 n=34 v=0
236820 On ch=8 n=34 v=32
236879 On ch=8 n=34 v=0
236880 On ch=8 n=34 v=35
236939 On ch=8 n=34 v=0
236940 On ch=8 n=34 v=38
236999 On ch=8 n=34 v=0
237000 On ch=8 n=34 v=41
237059 On ch=8 n=34 v=0
237060 On ch=8 n=34 v=43
237119 On ch=8 n=34 v=0
237120 On ch=8 n=34 v=46
237179 On ch=8 n=34 v=0
237180 On ch=8 n=34 v=48
237239 On ch=8 n=34 v=0
237240 On ch=8 n=34 v=51
237299 On ch=8 n=34 v=0
237300 On ch=8 n=34 v=54
237359 On ch=8 n=34 v=0
237360 On ch=8 n=34 v=57
237419 On ch=8 n=34 v=0
237420 On ch=8 n=34 v=59
237479 On ch=8 n=34 v=0
237480 On ch=8 n=34 v=62
237539 On ch=8 n=34 v=0
237540 On ch=8 n=34 v=64
237599 On ch=8 n=34 v=0
237600 On ch=8 n=34 v=67
237659 On ch=8 n=34 v=0
237660 On ch=8 n=34 v=70
237719 On ch=8 n=34 v=0
237720 On ch=8 n=34 v=73
237779 On ch=8 n=34 v=0
237780 On ch=8 n=34 v=75
237839 On ch=8 n=34 v=0
237840 On ch=8 n=34 v=78
237899 On ch=8 n=34 v=0
237900 On ch=8 n=34 v=80
237959 On ch=8 n=34 v=0
237960 On ch=8 n=34 v=83
238019 On ch=8 n=34 v=0
238020 On ch=8 n=34 v=86
238079 On ch=8 n=34 v=0
238080 On ch=8 n=34 v=89
238139 On ch=8 n=34 v=0
238140 On ch=8 n=44 v=91
238199 On ch=8 n=44 v=0
238200 On ch=8 n=43 v=93
238259 On ch=8 n=43 v=0
238260 On ch=8 n=41 v=95
238319 On ch=8 n=41 v=0
238320 On ch=8 n=39 v=96
238379 On ch=8 n=39 v=0
238380 On ch=8 n=34 v=96
238439 On ch=8 n=34 v=0
238440 On ch=8 n=39 v=96
238499 On ch=8 n=39 v=0
238500 On ch=8 n=34 v=96
238559 On ch=8 n=34 v=0
238560 On ch=8 n=39 v=96
238619 On ch=8 n=39 v=0
238620 On ch=8 n=34 v=96
238679 On ch=8 n=34 v=0
238680 On ch=8 n=39 v=96
238739 On ch=8 n=39 v=0
238740 On ch=8 n=34 v=96
238799 On ch=8 n=34 v=0
238800 On ch=8 n=39 v=112
238859 On ch=8 n=39 v=0
238860 On ch=8 n=34 v=96
238919 On ch=8 n=34 v=0
238920 On ch=8 n=39 v=96
238979 On ch=8 n=39 v=0
238980 On ch=8 n=34 v=96
239039 On ch=8 n=34 v=0
239040 On ch=8 n=38 v=96
239099 On ch=8 n=38 v=0
239100 On ch=8 n=34 v=96
239159 On ch=8 n=34 v=0
239160 On ch=8 n=38 v=112
239219 On ch=8 n=38 v=0
239220 On ch=8 n=34 v=96
239279 On ch=8 n=34 v=0
239280 On ch=8 n=38 v=96
239339 On ch=8 n=38 v=0
239340 On ch=8 n=34 v=96
239399 On ch=8 n=34 v=0
239400 On ch=8 n=41 v=96
239459 On ch=8 n=41 v=0
239460 On ch=8 n=34 v=96
239519 On ch=8 n=34 v=0
239520 On ch=8 n=44 v=112
239579 On ch=8 n=44 v=0
239580 On ch=8 n=34 v=96
239639 On ch=8 n=34 v=0
239640 On ch=8 n=38 v=96
239699 On ch=8 n=38 v=0
239700 On ch=8 n=34 v=96
239759 On ch=8 n=34 v=0
239760 On ch=8 n=39 v=127
239819 On ch=8 n=39 v=0
239820 On ch=8 n=34 v=127
239879 On ch=8 n=34 v=0
239880 On ch=8 n=39 v=127
239939 On ch=8 n=39 v=0
239940 On ch=8 n=34 v=127
239999 On ch=8 n=34 v=0
240000 On ch=8 n=39 v=127
240059 On ch=8 n=39 v=0
240060 On ch=8 n=34 v=127
240119 On ch=8 n=34 v=0
240120 On ch=8 n=39 v=127
240179 On ch=8 n=39 v=0
240180 On ch=8 n=34 v=127
240239 On ch=8 n=34 v=0
240240 On ch=8 n=39 v=127
240299 On ch=8 n=39 v=0
240300 On ch=8 n=34 v=127
240359 On ch=8 n=34 v=0
240360 On ch=8 n=39 v=127
240419 On ch=8 n=39 v=0
240420 On ch=8 n=34 v=127
240479 On ch=8 n=34 v=0
240480 On ch=8 n=38 v=127
240539 On ch=8 n=38 v=0
240540 On ch=8 n=34 v=127
240599 On ch=8 n=34 v=0
240600 On ch=8 n=38 v=127
240659 On ch=8 n=38 v=0
240660 On ch=8 n=34 v=127
240719 On ch=8 n=34 v=0
240720 On ch=8 n=38 v=127
240779 On ch=8 n=38 v=0
240780 On ch=8 n=34 v=127
240839 On ch=8 n=34 v=0
240840 On ch=8 n=41 v=127
240899 On ch=8 n=41 v=0
240900 On ch=8 n=34 v=127
240959 On ch=8 n=34 v=0
240960 On ch=8 n=44 v=127
241019 On ch=8 n=44 v=0
241020 On ch=8 n=46 v=127
241079 On ch=8 n=46 v=0
241080 On ch=8 n=44 v=127
241139 On ch=8 n=44 v=0
241140 On ch=8 n=46 v=127
241199 On ch=8 n=46 v=0
241200 On ch=8 n=43 v=127
241500 On ch=8 n=42 v=127
241509 On ch=8 n=43 v=0
241560 On ch=8 n=43 v=127
241569 On ch=8 n=42 v=0
241619 On ch=8 n=43 v=0
241620 On ch=8 n=38 v=127
241649 On ch=8 n=38 v=0
241680 On ch=8 n=39 v=127
241709 On ch=8 n=39 v=0
241740 On ch=8 n=41 v=127
241769 On ch=8 n=41 v=0
241800 On ch=8 n=42 v=127
241829 On ch=8 n=42 v=0
241860 On ch=8 n=43 v=127
241889 On ch=8 n=43 v=0
241920 On ch=8 n=44 v=127
241949 On ch=8 n=44 v=0
241980 On ch=8 n=43 v=127
242009 On ch=8 n=43 v=0
242040 On ch=8 n=41 v=127
242069 On ch=8 n=41 v=0
242100 On ch=8 n=45 v=127
242129 On ch=8 n=45 v=0
242160 On ch=8 n=46 v=127
242189 On ch=8 n=46 v=0
242220 On ch=8 n=44 v=127
242249 On ch=8 n=44 v=0
242280 On ch=8 n=43 v=127
242309 On ch=8 n=43 v=0
242340 On ch=8 n=35 v=127
242369 On ch=8 n=35 v=0
242400 On ch=8 n=36 v=127
242429 On ch=8 n=36 v=0
242460 On ch=8 n=34 v=127
242489 On ch=8 n=34 v=0
242520 On ch=8 n=32 v=127
242549 On ch=8 n=32 v=0
242580 On ch=8 n=36 v=127
242609 On ch=8 n=36 v=0
242640 On ch=8 n=38 v=127
242669 On ch=8 n=38 v=0
242700 On ch=8 n=36 v=127
242729 On ch=8 n=36 v=0
242760 On ch=8 n=34 v=127
242789 On ch=8 n=34 v=0
242820 On ch=8 n=38 v=127
242849 On ch=8 n=38 v=0
242880 On ch=8 n=39 v=127
242909 On ch=8 n=39 v=0
242940 On ch=8 n=38 v=127
242969 On ch=8 n=38 v=0
243000 On ch=8 n=36 v=127
243029 On ch=8 n=36 v=0
243060 On ch=8 n=47 v=127
243089 On ch=8 n=47 v=0
243120 On ch=8 n=48 v=127
243149 On ch=8 n=48 v=0
243180 On ch=8 n=46 v=127
243209 On ch=8 n=46 v=0
243240 On ch=8 n=45 v=127
243269 On ch=8 n=45 v=0
243300 On ch=8 n=44 v=127
243329 On ch=8 n=44 v=0
243360 On ch=8 n=43 v=127
243419 On ch=8 n=43 v=0
243480 On ch=8 n=47 v=127
243539 On ch=8 n=47 v=0
243600 On ch=8 n=48 v=127
243659 On ch=8 n=48 v=0
243840 On ch=8 n=43 v=127
243899 On ch=8 n=43 v=0
243960 On ch=8 n=44 v=127
244019 On ch=8 n=44 v=0
244200 On ch=8 n=45 v=127
244259 On ch=8 n=45 v=0
244320 On ch=8 n=46 v=127
244379 On ch=8 n=46 v=0
244560 On ch=8 n=47 v=127
244619 On ch=8 n=47 v=0
244680 On ch=8 n=48 v=127
244739 On ch=8 n=48 v=0
244920 On ch=8 n=43 v=127
244979 On ch=8 n=43 v=0
245040 On ch=8 n=44 v=127
245099 On ch=8 n=44 v=0
245280 On ch=8 n=45 v=127
245339 On ch=8 n=45 v=0
245520 On ch=8 n=33 v=127
245579 On ch=8 n=33 v=0
245760 On ch=8 n=33 v=127
245819 On ch=8 n=33 v=0
246000 On ch=8 n=33 v=127
246059 On ch=8 n=33 v=0
246240 On ch=8 n=33 v=127
246299 On ch=8 n=33 v=0
246480 On ch=8 n=33 v=127
246539 On ch=8 n=33 v=0
248040 On ch=8 n=36 v=48
248159 On ch=8 n=36 v=0
248400 On ch=8 n=37 v=48
248519 On ch=8 n=37 v=0
248760 On ch=8 n=38 v=48
248879 On ch=8 n=38 v=0
249120 On ch=8 n=27 v=48
249239 On ch=8 n=27 v=0
249300 On ch=8 n=39 v=48
249359 On ch=8 n=39 v=0
249360 On ch=8 n=39 v=48
249419 On ch=8 n=39 v=0
249420 On ch=8 n=39 v=48
249479 On ch=8 n=39 v=0
249480 On ch=8 n=44 v=52
249539 On ch=8 n=44 v=0
249540 On ch=8 n=44 v=56
249599 On ch=8 n=44 v=0
249600 On ch=8 n=44 v=60
249659 On ch=8 n=44 v=0
249660 On ch=8 n=44 v=64
249719 On ch=8 n=44 v=0
249720 On ch=8 n=44 v=68
249779 On ch=8 n=44 v=0
249780 On ch=8 n=44 v=72
249839 On ch=8 n=44 v=0
249840 On ch=8 n=41 v=77
249899 On ch=8 n=41 v=0
249900 On ch=8 n=41 v=82
249959 On ch=8 n=41 v=0
249960 On ch=8 n=41 v=87
250019 On ch=8 n=41 v=0
250020 On ch=8 n=41 v=92
250080 On ch=8 n=43 v=97
250089 On ch=8 n=41 v=0
250140 On ch=8 n=44 v=102
250149 On ch=8 n=43 v=0
250199 On ch=8 n=44 v=0
250200 On ch=8 n=46 v=107
250229 On ch=8 n=46 v=0
250260 On ch=8 n=43 v=112
250289 On ch=8 n=43 v=0
250320 On ch=8 n=39 v=117
250349 On ch=8 n=39 v=0
250380 On ch=8 n=46 v=122
250409 On ch=8 n=46 v=0
250440 On ch=8 n=43 v=125
250469 On ch=8 n=43 v=0
250500 On ch=8 n=39 v=126
250529 On ch=8 n=39 v=0
250560 On ch=8 n=34 v=127
250619 On ch=8 n=34 v=0
250620 On ch=8 n=34 v=127
250679 On ch=8 n=34 v=0
250680 On ch=8 n=34 v=127
250739 On ch=8 n=34 v=0
250740 On ch=8 n=34 v=127
250799 On ch=8 n=34 v=0
250800 On ch=8 n=34 v=127
250859 On ch=8 n=34 v=0
250860 On ch=8 n=34 v=127
250919 On ch=8 n=34 v=0
250920 On ch=8 n=39 v=96
251039 On ch=8 n=39 v=0
251280 On ch=8 n=39 v=96
251399 On ch=8 n=39 v=0
251640 On ch=8 n=39 v=96
251759 On ch=8 n=39 v=0
252000 On ch=8 n=39 v=96
252059 On ch=8 n=39 v=0
252120 On ch=8 n=39 v=96
252179 On ch=8 n=39 v=0
252240 On ch=8 n=39 v=96
252299 On ch=8 n=39 v=0
252360 On ch=8 n=39 v=96
252389 On ch=8 n=39 v=0
252390 On ch=8 n=39 v=48
254519 On ch=8 n=39 v=0
254520 On ch=8 n=37 v=96
255239 On ch=8 n=37 v=0
255240 On ch=8 n=37 v=48
255959 On ch=8 n=37 v=0
255960 On ch=8 n=36 v=127
256019 On ch=8 n=36 v=0
256020 On ch=8 n=36 v=127
256079 On ch=8 n=36 v=0
256080 On ch=8 n=36 v=127
256139 On ch=8 n=36 v=0
256140 On ch=8 n=36 v=127
256199 On ch=8 n=36 v=0
256200 On ch=8 n=36 v=127
256259 On ch=8 n=36 v=0
256260 On ch=8 n=36 v=127
256319 On ch=8 n=36 v=0
256320 On ch=8 n=36 v=127
256379 On ch=8 n=36 v=0
256380 On ch=8 n=36 v=127
256439 On ch=8 n=36 v=0
256440 On ch=8 n=36 v=127
256499 On ch=8 n=36 v=0
256500 On ch=8 n=36 v=127
256559 On ch=8 n=36 v=0
256560 On ch=8 n=36 v=127
256619 On ch=8 n=36 v=0
256620 On ch=8 n=36 v=127
256679 On ch=8 n=36 v=0
256680 On ch=8 n=36 v=48
258839 On ch=8 n=36 v=0
258840 On ch=8 n=35 v=32
260279 On ch=8 n=35 v=0
260280 On ch=8 n=34 v=32
260640 On ch=8 n=46 v=32
260649 On ch=8 n=34 v=0
260999 On ch=8 n=46 v=0
261000 On ch=8 n=44 v=32
261719 On ch=8 n=44 v=0
261720 On ch=8 n=40 v=32
261839 On ch=8 n=40 v=0
265440 On ch=8 n=34 v=48
265560 On ch=8 n=36 v=64
265569 On ch=8 n=34 v=0
265680 On ch=8 n=38 v=96
265689 On ch=8 n=36 v=0
265860 On ch=8 n=36 v=64
265869 On ch=8 n=38 v=0
265920 On ch=8 n=34 v=64
265929 On ch=8 n=36 v=0
266039 On ch=8 n=34 v=0
266040 On ch=8 n=39 v=64
266159 On ch=8 n=39 v=0
268500 On ch=8 n=46 v=32
268559 On ch=8 n=46 v=0
268560 On ch=8 n=43 v=32
268679 On ch=8 n=43 v=0
268860 On ch=8 n=43 v=32
268919 On ch=8 n=43 v=0
268920 On ch=8 n=44 v=32
269039 On ch=8 n=44 v=0
269220 On ch=8 n=44 v=32
269279 On ch=8 n=44 v=0
269280 On ch=8 n=41 v=32
269399 On ch=8 n=41 v=0
269580 On ch=8 n=41 v=32
269639 On ch=8 n=41 v=0
269640 On ch=8 n=38 v=32
269759 On ch=8 n=38 v=0
269940 On ch=8 n=38 v=32
269999 On ch=8 n=38 v=0
270000 On ch=8 n=39 v=32
270119 On ch=8 n=39 v=0
270300 On ch=8 n=39 v=32
270359 On ch=8 n=39 v=0
270360 On ch=8 n=36 v=32
270479 On ch=8 n=36 v=0
270660 On ch=8 n=36 v=32
270719 On ch=8 n=36 v=0
270720 On ch=8 n=35 v=32
270839 On ch=8 n=35 v=0
271020 On ch=8 n=36 v=32
271079 On ch=8 n=36 v=0
271080 On ch=8 n=34 v=32
271139 On ch=8 n=34 v=0
271200 On ch=8 n=38 v=32
271259 On ch=8 n=38 v=0
271320 On ch=8 n=34 v=32
271379 On ch=8 n=34 v=0
271440 On ch=8 n=41 v=32
271499 On ch=8 n=41 v=0
271560 On ch=8 n=34 v=32
271619 On ch=8 n=34 v=0
271680 On ch=8 n=46 v=32
271739 On ch=8 n=46 v=0
271800 On ch=8 n=34 v=32
271859 On ch=8 n=34 v=0
271920 On ch=8 n=50 v=32
271979 On ch=8 n=50 v=0
272040 On ch=8 n=34 v=32
272099 On ch=8 n=34 v=0
272160 On ch=8 n=53 v=96
272189 On ch=8 n=53 v=0
272190 On ch=8 n=53 v=32
272519 On ch=8 n=53 v=0
272520 On ch=8 n=34 v=32
272579 On ch=8 n=34 v=0
272640 On ch=8 n=39 v=32
272699 On ch=8 n=39 v=0
272760 On ch=8 n=34 v=32
272819 On ch=8 n=34 v=0
272880 On ch=8 n=42 v=32
272939 On ch=8 n=42 v=0
273000 On ch=8 n=34 v=32
273059 On ch=8 n=34 v=0
273120 On ch=8 n=46 v=32
273179 On ch=8 n=46 v=0
273240 On ch=8 n=34 v=32
273299 On ch=8 n=34 v=0
273360 On ch=8 n=39 v=32
273419 On ch=8 n=39 v=0
273480 On ch=8 n=34 v=32
273539 On ch=8 n=34 v=0
273600 On ch=8 n=42 v=96
273629 On ch=8 n=42 v=0
273630 On ch=8 n=42 v=32
274079 On ch=8 n=42 v=0
274080 On ch=8 n=41 v=32
274139 On ch=8 n=41 v=0
274200 On ch=8 n=34 v=32
274259 On ch=8 n=34 v=0
274320 On ch=8 n=44 v=96
274349 On ch=8 n=44 v=0
274350 On ch=8 n=44 v=32
274799 On ch=8 n=44 v=0
274800 On ch=8 n=43 v=32
274859 On ch=8 n=43 v=0
274920 On ch=8 n=34 v=32
274979 On ch=8 n=34 v=0
275040 On ch=8 n=46 v=96
275069 On ch=8 n=46 v=0
275070 On ch=8 n=46 v=32
275519 On ch=8 n=46 v=0
275520 On ch=8 n=45 v=32
275579 On ch=8 n=45 v=0
275640 On ch=8 n=34 v=34
275699 On ch=8 n=34 v=0
275760 On ch=8 n=45 v=35
275819 On ch=8 n=45 v=0
275880 On ch=8 n=34 v=36
275939 On ch=8 n=34 v=0
276000 On ch=8 n=45 v=37
276059 On ch=8 n=45 v=0
276120 On ch=8 n=34 v=38
276179 On ch=8 n=34 v=0
276240 On ch=8 n=45 v=40
276299 On ch=8 n=45 v=0
276360 On ch=8 n=34 v=41
276419 On ch=8 n=34 v=0
276480 On ch=8 n=45 v=42
276539 On ch=8 n=45 v=0
276600 On ch=8 n=34 v=43
276659 On ch=8 n=34 v=0
276720 On ch=8 n=45 v=45
276779 On ch=8 n=45 v=0
276840 On ch=8 n=34 v=47
276899 On ch=8 n=34 v=0
276960 On ch=8 n=46 v=52
277019 On ch=8 n=46 v=0
277080 On ch=8 n=34 v=56
277139 On ch=8 n=34 v=0
277200 On ch=8 n=46 v=60
277259 On ch=8 n=46 v=0
277320 On ch=8 n=34 v=64
277379 On ch=8 n=34 v=0
277440 On ch=8 n=46 v=68
277499 On ch=8 n=46 v=0
277560 On ch=8 n=35 v=64
277619 On ch=8 n=35 v=0
277680 On ch=8 n=47 v=60
277739 On ch=8 n=47 v=0
277800 On ch=8 n=35 v=56
277859 On ch=8 n=35 v=0
277920 On ch=8 n=47 v=52
277979 On ch=8 n=47 v=0
278040 On ch=8 n=35 v=48
278099 On ch=8 n=35 v=0
278160 On ch=8 n=47 v=48
278219 On ch=8 n=47 v=0
278280 On ch=8 n=36 v=48
278339 On ch=8 n=36 v=0
278760 On ch=8 n=36 v=48
278819 On ch=8 n=36 v=0
278880 On ch=8 n=36 v=48
278939 On ch=8 n=36 v=0
279000 On ch=8 n=32 v=48
279059 On ch=8 n=32 v=0
279480 On ch=8 n=32 v=48
279539 On ch=8 n=32 v=0
279600 On ch=8 n=32 v=48
279659 On ch=8 n=32 v=0
279720 On ch=8 n=34 v=48
279779 On ch=8 n=34 v=0
280560 On ch=8 n=34 v=62
280619 On ch=8 n=34 v=0
280680 On ch=8 n=34 v=64
280739 On ch=8 n=34 v=0
280800 On ch=8 n=34 v=48
280859 On ch=8 n=34 v=0
280920 On ch=8 n=34 v=48
280979 On ch=8 n=34 v=0
281040 On ch=8 n=34 v=48
281099 On ch=8 n=34 v=0
281160 On ch=8 n=39 v=48
281219 On ch=8 n=39 v=0
281880 On ch=8 n=39 v=48
281939 On ch=8 n=39 v=0
282600 On ch=8 n=38 v=48
282659 On ch=8 n=38 v=0
283320 On ch=8 n=34 v=48
283379 On ch=8 n=34 v=0
283800 On ch=8 n=34 v=48
283859 On ch=8 n=34 v=0
283920 On ch=8 n=34 v=48
283979 On ch=8 n=34 v=0
286920 On ch=8 n=39 v=48
287160 On ch=8 n=43 v=52
287169 On ch=8 n=39 v=0
287280 On ch=8 n=39 v=56
287289 On ch=8 n=43 v=0
287520 On ch=8 n=34 v=60
287529 On ch=8 n=39 v=0
287639 On ch=8 n=34 v=0
287640 On ch=8 n=39 v=62
287760 On ch=8 n=43 v=64
287769 On ch=8 n=39 v=0
287879 On ch=8 n=43 v=0
287880 On ch=8 n=46 v=66
287939 On ch=8 n=46 v=0
288000 On ch=8 n=46 v=68
288359 On ch=8 n=46 v=0
288360 On ch=8 n=41 v=74
288600 On ch=8 n=44 v=78
288609 On ch=8 n=41 v=0
288720 On ch=8 n=41 v=80
288729 On ch=8 n=44 v=0
288960 On ch=8 n=34 v=84
288969 On ch=8 n=41 v=0
289079 On ch=8 n=34 v=0
289080 On ch=8 n=41 v=86
289200 On ch=8 n=44 v=88
289209 On ch=8 n=41 v=0
289319 On ch=8 n=44 v=0
289320 On ch=8 n=46 v=90
289379 On ch=8 n=46 v=0
289440 On ch=8 n=46 v=92
289859 On ch=8 n=46 v=0
289860 On ch=8 n=39 v=96
289890 On ch=8 n=41 v=96
289899 On ch=8 n=39 v=0
289920 On ch=8 n=43 v=96
289929 On ch=8 n=41 v=0
289949 On ch=8 n=43 v=0
289980 On ch=8 n=43 v=96
290010 On ch=8 n=44 v=96
290019 On ch=8 n=43 v=0
290040 On ch=8 n=46 v=96
290049 On ch=8 n=44 v=0
290069 On ch=8 n=46 v=0
290100 On ch=8 n=48 v=96
290130 On ch=8 n=50 v=96
290139 On ch=8 n=48 v=0
290160 On ch=8 n=51 v=96
290169 On ch=8 n=50 v=0
290189 On ch=8 n=51 v=0
290220 On ch=8 n=43 v=96
290250 On ch=8 n=44 v=96
290259 On ch=8 n=43 v=0
290280 On ch=8 n=46 v=96
290289 On ch=8 n=44 v=0
290309 On ch=8 n=46 v=0
290340 On ch=8 n=46 v=96
290370 On ch=8 n=48 v=96
290379 On ch=8 n=46 v=0
290400 On ch=8 n=50 v=96
290409 On ch=8 n=48 v=0
290429 On ch=8 n=50 v=0
290460 On ch=8 n=51 v=96
290490 On ch=8 n=53 v=96
290499 On ch=8 n=51 v=0
290520 On ch=8 n=55 v=112
290529 On ch=8 n=53 v=0
290549 On ch=8 n=55 v=0
290580 On ch=8 n=53 v=96
290609 On ch=8 n=53 v=0
290640 On ch=8 n=51 v=96
290669 On ch=8 n=51 v=0
290700 On ch=8 n=50 v=96
290729 On ch=8 n=50 v=0
290760 On ch=8 n=48 v=96
290789 On ch=8 n=48 v=0
290820 On ch=8 n=46 v=96
290849 On ch=8 n=46 v=0
290880 On ch=8 n=44 v=96
290909 On ch=8 n=44 v=0
290940 On ch=8 n=43 v=96
290969 On ch=8 n=43 v=0
291000 On ch=8 n=41 v=96
291029 On ch=8 n=41 v=0
291060 On ch=8 n=39 v=96
291089 On ch=8 n=39 v=0
291120 On ch=8 n=38 v=96
291149 On ch=8 n=38 v=0
291180 On ch=8 n=36 v=96
291209 On ch=8 n=36 v=0
291240 On ch=8 n=34 v=96
291269 On ch=8 n=34 v=0
291300 On ch=8 n=34 v=96
291330 On ch=8 n=36 v=96
291339 On ch=8 n=34 v=0
291360 On ch=8 n=38 v=96
291369 On ch=8 n=36 v=0
291389 On ch=8 n=38 v=0
291420 On ch=8 n=38 v=96
291450 On ch=8 n=39 v=96
291459 On ch=8 n=38 v=0
291480 On ch=8 n=41 v=96
291489 On ch=8 n=39 v=0
291509 On ch=8 n=41 v=0
291540 On ch=8 n=41 v=96
291570 On ch=8 n=43 v=96
291579 On ch=8 n=41 v=0
291600 On ch=8 n=44 v=96
291609 On ch=8 n=43 v=0
291629 On ch=8 n=44 v=0
291660 On ch=8 n=38 v=96
291690 On ch=8 n=39 v=96
291699 On ch=8 n=38 v=0
291720 On ch=8 n=41 v=96
291729 On ch=8 n=39 v=0
291749 On ch=8 n=41 v=0
291780 On ch=8 n=41 v=96
291810 On ch=8 n=43 v=96
291819 On ch=8 n=41 v=0
291840 On ch=8 n=44 v=96
291849 On ch=8 n=43 v=0
291869 On ch=8 n=44 v=0
291900 On ch=8 n=44 v=96
291930 On ch=8 n=46 v=96
291939 On ch=8 n=44 v=0
291960 On ch=8 n=48 v=112
291969 On ch=8 n=46 v=0
291989 On ch=8 n=48 v=0
292020 On ch=8 n=46 v=96
292049 On ch=8 n=46 v=0
292080 On ch=8 n=44 v=96
292109 On ch=8 n=44 v=0
292140 On ch=8 n=43 v=96
292169 On ch=8 n=43 v=0
292200 On ch=8 n=41 v=96
292229 On ch=8 n=41 v=0
292260 On ch=8 n=39 v=96
292289 On ch=8 n=39 v=0
292320 On ch=8 n=38 v=96
292349 On ch=8 n=38 v=0
292380 On ch=8 n=36 v=96
292409 On ch=8 n=36 v=0
292440 On ch=8 n=34 v=96
292469 On ch=8 n=34 v=0
292500 On ch=8 n=32 v=96
292529 On ch=8 n=32 v=0
292560 On ch=8 n=31 v=96
292589 On ch=8 n=31 v=0
292620 On ch=8 n=29 v=96
292649 On ch=8 n=29 v=0
292680 On ch=8 n=31 v=96
292739 On ch=8 n=31 v=0
292740 On ch=8 n=31 v=96
292799 On ch=8 n=31 v=0
292800 On ch=8 n=34 v=96
292859 On ch=8 n=34 v=0
292860 On ch=8 n=34 v=96
292919 On ch=8 n=34 v=0
292920 On ch=8 n=37 v=96
292979 On ch=8 n=37 v=0
292980 On ch=8 n=37 v=96
293039 On ch=8 n=37 v=0
293040 On ch=8 n=37 v=112
293399 On ch=8 n=37 v=0
293400 On ch=8 n=32 v=112
293579 On ch=8 n=32 v=0
293580 On ch=8 n=32 v=96
293609 On ch=8 n=32 v=0
293640 On ch=8 n=36 v=96
293669 On ch=8 n=36 v=0
293700 On ch=8 n=41 v=96
293729 On ch=8 n=41 v=0
293760 On ch=8 n=33 v=112
293939 On ch=8 n=33 v=0
293940 On ch=8 n=33 v=96
293969 On ch=8 n=33 v=0
294000 On ch=8 n=36 v=96
294029 On ch=8 n=36 v=0
294060 On ch=8 n=39 v=96
294089 On ch=8 n=39 v=0
294120 On ch=8 n=34 v=112
294299 On ch=8 n=34 v=0
294300 On ch=8 n=34 v=96
294329 On ch=8 n=34 v=0
294360 On ch=8 n=39 v=96
294389 On ch=8 n=39 v=0
294420 On ch=8 n=43 v=96
294449 On ch=8 n=43 v=0
294480 On ch=8 n=35 v=96
294539 On ch=8 n=35 v=0
294540 On ch=8 n=38 v=96
294599 On ch=8 n=38 v=0
294600 On ch=8 n=41 v=96
294659 On ch=8 n=41 v=0
294660 On ch=8 n=35 v=96
294719 On ch=8 n=35 v=0
294720 On ch=8 n=38 v=96
294779 On ch=8 n=38 v=0
294780 On ch=8 n=41 v=96
294839 On ch=8 n=41 v=0
294840 On ch=8 n=36 v=96
294899 On ch=8 n=36 v=0
294900 On ch=8 n=39 v=96
294959 On ch=8 n=39 v=0
294960 On ch=8 n=43 v=96
295019 On ch=8 n=43 v=0
295020 On ch=8 n=36 v=96
295079 On ch=8 n=36 v=0
295080 On ch=8 n=39 v=96
295139 On ch=8 n=39 v=0
295140 On ch=8 n=43 v=96
295199 On ch=8 n=43 v=0
295200 On ch=8 n=32 v=96
295259 On ch=8 n=32 v=0
295260 On ch=8 n=36 v=96
295319 On ch=8 n=36 v=0
295320 On ch=8 n=41 v=96
295379 On ch=8 n=41 v=0
295380 On ch=8 n=32 v=96
295439 On ch=8 n=32 v=0
295440 On ch=8 n=36 v=96
295499 On ch=8 n=36 v=0
295500 On ch=8 n=41 v=96
295559 On ch=8 n=41 v=0
295560 On ch=8 n=34 v=127
295619 On ch=8 n=34 v=0
295620 On ch=8 n=39 v=127
295679 On ch=8 n=39 v=0
295680 On ch=8 n=43 v=127
295739 On ch=8 n=43 v=0
295740 On ch=8 n=34 v=127
295799 On ch=8 n=34 v=0
295800 On ch=8 n=39 v=127
295859 On ch=8 n=39 v=0
295860 On ch=8 n=43 v=127
295919 On ch=8 n=43 v=0
295920 On ch=8 n=46 v=127
295979 On ch=8 n=46 v=0
295980 On ch=8 n=34 v=127
296039 On ch=8 n=34 v=0
296040 On ch=8 n=34 v=127
296099 On ch=8 n=34 v=0
296100 On ch=8 n=34 v=127
296159 On ch=8 n=34 v=0
296160 On ch=8 n=34 v=127
296219 On ch=8 n=34 v=0
296220 On ch=8 n=34 v=127
296279 On ch=8 n=34 v=0
296280 On ch=8 n=39 v=48
296399 On ch=8 n=39 v=0
297720 On ch=8 n=39 v=48
298499 On ch=8 n=39 v=0
298500 On ch=8 n=46 v=74
298529 On ch=8 n=46 v=0
298560 On ch=8 n=44 v=76
298589 On ch=8 n=44 v=0
298620 On ch=8 n=43 v=78
298649 On ch=8 n=43 v=0
298680 On ch=8 n=41 v=80
298709 On ch=8 n=41 v=0
298740 On ch=8 n=39 v=82
298769 On ch=8 n=39 v=0
298800 On ch=8 n=38 v=84
298829 On ch=8 n=38 v=0
298860 On ch=8 n=39 v=86
298889 On ch=8 n=39 v=0
298920 On ch=8 n=41 v=88
298949 On ch=8 n=41 v=0
298980 On ch=8 n=39 v=90
299009 On ch=8 n=39 v=0
299040 On ch=8 n=38 v=92
299069 On ch=8 n=38 v=0
299100 On ch=8 n=36 v=94
299129 On ch=8 n=36 v=0
299160 On ch=8 n=34 v=96
299279 On ch=8 n=34 v=0
299280 On ch=8 n=46 v=96
299639 On ch=8 n=46 v=0
299640 On ch=8 n=46 v=96
299999 On ch=8 n=46 v=0
300000 On ch=8 n=46 v=96
300239 On ch=8 n=46 v=0
300240 On ch=8 n=46 v=96
300479 On ch=8 n=46 v=0
300480 On ch=8 n=46 v=96
300539 On ch=8 n=46 v=0
300600 On ch=8 n=46 v=96
300659 On ch=8 n=46 v=0
300720 On ch=8 n=34 v=127
300779 On ch=8 n=34 v=0
300840 On ch=8 n=34 v=127
300899 On ch=8 n=34 v=0
300960 On ch=8 n=34 v=127
301019 On ch=8 n=34 v=0
301080 On ch=8 n=34 v=127
301139 On ch=8 n=34 v=0
301200 On ch=8 n=34 v=127
301259 On ch=8 n=34 v=0
301320 On ch=8 n=34 v=127
301379 On ch=8 n=34 v=0
301440 On ch=8 n=34 v=127
301499 On ch=8 n=34 v=0
301560 On ch=8 n=34 v=127
301619 On ch=8 n=34 v=0
301680 On ch=8 n=34 v=127
301739 On ch=8 n=34 v=0
301800 On ch=8 n=34 v=127
301859 On ch=8 n=34 v=0
301920 On ch=8 n=34 v=127
301979 On ch=8 n=34 v=0
302040 On ch=8 n=39 v=127
302159 On ch=8 n=39 v=0
302400 On ch=8 n=51 v=127
302519 On ch=8 n=51 v=0
302760 On ch=8 n=39 v=127
302879 On ch=8 n=39 v=0
0 PrCh ch=9 p=45
0 Par ch=9 c=7 v=127
0 Par ch=9 c=10 v=77
0 Par ch=9 c=93 v=0
0 Par ch=9 c=91 v=0
30720 On ch=9 n=39 v=48
30839 On ch=9 n=39 v=0
30840 On ch=9 n=39 v=48
30959 On ch=9 n=39 v=0
30960 On ch=9 n=34 v=48
31079 On ch=9 n=34 v=0
31920 On ch=9 n=41 v=96
32039 On ch=9 n=41 v=0
32160 On ch=9 n=41 v=80
32279 On ch=9 n=41 v=0
32280 On ch=9 n=41 v=64
32399 On ch=9 n=41 v=0
32400 On ch=9 n=34 v=48
32519 On ch=9 n=34 v=0
85080 On ch=9 n=39 v=48
85199 On ch=9 n=39 v=0
85200 On ch=9 n=39 v=48
85319 On ch=9 n=39 v=0
85320 On ch=9 n=34 v=48
85439 On ch=9 n=34 v=0
86280 On ch=9 n=41 v=96
86399 On ch=9 n=41 v=0
86520 On ch=9 n=41 v=80
86639 On ch=9 n=41 v=0
86640 On ch=9 n=41 v=64
86759 On ch=9 n=41 v=0
86760 On ch=9 n=34 v=48
86879 On ch=9 n=34 v=0
156720 On ch=9 n=40 v=48
156779 On ch=9 n=40 v=0
156840 On ch=9 n=40 v=48
156899 On ch=9 n=40 v=0
156960 On ch=9 n=35 v=48
157019 On ch=9 n=35 v=0
157440 On ch=9 n=35 v=48
157499 On ch=9 n=35 v=0
157560 On ch=9 n=35 v=48
157619 On ch=9 n=35 v=0
157680 On ch=9 n=40 v=48
157739 On ch=9 n=40 v=0
158160 On ch=9 n=40 v=48
158219 On ch=9 n=40 v=0
158280 On ch=9 n=40 v=48
158339 On ch=9 n=40 v=0
158400 On ch=9 n=35 v=48
158459 On ch=9 n=35 v=0
158880 On ch=9 n=35 v=48
158939 On ch=9 n=35 v=0
159000 On ch=9 n=40 v=48
159059 On ch=9 n=40 v=0
159120 On ch=9 n=33 v=48
159179 On ch=9 n=33 v=0
159600 On ch=9 n=57 v=48
159600 On ch=9 n=45 v=48
159659 On ch=9 n=45 v=0
159659 On ch=9 n=57 v=0
159720 On ch=9 n=57 v=48
159720 On ch=9 n=45 v=48
159779 On ch=9 n=45 v=0
159779 On ch=9 n=57 v=0
159840 On ch=9 n=52 v=48
159840 On ch=9 n=40 v=48
159899 On ch=9 n=40 v=0
159899 On ch=9 n=52 v=0
160320 On ch=9 n=40 v=48
160320 On ch=9 n=52 v=48
160379 On ch=9 n=52 v=0
160379 On ch=9 n=40 v=0
160440 On ch=9 n=52 v=48
160440 On ch=9 n=40 v=48
160499 On ch=9 n=40 v=0
160499 On ch=9 n=52 v=0
160560 On ch=9 n=45 v=48
160560 On ch=9 n=57 v=48
160619 On ch=9 n=57 v=0
160619 On ch=9 n=45 v=0
161040 On ch=9 n=57 v=48
161040 On ch=9 n=45 v=48
161099 On ch=9 n=45 v=0
161099 On ch=9 n=57 v=0
161160 On ch=9 n=45 v=48
161160 On ch=9 n=57 v=48
161219 On ch=9 n=57 v=0
161219 On ch=9 n=45 v=0
161280 On ch=9 n=52 v=48
161280 On ch=9 n=40 v=48
161339 On ch=9 n=40 v=0
161339 On ch=9 n=52 v=0
170400 On ch=9 n=39 v=48
170519 On ch=9 n=39 v=0
170520 On ch=9 n=39 v=48
170639 On ch=9 n=39 v=0
170640 On ch=9 n=34 v=48
170759 On ch=9 n=34 v=0
171120 On ch=9 n=46 v=48
171239 On ch=9 n=46 v=0
171240 On ch=9 n=46 v=48
171359 On ch=9 n=46 v=0
171360 On ch=9 n=51 v=48
171479 On ch=9 n=51 v=0
190320 On ch=9 n=58 v=32
190320 On ch=9 n=46 v=32
190320 On ch=9 n=34 v=32
190320 On ch=9 n=34 v=32
190439 On ch=9 n=34 v=0
190439 On ch=9 n=58 v=0
190439 On ch=9 n=46 v=0
190439 On ch=9 n=34 v=0
190680 On ch=9 n=58 v=32
190680 On ch=9 n=46 v=32
190680 On ch=9 n=34 v=32
190799 On ch=9 n=34 v=0
190799 On ch=9 n=46 v=0
190799 On ch=9 n=58 v=0
191040 On ch=9 n=58 v=32
191040 On ch=9 n=46 v=32
191040 On ch=9 n=34 v=32
191159 On ch=9 n=34 v=0
191159 On ch=9 n=46 v=0
191159 On ch=9 n=58 v=0
191400 On ch=9 n=58 v=32
191400 On ch=9 n=46 v=32
191400 On ch=9 n=34 v=32
191519 On ch=9 n=34 v=0
191519 On ch=9 n=46 v=0
191519 On ch=9 n=58 v=0
192480 On ch=9 n=58 v=32
192480 On ch=9 n=46 v=32
192480 On ch=9 n=34 v=32
192599 On ch=9 n=34 v=0
192599 On ch=9 n=46 v=0
192599 On ch=9 n=58 v=0
192840 On ch=9 n=58 v=32
192840 On ch=9 n=46 v=32
192840 On ch=9 n=34 v=32
192959 On ch=9 n=34 v=0
192959 On ch=9 n=46 v=0
192959 On ch=9 n=58 v=0
193920 On ch=9 n=58 v=32
193920 On ch=9 n=46 v=32
193920 On ch=9 n=34 v=32
194039 On ch=9 n=34 v=0
194039 On ch=9 n=46 v=0
194039 On ch=9 n=58 v=0
194280 On ch=9 n=58 v=32
194280 On ch=9 n=46 v=32
194280 On ch=9 n=34 v=32
194399 On ch=9 n=34 v=0
194399 On ch=9 n=46 v=0
194399 On ch=9 n=58 v=0
200640 On ch=9 n=36 v=48
200759 On ch=9 n=36 v=0
200760 On ch=9 n=36 v=48
200879 On ch=9 n=36 v=0
200880 On ch=9 n=41 v=48
200999 On ch=9 n=41 v=0
201600 On ch=9 n=53 v=48
201600 On ch=9 n=41 v=48
201719 On ch=9 n=41 v=0
201719 On ch=9 n=53 v=0
201840 On ch=9 n=48 v=48
201840 On ch=9 n=36 v=48
201959 On ch=9 n=36 v=0
201959 On ch=9 n=48 v=0
201960 On ch=9 n=53 v=48
201960 On ch=9 n=41 v=48
202079 On ch=9 n=41 v=0
202079 On ch=9 n=53 v=0
202080 On ch=9 n=57 v=48
202080 On ch=9 n=45 v=48
202199 On ch=9 n=45 v=0
202199 On ch=9 n=57 v=0
202200 On ch=9 n=60 v=48
202200 On ch=9 n=48 v=48
202319 On ch=9 n=48 v=0
202319 On ch=9 n=60 v=0
202320 On ch=9 n=60 v=48
202320 On ch=9 n=48 v=48
202439 On ch=9 n=48 v=0
202439 On ch=9 n=60 v=0
202560 On ch=9 n=58 v=48
202560 On ch=9 n=46 v=48
202679 On ch=9 n=46 v=0
202679 On ch=9 n=58 v=0
202680 On ch=9 n=55 v=48
202680 On ch=9 n=43 v=48
202799 On ch=9 n=43 v=0
202799 On ch=9 n=55 v=0
202800 On ch=9 n=52 v=48
202800 On ch=9 n=40 v=48
202919 On ch=9 n=40 v=0
202919 On ch=9 n=52 v=0
202920 On ch=9 n=48 v=48
202920 On ch=9 n=36 v=48
203039 On ch=9 n=36 v=0
203039 On ch=9 n=48 v=0
203040 On ch=9 n=53 v=48
203040 On ch=9 n=41 v=48
203159 On ch=9 n=41 v=0
203159 On ch=9 n=53 v=0
203760 On ch=9 n=49 v=48
203760 On ch=9 n=37 v=48
203879 On ch=9 n=37 v=0
203879 On ch=9 n=49 v=0
204480 On ch=9 n=61 v=48
204480 On ch=9 n=49 v=48
204480 On ch=9 n=37 v=48
204599 On ch=9 n=37 v=0
204599 On ch=9 n=49 v=0
204599 On ch=9 n=61 v=0
204720 On ch=9 n=68 v=48
204720 On ch=9 n=61 v=48
204720 On ch=9 n=49 v=48
204839 On ch=9 n=49 v=0
204839 On ch=9 n=61 v=0
204839 On ch=9 n=68 v=0
204840 On ch=9 n=73 v=48
204840 On ch=9 n=56 v=48
204840 On ch=9 n=44 v=48
204959 On ch=9 n=44 v=0
204959 On ch=9 n=56 v=0
204959 On ch=9 n=73 v=0
204960 On ch=9 n=77 v=48
204960 On ch=9 n=53 v=48
204960 On ch=9 n=41 v=48
205079 On ch=9 n=41 v=0
205079 On ch=9 n=53 v=0
205079 On ch=9 n=77 v=0
205080 On ch=9 n=80 v=48
205080 On ch=9 n=49 v=48
205080 On ch=9 n=37 v=48
205199 On ch=9 n=37 v=0
205199 On ch=9 n=49 v=0
205199 On ch=9 n=80 v=0
205200 On ch=9 n=80 v=48
205200 On ch=9 n=48 v=48
205200 On ch=9 n=36 v=48
205319 On ch=9 n=36 v=0
205319 On ch=9 n=48 v=0
205319 On ch=9 n=80 v=0
205440 On ch=9 n=78 v=48
205440 On ch=9 n=48 v=48
205440 On ch=9 n=36 v=48
205559 On ch=9 n=36 v=0
205559 On ch=9 n=48 v=0
205559 On ch=9 n=78 v=0
205560 On ch=9 n=75 v=48
205560 On ch=9 n=51 v=48
205560 On ch=9 n=39 v=48
205679 On ch=9 n=39 v=0
205679 On ch=9 n=51 v=0
205679 On ch=9 n=75 v=0
205680 On ch=9 n=72 v=48
205680 On ch=9 n=56 v=48
205680 On ch=9 n=44 v=48
205799 On ch=9 n=44 v=0
205799 On ch=9 n=56 v=0
205799 On ch=9 n=72 v=0
205800 On ch=9 n=66 v=48
205800 On ch=9 n=48 v=48
205800 On ch=9 n=60 v=48
205919 On ch=9 n=60 v=0
205919 On ch=9 n=48 v=0
205919 On ch=9 n=66 v=0
205920 On ch=9 n=65 v=48
205920 On ch=9 n=61 v=48
205920 On ch=9 n=49 v=48
206039 On ch=9 n=49 v=0
206039 On ch=9 n=61 v=0
206039 On ch=9 n=65 v=0
230160 On ch=9 n=44 v=48
230279 On ch=9 n=44 v=0
230280 On ch=9 n=44 v=48
230399 On ch=9 n=44 v=0
230400 On ch=9 n=41 v=48
230519 On ch=9 n=41 v=0
231360 On ch=9 n=34 v=48
231479 On ch=9 n=34 v=0
231600 On ch=9 n=34 v=56
231719 On ch=9 n=34 v=0
231720 On ch=9 n=34 v=52
231839 On ch=9 n=34 v=0
231960 On ch=9 n=39 v=48
232079 On ch=9 n=39 v=0
262920 On ch=9 n=48 v=32
262920 On ch=9 n=36 v=32
263039 On ch=9 n=36 v=0
263039 On ch=9 n=48 v=0
263040 On ch=9 n=48 v=32
263040 On ch=9 n=36 v=32
263159 On ch=9 n=36 v=0
263159 On ch=9 n=48 v=0
263160 On ch=9 n=53 v=32
263160 On ch=9 n=41 v=32
263279 On ch=9 n=41 v=0
263279 On ch=9 n=53 v=0
263640 On ch=9 n=53 v=32
263640 On ch=9 n=41 v=32
263759 On ch=9 n=41 v=0
263759 On ch=9 n=53 v=0
263760 On ch=9 n=53 v=32
263760 On ch=9 n=41 v=32
263879 On ch=9 n=41 v=0
263879 On ch=9 n=53 v=0
263880 On ch=9 n=48 v=32
263880 On ch=9 n=36 v=32
263999 On ch=9 n=36 v=0
263999 On ch=9 n=48 v=0
264360 On ch=9 n=48 v=32
264360 On ch=9 n=36 v=32
264479 On ch=9 n=36 v=0
264479 On ch=9 n=48 v=0
264480 On ch=9 n=48 v=32
264480 On ch=9 n=36 v=32
264599 On ch=9 n=36 v=0
264599 On ch=9 n=48 v=0
264600 On ch=9 n=53 v=32
264600 On ch=9 n=41 v=32
264719 On ch=9 n=41 v=0
264719 On ch=9 n=53 v=0
265080 On ch=9 n=53 v=32
265080 On ch=9 n=41 v=32
265199 On ch=9 n=41 v=0
265199 On ch=9 n=53 v=0
265200 On ch=9 n=53 v=32
265200 On ch=9 n=41 v=32
265319 On ch=9 n=41 v=0
265319 On ch=9 n=53 v=0
266520 On ch=9 n=63 v=48
266520 On ch=9 n=39 v=48
266639 On ch=9 n=39 v=0
266639 On ch=9 n=63 v=0
266640 On ch=9 n=63 v=48
266640 On ch=9 n=39 v=48
266759 On ch=9 n=39 v=0
266759 On ch=9 n=63 v=0
266760 On ch=9 n=58 v=48
266760 On ch=9 n=34 v=48
266879 On ch=9 n=34 v=0
266879 On ch=9 n=58 v=0
267240 On ch=9 n=58 v=48
267240 On ch=9 n=34 v=48
267359 On ch=9 n=34 v=0
267359 On ch=9 n=58 v=0
267360 On ch=9 n=58 v=48
267360 On ch=9 n=34 v=48
267479 On ch=9 n=34 v=0
267479 On ch=9 n=58 v=0
267480 On ch=9 n=63 v=48
267480 On ch=9 n=39 v=48
267599 On ch=9 n=39 v=0
267599 On ch=9 n=63 v=0
267960 On ch=9 n=63 v=48
267960 On ch=9 n=39 v=48
268079 On ch=9 n=39 v=0
268079 On ch=9 n=63 v=0
268080 On ch=9 n=63 v=48
268080 On ch=9 n=39 v=48
268199 On ch=9 n=39 v=0
268199 On ch=9 n=63 v=0
268200 On ch=9 n=58 v=48
268200 On ch=9 n=34 v=48
268319 On ch=9 n=34 v=0
268319 On ch=9 n=58 v=0
284040 On ch=9 n=39 v=48
284159 On ch=9 n=39 v=0
284760 On ch=9 n=39 v=48
284879 On ch=9 n=39 v=0
285480 On ch=9 n=38 v=48
285599 On ch=9 n=38 v=0
286200 On ch=9 n=34 v=48
286319 On ch=9 n=34 v=0
286680 On ch=9 n=34 v=48
286799 On ch=9 n=34 v=0
286800 On ch=9 n=34 v=48
286919 On ch=9 n=34 v=0
0 PrCh ch=8 p=48
0 Par ch=8 c=7 v=127
0 Par ch=8 c=10 v=46
0 Par ch=8 c=93 v=0
0 Par ch=8 c=91 v=0
0 On ch=8 n=70 v=127
0 On ch=8 n=75 v=96
0 On ch=8 n=55 v=127
0 On ch=8 n=63 v=127
0 On ch=8 n=70 v=127
0 On ch=8 n=79 v=96
29 On ch=8 n=70 v=0
59 On ch=8 n=75 v=0
59 On ch=8 n=55 v=0
59 On ch=8 n=70 v=0
59 On ch=8 n=79 v=0
59 On ch=8 n=63 v=0
360 On ch=8 n=79 v=96
360 On ch=8 n=75 v=96
360 On ch=8 n=70 v=127
360 On ch=8 n=63 v=127
360 On ch=8 n=55 v=127
419 On ch=8 n=55 v=0
419 On ch=8 n=70 v=0
419 On ch=8 n=79 v=0
419 On ch=8 n=75 v=0
419 On ch=8 n=63 v=0
720 On ch=8 n=67 v=48
779 On ch=8 n=67 v=0
780 On ch=8 n=67 v=48
839 On ch=8 n=67 v=0
840 On ch=8 n=67 v=48
899 On ch=8 n=67 v=0
900 On ch=8 n=67 v=48
959 On ch=8 n=67 v=0
960 On ch=8 n=67 v=48
1019 On ch=8 n=67 v=0
1020 On ch=8 n=67 v=48
1079 On ch=8 n=67 v=0
1080 On ch=8 n=67 v=48
1139 On ch=8 n=67 v=0
1140 On ch=8 n=67 v=48
1199 On ch=8 n=67 v=0
1200 On ch=8 n=67 v=48
1259 On ch=8 n=67 v=0
1260 On ch=8 n=67 v=48
1319 On ch=8 n=67 v=0
1320 On ch=8 n=67 v=48
1379 On ch=8 n=67 v=0
1380 On ch=8 n=67 v=48
1439 On ch=8 n=67 v=0
1440 On ch=8 n=67 v=48
1499 On ch=8 n=67 v=0
1500 On ch=8 n=67 v=48
1559 On ch=8 n=67 v=0
1560 On ch=8 n=67 v=48
1619 On ch=8 n=67 v=0
1620 On ch=8 n=67 v=48
1679 On ch=8 n=67 v=0
1680 On ch=8 n=67 v=48
1739 On ch=8 n=67 v=0
1740 On ch=8 n=67 v=48
1799 On ch=8 n=67 v=0
1800 On ch=8 n=67 v=48
1859 On ch=8 n=67 v=0
1860 On ch=8 n=67 v=48
1919 On ch=8 n=67 v=0
1920 On ch=8 n=67 v=48
1979 On ch=8 n=67 v=0
1980 On ch=8 n=67 v=48
2039 On ch=8 n=67 v=0
2040 On ch=8 n=67 v=48
2099 On ch=8 n=67 v=0
2100 On ch=8 n=67 v=48
2159 On ch=8 n=67 v=0
2160 On ch=8 n=67 v=48
2219 On ch=8 n=67 v=0
2220 On ch=8 n=79 v=48
2220 On ch=8 n=67 v=51
2279 On ch=8 n=67 v=0
2280 On ch=8 n=67 v=54
2339 On ch=8 n=67 v=0
2339 On ch=8 n=79 v=0
2340 On ch=8 n=79 v=54
2340 On ch=8 n=67 v=57
2399 On ch=8 n=67 v=0
2400 On ch=8 n=67 v=60
2459 On ch=8 n=67 v=0
2459 On ch=8 n=79 v=0
2460 On ch=8 n=79 v=60
2460 On ch=8 n=67 v=63
2519 On ch=8 n=67 v=0
2520 On ch=8 n=67 v=66
2579 On ch=8 n=67 v=0
2579 On ch=8 n=79 v=0
2580 On ch=8 n=79 v=66
2580 On ch=8 n=67 v=69
2639 On ch=8 n=67 v=0
2640 On ch=8 n=67 v=72
2699 On ch=8 n=67 v=0
2699 On ch=8 n=79 v=0
2700 On ch=8 n=67 v=75
2700 On ch=8 n=79 v=72
2759 On ch=8 n=67 v=0
2760 On ch=8 n=67 v=78
2819 On ch=8 n=67 v=0
2819 On ch=8 n=79 v=0
2820 On ch=8 n=79 v=78
2820 On ch=8 n=67 v=81
2879 On ch=8 n=67 v=0
2880 On ch=8 n=67 v=81
2940 On ch=8 n=58 v=81
2949 On ch=8 n=67 v=0
3000 On ch=8 n=67 v=81
3009 On ch=8 n=58 v=0
3060 On ch=8 n=58 v=81
3069 On ch=8 n=67 v=0
3120 On ch=8 n=67 v=81
3129 On ch=8 n=58 v=0
3180 On ch=8 n=58 v=81
3189 On ch=8 n=67 v=0
3239 On ch=8 n=58 v=0
3239 On ch=8 n=79 v=0
3240 On ch=8 n=80 v=96
3240 On ch=8 n=65 v=96
3300 On ch=8 n=58 v=88
3309 On ch=8 n=65 v=0
3360 On ch=8 n=65 v=80
3369 On ch=8 n=58 v=0
3420 On ch=8 n=58 v=72
3429 On ch=8 n=65 v=0
3480 On ch=8 n=65 v=64
3489 On ch=8 n=58 v=0
3540 On ch=8 n=58 v=56
3549 On ch=8 n=65 v=0
3599 On ch=8 n=58 v=0
3600 On ch=8 n=63 v=48
3660 On ch=8 n=58 v=48
3669 On ch=8 n=63 v=0
3720 On ch=8 n=63 v=48
3729 On ch=8 n=58 v=0
3780 On ch=8 n=58 v=48
3789 On ch=8 n=63 v=0
3839 On ch=8 n=80 v=0
3840 On ch=8 n=63 v=48
3840 On ch=8 n=79 v=48
3849 On ch=8 n=58 v=0
3900 On ch=8 n=58 v=48
3909 On ch=8 n=63 v=0
3959 On ch=8 n=58 v=0
3960 On ch=8 n=60 v=48
3960 On ch=8 n=77 v=48
3969 On ch=8 n=79 v=0
4020 On ch=8 n=63 v=48
4029 On ch=8 n=60 v=0
4080 On ch=8 n=58 v=48
4080 On ch=8 n=79 v=48
4089 On ch=8 n=63 v=0
4089 On ch=8 n=77 v=0
4140 On ch=8 n=63 v=48
4149 On ch=8 n=58 v=0
4200 On ch=8 n=56 v=48
4200 On ch=8 n=80 v=48
4209 On ch=8 n=63 v=0
4209 On ch=8 n=79 v=0
4260 On ch=8 n=63 v=48
4269 On ch=8 n=56 v=0
4319 On ch=8 n=63 v=0
4319 On ch=8 n=80 v=0
4320 On ch=8 n=79 v=48
4320 On ch=8 n=58 v=48
4380 On ch=8 n=82 v=48
4380 On ch=8 n=63 v=48
4389 On ch=8 n=58 v=0
4389 On ch=8 n=79 v=0
4440 On ch=8 n=80 v=48
4440 On ch=8 n=55 v=48
4449 On ch=8 n=82 v=0
4449 On ch=8 n=63 v=0
4500 On ch=8 n=79 v=48
4500 On ch=8 n=58 v=48
4509 On ch=8 n=80 v=0
4509 On ch=8 n=55 v=0
4560 On ch=8 n=77 v=48
4560 On ch=8 n=55 v=48
4569 On ch=8 n=79 v=0
4569 On ch=8 n=58 v=0
4620 On ch=8 n=75 v=48
4620 On ch=8 n=58 v=48
4629 On ch=8 n=77 v=0
4629 On ch=8 n=55 v=0
4679 On ch=8 n=75 v=0
4679 On ch=8 n=58 v=0
4680 On ch=8 n=74 v=48
4680 On ch=8 n=56 v=48
4740 On ch=8 n=70 v=48
4740 On ch=8 n=58 v=48
4749 On ch=8 n=56 v=0
4749 On ch=8 n=74 v=0
4800 On ch=8 n=75 v=48
4800 On ch=8 n=55 v=48
4809 On ch=8 n=70 v=0
4809 On ch=8 n=58 v=0
4860 On ch=8 n=70 v=48
4860 On ch=8 n=58 v=48
4869 On ch=8 n=75 v=0
4869 On ch=8 n=55 v=0
4920 On ch=8 n=68 v=48
4920 On ch=8 n=62 v=48
4929 On ch=8 n=70 v=0
4929 On ch=8 n=58 v=0
4980 On ch=8 n=65 v=48
4980 On ch=8 n=58 v=48
4989 On ch=8 n=68 v=0
4989 On ch=8 n=62 v=0
5039 On ch=8 n=65 v=0
5039 On ch=8 n=58 v=0
5040 On ch=8 n=63 v=48
5100 On ch=8 n=58 v=48
5129 On ch=8 n=58 v=0
5159 On ch=8 n=63 v=0
5160 On ch=8 n=58 v=48
5219 On ch=8 n=58 v=0
5220 On ch=8 n=58 v=48
5279 On ch=8 n=58 v=0
5280 On ch=8 n=58 v=48
5339 On ch=8 n=58 v=0
5340 On ch=8 n=58 v=48
5399 On ch=8 n=58 v=0
5400 On ch=8 n=58 v=48
5459 On ch=8 n=58 v=0
5460 On ch=8 n=58 v=48
5519 On ch=8 n=58 v=0
5520 On ch=8 n=58 v=48
5579 On ch=8 n=58 v=0
5580 On ch=8 n=58 v=48
5639 On ch=8 n=58 v=0
5640 On ch=8 n=58 v=48
5699 On ch=8 n=58 v=0
5700 On ch=8 n=58 v=48
5759 On ch=8 n=58 v=0
5760 On ch=8 n=58 v=48
5819 On ch=8 n=58 v=0
5820 On ch=8 n=58 v=48
5879 On ch=8 n=58 v=0
5880 On ch=8 n=58 v=48
5939 On ch=8 n=58 v=0
5940 On ch=8 n=58 v=48
5999 On ch=8 n=58 v=0
6000 On ch=8 n=58 v=48
6059 On ch=8 n=58 v=0
6060 On ch=8 n=58 v=48
6119 On ch=8 n=58 v=0
6120 On ch=8 n=58 v=48
6179 On ch=8 n=58 v=0
6180 On ch=8 n=58 v=48
6239 On ch=8 n=58 v=0
6240 On ch=8 n=61 v=48
6299 On ch=8 n=61 v=0
6300 On ch=8 n=61 v=48
6359 On ch=8 n=61 v=0
6360 On ch=8 n=76 v=54
6360 On ch=8 n=60 v=48
6419 On ch=8 n=60 v=0
6420 On ch=8 n=60 v=48
6479 On ch=8 n=60 v=0
6480 On ch=8 n=77 v=54
6480 On ch=8 n=60 v=48
6489 On ch=8 n=76 v=0
6539 On ch=8 n=60 v=0
6540 On ch=8 n=60 v=48
6599 On ch=8 n=60 v=0
6600 On ch=8 n=80 v=54
6600 On ch=8 n=60 v=48
6609 On ch=8 n=77 v=0
6659 On ch=8 n=60 v=0
6660 On ch=8 n=60 v=48
6719 On ch=8 n=60 v=0
6720 On ch=8 n=84 v=54
6720 On ch=8 n=60 v=48
6729 On ch=8 n=80 v=0
6779 On ch=8 n=60 v=0
6780 On ch=8 n=60 v=48
6839 On ch=8 n=60 v=0
6839 On ch=8 n=84 v=0
6840 On ch=8 n=77 v=54
6840 On ch=8 n=60 v=48
6899 On ch=8 n=60 v=0
6900 On ch=8 n=60 v=48
6959 On ch=8 n=60 v=0
6959 On ch=8 n=77 v=0
6960 On ch=8 n=61 v=48
7019 On ch=8 n=61 v=0
7020 On ch=8 n=61 v=48
7079 On ch=8 n=61 v=0
7080 On ch=8 n=63 v=48
7139 On ch=8 n=63 v=0
7140 On ch=8 n=63 v=48
7199 On ch=8 n=63 v=0
7200 On ch=8 n=63 v=48
7259 On ch=8 n=63 v=0
7260 On ch=8 n=63 v=48
7319 On ch=8 n=63 v=0
7320 On ch=8 n=63 v=48
7379 On ch=8 n=63 v=0
7380 On ch=8 n=63 v=48
7439 On ch=8 n=63 v=0
7440 On ch=8 n=63 v=48
7499 On ch=8 n=63 v=0
7500 On ch=8 n=63 v=48
7559 On ch=8 n=63 v=0
7560 On ch=8 n=63 v=48
7619 On ch=8 n=63 v=0
7620 On ch=8 n=63 v=56
7679 On ch=8 n=63 v=0
7680 On ch=8 n=63 v=64
7739 On ch=8 n=63 v=0
7740 On ch=8 n=63 v=72
7799 On ch=8 n=63 v=0
7800 On ch=8 n=81 v=80
7800 On ch=8 n=63 v=80
7859 On ch=8 n=63 v=0
7860 On ch=8 n=63 v=88
7919 On ch=8 n=63 v=0
7920 On ch=8 n=82 v=96
7920 On ch=8 n=62 v=96
7929 On ch=8 n=81 v=0
7949 On ch=8 n=82 v=0
7950 On ch=8 n=82 v=48
7979 On ch=8 n=62 v=0
7980 On ch=8 n=58 v=48
8040 On ch=8 n=62 v=48
8049 On ch=8 n=58 v=0
8100 On ch=8 n=65 v=48
8109 On ch=8 n=62 v=0
8159 On ch=8 n=82 v=0
8160 On ch=8 n=77 v=48
8160 On ch=8 n=70 v=48
8169 On ch=8 n=65 v=0
8220 On ch=8 n=74 v=48
8229 On ch=8 n=70 v=0
8279 On ch=8 n=74 v=0
8279 On ch=8 n=77 v=0
8280 On ch=8 n=74 v=48
8280 On ch=8 n=77 v=48
8399 On ch=8 n=77 v=0
8400 On ch=8 n=70 v=48
8400 On ch=8 n=65 v=48
8409 On ch=8 n=74 v=0
8520 On ch=8 n=68 v=48
8520 On ch=8 n=62 v=48
8529 On ch=8 n=65 v=0
8529 On ch=8 n=70 v=0
8639 On ch=8 n=68 v=0
8639 On ch=8 n=62 v=0
8640 On ch=8 n=67 v=48
8640 On ch=8 n=63 v=48
8699 On ch=8 n=63 v=0
8699 On ch=8 n=67 v=0
8760 On ch=8 n=75 v=96
8760 On ch=8 n=72 v=96
8760 On ch=8 n=63 v=96
8880 On ch=8 n=69 v=90
8889 On ch=8 n=75 v=0
8999 On ch=8 n=72 v=0
8999 On ch=8 n=63 v=0
8999 On ch=8 n=69 v=0
9000 On ch=8 n=81 v=96
9000 On ch=8 n=72 v=96
9000 On ch=8 n=63 v=96
9120 On ch=8 n=69 v=90
9129 On ch=8 n=81 v=0
9239 On ch=8 n=72 v=0
9239 On ch=8 n=63 v=0
9239 On ch=8 n=69 v=0
9240 On ch=8 n=81 v=96
9240 On ch=8 n=72 v=96
9240 On ch=8 n=63 v=96
9359 On ch=8 n=63 v=0
9359 On ch=8 n=72 v=0
9360 On ch=8 n=82 v=96
9360 On ch=8 n=70 v=96
9360 On ch=8 n=62 v=96
9369 On ch=8 n=81 v=0
9389 On ch=8 n=82 v=0
9389 On ch=8 n=70 v=0
9389 On ch=8 n=62 v=0
9390 On ch=8 n=82 v=48
9420 On ch=8 n=58 v=48
9480 On ch=8 n=62 v=48
9489 On ch=8 n=58 v=0
9540 On ch=8 n=65 v=48
9549 On ch=8 n=62 v=0
9599 On ch=8 n=82 v=0
9600 On ch=8 n=77 v=48
9600 On ch=8 n=70 v=48
9609 On ch=8 n=65 v=0
9660 On ch=8 n=74 v=48
9669 On ch=8 n=70 v=0
9719 On ch=8 n=74 v=0
9719 On ch=8 n=77 v=0
9720 On ch=8 n=74 v=48
9720 On ch=8 n=77 v=48
9779 On ch=8 n=77 v=0
9840 On ch=8 n=70 v=48
9849 On ch=8 n=74 v=0
9959 On ch=8 n=70 v=0
9960 On ch=8 n=62 v=96
9960 On ch=8 n=70 v=96
9960 On ch=8 n=58 v=96
9960 On ch=8 n=65 v=96
10079 On ch=8 n=65 v=0
10079 On ch=8 n=62 v=0
10079 On ch=8 n=70 v=0
10079 On ch=8 n=58 v=0
10080 On ch=8 n=70 v=90
10080 On ch=8 n=62 v=90
10080 On ch=8 n=58 v=90
10080 On ch=8 n=65 v=90
10139 On ch=8 n=65 v=0
10139 On ch=8 n=70 v=0
10139 On ch=8 n=62 v=0
10139 On ch=8 n=58 v=0
10200 On ch=8 n=74 v=96
10200 On ch=8 n=58 v=96
10200 On ch=8 n=65 v=96
10320 On ch=8 n=70 v=90
10329 On ch=8 n=74 v=0
10439 On ch=8 n=58 v=0
10439 On ch=8 n=65 v=0
10439 On ch=8 n=70 v=0
10440 On ch=8 n=77 v=96
10440 On ch=8 n=65 v=96
10440 On ch=8 n=58 v=96
10560 On ch=8 n=70 v=90
10569 On ch=8 n=77 v=0
10679 On ch=8 n=65 v=0
10679 On ch=8 n=58 v=0
10679 On ch=8 n=70 v=0
10680 On ch=8 n=82 v=96
10680 On ch=8 n=70 v=96
10680 On ch=8 n=58 v=96
10680 On ch=8 n=65 v=96
10919 On ch=8 n=65 v=0
10919 On ch=8 n=82 v=0
10919 On ch=8 n=70 v=0
10919 On ch=8 n=58 v=0
10920 On ch=8 n=75 v=96
10920 On ch=8 n=58 v=96
10920 On ch=8 n=63 v=96
11040 On ch=8 n=70 v=90
11049 On ch=8 n=75 v=0
11159 On ch=8 n=58 v=0
11159 On ch=8 n=63 v=0
11159 On ch=8 n=70 v=0
11160 On ch=8 n=79 v=96
11160 On ch=8 n=58 v=96
11160 On ch=8 n=63 v=96
11280 On ch=8 n=70 v=90
11289 On ch=8 n=79 v=0
11399 On ch=8 n=58 v=0
11399 On ch=8 n=63 v=0
11399 On ch=8 n=70 v=0
11400 On ch=8 n=82 v=96
11400 On ch=8 n=70 v=96
11400 On ch=8 n=58 v=96
11400 On ch=8 n=63 v=96
11639 On ch=8 n=63 v=0
11639 On ch=8 n=82 v=0
11639 On ch=8 n=70 v=0
11639 On ch=8 n=58 v=0
11640 On ch=8 n=70 v=90
11640 On ch=8 n=58 v=90
11640 On ch=8 n=62 v=90
11699 On ch=8 n=62 v=0
11699 On ch=8 n=58 v=0
11699 On ch=8 n=70 v=0
11760 On ch=8 n=82 v=96
11760 On ch=8 n=70 v=96
11760 On ch=8 n=58 v=96
11760 On ch=8 n=62 v=96
11999 On ch=8 n=62 v=0
11999 On ch=8 n=82 v=0
11999 On ch=8 n=70 v=0
11999 On ch=8 n=58 v=0
12000 On ch=8 n=70 v=90
12000 On ch=8 n=63 v=90
12000 On ch=8 n=58 v=90
12059 On ch=8 n=58 v=0
12059 On ch=8 n=63 v=0
12059 On ch=8 n=70 v=0
12120 On ch=8 n=82 v=96
12120 On ch=8 n=70 v=96
12120 On ch=8 n=63 v=90
12120 On ch=8 n=58 v=90
12240 On ch=8 n=68 v=90
12249 On ch=8 n=63 v=0
12269 On ch=8 n=58 v=0
12269 On ch=8 n=68 v=0
12270 On ch=8 n=80 v=97
12299 On ch=8 n=80 v=0
12300 On ch=8 n=80 v=98
12329 On ch=8 n=80 v=0
12330 On ch=8 n=80 v=99
12359 On ch=8 n=80 v=0
12359 On ch=8 n=70 v=0
12359 On ch=8 n=82 v=0
12360 On ch=8 n=70 v=101
12360 On ch=8 n=80 v=101
12389 On ch=8 n=80 v=0
12389 On ch=8 n=70 v=0
12390 On ch=8 n=70 v=102
12390 On ch=8 n=80 v=102
12419 On ch=8 n=80 v=0
12419 On ch=8 n=70 v=0
12420 On ch=8 n=72 v=103
12420 On ch=8 n=79 v=103
12449 On ch=8 n=79 v=0
12449 On ch=8 n=72 v=0
12450 On ch=8 n=72 v=104
12450 On ch=8 n=79 v=104
12479 On ch=8 n=79 v=0
12479 On ch=8 n=72 v=0
12480 On ch=8 n=74 v=106
12480 On ch=8 n=77 v=106
12509 On ch=8 n=77 v=0
12509 On ch=8 n=74 v=0
12510 On ch=8 n=74 v=107
12510 On ch=8 n=77 v=107
12539 On ch=8 n=77 v=0
12539 On ch=8 n=74 v=0
12540 On ch=8 n=75 v=127
12569 On ch=8 n=75 v=0
12570 On ch=8 n=75 v=127
12599 On ch=8 n=75 v=0
12600 On ch=8 n=77 v=110
12600 On ch=8 n=74 v=110
12629 On ch=8 n=74 v=0
12629 On ch=8 n=77 v=0
12630 On ch=8 n=77 v=111
12630 On ch=8 n=74 v=111
12659 On ch=8 n=74 v=0
12659 On ch=8 n=77 v=0
12660 On ch=8 n=79 v=112
12660 On ch=8 n=72 v=112
12689 On ch=8 n=72 v=0
12689 On ch=8 n=79 v=0
12690 On ch=8 n=79 v=114
12690 On ch=8 n=72 v=113
12719 On ch=8 n=72 v=0
12719 On ch=8 n=79 v=0
12720 On ch=8 n=80 v=115
12720 On ch=8 n=70 v=115
12749 On ch=8 n=70 v=0
12749 On ch=8 n=80 v=0
12750 On ch=8 n=80 v=116
12750 On ch=8 n=70 v=116
12779 On ch=8 n=70 v=0
12779 On ch=8 n=80 v=0
12780 On ch=8 n=82 v=117
12780 On ch=8 n=68 v=117
12809 On ch=8 n=68 v=0
12809 On ch=8 n=82 v=0
12810 On ch=8 n=82 v=118
12810 On ch=8 n=68 v=118
12839 On ch=8 n=68 v=0
12839 On ch=8 n=82 v=0
12840 On ch=8 n=84 v=120
12840 On ch=8 n=67 v=120
12869 On ch=8 n=67 v=0
12869 On ch=8 n=84 v=0
12870 On ch=8 n=84 v=122
12870 On ch=8 n=67 v=121
12899 On ch=8 n=67 v=0
12899 On ch=8 n=84 v=0
12900 On ch=8 n=86 v=124
12900 On ch=8 n=65 v=123
12929 On ch=8 n=65 v=0
12929 On ch=8 n=86 v=0
12930 On ch=8 n=86 v=125
12930 On ch=8 n=65 v=125
12959 On ch=8 n=65 v=0
12959 On ch=8 n=86 v=0
12960 On ch=8 n=87 v=127
12960 On ch=8 n=63 v=127
12989 On ch=8 n=63 v=0
12989 On ch=8 n=87 v=0
12990 On ch=8 n=87 v=127
12990 On ch=8 n=79 v=127
12990 On ch=8 n=70 v=127
13019 On ch=8 n=70 v=0
13019 On ch=8 n=79 v=0
13019 On ch=8 n=87 v=0
13020 On ch=8 n=87 v=127
13020 On ch=8 n=79 v=127
13020 On ch=8 n=70 v=127
13049 On ch=8 n=70 v=0
13049 On ch=8 n=79 v=0
13049 On ch=8 n=87 v=0
13050 On ch=8 n=87 v=127
13050 On ch=8 n=79 v=127
13050 On ch=8 n=70 v=127
13079 On ch=8 n=70 v=0
13079 On ch=8 n=79 v=0
13079 On ch=8 n=87 v=0
13080 On ch=8 n=87 v=127
13080 On ch=8 n=79 v=127
13080 On ch=8 n=70 v=127
13109 On ch=8 n=70 v=0
13109 On ch=8 n=79 v=0
13109 On ch=8 n=87 v=0
13110 On ch=8 n=87 v=127
13110 On ch=8 n=79 v=127
13110 On ch=8 n=70 v=127
13139 On ch=8 n=70 v=0
13139 On ch=8 n=79 v=0
13139 On ch=8 n=87 v=0
13140 On ch=8 n=87 v=127
13140 On ch=8 n=79 v=127
13140 On ch=8 n=70 v=127
13169 On ch=8 n=70 v=0
13169 On ch=8 n=79 v=0
13169 On ch=8 n=87 v=0
13170 On ch=8 n=87 v=127
13170 On ch=8 n=79 v=127
13170 On ch=8 n=70 v=127
13199 On ch=8 n=70 v=0
13199 On ch=8 n=79 v=0
13199 On ch=8 n=87 v=0
13200 On ch=8 n=87 v=127
13200 On ch=8 n=79 v=127
13200 On ch=8 n=70 v=127
13229 On ch=8 n=70 v=0
13229 On ch=8 n=79 v=0
13229 On ch=8 n=87 v=0
13230 On ch=8 n=87 v=127
13230 On ch=8 n=79 v=127
13230 On ch=8 n=70 v=127
13259 On ch=8 n=70 v=0
13259 On ch=8 n=79 v=0
13259 On ch=8 n=87 v=0
13260 On ch=8 n=87 v=127
13260 On ch=8 n=79 v=127
13260 On ch=8 n=70 v=127
13289 On ch=8 n=70 v=0
13289 On ch=8 n=79 v=0
13289 On ch=8 n=87 v=0
13290 On ch=8 n=87 v=127
13290 On ch=8 n=79 v=127
13290 On ch=8 n=70 v=127
13319 On ch=8 n=70 v=0
13319 On ch=8 n=79 v=0
13319 On ch=8 n=87 v=0
13320 On ch=8 n=87 v=127
13320 On ch=8 n=79 v=127
13320 On ch=8 n=70 v=127
13349 On ch=8 n=70 v=0
13349 On ch=8 n=79 v=0
13349 On ch=8 n=87 v=0
13350 On ch=8 n=87 v=127
13350 On ch=8 n=79 v=127
13350 On ch=8 n=70 v=127
13379 On ch=8 n=70 v=0
13379 On ch=8 n=79 v=0
13379 On ch=8 n=87 v=0
13380 On ch=8 n=87 v=127
13380 On ch=8 n=79 v=127
13380 On ch=8 n=70 v=127
13409 On ch=8 n=70 v=0
13409 On ch=8 n=79 v=0
13409 On ch=8 n=87 v=0
13410 On ch=8 n=87 v=127
13410 On ch=8 n=79 v=127
13410 On ch=8 n=70 v=127
13439 On ch=8 n=70 v=0
13439 On ch=8 n=79 v=0
13439 On ch=8 n=87 v=0
13440 On ch=8 n=87 v=127
13440 On ch=8 n=79 v=127
13440 On ch=8 n=70 v=127
13469 On ch=8 n=70 v=0
13469 On ch=8 n=79 v=0
13469 On ch=8 n=87 v=0
13470 On ch=8 n=87 v=127
13470 On ch=8 n=79 v=127
13470 On ch=8 n=70 v=127
13499 On ch=8 n=70 v=0
13499 On ch=8 n=79 v=0
13499 On ch=8 n=87 v=0
13500 On ch=8 n=87 v=127
13500 On ch=8 n=79 v=127
13500 On ch=8 n=70 v=127
13529 On ch=8 n=70 v=0
13529 On ch=8 n=79 v=0
13529 On ch=8 n=87 v=0
13530 On ch=8 n=87 v=127
13530 On ch=8 n=79 v=127
13530 On ch=8 n=70 v=127
13559 On ch=8 n=70 v=0
13559 On ch=8 n=79 v=0
13559 On ch=8 n=87 v=0
13560 On ch=8 n=87 v=127
13560 On ch=8 n=79 v=127
13560 On ch=8 n=70 v=127
13589 On ch=8 n=70 v=0
13589 On ch=8 n=79 v=0
13589 On ch=8 n=87 v=0
13590 On ch=8 n=87 v=127
13590 On ch=8 n=79 v=127
13590 On ch=8 n=70 v=127
13619 On ch=8 n=70 v=0
13619 On ch=8 n=79 v=0
13619 On ch=8 n=87 v=0
13620 On ch=8 n=87 v=127
13620 On ch=8 n=79 v=127
13620 On ch=8 n=70 v=127
13649 On ch=8 n=70 v=0
13649 On ch=8 n=79 v=0
13649 On ch=8 n=87 v=0
13650 On ch=8 n=87 v=127
13650 On ch=8 n=79 v=127
13650 On ch=8 n=70 v=127
13679 On ch=8 n=70 v=0
13679 On ch=8 n=79 v=0
13679 On ch=8 n=87 v=0
13680 On ch=8 n=87 v=127
13680 On ch=8 n=79 v=127
13680 On ch=8 n=70 v=127
13709 On ch=8 n=70 v=0
13709 On ch=8 n=79 v=0
13709 On ch=8 n=87 v=0
13710 On ch=8 n=87 v=127
13710 On ch=8 n=79 v=127
13710 On ch=8 n=70 v=127
13739 On ch=8 n=70 v=0
13739 On ch=8 n=79 v=0
13739 On ch=8 n=87 v=0
13740 On ch=8 n=87 v=127
13740 On ch=8 n=79 v=127
13740 On ch=8 n=70 v=127
13769 On ch=8 n=70 v=0
13769 On ch=8 n=79 v=0
13769 On ch=8 n=87 v=0
13770 On ch=8 n=87 v=127
13770 On ch=8 n=79 v=127
13770 On ch=8 n=70 v=127
13799 On ch=8 n=70 v=0
13799 On ch=8 n=79 v=0
13799 On ch=8 n=87 v=0
13800 On ch=8 n=87 v=127
13800 On ch=8 n=79 v=127
13800 On ch=8 n=70 v=127
13829 On ch=8 n=70 v=0
13829 On ch=8 n=79 v=0
13829 On ch=8 n=87 v=0
13830 On ch=8 n=87 v=127
13830 On ch=8 n=79 v=127
13830 On ch=8 n=70 v=127
13859 On ch=8 n=70 v=0
13859 On ch=8 n=79 v=0
13859 On ch=8 n=87 v=0
13860 On ch=8 n=87 v=127
13860 On ch=8 n=79 v=127
13860 On ch=8 n=70 v=127
13889 On ch=8 n=70 v=0
13889 On ch=8 n=79 v=0
13889 On ch=8 n=87 v=0
13890 On ch=8 n=87 v=127
13890 On ch=8 n=79 v=127
13890 On ch=8 n=70 v=127
13919 On ch=8 n=70 v=0
13919 On ch=8 n=79 v=0
13919 On ch=8 n=87 v=0
13920 On ch=8 n=87 v=127
13920 On ch=8 n=87 v=127
13920 On ch=8 n=79 v=127
13920 On ch=8 n=70 v=127
13949 On ch=8 n=70 v=0
13949 On ch=8 n=87 v=0
13949 On ch=8 n=87 v=0
13949 On ch=8 n=79 v=0
13950 On ch=8 n=87 v=127
13950 On ch=8 n=79 v=127
13950 On ch=8 n=70 v=127
13979 On ch=8 n=70 v=0
13979 On ch=8 n=79 v=0
13979 On ch=8 n=87 v=0
13980 On ch=8 n=87 v=127
13980 On ch=8 n=79 v=127
13980 On ch=8 n=70 v=127
14009 On ch=8 n=70 v=0
14009 On ch=8 n=79 v=0
14009 On ch=8 n=87 v=0
14010 On ch=8 n=87 v=127
14010 On ch=8 n=79 v=127
14010 On ch=8 n=70 v=127
14039 On ch=8 n=70 v=0
14039 On ch=8 n=79 v=0
14039 On ch=8 n=87 v=0
14040 On ch=8 n=87 v=127
14040 On ch=8 n=79 v=127
14040 On ch=8 n=70 v=127
14069 On ch=8 n=70 v=0
14069 On ch=8 n=79 v=0
14069 On ch=8 n=87 v=0
14070 On ch=8 n=87 v=127
14070 On ch=8 n=79 v=127
14070 On ch=8 n=70 v=127
14099 On ch=8 n=70 v=0
14099 On ch=8 n=79 v=0
14099 On ch=8 n=87 v=0
14100 On ch=8 n=87 v=127
14100 On ch=8 n=79 v=127
14100 On ch=8 n=70 v=127
14129 On ch=8 n=70 v=0
14129 On ch=8 n=79 v=0
14129 On ch=8 n=87 v=0
14130 On ch=8 n=87 v=127
14130 On ch=8 n=79 v=127
14130 On ch=8 n=70 v=127
14159 On ch=8 n=70 v=0
14159 On ch=8 n=79 v=0
14159 On ch=8 n=87 v=0
14160 On ch=8 n=87 v=127
14160 On ch=8 n=79 v=127
14160 On ch=8 n=70 v=127
14189 On ch=8 n=70 v=0
14189 On ch=8 n=79 v=0
14189 On ch=8 n=87 v=0
14190 On ch=8 n=87 v=127
14190 On ch=8 n=79 v=127
14190 On ch=8 n=70 v=127
14219 On ch=8 n=70 v=0
14219 On ch=8 n=79 v=0
14219 On ch=8 n=87 v=0
14220 On ch=8 n=87 v=127
14220 On ch=8 n=79 v=127
14220 On ch=8 n=70 v=127
14249 On ch=8 n=70 v=0
14249 On ch=8 n=79 v=0
14249 On ch=8 n=87 v=0
14250 On ch=8 n=87 v=127
14250 On ch=8 n=79 v=127
14250 On ch=8 n=70 v=127
14279 On ch=8 n=70 v=0
14279 On ch=8 n=79 v=0
14279 On ch=8 n=87 v=0
14280 On ch=8 n=87 v=127
14280 On ch=8 n=79 v=127
14280 On ch=8 n=71 v=127
14309 On ch=8 n=71 v=0
14309 On ch=8 n=79 v=0
14309 On ch=8 n=87 v=0
14310 On ch=8 n=87 v=127
14310 On ch=8 n=79 v=127
14310 On ch=8 n=71 v=127
14339 On ch=8 n=71 v=0
14339 On ch=8 n=79 v=0
14339 On ch=8 n=87 v=0
14340 On ch=8 n=87 v=127
14340 On ch=8 n=79 v=127
14340 On ch=8 n=71 v=127
14369 On ch=8 n=71 v=0
14369 On ch=8 n=79 v=0
14369 On ch=8 n=87 v=0
14370 On ch=8 n=87 v=127
14370 On ch=8 n=79 v=127
14370 On ch=8 n=71 v=127
14399 On ch=8 n=71 v=0
14399 On ch=8 n=79 v=0
14399 On ch=8 n=87 v=0
14400 On ch=8 n=87 v=127
14400 On ch=8 n=79 v=127
14400 On ch=8 n=72 v=127
14429 On ch=8 n=72 v=0
14429 On ch=8 n=79 v=0
14429 On ch=8 n=87 v=0
14430 On ch=8 n=87 v=127
14430 On ch=8 n=79 v=127
14430 On ch=8 n=72 v=127
14459 On ch=8 n=72 v=0
14459 On ch=8 n=79 v=0
14459 On ch=8 n=87 v=0
14460 On ch=8 n=87 v=127
14460 On ch=8 n=79 v=127
14460 On ch=8 n=72 v=127
14489 On ch=8 n=72 v=0
14489 On ch=8 n=79 v=0
14489 On ch=8 n=87 v=0
14490 On ch=8 n=87 v=127
14490 On ch=8 n=79 v=127
14490 On ch=8 n=72 v=127
14519 On ch=8 n=72 v=0
14519 On ch=8 n=79 v=0
14519 On ch=8 n=87 v=0
14520 On ch=8 n=87 v=127
14520 On ch=8 n=79 v=127
14520 On ch=8 n=72 v=127
14549 On ch=8 n=72 v=0
14549 On ch=8 n=79 v=0
14549 On ch=8 n=87 v=0
14550 On ch=8 n=87 v=127
14550 On ch=8 n=79 v=127
14550 On ch=8 n=72 v=127
14579 On ch=8 n=72 v=0
14579 On ch=8 n=79 v=0
14579 On ch=8 n=87 v=0
14580 On ch=8 n=87 v=127
14580 On ch=8 n=79 v=127
14580 On ch=8 n=72 v=127
14609 On ch=8 n=72 v=0
14609 On ch=8 n=79 v=0
14609 On ch=8 n=87 v=0
14610 On ch=8 n=87 v=127
14610 On ch=8 n=79 v=127
14610 On ch=8 n=72 v=127
14639 On ch=8 n=72 v=0
14639 On ch=8 n=79 v=0
14639 On ch=8 n=87 v=0
14640 On ch=8 n=87 v=127
14640 On ch=8 n=79 v=127
14640 On ch=8 n=72 v=127
14669 On ch=8 n=72 v=0
14669 On ch=8 n=79 v=0
14669 On ch=8 n=87 v=0
14670 On ch=8 n=87 v=127
14670 On ch=8 n=79 v=127
14670 On ch=8 n=72 v=127
14699 On ch=8 n=72 v=0
14699 On ch=8 n=79 v=0
14699 On ch=8 n=87 v=0
14700 On ch=8 n=87 v=127
14700 On ch=8 n=79 v=127
14700 On ch=8 n=72 v=127
14729 On ch=8 n=72 v=0
14729 On ch=8 n=79 v=0
14729 On ch=8 n=87 v=0
14730 On ch=8 n=87 v=127
14730 On ch=8 n=79 v=127
14730 On ch=8 n=72 v=127
14759 On ch=8 n=72 v=0
14759 On ch=8 n=79 v=0
14759 On ch=8 n=87 v=0
14760 On ch=8 n=87 v=127
14760 On ch=8 n=79 v=127
14760 On ch=8 n=72 v=127
14789 On ch=8 n=72 v=0
14789 On ch=8 n=79 v=0
14789 On ch=8 n=87 v=0
14790 On ch=8 n=87 v=127
14790 On ch=8 n=79 v=127
14790 On ch=8 n=72 v=127
14819 On ch=8 n=72 v=0
14819 On ch=8 n=79 v=0
14819 On ch=8 n=87 v=0
14820 On ch=8 n=87 v=127
14820 On ch=8 n=79 v=127
14820 On ch=8 n=72 v=127
14849 On ch=8 n=72 v=0
14849 On ch=8 n=79 v=0
14849 On ch=8 n=87 v=0
14850 On ch=8 n=87 v=127
14850 On ch=8 n=79 v=127
14850 On ch=8 n=72 v=127
14879 On ch=8 n=72 v=0
14879 On ch=8 n=79 v=0
14879 On ch=8 n=87 v=0
14880 On ch=8 n=87 v=127
14880 On ch=8 n=79 v=127
14880 On ch=8 n=72 v=127
14909 On ch=8 n=72 v=0
14909 On ch=8 n=79 v=0
14909 On ch=8 n=87 v=0
14910 On ch=8 n=87 v=127
14910 On ch=8 n=79 v=127
14910 On ch=8 n=72 v=127
14939 On ch=8 n=72 v=0
14939 On ch=8 n=79 v=0
14939 On ch=8 n=87 v=0
14940 On ch=8 n=87 v=127
14940 On ch=8 n=79 v=127
14940 On ch=8 n=72 v=127
14969 On ch=8 n=72 v=0
14969 On ch=8 n=79 v=0
14969 On ch=8 n=87 v=0
14970 On ch=8 n=87 v=127
14970 On ch=8 n=79 v=127
14970 On ch=8 n=72 v=127
14999 On ch=8 n=72 v=0
14999 On ch=8 n=79 v=0
14999 On ch=8 n=87 v=0
15000 On ch=8 n=87 v=127
15000 On ch=8 n=79 v=127
15000 On ch=8 n=70 v=127
15029 On ch=8 n=70 v=0
15029 On ch=8 n=79 v=0
15029 On ch=8 n=87 v=0
15030 On ch=8 n=87 v=127
15030 On ch=8 n=79 v=127
15030 On ch=8 n=70 v=127
15059 On ch=8 n=70 v=0
15059 On ch=8 n=79 v=0
15059 On ch=8 n=87 v=0
15060 On ch=8 n=87 v=127
15060 On ch=8 n=79 v=127
15060 On ch=8 n=70 v=127
15089 On ch=8 n=70 v=0
15089 On ch=8 n=79 v=0
15089 On ch=8 n=87 v=0
15090 On ch=8 n=87 v=127
15090 On ch=8 n=79 v=127
15090 On ch=8 n=70 v=127
15119 On ch=8 n=70 v=0
15119 On ch=8 n=79 v=0
15119 On ch=8 n=87 v=0
15120 On ch=8 n=87 v=127
15120 On ch=8 n=80 v=127
15120 On ch=8 n=72 v=127
15149 On ch=8 n=72 v=0
15149 On ch=8 n=80 v=0
15149 On ch=8 n=87 v=0
15150 On ch=8 n=87 v=127
15150 On ch=8 n=72 v=127
15179 On ch=8 n=72 v=0
15179 On ch=8 n=87 v=0
15180 On ch=8 n=87 v=127
15180 On ch=8 n=72 v=127
15209 On ch=8 n=72 v=0
15209 On ch=8 n=87 v=0
15210 On ch=8 n=87 v=127
15210 On ch=8 n=72 v=127
15239 On ch=8 n=72 v=0
15239 On ch=8 n=87 v=0
15240 On ch=8 n=87 v=127
15240 On ch=8 n=72 v=127
15269 On ch=8 n=72 v=0
15269 On ch=8 n=87 v=0
15270 On ch=8 n=87 v=127
15270 On ch=8 n=72 v=127
15299 On ch=8 n=72 v=0
15299 On ch=8 n=87 v=0
15300 On ch=8 n=87 v=127
15300 On ch=8 n=72 v=127
15329 On ch=8 n=72 v=0
15329 On ch=8 n=87 v=0
15330 On ch=8 n=87 v=127
15330 On ch=8 n=72 v=127
15359 On ch=8 n=72 v=0
15359 On ch=8 n=87 v=0
15360 On ch=8 n=87 v=127
15360 On ch=8 n=72 v=127
15389 On ch=8 n=72 v=0
15389 On ch=8 n=87 v=0
15390 On ch=8 n=87 v=127
15390 On ch=8 n=72 v=127
15419 On ch=8 n=72 v=0
15419 On ch=8 n=87 v=0
15420 On ch=8 n=87 v=127
15420 On ch=8 n=72 v=127
15449 On ch=8 n=72 v=0
15449 On ch=8 n=87 v=0
15450 On ch=8 n=87 v=127
15450 On ch=8 n=72 v=127
15479 On ch=8 n=72 v=0
15479 On ch=8 n=87 v=0
15480 On ch=8 n=88 v=127
15480 On ch=8 n=72 v=127
15509 On ch=8 n=72 v=0
15509 On ch=8 n=88 v=0
15510 On ch=8 n=88 v=127
15510 On ch=8 n=72 v=127
15539 On ch=8 n=72 v=0
15539 On ch=8 n=88 v=0
15540 On ch=8 n=88 v=127
15540 On ch=8 n=70 v=127
15569 On ch=8 n=70 v=0
15569 On ch=8 n=88 v=0
15570 On ch=8 n=88 v=127
15570 On ch=8 n=70 v=127
15599 On ch=8 n=70 v=0
15599 On ch=8 n=88 v=0
15600 On ch=8 n=88 v=127
15600 On ch=8 n=69 v=127
15629 On ch=8 n=69 v=0
15629 On ch=8 n=88 v=0
15630 On ch=8 n=88 v=127
15630 On ch=8 n=69 v=127
15659 On ch=8 n=69 v=0
15659 On ch=8 n=88 v=0
15660 On ch=8 n=88 v=127
15660 On ch=8 n=70 v=127
15689 On ch=8 n=70 v=0
15689 On ch=8 n=88 v=0
15690 On ch=8 n=88 v=127
15690 On ch=8 n=70 v=127
15719 On ch=8 n=70 v=0
15719 On ch=8 n=88 v=0
15720 On ch=8 n=88 v=127
15720 On ch=8 n=72 v=127
15749 On ch=8 n=72 v=0
15749 On ch=8 n=88 v=0
15750 On ch=8 n=88 v=127
15750 On ch=8 n=72 v=127
15779 On ch=8 n=72 v=0
15779 On ch=8 n=88 v=0
15780 On ch=8 n=88 v=127
15780 On ch=8 n=70 v=127
15809 On ch=8 n=70 v=0
15809 On ch=8 n=88 v=0
15810 On ch=8 n=88 v=127
15810 On ch=8 n=70 v=127
15839 On ch=8 n=70 v=0
15839 On ch=8 n=88 v=0
15840 On ch=8 n=89 v=127
15840 On ch=8 n=69 v=127
15869 On ch=8 n=69 v=0
15900 On ch=8 n=57 v=48
15959 On ch=8 n=89 v=0
15960 On ch=8 n=60 v=48
15969 On ch=8 n=57 v=0
16020 On ch=8 n=57 v=48
16029 On ch=8 n=60 v=0
16080 On ch=8 n=60 v=48
16089 On ch=8 n=57 v=0
16140 On ch=8 n=57 v=48
16149 On ch=8 n=60 v=0
16199 On ch=8 n=57 v=0
16200 On ch=8 n=60 v=48
16260 On ch=8 n=57 v=48
16269 On ch=8 n=60 v=0
16320 On ch=8 n=60 v=48
16329 On ch=8 n=57 v=0
16380 On ch=8 n=57 v=48
16389 On ch=8 n=60 v=0
16440 On ch=8 n=60 v=48
16449 On ch=8 n=57 v=0
16500 On ch=8 n=57 v=48
16509 On ch=8 n=60 v=0
16559 On ch=8 n=57 v=0
16560 On ch=8 n=60 v=48
16620 On ch=8 n=57 v=48
16629 On ch=8 n=60 v=0
16680 On ch=8 n=60 v=48
16689 On ch=8 n=57 v=0
16740 On ch=8 n=57 v=48
16749 On ch=8 n=60 v=0
16800 On ch=8 n=60 v=48
16809 On ch=8 n=57 v=0
16860 On ch=8 n=57 v=48
16869 On ch=8 n=60 v=0
16919 On ch=8 n=57 v=0
16920 On ch=8 n=60 v=48
16980 On ch=8 n=57 v=48
16989 On ch=8 n=60 v=0
17040 On ch=8 n=84 v=48
17040 On ch=8 n=60 v=48
17049 On ch=8 n=57 v=0
17100 On ch=8 n=57 v=48
17109 On ch=8 n=60 v=0
17160 On ch=8 n=60 v=48
17169 On ch=8 n=57 v=0
17220 On ch=8 n=75 v=48
17220 On ch=8 n=57 v=48
17229 On ch=8 n=60 v=0
17229 On ch=8 n=84 v=0
17279 On ch=8 n=57 v=0
17280 On ch=8 n=74 v=48
17280 On ch=8 n=62 v=48
17289 On ch=8 n=75 v=0
17340 On ch=8 n=58 v=48
17349 On ch=8 n=62 v=0
17399 On ch=8 n=74 v=0
17400 On ch=8 n=62 v=48
17409 On ch=8 n=58 v=0
17460 On ch=8 n=58 v=48
17469 On ch=8 n=62 v=0
17520 On ch=8 n=62 v=48
17529 On ch=8 n=58 v=0
17580 On ch=8 n=58 v=48
17589 On ch=8 n=62 v=0
17639 On ch=8 n=58 v=0
17640 On ch=8 n=62 v=48
17700 On ch=8 n=58 v=48
17709 On ch=8 n=62 v=0
17760 On ch=8 n=62 v=48
17769 On ch=8 n=58 v=0
17820 On ch=8 n=58 v=48
17829 On ch=8 n=62 v=0
17880 On ch=8 n=62 v=48
17889 On ch=8 n=58 v=0
17940 On ch=8 n=58 v=48
17949 On ch=8 n=62 v=0
17999 On ch=8 n=58 v=0
18000 On ch=8 n=62 v=48
18060 On ch=8 n=58 v=48
18069 On ch=8 n=62 v=0
18120 On ch=8 n=62 v=48
18129 On ch=8 n=58 v=0
18180 On ch=8 n=58 v=48
18189 On ch=8 n=62 v=0
18240 On ch=8 n=62 v=48
18249 On ch=8 n=58 v=0
18300 On ch=8 n=58 v=48
18309 On ch=8 n=62 v=0
18359 On ch=8 n=58 v=0
18360 On ch=8 n=62 v=48
18420 On ch=8 n=58 v=48
18429 On ch=8 n=62 v=0
18480 On ch=8 n=82 v=48
18480 On ch=8 n=62 v=48
18489 On ch=8 n=58 v=0
18540 On ch=8 n=58 v=48
18549 On ch=8 n=62 v=0
18600 On ch=8 n=62 v=48
18609 On ch=8 n=58 v=0
18660 On ch=8 n=74 v=48
18660 On ch=8 n=58 v=48
18669 On ch=8 n=62 v=0
18669 On ch=8 n=82 v=0
18719 On ch=8 n=74 v=0
18719 On ch=8 n=58 v=0
18720 On ch=8 n=75 v=48
18720 On ch=8 n=63 v=48
18749 On ch=8 n=63 v=0
18749 On ch=8 n=75 v=0
18780 On ch=8 n=60 v=48
18780 On ch=8 n=57 v=48
18839 On ch=8 n=60 v=0
18840 On ch=8 n=63 v=48
18840 On ch=8 n=60 v=48
18849 On ch=8 n=57 v=0
18899 On ch=8 n=60 v=0
18900 On ch=8 n=60 v=48
18900 On ch=8 n=57 v=48
18909 On ch=8 n=63 v=0
18959 On ch=8 n=60 v=0
18960 On ch=8 n=63 v=48
18960 On ch=8 n=60 v=48
18969 On ch=8 n=57 v=0
19019 On ch=8 n=60 v=0
19020 On ch=8 n=60 v=48
19020 On ch=8 n=57 v=48
19029 On ch=8 n=63 v=0
19079 On ch=8 n=57 v=0
19079 On ch=8 n=60 v=0
19080 On ch=8 n=63 v=48
19080 On ch=8 n=60 v=48
19139 On ch=8 n=60 v=0
19140 On ch=8 n=60 v=48
19140 On ch=8 n=57 v=48
19149 On ch=8 n=63 v=0
19199 On ch=8 n=60 v=0
19200 On ch=8 n=63 v=48
19200 On ch=8 n=60 v=48
19209 On ch=8 n=57 v=0
19259 On ch=8 n=60 v=0
19260 On ch=8 n=60 v=48
19260 On ch=8 n=57 v=48
19269 On ch=8 n=63 v=0
19319 On ch=8 n=60 v=0
19320 On ch=8 n=63 v=48
19320 On ch=8 n=60 v=48
19329 On ch=8 n=57 v=0
19379 On ch=8 n=60 v=0
19380 On ch=8 n=60 v=48
19380 On ch=8 n=57 v=48
19389 On ch=8 n=63 v=0
19439 On ch=8 n=57 v=0
19439 On ch=8 n=60 v=0
19440 On ch=8 n=63 v=48
19440 On ch=8 n=60 v=48
19559 On ch=8 n=60 v=0
19559 On ch=8 n=63 v=0
19560 On ch=8 n=79 v=127
19560 On ch=8 n=67 v=127
19739 On ch=8 n=67 v=0
19739 On ch=8 n=79 v=0
19740 On ch=8 n=77 v=127
19740 On ch=8 n=65 v=127
19799 On ch=8 n=65 v=0
19799 On ch=8 n=77 v=0
19800 On ch=8 n=75 v=127
19800 On ch=8 n=63 v=127
19859 On ch=8 n=63 v=0
19859 On ch=8 n=75 v=0
19920 On ch=8 n=74 v=127
19920 On ch=8 n=62 v=127
19979 On ch=8 n=62 v=0
19979 On ch=8 n=74 v=0
20040 On ch=8 n=72 v=127
20040 On ch=8 n=60 v=127
20099 On ch=8 n=60 v=0
20099 On ch=8 n=72 v=0
20160 On ch=8 n=58 v=48
20160 On ch=8 n=70 v=48
21000 On ch=8 n=77 v=48
21000 On ch=8 n=65 v=48
21009 On ch=8 n=70 v=0
21009 On ch=8 n=58 v=0
21119 On ch=8 n=77 v=0
21119 On ch=8 n=65 v=0
21120 On ch=8 n=77 v=48
21120 On ch=8 n=65 v=48
21209 On ch=8 n=65 v=0
21209 On ch=8 n=77 v=0
21240 On ch=8 n=77 v=48
21240 On ch=8 n=65 v=48
21329 On ch=8 n=65 v=0
21329 On ch=8 n=77 v=0
21360 On ch=8 n=77 v=48
21360 On ch=8 n=65 v=48
21449 On ch=8 n=65 v=0
21449 On ch=8 n=77 v=0
21480 On ch=8 n=77 v=48
21480 On ch=8 n=65 v=48
21569 On ch=8 n=65 v=0
21569 On ch=8 n=77 v=0
21600 On ch=8 n=77 v=48
21600 On ch=8 n=65 v=48
21629 On ch=8 n=65 v=0
21629 On ch=8 n=77 v=0
21660 On ch=8 n=74 v=50
21660 On ch=8 n=70 v=50
21720 On ch=8 n=72 v=52
21720 On ch=8 n=69 v=52
21729 On ch=8 n=70 v=0
21729 On ch=8 n=74 v=0
21780 On ch=8 n=74 v=54
21780 On ch=8 n=70 v=54
21789 On ch=8 n=72 v=0
21789 On ch=8 n=69 v=0
21840 On ch=8 n=75 v=56
21840 On ch=8 n=72 v=56
21849 On ch=8 n=74 v=0
21849 On ch=8 n=70 v=0
21900 On ch=8 n=77 v=58
21900 On ch=8 n=74 v=58
21909 On ch=8 n=75 v=0
21909 On ch=8 n=72 v=0
21959 On ch=8 n=77 v=0
21959 On ch=8 n=74 v=0
21960 On ch=8 n=79 v=60
21960 On ch=8 n=75 v=60
22020 On ch=8 n=81 v=62
22020 On ch=8 n=77 v=62
22029 On ch=8 n=75 v=0
22029 On ch=8 n=79 v=0
22079 On ch=8 n=81 v=0
22079 On ch=8 n=77 v=0
22080 On ch=8 n=82 v=64
22080 On ch=8 n=79 v=64
22109 On ch=8 n=79 v=0
22109 On ch=8 n=82 v=0
22140 On ch=8 n=82 v=66
22140 On ch=8 n=70 v=66
22169 On ch=8 n=70 v=0
22169 On ch=8 n=82 v=0
22200 On ch=8 n=82 v=68
22200 On ch=8 n=69 v=68
22229 On ch=8 n=69 v=0
22229 On ch=8 n=82 v=0
22260 On ch=8 n=82 v=70
22260 On ch=8 n=67 v=70
22289 On ch=8 n=67 v=0
22289 On ch=8 n=82 v=0
22320 On ch=8 n=82 v=72
22320 On ch=8 n=65 v=72
22349 On ch=8 n=65 v=0
22349 On ch=8 n=82 v=0
22380 On ch=8 n=82 v=74
22380 On ch=8 n=70 v=74
22409 On ch=8 n=70 v=0
22409 On ch=8 n=82 v=0
22440 On ch=8 n=81 v=76
22440 On ch=8 n=69 v=76
22469 On ch=8 n=69 v=0
22469 On ch=8 n=81 v=0
22500 On ch=8 n=82 v=78
22500 On ch=8 n=70 v=78
22529 On ch=8 n=70 v=0
22529 On ch=8 n=82 v=0
22560 On ch=8 n=84 v=80
22560 On ch=8 n=72 v=80
22589 On ch=8 n=72 v=0
22589 On ch=8 n=84 v=0
22620 On ch=8 n=86 v=82
22620 On ch=8 n=74 v=82
22649 On ch=8 n=74 v=0
22649 On ch=8 n=86 v=0
22680 On ch=8 n=87 v=84
22680 On ch=8 n=75 v=84
22709 On ch=8 n=75 v=0
22709 On ch=8 n=87 v=0
22740 On ch=8 n=87 v=86
22740 On ch=8 n=75 v=86
22769 On ch=8 n=75 v=0
22769 On ch=8 n=87 v=0
22800 On ch=8 n=87 v=88
22800 On ch=8 n=75 v=88
22829 On ch=8 n=75 v=0
22829 On ch=8 n=87 v=0
22860 On ch=8 n=87 v=90
22860 On ch=8 n=75 v=90
22889 On ch=8 n=75 v=0
22889 On ch=8 n=87 v=0
22920 On ch=8 n=87 v=92
22920 On ch=8 n=75 v=92
22949 On ch=8 n=75 v=0
22949 On ch=8 n=87 v=0
22980 On ch=8 n=87 v=94
22980 On ch=8 n=75 v=94
23009 On ch=8 n=75 v=0
23009 On ch=8 n=87 v=0
23040 On ch=8 n=87 v=96
23040 On ch=8 n=75 v=96
23069 On ch=8 n=87 v=0
23099 On ch=8 n=75 v=0
23100 On ch=8 n=84 v=96
23130 On ch=8 n=86 v=96
23139 On ch=8 n=84 v=0
23159 On ch=8 n=86 v=0
23160 On ch=8 n=84 v=96
23160 On ch=8 n=69 v=96
23189 On ch=8 n=84 v=0
23219 On ch=8 n=69 v=0
23220 On ch=8 n=81 v=96
23250 On ch=8 n=82 v=96
23259 On ch=8 n=81 v=0
23279 On ch=8 n=82 v=0
23280 On ch=8 n=81 v=96
23309 On ch=8 n=81 v=0
23340 On ch=8 n=75 v=96
23370 On ch=8 n=77 v=96
23379 On ch=8 n=75 v=0
23399 On ch=8 n=77 v=0
23400 On ch=8 n=75 v=96
23429 On ch=8 n=75 v=0
23460 On ch=8 n=72 v=96
23460 On ch=8 n=63 v=96
23490 On ch=8 n=74 v=96
23490 On ch=8 n=65 v=96
23499 On ch=8 n=63 v=0
23499 On ch=8 n=72 v=0
23519 On ch=8 n=74 v=0
23519 On ch=8 n=65 v=0
23520 On ch=8 n=72 v=96
23520 On ch=8 n=63 v=96
23549 On ch=8 n=63 v=0
23549 On ch=8 n=72 v=0
23580 On ch=8 n=69 v=96
23580 On ch=8 n=60 v=96
23610 On ch=8 n=70 v=96
23610 On ch=8 n=62 v=96
23619 On ch=8 n=60 v=0
23619 On ch=8 n=69 v=0
23639 On ch=8 n=70 v=0
23639 On ch=8 n=62 v=0
23640 On ch=8 n=69 v=96
23640 On ch=8 n=60 v=96
23669 On ch=8 n=60 v=0
23669 On ch=8 n=69 v=0
23700 On ch=8 n=87 v=96
23700 On ch=8 n=69 v=96
23729 On ch=8 n=69 v=0
23729 On ch=8 n=87 v=0
23760 On ch=8 n=86 v=96
23760 On ch=8 n=70 v=96
23789 On ch=8 n=86 v=0
23819 On ch=8 n=70 v=0
23820 On ch=8 n=82 v=96
23850 On ch=8 n=84 v=96
23859 On ch=8 n=82 v=0
23879 On ch=8 n=84 v=0
23880 On ch=8 n=82 v=96
23880 On ch=8 n=62 v=96
23880 On ch=8 n=70 v=96
23909 On ch=8 n=82 v=0
23939 On ch=8 n=70 v=0
23939 On ch=8 n=62 v=0
23940 On ch=8 n=79 v=96
23970 On ch=8 n=81 v=96
23979 On ch=8 n=79 v=0
23999 On ch=8 n=81 v=0
24000 On ch=8 n=79 v=96
24029 On ch=8 n=79 v=0
24060 On ch=8 n=74 v=96
24090 On ch=8 n=75 v=96
24099 On ch=8 n=74 v=0
24119 On ch=8 n=75 v=0
24120 On ch=8 n=74 v=96
24149 On ch=8 n=74 v=0
24180 On ch=8 n=70 v=96
24180 On ch=8 n=62 v=96
24210 On ch=8 n=72 v=96
24210 On ch=8 n=63 v=96
24219 On ch=8 n=62 v=0
24219 On ch=8 n=70 v=0
24239 On ch=8 n=72 v=0
24239 On ch=8 n=63 v=0
24240 On ch=8 n=70 v=96
24240 On ch=8 n=62 v=96
24269 On ch=8 n=62 v=0
24269 On ch=8 n=70 v=0
24300 On ch=8 n=67 v=96
24300 On ch=8 n=58 v=96
24330 On ch=8 n=69 v=96
24330 On ch=8 n=60 v=96
24339 On ch=8 n=58 v=0
24339 On ch=8 n=67 v=0
24359 On ch=8 n=69 v=0
24359 On ch=8 n=60 v=0
24360 On ch=8 n=67 v=96
24360 On ch=8 n=58 v=96
24389 On ch=8 n=58 v=0
24389 On ch=8 n=67 v=0
24420 On ch=8 n=79 v=96
24420 On ch=8 n=70 v=96
24449 On ch=8 n=70 v=0
24449 On ch=8 n=79 v=0
24480 On ch=8 n=80 v=96
24480 On ch=8 n=71 v=96
24539 On ch=8 n=71 v=0
24539 On ch=8 n=80 v=0
24540 On ch=8 n=68 v=96
24570 On ch=8 n=70 v=96
24579 On ch=8 n=68 v=0
24599 On ch=8 n=70 v=0
24600 On ch=8 n=68 v=96
24600 On ch=8 n=80 v=96
24600 On ch=8 n=71 v=96
24629 On ch=8 n=68 v=0
24659 On ch=8 n=71 v=0
24659 On ch=8 n=80 v=0
24660 On ch=8 n=65 v=96
24690 On ch=8 n=67 v=96
24699 On ch=8 n=65 v=0
24719 On ch=8 n=67 v=0
24720 On ch=8 n=65 v=96
24749 On ch=8 n=65 v=0
24780 On ch=8 n=62 v=96
24810 On ch=8 n=63 v=96
24819 On ch=8 n=62 v=0
24839 On ch=8 n=63 v=0
24840 On ch=8 n=62 v=96
24869 On ch=8 n=62 v=0
24900 On ch=8 n=59 v=96
24900 On ch=8 n=74 v=96
24930 On ch=8 n=60 v=96
24930 On ch=8 n=75 v=96
24939 On ch=8 n=74 v=0
24939 On ch=8 n=59 v=0
24959 On ch=8 n=60 v=0
24959 On ch=8 n=75 v=0
24960 On ch=8 n=59 v=96
24960 On ch=8 n=74 v=96
24989 On ch=8 n=74 v=0
24989 On ch=8 n=59 v=0
25020 On ch=8 n=71 v=96
25020 On ch=8 n=62 v=96
25050 On ch=8 n=72 v=96
25050 On ch=8 n=63 v=96
25059 On ch=8 n=62 v=0
25059 On ch=8 n=71 v=0
25079 On ch=8 n=72 v=0
25079 On ch=8 n=63 v=0
25080 On ch=8 n=71 v=96
25080 On ch=8 n=62 v=96
25109 On ch=8 n=62 v=0
25109 On ch=8 n=71 v=0
25140 On ch=8 n=80 v=96
25140 On ch=8 n=71 v=96
25140 On ch=8 n=62 v=96
25169 On ch=8 n=62 v=0
25169 On ch=8 n=71 v=0
25169 On ch=8 n=80 v=0
25200 On ch=8 n=79 v=96
25200 On ch=8 n=72 v=96
25200 On ch=8 n=63 v=96
25229 On ch=8 n=63 v=0
25229 On ch=8 n=72 v=0
25229 On ch=8 n=79 v=0
25260 On ch=8 n=67 v=96
25290 On ch=8 n=68 v=96
25319 On ch=8 n=68 v=0
25319 On ch=8 n=67 v=0
25320 On ch=8 n=67 v=96
25379 On ch=8 n=67 v=0
25380 On ch=8 n=79 v=96
25380 On ch=8 n=72 v=96
25409 On ch=8 n=72 v=0
25409 On ch=8 n=79 v=0
25440 On ch=8 n=81 v=96
25440 On ch=8 n=72 v=96
25469 On ch=8 n=72 v=0
25469 On ch=8 n=81 v=0
25500 On ch=8 n=69 v=96
25500 On ch=8 n=74 v=96
25529 On ch=8 n=74 v=0
25529 On ch=8 n=69 v=0
25560 On ch=8 n=82 v=96
25560 On ch=8 n=74 v=96
25589 On ch=8 n=74 v=0
25589 On ch=8 n=82 v=0
25620 On ch=8 n=70 v=96
25620 On ch=8 n=75 v=96
25650 On ch=8 n=72 v=96
25659 On ch=8 n=70 v=0
25679 On ch=8 n=72 v=0
25680 On ch=8 n=70 v=96
25709 On ch=8 n=70 v=0
25739 On ch=8 n=75 v=0
25740 On ch=8 n=82 v=96
25740 On ch=8 n=75 v=96
25769 On ch=8 n=75 v=0
25769 On ch=8 n=82 v=0
25800 On ch=8 n=84 v=96
25800 On ch=8 n=75 v=96
25829 On ch=8 n=75 v=0
25829 On ch=8 n=84 v=0
25860 On ch=8 n=72 v=96
25860 On ch=8 n=77 v=96
25889 On ch=8 n=77 v=0
25889 On ch=8 n=72 v=0
25920 On ch=8 n=86 v=96
25920 On ch=8 n=77 v=96
25949 On ch=8 n=77 v=0
25949 On ch=8 n=86 v=0
25980 On ch=8 n=74 v=96
25980 On ch=8 n=70 v=96
26009 On ch=8 n=70 v=0
26009 On ch=8 n=74 v=0
26040 On ch=8 n=86 v=96
26040 On ch=8 n=82 v=96
26069 On ch=8 n=82 v=0
26069 On ch=8 n=86 v=0
26100 On ch=8 n=74 v=96
26100 On ch=8 n=70 v=96
26129 On ch=8 n=70 v=0
26129 On ch=8 n=74 v=0
26160 On ch=8 n=87 v=96
26160 On ch=8 n=82 v=96
26189 On ch=8 n=82 v=0
26189 On ch=8 n=87 v=0
26220 On ch=8 n=75 v=96
26220 On ch=8 n=70 v=96
26249 On ch=8 n=70 v=0
26249 On ch=8 n=75 v=0
26280 On ch=8 n=88 v=96
26280 On ch=8 n=82 v=96
26309 On ch=8 n=82 v=0
26309 On ch=8 n=88 v=0
26340 On ch=8 n=76 v=96
26340 On ch=8 n=70 v=96
26369 On ch=8 n=70 v=0
26369 On ch=8 n=76 v=0
26400 On ch=8 n=89 v=96
26400 On ch=8 n=82 v=96
26429 On ch=8 n=82 v=0
26429 On ch=8 n=89 v=0
26460 On ch=8 n=77 v=96
26460 On ch=8 n=70 v=96
26489 On ch=8 n=70 v=0
26489 On ch=8 n=77 v=0
26520 On ch=8 n=90 v=96
26520 On ch=8 n=82 v=96
26549 On ch=8 n=82 v=0
26549 On ch=8 n=90 v=0
26580 On ch=8 n=78 v=96
26580 On ch=8 n=70 v=96
26609 On ch=8 n=70 v=0
26609 On ch=8 n=78 v=0
26640 On ch=8 n=91 v=96
26640 On ch=8 n=82 v=96
26669 On ch=8 n=82 v=0
26669 On ch=8 n=91 v=0
26670 On ch=8 n=91 v=96
26670 On ch=8 n=70 v=96
26699 On ch=8 n=70 v=0
26699 On ch=8 n=91 v=0
26700 On ch=8 n=90 v=96
26700 On ch=8 n=70 v=96
26729 On ch=8 n=70 v=0
26729 On ch=8 n=90 v=0
26730 On ch=8 n=90 v=96
26730 On ch=8 n=70 v=96
26759 On ch=8 n=70 v=0
26759 On ch=8 n=90 v=0
26760 On ch=8 n=91 v=96
26760 On ch=8 n=70 v=96
26789 On ch=8 n=70 v=0
26789 On ch=8 n=91 v=0
26790 On ch=8 n=91 v=96
26790 On ch=8 n=70 v=96
26819 On ch=8 n=70 v=0
26819 On ch=8 n=91 v=0
26820 On ch=8 n=90 v=96
26820 On ch=8 n=70 v=96
26849 On ch=8 n=70 v=0
26849 On ch=8 n=90 v=0
26850 On ch=8 n=90 v=96
26850 On ch=8 n=70 v=96
26879 On ch=8 n=70 v=0
26879 On ch=8 n=90 v=0
26880 On ch=8 n=91 v=96
26880 On ch=8 n=71 v=96
26909 On ch=8 n=71 v=0
26909 On ch=8 n=91 v=0
26910 On ch=8 n=91 v=96
26910 On ch=8 n=71 v=96
26939 On ch=8 n=71 v=0
26939 On ch=8 n=91 v=0
26940 On ch=8 n=86 v=96
26940 On ch=8 n=71 v=96
26969 On ch=8 n=71 v=0
26969 On ch=8 n=86 v=0
26970 On ch=8 n=86 v=96
26970 On ch=8 n=71 v=96
26999 On ch=8 n=71 v=0
26999 On ch=8 n=86 v=0
27000 On ch=8 n=87 v=96
27000 On ch=8 n=72 v=96
27029 On ch=8 n=72 v=0
27029 On ch=8 n=87 v=0
27030 On ch=8 n=87 v=96
27030 On ch=8 n=72 v=96
27059 On ch=8 n=72 v=0
27059 On ch=8 n=87 v=0
27060 On ch=8 n=86 v=96
27060 On ch=8 n=74 v=96
27089 On ch=8 n=74 v=0
27089 On ch=8 n=86 v=0
27090 On ch=8 n=86 v=96
27090 On ch=8 n=74 v=96
27119 On ch=8 n=74 v=0
27119 On ch=8 n=86 v=0
27120 On ch=8 n=89 v=96
27120 On ch=8 n=77 v=96
27149 On ch=8 n=77 v=0
27149 On ch=8 n=89 v=0
27150 On ch=8 n=89 v=96
27150 On ch=8 n=77 v=96
27179 On ch=8 n=77 v=0
27179 On ch=8 n=89 v=0
27180 On ch=8 n=87 v=96
27180 On ch=8 n=75 v=96
27209 On ch=8 n=75 v=0
27209 On ch=8 n=87 v=0
27210 On ch=8 n=87 v=96
27210 On ch=8 n=75 v=96
27239 On ch=8 n=75 v=0
27239 On ch=8 n=87 v=0
27240 On ch=8 n=86 v=96
27240 On ch=8 n=74 v=96
27269 On ch=8 n=74 v=0
27269 On ch=8 n=86 v=0
27270 On ch=8 n=86 v=96
27270 On ch=8 n=74 v=96
27299 On ch=8 n=74 v=0
27299 On ch=8 n=86 v=0
27300 On ch=8 n=84 v=96
27300 On ch=8 n=72 v=96
27329 On ch=8 n=72 v=0
27329 On ch=8 n=84 v=0
27330 On ch=8 n=84 v=96
27330 On ch=8 n=72 v=96
27359 On ch=8 n=72 v=0
27359 On ch=8 n=84 v=0
27360 On ch=8 n=82 v=96
27360 On ch=8 n=70 v=96
27389 On ch=8 n=70 v=0
27389 On ch=8 n=82 v=0
27390 On ch=8 n=82 v=96
27390 On ch=8 n=70 v=96
27419 On ch=8 n=70 v=0
27419 On ch=8 n=82 v=0
27420 On ch=8 n=77 v=96
27420 On ch=8 n=65 v=96
27449 On ch=8 n=65 v=0
27449 On ch=8 n=77 v=0
27450 On ch=8 n=77 v=96
27450 On ch=8 n=65 v=96
27479 On ch=8 n=65 v=0
27479 On ch=8 n=77 v=0
27480 On ch=8 n=79 v=96
27480 On ch=8 n=67 v=96
27509 On ch=8 n=67 v=0
27509 On ch=8 n=79 v=0
27510 On ch=8 n=79 v=96
27510 On ch=8 n=67 v=96
27539 On ch=8 n=67 v=0
27539 On ch=8 n=79 v=0
27540 On ch=8 n=81 v=96
27540 On ch=8 n=69 v=96
27569 On ch=8 n=69 v=0
27569 On ch=8 n=81 v=0
27570 On ch=8 n=81 v=96
27570 On ch=8 n=69 v=96
27599 On ch=8 n=69 v=0
27599 On ch=8 n=81 v=0
27600 On ch=8 n=82 v=96
27600 On ch=8 n=70 v=96
27629 On ch=8 n=70 v=0
27629 On ch=8 n=82 v=0
27630 On ch=8 n=82 v=96
27630 On ch=8 n=70 v=96
27659 On ch=8 n=70 v=0
27659 On ch=8 n=82 v=0
27660 On ch=8 n=84 v=96
27660 On ch=8 n=72 v=96
27689 On ch=8 n=72 v=0
27689 On ch=8 n=84 v=0
27690 On ch=8 n=84 v=96
27690 On ch=8 n=72 v=96
27719 On ch=8 n=72 v=0
27719 On ch=8 n=84 v=0
27720 On ch=8 n=86 v=96
27720 On ch=8 n=74 v=96
27749 On ch=8 n=74 v=0
27749 On ch=8 n=86 v=0
27750 On ch=8 n=86 v=96
27750 On ch=8 n=74 v=96
27779 On ch=8 n=74 v=0
27779 On ch=8 n=86 v=0
27780 On ch=8 n=87 v=96
27780 On ch=8 n=75 v=96
27809 On ch=8 n=75 v=0
27809 On ch=8 n=87 v=0
27810 On ch=8 n=87 v=96
27810 On ch=8 n=75 v=96
27839 On ch=8 n=75 v=0
27839 On ch=8 n=87 v=0
27840 On ch=8 n=88 v=96
27840 On ch=8 n=76 v=96
27869 On ch=8 n=76 v=0
27869 On ch=8 n=88 v=0
27870 On ch=8 n=88 v=96
27870 On ch=8 n=76 v=96
27899 On ch=8 n=76 v=0
27899 On ch=8 n=88 v=0
27900 On ch=8 n=89 v=96
27900 On ch=8 n=77 v=96
27929 On ch=8 n=77 v=0
27929 On ch=8 n=89 v=0
27930 On ch=8 n=89 v=96
27930 On ch=8 n=77 v=96
27959 On ch=8 n=77 v=0
27959 On ch=8 n=89 v=0
27960 On ch=8 n=87 v=96
27960 On ch=8 n=75 v=96
27989 On ch=8 n=75 v=0
27989 On ch=8 n=87 v=0
27990 On ch=8 n=87 v=96
27990 On ch=8 n=75 v=96
28019 On ch=8 n=75 v=0
28019 On ch=8 n=87 v=0
28020 On ch=8 n=86 v=96
28020 On ch=8 n=74 v=96
28049 On ch=8 n=74 v=0
28049 On ch=8 n=86 v=0
28050 On ch=8 n=86 v=96
28050 On ch=8 n=74 v=96
28079 On ch=8 n=74 v=0
28079 On ch=8 n=86 v=0
28080 On ch=8 n=84 v=96
28080 On ch=8 n=72 v=96
28109 On ch=8 n=72 v=0
28109 On ch=8 n=84 v=0
28110 On ch=8 n=84 v=96
28110 On ch=8 n=72 v=96
28139 On ch=8 n=72 v=0
28139 On ch=8 n=84 v=0
28140 On ch=8 n=86 v=96
28140 On ch=8 n=74 v=96
28169 On ch=8 n=74 v=0
28169 On ch=8 n=86 v=0
28170 On ch=8 n=86 v=96
28170 On ch=8 n=74 v=96
28199 On ch=8 n=74 v=0
28199 On ch=8 n=86 v=0
28200 On ch=8 n=87 v=96
28200 On ch=8 n=75 v=96
28229 On ch=8 n=75 v=0
28229 On ch=8 n=87 v=0
28230 On ch=8 n=87 v=96
28230 On ch=8 n=75 v=96
28259 On ch=8 n=75 v=0
28259 On ch=8 n=87 v=0
28260 On ch=8 n=86 v=96
28260 On ch=8 n=74 v=96
28289 On ch=8 n=74 v=0
28289 On ch=8 n=86 v=0
28290 On ch=8 n=86 v=96
28290 On ch=8 n=74 v=96
28319 On ch=8 n=74 v=0
28319 On ch=8 n=86 v=0
28320 On ch=8 n=84 v=96
28320 On ch=8 n=72 v=96
28349 On ch=8 n=72 v=0
28349 On ch=8 n=84 v=0
28350 On ch=8 n=84 v=96
28350 On ch=8 n=72 v=96
28379 On ch=8 n=72 v=0
28379 On ch=8 n=84 v=0
28380 On ch=8 n=82 v=96
28380 On ch=8 n=70 v=96
28409 On ch=8 n=70 v=0
28409 On ch=8 n=82 v=0
28410 On ch=8 n=82 v=96
28410 On ch=8 n=70 v=96
28439 On ch=8 n=70 v=0
28439 On ch=8 n=82 v=0
28440 On ch=8 n=81 v=96
28440 On ch=8 n=69 v=96
28469 On ch=8 n=69 v=0
28469 On ch=8 n=81 v=0
28470 On ch=8 n=81 v=96
28470 On ch=8 n=69 v=96
28499 On ch=8 n=69 v=0
28499 On ch=8 n=81 v=0
28500 On ch=8 n=82 v=96
28500 On ch=8 n=70 v=96
28529 On ch=8 n=70 v=0
28529 On ch=8 n=82 v=0
28530 On ch=8 n=82 v=96
28530 On ch=8 n=70 v=96
28559 On ch=8 n=70 v=0
28559 On ch=8 n=82 v=0
28560 On ch=8 n=84 v=96
28560 On ch=8 n=72 v=96
28589 On ch=8 n=72 v=0
28589 On ch=8 n=84 v=0
28590 On ch=8 n=84 v=96
28590 On ch=8 n=72 v=96
28619 On ch=8 n=72 v=0
28619 On ch=8 n=84 v=0
28620 On ch=8 n=82 v=96
28620 On ch=8 n=70 v=96
28649 On ch=8 n=70 v=0
28649 On ch=8 n=82 v=0
28650 On ch=8 n=82 v=96
28650 On ch=8 n=70 v=96
28679 On ch=8 n=70 v=0
28679 On ch=8 n=82 v=0
28680 On ch=8 n=81 v=96
28680 On ch=8 n=69 v=96
28709 On ch=8 n=69 v=0
28709 On ch=8 n=81 v=0
28710 On ch=8 n=81 v=96
28710 On ch=8 n=69 v=96
28739 On ch=8 n=69 v=0
28739 On ch=8 n=81 v=0
28740 On ch=8 n=79 v=96
28740 On ch=8 n=67 v=96
28769 On ch=8 n=67 v=0
28769 On ch=8 n=79 v=0
28770 On ch=8 n=79 v=96
28770 On ch=8 n=67 v=96
28799 On ch=8 n=67 v=0
28799 On ch=8 n=79 v=0
28800 On ch=8 n=77 v=127
28800 On ch=8 n=65 v=127
28829 On ch=8 n=65 v=0
28829 On ch=8 n=77 v=0
28830 On ch=8 n=77 v=127
28830 On ch=8 n=65 v=127
28859 On ch=8 n=65 v=0
28859 On ch=8 n=77 v=0
28860 On ch=8 n=76 v=127
28860 On ch=8 n=64 v=127
28889 On ch=8 n=64 v=0
28889 On ch=8 n=76 v=0
28890 On ch=8 n=76 v=127
28890 On ch=8 n=64 v=127
28919 On ch=8 n=64 v=0
28919 On ch=8 n=76 v=0
28920 On ch=8 n=75 v=127
28920 On ch=8 n=63 v=127
28949 On ch=8 n=63 v=0
28949 On ch=8 n=75 v=0
28950 On ch=8 n=75 v=127
28950 On ch=8 n=63 v=127
28979 On ch=8 n=63 v=0
28979 On ch=8 n=75 v=0
28980 On ch=8 n=74 v=127
28980 On ch=8 n=62 v=127
29009 On ch=8 n=62 v=0
29009 On ch=8 n=74 v=0
29010 On ch=8 n=74 v=127
29010 On ch=8 n=62 v=127
29039 On ch=8 n=62 v=0
29039 On ch=8 n=74 v=0
29040 On ch=8 n=72 v=127
29040 On ch=8 n=60 v=127
29069 On ch=8 n=60 v=0
29069 On ch=8 n=72 v=0
29070 On ch=8 n=72 v=127
29070 On ch=8 n=60 v=127
29099 On ch=8 n=60 v=0
29099 On ch=8 n=72 v=0
29100 On ch=8 n=70 v=127
29100 On ch=8 n=58 v=127
29129 On ch=8 n=58 v=0
29129 On ch=8 n=70 v=0
29130 On ch=8 n=70 v=127
29130 On ch=8 n=58 v=127
29159 On ch=8 n=58 v=0
29159 On ch=8 n=70 v=0
29160 On ch=8 n=69 v=127
29160 On ch=8 n=57 v=127
29189 On ch=8 n=57 v=0
29189 On ch=8 n=69 v=0
29190 On ch=8 n=69 v=127
29190 On ch=8 n=57 v=127
29219 On ch=8 n=57 v=0
29219 On ch=8 n=69 v=0
29220 On ch=8 n=67 v=127
29249 On ch=8 n=67 v=0
29250 On ch=8 n=67 v=127
29279 On ch=8 n=67 v=0
29280 On ch=8 n=65 v=127
29309 On ch=8 n=65 v=0
29310 On ch=8 n=65 v=127
29339 On ch=8 n=65 v=0
29340 On ch=8 n=63 v=127
29369 On ch=8 n=63 v=0
29370 On ch=8 n=63 v=127
29399 On ch=8 n=63 v=0
29400 On ch=8 n=62 v=127
29429 On ch=8 n=62 v=0
29430 On ch=8 n=62 v=127
29459 On ch=8 n=62 v=0
29460 On ch=8 n=60 v=127
29489 On ch=8 n=60 v=0
29490 On ch=8 n=60 v=127
29519 On ch=8 n=60 v=0
29520 On ch=8 n=58 v=127
29639 On ch=8 n=58 v=0
31080 On ch=8 n=75 v=48
31080 On ch=8 n=67 v=48
31169 On ch=8 n=67 v=0
31169 On ch=8 n=75 v=0
31200 On ch=8 n=75 v=48
31200 On ch=8 n=68 v=48
31289 On ch=8 n=68 v=0
31289 On ch=8 n=75 v=0
31320 On ch=8 n=75 v=48
31320 On ch=8 n=69 v=48
31409 On ch=8 n=69 v=0
31409 On ch=8 n=75 v=0
31440 On ch=8 n=77 v=60
31440 On ch=8 n=69 v=60
31529 On ch=8 n=69 v=0
31529 On ch=8 n=77 v=0
31560 On ch=8 n=77 v=72
31560 On ch=8 n=69 v=72
31649 On ch=8 n=69 v=0
31649 On ch=8 n=77 v=0
31680 On ch=8 n=77 v=84
31680 On ch=8 n=69 v=84
31799 On ch=8 n=69 v=0
31800 On ch=8 n=78 v=90
31800 On ch=8 n=69 v=96
31809 On ch=8 n=77 v=0
31920 On ch=8 n=79 v=96
31929 On ch=8 n=78 v=0
32039 On ch=8 n=69 v=0
32040 On ch=8 n=69 v=96
32159 On ch=8 n=79 v=0
32160 On ch=8 n=77 v=84
32220 On ch=8 n=75 v=72
32229 On ch=8 n=77 v=0
32280 On ch=8 n=74 v=64
32289 On ch=8 n=75 v=0
32340 On ch=8 n=72 v=56
32349 On ch=8 n=74 v=0
32349 On ch=8 n=69 v=0
32400 On ch=8 n=70 v=48
32409 On ch=8 n=72 v=0
32519 On ch=8 n=70 v=0
34320 On ch=8 n=65 v=48
34320 On ch=8 n=56 v=48
34409 On ch=8 n=56 v=0
34409 On ch=8 n=65 v=0
34440 On ch=8 n=65 v=48
34440 On ch=8 n=56 v=48
34529 On ch=8 n=56 v=0
34529 On ch=8 n=65 v=0
34560 On ch=8 n=65 v=48
34560 On ch=8 n=58 v=48
34800 On ch=8 n=64 v=56
34809 On ch=8 n=65 v=0
34919 On ch=8 n=64 v=0
34919 On ch=8 n=58 v=0
35400 On ch=8 n=69 v=32
35400 On ch=8 n=66 v=32
35459 On ch=8 n=66 v=0
35459 On ch=8 n=69 v=0
35520 On ch=8 n=69 v=32
35520 On ch=8 n=66 v=32
35579 On ch=8 n=66 v=0
35579 On ch=8 n=69 v=0
35760 On ch=8 n=70 v=32
35760 On ch=8 n=65 v=32
35819 On ch=8 n=65 v=0
35819 On ch=8 n=70 v=0
35880 On ch=8 n=71 v=32
35880 On ch=8 n=68 v=32
35939 On ch=8 n=68 v=0
35939 On ch=8 n=71 v=0
36120 On ch=8 n=72 v=32
36120 On ch=8 n=69 v=32
36179 On ch=8 n=69 v=0
36179 On ch=8 n=72 v=0
36240 On ch=8 n=74 v=32
36240 On ch=8 n=70 v=32
36299 On ch=8 n=70 v=0
36299 On ch=8 n=74 v=0
36360 On ch=8 n=75 v=32
36360 On ch=8 n=72 v=32
36419 On ch=8 n=72 v=0
36419 On ch=8 n=75 v=0
36480 On ch=8 n=77 v=32
36480 On ch=8 n=74 v=32
36539 On ch=8 n=74 v=0
36539 On ch=8 n=77 v=0
36600 On ch=8 n=78 v=32
36600 On ch=8 n=74 v=32
36659 On ch=8 n=74 v=0
36659 On ch=8 n=78 v=0
36720 On ch=8 n=79 v=32
36720 On ch=8 n=75 v=32
36749 On ch=8 n=75 v=0
36749 On ch=8 n=79 v=0
36780 On ch=8 n=77 v=32
36780 On ch=8 n=74 v=32
36809 On ch=8 n=74 v=0
36809 On ch=8 n=77 v=0
36840 On ch=8 n=75 v=32
36840 On ch=8 n=72 v=32
36869 On ch=8 n=72 v=0
36869 On ch=8 n=75 v=0
36900 On ch=8 n=74 v=32
36900 On ch=8 n=70 v=32
36929 On ch=8 n=70 v=0
36929 On ch=8 n=74 v=0
36960 On ch=8 n=72 v=32
36960 On ch=8 n=69 v=32
36989 On ch=8 n=69 v=0
36989 On ch=8 n=72 v=0
37020 On ch=8 n=74 v=32
37020 On ch=8 n=70 v=32
37049 On ch=8 n=70 v=0
37049 On ch=8 n=74 v=0
37080 On ch=8 n=75 v=32
37080 On ch=8 n=72 v=32
37109 On ch=8 n=72 v=0
37109 On ch=8 n=75 v=0
37140 On ch=8 n=74 v=32
37140 On ch=8 n=70 v=32
37169 On ch=8 n=70 v=0
37169 On ch=8 n=74 v=0
37200 On ch=8 n=72 v=32
37200 On ch=8 n=69 v=32
37229 On ch=8 n=69 v=0
37229 On ch=8 n=72 v=0
37260 On ch=8 n=74 v=32
37260 On ch=8 n=70 v=32
37289 On ch=8 n=70 v=0
37289 On ch=8 n=74 v=0
37320 On ch=8 n=75 v=32
37320 On ch=8 n=72 v=32
37349 On ch=8 n=72 v=0
37349 On ch=8 n=75 v=0
37380 On ch=8 n=74 v=32
37380 On ch=8 n=77 v=32
37409 On ch=8 n=77 v=0
37409 On ch=8 n=74 v=0
37440 On ch=8 n=79 v=34
37440 On ch=8 n=75 v=34
37469 On ch=8 n=75 v=0
37469 On ch=8 n=79 v=0
37500 On ch=8 n=77 v=37
37500 On ch=8 n=74 v=37
37529 On ch=8 n=74 v=0
37529 On ch=8 n=77 v=0
37560 On ch=8 n=75 v=40
37560 On ch=8 n=72 v=40
37589 On ch=8 n=72 v=0
37589 On ch=8 n=75 v=0
37620 On ch=8 n=74 v=43
37620 On ch=8 n=70 v=43
37649 On ch=8 n=70 v=0
37649 On ch=8 n=74 v=0
37680 On ch=8 n=72 v=46
37680 On ch=8 n=69 v=46
37709 On ch=8 n=69 v=0
37709 On ch=8 n=72 v=0
37740 On ch=8 n=74 v=48
37740 On ch=8 n=70 v=48
37769 On ch=8 n=70 v=0
37769 On ch=8 n=74 v=0
37800 On ch=8 n=75 v=50
37800 On ch=8 n=72 v=50
37829 On ch=8 n=72 v=0
37829 On ch=8 n=75 v=0
37860 On ch=8 n=74 v=53
37860 On ch=8 n=70 v=53
37889 On ch=8 n=70 v=0
37889 On ch=8 n=74 v=0
37920 On ch=8 n=72 v=56
37920 On ch=8 n=69 v=56
37949 On ch=8 n=69 v=0
37949 On ch=8 n=72 v=0
37980 On ch=8 n=74 v=59
37980 On ch=8 n=70 v=59
38009 On ch=8 n=70 v=0
38009 On ch=8 n=74 v=0
38040 On ch=8 n=75 v=62
38040 On ch=8 n=72 v=62
38069 On ch=8 n=72 v=0
38069 On ch=8 n=75 v=0
38100 On ch=8 n=77 v=64
38100 On ch=8 n=74 v=64
38129 On ch=8 n=74 v=0
38129 On ch=8 n=77 v=0
38160 On ch=8 n=79 v=66
38160 On ch=8 n=75 v=66
38189 On ch=8 n=75 v=0
38189 On ch=8 n=79 v=0
38220 On ch=8 n=77 v=69
38220 On ch=8 n=74 v=69
38249 On ch=8 n=74 v=0
38249 On ch=8 n=77 v=0
38280 On ch=8 n=75 v=72
38280 On ch=8 n=72 v=72
38309 On ch=8 n=72 v=0
38309 On ch=8 n=75 v=0
38340 On ch=8 n=74 v=75
38340 On ch=8 n=71 v=75
38369 On ch=8 n=71 v=0
38369 On ch=8 n=74 v=0
38400 On ch=8 n=75 v=78
38400 On ch=8 n=72 v=78
38429 On ch=8 n=72 v=0
38429 On ch=8 n=75 v=0
38460 On ch=8 n=77 v=80
38460 On ch=8 n=74 v=80
38489 On ch=8 n=74 v=0
38489 On ch=8 n=77 v=0
38520 On ch=8 n=79 v=82
38520 On ch=8 n=75 v=82
38549 On ch=8 n=75 v=0
38549 On ch=8 n=79 v=0
38580 On ch=8 n=81 v=85
38580 On ch=8 n=77 v=85
38609 On ch=8 n=77 v=0
38609 On ch=8 n=81 v=0
38640 On ch=8 n=82 v=88
38640 On ch=8 n=79 v=88
38669 On ch=8 n=79 v=0
38669 On ch=8 n=82 v=0
38700 On ch=8 n=84 v=90
38700 On ch=8 n=81 v=90
38729 On ch=8 n=81 v=0
38729 On ch=8 n=84 v=0
38760 On ch=8 n=86 v=92
38760 On ch=8 n=82 v=92
38789 On ch=8 n=82 v=0
38789 On ch=8 n=86 v=0
38820 On ch=8 n=87 v=94
38820 On ch=8 n=84 v=94
38849 On ch=8 n=84 v=0
38849 On ch=8 n=87 v=0
38880 On ch=8 n=89 v=96
38880 On ch=8 n=86 v=96
38939 On ch=8 n=86 v=0
39000 On ch=8 n=77 v=96
39059 On ch=8 n=77 v=0
39119 On ch=8 n=89 v=0
39120 On ch=8 n=86 v=96
39120 On ch=8 n=74 v=96
39179 On ch=8 n=74 v=0
39179 On ch=8 n=86 v=0
39240 On ch=8 n=82 v=96
39240 On ch=8 n=70 v=96
39299 On ch=8 n=70 v=0
39299 On ch=8 n=82 v=0
39360 On ch=8 n=86 v=112
39360 On ch=8 n=74 v=112
39419 On ch=8 n=74 v=0
39419 On ch=8 n=86 v=0
39480 On ch=8 n=77 v=96
39480 On ch=8 n=65 v=96
39539 On ch=8 n=65 v=0
39539 On ch=8 n=77 v=0
39600 On ch=8 n=84 v=96
39600 On ch=8 n=72 v=96
39659 On ch=8 n=72 v=0
39659 On ch=8 n=84 v=0
39720 On ch=8 n=87 v=112
39720 On ch=8 n=75 v=112
39779 On ch=8 n=75 v=0
39779 On ch=8 n=87 v=0
39840 On ch=8 n=77 v=96
39840 On ch=8 n=65 v=96
39899 On ch=8 n=65 v=0
39899 On ch=8 n=77 v=0
39960 On ch=8 n=81 v=96
39960 On ch=8 n=69 v=96
40019 On ch=8 n=69 v=0
40019 On ch=8 n=81 v=0
40080 On ch=8 n=84 v=112
40080 On ch=8 n=72 v=112
40139 On ch=8 n=72 v=0
40139 On ch=8 n=84 v=0
40200 On ch=8 n=77 v=96
40200 On ch=8 n=65 v=96
40259 On ch=8 n=65 v=0
40259 On ch=8 n=77 v=0
40320 On ch=8 n=89 v=127
40320 On ch=8 n=77 v=127
40320 On ch=8 n=74 v=127
40349 On ch=8 n=77 v=0
40349 On ch=8 n=89 v=0
40350 On ch=8 n=89 v=127
40350 On ch=8 n=77 v=127
40379 On ch=8 n=77 v=0
40379 On ch=8 n=89 v=0
40379 On ch=8 n=74 v=0
40380 On ch=8 n=89 v=127
40380 On ch=8 n=77 v=127
40380 On ch=8 n=62 v=127
40409 On ch=8 n=62 v=0
40409 On ch=8 n=77 v=0
40409 On ch=8 n=89 v=0
40410 On ch=8 n=89 v=127
40410 On ch=8 n=77 v=127
40410 On ch=8 n=62 v=127
40439 On ch=8 n=62 v=0
40439 On ch=8 n=77 v=0
40439 On ch=8 n=89 v=0
40440 On ch=8 n=89 v=127
40440 On ch=8 n=77 v=127
40440 On ch=8 n=65 v=127
40469 On ch=8 n=65 v=0
40469 On ch=8 n=77 v=0
40469 On ch=8 n=89 v=0
40470 On ch=8 n=89 v=127
40470 On ch=8 n=77 v=127
40470 On ch=8 n=65 v=127
40499 On ch=8 n=65 v=0
40499 On ch=8 n=77 v=0
40499 On ch=8 n=89 v=0
40500 On ch=8 n=89 v=127
40500 On ch=8 n=77 v=127
40500 On ch=8 n=70 v=127
40529 On ch=8 n=70 v=0
40529 On ch=8 n=77 v=0
40529 On ch=8 n=89 v=0
40530 On ch=8 n=89 v=127
40530 On ch=8 n=77 v=127
40530 On ch=8 n=70 v=127
40559 On ch=8 n=70 v=0
40559 On ch=8 n=77 v=0
40559 On ch=8 n=89 v=0
40560 On ch=8 n=89 v=127
40560 On ch=8 n=77 v=127
40560 On ch=8 n=74 v=127
40589 On ch=8 n=74 v=0
40589 On ch=8 n=77 v=0
40589 On ch=8 n=89 v=0
40590 On ch=8 n=89 v=127
40590 On ch=8 n=77 v=127
40590 On ch=8 n=74 v=127
40619 On ch=8 n=74 v=0
40619 On ch=8 n=77 v=0
40619 On ch=8 n=89 v=0
40620 On ch=8 n=89 v=127
40620 On ch=8 n=77 v=127
40620 On ch=8 n=62 v=127
40649 On ch=8 n=62 v=0
40649 On ch=8 n=77 v=0
40649 On ch=8 n=89 v=0
40650 On ch=8 n=89 v=127
40650 On ch=8 n=77 v=127
40650 On ch=8 n=62 v=127
40679 On ch=8 n=62 v=0
40679 On ch=8 n=77 v=0
40679 On ch=8 n=89 v=0
40680 On ch=8 n=89 v=127
40680 On ch=8 n=77 v=127
40709 On ch=8 n=77 v=0
40709 On ch=8 n=89 v=0
40710 On ch=8 n=89 v=127
40710 On ch=8 n=77 v=127
40739 On ch=8 n=77 v=0
40739 On ch=8 n=89 v=0
40740 On ch=8 n=89 v=127
40740 On ch=8 n=77 v=127
40740 On ch=8 n=62 v=127
40769 On ch=8 n=62 v=0
40769 On ch=8 n=77 v=0
40769 On ch=8 n=89 v=0
40770 On ch=8 n=89 v=127
40770 On ch=8 n=77 v=127
40770 On ch=8 n=62 v=127
40799 On ch=8 n=62 v=0
40799 On ch=8 n=77 v=0
40799 On ch=8 n=89 v=0
40800 On ch=8 n=89 v=127
40800 On ch=8 n=77 v=127
40800 On ch=8 n=65 v=127
40829 On ch=8 n=65 v=0
40829 On ch=8 n=77 v=0
40829 On ch=8 n=89 v=0
40830 On ch=8 n=89 v=127
40830 On ch=8 n=77 v=127
40830 On ch=8 n=65 v=127
40859 On ch=8 n=65 v=0
40859 On ch=8 n=77 v=0
40859 On ch=8 n=89 v=0
40860 On ch=8 n=89 v=127
40860 On ch=8 n=77 v=127
40860 On ch=8 n=70 v=127
40889 On ch=8 n=70 v=0
40889 On ch=8 n=77 v=0
40889 On ch=8 n=89 v=0
40890 On ch=8 n=89 v=127
40890 On ch=8 n=77 v=127
40890 On ch=8 n=70 v=127
40919 On ch=8 n=70 v=0
40919 On ch=8 n=77 v=0
40919 On ch=8 n=89 v=0
40920 On ch=8 n=89 v=127
40920 On ch=8 n=77 v=127
40920 On ch=8 n=74 v=127
40949 On ch=8 n=74 v=0
40949 On ch=8 n=77 v=0
40949 On ch=8 n=89 v=0
40950 On ch=8 n=89 v=127
40950 On ch=8 n=77 v=127
40950 On ch=8 n=74 v=127
40979 On ch=8 n=74 v=0
40979 On ch=8 n=77 v=0
40979 On ch=8 n=89 v=0
40980 On ch=8 n=89 v=127
40980 On ch=8 n=77 v=127
40980 On ch=8 n=62 v=127
41009 On ch=8 n=62 v=0
41009 On ch=8 n=77 v=0
41009 On ch=8 n=89 v=0
41010 On ch=8 n=89 v=127
41010 On ch=8 n=77 v=127
41010 On ch=8 n=62 v=127
41039 On ch=8 n=62 v=0
41039 On ch=8 n=77 v=0
41039 On ch=8 n=89 v=0
41040 On ch=8 n=89 v=127
41040 On ch=8 n=77 v=127
41069 On ch=8 n=77 v=0
41069 On ch=8 n=89 v=0
41070 On ch=8 n=89 v=127
41070 On ch=8 n=77 v=127
41099 On ch=8 n=77 v=0
41099 On ch=8 n=89 v=0
41100 On ch=8 n=89 v=127
41100 On ch=8 n=77 v=127
41100 On ch=8 n=63 v=127
41129 On ch=8 n=63 v=0
41129 On ch=8 n=77 v=0
41129 On ch=8 n=89 v=0
41130 On ch=8 n=89 v=127
41130 On ch=8 n=77 v=127
41130 On ch=8 n=63 v=127
41159 On ch=8 n=63 v=0
41159 On ch=8 n=77 v=0
41159 On ch=8 n=89 v=0
41160 On ch=8 n=89 v=127
41160 On ch=8 n=77 v=127
41160 On ch=8 n=65 v=127
41189 On ch=8 n=65 v=0
41189 On ch=8 n=77 v=0
41189 On ch=8 n=89 v=0
41190 On ch=8 n=89 v=127
41190 On ch=8 n=77 v=127
41190 On ch=8 n=65 v=127
41219 On ch=8 n=65 v=0
41219 On ch=8 n=77 v=0
41219 On ch=8 n=89 v=0
41220 On ch=8 n=89 v=127
41220 On ch=8 n=77 v=127
41220 On ch=8 n=72 v=127
41249 On ch=8 n=72 v=0
41249 On ch=8 n=77 v=0
41249 On ch=8 n=89 v=0
41250 On ch=8 n=89 v=127
41250 On ch=8 n=77 v=127
41250 On ch=8 n=72 v=127
41279 On ch=8 n=72 v=0
41279 On ch=8 n=77 v=0
41279 On ch=8 n=89 v=0
41280 On ch=8 n=89 v=127
41280 On ch=8 n=77 v=127
41280 On ch=8 n=75 v=127
41309 On ch=8 n=75 v=0
41309 On ch=8 n=77 v=0
41309 On ch=8 n=89 v=0
41310 On ch=8 n=89 v=127
41310 On ch=8 n=77 v=127
41310 On ch=8 n=75 v=127
41339 On ch=8 n=75 v=0
41339 On ch=8 n=77 v=0
41339 On ch=8 n=89 v=0
41340 On ch=8 n=89 v=127
41340 On ch=8 n=77 v=127
41340 On ch=8 n=63 v=127
41369 On ch=8 n=63 v=0
41369 On ch=8 n=77 v=0
41369 On ch=8 n=89 v=0
41370 On ch=8 n=89 v=127
41370 On ch=8 n=77 v=127
41370 On ch=8 n=63 v=127
41399 On ch=8 n=63 v=0
41399 On ch=8 n=77 v=0
41399 On ch=8 n=89 v=0
41400 On ch=8 n=89 v=127
41400 On ch=8 n=77 v=127
41429 On ch=8 n=77 v=0
41429 On ch=8 n=89 v=0
41430 On ch=8 n=89 v=127
41430 On ch=8 n=77 v=127
41459 On ch=8 n=77 v=0
41459 On ch=8 n=89 v=0
41460 On ch=8 n=89 v=127
41460 On ch=8 n=77 v=127
41460 On ch=8 n=63 v=127
41489 On ch=8 n=63 v=0
41489 On ch=8 n=77 v=0
41489 On ch=8 n=89 v=0
41490 On ch=8 n=89 v=127
41490 On ch=8 n=77 v=127
41490 On ch=8 n=63 v=127
41519 On ch=8 n=63 v=0
41519 On ch=8 n=77 v=0
41519 On ch=8 n=89 v=0
41520 On ch=8 n=89 v=127
41520 On ch=8 n=77 v=127
41520 On ch=8 n=65 v=127
41549 On ch=8 n=65 v=0
41549 On ch=8 n=77 v=0
41549 On ch=8 n=89 v=0
41550 On ch=8 n=89 v=127
41550 On ch=8 n=77 v=127
41550 On ch=8 n=65 v=127
41579 On ch=8 n=65 v=0
41579 On ch=8 n=77 v=0
41579 On ch=8 n=89 v=0
41580 On ch=8 n=89 v=127
41580 On ch=8 n=77 v=127
41580 On ch=8 n=69 v=127
41609 On ch=8 n=69 v=0
41609 On ch=8 n=77 v=0
41609 On ch=8 n=89 v=0
41610 On ch=8 n=89 v=127
41610 On ch=8 n=77 v=127
41610 On ch=8 n=69 v=127
41639 On ch=8 n=69 v=0
41639 On ch=8 n=77 v=0
41639 On ch=8 n=89 v=0
41640 On ch=8 n=89 v=127
41640 On ch=8 n=77 v=127
41640 On ch=8 n=72 v=127
41669 On ch=8 n=72 v=0
41669 On ch=8 n=77 v=0
41669 On ch=8 n=89 v=0
41670 On ch=8 n=89 v=127
41670 On ch=8 n=77 v=127
41670 On ch=8 n=72 v=127
41699 On ch=8 n=72 v=0
41699 On ch=8 n=77 v=0
41699 On ch=8 n=89 v=0
41700 On ch=8 n=89 v=127
41700 On ch=8 n=77 v=127
41700 On ch=8 n=69 v=127
41729 On ch=8 n=69 v=0
41729 On ch=8 n=77 v=0
41729 On ch=8 n=89 v=0
41730 On ch=8 n=89 v=127
41730 On ch=8 n=77 v=127
41730 On ch=8 n=69 v=127
41759 On ch=8 n=69 v=0
41759 On ch=8 n=77 v=0
41759 On ch=8 n=89 v=0
41760 On ch=8 n=89 v=127
41760 On ch=8 n=70 v=127
41789 On ch=8 n=70 v=0
41789 On ch=8 n=89 v=0
41790 On ch=8 n=89 v=127
41790 On ch=8 n=70 v=127
41819 On ch=8 n=70 v=0
41819 On ch=8 n=89 v=0
41820 On ch=8 n=85 v=127
41820 On ch=8 n=73 v=127
41849 On ch=8 n=73 v=0
41849 On ch=8 n=85 v=0
41850 On ch=8 n=85 v=127
41850 On ch=8 n=73 v=127
41879 On ch=8 n=73 v=0
41879 On ch=8 n=85 v=0
41880 On ch=8 n=86 v=127
41880 On ch=8 n=74 v=127
41909 On ch=8 n=74 v=0
41909 On ch=8 n=86 v=0
41910 On ch=8 n=86 v=127
41910 On ch=8 n=74 v=127
41939 On ch=8 n=74 v=0
41939 On ch=8 n=86 v=0
41940 On ch=8 n=81 v=127
41940 On ch=8 n=69 v=127
41969 On ch=8 n=69 v=0
41969 On ch=8 n=81 v=0
41970 On ch=8 n=81 v=127
41970 On ch=8 n=69 v=127
41999 On ch=8 n=69 v=0
41999 On ch=8 n=81 v=0
42000 On ch=8 n=82 v=127
42000 On ch=8 n=70 v=127
42029 On ch=8 n=70 v=0
42029 On ch=8 n=82 v=0
42030 On ch=8 n=82 v=127
42030 On ch=8 n=70 v=127
42059 On ch=8 n=70 v=0
42059 On ch=8 n=82 v=0
42060 On ch=8 n=76 v=127
42060 On ch=8 n=64 v=127
42089 On ch=8 n=64 v=0
42089 On ch=8 n=76 v=0
42090 On ch=8 n=76 v=127
42090 On ch=8 n=64 v=127
42119 On ch=8 n=64 v=0
42119 On ch=8 n=76 v=0
42120 On ch=8 n=77 v=127
42120 On ch=8 n=65 v=127
42149 On ch=8 n=65 v=0
42149 On ch=8 n=77 v=0
42150 On ch=8 n=77 v=127
42150 On ch=8 n=65 v=127
42179 On ch=8 n=65 v=0
42179 On ch=8 n=77 v=0
42180 On ch=8 n=73 v=127
42180 On ch=8 n=61 v=127
42209 On ch=8 n=61 v=0
42209 On ch=8 n=73 v=0
42210 On ch=8 n=73 v=127
42210 On ch=8 n=61 v=127
42239 On ch=8 n=61 v=0
42239 On ch=8 n=73 v=0
42240 On ch=8 n=74 v=127
42240 On ch=8 n=62 v=127
42269 On ch=8 n=62 v=0
42269 On ch=8 n=74 v=0
42270 On ch=8 n=74 v=127
42270 On ch=8 n=62 v=127
42299 On ch=8 n=62 v=0
42299 On ch=8 n=74 v=0
42300 On ch=8 n=69 v=127
42300 On ch=8 n=57 v=127
42329 On ch=8 n=57 v=0
42329 On ch=8 n=69 v=0
42330 On ch=8 n=69 v=127
42330 On ch=8 n=57 v=127
42359 On ch=8 n=57 v=0
42359 On ch=8 n=69 v=0
42360 On ch=8 n=70 v=127
42360 On ch=8 n=58 v=127
42389 On ch=8 n=58 v=0
42389 On ch=8 n=70 v=0
42390 On ch=8 n=70 v=127
42390 On ch=8 n=58 v=127
42419 On ch=8 n=58 v=0
42419 On ch=8 n=70 v=0
42420 On ch=8 n=68 v=127
42420 On ch=8 n=56 v=127
42449 On ch=8 n=56 v=0
42449 On ch=8 n=68 v=0
42450 On ch=8 n=68 v=127
42450 On ch=8 n=56 v=127
42479 On ch=8 n=56 v=0
42479 On ch=8 n=68 v=0
42480 On ch=8 n=67 v=127
42480 On ch=8 n=55 v=127
42509 On ch=8 n=55 v=0
42509 On ch=8 n=67 v=0
42510 On ch=8 n=67 v=127
42510 On ch=8 n=55 v=127
42539 On ch=8 n=55 v=0
42539 On ch=8 n=67 v=0
42540 On ch=8 n=71 v=127
42540 On ch=8 n=59 v=127
42569 On ch=8 n=59 v=0
42569 On ch=8 n=71 v=0
42570 On ch=8 n=71 v=127
42570 On ch=8 n=59 v=127
42599 On ch=8 n=59 v=0
42599 On ch=8 n=71 v=0
42600 On ch=8 n=72 v=127
42600 On ch=8 n=60 v=127
42629 On ch=8 n=60 v=0
42629 On ch=8 n=72 v=0
42630 On ch=8 n=72 v=127
42630 On ch=8 n=60 v=127
42659 On ch=8 n=60 v=0
42659 On ch=8 n=72 v=0
42660 On ch=8 n=70 v=127
42660 On ch=8 n=58 v=127
42689 On ch=8 n=58 v=0
42689 On ch=8 n=70 v=0
42690 On ch=8 n=70 v=127
42690 On ch=8 n=58 v=127
42719 On ch=8 n=58 v=0
42719 On ch=8 n=70 v=0
42720 On ch=8 n=69 v=127
42720 On ch=8 n=57 v=127
42749 On ch=8 n=57 v=0
42749 On ch=8 n=69 v=0
42750 On ch=8 n=69 v=127
42750 On ch=8 n=57 v=127
42779 On ch=8 n=57 v=0
42779 On ch=8 n=69 v=0
42780 On ch=8 n=73 v=127
42780 On ch=8 n=61 v=127
42809 On ch=8 n=61 v=0
42809 On ch=8 n=73 v=0
42810 On ch=8 n=73 v=127
42810 On ch=8 n=61 v=127
42839 On ch=8 n=61 v=0
42839 On ch=8 n=73 v=0
42840 On ch=8 n=74 v=127
42840 On ch=8 n=62 v=127
42869 On ch=8 n=62 v=0
42869 On ch=8 n=74 v=0
42870 On ch=8 n=74 v=127
42870 On ch=8 n=62 v=127
42899 On ch=8 n=62 v=0
42899 On ch=8 n=74 v=0
42900 On ch=8 n=72 v=127
42900 On ch=8 n=60 v=127
42929 On ch=8 n=60 v=0
42929 On ch=8 n=72 v=0
42930 On ch=8 n=72 v=127
42930 On ch=8 n=60 v=127
42959 On ch=8 n=60 v=0
42959 On ch=8 n=72 v=0
42960 On ch=8 n=70 v=127
42960 On ch=8 n=58 v=127
42989 On ch=8 n=58 v=0
42989 On ch=8 n=70 v=0
42990 On ch=8 n=70 v=127
42990 On ch=8 n=58 v=127
43019 On ch=8 n=58 v=0
43019 On ch=8 n=70 v=0
43020 On ch=8 n=74 v=127
43020 On ch=8 n=62 v=127
43049 On ch=8 n=62 v=0
43049 On ch=8 n=74 v=0
43050 On ch=8 n=74 v=127
43050 On ch=8 n=62 v=127
43079 On ch=8 n=62 v=0
43079 On ch=8 n=74 v=0
43080 On ch=8 n=75 v=127
43080 On ch=8 n=63 v=127
43109 On ch=8 n=63 v=0
43109 On ch=8 n=75 v=0
43110 On ch=8 n=75 v=127
43110 On ch=8 n=63 v=127
43139 On ch=8 n=63 v=0
43139 On ch=8 n=75 v=0
43140 On ch=8 n=74 v=127
43140 On ch=8 n=62 v=127
43169 On ch=8 n=62 v=0
43169 On ch=8 n=74 v=0
43170 On ch=8 n=74 v=127
43170 On ch=8 n=62 v=127
43199 On ch=8 n=62 v=0
43199 On ch=8 n=74 v=0
43200 On ch=8 n=72 v=127
43200 On ch=8 n=60 v=127
43229 On ch=8 n=60 v=0
43229 On ch=8 n=72 v=0
43230 On ch=8 n=72 v=127
43230 On ch=8 n=60 v=127
43259 On ch=8 n=60 v=0
43259 On ch=8 n=72 v=0
43260 On ch=8 n=76 v=127
43260 On ch=8 n=64 v=127
43289 On ch=8 n=64 v=0
43289 On ch=8 n=76 v=0
43290 On ch=8 n=76 v=127
43290 On ch=8 n=64 v=127
43319 On ch=8 n=64 v=0
43319 On ch=8 n=76 v=0
43320 On ch=8 n=77 v=127
43320 On ch=8 n=65 v=127
43349 On ch=8 n=65 v=0
43349 On ch=8 n=77 v=0
43350 On ch=8 n=77 v=127
43350 On ch=8 n=65 v=127
43379 On ch=8 n=65 v=0
43379 On ch=8 n=77 v=0
43380 On ch=8 n=75 v=127
43380 On ch=8 n=63 v=127
43409 On ch=8 n=63 v=0
43409 On ch=8 n=75 v=0
43410 On ch=8 n=75 v=127
43410 On ch=8 n=63 v=127
43439 On ch=8 n=63 v=0
43439 On ch=8 n=75 v=0
43440 On ch=8 n=74 v=127
43440 On ch=8 n=62 v=127
43469 On ch=8 n=62 v=0
43469 On ch=8 n=74 v=0
43470 On ch=8 n=74 v=127
43470 On ch=8 n=62 v=127
43499 On ch=8 n=62 v=0
43499 On ch=8 n=74 v=0
43500 On ch=8 n=78 v=127
43500 On ch=8 n=66 v=127
43529 On ch=8 n=66 v=0
43529 On ch=8 n=78 v=0
43530 On ch=8 n=78 v=127
43530 On ch=8 n=66 v=127
43559 On ch=8 n=66 v=0
43559 On ch=8 n=78 v=0
43560 On ch=8 n=79 v=127
43560 On ch=8 n=67 v=127
43589 On ch=8 n=67 v=0
43589 On ch=8 n=79 v=0
43590 On ch=8 n=79 v=127
43590 On ch=8 n=67 v=127
43619 On ch=8 n=67 v=0
43619 On ch=8 n=79 v=0
43620 On ch=8 n=81 v=127
43620 On ch=8 n=69 v=127
43649 On ch=8 n=69 v=0
43649 On ch=8 n=81 v=0
43650 On ch=8 n=81 v=127
43650 On ch=8 n=69 v=127
43679 On ch=8 n=69 v=0
43679 On ch=8 n=81 v=0
43680 On ch=8 n=82 v=127
43680 On ch=8 n=70 v=127
43709 On ch=8 n=70 v=0
43709 On ch=8 n=82 v=0
43710 On ch=8 n=82 v=127
43710 On ch=8 n=70 v=127
43739 On ch=8 n=70 v=0
43739 On ch=8 n=82 v=0
43740 On ch=8 n=83 v=127
43740 On ch=8 n=71 v=127
43769 On ch=8 n=71 v=0
43769 On ch=8 n=83 v=0
43770 On ch=8 n=83 v=127
43770 On ch=8 n=71 v=127
43799 On ch=8 n=71 v=0
43799 On ch=8 n=83 v=0
43800 On ch=8 n=84 v=127
43800 On ch=8 n=72 v=127
43829 On ch=8 n=72 v=0
43829 On ch=8 n=84 v=0
43830 On ch=8 n=84 v=127
43830 On ch=8 n=72 v=127
43859 On ch=8 n=72 v=0
43859 On ch=8 n=84 v=0
43860 On ch=8 n=85 v=127
43860 On ch=8 n=73 v=127
43889 On ch=8 n=73 v=0
43889 On ch=8 n=85 v=0
43890 On ch=8 n=85 v=127
43890 On ch=8 n=73 v=127
43919 On ch=8 n=73 v=0
43919 On ch=8 n=85 v=0
43920 On ch=8 n=86 v=127
43920 On ch=8 n=74 v=127
43979 On ch=8 n=74 v=0
43979 On ch=8 n=86 v=0
44040 On ch=8 n=74 v=127
44040 On ch=8 n=84 v=127
44040 On ch=8 n=81 v=127
44040 On ch=8 n=72 v=127
44040 On ch=8 n=62 v=127
44099 On ch=8 n=62 v=0
44099 On ch=8 n=81 v=0
44099 On ch=8 n=74 v=0
44099 On ch=8 n=84 v=0
44099 On ch=8 n=72 v=0
44160 On ch=8 n=74 v=127
44160 On ch=8 n=82 v=127
44160 On ch=8 n=62 v=127
44160 On ch=8 n=70 v=127
44160 On ch=8 n=79 v=127
44219 On ch=8 n=79 v=0
44219 On ch=8 n=62 v=0
44219 On ch=8 n=74 v=0
44219 On ch=8 n=82 v=0
44219 On ch=8 n=70 v=0
44400 On ch=8 n=80 v=127
44400 On ch=8 n=62 v=127
44400 On ch=8 n=71 v=127
44400 On ch=8 n=65 v=127
44459 On ch=8 n=65 v=0
44459 On ch=8 n=80 v=0
44459 On ch=8 n=62 v=0
44459 On ch=8 n=71 v=0
44520 On ch=8 n=79 v=127
44520 On ch=8 n=72 v=127
44520 On ch=8 n=63 v=127
44579 On ch=8 n=63 v=0
44579 On ch=8 n=72 v=0
44579 On ch=8 n=79 v=0
44760 On ch=8 n=82 v=127
44760 On ch=8 n=79 v=127
44760 On ch=8 n=72 v=127
44760 On ch=8 n=64 v=127
44819 On ch=8 n=64 v=0
44819 On ch=8 n=82 v=0
44819 On ch=8 n=79 v=0
44819 On ch=8 n=72 v=0
44880 On ch=8 n=81 v=127
44880 On ch=8 n=65 v=127
44880 On ch=8 n=72 v=127
44880 On ch=8 n=77 v=127
44939 On ch=8 n=77 v=0
44939 On ch=8 n=81 v=0
44939 On ch=8 n=65 v=0
44939 On ch=8 n=72 v=0
45120 On ch=8 n=84 v=127
45120 On ch=8 n=74 v=127
45120 On ch=8 n=81 v=127
45120 On ch=8 n=72 v=127
45120 On ch=8 n=62 v=127
45179 On ch=8 n=62 v=0
45179 On ch=8 n=81 v=0
45179 On ch=8 n=84 v=0
45179 On ch=8 n=74 v=0
45179 On ch=8 n=72 v=0
45240 On ch=8 n=82 v=127
45240 On ch=8 n=74 v=127
45240 On ch=8 n=62 v=127
45240 On ch=8 n=70 v=127
45240 On ch=8 n=79 v=127
45299 On ch=8 n=79 v=0
45299 On ch=8 n=62 v=0
45299 On ch=8 n=82 v=0
45299 On ch=8 n=74 v=0
45299 On ch=8 n=70 v=0
45480 On ch=8 n=80 v=127
45480 On ch=8 n=71 v=127
45480 On ch=8 n=65 v=127
45539 On ch=8 n=65 v=0
45539 On ch=8 n=71 v=0
45539 On ch=8 n=80 v=0
45600 On ch=8 n=79 v=127
45600 On ch=8 n=72 v=127
45600 On ch=8 n=63 v=127
45659 On ch=8 n=63 v=0
45659 On ch=8 n=72 v=0
45659 On ch=8 n=79 v=0
45840 On ch=8 n=82 v=127
45840 On ch=8 n=79 v=127
45840 On ch=8 n=72 v=127
45840 On ch=8 n=64 v=127
45899 On ch=8 n=64 v=0
45899 On ch=8 n=82 v=0
45899 On ch=8 n=79 v=0
45899 On ch=8 n=72 v=0
46080 On ch=8 n=82 v=127
46080 On ch=8 n=64 v=127
46080 On ch=8 n=72 v=127
46080 On ch=8 n=79 v=127
46139 On ch=8 n=79 v=0
46139 On ch=8 n=82 v=0
46139 On ch=8 n=64 v=0
46139 On ch=8 n=72 v=0
46320 On ch=8 n=82 v=127
46320 On ch=8 n=79 v=127
46320 On ch=8 n=72 v=127
46320 On ch=8 n=64 v=127
46379 On ch=8 n=64 v=0
46379 On ch=8 n=82 v=0
46379 On ch=8 n=79 v=0
46379 On ch=8 n=72 v=0
46560 On ch=8 n=82 v=127
46560 On ch=8 n=64 v=127
46560 On ch=8 n=72 v=127
46560 On ch=8 n=79 v=127
46619 On ch=8 n=79 v=0
46619 On ch=8 n=82 v=0
46619 On ch=8 n=64 v=0
46619 On ch=8 n=72 v=0
46800 On ch=8 n=82 v=127
46800 On ch=8 n=79 v=127
46800 On ch=8 n=72 v=127
46800 On ch=8 n=64 v=127
46859 On ch=8 n=64 v=0
46859 On ch=8 n=82 v=0
46859 On ch=8 n=79 v=0
46859 On ch=8 n=72 v=0
47040 On ch=8 n=82 v=127
47040 On ch=8 n=64 v=127
47040 On ch=8 n=72 v=127
47040 On ch=8 n=79 v=127
47099 On ch=8 n=79 v=0
47099 On ch=8 n=82 v=0
47099 On ch=8 n=64 v=0
47099 On ch=8 n=72 v=0
47520 On ch=8 n=70 v=96
47520 On ch=8 n=64 v=96
47549 On ch=8 n=64 v=0
47549 On ch=8 n=70 v=0
47550 On ch=8 n=64 v=48
47550 On ch=8 n=70 v=48
47640 On ch=8 n=73 v=48
47640 On ch=8 n=61 v=48
47649 On ch=8 n=70 v=0
47649 On ch=8 n=64 v=0
47760 On ch=8 n=76 v=48
47760 On ch=8 n=58 v=48
47769 On ch=8 n=73 v=0
47769 On ch=8 n=61 v=0
47879 On ch=8 n=76 v=0
47879 On ch=8 n=58 v=0
47880 On ch=8 n=77 v=48
47880 On ch=8 n=62 v=48
47880 On ch=8 n=58 v=48
48239 On ch=8 n=58 v=0
48239 On ch=8 n=62 v=0
48239 On ch=8 n=77 v=0
48240 On ch=8 n=70 v=96
48240 On ch=8 n=64 v=96
48269 On ch=8 n=64 v=0
48269 On ch=8 n=70 v=0
48270 On ch=8 n=70 v=48
48270 On ch=8 n=64 v=48
48360 On ch=8 n=73 v=48
48360 On ch=8 n=61 v=48
48369 On ch=8 n=64 v=0
48369 On ch=8 n=70 v=0
48480 On ch=8 n=76 v=48
48480 On ch=8 n=58 v=48
48489 On ch=8 n=73 v=0
48489 On ch=8 n=61 v=0
48659 On ch=8 n=58 v=0
48660 On ch=8 n=55 v=48
48689 On ch=8 n=55 v=0
48720 On ch=8 n=75 v=48
48720 On ch=8 n=58 v=48
48729 On ch=8 n=76 v=0
48749 On ch=8 n=58 v=0
48780 On ch=8 n=63 v=48
48809 On ch=8 n=63 v=0
48840 On ch=8 n=73 v=48
48840 On ch=8 n=55 v=48
48849 On ch=8 n=75 v=0
48899 On ch=8 n=55 v=0
49020 On ch=8 n=56 v=48
49049 On ch=8 n=56 v=0
49080 On ch=8 n=71 v=48
49080 On ch=8 n=60 v=48
49089 On ch=8 n=73 v=0
49109 On ch=8 n=60 v=0
49140 On ch=8 n=63 v=48
49169 On ch=8 n=63 v=0
49200 On ch=8 n=72 v=48
49200 On ch=8 n=56 v=48
49209 On ch=8 n=71 v=0
49259 On ch=8 n=56 v=0
49380 On ch=8 n=57 v=48
49409 On ch=8 n=57 v=0
49440 On ch=8 n=65 v=48
49440 On ch=8 n=60 v=48
49449 On ch=8 n=72 v=0
49469 On ch=8 n=60 v=0
49499 On ch=8 n=65 v=0
49500 On ch=8 n=65 v=48
49559 On ch=8 n=65 v=0
49560 On ch=8 n=75 v=48
49560 On ch=8 n=57 v=48
49619 On ch=8 n=57 v=0
49740 On ch=8 n=58 v=48
49769 On ch=8 n=58 v=0
49800 On ch=8 n=73 v=48
49800 On ch=8 n=62 v=48
49809 On ch=8 n=75 v=0
49829 On ch=8 n=62 v=0
49860 On ch=8 n=65 v=48
49889 On ch=8 n=65 v=0
49920 On ch=8 n=74 v=48
49920 On ch=8 n=70 v=48
49929 On ch=8 n=73 v=0
49949 On ch=8 n=70 v=0
49980 On ch=8 n=66 v=48
50009 On ch=8 n=66 v=0
50040 On ch=8 n=67 v=48
50069 On ch=8 n=67 v=0
50070 On ch=8 n=67 v=50
50099 On ch=8 n=67 v=0
50100 On ch=8 n=66 v=52
50100 On ch=8 n=55 v=52
50109 On ch=8 n=74 v=0
50129 On ch=8 n=55 v=0
50130 On ch=8 n=55 v=53
50159 On ch=8 n=55 v=0
50160 On ch=8 n=67 v=55
50169 On ch=8 n=66 v=0
50189 On ch=8 n=67 v=0
50190 On ch=8 n=67 v=56
50219 On ch=8 n=67 v=0
50220 On ch=8 n=71 v=58
50220 On ch=8 n=67 v=58
50249 On ch=8 n=67 v=0
50250 On ch=8 n=67 v=60
50279 On ch=8 n=67 v=0
50280 On ch=8 n=72 v=65
50280 On ch=8 n=67 v=62
50289 On ch=8 n=71 v=0
50309 On ch=8 n=67 v=0
50310 On ch=8 n=67 v=63
50339 On ch=8 n=67 v=0
50340 On ch=8 n=74 v=69
50340 On ch=8 n=67 v=65
50349 On ch=8 n=72 v=0
50369 On ch=8 n=67 v=0
50370 On ch=8 n=67 v=67
50399 On ch=8 n=67 v=0
50400 On ch=8 n=75 v=72
50400 On ch=8 n=63 v=69
50409 On ch=8 n=74 v=0
50429 On ch=8 n=63 v=0
50430 On ch=8 n=63 v=70
50459 On ch=8 n=63 v=0
50460 On ch=8 n=78 v=75
50460 On ch=8 n=63 v=72
50469 On ch=8 n=75 v=0
50489 On ch=8 n=63 v=0
50490 On ch=8 n=63 v=74
50519 On ch=8 n=63 v=0
50520 On ch=8 n=79 v=79
50520 On ch=8 n=63 v=76
50529 On ch=8 n=78 v=0
50549 On ch=8 n=63 v=0
50550 On ch=8 n=63 v=77
50579 On ch=8 n=63 v=0
50580 On ch=8 n=75 v=81
50580 On ch=8 n=67 v=79
50589 On ch=8 n=79 v=0
50609 On ch=8 n=67 v=0
50610 On ch=8 n=67 v=81
50639 On ch=8 n=67 v=0
50640 On ch=8 n=74 v=83
50640 On ch=8 n=65 v=83
50649 On ch=8 n=75 v=0
50669 On ch=8 n=65 v=0
50670 On ch=8 n=65 v=84
50699 On ch=8 n=65 v=0
50700 On ch=8 n=72 v=86
50700 On ch=8 n=63 v=86
50709 On ch=8 n=74 v=0
50729 On ch=8 n=63 v=0
50730 On ch=8 n=63 v=88
50759 On ch=8 n=63 v=0
50760 On ch=8 n=70 v=90
50760 On ch=8 n=62 v=90
50769 On ch=8 n=72 v=0
50789 On ch=8 n=62 v=0
50789 On ch=8 n=70 v=0
50790 On ch=8 n=70 v=91
50790 On ch=8 n=62 v=91
50819 On ch=8 n=62 v=0
50819 On ch=8 n=70 v=0
50820 On ch=8 n=58 v=93
50820 On ch=8 n=74 v=93
50849 On ch=8 n=74 v=0
50849 On ch=8 n=58 v=0
50850 On ch=8 n=74 v=95
50850 On ch=8 n=58 v=95
50879 On ch=8 n=58 v=0
50879 On ch=8 n=74 v=0
50880 On ch=8 n=77 v=97
50880 On ch=8 n=62 v=97
50909 On ch=8 n=62 v=0
50909 On ch=8 n=77 v=0
50910 On ch=8 n=77 v=99
50910 On ch=8 n=62 v=99
50939 On ch=8 n=62 v=0
50939 On ch=8 n=77 v=0
50940 On ch=8 n=82 v=101
50940 On ch=8 n=65 v=101
50969 On ch=8 n=65 v=0
50969 On ch=8 n=82 v=0
50970 On ch=8 n=82 v=103
50970 On ch=8 n=65 v=103
50999 On ch=8 n=65 v=0
50999 On ch=8 n=82 v=0
51000 On ch=8 n=86 v=105
51000 On ch=8 n=70 v=105
51029 On ch=8 n=70 v=0
51029 On ch=8 n=86 v=0
51030 On ch=8 n=86 v=107
51030 On ch=8 n=70 v=107
51059 On ch=8 n=70 v=0
51059 On ch=8 n=86 v=0
51060 On ch=8 n=89 v=109
51060 On ch=8 n=74 v=109
51089 On ch=8 n=74 v=0
51089 On ch=8 n=89 v=0
51090 On ch=8 n=89 v=111
51090 On ch=8 n=74 v=111
51119 On ch=8 n=74 v=0
51119 On ch=8 n=89 v=0
51120 On ch=8 n=89 v=127
51120 On ch=8 n=75 v=127
51149 On ch=8 n=75 v=0
51149 On ch=8 n=89 v=0
51150 On ch=8 n=89 v=127
51150 On ch=8 n=75 v=127
51179 On ch=8 n=75 v=0
51179 On ch=8 n=89 v=0
51180 On ch=8 n=89 v=127
51180 On ch=8 n=75 v=127
51209 On ch=8 n=75 v=0
51209 On ch=8 n=89 v=0
51210 On ch=8 n=89 v=127
51210 On ch=8 n=75 v=127
51239 On ch=8 n=75 v=0
51239 On ch=8 n=89 v=0
51240 On ch=8 n=89 v=127
51240 On ch=8 n=75 v=127
51269 On ch=8 n=75 v=0
51269 On ch=8 n=89 v=0
51270 On ch=8 n=89 v=127
51270 On ch=8 n=75 v=127
51299 On ch=8 n=75 v=0
51299 On ch=8 n=89 v=0
51300 On ch=8 n=89 v=127
51300 On ch=8 n=75 v=127
51329 On ch=8 n=75 v=0
51329 On ch=8 n=89 v=0
51330 On ch=8 n=89 v=127
51330 On ch=8 n=75 v=127
51359 On ch=8 n=75 v=0
51359 On ch=8 n=89 v=0
51360 On ch=8 n=89 v=127
51360 On ch=8 n=75 v=127
51389 On ch=8 n=75 v=0
51389 On ch=8 n=89 v=0
51390 On ch=8 n=89 v=127
51390 On ch=8 n=75 v=127
51419 On ch=8 n=75 v=0
51419 On ch=8 n=89 v=0
51420 On ch=8 n=89 v=127
51420 On ch=8 n=75 v=127
51449 On ch=8 n=75 v=0
51449 On ch=8 n=89 v=0
51450 On ch=8 n=89 v=127
51450 On ch=8 n=75 v=127
51479 On ch=8 n=75 v=0
51479 On ch=8 n=89 v=0
51480 On ch=8 n=82 v=96
51480 On ch=8 n=70 v=96
51480 On ch=8 n=74 v=96
51539 On ch=8 n=74 v=0
51539 On ch=8 n=70 v=0
51539 On ch=8 n=82 v=0
51600 On ch=8 n=65 v=96
51659 On ch=8 n=65 v=0
51720 On ch=8 n=62 v=96
51779 On ch=8 n=62 v=0
51840 On ch=8 n=82 v=96
51840 On ch=8 n=70 v=96
51899 On ch=8 n=70 v=0
51899 On ch=8 n=82 v=0
51960 On ch=8 n=67 v=112
52019 On ch=8 n=67 v=0
52080 On ch=8 n=63 v=96
52139 On ch=8 n=63 v=0
52200 On ch=8 n=70 v=96
52200 On ch=8 n=82 v=96
52259 On ch=8 n=82 v=0
52259 On ch=8 n=70 v=0
52320 On ch=8 n=65 v=112
52379 On ch=8 n=65 v=0
52440 On ch=8 n=62 v=96
52499 On ch=8 n=62 v=0
52560 On ch=8 n=82 v=96
52560 On ch=8 n=70 v=96
52560 On ch=8 n=69 v=96
52560 On ch=8 n=66 v=96
52619 On ch=8 n=66 v=0
52619 On ch=8 n=82 v=0
52619 On ch=8 n=70 v=0
52619 On ch=8 n=69 v=0
52680 On ch=8 n=70 v=96
52680 On ch=8 n=82 v=96
52680 On ch=8 n=66 v=96
52680 On ch=8 n=69 v=96
52739 On ch=8 n=69 v=0
52739 On ch=8 n=70 v=0
52739 On ch=8 n=82 v=0
52739 On ch=8 n=66 v=0
52800 On ch=8 n=82 v=96
52800 On ch=8 n=70 v=96
52800 On ch=8 n=69 v=96
52800 On ch=8 n=66 v=96
52859 On ch=8 n=66 v=0
52859 On ch=8 n=82 v=0
52859 On ch=8 n=70 v=0
52859 On ch=8 n=69 v=0
52920 On ch=8 n=82 v=96
52920 On ch=8 n=70 v=96
52949 On ch=8 n=70 v=0
52949 On ch=8 n=82 v=0
52950 On ch=8 n=82 v=48
52950 On ch=8 n=70 v=48
53160 On ch=8 n=86 v=48
53160 On ch=8 n=74 v=48
53169 On ch=8 n=70 v=0
53169 On ch=8 n=82 v=0
53280 On ch=8 n=82 v=48
53280 On ch=8 n=70 v=48
53289 On ch=8 n=86 v=0
53289 On ch=8 n=74 v=0
53520 On ch=8 n=77 v=48
53520 On ch=8 n=65 v=48
53529 On ch=8 n=82 v=0
53529 On ch=8 n=70 v=0
53639 On ch=8 n=77 v=0
53639 On ch=8 n=65 v=0
53640 On ch=8 n=68 v=48
53880 On ch=8 n=72 v=48
53889 On ch=8 n=68 v=0
54000 On ch=8 n=68 v=48
54009 On ch=8 n=72 v=0
54060 On ch=8 n=62 v=48
54120 On ch=8 n=65 v=48
54129 On ch=8 n=62 v=0
54179 On ch=8 n=68 v=0
54180 On ch=8 n=68 v=48
54189 On ch=8 n=65 v=0
54240 On ch=8 n=74 v=48
54240 On ch=8 n=65 v=48
54249 On ch=8 n=68 v=0
54300 On ch=8 n=77 v=48
54309 On ch=8 n=74 v=0
54359 On ch=8 n=65 v=0
54360 On ch=8 n=80 v=48
54360 On ch=8 n=62 v=32
54369 On ch=8 n=77 v=0
54479 On ch=8 n=80 v=0
54600 On ch=8 n=59 v=32
54609 On ch=8 n=62 v=0
54720 On ch=8 n=57 v=32
54729 On ch=8 n=59 v=0
54960 On ch=8 n=62 v=96
54960 On ch=8 n=56 v=96
54969 On ch=8 n=57 v=0
54989 On ch=8 n=56 v=0
54989 On ch=8 n=62 v=0
54990 On ch=8 n=56 v=48
54990 On ch=8 n=62 v=48
55080 On ch=8 n=63 v=48
55080 On ch=8 n=55 v=48
55089 On ch=8 n=62 v=0
55089 On ch=8 n=56 v=0
55139 On ch=8 n=55 v=0
55140 On ch=8 n=67 v=48
55169 On ch=8 n=67 v=0
55199 On ch=8 n=63 v=0
55200 On ch=8 n=67 v=48
55259 On ch=8 n=67 v=0
55260 On ch=8 n=67 v=48
55319 On ch=8 n=67 v=0
55320 On ch=8 n=67 v=48
55379 On ch=8 n=67 v=0
55380 On ch=8 n=67 v=48
55439 On ch=8 n=67 v=0
55440 On ch=8 n=67 v=48
55499 On ch=8 n=67 v=0
55500 On ch=8 n=67 v=48
55559 On ch=8 n=67 v=0
55560 On ch=8 n=67 v=48
55619 On ch=8 n=67 v=0
55620 On ch=8 n=67 v=48
55679 On ch=8 n=67 v=0
55680 On ch=8 n=67 v=48
55739 On ch=8 n=67 v=0
55740 On ch=8 n=67 v=48
55799 On ch=8 n=67 v=0
55800 On ch=8 n=67 v=48
55859 On ch=8 n=67 v=0
55860 On ch=8 n=67 v=48
55919 On ch=8 n=67 v=0
55920 On ch=8 n=67 v=48
55979 On ch=8 n=67 v=0
55980 On ch=8 n=67 v=48
56039 On ch=8 n=67 v=0
56040 On ch=8 n=67 v=48
56099 On ch=8 n=67 v=0
56100 On ch=8 n=67 v=48
56159 On ch=8 n=67 v=0
56160 On ch=8 n=67 v=48
56219 On ch=8 n=67 v=0
56220 On ch=8 n=67 v=48
56279 On ch=8 n=67 v=0
56280 On ch=8 n=67 v=48
56339 On ch=8 n=67 v=0
56340 On ch=8 n=67 v=48
56399 On ch=8 n=67 v=0
56400 On ch=8 n=67 v=48
56459 On ch=8 n=67 v=0
56460 On ch=8 n=67 v=48
56519 On ch=8 n=67 v=0
56520 On ch=8 n=67 v=48
56579 On ch=8 n=67 v=0
56580 On ch=8 n=79 v=48
56580 On ch=8 n=67 v=51
56639 On ch=8 n=67 v=0
56640 On ch=8 n=67 v=54
56699 On ch=8 n=67 v=0
56699 On ch=8 n=79 v=0
56700 On ch=8 n=79 v=54
56700 On ch=8 n=67 v=57
56759 On ch=8 n=67 v=0
56760 On ch=8 n=67 v=60
56819 On ch=8 n=67 v=0
56819 On ch=8 n=79 v=0
56820 On ch=8 n=79 v=60
56820 On ch=8 n=67 v=63
56879 On ch=8 n=67 v=0
56880 On ch=8 n=67 v=66
56939 On ch=8 n=67 v=0
56939 On ch=8 n=79 v=0
56940 On ch=8 n=79 v=66
56940 On ch=8 n=67 v=69
56999 On ch=8 n=67 v=0
57000 On ch=8 n=67 v=72
57059 On ch=8 n=67 v=0
57059 On ch=8 n=79 v=0
57060 On ch=8 n=67 v=75
57060 On ch=8 n=79 v=72
57119 On ch=8 n=67 v=0
57120 On ch=8 n=67 v=78
57179 On ch=8 n=67 v=0
57179 On ch=8 n=79 v=0
57180 On ch=8 n=79 v=78
57180 On ch=8 n=67 v=81
57239 On ch=8 n=67 v=0
57240 On ch=8 n=67 v=81
57300 On ch=8 n=58 v=81
57309 On ch=8 n=67 v=0
57360 On ch=8 n=67 v=81
57369 On ch=8 n=58 v=0
57420 On ch=8 n=58 v=81
57429 On ch=8 n=67 v=0
57480 On ch=8 n=67 v=81
57489 On ch=8 n=58 v=0
57540 On ch=8 n=58 v=81
57549 On ch=8 n=67 v=0
57599 On ch=8 n=58 v=0
57599 On ch=8 n=79 v=0
57600 On ch=8 n=80 v=96
57600 On ch=8 n=65 v=96
57660 On ch=8 n=58 v=88
57669 On ch=8 n=65 v=0
57720 On ch=8 n=65 v=80
57729 On ch=8 n=58 v=0
57780 On ch=8 n=58 v=72
57789 On ch=8 n=65 v=0
57840 On ch=8 n=65 v=64
57849 On ch=8 n=58 v=0
57900 On ch=8 n=58 v=56
57909 On ch=8 n=65 v=0
57959 On ch=8 n=58 v=0
57960 On ch=8 n=63 v=48
58020 On ch=8 n=58 v=48
58029 On ch=8 n=63 v=0
58080 On ch=8 n=63 v=48
58089 On ch=8 n=58 v=0
58140 On ch=8 n=58 v=48
58149 On ch=8 n=63 v=0
58199 On ch=8 n=80 v=0
58200 On ch=8 n=63 v=48
58200 On ch=8 n=79 v=48
58209 On ch=8 n=58 v=0
58260 On ch=8 n=58 v=48
58269 On ch=8 n=63 v=0
58319 On ch=8 n=58 v=0
58320 On ch=8 n=60 v=48
58320 On ch=8 n=77 v=48
58329 On ch=8 n=79 v=0
58380 On ch=8 n=63 v=48
58389 On ch=8 n=60 v=0
58440 On ch=8 n=58 v=48
58440 On ch=8 n=79 v=48
58449 On ch=8 n=63 v=0
58449 On ch=8 n=77 v=0
58500 On ch=8 n=63 v=48
58509 On ch=8 n=58 v=0
58560 On ch=8 n=56 v=48
58560 On ch=8 n=80 v=48
58569 On ch=8 n=63 v=0
58569 On ch=8 n=79 v=0
58620 On ch=8 n=63 v=48
58629 On ch=8 n=56 v=0
58679 On ch=8 n=63 v=0
58679 On ch=8 n=80 v=0
58680 On ch=8 n=79 v=48
58680 On ch=8 n=58 v=48
58740 On ch=8 n=82 v=48
58740 On ch=8 n=63 v=48
58749 On ch=8 n=58 v=0
58749 On ch=8 n=79 v=0
58800 On ch=8 n=80 v=48
58800 On ch=8 n=55 v=48
58809 On ch=8 n=82 v=0
58809 On ch=8 n=63 v=0
58860 On ch=8 n=79 v=48
58860 On ch=8 n=58 v=48
58869 On ch=8 n=80 v=0
58869 On ch=8 n=55 v=0
58920 On ch=8 n=77 v=48
58920 On ch=8 n=55 v=48
58929 On ch=8 n=79 v=0
58929 On ch=8 n=58 v=0
58980 On ch=8 n=75 v=48
58980 On ch=8 n=58 v=48
58989 On ch=8 n=77 v=0
58989 On ch=8 n=55 v=0
59039 On ch=8 n=75 v=0
59039 On ch=8 n=58 v=0
59040 On ch=8 n=74 v=48
59040 On ch=8 n=56 v=48
59100 On ch=8 n=70 v=48
59100 On ch=8 n=58 v=48
59109 On ch=8 n=56 v=0
59109 On ch=8 n=74 v=0
59160 On ch=8 n=75 v=48
59160 On ch=8 n=55 v=48
59169 On ch=8 n=70 v=0
59169 On ch=8 n=58 v=0
59220 On ch=8 n=70 v=48
59220 On ch=8 n=58 v=48
59229 On ch=8 n=75 v=0
59229 On ch=8 n=55 v=0
59280 On ch=8 n=68 v=48
59280 On ch=8 n=62 v=48
59289 On ch=8 n=70 v=0
59289 On ch=8 n=58 v=0
59340 On ch=8 n=65 v=48
59340 On ch=8 n=58 v=48
59349 On ch=8 n=68 v=0
59349 On ch=8 n=62 v=0
59399 On ch=8 n=65 v=0
59399 On ch=8 n=58 v=0
59400 On ch=8 n=63 v=48
59460 On ch=8 n=58 v=48
59489 On ch=8 n=58 v=0
59519 On ch=8 n=63 v=0
59520 On ch=8 n=58 v=48
59579 On ch=8 n=58 v=0
59580 On ch=8 n=58 v=48
59639 On ch=8 n=58 v=0
59640 On ch=8 n=58 v=48
59699 On ch=8 n=58 v=0
59700 On ch=8 n=58 v=48
59759 On ch=8 n=58 v=0
59760 On ch=8 n=58 v=48
59819 On ch=8 n=58 v=0
59820 On ch=8 n=58 v=48
59879 On ch=8 n=58 v=0
59880 On ch=8 n=58 v=48
59939 On ch=8 n=58 v=0
59940 On ch=8 n=58 v=48
59999 On ch=8 n=58 v=0
60000 On ch=8 n=58 v=48
60059 On ch=8 n=58 v=0
60060 On ch=8 n=58 v=48
60119 On ch=8 n=58 v=0
60120 On ch=8 n=58 v=48
60179 On ch=8 n=58 v=0
60180 On ch=8 n=58 v=48
60239 On ch=8 n=58 v=0
60240 On ch=8 n=58 v=48
60299 On ch=8 n=58 v=0
60300 On ch=8 n=58 v=48
60359 On ch=8 n=58 v=0
60360 On ch=8 n=58 v=48
60419 On ch=8 n=58 v=0
60420 On ch=8 n=58 v=48
60479 On ch=8 n=58 v=0
60480 On ch=8 n=58 v=48
60539 On ch=8 n=58 v=0
60540 On ch=8 n=58 v=48
60599 On ch=8 n=58 v=0
60600 On ch=8 n=61 v=48
60659 On ch=8 n=61 v=0
60660 On ch=8 n=61 v=48
60719 On ch=8 n=61 v=0
60720 On ch=8 n=76 v=54
60720 On ch=8 n=60 v=48
60779 On ch=8 n=60 v=0
60780 On ch=8 n=60 v=48
60839 On ch=8 n=60 v=0
60840 On ch=8 n=77 v=54
60840 On ch=8 n=60 v=48
60849 On ch=8 n=76 v=0
60899 On ch=8 n=60 v=0
60900 On ch=8 n=60 v=48
60959 On ch=8 n=60 v=0
60960 On ch=8 n=80 v=54
60960 On ch=8 n=60 v=48
60969 On ch=8 n=77 v=0
61019 On ch=8 n=60 v=0
61020 On ch=8 n=60 v=48
61079 On ch=8 n=60 v=0
61080 On ch=8 n=84 v=54
61080 On ch=8 n=60 v=48
61089 On ch=8 n=80 v=0
61139 On ch=8 n=60 v=0
61140 On ch=8 n=60 v=48
61199 On ch=8 n=60 v=0
61199 On ch=8 n=84 v=0
61200 On ch=8 n=77 v=54
61200 On ch=8 n=60 v=48
61259 On ch=8 n=60 v=0
61260 On ch=8 n=60 v=48
61319 On ch=8 n=60 v=0
61319 On ch=8 n=77 v=0
61320 On ch=8 n=61 v=48
61379 On ch=8 n=61 v=0
61380 On ch=8 n=61 v=48
61439 On ch=8 n=61 v=0
61440 On ch=8 n=63 v=48
61499 On ch=8 n=63 v=0
61500 On ch=8 n=63 v=48
61559 On ch=8 n=63 v=0
61560 On ch=8 n=63 v=48
61619 On ch=8 n=63 v=0
61620 On ch=8 n=63 v=48
61679 On ch=8 n=63 v=0
61680 On ch=8 n=63 v=48
61739 On ch=8 n=63 v=0
61740 On ch=8 n=63 v=48
61799 On ch=8 n=63 v=0
61800 On ch=8 n=63 v=48
61859 On ch=8 n=63 v=0
61860 On ch=8 n=63 v=48
61919 On ch=8 n=63 v=0
61920 On ch=8 n=63 v=48
61979 On ch=8 n=63 v=0
61980 On ch=8 n=63 v=56
62039 On ch=8 n=63 v=0
62040 On ch=8 n=63 v=64
62099 On ch=8 n=63 v=0
62100 On ch=8 n=63 v=72
62159 On ch=8 n=63 v=0
62160 On ch=8 n=81 v=80
62160 On ch=8 n=63 v=80
62219 On ch=8 n=63 v=0
62220 On ch=8 n=63 v=88
62279 On ch=8 n=63 v=0
62280 On ch=8 n=82 v=96
62280 On ch=8 n=62 v=96
62289 On ch=8 n=81 v=0
62309 On ch=8 n=82 v=0
62310 On ch=8 n=82 v=48
62339 On ch=8 n=62 v=0
62340 On ch=8 n=58 v=48
62400 On ch=8 n=62 v=48
62409 On ch=8 n=58 v=0
62460 On ch=8 n=65 v=48
62469 On ch=8 n=62 v=0
62519 On ch=8 n=82 v=0
62520 On ch=8 n=77 v=48
62520 On ch=8 n=70 v=48
62529 On ch=8 n=65 v=0
62580 On ch=8 n=74 v=48
62589 On ch=8 n=70 v=0
62639 On ch=8 n=74 v=0
62639 On ch=8 n=77 v=0
62640 On ch=8 n=74 v=48
62640 On ch=8 n=77 v=48
62759 On ch=8 n=77 v=0
62760 On ch=8 n=70 v=48
62760 On ch=8 n=65 v=48
62769 On ch=8 n=74 v=0
62880 On ch=8 n=68 v=48
62880 On ch=8 n=62 v=48
62889 On ch=8 n=65 v=0
62889 On ch=8 n=70 v=0
62999 On ch=8 n=68 v=0
62999 On ch=8 n=62 v=0
63000 On ch=8 n=67 v=48
63000 On ch=8 n=63 v=48
63059 On ch=8 n=63 v=0
63059 On ch=8 n=67 v=0
63120 On ch=8 n=75 v=96
63120 On ch=8 n=72 v=96
63120 On ch=8 n=63 v=96
63240 On ch=8 n=69 v=90
63249 On ch=8 n=75 v=0
63359 On ch=8 n=72 v=0
63359 On ch=8 n=63 v=0
63359 On ch=8 n=69 v=0
63360 On ch=8 n=81 v=96
63360 On ch=8 n=72 v=96
63360 On ch=8 n=63 v=96
63480 On ch=8 n=69 v=90
63489 On ch=8 n=81 v=0
63599 On ch=8 n=72 v=0
63599 On ch=8 n=63 v=0
63599 On ch=8 n=69 v=0
63600 On ch=8 n=81 v=96
63600 On ch=8 n=72 v=96
63600 On ch=8 n=63 v=96
63719 On ch=8 n=63 v=0
63719 On ch=8 n=72 v=0
63720 On ch=8 n=82 v=96
63720 On ch=8 n=70 v=96
63720 On ch=8 n=62 v=96
63729 On ch=8 n=81 v=0
63749 On ch=8 n=82 v=0
63749 On ch=8 n=70 v=0
63749 On ch=8 n=62 v=0
63750 On ch=8 n=82 v=48
63780 On ch=8 n=58 v=48
63840 On ch=8 n=62 v=48
63849 On ch=8 n=58 v=0
63900 On ch=8 n=65 v=48
63909 On ch=8 n=62 v=0
63959 On ch=8 n=82 v=0
63960 On ch=8 n=77 v=48
63960 On ch=8 n=70 v=48
63969 On ch=8 n=65 v=0
64020 On ch=8 n=74 v=48
64029 On ch=8 n=70 v=0
64079 On ch=8 n=74 v=0
64079 On ch=8 n=77 v=0
64080 On ch=8 n=74 v=48
64080 On ch=8 n=77 v=48
64139 On ch=8 n=77 v=0
64200 On ch=8 n=70 v=48
64209 On ch=8 n=74 v=0
64319 On ch=8 n=70 v=0
64320 On ch=8 n=62 v=96
64320 On ch=8 n=70 v=96
64320 On ch=8 n=58 v=96
64320 On ch=8 n=65 v=96
64439 On ch=8 n=65 v=0
64439 On ch=8 n=62 v=0
64439 On ch=8 n=70 v=0
64439 On ch=8 n=58 v=0
64440 On ch=8 n=70 v=90
64440 On ch=8 n=62 v=90
64440 On ch=8 n=58 v=90
64440 On ch=8 n=65 v=90
64499 On ch=8 n=65 v=0
64499 On ch=8 n=70 v=0
64499 On ch=8 n=62 v=0
64499 On ch=8 n=58 v=0
64560 On ch=8 n=74 v=96
64560 On ch=8 n=58 v=96
64560 On ch=8 n=65 v=96
64680 On ch=8 n=70 v=90
64689 On ch=8 n=74 v=0
64799 On ch=8 n=58 v=0
64799 On ch=8 n=65 v=0
64799 On ch=8 n=70 v=0
64800 On ch=8 n=77 v=96
64800 On ch=8 n=65 v=96
64800 On ch=8 n=58 v=96
64920 On ch=8 n=70 v=90
64929 On ch=8 n=77 v=0
65039 On ch=8 n=65 v=0
65039 On ch=8 n=58 v=0
65039 On ch=8 n=70 v=0
65040 On ch=8 n=82 v=96
65040 On ch=8 n=70 v=96
65040 On ch=8 n=58 v=96
65040 On ch=8 n=65 v=96
65279 On ch=8 n=65 v=0
65279 On ch=8 n=82 v=0
65279 On ch=8 n=70 v=0
65279 On ch=8 n=58 v=0
65280 On ch=8 n=75 v=96
65280 On ch=8 n=58 v=96
65280 On ch=8 n=63 v=96
65400 On ch=8 n=70 v=90
65409 On ch=8 n=75 v=0
65519 On ch=8 n=58 v=0
65519 On ch=8 n=63 v=0
65519 On ch=8 n=70 v=0
65520 On ch=8 n=79 v=96
65520 On ch=8 n=58 v=96
65520 On ch=8 n=63 v=96
65640 On ch=8 n=70 v=90
65649 On ch=8 n=79 v=0
65759 On ch=8 n=58 v=0
65759 On ch=8 n=63 v=0
65759 On ch=8 n=70 v=0
65760 On ch=8 n=82 v=96
65760 On ch=8 n=70 v=96
65760 On ch=8 n=58 v=96
65760 On ch=8 n=63 v=96
65999 On ch=8 n=63 v=0
65999 On ch=8 n=82 v=0
65999 On ch=8 n=70 v=0
65999 On ch=8 n=58 v=0
66000 On ch=8 n=70 v=90
66000 On ch=8 n=58 v=90
66000 On ch=8 n=62 v=90
66059 On ch=8 n=62 v=0
66059 On ch=8 n=58 v=0
66059 On ch=8 n=70 v=0
66120 On ch=8 n=82 v=96
66120 On ch=8 n=70 v=96
66120 On ch=8 n=58 v=96
66120 On ch=8 n=62 v=96
66359 On ch=8 n=62 v=0
66359 On ch=8 n=82 v=0
66359 On ch=8 n=70 v=0
66359 On ch=8 n=58 v=0
66360 On ch=8 n=70 v=90
66360 On ch=8 n=63 v=90
66360 On ch=8 n=58 v=90
66419 On ch=8 n=58 v=0
66419 On ch=8 n=63 v=0
66419 On ch=8 n=70 v=0
66480 On ch=8 n=82 v=96
66480 On ch=8 n=70 v=96
66480 On ch=8 n=63 v=90
66480 On ch=8 n=58 v=90
66600 On ch=8 n=68 v=90
66609 On ch=8 n=63 v=0
66629 On ch=8 n=58 v=0
66629 On ch=8 n=68 v=0
66630 On ch=8 n=80 v=97
66659 On ch=8 n=80 v=0
66660 On ch=8 n=80 v=98
66689 On ch=8 n=80 v=0
66690 On ch=8 n=80 v=99
66719 On ch=8 n=80 v=0
66719 On ch=8 n=70 v=0
66719 On ch=8 n=82 v=0
66720 On ch=8 n=70 v=101
66720 On ch=8 n=80 v=101
66749 On ch=8 n=80 v=0
66749 On ch=8 n=70 v=0
66750 On ch=8 n=70 v=102
66750 On ch=8 n=80 v=102
66779 On ch=8 n=80 v=0
66779 On ch=8 n=70 v=0
66780 On ch=8 n=72 v=103
66780 On ch=8 n=79 v=103
66809 On ch=8 n=79 v=0
66809 On ch=8 n=72 v=0
66810 On ch=8 n=72 v=104
66810 On ch=8 n=79 v=104
66839 On ch=8 n=79 v=0
66839 On ch=8 n=72 v=0
66840 On ch=8 n=74 v=106
66840 On ch=8 n=77 v=106
66869 On ch=8 n=77 v=0
66869 On ch=8 n=74 v=0
66870 On ch=8 n=74 v=107
66870 On ch=8 n=77 v=107
66899 On ch=8 n=77 v=0
66899 On ch=8 n=74 v=0
66900 On ch=8 n=75 v=127
66929 On ch=8 n=75 v=0
66930 On ch=8 n=75 v=127
66959 On ch=8 n=75 v=0
66960 On ch=8 n=77 v=110
66960 On ch=8 n=74 v=110
66989 On ch=8 n=74 v=0
66989 On ch=8 n=77 v=0
66990 On ch=8 n=77 v=111
66990 On ch=8 n=74 v=111
67019 On ch=8 n=74 v=0
67019 On ch=8 n=77 v=0
67020 On ch=8 n=79 v=112
67020 On ch=8 n=72 v=112
67049 On ch=8 n=72 v=0
67049 On ch=8 n=79 v=0
67050 On ch=8 n=79 v=114
67050 On ch=8 n=72 v=113
67079 On ch=8 n=72 v=0
67079 On ch=8 n=79 v=0
67080 On ch=8 n=80 v=115
67080 On ch=8 n=70 v=115
67109 On ch=8 n=70 v=0
67109 On ch=8 n=80 v=0
67110 On ch=8 n=80 v=116
67110 On ch=8 n=70 v=116
67139 On ch=8 n=70 v=0
67139 On ch=8 n=80 v=0
67140 On ch=8 n=82 v=117
67140 On ch=8 n=68 v=117
67169 On ch=8 n=68 v=0
67169 On ch=8 n=82 v=0
67170 On ch=8 n=82 v=118
67170 On ch=8 n=68 v=118
67199 On ch=8 n=68 v=0
67199 On ch=8 n=82 v=0
67200 On ch=8 n=84 v=120
67200 On ch=8 n=67 v=120
67229 On ch=8 n=67 v=0
67229 On ch=8 n=84 v=0
67230 On ch=8 n=84 v=122
67230 On ch=8 n=67 v=121
67259 On ch=8 n=67 v=0
67259 On ch=8 n=84 v=0
67260 On ch=8 n=86 v=124
67260 On ch=8 n=65 v=123
67289 On ch=8 n=65 v=0
67289 On ch=8 n=86 v=0
67290 On ch=8 n=86 v=125
67290 On ch=8 n=65 v=125
67319 On ch=8 n=65 v=0
67319 On ch=8 n=86 v=0
67320 On ch=8 n=87 v=127
67320 On ch=8 n=63 v=127
67349 On ch=8 n=63 v=0
67349 On ch=8 n=87 v=0
67350 On ch=8 n=87 v=127
67350 On ch=8 n=79 v=127
67350 On ch=8 n=70 v=127
67379 On ch=8 n=70 v=0
67379 On ch=8 n=79 v=0
67379 On ch=8 n=87 v=0
67380 On ch=8 n=87 v=127
67380 On ch=8 n=79 v=127
67380 On ch=8 n=70 v=127
67409 On ch=8 n=70 v=0
67409 On ch=8 n=79 v=0
67409 On ch=8 n=87 v=0
67410 On ch=8 n=87 v=127
67410 On ch=8 n=79 v=127
67410 On ch=8 n=70 v=127
67439 On ch=8 n=70 v=0
67439 On ch=8 n=79 v=0
67439 On ch=8 n=87 v=0
67440 On ch=8 n=87 v=127
67440 On ch=8 n=79 v=127
67440 On ch=8 n=70 v=127
67469 On ch=8 n=70 v=0
67469 On ch=8 n=79 v=0
67469 On ch=8 n=87 v=0
67470 On ch=8 n=87 v=127
67470 On ch=8 n=79 v=127
67470 On ch=8 n=70 v=127
67499 On ch=8 n=70 v=0
67499 On ch=8 n=79 v=0
67499 On ch=8 n=87 v=0
67500 On ch=8 n=87 v=127
67500 On ch=8 n=79 v=127
67500 On ch=8 n=70 v=127
67529 On ch=8 n=70 v=0
67529 On ch=8 n=79 v=0
67529 On ch=8 n=87 v=0
67530 On ch=8 n=87 v=127
67530 On ch=8 n=79 v=127
67530 On ch=8 n=70 v=127
67559 On ch=8 n=70 v=0
67559 On ch=8 n=79 v=0
67559 On ch=8 n=87 v=0
67560 On ch=8 n=87 v=127
67560 On ch=8 n=79 v=127
67560 On ch=8 n=70 v=127
67589 On ch=8 n=70 v=0
67589 On ch=8 n=79 v=0
67589 On ch=8 n=87 v=0
67590 On ch=8 n=87 v=127
67590 On ch=8 n=79 v=127
67590 On ch=8 n=70 v=127
67619 On ch=8 n=70 v=0
67619 On ch=8 n=79 v=0
67619 On ch=8 n=87 v=0
67620 On ch=8 n=87 v=127
67620 On ch=8 n=79 v=127
67620 On ch=8 n=70 v=127
67649 On ch=8 n=70 v=0
67649 On ch=8 n=79 v=0
67649 On ch=8 n=87 v=0
67650 On ch=8 n=87 v=127
67650 On ch=8 n=79 v=127
67650 On ch=8 n=70 v=127
67679 On ch=8 n=70 v=0
67679 On ch=8 n=79 v=0
67679 On ch=8 n=87 v=0
67680 On ch=8 n=87 v=127
67680 On ch=8 n=79 v=127
67680 On ch=8 n=70 v=127
67709 On ch=8 n=70 v=0
67709 On ch=8 n=79 v=0
67709 On ch=8 n=87 v=0
67710 On ch=8 n=87 v=127
67710 On ch=8 n=79 v=127
67710 On ch=8 n=70 v=127
67739 On ch=8 n=70 v=0
67739 On ch=8 n=79 v=0
67739 On ch=8 n=87 v=0
67740 On ch=8 n=87 v=127
67740 On ch=8 n=79 v=127
67740 On ch=8 n=70 v=127
67769 On ch=8 n=70 v=0
67769 On ch=8 n=79 v=0
67769 On ch=8 n=87 v=0
67770 On ch=8 n=87 v=127
67770 On ch=8 n=79 v=127
67770 On ch=8 n=70 v=127
67799 On ch=8 n=70 v=0
67799 On ch=8 n=79 v=0
67799 On ch=8 n=87 v=0
67800 On ch=8 n=87 v=127
67800 On ch=8 n=79 v=127
67800 On ch=8 n=70 v=127
67829 On ch=8 n=70 v=0
67829 On ch=8 n=79 v=0
67829 On ch=8 n=87 v=0
67830 On ch=8 n=87 v=127
67830 On ch=8 n=79 v=127
67830 On ch=8 n=70 v=127
67859 On ch=8 n=70 v=0
67859 On ch=8 n=79 v=0
67859 On ch=8 n=87 v=0
67860 On ch=8 n=87 v=127
67860 On ch=8 n=79 v=127
67860 On ch=8 n=70 v=127
67889 On ch=8 n=70 v=0
67889 On ch=8 n=79 v=0
67889 On ch=8 n=87 v=0
67890 On ch=8 n=87 v=127
67890 On ch=8 n=79 v=127
67890 On ch=8 n=70 v=127
67919 On ch=8 n=70 v=0
67919 On ch=8 n=79 v=0
67919 On ch=8 n=87 v=0
67920 On ch=8 n=87 v=127
67920 On ch=8 n=79 v=127
67920 On ch=8 n=70 v=127
67949 On ch=8 n=70 v=0
67949 On ch=8 n=79 v=0
67949 On ch=8 n=87 v=0
67950 On ch=8 n=87 v=127
67950 On ch=8 n=79 v=127
67950 On ch=8 n=70 v=127
67979 On ch=8 n=70 v=0
67979 On ch=8 n=79 v=0
67979 On ch=8 n=87 v=0
67980 On ch=8 n=87 v=127
67980 On ch=8 n=79 v=127
67980 On ch=8 n=70 v=127
68009 On ch=8 n=70 v=0
68009 On ch=8 n=79 v=0
68009 On ch=8 n=87 v=0
68010 On ch=8 n=87 v=127
68010 On ch=8 n=79 v=127
68010 On ch=8 n=70 v=127
68039 On ch=8 n=70 v=0
68039 On ch=8 n=79 v=0
68039 On ch=8 n=87 v=0
68040 On ch=8 n=87 v=127
68040 On ch=8 n=79 v=127
68040 On ch=8 n=70 v=127
68069 On ch=8 n=70 v=0
68069 On ch=8 n=79 v=0
68069 On ch=8 n=87 v=0
68070 On ch=8 n=87 v=127
68070 On ch=8 n=79 v=127
68070 On ch=8 n=70 v=127
68099 On ch=8 n=70 v=0
68099 On ch=8 n=79 v=0
68099 On ch=8 n=87 v=0
68100 On ch=8 n=87 v=127
68100 On ch=8 n=79 v=127
68100 On ch=8 n=70 v=127
68129 On ch=8 n=70 v=0
68129 On ch=8 n=79 v=0
68129 On ch=8 n=87 v=0
68130 On ch=8 n=87 v=127
68130 On ch=8 n=79 v=127
68130 On ch=8 n=70 v=127
68159 On ch=8 n=70 v=0
68159 On ch=8 n=79 v=0
68159 On ch=8 n=87 v=0
68160 On ch=8 n=87 v=127
68160 On ch=8 n=79 v=127
68160 On ch=8 n=70 v=127
68189 On ch=8 n=70 v=0
68189 On ch=8 n=79 v=0
68189 On ch=8 n=87 v=0
68190 On ch=8 n=87 v=127
68190 On ch=8 n=79 v=127
68190 On ch=8 n=70 v=127
68219 On ch=8 n=70 v=0
68219 On ch=8 n=79 v=0
68219 On ch=8 n=87 v=0
68220 On ch=8 n=87 v=127
68220 On ch=8 n=79 v=127
68220 On ch=8 n=70 v=127
68249 On ch=8 n=70 v=0
68249 On ch=8 n=79 v=0
68249 On ch=8 n=87 v=0
68250 On ch=8 n=87 v=127
68250 On ch=8 n=79 v=127
68250 On ch=8 n=70 v=127
68279 On ch=8 n=70 v=0
68279 On ch=8 n=79 v=0
68279 On ch=8 n=87 v=0
68280 On ch=8 n=87 v=127
68280 On ch=8 n=87 v=127
68280 On ch=8 n=79 v=127
68280 On ch=8 n=70 v=127
68309 On ch=8 n=70 v=0
68309 On ch=8 n=87 v=0
68309 On ch=8 n=87 v=0
68309 On ch=8 n=79 v=0
68310 On ch=8 n=87 v=127
68310 On ch=8 n=79 v=127
68310 On ch=8 n=70 v=127
68339 On ch=8 n=70 v=0
68339 On ch=8 n=79 v=0
68339 On ch=8 n=87 v=0
68340 On ch=8 n=87 v=127
68340 On ch=8 n=79 v=127
68340 On ch=8 n=70 v=127
68369 On ch=8 n=70 v=0
68369 On ch=8 n=79 v=0
68369 On ch=8 n=87 v=0
68370 On ch=8 n=87 v=127
68370 On ch=8 n=79 v=127
68370 On ch=8 n=70 v=127
68399 On ch=8 n=70 v=0
68399 On ch=8 n=79 v=0
68399 On ch=8 n=87 v=0
68400 On ch=8 n=87 v=127
68400 On ch=8 n=79 v=127
68400 On ch=8 n=70 v=127
68429 On ch=8 n=70 v=0
68429 On ch=8 n=79 v=0
68429 On ch=8 n=87 v=0
68430 On ch=8 n=87 v=127
68430 On ch=8 n=79 v=127
68430 On ch=8 n=70 v=127
68459 On ch=8 n=70 v=0
68459 On ch=8 n=79 v=0
68459 On ch=8 n=87 v=0
68460 On ch=8 n=87 v=127
68460 On ch=8 n=79 v=127
68460 On ch=8 n=70 v=127
68489 On ch=8 n=70 v=0
68489 On ch=8 n=79 v=0
68489 On ch=8 n=87 v=0
68490 On ch=8 n=87 v=127
68490 On ch=8 n=79 v=127
68490 On ch=8 n=70 v=127
68519 On ch=8 n=70 v=0
68519 On ch=8 n=79 v=0
68519 On ch=8 n=87 v=0
68520 On ch=8 n=87 v=127
68520 On ch=8 n=79 v=127
68520 On ch=8 n=70 v=127
68549 On ch=8 n=70 v=0
68549 On ch=8 n=79 v=0
68549 On ch=8 n=87 v=0
68550 On ch=8 n=87 v=127
68550 On ch=8 n=79 v=127
68550 On ch=8 n=70 v=127
68579 On ch=8 n=70 v=0
68579 On ch=8 n=79 v=0
68579 On ch=8 n=87 v=0
68580 On ch=8 n=87 v=127
68580 On ch=8 n=79 v=127
68580 On ch=8 n=70 v=127
68609 On ch=8 n=70 v=0
68609 On ch=8 n=79 v=0
68609 On ch=8 n=87 v=0
68610 On ch=8 n=87 v=127
68610 On ch=8 n=79 v=127
68610 On ch=8 n=70 v=127
68639 On ch=8 n=70 v=0
68639 On ch=8 n=79 v=0
68639 On ch=8 n=87 v=0
68640 On ch=8 n=87 v=127
68640 On ch=8 n=79 v=127
68640 On ch=8 n=71 v=127
68669 On ch=8 n=71 v=0
68669 On ch=8 n=79 v=0
68669 On ch=8 n=87 v=0
68670 On ch=8 n=87 v=127
68670 On ch=8 n=79 v=127
68670 On ch=8 n=71 v=127
68699 On ch=8 n=71 v=0
68699 On ch=8 n=79 v=0
68699 On ch=8 n=87 v=0
68700 On ch=8 n=87 v=127
68700 On ch=8 n=79 v=127
68700 On ch=8 n=71 v=127
68729 On ch=8 n=71 v=0
68729 On ch=8 n=79 v=0
68729 On ch=8 n=87 v=0
68730 On ch=8 n=87 v=127
68730 On ch=8 n=79 v=127
68730 On ch=8 n=71 v=127
68759 On ch=8 n=71 v=0
68759 On ch=8 n=79 v=0
68759 On ch=8 n=87 v=0
68760 On ch=8 n=87 v=127
68760 On ch=8 n=79 v=127
68760 On ch=8 n=72 v=127
68789 On ch=8 n=72 v=0
68789 On ch=8 n=79 v=0
68789 On ch=8 n=87 v=0
68790 On ch=8 n=87 v=127
68790 On ch=8 n=79 v=127
68790 On ch=8 n=72 v=127
68819 On ch=8 n=72 v=0
68819 On ch=8 n=79 v=0
68819 On ch=8 n=87 v=0
68820 On ch=8 n=87 v=127
68820 On ch=8 n=79 v=127
68820 On ch=8 n=72 v=127
68849 On ch=8 n=72 v=0
68849 On ch=8 n=79 v=0
68849 On ch=8 n=87 v=0
68850 On ch=8 n=87 v=127
68850 On ch=8 n=79 v=127
68850 On ch=8 n=72 v=127
68879 On ch=8 n=72 v=0
68879 On ch=8 n=79 v=0
68879 On ch=8 n=87 v=0
68880 On ch=8 n=87 v=127
68880 On ch=8 n=79 v=127
68880 On ch=8 n=72 v=127
68909 On ch=8 n=72 v=0
68909 On ch=8 n=79 v=0
68909 On ch=8 n=87 v=0
68910 On ch=8 n=87 v=127
68910 On ch=8 n=79 v=127
68910 On ch=8 n=72 v=127
68939 On ch=8 n=72 v=0
68939 On ch=8 n=79 v=0
68939 On ch=8 n=87 v=0
68940 On ch=8 n=87 v=127
68940 On ch=8 n=79 v=127
68940 On ch=8 n=72 v=127
68969 On ch=8 n=72 v=0
68969 On ch=8 n=79 v=0
68969 On ch=8 n=87 v=0
68970 On ch=8 n=87 v=127
68970 On ch=8 n=79 v=127
68970 On ch=8 n=72 v=127
68999 On ch=8 n=72 v=0
68999 On ch=8 n=79 v=0
68999 On ch=8 n=87 v=0
69000 On ch=8 n=87 v=127
69000 On ch=8 n=79 v=127
69000 On ch=8 n=72 v=127
69029 On ch=8 n=72 v=0
69029 On ch=8 n=79 v=0
69029 On ch=8 n=87 v=0
69030 On ch=8 n=87 v=127
69030 On ch=8 n=79 v=127
69030 On ch=8 n=72 v=127
69059 On ch=8 n=72 v=0
69059 On ch=8 n=79 v=0
69059 On ch=8 n=87 v=0
69060 On ch=8 n=87 v=127
69060 On ch=8 n=79 v=127
69060 On ch=8 n=72 v=127
69089 On ch=8 n=72 v=0
69089 On ch=8 n=79 v=0
69089 On ch=8 n=87 v=0
69090 On ch=8 n=87 v=127
69090 On ch=8 n=79 v=127
69090 On ch=8 n=72 v=127
69119 On ch=8 n=72 v=0
69119 On ch=8 n=79 v=0
69119 On ch=8 n=87 v=0
69120 On ch=8 n=87 v=127
69120 On ch=8 n=79 v=127
69120 On ch=8 n=72 v=127
69149 On ch=8 n=72 v=0
69149 On ch=8 n=79 v=0
69149 On ch=8 n=87 v=0
69150 On ch=8 n=87 v=127
69150 On ch=8 n=79 v=127
69150 On ch=8 n=72 v=127
69179 On ch=8 n=72 v=0
69179 On ch=8 n=79 v=0
69179 On ch=8 n=87 v=0
69180 On ch=8 n=87 v=127
69180 On ch=8 n=79 v=127
69180 On ch=8 n=72 v=127
69209 On ch=8 n=72 v=0
69209 On ch=8 n=79 v=0
69209 On ch=8 n=87 v=0
69210 On ch=8 n=87 v=127
69210 On ch=8 n=79 v=127
69210 On ch=8 n=72 v=127
69239 On ch=8 n=72 v=0
69239 On ch=8 n=79 v=0
69239 On ch=8 n=87 v=0
69240 On ch=8 n=87 v=127
69240 On ch=8 n=79 v=127
69240 On ch=8 n=72 v=127
69269 On ch=8 n=72 v=0
69269 On ch=8 n=79 v=0
69269 On ch=8 n=87 v=0
69270 On ch=8 n=87 v=127
69270 On ch=8 n=79 v=127
69270 On ch=8 n=72 v=127
69299 On ch=8 n=72 v=0
69299 On ch=8 n=79 v=0
69299 On ch=8 n=87 v=0
69300 On ch=8 n=87 v=127
69300 On ch=8 n=79 v=127
69300 On ch=8 n=72 v=127
69329 On ch=8 n=72 v=0
69329 On ch=8 n=79 v=0
69329 On ch=8 n=87 v=0
69330 On ch=8 n=87 v=127
69330 On ch=8 n=79 v=127
69330 On ch=8 n=72 v=127
69359 On ch=8 n=72 v=0
69359 On ch=8 n=79 v=0
69359 On ch=8 n=87 v=0
69360 On ch=8 n=87 v=127
69360 On ch=8 n=79 v=127
69360 On ch=8 n=70 v=127
69389 On ch=8 n=70 v=0
69389 On ch=8 n=79 v=0
69389 On ch=8 n=87 v=0
69390 On ch=8 n=87 v=127
69390 On ch=8 n=79 v=127
69390 On ch=8 n=70 v=127
69419 On ch=8 n=70 v=0
69419 On ch=8 n=79 v=0
69419 On ch=8 n=87 v=0
69420 On ch=8 n=87 v=127
69420 On ch=8 n=79 v=127
69420 On ch=8 n=70 v=127
69449 On ch=8 n=70 v=0
69449 On ch=8 n=79 v=0
69449 On ch=8 n=87 v=0
69450 On ch=8 n=87 v=127
69450 On ch=8 n=79 v=127
69450 On ch=8 n=70 v=127
69479 On ch=8 n=70 v=0
69479 On ch=8 n=79 v=0
69479 On ch=8 n=87 v=0
69480 On ch=8 n=87 v=127
69480 On ch=8 n=80 v=127
69480 On ch=8 n=72 v=127
69509 On ch=8 n=72 v=0
69509 On ch=8 n=80 v=0
69509 On ch=8 n=87 v=0
69510 On ch=8 n=87 v=127
69510 On ch=8 n=72 v=127
69539 On ch=8 n=72 v=0
69539 On ch=8 n=87 v=0
69540 On ch=8 n=87 v=127
69540 On ch=8 n=72 v=127
69569 On ch=8 n=72 v=0
69569 On ch=8 n=87 v=0
69570 On ch=8 n=87 v=127
69570 On ch=8 n=72 v=127
69599 On ch=8 n=72 v=0
69599 On ch=8 n=87 v=0
69600 On ch=8 n=87 v=127
69600 On ch=8 n=72 v=127
69629 On ch=8 n=72 v=0
69629 On ch=8 n=87 v=0
69630 On ch=8 n=87 v=127
69630 On ch=8 n=72 v=127
69659 On ch=8 n=72 v=0
69659 On ch=8 n=87 v=0
69660 On ch=8 n=87 v=127
69660 On ch=8 n=72 v=127
69689 On ch=8 n=72 v=0
69689 On ch=8 n=87 v=0
69690 On ch=8 n=87 v=127
69690 On ch=8 n=72 v=127
69719 On ch=8 n=72 v=0
69719 On ch=8 n=87 v=0
69720 On ch=8 n=87 v=127
69720 On ch=8 n=72 v=127
69749 On ch=8 n=72 v=0
69749 On ch=8 n=87 v=0
69750 On ch=8 n=87 v=127
69750 On ch=8 n=72 v=127
69779 On ch=8 n=72 v=0
69779 On ch=8 n=87 v=0
69780 On ch=8 n=87 v=127
69780 On ch=8 n=72 v=127
69809 On ch=8 n=72 v=0
69809 On ch=8 n=87 v=0
69810 On ch=8 n=87 v=127
69810 On ch=8 n=72 v=127
69839 On ch=8 n=72 v=0
69839 On ch=8 n=87 v=0
69840 On ch=8 n=88 v=127
69840 On ch=8 n=72 v=127
69869 On ch=8 n=72 v=0
69869 On ch=8 n=88 v=0
69870 On ch=8 n=88 v=127
69870 On ch=8 n=72 v=127
69899 On ch=8 n=72 v=0
69899 On ch=8 n=88 v=0
69900 On ch=8 n=88 v=127
69900 On ch=8 n=70 v=127
69929 On ch=8 n=70 v=0
69929 On ch=8 n=88 v=0
69930 On ch=8 n=88 v=127
69930 On ch=8 n=70 v=127
69959 On ch=8 n=70 v=0
69959 On ch=8 n=88 v=0
69960 On ch=8 n=88 v=127
69960 On ch=8 n=69 v=127
69989 On ch=8 n=69 v=0
69989 On ch=8 n=88 v=0
69990 On ch=8 n=88 v=127
69990 On ch=8 n=69 v=127
70019 On ch=8 n=69 v=0
70019 On ch=8 n=88 v=0
70020 On ch=8 n=88 v=127
70020 On ch=8 n=70 v=127
70049 On ch=8 n=70 v=0
70049 On ch=8 n=88 v=0
70050 On ch=8 n=88 v=127
70050 On ch=8 n=70 v=127
70079 On ch=8 n=70 v=0
70079 On ch=8 n=88 v=0
70080 On ch=8 n=88 v=127
70080 On ch=8 n=72 v=127
70109 On ch=8 n=72 v=0
70109 On ch=8 n=88 v=0
70110 On ch=8 n=88 v=127
70110 On ch=8 n=72 v=127
70139 On ch=8 n=72 v=0
70139 On ch=8 n=88 v=0
70140 On ch=8 n=88 v=127
70140 On ch=8 n=70 v=127
70169 On ch=8 n=70 v=0
70169 On ch=8 n=88 v=0
70170 On ch=8 n=88 v=127
70170 On ch=8 n=70 v=127
70199 On ch=8 n=70 v=0
70199 On ch=8 n=88 v=0
70200 On ch=8 n=89 v=127
70200 On ch=8 n=69 v=127
70229 On ch=8 n=69 v=0
70260 On ch=8 n=57 v=48
70319 On ch=8 n=89 v=0
70320 On ch=8 n=60 v=48
70329 On ch=8 n=57 v=0
70380 On ch=8 n=57 v=48
70389 On ch=8 n=60 v=0
70440 On ch=8 n=60 v=48
70449 On ch=8 n=57 v=0
70500 On ch=8 n=57 v=48
70509 On ch=8 n=60 v=0
70559 On ch=8 n=57 v=0
70560 On ch=8 n=60 v=48
70620 On ch=8 n=57 v=48
70629 On ch=8 n=60 v=0
70680 On ch=8 n=60 v=48
70689 On ch=8 n=57 v=0
70740 On ch=8 n=57 v=48
70749 On ch=8 n=60 v=0
70800 On ch=8 n=60 v=48
70809 On ch=8 n=57 v=0
70860 On ch=8 n=57 v=48
70869 On ch=8 n=60 v=0
70919 On ch=8 n=57 v=0
70920 On ch=8 n=60 v=48
70980 On ch=8 n=57 v=48
70989 On ch=8 n=60 v=0
71040 On ch=8 n=60 v=48
71049 On ch=8 n=57 v=0
71100 On ch=8 n=57 v=48
71109 On ch=8 n=60 v=0
71160 On ch=8 n=60 v=48
71169 On ch=8 n=57 v=0
71220 On ch=8 n=57 v=48
71229 On ch=8 n=60 v=0
71279 On ch=8 n=57 v=0
71280 On ch=8 n=60 v=48
71340 On ch=8 n=57 v=48
71349 On ch=8 n=60 v=0
71400 On ch=8 n=84 v=48
71400 On ch=8 n=60 v=48
71409 On ch=8 n=57 v=0
71460 On ch=8 n=57 v=48
71469 On ch=8 n=60 v=0
71520 On ch=8 n=60 v=48
71529 On ch=8 n=57 v=0
71580 On ch=8 n=75 v=48
71580 On ch=8 n=57 v=48
71589 On ch=8 n=60 v=0
71589 On ch=8 n=84 v=0
71639 On ch=8 n=57 v=0
71640 On ch=8 n=74 v=48
71640 On ch=8 n=62 v=48
71649 On ch=8 n=75 v=0
71700 On ch=8 n=58 v=48
71709 On ch=8 n=62 v=0
71759 On ch=8 n=74 v=0
71760 On ch=8 n=62 v=48
71769 On ch=8 n=58 v=0
71820 On ch=8 n=58 v=48
71829 On ch=8 n=62 v=0
71880 On ch=8 n=62 v=48
71889 On ch=8 n=58 v=0
71940 On ch=8 n=58 v=48
71949 On ch=8 n=62 v=0
71999 On ch=8 n=58 v=0
72000 On ch=8 n=62 v=48
72060 On ch=8 n=58 v=48
72069 On ch=8 n=62 v=0
72120 On ch=8 n=62 v=48
72129 On ch=8 n=58 v=0
72180 On ch=8 n=58 v=48
72189 On ch=8 n=62 v=0
72240 On ch=8 n=62 v=48
72249 On ch=8 n=58 v=0
72300 On ch=8 n=58 v=48
72309 On ch=8 n=62 v=0
72359 On ch=8 n=58 v=0
72360 On ch=8 n=62 v=48
72420 On ch=8 n=58 v=48
72429 On ch=8 n=62 v=0
72480 On ch=8 n=62 v=48
72489 On ch=8 n=58 v=0
72540 On ch=8 n=58 v=48
72549 On ch=8 n=62 v=0
72600 On ch=8 n=62 v=48
72609 On ch=8 n=58 v=0
72660 On ch=8 n=58 v=48
72669 On ch=8 n=62 v=0
72719 On ch=8 n=58 v=0
72720 On ch=8 n=62 v=48
72780 On ch=8 n=58 v=48
72789 On ch=8 n=62 v=0
72840 On ch=8 n=82 v=48
72840 On ch=8 n=62 v=48
72849 On ch=8 n=58 v=0
72900 On ch=8 n=58 v=48
72909 On ch=8 n=62 v=0
72960 On ch=8 n=62 v=48
72969 On ch=8 n=58 v=0
73020 On ch=8 n=74 v=48
73020 On ch=8 n=58 v=48
73029 On ch=8 n=62 v=0
73029 On ch=8 n=82 v=0
73079 On ch=8 n=74 v=0
73079 On ch=8 n=58 v=0
73080 On ch=8 n=75 v=48
73080 On ch=8 n=63 v=48
73109 On ch=8 n=63 v=0
73109 On ch=8 n=75 v=0
73140 On ch=8 n=60 v=48
73140 On ch=8 n=57 v=48
73199 On ch=8 n=60 v=0
73200 On ch=8 n=63 v=48
73200 On ch=8 n=60 v=48
73209 On ch=8 n=57 v=0
73259 On ch=8 n=60 v=0
73260 On ch=8 n=60 v=48
73260 On ch=8 n=57 v=48
73269 On ch=8 n=63 v=0
73319 On ch=8 n=60 v=0
73320 On ch=8 n=63 v=48
73320 On ch=8 n=60 v=48
73329 On ch=8 n=57 v=0
73379 On ch=8 n=60 v=0
73380 On ch=8 n=60 v=48
73380 On ch=8 n=57 v=48
73389 On ch=8 n=63 v=0
73439 On ch=8 n=57 v=0
73439 On ch=8 n=60 v=0
73440 On ch=8 n=63 v=48
73440 On ch=8 n=60 v=48
73499 On ch=8 n=60 v=0
73500 On ch=8 n=60 v=48
73500 On ch=8 n=57 v=48
73509 On ch=8 n=63 v=0
73559 On ch=8 n=60 v=0
73560 On ch=8 n=63 v=48
73560 On ch=8 n=60 v=48
73569 On ch=8 n=57 v=0
73619 On ch=8 n=60 v=0
73620 On ch=8 n=60 v=48
73620 On ch=8 n=57 v=48
73629 On ch=8 n=63 v=0
73679 On ch=8 n=60 v=0
73680 On ch=8 n=63 v=48
73680 On ch=8 n=60 v=48
73689 On ch=8 n=57 v=0
73739 On ch=8 n=60 v=0
73740 On ch=8 n=60 v=48
73740 On ch=8 n=57 v=48
73749 On ch=8 n=63 v=0
73799 On ch=8 n=57 v=0
73799 On ch=8 n=60 v=0
73800 On ch=8 n=63 v=48
73800 On ch=8 n=60 v=48
73919 On ch=8 n=60 v=0
73919 On ch=8 n=63 v=0
73920 On ch=8 n=79 v=127
73920 On ch=8 n=67 v=127
74099 On ch=8 n=67 v=0
74099 On ch=8 n=79 v=0
74100 On ch=8 n=77 v=127
74100 On ch=8 n=65 v=127
74159 On ch=8 n=65 v=0
74159 On ch=8 n=77 v=0
74160 On ch=8 n=75 v=127
74160 On ch=8 n=63 v=127
74219 On ch=8 n=63 v=0
74219 On ch=8 n=75 v=0
74280 On ch=8 n=74 v=127
74280 On ch=8 n=62 v=127
74339 On ch=8 n=62 v=0
74339 On ch=8 n=74 v=0
74400 On ch=8 n=72 v=127
74400 On ch=8 n=60 v=127
74459 On ch=8 n=60 v=0
74459 On ch=8 n=72 v=0
74520 On ch=8 n=58 v=48
74520 On ch=8 n=70 v=48
75360 On ch=8 n=77 v=48
75360 On ch=8 n=65 v=48
75369 On ch=8 n=70 v=0
75369 On ch=8 n=58 v=0
75479 On ch=8 n=77 v=0
75479 On ch=8 n=65 v=0
75480 On ch=8 n=77 v=48
75480 On ch=8 n=65 v=48
75569 On ch=8 n=65 v=0
75569 On ch=8 n=77 v=0
75600 On ch=8 n=77 v=48
75600 On ch=8 n=65 v=48
75689 On ch=8 n=65 v=0
75689 On ch=8 n=77 v=0
75720 On ch=8 n=77 v=48
75720 On ch=8 n=65 v=48
75809 On ch=8 n=65 v=0
75809 On ch=8 n=77 v=0
75840 On ch=8 n=77 v=48
75840 On ch=8 n=65 v=48
75929 On ch=8 n=65 v=0
75929 On ch=8 n=77 v=0
75960 On ch=8 n=77 v=48
75960 On ch=8 n=65 v=48
75989 On ch=8 n=65 v=0
75989 On ch=8 n=77 v=0
76020 On ch=8 n=74 v=50
76020 On ch=8 n=70 v=50
76080 On ch=8 n=72 v=52
76080 On ch=8 n=69 v=52
76089 On ch=8 n=70 v=0
76089 On ch=8 n=74 v=0
76140 On ch=8 n=74 v=54
76140 On ch=8 n=70 v=54
76149 On ch=8 n=72 v=0
76149 On ch=8 n=69 v=0
76200 On ch=8 n=75 v=56
76200 On ch=8 n=72 v=56
76209 On ch=8 n=74 v=0
76209 On ch=8 n=70 v=0
76260 On ch=8 n=77 v=58
76260 On ch=8 n=74 v=58
76269 On ch=8 n=75 v=0
76269 On ch=8 n=72 v=0
76319 On ch=8 n=77 v=0
76319 On ch=8 n=74 v=0
76320 On ch=8 n=79 v=60
76320 On ch=8 n=75 v=60
76380 On ch=8 n=81 v=62
76380 On ch=8 n=77 v=62
76389 On ch=8 n=75 v=0
76389 On ch=8 n=79 v=0
76439 On ch=8 n=81 v=0
76439 On ch=8 n=77 v=0
76440 On ch=8 n=82 v=64
76440 On ch=8 n=79 v=64
76469 On ch=8 n=79 v=0
76469 On ch=8 n=82 v=0
76500 On ch=8 n=82 v=66
76500 On ch=8 n=70 v=66
76529 On ch=8 n=70 v=0
76529 On ch=8 n=82 v=0
76560 On ch=8 n=82 v=68
76560 On ch=8 n=69 v=68
76589 On ch=8 n=69 v=0
76589 On ch=8 n=82 v=0
76620 On ch=8 n=82 v=70
76620 On ch=8 n=67 v=70
76649 On ch=8 n=67 v=0
76649 On ch=8 n=82 v=0
76680 On ch=8 n=82 v=72
76680 On ch=8 n=65 v=72
76709 On ch=8 n=65 v=0
76709 On ch=8 n=82 v=0
76740 On ch=8 n=82 v=74
76740 On ch=8 n=70 v=74
76769 On ch=8 n=70 v=0
76769 On ch=8 n=82 v=0
76800 On ch=8 n=81 v=76
76800 On ch=8 n=69 v=76
76829 On ch=8 n=69 v=0
76829 On ch=8 n=81 v=0
76860 On ch=8 n=82 v=78
76860 On ch=8 n=70 v=78
76889 On ch=8 n=70 v=0
76889 On ch=8 n=82 v=0
76920 On ch=8 n=84 v=80
76920 On ch=8 n=72 v=80
76949 On ch=8 n=72 v=0
76949 On ch=8 n=84 v=0
76980 On ch=8 n=86 v=82
76980 On ch=8 n=74 v=82
77009 On ch=8 n=74 v=0
77009 On ch=8 n=86 v=0
77040 On ch=8 n=87 v=84
77040 On ch=8 n=75 v=84
77069 On ch=8 n=75 v=0
77069 On ch=8 n=87 v=0
77100 On ch=8 n=87 v=86
77100 On ch=8 n=75 v=86
77129 On ch=8 n=75 v=0
77129 On ch=8 n=87 v=0
77160 On ch=8 n=87 v=88
77160 On ch=8 n=75 v=88
77189 On ch=8 n=75 v=0
77189 On ch=8 n=87 v=0
77220 On ch=8 n=87 v=90
77220 On ch=8 n=75 v=90
77249 On ch=8 n=75 v=0
77249 On ch=8 n=87 v=0
77280 On ch=8 n=87 v=92
77280 On ch=8 n=75 v=92
77309 On ch=8 n=75 v=0
77309 On ch=8 n=87 v=0
77340 On ch=8 n=87 v=94
77340 On ch=8 n=75 v=94
77369 On ch=8 n=75 v=0
77369 On ch=8 n=87 v=0
77400 On ch=8 n=87 v=96
77400 On ch=8 n=75 v=96
77429 On ch=8 n=87 v=0
77459 On ch=8 n=75 v=0
77460 On ch=8 n=84 v=96
77490 On ch=8 n=86 v=96
77499 On ch=8 n=84 v=0
77519 On ch=8 n=86 v=0
77520 On ch=8 n=84 v=96
77520 On ch=8 n=69 v=96
77549 On ch=8 n=84 v=0
77579 On ch=8 n=69 v=0
77580 On ch=8 n=81 v=96
77610 On ch=8 n=82 v=96
77619 On ch=8 n=81 v=0
77639 On ch=8 n=82 v=0
77640 On ch=8 n=81 v=96
77669 On ch=8 n=81 v=0
77700 On ch=8 n=75 v=96
77730 On ch=8 n=77 v=96
77739 On ch=8 n=75 v=0
77759 On ch=8 n=77 v=0
77760 On ch=8 n=75 v=96
77789 On ch=8 n=75 v=0
77820 On ch=8 n=72 v=96
77820 On ch=8 n=63 v=96
77850 On ch=8 n=74 v=96
77850 On ch=8 n=65 v=96
77859 On ch=8 n=63 v=0
77859 On ch=8 n=72 v=0
77879 On ch=8 n=74 v=0
77879 On ch=8 n=65 v=0
77880 On ch=8 n=72 v=96
77880 On ch=8 n=63 v=96
77909 On ch=8 n=63 v=0
77909 On ch=8 n=72 v=0
77940 On ch=8 n=69 v=96
77940 On ch=8 n=60 v=96
77970 On ch=8 n=70 v=96
77970 On ch=8 n=62 v=96
77979 On ch=8 n=60 v=0
77979 On ch=8 n=69 v=0
77999 On ch=8 n=70 v=0
77999 On ch=8 n=62 v=0
78000 On ch=8 n=69 v=96
78000 On ch=8 n=60 v=96
78029 On ch=8 n=60 v=0
78029 On ch=8 n=69 v=0
78060 On ch=8 n=87 v=96
78060 On ch=8 n=69 v=96
78089 On ch=8 n=69 v=0
78089 On ch=8 n=87 v=0
78120 On ch=8 n=86 v=96
78120 On ch=8 n=70 v=96
78149 On ch=8 n=86 v=0
78179 On ch=8 n=70 v=0
78180 On ch=8 n=82 v=96
78210 On ch=8 n=84 v=96
78219 On ch=8 n=82 v=0
78239 On ch=8 n=84 v=0
78240 On ch=8 n=82 v=96
78240 On ch=8 n=62 v=96
78240 On ch=8 n=70 v=96
78269 On ch=8 n=82 v=0
78299 On ch=8 n=70 v=0
78299 On ch=8 n=62 v=0
78300 On ch=8 n=79 v=96
78330 On ch=8 n=81 v=96
78339 On ch=8 n=79 v=0
78359 On ch=8 n=81 v=0
78360 On ch=8 n=79 v=96
78389 On ch=8 n=79 v=0
78420 On ch=8 n=74 v=96
78450 On ch=8 n=75 v=96
78459 On ch=8 n=74 v=0
78479 On ch=8 n=75 v=0
78480 On ch=8 n=74 v=96
78509 On ch=8 n=74 v=0
78540 On ch=8 n=70 v=96
78540 On ch=8 n=62 v=96
78570 On ch=8 n=72 v=96
78570 On ch=8 n=63 v=96
78579 On ch=8 n=62 v=0
78579 On ch=8 n=70 v=0
78599 On ch=8 n=72 v=0
78599 On ch=8 n=63 v=0
78600 On ch=8 n=70 v=96
78600 On ch=8 n=62 v=96
78629 On ch=8 n=62 v=0
78629 On ch=8 n=70 v=0
78660 On ch=8 n=67 v=96
78660 On ch=8 n=58 v=96
78690 On ch=8 n=69 v=96
78690 On ch=8 n=60 v=96
78699 On ch=8 n=58 v=0
78699 On ch=8 n=67 v=0
78719 On ch=8 n=69 v=0
78719 On ch=8 n=60 v=0
78720 On ch=8 n=67 v=96
78720 On ch=8 n=58 v=96
78749 On ch=8 n=58 v=0
78749 On ch=8 n=67 v=0
78780 On ch=8 n=79 v=96
78780 On ch=8 n=70 v=96
78809 On ch=8 n=70 v=0
78809 On ch=8 n=79 v=0
78840 On ch=8 n=80 v=96
78840 On ch=8 n=71 v=96
78899 On ch=8 n=71 v=0
78899 On ch=8 n=80 v=0
78900 On ch=8 n=68 v=96
78930 On ch=8 n=70 v=96
78939 On ch=8 n=68 v=0
78959 On ch=8 n=70 v=0
78960 On ch=8 n=68 v=96
78960 On ch=8 n=80 v=96
78960 On ch=8 n=71 v=96
78989 On ch=8 n=68 v=0
79019 On ch=8 n=71 v=0
79019 On ch=8 n=80 v=0
79020 On ch=8 n=65 v=96
79050 On ch=8 n=67 v=96
79059 On ch=8 n=65 v=0
79079 On ch=8 n=67 v=0
79080 On ch=8 n=65 v=96
79109 On ch=8 n=65 v=0
79140 On ch=8 n=62 v=96
79170 On ch=8 n=63 v=96
79179 On ch=8 n=62 v=0
79199 On ch=8 n=63 v=0
79200 On ch=8 n=62 v=96
79229 On ch=8 n=62 v=0
79260 On ch=8 n=59 v=96
79260 On ch=8 n=74 v=96
79290 On ch=8 n=60 v=96
79290 On ch=8 n=75 v=96
79299 On ch=8 n=74 v=0
79299 On ch=8 n=59 v=0
79319 On ch=8 n=60 v=0
79319 On ch=8 n=75 v=0
79320 On ch=8 n=59 v=96
79320 On ch=8 n=74 v=96
79349 On ch=8 n=74 v=0
79349 On ch=8 n=59 v=0
79380 On ch=8 n=71 v=96
79380 On ch=8 n=62 v=96
79410 On ch=8 n=72 v=96
79410 On ch=8 n=63 v=96
79419 On ch=8 n=62 v=0
79419 On ch=8 n=71 v=0
79439 On ch=8 n=72 v=0
79439 On ch=8 n=63 v=0
79440 On ch=8 n=71 v=96
79440 On ch=8 n=62 v=96
79469 On ch=8 n=62 v=0
79469 On ch=8 n=71 v=0
79500 On ch=8 n=80 v=96
79500 On ch=8 n=71 v=96
79500 On ch=8 n=62 v=96
79529 On ch=8 n=62 v=0
79529 On ch=8 n=71 v=0
79529 On ch=8 n=80 v=0
79560 On ch=8 n=79 v=96
79560 On ch=8 n=72 v=96
79560 On ch=8 n=63 v=96
79589 On ch=8 n=63 v=0
79589 On ch=8 n=72 v=0
79589 On ch=8 n=79 v=0
79620 On ch=8 n=67 v=96
79650 On ch=8 n=68 v=96
79679 On ch=8 n=68 v=0
79679 On ch=8 n=67 v=0
79680 On ch=8 n=67 v=96
79739 On ch=8 n=67 v=0
79740 On ch=8 n=79 v=96
79740 On ch=8 n=72 v=96
79769 On ch=8 n=72 v=0
79769 On ch=8 n=79 v=0
79800 On ch=8 n=81 v=96
79800 On ch=8 n=72 v=96
79829 On ch=8 n=72 v=0
79829 On ch=8 n=81 v=0
79860 On ch=8 n=69 v=96
79860 On ch=8 n=74 v=96
79889 On ch=8 n=74 v=0
79889 On ch=8 n=69 v=0
79920 On ch=8 n=82 v=96
79920 On ch=8 n=74 v=96
79949 On ch=8 n=74 v=0
79949 On ch=8 n=82 v=0
79980 On ch=8 n=70 v=96
79980 On ch=8 n=75 v=96
80010 On ch=8 n=72 v=96
80019 On ch=8 n=70 v=0
80039 On ch=8 n=72 v=0
80040 On ch=8 n=70 v=96
80069 On ch=8 n=70 v=0
80099 On ch=8 n=75 v=0
80100 On ch=8 n=82 v=96
80100 On ch=8 n=75 v=96
80129 On ch=8 n=75 v=0
80129 On ch=8 n=82 v=0
80160 On ch=8 n=84 v=96
80160 On ch=8 n=75 v=96
80189 On ch=8 n=75 v=0
80189 On ch=8 n=84 v=0
80220 On ch=8 n=72 v=96
80220 On ch=8 n=77 v=96
80249 On ch=8 n=77 v=0
80249 On ch=8 n=72 v=0
80280 On ch=8 n=86 v=96
80280 On ch=8 n=77 v=96
80309 On ch=8 n=77 v=0
80309 On ch=8 n=86 v=0
80340 On ch=8 n=74 v=96
80340 On ch=8 n=70 v=96
80369 On ch=8 n=70 v=0
80369 On ch=8 n=74 v=0
80400 On ch=8 n=86 v=96
80400 On ch=8 n=82 v=96
80429 On ch=8 n=82 v=0
80429 On ch=8 n=86 v=0
80460 On ch=8 n=74 v=96
80460 On ch=8 n=70 v=96
80489 On ch=8 n=70 v=0
80489 On ch=8 n=74 v=0
80520 On ch=8 n=87 v=96
80520 On ch=8 n=82 v=96
80549 On ch=8 n=82 v=0
80549 On ch=8 n=87 v=0
80580 On ch=8 n=75 v=96
80580 On ch=8 n=70 v=96
80609 On ch=8 n=70 v=0
80609 On ch=8 n=75 v=0
80640 On ch=8 n=88 v=96
80640 On ch=8 n=82 v=96
80669 On ch=8 n=82 v=0
80669 On ch=8 n=88 v=0
80700 On ch=8 n=76 v=96
80700 On ch=8 n=70 v=96
80729 On ch=8 n=70 v=0
80729 On ch=8 n=76 v=0
80760 On ch=8 n=89 v=96
80760 On ch=8 n=82 v=96
80789 On ch=8 n=82 v=0
80789 On ch=8 n=89 v=0
80820 On ch=8 n=77 v=96
80820 On ch=8 n=70 v=96
80849 On ch=8 n=70 v=0
80849 On ch=8 n=77 v=0
80880 On ch=8 n=90 v=96
80880 On ch=8 n=82 v=96
80909 On ch=8 n=82 v=0
80909 On ch=8 n=90 v=0
80940 On ch=8 n=78 v=96
80940 On ch=8 n=70 v=96
80969 On ch=8 n=70 v=0
80969 On ch=8 n=78 v=0
81000 On ch=8 n=91 v=96
81000 On ch=8 n=82 v=96
81029 On ch=8 n=82 v=0
81029 On ch=8 n=91 v=0
81030 On ch=8 n=91 v=96
81030 On ch=8 n=70 v=96
81059 On ch=8 n=70 v=0
81059 On ch=8 n=91 v=0
81060 On ch=8 n=90 v=96
81060 On ch=8 n=70 v=96
81089 On ch=8 n=70 v=0
81089 On ch=8 n=90 v=0
81090 On ch=8 n=90 v=96
81090 On ch=8 n=70 v=96
81119 On ch=8 n=70 v=0
81119 On ch=8 n=90 v=0
81120 On ch=8 n=91 v=96
81120 On ch=8 n=70 v=96
81149 On ch=8 n=70 v=0
81149 On ch=8 n=91 v=0
81150 On ch=8 n=91 v=96
81150 On ch=8 n=70 v=96
81179 On ch=8 n=70 v=0
81179 On ch=8 n=91 v=0
81180 On ch=8 n=90 v=96
81180 On ch=8 n=70 v=96
81209 On ch=8 n=70 v=0
81209 On ch=8 n=90 v=0
81210 On ch=8 n=90 v=96
81210 On ch=8 n=70 v=96
81239 On ch=8 n=70 v=0
81239 On ch=8 n=90 v=0
81240 On ch=8 n=91 v=96
81240 On ch=8 n=71 v=96
81269 On ch=8 n=71 v=0
81269 On ch=8 n=91 v=0
81270 On ch=8 n=91 v=96
81270 On ch=8 n=71 v=96
81299 On ch=8 n=71 v=0
81299 On ch=8 n=91 v=0
81300 On ch=8 n=86 v=96
81300 On ch=8 n=71 v=96
81329 On ch=8 n=71 v=0
81329 On ch=8 n=86 v=0
81330 On ch=8 n=86 v=96
81330 On ch=8 n=71 v=96
81359 On ch=8 n=71 v=0
81359 On ch=8 n=86 v=0
81360 On ch=8 n=87 v=96
81360 On ch=8 n=72 v=96
81389 On ch=8 n=72 v=0
81389 On ch=8 n=87 v=0
81390 On ch=8 n=87 v=96
81390 On ch=8 n=72 v=96
81419 On ch=8 n=72 v=0
81419 On ch=8 n=87 v=0
81420 On ch=8 n=86 v=96
81420 On ch=8 n=74 v=96
81449 On ch=8 n=74 v=0
81449 On ch=8 n=86 v=0
81450 On ch=8 n=86 v=96
81450 On ch=8 n=74 v=96
81479 On ch=8 n=74 v=0
81479 On ch=8 n=86 v=0
81480 On ch=8 n=89 v=96
81480 On ch=8 n=77 v=96
81509 On ch=8 n=77 v=0
81509 On ch=8 n=89 v=0
81510 On ch=8 n=89 v=96
81510 On ch=8 n=77 v=96
81539 On ch=8 n=77 v=0
81539 On ch=8 n=89 v=0
81540 On ch=8 n=87 v=96
81540 On ch=8 n=75 v=96
81569 On ch=8 n=75 v=0
81569 On ch=8 n=87 v=0
81570 On ch=8 n=87 v=96
81570 On ch=8 n=75 v=96
81599 On ch=8 n=75 v=0
81599 On ch=8 n=87 v=0
81600 On ch=8 n=86 v=96
81600 On ch=8 n=74 v=96
81629 On ch=8 n=74 v=0
81629 On ch=8 n=86 v=0
81630 On ch=8 n=86 v=96
81630 On ch=8 n=74 v=96
81659 On ch=8 n=74 v=0
81659 On ch=8 n=86 v=0
81660 On ch=8 n=84 v=96
81660 On ch=8 n=72 v=96
81689 On ch=8 n=72 v=0
81689 On ch=8 n=84 v=0
81690 On ch=8 n=84 v=96
81690 On ch=8 n=72 v=96
81719 On ch=8 n=72 v=0
81719 On ch=8 n=84 v=0
81720 On ch=8 n=82 v=96
81720 On ch=8 n=70 v=96
81749 On ch=8 n=70 v=0
81749 On ch=8 n=82 v=0
81750 On ch=8 n=82 v=96
81750 On ch=8 n=70 v=96
81779 On ch=8 n=70 v=0
81779 On ch=8 n=82 v=0
81780 On ch=8 n=77 v=96
81780 On ch=8 n=65 v=96
81809 On ch=8 n=65 v=0
81809 On ch=8 n=77 v=0
81810 On ch=8 n=77 v=96
81810 On ch=8 n=65 v=96
81839 On ch=8 n=65 v=0
81839 On ch=8 n=77 v=0
81840 On ch=8 n=79 v=96
81840 On ch=8 n=67 v=96
81869 On ch=8 n=67 v=0
81869 On ch=8 n=79 v=0
81870 On ch=8 n=79 v=96
81870 On ch=8 n=67 v=96
81899 On ch=8 n=67 v=0
81899 On ch=8 n=79 v=0
81900 On ch=8 n=81 v=96
81900 On ch=8 n=69 v=96
81929 On ch=8 n=69 v=0
81929 On ch=8 n=81 v=0
81930 On ch=8 n=81 v=96
81930 On ch=8 n=69 v=96
81959 On ch=8 n=69 v=0
81959 On ch=8 n=81 v=0
81960 On ch=8 n=82 v=96
81960 On ch=8 n=70 v=96
81989 On ch=8 n=70 v=0
81989 On ch=8 n=82 v=0
81990 On ch=8 n=82 v=96
81990 On ch=8 n=70 v=96
82019 On ch=8 n=70 v=0
82019 On ch=8 n=82 v=0
82020 On ch=8 n=84 v=96
82020 On ch=8 n=72 v=96
82049 On ch=8 n=72 v=0
82049 On ch=8 n=84 v=0
82050 On ch=8 n=84 v=96
82050 On ch=8 n=72 v=96
82079 On ch=8 n=72 v=0
82079 On ch=8 n=84 v=0
82080 On ch=8 n=86 v=96
82080 On ch=8 n=74 v=96
82109 On ch=8 n=74 v=0
82109 On ch=8 n=86 v=0
82110 On ch=8 n=86 v=96
82110 On ch=8 n=74 v=96
82139 On ch=8 n=74 v=0
82139 On ch=8 n=86 v=0
82140 On ch=8 n=87 v=96
82140 On ch=8 n=75 v=96
82169 On ch=8 n=75 v=0
82169 On ch=8 n=87 v=0
82170 On ch=8 n=87 v=96
82170 On ch=8 n=75 v=96
82199 On ch=8 n=75 v=0
82199 On ch=8 n=87 v=0
82200 On ch=8 n=88 v=96
82200 On ch=8 n=76 v=96
82229 On ch=8 n=76 v=0
82229 On ch=8 n=88 v=0
82230 On ch=8 n=88 v=96
82230 On ch=8 n=76 v=96
82259 On ch=8 n=76 v=0
82259 On ch=8 n=88 v=0
82260 On ch=8 n=89 v=96
82260 On ch=8 n=77 v=96
82289 On ch=8 n=77 v=0
82289 On ch=8 n=89 v=0
82290 On ch=8 n=89 v=96
82290 On ch=8 n=77 v=96
82319 On ch=8 n=77 v=0
82319 On ch=8 n=89 v=0
82320 On ch=8 n=87 v=96
82320 On ch=8 n=75 v=96
82349 On ch=8 n=75 v=0
82349 On ch=8 n=87 v=0
82350 On ch=8 n=87 v=96
82350 On ch=8 n=75 v=96
82379 On ch=8 n=75 v=0
82379 On ch=8 n=87 v=0
82380 On ch=8 n=86 v=96
82380 On ch=8 n=74 v=96
82409 On ch=8 n=74 v=0
82409 On ch=8 n=86 v=0
82410 On ch=8 n=86 v=96
82410 On ch=8 n=74 v=96
82439 On ch=8 n=74 v=0
82439 On ch=8 n=86 v=0
82440 On ch=8 n=84 v=96
82440 On ch=8 n=72 v=96
82469 On ch=8 n=72 v=0
82469 On ch=8 n=84 v=0
82470 On ch=8 n=84 v=96
82470 On ch=8 n=72 v=96
82499 On ch=8 n=72 v=0
82499 On ch=8 n=84 v=0
82500 On ch=8 n=86 v=96
82500 On ch=8 n=74 v=96
82529 On ch=8 n=74 v=0
82529 On ch=8 n=86 v=0
82530 On ch=8 n=86 v=96
82530 On ch=8 n=74 v=96
82559 On ch=8 n=74 v=0
82559 On ch=8 n=86 v=0
82560 On ch=8 n=87 v=96
82560 On ch=8 n=75 v=96
82589 On ch=8 n=75 v=0
82589 On ch=8 n=87 v=0
82590 On ch=8 n=87 v=96
82590 On ch=8 n=75 v=96
82619 On ch=8 n=75 v=0
82619 On ch=8 n=87 v=0
82620 On ch=8 n=86 v=96
82620 On ch=8 n=74 v=96
82649 On ch=8 n=74 v=0
82649 On ch=8 n=86 v=0
82650 On ch=8 n=86 v=96
82650 On ch=8 n=74 v=96
82679 On ch=8 n=74 v=0
82679 On ch=8 n=86 v=0
82680 On ch=8 n=84 v=96
82680 On ch=8 n=72 v=96
82709 On ch=8 n=72 v=0
82709 On ch=8 n=84 v=0
82710 On ch=8 n=84 v=96
82710 On ch=8 n=72 v=96
82739 On ch=8 n=72 v=0
82739 On ch=8 n=84 v=0
82740 On ch=8 n=82 v=96
82740 On ch=8 n=70 v=96
82769 On ch=8 n=70 v=0
82769 On ch=8 n=82 v=0
82770 On ch=8 n=82 v=96
82770 On ch=8 n=70 v=96
82799 On ch=8 n=70 v=0
82799 On ch=8 n=82 v=0
82800 On ch=8 n=81 v=96
82800 On ch=8 n=69 v=96
82829 On ch=8 n=69 v=0
82829 On ch=8 n=81 v=0
82830 On ch=8 n=81 v=96
82830 On ch=8 n=69 v=96
82859 On ch=8 n=69 v=0
82859 On ch=8 n=81 v=0
82860 On ch=8 n=82 v=96
82860 On ch=8 n=70 v=96
82889 On ch=8 n=70 v=0
82889 On ch=8 n=82 v=0
82890 On ch=8 n=82 v=96
82890 On ch=8 n=70 v=96
82919 On ch=8 n=70 v=0
82919 On ch=8 n=82 v=0
82920 On ch=8 n=84 v=96
82920 On ch=8 n=72 v=96
82949 On ch=8 n=72 v=0
82949 On ch=8 n=84 v=0
82950 On ch=8 n=84 v=96
82950 On ch=8 n=72 v=96
82979 On ch=8 n=72 v=0
82979 On ch=8 n=84 v=0
82980 On ch=8 n=82 v=96
82980 On ch=8 n=70 v=96
83009 On ch=8 n=70 v=0
83009 On ch=8 n=82 v=0
83010 On ch=8 n=82 v=96
83010 On ch=8 n=70 v=96
83039 On ch=8 n=70 v=0
83039 On ch=8 n=82 v=0
83040 On ch=8 n=81 v=96
83040 On ch=8 n=69 v=96
83069 On ch=8 n=69 v=0
83069 On ch=8 n=81 v=0
83070 On ch=8 n=81 v=96
83070 On ch=8 n=69 v=96
83099 On ch=8 n=69 v=0
83099 On ch=8 n=81 v=0
83100 On ch=8 n=79 v=96
83100 On ch=8 n=67 v=96
83129 On ch=8 n=67 v=0
83129 On ch=8 n=79 v=0
83130 On ch=8 n=79 v=96
83130 On ch=8 n=67 v=96
83159 On ch=8 n=67 v=0
83159 On ch=8 n=79 v=0
83160 On ch=8 n=77 v=127
83160 On ch=8 n=65 v=127
83189 On ch=8 n=65 v=0
83189 On ch=8 n=77 v=0
83190 On ch=8 n=77 v=127
83190 On ch=8 n=65 v=127
83219 On ch=8 n=65 v=0
83219 On ch=8 n=77 v=0
83220 On ch=8 n=76 v=127
83220 On ch=8 n=64 v=127
83249 On ch=8 n=64 v=0
83249 On ch=8 n=76 v=0
83250 On ch=8 n=76 v=127
83250 On ch=8 n=64 v=127
83279 On ch=8 n=64 v=0
83279 On ch=8 n=76 v=0
83280 On ch=8 n=75 v=127
83280 On ch=8 n=63 v=127
83309 On ch=8 n=63 v=0
83309 On ch=8 n=75 v=0
83310 On ch=8 n=75 v=127
83310 On ch=8 n=63 v=127
83339 On ch=8 n=63 v=0
83339 On ch=8 n=75 v=0
83340 On ch=8 n=74 v=127
83340 On ch=8 n=62 v=127
83369 On ch=8 n=62 v=0
83369 On ch=8 n=74 v=0
83370 On ch=8 n=74 v=127
83370 On ch=8 n=62 v=127
83399 On ch=8 n=62 v=0
83399 On ch=8 n=74 v=0
83400 On ch=8 n=72 v=127
83400 On ch=8 n=60 v=127
83429 On ch=8 n=60 v=0
83429 On ch=8 n=72 v=0
83430 On ch=8 n=72 v=127
83430 On ch=8 n=60 v=127
83459 On ch=8 n=60 v=0
83459 On ch=8 n=72 v=0
83460 On ch=8 n=70 v=127
83460 On ch=8 n=58 v=127
83489 On ch=8 n=58 v=0
83489 On ch=8 n=70 v=0
83490 On ch=8 n=70 v=127
83490 On ch=8 n=58 v=127
83519 On ch=8 n=58 v=0
83519 On ch=8 n=70 v=0
83520 On ch=8 n=69 v=127
83520 On ch=8 n=57 v=127
83549 On ch=8 n=57 v=0
83549 On ch=8 n=69 v=0
83550 On ch=8 n=69 v=127
83550 On ch=8 n=57 v=127
83579 On ch=8 n=57 v=0
83579 On ch=8 n=69 v=0
83580 On ch=8 n=67 v=127
83609 On ch=8 n=67 v=0
83610 On ch=8 n=67 v=127
83639 On ch=8 n=67 v=0
83640 On ch=8 n=65 v=127
83669 On ch=8 n=65 v=0
83670 On ch=8 n=65 v=127
83699 On ch=8 n=65 v=0
83700 On ch=8 n=63 v=127
83729 On ch=8 n=63 v=0
83730 On ch=8 n=63 v=127
83759 On ch=8 n=63 v=0
83760 On ch=8 n=62 v=127
83789 On ch=8 n=62 v=0
83790 On ch=8 n=62 v=127
83819 On ch=8 n=62 v=0
83820 On ch=8 n=60 v=127
83849 On ch=8 n=60 v=0
83850 On ch=8 n=60 v=127
83879 On ch=8 n=60 v=0
83880 On ch=8 n=58 v=127
83999 On ch=8 n=58 v=0
85440 On ch=8 n=75 v=48
85440 On ch=8 n=67 v=48
85529 On ch=8 n=67 v=0
85529 On ch=8 n=75 v=0
85560 On ch=8 n=75 v=48
85560 On ch=8 n=68 v=48
85649 On ch=8 n=68 v=0
85649 On ch=8 n=75 v=0
85680 On ch=8 n=75 v=48
85680 On ch=8 n=69 v=48
85769 On ch=8 n=69 v=0
85769 On ch=8 n=75 v=0
85800 On ch=8 n=77 v=60
85800 On ch=8 n=69 v=60
85889 On ch=8 n=69 v=0
85889 On ch=8 n=77 v=0
85920 On ch=8 n=77 v=72
85920 On ch=8 n=69 v=72
86009 On ch=8 n=69 v=0
86009 On ch=8 n=77 v=0
86040 On ch=8 n=77 v=84
86040 On ch=8 n=69 v=84
86129 On ch=8 n=69 v=0
86160 On ch=8 n=78 v=90
86160 On ch=8 n=69 v=96
86169 On ch=8 n=77 v=0
86280 On ch=8 n=79 v=96
86289 On ch=8 n=78 v=0
86399 On ch=8 n=69 v=0
86400 On ch=8 n=69 v=96
86519 On ch=8 n=79 v=0
86520 On ch=8 n=77 v=84
86580 On ch=8 n=75 v=72
86589 On ch=8 n=77 v=0
86640 On ch=8 n=74 v=64
86649 On ch=8 n=75 v=0
86700 On ch=8 n=72 v=56
86709 On ch=8 n=74 v=0
86709 On ch=8 n=69 v=0
86760 On ch=8 n=70 v=48
86769 On ch=8 n=72 v=0
86879 On ch=8 n=70 v=0
88680 On ch=8 n=65 v=48
88680 On ch=8 n=56 v=48
88769 On ch=8 n=56 v=0
88769 On ch=8 n=65 v=0
88800 On ch=8 n=65 v=48
88800 On ch=8 n=56 v=48
88889 On ch=8 n=56 v=0
88889 On ch=8 n=65 v=0
88920 On ch=8 n=65 v=48
88920 On ch=8 n=58 v=48
89160 On ch=8 n=64 v=56
89169 On ch=8 n=65 v=0
89279 On ch=8 n=64 v=0
89279 On ch=8 n=58 v=0
89760 On ch=8 n=69 v=32
89760 On ch=8 n=66 v=32
89819 On ch=8 n=66 v=0
89819 On ch=8 n=69 v=0
89880 On ch=8 n=69 v=32
89880 On ch=8 n=66 v=32
89939 On ch=8 n=66 v=0
89939 On ch=8 n=69 v=0
90120 On ch=8 n=70 v=32
90120 On ch=8 n=65 v=32
90179 On ch=8 n=65 v=0
90179 On ch=8 n=70 v=0
90240 On ch=8 n=71 v=32
90240 On ch=8 n=68 v=32
90299 On ch=8 n=68 v=0
90299 On ch=8 n=71 v=0
90480 On ch=8 n=72 v=32
90480 On ch=8 n=69 v=32
90539 On ch=8 n=69 v=0
90539 On ch=8 n=72 v=0
90600 On ch=8 n=74 v=32
90600 On ch=8 n=70 v=32
90659 On ch=8 n=70 v=0
90659 On ch=8 n=74 v=0
90720 On ch=8 n=75 v=32
90720 On ch=8 n=72 v=32
90779 On ch=8 n=72 v=0
90779 On ch=8 n=75 v=0
90840 On ch=8 n=77 v=32
90840 On ch=8 n=74 v=32
90899 On ch=8 n=74 v=0
90899 On ch=8 n=77 v=0
90960 On ch=8 n=78 v=32
90960 On ch=8 n=74 v=32
91019 On ch=8 n=74 v=0
91019 On ch=8 n=78 v=0
91080 On ch=8 n=79 v=32
91080 On ch=8 n=75 v=32
91109 On ch=8 n=75 v=0
91109 On ch=8 n=79 v=0
91140 On ch=8 n=77 v=32
91140 On ch=8 n=74 v=32
91169 On ch=8 n=74 v=0
91169 On ch=8 n=77 v=0
91200 On ch=8 n=75 v=32
91200 On ch=8 n=72 v=32
91229 On ch=8 n=72 v=0
91229 On ch=8 n=75 v=0
91260 On ch=8 n=74 v=32
91260 On ch=8 n=70 v=32
91289 On ch=8 n=70 v=0
91289 On ch=8 n=74 v=0
91320 On ch=8 n=72 v=32
91320 On ch=8 n=69 v=32
91349 On ch=8 n=69 v=0
91349 On ch=8 n=72 v=0
91380 On ch=8 n=74 v=32
91380 On ch=8 n=70 v=32
91409 On ch=8 n=70 v=0
91409 On ch=8 n=74 v=0
91440 On ch=8 n=75 v=32
91440 On ch=8 n=72 v=32
91469 On ch=8 n=72 v=0
91469 On ch=8 n=75 v=0
91500 On ch=8 n=74 v=32
91500 On ch=8 n=70 v=32
91529 On ch=8 n=70 v=0
91529 On ch=8 n=74 v=0
91560 On ch=8 n=72 v=32
91560 On ch=8 n=69 v=32
91589 On ch=8 n=69 v=0
91589 On ch=8 n=72 v=0
91620 On ch=8 n=74 v=32
91620 On ch=8 n=70 v=32
91649 On ch=8 n=70 v=0
91649 On ch=8 n=74 v=0
91680 On ch=8 n=75 v=32
91680 On ch=8 n=72 v=32
91709 On ch=8 n=72 v=0
91709 On ch=8 n=75 v=0
91740 On ch=8 n=74 v=32
91740 On ch=8 n=77 v=32
91769 On ch=8 n=77 v=0
91769 On ch=8 n=74 v=0
91800 On ch=8 n=79 v=34
91800 On ch=8 n=75 v=34
91829 On ch=8 n=75 v=0
91829 On ch=8 n=79 v=0
91860 On ch=8 n=77 v=37
91860 On ch=8 n=74 v=37
91889 On ch=8 n=74 v=0
91889 On ch=8 n=77 v=0
91920 On ch=8 n=75 v=40
91920 On ch=8 n=72 v=40
91949 On ch=8 n=72 v=0
91949 On ch=8 n=75 v=0
91980 On ch=8 n=74 v=43
91980 On ch=8 n=70 v=43
92009 On ch=8 n=70 v=0
92009 On ch=8 n=74 v=0
92040 On ch=8 n=72 v=46
92040 On ch=8 n=69 v=46
92069 On ch=8 n=69 v=0
92069 On ch=8 n=72 v=0
92100 On ch=8 n=74 v=48
92100 On ch=8 n=70 v=48
92129 On ch=8 n=70 v=0
92129 On ch=8 n=74 v=0
92160 On ch=8 n=75 v=50
92160 On ch=8 n=72 v=50
92189 On ch=8 n=72 v=0
92189 On ch=8 n=75 v=0
92220 On ch=8 n=74 v=53
92220 On ch=8 n=70 v=53
92249 On ch=8 n=70 v=0
92249 On ch=8 n=74 v=0
92280 On ch=8 n=72 v=56
92280 On ch=8 n=69 v=56
92309 On ch=8 n=69 v=0
92309 On ch=8 n=72 v=0
92340 On ch=8 n=74 v=59
92340 On ch=8 n=70 v=59
92369 On ch=8 n=70 v=0
92369 On ch=8 n=74 v=0
92400 On ch=8 n=75 v=62
92400 On ch=8 n=72 v=62
92429 On ch=8 n=72 v=0
92429 On ch=8 n=75 v=0
92460 On ch=8 n=77 v=64
92460 On ch=8 n=74 v=64
92489 On ch=8 n=74 v=0
92489 On ch=8 n=77 v=0
92520 On ch=8 n=79 v=66
92520 On ch=8 n=75 v=66
92549 On ch=8 n=75 v=0
92549 On ch=8 n=79 v=0
92580 On ch=8 n=77 v=69
92580 On ch=8 n=74 v=69
92609 On ch=8 n=74 v=0
92609 On ch=8 n=77 v=0
92640 On ch=8 n=75 v=72
92640 On ch=8 n=72 v=72
92669 On ch=8 n=72 v=0
92669 On ch=8 n=75 v=0
92700 On ch=8 n=74 v=75
92700 On ch=8 n=71 v=75
92729 On ch=8 n=71 v=0
92729 On ch=8 n=74 v=0
92760 On ch=8 n=75 v=78
92760 On ch=8 n=72 v=78
92789 On ch=8 n=72 v=0
92789 On ch=8 n=75 v=0
92820 On ch=8 n=77 v=80
92820 On ch=8 n=74 v=80
92849 On ch=8 n=74 v=0
92849 On ch=8 n=77 v=0
92880 On ch=8 n=79 v=82
92880 On ch=8 n=75 v=82
92909 On ch=8 n=75 v=0
92909 On ch=8 n=79 v=0
92940 On ch=8 n=81 v=85
92940 On ch=8 n=77 v=85
92969 On ch=8 n=77 v=0
92969 On ch=8 n=81 v=0
93000 On ch=8 n=82 v=88
93000 On ch=8 n=79 v=88
93029 On ch=8 n=79 v=0
93029 On ch=8 n=82 v=0
93060 On ch=8 n=84 v=90
93060 On ch=8 n=81 v=90
93089 On ch=8 n=81 v=0
93089 On ch=8 n=84 v=0
93120 On ch=8 n=86 v=92
93120 On ch=8 n=82 v=92
93149 On ch=8 n=82 v=0
93149 On ch=8 n=86 v=0
93180 On ch=8 n=87 v=94
93180 On ch=8 n=84 v=94
93209 On ch=8 n=84 v=0
93209 On ch=8 n=87 v=0
93240 On ch=8 n=89 v=96
93240 On ch=8 n=86 v=96
93299 On ch=8 n=86 v=0
93360 On ch=8 n=77 v=96
93419 On ch=8 n=77 v=0
93479 On ch=8 n=89 v=0
93480 On ch=8 n=86 v=96
93480 On ch=8 n=74 v=96
93539 On ch=8 n=74 v=0
93539 On ch=8 n=86 v=0
93600 On ch=8 n=82 v=96
93600 On ch=8 n=70 v=96
93659 On ch=8 n=70 v=0
93659 On ch=8 n=82 v=0
93720 On ch=8 n=86 v=112
93720 On ch=8 n=74 v=112
93779 On ch=8 n=74 v=0
93779 On ch=8 n=86 v=0
93840 On ch=8 n=77 v=96
93840 On ch=8 n=65 v=96
93899 On ch=8 n=65 v=0
93899 On ch=8 n=77 v=0
93960 On ch=8 n=84 v=96
93960 On ch=8 n=72 v=96
94019 On ch=8 n=72 v=0
94019 On ch=8 n=84 v=0
94080 On ch=8 n=87 v=112
94080 On ch=8 n=75 v=112
94139 On ch=8 n=75 v=0
94139 On ch=8 n=87 v=0
94200 On ch=8 n=77 v=96
94200 On ch=8 n=65 v=96
94259 On ch=8 n=65 v=0
94259 On ch=8 n=77 v=0
94320 On ch=8 n=81 v=96
94320 On ch=8 n=69 v=96
94379 On ch=8 n=69 v=0
94379 On ch=8 n=81 v=0
94440 On ch=8 n=84 v=112
94440 On ch=8 n=72 v=112
94499 On ch=8 n=72 v=0
94499 On ch=8 n=84 v=0
94560 On ch=8 n=77 v=96
94560 On ch=8 n=65 v=96
94619 On ch=8 n=65 v=0
94619 On ch=8 n=77 v=0
94680 On ch=8 n=89 v=127
94680 On ch=8 n=77 v=127
94680 On ch=8 n=74 v=127
94709 On ch=8 n=77 v=0
94709 On ch=8 n=89 v=0
94710 On ch=8 n=89 v=127
94710 On ch=8 n=77 v=127
94739 On ch=8 n=77 v=0
94739 On ch=8 n=89 v=0
94739 On ch=8 n=74 v=0
94740 On ch=8 n=89 v=127
94740 On ch=8 n=77 v=127
94740 On ch=8 n=62 v=127
94769 On ch=8 n=62 v=0
94769 On ch=8 n=77 v=0
94769 On ch=8 n=89 v=0
94770 On ch=8 n=89 v=127
94770 On ch=8 n=77 v=127
94770 On ch=8 n=62 v=127
94799 On ch=8 n=62 v=0
94799 On ch=8 n=77 v=0
94799 On ch=8 n=89 v=0
94800 On ch=8 n=89 v=127
94800 On ch=8 n=77 v=127
94800 On ch=8 n=65 v=127
94829 On ch=8 n=65 v=0
94829 On ch=8 n=77 v=0
94829 On ch=8 n=89 v=0
94830 On ch=8 n=89 v=127
94830 On ch=8 n=77 v=127
94830 On ch=8 n=65 v=127
94859 On ch=8 n=65 v=0
94859 On ch=8 n=77 v=0
94859 On ch=8 n=89 v=0
94860 On ch=8 n=89 v=127
94860 On ch=8 n=77 v=127
94860 On ch=8 n=70 v=127
94889 On ch=8 n=70 v=0
94889 On ch=8 n=77 v=0
94889 On ch=8 n=89 v=0
94890 On ch=8 n=89 v=127
94890 On ch=8 n=77 v=127
94890 On ch=8 n=70 v=127
94919 On ch=8 n=70 v=0
94919 On ch=8 n=77 v=0
94919 On ch=8 n=89 v=0
94920 On ch=8 n=89 v=127
94920 On ch=8 n=77 v=127
94920 On ch=8 n=74 v=127
94949 On ch=8 n=74 v=0
94949 On ch=8 n=77 v=0
94949 On ch=8 n=89 v=0
94950 On ch=8 n=89 v=127
94950 On ch=8 n=77 v=127
94950 On ch=8 n=74 v=127
94979 On ch=8 n=74 v=0
94979 On ch=8 n=77 v=0
94979 On ch=8 n=89 v=0
94980 On ch=8 n=89 v=127
94980 On ch=8 n=77 v=127
94980 On ch=8 n=62 v=127
95009 On ch=8 n=62 v=0
95009 On ch=8 n=77 v=0
95009 On ch=8 n=89 v=0
95010 On ch=8 n=89 v=127
95010 On ch=8 n=77 v=127
95010 On ch=8 n=62 v=127
95039 On ch=8 n=62 v=0
95039 On ch=8 n=77 v=0
95039 On ch=8 n=89 v=0
95040 On ch=8 n=89 v=127
95040 On ch=8 n=77 v=127
95069 On ch=8 n=77 v=0
95069 On ch=8 n=89 v=0
95070 On ch=8 n=89 v=127
95070 On ch=8 n=77 v=127
95099 On ch=8 n=77 v=0
95099 On ch=8 n=89 v=0
95100 On ch=8 n=89 v=127
95100 On ch=8 n=77 v=127
95100 On ch=8 n=62 v=127
95129 On ch=8 n=62 v=0
95129 On ch=8 n=77 v=0
95129 On ch=8 n=89 v=0
95130 On ch=8 n=89 v=127
95130 On ch=8 n=77 v=127
95130 On ch=8 n=62 v=127
95159 On ch=8 n=62 v=0
95159 On ch=8 n=77 v=0
95159 On ch=8 n=89 v=0
95160 On ch=8 n=89 v=127
95160 On ch=8 n=77 v=127
95160 On ch=8 n=65 v=127
95189 On ch=8 n=65 v=0
95189 On ch=8 n=77 v=0
95189 On ch=8 n=89 v=0
95190 On ch=8 n=89 v=127
95190 On ch=8 n=77 v=127
95190 On ch=8 n=65 v=127
95219 On ch=8 n=65 v=0
95219 On ch=8 n=77 v=0
95219 On ch=8 n=89 v=0
95220 On ch=8 n=89 v=127
95220 On ch=8 n=77 v=127
95220 On ch=8 n=70 v=127
95249 On ch=8 n=70 v=0
95249 On ch=8 n=77 v=0
95249 On ch=8 n=89 v=0
95250 On ch=8 n=89 v=127
95250 On ch=8 n=77 v=127
95250 On ch=8 n=70 v=127
95279 On ch=8 n=70 v=0
95279 On ch=8 n=77 v=0
95279 On ch=8 n=89 v=0
95280 On ch=8 n=89 v=127
95280 On ch=8 n=77 v=127
95280 On ch=8 n=74 v=127
95309 On ch=8 n=74 v=0
95309 On ch=8 n=77 v=0
95309 On ch=8 n=89 v=0
95310 On ch=8 n=89 v=127
95310 On ch=8 n=77 v=127
95310 On ch=8 n=74 v=127
95339 On ch=8 n=74 v=0
95339 On ch=8 n=77 v=0
95339 On ch=8 n=89 v=0
95340 On ch=8 n=89 v=127
95340 On ch=8 n=77 v=127
95340 On ch=8 n=62 v=127
95369 On ch=8 n=62 v=0
95369 On ch=8 n=77 v=0
95369 On ch=8 n=89 v=0
95370 On ch=8 n=89 v=127
95370 On ch=8 n=77 v=127
95370 On ch=8 n=62 v=127
95399 On ch=8 n=62 v=0
95399 On ch=8 n=77 v=0
95399 On ch=8 n=89 v=0
95400 On ch=8 n=89 v=127
95400 On ch=8 n=77 v=127
95429 On ch=8 n=77 v=0
95429 On ch=8 n=89 v=0
95430 On ch=8 n=89 v=127
95430 On ch=8 n=77 v=127
95459 On ch=8 n=77 v=0
95459 On ch=8 n=89 v=0
95460 On ch=8 n=89 v=127
95460 On ch=8 n=77 v=127
95460 On ch=8 n=63 v=127
95489 On ch=8 n=63 v=0
95489 On ch=8 n=77 v=0
95489 On ch=8 n=89 v=0
95490 On ch=8 n=89 v=127
95490 On ch=8 n=77 v=127
95490 On ch=8 n=63 v=127
95519 On ch=8 n=63 v=0
95519 On ch=8 n=77 v=0
95519 On ch=8 n=89 v=0
95520 On ch=8 n=89 v=127
95520 On ch=8 n=77 v=127
95520 On ch=8 n=65 v=127
95549 On ch=8 n=65 v=0
95549 On ch=8 n=77 v=0
95549 On ch=8 n=89 v=0
95550 On ch=8 n=89 v=127
95550 On ch=8 n=77 v=127
95550 On ch=8 n=65 v=127
95579 On ch=8 n=65 v=0
95579 On ch=8 n=77 v=0
95579 On ch=8 n=89 v=0
95580 On ch=8 n=89 v=127
95580 On ch=8 n=77 v=127
95580 On ch=8 n=72 v=127
95609 On ch=8 n=72 v=0
95609 On ch=8 n=77 v=0
95609 On ch=8 n=89 v=0
95610 On ch=8 n=89 v=127
95610 On ch=8 n=77 v=127
95610 On ch=8 n=72 v=127
95639 On ch=8 n=72 v=0
95639 On ch=8 n=77 v=0
95639 On ch=8 n=89 v=0
95640 On ch=8 n=89 v=127
95640 On ch=8 n=77 v=127
95640 On ch=8 n=75 v=127
95669 On ch=8 n=75 v=0
95669 On ch=8 n=77 v=0
95669 On ch=8 n=89 v=0
95670 On ch=8 n=89 v=127
95670 On ch=8 n=77 v=127
95670 On ch=8 n=75 v=127
95699 On ch=8 n=75 v=0
95699 On ch=8 n=77 v=0
95699 On ch=8 n=89 v=0
95700 On ch=8 n=89 v=127
95700 On ch=8 n=77 v=127
95700 On ch=8 n=63 v=127
95729 On ch=8 n=63 v=0
95729 On ch=8 n=77 v=0
95729 On ch=8 n=89 v=0
95730 On ch=8 n=89 v=127
95730 On ch=8 n=77 v=127
95730 On ch=8 n=63 v=127
95759 On ch=8 n=63 v=0
95759 On ch=8 n=77 v=0
95759 On ch=8 n=89 v=0
95760 On ch=8 n=89 v=127
95760 On ch=8 n=77 v=127
95789 On ch=8 n=77 v=0
95789 On ch=8 n=89 v=0
95790 On ch=8 n=89 v=127
95790 On ch=8 n=77 v=127
95819 On ch=8 n=77 v=0
95819 On ch=8 n=89 v=0
95820 On ch=8 n=89 v=127
95820 On ch=8 n=77 v=127
95820 On ch=8 n=63 v=127
95849 On ch=8 n=63 v=0
95849 On ch=8 n=77 v=0
95849 On ch=8 n=89 v=0
95850 On ch=8 n=89 v=127
95850 On ch=8 n=77 v=127
95850 On ch=8 n=63 v=127
95879 On ch=8 n=63 v=0
95879 On ch=8 n=77 v=0
95879 On ch=8 n=89 v=0
95880 On ch=8 n=89 v=127
95880 On ch=8 n=77 v=127
95880 On ch=8 n=65 v=127
95909 On ch=8 n=65 v=0
95909 On ch=8 n=77 v=0
95909 On ch=8 n=89 v=0
95910 On ch=8 n=89 v=127
95910 On ch=8 n=77 v=127
95910 On ch=8 n=65 v=127
95939 On ch=8 n=65 v=0
95939 On ch=8 n=77 v=0
95939 On ch=8 n=89 v=0
95940 On ch=8 n=89 v=127
95940 On ch=8 n=77 v=127
95940 On ch=8 n=69 v=127
95969 On ch=8 n=69 v=0
95969 On ch=8 n=77 v=0
95969 On ch=8 n=89 v=0
95970 On ch=8 n=89 v=127
95970 On ch=8 n=77 v=127
95970 On ch=8 n=69 v=127
95999 On ch=8 n=69 v=0
95999 On ch=8 n=77 v=0
95999 On ch=8 n=89 v=0
96000 On ch=8 n=89 v=127
96000 On ch=8 n=77 v=127
96000 On ch=8 n=72 v=127
96029 On ch=8 n=72 v=0
96029 On ch=8 n=77 v=0
96029 On ch=8 n=89 v=0
96030 On ch=8 n=89 v=127
96030 On ch=8 n=77 v=127
96030 On ch=8 n=72 v=127
96059 On ch=8 n=72 v=0
96059 On ch=8 n=77 v=0
96059 On ch=8 n=89 v=0
96060 On ch=8 n=89 v=127
96060 On ch=8 n=77 v=127
96060 On ch=8 n=69 v=127
96089 On ch=8 n=69 v=0
96089 On ch=8 n=77 v=0
96089 On ch=8 n=89 v=0
96090 On ch=8 n=89 v=127
96090 On ch=8 n=77 v=127
96090 On ch=8 n=69 v=127
96119 On ch=8 n=69 v=0
96119 On ch=8 n=77 v=0
96119 On ch=8 n=89 v=0
96120 On ch=8 n=89 v=127
96120 On ch=8 n=70 v=127
96149 On ch=8 n=70 v=0
96149 On ch=8 n=89 v=0
96150 On ch=8 n=89 v=127
96150 On ch=8 n=70 v=127
96179 On ch=8 n=70 v=0
96179 On ch=8 n=89 v=0
96180 On ch=8 n=85 v=127
96180 On ch=8 n=73 v=127
96209 On ch=8 n=73 v=0
96209 On ch=8 n=85 v=0
96210 On ch=8 n=85 v=127
96210 On ch=8 n=73 v=127
96239 On ch=8 n=73 v=0
96239 On ch=8 n=85 v=0
96240 On ch=8 n=86 v=127
96240 On ch=8 n=74 v=127
96269 On ch=8 n=74 v=0
96269 On ch=8 n=86 v=0
96270 On ch=8 n=86 v=127
96270 On ch=8 n=74 v=127
96299 On ch=8 n=74 v=0
96299 On ch=8 n=86 v=0
96300 On ch=8 n=81 v=127
96300 On ch=8 n=69 v=127
96329 On ch=8 n=69 v=0
96329 On ch=8 n=81 v=0
96330 On ch=8 n=81 v=127
96330 On ch=8 n=69 v=127
96359 On ch=8 n=69 v=0
96359 On ch=8 n=81 v=0
96360 On ch=8 n=82 v=127
96360 On ch=8 n=70 v=127
96389 On ch=8 n=70 v=0
96389 On ch=8 n=82 v=0
96390 On ch=8 n=82 v=127
96390 On ch=8 n=70 v=127
96419 On ch=8 n=70 v=0
96419 On ch=8 n=82 v=0
96420 On ch=8 n=76 v=127
96420 On ch=8 n=64 v=127
96449 On ch=8 n=64 v=0
96449 On ch=8 n=76 v=0
96450 On ch=8 n=76 v=127
96450 On ch=8 n=64 v=127
96479 On ch=8 n=64 v=0
96479 On ch=8 n=76 v=0
96480 On ch=8 n=77 v=127
96480 On ch=8 n=65 v=127
96509 On ch=8 n=65 v=0
96509 On ch=8 n=77 v=0
96510 On ch=8 n=77 v=127
96510 On ch=8 n=65 v=127
96539 On ch=8 n=65 v=0
96539 On ch=8 n=77 v=0
96540 On ch=8 n=73 v=127
96540 On ch=8 n=61 v=127
96569 On ch=8 n=61 v=0
96569 On ch=8 n=73 v=0
96570 On ch=8 n=73 v=127
96570 On ch=8 n=61 v=127
96599 On ch=8 n=61 v=0
96599 On ch=8 n=73 v=0
96600 On ch=8 n=74 v=127
96600 On ch=8 n=62 v=127
96629 On ch=8 n=62 v=0
96629 On ch=8 n=74 v=0
96630 On ch=8 n=74 v=127
96630 On ch=8 n=62 v=127
96659 On ch=8 n=62 v=0
96659 On ch=8 n=74 v=0
96660 On ch=8 n=69 v=127
96660 On ch=8 n=57 v=127
96689 On ch=8 n=57 v=0
96689 On ch=8 n=69 v=0
96690 On ch=8 n=69 v=127
96690 On ch=8 n=57 v=127
96719 On ch=8 n=57 v=0
96719 On ch=8 n=69 v=0
96720 On ch=8 n=70 v=127
96720 On ch=8 n=58 v=127
96749 On ch=8 n=58 v=0
96749 On ch=8 n=70 v=0
96750 On ch=8 n=70 v=127
96750 On ch=8 n=58 v=127
96779 On ch=8 n=58 v=0
96779 On ch=8 n=70 v=0
96780 On ch=8 n=68 v=127
96780 On ch=8 n=56 v=127
96809 On ch=8 n=56 v=0
96809 On ch=8 n=68 v=0
96810 On ch=8 n=68 v=127
96810 On ch=8 n=56 v=127
96839 On ch=8 n=56 v=0
96839 On ch=8 n=68 v=0
96840 On ch=8 n=67 v=127
96840 On ch=8 n=55 v=127
96869 On ch=8 n=55 v=0
96869 On ch=8 n=67 v=0
96870 On ch=8 n=67 v=127
96870 On ch=8 n=55 v=127
96899 On ch=8 n=55 v=0
96899 On ch=8 n=67 v=0
96900 On ch=8 n=71 v=127
96900 On ch=8 n=59 v=127
96929 On ch=8 n=59 v=0
96929 On ch=8 n=71 v=0
96930 On ch=8 n=71 v=127
96930 On ch=8 n=59 v=127
96959 On ch=8 n=59 v=0
96959 On ch=8 n=71 v=0
96960 On ch=8 n=72 v=127
96960 On ch=8 n=60 v=127
96989 On ch=8 n=60 v=0
96989 On ch=8 n=72 v=0
96990 On ch=8 n=72 v=127
96990 On ch=8 n=60 v=127
97019 On ch=8 n=60 v=0
97019 On ch=8 n=72 v=0
97020 On ch=8 n=70 v=127
97020 On ch=8 n=58 v=127
97049 On ch=8 n=58 v=0
97049 On ch=8 n=70 v=0
97050 On ch=8 n=70 v=127
97050 On ch=8 n=58 v=127
97079 On ch=8 n=58 v=0
97079 On ch=8 n=70 v=0
97080 On ch=8 n=69 v=127
97080 On ch=8 n=57 v=127
97109 On ch=8 n=57 v=0
97109 On ch=8 n=69 v=0
97110 On ch=8 n=69 v=127
97110 On ch=8 n=57 v=127
97139 On ch=8 n=57 v=0
97139 On ch=8 n=69 v=0
97140 On ch=8 n=73 v=127
97140 On ch=8 n=61 v=127
97169 On ch=8 n=61 v=0
97169 On ch=8 n=73 v=0
97170 On ch=8 n=73 v=127
97170 On ch=8 n=61 v=127
97199 On ch=8 n=61 v=0
97199 On ch=8 n=73 v=0
97200 On ch=8 n=74 v=127
97200 On ch=8 n=62 v=127
97229 On ch=8 n=62 v=0
97229 On ch=8 n=74 v=0
97230 On ch=8 n=74 v=127
97230 On ch=8 n=62 v=127
97259 On ch=8 n=62 v=0
97259 On ch=8 n=74 v=0
97260 On ch=8 n=72 v=127
97260 On ch=8 n=60 v=127
97289 On ch=8 n=60 v=0
97289 On ch=8 n=72 v=0
97290 On ch=8 n=72 v=127
97290 On ch=8 n=60 v=127
97319 On ch=8 n=60 v=0
97319 On ch=8 n=72 v=0
97320 On ch=8 n=70 v=127
97320 On ch=8 n=58 v=127
97349 On ch=8 n=58 v=0
97349 On ch=8 n=70 v=0
97350 On ch=8 n=70 v=127
97350 On ch=8 n=58 v=127
97379 On ch=8 n=58 v=0
97379 On ch=8 n=70 v=0
97380 On ch=8 n=74 v=127
97380 On ch=8 n=62 v=127
97409 On ch=8 n=62 v=0
97409 On ch=8 n=74 v=0
97410 On ch=8 n=74 v=127
97410 On ch=8 n=62 v=127
97439 On ch=8 n=62 v=0
97439 On ch=8 n=74 v=0
97440 On ch=8 n=75 v=127
97440 On ch=8 n=63 v=127
97469 On ch=8 n=63 v=0
97469 On ch=8 n=75 v=0
97470 On ch=8 n=75 v=127
97470 On ch=8 n=63 v=127
97499 On ch=8 n=63 v=0
97499 On ch=8 n=75 v=0
97500 On ch=8 n=74 v=127
97500 On ch=8 n=62 v=127
97529 On ch=8 n=62 v=0
97529 On ch=8 n=74 v=0
97530 On ch=8 n=74 v=127
97530 On ch=8 n=62 v=127
97559 On ch=8 n=62 v=0
97559 On ch=8 n=74 v=0
97560 On ch=8 n=72 v=127
97560 On ch=8 n=60 v=127
97589 On ch=8 n=60 v=0
97589 On ch=8 n=72 v=0
97590 On ch=8 n=72 v=127
97590 On ch=8 n=60 v=127
97619 On ch=8 n=60 v=0
97619 On ch=8 n=72 v=0
97620 On ch=8 n=76 v=127
97620 On ch=8 n=64 v=127
97649 On ch=8 n=64 v=0
97649 On ch=8 n=76 v=0
97650 On ch=8 n=76 v=127
97650 On ch=8 n=64 v=127
97679 On ch=8 n=64 v=0
97679 On ch=8 n=76 v=0
97680 On ch=8 n=77 v=127
97680 On ch=8 n=65 v=127
97709 On ch=8 n=65 v=0
97709 On ch=8 n=77 v=0
97710 On ch=8 n=77 v=127
97710 On ch=8 n=65 v=127
97739 On ch=8 n=65 v=0
97739 On ch=8 n=77 v=0
97740 On ch=8 n=75 v=127
97740 On ch=8 n=63 v=127
97769 On ch=8 n=63 v=0
97769 On ch=8 n=75 v=0
97770 On ch=8 n=75 v=127
97770 On ch=8 n=63 v=127
97799 On ch=8 n=63 v=0
97799 On ch=8 n=75 v=0
97800 On ch=8 n=74 v=127
97800 On ch=8 n=62 v=127
97829 On ch=8 n=62 v=0
97829 On ch=8 n=74 v=0
97830 On ch=8 n=74 v=127
97830 On ch=8 n=62 v=127
97859 On ch=8 n=62 v=0
97859 On ch=8 n=74 v=0
97860 On ch=8 n=78 v=127
97860 On ch=8 n=66 v=127
97889 On ch=8 n=66 v=0
97889 On ch=8 n=78 v=0
97890 On ch=8 n=78 v=127
97890 On ch=8 n=66 v=127
97919 On ch=8 n=66 v=0
97919 On ch=8 n=78 v=0
97920 On ch=8 n=79 v=127
97920 On ch=8 n=67 v=127
97949 On ch=8 n=67 v=0
97949 On ch=8 n=79 v=0
97950 On ch=8 n=79 v=127
97950 On ch=8 n=67 v=127
97979 On ch=8 n=67 v=0
97979 On ch=8 n=79 v=0
97980 On ch=8 n=81 v=127
97980 On ch=8 n=69 v=127
98009 On ch=8 n=69 v=0
98009 On ch=8 n=81 v=0
98010 On ch=8 n=81 v=127
98010 On ch=8 n=69 v=127
98039 On ch=8 n=69 v=0
98039 On ch=8 n=81 v=0
98040 On ch=8 n=82 v=127
98040 On ch=8 n=70 v=127
98069 On ch=8 n=70 v=0
98069 On ch=8 n=82 v=0
98070 On ch=8 n=82 v=127
98070 On ch=8 n=70 v=127
98099 On ch=8 n=70 v=0
98099 On ch=8 n=82 v=0
98100 On ch=8 n=83 v=127
98100 On ch=8 n=71 v=127
98129 On ch=8 n=71 v=0
98129 On ch=8 n=83 v=0
98130 On ch=8 n=83 v=127
98130 On ch=8 n=71 v=127
98159 On ch=8 n=71 v=0
98159 On ch=8 n=83 v=0
98160 On ch=8 n=84 v=127
98160 On ch=8 n=72 v=127
98189 On ch=8 n=72 v=0
98189 On ch=8 n=84 v=0
98190 On ch=8 n=84 v=127
98190 On ch=8 n=72 v=127
98219 On ch=8 n=72 v=0
98219 On ch=8 n=84 v=0
98220 On ch=8 n=85 v=127
98220 On ch=8 n=73 v=127
98249 On ch=8 n=73 v=0
98249 On ch=8 n=85 v=0
98250 On ch=8 n=85 v=127
98250 On ch=8 n=73 v=127
98279 On ch=8 n=73 v=0
98279 On ch=8 n=85 v=0
98280 On ch=8 n=86 v=127
98280 On ch=8 n=74 v=127
98339 On ch=8 n=74 v=0
98339 On ch=8 n=86 v=0
98400 On ch=8 n=74 v=127
98400 On ch=8 n=84 v=127
98400 On ch=8 n=81 v=127
98400 On ch=8 n=72 v=127
98400 On ch=8 n=62 v=127
98459 On ch=8 n=62 v=0
98459 On ch=8 n=81 v=0
98459 On ch=8 n=74 v=0
98459 On ch=8 n=84 v=0
98459 On ch=8 n=72 v=0
98520 On ch=8 n=74 v=127
98520 On ch=8 n=82 v=127
98520 On ch=8 n=62 v=127
98520 On ch=8 n=70 v=127
98520 On ch=8 n=79 v=127
98579 On ch=8 n=79 v=0
98579 On ch=8 n=62 v=0
98579 On ch=8 n=74 v=0
98579 On ch=8 n=82 v=0
98579 On ch=8 n=70 v=0
98760 On ch=8 n=80 v=127
98760 On ch=8 n=62 v=127
98760 On ch=8 n=71 v=127
98760 On ch=8 n=65 v=127
98819 On ch=8 n=65 v=0
98819 On ch=8 n=80 v=0
98819 On ch=8 n=62 v=0
98819 On ch=8 n=71 v=0
98880 On ch=8 n=79 v=127
98880 On ch=8 n=72 v=127
98880 On ch=8 n=63 v=127
98939 On ch=8 n=63 v=0
98939 On ch=8 n=72 v=0
98939 On ch=8 n=79 v=0
99120 On ch=8 n=82 v=127
99120 On ch=8 n=79 v=127
99120 On ch=8 n=72 v=127
99120 On ch=8 n=64 v=127
99179 On ch=8 n=64 v=0
99179 On ch=8 n=82 v=0
99179 On ch=8 n=79 v=0
99179 On ch=8 n=72 v=0
99240 On ch=8 n=81 v=127
99240 On ch=8 n=65 v=127
99240 On ch=8 n=72 v=127
99240 On ch=8 n=77 v=127
99299 On ch=8 n=77 v=0
99299 On ch=8 n=81 v=0
99299 On ch=8 n=65 v=0
99299 On ch=8 n=72 v=0
99480 On ch=8 n=84 v=127
99480 On ch=8 n=74 v=127
99480 On ch=8 n=81 v=127
99480 On ch=8 n=72 v=127
99480 On ch=8 n=62 v=127
99539 On ch=8 n=62 v=0
99539 On ch=8 n=81 v=0
99539 On ch=8 n=84 v=0
99539 On ch=8 n=74 v=0
99539 On ch=8 n=72 v=0
99600 On ch=8 n=82 v=127
99600 On ch=8 n=74 v=127
99600 On ch=8 n=62 v=127
99600 On ch=8 n=70 v=127
99600 On ch=8 n=79 v=127
99659 On ch=8 n=79 v=0
99659 On ch=8 n=62 v=0
99659 On ch=8 n=82 v=0
99659 On ch=8 n=74 v=0
99659 On ch=8 n=70 v=0
99840 On ch=8 n=80 v=127
99840 On ch=8 n=71 v=127
99840 On ch=8 n=65 v=127
99899 On ch=8 n=65 v=0
99899 On ch=8 n=71 v=0
99899 On ch=8 n=80 v=0
99960 On ch=8 n=79 v=127
99960 On ch=8 n=72 v=127
99960 On ch=8 n=63 v=127
100019 On ch=8 n=63 v=0
100019 On ch=8 n=72 v=0
100019 On ch=8 n=79 v=0
100200 On ch=8 n=82 v=127
100200 On ch=8 n=79 v=127
100200 On ch=8 n=72 v=127
100200 On ch=8 n=64 v=127
100259 On ch=8 n=64 v=0
100259 On ch=8 n=82 v=0
100259 On ch=8 n=79 v=0
100259 On ch=8 n=72 v=0
100440 On ch=8 n=82 v=127
100440 On ch=8 n=64 v=127
100440 On ch=8 n=72 v=127
100440 On ch=8 n=79 v=127
100499 On ch=8 n=79 v=0
100499 On ch=8 n=82 v=0
100499 On ch=8 n=64 v=0
100499 On ch=8 n=72 v=0
100680 On ch=8 n=82 v=127
100680 On ch=8 n=79 v=127
100680 On ch=8 n=72 v=127
100680 On ch=8 n=64 v=127
100739 On ch=8 n=64 v=0
100739 On ch=8 n=82 v=0
100739 On ch=8 n=79 v=0
100739 On ch=8 n=72 v=0
100920 On ch=8 n=82 v=127
100920 On ch=8 n=64 v=127
100920 On ch=8 n=72 v=127
100920 On ch=8 n=79 v=127
100979 On ch=8 n=79 v=0
100979 On ch=8 n=82 v=0
100979 On ch=8 n=64 v=0
100979 On ch=8 n=72 v=0
101160 On ch=8 n=82 v=127
101160 On ch=8 n=79 v=127
101160 On ch=8 n=72 v=127
101160 On ch=8 n=64 v=127
101219 On ch=8 n=64 v=0
101219 On ch=8 n=82 v=0
101219 On ch=8 n=79 v=0
101219 On ch=8 n=72 v=0
101400 On ch=8 n=82 v=127
101400 On ch=8 n=64 v=127
101400 On ch=8 n=72 v=127
101400 On ch=8 n=79 v=127
101459 On ch=8 n=79 v=0
101459 On ch=8 n=82 v=0
101459 On ch=8 n=64 v=0
101459 On ch=8 n=72 v=0
101880 On ch=8 n=70 v=96
101880 On ch=8 n=64 v=96
101909 On ch=8 n=64 v=0
101909 On ch=8 n=70 v=0
101910 On ch=8 n=64 v=48
101910 On ch=8 n=70 v=48
102000 On ch=8 n=73 v=48
102000 On ch=8 n=61 v=48
102009 On ch=8 n=70 v=0
102009 On ch=8 n=64 v=0
102120 On ch=8 n=76 v=48
102120 On ch=8 n=58 v=48
102129 On ch=8 n=73 v=0
102129 On ch=8 n=61 v=0
102239 On ch=8 n=76 v=0
102239 On ch=8 n=58 v=0
102240 On ch=8 n=77 v=48
102240 On ch=8 n=62 v=48
102240 On ch=8 n=58 v=48
102599 On ch=8 n=58 v=0
102599 On ch=8 n=62 v=0
102599 On ch=8 n=77 v=0
102600 On ch=8 n=70 v=96
102600 On ch=8 n=64 v=96
102629 On ch=8 n=64 v=0
102629 On ch=8 n=70 v=0
102630 On ch=8 n=70 v=48
102630 On ch=8 n=64 v=48
102720 On ch=8 n=73 v=48
102720 On ch=8 n=61 v=48
102729 On ch=8 n=64 v=0
102729 On ch=8 n=70 v=0
102840 On ch=8 n=76 v=48
102840 On ch=8 n=58 v=48
102849 On ch=8 n=73 v=0
102849 On ch=8 n=61 v=0
103019 On ch=8 n=58 v=0
103020 On ch=8 n=55 v=48
103049 On ch=8 n=55 v=0
103080 On ch=8 n=75 v=48
103080 On ch=8 n=58 v=48
103089 On ch=8 n=76 v=0
103109 On ch=8 n=58 v=0
103140 On ch=8 n=63 v=48
103169 On ch=8 n=63 v=0
103200 On ch=8 n=73 v=48
103200 On ch=8 n=55 v=48
103209 On ch=8 n=75 v=0
103259 On ch=8 n=55 v=0
103380 On ch=8 n=56 v=48
103409 On ch=8 n=56 v=0
103440 On ch=8 n=71 v=48
103440 On ch=8 n=60 v=48
103449 On ch=8 n=73 v=0
103469 On ch=8 n=60 v=0
103500 On ch=8 n=63 v=48
103529 On ch=8 n=63 v=0
103560 On ch=8 n=72 v=48
103560 On ch=8 n=56 v=48
103569 On ch=8 n=71 v=0
103619 On ch=8 n=56 v=0
103740 On ch=8 n=57 v=48
103769 On ch=8 n=57 v=0
103800 On ch=8 n=65 v=48
103800 On ch=8 n=60 v=48
103809 On ch=8 n=72 v=0
103829 On ch=8 n=60 v=0
103859 On ch=8 n=65 v=0
103860 On ch=8 n=65 v=48
103919 On ch=8 n=65 v=0
103920 On ch=8 n=75 v=48
103920 On ch=8 n=57 v=48
103979 On ch=8 n=57 v=0
104100 On ch=8 n=58 v=48
104129 On ch=8 n=58 v=0
104160 On ch=8 n=73 v=48
104160 On ch=8 n=62 v=48
104169 On ch=8 n=75 v=0
104189 On ch=8 n=62 v=0
104220 On ch=8 n=65 v=48
104249 On ch=8 n=65 v=0
104280 On ch=8 n=74 v=48
104280 On ch=8 n=70 v=48
104289 On ch=8 n=73 v=0
104309 On ch=8 n=70 v=0
104340 On ch=8 n=66 v=48
104369 On ch=8 n=66 v=0
104400 On ch=8 n=67 v=48
104429 On ch=8 n=67 v=0
104430 On ch=8 n=67 v=50
104459 On ch=8 n=67 v=0
104460 On ch=8 n=66 v=52
104460 On ch=8 n=55 v=52
104469 On ch=8 n=74 v=0
104489 On ch=8 n=55 v=0
104490 On ch=8 n=55 v=53
104519 On ch=8 n=55 v=0
104520 On ch=8 n=67 v=55
104529 On ch=8 n=66 v=0
104549 On ch=8 n=67 v=0
104550 On ch=8 n=67 v=56
104579 On ch=8 n=67 v=0
104580 On ch=8 n=71 v=58
104580 On ch=8 n=67 v=58
104609 On ch=8 n=67 v=0
104610 On ch=8 n=67 v=60
104639 On ch=8 n=67 v=0
104640 On ch=8 n=72 v=65
104640 On ch=8 n=67 v=62
104649 On ch=8 n=71 v=0
104669 On ch=8 n=67 v=0
104670 On ch=8 n=67 v=63
104699 On ch=8 n=67 v=0
104700 On ch=8 n=74 v=69
104700 On ch=8 n=67 v=65
104709 On ch=8 n=72 v=0
104729 On ch=8 n=67 v=0
104730 On ch=8 n=67 v=67
104759 On ch=8 n=67 v=0
104760 On ch=8 n=75 v=72
104760 On ch=8 n=63 v=69
104769 On ch=8 n=74 v=0
104789 On ch=8 n=63 v=0
104790 On ch=8 n=63 v=70
104819 On ch=8 n=63 v=0
104820 On ch=8 n=78 v=75
104820 On ch=8 n=63 v=72
104829 On ch=8 n=75 v=0
104849 On ch=8 n=63 v=0
104850 On ch=8 n=63 v=74
104879 On ch=8 n=63 v=0
104880 On ch=8 n=79 v=79
104880 On ch=8 n=63 v=76
104889 On ch=8 n=78 v=0
104909 On ch=8 n=63 v=0
104910 On ch=8 n=63 v=77
104939 On ch=8 n=63 v=0
104940 On ch=8 n=75 v=81
104940 On ch=8 n=67 v=79
104949 On ch=8 n=79 v=0
104969 On ch=8 n=67 v=0
104970 On ch=8 n=67 v=81
104999 On ch=8 n=67 v=0
105000 On ch=8 n=74 v=83
105000 On ch=8 n=65 v=83
105009 On ch=8 n=75 v=0
105029 On ch=8 n=65 v=0
105030 On ch=8 n=65 v=84
105059 On ch=8 n=65 v=0
105060 On ch=8 n=72 v=86
105060 On ch=8 n=63 v=86
105069 On ch=8 n=74 v=0
105089 On ch=8 n=63 v=0
105090 On ch=8 n=63 v=88
105119 On ch=8 n=63 v=0
105120 On ch=8 n=70 v=90
105120 On ch=8 n=62 v=90
105129 On ch=8 n=72 v=0
105149 On ch=8 n=62 v=0
105149 On ch=8 n=70 v=0
105150 On ch=8 n=70 v=91
105150 On ch=8 n=62 v=91
105179 On ch=8 n=62 v=0
105179 On ch=8 n=70 v=0
105180 On ch=8 n=58 v=93
105180 On ch=8 n=74 v=93
105209 On ch=8 n=74 v=0
105209 On ch=8 n=58 v=0
105210 On ch=8 n=74 v=95
105210 On ch=8 n=58 v=95
105239 On ch=8 n=58 v=0
105239 On ch=8 n=74 v=0
105240 On ch=8 n=77 v=97
105240 On ch=8 n=62 v=97
105269 On ch=8 n=62 v=0
105269 On ch=8 n=77 v=0
105270 On ch=8 n=77 v=99
105270 On ch=8 n=62 v=99
105299 On ch=8 n=62 v=0
105299 On ch=8 n=77 v=0
105300 On ch=8 n=82 v=101
105300 On ch=8 n=65 v=101
105329 On ch=8 n=65 v=0
105329 On ch=8 n=82 v=0
105330 On ch=8 n=82 v=103
105330 On ch=8 n=65 v=103
105359 On ch=8 n=65 v=0
105359 On ch=8 n=82 v=0
105360 On ch=8 n=86 v=105
105360 On ch=8 n=70 v=105
105389 On ch=8 n=70 v=0
105389 On ch=8 n=86 v=0
105390 On ch=8 n=86 v=107
105390 On ch=8 n=70 v=107
105419 On ch=8 n=70 v=0
105419 On ch=8 n=86 v=0
105420 On ch=8 n=89 v=109
105420 On ch=8 n=74 v=109
105449 On ch=8 n=74 v=0
105449 On ch=8 n=89 v=0
105450 On ch=8 n=89 v=111
105450 On ch=8 n=74 v=111
105479 On ch=8 n=74 v=0
105479 On ch=8 n=89 v=0
105480 On ch=8 n=89 v=127
105480 On ch=8 n=75 v=127
105509 On ch=8 n=75 v=0
105509 On ch=8 n=89 v=0
105510 On ch=8 n=89 v=127
105510 On ch=8 n=75 v=127
105539 On ch=8 n=75 v=0
105539 On ch=8 n=89 v=0
105540 On ch=8 n=89 v=127
105540 On ch=8 n=75 v=127
105569 On ch=8 n=75 v=0
105569 On ch=8 n=89 v=0
105570 On ch=8 n=89 v=127
105570 On ch=8 n=75 v=127
105599 On ch=8 n=75 v=0
105599 On ch=8 n=89 v=0
105600 On ch=8 n=89 v=127
105600 On ch=8 n=75 v=127
105629 On ch=8 n=75 v=0
105629 On ch=8 n=89 v=0
105630 On ch=8 n=89 v=127
105630 On ch=8 n=75 v=127
105659 On ch=8 n=75 v=0
105659 On ch=8 n=89 v=0
105660 On ch=8 n=89 v=127
105660 On ch=8 n=75 v=127
105689 On ch=8 n=75 v=0
105689 On ch=8 n=89 v=0
105690 On ch=8 n=89 v=127
105690 On ch=8 n=75 v=127
105719 On ch=8 n=75 v=0
105719 On ch=8 n=89 v=0
105720 On ch=8 n=89 v=127
105720 On ch=8 n=75 v=127
105749 On ch=8 n=75 v=0
105749 On ch=8 n=89 v=0
105750 On ch=8 n=89 v=127
105750 On ch=8 n=75 v=127
105779 On ch=8 n=75 v=0
105779 On ch=8 n=89 v=0
105780 On ch=8 n=89 v=127
105780 On ch=8 n=75 v=127
105809 On ch=8 n=75 v=0
105809 On ch=8 n=89 v=0
105810 On ch=8 n=89 v=127
105810 On ch=8 n=75 v=127
105839 On ch=8 n=75 v=0
105839 On ch=8 n=89 v=0
105840 On ch=8 n=82 v=96
105840 On ch=8 n=70 v=96
105840 On ch=8 n=74 v=96
105899 On ch=8 n=74 v=0
105899 On ch=8 n=70 v=0
105899 On ch=8 n=82 v=0
105960 On ch=8 n=65 v=96
106019 On ch=8 n=65 v=0
106080 On ch=8 n=62 v=96
106139 On ch=8 n=62 v=0
106200 On ch=8 n=82 v=96
106200 On ch=8 n=70 v=96
106259 On ch=8 n=70 v=0
106259 On ch=8 n=82 v=0
106320 On ch=8 n=67 v=112
106379 On ch=8 n=67 v=0
106440 On ch=8 n=63 v=96
106499 On ch=8 n=63 v=0
106560 On ch=8 n=70 v=96
106560 On ch=8 n=82 v=96
106619 On ch=8 n=82 v=0
106619 On ch=8 n=70 v=0
106680 On ch=8 n=65 v=112
106739 On ch=8 n=65 v=0
106800 On ch=8 n=62 v=96
106859 On ch=8 n=62 v=0
106920 On ch=8 n=82 v=96
106920 On ch=8 n=70 v=96
106920 On ch=8 n=69 v=96
106920 On ch=8 n=66 v=96
106979 On ch=8 n=66 v=0
106979 On ch=8 n=82 v=0
106979 On ch=8 n=70 v=0
106979 On ch=8 n=69 v=0
107040 On ch=8 n=70 v=96
107040 On ch=8 n=82 v=96
107040 On ch=8 n=66 v=96
107040 On ch=8 n=69 v=96
107099 On ch=8 n=69 v=0
107099 On ch=8 n=70 v=0
107099 On ch=8 n=82 v=0
107099 On ch=8 n=66 v=0
107160 On ch=8 n=82 v=96
107160 On ch=8 n=70 v=96
107160 On ch=8 n=69 v=96
107160 On ch=8 n=66 v=96
107219 On ch=8 n=66 v=0
107219 On ch=8 n=82 v=0
107219 On ch=8 n=70 v=0
107219 On ch=8 n=69 v=0
107280 On ch=8 n=82 v=96
107280 On ch=8 n=70 v=96
107309 On ch=8 n=70 v=0
107309 On ch=8 n=82 v=0
107310 On ch=8 n=82 v=48
107310 On ch=8 n=70 v=48
107520 On ch=8 n=86 v=48
107520 On ch=8 n=74 v=48
107529 On ch=8 n=70 v=0
107529 On ch=8 n=82 v=0
107640 On ch=8 n=82 v=48
107640 On ch=8 n=70 v=48
107649 On ch=8 n=86 v=0
107649 On ch=8 n=74 v=0
107880 On ch=8 n=77 v=48
107880 On ch=8 n=65 v=48
107889 On ch=8 n=82 v=0
107889 On ch=8 n=70 v=0
107999 On ch=8 n=77 v=0
107999 On ch=8 n=65 v=0
108000 On ch=8 n=68 v=48
108240 On ch=8 n=72 v=48
108249 On ch=8 n=68 v=0
108360 On ch=8 n=68 v=48
108369 On ch=8 n=72 v=0
108420 On ch=8 n=62 v=48
108480 On ch=8 n=65 v=48
108489 On ch=8 n=62 v=0
108539 On ch=8 n=68 v=0
108540 On ch=8 n=68 v=48
108549 On ch=8 n=65 v=0
108600 On ch=8 n=74 v=48
108600 On ch=8 n=65 v=48
108609 On ch=8 n=68 v=0
108660 On ch=8 n=77 v=48
108669 On ch=8 n=74 v=0
108719 On ch=8 n=65 v=0
108720 On ch=8 n=80 v=48
108720 On ch=8 n=62 v=32
108729 On ch=8 n=77 v=0
108839 On ch=8 n=80 v=0
108960 On ch=8 n=59 v=32
108969 On ch=8 n=62 v=0
109080 On ch=8 n=57 v=32
109089 On ch=8 n=59 v=0
109320 On ch=8 n=58 v=32
109329 On ch=8 n=57 v=0
109439 On ch=8 n=58 v=0
109440 On ch=8 n=56 v=32
109680 On ch=8 n=67 v=32
109800 On ch=8 n=64 v=32
109800 On ch=8 n=60 v=32
109809 On ch=8 n=67 v=0
109809 On ch=8 n=56 v=0
110040 On ch=8 n=65 v=32
110049 On ch=8 n=64 v=0
110159 On ch=8 n=65 v=0
110159 On ch=8 n=60 v=0
110160 On ch=8 n=65 v=32
110160 On ch=8 n=59 v=32
110279 On ch=8 n=65 v=0
110879 On ch=8 n=59 v=0
110880 On ch=8 n=60 v=32
111120 On ch=8 n=67 v=32
111240 On ch=8 n=64 v=32
111249 On ch=8 n=67 v=0
111480 On ch=8 n=65 v=32
111489 On ch=8 n=64 v=0
111599 On ch=8 n=65 v=0
111599 On ch=8 n=60 v=0
111600 On ch=8 n=65 v=32
111600 On ch=8 n=59 v=32
111719 On ch=8 n=59 v=0
111719 On ch=8 n=65 v=0
111840 On ch=8 n=77 v=32
111840 On ch=8 n=74 v=32
112199 On ch=8 n=74 v=0
112199 On ch=8 n=77 v=0
112200 On ch=8 n=74 v=32
112200 On ch=8 n=71 v=32
112559 On ch=8 n=71 v=0
112559 On ch=8 n=74 v=0
112560 On ch=8 n=71 v=32
112560 On ch=8 n=65 v=32
112919 On ch=8 n=65 v=0
112919 On ch=8 n=71 v=0
112920 On ch=8 n=65 v=32
112920 On ch=8 n=62 v=32
113279 On ch=8 n=62 v=0
113279 On ch=8 n=65 v=0
113280 On ch=8 n=63 v=80
113280 On ch=8 n=60 v=80
113639 On ch=8 n=60 v=0
113639 On ch=8 n=63 v=0
113640 On ch=8 n=66 v=64
113640 On ch=8 n=63 v=64
113640 On ch=8 n=60 v=64
113759 On ch=8 n=60 v=0
113759 On ch=8 n=63 v=0
113760 On ch=8 n=67 v=48
113760 On ch=8 n=62 v=48
113769 On ch=8 n=66 v=0
113819 On ch=8 n=67 v=0
113820 On ch=8 n=67 v=48
113829 On ch=8 n=62 v=0
113880 On ch=8 n=62 v=48
113889 On ch=8 n=67 v=0
113940 On ch=8 n=67 v=48
113949 On ch=8 n=62 v=0
114000 On ch=8 n=62 v=48
114009 On ch=8 n=67 v=0
114060 On ch=8 n=67 v=48
114069 On ch=8 n=62 v=0
114119 On ch=8 n=67 v=0
114120 On ch=8 n=67 v=96
114120 On ch=8 n=62 v=48
114149 On ch=8 n=67 v=0
114150 On ch=8 n=67 v=48
114179 On ch=8 n=67 v=0
114180 On ch=8 n=67 v=48
114189 On ch=8 n=62 v=0
114240 On ch=8 n=62 v=48
114299 On ch=8 n=67 v=0
114300 On ch=8 n=67 v=48
114309 On ch=8 n=62 v=0
114360 On ch=8 n=62 v=48
114419 On ch=8 n=67 v=0
114420 On ch=8 n=67 v=48
114429 On ch=8 n=62 v=0
114480 On ch=8 n=65 v=48
114539 On ch=8 n=67 v=0
114540 On ch=8 n=69 v=48
114540 On ch=8 n=67 v=48
114549 On ch=8 n=65 v=0
114569 On ch=8 n=69 v=0
114600 On ch=8 n=71 v=48
114600 On ch=8 n=65 v=48
114609 On ch=8 n=67 v=0
114629 On ch=8 n=71 v=0
114660 On ch=8 n=72 v=48
114660 On ch=8 n=67 v=48
114669 On ch=8 n=65 v=0
114689 On ch=8 n=72 v=0
114720 On ch=8 n=74 v=48
114720 On ch=8 n=65 v=48
114729 On ch=8 n=67 v=0
114749 On ch=8 n=74 v=0
114780 On ch=8 n=76 v=48
114780 On ch=8 n=67 v=48
114789 On ch=8 n=65 v=0
114809 On ch=8 n=76 v=0
114839 On ch=8 n=67 v=0
114840 On ch=8 n=77 v=48
114840 On ch=8 n=65 v=48
114899 On ch=8 n=77 v=0
114900 On ch=8 n=67 v=48
114909 On ch=8 n=65 v=0
114960 On ch=8 n=86 v=48
114960 On ch=8 n=62 v=48
114969 On ch=8 n=67 v=0
115020 On ch=8 n=67 v=48
115029 On ch=8 n=62 v=0
115080 On ch=8 n=62 v=48
115089 On ch=8 n=67 v=0
115140 On ch=8 n=77 v=48
115140 On ch=8 n=67 v=48
115149 On ch=8 n=62 v=0
115149 On ch=8 n=86 v=0
115199 On ch=8 n=77 v=0
115199 On ch=8 n=67 v=0
115200 On ch=8 n=76 v=48
115200 On ch=8 n=64 v=48
115260 On ch=8 n=67 v=48
115269 On ch=8 n=64 v=0
115319 On ch=8 n=76 v=0
115320 On ch=8 n=64 v=48
115329 On ch=8 n=67 v=0
115380 On ch=8 n=67 v=48
115389 On ch=8 n=64 v=0
115440 On ch=8 n=64 v=48
115449 On ch=8 n=67 v=0
115500 On ch=8 n=67 v=48
115509 On ch=8 n=64 v=0
115559 On ch=8 n=67 v=0
115560 On ch=8 n=67 v=96
115560 On ch=8 n=64 v=48
115589 On ch=8 n=67 v=0
115590 On ch=8 n=67 v=48
115619 On ch=8 n=67 v=0
115620 On ch=8 n=67 v=48
115629 On ch=8 n=64 v=0
115680 On ch=8 n=64 v=48
115739 On ch=8 n=67 v=0
115740 On ch=8 n=67 v=48
115749 On ch=8 n=64 v=0
115800 On ch=8 n=64 v=48
115859 On ch=8 n=67 v=0
115860 On ch=8 n=67 v=48
115869 On ch=8 n=64 v=0
115920 On ch=8 n=64 v=48
115979 On ch=8 n=67 v=0
115980 On ch=8 n=71 v=48
115980 On ch=8 n=67 v=48
115989 On ch=8 n=64 v=0
116009 On ch=8 n=71 v=0
116040 On ch=8 n=72 v=48
116040 On ch=8 n=64 v=48
116049 On ch=8 n=67 v=0
116069 On ch=8 n=72 v=0
116100 On ch=8 n=74 v=48
116100 On ch=8 n=67 v=48
116109 On ch=8 n=64 v=0
116129 On ch=8 n=74 v=0
116160 On ch=8 n=76 v=48
116160 On ch=8 n=64 v=48
116169 On ch=8 n=67 v=0
116189 On ch=8 n=76 v=0
116220 On ch=8 n=77 v=48
116220 On ch=8 n=67 v=48
116229 On ch=8 n=64 v=0
116249 On ch=8 n=77 v=0
116279 On ch=8 n=67 v=0
116280 On ch=8 n=79 v=48
116280 On ch=8 n=64 v=48
116339 On ch=8 n=79 v=0
116340 On ch=8 n=67 v=48
116349 On ch=8 n=64 v=0
116400 On ch=8 n=84 v=48
116400 On ch=8 n=64 v=48
116409 On ch=8 n=67 v=0
116460 On ch=8 n=67 v=48
116469 On ch=8 n=64 v=0
116520 On ch=8 n=64 v=48
116529 On ch=8 n=67 v=0
116580 On ch=8 n=76 v=48
116580 On ch=8 n=67 v=48
116589 On ch=8 n=64 v=0
116589 On ch=8 n=84 v=0
116639 On ch=8 n=76 v=0
116639 On ch=8 n=67 v=0
116640 On ch=8 n=77 v=48
116640 On ch=8 n=65 v=48
116699 On ch=8 n=77 v=0
116700 On ch=8 n=67 v=48
116709 On ch=8 n=65 v=0
116760 On ch=8 n=79 v=48
116760 On ch=8 n=65 v=48
116769 On ch=8 n=67 v=0
116820 On ch=8 n=67 v=48
116829 On ch=8 n=65 v=0
116880 On ch=8 n=65 v=48
116889 On ch=8 n=67 v=0
116940 On ch=8 n=77 v=48
116940 On ch=8 n=67 v=48
116949 On ch=8 n=65 v=0
116949 On ch=8 n=79 v=0
116999 On ch=8 n=77 v=0
116999 On ch=8 n=67 v=0
117000 On ch=8 n=76 v=48
117000 On ch=8 n=65 v=48
117059 On ch=8 n=76 v=0
117060 On ch=8 n=67 v=48
117069 On ch=8 n=65 v=0
117120 On ch=8 n=77 v=48
117120 On ch=8 n=65 v=48
117129 On ch=8 n=67 v=0
117180 On ch=8 n=67 v=48
117189 On ch=8 n=65 v=0
117240 On ch=8 n=65 v=48
117249 On ch=8 n=67 v=0
117300 On ch=8 n=74 v=48
117300 On ch=8 n=67 v=48
117309 On ch=8 n=65 v=0
117309 On ch=8 n=77 v=0
117359 On ch=8 n=74 v=0
117359 On ch=8 n=67 v=0
117360 On ch=8 n=71 v=48
117360 On ch=8 n=65 v=48
117419 On ch=8 n=71 v=0
117420 On ch=8 n=67 v=48
117429 On ch=8 n=65 v=0
117480 On ch=8 n=74 v=48
117480 On ch=8 n=62 v=48
117489 On ch=8 n=67 v=0
117540 On ch=8 n=67 v=48
117549 On ch=8 n=62 v=0
117600 On ch=8 n=62 v=48
117609 On ch=8 n=67 v=0
117660 On ch=8 n=71 v=48
117660 On ch=8 n=67 v=48
117669 On ch=8 n=62 v=0
117669 On ch=8 n=74 v=0
117719 On ch=8 n=71 v=0
117719 On ch=8 n=67 v=0
117720 On ch=8 n=67 v=48
117720 On ch=8 n=62 v=48
117779 On ch=8 n=67 v=0
117780 On ch=8 n=67 v=48
117789 On ch=8 n=62 v=0
117840 On ch=8 n=74 v=48
117840 On ch=8 n=65 v=48
117849 On ch=8 n=67 v=0
117900 On ch=8 n=67 v=48
117909 On ch=8 n=65 v=0
117960 On ch=8 n=65 v=48
117969 On ch=8 n=67 v=0
118019 On ch=8 n=65 v=0
118020 On ch=8 n=65 v=48
118020 On ch=8 n=67 v=48
118029 On ch=8 n=74 v=0
118079 On ch=8 n=67 v=0
118079 On ch=8 n=65 v=0
118080 On ch=8 n=63 v=32
118110 On ch=8 n=67 v=32
118139 On ch=8 n=67 v=0
118140 On ch=8 n=67 v=32
118169 On ch=8 n=67 v=0
118170 On ch=8 n=67 v=32
118199 On ch=8 n=67 v=0
118199 On ch=8 n=63 v=0
118200 On ch=8 n=67 v=32
118229 On ch=8 n=67 v=0
118230 On ch=8 n=67 v=32
118259 On ch=8 n=67 v=0
118260 On ch=8 n=67 v=32
118289 On ch=8 n=67 v=0
118290 On ch=8 n=67 v=32
118319 On ch=8 n=67 v=0
118320 On ch=8 n=67 v=32
118349 On ch=8 n=67 v=0
118350 On ch=8 n=67 v=32
118379 On ch=8 n=67 v=0
118380 On ch=8 n=67 v=32
118409 On ch=8 n=67 v=0
118410 On ch=8 n=67 v=32
118439 On ch=8 n=67 v=0
118440 On ch=8 n=67 v=32
118469 On ch=8 n=67 v=0
118470 On ch=8 n=67 v=32
118499 On ch=8 n=67 v=0
118500 On ch=8 n=67 v=32
118529 On ch=8 n=67 v=0
118530 On ch=8 n=67 v=32
118559 On ch=8 n=67 v=0
118560 On ch=8 n=67 v=32
118589 On ch=8 n=67 v=0
118590 On ch=8 n=67 v=32
118619 On ch=8 n=67 v=0
118620 On ch=8 n=67 v=32
118649 On ch=8 n=67 v=0
118650 On ch=8 n=67 v=32
118679 On ch=8 n=67 v=0
118680 On ch=8 n=67 v=32
118709 On ch=8 n=67 v=0
118710 On ch=8 n=67 v=32
118739 On ch=8 n=67 v=0
118740 On ch=8 n=67 v=32
118769 On ch=8 n=67 v=0
118770 On ch=8 n=67 v=32
118799 On ch=8 n=67 v=0
118800 On ch=8 n=72 v=32
118800 On ch=8 n=67 v=32
118829 On ch=8 n=67 v=0
118830 On ch=8 n=67 v=32
118859 On ch=8 n=67 v=0
118860 On ch=8 n=67 v=32
118889 On ch=8 n=67 v=0
118890 On ch=8 n=67 v=32
118919 On ch=8 n=67 v=0
118920 On ch=8 n=75 v=32
118920 On ch=8 n=67 v=32
118929 On ch=8 n=72 v=0
118949 On ch=8 n=67 v=0
118950 On ch=8 n=67 v=32
118979 On ch=8 n=67 v=0
118980 On ch=8 n=67 v=32
119009 On ch=8 n=67 v=0
119010 On ch=8 n=67 v=32
119039 On ch=8 n=67 v=0
119040 On ch=8 n=79 v=32
119040 On ch=8 n=67 v=32
119049 On ch=8 n=75 v=0
119069 On ch=8 n=67 v=0
119070 On ch=8 n=67 v=32
119099 On ch=8 n=67 v=0
119100 On ch=8 n=67 v=32
119129 On ch=8 n=67 v=0
119130 On ch=8 n=67 v=32
119159 On ch=8 n=67 v=0
119159 On ch=8 n=79 v=0
119160 On ch=8 n=80 v=40
119160 On ch=8 n=68 v=34
119189 On ch=8 n=68 v=0
119190 On ch=8 n=68 v=35
119219 On ch=8 n=68 v=0
119220 On ch=8 n=68 v=36
119249 On ch=8 n=68 v=0
119250 On ch=8 n=68 v=37
119279 On ch=8 n=68 v=0
119280 On ch=8 n=68 v=39
119309 On ch=8 n=68 v=0
119310 On ch=8 n=68 v=40
119339 On ch=8 n=68 v=0
119340 On ch=8 n=68 v=41
119369 On ch=8 n=68 v=0
119370 On ch=8 n=68 v=42
119399 On ch=8 n=68 v=0
119400 On ch=8 n=68 v=44
119429 On ch=8 n=68 v=0
119430 On ch=8 n=68 v=45
119459 On ch=8 n=68 v=0
119460 On ch=8 n=68 v=46
119489 On ch=8 n=68 v=0
119490 On ch=8 n=68 v=47
119519 On ch=8 n=68 v=0
119520 On ch=8 n=68 v=48
119549 On ch=8 n=68 v=0
119550 On ch=8 n=68 v=48
119579 On ch=8 n=68 v=0
119580 On ch=8 n=68 v=48
119609 On ch=8 n=68 v=0
119610 On ch=8 n=68 v=48
119639 On ch=8 n=68 v=0
119639 On ch=8 n=80 v=0
119640 On ch=8 n=68 v=48
119669 On ch=8 n=68 v=0
119670 On ch=8 n=68 v=48
119699 On ch=8 n=68 v=0
119700 On ch=8 n=68 v=48
119729 On ch=8 n=68 v=0
119730 On ch=8 n=68 v=48
119759 On ch=8 n=68 v=0
119760 On ch=8 n=68 v=48
119789 On ch=8 n=68 v=0
119790 On ch=8 n=68 v=48
119819 On ch=8 n=68 v=0
119820 On ch=8 n=68 v=48
119849 On ch=8 n=68 v=0
119850 On ch=8 n=68 v=48
119879 On ch=8 n=68 v=0
119880 On ch=8 n=68 v=48
119909 On ch=8 n=68 v=0
119910 On ch=8 n=68 v=48
119939 On ch=8 n=68 v=0
119940 On ch=8 n=68 v=48
119969 On ch=8 n=68 v=0
119970 On ch=8 n=68 v=48
119999 On ch=8 n=68 v=0
120000 On ch=8 n=68 v=48
120029 On ch=8 n=68 v=0
120030 On ch=8 n=68 v=48
120059 On ch=8 n=68 v=0
120060 On ch=8 n=68 v=48
120089 On ch=8 n=68 v=0
120090 On ch=8 n=68 v=48
120119 On ch=8 n=68 v=0
120120 On ch=8 n=68 v=48
120149 On ch=8 n=68 v=0
120150 On ch=8 n=68 v=48
120179 On ch=8 n=68 v=0
120180 On ch=8 n=68 v=48
120209 On ch=8 n=68 v=0
120210 On ch=8 n=68 v=48
120239 On ch=8 n=68 v=0
120240 On ch=8 n=73 v=48
120240 On ch=8 n=68 v=48
120269 On ch=8 n=68 v=0
120270 On ch=8 n=68 v=48
120299 On ch=8 n=68 v=0
120300 On ch=8 n=68 v=48
120329 On ch=8 n=68 v=0
120330 On ch=8 n=68 v=48
120359 On ch=8 n=68 v=0
120360 On ch=8 n=76 v=48
120360 On ch=8 n=68 v=48
120369 On ch=8 n=73 v=0
120389 On ch=8 n=68 v=0
120390 On ch=8 n=68 v=48
120419 On ch=8 n=68 v=0
120420 On ch=8 n=68 v=48
120449 On ch=8 n=68 v=0
120450 On ch=8 n=68 v=48
120479 On ch=8 n=68 v=0
120480 On ch=8 n=80 v=48
120480 On ch=8 n=68 v=48
120489 On ch=8 n=76 v=0
120509 On ch=8 n=68 v=0
120510 On ch=8 n=68 v=48
120539 On ch=8 n=68 v=0
120540 On ch=8 n=68 v=48
120569 On ch=8 n=68 v=0
120570 On ch=8 n=68 v=48
120599 On ch=8 n=68 v=0
120599 On ch=8 n=80 v=0
120600 On ch=8 n=81 v=72
120600 On ch=8 n=69 v=49
120629 On ch=8 n=69 v=0
120630 On ch=8 n=69 v=56
120659 On ch=8 n=69 v=0
120660 On ch=8 n=69 v=63
120689 On ch=8 n=69 v=0
120690 On ch=8 n=69 v=69
120719 On ch=8 n=69 v=0
120720 On ch=8 n=69 v=76
120749 On ch=8 n=69 v=0
120750 On ch=8 n=69 v=83
120779 On ch=8 n=69 v=0
120780 On ch=8 n=69 v=89
120809 On ch=8 n=69 v=0
120810 On ch=8 n=69 v=95
120839 On ch=8 n=69 v=0
120840 On ch=8 n=69 v=102
120869 On ch=8 n=69 v=0
120870 On ch=8 n=69 v=109
120899 On ch=8 n=69 v=0
120900 On ch=8 n=69 v=115
120929 On ch=8 n=69 v=0
120930 On ch=8 n=69 v=121
120959 On ch=8 n=69 v=0
120960 On ch=8 n=69 v=127
121019 On ch=8 n=69 v=0
121019 On ch=8 n=81 v=0
121020 On ch=8 n=77 v=127
121020 On ch=8 n=81 v=127
121020 On ch=8 n=69 v=127
121050 On ch=8 n=79 v=127
121059 On ch=8 n=77 v=0
121079 On ch=8 n=79 v=0
121080 On ch=8 n=77 v=127
121109 On ch=8 n=77 v=0
121139 On ch=8 n=69 v=0
121139 On ch=8 n=81 v=0
121140 On ch=8 n=74 v=127
121140 On ch=8 n=69 v=127
121140 On ch=8 n=81 v=127
121170 On ch=8 n=75 v=127
121179 On ch=8 n=74 v=0
121199 On ch=8 n=75 v=0
121200 On ch=8 n=74 v=127
121229 On ch=8 n=74 v=0
121259 On ch=8 n=81 v=0
121259 On ch=8 n=69 v=0
121260 On ch=8 n=81 v=127
121260 On ch=8 n=69 v=127
121290 On ch=8 n=70 v=127
121319 On ch=8 n=70 v=0
121319 On ch=8 n=69 v=0
121320 On ch=8 n=69 v=127
121379 On ch=8 n=69 v=0
121379 On ch=8 n=81 v=0
121380 On ch=8 n=65 v=127
121380 On ch=8 n=69 v=127
121380 On ch=8 n=81 v=127
121410 On ch=8 n=67 v=127
121419 On ch=8 n=65 v=0
121439 On ch=8 n=67 v=0
121440 On ch=8 n=65 v=127
121469 On ch=8 n=65 v=0
121499 On ch=8 n=81 v=0
121499 On ch=8 n=69 v=0
121500 On ch=8 n=62 v=127
121500 On ch=8 n=81 v=127
121500 On ch=8 n=69 v=127
121530 On ch=8 n=65 v=127
121539 On ch=8 n=62 v=0
121559 On ch=8 n=65 v=0
121559 On ch=8 n=69 v=0
121560 On ch=8 n=69 v=127
121619 On ch=8 n=69 v=0
121619 On ch=8 n=81 v=0
121620 On ch=8 n=74 v=127
121620 On ch=8 n=69 v=127
121620 On ch=8 n=81 v=127
121650 On ch=8 n=77 v=127
121659 On ch=8 n=74 v=0
121679 On ch=8 n=69 v=0
121679 On ch=8 n=81 v=0
121679 On ch=8 n=77 v=0
121680 On ch=8 n=81 v=127
121680 On ch=8 n=69 v=127
121739 On ch=8 n=69 v=0
121739 On ch=8 n=81 v=0
121740 On ch=8 n=69 v=127
121740 On ch=8 n=81 v=127
121740 On ch=8 n=77 v=127
121770 On ch=8 n=79 v=127
121779 On ch=8 n=77 v=0
121799 On ch=8 n=79 v=0
121800 On ch=8 n=77 v=127
121829 On ch=8 n=77 v=0
121859 On ch=8 n=81 v=0
121859 On ch=8 n=69 v=0
121860 On ch=8 n=81 v=127
121860 On ch=8 n=69 v=127
121860 On ch=8 n=74 v=127
121890 On ch=8 n=75 v=127
121899 On ch=8 n=74 v=0
121919 On ch=8 n=75 v=0
121920 On ch=8 n=74 v=127
121949 On ch=8 n=74 v=0
121979 On ch=8 n=69 v=0
121979 On ch=8 n=81 v=0
121980 On ch=8 n=81 v=127
121980 On ch=8 n=69 v=127
122010 On ch=8 n=70 v=127
122039 On ch=8 n=70 v=0
122039 On ch=8 n=69 v=0
122040 On ch=8 n=69 v=127
122099 On ch=8 n=69 v=0
122099 On ch=8 n=81 v=0
122100 On ch=8 n=69 v=127
122100 On ch=8 n=81 v=127
122100 On ch=8 n=65 v=127
122130 On ch=8 n=67 v=127
122139 On ch=8 n=65 v=0
122159 On ch=8 n=67 v=0
122160 On ch=8 n=65 v=127
122189 On ch=8 n=65 v=0
122219 On ch=8 n=81 v=0
122219 On ch=8 n=69 v=0
122220 On ch=8 n=81 v=127
122220 On ch=8 n=69 v=127
122250 On ch=8 n=74 v=127
122279 On ch=8 n=74 v=0
122280 On ch=8 n=77 v=127
122309 On ch=8 n=77 v=0
122339 On ch=8 n=69 v=0
122339 On ch=8 n=81 v=0
122340 On ch=8 n=69 v=127
122340 On ch=8 n=81 v=127
122340 On ch=8 n=76 v=127
122370 On ch=8 n=74 v=127
122379 On ch=8 n=76 v=0
122399 On ch=8 n=74 v=0
122400 On ch=8 n=73 v=127
122429 On ch=8 n=73 v=0
122459 On ch=8 n=81 v=0
122459 On ch=8 n=69 v=0
122460 On ch=8 n=67 v=127
122460 On ch=8 n=81 v=127
122460 On ch=8 n=69 v=127
122489 On ch=8 n=69 v=0
122490 On ch=8 n=69 v=127
122499 On ch=8 n=67 v=0
122520 On ch=8 n=67 v=127
122549 On ch=8 n=67 v=0
122579 On ch=8 n=69 v=0
122579 On ch=8 n=81 v=0
122580 On ch=8 n=64 v=127
122580 On ch=8 n=69 v=127
122580 On ch=8 n=81 v=127
122610 On ch=8 n=65 v=127
122619 On ch=8 n=64 v=0
122639 On ch=8 n=65 v=0
122640 On ch=8 n=64 v=127
122669 On ch=8 n=64 v=0
122699 On ch=8 n=81 v=0
122699 On ch=8 n=69 v=0
122700 On ch=8 n=61 v=127
122700 On ch=8 n=81 v=127
122700 On ch=8 n=69 v=127
122730 On ch=8 n=62 v=127
122739 On ch=8 n=61 v=0
122759 On ch=8 n=62 v=0
122760 On ch=8 n=61 v=127
122789 On ch=8 n=61 v=0
122819 On ch=8 n=69 v=0
122819 On ch=8 n=81 v=0
122820 On ch=8 n=69 v=127
122820 On ch=8 n=57 v=127
122820 On ch=8 n=81 v=127
122850 On ch=8 n=58 v=127
122859 On ch=8 n=57 v=0
122879 On ch=8 n=58 v=0
122880 On ch=8 n=57 v=127
122909 On ch=8 n=57 v=0
122939 On ch=8 n=81 v=0
122939 On ch=8 n=69 v=0
122940 On ch=8 n=61 v=127
122940 On ch=8 n=81 v=127
122940 On ch=8 n=69 v=127
122970 On ch=8 n=64 v=127
122979 On ch=8 n=61 v=0
122999 On ch=8 n=64 v=0
123000 On ch=8 n=67 v=127
123029 On ch=8 n=67 v=0
123059 On ch=8 n=69 v=0
123059 On ch=8 n=81 v=0
123060 On ch=8 n=73 v=127
123060 On ch=8 n=69 v=127
123060 On ch=8 n=81 v=127
123090 On ch=8 n=76 v=127
123099 On ch=8 n=73 v=0
123119 On ch=8 n=76 v=0
123119 On ch=8 n=81 v=0
123120 On ch=8 n=81 v=127
123179 On ch=8 n=81 v=0
123179 On ch=8 n=69 v=0
123180 On ch=8 n=69 v=127
123180 On ch=8 n=81 v=127
123180 On ch=8 n=67 v=127
123209 On ch=8 n=69 v=0
123210 On ch=8 n=69 v=127
123219 On ch=8 n=67 v=0
123240 On ch=8 n=67 v=127
123269 On ch=8 n=67 v=0
123299 On ch=8 n=69 v=0
123299 On ch=8 n=81 v=0
123300 On ch=8 n=69 v=127
123300 On ch=8 n=81 v=127
123300 On ch=8 n=64 v=127
123330 On ch=8 n=65 v=127
123339 On ch=8 n=64 v=0
123359 On ch=8 n=65 v=0
123360 On ch=8 n=64 v=127
123389 On ch=8 n=64 v=0
123419 On ch=8 n=81 v=0
123419 On ch=8 n=69 v=0
123420 On ch=8 n=81 v=127
123420 On ch=8 n=69 v=127
123420 On ch=8 n=61 v=127
123450 On ch=8 n=62 v=127
123459 On ch=8 n=61 v=0
123479 On ch=8 n=62 v=0
123480 On ch=8 n=61 v=127
123509 On ch=8 n=61 v=0
123539 On ch=8 n=69 v=0
123539 On ch=8 n=81 v=0
123540 On ch=8 n=81 v=127
123540 On ch=8 n=69 v=127
123540 On ch=8 n=64 v=127
123569 On ch=8 n=69 v=0
123570 On ch=8 n=69 v=127
123579 On ch=8 n=64 v=0
123600 On ch=8 n=73 v=127
123629 On ch=8 n=73 v=0
123659 On ch=8 n=69 v=0
123659 On ch=8 n=81 v=0
123660 On ch=8 n=69 v=127
123660 On ch=8 n=81 v=127
123660 On ch=8 n=76 v=127
123690 On ch=8 n=74 v=127
123699 On ch=8 n=76 v=0
123719 On ch=8 n=74 v=0
123720 On ch=8 n=73 v=127
123749 On ch=8 n=73 v=0
123779 On ch=8 n=81 v=0
123779 On ch=8 n=69 v=0
123780 On ch=8 n=81 v=127
123780 On ch=8 n=69 v=127
123780 On ch=8 n=76 v=127
123810 On ch=8 n=73 v=127
123819 On ch=8 n=76 v=0
123839 On ch=8 n=81 v=0
123839 On ch=8 n=69 v=0
123839 On ch=8 n=73 v=0
123840 On ch=8 n=81 v=48
123840 On ch=8 n=69 v=48
123840 On ch=8 n=74 v=48
123869 On ch=8 n=74 v=0
123900 On ch=8 n=62 v=48
123930 On ch=8 n=63 v=48
123939 On ch=8 n=62 v=0
123959 On ch=8 n=63 v=0
123960 On ch=8 n=62 v=48
123989 On ch=8 n=62 v=0
124019 On ch=8 n=69 v=0
124019 On ch=8 n=81 v=0
124020 On ch=8 n=81 v=48
124049 On ch=8 n=81 v=0
124050 On ch=8 n=81 v=48
124079 On ch=8 n=81 v=0
124080 On ch=8 n=78 v=48
124109 On ch=8 n=78 v=0
124110 On ch=8 n=78 v=48
124139 On ch=8 n=78 v=0
124140 On ch=8 n=74 v=48
124169 On ch=8 n=74 v=0
124170 On ch=8 n=74 v=48
124199 On ch=8 n=74 v=0
124200 On ch=8 n=79 v=48
124260 On ch=8 n=62 v=48
124290 On ch=8 n=63 v=48
124299 On ch=8 n=62 v=0
124319 On ch=8 n=63 v=0
124320 On ch=8 n=62 v=48
124349 On ch=8 n=62 v=0
124379 On ch=8 n=79 v=0
124380 On ch=8 n=82 v=48
124409 On ch=8 n=82 v=0
124410 On ch=8 n=82 v=48
124439 On ch=8 n=82 v=0
124440 On ch=8 n=79 v=48
124469 On ch=8 n=79 v=0
124470 On ch=8 n=79 v=48
124499 On ch=8 n=79 v=0
124500 On ch=8 n=74 v=48
124529 On ch=8 n=74 v=0
124530 On ch=8 n=74 v=48
124559 On ch=8 n=74 v=0
124560 On ch=8 n=81 v=48
124589 On ch=8 n=81 v=0
124590 On ch=8 n=81 v=48
124619 On ch=8 n=81 v=0
124620 On ch=8 n=84 v=54
124620 On ch=8 n=62 v=54
124649 On ch=8 n=84 v=0
124650 On ch=8 n=84 v=54
124650 On ch=8 n=63 v=54
124659 On ch=8 n=62 v=0
124679 On ch=8 n=63 v=0
124679 On ch=8 n=84 v=0
124680 On ch=8 n=81 v=61
124680 On ch=8 n=62 v=61
124709 On ch=8 n=62 v=0
124709 On ch=8 n=81 v=0
124710 On ch=8 n=81 v=61
124739 On ch=8 n=81 v=0
124740 On ch=8 n=74 v=67
124740 On ch=8 n=62 v=67
124769 On ch=8 n=74 v=0
124770 On ch=8 n=74 v=67
124770 On ch=8 n=63 v=67
124779 On ch=8 n=62 v=0
124799 On ch=8 n=63 v=0
124799 On ch=8 n=74 v=0
124800 On ch=8 n=81 v=73
124800 On ch=8 n=62 v=74
124829 On ch=8 n=62 v=0
124829 On ch=8 n=81 v=0
124830 On ch=8 n=81 v=73
124859 On ch=8 n=81 v=0
124860 On ch=8 n=84 v=80
124860 On ch=8 n=62 v=80
124889 On ch=8 n=62 v=0
124889 On ch=8 n=84 v=0
124890 On ch=8 n=84 v=80
124890 On ch=8 n=63 v=87
124919 On ch=8 n=63 v=0
124919 On ch=8 n=84 v=0
124920 On ch=8 n=81 v=93
124920 On ch=8 n=62 v=93
124949 On ch=8 n=62 v=0
124949 On ch=8 n=81 v=0
124950 On ch=8 n=81 v=93
124979 On ch=8 n=81 v=0
124980 On ch=8 n=74 v=100
124980 On ch=8 n=62 v=94
125009 On ch=8 n=74 v=0
125010 On ch=8 n=74 v=100
125010 On ch=8 n=63 v=94
125019 On ch=8 n=62 v=0
125039 On ch=8 n=63 v=0
125039 On ch=8 n=74 v=0
125040 On ch=8 n=81 v=107
125040 On ch=8 n=62 v=101
125069 On ch=8 n=62 v=0
125069 On ch=8 n=81 v=0
125070 On ch=8 n=81 v=107
125099 On ch=8 n=81 v=0
125100 On ch=8 n=84 v=113
125100 On ch=8 n=62 v=107
125129 On ch=8 n=84 v=0
125130 On ch=8 n=84 v=113
125130 On ch=8 n=63 v=114
125139 On ch=8 n=62 v=0
125159 On ch=8 n=63 v=0
125159 On ch=8 n=84 v=0
125160 On ch=8 n=81 v=120
125160 On ch=8 n=62 v=120
125189 On ch=8 n=62 v=0
125189 On ch=8 n=81 v=0
125190 On ch=8 n=81 v=120
125219 On ch=8 n=81 v=0
125220 On ch=8 n=74 v=120
125220 On ch=8 n=62 v=120
125249 On ch=8 n=62 v=0
125249 On ch=8 n=74 v=0
125250 On ch=8 n=74 v=120
125279 On ch=8 n=74 v=0
125280 On ch=8 n=86 v=127
125280 On ch=8 n=70 v=127
125280 On ch=8 n=62 v=127
125309 On ch=8 n=86 v=0
125339 On ch=8 n=62 v=0
125339 On ch=8 n=70 v=0
125340 On ch=8 n=82 v=127
125340 On ch=8 n=74 v=127
125340 On ch=8 n=62 v=127
125370 On ch=8 n=84 v=127
125379 On ch=8 n=82 v=0
125399 On ch=8 n=84 v=0
125400 On ch=8 n=82 v=127
125429 On ch=8 n=82 v=0
125459 On ch=8 n=62 v=0
125459 On ch=8 n=74 v=0
125460 On ch=8 n=79 v=127
125460 On ch=8 n=62 v=127
125460 On ch=8 n=74 v=127
125490 On ch=8 n=81 v=127
125499 On ch=8 n=79 v=0
125519 On ch=8 n=81 v=0
125520 On ch=8 n=79 v=127
125549 On ch=8 n=79 v=0
125579 On ch=8 n=74 v=0
125579 On ch=8 n=62 v=0
125580 On ch=8 n=74 v=127
125580 On ch=8 n=62 v=127
125610 On ch=8 n=75 v=127
125639 On ch=8 n=75 v=0
125639 On ch=8 n=74 v=0
125640 On ch=8 n=74 v=127
125699 On ch=8 n=74 v=0
125699 On ch=8 n=62 v=0
125700 On ch=8 n=70 v=127
125700 On ch=8 n=62 v=127
125700 On ch=8 n=74 v=127
125730 On ch=8 n=72 v=127
125739 On ch=8 n=70 v=0
125759 On ch=8 n=72 v=0
125760 On ch=8 n=70 v=127
125789 On ch=8 n=70 v=0
125819 On ch=8 n=74 v=0
125819 On ch=8 n=62 v=0
125820 On ch=8 n=67 v=127
125820 On ch=8 n=62 v=127
125820 On ch=8 n=74 v=127
125850 On ch=8 n=70 v=127
125859 On ch=8 n=67 v=0
125879 On ch=8 n=70 v=0
125879 On ch=8 n=74 v=0
125880 On ch=8 n=74 v=127
125939 On ch=8 n=74 v=0
125939 On ch=8 n=62 v=0
125940 On ch=8 n=79 v=127
125940 On ch=8 n=74 v=127
125940 On ch=8 n=62 v=127
125970 On ch=8 n=82 v=127
125979 On ch=8 n=79 v=0
125999 On ch=8 n=74 v=0
125999 On ch=8 n=62 v=0
125999 On ch=8 n=82 v=0
126000 On ch=8 n=74 v=127
126000 On ch=8 n=86 v=127
126059 On ch=8 n=86 v=0
126059 On ch=8 n=74 v=0
126060 On ch=8 n=74 v=127
126060 On ch=8 n=86 v=127
126060 On ch=8 n=70 v=127
126090 On ch=8 n=72 v=127
126099 On ch=8 n=70 v=0
126119 On ch=8 n=72 v=0
126120 On ch=8 n=70 v=127
126149 On ch=8 n=70 v=0
126179 On ch=8 n=86 v=0
126179 On ch=8 n=74 v=0
126180 On ch=8 n=86 v=127
126180 On ch=8 n=74 v=127
126180 On ch=8 n=67 v=127
126210 On ch=8 n=69 v=127
126219 On ch=8 n=67 v=0
126239 On ch=8 n=69 v=0
126240 On ch=8 n=67 v=127
126269 On ch=8 n=67 v=0
126299 On ch=8 n=74 v=0
126299 On ch=8 n=86 v=0
126300 On ch=8 n=74 v=127
126300 On ch=8 n=86 v=127
126300 On ch=8 n=62 v=127
126330 On ch=8 n=63 v=127
126339 On ch=8 n=62 v=0
126359 On ch=8 n=63 v=0
126360 On ch=8 n=62 v=127
126389 On ch=8 n=62 v=0
126419 On ch=8 n=86 v=0
126419 On ch=8 n=74 v=0
126420 On ch=8 n=86 v=127
126420 On ch=8 n=74 v=127
126420 On ch=8 n=58 v=127
126450 On ch=8 n=60 v=127
126459 On ch=8 n=58 v=0
126479 On ch=8 n=60 v=0
126480 On ch=8 n=58 v=127
126509 On ch=8 n=58 v=0
126539 On ch=8 n=74 v=0
126539 On ch=8 n=86 v=0
126540 On ch=8 n=74 v=127
126540 On ch=8 n=86 v=127
126540 On ch=8 n=67 v=127
126570 On ch=8 n=69 v=127
126579 On ch=8 n=67 v=0
126599 On ch=8 n=69 v=0
126600 On ch=8 n=70 v=127
126629 On ch=8 n=70 v=0
126659 On ch=8 n=86 v=0
126659 On ch=8 n=74 v=0
126660 On ch=8 n=86 v=127
126660 On ch=8 n=74 v=127
126660 On ch=8 n=69 v=127
126690 On ch=8 n=67 v=127
126699 On ch=8 n=69 v=0
126719 On ch=8 n=67 v=0
126720 On ch=8 n=66 v=127
126749 On ch=8 n=66 v=0
126779 On ch=8 n=74 v=0
126779 On ch=8 n=86 v=0
126780 On ch=8 n=84 v=127
126780 On ch=8 n=74 v=127
126780 On ch=8 n=62 v=127
126810 On ch=8 n=86 v=127
126819 On ch=8 n=84 v=0
126839 On ch=8 n=86 v=0
126840 On ch=8 n=84 v=127
126869 On ch=8 n=84 v=0
126899 On ch=8 n=62 v=0
126899 On ch=8 n=74 v=0
126900 On ch=8 n=81 v=127
126900 On ch=8 n=62 v=127
126900 On ch=8 n=74 v=127
126930 On ch=8 n=82 v=127
126939 On ch=8 n=81 v=0
126959 On ch=8 n=82 v=0
126960 On ch=8 n=81 v=127
126989 On ch=8 n=81 v=0
127019 On ch=8 n=74 v=0
127019 On ch=8 n=62 v=0
127020 On ch=8 n=78 v=127
127020 On ch=8 n=74 v=127
127020 On ch=8 n=62 v=127
127050 On ch=8 n=79 v=127
127059 On ch=8 n=78 v=0
127079 On ch=8 n=79 v=0
127080 On ch=8 n=78 v=127
127109 On ch=8 n=78 v=0
127139 On ch=8 n=62 v=0
127139 On ch=8 n=74 v=0
127140 On ch=8 n=62 v=127
127140 On ch=8 n=74 v=127
127170 On ch=8 n=63 v=127
127199 On ch=8 n=63 v=0
127199 On ch=8 n=62 v=0
127200 On ch=8 n=62 v=127
127259 On ch=8 n=62 v=0
127259 On ch=8 n=74 v=0
127260 On ch=8 n=66 v=127
127260 On ch=8 n=74 v=127
127260 On ch=8 n=62 v=127
127290 On ch=8 n=69 v=127
127299 On ch=8 n=66 v=0
127319 On ch=8 n=74 v=0
127319 On ch=8 n=69 v=0
127320 On ch=8 n=74 v=127
127379 On ch=8 n=74 v=0
127379 On ch=8 n=62 v=0
127380 On ch=8 n=78 v=127
127380 On ch=8 n=62 v=127
127380 On ch=8 n=74 v=127
127410 On ch=8 n=81 v=127
127419 On ch=8 n=78 v=0
127439 On ch=8 n=81 v=0
127439 On ch=8 n=74 v=0
127440 On ch=8 n=74 v=127
127440 On ch=8 n=86 v=127
127440 On ch=8 n=72 v=127
127499 On ch=8 n=72 v=0
127499 On ch=8 n=62 v=0
127499 On ch=8 n=74 v=0
127499 On ch=8 n=86 v=0
127500 On ch=8 n=86 v=127
127500 On ch=8 n=74 v=127
127500 On ch=8 n=72 v=127
127529 On ch=8 n=74 v=0
127530 On ch=8 n=74 v=127
127539 On ch=8 n=72 v=0
127560 On ch=8 n=72 v=127
127589 On ch=8 n=72 v=0
127619 On ch=8 n=74 v=0
127619 On ch=8 n=86 v=0
127620 On ch=8 n=74 v=127
127620 On ch=8 n=86 v=127
127620 On ch=8 n=69 v=127
127650 On ch=8 n=70 v=127
127659 On ch=8 n=69 v=0
127679 On ch=8 n=70 v=0
127680 On ch=8 n=69 v=127
127709 On ch=8 n=69 v=0
127739 On ch=8 n=86 v=0
127739 On ch=8 n=74 v=0
127740 On ch=8 n=86 v=127
127740 On ch=8 n=74 v=127
127740 On ch=8 n=66 v=127
127770 On ch=8 n=67 v=127
127779 On ch=8 n=66 v=0
127799 On ch=8 n=67 v=0
127800 On ch=8 n=66 v=127
127829 On ch=8 n=66 v=0
127859 On ch=8 n=74 v=0
127859 On ch=8 n=86 v=0
127860 On ch=8 n=86 v=127
127860 On ch=8 n=74 v=127
127860 On ch=8 n=69 v=127
127890 On ch=8 n=67 v=127
127899 On ch=8 n=69 v=0
127919 On ch=8 n=67 v=0
127920 On ch=8 n=66 v=127
127949 On ch=8 n=66 v=0
127979 On ch=8 n=74 v=0
127979 On ch=8 n=86 v=0
127980 On ch=8 n=74 v=127
127980 On ch=8 n=86 v=127
127980 On ch=8 n=69 v=127
128009 On ch=8 n=74 v=0
128010 On ch=8 n=74 v=127
128019 On ch=8 n=69 v=0
128040 On ch=8 n=78 v=127
128069 On ch=8 n=78 v=0
128099 On ch=8 n=74 v=0
128099 On ch=8 n=86 v=0
128100 On ch=8 n=74 v=127
128100 On ch=8 n=86 v=127
128100 On ch=8 n=81 v=127
128130 On ch=8 n=78 v=127
128139 On ch=8 n=81 v=0
128159 On ch=8 n=74 v=0
128159 On ch=8 n=86 v=0
128159 On ch=8 n=78 v=0
128160 On ch=8 n=74 v=48
128160 On ch=8 n=86 v=48
128160 On ch=8 n=79 v=48
128219 On ch=8 n=79 v=0
128220 On ch=8 n=55 v=48
128250 On ch=8 n=56 v=48
128259 On ch=8 n=55 v=0
128279 On ch=8 n=56 v=0
128280 On ch=8 n=55 v=48
128309 On ch=8 n=55 v=0
128339 On ch=8 n=86 v=0
128339 On ch=8 n=74 v=0
128340 On ch=8 n=74 v=48
128369 On ch=8 n=74 v=0
128370 On ch=8 n=74 v=48
128399 On ch=8 n=74 v=0
128400 On ch=8 n=71 v=48
128429 On ch=8 n=71 v=0
128430 On ch=8 n=71 v=48
128459 On ch=8 n=71 v=0
128460 On ch=8 n=67 v=48
128489 On ch=8 n=67 v=0
128490 On ch=8 n=67 v=48
128519 On ch=8 n=67 v=0
128520 On ch=8 n=72 v=48
128580 On ch=8 n=55 v=48
128610 On ch=8 n=56 v=48
128619 On ch=8 n=55 v=0
128639 On ch=8 n=56 v=0
128640 On ch=8 n=55 v=48
128669 On ch=8 n=55 v=0
128699 On ch=8 n=72 v=0
128700 On ch=8 n=75 v=48
128729 On ch=8 n=75 v=0
128730 On ch=8 n=75 v=48
128759 On ch=8 n=75 v=0
128760 On ch=8 n=72 v=48
128789 On ch=8 n=72 v=0
128790 On ch=8 n=72 v=48
128819 On ch=8 n=72 v=0
128820 On ch=8 n=67 v=48
128849 On ch=8 n=67 v=0
128850 On ch=8 n=67 v=48
128879 On ch=8 n=67 v=0
128880 On ch=8 n=74 v=48
128909 On ch=8 n=74 v=0
128910 On ch=8 n=74 v=48
128939 On ch=8 n=74 v=0
128940 On ch=8 n=77 v=54
128940 On ch=8 n=55 v=54
128969 On ch=8 n=77 v=0
128970 On ch=8 n=77 v=54
128970 On ch=8 n=56 v=54
128979 On ch=8 n=55 v=0
128999 On ch=8 n=56 v=0
128999 On ch=8 n=77 v=0
129000 On ch=8 n=74 v=61
129000 On ch=8 n=55 v=61
129029 On ch=8 n=55 v=0
129029 On ch=8 n=74 v=0
129030 On ch=8 n=74 v=61
129059 On ch=8 n=74 v=0
129060 On ch=8 n=67 v=67
129060 On ch=8 n=55 v=67
129089 On ch=8 n=67 v=0
129090 On ch=8 n=67 v=67
129090 On ch=8 n=56 v=67
129099 On ch=8 n=55 v=0
129119 On ch=8 n=56 v=0
129119 On ch=8 n=67 v=0
129120 On ch=8 n=74 v=67
129120 On ch=8 n=55 v=67
129149 On ch=8 n=55 v=0
129149 On ch=8 n=74 v=0
129150 On ch=8 n=74 v=67
129179 On ch=8 n=74 v=0
129180 On ch=8 n=77 v=73
129180 On ch=8 n=55 v=73
129209 On ch=8 n=77 v=0
129210 On ch=8 n=77 v=73
129210 On ch=8 n=56 v=73
129219 On ch=8 n=55 v=0
129239 On ch=8 n=56 v=0
129239 On ch=8 n=77 v=0
129240 On ch=8 n=74 v=80
129240 On ch=8 n=55 v=79
129269 On ch=8 n=55 v=0
129269 On ch=8 n=74 v=0
129270 On ch=8 n=74 v=80
129299 On ch=8 n=74 v=0
129300 On ch=8 n=67 v=86
129300 On ch=8 n=55 v=86
129329 On ch=8 n=67 v=0
129330 On ch=8 n=67 v=86
129330 On ch=8 n=56 v=86
129339 On ch=8 n=55 v=0
129359 On ch=8 n=56 v=0
129359 On ch=8 n=67 v=0
129360 On ch=8 n=74 v=92
129360 On ch=8 n=55 v=92
129389 On ch=8 n=55 v=0
129389 On ch=8 n=74 v=0
129390 On ch=8 n=74 v=92
129419 On ch=8 n=74 v=0
129420 On ch=8 n=77 v=99
129420 On ch=8 n=55 v=100
129449 On ch=8 n=77 v=0
129450 On ch=8 n=77 v=99
129450 On ch=8 n=56 v=100
129459 On ch=8 n=55 v=0
129479 On ch=8 n=56 v=0
129479 On ch=8 n=77 v=0
129480 On ch=8 n=74 v=107
129480 On ch=8 n=55 v=107
129509 On ch=8 n=55 v=0
129509 On ch=8 n=74 v=0
129510 On ch=8 n=74 v=107
129539 On ch=8 n=74 v=0
129540 On ch=8 n=67 v=114
129569 On ch=8 n=67 v=0
129570 On ch=8 n=67 v=114
129599 On ch=8 n=67 v=0
129600 On ch=8 n=76 v=48
129660 On ch=8 n=60 v=48
129690 On ch=8 n=61 v=48
129699 On ch=8 n=60 v=0
129719 On ch=8 n=61 v=0
129720 On ch=8 n=60 v=48
129749 On ch=8 n=60 v=0
129779 On ch=8 n=76 v=0
129780 On ch=8 n=79 v=48
129809 On ch=8 n=79 v=0
129810 On ch=8 n=79 v=48
129839 On ch=8 n=79 v=0
129840 On ch=8 n=76 v=48
129869 On ch=8 n=76 v=0
129870 On ch=8 n=76 v=48
129899 On ch=8 n=76 v=0
129900 On ch=8 n=72 v=48
129929 On ch=8 n=72 v=0
129930 On ch=8 n=72 v=48
129959 On ch=8 n=72 v=0
129960 On ch=8 n=77 v=48
130020 On ch=8 n=60 v=48
130050 On ch=8 n=61 v=48
130059 On ch=8 n=60 v=0
130079 On ch=8 n=61 v=0
130080 On ch=8 n=60 v=48
130109 On ch=8 n=60 v=0
130139 On ch=8 n=77 v=0
130140 On ch=8 n=80 v=48
130169 On ch=8 n=80 v=0
130170 On ch=8 n=80 v=48
130199 On ch=8 n=80 v=0
130200 On ch=8 n=77 v=48
130229 On ch=8 n=77 v=0
130230 On ch=8 n=77 v=48
130259 On ch=8 n=77 v=0
130260 On ch=8 n=72 v=48
130289 On ch=8 n=72 v=0
130290 On ch=8 n=72 v=48
130319 On ch=8 n=72 v=0
130320 On ch=8 n=79 v=48
130349 On ch=8 n=79 v=0
130350 On ch=8 n=79 v=48
130379 On ch=8 n=79 v=0
130380 On ch=8 n=82 v=52
130380 On ch=8 n=60 v=54
130409 On ch=8 n=82 v=0
130410 On ch=8 n=82 v=52
130410 On ch=8 n=61 v=54
130419 On ch=8 n=60 v=0
130439 On ch=8 n=61 v=0
130439 On ch=8 n=82 v=0
130440 On ch=8 n=79 v=58
130440 On ch=8 n=60 v=58
130469 On ch=8 n=60 v=0
130469 On ch=8 n=79 v=0
130470 On ch=8 n=79 v=58
130499 On ch=8 n=79 v=0
130500 On ch=8 n=72 v=65
130500 On ch=8 n=60 v=65
130529 On ch=8 n=72 v=0
130530 On ch=8 n=72 v=65
130530 On ch=8 n=61 v=65
130539 On ch=8 n=60 v=0
130559 On ch=8 n=61 v=0
130559 On ch=8 n=72 v=0
130560 On ch=8 n=79 v=69
130560 On ch=8 n=60 v=69
130589 On ch=8 n=60 v=0
130589 On ch=8 n=79 v=0
130590 On ch=8 n=79 v=69
130619 On ch=8 n=79 v=0
130620 On ch=8 n=82 v=72
130620 On ch=8 n=60 v=72
130649 On ch=8 n=82 v=0
130650 On ch=8 n=82 v=72
130650 On ch=8 n=61 v=72
130659 On ch=8 n=60 v=0
130679 On ch=8 n=61 v=0
130679 On ch=8 n=82 v=0
130680 On ch=8 n=79 v=75
130680 On ch=8 n=60 v=75
130709 On ch=8 n=60 v=0
130709 On ch=8 n=79 v=0
130710 On ch=8 n=79 v=75
130739 On ch=8 n=79 v=0
130740 On ch=8 n=72 v=79
130740 On ch=8 n=60 v=79
130769 On ch=8 n=72 v=0
130770 On ch=8 n=72 v=79
130770 On ch=8 n=61 v=82
130779 On ch=8 n=60 v=0
130799 On ch=8 n=61 v=0
130799 On ch=8 n=72 v=0
130800 On ch=8 n=79 v=85
130800 On ch=8 n=60 v=85
130829 On ch=8 n=60 v=0
130829 On ch=8 n=79 v=0
130830 On ch=8 n=79 v=85
130859 On ch=8 n=79 v=0
130860 On ch=8 n=82 v=89
130860 On ch=8 n=60 v=89
130889 On ch=8 n=82 v=0
130890 On ch=8 n=82 v=89
130890 On ch=8 n=61 v=89
130899 On ch=8 n=60 v=0
130919 On ch=8 n=61 v=0
130919 On ch=8 n=82 v=0
130920 On ch=8 n=79 v=92
130920 On ch=8 n=60 v=93
130949 On ch=8 n=60 v=0
130949 On ch=8 n=79 v=0
130950 On ch=8 n=79 v=92
130979 On ch=8 n=79 v=0
130980 On ch=8 n=72 v=94
131009 On ch=8 n=72 v=0
131010 On ch=8 n=72 v=94
131039 On ch=8 n=72 v=0
131040 On ch=8 n=81 v=96
131069 On ch=8 n=81 v=0
131070 On ch=8 n=81 v=96
131099 On ch=8 n=81 v=0
131100 On ch=8 n=84 v=96
131100 On ch=8 n=65 v=96
131129 On ch=8 n=84 v=0
131130 On ch=8 n=84 v=96
131130 On ch=8 n=66 v=96
131139 On ch=8 n=65 v=0
131159 On ch=8 n=66 v=0
131159 On ch=8 n=84 v=0
131160 On ch=8 n=81 v=96
131160 On ch=8 n=65 v=96
131189 On ch=8 n=65 v=0
131189 On ch=8 n=81 v=0
131190 On ch=8 n=81 v=96
131219 On ch=8 n=81 v=0
131220 On ch=8 n=77 v=96
131249 On ch=8 n=77 v=0
131250 On ch=8 n=77 v=96
131279 On ch=8 n=77 v=0
131280 On ch=8 n=81 v=96
131309 On ch=8 n=81 v=0
131310 On ch=8 n=81 v=96
131339 On ch=8 n=81 v=0
131340 On ch=8 n=84 v=96
131369 On ch=8 n=84 v=0
131370 On ch=8 n=84 v=96
131399 On ch=8 n=84 v=0
131400 On ch=8 n=82 v=96
131429 On ch=8 n=82 v=0
131430 On ch=8 n=82 v=96
131459 On ch=8 n=82 v=0
131460 On ch=8 n=85 v=96
131460 On ch=8 n=70 v=96
131489 On ch=8 n=85 v=0
131490 On ch=8 n=85 v=96
131490 On ch=8 n=72 v=96
131499 On ch=8 n=70 v=0
131519 On ch=8 n=72 v=0
131519 On ch=8 n=85 v=0
131520 On ch=8 n=82 v=96
131520 On ch=8 n=70 v=96
131549 On ch=8 n=70 v=0
131549 On ch=8 n=82 v=0
131550 On ch=8 n=82 v=96
131579 On ch=8 n=82 v=0
131580 On ch=8 n=77 v=96
131609 On ch=8 n=77 v=0
131610 On ch=8 n=77 v=96
131639 On ch=8 n=77 v=0
131640 On ch=8 n=82 v=96
131669 On ch=8 n=82 v=0
131670 On ch=8 n=82 v=96
131699 On ch=8 n=82 v=0
131700 On ch=8 n=85 v=96
131729 On ch=8 n=85 v=0
131730 On ch=8 n=85 v=96
131759 On ch=8 n=85 v=0
131760 On ch=8 n=79 v=96
131789 On ch=8 n=79 v=0
131790 On ch=8 n=79 v=96
131819 On ch=8 n=79 v=0
131820 On ch=8 n=82 v=96
131820 On ch=8 n=63 v=96
131849 On ch=8 n=82 v=0
131850 On ch=8 n=82 v=96
131850 On ch=8 n=65 v=96
131859 On ch=8 n=63 v=0
131879 On ch=8 n=65 v=0
131879 On ch=8 n=82 v=0
131880 On ch=8 n=79 v=96
131880 On ch=8 n=63 v=96
131909 On ch=8 n=63 v=0
131909 On ch=8 n=79 v=0
131910 On ch=8 n=79 v=96
131939 On ch=8 n=79 v=0
131940 On ch=8 n=75 v=96
131969 On ch=8 n=75 v=0
131970 On ch=8 n=75 v=96
131999 On ch=8 n=75 v=0
132000 On ch=8 n=79 v=96
132029 On ch=8 n=79 v=0
132030 On ch=8 n=79 v=96
132059 On ch=8 n=79 v=0
132060 On ch=8 n=82 v=96
132089 On ch=8 n=82 v=0
132090 On ch=8 n=82 v=96
132119 On ch=8 n=82 v=0
132120 On ch=8 n=80 v=96
132149 On ch=8 n=80 v=0
132150 On ch=8 n=80 v=96
132179 On ch=8 n=80 v=0
132180 On ch=8 n=84 v=96
132180 On ch=8 n=68 v=96
132209 On ch=8 n=84 v=0
132210 On ch=8 n=84 v=96
132210 On ch=8 n=70 v=96
132219 On ch=8 n=68 v=0
132239 On ch=8 n=70 v=0
132239 On ch=8 n=84 v=0
132240 On ch=8 n=80 v=96
132240 On ch=8 n=68 v=96
132269 On ch=8 n=68 v=0
132269 On ch=8 n=80 v=0
132270 On ch=8 n=80 v=96
132299 On ch=8 n=80 v=0
132300 On ch=8 n=75 v=96
132329 On ch=8 n=75 v=0
132330 On ch=8 n=75 v=96
132359 On ch=8 n=75 v=0
132360 On ch=8 n=80 v=96
132389 On ch=8 n=80 v=0
132390 On ch=8 n=80 v=96
132419 On ch=8 n=80 v=0
132420 On ch=8 n=84 v=96
132449 On ch=8 n=84 v=0
132450 On ch=8 n=84 v=96
132479 On ch=8 n=84 v=0
132480 On ch=8 n=80 v=127
132480 On ch=8 n=68 v=127
132509 On ch=8 n=68 v=0
132509 On ch=8 n=80 v=0
132510 On ch=8 n=85 v=127
132510 On ch=8 n=68 v=127
132539 On ch=8 n=68 v=0
132539 On ch=8 n=85 v=0
132540 On ch=8 n=85 v=127
132540 On ch=8 n=68 v=127
132569 On ch=8 n=68 v=0
132569 On ch=8 n=85 v=0
132570 On ch=8 n=85 v=127
132570 On ch=8 n=68 v=127
132599 On ch=8 n=68 v=0
132599 On ch=8 n=85 v=0
132600 On ch=8 n=85 v=127
132600 On ch=8 n=68 v=127
132629 On ch=8 n=68 v=0
132629 On ch=8 n=85 v=0
132630 On ch=8 n=85 v=127
132630 On ch=8 n=68 v=127
132659 On ch=8 n=68 v=0
132659 On ch=8 n=85 v=0
132660 On ch=8 n=85 v=127
132660 On ch=8 n=68 v=127
132689 On ch=8 n=68 v=0
132689 On ch=8 n=85 v=0
132690 On ch=8 n=85 v=127
132690 On ch=8 n=68 v=127
132719 On ch=8 n=68 v=0
132719 On ch=8 n=85 v=0
132720 On ch=8 n=85 v=127
132720 On ch=8 n=68 v=127
132749 On ch=8 n=68 v=0
132749 On ch=8 n=85 v=0
132750 On ch=8 n=85 v=127
132750 On ch=8 n=68 v=127
132779 On ch=8 n=68 v=0
132779 On ch=8 n=85 v=0
132780 On ch=8 n=85 v=127
132780 On ch=8 n=68 v=127
132809 On ch=8 n=68 v=0
132809 On ch=8 n=85 v=0
132810 On ch=8 n=85 v=127
132810 On ch=8 n=68 v=127
132839 On ch=8 n=68 v=0
132839 On ch=8 n=85 v=0
132840 On ch=8 n=86 v=127
132840 On ch=8 n=70 v=127
132840 On ch=8 n=68 v=127
132869 On ch=8 n=68 v=0
132869 On ch=8 n=70 v=0
132869 On ch=8 n=86 v=0
132870 On ch=8 n=86 v=127
132870 On ch=8 n=70 v=127
132870 On ch=8 n=68 v=127
132899 On ch=8 n=68 v=0
132899 On ch=8 n=70 v=0
132899 On ch=8 n=86 v=0
132900 On ch=8 n=86 v=127
132900 On ch=8 n=70 v=127
132900 On ch=8 n=68 v=127
132929 On ch=8 n=68 v=0
132929 On ch=8 n=70 v=0
132929 On ch=8 n=86 v=0
132930 On ch=8 n=86 v=127
132930 On ch=8 n=70 v=127
132930 On ch=8 n=68 v=127
132959 On ch=8 n=68 v=0
132959 On ch=8 n=70 v=0
132959 On ch=8 n=86 v=0
132960 On ch=8 n=86 v=127
132960 On ch=8 n=70 v=127
132960 On ch=8 n=68 v=127
132989 On ch=8 n=68 v=0
132989 On ch=8 n=70 v=0
132989 On ch=8 n=86 v=0
132990 On ch=8 n=86 v=127
132990 On ch=8 n=70 v=127
132990 On ch=8 n=68 v=127
133019 On ch=8 n=68 v=0
133019 On ch=8 n=70 v=0
133019 On ch=8 n=86 v=0
133020 On ch=8 n=86 v=127
133020 On ch=8 n=70 v=127
133020 On ch=8 n=68 v=127
133049 On ch=8 n=68 v=0
133049 On ch=8 n=70 v=0
133049 On ch=8 n=86 v=0
133050 On ch=8 n=86 v=127
133050 On ch=8 n=70 v=127
133050 On ch=8 n=68 v=127
133079 On ch=8 n=68 v=0
133079 On ch=8 n=70 v=0
133079 On ch=8 n=86 v=0
133080 On ch=8 n=86 v=127
133080 On ch=8 n=70 v=127
133080 On ch=8 n=68 v=127
133109 On ch=8 n=68 v=0
133109 On ch=8 n=70 v=0
133109 On ch=8 n=86 v=0
133110 On ch=8 n=86 v=127
133110 On ch=8 n=70 v=127
133110 On ch=8 n=68 v=127
133139 On ch=8 n=68 v=0
133139 On ch=8 n=70 v=0
133139 On ch=8 n=86 v=0
133140 On ch=8 n=86 v=127
133140 On ch=8 n=70 v=127
133140 On ch=8 n=68 v=127
133169 On ch=8 n=68 v=0
133169 On ch=8 n=70 v=0
133169 On ch=8 n=86 v=0
133170 On ch=8 n=86 v=127
133170 On ch=8 n=70 v=127
133170 On ch=8 n=68 v=127
133199 On ch=8 n=68 v=0
133199 On ch=8 n=70 v=0
133199 On ch=8 n=86 v=0
133200 On ch=8 n=87 v=127
133200 On ch=8 n=70 v=127
133200 On ch=8 n=67 v=127
133229 On ch=8 n=67 v=0
133229 On ch=8 n=70 v=0
133260 On ch=8 n=63 v=48
133319 On ch=8 n=87 v=0
133320 On ch=8 n=58 v=48
133329 On ch=8 n=63 v=0
133380 On ch=8 n=63 v=48
133389 On ch=8 n=58 v=0
133440 On ch=8 n=58 v=48
133449 On ch=8 n=63 v=0
133500 On ch=8 n=63 v=48
133509 On ch=8 n=58 v=0
133559 On ch=8 n=63 v=0
133560 On ch=8 n=63 v=96
133560 On ch=8 n=58 v=48
133589 On ch=8 n=63 v=0
133590 On ch=8 n=63 v=48
133619 On ch=8 n=63 v=0
133620 On ch=8 n=63 v=48
133629 On ch=8 n=58 v=0
133680 On ch=8 n=58 v=48
133739 On ch=8 n=63 v=0
133740 On ch=8 n=63 v=48
133749 On ch=8 n=58 v=0
133800 On ch=8 n=58 v=48
133859 On ch=8 n=63 v=0
133860 On ch=8 n=63 v=48
133869 On ch=8 n=58 v=0
133920 On ch=8 n=58 v=48
133979 On ch=8 n=63 v=0
133980 On ch=8 n=67 v=48
133980 On ch=8 n=63 v=48
133989 On ch=8 n=58 v=0
134009 On ch=8 n=67 v=0
134040 On ch=8 n=68 v=48
134040 On ch=8 n=58 v=48
134049 On ch=8 n=63 v=0
134069 On ch=8 n=68 v=0
134100 On ch=8 n=70 v=48
134100 On ch=8 n=63 v=48
134109 On ch=8 n=58 v=0
134129 On ch=8 n=70 v=0
134160 On ch=8 n=72 v=48
134160 On ch=8 n=58 v=48
134169 On ch=8 n=63 v=0
134189 On ch=8 n=72 v=0
134220 On ch=8 n=73 v=48
134220 On ch=8 n=63 v=48
134229 On ch=8 n=58 v=0
134249 On ch=8 n=73 v=0
134279 On ch=8 n=63 v=0
134280 On ch=8 n=75 v=48
134280 On ch=8 n=58 v=48
134339 On ch=8 n=75 v=0
134340 On ch=8 n=63 v=48
134349 On ch=8 n=58 v=0
134400 On ch=8 n=82 v=48
134400 On ch=8 n=58 v=48
134409 On ch=8 n=63 v=0
134460 On ch=8 n=63 v=48
134469 On ch=8 n=58 v=0
134520 On ch=8 n=58 v=48
134529 On ch=8 n=63 v=0
134580 On ch=8 n=73 v=48
134580 On ch=8 n=63 v=48
134589 On ch=8 n=58 v=0
134589 On ch=8 n=82 v=0
134639 On ch=8 n=73 v=0
134639 On ch=8 n=63 v=0
134640 On ch=8 n=72 v=48
134640 On ch=8 n=60 v=48
134700 On ch=8 n=63 v=48
134709 On ch=8 n=60 v=0
134759 On ch=8 n=72 v=0
134760 On ch=8 n=60 v=48
134769 On ch=8 n=63 v=0
134820 On ch=8 n=63 v=48
134829 On ch=8 n=60 v=0
134880 On ch=8 n=60 v=48
134889 On ch=8 n=63 v=0
134940 On ch=8 n=63 v=48
134949 On ch=8 n=60 v=0
134999 On ch=8 n=63 v=0
135000 On ch=8 n=63 v=96
135000 On ch=8 n=60 v=48
135029 On ch=8 n=63 v=0
135030 On ch=8 n=63 v=48
135059 On ch=8 n=63 v=0
135060 On ch=8 n=63 v=48
135069 On ch=8 n=60 v=0
135120 On ch=8 n=60 v=48
135179 On ch=8 n=63 v=0
135180 On ch=8 n=63 v=48
135189 On ch=8 n=60 v=0
135240 On ch=8 n=60 v=48
135299 On ch=8 n=63 v=0
135300 On ch=8 n=63 v=48
135309 On ch=8 n=60 v=0
135360 On ch=8 n=60 v=48
135419 On ch=8 n=63 v=0
135420 On ch=8 n=67 v=48
135420 On ch=8 n=63 v=48
135429 On ch=8 n=60 v=0
135449 On ch=8 n=67 v=0
135480 On ch=8 n=68 v=48
135480 On ch=8 n=60 v=48
135489 On ch=8 n=63 v=0
135509 On ch=8 n=68 v=0
135540 On ch=8 n=70 v=48
135540 On ch=8 n=63 v=48
135549 On ch=8 n=60 v=0
135569 On ch=8 n=70 v=0
135600 On ch=8 n=72 v=48
135600 On ch=8 n=60 v=48
135609 On ch=8 n=63 v=0
135629 On ch=8 n=72 v=0
135660 On ch=8 n=73 v=48
135660 On ch=8 n=63 v=48
135669 On ch=8 n=60 v=0
135689 On ch=8 n=73 v=0
135719 On ch=8 n=63 v=0
135720 On ch=8 n=75 v=48
135720 On ch=8 n=60 v=48
135779 On ch=8 n=75 v=0
135780 On ch=8 n=63 v=48
135789 On ch=8 n=60 v=0
135840 On ch=8 n=80 v=48
135840 On ch=8 n=60 v=48
135849 On ch=8 n=63 v=0
135900 On ch=8 n=63 v=48
135909 On ch=8 n=60 v=0
135960 On ch=8 n=60 v=48
135969 On ch=8 n=63 v=0
136020 On ch=8 n=72 v=48
136020 On ch=8 n=63 v=48
136029 On ch=8 n=60 v=0
136029 On ch=8 n=80 v=0
136079 On ch=8 n=72 v=0
136079 On ch=8 n=63 v=0
136080 On ch=8 n=73 v=48
136080 On ch=8 n=61 v=48
136139 On ch=8 n=73 v=0
136140 On ch=8 n=63 v=48
136149 On ch=8 n=61 v=0
136200 On ch=8 n=75 v=48
136200 On ch=8 n=58 v=48
136209 On ch=8 n=63 v=0
136260 On ch=8 n=63 v=48
136269 On ch=8 n=58 v=0
136320 On ch=8 n=58 v=48
136329 On ch=8 n=63 v=0
136380 On ch=8 n=73 v=48
136380 On ch=8 n=63 v=48
136389 On ch=8 n=58 v=0
136389 On ch=8 n=75 v=0
136439 On ch=8 n=73 v=0
136439 On ch=8 n=63 v=0
136440 On ch=8 n=70 v=48
136440 On ch=8 n=58 v=48
136499 On ch=8 n=70 v=0
136500 On ch=8 n=63 v=48
136509 On ch=8 n=58 v=0
136560 On ch=8 n=73 v=48
136560 On ch=8 n=58 v=48
136569 On ch=8 n=63 v=0
136620 On ch=8 n=63 v=48
136629 On ch=8 n=58 v=0
136680 On ch=8 n=58 v=48
136689 On ch=8 n=63 v=0
136740 On ch=8 n=70 v=48
136740 On ch=8 n=63 v=48
136749 On ch=8 n=58 v=0
136749 On ch=8 n=73 v=0
136799 On ch=8 n=70 v=0
136799 On ch=8 n=63 v=0
136800 On ch=8 n=67 v=48
136800 On ch=8 n=58 v=48
136859 On ch=8 n=67 v=0
136860 On ch=8 n=63 v=48
136869 On ch=8 n=58 v=0
136920 On ch=8 n=70 v=48
136920 On ch=8 n=58 v=48
136929 On ch=8 n=63 v=0
136980 On ch=8 n=63 v=48
136989 On ch=8 n=58 v=0
137040 On ch=8 n=58 v=48
137049 On ch=8 n=63 v=0
137100 On ch=8 n=67 v=48
137100 On ch=8 n=63 v=48
137109 On ch=8 n=58 v=0
137109 On ch=8 n=70 v=0
137159 On ch=8 n=67 v=0
137159 On ch=8 n=63 v=0
137160 On ch=8 n=63 v=48
137160 On ch=8 n=58 v=48
137219 On ch=8 n=63 v=0
137220 On ch=8 n=63 v=48
137229 On ch=8 n=58 v=0
137280 On ch=8 n=74 v=48
137280 On ch=8 n=58 v=48
137289 On ch=8 n=63 v=0
137340 On ch=8 n=63 v=48
137349 On ch=8 n=58 v=0
137400 On ch=8 n=58 v=48
137409 On ch=8 n=63 v=0
137460 On ch=8 n=61 v=48
137460 On ch=8 n=63 v=48
137469 On ch=8 n=58 v=0
137469 On ch=8 n=74 v=0
137519 On ch=8 n=61 v=0
137519 On ch=8 n=63 v=0
137520 On ch=8 n=60 v=48
137549 On ch=8 n=60 v=0
137580 On ch=8 n=72 v=48
137580 On ch=8 n=60 v=48
137640 On ch=8 n=68 v=48
137640 On ch=8 n=63 v=48
137649 On ch=8 n=60 v=0
137649 On ch=8 n=72 v=0
137700 On ch=8 n=72 v=48
137700 On ch=8 n=60 v=48
137709 On ch=8 n=68 v=0
137709 On ch=8 n=63 v=0
137760 On ch=8 n=68 v=48
137760 On ch=8 n=63 v=48
137769 On ch=8 n=72 v=0
137769 On ch=8 n=60 v=0
137820 On ch=8 n=72 v=48
137820 On ch=8 n=60 v=48
137829 On ch=8 n=68 v=0
137829 On ch=8 n=63 v=0
137879 On ch=8 n=72 v=0
137879 On ch=8 n=60 v=0
137880 On ch=8 n=68 v=48
137880 On ch=8 n=65 v=48
137940 On ch=8 n=72 v=48
137940 On ch=8 n=60 v=48
137949 On ch=8 n=65 v=0
137949 On ch=8 n=68 v=0
138000 On ch=8 n=68 v=48
138000 On ch=8 n=65 v=48
138009 On ch=8 n=72 v=0
138009 On ch=8 n=60 v=0
138060 On ch=8 n=72 v=48
138060 On ch=8 n=60 v=48
138069 On ch=8 n=68 v=0
138069 On ch=8 n=65 v=0
138120 On ch=8 n=68 v=48
138120 On ch=8 n=65 v=48
138129 On ch=8 n=72 v=0
138129 On ch=8 n=60 v=0
138180 On ch=8 n=72 v=48
138180 On ch=8 n=60 v=48
138189 On ch=8 n=68 v=0
138189 On ch=8 n=65 v=0
138239 On ch=8 n=72 v=0
138239 On ch=8 n=60 v=0
138240 On ch=8 n=70 v=48
138240 On ch=8 n=67 v=48
138299 On ch=8 n=67 v=0
138300 On ch=8 n=72 v=48
138300 On ch=8 n=60 v=48
138309 On ch=8 n=70 v=0
138360 On ch=8 n=67 v=48
138360 On ch=8 n=63 v=48
138369 On ch=8 n=60 v=0
138369 On ch=8 n=72 v=0
138420 On ch=8 n=72 v=48
138420 On ch=8 n=60 v=48
138429 On ch=8 n=67 v=0
138429 On ch=8 n=63 v=0
138480 On ch=8 n=67 v=48
138480 On ch=8 n=63 v=48
138489 On ch=8 n=72 v=0
138489 On ch=8 n=60 v=0
138540 On ch=8 n=72 v=48
138540 On ch=8 n=60 v=48
138549 On ch=8 n=67 v=0
138549 On ch=8 n=63 v=0
138599 On ch=8 n=72 v=0
138599 On ch=8 n=60 v=0
138600 On ch=8 n=70 v=48
138600 On ch=8 n=67 v=48
138660 On ch=8 n=72 v=48
138660 On ch=8 n=60 v=48
138669 On ch=8 n=67 v=0
138669 On ch=8 n=70 v=0
138719 On ch=8 n=72 v=0
138719 On ch=8 n=60 v=0
138720 On ch=8 n=72 v=48
138720 On ch=8 n=60 v=48
138749 On ch=8 n=60 v=0
138749 On ch=8 n=72 v=0
138780 On ch=8 n=72 v=48
138780 On ch=8 n=60 v=48
138809 On ch=8 n=60 v=0
138809 On ch=8 n=72 v=0
138840 On ch=8 n=72 v=48
138840 On ch=8 n=60 v=48
138869 On ch=8 n=60 v=0
138869 On ch=8 n=72 v=0
138900 On ch=8 n=72 v=48
138900 On ch=8 n=60 v=48
138929 On ch=8 n=60 v=0
138929 On ch=8 n=72 v=0
138960 On ch=8 n=72 v=48
138960 On ch=8 n=60 v=48
139079 On ch=8 n=60 v=0
139079 On ch=8 n=72 v=0
139680 On ch=8 n=65 v=48
139799 On ch=8 n=65 v=0
139800 On ch=8 n=74 v=96
139979 On ch=8 n=74 v=0
139980 On ch=8 n=65 v=48
140039 On ch=8 n=65 v=0
140040 On ch=8 n=63 v=48
140159 On ch=8 n=63 v=0
140160 On ch=8 n=72 v=96
140339 On ch=8 n=72 v=0
140340 On ch=8 n=63 v=48
140399 On ch=8 n=63 v=0
140400 On ch=8 n=70 v=48
140400 On ch=8 n=62 v=48
140429 On ch=8 n=62 v=0
140459 On ch=8 n=70 v=0
140460 On ch=8 n=67 v=48
140490 On ch=8 n=69 v=48
140499 On ch=8 n=67 v=0
140519 On ch=8 n=69 v=0
140520 On ch=8 n=79 v=96
140520 On ch=8 n=70 v=48
140549 On ch=8 n=70 v=0
140580 On ch=8 n=67 v=48
140609 On ch=8 n=67 v=0
140640 On ch=8 n=63 v=48
140669 On ch=8 n=63 v=0
140699 On ch=8 n=79 v=0
140700 On ch=8 n=70 v=48
140700 On ch=8 n=62 v=48
140729 On ch=8 n=62 v=0
140759 On ch=8 n=70 v=0
140760 On ch=8 n=69 v=48
140760 On ch=8 n=60 v=48
140789 On ch=8 n=60 v=0
140819 On ch=8 n=69 v=0
140820 On ch=8 n=66 v=48
140850 On ch=8 n=67 v=48
140859 On ch=8 n=66 v=0
140879 On ch=8 n=67 v=0
140880 On ch=8 n=78 v=96
140880 On ch=8 n=69 v=48
140909 On ch=8 n=69 v=0
140940 On ch=8 n=65 v=48
140969 On ch=8 n=65 v=0
141000 On ch=8 n=62 v=48
141029 On ch=8 n=62 v=0
141059 On ch=8 n=78 v=0
141060 On ch=8 n=78 v=48
141060 On ch=8 n=62 v=48
141089 On ch=8 n=62 v=0
141119 On ch=8 n=78 v=0
141120 On ch=8 n=79 v=48
141120 On ch=8 n=62 v=48
141149 On ch=8 n=62 v=0
141149 On ch=8 n=79 v=0
141180 On ch=8 n=79 v=48
141180 On ch=8 n=67 v=48
141210 On ch=8 n=81 v=48
141210 On ch=8 n=69 v=48
141219 On ch=8 n=67 v=0
141219 On ch=8 n=79 v=0
141239 On ch=8 n=81 v=0
141239 On ch=8 n=69 v=0
141240 On ch=8 n=82 v=48
141240 On ch=8 n=70 v=48
141269 On ch=8 n=70 v=0
141269 On ch=8 n=82 v=0
141300 On ch=8 n=79 v=48
141300 On ch=8 n=67 v=48
141329 On ch=8 n=67 v=0
141329 On ch=8 n=79 v=0
141360 On ch=8 n=75 v=48
141360 On ch=8 n=63 v=48
141389 On ch=8 n=63 v=0
141389 On ch=8 n=75 v=0
141420 On ch=8 n=74 v=48
141420 On ch=8 n=62 v=48
141449 On ch=8 n=62 v=0
141449 On ch=8 n=74 v=0
141480 On ch=8 n=72 v=50
141480 On ch=8 n=60 v=50
141509 On ch=8 n=60 v=0
141509 On ch=8 n=72 v=0
141540 On ch=8 n=81 v=53
141540 On ch=8 n=69 v=53
141569 On ch=8 n=69 v=0
141569 On ch=8 n=81 v=0
141600 On ch=8 n=70 v=55
141600 On ch=8 n=58 v=55
141629 On ch=8 n=58 v=0
141629 On ch=8 n=70 v=0
141660 On ch=8 n=82 v=58
141660 On ch=8 n=70 v=58
141689 On ch=8 n=70 v=0
141689 On ch=8 n=82 v=0
141720 On ch=8 n=82 v=60
141720 On ch=8 n=70 v=60
141749 On ch=8 n=70 v=0
141749 On ch=8 n=82 v=0
141780 On ch=8 n=82 v=63
141780 On ch=8 n=79 v=63
141809 On ch=8 n=79 v=0
141809 On ch=8 n=82 v=0
141840 On ch=8 n=82 v=65
141840 On ch=8 n=79 v=65
141899 On ch=8 n=79 v=0
141899 On ch=8 n=82 v=0
141960 On ch=8 n=70 v=112
141960 On ch=8 n=67 v=112
142139 On ch=8 n=67 v=0
142139 On ch=8 n=70 v=0
142140 On ch=8 n=70 v=78
142140 On ch=8 n=67 v=78
142199 On ch=8 n=67 v=0
142199 On ch=8 n=70 v=0
142200 On ch=8 n=69 v=80
142200 On ch=8 n=65 v=80
142259 On ch=8 n=65 v=0
142259 On ch=8 n=69 v=0
142320 On ch=8 n=81 v=85
142320 On ch=8 n=77 v=85
142499 On ch=8 n=77 v=0
142499 On ch=8 n=81 v=0
142500 On ch=8 n=81 v=93
142500 On ch=8 n=77 v=93
142559 On ch=8 n=77 v=0
142559 On ch=8 n=81 v=0
142560 On ch=8 n=81 v=95
142560 On ch=8 n=77 v=95
142619 On ch=8 n=77 v=0
142619 On ch=8 n=81 v=0
142680 On ch=8 n=67 v=100
142680 On ch=8 n=64 v=100
142859 On ch=8 n=64 v=0
142859 On ch=8 n=67 v=0
142860 On ch=8 n=67 v=108
142860 On ch=8 n=64 v=108
142919 On ch=8 n=64 v=0
142919 On ch=8 n=67 v=0
142920 On ch=8 n=65 v=110
142920 On ch=8 n=62 v=110
142979 On ch=8 n=62 v=0
142979 On ch=8 n=65 v=0
143040 On ch=8 n=77 v=127
143040 On ch=8 n=74 v=127
143219 On ch=8 n=74 v=0
143219 On ch=8 n=77 v=0
143220 On ch=8 n=77 v=123
143220 On ch=8 n=74 v=123
143279 On ch=8 n=74 v=0
143279 On ch=8 n=77 v=0
143280 On ch=8 n=77 v=125
143280 On ch=8 n=74 v=125
143399 On ch=8 n=74 v=0
143399 On ch=8 n=77 v=0
143400 On ch=8 n=77 v=127
143400 On ch=8 n=59 v=127
143579 On ch=8 n=77 v=0
143580 On ch=8 n=65 v=127
143639 On ch=8 n=65 v=0
143640 On ch=8 n=65 v=127
143759 On ch=8 n=65 v=0
143760 On ch=8 n=77 v=127
143939 On ch=8 n=77 v=0
143940 On ch=8 n=65 v=127
143999 On ch=8 n=65 v=0
144000 On ch=8 n=65 v=127
144119 On ch=8 n=65 v=0
144119 On ch=8 n=59 v=0
144120 On ch=8 n=77 v=127
144120 On ch=8 n=68 v=127
144120 On ch=8 n=59 v=127
144240 On ch=8 n=71 v=127
144249 On ch=8 n=77 v=0
144359 On ch=8 n=68 v=0
144359 On ch=8 n=59 v=0
144359 On ch=8 n=71 v=0
144360 On ch=8 n=80 v=127
144360 On ch=8 n=59 v=127
144360 On ch=8 n=68 v=127
144480 On ch=8 n=71 v=127
144489 On ch=8 n=80 v=0
144599 On ch=8 n=59 v=0
144599 On ch=8 n=68 v=0
144599 On ch=8 n=71 v=0
144600 On ch=8 n=83 v=127
144600 On ch=8 n=68 v=127
144600 On ch=8 n=59 v=127
144839 On ch=8 n=59 v=0
144839 On ch=8 n=68 v=0
144839 On ch=8 n=83 v=0
144840 On ch=8 n=77 v=127
144840 On ch=8 n=59 v=127
144840 On ch=8 n=68 v=127
144960 On ch=8 n=71 v=127
144969 On ch=8 n=77 v=0
145079 On ch=8 n=59 v=0
145079 On ch=8 n=68 v=0
145079 On ch=8 n=71 v=0
145080 On ch=8 n=80 v=127
145080 On ch=8 n=59 v=127
145080 On ch=8 n=68 v=127
145200 On ch=8 n=71 v=127
145209 On ch=8 n=80 v=0
145319 On ch=8 n=59 v=0
145319 On ch=8 n=68 v=0
145319 On ch=8 n=71 v=0
145320 On ch=8 n=83 v=127
145320 On ch=8 n=59 v=127
145320 On ch=8 n=68 v=127
145439 On ch=8 n=68 v=0
145439 On ch=8 n=59 v=0
145439 On ch=8 n=83 v=0
145440 On ch=8 n=64 v=127
145440 On ch=8 n=60 v=127
145440 On ch=8 n=69 v=127
145559 On ch=8 n=64 v=0
145560 On ch=8 n=76 v=127
145739 On ch=8 n=76 v=0
145740 On ch=8 n=64 v=127
145799 On ch=8 n=64 v=0
145800 On ch=8 n=64 v=127
145919 On ch=8 n=64 v=0
145920 On ch=8 n=76 v=127
146099 On ch=8 n=76 v=0
146100 On ch=8 n=64 v=127
146159 On ch=8 n=64 v=0
146160 On ch=8 n=64 v=127
146279 On ch=8 n=64 v=0
146279 On ch=8 n=69 v=0
146279 On ch=8 n=60 v=0
146280 On ch=8 n=76 v=127
146280 On ch=8 n=69 v=127
146280 On ch=8 n=60 v=127
146399 On ch=8 n=69 v=0
146400 On ch=8 n=69 v=127
146409 On ch=8 n=76 v=0
146519 On ch=8 n=69 v=0
146519 On ch=8 n=60 v=0
146520 On ch=8 n=81 v=127
146520 On ch=8 n=69 v=127
146520 On ch=8 n=60 v=127
146639 On ch=8 n=69 v=0
146640 On ch=8 n=69 v=127
146649 On ch=8 n=81 v=0
146759 On ch=8 n=69 v=0
146759 On ch=8 n=60 v=0
146760 On ch=8 n=81 v=127
146760 On ch=8 n=69 v=127
146760 On ch=8 n=60 v=127
146999 On ch=8 n=60 v=0
146999 On ch=8 n=69 v=0
146999 On ch=8 n=81 v=0
147000 On ch=8 n=76 v=127
147000 On ch=8 n=69 v=127
147000 On ch=8 n=60 v=127
147119 On ch=8 n=69 v=0
147120 On ch=8 n=69 v=127
147129 On ch=8 n=76 v=0
147239 On ch=8 n=69 v=0
147239 On ch=8 n=60 v=0
147240 On ch=8 n=81 v=127
147240 On ch=8 n=69 v=127
147240 On ch=8 n=60 v=127
147359 On ch=8 n=69 v=0
147360 On ch=8 n=69 v=127
147369 On ch=8 n=81 v=0
147479 On ch=8 n=69 v=0
147479 On ch=8 n=60 v=0
147480 On ch=8 n=81 v=127
147480 On ch=8 n=64 v=127
147599 On ch=8 n=64 v=0
147600 On ch=8 n=63 v=127
147719 On ch=8 n=81 v=0
147720 On ch=8 n=81 v=127
147899 On ch=8 n=81 v=0
147900 On ch=8 n=69 v=127
147959 On ch=8 n=69 v=0
147960 On ch=8 n=69 v=127
148079 On ch=8 n=69 v=0
148080 On ch=8 n=81 v=127
148259 On ch=8 n=81 v=0
148260 On ch=8 n=69 v=127
148319 On ch=8 n=69 v=0
148320 On ch=8 n=69 v=127
148439 On ch=8 n=69 v=0
148439 On ch=8 n=63 v=0
148440 On ch=8 n=75 v=127
148440 On ch=8 n=63 v=127
148560 On ch=8 n=69 v=127
148569 On ch=8 n=75 v=0
148679 On ch=8 n=69 v=0
148679 On ch=8 n=63 v=0
148680 On ch=8 n=78 v=127
148680 On ch=8 n=66 v=127
148800 On ch=8 n=69 v=127
148809 On ch=8 n=78 v=0
148919 On ch=8 n=69 v=0
148919 On ch=8 n=66 v=0
148920 On ch=8 n=81 v=127
148920 On ch=8 n=63 v=127
149159 On ch=8 n=63 v=0
149159 On ch=8 n=81 v=0
149160 On ch=8 n=75 v=127
149160 On ch=8 n=63 v=127
149280 On ch=8 n=69 v=127
149289 On ch=8 n=75 v=0
149399 On ch=8 n=69 v=0
149399 On ch=8 n=63 v=0
149400 On ch=8 n=78 v=127
149400 On ch=8 n=66 v=127
149520 On ch=8 n=69 v=127
149529 On ch=8 n=78 v=0
149639 On ch=8 n=69 v=0
149639 On ch=8 n=66 v=0
149640 On ch=8 n=81 v=127
149640 On ch=8 n=63 v=127
149759 On ch=8 n=63 v=0
149759 On ch=8 n=81 v=0
149760 On ch=8 n=67 v=127
149760 On ch=8 n=64 v=127
149879 On ch=8 n=64 v=0
149879 On ch=8 n=67 v=0
149880 On ch=8 n=79 v=127
149880 On ch=8 n=76 v=127
150059 On ch=8 n=76 v=0
150059 On ch=8 n=79 v=0
150060 On ch=8 n=67 v=127
150060 On ch=8 n=64 v=127
150119 On ch=8 n=64 v=0
150119 On ch=8 n=67 v=0
150120 On ch=8 n=67 v=127
150120 On ch=8 n=64 v=127
150239 On ch=8 n=64 v=0
150239 On ch=8 n=67 v=0
150240 On ch=8 n=79 v=127
150240 On ch=8 n=76 v=127
150419 On ch=8 n=76 v=0
150419 On ch=8 n=79 v=0
150420 On ch=8 n=67 v=127
150420 On ch=8 n=64 v=127
150479 On ch=8 n=64 v=0
150479 On ch=8 n=67 v=0
150480 On ch=8 n=67 v=127
150480 On ch=8 n=64 v=127
150599 On ch=8 n=64 v=0
150599 On ch=8 n=67 v=0
150600 On ch=8 n=79 v=127
150600 On ch=8 n=64 v=127
150720 On ch=8 n=76 v=127
150729 On ch=8 n=79 v=0
150839 On ch=8 n=76 v=0
150839 On ch=8 n=64 v=0
150840 On ch=8 n=85 v=127
150840 On ch=8 n=64 v=127
150960 On ch=8 n=76 v=127
150969 On ch=8 n=85 v=0
151079 On ch=8 n=76 v=0
151079 On ch=8 n=64 v=0
151080 On ch=8 n=88 v=127
151080 On ch=8 n=67 v=127
151319 On ch=8 n=67 v=0
151319 On ch=8 n=88 v=0
151320 On ch=8 n=79 v=127
151320 On ch=8 n=64 v=127
151440 On ch=8 n=76 v=127
151449 On ch=8 n=79 v=0
151559 On ch=8 n=76 v=0
151559 On ch=8 n=64 v=0
151560 On ch=8 n=85 v=127
151560 On ch=8 n=64 v=127
151680 On ch=8 n=76 v=127
151689 On ch=8 n=85 v=0
151799 On ch=8 n=76 v=0
151799 On ch=8 n=64 v=0
151800 On ch=8 n=88 v=127
151800 On ch=8 n=67 v=127
151919 On ch=8 n=67 v=0
151919 On ch=8 n=88 v=0
152040 On ch=8 n=87 v=127
152040 On ch=8 n=78 v=127
152279 On ch=8 n=78 v=0
152279 On ch=8 n=87 v=0
152280 On ch=8 n=87 v=127
152280 On ch=8 n=78 v=127
152519 On ch=8 n=78 v=0
152519 On ch=8 n=87 v=0
152520 On ch=8 n=87 v=127
152520 On ch=8 n=78 v=127
152639 On ch=8 n=78 v=0
152639 On ch=8 n=87 v=0
152760 On ch=8 n=88 v=127
152760 On ch=8 n=79 v=127
152760 On ch=8 n=72 v=127
152999 On ch=8 n=72 v=0
152999 On ch=8 n=79 v=0
152999 On ch=8 n=88 v=0
153000 On ch=8 n=88 v=127
153000 On ch=8 n=72 v=127
153000 On ch=8 n=79 v=127
153239 On ch=8 n=79 v=0
153239 On ch=8 n=72 v=0
153239 On ch=8 n=88 v=0
153240 On ch=8 n=88 v=127
153240 On ch=8 n=79 v=127
153240 On ch=8 n=72 v=127
153299 On ch=8 n=72 v=0
153299 On ch=8 n=79 v=0
153299 On ch=8 n=88 v=0
153480 On ch=8 n=89 v=96
153480 On ch=8 n=77 v=96
153480 On ch=8 n=76 v=96
153480 On ch=8 n=72 v=96
153719 On ch=8 n=72 v=0
153719 On ch=8 n=89 v=0
153719 On ch=8 n=77 v=0
153719 On ch=8 n=76 v=0
153840 On ch=8 n=89 v=96
153840 On ch=8 n=77 v=96
153840 On ch=8 n=72 v=96
153840 On ch=8 n=76 v=96
154079 On ch=8 n=76 v=0
154079 On ch=8 n=89 v=0
154079 On ch=8 n=77 v=0
154079 On ch=8 n=72 v=0
154200 On ch=8 n=89 v=96
154200 On ch=8 n=77 v=96
154200 On ch=8 n=76 v=96
154200 On ch=8 n=72 v=96
154439 On ch=8 n=72 v=0
154439 On ch=8 n=89 v=0
154439 On ch=8 n=77 v=0
154439 On ch=8 n=76 v=0
154440 On ch=8 n=77 v=96
154440 On ch=8 n=89 v=96
154440 On ch=8 n=72 v=96
154440 On ch=8 n=76 v=96
154679 On ch=8 n=76 v=0
154679 On ch=8 n=77 v=0
154679 On ch=8 n=89 v=0
154679 On ch=8 n=72 v=0
154680 On ch=8 n=89 v=96
154680 On ch=8 n=77 v=96
154680 On ch=8 n=76 v=96
154680 On ch=8 n=72 v=96
154739 On ch=8 n=72 v=0
154739 On ch=8 n=89 v=0
154739 On ch=8 n=77 v=0
154739 On ch=8 n=76 v=0
154920 On ch=8 n=63 v=96
154920 On ch=8 n=60 v=96
154979 On ch=8 n=60 v=0
154979 On ch=8 n=63 v=0
155040 On ch=8 n=63 v=96
155040 On ch=8 n=60 v=96
155099 On ch=8 n=60 v=0
155099 On ch=8 n=63 v=0
155160 On ch=8 n=63 v=96
155160 On ch=8 n=60 v=96
155219 On ch=8 n=60 v=0
155219 On ch=8 n=63 v=0
155280 On ch=8 n=63 v=88
155280 On ch=8 n=60 v=88
155339 On ch=8 n=60 v=0
155339 On ch=8 n=63 v=0
155400 On ch=8 n=63 v=80
155400 On ch=8 n=60 v=80
155459 On ch=8 n=60 v=0
155459 On ch=8 n=63 v=0
155520 On ch=8 n=63 v=72
155520 On ch=8 n=60 v=72
155579 On ch=8 n=60 v=0
155579 On ch=8 n=63 v=0
155640 On ch=8 n=63 v=64
155640 On ch=8 n=59 v=64
155699 On ch=8 n=59 v=0
155699 On ch=8 n=63 v=0
155760 On ch=8 n=63 v=56
155760 On ch=8 n=59 v=56
155819 On ch=8 n=59 v=0
155819 On ch=8 n=63 v=0
155880 On ch=8 n=59 v=48
155880 On ch=8 n=63 v=48
155939 On ch=8 n=63 v=0
155939 On ch=8 n=59 v=0
156000 On ch=8 n=63 v=48
156000 On ch=8 n=59 v=48
156059 On ch=8 n=59 v=0
156059 On ch=8 n=63 v=0
156120 On ch=8 n=63 v=48
156120 On ch=8 n=59 v=48
156179 On ch=8 n=59 v=0
156179 On ch=8 n=63 v=0
156240 On ch=8 n=64 v=48
156240 On ch=8 n=59 v=48
156299 On ch=8 n=64 v=0
156300 On ch=8 n=71 v=48
156359 On ch=8 n=59 v=0
156360 On ch=8 n=64 v=48
156419 On ch=8 n=71 v=0
156420 On ch=8 n=71 v=48
156480 On ch=8 n=66 v=48
156489 On ch=8 n=64 v=0
156539 On ch=8 n=71 v=0
156540 On ch=8 n=71 v=48
156600 On ch=8 n=67 v=48
156609 On ch=8 n=66 v=0
156659 On ch=8 n=71 v=0
156660 On ch=8 n=71 v=48
156779 On ch=8 n=71 v=0
156780 On ch=8 n=71 v=48
156780 On ch=8 n=66 v=48
156789 On ch=8 n=67 v=0
156840 On ch=8 n=64 v=48
156849 On ch=8 n=66 v=0
156899 On ch=8 n=71 v=0
156900 On ch=8 n=83 v=48
156959 On ch=8 n=64 v=0
156960 On ch=8 n=63 v=48
157019 On ch=8 n=83 v=0
157020 On ch=8 n=83 v=48
157080 On ch=8 n=62 v=48
157089 On ch=8 n=63 v=0
157139 On ch=8 n=83 v=0
157140 On ch=8 n=83 v=48
157200 On ch=8 n=61 v=48
157209 On ch=8 n=62 v=0
157259 On ch=8 n=83 v=0
157260 On ch=8 n=83 v=48
157320 On ch=8 n=59 v=96
157329 On ch=8 n=61 v=0
157349 On ch=8 n=59 v=0
157350 On ch=8 n=59 v=48
157379 On ch=8 n=83 v=0
157380 On ch=8 n=83 v=48
157499 On ch=8 n=83 v=0
157500 On ch=8 n=83 v=48
157560 On ch=8 n=61 v=48
157569 On ch=8 n=59 v=0
157619 On ch=8 n=83 v=0
157620 On ch=8 n=71 v=48
157620 On ch=8 n=63 v=48
157629 On ch=8 n=61 v=0
157679 On ch=8 n=63 v=0
157680 On ch=8 n=64 v=48
157739 On ch=8 n=71 v=0
157740 On ch=8 n=71 v=48
157799 On ch=8 n=64 v=0
157800 On ch=8 n=64 v=48
157859 On ch=8 n=71 v=0
157860 On ch=8 n=71 v=48
157920 On ch=8 n=66 v=48
157929 On ch=8 n=64 v=0
157979 On ch=8 n=71 v=0
157980 On ch=8 n=71 v=48
158040 On ch=8 n=67 v=96
158049 On ch=8 n=66 v=0
158069 On ch=8 n=67 v=0
158070 On ch=8 n=67 v=48
158099 On ch=8 n=71 v=0
158100 On ch=8 n=71 v=48
158219 On ch=8 n=71 v=0
158220 On ch=8 n=71 v=48
158220 On ch=8 n=66 v=48
158229 On ch=8 n=67 v=0
158280 On ch=8 n=64 v=48
158289 On ch=8 n=66 v=0
158339 On ch=8 n=71 v=0
158340 On ch=8 n=83 v=48
158399 On ch=8 n=64 v=0
158400 On ch=8 n=63 v=48
158459 On ch=8 n=83 v=0
158460 On ch=8 n=83 v=48
158520 On ch=8 n=62 v=48
158529 On ch=8 n=63 v=0
158579 On ch=8 n=83 v=0
158580 On ch=8 n=83 v=48
158640 On ch=8 n=61 v=48
158649 On ch=8 n=62 v=0
158699 On ch=8 n=83 v=0
158700 On ch=8 n=83 v=48
158759 On ch=8 n=61 v=0
158819 On ch=8 n=83 v=0
158820 On ch=8 n=81 v=50
158820 On ch=8 n=65 v=50
158880 On ch=8 n=80 v=52
158880 On ch=8 n=64 v=52
158889 On ch=8 n=65 v=0
158889 On ch=8 n=81 v=0
158940 On ch=8 n=77 v=52
158940 On ch=8 n=65 v=54
158949 On ch=8 n=80 v=0
158949 On ch=8 n=64 v=0
159000 On ch=8 n=76 v=52
159009 On ch=8 n=77 v=0
159009 On ch=8 n=65 v=0
159060 On ch=8 n=74 v=52
159060 On ch=8 n=62 v=52
159069 On ch=8 n=76 v=0
159119 On ch=8 n=74 v=0
159120 On ch=8 n=72 v=52
159120 On ch=8 n=60 v=48
159129 On ch=8 n=62 v=0
159179 On ch=8 n=60 v=0
159180 On ch=8 n=64 v=48
159239 On ch=8 n=72 v=0
159240 On ch=8 n=69 v=48
159299 On ch=8 n=64 v=0
159300 On ch=8 n=64 v=48
159360 On ch=8 n=68 v=48
159369 On ch=8 n=69 v=0
159419 On ch=8 n=64 v=0
159420 On ch=8 n=64 v=48
159480 On ch=8 n=69 v=56
159489 On ch=8 n=68 v=0
159539 On ch=8 n=64 v=0
159540 On ch=8 n=64 v=48
159659 On ch=8 n=64 v=0
159660 On ch=8 n=71 v=48
159660 On ch=8 n=64 v=48
159669 On ch=8 n=69 v=0
159720 On ch=8 n=72 v=48
159729 On ch=8 n=71 v=0
159779 On ch=8 n=64 v=0
159780 On ch=8 n=64 v=48
159839 On ch=8 n=72 v=0
159840 On ch=8 n=71 v=48
159899 On ch=8 n=64 v=0
159900 On ch=8 n=76 v=48
159959 On ch=8 n=76 v=0
159960 On ch=8 n=76 v=48
159969 On ch=8 n=71 v=0
160019 On ch=8 n=76 v=0
160020 On ch=8 n=76 v=48
160080 On ch=8 n=75 v=48
160139 On ch=8 n=76 v=0
160140 On ch=8 n=76 v=48
160199 On ch=8 n=76 v=0
160200 On ch=8 n=76 v=56
160209 On ch=8 n=75 v=0
160259 On ch=8 n=76 v=0
160260 On ch=8 n=76 v=56
160379 On ch=8 n=76 v=0
160380 On ch=8 n=74 v=48
160380 On ch=8 n=76 v=48
160440 On ch=8 n=72 v=48
160449 On ch=8 n=74 v=0
160499 On ch=8 n=76 v=0
160500 On ch=8 n=71 v=48
160500 On ch=8 n=76 v=48
160509 On ch=8 n=72 v=0
160559 On ch=8 n=71 v=0
160560 On ch=8 n=72 v=48
160619 On ch=8 n=76 v=0
160620 On ch=8 n=64 v=48
160680 On ch=8 n=69 v=48
160689 On ch=8 n=72 v=0
160739 On ch=8 n=64 v=0
160740 On ch=8 n=64 v=48
160800 On ch=8 n=68 v=48
160809 On ch=8 n=69 v=0
160859 On ch=8 n=64 v=0
160860 On ch=8 n=64 v=48
160920 On ch=8 n=69 v=56
160929 On ch=8 n=68 v=0
160979 On ch=8 n=64 v=0
160980 On ch=8 n=64 v=48
161099 On ch=8 n=64 v=0
161100 On ch=8 n=71 v=48
161100 On ch=8 n=64 v=48
161109 On ch=8 n=69 v=0
161160 On ch=8 n=72 v=48
161169 On ch=8 n=71 v=0
161219 On ch=8 n=64 v=0
161220 On ch=8 n=64 v=48
161279 On ch=8 n=72 v=0
161280 On ch=8 n=71 v=48
161339 On ch=8 n=64 v=0
161340 On ch=8 n=76 v=48
161399 On ch=8 n=76 v=0
161400 On ch=8 n=76 v=48
161409 On ch=8 n=71 v=0
161459 On ch=8 n=76 v=0
161460 On ch=8 n=76 v=48
161520 On ch=8 n=75 v=48
161579 On ch=8 n=76 v=0
161580 On ch=8 n=76 v=48
161639 On ch=8 n=76 v=0
161640 On ch=8 n=76 v=48
161649 On ch=8 n=75 v=0
161699 On ch=8 n=76 v=0
161700 On ch=8 n=64 v=56
161700 On ch=8 n=76 v=56
161760 On ch=8 n=67 v=64
161760 On ch=8 n=79 v=64
161769 On ch=8 n=76 v=0
161769 On ch=8 n=64 v=0
161820 On ch=8 n=65 v=72
161820 On ch=8 n=77 v=72
161829 On ch=8 n=67 v=0
161829 On ch=8 n=79 v=0
161880 On ch=8 n=64 v=80
161880 On ch=8 n=76 v=80
161889 On ch=8 n=65 v=0
161889 On ch=8 n=77 v=0
161940 On ch=8 n=62 v=88
161940 On ch=8 n=74 v=88
161949 On ch=8 n=64 v=0
161949 On ch=8 n=76 v=0
161999 On ch=8 n=74 v=0
162000 On ch=8 n=60 v=96
162000 On ch=8 n=72 v=96
162009 On ch=8 n=62 v=0
162029 On ch=8 n=72 v=0
162029 On ch=8 n=60 v=0
162030 On ch=8 n=60 v=96
162059 On ch=8 n=60 v=0
162060 On ch=8 n=60 v=96
162089 On ch=8 n=60 v=0
162090 On ch=8 n=60 v=96
162119 On ch=8 n=60 v=0
162120 On ch=8 n=60 v=96
162149 On ch=8 n=60 v=0
162150 On ch=8 n=60 v=96
162179 On ch=8 n=60 v=0
162180 On ch=8 n=60 v=96
162209 On ch=8 n=60 v=0
162210 On ch=8 n=60 v=96
162239 On ch=8 n=60 v=0
162240 On ch=8 n=64 v=96
162269 On ch=8 n=64 v=0
162270 On ch=8 n=64 v=96
162299 On ch=8 n=64 v=0
162300 On ch=8 n=64 v=96
162329 On ch=8 n=64 v=0
162330 On ch=8 n=64 v=96
162359 On ch=8 n=64 v=0
162360 On ch=8 n=60 v=96
162389 On ch=8 n=60 v=0
162390 On ch=8 n=60 v=96
162419 On ch=8 n=60 v=0
162420 On ch=8 n=60 v=96
162449 On ch=8 n=60 v=0
162450 On ch=8 n=60 v=96
162479 On ch=8 n=60 v=0
162480 On ch=8 n=60 v=96
162509 On ch=8 n=60 v=0
162510 On ch=8 n=60 v=96
162539 On ch=8 n=60 v=0
162540 On ch=8 n=60 v=96
162569 On ch=8 n=60 v=0
162570 On ch=8 n=60 v=96
162599 On ch=8 n=60 v=0
162600 On ch=8 n=55 v=96
162629 On ch=8 n=55 v=0
162630 On ch=8 n=55 v=96
162659 On ch=8 n=55 v=0
162660 On ch=8 n=55 v=96
162689 On ch=8 n=55 v=0
162690 On ch=8 n=55 v=96
162719 On ch=8 n=55 v=0
162720 On ch=8 n=60 v=96
162749 On ch=8 n=60 v=0
162750 On ch=8 n=60 v=96
162779 On ch=8 n=60 v=0
162780 On ch=8 n=60 v=96
162809 On ch=8 n=60 v=0
162810 On ch=8 n=60 v=96
162839 On ch=8 n=60 v=0
162840 On ch=8 n=64 v=96
162869 On ch=8 n=64 v=0
162870 On ch=8 n=64 v=96
162899 On ch=8 n=64 v=0
162900 On ch=8 n=64 v=96
162929 On ch=8 n=64 v=0
162930 On ch=8 n=64 v=96
162959 On ch=8 n=64 v=0
162960 On ch=8 n=67 v=96
162989 On ch=8 n=67 v=0
162990 On ch=8 n=67 v=96
163019 On ch=8 n=67 v=0
163020 On ch=8 n=67 v=96
163049 On ch=8 n=67 v=0
163050 On ch=8 n=67 v=96
163079 On ch=8 n=67 v=0
163080 On ch=8 n=60 v=96
163109 On ch=8 n=60 v=0
163110 On ch=8 n=60 v=96
163139 On ch=8 n=60 v=0
163140 On ch=8 n=60 v=96
163169 On ch=8 n=60 v=0
163170 On ch=8 n=60 v=96
163199 On ch=8 n=60 v=0
163200 On ch=8 n=60 v=96
163229 On ch=8 n=60 v=0
163230 On ch=8 n=60 v=96
163259 On ch=8 n=60 v=0
163260 On ch=8 n=60 v=96
163289 On ch=8 n=60 v=0
163290 On ch=8 n=60 v=96
163319 On ch=8 n=60 v=0
163320 On ch=8 n=55 v=96
163349 On ch=8 n=55 v=0
163350 On ch=8 n=55 v=96
163379 On ch=8 n=55 v=0
163380 On ch=8 n=55 v=96
163409 On ch=8 n=55 v=0
163410 On ch=8 n=55 v=96
163439 On ch=8 n=55 v=0
163440 On ch=8 n=60 v=96
163469 On ch=8 n=60 v=0
163470 On ch=8 n=55 v=96
163470 On ch=8 n=64 v=96
163470 On ch=8 n=60 v=96
163499 On ch=8 n=60 v=0
163499 On ch=8 n=64 v=0
163499 On ch=8 n=55 v=0
163500 On ch=8 n=55 v=96
163500 On ch=8 n=64 v=96
163500 On ch=8 n=60 v=96
163529 On ch=8 n=60 v=0
163529 On ch=8 n=64 v=0
163529 On ch=8 n=55 v=0
163530 On ch=8 n=55 v=96
163530 On ch=8 n=64 v=96
163530 On ch=8 n=60 v=96
163559 On ch=8 n=60 v=0
163559 On ch=8 n=64 v=0
163559 On ch=8 n=55 v=0
163560 On ch=8 n=55 v=96
163560 On ch=8 n=64 v=96
163589 On ch=8 n=64 v=0
163589 On ch=8 n=55 v=0
163590 On ch=8 n=55 v=96
163590 On ch=8 n=64 v=96
163619 On ch=8 n=64 v=0
163619 On ch=8 n=55 v=0
163620 On ch=8 n=55 v=96
163620 On ch=8 n=64 v=96
163649 On ch=8 n=64 v=0
163649 On ch=8 n=55 v=0
163650 On ch=8 n=55 v=96
163650 On ch=8 n=64 v=96
163679 On ch=8 n=64 v=0
163679 On ch=8 n=55 v=0
163680 On ch=8 n=55 v=96
163680 On ch=8 n=64 v=96
163680 On ch=8 n=67 v=96
163709 On ch=8 n=67 v=0
163709 On ch=8 n=64 v=0
163709 On ch=8 n=55 v=0
163710 On ch=8 n=55 v=96
163710 On ch=8 n=64 v=96
163710 On ch=8 n=67 v=96
163739 On ch=8 n=67 v=0
163739 On ch=8 n=64 v=0
163739 On ch=8 n=55 v=0
163740 On ch=8 n=55 v=96
163740 On ch=8 n=64 v=96
163740 On ch=8 n=67 v=96
163769 On ch=8 n=67 v=0
163769 On ch=8 n=64 v=0
163769 On ch=8 n=55 v=0
163770 On ch=8 n=55 v=96
163770 On ch=8 n=64 v=96
163770 On ch=8 n=67 v=96
163799 On ch=8 n=67 v=0
163799 On ch=8 n=64 v=0
163799 On ch=8 n=55 v=0
163800 On ch=8 n=55 v=96
163800 On ch=8 n=64 v=96
163800 On ch=8 n=72 v=96
163829 On ch=8 n=72 v=0
163829 On ch=8 n=64 v=0
163829 On ch=8 n=55 v=0
163830 On ch=8 n=55 v=96
163830 On ch=8 n=64 v=96
163830 On ch=8 n=72 v=96
163859 On ch=8 n=72 v=0
163859 On ch=8 n=64 v=0
163859 On ch=8 n=55 v=0
163860 On ch=8 n=55 v=96
163860 On ch=8 n=64 v=96
163860 On ch=8 n=72 v=96
163889 On ch=8 n=72 v=0
163889 On ch=8 n=64 v=0
163889 On ch=8 n=55 v=0
163890 On ch=8 n=55 v=96
163890 On ch=8 n=64 v=96
163890 On ch=8 n=72 v=96
163919 On ch=8 n=72 v=0
163919 On ch=8 n=64 v=0
163919 On ch=8 n=55 v=0
163920 On ch=8 n=55 v=96
163920 On ch=8 n=64 v=96
163920 On ch=8 n=76 v=96
163949 On ch=8 n=76 v=0
163949 On ch=8 n=64 v=0
163949 On ch=8 n=55 v=0
163950 On ch=8 n=55 v=96
163950 On ch=8 n=64 v=96
163950 On ch=8 n=76 v=96
163979 On ch=8 n=76 v=0
163979 On ch=8 n=64 v=0
163979 On ch=8 n=55 v=0
163980 On ch=8 n=55 v=96
163980 On ch=8 n=64 v=96
163980 On ch=8 n=76 v=96
164009 On ch=8 n=76 v=0
164009 On ch=8 n=64 v=0
164009 On ch=8 n=55 v=0
164010 On ch=8 n=55 v=96
164010 On ch=8 n=64 v=96
164010 On ch=8 n=76 v=96
164039 On ch=8 n=76 v=0
164039 On ch=8 n=64 v=0
164039 On ch=8 n=55 v=0
164040 On ch=8 n=55 v=96
164040 On ch=8 n=64 v=96
164040 On ch=8 n=79 v=112
164069 On ch=8 n=79 v=0
164069 On ch=8 n=64 v=0
164069 On ch=8 n=55 v=0
164070 On ch=8 n=55 v=96
164070 On ch=8 n=64 v=96
164070 On ch=8 n=79 v=96
164099 On ch=8 n=79 v=0
164099 On ch=8 n=64 v=0
164099 On ch=8 n=55 v=0
164100 On ch=8 n=55 v=96
164100 On ch=8 n=64 v=96
164100 On ch=8 n=79 v=96
164129 On ch=8 n=79 v=0
164129 On ch=8 n=64 v=0
164129 On ch=8 n=55 v=0
164130 On ch=8 n=55 v=96
164130 On ch=8 n=64 v=96
164130 On ch=8 n=79 v=96
164159 On ch=8 n=79 v=0
164159 On ch=8 n=64 v=0
164159 On ch=8 n=55 v=0
164160 On ch=8 n=55 v=96
164160 On ch=8 n=65 v=96
164160 On ch=8 n=79 v=96
164189 On ch=8 n=79 v=0
164189 On ch=8 n=65 v=0
164189 On ch=8 n=55 v=0
164190 On ch=8 n=55 v=96
164190 On ch=8 n=65 v=96
164190 On ch=8 n=79 v=96
164219 On ch=8 n=79 v=0
164219 On ch=8 n=65 v=0
164219 On ch=8 n=55 v=0
164220 On ch=8 n=55 v=96
164220 On ch=8 n=65 v=96
164220 On ch=8 n=77 v=96
164249 On ch=8 n=77 v=0
164249 On ch=8 n=65 v=0
164249 On ch=8 n=55 v=0
164250 On ch=8 n=55 v=96
164250 On ch=8 n=65 v=96
164250 On ch=8 n=77 v=96
164279 On ch=8 n=77 v=0
164279 On ch=8 n=65 v=0
164279 On ch=8 n=55 v=0
164280 On ch=8 n=55 v=96
164280 On ch=8 n=65 v=96
164280 On ch=8 n=74 v=96
164309 On ch=8 n=74 v=0
164309 On ch=8 n=65 v=0
164309 On ch=8 n=55 v=0
164310 On ch=8 n=55 v=96
164310 On ch=8 n=65 v=96
164310 On ch=8 n=74 v=96
164339 On ch=8 n=74 v=0
164339 On ch=8 n=65 v=0
164339 On ch=8 n=55 v=0
164340 On ch=8 n=55 v=96
164340 On ch=8 n=65 v=96
164340 On ch=8 n=71 v=96
164369 On ch=8 n=71 v=0
164369 On ch=8 n=65 v=0
164369 On ch=8 n=55 v=0
164370 On ch=8 n=55 v=96
164370 On ch=8 n=65 v=96
164370 On ch=8 n=71 v=96
164399 On ch=8 n=71 v=0
164399 On ch=8 n=65 v=0
164399 On ch=8 n=55 v=0
164400 On ch=8 n=55 v=96
164400 On ch=8 n=65 v=96
164400 On ch=8 n=67 v=96
164429 On ch=8 n=67 v=0
164429 On ch=8 n=65 v=0
164429 On ch=8 n=55 v=0
164430 On ch=8 n=55 v=96
164430 On ch=8 n=65 v=96
164430 On ch=8 n=67 v=96
164459 On ch=8 n=67 v=0
164459 On ch=8 n=65 v=0
164459 On ch=8 n=55 v=0
164460 On ch=8 n=55 v=96
164460 On ch=8 n=65 v=96
164489 On ch=8 n=65 v=0
164489 On ch=8 n=55 v=0
164490 On ch=8 n=55 v=96
164490 On ch=8 n=65 v=96
164519 On ch=8 n=65 v=0
164519 On ch=8 n=55 v=0
164520 On ch=8 n=55 v=96
164520 On ch=8 n=65 v=96
164520 On ch=8 n=62 v=96
164549 On ch=8 n=62 v=0
164549 On ch=8 n=65 v=0
164549 On ch=8 n=55 v=0
164550 On ch=8 n=55 v=96
164550 On ch=8 n=65 v=96
164550 On ch=8 n=62 v=96
164579 On ch=8 n=62 v=0
164579 On ch=8 n=65 v=0
164579 On ch=8 n=55 v=0
164580 On ch=8 n=55 v=96
164580 On ch=8 n=65 v=96
164609 On ch=8 n=65 v=0
164609 On ch=8 n=55 v=0
164610 On ch=8 n=55 v=96
164610 On ch=8 n=65 v=96
164639 On ch=8 n=65 v=0
164639 On ch=8 n=55 v=0
164640 On ch=8 n=55 v=96
164640 On ch=8 n=65 v=96
164640 On ch=8 n=62 v=96
164669 On ch=8 n=62 v=0
164669 On ch=8 n=65 v=0
164669 On ch=8 n=55 v=0
164670 On ch=8 n=55 v=96
164670 On ch=8 n=65 v=96
164670 On ch=8 n=62 v=96
164699 On ch=8 n=62 v=0
164699 On ch=8 n=65 v=0
164699 On ch=8 n=55 v=0
164700 On ch=8 n=55 v=96
164700 On ch=8 n=65 v=96
164700 On ch=8 n=59 v=96
164729 On ch=8 n=59 v=0
164729 On ch=8 n=65 v=0
164729 On ch=8 n=55 v=0
164730 On ch=8 n=55 v=96
164730 On ch=8 n=65 v=96
164730 On ch=8 n=59 v=96
164759 On ch=8 n=59 v=0
164759 On ch=8 n=65 v=0
164759 On ch=8 n=55 v=0
164760 On ch=8 n=65 v=96
164760 On ch=8 n=55 v=96
164789 On ch=8 n=55 v=0
164789 On ch=8 n=65 v=0
164790 On ch=8 n=65 v=96
164790 On ch=8 n=55 v=96
164819 On ch=8 n=55 v=0
164819 On ch=8 n=65 v=0
164820 On ch=8 n=55 v=96
164820 On ch=8 n=65 v=96
164820 On ch=8 n=59 v=96
164849 On ch=8 n=59 v=0
164849 On ch=8 n=65 v=0
164849 On ch=8 n=55 v=0
164850 On ch=8 n=55 v=96
164850 On ch=8 n=65 v=96
164850 On ch=8 n=59 v=96
164879 On ch=8 n=59 v=0
164879 On ch=8 n=65 v=0
164879 On ch=8 n=55 v=0
164880 On ch=8 n=63 v=96
164880 On ch=8 n=55 v=96
164880 On ch=8 n=60 v=96
164909 On ch=8 n=60 v=0
164909 On ch=8 n=55 v=0
164909 On ch=8 n=63 v=0
164910 On ch=8 n=55 v=96
164910 On ch=8 n=63 v=96
164910 On ch=8 n=60 v=96
164939 On ch=8 n=60 v=0
164939 On ch=8 n=63 v=0
164939 On ch=8 n=55 v=0
164940 On ch=8 n=55 v=96
164940 On ch=8 n=63 v=96
164940 On ch=8 n=60 v=96
164969 On ch=8 n=60 v=0
164969 On ch=8 n=63 v=0
164969 On ch=8 n=55 v=0
164970 On ch=8 n=55 v=96
164970 On ch=8 n=63 v=96
164970 On ch=8 n=60 v=96
164999 On ch=8 n=60 v=0
164999 On ch=8 n=63 v=0
164999 On ch=8 n=55 v=0
165000 On ch=8 n=55 v=96
165000 On ch=8 n=63 v=96
165029 On ch=8 n=63 v=0
165029 On ch=8 n=55 v=0
165030 On ch=8 n=55 v=96
165030 On ch=8 n=63 v=96
165059 On ch=8 n=63 v=0
165059 On ch=8 n=55 v=0
165060 On ch=8 n=55 v=96
165060 On ch=8 n=63 v=96
165089 On ch=8 n=63 v=0
165089 On ch=8 n=55 v=0
165090 On ch=8 n=55 v=96
165090 On ch=8 n=63 v=96
165119 On ch=8 n=63 v=0
165119 On ch=8 n=55 v=0
165120 On ch=8 n=55 v=96
165120 On ch=8 n=63 v=96
165120 On ch=8 n=67 v=96
165149 On ch=8 n=67 v=0
165149 On ch=8 n=63 v=0
165149 On ch=8 n=55 v=0
165150 On ch=8 n=55 v=96
165150 On ch=8 n=63 v=96
165150 On ch=8 n=67 v=96
165179 On ch=8 n=67 v=0
165179 On ch=8 n=63 v=0
165179 On ch=8 n=55 v=0
165180 On ch=8 n=55 v=96
165180 On ch=8 n=63 v=96
165180 On ch=8 n=67 v=96
165209 On ch=8 n=67 v=0
165209 On ch=8 n=63 v=0
165209 On ch=8 n=55 v=0
165210 On ch=8 n=55 v=96
165210 On ch=8 n=63 v=96
165210 On ch=8 n=67 v=96
165239 On ch=8 n=67 v=0
165239 On ch=8 n=63 v=0
165239 On ch=8 n=55 v=0
165240 On ch=8 n=55 v=96
165240 On ch=8 n=63 v=96
165240 On ch=8 n=72 v=96
165269 On ch=8 n=72 v=0
165269 On ch=8 n=63 v=0
165269 On ch=8 n=55 v=0
165270 On ch=8 n=55 v=96
165270 On ch=8 n=63 v=96
165270 On ch=8 n=72 v=96
165299 On ch=8 n=72 v=0
165299 On ch=8 n=63 v=0
165299 On ch=8 n=55 v=0
165300 On ch=8 n=55 v=96
165300 On ch=8 n=63 v=96
165300 On ch=8 n=72 v=96
165329 On ch=8 n=72 v=0
165329 On ch=8 n=63 v=0
165329 On ch=8 n=55 v=0
165330 On ch=8 n=55 v=96
165330 On ch=8 n=63 v=96
165330 On ch=8 n=72 v=96
165359 On ch=8 n=72 v=0
165359 On ch=8 n=63 v=0
165359 On ch=8 n=55 v=0
165360 On ch=8 n=55 v=96
165360 On ch=8 n=63 v=96
165360 On ch=8 n=75 v=96
165389 On ch=8 n=75 v=0
165389 On ch=8 n=63 v=0
165389 On ch=8 n=55 v=0
165390 On ch=8 n=55 v=96
165390 On ch=8 n=63 v=96
165390 On ch=8 n=75 v=96
165419 On ch=8 n=75 v=0
165419 On ch=8 n=63 v=0
165419 On ch=8 n=55 v=0
165420 On ch=8 n=55 v=96
165420 On ch=8 n=63 v=96
165420 On ch=8 n=75 v=96
165449 On ch=8 n=75 v=0
165449 On ch=8 n=63 v=0
165449 On ch=8 n=55 v=0
165450 On ch=8 n=55 v=96
165450 On ch=8 n=63 v=96
165450 On ch=8 n=75 v=96
165479 On ch=8 n=75 v=0
165479 On ch=8 n=63 v=0
165479 On ch=8 n=55 v=0
165480 On ch=8 n=55 v=96
165480 On ch=8 n=63 v=96
165480 On ch=8 n=79 v=112
165509 On ch=8 n=79 v=0
165509 On ch=8 n=63 v=0
165509 On ch=8 n=55 v=0
165510 On ch=8 n=55 v=96
165510 On ch=8 n=63 v=96
165510 On ch=8 n=79 v=96
165539 On ch=8 n=79 v=0
165539 On ch=8 n=63 v=0
165539 On ch=8 n=55 v=0
165540 On ch=8 n=55 v=96
165540 On ch=8 n=63 v=96
165540 On ch=8 n=79 v=96
165569 On ch=8 n=79 v=0
165569 On ch=8 n=63 v=0
165569 On ch=8 n=55 v=0
165570 On ch=8 n=55 v=96
165570 On ch=8 n=63 v=96
165570 On ch=8 n=79 v=96
165599 On ch=8 n=79 v=0
165599 On ch=8 n=63 v=0
165599 On ch=8 n=55 v=0
165600 On ch=8 n=55 v=96
165600 On ch=8 n=65 v=96
165600 On ch=8 n=79 v=96
165629 On ch=8 n=79 v=0
165629 On ch=8 n=65 v=0
165629 On ch=8 n=55 v=0
165630 On ch=8 n=55 v=96
165630 On ch=8 n=65 v=96
165630 On ch=8 n=79 v=96
165659 On ch=8 n=79 v=0
165659 On ch=8 n=65 v=0
165659 On ch=8 n=55 v=0
165660 On ch=8 n=55 v=96
165660 On ch=8 n=65 v=96
165660 On ch=8 n=77 v=96
165689 On ch=8 n=77 v=0
165689 On ch=8 n=65 v=0
165689 On ch=8 n=55 v=0
165690 On ch=8 n=55 v=96
165690 On ch=8 n=65 v=96
165690 On ch=8 n=77 v=96
165719 On ch=8 n=77 v=0
165719 On ch=8 n=65 v=0
165719 On ch=8 n=55 v=0
165720 On ch=8 n=55 v=96
165720 On ch=8 n=65 v=96
165720 On ch=8 n=74 v=96
165749 On ch=8 n=74 v=0
165749 On ch=8 n=65 v=0
165749 On ch=8 n=55 v=0
165750 On ch=8 n=55 v=96
165750 On ch=8 n=65 v=96
165750 On ch=8 n=74 v=96
165779 On ch=8 n=74 v=0
165779 On ch=8 n=65 v=0
165779 On ch=8 n=55 v=0
165780 On ch=8 n=55 v=96
165780 On ch=8 n=65 v=96
165780 On ch=8 n=71 v=96
165809 On ch=8 n=71 v=0
165809 On ch=8 n=65 v=0
165809 On ch=8 n=55 v=0
165810 On ch=8 n=55 v=96
165810 On ch=8 n=65 v=96
165810 On ch=8 n=71 v=96
165839 On ch=8 n=71 v=0
165839 On ch=8 n=65 v=0
165839 On ch=8 n=55 v=0
165840 On ch=8 n=55 v=96
165840 On ch=8 n=65 v=96
165840 On ch=8 n=67 v=96
165869 On ch=8 n=67 v=0
165869 On ch=8 n=65 v=0
165869 On ch=8 n=55 v=0
165870 On ch=8 n=55 v=96
165870 On ch=8 n=65 v=96
165870 On ch=8 n=67 v=96
165899 On ch=8 n=67 v=0
165899 On ch=8 n=65 v=0
165899 On ch=8 n=55 v=0
165900 On ch=8 n=55 v=96
165900 On ch=8 n=65 v=96
165929 On ch=8 n=65 v=0
165929 On ch=8 n=55 v=0
165930 On ch=8 n=55 v=96
165930 On ch=8 n=65 v=96
165959 On ch=8 n=65 v=0
165959 On ch=8 n=55 v=0
165960 On ch=8 n=55 v=96
165960 On ch=8 n=65 v=96
165960 On ch=8 n=62 v=96
165989 On ch=8 n=62 v=0
165989 On ch=8 n=65 v=0
165989 On ch=8 n=55 v=0
165990 On ch=8 n=55 v=96
165990 On ch=8 n=65 v=96
165990 On ch=8 n=62 v=96
166019 On ch=8 n=62 v=0
166019 On ch=8 n=65 v=0
166019 On ch=8 n=55 v=0
166020 On ch=8 n=55 v=96
166020 On ch=8 n=65 v=96
166049 On ch=8 n=65 v=0
166049 On ch=8 n=55 v=0
166050 On ch=8 n=55 v=96
166050 On ch=8 n=65 v=96
166079 On ch=8 n=65 v=0
166079 On ch=8 n=55 v=0
166080 On ch=8 n=55 v=96
166080 On ch=8 n=65 v=96
166080 On ch=8 n=62 v=96
166109 On ch=8 n=62 v=0
166109 On ch=8 n=65 v=0
166109 On ch=8 n=55 v=0
166110 On ch=8 n=55 v=96
166110 On ch=8 n=65 v=96
166110 On ch=8 n=62 v=96
166139 On ch=8 n=62 v=0
166139 On ch=8 n=65 v=0
166139 On ch=8 n=55 v=0
166140 On ch=8 n=55 v=96
166140 On ch=8 n=65 v=96
166140 On ch=8 n=59 v=96
166169 On ch=8 n=59 v=0
166169 On ch=8 n=65 v=0
166169 On ch=8 n=55 v=0
166170 On ch=8 n=55 v=96
166170 On ch=8 n=65 v=96
166170 On ch=8 n=59 v=96
166199 On ch=8 n=59 v=0
166199 On ch=8 n=65 v=0
166199 On ch=8 n=55 v=0
166200 On ch=8 n=65 v=96
166200 On ch=8 n=55 v=96
166229 On ch=8 n=55 v=0
166229 On ch=8 n=65 v=0
166230 On ch=8 n=65 v=96
166230 On ch=8 n=55 v=96
166259 On ch=8 n=55 v=0
166259 On ch=8 n=65 v=0
166260 On ch=8 n=55 v=96
166260 On ch=8 n=65 v=96
166260 On ch=8 n=59 v=96
166289 On ch=8 n=59 v=0
166289 On ch=8 n=65 v=0
166289 On ch=8 n=55 v=0
166290 On ch=8 n=55 v=96
166290 On ch=8 n=65 v=96
166290 On ch=8 n=59 v=96
166319 On ch=8 n=59 v=0
166319 On ch=8 n=65 v=0
166319 On ch=8 n=55 v=0
166320 On ch=8 n=55 v=96
166320 On ch=8 n=60 v=96
166320 On ch=8 n=63 v=96
166349 On ch=8 n=63 v=0
166349 On ch=8 n=60 v=0
166349 On ch=8 n=55 v=0
166350 On ch=8 n=60 v=96
166379 On ch=8 n=60 v=0
166380 On ch=8 n=60 v=96
166409 On ch=8 n=60 v=0
166410 On ch=8 n=60 v=96
166439 On ch=8 n=60 v=0
166440 On ch=8 n=63 v=96
166469 On ch=8 n=63 v=0
166470 On ch=8 n=63 v=96
166499 On ch=8 n=63 v=0
166500 On ch=8 n=63 v=96
166529 On ch=8 n=63 v=0
166530 On ch=8 n=63 v=96
166559 On ch=8 n=63 v=0
166560 On ch=8 n=67 v=96
166589 On ch=8 n=67 v=0
166590 On ch=8 n=67 v=96
166619 On ch=8 n=67 v=0
166620 On ch=8 n=67 v=96
166649 On ch=8 n=67 v=0
166650 On ch=8 n=67 v=96
166679 On ch=8 n=67 v=0
166680 On ch=8 n=68 v=112
166709 On ch=8 n=68 v=0
166710 On ch=8 n=68 v=96
166739 On ch=8 n=68 v=0
166740 On ch=8 n=68 v=96
166769 On ch=8 n=68 v=0
166770 On ch=8 n=68 v=96
166799 On ch=8 n=68 v=0
166800 On ch=8 n=68 v=96
166829 On ch=8 n=68 v=0
166830 On ch=8 n=68 v=96
166859 On ch=8 n=68 v=0
166860 On ch=8 n=68 v=96
166889 On ch=8 n=68 v=0
166890 On ch=8 n=68 v=96
166919 On ch=8 n=68 v=0
166920 On ch=8 n=60 v=96
166949 On ch=8 n=60 v=0
166950 On ch=8 n=60 v=96
166979 On ch=8 n=60 v=0
166980 On ch=8 n=60 v=96
167009 On ch=8 n=60 v=0
167010 On ch=8 n=60 v=96
167039 On ch=8 n=60 v=0
167040 On ch=8 n=61 v=96
167069 On ch=8 n=61 v=0
167070 On ch=8 n=61 v=96
167099 On ch=8 n=61 v=0
167100 On ch=8 n=61 v=96
167129 On ch=8 n=61 v=0
167130 On ch=8 n=61 v=96
167159 On ch=8 n=61 v=0
167160 On ch=8 n=65 v=96
167189 On ch=8 n=65 v=0
167190 On ch=8 n=65 v=96
167219 On ch=8 n=65 v=0
167220 On ch=8 n=65 v=96
167249 On ch=8 n=65 v=0
167250 On ch=8 n=65 v=96
167279 On ch=8 n=65 v=0
167280 On ch=8 n=69 v=96
167309 On ch=8 n=69 v=0
167310 On ch=8 n=69 v=96
167339 On ch=8 n=69 v=0
167340 On ch=8 n=69 v=96
167369 On ch=8 n=69 v=0
167370 On ch=8 n=69 v=96
167399 On ch=8 n=69 v=0
167400 On ch=8 n=70 v=112
167429 On ch=8 n=70 v=0
167430 On ch=8 n=70 v=96
167459 On ch=8 n=70 v=0
167460 On ch=8 n=70 v=96
167489 On ch=8 n=70 v=0
167490 On ch=8 n=70 v=96
167519 On ch=8 n=70 v=0
167520 On ch=8 n=70 v=96
167549 On ch=8 n=70 v=0
167550 On ch=8 n=70 v=96
167579 On ch=8 n=70 v=0
167580 On ch=8 n=70 v=96
167609 On ch=8 n=70 v=0
167610 On ch=8 n=70 v=96
167639 On ch=8 n=70 v=0
167640 On ch=8 n=62 v=96
167669 On ch=8 n=62 v=0
167670 On ch=8 n=62 v=96
167699 On ch=8 n=62 v=0
167700 On ch=8 n=62 v=96
167729 On ch=8 n=62 v=0
167730 On ch=8 n=62 v=96
167759 On ch=8 n=62 v=0
167760 On ch=8 n=63 v=96
167789 On ch=8 n=63 v=0
167790 On ch=8 n=58 v=96
167790 On ch=8 n=63 v=96
167819 On ch=8 n=63 v=0
167819 On ch=8 n=58 v=0
167820 On ch=8 n=58 v=96
167820 On ch=8 n=67 v=96
167820 On ch=8 n=63 v=96
167849 On ch=8 n=63 v=0
167849 On ch=8 n=67 v=0
167849 On ch=8 n=58 v=0
167850 On ch=8 n=58 v=96
167850 On ch=8 n=67 v=96
167850 On ch=8 n=63 v=96
167879 On ch=8 n=63 v=0
167879 On ch=8 n=67 v=0
167879 On ch=8 n=58 v=0
167880 On ch=8 n=58 v=96
167880 On ch=8 n=67 v=96
167909 On ch=8 n=67 v=0
167909 On ch=8 n=58 v=0
167910 On ch=8 n=58 v=96
167910 On ch=8 n=67 v=96
167939 On ch=8 n=67 v=0
167939 On ch=8 n=58 v=0
167940 On ch=8 n=58 v=96
167940 On ch=8 n=67 v=96
167969 On ch=8 n=67 v=0
167969 On ch=8 n=58 v=0
167970 On ch=8 n=58 v=96
167970 On ch=8 n=67 v=96
167999 On ch=8 n=67 v=0
167999 On ch=8 n=58 v=0
168000 On ch=8 n=67 v=96
168000 On ch=8 n=58 v=96
168000 On ch=8 n=70 v=96
168029 On ch=8 n=70 v=0
168029 On ch=8 n=58 v=0
168029 On ch=8 n=67 v=0
168030 On ch=8 n=67 v=96
168030 On ch=8 n=58 v=96
168030 On ch=8 n=70 v=96
168059 On ch=8 n=70 v=0
168059 On ch=8 n=58 v=0
168059 On ch=8 n=67 v=0
168060 On ch=8 n=67 v=96
168060 On ch=8 n=58 v=96
168060 On ch=8 n=70 v=96
168089 On ch=8 n=70 v=0
168089 On ch=8 n=58 v=0
168089 On ch=8 n=67 v=0
168090 On ch=8 n=67 v=96
168090 On ch=8 n=58 v=96
168090 On ch=8 n=70 v=96
168119 On ch=8 n=70 v=0
168119 On ch=8 n=58 v=0
168119 On ch=8 n=67 v=0
168120 On ch=8 n=67 v=96
168120 On ch=8 n=58 v=96
168120 On ch=8 n=75 v=96
168149 On ch=8 n=75 v=0
168149 On ch=8 n=58 v=0
168149 On ch=8 n=67 v=0
168150 On ch=8 n=67 v=96
168150 On ch=8 n=58 v=96
168150 On ch=8 n=75 v=96
168179 On ch=8 n=75 v=0
168179 On ch=8 n=58 v=0
168179 On ch=8 n=67 v=0
168180 On ch=8 n=67 v=96
168180 On ch=8 n=58 v=96
168180 On ch=8 n=75 v=96
168209 On ch=8 n=75 v=0
168209 On ch=8 n=58 v=0
168209 On ch=8 n=67 v=0
168210 On ch=8 n=67 v=96
168210 On ch=8 n=58 v=96
168210 On ch=8 n=75 v=96
168239 On ch=8 n=75 v=0
168239 On ch=8 n=58 v=0
168239 On ch=8 n=67 v=0
168240 On ch=8 n=67 v=96
168240 On ch=8 n=58 v=96
168240 On ch=8 n=79 v=96
168269 On ch=8 n=79 v=0
168269 On ch=8 n=58 v=0
168269 On ch=8 n=67 v=0
168270 On ch=8 n=67 v=96
168270 On ch=8 n=58 v=96
168270 On ch=8 n=79 v=96
168299 On ch=8 n=79 v=0
168299 On ch=8 n=58 v=0
168299 On ch=8 n=67 v=0
168300 On ch=8 n=67 v=96
168300 On ch=8 n=58 v=96
168300 On ch=8 n=79 v=96
168329 On ch=8 n=79 v=0
168329 On ch=8 n=58 v=0
168329 On ch=8 n=67 v=0
168330 On ch=8 n=67 v=96
168330 On ch=8 n=58 v=96
168330 On ch=8 n=79 v=96
168359 On ch=8 n=79 v=0
168359 On ch=8 n=58 v=0
168359 On ch=8 n=67 v=0
168360 On ch=8 n=67 v=96
168360 On ch=8 n=58 v=96
168360 On ch=8 n=82 v=112
168389 On ch=8 n=82 v=0
168389 On ch=8 n=58 v=0
168389 On ch=8 n=67 v=0
168390 On ch=8 n=67 v=96
168390 On ch=8 n=58 v=96
168390 On ch=8 n=82 v=96
168419 On ch=8 n=82 v=0
168419 On ch=8 n=58 v=0
168419 On ch=8 n=67 v=0
168420 On ch=8 n=67 v=96
168420 On ch=8 n=58 v=96
168420 On ch=8 n=82 v=96
168449 On ch=8 n=82 v=0
168449 On ch=8 n=58 v=0
168449 On ch=8 n=67 v=0
168450 On ch=8 n=67 v=96
168450 On ch=8 n=58 v=96
168450 On ch=8 n=82 v=96
168479 On ch=8 n=82 v=0
168479 On ch=8 n=58 v=0
168479 On ch=8 n=67 v=0
168480 On ch=8 n=68 v=96
168480 On ch=8 n=58 v=96
168480 On ch=8 n=82 v=96
168509 On ch=8 n=82 v=0
168509 On ch=8 n=58 v=0
168509 On ch=8 n=68 v=0
168510 On ch=8 n=68 v=96
168510 On ch=8 n=58 v=96
168510 On ch=8 n=82 v=96
168539 On ch=8 n=82 v=0
168539 On ch=8 n=58 v=0
168539 On ch=8 n=68 v=0
168540 On ch=8 n=68 v=96
168540 On ch=8 n=58 v=96
168540 On ch=8 n=80 v=96
168569 On ch=8 n=80 v=0
168569 On ch=8 n=58 v=0
168569 On ch=8 n=68 v=0
168570 On ch=8 n=68 v=96
168570 On ch=8 n=58 v=96
168570 On ch=8 n=80 v=96
168599 On ch=8 n=80 v=0
168599 On ch=8 n=58 v=0
168599 On ch=8 n=68 v=0
168600 On ch=8 n=68 v=96
168600 On ch=8 n=58 v=96
168600 On ch=8 n=77 v=96
168629 On ch=8 n=77 v=0
168629 On ch=8 n=58 v=0
168629 On ch=8 n=68 v=0
168630 On ch=8 n=68 v=96
168630 On ch=8 n=58 v=96
168630 On ch=8 n=77 v=96
168659 On ch=8 n=77 v=0
168659 On ch=8 n=58 v=0
168659 On ch=8 n=68 v=0
168660 On ch=8 n=68 v=96
168660 On ch=8 n=58 v=96
168660 On ch=8 n=74 v=96
168689 On ch=8 n=74 v=0
168689 On ch=8 n=58 v=0
168689 On ch=8 n=68 v=0
168690 On ch=8 n=68 v=96
168690 On ch=8 n=58 v=96
168690 On ch=8 n=74 v=96
168719 On ch=8 n=74 v=0
168719 On ch=8 n=58 v=0
168719 On ch=8 n=68 v=0
168720 On ch=8 n=68 v=96
168720 On ch=8 n=58 v=96
168720 On ch=8 n=70 v=96
168749 On ch=8 n=70 v=0
168749 On ch=8 n=58 v=0
168749 On ch=8 n=68 v=0
168750 On ch=8 n=68 v=96
168750 On ch=8 n=58 v=96
168750 On ch=8 n=70 v=96
168779 On ch=8 n=70 v=0
168779 On ch=8 n=58 v=0
168779 On ch=8 n=68 v=0
168780 On ch=8 n=58 v=96
168780 On ch=8 n=68 v=96
168809 On ch=8 n=68 v=0
168809 On ch=8 n=58 v=0
168810 On ch=8 n=58 v=96
168810 On ch=8 n=68 v=96
168839 On ch=8 n=68 v=0
168839 On ch=8 n=58 v=0
168840 On ch=8 n=68 v=96
168840 On ch=8 n=58 v=96
168840 On ch=8 n=65 v=96
168869 On ch=8 n=65 v=0
168869 On ch=8 n=58 v=0
168869 On ch=8 n=68 v=0
168870 On ch=8 n=68 v=96
168870 On ch=8 n=58 v=96
168870 On ch=8 n=65 v=96
168899 On ch=8 n=65 v=0
168899 On ch=8 n=58 v=0
168899 On ch=8 n=68 v=0
168900 On ch=8 n=58 v=96
168900 On ch=8 n=68 v=96
168929 On ch=8 n=68 v=0
168929 On ch=8 n=58 v=0
168930 On ch=8 n=58 v=96
168930 On ch=8 n=68 v=96
168959 On ch=8 n=68 v=0
168959 On ch=8 n=58 v=0
168960 On ch=8 n=68 v=96
168960 On ch=8 n=58 v=96
168960 On ch=8 n=65 v=96
168989 On ch=8 n=65 v=0
168989 On ch=8 n=58 v=0
168989 On ch=8 n=68 v=0
168990 On ch=8 n=68 v=96
168990 On ch=8 n=58 v=96
168990 On ch=8 n=65 v=96
169019 On ch=8 n=65 v=0
169019 On ch=8 n=58 v=0
169019 On ch=8 n=68 v=0
169020 On ch=8 n=68 v=96
169020 On ch=8 n=58 v=96
169020 On ch=8 n=62 v=96
169049 On ch=8 n=62 v=0
169049 On ch=8 n=58 v=0
169049 On ch=8 n=68 v=0
169050 On ch=8 n=68 v=96
169050 On ch=8 n=58 v=96
169050 On ch=8 n=62 v=96
169079 On ch=8 n=62 v=0
169079 On ch=8 n=58 v=0
169079 On ch=8 n=68 v=0
169080 On ch=8 n=68 v=96
169080 On ch=8 n=58 v=96
169109 On ch=8 n=58 v=0
169109 On ch=8 n=68 v=0
169110 On ch=8 n=68 v=96
169110 On ch=8 n=58 v=96
169139 On ch=8 n=58 v=0
169139 On ch=8 n=68 v=0
169140 On ch=8 n=68 v=96
169140 On ch=8 n=58 v=96
169140 On ch=8 n=62 v=96
169169 On ch=8 n=62 v=0
169169 On ch=8 n=58 v=0
169169 On ch=8 n=68 v=0
169170 On ch=8 n=68 v=96
169170 On ch=8 n=58 v=96
169170 On ch=8 n=62 v=96
169199 On ch=8 n=62 v=0
169199 On ch=8 n=58 v=0
169199 On ch=8 n=68 v=0
169200 On ch=8 n=66 v=96
169200 On ch=8 n=58 v=127
169200 On ch=8 n=63 v=127
169229 On ch=8 n=63 v=0
169229 On ch=8 n=58 v=0
169229 On ch=8 n=66 v=0
169230 On ch=8 n=63 v=127
169259 On ch=8 n=63 v=0
169260 On ch=8 n=63 v=127
169289 On ch=8 n=63 v=0
169290 On ch=8 n=63 v=127
169319 On ch=8 n=63 v=0
169320 On ch=8 n=66 v=127
169349 On ch=8 n=66 v=0
169350 On ch=8 n=66 v=127
169379 On ch=8 n=66 v=0
169380 On ch=8 n=66 v=127
169409 On ch=8 n=66 v=0
169410 On ch=8 n=66 v=127
169439 On ch=8 n=66 v=0
169440 On ch=8 n=70 v=127
169469 On ch=8 n=70 v=0
169470 On ch=8 n=70 v=127
169499 On ch=8 n=70 v=0
169500 On ch=8 n=70 v=127
169529 On ch=8 n=70 v=0
169530 On ch=8 n=70 v=127
169530 On ch=8 n=70 v=127
169559 On ch=8 n=70 v=0
169559 On ch=8 n=70 v=0
169560 On ch=8 n=63 v=127
169560 On ch=8 n=75 v=127
169589 On ch=8 n=75 v=0
169589 On ch=8 n=63 v=0
169590 On ch=8 n=63 v=127
169590 On ch=8 n=75 v=127
169619 On ch=8 n=75 v=0
169619 On ch=8 n=63 v=0
169620 On ch=8 n=63 v=127
169620 On ch=8 n=75 v=127
169649 On ch=8 n=75 v=0
169649 On ch=8 n=63 v=0
169650 On ch=8 n=63 v=127
169650 On ch=8 n=75 v=127
169679 On ch=8 n=75 v=0
169679 On ch=8 n=63 v=0
169680 On ch=8 n=66 v=127
169680 On ch=8 n=78 v=127
169709 On ch=8 n=78 v=0
169709 On ch=8 n=66 v=0
169710 On ch=8 n=66 v=127
169710 On ch=8 n=78 v=127
169739 On ch=8 n=78 v=0
169739 On ch=8 n=66 v=0
169740 On ch=8 n=66 v=127
169740 On ch=8 n=78 v=127
169769 On ch=8 n=78 v=0
169769 On ch=8 n=66 v=0
169770 On ch=8 n=66 v=127
169770 On ch=8 n=78 v=127
169799 On ch=8 n=78 v=0
169799 On ch=8 n=66 v=0
169800 On ch=8 n=70 v=127
169800 On ch=8 n=82 v=127
169829 On ch=8 n=82 v=0
169829 On ch=8 n=70 v=0
169830 On ch=8 n=70 v=127
169830 On ch=8 n=82 v=127
169859 On ch=8 n=82 v=0
169859 On ch=8 n=70 v=0
169860 On ch=8 n=70 v=127
169860 On ch=8 n=82 v=127
169889 On ch=8 n=82 v=0
169889 On ch=8 n=70 v=0
169890 On ch=8 n=70 v=127
169890 On ch=8 n=82 v=127
169919 On ch=8 n=82 v=0
169919 On ch=8 n=70 v=0
169920 On ch=8 n=75 v=127
169920 On ch=8 n=87 v=127
169979 On ch=8 n=87 v=0
169979 On ch=8 n=75 v=0
169980 On ch=8 n=58 v=48
169980 On ch=8 n=70 v=48
170099 On ch=8 n=70 v=0
170099 On ch=8 n=58 v=0
170100 On ch=8 n=58 v=48
170100 On ch=8 n=70 v=48
170219 On ch=8 n=70 v=0
170219 On ch=8 n=58 v=0
170220 On ch=8 n=58 v=48
170220 On ch=8 n=70 v=48
170339 On ch=8 n=70 v=0
170339 On ch=8 n=58 v=0
170340 On ch=8 n=58 v=48
170340 On ch=8 n=70 v=48
170459 On ch=8 n=70 v=0
170459 On ch=8 n=58 v=0
170460 On ch=8 n=58 v=48
170460 On ch=8 n=70 v=48
170579 On ch=8 n=70 v=0
170579 On ch=8 n=58 v=0
170580 On ch=8 n=58 v=48
170580 On ch=8 n=70 v=48
170699 On ch=8 n=70 v=0
170699 On ch=8 n=58 v=0
170700 On ch=8 n=70 v=48
170700 On ch=8 n=82 v=48
170819 On ch=8 n=82 v=0
170819 On ch=8 n=70 v=0
170820 On ch=8 n=70 v=48
170820 On ch=8 n=82 v=48
170939 On ch=8 n=82 v=0
170939 On ch=8 n=70 v=0
170940 On ch=8 n=70 v=48
170940 On ch=8 n=82 v=48
171059 On ch=8 n=82 v=0
171059 On ch=8 n=70 v=0
171060 On ch=8 n=70 v=48
171060 On ch=8 n=82 v=48
171179 On ch=8 n=82 v=0
171179 On ch=8 n=70 v=0
171180 On ch=8 n=70 v=48
171180 On ch=8 n=82 v=48
171299 On ch=8 n=82 v=0
171299 On ch=8 n=70 v=0
171300 On ch=8 n=70 v=48
171300 On ch=8 n=82 v=48
171419 On ch=8 n=82 v=0
171419 On ch=8 n=70 v=0
171420 On ch=8 n=70 v=48
171539 On ch=8 n=70 v=0
171540 On ch=8 n=70 v=48
171659 On ch=8 n=70 v=0
171660 On ch=8 n=70 v=48
171779 On ch=8 n=70 v=0
171780 On ch=8 n=71 v=48
171840 On ch=8 n=66 v=40
171899 On ch=8 n=71 v=0
171900 On ch=8 n=71 v=40
171959 On ch=8 n=66 v=0
171960 On ch=8 n=66 v=32
172019 On ch=8 n=71 v=0
172020 On ch=8 n=71 v=32
172079 On ch=8 n=66 v=0
172080 On ch=8 n=68 v=34
172139 On ch=8 n=68 v=0
172139 On ch=8 n=71 v=0
172140 On ch=8 n=68 v=34
172140 On ch=8 n=68 v=32
172259 On ch=8 n=68 v=0
172259 On ch=8 n=68 v=0
172260 On ch=8 n=68 v=37
172320 On ch=8 n=61 v=40
172379 On ch=8 n=68 v=0
172380 On ch=8 n=68 v=40
172440 On ch=8 n=59 v=42
172449 On ch=8 n=61 v=0
172499 On ch=8 n=68 v=0
172500 On ch=8 n=65 v=42
172559 On ch=8 n=59 v=0
172619 On ch=8 n=65 v=0
172620 On ch=8 n=65 v=45
172680 On ch=8 n=59 v=48
172739 On ch=8 n=65 v=0
172740 On ch=8 n=65 v=48
172799 On ch=8 n=65 v=0
172800 On ch=8 n=58 v=48
172800 On ch=8 n=66 v=48
172809 On ch=8 n=59 v=0
172919 On ch=8 n=66 v=0
172920 On ch=8 n=66 v=48
173040 On ch=8 n=68 v=48
173049 On ch=8 n=66 v=0
173160 On ch=8 n=70 v=48
173169 On ch=8 n=68 v=0
173340 On ch=8 n=68 v=48
173349 On ch=8 n=70 v=0
173400 On ch=8 n=66 v=48
173409 On ch=8 n=68 v=0
173519 On ch=8 n=66 v=0
173519 On ch=8 n=58 v=0
173520 On ch=8 n=59 v=48
173520 On ch=8 n=65 v=48
173639 On ch=8 n=59 v=0
173640 On ch=8 n=71 v=48
173760 On ch=8 n=73 v=48
173769 On ch=8 n=71 v=0
173880 On ch=8 n=75 v=48
173889 On ch=8 n=73 v=0
174060 On ch=8 n=73 v=48
174069 On ch=8 n=75 v=0
174120 On ch=8 n=71 v=48
174129 On ch=8 n=73 v=0
174239 On ch=8 n=71 v=0
174239 On ch=8 n=65 v=0
174240 On ch=8 n=66 v=48
174240 On ch=8 n=70 v=48
174299 On ch=8 n=70 v=0
174299 On ch=8 n=66 v=0
174300 On ch=8 n=66 v=48
174300 On ch=8 n=58 v=48
174300 On ch=8 n=70 v=48
174419 On ch=8 n=70 v=0
174419 On ch=8 n=58 v=0
174419 On ch=8 n=66 v=0
174420 On ch=8 n=66 v=48
174420 On ch=8 n=58 v=48
174420 On ch=8 n=70 v=48
174539 On ch=8 n=70 v=0
174539 On ch=8 n=58 v=0
174539 On ch=8 n=66 v=0
174540 On ch=8 n=66 v=48
174540 On ch=8 n=58 v=48
174540 On ch=8 n=70 v=48
174659 On ch=8 n=70 v=0
174659 On ch=8 n=58 v=0
174659 On ch=8 n=66 v=0
174660 On ch=8 n=66 v=48
174660 On ch=8 n=58 v=48
174660 On ch=8 n=70 v=48
174779 On ch=8 n=70 v=0
174779 On ch=8 n=58 v=0
174779 On ch=8 n=66 v=0
174780 On ch=8 n=66 v=48
174780 On ch=8 n=58 v=48
174780 On ch=8 n=70 v=48
174899 On ch=8 n=70 v=0
174899 On ch=8 n=58 v=0
174899 On ch=8 n=66 v=0
174900 On ch=8 n=66 v=48
174900 On ch=8 n=58 v=48
174900 On ch=8 n=70 v=48
174960 On ch=8 n=68 v=48
174969 On ch=8 n=66 v=0
175019 On ch=8 n=58 v=0
175019 On ch=8 n=70 v=0
175019 On ch=8 n=68 v=0
175020 On ch=8 n=68 v=48
175020 On ch=8 n=58 v=48
175020 On ch=8 n=70 v=48
175139 On ch=8 n=70 v=0
175139 On ch=8 n=58 v=0
175139 On ch=8 n=68 v=0
175140 On ch=8 n=68 v=48
175140 On ch=8 n=58 v=48
175140 On ch=8 n=70 v=48
175259 On ch=8 n=70 v=0
175259 On ch=8 n=58 v=0
175259 On ch=8 n=68 v=0
175260 On ch=8 n=68 v=48
175260 On ch=8 n=58 v=48
175260 On ch=8 n=70 v=48
175320 On ch=8 n=66 v=48
175329 On ch=8 n=68 v=0
175379 On ch=8 n=58 v=0
175379 On ch=8 n=70 v=0
175379 On ch=8 n=66 v=0
175380 On ch=8 n=66 v=48
175380 On ch=8 n=58 v=48
175380 On ch=8 n=70 v=48
175499 On ch=8 n=70 v=0
175499 On ch=8 n=58 v=0
175499 On ch=8 n=66 v=0
175500 On ch=8 n=66 v=48
175500 On ch=8 n=58 v=48
175500 On ch=8 n=70 v=48
175619 On ch=8 n=70 v=0
175619 On ch=8 n=58 v=0
175619 On ch=8 n=66 v=0
175620 On ch=8 n=66 v=48
175620 On ch=8 n=58 v=48
175620 On ch=8 n=70 v=48
175679 On ch=8 n=70 v=0
175679 On ch=8 n=66 v=0
175680 On ch=8 n=65 v=48
175680 On ch=8 n=62 v=48
175680 On ch=8 n=70 v=48
175709 On ch=8 n=70 v=0
175709 On ch=8 n=58 v=0
175709 On ch=8 n=65 v=0
175709 On ch=8 n=62 v=0
175710 On ch=8 n=65 v=48
175710 On ch=8 n=62 v=48
175710 On ch=8 n=70 v=48
175710 On ch=8 n=58 v=48
175739 On ch=8 n=58 v=0
175739 On ch=8 n=65 v=0
175739 On ch=8 n=62 v=0
175739 On ch=8 n=70 v=0
175740 On ch=8 n=65 v=48
175740 On ch=8 n=62 v=48
175740 On ch=8 n=70 v=48
175740 On ch=8 n=58 v=48
175769 On ch=8 n=58 v=0
175769 On ch=8 n=65 v=0
175769 On ch=8 n=62 v=0
175769 On ch=8 n=70 v=0
175770 On ch=8 n=65 v=48
175770 On ch=8 n=62 v=48
175770 On ch=8 n=70 v=48
175770 On ch=8 n=58 v=48
175799 On ch=8 n=58 v=0
175799 On ch=8 n=65 v=0
175799 On ch=8 n=62 v=0
175799 On ch=8 n=70 v=0
175800 On ch=8 n=65 v=48
175800 On ch=8 n=62 v=48
175800 On ch=8 n=70 v=48
175800 On ch=8 n=58 v=48
175829 On ch=8 n=58 v=0
175829 On ch=8 n=65 v=0
175829 On ch=8 n=62 v=0
175829 On ch=8 n=70 v=0
175830 On ch=8 n=65 v=48
175830 On ch=8 n=62 v=48
175830 On ch=8 n=70 v=48
175830 On ch=8 n=58 v=48
175859 On ch=8 n=58 v=0
175859 On ch=8 n=65 v=0
175859 On ch=8 n=62 v=0
175859 On ch=8 n=70 v=0
175860 On ch=8 n=65 v=48
175860 On ch=8 n=62 v=48
175860 On ch=8 n=70 v=48
175860 On ch=8 n=58 v=48
175889 On ch=8 n=58 v=0
175889 On ch=8 n=65 v=0
175889 On ch=8 n=62 v=0
175889 On ch=8 n=70 v=0
175890 On ch=8 n=65 v=48
175890 On ch=8 n=62 v=48
175890 On ch=8 n=70 v=48
175890 On ch=8 n=58 v=48
175919 On ch=8 n=58 v=0
175919 On ch=8 n=65 v=0
175919 On ch=8 n=62 v=0
175919 On ch=8 n=70 v=0
175920 On ch=8 n=65 v=48
175920 On ch=8 n=62 v=48
175920 On ch=8 n=70 v=48
175920 On ch=8 n=58 v=48
175949 On ch=8 n=58 v=0
175949 On ch=8 n=65 v=0
175949 On ch=8 n=62 v=0
175949 On ch=8 n=70 v=0
175950 On ch=8 n=65 v=48
175950 On ch=8 n=62 v=48
175950 On ch=8 n=70 v=48
175950 On ch=8 n=58 v=48
175979 On ch=8 n=58 v=0
175979 On ch=8 n=65 v=0
175979 On ch=8 n=62 v=0
175979 On ch=8 n=70 v=0
175980 On ch=8 n=65 v=48
175980 On ch=8 n=62 v=48
175980 On ch=8 n=70 v=48
175980 On ch=8 n=58 v=48
176009 On ch=8 n=58 v=0
176009 On ch=8 n=65 v=0
176009 On ch=8 n=62 v=0
176009 On ch=8 n=70 v=0
176010 On ch=8 n=65 v=48
176010 On ch=8 n=62 v=48
176010 On ch=8 n=70 v=48
176010 On ch=8 n=58 v=48
176039 On ch=8 n=58 v=0
176039 On ch=8 n=65 v=0
176039 On ch=8 n=62 v=0
176039 On ch=8 n=70 v=0
176040 On ch=8 n=58 v=48
176040 On ch=8 n=65 v=48
176040 On ch=8 n=62 v=48
176040 On ch=8 n=70 v=48
176069 On ch=8 n=70 v=0
176069 On ch=8 n=58 v=0
176069 On ch=8 n=65 v=0
176069 On ch=8 n=62 v=0
176070 On ch=8 n=65 v=48
176070 On ch=8 n=62 v=48
176070 On ch=8 n=70 v=48
176070 On ch=8 n=58 v=48
176099 On ch=8 n=58 v=0
176099 On ch=8 n=65 v=0
176099 On ch=8 n=62 v=0
176099 On ch=8 n=70 v=0
176100 On ch=8 n=65 v=48
176100 On ch=8 n=62 v=48
176100 On ch=8 n=70 v=48
176100 On ch=8 n=58 v=48
176129 On ch=8 n=58 v=0
176129 On ch=8 n=65 v=0
176129 On ch=8 n=62 v=0
176129 On ch=8 n=70 v=0
176130 On ch=8 n=65 v=48
176130 On ch=8 n=62 v=48
176130 On ch=8 n=70 v=48
176130 On ch=8 n=58 v=48
176159 On ch=8 n=58 v=0
176159 On ch=8 n=65 v=0
176159 On ch=8 n=62 v=0
176159 On ch=8 n=70 v=0
176160 On ch=8 n=65 v=48
176160 On ch=8 n=62 v=48
176160 On ch=8 n=70 v=48
176160 On ch=8 n=58 v=48
176189 On ch=8 n=58 v=0
176189 On ch=8 n=65 v=0
176189 On ch=8 n=62 v=0
176189 On ch=8 n=70 v=0
176190 On ch=8 n=65 v=48
176190 On ch=8 n=62 v=48
176190 On ch=8 n=70 v=48
176190 On ch=8 n=58 v=48
176219 On ch=8 n=58 v=0
176219 On ch=8 n=65 v=0
176219 On ch=8 n=62 v=0
176219 On ch=8 n=70 v=0
176220 On ch=8 n=65 v=48
176220 On ch=8 n=62 v=48
176220 On ch=8 n=70 v=48
176220 On ch=8 n=58 v=48
176249 On ch=8 n=58 v=0
176249 On ch=8 n=65 v=0
176249 On ch=8 n=62 v=0
176249 On ch=8 n=70 v=0
176250 On ch=8 n=65 v=48
176250 On ch=8 n=62 v=48
176250 On ch=8 n=70 v=48
176250 On ch=8 n=58 v=48
176279 On ch=8 n=58 v=0
176279 On ch=8 n=65 v=0
176279 On ch=8 n=62 v=0
176279 On ch=8 n=70 v=0
176280 On ch=8 n=65 v=48
176280 On ch=8 n=62 v=48
176280 On ch=8 n=70 v=48
176280 On ch=8 n=58 v=48
176309 On ch=8 n=58 v=0
176309 On ch=8 n=65 v=0
176309 On ch=8 n=62 v=0
176309 On ch=8 n=70 v=0
176310 On ch=8 n=65 v=48
176310 On ch=8 n=62 v=48
176310 On ch=8 n=70 v=48
176310 On ch=8 n=58 v=48
176339 On ch=8 n=58 v=0
176339 On ch=8 n=65 v=0
176339 On ch=8 n=62 v=0
176339 On ch=8 n=70 v=0
176340 On ch=8 n=65 v=48
176340 On ch=8 n=62 v=48
176340 On ch=8 n=70 v=48
176340 On ch=8 n=58 v=48
176369 On ch=8 n=58 v=0
176369 On ch=8 n=65 v=0
176369 On ch=8 n=62 v=0
176369 On ch=8 n=70 v=0
176370 On ch=8 n=65 v=48
176370 On ch=8 n=62 v=48
176370 On ch=8 n=70 v=48
176370 On ch=8 n=58 v=48
176399 On ch=8 n=58 v=0
176399 On ch=8 n=65 v=0
176399 On ch=8 n=62 v=0
176399 On ch=8 n=70 v=0
176400 On ch=8 n=58 v=48
176400 On ch=8 n=65 v=48
176400 On ch=8 n=62 v=48
176400 On ch=8 n=70 v=48
176429 On ch=8 n=70 v=0
176429 On ch=8 n=58 v=0
176429 On ch=8 n=65 v=0
176429 On ch=8 n=62 v=0
176430 On ch=8 n=65 v=48
176430 On ch=8 n=62 v=48
176430 On ch=8 n=70 v=48
176430 On ch=8 n=58 v=48
176459 On ch=8 n=58 v=0
176459 On ch=8 n=65 v=0
176459 On ch=8 n=62 v=0
176459 On ch=8 n=70 v=0
176460 On ch=8 n=65 v=48
176460 On ch=8 n=62 v=48
176460 On ch=8 n=70 v=48
176460 On ch=8 n=58 v=48
176489 On ch=8 n=58 v=0
176489 On ch=8 n=65 v=0
176489 On ch=8 n=62 v=0
176489 On ch=8 n=70 v=0
176490 On ch=8 n=65 v=48
176490 On ch=8 n=62 v=48
176490 On ch=8 n=70 v=48
176490 On ch=8 n=58 v=48
176519 On ch=8 n=58 v=0
176519 On ch=8 n=65 v=0
176519 On ch=8 n=62 v=0
176519 On ch=8 n=70 v=0
176520 On ch=8 n=65 v=48
176520 On ch=8 n=62 v=48
176520 On ch=8 n=70 v=48
176520 On ch=8 n=58 v=48
176549 On ch=8 n=58 v=0
176549 On ch=8 n=65 v=0
176549 On ch=8 n=62 v=0
176549 On ch=8 n=70 v=0
176550 On ch=8 n=65 v=48
176550 On ch=8 n=62 v=48
176550 On ch=8 n=70 v=48
176550 On ch=8 n=58 v=48
176579 On ch=8 n=58 v=0
176579 On ch=8 n=65 v=0
176579 On ch=8 n=62 v=0
176579 On ch=8 n=70 v=0
176580 On ch=8 n=65 v=48
176580 On ch=8 n=62 v=48
176580 On ch=8 n=70 v=48
176580 On ch=8 n=58 v=48
176609 On ch=8 n=58 v=0
176609 On ch=8 n=65 v=0
176609 On ch=8 n=62 v=0
176609 On ch=8 n=70 v=0
176610 On ch=8 n=65 v=48
176610 On ch=8 n=62 v=48
176610 On ch=8 n=70 v=48
176610 On ch=8 n=58 v=48
176639 On ch=8 n=58 v=0
176639 On ch=8 n=65 v=0
176639 On ch=8 n=62 v=0
176639 On ch=8 n=70 v=0
176640 On ch=8 n=65 v=48
176640 On ch=8 n=62 v=48
176640 On ch=8 n=70 v=48
176640 On ch=8 n=58 v=48
176669 On ch=8 n=58 v=0
176669 On ch=8 n=65 v=0
176669 On ch=8 n=62 v=0
176669 On ch=8 n=70 v=0
176670 On ch=8 n=65 v=48
176670 On ch=8 n=62 v=48
176670 On ch=8 n=70 v=48
176670 On ch=8 n=58 v=48
176699 On ch=8 n=58 v=0
176699 On ch=8 n=65 v=0
176699 On ch=8 n=62 v=0
176699 On ch=8 n=70 v=0
176700 On ch=8 n=65 v=48
176700 On ch=8 n=62 v=48
176700 On ch=8 n=70 v=48
176700 On ch=8 n=58 v=48
176729 On ch=8 n=58 v=0
176729 On ch=8 n=65 v=0
176729 On ch=8 n=62 v=0
176729 On ch=8 n=70 v=0
176730 On ch=8 n=65 v=48
176730 On ch=8 n=62 v=48
176730 On ch=8 n=70 v=48
176730 On ch=8 n=58 v=48
176759 On ch=8 n=58 v=0
176759 On ch=8 n=65 v=0
176759 On ch=8 n=62 v=0
176759 On ch=8 n=70 v=0
176760 On ch=8 n=70 v=96
176760 On ch=8 n=62 v=96
176760 On ch=8 n=58 v=96
176789 On ch=8 n=58 v=0
176789 On ch=8 n=62 v=0
176789 On ch=8 n=70 v=0
176790 On ch=8 n=62 v=48
176790 On ch=8 n=58 v=48
176790 On ch=8 n=70 v=48
176819 On ch=8 n=70 v=0
176819 On ch=8 n=58 v=0
176819 On ch=8 n=62 v=0
176820 On ch=8 n=62 v=48
176820 On ch=8 n=58 v=48
176820 On ch=8 n=70 v=48
176849 On ch=8 n=70 v=0
176849 On ch=8 n=58 v=0
176849 On ch=8 n=62 v=0
176850 On ch=8 n=62 v=48
176850 On ch=8 n=58 v=48
176850 On ch=8 n=70 v=48
176879 On ch=8 n=70 v=0
176879 On ch=8 n=58 v=0
176879 On ch=8 n=62 v=0
176880 On ch=8 n=74 v=48
176880 On ch=8 n=58 v=48
176880 On ch=8 n=62 v=48
176909 On ch=8 n=62 v=0
176909 On ch=8 n=58 v=0
176909 On ch=8 n=74 v=0
176910 On ch=8 n=74 v=48
176910 On ch=8 n=58 v=48
176910 On ch=8 n=62 v=48
176939 On ch=8 n=62 v=0
176939 On ch=8 n=58 v=0
176939 On ch=8 n=74 v=0
176940 On ch=8 n=74 v=48
176940 On ch=8 n=58 v=48
176940 On ch=8 n=62 v=48
176969 On ch=8 n=62 v=0
176969 On ch=8 n=58 v=0
176969 On ch=8 n=74 v=0
176970 On ch=8 n=74 v=48
176970 On ch=8 n=58 v=48
176970 On ch=8 n=62 v=48
176999 On ch=8 n=62 v=0
176999 On ch=8 n=58 v=0
176999 On ch=8 n=74 v=0
177000 On ch=8 n=77 v=48
177000 On ch=8 n=58 v=48
177000 On ch=8 n=62 v=48
177029 On ch=8 n=62 v=0
177029 On ch=8 n=58 v=0
177029 On ch=8 n=77 v=0
177030 On ch=8 n=77 v=48
177030 On ch=8 n=58 v=48
177030 On ch=8 n=62 v=48
177059 On ch=8 n=62 v=0
177059 On ch=8 n=58 v=0
177059 On ch=8 n=77 v=0
177060 On ch=8 n=77 v=48
177060 On ch=8 n=58 v=48
177060 On ch=8 n=62 v=48
177089 On ch=8 n=62 v=0
177089 On ch=8 n=58 v=0
177089 On ch=8 n=77 v=0
177090 On ch=8 n=77 v=48
177090 On ch=8 n=58 v=48
177090 On ch=8 n=62 v=48
177119 On ch=8 n=62 v=0
177119 On ch=8 n=58 v=0
177119 On ch=8 n=77 v=0
177120 On ch=8 n=66 v=48
177120 On ch=8 n=63 v=48
177120 On ch=8 n=58 v=48
177120 On ch=8 n=70 v=48
177149 On ch=8 n=70 v=0
177149 On ch=8 n=66 v=0
177149 On ch=8 n=63 v=0
177149 On ch=8 n=58 v=0
177150 On ch=8 n=66 v=48
177150 On ch=8 n=63 v=48
177150 On ch=8 n=58 v=48
177150 On ch=8 n=70 v=48
177179 On ch=8 n=70 v=0
177179 On ch=8 n=66 v=0
177179 On ch=8 n=63 v=0
177179 On ch=8 n=58 v=0
177180 On ch=8 n=66 v=48
177180 On ch=8 n=63 v=48
177180 On ch=8 n=58 v=48
177180 On ch=8 n=70 v=48
177209 On ch=8 n=70 v=0
177209 On ch=8 n=66 v=0
177209 On ch=8 n=63 v=0
177209 On ch=8 n=58 v=0
177210 On ch=8 n=66 v=48
177210 On ch=8 n=63 v=48
177210 On ch=8 n=58 v=48
177210 On ch=8 n=70 v=48
177239 On ch=8 n=70 v=0
177239 On ch=8 n=66 v=0
177239 On ch=8 n=63 v=0
177239 On ch=8 n=58 v=0
177240 On ch=8 n=66 v=48
177240 On ch=8 n=63 v=48
177240 On ch=8 n=58 v=48
177240 On ch=8 n=70 v=48
177269 On ch=8 n=70 v=0
177269 On ch=8 n=66 v=0
177269 On ch=8 n=63 v=0
177269 On ch=8 n=58 v=0
177270 On ch=8 n=66 v=48
177270 On ch=8 n=63 v=48
177270 On ch=8 n=58 v=48
177270 On ch=8 n=70 v=48
177299 On ch=8 n=70 v=0
177299 On ch=8 n=66 v=0
177299 On ch=8 n=63 v=0
177299 On ch=8 n=58 v=0
177300 On ch=8 n=66 v=48
177300 On ch=8 n=63 v=48
177300 On ch=8 n=58 v=48
177300 On ch=8 n=70 v=48
177329 On ch=8 n=70 v=0
177329 On ch=8 n=66 v=0
177329 On ch=8 n=63 v=0
177329 On ch=8 n=58 v=0
177330 On ch=8 n=66 v=48
177330 On ch=8 n=63 v=48
177330 On ch=8 n=58 v=48
177330 On ch=8 n=70 v=48
177359 On ch=8 n=70 v=0
177359 On ch=8 n=66 v=0
177359 On ch=8 n=63 v=0
177359 On ch=8 n=58 v=0
177360 On ch=8 n=66 v=48
177360 On ch=8 n=63 v=48
177360 On ch=8 n=58 v=48
177360 On ch=8 n=70 v=48
177389 On ch=8 n=70 v=0
177389 On ch=8 n=66 v=0
177389 On ch=8 n=63 v=0
177389 On ch=8 n=58 v=0
177390 On ch=8 n=66 v=48
177390 On ch=8 n=63 v=48
177390 On ch=8 n=58 v=48
177390 On ch=8 n=70 v=48
177419 On ch=8 n=70 v=0
177419 On ch=8 n=66 v=0
177419 On ch=8 n=63 v=0
177419 On ch=8 n=58 v=0
177420 On ch=8 n=66 v=48
177420 On ch=8 n=63 v=48
177420 On ch=8 n=58 v=48
177420 On ch=8 n=70 v=48
177449 On ch=8 n=70 v=0
177449 On ch=8 n=66 v=0
177449 On ch=8 n=63 v=0
177449 On ch=8 n=58 v=0
177450 On ch=8 n=66 v=48
177450 On ch=8 n=63 v=48
177450 On ch=8 n=58 v=48
177450 On ch=8 n=70 v=48
177479 On ch=8 n=70 v=0
177479 On ch=8 n=66 v=0
177479 On ch=8 n=63 v=0
177479 On ch=8 n=58 v=0
177480 On ch=8 n=66 v=48
177480 On ch=8 n=63 v=48
177480 On ch=8 n=58 v=48
177480 On ch=8 n=70 v=48
177509 On ch=8 n=70 v=0
177509 On ch=8 n=66 v=0
177509 On ch=8 n=63 v=0
177509 On ch=8 n=58 v=0
177510 On ch=8 n=66 v=48
177510 On ch=8 n=63 v=48
177510 On ch=8 n=58 v=48
177510 On ch=8 n=70 v=48
177539 On ch=8 n=70 v=0
177539 On ch=8 n=66 v=0
177539 On ch=8 n=63 v=0
177539 On ch=8 n=58 v=0
177540 On ch=8 n=66 v=48
177540 On ch=8 n=63 v=48
177540 On ch=8 n=58 v=48
177540 On ch=8 n=70 v=48
177569 On ch=8 n=70 v=0
177569 On ch=8 n=66 v=0
177569 On ch=8 n=63 v=0
177569 On ch=8 n=58 v=0
177570 On ch=8 n=66 v=48
177570 On ch=8 n=63 v=48
177570 On ch=8 n=58 v=48
177570 On ch=8 n=70 v=48
177599 On ch=8 n=70 v=0
177599 On ch=8 n=66 v=0
177599 On ch=8 n=63 v=0
177599 On ch=8 n=58 v=0
177600 On ch=8 n=66 v=48
177600 On ch=8 n=63 v=48
177600 On ch=8 n=58 v=48
177600 On ch=8 n=70 v=48
177629 On ch=8 n=70 v=0
177629 On ch=8 n=66 v=0
177629 On ch=8 n=63 v=0
177629 On ch=8 n=58 v=0
177630 On ch=8 n=66 v=48
177630 On ch=8 n=63 v=48
177630 On ch=8 n=58 v=48
177630 On ch=8 n=70 v=48
177659 On ch=8 n=70 v=0
177659 On ch=8 n=66 v=0
177659 On ch=8 n=63 v=0
177659 On ch=8 n=58 v=0
177660 On ch=8 n=66 v=48
177660 On ch=8 n=63 v=48
177660 On ch=8 n=58 v=48
177660 On ch=8 n=70 v=48
177689 On ch=8 n=70 v=0
177689 On ch=8 n=66 v=0
177689 On ch=8 n=63 v=0
177689 On ch=8 n=58 v=0
177690 On ch=8 n=66 v=48
177690 On ch=8 n=63 v=48
177690 On ch=8 n=58 v=48
177690 On ch=8 n=70 v=48
177719 On ch=8 n=70 v=0
177719 On ch=8 n=66 v=0
177719 On ch=8 n=63 v=0
177719 On ch=8 n=58 v=0
177720 On ch=8 n=66 v=48
177720 On ch=8 n=63 v=48
177720 On ch=8 n=58 v=48
177720 On ch=8 n=70 v=48
177749 On ch=8 n=70 v=0
177749 On ch=8 n=66 v=0
177749 On ch=8 n=63 v=0
177749 On ch=8 n=58 v=0
177750 On ch=8 n=66 v=48
177750 On ch=8 n=63 v=48
177750 On ch=8 n=58 v=48
177750 On ch=8 n=70 v=48
177779 On ch=8 n=70 v=0
177779 On ch=8 n=66 v=0
177779 On ch=8 n=63 v=0
177779 On ch=8 n=58 v=0
177780 On ch=8 n=66 v=48
177780 On ch=8 n=63 v=48
177780 On ch=8 n=58 v=48
177780 On ch=8 n=70 v=48
177809 On ch=8 n=70 v=0
177809 On ch=8 n=66 v=0
177809 On ch=8 n=63 v=0
177809 On ch=8 n=58 v=0
177810 On ch=8 n=66 v=48
177810 On ch=8 n=63 v=48
177810 On ch=8 n=58 v=48
177810 On ch=8 n=70 v=48
177839 On ch=8 n=70 v=0
177839 On ch=8 n=66 v=0
177839 On ch=8 n=63 v=0
177839 On ch=8 n=58 v=0
177840 On ch=8 n=66 v=48
177840 On ch=8 n=63 v=48
177840 On ch=8 n=58 v=48
177840 On ch=8 n=70 v=48
177869 On ch=8 n=70 v=0
177869 On ch=8 n=66 v=0
177869 On ch=8 n=63 v=0
177869 On ch=8 n=58 v=0
177870 On ch=8 n=66 v=48
177870 On ch=8 n=63 v=48
177870 On ch=8 n=58 v=48
177870 On ch=8 n=70 v=48
177899 On ch=8 n=70 v=0
177899 On ch=8 n=66 v=0
177899 On ch=8 n=63 v=0
177899 On ch=8 n=58 v=0
177900 On ch=8 n=66 v=48
177900 On ch=8 n=63 v=48
177900 On ch=8 n=58 v=48
177900 On ch=8 n=70 v=48
177929 On ch=8 n=70 v=0
177929 On ch=8 n=66 v=0
177929 On ch=8 n=63 v=0
177929 On ch=8 n=58 v=0
177930 On ch=8 n=66 v=48
177930 On ch=8 n=63 v=48
177930 On ch=8 n=58 v=48
177930 On ch=8 n=70 v=48
177959 On ch=8 n=70 v=0
177959 On ch=8 n=66 v=0
177959 On ch=8 n=63 v=0
177959 On ch=8 n=58 v=0
177960 On ch=8 n=66 v=48
177960 On ch=8 n=63 v=48
177960 On ch=8 n=58 v=48
177960 On ch=8 n=70 v=48
177989 On ch=8 n=70 v=0
177989 On ch=8 n=66 v=0
177989 On ch=8 n=63 v=0
177989 On ch=8 n=58 v=0
177990 On ch=8 n=66 v=48
177990 On ch=8 n=63 v=48
177990 On ch=8 n=58 v=48
177990 On ch=8 n=70 v=48
178019 On ch=8 n=70 v=0
178019 On ch=8 n=66 v=0
178019 On ch=8 n=63 v=0
178019 On ch=8 n=58 v=0
178020 On ch=8 n=66 v=48
178020 On ch=8 n=63 v=48
178020 On ch=8 n=58 v=48
178020 On ch=8 n=70 v=48
178049 On ch=8 n=70 v=0
178049 On ch=8 n=66 v=0
178049 On ch=8 n=63 v=0
178049 On ch=8 n=58 v=0
178050 On ch=8 n=66 v=48
178050 On ch=8 n=63 v=48
178050 On ch=8 n=58 v=48
178050 On ch=8 n=70 v=48
178079 On ch=8 n=70 v=0
178079 On ch=8 n=66 v=0
178079 On ch=8 n=63 v=0
178079 On ch=8 n=58 v=0
178080 On ch=8 n=66 v=48
178080 On ch=8 n=63 v=48
178080 On ch=8 n=58 v=48
178080 On ch=8 n=70 v=48
178109 On ch=8 n=70 v=0
178109 On ch=8 n=66 v=0
178109 On ch=8 n=63 v=0
178109 On ch=8 n=58 v=0
178110 On ch=8 n=66 v=48
178110 On ch=8 n=63 v=48
178110 On ch=8 n=58 v=48
178110 On ch=8 n=70 v=48
178139 On ch=8 n=70 v=0
178139 On ch=8 n=66 v=0
178139 On ch=8 n=63 v=0
178139 On ch=8 n=58 v=0
178140 On ch=8 n=66 v=48
178140 On ch=8 n=63 v=48
178140 On ch=8 n=58 v=48
178140 On ch=8 n=70 v=48
178169 On ch=8 n=70 v=0
178169 On ch=8 n=66 v=0
178169 On ch=8 n=63 v=0
178169 On ch=8 n=58 v=0
178170 On ch=8 n=66 v=48
178170 On ch=8 n=63 v=48
178170 On ch=8 n=58 v=48
178170 On ch=8 n=70 v=48
178199 On ch=8 n=70 v=0
178199 On ch=8 n=66 v=0
178199 On ch=8 n=63 v=0
178199 On ch=8 n=58 v=0
178200 On ch=8 n=70 v=96
178200 On ch=8 n=63 v=96
178200 On ch=8 n=58 v=96
178229 On ch=8 n=58 v=0
178229 On ch=8 n=63 v=0
178229 On ch=8 n=70 v=0
178230 On ch=8 n=70 v=48
178230 On ch=8 n=58 v=48
178230 On ch=8 n=63 v=48
178259 On ch=8 n=63 v=0
178259 On ch=8 n=58 v=0
178259 On ch=8 n=70 v=0
178260 On ch=8 n=70 v=48
178260 On ch=8 n=58 v=48
178260 On ch=8 n=63 v=48
178289 On ch=8 n=63 v=0
178289 On ch=8 n=58 v=0
178289 On ch=8 n=70 v=0
178290 On ch=8 n=70 v=48
178290 On ch=8 n=58 v=48
178290 On ch=8 n=63 v=48
178319 On ch=8 n=63 v=0
178319 On ch=8 n=58 v=0
178319 On ch=8 n=70 v=0
178320 On ch=8 n=75 v=48
178320 On ch=8 n=63 v=48
178320 On ch=8 n=58 v=48
178349 On ch=8 n=58 v=0
178349 On ch=8 n=63 v=0
178349 On ch=8 n=75 v=0
178350 On ch=8 n=75 v=48
178350 On ch=8 n=63 v=48
178350 On ch=8 n=58 v=48
178379 On ch=8 n=58 v=0
178379 On ch=8 n=63 v=0
178379 On ch=8 n=75 v=0
178380 On ch=8 n=75 v=48
178380 On ch=8 n=63 v=48
178380 On ch=8 n=58 v=48
178409 On ch=8 n=58 v=0
178409 On ch=8 n=63 v=0
178409 On ch=8 n=75 v=0
178410 On ch=8 n=75 v=48
178410 On ch=8 n=63 v=48
178410 On ch=8 n=58 v=48
178439 On ch=8 n=58 v=0
178439 On ch=8 n=63 v=0
178439 On ch=8 n=75 v=0
178440 On ch=8 n=78 v=48
178440 On ch=8 n=63 v=48
178440 On ch=8 n=58 v=48
178469 On ch=8 n=58 v=0
178469 On ch=8 n=63 v=0
178469 On ch=8 n=78 v=0
178470 On ch=8 n=78 v=48
178470 On ch=8 n=63 v=48
178470 On ch=8 n=58 v=48
178499 On ch=8 n=58 v=0
178499 On ch=8 n=63 v=0
178499 On ch=8 n=78 v=0
178500 On ch=8 n=78 v=48
178500 On ch=8 n=63 v=48
178500 On ch=8 n=58 v=48
178529 On ch=8 n=58 v=0
178529 On ch=8 n=63 v=0
178529 On ch=8 n=78 v=0
178530 On ch=8 n=78 v=48
178530 On ch=8 n=63 v=48
178530 On ch=8 n=58 v=48
178559 On ch=8 n=58 v=0
178559 On ch=8 n=63 v=0
178559 On ch=8 n=78 v=0
178560 On ch=8 n=68 v=48
178560 On ch=8 n=66 v=48
178560 On ch=8 n=56 v=48
178589 On ch=8 n=56 v=0
178589 On ch=8 n=66 v=0
178589 On ch=8 n=68 v=0
178590 On ch=8 n=68 v=48
178590 On ch=8 n=66 v=48
178590 On ch=8 n=56 v=48
178619 On ch=8 n=56 v=0
178619 On ch=8 n=66 v=0
178619 On ch=8 n=68 v=0
178620 On ch=8 n=68 v=48
178620 On ch=8 n=66 v=48
178620 On ch=8 n=56 v=48
178649 On ch=8 n=56 v=0
178649 On ch=8 n=66 v=0
178649 On ch=8 n=68 v=0
178650 On ch=8 n=68 v=48
178650 On ch=8 n=66 v=48
178650 On ch=8 n=56 v=48
178679 On ch=8 n=56 v=0
178679 On ch=8 n=66 v=0
178679 On ch=8 n=68 v=0
178680 On ch=8 n=68 v=48
178680 On ch=8 n=66 v=48
178680 On ch=8 n=56 v=48
178709 On ch=8 n=56 v=0
178709 On ch=8 n=66 v=0
178709 On ch=8 n=68 v=0
178710 On ch=8 n=68 v=48
178710 On ch=8 n=66 v=48
178710 On ch=8 n=56 v=48
178739 On ch=8 n=56 v=0
178739 On ch=8 n=66 v=0
178739 On ch=8 n=68 v=0
178740 On ch=8 n=68 v=48
178740 On ch=8 n=66 v=48
178740 On ch=8 n=56 v=48
178769 On ch=8 n=56 v=0
178769 On ch=8 n=66 v=0
178769 On ch=8 n=68 v=0
178770 On ch=8 n=68 v=48
178770 On ch=8 n=66 v=48
178770 On ch=8 n=56 v=48
178799 On ch=8 n=56 v=0
178799 On ch=8 n=66 v=0
178799 On ch=8 n=68 v=0
178800 On ch=8 n=68 v=48
178800 On ch=8 n=66 v=48
178800 On ch=8 n=56 v=48
178829 On ch=8 n=56 v=0
178829 On ch=8 n=66 v=0
178829 On ch=8 n=68 v=0
178830 On ch=8 n=68 v=48
178830 On ch=8 n=66 v=48
178830 On ch=8 n=56 v=48
178859 On ch=8 n=56 v=0
178859 On ch=8 n=66 v=0
178859 On ch=8 n=68 v=0
178860 On ch=8 n=68 v=48
178860 On ch=8 n=66 v=48
178860 On ch=8 n=56 v=48
178889 On ch=8 n=56 v=0
178889 On ch=8 n=66 v=0
178889 On ch=8 n=68 v=0
178890 On ch=8 n=68 v=48
178890 On ch=8 n=66 v=48
178890 On ch=8 n=56 v=48
178919 On ch=8 n=56 v=0
178919 On ch=8 n=66 v=0
178919 On ch=8 n=68 v=0
178920 On ch=8 n=68 v=48
178920 On ch=8 n=66 v=48
178920 On ch=8 n=56 v=48
178949 On ch=8 n=56 v=0
178949 On ch=8 n=66 v=0
178949 On ch=8 n=68 v=0
178950 On ch=8 n=68 v=48
178950 On ch=8 n=66 v=48
178950 On ch=8 n=56 v=48
178979 On ch=8 n=56 v=0
178979 On ch=8 n=66 v=0
178979 On ch=8 n=68 v=0
178980 On ch=8 n=68 v=48
178980 On ch=8 n=66 v=48
178980 On ch=8 n=56 v=48
179009 On ch=8 n=56 v=0
179009 On ch=8 n=66 v=0
179009 On ch=8 n=68 v=0
179010 On ch=8 n=68 v=48
179010 On ch=8 n=66 v=48
179010 On ch=8 n=56 v=48
179039 On ch=8 n=56 v=0
179039 On ch=8 n=66 v=0
179039 On ch=8 n=68 v=0
179040 On ch=8 n=68 v=48
179040 On ch=8 n=66 v=48
179040 On ch=8 n=56 v=48
179069 On ch=8 n=56 v=0
179069 On ch=8 n=66 v=0
179069 On ch=8 n=68 v=0
179070 On ch=8 n=68 v=48
179070 On ch=8 n=66 v=48
179070 On ch=8 n=56 v=48
179099 On ch=8 n=56 v=0
179099 On ch=8 n=66 v=0
179099 On ch=8 n=68 v=0
179100 On ch=8 n=68 v=48
179100 On ch=8 n=66 v=48
179100 On ch=8 n=56 v=48
179129 On ch=8 n=56 v=0
179129 On ch=8 n=66 v=0
179129 On ch=8 n=68 v=0
179130 On ch=8 n=68 v=48
179130 On ch=8 n=66 v=48
179130 On ch=8 n=56 v=48
179159 On ch=8 n=56 v=0
179159 On ch=8 n=66 v=0
179159 On ch=8 n=68 v=0
179160 On ch=8 n=68 v=48
179160 On ch=8 n=66 v=48
179160 On ch=8 n=56 v=48
179189 On ch=8 n=56 v=0
179189 On ch=8 n=66 v=0
179189 On ch=8 n=68 v=0
179190 On ch=8 n=68 v=48
179190 On ch=8 n=66 v=48
179190 On ch=8 n=56 v=48
179219 On ch=8 n=56 v=0
179219 On ch=8 n=66 v=0
179219 On ch=8 n=68 v=0
179220 On ch=8 n=68 v=48
179220 On ch=8 n=66 v=48
179220 On ch=8 n=56 v=48
179249 On ch=8 n=56 v=0
179249 On ch=8 n=66 v=0
179249 On ch=8 n=68 v=0
179250 On ch=8 n=68 v=48
179250 On ch=8 n=66 v=48
179250 On ch=8 n=56 v=48
179279 On ch=8 n=56 v=0
179279 On ch=8 n=66 v=0
179279 On ch=8 n=68 v=0
179280 On ch=8 n=68 v=48
179280 On ch=8 n=66 v=48
179280 On ch=8 n=56 v=48
179309 On ch=8 n=56 v=0
179309 On ch=8 n=66 v=0
179309 On ch=8 n=68 v=0
179310 On ch=8 n=68 v=48
179310 On ch=8 n=66 v=48
179310 On ch=8 n=56 v=48
179339 On ch=8 n=56 v=0
179339 On ch=8 n=66 v=0
179339 On ch=8 n=68 v=0
179340 On ch=8 n=68 v=48
179340 On ch=8 n=66 v=48
179340 On ch=8 n=56 v=48
179369 On ch=8 n=56 v=0
179369 On ch=8 n=66 v=0
179369 On ch=8 n=68 v=0
179370 On ch=8 n=68 v=48
179370 On ch=8 n=66 v=48
179370 On ch=8 n=56 v=48
179399 On ch=8 n=56 v=0
179399 On ch=8 n=66 v=0
179399 On ch=8 n=68 v=0
179400 On ch=8 n=68 v=48
179400 On ch=8 n=66 v=48
179400 On ch=8 n=56 v=48
179429 On ch=8 n=56 v=0
179429 On ch=8 n=66 v=0
179429 On ch=8 n=68 v=0
179430 On ch=8 n=68 v=48
179430 On ch=8 n=66 v=48
179430 On ch=8 n=56 v=48
179459 On ch=8 n=56 v=0
179459 On ch=8 n=66 v=0
179459 On ch=8 n=68 v=0
179460 On ch=8 n=68 v=48
179460 On ch=8 n=66 v=48
179460 On ch=8 n=56 v=48
179489 On ch=8 n=56 v=0
179489 On ch=8 n=66 v=0
179489 On ch=8 n=68 v=0
179490 On ch=8 n=68 v=48
179490 On ch=8 n=66 v=48
179490 On ch=8 n=56 v=48
179519 On ch=8 n=56 v=0
179519 On ch=8 n=66 v=0
179519 On ch=8 n=68 v=0
179520 On ch=8 n=68 v=48
179520 On ch=8 n=66 v=48
179520 On ch=8 n=56 v=48
179549 On ch=8 n=56 v=0
179549 On ch=8 n=66 v=0
179549 On ch=8 n=68 v=0
179550 On ch=8 n=68 v=48
179550 On ch=8 n=66 v=48
179550 On ch=8 n=56 v=48
179579 On ch=8 n=56 v=0
179579 On ch=8 n=66 v=0
179579 On ch=8 n=68 v=0
179580 On ch=8 n=68 v=48
179580 On ch=8 n=66 v=48
179580 On ch=8 n=56 v=48
179609 On ch=8 n=56 v=0
179609 On ch=8 n=66 v=0
179609 On ch=8 n=68 v=0
179610 On ch=8 n=68 v=48
179610 On ch=8 n=66 v=48
179610 On ch=8 n=56 v=48
179639 On ch=8 n=56 v=0
179639 On ch=8 n=66 v=0
179639 On ch=8 n=68 v=0
179640 On ch=8 n=68 v=96
179640 On ch=8 n=60 v=96
179669 On ch=8 n=60 v=0
179669 On ch=8 n=68 v=0
179670 On ch=8 n=68 v=48
179670 On ch=8 n=60 v=48
179699 On ch=8 n=60 v=0
179699 On ch=8 n=68 v=0
179700 On ch=8 n=68 v=48
179700 On ch=8 n=60 v=48
179729 On ch=8 n=60 v=0
179729 On ch=8 n=68 v=0
179730 On ch=8 n=68 v=48
179730 On ch=8 n=60 v=48
179759 On ch=8 n=60 v=0
179759 On ch=8 n=68 v=0
179760 On ch=8 n=75 v=48
179760 On ch=8 n=60 v=48
179789 On ch=8 n=60 v=0
179789 On ch=8 n=75 v=0
179790 On ch=8 n=75 v=48
179790 On ch=8 n=60 v=48
179819 On ch=8 n=60 v=0
179819 On ch=8 n=75 v=0
179820 On ch=8 n=75 v=48
179820 On ch=8 n=60 v=48
179849 On ch=8 n=60 v=0
179849 On ch=8 n=75 v=0
179850 On ch=8 n=75 v=48
179850 On ch=8 n=60 v=48
179879 On ch=8 n=60 v=0
179879 On ch=8 n=75 v=0
179880 On ch=8 n=78 v=48
179880 On ch=8 n=60 v=48
179909 On ch=8 n=60 v=0
179909 On ch=8 n=78 v=0
179910 On ch=8 n=78 v=48
179910 On ch=8 n=60 v=48
179939 On ch=8 n=60 v=0
179939 On ch=8 n=78 v=0
179940 On ch=8 n=78 v=48
179940 On ch=8 n=60 v=48
179969 On ch=8 n=60 v=0
179969 On ch=8 n=78 v=0
179970 On ch=8 n=78 v=48
179970 On ch=8 n=60 v=48
179999 On ch=8 n=60 v=0
179999 On ch=8 n=78 v=0
180000 On ch=8 n=68 v=48
180000 On ch=8 n=65 v=48
180000 On ch=8 n=56 v=48
180029 On ch=8 n=56 v=0
180029 On ch=8 n=65 v=0
180029 On ch=8 n=68 v=0
180030 On ch=8 n=68 v=48
180030 On ch=8 n=65 v=48
180030 On ch=8 n=56 v=48
180059 On ch=8 n=56 v=0
180059 On ch=8 n=65 v=0
180059 On ch=8 n=68 v=0
180060 On ch=8 n=68 v=48
180060 On ch=8 n=65 v=48
180060 On ch=8 n=56 v=48
180089 On ch=8 n=56 v=0
180089 On ch=8 n=65 v=0
180089 On ch=8 n=68 v=0
180090 On ch=8 n=68 v=48
180090 On ch=8 n=65 v=48
180090 On ch=8 n=56 v=48
180119 On ch=8 n=56 v=0
180119 On ch=8 n=65 v=0
180119 On ch=8 n=68 v=0
180120 On ch=8 n=68 v=48
180120 On ch=8 n=65 v=48
180120 On ch=8 n=56 v=48
180149 On ch=8 n=56 v=0
180149 On ch=8 n=65 v=0
180149 On ch=8 n=68 v=0
180150 On ch=8 n=68 v=48
180150 On ch=8 n=65 v=48
180150 On ch=8 n=56 v=48
180179 On ch=8 n=56 v=0
180179 On ch=8 n=65 v=0
180179 On ch=8 n=68 v=0
180180 On ch=8 n=68 v=48
180180 On ch=8 n=65 v=48
180180 On ch=8 n=56 v=48
180209 On ch=8 n=56 v=0
180209 On ch=8 n=65 v=0
180209 On ch=8 n=68 v=0
180210 On ch=8 n=68 v=48
180210 On ch=8 n=65 v=48
180210 On ch=8 n=56 v=48
180239 On ch=8 n=56 v=0
180239 On ch=8 n=65 v=0
180239 On ch=8 n=68 v=0
180240 On ch=8 n=68 v=48
180240 On ch=8 n=65 v=48
180240 On ch=8 n=56 v=48
180269 On ch=8 n=56 v=0
180269 On ch=8 n=65 v=0
180269 On ch=8 n=68 v=0
180270 On ch=8 n=68 v=48
180270 On ch=8 n=65 v=48
180270 On ch=8 n=56 v=48
180299 On ch=8 n=56 v=0
180299 On ch=8 n=65 v=0
180299 On ch=8 n=68 v=0
180300 On ch=8 n=68 v=48
180300 On ch=8 n=65 v=48
180300 On ch=8 n=56 v=48
180329 On ch=8 n=56 v=0
180329 On ch=8 n=65 v=0
180329 On ch=8 n=68 v=0
180330 On ch=8 n=68 v=48
180330 On ch=8 n=65 v=48
180330 On ch=8 n=56 v=48
180359 On ch=8 n=56 v=0
180359 On ch=8 n=65 v=0
180359 On ch=8 n=68 v=0
180360 On ch=8 n=68 v=48
180360 On ch=8 n=65 v=48
180360 On ch=8 n=56 v=48
180389 On ch=8 n=56 v=0
180389 On ch=8 n=65 v=0
180389 On ch=8 n=68 v=0
180390 On ch=8 n=68 v=48
180390 On ch=8 n=65 v=48
180390 On ch=8 n=56 v=48
180419 On ch=8 n=56 v=0
180419 On ch=8 n=65 v=0
180419 On ch=8 n=68 v=0
180420 On ch=8 n=68 v=48
180420 On ch=8 n=65 v=48
180420 On ch=8 n=56 v=48
180449 On ch=8 n=56 v=0
180449 On ch=8 n=65 v=0
180449 On ch=8 n=68 v=0
180450 On ch=8 n=68 v=48
180450 On ch=8 n=65 v=48
180450 On ch=8 n=56 v=48
180479 On ch=8 n=56 v=0
180479 On ch=8 n=65 v=0
180479 On ch=8 n=68 v=0
180480 On ch=8 n=68 v=48
180480 On ch=8 n=65 v=48
180480 On ch=8 n=56 v=48
180509 On ch=8 n=56 v=0
180509 On ch=8 n=65 v=0
180509 On ch=8 n=68 v=0
180510 On ch=8 n=68 v=48
180510 On ch=8 n=65 v=48
180510 On ch=8 n=56 v=48
180539 On ch=8 n=56 v=0
180539 On ch=8 n=65 v=0
180539 On ch=8 n=68 v=0
180540 On ch=8 n=68 v=48
180540 On ch=8 n=65 v=48
180540 On ch=8 n=56 v=48
180569 On ch=8 n=56 v=0
180569 On ch=8 n=65 v=0
180569 On ch=8 n=68 v=0
180570 On ch=8 n=68 v=48
180570 On ch=8 n=65 v=48
180570 On ch=8 n=56 v=48
180599 On ch=8 n=56 v=0
180599 On ch=8 n=65 v=0
180599 On ch=8 n=68 v=0
180600 On ch=8 n=68 v=48
180600 On ch=8 n=65 v=48
180600 On ch=8 n=56 v=48
180629 On ch=8 n=56 v=0
180629 On ch=8 n=65 v=0
180629 On ch=8 n=68 v=0
180630 On ch=8 n=68 v=48
180630 On ch=8 n=65 v=48
180630 On ch=8 n=56 v=48
180659 On ch=8 n=56 v=0
180659 On ch=8 n=65 v=0
180659 On ch=8 n=68 v=0
180660 On ch=8 n=68 v=48
180660 On ch=8 n=65 v=48
180660 On ch=8 n=56 v=48
180689 On ch=8 n=56 v=0
180689 On ch=8 n=65 v=0
180689 On ch=8 n=68 v=0
180690 On ch=8 n=68 v=48
180690 On ch=8 n=65 v=48
180690 On ch=8 n=56 v=48
180719 On ch=8 n=56 v=0
180719 On ch=8 n=65 v=0
180719 On ch=8 n=68 v=0
180720 On ch=8 n=68 v=48
180720 On ch=8 n=65 v=48
180720 On ch=8 n=56 v=48
180749 On ch=8 n=56 v=0
180749 On ch=8 n=65 v=0
180749 On ch=8 n=68 v=0
180750 On ch=8 n=68 v=48
180750 On ch=8 n=65 v=48
180750 On ch=8 n=56 v=48
180779 On ch=8 n=56 v=0
180779 On ch=8 n=65 v=0
180779 On ch=8 n=68 v=0
180780 On ch=8 n=68 v=48
180780 On ch=8 n=65 v=48
180780 On ch=8 n=56 v=48
180809 On ch=8 n=56 v=0
180809 On ch=8 n=65 v=0
180809 On ch=8 n=68 v=0
180810 On ch=8 n=68 v=48
180810 On ch=8 n=65 v=48
180810 On ch=8 n=56 v=48
180839 On ch=8 n=56 v=0
180839 On ch=8 n=65 v=0
180839 On ch=8 n=68 v=0
180840 On ch=8 n=68 v=48
180840 On ch=8 n=65 v=48
180840 On ch=8 n=56 v=48
180869 On ch=8 n=56 v=0
180869 On ch=8 n=65 v=0
180869 On ch=8 n=68 v=0
180870 On ch=8 n=68 v=48
180870 On ch=8 n=65 v=48
180870 On ch=8 n=56 v=48
180899 On ch=8 n=56 v=0
180899 On ch=8 n=65 v=0
180899 On ch=8 n=68 v=0
180900 On ch=8 n=68 v=48
180900 On ch=8 n=65 v=48
180900 On ch=8 n=56 v=48
180929 On ch=8 n=56 v=0
180929 On ch=8 n=65 v=0
180929 On ch=8 n=68 v=0
180930 On ch=8 n=68 v=48
180930 On ch=8 n=65 v=48
180930 On ch=8 n=56 v=48
180959 On ch=8 n=56 v=0
180959 On ch=8 n=65 v=0
180959 On ch=8 n=68 v=0
180960 On ch=8 n=68 v=48
180960 On ch=8 n=65 v=48
180960 On ch=8 n=56 v=48
180989 On ch=8 n=56 v=0
180989 On ch=8 n=65 v=0
180989 On ch=8 n=68 v=0
180990 On ch=8 n=68 v=48
180990 On ch=8 n=65 v=48
180990 On ch=8 n=56 v=48
181019 On ch=8 n=56 v=0
181019 On ch=8 n=65 v=0
181019 On ch=8 n=68 v=0
181020 On ch=8 n=68 v=48
181020 On ch=8 n=65 v=48
181020 On ch=8 n=56 v=48
181049 On ch=8 n=56 v=0
181049 On ch=8 n=65 v=0
181049 On ch=8 n=68 v=0
181050 On ch=8 n=68 v=48
181050 On ch=8 n=65 v=48
181050 On ch=8 n=56 v=48
181079 On ch=8 n=56 v=0
181079 On ch=8 n=65 v=0
181079 On ch=8 n=68 v=0
181080 On ch=8 n=73 v=96
181080 On ch=8 n=65 v=96
181080 On ch=8 n=56 v=96
181109 On ch=8 n=56 v=0
181109 On ch=8 n=65 v=0
181109 On ch=8 n=73 v=0
181110 On ch=8 n=73 v=48
181110 On ch=8 n=65 v=48
181110 On ch=8 n=56 v=48
181139 On ch=8 n=56 v=0
181139 On ch=8 n=65 v=0
181139 On ch=8 n=73 v=0
181140 On ch=8 n=73 v=48
181140 On ch=8 n=65 v=48
181140 On ch=8 n=56 v=48
181169 On ch=8 n=56 v=0
181169 On ch=8 n=65 v=0
181169 On ch=8 n=73 v=0
181170 On ch=8 n=73 v=48
181170 On ch=8 n=65 v=48
181170 On ch=8 n=56 v=48
181199 On ch=8 n=56 v=0
181199 On ch=8 n=65 v=0
181199 On ch=8 n=73 v=0
181200 On ch=8 n=77 v=48
181200 On ch=8 n=65 v=48
181200 On ch=8 n=56 v=48
181229 On ch=8 n=56 v=0
181229 On ch=8 n=65 v=0
181229 On ch=8 n=77 v=0
181230 On ch=8 n=77 v=48
181230 On ch=8 n=65 v=48
181230 On ch=8 n=56 v=48
181259 On ch=8 n=56 v=0
181259 On ch=8 n=65 v=0
181259 On ch=8 n=77 v=0
181260 On ch=8 n=77 v=48
181260 On ch=8 n=65 v=48
181260 On ch=8 n=56 v=48
181289 On ch=8 n=56 v=0
181289 On ch=8 n=65 v=0
181289 On ch=8 n=77 v=0
181290 On ch=8 n=77 v=48
181290 On ch=8 n=65 v=48
181290 On ch=8 n=56 v=48
181319 On ch=8 n=56 v=0
181319 On ch=8 n=65 v=0
181319 On ch=8 n=77 v=0
181320 On ch=8 n=80 v=48
181320 On ch=8 n=65 v=48
181320 On ch=8 n=56 v=48
181349 On ch=8 n=56 v=0
181349 On ch=8 n=65 v=0
181349 On ch=8 n=80 v=0
181350 On ch=8 n=80 v=48
181350 On ch=8 n=65 v=48
181350 On ch=8 n=56 v=48
181379 On ch=8 n=56 v=0
181379 On ch=8 n=65 v=0
181379 On ch=8 n=80 v=0
181380 On ch=8 n=80 v=48
181380 On ch=8 n=65 v=48
181380 On ch=8 n=56 v=48
181409 On ch=8 n=56 v=0
181409 On ch=8 n=65 v=0
181409 On ch=8 n=80 v=0
181410 On ch=8 n=80 v=48
181410 On ch=8 n=65 v=48
181410 On ch=8 n=56 v=48
181439 On ch=8 n=56 v=0
181439 On ch=8 n=65 v=0
181439 On ch=8 n=80 v=0
181440 On ch=8 n=65 v=48
181440 On ch=8 n=58 v=48
181469 On ch=8 n=58 v=0
181469 On ch=8 n=65 v=0
181470 On ch=8 n=65 v=48
181470 On ch=8 n=58 v=48
181499 On ch=8 n=58 v=0
181499 On ch=8 n=65 v=0
181500 On ch=8 n=65 v=48
181500 On ch=8 n=58 v=48
181529 On ch=8 n=58 v=0
181529 On ch=8 n=65 v=0
181530 On ch=8 n=65 v=48
181530 On ch=8 n=58 v=48
181559 On ch=8 n=58 v=0
181559 On ch=8 n=65 v=0
181560 On ch=8 n=65 v=49
181560 On ch=8 n=58 v=49
181589 On ch=8 n=58 v=0
181589 On ch=8 n=65 v=0
181590 On ch=8 n=65 v=49
181590 On ch=8 n=58 v=49
181619 On ch=8 n=58 v=0
181619 On ch=8 n=65 v=0
181620 On ch=8 n=65 v=49
181620 On ch=8 n=58 v=49
181649 On ch=8 n=58 v=0
181649 On ch=8 n=65 v=0
181650 On ch=8 n=65 v=49
181650 On ch=8 n=58 v=49
181679 On ch=8 n=58 v=0
181679 On ch=8 n=65 v=0
181680 On ch=8 n=65 v=50
181680 On ch=8 n=58 v=50
181709 On ch=8 n=58 v=0
181709 On ch=8 n=65 v=0
181710 On ch=8 n=65 v=50
181710 On ch=8 n=58 v=50
181739 On ch=8 n=58 v=0
181739 On ch=8 n=65 v=0
181740 On ch=8 n=65 v=50
181740 On ch=8 n=58 v=50
181769 On ch=8 n=58 v=0
181769 On ch=8 n=65 v=0
181770 On ch=8 n=65 v=50
181770 On ch=8 n=58 v=50
181799 On ch=8 n=58 v=0
181799 On ch=8 n=65 v=0
181800 On ch=8 n=68 v=51
181800 On ch=8 n=58 v=51
181829 On ch=8 n=58 v=0
181829 On ch=8 n=68 v=0
181830 On ch=8 n=68 v=51
181830 On ch=8 n=58 v=51
181859 On ch=8 n=58 v=0
181859 On ch=8 n=68 v=0
181860 On ch=8 n=68 v=51
181860 On ch=8 n=58 v=51
181889 On ch=8 n=58 v=0
181889 On ch=8 n=68 v=0
181890 On ch=8 n=68 v=51
181890 On ch=8 n=58 v=51
181919 On ch=8 n=58 v=0
181919 On ch=8 n=68 v=0
181920 On ch=8 n=68 v=52
181920 On ch=8 n=58 v=52
181949 On ch=8 n=58 v=0
181949 On ch=8 n=68 v=0
181950 On ch=8 n=68 v=52
181950 On ch=8 n=58 v=52
181979 On ch=8 n=58 v=0
181979 On ch=8 n=68 v=0
181980 On ch=8 n=68 v=52
181980 On ch=8 n=58 v=52
182009 On ch=8 n=58 v=0
182009 On ch=8 n=68 v=0
182010 On ch=8 n=68 v=52
182010 On ch=8 n=58 v=52
182039 On ch=8 n=58 v=0
182039 On ch=8 n=68 v=0
182040 On ch=8 n=68 v=53
182040 On ch=8 n=58 v=53
182069 On ch=8 n=58 v=0
182069 On ch=8 n=68 v=0
182070 On ch=8 n=68 v=53
182070 On ch=8 n=58 v=53
182099 On ch=8 n=58 v=0
182099 On ch=8 n=68 v=0
182100 On ch=8 n=68 v=53
182100 On ch=8 n=58 v=53
182129 On ch=8 n=58 v=0
182129 On ch=8 n=68 v=0
182130 On ch=8 n=68 v=53
182130 On ch=8 n=58 v=53
182159 On ch=8 n=58 v=0
182159 On ch=8 n=68 v=0
182160 On ch=8 n=68 v=54
182160 On ch=8 n=58 v=54
182189 On ch=8 n=58 v=0
182189 On ch=8 n=68 v=0
182190 On ch=8 n=68 v=54
182190 On ch=8 n=58 v=54
182219 On ch=8 n=58 v=0
182219 On ch=8 n=68 v=0
182220 On ch=8 n=68 v=54
182220 On ch=8 n=58 v=54
182249 On ch=8 n=58 v=0
182249 On ch=8 n=68 v=0
182250 On ch=8 n=68 v=54
182250 On ch=8 n=58 v=54
182279 On ch=8 n=58 v=0
182279 On ch=8 n=68 v=0
182280 On ch=8 n=68 v=55
182280 On ch=8 n=58 v=55
182309 On ch=8 n=58 v=0
182309 On ch=8 n=68 v=0
182310 On ch=8 n=68 v=55
182310 On ch=8 n=58 v=55
182339 On ch=8 n=58 v=0
182339 On ch=8 n=68 v=0
182340 On ch=8 n=68 v=55
182340 On ch=8 n=58 v=55
182369 On ch=8 n=58 v=0
182369 On ch=8 n=68 v=0
182370 On ch=8 n=68 v=55
182370 On ch=8 n=58 v=55
182399 On ch=8 n=58 v=0
182399 On ch=8 n=68 v=0
182400 On ch=8 n=68 v=56
182400 On ch=8 n=58 v=56
182429 On ch=8 n=58 v=0
182429 On ch=8 n=68 v=0
182430 On ch=8 n=68 v=56
182430 On ch=8 n=58 v=56
182459 On ch=8 n=58 v=0
182459 On ch=8 n=68 v=0
182460 On ch=8 n=68 v=56
182460 On ch=8 n=58 v=56
182489 On ch=8 n=58 v=0
182489 On ch=8 n=68 v=0
182490 On ch=8 n=68 v=56
182490 On ch=8 n=58 v=56
182519 On ch=8 n=58 v=0
182519 On ch=8 n=68 v=0
182520 On ch=8 n=77 v=96
182520 On ch=8 n=68 v=96
182520 On ch=8 n=58 v=96
182549 On ch=8 n=58 v=0
182549 On ch=8 n=68 v=0
182549 On ch=8 n=77 v=0
182550 On ch=8 n=77 v=96
182550 On ch=8 n=68 v=96
182550 On ch=8 n=58 v=96
182579 On ch=8 n=58 v=0
182579 On ch=8 n=68 v=0
182579 On ch=8 n=77 v=0
182580 On ch=8 n=77 v=96
182580 On ch=8 n=68 v=96
182580 On ch=8 n=58 v=96
182609 On ch=8 n=58 v=0
182609 On ch=8 n=68 v=0
182609 On ch=8 n=77 v=0
182610 On ch=8 n=77 v=96
182610 On ch=8 n=68 v=96
182610 On ch=8 n=58 v=96
182639 On ch=8 n=58 v=0
182639 On ch=8 n=68 v=0
182639 On ch=8 n=77 v=0
182640 On ch=8 n=80 v=96
182640 On ch=8 n=68 v=96
182640 On ch=8 n=58 v=96
182669 On ch=8 n=58 v=0
182669 On ch=8 n=68 v=0
182669 On ch=8 n=80 v=0
182670 On ch=8 n=80 v=96
182670 On ch=8 n=68 v=96
182670 On ch=8 n=58 v=96
182699 On ch=8 n=58 v=0
182699 On ch=8 n=68 v=0
182699 On ch=8 n=80 v=0
182700 On ch=8 n=80 v=96
182700 On ch=8 n=68 v=96
182700 On ch=8 n=58 v=96
182729 On ch=8 n=58 v=0
182729 On ch=8 n=68 v=0
182729 On ch=8 n=80 v=0
182730 On ch=8 n=80 v=96
182730 On ch=8 n=68 v=96
182730 On ch=8 n=58 v=96
182759 On ch=8 n=58 v=0
182759 On ch=8 n=68 v=0
182759 On ch=8 n=80 v=0
182760 On ch=8 n=82 v=96
182760 On ch=8 n=68 v=96
182760 On ch=8 n=58 v=96
182789 On ch=8 n=58 v=0
182789 On ch=8 n=68 v=0
182789 On ch=8 n=82 v=0
182790 On ch=8 n=82 v=96
182790 On ch=8 n=68 v=96
182790 On ch=8 n=58 v=96
182819 On ch=8 n=58 v=0
182819 On ch=8 n=68 v=0
182819 On ch=8 n=82 v=0
182820 On ch=8 n=82 v=96
182820 On ch=8 n=68 v=96
182820 On ch=8 n=58 v=96
182849 On ch=8 n=58 v=0
182849 On ch=8 n=68 v=0
182849 On ch=8 n=82 v=0
182850 On ch=8 n=82 v=96
182850 On ch=8 n=68 v=96
182850 On ch=8 n=58 v=96
182879 On ch=8 n=58 v=0
182879 On ch=8 n=68 v=0
182879 On ch=8 n=82 v=0
182880 On ch=8 n=70 v=60
182880 On ch=8 n=66 v=60
182880 On ch=8 n=63 v=60
182880 On ch=8 n=58 v=60
182909 On ch=8 n=58 v=0
182909 On ch=8 n=70 v=0
182909 On ch=8 n=66 v=0
182909 On ch=8 n=63 v=0
182910 On ch=8 n=70 v=61
182910 On ch=8 n=66 v=61
182910 On ch=8 n=63 v=61
182910 On ch=8 n=58 v=61
182939 On ch=8 n=58 v=0
182939 On ch=8 n=70 v=0
182939 On ch=8 n=66 v=0
182939 On ch=8 n=63 v=0
182940 On ch=8 n=70 v=62
182940 On ch=8 n=66 v=62
182940 On ch=8 n=63 v=62
182940 On ch=8 n=58 v=62
182969 On ch=8 n=58 v=0
182969 On ch=8 n=70 v=0
182969 On ch=8 n=66 v=0
182969 On ch=8 n=63 v=0
182970 On ch=8 n=70 v=63
182970 On ch=8 n=66 v=63
182970 On ch=8 n=63 v=63
182970 On ch=8 n=58 v=63
182999 On ch=8 n=58 v=0
182999 On ch=8 n=70 v=0
182999 On ch=8 n=66 v=0
182999 On ch=8 n=63 v=0
183000 On ch=8 n=70 v=64
183000 On ch=8 n=66 v=64
183000 On ch=8 n=63 v=64
183000 On ch=8 n=58 v=64
183029 On ch=8 n=58 v=0
183029 On ch=8 n=70 v=0
183029 On ch=8 n=66 v=0
183029 On ch=8 n=63 v=0
183030 On ch=8 n=70 v=65
183030 On ch=8 n=66 v=65
183030 On ch=8 n=63 v=65
183030 On ch=8 n=58 v=65
183059 On ch=8 n=58 v=0
183059 On ch=8 n=70 v=0
183059 On ch=8 n=66 v=0
183059 On ch=8 n=63 v=0
183060 On ch=8 n=70 v=66
183060 On ch=8 n=66 v=66
183060 On ch=8 n=63 v=66
183060 On ch=8 n=58 v=66
183089 On ch=8 n=58 v=0
183089 On ch=8 n=70 v=0
183089 On ch=8 n=66 v=0
183089 On ch=8 n=63 v=0
183090 On ch=8 n=70 v=67
183090 On ch=8 n=66 v=67
183090 On ch=8 n=63 v=67
183090 On ch=8 n=58 v=67
183119 On ch=8 n=58 v=0
183119 On ch=8 n=70 v=0
183119 On ch=8 n=66 v=0
183119 On ch=8 n=63 v=0
183120 On ch=8 n=70 v=68
183120 On ch=8 n=66 v=68
183120 On ch=8 n=63 v=68
183120 On ch=8 n=58 v=68
183149 On ch=8 n=58 v=0
183149 On ch=8 n=70 v=0
183149 On ch=8 n=66 v=0
183149 On ch=8 n=63 v=0
183150 On ch=8 n=70 v=69
183150 On ch=8 n=66 v=69
183150 On ch=8 n=63 v=69
183150 On ch=8 n=58 v=69
183179 On ch=8 n=58 v=0
183179 On ch=8 n=70 v=0
183179 On ch=8 n=66 v=0
183179 On ch=8 n=63 v=0
183180 On ch=8 n=70 v=70
183180 On ch=8 n=66 v=70
183180 On ch=8 n=63 v=70
183180 On ch=8 n=58 v=70
183209 On ch=8 n=58 v=0
183209 On ch=8 n=70 v=0
183209 On ch=8 n=66 v=0
183209 On ch=8 n=63 v=0
183210 On ch=8 n=70 v=71
183210 On ch=8 n=66 v=71
183210 On ch=8 n=63 v=71
183210 On ch=8 n=58 v=71
183239 On ch=8 n=58 v=0
183239 On ch=8 n=70 v=0
183239 On ch=8 n=66 v=0
183239 On ch=8 n=63 v=0
183240 On ch=8 n=70 v=72
183240 On ch=8 n=66 v=72
183240 On ch=8 n=63 v=72
183240 On ch=8 n=58 v=72
183269 On ch=8 n=58 v=0
183269 On ch=8 n=70 v=0
183269 On ch=8 n=66 v=0
183269 On ch=8 n=63 v=0
183270 On ch=8 n=70 v=73
183270 On ch=8 n=66 v=73
183270 On ch=8 n=63 v=73
183270 On ch=8 n=58 v=73
183299 On ch=8 n=58 v=0
183299 On ch=8 n=70 v=0
183299 On ch=8 n=66 v=0
183299 On ch=8 n=63 v=0
183300 On ch=8 n=70 v=74
183300 On ch=8 n=66 v=74
183300 On ch=8 n=63 v=74
183300 On ch=8 n=58 v=74
183329 On ch=8 n=58 v=0
183329 On ch=8 n=70 v=0
183329 On ch=8 n=66 v=0
183329 On ch=8 n=63 v=0
183330 On ch=8 n=70 v=75
183330 On ch=8 n=66 v=75
183330 On ch=8 n=63 v=75
183330 On ch=8 n=58 v=75
183359 On ch=8 n=58 v=0
183359 On ch=8 n=70 v=0
183359 On ch=8 n=66 v=0
183359 On ch=8 n=63 v=0
183360 On ch=8 n=70 v=76
183360 On ch=8 n=66 v=76
183360 On ch=8 n=63 v=76
183360 On ch=8 n=58 v=76
183389 On ch=8 n=58 v=0
183389 On ch=8 n=70 v=0
183389 On ch=8 n=66 v=0
183389 On ch=8 n=63 v=0
183390 On ch=8 n=70 v=77
183390 On ch=8 n=66 v=77
183390 On ch=8 n=63 v=77
183390 On ch=8 n=58 v=77
183419 On ch=8 n=58 v=0
183419 On ch=8 n=70 v=0
183419 On ch=8 n=66 v=0
183419 On ch=8 n=63 v=0
183420 On ch=8 n=70 v=78
183420 On ch=8 n=66 v=78
183420 On ch=8 n=63 v=78
183420 On ch=8 n=58 v=78
183449 On ch=8 n=58 v=0
183449 On ch=8 n=70 v=0
183449 On ch=8 n=66 v=0
183449 On ch=8 n=63 v=0
183450 On ch=8 n=70 v=79
183450 On ch=8 n=66 v=79
183450 On ch=8 n=63 v=79
183450 On ch=8 n=58 v=79
183479 On ch=8 n=58 v=0
183479 On ch=8 n=70 v=0
183479 On ch=8 n=66 v=0
183479 On ch=8 n=63 v=0
183480 On ch=8 n=70 v=80
183480 On ch=8 n=66 v=80
183480 On ch=8 n=63 v=80
183480 On ch=8 n=58 v=80
183509 On ch=8 n=58 v=0
183509 On ch=8 n=70 v=0
183509 On ch=8 n=66 v=0
183509 On ch=8 n=63 v=0
183510 On ch=8 n=70 v=81
183510 On ch=8 n=66 v=81
183510 On ch=8 n=63 v=81
183510 On ch=8 n=58 v=81
183539 On ch=8 n=58 v=0
183539 On ch=8 n=70 v=0
183539 On ch=8 n=66 v=0
183539 On ch=8 n=63 v=0
183540 On ch=8 n=70 v=82
183540 On ch=8 n=66 v=82
183540 On ch=8 n=63 v=82
183540 On ch=8 n=58 v=82
183569 On ch=8 n=58 v=0
183569 On ch=8 n=70 v=0
183569 On ch=8 n=66 v=0
183569 On ch=8 n=63 v=0
183570 On ch=8 n=70 v=83
183570 On ch=8 n=66 v=83
183570 On ch=8 n=63 v=83
183570 On ch=8 n=58 v=83
183599 On ch=8 n=58 v=0
183599 On ch=8 n=70 v=0
183599 On ch=8 n=66 v=0
183599 On ch=8 n=63 v=0
183600 On ch=8 n=70 v=84
183600 On ch=8 n=66 v=84
183600 On ch=8 n=63 v=84
183600 On ch=8 n=58 v=84
183629 On ch=8 n=58 v=0
183629 On ch=8 n=70 v=0
183629 On ch=8 n=66 v=0
183629 On ch=8 n=63 v=0
183630 On ch=8 n=70 v=85
183630 On ch=8 n=66 v=85
183630 On ch=8 n=63 v=85
183630 On ch=8 n=58 v=85
183659 On ch=8 n=58 v=0
183659 On ch=8 n=70 v=0
183659 On ch=8 n=66 v=0
183659 On ch=8 n=63 v=0
183660 On ch=8 n=70 v=86
183660 On ch=8 n=66 v=86
183660 On ch=8 n=63 v=86
183660 On ch=8 n=58 v=86
183689 On ch=8 n=58 v=0
183689 On ch=8 n=70 v=0
183689 On ch=8 n=66 v=0
183689 On ch=8 n=63 v=0
183690 On ch=8 n=70 v=87
183690 On ch=8 n=66 v=87
183690 On ch=8 n=63 v=87
183690 On ch=8 n=58 v=87
183719 On ch=8 n=58 v=0
183719 On ch=8 n=70 v=0
183719 On ch=8 n=66 v=0
183719 On ch=8 n=63 v=0
183720 On ch=8 n=70 v=88
183720 On ch=8 n=66 v=88
183720 On ch=8 n=63 v=88
183720 On ch=8 n=58 v=88
183749 On ch=8 n=58 v=0
183749 On ch=8 n=70 v=0
183749 On ch=8 n=66 v=0
183749 On ch=8 n=63 v=0
183750 On ch=8 n=70 v=89
183750 On ch=8 n=66 v=89
183750 On ch=8 n=63 v=89
183750 On ch=8 n=58 v=89
183779 On ch=8 n=58 v=0
183779 On ch=8 n=70 v=0
183779 On ch=8 n=66 v=0
183779 On ch=8 n=63 v=0
183780 On ch=8 n=70 v=90
183780 On ch=8 n=66 v=90
183780 On ch=8 n=63 v=90
183780 On ch=8 n=58 v=90
183809 On ch=8 n=58 v=0
183809 On ch=8 n=70 v=0
183809 On ch=8 n=66 v=0
183809 On ch=8 n=63 v=0
183810 On ch=8 n=70 v=91
183810 On ch=8 n=66 v=91
183810 On ch=8 n=63 v=91
183810 On ch=8 n=58 v=91
183839 On ch=8 n=58 v=0
183839 On ch=8 n=70 v=0
183839 On ch=8 n=66 v=0
183839 On ch=8 n=63 v=0
183840 On ch=8 n=70 v=92
183840 On ch=8 n=66 v=92
183840 On ch=8 n=63 v=92
183840 On ch=8 n=58 v=92
183869 On ch=8 n=58 v=0
183869 On ch=8 n=70 v=0
183869 On ch=8 n=66 v=0
183869 On ch=8 n=63 v=0
183870 On ch=8 n=70 v=93
183870 On ch=8 n=66 v=93
183870 On ch=8 n=63 v=93
183870 On ch=8 n=58 v=93
183899 On ch=8 n=58 v=0
183899 On ch=8 n=70 v=0
183899 On ch=8 n=66 v=0
183899 On ch=8 n=63 v=0
183900 On ch=8 n=70 v=94
183900 On ch=8 n=66 v=94
183900 On ch=8 n=63 v=94
183900 On ch=8 n=58 v=94
183929 On ch=8 n=58 v=0
183929 On ch=8 n=70 v=0
183929 On ch=8 n=66 v=0
183929 On ch=8 n=63 v=0
183930 On ch=8 n=70 v=95
183930 On ch=8 n=66 v=95
183930 On ch=8 n=63 v=95
183930 On ch=8 n=58 v=95
183959 On ch=8 n=58 v=0
183959 On ch=8 n=70 v=0
183959 On ch=8 n=66 v=0
183959 On ch=8 n=63 v=0
183960 On ch=8 n=75 v=96
183960 On ch=8 n=66 v=96
183960 On ch=8 n=58 v=96
183989 On ch=8 n=58 v=0
183989 On ch=8 n=66 v=0
183989 On ch=8 n=75 v=0
183990 On ch=8 n=75 v=96
183990 On ch=8 n=66 v=96
183990 On ch=8 n=58 v=96
184019 On ch=8 n=58 v=0
184019 On ch=8 n=66 v=0
184019 On ch=8 n=75 v=0
184020 On ch=8 n=75 v=96
184020 On ch=8 n=66 v=96
184020 On ch=8 n=58 v=96
184049 On ch=8 n=58 v=0
184049 On ch=8 n=66 v=0
184049 On ch=8 n=75 v=0
184050 On ch=8 n=75 v=96
184050 On ch=8 n=66 v=96
184050 On ch=8 n=58 v=96
184079 On ch=8 n=58 v=0
184079 On ch=8 n=66 v=0
184079 On ch=8 n=75 v=0
184080 On ch=8 n=78 v=96
184080 On ch=8 n=66 v=96
184080 On ch=8 n=58 v=96
184109 On ch=8 n=58 v=0
184109 On ch=8 n=66 v=0
184109 On ch=8 n=78 v=0
184110 On ch=8 n=78 v=96
184110 On ch=8 n=66 v=96
184110 On ch=8 n=58 v=96
184139 On ch=8 n=58 v=0
184139 On ch=8 n=66 v=0
184139 On ch=8 n=78 v=0
184140 On ch=8 n=78 v=96
184140 On ch=8 n=66 v=96
184140 On ch=8 n=58 v=96
184169 On ch=8 n=58 v=0
184169 On ch=8 n=66 v=0
184169 On ch=8 n=78 v=0
184170 On ch=8 n=78 v=96
184170 On ch=8 n=66 v=96
184170 On ch=8 n=58 v=96
184199 On ch=8 n=58 v=0
184199 On ch=8 n=66 v=0
184199 On ch=8 n=78 v=0
184200 On ch=8 n=82 v=96
184200 On ch=8 n=66 v=96
184200 On ch=8 n=58 v=96
184229 On ch=8 n=58 v=0
184229 On ch=8 n=66 v=0
184229 On ch=8 n=82 v=0
184230 On ch=8 n=82 v=96
184230 On ch=8 n=66 v=96
184230 On ch=8 n=58 v=96
184259 On ch=8 n=58 v=0
184259 On ch=8 n=66 v=0
184259 On ch=8 n=82 v=0
184260 On ch=8 n=82 v=96
184260 On ch=8 n=66 v=96
184260 On ch=8 n=58 v=96
184289 On ch=8 n=58 v=0
184289 On ch=8 n=66 v=0
184289 On ch=8 n=82 v=0
184290 On ch=8 n=82 v=96
184290 On ch=8 n=66 v=96
184290 On ch=8 n=58 v=96
184319 On ch=8 n=58 v=0
184319 On ch=8 n=66 v=0
184319 On ch=8 n=82 v=0
184320 On ch=8 n=71 v=127
184320 On ch=8 n=83 v=127
184320 On ch=8 n=63 v=127
184349 On ch=8 n=63 v=0
184349 On ch=8 n=83 v=0
184349 On ch=8 n=71 v=0
184350 On ch=8 n=83 v=127
184350 On ch=8 n=71 v=127
184350 On ch=8 n=63 v=127
184379 On ch=8 n=63 v=0
184379 On ch=8 n=71 v=0
184379 On ch=8 n=83 v=0
184380 On ch=8 n=83 v=127
184380 On ch=8 n=71 v=127
184380 On ch=8 n=63 v=127
184409 On ch=8 n=63 v=0
184409 On ch=8 n=71 v=0
184409 On ch=8 n=83 v=0
184410 On ch=8 n=83 v=127
184410 On ch=8 n=71 v=127
184410 On ch=8 n=63 v=127
184439 On ch=8 n=63 v=0
184439 On ch=8 n=71 v=0
184439 On ch=8 n=83 v=0
184440 On ch=8 n=83 v=127
184440 On ch=8 n=71 v=127
184440 On ch=8 n=66 v=127
184469 On ch=8 n=66 v=0
184469 On ch=8 n=71 v=0
184469 On ch=8 n=83 v=0
184470 On ch=8 n=83 v=127
184470 On ch=8 n=71 v=127
184470 On ch=8 n=66 v=127
184499 On ch=8 n=66 v=0
184499 On ch=8 n=71 v=0
184499 On ch=8 n=83 v=0
184500 On ch=8 n=83 v=127
184500 On ch=8 n=71 v=127
184500 On ch=8 n=66 v=127
184529 On ch=8 n=66 v=0
184529 On ch=8 n=71 v=0
184529 On ch=8 n=83 v=0
184530 On ch=8 n=83 v=127
184530 On ch=8 n=71 v=127
184530 On ch=8 n=66 v=127
184559 On ch=8 n=66 v=0
184559 On ch=8 n=71 v=0
184559 On ch=8 n=83 v=0
184560 On ch=8 n=83 v=127
184560 On ch=8 n=71 v=127
184560 On ch=8 n=63 v=127
184589 On ch=8 n=63 v=0
184589 On ch=8 n=71 v=0
184589 On ch=8 n=83 v=0
184590 On ch=8 n=83 v=127
184590 On ch=8 n=71 v=127
184590 On ch=8 n=63 v=127
184619 On ch=8 n=63 v=0
184619 On ch=8 n=71 v=0
184619 On ch=8 n=83 v=0
184620 On ch=8 n=83 v=127
184620 On ch=8 n=71 v=127
184620 On ch=8 n=63 v=127
184649 On ch=8 n=63 v=0
184649 On ch=8 n=71 v=0
184649 On ch=8 n=83 v=0
184650 On ch=8 n=83 v=127
184650 On ch=8 n=71 v=127
184650 On ch=8 n=63 v=127
184679 On ch=8 n=63 v=0
184679 On ch=8 n=71 v=0
184679 On ch=8 n=83 v=0
184680 On ch=8 n=83 v=127
184680 On ch=8 n=71 v=127
184709 On ch=8 n=71 v=0
184709 On ch=8 n=83 v=0
184710 On ch=8 n=83 v=127
184710 On ch=8 n=71 v=127
184739 On ch=8 n=71 v=0
184739 On ch=8 n=83 v=0
184740 On ch=8 n=83 v=127
184740 On ch=8 n=71 v=127
184769 On ch=8 n=71 v=0
184769 On ch=8 n=83 v=0
184770 On ch=8 n=83 v=127
184770 On ch=8 n=71 v=127
184799 On ch=8 n=71 v=0
184799 On ch=8 n=83 v=0
184800 On ch=8 n=83 v=127
184800 On ch=8 n=71 v=127
184800 On ch=8 n=63 v=127
184829 On ch=8 n=63 v=0
184829 On ch=8 n=71 v=0
184829 On ch=8 n=83 v=0
184830 On ch=8 n=83 v=127
184830 On ch=8 n=71 v=127
184830 On ch=8 n=63 v=127
184859 On ch=8 n=63 v=0
184859 On ch=8 n=71 v=0
184859 On ch=8 n=83 v=0
184860 On ch=8 n=83 v=127
184860 On ch=8 n=71 v=127
184860 On ch=8 n=63 v=127
184889 On ch=8 n=63 v=0
184889 On ch=8 n=71 v=0
184889 On ch=8 n=83 v=0
184890 On ch=8 n=83 v=127
184890 On ch=8 n=71 v=127
184890 On ch=8 n=63 v=127
184919 On ch=8 n=63 v=0
184919 On ch=8 n=71 v=0
184919 On ch=8 n=83 v=0
184920 On ch=8 n=83 v=127
184920 On ch=8 n=71 v=127
184920 On ch=8 n=75 v=127
184949 On ch=8 n=75 v=0
184949 On ch=8 n=71 v=0
184949 On ch=8 n=83 v=0
184950 On ch=8 n=83 v=127
184950 On ch=8 n=71 v=127
184950 On ch=8 n=75 v=127
184979 On ch=8 n=75 v=0
184979 On ch=8 n=71 v=0
184979 On ch=8 n=83 v=0
184980 On ch=8 n=83 v=127
184980 On ch=8 n=71 v=127
184980 On ch=8 n=75 v=127
185009 On ch=8 n=75 v=0
185009 On ch=8 n=71 v=0
185009 On ch=8 n=83 v=0
185010 On ch=8 n=83 v=127
185010 On ch=8 n=71 v=127
185010 On ch=8 n=75 v=127
185039 On ch=8 n=75 v=0
185039 On ch=8 n=71 v=0
185039 On ch=8 n=83 v=0
185040 On ch=8 n=83 v=127
185040 On ch=8 n=71 v=127
185040 On ch=8 n=63 v=127
185069 On ch=8 n=63 v=0
185069 On ch=8 n=71 v=0
185069 On ch=8 n=83 v=0
185070 On ch=8 n=83 v=127
185070 On ch=8 n=71 v=127
185070 On ch=8 n=63 v=127
185099 On ch=8 n=63 v=0
185099 On ch=8 n=71 v=0
185099 On ch=8 n=83 v=0
185100 On ch=8 n=83 v=127
185100 On ch=8 n=71 v=127
185100 On ch=8 n=63 v=127
185129 On ch=8 n=63 v=0
185129 On ch=8 n=71 v=0
185129 On ch=8 n=83 v=0
185130 On ch=8 n=83 v=127
185130 On ch=8 n=71 v=127
185130 On ch=8 n=63 v=127
185159 On ch=8 n=63 v=0
185159 On ch=8 n=71 v=0
185159 On ch=8 n=83 v=0
185160 On ch=8 n=83 v=127
185160 On ch=8 n=71 v=127
185160 On ch=8 n=78 v=127
185160 On ch=8 n=75 v=127
185189 On ch=8 n=75 v=0
185189 On ch=8 n=83 v=0
185189 On ch=8 n=71 v=0
185189 On ch=8 n=78 v=0
185190 On ch=8 n=83 v=127
185190 On ch=8 n=71 v=127
185190 On ch=8 n=78 v=127
185190 On ch=8 n=75 v=127
185219 On ch=8 n=75 v=0
185219 On ch=8 n=83 v=0
185219 On ch=8 n=71 v=0
185219 On ch=8 n=78 v=0
185220 On ch=8 n=83 v=127
185220 On ch=8 n=71 v=127
185220 On ch=8 n=78 v=127
185220 On ch=8 n=75 v=127
185249 On ch=8 n=75 v=0
185249 On ch=8 n=83 v=0
185249 On ch=8 n=71 v=0
185249 On ch=8 n=78 v=0
185250 On ch=8 n=83 v=127
185250 On ch=8 n=71 v=127
185250 On ch=8 n=78 v=127
185250 On ch=8 n=75 v=127
185279 On ch=8 n=75 v=0
185279 On ch=8 n=83 v=0
185279 On ch=8 n=71 v=0
185279 On ch=8 n=78 v=0
185280 On ch=8 n=83 v=127
185280 On ch=8 n=71 v=127
185280 On ch=8 n=78 v=127
185280 On ch=8 n=75 v=127
185309 On ch=8 n=75 v=0
185309 On ch=8 n=83 v=0
185309 On ch=8 n=71 v=0
185309 On ch=8 n=78 v=0
185310 On ch=8 n=83 v=127
185310 On ch=8 n=71 v=127
185310 On ch=8 n=78 v=127
185310 On ch=8 n=75 v=127
185339 On ch=8 n=75 v=0
185339 On ch=8 n=83 v=0
185339 On ch=8 n=71 v=0
185339 On ch=8 n=78 v=0
185340 On ch=8 n=83 v=127
185340 On ch=8 n=71 v=127
185340 On ch=8 n=78 v=127
185340 On ch=8 n=75 v=127
185369 On ch=8 n=75 v=0
185369 On ch=8 n=83 v=0
185369 On ch=8 n=71 v=0
185369 On ch=8 n=78 v=0
185370 On ch=8 n=83 v=127
185370 On ch=8 n=71 v=127
185370 On ch=8 n=78 v=127
185370 On ch=8 n=75 v=127
185399 On ch=8 n=75 v=0
185399 On ch=8 n=83 v=0
185399 On ch=8 n=71 v=0
185399 On ch=8 n=78 v=0
185400 On ch=8 n=83 v=127
185400 On ch=8 n=71 v=127
185400 On ch=8 n=78 v=127
185400 On ch=8 n=75 v=127
185429 On ch=8 n=75 v=0
185429 On ch=8 n=83 v=0
185429 On ch=8 n=71 v=0
185429 On ch=8 n=78 v=0
185430 On ch=8 n=83 v=127
185430 On ch=8 n=71 v=127
185430 On ch=8 n=78 v=127
185430 On ch=8 n=75 v=127
185459 On ch=8 n=75 v=0
185459 On ch=8 n=83 v=0
185459 On ch=8 n=71 v=0
185459 On ch=8 n=78 v=0
185460 On ch=8 n=83 v=127
185460 On ch=8 n=71 v=127
185460 On ch=8 n=78 v=127
185460 On ch=8 n=75 v=127
185489 On ch=8 n=75 v=0
185489 On ch=8 n=83 v=0
185489 On ch=8 n=71 v=0
185489 On ch=8 n=78 v=0
185490 On ch=8 n=83 v=127
185490 On ch=8 n=71 v=127
185490 On ch=8 n=78 v=127
185490 On ch=8 n=75 v=127
185519 On ch=8 n=75 v=0
185519 On ch=8 n=83 v=0
185519 On ch=8 n=71 v=0
185519 On ch=8 n=78 v=0
185520 On ch=8 n=83 v=127
185520 On ch=8 n=71 v=127
185520 On ch=8 n=78 v=127
185520 On ch=8 n=75 v=127
185549 On ch=8 n=75 v=0
185549 On ch=8 n=83 v=0
185549 On ch=8 n=71 v=0
185549 On ch=8 n=78 v=0
185550 On ch=8 n=83 v=127
185550 On ch=8 n=71 v=127
185550 On ch=8 n=78 v=127
185550 On ch=8 n=75 v=127
185579 On ch=8 n=75 v=0
185579 On ch=8 n=83 v=0
185579 On ch=8 n=71 v=0
185579 On ch=8 n=78 v=0
185580 On ch=8 n=83 v=127
185580 On ch=8 n=71 v=127
185580 On ch=8 n=78 v=127
185580 On ch=8 n=75 v=127
185609 On ch=8 n=75 v=0
185609 On ch=8 n=83 v=0
185609 On ch=8 n=71 v=0
185609 On ch=8 n=78 v=0
185610 On ch=8 n=83 v=127
185610 On ch=8 n=71 v=127
185610 On ch=8 n=78 v=127
185610 On ch=8 n=75 v=127
185639 On ch=8 n=75 v=0
185639 On ch=8 n=83 v=0
185639 On ch=8 n=71 v=0
185639 On ch=8 n=78 v=0
185640 On ch=8 n=83 v=127
185640 On ch=8 n=71 v=127
185640 On ch=8 n=78 v=127
185640 On ch=8 n=75 v=127
185669 On ch=8 n=75 v=0
185669 On ch=8 n=83 v=0
185669 On ch=8 n=71 v=0
185669 On ch=8 n=78 v=0
185670 On ch=8 n=83 v=127
185670 On ch=8 n=71 v=127
185670 On ch=8 n=78 v=127
185670 On ch=8 n=75 v=127
185699 On ch=8 n=75 v=0
185699 On ch=8 n=83 v=0
185699 On ch=8 n=71 v=0
185699 On ch=8 n=78 v=0
185700 On ch=8 n=83 v=127
185700 On ch=8 n=71 v=127
185700 On ch=8 n=78 v=127
185700 On ch=8 n=75 v=127
185729 On ch=8 n=75 v=0
185729 On ch=8 n=83 v=0
185729 On ch=8 n=71 v=0
185729 On ch=8 n=78 v=0
185730 On ch=8 n=83 v=127
185730 On ch=8 n=71 v=127
185730 On ch=8 n=78 v=127
185730 On ch=8 n=75 v=127
185759 On ch=8 n=75 v=0
185759 On ch=8 n=83 v=0
185759 On ch=8 n=71 v=0
185759 On ch=8 n=78 v=0
185760 On ch=8 n=83 v=127
185760 On ch=8 n=71 v=127
185760 On ch=8 n=78 v=127
185760 On ch=8 n=75 v=127
185879 On ch=8 n=75 v=0
185879 On ch=8 n=83 v=0
185879 On ch=8 n=71 v=0
185879 On ch=8 n=78 v=0
186840 On ch=8 n=59 v=96
186960 On ch=8 n=63 v=96
186969 On ch=8 n=59 v=0
187080 On ch=8 n=66 v=96
187089 On ch=8 n=63 v=0
187199 On ch=8 n=66 v=0
188280 On ch=8 n=60 v=48
188400 On ch=8 n=63 v=48
188409 On ch=8 n=60 v=0
188520 On ch=8 n=69 v=48
188529 On ch=8 n=63 v=0
188639 On ch=8 n=69 v=0
188820 On ch=8 n=62 v=46
188880 On ch=8 n=65 v=45
188889 On ch=8 n=62 v=0
188940 On ch=8 n=70 v=45
188949 On ch=8 n=65 v=0
188999 On ch=8 n=70 v=0
189180 On ch=8 n=62 v=42
189240 On ch=8 n=65 v=41
189249 On ch=8 n=62 v=0
189300 On ch=8 n=70 v=41
189309 On ch=8 n=65 v=0
189359 On ch=8 n=70 v=0
189540 On ch=8 n=63 v=38
189600 On ch=8 n=66 v=37
189609 On ch=8 n=63 v=0
189660 On ch=8 n=70 v=37
189669 On ch=8 n=66 v=0
189719 On ch=8 n=70 v=0
189900 On ch=8 n=63 v=34
189960 On ch=8 n=66 v=33
189969 On ch=8 n=63 v=0
190020 On ch=8 n=70 v=33
190029 On ch=8 n=66 v=0
190079 On ch=8 n=70 v=0
191520 On ch=8 n=71 v=32
191520 On ch=8 n=68 v=32
191549 On ch=8 n=68 v=0
191549 On ch=8 n=71 v=0
191550 On ch=8 n=71 v=32
191550 On ch=8 n=68 v=32
191579 On ch=8 n=68 v=0
191579 On ch=8 n=71 v=0
191580 On ch=8 n=71 v=32
191580 On ch=8 n=68 v=32
191609 On ch=8 n=68 v=0
191609 On ch=8 n=71 v=0
191610 On ch=8 n=71 v=32
191610 On ch=8 n=68 v=32
191639 On ch=8 n=68 v=0
191639 On ch=8 n=71 v=0
191640 On ch=8 n=71 v=32
191640 On ch=8 n=68 v=32
191669 On ch=8 n=68 v=0
191669 On ch=8 n=71 v=0
191670 On ch=8 n=71 v=32
191670 On ch=8 n=68 v=32
191699 On ch=8 n=68 v=0
191699 On ch=8 n=71 v=0
191700 On ch=8 n=71 v=32
191700 On ch=8 n=68 v=32
191729 On ch=8 n=68 v=0
191729 On ch=8 n=71 v=0
191730 On ch=8 n=71 v=32
191730 On ch=8 n=68 v=32
191759 On ch=8 n=68 v=0
191759 On ch=8 n=71 v=0
191760 On ch=8 n=71 v=32
191760 On ch=8 n=68 v=32
191789 On ch=8 n=68 v=0
191789 On ch=8 n=71 v=0
191790 On ch=8 n=71 v=32
191790 On ch=8 n=68 v=32
191819 On ch=8 n=68 v=0
191819 On ch=8 n=71 v=0
191820 On ch=8 n=71 v=32
191820 On ch=8 n=68 v=32
191849 On ch=8 n=68 v=0
191849 On ch=8 n=71 v=0
191850 On ch=8 n=71 v=32
191850 On ch=8 n=68 v=32
191879 On ch=8 n=68 v=0
191879 On ch=8 n=71 v=0
191880 On ch=8 n=71 v=32
191880 On ch=8 n=68 v=32
191909 On ch=8 n=68 v=0
191909 On ch=8 n=71 v=0
191910 On ch=8 n=71 v=32
191910 On ch=8 n=68 v=32
191939 On ch=8 n=68 v=0
191939 On ch=8 n=71 v=0
191940 On ch=8 n=71 v=32
191940 On ch=8 n=68 v=32
191969 On ch=8 n=68 v=0
191969 On ch=8 n=71 v=0
191970 On ch=8 n=71 v=32
191970 On ch=8 n=68 v=32
191999 On ch=8 n=68 v=0
191999 On ch=8 n=71 v=0
192000 On ch=8 n=71 v=32
192000 On ch=8 n=68 v=32
192029 On ch=8 n=68 v=0
192029 On ch=8 n=71 v=0
192030 On ch=8 n=71 v=32
192030 On ch=8 n=68 v=32
192059 On ch=8 n=68 v=0
192059 On ch=8 n=71 v=0
192060 On ch=8 n=71 v=32
192060 On ch=8 n=68 v=32
192089 On ch=8 n=68 v=0
192089 On ch=8 n=71 v=0
192090 On ch=8 n=71 v=32
192090 On ch=8 n=68 v=32
192119 On ch=8 n=68 v=0
192119 On ch=8 n=71 v=0
192120 On ch=8 n=71 v=32
192120 On ch=8 n=68 v=32
192149 On ch=8 n=68 v=0
192149 On ch=8 n=71 v=0
192150 On ch=8 n=71 v=32
192150 On ch=8 n=68 v=32
192179 On ch=8 n=68 v=0
192179 On ch=8 n=71 v=0
192180 On ch=8 n=71 v=32
192180 On ch=8 n=68 v=32
192209 On ch=8 n=68 v=0
192209 On ch=8 n=71 v=0
192210 On ch=8 n=71 v=32
192210 On ch=8 n=68 v=32
192239 On ch=8 n=68 v=0
192239 On ch=8 n=71 v=0
192960 On ch=8 n=70 v=32
192960 On ch=8 n=68 v=32
192989 On ch=8 n=68 v=0
192989 On ch=8 n=70 v=0
192990 On ch=8 n=70 v=32
192990 On ch=8 n=68 v=32
193019 On ch=8 n=68 v=0
193019 On ch=8 n=70 v=0
193020 On ch=8 n=70 v=32
193020 On ch=8 n=68 v=32
193049 On ch=8 n=68 v=0
193049 On ch=8 n=70 v=0
193050 On ch=8 n=70 v=32
193050 On ch=8 n=68 v=32
193079 On ch=8 n=68 v=0
193079 On ch=8 n=70 v=0
193080 On ch=8 n=70 v=32
193080 On ch=8 n=68 v=32
193109 On ch=8 n=68 v=0
193109 On ch=8 n=70 v=0
193110 On ch=8 n=70 v=32
193110 On ch=8 n=68 v=32
193139 On ch=8 n=68 v=0
193139 On ch=8 n=70 v=0
193140 On ch=8 n=70 v=32
193140 On ch=8 n=68 v=32
193169 On ch=8 n=68 v=0
193169 On ch=8 n=70 v=0
193170 On ch=8 n=70 v=32
193170 On ch=8 n=68 v=32
193199 On ch=8 n=68 v=0
193199 On ch=8 n=70 v=0
193200 On ch=8 n=70 v=32
193200 On ch=8 n=68 v=32
193229 On ch=8 n=68 v=0
193229 On ch=8 n=70 v=0
193230 On ch=8 n=70 v=32
193230 On ch=8 n=68 v=32
193259 On ch=8 n=68 v=0
193259 On ch=8 n=70 v=0
193260 On ch=8 n=70 v=32
193260 On ch=8 n=68 v=32
193289 On ch=8 n=68 v=0
193289 On ch=8 n=70 v=0
193290 On ch=8 n=70 v=32
193290 On ch=8 n=68 v=32
193319 On ch=8 n=68 v=0
193319 On ch=8 n=70 v=0
193320 On ch=8 n=70 v=32
193320 On ch=8 n=68 v=32
193349 On ch=8 n=68 v=0
193349 On ch=8 n=70 v=0
193350 On ch=8 n=70 v=32
193350 On ch=8 n=68 v=32
193379 On ch=8 n=68 v=0
193379 On ch=8 n=70 v=0
193380 On ch=8 n=70 v=32
193380 On ch=8 n=68 v=32
193409 On ch=8 n=68 v=0
193409 On ch=8 n=70 v=0
193410 On ch=8 n=70 v=32
193410 On ch=8 n=68 v=32
193439 On ch=8 n=68 v=0
193439 On ch=8 n=70 v=0
193440 On ch=8 n=70 v=32
193440 On ch=8 n=68 v=32
193469 On ch=8 n=68 v=0
193469 On ch=8 n=70 v=0
193470 On ch=8 n=70 v=32
193470 On ch=8 n=68 v=32
193499 On ch=8 n=68 v=0
193499 On ch=8 n=70 v=0
193500 On ch=8 n=70 v=32
193500 On ch=8 n=68 v=32
193529 On ch=8 n=68 v=0
193529 On ch=8 n=70 v=0
193530 On ch=8 n=70 v=32
193530 On ch=8 n=68 v=32
193559 On ch=8 n=68 v=0
193559 On ch=8 n=70 v=0
193560 On ch=8 n=70 v=32
193560 On ch=8 n=68 v=32
193589 On ch=8 n=68 v=0
193589 On ch=8 n=70 v=0
193590 On ch=8 n=70 v=32
193590 On ch=8 n=68 v=32
193619 On ch=8 n=68 v=0
193619 On ch=8 n=70 v=0
193620 On ch=8 n=70 v=32
193620 On ch=8 n=68 v=32
193649 On ch=8 n=68 v=0
193649 On ch=8 n=70 v=0
193650 On ch=8 n=70 v=32
193650 On ch=8 n=68 v=32
193679 On ch=8 n=68 v=0
193679 On ch=8 n=70 v=0
194400 On ch=8 n=71 v=32
194400 On ch=8 n=68 v=32
194429 On ch=8 n=68 v=0
194429 On ch=8 n=71 v=0
194430 On ch=8 n=71 v=32
194430 On ch=8 n=68 v=32
194459 On ch=8 n=68 v=0
194459 On ch=8 n=71 v=0
194460 On ch=8 n=71 v=32
194460 On ch=8 n=68 v=32
194489 On ch=8 n=68 v=0
194489 On ch=8 n=71 v=0
194490 On ch=8 n=71 v=32
194490 On ch=8 n=68 v=32
194519 On ch=8 n=68 v=0
194519 On ch=8 n=71 v=0
194520 On ch=8 n=71 v=32
194520 On ch=8 n=68 v=32
194549 On ch=8 n=68 v=0
194549 On ch=8 n=71 v=0
194550 On ch=8 n=71 v=32
194550 On ch=8 n=68 v=32
194579 On ch=8 n=68 v=0
194579 On ch=8 n=71 v=0
194580 On ch=8 n=71 v=32
194580 On ch=8 n=68 v=32
194609 On ch=8 n=68 v=0
194609 On ch=8 n=71 v=0
194610 On ch=8 n=71 v=32
194610 On ch=8 n=68 v=32
194639 On ch=8 n=68 v=0
194639 On ch=8 n=71 v=0
194640 On ch=8 n=71 v=32
194640 On ch=8 n=68 v=32
194669 On ch=8 n=68 v=0
194669 On ch=8 n=71 v=0
194670 On ch=8 n=71 v=32
194670 On ch=8 n=68 v=32
194699 On ch=8 n=68 v=0
194699 On ch=8 n=71 v=0
194700 On ch=8 n=71 v=32
194700 On ch=8 n=68 v=32
194729 On ch=8 n=68 v=0
194729 On ch=8 n=71 v=0
194730 On ch=8 n=71 v=32
194730 On ch=8 n=68 v=32
194759 On ch=8 n=68 v=0
194759 On ch=8 n=71 v=0
194760 On ch=8 n=71 v=32
194760 On ch=8 n=68 v=32
194789 On ch=8 n=68 v=0
194789 On ch=8 n=71 v=0
194790 On ch=8 n=71 v=32
194790 On ch=8 n=68 v=32
194819 On ch=8 n=68 v=0
194819 On ch=8 n=71 v=0
194820 On ch=8 n=71 v=32
194820 On ch=8 n=68 v=32
194849 On ch=8 n=68 v=0
194849 On ch=8 n=71 v=0
194850 On ch=8 n=71 v=32
194850 On ch=8 n=68 v=32
194879 On ch=8 n=68 v=0
194879 On ch=8 n=71 v=0
194880 On ch=8 n=71 v=32
194880 On ch=8 n=68 v=32
194909 On ch=8 n=68 v=0
194909 On ch=8 n=71 v=0
194910 On ch=8 n=71 v=32
194910 On ch=8 n=68 v=32
194939 On ch=8 n=68 v=0
194939 On ch=8 n=71 v=0
194940 On ch=8 n=71 v=32
194940 On ch=8 n=68 v=32
194969 On ch=8 n=68 v=0
194969 On ch=8 n=71 v=0
194970 On ch=8 n=71 v=32
194970 On ch=8 n=68 v=32
194999 On ch=8 n=68 v=0
194999 On ch=8 n=71 v=0
195000 On ch=8 n=71 v=32
195000 On ch=8 n=68 v=32
195029 On ch=8 n=68 v=0
195029 On ch=8 n=71 v=0
195030 On ch=8 n=71 v=32
195030 On ch=8 n=68 v=32
195059 On ch=8 n=68 v=0
195059 On ch=8 n=71 v=0
195060 On ch=8 n=71 v=32
195060 On ch=8 n=68 v=32
195089 On ch=8 n=68 v=0
195089 On ch=8 n=71 v=0
195090 On ch=8 n=71 v=32
195090 On ch=8 n=68 v=32
195119 On ch=8 n=68 v=0
195119 On ch=8 n=71 v=0
195120 On ch=8 n=70 v=32
195120 On ch=8 n=68 v=32
195149 On ch=8 n=68 v=0
195149 On ch=8 n=70 v=0
195150 On ch=8 n=70 v=32
195150 On ch=8 n=68 v=32
195179 On ch=8 n=68 v=0
195179 On ch=8 n=70 v=0
195180 On ch=8 n=70 v=32
195180 On ch=8 n=68 v=32
195209 On ch=8 n=68 v=0
195209 On ch=8 n=70 v=0
195210 On ch=8 n=70 v=32
195210 On ch=8 n=68 v=32
195239 On ch=8 n=68 v=0
195239 On ch=8 n=70 v=0
195240 On ch=8 n=70 v=32
195240 On ch=8 n=68 v=32
195269 On ch=8 n=68 v=0
195269 On ch=8 n=70 v=0
195270 On ch=8 n=70 v=32
195270 On ch=8 n=68 v=32
195299 On ch=8 n=68 v=0
195299 On ch=8 n=70 v=0
195300 On ch=8 n=70 v=32
195300 On ch=8 n=68 v=32
195329 On ch=8 n=68 v=0
195329 On ch=8 n=70 v=0
195330 On ch=8 n=70 v=32
195330 On ch=8 n=68 v=32
195359 On ch=8 n=68 v=0
195359 On ch=8 n=70 v=0
195360 On ch=8 n=70 v=32
195360 On ch=8 n=68 v=32
195389 On ch=8 n=68 v=0
195389 On ch=8 n=70 v=0
195390 On ch=8 n=70 v=32
195390 On ch=8 n=68 v=32
195419 On ch=8 n=68 v=0
195419 On ch=8 n=70 v=0
195420 On ch=8 n=70 v=32
195420 On ch=8 n=68 v=32
195449 On ch=8 n=68 v=0
195449 On ch=8 n=70 v=0
195450 On ch=8 n=70 v=32
195450 On ch=8 n=68 v=32
195479 On ch=8 n=68 v=0
195479 On ch=8 n=70 v=0
195480 On ch=8 n=70 v=32
195480 On ch=8 n=68 v=32
195509 On ch=8 n=68 v=0
195509 On ch=8 n=70 v=0
195510 On ch=8 n=70 v=32
195510 On ch=8 n=68 v=32
195539 On ch=8 n=68 v=0
195539 On ch=8 n=70 v=0
195540 On ch=8 n=70 v=32
195540 On ch=8 n=68 v=32
195569 On ch=8 n=68 v=0
195569 On ch=8 n=70 v=0
195570 On ch=8 n=70 v=32
195570 On ch=8 n=68 v=32
195599 On ch=8 n=68 v=0
195599 On ch=8 n=70 v=0
195600 On ch=8 n=70 v=32
195600 On ch=8 n=68 v=32
195629 On ch=8 n=68 v=0
195629 On ch=8 n=70 v=0
195630 On ch=8 n=70 v=31
195630 On ch=8 n=68 v=31
195659 On ch=8 n=68 v=0
195659 On ch=8 n=70 v=0
195660 On ch=8 n=70 v=30
195660 On ch=8 n=68 v=30
195689 On ch=8 n=68 v=0
195689 On ch=8 n=70 v=0
195690 On ch=8 n=70 v=29
195690 On ch=8 n=68 v=29
195719 On ch=8 n=68 v=0
195719 On ch=8 n=70 v=0
195720 On ch=8 n=70 v=28
195720 On ch=8 n=68 v=28
195749 On ch=8 n=68 v=0
195749 On ch=8 n=70 v=0
195750 On ch=8 n=70 v=27
195750 On ch=8 n=68 v=27
195779 On ch=8 n=68 v=0
195779 On ch=8 n=70 v=0
195780 On ch=8 n=70 v=26
195780 On ch=8 n=68 v=26
195809 On ch=8 n=68 v=0
195809 On ch=8 n=70 v=0
195810 On ch=8 n=70 v=25
195810 On ch=8 n=68 v=25
195839 On ch=8 n=68 v=0
195839 On ch=8 n=70 v=0
195840 On ch=8 n=70 v=24
195840 On ch=8 n=68 v=24
195869 On ch=8 n=68 v=0
195869 On ch=8 n=70 v=0
195870 On ch=8 n=70 v=24
195870 On ch=8 n=68 v=24
195899 On ch=8 n=68 v=0
195899 On ch=8 n=70 v=0
195900 On ch=8 n=70 v=24
195900 On ch=8 n=68 v=24
195929 On ch=8 n=68 v=0
195929 On ch=8 n=70 v=0
195930 On ch=8 n=70 v=24
195930 On ch=8 n=68 v=24
195959 On ch=8 n=68 v=0
195959 On ch=8 n=70 v=0
195960 On ch=8 n=70 v=24
195960 On ch=8 n=68 v=24
195989 On ch=8 n=68 v=0
195989 On ch=8 n=70 v=0
195990 On ch=8 n=70 v=24
195990 On ch=8 n=68 v=24
196019 On ch=8 n=68 v=0
196019 On ch=8 n=70 v=0
196020 On ch=8 n=70 v=24
196020 On ch=8 n=68 v=24
196049 On ch=8 n=68 v=0
196049 On ch=8 n=70 v=0
196050 On ch=8 n=70 v=24
196050 On ch=8 n=68 v=24
196079 On ch=8 n=68 v=0
196079 On ch=8 n=70 v=0
196080 On ch=8 n=70 v=24
196080 On ch=8 n=68 v=24
196109 On ch=8 n=68 v=0
196109 On ch=8 n=70 v=0
196110 On ch=8 n=70 v=24
196110 On ch=8 n=68 v=24
196139 On ch=8 n=68 v=0
196139 On ch=8 n=70 v=0
196140 On ch=8 n=70 v=24
196140 On ch=8 n=68 v=24
196169 On ch=8 n=68 v=0
196169 On ch=8 n=70 v=0
196170 On ch=8 n=70 v=24
196170 On ch=8 n=68 v=24
196199 On ch=8 n=68 v=0
196199 On ch=8 n=70 v=0
196200 On ch=8 n=70 v=24
196200 On ch=8 n=68 v=24
196229 On ch=8 n=68 v=0
196229 On ch=8 n=70 v=0
196230 On ch=8 n=70 v=24
196230 On ch=8 n=68 v=24
196259 On ch=8 n=68 v=0
196259 On ch=8 n=70 v=0
196260 On ch=8 n=70 v=24
196260 On ch=8 n=68 v=24
196289 On ch=8 n=68 v=0
196289 On ch=8 n=70 v=0
196290 On ch=8 n=70 v=24
196290 On ch=8 n=68 v=24
196319 On ch=8 n=68 v=0
196319 On ch=8 n=70 v=0
196320 On ch=8 n=70 v=24
196320 On ch=8 n=68 v=24
196349 On ch=8 n=68 v=0
196349 On ch=8 n=70 v=0
196350 On ch=8 n=70 v=24
196350 On ch=8 n=68 v=24
196379 On ch=8 n=68 v=0
196379 On ch=8 n=70 v=0
196380 On ch=8 n=70 v=24
196380 On ch=8 n=68 v=24
196409 On ch=8 n=68 v=0
196409 On ch=8 n=70 v=0
196410 On ch=8 n=70 v=24
196410 On ch=8 n=68 v=24
196439 On ch=8 n=68 v=0
196439 On ch=8 n=70 v=0
196440 On ch=8 n=70 v=24
196440 On ch=8 n=68 v=24
196469 On ch=8 n=68 v=0
196469 On ch=8 n=70 v=0
196470 On ch=8 n=70 v=24
196470 On ch=8 n=68 v=24
196499 On ch=8 n=68 v=0
196499 On ch=8 n=70 v=0
196500 On ch=8 n=70 v=24
196500 On ch=8 n=68 v=24
196529 On ch=8 n=68 v=0
196529 On ch=8 n=70 v=0
196530 On ch=8 n=70 v=24
196530 On ch=8 n=68 v=24
196559 On ch=8 n=68 v=0
196559 On ch=8 n=70 v=0
196560 On ch=8 n=74 v=96
196560 On ch=8 n=68 v=96
196589 On ch=8 n=68 v=0
196589 On ch=8 n=74 v=0
196590 On ch=8 n=74 v=96
196590 On ch=8 n=68 v=96
196619 On ch=8 n=68 v=0
196619 On ch=8 n=74 v=0
196620 On ch=8 n=74 v=96
196620 On ch=8 n=68 v=96
196649 On ch=8 n=68 v=0
196649 On ch=8 n=74 v=0
196650 On ch=8 n=74 v=96
196650 On ch=8 n=68 v=96
196679 On ch=8 n=68 v=0
196679 On ch=8 n=74 v=0
196680 On ch=8 n=74 v=96
196680 On ch=8 n=68 v=96
196709 On ch=8 n=68 v=0
196709 On ch=8 n=74 v=0
196710 On ch=8 n=74 v=96
196710 On ch=8 n=68 v=96
196739 On ch=8 n=68 v=0
196739 On ch=8 n=74 v=0
196740 On ch=8 n=74 v=96
196740 On ch=8 n=68 v=96
196769 On ch=8 n=68 v=0
196769 On ch=8 n=74 v=0
196770 On ch=8 n=74 v=96
196770 On ch=8 n=68 v=96
196799 On ch=8 n=68 v=0
196799 On ch=8 n=74 v=0
196800 On ch=8 n=74 v=96
196800 On ch=8 n=68 v=96
196829 On ch=8 n=68 v=0
196829 On ch=8 n=74 v=0
196830 On ch=8 n=74 v=96
196830 On ch=8 n=68 v=96
196859 On ch=8 n=68 v=0
196859 On ch=8 n=74 v=0
196860 On ch=8 n=74 v=96
196860 On ch=8 n=68 v=96
196889 On ch=8 n=68 v=0
196889 On ch=8 n=74 v=0
196890 On ch=8 n=74 v=96
196890 On ch=8 n=68 v=96
196919 On ch=8 n=68 v=0
196919 On ch=8 n=74 v=0
196920 On ch=8 n=80 v=127
196920 On ch=8 n=70 v=127
196920 On ch=8 n=65 v=127
196920 On ch=8 n=74 v=127
196949 On ch=8 n=74 v=0
196949 On ch=8 n=80 v=0
196949 On ch=8 n=70 v=0
196949 On ch=8 n=65 v=0
196950 On ch=8 n=80 v=127
196950 On ch=8 n=70 v=127
196950 On ch=8 n=65 v=127
196950 On ch=8 n=74 v=127
196979 On ch=8 n=74 v=0
196979 On ch=8 n=80 v=0
196979 On ch=8 n=70 v=0
196979 On ch=8 n=65 v=0
196980 On ch=8 n=80 v=127
196980 On ch=8 n=70 v=127
196980 On ch=8 n=65 v=127
196980 On ch=8 n=74 v=127
197009 On ch=8 n=74 v=0
197009 On ch=8 n=80 v=0
197009 On ch=8 n=70 v=0
197009 On ch=8 n=65 v=0
197010 On ch=8 n=80 v=127
197010 On ch=8 n=70 v=127
197010 On ch=8 n=65 v=127
197010 On ch=8 n=74 v=127
197039 On ch=8 n=74 v=0
197039 On ch=8 n=80 v=0
197039 On ch=8 n=70 v=0
197039 On ch=8 n=65 v=0
197040 On ch=8 n=80 v=127
197040 On ch=8 n=70 v=127
197040 On ch=8 n=65 v=127
197040 On ch=8 n=74 v=127
197069 On ch=8 n=74 v=0
197069 On ch=8 n=80 v=0
197069 On ch=8 n=70 v=0
197069 On ch=8 n=65 v=0
197070 On ch=8 n=80 v=127
197070 On ch=8 n=70 v=127
197070 On ch=8 n=65 v=127
197070 On ch=8 n=74 v=127
197099 On ch=8 n=74 v=0
197099 On ch=8 n=80 v=0
197099 On ch=8 n=70 v=0
197099 On ch=8 n=65 v=0
197100 On ch=8 n=80 v=127
197100 On ch=8 n=70 v=127
197100 On ch=8 n=65 v=127
197100 On ch=8 n=74 v=127
197129 On ch=8 n=74 v=0
197129 On ch=8 n=80 v=0
197129 On ch=8 n=70 v=0
197129 On ch=8 n=65 v=0
197130 On ch=8 n=80 v=127
197130 On ch=8 n=70 v=127
197130 On ch=8 n=65 v=127
197130 On ch=8 n=74 v=127
197159 On ch=8 n=74 v=0
197159 On ch=8 n=80 v=0
197159 On ch=8 n=70 v=0
197159 On ch=8 n=65 v=0
197160 On ch=8 n=80 v=127
197160 On ch=8 n=70 v=127
197160 On ch=8 n=65 v=127
197160 On ch=8 n=74 v=127
197189 On ch=8 n=74 v=0
197189 On ch=8 n=80 v=0
197189 On ch=8 n=70 v=0
197189 On ch=8 n=65 v=0
197190 On ch=8 n=80 v=127
197190 On ch=8 n=70 v=127
197190 On ch=8 n=65 v=127
197190 On ch=8 n=74 v=127
197219 On ch=8 n=74 v=0
197219 On ch=8 n=80 v=0
197219 On ch=8 n=70 v=0
197219 On ch=8 n=65 v=0
197220 On ch=8 n=80 v=127
197220 On ch=8 n=70 v=127
197220 On ch=8 n=65 v=127
197220 On ch=8 n=74 v=127
197249 On ch=8 n=74 v=0
197249 On ch=8 n=80 v=0
197249 On ch=8 n=70 v=0
197249 On ch=8 n=65 v=0
197250 On ch=8 n=80 v=127
197250 On ch=8 n=70 v=127
197250 On ch=8 n=65 v=127
197250 On ch=8 n=74 v=127
197279 On ch=8 n=74 v=0
197279 On ch=8 n=80 v=0
197279 On ch=8 n=70 v=0
197279 On ch=8 n=65 v=0
197280 On ch=8 n=67 v=127
197280 On ch=8 n=75 v=127
197280 On ch=8 n=55 v=127
197280 On ch=8 n=63 v=127
197280 On ch=8 n=70 v=127
197280 On ch=8 n=79 v=127
197309 On ch=8 n=75 v=0
197309 On ch=8 n=67 v=0
197310 On ch=8 n=75 v=48
197339 On ch=8 n=75 v=0
197399 On ch=8 n=55 v=0
197399 On ch=8 n=63 v=0
197399 On ch=8 n=79 v=0
197399 On ch=8 n=70 v=0
197400 On ch=8 n=67 v=48
197459 On ch=8 n=67 v=0
197460 On ch=8 n=67 v=48
197519 On ch=8 n=67 v=0
197520 On ch=8 n=67 v=48
197579 On ch=8 n=67 v=0
197580 On ch=8 n=67 v=48
197639 On ch=8 n=67 v=0
197640 On ch=8 n=67 v=48
197699 On ch=8 n=67 v=0
197700 On ch=8 n=67 v=48
197759 On ch=8 n=67 v=0
197760 On ch=8 n=67 v=48
197819 On ch=8 n=67 v=0
197820 On ch=8 n=67 v=48
197879 On ch=8 n=67 v=0
197880 On ch=8 n=67 v=48
197939 On ch=8 n=67 v=0
197940 On ch=8 n=67 v=48
197999 On ch=8 n=67 v=0
198000 On ch=8 n=67 v=48
198059 On ch=8 n=67 v=0
198060 On ch=8 n=67 v=48
198119 On ch=8 n=67 v=0
198120 On ch=8 n=67 v=48
198179 On ch=8 n=67 v=0
198180 On ch=8 n=67 v=48
198239 On ch=8 n=67 v=0
198240 On ch=8 n=67 v=48
198299 On ch=8 n=67 v=0
198300 On ch=8 n=67 v=48
198359 On ch=8 n=67 v=0
198360 On ch=8 n=67 v=48
198419 On ch=8 n=67 v=0
198420 On ch=8 n=67 v=48
198479 On ch=8 n=67 v=0
198480 On ch=8 n=67 v=48
198539 On ch=8 n=67 v=0
198540 On ch=8 n=67 v=48
198599 On ch=8 n=67 v=0
198600 On ch=8 n=67 v=48
198659 On ch=8 n=67 v=0
198660 On ch=8 n=67 v=48
198719 On ch=8 n=67 v=0
198720 On ch=8 n=67 v=48
198780 On ch=8 n=79 v=52
198780 On ch=8 n=58 v=52
198789 On ch=8 n=67 v=0
198840 On ch=8 n=64 v=56
198849 On ch=8 n=58 v=0
198899 On ch=8 n=79 v=0
198900 On ch=8 n=79 v=60
198900 On ch=8 n=58 v=60
198909 On ch=8 n=64 v=0
198960 On ch=8 n=64 v=64
198969 On ch=8 n=58 v=0
199019 On ch=8 n=79 v=0
199020 On ch=8 n=79 v=68
199020 On ch=8 n=58 v=68
199029 On ch=8 n=64 v=0
199079 On ch=8 n=58 v=0
199080 On ch=8 n=64 v=72
199139 On ch=8 n=79 v=0
199140 On ch=8 n=79 v=76
199140 On ch=8 n=58 v=76
199149 On ch=8 n=64 v=0
199200 On ch=8 n=64 v=80
199209 On ch=8 n=58 v=0
199259 On ch=8 n=79 v=0
199260 On ch=8 n=79 v=84
199260 On ch=8 n=58 v=84
199269 On ch=8 n=64 v=0
199320 On ch=8 n=64 v=88
199329 On ch=8 n=58 v=0
199379 On ch=8 n=79 v=0
199380 On ch=8 n=79 v=96
199380 On ch=8 n=58 v=92
199389 On ch=8 n=64 v=0
199439 On ch=8 n=58 v=0
199440 On ch=8 n=64 v=96
199500 On ch=8 n=58 v=88
199509 On ch=8 n=64 v=0
199560 On ch=8 n=60 v=80
199569 On ch=8 n=58 v=0
199620 On ch=8 n=58 v=72
199629 On ch=8 n=60 v=0
199680 On ch=8 n=60 v=64
199689 On ch=8 n=58 v=0
199740 On ch=8 n=58 v=56
199749 On ch=8 n=60 v=0
199799 On ch=8 n=58 v=0
199800 On ch=8 n=77 v=48
199800 On ch=8 n=57 v=48
199809 On ch=8 n=79 v=0
199860 On ch=8 n=60 v=48
199869 On ch=8 n=57 v=0
199920 On ch=8 n=57 v=48
199929 On ch=8 n=60 v=0
199980 On ch=8 n=60 v=48
199989 On ch=8 n=57 v=0
200040 On ch=8 n=57 v=48
200049 On ch=8 n=60 v=0
200100 On ch=8 n=60 v=48
200109 On ch=8 n=57 v=0
200159 On ch=8 n=60 v=0
200160 On ch=8 n=55 v=48
200220 On ch=8 n=60 v=48
200229 On ch=8 n=55 v=0
200280 On ch=8 n=76 v=48
200280 On ch=8 n=55 v=48
200289 On ch=8 n=60 v=0
200289 On ch=8 n=77 v=0
200340 On ch=8 n=60 v=48
200349 On ch=8 n=55 v=0
200400 On ch=8 n=74 v=48
200400 On ch=8 n=55 v=48
200409 On ch=8 n=60 v=0
200409 On ch=8 n=76 v=0
200460 On ch=8 n=60 v=48
200469 On ch=8 n=55 v=0
200519 On ch=8 n=60 v=0
200519 On ch=8 n=74 v=0
200520 On ch=8 n=76 v=48
200520 On ch=8 n=55 v=48
200539 On ch=8 n=76 v=0
200540 On ch=8 n=77 v=48
200559 On ch=8 n=77 v=0
200560 On ch=8 n=76 v=48
200579 On ch=8 n=76 v=0
200580 On ch=8 n=77 v=48
200580 On ch=8 n=60 v=48
200589 On ch=8 n=55 v=0
200599 On ch=8 n=77 v=0
200600 On ch=8 n=76 v=48
200619 On ch=8 n=76 v=0
200620 On ch=8 n=77 v=48
200639 On ch=8 n=77 v=0
200640 On ch=8 n=76 v=48
200640 On ch=8 n=58 v=48
200649 On ch=8 n=60 v=0
200659 On ch=8 n=76 v=0
200660 On ch=8 n=77 v=48
200679 On ch=8 n=77 v=0
200680 On ch=8 n=76 v=48
200699 On ch=8 n=76 v=0
200700 On ch=8 n=77 v=48
200700 On ch=8 n=60 v=48
200709 On ch=8 n=58 v=0
200719 On ch=8 n=77 v=0
200720 On ch=8 n=76 v=48
200739 On ch=8 n=76 v=0
200740 On ch=8 n=77 v=48
200759 On ch=8 n=77 v=0
200760 On ch=8 n=76 v=48
200760 On ch=8 n=58 v=48
200769 On ch=8 n=60 v=0
200779 On ch=8 n=76 v=0
200780 On ch=8 n=77 v=48
200809 On ch=8 n=77 v=0
200810 On ch=8 n=76 v=48
200820 On ch=8 n=60 v=48
200829 On ch=8 n=58 v=0
200839 On ch=8 n=76 v=0
200840 On ch=8 n=74 v=48
200859 On ch=8 n=74 v=0
200860 On ch=8 n=76 v=48
200879 On ch=8 n=76 v=0
200879 On ch=8 n=60 v=0
200880 On ch=8 n=57 v=48
200880 On ch=8 n=77 v=48
200939 On ch=8 n=77 v=0
200939 On ch=8 n=57 v=0
200940 On ch=8 n=60 v=48
200940 On ch=8 n=57 v=48
200999 On ch=8 n=57 v=0
200999 On ch=8 n=60 v=0
201000 On ch=8 n=60 v=48
201000 On ch=8 n=57 v=48
201059 On ch=8 n=57 v=0
201059 On ch=8 n=60 v=0
201060 On ch=8 n=60 v=48
201060 On ch=8 n=57 v=48
201119 On ch=8 n=57 v=0
201119 On ch=8 n=60 v=0
201120 On ch=8 n=60 v=48
201120 On ch=8 n=57 v=48
201179 On ch=8 n=57 v=0
201179 On ch=8 n=60 v=0
201180 On ch=8 n=60 v=48
201180 On ch=8 n=57 v=48
201239 On ch=8 n=57 v=0
201239 On ch=8 n=60 v=0
201240 On ch=8 n=60 v=48
201240 On ch=8 n=57 v=48
201299 On ch=8 n=57 v=0
201299 On ch=8 n=60 v=0
201300 On ch=8 n=60 v=48
201300 On ch=8 n=57 v=48
201359 On ch=8 n=57 v=0
201359 On ch=8 n=60 v=0
201360 On ch=8 n=60 v=48
201360 On ch=8 n=57 v=48
201419 On ch=8 n=57 v=0
201419 On ch=8 n=60 v=0
201420 On ch=8 n=60 v=48
201420 On ch=8 n=57 v=48
201479 On ch=8 n=57 v=0
201479 On ch=8 n=60 v=0
201480 On ch=8 n=60 v=48
201480 On ch=8 n=57 v=48
201539 On ch=8 n=57 v=0
201539 On ch=8 n=60 v=0
201540 On ch=8 n=60 v=48
201540 On ch=8 n=57 v=48
201599 On ch=8 n=57 v=0
201599 On ch=8 n=60 v=0
201600 On ch=8 n=60 v=48
201600 On ch=8 n=57 v=48
201659 On ch=8 n=57 v=0
201659 On ch=8 n=60 v=0
201660 On ch=8 n=60 v=48
201660 On ch=8 n=57 v=48
201719 On ch=8 n=57 v=0
201719 On ch=8 n=60 v=0
201720 On ch=8 n=60 v=48
201720 On ch=8 n=57 v=48
201779 On ch=8 n=57 v=0
201779 On ch=8 n=60 v=0
201780 On ch=8 n=60 v=48
201780 On ch=8 n=57 v=48
201839 On ch=8 n=57 v=0
201839 On ch=8 n=60 v=0
201840 On ch=8 n=60 v=48
201840 On ch=8 n=57 v=48
201899 On ch=8 n=57 v=0
201899 On ch=8 n=60 v=0
201900 On ch=8 n=60 v=48
201900 On ch=8 n=57 v=48
201959 On ch=8 n=57 v=0
201959 On ch=8 n=60 v=0
201960 On ch=8 n=60 v=48
201960 On ch=8 n=57 v=48
202019 On ch=8 n=57 v=0
202019 On ch=8 n=60 v=0
202020 On ch=8 n=60 v=48
202020 On ch=8 n=57 v=48
202079 On ch=8 n=57 v=0
202079 On ch=8 n=60 v=0
202080 On ch=8 n=60 v=48
202080 On ch=8 n=57 v=48
202139 On ch=8 n=57 v=0
202139 On ch=8 n=60 v=0
202140 On ch=8 n=60 v=48
202140 On ch=8 n=57 v=48
202199 On ch=8 n=57 v=0
202199 On ch=8 n=60 v=0
202200 On ch=8 n=60 v=48
202200 On ch=8 n=57 v=48
202259 On ch=8 n=57 v=0
202259 On ch=8 n=60 v=0
202260 On ch=8 n=60 v=48
202260 On ch=8 n=57 v=48
202319 On ch=8 n=57 v=0
202319 On ch=8 n=60 v=0
202320 On ch=8 n=58 v=48
202320 On ch=8 n=60 v=48
202379 On ch=8 n=60 v=0
202379 On ch=8 n=58 v=0
202380 On ch=8 n=58 v=48
202380 On ch=8 n=60 v=48
202439 On ch=8 n=60 v=0
202439 On ch=8 n=58 v=0
202440 On ch=8 n=58 v=48
202440 On ch=8 n=60 v=48
202499 On ch=8 n=60 v=0
202499 On ch=8 n=58 v=0
202500 On ch=8 n=58 v=48
202500 On ch=8 n=60 v=48
202559 On ch=8 n=60 v=0
202559 On ch=8 n=58 v=0
202560 On ch=8 n=58 v=48
202560 On ch=8 n=60 v=48
202619 On ch=8 n=60 v=0
202619 On ch=8 n=58 v=0
202620 On ch=8 n=58 v=48
202620 On ch=8 n=60 v=48
202679 On ch=8 n=60 v=0
202679 On ch=8 n=58 v=0
202680 On ch=8 n=58 v=48
202680 On ch=8 n=60 v=48
202739 On ch=8 n=60 v=0
202739 On ch=8 n=58 v=0
202740 On ch=8 n=58 v=48
202740 On ch=8 n=60 v=48
202799 On ch=8 n=60 v=0
202799 On ch=8 n=58 v=0
202800 On ch=8 n=58 v=48
202800 On ch=8 n=60 v=48
202859 On ch=8 n=60 v=0
202859 On ch=8 n=58 v=0
202860 On ch=8 n=58 v=48
202860 On ch=8 n=60 v=48
202919 On ch=8 n=60 v=0
202919 On ch=8 n=58 v=0
202920 On ch=8 n=58 v=48
202920 On ch=8 n=60 v=48
202979 On ch=8 n=60 v=0
202979 On ch=8 n=58 v=0
202980 On ch=8 n=58 v=48
202980 On ch=8 n=60 v=48
203039 On ch=8 n=60 v=0
203039 On ch=8 n=58 v=0
203040 On ch=8 n=57 v=50
203040 On ch=8 n=60 v=50
203099 On ch=8 n=60 v=0
203099 On ch=8 n=57 v=0
203100 On ch=8 n=57 v=52
203100 On ch=8 n=60 v=52
203159 On ch=8 n=60 v=0
203159 On ch=8 n=57 v=0
203160 On ch=8 n=57 v=54
203160 On ch=8 n=60 v=54
203219 On ch=8 n=60 v=0
203219 On ch=8 n=57 v=0
203220 On ch=8 n=57 v=56
203220 On ch=8 n=60 v=56
203279 On ch=8 n=60 v=0
203279 On ch=8 n=57 v=0
203280 On ch=8 n=57 v=58
203280 On ch=8 n=60 v=58
203339 On ch=8 n=60 v=0
203339 On ch=8 n=57 v=0
203340 On ch=8 n=57 v=60
203340 On ch=8 n=60 v=60
203399 On ch=8 n=60 v=0
203399 On ch=8 n=57 v=0
203400 On ch=8 n=56 v=62
203400 On ch=8 n=60 v=62
203459 On ch=8 n=60 v=0
203459 On ch=8 n=56 v=0
203460 On ch=8 n=56 v=64
203460 On ch=8 n=60 v=64
203519 On ch=8 n=60 v=0
203519 On ch=8 n=56 v=0
203520 On ch=8 n=56 v=66
203520 On ch=8 n=60 v=66
203579 On ch=8 n=60 v=0
203579 On ch=8 n=56 v=0
203580 On ch=8 n=56 v=68
203580 On ch=8 n=60 v=68
203639 On ch=8 n=60 v=0
203639 On ch=8 n=56 v=0
203640 On ch=8 n=56 v=70
203640 On ch=8 n=60 v=70
203699 On ch=8 n=60 v=0
203699 On ch=8 n=56 v=0
203700 On ch=8 n=56 v=72
203700 On ch=8 n=60 v=72
203759 On ch=8 n=60 v=0
203759 On ch=8 n=56 v=0
203760 On ch=8 n=61 v=48
203760 On ch=8 n=56 v=48
203819 On ch=8 n=56 v=0
203820 On ch=8 n=56 v=48
203879 On ch=8 n=56 v=0
203880 On ch=8 n=56 v=48
203939 On ch=8 n=56 v=0
203940 On ch=8 n=56 v=48
203999 On ch=8 n=56 v=0
204000 On ch=8 n=65 v=48
204000 On ch=8 n=56 v=48
204009 On ch=8 n=61 v=0
204059 On ch=8 n=56 v=0
204060 On ch=8 n=56 v=48
204119 On ch=8 n=56 v=0
204120 On ch=8 n=61 v=48
204120 On ch=8 n=56 v=48
204129 On ch=8 n=65 v=0
204179 On ch=8 n=56 v=0
204180 On ch=8 n=56 v=48
204239 On ch=8 n=56 v=0
204240 On ch=8 n=56 v=48
204299 On ch=8 n=56 v=0
204300 On ch=8 n=56 v=48
204359 On ch=8 n=56 v=0
204360 On ch=8 n=56 v=48
204369 On ch=8 n=61 v=0
204419 On ch=8 n=56 v=0
204420 On ch=8 n=56 v=48
204479 On ch=8 n=56 v=0
204480 On ch=8 n=61 v=48
204480 On ch=8 n=56 v=48
204539 On ch=8 n=56 v=0
204540 On ch=8 n=56 v=48
204599 On ch=8 n=56 v=0
204599 On ch=8 n=61 v=0
204600 On ch=8 n=56 v=48
204659 On ch=8 n=56 v=0
204660 On ch=8 n=56 v=48
204719 On ch=8 n=56 v=0
204720 On ch=8 n=56 v=48
204779 On ch=8 n=56 v=0
204780 On ch=8 n=56 v=48
204839 On ch=8 n=56 v=0
204840 On ch=8 n=56 v=48
204899 On ch=8 n=56 v=0
204900 On ch=8 n=56 v=48
204959 On ch=8 n=56 v=0
204960 On ch=8 n=56 v=48
205019 On ch=8 n=56 v=0
205020 On ch=8 n=56 v=48
205079 On ch=8 n=56 v=0
205080 On ch=8 n=56 v=48
205139 On ch=8 n=56 v=0
205140 On ch=8 n=56 v=48
205199 On ch=8 n=56 v=0
205200 On ch=8 n=56 v=48
205259 On ch=8 n=56 v=0
205260 On ch=8 n=56 v=48
205319 On ch=8 n=56 v=0
205320 On ch=8 n=56 v=48
205379 On ch=8 n=56 v=0
205380 On ch=8 n=56 v=48
205439 On ch=8 n=56 v=0
205440 On ch=8 n=56 v=48
205499 On ch=8 n=56 v=0
205500 On ch=8 n=56 v=48
205559 On ch=8 n=56 v=0
205560 On ch=8 n=56 v=48
205619 On ch=8 n=56 v=0
205620 On ch=8 n=56 v=48
205679 On ch=8 n=56 v=0
205680 On ch=8 n=56 v=48
205739 On ch=8 n=56 v=0
205740 On ch=8 n=56 v=48
205799 On ch=8 n=56 v=0
205800 On ch=8 n=56 v=48
205859 On ch=8 n=56 v=0
205860 On ch=8 n=56 v=48
205919 On ch=8 n=56 v=0
205920 On ch=8 n=56 v=48
205979 On ch=8 n=56 v=0
205980 On ch=8 n=68 v=50
206099 On ch=8 n=68 v=0
206100 On ch=8 n=65 v=54
206100 On ch=8 n=68 v=54
206219 On ch=8 n=68 v=0
206219 On ch=8 n=65 v=0
206220 On ch=8 n=65 v=58
206220 On ch=8 n=68 v=58
206280 On ch=8 n=63 v=56
206289 On ch=8 n=65 v=0
206339 On ch=8 n=63 v=0
206339 On ch=8 n=68 v=0
206340 On ch=8 n=63 v=52
206340 On ch=8 n=68 v=52
206459 On ch=8 n=68 v=0
206459 On ch=8 n=63 v=0
206460 On ch=8 n=63 v=44
206460 On ch=8 n=68 v=44
206579 On ch=8 n=68 v=0
206579 On ch=8 n=63 v=0
206580 On ch=8 n=63 v=36
206580 On ch=8 n=68 v=36
206639 On ch=8 n=63 v=0
206640 On ch=8 n=62 v=32
206669 On ch=8 n=62 v=0
206669 On ch=8 n=68 v=0
206670 On ch=8 n=68 v=32
206670 On ch=8 n=65 v=32
206670 On ch=8 n=58 v=32
206670 On ch=8 n=62 v=32
206699 On ch=8 n=62 v=0
206699 On ch=8 n=68 v=0
206699 On ch=8 n=65 v=0
206699 On ch=8 n=58 v=0
206700 On ch=8 n=68 v=32
206700 On ch=8 n=65 v=32
206700 On ch=8 n=58 v=32
206700 On ch=8 n=62 v=32
206729 On ch=8 n=62 v=0
206729 On ch=8 n=68 v=0
206729 On ch=8 n=65 v=0
206729 On ch=8 n=58 v=0
206730 On ch=8 n=68 v=32
206730 On ch=8 n=65 v=32
206730 On ch=8 n=58 v=32
206730 On ch=8 n=62 v=32
206759 On ch=8 n=62 v=0
206759 On ch=8 n=68 v=0
206759 On ch=8 n=65 v=0
206759 On ch=8 n=58 v=0
206760 On ch=8 n=58 v=32
206760 On ch=8 n=62 v=32
206760 On ch=8 n=65 v=32
206760 On ch=8 n=68 v=32
206789 On ch=8 n=68 v=0
206789 On ch=8 n=58 v=0
206789 On ch=8 n=62 v=0
206789 On ch=8 n=65 v=0
206790 On ch=8 n=58 v=32
206790 On ch=8 n=62 v=32
206790 On ch=8 n=65 v=32
206790 On ch=8 n=68 v=32
206819 On ch=8 n=68 v=0
206819 On ch=8 n=58 v=0
206819 On ch=8 n=62 v=0
206819 On ch=8 n=65 v=0
206820 On ch=8 n=58 v=32
206820 On ch=8 n=62 v=32
206820 On ch=8 n=65 v=32
206820 On ch=8 n=68 v=32
206849 On ch=8 n=68 v=0
206849 On ch=8 n=58 v=0
206849 On ch=8 n=62 v=0
206849 On ch=8 n=65 v=0
206850 On ch=8 n=58 v=32
206850 On ch=8 n=62 v=32
206850 On ch=8 n=65 v=32
206850 On ch=8 n=68 v=32
206879 On ch=8 n=68 v=0
206879 On ch=8 n=58 v=0
206879 On ch=8 n=62 v=0
206879 On ch=8 n=65 v=0
206880 On ch=8 n=58 v=32
206880 On ch=8 n=62 v=32
206880 On ch=8 n=65 v=32
206880 On ch=8 n=68 v=32
206909 On ch=8 n=68 v=0
206909 On ch=8 n=58 v=0
206909 On ch=8 n=62 v=0
206909 On ch=8 n=65 v=0
206910 On ch=8 n=58 v=32
206910 On ch=8 n=62 v=32
206910 On ch=8 n=65 v=32
206910 On ch=8 n=68 v=32
206939 On ch=8 n=68 v=0
206939 On ch=8 n=58 v=0
206939 On ch=8 n=62 v=0
206939 On ch=8 n=65 v=0
206940 On ch=8 n=58 v=32
206940 On ch=8 n=62 v=32
206940 On ch=8 n=65 v=32
206940 On ch=8 n=68 v=32
206969 On ch=8 n=68 v=0
206969 On ch=8 n=58 v=0
206969 On ch=8 n=62 v=0
206969 On ch=8 n=65 v=0
206970 On ch=8 n=58 v=32
206970 On ch=8 n=62 v=32
206970 On ch=8 n=65 v=32
206970 On ch=8 n=68 v=32
206999 On ch=8 n=68 v=0
206999 On ch=8 n=58 v=0
206999 On ch=8 n=62 v=0
206999 On ch=8 n=65 v=0
207000 On ch=8 n=58 v=32
207000 On ch=8 n=62 v=32
207000 On ch=8 n=65 v=32
207000 On ch=8 n=68 v=32
207029 On ch=8 n=68 v=0
207029 On ch=8 n=58 v=0
207029 On ch=8 n=62 v=0
207029 On ch=8 n=65 v=0
207030 On ch=8 n=58 v=32
207030 On ch=8 n=62 v=32
207030 On ch=8 n=65 v=32
207030 On ch=8 n=68 v=32
207059 On ch=8 n=68 v=0
207059 On ch=8 n=58 v=0
207059 On ch=8 n=62 v=0
207059 On ch=8 n=65 v=0
207060 On ch=8 n=58 v=32
207060 On ch=8 n=62 v=32
207060 On ch=8 n=65 v=32
207060 On ch=8 n=68 v=32
207089 On ch=8 n=68 v=0
207089 On ch=8 n=58 v=0
207089 On ch=8 n=62 v=0
207089 On ch=8 n=65 v=0
207090 On ch=8 n=58 v=32
207090 On ch=8 n=62 v=32
207090 On ch=8 n=65 v=32
207090 On ch=8 n=68 v=32
207119 On ch=8 n=68 v=0
207119 On ch=8 n=58 v=0
207119 On ch=8 n=62 v=0
207119 On ch=8 n=65 v=0
207120 On ch=8 n=58 v=32
207120 On ch=8 n=62 v=32
207120 On ch=8 n=65 v=32
207120 On ch=8 n=68 v=32
207149 On ch=8 n=68 v=0
207149 On ch=8 n=58 v=0
207149 On ch=8 n=62 v=0
207149 On ch=8 n=65 v=0
207150 On ch=8 n=58 v=32
207150 On ch=8 n=62 v=32
207150 On ch=8 n=65 v=32
207150 On ch=8 n=68 v=32
207179 On ch=8 n=68 v=0
207179 On ch=8 n=58 v=0
207179 On ch=8 n=62 v=0
207179 On ch=8 n=65 v=0
207180 On ch=8 n=58 v=32
207180 On ch=8 n=62 v=32
207180 On ch=8 n=65 v=32
207180 On ch=8 n=68 v=32
207209 On ch=8 n=68 v=0
207209 On ch=8 n=58 v=0
207209 On ch=8 n=62 v=0
207209 On ch=8 n=65 v=0
207210 On ch=8 n=58 v=32
207210 On ch=8 n=62 v=32
207210 On ch=8 n=65 v=32
207210 On ch=8 n=68 v=32
207239 On ch=8 n=68 v=0
207239 On ch=8 n=58 v=0
207239 On ch=8 n=62 v=0
207239 On ch=8 n=65 v=0
207240 On ch=8 n=58 v=32
207240 On ch=8 n=62 v=32
207240 On ch=8 n=65 v=32
207240 On ch=8 n=68 v=32
207269 On ch=8 n=68 v=0
207269 On ch=8 n=58 v=0
207269 On ch=8 n=62 v=0
207269 On ch=8 n=65 v=0
207270 On ch=8 n=58 v=32
207270 On ch=8 n=62 v=32
207270 On ch=8 n=65 v=32
207270 On ch=8 n=68 v=32
207299 On ch=8 n=68 v=0
207299 On ch=8 n=58 v=0
207299 On ch=8 n=62 v=0
207299 On ch=8 n=65 v=0
207300 On ch=8 n=58 v=32
207300 On ch=8 n=62 v=32
207300 On ch=8 n=65 v=32
207300 On ch=8 n=68 v=32
207329 On ch=8 n=68 v=0
207329 On ch=8 n=58 v=0
207329 On ch=8 n=62 v=0
207329 On ch=8 n=65 v=0
207330 On ch=8 n=58 v=32
207330 On ch=8 n=62 v=32
207330 On ch=8 n=65 v=32
207330 On ch=8 n=68 v=32
207359 On ch=8 n=68 v=0
207359 On ch=8 n=58 v=0
207359 On ch=8 n=62 v=0
207359 On ch=8 n=65 v=0
207360 On ch=8 n=58 v=32
207360 On ch=8 n=62 v=32
207360 On ch=8 n=65 v=32
207360 On ch=8 n=68 v=32
207389 On ch=8 n=68 v=0
207389 On ch=8 n=58 v=0
207389 On ch=8 n=62 v=0
207389 On ch=8 n=65 v=0
207390 On ch=8 n=58 v=33
207390 On ch=8 n=62 v=33
207390 On ch=8 n=65 v=33
207390 On ch=8 n=68 v=33
207419 On ch=8 n=68 v=0
207419 On ch=8 n=58 v=0
207419 On ch=8 n=62 v=0
207419 On ch=8 n=65 v=0
207420 On ch=8 n=58 v=34
207420 On ch=8 n=62 v=34
207420 On ch=8 n=65 v=34
207420 On ch=8 n=68 v=34
207449 On ch=8 n=68 v=0
207449 On ch=8 n=58 v=0
207449 On ch=8 n=62 v=0
207449 On ch=8 n=65 v=0
207450 On ch=8 n=58 v=35
207450 On ch=8 n=62 v=35
207450 On ch=8 n=65 v=35
207450 On ch=8 n=68 v=35
207479 On ch=8 n=68 v=0
207479 On ch=8 n=58 v=0
207479 On ch=8 n=62 v=0
207479 On ch=8 n=65 v=0
207480 On ch=8 n=58 v=36
207480 On ch=8 n=62 v=36
207480 On ch=8 n=65 v=36
207480 On ch=8 n=68 v=36
207509 On ch=8 n=68 v=0
207509 On ch=8 n=58 v=0
207509 On ch=8 n=62 v=0
207509 On ch=8 n=65 v=0
207510 On ch=8 n=58 v=37
207510 On ch=8 n=62 v=37
207510 On ch=8 n=65 v=37
207510 On ch=8 n=68 v=37
207539 On ch=8 n=68 v=0
207539 On ch=8 n=58 v=0
207539 On ch=8 n=62 v=0
207539 On ch=8 n=65 v=0
207540 On ch=8 n=58 v=38
207540 On ch=8 n=62 v=38
207540 On ch=8 n=65 v=38
207540 On ch=8 n=68 v=38
207569 On ch=8 n=68 v=0
207569 On ch=8 n=58 v=0
207569 On ch=8 n=62 v=0
207569 On ch=8 n=65 v=0
207570 On ch=8 n=58 v=39
207570 On ch=8 n=62 v=39
207570 On ch=8 n=65 v=39
207570 On ch=8 n=68 v=39
207599 On ch=8 n=68 v=0
207599 On ch=8 n=58 v=0
207599 On ch=8 n=62 v=0
207599 On ch=8 n=65 v=0
207600 On ch=8 n=58 v=40
207600 On ch=8 n=62 v=40
207600 On ch=8 n=65 v=40
207600 On ch=8 n=68 v=40
207629 On ch=8 n=68 v=0
207629 On ch=8 n=58 v=0
207629 On ch=8 n=62 v=0
207629 On ch=8 n=65 v=0
207630 On ch=8 n=58 v=41
207630 On ch=8 n=62 v=41
207630 On ch=8 n=65 v=41
207630 On ch=8 n=68 v=41
207659 On ch=8 n=68 v=0
207659 On ch=8 n=58 v=0
207659 On ch=8 n=62 v=0
207659 On ch=8 n=65 v=0
207660 On ch=8 n=58 v=42
207660 On ch=8 n=62 v=42
207660 On ch=8 n=65 v=42
207660 On ch=8 n=68 v=42
207689 On ch=8 n=68 v=0
207689 On ch=8 n=58 v=0
207689 On ch=8 n=62 v=0
207689 On ch=8 n=65 v=0
207690 On ch=8 n=58 v=43
207690 On ch=8 n=62 v=43
207690 On ch=8 n=65 v=43
207690 On ch=8 n=68 v=43
207719 On ch=8 n=68 v=0
207719 On ch=8 n=58 v=0
207719 On ch=8 n=62 v=0
207719 On ch=8 n=65 v=0
207720 On ch=8 n=58 v=44
207720 On ch=8 n=62 v=44
207720 On ch=8 n=65 v=44
207720 On ch=8 n=68 v=44
207749 On ch=8 n=68 v=0
207749 On ch=8 n=58 v=0
207749 On ch=8 n=62 v=0
207749 On ch=8 n=65 v=0
207750 On ch=8 n=58 v=45
207750 On ch=8 n=62 v=45
207750 On ch=8 n=65 v=45
207750 On ch=8 n=68 v=45
207779 On ch=8 n=68 v=0
207779 On ch=8 n=58 v=0
207779 On ch=8 n=62 v=0
207779 On ch=8 n=65 v=0
207780 On ch=8 n=58 v=46
207780 On ch=8 n=62 v=46
207780 On ch=8 n=65 v=46
207780 On ch=8 n=68 v=46
207809 On ch=8 n=68 v=0
207809 On ch=8 n=58 v=0
207809 On ch=8 n=62 v=0
207809 On ch=8 n=65 v=0
207810 On ch=8 n=58 v=47
207810 On ch=8 n=62 v=47
207810 On ch=8 n=65 v=47
207810 On ch=8 n=68 v=47
207839 On ch=8 n=68 v=0
207839 On ch=8 n=58 v=0
207839 On ch=8 n=62 v=0
207839 On ch=8 n=65 v=0
207840 On ch=8 n=58 v=48
207840 On ch=8 n=62 v=48
207840 On ch=8 n=65 v=48
207840 On ch=8 n=68 v=48
207869 On ch=8 n=68 v=0
207869 On ch=8 n=58 v=0
207869 On ch=8 n=62 v=0
207869 On ch=8 n=65 v=0
207870 On ch=8 n=58 v=49
207870 On ch=8 n=62 v=49
207870 On ch=8 n=65 v=49
207870 On ch=8 n=68 v=49
207899 On ch=8 n=68 v=0
207899 On ch=8 n=58 v=0
207899 On ch=8 n=62 v=0
207899 On ch=8 n=65 v=0
207900 On ch=8 n=58 v=50
207900 On ch=8 n=62 v=50
207900 On ch=8 n=65 v=50
207900 On ch=8 n=68 v=50
207929 On ch=8 n=68 v=0
207929 On ch=8 n=58 v=0
207929 On ch=8 n=62 v=0
207929 On ch=8 n=65 v=0
207930 On ch=8 n=58 v=51
207930 On ch=8 n=62 v=51
207930 On ch=8 n=65 v=51
207930 On ch=8 n=68 v=51
207959 On ch=8 n=68 v=0
207959 On ch=8 n=58 v=0
207959 On ch=8 n=62 v=0
207959 On ch=8 n=65 v=0
207960 On ch=8 n=58 v=52
207960 On ch=8 n=62 v=52
207960 On ch=8 n=65 v=52
207960 On ch=8 n=68 v=52
207989 On ch=8 n=68 v=0
207989 On ch=8 n=58 v=0
207989 On ch=8 n=62 v=0
207989 On ch=8 n=65 v=0
207990 On ch=8 n=58 v=53
207990 On ch=8 n=62 v=53
207990 On ch=8 n=65 v=53
207990 On ch=8 n=68 v=53
208019 On ch=8 n=68 v=0
208019 On ch=8 n=58 v=0
208019 On ch=8 n=62 v=0
208019 On ch=8 n=65 v=0
208020 On ch=8 n=58 v=54
208020 On ch=8 n=62 v=54
208020 On ch=8 n=65 v=54
208020 On ch=8 n=68 v=54
208049 On ch=8 n=68 v=0
208049 On ch=8 n=58 v=0
208049 On ch=8 n=62 v=0
208049 On ch=8 n=65 v=0
208050 On ch=8 n=58 v=55
208050 On ch=8 n=62 v=55
208050 On ch=8 n=65 v=55
208050 On ch=8 n=68 v=55
208079 On ch=8 n=68 v=0
208079 On ch=8 n=58 v=0
208079 On ch=8 n=62 v=0
208079 On ch=8 n=65 v=0
208080 On ch=8 n=58 v=56
208080 On ch=8 n=62 v=56
208080 On ch=8 n=65 v=56
208080 On ch=8 n=68 v=56
208109 On ch=8 n=68 v=0
208109 On ch=8 n=58 v=0
208109 On ch=8 n=62 v=0
208109 On ch=8 n=65 v=0
208110 On ch=8 n=58 v=57
208110 On ch=8 n=62 v=57
208110 On ch=8 n=65 v=57
208110 On ch=8 n=68 v=57
208139 On ch=8 n=68 v=0
208139 On ch=8 n=58 v=0
208139 On ch=8 n=62 v=0
208139 On ch=8 n=65 v=0
208140 On ch=8 n=58 v=58
208140 On ch=8 n=62 v=58
208140 On ch=8 n=65 v=58
208140 On ch=8 n=68 v=58
208169 On ch=8 n=68 v=0
208169 On ch=8 n=58 v=0
208169 On ch=8 n=62 v=0
208169 On ch=8 n=65 v=0
208170 On ch=8 n=58 v=59
208170 On ch=8 n=62 v=59
208170 On ch=8 n=65 v=59
208170 On ch=8 n=68 v=59
208199 On ch=8 n=68 v=0
208199 On ch=8 n=58 v=0
208199 On ch=8 n=62 v=0
208199 On ch=8 n=65 v=0
208200 On ch=8 n=58 v=60
208200 On ch=8 n=62 v=60
208200 On ch=8 n=65 v=60
208200 On ch=8 n=68 v=60
208229 On ch=8 n=68 v=0
208229 On ch=8 n=58 v=0
208229 On ch=8 n=62 v=0
208229 On ch=8 n=65 v=0
208230 On ch=8 n=58 v=61
208230 On ch=8 n=62 v=61
208230 On ch=8 n=65 v=61
208230 On ch=8 n=68 v=61
208259 On ch=8 n=68 v=0
208259 On ch=8 n=58 v=0
208259 On ch=8 n=62 v=0
208259 On ch=8 n=65 v=0
208260 On ch=8 n=58 v=62
208260 On ch=8 n=62 v=62
208260 On ch=8 n=65 v=62
208260 On ch=8 n=68 v=62
208289 On ch=8 n=68 v=0
208289 On ch=8 n=58 v=0
208289 On ch=8 n=62 v=0
208289 On ch=8 n=65 v=0
208290 On ch=8 n=58 v=63
208290 On ch=8 n=62 v=63
208290 On ch=8 n=65 v=63
208290 On ch=8 n=68 v=63
208319 On ch=8 n=68 v=0
208319 On ch=8 n=58 v=0
208319 On ch=8 n=62 v=0
208319 On ch=8 n=65 v=0
208320 On ch=8 n=68 v=64
208320 On ch=8 n=70 v=64
208349 On ch=8 n=70 v=0
208349 On ch=8 n=68 v=0
208350 On ch=8 n=68 v=66
208350 On ch=8 n=70 v=66
208379 On ch=8 n=70 v=0
208379 On ch=8 n=68 v=0
208380 On ch=8 n=67 v=68
208380 On ch=8 n=72 v=68
208409 On ch=8 n=72 v=0
208409 On ch=8 n=67 v=0
208410 On ch=8 n=67 v=70
208410 On ch=8 n=72 v=70
208439 On ch=8 n=72 v=0
208439 On ch=8 n=67 v=0
208440 On ch=8 n=65 v=72
208440 On ch=8 n=74 v=72
208469 On ch=8 n=74 v=0
208469 On ch=8 n=65 v=0
208470 On ch=8 n=65 v=74
208470 On ch=8 n=74 v=74
208499 On ch=8 n=74 v=0
208499 On ch=8 n=65 v=0
208500 On ch=8 n=63 v=76
208500 On ch=8 n=75 v=76
208529 On ch=8 n=75 v=0
208529 On ch=8 n=63 v=0
208530 On ch=8 n=63 v=78
208530 On ch=8 n=75 v=78
208559 On ch=8 n=75 v=0
208559 On ch=8 n=63 v=0
208560 On ch=8 n=62 v=80
208560 On ch=8 n=77 v=80
208589 On ch=8 n=77 v=0
208589 On ch=8 n=62 v=0
208590 On ch=8 n=62 v=82
208590 On ch=8 n=77 v=82
208619 On ch=8 n=77 v=0
208619 On ch=8 n=62 v=0
208620 On ch=8 n=63 v=84
208620 On ch=8 n=79 v=84
208649 On ch=8 n=79 v=0
208649 On ch=8 n=63 v=0
208650 On ch=8 n=63 v=86
208650 On ch=8 n=79 v=86
208679 On ch=8 n=79 v=0
208679 On ch=8 n=63 v=0
208680 On ch=8 n=65 v=88
208680 On ch=8 n=80 v=88
208709 On ch=8 n=80 v=0
208709 On ch=8 n=65 v=0
208710 On ch=8 n=65 v=90
208710 On ch=8 n=80 v=90
208739 On ch=8 n=80 v=0
208739 On ch=8 n=65 v=0
208740 On ch=8 n=68 v=92
208740 On ch=8 n=74 v=92
208769 On ch=8 n=74 v=0
208769 On ch=8 n=68 v=0
208770 On ch=8 n=68 v=92
208770 On ch=8 n=74 v=94
208799 On ch=8 n=74 v=0
208799 On ch=8 n=68 v=0
208800 On ch=8 n=67 v=96
208800 On ch=8 n=75 v=96
208829 On ch=8 n=75 v=0
208829 On ch=8 n=67 v=0
208830 On ch=8 n=63 v=96
208830 On ch=8 n=75 v=96
208859 On ch=8 n=75 v=0
208859 On ch=8 n=63 v=0
208860 On ch=8 n=63 v=96
208860 On ch=8 n=75 v=96
208889 On ch=8 n=75 v=0
208889 On ch=8 n=63 v=0
208890 On ch=8 n=63 v=96
208890 On ch=8 n=75 v=96
208919 On ch=8 n=75 v=0
208919 On ch=8 n=63 v=0
208920 On ch=8 n=63 v=96
208920 On ch=8 n=75 v=96
208949 On ch=8 n=75 v=0
208949 On ch=8 n=63 v=0
208950 On ch=8 n=63 v=96
208950 On ch=8 n=75 v=96
208979 On ch=8 n=75 v=0
208979 On ch=8 n=63 v=0
208980 On ch=8 n=63 v=96
208980 On ch=8 n=75 v=96
209009 On ch=8 n=75 v=0
209009 On ch=8 n=63 v=0
209010 On ch=8 n=63 v=96
209010 On ch=8 n=75 v=96
209039 On ch=8 n=75 v=0
209039 On ch=8 n=63 v=0
209040 On ch=8 n=67 v=96
209040 On ch=8 n=79 v=96
209069 On ch=8 n=79 v=0
209069 On ch=8 n=67 v=0
209070 On ch=8 n=67 v=96
209070 On ch=8 n=79 v=96
209099 On ch=8 n=79 v=0
209099 On ch=8 n=67 v=0
209100 On ch=8 n=67 v=96
209100 On ch=8 n=79 v=96
209129 On ch=8 n=79 v=0
209129 On ch=8 n=67 v=0
209130 On ch=8 n=67 v=96
209130 On ch=8 n=79 v=96
209159 On ch=8 n=79 v=0
209159 On ch=8 n=67 v=0
209160 On ch=8 n=63 v=96
209160 On ch=8 n=75 v=96
209189 On ch=8 n=75 v=0
209189 On ch=8 n=63 v=0
209190 On ch=8 n=63 v=96
209190 On ch=8 n=75 v=96
209219 On ch=8 n=75 v=0
209219 On ch=8 n=63 v=0
209220 On ch=8 n=63 v=96
209220 On ch=8 n=75 v=96
209249 On ch=8 n=75 v=0
209249 On ch=8 n=63 v=0
209250 On ch=8 n=63 v=96
209250 On ch=8 n=75 v=96
209279 On ch=8 n=75 v=0
209279 On ch=8 n=63 v=0
209280 On ch=8 n=63 v=96
209280 On ch=8 n=75 v=96
209309 On ch=8 n=75 v=0
209309 On ch=8 n=63 v=0
209310 On ch=8 n=63 v=96
209310 On ch=8 n=75 v=96
209339 On ch=8 n=75 v=0
209339 On ch=8 n=63 v=0
209340 On ch=8 n=63 v=96
209340 On ch=8 n=75 v=96
209369 On ch=8 n=75 v=0
209369 On ch=8 n=63 v=0
209370 On ch=8 n=63 v=96
209370 On ch=8 n=75 v=96
209399 On ch=8 n=75 v=0
209399 On ch=8 n=63 v=0
209400 On ch=8 n=58 v=96
209400 On ch=8 n=70 v=96
209429 On ch=8 n=70 v=0
209429 On ch=8 n=58 v=0
209430 On ch=8 n=58 v=96
209430 On ch=8 n=70 v=96
209459 On ch=8 n=70 v=0
209459 On ch=8 n=58 v=0
209460 On ch=8 n=58 v=96
209460 On ch=8 n=70 v=96
209489 On ch=8 n=70 v=0
209489 On ch=8 n=58 v=0
209490 On ch=8 n=58 v=96
209490 On ch=8 n=70 v=96
209519 On ch=8 n=70 v=0
209519 On ch=8 n=58 v=0
209520 On ch=8 n=63 v=96
209520 On ch=8 n=75 v=96
209549 On ch=8 n=75 v=0
209549 On ch=8 n=63 v=0
209550 On ch=8 n=63 v=96
209550 On ch=8 n=75 v=96
209579 On ch=8 n=75 v=0
209579 On ch=8 n=63 v=0
209580 On ch=8 n=63 v=96
209580 On ch=8 n=75 v=96
209609 On ch=8 n=75 v=0
209609 On ch=8 n=63 v=0
209610 On ch=8 n=63 v=96
209610 On ch=8 n=75 v=96
209639 On ch=8 n=75 v=0
209639 On ch=8 n=63 v=0
209640 On ch=8 n=67 v=96
209640 On ch=8 n=79 v=96
209669 On ch=8 n=79 v=0
209669 On ch=8 n=67 v=0
209670 On ch=8 n=67 v=96
209670 On ch=8 n=79 v=96
209699 On ch=8 n=79 v=0
209699 On ch=8 n=67 v=0
209700 On ch=8 n=67 v=96
209700 On ch=8 n=79 v=96
209729 On ch=8 n=79 v=0
209729 On ch=8 n=67 v=0
209730 On ch=8 n=67 v=96
209730 On ch=8 n=79 v=96
209759 On ch=8 n=79 v=0
209759 On ch=8 n=67 v=0
209760 On ch=8 n=70 v=96
209760 On ch=8 n=82 v=96
209789 On ch=8 n=82 v=0
209789 On ch=8 n=70 v=0
209790 On ch=8 n=70 v=96
209790 On ch=8 n=82 v=96
209819 On ch=8 n=82 v=0
209819 On ch=8 n=70 v=0
209820 On ch=8 n=70 v=96
209820 On ch=8 n=82 v=96
209849 On ch=8 n=82 v=0
209849 On ch=8 n=70 v=0
209850 On ch=8 n=70 v=96
209850 On ch=8 n=82 v=96
209879 On ch=8 n=82 v=0
209879 On ch=8 n=70 v=0
209880 On ch=8 n=63 v=96
209880 On ch=8 n=75 v=96
209909 On ch=8 n=75 v=0
209909 On ch=8 n=63 v=0
209910 On ch=8 n=63 v=96
209910 On ch=8 n=75 v=96
209939 On ch=8 n=75 v=0
209939 On ch=8 n=63 v=0
209940 On ch=8 n=63 v=96
209940 On ch=8 n=75 v=96
209969 On ch=8 n=75 v=0
209969 On ch=8 n=63 v=0
209970 On ch=8 n=63 v=96
209970 On ch=8 n=75 v=96
209999 On ch=8 n=75 v=0
209999 On ch=8 n=63 v=0
210000 On ch=8 n=63 v=96
210000 On ch=8 n=75 v=96
210029 On ch=8 n=75 v=0
210029 On ch=8 n=63 v=0
210030 On ch=8 n=63 v=96
210030 On ch=8 n=75 v=96
210059 On ch=8 n=75 v=0
210059 On ch=8 n=63 v=0
210060 On ch=8 n=63 v=96
210060 On ch=8 n=75 v=96
210089 On ch=8 n=75 v=0
210089 On ch=8 n=63 v=0
210090 On ch=8 n=63 v=96
210090 On ch=8 n=75 v=96
210119 On ch=8 n=75 v=0
210119 On ch=8 n=63 v=0
210120 On ch=8 n=64 v=112
210120 On ch=8 n=76 v=112
210149 On ch=8 n=76 v=0
210149 On ch=8 n=64 v=0
210150 On ch=8 n=64 v=96
210150 On ch=8 n=76 v=96
210179 On ch=8 n=76 v=0
210179 On ch=8 n=64 v=0
210180 On ch=8 n=64 v=96
210180 On ch=8 n=76 v=96
210209 On ch=8 n=76 v=0
210209 On ch=8 n=64 v=0
210210 On ch=8 n=64 v=96
210210 On ch=8 n=76 v=96
210239 On ch=8 n=76 v=0
210239 On ch=8 n=64 v=0
210240 On ch=8 n=65 v=96
210240 On ch=8 n=77 v=96
210269 On ch=8 n=77 v=0
210269 On ch=8 n=65 v=0
210270 On ch=8 n=65 v=96
210270 On ch=8 n=77 v=96
210299 On ch=8 n=77 v=0
210299 On ch=8 n=65 v=0
210300 On ch=8 n=65 v=96
210300 On ch=8 n=77 v=96
210329 On ch=8 n=77 v=0
210329 On ch=8 n=65 v=0
210330 On ch=8 n=65 v=96
210330 On ch=8 n=77 v=96
210359 On ch=8 n=77 v=0
210359 On ch=8 n=65 v=0
210360 On ch=8 n=68 v=96
210360 On ch=8 n=80 v=96
210389 On ch=8 n=80 v=0
210389 On ch=8 n=68 v=0
210390 On ch=8 n=68 v=96
210390 On ch=8 n=80 v=96
210419 On ch=8 n=80 v=0
210419 On ch=8 n=68 v=0
210420 On ch=8 n=68 v=96
210420 On ch=8 n=80 v=96
210449 On ch=8 n=80 v=0
210449 On ch=8 n=68 v=0
210450 On ch=8 n=68 v=96
210450 On ch=8 n=80 v=96
210479 On ch=8 n=80 v=0
210479 On ch=8 n=68 v=0
210480 On ch=8 n=72 v=96
210480 On ch=8 n=84 v=96
210509 On ch=8 n=84 v=0
210509 On ch=8 n=72 v=0
210510 On ch=8 n=72 v=96
210510 On ch=8 n=84 v=96
210539 On ch=8 n=84 v=0
210539 On ch=8 n=72 v=0
210540 On ch=8 n=72 v=96
210540 On ch=8 n=84 v=96
210569 On ch=8 n=84 v=0
210569 On ch=8 n=72 v=0
210570 On ch=8 n=72 v=96
210570 On ch=8 n=84 v=96
210599 On ch=8 n=84 v=0
210599 On ch=8 n=72 v=0
210600 On ch=8 n=65 v=96
210600 On ch=8 n=77 v=96
210629 On ch=8 n=77 v=0
210629 On ch=8 n=65 v=0
210630 On ch=8 n=65 v=96
210630 On ch=8 n=77 v=96
210659 On ch=8 n=77 v=0
210659 On ch=8 n=65 v=0
210660 On ch=8 n=65 v=96
210660 On ch=8 n=77 v=96
210689 On ch=8 n=77 v=0
210689 On ch=8 n=65 v=0
210690 On ch=8 n=65 v=96
210690 On ch=8 n=77 v=96
210719 On ch=8 n=77 v=0
210719 On ch=8 n=65 v=0
210720 On ch=8 n=65 v=96
210720 On ch=8 n=77 v=96
210749 On ch=8 n=77 v=0
210749 On ch=8 n=65 v=0
210750 On ch=8 n=65 v=96
210750 On ch=8 n=77 v=96
210779 On ch=8 n=77 v=0
210779 On ch=8 n=65 v=0
210780 On ch=8 n=65 v=96
210780 On ch=8 n=77 v=96
210809 On ch=8 n=77 v=0
210809 On ch=8 n=65 v=0
210810 On ch=8 n=65 v=96
210810 On ch=8 n=77 v=96
210839 On ch=8 n=77 v=0
210839 On ch=8 n=65 v=0
210840 On ch=8 n=66 v=112
210840 On ch=8 n=78 v=112
210869 On ch=8 n=78 v=0
210869 On ch=8 n=66 v=0
210870 On ch=8 n=66 v=96
210870 On ch=8 n=78 v=96
210899 On ch=8 n=78 v=0
210899 On ch=8 n=66 v=0
210900 On ch=8 n=66 v=96
210900 On ch=8 n=78 v=96
210929 On ch=8 n=78 v=0
210929 On ch=8 n=66 v=0
210930 On ch=8 n=66 v=96
210930 On ch=8 n=78 v=96
210959 On ch=8 n=78 v=0
210959 On ch=8 n=66 v=0
210960 On ch=8 n=67 v=112
210960 On ch=8 n=79 v=112
210989 On ch=8 n=79 v=0
210989 On ch=8 n=67 v=0
210990 On ch=8 n=67 v=112
210990 On ch=8 n=79 v=112
211019 On ch=8 n=79 v=0
211019 On ch=8 n=67 v=0
211020 On ch=8 n=67 v=112
211020 On ch=8 n=79 v=112
211049 On ch=8 n=79 v=0
211049 On ch=8 n=67 v=0
211050 On ch=8 n=67 v=112
211050 On ch=8 n=79 v=112
211079 On ch=8 n=79 v=0
211079 On ch=8 n=67 v=0
211080 On ch=8 n=70 v=112
211080 On ch=8 n=82 v=112
211109 On ch=8 n=82 v=0
211109 On ch=8 n=70 v=0
211110 On ch=8 n=70 v=112
211110 On ch=8 n=82 v=112
211139 On ch=8 n=82 v=0
211139 On ch=8 n=70 v=0
211140 On ch=8 n=70 v=112
211140 On ch=8 n=82 v=112
211169 On ch=8 n=82 v=0
211169 On ch=8 n=70 v=0
211170 On ch=8 n=70 v=112
211170 On ch=8 n=82 v=112
211199 On ch=8 n=82 v=0
211199 On ch=8 n=70 v=0
211200 On ch=8 n=73 v=112
211200 On ch=8 n=85 v=112
211229 On ch=8 n=85 v=0
211229 On ch=8 n=73 v=0
211230 On ch=8 n=73 v=112
211230 On ch=8 n=85 v=112
211259 On ch=8 n=85 v=0
211259 On ch=8 n=73 v=0
211260 On ch=8 n=73 v=112
211260 On ch=8 n=85 v=112
211289 On ch=8 n=85 v=0
211289 On ch=8 n=73 v=0
211290 On ch=8 n=73 v=112
211290 On ch=8 n=85 v=112
211319 On ch=8 n=85 v=0
211319 On ch=8 n=73 v=0
211320 On ch=8 n=68 v=112
211320 On ch=8 n=80 v=112
211349 On ch=8 n=80 v=0
211349 On ch=8 n=68 v=0
211350 On ch=8 n=68 v=112
211350 On ch=8 n=80 v=112
211379 On ch=8 n=80 v=0
211379 On ch=8 n=68 v=0
211380 On ch=8 n=68 v=112
211380 On ch=8 n=80 v=112
211409 On ch=8 n=80 v=0
211409 On ch=8 n=68 v=0
211410 On ch=8 n=68 v=112
211410 On ch=8 n=80 v=112
211439 On ch=8 n=80 v=0
211439 On ch=8 n=68 v=0
211440 On ch=8 n=72 v=112
211440 On ch=8 n=84 v=112
211469 On ch=8 n=84 v=0
211469 On ch=8 n=72 v=0
211470 On ch=8 n=72 v=112
211470 On ch=8 n=84 v=112
211499 On ch=8 n=84 v=0
211499 On ch=8 n=72 v=0
211500 On ch=8 n=72 v=112
211500 On ch=8 n=84 v=112
211529 On ch=8 n=84 v=0
211529 On ch=8 n=72 v=0
211530 On ch=8 n=72 v=112
211530 On ch=8 n=84 v=112
211559 On ch=8 n=84 v=0
211559 On ch=8 n=72 v=0
211560 On ch=8 n=75 v=112
211560 On ch=8 n=87 v=112
211589 On ch=8 n=87 v=0
211589 On ch=8 n=75 v=0
211590 On ch=8 n=75 v=112
211590 On ch=8 n=87 v=112
211619 On ch=8 n=87 v=0
211619 On ch=8 n=75 v=0
211620 On ch=8 n=75 v=112
211620 On ch=8 n=87 v=112
211649 On ch=8 n=87 v=0
211649 On ch=8 n=75 v=0
211650 On ch=8 n=75 v=112
211650 On ch=8 n=87 v=112
211679 On ch=8 n=87 v=0
211679 On ch=8 n=75 v=0
211680 On ch=8 n=68 v=112
211680 On ch=8 n=80 v=112
211709 On ch=8 n=80 v=0
211709 On ch=8 n=68 v=0
211710 On ch=8 n=68 v=112
211710 On ch=8 n=80 v=112
211739 On ch=8 n=80 v=0
211739 On ch=8 n=68 v=0
211740 On ch=8 n=68 v=112
211740 On ch=8 n=80 v=112
211769 On ch=8 n=80 v=0
211769 On ch=8 n=68 v=0
211770 On ch=8 n=68 v=112
211770 On ch=8 n=80 v=112
211799 On ch=8 n=80 v=0
211799 On ch=8 n=68 v=0
211800 On ch=8 n=74 v=112
211800 On ch=8 n=86 v=112
211829 On ch=8 n=86 v=0
211829 On ch=8 n=74 v=0
211830 On ch=8 n=74 v=112
211830 On ch=8 n=86 v=112
211859 On ch=8 n=86 v=0
211859 On ch=8 n=74 v=0
211860 On ch=8 n=74 v=112
211860 On ch=8 n=86 v=112
211889 On ch=8 n=86 v=0
211889 On ch=8 n=74 v=0
211890 On ch=8 n=74 v=112
211890 On ch=8 n=86 v=112
211919 On ch=8 n=86 v=0
211919 On ch=8 n=74 v=0
211920 On ch=8 n=77 v=112
211920 On ch=8 n=89 v=112
211949 On ch=8 n=89 v=0
211949 On ch=8 n=77 v=0
211950 On ch=8 n=77 v=112
211950 On ch=8 n=89 v=112
211979 On ch=8 n=89 v=0
211979 On ch=8 n=77 v=0
211980 On ch=8 n=77 v=112
211980 On ch=8 n=89 v=112
212009 On ch=8 n=89 v=0
212009 On ch=8 n=77 v=0
212010 On ch=8 n=77 v=112
212010 On ch=8 n=89 v=112
212039 On ch=8 n=89 v=0
212039 On ch=8 n=77 v=0
212040 On ch=8 n=80 v=112
212040 On ch=8 n=92 v=112
212069 On ch=8 n=92 v=0
212069 On ch=8 n=80 v=0
212070 On ch=8 n=80 v=112
212070 On ch=8 n=92 v=112
212099 On ch=8 n=92 v=0
212099 On ch=8 n=80 v=0
212100 On ch=8 n=80 v=112
212100 On ch=8 n=92 v=112
212129 On ch=8 n=92 v=0
212129 On ch=8 n=80 v=0
212130 On ch=8 n=80 v=112
212130 On ch=8 n=92 v=112
212159 On ch=8 n=92 v=0
212159 On ch=8 n=80 v=0
212160 On ch=8 n=80 v=112
212160 On ch=8 n=92 v=112
212189 On ch=8 n=92 v=0
212189 On ch=8 n=80 v=0
212190 On ch=8 n=80 v=112
212190 On ch=8 n=92 v=112
212219 On ch=8 n=92 v=0
212219 On ch=8 n=80 v=0
212220 On ch=8 n=80 v=112
212220 On ch=8 n=92 v=112
212249 On ch=8 n=92 v=0
212249 On ch=8 n=80 v=0
212250 On ch=8 n=80 v=112
212250 On ch=8 n=92 v=112
212279 On ch=8 n=92 v=0
212279 On ch=8 n=80 v=0
212280 On ch=8 n=80 v=112
212280 On ch=8 n=92 v=112
212309 On ch=8 n=92 v=0
212309 On ch=8 n=80 v=0
212310 On ch=8 n=80 v=112
212310 On ch=8 n=92 v=112
212339 On ch=8 n=92 v=0
212339 On ch=8 n=80 v=0
212340 On ch=8 n=80 v=112
212340 On ch=8 n=92 v=112
212369 On ch=8 n=92 v=0
212369 On ch=8 n=80 v=0
212370 On ch=8 n=80 v=112
212370 On ch=8 n=92 v=112
212399 On ch=8 n=92 v=0
212399 On ch=8 n=80 v=0
212400 On ch=8 n=79 v=127
212400 On ch=8 n=91 v=127
212429 On ch=8 n=91 v=0
212429 On ch=8 n=79 v=0
212430 On ch=8 n=87 v=127
212430 On ch=8 n=75 v=127
212430 On ch=8 n=91 v=127
212459 On ch=8 n=91 v=0
212459 On ch=8 n=75 v=0
212459 On ch=8 n=87 v=0
212460 On ch=8 n=87 v=127
212460 On ch=8 n=75 v=127
212460 On ch=8 n=91 v=127
212489 On ch=8 n=91 v=0
212489 On ch=8 n=75 v=0
212489 On ch=8 n=87 v=0
212490 On ch=8 n=87 v=127
212490 On ch=8 n=75 v=127
212490 On ch=8 n=91 v=127
212519 On ch=8 n=91 v=0
212519 On ch=8 n=75 v=0
212519 On ch=8 n=87 v=0
212520 On ch=8 n=87 v=127
212520 On ch=8 n=75 v=127
212520 On ch=8 n=91 v=127
212549 On ch=8 n=91 v=0
212549 On ch=8 n=75 v=0
212549 On ch=8 n=87 v=0
212550 On ch=8 n=87 v=127
212550 On ch=8 n=75 v=127
212550 On ch=8 n=91 v=127
212579 On ch=8 n=91 v=0
212579 On ch=8 n=75 v=0
212579 On ch=8 n=87 v=0
212580 On ch=8 n=87 v=127
212580 On ch=8 n=75 v=127
212580 On ch=8 n=91 v=127
212609 On ch=8 n=91 v=0
212609 On ch=8 n=75 v=0
212609 On ch=8 n=87 v=0
212610 On ch=8 n=87 v=127
212610 On ch=8 n=75 v=127
212610 On ch=8 n=91 v=127
212639 On ch=8 n=91 v=0
212639 On ch=8 n=75 v=0
212639 On ch=8 n=87 v=0
212640 On ch=8 n=87 v=127
212640 On ch=8 n=75 v=127
212640 On ch=8 n=91 v=127
212669 On ch=8 n=91 v=0
212669 On ch=8 n=75 v=0
212669 On ch=8 n=87 v=0
212670 On ch=8 n=87 v=127
212670 On ch=8 n=75 v=127
212670 On ch=8 n=91 v=127
212699 On ch=8 n=91 v=0
212699 On ch=8 n=75 v=0
212699 On ch=8 n=87 v=0
212700 On ch=8 n=87 v=127
212700 On ch=8 n=75 v=127
212700 On ch=8 n=91 v=127
212729 On ch=8 n=91 v=0
212729 On ch=8 n=75 v=0
212729 On ch=8 n=87 v=0
212730 On ch=8 n=87 v=127
212730 On ch=8 n=75 v=127
212730 On ch=8 n=91 v=127
212759 On ch=8 n=91 v=0
212759 On ch=8 n=75 v=0
212759 On ch=8 n=87 v=0
212760 On ch=8 n=87 v=127
212760 On ch=8 n=75 v=127
212760 On ch=8 n=91 v=127
212789 On ch=8 n=91 v=0
212789 On ch=8 n=75 v=0
212789 On ch=8 n=87 v=0
212790 On ch=8 n=87 v=127
212790 On ch=8 n=75 v=127
212790 On ch=8 n=91 v=127
212819 On ch=8 n=91 v=0
212819 On ch=8 n=75 v=0
212819 On ch=8 n=87 v=0
212820 On ch=8 n=87 v=127
212820 On ch=8 n=75 v=127
212820 On ch=8 n=91 v=127
212849 On ch=8 n=91 v=0
212849 On ch=8 n=75 v=0
212849 On ch=8 n=87 v=0
212850 On ch=8 n=87 v=127
212850 On ch=8 n=75 v=127
212850 On ch=8 n=91 v=127
212879 On ch=8 n=91 v=0
212879 On ch=8 n=75 v=0
212879 On ch=8 n=87 v=0
212880 On ch=8 n=87 v=127
212880 On ch=8 n=75 v=127
212880 On ch=8 n=91 v=127
212909 On ch=8 n=91 v=0
212909 On ch=8 n=75 v=0
212909 On ch=8 n=87 v=0
212910 On ch=8 n=87 v=127
212910 On ch=8 n=75 v=127
212910 On ch=8 n=91 v=127
212939 On ch=8 n=91 v=0
212939 On ch=8 n=75 v=0
212939 On ch=8 n=87 v=0
212940 On ch=8 n=87 v=127
212940 On ch=8 n=75 v=127
212940 On ch=8 n=91 v=127
212969 On ch=8 n=91 v=0
212969 On ch=8 n=75 v=0
212969 On ch=8 n=87 v=0
212970 On ch=8 n=87 v=127
212970 On ch=8 n=75 v=127
212970 On ch=8 n=91 v=127
212999 On ch=8 n=91 v=0
212999 On ch=8 n=75 v=0
212999 On ch=8 n=87 v=0
213000 On ch=8 n=87 v=127
213000 On ch=8 n=75 v=127
213000 On ch=8 n=91 v=127
213029 On ch=8 n=91 v=0
213029 On ch=8 n=75 v=0
213029 On ch=8 n=87 v=0
213030 On ch=8 n=87 v=127
213030 On ch=8 n=75 v=127
213030 On ch=8 n=91 v=127
213059 On ch=8 n=91 v=0
213059 On ch=8 n=75 v=0
213059 On ch=8 n=87 v=0
213060 On ch=8 n=87 v=127
213060 On ch=8 n=75 v=127
213060 On ch=8 n=91 v=127
213089 On ch=8 n=91 v=0
213089 On ch=8 n=75 v=0
213089 On ch=8 n=87 v=0
213090 On ch=8 n=87 v=127
213090 On ch=8 n=75 v=127
213090 On ch=8 n=91 v=127
213119 On ch=8 n=91 v=0
213119 On ch=8 n=75 v=0
213119 On ch=8 n=87 v=0
213120 On ch=8 n=87 v=127
213120 On ch=8 n=75 v=127
213120 On ch=8 n=91 v=127
213149 On ch=8 n=91 v=0
213149 On ch=8 n=75 v=0
213149 On ch=8 n=87 v=0
213150 On ch=8 n=87 v=127
213150 On ch=8 n=75 v=127
213150 On ch=8 n=91 v=127
213179 On ch=8 n=91 v=0
213179 On ch=8 n=75 v=0
213179 On ch=8 n=87 v=0
213180 On ch=8 n=87 v=127
213180 On ch=8 n=75 v=127
213180 On ch=8 n=91 v=127
213209 On ch=8 n=91 v=0
213209 On ch=8 n=75 v=0
213209 On ch=8 n=87 v=0
213210 On ch=8 n=87 v=127
213210 On ch=8 n=75 v=127
213210 On ch=8 n=91 v=127
213239 On ch=8 n=91 v=0
213239 On ch=8 n=75 v=0
213239 On ch=8 n=87 v=0
213240 On ch=8 n=87 v=127
213240 On ch=8 n=75 v=127
213240 On ch=8 n=91 v=127
213269 On ch=8 n=91 v=0
213269 On ch=8 n=75 v=0
213269 On ch=8 n=87 v=0
213270 On ch=8 n=87 v=127
213270 On ch=8 n=75 v=127
213270 On ch=8 n=91 v=127
213299 On ch=8 n=91 v=0
213299 On ch=8 n=75 v=0
213299 On ch=8 n=87 v=0
213300 On ch=8 n=87 v=127
213300 On ch=8 n=75 v=127
213300 On ch=8 n=91 v=127
213329 On ch=8 n=91 v=0
213329 On ch=8 n=75 v=0
213329 On ch=8 n=87 v=0
213330 On ch=8 n=87 v=127
213330 On ch=8 n=75 v=127
213330 On ch=8 n=91 v=127
213359 On ch=8 n=91 v=0
213359 On ch=8 n=75 v=0
213359 On ch=8 n=87 v=0
213360 On ch=8 n=87 v=127
213360 On ch=8 n=75 v=127
213360 On ch=8 n=91 v=127
213389 On ch=8 n=91 v=0
213389 On ch=8 n=75 v=0
213389 On ch=8 n=87 v=0
213390 On ch=8 n=87 v=127
213390 On ch=8 n=75 v=127
213390 On ch=8 n=91 v=127
213419 On ch=8 n=91 v=0
213419 On ch=8 n=75 v=0
213419 On ch=8 n=87 v=0
213420 On ch=8 n=87 v=127
213420 On ch=8 n=75 v=127
213420 On ch=8 n=91 v=127
213449 On ch=8 n=91 v=0
213449 On ch=8 n=75 v=0
213449 On ch=8 n=87 v=0
213450 On ch=8 n=87 v=127
213450 On ch=8 n=75 v=127
213450 On ch=8 n=91 v=127
213479 On ch=8 n=91 v=0
213479 On ch=8 n=75 v=0
213479 On ch=8 n=87 v=0
213480 On ch=8 n=87 v=127
213480 On ch=8 n=75 v=127
213480 On ch=8 n=91 v=127
213509 On ch=8 n=91 v=0
213509 On ch=8 n=75 v=0
213509 On ch=8 n=87 v=0
213510 On ch=8 n=87 v=127
213510 On ch=8 n=75 v=127
213510 On ch=8 n=91 v=127
213539 On ch=8 n=91 v=0
213539 On ch=8 n=75 v=0
213539 On ch=8 n=87 v=0
213540 On ch=8 n=87 v=127
213540 On ch=8 n=75 v=127
213540 On ch=8 n=91 v=127
213569 On ch=8 n=91 v=0
213569 On ch=8 n=75 v=0
213569 On ch=8 n=87 v=0
213570 On ch=8 n=87 v=127
213570 On ch=8 n=75 v=127
213570 On ch=8 n=91 v=127
213599 On ch=8 n=91 v=0
213599 On ch=8 n=75 v=0
213599 On ch=8 n=87 v=0
213600 On ch=8 n=87 v=127
213600 On ch=8 n=75 v=127
213600 On ch=8 n=91 v=127
213629 On ch=8 n=91 v=0
213629 On ch=8 n=75 v=0
213629 On ch=8 n=87 v=0
213630 On ch=8 n=87 v=127
213630 On ch=8 n=75 v=127
213630 On ch=8 n=91 v=127
213659 On ch=8 n=91 v=0
213659 On ch=8 n=75 v=0
213659 On ch=8 n=87 v=0
213660 On ch=8 n=87 v=127
213660 On ch=8 n=75 v=127
213660 On ch=8 n=91 v=127
213689 On ch=8 n=91 v=0
213689 On ch=8 n=75 v=0
213689 On ch=8 n=87 v=0
213690 On ch=8 n=87 v=127
213690 On ch=8 n=75 v=127
213690 On ch=8 n=91 v=127
213719 On ch=8 n=91 v=0
213719 On ch=8 n=75 v=0
213719 On ch=8 n=87 v=0
213720 On ch=8 n=87 v=127
213720 On ch=8 n=75 v=127
213720 On ch=8 n=91 v=127
213749 On ch=8 n=91 v=0
213749 On ch=8 n=75 v=0
213749 On ch=8 n=87 v=0
213750 On ch=8 n=87 v=127
213750 On ch=8 n=75 v=127
213750 On ch=8 n=91 v=127
213779 On ch=8 n=91 v=0
213779 On ch=8 n=75 v=0
213779 On ch=8 n=87 v=0
213780 On ch=8 n=87 v=127
213780 On ch=8 n=75 v=127
213780 On ch=8 n=91 v=127
213809 On ch=8 n=91 v=0
213809 On ch=8 n=75 v=0
213809 On ch=8 n=87 v=0
213810 On ch=8 n=87 v=127
213810 On ch=8 n=75 v=127
213810 On ch=8 n=91 v=127
213839 On ch=8 n=91 v=0
213839 On ch=8 n=75 v=0
213839 On ch=8 n=87 v=0
213840 On ch=8 n=87 v=127
213840 On ch=8 n=75 v=127
213840 On ch=8 n=91 v=127
213869 On ch=8 n=91 v=0
213869 On ch=8 n=75 v=0
213869 On ch=8 n=87 v=0
213870 On ch=8 n=87 v=127
213870 On ch=8 n=75 v=127
213870 On ch=8 n=91 v=127
213899 On ch=8 n=91 v=0
213899 On ch=8 n=75 v=0
213899 On ch=8 n=87 v=0
213900 On ch=8 n=87 v=127
213900 On ch=8 n=75 v=127
213900 On ch=8 n=91 v=127
213929 On ch=8 n=91 v=0
213929 On ch=8 n=75 v=0
213929 On ch=8 n=87 v=0
213930 On ch=8 n=87 v=127
213930 On ch=8 n=75 v=127
213930 On ch=8 n=91 v=127
213959 On ch=8 n=91 v=0
213959 On ch=8 n=75 v=0
213959 On ch=8 n=87 v=0
213960 On ch=8 n=87 v=127
213960 On ch=8 n=75 v=127
213960 On ch=8 n=91 v=127
213989 On ch=8 n=91 v=0
213989 On ch=8 n=75 v=0
213989 On ch=8 n=87 v=0
213990 On ch=8 n=87 v=127
213990 On ch=8 n=75 v=127
213990 On ch=8 n=91 v=127
214019 On ch=8 n=91 v=0
214019 On ch=8 n=75 v=0
214019 On ch=8 n=87 v=0
214020 On ch=8 n=87 v=127
214020 On ch=8 n=75 v=127
214020 On ch=8 n=91 v=127
214049 On ch=8 n=91 v=0
214049 On ch=8 n=75 v=0
214049 On ch=8 n=87 v=0
214050 On ch=8 n=87 v=127
214050 On ch=8 n=75 v=127
214050 On ch=8 n=91 v=127
214079 On ch=8 n=91 v=0
214079 On ch=8 n=75 v=0
214079 On ch=8 n=87 v=0
214080 On ch=8 n=87 v=127
214080 On ch=8 n=75 v=127
214080 On ch=8 n=91 v=127
214109 On ch=8 n=91 v=0
214109 On ch=8 n=75 v=0
214109 On ch=8 n=87 v=0
214110 On ch=8 n=87 v=127
214110 On ch=8 n=75 v=127
214110 On ch=8 n=91 v=127
214139 On ch=8 n=91 v=0
214139 On ch=8 n=75 v=0
214139 On ch=8 n=87 v=0
214140 On ch=8 n=87 v=127
214140 On ch=8 n=75 v=127
214140 On ch=8 n=91 v=127
214169 On ch=8 n=91 v=0
214169 On ch=8 n=75 v=0
214169 On ch=8 n=87 v=0
214170 On ch=8 n=87 v=127
214170 On ch=8 n=75 v=127
214170 On ch=8 n=91 v=127
214199 On ch=8 n=91 v=0
214199 On ch=8 n=75 v=0
214199 On ch=8 n=87 v=0
214200 On ch=8 n=75 v=127
214200 On ch=8 n=87 v=127
214200 On ch=8 n=91 v=127
214229 On ch=8 n=91 v=0
214229 On ch=8 n=87 v=0
214229 On ch=8 n=75 v=0
214230 On ch=8 n=75 v=127
214230 On ch=8 n=91 v=127
214259 On ch=8 n=91 v=0
214259 On ch=8 n=75 v=0
214260 On ch=8 n=75 v=127
214260 On ch=8 n=91 v=127
214289 On ch=8 n=91 v=0
214289 On ch=8 n=75 v=0
214290 On ch=8 n=75 v=127
214290 On ch=8 n=91 v=127
214319 On ch=8 n=91 v=0
214319 On ch=8 n=75 v=0
214320 On ch=8 n=75 v=127
214320 On ch=8 n=91 v=127
214349 On ch=8 n=91 v=0
214349 On ch=8 n=75 v=0
214350 On ch=8 n=75 v=127
214350 On ch=8 n=91 v=127
214379 On ch=8 n=91 v=0
214379 On ch=8 n=75 v=0
214380 On ch=8 n=75 v=127
214380 On ch=8 n=91 v=127
214409 On ch=8 n=91 v=0
214409 On ch=8 n=75 v=0
214410 On ch=8 n=75 v=127
214410 On ch=8 n=91 v=127
214439 On ch=8 n=91 v=0
214439 On ch=8 n=75 v=0
214440 On ch=8 n=76 v=127
214440 On ch=8 n=91 v=127
214469 On ch=8 n=91 v=0
214469 On ch=8 n=76 v=0
214470 On ch=8 n=76 v=127
214470 On ch=8 n=91 v=127
214499 On ch=8 n=91 v=0
214499 On ch=8 n=76 v=0
214500 On ch=8 n=76 v=127
214500 On ch=8 n=91 v=127
214529 On ch=8 n=91 v=0
214529 On ch=8 n=76 v=0
214530 On ch=8 n=76 v=127
214530 On ch=8 n=91 v=127
214559 On ch=8 n=91 v=0
214559 On ch=8 n=76 v=0
214560 On ch=8 n=79 v=127
214560 On ch=8 n=91 v=127
214589 On ch=8 n=91 v=0
214589 On ch=8 n=79 v=0
214590 On ch=8 n=79 v=127
214590 On ch=8 n=91 v=127
214619 On ch=8 n=91 v=0
214619 On ch=8 n=79 v=0
214620 On ch=8 n=77 v=127
214620 On ch=8 n=89 v=127
214649 On ch=8 n=89 v=0
214649 On ch=8 n=77 v=0
214650 On ch=8 n=77 v=127
214650 On ch=8 n=89 v=127
214679 On ch=8 n=89 v=0
214679 On ch=8 n=77 v=0
214680 On ch=8 n=76 v=127
214680 On ch=8 n=88 v=127
214709 On ch=8 n=88 v=0
214709 On ch=8 n=76 v=0
214710 On ch=8 n=76 v=127
214710 On ch=8 n=88 v=127
214739 On ch=8 n=88 v=0
214739 On ch=8 n=76 v=0
214740 On ch=8 n=77 v=127
214740 On ch=8 n=89 v=127
214769 On ch=8 n=89 v=0
214769 On ch=8 n=77 v=0
214770 On ch=8 n=77 v=127
214770 On ch=8 n=89 v=127
214799 On ch=8 n=89 v=0
214799 On ch=8 n=77 v=0
214800 On ch=8 n=79 v=127
214800 On ch=8 n=91 v=127
214829 On ch=8 n=91 v=0
214829 On ch=8 n=79 v=0
214830 On ch=8 n=79 v=127
214830 On ch=8 n=91 v=127
214859 On ch=8 n=91 v=0
214859 On ch=8 n=79 v=0
214860 On ch=8 n=77 v=127
214860 On ch=8 n=89 v=127
214889 On ch=8 n=89 v=0
214889 On ch=8 n=77 v=0
214890 On ch=8 n=77 v=127
214890 On ch=8 n=89 v=127
214919 On ch=8 n=89 v=0
214919 On ch=8 n=77 v=0
214920 On ch=8 n=77 v=127
214920 On ch=8 n=89 v=127
214949 On ch=8 n=89 v=0
214949 On ch=8 n=77 v=0
214950 On ch=8 n=77 v=127
214950 On ch=8 n=89 v=127
214979 On ch=8 n=89 v=0
214979 On ch=8 n=77 v=0
214980 On ch=8 n=75 v=127
214980 On ch=8 n=87 v=127
215009 On ch=8 n=87 v=0
215009 On ch=8 n=75 v=0
215010 On ch=8 n=75 v=127
215010 On ch=8 n=87 v=127
215039 On ch=8 n=87 v=0
215039 On ch=8 n=75 v=0
215040 On ch=8 n=74 v=127
215040 On ch=8 n=86 v=127
215069 On ch=8 n=86 v=0
215069 On ch=8 n=74 v=0
215070 On ch=8 n=74 v=127
215070 On ch=8 n=86 v=127
215099 On ch=8 n=86 v=0
215099 On ch=8 n=74 v=0
215100 On ch=8 n=75 v=127
215100 On ch=8 n=87 v=127
215129 On ch=8 n=87 v=0
215129 On ch=8 n=75 v=0
215130 On ch=8 n=75 v=127
215130 On ch=8 n=87 v=127
215159 On ch=8 n=87 v=0
215159 On ch=8 n=75 v=0
215160 On ch=8 n=77 v=127
215160 On ch=8 n=89 v=127
215189 On ch=8 n=89 v=0
215189 On ch=8 n=77 v=0
215190 On ch=8 n=77 v=127
215190 On ch=8 n=89 v=127
215219 On ch=8 n=89 v=0
215219 On ch=8 n=77 v=0
215220 On ch=8 n=75 v=127
215220 On ch=8 n=87 v=127
215249 On ch=8 n=87 v=0
215249 On ch=8 n=75 v=0
215250 On ch=8 n=75 v=127
215250 On ch=8 n=87 v=127
215279 On ch=8 n=87 v=0
215279 On ch=8 n=75 v=0
215280 On ch=8 n=74 v=127
215280 On ch=8 n=86 v=127
215309 On ch=8 n=74 v=0
215340 On ch=8 n=70 v=48
215399 On ch=8 n=86 v=0
215400 On ch=8 n=65 v=48
215409 On ch=8 n=70 v=0
215460 On ch=8 n=70 v=48
215469 On ch=8 n=65 v=0
215520 On ch=8 n=65 v=48
215529 On ch=8 n=70 v=0
215580 On ch=8 n=70 v=48
215589 On ch=8 n=65 v=0
215639 On ch=8 n=70 v=0
215640 On ch=8 n=65 v=48
215700 On ch=8 n=70 v=48
215709 On ch=8 n=65 v=0
215760 On ch=8 n=65 v=48
215769 On ch=8 n=70 v=0
215820 On ch=8 n=70 v=48
215829 On ch=8 n=65 v=0
215880 On ch=8 n=65 v=48
215889 On ch=8 n=70 v=0
215940 On ch=8 n=70 v=48
215949 On ch=8 n=65 v=0
215999 On ch=8 n=70 v=0
216000 On ch=8 n=65 v=48
216060 On ch=8 n=70 v=48
216069 On ch=8 n=65 v=0
216120 On ch=8 n=65 v=48
216129 On ch=8 n=70 v=0
216180 On ch=8 n=70 v=48
216189 On ch=8 n=65 v=0
216240 On ch=8 n=65 v=48
216249 On ch=8 n=70 v=0
216300 On ch=8 n=70 v=48
216309 On ch=8 n=65 v=0
216359 On ch=8 n=70 v=0
216360 On ch=8 n=65 v=48
216420 On ch=8 n=70 v=48
216429 On ch=8 n=65 v=0
216480 On ch=8 n=77 v=56
216480 On ch=8 n=68 v=48
216489 On ch=8 n=70 v=0
216540 On ch=8 n=70 v=48
216549 On ch=8 n=68 v=0
216600 On ch=8 n=68 v=48
216609 On ch=8 n=70 v=0
216659 On ch=8 n=68 v=0
216660 On ch=8 n=68 v=56
216660 On ch=8 n=70 v=48
216669 On ch=8 n=77 v=0
216719 On ch=8 n=70 v=0
216720 On ch=8 n=67 v=56
216729 On ch=8 n=68 v=0
216780 On ch=8 n=70 v=48
216839 On ch=8 n=67 v=0
216840 On ch=8 n=67 v=48
216849 On ch=8 n=70 v=0
216900 On ch=8 n=70 v=48
216909 On ch=8 n=67 v=0
216960 On ch=8 n=67 v=48
216969 On ch=8 n=70 v=0
217020 On ch=8 n=70 v=48
217029 On ch=8 n=67 v=0
217079 On ch=8 n=70 v=0
217080 On ch=8 n=67 v=48
217140 On ch=8 n=70 v=48
217149 On ch=8 n=67 v=0
217200 On ch=8 n=67 v=48
217209 On ch=8 n=70 v=0
217260 On ch=8 n=70 v=48
217269 On ch=8 n=67 v=0
217320 On ch=8 n=67 v=48
217329 On ch=8 n=70 v=0
217380 On ch=8 n=70 v=48
217389 On ch=8 n=67 v=0
217439 On ch=8 n=70 v=0
217440 On ch=8 n=67 v=48
217500 On ch=8 n=70 v=48
217509 On ch=8 n=67 v=0
217560 On ch=8 n=67 v=48
217569 On ch=8 n=70 v=0
217620 On ch=8 n=70 v=48
217629 On ch=8 n=67 v=0
217680 On ch=8 n=67 v=48
217689 On ch=8 n=70 v=0
217740 On ch=8 n=70 v=48
217749 On ch=8 n=67 v=0
217799 On ch=8 n=70 v=0
217800 On ch=8 n=67 v=48
217860 On ch=8 n=70 v=48
217869 On ch=8 n=67 v=0
217920 On ch=8 n=75 v=56
217929 On ch=8 n=70 v=0
217980 On ch=8 n=70 v=48
218040 On ch=8 n=67 v=48
218049 On ch=8 n=70 v=0
218099 On ch=8 n=67 v=0
218100 On ch=8 n=67 v=56
218100 On ch=8 n=70 v=48
218109 On ch=8 n=75 v=0
218159 On ch=8 n=70 v=0
218160 On ch=8 n=68 v=48
218160 On ch=8 n=65 v=48
218169 On ch=8 n=67 v=0
218219 On ch=8 n=65 v=0
218220 On ch=8 n=65 v=48
218220 On ch=8 n=62 v=48
218229 On ch=8 n=68 v=0
218279 On ch=8 n=65 v=0
218280 On ch=8 n=68 v=48
218280 On ch=8 n=65 v=48
218289 On ch=8 n=62 v=0
218339 On ch=8 n=65 v=0
218340 On ch=8 n=65 v=48
218340 On ch=8 n=62 v=48
218349 On ch=8 n=68 v=0
218399 On ch=8 n=65 v=0
218400 On ch=8 n=68 v=48
218400 On ch=8 n=65 v=48
218409 On ch=8 n=62 v=0
218459 On ch=8 n=65 v=0
218460 On ch=8 n=65 v=48
218460 On ch=8 n=62 v=48
218469 On ch=8 n=68 v=0
218519 On ch=8 n=62 v=0
218519 On ch=8 n=65 v=0
218520 On ch=8 n=68 v=48
218520 On ch=8 n=65 v=48
218579 On ch=8 n=65 v=0
218580 On ch=8 n=65 v=48
218580 On ch=8 n=62 v=48
218589 On ch=8 n=68 v=0
218639 On ch=8 n=65 v=0
218640 On ch=8 n=68 v=48
218640 On ch=8 n=65 v=48
218649 On ch=8 n=62 v=0
218699 On ch=8 n=65 v=0
218700 On ch=8 n=65 v=48
218700 On ch=8 n=62 v=48
218709 On ch=8 n=68 v=0
218759 On ch=8 n=65 v=0
218760 On ch=8 n=68 v=48
218760 On ch=8 n=65 v=48
218769 On ch=8 n=62 v=0
218819 On ch=8 n=65 v=0
218820 On ch=8 n=65 v=48
218820 On ch=8 n=62 v=48
218829 On ch=8 n=68 v=0
218879 On ch=8 n=62 v=0
218879 On ch=8 n=65 v=0
218880 On ch=8 n=68 v=48
218880 On ch=8 n=65 v=48
218999 On ch=8 n=65 v=0
218999 On ch=8 n=68 v=0
219000 On ch=8 n=72 v=127
219000 On ch=8 n=84 v=127
219179 On ch=8 n=84 v=0
219179 On ch=8 n=72 v=0
219180 On ch=8 n=82 v=127
219180 On ch=8 n=70 v=127
219209 On ch=8 n=70 v=0
219209 On ch=8 n=82 v=0
219240 On ch=8 n=80 v=127
219240 On ch=8 n=68 v=127
219299 On ch=8 n=68 v=0
219299 On ch=8 n=80 v=0
219360 On ch=8 n=79 v=127
219360 On ch=8 n=67 v=127
219419 On ch=8 n=67 v=0
219419 On ch=8 n=79 v=0
219480 On ch=8 n=77 v=127
219480 On ch=8 n=65 v=127
219539 On ch=8 n=65 v=0
219539 On ch=8 n=77 v=0
219600 On ch=8 n=75 v=48
219600 On ch=8 n=63 v=48
220440 On ch=8 n=82 v=48
220440 On ch=8 n=70 v=48
220449 On ch=8 n=63 v=0
220449 On ch=8 n=75 v=0
220559 On ch=8 n=82 v=0
220559 On ch=8 n=70 v=0
220560 On ch=8 n=82 v=48
220560 On ch=8 n=70 v=48
220649 On ch=8 n=70 v=0
220649 On ch=8 n=82 v=0
220680 On ch=8 n=70 v=48
220680 On ch=8 n=82 v=48
220769 On ch=8 n=82 v=0
220769 On ch=8 n=70 v=0
220800 On ch=8 n=82 v=48
220800 On ch=8 n=70 v=48
220889 On ch=8 n=70 v=0
220889 On ch=8 n=82 v=0
220920 On ch=8 n=82 v=48
220920 On ch=8 n=70 v=48
221009 On ch=8 n=70 v=0
221009 On ch=8 n=82 v=0
221040 On ch=8 n=82 v=48
221040 On ch=8 n=70 v=48
221069 On ch=8 n=70 v=0
221069 On ch=8 n=82 v=0
221100 On ch=8 n=79 v=50
221100 On ch=8 n=63 v=50
221160 On ch=8 n=77 v=52
221160 On ch=8 n=62 v=52
221169 On ch=8 n=63 v=0
221169 On ch=8 n=79 v=0
221220 On ch=8 n=79 v=54
221220 On ch=8 n=63 v=54
221229 On ch=8 n=77 v=0
221229 On ch=8 n=62 v=0
221280 On ch=8 n=80 v=56
221280 On ch=8 n=65 v=56
221289 On ch=8 n=79 v=0
221289 On ch=8 n=63 v=0
221340 On ch=8 n=82 v=58
221340 On ch=8 n=67 v=58
221349 On ch=8 n=80 v=0
221349 On ch=8 n=65 v=0
221399 On ch=8 n=82 v=0
221399 On ch=8 n=67 v=0
221400 On ch=8 n=84 v=60
221400 On ch=8 n=68 v=60
221460 On ch=8 n=86 v=62
221460 On ch=8 n=70 v=62
221469 On ch=8 n=68 v=0
221469 On ch=8 n=84 v=0
221519 On ch=8 n=86 v=0
221519 On ch=8 n=70 v=0
221520 On ch=8 n=87 v=64
221520 On ch=8 n=72 v=64
221549 On ch=8 n=72 v=0
221549 On ch=8 n=87 v=0
221580 On ch=8 n=75 v=66
221580 On ch=8 n=87 v=66
221609 On ch=8 n=87 v=0
221609 On ch=8 n=75 v=0
221640 On ch=8 n=87 v=68
221640 On ch=8 n=74 v=68
221669 On ch=8 n=74 v=0
221669 On ch=8 n=87 v=0
221700 On ch=8 n=87 v=70
221700 On ch=8 n=72 v=70
221729 On ch=8 n=72 v=0
221729 On ch=8 n=87 v=0
221760 On ch=8 n=87 v=72
221760 On ch=8 n=70 v=72
221789 On ch=8 n=70 v=0
221789 On ch=8 n=87 v=0
221820 On ch=8 n=75 v=74
221820 On ch=8 n=67 v=74
221849 On ch=8 n=67 v=0
221849 On ch=8 n=75 v=0
221880 On ch=8 n=74 v=76
221880 On ch=8 n=65 v=76
221909 On ch=8 n=65 v=0
221909 On ch=8 n=74 v=0
221940 On ch=8 n=75 v=78
221940 On ch=8 n=67 v=78
221969 On ch=8 n=67 v=0
221969 On ch=8 n=75 v=0
222000 On ch=8 n=77 v=80
222000 On ch=8 n=74 v=80
222029 On ch=8 n=74 v=0
222029 On ch=8 n=77 v=0
222060 On ch=8 n=79 v=82
222060 On ch=8 n=75 v=82
222089 On ch=8 n=75 v=0
222089 On ch=8 n=79 v=0
222120 On ch=8 n=80 v=84
222120 On ch=8 n=77 v=84
222149 On ch=8 n=77 v=0
222149 On ch=8 n=80 v=0
222180 On ch=8 n=80 v=86
222180 On ch=8 n=79 v=86
222209 On ch=8 n=79 v=0
222209 On ch=8 n=80 v=0
222240 On ch=8 n=80 v=88
222269 On ch=8 n=80 v=0
222300 On ch=8 n=80 v=90
222300 On ch=8 n=79 v=90
222329 On ch=8 n=79 v=0
222329 On ch=8 n=80 v=0
222360 On ch=8 n=80 v=92
222360 On ch=8 n=77 v=92
222389 On ch=8 n=77 v=0
222389 On ch=8 n=80 v=0
222420 On ch=8 n=80 v=94
222420 On ch=8 n=75 v=94
222449 On ch=8 n=75 v=0
222449 On ch=8 n=80 v=0
222480 On ch=8 n=80 v=96
222480 On ch=8 n=74 v=96
222509 On ch=8 n=80 v=0
222539 On ch=8 n=74 v=0
222540 On ch=8 n=77 v=96
222570 On ch=8 n=79 v=96
222579 On ch=8 n=77 v=0
222599 On ch=8 n=79 v=0
222600 On ch=8 n=68 v=96
222600 On ch=8 n=77 v=96
222629 On ch=8 n=77 v=0
222659 On ch=8 n=68 v=0
222660 On ch=8 n=74 v=96
222690 On ch=8 n=75 v=96
222699 On ch=8 n=74 v=0
222719 On ch=8 n=75 v=0
222720 On ch=8 n=74 v=96
222749 On ch=8 n=74 v=0
222780 On ch=8 n=68 v=96
222810 On ch=8 n=70 v=96
222819 On ch=8 n=68 v=0
222839 On ch=8 n=70 v=0
222840 On ch=8 n=68 v=96
222869 On ch=8 n=68 v=0
222900 On ch=8 n=65 v=96
222930 On ch=8 n=67 v=96
222939 On ch=8 n=65 v=0
222959 On ch=8 n=67 v=0
222960 On ch=8 n=65 v=96
222989 On ch=8 n=65 v=0
223020 On ch=8 n=62 v=96
223050 On ch=8 n=63 v=96
223059 On ch=8 n=62 v=0
223079 On ch=8 n=63 v=0
223080 On ch=8 n=62 v=96
223109 On ch=8 n=62 v=0
223140 On ch=8 n=74 v=96
223140 On ch=8 n=80 v=96
223169 On ch=8 n=80 v=0
223199 On ch=8 n=74 v=0
223200 On ch=8 n=75 v=96
223200 On ch=8 n=79 v=96
223229 On ch=8 n=79 v=0
223259 On ch=8 n=75 v=0
223260 On ch=8 n=75 v=96
223290 On ch=8 n=77 v=96
223299 On ch=8 n=75 v=0
223319 On ch=8 n=77 v=0
223320 On ch=8 n=63 v=96
223320 On ch=8 n=75 v=96
223349 On ch=8 n=75 v=0
223379 On ch=8 n=63 v=0
223380 On ch=8 n=72 v=96
223410 On ch=8 n=74 v=96
223419 On ch=8 n=72 v=0
223439 On ch=8 n=74 v=0
223440 On ch=8 n=72 v=96
223469 On ch=8 n=72 v=0
223500 On ch=8 n=67 v=96
223530 On ch=8 n=68 v=96
223539 On ch=8 n=67 v=0
223559 On ch=8 n=68 v=0
223560 On ch=8 n=67 v=96
223589 On ch=8 n=67 v=0
223620 On ch=8 n=63 v=96
223650 On ch=8 n=65 v=96
223659 On ch=8 n=63 v=0
223679 On ch=8 n=65 v=0
223680 On ch=8 n=63 v=96
223709 On ch=8 n=63 v=0
223740 On ch=8 n=60 v=96
223770 On ch=8 n=62 v=96
223779 On ch=8 n=60 v=0
223799 On ch=8 n=62 v=0
223800 On ch=8 n=60 v=96
223829 On ch=8 n=60 v=0
223860 On ch=8 n=63 v=96
223860 On ch=8 n=79 v=96
223889 On ch=8 n=79 v=0
223919 On ch=8 n=63 v=0
223920 On ch=8 n=85 v=96
223949 On ch=8 n=85 v=0
223980 On ch=8 n=73 v=96
224010 On ch=8 n=75 v=96
224019 On ch=8 n=73 v=0
224039 On ch=8 n=75 v=0
224040 On ch=8 n=73 v=96
224069 On ch=8 n=73 v=0
224100 On ch=8 n=70 v=96
224130 On ch=8 n=72 v=96
224139 On ch=8 n=70 v=0
224159 On ch=8 n=72 v=0
224160 On ch=8 n=70 v=96
224189 On ch=8 n=70 v=0
224220 On ch=8 n=67 v=96
224250 On ch=8 n=68 v=96
224259 On ch=8 n=67 v=0
224279 On ch=8 n=68 v=0
224280 On ch=8 n=67 v=96
224309 On ch=8 n=67 v=0
224340 On ch=8 n=64 v=96
224370 On ch=8 n=65 v=96
224379 On ch=8 n=64 v=0
224399 On ch=8 n=65 v=0
224400 On ch=8 n=64 v=96
224429 On ch=8 n=64 v=0
224460 On ch=8 n=64 v=96
224490 On ch=8 n=65 v=96
224499 On ch=8 n=64 v=0
224519 On ch=8 n=65 v=0
224520 On ch=8 n=64 v=96
224549 On ch=8 n=64 v=0
224580 On ch=8 n=67 v=96
224580 On ch=8 n=73 v=96
224609 On ch=8 n=73 v=0
224609 On ch=8 n=67 v=0
224640 On ch=8 n=68 v=96
224640 On ch=8 n=72 v=96
224669 On ch=8 n=72 v=0
224669 On ch=8 n=68 v=0
224700 On ch=8 n=60 v=96
224730 On ch=8 n=61 v=96
224759 On ch=8 n=61 v=0
224759 On ch=8 n=60 v=0
224760 On ch=8 n=60 v=96
224819 On ch=8 n=60 v=0
224820 On ch=8 n=63 v=96
224820 On ch=8 n=72 v=96
224849 On ch=8 n=72 v=0
224849 On ch=8 n=63 v=0
224880 On ch=8 n=62 v=96
224880 On ch=8 n=74 v=96
224909 On ch=8 n=74 v=0
224909 On ch=8 n=62 v=0
224940 On ch=8 n=65 v=96
224940 On ch=8 n=62 v=96
224969 On ch=8 n=62 v=0
224969 On ch=8 n=65 v=0
225000 On ch=8 n=63 v=96
225000 On ch=8 n=75 v=96
225029 On ch=8 n=75 v=0
225029 On ch=8 n=63 v=0
225060 On ch=8 n=68 v=96
225060 On ch=8 n=63 v=96
225090 On ch=8 n=65 v=96
225099 On ch=8 n=63 v=0
225119 On ch=8 n=65 v=0
225120 On ch=8 n=63 v=96
225149 On ch=8 n=63 v=0
225179 On ch=8 n=68 v=0
225180 On ch=8 n=68 v=96
225180 On ch=8 n=75 v=96
225209 On ch=8 n=75 v=0
225209 On ch=8 n=68 v=0
225240 On ch=8 n=68 v=96
225240 On ch=8 n=77 v=96
225269 On ch=8 n=77 v=0
225269 On ch=8 n=68 v=0
225300 On ch=8 n=68 v=96
225300 On ch=8 n=65 v=96
225329 On ch=8 n=65 v=0
225329 On ch=8 n=68 v=0
225360 On ch=8 n=67 v=96
225360 On ch=8 n=79 v=96
225389 On ch=8 n=79 v=0
225389 On ch=8 n=67 v=0
225420 On ch=8 n=63 v=96
225420 On ch=8 n=67 v=96
225449 On ch=8 n=67 v=0
225449 On ch=8 n=63 v=0
225480 On ch=8 n=75 v=96
225480 On ch=8 n=79 v=96
225509 On ch=8 n=79 v=0
225509 On ch=8 n=75 v=0
225540 On ch=8 n=63 v=96
225540 On ch=8 n=67 v=96
225569 On ch=8 n=67 v=0
225569 On ch=8 n=63 v=0
225600 On ch=8 n=75 v=96
225600 On ch=8 n=80 v=96
225629 On ch=8 n=80 v=0
225629 On ch=8 n=75 v=0
225660 On ch=8 n=63 v=96
225660 On ch=8 n=68 v=96
225689 On ch=8 n=68 v=0
225689 On ch=8 n=63 v=0
225720 On ch=8 n=81 v=96
225720 On ch=8 n=75 v=96
225749 On ch=8 n=75 v=0
225749 On ch=8 n=81 v=0
225780 On ch=8 n=69 v=96
225780 On ch=8 n=63 v=96
225809 On ch=8 n=63 v=0
225809 On ch=8 n=69 v=0
225840 On ch=8 n=82 v=96
225840 On ch=8 n=75 v=96
225869 On ch=8 n=75 v=0
225869 On ch=8 n=82 v=0
225900 On ch=8 n=70 v=96
225900 On ch=8 n=63 v=96
225929 On ch=8 n=63 v=0
225929 On ch=8 n=70 v=0
225960 On ch=8 n=83 v=96
225960 On ch=8 n=75 v=96
225989 On ch=8 n=75 v=0
225989 On ch=8 n=83 v=0
226020 On ch=8 n=71 v=96
226020 On ch=8 n=63 v=96
226049 On ch=8 n=63 v=0
226049 On ch=8 n=71 v=0
226080 On ch=8 n=84 v=96
226080 On ch=8 n=72 v=96
226109 On ch=8 n=72 v=0
226109 On ch=8 n=84 v=0
226110 On ch=8 n=84 v=96
226110 On ch=8 n=72 v=96
226139 On ch=8 n=72 v=0
226139 On ch=8 n=84 v=0
226140 On ch=8 n=83 v=96
226140 On ch=8 n=71 v=96
226169 On ch=8 n=71 v=0
226169 On ch=8 n=83 v=0
226170 On ch=8 n=83 v=96
226170 On ch=8 n=71 v=96
226199 On ch=8 n=71 v=0
226199 On ch=8 n=83 v=0
226200 On ch=8 n=84 v=96
226200 On ch=8 n=72 v=96
226229 On ch=8 n=72 v=0
226229 On ch=8 n=84 v=0
226230 On ch=8 n=84 v=96
226230 On ch=8 n=72 v=96
226259 On ch=8 n=72 v=0
226259 On ch=8 n=84 v=0
226260 On ch=8 n=83 v=96
226260 On ch=8 n=71 v=96
226289 On ch=8 n=71 v=0
226289 On ch=8 n=83 v=0
226290 On ch=8 n=83 v=96
226290 On ch=8 n=71 v=96
226319 On ch=8 n=71 v=0
226319 On ch=8 n=83 v=0
226320 On ch=8 n=84 v=96
226320 On ch=8 n=72 v=96
226349 On ch=8 n=72 v=0
226349 On ch=8 n=84 v=0
226350 On ch=8 n=84 v=96
226350 On ch=8 n=72 v=96
226379 On ch=8 n=72 v=0
226379 On ch=8 n=84 v=0
226380 On ch=8 n=79 v=96
226380 On ch=8 n=67 v=96
226409 On ch=8 n=67 v=0
226409 On ch=8 n=79 v=0
226410 On ch=8 n=79 v=96
226410 On ch=8 n=67 v=96
226439 On ch=8 n=67 v=0
226439 On ch=8 n=79 v=0
226440 On ch=8 n=80 v=96
226440 On ch=8 n=68 v=96
226469 On ch=8 n=68 v=0
226469 On ch=8 n=80 v=0
226470 On ch=8 n=80 v=96
226470 On ch=8 n=68 v=96
226499 On ch=8 n=68 v=0
226499 On ch=8 n=80 v=0
226500 On ch=8 n=79 v=96
226500 On ch=8 n=67 v=96
226529 On ch=8 n=67 v=0
226529 On ch=8 n=79 v=0
226530 On ch=8 n=79 v=96
226530 On ch=8 n=67 v=96
226559 On ch=8 n=67 v=0
226559 On ch=8 n=79 v=0
226560 On ch=8 n=82 v=96
226560 On ch=8 n=70 v=96
226589 On ch=8 n=70 v=0
226589 On ch=8 n=82 v=0
226590 On ch=8 n=82 v=96
226590 On ch=8 n=70 v=96
226619 On ch=8 n=70 v=0
226619 On ch=8 n=82 v=0
226620 On ch=8 n=80 v=96
226620 On ch=8 n=68 v=96
226649 On ch=8 n=68 v=0
226649 On ch=8 n=80 v=0
226650 On ch=8 n=80 v=96
226650 On ch=8 n=68 v=96
226679 On ch=8 n=68 v=0
226679 On ch=8 n=80 v=0
226680 On ch=8 n=79 v=96
226680 On ch=8 n=67 v=96
226709 On ch=8 n=67 v=0
226709 On ch=8 n=79 v=0
226710 On ch=8 n=79 v=96
226710 On ch=8 n=67 v=96
226739 On ch=8 n=67 v=0
226739 On ch=8 n=79 v=0
226740 On ch=8 n=77 v=96
226740 On ch=8 n=65 v=96
226769 On ch=8 n=65 v=0
226769 On ch=8 n=77 v=0
226770 On ch=8 n=77 v=96
226770 On ch=8 n=65 v=96
226799 On ch=8 n=65 v=0
226799 On ch=8 n=77 v=0
226800 On ch=8 n=75 v=96
226800 On ch=8 n=63 v=96
226829 On ch=8 n=63 v=0
226829 On ch=8 n=75 v=0
226830 On ch=8 n=75 v=96
226830 On ch=8 n=63 v=96
226859 On ch=8 n=63 v=0
226859 On ch=8 n=75 v=0
226860 On ch=8 n=70 v=96
226860 On ch=8 n=58 v=96
226889 On ch=8 n=58 v=0
226889 On ch=8 n=70 v=0
226890 On ch=8 n=70 v=96
226890 On ch=8 n=58 v=96
226919 On ch=8 n=58 v=0
226919 On ch=8 n=70 v=0
226920 On ch=8 n=72 v=96
226920 On ch=8 n=60 v=96
226949 On ch=8 n=60 v=0
226949 On ch=8 n=72 v=0
226950 On ch=8 n=72 v=96
226950 On ch=8 n=60 v=96
226979 On ch=8 n=60 v=0
226979 On ch=8 n=72 v=0
226980 On ch=8 n=74 v=96
226980 On ch=8 n=62 v=96
227009 On ch=8 n=62 v=0
227009 On ch=8 n=74 v=0
227010 On ch=8 n=74 v=96
227010 On ch=8 n=62 v=96
227039 On ch=8 n=62 v=0
227039 On ch=8 n=74 v=0
227040 On ch=8 n=75 v=96
227040 On ch=8 n=63 v=96
227069 On ch=8 n=63 v=0
227069 On ch=8 n=75 v=0
227070 On ch=8 n=75 v=96
227070 On ch=8 n=63 v=96
227099 On ch=8 n=63 v=0
227099 On ch=8 n=75 v=0
227100 On ch=8 n=77 v=96
227100 On ch=8 n=65 v=96
227129 On ch=8 n=65 v=0
227129 On ch=8 n=77 v=0
227130 On ch=8 n=77 v=96
227130 On ch=8 n=65 v=96
227159 On ch=8 n=65 v=0
227159 On ch=8 n=77 v=0
227160 On ch=8 n=79 v=96
227160 On ch=8 n=67 v=96
227189 On ch=8 n=67 v=0
227189 On ch=8 n=79 v=0
227190 On ch=8 n=79 v=96
227190 On ch=8 n=67 v=96
227219 On ch=8 n=67 v=0
227219 On ch=8 n=79 v=0
227220 On ch=8 n=80 v=96
227220 On ch=8 n=68 v=96
227249 On ch=8 n=68 v=0
227249 On ch=8 n=80 v=0
227250 On ch=8 n=80 v=96
227250 On ch=8 n=68 v=96
227279 On ch=8 n=68 v=0
227279 On ch=8 n=80 v=0
227280 On ch=8 n=81 v=96
227280 On ch=8 n=69 v=96
227309 On ch=8 n=69 v=0
227309 On ch=8 n=81 v=0
227310 On ch=8 n=81 v=96
227310 On ch=8 n=69 v=96
227339 On ch=8 n=69 v=0
227339 On ch=8 n=81 v=0
227340 On ch=8 n=82 v=96
227340 On ch=8 n=70 v=96
227369 On ch=8 n=70 v=0
227369 On ch=8 n=82 v=0
227370 On ch=8 n=82 v=96
227370 On ch=8 n=70 v=96
227399 On ch=8 n=70 v=0
227399 On ch=8 n=82 v=0
227400 On ch=8 n=80 v=96
227400 On ch=8 n=68 v=96
227429 On ch=8 n=68 v=0
227429 On ch=8 n=80 v=0
227430 On ch=8 n=80 v=96
227430 On ch=8 n=68 v=96
227459 On ch=8 n=68 v=0
227459 On ch=8 n=80 v=0
227460 On ch=8 n=79 v=96
227460 On ch=8 n=67 v=96
227489 On ch=8 n=67 v=0
227489 On ch=8 n=79 v=0
227490 On ch=8 n=79 v=96
227490 On ch=8 n=67 v=96
227519 On ch=8 n=67 v=0
227519 On ch=8 n=79 v=0
227520 On ch=8 n=77 v=98
227520 On ch=8 n=65 v=98
227549 On ch=8 n=65 v=0
227549 On ch=8 n=77 v=0
227550 On ch=8 n=77 v=99
227550 On ch=8 n=65 v=99
227579 On ch=8 n=65 v=0
227579 On ch=8 n=77 v=0
227580 On ch=8 n=79 v=100
227580 On ch=8 n=67 v=100
227609 On ch=8 n=67 v=0
227609 On ch=8 n=79 v=0
227610 On ch=8 n=79 v=101
227610 On ch=8 n=67 v=101
227639 On ch=8 n=67 v=0
227639 On ch=8 n=79 v=0
227640 On ch=8 n=80 v=103
227640 On ch=8 n=68 v=103
227669 On ch=8 n=68 v=0
227669 On ch=8 n=80 v=0
227670 On ch=8 n=80 v=104
227670 On ch=8 n=68 v=104
227699 On ch=8 n=68 v=0
227699 On ch=8 n=80 v=0
227700 On ch=8 n=67 v=105
227700 On ch=8 n=79 v=105
227729 On ch=8 n=79 v=0
227729 On ch=8 n=67 v=0
227730 On ch=8 n=79 v=106
227730 On ch=8 n=67 v=106
227759 On ch=8 n=67 v=0
227759 On ch=8 n=79 v=0
227760 On ch=8 n=77 v=108
227760 On ch=8 n=65 v=108
227789 On ch=8 n=65 v=0
227789 On ch=8 n=77 v=0
227790 On ch=8 n=77 v=109
227790 On ch=8 n=65 v=109
227819 On ch=8 n=65 v=0
227819 On ch=8 n=77 v=0
227820 On ch=8 n=75 v=110
227820 On ch=8 n=63 v=110
227849 On ch=8 n=63 v=0
227849 On ch=8 n=75 v=0
227850 On ch=8 n=75 v=111
227850 On ch=8 n=63 v=111
227879 On ch=8 n=63 v=0
227879 On ch=8 n=75 v=0
227880 On ch=8 n=74 v=113
227880 On ch=8 n=62 v=113
227909 On ch=8 n=62 v=0
227909 On ch=8 n=74 v=0
227910 On ch=8 n=74 v=114
227910 On ch=8 n=62 v=114
227939 On ch=8 n=62 v=0
227939 On ch=8 n=74 v=0
227940 On ch=8 n=75 v=115
227940 On ch=8 n=63 v=115
227969 On ch=8 n=63 v=0
227969 On ch=8 n=75 v=0
227970 On ch=8 n=75 v=116
227970 On ch=8 n=63 v=116
227999 On ch=8 n=63 v=0
227999 On ch=8 n=75 v=0
228000 On ch=8 n=77 v=118
228000 On ch=8 n=65 v=118
228029 On ch=8 n=65 v=0
228029 On ch=8 n=77 v=0
228030 On ch=8 n=77 v=119
228030 On ch=8 n=65 v=119
228059 On ch=8 n=65 v=0
228059 On ch=8 n=77 v=0
228060 On ch=8 n=75 v=120
228060 On ch=8 n=63 v=120
228089 On ch=8 n=63 v=0
228089 On ch=8 n=75 v=0
228090 On ch=8 n=75 v=121
228090 On ch=8 n=63 v=121
228119 On ch=8 n=63 v=0
228119 On ch=8 n=75 v=0
228120 On ch=8 n=74 v=123
228120 On ch=8 n=62 v=123
228149 On ch=8 n=62 v=0
228149 On ch=8 n=74 v=0
228150 On ch=8 n=74 v=124
228150 On ch=8 n=62 v=124
228179 On ch=8 n=62 v=0
228179 On ch=8 n=74 v=0
228180 On ch=8 n=72 v=125
228180 On ch=8 n=60 v=125
228209 On ch=8 n=60 v=0
228209 On ch=8 n=72 v=0
228210 On ch=8 n=72 v=126
228210 On ch=8 n=60 v=126
228239 On ch=8 n=60 v=0
228239 On ch=8 n=72 v=0
228240 On ch=8 n=70 v=127
228240 On ch=8 n=58 v=127
228269 On ch=8 n=58 v=0
228269 On ch=8 n=70 v=0
228270 On ch=8 n=70 v=127
228270 On ch=8 n=58 v=127
228299 On ch=8 n=58 v=0
228299 On ch=8 n=70 v=0
228300 On ch=8 n=81 v=127
228300 On ch=8 n=69 v=127
228329 On ch=8 n=69 v=0
228329 On ch=8 n=81 v=0
228330 On ch=8 n=81 v=127
228330 On ch=8 n=69 v=127
228359 On ch=8 n=69 v=0
228359 On ch=8 n=81 v=0
228360 On ch=8 n=80 v=127
228360 On ch=8 n=68 v=127
228389 On ch=8 n=68 v=0
228389 On ch=8 n=80 v=0
228390 On ch=8 n=80 v=127
228390 On ch=8 n=68 v=127
228419 On ch=8 n=68 v=0
228419 On ch=8 n=80 v=0
228420 On ch=8 n=79 v=127
228420 On ch=8 n=67 v=127
228449 On ch=8 n=67 v=0
228449 On ch=8 n=79 v=0
228450 On ch=8 n=79 v=127
228450 On ch=8 n=67 v=127
228479 On ch=8 n=67 v=0
228479 On ch=8 n=79 v=0
228480 On ch=8 n=77 v=127
228480 On ch=8 n=65 v=127
228509 On ch=8 n=65 v=0
228509 On ch=8 n=77 v=0
228510 On ch=8 n=77 v=127
228510 On ch=8 n=65 v=127
228539 On ch=8 n=65 v=0
228539 On ch=8 n=77 v=0
228540 On ch=8 n=75 v=127
228540 On ch=8 n=63 v=127
228569 On ch=8 n=63 v=0
228569 On ch=8 n=75 v=0
228570 On ch=8 n=75 v=127
228570 On ch=8 n=63 v=127
228599 On ch=8 n=63 v=0
228599 On ch=8 n=75 v=0
228600 On ch=8 n=74 v=127
228600 On ch=8 n=62 v=127
228629 On ch=8 n=62 v=0
228629 On ch=8 n=74 v=0
228630 On ch=8 n=74 v=127
228630 On ch=8 n=62 v=127
228659 On ch=8 n=62 v=0
228659 On ch=8 n=74 v=0
228660 On ch=8 n=72 v=127
228689 On ch=8 n=72 v=0
228690 On ch=8 n=72 v=127
228719 On ch=8 n=72 v=0
228720 On ch=8 n=70 v=127
228749 On ch=8 n=70 v=0
228750 On ch=8 n=70 v=127
228779 On ch=8 n=70 v=0
228780 On ch=8 n=68 v=127
228809 On ch=8 n=68 v=0
228810 On ch=8 n=68 v=127
228839 On ch=8 n=68 v=0
228840 On ch=8 n=67 v=127
228869 On ch=8 n=67 v=0
228870 On ch=8 n=67 v=127
228899 On ch=8 n=67 v=0
228900 On ch=8 n=65 v=127
228929 On ch=8 n=65 v=0
228930 On ch=8 n=65 v=127
228959 On ch=8 n=65 v=0
228960 On ch=8 n=63 v=127
229079 On ch=8 n=63 v=0